<svg xmlns="http://www.w3.org/2000/svg" width="350" height="338.56" viewBox="0 0 350 338.56">
  <g id="Social_strategy-rafiki" data-name="Social strategy-rafiki" transform="translate(-56.11 -89)">
    <g id="freepik--background-simple--inject-3" transform="translate(71.096 89)">
      <path id="Trazado_128537" data-name="Trazado 128537" d="M181.355,292.88c41.449-1.92,87.451,50.53,126.475,17,34.129-29.3-8.712-77,36.491-95C371.759,204,429.365,192,391.913,140,369.19,108.37,326.206,89,289.8,89c-56.4.09-22.8,66.58-54.786,92.22-14.37,11.53-27.483,3.29-42.949.5-22.741-4.11-52.191-7.07-74.617.34-35.656,11.82-55.217,64.85-42.41,103.7C97.4,353.57,143.148,294.66,181.355,292.88Z" transform="translate(-71.096 -89)" fill="#c687d0"/>
      <path id="Trazado_128538" data-name="Trazado 128538" d="M181.355,292.88c41.449-1.92,87.451,50.53,126.475,17,34.129-29.3-8.712-77,36.491-95C371.759,204,429.365,192,391.913,140,369.19,108.37,326.206,89,289.8,89c-56.4.09-22.8,66.58-54.786,92.22-14.37,11.53-27.483,3.29-42.949.5-22.741-4.11-52.191-7.07-74.617.34-35.656,11.82-55.217,64.85-42.41,103.7C97.4,353.57,143.148,294.66,181.355,292.88Z" transform="translate(-71.096 -89)" fill="#fff" opacity="0.9"/>
    </g>
    <g id="freepik--Shadow--inject-3" transform="translate(56.11 404.92)">
      <ellipse id="freepik--path--inject-3" cx="175" cy="11.32" rx="175" ry="11.32" fill="#f5f5f5"/>
    </g>
    <g id="freepik--Character--inject-3" transform="translate(205.375 117.353)">
      <path id="Trazado_128539" data-name="Trazado 128539" d="M275.07,401.35l7.37,2.63,8.06-16.36-7.37-2.64Z" transform="translate(-230.114 -117.353)" fill="#ffb573"/>
      <path id="Trazado_128540" data-name="Trazado 128540" d="M290.5,387.62l-4.15,8.44-7.38-2.64,4.16-8.43Z" transform="translate(-230.114 -117.353)" opacity="0.2"/>
      <path id="Trazado_128541" data-name="Trazado 128541" d="M282.7,403.11l-8.05-2.87a.68.68,0,0,0-.81.28l-3.8,6a1.15,1.15,0,0,0,.6,1.69c2.92,1,7.18,2.31,10.83,3.62,4.26,1.52,5.5,4.38,10.81,4.38,4.38,0,4.82-2.28,3.54-2.76-5.87-2.22-7.67-4.31-11.55-9.16a3.65,3.65,0,0,0-1.57-1.18Z" transform="translate(-230.114 -117.353)" fill="#263238"/>
      <path id="Trazado_128542" data-name="Trazado 128542" d="M318.18,316.67c.94-23.87-15.82-87.14-15.82-87.14l-27.27,3.67c9.94,28.24,17.69,51.31,21,80.38,3.77,14.38-18.88,77.3-18.88,77.3l12.48,4.46S317.21,341.49,318.18,316.67Z" transform="translate(-230.114 -117.353)" fill="#c687d0"/>
      <path id="Trazado_128543" data-name="Trazado 128543" d="M318.18,316.67c.94-23.87-15.82-87.14-15.82-87.14l-27.27,3.67c9.94,28.24,17.69,51.31,21,80.38,3.77,14.38-18.88,77.3-18.88,77.3l12.48,4.46S317.21,341.49,318.18,316.67Z" transform="translate(-230.114 -117.353)" fill="#3c4973" opacity="0.3"/>
      <path id="Trazado_128544" data-name="Trazado 128544" d="M285,245.86l-3.87,4.64c.41,1.16.75,2.32,1.05,3.48A325.694,325.694,0,0,1,293,293.87h0C293.43,279.55,295,253.86,285,245.86Z" transform="translate(-230.114 -117.353)" opacity="0.2"/>
      <path id="Trazado_128545" data-name="Trazado 128545" d="M291.18,396.19l-14.87-5.31,1.71-4.81,15.05,5.12Z" transform="translate(-230.114 -117.353)" fill="#263238"/>
      <path id="Trazado_128546" data-name="Trazado 128546" d="M283.06,404.39h0c1.1.67,3.11,1.71,4.18,1.28a1,1,0,0,0,.63-.73.61.61,0,0,0-.12-.57c-.72-.82-4.22-.37-4.62-.32a.19.19,0,0,0-.16.15.2.2,0,0,0,.09.19Zm4.37.19.06.05a.21.21,0,0,1,0,.22.69.69,0,0,1-.41.49c-.6.24-1.84-.12-3.37-1,1.41-.12,3.29-.15,3.72.24Z" transform="translate(-230.114 -117.353)" fill="#c687d0"/>
      <path id="Trazado_128547" data-name="Trazado 128547" d="M283.06,404.39a.2.2,0,0,0,.13,0c1-.08,3.37-1.05,3.53-1.93a.685.685,0,0,0-.48-.72,1.33,1.33,0,0,0-1.07,0c-1.22.43-2.12,2.35-2.16,2.43a.19.19,0,0,0,0,.18Zm3.19-2.17c.13.1.11.18.1.22-.09.52-1.74,1.35-2.84,1.57a4.3,4.3,0,0,1,1.78-1.92,1,1,0,0,1,.79,0,.631.631,0,0,1,.17.13Z" transform="translate(-230.114 -117.353)" fill="#c687d0"/>
      <path id="Trazado_128548" data-name="Trazado 128548" d="M266.29,408.25h7.83l.63-18.13h-7.83Z" transform="translate(-230.114 -117.353)" fill="#ffb573"/>
      <path id="Trazado_128549" data-name="Trazado 128549" d="M274.81,407.34h-9.55a.67.67,0,0,0-.66.53l-1.55,7a1.15,1.15,0,0,0,1.15,1.39c3.07-.05,5.31-.23,9.17-.23,2.38,0,9.56.25,12.84.25s3.72-3.25,2.37-3.54c-6-1.32-10.57-3.14-12.5-4.88a1.93,1.93,0,0,0-1.27-.52Z" transform="translate(-230.114 -117.353)" fill="#263238"/>
      <path id="Trazado_128550" data-name="Trazado 128550" d="M298.49,168.41l7.8,15.18c2.62,5,5.3,10.07,8.12,14.63l1.07,1.63a5.392,5.392,0,0,0,.56.73c.34.33.41.45.81.57a4.24,4.24,0,0,0,2.09-.27,14.38,14.38,0,0,0,3-1.42,41.74,41.74,0,0,0,6.23-4.72c1-.91,2-1.83,3-2.81s2-2,2.87-2.94l4.82,3.36c-.77,1.41-1.54,2.65-2.39,3.92s-1.72,2.52-2.67,3.72a43.061,43.061,0,0,1-6.61,6.87,24.939,24.939,0,0,1-4.49,2.89,14.13,14.13,0,0,1-6.32,1.49,11.61,11.61,0,0,1-7.09-2.55,15.719,15.719,0,0,1-2.41-2.42l-1.44-1.89a157.344,157.344,0,0,1-9.53-15.16c-2.88-5.13-5.57-10.27-8.1-15.6Z" transform="translate(-230.114 -117.353)" fill="#ffb573"/>
      <path id="Trazado_128551" data-name="Trazado 128551" d="M284.37,169.09c-1.25,7.38,11.43,28.06,11.43,28.06l13.33-14.56s-3.24-11.28-9.66-16.63C293.28,160.81,285.81,160.59,284.37,169.09Z" transform="translate(-230.114 -117.353)" fill="#f5ca56"/>
      <path id="Trazado_128552" data-name="Trazado 128552" d="M300.2,186.18c-2.95-6.63-9.12-10.38-14.79-10.24,2.91,9,10.39,21.21,10.39,21.21l5.95-6.49A30,30,0,0,0,300.2,186.18Z" transform="translate(-230.114 -117.353)" opacity="0.2"/>
      <path id="Trazado_128553" data-name="Trazado 128553" d="M332.66,190.68l3.52-5.25,8.26,5.87s-6.79,5.7-11,3.26Z" transform="translate(-230.114 -117.353)" fill="#ffb573"/>
      <path id="Trazado_128554" data-name="Trazado 128554" d="M346.01,184.44l6.16,2.42-7.73,4.44-8.26-5.87Z" transform="translate(-230.114 -117.353)" fill="#ffb573"/>
      <path id="Trazado_128555" data-name="Trazado 128555" d="M266.92,390.12h7.83l-.33,9.35h-7.83Z" transform="translate(-230.114 -117.353)" opacity="0.2"/>
      <path id="Trazado_128556" data-name="Trazado 128556" d="M249.35,168A175.8,175.8,0,0,1,256,193.38c1.13,6,1.94,11.75,2.56,17,1.44,12.24,1.77,21.62,2.34,24.77l41.49-5.59c-.67-45.65-9.5-67-9.5-67a80,80,0,0,0-10.05-.59c-.71,0-1.43,0-2.16.05A154.7,154.7,0,0,0,263,164.37c-1.11.21-2.23.44-3.31.69C254.18,166.33,249.35,168,249.35,168Z" transform="translate(-230.114 -117.353)" fill="#f5ca56"/>
      <path id="Trazado_128557" data-name="Trazado 128557" d="M258.59,177.64l-5.66,2.18c1.21,4.59,2.21,9.14,3,13.56.14.73.27,1.45.4,2.17C259.14,190.24,259.67,184.21,258.59,177.64Z" transform="translate(-230.114 -117.353)" opacity="0.2"/>
      <path id="Trazado_128558" data-name="Trazado 128558" d="M262.08,144.28c1.88,5.52,4.39,15.77.93,20.09A17.77,17.77,0,0,0,277.34,168c4.86-.76,4.65-4.21,3.31-5.95-6.54-.66-7-5.38-6.5-9.94Z" transform="translate(-230.114 -117.353)" fill="#ffb573"/>
      <path id="Trazado_128559" data-name="Trazado 128559" d="M273.56,168.63l.34.54,2.96-1.15-1.39-.89Z" transform="translate(-230.114 -117.353)" fill="#c687d0"/>
      <path id="Trazado_128560" data-name="Trazado 128560" d="M279.47,167.73l-2.61.29.15-1.35,1.5-.24Z" transform="translate(-230.114 -117.353)" fill="#c687d0"/>
      <path id="Trazado_128561" data-name="Trazado 128561" d="M263.56,162.54a17.43,17.43,0,0,0,11.91,4.59c-1.66,1-1.91,5.12-1.91,5.12s-9-2-12-7.92a11.1,11.1,0,0,1,2-1.79Z" transform="translate(-230.114 -117.353)" fill="#fff"/>
      <path id="Trazado_128562" data-name="Trazado 128562" d="M279,161.4a3.454,3.454,0,0,1-2,5.27c3.31.59,4.46,4.8,4.46,4.8s3.42-3.45.81-9.64A22.831,22.831,0,0,0,279,161.4Z" transform="translate(-230.114 -117.353)" fill="#fff"/>
      <path id="Trazado_128563" data-name="Trazado 128563" d="M267,147.46l7.15,4.6a17.268,17.268,0,0,0-.12,3.2c-2.47,0-6.15-2.23-6.75-4.72a8.931,8.931,0,0,1-.28-3.08Z" transform="translate(-230.114 -117.353)" opacity="0.2"/>
      <path id="Trazado_128564" data-name="Trazado 128564" d="M260.25,135.83c1.51,7.62,2,12.16,6.42,15.58,6.64,5.14,15.65.35,16.45-7.57.72-7.13-1.87-18.39-9.8-20.44a10.6,10.6,0,0,0-13.07,12.43Z" transform="translate(-230.114 -117.353)" fill="#ffb573"/>
      <path id="Trazado_128565" data-name="Trazado 128565" d="M264.07,143.56a15.13,15.13,0,0,0-1-9.14c.86-1.59,2.86-5.48,2.36-8-3.28-1-10.22,0-10.22,0S250.85,137.83,264.07,143.56Z" transform="translate(-230.114 -117.353)" fill="#263238"/>
      <path id="Trazado_128566" data-name="Trazado 128566" d="M259.51,129.17c3.61.55,18.12-1.06,21.18-7.45,1.1-2.31-2.72-.16-4.84.22s-15.19-.39-18.72.06C255,122.28,249.49,127.62,259.51,129.17Z" transform="translate(-230.114 -117.353)" fill="#263238"/>
      <path id="Trazado_128567" data-name="Trazado 128567" d="M255.73,122.6c-1.88-5.29,12.63-.65,16.84-3,6.36-3.63,8.62-2.33,7.11.16s-2.44,3.32-9.55,3.33S256.84,125.71,255.73,122.6Z" transform="translate(-230.114 -117.353)" fill="#263238"/>
      <path id="Trazado_128568" data-name="Trazado 128568" d="M257.48,143.6a7.41,7.41,0,0,0,5,2.61c2.58.22,3.38-2.21,2.25-4.39-1-2-3.57-4.44-6-3.63S256,141.74,257.48,143.6Z" transform="translate(-230.114 -117.353)" fill="#ffb573"/>
      <path id="Trazado_128569" data-name="Trazado 128569" d="M287.65,231.51S286.88,299,285,321.83c-2,25-7,75.83-7,75.83H263.68s-.3-46.55,1.11-71c1.61-27.85-3.92-91.55-3.92-91.55Z" transform="translate(-230.114 -117.353)" fill="#c687d0"/>
      <path id="Trazado_128570" data-name="Trazado 128570" d="M287.65,231.51S286.88,299,285,321.83c-2,25-7,75.83-7,75.83H263.68s-.3-46.55,1.11-71c1.61-27.85-3.92-91.55-3.92-91.55Z" transform="translate(-230.114 -117.353)" fill="#3c4973" opacity="0.3"/>
      <path id="Trazado_128571" data-name="Trazado 128571" d="M279.73,397.97H262.85l-.42-5.37h18.24Z" transform="translate(-230.114 -117.353)" fill="#263238"/>
      <path id="Trazado_128572" data-name="Trazado 128572" d="M272.2,136.41c.08.62.48,1.08.89,1s.67-.61.59-1.23-.49-1.09-.89-1A1.029,1.029,0,0,0,272.2,136.41Z" transform="translate(-230.114 -117.353)" fill="#263238"/>
      <path id="Trazado_128573" data-name="Trazado 128573" d="M279.27,135.45c.08.63.48,1.09.89,1s.68-.61.59-1.24-.48-1.09-.89-1S279.19,134.83,279.27,135.45Z" transform="translate(-230.114 -117.353)" fill="#263238"/>
      <path id="Trazado_128574" data-name="Trazado 128574" d="M277.06,136.07a22.61,22.61,0,0,0,3.71,5,3.63,3.63,0,0,1-2.91,1Z" transform="translate(-230.114 -117.353)" fill="#ed893e"/>
      <path id="Trazado_128575" data-name="Trazado 128575" d="M275.45,144a6,6,0,0,0,.82-.06.182.182,0,1,0-.05-.36,5,5,0,0,1-4.3-1.4.19.19,0,0,0-.26,0,.18.18,0,0,0,0,.26,5.16,5.16,0,0,0,3.79,1.56Z" transform="translate(-230.114 -117.353)" fill="#263238"/>
      <path id="Trazado_128576" data-name="Trazado 128576" d="M269.71,134.42a.37.37,0,0,0,.32-.19,3,3,0,0,1,2.19-1.55.37.37,0,0,0,.35-.39.39.39,0,0,0-.4-.35,3.72,3.72,0,0,0-2.78,1.92.37.37,0,0,0,.14.51.41.41,0,0,0,.18.05Z" transform="translate(-230.114 -117.353)" fill="#263238"/>
      <path id="Trazado_128577" data-name="Trazado 128577" d="M282,132.61a.36.36,0,0,0,.2-.06.38.38,0,0,0,.11-.52,3.7,3.7,0,0,0-2.92-1.71.37.37,0,1,0,0,.74,2.91,2.91,0,0,1,2.3,1.38A.37.37,0,0,0,282,132.61Z" transform="translate(-230.114 -117.353)" fill="#263238"/>
      <path id="Trazado_128578" data-name="Trazado 128578" d="M277.39,408.71a2.35,2.35,0,0,0,1.51-.4,1.15,1.15,0,0,0,.39-1,.61.61,0,0,0-.32-.53c-.87-.44-3.39,1.11-3.68,1.29a.19.19,0,0,0-.08.19.18.18,0,0,0,.14.15A9.221,9.221,0,0,0,277.39,408.71Zm1.17-1.62a.571.571,0,0,1,.24,0,.24.24,0,0,1,.12.22.76.76,0,0,1-.26.67c-.42.36-1.45.41-2.78.15a7.409,7.409,0,0,1,2.68-1.04Z" transform="translate(-230.114 -117.353)" fill="#c687d0"/>
      <path id="Trazado_128579" data-name="Trazado 128579" d="M275.39,408.43h.09c.81-.44,2.37-2.16,2.21-3a.6.6,0,0,0-.59-.48,1,1,0,0,0-.79.23c-.91.75-1.1,3-1.1,3.1a.17.17,0,0,0,.08.17A.19.19,0,0,0,275.39,408.43Zm1.58-3.17h.08c.24,0,.27.14.27.19.1.52-.89,1.81-1.7,2.42a4.47,4.47,0,0,1,.92-2.45.68.68,0,0,1,.46-.16Z" transform="translate(-230.114 -117.353)" fill="#c687d0"/>
      <path id="Trazado_128580" data-name="Trazado 128580" d="M255.7,180.06l-2,2.92c-.67,1-1.33,2-2,3.05-1.28,2.05-2.57,4.09-3.76,6.18a99.22,99.22,0,0,0-6.37,12.65l-.6,1.59-.26.7a.22.22,0,0,0,0-.09c-.08-.06-.11.45.13,1.14a19.58,19.58,0,0,0,3.13,5,67.118,67.118,0,0,0,4.75,5.22c.86.85,1.71,1.72,2.6,2.56l2.67,2.47-3.2,4.93a59.161,59.161,0,0,1-13.41-8.84,25.76,25.76,0,0,1-5.79-7.11,12.12,12.12,0,0,1-1.47-6.17,10.209,10.209,0,0,1,.29-2l.09-.36.07-.25.14-.5.57-2a88.51,88.51,0,0,1,6.37-14.78c1.26-2.32,2.57-4.6,4-6.82.7-1.11,1.42-2.21,2.15-3.3s1.47-2.14,2.34-3.29Z" transform="translate(-230.114 -117.353)" fill="#ffb573"/>
      <path id="Trazado_128581" data-name="Trazado 128581" d="M249.35,168c-7,2.5-14.92,21.68-14.92,21.68l17.29,8a50,50,0,0,0,6.51-16.45C260.25,170.88,257.9,165,249.35,168Z" transform="translate(-230.114 -117.353)" fill="#f5ca56"/>
      <path id="Trazado_128582" data-name="Trazado 128582" d="M255,224.19l2,5.26-8.61,1.21s-2.39-6.5.92-8.15h2.78a3.57,3.57,0,0,1,2.91,1.68Z" transform="translate(-230.114 -117.353)" fill="#ffb573"/>
      <path id="Trazado_128583" data-name="Trazado 128583" d="M256.02,235.56l-6.6.99-1.09-5.89,8.61-1.21Z" transform="translate(-230.114 -117.353)" fill="#ffb573"/>
    </g>
    <g id="freepik--Like--inject-3" transform="translate(285.578 123.779)">
      <path id="Trazado_128584" data-name="Trazado 128584" d="M367,150.13a23,23,0,0,0-1.49-5.95l.92-.37A23.8,23.8,0,0,1,368,150Z" transform="translate(-315.251 -123.779)" fill="#c687d0"/>
      <path id="Trazado_128585" data-name="Trazado 128585" d="M362.89,139.43a23,23,0,0,0-10.18-8l.38-.93a23.9,23.9,0,0,1,10.61,8.38Z" transform="translate(-315.251 -123.779)" fill="#c687d0"/>
      <path id="Trazado_128586" data-name="Trazado 128586" d="M344.17,176.65a24,24,0,0,1-23.95-24h1a23,23,0,0,0,22.95,23Z" transform="translate(-315.251 -123.779)" fill="#c687d0"/>
      <circle id="Elipse_4315" data-name="Elipse 4315" cx="20.45" cy="20.45" r="20.45" transform="translate(0 28.921) rotate(-45)" fill="#829af5"/>
      <path id="Trazado_128587" data-name="Trazado 128587" d="M348.9,145.64l-2.61.9c.65-1.22.69-3.67-.74-6.17a1.63,1.63,0,0,0-1.6-.73,1.59,1.59,0,0,0-1.46,1.65c.05,2.31-.44,7-5.14,7.9l-1,1.27,3.95,11.34,2-.38h0c.77-.09,5.13-.67,7.94-1a6.65,6.65,0,0,0,5.76-6.85l-.56-5.19a3.6,3.6,0,0,0-4.26-3.14Z" transform="translate(-315.251 -123.779)" fill="#fff"/>
      <rect id="Rectángulo_30675" data-name="Rectángulo 30675" width="5.96" height="14.93" rx="1.06" transform="translate(26.102 40.701) rotate(163.74)" fill="#263238"/>
    </g>
  </g>
</svg>
