<svg xmlns="http://www.w3.org/2000/svg" width="50" height="50" viewBox="0 0 50 50">
  <g id="Grupo_55789" data-name="Grupo 55789" transform="translate(519 5190)">
    <g id="cost-per-click" transform="translate(-513 -5194.592)">
      <path id="Trazado_128035" data-name="Trazado 128035" d="M121.953,84.474V82.213a2.793,2.793,0,0,0-2.79-2.79h-1.049a2.848,2.848,0,0,0-1.338.348,2.794,2.794,0,0,0-2.606-1.794H113.15a2.785,2.785,0,0,0-1.986.828,2.785,2.785,0,0,0-1.986-.828h-1.021a2.773,2.773,0,0,0-1.183.263V72.3h.5a2.8,2.8,0,0,0,2.792-2.792v-8.28a2.8,2.8,0,0,0-2.792-2.792h-4.352a.8.8,0,0,0,0,1.607h4.352a1.186,1.186,0,0,1,1.185,1.185V69.5a1.186,1.186,0,0,1-1.185,1.185h-.5V69.9a2.739,2.739,0,0,0-2.736-2.736H103.11a2.739,2.739,0,0,0-2.736,2.735v.79H99.2A1.186,1.186,0,0,1,98.011,69.5v-8.28A1.186,1.186,0,0,1,99.2,60.039a.8.8,0,1,0,0-1.607A2.8,2.8,0,0,0,96.4,61.224V69.5A2.8,2.8,0,0,0,99.2,72.3h1.176l-.015,15.519-1.487-1.9a4.709,4.709,0,0,0-6.61-.808,2,2,0,0,0-.343,2.8l5.293,6.768a1.39,1.39,0,0,1,.294.852,5.193,5.193,0,0,0,4.095,5.1l2.07.459v4.044a1.8,1.8,0,0,0,1.8,1.8l12.8.006a1.8,1.8,0,0,0,1.8-1.8v-.928a10.458,10.458,0,0,0,3.012-1.277.8.8,0,1,0-.851-1.363,8.911,8.911,0,1,1,2.4-2.192.8.8,0,0,0,1.281.97A10.423,10.423,0,0,0,128.031,94a10.529,10.529,0,0,0-6.077-9.531ZM107,94a10.527,10.527,0,0,0,10.515,10.515c.315,0,.629-.016.941-.043v.66a.19.19,0,0,1-.189.19l-12.8-.006a.19.19,0,0,1-.19-.19v-4.688a.8.8,0,0,0-.63-.784l-2.7-.6a3.6,3.6,0,0,1-2.835-3.532,3,3,0,0,0-.635-1.842l-5.293-6.768a.39.39,0,0,1,.067-.547A3.1,3.1,0,0,1,97.6,86.9l2.882,3.685a.8.8,0,0,0,.633.309h.039a.8.8,0,0,0,.8-.8l.019-20.194a1.131,1.131,0,0,1,1.129-1.129h1.128a1.131,1.131,0,0,1,1.129,1.129V80.767a.8.8,0,1,0,1.607,0,1.184,1.184,0,0,1,1.183-1.183h1.021a1.18,1.18,0,0,1,1.125.815.9.9,0,0,0,.861.626h0a.9.9,0,0,0,.861-.626,1.18,1.18,0,0,1,1.125-.816h1.021a1.184,1.184,0,0,1,1.183,1.183v.7a.9.9,0,0,0,1.714.394l.01-.021c.244-.5.379-.783,1.08-.811h1.006a1.184,1.184,0,0,1,1.183,1.183v1.665A10.517,10.517,0,0,0,107,94Z" transform="translate(-90.138 -52.84)" fill="#7d6eb2"/>
      <path id="Trazado_128036" data-name="Trazado 128036" d="M307.128,341.843a.826.826,0,0,0,.779-.837v-.615a3.415,3.415,0,0,0,2.525-2.731,2.967,2.967,0,0,0-2.041-3.4c-.159-.056-.321-.115-.483-.175v-2.812a1.793,1.793,0,0,1,.565.3l-.008-.007a.8.8,0,0,0,1.154-1.1l-.064-.083a3.539,3.539,0,0,0-1.646-.77v-.479a.826.826,0,0,0-.779-.837.8.8,0,0,0-.828.8v.569q-.1.024-.194.053a2.822,2.822,0,0,0-1.935,2.213,2.5,2.5,0,0,0,.825,2.464,6.29,6.29,0,0,0,1.3.758v3.685a2.572,2.572,0,0,1-1.186-.484.825.825,0,0,0-1.12.193.8.8,0,0,0,.216,1.136,4.078,4.078,0,0,0,2.089.77v.574A.8.8,0,0,0,307.128,341.843Zm1.719-4.449a1.8,1.8,0,0,1-.94,1.3V335.8A1.39,1.39,0,0,1,308.848,337.394Zm-2.859-4.25a.93.93,0,0,1-.238-.9,1.3,1.3,0,0,1,.55-.848v1.964A3.259,3.259,0,0,1,305.988,333.144Z" transform="translate(-279.785 -293.856)" fill="#7d6eb2"/>
      <path id="Trazado_128039" data-name="Trazado 128039" d="M82.2,127.7a.8.8,0,0,0-.883-.715l-1.783.187a.8.8,0,0,0,.083,1.6.815.815,0,0,0,.085,0l1.783-.187A.8.8,0,0,0,82.2,127.7Z" transform="translate(-78.817 -114.058)" fill="#7d6eb2"/>
      <path id="Trazado_128040" data-name="Trazado 128040" d="M126.554,200.182a.8.8,0,0,0,1.122-.178l1.054-1.45a.8.8,0,1,0-1.3-.944l-1.054,1.45A.8.8,0,0,0,126.554,200.182Z" transform="translate(-121.153 -176.839)" fill="#7d6eb2"/>
      <path id="Trazado_128041" data-name="Trazado 128041" d="M253.714,197.432a.8.8,0,0,0-.178,1.122L254.59,200a.8.8,0,0,0,1.3-.944l-1.054-1.45A.8.8,0,0,0,253.714,197.432Z" transform="translate(-234.716 -176.84)" fill="#7d6eb2"/>
      <path id="Trazado_128042" data-name="Trazado 128042" d="M293.973,127.7a.8.8,0,0,0,.715.883l1.783.187a.8.8,0,1,0,.168-1.6l-1.783-.187A.8.8,0,0,0,293.973,127.7Z" transform="translate(-270.962 -114.059)" fill="#7d6eb2"/>
    </g>
    <rect id="Rectángulo_30685" data-name="Rectángulo 30685" width="50" height="50" transform="translate(-519 -5190)" fill="none"/>
  </g>
</svg>
