<svg xmlns="http://www.w3.org/2000/svg" width="84" height="84" viewBox="0 0 84 84">
  <g id="Grupo_55685" data-name="Grupo 55685" transform="translate(-644 -6459)">
    <path id="Trazado_127410" data-name="Trazado 127410" d="M42,0A42,42,0,1,1,0,42,42,42,0,0,1,42,0Z" transform="translate(644 6459)" fill="#f5ca56"/>
    <g id="tent" transform="translate(636.565 6474.4)">
      <g id="Grupo_55689" data-name="Grupo 55689" transform="translate(25.483 0)">
        <g id="Grupo_55688" data-name="Grupo 55688">
          <path id="Trazado_127897" data-name="Trazado 127897" d="M73.387,13.246V9.771a9.671,9.671,0,0,0-1.041-4.393.774.774,0,0,0-1.382.7A8.107,8.107,0,0,1,71.8,9H27.067a8.235,8.235,0,0,1,8.187-7.45H63.616A8.231,8.231,0,0,1,68.89,3.462a.774.774,0,0,0,.993-1.187A9.78,9.78,0,0,0,63.616,0H35.254a9.782,9.782,0,0,0-9.771,9.771v3.475a4.092,4.092,0,0,0,2.924,3.916V34.823H27.328a1.847,1.847,0,0,0-1.845,1.845v1.149a1.846,1.846,0,0,0,1.082,1.678V51.455A1.747,1.747,0,0,0,28.31,53.2H70.56A1.747,1.747,0,0,0,72.3,51.455V39.494a1.846,1.846,0,0,0,1.082-1.678V36.668a1.847,1.847,0,0,0-1.845-1.845H70.463V17.162a4.092,4.092,0,0,0,2.924-3.916Zm-1.548-2.7v2.7a2.537,2.537,0,0,1-5.063.245h0c-.008-.081-.012-.162-.012-.245v-2.7h5.075ZM57.8,34.823v-.85a4.864,4.864,0,0,0-2.729-4.353,11.591,11.591,0,0,0-2.247-.815,4.915,4.915,0,1,0-6.781,0,11.6,11.6,0,0,0-2.247.815,4.864,4.864,0,0,0-2.73,4.353v.85H33.637V16.431a4.076,4.076,0,0,0,5.865-.8,4.079,4.079,0,0,0,6.622,0,4.079,4.079,0,0,0,6.622,0,4.079,4.079,0,0,0,6.622,0,4.077,4.077,0,0,0,5.865.8V34.823Zm-15.185,0v-.85a3.307,3.307,0,0,1,1.856-2.96,10.025,10.025,0,0,1,3.795-.988,4.895,4.895,0,0,0,2.336,0,10.025,10.025,0,0,1,3.795.988,3.307,3.307,0,0,1,1.856,2.96v.85Zm6.819-6.2A3.368,3.368,0,1,1,52.8,25.251,3.372,3.372,0,0,1,49.435,28.619ZM65.217,13.246a2.537,2.537,0,1,1-5.075,0v-2.7h5.075v2.7Zm-6.622,0a2.537,2.537,0,1,1-5.075,0v-2.7h5.075v2.7Zm-6.622,0a2.537,2.537,0,1,1-5.075,0v-2.7h5.075v2.7Zm-6.622,0a2.537,2.537,0,1,1-5.075,0v-2.7H45.35Zm-6.622,0a2.537,2.537,0,1,1-5.075,0v-2.7h5.075Zm-11.7,0v-2.7h5.075v2.7a2.537,2.537,0,1,1-5.075,0Zm2.924,4.066a4.063,4.063,0,0,0,2.135-.856V34.823H29.954ZM71.839,36.668v1.149a.3.3,0,0,1-.3.3H34.631a.774.774,0,0,0,0,1.548H70.757V51.455a.2.2,0,0,1-.2.2H28.31a.2.2,0,0,1-.2-.2V39.661h2.909a.774.774,0,1,0,0-1.548H27.328a.3.3,0,0,1-.3-.3V36.668a.3.3,0,0,1,.3-.3H71.542a.3.3,0,0,1,.3.3Zm-5.059-1.845V16.457a4.063,4.063,0,0,0,2.135.856V34.823Z" transform="translate(-25.483 0)" fill="#690589"/>
          <path id="Trazado_127898" data-name="Trazado 127898" d="M89.064,409.858v3.356a1.565,1.565,0,0,0,1.563,1.563h31.564a1.565,1.565,0,0,0,1.563-1.563v-3.356a1.565,1.565,0,0,0-1.563-1.563H90.627A1.565,1.565,0,0,0,89.064,409.858Zm33.144,0v3.356a.016.016,0,0,1-.016.016H90.627a.016.016,0,0,1-.016-.016v-3.356a.016.016,0,0,1,.016-.016h31.564A.016.016,0,0,1,122.208,409.858Z" transform="translate(-82.458 -365.871)" fill="#690589"/>
        </g>
      </g>
    </g>
  </g>
</svg>
