<svg xmlns="http://www.w3.org/2000/svg" xmlns:xlink="http://www.w3.org/1999/xlink" width="123.833" height="124.294" viewBox="0 0 123.833 124.294">
  <defs>
    <radialGradient id="radial-gradient" cx="0.076" cy="0.019" r="1.465" gradientTransform="translate(0.001)" gradientUnits="objectBoundingBox">
      <stop offset="0" stop-color="#f6f6f7"/>
      <stop offset="0.477" stop-color="#f9f9fa"/>
      <stop offset="0.715" stop-color="#fff"/>
    </radialGradient>
  </defs>
  <g id="Grupo_46891" data-name="Grupo 46891" transform="translate(0 0)">
    <g id="Grupo_42274" data-name="Grupo 42274" transform="translate(0 0)">
      <g id="Grupo_18423" data-name="Grupo 18423" transform="translate(0 0)">
        <g id="Grupo_18421" data-name="Grupo 18421">
          <g id="Grupo_18420" data-name="Grupo 18420">
            <g id="Grupo_18419" data-name="Grupo 18419">
              <path id="Trazado_40936" data-name="Trazado 40936" d="M318.456,2207.635a61.916,61.916,0,1,1-61.915-61.915A61.915,61.915,0,0,1,318.456,2207.635Z" transform="translate(-194.623 -2145.721)" fill="#fff"/>
            </g>
          </g>
        </g>
        <path id="Trazado_40937" data-name="Trazado 40937" d="M317.728,2206.843a61.915,61.915,0,1,0-61.915,61.918A61.672,61.672,0,0,0,317.728,2206.843Z" transform="translate(-194.128 -2144.467)" fill="url(#radial-gradient)"/>
        <path id="Trazado_40938" data-name="Trazado 40938" d="M296.6,2200.4a47.26,47.26,0,1,0-47.26,47.26A47.084,47.084,0,0,0,296.6,2200.4Z" transform="translate(-187.439 -2138.769)" fill="none" stroke="#26aab7" stroke-miterlimit="10" stroke-width="4"/>
        <g id="Grupo_18422" data-name="Grupo 18422" transform="translate(10.969 34.762)">
          <path id="Trazado_40939" data-name="Trazado 40939" d="M307.148,2164.488a61.924,61.924,0,0,1-106.6,61.66,61.727,61.727,0,0,0,106.6-61.66Z" transform="translate(-200.545 -2164.488)" fill="#eceef0"/>
        </g>
        <g id="deadline" transform="translate(27.348 27.177)">
          <g id="Grupo_55588" data-name="Grupo 55588" transform="translate(1.187 1.194)">
            <path id="Trazado_127379" data-name="Trazado 127379" d="M76.362,41.945a31.731,31.731,0,0,1-.285,4.391l-3.287.937-4.379,1.246a26.361,26.361,0,0,1-3.1,7.488l3.869,6.978a30.472,30.472,0,0,1-2.907,3.287,30.474,30.474,0,0,1-3.287,2.907L60.876,68,56.023,65.3c-.581.356-1.175.688-1.78.985h-.012a26.432,26.432,0,0,1-5.708,2.124L46.34,76.074a31.732,31.732,0,0,1-4.391.285c-.593,0-1.187-.012-1.78-.047-.878-.036-1.744-.119-2.611-.237l-2.183-7.666a26.361,26.361,0,0,1-7.488-3.1l-1.78.985-5.2,2.884c-.5-.38-.973-.771-1.448-1.175-.629-.546-1.246-1.127-1.839-1.733a30.473,30.473,0,0,1-2.907-3.287l3.88-6.966a26.957,26.957,0,0,1-3.109-7.5L12.2,47.582,7.821,46.336a33.983,33.983,0,0,1,0-8.781l7.666-2.183a26.361,26.361,0,0,1,3.1-7.488l-3.869-6.978a30.474,30.474,0,0,1,2.907-3.287c.593-.605,1.21-1.187,1.839-1.733.475-.4.949-.8,1.448-1.175l5.186,2.9h.012l1.768.985a26.957,26.957,0,0,1,7.5-3.109l1.6-5.625.581-2.041c.866-.119,1.733-.2,2.611-.237.593-.036,1.187-.047,1.78-.047a31.732,31.732,0,0,1,4.391.285l2.183,7.666a25.783,25.783,0,0,1,5.708,2.112c.605.3,1.2.629,1.78.985l4.865-2.694,2.112-1.175a30.473,30.473,0,0,1,3.287,2.907,30.473,30.473,0,0,1,2.907,3.287L65.3,27.871a26.956,26.956,0,0,1,3.109,7.5l7.666,2.183A31.71,31.71,0,0,1,76.362,41.945Z" transform="translate(-7.535 -7.532)" fill="#00838f"/>
            <path id="Trazado_127380" data-name="Trazado 127380" d="M64.85,48.815a26.361,26.361,0,0,1-3.1,7.488l3.869,6.978a30.472,30.472,0,0,1-2.907,3.287c-.593.605-1.21,1.187-1.839,1.733l-4.853-2.706c-.581.356-1.175.688-1.78.985h-.012l-1.768-.985a26.956,26.956,0,0,1-7.5,3.109l-2.183,7.666c-.866.119-1.733.2-2.611.237-.878-.036-1.744-.119-2.611-.237L35.373,68.7a26.361,26.361,0,0,1-7.488-3.1l-1.78.985c-.605-.3-4.616,3.24-5.2,2.884L19.46,68.3c-.629-.546-1.246-1.127-1.839-1.733a30.473,30.473,0,0,1-2.907-3.287l3.88-6.966a26.957,26.957,0,0,1-3.109-7.5L12.2,47.878,7.819,46.632a33.983,33.983,0,0,1,0-8.781l7.666-2.183a26.361,26.361,0,0,1,3.1-7.488L14.713,21.2a30.473,30.473,0,0,1,2.907-3.287c.593-.605,1.21-1.187,1.839-1.733l1.448-1.175c.581-.356,4.581,3.192,5.186,2.9h.012l1.768.985a26.957,26.957,0,0,1,7.5-3.109l1.6-5.625,3.192-2.278c.878.036,1.744.119,2.611.237l2.183,7.666a26.361,26.361,0,0,1,7.488,3.1l1.78-.985c.605.3,1.2.629,1.78.985l4.865-2.694c.629.546,1.246,1.127,1.839,1.733A30.473,30.473,0,0,1,65.621,21.2l-3.88,6.966a26.956,26.956,0,0,1,3.109,7.5l7.666,2.183a33.984,33.984,0,0,1,0,8.781Z" transform="translate(-7.534 -7.827)" fill="#cbc5e0"/>
            <path id="Trazado_127381" data-name="Trazado 127381" d="M156.4,137.453a19,19,0,0,1-18.987,18.987,17.571,17.571,0,0,1-1.78-.083,18.987,18.987,0,0,1,0-37.807,17.529,17.529,0,0,1,1.78-.083A19,19,0,0,1,156.4,137.453Z" transform="translate(-103.003 -103.039)" fill="#b89841"/>
            <path id="Trazado_127382" data-name="Trazado 127382" d="M152.843,137.968a19.006,19.006,0,0,1-17.207,18.9,18.987,18.987,0,0,1,0-37.807A19.006,19.006,0,0,1,152.843,137.968Z" transform="translate(-103.003 -103.554)" fill="#f5ca56"/>
            <path id="Trazado_127383" data-name="Trazado 127383" d="M181.082,166.841c0,.4-.012.8-.047,1.187a14.276,14.276,0,0,1-1.293,4.877v.012a14.619,14.619,0,0,1-4.77,5.625,14.742,14.742,0,0,1-2.053,1.2h-.012a14.277,14.277,0,0,1-4.877,1.293c-.392.036-.783.047-1.187.047s-.8-.012-1.187-.047a5.036,5.036,0,0,1-.593-.071,13.988,13.988,0,0,1-4.284-1.222h-.012a15.092,15.092,0,0,1-3.987-2.824,14.051,14.051,0,0,1-4.13-8.888c-.036-.392-.047-.783-.047-1.187s.012-.8.047-1.187a14.276,14.276,0,0,1,1.293-4.877,14.559,14.559,0,0,1,4.77-5.637,14.74,14.74,0,0,1,2.053-1.2h.012a13.984,13.984,0,0,1,4.284-1.222,5.036,5.036,0,0,1,.593-.071c.392-.036.783-.047,1.187-.047s.8.012,1.187.047a14.276,14.276,0,0,1,4.877,1.293h.012a14.62,14.62,0,0,1,5.625,4.77,14.74,14.74,0,0,1,1.2,2.053v.012a14.276,14.276,0,0,1,1.293,4.877C181.07,166.046,181.082,166.437,181.082,166.841Z" transform="translate(-132.428 -132.427)" fill="#cfd8dc"/>
            <path id="Trazado_127384" data-name="Trazado 127384" d="M177.522,167.575c0,.4-.012.8-.047,1.187a14.277,14.277,0,0,1-1.293,4.877v.012a14.619,14.619,0,0,1-4.77,5.625,14.739,14.739,0,0,1-2.053,1.2h-.012a13.985,13.985,0,0,1-4.284,1.222,13.989,13.989,0,0,1-4.284-1.222h-.012a15.092,15.092,0,0,1-3.987-2.824,14.051,14.051,0,0,1-4.13-8.888c-.036-.392-.047-.783-.047-1.187s.012-.8.047-1.187a14.276,14.276,0,0,1,1.293-4.877,14.559,14.559,0,0,1,4.77-5.637,14.74,14.74,0,0,1,2.053-1.2h.012a13.984,13.984,0,0,1,4.284-1.222,13.989,13.989,0,0,1,4.284,1.222h.012a14.619,14.619,0,0,1,5.625,4.77,14.739,14.739,0,0,1,1.2,2.053v.012a14.277,14.277,0,0,1,1.293,4.877C177.51,166.78,177.522,167.172,177.522,167.575Z" transform="translate(-132.428 -133.162)" fill="#f4f4f4"/>
          </g>
          <g id="Grupo_55589" data-name="Grupo 55589" transform="translate(0 0.008)">
            <path id="Trazado_127385" data-name="Trazado 127385" d="M131.1,110.933a20.173,20.173,0,1,0,14.265,5.908A20.174,20.174,0,0,0,131.1,110.933Zm12.586,32.759a17.8,17.8,0,1,1,5.214-12.586A17.8,17.8,0,0,1,143.682,143.692Z" transform="translate(-95.497 -95.507)"/>
            <path id="Trazado_127386" data-name="Trazado 127386" d="M70.059,30.077l-7.012-2a28.159,28.159,0,0,0-2.72-6.566l3.54-6.368a1.187,1.187,0,0,0-.093-1.295,31.154,31.154,0,0,0-3-3.4,31.264,31.264,0,0,0-3.42-3.019,1.187,1.187,0,0,0-1.293-.093l-6.376,3.539A28.129,28.129,0,0,0,43.126,8.16l-2-7.013A1.187,1.187,0,0,0,40.145.3a35.958,35.958,0,0,0-9.09,0,1.187,1.187,0,0,0-.984.851l-2,7.013a28.094,28.094,0,0,0-6.565,2.721L15.142,7.341a1.187,1.187,0,0,0-1.295.091,31.125,31.125,0,0,0-3.4,3,31.278,31.278,0,0,0-3.019,3.42,1.187,1.187,0,0,0-.093,1.293l3.536,6.377a28.019,28.019,0,0,0-2.716,6.558l-7.009,2a1.187,1.187,0,0,0-.852.984,35.836,35.836,0,0,0,0,9.092,1.187,1.187,0,0,0,.852.983l7.012,2a28.13,28.13,0,0,0,2.72,6.566l-3.54,6.366a1.187,1.187,0,0,0,.091,1.295,31.051,31.051,0,0,0,3,3.4,31.264,31.264,0,0,0,3.42,3.019,1.187,1.187,0,0,0,1.293.093l6.376-3.537a28.128,28.128,0,0,0,6.558,2.716l2,7.012a1.187,1.187,0,0,0,.984.851,35.664,35.664,0,0,0,9.09,0,1.187,1.187,0,0,0,.984-.851l2-7.012a28.022,28.022,0,0,0,6.566-2.721l6.366,3.54a1.187,1.187,0,0,0,1.295-.091,31.136,31.136,0,0,0,3.4-3,31.177,31.177,0,0,0,3.02-3.421,1.187,1.187,0,0,0,.091-1.293l-3.536-6.376a28.047,28.047,0,0,0,2.716-6.558l7.012-2a1.187,1.187,0,0,0,.852-.983,35.835,35.835,0,0,0,0-9.092A1.186,1.186,0,0,0,70.059,30.077Zm-1.407,8.991-6.908,1.967a1.186,1.186,0,0,0-.831.857,25.691,25.691,0,0,1-2.967,7.166,1.186,1.186,0,0,0-.023,1.187l3.485,6.282A29.3,29.3,0,0,1,59.078,59.1a29.339,29.339,0,0,1-2.552,2.314L50.253,57.93a1.186,1.186,0,0,0-1.187.021,25.7,25.7,0,0,1-7.175,2.967,1.187,1.187,0,0,0-.858.831l-1.966,6.906a34.1,34.1,0,0,1-6.925,0l-1.966-6.906a1.187,1.187,0,0,0-.858-.831,25.73,25.73,0,0,1-7.165-2.967,1.186,1.186,0,0,0-1.187-.023l-6.29,3.489A29.378,29.378,0,0,1,12.1,59.085,29.248,29.248,0,0,1,9.79,56.532l3.488-6.273a1.186,1.186,0,0,0-.021-1.187A25.773,25.773,0,0,1,10.29,41.9a1.187,1.187,0,0,0-.831-.857l-6.91-1.972a32.555,32.555,0,0,1-.176-3.462,33.138,33.138,0,0,1,.176-3.463l6.908-1.966a1.187,1.187,0,0,0,.831-.858,25.71,25.71,0,0,1,2.967-7.165,1.186,1.186,0,0,0,.023-1.187L9.789,14.683a29.647,29.647,0,0,1,2.333-2.572A29.185,29.185,0,0,1,14.676,9.8l6.273,3.488a1.186,1.186,0,0,0,1.187-.021A25.7,25.7,0,0,1,29.308,10.3a1.187,1.187,0,0,0,.858-.831l1.966-6.908a33.942,33.942,0,0,1,6.925,0l1.966,6.908a1.187,1.187,0,0,0,.858.831,25.691,25.691,0,0,1,7.165,2.967,1.194,1.194,0,0,0,1.187.023L56.525,9.8A29.378,29.378,0,0,1,59.1,12.129a29.079,29.079,0,0,1,2.314,2.554l-3.488,6.273a1.186,1.186,0,0,0,.021,1.187,25.751,25.751,0,0,1,2.973,7.176,1.187,1.187,0,0,0,.831.857l6.908,1.966a33.167,33.167,0,0,1,.172,3.466A32.593,32.593,0,0,1,68.651,39.069Z" transform="translate(0 -0.008)"/>
            <path id="Trazado_127387" data-name="Trazado 127387" d="M251.027,210.734H249.84v-4.747a1.187,1.187,0,0,0-2.373,0v5.933a1.187,1.187,0,0,0,1.187,1.187h2.373a1.187,1.187,0,1,0,0-2.373Z" transform="translate(-213.054 -176.322)"/>
            <path id="Trazado_127388" data-name="Trazado 127388" d="M173.815,152.736a15.135,15.135,0,0,0-5.567-5.565c-.015-.011-.025-.027-.042-.037s-.031-.008-.045-.015a15.353,15.353,0,0,0-15.335,0c-.015.007-.032.007-.046.015s-.026.026-.043.037a15.122,15.122,0,0,0-5.565,5.565c-.011.017-.029.026-.039.044a.3.3,0,0,0-.015.047,15.354,15.354,0,0,0,0,15.332c.007.015.007.032.015.047s.039.046.056.072a15.135,15.135,0,0,0,5.55,5.537c.015.011.025.027.042.037s.043.015.063.026a15.36,15.36,0,0,0,15.3,0c.021-.011.044-.015.064-.027s.026-.026.043-.037a15.118,15.118,0,0,0,5.549-5.537c.018-.026.04-.045.056-.072s.008-.032.015-.047a15.354,15.354,0,0,0,0-15.332c-.007-.015-.007-.032-.015-.047S173.825,152.752,173.815,152.736Zm-5.8,18.413-.561-.973a1.187,1.187,0,1,0-2.055,1.187l.563.974a12.932,12.932,0,0,1-4.281,1.151V172.36a1.187,1.187,0,1,0-2.373,0v1.128a12.938,12.938,0,0,1-4.281-1.151l.563-.974a1.187,1.187,0,0,0-2.055-1.187l-.561.973a12.5,12.5,0,0,1-3.134-3.134l.973-.561a1.187,1.187,0,1,0-1.187-2.055l-.974.561a12.924,12.924,0,0,1-1.151-4.28h1.129a1.187,1.187,0,0,0,0-2.373H147.5a12.937,12.937,0,0,1,1.151-4.281l.974.563a1.187,1.187,0,1,0,1.187-2.055l-.973-.561a13.207,13.207,0,0,1,1.424-1.708,13.061,13.061,0,0,1,1.708-1.424l.561.973a1.187,1.187,0,1,0,2.055-1.187l-.563-.974a12.935,12.935,0,0,1,4.284-1.153v1.128a1.187,1.187,0,1,0,2.373,0V147.5a12.938,12.938,0,0,1,4.281,1.151l-.562.974a1.187,1.187,0,1,0,2.055,1.187l.561-.973a12.5,12.5,0,0,1,3.134,3.134l-.973.561a1.187,1.187,0,1,0,1.187,2.055l.974-.561a12.924,12.924,0,0,1,1.151,4.28H172.36a1.187,1.187,0,1,0,0,2.373h1.128a12.938,12.938,0,0,1-1.151,4.281l-.974-.563a1.187,1.187,0,0,0-1.187,2.055l.973.561a13.207,13.207,0,0,1-1.424,1.708A13.026,13.026,0,0,1,168.015,171.149Z" transform="translate(-124.893 -124.894)"/>
          </g>
        </g>
      </g>
    </g>
  </g>
</svg>
