<svg id="Layer_1" data-name="Layer 1" xmlns="http://www.w3.org/2000/svg" width="526" height="381.18" viewBox="0 0 526 381.18">
  <defs>
    <style>
      .cls-1 {
        fill: #e0e0e0;
      }

      .cls-2 {
        fill: #f0f0f0;
      }

      .cls-3 {
        fill: #e6e6e6;
      }

      .cls-4 {
        fill: #f5f5f5;
      }

      .cls-11, .cls-12, .cls-28, .cls-5, .cls-8, .cls-9 {
        fill: #fafafa;
      }

      .cls-6 {
        fill: #ebebeb;
      }

      .cls-7 {
        fill: #8ec8c8;
      }

      .cls-10, .cls-11, .cls-12, .cls-21, .cls-22, .cls-28, .cls-29, .cls-8, .cls-9 {
        isolation: isolate;
      }

      .cls-8 {
        opacity: 0.8;
      }

      .cls-13, .cls-9 {
        opacity: 0.6;
      }

      .cls-10, .cls-21 {
        opacity: 0.3;
      }

      .cls-11 {
        opacity: 0.1;
      }

      .cls-12 {
        opacity: 0.9;
      }

      .cls-14 {
        opacity: 0.5;
      }

      .cls-15, .cls-22, .cls-28, .cls-29 {
        opacity: 0.4;
      }

      .cls-16 {
        fill: #f5ca56;
      }

      .cls-17 {
        fill: #b89841;
      }

      .cls-18 {
        fill: #7d6eb2;
      }

      .cls-19 {
        fill: #b1a8d1;
      }

      .cls-20 {
        fill: #26aab7;
      }

      .cls-21, .cls-22 {
        fill: #fff;
      }

      .cls-23 {
        fill: #e4897b;
      }

      .cls-24 {
        fill: #263238;
      }

      .cls-25 {
        fill: #de5753;
      }

      .cls-26 {
        fill: #ce6f64;
      }

      .cls-27 {
        fill: #c1507f;
      }
    </style>
  </defs>
  <g>
    <g id="freepik--background-complete--inject-46">
      <rect id="Rectángulo_30427" data-name="Rectángulo 30427" class="cls-1" x="13" y="329.52" width="500" height="0.25"/>
      <rect id="Rectángulo_30428" data-name="Rectángulo 30428" class="cls-1" x="389.32" y="337.07" width="16.86" height="0.25"/>
      <rect id="Rectángulo_30429" data-name="Rectángulo 30429" class="cls-1" x="417" y="336.95" width="44.56" height="0.25"/>
      <rect id="Rectángulo_30430" data-name="Rectángulo 30430" class="cls-1" x="278.26" y="338.62" width="55.47" height="0.25"/>
      <rect id="Rectángulo_30431" data-name="Rectángulo 30431" class="cls-1" x="251.78" y="338.62" width="20.72" height="0.25"/>
      <rect id="Rectángulo_30432" data-name="Rectángulo 30432" class="cls-1" x="155.46" y="336.7" width="9.1" height="0.25"/>
      <rect id="Rectángulo_30433" data-name="Rectángulo 30433" class="cls-1" x="170.11" y="336.7" width="15.04" height="0.25"/>
      <rect id="Rectángulo_30434" data-name="Rectángulo 30434" class="cls-1" x="79.89" y="341.18" width="66.56" height="0.25"/>
      <path id="Trazado_127424" data-name="Trazado 127424" class="cls-1" d="M250,285.22H56.91a5.7,5.7,0,0,1-5.7-5.67V9.93a5.69,5.69,0,0,1,5.7-5.62H250A5.69,5.69,0,0,1,255.71,10h0V279.55A5.69,5.69,0,0,1,250,285.22ZM56.91,4.51a5.44,5.44,0,0,0-5.45,5.42V279.55A5.44,5.44,0,0,0,56.91,285H250a5.46,5.46,0,0,0,5.46-5.42V9.93A5.45,5.45,0,0,0,250,4.51Z"/>
      <path id="Trazado_127425" data-name="Trazado 127425" class="cls-1" d="M466.31,285.22H273.21a5.71,5.71,0,0,1-5.71-5.67V9.93a5.7,5.7,0,0,1,5.71-5.62h193.1A5.69,5.69,0,0,1,472,9.93V279.55A5.69,5.69,0,0,1,466.31,285.22ZM273.21,4.51a5.45,5.45,0,0,0-5.46,5.42V279.55a5.46,5.46,0,0,0,5.46,5.42h193.1a5.46,5.46,0,0,0,5.46-5.42V9.93a5.45,5.45,0,0,0-5.46-5.42Z"/>
      <rect id="Rectángulo_30435" data-name="Rectángulo 30435" class="cls-1" x="283.43" y="208.47" width="47.36" height="121.04"/>
      <path id="Trazado_127426" data-name="Trazado 127426" class="cls-2" d="M321.79,329.52h9V304.1H312.36Z"/>
      <rect id="Rectángulo_30436" data-name="Rectángulo 30436" class="cls-1" x="106.43" y="208.47" width="47.36" height="121.04"/>
      <rect id="Rectángulo_30437" data-name="Rectángulo 30437" class="cls-2" x="145.94" y="208.47" width="184.84" height="105.45"/>
      <rect id="Rectángulo_30438" data-name="Rectángulo 30438" class="cls-1" x="241.38" y="216.13" width="82.43" height="66.02"/>
      <rect id="Rectángulo_30439" data-name="Rectángulo 30439" class="cls-1" x="152.92" y="216.14" width="82.43" height="66.02"/>
      <rect id="Rectángulo_30440" data-name="Rectángulo 30440" class="cls-1" x="241.38" y="299.24" width="82.43" height="4.86"/>
      <rect id="Rectángulo_30441" data-name="Rectángulo 30441" class="cls-1" x="152.92" y="299.24" width="82.43" height="4.86"/>
      <rect id="Rectángulo_30442" data-name="Rectángulo 30442" class="cls-1" x="241.37" y="289.86" width="82.43" height="4.86"/>
      <rect id="Rectángulo_30443" data-name="Rectángulo 30443" class="cls-1" x="152.91" y="289.87" width="82.43" height="4.86"/>
      <path id="Trazado_127427" data-name="Trazado 127427" class="cls-2" d="M202.29,223.25H186a25.92,25.92,0,0,1-18.73-8H221A25.91,25.91,0,0,1,202.29,223.25Z"/>
      <path id="Trazado_127428" data-name="Trazado 127428" class="cls-2" d="M291.58,223.25h-16.3a25.88,25.88,0,0,1-18.73-8h53.76A25.88,25.88,0,0,1,291.58,223.25Z"/>
      <path id="Trazado_127429" data-name="Trazado 127429" class="cls-2" d="M154.94,329.52h-9V304.1h18.43Z"/>
      <rect id="Rectángulo_30444" data-name="Rectángulo 30444" class="cls-1" x="81.35" y="23.17" width="248.42" height="140.95"/>
      <path id="Trazado_127430" data-name="Trazado 127430" class="cls-1" d="M343.51,18.82H73a1.27,1.27,0,0,0-1.27,1.26h0A1.26,1.26,0,0,0,73,21.35H343.51a1.26,1.26,0,0,0,1.27-1.26h0A1.27,1.27,0,0,0,343.51,18.82Z"/>
      <rect id="Rectángulo_30445" data-name="Rectángulo 30445" class="cls-3" x="83.89" y="23.17" width="251.32" height="140.95"/>
      <rect id="Rectángulo_30446" data-name="Rectángulo 30446" class="cls-1" x="81.35" y="164.12" width="248.42" height="10.04"/>
      <rect id="Rectángulo_30447" data-name="Rectángulo 30447" class="cls-3" x="92.95" y="164.12" width="251.32" height="10.04"/>
      <rect id="Rectángulo_30448" data-name="Rectángulo 30448" class="cls-4" x="91.5" y="30.74" width="236.08" height="125.81"/>
      <path id="Trazado_127431" data-name="Trazado 127431" class="cls-5" d="M208.34,156.55,253.05,30.74h21.1L229.44,156.55Z"/>
      <path id="Trazado_127432" data-name="Trazado 127432" class="cls-5" d="M234,156.55,278.69,30.74h8.22l-44.7,125.81Z"/>
      <rect id="Rectángulo_30449" data-name="Rectángulo 30449" class="cls-1" x="326.61" y="30.74" width="0.97" height="125.81"/>
      <rect id="Rectángulo_30450" data-name="Rectángulo 30450" class="cls-6" x="78.48" y="16.56" width="13.11" height="121.4"/>
      <rect id="Rectángulo_30451" data-name="Rectángulo 30451" class="cls-1" x="86.49" y="16.56" width="10.21" height="121.4"/>
      <rect id="Rectángulo_30452" data-name="Rectángulo 30452" class="cls-6" x="91.59" y="16.56" width="13.11" height="121.4"/>
      <rect id="Rectángulo_30453" data-name="Rectángulo 30453" class="cls-1" x="99.6" y="16.56" width="10.21" height="121.4"/>
      <rect id="Rectángulo_30454" data-name="Rectángulo 30454" class="cls-6" x="104.7" y="16.56" width="13.11" height="121.4"/>
      <rect id="Rectángulo_30455" data-name="Rectángulo 30455" class="cls-6" x="315.15" y="16.56" width="7.55" height="121.4"/>
      <rect id="Rectángulo_30456" data-name="Rectángulo 30456" class="cls-1" x="319.77" y="16.56" width="5.89" height="121.4"/>
      <rect id="Rectángulo_30457" data-name="Rectángulo 30457" class="cls-6" x="322.71" y="16.56" width="7.55" height="121.4"/>
      <rect id="Rectángulo_30458" data-name="Rectángulo 30458" class="cls-1" x="327.32" y="16.56" width="5.89" height="121.4"/>
      <rect id="Rectángulo_30459" data-name="Rectángulo 30459" class="cls-6" x="330.26" y="16.56" width="7.55" height="121.4"/>
      <rect id="Rectángulo_30460" data-name="Rectángulo 30460" class="cls-3" x="389.77" y="69.22" width="16.76" height="45.42"/>
      <path id="Trazado_127433" data-name="Trazado 127433" class="cls-2" d="M383.4,122.23l-3.88,10.49h3.88l23.73-10.49Z"/>
      <path id="Trazado_127434" data-name="Trazado 127434" class="cls-1" d="M379.52,122.23v10.49l23.74-10.49Z"/>
      <path id="Trazado_127435" data-name="Trazado 127435" class="cls-2" d="M424,122.23l-3.88,10.49H424l23.73-10.49Z"/>
      <path id="Trazado_127436" data-name="Trazado 127436" class="cls-1" d="M420.11,122.23v10.49l23.74-10.49Z"/>
      <rect id="Rectángulo_30461" data-name="Rectángulo 30461" class="cls-1" x="362.11" y="114.72" width="25.81" height="8"/>
      <rect id="Rectángulo_30462" data-name="Rectángulo 30462" class="cls-2" x="387.91" y="114.72" width="73.65" height="8"/>
      <path id="Trazado_127437" data-name="Trazado 127437" class="cls-1" d="M434.45,114.65H393.66l-5.05-55H429.4Z"/>
      <path id="Trazado_127438" data-name="Trazado 127438" class="cls-2" d="M436.56,114.65H395.77l-5-55h40.79Z"/>
      <path id="Trazado_127439" data-name="Trazado 127439" class="cls-5" d="M401.35,108.56,397.42,65.7h28.52l3.93,42.86Z"/>
      <path id="Trazado_127440" data-name="Trazado 127440" class="cls-1" d="M170.41,190.8s-17.59-30.1,6.81-54.07c0,0,6.37,4.12,6.27,9.66s-6.82,7-5.37,11.56,7.79,9.17,3.62,13,.67,7.22.39,11.92S170.41,190.8,170.41,190.8Z"/>
      <path id="Trazado_127441" data-name="Trazado 127441" class="cls-1" d="M171.74,193.56s7.13-34.09-23.63-49.19c0,0-4.73,5.91-2.88,11.13s8.67,4.46,8.77,9.3-4.48,11.13.68,13.46,1.66,7.07,3.42,11.42S171.74,193.56,171.74,193.56Z"/>
      <path id="Trazado_127442" data-name="Trazado 127442" class="cls-2" d="M144.8,186s.58,22.46,23,22.46,23-22.46,23-22.46Z"/>
      <path id="Trazado_127443" data-name="Trazado 127443" class="cls-6" d="M409.35,329.52h2.29l6.52-31.95,1.15-5.59,7.11-34.76h27.29l14.79,72.3h2.29l-15.07-73.68a1.12,1.12,0,0,0-1.1-.89H425.51a1.1,1.1,0,0,0-1.09.89l-6.25,30.57L417,292Z"/>
      <path id="Trazado_127444" data-name="Trazado 127444" class="cls-6" d="M365.54,329.52h2.29l14.79-72.34h27.29L417,292l1.14,5.57,6.53,31.95H427L419.33,292l-1.16-5.57-6.25-30.57a1.12,1.12,0,0,0-1.1-.89H381.71a1.12,1.12,0,0,0-1.1.89Z"/>
      <path id="Trazado_127445" data-name="Trazado 127445" class="cls-3" d="M432.81,256.06H382.67A17.53,17.53,0,0,1,365.09,239l-1.87-75.71a12.76,12.76,0,0,1,12.62-12.91h31.59a12.77,12.77,0,0,1,12.73,11.28Z"/>
      <path id="Trazado_127446" data-name="Trazado 127446" class="cls-3" d="M405.46,246.52h49.07a6.85,6.85,0,0,1,6.87,6.82v.24a2.49,2.49,0,0,1-2.5,2.48H405.46Z"/>
    </g>
    <g id="freepik--Shadow--inject-46">
      <ellipse id="Elipse_4290" data-name="Elipse 4290" class="cls-4" cx="263" cy="363.13" rx="193.89" ry="11.24"/>
    </g>
    <g id="freepik--Graphics--inject-46">
      <path id="Trazado_127447" data-name="Trazado 127447" class="cls-7" d="M199.55,77.1h0a34,34,0,0,0-.45-5.52,34.94,34.94,0,0,0-34.17-29.11h-.3a34.91,34.91,0,0,0-28.26,14.41c-.53.72-1,1.47-1.48,2.21a.86.86,0,0,0-.1.16,34.3,34.3,0,0,0-5,17.88v.07A34.93,34.93,0,0,0,193,97.31c.52-.72,1-1.46,1.47-2.21a.86.86,0,0,0,.1-.16A34,34,0,0,0,199.55,77.1Zm-68.27-.79a32.66,32.66,0,0,1,4.63-16.09h10.91a54.32,54.32,0,0,0-2.59,16.09Zm17.07-16.09h15.56V76.31H145.73a52.73,52.73,0,0,1,2.62-16.09Zm17.06-1.49V43.91a12.29,12.29,0,0,1,6,2.22c3.71,2.52,6.82,6.95,9,12.6ZM181,60.22a51.1,51.1,0,0,1,2.4,11.48c.15,1.55.22,3.09.24,4.61H165.41V60.22ZM161.71,44.33a11,11,0,0,1,2.2-.38V58.76h-15c2.8-7.49,7.34-12.93,12.8-14.46Zm2.2,33.5v16.1H148.38A50.23,50.23,0,0,1,146,82.42q-.21-2.33-.24-4.62Zm0,17.59v14.82a12.29,12.29,0,0,1-6-2.22c-3.7-2.52-6.81-7-9-12.6Zm3.7,14.43a11,11,0,0,1-2.2.38V95.39h15c-2.8,7.46-7.34,12.91-12.8,14.43ZM165.41,94V77.81h18.18A52.44,52.44,0,0,1,181,93.91Zm19.68-16.15h13a32.78,32.78,0,0,1-4.63,16.1h-11A54.33,54.33,0,0,0,185.09,77.81Zm13-1.49h-13c0-1.56-.1-3.15-.25-4.75a52.34,52.34,0,0,0-2.29-11.34h10.89a33.05,33.05,0,0,1,4.19,11.53,34.66,34.66,0,0,1,.42,4.55ZM184.22,50.17a33.39,33.39,0,0,1,8.32,8.57H182c-2.24-6.15-5.61-11-9.74-13.83l-.32-.21a33.62,33.62,0,0,1,12.24,5.46Zm-26.87-5.45c-4.21,2.75-7.67,7.76-10,14h-10.5l.73-1.06a33.22,33.22,0,0,1,19.73-13Zm-26,33.09h13c0,1.57.1,3.16.25,4.76a52.94,52.94,0,0,0,2.29,11.34h-11a32.86,32.86,0,0,1-4.19-11.53,31.69,31.69,0,0,1-.42-4.57Zm5.54,17.59h10.46c2.24,6.14,5.61,11,9.74,13.83l.33.21a33.61,33.61,0,0,1-20.53-14Zm35.11,14c4.2-2.74,7.66-7.76,10-14h10.48c-.24.35-.48.71-.73,1.06A33.13,33.13,0,0,1,172,109.41Z"/>
      <path id="Trazado_127448" data-name="Trazado 127448" class="cls-8" d="M199.55,77.1h0a34,34,0,0,0-.45-5.52,34.94,34.94,0,0,0-34.17-29.11h-.3a34.91,34.91,0,0,0-28.26,14.41c-.53.72-1,1.47-1.48,2.21a.86.86,0,0,0-.1.16,34.3,34.3,0,0,0-5,17.88v.07A34.93,34.93,0,0,0,193,97.31c.52-.72,1-1.46,1.47-2.21a.86.86,0,0,0,.1-.16A34,34,0,0,0,199.55,77.1Zm-68.27-.79a32.66,32.66,0,0,1,4.63-16.09h10.91a54.32,54.32,0,0,0-2.59,16.09Zm17.07-16.09h15.56V76.31H145.73a52.73,52.73,0,0,1,2.62-16.09Zm17.06-1.49V43.91a12.29,12.29,0,0,1,6,2.22c3.71,2.52,6.82,6.95,9,12.6ZM181,60.22a51.1,51.1,0,0,1,2.4,11.48c.15,1.55.22,3.09.24,4.61H165.41V60.22ZM161.71,44.33a11,11,0,0,1,2.2-.38V58.76h-15c2.8-7.49,7.34-12.93,12.8-14.46Zm2.2,33.5v16.1H148.38A50.23,50.23,0,0,1,146,82.42q-.21-2.33-.24-4.62Zm0,17.59v14.82a12.29,12.29,0,0,1-6-2.22c-3.7-2.52-6.81-7-9-12.6Zm3.7,14.43a11,11,0,0,1-2.2.38V95.39h15c-2.8,7.46-7.34,12.91-12.8,14.43ZM165.41,94V77.81h18.18A52.44,52.44,0,0,1,181,93.91Zm19.68-16.15h13a32.78,32.78,0,0,1-4.63,16.1h-11A54.33,54.33,0,0,0,185.09,77.81Zm13-1.49h-13c0-1.56-.1-3.15-.25-4.75a52.34,52.34,0,0,0-2.29-11.34h10.89a33.05,33.05,0,0,1,4.19,11.53,34.66,34.66,0,0,1,.42,4.55ZM184.22,50.17a33.39,33.39,0,0,1,8.32,8.57H182c-2.24-6.15-5.61-11-9.74-13.83l-.32-.21a33.62,33.62,0,0,1,12.24,5.46Zm-26.87-5.45c-4.21,2.75-7.67,7.76-10,14h-10.5l.73-1.06a33.22,33.22,0,0,1,19.73-13Zm-26,33.09h13c0,1.57.1,3.16.25,4.76a52.94,52.94,0,0,0,2.29,11.34h-11a32.86,32.86,0,0,1-4.19-11.53,31.69,31.69,0,0,1-.42-4.57Zm5.54,17.59h10.46c2.24,6.14,5.61,11,9.74,13.83l.33.21a33.61,33.61,0,0,1-20.53-14Zm35.11,14c4.2-2.74,7.66-7.76,10-14h10.48c-.24.35-.48.71-.73,1.06A33.13,33.13,0,0,1,172,109.41Z"/>
      <rect id="Rectángulo_30463" data-name="Rectángulo 30463" class="cls-7" x="112.89" y="93.61" width="314.4" height="75.67"/>
      <rect id="Rectángulo_30464" data-name="Rectángulo 30464" class="cls-9" x="112.89" y="93.61" width="314.4" height="75.67"/>
      <rect id="Rectángulo_30465" data-name="Rectángulo 30465" class="cls-7" x="105.8" y="100.65" width="314.4" height="75.67"/>
      <rect id="Rectángulo_30466" data-name="Rectángulo 30466" class="cls-10" x="105.8" y="100.65" width="314.4" height="75.67"/>
      <rect id="Rectángulo_30467" data-name="Rectángulo 30467" class="cls-7" x="98.71" y="107.69" width="314.4" height="75.67"/>
      <rect id="Rectángulo_30468" data-name="Rectángulo 30468" class="cls-11" x="98.71" y="107.69" width="314.4" height="75.67"/>
      <rect id="Rectángulo_30469" data-name="Rectángulo 30469" class="cls-7" x="113.71" y="122.59" width="284.4" height="45.87"/>
      <rect id="Rectángulo_30470" data-name="Rectángulo 30470" class="cls-12" x="113.71" y="122.59" width="284.4" height="45.87"/>
      <rect id="Rectángulo_30471" data-name="Rectángulo 30471" class="cls-7" x="350.27" y="122.59" width="1.67" height="45.87"/>
      <rect id="Rectángulo_30472" data-name="Rectángulo 30472" class="cls-9" x="350.27" y="122.59" width="1.67" height="45.87"/>
      <rect id="Rectángulo_30473" data-name="Rectángulo 30473" class="cls-7" x="120.8" y="128.92" width="1.67" height="33.22"/>
      <rect id="Rectángulo_30474" data-name="Rectángulo 30474" class="cls-9" x="120.8" y="128.92" width="1.67" height="33.22"/>
      <path id="Trazado_127449" data-name="Trazado 127449" class="cls-7" d="M373.43,151.32a7.33,7.33,0,1,1,5.22-12.52h0a7.3,7.3,0,0,1,0,10.37A7.38,7.38,0,0,1,373.43,151.32Zm0-12.67a5.36,5.36,0,1,0,3.8,1.56h0a5.33,5.33,0,0,0-3.8-1.6Z"/>
      <path id="Trazado_127450" data-name="Trazado 127450" class="cls-7" d="M383,154.44a1,1,0,0,1-.71-.3l-5.05-5a1,1,0,0,1-.11-1.4,1,1,0,0,1,1.41-.1.52.52,0,0,1,.11.1l5.05,5a1,1,0,0,1,0,1.41A1,1,0,0,1,383,154.44Z"/>
      <g id="Grupo_55638" data-name="Grupo 55638" class="cls-13">
        <path id="Trazado_127451" data-name="Trazado 127451" class="cls-5" d="M373.43,151.32a7.33,7.33,0,1,1,5.22-12.52h0a7.3,7.3,0,0,1,0,10.37A7.38,7.38,0,0,1,373.43,151.32Zm0-12.67a5.36,5.36,0,1,0,3.8,1.56h0a5.33,5.33,0,0,0-3.8-1.6Z"/>
        <path id="Trazado_127452" data-name="Trazado 127452" class="cls-5" d="M383,154.44a1,1,0,0,1-.71-.3l-5.05-5a1,1,0,0,1-.11-1.4,1,1,0,0,1,1.41-.1.52.52,0,0,1,.11.1l5.05,5a1,1,0,0,1,0,1.41A1,1,0,0,1,383,154.44Z"/>
      </g>
      <rect id="Rectángulo_30475" data-name="Rectángulo 30475" class="cls-7" x="274.15" y="47.87" width="31.44" height="0.77"/>
      <rect id="Rectángulo_30476" data-name="Rectángulo 30476" class="cls-7" x="274.15" y="51.15" width="31.44" height="0.77"/>
      <rect id="Rectángulo_30477" data-name="Rectángulo 30477" class="cls-7" x="274.15" y="54.45" width="31.44" height="0.77"/>
      <rect id="Rectángulo_30478" data-name="Rectángulo 30478" class="cls-7" x="274.15" y="57.74" width="31.44" height="0.77"/>
      <rect id="Rectángulo_30479" data-name="Rectángulo 30479" class="cls-7" x="274.15" y="61.03" width="31.44" height="0.77"/>
      <rect id="Rectángulo_30480" data-name="Rectángulo 30480" class="cls-7" x="274.15" y="64.33" width="20.5" height="0.77"/>
      <g id="Grupo_55639" data-name="Grupo 55639" class="cls-14">
        <rect id="Rectángulo_30481" data-name="Rectángulo 30481" class="cls-5" x="274.15" y="47.87" width="31.44" height="0.77"/>
        <rect id="Rectángulo_30482" data-name="Rectángulo 30482" class="cls-5" x="274.15" y="51.15" width="31.44" height="0.77"/>
        <rect id="Rectángulo_30483" data-name="Rectángulo 30483" class="cls-5" x="274.15" y="54.45" width="31.44" height="0.77"/>
        <rect id="Rectángulo_30484" data-name="Rectángulo 30484" class="cls-5" x="274.15" y="57.74" width="31.44" height="0.77"/>
        <rect id="Rectángulo_30485" data-name="Rectángulo 30485" class="cls-5" x="274.15" y="61.03" width="31.44" height="0.77"/>
        <rect id="Rectángulo_30486" data-name="Rectángulo 30486" class="cls-5" x="274.15" y="64.33" width="20.5" height="0.77"/>
      </g>
      <rect id="Rectángulo_30487" data-name="Rectángulo 30487" class="cls-7" x="82.85" y="189.9" width="33.5" height="0.5"/>
      <rect id="Rectángulo_30488" data-name="Rectángulo 30488" class="cls-7" x="82.85" y="192.01" width="33.5" height="0.5"/>
      <rect id="Rectángulo_30489" data-name="Rectángulo 30489" class="cls-7" x="82.85" y="194.11" width="33.5" height="0.5"/>
      <rect id="Rectángulo_30490" data-name="Rectángulo 30490" class="cls-7" x="82.85" y="196.22" width="33.5" height="0.5"/>
      <rect id="Rectángulo_30491" data-name="Rectángulo 30491" class="cls-7" x="82.85" y="198.32" width="33.5" height="0.5"/>
      <rect id="Rectángulo_30492" data-name="Rectángulo 30492" class="cls-7" x="82.85" y="200.44" width="21.06" height="0.5"/>
      <g id="Grupo_55640" data-name="Grupo 55640" class="cls-15">
        <rect id="Rectángulo_30493" data-name="Rectángulo 30493" class="cls-5" x="82.85" y="189.9" width="33.5" height="0.5"/>
        <rect id="Rectángulo_30494" data-name="Rectángulo 30494" class="cls-5" x="82.85" y="192.01" width="33.5" height="0.5"/>
        <rect id="Rectángulo_30495" data-name="Rectángulo 30495" class="cls-5" x="82.85" y="194.11" width="33.5" height="0.5"/>
        <rect id="Rectángulo_30496" data-name="Rectángulo 30496" class="cls-5" x="82.85" y="196.22" width="33.5" height="0.5"/>
        <rect id="Rectángulo_30497" data-name="Rectángulo 30497" class="cls-5" x="82.85" y="198.32" width="33.5" height="0.5"/>
        <rect id="Rectángulo_30498" data-name="Rectángulo 30498" class="cls-5" x="82.85" y="200.44" width="21.06" height="0.5"/>
      </g>
      <path id="Trazado_127453" data-name="Trazado 127453" class="cls-16" d="M226.45,52.74h0A6.3,6.3,0,0,0,220.13,59h0V79.73A6.3,6.3,0,0,0,226.45,86h0a6.3,6.3,0,0,0,6.32-6.28h0V59a6.3,6.3,0,0,0-6.32-6.28Z"/>
      <path id="Trazado_127455" data-name="Trazado 127455" class="cls-17" d="M242.29,40.4h0A6.29,6.29,0,0,0,236,46.67V79.73A6.3,6.3,0,0,0,242.32,86h0a6.3,6.3,0,0,0,6.32-6.28h0V46.67a6.3,6.3,0,0,0-6.32-6.27Z"/>
      <path id="Trazado_127457" data-name="Trazado 127457" class="cls-7" d="M258.12,65.09h0a6.3,6.3,0,0,0-6.32,6.28h0v8.36A6.3,6.3,0,0,0,258.12,86h0a6.3,6.3,0,0,0,6.33-6.27h0V71.37a6.3,6.3,0,0,0-6.32-6.28Z"/>
      <path id="Trazado_127458" data-name="Trazado 127458" class="cls-9" d="M258.12,65.09h0a6.3,6.3,0,0,0-6.32,6.28h0v8.36A6.3,6.3,0,0,0,258.12,86h0a6.3,6.3,0,0,0,6.33-6.27h0V71.37a6.3,6.3,0,0,0-6.32-6.28Z"/>
      <path id="Trazado_127459" data-name="Trazado 127459" class="cls-18" d="M391.61,207.07h25.55l-43.62-44.93h0l18.07,44.93"/>
      <path id="Trazado_127461" data-name="Trazado 127461" class="cls-7" d="M367.05,183.35l6.49-21.21,3.68,21.21Z"/>
      <path id="Trazado_127462" data-name="Trazado 127462" class="cls-19" d="M373.54,162.14V225l4.52-4.48,13.55-13.46Z"/>
      <path id="Trazado_127464" data-name="Trazado 127464" class="cls-20" d="M418.72,27.27h-56A10.72,10.72,0,0,0,352,37.9V66.63a10.73,10.73,0,0,0,10.71,10.64H403.8l-.3,10,10.37-10h4.83a10.72,10.72,0,0,0,10.72-10.64V37.9a10.72,10.72,0,0,0-10.7-10.63ZM361.46,39.5a3,3,0,0,1,3-3h12.89a3,3,0,1,1,0,6h-12.9a3,3,0,0,1-3-3Zm54.08,27.82H393.26a3,3,0,1,1-1-5.88,3.62,3.62,0,0,1,1,0h22.28a3,3,0,1,1,1,5.88,3,3,0,0,1-1,0Zm0-12.43H367.45a3,3,0,1,1-1-5.87,3,3,0,0,1,1,0h48.09a3,3,0,1,1,1,5.87,3,3,0,0,1-1,0Zm0-12.43H387.07a3,3,0,1,1,0-6h28.47a3,3,0,1,1,0,6Z"/>
    </g>
    <g>
      <path id="Trazado_127465" data-name="Trazado 127465" class="cls-7" d="M331.17,118.32a53.29,53.29,0,0,0-10.75-17.66H240.91a53.29,53.29,0,0,0-10.75,17.66l11,54.4a54,54,0,0,0,75.92,3,53.13,53.13,0,0,0,14.08-57.44Z"/>
      <path id="Trazado_127466" data-name="Trazado 127466" class="cls-11" d="M331.17,118.32a53.29,53.29,0,0,0-10.75-17.66H240.91a53.29,53.29,0,0,0-10.75,17.66l11,54.4a54,54,0,0,0,75.92,3,53.13,53.13,0,0,0,14.08-57.44Z"/>
      <path id="Trazado_127467" data-name="Trazado 127467" class="cls-7" d="M334.34,139a53,53,0,0,1-14.16,33.71h-79a53.17,53.17,0,0,1-11-54.4h101A52.86,52.86,0,0,1,334.34,139Z"/>
      <path id="Trazado_127468" data-name="Trazado 127468" class="cls-12" d="M334.34,139a53,53,0,0,1-14.16,33.71h-79a53.17,53.17,0,0,1-11-54.4h101A52.86,52.86,0,0,1,334.34,139Z"/>
      <path id="Trazado_127469" data-name="Trazado 127469" class="cls-21" d="M334.34,139a53.29,53.29,0,1,1-3.17-20.69A53.48,53.48,0,0,1,334.34,139Z"/>
      <path id="Trazado_127470" data-name="Trazado 127470" class="cls-22" d="M311,92.48l-77.26,70c-.39-.7-.77-1.42-1.14-2.14a52.62,52.62,0,0,1-4.87-14.9h0L294.41,85A53.36,53.36,0,0,1,311,92.48Z"/>
      <path id="Trazado_127471" data-name="Trazado 127471" class="cls-22" d="M331.62,119.6,259,185.4a53.67,53.67,0,0,1-19.48-14.54L318.87,99A53.41,53.41,0,0,1,331.62,119.6Z"/>
      <path id="Trazado_127474" data-name="Trazado 127474" class="cls-23" d="M138.09,199.88l7.66,1.77-6.35,4.71s-4.55-2.05-4.76-5.26Z"/>
      <path id="Trazado_127475" data-name="Trazado 127475" class="cls-23" d="M149.85,206.72l-5.52,3.65-4.93-4,6.35-4.7Z"/>
      <path id="Trazado_127476" data-name="Trazado 127476" class="cls-20" d="M236.5,169c-8.14,6-16.49,11.62-24.88,17.16s-16.89,10.92-25.43,16.22S169,212.84,160.38,217.87c-4.32,2.56-8.68,5-13,7.57a25.3,25.3,0,0,1-6.94,3.05,22.58,22.58,0,0,1-4,.67,17.33,17.33,0,0,1-4.49-.23,8.15,8.15,0,0,1-6.45-9.57v0a6.6,6.6,0,0,1,.28-1,16.15,16.15,0,0,1,2-4,20.85,20.85,0,0,1,2.56-3.07,25.37,25.37,0,0,1,6.13-4.45c4.37-2.48,8.71-5,13.11-7.42,8.76-4.92,17.6-9.71,26.46-14.44s17.83-9.3,26.85-13.77,18.11-8.82,27.39-12.84a6.22,6.22,0,0,1,8.19,3.15,6.15,6.15,0,0,1-2,7.47Z"/>
      <path id="Trazado_127478" data-name="Trazado 127478" class="cls-23" d="M149.19,152.83c-.5.8-1.07,1.78-1.61,2.69s-1.07,1.87-1.57,2.83q-1.5,2.85-3,5.78c-1,2-1.81,4-2.63,6-.4,1-.82,2-1.19,3l-.56,1.52c-.11.29-.13.41-.2.62s-.1.41-.16.6a30.65,30.65,0,0,0-.59,6c-.05,2.14,0,4.32.12,6.51s.24,4.4.44,6.61.4,4.45.61,6.63l-3.86.79c-.68-2.22-1.21-4.42-1.74-6.66s-.93-4.48-1.32-6.76-.65-4.58-.82-7a33.86,33.86,0,0,1,.19-7.46c0-.33.12-.66.2-1s.18-.76.26-1l.49-1.69c.32-1.12.69-2.24,1.07-3.34.77-2.21,1.61-4.39,2.55-6.54s1.94-4.24,3-6.3c.55-1,1.13-2.06,1.72-3.08s1.18-2,1.92-3.07Z"/>
      <path id="Trazado_127479" data-name="Trazado 127479" class="cls-7" d="M144.92,357.93a9.55,9.55,0,0,1-2-.28.17.17,0,0,1-.14-.14.2.2,0,0,1,.08-.19c.27-.18,2.63-1.69,3.54-1.28a.61.61,0,0,1,.36.52,1,1,0,0,1-.3,1,2.27,2.27,0,0,1-1.54.38Zm-1.53-.54c1.36.27,2.38.22,2.77-.14a.66.66,0,0,0,.19-.64.27.27,0,0,0-.16-.24C145.72,356.16,144.35,356.82,143.39,357.39Z"/>
      <path id="Trazado_127480" data-name="Trazado 127480" class="cls-7" d="M142.91,357.66h-.09a.17.17,0,0,1-.09-.16c0-.09,0-2.31.85-3.06a1,1,0,0,1,.78-.25.65.65,0,0,1,.62.52c.18.86-1.24,2.53-2,3A.09.09,0,0,1,142.91,357.66Zm1.33-3.14a.62.62,0,0,0-.41.16,4.16,4.16,0,0,0-.72,2.44c.74-.59,1.62-1.84,1.51-2.37,0-.09-.07-.19-.3-.22Z"/>
      <path id="Trazado_127481" data-name="Trazado 127481" class="cls-7" d="M180.34,357.93a12.6,12.6,0,0,1-2.45-.28.17.17,0,0,1-.15-.15.19.19,0,0,1,.1-.19c.35-.18,3.45-1.75,4.4-1.23a.58.58,0,0,1,.32.49,1,1,0,0,1-.34.88,2.91,2.91,0,0,1-1.88.48Zm-1.84-.54c1.73.29,3,.21,3.48-.21a.67.67,0,0,0,.21-.58.23.23,0,0,0-.12-.2C181.55,356.12,179.77,356.79,178.5,357.39Z"/>
      <path id="Trazado_127482" data-name="Trazado 127482" class="cls-7" d="M177.92,357.66h-.1a.15.15,0,0,1-.08-.16c0-.09.19-2.17,1.16-3a1.45,1.45,0,0,1,1-.32c.51.05.65.31.69.52.14.87-1.69,2.54-2.62,3Zm1.86-3.14a1,1,0,0,0-.64.24,4.3,4.3,0,0,0-1,2.38c.94-.56,2.19-1.87,2.1-2.4,0,0,0-.18-.36-.21Z"/>
      <path id="Trazado_127483" data-name="Trazado 127483" class="cls-23" d="M161,123c.61,4.64,2,14.05-1.38,16.89,0,0,1,4.72,9.52,5.27,9.42.61,4.8-4.35,4.8-4.35-5.06-1.55-4.68-5.33-3.55-8.83Z"/>
      <path id="Trazado_127484" data-name="Trazado 127484" class="cls-24" d="M178.5,113.57a.26.26,0,0,1-.17,0,.35.35,0,0,1-.16-.48h0a3.66,3.66,0,0,1,2.73-2,.37.37,0,0,1,.35.38.36.36,0,0,1-.28.35h0a3,3,0,0,0-2.15,1.57.4.4,0,0,1-.33.23Z"/>
      <path id="Trazado_127485" data-name="Trazado 127485" class="cls-25" d="M181.19,117.65a16.66,16.66,0,0,0,2.6,3.75,2.72,2.72,0,0,1-2.19.63Z"/>
      <path id="Trazado_127486" data-name="Trazado 127486" class="cls-24" d="M180.53,116.63c.06.63.44,1.1.84,1.06s.7-.57.64-1.2-.44-1.09-.85-1S180.47,116,180.53,116.63Z"/>
      <path id="Trazado_127487" data-name="Trazado 127487" class="cls-24" d="M181,115.49l1.46-.57S181.79,116.16,181,115.49Z"/>
      <path id="Trazado_127488" data-name="Trazado 127488" class="cls-23" d="M169.36,357.47h7.79l.52-17.9h-7.79Z"/>
      <path id="Trazado_127489" data-name="Trazado 127489" class="cls-23" d="M134,357.47h7.79l2.5-17.9H136.5Z"/>
      <path id="Trazado_127490" data-name="Trazado 127490" class="cls-24" d="M142.26,356.58h-8.75a.61.61,0,0,0-.62.52l-1,6.88a1.24,1.24,0,0,0,1.1,1.37h.14c3-.05,4.52-.23,8.37-.23,2.36,0,5.82.24,9.09.24s3.44-3.21,2.08-3.5c-6.1-1.3-7.06-3.1-9.12-4.82A2,2,0,0,0,142.26,356.58Z"/>
      <path id="Trazado_127491" data-name="Trazado 127491" class="cls-24" d="M177.41,356.58h-8.74a.61.61,0,0,0-.62.52l-1,6.88a1.25,1.25,0,0,0,1.12,1.37h.13c3-.05,4.52-.23,8.36-.23,2.37,0,7.26.24,10.53.24s3.44-3.21,2.08-3.5c-6.1-1.3-8.5-3.1-10.56-4.82A2,2,0,0,0,177.41,356.58Z"/>
      <path id="Trazado_127492" data-name="Trazado 127492" class="cls-26" d="M177.66,339.57l-.26,9.23h-7.79l.27-9.23Z"/>
      <path id="Trazado_127493" data-name="Trazado 127493" class="cls-26" d="M136.49,339.57h7.79L143,348.8H135.2Z"/>
      <path id="Trazado_127494" data-name="Trazado 127494" class="cls-27" d="M152.51,154a39.72,39.72,0,0,1-5.11,6.38l-.89-.59-9.86-6.5s5.38-11.92,9.43-12.53c3.87-.62,6.69,3.36,8,7.61C154.58,149.93,153.75,152,152.51,154Z"/>
      <path id="Trazado_127496" data-name="Trazado 127496" class="cls-7" d="M152.51,154a39.72,39.72,0,0,1-5.11,6.38l-.89-.59c.44-3.57,1.84-7.12,3.44-8.24C150.93,151.67,151.8,152.7,152.51,154Z"/>
      <path id="Trazado_127497" data-name="Trazado 127497" class="cls-28" d="M152.51,154a39.72,39.72,0,0,1-5.11,6.38l-.89-.59c.44-3.57,1.84-7.12,3.44-8.24C150.93,151.67,151.8,152.7,152.51,154Z"/>
      <path id="Trazado_127498" data-name="Trazado 127498" class="cls-27" d="M186.24,160h0c-.47,3-1.08,6.49-1.9,10.65-1,5.32-2.4,11.71-4.17,19.35l-31.55-2c1.36-12.72,1.89-20.59-2.54-47.16a92.66,92.66,0,0,1,13.52-.88,100.89,100.89,0,0,1,14.32.92c6.12,1,13,2.82,13,2.82S188.68,144.37,186.24,160Z"/>
      <path id="Trazado_127500" data-name="Trazado 127500" class="cls-7" d="M186.24,160h0c-.47,3-1.08,6.49-1.9,10.65A75.9,75.9,0,0,1,180,159.27h5.86Z"/>
      <path id="Trazado_127501" data-name="Trazado 127501" class="cls-28" d="M186.24,160h0c-.47,3-1.08,6.49-1.9,10.65A75.9,75.9,0,0,1,180,159.27h5.86Z"/>
      <path id="Trazado_127502" data-name="Trazado 127502" class="cls-23" d="M159.31,116.47c1.19,7.58,1.54,10.82,5.79,14.37,6.39,5.34,15.5,2.22,16.61-5.56,1-7-1.12-18.23-8.93-20.56a10.55,10.55,0,0,0-13.16,6.93A10.37,10.37,0,0,0,159.31,116.47Z"/>
      <path id="Trazado_127503" data-name="Trazado 127503" class="cls-7" d="M171.83,189.43s-.5,13.8-1.7,31.2c-1,14.6-2.51,31.73-4.62,45.38l-.06.37C161.66,290.54,144.87,347,144.87,347H134.25s8.75-54.53,10.67-78.47c4.87-60.46-7.33-67.31,3.7-80.64Z"/>
      <path id="Trazado_127504" data-name="Trazado 127504" class="cls-10" d="M171.83,189.43s-.5,13.8-1.7,31.2c-1,14.6-2.51,31.73-4.62,45.38l-.06.37C161.66,290.54,144.87,347,144.87,347H134.25s8.75-54.53,10.67-78.47c4.87-60.46-7.33-67.31,3.7-80.64Z"/>
      <path id="Trazado_127505" data-name="Trazado 127505" class="cls-7" d="M170.13,220.63c-1,14.6-2.51,31.73-4.62,45.38-3.59-17.73-9.49-43.63-1.57-60.59C165.83,210.23,168,215.68,170.13,220.63Z"/>
      <path id="Trazado_127506" data-name="Trazado 127506" class="cls-29" d="M170.13,220.63c-1,14.6-2.51,31.73-4.62,45.38-3.59-17.73-9.49-43.63-1.57-60.59C165.83,210.23,168,215.68,170.13,220.63Z"/>
      <path id="Trazado_127507" data-name="Trazado 127507" class="cls-7" d="M180.17,190s9,53,8.46,76.56c-.53,24.54-9.58,80.46-9.58,80.46H168.53s1.66-54.5.73-78.59c-1-26.26-12.2-79.93-12.2-79.93Z"/>
      <path id="Trazado_127508" data-name="Trazado 127508" class="cls-10" d="M180.17,190s9,53,8.46,76.56c-.53,24.54-9.58,80.46-9.58,80.46H168.53s1.66-54.5.73-78.59c-1-26.26-12.2-79.93-12.2-79.93Z"/>
      <path id="Trazado_127509" data-name="Trazado 127509" class="cls-24" d="M166.73,347.5h14.11l1.1-4.7-15.71.11Z"/>
      <path id="Trazado_127510" data-name="Trazado 127510" class="cls-24" d="M132.71,347.5h14.11l1.1-4.7-15.11.11Z"/>
      <path id="Trazado_127511" data-name="Trazado 127511" class="cls-24" d="M148.26,186.09l-1.6,2.72c-.13.21.12.44.48.46l33.09,2.14c.28,0,.53-.1.56-.28l.47-2.79c0-.19-.21-.37-.52-.39l-32-2.06A.59.59,0,0,0,148.26,186.09Z"/>
      <path id="Trazado_127512" data-name="Trazado 127512" class="cls-7" d="M152.32,189.9l-.85-.06c-.17,0-.3-.11-.28-.21l.64-3.62c0-.1.17-.18.34-.17l.86,0c.17,0,.29.11.28.22l-.64,3.61C152.65,189.83,152.49,189.91,152.32,189.9Z"/>
      <path id="Trazado_127513" data-name="Trazado 127513" class="cls-10" d="M152.32,189.9l-.85-.06c-.17,0-.3-.11-.28-.21l.64-3.62c0-.1.17-.18.34-.17l.86,0c.17,0,.29.11.28.22l-.64,3.61C152.65,189.83,152.49,189.91,152.32,189.9Z"/>
      <path id="Trazado_127514" data-name="Trazado 127514" class="cls-7" d="M173,191.23l-.85,0c-.17,0-.3-.11-.28-.22l.64-3.61c0-.11.17-.18.35-.17l.85,0c.17,0,.3.11.28.22l-.64,3.61C173.39,191.17,173.23,191.24,173,191.23Z"/>
      <path id="Trazado_127515" data-name="Trazado 127515" class="cls-10" d="M173,191.23l-.85,0c-.17,0-.3-.11-.28-.22l.64-3.61c0-.11.17-.18.35-.17l.85,0c.17,0,.3.11.28.22l-.64,3.61C173.39,191.17,173.23,191.24,173,191.23Z"/>
      <path id="Trazado_127516" data-name="Trazado 127516" class="cls-23" d="M188.71,151.63c1.2,4,2.34,8,3.45,12l3.35,12,.42,1.49.11.36.05.19v.1a3,3,0,0,0,.13.39,6.18,6.18,0,0,0,1,1.67,16.74,16.74,0,0,0,4.1,3.14,53.69,53.69,0,0,0,11,4.41l-.58,3.87a41.94,41.94,0,0,1-13.08-2.81,21,21,0,0,1-6.29-3.85,12.46,12.46,0,0,1-2.6-3.4,9,9,0,0,1-.47-1.06l-.11-.27-.07-.19-.13-.37-.53-1.5c-1.4-4-2.7-7.95-3.93-12s-2.44-8-3.54-12.06Z"/>
      <path id="Trazado_127517" data-name="Trazado 127517" class="cls-27" d="M186.92,143.64c4,1.3,8.2,14.3,8.2,14.3l-14.44,6.17s-6-14.58-3.34-17.88S182.33,142.15,186.92,143.64Z"/>
      <path id="Trazado_127519" data-name="Trazado 127519" class="cls-24" d="M179.2,104.29c-2.55-3.13-22.25-5.37-23.3,3.16-7,4.86-.36,17.44.64,20.64-4.83,1.33-20.39,6.61-9,16.88s28.47,8.52,31.81-2.1c2.34-7.43-5.09-19.87-4.93-24.22S183.57,109.6,179.2,104.29Z"/>
      <path id="Trazado_127520" data-name="Trazado 127520" class="cls-24" d="M157.92,129.66a.26.26,0,0,1-.19-.09c-1.81-2.19-8.11-13.67-5.9-19.14a4.77,4.77,0,0,1,4.23-3,.24.24,0,0,1,.27.2h0a.25.25,0,0,1-.21.28,4.33,4.33,0,0,0-3.83,2.64c-2.13,5.29,4.05,16.5,5.82,18.65a.24.24,0,0,1,0,.34.27.27,0,0,1-.17.06Z"/>
      <path id="Trazado_127521" data-name="Trazado 127521" class="cls-23" d="M172.86,118.18a6.6,6.6,0,0,0,2,3.8c1.42,1.35,2.76.42,2.89-1.29.12-1.54-.48-4.1-2.16-4.81S172.65,116.46,172.86,118.18Z"/>
      <path id="Trazado_127522" data-name="Trazado 127522" class="cls-23" d="M207.42,186.32l5.68-1.91-.89,6.78s-2.24,1-5.14-1.51l-2.77-1.76,2.18-1.18A5.28,5.28,0,0,1,207.42,186.32Z"/>
      <path id="Trazado_127523" data-name="Trazado 127523" class="cls-23" d="M217.07,184.39l-1.74,5.93-3.12.86.89-6.77Z"/>
      <path class="cls-20" d="M334.32,105.78a62.23,62.23,0,0,0-84.68-22.59,61.37,61.37,0,0,0-22.74,84.12,62.24,62.24,0,0,0,84.69,22.58l.07,0A61.36,61.36,0,0,0,334.32,105.78Zm-26.85,76.88-.06,0a53.84,53.84,0,0,1-73.26-19.54,53.08,53.08,0,0,1,19.66-72.77,53.85,53.85,0,0,1,73.27,19.54A53.08,53.08,0,0,1,307.47,182.66Z"/>
    </g>
  </g>
</svg>
