<svg xmlns="http://www.w3.org/2000/svg" width="436.999" height="311.984" viewBox="0 0 436.999 311.984">
  <g id="Grupo_55804" data-name="Grupo 55804" transform="translate(-139 -8611.918)">
    <rect id="Rectángulo_30405" data-name="Rectángulo 30405" width="352" height="247.786" rx="21" transform="translate(139 8611.918)" fill="#f3f9ff"/>
    <g id="Visual_data-pana" data-name="Visual data-pana" transform="translate(126.161 8599.763)">
      <g id="freepik--background-complete--inject-93">
        <path id="Trazado_127144" data-name="Trazado 127144" d="M44.93,285.35a84.653,84.653,0,0,1-.26-9.31,84.768,84.768,0,0,1,.26-9.32,81.888,81.888,0,0,1,.26,9.32,81.78,81.78,0,0,1-.26,9.31Z" fill="#e0e0e0"/>
        <path id="Trazado_127145" data-name="Trazado 127145" d="M54.56,276a90.505,90.505,0,0,1-9.63.26,90.382,90.382,0,0,1-9.62-.26,87.3,87.3,0,0,1,9.62-.26,87.42,87.42,0,0,1,9.63.26Z" fill="#e0e0e0"/>
        <path id="Trazado_127148" data-name="Trazado 127148" d="M359.91,61.45a81.9,81.9,0,0,1-.26-9.32,81.784,81.784,0,0,1,.26-9.31,84.642,84.642,0,0,1,.26,9.31,84.778,84.778,0,0,1-.26,9.32Z" fill="#e0e0e0"/>
        <path id="Trazado_127149" data-name="Trazado 127149" d="M369.54,52.13a87.428,87.428,0,0,1-9.63.26,87.43,87.43,0,0,1-9.63-.26,90.5,90.5,0,0,1,9.63-.26,90.5,90.5,0,0,1,9.63.26Z" fill="#e0e0e0"/>
        <circle id="Elipse_4277" data-name="Elipse 4277" cx="5.69" cy="5.69" r="5.69" transform="translate(49.96 192.16)" fill="#e0e0e0"/>
        <path id="Trazado_127152" data-name="Trazado 127152" d="M166.61,49.26a5.69,5.69,0,1,1-5.69-5.69,5.69,5.69,0,0,1,5.69,5.69Z" fill="#e0e0e0"/>
        <path id="Trazado_127154" data-name="Trazado 127154" d="M195.07,55a2.85,2.85,0,1,1-2.85-2.85A2.85,2.85,0,0,1,195.07,55Z" fill="#e0e0e0"/>
        <path id="Trazado_127155" data-name="Trazado 127155" d="M320.43,208.94a2.85,2.85,0,1,1-2.85-2.85,2.85,2.85,0,0,1,2.85,2.85Z" fill="#e0e0e0"/>
        <path id="Trazado_127156" data-name="Trazado 127156" d="M47.13,46.5s-6.34,3.27,2.54,16.55,14.7,19.68,14.7,19.68,1.67,3.13-1,4-8.89.59-9.72,4.11,2.07,6.66,7.58,9S78.56,107.5,79.64,108s2.21,1.89.46,2.76S64.85,114.67,66.68,121s18.21,10.18,20,10.64,2.28,1.13,2.25,2.08-4.67,1.55-8.47,2.57-8,2.88-6.68,6.44,11.57,10.16,34.42,9.7l10.57-.9,4.68-9.58c8.77-21.1,6.35-33,3.53-35.59s-6.09.7-8.43,3.87-4.59,7.27-5.49,7-1.34-1-1.11-2.86,2.61-18.48-2.61-22.49-13,7.45-14.43,8.77-2.33-.29-2.4-1.45-.83-14.28-.95-20.2S89.71,69.17,86,68.64,80.38,74,78.62,76.19s-4.07-.48-4.07-.48-3.84-7.76-13-20.87S47,46.58,47,46.58" fill="#ebebeb"/>
        <path id="Trazado_127157" data-name="Trazado 127157" d="M119.6,153.93c-6.66-9.65-18.2-27-28.2-41.87s-19-28.28-25.65-38L57.91,62.62c-.92-1.34-1.63-2.39-2.13-3.11-.23-.36-.42-.63-.55-.82a1.734,1.734,0,0,1-.17-.29l.2.27.58.8L58,62.55c1.89,2.68,4.59,6.58,7.92,11.41C72.6,83.61,81.69,97,91.68,111.88s21.51,32.23,28.12,41.92" fill="#e0e0e0"/>
        <path id="Trazado_127158" data-name="Trazado 127158" d="M62.26,91.5a3.41,3.41,0,0,1,.76.12c.48.09,1.18.25,2,.46,1.71.4,4.07,1,6.65,1.76l6.62,1.91,2,.57a2.61,2.61,0,0,1,.73.24,3.57,3.57,0,0,1-.76-.12c-.48-.09-1.18-.25-2-.46-1.71-.43-4.06-1.08-6.65-1.82L65,92.3l-2-.56A3.64,3.64,0,0,1,62.26,91.5Z" fill="#e0e0e0"/>
        <path id="Trazado_127159" data-name="Trazado 127159" d="M81.7,95.8c-.08,0,1-4.93,2.4-11s2.64-10.92,2.72-10.9-1,4.94-2.4,11S81.79,95.82,81.7,95.8Z" fill="#e0e0e0"/>
        <path id="Trazado_127160" data-name="Trazado 127160" d="M96,119.3a3,3,0,0,1,.35-.7l1-1.86c.88-1.57,2.09-3.74,3.34-6.18s2.3-4.69,3-6.32l.89-1.94a3.53,3.53,0,0,1,.36-.69,3.22,3.22,0,0,1-.24.74c-.18.48-.45,1.15-.8,2-.69,1.66-1.72,3.93-3,6.38s-2.49,4.61-3.42,6.15c-.47.77-.86,1.38-1.14,1.8A4,4,0,0,1,96,119.3Z" fill="#e0e0e0"/>
        <path id="Trazado_127161" data-name="Trazado 127161" d="M77.58,119.28a2.85,2.85,0,0,1,.72-.07l2-.08c1.67,0,4-.09,6.5-.12s4.83,0,6.49,0h2a3.129,3.129,0,0,1,.72,0,3,3,0,0,1-.72.07l-2,.08c-1.67.05-4,.1-6.5.13s-4.83,0-6.49,0h-2a3.42,3.42,0,0,1-.72-.01Z" fill="#e0e0e0"/>
        <path id="Trazado_127162" data-name="Trazado 127162" d="M87.58,141.63a5,5,0,0,1,.92-.08l2.52-.11c2.13-.08,5.07-.16,8.32-.23s6.19-.11,8.32-.13h2.53a6.119,6.119,0,0,1,.92,0,3.65,3.65,0,0,1-.92.09l-2.52.1c-2.13.08-5.07.16-8.32.23s-6.19.12-8.33.13H88.5a5.2,5.2,0,0,1-.92,0Z" fill="#e0e0e0"/>
        <path id="Trazado_127163" data-name="Trazado 127163" d="M110.55,141a5.741,5.741,0,0,1,.42-.9l1.24-2.4c1.05-2,2.48-4.83,4-8s2.78-6,3.69-8.1l1.09-2.48a6.171,6.171,0,0,1,.43-.89,5.829,5.829,0,0,1-.31.94c-.23.6-.56,1.46-1,2.52-.86,2.11-2.11,5-3.62,8.16s-3,5.94-4.06,7.94c-.56,1-1,1.8-1.34,2.35A5.629,5.629,0,0,1,110.55,141Z" fill="#e0e0e0"/>
        <path id="Trazado_127164" data-name="Trazado 127164" d="M390.5,237c-11.27-9.83-12.34-25.93-10.32-40.09.33-2.37.34-4.9,1.7-6.86s4.14-3.1,6.15-1.87c1.67,1,2.22,3.15,3,5a14,14,0,0,0,5,5.91c1.43.95,3.25,1.63,4.83,1,2.17-.9,2.71-3.7,2.95-6.07q.68-6.6,1.34-13.2a22,22,0,0,1,1.47-6.93,7.35,7.35,0,0,1,5.13-4.45c2.31-.39,4.95,1.21,5.17,3.57a20.828,20.828,0,0,1-.25,2.94,2.49,2.49,0,0,0,1.2,2.49,2.85,2.85,0,0,0,2.71-.8,31.479,31.479,0,0,0,6.55-7.9,43.74,43.74,0,0,1,6.2-8.2c2.49-2.36,5.77-4.09,9.17-3.92s6.77,2.65,7.27,6-1.81,6.59-4.21,9.05a52.841,52.841,0,0,1-12.09,9.27,4.42,4.42,0,0,0-2.05,1.78c-.68,1.52.64,3.24,2.14,3.92,1.69.78,3.62.8,5.44,1.22s3.72,1.44,4.23,3.25c.71,2.52-1.58,4.83-3.75,6.27a45.27,45.27,0,0,1-14.18,6.27,15.33,15.33,0,0,0-5.22,1.88c-1.53,1.06-2.61,3.09-1.94,4.85s2.78,2.52,4.64,2.38a33.47,33.47,0,0,0,5.39-1.42c3.37-.88,7.53-.2,9.31,2.82a7.53,7.53,0,0,1,.08,6.69,17.37,17.37,0,0,1-4.2,5.45,45.76,45.76,0,0,1-20.84,11.52c-7.8,1.8-14.85,1.75-22-1.79" fill="#f5f5f5"/>
        <path id="Trazado_127165" data-name="Trazado 127165" d="M395.13,228.47A211.389,211.389,0,0,1,406,206.61l3.14-5.58c1-1.83,2.06-3.64,3.17-5.36a107.587,107.587,0,0,1,7-9.48c2.36-2.9,4.7-5.58,6.91-8.06s4.33-4.75,6.34-6.74a85.089,85.089,0,0,1,10.17-8.68c1.28-.92,2.3-1.61,3-2.06l.79-.52.28-.16a1.311,1.311,0,0,1-.25.2l-.77.55c-.68.48-1.68,1.19-2.94,2.13a90.075,90.075,0,0,0-10.06,8.76c-2,2-4.08,4.28-6.28,6.76s-4.53,5.17-6.87,8.08a106.421,106.421,0,0,0-6.91,9.46c-1.1,1.7-2.12,3.5-3.15,5.34l-3.14,5.58a219.275,219.275,0,0,0-10.85,21.8" fill="#e0e0e0"/>
        <path id="Trazado_127166" data-name="Trazado 127166" d="M412.41,195.67a4.922,4.922,0,0,1-.12-1c-.06-.67-.1-1.63-.14-2.83-.08-2.38-.08-5.68-.07-9.31s0-6.93-.14-9.31c-.06-1.19-.11-2.15-.16-2.81a4.85,4.85,0,0,1,0-1,4.5,4.5,0,0,1,.19,1c.1.66.2,1.62.29,2.81.2,2.38.3,5.68.28,9.33s0,6.83-.06,9.31v2.82a5.34,5.34,0,0,1-.07.99Z" fill="#e0e0e0"/>
        <path id="Trazado_127167" data-name="Trazado 127167" d="M443.35,193.27a6.79,6.79,0,0,1-1.22,0H438.8c-2.81,0-6.69.14-11,.48s-8.14.82-10.92,1.25c-1.39.2-2.51.4-3.29.53a6.629,6.629,0,0,1-1.21.16,5.857,5.857,0,0,1,1.18-.33c.77-.18,1.89-.43,3.28-.67,2.77-.51,6.64-1,10.93-1.38a107.27,107.27,0,0,1,11-.35c1.41,0,2.55.1,3.34.17a6,6,0,0,1,1.24.14Z" fill="#e0e0e0"/>
        <path id="Trazado_127168" data-name="Trazado 127168" d="M395.56,228a1.791,1.791,0,0,1-.17-.39c-.1-.31-.24-.69-.4-1.15-.34-1-.8-2.47-1.34-4.29-1.09-3.63-2.44-8.69-3.85-14.3s-2.71-10.69-3.72-14.34c-.49-1.77-.9-3.23-1.21-4.32-.13-.47-.23-.86-.32-1.18a2,2,0,0,1-.09-.42,1.34,1.34,0,0,1,.17.4l.4,1.15c.35,1,.81,2.47,1.35,4.28,1.09,3.64,2.43,8.7,3.84,14.31s2.71,10.68,3.72,14.34c.5,1.77.91,3.23,1.21,4.32l.33,1.17a1.23,1.23,0,0,1,.08.42Z" fill="#e0e0e0"/>
        <path id="Trazado_127169" data-name="Trazado 127169" d="M437.27,219.31a2.52,2.52,0,0,1-.42.12l-1.21.26-4.47.94c-3.77.79-9,1.94-14.71,3.21s-10.95,2.39-14.74,3.1c-1.9.35-3.43.63-4.5.79l-1.23.19a1.171,1.171,0,0,1-.43,0l.42-.12,1.21-.26,4.47-.94c3.77-.79,9-1.94,14.71-3.22s10.95-2.38,14.74-3.09c1.9-.36,3.43-.63,4.5-.79l1.23-.19a1.17,1.17,0,0,1,.43,0Z" fill="#e0e0e0"/>
        <path id="Trazado_127170" data-name="Trazado 127170" d="M303.63,68c1.81-10.42,6.78-25.65,12.73-34.39S331.48,18,342,16.5s22,3.5,26.7,12.93c2.53,5.07,3,10.91,4.84,16.26s5.88,10.72,11.53,11.15c5,.39,9.83-3.22,14.75-2.26,6.42,1.25,8.89,9.15,8.93,15.68s-.9,13.79,3.12,18.94c3.28,4.22,8.91,5.67,13.44,8.5,9.81,6.12,14,18.75,13,30.27s-6.3,22.18-11.93,32.27a252.864,252.864,0,0,0-19-47.88c-4.55-8.72-12.86-16.13-20.21-22.66-11.29-10-36.06-14.81-51.05-16.65s-17.63-2.24-32.46-5" fill="#e0e0e0"/>
      </g>
      <g id="freepik--back-screens--inject-93">
        <path id="Trazado_127171" data-name="Trazado 127171" d="M203.71,80.3c-37.07,2.69-77.55,7.6-107.23,19l9.38,63.43s57.52-20.59,104.33-19.16Z" fill="#41c1c5"/>
        <g id="Grupo_55528" data-name="Grupo 55528" opacity="0.8">
          <path id="Trazado_127172" data-name="Trazado 127172" d="M203.71,80.3c-37.07,2.69-77.55,7.6-107.23,19l9.38,63.43s57.52-20.59,104.33-19.16Z" fill="#fff"/>
        </g>
        <path id="Trazado_127173" data-name="Trazado 127173" d="M201,135.2l-.36.06-1.05.15-4,.5c-1.76.21-3.91.47-6.4.83s-5.33.72-8.45,1.24a493.091,493.091,0,0,0-48.43,10c-6.5,1.68-12.77,3.41-18.5,5.21l-.29.08v-.29c-2-14.54-3.94-27.08-5.43-36-.76-4.42-1.37-8-1.79-10.41-.21-1.19-.37-2.12-.49-2.78a3.659,3.659,0,0,0-.11-.72.8.8,0,0,1,0-.25,1,1,0,0,1,.07.24,3.946,3.946,0,0,0,.16.71c.13.66.32,1.58.57,2.77.48,2.41,1.15,5.94,1.93,10.38,1.58,8.88,3.58,21.42,5.62,36l-.33-.2c5.75-1.82,12-3.56,18.53-5.24a472.254,472.254,0,0,1,48.5-9.82c3.13-.49,6-.82,8.47-1.15s4.65-.57,6.41-.75l4.06-.41,1.06-.09a1.391,1.391,0,0,1,.25-.06Z" fill="#41c1c5"/>
        <path id="Trazado_127174" data-name="Trazado 127174" d="M202.3,119.78s-.14-.44-.43-1.27a13.31,13.31,0,0,0-1.91-3.27,16.61,16.61,0,0,0-4.5-3.95c-.48-.32-1.05-.56-1.6-.85a14.321,14.321,0,0,0-1.81-.65,9.9,9.9,0,0,0-4.13-.4,8.6,8.6,0,0,0-4.2,1.65,14.23,14.23,0,0,0-3.36,3.65c-2,2.89-3.21,6.41-4.71,10.06a12.49,12.49,0,0,1-3.49,5,6.55,6.55,0,0,1-2.89,1.39,5.87,5.87,0,0,1-3.26-.38c-4.22-1.67-6.1-6.54-10.37-8a8.37,8.37,0,0,0-6.33.52,8.1,8.1,0,0,0-2.51,1.94,13,13,0,0,0-1.67,2.68c-.95,1.88-1.67,4-3.28,5.45a4.88,4.88,0,0,1-2.88,1.29,5.75,5.75,0,0,1-3-.64,10.87,10.87,0,0,1-4.14-4.07,36,36,0,0,1-2.19-5,23.531,23.531,0,0,0-2.17-4.51,9,9,0,0,0-3.31-3.08,8.6,8.6,0,0,0-7.6-.22,12.85,12.85,0,0,0-4.83,3.48,9.37,9.37,0,0,0-1.81,3.31c-.26.83-.29,1.3-.33,1.29a5.66,5.66,0,0,1,.23-1.32,9,9,0,0,1,1.75-3.41,13,13,0,0,1,4.87-3.62,8.88,8.88,0,0,1,7.89.17,9.34,9.34,0,0,1,3.48,3.18,23.719,23.719,0,0,1,2.23,4.58,36.141,36.141,0,0,0,2.19,4.91,10.33,10.33,0,0,0,4,3.88,5.27,5.27,0,0,0,2.75.59,4.45,4.45,0,0,0,2.59-1.18c1.48-1.35,2.2-3.39,3.15-5.3a13.45,13.45,0,0,1,1.74-2.8,8.58,8.58,0,0,1,2.67-2.06,8.87,8.87,0,0,1,6.73-.55c2.27.75,3.9,2.5,5.41,4.08a15.13,15.13,0,0,0,5,4,5.37,5.37,0,0,0,3,.35,6.14,6.14,0,0,0,2.67-1.28,12.18,12.18,0,0,0,3.36-4.8c1.49-3.61,2.8-7.18,4.8-10.11a14.17,14.17,0,0,1,3.48-3.74,9.08,9.08,0,0,1,4.39-1.69,10.3,10.3,0,0,1,4.26.45,14.441,14.441,0,0,1,1.85.69,17.24,17.24,0,0,1,6.13,5,12.83,12.83,0,0,1,1.85,3.37,9.288,9.288,0,0,1,.26,1Q202.314,119.685,202.3,119.78Z" fill="#41c1c5"/>
        <path id="Trazado_127175" data-name="Trazado 127175" d="M104.05,111.45c0,.14-.46.35-1.08.47s-1.15.1-1.17,0,.45-.35,1.07-.47S104,111.31,104.05,111.45Z" fill="#41c1c5"/>
        <path id="Trazado_127176" data-name="Trazado 127176" d="M105.69,123c.06.14-.3.43-.81.67s-1,.32-1,.19.31-.42.82-.66S105.63,122.9,105.69,123Z" fill="#41c1c5"/>
        <path id="Trazado_127177" data-name="Trazado 127177" d="M107.74,135.69c0,.14-.33.39-.84.57s-1,.21-1,.08.33-.39.84-.57S107.69,135.56,107.74,135.69Z" fill="#41c1c5"/>
        <path id="Trazado_127178" data-name="Trazado 127178" d="M110.2,148.13c0,.14-.39.4-1,.57s-1.06.22-1.1.08.38-.39.94-.57S110.15,148,110.2,148.13Z" fill="#41c1c5"/>
        <path id="Trazado_127179" data-name="Trazado 127179" d="M180.11,88.36a5.19,5.19,0,0,1,1.21-.28c.8-.13,2-.31,3.45-.52,3-.42,7.21-1,12.26-1.59h.24v.24c.39,4.26.85,9.16,1.33,14.36v.47h-.25l-16.57,2h-.23v-.22c-.46-4.35-.85-8-1.13-10.59-.12-1.22-.21-2.19-.29-2.93a8.4,8.4,0,0,1-.06-1,9,9,0,0,1,.18,1.06c.11.74.24,1.73.41,3,.33,2.58.78,6.16,1.33,10.46l-.25-.2,16.57-2.11-.23.28v-.21c-.46-5.2-.89-10.11-1.27-14.37l.26.21Z" fill="#41c1c5"/>
        <path id="Trazado_127180" data-name="Trazado 127180" d="M195.51,90.88c0,.16-2.85.15-6.33.53s-6.27,1-6.31.81A30.76,30.76,0,0,1,195.51,90.88Z" fill="#41c1c5"/>
        <path id="Trazado_127181" data-name="Trazado 127181" d="M195.69,94.6c0,.15-2.66.25-5.91.57s-5.89.72-5.92.57a23.181,23.181,0,0,1,5.87-1.09,22.82,22.82,0,0,1,5.96-.05Z" fill="#41c1c5"/>
        <path id="Trazado_127182" data-name="Trazado 127182" d="M191.72,97.84a10.94,10.94,0,0,1-3.38.69,11.67,11.67,0,0,1-3.43.18,11.28,11.28,0,0,1,3.37-.69,11.739,11.739,0,0,1,3.44-.18Z" fill="#41c1c5"/>
        <path id="Trazado_127183" data-name="Trazado 127183" d="M384.43,99c-36.3-11.06-66.93-20.51-108-20.25l-6.28,64.63c42.71,3.78,57,6.58,96.42,20.85Z" fill="#41c1c5"/>
        <g id="Grupo_55529" data-name="Grupo 55529" opacity="0.8">
          <path id="Trazado_127184" data-name="Trazado 127184" d="M384.43,99c-36.3-11.06-66.93-20.51-108-20.25l-6.28,64.63c42.71,3.78,57,6.58,96.42,20.85Z" fill="#fff"/>
        </g>
        <path id="Trazado_127185" data-name="Trazado 127185" d="M302.25,110.07l1.6-13.71a16.05,16.05,0,0,0-11.19,3.1A16.82,16.82,0,0,0,285.78,113a19.664,19.664,0,0,0,.05,2h0l16-1.8Z" fill="#41c1c5"/>
        <path id="Trazado_127186" data-name="Trazado 127186" d="M318.8,107.83A15.51,15.51,0,0,0,307.39,97l-.48-.1-.31-.07-.94-.14h-.08L304,110.34l-.38,3.22,15.12,5.52h0a17.322,17.322,0,0,0,.78-3.51A18.87,18.87,0,0,0,318.8,107.83Z" fill="#41c1c5"/>
        <g id="Grupo_55530" data-name="Grupo 55530" opacity="0.3">
          <path id="Trazado_127187" data-name="Trazado 127187" d="M318.8,107.83A15.51,15.51,0,0,0,307.39,97l-.48-.1-.31-.07-.94-.14h-.08L304,110.34l-.38,3.22,15.12,5.52h0a17.322,17.322,0,0,0,.78-3.51A18.87,18.87,0,0,0,318.8,107.83Z"/>
        </g>
        <path id="Trazado_127188" data-name="Trazado 127188" d="M302.48,115.1l-16,1.8c.67,7.76,6.33,14.19,13.93,15.13s14.73-4,17.23-11.4l-15.12-5.52" fill="#41c1c5"/>
        <path id="Trazado_127189" data-name="Trazado 127189" d="M370.4,111.28a8.622,8.622,0,0,1-1.41-.57c-.89-.41-2.19-1-3.81-1.65a116.378,116.378,0,0,0-12.88-4.52,117.56,117.56,0,0,0-13.34-3c-1.72-.28-3.13-.48-4.1-.61a7.76,7.76,0,0,1-1.5-.26,9.779,9.779,0,0,1,1.53.06c1,.07,2.39.22,4.13.45a96.28,96.28,0,0,1,26.31,7.5c1.6.72,2.88,1.34,3.75,1.8a9,9,0,0,1,1.32.8Z" fill="#41c1c5"/>
        <path id="Trazado_127190" data-name="Trazado 127190" d="M369.3,118a9.489,9.489,0,0,1-1.41-.58c-.89-.4-2.19-1-3.81-1.64a113.36,113.36,0,0,0-26.22-7.48c-1.72-.28-3.13-.48-4.1-.61a10.4,10.4,0,0,1-1.5-.26,7.389,7.389,0,0,1,1.53.06c1,.06,2.39.21,4.13.44a96.62,96.62,0,0,1,13.42,2.82,98.253,98.253,0,0,1,12.89,4.69c1.6.72,2.88,1.34,3.75,1.8a7.43,7.43,0,0,1,1.32.76Z" fill="#41c1c5"/>
        <path id="Trazado_127191" data-name="Trazado 127191" d="M368.2,124.77a8.62,8.62,0,0,1-1.41-.57c-.89-.4-2.19-1-3.81-1.65A118.49,118.49,0,0,0,350.1,118a119.787,119.787,0,0,0-13.34-3c-1.72-.27-3.12-.48-4.1-.61a7.76,7.76,0,0,1-1.5-.26,9.78,9.78,0,0,1,1.53.06c1,.07,2.39.22,4.13.45a96.619,96.619,0,0,1,13.42,2.82,95.418,95.418,0,0,1,12.89,4.69c1.6.72,2.88,1.34,3.75,1.8A7.909,7.909,0,0,1,368.2,124.77Z" fill="#41c1c5"/>
        <path id="Trazado_127192" data-name="Trazado 127192" d="M366,131.52a9.821,9.821,0,0,1-1.37-.57c-.86-.41-2.12-1-3.68-1.64a107.879,107.879,0,0,0-25.44-7.49c-1.68-.28-3-.48-4-.61a7.461,7.461,0,0,1-1.46-.26,8,8,0,0,1,1.49.06c.95.06,2.32.21,4,.45a91.3,91.3,0,0,1,13.05,2.82A93.272,93.272,0,0,1,361.1,129c1.55.72,2.79,1.34,3.62,1.8a7.8,7.8,0,0,1,1.28.72Z" fill="#41c1c5"/>
        <path id="Trazado_127193" data-name="Trazado 127193" d="M361.22,136.9a7.641,7.641,0,0,1-1.23-.49l-3.31-1.47a80.57,80.57,0,0,0-22.82-6.51l-3.59-.5a8.08,8.08,0,0,1-1.31-.23,5.66,5.66,0,0,1,1.33,0c.86,0,2.09.16,3.61.33a69.5,69.5,0,0,1,22.93,6.54c1.39.66,2.49,1.22,3.25,1.63a6.3,6.3,0,0,1,1.14.7Z" fill="#41c1c5"/>
        <path id="Trazado_127194" data-name="Trazado 127194" d="M345.09,137.66a17,17,0,0,1-2.58-.53c-1.58-.37-3.77-.85-6.21-1.26s-4.67-.73-6.28-1a15.43,15.43,0,0,1-2.6-.45,12.19,12.19,0,0,1,2.64.08c1.63.14,3.87.38,6.33.81a56.451,56.451,0,0,1,6.21,1.42,11.6,11.6,0,0,1,2.49.93Z" fill="#41c1c5"/>
        <path id="Trazado_127195" data-name="Trazado 127195" d="M282.68,86.37l.84-.05,2.5-.08c2.2,0,5.4,0,9.48.21a151.6,151.6,0,0,1,33.3,6l.18.06v.19c-2.5,14.33-5.48,31.36-8.66,49.58-.13.74-.26,1.48-.39,2.2v.28l-.28-.07a216.242,216.242,0,0,0-22.23-4.59c-7.17-1.1-14-1.88-20.38-2.28h-.25v-.24c1.75-15.29,3.22-28.09,4.25-37.1.52-4.46.94-8,1.22-10.4.14-1.18.26-2.09.33-2.73a4.848,4.848,0,0,1,.09-.7c.02-.18,0-.23,0-.22a1.18,1.18,0,0,1,0,.25,2.964,2.964,0,0,1-.07.72c-.06.65-.16,1.58-.28,2.78-.25,2.44-.63,6-1.1,10.46-1,9-2.36,21.75-4,37l-.22-.25c6.39.38,13.25,1.15,20.43,2.24a217.17,217.17,0,0,1,22.29,4.58l-.32.21c.13-.72.26-1.46.39-2.2,3.21-18.22,6.21-35.24,8.73-49.56l.15.25a154.652,154.652,0,0,0-33.18-6.13c-4.06-.27-7.28-.34-9.44-.33H282.7Z" fill="#41c1c5"/>
      </g>
      <g id="freepik--Character--inject-93" transform="translate(-16 1.976)">
        <path id="Trazado_127196" data-name="Trazado 127196" d="M242.709,213.775l26.385,5.4,4.032-5.4-.648-6.954-4.01-3.391H254.649L241.74,214.181" transform="translate(-30.744 -47.027)" fill="#41c1c5"/>
        <g id="Grupo_55531" data-name="Grupo 55531" transform="translate(210.996 156.403)" opacity="0.3">
          <path id="Trazado_127197" data-name="Trazado 127197" d="M242.709,213.775l26.385,5.4,4.032-5.4-.648-6.954-4.01-3.391H254.649L241.74,214.181" transform="translate(-241.74 -203.43)"/>
        </g>
        <path id="Trazado_127198" data-name="Trazado 127198" d="M294.6,141.71l33.309-4.135,5.217-1.378s12.007-2.44,13.125-2.812c1.3-.427,1.833.048,1.968.5.216.689-.514,1.5-1.617,1.9-.373.138-6.462,2.068-6.462,2.068a15.848,15.848,0,0,1,2.057.551c1.453.455,2.847,2.192,3.548,4.218s.708,2.646-.134,2.936a1.252,1.252,0,0,1-.969-.124,2.176,2.176,0,0,1-1-1.158c-1.17-3.232-3.354-3.487-3.354-3.487l-.686.179s2.236,1.454,2.236,3.218a1.846,1.846,0,0,1-.179.751,2.513,2.513,0,0,1-.522,2.6,3.017,3.017,0,0,1-2.69.9c-.477-.083-1-.345-1.066-.786a1.292,1.292,0,0,1,.156-.689,3.015,3.015,0,0,0,.119-.365l-2,.255s-4.524.345-6.469.689l-31.184,8.684a8.67,8.67,0,0,1-6.209-.585,7.614,7.614,0,0,1-3.905-4.5h0a6.993,6.993,0,0,1,1.025-6.131A8.171,8.171,0,0,1,294.6,141.71Z" transform="translate(-42.421 -25.204)" fill="#ffbe9d"/>
        <path id="Trazado_127199" data-name="Trazado 127199" d="M342.74,139.92a1.632,1.632,0,0,0,1.438,1.227c.686.131,1.4.048,2.094.131,2.072.262,3.689,2.006,5.769,2.171.291,0,.663,0,.745-.289s-.142-.462-.343-.627l-5.217-4.252" transform="translate(-56.466 -26.777)" fill="#ffbe9d"/>
        <path id="Trazado_127200" data-name="Trazado 127200" d="M347.242,138.28a3.592,3.592,0,0,1,.611.407c.373.283.917.689,1.573,1.213l2.3,1.826.656.531c.2.186.544.345.6.786a.544.544,0,0,1-.358.51,1.312,1.312,0,0,1-.559.083,4.465,4.465,0,0,1-1-.186,27.5,27.5,0,0,1-3.332-1.558,5.391,5.391,0,0,0-1.491-.455c-.484-.069-.961-.055-1.394-.083a2.549,2.549,0,0,1-1.9-.758c-.306-.393-.246-.689-.231-.689a1.969,1.969,0,0,0,.35.579,2.448,2.448,0,0,0,1.789.593q.716-.013,1.431.041a5.843,5.843,0,0,1,1.6.448,31.213,31.213,0,0,0,3.294,1.523,4.71,4.71,0,0,0,.9.165c.291,0,.537-.076.507-.214a1.381,1.381,0,0,0-.462-.538l-.656-.538-2.236-1.888-1.491-1.3C347.4,138.48,347.219,138.3,347.242,138.28Z" transform="translate(-56.459 -26.777)" fill="#eb996e"/>
        <path id="Trazado_127201" data-name="Trazado 127201" d="M357.35,144.265a3.033,3.033,0,0,1,1.312,0,2.19,2.19,0,0,1,1.14.689,4.962,4.962,0,0,1,.82,1.44,8.153,8.153,0,0,0,.745,1.53,2.818,2.818,0,0,0,1.088.972,1.2,1.2,0,0,0,1.021,0c.216-.1.3-.207.291-.214s-.119.055-.328.131a1.191,1.191,0,0,1-.9-.083,2.779,2.779,0,0,1-.969-.937,8.481,8.481,0,0,1-.745-1.509,4.969,4.969,0,0,0-.879-1.489,2.361,2.361,0,0,0-1.275-.751,2.3,2.3,0,0,0-1.021,0A1.783,1.783,0,0,0,357.35,144.265Z" transform="translate(-60.187 -28.551)" fill="#eb996e"/>
        <path id="Trazado_127202" data-name="Trazado 127202" d="M364.591,136.7a7.006,7.006,0,0,0-1.215.379l-2.892.986-2.892.944a6.536,6.536,0,0,0-1.193.42,6.377,6.377,0,0,0,1.252-.262c.745-.2,1.8-.5,2.937-.882s2.154-.751,2.877-1.048A5.793,5.793,0,0,0,364.591,136.7Z" transform="translate(-59.945 -26.286)" fill="#eb996e"/>
        <path id="Trazado_127203" data-name="Trazado 127203" d="M355.6,146.879s.089.11.261.283a1.057,1.057,0,0,1,.38.848.6.6,0,0,1-.4.455,3.806,3.806,0,0,1-.8.207,1.462,1.462,0,0,0-.9.441,1.072,1.072,0,0,0-.149,1.013,1.327,1.327,0,0,0,.745.744,1.8,1.8,0,0,0,1,.138,5.968,5.968,0,0,0,1.543-.531,3.29,3.29,0,0,0,.894-.613.777.777,0,0,0,.209-.324,3.143,3.143,0,0,1-.283.255,3.777,3.777,0,0,1-.9.531,6.206,6.206,0,0,1-1.491.469,1.4,1.4,0,0,1-1.491-.737.858.858,0,0,1,.1-.806,1.233,1.233,0,0,1,.745-.365,3.863,3.863,0,0,0,.85-.248.786.786,0,0,0,.477-.606,1.147,1.147,0,0,0-.484-.937A1.53,1.53,0,0,0,355.6,146.879Z" transform="translate(-59.314 -29.45)" fill="#eb996e"/>
        <path id="Trazado_127204" data-name="Trazado 127204" d="M354.969,151.813a.594.594,0,0,0-.328.145,1,1,0,0,0-.373.855,1.4,1.4,0,0,0,.887,1.1,2.606,2.606,0,0,0,1.8,0,2.907,2.907,0,0,0,1.439-1.013,2.468,2.468,0,0,0,.484-1.282,2.2,2.2,0,0,0-.112-.91.719.719,0,0,0-.149-.3,4.432,4.432,0,0,1,.082,1.192,2.606,2.606,0,0,1-1.826,2.068,2.406,2.406,0,0,1-1.625,0,1.233,1.233,0,0,1-.8-.91.931.931,0,0,1,.261-.772C354.858,151.875,354.984,151.833,354.969,151.813Z" transform="translate(-59.401 -30.544)" fill="#eb996e"/>
        <path id="Trazado_127205" data-name="Trazado 127205" d="M347.154,147.145a1.065,1.065,0,0,0-.216-.538,2.414,2.414,0,0,0-1.215-.917v.207a6.121,6.121,0,0,0,.745-.386,5.3,5.3,0,0,0,2.087-1.992,13.907,13.907,0,0,1-2.236,1.792c-.253.145-.5.276-.745.386l-.253.124.268.083a2.549,2.549,0,0,1,1.17.786C347.034,146.959,347.116,147.152,347.154,147.145Z" transform="translate(-57.123 -28.406)" fill="#eb996e"/>
        <path id="Trazado_127206" data-name="Trazado 127206" d="M361.538,144c-.045-.041-.4.317-.44.889s.253.965.313.93-.1-.42-.052-.917S361.605,144.04,361.538,144Z" transform="translate(-61.14 -28.554)" fill="#eb996e"/>
        <path id="Trazado_127207" data-name="Trazado 127207" d="M144.99,154.613s-4.86-7.285-5.724-7.9-8.564-3.225-9.22-3.032-9.987,1.661-8.944,2.688,7.58-.09,7.58-.09l.879.407s-5.627.827-6.812,1.461-.745,1.813.32,1.716,5.91-.972,6.2-.786-5.314,1.22-5.918,1.544c-.812.448-.894,1.778.134,1.716.6-.041,5.888-1.3,5.888-1.3a47.594,47.594,0,0,0-4.576,1.833c-.634.558-.134,1.378.745,1.213.626-.124,3.585-1.434,4.42-1.6,0,0,.745.193,1.491,1.654.328.689,1.834,4.928,4.584,4.872a9,9,0,0,1,4.83,1.806Z" transform="translate(0 -28.451)" fill="#ffbe9d"/>
        <path id="Trazado_127208" data-name="Trazado 127208" d="M121.19,147.442a4.533,4.533,0,0,0,1.7.434,10.469,10.469,0,0,0,1.923.076c.745-.076,1.491-.172,2.311-.283l1.744-.234h-.1a25.828,25.828,0,0,0,4.025,1.165,26.778,26.778,0,0,0-3.883-1.53h-.1l-1.729.214-2.288.31a13.057,13.057,0,0,1-1.863,0C121.861,147.525,121.2,147.38,121.19,147.442Z" transform="translate(-0.043 -29.509)" fill="#eb996e"/>
        <path id="Trazado_127209" data-name="Trazado 127209" d="M144.583,156.2a2,2,0,0,1-2.169,0c-.663-.372-1.178-.937-1.811-1.378-1.893-1.241-4.628-.944-6.462-2.267-.253-.179-.507-.482-.365-.751s.492-.276.8-.269l7.684.165" transform="translate(-3.238 -30.895)" fill="#ffbe9d"/>
        <path id="Trazado_127210" data-name="Trazado 127210" d="M142.191,151.65a3.782,3.782,0,0,0-.827-.1c-.537,0-1.312-.076-2.236-.11l-3.361-.124h-.976a1.589,1.589,0,0,0-1.125.221.573.573,0,0,0-.127.689,1.231,1.231,0,0,0,.388.462,5.211,5.211,0,0,0,.961.544,31.49,31.49,0,0,0,3.988,1.054,6.089,6.089,0,0,1,1.573.689c.447.283.82.627,1.2.91a2.858,2.858,0,0,0,2.161.689,1.049,1.049,0,0,0,.745-.386,2.535,2.535,0,0,1-.745.234,2.776,2.776,0,0,1-1.938-.772c-.35-.283-.745-.641-1.193-.965a6.18,6.18,0,0,0-1.662-.744,35.92,35.92,0,0,1-3.913-1.061,5.013,5.013,0,0,1-.879-.489c-.246-.186-.365-.441-.231-.538a1.723,1.723,0,0,1,.812-.11h6.574A3.378,3.378,0,0,0,142.191,151.65Z" transform="translate(-3.171 -30.823)" fill="#eb996e"/>
        <path id="Trazado_127211" data-name="Trazado 127211" d="M201.346,393.78l-1.766,18.07-5.866,13.928a1.733,1.733,0,0,0,.064,1.479,1.974,1.974,0,0,0,1.211.968h0a2.146,2.146,0,0,0,1.819-.289c3.3-2.323,15.4-10.937,15.451-12.267.06-1.537,3.25-18.98,3.25-18.98Z" transform="translate(-18.478 -106.192)" fill="#727997"/>
        <g id="Grupo_55532" data-name="Grupo 55532" transform="translate(176.51 308.257)" opacity="0.6">
          <path id="Trazado_127212" data-name="Trazado 127212" d="M195.47,437.554l17.418-13.784-.089.765a2.755,2.755,0,0,1-.939,1.73c-1.4,1.213-5.359,4.493-14.512,11.027a2.138,2.138,0,0,1-1.878.283Z" transform="translate(-195.47 -423.77)" fill="#fff"/>
        </g>
        <g id="Grupo_55533" data-name="Grupo 55533" transform="translate(190.033 301.916)" opacity="0.6">
          <path id="Trazado_127213" data-name="Trazado 127213" d="M214.222,414.68a1.089,1.089,0,0,0-.507,1.427,1.209,1.209,0,0,0,1.491.476,1.142,1.142,0,0,0,.537-1.509,1.276,1.276,0,0,0-1.647-.338" transform="translate(-213.614 -414.57)" fill="#fff"/>
        </g>
        <path id="Trazado_127214" data-name="Trazado 127214" d="M201.484,431.921c-.119.041-.44-.951-1.543-1.585a6.547,6.547,0,0,0-2.191-.634c0-.041.253-.159.745-.172a3.316,3.316,0,0,1,1.714.476,2.906,2.906,0,0,1,1.17,1.241C201.536,431.66,201.529,431.921,201.484,431.921Z" transform="translate(-19.541 -117.304)" fill="#263238"/>
        <path id="Trazado_127215" data-name="Trazado 127215" d="M199.293,435.6a15.664,15.664,0,0,0-1.632-.958,18.032,18.032,0,0,0-1.871-.427,2.4,2.4,0,0,1,2.042.062C198.928,434.693,199.4,435.561,199.293,435.6Z" transform="translate(-19.042 -118.697)" fill="#263238"/>
        <path id="Trazado_127216" data-name="Trazado 127216" d="M204.955,427.743a20.006,20.006,0,0,0-2.415-1.633,22.344,22.344,0,0,0-2.81-.93,4.773,4.773,0,0,1,3.019.579,4.332,4.332,0,0,1,2.206,1.985Z" transform="translate(-20.045 -115.938)" fill="#263238"/>
        <path id="Trazado_127217" data-name="Trazado 127217" d="M206.4,420.518c-.067.1-1.088-.427-2.489-.62s-2.542,0-2.571-.117A5.335,5.335,0,0,1,206.4,420.518Z" transform="translate(-20.455 -114.17)" fill="#263238"/>
        <path id="Trazado_127218" data-name="Trazado 127218" d="M207.212,412.832a10.294,10.294,0,0,0-2.571-.689,10.8,10.8,0,0,0-2.661.324c0-.041.209-.241.693-.434a4.546,4.546,0,0,1,2-.289,4.683,4.683,0,0,1,1.93.572C207.063,412.557,207.264,412.791,207.212,412.832Z" transform="translate(-20.618 -111.771)" fill="#263238"/>
        <path id="Trazado_127219" data-name="Trazado 127219" d="M204.826,409.33a1.407,1.407,0,0,1,.06-.689,4.646,4.646,0,0,1,.8-1.723,2.29,2.29,0,0,1,1.1-.9.859.859,0,0,1,.887.262,1.141,1.141,0,0,1,.209.848,2.794,2.794,0,0,1-2.773,2.157,3.307,3.307,0,0,1-3.026-1.923,1,1,0,0,1,.052-.882.831.831,0,0,1,.872-.3,2.757,2.757,0,0,1,1.207.751,5.26,5.26,0,0,1,1.163,1.544,1.612,1.612,0,0,1,.224.655,8.623,8.623,0,0,0-1.6-2,2.622,2.622,0,0,0-1.073-.627.443.443,0,0,0-.477.159.68.68,0,0,0,0,.579,2.94,2.94,0,0,0,2.638,1.64,2.429,2.429,0,0,0,2.385-1.8.82.82,0,0,0-.119-.593.452.452,0,0,0-.484-.152,1.994,1.994,0,0,0-.947.744,6.8,6.8,0,0,0-1.1,2.247Z" transform="translate(-20.625 -109.985)" fill="#263238"/>
        <path id="Trazado_127220" data-name="Trazado 127220" d="M220.937,349.62l14.631-107.133-4.681-24.907-27.577,1.378L199.86,347.642a1.992,1.992,0,0,0,1.714,1.978l16.069,2.295a3.063,3.063,0,0,0,2.169-.507,2.634,2.634,0,0,0,1.125-1.788Z" transform="translate(-20.078 -51.425)" fill="#263238"/>
        <path id="Trazado_127221" data-name="Trazado 127221" d="M243.212,243.625l26.616,24.356-38.287,8.608,2.72,17.864,51.83-6.52a16.606,16.606,0,0,0,11.031-6.127h0a14.158,14.158,0,0,0,.253-17.312l-40.382-54.8-18.037,5.438Z" transform="translate(-28.146 -48.973)" fill="#263238"/>
        <path id="Trazado_127222" data-name="Trazado 127222" d="M245.23,249.94a13.1,13.1,0,0,1,.924,3.06,12.5,12.5,0,0,1,.544,3.136,13.68,13.68,0,0,1-.924-3.06,13.365,13.365,0,0,1-.544-3.136Z" transform="translate(-31.633 -61.484)" fill="#455a64"/>
        <path id="Trazado_127223" data-name="Trazado 127223" d="M236.162,291.192,236.8,291l1.863-.538,7.14-2.006,25.982-7.223-.067.227L239.769,250l.335-.1c-.634,4.941-1.3,10.1-1.968,15.369-3.294,25.5-6.395,48.6-8.787,65.293-1.193,8.346-2.236,15.093-2.981,19.752-.425,2.316-.745,4.135-1,5.341-.134.6-.246,1.054-.32,1.378s-.119.469-.119.469a2.09,2.09,0,0,1,.082-.476c.082-.31.164-.786.283-1.378.268-1.213.522-3.026.924-5.348.745-4.666,1.729-11.413,2.877-19.766,2.333-16.692,5.381-39.786,8.676-65.3.678-5.265,1.342-10.427,1.975-15.369l.045-.379.283.276,31.863,31.516.164.165-.231.062-26.019,7.112-7.17,1.937-1.871.5A2.226,2.226,0,0,1,236.162,291.192Z" transform="translate(-26.463 -61.344)" fill="#455a64"/>
        <path id="Trazado_127224" data-name="Trazado 127224" d="M228.469,360.453c-.1,0,2.937-22.743,6.79-50.786s7.066-50.751,7.17-50.737-2.929,22.743-6.782,50.786S228.581,360.46,228.469,360.453Z" transform="translate(-27.364 -64.278)" fill="#455a64"/>
        <path id="Trazado_127225" data-name="Trazado 127225" d="M241.41,233.49a7.853,7.853,0,0,1,.611,1.661c.328,1.034.745,2.488,1.118,4.1s.663,3.088.835,4.135a7.4,7.4,0,0,1,.186,1.744,8.363,8.363,0,0,1-.455-1.7c-.276-1.178-.6-2.578-.947-4.135s-.745-2.936-1-4.135a7.722,7.722,0,0,1-.35-1.668Z" transform="translate(-30.66 -56.371)" fill="#455a64"/>
        <path id="Trazado_127226" data-name="Trazado 127226" d="M243.494,230.355a1.113,1.113,0,0,1,1.081-.11,1.194,1.194,0,0,1,.8.882,1.237,1.237,0,0,1-.6,1.309,1.422,1.422,0,0,1-1.491-.145,1,1,0,0,1-.343-1.11,1.039,1.039,0,0,1,.5-.613c.171-.09.283-.09.291-.069a1.375,1.375,0,0,0-.522.737.761.761,0,0,0,.306.8,1.082,1.082,0,0,0,1.1.09.905.905,0,0,0-.119-1.633A2.137,2.137,0,0,0,243.494,230.355Z" transform="translate(-31.037 -55.337)" fill="#455a64"/>
        <path id="Trazado_127227" data-name="Trazado 127227" d="M290.774,298.433c-.082.076-1.58-1.2-3.727-2.343s-4.084-1.737-4.047-1.84a12.163,12.163,0,0,1,4.248,1.53,11.6,11.6,0,0,1,3.525,2.653Z" transform="translate(-41.252 -75.256)" fill="#455a64"/>
        <path id="Trazado_127228" data-name="Trazado 127228" d="M211.029,109.524l-15.279,6.823,6.589,42.509-2.586,19.076a7.154,7.154,0,0,0,2.691,6.54h0l24.678-.448,17.262-8.759,7.938-1.241-3.25-14.521,1.491-20.6,18.059,8.911a6.741,6.741,0,0,0,4.539.5l33.085-7.946-1.722-11.8-29.977,3.136L251.717,113.06l-16.993-3.535-3.011-4.624H214.324l-1.245.841a3.427,3.427,0,0,0-1.26,1.592Z" transform="translate(-19.032 -16.402)" fill="#c1507f"/>
        <path id="Trazado_127229" data-name="Trazado 127229" d="M182.107,121.51a17.2,17.2,0,0,0-6.879,8.27c-1.744,5.017-5.687,25.3-5.687,25.3l-17.359-9.938-10,9.724,23.105,18.87a12.527,12.527,0,0,0,12.887,1.647h0a10.992,10.992,0,0,0,6.551-8.332l2.84-19.235Z" transform="translate(-5.389 -21.565)" fill="#c1507f"/>
        <path id="Trazado_127230" data-name="Trazado 127230" d="M260.7,209.031l-1.073-1.461L248.2,209.52l-2.1,4.5Z" transform="translate(-31.854 -48.314)" fill="#ffbe9d"/>
        <path id="Trazado_127231" data-name="Trazado 127231" d="M204.73,205.612c10.211,3.8,21.115,2.4,30.834-2.364,2.937-1.44,5.657-3.225,8.609-4.645a19.419,19.419,0,0,1,9.533-2.247c3.317.214,6.656,1.9,7.982,4.721a5.711,5.711,0,0,1-3.123,7.705l1.1.91c4.584-1.971,6.76-7.677,4.524-11.875-1.714-3.212-5.322-5.134-7.96-7.76-3.883-3.859-4.286-11.33-4.315-17.147" transform="translate(-21.319 -37.541)" fill="#c1507f"/>
        <path id="Trazado_127232" data-name="Trazado 127232" d="M230.063,119.816a5.021,5.021,0,0,1-.745,0,3,3,0,0,0-1.811.772,3.743,3.743,0,0,0-.9,2.695,8.556,8.556,0,0,0,.827,3.618l.291.593-.559-.386a29.47,29.47,0,0,1-3.853-3.15,26.155,26.155,0,0,1-5.918-8.38,18.092,18.092,0,0,1-.961-2.908,6.847,6.847,0,0,1-.171-1.11,31.025,31.025,0,0,0,1.386,3.921,27.591,27.591,0,0,0,5.963,8.229,30.966,30.966,0,0,0,3.786,3.122l-.276.214a7.723,7.723,0,0,1-.634-1.937,7.851,7.851,0,0,1-.171-1.826,3.878,3.878,0,0,1,1.051-2.839,3,3,0,0,1,1.96-.737,3.478,3.478,0,0,1,.738.11Z" transform="translate(-24.255 -18.472)" fill="#263238"/>
        <path id="Trazado_127233" data-name="Trazado 127233" d="M236,118.526a4.2,4.2,0,0,1,4.025,1.185c.6.634.932,1.5,1.714,1.916s3.272.737,3.995.227c0,0,.44-1.964.678-2.757a56.82,56.82,0,0,0,1.692-9.428c-2.4-1.082-1.737-2.5-6.067-2.226a9.451,9.451,0,0,1,.157,5.637" transform="translate(-29.282 -17.182)" fill="#c1507f"/>
        <path id="Trazado_127234" data-name="Trazado 127234" d="M242.224,112.986c-.045,0,.157-.531.246-1.509a10.287,10.287,0,0,0-.537-4.087l-.052-.165h.179a7.969,7.969,0,0,1,3.19.262,4.863,4.863,0,0,1,1.491.986,5.872,5.872,0,0,0,1.491.951l.119.055v.117c-.194,1.675-.41,3.5-.745,5.389-.224,1.234-.492,2.426-.8,3.563s-.559,2.233-.82,3.267v.069l-.045.034a2.527,2.527,0,0,1-1.282.283,8.453,8.453,0,0,1-1.193-.069,8.162,8.162,0,0,1-1.118-.227,2.465,2.465,0,0,1-.976-.489,9.182,9.182,0,0,1-1.148-1.461,3.947,3.947,0,0,0-1.178-.986,4.448,4.448,0,0,0-2.147-.62,4.629,4.629,0,0,0-.8.11,1.772,1.772,0,0,1,.8-.214,4.334,4.334,0,0,1,2.236.551,4.077,4.077,0,0,1,1.275,1.02,9.145,9.145,0,0,0,1.14,1.378,3.849,3.849,0,0,0,1.938.62,7.8,7.8,0,0,0,1.14.055,2.3,2.3,0,0,0,1.073-.227l-.067.1c.253-1.041.492-2.157.8-3.287s.574-2.316.79-3.542c.343-1.875.566-3.694.745-5.362l.1.172a6.375,6.375,0,0,1-1.61-1.013,4.383,4.383,0,0,0-1.364-.937,7.885,7.885,0,0,0-3.041-.289l.127-.172a9.973,9.973,0,0,1,.425,4.183,7.161,7.161,0,0,1-.253,1.123,1.513,1.513,0,0,1-.127.372Z" transform="translate(-29.305 -17.107)" fill="#263238"/>
        <path id="Trazado_127235" data-name="Trazado 127235" d="M267.348,183.571v-.786a4.622,4.622,0,0,0-.745-2.13,7.518,7.518,0,0,0-2.743-2.447,12.3,12.3,0,0,0-4.889-1.241c-1.893-.159-3.995-.062-6.253-.207a25.239,25.239,0,0,1-7.051-1.378,14.508,14.508,0,0,1-6.358-4.4,9.923,9.923,0,0,1-1.826-3.535,12.544,12.544,0,0,1-.417-4.018,62.855,62.855,0,0,1,1.2-7.822,55.183,55.183,0,0,0,.745-7.278,56.173,56.173,0,0,0-3.183-20.455c-.313-.944-.6-1.661-.79-2.15-.089-.234-.157-.42-.209-.565a.781.781,0,0,1-.06-.193,1.569,1.569,0,0,1,.1.179c.06.124.142.324.246.551.209.482.522,1.192.865,2.136a53.793,53.793,0,0,1,2.325,8.1,55.553,55.553,0,0,1,1.066,12.405,54.657,54.657,0,0,1-.745,7.326,66.394,66.394,0,0,0-1.185,7.781,10.576,10.576,0,0,0,2.161,7.333,14.116,14.116,0,0,0,6.186,4.294,24.88,24.88,0,0,0,6.939,1.378c2.236.152,4.338.076,6.261.255a12.423,12.423,0,0,1,5.023,1.344,7.494,7.494,0,0,1,2.758,2.55,4.46,4.46,0,0,1,.686,2.192,2.631,2.631,0,0,1-.037.6C267.371,183.53,267.356,183.571,267.348,183.571Z" transform="translate(-28.969 -22.64)" fill="#263238"/>
        <path id="Trazado_127236" data-name="Trazado 127236" d="M253.825,191.79a6.379,6.379,0,0,1-.857.827c-.283.255-.641.565-1.073.9s-.909.744-1.491,1.137a41.022,41.022,0,0,1-4.122,2.64,44.053,44.053,0,0,1-11.3,4.376,43.061,43.061,0,0,1-4.927.861c-.708.1-1.349.138-1.915.179s-1.051.069-1.453.076a7.807,7.807,0,0,1-1.237,0,9.256,9.256,0,0,1,1.23-.131,12.842,12.842,0,0,0,1.438-.131c.559-.069,1.2-.11,1.9-.227a49.617,49.617,0,0,0,4.874-.937,51.139,51.139,0,0,0,5.761-1.813,49.055,49.055,0,0,0,5.441-2.529,46.839,46.839,0,0,0,4.144-2.55c.574-.379,1.066-.765,1.491-1.089s.812-.613,1.111-.855a8.767,8.767,0,0,1,.984-.737Z" transform="translate(-26.595 -43.409)" fill="#263238"/>
        <path id="Trazado_127237" data-name="Trazado 127237" d="M248.444,159a1.24,1.24,0,0,1-.067.379l-.261,1.075a14.261,14.261,0,0,1-.492,1.682c-.224.648-.44,1.378-.79,2.192-.171.4-.343.82-.522,1.254s-.425.868-.641,1.33c-.432.93-1,1.868-1.573,2.867a40.7,40.7,0,0,1-10.2,11.241c-.969.689-1.871,1.378-2.788,1.93-.447.283-.872.572-1.3.82l-1.245.689a22.716,22.716,0,0,1-2.2,1.11q-.828.41-1.7.737l-1.1.427a2.4,2.4,0,0,1-.4.124,1.868,1.868,0,0,1,.365-.193l1.066-.482c.47-.2,1.036-.455,1.67-.793s1.386-.689,2.154-1.144l1.222-.689c.425-.248.842-.544,1.289-.827.894-.558,1.781-1.241,2.735-1.943a47.038,47.038,0,0,0,5.6-5.155,45.879,45.879,0,0,0,4.517-5.989c.581-.992,1.155-1.916,1.588-2.833.231-.455.47-.889.663-1.316l.537-1.241c.373-.779.6-1.516.842-2.157s.425-1.2.559-1.661l.328-1.054A1.31,1.31,0,0,1,248.444,159Z" transform="translate(-26.015 -33.218)" fill="#263238"/>
        <path id="Trazado_127238" data-name="Trazado 127238" d="M213.38,221.171a4.464,4.464,0,0,1-1.364-.937,9.191,9.191,0,0,1-3.108-6.844,4.012,4.012,0,0,1,.224-1.551,13.448,13.448,0,0,1,.052,1.544,10.4,10.4,0,0,0,3.033,6.678C212.91,220.758,213.447,221.123,213.38,221.171Z" transform="translate(-22.381 -49.641)" fill="#263238"/>
        <path id="Trazado_127239" data-name="Trazado 127239" d="M214.045,217.59c.112,0-.1.917,0,2s.462,1.93.358,1.978a3.87,3.87,0,0,1-.365-3.977Z" transform="translate(-23.591 -51.428)" fill="#263238"/>
        <path id="Trazado_127240" data-name="Trazado 127240" d="M202.112,167.3a1.036,1.036,0,0,1-.089-.324c-.052-.255-.112-.565-.186-.937-.157-.868-.373-2.068-.626-3.446-.522-2.915-1.267-6.94-2.161-11.371s-1.766-8.442-2.385-11.344c-.313-1.378-.574-2.564-.745-3.446-.082-.372-.142-.689-.194-.93a.966.966,0,0,1-.045-.338,1.245,1.245,0,0,1,.119.317c.075.255.157.558.261.923.224.8.529,1.964.887,3.4.745,2.881,1.632,6.892,2.534,11.316s1.588,8.477,2.042,11.4c.231,1.468.4,2.653.507,3.446.045.379.082.689.112.951A1.022,1.022,0,0,1,202.112,167.3Z" transform="translate(-19.013 -25.808)" fill="#263238"/>
        <path id="Trazado_127241" data-name="Trazado 127241" d="M268.3,166.693a1.757,1.757,0,0,1-.037-.338v-4.583c0-3.039.179-7.236.559-11.861s.879-8.8,1.267-11.819c.2-1.468.365-2.674.492-3.57q.089-.579.157-.972a1.508,1.508,0,0,1,.075-.331,1.014,1.014,0,0,1,0,.345c0,.262-.052.586-.082.972-.089.9-.216,2.109-.365,3.584-.32,3.019-.745,7.2-1.155,11.819s-.566,8.808-.671,11.84c-.045,1.475-.082,2.688-.112,3.6l-.037.979a1.041,1.041,0,0,1-.089.338Z" transform="translate(-37.498 -25.205)" fill="#263238"/>
        <path id="Trazado_127242" data-name="Trazado 127242" d="M185.95,179.984c-.127.048-1.111-2.46-2.981-5.19a35.948,35.948,0,0,0-4.04-4.535,6.783,6.783,0,0,1,1.491,1.1,19.373,19.373,0,0,1,2.907,3.239,21.861,21.861,0,0,1,2.087,3.735,6.562,6.562,0,0,1,.537,1.654Z" transform="translate(-14.747 -36.717)" fill="#263238"/>
        <path id="Trazado_127243" data-name="Trazado 127243" d="M187.23,176.957a12.917,12.917,0,0,1-.835-1.378,10.959,10.959,0,0,0-2.579-2.757,16.616,16.616,0,0,0-3.406-1.923,10.162,10.162,0,0,1-1.491-.689,6.206,6.206,0,0,1,1.617.441,13.354,13.354,0,0,1,3.548,1.881,9.441,9.441,0,0,1,2.571,2.943,4.28,4.28,0,0,1,.574,1.482Z" transform="translate(-14.745 -36.702)" fill="#263238"/>
        <path id="Trazado_127246" data-name="Trazado 127246" d="M207.037,115.22a2.219,2.219,0,0,1-.239.613,9.3,9.3,0,0,1-.961,1.551,12.62,12.62,0,0,1-11.046,4.873,10.94,10.94,0,0,1-1.9-.283,2.358,2.358,0,0,1-.671-.221c0-.062.984.2,2.586.255a13.24,13.24,0,0,0,10.815-4.769C206.582,116.053,206.963,115.185,207.037,115.22Z" transform="translate(-18.133 -19.609)" fill="#fafafa"/>
        <path id="Trazado_127247" data-name="Trazado 127247" d="M225.675,119.442a7.121,7.121,0,0,0-2.1.958,6.3,6.3,0,0,0-1.364,1.764c-.045,0-.06-.276.089-.689a3.419,3.419,0,0,1,2.638-2.068C225.392,119.345,225.675,119.4,225.675,119.442Z" transform="translate(-25.762 -20.903)" fill="#fafafa"/>
        <path id="Trazado_127248" data-name="Trazado 127248" d="M246.518,122.57a1.658,1.658,0,0,1-.634-.269,5.03,5.03,0,0,1-1.4-1.192,4.511,4.511,0,0,1-1.036-2.44,2.2,2.2,0,0,1,.462-1.551,1.783,1.783,0,0,1,1.722-.689,1.842,1.842,0,0,1,1.357,1.206,1.553,1.553,0,0,1-.343,1.585,2.533,2.533,0,0,1-2.7.689,3.039,3.039,0,0,1-1.491-1.13,1.327,1.327,0,0,1-.276-.593,5.907,5.907,0,0,0,.4.51,3.106,3.106,0,0,0,1.438.972,2.249,2.249,0,0,0,2.333-.627,1.259,1.259,0,0,0,.261-1.275,1.511,1.511,0,0,0-1.081-.958,1.4,1.4,0,0,0-1.342.538,1.956,1.956,0,0,0-.4,1.316,4.392,4.392,0,0,0,.9,2.316A7.509,7.509,0,0,0,246.518,122.57Z" transform="translate(-30.856 -19.979)" fill="#fafafa"/>
        <path id="Trazado_127249" data-name="Trazado 127249" d="M250.138,112.655a9.49,9.49,0,0,0-2.467-1.592,10.406,10.406,0,0,0-2.981-.469,1.716,1.716,0,0,1,.894-.2,5.24,5.24,0,0,1,2.236.338,5.1,5.1,0,0,1,1.833,1.192C250.041,112.324,250.183,112.635,250.138,112.655Z" transform="translate(-31.495 -18.106)" fill="#fafafa"/>
        <path id="Trazado_127252" data-name="Trazado 127252" d="M262.664,172.149a3.362,3.362,0,0,1-1.021,1.378,6.634,6.634,0,0,1-8.2.6A3.573,3.573,0,0,1,252.2,172.9c.052-.048.477.469,1.4,1.013a6.76,6.76,0,0,0,7.826-.572C262.269,172.68,262.6,172.108,262.664,172.149Z" transform="translate(-33.408 -37.304)" fill="#fafafa"/>
        <path id="Trazado_127255" data-name="Trazado 127255" d="M313.748,157.155a2.016,2.016,0,0,1-.455-.476,4.8,4.8,0,0,1-.812-1.558,5.9,5.9,0,0,1-.112-2.564,22.046,22.046,0,0,1,.745-3.046,21.222,21.222,0,0,1,2.668-5.086c.417-.606.745-1.1,1.029-1.42a2.523,2.523,0,0,1,.425-.5,16.139,16.139,0,0,1-1.215,2.068,24.654,24.654,0,0,0-2.534,5.059,26.4,26.4,0,0,0-.745,2.991,5.968,5.968,0,0,0,0,2.453,8.855,8.855,0,0,0,1.006,2.074Z" transform="translate(-48.708 -28.092)" fill="#fafafa"/>
        <path id="Trazado_127256" data-name="Trazado 127256" d="M332.148,140.75a1.622,1.622,0,0,1,.224.5,8.08,8.08,0,0,1,.373,1.413,11.887,11.887,0,0,1-2.229,9.214,8.627,8.627,0,0,1-.984,1.137c-.261.248-.41.379-.432.365s.5-.613,1.185-1.64a13.829,13.829,0,0,0,1.915-4.349,13.171,13.171,0,0,0,.246-4.686C332.32,141.494,332.081,140.771,332.148,140.75Z" transform="translate(-52.992 -27.545)" fill="#fafafa"/>
        <path id="Trazado_127258" data-name="Trazado 127258" d="M270.644,195.788a4.385,4.385,0,0,1-.9,1.578c-.589.82-1.133,1.44-1.222,1.378a4.385,4.385,0,0,1,.9-1.578C270.011,196.354,270.555,195.733,270.644,195.788Z" transform="translate(-37.564 -44.651)" fill="#fafafa"/>
        <path id="Trazado_127259" data-name="Trazado 127259" d="M282.634,209.017c-.06,0-.164-.241-.425-.6a3.937,3.937,0,0,0-3.033-1.558,4.221,4.221,0,0,1-.745,0,1.268,1.268,0,0,1,.745-.234,3.455,3.455,0,0,1,3.279,1.688C282.663,208.714,282.678,209.01,282.634,209.017Z" transform="translate(-40.088 -48.018)" fill="#fafafa"/>
        <path id="Trazado_127260" data-name="Trazado 127260" d="M239.21,205c0,.048-.894.469-2.333,1.234a20.05,20.05,0,0,0-5.068,3.618,9.7,9.7,0,0,0-2.691,5.265,11.514,11.514,0,0,0,.045,2.46,1.954,1.954,0,0,1-.209-.648,5.783,5.783,0,0,1-.1-1.833,9.331,9.331,0,0,1,2.668-5.479,18.248,18.248,0,0,1,5.217-3.611c.745-.351,1.356-.613,1.781-.786a2.479,2.479,0,0,1,.693-.221Z" transform="translate(-27.453 -47.515)" fill="#fafafa"/>
        <path id="Trazado_127261" data-name="Trazado 127261" d="M256.955,206.884a2.6,2.6,0,0,1-.812-.827,4.332,4.332,0,0,1,.47-5.148,2.166,2.166,0,0,1,.947-.689c.045.055-.32.31-.745.848a4.633,4.633,0,0,0-.44,4.872C256.694,206.526,257.007,206.843,256.955,206.884Z" transform="translate(-34.25 -46.03)" fill="#fafafa"/>
        <path id="Trazado_127263" data-name="Trazado 127263" d="M233.666,203.449a3.393,3.393,0,0,1-1.2-.875,7.206,7.206,0,0,1-2.065-6.4,3.132,3.132,0,0,1,.484-1.378c.067,0-.112.531-.209,1.378a7.977,7.977,0,0,0,1.99,6.2C233.256,203.063,233.711,203.4,233.666,203.449Z" transform="translate(-27.828 -44.345)" fill="#fafafa"/>
        <path id="Trazado_127266" data-name="Trazado 127266" d="M180.1,193.953a2.652,2.652,0,0,1-.581-.572,11.067,11.067,0,0,1-1.282-1.792A11.921,11.921,0,0,1,179.2,178.1a11.643,11.643,0,0,1,1.491-1.62,3.166,3.166,0,0,1,.678-.482c.052.055-.879.786-1.953,2.267a12.261,12.261,0,0,0-.947,13.225A26.758,26.758,0,0,0,180.1,193.953Z" transform="translate(-14.152 -38.501)" fill="#fafafa"/>
        <path id="Trazado_127267" data-name="Trazado 127267" d="M195.326,175.771c-.067,0-.38-1.034-1.3-2.557a15.428,15.428,0,0,0-11.776-7.2c-1.878-.193-3.056-.041-3.056-.11a3.393,3.393,0,0,1,.82-.131,15.348,15.348,0,0,1,14.236,7.34,11.247,11.247,0,0,1,.872,1.93A2.593,2.593,0,0,1,195.326,175.771Z" transform="translate(-14.814 -35.309)" fill="#fafafa"/>
        <g id="Grupo_55534" data-name="Grupo 55534" transform="translate(200.353 150.51)" opacity="0.3">
          <path id="Trazado_127268" data-name="Trazado 127268" d="M227.989,204.122c-.745.283-.648,1.33-.052,1.785a3.4,3.4,0,0,0,2.236.441,29.391,29.391,0,0,0,22.084-11.468c-6.708,5.107-15.577,7.043-24.081,8.822" transform="translate(-227.46 -194.88)"/>
        </g>
        <g id="Grupo_55535" data-name="Grupo 55535" transform="translate(199.191 130.751)" opacity="0.3">
          <path id="Trazado_127269" data-name="Trazado 127269" d="M226.258,188.181A2.642,2.642,0,0,1,227,184.8a12.756,12.756,0,0,1,3.443-1.9,20.942,20.942,0,0,0,10.047-9.531c1.357-2.715,2.378-6.044,5.381-7.161-1.7,9.764-9.062,17.876-19.162,21.13" transform="translate(-225.901 -166.21)"/>
        </g>
        <g id="Grupo_55536" data-name="Grupo 55536" transform="translate(175.854 116.989)" opacity="0.3">
          <path id="Trazado_127270" data-name="Trazado 127270" d="M197.132,146.24a64.821,64.821,0,0,1-1.714,22.522,17.669,17.669,0,0,0-.827,4.748,6.171,6.171,0,0,0,2.474,4.459c1.237-2.64,1.26-5.183,1.781-8.022.47-2.557,1.26-8.532,1.26-8.622a31.592,31.592,0,0,0-3.4-14.411" transform="translate(-194.59 -146.24)"/>
        </g>
        <g id="Grupo_55537" data-name="Grupo 55537" transform="translate(192.013 94.246)" opacity="0.3">
          <path id="Trazado_127271" data-name="Trazado 127271" d="M216.695,113.357A26.936,26.936,0,0,0,225.132,128c1.647,1.482,3.727,2.853,6,2.757a12.108,12.108,0,0,1-1.155-8.119,37.323,37.323,0,0,0,6.142,3.088,13.107,13.107,0,0,0,6.857.689l1.416-11.392a1.981,1.981,0,0,0-.127-1.282.79.79,0,0,0-.527-.385.85.85,0,0,0-.658.123,1.055,1.055,0,0,0-.231.5c-.835,3.343-1.3,6.34-2.147,9.69-.6.551-2.46.324-3.682-.1-1.066-.365-1.491-1.178-2.176-2s-.581-.689-1.625-1.089c-1.923-.751-5.612-.152-6.417,1.44s-.194,3.694.343,5.265A24.061,24.061,0,0,1,216.27,113.24" transform="translate(-216.27 -113.24)"/>
        </g>
        <g id="Grupo_55538" data-name="Grupo 55538" transform="translate(231.515 110.531)" opacity="0.3">
          <path id="Trazado_127272" data-name="Trazado 127272" d="M270.835,136.87c-.149.276,4.643,15.217,4.643,15.217l-6.209-3.274Z" transform="translate(-269.27 -136.87)"/>
        </g>
        <path id="Trazado_127273" data-name="Trazado 127273" d="M219.61,68.4V92.187A5.506,5.506,0,0,0,221.1,95.9h0a18.451,18.451,0,0,0,5.173,3.956l5.217,2.708,4.293-3.549a5.618,5.618,0,0,0,2.079-4.073c.075-1.737.067-3.446.067-3.446s7.274-.482,7.96-7.112c.32-3.129.425-9.524.44-15.417.061-6.777-5.558-12.442-12.864-12.97h-.2A13.936,13.936,0,0,0,223.6,59.53,11.882,11.882,0,0,0,219.61,68.4Z" transform="translate(-25.108 -1.201)" fill="#ffbe9d"/>
        <path id="Trazado_127274" data-name="Trazado 127274" d="M241,105.954a18.245,18.245,0,0,1-9.115-3.274s1.878,5.031,9.1,4.983Z" transform="translate(-28.233 -15.712)" fill="#eb996e"/>
        <path id="Trazado_127275" data-name="Trazado 127275" d="M251.829,80.507a1,1,0,0,1-1.073.882,1.024,1.024,0,0,1-.7-.279.873.873,0,0,1-.275-.659,1,1,0,0,1,1.073-.882,1.017,1.017,0,0,1,.7.276.866.866,0,0,1,.272.661Z" transform="translate(-32.791 -8.529)" fill="#263238"/>
        <path id="Trazado_127276" data-name="Trazado 127276" d="M251.533,78.106c-.134.11-.865-.482-1.968-.565s-1.96.372-2.065.234.089-.269.47-.482a3.015,3.015,0,0,1,1.662-.338,2.817,2.817,0,0,1,1.558.6C251.51,77.824,251.592,78.051,251.533,78.106Z" transform="translate(-32.204 -7.713)" fill="#263238"/>
        <path id="Trazado_127277" data-name="Trazado 127277" d="M237.867,79.807a1,1,0,0,1-1.073.882,1.032,1.032,0,0,1-.7-.278.88.88,0,0,1-.28-.659,1.011,1.011,0,0,1,1.073-.882,1.025,1.025,0,0,1,.706.276A.873.873,0,0,1,237.867,79.807Z" transform="translate(-29.234 -8.311)" fill="#263238"/>
        <path id="Trazado_127278" data-name="Trazado 127278" d="M236.959,77.168c-.142.11-.872-.476-1.975-.558s-1.953.365-2.065.227.1-.269.47-.482A3.059,3.059,0,0,1,235.059,76a2.864,2.864,0,0,1,1.558.6C236.93,76.886,237.026,77.113,236.959,77.168Z" transform="translate(-28.49 -7.416)" fill="#263238"/>
        <path id="Trazado_127279" data-name="Trazado 127279" d="M242.81,85.259a7.693,7.693,0,0,1,1.819-.165c.283,0,.559,0,.619-.207a1.228,1.228,0,0,0-.119-.786c-.209-.689-.425-1.337-.656-2.068a37.125,37.125,0,0,1-1.4-5.334,37.43,37.43,0,0,1,1.863,5.217c.216.689.425,1.378.619,2.068a1.4,1.4,0,0,1,.06,1.034.742.742,0,0,1-.5.345,2.021,2.021,0,0,1-.484,0A8.307,8.307,0,0,1,242.81,85.259Z" transform="translate(-31.017 -7.637)" fill="#263238"/>
        <path id="Trazado_127280" data-name="Trazado 127280" d="M238.291,89.78c.179,0,.082,1.116,1.036,1.978s2.236.841,2.236.992-.3.2-.842.172a3.1,3.1,0,0,1-1.871-.772,2.326,2.326,0,0,1-.79-1.654C238.052,90.035,238.209,89.766,238.291,89.78Z" transform="translate(-29.807 -11.702)" fill="#263238"/>
        <path id="Trazado_127281" data-name="Trazado 127281" d="M237.476,71.491c-.134.269-1.222.055-2.527.1s-2.385.289-2.534,0c-.067-.124.134-.372.581-.606a4.712,4.712,0,0,1,3.861-.1C237.32,71.126,237.536,71.36,237.476,71.491Z" transform="translate(-28.366 -5.715)" fill="#263238"/>
        <path id="Trazado_127282" data-name="Trazado 127282" d="M251.453,73.754c-.216.214-.954-.083-1.863-.165s-1.7,0-1.856-.227c-.075-.124.075-.351.432-.544a2.891,2.891,0,0,1,2.981.317C251.468,73.4,251.55,73.644,251.453,73.754Z" transform="translate(-32.266 -6.345)" fill="#263238"/>
        <path id="Trazado_127283" data-name="Trazado 127283" d="M227.678,62.29h-.045a5.248,5.248,0,0,0-2.4,3.26v.138c-.455,1.868-.574,3.8-1.043,5.665s-.38,3.294-2.407,3.715a2.786,2.786,0,0,1-2.817-1.054,1.587,1.587,0,0,1-.186-.882c0-4.6-.969-6.389-.537-11.165a4.028,4.028,0,0,1,2.1-3.143c1.148-.634,2.534-1.282,3.727-.689s2.534,2.819,3.384,3.777" transform="translate(-24.731 -1.794)" fill="#263238"/>
        <path id="Trazado_127284" data-name="Trazado 127284" d="M220.758,78.435c-.112-.055-4.807-1.723-5.061,2.826s4.748,3.846,4.763,3.715S220.758,78.435,220.758,78.435Z" transform="translate(-24.109 -8.07)" fill="#ffbe9d"/>
        <path id="Trazado_127285" data-name="Trazado 127285" d="M219.475,83.834a1.467,1.467,0,0,1-.239.11.9.9,0,0,1-.641,0,1.9,1.9,0,0,1-.887-1.813,2.4,2.4,0,0,1,.306-1.123.965.965,0,0,1,.678-.579.448.448,0,0,1,.492.241c.06.131,0,.221.045.227s.112-.069.082-.255a.474.474,0,0,0-.179-.3.644.644,0,0,0-.462-.138,1.187,1.187,0,0,0-.939.689,2.6,2.6,0,0,0-.365,1.254,2.031,2.031,0,0,0,1.14,2.026,1.006,1.006,0,0,0,.79-.083C219.46,83.944,219.49,83.848,219.475,83.834Z" transform="translate(-24.533 -8.727)" fill="#eb996e"/>
        <path id="Trazado_127286" data-name="Trazado 127286" d="M225.6,57.03c-1.051-1.909,2.5-4.259,4.979-4.783s5.582.82,7.93,1.744c1.491.579,2.937,1.378,4.539,1.378a11.8,11.8,0,0,0,3.175-.489,8.693,8.693,0,0,1,3.2-.338,2.959,2.959,0,0,1,2.474,1.744,1.6,1.6,0,0,1-.191,1.428,1.871,1.871,0,0,1-1.3.791,2.557,2.557,0,0,1,2.836.6,2.108,2.108,0,0,1,.172,2.685,2.526,2.526,0,0,1-2.74.9c.745-.441,1.744.448,1.58,1.247a2.469,2.469,0,0,1-1.826,1.592,9.826,9.826,0,0,1-6.544-.593c-2.072-.82-3.935-2-5.963-2.867s-5.441-2.412-7.61-1.881c-1.6.386-2.832,2.033-3.674,1.578a2.728,2.728,0,0,1-1.364-2.143,7.439,7.439,0,0,1,.328-2.578" transform="translate(-26.549)" fill="#263238"/>
        <path id="Trazado_127287" data-name="Trazado 127287" d="M251.51,59c-.037,0-.283.31-.857.8a6.944,6.944,0,0,1-2.877,1.42,6.673,6.673,0,0,1-4.666-.538,21.553,21.553,0,0,1-4.435-3.742,10.447,10.447,0,0,0-5.3-2.867,6.02,6.02,0,0,0-4.845,1.144,3.816,3.816,0,0,0-1.371,2.846,2.706,2.706,0,0,0,.134.848.879.879,0,0,0,.134.276,6.339,6.339,0,0,1-.082-1.116,3.791,3.791,0,0,1,1.416-2.619,5.717,5.717,0,0,1,4.517-.972,10.126,10.126,0,0,1,5.038,2.757c1.491,1.378,2.84,2.929,4.561,3.784a7.12,7.12,0,0,0,7.886-1.116,4.962,4.962,0,0,0,.581-.689C251.473,59.094,251.525,59,251.51,59Z" transform="translate(-27.031 -0.569)" fill="#455a64"/>
        <path id="Trazado_127288" data-name="Trazado 127288" d="M220.538,72.914a1.258,1.258,0,0,0,.44-.455,2.878,2.878,0,0,0,.4-1.626c0-1.475-1.237-3.15-1.237-5.183a4.347,4.347,0,0,1,.79-2.667,3.727,3.727,0,0,1,1.968-1.316,3.488,3.488,0,0,1,1.655-.083c.4.09.6.193.619.159s-.164-.179-.559-.324a3.3,3.3,0,0,0-1.8-.062,4.012,4.012,0,0,0-2.236,1.378,4.564,4.564,0,0,0-.909,2.915,7.817,7.817,0,0,0,.693,2.929,8.359,8.359,0,0,1,.686,2.261A3.326,3.326,0,0,1,220.538,72.914Z" transform="translate(-25.119 -2.838)" fill="#455a64"/>
      </g>
      <g id="freepik--front-screens--inject-93">
        <path id="Trazado_127289" data-name="Trazado 127289" d="M305.65,274c-38.77,10.26-76.14,9.48-116.87,0L184,199.52c42.09,8.19,84.34,7.15,121.63-1.76Z" fill="#41c1c5"/>
        <g id="Grupo_55539" data-name="Grupo 55539" opacity="0.8">
          <path id="Trazado_127290" data-name="Trazado 127290" d="M305.65,274c-38.77,10.26-76.14,9.48-116.87,0L184,199.52c42.09,8.19,84.34,7.15,121.63-1.76Z" fill="#fff"/>
        </g>
        <path id="Trazado_127291" data-name="Trazado 127291" d="M299.64,262.65a1,1,0,0,1-.25.12l-.73.31c-.65.26-1.59.68-2.84,1.13a107.28,107.28,0,0,1-10.73,3.36,140.27,140.27,0,0,1-36.78,4.2,214.769,214.769,0,0,1-36.86-3.94c-4.67-.89-8.42-1.71-11-2.31-1.29-.29-2.29-.54-3-.71l-.77-.2c-.17-.05-.26-.08-.25-.09h.27l.78.15,3,.61c2.59.54,6.36,1.31,11,2.14a226.311,226.311,0,0,0,36.8,3.79,145,145,0,0,0,36.69-4c4.59-1.16,8.25-2.32,10.75-3.21,1.26-.41,2.21-.8,2.87-1l.75-.26A.75.75,0,0,1,299.64,262.65Z" fill="#41c1c5"/>
        <path id="Trazado_127292" data-name="Trazado 127292" d="M242.67,265.68a25.389,25.389,0,0,1-14.92-.5v-26.5a37.48,37.48,0,0,1,14.92,0Z" fill="#41c1c5"/>
        <path id="Trazado_127293" data-name="Trazado 127293" d="M266.77,264.11a1.073,1.073,0,0,1,0-.21v-.57c0-.54,0-1.28-.07-2.22,0-1.95-.09-4.74-.16-8.23-.1-7-.25-16.87-.42-28.28l.2.24a40.33,40.33,0,0,0-15.45,0l.21-.25v.52c.16,15.66.31,29.81.41,39.91l-.15-.18a35.762,35.762,0,0,0,6.51.8,24.47,24.47,0,0,0,4.91-.41,23,23,0,0,0,3-.79l.75-.26a1.069,1.069,0,0,1,.28-.08l-.24.11-.76.33a21.162,21.162,0,0,1-3,.89,23.47,23.47,0,0,1-4.95.49,34.162,34.162,0,0,1-6.58-.72h-.14V265c-.15-10.1-.35-24.24-.57-39.9v-.75h.22a40.31,40.31,0,0,1,15.64,0l.2.05v.2c.09,11.46.16,21.35.22,28.41v10.92C266.83,264.08,266.78,264.11,266.77,264.11Z" fill="#41c1c5"/>
        <path id="Trazado_127294" data-name="Trazado 127294" d="M289.71,261c-4,2.16-9.25,2.45-14.93,2.12V219.34a31.92,31.92,0,0,1,14.93,0Z" fill="#41c1c5"/>
        <path id="Trazado_127295" data-name="Trazado 127295" d="M219,263.52s0-.41-.05-1.13,0-1.79-.06-3.06c0-2.66-.07-6.35-.11-10.74l.14.21a33.36,33.36,0,0,0-14.37-2.39h0l.24-.26v14.93l-.13-.2a27.89,27.89,0,0,0,5.76,1.64c1.77.32,3.32.5,4.61.63l3,.25a9.4,9.4,0,0,1,1.06.12,7.9,7.9,0,0,1-1.06,0,28.19,28.19,0,0,1-3-.13c-1.29-.13-2.86-.24-4.64-.53a26.759,26.759,0,0,1-5.88-1.59l-.13-.06V245.89h.26a33.13,33.13,0,0,1,14.58,2.49l.15.05v.16c0,4.45-.09,8.19-.12,10.89,0,1.25,0,2.25-.06,3A6,6,0,0,1,219,263.52Z" fill="#41c1c5"/>
        <path id="Trazado_127296" data-name="Trazado 127296" d="M226,224.79a15,15,0,0,1-2.92.18c-1.81,0-4.31,0-7.06-.17s-5.23-.42-7-.66a14.77,14.77,0,0,1-2.88-.52,18.333,18.333,0,0,1,2.91.16c1.8.14,4.28.34,7,.5s5.23.26,7,.32a19.439,19.439,0,0,1,2.95.19Z" fill="#41c1c5"/>
        <path id="Trazado_127297" data-name="Trazado 127297" d="M223.77,228.05a12.859,12.859,0,0,1-2.56,0c-1.58-.08-3.76-.22-6.17-.4s-4.59-.38-6.16-.55a12.671,12.671,0,0,1-2.53-.38,12.863,12.863,0,0,1,2.56,0c1.59.08,3.76.22,6.17.4s4.58.38,6.15.55a13.071,13.071,0,0,1,2.54.38Z" fill="#41c1c5"/>
        <path id="Trazado_127298" data-name="Trazado 127298" d="M229.23,232.32v-.93c0-.59.05-1.5.1-2.58.1-2.26.25-5.44.44-9.35l.19.21a213.705,213.705,0,0,1-27.63-1.54l.29-.24h0v.82l-.05.84c0,.56-.06,1.12-.1,1.67-.06,1.11-.12,2.2-.19,3.27-.13,2.15-.25,4.23-.37,6.22l-.21-.26c8,1,14.89,1.4,19.78,1.59l5.73.17,1.5.05h.55a2.9,2.9,0,0,1-.5,0c-.34,0-.88,0-1.55.05h-5.74c-4.9-.1-11.82-.46-19.83-1.41h-.23v-.24q.165-3,.35-6.22c.06-1.07.12-2.16.19-3.27l.09-1.67v-1.66h0l.29-.24A236.007,236.007,0,0,0,230,219.29h.2v.2c-.27,3.94-.49,7.16-.65,9.44-.08,1.06-.15,1.91-.2,2.53a4.449,4.449,0,0,1-.12.86Z" fill="#41c1c5"/>
        <path id="Trazado_127299" data-name="Trazado 127299" d="M232.64,237.93a11.83,11.83,0,0,1-1.93-2.67,9.57,9.57,0,0,1-1.48-2.94,11.829,11.829,0,0,1,1.93,2.67,9.569,9.569,0,0,1,1.48,2.94Z" fill="#41c1c5"/>
        <path id="Trazado_127300" data-name="Trazado 127300" d="M70.64,141l12.67,76.68s19.35,36.22,70.75,44.38l-8.29-68.44S98.23,178.9,70.64,141Z" fill="#41c1c5"/>
        <g id="Grupo_55540" data-name="Grupo 55540" opacity="0.8">
          <path id="Trazado_127301" data-name="Trazado 127301" d="M70.64,141l12.67,76.68s19.35,36.22,70.75,44.38l-8.29-68.44S98.23,178.9,70.64,141Z" fill="#fff"/>
        </g>
        <path id="Trazado_127302" data-name="Trazado 127302" d="M147.43,256.58l-.32-.08-1-.27-3.62-1.11c-1.57-.5-3.52-1-5.69-1.9l-3.49-1.33c-1.25-.47-2.56-1-3.89-1.6-2.67-1.22-5.64-2.48-8.66-4.18s-6.24-3.53-9.52-5.62a95.31,95.31,0,0,1-19.1-16.55,56.639,56.639,0,0,1-6.89-9.61h0l-5.8-37.5c-.7-4.68-1.27-8.43-1.66-11.06l-.42-3-.1-.77a1.09,1.09,0,0,1,0-.27,1,1,0,0,1,.06.26l.15.77.51,3c.43,2.62,1,6.37,1.81,11,1.5,9.42,3.6,22.54,6,37.47v-.07a57.26,57.26,0,0,0,6.82,9.5,96,96,0,0,0,19,16.49c3.26,2.1,6.37,4.07,9.45,5.64s5.95,3,8.61,4.22c1.32.65,2.63,1.16,3.86,1.63L137,253c2.15.91,4.09,1.45,5.64,2l3.59,1.2.93.32A1.359,1.359,0,0,1,147.43,256.58Z" fill="#41c1c5"/>
        <path id="Trazado_127303" data-name="Trazado 127303" d="M142.91,234.32s0,.06-.17.16l-.55.44-2.13,1.66L132,242.77l-.12.1-.1-.14c-2.72-3.75-6.07-8.39-9.87-13.66l.3.05-7.57,5.4-.25.18-.11-.3c-3-8-6.27-17-9.76-26.47l-1.4-3.81h.47l-6.16,12.24-.27.53-.19-.56c-5.37-15.46-9.92-28.6-12.88-37.13h.27c-.81,3.42-1.45,6.11-1.89,8-.22.9-.4,1.6-.52,2.1l-.14.54a.62.62,0,0,1-.07.18v-.19a4.008,4.008,0,0,1,.1-.54l.45-2.12c.41-1.89,1-4.59,1.76-8l.11-.48.17.47c3,8.51,7.63,21.62,13.08,37.05h-.46l6.15-12.24.27-.54.21.56,1.4,3.81c3.47,9.48,6.77,18.47,9.71,26.49l-.36-.11,7.6-5.36.17-.12.13.17L132,242.55h-.23l8.17-6.07,2.18-1.6.57-.4Z" fill="#41c1c5"/>
        <path id="Trazado_127304" data-name="Trazado 127304" d="M141.14,197.55a4.679,4.679,0,0,1-1.08-.24c-.68-.19-1.67-.49-2.87-.89A94,94,0,0,1,128,192.8a98.075,98.075,0,0,1-8.83-4.53c-1.09-.64-2-1.18-2.56-1.57a4.53,4.53,0,0,1-.89-.65,4.64,4.64,0,0,1,1,.48l2.64,1.42c2.23,1.19,5.34,2.79,8.86,4.38s6.77,2.86,9.14,3.75c1.11.4,2,.75,2.81,1A4,4,0,0,1,141.14,197.55Z" fill="#41c1c5"/>
        <path id="Trazado_127305" data-name="Trazado 127305" d="M143.18,200.73a10.35,10.35,0,0,1-2.48-.44,57.409,57.409,0,0,1-5.83-1.74,58.171,58.171,0,0,1-5.61-2.35,10.75,10.75,0,0,1-2.19-1.23,13.679,13.679,0,0,1,2.35.9c1.43.59,3.41,1.39,5.63,2.19s4.26,1.43,5.75,1.88A13.64,13.64,0,0,1,143.18,200.73Z" fill="#41c1c5"/>
        <path id="Trazado_127306" data-name="Trazado 127306" d="M122.93,229.09c0,.64-.39,1.15-.87,1.15s-.86-.51-.86-1.15.39-1.15.86-1.15S122.93,228.46,122.93,229.09Z" fill="#41c1c5"/>
        <ellipse id="Elipse_4279" data-name="Elipse 4279" cx="0.86" cy="1.15" rx="0.86" ry="1.15" transform="translate(102.4 203.7)" fill="#41c1c5"/>
        <path id="Trazado_127307" data-name="Trazado 127307" d="M85.13,179.56c0,.63-.39,1.15-.86,1.15s-.86-.52-.86-1.15.38-1.15.86-1.15S85.13,178.93,85.13,179.56Z" fill="#41c1c5"/>
        <path id="Trazado_127308" data-name="Trazado 127308" d="M406,154.64l-6.35,77.9S381.08,265.85,330,267.12l6.31-78.43S380.88,186.88,406,154.64Z" fill="#41c1c5"/>
        <path id="Trazado_127309" data-name="Trazado 127309" d="M405,150.58c-1.66-5.39-5.7-13.08-15.3-14.68L378.38,240.68s21.31-4.25,21.88-15.93c.05-1,4.31-53.09,5.38-66a21.111,21.111,0,0,0-.64-8.17Z" fill="#41c1c5"/>
        <g id="Grupo_55541" data-name="Grupo 55541" opacity="0.8">
          <path id="Trazado_127310" data-name="Trazado 127310" d="M406,154.64l-6.35,77.9S381.08,265.85,330,267.12l6.31-78.43S380.88,186.88,406,154.64Z" fill="#fff"/>
        </g>
        <path id="Trazado_127311" data-name="Trazado 127311" d="M404.45,174.5a46.14,46.14,0,0,0-8.13,25.19c-.05,2.59.1,5.26-.89,7.65s-3.55,4.39-6,3.71-3.77-3.8-6.05-5.24a6.75,6.75,0,0,0-6.85.15,11.53,11.53,0,0,0-4.5,5.47c-1.85,4.27-2,9.09-3.34,13.54s-4.72,8.94-9.38,9.14c-1.7.07-3.38-.44-5.08-.39-3.59.11-6.71,2.78-8.38,6s-2.18,6.83-2.66,10.39c0,0,27.22,2.6,57.77-33.48Z" fill="#41c1c5"/>
        <path id="Trazado_127312" data-name="Trazado 127312" d="M361.18,221.75c0,1-.48,1.75-1.07,1.75s-1.06-.78-1.06-1.75.47-1.75,1.06-1.75S361.18,220.79,361.18,221.75Z" fill="#41c1c5"/>
        <path id="Trazado_127313" data-name="Trazado 127313" d="M374,189.37c0,1-.48,1.75-1.07,1.75s-1.06-.79-1.06-1.75.47-1.75,1.06-1.75S374,188.4,374,189.37Z" fill="#41c1c5"/>
        <path id="Trazado_127314" data-name="Trazado 127314" d="M403.84,178.26a2.4,2.4,0,0,1-.17.44l-.58,1.27c-.54,1.13-1.29,2.73-2.24,4.75l-8.12,16.91-.11.23-.22-.14-19.25-12.18.38-.12c-.25.62-.53,1.29-.8,2L360.3,221.83l-.09.21-.19-.11c-4.8-2.7-8.72-4.87-11.44-6.35-1.37-.74-2.43-1.31-3.16-1.68l-.83-.4-.29-.13a23.22,23.22,0,0,1,4.38,2c2.76,1.42,6.7,3.54,11.53,6.2l-.28.1,12.32-30.49c.27-.67.55-1.34.8-2l.12-.29.26.17,19.22,12.24-.33.09c3.41-6.93,6.27-12.72,8.29-16.82L403,179.9l.64-1.23a2.769,2.769,0,0,1,.2-.41Z" fill="#41c1c5"/>
      </g>
    </g>
  </g>
</svg>
