<svg xmlns="http://www.w3.org/2000/svg" width="500" height="372.56" viewBox="0 0 500 372.56">
  <g id="Search_engines-rafiki" data-name="Search engines-rafiki" transform="translate(0 -55)">
    <g id="freepik--background-complete--inject-46">
      <rect id="Rectángulo_30427" data-name="Rectángulo 30427" width="500" height="0.25" transform="translate(0 382.4)" fill="#e0e0e0"/>
      <rect id="Rectángulo_30428" data-name="Rectángulo 30428" width="16.86" height="0.25" transform="translate(376.32 390)" fill="#e0e0e0"/>
      <rect id="Rectángulo_30429" data-name="Rectángulo 30429" width="44.56" height="0.25" transform="translate(404 389.88)" fill="#e0e0e0"/>
      <rect id="Rectángulo_30430" data-name="Rectángulo 30430" width="55.47" height="0.25" transform="translate(265.26 391.56)" fill="#e0e0e0"/>
      <rect id="Rectángulo_30431" data-name="Rectángulo 30431" width="20.72" height="0.25" transform="translate(238.78 391.56)" fill="#e0e0e0"/>
      <rect id="Rectángulo_30432" data-name="Rectángulo 30432" width="9.1" height="0.25" transform="translate(142.46 389.63)" fill="#e0e0e0"/>
      <rect id="Rectángulo_30433" data-name="Rectángulo 30433" width="15.04" height="0.25" transform="translate(157.11 389.63)" fill="#e0e0e0"/>
      <rect id="Rectángulo_30434" data-name="Rectángulo 30434" width="66.56" height="0.25" transform="translate(66.89 394.14)" fill="#e0e0e0"/>
      <path id="Trazado_127424" data-name="Trazado 127424" d="M237,337.8H43.91a5.71,5.71,0,0,1-5.7-5.71V60.66A5.71,5.71,0,0,1,43.91,55H237a5.71,5.71,0,0,1,5.71,5.71V332.09A5.71,5.71,0,0,1,237,337.8ZM43.91,55.2a5.46,5.46,0,0,0-5.45,5.46V332.09a5.46,5.46,0,0,0,5.45,5.46H237a5.47,5.47,0,0,0,5.46-5.46V60.66A5.47,5.47,0,0,0,237,55.2Z" fill="#e0e0e0"/>
      <path id="Trazado_127425" data-name="Trazado 127425" d="M453.31,337.8H260.21a5.72,5.72,0,0,1-5.71-5.71V60.66A5.72,5.72,0,0,1,260.21,55h193.1A5.71,5.71,0,0,1,459,60.66V332.09A5.71,5.71,0,0,1,453.31,337.8ZM260.21,55.2a5.47,5.47,0,0,0-5.46,5.46V332.09a5.47,5.47,0,0,0,5.46,5.46h193.1a5.47,5.47,0,0,0,5.46-5.46V60.66a5.47,5.47,0,0,0-5.46-5.46Z" fill="#e0e0e0"/>
      <rect id="Rectángulo_30435" data-name="Rectángulo 30435" width="47.36" height="121.86" transform="translate(270.43 260.54)" fill="#e0e0e0"/>
      <path id="Trazado_127426" data-name="Trazado 127426" d="M308.79,382.4h9V356.81H299.36Z" fill="#f0f0f0"/>
      <rect id="Rectángulo_30436" data-name="Rectángulo 30436" width="47.36" height="121.86" transform="translate(93.43 260.54)" fill="#e0e0e0"/>
      <rect id="Rectángulo_30437" data-name="Rectángulo 30437" width="184.84" height="106.16" transform="translate(132.94 260.54)" fill="#f0f0f0"/>
      <rect id="Rectángulo_30438" data-name="Rectángulo 30438" width="66.46" height="82.43" transform="translate(228.38 334.71) rotate(-90)" fill="#e0e0e0"/>
      <rect id="Rectángulo_30439" data-name="Rectángulo 30439" width="66.46" height="82.43" transform="translate(139.92 334.72) rotate(-90)" fill="#e0e0e0"/>
      <rect id="Rectángulo_30440" data-name="Rectángulo 30440" width="4.89" height="82.43" transform="translate(310.81 351.92) rotate(90)" fill="#e0e0e0"/>
      <rect id="Rectángulo_30441" data-name="Rectángulo 30441" width="4.89" height="82.43" transform="translate(222.35 351.92) rotate(90)" fill="#e0e0e0"/>
      <rect id="Rectángulo_30442" data-name="Rectángulo 30442" width="4.89" height="82.43" transform="translate(310.8 342.47) rotate(90)" fill="#e0e0e0"/>
      <rect id="Rectángulo_30443" data-name="Rectángulo 30443" width="4.89" height="82.43" transform="translate(222.34 342.48) rotate(90)" fill="#e0e0e0"/>
      <path id="Trazado_127427" data-name="Trazado 127427" d="M189.29,275.41H173a25.811,25.811,0,0,1-18.731-8.051H208A25.79,25.79,0,0,1,189.29,275.41Z" fill="#f0f0f0"/>
      <path id="Trazado_127428" data-name="Trazado 127428" d="M278.58,275.41h-16.3a25.79,25.79,0,0,1-18.73-8.05h53.76A25.79,25.79,0,0,1,278.58,275.41Z" fill="#f0f0f0"/>
      <path id="Trazado_127429" data-name="Trazado 127429" d="M141.94,382.4h-9V356.81h18.43Z" fill="#f0f0f0"/>
      <rect id="Rectángulo_30444" data-name="Rectángulo 30444" width="248.42" height="141.9" transform="translate(68.35 73.99)" fill="#e0e0e0"/>
      <path id="Trazado_127430" data-name="Trazado 127430" d="M330.51,69.61H60a1.27,1.27,0,0,0-1.27,1.27h0A1.27,1.27,0,0,0,60,72.16H330.51a1.27,1.27,0,0,0,1.27-1.28h0a1.27,1.27,0,0,0-1.27-1.27Z" fill="#e0e0e0"/>
      <rect id="Rectángulo_30445" data-name="Rectángulo 30445" width="251.32" height="141.9" transform="translate(70.89 73.99)" fill="#e6e6e6"/>
      <rect id="Rectángulo_30446" data-name="Rectángulo 30446" width="248.42" height="10.11" transform="translate(68.35 215.89)" fill="#e0e0e0"/>
      <rect id="Rectángulo_30447" data-name="Rectángulo 30447" width="251.32" height="10.11" transform="translate(79.95 215.89)" fill="#e6e6e6"/>
      <rect id="Rectángulo_30448" data-name="Rectángulo 30448" width="126.66" height="236.08" transform="translate(314.58 81.61) rotate(90)" fill="#f5f5f5"/>
      <path id="Trazado_127431" data-name="Trazado 127431" d="M195.34,208.27,240.05,81.61h21.1L216.44,208.27Z" fill="#fafafa"/>
      <path id="Trazado_127432" data-name="Trazado 127432" d="M220.98,208.27,265.69,81.61h8.22l-44.7,126.66Z" fill="#fafafa"/>
      <rect id="Rectángulo_30449" data-name="Rectángulo 30449" width="126.66" height="0.97" transform="translate(314.58 81.61) rotate(90)" fill="#e0e0e0"/>
      <rect id="Rectángulo_30450" data-name="Rectángulo 30450" width="13.11" height="122.22" transform="translate(65.48 67.33)" fill="#ebebeb"/>
      <rect id="Rectángulo_30451" data-name="Rectángulo 30451" width="10.21" height="122.22" transform="translate(73.49 67.33)" fill="#e0e0e0"/>
      <rect id="Rectángulo_30452" data-name="Rectángulo 30452" width="13.11" height="122.22" transform="translate(78.59 67.33)" fill="#ebebeb"/>
      <rect id="Rectángulo_30453" data-name="Rectángulo 30453" width="10.21" height="122.22" transform="translate(86.6 67.33)" fill="#e0e0e0"/>
      <rect id="Rectángulo_30454" data-name="Rectángulo 30454" width="13.11" height="122.22" transform="translate(91.7 67.33)" fill="#ebebeb"/>
      <rect id="Rectángulo_30455" data-name="Rectángulo 30455" width="7.55" height="122.22" transform="translate(302.15 67.33)" fill="#ebebeb"/>
      <rect id="Rectángulo_30456" data-name="Rectángulo 30456" width="5.89" height="122.22" transform="translate(306.77 67.33)" fill="#e0e0e0"/>
      <rect id="Rectángulo_30457" data-name="Rectángulo 30457" width="7.55" height="122.22" transform="translate(309.71 67.33)" fill="#ebebeb"/>
      <rect id="Rectángulo_30458" data-name="Rectángulo 30458" width="5.89" height="122.22" transform="translate(314.32 67.33)" fill="#e0e0e0"/>
      <rect id="Rectángulo_30459" data-name="Rectángulo 30459" width="7.55" height="122.22" transform="translate(317.26 67.33)" fill="#ebebeb"/>
      <rect id="Rectángulo_30460" data-name="Rectángulo 30460" width="16.76" height="45.73" transform="translate(376.77 120.35)" fill="#e6e6e6"/>
      <path id="Trazado_127433" data-name="Trazado 127433" d="M370.4,173.71l-3.88,10.57h3.88l23.73-10.57Z" fill="#f0f0f0"/>
      <path id="Trazado_127434" data-name="Trazado 127434" d="M366.52,173.71v10.57l23.74-10.57Z" fill="#e0e0e0"/>
      <path id="Trazado_127435" data-name="Trazado 127435" d="M410.99,173.71l-3.88,10.57h3.88l23.73-10.57Z" fill="#f0f0f0"/>
      <path id="Trazado_127436" data-name="Trazado 127436" d="M407.11,173.71v10.57l23.74-10.57Z" fill="#e0e0e0"/>
      <rect id="Rectángulo_30461" data-name="Rectángulo 30461" width="25.81" height="8.05" transform="translate(374.92 174.2) rotate(180)" fill="#e0e0e0"/>
      <rect id="Rectángulo_30462" data-name="Rectángulo 30462" width="73.65" height="8.05" transform="translate(374.91 166.15)" fill="#f0f0f0"/>
      <path id="Trazado_127437" data-name="Trazado 127437" d="M421.45,166.08H380.66l-5.05-55.41H416.4Z" fill="#e0e0e0"/>
      <path id="Trazado_127438" data-name="Trazado 127438" d="M423.56,166.08H382.77l-5.04-55.41h40.79Z" fill="#f0f0f0"/>
      <path id="Trazado_127439" data-name="Trazado 127439" d="M388.35,159.95l-3.93-43.15h28.52l3.93,43.15Z" fill="#fafafa"/>
      <path id="Trazado_127440" data-name="Trazado 127440" d="M157.41,242.75s-17.59-30.31,6.81-54.44c0,0,6.37,4.15,6.27,9.73s-6.82,7-5.37,11.64,7.79,9.23,3.62,13.08.67,7.27.39,12S157.41,242.75,157.41,242.75Z" fill="#e0e0e0"/>
      <path id="Trazado_127441" data-name="Trazado 127441" d="M158.74,245.52s7.13-34.31-23.63-49.52c0,0-4.73,5.95-2.88,11.21s8.67,4.49,8.77,9.36-4.48,11.21.68,13.55,1.66,7.12,3.42,11.5S158.74,245.52,158.74,245.52Z" fill="#e0e0e0"/>
      <path id="Trazado_127442" data-name="Trazado 127442" d="M131.8,237.92s.58,22.62,23,22.62,23-22.62,23-22.62Z" fill="#f0f0f0"/>
      <path id="Trazado_127443" data-name="Trazado 127443" d="M396.35,382.4h2.29l6.52-32.16,1.15-5.63,7.11-35h27.29L455.5,382.4h2.29l-15.07-74.18a1.12,1.12,0,0,0-1.1-.89H412.51a1.1,1.1,0,0,0-1.09.89L405.17,339,404,344.63Z" fill="#ebebeb"/>
      <path id="Trazado_127444" data-name="Trazado 127444" d="M352.54,382.4h2.29l14.79-72.83h27.29L404,344.63l1.14,5.61,6.53,32.16H414l-7.67-37.79L405.17,339l-6.25-30.78a1.12,1.12,0,0,0-1.1-.89H368.71a1.12,1.12,0,0,0-1.1.89Z" fill="#ebebeb"/>
      <path id="Trazado_127445" data-name="Trazado 127445" d="M419.81,308.45H369.67a17.59,17.59,0,0,1-17.58-17.23L350.22,215A12.81,12.81,0,0,1,363,202h31.43a12.811,12.811,0,0,1,12.73,11.362Z" fill="#e6e6e6"/>
      <path id="Trazado_127446" data-name="Trazado 127446" d="M392.46,298.84h49.07a6.87,6.87,0,0,1,6.87,6.87v.24a2.5,2.5,0,0,1-2.5,2.5H392.46Z" fill="#e6e6e6"/>
    </g>
    <g id="freepik--Shadow--inject-46">
      <ellipse id="Elipse_4290" data-name="Elipse 4290" cx="193.89" cy="11.32" rx="193.89" ry="11.32" transform="translate(56.11 404.92)" fill="#f5f5f5"/>
    </g>
    <g id="freepik--Graphics--inject-46">
      <path id="Trazado_127447" data-name="Trazado 127447" d="M186.55,128.28h0a33.709,33.709,0,0,0-.45-5.56,35,35,0,0,0-34.17-29.3h-.3a34.83,34.83,0,0,0-28.26,14.5c-.53.73-1,1.48-1.48,2.23a.859.859,0,0,0-.1.16,34.66,34.66,0,0,0-5,18v.07A34.88,34.88,0,0,0,180,148.63c.52-.73,1-1.47,1.47-2.23a.861.861,0,0,0,.1-.16A34.45,34.45,0,0,0,186.55,128.28Zm-68.27-.79a33,33,0,0,1,4.63-16.2h10.91a55.081,55.081,0,0,0-2.59,16.2Zm17.07-16.2h15.56v16.2H132.73a53.38,53.38,0,0,1,2.62-16.2Zm17.06-1.5V94.87a12.2,12.2,0,0,1,6,2.23c3.71,2.54,6.82,7,9,12.69Zm15.54,1.5a51.809,51.809,0,0,1,2.4,11.55c.15,1.56.22,3.11.24,4.65H152.41v-16.2Zm-19.24-16a10.57,10.57,0,0,1,2.2-.38v14.91h-15c2.8-7.54,7.34-13.02,12.8-14.56Zm2.2,33.73v16.2H135.38A51.249,51.249,0,0,1,133,133.64q-.21-2.34-.24-4.65Zm0,17.7v14.92a12.23,12.23,0,0,1-6-2.23c-3.7-2.54-6.81-7-9-12.69Zm3.7,14.53a10.449,10.449,0,0,1-2.2.38V146.69h15c-2.8,7.51-7.34,13-12.8,14.53Zm-2.2-16V129h18.18a53.08,53.08,0,0,1-2.62,16.2ZM172.09,129h13a33.12,33.12,0,0,1-4.63,16.2H169.5a55.08,55.08,0,0,0,2.59-16.2Zm13-1.5h-13c0-1.58-.1-3.18-.25-4.79a52.89,52.89,0,0,0-2.29-11.41h10.89a33.41,33.41,0,0,1,4.19,11.6,35.911,35.911,0,0,1,.42,4.59Zm-13.87-26.33a33.58,33.58,0,0,1,8.32,8.63H169c-2.24-6.19-5.61-11.09-9.74-13.93l-.32-.21a33.44,33.44,0,0,1,12.24,5.5Zm-26.87-5.49c-4.21,2.77-7.67,7.81-10,14.12h-10.5l.73-1.07a33.19,33.19,0,0,1,19.73-13.06Zm-26,33.32H131.3c0,1.58.1,3.18.25,4.79a53.5,53.5,0,0,0,2.29,11.41H122.89a33.21,33.21,0,0,1-4.19-11.6,32.5,32.5,0,0,1-.42-4.6Zm5.54,17.7h10.46c2.24,6.19,5.61,11.09,9.74,13.93l.33.21a33.62,33.62,0,0,1-20.53-14.14ZM159,160.81c4.2-2.76,7.66-7.81,10-14.12h10.48c-.24.36-.48.72-.73,1.07A33.15,33.15,0,0,1,159,160.81Z" fill="#8ec8c8"/>
      <path id="Trazado_127448" data-name="Trazado 127448" d="M186.55,128.28h0a33.709,33.709,0,0,0-.45-5.56,35,35,0,0,0-34.17-29.3h-.3a34.83,34.83,0,0,0-28.26,14.5c-.53.73-1,1.48-1.48,2.23a.859.859,0,0,0-.1.16,34.66,34.66,0,0,0-5,18v.07A34.88,34.88,0,0,0,180,148.63c.52-.73,1-1.47,1.47-2.23a.861.861,0,0,0,.1-.16A34.45,34.45,0,0,0,186.55,128.28Zm-68.27-.79a33,33,0,0,1,4.63-16.2h10.91a55.081,55.081,0,0,0-2.59,16.2Zm17.07-16.2h15.56v16.2H132.73a53.38,53.38,0,0,1,2.62-16.2Zm17.06-1.5V94.87a12.2,12.2,0,0,1,6,2.23c3.71,2.54,6.82,7,9,12.69Zm15.54,1.5a51.809,51.809,0,0,1,2.4,11.55c.15,1.56.22,3.11.24,4.65H152.41v-16.2Zm-19.24-16a10.57,10.57,0,0,1,2.2-.38v14.91h-15c2.8-7.54,7.34-13.02,12.8-14.56Zm2.2,33.73v16.2H135.38A51.249,51.249,0,0,1,133,133.64q-.21-2.34-.24-4.65Zm0,17.7v14.92a12.23,12.23,0,0,1-6-2.23c-3.7-2.54-6.81-7-9-12.69Zm3.7,14.53a10.449,10.449,0,0,1-2.2.38V146.69h15c-2.8,7.51-7.34,13-12.8,14.53Zm-2.2-16V129h18.18a53.08,53.08,0,0,1-2.62,16.2ZM172.09,129h13a33.12,33.12,0,0,1-4.63,16.2H169.5a55.08,55.08,0,0,0,2.59-16.2Zm13-1.5h-13c0-1.58-.1-3.18-.25-4.79a52.89,52.89,0,0,0-2.29-11.41h10.89a33.41,33.41,0,0,1,4.19,11.6,35.911,35.911,0,0,1,.42,4.59Zm-13.87-26.33a33.58,33.58,0,0,1,8.32,8.63H169c-2.24-6.19-5.61-11.09-9.74-13.93l-.32-.21a33.44,33.44,0,0,1,12.24,5.5Zm-26.87-5.49c-4.21,2.77-7.67,7.81-10,14.12h-10.5l.73-1.07a33.19,33.19,0,0,1,19.73-13.06Zm-26,33.32H131.3c0,1.58.1,3.18.25,4.79a53.5,53.5,0,0,0,2.29,11.41H122.89a33.21,33.21,0,0,1-4.19-11.6,32.5,32.5,0,0,1-.42-4.6Zm5.54,17.7h10.46c2.24,6.19,5.61,11.09,9.74,13.93l.33.21a33.62,33.62,0,0,1-20.53-14.14ZM159,160.81c4.2-2.76,7.66-7.81,10-14.12h10.48c-.24.36-.48.72-.73,1.07A33.15,33.15,0,0,1,159,160.81Z" fill="#fafafa" opacity="0.8"/>
      <rect id="Rectángulo_30463" data-name="Rectángulo 30463" width="314.4" height="76.18" transform="translate(99.89 144.9)" fill="#8ec8c8"/>
      <rect id="Rectángulo_30464" data-name="Rectángulo 30464" width="314.4" height="76.18" transform="translate(99.89 144.9)" fill="#fafafa" opacity="0.6"/>
      <rect id="Rectángulo_30465" data-name="Rectángulo 30465" width="314.4" height="76.18" transform="translate(92.8 151.99)" fill="#8ec8c8"/>
      <rect id="Rectángulo_30466" data-name="Rectángulo 30466" width="314.4" height="76.18" transform="translate(92.8 151.99)" opacity="0.3"/>
      <rect id="Rectángulo_30467" data-name="Rectángulo 30467" width="314.4" height="76.18" transform="translate(85.71 159.08)" fill="#8ec8c8"/>
      <rect id="Rectángulo_30468" data-name="Rectángulo 30468" width="314.4" height="76.18" transform="translate(85.71 159.08)" fill="#fafafa" opacity="0.1"/>
      <rect id="Rectángulo_30469" data-name="Rectángulo 30469" width="46.18" height="284.4" transform="translate(385.11 174.08) rotate(90)" fill="#8ec8c8"/>
      <rect id="Rectángulo_30470" data-name="Rectángulo 30470" width="46.18" height="284.4" transform="translate(385.11 174.08) rotate(90)" fill="#fafafa" opacity="0.9"/>
      <rect id="Rectángulo_30471" data-name="Rectángulo 30471" width="46.18" height="1.67" transform="translate(337.27 220.26) rotate(-90)" fill="#8ec8c8"/>
      <rect id="Rectángulo_30472" data-name="Rectángulo 30472" width="46.18" height="1.67" transform="translate(337.27 220.26) rotate(-90)" fill="#fafafa" opacity="0.6"/>
      <rect id="Rectángulo_30473" data-name="Rectángulo 30473" width="33.44" height="1.67" transform="translate(107.8 213.89) rotate(-90)" fill="#8ec8c8"/>
      <rect id="Rectángulo_30474" data-name="Rectángulo 30474" width="33.44" height="1.67" transform="translate(107.8 213.89) rotate(-90)" fill="#fafafa" opacity="0.6"/>
      <path id="Trazado_127449" data-name="Trazado 127449" d="M360.43,203a7.38,7.38,0,1,1,5.22-12.6h0a7.38,7.38,0,0,1-5.22,12.6Zm0-12.75a5.38,5.38,0,1,0,3.8,1.57h0a5.33,5.33,0,0,0-3.8-1.62Z" fill="#8ec8c8"/>
      <path id="Trazado_127450" data-name="Trazado 127450" d="M370,206.14a1,1,0,0,1-.71-.3l-5.05-5.05a1,1,0,1,1,1.41-1.41l5.05,5.05a1.005,1.005,0,0,1-.7,1.71Z" fill="#8ec8c8"/>
      <g id="Grupo_55638" data-name="Grupo 55638" opacity="0.6">
        <path id="Trazado_127451" data-name="Trazado 127451" d="M360.43,203a7.38,7.38,0,1,1,5.22-12.6h0a7.38,7.38,0,0,1-5.22,12.6Zm0-12.75a5.38,5.38,0,1,0,3.8,1.57h0a5.33,5.33,0,0,0-3.8-1.62Z" fill="#fafafa"/>
        <path id="Trazado_127452" data-name="Trazado 127452" d="M370,206.14a1,1,0,0,1-.71-.3l-5.05-5.05a1,1,0,1,1,1.41-1.41l5.05,5.05a1.005,1.005,0,0,1-.7,1.71Z" fill="#fafafa"/>
      </g>
      <rect id="Rectángulo_30475" data-name="Rectángulo 30475" width="31.44" height="0.78" transform="translate(261.15 98.85)" fill="#8ec8c8"/>
      <rect id="Rectángulo_30476" data-name="Rectángulo 30476" width="31.44" height="0.78" transform="translate(261.15 102.16)" fill="#8ec8c8"/>
      <rect id="Rectángulo_30477" data-name="Rectángulo 30477" width="31.44" height="0.78" transform="translate(261.15 105.48)" fill="#8ec8c8"/>
      <rect id="Rectángulo_30478" data-name="Rectángulo 30478" width="31.44" height="0.78" transform="translate(261.15 108.79)" fill="#8ec8c8"/>
      <rect id="Rectángulo_30479" data-name="Rectángulo 30479" width="31.44" height="0.78" transform="translate(261.15 112.1)" fill="#8ec8c8"/>
      <rect id="Rectángulo_30480" data-name="Rectángulo 30480" width="20.5" height="0.78" transform="translate(261.15 115.42)" fill="#8ec8c8"/>
      <g id="Grupo_55639" data-name="Grupo 55639" opacity="0.5">
        <rect id="Rectángulo_30481" data-name="Rectángulo 30481" width="31.44" height="0.78" transform="translate(261.15 98.85)" fill="#fafafa"/>
        <rect id="Rectángulo_30482" data-name="Rectángulo 30482" width="31.44" height="0.78" transform="translate(261.15 102.16)" fill="#fafafa"/>
        <rect id="Rectángulo_30483" data-name="Rectángulo 30483" width="31.44" height="0.78" transform="translate(261.15 105.48)" fill="#fafafa"/>
        <rect id="Rectángulo_30484" data-name="Rectángulo 30484" width="31.44" height="0.78" transform="translate(261.15 108.79)" fill="#fafafa"/>
        <rect id="Rectángulo_30485" data-name="Rectángulo 30485" width="31.44" height="0.78" transform="translate(261.15 112.1)" fill="#fafafa"/>
        <rect id="Rectángulo_30486" data-name="Rectángulo 30486" width="20.5" height="0.78" transform="translate(261.15 115.42)" fill="#fafafa"/>
      </g>
      <rect id="Rectángulo_30487" data-name="Rectángulo 30487" width="33.5" height="0.5" transform="translate(69.85 241.84)" fill="#8ec8c8"/>
      <rect id="Rectángulo_30488" data-name="Rectángulo 30488" width="33.5" height="0.5" transform="translate(69.85 243.96)" fill="#8ec8c8"/>
      <rect id="Rectángulo_30489" data-name="Rectángulo 30489" width="33.5" height="0.5" transform="translate(69.85 246.08)" fill="#8ec8c8"/>
      <rect id="Rectángulo_30490" data-name="Rectángulo 30490" width="33.5" height="0.5" transform="translate(69.85 248.2)" fill="#8ec8c8"/>
      <rect id="Rectángulo_30491" data-name="Rectángulo 30491" width="33.5" height="0.5" transform="translate(69.85 250.32)" fill="#8ec8c8"/>
      <rect id="Rectángulo_30492" data-name="Rectángulo 30492" width="21.06" height="0.5" transform="translate(69.85 252.45)" fill="#8ec8c8"/>
      <g id="Grupo_55640" data-name="Grupo 55640" opacity="0.4">
        <rect id="Rectángulo_30493" data-name="Rectángulo 30493" width="33.5" height="0.5" transform="translate(69.85 241.84)" fill="#fafafa"/>
        <rect id="Rectángulo_30494" data-name="Rectángulo 30494" width="33.5" height="0.5" transform="translate(69.85 243.96)" fill="#fafafa"/>
        <rect id="Rectángulo_30495" data-name="Rectángulo 30495" width="33.5" height="0.5" transform="translate(69.85 246.08)" fill="#fafafa"/>
        <rect id="Rectángulo_30496" data-name="Rectángulo 30496" width="33.5" height="0.5" transform="translate(69.85 248.2)" fill="#fafafa"/>
        <rect id="Rectángulo_30497" data-name="Rectángulo 30497" width="33.5" height="0.5" transform="translate(69.85 250.32)" fill="#fafafa"/>
        <rect id="Rectángulo_30498" data-name="Rectángulo 30498" width="21.06" height="0.5" transform="translate(69.85 252.45)" fill="#fafafa"/>
      </g>
      <path id="Trazado_127453" data-name="Trazado 127453" d="M213.45,103.76h0a6.32,6.32,0,0,0-6.32,6.32v20.85a6.32,6.32,0,0,0,6.32,6.32h0a6.32,6.32,0,0,0,6.32-6.32V110.08a6.32,6.32,0,0,0-6.32-6.32Z" fill="#f5ca56"/>
      <path id="Trazado_127455" data-name="Trazado 127455" d="M229.29,91.33h0A6.32,6.32,0,0,0,223,97.65v33.28a6.32,6.32,0,0,0,6.32,6.32h0a6.32,6.32,0,0,0,6.32-6.32V97.65a6.32,6.32,0,0,0-6.35-6.32Z" fill="#b89841"/>
      <path id="Trazado_127457" data-name="Trazado 127457" d="M245.12,116.19h0a6.32,6.32,0,0,0-6.32,6.32v8.42a6.32,6.32,0,0,0,6.32,6.32h0a6.32,6.32,0,0,0,6.33-6.32v-8.42a6.32,6.32,0,0,0-6.33-6.32Z" fill="#8ec8c8"/>
      <path id="Trazado_127458" data-name="Trazado 127458" d="M245.12,116.19h0a6.32,6.32,0,0,0-6.32,6.32v8.42a6.32,6.32,0,0,0,6.32,6.32h0a6.32,6.32,0,0,0,6.33-6.32v-8.42a6.32,6.32,0,0,0-6.33-6.32Z" fill="#fafafa" opacity="0.6"/>
      <path id="Trazado_127459" data-name="Trazado 127459" d="M378.61,259.13h25.55l-43.62-45.24h0l18.07,45.24" fill="#7d6eb2"/>
      <path id="Trazado_127461" data-name="Trazado 127461" d="M354.05,235.25l6.49-21.36,3.68,21.36Z" fill="#8ec8c8"/>
      <path id="Trazado_127462" data-name="Trazado 127462" d="M360.54,213.89v63.3l4.52-4.51,13.55-13.55Z" fill="#b1a8d1"/>
      <path id="Trazado_127464" data-name="Trazado 127464" d="M405.72,78.11h-56A10.76,10.76,0,0,0,339,88.82v28.92a10.76,10.76,0,0,0,10.71,10.71H390.8l-.3,10.11,10.37-10.11h4.83a10.76,10.76,0,0,0,10.72-10.71V88.82a10.76,10.76,0,0,0-10.7-10.71ZM348.46,90.43a3,3,0,0,1,3-3h12.89a3,3,0,0,1,0,6h-12.9a3,3,0,0,1-2.99-3Zm54.08,28H380.26a3,3,0,1,1,0-5.91h22.28a3,3,0,1,1,0,5.91Zm0-12.51H354.45a3,3,0,1,1,0-5.91h48.09a3,3,0,1,1,0,5.91Zm0-12.51H374.07a3,3,0,0,1,0-6h28.47a3,3,0,1,1,0,6Z" fill="#26aab7"/>
    </g>
    <g id="freepik--Character--inject-46">
      <path id="Trazado_127465" data-name="Trazado 127465" d="M318.14,169.78A53.7,53.7,0,0,0,307.39,152H227.88a53.7,53.7,0,0,0-10.75,17.78l11,54.76a53.73,53.73,0,0,0,90-54.76Z" fill="#8ec8c8"/>
      <path id="Trazado_127466" data-name="Trazado 127466" d="M318.14,169.78A53.7,53.7,0,0,0,307.39,152H227.88a53.7,53.7,0,0,0-10.75,17.78l11,54.76a53.73,53.73,0,0,0,90-54.76Z" fill="#fafafa" opacity="0.1"/>
      <path id="Trazado_127467" data-name="Trazado 127467" d="M321.31,190.61a53.55,53.55,0,0,1-14.16,33.93h-79a53.81,53.81,0,0,1-11-54.76h101a53.42,53.42,0,0,1,3.16,20.83Z" fill="#8ec8c8"/>
      <path id="Trazado_127468" data-name="Trazado 127468" d="M321.31,190.61a53.55,53.55,0,0,1-14.16,33.93h-79a53.81,53.81,0,0,1-11-54.76h101a53.42,53.42,0,0,1,3.16,20.83Z" fill="#fafafa" opacity="0.9"/>
      <path id="Trazado_127469" data-name="Trazado 127469" d="M321.31,190.61a53.61,53.61,0,1,1-3.17-20.83,53.61,53.61,0,0,1,3.17,20.83Z" fill="#fff" opacity="0.3"/>
      <path id="Trazado_127470" data-name="Trazado 127470" d="M297.92,143.76l-77.26,70.46q-.58-1.07-1.14-2.16a53,53,0,0,1-4.87-15h0l66.73-60.86a53.42,53.42,0,0,1,16.54,7.56Z" fill="#fff" opacity="0.4"/>
      <path id="Trazado_127471" data-name="Trazado 127471" d="M318.59,171.07,246,237.31a53.68,53.68,0,0,1-19.48-14.64l79.32-72.34a53.75,53.75,0,0,1,12.75,20.74Z" fill="#fff" opacity="0.4"/>
      <path id="Trazado_127472" data-name="Trazado 127472" d="M321.29,157.15a62,62,0,1,0-22.66,84.64,62,62,0,0,0,22.66-84.64Zm-96,55.44a133.6,133.6,0,1,0,.01,0Z" fill="#26aab7"/>
      <path id="Trazado_127474" data-name="Trazado 127474" d="M125.06,251.89l7.66,1.78-6.35,4.74s-4.55-2.06-4.76-5.29Z" fill="#e4897b"/>
      <path id="Trazado_127475" data-name="Trazado 127475" d="M136.82,258.77l-5.52,3.68-4.93-4.04,6.35-4.73Z" fill="#e4897b"/>
      <path id="Trazado_127476" data-name="Trazado 127476" d="M223.47,220.78c-8.14,6-16.49,11.7-24.88,17.27s-16.89,11-25.43,16.33S156,264.93,147.35,270c-4.32,2.58-8.68,5.08-13,7.62a25.32,25.32,0,0,1-6.94,3.07,21.749,21.749,0,0,1-4,.67,17,17,0,0,1-4.49-.23,8.2,8.2,0,0,1-6.45-9.65,7,7,0,0,1,.28-1,16.56,16.56,0,0,1,2-4,21.219,21.219,0,0,1,2.56-3.1,25.52,25.52,0,0,1,6.13-4.48c4.37-2.49,8.71-5,13.11-7.47,8.76-4.95,17.6-9.77,26.46-14.53s17.83-9.37,26.85-13.87,18.11-8.88,27.39-12.92a6.21,6.21,0,0,1,6.18,10.69Z" fill="#26aab7"/>
      <path id="Trazado_127478" data-name="Trazado 127478" d="M136.16,204.52c-.5.81-1.07,1.79-1.61,2.71s-1.07,1.88-1.57,2.85q-1.5,2.865-3,5.82c-1,1.97-1.81,4-2.63,6-.4,1-.82,2-1.19,3l-.56,1.53c-.11.29-.13.41-.2.62s-.1.41-.16.61a31.129,31.129,0,0,0-.59,6c-.05,2.15,0,4.34.12,6.55s.24,4.43.44,6.65.4,4.48.61,6.68l-3.86.79c-.68-2.23-1.21-4.45-1.74-6.7s-.93-4.51-1.32-6.81-.65-4.61-.82-7a34.78,34.78,0,0,1,.19-7.51,9.826,9.826,0,0,1,.2-1c.09-.32.18-.77.26-1l.49-1.7c.32-1.13.69-2.25,1.07-3.36.77-2.23,1.61-4.42,2.55-6.58s1.94-4.27,3-6.35c.55-1,1.13-2.07,1.72-3.1s1.18-2,1.92-3.09Z" fill="#e4897b"/>
      <path id="Trazado_127479" data-name="Trazado 127479" d="M131.89,411a9.4,9.4,0,0,1-2-.28.17.17,0,0,1-.14-.14.19.19,0,0,1,.08-.19c.27-.18,2.63-1.7,3.54-1.29a.62.62,0,0,1,.36.52,1,1,0,0,1-.3,1,2.26,2.26,0,0,1-1.54.38Zm-1.53-.54c1.36.27,2.38.22,2.77-.14a.68.68,0,0,0,.19-.65.27.27,0,0,0-.16-.24C132.69,409.22,131.32,409.88,130.36,410.46Z" fill="#8ec8c8"/>
      <path id="Trazado_127480" data-name="Trazado 127480" d="M129.88,410.73a.16.16,0,0,1-.09,0,.17.17,0,0,1-.09-.16c0-.09,0-2.33.85-3.08a1,1,0,0,1,.78-.25.64.64,0,0,1,.62.52c.18.87-1.24,2.55-2,3a.16.16,0,0,1-.07-.03Zm1.33-3.16a.62.62,0,0,0-.41.16,4.18,4.18,0,0,0-.72,2.46c.74-.6,1.62-1.86,1.51-2.39,0-.09-.07-.19-.3-.22Z" fill="#8ec8c8"/>
      <path id="Trazado_127481" data-name="Trazado 127481" d="M167.31,411a12.519,12.519,0,0,1-2.45-.28.17.17,0,0,1-.15-.15.19.19,0,0,1,.1-.19c.35-.18,3.45-1.76,4.4-1.24a.59.59,0,0,1,.32.49,1,1,0,0,1-.34.89,2.9,2.9,0,0,1-1.88.48Zm-1.84-.54c1.73.29,3,.21,3.48-.21a.68.68,0,0,0,.21-.59.23.23,0,0,0-.12-.2C168.52,409.18,166.74,409.85,165.47,410.46Z" fill="#8ec8c8"/>
      <path id="Trazado_127482" data-name="Trazado 127482" d="M164.89,410.73a.13.13,0,0,1-.1,0,.15.15,0,0,1-.08-.16c0-.09.19-2.19,1.16-3a1.39,1.39,0,0,1,1-.32c.51.05.65.31.69.52.14.88-1.69,2.56-2.62,3Zm1.86-3.16a1,1,0,0,0-.64.24,4.29,4.29,0,0,0-1,2.4c.94-.57,2.19-1.89,2.1-2.42,0,0,0-.18-.36-.21Z" fill="#8ec8c8"/>
      <path id="Trazado_127483" data-name="Trazado 127483" d="M148,174.49c.61,4.67,2,14.14-1.38,17,0,0,1,4.76,9.52,5.31,9.42.61,4.8-4.38,4.8-4.38-5.06-1.56-4.68-5.37-3.55-8.89Z" fill="#e4897b"/>
      <path id="Trazado_127484" data-name="Trazado 127484" d="M165.47,165a.34.34,0,0,1-.17-.05.36.36,0,0,1-.15-.5,3.65,3.65,0,0,1,2.73-2,.37.37,0,0,1,.07.73h0a3,3,0,0,0-2.15,1.58.4.4,0,0,1-.33.24Z" fill="#263238"/>
      <path id="Trazado_127485" data-name="Trazado 127485" d="M168.16,169.1a16.73,16.73,0,0,0,2.6,3.78,2.7,2.7,0,0,1-2.19.63Z" fill="#de5753"/>
      <path id="Trazado_127486" data-name="Trazado 127486" d="M167.5,168.08c.06.63.44,1.1.84,1.06s.7-.57.64-1.2-.44-1.1-.85-1.06S167.44,167.46,167.5,168.08Z" fill="#263238"/>
      <path id="Trazado_127487" data-name="Trazado 127487" d="M168,166.93l1.46-.57S168.76,167.6,168,166.93Z" fill="#263238"/>
      <path id="Trazado_127488" data-name="Trazado 127488" d="M156.33,410.54h7.79l.52-18.02h-7.79Z" fill="#e4897b"/>
      <path id="Trazado_127489" data-name="Trazado 127489" d="M120.96,410.54h7.79l2.5-18.02h-7.78Z" fill="#e4897b"/>
      <path id="Trazado_127490" data-name="Trazado 127490" d="M129.23,409.64h-8.75a.62.62,0,0,0-.62.53l-1,6.92a1.25,1.25,0,0,0,1.24,1.39c3-.05,4.52-.23,8.37-.23,2.36,0,5.82.24,9.09.24s3.44-3.23,2.08-3.52c-6.1-1.31-7.06-3.12-9.12-4.85A2,2,0,0,0,129.23,409.64Z" fill="#263238"/>
      <path id="Trazado_127491" data-name="Trazado 127491" d="M164.38,409.64h-8.74a.61.61,0,0,0-.62.53l-1,6.92a1.26,1.26,0,0,0,1.25,1.39c3-.05,4.52-.23,8.36-.23,2.37,0,7.26.24,10.53.24s3.44-3.23,2.08-3.52c-6.1-1.31-8.5-3.12-10.56-4.85A2,2,0,0,0,164.38,409.64Z" fill="#263238"/>
      <path id="Trazado_127492" data-name="Trazado 127492" d="M164.63,392.52l-.26,9.29h-7.79l.27-9.29Z" fill="#ce6f64"/>
      <path id="Trazado_127493" data-name="Trazado 127493" d="M123.46,392.52h7.79l-1.29,9.29h-7.79Z" fill="#ce6f64"/>
      <path id="Trazado_127494" data-name="Trazado 127494" d="M139.48,205.72a39.94,39.94,0,0,1-5.11,6.42l-.89-.59L123.62,205s5.38-12,9.43-12.61c3.87-.62,6.69,3.38,8,7.66C141.55,201.6,140.72,203.7,139.48,205.72Z" fill="#c1507f"/>
      <path id="Trazado_127496" data-name="Trazado 127496" d="M139.48,205.72a39.94,39.94,0,0,1-5.11,6.42l-.89-.59c.44-3.6,1.84-7.17,3.44-8.3C137.9,203.35,138.77,204.39,139.48,205.72Z" fill="#8ec8c8"/>
      <path id="Trazado_127497" data-name="Trazado 127497" d="M139.48,205.72a39.94,39.94,0,0,1-5.11,6.42l-.89-.59c.44-3.6,1.84-7.17,3.44-8.3C137.9,203.35,138.77,204.39,139.48,205.72Z" fill="#fafafa" opacity="0.4"/>
      <path id="Trazado_127498" data-name="Trazado 127498" d="M173.21,211.71h0c-.47,3-1.08,6.53-1.9,10.72-1,5.36-2.4,11.79-4.17,19.48l-31.55-2c1.36-12.81,1.89-20.73-2.54-47.48a92.82,92.82,0,0,1,13.52-.89,100.559,100.559,0,0,1,14.32.93c6.12,1,13,2.84,13,2.84S175.65,196,173.21,211.71Z" fill="#c1507f"/>
      <path id="Trazado_127500" data-name="Trazado 127500" d="M173.21,211.71h0c-.47,3-1.08,6.53-1.9,10.72A77.478,77.478,0,0,1,167,211h5.86Z" fill="#8ec8c8"/>
      <path id="Trazado_127501" data-name="Trazado 127501" d="M173.21,211.71h0c-.47,3-1.08,6.53-1.9,10.72A77.478,77.478,0,0,1,167,211h5.86Z" fill="#fafafa" opacity="0.4"/>
      <path id="Trazado_127502" data-name="Trazado 127502" d="M146.28,167.92c1.19,7.63,1.54,10.89,5.79,14.46,6.39,5.38,15.5,2.24,16.61-5.6,1-7.05-1.12-18.35-8.93-20.69a10.53,10.53,0,0,0-13.47,11.83Z" fill="#e4897b"/>
      <path id="Trazado_127503" data-name="Trazado 127503" d="M158.8,241.37s-.5,13.89-1.7,31.41c-1,14.7-2.51,31.94-4.62,45.68l-.06.38C148.63,343.16,131.84,400,131.84,400H121.22s8.75-54.9,10.67-79c4.87-60.87-7.33-67.76,3.7-81.18Z" fill="#8ec8c8"/>
      <path id="Trazado_127504" data-name="Trazado 127504" d="M158.8,241.37s-.5,13.89-1.7,31.41c-1,14.7-2.51,31.94-4.62,45.68l-.06.38C148.63,343.16,131.84,400,131.84,400H121.22s8.75-54.9,10.67-79c4.87-60.87-7.33-67.76,3.7-81.18Z" opacity="0.3"/>
      <path id="Trazado_127505" data-name="Trazado 127505" d="M157.1,272.78c-1,14.7-2.51,31.94-4.62,45.68-3.59-17.85-9.49-43.92-1.57-61C152.8,262.31,155,267.79,157.1,272.78Z" fill="#8ec8c8"/>
      <path id="Trazado_127506" data-name="Trazado 127506" d="M157.1,272.78c-1,14.7-2.51,31.94-4.62,45.68-3.59-17.85-9.49-43.92-1.57-61C152.8,262.31,155,267.79,157.1,272.78Z" opacity="0.4"/>
      <path id="Trazado_127507" data-name="Trazado 127507" d="M167.14,241.92s9,53.34,8.46,77.08c-.53,24.7-9.58,81-9.58,81H155.5s1.66-54.87.73-79.12c-1-26.44-12.2-80.47-12.2-80.47Z" fill="#8ec8c8"/>
      <path id="Trazado_127508" data-name="Trazado 127508" d="M167.14,241.92s9,53.34,8.46,77.08c-.53,24.7-9.58,81-9.58,81H155.5s1.66-54.87.73-79.12c-1-26.44-12.2-80.47-12.2-80.47Z" opacity="0.3"/>
      <path id="Trazado_127509" data-name="Trazado 127509" d="M153.7,400.5h14.11l1.1-4.73-15.71.11Z" fill="#263238"/>
      <path id="Trazado_127510" data-name="Trazado 127510" d="M119.68,400.5h14.11l1.1-4.73-15.11.11Z" fill="#263238"/>
      <path id="Trazado_127511" data-name="Trazado 127511" d="M135.23,238l-1.6,2.74c-.13.21.12.45.48.47l33.09,2.15c.28,0,.53-.1.56-.28l.47-2.81c0-.19-.21-.37-.52-.39l-32-2.08A.61.61,0,0,0,135.23,238Z" fill="#263238"/>
      <path id="Trazado_127512" data-name="Trazado 127512" d="M139.29,241.84l-.85-.06c-.17,0-.3-.11-.28-.21l.64-3.65c0-.1.17-.18.34-.17l.86.05c.17,0,.29.11.28.22l-.64,3.64C139.62,241.77,139.46,241.85,139.29,241.84Z" fill="#8ec8c8"/>
      <path id="Trazado_127513" data-name="Trazado 127513" d="M139.29,241.84l-.85-.06c-.17,0-.3-.11-.28-.21l.64-3.65c0-.1.17-.18.34-.17l.86.05c.17,0,.29.11.28.22l-.64,3.64C139.62,241.77,139.46,241.85,139.29,241.84Z" opacity="0.3"/>
      <path id="Trazado_127514" data-name="Trazado 127514" d="M160,243.18l-.85-.05c-.17,0-.3-.11-.28-.22l.64-3.64c0-.11.17-.18.35-.17l.85.05c.17,0,.3.11.28.22l-.64,3.64C160.36,243.12,160.2,243.19,160,243.18Z" fill="#8ec8c8"/>
      <path id="Trazado_127515" data-name="Trazado 127515" d="M160,243.18l-.85-.05c-.17,0-.3-.11-.28-.22l.64-3.64c0-.11.17-.18.35-.17l.85.05c.17,0,.3.11.28.22l-.64,3.64C160.36,243.12,160.2,243.19,160,243.18Z" opacity="0.3"/>
      <path id="Trazado_127516" data-name="Trazado 127516" d="M175.68,203.31c1.2,4,2.34,8.05,3.45,12.09l3.35,12.09.42,1.5.11.37.05.19v.1a3.561,3.561,0,0,0,.13.39,6.41,6.41,0,0,0,1,1.68,16.69,16.69,0,0,0,4.1,3.16,52.87,52.87,0,0,0,11,4.44l-.58,3.9a41.59,41.59,0,0,1-13.08-2.83,20.73,20.73,0,0,1-6.29-3.88,12.46,12.46,0,0,1-2.6-3.42,9.358,9.358,0,0,1-.47-1.07l-.11-.27-.07-.19-.13-.37-.53-1.51c-1.4-4-2.7-8-3.93-12.06s-2.44-8.06-3.54-12.14Z" fill="#e4897b"/>
      <path id="Trazado_127517" data-name="Trazado 127517" d="M173.89,195.27c4,1.31,8.2,14.39,8.2,14.39l-14.44,6.22s-6-14.68-3.34-18S169.3,193.77,173.89,195.27Z" fill="#c1507f"/>
      <path id="Trazado_127519" data-name="Trazado 127519" d="M166.17,155.65c-2.55-3.15-22.25-5.4-23.3,3.18-7,4.9-.36,17.56.64,20.78-4.83,1.34-20.39,6.66-9,17s28.47,8.58,31.81-2.12c2.34-7.48-5.09-20-4.93-24.38S170.54,161,166.17,155.65Z" fill="#263238"/>
      <path id="Trazado_127520" data-name="Trazado 127520" d="M144.89,181.19a.23.23,0,0,1-.19-.09c-1.81-2.2-8.11-13.76-5.9-19.26a4.79,4.79,0,0,1,4.23-3,.24.24,0,0,1,.27.22.25.25,0,0,1-.21.28,4.32,4.32,0,0,0-3.83,2.66c-2.13,5.32,4.05,16.61,5.82,18.77a.24.24,0,0,1-.19.4Z" fill="#263238"/>
      <path id="Trazado_127521" data-name="Trazado 127521" d="M159.83,169.64a6.64,6.64,0,0,0,2,3.82c1.42,1.36,2.76.43,2.89-1.3.12-1.55-.48-4.12-2.16-4.84S159.62,167.91,159.83,169.64Z" fill="#e4897b"/>
      <path id="Trazado_127522" data-name="Trazado 127522" d="M194.39,238.24l5.68-1.93-.89,6.83s-2.24,1-5.14-1.52l-2.77-1.77,2.18-1.19A5.279,5.279,0,0,1,194.39,238.24Z" fill="#e4897b"/>
      <path id="Trazado_127523" data-name="Trazado 127523" d="M204.04,236.29l-1.74,5.97-3.12.87.89-6.82Z" fill="#e4897b"/>
    </g>
  </g>
</svg>
