<svg xmlns="http://www.w3.org/2000/svg" xmlns:xlink="http://www.w3.org/1999/xlink" width="123.833" height="124.003" viewBox="0 0 123.833 124.003">
  <defs>
    <radialGradient id="radial-gradient" cx="0.076" cy="0.019" r="1.465" gradientTransform="translate(0.001)" gradientUnits="objectBoundingBox">
      <stop offset="0" stop-color="#f6f6f7"/>
      <stop offset="0.477" stop-color="#f9f9fa"/>
      <stop offset="0.715" stop-color="#fff"/>
    </radialGradient>
  </defs>
  <g id="Grupo_42274" data-name="Grupo 42274" transform="translate(0 0)">
    <g id="Grupo_18423" data-name="Grupo 18423" transform="translate(0 0)">
      <g id="Grupo_18421" data-name="Grupo 18421">
        <g id="Grupo_18420" data-name="Grupo 18420">
          <g id="Grupo_18419" data-name="Grupo 18419">
            <path id="Trazado_40936" data-name="Trazado 40936" d="M318.456,2207.635a61.916,61.916,0,1,1-61.915-61.915A61.915,61.915,0,0,1,318.456,2207.635Z" transform="translate(-194.623 -2145.721)" fill="#fff"/>
          </g>
        </g>
      </g>
      <path id="Trazado_40937" data-name="Trazado 40937" d="M317.728,2206.843a61.915,61.915,0,1,0-61.915,61.918A61.672,61.672,0,0,0,317.728,2206.843Z" transform="translate(-194.128 -2144.758)" fill="url(#radial-gradient)"/>
      <path id="Trazado_40938" data-name="Trazado 40938" d="M296.6,2200.4a47.26,47.26,0,1,0-47.26,47.26A47.084,47.084,0,0,0,296.6,2200.4Z" transform="translate(-187.439 -2138.06)" fill="none" stroke="#26aab7" stroke-miterlimit="10" stroke-width="4"/>
      <g id="Grupo_18422" data-name="Grupo 18422" transform="translate(10.969 34.762)">
        <path id="Trazado_40939" data-name="Trazado 40939" d="M307.148,2164.488a61.924,61.924,0,0,1-106.6,61.66,61.727,61.727,0,0,0,106.6-61.66Z" transform="translate(-200.545 -2164.488)" fill="#eceef0"/>
      </g>
      <g id="Grupo_55587" data-name="Grupo 55587" transform="translate(4667.843 7318.383)">
        <g id="Grupo_55581" data-name="Grupo 55581" transform="translate(-4635.44 -7280.435)">
          <path id="Trazado_127325" data-name="Trazado 127325" d="M68.695,9.644v4.218L13.86,59.206H9.642A2.115,2.115,0,0,1,7.533,57.1V9.644A2.115,2.115,0,0,1,9.642,7.535H66.586A2.115,2.115,0,0,1,68.695,9.644Z" transform="translate(-7.533 -7.535)" fill="#b89841"/>
          <path id="Trazado_127326" data-name="Trazado 127326" d="M65.531,9.644v4.218h-58V9.644A2.115,2.115,0,0,1,9.642,7.535h53.78A2.115,2.115,0,0,1,65.531,9.644Z" transform="translate(-7.533 -7.535)" fill="#f5ca56"/>
          <path id="Trazado_127327" data-name="Trazado 127327" d="M113.568,58.735V101.97a2.115,2.115,0,0,1-2.109,2.109H58.733V58.735Z" transform="translate(-52.406 -52.408)" fill="#d1d4d1"/>
          <path id="Trazado_127328" data-name="Trazado 127328" d="M110.4,58.735V101.97a2.057,2.057,0,0,1-1.988,2.109H58.733V58.735Z" transform="translate(-52.406 -52.408)" fill="#f4f4f4"/>
          <path id="Trazado_127329" data-name="Trazado 127329" d="M13.86,7.535v6.327H7.533V9.644A2.115,2.115,0,0,1,9.642,7.535Z" transform="translate(-7.533 -7.535)" fill="#b89841"/>
          <g id="Grupo_55579" data-name="Grupo 55579" transform="translate(10.545 10.545)">
            <path id="Trazado_127330" data-name="Trazado 127330" d="M93.921,92.868h10.545a1.054,1.054,0,0,1,1.054,1.054V98.14a1.055,1.055,0,0,1-1.054,1.054H93.921a1.054,1.054,0,0,1-1.054-1.054V93.922A1.054,1.054,0,0,1,93.921,92.868Z" transform="translate(-92.867 -92.868)" fill="#424242"/>
            <path id="Trazado_127331" data-name="Trazado 127331" d="M230.454,92.868H241a1.054,1.054,0,0,1,1.054,1.054V98.14A1.054,1.054,0,0,1,241,99.195H230.454A1.054,1.054,0,0,1,229.4,98.14V93.922A1.055,1.055,0,0,1,230.454,92.868Z" transform="translate(-212.528 -92.868)" fill="#424242"/>
            <path id="Trazado_127332" data-name="Trazado 127332" d="M366.988,92.868h10.545a1.054,1.054,0,0,1,1.055,1.054V98.14a1.054,1.054,0,0,1-1.055,1.054H366.988a1.054,1.054,0,0,1-1.054-1.054V93.922A1.054,1.054,0,0,1,366.988,92.868Z" transform="translate(-332.19 -92.868)" fill="#424242"/>
            <path id="Trazado_127333" data-name="Trazado 127333" d="M93.921,178.2h10.545a1.054,1.054,0,0,1,1.054,1.054v4.218a1.054,1.054,0,0,1-1.054,1.054H93.921a1.054,1.054,0,0,1-1.054-1.054v-4.218A1.054,1.054,0,0,1,93.921,178.2Z" transform="translate(-92.867 -167.657)" fill="#424242"/>
            <path id="Trazado_127334" data-name="Trazado 127334" d="M93.921,263.535h10.545a1.054,1.054,0,0,1,1.054,1.054v4.218a1.054,1.054,0,0,1-1.054,1.054H93.921a1.054,1.054,0,0,1-1.054-1.054v-4.218A1.054,1.054,0,0,1,93.921,263.535Z" transform="translate(-92.867 -242.445)" fill="#424242"/>
            <path id="Trazado_127335" data-name="Trazado 127335" d="M366.988,263.535h10.545a1.054,1.054,0,0,1,1.055,1.054v4.218a1.054,1.054,0,0,1-1.055,1.054H366.988a1.054,1.054,0,0,1-1.054-1.054v-4.218A1.054,1.054,0,0,1,366.988,263.535Z" transform="translate(-332.19 -242.445)" fill="#424242"/>
            <path id="Trazado_127336" data-name="Trazado 127336" d="M230.454,178.2H241a1.054,1.054,0,0,1,1.054,1.054v4.218A1.054,1.054,0,0,1,241,184.529H230.454a1.054,1.054,0,0,1-1.054-1.054v-4.218A1.054,1.054,0,0,1,230.454,178.2Z" transform="translate(-212.528 -167.657)" fill="#424242"/>
            <path id="Trazado_127337" data-name="Trazado 127337" d="M366.988,178.2h10.545a1.054,1.054,0,0,1,1.055,1.054v4.218a1.054,1.054,0,0,1-1.055,1.054H366.988a1.054,1.054,0,0,1-1.054-1.054v-4.218A1.054,1.054,0,0,1,366.988,178.2Z" transform="translate(-332.19 -167.657)" fill="#424242"/>
          </g>
          <g id="Grupo_55580" data-name="Grupo 55580" transform="translate(10.545 10.545)">
            <path id="Trazado_127338" data-name="Trazado 127338" d="M93.921,92.868H101.3a1.054,1.054,0,0,1,1.054,1.054V98.14a1.054,1.054,0,0,1-1.054,1.054H93.921a1.054,1.054,0,0,1-1.054-1.054V93.922A1.054,1.054,0,0,1,93.921,92.868Z" transform="translate(-92.867 -92.868)" fill="#9e9e9e"/>
            <path id="Trazado_127339" data-name="Trazado 127339" d="M230.454,92.868h7.382a1.054,1.054,0,0,1,1.054,1.054V98.14a1.054,1.054,0,0,1-1.054,1.054h-7.382A1.054,1.054,0,0,1,229.4,98.14V93.922A1.055,1.055,0,0,1,230.454,92.868Z" transform="translate(-212.528 -92.868)" fill="#9e9e9e"/>
            <path id="Trazado_127340" data-name="Trazado 127340" d="M366.988,92.868h7.381a1.054,1.054,0,0,1,1.054,1.054V98.14a1.054,1.054,0,0,1-1.054,1.054h-7.381a1.054,1.054,0,0,1-1.055-1.054V93.922A1.054,1.054,0,0,1,366.988,92.868Z" transform="translate(-332.19 -92.868)" fill="#9e9e9e"/>
            <path id="Trazado_127341" data-name="Trazado 127341" d="M93.921,178.2H101.3a1.054,1.054,0,0,1,1.054,1.054v4.218a1.054,1.054,0,0,1-1.054,1.054H93.921a1.054,1.054,0,0,1-1.054-1.054v-4.218A1.054,1.054,0,0,1,93.921,178.2Z" transform="translate(-92.867 -167.657)" fill="#9e9e9e"/>
            <path id="Trazado_127342" data-name="Trazado 127342" d="M93.921,263.535H101.3a1.054,1.054,0,0,1,1.054,1.054v4.218a1.054,1.054,0,0,1-1.054,1.054H93.921a1.054,1.054,0,0,1-1.054-1.054v-4.218A1.054,1.054,0,0,1,93.921,263.535Z" transform="translate(-92.867 -242.445)" fill="#9e9e9e"/>
            <path id="Trazado_127343" data-name="Trazado 127343" d="M366.988,263.535h7.381a1.054,1.054,0,0,1,1.054,1.054v4.218a1.054,1.054,0,0,1-1.054,1.054h-7.381a1.054,1.054,0,0,1-1.055-1.054v-4.218A1.054,1.054,0,0,1,366.988,263.535Z" transform="translate(-332.19 -242.445)" fill="#9e9e9e"/>
            <path id="Trazado_127344" data-name="Trazado 127344" d="M230.454,178.2h7.382a1.054,1.054,0,0,1,1.054,1.054v4.218a1.054,1.054,0,0,1-1.054,1.054h-7.382a1.054,1.054,0,0,1-1.054-1.054v-4.218A1.054,1.054,0,0,1,230.454,178.2Z" transform="translate(-212.528 -167.657)" fill="#9e9e9e"/>
            <path id="Trazado_127345" data-name="Trazado 127345" d="M366.988,178.2h7.381a1.054,1.054,0,0,1,1.054,1.054v4.218a1.054,1.054,0,0,1-1.054,1.054h-7.381a1.054,1.054,0,0,1-1.055-1.054v-4.218A1.054,1.054,0,0,1,366.988,178.2Z" transform="translate(-332.19 -167.657)" fill="#9e9e9e"/>
          </g>
          <path id="Trazado_127346" data-name="Trazado 127346" d="M177.773,246.273A16.886,16.886,0,0,1,160.9,263.145a15.582,15.582,0,0,1-1.582-.074,16.872,16.872,0,0,1,0-33.6,15.586,15.586,0,0,1,1.582-.074A16.886,16.886,0,0,1,177.773,246.273Z" transform="translate(-127.157 -201.984)" fill="#6a1b9a"/>
          <path id="Trazado_127347" data-name="Trazado 127347" d="M174.61,246.8a16.889,16.889,0,0,1-15.29,16.8,16.872,16.872,0,0,1,0-33.6A16.889,16.889,0,0,1,174.61,246.8Z" transform="translate(-127.157 -202.508)" fill="#9d27b0"/>
          <path id="Trazado_127348" data-name="Trazado 127348" d="M203.51,276.19c0,.359-.01.706-.042,1.055a12.686,12.686,0,0,1-1.149,4.334v.01a12.989,12.989,0,0,1-4.239,5,13.1,13.1,0,0,1-1.824,1.065h-.01a12.684,12.684,0,0,1-4.334,1.149c-.348.032-.7.042-1.054.042s-.706-.01-1.054-.042a4.477,4.477,0,0,1-.527-.063,12.431,12.431,0,0,1-3.807-1.086h-.01a13.411,13.411,0,0,1-3.543-2.51,12.486,12.486,0,0,1-3.67-7.9c-.032-.348-.042-.7-.042-1.055s.01-.706.042-1.054a12.685,12.685,0,0,1,1.149-4.334,12.937,12.937,0,0,1,4.239-5.009,13.092,13.092,0,0,1,1.824-1.065h.01a12.425,12.425,0,0,1,3.807-1.086,4.464,4.464,0,0,1,.527-.063c.348-.032.7-.042,1.054-.042s.706.01,1.054.042a12.685,12.685,0,0,1,4.334,1.149h.01a12.989,12.989,0,0,1,5,4.239,13.1,13.1,0,0,1,1.065,1.824v.011a12.683,12.683,0,0,1,1.149,4.334C203.5,275.483,203.51,275.831,203.51,276.19Z" transform="translate(-157.112 -231.901)" fill="#cfd8dc"/>
          <path id="Trazado_127349" data-name="Trazado 127349" d="M200.346,276.938c0,.358-.01.706-.042,1.054a12.687,12.687,0,0,1-1.149,4.334v.01a12.989,12.989,0,0,1-4.239,5,13.093,13.093,0,0,1-1.824,1.065h-.011a12.428,12.428,0,0,1-3.807,1.086,12.432,12.432,0,0,1-3.807-1.086h-.01a13.413,13.413,0,0,1-3.543-2.51,12.486,12.486,0,0,1-3.67-7.9c-.032-.348-.042-.7-.042-1.054s.01-.706.042-1.054a12.687,12.687,0,0,1,1.149-4.334,12.938,12.938,0,0,1,4.239-5.009,13.094,13.094,0,0,1,1.824-1.065h.01a12.427,12.427,0,0,1,3.807-1.086,12.429,12.429,0,0,1,3.807,1.086h.011a12.991,12.991,0,0,1,5,4.239,13.1,13.1,0,0,1,1.065,1.824v.01a12.686,12.686,0,0,1,1.149,4.334C200.336,276.231,200.346,276.579,200.346,276.938Z" transform="translate(-157.112 -232.648)" fill="#f4f4f4"/>
        </g>
        <g id="Grupo_55582" data-name="Grupo 55582" transform="translate(-4636.495 -7281.49)">
          <path id="Trazado_127350" data-name="Trazado 127350" d="M60.107,0H3.164A3.164,3.164,0,0,0,0,3.166V50.618a3.164,3.164,0,0,0,3.164,3.164H18.99a17.913,17.913,0,0,0,31.618,0h9.5a3.164,3.164,0,0,0,3.164-3.164V3.166A3.163,3.163,0,0,0,60.107,0Zm1.054,3.164V6.329H8.436V2.111H60.107A1.055,1.055,0,0,1,61.161,3.166Zm-58-1.055H6.327V6.329H2.109V3.165A1.054,1.054,0,0,1,3.164,2.111ZM2.109,50.618V8.438H6.327V51.673H3.164A1.054,1.054,0,0,1,2.109,50.618ZM34.8,61.163A15.818,15.818,0,1,1,50.616,45.346,15.818,15.818,0,0,1,34.8,61.163ZM29.526,27.419V23.2H40.071v4.218ZM60.107,51.673H51.551a17.855,17.855,0,0,0-9.89-22.883,2.089,2.089,0,0,0,.52-1.371V23.2a2.109,2.109,0,0,0-2.109-2.109H29.526A2.109,2.109,0,0,0,27.417,23.2v4.218a2.088,2.088,0,0,0,.52,1.371,17.855,17.855,0,0,0-9.89,22.883H8.436V8.438H61.162v42.18A1.055,1.055,0,0,1,60.107,51.673Z" transform="translate(0 -0.002)"/>
          <path id="Trazado_127351" data-name="Trazado 127351" d="M97.987,85.335H87.442a2.109,2.109,0,0,0-2.109,2.109v4.218a2.109,2.109,0,0,0,2.109,2.109H97.987a2.109,2.109,0,0,0,2.109-2.109V87.444A2.109,2.109,0,0,0,97.987,85.335ZM87.442,91.662V87.444H97.987v4.218Z" transform="translate(-74.788 -74.79)"/>
          <path id="Trazado_127352" data-name="Trazado 127352" d="M234.521,85.335H223.976a2.109,2.109,0,0,0-2.109,2.109v4.218a2.109,2.109,0,0,0,2.109,2.109h10.545a2.109,2.109,0,0,0,2.109-2.109V87.444A2.109,2.109,0,0,0,234.521,85.335Zm-10.545,6.327V87.444h10.545v4.218Z" transform="translate(-194.45 -74.79)"/>
          <path id="Trazado_127353" data-name="Trazado 127353" d="M371.054,85.335H360.509a2.109,2.109,0,0,0-2.109,2.109v4.218a2.109,2.109,0,0,0,2.109,2.109h10.545a2.109,2.109,0,0,0,2.109-2.109V87.444A2.109,2.109,0,0,0,371.054,85.335Zm-10.545,6.327V87.444h10.545v4.218Z" transform="translate(-314.111 -74.79)"/>
          <path id="Trazado_127354" data-name="Trazado 127354" d="M97.987,170.668H87.442a2.109,2.109,0,0,0-2.109,2.109V177a2.109,2.109,0,0,0,2.109,2.109H97.987A2.109,2.109,0,0,0,100.1,177v-4.218A2.109,2.109,0,0,0,97.987,170.668ZM87.442,177v-4.218H97.987V177Z" transform="translate(-74.788 -149.578)"/>
          <path id="Trazado_127355" data-name="Trazado 127355" d="M371.054,170.668H360.509a2.109,2.109,0,0,0-2.109,2.109V177a2.109,2.109,0,0,0,2.109,2.109h10.545A2.109,2.109,0,0,0,373.163,177v-4.218A2.109,2.109,0,0,0,371.054,170.668ZM360.509,177v-4.218h10.545V177Z" transform="translate(-314.111 -149.578)"/>
          <path id="Trazado_127356" data-name="Trazado 127356" d="M93.769,256H87.442a2.109,2.109,0,0,0-2.109,2.109v4.218a2.109,2.109,0,0,0,2.109,2.109h2.109a1.054,1.054,0,1,0,0-2.109H87.442v-4.218h6.327a1.055,1.055,0,0,0,0-2.109Z" transform="translate(-74.788 -224.367)"/>
          <path id="Trazado_127357" data-name="Trazado 127357" d="M408.449,256h-6.327a1.054,1.054,0,0,0,0,2.109h6.327v4.218h-2.109a1.054,1.054,0,1,0,0,2.109h2.109a2.109,2.109,0,0,0,2.109-2.109v-4.218A2.109,2.109,0,0,0,408.449,256Z" transform="translate(-351.505 -224.367)"/>
          <path id="Trazado_127358" data-name="Trazado 127358" d="M276.231,321.008h-1.055V316.79a1.054,1.054,0,1,0-2.109,0v5.273a1.054,1.054,0,0,0,1.054,1.055h2.109a1.055,1.055,0,0,0,0-2.109Z" transform="translate(-239.324 -276.719)"/>
          <path id="Trazado_127359" data-name="Trazado 127359" d="M196.262,276.527a13.647,13.647,0,0,0,0-13.629c-.006-.013-.006-.027-.014-.04s-.023-.023-.033-.038a13.448,13.448,0,0,0-4.948-4.948c-.015-.008-.022-.023-.037-.032s-.026-.007-.039-.014a13.647,13.647,0,0,0-13.629,0c-.013.006-.027.006-.04.014s-.023.023-.038.033a13.447,13.447,0,0,0-4.948,4.948c-.008.015-.023.022-.032.037a.409.409,0,0,0-.014.039,13.647,13.647,0,0,0,0,13.629c.006.013.006.027.014.04a.677.677,0,0,0,.047.061,13.433,13.433,0,0,0,4.933,4.925c.015.008.022.023.037.032s.037.014.055.023a13.648,13.648,0,0,0,13.6,0,.523.523,0,0,0,.057-.023c.015-.008.023-.023.038-.033a13.432,13.432,0,0,0,4.933-4.925c.015-.021.034-.038.046-.06S196.255,276.539,196.262,276.527Zm-5.2,2.654-.5-.865a1.054,1.054,0,1,0-1.826,1.054l.5.866a11.494,11.494,0,0,1-3.8,1.023v-1a1.054,1.054,0,1,0-2.109,0v1a11.5,11.5,0,0,1-3.8-1.023l.5-.866a1.054,1.054,0,0,0-1.826-1.055l-.5.865a11.727,11.727,0,0,1-1.516-1.265,11.6,11.6,0,0,1-1.265-1.517l.865-.5a1.054,1.054,0,0,0-1.055-1.826l-.866.5a11.5,11.5,0,0,1-1.025-3.807h1a1.054,1.054,0,1,0,0-2.109h-1a11.5,11.5,0,0,1,1.023-3.8l.866.5a1.054,1.054,0,1,0,1.054-1.826l-.865-.5a10.972,10.972,0,0,1,2.783-2.782l.5.865a1.054,1.054,0,0,0,1.826-1.055l-.5-.866a11.5,11.5,0,0,1,3.807-1.025v1a1.054,1.054,0,1,0,2.109,0v-1a11.5,11.5,0,0,1,3.8,1.023l-.5.866a1.054,1.054,0,1,0,1.826,1.054l.5-.865a10.973,10.973,0,0,1,2.782,2.783l-.865.5a1.054,1.054,0,1,0,1.054,1.826l.866-.5a11.494,11.494,0,0,1,1.025,3.807h-1a1.054,1.054,0,1,0,0,2.109h1a11.5,11.5,0,0,1-1.023,3.8l-.866-.5a1.054,1.054,0,0,0-1.055,1.826l.865.5a11.73,11.73,0,0,1-1.265,1.516A11.566,11.566,0,0,1,191.061,279.181Z" transform="translate(-149.578 -224.368)"/>
        </g>
      </g>
    </g>
  </g>
</svg>
