<svg xmlns="http://www.w3.org/2000/svg" width="49" height="49" viewBox="0 0 49 49">
  <g id="segment" transform="translate(-2 -2)">
    <path id="Trazado_127940" data-name="Trazado 127940" d="M26.5,2A24.5,24.5,0,1,0,51,26.5,24.5,24.5,0,0,0,26.5,2ZM49.367,26.5a22.72,22.72,0,0,1-2.674,10.715L27.317,26.028V3.654A22.891,22.891,0,0,1,49.367,26.5ZM25.683,3.654V26.03L6.307,37.215A22.85,22.85,0,0,1,25.683,3.654ZM26.5,49.367A22.867,22.867,0,0,1,7.128,38.627L26.5,27.443,45.872,38.632A22.867,22.867,0,0,1,26.5,49.367Z" fill="#7d6eb2"/>
    <path id="Trazado_127941" data-name="Trazado 127941" d="M44.633,27.8h1.633v-.817A1.633,1.633,0,0,0,47.9,25.35V23.717a1.633,1.633,0,0,0-1.633-1.633H44.633V20.45H47.9V18.817H46.267V18H44.633v.817A1.633,1.633,0,0,0,43,20.45v1.633a1.633,1.633,0,0,0,1.633,1.633h1.633V25.35H43v1.633h1.633Z" transform="translate(-7.517 -2.933)" fill="#7d6eb2"/>
    <path id="Trazado_127942" data-name="Trazado 127942" d="M44.35,29.7A7.35,7.35,0,1,0,37,22.35a7.35,7.35,0,0,0,7.35,7.35Zm0-13.067a5.717,5.717,0,1,1-5.717,5.717,5.717,5.717,0,0,1,5.717-5.717Z" transform="translate(-6.417 -2.383)" fill="#7d6eb2"/>
    <path id="Trazado_127943" data-name="Trazado 127943" d="M35.25,39h-9.8A2.45,2.45,0,0,0,23,41.45v9.8a2.45,2.45,0,0,0,2.45,2.45h9.8a2.45,2.45,0,0,0,2.45-2.45v-9.8A2.45,2.45,0,0,0,35.25,39Zm-5.717,1.633h1.633v3.745l-.239-.239a.817.817,0,0,0-1.155,0l-.239.239ZM36.067,51.25a.817.817,0,0,1-.817.817h-9.8a.817.817,0,0,1-.817-.817v-9.8a.817.817,0,0,1,.817-.817H27.9V46.35a.817.817,0,0,0,1.394.577l1.056-1.056,1.056,1.056A.817.817,0,0,0,32.8,46.35V40.633h2.45a.817.817,0,0,1,.817.817Z" transform="translate(-3.85 -6.783)" fill="#7d6eb2"/>
    <path id="Trazado_127944" data-name="Trazado 127944" d="M9.45,27.7h1.072c.026.087.038.177.068.263a5.717,5.717,0,0,0,10.787,0c.03-.086.042-.176.068-.263h1.072a2.45,2.45,0,0,0,2.45-2.45V23.617a2.45,2.45,0,0,0-1.633-2.3V17.9a4.9,4.9,0,0,0-4.9-4.9h-4.9a4.9,4.9,0,0,0-4.9,4.9v3.417A2.45,2.45,0,0,0,7,23.617V25.25A2.45,2.45,0,0,0,9.45,27.7Zm10.386-.281h0A4.084,4.084,0,0,1,11.9,26.067V21.755l.817-.273v.5a.817.817,0,0,0,1.394.577L15.167,21.5v.479a.817.817,0,0,0,1.27.679l2.117-1.414,1.513.507v4.311a4.047,4.047,0,0,1-.23,1.352Zm3.5-2.169a.817.817,0,0,1-.817.817H21.7V22.8h.817a.817.817,0,0,1,.817.817ZM10.267,17.9a3.267,3.267,0,0,1,3.267-3.267h4.9A3.267,3.267,0,0,1,21.7,17.9v3.267a.817.817,0,0,0-.559-.775l-2.45-.817a.827.827,0,0,0-.711.1l-1.18.786v-.924a.817.817,0,0,0-1.394-.577L14.3,20.063a.817.817,0,0,0-1.023-.49l-2.45.817a.817.817,0,0,0-.559.777ZM8.633,23.617A.817.817,0,0,1,9.45,22.8h.817v3.267H9.45a.817.817,0,0,1-.817-.817Z" transform="translate(-0.917 -2.017)" fill="#7d6eb2"/>
    <path id="Trazado_127945" data-name="Trazado 127945" d="M17.45,29.817A.817.817,0,0,1,16.633,29H15a2.45,2.45,0,1,0,4.9,0H18.267A.817.817,0,0,1,17.45,29.817Z" transform="translate(-2.383 -4.95)" fill="#7d6eb2"/>
  </g>
</svg>
