<svg xmlns="http://www.w3.org/2000/svg" width="536" height="482.635" viewBox="0 0 536 482.635">
  <g id="Visual_data-bro" data-name="Visual data-bro" transform="translate(-13.274 -8.365)">
    <g id="freepik--background-simple--inject-100" transform="translate(13.274 8.365)">
      <path id="Trazado_126917" data-name="Trazado 126917" d="M249.288,9.08s97.034-10.58,174.3,49.67,99.729,155.34,120.319,232-19.47,143.2-95.156,162.79S339.276,417,245.216,397,122.728,383.79,55.884,323.24,2.455,151.77,84.8,83.29,249.288,9.08,249.288,9.08Z" transform="translate(-13.274 -8.365)" fill="#41c1c5"/>
      <path id="Trazado_126918" data-name="Trazado 126918" d="M249.288,9.08s97.034-10.58,174.3,49.67,99.729,155.34,120.319,232-19.47,143.2-95.156,162.79S339.276,417,245.216,397,122.728,383.79,55.884,323.24,2.455,151.77,84.8,83.29,249.288,9.08,249.288,9.08Z" transform="translate(-13.274 -8.365)" fill="#fff" opacity="0.75"/>
    </g>
    <g id="freepik--Wall--inject-100" transform="translate(44 269.07)">
      <line id="Línea_1548" data-name="Línea 1548" x1="485.95" y1="28.84" transform="translate(3.2 44.84)" fill="none" stroke="#263238" stroke-miterlimit="10" stroke-width="1"/>
      <line id="Línea_1549" data-name="Línea 1549" y1="46.07" transform="translate(24.21)" fill="none" stroke="#263238" stroke-miterlimit="10" stroke-width="1"/>
      <line id="Línea_1550" data-name="Línea 1550" y1="44.84" transform="translate(62.91 3.69)" fill="none" stroke="#263238" stroke-miterlimit="10" stroke-width="1"/>
      <line id="Línea_1551" data-name="Línea 1551" y1="46.06" transform="translate(127.735 6.15)" fill="none" stroke="#263238" stroke-miterlimit="10" stroke-width="1"/>
      <line id="Línea_1552" data-name="Línea 1552" y1="48.53" transform="translate(186.724 7.37)" fill="none" stroke="#263238" stroke-miterlimit="10" stroke-width="1"/>
      <line id="Línea_1553" data-name="Línea 1553" y1="51.6" transform="translate(247.882 7.37)" fill="none" stroke="#263238" stroke-miterlimit="10" stroke-width="1"/>
      <line id="Línea_1554" data-name="Línea 1554" y1="49.14" transform="translate(309.053 12.29)" fill="none" stroke="#263238" stroke-miterlimit="10" stroke-width="1"/>
      <line id="Línea_1555" data-name="Línea 1555" y1="53.1" transform="translate(374.242 15.36)" fill="none" stroke="#263238" stroke-miterlimit="10" stroke-width="1"/>
      <line id="Línea_1556" data-name="Línea 1556" y1="50.98" transform="translate(454.55 19.66)" fill="none" stroke="#263238" stroke-miterlimit="10" stroke-width="1"/>
      <line id="Línea_1557" data-name="Línea 1557" x1="487.27" y1="30.48" transform="translate(1.88 50.38)" fill="none" stroke="#263238" stroke-miterlimit="10" stroke-width="1"/>
      <line id="Línea_1558" data-name="Línea 1558" x2="12.27" y2="1.43" transform="translate(476.26 201.5)" fill="none" stroke="#263238" stroke-miterlimit="10" stroke-width="1"/>
      <line id="Línea_1559" data-name="Línea 1559" x2="462.54" y2="44.97" transform="translate(0 154.93)" fill="none" stroke="#263238" stroke-miterlimit="10" stroke-width="1"/>
    </g>
    <g id="freepik--Graphics--inject-100" transform="translate(58.62 26.15)">
      <path id="Trazado_126919" data-name="Trazado 126919" d="M535.53,278.69,58.62,261.52V43.32L535.53,26.15Z" transform="translate(-58.62 -26.15)" fill="#263238"/>
      <path id="Trazado_126920" data-name="Trazado 126920" d="M525.65,266.8,66.04,251.87V52.98L525.65,38.04Z" transform="translate(-58.62 -26.15)" fill="none" stroke="#41c1c5" stroke-miterlimit="10" stroke-width="1"/>
      <path id="Trazado_126921" data-name="Trazado 126921" d="M190.47,75.53l-106,3a4.7,4.7,0,0,1-4.55-5h0a5.028,5.028,0,0,1,4.55-5.27l106-3.47A5,5,0,0,1,195.42,70h0A5.35,5.35,0,0,1,190.47,75.53Z" transform="translate(-58.62 -26.15)" fill="gray"/>
      <path id="Trazado_126922" data-name="Trazado 126922" d="M126.81,72.15a4.78,4.78,0,0,0-4.7-5.06L84.48,68.32c-2.51.08-4.55,2.44-4.55,5.27a4.7,4.7,0,0,0,4.55,5l37.63-1.09a5.14,5.14,0,0,0,4.7-5.35Z" transform="translate(-58.62 -26.15)" fill="#41c1c5"/>
      <path id="Trazado_126923" data-name="Trazado 126923" d="M190.47,96.4l-106,2.21a4.725,4.725,0,0,1-4.55-5h0a5,5,0,0,1,4.55-5.23l106-2.64a5,5,0,0,1,4.95,5.22h0a5.3,5.3,0,0,1-4.95,5.44Z" transform="translate(-58.62 -26.15)" fill="gray"/>
      <path id="Trazado_126924" data-name="Trazado 126924" d="M153.32,91.91h0a4.89,4.89,0,0,0-4.79-5.15l-64,1.6a5,5,0,0,0-4.55,5.23h0c0,2.83,2,5.08,4.55,5l64.05-1.34a5.16,5.16,0,0,0,4.74-5.34Z" transform="translate(-58.62 -26.15)" fill="#41c1c5"/>
      <path id="Trazado_126925" data-name="Trazado 126925" d="M190.47,117.26l-106,1.39a4.78,4.78,0,0,1-4.55-5.06h0a5,5,0,0,1,4.55-5.19l106-1.82a5.06,5.06,0,0,1,4.95,5.27h0a5.24,5.24,0,0,1-4.95,5.41Z" transform="translate(-58.62 -26.15)" fill="gray"/>
      <path id="Trazado_126926" data-name="Trazado 126926" d="M172,112.2a5,5,0,0,0-4.86-5.22L84.48,108.4a5,5,0,0,0-4.55,5.19,4.78,4.78,0,0,0,4.55,5.06l82.66-1.08A5.19,5.19,0,0,0,172,112.2Z" transform="translate(-58.62 -26.15)" fill="#41c1c5"/>
      <path id="Trazado_126927" data-name="Trazado 126927" d="M190.47,138.13l-106,.56a4.82,4.82,0,0,1-4.55-5.09h0a4.91,4.91,0,0,1,4.55-5.16l106-1a5.1,5.1,0,0,1,4.95,5.3h0a5.2,5.2,0,0,1-4.95,5.39Z" transform="translate(-58.62 -26.15)" fill="#41c1c5"/>
      <path id="Trazado_126928" data-name="Trazado 126928" d="M217.1,74.76l-14.52.42a5,5,0,0,1-5-5.21h0a5.39,5.39,0,0,1,5-5.52L217.1,64a5,5,0,0,1,5.05,5.24h0a5.42,5.42,0,0,1-5.05,5.52Z" transform="translate(-30.322 -26.15)" fill="#41c1c5"/>
      <path id="Trazado_126929" data-name="Trazado 126929" d="M217.1,95.84l-14.52.3a5,5,0,0,1-5-5.25h0a5.34,5.34,0,0,1,5-5.48l14.52-.36a5.08,5.08,0,0,1,5.05,5.28h0a5.37,5.37,0,0,1-5.05,5.51Z" transform="translate(-30.323 -26.15)" fill="#41c1c5"/>
      <path id="Trazado_126930" data-name="Trazado 126930" d="M217.1,116.91l-14.52.19a5.09,5.09,0,0,1-5-5.29h0a5.29,5.29,0,0,1,5-5.44l14.52-.25a5.14,5.14,0,0,1,5.05,5.32h0A5.31,5.31,0,0,1,217.1,116.91Z" transform="translate(-30.323 -26.15)" fill="#41c1c5"/>
      <path id="Trazado_126931" data-name="Trazado 126931" d="M217.1,138l-14.52.07a5.14,5.14,0,0,1-5-5.33h0a5.24,5.24,0,0,1,5-5.4l14.52-.13a5.17,5.17,0,0,1,5.05,5.35h0A5.28,5.28,0,0,1,217.1,138Z" transform="translate(-30.323 -26.15)" fill="#41c1c5"/>
      <line id="Línea_1560" data-name="Línea 1560" y1="0.59" x2="17.06" transform="translate(26.69 36.2)" fill="none" stroke="#fff" stroke-miterlimit="10" stroke-width="1"/>
      <line id="Línea_1561" data-name="Línea 1561" y1="0.45" x2="17.06" transform="translate(26.69 57.36)" fill="none" stroke="#fff" stroke-miterlimit="10" stroke-width="1"/>
      <line id="Línea_1562" data-name="Línea 1562" y1="0.32" x2="17.06" transform="translate(26.69 77.44)" fill="none" stroke="#fff" stroke-miterlimit="10" stroke-width="1"/>
      <line id="Línea_1563" data-name="Línea 1563" y1="0.18" x2="17.06" transform="translate(26.69 98.6)" fill="none" stroke="#fff" stroke-miterlimit="10" stroke-width="1"/>
      <line id="Línea_1564" data-name="Línea 1564" y1="0.44" x2="14.3" transform="translate(418.81 36.92)" fill="none" stroke="#fff" stroke-miterlimit="10" stroke-width="1"/>
      <line id="Línea_1565" data-name="Línea 1565" y1="0.6" x2="22.61" transform="translate(410.5 49.08)" fill="none" stroke="#fff" stroke-miterlimit="10" stroke-width="1"/>
      <line id="Línea_1566" data-name="Línea 1566" y1="0.32" x2="14.3" transform="translate(418.81 61.23)" fill="none" stroke="#fff" stroke-miterlimit="10" stroke-width="1"/>
      <line id="Línea_1567" data-name="Línea 1567" y1="0.15" x2="8.39" transform="translate(424.72 73.39)" fill="none" stroke="#fff" stroke-miterlimit="10" stroke-width="1"/>
      <line id="Línea_1568" data-name="Línea 1568" y1="0.2" x2="14.3" transform="translate(418.81 85.55)" fill="none" stroke="#fff" stroke-miterlimit="10" stroke-width="1"/>
      <line id="Línea_1569" data-name="Línea 1569" y1="0.18" x2="18.12" transform="translate(414.99 97.7)" fill="none" stroke="#fff" stroke-miterlimit="10" stroke-width="1"/>
      <line id="Línea_1570" data-name="Línea 1570" y1="0.08" x2="14.3" transform="translate(418.81 109.86)" fill="none" stroke="#fff" stroke-miterlimit="10" stroke-width="1"/>
      <line id="Línea_1571" data-name="Línea 1571" y1="0.03" x2="21.23" transform="translate(411.88 122.02)" fill="none" stroke="#fff" stroke-miterlimit="10" stroke-width="1"/>
      <line id="Línea_1572" data-name="Línea 1572" x2="14.3" y2="0.04" transform="translate(418.81 134.13)" fill="none" stroke="#fff" stroke-miterlimit="10" stroke-width="1"/>
      <path id="Trazado_126932" data-name="Trazado 126932" d="M419,63l4.34-.13" transform="translate(17.91 -26.15)" fill="none" stroke="#fff" stroke-miterlimit="10" stroke-width="1"/>
      <path id="Trazado_126933" data-name="Trazado 126933" d="M419,75.13l4.34-.12" transform="translate(17.91 -26.15)" fill="none" stroke="#fff" stroke-miterlimit="10" stroke-width="1"/>
      <path id="Trazado_126934" data-name="Trazado 126934" d="M419,87.3l4.34-.1" transform="translate(17.91 -26.15)" fill="none" stroke="#fff" stroke-miterlimit="10" stroke-width="1"/>
      <path id="Trazado_126935" data-name="Trazado 126935" d="M419.07,99.47l4.22-.08" transform="translate(17.91 -26.15)" fill="none" stroke="#fff" stroke-miterlimit="10" stroke-width="1"/>
      <path id="Trazado_126936" data-name="Trazado 126936" d="M419,111.64l4.34-.06" transform="translate(17.91 -26.15)" fill="none" stroke="#fff" stroke-miterlimit="10" stroke-width="1"/>
      <path id="Trazado_126937" data-name="Trazado 126937" d="M419,123.82h4.25" transform="translate(17.91 -26.15)" fill="none" stroke="#fff" stroke-miterlimit="10" stroke-width="1"/>
      <path id="Trazado_126938" data-name="Trazado 126938" d="M419,136h4.34" transform="translate(17.91 -26.15)" fill="none" stroke="#fff" stroke-miterlimit="10" stroke-width="1"/>
      <path id="Trazado_126939" data-name="Trazado 126939" d="M418.92,148.16h4.37" transform="translate(17.91 -26.15)" fill="none" stroke="#fff" stroke-miterlimit="10" stroke-width="1"/>
      <path id="Trazado_126940" data-name="Trazado 126940" d="M419,160.33h4.34" transform="translate(17.91 -26.15)" fill="none" stroke="#fff" stroke-miterlimit="10" stroke-width="1"/>
      <path id="Trazado_126941" data-name="Trazado 126941" d="M427.53,62.69l7.43-.23" transform="translate(17.91 -26.15)" fill="none" stroke="#fff" stroke-miterlimit="10" stroke-width="1"/>
      <path id="Trazado_126942" data-name="Trazado 126942" d="M427.53,74.9l7.43-.2" transform="translate(17.91 -26.15)" fill="none" stroke="#fff" stroke-miterlimit="10" stroke-width="1"/>
      <path id="Trazado_126943" data-name="Trazado 126943" d="M427.53,87.11l7.43-.17" transform="translate(17.91 -26.15)" fill="none" stroke="#fff" stroke-miterlimit="10" stroke-width="1"/>
      <path id="Trazado_126944" data-name="Trazado 126944" d="M427.72,99.31l7.24-.13" transform="translate(17.91 -26.15)" fill="none" stroke="#fff" stroke-miterlimit="10" stroke-width="1"/>
      <path id="Trazado_126945" data-name="Trazado 126945" d="M427.53,111.52l7.43-.1" transform="translate(17.91 -26.15)" fill="none" stroke="#fff" stroke-miterlimit="10" stroke-width="1"/>
      <path id="Trazado_126946" data-name="Trazado 126946" d="M427.69,123.73l7.27-.07" transform="translate(17.91 -26.15)" fill="none" stroke="#fff" stroke-miterlimit="10" stroke-width="1"/>
      <path id="Trazado_126947" data-name="Trazado 126947" d="M427.53,135.94h7.43" transform="translate(17.91 -26.15)" fill="none" stroke="#fff" stroke-miterlimit="10" stroke-width="1"/>
      <path id="Trazado_126948" data-name="Trazado 126948" d="M427.47,148.15H435" transform="translate(17.91 -26.15)" fill="none" stroke="#fff" stroke-miterlimit="10" stroke-width="1"/>
      <path id="Trazado_126949" data-name="Trazado 126949" d="M427.53,160.36h7.43" transform="translate(17.91 -26.15)" fill="none" stroke="#fff" stroke-miterlimit="10" stroke-width="1"/>
      <line id="Línea_1573" data-name="Línea 1573" y1="0.1" x2="145.42" transform="translate(232.04 124.33)" fill="none" stroke="#999" stroke-miterlimit="10" stroke-width="1"/>
      <line id="Línea_1574" data-name="Línea 1574" y1="0.6" x2="145.42" transform="translate(232.04 114.58)" fill="none" stroke="#999" stroke-miterlimit="10" stroke-width="1"/>
      <line id="Línea_1575" data-name="Línea 1575" y1="1.09" x2="145.42" transform="translate(232.04 104.83)" fill="none" stroke="#999" stroke-miterlimit="10" stroke-width="1"/>
      <path id="Trazado_126950" data-name="Trazado 126950" d="M383,169.71v-44s-3.41-4.33-17.48-3.53c-13.92.8-17.26,13.1-32,20.26S312,138.05,300,138.11s-17.85,13.34-26.46,18.37-16.18-.65-26.41.58a14.54,14.54,0,0,0-12.36,10.52l-.14,1.24Z" transform="translate(-5.17 -26.15)" fill="#41c1c5"/>
      <path id="Trazado_126951" data-name="Trazado 126951" d="M383,169.71V145.55c-4.81-.26-14.79.54-25.39,9.37s-29.51,4.17-35.07,2.14c-8.85-3.24-19-3.4-29.09,3s-18.29,5.78-27.64,5.73c-6.61,0-14.28,2-18.15,3.11Z" transform="translate(-4.035 -26.15)" fill="gray"/>
      <path id="Trazado_126952" data-name="Trazado 126952" d="M271.77,238.26l-25.87-.81a4.68,4.68,0,0,1-4.38-4.77h0a4.36,4.36,0,0,1,4.38-4.51l25.87.71a4.75,4.75,0,0,1,4.48,4.82h0a4.44,4.44,0,0,1-4.48,4.56Z" transform="translate(-20.34 -26.15)" fill="gray"/>
      <path id="Trazado_126953" data-name="Trazado 126953" d="M324,239.88l-26.86-.83a4.82,4.82,0,0,1-4.54-4.87h0a4.48,4.48,0,0,1,4.54-4.59l26.86.74a4.88,4.88,0,0,1,4.65,4.91h0a4.55,4.55,0,0,1-4.65,4.64Z" transform="translate(-9.471 -26.15)" fill="gray"/>
      <path id="Trazado_126954" data-name="Trazado 126954" d="M377.1,241.54l-27.88-.87a4.94,4.94,0,0,1-4.71-5h0a4.6,4.6,0,0,1,4.71-4.68l27.88.77a5,5,0,0,1,4.82,5h0a4.68,4.68,0,0,1-4.82,4.78Z" transform="translate(1.658 -26.15)" fill="gray"/>
      <line id="Línea_1576" data-name="Línea 1576" x2="143.42" y2="3.39" transform="translate(21.13 187.01)" fill="none" stroke="#999" stroke-miterlimit="10" stroke-width="1"/>
      <line id="Línea_1577" data-name="Línea 1577" x2="143.42" y2="2.97" transform="translate(21.13 179.4)" fill="none" stroke="#999" stroke-miterlimit="10" stroke-width="1"/>
      <line id="Línea_1578" data-name="Línea 1578" x2="143.42" y2="2.54" transform="translate(21.13 171.79)" fill="none" stroke="#999" stroke-miterlimit="10" stroke-width="1"/>
      <line id="Línea_1579" data-name="Línea 1579" x2="143.42" y2="2.12" transform="translate(21.13 164.17)" fill="none" stroke="#999" stroke-miterlimit="10" stroke-width="1"/>
      <line id="Línea_1580" data-name="Línea 1580" x2="143.42" y2="1.7" transform="translate(21.13 156.56)" fill="none" stroke="#999" stroke-miterlimit="10" stroke-width="1"/>
      <line id="Línea_1581" data-name="Línea 1581" x2="143.42" y2="1.27" transform="translate(21.13 148.95)" fill="none" stroke="#999" stroke-miterlimit="10" stroke-width="1"/>
      <line id="Línea_1582" data-name="Línea 1582" x2="143.42" y2="0.84" transform="translate(21.13 141.34)" fill="none" stroke="#999" stroke-miterlimit="10" stroke-width="1"/>
      <line id="Línea_1583" data-name="Línea 1583" x2="143.42" y2="0.42" transform="translate(21.13 133.73)" fill="none" stroke="#999" stroke-miterlimit="10" stroke-width="1"/>
      <path id="Trazado_126955" data-name="Trazado 126955" d="M97.05,221.8l-13.74-.37V191.25l13.74.21Z" transform="translate(-58.62 -26.15)" fill="gray"/>
      <path id="Trazado_126956" data-name="Trazado 126956" d="M116.54,222.32l-13.95-.37V183.02l13.95.17Z" transform="translate(-58.62 -26.15)" fill="#41c1c5"/>
      <path id="Trazado_126957" data-name="Trazado 126957" d="M136.33,222.85l-14.16-.38v-45.9l14.16.14Z" transform="translate(-58.62 -26.15)" fill="gray"/>
      <path id="Trazado_126958" data-name="Trazado 126958" d="M156.42,223.39l-14.38-.38V157.53l14.38.03Z" transform="translate(-42.081 -26.15)" fill="#41c1c5"/>
      <path id="Trazado_126959" data-name="Trazado 126959" d="M176.82,223.94l-14.6-.39V176.94l14.6.14Z" transform="translate(-38.068 -26.15)" fill="gray"/>
      <path id="Trazado_126960" data-name="Trazado 126960" d="M197.54,224.5l-14.83-.4V191.78l14.83.22Z" transform="translate(-33.989 -26.15)" fill="#41c1c5"/>
      <path id="Trazado_126961" data-name="Trazado 126961" d="M218.59,225.06l-15.07-.4V204.88l15.07.29Z" transform="translate(-29.84 -26.15)" fill="gray"/>
      <line id="Línea_1584" data-name="Línea 1584" x2="11.18" y2="0.33" transform="translate(25.34 202.9)" fill="none" stroke="#fff" stroke-linecap="round" stroke-linejoin="round" stroke-width="1"/>
      <line id="Línea_1585" data-name="Línea 1585" x2="11.35" y2="0.34" transform="translate(44.76 203.48)" fill="none" stroke="#fff" stroke-linecap="round" stroke-linejoin="round" stroke-width="1"/>
      <line id="Línea_1586" data-name="Línea 1586" x2="11.53" y2="0.34" transform="translate(64.47 204.07)" fill="none" stroke="#fff" stroke-linecap="round" stroke-linejoin="round" stroke-width="1"/>
      <line id="Línea_1587" data-name="Línea 1587" x2="11.7" y2="0.35" transform="translate(101.126 204.66)" fill="none" stroke="#fff" stroke-linecap="round" stroke-linejoin="round" stroke-width="1"/>
      <line id="Línea_1588" data-name="Línea 1588" x2="11.88" y2="0.35" transform="translate(125.468 205.27)" fill="none" stroke="#fff" stroke-linecap="round" stroke-linejoin="round" stroke-width="1"/>
      <line id="Línea_1589" data-name="Línea 1589" x2="12.07" y2="0.36" transform="translate(150.186 205.89)" fill="none" stroke="#fff" stroke-linecap="round" stroke-linejoin="round" stroke-width="1"/>
      <line id="Línea_1590" data-name="Línea 1590" x2="12.26" y2="0.37" transform="translate(175.303 206.51)" fill="none" stroke="#fff" stroke-linecap="round" stroke-linejoin="round" stroke-width="1"/>
      <path id="Trazado_126962" data-name="Trazado 126962" d="M394.37,181.05v-7.18l19.51.15v7.22Z" transform="translate(17.91 -26.15)" fill="#41c1c5"/>
      <path id="Trazado_126963" data-name="Trazado 126963" d="M394.37,191.09v-7.17l25.02.27v7.24Z" transform="translate(17.91 -26.15)" fill="gray"/>
      <path id="Trazado_126964" data-name="Trazado 126964" d="M394.37,201.13v-7.17l29.33.42v7.25Z" transform="translate(17.91 -26.15)" fill="#41c1c5"/>
      <path id="Trazado_126965" data-name="Trazado 126965" d="M394.37,211.18V204l41.7.75v7.28Z" transform="translate(17.91 -26.15)" fill="gray"/>
      <path id="Trazado_126966" data-name="Trazado 126966" d="M394.37,221.22v-7.17l29.33.62v7.25Z" transform="translate(17.91 -26.15)" fill="#41c1c5"/>
      <path id="Trazado_126967" data-name="Trazado 126967" d="M394.37,231.26v-7.17l20.12.5v7.22Z" transform="translate(17.91 -26.15)" fill="gray"/>
      <path id="Trazado_126968" data-name="Trazado 126968" d="M394.37,241.31v-7.18l12.18.35v7.2Z" transform="translate(17.91 -26.15)" fill="#41c1c5"/>
      <path id="Trazado_126969" data-name="Trazado 126969" d="M279.24,199.15c0,12.2-9.42,21.85-20.95,21.56s-20.63-10.25-20.63-22.26,9.2-21.67,20.63-21.57S279.24,187,279.24,199.15Z" transform="translate(-20.432 -26.15)" fill="gray"/>
      <path id="Trazado_126970" data-name="Trazado 126970" d="M259.28,176.94c-.33,0-.65-.06-1-.06-11.43-.1-20.63,9.56-20.63,21.57s9.2,22,20.63,22.26h1Z" transform="translate(-22.446 -26.15)" fill="#41c1c5"/>
      <path id="Trazado_126971" data-name="Trazado 126971" d="M272.72,199c0,8.4-6.48,15.07-14.43,14.89S244,206.87,244,198.56s6.38-15,14.28-14.89S272.72,190.64,272.72,199Z" transform="translate(-20.448 -26.15)" fill="#263238"/>
      <path id="Trazado_126972" data-name="Trazado 126972" d="M331,200c0,12.42-9.77,22.25-21.73,21.95s-21.41-10.45-21.41-22.68,9.54-22.07,21.41-22S331,187.6,331,200Z" transform="translate(-9.511 -26.15)" fill="#41c1c5"/>
      <path id="Trazado_126973" data-name="Trazado 126973" d="M324.19,199.91a14.85,14.85,0,0,1-15,15.16c-8.21-.18-14.82-7.19-14.82-15.66a14.85,14.85,0,0,1,14.82-15.16A15.465,15.465,0,0,1,324.19,199.91Z" transform="translate(-9.932 -26.15)" fill="#263238"/>
      <path id="Trazado_126974" data-name="Trazado 126974" d="M384.63,200.93a22.11,22.11,0,0,1-22.57,22.37,23.06,23.06,0,0,1-22.22-23.12,22.13,22.13,0,0,1,22.22-22.37A23,23,0,0,1,384.63,200.93Z" transform="translate(1.904 -26.15)" fill="gray"/>
      <path id="Trazado_126975" data-name="Trazado 126975" d="M363.13,177.87c-.36,0-.71-.06-1.07-.06a22.13,22.13,0,0,0-22.22,22.37,23.06,23.06,0,0,0,22.22,23.12h1.07Z" transform="translate(-1.547 -26.15)" fill="#41c1c5"/>
      <path id="Trazado_126976" data-name="Trazado 126976" d="M377.61,200.81a15.27,15.27,0,0,1-15.55,15.45,15.92,15.92,0,0,1-15.38-16,15.28,15.28,0,0,1,15.38-15.44A15.89,15.89,0,0,1,377.61,200.81Z" transform="translate(1.05 -26.15)" fill="#263238"/>
      <line id="Línea_1591" data-name="Línea 1591" x2="9.5" y2="0.17" transform="translate(233.454 173.67)" fill="none" stroke="#fff" stroke-miterlimit="10" stroke-width="1"/>
      <line id="Línea_1592" data-name="Línea 1592" x2="9.86" y2="0.17" transform="translate(294.435 174.55)" fill="none" stroke="#fff" stroke-miterlimit="10" stroke-width="1"/>
      <line id="Línea_1593" data-name="Línea 1593" x2="10.23" y2="0.18" transform="translate(356.598 175.45)" fill="none" stroke="#fff" stroke-miterlimit="10" stroke-width="1"/>
      <path id="Trazado_126977" data-name="Trazado 126977" d="M305.25,83.38l.07-.76-.22.22.15.54Z" transform="translate(-11.481 -26.15)" fill="gray"/>
      <path id="Trazado_126978" data-name="Trazado 126978" d="M275.75,94.59l.51.08,1.17-.36-1.68-.54.23.55-.68.16.45.11Z" transform="translate(-16.982 -26.15)" fill="gray"/>
      <path id="Trazado_126979" data-name="Trazado 126979" d="M289,103.89l-2.58-1-.46.27.07-.39-.83-.56-.95.4.31-.47-.71-.2-.23.32.44-.85-.54-1.19-.61-.53-1.36-.18h0l-1-1h-.51l.09-.33-.52-.21v-.23l-.29-.09-.68.29-1.12-.29-.57-.53-.1.26-.48.33.12.58-.37-.13.15-.53-.05-.28.09-.08.09-.25-1,.55h-.17l-.8,1.21h-.07l-.22-.32-.49-.25-.5.22h-.56l-.57-.75.21-1.67-.39-.31h-1.4l-.14-.09.21-.88h.07l.41-1.34h-.85l-.78,1.21-1.08.19-.4-.21-.57-.92V91.48l-.14-.06.14.06-.1-.51.09-.39,1.19-.93,1.16.26.16-.14.31.24-.15-.42.55-.26.14.11.46-.08.33.26h.24l.33-.13.88,2h.27l.15-.48-.49-2,1.59-1.79v-.26l.09-.15h.24l.09-.24-.24-.41v-.19l-.23-.34.14-.14v-.53h.12l.06.87.16-.12.07-.7h.25l.18-.51.71-.29h-.53l.56-.22.18-.17h.29l-.09-.31.27-.65.46-.45h.44l1-.77v.17l.32.13-.71.37v.45l.46-.11.33-.34.81-.27L280,82l.47-.21-.13-.16v-.28l-.57.58-.62-.11-.38-.34v-.42l-.16-.13v-.16l.35-.52-1.52.32-.77.77.88-1.16.37-.13.26-.36,2.2-.19,1.6-1v-.17l-.1-.11L282,78l-.19-.31-.37.07v-.33l-.89.35-.08-.16.91-.43-1.71-1.08V76l.28-.18-1.1-2-.32.42-.12.47-.12.15h-.21l-.35.25-.58-.51-.15-.7.12-.35-.8-.25-.73-.66-.35.14-1.07-.14-.15.3.23.27-.19.39.24.59-.35.86.52.47.08.88L274,77l-.49.22.28,1.27-.07.34.05.2h-.16l-.19.26-.29-.12-.62-.9v-.93l-.2-.25-2.9-1.14-.52.19v-.2l-.41-.84-.38-.1.22-1.43,1.19-1.27-1.06-.47,1.21.2.09-.35.51.08.5-.6-.88-.41v-.22l.7.37.52-.45-.2-.23.27-.14.23.18h.37l-.19-.28.06-.11L272,70h.3l.52-.44-.29-.72v-.17l.35-.15-.21-.41-1.21-.36v.38l.11.2-.06.18-.23.18-.17.41-.15-.25-.05.32.13.24-.24.21-.43-.59.15-.18V68.6l-.23-.27-.33-.08-.29.62-.11-.48.13-.33-.35-.15-.26.08v-.34l.2-.09-.52-.46v-.35l-.45-.35-.08-.17.25-.22.08-.4h.54l.51-.81-.94-.29-.73.15.1.24h-.23l.19,1.37-.21.24.11.23h-.29v1.08l.7.27-.12.53.17-.15.16.22-.58.42v.39l-.19.15-.18-.32v-.31l-.4-.12.26-.06.18-.16.4-.05-.19-.34h-.28l.29-.07-.6-.22-.75.4.57.42-.3.22v.26l-1.92-.1-.31-.17-.18-.31h-.57l-.51.28.16.16.78-.3-.57.36v.86l-.22-.1v-.33L261,69.49l.39-.32-.13-.3-2.25-.59-1.18.24v-.26l-.11-.31-.47.58-.52-.78-.21.08-.38.5-1.43.74.08-.22,1.22-.78h-.3l-1.18.57-.26-.14-.47.41.14.23L248.12,68l-.11-.2h-.59l-.17-.16-.44.12.13-.18-.27-.14-1.22.54.08.21-.76.1-.4.4-.14.43-.87.22-.09.26.94.94h.58l.11.34.37.08-1.14.24V71h-.43l-.19.24h-.3l-.46.32.5.22-.07.19.26.29h1l.61-.27-.1.28v.53l-.42.05-.18.33L244,73.1l-.14.41-.34.3-.17.36.31.23v.38l.42.46.41-.09.17-.17.11.85h1.06l.14-.21h.37l-.11.83-1,1-.53.08-.25.44,3.27-2.39-.27-.15,1.21-1.33.21.09v.15l-.35.09-.14.37v.29l-.12.18.14.13.68-.45h.49v-.21l-.15-.23.11-.2.71.14-.15.14v.14l.48-.11.07.07,1.14.09.31.23.42-.17-.07.25,1,.72.2-.2.28.16v-.34h.13v.52l-.26-.06-.23.08.55.88v-.7l.05.28.2-.14V76l.2.27-.11.28-.19.11v.42l.14-.15.22-.06.3.26-.14-.19v-.22l.26.39-.17.21-.3-.16.05.7.12-.14.19.08.08-.23.17.07.16-.1v.28h.15l.15.2-.1.17.06.3h.3l.08.23.43.33.08.62.91.41.13.24.47.15.3.42.06.41-.11.41-.16-.59v-.17l-1-.87-.82-.15,1.1,1,.49,1.15.05,3.8,1.16,1.93.72.26,1.48,2.71h-.28l.81.62.1.5.77.91.17-.13-.07-.32-.3-.14-1-1.94v-.21l-.27-.13-.31-.9h.13l.53.2.13,1,2.58,3.24v.3l-.11.14.28.5,2.53,1.32h1.34l.37.33h0l.39.37,1.17.35.12-.06h.1l.09.3.54.62v.16l.09.35.2-.05,1.4,1,.27-.09-.1-.22.18-.2.39-.15.42.81.06,1.51-.54.71v.05l-.24.15L273,103l.21.21h.17l-.16.25h0l-.29.35.14.55-.11.11,1.86,3.56,2,1.5-1.45,11,.16.27.16-.73.13-.15.09.15-.13,1.71-.18.12v.26l-.22-.1.15-.27-.18-.29.11.32-.39.27v.19l-.22.25h.45v.2l-.11.25h.33v.16h-.44l-.24.22.13.18.18-.13h.14l-.36.42.16.29.26-.35-.1.59-.21.26V125l.36-.06.07.14-.16.19h.33l.22.09-.31.15-.1.24.26-.1h.54l-.64.27V126l.72-.24-.45.37h-.37v.27l.53.18-.06-.14.72-.79-.1.43h.32l-.2.18v.28l-.15-.33-.07.25-.17-.07-.27.32.26.06.17.36.13-.32.25.37.12-.14.37.3v-.27l1.09-.2-1.1-.83v-.17l-.13-.22h0l-.31-.16v-.06h.33l-.22-.68.07-.37,1.06-1.3.07-.4-.35-.1-.25-.61.58-.39.43-1.2.2.13.14-.31-.25.07-.19-.1-.07-.68.56.16.41-.24v-.67l.13-.16.9-.07.67-.39.32-.53-.65-1.13h.12l.6.2.8-.09,1.09-2v.51l.81-1.23.21-1.49,1.38-1,.91-.12,1-2.15.09-2,.07-.12.22.07,1.11-1.74-.07-1.17-.31-.23ZM277.31,127Z" transform="translate(-18.805 -26.15)" fill="gray"/>
      <path id="Trazado_126980" data-name="Trazado 126980" d="M275.36,93.73l-2.35-1.19-1.24.53.6-.33,1.68.73.17.32,1.14-.06Z" transform="translate(-17.509 -26.15)" fill="gray"/>
      <path id="Trazado_126981" data-name="Trazado 126981" d="M273.91,94.54l.72.13-.72-.13Z" transform="translate(-17.395 -26.15)" fill="gray"/>
      <path id="Trazado_126982" data-name="Trazado 126982" d="M277.91,94.5l.58-.02-.58.02Z" transform="translate(-16.644 -26.15)" fill="gray"/>
      <path id="Trazado_126983" data-name="Trazado 126983" d="M269.35,102.11l.22.41-.22-.41Z" transform="translate(-18.318 -26.15)" fill="gray"/>
      <path id="Trazado_126984" data-name="Trazado 126984" d="M293.99,66.83l-1.41-.03.16-.65,1.29.45.12-.54-.92-.91.52.06.34-.43-.85.01-.16-.26.14-.34.78.24.6-.18-.47-.49.79-.11.09-.28-.64-.44.62-.14-.17-.74-.63-.15-.26-.31,1.45-.12-.22-.42-.59-.13.49-.13-1-.13.22-.76,1.22-1-.24-.31-.59.23.48-.35.9-.18-.66-.15,2.21-1.04-1.22-.35-.72.41-.73.07-.31-.12-1.3,1.01.59-.86-.22-.58-1.59.79.74-.55-2.67.25,4.02-.98-5.63-.71-.6.37-2.67.12.35.36-.63.23.9.62-2.19-.6.43.55-.49.04-.65-.38-.03.51-.29.29-.19-.82-2.52.74.1.61-.67-.1-1.59,1.05.86.12-.29.75-2.44.9.21.3,2.08.44-1.8.32.63.17.01.32.42.25,1.81-.22,1.7.71,1.24,2.01-.18.51.17.54.53-.28.13.4.67.35-.14.17-.94-.05.95.47.31.41-.07.56-.45.04-.57.9.34.34-.27.37.49.57.06.69.83,1.43,2.17,1.32.26-.32.15-1.28.59-.8.01-.29.14-.19-.07-.3.05-.16.83-.72.17-.01.08.21.66-.18,1.22-1.31,3.49-1.49.13-.21Z" transform="translate(-14.704 -26.15)" fill="gray"/>
      <path id="Trazado_126985" data-name="Trazado 126985" d="M283.32,67.6l-.28-.29-.69-.12-.05.35.39.25.63-.19Z" transform="translate(-15.756 -26.15)" fill="gray"/>
      <path id="Trazado_126986" data-name="Trazado 126986" d="M269.1,63.81l.98.31.25-.13,2.87.03.31-.65-3.54-.19.11-.38-1.68-.52-.88.17,1.57.74.01.62Z" transform="translate(-18.084 -26.15)" fill="gray"/>
      <path id="Trazado_126987" data-name="Trazado 126987" d="M273.44,73.21l.05-.45-.05.45Z" transform="translate(-17.554 -26.15)" fill="gray"/>
      <path id="Trazado_126988" data-name="Trazado 126988" d="M265.55,67.92l.49-.04-1.17-.82-.24-2.04-.68.2.44.42-.48-.2-.37.01.23.97-.22.22-.26-.68-.65-.27.27.33-.41.05-.66-.39-.23.38-.26-.11.06-.47-1.51.71-.1.28.3.53.82-.15-.91.44,2.2.37-1.91.4,2.04.9,1.55-.57,1.81.16-.23-.35-.27-.01.35-.27Z" transform="translate(-19.557 -26.15)" fill="gray"/>
      <path id="Trazado_126989" data-name="Trazado 126989" d="M272.08,72.86l.59-.47-.59.47Z" transform="translate(-17.759 -26.15)" fill="gray"/>
      <path id="Trazado_126990" data-name="Trazado 126990" d="M281.97,78.98l-.17-.13-1.03,2.05,1.37-.05-.09.29.3-.15.66.15-.18-.57-.14-.09.02-.4-.59-.14-.16-.23-.27.02.03-.29.25-.46Z" transform="translate(-15.919 -26.15)" fill="gray"/>
      <path id="Trazado_126991" data-name="Trazado 126991" d="M278.89,79.82l.97.35-.97-.35Z" transform="translate(-16.415 -26.15)" fill="gray"/>
      <path id="Trazado_126992" data-name="Trazado 126992" d="M273.2,71.84l-1.6-1.24-.39.28-.39,1.1.44-.03.18.32.59-.39,1.17-.04Z" transform="translate(-17.817 -26.15)" fill="gray"/>
      <path id="Trazado_126993" data-name="Trazado 126993" d="M265.08,63.91l-.32-.19.32.19Z" transform="translate(-19.186 -26.15)" fill="gray"/>
      <path id="Trazado_126994" data-name="Trazado 126994" d="M275,69.36l.05-.54-.45-.11-.32.63.72.02Z" transform="translate(-17.319 -26.15)" fill="gray"/>
      <path id="Trazado_126995" data-name="Trazado 126995" d="M266.58,66.74l.62-.21.46-1-.21-.04-.05.16-.43-.18.45-.44-.25-.37-1.25.56.38.34-.69-.05.97,1.23Z" transform="translate(-18.852 -26.15)" fill="gray"/>
      <path id="Trazado_126996" data-name="Trazado 126996" d="M258.33,67.32l2.62-1.98-.43-.43-1.62-.36-1.09.23.16.37-.56,1.22.92.95Z" transform="translate(-20.284 -26.15)" fill="gray"/>
      <path id="Trazado_126997" data-name="Trazado 126997" d="M269.89,61.68l-.34.32.34-.32Z" transform="translate(-18.268 -26.15)" fill="gray"/>
      <path id="Trazado_126998" data-name="Trazado 126998" d="M259.69,63.72l.54-.42-.54.42Z" transform="translate(-20.135 -26.15)" fill="gray"/>
      <path id="Trazado_126999" data-name="Trazado 126999" d="M254.87,78.25l.53.86-.17-.61-.36-.25Z" transform="translate(-21.059 -26.15)" fill="gray"/>
      <path id="Trazado_127000" data-name="Trazado 127000" d="M268.73,61.58l-1.02.25,1.02-.25Z" transform="translate(-18.552 -26.15)" fill="gray"/>
      <path id="Trazado_127001" data-name="Trazado 127001" d="M276.4,66.44l-.53.03-1.59-.95-.39.35-.21-.08-.58.23.02-.68-.25-.47-.68.02-.75.36.11.59-.18.38.37.29-.59-.25-.08-.51.19-.58.35-.37-1.38.44-.32,1.4.74.14-.08.18-.52.07,2.51.69.36-.19.79.1-.05-.25.08-.2,1.14.88-.35.35.55-.2.85.76v.7l.58-.07.54.29-.51.3-.89-.35-.09.68-1.29.34-.2.51,1.64-.12.41.4.2.51,1.93.73-.92-1.04,1.48.13-1.12-1.59.1-.45.5.18.51.56.73-.37.46-.53-2.42-1.59.48-.14-.4-.22.2-.19-.19-.33-.25.15.06-.32-.79-.37-.45.12-.13-.12.3-.33Z" transform="translate(-17.191 -26.15)" fill="gray"/>
      <path id="Trazado_127002" data-name="Trazado 127002" d="M273.06,64.78l.21.49.53.18.84-.19-.89-.47-.69-.01Z" transform="translate(-17.469 -26.15)" fill="gray"/>
      <path id="Trazado_127003" data-name="Trazado 127003" d="M262.89,61.66l-.21-.15-.88.35.46.34.63-.54Z" transform="translate(-19.678 -26.15)" fill="gray"/>
      <path id="Trazado_127004" data-name="Trazado 127004" d="M264.71,60.71l.46.24-.55.12,2.02.36-.14-.44-.79-.54-1.23-.16.23.42Z" transform="translate(-19.058 -26.15)" fill="gray"/>
      <path id="Trazado_127005" data-name="Trazado 127005" d="M261.61,61.8l-.46-.1.46.1Z" transform="translate(-19.863 -26.15)" fill="gray"/>
      <path id="Trazado_127006" data-name="Trazado 127006" d="M264.82,62.2l-.53-.46.53.46Z" transform="translate(-19.256 -26.15)" fill="gray"/>
      <path id="Trazado_127007" data-name="Trazado 127007" d="M260.81,63.1l.05.27-.3.34.36-.01-.62.25.93.06.27-.13.67.03-.51.34-.02.37,2.51-.61.13-.83-.39.18-.64-.78-.37.45.03.27.26.29-1.99-.75-.37.26Z" transform="translate(-19.683 -26.15)" fill="gray"/>
      <path id="Trazado_127008" data-name="Trazado 127008" d="M258.54,63.49l.52-.26.24.31.73-.88.1.36.6-.27v-.3l.22-.22-.28-.17-.21.16-.46-.03-1.59,1.08.13.22Z" transform="translate(-20.188 -26.15)" fill="gray"/>
      <path id="Trazado_127009" data-name="Trazado 127009" d="M262.13,61.35l1.01-.18-.76-.18-.66.34.41.02Z" transform="translate(-19.661 -26.15)" fill="gray"/>
      <path id="Trazado_127010" data-name="Trazado 127010" d="M267.66,59.76l.34.42h1.02l-.62.36,1.32.65.5-.04.71-.81.59-.25-.68-.42-.16-.37-2.28-.96.04.18-.53.38.06.44-.31.42Z" transform="translate(-18.275 -26.15)" fill="gray"/>
      <path id="Trazado_127011" data-name="Trazado 127011" d="M267.48,61.53l.62-.15.03-.3-1.1-.39.45.84Z" transform="translate(-18.674 -26.15)" fill="gray"/>
      <path id="Trazado_127012" data-name="Trazado 127012" d="M266.83,59.81l-.47-.18.47.18Z" transform="translate(-18.865 -26.15)" fill="gray"/>
      <path id="Trazado_127013" data-name="Trazado 127013" d="M268.39,63.51l-.88.43,1.05.25-.17-.68Z" transform="translate(-18.587 -26.15)" fill="gray"/>
      <path id="Trazado_127014" data-name="Trazado 127014" d="M266.18,62.46l.11.46-.41-.11-.12.29-.21.03-.58-.59-.04.5.55.43.84-.05-.08.5.73.02.29-.34-.03-.4-.4-.6-.65-.14Z" transform="translate(-18.955 -26.15)" fill="gray"/>
      <path id="Trazado_127015" data-name="Trazado 127015" d="M269.54,57.93l.2.05.14.15-.11.28.32.23.89.01.1.19,2.49-.46v.34l-1.15.33.44.52-1.7-.43.02.64,1.33.92-.94-.18-.9.49h.83l-.07.25.4.52-.46-.04-.61-.34-.06.65-.71.43,3.95-.04.16-.36-1.15-.12.01-.24.92-.06.06-.4.66-.07.7-.85-.94-.2.79-.26.44-.39.68.03,2.58-1.68-1.05-.03,1.9-.64.1-.4-.95-.34-.8.15.14-.25-6.78.79-.57.44-.54-.07-.28.26-.75.1.27.08Z" transform="translate(-17.268 -26.15)" fill="gray"/>
      <path id="Trazado_127016" data-name="Trazado 127016" d="M243.8,78.34l.46-.28-.46.28Z" transform="translate(-23.184 -26.15)" fill="gray"/>
      <path id="Trazado_127017" data-name="Trazado 127017" d="M247.85,76l-.31.41-.25.12.15.3h.18l.45-.39-.13-.23.25-.14-.07-.19-.27.12Z" transform="translate(-22.476 -26.15)" fill="gray"/>
      <path id="Trazado_127018" data-name="Trazado 127018" d="M243.27,74.97l-.31.13.48.15.07-.27-.24-.01Z" transform="translate(-23.336 -26.15)" fill="gray"/>
      <path id="Trazado_127019" data-name="Trazado 127019" d="M303.13,84.29l-.31.13.31-.13Z" transform="translate(-11.907 -26.15)" fill="gray"/>
      <path id="Trazado_127020" data-name="Trazado 127020" d="M311.21,86.14l-.79-.07-.22.11.53.14.48-.18Z" transform="translate(-10.411 -26.15)" fill="gray"/>
      <path id="Trazado_127021" data-name="Trazado 127021" d="M313.91,86.23l.2-.26-.01-.08-.51.19-.17.29.49-.14Z" transform="translate(-9.833 -26.15)" fill="gray"/>
      <path id="Trazado_127022" data-name="Trazado 127022" d="M296.48,70.84l.56-.58-.45-.77-.24.03-.34-.18-.04.25-.56.07-.18-.06-.24.19-.14-.08-.17.13-.04.19-.24.13-.09-.33-.54-.39.05.23-.13-.01-.23.11-.18.27.77.08-.07.2-.59.25h.52l.23.28-.3.33.45-.03.65.27,1.54-.58Z" transform="translate(-13.341 -26.15)" fill="gray"/>
      <path id="Trazado_127023" data-name="Trazado 127023" d="M298.57,78.37l1.05-.42V76.94l.27-.2-.2-.45-.85.18.17.19-.29.17-.38.02.21.59-.1.34-.24.28.36.31Z" transform="translate(-12.631 -26.15)" fill="gray"/>
      <path id="Trazado_127024" data-name="Trazado 127024" d="M299.64,74.4l-.23.37.23-.37Z" transform="translate(-12.568 -26.15)" fill="gray"/>
      <path id="Trazado_127025" data-name="Trazado 127025" d="M299.56,74.95l.25.23-.13.3.19.22-.29.26.25-.11.15.24.2-.32.03.28-.13.41.52-.07.24.52-.03.37-.36.02-.11.07-.11.26.21.15-.34.28.14.17.58.1.03.1-.39.07-.46.65.27-.18.26.06.16-.19.54-.14.28.07.9-.35-.15-.08.03-.24.29-.4-.55-.22v-.22l-.86-1.39-.33-.05.41-.99-.67-.01-.12-.13.27-.35.06-.24-.16.17-.39.02-.47.74-.21-.08Z" transform="translate(-12.216 -26.15)" fill="gray"/>
      <path id="Trazado_127026" data-name="Trazado 127026" d="M306.13,76.43l.26-.34.09-.44-.12.1-.12-.1-.24.13.14.36-.1.12.09.17Z" transform="translate(-11.278 -26.15)" fill="gray"/>
      <path id="Trazado_127027" data-name="Trazado 127027" d="M308.61,74.48l-.24.54.24-.54Z" transform="translate(-10.854 -26.15)" fill="gray"/>
      <path id="Trazado_127028" data-name="Trazado 127028" d="M310.04,73.79l-.23.03.23-.03Z" transform="translate(-10.579 -26.15)" fill="gray"/>
      <path id="Trazado_127029" data-name="Trazado 127029" d="M309.74,74.33l.37-.29-.23-.07-.14.36Z" transform="translate(-10.576 -26.15)" fill="gray"/>
      <path id="Trazado_127030" data-name="Trazado 127030" d="M308.44,58.3h1.31l-.75.31,1.27.25,1.37-.85-1.25-.17-.2.12-.2-.26-.07.4-.28-.17-.3-.01-.39-.24.02.18-.26-.07.01.23-.27-.21-.15.16.18.17-.04.16Z" transform="translate(-10.494 -26.15)" fill="gray"/>
      <path id="Trazado_127031" data-name="Trazado 127031" d="M305.95,59.69l.25.19-.47-.54.22.35Z" transform="translate(-11.331 -26.15)" fill="gray"/>
      <path id="Trazado_127032" data-name="Trazado 127032" d="M306.28,58.95l-.21.4.36.44.51.02.38-.51.03.25.31-.05.14.13-.99.47.32.14.72-.06-.99.36.36.31.35.03-.17.16.29.19.24-.09.84-1.6.44-.16.07.09.05.31.13.14-.06.39.34.07.2.2.76-.5-.55-.14-.06-.16-.28-.11-.2-.22-.07-.23-.92-.32-.14-.31-.29.15.09-.29-.37-.14-.19-.18-.14.39.22.61-.64-.7-.14.33-.1.08-.27-.24.3-.14-.2-.07-.56.05-.29.15V59l.38-.05Z" transform="translate(-10.781 -26.15)" fill="gray"/>
      <path id="Trazado_127033" data-name="Trazado 127033" d="M353.08,81.31l-.31.15-.21.49v.32l.39-.14-.22-.3.87.09.77-.4.61-.73-.72.23-.81-.64-.24.13-.13.8Z" transform="translate(-2.094 -26.15)" fill="gray"/>
      <path id="Trazado_127034" data-name="Trazado 127034" d="M348.87,86.27l-.16.29.21-.12.2.91.41-.71-.08-.26-.25-.21-.33.1Z" transform="translate(-3.058 -26.15)" fill="gray"/>
      <path id="Trazado_127035" data-name="Trazado 127035" d="M351.28,84.67l-.23.42-1.22.21-.57.49v.25l1.33-.4.16.36.43-.03.13-.29.12-.06.74-.03.22-.25.35-.07.19-1.23.34-.46-.18-1.1-.47.16-.25,1.11-.57.71-.24-.13-.28.34Z" transform="translate(-2.504 -26.15)" fill="gray"/>
      <path id="Trazado_127036" data-name="Trazado 127036" d="M350.01,86.44l.32-.15.25-.37-.37-.04-.35.12-.05.55.2-.11Z" transform="translate(-2.854 -26.15)" fill="gray"/>
      <path id="Trazado_127037" data-name="Trazado 127037" d="M345.36,91.42l.46-1.29-.66.59.2.7Z" transform="translate(-3.76 -26.15)" fill="gray"/>
      <path id="Trazado_127038" data-name="Trazado 127038" d="M341.54,92.98l.19-.5-.45-.02-.36.57.62-.05Z" transform="translate(-4.551 -26.15)" fill="gray"/>
      <path id="Trazado_127039" data-name="Trazado 127039" d="M347.13,96.86l-.43.41-.32-.08-.43.29-.14.43.6-.32.3.71.39.21-.02-.53.4-.19-.09-.91-.26-.02Z" transform="translate(-3.496 -26.15)" fill="gray"/>
      <path id="Trazado_127040" data-name="Trazado 127040" d="M345.02,93.98l.2.88,1.16.59.44,1.06.29-.36-.1-.5-.67-.68-.51-.09-.19-.38.25-.59-.08-.81-.54-.04-.07.97-.18-.05Z" transform="translate(-3.59 -26.15)" fill="gray"/>
      <path id="Trazado_127041" data-name="Trazado 127041" d="M345.23,95.22l.35.43-.35-.43Z" transform="translate(-3.789 -26.15)" fill="gray"/>
      <path id="Trazado_127042" data-name="Trazado 127042" d="M344.55,96.65l-.47.69.67-.7.1-.45-.3.46Z" transform="translate(-3.951 -26.15)" fill="gray"/>
      <path id="Trazado_127043" data-name="Trazado 127043" d="M346.77,96.66l-.27.2.27-.2Z" transform="translate(-3.557 -26.15)" fill="gray"/>
      <path id="Trazado_127044" data-name="Trazado 127044" d="M346.38,96.31l-.56-.48.02.56.2-.12.08.78.4-.67-.14-.07Z" transform="translate(-3.628 -26.15)" fill="gray"/>
      <path id="Trazado_127045" data-name="Trazado 127045" d="M356.88,102.66l-.45.31-.79.05.6.29.77-.44.11-.37-.24.16Z" transform="translate(-1.636 -26.15)" fill="gray"/>
      <path id="Trazado_127046" data-name="Trazado 127046" d="M357.37,102.61l-.12-.42-.11.03.23.39Z" transform="translate(-1.527 -26.15)" fill="gray"/>
      <path id="Trazado_127047" data-name="Trazado 127047" d="M355.34,103.23l-3.74-1.87-.93.78-.39-1.02-.85-.11-.31.27.19.11.21.28.59.02-.03.13-.54.13.23.36,2,.69.21.47-.01.37-.35.34.86-.07.79.48.67-.6.77.18.82.8.78.14-.06-.25-.64-.47-.35-.89.08-.27Z" transform="translate(-2.078 -26.15)" fill="gray"/>
      <path id="Trazado_127048" data-name="Trazado 127048" d="M330.83,97.06l-.15.93.19.61.56-.6-.6-.94Z" transform="translate(-6.52 -26.15)" fill="gray"/>
      <path id="Trazado_127049" data-name="Trazado 127049" d="M319.41,106.21l-.13.13-.05.29-.4.37-.01.22-1.23.66-.33,3.1.24.77.64.17.37-.16,1.08-4.05.22-.05-.4-1.45Z" transform="translate(-8.866 -26.15)" fill="gray"/>
      <path id="Trazado_127050" data-name="Trazado 127050" d="M320.98,96.07l.37-.09-.37.09Z" transform="translate(-8.426 -26.15)" fill="gray"/>
      <path id="Trazado_127051" data-name="Trazado 127051" d="M354.85,118.94l-.63-.19.17.83.49.63.21-.16.08-.22.22.05.09-1.09-.63.15Z" transform="translate(-1.94 -26.15)" fill="gray"/>
      <path id="Trazado_127052" data-name="Trazado 127052" d="M348.81,105.73l.48-.13-.48.13Z" transform="translate(-3.086 -26.15)" fill="gray"/>
      <path id="Trazado_127053" data-name="Trazado 127053" d="M351.13,116.44l.45-.07-.45.07Z" transform="translate(-2.646 -26.15)" fill="gray"/>
      <path id="Trazado_127054" data-name="Trazado 127054" d="M357.53,112.67l-.11-1-.81-.9-.13-.43-.15-.13-.21.02-.36-.89-.85-.55-.7-2.04-.29.01-.47-1.57-.24.3-.28,2.17-.32.49-1.76-1.14.06-.55.24-.2.12-.28-.08-.2-.14.17-.14-.22-.28.14-1.06-.47.14.27-.57.2-.52.81.02.35-.43.07-.64-.53-.21.14-.11.19-.29.02-.06.18-.18.14-.07.41-.27-.03.06.31-.12.22-.14-.31-.29.17-.02.48-.53.6-2.25.94-.2.3-.04-.25-.19.3-.05,1.13.21.55-.22-.21.11.29-.26-.22,1.01,2.64-.08.55-.21.35.1.27.27.26.71.07,4.91-1.7,1.1.42.02.25.33.35.09.46.99-.82-.39.92.34-.04.21-.12-.05.45.27-.02.51,1.1,1.13.46.47-.31.15.07.07.12.1-.08.37.35.52-.53.77-.16,1.37-4.56Z" transform="translate(-2.245 -26.15)" fill="gray"/>
      <path id="Trazado_127055" data-name="Trazado 127055" d="M362.84,121.95l.14-.19-.14.19Z" transform="translate(-0.45 -26.15)" fill="gray"/>
      <path id="Trazado_127056" data-name="Trazado 127056" d="M319.28,66.97l.68-.17-.33-.26-.35.43Z" transform="translate(-8.712 -26.15)" fill="gray"/>
      <path id="Trazado_127057" data-name="Trazado 127057" d="M320.73,64.92l.06.3.14-.14.75.5.95-.03-.5-.48-.13-.88,1.03-1.61,3.79-2.1-4.49,1.46-.39.82-.31.19-.14.53-.58.4.12.28-.67.53.37.23Z" transform="translate(-7.77 -26.15)" fill="gray"/>
      <path id="Trazado_127058" data-name="Trazado 127058" d="M335.03,56.29l-.49.09.49-.09Z" transform="translate(-5.815 -26.15)" fill="gray"/>
      <path id="Trazado_127059" data-name="Trazado 127059" d="M353.91,62.68l-.48-.5-.61.34,1.09.16Z" transform="translate(-2.232 -26.15)" fill="gray"/>
      <path id="Trazado_127060" data-name="Trazado 127060" d="M353.04,61.9l-.35.17.35-.17Z" transform="translate(-2.362 -26.15)" fill="gray"/>
      <path id="Trazado_127061" data-name="Trazado 127061" d="M335.88,57.47l-.25.37,1.67.56.42-.78-.82-.43-1.02.28Z" transform="translate(-5.394 -26.15)" fill="gray"/>
      <path id="Trazado_127062" data-name="Trazado 127062" d="M337.56,59.13l2.24-.66-.48-.34-.53.14.04-.22-.21-.26-.39.17-.13.34-.28.24-.26.59Z" transform="translate(-5.003 -26.15)" fill="gray"/>
      <path id="Trazado_127063" data-name="Trazado 127063" d="M351.92,61.45l1.55-.15-.03-.48.68.44.26-.37-.09-.35-.8-.15-.53.17-.71-.36-.63.99.3.26Z" transform="translate(-2.227 -26.15)" fill="gray"/>
      <path id="Trazado_127064" data-name="Trazado 127064" d="M353.78,75.96l-.24-.49-.23,4.47.24-.28.32.3-.32-.85.11-.67.44-.06.12-.08-.44-2.34Z" transform="translate(-2.164 -26.15)" fill="gray"/>
      <path id="Trazado_127065" data-name="Trazado 127065" d="M342.26,62.03l-.22.2.66-.14-.44-.06Z" transform="translate(-4.357 -26.15)" fill="gray"/>
      <path id="Trazado_127066" data-name="Trazado 127066" d="M355.85,61.38l.89-.22-1.54-.38-.26.29.91.31Z" transform="translate(-1.725 -26.15)" fill="gray"/>
      <path id="Trazado_127067" data-name="Trazado 127067" d="M335.31,57.15l-.09.16-.26.15.33.24,1.44-.68.1-.35-.43-.61-.94.52-.16.29.01.28Z" transform="translate(-5.552 -26.15)" fill="gray"/>
      <path id="Trazado_127068" data-name="Trazado 127068" d="M370.65,67.88l.42.09-.08-.12h.28l.24-.35-1.24-.63h-.49L370,67l-.05.27-.24-.11v-.42l-.14-.22-5.35-1.76-.12.27.18.33-.09.4-.88-.45.45-.24-.47-.2-.44.4h-2.06l-.07.39-.1-.4-.49-.18.07-.27-.61-.57-2.27.13-.1-.2-1.08-.36v-.13l.3-.17-1.19-.18-.22.41h-.4l.29-.21-.41-.13.2-.11H355L353,63l-.08.19-.67.41h.3l-.1.22.11.28h-.65l-.1.09v.17L351,64l-.43.17-.76-.23-.44.76-.23-.08-.89-.95h.42l-.24-.88-.25-.18h-.63l-.75-.38-.36.43v.31l-1.87.03.15-.2h-1.94v.22l-.06-.4-.19-.05-.38.08-.42-.23-.42.28.22.06-1.61.62.09-.29,2-1.17.18-.23.44-.21.17-.25-.16-.14.18-.08-.12-.38h-.24l-.08-.34-1.53-.09-.24.16-.46.07.26-.4-1-.08.45-.21v-.16l-.69-.18-.49.13-.65.73.07.17-.77.19.24.19-1.07.13.1-.23-.35.11h-.24l-.59.19.22.16-2.18.68-.05.1-.14.11.1.14h-.31l.36.25h-.28l.28.26v.18l-2.11.27-.11.71.49.28.21.39-1.72-.56-.23.21.35.19-.7.17.82.61-.06.12-.42-.23h-.62l.07-.68-.16-.5-.19.6-.43.27-.15.25.42.56-.2,1.11h.28l.42-.11.7.24.14.32-.17.3.42.31h-.41l-.16-.25.09-.3-.42-.42-.56.19.08.56-.91,1.12h-1l-.18-.17.61.11.83-.84.17-.62-.29-.35.08-1.24-.3-.45.28-1-1.15-.17-1.08,1.62.2.05-.18.81.43.17.15.33.22.12-.22.41-3.56-1.45.11.34.5.29.16.33-.11.23-.44.24V67l-.22-.18-.55.33h-.61l-.34.28h-.49l.26-.52-.5.18-.07.23-.16-.1-1.57.7-.08.44-.62.11-.28-.3v-.26l.58-.15-.22-.38-.91-.18.17.44-.14.46.25.5-.11.32h-.16l-.1-.11-.37-.07-.89.59.17.68-.81-.11-.41-.26-.22.23.11.24.35.12v.25l-.27.06-.61-.29-.28-.53V69.2l-1-.85,2.26.68,1.05-.56v-.48l-3.16-1.34.27-.1-.24-.11-.47.06h-.43l-.23-.2h.18l.49-.2-.19-.2-.46-.19-.37.26v-.23l-.15-.22-.44.56V65.7l-.57.55.06-.26.23-.33v-.15l-.2.19h-.25l-.07.16-.32.16-.13.4-.13-.26.27-.38-.42.12v.27l-.1.09h-.27l.2.2h-.17l-.19-.13-.12.09.08.26-.12-.08H309v-.24h-.25l-.1.12v.19l-.12.1-.37.06-.18.29h.22l.05.15v.1h-.19l-.15-.1-.2.12.08-.34-1,.91h.12l1.05-.38v.22l-.1.07-.14-.08-.78,1.13-.06.3-.28.06-.05.66-.47.14.2.24-.43.22-.39.57-.2-.17v.23l-.54.3.19.16h-.31L304,72h-.14l-.16.19.14.2-.11.74.19.06.25-.11.07.12-.19.18h-.14l-.12.12v.24h.39L304,74l.38.33.42.11.66-.58.25-.06.09-.3.88,2.46h.28l.24-.38h.3l.21-.19.12.06L308,75h-.13l.05-.86.74-.94-.34-.42-.25-.07-.05-.46.65-1.23.89-.72v-.4l.13-.33.24-.22.57-.05.29.13.13.31-1.44,1.58v1.4l.95.36,1.44-.38.17-.25-.17.25.15-.06.23.26.31.07-2.12.52-.22.24.08.25.21.14.07.16h0v.4l-.3.16-.32-.41-.34.19-.2.72h0v.56l.06.06-.12.22h-.41v.1l-.2.12-.17-.25-1.44.6h0l-.22-.12v-.24l-.73.38-.57-.36-.17-.3h.44l-.13-.25h-.16l.1-.26.23-.14-.17-.19v-.63l-.48.3v.18L305,75l-.18.3.35,1.53-.15.16h-.54v.08l-.45.07-.14.28h-.17l-.17.1-.45.72-.37.17-.82,1-.45-.17-.21.17.05.43H301l-.22-.12h-.35l-.22.2v.25l.79.25.49.84-.22,1.23-2.25-.16-.3.22v3h.75l.43.46L300,86l1-.19.93-1v-.6l1-.85.15-.34v-.11l.3-.41.65.15,1.06-.65,2.47,2.28v.76l.39-.59-.16-.31.34-.19h.27l-2-2v-.41l.16-.24h.23l.12.29.28.13.32.56,1.2.79.07-.2-.07.2.09.85.24.34h0l.2.35.57.21h-.38l.26.62.34.17L310,85.2h.25l-.16-.15.13-.09h.26l-.12-.33h-.3l.12-.22-.29-.45.18-.12h.29l.07-.31.22.08.27-.16.45.23.34-.24.48-.06-.27-.25-.21-.61.36-.44v-.22l.37-.56h0l.48-.73.4-.08v.27l.59.08-.48.31.36.18v.31l1.12-.35-.37-.1-.29-.32,1.57-.63-.44.31.13.22-.5.52,1.61,1.21.13.42-.08.14-1.3.3-1.28-.45-1.89.48-.18.32-.75.09-.08.3.15.11v.81l.42.36.18.06.22.25.76-.26.49.31.37-.08.34-.25.28.07.27-.09L314.34,87l.19.09h0v0l-.19-.08L314,88l-3.19-.23h0l-1-.44-.8.48.05.53-1.22-.24-.59-.51-1.06-.22-.57-.44.28-.29.08-.9-.05-.15-3.4.22-1.25.77-1.35-.32-.4.83-.54.31-.47.74v.62l-2.6,4,.28,1.11-.26,1.48L296,96v.43l3.09,3.26,1.83-.23.27.1,1.86-.81h0l.54.14.53.76.9-.17.15.22.27.06.1.4-.07.36h0l-.09.54-.06.08.14.21-.34.43,1.58,3-.06.43.23.85-.75,2.53L308.4,116l.34.27,2.41-.55,2.11-2.4.19-.88-.14-.16,1-.8-.14-1.93,2.12-2.14-.67-3.56,4.5-7.42-.23-.14-2.46.49-.19-.23-.05.07.05-.07-.19-.08.21-.2-3.91-7.81.61,1,.22-.58,3.12,7,2.92-1.09.35-.42,1-.32.14-.32.4-.09.24-.38.23-.13.12-.56.6-.72v-.22l-.31-.43-.6-.24-.3-.94-.43.56-1.12.52h-.07l-.15-.26V90.2l-.24.4h0l-.94-2v-.07l.67-.18.57,1,1.27.58.58-.2.28.53,3.48.22.24.5.71.53h.4l-.5.21.77.69.5-.65,1.72,6,.68-.65.56-2.64,2.07-1.92.11-.43,1.5-.72,1,2-.05.66.15.22h.36l.31-.42.19.16,1.49,5.69,1.06.76L339,99l-1.54-2,.25-1.5.31-.11.69.48.1.37h.23v.22h.29l.2.2-.1.36.18.16.52-.67.73-.33.28-.55-.08-1-1.2-2.06.72-.86.64-.07.18.53.1-.18,1.23-.85,1-.12,1.24-1.22v-.4l.26-.14.7-1.3-.5-.21.39-.22-.55-.48h.53L345.15,86l-.32-.25.35-.61.84-.45-.21-.26-.36-.15-.49.37-.23-.33-.38-.13v-.52l1.52-.8-.31.89h.26l.68-.45h.18l.42.23-.22.45.07.25.18.1.29-.07h.08l.12.22-.11,1.33,1.07-.45.15-.18-.48-1.28-.33-.34.11-.37.64-.46.13-.5.51-.53h0l.3-.2.43.26,2.39-2.81.68-2.79-.65-.64h-.32l-.23.31h-.21v-.41l-.23.3-.05-.42H351V75l3-2.65,2.53-.2.54.2-.19.27,1.41-.28-.15-.13v-.35l1-1.12.62-.08.24.11.27-.13-.18.39.21.16-.1.17,1.07-.57.08-.41.64-.27v.1l-2.65,2.9-.35.09-.47,1.47.42,2.53.58-.63.08-.43.25-.19.28-.07v-.35l.35-.39.45-.1-.07-.41.27-.51h.29l-.18-.27.07-.69h-.24l-.05-.43.6-.91h.33l.14.07.37-.41.08.36.35-.23.93-.1.28.25.15-.25L366.7,70h.74v-.33l-.81-1.06-.31-.07.37-.13.2.2h.42l.5-.3.11-.22-.07-.24v-.21l.14-.14h.2v.22l.13.28,1,.2.26.35.57.24h.44l-.17-.23h.18v-.62l.11-.05Z" transform="translate(-2.706 -26.15)" fill="gray"/>
      <path id="Trazado_127069" data-name="Trazado 127069" d="M327.89,63.46l-.4-.17-.16.33.56-.16Z" transform="translate(-7.186 -26.15)" fill="gray"/>
      <path id="Trazado_127070" data-name="Trazado 127070" d="M330.76,63.56l-.28.14.28-.14Z" transform="translate(-6.62 -26.15)" fill="gray"/>
      <path id="Trazado_127071" data-name="Trazado 127071" d="M274.08,91.65l-.13.12.26.43-.13-.55Z" transform="translate(-17.435 -26.15)" fill="gray"/>
      <path id="Trazado_127072" data-name="Trazado 127072" d="M279.82,97.86l.27-.05-.02-.23-.26.09.01.19Z" transform="translate(-16.312 -26.15)" fill="gray"/>
      <path id="Trazado_127073" data-name="Trazado 127073" d="M340.7,102.11l-.19.1.19-.1Z" transform="translate(-4.713 -26.15)" fill="gray"/>
      <path id="Trazado_127074" data-name="Trazado 127074" d="M346.3,104.38l.12-.13-1.47.21.6.11.75-.19Z" transform="translate(-3.689 -26.15)" fill="gray"/>
      <path id="Trazado_127075" data-name="Trazado 127075" d="M344.11,104.27l-.34.05-.17.23.53.08.52-.18-.54-.18Z" transform="translate(-4.005 -26.15)" fill="gray"/>
      <path id="Trazado_127076" data-name="Trazado 127076" d="M346.86,104.82l.09-.11.81-.44-.55.02-.64.36-.17.47.46-.3Z" transform="translate(-3.426 -26.15)" fill="gray"/>
      <path id="Trazado_127077" data-name="Trazado 127077" d="M348.03,102.14l.98.25-.26-.42-.72.17Z" transform="translate(-3.166 -26.15)" fill="gray"/>
      <path id="Trazado_127078" data-name="Trazado 127078" d="M345.33,105.05l-.68-.19.33.17.35.02Z" transform="translate(-3.855 -26.15)" fill="gray"/>
      <path id="Trazado_127079" data-name="Trazado 127079" d="M347.28,102.17l.45.13-.45-.13Z" transform="translate(-3.383 -26.15)" fill="gray"/>
      <path id="Trazado_127080" data-name="Trazado 127080" d="M344.6,101.92l.38,1.32.18-.41-.04-.75.24.16.19.42.33.04-.17-1.14.56-.46-.76.26-.45-.39,1.86-.77-.39.18-.93-.1-.45.22-.55,1.42Z" transform="translate(-3.639 -26.15)" fill="gray"/>
      <path id="Trazado_127081" data-name="Trazado 127081" d="M348.09,100.21l-.25-.15.19.9.28-.64-.22-.11Z" transform="translate(-3.273 -26.15)" fill="gray"/>
      <path id="Trazado_127082" data-name="Trazado 127082" d="M336.62,100.39l.23.32-.23-.32Z" transform="translate(-5.452 -26.15)" fill="gray"/>
      <path id="Trazado_127083" data-name="Trazado 127083" d="M337.15,101.43l.17.22-.17-.22Z" transform="translate(-5.359 -26.15)" fill="gray"/>
      <path id="Trazado_127084" data-name="Trazado 127084" d="M342.94,104.42l.44.01-.37-.25-.64-.1.37-.29-2.84-.3-.18.24.28.06.19.23,2.75.4Z" transform="translate(-4.394 -26.15)" fill="gray"/>
      <path id="Trazado_127085" data-name="Trazado 127085" d="M340.91,100.64l.86,1.52.29.15.49-.07.47.24.53-.11.5-1.56.56-.36-.47-1.32.62-.46-.25-.23-.33-.1-.33-.31-.57.82-.19.1-.26-.04-.32.58-.54.19-.24.53-.58-.15-.24.58Z" transform="translate(-4.139 -26.15)" fill="gray"/>
      <path id="Trazado_127086" data-name="Trazado 127086" d="M339.85,102.73l.06-.43.15-.1.01-.25-.3-.33-.05.19.15.19-.23-.07-3.65-3.25,3.34,4.66h.39l.13-.61Z" transform="translate(-5.057 -26.15)" fill="gray"/>
      <path id="Trazado_127087" data-name="Trazado 127087" d="M307.18,84.94l-.44.01-.3.18.78.49.24-.66-.28-.02Z" transform="translate(-11.13 -26.15)" fill="gray"/>
      <path id="Trazado_127088" data-name="Trazado 127088" d="M304.86,83.7l.28.91.25-.18.06-.66-.33-.14-.26.07Z" transform="translate(-11.484 -26.15)" fill="gray"/>
      <path id="Trazado_127089" data-name="Trazado 127089" d="M265.33,78.9a4.3,4.3,0,0,1-4.05,4.36,4,4,0,0,1-4-4.15,4.29,4.29,0,0,1,4-4.36,4,4,0,0,1,4.05,4.15Z" transform="translate(-19.869 -26.15)" fill="#41c1c5"/>
      <path id="Trazado_127090" data-name="Trazado 127090" d="M271.62,96.37a2,2,0,0,1-1.88,2,1.87,1.87,0,0,1-1.87-1.93,2,2,0,0,1,1.87-2,1.88,1.88,0,0,1,1.88,1.93Z" transform="translate(-18.245 -26.15)" fill="#41c1c5"/>
      <path id="Trazado_127091" data-name="Trazado 127091" d="M317.31,95.07a7.19,7.19,0,0,1-6.91,7.27,6.84,6.84,0,0,1-6.87-7,7.19,7.19,0,0,1,6.87-7.27,6.85,6.85,0,0,1,6.91,7Z" transform="translate(-10.139 -26.15)" fill="#41c1c5"/>
      <path id="Trazado_127092" data-name="Trazado 127092" d="M330.86,68.42a3.12,3.12,0,0,1-3,3.14,2.9,2.9,0,0,1-3-3,3.13,3.13,0,0,1,3-3.14,2.91,2.91,0,0,1,3,3Z" transform="translate(-6.956 -26.15)" fill="#41c1c5"/>
      <path id="Trazado_127093" data-name="Trazado 127093" d="M338.1,86.13a3.55,3.55,0,0,1-3.41,3.58,3.36,3.36,0,0,1-3.4-3.42,3.55,3.55,0,0,1,3.4-3.57,3.35,3.35,0,0,1,3.41,3.41Z" transform="translate(-5.599 -26.15)" fill="#41c1c5"/>
      <path id="Trazado_127094" data-name="Trazado 127094" d="M352.26,65.85a3.07,3.07,0,0,1-2.93,3.08,2.86,2.86,0,0,1-2.92-2.9A3.06,3.06,0,0,1,349.33,63a2.84,2.84,0,0,1,2.93,2.85Z" transform="translate(-2.795 -26.15)" fill="#41c1c5"/>
    </g>
    <g id="freepik--character-2--inject-100" transform="translate(122.566 185)">
      <ellipse id="Elipse_4273" data-name="Elipse 4273" cx="41.29" cy="12.27" rx="41.29" ry="12.27" transform="translate(22.669 281.46)" fill="#41c1c5"/>
      <ellipse id="Elipse_4274" data-name="Elipse 4274" cx="41.29" cy="12.27" rx="41.29" ry="12.27" transform="translate(22.669 281.46)" fill="#fff" opacity="0.5"/>
      <path id="Trazado_127095" data-name="Trazado 127095" d="M121.91,331.62s1.71,15.12,2.44,22.93,2.68,30,2.44,32.69-2.68,30.57-2.68,41.3,1.46,25.86,1.46,25.86-2.44,4.14-1.95,6.34a33.45,33.45,0,0,1,1,5.61,13.31,13.31,0,0,0,.49,2.93s3.66,2.44,5.86,2.68,6.58-1.22,6.58-1.95,1.95-8.05,1.95-10.74,0-1.7.74-5.36,8.53-54.23,9.51-58.87,2.44-39.51,2.44-39.51l1.71,3.17s4.14,37.32,3.9,41.47-1.71,20-1,27.32,2.2,25.37,2.2,27.32-.49,6.34-.49,8.05-1.46,4.39-.73,5.61a21.311,21.311,0,0,1,1.46,3.66s8.79,1.46,11.22,1.46,4.4-2.19,4.4-2.19v-4.15c0-2.2.48-4.15.48-6.34s.25-6.83.25-10.25a88.784,88.784,0,0,1,1-9.76c.25-2.19,3.66-27.8,4.15-37.32s2.68-31,2.68-34.39-.24-35.37-.24-35.37l-.49-5.86s-25.61,3.42-37.81,1.71-22.2-2.2-22.2-2.2Z" transform="translate(-101.751 -185)" fill="#263238" stroke="#263238" stroke-linecap="round" stroke-linejoin="round" stroke-width="1"/>
      <path id="Trazado_127096" data-name="Trazado 127096" d="M138.48,466.13a5.129,5.129,0,0,1-2,1.08c-1.34.4-2.15.67-3.22-.81s-3.23-3.22-5-2.42-3.76,2-4.16,3-.14,10.75-.14,12.64,3.63,2.68,7.26,2.82a11.52,11.52,0,0,0,6.45-1.88s3.09.26,4.17-1.08.54-4.44-.14-5.51a39.442,39.442,0,0,1-2.15-3.9,11.48,11.48,0,0,1-1.07-3.94Z" transform="translate(-101.751 -185)" fill="#fff" stroke="#263238" stroke-linecap="round" stroke-linejoin="round" stroke-width="1"/>
      <path id="Trazado_127097" data-name="Trazado 127097" d="M141.84,479.44a3.29,3.29,0,0,0,.59-1.75c-1.77.81-3.86.3-4.62.41-.94.13-3.09,1.61-7.93,1.34a16.229,16.229,0,0,1-5.94-1.35c0,.66,0,1.18,0,1.49,0,1.88,3.63,2.68,7.26,2.82a11.52,11.52,0,0,0,6.45-1.88S140.76,480.78,141.84,479.44Z" transform="translate(-101.751 -185)" fill="#41c1c5" stroke="#263238" stroke-linecap="round" stroke-linejoin="round" stroke-width="1"/>
      <line id="Línea_1594" data-name="Línea 1594" y1="6.46" x2="0.54" transform="translate(35.379 289.06)" fill="none" stroke="#263238" stroke-linecap="round" stroke-linejoin="round" stroke-width="1"/>
      <path id="Trazado_127098" data-name="Trazado 127098" d="M134.35,467.4a2.76,2.76,0,0,1-1.11-1c-1.08-1.48-3.23-3.22-5-2.42a13,13,0,0,0-3.83,2.48c.58,1.66,2,4.59,4.77,4.78C131.48,471.4,133.24,469.41,134.35,467.4Z" transform="translate(-101.751 -185)" fill="#41c1c5" stroke="#263238" stroke-linecap="round" stroke-linejoin="round" stroke-width="1"/>
      <path id="Trazado_127099" data-name="Trazado 127099" d="M175,469.2s-2,.54-3.09-.13-2.69-4.7-6.32-4.3-5.24,3.76-6,4.17-.94.53-1.21.94-.4,11.29-.27,12.37,7.8,2.14,12.51,1.61,6.31-2.56,6.72-2.83a3.83,3.83,0,0,0,2.42-3.22c.27-2.42-.54-5.11-1.89-6.05a20,20,0,0,1-2.41-2Z" transform="translate(-101.751 -185)" fill="#fff" stroke="#263238" stroke-linecap="round" stroke-linejoin="round" stroke-width="1"/>
      <path id="Trazado_127100" data-name="Trazado 127100" d="M169.8,480.76a32.551,32.551,0,0,1-11.75-1.8v3.29c.14,1.07,7.8,2.14,12.51,1.61s6.31-2.56,6.72-2.83a3.83,3.83,0,0,0,2.42-3.22,10.062,10.062,0,0,0,0-1.82c-.2.41-.43.85-.69,1.28C178.27,478.61,176.25,480.63,169.8,480.76Z" transform="translate(-101.751 -185)" fill="#41c1c5" stroke="#263238" stroke-linecap="round" stroke-linejoin="round" stroke-width="1"/>
      <line id="Línea_1595" data-name="Línea 1595" x1="0.78" y2="6.66" transform="translate(72.549 291.17)" fill="none" stroke="#263238" stroke-linecap="round" stroke-linejoin="round" stroke-width="1"/>
      <path id="Trazado_127101" data-name="Trazado 127101" d="M166,472.7c2.41.28,5-1.63,6.44-3.41a1.91,1.91,0,0,1-.53-.22c-1.08-.67-2.69-4.7-6.32-4.3s-5.24,3.76-6,4.17C159.58,468.94,162.54,472.3,166,472.7Z" transform="translate(-101.751 -185)" fill="#41c1c5" stroke="#263238" stroke-linecap="round" stroke-linejoin="round" stroke-width="1"/>
      <line id="Línea_1596" data-name="Línea 1596" x1="5.86" y1="2.93" transform="translate(44.549 167.6)" fill="none" stroke="#636363" stroke-linecap="round" stroke-linejoin="round" stroke-width="1"/>
      <path id="Trazado_127102" data-name="Trazado 127102" d="M164.54,217.89s1.47-2.44,2,.73-.74,6.58-2.44,7.8-2.44,0-2.44-1.22S164.54,217.89,164.54,217.89Z" transform="translate(-101.751 -185)" fill="#fff" stroke="#263238" stroke-linecap="round" stroke-linejoin="round" stroke-width="1"/>
      <path id="Trazado_127103" data-name="Trazado 127103" d="M136,219.11a2,2,0,0,0-2.68,2.19c0,2.93,3.9,7.08,5.61,6.1S136,219.11,136,219.11Z" transform="translate(-101.751 -185)" fill="#fff" stroke="#263238" stroke-linecap="round" stroke-linejoin="round" stroke-width="1"/>
      <path id="Trazado_127104" data-name="Trazado 127104" d="M150.15,190.56s-3.81,6.34-7.8,8.05c-5.13,2.2-9.27,8.79-9,14.15s8.05,22.93,9.27,23.42,16.59-.73,17.08-1.46,2.68-8.05,4.63-15.13,1.95-10.73,1.95-10.73a22.46,22.46,0,0,0,1-7.07,12.86,12.86,0,0,0-3.17-7.81l-2.93,3.66,1-8.29a9.41,9.41,0,0,0-5.85,1.21,21.551,21.551,0,0,0-4.63,4.15Z" transform="translate(-101.751 -185)" fill="#263238" stroke="#263238" stroke-linecap="round" stroke-linejoin="round" stroke-width="1"/>
      <path id="Trazado_127105" data-name="Trazado 127105" d="M235.77,197.16c-.36-1.09-1.45-1.09-2.36-3.45s-3.45-1.81-4.18-2.18-.72-.72-.36-1.81,1.27-4.72-.36-4.72-2.91,3.81-3.27,4.72a48.719,48.719,0,0,1-3.27,4.72,12.771,12.771,0,0,1-2.36.36c-.9,0-2,1.82-2.17,2.72-.12.57.76,2.42,1.44,3.72a28.843,28.843,0,0,0,1.1,3.18s.9,1.27,3.63.91,7.8,3.27,8.53,2.72,2.36-3.81,3.08-5.62A9.34,9.34,0,0,0,235.77,197.16Z" transform="translate(-101.751 -185)" fill="#fff" stroke="#263238" stroke-linecap="round" stroke-linejoin="round" stroke-width="1"/>
      <path id="Trazado_127106" data-name="Trazado 127106" d="M118.36,348.87s3.3,5,3.48,6.94.17,5.56.34,6.77-.52,2.09-1.38,2.09a1.83,1.83,0,0,1-1.39-.87,20.29,20.29,0,0,0,.52,2.95c.34,1.22,2.25,2.26,2.08,3.47s-2.08,1.74-4.69,1.74a7.89,7.89,0,0,1-7.29-5c-1.56-3.64-3.12-14.06-3.12-16S116.63,347.48,118.36,348.87Z" transform="translate(-101.751 -185)" fill="#fff" stroke="#263238" stroke-linecap="round" stroke-linejoin="round" stroke-width="1"/>
      <path id="Trazado_127107" data-name="Trazado 127107" d="M114.72,355.29s.69,1.56-.7,4a16.08,16.08,0,0,0-2.08,4.69,16.721,16.721,0,0,0,1.56,3.47c.7,1.39,3,1.22,3.13,2.44a2.68,2.68,0,0,1-.35,1.9" transform="translate(-101.751 -185)" fill="none" stroke="#263238" stroke-linecap="round" stroke-linejoin="round" stroke-width="1"/>
      <path id="Trazado_127108" data-name="Trazado 127108" d="M116.91,362.72a18.069,18.069,0,0,0,.93,4c.7,1.74,4.34,2.78,3,4.69" transform="translate(-101.751 -185)" fill="none" stroke="#263238" stroke-linecap="round" stroke-linejoin="round" stroke-width="1"/>
      <path id="Trazado_127109" data-name="Trazado 127109" d="M114.72,363.45a15.361,15.361,0,0,0,.87,3.3c.52,1,4,2.08,3.3,4.86" transform="translate(-101.751 -185)" fill="none" stroke="#263238" stroke-linecap="round" stroke-linejoin="round" stroke-width="1"/>
      <path id="Trazado_127110" data-name="Trazado 127110" d="M119.41,363.8s-.35-2.78-.52-3.82a23.282,23.282,0,0,1-.18-3" transform="translate(-101.751 -185)" fill="none" stroke="#263238" stroke-linecap="round" stroke-linejoin="round" stroke-width="1"/>
      <path id="Trazado_127111" data-name="Trazado 127111" d="M176.36,242.33a36.35,36.35,0,0,0-15.61-7.07c-9.76-1.95-22.69,1.22-27.81,4.63a13.42,13.42,0,0,0-5.61,9.27Z" transform="translate(-101.751 -185)" fill="#fff" stroke="#263238" stroke-linecap="round" stroke-linejoin="round" stroke-width="1"/>
      <path id="Trazado_127112" data-name="Trazado 127112" d="M216.61,212.57a5.54,5.54,0,0,1,0-2.92c.49-1,.73-3.91,1.46-4.64s6.1-3.66,10-1.95,5.86,9,6.59,10.73-1.46,5.61-2.44,6.1-1.95-2.93-2.93-3.9S220,211.11,216.61,212.57Z" transform="translate(-101.751 -185)" fill="#fff" stroke="#263238" stroke-linecap="round" stroke-linejoin="round" stroke-width="1"/>
      <path id="Trazado_127113" data-name="Trazado 127113" d="M152.21,241.85c-1,.24-19.52,2.68-27.81,5.12s-15.12,5.61-15.37,8.78-7,62.26-7.26,65.68,2.2,23.17,3.42,23.9,6.83,1.22,8.78.49a8.37,8.37,0,0,0,3.17-2.19l.73-16.35s.49,5.61,1.46,5.86a109.49,109.49,0,0,0,37.33,3.17c21-1.71,29.76-4.88,31.46-6.1s1.47-4.88,1.47-4.88.24-2.68.24-5.37S182,263.31,182,263.31s32.2-8.78,34.64-11.71,14.15-34.88,14.15-37.32-5.37-6.1-9.27-6.34-13.42,19-15.61,20.49-23.18,9.76-31,11.22S152.21,241.85,152.21,241.85Z" transform="translate(-101.751 -185)" fill="#f5ca56" stroke="#263238" stroke-linecap="round" stroke-linejoin="round" stroke-width="1"/>
      <path id="Trazado_127114" data-name="Trazado 127114" d="M144.48,258.38s3.3,13,13,18.31" transform="translate(-101.751 -185)" fill="none" stroke="#263238" stroke-linecap="round" stroke-linejoin="round" stroke-width="1"/>
      <path id="Trazado_127115" data-name="Trazado 127115" d="M158.76,282.45q1.1.57,2.25,1.11" transform="translate(-101.751 -185)" fill="none" stroke="#263238" stroke-linecap="round" stroke-linejoin="round" stroke-width="1"/>
      <path id="Trazado_127116" data-name="Trazado 127116" d="M144.48,271.86a57.459,57.459,0,0,0,10.73,8.56" transform="translate(-101.751 -185)" fill="none" stroke="#263238" stroke-linecap="round" stroke-linejoin="round" stroke-width="1"/>
      <path id="Trazado_127117" data-name="Trazado 127117" d="M183.23,273.2,182,263.31l-12,4.44,4.65,1.91c-2.27,2-5.24,4.82-3.4,4.49a31.73,31.73,0,0,0,6.94-3Z" transform="translate(-101.751 -185)" fill="#263238" stroke="#263238" stroke-linecap="round" stroke-linejoin="round" stroke-width="1"/>
      <path id="Trazado_127118" data-name="Trazado 127118" d="M115.67,320.21c0-4.39,2.14-49.09,2.14-49.09l-.73-3.17-5.41-8.62L114.55,276c-2.29-.71-6.9-1.93-5.16.4a33.45,33.45,0,0,0,5.46,5.27l-1.64,33.06a14.14,14.14,0,0,0,1.94,7.88l1.68,2.86a12.51,12.51,0,0,1-1.16-5.26Z" transform="translate(-101.751 -185)" fill="#263238" stroke="#263238" stroke-linecap="round" stroke-linejoin="round" stroke-width="1"/>
      <path id="Trazado_127119" data-name="Trazado 127119" d="M116.83,325.51a9.25,9.25,0,0,0,1,1.77Z" transform="translate(-101.751 -185)" fill="#263238" stroke="#263238" stroke-linecap="round" stroke-linejoin="round" stroke-width="1"/>
      <path id="Trazado_127120" data-name="Trazado 127120" d="M188.61,324.11c-37.32,16.83-70.74,3.17-70.74,3.17s.49,5.61,1.46,5.86a109.49,109.49,0,0,0,37.33,3.17c21-1.71,29.76-4.88,31.46-6.1s1.47-4.88,1.47-4.88a13.871,13.871,0,0,1,.1-1.43Z" transform="translate(-101.751 -185)" fill="#fff" stroke="#263238" stroke-linecap="round" stroke-linejoin="round" stroke-width="1"/>
      <path id="Trazado_127121" data-name="Trazado 127121" d="M102.5,342.89s5.61,2.44,10.25,1,5.85-2.93,6.58-2.68.74,6.09,0,7.8-2.44,2.93-7.56,3.42-7.8-2-8.29-3.42a48.779,48.779,0,0,1-.98-6.12Z" transform="translate(-101.751 -185)" fill="#fff" stroke="#263238" stroke-linecap="round" stroke-linejoin="round" stroke-width="1"/>
    </g>
    <g id="freepik--character-1--inject-100" transform="translate(45.393 202.01)">
      <ellipse id="Elipse_4275" data-name="Elipse 4275" cx="36.29" cy="11.26" rx="36.29" ry="11.26" transform="translate(0.637 252.28)" fill="#41c1c5"/>
      <ellipse id="Elipse_4276" data-name="Elipse 4276" cx="36.29" cy="11.26" rx="36.29" ry="11.26" transform="translate(0.637 252.28)" fill="#fff" opacity="0.5"/>
      <path id="Trazado_127122" data-name="Trazado 127122" d="M88.05,209.94s3,3.56,2.85,5a7.87,7.87,0,0,0,1.1,4.62c.71.89,2.67,1.6,2.67,3.2a5.74,5.74,0,0,1-1.07,3s.72,7.13,0,8.91-3.56,1.78-5.16,1.78-2.49-.18-3-.18-3.74-2.85-6.23-9.08.36-15.5,2.49-16.74S88.05,209.94,88.05,209.94Z" transform="translate(-45.393 -202.01)" fill="#fff" stroke="#263238" stroke-linecap="round" stroke-linejoin="round" stroke-width="1"/>
      <line id="Línea_1597" data-name="Línea 1597" y1="4.1" x2="7.3" transform="translate(41.417 14.7)" fill="none" stroke="#263238" stroke-linecap="round" stroke-linejoin="round" stroke-width="1"/>
      <path id="Trazado_127123" data-name="Trazado 127123" d="M90.9,216s3.92-1.07,2.5,4.63" transform="translate(-45.393 -202.01)" fill="none" stroke="#263238" stroke-linecap="round" stroke-linejoin="round" stroke-width="1"/>
      <path id="Trazado_127124" data-name="Trazado 127124" d="M80.25,241.89l-1.11,13.25-14.07-3.32V241.33S75,239.12,80.25,241.89Z" transform="translate(-45.393 -202.01)" fill="#fff" stroke="#263238" stroke-linecap="round" stroke-linejoin="round" stroke-width="1"/>
      <path id="Trazado_127125" data-name="Trazado 127125" d="M78.8,204a22,22,0,0,1-8,.55c-4.12-.55-13.18.55-15.65,6.6s.55,11.53.27,13.18-4.67,4.12-4.67,6.6,1.92,4.67,1.1,6.59-2.2,3.57-1.1,5.49,5.5-1.37,6,.55,4.67,4.4,6.6,4.4,4.12-4.12,5.22-2.48,3.29,3.3,5.49,3,3.29-5.35,8-3.3,6.21-2.24,6-6c-.16-3.58-4.39-8.52-3.57-11.27s2.47-4.67,1.92-7.69-3-4.12-1.65-6.32,3.3-2.19,3.85-4.94-.55-6.32-4.67-6.87S78.8,204,78.8,204Z" transform="translate(-45.393 -202.01)" fill="#fff" stroke="#263238" stroke-linecap="round" stroke-linejoin="round" stroke-width="1"/>
      <path id="Trazado_127126" data-name="Trazado 127126" d="M54,344.3s3.87,22.08,1.94,43.34c-.78,8.53-5,10.77-6.08,22.08s2.76,34.23.83,46.38c-.26,1.66-2.21,5.8,0,8s9.94.83,12.15.83,7.45-.83,8-2.21-3.31-2.76-5.79-7.45a38.49,38.49,0,0,1-4.42-17.39c0-6.35,3.86-24.29,6.9-38.92s4.69-22.64,4.69-30.92v-26c0-1.38-7.45-4.69-13.25-3.59S54,344.3,54,344.3Z" transform="translate(-45.393 -202.01)" fill="#fff" stroke="#263238" stroke-linecap="round" stroke-linejoin="round" stroke-width="1"/>
      <path id="Trazado_127127" data-name="Trazado 127127" d="M65.07,455.27c-.43-.8-.83-1.66-1.21-2.55-.72,1.52-1,3.34-2.38,3.66-2.49.55-10.77-.28-10.77-.28-.27,1.66-2.21,5.8,0,8s9.94.83,12.15.83,7.45-.83,8-2.21S67.55,460,65.07,455.27Z" transform="translate(-45.393 -202.01)" fill="#263238" stroke="#263238" stroke-linecap="round" stroke-linejoin="round" stroke-width="1"/>
      <path id="Trazado_127128" data-name="Trazado 127128" d="M61.26,444.16a34.71,34.71,0,0,1-.61-6.28c0-6.35,3.86-24.29,6.9-38.92s4.69-22.64,4.69-30.92v-26c0-1.38-7.45-4.69-13.25-3.59s-5,5.8-5,5.8,3.87,22.08,1.94,43.34c-.78,8.53-5,10.77-6.08,22.08-.8,8.22,1,22.55,1.33,34.44a21,21,0,0,0,10.08.05Z" transform="translate(-45.393 -202.01)" fill="#727997" stroke="#263238" stroke-linecap="round" stroke-linejoin="round" stroke-width="1"/>
      <path id="Trazado_127129" data-name="Trazado 127129" d="M50.44,439a44.657,44.657,0,0,0,6.34.83,19.331,19.331,0,0,0,5.25-1.1l.83,7.18a35.44,35.44,0,0,1-7.73,1.38,10.239,10.239,0,0,1-4.14-.56S50.44,441.19,50.44,439Z" transform="translate(-45.393 -202.01)" fill="#fff" stroke="#263238" stroke-linecap="round" stroke-linejoin="round" stroke-width="1"/>
      <path id="Trazado_127130" data-name="Trazado 127130" d="M51,323.87s-1.66,11,0,16.56,6.07,13.26,7.18,15.46,2.48,9.11,2.48,10.49,1.1,17.67-.55,25.95-3.59,13-3.59,21,3.86,37.89,3.86,43.13-1.93,11.87-.55,13.25,25.12-1.43,27.33-2.26A2.94,2.94,0,0,0,88.53,463c-.83-1.1-10.77-4.36-12.42-5.74s-2.76-5.8-3-7.73.55-31.54,1.66-38.16,5.52-19.6,8-26.78,6.9-32.57,6.9-41.68a159.86,159.86,0,0,0-.82-16.29S63.13,328.56,51,323.87Z" transform="translate(-45.393 -202.01)" fill="#fff" stroke="#263238" stroke-linecap="round" stroke-linejoin="round" stroke-width="1"/>
      <path id="Trazado_127131" data-name="Trazado 127131" d="M87.15,467.43A2.94,2.94,0,0,0,88.53,463c-.83-1.1-10.77-4.36-12.42-5.74a3.768,3.768,0,0,1-.68-.78l-.7,4.37a10,10,0,0,1-6.08,2.21c-2.76,0-6.82-1.8-8.55-2.63-.47,4.18-1.45,8.36-.28,9.25C65.43,474,84.94,468.26,87.15,467.43Z" transform="translate(-45.393 -202.01)" fill="#263238" stroke="#263238" stroke-linecap="round" stroke-linejoin="round" stroke-width="1"/>
      <path id="Trazado_127132" data-name="Trazado 127132" d="M73,448.51c-.08-5.28.7-31.08,1.71-37.13,1.1-6.63,5.52-19.6,8-26.78s6.9-32.57,6.9-41.68a159.86,159.86,0,0,0-.82-16.29S63.13,328.56,51,323.87c0,0-1.66,11,0,16.56s6.07,13.26,7.18,15.46,2.48,9.11,2.48,10.49,1.1,17.67-.55,25.95-3.59,13-3.59,21c0,5.67,1.94,24.12,3.07,34.14A42.312,42.312,0,0,0,69.21,449a16,16,0,0,0,3.79-.49Z" transform="translate(-45.416 -202.01)" fill="#727997" stroke="#263238" stroke-linecap="round" stroke-linejoin="round" stroke-width="1"/>
      <path id="Trazado_127133" data-name="Trazado 127133" d="M59.55,450.92A15.58,15.58,0,0,0,65.34,452c3.31,0,8.28.82,8-.83a48.87,48.87,0,0,1,.27-7.18s-6.07.83-9.66.28-5.79-.83-5.79-.83S58.72,449.27,59.55,450.92Z" transform="translate(-45.393 -202.01)" fill="#fff" stroke="#263238" stroke-linecap="round" stroke-linejoin="round" stroke-width="1"/>
      <path id="Trazado_127134" data-name="Trazado 127134" d="M82.18,258.17a21.23,21.23,0,0,0-11.32-7.45c-7.45-1.93-14.63,9.11-16.56,15.18s-2.21,22.36-5,30.64-4.69,24.85-3.59,26.78,24.85,8,33.13,8S96,324.7,96.26,321.39,94.88,296,93.5,284.12,82.18,258.17,82.18,258.17Z" transform="translate(-45.393 -202.01)" fill="#263238" stroke="#263238" stroke-linecap="round" stroke-linejoin="round" stroke-width="1"/>
      <path id="Trazado_127135" data-name="Trazado 127135" d="M78.5,350s-.09,3.83,0,6.08a18.86,18.86,0,0,1-.84,6.08c-.47,1.49-1.59,2.52-1.68,1.49s.37-2.9.37-3.74-.28-4.67-.28-4.67a41.869,41.869,0,0,1-.84,4.11c-.56,2.15-2.15,4.39-2.9,4.58s-1.22-.47-.84-1.49a43.953,43.953,0,0,0,1.4-4.68c.09-.68.11-2.76.11-2.76a53.579,53.579,0,0,1-2.52,6.26c-.75,1.13-.84,1.69-1.59,1.78s-.65-1.5-.19-2.71a37.849,37.849,0,0,0,1.22-5.52c0-.37-.84,1.68-1.87,2.81s-1.78,2.05-2.25,1.87.19-2,.57-2.81a12.58,12.58,0,0,0,.93-3.08v-2.43s-.84-1.88,3.09-2.53S77.66,347.24,78.5,350Z" transform="translate(-45.393 -202.01)" fill="#fff" stroke="#263238" stroke-linecap="round" stroke-linejoin="round" stroke-width="1"/>
      <path id="Trazado_127136" data-name="Trazado 127136" d="M64.8,347.34A3.4,3.4,0,0,0,66,351.2c2.06,1.38,9.41,2.49,11.76.28a6.66,6.66,0,0,0,2.35-4.42Z" transform="translate(-45.393 -202.01)" fill="#fff" stroke="#263238" stroke-linecap="round" stroke-linejoin="round" stroke-width="1"/>
      <path id="Trazado_127137" data-name="Trazado 127137" d="M67,261.48s-6.07,9.94-6.07,16.29-3.32,50.79-3.59,56.32.27,9.93,3.59,12.69,16.83,2.76,20.42,1.38,6.9-7.73,6.9-12.14-4.14-37-5-43.34-1.11-23.19-3.59-27.05-3.32-4.15-3.32-4.15" transform="translate(-45.393 -202.01)" fill="#263238" stroke="#263238" stroke-linecap="round" stroke-linejoin="round" stroke-width="1"/>
      <path id="Trazado_127138" data-name="Trazado 127138" d="M57.93,324.09s1.69-38.47,3-46.32a56.48,56.48,0,0,1,4.53-14.3" transform="translate(-45.393 -202.01)" fill="none" stroke="#636363" stroke-linecap="round" stroke-linejoin="round" stroke-width="1"/>
      <path id="Trazado_127139" data-name="Trazado 127139" d="M78,263.83s4.77,9.17,5,19,3.59,41.25,3.59,41.25" transform="translate(-45.393 -202.01)" fill="none" stroke="#636363" stroke-linecap="round" stroke-linejoin="round" stroke-width="1"/>
      <line id="Línea_1598" data-name="Línea 1598" y1="5.52" x2="0.82" transform="translate(36.517 65.82)" fill="none" stroke="#636363" stroke-linecap="round" stroke-linejoin="round" stroke-width="1"/>
    </g>
  </g>
</svg>
