<svg xmlns="http://www.w3.org/2000/svg" width="84" height="84" viewBox="0 0 84 84">
  <g id="Grupo_55623" data-name="Grupo 55623" transform="translate(-275 -6459)">
    <path id="Trazado_127405" data-name="Trazado 127405" d="M42,0A42,42,0,1,1,0,42,42,42,0,0,1,42,0Z" transform="translate(275 6459)" fill="#7d6eb2"/>
    <g id="Grupo_55622" data-name="Grupo 55622" transform="translate(0.228 0.867)">
      <g id="metrica" transform="translate(290.773 6475.133)">
        <path id="Trazado_127405-2" data-name="Trazado 127405" d="M7.7,297.266H2.368A2.37,2.37,0,0,0,0,299.634v13.839a2.37,2.37,0,0,0,2.368,2.368H7.7a2.37,2.37,0,0,0,2.368-2.368V299.634A2.37,2.37,0,0,0,7.7,297.266Zm.823,16.207a.824.824,0,0,1-.823.823H2.368a.824.824,0,0,1-.823-.823V299.634a.824.824,0,0,1,.823-.823H7.7a.824.824,0,0,1,.823.823Zm0,0" transform="translate(0 -266.65)" fill="#fff"/>
        <path id="Trazado_127406" data-name="Trazado 127406" d="M145.793,191.945h-5.328a2.37,2.37,0,0,0-2.368,2.368V198.7a.772.772,0,1,0,1.545,0v-4.392a.824.824,0,0,1,.823-.823h5.328a.824.824,0,0,1,.823.823V219a.824.824,0,0,1-.823.823h-5.328a.824.824,0,0,1-.823-.823V201.794a.772.772,0,1,0-1.545,0V219a2.37,2.37,0,0,0,2.368,2.368h5.328A2.37,2.37,0,0,0,148.161,219V194.313A2.37,2.37,0,0,0,145.793,191.945Zm0,0" transform="translate(-123.875 -172.176)" fill="#fff"/>
        <path id="Trazado_127407" data-name="Trazado 127407" d="M283.887,255.141h-5.328a2.37,2.37,0,0,0-2.368,2.368v18.178a2.37,2.37,0,0,0,2.368,2.368h5.328a2.37,2.37,0,0,0,2.368-2.368V257.509A2.37,2.37,0,0,0,283.887,255.141Zm.823,20.546a.824.824,0,0,1-.823.823h-5.328a.824.824,0,0,1-.823-.823V257.509a.823.823,0,0,1,.823-.823h5.328a.824.824,0,0,1,.823.823Zm0,0" transform="translate(-247.746 -228.864)" fill="#fff"/>
        <path id="Trazado_127408" data-name="Trazado 127408" d="M421.981,139.285h-5.328a2.371,2.371,0,0,0-2.368,2.368v22.071a.772.772,0,0,0,1.545,0V141.653a.824.824,0,0,1,.823-.823h5.328a.824.824,0,0,1,.823.823v30.11a.824.824,0,0,1-.823.823h-5.328a.824.824,0,0,1-.823-.823v-4.949a.772.772,0,0,0-1.545,0v4.949a2.371,2.371,0,0,0,2.368,2.368h5.328a2.37,2.37,0,0,0,2.368-2.368v-30.11A2.37,2.37,0,0,0,421.981,139.285Zm0,0" transform="translate(-371.618 -124.94)" fill="#fff"/>
        <path id="Trazado_127409" data-name="Trazado 127409" d="M6.938,16.27a4.823,4.823,0,1,0,4.772,4.192L19.3,14.674a4.8,4.8,0,0,0,4.654-.521l6.639,3.038A4.812,4.812,0,1,0,40.121,15.9l7.83-6.57a4.813,4.813,0,1,0-3.158-4.52,4.842,4.842,0,0,0,.075.842l-7.83,6.57a4.8,4.8,0,0,0-4.446.6L25.952,9.79a4.812,4.812,0,1,0-9.563,1.068L8.8,16.645a4.786,4.786,0,0,0-1.862-.375ZM49.605,1.544a3.268,3.268,0,0,1,0,6.536,3.308,3.308,0,0,1-3.268-3.268A3.272,3.272,0,0,1,49.605,1.544ZM45.428,7.2c.013.023.027.044.04.066a4.84,4.84,0,0,0,1.058,1.243L39.56,14.355c-.013-.023-.224-.358-.327-.5a4.856,4.856,0,0,0-.771-.813ZM32.115,16.7a3.268,3.268,0,0,1,6.535.048,3.268,3.268,0,1,1-6.536,0c0-.016,0-.032,0-.048Zm-6.986-3.741a4.852,4.852,0,0,0,.694-1.525L31.433,14a4.851,4.851,0,0,0-.655,1.348q-.031.1-.058.205l-5.61-2.567.019-.029ZM21.16,6.968a3.272,3.272,0,0,1,3.268,3.268,3.268,3.268,0,1,1-6.536,0A3.272,3.272,0,0,1,21.16,6.968Zm-4.284,5.46.029.053a4.841,4.841,0,0,0,1.008,1.305l-6.692,5.1a4.889,4.889,0,0,0-1.037-1.359ZM8.885,18.487a3.24,3.24,0,1,1-1.948-.672,3.218,3.218,0,0,1,1.948.672Zm0,0" transform="translate(-1.906 0.001)" fill="#fff"/>
      </g>
    </g>
  </g>
</svg>
