<svg xmlns="http://www.w3.org/2000/svg" width="350" height="262.7" viewBox="0 0 350 262.7">
  <g id="Segment-amico" transform="translate(-36.388 -112.06)">
    <g id="freepik--Floor--inject-4" transform="translate(36.388 216.954)">
      <path id="freepik--floor--inject-4-2" data-name="freepik--floor--inject-4" d="M87.648,383.425c68.335,30.813,179.14,30.821,247.482,0s68.343-80.768,0-111.581-179.147-30.821-247.49,0S19.306,352.627,87.648,383.425Z" transform="translate(-36.388 -248.731)" fill="#b0c0d2"/>
    </g>
    <g id="freepik--Chart--inject-4" transform="translate(131.082 155.095)">
      <g id="freepik--Graphic--inject-4">
        <path id="Trazado_127951" data-name="Trazado 127951" d="M313.421,305.556V280.72H161V305.6h0c0,11.262,7.44,22.524,22.319,31.112,29.759,17.184,78.007,17.184,107.743,0C306,328.127,313.436,316.834,313.421,305.556Z" transform="translate(-161 -192.172)" fill="#e0e0e0"/>
        <path id="Trazado_127952" data-name="Trazado 127952" d="M291.115,300.089c-29.759,17.176-78.007,17.176-107.743,0s-29.759-45.04,0-62.223c11.246-6.5,25.166-10.53,39.668-12.119a2.265,2.265,0,0,1,2.422,1.652l11.8,41.579,73.076-7.573a2.265,2.265,0,0,1,2.446,1.73C315.793,276.276,308.574,290.007,291.115,300.089Z" transform="translate(-161.013 -180.43)" fill="#f0f0f0"/>
        <path id="Trazado_127953" data-name="Trazado 127953" d="M336.646,215.325c-3.091-7.762-9.886-15.139-20.361-21.234-17.443-10.059-41.233-14.235-63.93-12.5a2.517,2.517,0,0,0-2.265,2.469V204.4a19.473,19.473,0,0,0,.621,4.459l11.1,39.086a2.808,2.808,0,0,0,2.886,1.95l70.489-7.3a2.58,2.58,0,0,0,2.257-2.509V219.745a14.288,14.288,0,0,0-.8-4.42Z" transform="translate(-180.026 -170.921)" fill="#ba68c8"/>
        <path id="Trazado_127954" data-name="Trazado 127954" d="M337.282,217.506l-74.8,7.754L250.49,182.942a2.462,2.462,0,0,1,1.95-1.306c22.7-1.73,46.487,2.446,63.93,12.5,10.475,6.056,17.262,13.425,20.361,21.234A11.72,11.72,0,0,1,337.282,217.506Z" transform="translate(-180.111 -170.931)" fill="#fff" opacity="0.3"/>
        <path id="Trazado_127955" data-name="Trazado 127955" d="M250.09,184.564v20.345a19.473,19.473,0,0,0,.621,4.459l11.1,39.047a2.657,2.657,0,0,0,.621,1.054V225.719L250.4,183.4a2.359,2.359,0,0,0-.315,1.164Z" transform="translate(-180.026 -171.389)" opacity="0.1"/>
        <g id="freepik--People--inject-4" transform="translate(88.039)">
          <path id="Trazado_127956" data-name="Trazado 127956" d="M284.392,185.931l-.228-1.573a1.77,1.77,0,0,0,.157-1.156l-.621-2.1-.393-2.753-.393.126.063-3.4-1.243-.708a.5.5,0,0,0-.511,0l-1.345.786h0l-2.422,1.392h0l-1.486.857a.716.716,0,0,0-.33.448l-2.65,11.852c-.11.5,0,.9.244,1.046h0l1.4.786,1.644-6.787.039,2.808-.857,13.37a.889.889,0,0,0,.33.873h0l1.376.786,1.188-11.112-.456-.291.3-4.719.873-.5.873,12.583a.739.739,0,0,0,.354.661h0l1.392.786-.047-1.817a2.132,2.132,0,0,0,.181-.967l-.354-5.12-.094-3.555-.157-.094-.252-3.626.087-5.717,1.675,5.631a.566.566,0,0,0,.236.33h0Z" transform="translate(-272.946 -169.446)" fill="#263238"/>
          <path id="Trazado_127957" data-name="Trazado 127957" d="M286.1,184.172l-2.611-8.769a.244.244,0,0,0-.354-.142l-1.479.857h0l-2.422,1.4h0l-1.486.857a.716.716,0,0,0-.33.448l-2.635,11.883c-.142.661.086,1.156.519,1.1s.9-.637,1.046-1.3l1.471-6.614a.11.11,0,0,1,.22,0l.071,4.656-.857,13.37c-.047.724.338,1.109.857.873l.086-.047a2.234,2.234,0,0,0,.936-1.691l.873-13.6.873-.5.873,12.583c.047.629.456.889.944.606l.079-.047a2.3,2.3,0,0,0,.857-1.864l-.818-12.355.071-4.978a.118.118,0,0,1,.228,0l1.463,4.915c.142.5.613.535,1.046.087A1.942,1.942,0,0,0,286.1,184.172Z" transform="translate(-273.328 -169.644)" fill="#455a64"/>
          <path id="Trazado_127958" data-name="Trazado 127958" d="M282.336,169.042l-1.416-.786h0a1.164,1.164,0,0,0-1.2.087,4.4,4.4,0,0,0-1.84,3.5,1.62,1.62,0,0,0,.613,1.455h0l1.431.834Z" transform="translate(-273.997 -168.127)" fill="#263238"/>
          <path id="Trazado_127959" data-name="Trazado 127959" d="M277.877,172.576a1.62,1.62,0,0,0,.613,1.455h0l1.431.834.786-1.652L278,171.64A4.162,4.162,0,0,0,277.877,172.576Z" transform="translate(-273.997 -168.878)" fill="#263238"/>
          <path id="Trazado_127960" data-name="Trazado 127960" d="M281.5,174.215a4.4,4.4,0,0,0,1.84-3.508c0-1.345-.826-1.958-1.84-1.368a4.365,4.365,0,0,0-1.84,3.5C279.652,174.184,280.47,174.8,281.5,174.215Z" transform="translate(-274.38 -168.338)" fill="#455a64"/>
          <path id="Trazado_127961" data-name="Trazado 127961" d="M304.2,203.521l-.228-1.573a1.785,1.785,0,0,0,.157-1.164l-.629-2.092-.393-2.753-.385.118.055-3.39-1.243-.716a.519.519,0,0,0-.5,0l-1.353.786h0l-2.422,1.4h0l-1.479.857a.684.684,0,0,0-.33.448l-2.635,11.883a.973.973,0,0,0,.236,1.046h0l1.4.786,1.652-6.787.039,2.808-.857,13.37a.9.9,0,0,0,.322.881h0l1.376.786,1.18-11.1-.456-.291.307-4.719.873-.5.873,12.583a.787.787,0,0,0,.346.668h0l1.4.786-.047-1.817a2.249,2.249,0,0,0,.181-.967l-.354-5.128-.1-3.547-.149-.094-.252-3.626.079-5.717,1.683,5.623a.5.5,0,0,0,.236.33h0Z" transform="translate(-277.178 -173.202)" fill="#263238"/>
          <path id="Trazado_127962" data-name="Trazado 127962" d="M305.91,201.763l-2.635-8.808a.236.236,0,0,0-.346-.134l-1.486.92h0l-2.422,1.4h0l-1.479.849a.692.692,0,0,0-.33.456l-2.635,11.883c-.149.661.086,1.148.519,1.093s.9-.629,1.046-1.29l1.463-6.622a.118.118,0,0,1,.228,0l.071,4.656-.857,13.37c-.047.716.338,1.109.857.873l.079-.047a2.241,2.241,0,0,0,.944-1.691l.873-13.605.873-.5.865,12.583c.047.629.464.889.944.606l.086-.055a2.3,2.3,0,0,0,.857-1.856l-.857-12.394.071-4.986a.11.11,0,1,1,.22,0l1.463,4.915c.149.5.621.527,1.054.087a1.966,1.966,0,0,0,.535-1.7Z" transform="translate(-277.556 -173.394)" fill="#455a64"/>
          <path id="Trazado_127963" data-name="Trazado 127963" d="M302.125,186.633l-1.416-.786h0a1.187,1.187,0,0,0-1.211.094,4.388,4.388,0,0,0-1.84,3.5,1.62,1.62,0,0,0,.613,1.447h0l1.431.834Z" transform="translate(-278.221 -171.885)" fill="#263238"/>
          <path id="Trazado_127964" data-name="Trazado 127964" d="M297.668,190.176a1.62,1.62,0,0,0,.613,1.447h0l1.431.834.786-1.644-2.705-1.573A3.751,3.751,0,0,0,297.668,190.176Z" transform="translate(-278.223 -172.636)" fill="#263238"/>
          <path id="Trazado_127965" data-name="Trazado 127965" d="M301.28,191.806a4.388,4.388,0,0,0,1.84-3.5c0-1.345-.826-1.958-1.84-1.376a4.4,4.4,0,0,0-1.84,3.5C299.44,191.783,300.266,192.4,301.28,191.806Z" transform="translate(-278.604 -172.096)" fill="#455a64"/>
          <path id="Trazado_127966" data-name="Trazado 127966" d="M329.7,195.291l-.228-1.573a1.785,1.785,0,0,0,.157-1.164L329,190.462l-.393-2.753-.385.118.055-3.39-1.243-.716a.519.519,0,0,0-.5,0l-1.345.786h0l-2.407,1.376h0l-1.479.857a.684.684,0,0,0-.33.448l-2.635,11.883a.978.978,0,0,0,.236,1.046h0l1.4.786,1.652-6.795.039,2.808-.857,13.37a.9.9,0,0,0,.322.881h0l1.376.786,1.18-11.1-.456-.3.307-4.719.873-.5.873,12.583a.787.787,0,0,0,.346.668h0l1.4.786-.047-1.809a2.155,2.155,0,0,0,.181-.967l-.354-5.128-.1-3.547-.149-.1-.252-3.618.079-5.725,1.683,5.631a.543.543,0,0,0,.236.33h0Z" transform="translate(-282.63 -171.444)" fill="#263238"/>
          <path id="Trazado_127967" data-name="Trazado 127967" d="M331.395,193.571l-2.619-8.777a.236.236,0,0,0-.346-.134l-1.486.857h0l-2.422,1.4h0l-1.479.857a.708.708,0,0,0-.33.448l-2.635,11.883c-.149.661.086,1.156.519,1.1s.9-.637,1.046-1.3l1.471-6.614a.11.11,0,1,1,.22,0l.071,4.656-.857,13.37c-.047.716.338,1.109.857.873l.079-.047a2.273,2.273,0,0,0,.944-1.691l.873-13.605.873-.5.873,12.583c.039.629.456.881.936.606l.087-.055a2.3,2.3,0,0,0,.857-1.864l-.857-12.386.071-4.986a.11.11,0,0,1,.22,0l1.471,4.923c.142.488.613.527,1.046.087a1.974,1.974,0,0,0,.519-1.683Z" transform="translate(-283.001 -171.651)" fill="#455a64"/>
          <path id="Trazado_127968" data-name="Trazado 127968" d="M327.636,178.4l-1.423-.786h0a1.188,1.188,0,0,0-1.2.094,4.381,4.381,0,0,0-1.84,3.5,1.62,1.62,0,0,0,.653,1.4h0l1.431.834Z" transform="translate(-283.671 -170.128)" fill="#263238"/>
          <path id="Trazado_127969" data-name="Trazado 127969" d="M323.169,181.937a1.62,1.62,0,0,0,.653,1.416h0l1.431.834.786-1.644-2.705-1.573a3.7,3.7,0,0,0-.165.967Z" transform="translate(-283.67 -170.87)" fill="#263238"/>
          <path id="Trazado_127970" data-name="Trazado 127970" d="M326.78,183.615a4.38,4.38,0,0,0,1.84-3.5c0-1.345-.786-1.966-1.84-1.376a4.4,4.4,0,0,0-1.84,3.5C324.94,183.552,325.774,184.174,326.78,183.615Z" transform="translate(-284.049 -170.346)" fill="#455a64"/>
        </g>
      </g>
    </g>
    <g id="freepik--character-2--inject-4" transform="translate(302.901 136.318)">
      <rect id="Rect치ngulo_30554" data-name="Rect치ngulo 30554" width="5.993" height="8.722" transform="translate(38.992 157.993)" fill="#ffa8a7"/>
      <rect id="Rect치ngulo_30555" data-name="Rect치ngulo 30555" width="5.993" height="8.722" transform="translate(17.925 147.399) rotate(-1.97)" fill="#ffa8a7"/>
      <path id="Trazado_127971" data-name="Trazado 127971" d="M431.746,235.54c0,5.717.739,42.712.739,42.712.142,1.652,1.683,4.719,1.353,11.01-.456,8.588-1.2,32.441-1.2,32.441s-2.808,2.784-6.779,0c0,0-5.419-32.409-6.5-40.9-.936-7.424-2.525-27.6-2.525-27.6L411.3,276.954s.975,5.584,1.188,9.524-1.015,26.692-1.015,26.692a6.543,6.543,0,0,1-6.52.252s-4.813-33.251-5.426-36.806,4.207-41.045,4.207-41.045Z" transform="translate(-387.162 -162.688)" fill="#37474f"/>
      <path id="Trazado_127972" data-name="Trazado 127972" d="M430.827,350.887V350c-.574.252-1.911,5.332-4.286,7.5-1.887,1.722-4.467,3.712-5.12,5.631s3.586,3.1,5.356,2.784c2.053-.362,5.607-1.8,6.5-3.146s1.313-3.311,2.037-4.294,2.359-2.076,2.784-3.209a7.219,7.219,0,0,0-.338-3.146c-.3-1.156-.582-2.218-.944-2.123v.653a4.719,4.719,0,0,1-3,1.015C432.943,351.729,430.82,351.571,430.827,350.887Z" transform="translate(-391.836 -187.13)" fill="#263238"/>
      <path id="Trazado_127973" data-name="Trazado 127973" d="M403.053,338.973c-.315,0-.566.448-1.25,1.2a13.165,13.165,0,0,1-3.523,2.532c-2.241,1.125-6.606,2.847-8.58,3.736-1.227.558-1.172,2.045.1,2.894s4.349,1.463,8.045.629c2.013-.448,4.632-2.3,6.292-2.2s4.758.071,5.985-.786.731-2.642.385-4.192c-.378-1.691-.92-4.278-1.479-4.16v.535c-.724,1.085-4.388,1.534-5.969.731Z" transform="translate(-384.886 -184.7)" fill="#263238"/>
      <path id="Trazado_127974" data-name="Trazado 127974" d="M457.087,224.937c-.134-.786-3.869-9.437-5.4-12.827l-7.754,3.633,2.973,6.8,8.037,6.213A3.146,3.146,0,0,0,457.087,224.937Z" transform="translate(-396.657 -157.684)" fill="#ffa8a7"/>
      <path id="Trazado_127975" data-name="Trazado 127975" d="M410.718,184.94a12.85,12.85,0,0,0-10.711,6.229c-3.311,4.915-9.107,13.37-9.107,13.37L401.816,208Z" transform="translate(-385.332 -151.882)" fill="#7bb5b5"/>
      <path id="Trazado_127977" data-name="Trazado 127977" d="M423.895,185.105c5.371,1.29,12.182,3.46,14.565,8.407s6.071,12.968,6.071,12.968l-8.879,5.261-2.729-4.719v17.719c-4.2,4.569-18.875,6.7-28.013,0V195.518c0-4.664,2.6-10.271,9.752-10.688Z" transform="translate(-388.324 -151.858)" fill="#8ec8c8"/>
      <path id="Trazado_127978" data-name="Trazado 127978" d="M439.622,211.426s-2.69-4.671-3.272-5.8l3.272,7.982Z" transform="translate(-395.038 -156.3)" opacity="0.1"/>
      <path id="Trazado_127979" data-name="Trazado 127979" d="M431.382,154.814a3.2,3.2,0,0,1,2.666.928c1.132,1.164.9,3.311,0,8.242l-3.508.4Z" transform="translate(-393.797 -145.443)" fill="#263238"/>
      <path id="Trazado_127980" data-name="Trazado 127980" d="M404.734,152.833a5.434,5.434,0,0,1-2.186-.448c-1.077-.621-1.361.606-.786,1.667a5,5,0,0,0,4.058,2.713c0-.149,1.007-2.737,1.007-2.737Z" transform="translate(-387.589 -144.893)" fill="#263238"/>
      <path id="Trazado_127981" data-name="Trazado 127981" d="M424.438,163.321c.519.315,1.266-.684,1.9-1.361a2.264,2.264,0,0,1,3.783.613c1.046,2.186-1.353,5.23-2.768,6.213a2.5,2.5,0,0,1-2.918.26l-.37,8.58a9.162,9.162,0,0,1-6.9,5.238c-5.033.684-4-3.476-2.359-5.505v-3.146a12.106,12.106,0,0,1-3.83.2c-.661-.181-2.226-2.076-3.24-4.192-1.132-2.359-3.028-6.614-1.345-13.763,1.809-7.684,10.059-7.919,14.942-4.821S424.438,163.321,424.438,163.321Z" transform="translate(-388.497 -144.371)" fill="#ffa8a7"/>
      <path id="Trazado_127982" data-name="Trazado 127982" d="M423.956,162.727c.26,0,1.258-1.652,1.9-2.241.9-.786-.259-8.21-.259-8.21s.912-2.808-.865-4.664-5.214-1.573-7.723-1.636a22.5,22.5,0,0,1-8.989-1.809c-3.57-1.573-3.838-1.73-4.278-.165s-.613,5.159,1.518,7.566l1.777.653s.952.849,4.286,1.25a49.175,49.175,0,0,0,9.225-.173c.967-.134,1.172.786,1.691,3.358C422.7,158.905,423.076,162.7,423.956,162.727Z" transform="translate(-388.016 -142.905)" fill="#263238"/>
      <path id="Trazado_127983" data-name="Trazado 127983" d="M431.557,154.826l3.146-1.691a1.746,1.746,0,0,0-2.359-.786,1.872,1.872,0,0,0-.786,2.477Z" transform="translate(-393.973 -144.881)" fill="#263238"/>
      <path id="Trazado_127984" data-name="Trazado 127984" d="M417.3,179.772a35.916,35.916,0,0,0,6.292-1.809,5.332,5.332,0,0,0,2.249-2.234,7.29,7.29,0,0,1-1.274,2.635c-1.2,1.526-7.275,2.642-7.275,2.642Z" transform="translate(-390.968 -149.915)" fill="#f28f8f"/>
      <path id="Trazado_127985" data-name="Trazado 127985" d="M418.73,165.245a.936.936,0,1,0,.928-.975.952.952,0,0,0-.928.975Z" transform="translate(-391.275 -147.467)" fill="#263238"/>
      <path id="Trazado_127986" data-name="Trazado 127986" d="M420,160.833l2,1.1a1.2,1.2,0,0,0-.464-1.573,1.109,1.109,0,0,0-1.534.472Z" transform="translate(-391.546 -146.603)" fill="#263238"/>
      <path id="Trazado_127987" data-name="Trazado 127987" d="M418.231,173.57l-2.131.786a1.117,1.117,0,0,0,1.447.708A1.2,1.2,0,0,0,418.231,173.57Z" transform="translate(-390.714 -149.454)" fill="#f28f8f"/>
      <path id="Trazado_127988" data-name="Trazado 127988" d="M408.061,161.49l1.825-1.408a1.1,1.1,0,0,0-1.573-.244,1.219,1.219,0,0,0-.252,1.652Z" transform="translate(-388.951 -146.473)" fill="#263238"/>
      <path id="Trazado_127989" data-name="Trazado 127989" d="M408.84,164.905a.936.936,0,1,0,.936-.975.952.952,0,0,0-.936.975Z" transform="translate(-389.163 -147.395)" fill="#263238"/>
      <path id="Trazado_127990" data-name="Trazado 127990" d="M414.01,164.04l-.307,5.623-2.933-1Z" transform="translate(-389.575 -147.418)" fill="#f28f8f"/>
      <path id="Trazado_127991" data-name="Trazado 127991" d="M383.82,207.12l23.924,6.3,7.062,29.688L392.062,236.5Z" transform="translate(-383.82 -156.618)" fill="#ebebeb"/>
      <path id="Trazado_127992" data-name="Trazado 127992" d="M395.816,232.1c-.22.606-1.526,2.289-4.31,2.155l-.346-1.227Z" transform="translate(-385.388 -161.953)" fill="#e0e0e0"/>
      <path id="Trazado_127993" data-name="Trazado 127993" d="M403.88,233.28c.11.786,1.73,2.257,4.483,3.146,3.146,1.038,7.935.488,7.935.488l-.433-1.479Z" transform="translate(-388.104 -162.205)" fill="#e0e0e0"/>
      <path id="Trazado_127994" data-name="Trazado 127994" d="M392.675,212.236l-.2-.912c-.11-.5,1.29-.527,3.146-.047l3.531.912c1.84.48,3.421,1.274,3.523,1.777l.2.912Z" transform="translate(-385.668 -157.432)" fill="#e0e0e0"/>
      <path id="Trazado_127995" data-name="Trazado 127995" d="M399.5,211.65V211.5c-.079-.425.1-.684.9-.48l2.705.708-.173-.566a2.643,2.643,0,0,0-1.667-.991l-1.486-.425a4.841,4.841,0,0,0-3.775-2.926c-3.1-.684-2.682,1.282-2.682,1.282l-1.4-.385c-.786-.212-1.337-.134-1.266.181l.134.59,2.406.629a1.188,1.188,0,0,1,.873.959,1.488,1.488,0,0,1,.039.181c-1.345-.244-2.281-.165-2.186.252l.2.912,10.224,2.642-.2-.912C402.038,212.727,400.929,212.106,399.5,211.65Z" transform="translate(-385.279 -156.524)" fill="#37474f"/>
      <path id="Trazado_127996" data-name="Trazado 127996" d="M446.075,231.071l-8.037-6.213s-16.209,2.635-18.088,2.784a4.978,4.978,0,0,1-4.719-3.059c-.724-1.872-2.005-1.636-2.005-1.636l.747,3.146c.173.786-4.388,1.376-6.913.519s-6.2.393-3.932,3.838,6.677,3.838,9.744,3.838a31.232,31.232,0,0,0,3.83-.252c.991-.126,1.982-.228,2.973-.3C425.911,233.266,443.221,231.968,446.075,231.071Z" transform="translate(-387.792 -159.996)" fill="#ffa8a7"/>
      <path id="Trazado_127997" data-name="Trazado 127997" d="M386.448,218.016l1.062,3.783c.2.731,2.981,2.053,4.719,2.54s3.681,1.054,2.847,3.515c-.786,2.265-3.657,2.784-5.128,2.721a5.459,5.459,0,0,1-4.286-3.743c-1.015-2.894-.472-5.993-.873-7.684S385.567,217.009,386.448,218.016Z" transform="translate(-384.01 -158.832)" fill="#ffa8a7"/>
    </g>
    <g id="freepik--character-1--inject-4" transform="translate(62.491 112.06)">
      <path id="Trazado_127998" data-name="Trazado 127998" d="M90.655,112.06h4.231a11.8,11.8,0,0,1,11.8,11.8v29.971H78.89V123.809A11.8,11.8,0,0,1,90.655,112.06Z" transform="translate(-71.568 -112.06)" fill="#263238"/>
      <path id="Trazado_127999" data-name="Trazado 127999" d="M111.572,318.242a37.009,37.009,0,0,0,5.3,4.609,2.234,2.234,0,0,1,.731.786c.252.519.637,1.809-1.73,2.635a8.785,8.785,0,0,1-7.306-.7c-1.943-1.219-2.037-3.751-3.869-5.2-1.361-1.07-3.059-1.345-4.152-2.737-.786-.975-.566-2.273-.173-3.877.44-1.754.637-3.075,1.219-2.941l-.094.786c.724,1.156,4.467,1.494,6.134.7a68.743,68.743,0,0,0,3.94,5.938Z" transform="translate(-76.08 -154.504)" fill="#263238"/>
      <path id="Trazado_128000" data-name="Trazado 128000" d="M113.615,318.513h0c-.558-.511-1.117-1.046-1.644-1.62a47.463,47.463,0,0,1-3.059-4.514,5.112,5.112,0,0,1-.857-3.224l.472-4.318-5.938-.417-.692,5.82h0c-.142,1.321.944,2.493,2.878,4.16s4.388,5.544,6.134,6.52,3,.944,3.743.448S115.5,320.44,113.615,318.513Z" transform="translate(-76.479 -153.14)" fill="#ffa8a7"/>
      <path id="Trazado_128001" data-name="Trazado 128001" d="M83.919,320.687V319.8c.354,1.046,1.982,5.552,4.459,7.809,1.966,1.8,4.656,3.869,5.34,5.875s-3.743,2.776-5.576,2.454a11.244,11.244,0,0,1-6.41-3.437c-1.062-1.306-1.73-2.847-2.485-3.869s-2.5-2.163-2.91-3.342a7.647,7.647,0,0,1,.362-3.279c.315-1.2.6-2.312.975-2.21v.676a4.9,4.9,0,0,0,3.1,1.054C81.71,321.568,83.919,321.387,83.919,320.687Z" transform="translate(-71.006 -156.422)" fill="#263238"/>
      <path id="Trazado_128002" data-name="Trazado 128002" d="M90.549,327.8c-.613-.543-1.227-1.077-1.785-1.573a18.024,18.024,0,0,1-3.806-6.079,8.533,8.533,0,0,1-.653-3.279V313.31H78.06v5.8h0v.149h0c.3,1.3,3.146,4.719,4.8,7a8.991,8.991,0,0,0,5.639,3.759C90.871,330.321,92.074,329.582,90.549,327.8Z" transform="translate(-71.391 -155.038)" fill="#ffa8a7"/>
      <path id="Trazado_128003" data-name="Trazado 128003" d="M78.864,197.185c-4.837,10.57.173,47.792.173,47.792-.142,1.714-2.1,5.088-2.831,12.638-.865,8.91,1.368,31.308,1.368,31.308a6.748,6.748,0,0,0,6.292.244s5.946-33.723,7.078-42.586c.975-7.739,2.855-25.953,2.855-25.953l5.324,25.89a30.3,30.3,0,0,0-2.359,7.754c-.5,5.214,0,27.793,0,27.793s2.131,1.628,6.221,1.022c0,0,6.921-31.458,7.463-37.749.33-3.751-3.932-49.719-3.932-49.719Z" transform="translate(-70.952 -129.905)" fill="#37474f"/>
      <path id="Trazado_128004" data-name="Trazado 128004" d="M98.61,223.956l1.573-8.651s6.645-1.376,9.665-4.215a17.192,17.192,0,0,1-7.864,5.222l-1.762,7.558,3.083,22.878Z" transform="translate(-75.779 -133.208)" fill="#263238"/>
      <path id="Trazado_128005" data-name="Trazado 128005" d="M69.6,188.447c.055-.692,1.353-8.093,2.241-12.237l8.706,2.666L78.978,186.5l-7.33,5.883C69.376,191.923,69.556,189.139,69.6,188.447Z" transform="translate(-69.58 -125.76)" fill="#ffa8a7"/>
      <path id="Trazado_128006" data-name="Trazado 128006" d="M120.9,171.93l4.113,7.542-6.4,5.482-5.859-9.288Z" transform="translate(-78.799 -124.846)" fill="#f28f8f"/>
      <path id="Trazado_128007" data-name="Trazado 128007" d="M103.49,150.57c4.082.039,8.572,1.526,10.114,4.719s6.378,13.157,6.378,13.157-3.61,5.277-9.327,4.907Z" transform="translate(-76.822 -120.284)" fill="#f5ca56"/>
      <path id="Trazado_128008" data-name="Trazado 128008" d="M88.013,150.847h0a12.237,12.237,0,0,0-8.187,6.7,10.6,10.6,0,0,0-.291,7.99l4.318,12.5s-2.021,4.892-4.373,9.516c10.845,6.056,24.38,2.871,27.651-1.573.142-.936-.047-5.159.22-9.964.275-5.128.983-10.916.173-14.077-1.494-5.883-4.294-11.4-9.87-11.4Z" transform="translate(-71.568 -120.278)" fill="#f5ca56"/>
      <path id="Trazado_128009" data-name="Trazado 128009" d="M84.786,150.93c-3.7.519-9.138,1.266-11.01,10.066-1.919,8.918-2.446,12.009-2.446,12.009s3.036,3.539,9.178,3.508l1.911-6.763Z" transform="translate(-69.954 -120.361)" fill="#f5ca56"/>
      <path id="Trazado_128010" data-name="Trazado 128010" d="M83.67,179.134s1.258-3.979,2.013-7.2a49.389,49.389,0,0,1-.967,10.114Z" transform="translate(-72.589 -124.846)" fill="#ebebeb"/>
      <path id="Trazado_128011" data-name="Trazado 128011" d="M89.79,155.2h0a4.86,4.86,0,0,1-4.86-4.852V136.19h4.86Z" transform="translate(-72.858 -117.213)" fill="#263238"/>
      <path id="Trazado_128012" data-name="Trazado 128012" d="M103.24,119.2c1.463.865,3.279,4.554,3.1,12.284-.149,6.551-2.273,8.171-3.342,8.651s-3.146.181-5.12-.157v3.932s2.76,3.217,2.587,5.018-3.987,2.226-6.575.464a16.751,16.751,0,0,1-4.247-4.443V135.44a2.509,2.509,0,0,1-3.555.338c-2.21-1.471-2.3-5.1-1.015-6.4s4.05-.889,4.569.912a15.9,15.9,0,0,0,7.44-2.218A11.962,11.962,0,0,0,103.24,119.2Z" transform="translate(-72.71 -113.585)" fill="#ffa8a7"/>
      <path id="Trazado_128013" data-name="Trazado 128013" d="M102.549,132.525a.842.842,0,0,1-.786.9.857.857,0,0,1-.873-.786.827.827,0,1,1,1.652-.079Z" transform="translate(-76.266 -116.269)" fill="#263238"/>
      <path id="Trazado_128014" data-name="Trazado 128014" d="M103.308,139.79l1.911.613a.975.975,0,0,1-1.243.684A1.046,1.046,0,0,1,103.308,139.79Z" transform="translate(-76.773 -117.982)" fill="#f28f8f"/>
      <path id="Trazado_128015" data-name="Trazado 128015" d="M111.177,129.063l-1.667-1.188a.975.975,0,0,1,1.384-.283A1.077,1.077,0,0,1,111.177,129.063Z" transform="translate(-78.107 -115.34)" fill="#263238"/>
      <path id="Trazado_128016" data-name="Trazado 128016" d="M110.713,131.786a.786.786,0,1,1-.865-.786A.841.841,0,0,1,110.713,131.786Z" transform="translate(-78.028 -116.105)" fill="#263238"/>
      <path id="Trazado_128017" data-name="Trazado 128017" d="M106.2,131.37l.126,4.962,2.611-.81Z" transform="translate(-77.4 -116.184)" fill="#f28f8f"/>
      <path id="Trazado_128018" data-name="Trazado 128018" d="M99.658,144.732c-2.108-.275-6.449-1.518-7.078-3.232a4.4,4.4,0,0,0,1.518,2.186c1.29,1.109,5.6,2.359,5.6,2.359Z" transform="translate(-74.492 -118.347)" fill="#f28f8f"/>
      <path id="Trazado_128019" data-name="Trazado 128019" d="M137.016,171.34l-23.924,6.3-7.062,29.688,22.744-6.606Z" transform="translate(-77.364 -124.72)" fill="#26aab7"/>
      <path id="Trazado_128020" data-name="Trazado 128020" d="M132.17,196.32c.22.606,1.526,2.289,4.31,2.155l.346-1.227Z" transform="translate(-82.946 -130.054)" opacity="0.15"/>
      <path id="Trazado_128021" data-name="Trazado 128021" d="M122,197.5c-.1.786-1.73,2.257-4.483,3.146-3.146,1.038-7.927.488-7.927.488l.425-1.479Z" transform="translate(-78.124 -130.306)" opacity="0.15"/>
      <path id="Trazado_128022" data-name="Trazado 128022" d="M133.75,176.456s.094-.409.2-.912-1.29-.527-3.146-.047l-3.523.912c-1.848.48-3.421,1.274-3.531,1.777l-.2.912Z" transform="translate(-81.106 -125.533)" opacity="0.15"/>
      <path id="Trazado_128023" data-name="Trazado 128023" d="M135.249,172.1c.071-.315-.5-.393-1.266-.181l-1.4.385s.417-1.974-2.682-1.282a4.856,4.856,0,0,0-3.775,2.926l-1.486.425c-.786.236-1.573.676-1.667.991l-.173.566,12.316-3.24Z" transform="translate(-80.945 -124.62)" fill="#37474f"/>
      <path id="Trazado_128024" data-name="Trazado 128024" d="M134.258,173.583c-1.125.267-1.573.417-1.762,1.2a14.132,14.132,0,0,0-.275,1.573l-5.411,1.408s.26-1.125.346-1.573-.1-.7-.967-.472l-.079-.346,8.549-2.178Z" transform="translate(-81.652 -125.115)" fill="#37474f"/>
      <path id="Trazado_128025" data-name="Trazado 128025" d="M133.938,176.566l.2-.912c.11-.5-1.29-.527-3.146-.047l-3.531.912c-1.84.48-3.421,1.274-3.523,1.777l-.2.912Z" transform="translate(-81.144 -125.557)" fill="#37474f"/>
      <path id="Trazado_128026" data-name="Trazado 128026" d="M72.24,194.717l7.33-5.883s16.193,2.878,18.088,3.028a4.97,4.97,0,0,0,4.719-3.059c.731-1.872,2.005-1.636,2.005-1.636s-.566,2.359-.739,3.146,4.381,1.376,6.9.519,6.2.393,3.932,3.838-6.677,3.838-9.744,3.846a33.194,33.194,0,0,1-3.83-.26c-.991-.126-1.982-.228-2.973-.3C91.712,197.486,75.095,195.606,72.24,194.717Z" transform="translate(-70.148 -128.098)" fill="#ffa8a7"/>
      <path id="Trazado_128027" data-name="Trazado 128027" d="M139.937,182.235l-1.046,3.783c-.2.731-2.981,2.053-4.719,2.54s-3.681,1.054-2.847,3.515c.786,2.265,3.657,2.784,5.135,2.721a5.44,5.44,0,0,0,4.278-3.743c1.015-2.894.472-5.985.873-7.684S140.818,181.229,139.937,182.235Z" transform="translate(-82.724 -126.932)" fill="#ffa8a7"/>
    </g>
  </g>
</svg>
