<svg xmlns="http://www.w3.org/2000/svg" width="84" height="84" viewBox="0 0 84 84">
  <g id="Grupo_55624" data-name="Grupo 55624" transform="translate(-350.303 -4833)">
    <circle id="Elipse_4272" data-name="Elipse 4272" cx="42" cy="42" r="42" transform="translate(350.303 4833)" fill="#f5ca56"/>
    <g id="remarketing" transform="translate(360.236 4842.893)">
      <g id="Grupo_55692" data-name="Grupo 55692" transform="translate(1.155 27.167)">
        <path id="Trazado_127939" data-name="Trazado 127939" d="M0,55.368Z" transform="translate(0 -50.441)" fill="#f4efed"/>
      </g>
      <g id="Grupo_55693" data-name="Grupo 55693" transform="translate(25.891 32.095)">
        <path id="Trazado_127907" data-name="Trazado 127907" d="M133.824,128a23.573,23.573,0,0,1-23.546,23.546v-2.219l-3.085,1.781-3.085,1.781,3.085,1.781,3.085,1.781v-2.322A26.158,26.158,0,0,0,136.406,128Z" transform="translate(-104.108 -128)" fill="#f5ca56"/>
      </g>
      <g id="Grupo_55694" data-name="Grupo 55694" transform="translate(5.932 3.695)">
        <path id="Trazado_127908" data-name="Trazado 127908" d="M56.03,19.8l-3.085-1.781v2.271A26.158,26.158,0,0,0,26.816,46.422H29.4A23.573,23.573,0,0,1,52.945,22.875v2.271l3.085-1.781,3.085-1.781Z" transform="translate(-26.816 -18.022)" fill="#f5ca56"/>
      </g>
      <g id="Grupo_55697" data-name="Grupo 55697" transform="translate(0.639 0.672)">
        <path id="Trazado_127911" data-name="Trazado 127911" d="M37.739,69.161A31.422,31.422,0,1,1,69.161,37.739,31.458,31.458,0,0,1,37.739,69.161Zm0-61.811A30.389,30.389,0,1,0,68.128,37.739,30.424,30.424,0,0,0,37.739,7.35Z" transform="translate(-6.317 -6.317)" fill="#690589"/>
      </g>
      <g id="Grupo_55698" data-name="Grupo 55698" transform="translate(3.085 27.691)">
        <path id="Trazado_127912" data-name="Trazado 127912" d="M16.306,115.077a.517.517,0,0,1-.516-.516,22.339,22.339,0,0,1,.226-3.172.516.516,0,0,1,1.022.147,21.3,21.3,0,0,0-.216,3.025A.516.516,0,0,1,16.306,115.077Z" transform="translate(-15.79 -110.946)" fill="#690589"/>
      </g>
      <g id="Grupo_55699" data-name="Grupo 55699" transform="translate(42.369 -1.293)">
        <circle id="Elipse_4304" data-name="Elipse 4304" cx="8.169" cy="8.169" r="8.169" transform="translate(0 11.551) rotate(-45)" fill="#fcc24c"/>
      </g>
      <g id="Grupo_55700" data-name="Grupo 55700" transform="translate(53.153 2.085)">
        <path id="Trazado_127913" data-name="Trazado 127913" d="M210.453,11.786c-.261,0-.52.014-.775.038a8.168,8.168,0,0,1,0,16.263c.255.024.513.038.775.038a8.169,8.169,0,1,0,0-16.338Z" transform="translate(-209.678 -11.786)" fill="#dea42e"/>
      </g>
      <g id="Grupo_55701" data-name="Grupo 55701" transform="translate(45.758 2.085)">
        <path id="Trazado_127914" data-name="Trazado 127914" d="M189.212,28.124c.261,0,.52-.014.775-.038a8.168,8.168,0,0,1,0-16.263c-.255-.024-.513-.038-.775-.038a8.169,8.169,0,1,0,0,16.338Z" transform="translate(-181.043 -11.786)" fill="#fce06a"/>
      </g>
      <g id="Grupo_55702" data-name="Grupo 55702" transform="translate(45.242 1.568)">
        <path id="Trazado_127915" data-name="Trazado 127915" d="M187.729,27.157a8.686,8.686,0,1,1,8.686-8.686A8.7,8.7,0,0,1,187.729,27.157Zm0-16.338a7.653,7.653,0,1,0,7.653,7.653A7.661,7.661,0,0,0,187.729,10.819Z" transform="translate(-179.043 -9.786)" fill="#690589"/>
      </g>
      <g id="Grupo_55704" data-name="Grupo 55704" transform="translate(50.725 5.36)">
        <g id="Grupo_55703" data-name="Grupo 55703">
          <path id="Trazado_127916" data-name="Trazado 127916" d="M203.469,24.469a.494.494,0,0,1,.5.5v.254a4.213,4.213,0,0,1,1.793.636.619.619,0,0,1,.347.555.637.637,0,0,1-.648.636.67.67,0,0,1-.347-.1,4.2,4.2,0,0,0-1.192-.509v2.221c1.758.44,2.511,1.145,2.511,2.383,0,1.273-.995,2.117-2.464,2.256v.694a.494.494,0,0,1-.5.5.5.5,0,0,1-.509-.5v-.717a5.007,5.007,0,0,1-2.372-.9.636.636,0,0,1-.312-.555.636.636,0,0,1,1.018-.509,4.1,4.1,0,0,0,1.712.775V29.8c-1.689-.44-2.476-1.076-2.476-2.383a2.325,2.325,0,0,1,2.429-2.21v-.243A.5.5,0,0,1,203.469,24.469Zm-.463,3.945V26.366c-.74.069-1.111.463-1.111.972C201.9,27.824,202.115,28.125,203.006,28.414Zm.914,1.608v2.105c.74-.081,1.145-.451,1.145-1.007C205.065,30.612,204.81,30.3,203.92,30.022Z" transform="translate(-200.275 -24.469)" fill="#690589"/>
        </g>
      </g>
      <g id="Grupo_55705" data-name="Grupo 55705" transform="translate(-1.338 42.405)">
        <circle id="Elipse_4305" data-name="Elipse 4305" cx="8.169" cy="8.169" r="8.169" transform="translate(0 11.551) rotate(-45)" fill="#fcc24c"/>
      </g>
      <g id="Grupo_55706" data-name="Grupo 55706" transform="translate(9.445 45.792)">
        <path id="Trazado_127917" data-name="Trazado 127917" d="M41.2,181.043c-.261,0-.52.014-.775.038a8.168,8.168,0,0,1,0,16.263c.255.024.513.037.775.037a8.169,8.169,0,1,0,0-16.338Z" transform="translate(-40.421 -181.043)" fill="#dea42e"/>
      </g>
      <g id="Grupo_55707" data-name="Grupo 55707" transform="translate(2.051 45.792)">
        <path id="Trazado_127918" data-name="Trazado 127918" d="M19.955,197.381c.261,0,.52-.013.775-.037a8.168,8.168,0,0,1,0-16.263c-.255-.024-.513-.038-.775-.038a8.169,8.169,0,1,0,0,16.338Z" transform="translate(-11.786 -181.043)" fill="#fce06a"/>
      </g>
      <g id="Grupo_55708" data-name="Grupo 55708" transform="translate(1.535 45.275)">
        <path id="Trazado_127919" data-name="Trazado 127919" d="M18.472,196.414a8.685,8.685,0,1,1,8.686-8.685A8.7,8.7,0,0,1,18.472,196.414Zm0-16.338a7.653,7.653,0,1,0,7.653,7.653A7.661,7.661,0,0,0,18.472,180.076Z" transform="translate(-9.786 -179.043)" fill="#690589"/>
      </g>
      <g id="Grupo_55710" data-name="Grupo 55710" transform="translate(7.017 49.067)">
        <g id="Grupo_55709" data-name="Grupo 55709">
          <path id="Trazado_127920" data-name="Trazado 127920" d="M34.212,193.726a.494.494,0,0,1,.5.5v.255a4.213,4.213,0,0,1,1.793.636.619.619,0,0,1,.347.555.637.637,0,0,1-.648.636.669.669,0,0,1-.347-.1,4.2,4.2,0,0,0-1.192-.509v2.221c1.758.44,2.511,1.145,2.511,2.383,0,1.273-.995,2.117-2.464,2.256v.694a.494.494,0,0,1-.5.5.5.5,0,0,1-.509-.5v-.717a5.007,5.007,0,0,1-2.372-.9.636.636,0,0,1-.312-.555.636.636,0,0,1,1.018-.509,4.1,4.1,0,0,0,1.712.775v-2.279c-1.689-.44-2.476-1.076-2.476-2.383a2.324,2.324,0,0,1,2.429-2.21v-.243A.5.5,0,0,1,34.212,193.726Zm-.463,3.945v-2.048c-.74.069-1.111.463-1.111.972C32.638,197.081,32.858,197.382,33.749,197.671Zm.914,1.608v2.105c.74-.081,1.145-.451,1.145-1.007C35.808,199.869,35.553,199.557,34.663,199.279Z" transform="translate(-31.018 -193.726)" fill="#690589"/>
        </g>
      </g>
      <g id="Grupo_55711" data-name="Grupo 55711" transform="translate(25.375 31.578)">
        <path id="Trazado_127921" data-name="Trazado 127921" d="M108.794,155.484a.515.515,0,0,1-.258-.069l-6.17-3.562a.516.516,0,0,1,0-.895l6.17-3.562a.516.516,0,0,1,.775.447v1.7a23.058,23.058,0,0,0,22.513-23.024.517.517,0,0,1,.516-.516h2.582a.517.517,0,0,1,.516.516,26.675,26.675,0,0,1-26.129,26.64v1.811a.517.517,0,0,1-.516.516Zm-5.137-4.078,4.62,2.668v-1.428a.517.517,0,0,1,.516-.516,25.642,25.642,0,0,0,25.607-25.1h-1.55a24.091,24.091,0,0,1-24.057,23.546.517.517,0,0,1-.516-.516v-1.325Z" transform="translate(-102.108 -126)" fill="#690589"/>
      </g>
      <g id="Grupo_55712" data-name="Grupo 55712" transform="translate(5.416 3.179)">
        <path id="Trazado_127922" data-name="Trazado 127922" d="M27.915,45.455H25.332a.517.517,0,0,1-.516-.516A26.675,26.675,0,0,1,50.945,18.3V16.539a.516.516,0,0,1,.775-.447l6.17,3.562a.516.516,0,0,1,0,.895l-6.17,3.562a.516.516,0,0,1-.775-.447V21.914A23.058,23.058,0,0,0,28.431,44.938.516.516,0,0,1,27.915,45.455Zm-2.061-1.033H27.4A24.091,24.091,0,0,1,51.461,20.875a.517.517,0,0,1,.516.516v1.376L56.6,20.1l-2.31-1.334-2.31-1.334V18.81a.517.517,0,0,1-.516.516A25.642,25.642,0,0,0,25.854,44.422Z" transform="translate(-24.816 -16.022)" fill="#690589"/>
      </g>
      <g id="Grupo_55713" data-name="Grupo 55713" transform="translate(19.592 23.088)">
        <path id="Trazado_127923" data-name="Trazado 127923" d="M79.712,93.122h24.939v23.206H79.712Z" transform="translate(-79.712 -93.122)" fill="rgba(136,82,168,0)"/>
      </g>
      <g id="Grupo_55714" data-name="Grupo 55714" transform="translate(19.075 25.343)">
        <path id="Trazado_127924" data-name="Trazado 127924" d="M103.167,112.59H78.228a.49.49,0,0,1-.516-.457V91.579a.49.49,0,0,1,.516-.457h24.939a.49.49,0,0,1,.516.457v20.553A.49.49,0,0,1,103.167,112.59Zm-24.422-.915h23.906V92.037H78.745Z" transform="translate(-77.712 -91.122)" fill="#690589"/>
      </g>
      <g id="Grupo_55716" data-name="Grupo 55716" transform="translate(22.715 25.343)">
        <path id="Trazado_127926" data-name="Trazado 127926" d="M109.983,105.309H92.324a.48.48,0,0,1-.516-.432V91.554a.48.48,0,0,1,.516-.432h17.659a.48.48,0,0,1,.516.432v13.324A.48.48,0,0,1,109.983,105.309Zm-17.142-.864h16.626V91.986H92.841Z" transform="translate(-91.808 -91.122)" fill="#690589"/>
      </g>
      <g id="Grupo_55717" data-name="Grupo 55717" transform="translate(16.908 25.343)">
        <path id="Trazado_127927" data-name="Trazado 127927" d="M72.352,105.8a3.03,3.03,0,0,1-3.031-3.031v-.92h6.061v.92A3.031,3.031,0,0,1,72.352,105.8Z" transform="translate(-69.321 -101.854)" fill="#f5ca56"/>
      </g>
      <g id="Grupo_55718" data-name="Grupo 55718" transform="translate(22.969 25.343)">
        <path id="Trazado_127928" data-name="Trazado 127928" d="M95.823,105.8a3.031,3.031,0,0,1-3.031-3.031v-.92h6.061v.92A3.031,3.031,0,0,1,95.823,105.8Z" transform="translate(-92.792 -101.854)" fill="#f5ca56"/>
      </g>
      <g id="Grupo_55719" data-name="Grupo 55719" transform="translate(29.03 25.343)">
        <path id="Trazado_127929" data-name="Trazado 127929" d="M119.295,105.8a3.031,3.031,0,0,1-3.031-3.031v-.92h6.061v.92A3.031,3.031,0,0,1,119.295,105.8Z" transform="translate(-116.264 -101.854)" fill="#f5ca56"/>
      </g>
      <g id="Grupo_55720" data-name="Grupo 55720" transform="translate(35.092 25.343)">
        <path id="Trazado_127930" data-name="Trazado 127930" d="M142.767,105.8a3.031,3.031,0,0,1-3.031-3.031v-.92H145.8v.92A3.031,3.031,0,0,1,142.767,105.8Z" transform="translate(-139.736 -101.854)" fill="#f5ca56"/>
      </g>
      <g id="Grupo_55721" data-name="Grupo 55721" transform="translate(41.152 25.343)">
        <path id="Trazado_127931" data-name="Trazado 127931" d="M166.238,105.8a3.03,3.03,0,0,1-3.031-3.031v-.92h6.061v.92A3.031,3.031,0,0,1,166.238,105.8Z" transform="translate(-163.207 -101.854)" fill="#f5ca56"/>
      </g>
      <g id="Grupo_55722" data-name="Grupo 55722" transform="translate(16.908 17.895)">
        <path id="Trazado_127932" data-name="Trazado 127932" d="M95.366,73.011H73.581a2.474,2.474,0,0,0-2.348,1.694l-1.912,5.754H99.627l-1.912-5.754A2.475,2.475,0,0,0,95.366,73.011Z" transform="translate(-69.321 -73.011)" fill="rgba(136,82,168,0)"/>
      </g>
      <g id="Grupo_55723" data-name="Grupo 55723" transform="translate(16.392 17.378)">
        <path id="Trazado_127933" data-name="Trazado 127933" d="M98.142,79.491H67.836a.517.517,0,0,1-.49-.679l1.912-5.754A2.987,2.987,0,0,1,72.1,71.01H93.882a2.987,2.987,0,0,1,2.839,2.048l1.912,5.754a.517.517,0,0,1-.49.679Zm-29.59-1.033H97.426L95.74,73.384a1.955,1.955,0,0,0-1.858-1.341H72.1a1.955,1.955,0,0,0-1.858,1.341Z" transform="translate(-67.32 -71.01)" fill="#690589"/>
      </g>
      <g id="Grupo_55724" data-name="Grupo 55724" transform="translate(16.392 24.826)">
        <path id="Trazado_127934" data-name="Trazado 127934" d="M70.868,104.837a3.551,3.551,0,0,1-3.547-3.547v-.92a.517.517,0,0,1,.516-.516H73.9a.517.517,0,0,1,.516.516v.92A3.551,3.551,0,0,1,70.868,104.837Zm-2.514-3.95v.4a2.514,2.514,0,1,0,5.028,0v-.4Z" transform="translate(-67.321 -99.854)" fill="#690589"/>
      </g>
      <g id="Grupo_55725" data-name="Grupo 55725" transform="translate(22.453 24.826)">
        <path id="Trazado_127935" data-name="Trazado 127935" d="M94.339,104.837a3.551,3.551,0,0,1-3.547-3.547v-.92a.517.517,0,0,1,.516-.516H97.37a.517.517,0,0,1,.516.516v.92A3.551,3.551,0,0,1,94.339,104.837Zm-2.514-3.95v.4a2.514,2.514,0,1,0,5.028,0v-.4Z" transform="translate(-90.792 -99.854)" fill="#690589"/>
      </g>
      <g id="Grupo_55726" data-name="Grupo 55726" transform="translate(28.514 24.826)">
        <path id="Trazado_127936" data-name="Trazado 127936" d="M117.811,104.837a3.551,3.551,0,0,1-3.547-3.547v-.92a.517.517,0,0,1,.516-.516h6.061a.517.517,0,0,1,.516.516v.92A3.551,3.551,0,0,1,117.811,104.837Zm-2.514-3.95v.4a2.514,2.514,0,1,0,5.028,0v-.4Z" transform="translate(-114.264 -99.854)" fill="#690589"/>
      </g>
      <g id="Grupo_55727" data-name="Grupo 55727" transform="translate(34.575 24.826)">
        <path id="Trazado_127937" data-name="Trazado 127937" d="M141.284,104.837a3.551,3.551,0,0,1-3.547-3.547v-.92a.517.517,0,0,1,.516-.516h6.061a.517.517,0,0,1,.516.516v.92A3.551,3.551,0,0,1,141.284,104.837Zm-2.514-3.95v.4a2.514,2.514,0,1,0,5.028,0v-.4Z" transform="translate(-137.737 -99.854)" fill="#690589"/>
      </g>
      <g id="Grupo_55728" data-name="Grupo 55728" transform="translate(40.636 24.826)">
        <path id="Trazado_127938" data-name="Trazado 127938" d="M164.755,104.837a3.551,3.551,0,0,1-3.547-3.547v-.92a.517.517,0,0,1,.516-.516h6.061a.517.517,0,0,1,.516.516v.92A3.551,3.551,0,0,1,164.755,104.837Zm-2.514-3.95v.4a2.514,2.514,0,1,0,5.028,0v-.4Z" transform="translate(-161.208 -99.854)" fill="#690589"/>
      </g>
    </g>
  </g>
</svg>
