<svg xmlns="http://www.w3.org/2000/svg" width="405.054" height="341.243" viewBox="0 0 405.054 341.243">
  <g id="Content-pana" transform="translate(-21.88 -76.387)">
    <g id="freepik--background-complete--inject-5" transform="translate(28.048 55.38)">
      <path id="Trazado_128743" data-name="Trazado 128743" d="M36.4,465.74v2.328H72.167V465.74Z" transform="translate(-29.954 -109.233)" fill="#ebebeb"/>
      <path id="Trazado_128745" data-name="Trazado 128745" d="M69.465,449.729l-.13.2c-.113.139-.243.321-.408.539l-1.59,2.042-.078.087-.069-.1-3.909-5.412H63.5l-3.857,5.456-.122.174-.13-.165c-1.425-1.685-2.971-3.527-4.57-5.438h.261l-.252.313-4.083,5.126-.139.174-.13-.182c-1.381-1.963-2.684-3.8-3.857-5.456h.226l-4.743,5.4-.087.1-.061-.1c-.634-1.051-1.129-1.894-1.494-2.5l-.382-.66a1.6,1.6,0,0,1-.113-.235,1.392,1.392,0,0,1,.156.208l.426.634,1.564,2.459h-.148l4.665-5.473.122-.139.1.148,3.892,5.43h-.261l4.075-5.134.252-.313.13-.165.139.156,4.552,5.447h-.252c1.407-1.963,2.711-3.8,3.892-5.43l.113-.165.113.165,3.831,5.473H67.2l1.659-1.946.443-.513C69.4,449.781,69.456,449.72,69.465,449.729Z" transform="translate(-30.422 -106.74)" fill="#f5f5f5"/>
      <path id="Trazado_128746" data-name="Trazado 128746" d="M70.315,441.974c0,.1-6.855.174-15.308.174s-15.308-.078-15.308-.174,6.855-.174,15.308-.174S70.315,441.887,70.315,441.974Z" transform="translate(-30.387 -106.091)" fill="#f5f5f5"/>
      <path id="Trazado_128747" data-name="Trazado 128747" d="M71.5,468.655c0,.1-7.445.174-16.637.174s-16.637-.078-16.637-.174,7.445-.165,16.637-.165S71.5,468.56,71.5,468.655Z" transform="translate(-30.194 -109.594)" fill="#f5f5f5"/>
      <rect id="Rectángulo_30688" data-name="Rectángulo 30688" width="76.834" height="74.34" transform="translate(310.853 255.961)" fill="#f5f5f5"/>
      <path id="Trazado_128748" data-name="Trazado 128748" d="M355.81,458.582l21.25-38.252,17.384,24.447L405.008,431.8l15.716,26.784Z" transform="translate(-38.997 -134.649)" fill="#e0e0e0"/>
      <path id="Trazado_128749" data-name="Trazado 128749" d="M407.138,410.934A5.534,5.534,0,1,1,401.6,405.4a5.534,5.534,0,0,1,5.534,5.534Z" transform="translate(-44.281 -132.689)" fill="#e0e0e0"/>
      <g id="Grupo_55795" data-name="Grupo 55795" transform="translate(283.661 293.13)" opacity="0.3">
        <path id="Trazado_128750" data-name="Trazado 128750" d="M420.682,455.176v-4.518c0-2.945-.043-7.211-.078-12.623-.043-10.86-.1-26.324-.165-44.889l.313.321-64.914.052c-.087.069.686-.695.365-.356h0v62l-.313-.321,46.913.165,13.24.078,3.475.043h.912a2.286,2.286,0,0,1,.313,0,1.48,1.48,0,0,1-.278,0h-4.344l-13.171.087-47.139.165h-.321V393.172h0l.374-.382,64.914.052h.321v.313c-.069,18.652-.122,34.177-.165,45.089,0,5.378-.061,9.617-.078,12.554,0,1.407,0,2.511-.043,3.284v.869A.87.87,0,0,1,420.682,455.176Z" transform="translate(-355.49 -392.79)" fill="#e0e0e0"/>
      </g>
      <rect id="Rectángulo_30689" data-name="Rectángulo 30689" width="345.031" height="196.141" transform="translate(13.718 21.007)" fill="#e0e0e0"/>
    </g>
    <g id="freepik--Floor--inject-5" transform="translate(21.88 417.178)">
      <path id="Trazado_128751" data-name="Trazado 128751" d="M426.934,472.056c0,.13-90.682.226-202.518.226s-202.536-.1-202.536-.226,90.664-.226,202.536-.226S426.934,471.978,426.934,472.056Z" transform="translate(-21.88 -471.83)" fill="#263238"/>
    </g>
    <g id="freepik--Screen--inject-5" transform="translate(54.989 96.838)">
      <rect id="Rectángulo_30690" data-name="Rectángulo 30690" width="341.625" height="217.626" transform="translate(0 1.103)" fill="#fff"/>
      <path id="Trazado_128761" data-name="Trazado 128761" d="M401.851,321c0-1.677-.069-84.07-.182-217.626l.182.209-341.59.061h0l.243-.269V321l-.226-.252L401.894,321l-341.616.252H60V103.1h.278l341.59.061h.191v.209C401.929,236.925,401.86,319.336,401.851,321Z" transform="translate(-59.991 -103.1)" fill="#263238"/>
      <path id="Trazado_128762" data-name="Trazado 128762" d="M402.051,118.392c0,.13-76.573.243-171,.243S60,118.522,60,118.392s76.556-.252,171.017-.252S402.051,118.253,402.051,118.392Z" transform="translate(-59.991 -105.074)" fill="#263238"/>
      <path id="Trazado_128763" data-name="Trazado 128763" d="M72.333,108.817a2.207,2.207,0,1,1-2.207-2.207,2.207,2.207,0,0,1,2.207,2.207Z" transform="translate(-61.031 -103.561)" fill="#263238"/>
      <path id="Trazado_128764" data-name="Trazado 128764" d="M80.123,108.817a2.207,2.207,0,1,1-2.207-2.207,2.207,2.207,0,0,1,2.207,2.207Z" transform="translate(-62.053 -103.561)" fill="#263238"/>
      <path id="Trazado_128765" data-name="Trazado 128765" d="M87.873,108.817a2.207,2.207,0,1,1-2.207-2.207,2.207,2.207,0,0,1,2.207,2.207Z" transform="translate(-63.07 -103.561)" fill="#263238"/>
      <rect id="Rectángulo_30691" data-name="Rectángulo 30691" width="70.448" height="68.163" transform="translate(22.918 130.576)" fill="#aa9ac4"/>
      <g id="Grupo_55796" data-name="Grupo 55796" transform="translate(28.383 157.829)" opacity="0.3">
        <path id="Trazado_128766" data-name="Trazado 128766" d="M92.66,319.851l19.486-35.081,15.942,22.423,9.687-11.911,14.413,24.569Z" transform="translate(-92.66 -284.77)"/>
      </g>
      <g id="Grupo_55797" data-name="Grupo 55797" transform="translate(60.457 145.944)" opacity="0.3">
        <path id="Trazado_128767" data-name="Trazado 128767" d="M139.727,276.155a5.074,5.074,0,1,1-5.074-5.065A5.074,5.074,0,0,1,139.727,276.155Z" transform="translate(-129.58 -271.09)"/>
      </g>
      <g id="Grupo_55798" data-name="Grupo 55798" transform="translate(28.261 135.892)" opacity="0.3">
        <path id="Trazado_128768" data-name="Trazado 128768" d="M152.169,316.72a.99.99,0,0,1,0-.278v-3.857c0-2.7,0-6.611-.078-11.581,0-9.956-.087-24.134-.148-41.153l.3.287-59.528.052.33-.33V316.72l-.287-.287,43.039.148,12.163.078h4.387a.868.868,0,0,1-.261,0h-3.97l-12.076.078-43.221.148h-.3V259.859l.339-.339,59.528.043h.287v.287c-.061,17.1-.113,31.336-.148,41.336,0,4.943-.061,8.827-.078,11.511v3.779a2.278,2.278,0,0,1-.278.243Z" transform="translate(-92.52 -259.52)"/>
      </g>
      <rect id="Rectángulo_30692" data-name="Rectángulo 30692" width="47.687" height="2.398" transform="translate(103.14 143.546)" fill="#aa9ac4"/>
      <path id="Trazado_128769" data-name="Trazado 128769" d="M243.016,280.133c0,.139-14.326.252-31.988.252s-31.988-.113-31.988-.252,14.317-.243,31.988-.243S243.016,279.986,243.016,280.133Z" transform="translate(-75.613 -126.301)" fill="#263238"/>
      <path id="Trazado_128770" data-name="Trazado 128770" d="M243.011,287.833c0,.139-14.326.252-31.988.252S179,287.946,179,287.833s14.317-.243,31.988-.243S243.011,287.7,243.011,287.833Z" transform="translate(-75.608 -127.311)" fill="#263238"/>
      <path id="Trazado_128771" data-name="Trazado 128771" d="M243.016,295.533c0,.139-14.326.243-31.988.243s-31.988-.1-31.988-.243,14.317-.243,31.988-.243S243.016,295.394,243.016,295.533Z" transform="translate(-75.613 -128.322)" fill="#263238"/>
      <path id="Trazado_128772" data-name="Trazado 128772" d="M243.016,303.233c0,.13-14.326.243-31.988.243s-31.988-.113-31.988-.243,14.317-.243,31.988-.243S243.016,303.094,243.016,303.233Z" transform="translate(-75.613 -129.332)" fill="#263238"/>
      <path id="Trazado_128773" data-name="Trazado 128773" d="M243.011,310.962c0,.13-14.326.243-31.988.243S179,311.066,179,310.962s14.317-.252,31.988-.252S243.011,310.8,243.011,310.962Z" transform="translate(-75.608 -130.345)" fill="#263238"/>
      <path id="Trazado_128774" data-name="Trazado 128774" d="M211.891,317.962c0,.13-7.358.243-16.428.243S179,318.127,179,317.962s7.358-.252,16.428-.252S211.891,317.858,211.891,317.962Z" transform="translate(-75.608 -131.264)" fill="#263238"/>
      <rect id="Rectángulo_30693" data-name="Rectángulo 30693" width="47.687" height="2.398" transform="translate(257.181 139.506)" fill="#aa9ac4"/>
      <path id="Trazado_128775" data-name="Trazado 128775" d="M420.336,275.493c0,.139-14.326.243-31.988.243s-31.988-.1-31.988-.243,14.317-.243,31.988-.243S420.336,275.354,420.336,275.493Z" transform="translate(-98.884 -125.692)" fill="#263238"/>
      <path id="Trazado_128776" data-name="Trazado 128776" d="M420.336,283.193c0,.139-14.326.243-31.988.243s-31.988-.1-31.988-.243,14.317-.243,31.988-.243S420.336,283.054,420.336,283.193Z" transform="translate(-98.884 -126.702)" fill="#263238"/>
      <path id="Trazado_128777" data-name="Trazado 128777" d="M420.336,290.892c0,.13-14.326.243-31.988.243s-31.988-.113-31.988-.243,14.317-.252,31.988-.252S420.336,290.753,420.336,290.892Z" transform="translate(-98.884 -127.712)" fill="#263238"/>
      <path id="Trazado_128778" data-name="Trazado 128778" d="M420.336,298.592c0,.13-14.326.243-31.988.243s-31.988-.113-31.988-.243,14.317-.252,31.988-.252S420.336,298.453,420.336,298.592Z" transform="translate(-98.884 -128.722)" fill="#263238"/>
      <path id="Trazado_128779" data-name="Trazado 128779" d="M420.336,306.283c0,.139-14.326.252-31.988.252s-31.988-.113-31.988-.252,14.317-.243,31.988-.243S420.336,306.153,420.336,306.283Z" transform="translate(-98.884 -129.733)" fill="#263238"/>
      <path id="Trazado_128780" data-name="Trazado 128780" d="M389.207,313.362c0,.13-7.358.243-16.428.243s-16.428-.113-16.428-.243,7.358-.252,16.428-.252S389.207,313.223,389.207,313.362Z" transform="translate(-98.882 -130.66)" fill="#263238"/>
      <path id="Trazado_128781" data-name="Trazado 128781" d="M344.68,334.158a6.012,6.012,0,0,1,2.363-.243c-.5.5-.139.139-.252.243h0v-.886a4.891,4.891,0,0,1,.052-.756c.043-.426.1-.686.174-.686s.13.261.174.686a6.3,6.3,0,0,0,.052.756v.869h0l-.243.252a5.734,5.734,0,0,1-2.32-.235Z" transform="translate(-97.351 -133.117)" fill="#263238"/>
      <path id="Trazado_128782" data-name="Trazado 128782" d="M333,334.473a13.258,13.258,0,0,1,5.056,0A12.814,12.814,0,0,1,333,334.473Z" transform="translate(-95.818 -133.432)" fill="#263238"/>
      <path id="Trazado_128783" data-name="Trazado 128783" d="M321.4,334.473a13.258,13.258,0,0,1,5.056,0A12.814,12.814,0,0,1,321.4,334.473Z" transform="translate(-94.296 -133.432)" fill="#263238"/>
      <path id="Trazado_128784" data-name="Trazado 128784" d="M309.76,334.473a13.258,13.258,0,0,1,5.056,0A12.814,12.814,0,0,1,309.76,334.473Z" transform="translate(-92.768 -133.432)" fill="#263238"/>
      <path id="Trazado_128785" data-name="Trazado 128785" d="M298.12,334.473a13.258,13.258,0,0,1,5.056,0A12.814,12.814,0,0,1,298.12,334.473Z" transform="translate(-91.241 -133.432)" fill="#263238"/>
      <path id="Trazado_128786" data-name="Trazado 128786" d="M286.48,334.473a13.258,13.258,0,0,1,5.056,0A12.814,12.814,0,0,1,286.48,334.473Z" transform="translate(-89.713 -133.432)" fill="#263238"/>
      <path id="Trazado_128787" data-name="Trazado 128787" d="M274.84,334.473a13.258,13.258,0,0,1,5.056,0A12.814,12.814,0,0,1,274.84,334.473Z" transform="translate(-88.186 -133.432)" fill="#263238"/>
      <path id="Trazado_128788" data-name="Trazado 128788" d="M266.259,331.8a5.707,5.707,0,0,1,.252,2.354l-.252-.243h.921l.756.052c.426.052.686.113.686.174s-.261.13-.686.182l-.756.052h-.921c-.1-.113.252.243-.243-.252A5.986,5.986,0,0,1,266.259,331.8Z" transform="translate(-87.024 -133.113)" fill="#263238"/>
      <path id="Trazado_128789" data-name="Trazado 128789" d="M266.263,320.56a11.955,11.955,0,0,1,0,4.882,12.37,12.37,0,0,1,0-4.882Z" transform="translate(-87.028 -131.638)" fill="#263238"/>
      <path id="Trazado_128790" data-name="Trazado 128790" d="M266.263,309.33a11.955,11.955,0,0,1,0,4.882,12.37,12.37,0,0,1,0-4.882Z" transform="translate(-87.028 -130.164)" fill="#263238"/>
      <path id="Trazado_128791" data-name="Trazado 128791" d="M266.259,298.1a11.911,11.911,0,0,1,0,4.874,12.329,12.329,0,0,1,0-4.874Z" transform="translate(-87.024 -128.691)" fill="#263238"/>
      <path id="Trazado_128792" data-name="Trazado 128792" d="M266.263,286.86a11.955,11.955,0,0,1,0,4.882,12.37,12.37,0,0,1,0-4.882Z" transform="translate(-87.028 -127.215)" fill="#263238"/>
      <path id="Trazado_128793" data-name="Trazado 128793" d="M266.259,275.63a11.911,11.911,0,0,1,0,4.874,12.327,12.327,0,0,1,0-4.874Z" transform="translate(-87.024 -125.742)" fill="#263238"/>
      <path id="Trazado_128794" data-name="Trazado 128794" d="M266.263,264.39a11.955,11.955,0,0,1,0,4.882A12.37,12.37,0,0,1,266.263,264.39Z" transform="translate(-87.028 -124.267)" fill="#263238"/>
      <path id="Trazado_128795" data-name="Trazado 128795" d="M268.609,256.019a5.855,5.855,0,0,1-2.363.243l.252-.243h0v.895a3.286,3.286,0,0,1-.052.747c-.043.426-.1.7-.174.7s-.13-.269-.174-.7a3.952,3.952,0,0,0-.052-.747,1.2,1.2,0,0,1,0-.443v-.452h0l.243-.243a5.855,5.855,0,0,1,2.32.243Z" transform="translate(-87.029 -123.133)" fill="#263238"/>
      <path id="Trazado_128796" data-name="Trazado 128796" d="M279.9,256.023a13.259,13.259,0,0,1-5.056,0,13.256,13.256,0,0,1,5.056,0Z" transform="translate(-88.186 -123.137)" fill="#263238"/>
      <path id="Trazado_128797" data-name="Trazado 128797" d="M291.536,256.023a13.259,13.259,0,0,1-5.056,0,13.256,13.256,0,0,1,5.056,0Z" transform="translate(-89.713 -123.137)" fill="#263238"/>
      <path id="Trazado_128798" data-name="Trazado 128798" d="M303.176,256.023a13.259,13.259,0,0,1-5.056,0,13.256,13.256,0,0,1,5.056,0Z" transform="translate(-91.241 -123.137)" fill="#263238"/>
      <path id="Trazado_128799" data-name="Trazado 128799" d="M314.816,256.023a13.259,13.259,0,0,1-5.056,0,13.256,13.256,0,0,1,5.056,0Z" transform="translate(-92.768 -123.137)" fill="#263238"/>
      <path id="Trazado_128800" data-name="Trazado 128800" d="M326.456,256.023a13.259,13.259,0,0,1-5.056,0,13.256,13.256,0,0,1,5.056,0Z" transform="translate(-94.296 -123.137)" fill="#263238"/>
      <path id="Trazado_128801" data-name="Trazado 128801" d="M338.1,256.023a13.259,13.259,0,0,1-5.056,0,13.256,13.256,0,0,1,5.056,0Z" transform="translate(-95.823 -123.137)" fill="#263238"/>
      <path id="Trazado_128802" data-name="Trazado 128802" d="M347.043,258.392a5.769,5.769,0,0,1-.252-2.363l.252.243h-.921a3.366,3.366,0,0,1-.756-.052c-.426-.043-.686-.1-.686-.174s.261-.13.686-.174a6.3,6.3,0,0,0,.756-.052h.921l.243.243a6.081,6.081,0,0,1-.243,2.328Z" transform="translate(-97.351 -123.142)" fill="#263238"/>
      <path id="Trazado_128803" data-name="Trazado 128803" d="M347.362,269.262a11.953,11.953,0,0,1,0-4.882,12.373,12.373,0,0,1,0,4.882Z" transform="translate(-97.67 -124.265)" fill="#263238"/>
      <path id="Trazado_128804" data-name="Trazado 128804" d="M347.362,280.5a11.91,11.91,0,0,1,0-4.874,12.329,12.329,0,0,1,0,4.874Z" transform="translate(-97.67 -125.742)" fill="#263238"/>
      <path id="Trazado_128805" data-name="Trazado 128805" d="M347.362,291.742a11.954,11.954,0,0,1,0-4.883,12.372,12.372,0,0,1,0,4.883Z" transform="translate(-97.67 -127.216)" fill="#263238"/>
      <path id="Trazado_128806" data-name="Trazado 128806" d="M347.362,302.974a11.91,11.91,0,0,1,0-4.874,12.327,12.327,0,0,1,0,4.874Z" transform="translate(-97.67 -128.691)" fill="#263238"/>
      <path id="Trazado_128807" data-name="Trazado 128807" d="M347.362,314.262a11.953,11.953,0,0,1,0-4.882,12.372,12.372,0,0,1,0,4.882Z" transform="translate(-97.67 -130.171)" fill="#263238"/>
      <path id="Trazado_128808" data-name="Trazado 128808" d="M347.362,325.442a11.953,11.953,0,0,1,0-4.882,12.372,12.372,0,0,1,0,4.882Z" transform="translate(-97.67 -131.638)" fill="#263238"/>
      <path id="Trazado_128809" data-name="Trazado 128809" d="M315.791,177.21v-1.955c0-1.277,0-3.119-.043-5.473,0-4.735-.061-11.529-.1-19.825l.174.174-44.255.052c-.052.043.426-.426.217-.226h0v27.236l-.217-.209,31.814.1,9.148.061h3.075a1.154,1.154,0,0,1,.226,0H312.62l-9.1.061-31.953.1h-.208V149.965h0c-.2.2.278-.278.235-.226l44.255.043h.182v.182c-.043,8.349-.078,15.169-.1,19.938,0,2.337,0,4.161-.043,5.43v1.416A.743.743,0,0,1,315.791,177.21Z" transform="translate(-87.723 -109.22)" fill="#aa9ac4"/>
      <path id="Trazado_128810" data-name="Trazado 128810" d="M296.8,162.775l3.631,1.955-3.484,2.294-3.492,2.294-.139-4.248-.148-4.248Z" transform="translate(-90.591 -110.675)" fill="#aa9ac4"/>
      <path id="Trazado_128811" data-name="Trazado 128811" d="M313.109,178.191c0,.13-8.479.226-18.93.226s-18.939-.1-18.939-.226,8.479-.191,18.9-.191S313.109,178.069,313.109,178.191Z" transform="translate(-88.238 -112.929)" fill="#aa9ac4"/>
      <circle id="Elipse_4327" data-name="Elipse 4327" cx="0.478" cy="0.478" r="0.478" transform="translate(186.707 64.784)" fill="#aa9ac4"/>
      <rect id="Rectángulo_30694" data-name="Rectángulo 30694" width="47.687" height="2.398" transform="translate(238.016 43.925)" fill="#aa9ac4"/>
      <path id="Trazado_128812" data-name="Trazado 128812" d="M398.267,165.472c0,.13-14.317.243-31.979.243s-31.988-.113-31.988-.243,14.317-.252,31.988-.252S398.267,165.333,398.267,165.472Z" transform="translate(-95.989 -111.252)" fill="#263238"/>
      <path id="Trazado_128813" data-name="Trazado 128813" d="M398.267,173.163c0,.139-14.317.252-31.979.252s-31.988-.113-31.988-.252,14.317-.243,31.988-.243S398.267,173.033,398.267,173.163Z" transform="translate(-95.989 -112.263)" fill="#263238"/>
      <path id="Trazado_128814" data-name="Trazado 128814" d="M315.791,223.267v-1.946c0-1.277,0-3.119-.043-5.473,0-4.735-.061-11.529-.1-19.825l.174.174-44.255.052c-.052,0,.426-.434.217-.226h0v27.245l-.217-.208,31.814.1,9.148.061h.087l-9.1.061-31.953.1h-.208V195.935h0c-.2.2.278-.278.235-.226l44.255.043h.182v.182c-.043,8.349-.078,15.169-.1,19.93,0,2.337,0,4.17-.043,5.438v1.407A4.549,4.549,0,0,1,315.791,223.267Z" transform="translate(-87.723 -115.253)" fill="#aa9ac4"/>
      <path id="Trazado_128815" data-name="Trazado 128815" d="M296.8,208.845l3.631,1.955-3.484,2.3-3.492,2.294-.139-4.248-.148-4.257Z" transform="translate(-90.591 -116.721)" fill="#aa9ac4"/>
      <path id="Trazado_128816" data-name="Trazado 128816" d="M313.109,224.261c0,.122-8.479.226-18.93.226s-18.939-.1-18.939-.226,8.479-.261,18.9-.261S313.109,224.139,313.109,224.261Z" transform="translate(-88.238 -118.966)" fill="#aa9ac4"/>
      <circle id="Elipse_4328" data-name="Elipse 4328" cx="0.478" cy="0.478" r="0.478" transform="translate(186.707 104.817)" fill="#aa9ac4"/>
      <rect id="Rectángulo_30695" data-name="Rectángulo 30695" width="47.687" height="2.398" transform="translate(238.016 83.958)" fill="#aa9ac4"/>
      <path id="Trazado_128817" data-name="Trazado 128817" d="M398.267,211.543c0,.139-14.317.252-31.979.252s-31.988-.113-31.988-.252,14.317-.243,31.988-.243S398.267,211.413,398.267,211.543Z" transform="translate(-95.989 -117.299)" fill="#263238"/>
      <path id="Trazado_128818" data-name="Trazado 128818" d="M398.267,219.243c0,.139-14.317.252-31.979.252s-31.988-.113-31.988-.252S348.617,219,366.288,219,398.267,219.113,398.267,219.243Z" transform="translate(-95.989 -118.31)" fill="#263238"/>
      <path id="Trazado_128819" data-name="Trazado 128819" d="M244.77,238.155a5.482,5.482,0,0,1,2.172-.226l-.226.226h0v-.825a3.424,3.424,0,0,1,.043-.7c0-.391.1-.634.165-.634s.113.243.156.634a3.407,3.407,0,0,0,.052.7v.869h0l-.226.226a5.308,5.308,0,0,1-2.137-.269Z" transform="translate(-84.239 -120.541)" fill="#e0e0e0"/>
      <path id="Trazado_128820" data-name="Trazado 128820" d="M234.79,238.446a10.512,10.512,0,0,1,4.344,0A10.512,10.512,0,0,1,234.79,238.446Z" transform="translate(-82.93 -120.832)" fill="#e0e0e0"/>
      <path id="Trazado_128821" data-name="Trazado 128821" d="M224.82,238.446a10.469,10.469,0,0,1,4.344,0,10.468,10.468,0,0,1-4.344,0Z" transform="translate(-81.621 -120.832)" fill="#e0e0e0"/>
      <path id="Trazado_128822" data-name="Trazado 128822" d="M214.84,238.446a10.512,10.512,0,0,1,4.344,0A10.512,10.512,0,0,1,214.84,238.446Z" transform="translate(-80.312 -120.832)" fill="#e0e0e0"/>
      <path id="Trazado_128823" data-name="Trazado 128823" d="M204.87,238.442a5.421,5.421,0,0,1,2.163-.226,5.482,5.482,0,0,1,2.172.226,5.308,5.308,0,0,1-2.172.226,5.212,5.212,0,0,1-2.163-.226Z" transform="translate(-79.003 -120.828)" fill="#e0e0e0"/>
      <path id="Trazado_128824" data-name="Trazado 128824" d="M194.89,238.446a10.512,10.512,0,0,1,4.344,0A10.512,10.512,0,0,1,194.89,238.446Z" transform="translate(-77.693 -120.832)" fill="#e0e0e0"/>
      <path id="Trazado_128825" data-name="Trazado 128825" d="M184.92,238.446a10.512,10.512,0,0,1,4.344,0A10.512,10.512,0,0,1,184.92,238.446Z" transform="translate(-76.385 -120.832)" fill="#e0e0e0"/>
      <path id="Trazado_128826" data-name="Trazado 128826" d="M174.94,238.442a5.482,5.482,0,0,1,2.172-.226,5.421,5.421,0,0,1,2.163.226,5.213,5.213,0,0,1-2.163.226A5.308,5.308,0,0,1,174.94,238.442Z" transform="translate(-75.075 -120.828)" fill="#e0e0e0"/>
      <path id="Trazado_128827" data-name="Trazado 128827" d="M165,238.446a10.512,10.512,0,0,1,4.344,0A10.512,10.512,0,0,1,165,238.446Z" transform="translate(-73.771 -120.832)" fill="#e0e0e0"/>
      <path id="Trazado_128828" data-name="Trazado 128828" d="M155,238.446a10.469,10.469,0,0,1,4.344,0,10.468,10.468,0,0,1-4.344,0Z" transform="translate(-72.459 -120.832)" fill="#e0e0e0"/>
      <path id="Trazado_128829" data-name="Trazado 128829" d="M145,238.446a10.512,10.512,0,0,1,4.344,0A10.512,10.512,0,0,1,145,238.446Z" transform="translate(-71.146 -120.832)" fill="#e0e0e0"/>
      <path id="Trazado_128830" data-name="Trazado 128830" d="M135.05,238.446a10.469,10.469,0,0,1,4.344,0,10.468,10.468,0,0,1-4.344,0Z" transform="translate(-69.84 -120.832)" fill="#e0e0e0"/>
      <path id="Trazado_128831" data-name="Trazado 128831" d="M125.07,238.446a10.512,10.512,0,0,1,4.344,0,10.512,10.512,0,0,1-4.344,0Z" transform="translate(-68.531 -120.832)" fill="#e0e0e0"/>
      <path id="Trazado_128832" data-name="Trazado 128832" d="M115.1,238.442a10.472,10.472,0,0,1,4.326,0,10.472,10.472,0,0,1-4.326,0Z" transform="translate(-67.222 -120.828)" fill="#e0e0e0"/>
      <path id="Trazado_128833" data-name="Trazado 128833" d="M105.12,238.442a10.513,10.513,0,0,1,4.335,0,5.282,5.282,0,0,1-2.163.226,5.308,5.308,0,0,1-2.172-.226Z" transform="translate(-65.913 -120.828)" fill="#e0e0e0"/>
      <path id="Trazado_128834" data-name="Trazado 128834" d="M95.15,238.442a5.421,5.421,0,0,1,2.163-.226,5.482,5.482,0,0,1,2.172.226,5.308,5.308,0,0,1-2.172.226,5.212,5.212,0,0,1-2.163-.226Z" transform="translate(-64.604 -120.828)" fill="#e0e0e0"/>
      <path id="Trazado_128835" data-name="Trazado 128835" d="M87.625,236a5.482,5.482,0,0,1,.226,2.172l-.226-.226h.869a2.865,2.865,0,0,1,.7.052c.391,0,.634.1.634.156s-.243.122-.634.165l-.7.043h-.843l-.226-.226A5.482,5.482,0,0,1,87.625,236Z" transform="translate(-63.587 -120.541)" fill="#e0e0e0"/>
      <path id="Trazado_128836" data-name="Trazado 128836" d="M87.626,226.16a10.182,10.182,0,0,1,0,4.266A10.182,10.182,0,0,1,87.626,226.16Z" transform="translate(-63.587 -119.25)" fill="#e0e0e0"/>
      <path id="Trazado_128837" data-name="Trazado 128837" d="M87.626,216.35a10.182,10.182,0,0,1,0,4.266A10.182,10.182,0,0,1,87.626,216.35Z" transform="translate(-63.587 -117.962)" fill="#e0e0e0"/>
      <path id="Trazado_128838" data-name="Trazado 128838" d="M87.626,206.53a10.182,10.182,0,0,1,0,4.266A10.182,10.182,0,0,1,87.626,206.53Z" transform="translate(-63.587 -116.674)" fill="#e0e0e0"/>
      <path id="Trazado_128839" data-name="Trazado 128839" d="M87.626,196.71a10.182,10.182,0,0,1,0,4.266A10.182,10.182,0,0,1,87.626,196.71Z" transform="translate(-63.587 -115.385)" fill="#e0e0e0"/>
      <path id="Trazado_128840" data-name="Trazado 128840" d="M87.626,186.89a10.182,10.182,0,0,1,0,4.266A10.182,10.182,0,0,1,87.626,186.89Z" transform="translate(-63.587 -114.096)" fill="#e0e0e0"/>
      <path id="Trazado_128841" data-name="Trazado 128841" d="M87.626,177.08a10.139,10.139,0,0,1,0,4.257,10.139,10.139,0,0,1,0-4.257Z" transform="translate(-63.587 -112.809)" fill="#e0e0e0"/>
      <path id="Trazado_128842" data-name="Trazado 128842" d="M87.626,167.26a10.182,10.182,0,0,1,0,4.266,10.182,10.182,0,0,1,0-4.266Z" transform="translate(-63.587 -111.52)" fill="#e0e0e0"/>
      <path id="Trazado_128843" data-name="Trazado 128843" d="M87.626,157.44a10.182,10.182,0,0,1,0,4.266A10.182,10.182,0,0,1,87.626,157.44Z" transform="translate(-63.587 -110.231)" fill="#e0e0e0"/>
      <path id="Trazado_128844" data-name="Trazado 128844" d="M87.626,147.62a10.182,10.182,0,0,1,0,4.266,10.182,10.182,0,0,1,0-4.266Z" transform="translate(-63.587 -108.943)" fill="#e0e0e0"/>
      <path id="Trazado_128845" data-name="Trazado 128845" d="M89.8,140.168a5.212,5.212,0,0,1-2.172.235c.452-.46.122-.13.226-.226h0v.834a3.245,3.245,0,0,1-.052.686c0,.391-.1.634-.156.634s-.122-.243-.156-.634a3.368,3.368,0,0,0-.052-.686v-.869h0c.1-.1-.226.217.226-.235a5.481,5.481,0,0,1,2.137.261Z" transform="translate(-63.589 -107.928)" fill="#e0e0e0"/>
      <path id="Trazado_128846" data-name="Trazado 128846" d="M99.485,140.172a5.212,5.212,0,0,1-2.172.235,5.16,5.16,0,0,1-2.163-.235,5.421,5.421,0,0,1,2.163-.226A5.482,5.482,0,0,1,99.485,140.172Z" transform="translate(-64.604 -107.932)" fill="#e0e0e0"/>
      <path id="Trazado_128847" data-name="Trazado 128847" d="M109.455,140.172a10.132,10.132,0,0,1-4.335,0,10.513,10.513,0,0,1,4.335,0Z" transform="translate(-65.913 -107.932)" fill="#e0e0e0"/>
      <path id="Trazado_128848" data-name="Trazado 128848" d="M119.426,140.172a10.092,10.092,0,0,1-4.326,0,10.472,10.472,0,0,1,4.326,0Z" transform="translate(-67.222 -107.932)" fill="#e0e0e0"/>
      <path id="Trazado_128849" data-name="Trazado 128849" d="M129.4,140.176a10.13,10.13,0,0,1-4.344,0,10.512,10.512,0,0,1,4.344,0Z" transform="translate(-68.529 -107.936)" fill="#e0e0e0"/>
      <path id="Trazado_128850" data-name="Trazado 128850" d="M139.344,140.176a10.1,10.1,0,0,1-4.344,0A10.468,10.468,0,0,1,139.344,140.176Z" transform="translate(-69.834 -107.936)" fill="#e0e0e0"/>
      <path id="Trazado_128851" data-name="Trazado 128851" d="M149.344,140.176a10.13,10.13,0,0,1-4.344,0,10.512,10.512,0,0,1,4.344,0Z" transform="translate(-71.146 -107.936)" fill="#e0e0e0"/>
      <path id="Trazado_128852" data-name="Trazado 128852" d="M159.344,140.176a10.1,10.1,0,0,1-4.344,0A10.468,10.468,0,0,1,159.344,140.176Z" transform="translate(-72.459 -107.936)" fill="#e0e0e0"/>
      <path id="Trazado_128853" data-name="Trazado 128853" d="M169.344,140.176a10.13,10.13,0,0,1-4.344,0A10.512,10.512,0,0,1,169.344,140.176Z" transform="translate(-73.771 -107.936)" fill="#e0e0e0"/>
      <path id="Trazado_128854" data-name="Trazado 128854" d="M179.275,140.172a5.161,5.161,0,0,1-2.163.235,5.213,5.213,0,0,1-2.172-.235,5.482,5.482,0,0,1,2.172-.226,5.421,5.421,0,0,1,2.163.226Z" transform="translate(-75.075 -107.932)" fill="#e0e0e0"/>
      <path id="Trazado_128855" data-name="Trazado 128855" d="M189.254,140.176a10.13,10.13,0,0,1-4.344,0,10.512,10.512,0,0,1,4.344,0Z" transform="translate(-76.384 -107.936)" fill="#e0e0e0"/>
      <path id="Trazado_128856" data-name="Trazado 128856" d="M199.224,140.176a10.13,10.13,0,0,1-4.344,0,10.512,10.512,0,0,1,4.344,0Z" transform="translate(-77.692 -107.936)" fill="#e0e0e0"/>
      <path id="Trazado_128857" data-name="Trazado 128857" d="M209.205,140.172a5.213,5.213,0,0,1-2.172.235,5.161,5.161,0,0,1-2.163-.235,5.421,5.421,0,0,1,2.163-.226A5.481,5.481,0,0,1,209.205,140.172Z" transform="translate(-79.003 -107.932)" fill="#e0e0e0"/>
      <path id="Trazado_128858" data-name="Trazado 128858" d="M219.174,140.176a10.13,10.13,0,0,1-4.344,0,10.512,10.512,0,0,1,4.344,0Z" transform="translate(-80.31 -107.936)" fill="#e0e0e0"/>
      <path id="Trazado_128859" data-name="Trazado 128859" d="M229.144,140.176a10.1,10.1,0,0,1-4.344,0A10.468,10.468,0,0,1,229.144,140.176Z" transform="translate(-81.619 -107.936)" fill="#e0e0e0"/>
      <path id="Trazado_128860" data-name="Trazado 128860" d="M239.124,140.176a10.13,10.13,0,0,1-4.344,0,10.512,10.512,0,0,1,4.344,0Z" transform="translate(-82.928 -107.936)" fill="#e0e0e0"/>
      <path id="Trazado_128861" data-name="Trazado 128861" d="M246.942,142.358a5.273,5.273,0,0,1-.226-2.172c.452.452.122.13.226.235H245.4c-.391-.043-.634-.1-.634-.165s.243-.113.634-.156l.686-.052h.869c.1.1-.226-.226.226.226a5.447,5.447,0,0,1-.243,2.085Z" transform="translate(-84.239 -107.946)" fill="#e0e0e0"/>
      <path id="Trazado_128862" data-name="Trazado 128862" d="M247.236,151.886a10.181,10.181,0,0,1,0-4.266,10.182,10.182,0,0,1,0,4.266Z" transform="translate(-84.533 -108.943)" fill="#e0e0e0"/>
      <path id="Trazado_128863" data-name="Trazado 128863" d="M247.236,161.706a10.181,10.181,0,0,1,0-4.266,10.182,10.182,0,0,1,0,4.266Z" transform="translate(-84.533 -110.231)" fill="#e0e0e0"/>
      <path id="Trazado_128864" data-name="Trazado 128864" d="M247.236,171.526a10.182,10.182,0,0,1,0-4.266,10.182,10.182,0,0,1,0,4.266Z" transform="translate(-84.533 -111.52)" fill="#e0e0e0"/>
      <path id="Trazado_128865" data-name="Trazado 128865" d="M247.236,181.357a10.139,10.139,0,0,1,0-4.257A10.139,10.139,0,0,1,247.236,181.357Z" transform="translate(-84.533 -112.811)" fill="#e0e0e0"/>
      <path id="Trazado_128866" data-name="Trazado 128866" d="M247.236,191.156a10.181,10.181,0,0,1,0-4.266,10.182,10.182,0,0,1,0,4.266Z" transform="translate(-84.533 -114.096)" fill="#e0e0e0"/>
      <path id="Trazado_128867" data-name="Trazado 128867" d="M247.236,200.976a10.181,10.181,0,0,1,0-4.266,10.182,10.182,0,0,1,0,4.266Z" transform="translate(-84.533 -115.385)" fill="#e0e0e0"/>
      <path id="Trazado_128868" data-name="Trazado 128868" d="M247.236,210.8a10.181,10.181,0,0,1,0-4.266,10.182,10.182,0,0,1,0,4.266Z" transform="translate(-84.533 -116.674)" fill="#e0e0e0"/>
      <path id="Trazado_128869" data-name="Trazado 128869" d="M247.232,220.616a5.134,5.134,0,0,1-.226-2.137,5.081,5.081,0,0,1,.226-2.128,5.213,5.213,0,0,1,.226,2.128A5.309,5.309,0,0,1,247.232,220.616Z" transform="translate(-84.529 -117.962)" fill="#e0e0e0"/>
      <path id="Trazado_128870" data-name="Trazado 128870" d="M247.236,230.426a10.181,10.181,0,0,1,0-4.266,10.182,10.182,0,0,1,0,4.266Z" transform="translate(-84.533 -119.25)" fill="#e0e0e0"/>
    </g>
    <g id="freepik--Character--inject-5" transform="translate(66.505 126.172)">
      <path id="Trazado_128871" data-name="Trazado 128871" d="M214.424,224.834,79.67,232.227a1.859,1.859,0,0,1-1.955-1.738L73.25,148.948a1.85,1.85,0,0,1,1.738-1.955L209.733,139.6a1.859,1.859,0,0,1,1.955,1.738l4.474,81.534a1.85,1.85,0,0,1-1.738,1.963Z" transform="translate(-73.246 -137.224)" fill="#aa9ac4"/>
      <path id="Trazado_128872" data-name="Trazado 128872" d="M154.862,182.111l11.694,5.491-10.512,7.784-10.521,7.784-1.182-13.275L143.16,176.62Z" transform="translate(-82.421 -142.083)" fill="#fff"/>
      <path id="Trazado_128873" data-name="Trazado 128873" d="M207.936,228.429c0,.122-26.506,1.677-59.215,3.475s-59.232,3.145-59.241,3.023,26.506-1.685,59.224-3.475S207.928,228.3,207.936,228.429Z" transform="translate(-75.377 -148.881)" fill="#fff"/>
      <path id="Trazado_128874" data-name="Trazado 128874" d="M91.409,235.566a1.494,1.494,0,1,1-.492-1.034A1.494,1.494,0,0,1,91.409,235.566Z" transform="translate(-75.238 -149.632)" fill="#fff"/>
      <g id="Grupo_55799" data-name="Grupo 55799" transform="translate(108.182 2.402)" opacity="0.3">
        <path id="Trazado_128875" data-name="Trazado 128875" d="M218.89,140.117c-2.155,4.135-4.344,8.853-2.884,13.275.686,2.024,2.076,3.727,3.128,5.586,3.232,5.708,3.119,12.632,2.928,19.182-.061,1.859-.217,3.944-1.616,5.16-1.155.99-2.8,1.1-4.344,1.155l-18.331.7v32.275l34-7.524-1.59-48.26-.869-8.14-3.432-13.9Z" transform="translate(-197.77 -139.63)"/>
      </g>
      <path id="Trazado_128876" data-name="Trazado 128876" d="M188.53,440.522l1.164,27.227,14.7-.33-1.1-27.279Z" transform="translate(-88.375 -176.665)" fill="#aa9ac4"/>
      <path id="Trazado_128877" data-name="Trazado 128877" d="M197.955,466.53c.122,0-.113-5.968-.513-13.318s-.869-13.3-.956-13.292.1,5.968.513,13.318S197.8,466.539,197.955,466.53Z" transform="translate(-89.417 -176.637)" fill="#263238"/>
      <path id="Trazado_128878" data-name="Trazado 128878" d="M189.77,469.7l14.708-.374.078,1.92-14.7.33Z" transform="translate(-88.538 -180.496)" fill="#e0e0e0"/>
      <path id="Trazado_128879" data-name="Trazado 128879" d="M204.187,460.9a3.25,3.25,0,0,0-.4-.582,10.538,10.538,0,0,0-3.823-2.824,7.637,7.637,0,0,0-3.475-.625,7.749,7.749,0,0,0-5.612,2.754,6.594,6.594,0,0,0-1,1.642,1.9,1.9,0,0,0-.209.678,16.078,16.078,0,0,1,1.442-2.12,7.819,7.819,0,0,1,5.4-2.511,8.957,8.957,0,0,1,5.69,1.92C203.492,460.17,204.135,460.951,204.187,460.9Z" transform="translate(-88.525 -178.859)" fill="#263238"/>
      <g id="Grupo_55800" data-name="Grupo 55800" transform="translate(100.511 271.241)" opacity="0.3">
        <path id="Trazado_128880" data-name="Trazado 128880" d="M203.657,449.08l.122,3-14.734.261-.1-2.259Z" transform="translate(-188.94 -449.08)"/>
      </g>
      <path id="Trazado_128881" data-name="Trazado 128881" d="M145.107,441.374l.738,17.028s-17.071,6.472-17.245,9.635l33.083-.243-.061-26.593Z" transform="translate(-80.511 -176.805)" fill="#aa9ac4"/>
      <path id="Trazado_128882" data-name="Trazado 128882" d="M159.758,459.336a1.364,1.364,0,0,1,.947,1.546,1.3,1.3,0,0,1-1.52.956,1.425,1.425,0,0,1-1-1.642,1.347,1.347,0,0,1,1.694-.817" transform="translate(-84.39 -179.181)" fill="#e0e0e0"/>
      <path id="Trazado_128883" data-name="Trazado 128883" d="M161.645,471.407V468.74l-32.014,1.216s-1.477.652-1.3,1.694Z" transform="translate(-80.473 -180.419)" fill="#e0e0e0"/>
      <path id="Trazado_128884" data-name="Trazado 128884" d="M148.1,461.109c0,.165.869.235,1.625.747s1.234,1.2,1.39,1.138-.1-1.008-1.086-1.616A1.956,1.956,0,0,0,148.1,461.109Z" transform="translate(-83.07 -179.4)" fill="#263238"/>
      <path id="Trazado_128885" data-name="Trazado 128885" d="M144.09,462.812c0,.165.669.434,1.225,1.121s.73,1.407.869,1.4.261-.93-.452-1.738S144.09,462.664,144.09,462.812Z" transform="translate(-82.543 -179.634)" fill="#263238"/>
      <path id="Trazado_128886" data-name="Trazado 128886" d="M141.641,467.237c.148,0,.374-.782-.052-1.677s-1.19-1.234-1.26-1.095.408.608.747,1.338S141.484,467.219,141.641,467.237Z" transform="translate(-82.049 -179.854)" fill="#263238"/>
      <path id="Trazado_128887" data-name="Trazado 128887" d="M148.409,456.524c.07.148.808-.087,1.738,0s1.642.339,1.738.2-.608-.712-1.694-.765S148.322,456.394,148.409,456.524Z" transform="translate(-83.109 -178.741)" fill="#263238"/>
      <path id="Trazado_128888" data-name="Trazado 128888" d="M147.69,451.982a3.05,3.05,0,0,0,1.668,0,7.229,7.229,0,0,0,1.738-.547,7.924,7.924,0,0,0,.956-.513,2.12,2.12,0,0,0,.5-.4.7.7,0,0,0,.07-.869.869.869,0,0,0-.712-.374,2.493,2.493,0,0,0-.626.1,5.78,5.78,0,0,0-1.034.365,5.976,5.976,0,0,0-1.538,1.017c-.764.721-1.025,1.338-.964,1.364s.443-.46,1.225-1.051a6.246,6.246,0,0,1,1.486-.869,6.151,6.151,0,0,1,.982-.3c.348-.1.652-.1.738.052s0,.087,0,.191a1.478,1.478,0,0,1-.365.287,8.477,8.477,0,0,1-.869.513,9.555,9.555,0,0,1-1.607.634A11.453,11.453,0,0,0,147.69,451.982Z" transform="translate(-83.016 -177.865)" fill="#263238"/>
      <path id="Trazado_128889" data-name="Trazado 128889" d="M147.6,451.856a2.763,2.763,0,0,0,.426-1.616,5.291,5.291,0,0,0-.243-1.824,5.108,5.108,0,0,0-.434-1.016,1.373,1.373,0,0,0-1.069-.869.791.791,0,0,0-.7.469,2.727,2.727,0,0,0-.165.617,4.022,4.022,0,0,0,0,1.121,3.822,3.822,0,0,0,.73,1.737c.652.869,1.338,1.051,1.347.99a7.045,7.045,0,0,1-1.016-1.216,3.7,3.7,0,0,1-.565-1.572,3.606,3.606,0,0,1,0-.964c.052-.356.182-.643.313-.608a1.21,1.21,0,0,1,.591.547,4.961,4.961,0,0,1,.417.869,5.812,5.812,0,0,1,.339,1.659C147.657,451.221,147.518,451.829,147.6,451.856Z" transform="translate(-82.713 -177.504)" fill="#263238"/>
      <g id="Grupo_55801" data-name="Grupo 55801" transform="translate(65.195 274.612)" opacity="0.3">
        <path id="Trazado_128890" data-name="Trazado 128890" d="M164.275,452.96l-.035,3.779H148.29v-2.076Z" transform="translate(-148.29 -452.96)"/>
      </g>
      <path id="Trazado_128891" data-name="Trazado 128891" d="M223.413,142.558c-.374,0-1.338,3.77-1.816,5.664a2.806,2.806,0,0,0,.278,2.05l3.831,6.785a8.14,8.14,0,0,0,3.006,3.015l1.92,1.086.252,4.031,10.781.174-3.284-12.588-1.373-7.671a2.606,2.606,0,0,0-1.929-1.433l-1.016-.148-.382-.973a1.738,1.738,0,0,0-1.321-1.069l-.634-.078-.869-2.181a1.9,1.9,0,0,0-1.738-1.182l-5.213.07s-1.147,1.546,1.486,2.276a7.419,7.419,0,0,0,2.241.278l1.216,4.7s.869,4.935-1.451,4.935c-2.033,0-2.224-2.658-2.224-2.658S226.072,142.262,223.413,142.558Z" transform="translate(-92.704 -137.02)" fill="#ffbe9d"/>
      <path id="Trazado_128892" data-name="Trazado 128892" d="M235.608,147.723a7.494,7.494,0,0,0-.2-.982,3.753,3.753,0,0,0-1.468-1.868,10.425,10.425,0,0,1-.808-2.337,2.884,2.884,0,0,1-.113-1.016s.07.382.235.982a15.144,15.144,0,0,0,.825,2.259l.53.434a3.344,3.344,0,0,1,.434.5,3.223,3.223,0,0,1,.487,1.008,2.694,2.694,0,0,1,.1.738.783.783,0,0,1-.026.278Z" transform="translate(-94.213 -137.477)" fill="#eb996e"/>
      <path id="Trazado_128893" data-name="Trazado 128893" d="M237.624,147.11a1.477,1.477,0,0,0-.156-.487,1.277,1.277,0,0,0-1-.652h-.061v-.052l-.061-.165a12.65,12.65,0,0,1-.617-1.955,11.13,11.13,0,0,1,.791,1.885l.061.174-.078-.061a1.338,1.338,0,0,1,1.095.782C237.7,146.893,237.65,147.127,237.624,147.11Z" transform="translate(-94.57 -137.776)" fill="#eb996e"/>
      <path id="Trazado_128894" data-name="Trazado 128894" d="M228.4,140.9a.609.609,0,0,1-.191-.6c.052-.365.226-.591.269-.565s-.052.269-.087.582S228.443,140.878,228.4,140.9Z" transform="translate(-93.581 -137.243)" fill="#eb996e"/>
      <path id="Trazado_128895" data-name="Trazado 128895" d="M163.78,190.388l19.547-.243-2.181-16.654s1.338-.287,1.425-7.524.426-19.556.426-19.556h0a25.194,25.194,0,0,0-25.3,3.18l-1.069.869Z" transform="translate(-84.189 -137.85)" fill="#ffbe9d"/>
      <path id="Trazado_128896" data-name="Trazado 128896" d="M158.511,161.555c-.122-.052-4.978-1.477-4.822,3.475s5.1,3.77,5.1,3.631S158.511,161.555,158.511,161.555Z" transform="translate(-83.803 -140.076)" fill="#ffbe9d"/>
      <path id="Trazado_128897" data-name="Trazado 128897" d="M185.886,160.376c.122-.052,4.535-1.242,4.344,3.71s-5.1,3.77-5.1,3.623S185.886,160.376,185.886,160.376Z" transform="translate(-87.929 -139.93)" fill="#ffbe9d"/>
      <path id="Trazado_128898" data-name="Trazado 128898" d="M187.5,143a2.684,2.684,0,0,0-.99-2.389,1.894,1.894,0,0,0-2.459.182,2.215,2.215,0,0,0-1.9-2.684c-1.182-.07-2.189.817-3.327,1.129a5.3,5.3,0,0,1-3.38-.391c-1.077-.426-2.076-1.025-3.162-1.416a9.252,9.252,0,0,0-11.85,5.438,4.109,4.109,0,0,0-4.344,1.651,6.776,6.776,0,0,0-1.034,4.752,15.638,15.638,0,0,0,.869,3.249v.278c.07,3.979,2.146,16.567,3.849,16.593,2.962.043.634-13.44.634-13.44,3.631-1.407,2.276-6.855,3.188-7.68s2.806-2.745,10.425,1.147a14.769,14.769,0,0,0,9.026.973h.3a6.863,6.863,0,0,0,1.946-.869,3.84,3.84,0,0,0,1.607-1.781,2.1,2.1,0,0,0-.417-2.267A4.683,4.683,0,0,0,187.5,143Z" transform="translate(-83.971 -136.866)" fill="#263238"/>
      <path id="Trazado_128899" data-name="Trazado 128899" d="M157.39,158.719c.738,4.153.591,6.333,1.277,9.1,1.086,4.344,3.267,7.749,7.211,9.939s9.3,2.146,12.693-.869c2.354-2.068,4.022-4.4,4.344-7.524s.7-8.627.73-11.763c0-5.656.417-11.059.417-11.059L167.9,143.62l-9.192,5.465Z" transform="translate(-84.289 -137.752)" fill="#263238"/>
      <path id="Trazado_128900" data-name="Trazado 128900" d="M175.733,185.652a5.273,5.273,0,0,1-2.832.243,5.213,5.213,0,0,1-2.711-.869c.052-.122,1.242.252,2.763.417A25.114,25.114,0,0,1,175.733,185.652Z" transform="translate(-85.969 -143.183)" fill="#263238"/>
      <path id="Trazado_128901" data-name="Trazado 128901" d="M179.023,142.192a2.328,2.328,0,0,1-.765.139,4.475,4.475,0,0,1-2.068-.487,14.632,14.632,0,0,1-2.606-1.738,7.176,7.176,0,0,0-3.414-1.572,6.142,6.142,0,0,0-3.675.643,6,6,0,0,0-2.241,2.1,6.951,6.951,0,0,0-.964,2.684,4.224,4.224,0,0,1,.078-.773,6.237,6.237,0,0,1,.773-1.981,6.081,6.081,0,0,1,2.276-2.181,6.212,6.212,0,0,1,3.779-.669,7.054,7.054,0,0,1,3.475,1.616,16.236,16.236,0,0,0,2.606,1.738,4.587,4.587,0,0,0,2.007.53A5.817,5.817,0,0,0,179.023,142.192Z" transform="translate(-85.063 -137.054)" fill="#455a64"/>
      <path id="Trazado_128902" data-name="Trazado 128902" d="M162.652,145.015a6.515,6.515,0,0,0-1.155-.434,3.927,3.927,0,0,0-2.858.452,3.857,3.857,0,0,0-1.668,2.354,6.8,6.8,0,0,0-.13,1.234,1.051,1.051,0,0,1-.052-.33,3.074,3.074,0,0,1,.061-.93,3.718,3.718,0,0,1,4.674-2.9,3.474,3.474,0,0,1,.869.356.964.964,0,0,1,.261.2Z" transform="translate(-84.208 -137.844)" fill="#455a64"/>
      <path id="Trazado_128903" data-name="Trazado 128903" d="M162.654,164.663a18.174,18.174,0,0,1-2.294-5.213,18.174,18.174,0,0,1,2.294,5.213Z" transform="translate(-84.679 -139.83)" fill="#455a64"/>
      <path id="Trazado_128904" data-name="Trazado 128904" d="M167.346,167.921a5.908,5.908,0,0,1-2.294-2.276,5.986,5.986,0,0,1-1.173-3.015c.13,0,.6,1.312,1.555,2.763S167.459,167.825,167.346,167.921Z" transform="translate(-85.141 -140.247)" fill="#455a64"/>
      <path id="Trazado_128905" data-name="Trazado 128905" d="M172.159,169.337a4.457,4.457,0,0,1-1.929-1.19c-.956-.869-1.538-1.677-1.442-1.738a9.471,9.471,0,0,1,1.738,1.407C171.447,168.616,172.229,169.224,172.159,169.337Z" transform="translate(-85.783 -140.742)" fill="#455a64"/>
      <path id="Trazado_128906" data-name="Trazado 128906" d="M180.878,162.05a4.17,4.17,0,0,1-.434,2.467,4.257,4.257,0,0,1-1.433,2.059,20.416,20.416,0,0,1,1.016-2.233A22.722,22.722,0,0,1,180.878,162.05Z" transform="translate(-87.126 -140.171)" fill="#455a64"/>
      <path id="Trazado_128907" data-name="Trazado 128907" d="M183.736,157.55a5.482,5.482,0,0,1-.287,3.032A5.412,5.412,0,0,1,182,163.24c-.1-.078.591-1.225,1.077-2.789S183.64,157.55,183.736,157.55Z" transform="translate(-87.517 -139.58)" fill="#455a64"/>
      <path id="Trazado_128908" data-name="Trazado 128908" d="M183.386,145.529a2.72,2.72,0,0,1-.643.5,5,5,0,0,1-2.128.66,7.5,7.5,0,0,1-3.267-.5,25.949,25.949,0,0,1-3.614-1.807,15.638,15.638,0,0,0-3.675-1.581,6.081,6.081,0,0,0-3.223,0,4.483,4.483,0,0,0-1.885,1.077c-.365.374-.5.634-.521.617a2.607,2.607,0,0,1,.469-.66,4.283,4.283,0,0,1,1.9-1.155,6.082,6.082,0,0,1,3.293-.061,15.03,15.03,0,0,1,3.727,1.59,27.227,27.227,0,0,0,3.588,1.807,7.367,7.367,0,0,0,3.2.53A4.987,4.987,0,0,0,183.386,145.529Z" transform="translate(-85.213 -137.594)" fill="#455a64"/>
      <path id="Trazado_128909" data-name="Trazado 128909" d="M186.728,148.73a1.156,1.156,0,0,1-.261.174,7.1,7.1,0,0,1-.773.382,9.183,9.183,0,0,1-5.569.5,7.284,7.284,0,0,1-.869-.226c-.191-.069-.3-.113-.287-.13s.434.1,1.138.235a10.633,10.633,0,0,0,2.789.122,10.79,10.79,0,0,0,2.711-.626C186.32,148.912,186.719,148.7,186.728,148.73Z" transform="translate(-87.121 -138.422)" fill="#455a64"/>
      <path id="Trazado_128910" data-name="Trazado 128910" d="M172.089,316.179l4.752,45.836,3.414,69.032h18.218l.5-146.917-52.161,3.718L136,364.934l9.365,67.468h19.99l-4.683-64.158,11.416-52.065" transform="translate(-81.482 -156.192)" fill="#263238"/>
      <path id="Trazado_128911" data-name="Trazado 128911" d="M176.423,321a26.811,26.811,0,0,1-3.545,3.475,27.629,27.629,0,0,1-3.849,3.162,27.851,27.851,0,0,1,3.545-3.475A27.16,27.16,0,0,1,176.423,321Z" transform="translate(-85.816 -161.03)" fill="#455a64"/>
      <path id="Trazado_128912" data-name="Trazado 128912" d="M177.474,318.224a52.622,52.622,0,0,1,.1-5.882,51.327,51.327,0,0,1,.339-5.873,29.713,29.713,0,0,1,.113,5.89,30.771,30.771,0,0,1-.547,5.864Z" transform="translate(-86.919 -159.123)" fill="#455a64"/>
      <path id="Trazado_128913" data-name="Trazado 128913" d="M184.407,300.158a1.362,1.362,0,0,1,.3,0l.869-.052,3.475-.165,12.354-.521h.208v13.44l-.148.052-8.027,3.223h-.156l-7.1-2.467h-.113v-.113c-.521-4.005-.947-7.341-1.26-9.73-.139-1.112-.243-2.007-.33-2.676a6.236,6.236,0,0,1-.087-.912,1.891,1.891,0,0,1,.061.261,4.788,4.788,0,0,0,.122.721c.1.678.252,1.581.426,2.711.356,2.354.869,5.63,1.442,9.556l-.122-.156,7.115,2.415h-.148l8.027-3.241-.139.208V299.646l.208.2-12.215.3-3.475.061h-1.286Z" transform="translate(-87.832 -158.198)" fill="#455a64"/>
      <path id="Trazado_128914" data-name="Trazado 128914" d="M154.061,300.475a1.045,1.045,0,0,1,.269,0h.808l3.128-.1,11.294-.261h.208v.208c-.122,3.805-.261,8.192-.408,12.858v.122l-.1.061-1.3.869-6.6,4.344-.113.078-.122-.078-7.489-4.657-.1-.061v-.1c.139-4,.261-7.324.339-9.713.052-1.112.1-2.007.122-2.667a8.183,8.183,0,0,1,.061-.912.87.87,0,0,1,0,.261v3.44c0,2.354-.087,5.647-.139,9.556l-.1-.165,7.471,4.474h-.235l6.6-4.344,1.3-.869-.1.182c.174-4.674.33-9.061.469-12.866l.2.208-11.146.061h-4.014Z" transform="translate(-83.784 -158.289)" fill="#455a64"/>
      <path id="Trazado_128915" data-name="Trazado 128915" d="M199.48,324.1a12.755,12.755,0,0,1-2.467-.078c-1.52-.113-3.614-.321-5.925-.617s-4.387-.634-5.882-.912a12.244,12.244,0,0,1-2.406-.556,14.713,14.713,0,0,1,2.45.235l5.9.782,5.9.747A14.825,14.825,0,0,1,199.48,324.1Z" transform="translate(-87.623 -161.154)" fill="#455a64"/>
      <path id="Trazado_128916" data-name="Trazado 128916" d="M199.646,381.743a1.325,1.325,0,0,1-.426.582,2.91,2.91,0,0,1-1.868.634,4.448,4.448,0,0,1-2.719-1.043,18.84,18.84,0,0,1-2.476-2.511,33.879,33.879,0,0,1-3.692-5.213,11.458,11.458,0,0,1-1.155-2.363,23.116,23.116,0,0,1,1.425,2.2,46.043,46.043,0,0,0,3.762,5.065,21.133,21.133,0,0,0,2.4,2.476,4.214,4.214,0,0,0,2.467,1.051,2.9,2.9,0,0,0,1.738-.452C199.473,381.934,199.62,381.725,199.646,381.743Z" transform="translate(-88.215 -167.701)" fill="#455a64"/>
      <path id="Trazado_128917" data-name="Trazado 128917" d="M158.362,384.343a1.138,1.138,0,0,1-.243.582,3.814,3.814,0,0,1-1.26,1.2,4.822,4.822,0,0,1-2.5.651,5.856,5.856,0,0,1-3.006-.956,10.66,10.66,0,0,1-3.623-4.344,9.425,9.425,0,0,1-.869-2.146,15.413,15.413,0,0,1,1.182,2,11.537,11.537,0,0,0,3.579,4.083,5.647,5.647,0,0,0,2.789.921,4.761,4.761,0,0,0,2.328-.513,5.317,5.317,0,0,0,1.625-1.477Z" transform="translate(-82.907 -168.685)" fill="#455a64"/>
      <path id="Trazado_128918" data-name="Trazado 128918" d="M159.735,377.14a4.5,4.5,0,0,1-1.494.869,11.858,11.858,0,0,1-4.083.869,11.711,11.711,0,0,1-4.153-.565,4.257,4.257,0,0,1-1.555-.747,18.454,18.454,0,0,0,5.682.869,18.974,18.974,0,0,0,5.6-1.294Z" transform="translate(-83.116 -168.398)" fill="#455a64"/>
      <path id="Trazado_128919" data-name="Trazado 128919" d="M224.366,187.473H197.808s-3.614-2.076-5.352-1.738a6.95,6.95,0,0,0-3.267,2.215l3.518,29.26,8.6-6.359,32.023-3.327a10.2,10.2,0,0,0,7.315-3.206h0a10.2,10.2,0,0,0,2.7-8.192l-5.925-31.475-12.163.408-.487,7.984Z" transform="translate(-88.462 -140.512)" fill="#455a64"/>
      <path id="Trazado_128920" data-name="Trazado 128920" d="M141.693,199.41a16.307,16.307,0,0,0-6.411,7.454c-1.546,3.718-12.163,22.293-17.705,32.005a9.192,9.192,0,0,0,1.329,10.92h0c3.388,3.536,9.07,4.509,14.013,2.9,2.215-.721,11.085-7.923,11.085-7.923Z" transform="translate(-78.904 -145.074)" fill="#455a64"/>
      <path id="Trazado_128921" data-name="Trazado 128921" d="M149.92,264.578l-6.09-52.4,1.468-13.97,15.507-6.6,20.077-1.321L200,192.4l-4.474,53.742,4.891,30.311-53.551,2.415Z" transform="translate(-82.509 -143.877)" fill="#455a64"/>
      <path id="Trazado_128922" data-name="Trazado 128922" d="M149.893,267.658c-.122,0-1.581-11.65-3.258-26.063s-2.928-26.063-2.806-26.115,1.581,11.659,3.258,26.063S150.058,267.641,149.893,267.658Z" transform="translate(-82.508 -147.183)" fill="#263238"/>
      <path id="Trazado_128923" data-name="Trazado 128923" d="M207.362,206.25a1.538,1.538,0,0,1,0,.478c0,.356-.07.8-.122,1.347-.13,1.225-.3,2.9-.5,4.935-.426,4.231-1,9.965-1.633,16.307s-1.1,12.163-1.416,16.315c-.148,2.042-.269,3.718-.356,4.952,0,.547-.078.99-.1,1.347a1.99,1.99,0,0,1-.07.469,1.66,1.66,0,0,1,0-.469c0-.365,0-.808,0-1.355,0-1.173.1-2.867.209-4.961.235-4.187.678-9.973,1.286-16.342s1.26-12.163,1.738-16.3c.261-2.076.478-3.762.652-4.926.078-.539.148-.982.2-1.338A1.737,1.737,0,0,1,207.362,206.25Z" transform="translate(-90.293 -145.971)" fill="#263238"/>
      <path id="Trazado_128924" data-name="Trazado 128924" d="M192.757,266.3a8.688,8.688,0,0,1-.869,1.034,12.468,12.468,0,0,1-1.086,1.138c-.452.417-.938.921-1.546,1.39a21.373,21.373,0,0,1-2.016,1.529,27.93,27.93,0,0,1-2.459,1.546,30.633,30.633,0,0,1-12.667,3.779c-1.025,0-1.989.113-2.9.061a21.934,21.934,0,0,1-2.519-.174,20.706,20.706,0,0,1-2.059-.321,12.037,12.037,0,0,1-1.538-.356,7.89,7.89,0,0,1-1.277-.4c0-.1,1.859.469,4.9.756a24.633,24.633,0,0,0,2.5.122c.869,0,1.85-.052,2.858-.1a31.806,31.806,0,0,0,12.484-3.727c.869-.513,1.738-.964,2.45-1.486s1.416-1,2.024-1.468C191.462,267.707,192.679,266.23,192.757,266.3Z" transform="translate(-84.87 -153.851)" fill="#263238"/>
      <g id="Grupo_55802" data-name="Grupo 55802" transform="translate(77.251 108.871)" opacity="0.3">
        <path id="Trazado_128925" data-name="Trazado 128925" d="M164.489,275.542c-2.606-.747-2.754-3.206-1.738-4.257a4.67,4.67,0,0,1,4.092-.982,20.4,20.4,0,0,0,4.344.582c2.38-.156,4.344-1.816,6.029-3.536s3.223-3.649,5.4-4.639,5.213-.634,6.342,1.46a4.509,4.509,0,0,1-.261,4.344,10.008,10.008,0,0,1-3.223,3.162,26.35,26.35,0,0,1-20.955,3.866" transform="translate(-162.167 -262.182)"/>
      </g>
      <g id="Grupo_55803" data-name="Grupo 55803" transform="translate(54.014 76.95)" opacity="0.2">
        <path id="Trazado_128926" data-name="Trazado 128926" d="M144.924,236.03c-.469.66-5,6.846-5,6.846-.122.626-4.509,6.281-4.509,6.281s3.9-2.163,6.9-3.71a25.9,25.9,0,0,0,3.588-2.563s-.678-4.257-.973-5.847c-.669-3.562-1.121-11.6-1.121-11.6" transform="translate(-135.42 -225.44)"/>
      </g>
      <path id="Trazado_128927" data-name="Trazado 128927" d="M201.289,192.15a8.265,8.265,0,0,1,5.013,6.95,12.667,12.667,0,0,0-5.021-6.95Z" transform="translate(-90.049 -144.121)" fill="#263238"/>
      <path id="Trazado_128928" data-name="Trazado 128928" d="M144.856,237.63a12.945,12.945,0,0,1-1.312,2.12c-.869,1.268-2.068,3.006-3.432,4.909-2.737,3.788-5.074,6.82-5.213,6.646l1.4-2.024,3.475-4.882c1.364-1.9,2.606-3.614,3.536-4.83a13.769,13.769,0,0,1,1.546-1.937Z" transform="translate(-81.337 -150.089)" fill="#263238"/>
    </g>
  </g>
</svg>
