<svg xmlns="http://www.w3.org/2000/svg" width="519.955" height="439.51" viewBox="0 0 519.955 439.51">
  <g id="Online_resume-pana" data-name="Online resume-pana" transform="translate(-57.805 -33)">
    <g id="freepik--background-complete--inject-2" transform="translate(57.805 33.23)">
      <path id="Trazado_118038" data-name="Trazado 118038" d="M191,52.26a9.86,9.86,0,0,0,5.88-9.12c0-5.45-4.11-9.88-9.21-9.91s-9.27,4.38-9.29,9.82a9.84,9.84,0,0,0,5.89,9.21c-14.24,2.15-13.59,17.62-13.59,17.62l33.66.15S205.15,54.4,191,52.26Z" transform="translate(-64.246 -33.23)" fill="#ebebeb"/>
      <path id="Trazado_118046" data-name="Trazado 118046" d="M130.75,409.27c-2-7.45.12-16.48,4.82-22.59.34-.45.8-.93,1.36-.88.87.08,1.09,1.24,1,2.1a40.77,40.77,0,0,1-7.23,21.37" transform="translate(-57.805 -35.96)" fill="#e0e0e0"/>
      <path id="Trazado_118047" data-name="Trazado 118047" d="M133.13,410.9c9.05,2.35,19.44.06,27-5.49a21.85,21.85,0,0,0-14.59-1.79c-4.88,1.12-9.33,3.3-12.37,7.28" transform="translate(-62.043 -35.96)" fill="#e0e0e0"/>
      <path id="Trazado_118048" data-name="Trazado 118048" d="M135.14,405.94c5.07-8.27,14.79-13.66,24.47-14.15-1.12,3.94-4.35,7-8,8.85s-7.73,2.65-11.75,3.43c-1.56.31-3.7.64-4.72,1.87" transform="translate(-62.133 -35.96)" fill="#e0e0e0"/>
      <path id="Trazado_118049" data-name="Trazado 118049" d="M131.26,381.87a70.649,70.649,0,0,0,3.12-14.33c.38-4.88-.31-10-2.85-14.17-4.73,9.16-5.21,19.87-.42,29" transform="translate(-57.805 -35.415)" fill="#e0e0e0"/>
      <path id="Trazado_118050" data-name="Trazado 118050" d="M147.19,373.82c5.54-10.07,16.84-18.1,28.26-19.23-4.4,11-16.43,19.46-28.26,19.23" transform="translate(-62.847 -35.371)" fill="#e0e0e0"/>
      <path id="Trazado_118051" data-name="Trazado 118051" d="M143.71,375.79c8.26,1.26,15.29,6.53,23,9.73a10.36,10.36,0,0,0,5.2,1,4.07,4.07,0,0,0,2.55-7.2,11.14,11.14,0,0,0-3.78-2.29c-8.4-3.5-17.42-3.59-26.27-1.47" transform="translate(-62.692 -35.464)" fill="#e0e0e0"/>
      <path id="Trazado_118052" data-name="Trazado 118052" d="M138.93,381.58c1.87.53,2.51,1.5,4,2.76a43.13,43.13,0,0,0,17.45,9c.66.16,1.54.23,1.87-.38s-.08-1.16-.45-1.63a24.05,24.05,0,0,0-10.54-7.15c-4-1.5-7.51-3.3-12.32-2.92" transform="translate(-62.335 -35.96)" fill="#e0e0e0"/>
      <path id="Trazado_118053" data-name="Trazado 118053" d="M133.54,346.6a33,33,0,0,0,25.31,8.62,1.76,1.76,0,0,0,1.16-.42c.63-.69-.13-1.76-.87-2.34-7.44-5.8-16.46-8.21-25.6-5.86" transform="translate(-62.063 -35.264)" fill="#e0e0e0"/>
      <path id="Trazado_118054" data-name="Trazado 118054" d="M139.93,344.26a35.3,35.3,0,0,1,31.59-5.21,25.1,25.1,0,0,1-15.05,6.61,47.59,47.59,0,0,1-16.54-1.4" transform="translate(-62.471 -35.205)" fill="#e0e0e0"/>
      <path id="Trazado_118055" data-name="Trazado 118055" d="M137.39,328.19c-.73-7.43-.25-13.29-.77-20.75,0-.6-.17-1.32-.73-1.53-.77-.3-1.42.65-1.67,1.45A23.76,23.76,0,0,0,137.38,328" transform="translate(-57.805 -35.06)" fill="#e0e0e0"/>
      <path id="Trazado_118056" data-name="Trazado 118056" d="M136.86,329a43.63,43.63,0,0,0,12.3-12c2.43-3.32,4.48-7.31,3.93-11.39a11.8,11.8,0,0,0-8.88,4.41,25,25,0,0,0-4.52,9.1c-1,3.27-1.67,6.63-2.83,9.84" transform="translate(-57.805 -35.063)" fill="#e0e0e0"/>
      <path id="Trazado_118057" data-name="Trazado 118057" d="M149,325.65a99,99,0,0,0,30.28-17.85c-3.62-1.46-7.76-.59-11.37.87a36.078,36.078,0,0,0-19.07,16.9" transform="translate(-62.964 -35.052)" fill="#e0e0e0"/>
      <path id="Trazado_118058" data-name="Trazado 118058" d="M140.26,333.08c5.59.61,11.27,1,16.81.08s10.61-3.07,15.7-5.22a1.84,1.84,0,0,0,1.07-.81,1.24,1.24,0,0,0-.38-1.34,3.38,3.38,0,0,0-1.34-.63c-5.54-1.55-11.52-.82-17,1a78.261,78.261,0,0,0-14.89,6.9" transform="translate(-62.509 -35.124)" fill="#e0e0e0"/>
      <path id="Trazado_118059" data-name="Trazado 118059" d="M108.34,346.86c-3.82-7.7-3.57-16.68-.27-24.62,2.32,3.53,2.6,8,2.17,12.24s-1.7,8.53-1.78,12.76" transform="translate(-57.805 -35.183)" fill="#e0e0e0"/>
      <path id="Trazado_118060" data-name="Trazado 118060" d="M93.1,339.17A34.34,34.34,0,0,0,67.59,350c4.75.75,9.65-.48,14-2.59a71.222,71.222,0,0,0,12-8" transform="translate(-57.805 -35.229)" fill="#e0e0e0"/>
      <path id="Trazado_118061" data-name="Trazado 118061" d="M82.86,335.75c-4.66-.38-9.14-1-13.62.42s-8.56,4.48-10.38,8.8a24.65,24.65,0,0,0,12.77-2.41,74,74,0,0,0,11.23-6.81" transform="translate(-57.805 -35.197)" fill="#e0e0e0"/>
      <path id="Trazado_118063" data-name="Trazado 118063" d="M98.05,336.13c-7.16-7-9.88-19.68-7-29.3a44.64,44.64,0,0,1,7,29.3" transform="translate(-57.805 -35.099)" fill="#e0e0e0"/>
      <path id="Trazado_118065" data-name="Trazado 118065" d="M114.19,320.35c-2.24-3.08-4.82-7.26-7.86-9.56s-7-3.68-10.68-2.8a24.9,24.9,0,0,0,18.54,12.36" transform="translate(-57.805 -35.03)" fill="#e0e0e0"/>
      <path id="Trazado_118066" data-name="Trazado 118066" d="M114.9,316.45A53.42,53.42,0,0,1,111.36,305a17.85,17.85,0,0,1,1.8-11.64c3.93,7.44,5.2,15.42,1.94,23.17" transform="translate(-57.805 -34.98)" fill="#e0e0e0"/>
      <path id="Trazado_118069" data-name="Trazado 118069" d="M117.75,290.61c-1.84-5.37-2-12.19-5.25-16.87-2.25-3.27-5.85-5.5-7.78-9a13.61,13.61,0,0,0,.45,10.18,29.68,29.68,0,0,0,6,8.52c2.38,2.54,4.42,4.45,6.63,7.14" transform="translate(-57.805 -34.798)" fill="#e0e0e0"/>
      <path id="Trazado_118070" data-name="Trazado 118070" d="M117.79,448.78c-.15,0-.27-35.83-.28-80s.1-80,.24-80,.27,35.82.28,80S117.93,448.78,117.79,448.78Z" transform="translate(-57.805 -35.96)" fill="#e0e0e0"/>
      <path id="Trazado_118071" data-name="Trazado 118071" d="M149.1,341.45a7.513,7.513,0,0,1-1.35.51L144,343.21c-3.12,1.06-7.42,2.6-12.08,4.51s-9,3.59-11.44,5.74a8.42,8.42,0,0,0-2.3,3c-.36.84-.42,1.36-.47,1.35s0-.13,0-.38a5.519,5.519,0,0,1,.26-1,8,8,0,0,1,2.24-3.24,20.081,20.081,0,0,1,5-3.09c2-.93,4.19-1.89,6.53-2.85,4.67-1.92,9-3.41,12.16-4.39,1.58-.49,2.87-.86,3.76-1.1a8.519,8.519,0,0,1,1.44-.31Z" transform="translate(-57.805 -35.269)" fill="#e0e0e0"/>
      <path id="Trazado_118072" data-name="Trazado 118072" d="M159.36,316.24s-.12.15-.38.41l-1.15,1.08-4.29,3.89-14.29,12.72c-5.57,5-10.39,9.71-13.73,13.28-1.67,1.79-3,3.26-3.89,4.29l-1,1.19a2.439,2.439,0,0,1-.38.39,1.93,1.93,0,0,1,.3-.46c.22-.28.54-.71,1-1.25.85-1.07,2.13-2.59,3.77-4.41A180.792,180.792,0,0,1,138.91,334c5.6-4.95,10.69-9.4,14.39-12.61l4.4-3.78,1.21-1A2.358,2.358,0,0,1,159.36,316.24Z" transform="translate(-57.805 -35.202)" fill="#e0e0e0"/>
      <path id="Trazado_118073" data-name="Trazado 118073" d="M133.23,339.39c-.14-.06,1-2.75,2.18-6.15s1.73-6.28,1.88-6.25a21.221,21.221,0,0,1-1.39,6.41,41.073,41.073,0,0,1-1.73,4.31A6.421,6.421,0,0,1,133.23,339.39Z" transform="translate(-57.805 -35.155)" fill="#e0e0e0"/>
      <path id="Trazado_118074" data-name="Trazado 118074" d="M117.82,361.08a7,7,0,0,1-.86-1l-2.2-2.82c-1.85-2.39-4.41-5.69-7.27-9.3s-5.5-6.85-7.41-9.2L97.83,336a7,7,0,0,1-.78-1.06,5.731,5.731,0,0,1,.93.93c.58.62,1.39,1.54,2.38,2.68,2,2.28,4.66,5.49,7.53,9.11s5.39,6.95,7.16,9.4c.89,1.22,1.6,2.22,2.07,2.92a6.22,6.22,0,0,1,.7,1.1Z" transform="translate(-57.805 -35.275)" fill="#e0e0e0"/>
      <path id="Trazado_118075" data-name="Trazado 118075" d="M111,352.26a12.69,12.69,0,0,1-2.87-5.38,15.269,15.269,0,0,1-.65-5.43h.22q-.15.63-.21.63v-.67h.23a24.84,24.84,0,0,0,.91,5.28,40.191,40.191,0,0,0,2.37,5.57Z" transform="translate(-57.805 -35.242)" fill="#e0e0e0"/>
      <path id="Trazado_118076" data-name="Trazado 118076" d="M102.09,341.12a8.758,8.758,0,0,0-2-1.17,13.39,13.39,0,0,0-5.57-.44,34.092,34.092,0,0,0-5.62.9,18,18,0,0,1-2.31.56,7.822,7.822,0,0,1,2.22-.91A25.352,25.352,0,0,1,94.47,339a12.22,12.22,0,0,1,5.75.62A3.45,3.45,0,0,1,102.09,341.12Z" transform="translate(-57.805 -35.185)" fill="#e0e0e0"/>
      <path id="Trazado_118077" data-name="Trazado 118077" d="M100,338.41c0,.08-1.17-.47-3.08-1.12a32,32,0,0,0-7.67-1.58,31.6,31.6,0,0,0-7.83.4c-2,.36-3.18.73-3.21.64a3.43,3.43,0,0,1,.82-.35,21.477,21.477,0,0,1,2.32-.65A27.44,27.44,0,0,1,97,337a18.332,18.332,0,0,1,2.2,1,3,3,0,0,1,.8.41Z" transform="translate(-57.805 -35.166)" fill="#e0e0e0"/>
      <path id="Trazado_118078" data-name="Trazado 118078" d="M117.75,327a64.318,64.318,0,0,1-2.24-7.8,63.1,63.1,0,0,1-1.74-7.92,66.547,66.547,0,0,1,2.24,7.8,63.1,63.1,0,0,1,1.74,7.92Z" transform="translate(-57.805 -35.067)" fill="#e0e0e0"/>
      <path id="Trazado_118079" data-name="Trazado 118079" d="M117.89,327a37.628,37.628,0,0,0-2.48-4.67,21.251,21.251,0,0,0-3.66-3.78,3.57,3.57,0,0,1,1.41.73,11.519,11.519,0,0,1,2.67,2.75A10.31,10.31,0,0,1,117.89,327Z" transform="translate(-57.805 -35.082)" fill="#e0e0e0"/>
      <path id="Trazado_118080" data-name="Trazado 118080" d="M117.79,429.68c-.06,0-.16-.87-.57-2.39a34.111,34.111,0,0,0-2.39-6.2c-2.48-5.06-7-11.47-12.71-17.9C99.29,400,96.54,396.9,94.2,394a64.257,64.257,0,0,1-5.66-8.17,38.53,38.53,0,0,1-2.86-6.07c-.27-.74-.46-1.33-.57-1.73a2.539,2.539,0,0,1-.14-.62s.3.82.89,2.28a44.189,44.189,0,0,0,3,5.95,69,69,0,0,0,5.72,8.06c2.35,2.9,5.1,5.94,7.94,9.18,5.74,6.44,10.24,12.94,12.65,18.08a31.2,31.2,0,0,1,2.26,6.31c.16.78.27,1.39.31,1.8a3.369,3.369,0,0,1,.05.61Z" transform="translate(-57.805 -35.96)" fill="#e0e0e0"/>
      <path id="Trazado_118081" data-name="Trazado 118081" d="M146.08,397.72a13.29,13.29,0,0,1-1.48.83,34.166,34.166,0,0,0-3.85,2.54,43.9,43.9,0,0,0-5.05,4.61c-1.77,1.87-3.6,4.05-5.46,6.38-3.73,4.67-7.22,8.81-9.3,12.11-1.06,1.64-1.83,3-2.34,4a12.786,12.786,0,0,1-.81,1.5,1.25,1.25,0,0,1,.13-.42c.11-.27.26-.67.5-1.17a36.868,36.868,0,0,1,2.21-4.09c2-3.38,5.48-7.58,9.2-12.25,1.87-2.33,3.72-4.51,5.52-6.38a41,41,0,0,1,5.18-4.57,28,28,0,0,1,4-2.43c.49-.24.9-.4,1.16-.51S146.07,397.7,146.08,397.72Z" transform="translate(-57.805 -35.96)" fill="#e0e0e0"/>
      <path id="Trazado_118082" data-name="Trazado 118082" d="M146.63,408.09a22,22,0,0,1-3.13.45,40.656,40.656,0,0,0-7.43,1.47,22.189,22.189,0,0,0-6.66,3.49c-1.53,1.18-2.26,2.16-2.33,2.11a2.5,2.5,0,0,1,.47-.72,11.561,11.561,0,0,1,1.63-1.68,20.29,20.29,0,0,1,6.73-3.7,33.691,33.691,0,0,1,7.55-1.33A17.082,17.082,0,0,1,146.63,408.09Z" transform="translate(-57.805 -35.96)" fill="#e0e0e0"/>
      <path id="Trazado_118083" data-name="Trazado 118083" d="M128,414.47c-.17-.09,1.25-2.25,2.34-5.15s1.27-5.5,1.45-5.47a4.71,4.71,0,0,1,0,1.68,18,18,0,0,1-.91,4,19.439,19.439,0,0,1-1.82,3.64,5.549,5.549,0,0,1-1.06,1.3Z" transform="translate(-57.805 -35.96)" fill="#e0e0e0"/>
      <path id="Trazado_118084" data-name="Trazado 118084" d="M155.24,369.89a2.792,2.792,0,0,1-.5.26l-1.47.67c-.65.28-1.43.63-2.31,1.1s-1.92.92-3,1.57l-1.71,1c-.59.34-1.18.75-1.8,1.14-1.26.76-2.52,1.7-3.87,2.66a74.162,74.162,0,0,0-8.08,7.11,72.351,72.351,0,0,0-6.83,8.32c-.91,1.38-1.81,2.68-2.53,4-.37.64-.76,1.24-1.08,1.84s-.62,1.19-.91,1.75c-.61,1.09-1,2.14-1.47,3a16.226,16.226,0,0,0-1,2.35l-.62,1.49a2.2,2.2,0,0,1-.25.51,1.91,1.91,0,0,1,.15-.54c.14-.41.31-.91.53-1.53a24.187,24.187,0,0,1,.93-2.39c.41-.92.82-2,1.41-3.1.29-.56.58-1.15.89-1.77s.69-1.22,1.06-1.87c.71-1.3,1.6-2.61,2.51-4a64.18,64.18,0,0,1,15-15.54c1.37-1,2.65-1.89,3.93-2.65.63-.38,1.23-.78,1.83-1.11l1.74-.95c1.09-.63,2.14-1.08,3-1.52a20.532,20.532,0,0,1,2.36-1l1.51-.58a2.119,2.119,0,0,1,.58-.22Z" transform="translate(-57.805 -35.96)" fill="#e0e0e0"/>
      <path id="Trazado_118085" data-name="Trazado 118085" d="M132.85,384.89a3.5,3.5,0,0,1,1.23-1.83,7.77,7.77,0,0,1,5-1.91,13.66,13.66,0,0,1,5.22,1,7.659,7.659,0,0,1,2,1,12.325,12.325,0,0,1-2.1-.61,15.589,15.589,0,0,0-5.08-.85,8,8,0,0,0-4.74,1.66,13.893,13.893,0,0,0-1.53,1.54Z" transform="translate(-57.805 -35.96)" fill="#e0e0e0"/>
      <path id="Trazado_118086" data-name="Trazado 118086" d="M129.5,388.34a18.64,18.64,0,0,0,1.41-4.58,19.13,19.13,0,0,0-.31-4.79,3.34,3.34,0,0,1,.58,1.34,9.47,9.47,0,0,1-.8,6.87C129.94,388,129.55,388.38,129.5,388.34Z" transform="translate(-57.805 -35.96)" fill="#e0e0e0"/>
      <path id="Trazado_118088" data-name="Trazado 118088" d="M138,457c0,.14-9.09.25-20.3.25s-20.3-.14-20.3-.25,9.08-.26,20.29-.26S138,456.82,138,457Z" transform="translate(-57.805 -35.96)" fill="#fafafa"/>
      <path id="Trazado_118089" data-name="Trazado 118089" d="M137.37,461.93c0,.14-8.52.26-19,.26s-19-.12-19-.26,8.52-.26,19-.26S137.37,461.78,137.37,461.93Z" transform="translate(-57.805 -35.96)" fill="#fafafa"/>
      <path id="Trazado_118090" data-name="Trazado 118090" d="M104.73,443.8a77.8,77.8,0,0,1,0,12.71,77.8,77.8,0,0,1,0-12.71Z" transform="translate(-57.805 -35.96)" fill="#fafafa"/>
      <path id="Trazado_118091" data-name="Trazado 118091" d="M119.52,443.8a83.518,83.518,0,0,1,0,13.17,83.519,83.519,0,0,1,0-13.17Z" transform="translate(-57.805 -35.96)" fill="#fafafa"/>
      <path id="Trazado_118092" data-name="Trazado 118092" d="M133.4,443.69a86.841,86.841,0,0,1,0,13.43A86.841,86.841,0,0,1,133.4,443.69Z" transform="translate(-57.805 -35.96)" fill="#fafafa"/>
      <path id="Trazado_118093" data-name="Trazado 118093" d="M141.58,443.8c0,.14-10.65.26-23.8.26S94,443.94,94,443.8s10.65-.26,23.8-.26S141.58,443.66,141.58,443.8Z" transform="translate(-57.805 -35.96)" fill="#fafafa"/>
      <rect id="Rectángulo_29508" data-name="Rectángulo 29508" width="99.99" height="96.73" transform="translate(0.347 126.409) rotate(-9.99)" fill="#f5f5f5"/>
      <path id="Trazado_118095" data-name="Trazado 118095" d="M81.11,246.36l18.61-53.82,27.8,27.41,10.6-19.02,26.19,30.78Z" transform="translate(-57.805 -34.389)" fill="#e0e0e0"/>
      <path id="Trazado_118096" data-name="Trazado 118096" d="M129.81,177.41a7.19,7.19,0,1,1-8.33-5.84A7.19,7.19,0,0,1,129.81,177.41Z" transform="translate(-57.805 -34.14)" fill="#e0e0e0"/>
      <g id="Grupo_55084" data-name="Grupo 55084" transform="translate(8.812 117.779)" opacity="0.3">
        <path id="Trazado_118097" data-name="Trazado 118097" d="M164.36,232a2.58,2.58,0,0,1-.1-.38,7.384,7.384,0,0,0-.21-1.11c-.19-1-.46-2.44-.8-4.28l-3-16.16c-2.5-13.91-6.06-33.71-10.33-57.49l.47.34L67.25,167.6l.38-.54v.32l.06.34.12.68.23,1.36.48,2.7c.32,1.81.63,3.6,1,5.38q.94,5.35,1.86,10.61c1.23,7,2.43,13.86,3.61,20.53,2.33,13.35,4.53,26,6.56,37.57l-.48-.34,60.2-10.38,17-2.88,4.51-.75,1.17-.18.42-.05a1.562,1.562,0,0,1-.36.09l-1.12.22-4.41.83-16.86,3.08L81.23,247l-.41.08-.07-.42c-2.06-11.6-4.3-24.21-6.66-37.55l-3.63-20.53q-.93-5.25-1.87-10.6-.47-2.69-1-5.38l-.47-2.71-.24-1.35-.12-.68-.06-.34v-.32c-.34.48.47-.69.4-.57l83.2-14.58.4-.07.07.4c4.13,23.92,7.56,43.83,10,57.82,1.17,6.9,2.09,12.34,2.73,16.1.3,1.82.53,3.23.69,4.22.07.45.13.8.17,1.07A2.588,2.588,0,0,1,164.36,232Z" transform="translate(-66.616 -151.98)" fill="#e0e0e0"/>
      </g>
      <rect id="Rectángulo_29509" data-name="Rectángulo 29509" width="38.93" height="57.76" transform="matrix(0.191, -0.982, 0.982, 0.191, 0, 64.223)" fill="#f5f5f5"/>
      <path id="Trazado_118098" data-name="Trazado 118098" d="M122,70.75a3.46,3.46,0,0,1-.63.41l-1.85,1.08-6.84,3.87L90,88.77l-.19.1-.14-.16-.34-.4-17-20.13L67.15,62l-1.37-1.69a5.571,5.571,0,0,1-.46-.61,3.51,3.51,0,0,1,.54.54L67.3,61.9l5.25,6L89.7,88l.34.4-.33-.06,22.82-12.52,6.93-3.73,1.89-1a5.759,5.759,0,0,1,.65-.34Z" transform="translate(-57.805 -33.23)" fill="#e0e0e0"/>
      <path id="Trazado_118099" data-name="Trazado 118099" d="M57.9,98c-.09-.11,5.19-4.52,11.8-9.85s12-9.56,12.12-9.45S76.63,83.19,70,88.52,58,98.07,57.9,98Z" transform="translate(-57.805 -33.23)" fill="#e0e0e0"/>
      <path id="Trazado_118100" data-name="Trazado 118100" d="M100.76,81.85c.13-.07,3.34,6,7.16,13.44s6.81,13.62,6.68,13.68-3.33-6-7.15-13.44S100.63,81.91,100.76,81.85Z" transform="translate(-57.805 -33.23)" fill="#e0e0e0"/>
      <path id="Trazado_118111" data-name="Trazado 118111" d="M519.75,61a22.82,22.82,0,0,1,5.54-2.41l1.15-5.48,9.27-.17L537,58.4a22.73,22.73,0,0,1,5.63,2.21l4.68-3.07L554,64l-2.9,4.79a22.721,22.721,0,0,1,2.41,5.55L559,75.46l.16,9.27-5.45,1.33a22.2,22.2,0,0,1-2.21,5.63l3.07,4.68-6.44,6.68-4.79-2.91a22.819,22.819,0,0,1-5.54,2.41L536.67,108l-9.27.16-1.33-5.44a22.761,22.761,0,0,1-5.63-2.22l-4.68,3.07-6.67-6.44,2.9-4.79a22.82,22.82,0,0,1-2.41-5.54l-5.48-1.1-.17-9.27,5.45-1.34a22.127,22.127,0,0,1,2.21-5.62l-3.07-4.69L515,58.11l4.79,2.9Zm4.94,12.35a7.037,7.037,0,1,1,0,.01Z" transform="translate(-84.495 -33.23)" fill="#e0e0e0"/>
    </g>
    <g id="freepik--Device--inject-2" transform="translate(115.52 90.93)">
      <path id="Trazado_118113" data-name="Trazado 118113" d="M590.87,90.93H155.79a13.532,13.532,0,0,0-13.58,13.484V409.54a13.532,13.532,0,0,0,13.58,13.483h167s10.62,32.607-22.3,49.486H456.6S419.43,459.85,429,423.024H590.87a13.532,13.532,0,0,0,13.58-13.484V104.414A13.532,13.532,0,0,0,590.87,90.93Z" transform="translate(-142.21 -90.93)" fill="#455a64"/>
      <path id="Trazado_118114" data-name="Trazado 118114" d="M379.14,393.08c5.92,8.46-3.35,17.72-11.81,11.8a2.941,2.941,0,0,1-.72-.73c-5.91-8.45,3.35-17.7,11.8-11.8a3.16,3.16,0,0,1,.73.73Z" transform="translate(-142.21 -93.152)" fill="#263238"/>
      <path id="Trazado_118115" data-name="Trazado 118115" d="M159.4,96.56H587.26a9.7,9.7,0,0,1,9.7,9.7V369.18H149.7V106.26a9.7,9.7,0,0,1,9.7-9.7Z" transform="translate(-142.21 -90.93)" fill="#fff"/>
      <path id="Trazado_118116" data-name="Trazado 118116" d="M158.86,96.56H589.44a7.52,7.52,0,0,1,7.52,7.52v15.14H149.7v-13.5a9.15,9.15,0,0,1,9.16-9.16Z" transform="translate(-142.21 -90.93)" fill="#ebebeb"/>
      <path id="Trazado_118117" data-name="Trazado 118117" d="M513.08,425.44c0,.15-61.91.26-138.26.26s-138.28-.11-138.28-.26,61.9-.26,138.28-.26S513.08,425.3,513.08,425.44Z" transform="translate(-142.21 -93.66)" fill="#263238"/>
    </g>
    <g id="freepik--Resume--inject-2" transform="translate(229.443 33)">
      <rect id="Rectángulo_29510" data-name="Rectángulo 29510" width="272.73" height="320.17" transform="translate(0.38 16.36)" fill="#fff"/>
      <rect id="Rectángulo_29511" data-name="Rectángulo 29511" width="37.13" height="34.94" transform="translate(235.9 16.41)" fill="#f5f5f5"/>
      <rect id="Rectángulo_29512" data-name="Rectángulo 29512" width="2.94" height="2.95" transform="translate(249.86 27.8)" fill="#fff"/>
      <rect id="Rectángulo_29513" data-name="Rectángulo 29513" width="2.94" height="2.95" transform="translate(253.95 27.8)" fill="#fff"/>
      <rect id="Rectángulo_29514" data-name="Rectángulo 29514" width="2.94" height="2.95" transform="translate(258.03 27.8)" fill="#fff"/>
      <rect id="Rectángulo_29515" data-name="Rectángulo 29515" width="2.94" height="2.95" transform="translate(249.86 32.2)" fill="#fff"/>
      <rect id="Rectángulo_29516" data-name="Rectángulo 29516" width="2.94" height="2.95" transform="translate(253.95 32.2)" fill="#fff"/>
      <rect id="Rectángulo_29517" data-name="Rectángulo 29517" width="2.94" height="2.95" transform="translate(258.03 32.2)" fill="#fff"/>
      <rect id="Rectángulo_29518" data-name="Rectángulo 29518" width="2.94" height="2.95" transform="translate(249.86 36.59)" fill="#fff"/>
      <rect id="Rectángulo_29519" data-name="Rectángulo 29519" width="2.94" height="2.95" transform="translate(253.95 36.59)" fill="#fff"/>
      <rect id="Rectángulo_29520" data-name="Rectángulo 29520" width="2.94" height="2.95" transform="translate(258.03 36.59)" fill="#fff"/>
      <rect id="Rectángulo_29521" data-name="Rectángulo 29521" width="272.73" height="16.18" transform="translate(0.3 0.23)" fill="#e0e0e0"/>
      <path id="Trazado_118118" data-name="Trazado 118118" d="M258.42,41.32a2.67,2.67,0,1,1-2.66-2.67,2.67,2.67,0,0,1,2.66,2.67Z" transform="translate(-248.01 -33)" fill="#fff"/>
      <path id="Trazado_118119" data-name="Trazado 118119" d="M266,41.32a2.67,2.67,0,1,1-2.67-2.67A2.67,2.67,0,0,1,266,41.32Z" transform="translate(-248.01 -33)" fill="#fff"/>
      <path id="Trazado_118120" data-name="Trazado 118120" d="M273.64,41.32A2.67,2.67,0,1,1,271,38.65a2.67,2.67,0,0,1,2.64,2.67Z" transform="translate(-248.01 -33)" fill="#fff"/>
      <path id="Trazado_118127" data-name="Trazado 118127" d="M318.21,98.43c0,.15-10.44.26-23.32.26s-23.32-.11-23.32-.26,10.44-.26,23.32-.26S318.21,98.29,318.21,98.43Z" transform="translate(-248.01 -33)" fill="#263238"/>
      <path id="Trazado_118128" data-name="Trazado 118128" d="M359.75,106.31c0,.14-19.74.26-44.09.26s-44.09-.12-44.09-.26,19.74-.26,44.09-.26S359.75,106.17,359.75,106.31Z" transform="translate(-248.01 -33)" fill="#263238"/>
      <path id="Trazado_118129" data-name="Trazado 118129" d="M374.48,115.13c0,.14-22.94.26-51.23.26s-51.23-.12-51.23-.26,22.93-.26,51.23-.26S374.48,115,374.48,115.13Z" transform="translate(-248.01 -33)" fill="#e0e0e0"/>
      <path id="Trazado_118130" data-name="Trazado 118130" d="M374.48,121c0,.14-22.94.26-51.23.26S272,121.17,272,121s22.93-.26,51.23-.26S374.48,120.89,374.48,121Z" transform="translate(-248.01 -33)" fill="#e0e0e0"/>
      <path id="Trazado_118131" data-name="Trazado 118131" d="M328.91,143.93h0a7.1,7.1,0,0,1-7.09-7.11h0a7.1,7.1,0,0,1,7.09-7.11h0a7.1,7.1,0,0,1,7.09,7.11h0a7.11,7.11,0,0,1-7.09,7.11Z" transform="translate(-248.01 -33)" fill="#26aab7"/>
      <rect id="Rectángulo_29522" data-name="Rectángulo 29522" width="1.47" height="4.75" transform="translate(77.68 102.23)" fill="#fff"/>
      <path id="Trazado_118132" data-name="Trazado 118132" d="M326.42,134.61a.88.88,0,1,0-.87-.87A.87.87,0,0,0,326.42,134.61Z" transform="translate(-248.01 -33)" fill="#fff"/>
      <path id="Trazado_118133" data-name="Trazado 118133" d="M329.51,137.49c0-.67.3-1.06.89-1.06s.8.38.8,1.06V140h1.46v-3a1.72,1.72,0,0,0-3.15-1.11v-.64H328.1V140h1.41Z" transform="translate(-248.01 -33)" fill="#fff"/>
      <path id="Trazado_118134" data-name="Trazado 118134" d="M295.23,144h0a7.15,7.15,0,0,1-7.15-7.16h0a7.16,7.16,0,0,1,7.15-7.17h0a7.15,7.15,0,0,1,7.14,7.17h0a7.14,7.14,0,0,1-7.14,7.16Z" transform="translate(-248.01 -33)" fill="#26aab7"/>
      <path id="Trazado_118135" data-name="Trazado 118135" d="M296.84,136.63H294v.83h1.95a1.91,1.91,0,0,1-1.89,1.63,2.27,2.27,0,1,1,1.54-3.94l.64-.55a3.11,3.11,0,1,0-2.18,5.33,2.82,2.82,0,0,0,2.83-3Z" transform="translate(-248.01 -33)" fill="#fff"/>
      <path id="Trazado_118136" data-name="Trazado 118136" d="M300.99,136.67H299.8v-1.2h-.76v1.2h-1.2v.76h1.2v1.19h.76v-1.19h1.19Z" transform="translate(-248.01 -33)" fill="#fff"/>
      <path id="Trazado_118137" data-name="Trazado 118137" d="M312.31,143.88h0a7.05,7.05,0,0,1-7-7h0a7.05,7.05,0,0,1,7-7.06h0a7,7,0,0,1,7,7.06h0A7,7,0,0,1,312.31,143.88Z" transform="translate(-248.01 -33)" fill="#26aab7"/>
      <path id="Trazado_118138" data-name="Trazado 118138" d="M312.31,133.65h1.56a2.07,2.07,0,0,1,.72.13,1.31,1.31,0,0,1,.73.73,2.131,2.131,0,0,1,.13.72v3.13a2.07,2.07,0,0,1-.13.72,1.31,1.31,0,0,1-.73.73,2,2,0,0,1-.72.14h-3.12a1.94,1.94,0,0,1-.71-.14,1.29,1.29,0,0,1-.74-.73,2.35,2.35,0,0,1-.13-.72c0-.41,0-.53,0-1.56v-1.57a2.418,2.418,0,0,1,.13-.72,1.29,1.29,0,0,1,.74-.73,2,2,0,0,1,.71-.13h1.56m0-.69h-1.59a2.8,2.8,0,0,0-.94.18,1.92,1.92,0,0,0-.68.45,1.809,1.809,0,0,0-.44.68,2.8,2.8,0,0,0-.18.94v3.19a2.74,2.74,0,0,0,.18.94,1.84,1.84,0,0,0,.44.69,2,2,0,0,0,.68.44,2.8,2.8,0,0,0,.94.18h3.18a2.8,2.8,0,0,0,.94-.18,1.941,1.941,0,0,0,.68-.44,1.87,1.87,0,0,0,.45-.69,3,3,0,0,0,.18-.94v-3.19a3.071,3.071,0,0,0-.18-.94,2,2,0,0,0-1.13-1.13,2.8,2.8,0,0,0-.94-.18h-1.59" transform="translate(-248.01 -33)" fill="#fff"/>
      <path id="Trazado_118139" data-name="Trazado 118139" d="M312.31,134.84a2,2,0,1,0,2,2,2,2,0,0,0-2-2m0,3.28a1.28,1.28,0,1,1,.915-.375,1.29,1.29,0,0,1-.915.375" transform="translate(-248.01 -33)" fill="#fff"/>
      <path id="Trazado_118140" data-name="Trazado 118140" d="M314.84,134.76a.47.47,0,1,1-.465-.4.47.47,0,0,1,.465.4" transform="translate(-248.01 -33)" fill="#fff"/>
      <path id="Trazado_118141" data-name="Trazado 118141" d="M278.38,144h0a7.09,7.09,0,0,1-7.08-7.11h0a7.09,7.09,0,0,1,7.08-7.1h0a7.1,7.1,0,0,1,7.09,7.1h0A7.1,7.1,0,0,1,278.38,144Z" transform="translate(-248.01 -33)" fill="#26aab7"/>
      <path id="Trazado_118142" data-name="Trazado 118142" d="M277.3,141.17H279v-4.33h1.2l.13-1.45H279v-.83c0-.34.06-.48.39-.48h.94v-1.5h-1.2c-1.28,0-1.86.57-1.86,1.65v1.16h-.9v1.46h.9Z" transform="translate(-248.01 -33)" fill="#fff"/>
      <path id="Trazado_118143" data-name="Trazado 118143" d="M347,153.59c0,.14-17.92.26-40,.26s-40-.12-40-.26,17.93-.26,40-.26S347,153.44,347,153.59Z" transform="translate(-248.01 -33)" fill="#263238"/>
      <rect id="Rectángulo_29523" data-name="Rectángulo 29523" width="244.43" height="189.28" transform="translate(16.49 146.78)" fill="#f5f5f5"/>
      <path id="Trazado_118144" data-name="Trazado 118144" d="M341.69,202.28c0,.14-7.44.26-16.61.26s-16.6-.12-16.6-.26,7.43-.26,16.6-.26S341.69,202.13,341.69,202.28Z" transform="translate(-248.01 -33)" fill="#26aab7"/>
      <path id="Trazado_118145" data-name="Trazado 118145" d="M460.75,202.28c0,.14-7.43.26-16.6.26s-16.6-.12-16.6-.26,7.43-.26,16.6-.26S460.75,202.13,460.75,202.28Z" transform="translate(-248.01 -33)" fill="#26aab7"/>
      <path id="Trazado_118146" data-name="Trazado 118146" d="M460.75,240.55c0,.15-7.43.26-16.6.26s-16.6-.11-16.6-.26,7.43-.26,16.6-.26S460.75,240.41,460.75,240.55Z" transform="translate(-248.01 -33)" fill="#26aab7"/>
      <path id="Trazado_118147" data-name="Trazado 118147" d="M353,214.55c0,.14-9.66.26-21.57.26s-21.56-.12-21.56-.26,9.65-.26,21.56-.26S353,214.41,353,214.55Z" transform="translate(-248.01 -33)" fill="#455a64"/>
      <path id="Trazado_118148" data-name="Trazado 118148" d="M351.67,237.18c0,.15-9.66.26-21.57.26s-21.56-.11-21.56-.26,9.65-.26,21.56-.26S351.67,237,351.67,237.18Z" transform="translate(-248.01 -33)" fill="#263238"/>
      <path id="Trazado_118149" data-name="Trazado 118149" d="M306.65,214.55a1,1,0,1,1-1-1A1,1,0,0,1,306.65,214.55Z" transform="translate(-248.01 -33)" fill="#263238"/>
      <path id="Trazado_118150" data-name="Trazado 118150" d="M306.65,237.18a1,1,0,1,1-1-1A1,1,0,0,1,306.65,237.18Z" transform="translate(-248.01 -33)" fill="#263238"/>
      <path id="Trazado_118151" data-name="Trazado 118151" d="M306.6,256.32a1,1,0,1,1-1-1A1,1,0,0,1,306.6,256.32Z" transform="translate(-248.01 -33)" fill="#263238"/>
      <path id="Trazado_118152" data-name="Trazado 118152" d="M305.6,234.46a74.914,74.914,0,0,1-.26-8.76,74.8,74.8,0,0,1,.26-8.75,72.265,72.265,0,0,1,.26,8.75,72.374,72.374,0,0,1-.26,8.76Z" transform="translate(-248.01 -33)" fill="#263238"/>
      <path id="Trazado_118153" data-name="Trazado 118153" d="M305.6,252.67a36,36,0,0,1-.26-6.06,36.049,36.049,0,0,1,.26-6.06,34.833,34.833,0,0,1,.26,6.06A34.737,34.737,0,0,1,305.6,252.67Z" transform="translate(-248.01 -33)" fill="#263238"/>
      <path id="Trazado_118154" data-name="Trazado 118154" d="M327.7,218.22a71.544,71.544,0,0,1-8.56.26,71.683,71.683,0,0,1-8.56-.26,69.242,69.242,0,0,1,8.56-.26,69.109,69.109,0,0,1,8.56.26Z" transform="translate(-248.01 -33)" fill="#455a64"/>
      <path id="Trazado_118155" data-name="Trazado 118155" d="M352.65,225.21c0,.14-9.34.26-20.85.26s-20.85-.12-20.85-.26,9.33-.26,20.85-.26S352.65,225.06,352.65,225.21Z" transform="translate(-248.01 -33)" fill="#e0e0e0"/>
      <path id="Trazado_118156" data-name="Trazado 118156" d="M341,231c0,.14-6.72.26-15,.26s-15-.12-15-.26,6.72-.26,15-.26S341,230.88,341,231Z" transform="translate(-248.01 -33)" fill="#e0e0e0"/>
      <path id="Trazado_118157" data-name="Trazado 118157" d="M352.28,228c0,.14-9.33.26-20.85.26s-20.85-.12-20.85-.26,9.34-.26,20.85-.26S352.28,227.88,352.28,228Z" transform="translate(-248.01 -33)" fill="#e0e0e0"/>
      <path id="Trazado_118158" data-name="Trazado 118158" d="M352.65,243.49c0,.14-9.34.26-20.85.26s-20.85-.12-20.85-.26,9.33-.26,20.85-.26S352.65,243.34,352.65,243.49Z" transform="translate(-248.01 -33)" fill="#e0e0e0"/>
      <path id="Trazado_118159" data-name="Trazado 118159" d="M341,249.31c0,.14-6.72.26-15,.26s-15-.12-15-.26,6.72-.26,15-.26S341,249.16,341,249.31Z" transform="translate(-248.01 -33)" fill="#e0e0e0"/>
      <path id="Trazado_118160" data-name="Trazado 118160" d="M352.28,246.31c0,.14-9.33.26-20.85.26s-20.85-.12-20.85-.26,9.34-.26,20.85-.26S352.28,246.16,352.28,246.31Z" transform="translate(-248.01 -33)" fill="#e0e0e0"/>
      <path id="Trazado_118161" data-name="Trazado 118161" d="M351.67,256.51c0,.15-9.66.26-21.57.26s-21.56-.11-21.56-.26,9.65-.26,21.56-.26S351.67,256.37,351.67,256.51Z" transform="translate(-248.01 -33)" fill="#263238"/>
      <path id="Trazado_118162" data-name="Trazado 118162" d="M352.65,262.82c0,.14-9.34.26-20.85.26S311,263,311,262.82s9.33-.26,20.85-.26S352.65,262.67,352.65,262.82Z" transform="translate(-248.01 -33)" fill="#e0e0e0"/>
      <path id="Trazado_118163" data-name="Trazado 118163" d="M341,268.64c0,.14-6.72.26-15,.26s-15-.12-15-.26,6.72-.26,15-.26S341,268.49,341,268.64Z" transform="translate(-248.01 -33)" fill="#e0e0e0"/>
      <path id="Trazado_118164" data-name="Trazado 118164" d="M352.28,265.64c0,.14-9.33.26-20.85.26s-20.85-.12-20.85-.26,9.34-.26,20.85-.26S352.28,265.49,352.28,265.64Z" transform="translate(-248.01 -33)" fill="#e0e0e0"/>
      <path id="Trazado_118165" data-name="Trazado 118165" d="M341.69,281.64c0,.14-7.44.26-16.61.26s-16.6-.12-16.6-.26,7.43-.26,16.6-.26S341.69,281.49,341.69,281.64Z" transform="translate(-248.01 -33)" fill="#26aab7"/>
      <path id="Trazado_118166" data-name="Trazado 118166" d="M353,293.91c0,.14-9.66.26-21.57.26s-21.56-.12-21.56-.26,9.65-.26,21.56-.26S353,293.77,353,293.91Z" transform="translate(-248.01 -33)" fill="#455a64"/>
      <path id="Trazado_118167" data-name="Trazado 118167" d="M351.67,316.54c0,.15-9.66.26-21.57.26s-21.56-.11-21.56-.26,9.65-.26,21.56-.26S351.67,316.4,351.67,316.54Z" transform="translate(-248.01 -33)" fill="#263238"/>
      <circle id="Elipse_4118" data-name="Elipse 4118" cx="0.99" cy="0.99" r="0.99" transform="translate(56.66 259.92)" fill="#263238"/>
      <path id="Trazado_118168" data-name="Trazado 118168" d="M306.65,316.54a1,1,0,1,1-1-1A1,1,0,0,1,306.65,316.54Z" transform="translate(-248.01 -33)" fill="#263238"/>
      <path id="Trazado_118169" data-name="Trazado 118169" d="M306.6,335.68a1,1,0,1,1-1-1A1,1,0,0,1,306.6,335.68Z" transform="translate(-248.01 -33)" fill="#263238"/>
      <path id="Trazado_118170" data-name="Trazado 118170" d="M305.6,313.82a74.81,74.81,0,0,1-.26-8.75,74.908,74.908,0,0,1,.26-8.76,72.38,72.38,0,0,1,.26,8.76,72.271,72.271,0,0,1-.26,8.75Z" transform="translate(-248.01 -33)" fill="#263238"/>
      <path id="Trazado_118171" data-name="Trazado 118171" d="M305.6,332a70.75,70.75,0,0,1,0-12.12A70.756,70.756,0,0,1,305.6,332Z" transform="translate(-248.01 -33)" fill="#263238"/>
      <path id="Trazado_118172" data-name="Trazado 118172" d="M327.7,297.58a71.538,71.538,0,0,1-8.56.26,71.677,71.677,0,0,1-8.56-.26,69.248,69.248,0,0,1,8.56-.26,69.111,69.111,0,0,1,8.56.26Z" transform="translate(-248.01 -33)" fill="#455a64"/>
      <path id="Trazado_118173" data-name="Trazado 118173" d="M352.65,304.57c0,.14-9.34.26-20.85.26s-20.85-.12-20.85-.26,9.33-.26,20.85-.26S352.65,304.42,352.65,304.57Z" transform="translate(-248.01 -33)" fill="#e0e0e0"/>
      <path id="Trazado_118174" data-name="Trazado 118174" d="M341,310.39c0,.14-6.72.26-15,.26s-15-.12-15-.26,6.72-.26,15-.26S341,310.25,341,310.39Z" transform="translate(-248.01 -33)" fill="#e0e0e0"/>
      <path id="Trazado_118175" data-name="Trazado 118175" d="M352.28,307.39c0,.14-9.33.26-20.85.26s-20.85-.12-20.85-.26,9.34-.26,20.85-.26S352.28,307.24,352.28,307.39Z" transform="translate(-248.01 -33)" fill="#e0e0e0"/>
      <path id="Trazado_118176" data-name="Trazado 118176" d="M352.65,322.85c0,.14-9.34.26-20.85.26S311,323,311,322.85s9.33-.26,20.85-.26S352.65,322.7,352.65,322.85Z" transform="translate(-248.01 -33)" fill="#e0e0e0"/>
      <path id="Trazado_118177" data-name="Trazado 118177" d="M341,328.67c0,.14-6.72.26-15,.26s-15-.12-15-.26,6.72-.26,15-.26S341,328.53,341,328.67Z" transform="translate(-248.01 -33)" fill="#e0e0e0"/>
      <path id="Trazado_118178" data-name="Trazado 118178" d="M352.28,325.67c0,.14-9.33.26-20.85.26s-20.85-.12-20.85-.26,9.34-.26,20.85-.26S352.28,325.52,352.28,325.67Z" transform="translate(-248.01 -33)" fill="#e0e0e0"/>
      <path id="Trazado_118179" data-name="Trazado 118179" d="M351.67,335.87c0,.15-9.66.26-21.57.26s-21.56-.11-21.56-.26,9.65-.26,21.56-.26S351.67,335.73,351.67,335.87Z" transform="translate(-248.01 -33)" fill="#263238"/>
      <path id="Trazado_118180" data-name="Trazado 118180" d="M352.65,342.18c0,.14-9.34.26-20.85.26s-20.85-.12-20.85-.26,9.33-.26,20.85-.26S352.65,342,352.65,342.18Z" transform="translate(-248.01 -33)" fill="#e0e0e0"/>
      <path id="Trazado_118181" data-name="Trazado 118181" d="M341,348c0,.14-6.72.26-15,.26s-15-.12-15-.26,6.72-.26,15-.26S341,347.86,341,348Z" transform="translate(-248.01 -33)" fill="#e0e0e0"/>
      <path id="Trazado_118182" data-name="Trazado 118182" d="M352.28,345c0,.14-9.33.26-20.85.26s-20.85-.12-20.85-.26,9.34-.26,20.85-.26S352.28,344.85,352.28,345Z" transform="translate(-248.01 -33)" fill="#e0e0e0"/>
      <path id="Trazado_118183" data-name="Trazado 118183" d="M389.47,368.6c-.14,0-.26-42-.26-93.82s.12-93.82.26-93.82.26,42,.26,93.82S389.61,368.6,389.47,368.6Z" transform="translate(-248.01 -33)" fill="#455a64"/>
      <path id="Trazado_118184" data-name="Trazado 118184" d="M483.91,213.46c0,.14-13.14.26-29.34.26s-29.35-.12-29.35-.26,13.13-.26,29.35-.26S483.91,213.32,483.91,213.46Z" transform="translate(-248.01 -33)" fill="#455a64"/>
      <path id="Trazado_118185" data-name="Trazado 118185" d="M484.69,218.22c0,.14-13,.26-29.13.26s-29.13-.12-29.13-.26,13-.26,29.13-.26S484.69,218.07,484.69,218.22Z" transform="translate(-248.01 -33)" fill="#455a64"/>
      <path id="Trazado_118186" data-name="Trazado 118186" d="M460.75,313.91c0,.14-7.43.26-16.6.26s-16.6-.12-16.6-.26,7.43-.26,16.6-.26S460.75,313.77,460.75,313.91Z" transform="translate(-248.01 -33)" fill="#26aab7"/>
      <path id="Trazado_118187" data-name="Trazado 118187" d="M483.91,325.09c0,.15-13.14.26-29.34.26s-29.35-.11-29.35-.26,13.13-.26,29.35-.26S483.91,325,483.91,325.09Z" transform="translate(-248.01 -33)" fill="#455a64"/>
      <path id="Trazado_118188" data-name="Trazado 118188" d="M484.69,329.85c0,.14-13.31.26-29.73.26s-29.74-.12-29.74-.26,13.31-.26,29.74-.26S484.69,329.71,484.69,329.85Z" transform="translate(-248.01 -33)" fill="#455a64"/>
      <path id="Trazado_118189" data-name="Trazado 118189" d="M479.16,256.41H428.68a2.24,2.24,0,0,1-2.25-2.24h0a2.25,2.25,0,0,1,2.25-2.25h50.48a2.25,2.25,0,0,1,2.25,2.25h0a2.24,2.24,0,0,1-2.25,2.24Z" transform="translate(-248.01 -33)" fill="#e0e0e0"/>
      <path id="Trazado_118190" data-name="Trazado 118190" d="M455.83,256.41H428.68a2.24,2.24,0,0,1-2.25-2.24h0a2.25,2.25,0,0,1,2.25-2.25h27.15a2.25,2.25,0,0,1,2.25,2.25h0a2.24,2.24,0,0,1-2.25,2.24Z" transform="translate(-248.01 -33)" fill="#26aab7"/>
      <path id="Trazado_118191" data-name="Trazado 118191" d="M479.16,266.41H428.68a2.24,2.24,0,0,1-2.25-2.24h0a2.25,2.25,0,0,1,2.25-2.25h50.48a2.25,2.25,0,0,1,2.25,2.25h0a2.24,2.24,0,0,1-2.25,2.24Z" transform="translate(-248.01 -33)" fill="#e0e0e0"/>
      <path id="Trazado_118192" data-name="Trazado 118192" d="M447,266.41H428.68a2.24,2.24,0,0,1-2.25-2.24h0a2.25,2.25,0,0,1,2.25-2.25H447a2.25,2.25,0,0,1,2.25,2.25h0a2.24,2.24,0,0,1-2.25,2.24Z" transform="translate(-248.01 -33)" fill="#26aab7"/>
      <path id="Trazado_118193" data-name="Trazado 118193" d="M479.16,276.41H428.68a2.24,2.24,0,0,1-2.25-2.24h0a2.25,2.25,0,0,1,2.25-2.25h50.48a2.25,2.25,0,0,1,2.25,2.25h0a2.24,2.24,0,0,1-2.25,2.24Z" transform="translate(-248.01 -33)" fill="#e0e0e0"/>
      <path id="Trazado_118194" data-name="Trazado 118194" d="M471.85,276.41H428.68a2.24,2.24,0,0,1-2.25-2.24h0a2.25,2.25,0,0,1,2.25-2.25h43.17a2.24,2.24,0,0,1,2.24,2.25h0A2.24,2.24,0,0,1,471.85,276.41Z" transform="translate(-248.01 -33)" fill="#26aab7"/>
      <path id="Trazado_118195" data-name="Trazado 118195" d="M479.16,286.42H428.68a2.25,2.25,0,0,1-2.25-2.25h0a2.25,2.25,0,0,1,2.25-2.25h50.48a2.25,2.25,0,0,1,2.25,2.25h0A2.25,2.25,0,0,1,479.16,286.42Z" transform="translate(-248.01 -33)" fill="#e0e0e0"/>
      <path id="Trazado_118196" data-name="Trazado 118196" d="M465.72,286.42h-37a2.25,2.25,0,0,1-2.25-2.25h0a2.25,2.25,0,0,1,2.25-2.25h37a2.25,2.25,0,0,1,2.25,2.25h0A2.25,2.25,0,0,1,465.72,286.42Z" transform="translate(-248.01 -33)" fill="#26aab7"/>
      <path id="Trazado_118197" data-name="Trazado 118197" d="M421.52,255.12a42,42,0,0,1-9.51,0,43.61,43.61,0,0,1,9.51,0Z" transform="translate(-248.01 -33)" fill="#455a64"/>
      <path id="Trazado_118198" data-name="Trazado 118198" d="M421.52,264.17a43.613,43.613,0,0,1-9.51,0A43.613,43.613,0,0,1,421.52,264.17Z" transform="translate(-248.01 -33)" fill="#455a64"/>
      <path id="Trazado_118199" data-name="Trazado 118199" d="M421.52,273.21a43.613,43.613,0,0,1-9.51,0A43.613,43.613,0,0,1,421.52,273.21Z" transform="translate(-248.01 -33)" fill="#455a64"/>
      <path id="Trazado_118200" data-name="Trazado 118200" d="M421.52,282.25a43.613,43.613,0,0,1-9.51,0A43.613,43.613,0,0,1,421.52,282.25Z" transform="translate(-248.01 -33)" fill="#455a64"/>
      <path id="Trazado_118201" data-name="Trazado 118201" d="M284.57,196.94l8.41-3.69,7.64,3.69-7.81,4Z" transform="translate(-248.01 -33)" fill="#26aab7"/>
      <path id="Trazado_118202" data-name="Trazado 118202" d="M286.33,198.95l-.12,5.02h12.46v-4.85l-6.02,2.95Z" transform="translate(-248.01 -33)" fill="#26aab7"/>
      <rect id="Rectángulo_29524" data-name="Rectángulo 29524" width="12.45" height="7.91" transform="translate(158.18 163.54)" fill="#26aab7"/>
      <rect id="Rectángulo_29525" data-name="Rectángulo 29525" width="5" height="2.48" transform="translate(161.91 171.45)" fill="#26aab7"/>
      <path id="Trazado_118203" data-name="Trazado 118203" d="M417.69,206.84a59.579,59.579,0,0,1-11.12,0A59.579,59.579,0,0,1,417.69,206.84Z" transform="translate(-248.01 -33)" fill="#26aab7"/>
      <rect id="Rectángulo_29526" data-name="Rectángulo 29526" width="12.45" height="7.91" transform="translate(33.6 243.45)" fill="#26aab7"/>
      <rect id="Rectángulo_29527" data-name="Rectángulo 29527" width="5" height="2.48" transform="translate(37.32 251.36)" fill="#26aab7"/>
      <path id="Trazado_118204" data-name="Trazado 118204" d="M293.1,286.75a59.577,59.577,0,0,1-11.12,0A59.582,59.582,0,0,1,293.1,286.75Z" transform="translate(-248.01 -33)" fill="#26aab7"/>
      <path id="Trazado_118205" data-name="Trazado 118205" d="M418,243l-1.13-2a5.38,5.38,0,1,0-1.29,1.43h0Z" transform="translate(-248.01 -33)" fill="#26aab7"/>
      <path id="Trazado_118206" data-name="Trazado 118206" d="M414.92,311a3.06,3.06,0,0,0,1.83-2.84,2.89,2.89,0,1,0-5.76,0,3.08,3.08,0,0,0,1.84,2.87c-4.44.67-4.23,5.49-4.23,5.49h10.48S419.32,311.67,414.92,311Z" transform="translate(-248.01 -33)" fill="#26aab7"/>
      <path id="Trazado_118207" data-name="Trazado 118207" d="M521,33.23c0,2,.1,136.34.24,336.35v.24H248.01V33h.22L521,33.23l-272.73.22.22-.22V369.58l-.26-.26h272.7l-.23.23C521,169.57,521,35.26,521,33.23Z" transform="translate(-248.01 -33)" fill="#263238"/>
    </g>
    <g id="freepik--character-1--inject-2" transform="translate(151.2 100.404)">
      <path id="Trazado_118208" data-name="Trazado 118208" d="M195.79,429.21l-12.61,20.3s16.4,19.64,14.43,23.62l-40.24-23,18.36-32.44Z" transform="translate(-157.37 -103.135)" fill="#455a64"/>
      <path id="Trazado_118209" data-name="Trazado 118209" d="M171.74,440.64a1.89,1.89,0,0,0-2.21,1.23,1.81,1.81,0,0,0,1.19,2.2,2,2,0,0,0,2.33-1.31,1.89,1.89,0,0,0-1.49-2.15" transform="translate(-157.37 -103.135)" fill="#e0e0e0"/>
      <g id="Grupo_55085" data-name="Grupo 55085" transform="translate(0 343.755)" opacity="0.6">
        <path id="Trazado_118210" data-name="Trazado 118210" d="M157.37,450.09l2-3.2,37.84,23.28s1.35,1.81.42,3Z" transform="translate(-157.37 -446.89)" fill="#fff"/>
      </g>
      <path id="Trazado_118211" data-name="Trazado 118211" d="M184,449.68c-.12.19-1.15-.28-2.48-.2s-2.32.61-2.45.43.8-1.15,2.41-1.22S184.09,449.52,184,449.68Z" transform="translate(-157.37 -103.135)" fill="#263238"/>
      <path id="Trazado_118212" data-name="Trazado 118212" d="M187.17,453.84c-.06.22-1.11.07-2.25.51s-1.84,1.22-2,1.1.32-1.3,1.75-1.83S187.27,453.65,187.17,453.84Z" transform="translate(-157.37 -103.135)" fill="#263238"/>
      <path id="Trazado_118213" data-name="Trazado 118213" d="M186.67,460.27c-.2-.07.09-1.2,1.21-2s2.29-.69,2.28-.48-.91.46-1.82,1.12S186.88,460.36,186.67,460.27Z" transform="translate(-157.37 -103.135)" fill="#263238"/>
      <path id="Trazado_118214" data-name="Trazado 118214" d="M186.31,444.74c-.19.13-.93-.66-2.09-1.22s-2.22-.71-2.22-.93,1.23-.45,2.58.22S186.49,444.64,186.31,444.74Z" transform="translate(-157.37 -103.135)" fill="#263238"/>
      <path id="Trazado_118215" data-name="Trazado 118215" d="M194,437.55l-1.36,23.86s23.8,9.39,24,13.83l-46.35-1,.59-37.26Z" transform="translate(-157.37 -103.135)" fill="#455a64"/>
      <path id="Trazado_118216" data-name="Trazado 118216" d="M178.39,459.1a1.91,1.91,0,0,0-1.36,2.13,1.83,1.83,0,0,0,2.11,1.36,2,2,0,0,0,1.42-2.26,1.88,1.88,0,0,0-2.34-1.18" transform="translate(-157.37 -103.135)" fill="#e0e0e0"/>
      <g id="Grupo_55086" data-name="Grupo 55086" transform="translate(12.93 367.375)" opacity="0.6">
        <path id="Trazado_118217" data-name="Trazado 118217" d="M170.3,474.26l.21-3.75,44.36,2.34s2,.94,1.78,2.39Z" transform="translate(-170.3 -470.51)" fill="#fff"/>
      </g>
      <path id="Trazado_118218" data-name="Trazado 118218" d="M193.44,461.19c0,.23-1.15.31-2.28,1s-1.74,1.64-1.95,1.55.16-1.4,1.54-2.22S193.49,461,193.44,461.19Z" transform="translate(-157.37 -103.135)" fill="#263238"/>
      <path id="Trazado_118219" data-name="Trazado 118219" d="M198.26,463.3c0,.22-.94.59-1.73,1.53s-1,1.95-1.26,1.93-.34-1.29.66-2.45S198.26,463.09,198.26,463.3Z" transform="translate(-157.37 -103.135)" fill="#263238"/>
      <path id="Trazado_118220" data-name="Trazado 118220" d="M200.9,469.18c-.21,0-.5-1.09.11-2.32s1.67-1.7,1.76-1.51-.57.84-1.06,1.86S201.12,469.16,200.9,469.18Z" transform="translate(-157.37 -103.135)" fill="#263238"/>
      <path id="Trazado_118221" data-name="Trazado 118221" d="M193.14,455.72c-.1.2-1.13-.13-2.41-.07s-2.29.44-2.4.24.86-1,2.37-1S193.26,455.54,193.14,455.72Z" transform="translate(-157.37 -103.135)" fill="#263238"/>
      <path id="Trazado_118222" data-name="Trazado 118222" d="M233.85,285.26s-3.11,75.59-5,82.62-41.16,78.89-41.16,78.89L164,435.15l31.4-75.89V286Z" transform="translate(-157.37 -103.135)" fill="#263238"/>
      <path id="Trazado_118223" data-name="Trazado 118223" d="M173.14,285.26s-2.49,18.39-1.21,20.31,3.52,8,3.52,8l-1.93,59.1-5.74,86.89h27.6l11.85-76.62s4.15-7,5.75-13.1,11-66.45,11-66.45V280.1Z" transform="translate(-157.37 -103.135)" fill="#263238"/>
      <path id="Trazado_118224" data-name="Trazado 118224" d="M227.05,288.49a2.189,2.189,0,0,1,0,.45c0,.32-.11.75-.18,1.3-.18,1.18-.44,2.87-.76,5l-2.9,18.46c-1.24,7.8-2.72,17.08-4.36,27.37-.84,5.15-1.67,10.56-2.63,16.16a98,98,0,0,1-4.3,17.06c-2.08,5.67-5,10.84-6,16.43-1.19,5.53-2,10.95-2.82,16.1-1.56,10.31-2.82,19.62-3.89,27.44s-1.93,14.14-2.59,18.5c-.33,2.19-.59,3.88-.8,5-.1.55-.19,1-.25,1.3a2.059,2.059,0,0,1-.1.44,3.089,3.089,0,0,1,.05-.45c0-.32.11-.75.18-1.31.17-1.18.4-2.87.7-5,.57-4.4,1.39-10.72,2.41-18.53s2.23-17.14,3.76-27.46c.8-5.16,1.62-10.58,2.8-16.14,1-5.68,4-10.9,6.06-16.51a97.851,97.851,0,0,0,4.29-17c1-5.59,1.81-11,2.66-16.14,1.69-10.29,3.21-19.56,4.48-27.35s2.35-14.05,3.08-18.44l.86-5,.24-1.3a2.488,2.488,0,0,1,.01-.38Z" transform="translate(-157.37 -103.135)" fill="#455a64"/>
      <path id="Trazado_118225" data-name="Trazado 118225" d="M170.86,412.88a10.709,10.709,0,0,1,0,1.83c0,1.18-.12,2.87-.24,5-.23,4.2-.65,10-1.14,16.39s-.9,12.19-1.17,16.38c-.14,2-.25,3.7-.33,5a10.559,10.559,0,0,1-.19,1.82,10.811,10.811,0,0,1,0-1.83c0-1.17.06-2.88.14-5,.17-4.2.53-10,1-16.4s1-12.09,1.31-16.37c.17-2,.31-3.69.42-5a13.826,13.826,0,0,1,.2-1.82Z" transform="translate(-157.37 -103.135)" fill="#455a64"/>
      <path id="Trazado_118226" data-name="Trazado 118226" d="M233.56,127.6c-1.79-1.93-4-3.75-4.59-6.3-.57-2.36.26-5-1-7.13-1.52-2.56-5.33-2.77-7.16-5.12-.89-1.13-1.2-2.64-2.08-3.78-1.49-2-4.28-2.39-6.71-2s-4.75,1.29-7.18,1.54c-3.35.34-6.85-.65-10,.42-3.52,1.17-5.59,4.39-7.81,7.52l-2.9,3.63a12.579,12.579,0,0,1-2,1.7,23.758,23.758,0,0,0-3.74,2.56,6,6,0,0,0,.66,8.56,6.38,6.38,0,0,0-4.08,6.38,18.18,18.18,0,0,0,1.29,4.28,6.35,6.35,0,0,1,.25,4.39c-.55,1.39-2.27,2.38-3.59,1.69a6.73,6.73,0,0,0,3.78,4.35,4,4,0,0,1-2.64,1.28c2.92,6.32,10.43,9.45,17.37,9.26s13.51-3.05,19.86-5.86l18.54-5.48c1.63-.43,2.24-2.46,2.17-4.14s-.57-3.43,0-5c.76-2.19,3.23-3.42,4-5.6C236.93,132.2,235.35,129.53,233.56,127.6Z" transform="translate(-157.37 -103.135)" fill="#263238"/>
      <path id="Trazado_118227" data-name="Trazado 118227" d="M189.89,146.15a77.419,77.419,0,0,1-3.72-12.8,27.05,27.05,0,0,1,.68-13.2c.21-.63,2.09-4.93,2.76-4.89.48,0-.64,4-.38,4.44a22.94,22.94,0,0,1,2.94,13.3,60.349,60.349,0,0,1-2.28,13.18" transform="translate(-157.37 -103.135)" fill="#263238"/>
      <path id="Trazado_118228" data-name="Trazado 118228" d="M206.34,108h-1c-11.13.38-17,10.06-16.34,21.2l.27,38.42a13.06,13.06,0,0,0,12.44,13h0a13,13,0,0,0,13.61-12.67c.06-2,.11-3.43.12-3.43s10.72-1.4,11.12-12.11c.19-5.17-.28-15.85-.82-25.5A19.92,19.92,0,0,0,206.34,108Z" transform="translate(-157.37 -103.135)" fill="#ffbe9d"/>
      <path id="Trazado_118229" data-name="Trazado 118229" d="M215.41,164.47a25.83,25.83,0,0,1-13.8-4.47s3,7.91,13.7,7.21Z" transform="translate(-157.37 -103.135)" fill="#eb996e"/>
      <path id="Trazado_118230" data-name="Trazado 118230" d="M223.06,135.61a1.53,1.53,0,0,1-1.51,1.51A1.47,1.47,0,0,1,220,135.7a1.54,1.54,0,0,1,1.51-1.51,1.47,1.47,0,0,1,1.55,1.42Z" transform="translate(-157.37 -103.135)" fill="#263238"/>
      <path id="Trazado_118231" data-name="Trazado 118231" d="M223.32,131.24c-.19.2-1.33-.69-3-.73s-2.86.76-3,.55.11-.44.65-.81a4.13,4.13,0,0,1,2.43-.69,4,4,0,0,1,2.36.83C223.26,130.79,223.42,131.15,223.32,131.24Z" transform="translate(-157.37 -103.135)" fill="#263238"/>
      <path id="Trazado_118232" data-name="Trazado 118232" d="M207.28,135.61a1.53,1.53,0,0,1-1.51,1.51,1.47,1.47,0,0,1-1.54-1.42,1.54,1.54,0,0,1,1.51-1.51,1.47,1.47,0,0,1,1.54,1.42Z" transform="translate(-157.37 -103.135)" fill="#263238"/>
      <path id="Trazado_118233" data-name="Trazado 118233" d="M207.23,131.51c-.19.19-1.33-.69-3-.73s-2.86.75-3,.55.11-.45.65-.82a4.14,4.14,0,0,1,2.44-.68,4,4,0,0,1,2.35.82C207.17,131.05,207.33,131.42,207.23,131.51Z" transform="translate(-157.37 -103.135)" fill="#263238"/>
      <path id="Trazado_118234" data-name="Trazado 118234" d="M212.81,144.3a10.13,10.13,0,0,1,2.67-.42c.42,0,.82-.11.9-.39a2.11,2.11,0,0,0-.25-1.25c-.37-1-.75-2.11-1.16-3.23-1.61-4.6-2.76-8.38-2.57-8.44s1.63,3.61,3.24,8.21c.39,1.13.76,2.21,1.11,3.25a2.46,2.46,0,0,1,.18,1.65,1.1,1.1,0,0,1-.71.6,3.271,3.271,0,0,1-.71.08,10.841,10.841,0,0,1-2.7-.06Z" transform="translate(-157.37 -103.135)" fill="#263238"/>
      <path id="Trazado_118235" data-name="Trazado 118235" d="M208,145.31c.27,0,.23,1.78,1.72,3.09s3.39,1.15,3.4,1.4-.43.34-1.23.34a4.43,4.43,0,0,1-2.85-1.07,3.86,3.86,0,0,1-1.32-2.58C207.62,145.74,207.83,145.3,208,145.31Z" transform="translate(-157.37 -103.135)" fill="#263238"/>
      <path id="Trazado_118236" data-name="Trazado 118236" d="M207.31,124.83c-.17.44-1.81.19-3.74.37s-3.5.67-3.74.27c-.11-.2.17-.61.81-1a6.15,6.15,0,0,1,2.79-.9,6.28,6.28,0,0,1,2.91.41C207,124.26,207.38,124.62,207.31,124.83Z" transform="translate(-157.37 -103.135)" fill="#263238"/>
      <path id="Trazado_118237" data-name="Trazado 118237" d="M222.78,125.76c-.3.36-1.42-.05-2.78-.11s-2.51.19-2.77-.21c-.11-.19.08-.56.59-.9a4,4,0,0,1,4.47.25C222.76,125.19,222.91,125.58,222.78,125.76Z" transform="translate(-157.37 -103.135)" fill="#263238"/>
      <path id="Trazado_118238" data-name="Trazado 118238" d="M189.64,137.14c-.18-.08-7.28-2.36-7.23,5s7.38,5.76,7.39,5.55S189.64,137.14,189.64,137.14Z" transform="translate(-157.37 -103.135)" fill="#ffbe9d"/>
      <path id="Trazado_118239" data-name="Trazado 118239" d="M187.55,144.9a2.464,2.464,0,0,1-.35.19,1.25,1.25,0,0,1-.95,0,3.17,3.17,0,0,1-1.47-2.83,4.18,4.18,0,0,1,.34-1.83,1.47,1.47,0,0,1,.95-1,.65.65,0,0,1,.75.34c.1.21.06.35.1.37s.15-.13.09-.43a.81.81,0,0,0-.29-.46,1,1,0,0,0-.7-.18,1.8,1.8,0,0,0-1.33,1.15,4.34,4.34,0,0,0-.42,2,3.222,3.222,0,0,0,1.88,3.15,1.38,1.38,0,0,0,1.16-.2C187.53,145.08,187.57,144.91,187.55,144.9Z" transform="translate(-157.37 -103.135)" fill="#eb996e"/>
      <path id="Trazado_118240" data-name="Trazado 118240" d="M220.8,114.8c1.17-.68-2.44-4.46-5.37-5.74-4.42-1.92-11.14-3-15.17-1.83-4.85,1.46-8.87,4-11.24,8.45a28.74,28.74,0,0,0-3,14.76,8.66,8.66,0,0,0,1.1,4.46c1,1.6,3,2.59,3,4.82a3.12,3.12,0,0,0,.8,2.23c1.36,1.4,3,0,3.7-1.32,1.56-2.89,1.69-6.32,1.78-9.61a21.359,21.359,0,0,0-.58-7c-.37-1.21-1-2.36-1.27-3.59a4.4,4.4,0,0,1,.46-3.67,5,5,0,0,1,.58-.61,7.6,7.6,0,0,1,7.53-1.56c4.14,1.39,11.2,3.46,13,2a11.32,11.32,0,0,0,3.22-3.38Z" transform="translate(-157.37 -103.135)" fill="#263238"/>
      <path id="Trazado_118241" data-name="Trazado 118241" d="M200.62,106.23a16,16,0,0,1,12.35.48,8.38,8.38,0,0,1,4.48,4.8c.65,2.15-.23,4.84-2.3,5.72l-.14.09c-3.1,1.11-5.13.72-8.26-.31-2.63-.87-5-2.45-7.61-3.3a14.79,14.79,0,0,0-8.69-.12,24.21,24.21,0,0,1,10.17-7.36Z" transform="translate(-157.37 -103.135)" fill="#263238"/>
      <path id="Trazado_118242" data-name="Trazado 118242" d="M174.11,228.07c-.43,9-3,60.35-3,60.35a87.3,87.3,0,0,0,36.51,3.79c19.57-2.4,27.87,1.34,27.87,1.34L229.76,204,215.1,169.78s-20.45-2.78-25.86-2.17a45.28,45.28,0,0,0-5.52,4.08c-5.49,6.26-9.23,19.59-9.43,30.71Z" transform="translate(-157.37 -103.135)" fill="#f5ca56"/>
      <g id="Grupo_55087" data-name="Grupo 55087" transform="translate(31.25 94.995)" opacity="0.3">
        <path id="Trazado_118243" data-name="Trazado 118243" d="M205.07,206.83c-5.41-4.64-12.75-2.61-16.45-8.7a178.659,178.659,0,0,0,15,29.62,3.49,3.49,0,0,0,1.46,1.51c1.43.58,2.81-.84,4.11-1.67,2.42-1.55,5.66-1.15,8.25.12s4.71,3.26,7,5,5,3.16,7.88,3.07a188.1,188.1,0,0,0-27.25-28.95Z" transform="translate(-188.62 -198.13)"/>
      </g>
      <path id="Trazado_118244" data-name="Trazado 118244" d="M227,201.41,240.74,214l14.87-33.83,12.57,4.21s-13.5,50-17,53.86c-4.79,5.23-12.68,4.52-16.81.85-4.74-4.21-22.46-21.7-22.46-21.7Z" transform="translate(-157.37 -103.135)" fill="#ffbe9d"/>
      <path id="Trazado_118245" data-name="Trazado 118245" d="M240.74,222.31a12.94,12.94,0,0,1-.4-4.25,13.13,13.13,0,0,1,.5-4.25,26.248,26.248,0,0,1,0,4.25,28.557,28.557,0,0,1-.1,4.25Z" transform="translate(-157.37 -103.135)" fill="#eb996e"/>
      <path id="Trazado_118246" data-name="Trazado 118246" d="M254.82,183.54l2.62-16.91a2.28,2.28,0,0,1,.84-1.43l1.12-.89s-.14-.23,1.86-2.84,4.85-2.58,5.56-1.09c0,0,3.73-1.93,4.55.75.48,1.57-1,3.74-1,3.74s3.46,1.1,2.1,5.37c0,0,1.86,0,.14,4.63-.74,2-5.91,12.38-5.91,12.38Z" transform="translate(-157.37 -103.135)" fill="#ffbe9d"/>
      <path id="Trazado_118247" data-name="Trazado 118247" d="M245.24,170.55h0a1.3,1.3,0,0,0,1.76.81l17.37-7.44,2.29-3.44L246,169a1.3,1.3,0,0,0-.76,1.55Z" transform="translate(-157.37 -103.135)" fill="#263238"/>
      <path id="Trazado_118248" data-name="Trazado 118248" d="M271.17,163.5a10,10,0,0,1-1.35,2.94c-.89,1.57-2.05,2.56-2.15,2.43s.83-1.17,1.7-2.7A10.73,10.73,0,0,1,271.17,163.5Z" transform="translate(-157.37 -103.135)" fill="#eb996e"/>
      <path id="Trazado_118249" data-name="Trazado 118249" d="M262.08,167.48a17.831,17.831,0,0,1,2.2-3.73,18.4,18.4,0,0,1,2.62-3.43,18,18,0,0,1-2.19,3.73,18.111,18.111,0,0,1-2.63,3.43Z" transform="translate(-157.37 -103.135)" fill="#eb996e"/>
      <path id="Trazado_118250" data-name="Trazado 118250" d="M271.18,172.17c-.1-.11.25-.61.62-1.25s.66-1.18.8-1.14.07.71-.35,1.41S271.28,172.27,271.18,172.17Z" transform="translate(-157.37 -103.135)" fill="#eb996e"/>
      <path id="Trazado_118251" data-name="Trazado 118251" d="M228.7,199.74l-22.35,23.53c-8.16-7.79-15.59-20.21-19.4-30.58a21.7,21.7,0,0,1-.74-11.73c.95-3.44,2-4.43,4.38-6.44,0,0,7.21-5.76,17.23,3.14C213.91,183.06,228.7,199.74,228.7,199.74Z" transform="translate(-157.37 -103.135)" fill="#f5ca56"/>
      <path id="Trazado_118252" data-name="Trazado 118252" d="M228.7,199.74a1.82,1.82,0,0,1-.26-.25l-.71-.76-2.73-3c-2.37-2.57-5.78-6.3-10.1-10.82-2.17-2.24-4.54-4.71-7.26-7.16a23.631,23.631,0,0,0-4.63-3.2,13.94,13.94,0,0,0-5.66-1.62,10.72,10.72,0,0,0-6,1.34A11.19,11.19,0,0,0,187.1,179a15.09,15.09,0,0,0-.93,3.2,18.169,18.169,0,0,0-.22,3.39,22.39,22.39,0,0,0,1.17,6.85,92.327,92.327,0,0,0,8.68,17.27,73.759,73.759,0,0,0,10.67,13.36h-.31l16.25-17,4.59-4.75,1.23-1.25.44-.43a4.828,4.828,0,0,1-.38.43l-1.15,1.26-4.48,4.79c-3.91,4.17-9.48,10.09-16.18,17.2l-.15.16-.16-.15A73.708,73.708,0,0,1,195.41,210a91.84,91.84,0,0,1-8.75-17.36,22.7,22.7,0,0,1-1.2-7,19.379,19.379,0,0,1,.23-3.49,16.159,16.159,0,0,1,1-3.31A8.51,8.51,0,0,1,188.6,176c.39-.4.81-.77,1.22-1.12l.63-.54a8.064,8.064,0,0,1,.72-.47,11.23,11.23,0,0,1,6.24-1.38,14.66,14.66,0,0,1,5.84,1.69,24.38,24.38,0,0,1,4.71,3.28c2.72,2.49,5.08,5,7.23,7.24,4.29,4.55,7.67,8.32,10,10.93,1.14,1.3,2,2.31,2.65,3,.29.33.51.6.68.8a1.861,1.861,0,0,1,.18.31Z" transform="translate(-157.37 -103.135)" fill="#263238"/>
    </g>
  </g>
</svg>
