<svg id="analytics" xmlns="http://www.w3.org/2000/svg" width="52.731" height="52.731" viewBox="0 0 52.731 52.731">
  <g id="Grupo_55603" data-name="Grupo 55603" transform="translate(0)">
    <g id="Grupo_55602" data-name="Grupo 55602">
      <path id="Trazado_127395" data-name="Trazado 127395" d="M49.135,45.367a3.6,3.6,0,0,0,3.6-3.6V5.15A5.155,5.155,0,0,0,47.581,0H5.15A5.155,5.155,0,0,0,0,5.15V41.771a3.6,3.6,0,0,0,3.6,3.6H4.738v5.3H1.03a1.03,1.03,0,1,0,0,2.06H51.7a1.03,1.03,0,1,0,0-2.06H47.993v-5.3ZM2.06,5.15A3.093,3.093,0,0,1,5.15,2.06H47.581a3.093,3.093,0,0,1,3.09,3.09V7.415H2.163c-.035,0-.069,0-.1.005Zm9.269,45.522H6.8V41.4h4.532Zm11.535,0H18.332V30.015h4.532Zm11.535,0H29.867V38.724H34.4ZM46.963,26.417H40.372a1.03,1.03,0,0,0-1.03,1.03v5.2a1.03,1.03,0,1,0,2.06,0V28.477h4.532V50.671H41.4v-11.1a1.03,1.03,0,0,0-2.06,0v11.1H36.458V37.694a1.03,1.03,0,0,0-1.03-1.03H28.837a1.03,1.03,0,0,0-1.03,1.03V50.671H24.924V28.985a1.03,1.03,0,0,0-1.03-1.03H17.3a1.03,1.03,0,0,0-1.03,1.03V50.671H13.389v-10.3a1.03,1.03,0,0,0-1.03-1.03H5.767a1.03,1.03,0,0,0-1.03,1.03v2.935H3.6A1.538,1.538,0,0,1,2.06,41.771V9.47c.034,0,.068.005.1.005H50.671v32.3a1.538,1.538,0,0,1-1.536,1.536H47.993V27.447A1.03,1.03,0,0,0,46.963,26.417Z" fill="#7d6eb2"/>
    </g>
  </g>
  <g id="Grupo_55605" data-name="Grupo 55605" transform="translate(21.841 3.708)">
    <g id="Grupo_55604" data-name="Grupo 55604">
      <path id="Trazado_127396" data-name="Trazado 127396" d="M236.364,36H213.095a1.03,1.03,0,1,0,0,2.06h23.269a1.03,1.03,0,1,0,0-2.06Z" transform="translate(-212.065 -36)" fill="#7d6eb2"/>
    </g>
  </g>
  <g id="Grupo_55607" data-name="Grupo 55607" transform="translate(9.681 3.708)">
    <g id="Grupo_55606" data-name="Grupo 55606">
      <path id="Trazado_127397" data-name="Trazado 127397" d="M95.758,36.3a1.029,1.029,0,1,0,.3.728A1.038,1.038,0,0,0,95.758,36.3Z" transform="translate(-94 -36)" fill="#7d6eb2"/>
    </g>
  </g>
  <g id="Grupo_55609" data-name="Grupo 55609" transform="translate(5.561 3.708)">
    <g id="Grupo_55608" data-name="Grupo 55608">
      <path id="Trazado_127398" data-name="Trazado 127398" d="M55.758,36.3a1.029,1.029,0,1,0,.3.728A1.038,1.038,0,0,0,55.758,36.3Z" transform="translate(-54 -36)" fill="#7d6eb2"/>
    </g>
  </g>
  <g id="Grupo_55611" data-name="Grupo 55611" transform="translate(13.801 3.708)">
    <g id="Grupo_55610" data-name="Grupo 55610">
      <path id="Trazado_127399" data-name="Trazado 127399" d="M135.758,36.3a1.029,1.029,0,1,0,.3.728A1.036,1.036,0,0,0,135.758,36.3Z" transform="translate(-134 -36)" fill="#7d6eb2"/>
    </g>
  </g>
  <g id="Grupo_55613" data-name="Grupo 55613" transform="translate(39.342 35.289)">
    <g id="Grupo_55612" data-name="Grupo 55612">
      <path id="Trazado_127400" data-name="Trazado 127400" d="M383.758,342.942a1.029,1.029,0,1,0,.3.728A1.033,1.033,0,0,0,383.758,342.942Z" transform="translate(-382 -342.64)" fill="#7d6eb2"/>
    </g>
  </g>
  <g id="Grupo_55615" data-name="Grupo 55615" transform="translate(5.287 14)">
    <g id="Grupo_55614" data-name="Grupo 55614">
      <path id="Trazado_127401" data-name="Trazado 127401" d="M89.717,135.939a3.7,3.7,0,0,0-3,5.883l-6.841,6.841a3.7,3.7,0,0,0-3.419-.083l-7.143-7.143a3.708,3.708,0,1,0-6.4.159l-6.082,6.082a3.711,3.711,0,1,0,1.457,1.456l6.154-6.154a3.7,3.7,0,0,0,3.412-.087l7.073,7.073a3.708,3.708,0,1,0,6.4.153l7.024-7.024a3.707,3.707,0,1,0,1.36-7.156ZM55.044,152.571a1.648,1.648,0,1,1,1.648-1.648A1.65,1.65,0,0,1,55.044,152.571Zm11.024-11.277a1.648,1.648,0,1,1,1.648-1.648A1.65,1.65,0,0,1,66.067,141.294Zm12.019,12.262a1.648,1.648,0,1,1,1.648-1.648A1.65,1.65,0,0,1,78.086,153.556Zm11.63-12.262a1.648,1.648,0,1,1,1.648-1.648A1.65,1.65,0,0,1,89.717,141.294Z" transform="translate(-51.336 -135.939)" fill="#7d6eb2"/>
    </g>
  </g>
  <g id="Grupo_55617" data-name="Grupo 55617" transform="translate(13.518 12.979)">
    <g id="Grupo_55616" data-name="Grupo 55616">
      <path id="Trazado_127402" data-name="Trazado 127402" d="M133.018,126.322a1.029,1.029,0,1,0,.3.728A1.04,1.04,0,0,0,133.018,126.322Z" transform="translate(-131.26 -126.02)" fill="#7d6eb2"/>
    </g>
  </g>
  <g id="Grupo_55619" data-name="Grupo 55619" transform="translate(4.738 12.979)">
    <g id="Grupo_55618" data-name="Grupo 55618">
      <path id="Trazado_127403" data-name="Trazado 127403" d="M51.973,126.021H47.03a1.03,1.03,0,0,0,0,2.06h4.944a1.03,1.03,0,0,0,0-2.06Z" transform="translate(-46 -126.021)" fill="#7d6eb2"/>
    </g>
  </g>
  <g id="Grupo_55621" data-name="Grupo 55621" transform="translate(4.738 17.922)">
    <g id="Grupo_55620" data-name="Grupo 55620">
      <path id="Trazado_127404" data-name="Trazado 127404" d="M51.973,174.021H47.03a1.03,1.03,0,1,0,0,2.06h4.944a1.03,1.03,0,1,0,0-2.06Z" transform="translate(-46 -174.021)" fill="#7d6eb2"/>
    </g>
  </g>
</svg>
