<svg xmlns="http://www.w3.org/2000/svg" xmlns:xlink="http://www.w3.org/1999/xlink" width="123.833" height="123.833" viewBox="0 0 123.833 123.833">
  <defs>
    <radialGradient id="radial-gradient" cx="0.076" cy="0.019" r="1.465" gradientTransform="translate(0.001)" gradientUnits="objectBoundingBox">
      <stop offset="0" stop-color="#f6f6f7"/>
      <stop offset="0.477" stop-color="#f9f9fa"/>
      <stop offset="0.715" stop-color="#fff"/>
    </radialGradient>
  </defs>
  <g id="Grupo_46891" data-name="Grupo 46891" transform="translate(0 0)">
    <g id="Grupo_42274" data-name="Grupo 42274" transform="translate(0 0)">
      <g id="Grupo_18423" data-name="Grupo 18423" transform="translate(0 0)">
        <g id="Grupo_18421" data-name="Grupo 18421">
          <g id="Grupo_18420" data-name="Grupo 18420">
            <g id="Grupo_18419" data-name="Grupo 18419">
              <path id="Trazado_40936" data-name="Trazado 40936" d="M318.456,2207.635a61.916,61.916,0,1,1-61.915-61.915A61.915,61.915,0,0,1,318.456,2207.635Z" transform="translate(-194.623 -2145.721)" fill="#fff"/>
            </g>
          </g>
        </g>
        <path id="Trazado_40937" data-name="Trazado 40937" d="M317.728,2206.843a61.915,61.915,0,1,0-61.915,61.918A61.672,61.672,0,0,0,317.728,2206.843Z" transform="translate(-194.128 -2144.928)" fill="url(#radial-gradient)"/>
        <path id="Trazado_40938" data-name="Trazado 40938" d="M296.6,2200.4a47.26,47.26,0,1,0-47.26,47.26A47.084,47.084,0,0,0,296.6,2200.4Z" transform="translate(-187.439 -2138.278)" fill="none" stroke="#26aab7" stroke-miterlimit="10" stroke-width="4"/>
        <g id="Grupo_18422" data-name="Grupo 18422" transform="translate(10.969 34.762)">
          <path id="Trazado_40939" data-name="Trazado 40939" d="M307.148,2164.488a61.924,61.924,0,0,1-106.6,61.66,61.727,61.727,0,0,0,106.6-61.66Z" transform="translate(-200.545 -2164.488)" fill="#eceef0"/>
        </g>
        <g id="time-management_1_" data-name="time-management (1)" transform="translate(31.348 27.05)">
          <ellipse id="Elipse_4280" data-name="Elipse 4280" cx="17.824" cy="17.824" rx="17.824" ry="17.824" transform="translate(13.811 1.236)" fill="#7d6eb2"/>
          <ellipse id="Elipse_4281" data-name="Elipse 4281" cx="12.501" cy="12.501" rx="12.501" ry="12.501" transform="translate(19.134 6.559)" fill="#b1a8d1"/>
          <path id="Trazado_127315" data-name="Trazado 127315" d="M158.574,70.556a13.737,13.737,0,1,1,13.737-13.737A13.753,13.753,0,0,1,158.574,70.556Zm0-25a11.265,11.265,0,1,0,11.265,11.265A11.278,11.278,0,0,0,158.574,45.554Z" transform="translate(-126.939 -37.758)"/>
          <path id="Trazado_127316" data-name="Trazado 127316" d="M253.5,107.847l-4.814-2.722v-4.89a1.236,1.236,0,1,0-2.472,0v5.56c0,.005,0,.011,0,.016a1.235,1.235,0,0,0,.627,1.111L252.284,110a1.236,1.236,0,0,0,1.216-2.151Z" transform="translate(-215.788 -86.766)"/>
          <rect id="Rectángulo_30415" data-name="Rectángulo 30415" width="16.971" height="10.012" transform="translate(23.149 52.023)" fill="#cbc5e0"/>
          <path id="Trazado_127317" data-name="Trazado 127317" d="M284.056,453.966a1.24,1.24,0,0,1-.874-.362,1.188,1.188,0,0,1-.153-.188,1.255,1.255,0,0,1-.114-.213,1.307,1.307,0,0,1-.07-.231,1.24,1.24,0,0,1-.025-.242,1.218,1.218,0,0,1,.025-.241,1.248,1.248,0,0,1,.07-.231,1.222,1.222,0,0,1,.114-.214,1.2,1.2,0,0,1,.341-.341,1.211,1.211,0,0,1,.214-.114,1.251,1.251,0,0,1,.231-.071,1.225,1.225,0,0,1,.483,0,1.312,1.312,0,0,1,.231.071,1.249,1.249,0,0,1,.213.114,1.184,1.184,0,0,1,.188.153,1.236,1.236,0,0,1-.874,2.109Z" transform="translate(-247.87 -395.701)"/>
          <rect id="Rectángulo_30416" data-name="Rectángulo 30416" width="16.971" height="10.012" transform="translate(1.236 52.023)" fill="#4fc6e0"/>
          <path id="Trazado_127318" data-name="Trazado 127318" d="M105.876,453.966a1.212,1.212,0,0,1-.241-.024,1.243,1.243,0,0,1-.231-.07,1.219,1.219,0,0,1-.214-.114A1.263,1.263,0,0,1,105,453.6a1.243,1.243,0,0,1-.362-.874,1.217,1.217,0,0,1,.025-.241,1.249,1.249,0,0,1,.07-.231,1.221,1.221,0,0,1,.114-.214,1.2,1.2,0,0,1,.341-.341,1.219,1.219,0,0,1,.214-.114,1.243,1.243,0,0,1,.231-.07,1.222,1.222,0,0,1,.483,0,1.239,1.239,0,0,1,.444.184,1.184,1.184,0,0,1,.188.153,1.261,1.261,0,0,1,.154.188,1.22,1.22,0,0,1,.114.214,1.249,1.249,0,0,1,.07.231,1.215,1.215,0,0,1,.023.241,1.238,1.238,0,0,1-.362.874,1.23,1.23,0,0,1-.4.268,1.243,1.243,0,0,1-.231.07A1.225,1.225,0,0,1,105.876,453.966Z" transform="translate(-91.709 -395.701)"/>
          <rect id="Rectángulo_30417" data-name="Rectángulo 30417" width="16.971" height="10.012" transform="translate(45.064 52.023)" fill="#b89841"/>
          <path id="Trazado_127319" data-name="Trazado 127319" d="M461.387,453.966a1.224,1.224,0,0,1-.242-.024,1.248,1.248,0,0,1-.231-.07,1.219,1.219,0,0,1-.4-.268,1.252,1.252,0,0,1-.267-.4,1.306,1.306,0,0,1-.07-.231,1.24,1.24,0,0,1-.025-.242,1.218,1.218,0,0,1,.025-.241,1.246,1.246,0,0,1,.07-.231,1.216,1.216,0,0,1,.114-.214,1.255,1.255,0,0,1,.153-.188,1.239,1.239,0,0,1,.188-.153,1.308,1.308,0,0,1,.214-.114,1.249,1.249,0,0,1,.231-.07,1.224,1.224,0,0,1,.483,0,1.249,1.249,0,0,1,.231.07,1.308,1.308,0,0,1,.214.114,1.241,1.241,0,0,1,.188.153,1.259,1.259,0,0,1,.153.188,1.254,1.254,0,0,1,.209.686,1.235,1.235,0,0,1-.025.242,1.3,1.3,0,0,1-.07.231,1.249,1.249,0,0,1-.114.213,1.263,1.263,0,0,1-.153.188,1.219,1.219,0,0,1-.4.268,1.249,1.249,0,0,1-.231.07A1.221,1.221,0,0,1,461.387,453.966Z" transform="translate(-403.287 -395.701)"/>
          <path id="Trazado_127320" data-name="Trazado 127320" d="M466.6,352.086a1.218,1.218,0,0,1-.241-.025,1.163,1.163,0,0,1-.231-.07,1.219,1.219,0,0,1-.214-.114,1.2,1.2,0,0,1-.341-.341,1.221,1.221,0,0,1-.114-.214,1.249,1.249,0,0,1-.07-.231,1.188,1.188,0,0,1,0-.482,1.246,1.246,0,0,1,.07-.231,1.225,1.225,0,0,1,.114-.214,1.2,1.2,0,0,1,.341-.341,1.225,1.225,0,0,1,.214-.114,1.165,1.165,0,0,1,.231-.07,1.216,1.216,0,0,1,.482,0,1.2,1.2,0,0,1,.232.07,1.259,1.259,0,0,1,.213.114,1.178,1.178,0,0,1,.188.153,1.267,1.267,0,0,1,.154.188,1.214,1.214,0,0,1,.114.214,1.246,1.246,0,0,1,.07.231,1.247,1.247,0,0,1,0,.482,1.249,1.249,0,0,1-.07.231,1.217,1.217,0,0,1-.114.214,1.259,1.259,0,0,1-.154.188,1.176,1.176,0,0,1-.188.153,1.252,1.252,0,0,1-.213.114,1.2,1.2,0,0,1-.232.07A1.218,1.218,0,0,1,466.6,352.086Z" transform="translate(-407.853 -306.411)"/>
          <path id="Trazado_127321" data-name="Trazado 127321" d="M27.876,352.086a1.219,1.219,0,0,1-.241-.025,1.2,1.2,0,0,1-.232-.07,1.252,1.252,0,0,1-.213-.114,1.18,1.18,0,0,1-.188-.153,1.256,1.256,0,0,1-.154-.188,1.307,1.307,0,0,1-.114-.214,1.249,1.249,0,0,1-.07-.231,1.248,1.248,0,0,1,0-.482,1.246,1.246,0,0,1,.07-.231,1.31,1.31,0,0,1,.114-.214,1.264,1.264,0,0,1,.154-.188,1.181,1.181,0,0,1,.188-.153,1.259,1.259,0,0,1,.213-.114,1.2,1.2,0,0,1,.232-.07,1.217,1.217,0,0,1,.482,0,1.165,1.165,0,0,1,.231.07,1.225,1.225,0,0,1,.214.114,1.2,1.2,0,0,1,.341.341,1.215,1.215,0,0,1,.114.214,1.237,1.237,0,0,1,.07.231,1.187,1.187,0,0,1,0,.482,1.249,1.249,0,0,1-.07.231,1.21,1.21,0,0,1-.114.214,1.2,1.2,0,0,1-.341.341,1.218,1.218,0,0,1-.214.114,1.164,1.164,0,0,1-.231.07A1.218,1.218,0,0,1,27.876,352.086Z" transform="translate(-23.348 -306.411)"/>
          <path id="Trazado_127322" data-name="Trazado 127322" d="M95.311,50.787h-7.25V45.675h21.382a1.236,1.236,0,0,0,0-2.472H88.061V38.08a19.061,19.061,0,1,0-2.472,0V43.2H64.208a1.236,1.236,0,0,0,0,2.472H85.59v5.113H78.34A1.236,1.236,0,0,0,77.1,52.023V62.035a1.236,1.236,0,0,0,1.236,1.236H95.311a1.236,1.236,0,0,0,1.236-1.236V52.023A1.236,1.236,0,0,0,95.311,50.787ZM70.236,19.061A16.589,16.589,0,1,1,86.825,35.65,16.608,16.608,0,0,1,70.236,19.061ZM94.075,60.8h-14.5V58.265h7.31a1.236,1.236,0,1,0,0-2.472h-7.31V53.259h14.5V60.8Z" transform="translate(-55.19)"/>
          <path id="Trazado_127323" data-name="Trazado 127323" d="M18.207,410.984H1.236A1.236,1.236,0,0,0,0,412.22v10.012a1.236,1.236,0,0,0,1.236,1.236H18.207a1.236,1.236,0,0,0,1.236-1.236V412.22A1.236,1.236,0,0,0,18.207,410.984ZM16.971,421H2.472v-2.534H9.677a1.236,1.236,0,0,0,0-2.472H2.472v-2.534h14.5V421Z" transform="translate(0 -360.197)"/>
          <path id="Trazado_127324" data-name="Trazado 127324" d="M372.874,410.984H355.9a1.236,1.236,0,0,0-1.236,1.236v10.012a1.236,1.236,0,0,0,1.236,1.236h16.971a1.236,1.236,0,0,0,1.236-1.236V412.22A1.236,1.236,0,0,0,372.874,410.984ZM371.638,421h-14.5v-2.534h7.31a1.236,1.236,0,1,0,0-2.472h-7.31v-2.534h14.5Z" transform="translate(-310.839 -360.197)"/>
        </g>
      </g>
    </g>
  </g>
</svg>
