<svg xmlns="http://www.w3.org/2000/svg" width="350" height="320" viewBox="0 0 350 320">
  <g id="Segment-rafiki" transform="translate(-52.59 -69.8)">
    <g id="freepik--background-simple--inject-127" transform="translate(52.59 69.8)">
      <path id="Trazado_128588" data-name="Trazado 128588" d="M202.992,124.111c-51.351,35.778-172.8,25.814-146.8,124.231C78,330.748,205.908,325.247,265.184,298.485c60.644-27.388,141.485-73.1,109.267-155.868C361.1,108.324,310.559,69.666,273.234,69.8,227.134,69.979,235.425,101.473,202.992,124.111Z" transform="translate(-52.59 -69.8)" fill="rgba(142,200,200,0.12)"/>
      <path id="Trazado_128589" data-name="Trazado 128589" d="M202.992,124.111c-51.351,35.778-172.8,25.814-146.8,124.231C78,330.748,205.908,325.247,265.184,298.485c60.644-27.388,141.485-73.1,109.267-155.868C361.1,108.324,310.559,69.666,273.234,69.8,227.134,69.979,235.425,101.473,202.992,124.111Z" transform="translate(-52.59 -69.8)" fill="rgba(142,200,200,0.12)" opacity="0.9"/>
    </g>
    <g id="freepik--Shadow--inject-127" transform="translate(55.738 369.549)">
      <ellipse id="Elipse_4316" data-name="Elipse 4316" cx="173.426" cy="10.125" rx="173.426" ry="10.125" fill="#f5f5f5"/>
    </g>
    <g id="freepik--Character--inject-127" transform="translate(79.048 105.238)">
      <path id="Trazado_128590" data-name="Trazado 128590" d="M322.717,187.79c-.456,1.351-.894,2.513-1.377,3.739s-.984,2.406-1.5,3.578c-1.047,2.388-2.209,4.723-3.47,7.03a67.164,67.164,0,0,1-4.24,6.78,40.028,40.028,0,0,1-5.546,6.333c-.555.492-1.118.984-1.744,1.44-.331.242-.572.447-.975.707s-.787.492-1.207.716a11.628,11.628,0,0,1-5.626,1.351,13.211,13.211,0,0,1-5.2-1.181,19.571,19.571,0,0,1-3.962-2.415,31.824,31.824,0,0,1-5.742-6.011c-.814-1.055-1.538-2.174-2.236-3.292a37.98,37.98,0,0,1-1.941-3.488l4.159-2.585c.716.832,1.538,1.789,2.343,2.612s1.655,1.673,2.5,2.469a30.465,30.465,0,0,0,5.25,4.043,8.133,8.133,0,0,0,4.66,1.377,3.578,3.578,0,0,0,1.5-.59l.376-.286c.107-.08.331-.3.5-.429.358-.3.716-.662,1.064-1.02a48.062,48.062,0,0,0,7.388-11.154c1.082-2.084,2.066-4.24,3.032-6.413.474-1.082.939-2.182,1.377-3.283s.894-2.245,1.27-3.247Z" transform="translate(-102.834 -117.352)" fill="#e4897b"/>
      <path id="Trazado_128591" data-name="Trazado 128591" d="M328.18,183.943c1.4,6.073-11.923,21.6-11.923,21.6l-11.977-8.712a79.489,79.489,0,0,1,9.5-14.115C319.235,176.484,326.641,177.28,328.18,183.943Z" transform="translate(-105.613 -116.707)" fill="#9f8bc4"/>
      <path id="Trazado_128592" data-name="Trazado 128592" d="M328.18,183.943c1.4,6.073-11.923,21.6-11.923,21.6l-11.977-8.712a79.489,79.489,0,0,1,9.5-14.115C319.235,176.484,326.641,177.28,328.18,183.943Z" transform="translate(-105.613 -116.707)" fill="#fff" opacity="0.7"/>
      <path id="Trazado_128593" data-name="Trazado 128593" d="M358.341,182.985a146.476,146.476,0,0,0-5.51,21.127c-.939,5-1.619,9.785-2.129,14.132-1.2,10.188-1.476,18-1.95,20.617l-34.544-4.651c-2.343-37.3,7.907-55.778,7.907-55.778a68.071,68.071,0,0,1,8.372-.492c.59,0,1.19,0,1.789.045a128.5,128.5,0,0,1,14.687,1.977c.894.17,1.852.367,2.755.572A86.593,86.593,0,0,1,358.341,182.985Z" transform="translate(-106.624 -116.652)" fill="#9f8bc4"/>
      <path id="Trazado_128594" data-name="Trazado 128594" d="M358.341,182.985a146.476,146.476,0,0,0-5.51,21.127c-.939,5-1.619,9.785-2.129,14.132-1.2,10.188-1.476,18-1.95,20.617l-34.544-4.651c-2.343-37.3,7.907-55.778,7.907-55.778a68.071,68.071,0,0,1,8.372-.492c.59,0,1.19,0,1.789.045a128.5,128.5,0,0,1,14.687,1.977c.894.17,1.852.367,2.755.572A86.593,86.593,0,0,1,358.341,182.985Z" transform="translate(-106.624 -116.652)" fill="#f5ca56" opacity="0.7"/>
      <path id="Trazado_128595" data-name="Trazado 128595" d="M356.628,207.2c-.939,5-1.619,9.785-2.129,14.132l-4.669-10.787Z" transform="translate(-110.42 -119.74)" fill="#9f8bc4"/>
      <path id="Trazado_128596" data-name="Trazado 128596" d="M356.628,207.2c-.939,5-1.619,9.785-2.129,14.132l-4.669-10.787Z" transform="translate(-110.42 -119.74)" fill="#fff" opacity="0.5"/>
      <path id="Trazado_128597" data-name="Trazado 128597" d="M294.274,401.3l-6.154-2.138,3.3-14.83,6.154,2.138Z" transform="translate(-103.907 -138.436)" fill="#e4897b"/>
      <path id="Trazado_128598" data-name="Trazado 128598" d="M359.832,405.428h-6.512l-5.081-15.1h6.521Z" transform="translate(-110.253 -139.069)" fill="#e4897b"/>
      <path id="Trazado_128599" data-name="Trazado 128599" d="M291.608,384.34l-1.708,7.639,6.163,2.138,1.7-7.648Z" transform="translate(-104.095 -138.437)" fill="#ce6f64"/>
      <path id="Trazado_128600" data-name="Trazado 128600" d="M354.761,390.34H348.24l2.621,7.782h6.521Z" transform="translate(-110.253 -139.07)" fill="#ce6f64"/>
      <path id="Trazado_128601" data-name="Trazado 128601" d="M287.87,374.612l10.438,3.578s10.206-40.25,13.417-60.313a210.974,210.974,0,0,1,5.778-23.56c3.31-11.36,7.343-23.614,10.617-33.2,3.462-10.1,6.055-17.236,6.055-17.236l-22.71-3.059s-17.3,53.041-19.249,72.835C290.178,334.264,287.87,374.612,287.87,374.612Z" transform="translate(-103.881 -123.289)" fill="#9f8bc4"/>
      <path id="Trazado_128602" data-name="Trazado 128602" d="M287.87,374.612l10.438,3.578s10.206-40.25,13.417-60.313a210.974,210.974,0,0,1,5.778-23.56c3.31-11.36,7.343-23.614,10.617-33.2,3.462-10.1,6.055-17.236,6.055-17.236l-22.71-3.059s-17.3,53.041-19.249,72.835C290.178,334.264,287.87,374.612,287.87,374.612Z" transform="translate(-103.881 -123.289)" opacity="0.6"/>
      <path id="Trazado_128603" data-name="Trazado 128603" d="M321,296.123c3.31-11.36,7.343-23.614,10.617-33.2l-2.03-5.25C323.492,264.03,320.62,284.745,321,296.123Z" transform="translate(-107.374 -125.067)" opacity="0.4"/>
      <path id="Trazado_128604" data-name="Trazado 128604" d="M327.893,242.7s-1.118,55.832.411,74.866c1.682,20.841,17.3,63.506,17.3,63.506h11.941s-7.97-39.007-10.411-59.249c-2.782-23.059,3.05-76.082,3.05-76.082Z" transform="translate(-108.064 -123.487)" fill="#9f8bc4"/>
      <path id="Trazado_128605" data-name="Trazado 128605" d="M327.893,242.7s-1.118,55.832.411,74.866c1.682,20.841,17.3,63.506,17.3,63.506h11.941s-7.97-39.007-10.411-59.249c-2.782-23.059,3.05-76.082,3.05-76.082Z" transform="translate(-108.064 -123.487)" opacity="0.6"/>
      <path id="Trazado_128606" data-name="Trazado 128606" d="M351.517,406.36h7.952a.573.573,0,0,1,.555.447l1.288,5.8a.957.957,0,0,1-.957,1.154c-2.558-.045-4.419-.188-7.639-.188-1.986,0-7.961.206-10.689.206s-3.095-2.683-1.977-2.952c5.018-1.1,8.8-2.612,10.411-4.061a1.6,1.6,0,0,1,1.055-.4Z" transform="translate(-109.326 -140.761)" fill="#263238"/>
      <path id="Trazado_128607" data-name="Trazado 128607" d="M286.472,400.032l6.726,2.326a.581.581,0,0,1,.385.608l-.68,5.894a.948.948,0,0,1-1.27.787c-2.406-.894-5.868-2.236-8.945-3.292-3.578-1.234-6.708-2.1-10.894-3.578-2.522-.894-2.343-3.676-1.2-3.578,5.179.617,9.15,1.86,14.2.733a3.113,3.113,0,0,1,1.673.1Z" transform="translate(-101.973 -140.005)" fill="#263238"/>
      <path id="Trazado_128608" data-name="Trazado 128608" d="M281.885,204.465l2.63-6.619-8.318-.286a6.261,6.261,0,0,0,1.61,7.254Z" transform="translate(-102.592 -118.723)" fill="#e4897b"/>
      <path id="Trazado_128609" data-name="Trazado 128609" d="M285.482,192.9l-6.521,1.261-2.7,2.907,8.318.286Z" transform="translate(-102.655 -118.231)" fill="#e4897b"/>
      <path id="Trazado_128610" data-name="Trazado 128610" d="M332.013,206.5a5.224,5.224,0,0,1-3.578-1.44,7.156,7.156,0,0,1-2.048-5.635c.188-4.2,3.265-7.952,6.843-8.345a5.268,5.268,0,0,1,4.24,1.4,7.156,7.156,0,0,1,2.048,5.635c-.188,4.213-3.265,7.961-6.843,8.354A5,5,0,0,1,332.013,206.5Zm1.789-14.562h-.519c-3.157.349-5.877,3.721-6.055,7.5a6.261,6.261,0,0,0,1.789,4.937,4.374,4.374,0,0,0,3.533,1.172c3.157-.358,5.877-3.721,6.055-7.5a6.324,6.324,0,0,0-1.789-4.946,4.365,4.365,0,0,0-3.005-1.2Z" transform="translate(-107.943 -118.034)" fill="#fafafa"/>
      <path id="Trazado_128611" data-name="Trazado 128611" d="M349.835,161.49c-1.556,4.606-3.649,13.14-.769,16.735a14.8,14.8,0,0,1-11.932,2.979c-4.052-.635-3.873-3.506-2.755-4.955,5.438-.546,5.832-4.472,5.367-8.274Z" transform="translate(-108.717 -114.916)" fill="#e4897b"/>
      <path id="Trazado_128612" data-name="Trazado 128612" d="M346.458,164.45l-5.948,3.837a15.737,15.737,0,0,1,.1,2.683c2.057,0,5.116-1.86,5.617-3.936A7.049,7.049,0,0,0,346.458,164.45Z" transform="translate(-109.437 -115.228)" fill="#ce6f64"/>
      <path id="Trazado_128613" data-name="Trazado 128613" d="M337.754,140.849c-5.045-.411-6.8,11.744-3.649,14.079S347.208,141.618,337.754,140.849Z" transform="translate(-108.594 -112.736)" fill="#263238"/>
      <path id="Trazado_128614" data-name="Trazado 128614" d="M351.18,152.381c-1.252,6.342-1.664,10.125-5.367,12.97-5.528,4.284-13.032.3-13.694-6.261-.6-5.939,1.556-15.313,8.157-16.995a8.819,8.819,0,0,1,10.9,10.286Z" transform="translate(-108.541 -112.838)" fill="#e4897b"/>
      <path id="Trazado_128615" data-name="Trazado 128615" d="M351.627,158.8c-3.131,1.95-6.136-15.376,2.54-14.973C364.8,144.33,358.273,154.715,351.627,158.8Z" transform="translate(-110.277 -113.051)" fill="#263238"/>
      <path id="Trazado_128616" data-name="Trazado 128616" d="M351.764,146c-4.168-2.317-10.394.59-14.66-1.44s-11.583-.25-8.148-6.467c1.038,1.789,5.492,1.9,7.809-.644s5.367-3.274,7.156-.492,6.753-2.782,10.984.8C358.57,140.824,358.052,149.5,351.764,146Z" transform="translate(-108.123 -112.139)" fill="#263238"/>
      <path id="Trazado_128617" data-name="Trazado 128617" d="M358.39,145.394s3.775-.125,4.472-2.084C362.907,145.242,361.968,146.512,358.39,145.394Z" transform="translate(-111.324 -112.997)" fill="#263238"/>
      <path id="Trazado_128618" data-name="Trazado 128618" d="M354.849,161.454a6.181,6.181,0,0,1-4.159,2.182c-2.147.17-2.818-1.843-1.878-3.658.841-1.637,2.979-3.694,4.964-3.023a2.755,2.755,0,0,1,1.073,4.5Z" transform="translate(-110.269 -114.423)" fill="#e4897b"/>
      <path id="Trazado_128619" data-name="Trazado 128619" d="M345.945,397.112h14.061v-4.2l-15.716-.268Z" transform="translate(-109.836 -139.313)" fill="#9f8bc4"/>
      <path id="Trazado_128620" data-name="Trazado 128620" d="M286.319,389.6l12.424,4.3,1.386-4.007L286.31,384.87Z" transform="translate(-103.716 -138.493)" fill="#9f8bc4"/>
      <ellipse id="Elipse_4317" data-name="Elipse 4317" cx="0.948" cy="0.626" rx="0.948" ry="0.626" transform="translate(231.309 40.786) rotate(-82.33)" fill="#263238"/>
      <path id="Trazado_128621" data-name="Trazado 128621" d="M335.593,153.159c-.072.519-.4.894-.742.894s-.564-.5-.492-1.029.4-.894.742-.894S335.664,152.64,335.593,153.159Z" transform="translate(-108.786 -113.928)" fill="#263238"/>
      <path id="Trazado_128622" data-name="Trazado 128622" d="M337.426,153.85a18.784,18.784,0,0,1-3.086,4.123,3.014,3.014,0,0,0,2.424.8Z" transform="translate(-108.785 -114.109)" fill="#de5753"/>
      <path id="Trazado_128623" data-name="Trazado 128623" d="M339.2,161.056a4.6,4.6,0,0,1-.689-.045.154.154,0,1,1,.045-.3,4.168,4.168,0,0,0,3.578-1.163.161.161,0,0,1,.224,0,.152.152,0,0,1,0,.215,4.391,4.391,0,0,1-3.157,1.3Z" transform="translate(-109.212 -114.706)" fill="#263238"/>
      <path id="Trazado_128624" data-name="Trazado 128624" d="M344.357,152.066a.3.3,0,0,1-.268-.152,2.469,2.469,0,0,0-1.789-1.288.313.313,0,1,1,.045-.617,3.1,3.1,0,0,1,2.317,1.6.3.3,0,0,1-.116.42.3.3,0,0,1-.188.036Z" transform="translate(-109.59 -113.703)" fill="#263238"/>
      <path id="Trazado_128625" data-name="Trazado 128625" d="M333.174,150.41a.367.367,0,0,1-.17,0,.313.313,0,0,1-.089-.429,3.086,3.086,0,0,1,2.433-1.431.313.313,0,0,1,.3.313.3.3,0,0,1-.3.3h0a2.442,2.442,0,0,0-1.905,1.154A.313.313,0,0,1,333.174,150.41Z" transform="translate(-108.63 -113.55)" fill="#263238"/>
      <path id="Trazado_128626" data-name="Trazado 128626" d="M350.353,407.445a1.968,1.968,0,0,1-1.261-.34.894.894,0,0,1-.313-.814.492.492,0,0,1,.259-.438c.725-.358,2.827.894,3.059,1.073a.161.161,0,0,1,.072.152.143.143,0,0,1-.116.125A7.159,7.159,0,0,1,350.353,407.445Zm-.975-1.351a.43.43,0,0,0-.2,0c-.045,0-.089.063-.1.179a.635.635,0,0,0,.206.564,3.175,3.175,0,0,0,2.317.116,6.261,6.261,0,0,0-2.227-.859Z" transform="translate(-110.309 -140.7)" fill="#9f8bc4"/>
      <path id="Trazado_128627" data-name="Trazado 128627" d="M352.173,407.034H352.1c-.671-.367-1.977-1.789-1.843-2.522a.5.5,0,0,1,.492-.4.823.823,0,0,1,.662.2c.751.617.895,2.5.895,2.576a.143.143,0,0,1-.063.143.171.171,0,0,1-.072.009Zm-1.315-2.683h-.072c-.2,0-.215.116-.224.152-.081.429.751,1.512,1.422,2.021a3.757,3.757,0,0,0-.769-2.039.536.536,0,0,0-.358-.1Z" transform="translate(-110.465 -140.522)" fill="#9f8bc4"/>
      <path id="Trazado_128628" data-name="Trazado 128628" d="M287.031,400.559h0c-1.055-.152-2.907-.519-3.372-1.351a.9.9,0,0,1,0-.805.483.483,0,0,1,.367-.3c.894-.17,2.934,1.959,3.166,2.2a.152.152,0,0,1,0,.17A.161.161,0,0,1,287.031,400.559Zm-2.943-2.156h-.063a.215.215,0,0,0-.143.125.555.555,0,0,0,0,.528c.259.474,1.252.894,2.683,1.127C285.743,399.378,284.607,398.4,284.088,398.4Z" transform="translate(-103.426 -139.888)" fill="#9f8bc4"/>
      <path id="Trazado_128629" data-name="Trazado 128629" d="M287.267,400.451a.152.152,0,0,1-.107-.045c-.626-.59-1.637-2.433-1.288-3.086.081-.161.268-.322.689-.224a1.118,1.118,0,0,1,.716.528,4.4,4.4,0,0,1,.134,2.683.152.152,0,0,1-.1.107Zm-.939-3.077a.188.188,0,0,0-.188.089c-.206.394.429,1.789,1.029,2.5a3.631,3.631,0,0,0-.152-2.182.823.823,0,0,0-.528-.385Z" transform="translate(-103.662 -139.78)" fill="#9f8bc4"/>
      <path id="Trazado_128630" data-name="Trazado 128630" d="M363.18,191.965c-.116,1.324-.25,2.5-.429,3.712s-.367,2.415-.572,3.578c-.429,2.406-.939,4.794-1.556,7.156s-1.351,4.741-2.2,7.1l-.662,1.789-.751,1.789c-.233.581-.528,1.163-.814,1.789l-.42.894-.107.224-.188.349a7.942,7.942,0,0,1-.447.733,13.416,13.416,0,0,1-3.685,3.488,29.975,29.975,0,0,1-3.578,2,55.965,55.965,0,0,1-6.977,2.737,92.829,92.829,0,0,1-14.088,3.318L325.47,227.9c4.24-1.7,8.533-3.524,12.594-5.456a63.045,63.045,0,0,0,5.787-3.1,21.467,21.467,0,0,0,2.415-1.691,5.367,5.367,0,0,0,1.306-1.4h0l.072-.188.286-.733c.2-.492.394-.975.555-1.494L349,212.3l.474-1.556c.6-2.093,1.145-4.231,1.61-6.413s.894-4.383,1.252-6.592.7-4.472.975-6.583Z" transform="translate(-107.849 -118.047)" fill="#e4897b"/>
      <path id="Trazado_128631" data-name="Trazado 128631" d="M366.915,187.249c3.649,5.054-.564,20.635-.564,20.635l-17.1.546a120.749,120.749,0,0,1,3.918-17.889C355.887,182.186,362.443,181.122,366.915,187.249Z" transform="translate(-110.359 -117.222)" fill="#9f8bc4"/>
      <path id="Trazado_128632" data-name="Trazado 128632" d="M366.915,187.249c3.649,5.054-.564,20.635-.564,20.635l-17.1.546a120.749,120.749,0,0,1,3.918-17.889C355.887,182.186,362.443,181.122,366.915,187.249Z" transform="translate(-110.359 -117.222)" fill="#f5ca56" opacity="0.7"/>
      <path id="Trazado_128633" data-name="Trazado 128633" d="M212.9,120.509a96.655,96.655,0,0,0-38.327-7.979c-46.512,0-83.3,33.828-88.363,78.22l5.769-2.782,87.656,18.479Z" transform="translate(-82.596 -109.748)" fill="#9f8bc4"/>
      <path id="Trazado_128634" data-name="Trazado 128634" d="M212.9,120.509a96.655,96.655,0,0,0-38.327-7.979c-46.512,0-83.3,33.828-88.363,78.22l5.769-2.782,87.656,18.479Z" transform="translate(-82.596 -109.748)" fill="#fff" opacity="0.4"/>
      <path id="Trazado_128635" data-name="Trazado 128635" d="M219.338,117.4a96.6,96.6,0,0,0-38.345-7.979c-46.512,0-83.3,33.828-88.363,78.22l93.453,15.7Z" transform="translate(-83.274 -109.42)" fill="#9f8bc4"/>
      <path id="Trazado_128636" data-name="Trazado 128636" d="M219.338,117.4a96.6,96.6,0,0,0-38.345-7.979c-46.512,0-83.3,33.828-88.363,78.22l93.453,15.7Z" transform="translate(-83.274 -109.42)" fill="#fff" opacity="0.6"/>
      <path id="Trazado_128637" data-name="Trazado 128637" d="M244.074,113.8,210.8,199.737l82.656,49.195,5.769-2.782s6.386-29.848,5.492-46.449c-2.013-37.03-54.893-88.721-54.893-88.721Z" transform="translate(-95.746 -109.585)" fill="#9f8bc4"/>
      <path id="Trazado_128638" data-name="Trazado 128638" d="M244.074,113.8,210.8,199.737l82.656,49.195,5.769-2.782s6.386-29.848,5.492-46.449c-2.013-37.03-54.893-88.721-54.893-88.721Z" transform="translate(-95.746 -109.585)" fill="#fff" opacity="0.1"/>
      <path id="Trazado_128639" data-name="Trazado 128639" d="M250.5,111,217.24,196.957l82.665,49.195a89.964,89.964,0,0,0,11.252-49.195C309.083,158.576,284.27,125.589,250.5,111Z" transform="translate(-96.426 -109.587)" fill="#9f8bc4"/>
      <path id="Trazado_128640" data-name="Trazado 128640" d="M250.5,111,217.24,196.957l82.665,49.195a89.964,89.964,0,0,0,11.252-49.195C309.083,158.576,284.27,125.589,250.5,111Z" transform="translate(-96.426 -109.587)" fill="#fff" opacity="0.2"/>
      <path id="Trazado_128641" data-name="Trazado 128641" d="M298.517,239.748a.2.2,0,0,1-.116,0l-73.873-44a.224.224,0,0,1-.089-.277l29.517-76.351a.224.224,0,0,1,.313-.125,96.6,96.6,0,0,1,36.914,32.746,93.023,93.023,0,0,1,15.572,46.386,85.868,85.868,0,0,1-8.05,41.521.224.224,0,0,1-.143.125ZM224.939,195.41l73.5,43.775a85.386,85.386,0,0,0,7.9-41.091c-1.789-33.184-21.726-63.3-52.021-78.64Z" transform="translate(-97.184 -110.428)" fill="#fafafa" opacity="0.4"/>
      <path id="Trazado_128642" data-name="Trazado 128642" d="M183.347,198.148h0L99.331,184.043a.241.241,0,0,1-.143-.089.233.233,0,0,1,0-.17,82.54,82.54,0,0,1,28.256-49.329A84.7,84.7,0,0,1,181.71,115.17a90.929,90.929,0,0,1,31.511,5.635.179.179,0,0,1,.126.117.241.241,0,0,1,0,.179L183.58,198.023A.224.224,0,0,1,183.347,198.148ZM99.635,183.64,183.2,197.674l29.615-76.529a90.536,90.536,0,0,0-31.145-5.528C140.4,115.617,106.684,143.578,99.635,183.64Z" transform="translate(-83.965 -110.027)" fill="#fafafa" opacity="0.4"/>
      <path id="Trazado_128643" data-name="Trazado 128643" d="M179.562,215.349,91.905,196.87l-5.8,2.8a93.24,93.24,0,0,0-.456,15.7c2.809,51.878,47.138,93.918,99.007,93.918,33.81,0,62.478-17.889,77.558-44.723Z" transform="translate(-82.523 -118.65)" fill="#9f8bc4"/>
      <path id="Trazado_128644" data-name="Trazado 128644" d="M179.562,215.349,91.905,196.87l-5.8,2.8a93.24,93.24,0,0,0-.456,15.7c2.809,51.878,47.138,93.918,99.007,93.918,33.81,0,62.478-17.889,77.558-44.723Z" transform="translate(-82.523 -118.65)" opacity="0.2"/>
      <path id="Trazado_128645" data-name="Trazado 128645" d="M186.012,212.568l-93.453-15.7a94.178,94.178,0,0,0-.465,15.7c2.818,51.878,47.138,93.918,99.007,93.918,33.819,0,62.487-17.889,77.567-44.723Z" transform="translate(-83.203 -118.65)" fill="#9f8bc4"/>
      <path id="Trazado_128646" data-name="Trazado 128646" d="M186.012,212.568l-93.453-15.7a94.178,94.178,0,0,0-.465,15.7c2.818,51.878,47.138,93.918,99.007,93.918,33.819,0,62.487-17.889,77.567-44.723Z" transform="translate(-83.203 -118.65)" opacity="0.1"/>
      <path id="Trazado_128647" data-name="Trazado 128647" d="M191.7,302.054c-49.1,0-91.234-39.955-93.918-89.052a89.562,89.562,0,0,1,0-9.168.188.188,0,0,1,.08-.161.206.206,0,0,1,.179-.054l86.7,14.562h.072l77.156,45.957a.224.224,0,0,1,.107.143.242.242,0,0,1,0,.17A81.843,81.843,0,0,1,232.088,292.1a85.813,85.813,0,0,1-40.385,9.955ZM98.242,204.1c-.134,2.952-.125,5.93,0,8.873,2.683,48.864,44.562,88.631,93.426,88.631,29.025,0,54.481-13.551,69.866-37.173L184.611,218.62Z" transform="translate(-83.806 -119.362)" fill="#fafafa" opacity="0.4"/>
      <path id="Trazado_128648" data-name="Trazado 128648" d="M83.5,229.382a100.321,100.321,0,0,1-1.333-11.628l.894-.054a98.04,98.04,0,0,0,1.315,11.556Z" transform="translate(-82.17 -120.849)" fill="#9f8bc4"/>
      <path id="Trazado_128649" data-name="Trazado 128649" d="M83.5,229.382a100.321,100.321,0,0,1-1.333-11.628l.894-.054a98.04,98.04,0,0,0,1.315,11.556Z" transform="translate(-82.17 -120.849)" opacity="0.2"/>
      <path id="Trazado_128650" data-name="Trazado 128650" d="M85.841,240.327c-.5-1.789-.957-3.685-1.351-5.519l.894-.188c.394,1.789.841,3.658,1.333,5.474Z" transform="translate(-82.415 -122.634)" fill="#9f8bc4"/>
      <path id="Trazado_128651" data-name="Trazado 128651" d="M85.841,240.327c-.5-1.789-.957-3.685-1.351-5.519l.894-.188c.394,1.789.841,3.658,1.333,5.474Z" transform="translate(-82.415 -122.634)" opacity="0.2"/>
      <path id="Trazado_128652" data-name="Trazado 128652" d="M326.666,231.927l-6.386-1.717,1.386,8.2s5.76.259,6.261-2.782Z" transform="translate(-107.302 -122.169)" fill="#e4897b"/>
      <path id="Trazado_128653" data-name="Trazado 128653" d="M314.66,232.294l1.467,6.735,4.946-.617-1.386-8.2Z" transform="translate(-106.708 -122.169)" fill="#e4897b"/>
    </g>
  </g>
</svg>
