<svg xmlns="http://www.w3.org/2000/svg" xmlns:xlink="http://www.w3.org/1999/xlink" width="123.833" height="124.107" viewBox="0 0 123.833 124.107">
  <defs>
    <radialGradient id="radial-gradient" cx="0.076" cy="0.019" r="1.465" gradientTransform="translate(0.001)" gradientUnits="objectBoundingBox">
      <stop offset="0" stop-color="#f6f6f7"/>
      <stop offset="0.477" stop-color="#f9f9fa"/>
      <stop offset="0.715" stop-color="#fff"/>
    </radialGradient>
  </defs>
  <g id="Grupo_55804" data-name="Grupo 55804" transform="translate(5659.348 9466)">
    <g id="Grupo_18420" data-name="Grupo 18420" transform="translate(-5659.348 -9466)">
      <g id="Grupo_18419" data-name="Grupo 18419">
        <path id="Trazado_40936" data-name="Trazado 40936" d="M318.456,2207.635a61.916,61.916,0,1,1-61.915-61.915A61.915,61.915,0,0,1,318.456,2207.635Z" transform="translate(-194.623 -2145.721)" fill="#fff"/>
      </g>
    </g>
    <path id="Trazado_40937" data-name="Trazado 40937" d="M317.728,2206.843a61.915,61.915,0,1,0-61.915,61.918A61.672,61.672,0,0,0,317.728,2206.843Z" transform="translate(-5853.476 -11610.653)" fill="url(#radial-gradient)"/>
    <path id="Trazado_40938" data-name="Trazado 40938" d="M296.6,2200.4a47.26,47.26,0,1,0-47.26,47.26A47.084,47.084,0,0,0,296.6,2200.4Z" transform="translate(-5846.788 -11603.954)" fill="none" stroke="#eecd76" stroke-miterlimit="10" stroke-width="4"/>
    <path id="Trazado_40939" data-name="Trazado 40939" d="M307.148,2164.488a61.924,61.924,0,0,1-106.6,61.66,61.727,61.727,0,0,0,106.6-61.66Z" transform="translate(-5848.924 -11595.727)" fill="#eceef0"/>
    <g id="_039---Online-File" data-name="039---Online-File" transform="translate(-5624 -9433.001)">
      <g id="Icons" transform="translate(1 1)">
        <path id="Shape" d="M5,4A4,4,0,0,1,9,0H49a4,4,0,0,1,4,4V44L41,56H9a4,4,0,0,1-4-4Z" fill="#cbc5e0"/>
        <path id="Shape-2" data-name="Shape" d="M49,0H46a4,4,0,0,1,4,4V44L38,56h3L53,44V4A4,4,0,0,0,49,0Z" fill="#b1a8d1"/>
        <path id="Shape-3" data-name="Shape" d="M41,56V48a4,4,0,0,1,4-4h8" fill="#7d6eb2"/>
        <circle id="Oval" cx="18" cy="18" r="18" transform="translate(0 22)" fill="#8ec8c8"/>
        <path id="Shape-4" data-name="Shape" d="M18,22c-.506,0-1,.035-1.5.076a17.985,17.985,0,0,1,0,35.848c.5.041.994.076,1.5.076a18,18,0,1,0,0-36Z" fill="#26aab7"/>
      </g>
      <g id="Layer_2">
        <path id="Shape-5" data-name="Shape" d="M35,56a1,1,0,0,0,0,2h7a1,1,0,0,0,.707-.293l12-12A1,1,0,0,0,55,45V5a5.006,5.006,0,0,0-5-5H10A5.006,5.006,0,0,0,5,5V21a1,1,0,0,0,2,0V5a3,3,0,0,1,3-3H50a3,3,0,0,1,3,3V44H46a5.006,5.006,0,0,0-5,5v7ZM46,46h5.586L43,54.586V49A3,3,0,0,1,46,46Z"/>
        <path id="Shape-6" data-name="Shape" d="M14,6H12a1,1,0,0,0,0,2h2a1,1,0,0,0,0-2Z"/>
        <path id="Shape-7" data-name="Shape" d="M48,6H18a1,1,0,0,0,0,2H48a1,1,0,0,0,0-2Z"/>
        <path id="Shape-8" data-name="Shape" d="M14,12H12a1,1,0,0,0,0,2h2a1,1,0,0,0,0-2Z"/>
        <path id="Shape-9" data-name="Shape" d="M42,13a1,1,0,0,0-1-1H18a1,1,0,0,0,0,2H41A1,1,0,0,0,42,13Z"/>
        <path id="Shape-10" data-name="Shape" d="M14,18H12a1,1,0,0,0,0,2h2a1,1,0,0,0,0-2Z"/>
        <path id="Shape-11" data-name="Shape" d="M18,18a1,1,0,0,0,0,2H34a1,1,0,0,0,0-2Z"/>
        <path id="Shape-12" data-name="Shape" d="M51,21a1,1,0,0,0-2,0V35a1,1,0,0,0,2,0Z"/>
        <path id="Shape-13" data-name="Shape" d="M50,38a1,1,0,0,0-1,1v2a1,1,0,0,0,2,0V39A1,1,0,0,0,50,38Z"/>
        <path id="Shape-14" data-name="Shape" d="M19,60A19,19,0,1,0,0,41,19,19,0,0,0,19,60ZM5.681,51.532c1-.249,2.028-.465,3.088-.655A18.393,18.393,0,0,0,12.1,56.525a17.082,17.082,0,0,1-6.419-4.993ZM14.008,42c.025,1.887.123,4.034.323,6.175-1.449.106-2.869.262-4.252.464A26.6,26.6,0,0,1,9.03,42Zm4.968-18h.012c.7.209,1.8,2.992,2.46,7.946C20.637,31.979,19.823,32,19,32s-1.638-.021-2.449-.053C17.207,27,18.3,24.215,18.976,24ZM19,34c.9,0,1.792-.025,2.679-.062.173,1.794.283,3.828.31,6.062H16.011c.027-2.234.137-4.268.31-6.062C17.208,33.975,18.1,34,19,34Zm2.989,8c-.027,2.234-.137,4.268-.31,6.062C20.792,48.025,19.9,48,19,48s-1.792.025-2.679.062c-.173-1.794-.283-3.828-.31-6.062ZM19.024,58h-.012c-.7-.209-1.8-2.992-2.46-7.946C17.363,50.021,18.177,50,19,50s1.638.021,2.449.053C20.793,55,19.7,57.785,19.024,58Zm-4.476-7.834a28.149,28.149,0,0,0,1.673,7.154c-2.256-1.112-4.187-3.532-5.482-6.755q1.861-.265,3.809-.4Zm7.231,7.154a28.149,28.149,0,0,0,1.673-7.154q1.945.139,3.809.4c-1.3,3.22-3.226,5.64-5.482,6.752Zm1.89-9.143c.2-2.141.3-4.288.323-6.175H28.97a26.6,26.6,0,0,1-1.049,6.639c-1.383-.2-2.8-.36-4.252-.466ZM30.968,42h4.981a16.86,16.86,0,0,1-2.421,7.783q-1.756-.471-3.648-.82A28.113,28.113,0,0,0,30.968,42Zm0-2a28.113,28.113,0,0,0-1.088-6.963q1.889-.349,3.648-.82A16.86,16.86,0,0,1,35.949,40Zm-2,0H23.992c-.025-1.887-.123-4.034-.323-6.175,1.449-.106,2.869-.262,4.252-.464A26.6,26.6,0,0,1,28.97,40ZM23.45,31.836a28.149,28.149,0,0,0-1.673-7.154c2.256,1.112,4.187,3.532,5.482,6.755q-1.859.263-3.807.4Zm-7.231-7.154a28.149,28.149,0,0,0-1.673,7.154q-1.946-.139-3.809-.4c1.3-3.222,3.228-5.642,5.484-6.754Zm-1.89,9.143c-.2,2.141-.3,4.288-.323,6.175H9.03a26.6,26.6,0,0,1,1.049-6.639c1.383.2,2.8.358,4.252.464ZM7.032,40H2.051a16.86,16.86,0,0,1,2.421-7.783q1.756.471,3.648.82A28.113,28.113,0,0,0,7.032,40Zm0,2A28.113,28.113,0,0,0,8.12,48.963q-1.888.349-3.648.82A16.86,16.86,0,0,1,2.051,42ZM25.9,56.525a18.393,18.393,0,0,0,3.335-5.648c1.06.19,2.092.406,3.088.655A17.082,17.082,0,0,1,25.9,56.525Zm6.423-26.057c-1,.249-2.028.465-3.088.655A18.393,18.393,0,0,0,25.9,25.475a17.082,17.082,0,0,1,6.419,4.993ZM12.1,25.475a18.393,18.393,0,0,0-3.335,5.648c-1.06-.19-2.092-.406-3.088-.655A17.082,17.082,0,0,1,12.1,25.475Z"/>
      </g>
    </g>
  </g>
</svg>
