<svg xmlns="http://www.w3.org/2000/svg" width="473.755" height="498.477" viewBox="0 0 473.755 498.477">
  <g id="Mobile_Marketing-pana" data-name="Mobile Marketing-pana" transform="translate(-111.746 -23.89)">
    <g id="freepik--background-complete--inject-2" transform="translate(111.746 23.89)">
      <path id="Trazado_99079" data-name="Trazado 99079" d="M140.327,134.4h0A38.277,38.277,0,0,1,102.05,96.127h0A38.277,38.277,0,0,1,140.327,57.85h0A38.277,38.277,0,0,1,178.6,96.127h0A38.277,38.277,0,0,1,140.327,134.4Z" transform="translate(-41.651 -19.908)" fill="#ebebeb"/>
      <rect id="Rectángulo_29297" data-name="Rectángulo 29297" width="7.921" height="25.596" transform="translate(81.314 67.695)" fill="#fff"/>
      <path id="Trazado_99080" data-name="Trazado 99080" d="M124.771,82.472a4.726,4.726,0,1,0-4.681-4.726A4.726,4.726,0,0,0,124.771,82.472Z" transform="translate(-39.536 -18.129)" fill="#fff"/>
      <path id="Trazado_99081" data-name="Trazado 99081" d="M140,96.718c0-3.6,1.654-5.743,4.827-5.743,2.9,0,4.313,2.056,4.313,5.743v13.407h7.877V93.947c0-6.86-3.877-10.167-9.307-10.167A8.938,8.938,0,0,0,140,88V84.562H132.39v25.585H140Z" transform="translate(-38.094 -16.867)" fill="#fff"/>
      <path id="Trazado_99082" data-name="Trazado 99082" d="M183.776,23.89l5.24,9.575,9.586,5.251-9.586,5.24-5.24,9.575-5.24-9.575-9.586-5.24,9.586-5.251Z" transform="translate(-33.807 -23.89)" fill="#f5f5f5"/>
      <path id="Trazado_99083" data-name="Trazado 99083" d="M379.037,256.27l3.933,7.2,7.184,3.922-7.184,3.933-3.933,7.2-3.933-7.2-7.184-3.933,7.184-3.922Z" transform="translate(-10.475 3.359)" fill="#ebebeb"/>
      <path id="Trazado_99084" data-name="Trazado 99084" d="M388.346,224.51l1.776,3.24,3.24,1.776-3.24,1.776-1.776,3.24-1.765-3.24-3.251-1.776,3.251-1.776Z" transform="translate(-8.668 -0.365)" fill="#e0e0e0"/>
      <path id="Trazado_99085" data-name="Trazado 99085" d="M149.236,27.11l1.776,3.251,3.24,1.765-3.24,1.776-1.776,3.24-1.765-3.24-3.251-1.776,3.251-1.765Z" transform="translate(-36.706 -23.512)" fill="#e0e0e0"/>
      <path id="Trazado_99086" data-name="Trazado 99086" d="M71.609,299.1a11.608,11.608,0,0,0,6.771-10.815c0-6.4-4.972-11.541-10.971-11.5s-10.815,5.285-10.759,11.687A11.553,11.553,0,0,0,63.71,299.2C47.018,301.939,48,320.106,48,320.106l39.54-.335S88.222,301.392,71.609,299.1Z" transform="translate(-47.99 5.765)" fill="#e0e0e0"/>
      <path id="Trazado_99087" data-name="Trazado 99087" d="M411.2,404.463a6.156,6.156,0,0,0-12.145.358,6.156,6.156,0,0,0-12.145-.291,8.3,8.3,0,0,0,1.5,6,24.388,24.388,0,0,0,4.335,4.581c2.234,1.978,4.257,3.821,6.469,5.787,2.234-1.989,4.056-3.855,6.245-5.843a24.124,24.124,0,0,0,4.3-4.625,8.324,8.324,0,0,0,1.441-5.966Z" transform="translate(-8.258 20.152)" fill="#ebebeb"/>
      <path id="Trazado_99088" data-name="Trazado 99088" d="M431.69,195.681l4.234-.838,6.7-14.725-1.676-8.458s6.469-1.7,7.9,9.53,1.7,8.245,1.7,8.245,13.91-2.7,15.306-1.732c1.017.715,4.134,14.457,5.765,21.921a8.257,8.257,0,0,1-4.123,9.307,5.8,5.8,0,0,1-1.464.492c-3.464.693-21.742,1.385-21.742,1.385l-7.318,1.452Z" transform="translate(-2.998 -6.573)" fill="#e0e0e0"/>
      <path id="Trazado_99089" data-name="Trazado 99089" d="M420.42,193.363l8.346,28.468,7.262-1.441L430.4,192Z" transform="translate(-4.319 -4.177)" fill="#e0e0e0"/>
    </g>
    <g id="freepik--Icons--inject-2" transform="translate(112.047 115.593)">
      <path id="Trazado_99091" data-name="Trazado 99091" d="M400.279,192.2h0A45.405,45.405,0,0,1,339.6,171.229h0a45.405,45.405,0,0,1,20.971-60.678h0a45.394,45.394,0,0,1,60.678,20.971h0A45.394,45.394,0,0,1,400.279,192.2Z" transform="translate(-14.634 -105.968)" fill="#c1507f"/>
      <path id="Trazado_99092" data-name="Trazado 99092" d="M366.939,159.593A1.117,1.117,0,0,0,368,158.218c-.112-.547-.413-1.933-.525-2.5a1.518,1.518,0,0,0-1.117-1.363,8.938,8.938,0,0,1-4.469-4.57c-3.419-7.039-1.218-15.9,7.229-20,7.474-3.642,13.809-1.117,16.759,5.028,3.9,8.033,3.642,16.535-1.631,19.105a4.793,4.793,0,0,1-7.005-3.229c-.871-3.933-1.117-8.525-2.346-11.072-1.117-2.235-3.262-3.586-5.787-2.357-2.983,1.452-3.877,5.7-1.866,9.821a11.934,11.934,0,0,0,3.028,3.977s3.24,14.39,3.8,16.915c1.117,5.017,4.715,10.055,5.061,10.625a.425.425,0,0,0,.749-.168c.1-.492,1.519-6.592.592-11.552-.257-1.408-1.765-8.614-1.765-8.614,1.866,1.374,5.486,1.631,8.491.168,8.938-4.357,11.061-15.474,5.743-26.4-4.011-8.257-14.759-12.547-25.384-7.374-13.24,6.435-15.3,19.161-11.452,27.071C358.425,156.52,362.28,159.939,366.939,159.593Z" transform="translate(-12.365 -104.041)" fill="#fff"/>
      <path id="Trazado_99093" data-name="Trazado 99093" d="M436.113,304.116h0a31.283,31.283,0,0,1-18.066-40.422h0a31.283,31.283,0,0,1,40.411-18.077h0a31.283,31.283,0,0,1,18.066,40.422h0a31.283,31.283,0,0,1-40.411,18.077Z" transform="translate(-5.142 -89.835)" fill="#8ec8c8"/>
      <path id="Trazado_99094" data-name="Trazado 99094" d="M462.682,278.679a16.859,16.859,0,0,0-31.361-12.29c-.1.223-.19.458-.279.682a16.558,16.558,0,0,0-.827,8.938l-6.044,7.3,9.787.559a16.859,16.859,0,0,0,28.58-4.759,4.066,4.066,0,0,0,.145-.425ZM441.767,286.2a14.078,14.078,0,0,1-6.447-4.961l-5.709-.324,3.519-4.246a13.932,13.932,0,0,1,.413-8.67c.168-.425.357-.849.559-1.251A14.178,14.178,0,0,1,460.38,277.07c-.1.358-.212.7-.346,1.05A14.133,14.133,0,0,1,441.767,286.2Z" transform="translate(-4.181 -88.33)" fill="#fff" fill-rule="evenodd"/>
      <path id="Trazado_99095" data-name="Trazado 99095" d="M451.13,278.189c-.324-.335-1.855-1.989-2.167-2.235s-.536-.425-.939-.134-1.486.86-1.8,1.028-.559.112-.871-.223a11.276,11.276,0,0,1-2.38-3.095,12.289,12.289,0,0,1-1.117-3.463c-.067-.469.2-.6.469-.715s.559-.3.838-.447l.212-.134a3.958,3.958,0,0,0,.413-.369.726.726,0,0,0,.234-.682c0-.223-.078-2.413-.112-3.3s-.4-.883-.626-.972-.469-.223-.726-.313a1.531,1.531,0,0,0-1.218.078,4.647,4.647,0,0,0-2.57,2.693,5.208,5.208,0,0,0-.3,1.374,9.231,9.231,0,0,0,.369,3.184c.1.324,1.05,5.262,4.38,8.3s3.542,2.525,4.279,2.726a4.1,4.1,0,0,0,3.352-.827,3.352,3.352,0,0,0,.927-1.732A5.043,5.043,0,0,0,451.13,278.189Z" transform="translate(-2.506 -87.549)" fill="#fff" fill-rule="evenodd"/>
      <path id="Trazado_99096" data-name="Trazado 99096" d="M72.136,173.252h0A23.876,23.876,0,0,1,48.26,149.376h0A23.876,23.876,0,0,1,72.136,125.5h0a23.876,23.876,0,0,1,23.876,23.876h0a23.876,23.876,0,0,1-23.876,23.876Z" transform="translate(-48.26 -103.678)" fill="#3c4973"/>
      <path id="Trazado_99097" data-name="Trazado 99097" d="M58.25,155.922a14.86,14.86,0,0,0,22.837-13.184,10.7,10.7,0,0,0,2.581-2.67,10.782,10.782,0,0,1-3.005.827,5.251,5.251,0,0,0,2.324-2.849,10.212,10.212,0,0,1-3.352,1.263,5.229,5.229,0,0,0-8.938,4.771,14.848,14.848,0,0,1-10.759-5.463,5.24,5.24,0,0,0,1.62,6.972,5.139,5.139,0,0,1-2.369-.648,5.229,5.229,0,0,0,4.19,5.184,5.217,5.217,0,0,1-2.357.089,5.229,5.229,0,0,0,4.871,3.62A10.491,10.491,0,0,1,58.25,155.922Z" transform="translate(-47.089 -102.258)" fill="#fff"/>
      <path id="Trazado_99098" data-name="Trazado 99098" d="M113.312,416.125h0a41.115,41.115,0,0,1-49.495-30.468h0a41.115,41.115,0,0,1,30.5-49.539h0a41.115,41.115,0,0,1,49.528,30.468h0a41.115,41.115,0,0,1-30.535,49.539Z" transform="translate(-46.567 -79.114)" fill="#c1507f"/>
      <path id="Trazado_99099" data-name="Trazado 99099" d="M97.77,356.381c5.854-1.4,6.558-1.542,8.938-1.989a12.489,12.489,0,0,1,4.246-.212,7.028,7.028,0,0,1,2.916,1.039,7.184,7.184,0,0,1,2.235,2.134,12.536,12.536,0,0,1,1.721,3.888c.659,2.29.849,2.983,2.235,8.838s1.531,6.558,1.978,8.938a12.2,12.2,0,0,1,.212,4.246,6.7,6.7,0,0,1-1.039,2.916,7.029,7.029,0,0,1-2.123,2.234,12.637,12.637,0,0,1-3.9,1.721c-2.235.659-2.972.849-8.826,2.234s-6.558,1.542-8.938,1.989a12.289,12.289,0,0,1-4.257.212,6.927,6.927,0,0,1-2.916-1.039,6.793,6.793,0,0,1-2.167-2.2,12.358,12.358,0,0,1-1.732-3.888c-.648-2.29-.838-2.972-2.235-8.826s-1.542-6.558-1.989-8.938a12.871,12.871,0,0,1-.212-4.257,7.419,7.419,0,0,1,3.173-5.151,12.479,12.479,0,0,1,3.888-1.732c2.235-.648,2.983-.838,8.838-2.235m-.938-3.955c-5.955,1.419-6.7,1.62-9.016,2.29a16.335,16.335,0,0,0-5.084,2.235,11.575,11.575,0,0,0-4.882,7.933,16.591,16.591,0,0,0,.246,5.586c.458,2.357.6,3.117,2.022,9.072s1.62,6.7,2.235,9.005a16.212,16.212,0,0,0,2.235,5.084,11.072,11.072,0,0,0,3.519,3.363,10.948,10.948,0,0,0,4.469,1.6,16.522,16.522,0,0,0,5.586-.246c2.357-.447,3.117-.6,9.072-2.022s6.7-1.62,9.005-2.234a16.759,16.759,0,0,0,5.084-2.234,11.071,11.071,0,0,0,3.285-3.452,11.251,11.251,0,0,0,1.609-4.469,16.58,16.58,0,0,0-.257-5.586c-.447-2.369-.6-3.117-2.022-9.072s-1.62-6.7-2.235-9.016a16.87,16.87,0,0,0-2.235-5.084,11.04,11.04,0,0,0-3.452-3.274,10.871,10.871,0,0,0-4.469-1.609,16.524,16.524,0,0,0-5.586.246c-2.369.458-3.117.6-9.072,2.022" transform="translate(-44.8 -77.344)" fill="#fff"/>
      <path id="Trazado_99100" data-name="Trazado 99100" d="M98.033,361.763a11.575,11.575,0,1,0,13.943,8.581,11.575,11.575,0,0,0-13.943-8.581m4.469,18.58a7.519,7.519,0,1,1,4.672-3.372,7.519,7.519,0,0,1-4.672,3.372" transform="translate(-43.467 -76.011)" fill="#fff"/>
      <path id="Trazado_99101" data-name="Trazado 99101" d="M110.4,358.5a2.693,2.693,0,1,1-1.211-1.687A2.7,2.7,0,0,1,110.4,358.5" transform="translate(-41.599 -76.602)" fill="#fff"/>
      <path id="Trazado_99102" data-name="Trazado 99102" d="M388.823,379.244h0a19.172,19.172,0,0,1-19.183-19.172h0A19.172,19.172,0,0,1,388.823,340.9h0a19.172,19.172,0,0,1,19.206,19.172h0a19.172,19.172,0,0,1-19.206,19.172Z" transform="translate(-10.575 -78.42)" fill="#727997"/>
      <path id="Trazado_99103" data-name="Trazado 99103" d="M384.447,370.86h4.67V359.207h3.251l.358-3.91h-3.609v-2.234c0-.916.19-1.285,1.117-1.285h2.536V347.71h-3.24c-3.475,0-5.039,1.531-5.039,4.469v3.128H382v3.9h2.425Z" transform="translate(-9.126 -77.622)" fill="#fff"/>
    </g>
    <g id="freepik--Device--inject-2" transform="translate(237.315 69.061)">
      <path id="Trazado_99104" data-name="Trazado 99104" d="M347.957,517.626,193.9,517.57a33.518,33.518,0,0,1-33.518-33.518l.067-386.214A33.518,33.518,0,0,1,194.032,64.32l154.048.089A33.518,33.518,0,0,1,381.6,97.927l-.067,386.125a33.518,33.518,0,0,1-33.574,33.574Z" transform="translate(-160.38 -64.32)" fill="#263238"/>
      <path id="Trazado_99105" data-name="Trazado 99105" d="M346.844,76.528H316.968a7.43,7.43,0,0,0-7.251,7.553V89.5a7.408,7.408,0,0,1-7.251,7.575h-58.22a7.419,7.419,0,0,1-7.251-7.586V84.036a7.441,7.441,0,0,0-7.251-7.586H193.086a23.462,23.462,0,0,0-23.518,23.462l-.078,376.975a23.463,23.463,0,0,0,23.462,23.462l153.757.089a23.463,23.463,0,0,0,23.462-23.462l.078-376.986A23.462,23.462,0,0,0,346.844,76.528Z" transform="translate(-159.312 -62.898)" fill="#fff"/>
      <path id="Trazado_99106" data-name="Trazado 99106" d="M332.061,103.943c0,.1-3.888.212-8.67.246s-8.681,0-8.681-.1,3.877-.223,8.67-.257S332.061,103.842,332.061,103.943Z" transform="translate(-142.283 -59.688)" fill="#263238"/>
      <path id="Trazado_99107" data-name="Trazado 99107" d="M332.091,107.913c0,.1-3.877.212-8.67.257s-8.681,0-8.681-.112,3.888-.212,8.681-.257S332.091,107.813,332.091,107.913Z" transform="translate(-142.28 -59.223)" fill="#263238"/>
      <path id="Trazado_99108" data-name="Trazado 99108" d="M332.132,111.883c0,.1-3.888.223-8.681.257s-8.67,0-8.681-.112,3.888-.212,8.681-.257S332.132,111.783,332.132,111.883Z" transform="translate(-142.276 -58.758)" fill="#263238"/>
      <path id="Trazado_99109" data-name="Trazado 99109" d="M184,117.641h1.721l4.67-.112-.134.123c0-1.028,0-2.156-.056-3.352v-1.944a1.8,1.8,0,0,1,1.564-1.441H194a1.821,1.821,0,0,1,1.531,1.8c0,1.586,0,3.229.056,4.938l-.212-.212h5.888l-.223.223c0-2.369,0-4.827-.067-7.34v-1.866a1.866,1.866,0,0,0-.827-1.385l-2.57-2.547-2.491-2.447-1.2-1.184c-.413-.4-.737-.816-1.218-.916a1.6,1.6,0,0,0-1.352.257c-.358.3-.737.726-1.117,1.117l-2.123,2.134c-1.33,1.374-2.715,2.637-3.72,3.832a4.2,4.2,0,0,0-.29,2.235V117.1a6.188,6.188,0,0,1,0,.771,6.364,6.364,0,0,1,0-.7V115.06c0-.838,0-2.089-.078-3.352v-3.24a2.435,2.435,0,0,1,.324-1.229c1.117-1.33,2.391-2.514,3.732-3.933l2.1-2.156c.38-.369.682-.737,1.117-1.117a2,2,0,0,1,1.709-.346,3.273,3.273,0,0,1,1.419,1.017l1.207,1.184,2.491,2.447,2.581,2.525a5.15,5.15,0,0,1,.659.715,1.932,1.932,0,0,1,.313.994q0,.939,0,1.877c0,2.514,0,4.972.056,7.34v.223h-6.525v-5.151a1.419,1.419,0,0,0-1.184-1.43h-2.145a1.441,1.441,0,0,0-1.263,1.117v5.363h-6.123a2.559,2.559,0,0,1-.458-.268Z" transform="translate(-157.612 -60.18)" fill="#263238"/>
      <path id="Trazado_99110" data-name="Trazado 99110" d="M279.313,379.44a9.336,9.336,0,0,1-1.62.112l-4.4.089c-3.709.056-8.849.089-14.524.089s-10.815,0-14.524-.089l-4.4-.089a9.5,9.5,0,0,1-1.62-.112,8.23,8.23,0,0,1,1.62-.112l4.4-.1c3.709,0,8.849-.078,14.524-.078s10.8,0,14.524.078l4.4.1A8.106,8.106,0,0,1,279.313,379.44Z" transform="translate(-151.252 -27.403)" fill="#455a64"/>
      <path id="Trazado_99111" data-name="Trazado 99111" d="M343.858,388.48c0,.168-23.652.29-52.824.29s-52.824-.123-52.824-.29,23.652-.291,52.824-.291S343.858,388.324,343.858,388.48Z" transform="translate(-151.254 -26.343)" fill="#455a64"/>
      <path id="Trazado_99112" data-name="Trazado 99112" d="M310.843,397.03c0,.168-16.256.29-36.311.29s-36.322-.123-36.322-.29,16.256-.291,36.322-.291S310.843,396.829,310.843,397.03Z" transform="translate(-151.254 -25.34)" fill="#455a64"/>
      <path id="Trazado_99113" data-name="Trazado 99113" d="M335.313,414.538l-3.285-3.3L328.9,414.36v-9.43h6.4Zm-3.285-3.709.1.1,2.894,2.9v-8.6H329.2v8.435Z" transform="translate(-140.619 -24.38)" fill="#263238"/>
      <path id="Trazado_99114" data-name="Trazado 99114" d="M256.986,413.089l-1.117-.514a2.961,2.961,0,1,1,.894-.648Zm-2.693-6.279a3.005,3.005,0,0,0,.056,6,3.2,3.2,0,0,0,1.441-.458h0l.86.38-.2-.838h0a2.994,2.994,0,0,0-2.234-5.017Z" transform="translate(-149.696 -24.16)" fill="#263238"/>
      <path id="Trazado_99115" data-name="Trazado 99115" d="M263.47,412.574l-1.318-3.24L259.66,407.1h6.033Zm-3.251-5.285,2.123,1.944,1.117,2.76,1.9-4.748Z" transform="translate(-148.738 -24.126)" fill="#263238"/>
      <rect id="Rectángulo_29298" data-name="Rectángulo 29298" width="3.933" height="0.223" transform="translate(113.53 385.044) rotate(-33.05)" fill="#263238"/>
      <path id="Trazado_99116" data-name="Trazado 99116" d="M248.675,407.816a1.866,1.866,0,0,0-3.676.123,1.866,1.866,0,0,0-3.687-.067,2.536,2.536,0,0,0,.458,1.821,7.372,7.372,0,0,0,1.318,1.385c.681.592,1.3,1.117,1.966,1.743.67-.6,1.229-1.173,1.9-1.776a7.376,7.376,0,0,0,1.3-1.408A2.48,2.48,0,0,0,248.675,407.816Z" transform="translate(-150.893 -24.216)" fill="#26aab7"/>
      <path id="Trazado_99117" data-name="Trazado 99117" d="M359.433,427.312V423.2c0-2.693,0-6.7-.056-11.8,0-10.268-.056-25.205-.1-43.942l.19.19-178.661.1h0l.29-.29v59.852l-.279-.279,127.848.123,37.316.078h.168l-37.261.078-128.038.134h-.29V367.17h.313l178.661.1h.19v.19c0,18.781-.078,33.764-.1,44.065V426.3A2.159,2.159,0,0,1,359.433,427.312Z" transform="translate(-158.014 -28.808)" fill="#263238"/>
      <rect id="Rectángulo_29299" data-name="Rectángulo 29299" width="39.573" height="49.495" transform="matrix(0.006, -1, 1, 0.006, 29.961, 388.233)" fill="#ebebeb"/>
      <path id="Trazado_99118" data-name="Trazado 99118" d="M236.955,376.686H223.146l-35.752-.078.268-.257c-.056,11.787-.123,25.284-.19,39.562.056.078-.547-.547-.29-.291h13.463l12.848.078,23.172.168-.235.246c.112-11.888.212-21.742.29-28.669,0-3.441.078-6.145.1-8.033v36.937h-.246l-23.172-.089-12.848-.067H187.092l-.3-.3c.1-14.29.179-27.786.257-39.562v-.268h.268l35.864.324,10.055.134h3.318Z" transform="translate(-157.283 -27.765)" fill="#263238"/>
      <rect id="Rectángulo_29300" data-name="Rectángulo 29300" width="34.59" height="46.02" transform="matrix(0.006, -1, 1, 0.006, 31.685, 385.752)" fill="#e0e0e0"/>
      <path id="Trazado_99119" data-name="Trazado 99119" d="M188.72,411.807l16.2-21.407,9.877,13.508,6.793-7.15,13.15,15.318Z" transform="translate(-157.057 -26.084)" fill="#f5f5f5"/>
      <path id="Trazado_99120" data-name="Trazado 99120" d="M216.692,388.5a3.62,3.62,0,1,1-1.048-2.57A3.631,3.631,0,0,1,216.692,388.5Z" transform="translate(-154.628 -26.734)" fill="#f5f5f5"/>
      <path id="Trazado_99121" data-name="Trazado 99121" d="M267.552,146.895a1.609,1.609,0,0,1-.536,0l-1.508.056-5.586.1c-4.7,0-11.173.078-18.39.078s-13.686,0-18.39-.078l-5.586-.1-1.519-.056a1.5,1.5,0,0,1-.525,0,1.945,1.945,0,0,1,.525-.056h1.519l5.586-.089c4.7-.056,11.173-.089,18.39-.089s13.686,0,18.39.089l5.586.089h1.508A2.088,2.088,0,0,1,267.552,146.895Z" transform="translate(-153.915 -54.665)" fill="#263238"/>
      <path id="Trazado_99122" data-name="Trazado 99122" d="M328.53,344.147l-4.871-4.894L319,343.89V329.88h9.519Zm-4.871-5.5.145.145,4.3,4.313V330.327h-8.67v12.536Z" transform="translate(-141.78 -33.181)" fill="#263238"/>
      <path id="Trazado_99123" data-name="Trazado 99123" d="M217.843,342.626l-2.235-1.017a5.765,5.765,0,1,1,1.754-1.263Zm-5.329-12.346a5.9,5.9,0,0,0,.1,11.8,6.133,6.133,0,0,0,2.838-.894l.1-.056,1.676.749-.38-1.654.078-.078a5.888,5.888,0,0,0-4.413-9.865Z" transform="translate(-154.953 -33.134)" fill="#263238"/>
      <path id="Trazado_99124" data-name="Trazado 99124" d="M230.578,341.608l-2.614-6.38-4.894-4.469,11.888-.089Zm-6.4-10.424,4.179,3.832,2.235,5.43,3.732-9.34Z" transform="translate(-153.029 -33.088)" fill="#263238"/>
      <rect id="Rectángulo_29301" data-name="Rectángulo 29301" width="7.731" height="0.436" transform="translate(75.21 301.777) rotate(-33.05)" fill="#263238"/>
      <path id="Trazado_99125" data-name="Trazado 99125" d="M201.457,332.311a3.676,3.676,0,0,0-7.251.235,3.676,3.676,0,0,0-7.251-.123,4.972,4.972,0,0,0,.9,3.575,15.09,15.09,0,0,0,2.6,2.737c1.33,1.117,2.547,2.235,3.877,3.43,1.3-1.184,2.413-2.3,3.72-3.5a15.049,15.049,0,0,0,2.559-2.771A4.983,4.983,0,0,0,201.457,332.311Z" transform="translate(-157.269 -33.243)" fill="#26aab7"/>
      <circle id="Elipse_3951" data-name="Elipse 3951" cx="8.067" cy="8.067" r="8.067" transform="translate(35.037 84.163)" fill="#ebebeb"/>
      <path id="Trazado_99126" data-name="Trazado 99126" d="M340.66,301.28c0,.168-33.808.3-75.5.3s-75.516-.134-75.516-.3,33.808-.29,75.516-.29S340.66,301.124,340.66,301.28Z" transform="translate(-156.949 -36.568)" fill="#455a64"/>
      <path id="Trazado_99127" data-name="Trazado 99127" d="M340.66,290.03c0,.156-33.808.29-75.5.29s-75.516-.134-75.516-.29,33.808-.29,75.516-.29S340.66,289.874,340.66,290.03Z" transform="translate(-156.949 -37.887)" fill="#455a64"/>
      <path id="Trazado_99128" data-name="Trazado 99128" d="M271.837,312.69c0,.156-18.4.291-41.093.291s-41.1-.134-41.1-.291,18.4-.29,41.1-.29S271.837,312.534,271.837,312.69Z" transform="translate(-156.949 -35.23)" fill="#455a64"/>
      <path id="Trazado_99129" data-name="Trazado 99129" d="M254.815,435.634a3.229,3.229,0,1,1-.918-2.3A3.218,3.218,0,0,1,254.815,435.634Z" transform="translate(-150.061 -21.164)" fill="#263238"/>
      <path id="Trazado_99130" data-name="Trazado 99130" d="M263.673,435.673a3.218,3.218,0,1,1-.915-2.3,3.207,3.207,0,0,1,.915,2.3Z" transform="translate(-149.02 -21.159)" fill="#263238"/>
      <path id="Trazado_99131" data-name="Trazado 99131" d="M272.6,435.713a3.229,3.229,0,1,1-.918-2.3A3.207,3.207,0,0,1,272.6,435.713Z" transform="translate(-147.973 -21.154)" fill="#263238"/>
      <rect id="Rectángulo_29302" data-name="Rectángulo 29302" width="178.683" height="109.268" transform="translate(23.809 108.184)" fill="#e0e0e0"/>
      <path id="Trazado_99132" data-name="Trazado 99132" d="M196.46,266.173l51.193-68.533L279.405,240.5l21.507-22.926,42.2,48.556Z" transform="translate(-156.149 -48.687)" fill="#f5f5f5"/>
      <path id="Trazado_99133" data-name="Trazado 99133" d="M285.165,191.321a11.552,11.552,0,1,1-11.552-11.541,11.552,11.552,0,0,1,11.552,11.541Z" transform="translate(-148.457 -50.781)" fill="#f5f5f5"/>
      <path id="Trazado_99134" data-name="Trazado 99134" d="M359.967,375.825c0-2.335-.112-101.045-.268-247.182l.268.268H181.306l.29-.29V375.8l-.246-.235,178.683.235-178.683.246h-.235V375.8c0-69.192,0-154.74-.056-247.182v-.29H360.3v.257c-.056,73.147-.1,134.965-.134,178.516,0,21.742-.056,38.914-.067,50.668v16.848A4.4,4.4,0,0,1,359.967,375.825Z" transform="translate(-157.955 -56.814)" fill="#263238"/>
    </g>
    <g id="freepik--Megaphone--inject-2" transform="translate(164.311 134.692)">
      <path id="Trazado_99135" data-name="Trazado 99135" d="M273.593,383.668l3.955-13.284c.693-2.883,1.609-6.279,2.838-10.156,1.117-3.486,3.955-7.15,6.547-9.787,4.033-4.1,5.955-4.123,8.659-6.3.246-.156.525-.391.76-.514a4.256,4.256,0,0,0,1.318-1.117c2.335-2.525.089-6.447-4.659-6.067-3.564.279-9.4,1.3-18.871,11.072-.123.156-.246.279-.358.425-4.972,6.469-9.642-11.988-10.491-18.859a7.184,7.184,0,0,0-9.731-5.586l-23.083,10.793a10.8,10.8,0,0,0-6.7.223,6.882,6.882,0,0,0-4.4,8.145l9.374,37.328-27.5,91.5h59.271Z" transform="translate(-82.584 -99.619)" fill="#ffbe9d"/>
      <path id="Trazado_99136" data-name="Trazado 99136" d="M317.716,303.431l-18.323,35.909-9.162-2.547L244.2,374.254a9.318,9.318,0,0,1-12.949-1.117L213.71,352.769s35.361-15.228,41.9-27.831-1.017-15.474-1.017-15.474l16.636-18.9Z" transform="translate(-81.123 -103.422)" fill="#26aab7"/>
      <path id="Trazado_99137" data-name="Trazado 99137" d="M307.867,249.734S281.053,243.8,243.3,207.513s-55.472-84.521-60.042-84.253-24.792-9.128-63.159,74.32S96.85,300.369,104.459,300.257s59.461-14.6,91.839-10.927,74,20.558,74,20.558Z" transform="translate(-95.038 -123.063)" fill="#26aab7"/>
      <path id="Trazado_99138" data-name="Trazado 99138" d="M347.05,283.571l-9.15,17.4-4.1,7.821a22.7,22.7,0,0,1-29.6,10.055L246.72,298.811l33.518-76.421,57.427,30.6a22.7,22.7,0,0,1,9.385,30.579Z" transform="translate(-77.252 -111.416)" fill="#26aab7"/>
      <g id="Grupo_53262" data-name="Grupo 53262" transform="translate(169.468 110.974)" opacity="0.4">
        <path id="Trazado_99139" data-name="Trazado 99139" d="M347.05,283.571l-9.15,17.4-4.1,7.821a22.7,22.7,0,0,1-29.6,10.055L246.72,298.811l33.518-76.421,57.427,30.6a22.7,22.7,0,0,1,9.385,30.579Z" transform="translate(-246.72 -222.39)"/>
      </g>
      <path id="Trazado_99140" data-name="Trazado 99140" d="M122.638,198.9c-20.412,45.2-28.915,85.493-18.993,89.973s34.534-28.524,54.947-73.739,28.915-85.482,18.993-89.973S143.051,153.7,122.638,198.9Z" transform="translate(-94.515 -122.865)" fill="#26aab7"/>
      <g id="Grupo_53263" data-name="Grupo 53263" transform="translate(4.986 1.889)" opacity="0.5">
        <path id="Trazado_99141" data-name="Trazado 99141" d="M122.638,198.9c-20.412,45.2-28.915,85.493-18.993,89.973s34.534-28.524,54.947-73.739,28.915-85.482,18.993-89.973S143.051,153.7,122.638,198.9Z" transform="translate(-99.501 -124.754)"/>
      </g>
      <path id="Trazado_99142" data-name="Trazado 99142" d="M342.576,302.087l-15.586-4.894,9.642-18.323,11.687,7.262Z" transform="translate(-67.84 -104.793)" fill="#26aab7"/>
      <g id="Grupo_53264" data-name="Grupo 53264" transform="translate(259.15 174.077)" opacity="0.6">
        <path id="Trazado_99143" data-name="Trazado 99143" d="M336.632,278.87l-9.642,18.323L330.2,298.2l7.832-18.468Z" transform="translate(-326.99 -278.87)"/>
      </g>
      <path id="Trazado_99144" data-name="Trazado 99144" d="M329.559,284.26c-.223.5-8-2.514-17.362-6.7s-16.759-8.078-16.547-8.581,8,2.525,17.373,6.759S329.794,283.757,329.559,284.26Z" transform="translate(-71.515 -105.96)" fill="#26aab7"/>
      <path id="Trazado_99145" data-name="Trazado 99145" d="M333.506,274.465c-.246.492-7.285-2.469-15.72-6.625s-15.072-7.921-14.826-8.424,7.273,2.469,15.709,6.625S333.752,273.962,333.506,274.465Z" transform="translate(-70.658 -107.081)" fill="#26aab7"/>
      <path id="Trazado_99146" data-name="Trazado 99146" d="M323.845,294.352c-.078.268-1.933-.156-4.882-1.117-1.475-.458-3.229-1.039-5.162-1.7s-3.91-1.709-6.044-2.681c-8.525-3.955-15.038-7.821-14.826-8.29s7.217,2.559,15.642,6.48c2.123.961,4.089,2.011,5.944,2.782s3.519,1.452,4.916,2.078C322.225,293.19,323.923,294.084,323.845,294.352Z" transform="translate(-71.834 -104.6)" fill="#26aab7"/>
      <path id="Trazado_99147" data-name="Trazado 99147" d="M161.63,182.478s-23.306-14.457-36.054,17.038,11.765,36.668,11.765,36.668a209.633,209.633,0,0,0,24.289-53.707Z" transform="translate(-91.888 -116.484)" fill="#26aab7"/>
      <g id="Grupo_53265" data-name="Grupo 53265" transform="translate(27.699 28.453)" opacity="0.5">
        <path id="Trazado_99148" data-name="Trazado 99148" d="M186.664,148.53c.145,0-.19,2.167-.9,6.022s-1.788,9.43-3.285,16.29l-3.24,11.027q-.883,2.961-1.821,6.134l-.95,3.207c-.346,1.117-.8,2.134-1.207,3.218l-5.262,13.586c-.458,1.184-.927,2.369-1.385,3.564s-1.117,2.335-1.642,3.519l-3.464,7.15-3.475,7.139c-.592,1.117-1.117,2.369-1.754,3.464s-1.307,2.235-1.944,3.3l-7.43,12.547c-.6.983-1.117,2-1.788,2.938l-1.933,2.737-3.709,5.229-6.7,9.351c-4.469,5.4-8.2,9.653-10.77,12.614a36.613,36.613,0,0,1-4.167,4.469,36.1,36.1,0,0,1,3.575-4.938c2.48-3.162,5.977-7.586,10.268-13.027l6.424-9.418,3.6-5.24c.626-.894,1.251-1.81,1.888-2.737s1.117-1.944,1.732-2.938l7.34-12.536,1.911-3.285c.659-1.117,1.117-2.234,1.732-3.441l3.441-7.095c1.117-2.4,2.313-4.76,3.452-7.095.536-1.117,1.184-2.3,1.631-3.486l1.4-3.531,5.341-13.407c.413-1.117.883-2.112,1.24-3.184s.659-2.123.983-3.173l1.9-6.067,3.43-10.893,3.877-16.089a36.063,36.063,0,0,1,1.676-5.922Z" transform="translate(-119.83 -148.53)"/>
      </g>
      <g id="Grupo_53266" data-name="Grupo 53266" transform="translate(138.151 214.86)" opacity="0.4">
        <path id="Trazado_99149" data-name="Trazado 99149" d="M218.69,347.357c2.134,3.866,4.3,7.821,7.441,10.871s7.43,5.218,11.9,4.771,8.547-4.089,8.592-8.491c2.1,1.575,5.329.726,7.072-1.251s2.313-4.715,2.514-7.34c2.86,1.687,6.838.357,8.748-2.357a11.329,11.329,0,0,0,1.117-9.564,33.707,33.707,0,0,0-4.592-8.793c2.235.179,4.536.335,6.5-.659s3.352-3.609,2.156-5.486a5.4,5.4,0,0,0-3.207-2.045c-3.452-1.117-5.866-1.944-9.463-1.531-.827,0,1.441,9.474-21.094,22.412C223,345.547,218.69,347.357,218.69,347.357Z" transform="translate(-218.69 -315.373)"/>
      </g>
      <path id="Trazado_99150" data-name="Trazado 99150" d="M266.511,356.256c0,.1-1.508-.19-3.944-.123a22.345,22.345,0,0,0-16.558,7.944c-1.575,1.855-2.235,3.207-2.38,3.151a3.44,3.44,0,0,1,.436-.983,19.562,19.562,0,0,1,1.62-2.436,21.227,21.227,0,0,1,16.882-8.089,17.017,17.017,0,0,1,2.9.268,3.051,3.051,0,0,1,1.039.268Z" transform="translate(-77.614 -95.782)" fill="#eb996e"/>
      <path id="Trazado_99151" data-name="Trazado 99151" d="M220,340.672c3.631,3.486,6.111,7.34,9.921,10.849,1.732,1.6,4.469,4.614,6.7,5.016s3.8.1,4.715-2.067c.749-1.754-.592-4.156-1.508-5.586-2.424-3.81-4.748-6.782-6.558-9.742-.86-1.385.246-1.676.648-1.028,1.743,1.81,4.357,3.352,5.921,5.352,2.145,2.693,2.525,6.279,8.134,5.139a4.894,4.894,0,0,0,2.078-.86c2.112-1.62,2.235-4.469,1.318-6.7a18.233,18.233,0,0,0-3.128-4.715c2.391,2.693,4.994,5.586,8.793,5.832a5.218,5.218,0,0,0,5.307-2.871c1.117-2.547-.48-5.017-2.1-7.005a73.382,73.382,0,0,0-9.53-9.742,7.3,7.3,0,0,0-4.625-1.709c-1.966,0-4.469.358-5.586,2.056a7.653,7.653,0,0,0-1.531,5.843s-4.916-2.491-8.871.112a12.581,12.581,0,0,0-4.938,7.106Z" transform="translate(-80.385 -99.873)" fill="#ffbe9d"/>
      <path id="Trazado_99152" data-name="Trazado 99152" d="M243.6,320.991a5.9,5.9,0,0,1-.693-6.7c.838-1.642,1.888-3.24,2.961-3.6,4.681-1.575,25.15,1.966,24.96,6.5s-1.687,6.7-12.781,5.106c-1.955-.279-5.016-.659-5.016-.659l-2.681,4.022Z" transform="translate(-77.786 -101.107)" fill="#ffbe9d"/>
      <path id="Trazado_99153" data-name="Trazado 99153" d="M247.913,337.963A26.691,26.691,0,0,0,236.64,327.74a6.5,6.5,0,0,1,2.168.76,19.451,19.451,0,0,1,8.134,7.374,6.245,6.245,0,0,1,.972,2.089Z" transform="translate(-78.434 -99.063)" fill="#eb996e"/>
      <path id="Trazado_99154" data-name="Trazado 99154" d="M250.517,324.819c-.1.089-1.452-1.006-3.3-2.134a23.96,23.96,0,0,0-2.391-1.33c-.637-.29-1.061-.369-1.05-.458s.48-.134,1.184.078a10.837,10.837,0,0,1,2.57,1.218C249.422,323.345,250.662,324.7,250.517,324.819Z" transform="translate(-77.597 -99.874)" fill="#eb996e"/>
      <path id="Trazado_99155" data-name="Trazado 99155" d="M253.647,320.907a8.748,8.748,0,0,1-3.944-.447,7.284,7.284,0,0,1-2.525-1.363c-.559-.48-.793-.871-.737-.927a16.761,16.761,0,0,0,3.43,1.7,29.4,29.4,0,0,1,3.776,1.039Z" transform="translate(-77.286 -100.185)" fill="#eb996e"/>
      <path id="Trazado_99156" data-name="Trazado 99156" d="M236.8,342.988a14.523,14.523,0,0,1-1.866-2.424,21.707,21.707,0,0,0-4.771-5.43,9.6,9.6,0,0,0-6.771-1.788,11.489,11.489,0,0,0-2.849.9,2.945,2.945,0,0,1,.659-.514,6.234,6.234,0,0,1,2.123-.8,9.541,9.541,0,0,1,7.173,1.732,19.352,19.352,0,0,1,4.782,5.665A18.2,18.2,0,0,1,236.8,342.988Z" transform="translate(-80.322 -98.468)" fill="#eb996e"/>
      <path id="Trazado_99157" data-name="Trazado 99157" d="M250.862,382.42a62.554,62.554,0,0,1-8.357,1.2,60.587,60.587,0,0,1-8.435.626,62.946,62.946,0,0,1,8.368-1.2,62.569,62.569,0,0,1,8.424-.626Z" transform="translate(-78.735 -92.651)" fill="#eb996e"/>
    </g>
    <g id="freepik--Stars--inject-2" transform="translate(112.55 52.883)">
      <path id="Trazado_99158" data-name="Trazado 99158" d="M407,49.84l1.262,2.313,2.3,1.262-2.3,1.263L407,56.979l-1.263-2.3-2.3-1.263,2.3-1.262Z" transform="translate(-7.114 -49.84)" fill="#f5ca56"/>
      <path id="Trazado_99159" data-name="Trazado 99159" d="M430.615,101.01l1.263,2.313,2.3,1.262-2.3,1.263-1.263,2.3-1.263-2.3-2.313-1.263,2.313-1.262Z" transform="translate(-4.347 -43.84)" fill="#f5ca56"/>
      <path id="Trazado_99160" data-name="Trazado 99160" d="M52.274,237.53l1.262,2.313,2.313,1.263-2.313,1.251-1.262,2.313-1.263-2.313-2.3-1.251,2.3-1.263Z" transform="translate(-48.71 -27.832)" fill="#f5ca56"/>
      <path id="Trazado_99161" data-name="Trazado 99161" d="M376.524,62.56l2.916,5.329,5.329,2.916-5.329,2.9-2.916,5.329-2.9-5.329-5.329-2.9,5.329-2.916Z" transform="translate(-11.236 -48.348)" fill="#f5ca56"/>
      <path id="Trazado_99162" data-name="Trazado 99162" d="M73.923,205.1l2.9,5.307,5.318,2.9-5.318,2.916-2.9,5.307-2.9-5.307L65.7,213.312l5.318-2.9Z" transform="translate(-46.718 -31.634)" fill="#f5ca56"/>
      <path id="Trazado_99163" data-name="Trazado 99163" d="M437.523,318.56l2.9,5.318,5.307,2.9-5.307,2.9-2.9,5.318-2.9-5.318-5.318-2.9,5.318-2.9Z" transform="translate(-4.082 -18.33)" fill="#f5ca56"/>
    </g>
  </g>
</svg>
