<svg xmlns="http://www.w3.org/2000/svg" width="400" height="309.971" viewBox="0 0 400 309.971">
  <g id="At_the_office-rafiki" data-name="At the office-rafiki" transform="translate(0 -55)">
    <g id="freepik--background-complete--inject-34" transform="translate(0 55)">
      <rect id="Rectángulo_30630" data-name="Rectángulo 30630" width="400" height="0.208" transform="translate(0 272.397)" fill="#ebebeb"/>
      <rect id="Rectángulo_30631" data-name="Rectángulo 30631" width="21.183" height="0.208" transform="translate(231.67 278.063)" fill="#ebebeb"/>
      <rect id="Rectángulo_30632" data-name="Rectángulo 30632" width="50.195" height="0.208" transform="translate(312.732 282.564)" fill="#ebebeb"/>
      <rect id="Rectángulo_30633" data-name="Rectángulo 30633" width="51.859" height="0.208" transform="translate(176.954 278.163)" fill="#ebebeb"/>
      <rect id="Rectángulo_30634" data-name="Rectángulo 30634" width="10.849" height="0.208" transform="translate(135.055 284.386)" fill="#ebebeb"/>
      <rect id="Rectángulo_30635" data-name="Rectángulo 30635" width="49.404" height="0.208" transform="translate(154.928 284.386)" fill="#ebebeb"/>
      <rect id="Rectángulo_30636" data-name="Rectángulo 30636" width="31.99" height="0.208" transform="translate(43.647 280.875)" fill="#ebebeb"/>
      <path id="Trazado_128219" data-name="Trazado 128219" d="M203.6,290.29H42.952a4.751,4.751,0,0,1-4.742-4.751V59.709A4.751,4.751,0,0,1,42.952,55H203.6a4.751,4.751,0,0,1,4.751,4.751V285.539A4.751,4.751,0,0,1,203.6,290.29ZM42.952,55.166a4.543,4.543,0,0,0-4.534,4.543v225.83a4.543,4.543,0,0,0,4.534,4.543H203.6a4.551,4.551,0,0,0,4.543-4.543V59.709a4.551,4.551,0,0,0-4.543-4.543Z" transform="translate(-6.419 -55)" fill="#ebebeb"/>
      <path id="Trazado_128220" data-name="Trazado 128220" d="M419.91,290.29H259.251a4.759,4.759,0,0,1-4.751-4.751V59.709A4.759,4.759,0,0,1,259.251,55H419.91a4.751,4.751,0,0,1,4.734,4.709v225.83A4.751,4.751,0,0,1,419.91,290.29ZM259.251,55.166a4.551,4.551,0,0,0-4.543,4.543v225.83a4.551,4.551,0,0,0,4.543,4.543H419.91a4.551,4.551,0,0,0,4.543-4.543V59.709a4.551,4.551,0,0,0-4.543-4.543Z" transform="translate(-58.756 -55)" fill="#ebebeb"/>
      <path id="Trazado_128221" data-name="Trazado 128221" d="M114.7,256.57s-.366,10.816-14.66,10.816S85.38,256.57,85.38,256.57Z" transform="translate(-17.283 -88.864)" fill="#f0f0f0"/>
      <path id="Trazado_128222" data-name="Trazado 128222" d="M156.35,256.57s-.374,10.816-14.66,10.816-14.66-10.816-14.66-10.816Z" transform="translate(-25.714 -88.864)" fill="#f0f0f0"/>
      <rect id="Rectángulo_30637" data-name="Rectángulo 30637" width="32.806" height="79.364" transform="translate(59.355 185.661)" fill="#f0f0f0"/>
      <rect id="Rectángulo_30638" data-name="Rectángulo 30638" width="106.088" height="7.372" transform="translate(62.264 265.025)" fill="#f0f0f0"/>
      <rect id="Rectángulo_30639" data-name="Rectángulo 30639" width="85.879" height="79.364" transform="translate(173.573 265.034) rotate(180)" fill="#f5f5f5"/>
      <rect id="Rectángulo_30640" data-name="Rectángulo 30640" width="60.079" height="24.419" transform="translate(160.421 219.74) rotate(180)" fill="#f0f0f0"/>
      <rect id="Rectángulo_30641" data-name="Rectángulo 30641" width="60.079" height="24.419" transform="translate(160.421 251.114) rotate(180)" fill="#f0f0f0"/>
      <rect id="Rectángulo_30642" data-name="Rectángulo 30642" width="90.247" height="7.114" transform="translate(87.634 178.547)" fill="#f0f0f0"/>
      <rect id="Rectángulo_30643" data-name="Rectángulo 30643" width="37.39" height="7.114" transform="translate(92.161 185.669) rotate(180)" fill="#e6e6e6"/>
      <rect id="Rectángulo_30644" data-name="Rectángulo 30644" width="167.19" height="120.024" transform="translate(148.81 17.439)" fill="#fafafa"/>
      <path id="Trazado_128223" data-name="Trazado 128223" d="M202.58,195.984,245.112,75.96h31.916L234.5,195.984Z" transform="translate(-41.929 -58.521)" fill="#fff"/>
      <path id="Trazado_128224" data-name="Trazado 128224" d="M305.73,195.984,348.254,75.96h11.64L317.37,195.984Z" transform="translate(-62.61 -58.521)" fill="#fff"/>
      <path id="Trazado_128225" data-name="Trazado 128225" d="M364.55,71H181.419a.749.749,0,0,0-.749.741h0a.749.749,0,0,0,.749.749H364.55a.749.749,0,0,0,.749-.749h0a.749.749,0,0,0-.749-.74Z" transform="translate(-40.747 -57.688)" fill="#e0e0e0"/>
      <rect id="Rectángulo_30645" data-name="Rectángulo 30645" width="1.98" height="120.54" transform="translate(234.288 137.721) rotate(180)" fill="#f0f0f0"/>
      <rect id="Rectángulo_30646" data-name="Rectángulo 30646" width="0.99" height="120.54" transform="translate(235.216 137.721) rotate(180)" fill="#e0e0e0"/>
      <rect id="Rectángulo_30647" data-name="Rectángulo 30647" width="1.98" height="169.503" transform="translate(147.632 78.449) rotate(-90)" fill="#f0f0f0"/>
      <path id="Trazado_128226" data-name="Trazado 128226" d="M359.263,194.927h0V74.57H189.76V194.927h0v1.98h169.5Zm-167.523,0V76.592H357.308V194.927Z" transform="translate(-42.128 -58.288)" fill="#f0f0f0"/>
      <rect id="Rectángulo_30648" data-name="Rectángulo 30648" width="0.99" height="122.337" transform="translate(315.752 138.62) rotate(180)" fill="#e0e0e0"/>
      <path id="Trazado_128227" data-name="Trazado 128227" d="M363.95,68.82V209.769h35.784L393.17,68.82Z" transform="translate(-73.886 -57.322)" fill="#ebebeb" opacity="0.5"/>
      <path id="Trazado_128228" data-name="Trazado 128228" d="M213.264,68.82V209.769H177.48L184.044,68.82Z" transform="translate(-36.031 -57.322)" fill="#ebebeb" opacity="0.5"/>
      <rect id="Rectángulo_30649" data-name="Rectángulo 30649" width="175.685" height="28.962" transform="translate(190.244 171.117)" fill="#ebebeb"/>
      <rect id="Rectángulo_30650" data-name="Rectángulo 30650" width="64.63" height="25.517" transform="translate(299.178 172.84)" fill="#f5f5f5"/>
      <rect id="Rectángulo_30651" data-name="Rectángulo 30651" width="64.63" height="25.517" transform="translate(236.948 172.84)" fill="#f5f5f5"/>
      <path id="Trazado_128229" data-name="Trazado 128229" d="M289.957,367.8H286.08l8.3-72.317h3.877Z" transform="translate(-57.492 -95.401)" fill="#f5f5f5"/>
      <path id="Trazado_128230" data-name="Trazado 128230" d="M248.885,367.8H245l8.3-72.317h3.885Z" transform="translate(-49.236 -95.401)" fill="#f5f5f5"/>
      <path id="Trazado_128231" data-name="Trazado 128231" d="M414.515,367.8H418.4l-8.3-72.317H406.22Z" transform="translate(-84.245 -95.401)" fill="#f5f5f5"/>
      <path id="Trazado_128232" data-name="Trazado 128232" d="M455.585,367.8h3.885l-8.3-72.317H447.29Z" transform="translate(-91.145 -95.401)" fill="#f5f5f5"/>
      <path id="Trazado_128233" data-name="Trazado 128233" d="M345.884,222.33H332.3l-5.658,31.9h13.587Z" transform="translate(-65.835 -83.111)" fill="#e0e0e0"/>
      <path id="Trazado_128234" data-name="Trazado 128234" d="M370.747,189H294.76l2.313,46.226H373.06Z" transform="translate(-61.139 -77.512)" fill="#e6e6e6"/>
      <path id="Trazado_128235" data-name="Trazado 128235" d="M369.374,190.32H296.99l2.2,44.029h72.384Z" transform="translate(-61.474 -77.734)" fill="#fafafa"/>
      <rect id="Rectángulo_30652" data-name="Rectángulo 30652" width="2.671" height="1.231" rx="0.616" transform="translate(326.476 167.257) rotate(180)" fill="#e0e0e0"/>
      <path id="Trazado_128236" data-name="Trazado 128236" d="M439.875,191.051,423.4,207.525a11.649,11.649,0,0,1,16.474-16.474Z" transform="translate(-86.558 -77.283)" fill="#e6e6e6"/>
      <path id="Trazado_128237" data-name="Trazado 128237" d="M416.042,191.973l6.423,6.423,8.32-8.32-6.423-6.415a5.874,5.874,0,0,0-8.32,0h0a5.874,5.874,0,0,0,0,8.312Z" transform="translate(-85.606 -76.325)" fill="#e6e6e6"/>
      <rect id="Rectángulo_30653" data-name="Rectángulo 30653" width="1.389" height="38.771" transform="translate(305.897 134.645) rotate(-135)" fill="#e6e6e6"/>
      <rect id="Rectángulo_30654" data-name="Rectángulo 30654" width="1.389" height="38.771" transform="matrix(-0.86, 0.51, -0.51, -0.86, 325.915, 167.284)" fill="#e6e6e6"/>
      <circle id="Elipse_4311" data-name="Elipse 4311" cx="2.396" cy="2.396" r="2.396" transform="translate(328.04 104.973)" fill="#e6e6e6"/>
      <circle id="Elipse_4312" data-name="Elipse 4312" cx="1.531" cy="1.531" r="1.531" transform="translate(304.694 132.654)" fill="#e6e6e6"/>
      <path id="Trazado_128238" data-name="Trazado 128238" d="M399.072,255.28h11.29l.89,4.484H398.19Z" transform="translate(-80.051 -88.647)" fill="#e6e6e6"/>
    </g>
    <g id="freepik--Shadow--inject-34" transform="translate(46.684 346.133)">
      <ellipse id="freepik--path--inject-34" cx="153.316" cy="9.418" rx="153.316" ry="9.418" fill="#f5f5f5"/>
    </g>
    <g id="freepik--Board--inject-34" transform="translate(67.774 85.925)">
      <path id="Trazado_128239" data-name="Trazado 128239" d="M300.644,225.058H102.17a10.3,10.3,0,0,1-10.217-9.984l-2.6-112.42A9.734,9.734,0,0,1,99.1,92.67H297.574a10.3,10.3,0,0,1,10.217,9.984l2.579,112.42a9.734,9.734,0,0,1-9.726,9.984Z" transform="translate(-88.93 -92.254)" fill="#7d6eb2"/>
      <path id="Trazado_128240" data-name="Trazado 128240" d="M300.56,225.39H102.086A10.7,10.7,0,0,1,91.47,215.006L88.849,102.578A10.142,10.142,0,0,1,99.016,92.17H297.49a10.7,10.7,0,0,1,10.633,10.392l2.6,112.42A10.142,10.142,0,0,1,300.56,225.39ZM99.016,93a9.31,9.31,0,0,0-9.335,9.56L92.3,214.982a9.859,9.859,0,0,0,9.8,9.576H300.56a9.318,9.318,0,0,0,9.335-9.551l-2.6-112.428A9.859,9.859,0,0,0,297.49,93Z" transform="translate(-88.846 -92.17)" fill="#7d6eb2"/>
      <path id="Trazado_128241" data-name="Trazado 128241" d="M302.644,225.058H104.17a10.3,10.3,0,0,1-10.217-9.984l-2.6-112.42A9.734,9.734,0,0,1,101.1,92.67H299.574a10.3,10.3,0,0,1,10.217,9.984l2.579,112.42a9.734,9.734,0,0,1-9.726,9.984Z" transform="translate(-89.266 -92.254)" fill="#f5f5f5"/>
      <path id="Trazado_128242" data-name="Trazado 128242" d="M302.56,225.39H104.086A10.7,10.7,0,0,1,93.47,215.006L90.849,102.578A10.142,10.142,0,0,1,101.016,92.17H299.49a10.7,10.7,0,0,1,10.633,10.392l2.6,112.42A10.142,10.142,0,0,1,302.56,225.39ZM101.016,93a9.31,9.31,0,0,0-9.335,9.56L94.3,214.982a9.859,9.859,0,0,0,9.8,9.576H302.56a9.318,9.318,0,0,0,9.335-9.551l-2.6-112.428A9.859,9.859,0,0,0,299.49,93Z" transform="translate(-89.182 -92.17)" fill="#7d6eb2"/>
      <path id="Trazado_128243" data-name="Trazado 128243" d="M135.52,126.922l-13.42-12.48c6.348-6.856,17.63-6.856,24.96,0a19.485,19.485,0,0,1,5.158,7.921Z" transform="translate(-94.433 -95.048)" fill="#c1507f"/>
      <path id="Trazado_128244" data-name="Trazado 128244" d="M131.3,128.287l-17.472,1.539a17.38,17.38,0,0,1,.433-7.588,16.107,16.107,0,0,1,3.636-6.448Z" transform="translate(-91.366 -95.822)" fill="#c1507f" opacity="0.2"/>
      <path id="Trazado_128245" data-name="Trazado 128245" d="M135.282,132,125.6,142.467a16.457,16.457,0,0,1-3.253-4.21,15.567,15.567,0,0,1-1.664-4.992Z" transform="translate(-94.194 -98.861)" fill="#fff"/>
      <path id="Trazado_128246" data-name="Trazado 128246" d="M137.026,132.786l16.732-4.576a16.94,16.94,0,0,1-3.328,17.073c-6.348,6.856-17.63,6.856-24.96,0Z" transform="translate(-94.999 -98.225)" fill="#c1507f" opacity="0.6"/>
      <path id="Trazado_128247" data-name="Trazado 128247" d="M190.77,126.922l-13.42-12.48c6.348-6.856,17.63-6.856,24.96,0a19.51,19.51,0,0,1,5.167,7.921Z" transform="translate(-103.714 -95.048)" fill="#c1507f" opacity="0.2"/>
      <path id="Trazado_128248" data-name="Trazado 128248" d="M186.535,128.287l-17.472,1.539a17.255,17.255,0,0,1,.441-7.588,15.991,15.991,0,0,1,3.628-6.448Z" transform="translate(-102.283 -96.138)" fill="#c1507f"/>
      <path id="Trazado_128249" data-name="Trazado 128249" d="M190.53,132l-9.693,10.467a16.456,16.456,0,0,1-3.253-4.21,15.567,15.567,0,0,1-1.664-4.992Z" transform="translate(-107.372 -97.861)" fill="#c1507f" opacity="0.6"/>
      <path id="Trazado_128250" data-name="Trazado 128250" d="M192.266,132.786,209,128.21a16.915,16.915,0,0,1-3.328,17.073c-6.348,6.856-17.63,6.856-24.96,0Z" transform="translate(-104.279 -98.225)" fill="#fff"/>
      <g id="Grupo_55751" data-name="Grupo 55751" transform="translate(14.629 19.427)" opacity="0.3">
        <path id="Trazado_128251" data-name="Trazado 128251" d="M106.846,213.146H106.8a.433.433,0,0,1-.374-.458c.948-9.8,7.022-19.194,16.249-25.118,8-5.133,18.154-7.729,29.444-7.488,2.9.058,5.824.3,8.678.541a91.965,91.965,0,0,0,13.037.449c4.867-.291,13.8-1.78,18.928-8.52a35.477,35.477,0,0,0,4.16-8.054c1.381-3.328,2.8-6.831,5.358-9.51,3.395-3.569,8.611-5.6,15.517-6.04a97.338,97.338,0,0,1,10.691.1c3.07.141,6.248.291,9.368.166,5.508-.216,13.121-1.539,18.088-6.656a34.712,34.712,0,0,0,5.391-8.187c.832-1.5,1.622-3.053,2.546-4.518a34.386,34.386,0,0,1,12.746-11.864.408.408,0,0,1,.557.166.424.424,0,0,1-.166.566,33.571,33.571,0,0,0-12.48,11.648c-.907,1.439-1.731,2.979-2.5,4.468a35.18,35.18,0,0,1-5.533,8.378c-4.085,4.16-10.533,6.564-18.653,6.881-3.145.125-6.34,0-9.427-.166a98.014,98.014,0,0,0-10.608-.1c-6.656.424-11.723,2.371-14.976,5.824-2.446,2.563-3.836,5.965-5.192,9.252a36.009,36.009,0,0,1-4.252,8.245c-5.333,7-14.535,8.545-19.552,8.844a92.128,92.128,0,0,1-13.146-.458c-2.829-.233-5.757-.474-8.628-.532-11.091-.233-21.124,2.321-28.979,7.363-9.011,5.824-14.976,14.976-15.866,24.5A.433.433,0,0,1,106.846,213.146Z" transform="translate(-106.429 -115.926)" fill="#7d6eb2"/>
        <path id="Trazado_128252" data-name="Trazado 128252" d="M311.6,121.693h-.075a.416.416,0,0,1-.291-.508l.907-3.536a8.446,8.446,0,0,1,.391-1.181.092.092,0,0,0,0-.092,40.7,40.7,0,0,0-7.813.965.413.413,0,1,1-.175-.807,43.006,43.006,0,0,1,7.9-1.015.907.907,0,0,1,.765.383.924.924,0,0,1,.091.89,8.323,8.323,0,0,0-.349,1.065l-.915,3.536A.408.408,0,0,1,311.6,121.693Z" transform="translate(-139.657 -115.52)" fill="#7d6eb2"/>
      </g>
    </g>
    <g id="freepik--character-2--inject-34" transform="translate(217.917 101.453)">
      <path id="Trazado_128253" data-name="Trazado 128253" d="M349.662,111.712s-11.648-5.108-15.068,9.293C331.824,132.6,326,136.947,326,136.947s20.592,7.954,32.074-1.373Z" transform="translate(-288.685 -110.833)" fill="#263238"/>
      <path id="Trazado_128254" data-name="Trazado 128254" d="M330.682,169.644c-.424,1.148-.832,2.13-1.281,3.162s-.915,2.022-1.389,3.02c-.957,2-2.038,3.927-3.137,5.824a72.033,72.033,0,0,1-7.713,10.924l-.557.632c-.2.225-.3.366-.716.79a6.572,6.572,0,0,1-2.779,1.664,6.847,6.847,0,0,1-2.954.166,9.318,9.318,0,0,1-2.28-.666,16.239,16.239,0,0,1-3.328-2,32.018,32.018,0,0,1-2.679-2.3,57.534,57.534,0,0,1-8.27-10.417l2.954-2.23a85.7,85.7,0,0,0,9.052,8.32,17.322,17.322,0,0,0,4.593,2.7c.666.225,1.123.125,1.007.092s-.108,0-.083,0a3.759,3.759,0,0,0,.316-.424l.458-.6a84.9,84.9,0,0,0,6.573-10.25c.982-1.8,1.9-3.636,2.787-5.483.441-.924.874-1.847,1.29-2.779s.832-1.905,1.165-2.746Z" transform="translate(-283.242 -120.275)" fill="#ffc3bd"/>
      <path id="Trazado_128255" data-name="Trazado 128255" d="M333.586,158.14c-3.112-.116-8.586,11.2-8.586,11.2l8.1,9.809s9.435-11.839,8.145-15.667C339.86,159.5,338.112,158.3,333.586,158.14Z" transform="translate(-288.517 -118.78)" fill="#263238"/>
      <path id="Trazado_128256" data-name="Trazado 128256" d="M333.85,161.42l-4.21,13.187,3.794,4.584Z" transform="translate(-289.296 -119.331)" opacity="0.2"/>
      <path id="Trazado_128257" data-name="Trazado 128257" d="M294.611,183.411,286,181.231l5.824-4.6s4.326,1.822,4.6,4.851Z" transform="translate(-281.965 -121.886)" fill="#ffc3bd"/>
      <path id="Trazado_128258" data-name="Trazado 128258" d="M281.15,177.048l4.468-3.328,5.358,2.421-5.832,4.6Z" transform="translate(-281.15 -121.398)" fill="#ffc3bd"/>
      <path id="Trazado_128259" data-name="Trazado 128259" d="M360.255,398.813h-7.3l.358-16.923h7.3Z" transform="translate(-293.212 -156.37)" fill="#ffc3bd"/>
      <path id="Trazado_128260" data-name="Trazado 128260" d="M349.349,401.21h8.237a.582.582,0,0,1,.582.5l.932,6.5a1.173,1.173,0,0,1-1.173,1.3c-2.862-.05-4.243-.216-7.854-.216-2.221,0-8.595.233-11.648.233s-3.228-3.037-1.955-3.328c5.724-1.231,9.768-2.929,11.7-4.551A1.913,1.913,0,0,1,349.349,401.21Z" transform="translate(-290.318 -159.616)" fill="#263238"/>
      <g id="Grupo_55752" data-name="Grupo 55752" transform="translate(59.912 225.52)" opacity="0.2">
        <path id="Trazado_128261" data-name="Trazado 128261" d="M353.343,381.89l-.183,8.728h7.3l.191-8.728Z" transform="translate(-353.16 -381.89)"/>
      </g>
      <path id="Trazado_128262" data-name="Trazado 128262" d="M331.786,161.244c-.158,4.626.641,15.417,5.5,40.535l29.669-.882c-.832-12.056-1.09-19.5,3.944-44.454a88.406,88.406,0,0,0-12.646-1.29,94.338,94.338,0,0,0-13.478.408c-3.428.416-7.13,1.123-9.56,1.664A4.3,4.3,0,0,0,331.786,161.244Z" transform="translate(-289.654 -118.265)" fill="#263238"/>
      <path id="Trazado_128263" data-name="Trazado 128263" d="M358.893,137c-.724,4.36-1.331,12.33,1.789,15.126a16.807,16.807,0,0,1-10.292,7.338c-6.839-3.469-3.187-6.939-3.187-6.939,4.8-1.3,4.568-4.884,3.628-8.228Z" transform="translate(-292.083 -115.229)" fill="#ffc3bd"/>
      <path id="Trazado_128264" data-name="Trazado 128264" d="M351.23,163.651l.882-1.731,4.751,1.073Z" transform="translate(-292.923 -119.415)" fill="#e0e0e0"/>
      <path id="Trazado_128265" data-name="Trazado 128265" d="M352.29,160.561c1.531-.7,8.586-5.292,8.861-6.731.557.607,3.544.79,3.544.79s-1.789,8.212-5.25,14.219C357.082,163.481,354.836,162.225,352.29,160.561Z" transform="translate(-293.102 -118.056)" fill="#fff"/>
      <path id="Trazado_128266" data-name="Trazado 128266" d="M350.561,163.651l-.4-1.731-2.912.208Z" transform="translate(-292.255 -119.415)" fill="#e0e0e0"/>
      <path id="Trazado_128267" data-name="Trazado 128267" d="M349.293,160.655c-2.355-1.564-1.78-4.834-1.548-6.265-.557.6-3.544.782-3.544.782s-4.227,7.754-.757,13.761C345.083,164.624,346.747,162.319,349.293,160.655Z" transform="translate(-291.386 -118.15)" fill="#fff"/>
      <path id="Trazado_128268" data-name="Trazado 128268" d="M356.537,140.57,351.77,144.9a14.368,14.368,0,0,1,.483,2.38c1.839-.324,4.318-2.429,4.451-4.368a6.49,6.49,0,0,0-.166-2.338Z" transform="translate(-293.014 -115.828)" opacity="0.2"/>
      <path id="Trazado_128269" data-name="Trazado 128269" d="M360.145,122.953c-.091,7.255,0,10.325-3.444,14.211-5.225,5.824-14.144,4.16-16.191-2.979-1.864-6.415-1.406-17.2,5.533-20.426a9.892,9.892,0,0,1,14.1,9.194Z" transform="translate(-290.965 -111.166)" fill="#ffc3bd"/>
      <path id="Trazado_128270" data-name="Trazado 128270" d="M361.71,129.015h0l-9.11-.449a.208.208,0,1,1,.025-.416l9.11.449a.208.208,0,0,1,.191.225.2.2,0,0,1-.216.191Z" transform="translate(-293.12 -113.742)" fill="#fff"/>
      <path id="Trazado_128271" data-name="Trazado 128271" d="M338.4,211.081s3.752,54.288,5.824,76.477c2.172,23.088,4.992,72.567,4.992,72.567h9.876s2.063-50.319,1.281-73.091c-.832-24.819-.308-76.594-.308-76.594Z" transform="translate(-290.768 -127.567)" fill="#263238"/>
      <path id="Trazado_128272" data-name="Trazado 128272" d="M361.857,389.932h-11.59l-.857-3.694,12.987-.458Z" transform="translate(-292.618 -157.024)" fill="#7d6eb2"/>
      <path id="Trazado_128273" data-name="Trazado 128273" d="M363.142,233.614c-1.2-1.331-2.5-.641-3.977,3.153-4.934,12.946.324,33.6,4.16,45.5C363.067,267.46,363.076,247.974,363.142,233.614Z" transform="translate(-293.92 -131.355)" opacity="0.2"/>
      <path id="Trazado_128274" data-name="Trazado 128274" d="M349.717,128.552c0,.591-.266,1.082-.649,1.1s-.716-.441-.749-1.032.258-1.082.649-1.1S349.717,127.961,349.717,128.552Z" transform="translate(-292.434 -113.636)" fill="#263238"/>
      <path id="Trazado_128275" data-name="Trazado 128275" d="M341.717,128.792c0,.591-.266,1.082-.649,1.1s-.716-.441-.749-1.032.258-1.082.649-1.1S341.717,128.159,341.717,128.792Z" transform="translate(-291.09 -113.676)" fill="#263238"/>
      <path id="Trazado_128276" data-name="Trazado 128276" d="M341,127.671l-1.431-.341S340.352,128.4,341,127.671Z" transform="translate(-290.965 -113.604)" fill="#263238"/>
      <path id="Trazado_128277" data-name="Trazado 128277" d="M344.694,129.53a15.65,15.65,0,0,1-1.914,3.86,2.5,2.5,0,0,0,2.122.291Z" transform="translate(-291.504 -113.974)" fill="#ed847e"/>
      <path id="Trazado_128278" data-name="Trazado 128278" d="M349.115,136.629a5.455,5.455,0,0,1-.832.108.175.175,0,0,1-.183-.166.183.183,0,0,1,.166-.175,4.643,4.643,0,0,0,3.711-2.013.175.175,0,0,1,.241-.058.166.166,0,0,1,.058.233,4.826,4.826,0,0,1-3.162,2.072Z" transform="translate(-292.398 -114.775)" fill="#263238"/>
      <path id="Trazado_128279" data-name="Trazado 128279" d="M365.927,132.2a5.275,5.275,0,0,1-2.613,3.087c-1.664.832-2.845-.557-2.687-2.313.141-1.572,1.173-3.919,2.987-4.027a2.38,2.38,0,0,1,2.313,3.253Z" transform="translate(-294.5 -113.876)" fill="#ffc3bd"/>
      <path id="Trazado_128280" data-name="Trazado 128280" d="M352.416,125.822a.333.333,0,0,1-.366-.166,4.142,4.142,0,0,0-2.862-1.614.343.343,0,1,1,.067-.682,4.665,4.665,0,0,1,3.395,1.955.341.341,0,0,1-.125.474Z" transform="translate(-292.528 -112.937)" fill="#263238"/>
      <path id="Trazado_128281" data-name="Trazado 128281" d="M339.333,124.608a.324.324,0,0,1-.324-.108.341.341,0,0,1,0-.491,3.444,3.444,0,0,1,3.029-.882.349.349,0,0,1,.25.424.358.358,0,0,1-.424.25h0a2.7,2.7,0,0,0-2.388.724.35.35,0,0,1-.141.083Z" transform="translate(-290.853 -112.887)" fill="#263238"/>
      <path id="Trazado_128282" data-name="Trazado 128282" d="M381.735,166.8c.973,3.885,1.988,7.846,3.029,11.74s2.18,7.779,3.436,11.54,2.812,7.488,4.251,11.315,2.9,7.688,4.227,11.59l-3.328,1.572c-2.163-3.528-4.16-7.114-6.132-10.758q-1.456-2.729-2.845-5.524c-.94-1.839-1.83-3.819-2.621-5.824-1.589-3.944-2.912-7.912-4.093-11.906s-2.263-7.987-3.178-12.1Z" transform="translate(-296.829 -120.235)" fill="#ffc3bd"/>
      <path id="Trazado_128283" data-name="Trazado 128283" d="M377.2,156.693c3,.832,6.872,10.941,6.872,10.941l-11.29,8.586s-4.46-8.412-3.328-12.3C370.643,159.888,373.771,155.761,377.2,156.693Z" transform="translate(-295.954 -118.515)" fill="#263238"/>
      <path id="Trazado_128284" data-name="Trazado 128284" d="M348.377,402.379a2.779,2.779,0,0,1-1.772-.449.982.982,0,0,1-.316-.832.566.566,0,0,1,.3-.458c.89-.491,3.8,1,4.16,1.165a.183.183,0,0,1,.091.183.158.158,0,0,1-.141.141,12.19,12.19,0,0,1-2.321.25Zm-1.306-1.514a.673.673,0,0,0-.316.058.216.216,0,0,0-.116.191.616.616,0,0,0,.2.557c.441.4,1.664.466,3.261.2a9.311,9.311,0,0,0-3.028-1.007Z" transform="translate(-292.092 -159.504)" fill="#7d6eb2"/>
      <path id="Trazado_128285" data-name="Trazado 128285" d="M351,401.775h-.067c-.874-.4-2.6-1.972-2.5-2.8,0-.2.175-.441.649-.491a1.248,1.248,0,0,1,.965.3c.915.765,1.082,2.729,1.09,2.812a.145.145,0,0,1-.141.175Zm-1.739-2.962h-.1c-.316,0-.341.158-.349.2-.075.5,1.09,1.739,1.98,2.28a4.018,4.018,0,0,0-.932-2.255A.882.882,0,0,0,349.263,398.813Z" transform="translate(-292.454 -159.157)" fill="#7d6eb2"/>
      <path id="Trazado_128286" data-name="Trazado 128286" d="M410.9,398.813h-7.3L399.17,381.89h7.313Z" transform="translate(-300.977 -156.37)" fill="#ffc3bd"/>
      <path id="Trazado_128287" data-name="Trazado 128287" d="M411.6,401.21h-8.212a.441.441,0,0,0-.474.5l.5,6.5a1.531,1.531,0,0,0,1.456,1.3c2.854-.05,4.16-.216,7.8-.216,2.221,0,4.435.233,7.488.233s2.563-3.037,1.223-3.328c-6-1.231-6.2-2.929-8.486-4.551A2.322,2.322,0,0,0,411.6,401.21Z" transform="translate(-301.605 -159.616)" fill="#263238"/>
      <g id="Grupo_55753" data-name="Grupo 55753" transform="translate(98.201 225.52)" opacity="0.2">
        <path id="Trazado_128288" data-name="Trazado 128288" d="M399.18,381.89l2.271,8.728h7.313l-2.28-8.728Z" transform="translate(-399.18 -381.89)"/>
      </g>
      <path id="Trazado_128289" data-name="Trazado 128289" d="M370.225,210.15c8.445,11.315,13.587,52.865,17.322,75.08,3.885,23.1,13.437,74.88,13.437,74.88h-9.876s-13.437-52.666-20.476-74.963c-7.779-24.619-19.4-74.963-19.4-74.963Z" transform="translate(-292.923 -127.518)" fill="#263238"/>
      <path id="Trazado_128290" data-name="Trazado 128290" d="M409.367,389.932h-11.6l-.849-3.694,12.988-.458Z" transform="translate(-300.599 -157.024)" fill="#7d6eb2"/>
      <path id="Trazado_128291" data-name="Trazado 128291" d="M414.035,400.984a2.753,2.753,0,0,0,1.406-1.173.965.965,0,0,0-.083-.9.558.558,0,0,0-.458-.283c-1.023-.058-3.012,2.538-3.236,2.837a.175.175,0,0,0,0,.2.158.158,0,0,0,.183.067A12.208,12.208,0,0,0,414.035,400.984Zm.524-1.93a.749.749,0,0,1,.316-.083.208.208,0,0,1,.183.125.616.616,0,0,1,.067.582c-.233.549-1.29,1.132-2.862,1.589a9.5,9.5,0,0,1,2.3-2.213Z" transform="translate(-303.071 -159.182)" fill="#7d6eb2"/>
      <path id="Trazado_128292" data-name="Trazado 128292" d="M411.793,401.571a.15.15,0,0,0,.058-.042c.616-.732,1.489-2.9,1.015-3.586-.116-.166-.349-.324-.832-.158a1.273,1.273,0,0,0-.741.682c-.5,1.082.2,2.929.225,3.012a.175.175,0,0,0,.133.108.158.158,0,0,0,.141-.017Zm.291-3.42.1-.042c.3-.108.374,0,.391,0,.291.408-.233,2.03-.832,2.9a4.01,4.01,0,0,1-.133-2.438A.882.882,0,0,1,412.084,398.152Z" transform="translate(-302.984 -159.029)" fill="#7d6eb2"/>
      <path id="Trazado_128293" data-name="Trazado 128293" d="M349,127.481l-1.431-.341S348.352,128.213,349,127.481Z" transform="translate(-292.309 -113.572)" fill="#263238"/>
      <path id="Trazado_128294" data-name="Trazado 128294" d="M368.264,207.957l.832,2.637c.108.2-.133.416-.474.433l-30.534.907c-.266,0-.491-.116-.516-.283L337.23,209c0-.183.2-.341.491-.349l30.044-.9a.557.557,0,0,1,.5.208Z" transform="translate(-290.571 -127.114)" fill="#7d6eb2"/>
      <path id="Trazado_128295" data-name="Trazado 128295" d="M369.639,211.461h.832c.158,0,.275-.092.266-.191l-.483-3.444c0-.1-.158-.175-.316-.175h-.832c-.158,0-.275.092-.266.191l.483,3.444C369.339,211.386,369.481,211.461,369.639,211.461Z" transform="translate(-295.882 -127.098)" fill="#263238"/>
      <path id="Trazado_128296" data-name="Trazado 128296" d="M340.839,212.312h.832c.158,0,.275-.092.266-.191l-.483-3.436c0-.1-.158-.183-.316-.175h-.832c-.158,0-.275.092-.266.191l.483,3.436C340.539,212.246,340.681,212.32,340.839,212.312Z" transform="translate(-291.043 -127.242)" fill="#263238"/>
      <path id="Trazado_128297" data-name="Trazado 128297" d="M355.239,211.881h.832c.158,0,.275-.092.266-.2l-.483-3.436c0-.1-.158-.175-.316-.175h-.832c-.158,0-.275.092-.266.191l.483,3.436C354.906,211.814,355.081,211.889,355.239,211.881Z" transform="translate(-293.463 -127.168)" fill="#263238"/>
      <path id="Trazado_128298" data-name="Trazado 128298" d="M399.474,220.681l5.824,5.333-7.372.948s-2.762-3.786-1.448-6.523Z" transform="translate(-300.466 -129.247)" fill="#ffc3bd"/>
      <path id="Trazado_128299" data-name="Trazado 128299" d="M406.648,233.207l-6.215.458-2.163-5.574,7.372-.94Z" transform="translate(-300.826 -130.374)" fill="#ffc3bd"/>
      <path id="Trazado_128300" data-name="Trazado 128300" d="M352.9,112.71s-6.132-2.812-12.9,5.716c8.145,2.421,13.62.74,13.62.74Z" transform="translate(-291.037 -111.073)" fill="#263238"/>
      <path id="Trazado_128301" data-name="Trazado 128301" d="M354.44,111.85s1.481,21.441,0,32.124c8.6-2.729,16.831-11.24,16.831-11.24S370.065,109.262,354.44,111.85Z" transform="translate(-293.463 -110.97)" fill="#263238"/>
      <path id="Trazado_128302" data-name="Trazado 128302" d="M348.379,132.573c-1.93,0-3.7-2.388-3.96-5.325a5.957,5.957,0,0,1,1.2-4.476,2.5,2.5,0,0,1,1.872-.882c1.93,0,3.711,2.388,3.969,5.325h0a5.924,5.924,0,0,1-1.206,4.476,2.5,2.5,0,0,1-1.872.882Zm-.89-10.267a2.13,2.13,0,0,0-1.564.74,5.558,5.558,0,0,0-1.09,4.16c.233,2.721,1.83,4.942,3.544,4.942a2.08,2.08,0,0,0,1.564-.749,5.541,5.541,0,0,0,1.1-4.16h0C350.8,124.519,349.211,122.306,347.489,122.306Z" transform="translate(-291.77 -112.69)" fill="#fff"/>
      <path id="Trazado_128303" data-name="Trazado 128303" d="M339.815,132.573c-1.564,0-3-2.338-3.253-5.325a6.534,6.534,0,0,1,1.082-4.742,1.73,1.73,0,0,1,1.281-.616c1.564,0,2.987,2.338,3.253,5.325h0a6.583,6.583,0,0,1-1.09,4.742,1.73,1.73,0,0,1-1.273.616Zm-.89-10.267a1.281,1.281,0,0,0-.973.483,6.2,6.2,0,0,0-.973,4.426c.225,2.679,1.531,4.942,2.837,4.942a1.306,1.306,0,0,0,.965-.483,6.242,6.242,0,0,0,.982-4.426h0C341.529,124.569,340.248,122.306,338.925,122.306Z" transform="translate(-290.453 -112.69)" fill="#fff"/>
      <path id="Trazado_128304" data-name="Trazado 128304" d="M344.367,128.451h-.092a1.215,1.215,0,0,0-1.14,0,.208.208,0,0,1-.283-.067.2.2,0,0,1,.058-.283,1.664,1.664,0,0,1,1.539,0,.216.216,0,0,1,.108.275A.233.233,0,0,1,344.367,128.451Z" transform="translate(-291.51 -113.702)" fill="#fff"/>
    </g>
    <g id="freepik--Desk--inject-34" transform="translate(86.291 205.707)">
      <rect id="Rectángulo_30655" data-name="Rectángulo 30655" width="227.411" height="7.763" transform="translate(0 37.192)" fill="#7d6eb2"/>
      <rect id="Rectángulo_30656" data-name="Rectángulo 30656" width="227.411" height="7.763" transform="translate(0 37.192)" fill="#fff" opacity="0.8"/>
      <rect id="Rectángulo_30657" data-name="Rectángulo 30657" width="66.56" height="7.763" transform="translate(160.859 37.192)" fill="#7d6eb2" opacity="0.3"/>
      <path id="Trazado_128305" data-name="Trazado 128305" d="M324.083,393.754h-4.435l-5.9-103.584h10.333Z" transform="translate(-147.001 -245.215)" fill="#3c4973"/>
      <path id="Trazado_128306" data-name="Trazado 128306" d="M378.949,393.754h4.443l-5.9-103.584H367.16Z" transform="translate(-155.973 -245.215)" fill="#3c4973"/>
      <path id="Trazado_128307" data-name="Trazado 128307" d="M117.773,393.754H113.33l5.9-103.584h10.333Z" transform="translate(-113.33 -245.215)" fill="#3c4973"/>
      <path id="Trazado_128308" data-name="Trazado 128308" d="M173.83,393.754h4.435l5.9-103.584H173.83Z" transform="translate(-123.494 -245.215)" fill="#3c4973"/>
      <path id="Trazado_128309" data-name="Trazado 128309" d="M291.094,236.14H242.572a2.5,2.5,0,0,0-2.371,2.022l-5.308,30.393a1.664,1.664,0,0,0,1.664,2.013H285.07a2.5,2.5,0,0,0,2.371-2.013l5.308-30.393a1.664,1.664,0,0,0-1.656-2.022Z" transform="translate(-133.746 -236.138)" fill="#7d6eb2"/>
      <path id="Trazado_128310" data-name="Trazado 128310" d="M291.094,236.14H242.572a2.5,2.5,0,0,0-2.371,2.022l-5.308,30.393a1.664,1.664,0,0,0,1.664,2.013H285.07a2.5,2.5,0,0,0,2.371-2.013l5.308-30.393a1.664,1.664,0,0,0-1.656-2.022Z" transform="translate(-133.746 -236.138)" fill="#fff" opacity="0.2"/>
      <path id="Trazado_128311" data-name="Trazado 128311" d="M289.972,236.14H241.442a2.5,2.5,0,0,0-2.371,2.022l-5.308,30.393a1.664,1.664,0,0,0,1.664,2.013H283.94a2.5,2.5,0,0,0,2.429-2.013l5.308-30.393a1.664,1.664,0,0,0-1.706-2.022Z" transform="translate(-133.556 -236.138)" fill="#7d6eb2"/>
      <path id="Trazado_128312" data-name="Trazado 128312" d="M289.972,236.14H241.442a2.5,2.5,0,0,0-2.371,2.022l-5.308,30.393a1.664,1.664,0,0,0,1.664,2.013H283.94a2.5,2.5,0,0,0,2.429-2.013l5.308-30.393a1.664,1.664,0,0,0-1.706-2.022Z" transform="translate(-133.556 -236.138)" fill="#fff" opacity="0.4"/>
      <path id="Trazado_128313" data-name="Trazado 128313" d="M235.624,269.9a.874.874,0,0,1-.682-.283.932.932,0,0,1-.166-.757l5.308-30.393a1.664,1.664,0,0,1,1.548-1.331h48.514a.882.882,0,0,1,.682.291.924.924,0,0,1,.166.757l-5.283,30.385a1.664,1.664,0,0,1-1.548,1.331Z" transform="translate(-133.729 -236.306)" fill="#fff"/>
      <path id="Trazado_128314" data-name="Trazado 128314" d="M281.533,277.52H220.514a2.721,2.721,0,0,0-2.7,2.7h66.427a2.721,2.721,0,0,0-2.7-2.7Z" transform="translate(-130.883 -243.09)" fill="#7d6eb2"/>
      <path id="Trazado_128315" data-name="Trazado 128315" d="M281.533,277.52H220.514a2.721,2.721,0,0,0-2.7,2.7h66.427a2.721,2.721,0,0,0-2.7-2.7Z" transform="translate(-130.883 -243.09)" fill="#fff" opacity="0.4"/>
      <path id="Trazado_128316" data-name="Trazado 128316" d="M291.109,277.52H277.514a2.721,2.721,0,0,0-2.7,2.7h19a2.721,2.721,0,0,0-2.7-2.7Z" transform="translate(-140.459 -243.09)" fill="#7d6eb2" opacity="0.8"/>
      <rect id="Rectángulo_30658" data-name="Rectángulo 30658" width="10.891" height="13.578" rx="1.19" transform="translate(172.707 23.614)" fill="#7d6eb2"/>
      <path id="Trazado_128317" data-name="Trazado 128317" d="M322.511,271.922l.158-.782h-.749v-.832h.9l.216-1.1h.832l-.225,1.1h.674l.225-1.1h.874l-.225,1.1h.424v.832h-.591l-.158.782h.749v.832h-.923l-.216,1.082h-.824l.216-1.073h-.674l-.216,1.082h-.832l.216-1.082h-.424v-.832Zm.874,0h.674l.158-.782h-.674Z" transform="translate(-148.373 -241.694)" fill="#fff"/>
      <path id="Trazado_128318" data-name="Trazado 128318" d="M329.879,269.2v4.576h-1.265v-3a3.724,3.724,0,0,1-.591.383,5.6,5.6,0,0,1-.724.275v-1.023a3.18,3.18,0,0,0,1-.5,2.006,2.006,0,0,0,.549-.707Z" transform="translate(-149.277 -241.692)" fill="#fff"/>
      <path id="Trazado_128319" data-name="Trazado 128319" d="M334.454,276.908c-2.155,0-3.844-2.33-3.844-5.3s1.722-5.308,3.844-5.308,3.844,2.38,3.844,5.308S336.609,276.908,334.454,276.908Zm0-9.385c-1.423,0-2.621,1.864-2.621,4.085s1.2,4.077,2.621,4.077,2.621-1.864,2.621-4.077S335.868,267.523,334.454,267.523Z" transform="translate(-149.833 -241.205)" fill="#7d6eb2"/>
    </g>
    <g id="freepik--character-1--inject-34" transform="translate(104.577 152.51)">
      <path id="Trazado_128320" data-name="Trazado 128320" d="M176.968,232.268l-.774,1.2-.832,1.315c-.541.882-1.065,1.78-1.589,2.687-1.032,1.814-2.03,3.652-2.954,5.516a76,76,0,0,0-4.651,11.407c-.3.965-.566,1.93-.832,2.9L165,258.742l-.141.724-.075.366a.543.543,0,0,1-.05.241c0-.033-.067,0-.15-.216a1.232,1.232,0,0,0-.4-.483c-.141-.083-.166,0-.092.075a2.5,2.5,0,0,0,.574.391,9.319,9.319,0,0,0,2.238.765,27.359,27.359,0,0,0,2.854.508c1.98.258,4.16.383,6.207.491h.208A2.92,2.92,0,0,1,177,267.27a36,36,0,0,1-7.089,1.755,21.863,21.863,0,0,1-8.137-.208,11.739,11.739,0,0,1-2.5-.923,9.618,9.618,0,0,1-2.679-2.013,8.794,8.794,0,0,1-1.947-3.411,9.867,9.867,0,0,1-.341-3.528,1.8,1.8,0,0,1,.05-.591l.058-.458.108-.932c.092-.607.175-1.223.275-1.83.208-1.215.441-2.421.732-3.6a72.8,72.8,0,0,1,4.776-13.587c1.007-2.147,2.08-4.26,3.253-6.315.582-1.032,1.2-2.047,1.83-3.053.316-.508.641-1.007.982-1.514s.657-.965,1.09-1.564a5.824,5.824,0,0,1,9.626,6.54Z" transform="translate(-136.716 -180.758)" fill="#f5ca56"/>
      <path id="Trazado_128321" data-name="Trazado 128321" d="M208.286,193.524c.083.566.449.973.832.924s.6-.557.516-1.115-.449-.973-.832-.924S208.2,192.967,208.286,193.524Z" transform="translate(-145.786 -175.594)" fill="#263238"/>
      <path id="Trazado_128322" data-name="Trazado 128322" d="M208.77,194.93a20.311,20.311,0,0,0,3.395,4.4,3.262,3.262,0,0,1-2.6.9Z" transform="translate(-145.87 -176.018)" fill="#a02724"/>
      <path id="Trazado_128323" data-name="Trazado 128323" d="M205.264,190.055a.275.275,0,0,0,.183-.092,2.621,2.621,0,0,1,2.28-.774.341.341,0,0,0,.4-.258.333.333,0,0,0-.258-.391,3.278,3.278,0,0,0-2.887.948.341.341,0,0,0,0,.474.349.349,0,0,0,.283.091Z" transform="translate(-145.218 -174.937)" fill="#263238"/>
      <path id="Trazado_128324" data-name="Trazado 128324" d="M187.627,201.2c.241,5.242-.158,14.71-4.227,17.58,0,0,.624,5.366,10.084,6.781,10.392,1.548,5.741-4.426,5.741-4.426-5.475-2.2-4.7-6.39-3.12-10.192Z" transform="translate(-141.608 -177.072)" fill="#b55b52"/>
      <path id="Trazado_128325" data-name="Trazado 128325" d="M181.368,223.723c-.408-2.371-.832-5.075.957-5.491,1.964-.458,12.131.9,15.342,3.328s1.564,6.656,1.564,6.656Z" transform="translate(-141.207 -179.918)" fill="#e0e0e0"/>
      <path id="Trazado_128326" data-name="Trazado 128326" d="M205.642,233.059c.383,8.387,0,25.018-5.691,50.195H162.329c-.233-5.233,5.167-27.8,4.7-52.591a9.368,9.368,0,0,1,9.343-9.543,20.4,20.4,0,0,1,2.33.092,133.491,133.491,0,0,1,15.858,2.063c1.564.358,3.087.774,4.468,1.2a9.418,9.418,0,0,1,6.614,8.586Z" transform="translate(-138.067 -180.418)" fill="#f5ca56"/>
      <path id="Trazado_128327" data-name="Trazado 128327" d="M207.431,253.61c-.6,4.26-1.98,11.648,3,19.818.566-3.386,1.023-6.556,1.4-9.518Z" transform="translate(-145.538 -185.876)" opacity="0.2"/>
      <path id="Trazado_128328" data-name="Trazado 128328" d="M242.266,264.216l6.332-2.18-2.579-6.656a8.029,8.029,0,0,0-6.4,5.217Z" transform="translate(-151.053 -186.174)" fill="#b55b52"/>
      <path id="Trazado_128329" data-name="Trazado 128329" d="M253.242,260.015l.674-5.375-6.606.549,2.579,6.681Z" transform="translate(-152.345 -186.049)" fill="#b55b52"/>
      <path id="Trazado_128330" data-name="Trazado 128330" d="M212.017,233.636c.349,1.223.782,2.646,1.2,3.977s.832,2.7,1.315,4.035c.9,2.679,1.889,5.316,2.929,7.9a75.047,75.047,0,0,0,3.461,7.421,32.848,32.848,0,0,0,4.16,6.182l-6.1-.94c1.173-.508,2.38-1.032,3.594-1.664s2.454-1.2,3.677-1.864L230,256.708c1.248-.657,2.5-1.373,3.769-1.988l.133-.067a2.945,2.945,0,0,1,3.669,4.41,44.542,44.542,0,0,1-2.979,3.536c-1.04,1.123-2.13,2.188-3.261,3.236s-2.33,2.038-3.578,2.987a45.055,45.055,0,0,1-3.977,2.712,4.809,4.809,0,0,1-5.774-.641l-.324-.308a39.1,39.1,0,0,1-6.365-8.045,71.478,71.478,0,0,1-4.451-8.445c-1.306-2.854-2.429-5.749-3.453-8.661-.508-1.456-1-2.92-1.439-4.393s-.832-2.92-1.256-4.551a5.825,5.825,0,0,1,11.257-3Z" transform="translate(-144.483 -181.769)" fill="#f5ca56"/>
      <path id="Trazado_128331" data-name="Trazado 128331" d="M185.533,193.344c1.456,6.822,1.955,10.891,5.965,13.911,6.032,4.543,14.069.116,14.685-7.014.549-6.415-1.914-16.5-9.069-18.237a9.526,9.526,0,0,0-11.581,11.34Z" transform="translate(-141.927 -173.8)" fill="#b55b52"/>
      <path id="Trazado_128332" data-name="Trazado 128332" d="M198.232,192.793c3.261-.25,3.07-1.756,2.338-2.862s-1.622-5.084-1.622-5.084,4.534,1.2,3.6-3.145-7.055-9.843-12.405-6.473c-10.658-1.756-14.144,2.546-12.48,6.523-8.461,3.744-2.355,11.324,1.015,11.324-3,2.679,1.481,6.54,8.753,10.874C192.757,197.535,200.611,199.258,198.232,192.793Z" transform="translate(-139.925 -172.533)" fill="#263238"/>
      <path id="Trazado_128333" data-name="Trazado 128333" d="M193.053,177.075a.832.832,0,0,1-.591-.258,10.051,10.051,0,0,0-9.668-2.637.829.829,0,1,1-.383-1.614,11.8,11.8,0,0,1,11.265,3.1.829.829,0,0,1-.624,1.414Z" transform="translate(-141.335 -172.199)" fill="#263238"/>
      <path id="Trazado_128334" data-name="Trazado 128334" d="M181.339,204.215a.832.832,0,0,1-.591-.241c-2.346-2.363-3.328-4.21-3.028-5.824a3.777,3.777,0,0,1,2.363-2.7.834.834,0,0,1,.716,1.506c-.874.416-1.34.9-1.439,1.473s.233,2.013,2.571,4.36a.832.832,0,0,1-.591,1.423Z" transform="translate(-140.645 -176.093)" fill="#263238"/>
      <path id="Trazado_128335" data-name="Trazado 128335" d="M198.393,195.215a7.937,7.937,0,0,0,3.078,4.027c1.905,1.256,3.195-.166,2.945-2.221-.225-1.855-1.489-4.742-3.536-5.183S197.752,193.226,198.393,195.215Z" transform="translate(-144.096 -175.487)" fill="#b55b52"/>
      <path id="Trazado_128336" data-name="Trazado 128336" d="M276.161,407.008c.9,0,1.772-.125,2.063-.524a.641.641,0,0,0,0-.732.832.832,0,0,0-.524-.391c-1.173-.316-3.628,1.082-3.736,1.148a.15.15,0,0,0-.075.166.166.166,0,0,0,.125.141,13.194,13.194,0,0,0,2.147.191Zm1.115-1.365a1.214,1.214,0,0,1,.316.042.5.5,0,0,1,.333.233c.116.208.075.308,0,.366-.333.458-2.113.466-3.419.283a7.613,7.613,0,0,1,2.8-.923Z" transform="translate(-156.81 -211.363)" fill="#7d6eb2"/>
      <path id="Trazado_128337" data-name="Trazado 128337" d="M274.026,406.48h.067c.832-.374,2.538-1.9,2.4-2.7,0-.183-.158-.416-.616-.466a1.24,1.24,0,0,0-.924.283,4.788,4.788,0,0,0-1.1,2.712.175.175,0,0,0,.075.15A.125.125,0,0,0,274.026,406.48Zm1.722-2.854h.1c.3,0,.316.15.324.183.075.483-1.065,1.664-1.939,2.2a3.919,3.919,0,0,1,.932-2.172.9.9,0,0,1,.582-.208Z" transform="translate(-156.805 -211.026)" fill="#7d6eb2"/>
      <path id="Trazado_128338" data-name="Trazado 128338" d="M264.18,403.631h7.039l-1.34-16.291H262.84Z" transform="translate(-154.954 -208.343)" fill="#b55b52"/>
      <path id="Trazado_128339" data-name="Trazado 128339" d="M271.169,405.94H263.49a.516.516,0,0,0-.533.483l-.458,6.223a1.215,1.215,0,0,0,1.2,1.256c2.762-.05,6.739-.208,10.225-.208,4.068,0,4.493.216,9.268.216,2.887,0,3.253-2.92,2.005-3.178-5.674-1.206-7.064-1.34-12.255-4.268a3.678,3.678,0,0,0-1.772-.524Z" transform="translate(-154.897 -211.468)" fill="#263238"/>
      <path id="Trazado_128340" data-name="Trazado 128340" d="M269.87,387.35l.7,8.395h-7.039l-.691-8.395Z" transform="translate(-154.954 -208.345)" opacity="0.2"/>
      <path id="Trazado_128341" data-name="Trazado 128341" d="M223.6,407.006a2.3,2.3,0,0,0,1.664-.458.707.707,0,0,0,0-.832.782.782,0,0,0-.524-.383c-1.023-.241-2.97,1.09-3.053,1.148a.175.175,0,0,0-.067.166.15.15,0,0,0,.125.125A8.5,8.5,0,0,0,223.6,407.006Zm.882-1.34a.829.829,0,0,1,.208,0,.458.458,0,0,1,.308.225c.15.275.058.391,0,.424-.3.4-1.739.4-2.787.225a5.409,5.409,0,0,1,2.221-.874Z" transform="translate(-148.029 -211.361)" fill="#7d6eb2"/>
      <path id="Trazado_128342" data-name="Trazado 128342" d="M221.786,406.48h.075c.732-.4,2.138-1.939,1.988-2.721a.549.549,0,0,0-.532-.441.907.907,0,0,0-.707.216c-.832.666-.99,2.7-.99,2.779a.137.137,0,0,0,.166.166Zm1.414-2.854h.075c.216,0,.241.125.25.166.083.466-.832,1.664-1.539,2.18a4.019,4.019,0,0,1,.832-2.2.6.6,0,0,1,.383-.141Z" transform="translate(-148.029 -211.026)" fill="#7d6eb2"/>
      <path id="Trazado_128343" data-name="Trazado 128343" d="M214.08,403.631h7.03l3.536-16.291h-7.03Z" transform="translate(-146.762 -208.343)" fill="#b55b52"/>
      <path id="Trazado_128344" data-name="Trazado 128344" d="M221.129,405.94h-7.9a.607.607,0,0,0-.6.483l-1.389,6.223a1.032,1.032,0,0,0,1.023,1.256c2.762-.05,4.1-.208,7.579-.208,2.138,0,4.876.216,7.829.216s3.328-2.92,2.13-3.178c-5.416-1.19-5.824-2.82-7.53-4.385a1.714,1.714,0,0,0-1.148-.408Z" transform="translate(-146.282 -211.468)" fill="#263238"/>
      <path id="Trazado_128345" data-name="Trazado 128345" d="M188.393,295.8s39.021,11.839,39.986,27.514c1.772,28.87-12.388,53.473-12.388,53.473h-10.55s4.01-12.2,5.45-38.347c1.805-32.864-60.337.765-48.847-42.64Z" transform="translate(-137.782 -192.964)"/>
      <g id="Grupo_55754" data-name="Grupo 55754" transform="translate(69.023 179.005)" opacity="0.2">
        <path id="Trazado_128346" data-name="Trazado 128346" d="M217.952,387.35h7.039l-1.822,8.395H216.13Z" transform="translate(-216.13 -387.35)"/>
      </g>
      <path id="Trazado_128347" data-name="Trazado 128347" d="M202.3,295.8s50.461,3.328,52.458,30.11c2.288,30.784,2.954,50.877,2.954,50.877H247.26s-5.375-18.878-9.984-46.018c-1.389-8.129-18.628-9.526-34.944-10.492-14.061-.832-24.86-1.664-26.042-17.239l.183-7.238Z" transform="translate(-140.414 -192.964)" fill="#263238"/>
      <path id="Trazado_128348" data-name="Trazado 128348" d="M274.08,389.78c.058,0-.674,4.992-.674,4.992H258.921l-.391-4.418Z" transform="translate(-154.23 -208.753)" fill="#7d6eb2"/>
      <path id="Trazado_128349" data-name="Trazado 128349" d="M227.808,389.78c.058,0-1.331,4.992-1.331,4.992H212l.266-4.418Z" transform="translate(-146.413 -208.753)" fill="#7d6eb2"/>
      <path id="Trazado_128350" data-name="Trazado 128350" d="M192.783,311.927l-7.064-47.981a5.466,5.466,0,0,0-5.408-4.676H138.636a5.466,5.466,0,0,0-5.408,6.265l6.822,46.392h0a4.06,4.06,0,0,0,4.068,4.06h75.97a4.06,4.06,0,0,0-4.068-4.06Z" transform="translate(-133.169 -186.827)" fill="#26aab7"/>
      <path id="Trazado_128353" data-name="Trazado 128353" d="M141.6,401.322H139.25l5.891-73.882H147.5Z" transform="translate(-134.191 -198.28)" fill="#26aab7"/>
      <path id="Trazado_128355" data-name="Trazado 128355" d="M189.755,401.322H187.4l5.9-73.882h2.355Z" transform="translate(-142.28 -198.28)" fill="#26aab7"/>
      <path id="Trazado_128357" data-name="Trazado 128357" d="M192.923,401.322h-2.363L184.67,327.44h2.355Z" transform="translate(-141.822 -198.28)" fill="#26aab7"/>
      <path id="Trazado_128359" data-name="Trazado 128359" d="M241.073,401.322h-2.355l-5.9-73.882h2.355Z" transform="translate(-149.911 -198.28)" fill="#7d6eb2"/>
      <g id="Grupo_55761" data-name="Grupo 55761" transform="translate(-1)">
        <path id="Trazado_128351" data-name="Trazado 128351" d="M192.783,311.927l-7.064-47.981a5.466,5.466,0,0,0-5.408-4.676H138.636a5.466,5.466,0,0,0-5.408,6.265l6.822,46.392h0a4.06,4.06,0,0,0,4.068,4.06h75.97a4.06,4.06,0,0,0-4.068-4.06Z" transform="translate(-132.096 -186.827)" fill="#167377" opacity="0.5"/>
        <path id="Trazado_128352" data-name="Trazado 128352" d="M180.311,259.27H138.636a5.466,5.466,0,0,0-5.408,6.265l6.822,46.392a4.06,4.06,0,0,0,4.068,4.06h44.188Z" transform="translate(-132.096 -186.827)" fill="#167377" opacity="0.3"/>
        <path id="Trazado_128354" data-name="Trazado 128354" d="M141.6,401.322H139.25l5.891-73.882H147.5Z" transform="translate(-133.118 -198.279)" fill="#167377" opacity="0.6"/>
        <path id="Trazado_128356" data-name="Trazado 128356" d="M189.755,401.322H187.4l5.9-73.882h2.355Z" transform="translate(-141.207 -198.279)" fill="#167377" opacity="0.6"/>
        <path id="Trazado_128358" data-name="Trazado 128358" d="M192.923,401.322h-2.363L184.67,327.44h2.355Z" transform="translate(-140.748 -198.279)" fill="#167377" opacity="0.7"/>
        <path id="Trazado_128360" data-name="Trazado 128360" d="M241.073,401.322h-2.355l-5.9-73.882h2.355Z" transform="translate(-148.837 -198.279)" fill="#167377" opacity="0.7"/>
      </g>
    </g>
  </g>
</svg>
