<svg xmlns="http://www.w3.org/2000/svg" width="448.635" height="330.231" viewBox="0 0 448.635 330.231">
  <g id="Click_here-rafiki" data-name="Click here-rafiki" transform="translate(0.98 -55.67)">
    <g id="freepik--background-complete--inject-134" transform="translate(-0.98 55.67)">
      <rect id="Rectángulo_30659" data-name="Rectángulo 30659" width="29.718" height="0.224" transform="translate(373.964 308.248)" fill="#ebebeb"/>
      <rect id="Rectángulo_30660" data-name="Rectángulo 30660" width="7.797" height="0.224" transform="translate(289.397 310.68)" fill="#ebebeb"/>
      <rect id="Rectángulo_30661" data-name="Rectángulo 30661" width="17.219" height="0.224" transform="translate(355.848 299.913)" fill="#ebebeb"/>
      <rect id="Rectángulo_30662" data-name="Rectángulo 30662" width="38.753" height="0.224" transform="translate(47.071 301.42)" fill="#ebebeb"/>
      <rect id="Rectángulo_30663" data-name="Rectángulo 30663" width="5.68" height="0.224" transform="translate(93.819 301.42)" fill="#ebebeb"/>
      <rect id="Rectángulo_30664" data-name="Rectángulo 30664" width="84.056" height="0.224" transform="translate(117.964 305.207)" fill="#ebebeb"/>
      <path id="Trazado_128361" data-name="Trazado 128361" d="M215.58,309.454H42.353a5.123,5.123,0,0,1-5.123-5.123V60.784a5.123,5.123,0,0,1,5.123-5.114H215.58a5.123,5.123,0,0,1,5.123,5.114V304.33a5.123,5.123,0,0,1-5.123,5.123ZM42.353,55.894a4.9,4.9,0,0,0-4.9,4.89V304.33a4.908,4.908,0,0,0,4.9,4.9H215.58a4.908,4.908,0,0,0,4.9-4.9V60.784a4.9,4.9,0,0,0-4.9-4.89Z" transform="translate(-2.945 -55.67)" fill="#ebebeb"/>
      <path id="Trazado_128362" data-name="Trazado 128362" d="M431.907,309.454H258.644a5.123,5.123,0,0,1-5.114-5.123V60.784a5.123,5.123,0,0,1,5.114-5.114H431.907a5.123,5.123,0,0,1,5.123,5.114V304.33A5.123,5.123,0,0,1,431.907,309.454ZM258.644,55.894a4.89,4.89,0,0,0-4.89,4.89V304.33a4.9,4.9,0,0,0,4.89,4.9H431.907a4.908,4.908,0,0,0,4.9-4.9V60.784a4.9,4.9,0,0,0-4.9-4.89Z" transform="translate(-25.166 -55.67)" fill="#ebebeb"/>
      <rect id="Rectángulo_30665" data-name="Rectángulo 30665" width="448.635" height="0.224" transform="translate(0 293.802)" fill="#ebebeb"/>
      <rect id="Rectángulo_30666" data-name="Rectángulo 30666" width="76.115" height="101.284" transform="translate(142.029 288.49) rotate(180)" fill="#f0f0f0"/>
      <rect id="Rectángulo_30667" data-name="Rectángulo 30667" width="14.518" height="101.284" transform="translate(65.913 288.49) rotate(180)" fill="#e6e6e6"/>
      <rect id="Rectángulo_30668" data-name="Rectángulo 30668" width="65.851" height="24.594" transform="translate(136.699 219.329) rotate(180)" fill="#fafafa"/>
      <path id="Trazado_128363" data-name="Trazado 128363" d="M122.284,272.69,122,275.974a2.109,2.109,0,0,1-2.091,1.911H107.488a2.109,2.109,0,0,1-2.091-1.911l-.287-3.284Z" transform="translate(-9.919 -77.964)" fill="#ebebeb"/>
      <rect id="Rectángulo_30669" data-name="Rectángulo 30669" width="65.851" height="24.594" transform="translate(136.699 246.606) rotate(180)" fill="#fafafa"/>
      <path id="Trazado_128364" data-name="Trazado 128364" d="M122.284,303.1,122,306.375a2.1,2.1,0,0,1-2.091,1.911H107.488a2.1,2.1,0,0,1-2.091-1.911l-.287-3.276Z" transform="translate(-9.919 -81.088)" fill="#ebebeb"/>
      <rect id="Rectángulo_30670" data-name="Rectángulo 30670" width="65.851" height="24.594" transform="translate(136.699 273.892) rotate(180)" fill="#fafafa"/>
      <path id="Trazado_128365" data-name="Trazado 128365" d="M122.284,333.51,122,336.785a2.1,2.1,0,0,1-2.091,1.911H107.488a2.1,2.1,0,0,1-2.091-1.911l-.287-3.276Z" transform="translate(-9.919 -84.212)" fill="#ebebeb"/>
      <path id="Trazado_128366" data-name="Trazado 128366" d="M77.99,382.251h65.043l.8-5.061H77.99Z" transform="translate(-7.133 -88.7)" fill="#e6e6e6"/>
      <path id="Trazado_128367" data-name="Trazado 128367" d="M62.739,382.251h13.6V377.19H61.94Z" transform="translate(-5.484 -88.7)" fill="#e0e0e0"/>
      <path id="Trazado_128368" data-name="Trazado 128368" d="M111.73,260.666h25.994l-2.88-32.966H108.85Z" transform="translate(-10.303 -73.343)" fill="#fafafa"/>
      <path id="Trazado_128369" data-name="Trazado 128369" d="M111.588,260.666H110.35L107.47,227.7h1.238Z" transform="translate(-10.161 -73.343)" fill="#ebebeb"/>
      <path id="Trazado_128370" data-name="Trazado 128370" d="M114.427,257.686h20.691l-2.3-26.236H112.13Z" transform="translate(-10.64 -73.728)" fill="#f0f0f0"/>
      <path id="Trazado_128371" data-name="Trazado 128371" d="M116.16,255.77h17.281l-1.92-21.92H114.24Z" transform="translate(-10.857 -73.974)" fill="#e6e6e6"/>
      <path id="Trazado_128372" data-name="Trazado 128372" d="M100.958,262.1l1.786-20.4H76.876L75.09,262.1Z" transform="translate(-6.835 -74.781)" fill="#f0f0f0"/>
      <path id="Trazado_128373" data-name="Trazado 128373" d="M103.92,262.1l1.786-20.4h1.4l-1.786,20.4Z" transform="translate(-9.796 -74.781)" fill="#e0e0e0"/>
      <path id="Trazado_128374" data-name="Trazado 128374" d="M98.831,260.261l1.418-16.241h-20.6L78.23,260.261Z" transform="translate(-7.157 -75.019)" fill="#ebebeb"/>
      <path id="Trazado_128375" data-name="Trazado 128375" d="M97.46,259.077l1.184-13.567H81.434L80.25,259.077Z" transform="translate(-7.365 -75.172)" fill="#f5f5f5"/>
      <path id="Trazado_128376" data-name="Trazado 128376" d="M231.069,282.71h6.119v88.91a1.068,1.068,0,0,1-1.068,1.068h-3.993a1.068,1.068,0,0,1-1.068-1.068V282.71Z" transform="translate(-22.857 -78.994)" fill="#f0f0f0"/>
      <path id="Trazado_128377" data-name="Trazado 128377" d="M427.72,273.158H413.66V271.91a4.271,4.271,0,0,1,4.486-4.271l5.509.3a4.28,4.28,0,0,1,4.047,4.271Z" transform="translate(-41.616 -77.445)" fill="#f0f0f0"/>
      <path id="Trazado_128378" data-name="Trazado 128378" d="M384.9,241.164a2.082,2.082,0,0,0-2.082-1.974H368.623a2.082,2.082,0,0,0-2.073,1.974l3.374,29.61H391.18Z" transform="translate(-36.776 -74.523)" fill="#e0e0e0"/>
      <path id="Trazado_128379" data-name="Trazado 128379" d="M428.716,190.64h-5.294L417.5,246.593h5.294a1.8,1.8,0,0,0,1.795-1.588l5.617-52.76a1.4,1.4,0,0,0-1.49-1.606Z" transform="translate(-42.01 -69.535)" fill="#e0e0e0"/>
      <path id="Trazado_128380" data-name="Trazado 128380" d="M411.659,246.6H332.286a1.4,1.4,0,0,1-1.418-1.588l5.608-52.76a1.794,1.794,0,0,1,1.795-1.588h79.372a1.4,1.4,0,0,1,1.418,1.588l-5.608,52.76A1.8,1.8,0,0,1,411.659,246.6Z" transform="translate(-33.109 -69.537)" fill="#ebebeb"/>
      <path id="Trazado_128381" data-name="Trazado 128381" d="M410.547,241.641H335.7a1.229,1.229,0,0,1-1.238-1.391l4.9-46.03a1.57,1.57,0,0,1,1.534-1.391H415.7a1.22,1.22,0,0,1,1.238,1.391l-4.827,46.03A1.579,1.579,0,0,1,410.547,241.641Z" transform="translate(-33.478 -69.76)" fill="#e0e0e0"/>
      <rect id="Rectángulo_30671" data-name="Rectángulo 30671" width="28.39" height="2.297" rx="0.96" transform="translate(327.916 193.963)" fill="#e0e0e0"/>
      <path id="Trazado_128382" data-name="Trazado 128382" d="M335.53,244.862l22.243-19.336c2.118-1.795,4.818-1.795,6.039,0l12.894,19.336Z" transform="translate(-33.59 -72.981)" fill="#ebebeb"/>
      <path id="Trazado_128383" data-name="Trazado 128383" d="M357.773,225.534,335.53,244.87h21.328c-2.127-1.077-7.133-1.651-6.541-4.118.781-3.2,10.7-2.082,11.431-5.123s-6.335-2.082-5.446-5.769c.467-1.929,2.3-4.029,3.939-5.6a5.626,5.626,0,0,0-2.467,1.274Z" transform="translate(-33.59 -72.989)" fill="#f5f5f5"/>
      <path id="Trazado_128384" data-name="Trazado 128384" d="M372,246.036l9.87-9.753a1.676,1.676,0,0,1,2.692,0l5.707,9.753Z" transform="translate(-37.336 -74.155)" fill="#ebebeb"/>
      <path id="Trazado_128385" data-name="Trazado 128385" d="M381.87,236.286,372,246.039h9.448c-.942-.547-3.158-.834-2.9-2.082.341-1.615,4.738-1.05,5.07-2.584s-2.808-1.05-2.414-2.907a6.873,6.873,0,0,1,1.741-2.826A2.351,2.351,0,0,0,381.87,236.286Z" transform="translate(-37.336 -74.158)" fill="#fafafa"/>
      <path id="Trazado_128386" data-name="Trazado 128386" d="M390.81,246.036l13.809-9.753c1.319-.9,3-.9,3.751,0l8,9.753Z" transform="translate(-39.268 -74.155)" fill="#ebebeb"/>
      <path id="Trazado_128387" data-name="Trazado 128387" d="M404.619,236.286l-13.809,9.753h13.244c-1.319-.547-4.432-.834-4.065-2.082.485-1.615,6.64-1.05,7.1-2.584s-3.93-1.05-3.383-2.907a7.1,7.1,0,0,1,2.45-2.826A3.8,3.8,0,0,0,404.619,236.286Z" transform="translate(-39.268 -74.158)" fill="#fafafa"/>
      <ellipse id="Elipse_4313" data-name="Elipse 4313" cx="9.888" cy="7.995" rx="9.888" ry="7.995" transform="matrix(0.743, -0.669, 0.669, 0.743, 347.266, 143.314)" fill="#f0f0f0"/>
      <ellipse id="Elipse_4314" data-name="Elipse 4314" cx="9.888" cy="7.995" rx="9.888" ry="7.995" transform="matrix(0.743, -0.669, 0.669, 0.743, 347.266, 143.314)" fill="#fff" opacity="0.8"/>
      <rect id="Rectángulo_30672" data-name="Rectángulo 30672" width="53.029" height="8.004" transform="translate(344.57 195.713)" fill="#e6e6e6"/>
      <path id="Trazado_128388" data-name="Trazado 128388" d="M273.319,282.71h6.119v88.91a1.068,1.068,0,0,1-1.068,1.068h-3.993a1.068,1.068,0,0,1-1.068-1.068V282.71Z" transform="translate(-27.198 -78.994)" fill="#e6e6e6"/>
      <path id="Trazado_128389" data-name="Trazado 128389" d="M431.378,282.71H437.5v88.91a1.068,1.068,0,0,1-1.077,1.077h-3.993a1.068,1.068,0,0,1-1.068-1.068V282.71Z" transform="translate(-43.434 -78.994)" fill="#e6e6e6"/>
      <rect id="Rectángulo_30673" data-name="Rectángulo 30673" width="155.012" height="8.004" transform="translate(204.676 195.713)" fill="#f5f5f5"/>
      <path id="Trazado_128390" data-name="Trazado 128390" d="M389.14,282.71H395.3v88.91a1.068,1.068,0,0,1-1.068,1.068h-3.993a1.068,1.068,0,0,1-1.068-1.068V282.71Z" transform="translate(-39.097 -78.994)" fill="#f0f0f0"/>
      <path id="Trazado_128391" data-name="Trazado 128391" d="M340.895,271.388h-1.938a.377.377,0,0,1-.377-.377v-2.055a.377.377,0,0,1,.377-.377h1.418a.386.386,0,0,1,.368.278l.556,2.1a.377.377,0,0,1-.4.431Z" transform="translate(-33.903 -77.542)" fill="#f5f5f5"/>
      <path id="Trazado_128392" data-name="Trazado 128392" d="M343.94,271.388h-1.983a.377.377,0,0,1-.377-.377v-2.055a.377.377,0,0,1,.377-.377h1.418a.386.386,0,0,1,.368.278l.556,2.1a.377.377,0,0,1-.359.431Z" transform="translate(-34.211 -77.542)" fill="#f5f5f5"/>
      <path id="Trazado_128393" data-name="Trazado 128393" d="M346.99,271.388h-1.983a.377.377,0,0,1-.377-.377v-2.055a.377.377,0,0,1,.377-.377h1.427a.386.386,0,0,1,.368.278l.556,2.1a.377.377,0,0,1-.368.431Z" transform="translate(-34.524 -77.542)" fill="#f5f5f5"/>
      <path id="Trazado_128394" data-name="Trazado 128394" d="M350.04,271.388h-1.983a.377.377,0,0,1-.377-.377v-2.055a.377.377,0,0,1,.377-.377h1.427a.368.368,0,0,1,.359.278l.565,2.1a.377.377,0,0,1-.368.431Z" transform="translate(-34.838 -77.542)" fill="#f5f5f5"/>
      <path id="Trazado_128395" data-name="Trazado 128395" d="M353.09,271.388h-1.983a.377.377,0,0,1-.377-.377v-2.055a.377.377,0,0,1,.377-.377h1.427a.377.377,0,0,1,.359.278l.556,2.1a.377.377,0,0,1-.359.431Z" transform="translate(-35.151 -77.542)" fill="#f5f5f5"/>
      <path id="Trazado_128396" data-name="Trazado 128396" d="M356.14,271.388h-1.983a.377.377,0,0,1-.377-.377v-2.055a.377.377,0,0,1,.377-.377h1.418a.377.377,0,0,1,.368.278l.556,2.1a.377.377,0,0,1-.359.431Z" transform="translate(-35.464 -77.542)" fill="#f5f5f5"/>
      <path id="Trazado_128397" data-name="Trazado 128397" d="M359.19,271.388h-1.983a.377.377,0,0,1-.377-.377v-2.055a.377.377,0,0,1,.377-.377h1.418a.386.386,0,0,1,.368.278l.556,2.1a.377.377,0,0,1-.359.431Z" transform="translate(-35.778 -77.542)" fill="#f5f5f5"/>
      <path id="Trazado_128398" data-name="Trazado 128398" d="M362.231,271.388h-1.974a.377.377,0,0,1-.377-.377v-2.055a.377.377,0,0,1,.377-.377h1.418a.386.386,0,0,1,.368.278l.556,2.1a.377.377,0,0,1-.368.431Z" transform="translate(-36.091 -77.542)" fill="#f5f5f5"/>
      <path id="Trazado_128399" data-name="Trazado 128399" d="M365.281,271.388h-1.974a.377.377,0,0,1-.377-.377v-2.055a.377.377,0,0,1,.377-.377h1.418a.386.386,0,0,1,.368.278l.556,2.1a.377.377,0,0,1-.368.431Z" transform="translate(-36.404 -77.542)" fill="#f5f5f5"/>
      <path id="Trazado_128400" data-name="Trazado 128400" d="M368.33,271.388h-1.983a.377.377,0,0,1-.377-.377v-2.055a.377.377,0,0,1,.377-.377h1.445a.386.386,0,0,1,.368.278l.556,2.1a.377.377,0,0,1-.386.431Z" transform="translate(-36.717 -77.542)" fill="#f5f5f5"/>
      <path id="Trazado_128401" data-name="Trazado 128401" d="M371.38,271.388H369.4a.377.377,0,0,1-.377-.377v-2.055a.377.377,0,0,1,.377-.377h1.4a.368.368,0,0,1,.359.278l.565,2.1a.377.377,0,0,1-.341.431Z" transform="translate(-37.03 -77.542)" fill="#f5f5f5"/>
      <path id="Trazado_128402" data-name="Trazado 128402" d="M374.43,271.388h-1.983a.377.377,0,0,1-.377-.377v-2.055a.377.377,0,0,1,.377-.377h1.427a.377.377,0,0,1,.359.278l.556,2.1a.377.377,0,0,1-.359.431Z" transform="translate(-37.343 -77.542)" fill="#f5f5f5"/>
      <path id="Trazado_128403" data-name="Trazado 128403" d="M377.48,271.388H375.5a.377.377,0,0,1-.377-.377v-2.055a.377.377,0,0,1,.377-.377h1.418a.377.377,0,0,1,.368.278l.556,2.1a.377.377,0,0,1-.359.431Z" transform="translate(-37.657 -77.542)" fill="#f5f5f5"/>
      <path id="Trazado_128404" data-name="Trazado 128404" d="M380.521,271.388h-1.974a.377.377,0,0,1-.377-.377v-2.055a.377.377,0,0,1,.377-.377h1.418a.386.386,0,0,1,.368.278l.556,2.1a.377.377,0,0,1-.368.431Z" transform="translate(-37.97 -77.542)" fill="#f5f5f5"/>
      <path id="Trazado_128405" data-name="Trazado 128405" d="M383.571,271.388H381.6a.377.377,0,0,1-.377-.377v-2.055a.377.377,0,0,1,.377-.377h1.418a.386.386,0,0,1,.368.278l.556,2.1a.377.377,0,0,1-.368.431Z" transform="translate(-38.283 -77.542)" fill="#f5f5f5"/>
      <rect id="Rectángulo_30674" data-name="Rectángulo 30674" width="44.253" height="3.293" transform="translate(303.026 192.42)" fill="#ebebeb"/>
    </g>
    <g id="freepik--Shadow--inject-134" transform="translate(45.92 365.587)">
      <ellipse id="freepik--path--inject-134" cx="173.972" cy="10.157" rx="173.972" ry="10.157" fill="#f5f5f5"/>
    </g>
    <g id="freepik--Window--inject-134" transform="translate(52.183 75.697)">
      <path id="Trazado_128406" data-name="Trazado 128406" d="M71.316,264.649H321.278L308.223,77.99H58.27Z" transform="translate(-58.27 -77.99)" fill="#7d6eb2"/>
      <g id="Grupo_55755" data-name="Grupo 55755" transform="translate(0 0)" opacity="0.6">
        <path id="Trazado_128407" data-name="Trazado 128407" d="M71.316,264.649H321.278L308.223,77.99H58.27Z" transform="translate(-58.27 -77.99)" fill="#fff"/>
      </g>
      <path id="Trazado_128408" data-name="Trazado 128408" d="M291.043,103.245a.709.709,0,0,0,.35-.1l4-2.539a.646.646,0,0,0,.305-.547.655.655,0,0,0-.3-.547L291.2,96.758a.648.648,0,0,0-.709,1.086l3.365,2.207-3.158,1.992a.655.655,0,0,0,.35,1.2Z" transform="translate(-82.095 -79.907)" fill="#263238"/>
      <path id="Trazado_128409" data-name="Trazado 128409" d="M288.636,101.031h6.191a.646.646,0,0,0,.646-.646.655.655,0,0,0-.646-.655h-6.191a.655.655,0,0,0-.646.655A.646.646,0,0,0,288.636,101.031Z" transform="translate(-81.869 -80.223)" fill="#263238"/>
      <path id="Trazado_128410" data-name="Trazado 128410" d="M277.247,103.246a.65.65,0,0,0,.359-1.193l-3.365-2.2,3.185-1.992a.655.655,0,0,0,.2-.9.646.646,0,0,0-.9-.2l-4.011,2.539a.655.655,0,0,0-.3.538.637.637,0,0,0,.3.547l4.208,2.755A.637.637,0,0,0,277.247,103.246Z" transform="translate(-80.27 -79.908)" fill="#263238"/>
      <path id="Trazado_128411" data-name="Trazado 128411" d="M273.036,100.791h6.182a.651.651,0,1,0,0-1.3h-6.182a.655.655,0,0,0-.646.655.646.646,0,0,0,.646.646Z" transform="translate(-80.266 -80.199)" fill="#263238"/>
      <path id="Trazado_128412" data-name="Trazado 128412" d="M260.122,104.551a3.8,3.8,0,0,0,2.835-1.22,3.849,3.849,0,0,0,1.023-2.925,4.433,4.433,0,0,0-4.343-4.056,3.831,3.831,0,0,0-3.849,4.145.648.648,0,0,0,1.292-.09,2.53,2.53,0,0,1,2.557-2.755,3.1,3.1,0,0,1,3.042,2.844,2.512,2.512,0,0,1-2.557,2.755.646.646,0,0,0-.646.646.655.655,0,0,0,.646.655Z" transform="translate(-78.56 -79.876)" fill="#263238"/>
      <path id="Trazado_128413" data-name="Trazado 128413" d="M256.328,101.382h.179l2.091-.61a.65.65,0,0,0-.368-1.247l-1.615.476-.754-1.256a.65.65,0,0,0-1.113.673l1.023,1.66A.637.637,0,0,0,256.328,101.382Z" transform="translate(-78.445 -80.09)" fill="#263238"/>
      <path id="Trazado_128414" data-name="Trazado 128414" d="M137.625,101.958a3.4,3.4,0,0,1-1.086-2.369,2.988,2.988,0,0,1,.8-2.189,3.024,3.024,0,0,1,2.136-.96,3.374,3.374,0,0,1,2.432.9A3.41,3.41,0,0,1,143,99.706a3.033,3.033,0,0,1-.808,2.189,3,3,0,0,1-2.127.96h-.117A3.455,3.455,0,0,1,137.625,101.958Zm1.893-4.226a1.714,1.714,0,0,0-1.687,1.795,2.118,2.118,0,0,0,.682,1.463h0a2.118,2.118,0,0,0,1.5.583,1.714,1.714,0,0,0,1.687-1.795,2.118,2.118,0,0,0-.682-1.463,2.091,2.091,0,0,0-1.427-.583Z" transform="translate(-66.31 -79.885)" fill="#263238"/>
      <path id="Trazado_128415" data-name="Trazado 128415" d="M135.665,105.062a.646.646,0,0,0,.476-.215l2.252-2.423a.654.654,0,0,0-.951-.9l-2.252,2.423a.646.646,0,0,0,0,.9.664.664,0,0,0,.476.215Z" transform="translate(-66.153 -80.387)" fill="#263238"/>
      <path id="Trazado_128416" data-name="Trazado 128416" d="M59,88.488H308.958l-.736-10.5H58.27Z" transform="translate(-58.27 -77.99)" fill="#7d6eb2"/>
      <path id="Trazado_128417" data-name="Trazado 128417" d="M59,88.488H308.958l-.736-10.5H58.27Z" transform="translate(-58.27 -77.99)" opacity="0.4"/>
      <path id="Trazado_128418" data-name="Trazado 128418" d="M86.059,83.48a3.437,3.437,0,0,0,3.365,3.14,2.889,2.889,0,0,0,2.916-3.14,3.419,3.419,0,0,0-3.356-3.14,2.9,2.9,0,0,0-2.925,3.14Z" transform="translate(-61.124 -78.231)" fill="#fff"/>
      <path id="Trazado_128419" data-name="Trazado 128419" d="M75.329,83.48a3.437,3.437,0,0,0,3.365,3.14,2.889,2.889,0,0,0,2.916-3.14,3.419,3.419,0,0,0-3.356-3.14,2.9,2.9,0,0,0-2.925,3.14Z" transform="translate(-60.021 -78.231)" fill="#fff"/>
      <path id="Trazado_128420" data-name="Trazado 128420" d="M64.6,83.48a3.428,3.428,0,0,0,3.365,3.14,2.889,2.889,0,0,0,2.916-3.14,3.419,3.419,0,0,0-3.356-3.14A2.9,2.9,0,0,0,64.6,83.48Z" transform="translate(-58.919 -78.231)" fill="#fff"/>
      <path id="Trazado_128421" data-name="Trazado 128421" d="M324.174,97.062h0l-7.95-.126a.673.673,0,0,1-.664-.682.7.7,0,0,1,.682-.664l7.95.126a.673.673,0,1,1,0,1.346Z" transform="translate(-84.701 -79.798)" fill="#263238"/>
      <path id="Trazado_128422" data-name="Trazado 128422" d="M324.525,101.042h0l-7.941-.126a.673.673,0,0,1-.664-.682.7.7,0,0,1,.682-.664l7.95.126a.673.673,0,0,1,.664.682A.682.682,0,0,1,324.525,101.042Z" transform="translate(-84.738 -80.207)" fill="#263238"/>
      <path id="Trazado_128423" data-name="Trazado 128423" d="M324.865,105.022h0l-7.941-.126a.673.673,0,0,1-.664-.682.7.7,0,0,1,.682-.664l7.95.126a.673.673,0,1,1,0,1.346Z" transform="translate(-84.773 -80.616)" fill="#263238"/>
      <path id="Trazado_128424" data-name="Trazado 128424" d="M155.754,103.854h76.178a3.634,3.634,0,0,0,3.679-3.957h0a4.316,4.316,0,0,0-4.235-3.957H155.2a3.643,3.643,0,0,0-3.679,3.957h0A4.316,4.316,0,0,0,155.754,103.854Z" transform="translate(-67.848 -79.834)" fill="#fff"/>
      <g id="Grupo_55757" data-name="Grupo 55757" transform="translate(123.536 30.588)" opacity="0.5">
        <path id="Trazado_128425" data-name="Trazado 128425" d="M202.509,117.185h3.661l-.35-5.105h-3.67Z" transform="translate(-196.587 -112.08)"/>
        <path id="Trazado_128426" data-name="Trazado 128426" d="M200.56,117.73l3.867,3.616,3.365-3.616Z" transform="translate(-196.424 -112.66)"/>
        <path id="Trazado_128427" data-name="Trazado 128427" d="M196.381,123.89h15.5l-.431-6.164H209.5l.3,4.217h-11.6l-.3-4.253H195.95Z" transform="translate(-195.95 -112.656)"/>
        <g id="Grupo_55756" data-name="Grupo 55756" opacity="0.5">
          <path id="Trazado_128428" data-name="Trazado 128428" d="M202.509,117.185h3.661l-.35-5.105h-3.67Z" transform="translate(-196.587 -112.08)"/>
          <path id="Trazado_128429" data-name="Trazado 128429" d="M200.56,117.73l3.867,3.616,3.365-3.616Z" transform="translate(-196.424 -112.66)"/>
          <path id="Trazado_128430" data-name="Trazado 128430" d="M196.381,123.89h15.5l-.431-6.164H209.5l.3,4.217h-11.6l-.3-4.253H195.95Z" transform="translate(-195.95 -112.656)"/>
        </g>
      </g>
      <path id="Trazado_128431" data-name="Trazado 128431" d="M292.44,77.99,343.5,264.927H331.48L280.82,77.99Z" transform="translate(-81.132 -77.99)" fill="#fff" opacity="0.1"/>
      <path id="Trazado_128432" data-name="Trazado 128432" d="M105.71,77.99l51.055,186.937H144.75L94.09,77.99Z" transform="translate(-61.95 -77.99)" fill="#fff" opacity="0.1"/>
      <path id="Trazado_128433" data-name="Trazado 128433" d="M269.919,77.99l51.064,186.937H292.809L242.14,77.99Z" transform="translate(-77.159 -77.99)" fill="#fff" opacity="0.1"/>
      <path id="Trazado_128434" data-name="Trazado 128434" d="M164.693,158.513h74.94a7.663,7.663,0,0,0,7.743-8.327l-.556-7.95a9.071,9.071,0,0,0-8.91-8.327H162.97a7.663,7.663,0,0,0-7.743,8.327l.556,7.95a9.08,9.08,0,0,0,8.91,8.327Z" transform="translate(-68.227 -83.735)" fill="#3c4973"/>
      <path id="Trazado_128435" data-name="Trazado 128435" d="M183.727,147.155a2.485,2.485,0,0,1,2.692-2.826,3.1,3.1,0,0,1,2.27.9l-.592.628a2.118,2.118,0,0,0-1.534-.646,1.66,1.66,0,0,0-1.795,1.929,2.127,2.127,0,0,0,2.162,1.938,1.7,1.7,0,0,0,1.4-.655l.727.628a2.485,2.485,0,0,1-2.082.9,3.185,3.185,0,0,1-3.248-2.79Z" transform="translate(-71.156 -84.804)" fill="#fff"/>
      <path id="Trazado_128436" data-name="Trazado 128436" d="M190.07,144.05h.978l.61,5.832h-.978Z" transform="translate(-71.81 -84.776)" fill="#fff"/>
      <path id="Trazado_128437" data-name="Trazado 128437" d="M192.49,144.373a.529.529,0,0,1,.565-.583.664.664,0,0,1,.682.565.529.529,0,0,1-.565.61.673.673,0,0,1-.682-.592Zm.26,1.283h.987l.44,4.2H193.2Z" transform="translate(-72.058 -84.749)" fill="#fff"/>
      <path id="Trazado_128438" data-name="Trazado 128438" d="M195.168,147.963a1.884,1.884,0,0,1,2.046-2.145,2.127,2.127,0,0,1,1.893.969l-.709.44a1.346,1.346,0,0,0-1.1-.574,1.086,1.086,0,0,0-1.131,1.31,1.382,1.382,0,0,0,1.409,1.31,1.041,1.041,0,0,0,.978-.583l.8.44a1.687,1.687,0,0,1-1.687.987A2.423,2.423,0,0,1,195.168,147.963Z" transform="translate(-72.331 -84.957)" fill="#fff"/>
      <path id="Trazado_128444" data-name="Trazado 128444" d="M259.076,168.853l-7.995-3.939s-2.109-2.432.108-3.472a3.069,3.069,0,0,1,2.692.153l2.97,1.606L243.6,149.947a1.938,1.938,0,0,1,0-2.692h0a1.938,1.938,0,0,1,2.737,0l9.233,9.2-4.217-4.217,1.4-1.391a1.723,1.723,0,0,1,2.45,0l3.589,3.589-3.76-3.76,1.624-1.624a1.741,1.741,0,0,1,2.45,0l3.1,3.1-2.961-2.961.942-.942a1.741,1.741,0,0,1,2.45,0l7.474,7.483a6.4,6.4,0,0,1,.9,1.166l1.247,2.082a5.384,5.384,0,0,1,.763,2.746h0l-7.582,7.546-3.365.188a6.066,6.066,0,0,1-3-.61Z" transform="translate(-77.253 -85.047)" fill="#fff"/>
      <path id="Trazado_128445" data-name="Trazado 128445" d="M240.069,144.536a.9.9,0,0,1-.637-.269L236.7,141.53a.9.9,0,0,1,1.265-1.265L240.706,143a.9.9,0,0,1-.637,1.534Z" transform="translate(-76.577 -84.365)" fill="#fff"/>
      <path id="Trazado_128446" data-name="Trazado 128446" d="M237.874,149.795h-3.867a.9.9,0,0,1,0-1.795h3.867a.9.9,0,0,1,0,1.795Z" transform="translate(-76.231 -85.182)" fill="#fff"/>
      <path id="Trazado_128447" data-name="Trazado 128447" d="M250.268,144.531a.9.9,0,0,1-.637-1.525l2.746-2.746a.9.9,0,1,1,1.274,1.265L250.9,144.27A.9.9,0,0,1,250.268,144.531Z" transform="translate(-77.902 -84.36)" fill="#fff"/>
      <path id="Trazado_128448" data-name="Trazado 128448" d="M237.327,157.486a.9.9,0,0,1-.637-1.534l2.692-2.692a.895.895,0,0,1,1.265,1.265l-2.692,2.737A.9.9,0,0,1,237.327,157.486Z" transform="translate(-76.572 -85.696)" fill="#fff"/>
      <path id="Trazado_128449" data-name="Trazado 128449" d="M245.317,142.351a.9.9,0,0,1-.9-.9v-3.876a.9.9,0,1,1,1.795,0v3.876A.9.9,0,0,1,245.317,142.351Z" transform="translate(-77.393 -84.019)" fill="#fff"/>
      <path id="Trazado_128450" data-name="Trazado 128450" d="M172.461,244.092h78.5l-6.1-69.682h-78.5Z" transform="translate(-69.374 -87.895)" fill="#7d6eb2"/>
      <path id="Trazado_128451" data-name="Trazado 128451" d="M172.461,244.092h78.5l-6.1-69.682h-78.5Z" transform="translate(-69.374 -87.895)" fill="#fff" opacity="0.9"/>
      <path id="Trazado_128452" data-name="Trazado 128452" d="M173.663,219.753h72.428l-3.643-41.633H170.02Z" transform="translate(-69.75 -88.276)" fill="#8ec8c8"/>
      <path id="Trazado_128453" data-name="Trazado 128453" d="M229.444,232.282h18.914l-.395-4.522H229.04Z" transform="translate(-75.813 -93.376)" fill="#c1507f"/>
      <path id="Trazado_128454" data-name="Trazado 128454" d="M204.634,232.282h18.914l-.395-4.522H204.23Z" transform="translate(-73.264 -93.376)" fill="#c1507f"/>
      <path id="Trazado_128455" data-name="Trazado 128455" d="M179.815,232.282h18.923l-.395-4.522H179.42Z" transform="translate(-70.716 -93.376)" fill="#c1507f"/>
      <path id="Trazado_128459" data-name="Trazado 128459" d="M241.514,239.743h2.916l-.224-2.593H241.29Z" transform="translate(-77.072 -94.34)" fill="#7d6eb2"/>
      <path id="Trazado_128460" data-name="Trazado 128460" d="M227.564,239.743h10.821l-.224-2.593H227.34Z" transform="translate(-75.639 -94.34)" fill="#7d6eb2"/>
      <path id="Trazado_128461" data-name="Trazado 128461" d="M213.364,239.743h10.821l-.224-2.593H213.14Z" transform="translate(-74.18 -94.34)" fill="#7d6eb2"/>
      <path id="Trazado_128462" data-name="Trazado 128462" d="M186.9,239.743h5.411l-.224-2.593H186.67Z" transform="translate(-71.46 -94.34)" fill="#7d6eb2"/>
      <path id="Trazado_128463" data-name="Trazado 128463" d="M194.694,239.743h14.769l-.224-2.593H194.47Z" transform="translate(-72.262 -94.34)" fill="#7d6eb2"/>
      <path id="Trazado_128464" data-name="Trazado 128464" d="M201.024,244.654h-10.83l-.224-2.584H200.8Z" transform="translate(-71.799 -94.846)" fill="#7d6eb2"/>
      <path id="Trazado_128465" data-name="Trazado 128465" d="M215.224,244.654h-10.83l-.224-2.584H215Z" transform="translate(-73.258 -94.846)" fill="#7d6eb2"/>
      <path id="Trazado_128466" data-name="Trazado 128466" d="M242.3,244.654h-5.411l-.224-2.584h5.411Z" transform="translate(-76.597 -94.846)" fill="#7d6eb2"/>
      <path id="Trazado_128467" data-name="Trazado 128467" d="M233.433,244.654H218.664l-.224-2.584h14.769Z" transform="translate(-74.724 -94.846)" fill="#7d6eb2"/>
      <g id="Grupo_55758" data-name="Grupo 55758" transform="translate(115.21 142.81)" opacity="0.6">
        <path id="Trazado_128468" data-name="Trazado 128468" d="M241.514,239.743h2.916l-.224-2.593H241.29Z" transform="translate(-192.281 -237.15)" fill="#fff"/>
        <path id="Trazado_128469" data-name="Trazado 128469" d="M227.564,239.743h10.821l-.224-2.593H227.34Z" transform="translate(-190.848 -237.15)" fill="#fff"/>
        <path id="Trazado_128470" data-name="Trazado 128470" d="M213.364,239.743h10.821l-.224-2.593H213.14Z" transform="translate(-189.389 -237.15)" fill="#fff"/>
        <path id="Trazado_128471" data-name="Trazado 128471" d="M186.9,239.743h5.411l-.224-2.593H186.67Z" transform="translate(-186.67 -237.15)" fill="#fff"/>
        <path id="Trazado_128472" data-name="Trazado 128472" d="M194.694,239.743h14.769l-.224-2.593H194.47Z" transform="translate(-187.471 -237.15)" fill="#fff"/>
      </g>
      <g id="Grupo_55759" data-name="Grupo 55759" transform="translate(118.171 147.224)" opacity="0.6">
        <path id="Trazado_128473" data-name="Trazado 128473" d="M201.024,244.654h-10.83l-.224-2.584H200.8Z" transform="translate(-189.97 -242.07)" fill="#fff"/>
        <path id="Trazado_128474" data-name="Trazado 128474" d="M215.224,244.654h-10.83l-.224-2.584H215Z" transform="translate(-191.429 -242.07)" fill="#fff"/>
        <path id="Trazado_128475" data-name="Trazado 128475" d="M242.3,244.654h-5.411l-.224-2.584h5.411Z" transform="translate(-194.767 -242.07)" fill="#fff"/>
        <path id="Trazado_128476" data-name="Trazado 128476" d="M233.433,244.654H218.664l-.224-2.584h14.769Z" transform="translate(-192.895 -242.07)" fill="#fff"/>
      </g>
      <path id="Trazado_128477" data-name="Trazado 128477" d="M250.669,222,224.9,199.14,214.5,222Z" transform="translate(-74.319 -90.436)" fill="#fff"/>
      <path id="Trazado_128478" data-name="Trazado 128478" d="M221.1,221.218,187.6,191.5,174.09,221.218Z" transform="translate(-70.168 -89.651)" fill="#fff"/>
      <path id="Trazado_128479" data-name="Trazado 128479" d="M205.357,191.217a6.11,6.11,0,0,0,5.958,5.527,4.944,4.944,0,0,0,5-5.482,6.093,6.093,0,0,0-5.958-5.482,4.944,4.944,0,0,0-5,5.437Z" transform="translate(-73.378 -89.063)" fill="#fff"/>
    </g>
    <g id="freepik--Character--inject-134" transform="translate(242.985 131.482)">
      <path id="Trazado_128480" data-name="Trazado 128480" d="M315.26,197.928c-1.965,6.2.188,21.364-5.985,25.3a17.129,17.129,0,0,0-8.138,15.514c4.02-5.554,10.7-8.721,17.47-9.87s13.692-.467,20.5.332c3.212.377,18.215,5.141,17.4,8.273,4.827-7.178-.673-39.48-2.853-47.9-.655-2.521.619-6.075-1.866-6.837-5.751-1.795-18.206-5.285-30.8,2.817C315.924,188.829,316.525,193.962,315.26,197.928Z" transform="translate(-274.019 -144.299)" fill="#7d6eb2"/>
      <g id="Grupo_55760" data-name="Grupo 55760" transform="translate(27.094 36.14)" opacity="0.5">
        <path id="Trazado_128481" data-name="Trazado 128481" d="M315.26,197.928c-1.965,6.2.188,21.364-5.985,25.3a17.129,17.129,0,0,0-8.138,15.514c4.02-5.554,10.7-8.721,17.47-9.87s13.692-.467,20.5.332c3.212.377,18.215,5.141,17.4,8.273,4.827-7.178-.673-39.48-2.853-47.9-.655-2.521.619-6.075-1.866-6.837-5.751-1.795-18.206-5.285-30.8,2.817C315.924,188.829,316.525,193.962,315.26,197.928Z" transform="translate(-301.112 -180.439)"/>
      </g>
      <path id="Trazado_128482" data-name="Trazado 128482" d="M282.223,187.724l-3.32-8.434-4.074,6.326s2.145,4.289,4.756,4.486Z" transform="translate(-271.319 -144.181)" fill="#dd8c6a"/>
      <path id="Trazado_128483" data-name="Trazado 128483" d="M272.786,177.107l-1.274,1.427a2.387,2.387,0,0,0-.072,3.069l2.961,3.7,4.074-6.281-2.3-2.091a2.36,2.36,0,0,0-3.392.179Z" transform="translate(-270.917 -143.874)" fill="#dd8c6a"/>
      <path id="Trazado_128484" data-name="Trazado 128484" d="M275.7,184.9h0l-1.05-.628a6.567,6.567,0,0,1-1.436-1.149l-.161-.736a1.05,1.05,0,0,1,1.184-.395l.9.305,4.486.619V184.8l-1.427,1.947h-.458A2.028,2.028,0,0,1,275.7,184.9Z" transform="translate(-271.136 -144.454)" fill="#dd8c6a"/>
      <path id="Trazado_128485" data-name="Trazado 128485" d="M311.2,191.107s-8.47,6.407-14.948,12.346c0,0-12.059-12.481-13.791-15.6l-3.383,2.943a67.936,67.936,0,0,0,5.3,12.831,23.665,23.665,0,0,0,3.912,4.98,11.8,11.8,0,0,0,3.123,2.145,7.842,7.842,0,0,0,4.675.646,7.628,7.628,0,0,0,1.2-.314l.763-.278,1.382-.529c.9-.341,1.794-.763,2.692-1.148a55.786,55.786,0,0,0,5.285-2.764,53.388,53.388,0,0,0,4.98-3.383c.826-.637,1.57-1.292,2.342-2,.377-.341.763-.718,1.131-1.095l.556-.592c.206-.224.35-.395.637-.727Z" transform="translate(-271.755 -145.061)" fill="#f5ca56"/>
      <path id="Trazado_128486" data-name="Trazado 128486" d="M321.283,186.068c-3.06-.754-24.693,18.493-24.693,18.493l3.266,6.057s19.641-8.192,25.671-17.048C325.024,189.361,325.751,187.18,321.283,186.068Z" transform="translate(-273.554 -144.875)" fill="#f5ca56"/>
      <path id="Trazado_128487" data-name="Trazado 128487" d="M321.643,193.49l-2.584,7.806c-10.651,7.385-14.249,8.407-14.249,8.407Z" transform="translate(-274.398 -145.64)" opacity="0.2"/>
      <path id="Trazado_128488" data-name="Trazado 128488" d="M325.622,404.628l-7.376.269L316.99,387.75l7.376-.26Z" transform="translate(-275.65 -165.57)" fill="#dd8c6a"/>
      <path id="Trazado_128489" data-name="Trazado 128489" d="M314.543,407.743a.17.17,0,0,0,.144-.135.207.207,0,0,0-.09-.188c-.323-.179-3.23-1.795-4.154-1.31a.574.574,0,0,0-.305.458.987.987,0,0,0,.278.9,2.818,2.818,0,0,0,1.795.511A12.757,12.757,0,0,0,314.543,407.743Zm-3.589-1.373a9.466,9.466,0,0,1,3.051,1.122c-1.651.215-2.862.108-3.3-.305a.682.682,0,0,1-.179-.574.233.233,0,0,1,.126-.188.6.6,0,0,1,.332-.045Z" transform="translate(-274.944 -167.473)" fill="#7d6eb2"/>
      <path id="Trazado_128490" data-name="Trazado 128490" d="M314.87,407.515a.179.179,0,0,0,.045-.161c0-.081-.108-2.091-1.014-2.889a1.265,1.265,0,0,0-.969-.305.655.655,0,0,0-.673.476c-.161.834,1.525,2.485,2.4,2.907h.063a.242.242,0,0,0,.153-.027Zm-1.795-3.006a.9.9,0,0,1,.628.2,4.01,4.01,0,0,1,.9,2.315c-.9-.556-2.028-1.848-1.92-2.351,0,0,0-.161.341-.188h.108Z" transform="translate(-275.163 -167.281)" fill="#7d6eb2"/>
      <path id="Trazado_128491" data-name="Trazado 128491" d="M317.249,403.62l6.622.691a.574.574,0,0,1,.538.556l1.005,9.323a1.193,1.193,0,0,1-1.2,1.193h-.144c-2.871-.332-4.244-.628-7.887-.978-2.234-.215-9.17.162-12.149-.727s-2.261-3.876-.9-3.778c4.244.35,9.323-2.109,11.979-5.2C315.454,404.445,316.791,403.557,317.249,403.62Z" transform="translate(-274.105 -167.226)" fill="#263238"/>
      <path id="Trazado_128492" data-name="Trazado 128492" d="M316.99,387.751l.646,8.838,7.376-.26-.637-8.829Z" transform="translate(-275.65 -165.571)" opacity="0.2"/>
      <path id="Trazado_128493" data-name="Trazado 128493" d="M318.068,194.186c-4.639,6.855.108,13.19,3.051,34.742l27.618,1.795c.269-11.5.9-20.772,7.178-43.069a3.822,3.822,0,0,0-2.611-4.72,4.245,4.245,0,0,0-.808-.144c-2.288-.135-5.159-.233-8.075-.126a101.594,101.594,0,0,0-13.8,1.211,60.176,60.176,0,0,0-7.34,1.795C321.845,186.119,319.889,189.87,318.068,194.186Z" transform="translate(-275.561 -144.523)" fill="#fff"/>
      <path id="Trazado_128494" data-name="Trazado 128494" d="M318.6,235.76s-19.184,36.851-15.783,88.731c-.565,12.373,12.212,51.207,12.212,51.207H325s.583-56.34,2.162-70.965c2.566-23.948,12.454-68.076,12.454-68.076Z" transform="translate(-274.152 -149.982)" fill="#727997"/>
      <path id="Trazado_128495" data-name="Trazado 128495" d="M327.884,394.23l-14.06-.045L312.81,389.9l15.747-.467Z" transform="translate(-275.22 -165.769)" fill="#7d6eb2"/>
      <path id="Trazado_128496" data-name="Trazado 128496" d="M327.884,394.23l-14.06-.045L312.81,389.9l15.747-.467Z" transform="translate(-275.22 -165.769)" fill="#fff" opacity="0.4"/>
      <path id="Trazado_128497" data-name="Trazado 128497" d="M327.693,325.167c-3.248-1.4-12.113-8.434-9.565-25.689L328,257.89Z" transform="translate(-275.72 -152.256)" opacity="0.2"/>
      <path id="Trazado_128498" data-name="Trazado 128498" d="M348.723,312.119c-8.291-24.881,11.53-57.237,1.1-74.832L332.59,237s-22.1,77.031,2.979,87.511Z" transform="translate(-276.328 -150.11)" fill="#727997"/>
      <path id="Trazado_128499" data-name="Trazado 128499" d="M395.27,220.821c1.068,1.795,7.088,1.014,7.088,1.014l1.732-7.295-7.492,2.467Z" transform="translate(-283.691 -147.803)" fill="#dd8c6a"/>
      <path id="Trazado_128500" data-name="Trazado 128500" d="M404.893,214.47l-1.723,7.358,4.486,1.166a.969.969,0,0,0,1.077-.7l2.028-5.384a.511.511,0,0,0-.332-.619Z" transform="translate(-284.503 -147.795)" fill="#dd8c6a"/>
      <path id="Trazado_128501" data-name="Trazado 128501" d="M392.267,213.751l-1.319,3.822a98.046,98.046,0,0,1-17.048-.3h-.063c-2.593-.26-9.161-1.445-11.943-6.442-3.957-7.115-8.695-16.151-8.775-19.076-.153-6.281,2.593-10.274,5.384-8.345,5.635,3.948,10.471,18.08,13.217,23.814l6.568,2.082Z" transform="translate(-279.361 -144.555)" fill="#f5ca56"/>
      <path id="Trazado_128502" data-name="Trazado 128502" d="M393.172,374.556l-5.644,4.782L374.5,367.961l5.123-6.1Z" transform="translate(-281.558 -162.937)" fill="#dd8c6a"/>
      <path id="Trazado_128503" data-name="Trazado 128503" d="M386.309,377.736l3.724-5.527a.583.583,0,0,1,.754-.206l8.7,3.49a1.193,1.193,0,0,1,.485,1.624l-.072.117c-1.642,2.387-2.557,3.455-4.576,6.505-1.238,1.875-4.163,8.174-6.344,10.39s-4.486.161-3.777-.951c2.3-3.589,2.512-9.215,1.041-13.01A6.477,6.477,0,0,1,386.309,377.736Z" transform="translate(-282.644 -163.972)" fill="#263238"/>
      <path id="Trazado_128504" data-name="Trazado 128504" d="M375.466,357.8l-5.447,6.362,8.488,7.277,5.455-5.5Z" transform="translate(-281.097 -162.52)" opacity="0.2"/>
      <path id="Trazado_128505" data-name="Trazado 128505" d="M328.05,324.818c1.211,14.437,41.49,42.243,41.49,42.243l7.591-7.779s-28.461-33.136-27.95-38.583Z" transform="translate(-276.786 -158.708)" fill="#727997"/>
      <path id="Trazado_128506" data-name="Trazado 128506" d="M382.756,361.567l-9.78,10.229-4.145-2.118,11.647-12.158Z" transform="translate(-280.975 -162.491)" fill="#7d6eb2"/>
      <path id="Trazado_128507" data-name="Trazado 128507" d="M382.756,361.567l-9.78,10.229-4.145-2.118,11.647-12.158Z" transform="translate(-280.975 -162.491)" fill="#fff" opacity="0.4"/>
      <path id="Trazado_128508" data-name="Trazado 128508" d="M386.337,380.78a.2.2,0,0,0,0-.188.171.171,0,0,0-.188-.063c-.26.081-2.862.826-3.122,1.732a.583.583,0,0,0,.135.592,1.023,1.023,0,0,0,.9.395l.081-.045C384.965,383.041,385.853,381.624,386.337,380.78Zm-.547.206c-.646,1.158-1.328,1.795-1.795,1.893a.673.673,0,0,1-.583-.269.287.287,0,0,1-.081-.26c.144-.493,1.463-1.059,2.485-1.373Z" transform="translate(-282.43 -164.854)" fill="#7d6eb2"/>
      <path id="Trazado_128509" data-name="Trazado 128509" d="M386.2,380.736a.2.2,0,0,0,.126-.126.171.171,0,0,0-.09-.153c-.072-.054-1.678-1.463-2.746-1.319a.9.9,0,0,0-.682.377.619.619,0,0,0,0,.763c.485.6,2.216.7,3.123.511A1.477,1.477,0,0,0,386.2,380.736Zm-2.692-1.283h.054a3.876,3.876,0,0,1,2.207,1.023c-.9.153-2.351,0-2.692-.422a.315.315,0,0,1,0-.35.538.538,0,0,1,.368-.251Z" transform="translate(-282.397 -164.711)" fill="#7d6eb2"/>
      <path id="Trazado_128510" data-name="Trazado 128510" d="M349.358,234.445l.592,2.692c.09.215-.162.413-.511.386l-28.506-1.795c-.269,0-.485-.171-.493-.332l-.1-2.692c0-.179.242-.332.538-.305l28,1.795a.556.556,0,0,1,.475.251Z" transform="translate(-275.994 -149.637)" fill="#263238"/>
      <path id="Trazado_128511" data-name="Trazado 128511" d="M346.328,237.554l.825.054c.161,0,.3-.063.287-.17l-.153-3.517c0-.1-.144-.188-.314-.2l-.826-.063c-.153,0-.287.072-.278.179l.153,3.508C346.031,237.482,346.166,237.554,346.328,237.554Z" transform="translate(-278.616 -149.767)" fill="#7d6eb2"/>
      <path id="Trazado_128512" data-name="Trazado 128512" d="M323.389,236.155l.834.054c.153,0,.287-.063.278-.171l-.153-3.508c0-.108-.144-.2-.3-.206l-.826-.054c-.161,0-.3.063-.287.161l.153,3.517C323.092,236.056,323.227,236.146,323.389,236.155Z" transform="translate(-276.261 -149.624)" fill="#7d6eb2"/>
      <path id="Trazado_128513" data-name="Trazado 128513" d="M333.942,236.8l.826.054c.161,0,.3-.072.287-.171l-.215-3.508c0-.108-.135-.2-.3-.206l-.826-.054c-.153,0-.287.063-.278.161l.153,3.508C333.6,236.687,333.727,236.786,333.942,236.8Z" transform="translate(-277.34 -149.69)" fill="#7d6eb2"/>
      <path id="Trazado_128514" data-name="Trazado 128514" d="M345.592,165.87c-1.157,4.441-2.53,12.517.368,15.164,0,0-1.507,4.54-9.753,5.258-9.107.8-4.047-4.047-4.047-4.047,5.025-1.642,5.132-5.2,4.486-8.524Z" transform="translate(-277.064 -142.803)" fill="#dd8c6a"/>
      <path id="Trazado_128515" data-name="Trazado 128515" d="M345.558,182.717a88.178,88.178,0,0,0-13.055,1l-4.684,1.05c-1.238,2.144-1.346,7.178,3.777,8.372,0,0,10.489,2.127,16-7.1a2.243,2.243,0,0,0-2.037-3.347Z" transform="translate(-276.689 -144.53)" fill="#dd8c6a"/>
      <path id="Trazado_128516" data-name="Trazado 128516" d="M342.624,169.45l-5.294,4.639a13.218,13.218,0,0,1,.269,2.369c1.911-.431,5.061-2.315,5.384-4.28a6.865,6.865,0,0,0-.359-2.728Z" transform="translate(-277.739 -143.17)" opacity="0.2"/>
      <path id="Trazado_128517" data-name="Trazado 128517" d="M340.646,143.7a6.927,6.927,0,0,1-3.32,3.526c-.9.4-3.589,1.579-4.415,2.5-1.418,1.543-2.261-5.231,1.373-7.026S342.458,139.786,340.646,143.7Z" transform="translate(-277.161 -140.254)" fill="#263238"/>
      <path id="Trazado_128518" data-name="Trazado 128518" d="M336.513,173.94a3.589,3.589,0,0,1-5.455-1.723,3.966,3.966,0,0,1-3.679-1.337,4.594,4.594,0,0,1-.9-4.154,8.515,8.515,0,0,1,3.078-3.876,24.308,24.308,0,0,0,6.6,10.552Z" transform="translate(-276.608 -142.492)" fill="#263238"/>
      <path id="Trazado_128519" data-name="Trazado 128519" d="M351.231,158.347c-2.647,6.846-3.589,9.807-8.318,12.275-7.026,3.715-14.9-1.032-14.356-8.533.485-6.747,4.729-16.824,12.481-17.443a10.014,10.014,0,0,1,10.157,13.7Z" transform="translate(-276.835 -140.618)" fill="#dd8c6a"/>
      <path id="Trazado_128520" data-name="Trazado 128520" d="M334.973,157.54a15.731,15.731,0,0,1-3.033,3.14,2.584,2.584,0,0,0,1.956.9Z" transform="translate(-277.185 -141.947)" fill="#de5753"/>
      <path id="Trazado_128521" data-name="Trazado 128521" d="M353.644,166.063a5.384,5.384,0,0,1-3.589,2.01c-1.875.215-2.485-1.525-1.741-3.14.691-1.445,2.494-3.3,4.253-2.764a2.4,2.4,0,0,1,1.552,3.033A2.5,2.5,0,0,1,353.644,166.063Z" transform="translate(-278.836 -142.413)" fill="#dd8c6a"/>
      <path id="Trazado_128522" data-name="Trazado 128522" d="M343.927,155.808a.341.341,0,0,1-.341-.224,4.06,4.06,0,0,0-2.611-2.064.35.35,0,1,1,.17-.673,4.7,4.7,0,0,1,3.1,2.5.35.35,0,0,1-.2.458h-.126Z" transform="translate(-278.082 -141.462)" fill="#263238"/>
      <path id="Trazado_128523" data-name="Trazado 128523" d="M332.5,151.87a.35.35,0,0,1-.3-.17.341.341,0,0,1,.126-.476h0a3.517,3.517,0,0,1,3.2-.2.341.341,0,0,1,.153.467.359.359,0,0,1-.476.161h0a2.692,2.692,0,0,0-2.521.188.467.467,0,0,1-.189.027Z" transform="translate(-277.207 -141.248)" fill="#263238"/>
      <path id="Trazado_128524" data-name="Trazado 128524" d="M332.6,155.158c-.395-.1-.834.323-.978.9s.063,1.184.449,1.274.834-.323.978-.9S333,155.257,332.6,155.158Z" transform="translate(-277.148 -141.701)" fill="#263238"/>
      <path id="Trazado_128525" data-name="Trazado 128525" d="M331.4,154.4l1.355.772C331.876,155.719,331.4,154.4,331.4,154.4Z" transform="translate(-277.13 -141.624)" fill="#263238"/>
      <path id="Trazado_128526" data-name="Trazado 128526" d="M340.213,157.218c-.395-.1-.834.323-.978.9s.063,1.184.449,1.274.834-.323.978-.9S340.608,157.317,340.213,157.218Z" transform="translate(-277.93 -141.912)" fill="#263238"/>
      <path id="Trazado_128527" data-name="Trazado 128527" d="M339,156.46l1.355.772C339.484,157.779,339,156.46,339,156.46Z" transform="translate(-277.911 -141.836)" fill="#263238"/>
      <path id="Trazado_128528" data-name="Trazado 128528" d="M333.1,165a21.6,21.6,0,0,1,.09,3.2l.556.117c2.512.494,3.84-.108,4.549-.9a3.392,3.392,0,0,0,.691-1.4,3.149,3.149,0,0,0,.1-.9,11.342,11.342,0,0,1-5.123,0A3.44,3.44,0,0,1,333.1,165Z" transform="translate(-277.305 -142.713)" fill="#263238"/>
      <path id="Trazado_128529" data-name="Trazado 128529" d="M334.06,165.194l.045.951c2.369.458,4.1.467,4.98-.108a3.149,3.149,0,0,0,.1-.9A11.914,11.914,0,0,1,334.06,165.194Z" transform="translate(-277.403 -142.728)" fill="#fff"/>
      <path id="Trazado_128530" data-name="Trazado 128530" d="M333.82,168.613c2.512.494,3.84-.108,4.549-.9a8.273,8.273,0,0,0-2.9,0A3.042,3.042,0,0,0,333.82,168.613Z" transform="translate(-277.379 -142.979)" fill="#de5753"/>
      <path id="Trazado_128531" data-name="Trazado 128531" d="M341.927,141.309c1.6-1.472,4.154-1.418,6.1-.458a16.1,16.1,0,0,1,4.827,4.3c2.441,2.853,4.917,5.823,6.083,9.394s.727,7.923-2.046,10.453c-.817.745-1.795,1.3-2.575,2.082a3.3,3.3,0,0,0-1.113,2.952,1.751,1.751,0,0,0,2.53,1.148,4,4,0,0,1-5.177.709,4.262,4.262,0,0,1-4.549.9c-1.507-.628-4.854-2.773-4.145-6.012,1.795-.3,6.676-4.3,7-6.658s-.063-7.088-1.086-9.242c-.269.9-1.445.763-2.234.314a4.737,4.737,0,0,1-1.624-2.136,7.115,7.115,0,0,0-1.651-2.109c-2.225-2.019-3.652.4-4.3.171C338.463,144.817,340.2,142.9,341.927,141.309Z" transform="translate(-277.805 -140.162)" fill="#263238"/>
      <path id="Trazado_128532" data-name="Trazado 128532" d="M343.69,240.28a45.692,45.692,0,0,1,1.086,8.192,39.8,39.8,0,0,1-.26,7.331A21.633,21.633,0,0,0,343.69,240.28Z" transform="translate(-278.393 -150.447)" opacity="0.2"/>
      <path id="Trazado_128533" data-name="Trazado 128533" d="M325.267,239.21q-2.934,7.528-5.877,15.029A31.118,31.118,0,0,1,325.267,239.21Z" transform="translate(-275.896 -150.337)" opacity="0.2"/>
      <path id="Trazado_128534" data-name="Trazado 128534" d="M352.4,192.889s7,14.186,8.614,29.7c1.463,14.141.763,15.944.763,15.944s2.835-2.692,2.171-17.416a137.46,137.46,0,0,0-5.025-30.507,59.862,59.862,0,0,0-6.523,2.279Z" transform="translate(-279.287 -145.344)" fill="#f5ca56"/>
      <path id="Trazado_128535" data-name="Trazado 128535" d="M351.925,192.32l-4.388-9.816-1.158-1.884a70.511,70.511,0,0,1,10.058,2.153,33.584,33.584,0,0,0-2.62,6.281C353.468,190.068,353.109,192.392,351.925,192.32Z" transform="translate(-278.669 -144.318)" fill="#f5ca56"/>
      <path id="Trazado_128536" data-name="Trazado 128536" d="M319.06,192.422s8.075-8.739,16.043-11.512c0,0-5.384.395-12.275,4.711C322.828,185.621,319.571,189.138,319.06,192.422Z" transform="translate(-275.862 -144.348)" fill="#f5ca56"/>
    </g>
  </g>
</svg>
