<svg xmlns="http://www.w3.org/2000/svg" width="404.491" height="361" viewBox="0 0 404.491 361">
  <g id="Digital_personal_files-pana" data-name="Digital personal files-pana" transform="translate(-37.809 -48.9)">
    <g id="freepik--background-complete--inject-25" transform="translate(38.186 48.9)">
      <path id="Trazado_126746" data-name="Trazado 126746" d="M369.9,26.784l-2.667,28.1a1.8,1.8,0,0,0,1.42,2.036l45,6.773a1.812,1.812,0,0,0,1.974-1.628L418.9,40.371a1.817,1.817,0,0,0-1.415-2.122l-27.7-3.985a1.618,1.618,0,0,1-1.114-.718l-4.01-6.01a1.618,1.618,0,0,0-1.1-.723l-11.664-1.771a1.832,1.832,0,0,0-1.99,1.74Z" transform="translate(-45.561 231.814)" fill="#ebebeb"/>
      <rect id="Rectángulo_30397" data-name="Rectángulo 30397" width="49.724" height="33.124" transform="translate(324.955 259.569) rotate(8.59)" fill="#f5f5f5"/>
      <path id="Trazado_126747" data-name="Trazado 126747" d="M363.785,33.857l-1.41,34.722a1.14,1.14,0,0,0,.916,1.221l47.918,7.247a1.165,1.165,0,0,0,1.252-.952l7.572-33.786a1.176,1.176,0,0,0-.885-1.471l-54.08-8.163a1.186,1.186,0,0,0-1.282,1.181Z" transform="translate(-43.186 228.064)" fill="#ebebeb"/>
      <path id="Trazado_126748" data-name="Trazado 126748" d="M216.91,373,205,411.3a2.6,2.6,0,0,0,1.49,3.27l63.75,24a2.62,2.62,0,0,0,3.34-1.63l11-29.22a2.64,2.64,0,0,0-1.45-3.45l-39.3-14.5a2.43,2.43,0,0,1-1.42-1.37l-4.14-9.68a2.49,2.49,0,0,0-1.4-1.36l-16.53-6.22a2.64,2.64,0,0,0-3.43,1.86Z" transform="translate(-38.186 -112.72)" fill="#ebebeb"/>
      <rect id="Rectángulo_30398" data-name="Rectángulo 30398" width="74.43" height="47.13" transform="matrix(0.936, 0.352, -0.352, 0.936, 179.377, 261.802)" fill="#f5f5f5"/>
      <path id="Trazado_126749" data-name="Trazado 126749" d="M210.49,376.39l-12,48a1.69,1.69,0,0,0,1,2L267.35,452a1.68,1.68,0,0,0,2.1-.92l20.75-44.71a1.7,1.7,0,0,0-.87-2.33l-76.62-28.87a1.72,1.72,0,0,0-2.22,1.22Z" transform="translate(-38.186 -112.72)" fill="#ebebeb"/>
      <path id="Trazado_126750" data-name="Trazado 126750" d="M43.7,52l2.68,43.46a2.93,2.93,0,0,0,2.93,2.75h78.22a2.94,2.94,0,0,0,2.94-2.94V61.45a2.94,2.94,0,0,0-3-2.94l-48.1.31A2.93,2.93,0,0,1,77.33,58L69,49.74a2.94,2.94,0,0,0-2.06-.84H46.63A2.92,2.92,0,0,0,43.7,52Z" transform="translate(-38.186 -48.9)" fill="#ebebeb"/>
      <rect id="Rectángulo_30399" data-name="Rectángulo 30399" width="85.47" height="51.07" transform="translate(6.814 4.48)" fill="#f5f5f5"/>
      <path id="Trazado_126751" data-name="Trazado 126751" d="M38.2,58l6.52,53.26a1.89,1.89,0,0,0,1.88,1.66h83.29a1.9,1.9,0,0,0,1.89-1.74L136,57.88a1.89,1.89,0,0,0-1.88-2h-94A1.89,1.89,0,0,0,38.2,58Z" transform="translate(-38.186 -48.9)" fill="#ebebeb"/>
      <path id="Trazado_126753" data-name="Trazado 126753" d="M53.31,311.89v.3a4.432,4.432,0,0,0,.07.87c0,.78.13,1.91.22,3.36.2,2.91.45,7.13.73,12.35.58,10.44,1.26,24.86,2,40.79s1.34,30.36,1.86,40.79c.26,5.21.48,9.43.63,12.36.07,1.45.12,2.58.16,3.36v.88a5.216,5.216,0,0,0-.06-.87c-.06-.79-.13-1.92-.23-3.36-.19-2.92-.44-7.14-.73-12.36-.58-10.43-1.26-24.85-2-40.79s-1.33-30.35-1.85-40.79c-.27-5.2-.48-9.42-.63-12.36-.07-1.44-.13-2.57-.17-3.36v-1.17Z" transform="translate(-38.186 -112.72)" fill="#e0e0e0"/>
      <path id="Trazado_126754" data-name="Trazado 126754" d="M43.41,340.4a4.636,4.636,0,0,1,.53.44c.32.3.78.74,1.34,1.29,1.12,1.1,2.62,2.67,4.24,4.43l4.14,4.53c.5.54.92,1,1.26,1.37s.46.5.44.52a3.559,3.559,0,0,1-.53-.44c-.32-.29-.78-.73-1.33-1.29-1.11-1.12-2.59-2.71-4.21-4.47l-4.17-4.49-1.27-1.36a3,3,0,0,1-.44-.53Z" transform="translate(-38.186 -95.114)" fill="#e0e0e0"/>
      <path id="Trazado_126755" data-name="Trazado 126755" d="M56.2,352.7c-.06-.06,3-3.3,6.91-7.24s7.08-7.07,7.14-7-3,3.3-6.91,7.23S56.26,352.76,56.2,352.7Z" transform="translate(-38.186 -94.997)" fill="#e0e0e0"/>
      <path id="Trazado_126756" data-name="Trazado 126756" d="M56.17,377.21a2.9,2.9,0,0,1,.59-.37l1.65-.93c1.4-.78,3.32-1.87,5.4-3.15s3.93-2.5,5.26-3.39l1.58-1.05a3.852,3.852,0,0,1,.6-.36,5.129,5.129,0,0,1-.53.46c-.36.28-.87.67-1.52,1.14-1.3.94-3.13,2.19-5.22,3.47s-4,2.35-5.46,3.08c-.72.37-1.3.65-1.71.84A2.58,2.58,0,0,1,56.17,377.21Z" transform="translate(-38.186 -99.068)" fill="#e0e0e0"/>
      <path id="Trazado_126757" data-name="Trazado 126757" d="M42.15,368.63a3.119,3.119,0,0,1,.59.28l1.53.85c1.29.73,3.06,1.76,5,2.92s3.69,2.22,4.95,3c.63.39,1.13.71,1.48.94a2.489,2.489,0,0,1,.52.38,2.641,2.641,0,0,1-.59-.27c-.36-.2-.89-.49-1.53-.86-1.29-.73-3.05-1.76-5-2.91s-3.69-2.22-5-3c-.63-.39-1.13-.71-1.48-.94a2.631,2.631,0,0,1-.47-.39Z" transform="translate(-38.186 -99.065)" fill="#e0e0e0"/>
      <path id="Trazado_126758" data-name="Trazado 126758" d="M39.37,390.27a4,4,0,0,1,.75.36l2,1.09c1.66.93,3.94,2.23,6.44,3.69s4.76,2.79,6.39,3.77l1.91,1.17a4.441,4.441,0,0,1,.68.47,4.168,4.168,0,0,1-.74-.36l-2-1.08c-1.65-.93-3.93-2.24-6.43-3.69S43.6,392.9,42,391.92l-1.92-1.18a3.7,3.7,0,0,1-.71-.47Z" transform="translate(-38.186 -112.72)" fill="#e0e0e0"/>
      <path id="Trazado_126759" data-name="Trazado 126759" d="M57.14,400.45a4,4,0,0,1,.74-.49l2-1.26c1.74-1.05,4.13-2.52,6.73-4.22s4.91-3.28,6.58-4.44l2-1.37a6.819,6.819,0,0,1,.75-.48,4.541,4.541,0,0,1-.67.58c-.45.35-1.1.85-1.92,1.46-1.64,1.21-3.93,2.83-6.54,4.53s-5,3.13-6.78,4.14l-2.11,1.17a4.749,4.749,0,0,1-.78.38Z" transform="translate(-38.186 -112.72)" fill="#e0e0e0"/>
      <path id="Trazado_126761" data-name="Trazado 126761" d="M47.67,422.16s0,.08.12.2a1.57,1.57,0,0,0,.57.41,2.82,2.82,0,0,0,2.47-.31c.94-.52,1.77-1.54,3-2a6.65,6.65,0,0,1,4.31.09,18.578,18.578,0,0,1,4,1.94,27.567,27.567,0,0,0,3.26,1.75,8.91,8.91,0,0,0,2.41.69,3.713,3.713,0,0,0,.67.05.64.64,0,0,0,.24,0,12.239,12.239,0,0,1-3.21-1,32.149,32.149,0,0,1-3.19-1.8,17.34,17.34,0,0,0-4.07-2,6.81,6.81,0,0,0-4.54-.05A5.679,5.679,0,0,0,52,421.19a13.3,13.3,0,0,1-1.34,1,2.77,2.77,0,0,1-2.28.4,2.531,2.531,0,0,1-.71-.43Z" transform="translate(-38.186 -112.72)" fill="#f5f5f5"/>
      <path id="Trazado_126762" data-name="Trazado 126762" d="M48.52,432.81s.19-.24.55-.63A5.19,5.19,0,0,1,50.94,431a8.26,8.26,0,0,1,3.26-.49,35.074,35.074,0,0,1,4.07.55,13.8,13.8,0,0,0,4.17.18,11.821,11.821,0,0,0,3.28-.94,10.692,10.692,0,0,0,2-1.17,2.88,2.88,0,0,0,.63-.57,20.568,20.568,0,0,1-2.71,1.49,12.081,12.081,0,0,1-3.21.84,14.609,14.609,0,0,1-4.07-.2,28.9,28.9,0,0,0-4.12-.53,8.129,8.129,0,0,0-3.37.59A4.84,4.84,0,0,0,49,432.09a2.752,2.752,0,0,0-.35.51A.85.85,0,0,0,48.52,432.81Z" transform="translate(-38.186 -112.72)" fill="#f5f5f5"/>
      <path id="Trazado_126763" data-name="Trazado 126763" d="M67.2,438.51a1.731,1.731,0,0,0-.64-.34,6.787,6.787,0,0,0-1.94-.41,12.149,12.149,0,0,0-2.93.16c-1.09.18-2.26.48-3.49.74a14.732,14.732,0,0,1-3.49.4,7.759,7.759,0,0,1-2.76-.6,6.39,6.39,0,0,1-2.1-1.56,1.77,1.77,0,0,0,.39.61,4.87,4.87,0,0,0,1.59,1.19,7.38,7.38,0,0,0,2.87.71,14.2,14.2,0,0,0,3.58-.37c1.24-.27,2.4-.58,3.47-.77A12.482,12.482,0,0,1,64.6,438a10.37,10.37,0,0,1,2.6.51Z" transform="translate(-38.186 -112.72)" fill="#f5f5f5"/>
      <path id="Trazado_126764" data-name="Trazado 126764" d="M50.59,446.53a3.68,3.68,0,0,1,2.27-.23,10.87,10.87,0,0,1,2.38.88,8.851,8.851,0,0,0,3.08.85,9.3,9.3,0,0,0,5.6-1.29,9,9,0,0,0,1.4-1.08c.28-.3.43-.47.41-.49a23.154,23.154,0,0,1-1.94,1.33,9.5,9.5,0,0,1-5.43,1.15c-2.22-.12-3.92-1.45-5.46-1.62a3.59,3.59,0,0,0-1.76.15C50.74,446.34,50.58,446.51,50.59,446.53Z" transform="translate(-38.186 -112.72)" fill="#f5f5f5"/>
      <path id="Trazado_126765" data-name="Trazado 126765" d="M51.89,457.62a4.381,4.381,0,0,0,2-.38c1.18-.4,2.64-1.3,4.34-2a7,7,0,0,1,2.48-.53,4.68,4.68,0,0,1,2,.46,4.49,4.49,0,0,1,1.45,1.25.911.911,0,0,0-.22-.49,3.221,3.221,0,0,0-1.1-1,4.689,4.689,0,0,0-2.12-.57,7,7,0,0,0-2.63.52c-1.76.7-3.17,1.63-4.3,2.07S51.88,457.56,51.89,457.62Z" transform="translate(-38.186 -112.72)" fill="#f5f5f5"/>
      <path id="Trazado_126766" data-name="Trazado 126766" d="M53,462.79a5.4,5.4,0,0,0,1.48.48,26.278,26.278,0,0,0,3.71.62A25.1,25.1,0,0,0,62,464a5.349,5.349,0,0,0,1.55-.18c0-.12-2.37,0-5.27-.31S53.07,462.68,53,462.79Z" transform="translate(-38.186 -112.72)" fill="#f5f5f5"/>
    </g>
    <g id="freepik--Window--inject-25" transform="translate(97.8 71.55)">
      <rect id="Rectángulo_30400" data-name="Rectángulo 30400" width="331.83" height="291.82" transform="translate(0.14 0.26)" fill="#fff"/>
      <path id="Trazado_126767" data-name="Trazado 126767" d="M429.77,363.63c0-1.85-.08-116.18-.22-291.82l.22.22L98,72.07h0l.26-.26V363.63l-.23-.23,331.83.23-331.83.23H97.8V71.55H430v.22C429.86,247.46,429.78,361.78,429.77,363.63Z" transform="translate(-97.8 -71.55)" fill="#263238"/>
      <path id="Trazado_126768" data-name="Trazado 126768" d="M169.23,146.44v52.34h63.62V146.44a4.51,4.51,0,0,0-4.51-4.51H173.75a4.51,4.51,0,0,0-4.52,4.51Z" transform="translate(-97.8 -71.55)" fill="#90caf9"/>
      <path id="Trazado_126769" data-name="Trazado 126769" d="M156.46,236l14.21-39.09,62.18,1.86-9.27,35.65a3.16,3.16,0,0,1-3.12,2.36l-16.1-.34-2.65,3.75a3.51,3.51,0,0,1-3.05,1.5l-38.92-1.64a3.5,3.5,0,0,1-3.28-4.05Z" transform="translate(-97.8 -71.55)" fill="#90caf9"/>
      <path id="Trazado_126770" data-name="Trazado 126770" d="M172.64,151.14V192.1l55.92,3.08-.25-44.04Z" transform="translate(-97.8 -71.55)" fill="#f5f5f5"/>
      <path id="Trazado_126771" data-name="Trazado 126771" d="M172.64,151.14h4.01L188,151l40.29-.11h.23v.23c.07,12.77.16,27.3.26,42.66v1.65h-.28l-55.91-3.13h-.2v-.2c0-12.42.07-22.66.09-29.81,0-3.55,0-6.34.06-8.27v.05c0,1.91,0,4.68.06,8.22,0,7.15.06,17.39.09,29.81l-.2-.21,55.92,3-.27.26v-1.38c-.08-15.35-.15-29.89-.21-42.66l.23.24-40.14-.12-11.42-.06h-3.79Z" transform="translate(-97.8 -71.55)" fill="#263238"/>
      <path id="Trazado_126772" data-name="Trazado 126772" d="M175.57,161.36c.05-1.36,0-7.22,0-7.22,15.63,0,33.14.06,48.77,0,.44,7.74.53,18.18,1,25.92" transform="translate(-97.8 -71.55)" fill="#ebebeb"/>
      <path id="Trazado_126773" data-name="Trazado 126773" d="M225.31,180.07a1.78,1.78,0,0,1-.07-.49c0-.37-.07-.84-.11-1.42-.09-1.24-.18-3.06-.28-5.35-.22-4.58-.34-11.06-.75-18.64l.24.22h-15c-14,0-26.38,0-33.74-.12l.14-.15c0,2.24-.05,4-.07,5.32v1.41a3.832,3.832,0,0,1,0,.49,1.72,1.72,0,0,1,0-.49q0-.54,0-1.41c0-1.29,0-3.08-.07-5.32V154h.15c7.36-.07,19.72-.11,33.74-.1h15.23v.23c.37,7.6.43,14.08.56,18.66.06,2.25.11,4.06.15,5.35v1.42a3.8,3.8,0,0,1-.12.51Z" transform="translate(-97.8 -71.55)" fill="#e0e0e0"/>
      <path id="Trazado_126774" data-name="Trazado 126774" d="M164.1,161.54l11.53,33.64h52.93l-7.91-33.82Z" transform="translate(-97.8 -71.55)" fill="#fff"/>
      <path id="Trazado_126775" data-name="Trazado 126775" d="M164.1,161.54h4.11l11.63-.1,40.81-.26h.19v.18l7.6,32.45c.11.46.22.92.32,1.37l.08.32h-.33l-52.93-.05h-.15v-.14c-3.48-10.3-6.33-18.74-8.33-24.63-1-2.9-1.73-5.17-2.25-6.74-.25-.75-.44-1.34-.58-1.75s-.18-.59-.18-.59l.23.62.63,1.78c.55,1.58,1.35,3.86,2.37,6.76,2,5.84,4.95,14.21,8.5,24.41l-.2-.14,52.93-.05-.26.32c-.1-.45-.21-.91-.32-1.37l-7.57-32.46.24.19H164.35A1.228,1.228,0,0,1,164.1,161.54Z" transform="translate(-97.8 -71.55)" fill="#263238"/>
      <g id="Grupo_55473" data-name="Grupo 55473" transform="translate(63.38 124.116)" opacity="0.3">
        <path id="Trazado_126776" data-name="Trazado 126776" d="M228.49,195.88a1.45,1.45,0,0,0-1.32-.1,208.729,208.729,0,0,0-58.57,25.51l-7.42,8.6c.94,1.47,2.95,1.73,4.69,1.85l24.94,1.62c5.8.38,11.6.76,17.41.74,3.45,0,7.22-.29,9.73-2.65a13.84,13.84,0,0,0,3.05-5.2,129.73,129.73,0,0,0,7.72-29.11A1.41,1.41,0,0,0,228.49,195.88Z" transform="translate(-161.18 -195.666)"/>
      </g>
      <path id="Trazado_126777" data-name="Trazado 126777" d="M175.63,197.84l-14.79,31.99,55.54,1.11,12.18-35.76Z" transform="translate(-97.8 -71.55)" fill="#f5f5f5"/>
      <path id="Trazado_126778" data-name="Trazado 126778" d="M175.63,197.84a.751.751,0,0,1,.24,0l.73-.06,2.86-.17L190.3,197l38.24-2h.35l-.11.34c-3.67,10.81-7.8,23-12.16,35.76l-.06.18h-.2L160.83,230h-.31l.13-.29c4.56-9.76,8.3-17.75,10.9-23.33,1.29-2.74,2.31-4.89,3-6.37l.79-1.66c.18-.37.28-.54.28-.54s-.08.21-.24.59-.44,1-.76,1.7l-2.92,6.45L161,229.91l-.18-.29,55.53,1.06h0l-.25.18,12.2-35.76.24.32-38.15,1.81-10.88.48-2.89.11h-.76Z" transform="translate(-97.8 -71.55)" fill="#263238"/>
      <path id="Trazado_126779" data-name="Trazado 126779" d="M175.39,195.18l-16.05,17.67,55.17.42,13.8-18.09Z" transform="translate(-97.8 -71.55)" fill="#fafafa"/>
      <path id="Trazado_126780" data-name="Trazado 126780" d="M175.39,195.18a1,1,0,0,1,.24,0h3.66l11-.07,38.07-.1h.5l-.3.4c-4.29,5.62-8.95,11.74-13.79,18.1l-.08.1h-1.81L159.34,213h-.43l.29-.32L171,199.83l3.22-3.47.84-.89a1.7,1.7,0,0,1,.3-.29l-.27.34-.82.93L171.13,200l-11.65,13-.14-.32,53.49.33h1.68l-.21.1c4.86-6.35,9.52-12.46,13.81-18.08l.2.4-38-.1-11-.07h-3.7Z" transform="translate(-97.8 -71.55)" fill="#263238"/>
      <path id="Trazado_126781" data-name="Trazado 126781" d="M173.65,179.78l-4.74-14.77h49.18l6.89,27" transform="translate(-97.8 -71.55)" fill="#f5f5f5"/>
      <path id="Trazado_126782" data-name="Trazado 126782" d="M225,192a2.359,2.359,0,0,1-.17-.5c-.11-.37-.24-.85-.41-1.46l-1.49-5.54-5.06-19.44.24.18H199.7l-30.77-.06.18-.26,3.39,10.83c.37,1.25.67,2.23.89,2.95l.22.78a.85.85,0,0,1,.06.27,1,1,0,0,1-.11-.26c-.08-.2-.17-.45-.28-.75l-1-2.93c-.85-2.59-2.06-6.26-3.55-10.77l-.08-.25h.27l30.77-.07h18.59v.18c2,7.93,3.67,14.67,4.87,19.49.57,2.35,1,4.23,1.35,5.57.15.62.26,1.11.34,1.48a2.92,2.92,0,0,1,.16.56Z" transform="translate(-97.8 -71.55)" fill="#263238"/>
      <path id="Trazado_126783" data-name="Trazado 126783" d="M202.84,177a7.63,7.63,0,0,0-2.51-1.55c-1.84-.56-3.83.35-5.31,1.59s-2.68,2.8-4.25,3.92l17.25.28Z" transform="translate(-97.8 -71.55)" fill="#fff"/>
      <path id="Trazado_126784" data-name="Trazado 126784" d="M211.87,171.84c-.62-.93-2.67-2.08-4-1.22h0a2.67,2.67,0,0,0-1.71,2,3.16,3.16,0,0,0,5.51,2.31,2.65,2.65,0,0,0,.2-3.09Z" transform="translate(-97.8 -71.55)" fill="#fff"/>
      <path id="Trazado_126785" data-name="Trazado 126785" d="M175.39,195.18l-16.55-15.4,54.16.44,15.56,14.96Z" transform="translate(-97.8 -71.55)" fill="#fafafa"/>
      <path id="Trazado_126786" data-name="Trazado 126786" d="M175.39,195.18a1.33,1.33,0,0,1,.26,0h3.77l11.05-.07,38.13-.1-.18.43-15.56-15,.18.08h-1l-53.2-.52.13-.32L171,191l3.27,3.1.85.82a2.7,2.7,0,0,1,.28.3,1.691,1.691,0,0,1-.3-.25c-.22-.19-.51-.44-.87-.77l-3.32-3-12.19-11.23-.35-.32h.48L212,180h1.11l.07.07,15.55,15,.44.43h-.61l-38.21-.1-11-.07h-3.68A1,1,0,0,1,175.39,195.18Z" transform="translate(-97.8 -71.55)" fill="#263238"/>
      <path id="Trazado_126787" data-name="Trazado 126787" d="M208.52,185.7c0,.14-8,.26-17.75.26S173,185.84,173,185.7s7.95-.26,17.75-.26S208.52,185.55,208.52,185.7Z" transform="translate(-97.8 -71.55)" fill="#263238"/>
      <path id="Trazado_126788" data-name="Trazado 126788" d="M212.45,189.36c0,.14-7.95.26-17.75.26s-17.7-.12-17.7-.26,7.94-.26,17.75-.26S212.45,189.22,212.45,189.36Z" transform="translate(-97.8 -71.55)" fill="#263238"/>
      <path id="Trazado_126789" data-name="Trazado 126789" d="M216,192.89c0,.14-7.95.26-17.75.26s-17.76-.12-17.76-.26,7.95-.26,17.76-.26S216,192.74,216,192.89Z" transform="translate(-97.8 -71.55)" fill="#263238"/>
      <path id="Trazado_126790" data-name="Trazado 126790" d="M211.55,207c0,.14-8.2.26-18.32.26s-18.32-.12-18.32-.26,8.2-.26,18.32-.26S211.55,206.89,211.55,207Z" transform="translate(-97.8 -71.55)" fill="#263238"/>
      <path id="Trazado_126791" data-name="Trazado 126791" d="M215.72,202.87c0,.14-8.2.26-18.32.26s-18.32-.12-18.32-.26,8.2-.26,18.32-.26S215.72,202.72,215.72,202.87Z" transform="translate(-97.8 -71.55)" fill="#263238"/>
      <path id="Trazado_126792" data-name="Trazado 126792" d="M430.74,101.74c0,.14-73.68.26-164.54.26s-164.55-.12-164.55-.26,73.66-.26,164.55-.26S430.74,101.6,430.74,101.74Z" transform="translate(-97.8 -71.55)" fill="#263238"/>
      <path id="Trazado_126793" data-name="Trazado 126793" d="M120.53,88.08a3.41,3.41,0,1,1-3.41-3.41,3.41,3.41,0,0,1,3.41,3.41Z" transform="translate(-97.8 -71.55)" fill="#90caf9"/>
      <path id="Trazado_126794" data-name="Trazado 126794" d="M131.71,88.08a3.41,3.41,0,1,1-3.41-3.41,3.41,3.41,0,0,1,3.41,3.41Z" transform="translate(-97.8 -71.55)" fill="#90caf9"/>
      <path id="Trazado_126795" data-name="Trazado 126795" d="M142.89,88.08a3.41,3.41,0,1,1-3.41-3.41,3.41,3.41,0,0,1,3.41,3.41Z" transform="translate(-97.8 -71.55)" fill="#90caf9"/>
      <path id="Trazado_126796" data-name="Trazado 126796" d="M247.22,94.08V88.89l-2.54,4.27h-.9L241.24,89v5.08h-1.88V85.44H241l3.24,5.37,3.18-5.37h1.64v8.64Z" transform="translate(-97.8 -71.55)" fill="#263238"/>
      <path id="Trazado_126797" data-name="Trazado 126797" d="M257.61,87.44l-3,7c-.65,1.61-1.56,2.09-2.76,2.09A3,3,0,0,1,250,96l.7-1.37a1.77,1.77,0,0,0,1.09.41c.53,0,.83-.23,1.09-.82v-.06L250,87.44h2l1.87,4.5,1.87-4.5Z" transform="translate(-97.8 -71.55)" fill="#263238"/>
      <path id="Trazado_126798" data-name="Trazado 126798" d="M267.52,87v2.28h4v1.61h-4v3.15h-2v-8.6h6.53V87Z" transform="translate(-97.8 -71.55)" fill="#263238"/>
      <path id="Trazado_126799" data-name="Trazado 126799" d="M272.91,85.44a1.11,1.11,0,0,1,1.2-1.08,1.08,1.08,0,0,1,1.2,1,1.21,1.21,0,0,1-2.4,0Zm.24,2h1.92v6.64h-1.92Z" transform="translate(-97.8 -71.55)" fill="#263238"/>
      <path id="Trazado_126800" data-name="Trazado 126800" d="M276.86,84.92h1.93v9.16h-1.93Z" transform="translate(-97.8 -71.55)" fill="#263238"/>
      <path id="Trazado_126801" data-name="Trazado 126801" d="M287.05,91.3h-5a1.76,1.76,0,0,0,1.9,1.33,2.24,2.24,0,0,0,1.66-.64l1,1.11a3.47,3.47,0,0,1-2.74,1.08c-2.3,0-3.79-1.45-3.79-3.42a3.38,3.38,0,0,1,3.54-3.42,3.29,3.29,0,0,1,3.46,3.44A4.669,4.669,0,0,1,287.05,91.3ZM282,90.18h3.27a1.66,1.66,0,0,0-3.27,0Z" transform="translate(-97.8 -71.55)" fill="#263238"/>
      <path id="Trazado_126802" data-name="Trazado 126802" d="M287.73,93.46l.64-1.38a4.58,4.58,0,0,0,2.31.64c.89,0,1.22-.24,1.22-.61,0-1.08-4,0-4-2.63,0-1.25,1.14-2.14,3.07-2.14a5.47,5.47,0,0,1,2.56.58l-.64,1.37a3.85,3.85,0,0,0-1.92-.5c-.86,0-1.23.27-1.23.62,0,1.14,4,0,4,2.65,0,1.24-1.15,2.12-3.13,2.12a5.68,5.68,0,0,1-2.88-.72Z" transform="translate(-97.8 -71.55)" fill="#263238"/>
      <path id="Trazado_126803" data-name="Trazado 126803" d="M414.34,127.5a5,5,0,0,0,.55-.11,1.91,1.91,0,0,0,1.17-1.09,2.851,2.851,0,0,0,.12-1.2c0-.46,0-1,0-1.5v-9.7a1.83,1.83,0,0,0-.54-1.12,1.77,1.77,0,0,0-1.18-.49H399.44l-78.47.08a1.66,1.66,0,0,0-1.65,1.52v11.26a2.16,2.16,0,0,0,.22,1.21,1.64,1.64,0,0,0,.89.75,1.68,1.68,0,0,0,.6.09h25.61l35.27.06,23.79.08h0l-23.79.08-35.27.06H321a2.46,2.46,0,0,1-.76-.12,2.16,2.16,0,0,1-1.18-1,2.63,2.63,0,0,1-.28-1.47v-11a2.2,2.2,0,0,1,2.17-2l78.47.08h15.02a2,2,0,0,1,2,1.87v11.22a2.75,2.75,0,0,1-.16,1.24,1.92,1.92,0,0,1-1.24,1.1,1.38,1.38,0,0,1-.7.1Z" transform="translate(-97.8 -71.55)" fill="#e0e0e0"/>
      <path id="Trazado_126804" data-name="Trazado 126804" d="M325,121.79l.26-.54a2.54,2.54,0,0,0,1.61.56c.85,0,1.21-.33,1.21-.75,0-1.2-3-.44-3-2.26,0-.76.58-1.4,1.87-1.4a3,3,0,0,1,1.57.43l-.23.56A2.55,2.55,0,0,0,327,118c-.83,0-1.19.35-1.19.77,0,1.2,3,.45,3,2.24,0,.75-.6,1.4-1.89,1.4a2.91,2.91,0,0,1-1.92-.62Z" transform="translate(-97.8 -71.55)" fill="#e0e0e0"/>
      <path id="Trazado_126805" data-name="Trazado 126805" d="M333.06,120.72h-3a1.24,1.24,0,0,0,1.34,1.08,1.4,1.4,0,0,0,1.07-.44l.37.43a2,2,0,0,1-3.46-1.29,1.82,1.82,0,0,1,1.86-1.89,1.79,1.79,0,0,1,1.83,1.91,1.408,1.408,0,0,1-.01.2Zm-3-.48h2.37a1.16,1.16,0,0,0-1.19-1.06,1.14,1.14,0,0,0-1.18,1.06Z" transform="translate(-97.8 -71.55)" fill="#e0e0e0"/>
      <path id="Trazado_126806" data-name="Trazado 126806" d="M336.83,120.11v2.24h-.63v-.49a1.38,1.38,0,0,1-1.22.53c-.84,0-1.37-.45-1.37-1.09s.39-1.08,1.49-1.08h1.06v-.13c0-.57-.33-.9-1-.9a1.82,1.82,0,0,0-1.17.4l-.28-.5a2.43,2.43,0,0,1,1.53-.48,1.38,1.38,0,0,1,1.59,1.5Zm-.67,1.11v-.52h-1c-.66,0-.85.26-.85.57s.3.6.81.6a1.07,1.07,0,0,0,1.04-.65Z" transform="translate(-97.8 -71.55)" fill="#e0e0e0"/>
      <path id="Trazado_126807" data-name="Trazado 126807" d="M340.07,118.61v.65h-.15a1.11,1.11,0,0,0-1.17,1.25v1.85h-.67v-3.7h.64v.62a1.41,1.41,0,0,1,1.35-.67Z" transform="translate(-97.8 -71.55)" fill="#e0e0e0"/>
      <path id="Trazado_126808" data-name="Trazado 126808" d="M340.52,120.5a1.85,1.85,0,0,1,2-1.89,1.64,1.64,0,0,1,1.51.79l-.51.33a1.15,1.15,0,0,0-1-.53,1.3,1.3,0,0,0,0,2.6,1.13,1.13,0,0,0,1-.53l.51.32a1.64,1.64,0,0,1-1.51.8,1.85,1.85,0,0,1-2-1.89Z" transform="translate(-97.8 -71.55)" fill="#e0e0e0"/>
      <path id="Trazado_126809" data-name="Trazado 126809" d="M348.32,120.22v2.13h-.67v-2.06c0-.72-.37-1.08-1-1.08a1.11,1.11,0,0,0-1.18,1.23v1.91h-.67v-5.19h.67v2a1.6,1.6,0,0,1,1.31-.56,1.44,1.44,0,0,1,1.54,1.62Z" transform="translate(-97.8 -71.55)" fill="#e0e0e0"/>
      <path id="Trazado_126810" data-name="Trazado 126810" d="M349.25,121.91a.47.47,0,1,1,.134.339.47.47,0,0,1-.134-.339Z" transform="translate(-97.8 -71.55)" fill="#e0e0e0"/>
      <path id="Trazado_126811" data-name="Trazado 126811" d="M350.83,121.91a.47.47,0,0,1,.48-.48.5.5,0,0,1,0,1,.47.47,0,0,1-.48-.52Z" transform="translate(-97.8 -71.55)" fill="#e0e0e0"/>
      <path id="Trazado_126812" data-name="Trazado 126812" d="M352.42,121.91a.47.47,0,0,1,.48-.48.5.5,0,0,1,0,1,.47.47,0,0,1-.48-.52Z" transform="translate(-97.8 -71.55)" fill="#e0e0e0"/>
      <path id="Trazado_126813" data-name="Trazado 126813" d="M149.46,220.39a5.75,5.75,0,0,1-.28-.64c-.17-.42-.43-1-.72-1.86-.6-1.62-1.4-4-2.23-7a70.51,70.51,0,0,1-2.69-24,51.549,51.549,0,0,1,2.72-13,43.61,43.61,0,0,1,4.83-9.75,36.65,36.65,0,0,1,4.64-5.68c.59-.63,1.12-1.05,1.46-1.36a3.281,3.281,0,0,1,.54-.44,3.411,3.411,0,0,1-.47.52c-.31.33-.82.77-1.39,1.42a39.879,39.879,0,0,0-4.47,5.75,44.54,44.54,0,0,0-4.69,9.7A52.5,52.5,0,0,0,144.06,187a73.4,73.4,0,0,0,2.52,23.83c.79,3,1.54,5.36,2.08,7,.25.78.46,1.41.62,1.89a3.621,3.621,0,0,1,.18.67Z" transform="translate(-97.8 -71.55)" fill="#263238"/>
      <path id="Trazado_126814" data-name="Trazado 126814" d="M303.52,152.4v52.33h63.61V152.4a4.51,4.51,0,0,0-4.51-4.51H308a4.5,4.5,0,0,0-4.48,4.51Z" transform="translate(-97.8 -71.55)" fill="#90caf9"/>
      <g id="Grupo_55474" data-name="Grupo 55474" transform="translate(205.72 76.34)" opacity="0.3">
        <path id="Trazado_126815" data-name="Trazado 126815" d="M303.52,152.4v52.33h63.61V152.4a4.51,4.51,0,0,0-4.51-4.51H308a4.5,4.5,0,0,0-4.48,4.51Z" transform="translate(-303.52 -147.89)"/>
      </g>
      <path id="Trazado_126816" data-name="Trazado 126816" d="M306.5,176.31l.42-19.22h55.67v10.97" transform="translate(-97.8 -71.55)" fill="#f5f5f5"/>
      <path id="Trazado_126817" data-name="Trazado 126817" d="M362.59,168.06a6.346,6.346,0,0,1,0-.75q0-.795,0-2.16c0-1.93-.05-4.66-.08-8.05l.17.17-32,.09-23.71-.05.22-.21c-.16,5.76-.3,10.55-.4,14-.06,1.64-.11,2.94-.14,3.89a4.714,4.714,0,0,1-.06,1,1.219,1.219,0,0,1,0,.35,1.35,1.35,0,0,1,0-.35V171.1c.05-3.41.13-8.2.22-14v-.21h23.92l32,.09h.18v.18c0,3.39-.06,6.12-.07,8.05,0,.91,0,1.63-.05,2.16A4.41,4.41,0,0,1,362.59,168.06Z" transform="translate(-97.8 -71.55)" fill="#263238"/>
      <rect id="Rectángulo_30401" data-name="Rectángulo 30401" width="48.64" height="5.19" transform="translate(212.75 80.35)" fill="#f5f5f5"/>
      <path id="Trazado_126818" data-name="Trazado 126818" d="M310.55,151.9h3.69l10.28-.08,34.66-.11h.26v5.45l-.27.27H329.94l-19.39-.1h-.11v-.1q0-2.52.06-3.9v-1a1,1,0,0,1,0-.32v1.36c0,.91,0,2.19.07,3.84l-.11-.12,19.39-.1h29.23c-.11.12.27-.25-.25.26V151.9l.26.26-34.47-.11L314.37,152h-3.56Z" transform="translate(-97.8 -71.55)" fill="#263238"/>
      <path id="Trazado_126819" data-name="Trazado 126819" d="M364.84,217.83c0,.15-12.15.26-27.14.26s-27.15-.11-27.15-.26,12.15-.26,27.15-.26S364.84,217.69,364.84,217.83Z" transform="translate(-97.8 -71.55)" fill="#263238"/>
      <path id="Trazado_126820" data-name="Trazado 126820" d="M298.62,166.86l4.9,37.87h63.61V168.06H338.24l-5.6-4.93H301.9a3.31,3.31,0,0,0-3.28,3.73Z" transform="translate(-97.8 -71.55)" fill="#90caf9"/>
      <path id="Trazado_126821" data-name="Trazado 126821" d="M349.62,182.89c0,.14-7,.26-15.56.26s-15.55-.12-15.55-.26,7-.26,15.55-.26S349.62,182.75,349.62,182.89Z" transform="translate(-97.8 -71.55)" fill="#263238"/>
      <path id="Trazado_126822" data-name="Trazado 126822" d="M349.62,186.62c0,.14-7,.26-15.56.26s-15.55-.12-15.55-.26,7-.26,15.55-.26S349.62,186.47,349.62,186.62Z" transform="translate(-97.8 -71.55)" fill="#263238"/>
      <path id="Trazado_126823" data-name="Trazado 126823" d="M159.34,266.07v52.34H223V266.07a4.51,4.51,0,0,0-4.51-4.51H163.85a4.51,4.51,0,0,0-4.51,4.51Z" transform="translate(-97.8 -71.55)" fill="#90caf9"/>
      <g id="Grupo_55475" data-name="Grupo 55475" transform="translate(61.54 190.01)" opacity="0.3">
        <path id="Trazado_126824" data-name="Trazado 126824" d="M159.34,266.07v52.34H223V266.07a4.51,4.51,0,0,0-4.51-4.51H163.85a4.51,4.51,0,0,0-4.51,4.51Z" transform="translate(-159.34 -261.56)"/>
      </g>
      <path id="Trazado_126825" data-name="Trazado 126825" d="M162.32,289.99l.43-19.22h55.66v10.97" transform="translate(-97.8 -71.55)" fill="#f5f5f5"/>
      <path id="Trazado_126826" data-name="Trazado 126826" d="M218.41,281.74a5.49,5.49,0,0,1,0-.75c0-.54,0-1.25-.05-2.16,0-1.93,0-4.66-.08-8.06l.17.18-32,.08h-23.7l.21-.21c-.16,5.76-.3,10.55-.4,14-.06,1.64-.11,2.94-.14,3.89v1c0,.25,0,.35-.05.35a1.35,1.35,0,0,1,0-.35v-4.89c.06-3.4.13-8.19.22-14v-.21h.22l23.7-.05,32,.09h.18v.17c0,3.4-.06,6.13-.08,8.06v2.16a3.388,3.388,0,0,1-.2.7Z" transform="translate(-97.8 -71.55)" fill="#263238"/>
      <rect id="Rectángulo_30402" data-name="Rectángulo 30402" width="48.64" height="5.19" transform="translate(68.57 194.03)" fill="#f5f5f5"/>
      <path id="Trazado_126827" data-name="Trazado 126827" d="M166.37,265.58h3.69l10.28-.08,34.67-.11h.26v5.45c-.52.53-.16.15-.28.26H185.77l-19.4-.11h-.11v-.11c0-1.67.05-3,.06-3.89v-1a1.7,1.7,0,0,1,0-.32,2.811,2.811,0,0,1,0,.36c0,.25,0,.58,0,1,0,.91,0,2.19.06,3.83l-.11-.11,19.4-.1H215c-.11.12.28-.25-.24.26v-5.19l.26.26-34.48-.11-10.34-.08h-3.56Z" transform="translate(-97.8 -71.55)" fill="#263238"/>
      <path id="Trazado_126828" data-name="Trazado 126828" d="M220.67,331.51c0,.14-12.16.26-27.15.26s-27.15-.12-27.15-.26,12.15-.26,27.15-.26S220.67,331.37,220.67,331.51Z" transform="translate(-97.8 -71.55)" fill="#263238"/>
      <path id="Trazado_126829" data-name="Trazado 126829" d="M154.44,280.54l4.9,37.87H223V281.74H194.06l-5.6-4.93H157.73a3.31,3.31,0,0,0-3.29,3.73Z" transform="translate(-97.8 -71.55)" fill="#90caf9"/>
      <path id="Trazado_126830" data-name="Trazado 126830" d="M205.45,296.57c0,.14-7,.26-15.56.26s-15.56-.12-15.56-.26,7-.26,15.56-.26S205.45,296.43,205.45,296.57Z" transform="translate(-97.8 -71.55)" fill="#263238"/>
      <path id="Trazado_126831" data-name="Trazado 126831" d="M205.45,300.29c0,.15-7,.27-15.56.27s-15.56-.12-15.56-.27,7-.26,15.56-.26S205.45,300.15,205.45,300.29Z" transform="translate(-97.8 -71.55)" fill="#263238"/>
      <path id="Trazado_126832" data-name="Trazado 126832" d="M311.42,266.11v52.33H375V266.11a4.51,4.51,0,0,0-4.51-4.51h-54.6a4.51,4.51,0,0,0-4.47,4.51Z" transform="translate(-97.8 -71.55)" fill="#90caf9"/>
      <g id="Grupo_55476" data-name="Grupo 55476" transform="translate(213.62 190.05)" opacity="0.3">
        <path id="Trazado_126833" data-name="Trazado 126833" d="M311.42,266.11v52.33H375V266.11a4.51,4.51,0,0,0-4.51-4.51h-54.6a4.51,4.51,0,0,0-4.47,4.51Z" transform="translate(-311.42 -261.6)"/>
      </g>
      <path id="Trazado_126834" data-name="Trazado 126834" d="M314.41,290.02l.42-19.21H370.5v10.96" transform="translate(-97.8 -71.55)" fill="#f5f5f5"/>
      <path id="Trazado_126835" data-name="Trazado 126835" d="M370.5,281.77a4.409,4.409,0,0,1-.05-.75c0-.53,0-1.25-.05-2.16,0-1.93,0-4.66-.07-8.05l.17.17-32,.09L314.83,271l.22-.21c-.17,5.76-.3,10.55-.4,13.95-.06,1.64-.11,2.95-.15,3.89a5.642,5.642,0,0,1-.05,1,2,2,0,0,1,0,.35,1.6,1.6,0,0,1,0-.35v-4.89c.05-3.41.12-8.2.21-14v-.21h23.92l32,.08h.17v.18c0,3.39-.06,6.12-.08,8.05V281A4.413,4.413,0,0,1,370.5,281.77Z" transform="translate(-97.8 -71.55)" fill="#263238"/>
      <rect id="Rectángulo_30403" data-name="Rectángulo 30403" width="48.64" height="5.19" transform="translate(220.65 194.06)" fill="#f5f5f5"/>
      <path id="Trazado_126836" data-name="Trazado 126836" d="M318.45,265.61h3.7l10.28-.08,34.66-.11h.26v5.45c-.52.53-.15.15-.27.27H337.85l-19.4-.1h-.11v-.11c0-1.68.05-3,.07-3.9v-1.32a1.892,1.892,0,0,1,0,.36v1q0,1.36.06,3.84l-.11-.11,19.4-.11h29.23c-.11.11.27-.26-.25.25v-5.19l.26.26-34.47-.11-10.35-.08h-3.55Z" transform="translate(-97.8 -71.55)" fill="#263238"/>
      <path id="Trazado_126837" data-name="Trazado 126837" d="M372.75,331.54c0,.15-12.16.26-27.15.26s-27.15-.11-27.15-.26,12.16-.26,27.15-.26S372.75,331.4,372.75,331.54Z" transform="translate(-97.8 -71.55)" fill="#263238"/>
      <path id="Trazado_126838" data-name="Trazado 126838" d="M306.53,280.57l4.89,37.87H375V281.77H346.15l-5.61-4.93H309.81a3.3,3.3,0,0,0-3.28,3.73Z" transform="translate(-97.8 -71.55)" fill="#90caf9"/>
      <path id="Trazado_126839" data-name="Trazado 126839" d="M357.53,296.6c0,.15-7,.26-15.56.26s-15.56-.11-15.56-.26,7-.26,15.56-.26S357.53,296.46,357.53,296.6Z" transform="translate(-97.8 -71.55)" fill="#263238"/>
      <path id="Trazado_126840" data-name="Trazado 126840" d="M357.53,300.33c0,.14-7,.26-15.56.26s-15.56-.12-15.56-.26,7-.26,15.56-.26S357.53,300.18,357.53,300.33Z" transform="translate(-97.8 -71.55)" fill="#263238"/>
      <path id="Trazado_126841" data-name="Trazado 126841" d="M139.54,182.12a4.479,4.479,0,0,1,0-1.07,27.061,27.061,0,0,1,.19-2.93,38,38,0,0,1,2.36-9.37,37.34,37.34,0,0,1,4.69-8.46,27.6,27.6,0,0,1,1.85-2.27,4.11,4.11,0,0,1,.77-.75c.07.06-.93,1.21-2.33,3.24a42.2,42.2,0,0,0-7,17.66C139.7,180.6,139.64,182.13,139.54,182.12Z" transform="translate(-97.8 -71.55)" fill="#263238"/>
      <path id="Trazado_126842" data-name="Trazado 126842" d="M142.73,178.22c.06.05-.24.52-.76,1.25l-.95,1.28c-.19.24-.37.49-.57.73l-.3.39-.16.2-.08.1v.05h-.41a8.58,8.58,0,0,1-1.82-3.09,2.81,2.81,0,0,1-.25-1.46,15.39,15.39,0,0,0,2.45,4.2h-.38v-.05l.08-.1.16-.2.31-.38.6-.72,1-1.21C142.28,178.57,142.68,178.18,142.73,178.22Z" transform="translate(-97.8 -71.55)" fill="#263238"/>
      <path id="Trazado_126843" data-name="Trazado 126843" d="M351.51,224.91c0,.14-7.63.26-17,.26s-17-.12-17-.26,7.62-.26,17-.26S351.51,224.77,351.51,224.91Z" transform="translate(-97.8 -71.55)" fill="#e0e0e0"/>
      <path id="Trazado_126844" data-name="Trazado 126844" d="M360.25,337.56c0,.14-7.62.26-17,.26s-17-.12-17-.26,7.62-.26,17-.26S360.25,337.42,360.25,337.56Z" transform="translate(-97.8 -71.55)" fill="#e0e0e0"/>
      <path id="Trazado_126845" data-name="Trazado 126845" d="M201.05,339.37c0,.14-7.62.26-17,.26s-17-.12-17-.26,7.62-.26,17-.26S201.05,339.23,201.05,339.37Z" transform="translate(-97.8 -71.55)" fill="#e0e0e0"/>
    </g>
    <g id="freepik--Character--inject-25" transform="translate(37.809 50.722)">
      <path id="Trazado_126846" data-name="Trazado 126846" d="M67.24,260c-1,4.41-6,6.71-9.08,10s-7.62,6-11.95,4.74a10.641,10.641,0,0,1-6.23-6c-2.88-6.3-1.51-13.69.65-20.28s5.08-13.09,5.2-20l14.51,4.87,3.58-4.4S68,256.79,67.24,260Z" transform="translate(-37.809 -114.542)" fill="#ffbe9d"/>
      <path id="Trazado_126847" data-name="Trazado 126847" d="M123.76,222.49s8.78,35.15,17.16,40.31c10.61,6.52,16.81-1.24,16.81-1.24l16.6-30.39L163,228.34l-11,13.9-7.7-21.06Z" transform="translate(-37.809 -114.542)" fill="#ffbe9d"/>
      <path id="Trazado_126848" data-name="Trazado 126848" d="M111,368.64c0,1.18,1.4,18.56,1.4,18.56a66.87,66.87,0,0,0-2.8,16.82c-.38,16.21-.23,51.13-.23,51.13h17.31v-2s9.12-60.93,8.8-66.9l-1.21-22.65-23.28,5" transform="translate(-37.809 -114.542)" fill="#ffbe9d"/>
      <path id="Trazado_126849" data-name="Trazado 126849" d="M96.92,341.64l-28.81,4.87s2.91,7.89,3.12,8.66c.76,2.82,2.42,10.11,1.44,16.94-1.24,8.71-2.34,19.28-1.79,24.25s6,57.35,6,57.35l17.17.53,4.17-96.42Z" transform="translate(-37.809 -114.542)" fill="#ffbe9d"/>
      <path id="Trazado_126850" data-name="Trazado 126850" d="M84.88,133.83l-.16,51.88L107,186.77l.64-12.62s7.91,1.57,9.95-5.77c1.3-4.69,1-40.94,1-40.94Z" transform="translate(-37.809 -114.542)" fill="#ffbe9d"/>
      <path id="Trazado_126851" data-name="Trazado 126851" d="M121.48,131.1c-3.51,1-4.27,6.73-4.27,6.73L111.71,150c-2.8-2.2-6.56-2.07-7.28,2.85-.51,3.56,3.91,4.28,3.91,4.28-2.57,4.38-4.32,7.92-8.07,12.09-4,4.51-6.33,5-10.73,5H84.69s-2.38-7.71-6.77-27C73,125.86,98.33,128.61,103,123.15,110.66,114.26,132.53,127.93,121.48,131.1Z" transform="translate(-37.809 -114.542)" fill="#263238"/>
      <path id="Trazado_126852" data-name="Trazado 126852" d="M78.38,149.27c-4.1-2.76-4.47-10.46-2.08-15.09a14.85,14.85,0,0,1,12.63-7.85A5.941,5.941,0,0,0,91,126.1a5.72,5.72,0,0,0,2.22-2.1c3.66-4.77,7.26-9.45,14.09-9.45a7.76,7.76,0,0,1,4.3,1.07,6.78,6.78,0,0,1,2.58,3.41,14.44,14.44,0,0,1,4-1.43,4.92,4.92,0,0,1,4,1,3,3,0,0,1,.63,3.84,4.85,4.85,0,0,1,4.84,4c.37,2.28-2.9,3.88-3.24,4.06,0,0,1.79,3.75-2.48,6-1.72.91-4-.18-4.21-.31" transform="translate(-37.809 -114.542)" fill="#263238"/>
      <path id="Trazado_126853" data-name="Trazado 126853" d="M94.63,154.25a10.54,10.54,0,0,1-1.7,7.56c-.15-.08.56-1.67,1-3.74S94.46,154.26,94.63,154.25Z" transform="translate(-37.809 -114.542)" fill="#455a64"/>
      <path id="Trazado_126854" data-name="Trazado 126854" d="M97.32,151.71a14.75,14.75,0,0,1-1.38,7.4,20.09,20.09,0,0,1,.62-3.71,20.191,20.191,0,0,1,.76-3.69Z" transform="translate(-37.809 -114.542)" fill="#455a64"/>
      <path id="Trazado_126855" data-name="Trazado 126855" d="M105,143.15c0,.07-.58.53-1.38,1.47a14.39,14.39,0,0,0-2.39,4.14,33.209,33.209,0,0,0-1.33,4.66,7.761,7.761,0,0,1-.56,2,7.26,7.26,0,0,1,.16-2,23,23,0,0,1,1.2-4.8,11.9,11.9,0,0,1,2.63-4.2,4.1,4.1,0,0,1,1.67-1.27Z" transform="translate(-37.809 -114.542)" fill="#455a64"/>
      <path id="Trazado_126856" data-name="Trazado 126856" d="M108.15,137.32a3,3,0,0,1,.43,1.4,9.41,9.41,0,0,1-.19,3.54,9.58,9.58,0,0,1-1.5,3.22c-.55.73-1,1.08-1,1a19.22,19.22,0,0,0,2-4.38A19.428,19.428,0,0,0,108.15,137.32Z" transform="translate(-37.809 -114.542)" fill="#455a64"/>
      <path id="Trazado_126857" data-name="Trazado 126857" d="M81.58,150.27c-.07.14-.76-.1-1.52-.52s-1.32-.89-1.25-1,.76.1,1.53.52S81.66,150.14,81.58,150.27Z" transform="translate(-37.809 -114.542)" fill="#455a64"/>
      <path id="Trazado_126858" data-name="Trazado 126858" d="M92.34,144.73A3.2,3.2,0,0,1,91.7,147c-.68,1.14-1.61,1.73-1.7,1.61s.59-.85,1.22-1.9S92.18,144.7,92.34,144.73Z" transform="translate(-37.809 -114.542)" fill="#455a64"/>
      <path id="Trazado_126859" data-name="Trazado 126859" d="M95.64,143a4.42,4.42,0,0,1-1,2.7,4.912,4.912,0,0,1-2.1,2,25.212,25.212,0,0,1,1.63-2.28A24.779,24.779,0,0,1,95.64,143Z" transform="translate(-37.809 -114.542)" fill="#455a64"/>
      <path id="Trazado_126860" data-name="Trazado 126860" d="M112.08,121.23a11.559,11.559,0,0,0-1.22-.77,8.23,8.23,0,0,0-3.73-1,10,10,0,0,0-5.47,1.47A13.5,13.5,0,0,0,97,126.15,22.84,22.84,0,0,0,95.11,131l-.09.32-.3-.15a11.11,11.11,0,0,0-5-1.27,11.45,11.45,0,0,0-4,.61,17.34,17.34,0,0,0-3.3,1.65,3.29,3.29,0,0,1,.74-.66,10,10,0,0,1,2.44-1.31,11.6,11.6,0,0,1,4.17-.75A11.21,11.21,0,0,1,95,130.71l-.39.17a23.22,23.22,0,0,1,1.92-5,13.67,13.67,0,0,1,4.89-5.37,10.21,10.21,0,0,1,5.76-1.43,7.89,7.89,0,0,1,3.82,1.18,5.33,5.33,0,0,1,.86.68A2.069,2.069,0,0,1,112.08,121.23Z" transform="translate(-37.809 -114.542)" fill="#455a64"/>
      <path id="Trazado_126861" data-name="Trazado 126861" d="M123.78,124.05a1.373,1.373,0,0,1,1.28.58,2.21,2.21,0,0,1,.51,1.63,2.51,2.51,0,0,1-1.29,1.85,3.73,3.73,0,0,1-2.7.37,7.75,7.75,0,0,1-2.79-1.35,27.939,27.939,0,0,0-2.73-1.87,11.18,11.18,0,0,0-3.29-1.16,13.86,13.86,0,0,0-6.71.46,18.23,18.23,0,0,0-5,2.52,50.994,50.994,0,0,0-4,3.35,5.6,5.6,0,0,1,.88-1.09,20.56,20.56,0,0,1,2.84-2.58,17.76,17.76,0,0,1,5-2.69,13.9,13.9,0,0,1,7-.52,11.6,11.6,0,0,1,3.45,1.22A24.847,24.847,0,0,1,119,126.7a7.41,7.41,0,0,0,2.59,1.32,3.29,3.29,0,0,0,2.4-.26,2.19,2.19,0,0,0,1.18-1.54,1.94,1.94,0,0,0-1.48-2.17Z" transform="translate(-37.809 -114.542)" fill="#455a64"/>
      <path id="Trazado_126862" data-name="Trazado 126862" d="M65.63,299.13s-.82,21.39,0,27.89-.36,45.8-.36,45.8,30.17,8.78,38.3-1.63c0,0-3.29-47.75-3.62-49.05s-3-33.84-3-33.84Z" transform="translate(-37.809 -114.542)" fill="#263238"/>
      <path id="Trazado_126863" data-name="Trazado 126863" d="M134.45,288.3c1.77,5.53,5.53,26.36,5.53,26.36v55.2s-26.14,9.45-36.56,4.77L97,319.21V290.49l21.5-8.37Z" transform="translate(-37.809 -114.542)" fill="#263238"/>
      <path id="Trazado_126864" data-name="Trazado 126864" d="M117.85,326.66a4.871,4.871,0,0,1-1.21,0c-.78,0-1.91-.13-3.31-.24l-10.87-1-10.88-1-3.3-.3a6.49,6.49,0,0,1-1.2-.17,5.23,5.23,0,0,1,1.22,0c.78,0,1.91.07,3.31.15,2.79.16,6.64.45,10.89.85s8.09.82,10.87,1.13l3.29.4a6.57,6.57,0,0,1,1.19.18Z" transform="translate(-37.809 -114.542)" fill="#455a64"/>
      <path id="Trazado_126865" data-name="Trazado 126865" d="M98.27,324.92c.13,0,1.4,11.1,2.82,24.83s2.47,24.87,2.33,24.88-1.39-11.1-2.82-24.83S98.13,324.93,98.27,324.92Z" transform="translate(-37.809 -114.542)" fill="#455a64"/>
      <path id="Trazado_126866" data-name="Trazado 126866" d="M98.65,324.62a18.1,18.1,0,0,1-3.06,2.72,16.939,16.939,0,0,1-3.37,2.34A18.1,18.1,0,0,1,95.28,327a16.94,16.94,0,0,1,3.37-2.38Z" transform="translate(-37.809 -114.542)" fill="#455a64"/>
      <path id="Trazado_126867" data-name="Trazado 126867" d="M139.2,311.05a8.769,8.769,0,0,1-2.08-1.11,28.919,28.919,0,0,1-4.48-3.55A29.718,29.718,0,0,1,129,302a8.919,8.919,0,0,1-1.18-2.05,16,16,0,0,1,1.46,1.84A38.907,38.907,0,0,0,133,306a41.435,41.435,0,0,0,4.33,3.61,15.62,15.62,0,0,1,1.87,1.44Z" transform="translate(-37.809 -114.542)" fill="#455a64"/>
      <path id="Trazado_126868" data-name="Trazado 126868" d="M97.27,319.65a4.828,4.828,0,0,1-.45-.71c-.26-.48-.59-1.17-1-2.06a34.1,34.1,0,0,1-2.11-7.21,33.35,33.35,0,0,1-.45-7.5,20.931,20.931,0,0,1,.22-2.27,3.11,3.11,0,0,1,.17-.82,25.424,25.424,0,0,1-.05,3.1,41.519,41.519,0,0,0,.6,7.41,42,42,0,0,0,1.94,7.17C96.84,318.54,97.34,319.62,97.27,319.65Z" transform="translate(-37.809 -114.542)" fill="#455a64"/>
      <path id="Trazado_126869" data-name="Trazado 126869" d="M129.06,243.1c-.26-.79-3.17-17.44-3.17-17.44l21.41-.53s-9.4-36.72-14.52-39.43c-7.94-4.2-25.39-4.71-25.39-4.71H84.92s-24.84,6.87-29.34,14.27L39.72,225.75l20.62,7.57,3.58-4.4L67.48,260s-2.12,28-2.12,32.24.27,6.87.27,6.87,46.7-12.68,58.07-9,13.06,7.16,13.06,7.16,1-12.46-1.62-17.22Z" transform="translate(-37.809 -114.542)" fill="#455a64"/>
      <path id="Trazado_126870" data-name="Trazado 126870" d="M64.42,233.32c-.08,0-.29-1.48-.77-3.86a70.651,70.651,0,0,0-2.49-9.14,76.629,76.629,0,0,0-3.7-8.72c-.51-1-.94-1.87-1.3-2.57a4.53,4.53,0,0,1-.44-1,4.379,4.379,0,0,1,.61.87c.36.57.86,1.43,1.44,2.5a60.852,60.852,0,0,1,3.85,8.72A55.921,55.921,0,0,1,64,229.4c.2,1.2.33,2.18.38,2.86A5,5,0,0,1,64.42,233.32Z" transform="translate(-37.809 -114.542)" fill="#263238"/>
      <path id="Trazado_126871" data-name="Trazado 126871" d="M108.57,245a1.37,1.37,0,0,1-.12.47c-.11.35-.26.77-.43,1.29s-.43,1.24-.75,2-.64,1.68-1.09,2.65c-.83,1.95-1.93,4.22-3.27,6.68a90.694,90.694,0,0,1-4.81,7.75c-1.86,2.64-3.79,5.05-5.62,7.17a71.846,71.846,0,0,1-5.16,5.36c-.76.75-1.49,1.37-2.11,1.93s-1.19,1-1.65,1.4l-1.07.84c-.24.19-.38.29-.39.27a1.73,1.73,0,0,1,.33-.34l1-.92c.44-.39,1-.87,1.58-1.45s1.32-1.22,2.06-2c1.51-1.47,3.23-3.3,5.06-5.41a90.073,90.073,0,0,0,5.56-7.15c1.85-2.63,3.45-5.26,4.82-7.69s2.48-4.68,3.35-6.6c.46-.95.81-1.84,1.15-2.61s.61-1.44.82-2l.52-1.26a2.481,2.481,0,0,1,.22-.38Z" transform="translate(-37.809 -114.542)" fill="#263238"/>
      <path id="Trazado_126872" data-name="Trazado 126872" d="M126.07,200.17c.09,0-.25,1.47-.5,3.86a79,79,0,0,0-.28,9.38c.09,3.67.32,7,.52,9.39.09,1.12.17,2.07.23,2.84a3.81,3.81,0,0,1,0,1.05,4.709,4.709,0,0,1-.23-1c-.11-.67-.24-1.64-.39-2.84-.28-2.39-.57-5.72-.65-9.41a60.53,60.53,0,0,1,.42-9.43c.19-1.2.35-2.16.53-2.81a4,4,0,0,1,.35-1.03Z" transform="translate(-37.809 -114.542)" fill="#263238"/>
      <g id="Grupo_55477" data-name="Grupo 55477" transform="translate(20.781 99.618)" opacity="0.3">
        <path id="Trazado_126873" data-name="Trazado 126873" d="M58.59,214.16s1.34,12.78,1.75,19.16l3.58-4.4S60.41,215.76,58.59,214.16Z" transform="translate(-58.59 -214.16)"/>
      </g>
      <g id="Grupo_55478" data-name="Grupo 55478" transform="translate(47.411 135.758)" opacity="0.3">
        <path id="Trazado_126874" data-name="Trazado 126874" d="M91.58,259.3a71.149,71.149,0,0,0-6.36,13,57.63,57.63,0,0,0,16.56-22A21.859,21.859,0,0,0,91.58,259.3Z" transform="translate(-85.22 -250.3)"/>
      </g>
      <path id="Trazado_126875" data-name="Trazado 126875" d="M44.41,285.39a1.69,1.69,0,0,1-2.11-1.46l-4.46-42.25a5.21,5.21,0,0,1,3.85-5.6l22.31-6,3.72,32.53-1.66,17.13Z" transform="translate(-37.809 -114.542)" fill="#90caf9"/>
      <g id="Grupo_55479" data-name="Grupo 55479" transform="translate(25.339 115.538)" opacity="0.3">
        <path id="Trazado_126876" data-name="Trazado 126876" d="M66.06,279.74c-1.38-2.68-.84-5.84-.53-8.84C67,257.08,61,243.65,64,230.08c0,0,3,25.86,3.72,32.53Z" transform="translate(-63.148 -230.08)"/>
      </g>
      <path id="Trazado_126877" data-name="Trazado 126877" d="M64.23,233.89a3.581,3.581,0,0,1-.65.22l-1.89.54-7,1.87-4.82,1.26-2.69.7a7.93,7.93,0,0,0-2.67,1,7,7,0,0,0-2.08,2.11,4.84,4.84,0,0,0-.8,2.92q.18,3.28.38,6.78c.48,9.26.92,17.64,1.25,23.79.13,3,.24,5.44.31,7.21a19.42,19.42,0,0,0,.06,2,3.32,3.32,0,0,1,0,.69,3,3,0,0,1-.09-.68c0-.5-.09-1.15-.16-2-.12-1.76-.28-4.21-.48-7.2-.36-6.15-.86-14.53-1.4-23.79q-.19-3.49-.37-6.78a5.36,5.36,0,0,1,.89-3.2,7.32,7.32,0,0,1,2.24-2.26,6.17,6.17,0,0,1,1.4-.66c.49-.17.95-.26,1.42-.38l2.69-.68,4.84-1.2,7-1.71,1.91-.44a3.652,3.652,0,0,1,.71-.11Z" transform="translate(-37.809 -114.542)" fill="#263238"/>
      <path id="Trazado_126878" data-name="Trazado 126878" d="M66.53,251.37a9.63,9.63,0,0,1-2.19.82c-1.37.44-3.29,1-5.42,1.52s-4.08.95-5.5,1.21a9.84,9.84,0,0,1-2.32.3,10.8,10.8,0,0,1,2.24-.66l5.45-1.36,5.45-1.36A10.751,10.751,0,0,1,66.53,251.37Z" transform="translate(-37.809 -114.542)" fill="#263238"/>
      <path id="Trazado_126879" data-name="Trazado 126879" d="M66.9,255.05a17.23,17.23,0,0,1-4.61,1.62,17.121,17.121,0,0,1-4.84.77,36.715,36.715,0,0,1,4.71-1.27,34.629,34.629,0,0,1,4.74-1.12Z" transform="translate(-37.809 -114.542)" fill="#263238"/>
      <path id="Trazado_126880" data-name="Trazado 126880" d="M156,255.88a45,45,0,0,0-1.53-6.92c-1.28-3.7-2.76-6.56-2.59-6.64a8.069,8.069,0,0,1,1.08,1.8,32.829,32.829,0,0,1,2,4.67,21.26,21.26,0,0,1,1.07,5,6.26,6.26,0,0,1-.03,2.09Z" transform="translate(-37.809 -114.542)" fill="#eb996e"/>
      <path id="Trazado_126881" data-name="Trazado 126881" d="M163,228.34s-2.17-13.42-1-15.54l8.82-11s1.51,2.07.88,3.92a21.281,21.281,0,0,1-2.6,4.42s5-.13,6.46,1.67a9,9,0,0,1,.95,3.65A2.15,2.15,0,0,1,176,217l-1.26,1.55c2.45,10.37-.66,12.86-.66,12.86Z" transform="translate(-37.809 -114.542)" fill="#ffbe9d"/>
      <path id="Trazado_126882" data-name="Trazado 126882" d="M173,210.56a3.587,3.587,0,0,1-.65.68,4.48,4.48,0,0,0-1.24,1.69,11.471,11.471,0,0,0-.59,2.1c-.12.55-.06.87-.13.9s-.26-.33-.24-.94a7,7,0,0,1,.47-2.25,3.83,3.83,0,0,1,1.5-1.79C172.57,210.62,172.92,210.5,173,210.56Z" transform="translate(-37.809 -114.542)" fill="#eb996e"/>
      <path id="Trazado_126883" data-name="Trazado 126883" d="M161.64,215.26c0-.37-.31,0-.64.12a2.69,2.69,0,0,0-.86,1.15,8,8,0,0,0-.11,4.65c.44,2.06,1.68,3.24,2.73,5.07" transform="translate(-37.809 -114.542)" fill="#ffbe9d"/>
      <path id="Trazado_126884" data-name="Trazado 126884" d="M169.41,210c.13.13-.9,1-1.78,2.36a5,5,0,0,0-.73,1.85c-.08.51-.05.84-.12.86s-.24-.31-.25-.89a4,4,0,0,1,.66-2.1,6.73,6.73,0,0,1,1.46-1.61A2.888,2.888,0,0,1,169.41,210Z" transform="translate(-37.809 -114.542)" fill="#eb996e"/>
      <path id="Trazado_126885" data-name="Trazado 126885" d="M162.76,224.19a5.92,5.92,0,0,1-.44-1.59c-.21-1-.49-2.37-.69-3.91a13.46,13.46,0,0,1,.14-5.63c.14,0-.05,2.51.38,5.56S162.94,224.17,162.76,224.19Z" transform="translate(-37.809 -114.542)" fill="#eb996e"/>
      <path id="Trazado_126886" data-name="Trazado 126886" d="M175.56,212.06a3.707,3.707,0,0,1,.63,1.45,12,12,0,0,1,.38,1.67,3.64,3.64,0,0,1-.24,2.17,2.32,2.32,0,0,1-.75.92,2,2,0,0,1-.52.27.87.87,0,0,1-.37,0,.55.55,0,0,1-.35-.26,7.43,7.43,0,0,1-.44-1.71,3.18,3.18,0,0,1,0-1.58,8.34,8.34,0,0,1,.36,1.51,10.15,10.15,0,0,0,.5,1.54h.15a1.22,1.22,0,0,0,.37-.2,1.86,1.86,0,0,0,.57-.74,3.24,3.24,0,0,0,.24-1.88c-.07-.62-.17-1.18-.26-1.65a7.279,7.279,0,0,1-.27-1.51Z" transform="translate(-37.809 -114.542)" fill="#eb996e"/>
      <path id="Trazado_126887" data-name="Trazado 126887" d="M109.3,453.52v19.85l39.82-.6c-.29-4-22.05-11.65-22.05-11.65l.44-7.6Z" transform="translate(-37.809 -114.542)" fill="#3c4973"/>
      <g id="Grupo_55480" data-name="Grupo 55480" transform="translate(76.83 344.757)" opacity="0.6">
        <path id="Trazado_126888" data-name="Trazado 126888" d="M115.78,459.33a1.73,1.73,0,0,0-1.1,2,1.57,1.57,0,0,0,1.85,1.17,1.83,1.83,0,0,0,1.15-2.11,1.6,1.6,0,0,0-2.05-1" transform="translate(-114.639 -459.299)" fill="#fff"/>
      </g>
      <path id="Trazado_126889" data-name="Trazado 126889" d="M109.3,473.37l.07-3.42,38.15.7s1.78.79,1.6,2.12Z" transform="translate(-37.809 -114.542)" fill="#263238"/>
      <path id="Trazado_126890" data-name="Trazado 126890" d="M127.07,461.51c0,.2-1,.31-1.92,1s-1.44,1.55-1.62,1.47.09-1.27,1.25-2.07S127.11,461.32,127.07,461.51Z" transform="translate(-37.809 -114.542)" fill="#263238"/>
      <path id="Trazado_126891" data-name="Trazado 126891" d="M132.32,463.34c0,.2-.79.57-1.44,1.45s-.83,1.8-1,1.8-.34-1.17.49-2.25S132.31,463.15,132.32,463.34Z" transform="translate(-37.809 -114.542)" fill="#263238"/>
      <path id="Trazado_126892" data-name="Trazado 126892" d="M134.67,468.4c-.17.05-.46-1,0-2.11s1.38-1.6,1.47-1.43-.47.78-.86,1.72S134.87,468.38,134.67,468.4Z" transform="translate(-37.809 -114.542)" fill="#263238"/>
      <path id="Trazado_126893" data-name="Trazado 126893" d="M126.68,455.86c-.08.19-1-.08-2.07,0s-2,.47-2,.3a2.342,2.342,0,0,1,2-1C125.9,455.08,126.78,455.7,126.68,455.86Z" transform="translate(-37.809 -114.542)" fill="#263238"/>
      <path id="Trazado_126894" data-name="Trazado 126894" d="M126.9,461.48a3,3,0,0,0,.08-1.22,6.59,6.59,0,0,0-1.06-3.13,6,6,0,0,0-1.56-1.64,1.35,1.35,0,0,0-1.35-.24,1.52,1.52,0,0,0-.79,1.31,5.25,5.25,0,0,0,3.52,4.64,5,5,0,0,0,5.4-1.61,3.62,3.62,0,0,0,.72-1.22,1.36,1.36,0,0,0,0-.8,1,1,0,0,0-.55-.57,1.75,1.75,0,0,0-1.25.12,9.066,9.066,0,0,0-.93.53,8.57,8.57,0,0,0-2.29,2.27,3.37,3.37,0,0,0-.55,1.06,11.67,11.67,0,0,1,3-3c.54-.31,1.24-.75,1.8-.55.25.1.35.39.23.74a3.07,3.07,0,0,1-.63,1,4.56,4.56,0,0,1-4.84,1.41,4.8,4.8,0,0,1-3.17-4,1,1,0,0,1,.48-.86.93.93,0,0,1,.89.18,6,6,0,0,1,1.49,1.47,7.09,7.09,0,0,1,1.16,2.91C126.87,461,126.85,461.47,126.9,461.48Z" transform="translate(-37.809 -114.542)" fill="#263238"/>
      <path id="Trazado_126895" data-name="Trazado 126895" d="M93.91,453.17l.81,6.18-.54,13.93-18.15.44-.65-14.37.77-6.18Z" transform="translate(-37.809 -114.542)" fill="#3c4973"/>
      <path id="Trazado_126896" data-name="Trazado 126896" d="M85.2,472.23c-.11,0,.16-4.26.59-9.52s.87-9.53,1-9.54-.15,4.26-.58,9.52S85.31,472.23,85.2,472.23Z" transform="translate(-37.809 -114.542)" fill="#263238"/>
      <path id="Trazado_126897" data-name="Trazado 126897" d="M94.17,470.96l-18.16.38.02,2.38,18.15-.44Z" transform="translate(-37.809 -114.542)" fill="#263238"/>
      <path id="Trazado_126898" data-name="Trazado 126898" d="M76,463a4.312,4.312,0,0,1,.46-.73,13.07,13.07,0,0,1,4.55-3.7,9.419,9.419,0,0,1,4.23-1,9.6,9.6,0,0,1,7.08,3.07,8.45,8.45,0,0,1,1.33,2,2.43,2.43,0,0,1,.29.83,18.627,18.627,0,0,0-1.9-2.53,9.64,9.64,0,0,0-6.8-2.79,11.11,11.11,0,0,0-6.91,2.69A12.755,12.755,0,0,0,76,463Z" transform="translate(-37.809 -114.542)" fill="#263238"/>
    </g>
    <g id="freepik--Floor--inject-25" transform="translate(46.49 409.37)">
      <path id="Trazado_126899" data-name="Trazado 126899" d="M442.3,473.45c0,.15-88.61.26-197.89.26s-197.92-.11-197.92-.26,88.6-.26,197.92-.26S442.3,473.31,442.3,473.45Z" transform="translate(-46.49 -473.19)" fill="#263238"/>
    </g>
  </g>
</svg>
