<svg xmlns="http://www.w3.org/2000/svg" width="84" height="84" viewBox="0 0 84 84">
  <g id="Grupo_55804" data-name="Grupo 55804" transform="translate(510 5785)">
    <g id="Grupo_55624" data-name="Grupo 55624" transform="translate(-860.303 -10618)">
      <circle id="Elipse_4272" data-name="Elipse 4272" cx="42" cy="42" r="42" transform="translate(350.303 4833)" fill="#f5ca56"/>
    </g>
    <g id="Grupo_55687" data-name="Grupo 55687" transform="translate(-492.158 -5769)">
      <g id="Grupo_55687-2" data-name="Grupo 55687">
        <path id="Trazado_127895" data-name="Trazado 127895" d="M63.649,25.378a4.181,4.181,0,0,0-1.965-3.369l-3.705-2.334V10.836a.779.779,0,0,0-1.559,0V26.228L43.292,36.34l-2.574-1.95a3.811,3.811,0,0,0-4.588,0l-2.574,1.95L20.329,26.151V9.647h5.3A2.79,2.79,0,0,0,28.417,6.86v-5.3H55.192a1.23,1.23,0,0,1,1.229,1.229V7.193a.779.779,0,0,0,1.559,0V2.787A2.79,2.79,0,0,0,55.192,0H28.232a2.2,2.2,0,0,0-1.564.648L19.418,7.9a2.2,2.2,0,0,0-.648,1.564V19.737l-3.606,2.272A4.18,4.18,0,0,0,13.2,25.378c-.007.176,0-1.361,0,23.468A4.318,4.318,0,0,0,17.475,53.2h41.9a4.322,4.322,0,0,0,4.279-4.354c0-24.817,0-23.291,0-23.468Zm-5.67-3.861L60.486,23.1l-2.507,1.931Zm3.7,2.627a2.566,2.566,0,0,1,.412,1.294c0,.1,0,8.527,0,23.408a2.835,2.835,0,0,1-.392,1.444L44.58,37.315ZM26.859,2.66v4.2A1.23,1.23,0,0,1,25.63,8.088h-4.2ZM18.77,24.95,16.363,23.1l2.407-1.517V24.95Zm-1.3,26.691a2.668,2.668,0,0,1-1.172-.273l9.828-7.446a.779.779,0,0,0-.941-1.242l-10.043,7.61a2.836,2.836,0,0,1-.392-1.444c0-14.784,0-23.312,0-23.408a2.568,2.568,0,0,1,.412-1.294l17.1,13.172-4.174,3.163a.779.779,0,0,0,.941,1.242l8.036-6.089a2.22,2.22,0,0,1,2.705,0L60.546,51.368a2.666,2.666,0,0,1-1.172.273Z" transform="translate(-13.196 0)" fill="#690589"/>
        <path id="Trazado_127896" data-name="Trazado 127896" d="M130.455,51.362a11.533,11.533,0,0,1,10.589,1.8,2.608,2.608,0,0,0,2.487,1.878,2.581,2.581,0,0,0,2.452-3.38l-6.3-19.358a2.581,2.581,0,1,0-4.908,1.6l.031.1a11.533,11.533,0,0,1-7.5,7.69l-7.342,2.39a2.149,2.149,0,0,0-1.478,2.148,3.645,3.645,0,0,0,2.348,6.9,2.139,2.139,0,0,0,2.053.685l3.713,4.927a1.673,1.673,0,0,0,1.855.584l1.061-.346a1.676,1.676,0,0,0,1.073-2.11l-1.633-5.017,1.5-.488Zm6.456-19.233a1.023,1.023,0,0,1,1.288.656l6.3,19.358a1.022,1.022,0,0,1-1.944.633l-6.3-19.358A1.024,1.024,0,0,1,136.91,32.129Zm-1.343,4.213,4.713,14.475a13.084,13.084,0,0,0-10.308-.937l-.3.1-2.185-6.712.3-.1A13.085,13.085,0,0,0,135.568,36.342ZM117.737,50.3a2.086,2.086,0,0,1,1.159-2.563l1.287,3.952A2.086,2.086,0,0,1,117.737,50.3Zm4.159,1.61c-.322-.988-1.185-3.633-1.828-5.61a.589.589,0,0,1,.377-.742l5.56-1.81,2.185,6.712-5.56,1.81A.586.586,0,0,1,121.9,51.91Zm7.211,5.439a.116.116,0,0,1-.074.145l-1.061.346a.115.115,0,0,1-.128-.04l-3.382-4.487,3.011-.98Z" transform="translate(-105.384 -27.349)" fill="#690589"/>
      </g>
    </g>
  </g>
</svg>
