<svg xmlns="http://www.w3.org/2000/svg" xmlns:xlink="http://www.w3.org/1999/xlink" width="123.833" height="123.939" viewBox="0 0 123.833 123.939">
  <defs>
    <radialGradient id="radial-gradient" cx="0.076" cy="0.019" r="1.465" gradientTransform="translate(0.001)" gradientUnits="objectBoundingBox">
      <stop offset="0" stop-color="#f6f6f7"/>
      <stop offset="0.477" stop-color="#f9f9fa"/>
      <stop offset="0.715" stop-color="#fff"/>
    </radialGradient>
  </defs>
  <g id="Grupo_46891" data-name="Grupo 46891" transform="translate(0 0)">
    <g id="Grupo_42274" data-name="Grupo 42274" transform="translate(0 0)">
      <g id="Grupo_18423" data-name="Grupo 18423" transform="translate(0 0)">
        <g id="Grupo_18421" data-name="Grupo 18421">
          <g id="Grupo_18420" data-name="Grupo 18420">
            <g id="Grupo_18419" data-name="Grupo 18419">
              <path id="Trazado_40936" data-name="Trazado 40936" d="M318.456,2207.635a61.916,61.916,0,1,1-61.915-61.915A61.915,61.915,0,0,1,318.456,2207.635Z" transform="translate(-194.623 -2145.721)" fill="#fff"/>
            </g>
          </g>
        </g>
        <path id="Trazado_40937" data-name="Trazado 40937" d="M317.728,2206.843a61.915,61.915,0,1,0-61.915,61.918A61.672,61.672,0,0,0,317.728,2206.843Z" transform="translate(-194.128 -2144.821)" fill="url(#radial-gradient)"/>
        <path id="Trazado_40938" data-name="Trazado 40938" d="M296.6,2200.4a47.26,47.26,0,1,0-47.26,47.26A47.084,47.084,0,0,0,296.6,2200.4Z" transform="translate(-187.439 -2138.123)" fill="none" stroke="#26aab7" stroke-miterlimit="10" stroke-width="4"/>
        <g id="Grupo_18422" data-name="Grupo 18422" transform="translate(10.969 34.762)">
          <path id="Trazado_40939" data-name="Trazado 40939" d="M307.148,2164.488a61.924,61.924,0,0,1-106.6,61.66,61.727,61.727,0,0,0,106.6-61.66Z" transform="translate(-200.545 -2164.488)" fill="#eceef0"/>
        </g>
        <g id="Grupo_55586" data-name="Grupo 55586" transform="translate(4603.338 7312.321)">
          <path id="Trazado_127360" data-name="Trazado 127360" d="M100.816,103.509v35.853H50.2V103.509a2.115,2.115,0,0,1,2.109-2.109h46.4A2.115,2.115,0,0,1,100.816,103.509Z" transform="translate(-4615.861 -7370.236)" fill="#26aab7"/>
          <path id="Trazado_127361" data-name="Trazado 127361" d="M97.647,103.509v35.853H50.194V103.509a2.052,2.052,0,0,1,1.977-2.109h43.5A2.052,2.052,0,0,1,97.647,103.509Z" transform="translate(-4615.855 -7370.236)" fill="#8ec8c8"/>
          <path id="Trazado_127362" data-name="Trazado 127362" d="M68.695,401.023v1.055H7.533v-1.055l5.273-9.491H63.422Z" transform="translate(-4578.467 -7624.515)" fill="#37474f"/>
          <path id="Trazado_127363" data-name="Trazado 127363" d="M65.531,401.023v1.055h-58v-1.055l5.273-9.491H60.258Z" transform="translate(-4578.467 -7624.515)" fill="#607d8b"/>
          <path id="Trazado_127364" data-name="Trazado 127364" d="M178.2,438.418l1.818-3.635a1.054,1.054,0,0,1,.943-.583h13.46a1.055,1.055,0,0,1,.943.583l1.818,3.635Z" transform="translate(-4728.044 -7661.91)" fill="#cfd8dc"/>
          <path id="Trazado_127365" data-name="Trazado 127365" d="M68.695,468.333v2.109a2.115,2.115,0,0,1-2.109,2.109H9.642a2.115,2.115,0,0,1-2.109-2.109v-2.109Z" transform="translate(-4578.467 -7691.824)" fill="#37474f"/>
          <path id="Trazado_127366" data-name="Trazado 127366" d="M65.531,468.333v2.109a2.115,2.115,0,0,1-2.109,2.109H9.642a2.115,2.115,0,0,1-2.109-2.109v-2.109Z" transform="translate(-4578.467 -7691.824)" fill="#607d8b"/>
          <path id="Trazado_127367" data-name="Trazado 127367" d="M132.938,53.364v5.273H92.867V53.364A3.173,3.173,0,0,1,96.031,50.2h33.744A3.173,3.173,0,0,1,132.938,53.364Z" transform="translate(-4653.256 -7325.362)" fill="#7d6eb2"/>
          <path id="Trazado_127368" data-name="Trazado 127368" d="M129.775,53.364v5.273H92.867V53.364A3.173,3.173,0,0,1,96.031,50.2h30.581A3.173,3.173,0,0,1,129.775,53.364Z" transform="translate(-4653.256 -7325.362)" fill="#b1a8d1"/>
          <path id="Trazado_127369" data-name="Trazado 127369" d="M100.249,146.939H96.031a3.164,3.164,0,0,1-3.164-3.164V118.467h40.071v25.308a3.164,3.164,0,0,1-3.164,3.164h-4.218" transform="translate(-4653.256 -7385.193)" fill="#fff"/>
          <g id="Grupo_55583" data-name="Grupo 55583" transform="translate(-4554.062 -7280.435)">
            <path id="Trazado_127370" data-name="Trazado 127370" d="M372.26,118.467v25.308a3.164,3.164,0,0,1-3.164,3.164h-3.164a3.164,3.164,0,0,0,3.164-3.164V118.467Z" transform="translate(-338.516 -104.758)" fill="#cfd8dc"/>
            <path id="Trazado_127371" data-name="Trazado 127371" d="M146.175,7.533h0a2.109,2.109,0,0,1,2.109,2.109v5.273a2.109,2.109,0,0,1-2.109,2.109h0a2.109,2.109,0,0,1-2.109-2.109V9.642A2.109,2.109,0,0,1,146.175,7.533Z" transform="translate(-144.066 -7.533)" fill="#cfd8dc"/>
            <path id="Trazado_127372" data-name="Trazado 127372" d="M333.909,7.533h0a2.109,2.109,0,0,1,2.109,2.109v5.273a2.109,2.109,0,0,1-2.109,2.109h0a2.109,2.109,0,0,1-2.109-2.109V9.642A2.109,2.109,0,0,1,333.909,7.533Z" transform="translate(-308.601 -7.533)" fill="#cfd8dc"/>
            <path id="Trazado_127373" data-name="Trazado 127373" d="M177.91,165.255c0,.358-.01.706-.042,1.054a12.687,12.687,0,0,1-1.149,4.334v.01a12.991,12.991,0,0,1-4.239,5,13.1,13.1,0,0,1-1.824,1.065h-.011a12.686,12.686,0,0,1-4.334,1.149c-.348.032-.7.042-1.054.042s-.706-.01-1.054-.042a4.471,4.471,0,0,1-.527-.063,12.431,12.431,0,0,1-3.807-1.086h-.01a13.411,13.411,0,0,1-3.543-2.51,12.486,12.486,0,0,1-3.67-7.9c-.032-.348-.042-.7-.042-1.054s.011-.706.042-1.054a12.686,12.686,0,0,1,1.149-4.334,12.938,12.938,0,0,1,4.239-5.009,13.094,13.094,0,0,1,1.824-1.065h.01a12.427,12.427,0,0,1,3.807-1.086,4.468,4.468,0,0,1,.527-.063c.348-.032.7-.042,1.054-.042s.706.011,1.054.042a12.686,12.686,0,0,1,4.334,1.149h.011a12.991,12.991,0,0,1,5,4.239,13.1,13.1,0,0,1,1.065,1.824v.01a12.686,12.686,0,0,1,1.149,4.334C177.9,164.548,177.91,164.9,177.91,165.255Z" transform="translate(-151.547 -134.674)" fill="#cfd8dc"/>
          </g>
          <path id="Trazado_127374" data-name="Trazado 127374" d="M174.746,166c0,.358-.01.706-.042,1.054a12.686,12.686,0,0,1-1.149,4.334v.01a12.991,12.991,0,0,1-4.239,5,13.1,13.1,0,0,1-1.824,1.065h-.011a12.426,12.426,0,0,1-3.807,1.086,12.431,12.431,0,0,1-3.807-1.086h-.01a13.411,13.411,0,0,1-3.543-2.51,12.486,12.486,0,0,1-3.67-7.9c-.032-.348-.042-.7-.042-1.054s.011-.706.042-1.054a12.686,12.686,0,0,1,1.149-4.334,12.938,12.938,0,0,1,4.239-5.009,13.1,13.1,0,0,1,1.824-1.065h.01a12.427,12.427,0,0,1,3.807-1.086,12.43,12.43,0,0,1,3.807,1.086h.011a12.99,12.99,0,0,1,5,4.239,13.1,13.1,0,0,1,1.065,1.824v.01a12.683,12.683,0,0,1,1.149,4.334C174.736,165.3,174.746,165.644,174.746,166Z" transform="translate(-4705.609 -7415.857)" fill="#f4f4f4"/>
          <path id="Trazado_127375" data-name="Trazado 127375" d="M58,48.234V14.763A3.164,3.164,0,0,0,54.834,11.6H52.725V9.491a4.218,4.218,0,0,0-4.218-4.218H46.4V3.164a3.164,3.164,0,0,0-6.327,0V5.273H23.2V3.164a3.164,3.164,0,0,0-6.327,0V5.273H14.763a4.218,4.218,0,0,0-4.218,4.218V11.6H8.436a3.164,3.164,0,0,0-3.164,3.164V48.234L.133,57.487A1.045,1.045,0,0,0,0,58v2.109a3.164,3.164,0,0,0,3.164,3.164H60.107a3.164,3.164,0,0,0,3.164-3.164V58a1.045,1.045,0,0,0-.133-.511ZM42.18,3.164a1.054,1.054,0,1,1,2.109,0V8.436a1.054,1.054,0,1,1-2.109,0Zm-23.2,0a1.054,1.054,0,0,1,2.109,0V8.436a1.054,1.054,0,0,1-2.109,0ZM12.654,9.491a2.109,2.109,0,0,1,2.109-2.109h2.109V8.436a3.164,3.164,0,0,0,6.327,0V7.382H40.071V8.436a3.164,3.164,0,1,0,6.327,0V7.382h2.109a2.109,2.109,0,0,1,2.109,2.109v4.218H12.654ZM8.436,13.709h2.109V40.071a4.218,4.218,0,0,0,4.218,4.218h4.218a1.054,1.054,0,1,0,0-2.109H14.763a2.109,2.109,0,0,1-2.109-2.109V15.818H50.616V40.071a2.109,2.109,0,0,1-2.109,2.109H44.289a1.054,1.054,0,0,0,0,2.109h4.218a4.218,4.218,0,0,0,4.218-4.218V13.709h2.109a1.054,1.054,0,0,1,1.054,1.054v32.69H7.382V14.763A1.055,1.055,0,0,1,8.436,13.709Zm52.725,46.4a1.054,1.054,0,0,1-1.054,1.054H3.164a1.054,1.054,0,0,1-1.054-1.054V58.271l4.839-8.709H56.322l4.839,8.709Z" transform="translate(-4571.989 -7281.49)"/>
          <path id="Trazado_127376" data-name="Trazado 127376" d="M77.646,427.833a2.1,2.1,0,0,0-1.887-1.166H62.3a2.1,2.1,0,0,0-1.887,1.16l-1.526,3.058H43.721a1.054,1.054,0,1,0,0,2.109H95.392a1.054,1.054,0,1,0,0-2.109H79.172Zm-15.346.943H75.76l1.054,2.109H61.245Z" transform="translate(-4609.383 -7655.431)"/>
          <path id="Trazado_127377" data-name="Trazado 127377" d="M151.877,170.613c.016.01.024.026.04.036s.04.015.06.024a13.647,13.647,0,0,0,13.588,0c.019-.009.041-.014.06-.024s.024-.025.04-.036a13.447,13.447,0,0,0,4.929-4.918c.015-.022.035-.04.05-.064s.007-.028.014-.042a13.645,13.645,0,0,0,0-13.623c-.007-.014-.007-.03-.015-.043s-.025-.024-.036-.04a13.441,13.441,0,0,0-4.943-4.943c-.016-.01-.024-.026-.04-.036a.269.269,0,0,0-.042-.014,13.642,13.642,0,0,0-13.623,0c-.014.006-.03.006-.043.014s-.024.025-.04.036a13.454,13.454,0,0,0-4.943,4.943c-.01.016-.025.024-.035.04a.269.269,0,0,0-.014.042,13.645,13.645,0,0,0,0,13.623c.007.014.007.03.015.043s.035.042.051.065A13.439,13.439,0,0,0,151.877,170.613Zm.211-21.306.5.865a1.054,1.054,0,1,0,1.826-1.054l-.5-.866a11.485,11.485,0,0,1,3.8-1.023v1a1.054,1.054,0,1,0,2.109,0v-1a11.48,11.48,0,0,1,3.8,1.023l-.5.866a1.054,1.054,0,1,0,1.826,1.054l.5-.865a11.108,11.108,0,0,1,2.785,2.785l-.865.5a1.054,1.054,0,1,0,1.054,1.826l.866-.5a11.486,11.486,0,0,1,1.023,3.8h-1a1.054,1.054,0,1,0,0,2.109h1a11.479,11.479,0,0,1-1.023,3.8l-.866-.5a1.054,1.054,0,0,0-1.055,1.826l.865.5a11.108,11.108,0,0,1-2.785,2.785l-.5-.865a1.054,1.054,0,1,0-1.826,1.054l.5.866a11.485,11.485,0,0,1-3.8,1.023v-1a1.054,1.054,0,0,0-2.109,0v1a11.48,11.48,0,0,1-3.8-1.023l.5-.866a1.054,1.054,0,0,0-1.826-1.055l-.5.865a11.108,11.108,0,0,1-2.785-2.785l.865-.5a1.054,1.054,0,1,0-1.054-1.826l-.866.5a11.485,11.485,0,0,1-1.023-3.8h1a1.054,1.054,0,1,0,0-2.109h-1a11.478,11.478,0,0,1,1.023-3.8l.866.5a1.054,1.054,0,1,0,1.054-1.826l-.865-.5a11.108,11.108,0,0,1,2.785-2.785h0Z" transform="translate(-4699.125 -7408.63)"/>
          <path id="Trazado_127378" data-name="Trazado 127378" d="M248.522,212.182h2.109a1.054,1.054,0,1,0,0-2.109h-1.054v-4.218a1.054,1.054,0,0,0-2.109,0v5.272A1.054,1.054,0,0,0,248.522,212.182Z" transform="translate(-4788.876 -7460.983)"/>
        </g>
      </g>
    </g>
  </g>
</svg>
