<svg xmlns="http://www.w3.org/2000/svg" width="84" height="84" viewBox="0 0 84 84">
  <g id="Grupo_55682" data-name="Grupo 55682" transform="translate(-275 -6459)">
    <path id="Trazado_127405" data-name="Trazado 127405" d="M42,0A42,42,0,1,1,0,42,42,42,0,0,1,42,0Z" transform="translate(275 6459)" fill="#f5ca56"/>
    <g id="ads" transform="translate(289.05 6472)">
      <g id="Grupo_55686" data-name="Grupo 55686" transform="translate(0 0)">
        <path id="Trazado_127894" data-name="Trazado 127894" d="M55.9,23.695a.822.822,0,0,0-1.643,0l0,21.592a1.788,1.788,0,0,1-3.576,0l0-29.49a1.788,1.788,0,0,1,3.576,0v4.041a.822.822,0,1,0,1.643,0V15.8a3.431,3.431,0,0,0-6.862,0v.848a18.843,18.843,0,0,1-13.977,6.212h-12.3a3.005,3.005,0,0,0-2.962,2.521h-.153a5.389,5.389,0,0,0,0,10.779H19.9a3,3,0,0,0,2.855,2.072h.122V39.7a7.794,7.794,0,0,0-5.342,2.949c-1.091,1.216-1.521,2.456-3.145,2.927v-1a1.763,1.763,0,0,0-1.761-1.761H9.853a1.763,1.763,0,0,0-1.7,1.316H1.779A1.781,1.781,0,0,0,0,45.9V62.47a1.781,1.781,0,0,0,1.779,1.779H8.151a1.763,1.763,0,0,0,1.7,1.316h2.777A1.763,1.763,0,0,0,14.392,63.8V62.614a5.207,5.207,0,0,1,2.1.251c1.6.512,4.684,2.469,9.8,2.469H31.64a2.722,2.722,0,0,0,2.719-2.719V61.4a2.7,2.7,0,0,0-.349-1.333,2.723,2.723,0,0,0,1.566-2.462V56.393a2.7,2.7,0,0,0-.408-1.432A2.721,2.721,0,0,0,36.541,52.6V51.385a2.705,2.705,0,0,0-.5-1.568A2.718,2.718,0,0,0,37.2,47.59V46.377a2.722,2.722,0,0,0-2.719-2.719H32.253l.763-5.428H35.06a18.844,18.844,0,0,1,13.977,6.21v.848a3.431,3.431,0,0,0,6.862,0ZM19.642,34.515a3.746,3.746,0,0,1,0-7.492h.114v7.492h-.114Zm3.115,2.072A1.356,1.356,0,0,1,21.4,35.339v0C21.4,24.1,21.4,26.1,21.4,25.86A1.359,1.359,0,0,1,22.756,24.5h9.736V36.586ZM12.748,63.8a.118.118,0,0,1-.117.117H9.853a.118.118,0,0,1-.117-.117V52.248a.822.822,0,0,0-1.644,0V62.606H1.779a.135.135,0,0,1-.135-.135V45.9a.135.135,0,0,1,.135-.135H8.092v2.639a.822.822,0,0,0,1.644,0V44.568a.118.118,0,0,1,.117-.117h2.777a.118.118,0,0,1,.117.117V63.8ZM35.56,46.377V47.59a1.077,1.077,0,0,1-1.076,1.076h-.662a.822.822,0,1,0,0,1.644A1.077,1.077,0,0,1,34.9,51.385V52.6a1.077,1.077,0,0,1-1.076,1.076h-.966a.822.822,0,1,0,0,1.644,1.077,1.077,0,0,1,1.076,1.076v1.213a1.077,1.077,0,0,1-1.076,1.076H31.64a.822.822,0,0,0,0,1.644A1.077,1.077,0,0,1,32.715,61.4v1.213A1.077,1.077,0,0,1,31.64,63.69H26.3c-4.694,0-7.422-1.78-9.192-2.352a6.513,6.513,0,0,0-2.713-.368V47.26c2.644-.512,3.466-2.587,4.436-3.6a6.161,6.161,0,0,1,4.051-2.311V42.8a2.507,2.507,0,0,0,2.5,2.5l9.1,0a1.077,1.077,0,0,1,1.076,1.076Zm-4.967-2.72h-5.21a.862.862,0,0,1-.861-.861V38.231h6.834Zm4.467-7.071h-.924V24.5h.922a20.486,20.486,0,0,0,13.977-5.514l0,23.11A20.485,20.485,0,0,0,35.06,36.586Z" transform="translate(0 -12.366)" fill="#690589"/>
      </g>
    </g>
  </g>
</svg>
