<svg xmlns="http://www.w3.org/2000/svg" width="623" height="338.093" viewBox="0 0 623 338.093">
  <g id="Grupo_55527" data-name="Grupo 55527" transform="translate(-252.316 -6985.907)">
    <g id="freepik--Screens--inject-79" transform="translate(252.316 6985.907)">
      <rect id="Rectángulo_29908" data-name="Rectángulo 29908" width="267.33" height="175.35" transform="translate(145.361 13.05)" fill="#fafafa"/>
      <path id="Trazado_121835" data-name="Trazado 121835" d="M494.25,262.7c0-1.69-.08-68.4-.21-175.35l.21.21H226.94l.26-.26V262.65l-.24-.24,267.33.24-267.33.24h-.24V87.04H227l267.31.06h.21v.2C494.33,194.3,494.25,261,494.25,262.7Z" transform="translate(-81.559 -74.3)" fill="#263238"/>
      <path id="Trazado_121836" data-name="Trazado 121836" d="M308.62,184.18l26.29.37c-.2,14-12,25.43-26.29,25.43h-.16Z" transform="translate(-81.528 -74.3)" fill="rgba(193,80,127,0.5)"/>
      <path id="Trazado_121837" data-name="Trazado 121837" d="M352.1,219.79a3.222,3.222,0,0,1-.57,0h-1.6l-5.88.07H344l-.05-.06c-2.35-2.95-5.37-6.77-8.67-10.93l-7-8.91.14.06-7.74-.07-2.18.05a3.6,3.6,0,0,1-.77,0,4.688,4.688,0,0,1,.77-.05h2.16l7.74-.07h.08v.06l7,8.89,8.6,11-.12-.06,5.88.07h1.6A2.6,2.6,0,0,1,352.1,219.79Z" transform="translate(-81.541 -74.3)" fill="#263238"/>
      <path id="Trazado_121838" data-name="Trazado 121838" d="M361.53,222.82c0,.11-3.81.2-8.51.2s-8.51-.09-8.51-.2,3.81-.2,8.51-.2S361.53,222.71,361.53,222.82Z" transform="translate(-81.56 -74.3)" fill="#263238"/>
      <path id="Trazado_121839" data-name="Trazado 121839" d="M361.53,226c0,.11-3.81.2-8.51.2s-8.51-.09-8.51-.2,3.81-.2,8.51-.2A80.021,80.021,0,0,1,361.53,226Z" transform="translate(-81.56 -74.3)" fill="#263238"/>
      <path id="Trazado_121840" data-name="Trazado 121840" d="M304.46,180.44l-.37,25.8c-14.28-.2-25.93-11.78-25.93-25.8s11.87-25.79,26.3-25.79,26.3,11.64,26.3,25.79Z" transform="translate(-81.508 -74.3)" fill="#c1507f"/>
      <path id="Trazado_121841" data-name="Trazado 121841" d="M294.19,172a1.881,1.881,0,0,1-.45.1l-1.31.21-4.72.67h-.08l-.06-.06-6.3-6.13c-3-3-5.75-5.67-7.71-7.64l-2.3-2.35a6.854,6.854,0,0,1-.81-.9,6.418,6.418,0,0,1,.92.79l2.39,2.25c2,1.92,4.76,4.59,7.79,7.56l6.25,6.18h-.14l4.75-.52,1.31-.12a1.29,1.29,0,0,1,.47-.04Z" transform="translate(-81.489 -74.3)" fill="#263238"/>
      <path id="Trazado_121842" data-name="Trazado 121842" d="M263.79,154.78c0,.11-3.81.2-8.51.2s-8.5-.09-8.5-.2,3.8-.2,8.5-.2S263.79,154.67,263.79,154.78Z" transform="translate(-81.464 -74.3)" fill="#263238"/>
      <path id="Trazado_121843" data-name="Trazado 121843" d="M263.79,157.93c0,.11-3.81.2-8.51.2s-8.5-.09-8.5-.2,3.8-.2,8.5-.2S263.79,157.82,263.79,157.93Z" transform="translate(-81.464 -74.3)" fill="#263238"/>
      <path id="Trazado_121844" data-name="Trazado 121844" d="M396.45,129.48l-.1-16a20.5,20.5,0,0,0-13.23,5.16,19,19,0,0,0-6.37,16.6,22.121,22.121,0,0,0,.38,2.33.13.13,0,0,0,0,.06h0l19.31-4.35Z" transform="translate(-81.593 -74.3)" fill="#26aab7"/>
      <g id="Grupo_55265" data-name="Grupo 55265" transform="translate(295.019 39.18)" opacity="0.3">
        <path id="Trazado_121845" data-name="Trazado 121845" d="M396.45,129.48l-.1-16a20.5,20.5,0,0,0-13.23,5.16,19,19,0,0,0-6.37,16.6,22.121,22.121,0,0,0,.38,2.33.13.13,0,0,0,0,.06h0l19.31-4.35Z" transform="translate(-376.612 -113.48)" fill="#c1507f"/>
      </g>
      <path id="Trazado_121846" data-name="Trazado 121846" d="M416.36,124.55a19,19,0,0,0-15.59-10.91l-.61-.06H398.5l.11,16v3.76L418,137.53h0a18.569,18.569,0,0,0,.43-4.15,20.71,20.71,0,0,0-2.07-8.83Z" transform="translate(-81.615 -74.3)" fill="#26aab7"/>
      <g id="Grupo_55266" data-name="Grupo 55266" transform="translate(316.885 39.28)" opacity="0.3">
        <path id="Trazado_121847" data-name="Trazado 121847" d="M416.36,124.55a19,19,0,0,0-15.59-10.91l-.61-.06H398.5l.11,16v3.76L418,137.53h0a18.569,18.569,0,0,0,.43-4.15,20.71,20.71,0,0,0-2.07-8.83Z" transform="translate(-398.5 -113.58)" fill="rgba(193,80,127,0.5)"/>
      </g>
      <path id="Trazado_121848" data-name="Trazado 121848" d="M397.49,135.25l-19.32,4.35a19.8,19.8,0,0,0,38.66-.13l-19.32-4.22" transform="translate(-81.605 -74.3)" fill="#c1507f"/>
      <path id="Trazado_121849" data-name="Trazado 121849" d="M472.67,132.37c0,.14-10,.26-22.3.26s-22.31-.12-22.31-.26,10-.27,22.31-.27S472.67,132.22,472.67,132.37Z" transform="translate(-81.66 -74.3)" fill="#263238"/>
      <path id="Trazado_121850" data-name="Trazado 121850" d="M472.67,127.28c0,.14-10,.26-22.3.26s-22.31-.12-22.31-.26,10-.26,22.31-.26S472.67,127.14,472.67,127.28Z" transform="translate(-81.66 -74.3)" fill="#263238"/>
      <path id="Trazado_121851" data-name="Trazado 121851" d="M472.67,122.2c0,.14-10,.26-22.3.26s-22.31-.12-22.31-.26,10-.26,22.31-.26S472.67,122.05,472.67,122.2Z" transform="translate(-81.66 -74.3)" fill="#263238"/>
      <path id="Trazado_121852" data-name="Trazado 121852" d="M472.67,137.1c0,.14-10,.26-22.3.26s-22.31-.12-22.31-.26,10-.27,22.31-.27S472.67,137,472.67,137.1Z" transform="translate(-81.66 -74.3)" fill="#263238"/>
      <path id="Trazado_121853" data-name="Trazado 121853" d="M458.86,142.24c0,.15-6.86.26-15.32.26s-15.32-.11-15.32-.26,6.86-.26,15.32-.26S458.86,142.1,458.86,142.24Z" transform="translate(-81.651 -74.3)" fill="#263238"/>
      <rect id="Rectángulo_29909" data-name="Rectángulo 29909" width="4.59" height="51.31" transform="translate(299.7 104.75)" fill="#26aab7"/>
      <rect id="Rectángulo_29910" data-name="Rectángulo 29910" width="4.59" height="33.88" transform="translate(308.561 122.17)" fill="#26aab7"/>
      <rect id="Rectángulo_29911" data-name="Rectángulo 29911" width="4.59" height="45.19" transform="translate(317.423 111.12)" fill="#26aab7"/>
      <rect id="Rectángulo_29912" data-name="Rectángulo 29912" width="4.59" height="49.33" transform="translate(326.284 106.73)" fill="#26aab7"/>
      <rect id="Rectángulo_29913" data-name="Rectángulo 29913" width="4.59" height="32.84" transform="translate(335.136 123.21)" fill="#26aab7"/>
      <rect id="Rectángulo_29914" data-name="Rectángulo 29914" width="4.59" height="26.4" transform="translate(343.997 129.65)" fill="#26aab7"/>
      <rect id="Rectángulo_29915" data-name="Rectángulo 29915" width="4.59" height="46.04" transform="translate(352.858 110.01)" fill="#26aab7"/>
      <rect id="Rectángulo_29916" data-name="Rectángulo 29916" width="4.59" height="37.74" transform="translate(361.72 118.31)" fill="#26aab7"/>
      <rect id="Rectángulo_29917" data-name="Rectángulo 29917" width="4.59" height="44.37" transform="translate(370.581 111.68)" fill="#26aab7"/>
      <rect id="Rectángulo_29918" data-name="Rectángulo 29918" width="4.59" height="30.23" transform="translate(379.443 125.82)" fill="#26aab7"/>
      <rect id="Rectángulo_29919" data-name="Rectángulo 29919" width="4.59" height="35.98" transform="translate(388.304 120.07)" fill="#26aab7"/>
      <path id="Trazado_121854" data-name="Trazado 121854" d="M476.45,233.93c0,.1-21.79.19-48.67.19s-48.67-.09-48.67-.19,21.79-.19,48.67-.19S476.45,233.82,476.45,233.93Z" transform="translate(-81.643 -74.3)" fill="#263238"/>
      <path id="Trazado_121855" data-name="Trazado 121855" d="M387.84,238a32.39,32.39,0,0,1-6.82,0,30.7,30.7,0,0,1,6.82,0Z" transform="translate(-81.591 -74.3)" fill="#263238"/>
      <path id="Trazado_121856" data-name="Trazado 121856" d="M399.15,238.17a43.79,43.79,0,0,1-8.15,0,43.79,43.79,0,0,1,8.15,0Z" transform="translate(-81.601 -74.3)" fill="#263238"/>
      <path id="Trazado_121857" data-name="Trazado 121857" d="M408.8,238.17a43.79,43.79,0,0,1-8.15,0A43.792,43.792,0,0,1,408.8,238.17Z" transform="translate(-81.611 -74.3)" fill="#263238"/>
      <path id="Trazado_121858" data-name="Trazado 121858" d="M418.44,238.17a43.79,43.79,0,0,1-8.15,0,43.791,43.791,0,0,1,8.15,0Z" transform="translate(-81.62 -74.3)" fill="#263238"/>
      <path id="Trazado_121859" data-name="Trazado 121859" d="M428.09,238.17a43.79,43.79,0,0,1-8.15,0A43.792,43.792,0,0,1,428.09,238.17Z" transform="translate(-81.63 -74.3)" fill="#263238"/>
      <path id="Trazado_121860" data-name="Trazado 121860" d="M437.73,238.17a43.79,43.79,0,0,1-8.15,0,43.79,43.79,0,0,1,8.15,0Z" transform="translate(-81.639 -74.3)" fill="#263238"/>
      <path id="Trazado_121861" data-name="Trazado 121861" d="M447.38,238.17a43.79,43.79,0,0,1-8.15,0A43.792,43.792,0,0,1,447.38,238.17Z" transform="translate(-81.648 -74.3)" fill="#263238"/>
      <path id="Trazado_121862" data-name="Trazado 121862" d="M457,238.17a43.79,43.79,0,0,1-8.15,0A43.792,43.792,0,0,1,457,238.17Z" transform="translate(-81.658 -74.3)" fill="#263238"/>
      <path id="Trazado_121863" data-name="Trazado 121863" d="M466.67,238.17a43.79,43.79,0,0,1-8.15,0A43.792,43.792,0,0,1,466.67,238.17Z" transform="translate(-81.667 -74.3)" fill="#263238"/>
      <path id="Trazado_121864" data-name="Trazado 121864" d="M476.32,238.17a43.791,43.791,0,0,1-8.15,0,43.792,43.792,0,0,1,8.15,0Z" transform="translate(-81.677 -74.3)" fill="#263238"/>
      <g id="Grupo_55267" data-name="Grupo 55267" transform="translate(308.561 122.17)" opacity="0.3">
        <rect id="Rectángulo_29920" data-name="Rectángulo 29920" width="4.59" height="33.88" fill="#fff"/>
      </g>
      <g id="Grupo_55268" data-name="Grupo 55268" transform="translate(326.284 106.73)" opacity="0.3">
        <rect id="Rectángulo_29921" data-name="Rectángulo 29921" width="4.59" height="49.33" fill="#fff"/>
      </g>
      <g id="Grupo_55269" data-name="Grupo 55269" transform="translate(343.997 129.65)" opacity="0.3">
        <rect id="Rectángulo_29922" data-name="Rectángulo 29922" width="4.59" height="26.4" fill="#fff"/>
      </g>
      <g id="Grupo_55270" data-name="Grupo 55270" transform="translate(361.72 118.31)" opacity="0.3">
        <rect id="Rectángulo_29923" data-name="Rectángulo 29923" width="4.59" height="37.74" fill="#fff"/>
      </g>
      <g id="Grupo_55271" data-name="Grupo 55271" transform="translate(379.443 125.82)" opacity="0.3">
        <rect id="Rectángulo_29924" data-name="Rectángulo 29924" width="4.59" height="30.23" fill="#fff"/>
      </g>
      <path id="Trazado_121865" data-name="Trazado 121865" d="M259.4,120.31a4.43,4.43,0,1,1-4.42-4.42A4.43,4.43,0,0,1,259.4,120.31Z" transform="translate(-81.465 -74.3)" fill="#26aab7"/>
      <path id="Trazado_121866" data-name="Trazado 121866" d="M335.43,116.82c0,.15-14.91.26-33.3.26s-33.3-.11-33.3-.26,14.9-.26,33.3-.26S335.43,116.68,335.43,116.82Z" transform="translate(-81.503 -74.3)" fill="#26aab7"/>
      <path id="Trazado_121867" data-name="Trazado 121867" d="M295.56,122.17a3.689,3.689,0,0,1-1,.1l-2.81.09c-2.38,0-5.66.07-9.28.07s-6.91,0-9.28-.07l-2.82-.09a3.77,3.77,0,0,1-1-.1,4.349,4.349,0,0,1,1-.1c.67,0,1.63-.06,2.82-.08,2.37,0,5.65-.08,9.28-.08s6.9,0,9.28.08c1.19,0,2.15.05,2.81.08a4.25,4.25,0,0,1,1,.1Z" transform="translate(-81.489 -74.3)" fill="#26aab7"/>
      <rect id="Rectángulo_29925" data-name="Rectángulo 29925" width="139.91" height="159.68" transform="translate(0.26 28.93)" fill="#fafafa"/>
      <path id="Trazado_121868" data-name="Trazado 121868" d="M221.48,262.9V251.31c0-7.54,0-18.57-.06-32.58,0-28-.07-67.89-.11-115.5l.23.23H81.64l.26-.26V262.87l-.22-.22L183,262.8l28.38.06h.09l-28.33.06-101.62.11H81.3V103H221.71v.23c-.05,47.67-.09,87.61-.12,115.65,0,14-.05,25-.06,32.52v10.77A3.867,3.867,0,0,1,221.48,262.9Z" transform="translate(-81.3 -74.3)" fill="#263238"/>
      <path id="Trazado_121869" data-name="Trazado 121869" d="M209.45,184.76c0,.1-1.55-.78-4.5-1.71a29,29,0,0,0-12.9-1,28.359,28.359,0,0,0-8.51,2.74,39.619,39.619,0,0,0-8.37,6c-2.74,2.42-5.47,5.17-8.61,7.71a29.68,29.68,0,0,1-11,5.94,16.36,16.36,0,0,1-6.41.39A21.13,21.13,0,0,1,143.2,203a104.805,104.805,0,0,1-10-5.93,30.74,30.74,0,0,0-9.36-4.19,27.67,27.67,0,0,0-8.91-.69,28.6,28.6,0,0,0-12.3,4c-2.64,1.61-3.88,2.82-4,2.74a5,5,0,0,1,.89-.88,22,22,0,0,1,2.86-2.18,28.12,28.12,0,0,1,21.59-3.78,31.749,31.749,0,0,1,9.64,4.22,103.905,103.905,0,0,0,9.9,5.82,16.91,16.91,0,0,0,11.73,1.38A29.17,29.17,0,0,0,166,197.83c3.1-2.49,5.83-5.22,8.62-7.65a40.211,40.211,0,0,1,8.59-6.06,28.44,28.44,0,0,1,21.89-1.42,22.11,22.11,0,0,1,3.3,1.42,6.45,6.45,0,0,1,1.05.64Z" transform="translate(-81.3 -74.3)" fill="#26aab7"/>
      <rect id="Rectángulo_29926" data-name="Rectángulo 29926" width="11.89" height="32.17" transform="translate(38.77 131.91)" fill="#b1a8d1"/>
      <rect id="Rectángulo_29927" data-name="Rectángulo 29927" width="11.89" height="32.17" transform="translate(89.25 131.91)" fill="#b1a8d1"/>
      <rect id="Rectángulo_29928" data-name="Rectángulo 29928" width="11.89" height="51.06" transform="translate(105.966 113.01)" fill="#b1a8d1"/>
      <rect id="Rectángulo_29929" data-name="Rectángulo 29929" width="11.89" height="10.83" transform="translate(23.38 153.95)" fill="#b1a8d1"/>
      <rect id="Rectángulo_29930" data-name="Rectángulo 29930" width="11.9" height="17.64" transform="translate(55.6 146.43)" fill="#b1a8d1"/>
      <rect id="Rectángulo_29931" data-name="Rectángulo 29931" width="11.89" height="21.69" transform="translate(72.42 142.38)" fill="#b1a8d1"/>
      <path id="Trazado_121870" data-name="Trazado 121870" d="M132.45,242.17c0,.26-2.88.48-6.43.48s-6.43-.22-6.43-.48,2.88-.48,6.43-.48S132.45,241.9,132.45,242.17Z" transform="translate(-81.3 -74.3)" fill="#263238"/>
      <path id="Trazado_121871" data-name="Trazado 121871" d="M117.65,242.17c0,.26-2.88.48-6.43.48s-6.43-.22-6.43-.48,2.88-.48,6.43-.48S117.65,241.9,117.65,242.17Z" transform="translate(-81.3 -74.3)" fill="#263238"/>
      <path id="Trazado_121872" data-name="Trazado 121872" d="M201.61,242.17c0,.26-3.25.48-7.26.48s-7.27-.22-7.27-.48,3.25-.48,7.27-.48S201.61,241.9,201.61,242.17Z" transform="translate(-81.404 -74.3)" fill="#263238"/>
      <ellipse id="Elipse_4174" data-name="Elipse 4174" cx="7.26" cy="0.48" rx="7.26" ry="0.48" transform="translate(88.12 167.39)" fill="#263238"/>
      <path id="Trazado_121873" data-name="Trazado 121873" d="M165.62,242.17c0,.26-2.88.48-6.43.48s-6.43-.22-6.43-.48,2.88-.48,6.43-.48S165.62,241.9,165.62,242.17Z" transform="translate(-81.3 -74.3)" fill="#263238"/>
      <path id="Trazado_121874" data-name="Trazado 121874" d="M148.23,242.17c0,.26-2.87.48-6.42.48s-6.43-.22-6.43-.48,2.88-.48,6.43-.48S148.23,241.9,148.23,242.17Z" transform="translate(-81.3 -74.3)" fill="#263238"/>
      <rect id="Rectángulo_29932" data-name="Rectángulo 29932" width="97.21" height="40.37" transform="translate(23.1 52.21)" fill="#e0e0e0"/>
      <path id="Trazado_121875" data-name="Trazado 121875" d="M124.6,139.26a4.54,4.54,0,1,1-4.54-4.53,4.54,4.54,0,0,1,4.54,4.53Z" transform="translate(-81.3 -74.3)" fill="#263238"/>
      <rect id="Rectángulo_29933" data-name="Rectángulo 29933" width="31.58" height="1.75" transform="translate(47.83 61.83)" fill="#263238"/>
      <rect id="Rectángulo_29934" data-name="Rectángulo 29934" width="61.43" height="1.75" transform="translate(47.83 65.82)" fill="#fff"/>
      <path id="Trazado_121876" data-name="Trazado 121876" d="M124.6,153.2a4.53,4.53,0,1,1-1.33-3.207A4.54,4.54,0,0,1,124.6,153.2Z" transform="translate(-81.3 -74.3)" fill="#26aab7"/>
      <rect id="Rectángulo_29935" data-name="Rectángulo 29935" width="16.12" height="1.75" transform="translate(47.83 75.77)" fill="#26aab7"/>
      <rect id="Rectángulo_29936" data-name="Rectángulo 29936" width="61.43" height="1.75" transform="translate(47.83 79.75)" fill="#fff"/>
      <rect id="Rectángulo_29937" data-name="Rectángulo 29937" width="153.64" height="175.35" transform="translate(425.503 0.26)" fill="#fafafa"/>
      <path id="Trazado_121877" data-name="Trazado 121877" d="M661,249.91V237.18c0-8.28,0-20.39-.06-35.77,0-30.75-.07-74.56-.11-126.85l.23.23H507.43l.27-.26c0,64.65,0,124.94-.05,175.35l-.22-.22,111.45.11,31.15.06h.09L619,250l-111.59.11h-.22V74.3H661.33v.23c0,52.35-.09,96.21-.12,127,0,15.37,0,27.46-.06,35.73v11.82A3.651,3.651,0,0,0,661,249.91Z" transform="translate(-81.857 -74.3)" fill="#263238"/>
      <rect id="Rectángulo_29938" data-name="Rectángulo 29938" width="124.46" height="99.85" transform="translate(437.803 14.28)" fill="#e0e0e0"/>
      <rect id="Rectángulo_29939" data-name="Rectángulo 29939" width="4.08" height="1.18" transform="translate(446.618 96.38)" fill="#263238"/>
      <rect id="Rectángulo_29940" data-name="Rectángulo 29940" width="5.22" height="1.18" transform="translate(455.858 102.67)" fill="#263238"/>
      <rect id="Rectángulo_29941" data-name="Rectángulo 29941" width="5.22" height="1.18" transform="translate(473.923 102.67)" fill="#263238"/>
      <rect id="Rectángulo_29942" data-name="Rectángulo 29942" width="5.22" height="1.18" transform="translate(492.113 102.67)" fill="#263238"/>
      <rect id="Rectángulo_29943" data-name="Rectángulo 29943" width="5.22" height="1.18" transform="translate(510.293 102.67)" fill="#263238"/>
      <rect id="Rectángulo_29944" data-name="Rectángulo 29944" width="5.22" height="1.18" transform="translate(528.483 102.67)" fill="#263238"/>
      <rect id="Rectángulo_29945" data-name="Rectángulo 29945" width="5.22" height="1.18" transform="translate(546.663 102.67)" fill="#263238"/>
      <rect id="Rectángulo_29946" data-name="Rectángulo 29946" width="4.08" height="1.18" transform="translate(446.618 80.65)" fill="#263238"/>
      <rect id="Rectángulo_29947" data-name="Rectángulo 29947" width="4.08" height="1.18" transform="translate(446.618 51.07)" fill="#263238"/>
      <rect id="Rectángulo_29948" data-name="Rectángulo 29948" width="4.08" height="1.18" transform="translate(446.618 36.2)" fill="#263238"/>
      <rect id="Rectángulo_29949" data-name="Rectángulo 29949" width="4.08" height="1.18" transform="translate(446.828 65.86)" fill="#263238"/>
      <path id="Trazado_121878" data-name="Trazado 121878" d="M633.6,171.85a2.5,2.5,0,0,1-.44,0h-6.28l-18.17.09-60,.07h-14.4v-.26c0-20,.07-37.69.09-50.35,0-6.3.06-11.36.08-14.87v-5a1.349,1.349,0,0,1,0-.35,1.349,1.349,0,0,1,0,.35v5c0,3.51.05,8.57.08,14.87,0,12.66,0,30.31.09,50.35l-.26-.25H548.6l60,.08,18.17.08,5,.05h1.28Z" transform="translate(-81.857 -74.3)" fill="#263238"/>
      <path id="Trazado_121879" data-name="Trazado 121879" d="M634.75,140.75c0,.14-21.54.26-48.11.26s-48.12-.12-48.12-.26,21.54-.26,48.12-.26S634.75,140.61,634.75,140.75Z" transform="translate(-81.857 -74.3)" fill="#263238"/>
      <path id="Trazado_121880" data-name="Trazado 121880" d="M634.75,126c0,.15-21.54.26-48.11.26s-48.12-.11-48.12-.26,21.54-.26,48.12-.26S634.75,125.81,634.75,126Z" transform="translate(-81.857 -74.3)" fill="#263238"/>
      <path id="Trazado_121881" data-name="Trazado 121881" d="M634.75,111.08c0,.15-21.54.26-48.11.26s-48.12-.11-48.12-.26,21.54-.26,48.12-.26S634.75,110.94,634.75,111.08Z" transform="translate(-81.857 -74.3)" fill="#263238"/>
      <path id="Trazado_121882" data-name="Trazado 121882" d="M634.75,155.54c0,.15-21.54.26-48.11.26s-48.12-.11-48.12-.26,21.54-.26,48.12-.26S634.75,155.4,634.75,155.54Z" transform="translate(-81.857 -74.3)" fill="#263238"/>
      <path id="Trazado_121883" data-name="Trazado 121883" d="M539.51,168.67V155.54l8.18-12.7,5.56,4.26,11.39-17.7,6.72,4.73,9.35-16.33,7.6,6.19,11.39-21.66L612,126.54l9.93-12.11,11.69-3.35v57.59Z" transform="translate(-81.857 -74.3)" fill="#455a64"/>
      <path id="Trazado_121884" data-name="Trazado 121884" d="M634.75,106.42h-3.19l-9,.07.12-.06L613.08,119l-.06.08H588.94l.21-.12c-3.17,5.27-6.58,11-10.11,16.84l-9.94,16.51-.19.32-.23-.3c-4.74-6.54-9.14-12.59-13-17.93H556L544.05,153l-3.33,5.11-.89,1.33c-.2.3-.32.45-.32.45s.08-.17.27-.48l.83-1.37,3.24-5.17,11.75-18.61.17-.27.18.26L569,152.16h-.42l9.92-16.52,10.13-16.83.07-.12h24.21l-.16.08,9.69-12.49v-.06h.07l9,.07h2.98Z" transform="translate(-81.857 -74.3)" fill="#26aab7"/>
      <path id="Trazado_121885" data-name="Trazado 121885" d="M559.73,138.61a.93.93,0,1,1-.93-.89A.91.91,0,0,1,559.73,138.61Z" transform="translate(-81.857 -74.3)" fill="#26aab7"/>
      <path id="Trazado_121886" data-name="Trazado 121886" d="M587.48,122.83a.93.93,0,1,1-.92-.88.91.91,0,0,1,.92.88Z" transform="translate(-81.857 -74.3)" fill="#26aab7"/>
      <path id="Trazado_121887" data-name="Trazado 121887" d="M609.06,119a.93.93,0,1,1-.93-.89.91.91,0,0,1,.93.89Z" transform="translate(-81.857 -74.3)" fill="#26aab7"/>
      <path id="Trazado_121888" data-name="Trazado 121888" d="M638.51,203.27c0,.15-26.26.26-58.65.26s-58.66-.11-58.66-.26,26.26-.26,58.66-.26S638.51,203.13,638.51,203.27Z" transform="translate(-81.857 -74.3)" fill="#263238"/>
      <path id="Trazado_121889" data-name="Trazado 121889" d="M638.51,209.61c0,.15-26.26.26-58.65.26s-58.66-.11-58.66-.26,26.26-.26,58.66-.26S638.51,209.47,638.51,209.61Z" transform="translate(-81.857 -74.3)" fill="#263238"/>
      <path id="Trazado_121890" data-name="Trazado 121890" d="M638.51,216c0,.14-26.26.26-58.65.26s-58.66-.12-58.66-.26,26.26-.26,58.66-.26S638.51,215.81,638.51,216Z" transform="translate(-81.857 -74.3)" fill="#263238"/>
      <path id="Trazado_121891" data-name="Trazado 121891" d="M638.51,222.3c0,.14-26.26.26-58.65.26s-58.66-.12-58.66-.26,26.26-.26,58.66-.26S638.51,222.15,638.51,222.3Z" transform="translate(-81.857 -74.3)" fill="#263238"/>
    </g>
    <g id="Weather-rafiki" transform="translate(356.756 7040.697)">
      <g id="freepik--background-complete--inject-12" transform="translate(0)">
        <rect id="Rectángulo_30005" data-name="Rectángulo 30005" width="501.235" height="0.224" transform="translate(0 250.395)" fill="#ebebeb"/>
        <rect id="Rectángulo_30006" data-name="Rectángulo 30006" width="33.202" height="0.224" transform="translate(417.809 264.815)" fill="#ebebeb"/>
        <rect id="Rectángulo_30007" data-name="Rectángulo 30007" width="8.711" height="0.224" transform="translate(323.327 267.253)" fill="#ebebeb"/>
        <rect id="Rectángulo_30008" data-name="Rectángulo 30008" width="19.237" height="0.224" transform="translate(397.57 256.498)" fill="#ebebeb"/>
        <rect id="Rectángulo_30009" data-name="Rectángulo 30009" width="43.297" height="0.224" transform="translate(52.59 258.004)" fill="#ebebeb"/>
        <rect id="Rectángulo_30010" data-name="Rectángulo 30010" width="6.346" height="0.224" transform="translate(104.818 258.004)" fill="#ebebeb"/>
        <rect id="Rectángulo_30011" data-name="Rectángulo 30011" width="93.911" height="0.224" transform="translate(131.795 261.786)" fill="#ebebeb"/>
        <path id="Trazado_122872" data-name="Trazado 122872" d="M74.562,250.87h156v6.686H69.58Z" transform="translate(0.172 -118.35)" fill="#e6e6e6"/>
        <path id="Trazado_122873" data-name="Trazado 122873" d="M61.022,250.87H219.733l-4.982,6.686H56.03Z" transform="translate(0.138 -118.35)" fill="#f0f0f0"/>
        <rect id="Rectángulo_30017" data-name="Rectángulo 30017" width="123.615" height="1.739" transform="translate(302.114)" fill="#e0e0e0"/>
        <rect id="Rectángulo_30018" data-name="Rectángulo 30018" width="123.615" height="1.739" transform="translate(302.114 47.776)" fill="#e0e0e0"/>
        <path id="Trazado_122883" data-name="Trazado 122883" d="M361.094,359.131,359.36,158.25h7.348l-1.734,200.881Z" transform="translate(0.888 -108.736)" fill="#ebebeb"/>
        <path id="Trazado_122884" data-name="Trazado 122884" d="M308.64,359.131,374.633,158.25h7.358L312.52,359.131Z" transform="translate(0.762 -108.736)" fill="#ebebeb"/>
        <path id="Trazado_122885" data-name="Trazado 122885" d="M417.6,359.131,351.608,158.25H344.25l69.471,200.881Z" transform="translate(0.85 -108.736)" fill="#ebebeb"/>
        <rect id="Rectángulo_30019" data-name="Rectángulo 30019" width="7.108" height="84.045" transform="translate(88.538 253.828) rotate(180)" fill="#e6e6e6"/>
        <rect id="Rectángulo_30020" data-name="Rectángulo 30020" width="4.942" height="84.045" transform="translate(84.117 253.828) rotate(180)" fill="#f0f0f0"/>
        <rect id="Rectángulo_30021" data-name="Rectángulo 30021" width="157.217" height="11.713" transform="translate(77.571 165.867)" fill="#f0f0f0"/>
        <rect id="Rectángulo_30022" data-name="Rectángulo 30022" width="7.108" height="72.331" transform="translate(237.846 249.92) rotate(180)" fill="#e6e6e6"/>
        <rect id="Rectángulo_30023" data-name="Rectángulo 30023" width="4.942" height="72.331" transform="translate(233.435 249.92) rotate(180)" fill="#f0f0f0"/>
        <rect id="Rectángulo_30024" data-name="Rectángulo 30024" width="7.108" height="72.331" transform="translate(288.461 249.92) rotate(180)" fill="#e6e6e6"/>
        <rect id="Rectángulo_30025" data-name="Rectángulo 30025" width="4.942" height="72.331" transform="translate(284.05 249.92) rotate(180)" fill="#f0f0f0"/>
        <rect id="Rectángulo_30026" data-name="Rectángulo 30026" width="7.108" height="72.331" transform="translate(133.539 249.92) rotate(180)" fill="#e6e6e6"/>
        <rect id="Rectángulo_30027" data-name="Rectángulo 30027" width="4.942" height="72.331" transform="translate(129.118 249.92) rotate(180)" fill="#f0f0f0"/>
        <rect id="Rectángulo_30028" data-name="Rectángulo 30028" width="55.296" height="11.713" transform="translate(290.075 177.589) rotate(180)" fill="#e6e6e6"/>
        <rect id="Rectángulo_30029" data-name="Rectángulo 30029" width="68.138" height="8.747" transform="translate(133.539 157.12)" fill="#ebebeb"/>
        <rect id="Rectángulo_30030" data-name="Rectángulo 30030" width="33.362" height="8.747" transform="translate(235.039 165.876) rotate(180)" fill="#e0e0e0"/>
        <rect id="Rectángulo_30031" data-name="Rectángulo 30031" width="18.887" height="2.473" rx="1.237" transform="translate(227.801 161.502) rotate(180)" fill="#f5f5f5"/>
        <rect id="Rectángulo_30032" data-name="Rectángulo 30032" width="13.724" height="6.282" transform="translate(156.345 150.838)" fill="#f5f5f5"/>
        <rect id="Rectángulo_30033" data-name="Rectángulo 30033" width="0.992" height="2.626" transform="translate(162.711 148.212)" fill="#e6e6e6"/>
        <rect id="Rectángulo_30034" data-name="Rectángulo 30034" width="0.992" height="1.308" transform="translate(181.317 151.931)" fill="#e6e6e6"/>
        <rect id="Rectángulo_30035" data-name="Rectángulo 30035" width="16.711" height="3.881" transform="translate(173.457 153.239)" fill="#f0f0f0"/>
      </g>
      <g id="freepik--Character--inject-12" transform="translate(196.058 15.605)">
        <path id="Trazado_122922" data-name="Trazado 122922" d="M368.023,167.63c2.807,4.167,5.343,8.326,7.759,12.636a126.082,126.082,0,0,1,6.526,13.371c.241.583.471,1.174.682,1.792l.331.9.17.448.12.358a1.958,1.958,0,0,0,.13.457,9.477,9.477,0,0,1-.561,5.771,25.293,25.293,0,0,1-4.662,7.17A65.924,65.924,0,0,1,366.7,220.837l-3.779-3.5a110.969,110.969,0,0,0,8.6-11.14,28.411,28.411,0,0,0,1.6-2.787,12.207,12.207,0,0,0,1-2.545c.19-.735.1-1.317,0-1.192h0v-.063l-.18-.376-.341-.762c-.231-.5-.471-1.013-.732-1.524-2-4.078-4.371-8.173-6.8-12.233s-5.012-8.146-7.478-12.117Z" transform="translate(-167.118 -123.314)" fill="#ffbe9d"/>
        <path id="Trazado_122923" data-name="Trazado 122923" d="M364.354,221.35l-5.7,4.481,7.94,4.481s2.336-3.388,2.236-6.524Z" transform="translate(-167.118 -128.891)" fill="#f6af8c"/>
        <path id="Trazado_122924" data-name="Trazado 122924" d="M356.57,233.057l6.075,3.5,3.95-5.691-7.94-4.481Z" transform="translate(-167.123 -129.413)" fill="#f6af8c"/>
        <path id="Trazado_122925" data-name="Trazado 122925" d="M334.693,134.967c-.11.511-.511.9-.882.816a.827.827,0,0,1-.481-1.049c.11-.511.511-.9.882-.816A.827.827,0,0,1,334.693,134.967Z" transform="translate(-167.181 -119.813)" fill="#263238"/>
        <path id="Trazado_122926" data-name="Trazado 122926" d="M334.249,136.08a19.147,19.147,0,0,1-3.7,3.907,3.576,3.576,0,0,0,2.647.941Z" transform="translate(-167.187 -120.039)" fill="#f6af8c"/>
        <path id="Trazado_122927" data-name="Trazado 122927" d="M337.407,132.143a.353.353,0,0,0,.23-.081.29.29,0,0,0,0-.439,3.594,3.594,0,0,0-2.937-.986.337.337,0,0,0-.218.123.271.271,0,0,0-.052.226.338.338,0,0,0,.391.251h0a2.9,2.9,0,0,1,2.316.807A.384.384,0,0,0,337.407,132.143Z" transform="translate(-167.178 -119.471)" fill="#263238"/>
        <path id="Trazado_122928" data-name="Trazado 122928" d="M348.44,142c-1,4.741-2.075,13.443,1.634,16.588,0,0-1.454,4.8-11.3,4.8-10.837,0-4.762-4.069-4.762-4.069,4.591-3.585,5.744-7.295,4.722-10.969Z" transform="translate(-167.183 -120.653)" fill="#f6af8c"/>
        <path id="Trazado_122929" data-name="Trazado 122929" d="M351.285,161.582c.551-1.792,1.153-3.818-.591-4.293-1.915-.52-12.1-.358-15.458,1.21a3.857,3.857,0,0,0-2,4.974Z" transform="translate(-167.182 -122.213)" fill="#263238"/>
        <path id="Trazado_122930" data-name="Trazado 122930" d="M386.325,405.531a2.568,2.568,0,0,1-1.8-.09.589.589,0,0,1-.16-.717.73.73,0,0,1,.441-.448c1-.421,3.228.4,3.318.439a.146.146,0,0,1,0,.278,9.644,9.644,0,0,1-1.794.538Zm-1.183-1.04-.2.063a.442.442,0,0,0-.261.26c-.09.278,0,.367.06.394.391.3,1.845,0,2.857-.341a6.122,6.122,0,0,0-2.456-.376Z" transform="translate(-167.055 -147.868)" fill="#8ec8c8"/>
        <path id="Trazado_122931" data-name="Trazado 122931" d="M388.087,404.8h-.08c-.822-.215-2.576-1.326-2.6-2.061a.518.518,0,0,1,.441-.493,1.021,1.021,0,0,1,.762.054c1,.439,1.574,2.231,1.6,2.312a.13.13,0,0,1-.016.122A.163.163,0,0,1,388.087,404.8Zm-2-2.285H386c-.21.063-.21.161-.21.2,0,.439,1.173,1.308,2,1.667a3.771,3.771,0,0,0-1.323-1.792.662.662,0,0,0-.471-.072Z" transform="translate(-167.052 -147.664)" fill="#8ec8c8"/>
        <path id="Trazado_122932" data-name="Trazado 122932" d="M333.006,409.049a3.113,3.113,0,0,1-2.125-.493.517.517,0,0,1,0-.663.83.83,0,0,1,.541-.358c1.213-.3,3.739.995,3.849,1.049a.155.155,0,0,1,.08.161.161.161,0,0,1-.13.125A14.538,14.538,0,0,1,333.006,409.049Zm-1.153-1.255a1.288,1.288,0,0,0-.331,0,.471.471,0,0,0-.331.215c-.12.188-.08.278,0,.332.341.421,2.175.43,3.519.26a8.469,8.469,0,0,0-2.827-.807Z" transform="translate(-167.187 -148.214)" fill="#8ec8c8"/>
        <path id="Trazado_122933" data-name="Trazado 122933" d="M335.216,408.662h-.07c-.872-.35-2.606-1.748-2.476-2.482,0-.17.17-.385.642-.43a1.387,1.387,0,0,1,.952.269,4.066,4.066,0,0,1,1.123,2.491.146.146,0,0,1-.07.143.189.189,0,0,1-.1.009Zm-1.764-2.626h-.1c-.311,0-.331.143-.341.179-.08.439,1.1,1.541,2,2.016a3.421,3.421,0,0,0-1-2,.952.952,0,0,0-.561-.17Z" transform="translate(-167.182 -148.033)" fill="#8ec8c8"/>
        <path id="Trazado_122934" data-name="Trazado 122934" d="M343.18,407.122h-7.248l-.722-15h7.248Z" transform="translate(-167.176 -146.618)" fill="#ff8b7b"/>
        <path id="Trazado_122935" data-name="Trazado 122935" d="M396.175,401.562l-7.087,1.371-7.107-13.972,7.087-1.371Z" transform="translate(-167.06 -146.148)" fill="#ff8b7b"/>
        <path id="Trazado_122936" data-name="Trazado 122936" d="M388.425,403.821l7.95-1.532a.655.655,0,0,1,.712.314l2.757,5.377a.86.86,0,0,1-.022.828,1.057,1.057,0,0,1-.74.5c-2.787.493-4.17.609-7.669,1.282-2.155.421-7.017,1.479-10.025,2.052s-4.01-1.981-2.837-2.447c5.193-2.124,7.368-4,8.772-5.736a1.856,1.856,0,0,1,1.1-.636Z" transform="translate(-167.07 -147.672)" fill="#263238"/>
        <path id="Trazado_122937" data-name="Trazado 122937" d="M336.034,408h7.91a.621.621,0,0,1,.622.439L346,414.2a.865.865,0,0,1-.193.792,1.1,1.1,0,0,1-.81.364c-2.857-.045-7.017-.2-10.566-.2-4.2,0-4.13.206-9.022.206-3.007,0-3.8-2.689-2.556-2.931,5.664-1.111,6.6-1.228,11.5-3.934A3.7,3.7,0,0,1,336.034,408Z" transform="translate(-167.208 -148.267)" fill="#263238"/>
        <path id="Trazado_122938" data-name="Trazado 122938" d="M328.683,175.182c-2.767,4.58-5.674,8.962-8.792,13.3a140.48,140.48,0,0,1-10.2,12.735c-.461.52-1,1.031-1.484,1.541l-.752.78-.892.816c-.591.538-1.133.968-1.714,1.443L303.17,207.1c-2.245,1.694-4.511,3.271-6.8,4.822-4.581,3.092-9.263,6-14.1,8.747l-3.418-3.791c3.95-3.585,8.02-7.17,12.03-10.692,2-1.792,4.01-3.513,5.895-5.261.932-.9,1.875-1.792,2.657-2.572l.541-.583.591-.69c.391-.475.792-.9,1.173-1.416,3.118-3.889,6.015-8.111,8.922-12.358s5.7-8.585,8.441-12.86Z" transform="translate(-167.315 -123.607)" fill="#ffbe9d"/>
        <path id="Trazado_122939" data-name="Trazado 122939" d="M365.223,162.127c6.817,1.4,14.776,23.166,14.776,23.166l-11.619,6.793a186.146,186.146,0,0,1-11.228-17.377C353.124,167.164,358.276,160.711,365.223,162.127Z" transform="translate(-167.125 -122.722)" fill="#8ec8c8"/>
        <g id="Grupo_55301" data-name="Grupo 55301" transform="translate(188.611 39.209)" opacity="0.7">
          <path id="Trazado_122940" data-name="Trazado 122940" d="M365.223,162.127c6.817,1.4,14.776,23.166,14.776,23.166l-11.619,6.793a186.146,186.146,0,0,1-11.228-17.377C353.124,167.164,358.276,160.711,365.223,162.127Z" transform="translate(-355.736 -161.931)" fill="#f5ca56"/>
        </g>
        <path id="Trazado_122941" data-name="Trazado 122941" d="M361.358,174.6c-.591-.69-2.205.9-3.418,2.895,1.684,2.975,3.809,6.273,5.694,9.087C364.807,181.143,362.892,176.349,361.358,174.6Z" transform="translate(-167.12 -124.02)" fill="#8ec8c8" opacity="0.5"/>
        <path id="Trazado_122942" data-name="Trazado 122942" d="M324.709,162.3s-7.709,7.788-.431,55.985h38.755c.271-5.314-3.469-31.259,2.276-56.326a112.086,112.086,0,0,0-12.982-1.461,157.662,157.662,0,0,0-16.471,0A80.125,80.125,0,0,0,324.709,162.3Z" transform="translate(-167.211 -122.551)" fill="#8ec8c8"/>
        <path id="Trazado_122943" data-name="Trazado 122943" d="M324.709,162.3s-7.709,7.788-.431,55.985h38.755c.271-5.314-3.469-31.259,2.276-56.326a112.086,112.086,0,0,0-12.982-1.461,157.662,157.662,0,0,0-16.471,0A80.125,80.125,0,0,0,324.709,162.3Z" transform="translate(-167.211 -122.551)" fill="#f5ca56" opacity="0.7"/>
        <path id="Trazado_122944" data-name="Trazado 122944" d="M321.431,177.32a125.014,125.014,0,0,0,0,17.3c4.932-2.832,9.463-10.369,9.022-15.352Z" transform="translate(-167.211 -124.32)" fill="#8ec8c8" opacity="0.5"/>
        <path id="Trazado_122945" data-name="Trazado 122945" d="M178.006,163.022l-1.173,1.7-9.243-5.745.6-.86Z" transform="translate(-167.59 -122.327)" fill="#8ec8c8"/>
        <path id="Trazado_122947" data-name="Trazado 122947" d="M177.963,163.64l-1.123,1.613,91.646,54.04,4.411-6.363Z" transform="translate(-167.567 -122.9)" fill="#fff" opacity="0.2"/>
        <path id="Trazado_122948" data-name="Trazado 122948" d="M177.581,164.24l-.371.538,92.749,52.454,1.464-2.124Z" transform="translate(-167.566 -122.962)" fill="#263238"/>
        <path id="Trazado_122949" data-name="Trazado 122949" d="M275.363,236.5a5.8,5.8,0,0,1-2.8-.708l.652-.9a4.615,4.615,0,0,0,3.418.367,4.875,4.875,0,0,0,3.749-5.377,3.725,3.725,0,0,0-1.895-2.563l-8.351-4.633.652-.941,8.351,4.633a4.843,4.843,0,0,1,2.466,3.307,5.991,5.991,0,0,1-4.591,6.623A6.308,6.308,0,0,1,275.363,236.5Z" transform="translate(-167.337 -128.932)" fill="#263238"/>
        <path id="Trazado_122950" data-name="Trazado 122950" d="M335.377,166.805c3.809,8.254-19.247,28.866-19.247,28.866L304.2,187.606s8.25-10.808,11.649-18.229C320.039,160.236,332.47,160.523,335.377,166.805Z" transform="translate(-167.253 -122.758)" fill="#8ec8c8"/>
        <path id="Trazado_122951" data-name="Trazado 122951" d="M335.377,166.805c3.809,8.254-19.247,28.866-19.247,28.866L304.2,187.606s8.25-10.808,11.649-18.229C320.039,160.236,332.47,160.523,335.377,166.805Z" transform="translate(-167.253 -122.758)" fill="#f5ca56" opacity="0.7"/>
        <path id="Trazado_122952" data-name="Trazado 122952" d="M308.016,187.146c2.516,2.2,8.11,6.963,10.676,8.326a.719.719,0,0,1,.311.995c-.852,1.425-2.787,3.513-4.07,3.683-1.514.206-13.2-6.695-13.413-8.111-.13-.959,2.336-3.406,3.93-4.866a1.958,1.958,0,0,1,2.566-.027Z" transform="translate(-167.259 -125.291)" fill="#263238"/>
        <path id="Trazado_122953" data-name="Trazado 122953" d="M366.093,189.844c3.138-1.407,10.025-4.58,12.28-6.273a.915.915,0,0,1,1.153.072c1.233,1.183,2.807,3.5,2.576,4.633-.281,1.353-11.4,8.962-12.952,8.693-1.063-.2-2.837-3.083-3.87-4.9a1.476,1.476,0,0,1-.119-1.265A1.7,1.7,0,0,1,366.093,189.844Z" transform="translate(-167.102 -124.951)" fill="#263238"/>
        <path id="Trazado_122954" data-name="Trazado 122954" d="M281.228,220.59l-7.3,2.043,3.308,6.435s6.346-.753,7.6-5.377Z" transform="translate(-167.327 -128.812)" fill="#f6af8c"/>
        <path id="Trazado_122955" data-name="Trazado 122955" d="M270.62,226.293l2.657,4.257,3.97-1.246-3.308-6.435Z" transform="translate(-167.335 -129.048)" fill="#f6af8c"/>
        <path id="Trazado_122956" data-name="Trazado 122956" d="M335.21,392.12l.371,7.734h7.258l-.371-7.734Z" transform="translate(-167.176 -146.618)" opacity="0.2"/>
        <path id="Trazado_122957" data-name="Trazado 122957" d="M389.067,387.6l-7.087,1.371,3.669,7.2,7.087-1.371Z" transform="translate(-167.06 -146.149)" opacity="0.2"/>
        <path id="Trazado_122958" data-name="Trazado 122958" d="M354.053,136.286c-1.794,6.273-2.5,9.957-6.747,12.547-6.416,3.934-14.486-.457-14.806-7.035-.281-5.924,2.707-15.11,10.145-16.418a10.535,10.535,0,0,1,9.121,2.6A8.105,8.105,0,0,1,354.053,136.286Z" transform="translate(-167.183 -118.909)" fill="#ffbe9d"/>
        <path id="Trazado_122959" data-name="Trazado 122959" d="M337.749,137.054a4.872,4.872,0,0,1,1.2-6.2c-2.225-1.031-4.28-4.571-2.135-6.614-5.764-1.192-2.576-6.542,6.376-6.022s1.945,3.9,1.945,3.9,19.267,1.335,12.31,7.609c3.058,1.64,3.338,7.17-1,9.813-7.017,4.3-4.842,9.105-10.185,8.245C341.388,146.993,337.178,142.117,337.749,137.054Z" transform="translate(-167.179 -118.18)" fill="#263238"/>
        <path id="Trazado_122960" data-name="Trazado 122960" d="M340.494,137.9a5.144,5.144,0,0,1-2.637,3.513c-1.794.9-2.857.215-2.887-1.452,0-1.5.752-3.925,2.516-4.481A2.224,2.224,0,0,1,340.494,137.9Z" transform="translate(-167.177 -119.963)" fill="#f6af8c"/>
        <path id="Trazado_122961" data-name="Trazado 122961" d="M338,225s8.22,49.506,12.731,68.048c4.952,20.308,31.387,85.416,31.387,85.416l12.962-2.509s-19.789-60.941-22.606-81.06c-3.067-21.831-9.473-69.9-9.473-69.9Z" transform="translate(-167.169 -129.268)" fill="#263238"/>
        <path id="Trazado_122962" data-name="Trazado 122962" d="M378.54,390.144c-.06,0,2.777,5.521,2.777,5.521l14.6-2.823-1.594-5.252Z" transform="translate(-167.069 -146.148)" fill="#8ec8c8"/>
        <path id="Trazado_122963" data-name="Trazado 122963" d="M378.54,390.144c-.06,0,2.777,5.521,2.777,5.521l14.6-2.823-1.594-5.252Z" transform="translate(-167.069 -146.148)" fill="#fff" opacity="0.7"/>
        <path id="Trazado_122964" data-name="Trazado 122964" d="M343.175,244.672c9.513,1.667,8.5,33.365,7.358,49.667-2.737-11.525-6.757-33.7-9.493-49.434A3.529,3.529,0,0,1,343.175,244.672Z" transform="translate(-167.162 -131.304)" opacity="0.3"/>
        <path id="Trazado_122965" data-name="Trazado 122965" d="M324.271,225s-1,48.394-.2,68.182c.812,20.55,8.842,87.827,8.842,87.827h12.28s.451-66.076,1-86.258c.591-21.992,3.569-69.75,3.569-69.75Z" transform="translate(-167.204 -129.269)" fill="#263238"/>
        <path id="Trazado_122966" data-name="Trazado 122966" d="M330.53,392.71l.7,5.9h14.927l.4-5.377Z" transform="translate(-167.188 -146.679)" fill="#8ec8c8"/>
        <path id="Trazado_122967" data-name="Trazado 122967" d="M330.53,392.71l.7,5.9h14.927l.4-5.377Z" transform="translate(-167.188 -146.679)" fill="#fff" opacity="0.7"/>
      </g>
      <g id="freepik--Floor--inject-72" transform="translate(104.704 283.007)">
        <path id="Trazado_122994" data-name="Trazado 122994" d="M463.236,468.788c0,.08-92.648.148-206.916.148s-206.941-.091-206.941-.148,92.629-.148,206.941-.148S463.236,468.7,463.236,468.788Z" transform="translate(-49.38 -468.64)" fill="#263238"/>
      </g>
    </g>
  </g>
</svg>
