<svg xmlns="http://www.w3.org/2000/svg" width="84" height="84" viewBox="0 0 84 84">
  <g id="Grupo_55683" data-name="Grupo 55683" transform="translate(-275 -6459)">
    <path id="Trazado_127405" data-name="Trazado 127405" d="M42,0A42,42,0,1,1,0,42,42,42,0,0,1,42,0Z" transform="translate(275 6459)" fill="#f5ca56"/>
    <g id="tv" transform="translate(229.175 6319.39)">
      <g id="Grupo_55691" data-name="Grupo 55691" transform="translate(59.758 164.048)">
        <g id="Grupo_55690" data-name="Grupo 55690" transform="translate(0 0)">
          <path id="Trazado_127899" data-name="Trazado 127899" d="M399.25,344.134h-6.6a1.071,1.071,0,1,0,0,2.142h6.6a1.071,1.071,0,0,0,0-2.142Z" transform="translate(-344.188 -318.416)" fill="#690589"/>
          <path id="Trazado_127900" data-name="Trazado 127900" d="M399.25,377.643h-6.6a1.071,1.071,0,1,0,0,2.142h6.6a1.071,1.071,0,0,0,0-2.142Z" transform="translate(-344.188 -347.139)" fill="#690589"/>
          <path id="Trazado_127901" data-name="Trazado 127901" d="M120.858,250.546l.96-2.52h6.408l.95,2.517a1.071,1.071,0,1,0,2-.756L126.316,236.9l-.012-.03a1.368,1.368,0,0,0-2.53,0l-.01.024-4.908,12.888a1.071,1.071,0,0,0,2,.762Zm4.178-10.971,2.381,6.309h-4.784Z" transform="translate(-110.356 -225.743)" fill="#690589"/>
          <path id="Trazado_127902" data-name="Trazado 127902" d="M231.472,250.924a1.132,1.132,0,0,0,1.1,1.277h0c.108,0,2.667-.01,3.687-.028a5.694,5.694,0,0,0,4.495-2.286,8.4,8.4,0,0,0,1.576-5.1c0-4.434-2.489-7.414-6.194-7.414h-3.593a1.071,1.071,0,0,0-1.071,1.073v.011h0Zm4.664-11.408c2.987,0,4.052,2.723,4.052,5.272,0,3.047-1.631,5.2-3.965,5.244-.589.01-1.733.018-2.586.023-.005-1.47-.018-9.015-.02-10.538h2.52Z" transform="translate(-206.949 -226.902)" fill="#690589"/>
          <path id="Trazado_127904" data-name="Trazado 127904" d="M70.79,199.172H99.2a4.371,4.371,0,0,0,4.366-4.366V168.414a4.371,4.371,0,0,0-4.366-4.366H64.124a4.371,4.371,0,0,0-4.366,4.366v26.392a4.371,4.371,0,0,0,4.366,4.366h1.658a1.071,1.071,0,1,0,0-2.142H64.124a2.227,2.227,0,0,1-2.224-2.224V168.414a2.227,2.227,0,0,1,2.224-2.224H99.2a2.227,2.227,0,0,1,2.224,2.224v26.392A2.227,2.227,0,0,1,99.2,197.03H70.79a1.071,1.071,0,0,0,0,2.142Z" transform="translate(-59.758 -164.048)" fill="#690589"/>
          <path id="Trazado_127905" data-name="Trazado 127905" d="M395.949,178.057a4.373,4.373,0,1,0,4.373,4.373A4.378,4.378,0,0,0,395.949,178.057Zm0,6.6a2.231,2.231,0,1,1,2.231-2.231A2.233,2.233,0,0,1,395.949,184.66Z" transform="translate(-344.188 -176.056)" fill="#690589"/>
          <path id="Trazado_127906" data-name="Trazado 127906" d="M395.949,253.354a4.373,4.373,0,1,0,4.373,4.373A4.378,4.378,0,0,0,395.949,253.354Zm0,6.6a2.231,2.231,0,1,1,2.231-2.231A2.233,2.233,0,0,1,395.949,259.957Z" transform="translate(-344.188 -240.6)" fill="#690589"/>
        </g>
      </g>
    </g>
  </g>
</svg>
