<svg xmlns="http://www.w3.org/2000/svg" width="84" height="84" viewBox="0 0 84 84">
  <g id="Grupo_55624" data-name="Grupo 55624" transform="translate(-350.303 -4833)">
    <circle id="Elipse_4272" data-name="Elipse 4272" cx="42" cy="42" r="42" transform="translate(350.303 4833)" fill="#7d6eb2"/>
    <g id="analytics_1_" data-name="analytics (1)" transform="translate(366.303 4849)">
      <g id="Grupo_55591" data-name="Grupo 55591" transform="translate(0 0)">
        <g id="Grupo_55590" data-name="Grupo 55590">
          <path id="Trazado_127389" data-name="Trazado 127389" d="M51.7,21.5H45.11a1.03,1.03,0,0,0-1.03,1.03v5.2a1.03,1.03,0,0,0,2.06,0V23.559h4.532V50.671H46.14V35.454a1.03,1.03,0,1,0-2.06,0V50.671H42.02V29.352a1.03,1.03,0,0,0-1.03-1.03H34.4a1.03,1.03,0,0,0-1.03,1.03V50.671h-2.06V36.562a1.03,1.03,0,0,0-1.03-1.03H23.688a1.03,1.03,0,0,0-1.03,1.03v14.11H20.6v-8.2a1.03,1.03,0,0,0-1.03-1.03H12.977a1.03,1.03,0,0,0-1.03,1.03v8.2H3.09a1.031,1.031,0,0,1-1.03-1.03V3.09A1.031,1.031,0,0,1,3.09,2.06H29.659v6.8a3.093,3.093,0,0,0,3.09,3.09h6.8V24.615a1.03,1.03,0,1,0,2.06,0v-13.7a1.03,1.03,0,0,0-.3-.728L31.417.3a1.03,1.03,0,0,0-.728-.3H3.09A3.093,3.093,0,0,0,0,3.09V49.641a3.093,3.093,0,0,0,3.09,3.09H51.7a1.03,1.03,0,0,0,1.03-1.03V22.529A1.03,1.03,0,0,0,51.7,21.5ZM31.718,3.516l6.371,6.371H32.748a1.031,1.031,0,0,1-1.03-1.03ZM18.538,50.671H14.007V43.5h4.532Zm10.711,0H24.718V37.591h4.532Zm10.711,0H35.429V30.382H39.96Z" transform="translate(0 0)" fill="#fff"/>
        </g>
      </g>
      <g id="Grupo_55593" data-name="Grupo 55593" transform="translate(44.08 30.371)">
        <g id="Grupo_55592" data-name="Grupo 55592">
          <path id="Trazado_127390" data-name="Trazado 127390" d="M429.758,295.192a1.029,1.029,0,1,0,.3.728A1.034,1.034,0,0,0,429.758,295.192Z" transform="translate(-428 -294.89)" fill="#fff"/>
        </g>
      </g>
      <g id="Grupo_55595" data-name="Grupo 55595" transform="translate(5.52 5.637)">
        <g id="Grupo_55594" data-name="Grupo 55594">
          <path id="Trazado_127391" data-name="Trazado 127391" d="M63.075,54.729a1.03,1.03,0,0,0-1.03,1.03v1.853A9.473,9.473,0,1,0,72.491,68.058h1.853a1.03,1.03,0,0,0,1.03-1.03A12.313,12.313,0,0,0,63.075,54.729Zm0,19.712a7.413,7.413,0,0,1-1.03-14.754v7.341a1.03,1.03,0,0,0,1.03,1.03h7.341A7.424,7.424,0,0,1,63.075,74.441ZM64.1,66h0V56.84A10.259,10.259,0,0,1,73.263,66Z" transform="translate(-53.602 -54.729)" fill="#fff"/>
        </g>
      </g>
      <g id="Grupo_55597" data-name="Grupo 55597" transform="translate(5.561 30.305)">
        <g id="Grupo_55596" data-name="Grupo 55596">
          <path id="Trazado_127392" data-name="Trazado 127392" d="M74.7,294.25H55.03a1.03,1.03,0,0,0,0,2.06H74.7a1.03,1.03,0,0,0,0-2.06Z" transform="translate(-54 -294.25)" fill="#fff"/>
        </g>
      </g>
      <g id="Grupo_55599" data-name="Grupo 55599" transform="translate(5.561 35.274)">
        <g id="Grupo_55598" data-name="Grupo 55598">
          <path id="Trazado_127393" data-name="Trazado 127393" d="M61.621,342.5H55.03a1.03,1.03,0,0,0,0,2.06h6.591a1.03,1.03,0,0,0,0-2.06Z" transform="translate(-54 -342.5)" fill="#fff"/>
        </g>
      </g>
      <g id="Grupo_55601" data-name="Grupo 55601" transform="translate(17.311 35.274)">
        <g id="Grupo_55600" data-name="Grupo 55600">
          <path id="Trazado_127394" data-name="Trazado 127394" d="M169.838,342.8a1.029,1.029,0,1,0,.3.728A1.038,1.038,0,0,0,169.838,342.8Z" transform="translate(-168.08 -342.5)" fill="#fff"/>
        </g>
      </g>
    </g>
  </g>
</svg>
