<svg xmlns="http://www.w3.org/2000/svg" width="64" height="64" viewBox="0 0 64 64">
  <g id="google-cloud-search" transform="translate(2 2)">
    <g id="Grupo_55516" data-name="Grupo 55516">
      <g id="Grupo_55515" data-name="Grupo 55515">
        <g id="Grupo_55514" data-name="Grupo 55514">
          <g id="Grupo_55513" data-name="Grupo 55513">
            <g id="Grupo_55512" data-name="Grupo 55512">
              <g id="Grupo_55511" data-name="Grupo 55511">
                <circle id="Elipse_4269" data-name="Elipse 4269" cx="30" cy="30" r="30" fill="#fff" stroke="#f5ca56" stroke-width="4"/>
              </g>
            </g>
          </g>
        </g>
      </g>
      <g id="Page-1" transform="translate(12 13)">
        <g id="_060---Search" data-name="060---Search">
          <path id="Shape" d="M35,1.654V13.1A10.462,10.462,0,0,0,18.524,24.54H1.654A.654.654,0,0,1,1,23.886V1.654A.654.654,0,0,1,1.654,1H34.349A.654.654,0,0,1,35,1.654Z" transform="translate(-0.346 -0.346)" fill="#f5f5f5"/>
          <path id="Shape-2" data-name="Shape" d="M35.451,16.049c-.327-.031-.654-.049-.989-.049a10.462,10.462,0,0,0-9.939,13.732h1.962a10.462,10.462,0,0,1,8.967-13.683Z" transform="translate(-8.306 -5.538)" fill="#cfd8dc"/>
          <path id="Shape-3" data-name="Shape" d="M50.962,1H49a.654.654,0,0,1,.654.654V11.868A10.426,10.426,0,0,1,51.616,13.1V1.654A.654.654,0,0,0,50.962,1Z" transform="translate(-16.959 -0.346)" fill="#cfd8dc"/>
          <path id="Shape-4" data-name="Shape" d="M47.924,26.462A10.462,10.462,0,1,1,44,18.3a10.462,10.462,0,0,1,3.923,8.167Z" transform="translate(-9.344 -5.538)" fill="#8ec8c8"/>
          <path id="Shape-5" data-name="Shape" d="M49.02,18.3A10.409,10.409,0,0,0,42.481,16c-.327,0-.654.02-.972.049A10.462,10.462,0,0,1,41.5,36.875c.327.03.65.05.981.05A10.462,10.462,0,0,0,49.02,18.3Z" transform="translate(-14.363 -5.538)" fill="#26aab7"/>
          <path id="Shape-6" data-name="Shape" d="M28.339,43.831,20.466,51.7a2.617,2.617,0,0,1-3.7-3.7l2.779-2.773,2.308-2.315,2.786-2.786" transform="translate(-5.538 -13.889)" fill="#167377"/>
          <path id="Shape-7" data-name="Shape" d="M28.2,44.33l-8.828,8.828a2.6,2.6,0,0,1-.868.575,2.616,2.616,0,0,0,2.829-.575l7.873-7.873" transform="translate(-6.404 -15.343)" fill="#26aab7"/>
          <path id="Shape-8" data-name="Shape" d="M5.654,18.074a.654.654,0,0,1-.462-1.116L9.769,12.38a.654.654,0,0,1,.925,0l2.153,2.153,4.769-4.769a.654.654,0,0,1,.925,0l2.153,2.153L26.116,6.5a.654.654,0,0,1,.925,0l2.153,2.153,3.461-3.461a.654.654,0,1,1,.925.925l-3.923,3.923a.654.654,0,0,1-.925,0L26.579,7.882,21.156,13.3a.654.654,0,0,1-.925,0l-2.153-2.153L13.309,15.92a.654.654,0,0,1-.925,0l-2.153-2.153L6.116,17.882a.654.654,0,0,1-.462.192Z" transform="translate(-1.731 -1.726)" fill="#c1507f"/>
          <path id="Shape-9" data-name="Shape" d="M31.654,28.646A.654.654,0,0,1,31,27.992a7.868,7.868,0,0,1,5.708-7.548.654.654,0,1,1,.354,1.259,6.554,6.554,0,0,0-4.754,6.289A.654.654,0,0,1,31.654,28.646Z" transform="translate(-10.729 -7.067)" fill="#f5f5f5"/>
          <g id="Grupo_55626" data-name="Grupo 55626">
            <path id="Shape-10" data-name="Shape" d="M0,27.694A1.308,1.308,0,0,0,1.308,29H15.694a.654.654,0,1,0,0-1.308H1.308V12.654a.654.654,0,1,0-1.308,0Z" transform="translate(0 -4.153)"/>
            <path id="Shape-11" data-name="Shape" d="M0,5.231a.654.654,0,1,0,1.308,0V1.308H34v8.5a.654.654,0,1,0,1.308,0v-8.5A1.308,1.308,0,0,0,34,0H1.308A1.308,1.308,0,0,0,0,1.308Z"/>
            <path id="Shape-12" data-name="Shape" d="M33.309,15a11.106,11.106,0,0,0-9.821,16.311l-2.444,2.445a.654.654,0,1,0,.925.927l2.223-2.223a11.2,11.2,0,0,0,2.774,2.775l-7.309,7.31a1.963,1.963,0,0,1-2.777-2.776L19.66,37a.654.654,0,0,0-.923-.926l-2.783,2.776a3.272,3.272,0,0,0,4.629,4.624l7.532-7.534A11.116,11.116,0,1,0,33.309,15Zm0,20.925a9.808,9.808,0,1,1,9.808-9.808A9.808,9.808,0,0,1,33.309,35.925Z" transform="translate(-5.191 -5.192)"/>
          </g>
        </g>
      </g>
    </g>
  </g>
</svg>
