<svg xmlns="http://www.w3.org/2000/svg" width="49" height="49" viewBox="0 0 49 49">
  <g id="viral" transform="translate(0)">
    <g id="Grupo_55734" data-name="Grupo 55734" transform="translate(0 0)">
      <path id="Trazado_128033" data-name="Trazado 128033" d="M40.669,25.218h2.145a3.135,3.135,0,1,0,0-1.436H40.669a16.124,16.124,0,0,0-4.233-10.2l3.63-3.63a5.56,5.56,0,1,0-1.015-1.015l-3.63,3.63a16.124,16.124,0,0,0-10.2-4.233V6.185a3.135,3.135,0,1,0-1.436,0V8.33a16.132,16.132,0,0,0-4.42.817.718.718,0,0,0,.455,1.361A14.762,14.762,0,1,1,16.9,11.856a.718.718,0,1,0-.741-1.23,16.236,16.236,0,0,0-2.584,1.934L9.949,8.934A5.561,5.561,0,1,0,8.934,9.949l3.626,3.625A16.108,16.108,0,0,0,8.332,23.782H6.185a3.135,3.135,0,1,0,0,1.436H8.331a16.124,16.124,0,0,0,4.233,10.2l-3.63,3.63a5.56,5.56,0,1,0,1.015,1.015l3.63-3.63a16.124,16.124,0,0,0,10.2,4.233v2.145a3.135,3.135,0,1,0,1.436,0V40.669a16.124,16.124,0,0,0,10.2-4.233l3.63,3.63a5.561,5.561,0,1,0,1.015-1.015l-3.63-3.63A16.124,16.124,0,0,0,40.669,25.218ZM43.448,1.436a4.116,4.116,0,1,1-4.116,4.116A4.121,4.121,0,0,1,43.448,1.436ZM22.8,3.135a1.7,1.7,0,1,1,1.7,1.7A1.7,1.7,0,0,1,22.8,3.135ZM45.865,22.8a1.7,1.7,0,1,1-1.7,1.7A1.7,1.7,0,0,1,45.865,22.8ZM1.436,5.552A4.116,4.116,0,1,1,5.552,9.668,4.121,4.121,0,0,1,1.436,5.552ZM3.135,26.2a1.7,1.7,0,1,1,1.7-1.7A1.7,1.7,0,0,1,3.135,26.2ZM5.552,47.564a4.116,4.116,0,1,1,4.116-4.116,4.121,4.121,0,0,1-4.116,4.116Zm20.648-1.7a1.7,1.7,0,1,1-1.7-1.7A1.7,1.7,0,0,1,26.2,45.865Zm21.365-2.417a4.116,4.116,0,1,1-4.116-4.116A4.121,4.121,0,0,1,47.564,43.448Z" transform="translate(0 0)" fill="#7d6eb2"/>
      <path id="Trazado_128034" data-name="Trazado 128034" d="M165.283,156.069a1.673,1.673,0,0,0,.1-1.285l-1.5-4.6a1.686,1.686,0,0,0-2.124-1.079l-.788.257-.977-2.994a.718.718,0,0,0-1.109-.354l-9.736,7.206-3.566,1.163a.718.718,0,0,0-.46.9l2.1,6.434a.718.718,0,0,0,.9.46l1.26-.411,2.437,4.675a.717.717,0,0,0,.859.351l2.757-.9a.718.718,0,0,0,.414-1.014l-2.007-3.851,4.178.027h0a.718.718,0,0,0,0-1.436l-5.932-.038-1.778-5.45,8.613-6.375.89,2.729h0l2.1,6.432h0l.89,2.729-1.425-.009a.718.718,0,0,0-.009,1.436l2.421.015h0a.718.718,0,0,0,.682-.94l-.977-2.994.788-.257a1.674,1.674,0,0,0,.979-.839Zm-11.092,8.73-1.374.448-2.046-3.924.922-.3.53,0Zm-3.514-4.955-2.312.754-1.654-5.069,2.312-.754ZM164,155.419a.248.248,0,0,1-.145.124l-.788.257-1.654-5.069.788-.257a.249.249,0,0,1,.314.16l1.5,4.6A.248.248,0,0,1,164,155.419Z" transform="translate(-131.203 -131.916)" fill="#7d6eb2"/>
    </g>
  </g>
</svg>
