<svg xmlns="http://www.w3.org/2000/svg" width="669.26" height="453.588" viewBox="0 0 669.26 453.588">
  <g id="planner-pana" transform="translate(-42.61 -18.797)">
    <g id="freepik--background-complete--inject-2">
      <path id="Trazado_122121" data-name="Trazado 122121" d="M201.75,309a4.12,4.12,0,0,0,1.8-1.21,3.81,3.81,0,0,0,.88-2.43,5.8,5.8,0,0,0-.29-1.66c-.15-.59-.31-1.23-.47-1.9-1.35-5.41-3.27-13.19-5.65-22.77l-1.85-7.55q-.48-2-1-4a11.45,11.45,0,0,0-.57-2,3.51,3.51,0,0,0-1.32-1.46,3.31,3.31,0,0,0-1.92-.47,17.29,17.29,0,0,0-2.13.48l-4.43,1.16-9.27,2.4-41.25,10.66a3.48,3.48,0,0,0-2.48,3.93c.44,1.81.87,3.6,1.29,5.39.87,3.57,1.72,7.1,2.56,10.56q2.5,10.395,4.82,20c.19.8.39,1.59.57,2.37a3.65,3.65,0,0,0,1,1.93,3.34,3.34,0,0,0,1.92.92,5.73,5.73,0,0,0,2.18-.34l8.75-2.23,15.7-4,22.8-5.78,6.19-1.52,1.62-.38.55-.11a3.647,3.647,0,0,1-.54.18l-1.59.45-6.16,1.66-22.69,6-15.68,4.09-8.74,2.27a6.48,6.48,0,0,1-2.42.36,4,4,0,0,1-2.3-1.08,4.46,4.46,0,0,1-1.22-2.25c-.19-.79-.38-1.58-.58-2.37-1.55-6.37-3.17-13-4.86-20l-2.57-10.56q-.65-2.7-1.3-5.44a4.19,4.19,0,0,1,3-4.75l41.27-10.61,9.27-2.37,4.44-1.14a18,18,0,0,1,2.24-.5,4,4,0,0,1,2.28.58,4.16,4.16,0,0,1,1.54,1.71,13.159,13.159,0,0,1,.6,2.1q.5,2.06,1,4c.63,2.63,1.24,5.16,1.81,7.57,2.28,9.61,4.13,17.4,5.42,22.82l.45,1.91a6.32,6.32,0,0,1,.26,1.73,4,4,0,0,1-1,2.52,3.77,3.77,0,0,1-1.37,1,1.919,1.919,0,0,1-.56.13Z" fill="#e0e0e0"/>
      <path id="Trazado_122122" data-name="Trazado 122122" d="M169.37,288.97l8.84,2.67-6.63,6.6-6.63,6.6-2.21-9.27-2.22-9.27Z" fill="#e0e0e0"/>
      <rect id="Rectángulo_29977" data-name="Rectángulo 29977" width="89.81" height="71.8" transform="translate(596.156 316.481) rotate(-9.93)" fill="#ebebeb"/>
      <rect id="Rectángulo_29978" data-name="Rectángulo 29978" width="83.5" height="62.76" transform="translate(599.991 320.398) rotate(-9.93)" fill="#f5f5f5"/>
      <path id="Trazado_122123" data-name="Trazado 122123" d="M610.81,382.24l22-43.46,22,20.93,9.82-14.97,28.43,23.1Z" fill="#e0e0e0"/>
      <path id="Trazado_122124" data-name="Trazado 122124" d="M657.33,329.64a6.57,6.57,0,1,1-2.7-4.254A6.57,6.57,0,0,1,657.33,329.64Z" fill="#e0e0e0"/>
      <rect id="Rectángulo_29979" data-name="Rectángulo 29979" width="48.29" height="60.4" transform="matrix(0.321, -0.947, 0.947, 0.321, 357.451, 378.709)" fill="#ebebeb"/>
      <rect id="Rectángulo_29980" data-name="Rectángulo 29980" width="42.21" height="56.15" transform="matrix(0.321, -0.947, 0.947, 0.321, 360.392, 376.505)" fill="#f5f5f5"/>
      <path id="Trazado_122125" data-name="Trazado 122125" d="M360.41,376.53l26.99-18.55,6.24,19.44,10.62-5.66,9.33,22.8Z" fill="#e0e0e0"/>
      <path id="Trazado_122126" data-name="Trazado 122126" d="M404.83,360.49a4.42,4.42,0,1,1-2.77-5.61A4.42,4.42,0,0,1,404.83,360.49Z" fill="#e0e0e0"/>
      <circle id="Elipse_4176" data-name="Elipse 4176" cx="40.24" cy="40.24" r="40.24" transform="translate(527.607 75.705) rotate(-45)" fill="#e0e0e0"/>
      <path id="Trazado_122127" data-name="Trazado 122127" d="M602.79,77a7,7,0,0,1-1.42.1l-3.91.08c-3.32,0-7.94.07-13.16.08H584V74.34c0-5.83,0-11.1.07-14.92,0-1.84.06-3.37.08-4.53a10,10,0,0,1,.11-1.65,11,11,0,0,1,.1,1.65c0,1.16.05,2.69.08,4.53,0,3.82.08,9.09.08,14.92v2.61l-.25-.26c5.22,0,9.84,0,13.16.09l3.91.08A8.9,8.9,0,0,1,602.79,77Z" fill="#fafafa"/>
      <path id="Trazado_122128" data-name="Trazado 122128" d="M584.42,42.08a11.39,11.39,0,0,1,.26,3.38,11.331,11.331,0,0,1-.26,3.38,11.331,11.331,0,0,1-.26-3.38,11.39,11.39,0,0,1,.26-3.38Z" fill="#fafafa"/>
      <path id="Trazado_122129" data-name="Trazado 122129" d="M602.76,47.51a11.148,11.148,0,0,1-2.18,2.54A10.652,10.652,0,0,1,598,52.22a10.851,10.851,0,0,1,2.18-2.54,10.719,10.719,0,0,1,2.58-2.17Z" fill="#fafafa"/>
      <path id="Trazado_122130" data-name="Trazado 122130" d="M613.48,59.22a14.128,14.128,0,0,1-2.78,1.85,13.68,13.68,0,0,1-2.92,1.61,9.15,9.15,0,0,1,2.65-2,9,9,0,0,1,3.05-1.46Z" fill="#fafafa"/>
      <path id="Trazado_122131" data-name="Trazado 122131" d="M619.76,76.6a41,41,0,0,1-9.22,0,41,41,0,0,1,9.22,0Z" fill="#fafafa"/>
      <path id="Trazado_122132" data-name="Trazado 122132" d="M555.84,76a36.6,36.6,0,0,1-8.71,0A36.6,36.6,0,0,1,555.84,76Z" fill="#fafafa"/>
      <path id="Trazado_122133" data-name="Trazado 122133" d="M560.36,88.93a19.352,19.352,0,0,1-3.29,3,18.568,18.568,0,0,1-3.62,2.58,19.828,19.828,0,0,1,3.29-3,19.113,19.113,0,0,1,3.62-2.58Z" fill="#fafafa"/>
      <path id="Trazado_122134" data-name="Trazado 122134" d="M571.51,98.94a30.256,30.256,0,0,1-2.24,3.88,30.785,30.785,0,0,1-2.37,3.8,14.271,14.271,0,0,1,1.93-4.07A14.412,14.412,0,0,1,571.51,98.94Z" fill="#fafafa"/>
      <path id="Trazado_122135" data-name="Trazado 122135" d="M584.42,111.84a20.89,20.89,0,0,1-.26-4.61,21,21,0,0,1,.26-4.61,21,21,0,0,1,.26,4.61,20.89,20.89,0,0,1-.26,4.61Z" fill="#fafafa"/>
      <path id="Trazado_122136" data-name="Trazado 122136" d="M604.29,105.7a13.389,13.389,0,0,1-3.8-2.6,13.881,13.881,0,0,1-3.1-3.41,41.916,41.916,0,0,1,3.44,3,43.341,43.341,0,0,1,3.46,3.01Z" fill="#fafafa"/>
      <path id="Trazado_122137" data-name="Trazado 122137" d="M613.61,95.66A16.312,16.312,0,0,1,610.56,93a16.1,16.1,0,0,1-2.68-3,16.1,16.1,0,0,1,3,2.68,15.886,15.886,0,0,1,2.73,2.98Z" fill="#fafafa"/>
      <path id="Trazado_122138" data-name="Trazado 122138" d="M559.94,63.59a12,12,0,0,1-2.7-2.32,12.289,12.289,0,0,1-2.32-2.7,12.53,12.53,0,0,1,2.69,2.33A12.53,12.53,0,0,1,559.94,63.59Z" fill="#fafafa"/>
      <path id="Trazado_122139" data-name="Trazado 122139" d="M571.44,51.47a11.842,11.842,0,0,1-2.64-2.27,11.568,11.568,0,0,1-2.28-2.64,12.169,12.169,0,0,1,2.64,2.27,11.42,11.42,0,0,1,2.28,2.64Z" fill="#fafafa"/>
      <rect id="Rectángulo_29981" data-name="Rectángulo 29981" width="70.31" height="101.91" transform="translate(641.56 124.29)" fill="#e0e0e0"/>
      <rect id="Rectángulo_29982" data-name="Rectángulo 29982" width="70.31" height="101.91" transform="translate(638.04 124.29)" fill="#f5f5f5"/>
      <rect id="Rectángulo_29983" data-name="Rectángulo 29983" width="52.84" height="79.84" transform="translate(646.77 135.32)" fill="#fff"/>
      <path id="Trazado_122140" data-name="Trazado 122140" d="M699.61,215.16v-5.9c0-3.83,0-9.4-.05-16.45,0-14.08,0-34-.08-57.49l.17.18H646.77l.19-.19v79.84l-.15-.15,38.46.08h.14l-38.56.08h-.15V134.98h53.21v.17c0,23.53-.07,43.5-.09,57.61,0,7,0,12.59-.05,16.4v5.46A1.291,1.291,0,0,1,699.61,215.16Z" fill="#e0e0e0"/>
      <path id="Trazado_122141" data-name="Trazado 122141" d="M708.54,124.29a11.44,11.44,0,0,1-1.25,1.82c-.82,1.09-2,2.57-3.3,4.18s-2.56,3-3.47,4a12.876,12.876,0,0,1-1.55,1.58,13.122,13.122,0,0,1,1.34-1.76c.94-1.14,2.1-2.55,3.39-4.1l3.38-4.11a12.621,12.621,0,0,1,1.46-1.61Z" fill="#e0e0e0"/>
      <path id="Trazado_122142" data-name="Trazado 122142" d="M699.88,214.9a64.821,64.821,0,0,0,9.22,11.53" fill="#fff"/>
      <path id="Trazado_122143" data-name="Trazado 122143" d="M709.1,226.43a10.3,10.3,0,0,1-1.61-1.46,49.116,49.116,0,0,1-3.48-3.92,50.288,50.288,0,0,1-3.06-4.26,10.422,10.422,0,0,1-1.07-1.89,14.512,14.512,0,0,1,1.3,1.74c.77,1.09,1.86,2.58,3.13,4.17s2.49,3,3.38,4a14.864,14.864,0,0,1,1.41,1.62Z" fill="#e0e0e0"/>
      <path id="Trazado_122144" data-name="Trazado 122144" d="M638,226.12l9.21-11.36" fill="#fff"/>
      <path id="Trazado_122145" data-name="Trazado 122145" d="M647.23,214.76a69.695,69.695,0,0,1-4.45,5.8,69.807,69.807,0,0,1-4.76,5.56,70,70,0,0,1,4.46-5.8,68.84,68.84,0,0,1,4.75-5.56Z" fill="#e0e0e0"/>
      <path id="Trazado_122146" data-name="Trazado 122146" d="M638,124.29a59.979,59.979,0,0,1,4.48,5.34,65.626,65.626,0,0,1,4.17,5.58,60.745,60.745,0,0,1-4.47-5.34,66.454,66.454,0,0,1-4.18-5.58Z" fill="#e0e0e0"/>
      <rect id="Rectángulo_29984" data-name="Rectángulo 29984" width="17.69" height="50.24" transform="translate(665.46 151.53)" fill="#e0e0e0"/>
      <path id="Trazado_122147" data-name="Trazado 122147" d="M160.62,166.2v72.88H55.95l-3.77-72.37Z" fill="#e0e0e0"/>
      <rect id="Rectángulo_29985" data-name="Rectángulo 29985" width="72.21" height="104.67" transform="translate(52.18 238.93) rotate(-90)" fill="#fff"/>
      <path id="Trazado_122148" data-name="Trazado 122148" d="M157.35,239.42H51.69v-73.2H157.35Zm-104.67-1H156.35V167.21H52.68Z" fill="#e0e0e0"/>
      <rect id="Rectángulo_29986" data-name="Rectángulo 29986" width="81.99" height="54.27" transform="translate(63.52 175.68)" fill="#fff"/>
      <path id="Trazado_122149" data-name="Trazado 122149" d="M145.51,175.68h-6.07l-16.9.06-59,.12.24-.24v54.27h0l-.26-.26,82,.06-.2.2c0-16.51.08-30,.11-39.48,0-4.72,0-8.4.05-10.92v-.04c0,2.51,0,6.18.05,10.87,0,9.46.06,23,.11,39.61v.21h-.21l-82,.05h-.26V230h0V175.5h.24l59.18.11,16.84.07h6.08Z" fill="#e0e0e0"/>
      <path id="Trazado_122150" data-name="Trazado 122150" d="M52.18,166.51a8.221,8.221,0,0,1,1.8,1.17c1.07.77,2.53,1.87,4.11,3.12s3,2.46,3.93,3.35a8.2,8.2,0,0,1,1.5,1.53c-.1.11-2.61-2-5.76-4.47a58.31,58.31,0,0,1-5.58-4.7Z" fill="#e0e0e0"/>
      <path id="Trazado_122151" data-name="Trazado 122151" d="M156.85,166.71a51.323,51.323,0,0,1-5.51,4.69,48.772,48.772,0,0,1-5.83,4.28A51.84,51.84,0,0,1,151,171a51,51,0,0,1,5.85-4.29Z" fill="#e0e0e0"/>
      <path id="Trazado_122152" data-name="Trazado 122152" d="M156.77,238.93l-11.67-9.45" fill="#fff"/>
      <path id="Trazado_122153" data-name="Trazado 122153" d="M145.1,229.48a53.591,53.591,0,0,1,6,4.52,56.245,56.245,0,0,1,5.67,4.93,54,54,0,0,1-6-4.52,56.241,56.241,0,0,1-5.67-4.93Z" fill="#e0e0e0"/>
      <path id="Trazado_122154" data-name="Trazado 122154" d="M52.18,238.92a52,52,0,0,1,5.45-4.64,50.733,50.733,0,0,1,5.77-4.23,49.54,49.54,0,0,1-5.4,4.64,47.418,47.418,0,0,1-5.82,4.23Z" fill="#e0e0e0"/>
      <rect id="Rectángulo_29987" data-name="Rectángulo 29987" width="18.17" height="51.59" transform="translate(80.17 210.76) rotate(-90)" fill="#e0e0e0"/>
    </g>
    <g id="freepik--Floor--inject-2">
      <path id="Trazado_122155" data-name="Trazado 122155" d="M707.39,461.8c0,.15-148.83.26-332.37.26S42.61,462,42.61,461.8s148.79-.26,332.41-.26S707.39,461.66,707.39,461.8Z" fill="#263238"/>
    </g>
    <g id="freepik--Calendar--inject-2">
      <rect id="Rectángulo_29988" data-name="Rectángulo 29988" width="71.8" height="89.81" transform="translate(110.108 142.099) rotate(-82.33)" fill="#ebebeb"/>
      <path id="Trazado_122156" data-name="Trazado 122156" d="M208.7,82.93l-.44-.05L207,82.73l-4.84-.63-18.23-2.39-64.28-8.54.26-.2c-2.84,21.18-6.11,45.47-9.56,71.16h0l-.22-.3,89,12-.24.19,7.06-51.6c.86-6.21,1.54-11.08,2-14.41q.34-2.49.54-3.81c.12-.86.2-1.31.2-1.31a8.3,8.3,0,0,1-.15,1.28L208.07,88c-.44,3.33-1.07,8.19-1.88,14.39-1.65,12.45-4,30.27-6.86,51.76v.21h-.21l-89-11.94h-.26v-.26h0l9.61-71.15v-.23h.23l64.4,8.79L202.29,82l4.78.67,1.22.18Z" fill="#263238"/>
      <rect id="Rectángulo_29989" data-name="Rectángulo 29989" width="62.76" height="83.5" transform="translate(113.786 138.04) rotate(-82.33)" fill="#b1a8d1"/>
      <path id="Trazado_122157" data-name="Trazado 122157" d="M113.78,138.03l34.11-34.77,14.65,26.61,13.88-11.3,20.11,30.61Z" fill="#7d6eb2"/>
      <path id="Trazado_122158" data-name="Trazado 122158" d="M174,102a6.56,6.56,0,1,1-1.285-4.866A6.57,6.57,0,0,1,174,102Z" fill="#7d6eb2"/>
      <rect id="Rectángulo_29990" data-name="Rectángulo 29990" width="367.41" height="240.56" transform="translate(196.38 70.48)" fill="#fafafa"/>
      <path id="Trazado_122161" data-name="Trazado 122161" d="M564.93,87.4c0,.14-82.26.26-183.71.26s-183.71-.12-183.71-.26,82.24-.26,183.71-.26S564.93,87.26,564.93,87.4Z" fill="#263238"/>
      <path id="Trazado_122162" data-name="Trazado 122162" d="M209.4,79.55a2.1,2.1,0,1,1-.615-1.495,2.11,2.11,0,0,1,.615,1.495Z" fill="#263238"/>
      <path id="Trazado_122163" data-name="Trazado 122163" d="M217,79.55a2.1,2.1,0,1,1-.615-1.495A2.11,2.11,0,0,1,217,79.55Z" fill="#263238"/>
      <path id="Trazado_122164" data-name="Trazado 122164" d="M224.62,79.55a2.1,2.1,0,1,1-.612-1.491,2.11,2.11,0,0,1,.612,1.491Z" fill="#263238"/>
      <rect id="Rectángulo_29991" data-name="Rectángulo 29991" width="125.39" height="6.92" transform="translate(319.04 100.15)" fill="#ebebeb"/>
      <path id="Trazado_122165" data-name="Trazado 122165" d="M544.35,293.82c0-1.57-.07-67.12-.19-174.54l.19.19-329.42.07h0l.27-.26V293.82l-.25-.25,329.45.25-329.45.24h-.24V119H215l329.42.06h.2v.2C544.43,226.7,544.36,292.25,544.35,293.82Z" fill="#263238"/>
      <path id="Trazado_122166" data-name="Trazado 122166" d="M255.46,293.46c-.15,0-.15-39.07,0-87.26s.37-87.27.51-87.27.15,39.07,0,87.27S255.6,293.46,255.46,293.46Z" fill="#263238"/>
      <path id="Trazado_122167" data-name="Trazado 122167" d="M304.33,293.6c-.14,0-.14-39.07,0-87.26s.37-87.27.51-87.27.15,39.07,0,87.27S304.48,293.6,304.33,293.6Z" fill="#263238"/>
      <path id="Trazado_122168" data-name="Trazado 122168" d="M353.21,293.75c-.15,0-.15-39.08,0-87.27s.37-87.27.51-87.27.15,39.07,0,87.27S353.35,293.75,353.21,293.75Z" fill="#263238"/>
      <path id="Trazado_122169" data-name="Trazado 122169" d="M402.08,293.89c-.14,0-.14-39.08,0-87.27s.37-87.27.51-87.27.15,39.07,0,87.28S402.23,293.89,402.08,293.89Z" fill="#263238"/>
      <path id="Trazado_122170" data-name="Trazado 122170" d="M451,294c-.15,0-.15-39.07,0-87.26s.37-87.27.51-87.27.15,39.06,0,87.27S451.1,294,451,294Z" fill="#263238"/>
      <path id="Trazado_122171" data-name="Trazado 122171" d="M499.83,294.17c-.14,0-.14-39.07,0-87.26s.37-87.27.51-87.27.15,39.06,0,87.27S500,294.17,499.83,294.17Z" fill="#263238"/>
      <path id="Trazado_122172" data-name="Trazado 122172" d="M544.35,161.48c0,.14-73.66.26-164.52.26s-164.54-.12-164.54-.26,73.66-.26,164.54-.26S544.35,161.33,544.35,161.48Z" fill="#263238"/>
      <path id="Trazado_122173" data-name="Trazado 122173" d="M544.35,206.2c0,.14-73.66.26-164.52.26s-164.54-.12-164.54-.26,73.66-.26,164.54-.26S544.35,206.05,544.35,206.2Z" fill="#263238"/>
      <path id="Trazado_122174" data-name="Trazado 122174" d="M544.35,250.91c0,.15-73.66.26-164.52.26s-164.54-.11-164.54-.26,73.66-.26,164.54-.26S544.35,250.77,544.35,250.91Z" fill="#263238"/>
      <path id="Trazado_122175" data-name="Trazado 122175" d="M218.21,254.89s-3.9,25.32.16,41.1l39-1.42s-8-25.19-2.93-37.78Z" fill="#ebebeb"/>
      <path id="Trazado_122176" data-name="Trazado 122176" d="M218.37,254s.26,31.11,1.84,40.6l39-1.85s-3.43-30.58-2.11-38.75Z" fill="#26aab7"/>
      <path id="Trazado_122177" data-name="Trazado 122177" d="M251.24,267c0,.15-5.85.62-13.08,1.05s-13.09.67-13.1.53,5.84-.61,13.07-1.05S251.23,266.89,251.24,267Z" fill="#fff"/>
      <path id="Trazado_122178" data-name="Trazado 122178" d="M251.25,273.62c0,.15-5.85.62-13.08,1.05s-13.09.67-13.1.53,5.84-.61,13.07-1.05S251.24,273.48,251.25,273.62Z" fill="#fff"/>
      <path id="Trazado_122179" data-name="Trazado 122179" d="M244.62,280.09a9.4,9.4,0,0,1-2.18.32c-1.34.13-3.21.27-5.27.39s-3.92.21-5.27.24a9,9,0,0,1-2.2-.05,9.369,9.369,0,0,1,2.17-.32c1.35-.12,3.21-.26,5.27-.39s3.93-.21,5.28-.24a9.842,9.842,0,0,1,2.2.05Z" fill="#fff"/>
      <path id="Trazado_122180" data-name="Trazado 122180" d="M307.48,123.66s-3.2,26.35.86,42.13l38.33-2s-8-25.69-3-38.28Z" fill="#ebebeb"/>
      <path id="Trazado_122181" data-name="Trazado 122181" d="M307.64,122.73s.26,31.11,1.84,40.6l39-1.85s-3.43-30.58-2.11-38.75Z" fill="#26aab7"/>
      <path id="Trazado_122182" data-name="Trazado 122182" d="M340.51,135.8c0,.14-5.85.61-13.07,1s-13.1.67-13.11.52,5.84-.61,13.07-1S340.5,135.65,340.51,135.8Z" fill="#fff"/>
      <path id="Trazado_122183" data-name="Trazado 122183" d="M340.52,142.39c0,.14-5.84.61-13.07,1s-13.1.68-13.11.53,5.84-.61,13.08-1.05S340.51,142.24,340.52,142.39Z" fill="#fff"/>
      <path id="Trazado_122184" data-name="Trazado 122184" d="M333.89,148.86a9.78,9.78,0,0,1-2.17.31c-1.35.13-3.21.27-5.27.39s-3.93.21-5.28.25a8.778,8.778,0,0,1-2.2-.06,9.81,9.81,0,0,1,2.18-.31c1.34-.13,3.21-.27,5.27-.39s3.92-.21,5.27-.25a8.73,8.73,0,0,1,2.2.06Z" fill="#fff"/>
      <path id="Trazado_122185" data-name="Trazado 122185" d="M358.84,253.15s-3.15,28.81.9,44.59l38.5-1.69s-8.25-28.42-3.18-41Z" fill="#ebebeb"/>
      <path id="Trazado_122186" data-name="Trazado 122186" d="M359,252.22s.26,31.11,1.84,40.6l39-1.85s-3.43-30.58-2.11-38.75Z" fill="#26aab7"/>
      <path id="Trazado_122187" data-name="Trazado 122187" d="M391.87,265.29c0,.14-5.85.61-13.07,1s-13.1.68-13.11.53,5.84-.61,13.07-1.05S391.86,265.14,391.87,265.29Z" fill="#fff"/>
      <path id="Trazado_122188" data-name="Trazado 122188" d="M391.88,271.88c0,.14-5.85.61-13.07,1s-13.1.67-13.11.53,5.84-.61,13.07-1.05S391.87,271.73,391.88,271.88Z" fill="#fff"/>
      <path id="Trazado_122189" data-name="Trazado 122189" d="M385.25,278.35a9.811,9.811,0,0,1-2.18.31c-1.34.13-3.2.27-5.26.39s-3.93.21-5.28.25a9.361,9.361,0,0,1-2.2-.06,9.782,9.782,0,0,1,2.17-.31c1.35-.13,3.21-.27,5.27-.4s3.93-.2,5.28-.24a8.732,8.732,0,0,1,2.2.06Z" fill="#fff"/>
      <path id="Trazado_122190" data-name="Trazado 122190" d="M505.88,165.48s-4,24.74.05,40.51l39.09-.84s-8-25.19-2.93-37.78Z" fill="#ebebeb"/>
      <path id="Trazado_122191" data-name="Trazado 122191" d="M506,164.56s.26,31.1,1.84,40.59l39-1.84s-3.43-30.58-2.11-38.75Z" fill="#26aab7"/>
      <path id="Trazado_122192" data-name="Trazado 122192" d="M538.9,177.62c0,.15-5.84.61-13.07,1s-13.1.67-13.11.53,5.84-.62,13.08-1S538.89,177.48,538.9,177.62Z" fill="#fff"/>
      <path id="Trazado_122193" data-name="Trazado 122193" d="M538.91,184.21c0,.14-5.84.61-13.07,1s-13.1.67-13.11.53,5.85-.62,13.08-1S538.9,184.07,538.91,184.21Z" fill="#fff"/>
      <path id="Trazado_122194" data-name="Trazado 122194" d="M532.28,190.68a9.231,9.231,0,0,1-2.17.32c-1.35.12-3.21.26-5.27.39s-3.93.21-5.28.24a9.84,9.84,0,0,1-2.2,0,9.4,9.4,0,0,1,2.18-.32c1.34-.13,3.21-.27,5.27-.39s3.92-.21,5.28-.24A9,9,0,0,1,532.28,190.68Z" fill="#fff"/>
      <path id="Trazado_122195" data-name="Trazado 122195" d="M406.84,210.81s-4,24.74.05,40.52l39.09-.84s-8-25.19-2.93-37.79Z" fill="#ebebeb"/>
      <path id="Trazado_122196" data-name="Trazado 122196" d="M407,209.89s.26,31.11,1.84,40.6l39-1.85s-3.43-30.58-2.11-38.75Z" fill="#26aab7"/>
      <path id="Trazado_122197" data-name="Trazado 122197" d="M439.86,223c0,.15-5.84.62-13.07,1.05s-13.1.67-13.11.53,5.84-.61,13.08-1.05S439.85,222.81,439.86,223Z" fill="#fff"/>
      <path id="Trazado_122198" data-name="Trazado 122198" d="M439.87,229.54c0,.15-5.84.62-13.07,1.05s-13.1.67-13.11.53,5.85-.61,13.08-1.05S439.86,229.4,439.87,229.54Z" fill="#fff"/>
      <path id="Trazado_122199" data-name="Trazado 122199" d="M433.24,236a9.371,9.371,0,0,1-2.17.32c-1.35.13-3.21.27-5.27.39s-3.93.21-5.28.24a9.15,9.15,0,0,1-2.2-.05,9.4,9.4,0,0,1,2.18-.32c1.34-.12,3.21-.27,5.27-.39s3.92-.21,5.27-.24a9.729,9.729,0,0,1,2.2.05Z" fill="#fff"/>
      <path id="Trazado_122200" data-name="Trazado 122200" d="M497,174.75l-20.71,10.66-10.02-1.42,5.36-9.5,21.85-7.7Z" fill="#ebebeb"/>
      <path id="Trazado_122201" data-name="Trazado 122201" d="M465.41,182.03l5.08-8.17,22.44-8.15,4.51,8.87-21.76,8.69Z" fill="#455a64"/>
      <path id="Trazado_122202" data-name="Trazado 122202" d="M490.41,171a12.62,12.62,0,0,1-2.18,1c-1.36.56-3.25,1.3-5.35,2.1l-5.39,2c-1.37.5-2.28.8-2.22.77-.17-.21,3.24-1.67,7.42-3.27S490.35,170.82,490.41,171Z" fill="#fff"/>
      <path id="Trazado_122203" data-name="Trazado 122203" d="M486.9,175a31.141,31.141,0,0,1-10,3.72,44.913,44.913,0,0,1,5-1.92,45.477,45.477,0,0,1,5-1.8Z" fill="#fff"/>
      <path id="Trazado_122204" data-name="Trazado 122204" d="M218.34,164.06s-3.6,34.84,1.19,42.14l36.18-2.2-1.92-38.7Z" fill="#e0e0e0"/>
      <path id="Trazado_122205" data-name="Trazado 122205" d="M218.34,164.06s.25,30.31,1.8,39.55l38-1.8s-3.34-29.79-2.05-37.75Z" fill="#455a64"/>
      <path id="Trazado_122206" data-name="Trazado 122206" d="M237.06,168.35h.55a8.748,8.748,0,0,1,1.58.08,8.63,8.63,0,0,1,2.42.71,8.11,8.11,0,0,1,2.63,2.08,9.26,9.26,0,0,1,1.82,3.66,8.9,8.9,0,0,1-.4,4.7,14.09,14.09,0,0,1-1.07,2.35,24,24,0,0,0-1.22,2.37,20.58,20.58,0,0,0-1.53,5.39v.13h-.12l-3.75.06-3.94.06h-.14v-.14a11.19,11.19,0,0,0-1.82-5.19c-.46-.78-1-1.51-1.42-2.25a20.581,20.581,0,0,1-1.34-2.18,7.28,7.28,0,0,1-.59-4.63,9.89,9.89,0,0,1,1.46-3.78,7.25,7.25,0,0,1,2.48-2.23,9.151,9.151,0,0,1,2.33-.9,10.461,10.461,0,0,1,1.55-.26h.01a9.73,9.73,0,0,0-1.53.3,9.25,9.25,0,0,0-2.29.93,7.231,7.231,0,0,0-2.39,2.2,9.71,9.71,0,0,0-1.4,3.72,7.1,7.1,0,0,0,.6,4.48,20.888,20.888,0,0,0,1.33,2.15c.46.73,1,1.46,1.43,2.25a11.37,11.37,0,0,1,1.88,5.33l-.14-.14,3.93-.07,3.75-.05-.13.12a20.13,20.13,0,0,1,1.56-5.47,25.533,25.533,0,0,1,1.24-2.39,13.94,13.94,0,0,0,1.06-2.3,8.66,8.66,0,0,0,.42-4.57,9.14,9.14,0,0,0-1.75-3.59,8,8,0,0,0-2.55-2.06,8.74,8.74,0,0,0-2.37-.75,9.531,9.531,0,0,0-1.56-.13h-.55Z" fill="#fff"/>
      <path id="Trazado_122207" data-name="Trazado 122207" d="M239,189.46v-.47l-.21-1.36c-.17-1.18-.42-2.89-.59-5,0-.54-.08-1.09-.1-1.67a15.778,15.778,0,0,1,0-1.82,4.941,4.941,0,0,1,.42-1.9,2.89,2.89,0,0,1,1.45-1.45,1.94,1.94,0,0,1,2.07.39,1.46,1.46,0,0,1,.45,1,1.88,1.88,0,0,1-.39,1.09,2.56,2.56,0,0,1-.92.74,4.4,4.4,0,0,1-1.13.37,12.591,12.591,0,0,1-2.39.28,13.882,13.882,0,0,1-2.42-.11,4.541,4.541,0,0,1-1.14-.34,3,3,0,0,1-1-.68,2.09,2.09,0,0,1-.55-1,1.75,1.75,0,0,1,.13-1.13,1.58,1.58,0,0,1,.8-.77,1.31,1.31,0,0,1,1.08,0,2.07,2.07,0,0,1,.81.68,2.83,2.83,0,0,1,.4,1,11,11,0,0,1,.19,1.94c.07,1.25.13,2.42.19,3.48.1,2.13.19,3.85.25,5a8.563,8.563,0,0,0,.06,1.37v.48a1.132,1.132,0,0,1,0-.12v-.36c0-.32-.05-.78-.09-1.37-.07-1.19-.17-2.91-.29-5-.06-1.07-.12-2.23-.19-3.48a12.638,12.638,0,0,0-.2-1.92,2.73,2.73,0,0,0-.39-.91,1.84,1.84,0,0,0-.76-.65,1.25,1.25,0,0,0-1-.05,1.42,1.42,0,0,0-.73.72,1.59,1.59,0,0,0-.13,1.05,2,2,0,0,0,.53,1,3.36,3.36,0,0,0,2,1,13.541,13.541,0,0,0,2.39.11,13.34,13.34,0,0,0,2.38-.27,5.081,5.081,0,0,0,1.1-.37,2.42,2.42,0,0,0,.88-.7,1.76,1.76,0,0,0,.36-1,1.3,1.3,0,0,0-.41-1,1.81,1.81,0,0,0-1.95-.37,2.77,2.77,0,0,0-1.39,1.39,5,5,0,0,0-.43,1.86c0,.63,0,1.23,0,1.81a10.086,10.086,0,0,0,.09,1.67c.16,2.12.4,3.83.55,5,.08.59.15,1,.19,1.36l.05.36A1.089,1.089,0,0,1,239,189.46Z" fill="#fff"/>
      <path id="Trazado_122208" data-name="Trazado 122208" d="M234,189.66s.05.47.1,1.26.11,2,.17,3.29v-.08l2.56,3-.13-.05,3-.17-.13.06,1.47-1.8.74-.89v.11c0-1.73-.07-3.37-.11-4.87l.16.15-5.52.06h-1.6a4.369,4.369,0,0,1-.6,0,2.789,2.789,0,0,1,.53,0l1.56-.08,5.62-.22h.16v.16c0,1.5.09,3.14.14,4.87v.07h-.05c-.24.29-.49.59-.73.9-.51.61-1,1.21-1.48,1.79l-.05.06h-.08l-3,.14h-.08v-.06l-2.51-3h0v-3.42A9.634,9.634,0,0,1,234,189.66Z" fill="#fff"/>
      <path id="Trazado_122209" data-name="Trazado 122209" d="M241.64,193.94a1.53,1.53,0,0,1-.28-.12c-.18-.08-.44-.19-.77-.3a7.64,7.64,0,0,0-2.67-.41,7.51,7.51,0,0,0-2.64.57,7.117,7.117,0,0,0-.75.35l-.27.13a1.219,1.219,0,0,1,.25-.17,5.578,5.578,0,0,1,.73-.39,7.119,7.119,0,0,1,2.68-.61,7.23,7.23,0,0,1,2.7.45,6,6,0,0,1,.76.34A1.18,1.18,0,0,1,241.64,193.94Z" fill="#fff"/>
      <path id="Trazado_122210" data-name="Trazado 122210" d="M241.64,192.76l-.28-.12c-.18-.08-.44-.19-.77-.31a7.66,7.66,0,0,0-2.67-.4,7.51,7.51,0,0,0-2.64.57,5.529,5.529,0,0,0-.75.35,1.39,1.39,0,0,1-.27.13,1.8,1.8,0,0,1,.25-.17,4.583,4.583,0,0,1,.73-.39,7.09,7.09,0,0,1,5.38-.16,5.291,5.291,0,0,1,.76.34,1.18,1.18,0,0,1,.26.16Z" fill="#fff"/>
      <path id="Trazado_122211" data-name="Trazado 122211" d="M241.57,191.63a1.53,1.53,0,0,1-.28-.12c-.18-.08-.44-.19-.77-.3a7.64,7.64,0,0,0-2.67-.41,7.51,7.51,0,0,0-2.64.57,7.123,7.123,0,0,0-.75.35l-.27.14a1.348,1.348,0,0,1,.25-.18,6.9,6.9,0,0,1,6.11-.55,6.707,6.707,0,0,1,.76.34,1.18,1.18,0,0,1,.26.16Z" fill="#fff"/>
      <path id="Trazado_122212" data-name="Trazado 122212" d="M313.92,247.24c.05,0,0,.47-.49,1a6.18,6.18,0,0,1-2.19,1.51,6.48,6.48,0,0,1-3.64.67c0-.16,1.61-.36,3.43-1.15a7.6,7.6,0,0,0,2.13-1.29C313.64,247.56,313.84,247.21,313.92,247.24Z" fill="#26aab7"/>
      <path id="Trazado_122213" data-name="Trazado 122213" d="M564.93,311c0-1.69-.08-93.78-.21-240.56l.21.21H197.55l.26-.26V310.95l-.24-.24,367.41.24-367.41.24h-.24V70.18H565.2v.21C565,217.23,564.93,309.32,564.93,311Z" fill="#263238"/>
      <path id="Trazado_122214" data-name="Trazado 122214" d="M533.04,274.92l-7.22-12.32-6.85,12.32H421.76v50.82H573.13V274.92Z" fill="#c1507f"/>
      <path id="Trazado_122215" data-name="Trazado 122215" d="M449,300.77a7.44,7.44,0,0,0,4.5-6.86,7,7,0,0,0-14-.18,7.45,7.45,0,0,0,4.39,7C433.12,302.26,433.51,314,433.51,314l25.44.33S459.63,302.48,449,300.77Z" fill="#fafafa"/>
      <path id="Trazado_122216" data-name="Trazado 122216" d="M555.86,290c0,.15-19.32.26-43.15.26s-43.15-.11-43.15-.26,19.32-.26,43.15-.26S555.86,289.84,555.86,290Z" fill="#fafafa"/>
      <path id="Trazado_122217" data-name="Trazado 122217" d="M555.86,297.73c0,.14-19.32.26-43.15.26s-43.15-.12-43.15-.26,19.32-.26,43.15-.26S555.86,297.59,555.86,297.73Z" fill="#fafafa"/>
      <path id="Trazado_122218" data-name="Trazado 122218" d="M555.86,305.48c0,.14-19.32.26-43.15.26s-43.15-.12-43.15-.26,19.32-.26,43.15-.26S555.86,305.34,555.86,305.48Z" fill="#fafafa"/>
      <path id="Trazado_122219" data-name="Trazado 122219" d="M512.71,313.15c0,.14-9.66.26-21.57.26s-21.58-.12-21.58-.26,9.66-.26,21.58-.26S512.71,313,512.71,313.15Z" fill="#fafafa"/>
    </g>
    <g id="freepik--character-2--inject-2">
      <path id="Trazado_122220" data-name="Trazado 122220" d="M559.53,179.69c-.91-1.07-1.61-3-1.06-4.27-1.08-.57-1.17-1.52-1.17-2.73a7.349,7.349,0,0,1,1.05-3.45,10.05,10.05,0,0,1,3.89-4.27,5.2,5.2,0,0,1,5.54.24,6.72,6.72,0,0,1,9.62-.67,7.7,7.7,0,0,0,1.47,1.33c1,.53,2.14.33,3.23.43a5.67,5.67,0,0,1,4.69,7.88,6.11,6.11,0,0,1,2.61,4.7,18.071,18.071,0,0,1-.63,5.51c-.5,2.23-1.06,4.58-2.64,6.23a6.51,6.51,0,0,1-4.15,2,6.6,6.6,0,0,1-5.81-2.73" fill="#263238"/>
      <path id="Trazado_122221" data-name="Trazado 122221" d="M583.14,217.75l-17.92-.82c-.1-1.9.87-13.67.87-13.67s-6.78-1-6.86-7.83,1.09-22.33,1.09-22.33h0a23.54,23.54,0,0,1,23.66,3l1,.77Z" fill="#b78876"/>
      <path id="Trazado_122222" data-name="Trazado 122222" d="M566.08,203.16a15.73,15.73,0,0,0,8.83-2.51s-2.09,4.88-8.85,4.27Z" fill="#aa6550"/>
      <path id="Trazado_122223" data-name="Trazado 122223" d="M584.14,183.87c.12-.05,4.66-1.38,4.51,3.25s-4.77,3.53-4.77,3.39S584.14,183.87,584.14,183.87Z" fill="#b78876"/>
      <path id="Trazado_122224" data-name="Trazado 122224" d="M585.35,188.81s.08.05.21.12a.77.77,0,0,0,.61,0,2,2,0,0,0,1-1.76A2.73,2.73,0,0,0,587,186a.93.93,0,0,0-.59-.64.41.41,0,0,0-.48.21c-.07.12,0,.22-.07.22s-.09-.08-.05-.27a.49.49,0,0,1,.19-.28.62.62,0,0,1,.45-.11,1.14,1.14,0,0,1,.82.75,2.75,2.75,0,0,1,.24,1.3,2.09,2.09,0,0,1-1.24,2,.84.84,0,0,1-.73-.14C585.36,188.92,585.34,188.81,585.35,188.81Z" fill="#aa6550"/>
      <path id="Trazado_122225" data-name="Trazado 122225" d="M561.81,183.72a1,1,0,0,0,.93,1,.94.94,0,0,0,1-.88,1,1,0,0,0-.93-1,.93.93,0,0,0-1,.88Z" fill="#263238"/>
      <path id="Trazado_122226" data-name="Trazado 122226" d="M561.6,182.63c.12.13.85-.41,1.89-.41s1.81.52,1.92.39-.07-.28-.4-.52a2.67,2.67,0,0,0-1.53-.48,2.62,2.62,0,0,0-1.51.49C561.65,182.35,561.54,182.57,561.6,182.63Z" fill="#263238"/>
      <path id="Trazado_122227" data-name="Trazado 122227" d="M572,184a1,1,0,0,0,.93,1,.93.93,0,0,0,1-.87,1,1,0,0,0-.94-1,.91.91,0,0,0-.99.87Z" fill="#263238"/>
      <path id="Trazado_122228" data-name="Trazado 122228" d="M571.83,182.83c.12.12.86-.42,1.9-.42s1.8.53,1.91.4-.06-.29-.4-.53a2.65,2.65,0,0,0-1.53-.47,2.51,2.51,0,0,0-1.51.49C571.88,182.54,571.77,182.77,571.83,182.83Z" fill="#263238"/>
      <path id="Trazado_122229" data-name="Trazado 122229" d="M568.05,190.55a6.91,6.91,0,0,0-1.69-.31c-.26,0-.51-.08-.56-.26a1.381,1.381,0,0,1,.18-.79c.25-.64.51-1.32.79-2a33.728,33.728,0,0,0,1.76-5.3,35.617,35.617,0,0,0-2.19,5.14l-.75,2a1.56,1.56,0,0,0-.14,1,.65.65,0,0,0,.44.39,1.55,1.55,0,0,0,.45.06A6.74,6.74,0,0,0,568.05,190.55Z" fill="#263238"/>
      <path id="Trazado_122230" data-name="Trazado 122230" d="M571.12,191.27c-.17,0-.17,1.12-1.14,1.92s-2.17.68-2.18.83.27.22.78.24a2.88,2.88,0,0,0,1.82-.64,2.43,2.43,0,0,0,.88-1.61C571.32,191.54,571.2,191.26,571.12,191.27Z" fill="#263238"/>
      <path id="Trazado_122231" data-name="Trazado 122231" d="M571.56,178.75c.11.28,1.15.14,2.37.29s2.21.48,2.37.23-.1-.39-.5-.66A3.82,3.82,0,0,0,574,178a4,4,0,0,0-1.85.22C571.75,178.39,571.52,178.61,571.56,178.75Z" fill="#263238"/>
      <path id="Trazado_122232" data-name="Trazado 122232" d="M562,179.62c.19.23.9,0,1.77,0s1.59.16,1.76-.09,0-.36-.36-.58a2.47,2.47,0,0,0-1.44-.39,2.38,2.38,0,0,0-1.4.48C562,179.26,561.9,179.5,562,179.62Z" fill="#263238"/>
      <path id="Trazado_122233" data-name="Trazado 122233" d="M585.34,176.54c-.09,2,.35,4.17,0,6.11-.06.29-.82,1.08-.88,1.37-.4,1.71-1.11,2.45-2.13.68a15.073,15.073,0,0,1-.8-3.34l-1.23-6.26a10.85,10.85,0,0,1-5.15,1.22,5.26,5.26,0,0,1-4.4-2.6,5.48,5.48,0,0,1-8.48,1.12,2.29,2.29,0,0,1-3,.64,2.71,2.71,0,0,1-1.1-3c.47-1.65,2.24-2.55,3.89-3,6.44-1.9,13.56-.41,19.35,3a9.4,9.4,0,0,1,2.34,1.76c.66.72,1.58,1.57,1.61,2.55" fill="#263238"/>
      <path id="Trazado_122234" data-name="Trazado 122234" d="M597.09,241.55,604,222.72c-1.44-4.84-6.61-10.08-13.8-11.45-2.29-.44-4.51-1.27-7.19-1.38h0a14.14,14.14,0,0,1-17.26.21l-.25-.18c-.69.08-1.61.17-2.76.31h-.23a16.94,16.94,0,0,0-7.93,3.16h0l-36.07,21.53-21.18-16.1-10.73,8.41s27.75,27.75,30.44,28.41c1.87.46,20.38-9.65,31.6-15.91-.46,6.72-3,44.07-2.85,49.17h51.54V258.94Z" fill="#b89841"/>
      <path id="Trazado_122235" data-name="Trazado 122235" d="M577,263.61s25.1,11.07,27.5,11.59c8,1.75,15.29-4.93,14.12-11.22-.6-3.27-14.73-42.11-14.73-42.11L593.73,237l5.06,19.76-15.28-1.95Z" fill="#b89841"/>
      <path id="Trazado_122236" data-name="Trazado 122236" d="M599,273.26a1.76,1.76,0,0,0-.4-.22l-1.2-.59-4.51-2.1-15.36-7,.1.31,2.94-5.26c.63-1.12,1.25-2.23,1.83-3.28l-.22.12,18.37,1.8,5.46.49,1.48.11a2,2,0,0,0,.51,0,2.109,2.109,0,0,0-.5-.09l-1.47-.19-5.45-.63-18.36-2h-.14l-.08.13c-.58,1.05-1.2,2.15-1.83,3.28-1,1.8-2,3.56-2.93,5.26l-.12.22.22.1,15.43,6.87,4.56,2,1.23.51a1.822,1.822,0,0,0,.44.16Z" fill="#263238"/>
      <path id="Trazado_122237" data-name="Trazado 122237" d="M582.45,254.12l2.15-10.47s-26.47-.34-26.18.13,2.8,24,2.8,24,18.62-.7,17.93-.64Z" fill="#263238"/>
      <path id="Trazado_122238" data-name="Trazado 122238" d="M584.52,249.35h0a2.45,2.45,0,0,0-2.3,1.57,5.4,5.4,0,0,1-1.57,2.51c-1.15.63-3.14,1.13-4.19.62s-5.23-4.28-6-3.86-1.36,1.36-.63,2.19,4.6,3.35,3.87,4.19-8.9-2.85-10.15-2.52-2,1.09-1.26,1.6,6.28,2.59,6.6,3.33c0,0-8.38-2.2-8.69-1.68s-.84,1.36,0,1.68,8.06,2.19,8.69,2.51a15.343,15.343,0,0,0,3.22.94,35.067,35.067,0,0,1,3.38,1.07,7.34,7.34,0,0,0,5.2-.14l.85-.35a3.3,3.3,0,0,0,2.06-3.27l-.17-2.86.92-2.35Z" fill="#b78876"/>
      <path id="Trazado_122239" data-name="Trazado 122239" d="M597.21,256.63c-.15,0-.26-6-.26-13.43s.11-13.43.26-13.43.26,6,.26,13.43S597.35,256.63,597.21,256.63Z" fill="#263238"/>
      <path id="Trazado_122240" data-name="Trazado 122240" d="M549.34,223.78a6.637,6.637,0,0,1,0,1.24c0,.9-.06,2-.09,3.36-.11,2.83-.29,6.75-.52,11.07s-.48,8.24-.67,11.07c-.11,1.33-.2,2.45-.27,3.35a5.1,5.1,0,0,1-.17,1.23,6.722,6.722,0,0,1,0-1.24c0-.9.06-2,.1-3.36.1-2.83.28-6.75.52-11.08s.47-8.24.67-11.07c.1-1.33.19-2.45.26-3.35A4.94,4.94,0,0,1,549.34,223.78Z" fill="#263238"/>
      <path id="Trazado_122241" data-name="Trazado 122241" d="M596.71,229.77c0,.15-10.49.26-23.44.26s-23.45-.11-23.45-.26,10.5-.26,23.45-.26S596.71,229.63,596.71,229.77Z" fill="#fff"/>
      <path id="Trazado_122242" data-name="Trazado 122242" d="M596.8,232.39c0,.14-10.66.26-23.8.26s-23.81-.12-23.81-.26,10.66-.26,23.81-.26S596.8,232.24,596.8,232.39Z" fill="#fff"/>
      <path id="Trazado_122243" data-name="Trazado 122243" d="M597.2,235.74c0,.15-10.5.26-23.45.26s-23.45-.11-23.45-.26,10.5-.26,23.45-.26S597.2,235.6,597.2,235.74Z" fill="#fff"/>
      <path id="Trazado_122244" data-name="Trazado 122244" d="M593.8,256.65a53.156,53.156,0,0,1-2.9,5.68,55.156,55.156,0,0,1-3.09,5.57,30.456,30.456,0,0,1,2.63-5.82,31.1,31.1,0,0,1,3.36-5.43Z" fill="#263238"/>
      <path id="Trazado_122245" data-name="Trazado 122245" d="M596.7,257.37a48.218,48.218,0,0,1-6.42,11.14,57.612,57.612,0,0,1,3.13-5.61,56.065,56.065,0,0,1,3.29-5.53Z" fill="#263238"/>
      <path id="Trazado_122246" data-name="Trazado 122246" d="M503,223.41c.12.12-2.21,2.33-5.18,4.93a50.463,50.463,0,0,1-5.56,4.5,48.914,48.914,0,0,1,5.21-4.9c1.49-1.3,2.85-2.45,3.85-3.27A10.157,10.157,0,0,1,503,223.41Z" fill="#263238"/>
      <path id="Trazado_122247" data-name="Trazado 122247" d="M505.46,225.24a49.212,49.212,0,0,1-5.25,5c-1.49,1.32-2.86,2.5-3.87,3.33a8.11,8.11,0,0,1-1.71,1.26,8.832,8.832,0,0,1,1.46-1.54c1-.9,2.28-2.12,3.78-3.44s2.87-2.49,3.88-3.32a9.33,9.33,0,0,1,1.71-1.29Z" fill="#263238"/>
      <path id="Trazado_122248" data-name="Trazado 122248" d="M557,457.63v-9l16.94-.21.22,13.23-1,.08c-4.67.32-23.77,1.28-26.91.37C542.66,461.05,557,457.63,557,457.63Z" fill="#26aab7"/>
      <g id="Grupo_55282" data-name="Grupo 55282" opacity="0.4">
        <path id="Trazado_122249" data-name="Trazado 122249" d="M568,461.55a5.91,5.91,0,0,1,2.12-3.63,5.67,5.67,0,0,1,3.95-1.28l.06,4.73Z"/>
      </g>
      <g id="Grupo_55283" data-name="Grupo 55283" opacity="0.4">
        <path id="Trazado_122250" data-name="Trazado 122250" d="M550,459.55s-5,1.52-4.38,2.34,20,.58,28.5-.28v-.38l-22.56.48S551,459.58,550,459.55Z"/>
      </g>
      <path id="Trazado_122251" data-name="Trazado 122251" d="M574.35,461.22h-.29l-.84.06-3.07.17c-2.6.13-6.19.25-10.16.31s-7.57,0-10.17,0l-3.08-.09h13.24c3.97,0,7.56-.16,10.16-.25l3.08-.1h.84a1.291,1.291,0,0,1,.29-.1Z" fill="#263238"/>
      <path id="Trazado_122252" data-name="Trazado 122252" d="M551.54,462a7.363,7.363,0,0,0-.6-1.47,7.171,7.171,0,0,0-1.06-1.16,2.75,2.75,0,0,1,1.66,2.63Z" fill="#263238"/>
      <path id="Trazado_122253" data-name="Trazado 122253" d="M556.5,459.38a3.5,3.5,0,0,1-.54-.65c-.25-.39-.42-.72-.37-.75s.29.26.54.64S556.55,459.35,556.5,459.38Z" fill="#263238"/>
      <path id="Trazado_122254" data-name="Trazado 122254" d="M557.87,458.64a2.818,2.818,0,0,1-.61-.4c-.3-.26-.5-.5-.46-.54s.3.13.6.39S557.9,458.59,557.87,458.64Z" fill="#263238"/>
      <path id="Trazado_122255" data-name="Trazado 122255" d="M558.71,457a2.1,2.1,0,0,1-.88.12,2.171,2.171,0,0,1-.89-.08,2.06,2.06,0,0,1,.88-.13A1.91,1.91,0,0,1,558.71,457Z" fill="#263238"/>
      <path id="Trazado_122256" data-name="Trazado 122256" d="M559,455.89a1.74,1.74,0,0,1-1,.3,1.7,1.7,0,0,1-1-.12,5.439,5.439,0,0,1,1-.08A6.136,6.136,0,0,1,559,455.89Z" fill="#263238"/>
      <path id="Trazado_122257" data-name="Trazado 122257" d="M555.91,457.91a3.152,3.152,0,0,1-1.09,0,6,6,0,0,1-1.16-.24,3,3,0,0,1-.67-.26.56.56,0,0,1-.27-.34.42.42,0,0,1,.16-.43,2,2,0,0,1,2.84,1.27.711.711,0,0,1,0,.29,3.3,3.3,0,0,0-.51-.92,2,2,0,0,0-.94-.59,1.66,1.66,0,0,0-1.29.11c-.17.13-.1.33.09.44a3.091,3.091,0,0,0,.62.25,6.53,6.53,0,0,0,1.12.28C555.49,457.88,555.91,457.87,555.91,457.91Z" fill="#263238"/>
      <path id="Trazado_122258" data-name="Trazado 122258" d="M555.63,458a1.08,1.08,0,0,1-.14-.76,1.861,1.861,0,0,1,.29-.8,1.08,1.08,0,0,1,.9-.56.42.42,0,0,1,.34.49,1.19,1.19,0,0,1-.18.49,3.531,3.531,0,0,1-.5.67,1.59,1.59,0,0,1-.62.45s.21-.2.51-.55a3.6,3.6,0,0,0,.45-.66c.14-.23.24-.65,0-.69s-.55.25-.71.47a1.779,1.779,0,0,0-.3.71,3.324,3.324,0,0,0-.04.74Z" fill="#263238"/>
      <path id="Trazado_122259" data-name="Trazado 122259" d="M574,456.59s-.49,0-1.25.06a5.46,5.46,0,0,0-2.72,1.16,5.521,5.521,0,0,0-1.68,2.43c-.24.73-.26,1.22-.3,1.22a1.171,1.171,0,0,1,0-.34,5,5,0,0,1,.18-.92,5.18,5.18,0,0,1,1.68-2.55,5.27,5.27,0,0,1,2.83-1.14,4,4,0,0,1,.93,0A1.259,1.259,0,0,1,574,456.59Z" fill="#263238"/>
      <path id="Trazado_122260" data-name="Trazado 122260" d="M572.1,449.56a29.347,29.347,0,0,1,.19,3.48,31.745,31.745,0,0,1,0,3.48,28.86,28.86,0,0,1-.19-3.47A29.279,29.279,0,0,1,572.1,449.56Z" fill="#263238"/>
      <path id="Trazado_122261" data-name="Trazado 122261" d="M565.82,459.93a9.7,9.7,0,0,1-2.47.28,9.908,9.908,0,0,1-2.48-.17c0-.06,1.11,0,2.48,0S565.81,459.87,565.82,459.93Z" fill="#263238"/>
      <path id="Trazado_122262" data-name="Trazado 122262" d="M569.14,459.88s-.09.24-.2.49-.17.48-.22.48-.09-.26,0-.56S569.1,459.84,569.14,459.88Z" fill="#263238"/>
      <path id="Trazado_122263" data-name="Trazado 122263" d="M570.37,458.31a1,1,0,0,1-.24.4c-.18.18-.34.29-.38.25s.06-.22.24-.4S570.33,458.27,570.37,458.31Z" fill="#263238"/>
      <path id="Trazado_122264" data-name="Trazado 122264" d="M572.15,457.58c0,.05-.23.05-.48.15s-.43.22-.47.18.09-.27.4-.38S572.17,457.52,572.15,457.58Z" fill="#263238"/>
      <path id="Trazado_122265" data-name="Trazado 122265" d="M573.42,457.22c0,.06-.07.14-.21.2s-.27.06-.29,0,.07-.14.21-.2S573.4,457.17,573.42,457.22Z" fill="#263238"/>
      <path id="Trazado_122266" data-name="Trazado 122266" d="M608.47,451.88l1.62,6.78s11.09,14.41,14.51,13.7c2.24-.46-.52-4.22-4.73-15.16l-.89-4.52Z" fill="#26aab7"/>
      <path id="Trazado_122267" data-name="Trazado 122267" d="M625.05,470.24a1.52,1.52,0,0,1-.59.56,2.06,2.06,0,0,1-2.13-.29,62.781,62.781,0,0,1-5.52-5.23c-2-2.16-3.77-4.23-5-5.76l-1.41-1.82-.39-.5-.14-.17s0,.07.11.19l.35.52c.32.45.78,1.09,1.37,1.87a74.34,74.34,0,0,0,5,5.81,54.5,54.5,0,0,0,5.59,5.21,2.7,2.7,0,0,0,1.25.46,1.78,1.78,0,0,0,1-.22,1.25,1.25,0,0,0,.47-.43.6.6,0,0,0,.04-.2Z" fill="#263238"/>
      <path id="Trazado_122268" data-name="Trazado 122268" d="M623.48,465.61a1.771,1.771,0,0,0-.91-.11,4.77,4.77,0,0,0-2.09.73,3.76,3.76,0,0,0-1.52,1.61,1.93,1.93,0,0,0-.24.88,5.133,5.133,0,0,1,.36-.82,4.1,4.1,0,0,1,1.5-1.5,5.36,5.36,0,0,1,2-.75A8.291,8.291,0,0,1,623.48,465.61Z" fill="#263238"/>
      <path id="Trazado_122269" data-name="Trazado 122269" d="M613,462.23a1.568,1.568,0,0,0,.13-.33,5.582,5.582,0,0,0,.22-.93,5,5,0,0,0-.52-3.08,4.74,4.74,0,0,0-2.24-2.18,3.323,3.323,0,0,0-.91-.28,1,1,0,0,0-.35,0,8.171,8.171,0,0,1,1.2.44,4.84,4.84,0,0,1,2.12,2.14,5.18,5.18,0,0,1,.56,3A9.009,9.009,0,0,0,613,462.23Z" fill="#263238"/>
      <path id="Trazado_122270" data-name="Trazado 122270" d="M609.18,453s.2,1,.41,2.17a7.508,7.508,0,0,0,.57,2.13c.05,0-.17-1-.38-2.17A7.19,7.19,0,0,0,609.18,453Z" fill="#263238"/>
      <path id="Trazado_122271" data-name="Trazado 122271" d="M620.06,458.16a2.48,2.48,0,0,0-1.42,0,2.44,2.44,0,0,0-1.28.6c0,.06.58-.24,1.33-.41S620.06,458.22,620.06,458.16Z" fill="#263238"/>
      <path id="Trazado_122272" data-name="Trazado 122272" d="M620.29,459.32a1.75,1.75,0,0,0-1.2,0,1.66,1.66,0,0,0-1.05.58,5.062,5.062,0,0,1,1.1-.39C619.76,459.37,620.28,459.38,620.29,459.32Z" fill="#263238"/>
      <path id="Trazado_122273" data-name="Trazado 122273" d="M621.18,460.78a1.83,1.83,0,0,0-2.3.52,4.9,4.9,0,0,1,1.1-.49A5.491,5.491,0,0,1,621.18,460.78Z" fill="#263238"/>
      <path id="Trazado_122274" data-name="Trazado 122274" d="M619.3,457.67s-.51-.14-1.3-.44a10.1,10.1,0,0,1-1.34-.65,7,7,0,0,1-.74-.47c-.22-.16-.47-.41-.46-.67s.33-.41.59-.34a1.59,1.59,0,0,1,.68.45,10.213,10.213,0,0,1,1,1.07c.57.64.88,1.06.91,1a1.536,1.536,0,0,0-.19-.32,10,10,0,0,0-.61-.81,13.533,13.533,0,0,0-1-1.11,1.71,1.71,0,0,0-.77-.51.63.63,0,0,0-.83.52,1.08,1.08,0,0,0,.55.84,6.265,6.265,0,0,0,.76.47,8.382,8.382,0,0,0,1.38.62,7.654,7.654,0,0,0,1,.27A1.439,1.439,0,0,0,619.3,457.67Z" fill="#263238"/>
      <path id="Trazado_122275" data-name="Trazado 122275" d="M618.72,457.53s.07-.48.2-1.24a5.47,5.47,0,0,1,.38-1.28,2.633,2.633,0,0,1,.41-.65c.17-.19.43-.36.63-.24a.7.7,0,0,1,.21.68,2.888,2.888,0,0,1-.22.74,4.157,4.157,0,0,1-.72,1.12c-.51.57-.92.84-.89.87a1,1,0,0,0,.29-.17,5,5,0,0,0,.7-.6,4.3,4.3,0,0,0,.79-1.14,2.771,2.771,0,0,0,.24-.8.83.83,0,0,0-.3-.87.72.72,0,0,0-.87.28,2.69,2.69,0,0,0-.44.71,4.871,4.871,0,0,0-.35,1.33c0,.39-.06.71-.07.92S618.7,457.53,618.72,457.53Z" fill="#263238"/>
      <g id="Grupo_55284" data-name="Grupo 55284" opacity="0.4">
        <path id="Trazado_122276" data-name="Trazado 122276" d="M610.09,458.66l-.78-3.26s2.71.51,3.42,2.54a8.65,8.65,0,0,1,.53,3.48l5.9,6.36s1.49-2.89,4.17-2.2c0,0,2.11,4.65,2,5.81s-1.42,1-1.9.81a23.769,23.769,0,0,1-5.29-4.18A121.769,121.769,0,0,1,610.09,458.66Z"/>
      </g>
      <path id="Trazado_122277" data-name="Trazado 122277" d="M545.59,284.44l8.07,170.74,22.17.53-1.75-148.04,33.16,148.32,17.81-.81L596.52,284.79Z" fill="#263238"/>
      <path id="Trazado_122278" data-name="Trazado 122278" d="M568.65,286.75a15.218,15.218,0,0,0,.2,2.81c.18,1.72.46,4.1.81,6.73a26.847,26.847,0,0,0,.61,3.71,5.23,5.23,0,0,0,1.63,2.65,4.07,4.07,0,0,0,1.88.93,1.5,1.5,0,0,0,.77,0,4.72,4.72,0,0,1-3.86-3.7,31.709,31.709,0,0,1-.57-3.66c-.35-2.63-.68-5-1-6.72A17,17,0,0,0,568.65,286.75Z" fill="#455a64"/>
      <path id="Trazado_122279" data-name="Trazado 122279" d="M574.1,287.76c-.06,0,.15.32,0,.77a.91.91,0,0,1-.47.55.73.73,0,0,1-.78-.19.71.71,0,0,1-.22-.76.88.88,0,0,1,.52-.5,1.048,1.048,0,0,1,.76,0c.03,0-.23-.4-.85-.28a1.141,1.141,0,1,0,.76,2.14,1.16,1.16,0,0,0,.6-.86C574.51,288,574.12,287.71,574.1,287.76Z" fill="#455a64"/>
      <path id="Trazado_122280" data-name="Trazado 122280" d="M588.17,290.71a5,5,0,0,0-.33-4.73c-.13,0,.22,1.06.3,2.35S588,290.67,588.17,290.71Z" fill="#455a64"/>
      <path id="Trazado_122281" data-name="Trazado 122281" d="M585,290.39a4.23,4.23,0,0,0,.47-2.48,4.17,4.17,0,0,0-.64-2.45,21.227,21.227,0,0,0,.17,2.46A19.093,19.093,0,0,0,585,290.39Z" fill="#455a64"/>
      <path id="Trazado_122282" data-name="Trazado 122282" d="M557.74,290.07a15.458,15.458,0,0,0-.06-2.55,15.068,15.068,0,0,0,0-2.55,4.749,4.749,0,0,0-.44,2.56,4.67,4.67,0,0,0,.5,2.54Z" fill="#455a64"/>
      <path id="Trazado_122283" data-name="Trazado 122283" d="M554.3,289.76c.13-.05-.24-1.18-.28-2.6s.24-2.58.11-2.62a4.13,4.13,0,0,0-.57,2.63,4.19,4.19,0,0,0,.74,2.59Z" fill="#455a64"/>
      <path id="Trazado_122284" data-name="Trazado 122284" d="M583.78,209.63Z" fill="#26aab7"/>
      <path id="Trazado_122285" data-name="Trazado 122285" d="M496,220s-4.09-6.92-5.05-7.64-9.56-3.71-10.29-3.47-11,2.18-9.83,3.39,8.4-.25,8.4-.25l1,.47s-6.22,1.1-7.52,1.88-.76,2.19.38,2,6.54-1.27,6.87-1.06-5.87,1.56-6.53,2c-.89.54-1,2.15.18,2.05.67-.06,6.5-1.67,6.5-1.67a50.631,50.631,0,0,0-5,2.28c-.69.68-.12,1.68.89,1.44.69-.16,3.94-1.78,4.86-2,0,0,.87.22,1.69,2s5.13,5.17,5.13,5.17Z" fill="#b78876"/>
      <path id="Trazado_122286" data-name="Trazado 122286" d="M470.83,212.28a4.62,4.62,0,0,0,1.89.49,11.24,11.24,0,0,0,2.14.06c.79-.1,1.65-.24,2.56-.38l1.92-.32h-.12a28.671,28.671,0,0,0,4.49,1.32,27.35,27.35,0,0,0-4.34-1.76h-.11l-1.91.29-2.53.41a13.488,13.488,0,0,1-2.07.05C471.57,212.37,470.85,212.21,470.83,212.28Z" fill="#aa6550"/>
      <path id="Trazado_122287" data-name="Trazado 122287" d="M463.32,207.36s-7.46,22.63-10,27.2l25.4,7.76,4.62-2.95s6.17-18.22,6.95-24.34Z" fill="#455a64"/>
      <path id="Trazado_122288" data-name="Trazado 122288" d="M480.1,238.53l-1.34,3.79,4.62-2.95Z" fill="#263238"/>
      <path id="Trazado_122289" data-name="Trazado 122289" d="M483.43,222.93a17.831,17.831,0,0,1-2.84-.89l-6.79-2.34-6.8-2.23a18.391,18.391,0,0,1-2.8-1,17.508,17.508,0,0,1,2.91.65c1.78.48,4.22,1.21,6.88,2.1s5.05,1.79,6.76,2.48a15,15,0,0,1,2.68,1.23Z" fill="#fff"/>
      <path id="Trazado_122290" data-name="Trazado 122290" d="M481.27,228a15.721,15.721,0,0,1-2.79-.63c-1.7-.46-4-1.15-6.6-2s-4.85-1.67-6.49-2.31a14.89,14.89,0,0,1-2.62-1.15,16.142,16.142,0,0,1,2.74.8l6.53,2.17,6.54,2.13a16.462,16.462,0,0,1,2.69.99Z" fill="#fff"/>
      <path id="Trazado_122291" data-name="Trazado 122291" d="M478.7,232.63a80.652,80.652,0,0,1-8.55-2.61,76.231,76.231,0,0,1-8.37-3.1,154.807,154.807,0,0,1,16.92,5.71Z" fill="#fff"/>
      <path id="Trazado_122292" data-name="Trazado 122292" d="M493.37,220.74a2.05,2.05,0,0,1-2.4,0,24.053,24.053,0,0,1-2-1.59c-2.12-1.44-5.15-1-7.21-2.59-.28-.21-.57-.57-.42-.9s.54-.34.88-.34l8.52.07" fill="#b78876"/>
      <path id="Trazado_122293" data-name="Trazado 122293" d="M490.7,215.43a3.19,3.19,0,0,0-.92-.11l-2.51-.09-3.73-.08h-1.08a1.68,1.68,0,0,0-1.24.28.71.71,0,0,0-.13.8,1.31,1.31,0,0,0,.44.54,4.73,4.73,0,0,0,1.08.64,32.163,32.163,0,0,0,4.43,1.19,6.629,6.629,0,0,1,1.77.77c.5.33.92.73,1.34,1.06a3,3,0,0,0,2.41.81c.63-.13.83-.48.81-.48a2.44,2.44,0,0,1-.83.29,2.88,2.88,0,0,1-2.17-.88A16.793,16.793,0,0,0,489,219a6.11,6.11,0,0,0-1.86-.86,39.235,39.235,0,0,1-4.36-1.21,4.939,4.939,0,0,1-1-.57c-.28-.22-.42-.52-.27-.64a1.691,1.691,0,0,1,.9-.14h4.81c1.06,0,1.92,0,2.51-.06A3.62,3.62,0,0,0,490.7,215.43Z" fill="#aa6550"/>
    </g>
    <g id="freepik--character-1--inject-2">
      <path id="Trazado_122294" data-name="Trazado 122294" d="M297.68,179.72a7.77,7.77,0,0,0-3.18-7.78,8.38,8.38,0,0,0-8.46-.44,9.11,9.11,0,0,0-4.67,7.15c-.28,3.35,1.23,6.54,2.52,9.64s2.41,6.57,1.34,9.75c-.88,2.63-3.09,4.54-5,6.56a13.29,13.29,0,0,0-3.74,6.44c-.46,2.47.46,5.34,2.7,6.51a3.5,3.5,0,0,1,1.41.92c.62.88,0,2.05-.45,3a6.94,6.94,0,0,0-.23,4.69c1,3.36,4.71,5.51,8.22,5.31a11.51,11.51,0,0,0,8.64-5.36,19.86,19.86,0,0,0,2.9-10,75.5,75.5,0,0,0-.59-10.51c-.82-8.78,3.28-17.87,3.72-26.68" fill="#263238"/>
      <path id="Trazado_122295" data-name="Trazado 122295" d="M305.56,232.07h0a8.8,8.8,0,0,0,9.46-8.43c.18-4.79.34-9.62.34-9.62s7.25-.68,7.78-7.86.28-23.74.28-23.74h0A25,25,0,0,0,298.15,184l.45,25.26v13.59C298.65,227.44,301,231.72,305.56,232.07Z" fill="#ffbe9d"/>
      <path id="Trazado_122296" data-name="Trazado 122296" d="M316,197.4a3.67,3.67,0,0,0-4.91-1.07,4.17,4.17,0,0,0-1.39,5.21,5.54,5.54,0,0,0,3.52,2.67,2.74,2.74,0,0,1,2.16,3,9.24,9.24,0,0,1-2.52,5,13.26,13.26,0,0,1-8.3,3.94c-3.06.36-6.56-.28-8.34-2.79-1.3-1.83-1.39-4.22-1.43-6.46l-.34-15.9a22.64,22.64,0,0,1,.36-5.7,7.69,7.69,0,0,1,3-4.71c1.75-1.15,4-1.24,5.95-1.89,2.48-.8,4.59-2.45,6.92-3.64s5.18-1.9,7.51-.73c1.68.84,2.8,2.52,4.43,3.44,2.32,1.32,5.48,1,6.6,4.43a5.84,5.84,0,0,1,0,3.65c-1.58,4.65-7.33,6.52-11.47,4.51-.08.79.69,2.54-.13,5-.27.8-.36,2-1.6,2" fill="#263238"/>
      <path id="Trazado_122297" data-name="Trazado 122297" d="M296.08,212.58a21.55,21.55,0,0,1-1.16-30" fill="#263238"/>
      <path id="Trazado_122298" data-name="Trazado 122298" d="M301.54,214.89a1.619,1.619,0,0,1-.37.11,4.2,4.2,0,0,1-1.09,0,6.06,6.06,0,0,1-3.51-1.83,18.109,18.109,0,0,1-3.17-5,31.94,31.94,0,0,1-2.36-6.8,25.781,25.781,0,0,1-.61-7.18,22.608,22.608,0,0,1,1.09-5.78,19.229,19.229,0,0,1,1.62-3.62c.24-.41.44-.71.58-.91s.23-.3.24-.29a31.9,31.9,0,0,0-2.08,4.93,23.919,23.919,0,0,0-1,5.69,26.41,26.41,0,0,0,.64,7,32.61,32.61,0,0,0,2.29,6.71,18.35,18.35,0,0,0,3,4.91,6.11,6.11,0,0,0,3.28,1.89A8.89,8.89,0,0,0,301.54,214.89Z" fill="#455a64"/>
      <path id="Trazado_122299" data-name="Trazado 122299" d="M294.1,183.3c.08,0,.64,1,1.72,2.66a34.9,34.9,0,0,0,4.86,5.84,35.28,35.28,0,0,0,6,4.62c1.67,1,2.77,1.53,2.73,1.61a3.12,3.12,0,0,1-.82-.27q-1.074-.447-2.1-1a29.76,29.76,0,0,1-6.21-4.57,29,29,0,0,1-4.81-6,21,21,0,0,1-1.11-2.06,3,3,0,0,1-.26-.83Z" fill="#455a64"/>
      <path id="Trazado_122300" data-name="Trazado 122300" d="M308,194.5a8.75,8.75,0,0,1-2.32-1.15,26.69,26.69,0,0,1-8.78-8.82,9,9,0,0,1-1.14-2.32,20.33,20.33,0,0,1,1.45,2.12,32.85,32.85,0,0,0,8.67,8.71A22.828,22.828,0,0,1,308,194.5Z" fill="#455a64"/>
      <path id="Trazado_122301" data-name="Trazado 122301" d="M317.31,194.5a3.7,3.7,0,0,1-1-.08,19.756,19.756,0,0,1-2.66-.54A27.88,27.88,0,0,1,299,184.05a19.078,19.078,0,0,1-1.51-2.25,3.529,3.529,0,0,1-.45-.89c.08,0,.81,1.17,2.25,2.91a31.23,31.23,0,0,0,6.54,5.91,30.881,30.881,0,0,0,7.94,3.79C315.93,194.19,317.33,194.41,317.31,194.5Z" fill="#455a64"/>
      <path id="Trazado_122302" data-name="Trazado 122302" d="M288.18,224.4a3.84,3.84,0,0,0,.31-.63,3.15,3.15,0,0,0,.09-1.94,4.72,4.72,0,0,0-1.72-2.54c-.95-.79-2.22-1.41-3.55-2.29a8,8,0,0,1-1.86-1.69,4.64,4.64,0,0,1-.95-2.59,8.69,8.69,0,0,1,2.09-5.55c1.25-1.68,2.86-3.2,3.8-5.21a11.72,11.72,0,0,0,.75-6.7,31,31,0,0,0-1.92-6.66,50.178,50.178,0,0,1-2.08-6.2,10.487,10.487,0,0,1-.07-6,4.34,4.34,0,0,1,1.76-2.12,3.25,3.25,0,0,1,2.53-.33,7.78,7.78,0,0,1,3.44,2.54l2.1,2.41,1.32,1.54a5.107,5.107,0,0,1,.43.56,5.373,5.373,0,0,1-.51-.49l-1.39-1.47-2.16-2.36a7.75,7.75,0,0,0-3.32-2.38,2.9,2.9,0,0,0-2.23.32,4,4,0,0,0-1.57,1.94c-.64,1.68-.33,3.7.14,5.68a50.538,50.538,0,0,0,2.09,6.13,31,31,0,0,1,2,6.76,12.3,12.3,0,0,1-.81,7c-1,2.12-2.65,3.65-3.88,5.28a8.34,8.34,0,0,0-2,5.24,4.25,4.25,0,0,0,.84,2.37,7.7,7.7,0,0,0,1.75,1.63,39,39,0,0,1,3.52,2.37,4.85,4.85,0,0,1,1.73,2.72,3.16,3.16,0,0,1-.18,2,1.82,1.82,0,0,1-.49.66Z" fill="#455a64"/>
      <path id="Trazado_122303" data-name="Trazado 122303" d="M271.28,455.71l4.87-5.93-11-9.21-7.23,8.61.65.61c2.91,2.71,15,13.58,17.54,14.66C278.91,465.65,271.28,455.71,271.28,455.71Z" fill="#26aab7"/>
      <g id="Grupo_55285" data-name="Grupo 55285" opacity="0.5">
        <path id="Trazado_122304" data-name="Trazado 122304" d="M262,452.43a5,5,0,0,0,.56-3.53,4.91,4.91,0,0,0-1.92-3L258,449Z" fill="#fff"/>
      </g>
      <g id="Grupo_55286" data-name="Grupo 55286" opacity="0.4">
        <path id="Trazado_122305" data-name="Trazado 122305" d="M274.87,460.73s2.5,3.69,1.64,3.89S263,454.3,257.87,449.18l.23-.23,14.6,12.39S274.2,460.22,274.87,460.73Z" fill="#fff"/>
      </g>
      <path id="Trazado_122306" data-name="Trazado 122306" d="M257.93,448.79a1.324,1.324,0,0,0,.17.18l.52.49,1.94,1.76c1.64,1.48,3.94,3.48,6.53,5.65s5,4.06,6.72,5.42l2.08,1.59.57.42.2.14-.18-.16-.55-.45-2.05-1.64c-1.72-1.38-4.09-3.3-6.68-5.46s-4.9-4.15-6.56-5.6l-2-1.72-.54-.46Z" fill="#263238"/>
      <path id="Trazado_122307" data-name="Trazado 122307" d="M272.56,461.51a6.646,6.646,0,0,1,1.17-.65,5.69,5.69,0,0,1,1.33-.19,2.32,2.32,0,0,0-2.5.84Z" fill="#263238"/>
      <path id="Trazado_122308" data-name="Trazado 122308" d="M270.68,457.14a1.67,1.67,0,0,0,.7-.14c.37-.12.66-.25.65-.3a1.65,1.65,0,0,0-.7.14C271,457,270.66,457.09,270.68,457.14Z" fill="#263238"/>
      <path id="Trazado_122309" data-name="Trazado 122309" d="M270.18,455.92c0,.05.27.08.6.06s.61-.06.6-.11a1.25,1.25,0,0,0-.6-.06C270.44,455.82,270.18,455.87,270.18,455.92Z" fill="#263238"/>
      <path id="Trazado_122310" data-name="Trazado 122310" d="M270.48,454.4a3.21,3.21,0,0,0,.52.56c.32.27.59.46.63.42s-.2-.28-.52-.55a2,2,0,0,0-.63-.43Z" fill="#263238"/>
      <path id="Trazado_122311" data-name="Trazado 122311" d="M270.9,453.51a2.16,2.16,0,0,0,1.23,1.19,6.6,6.6,0,0,0-.62-.59C271.18,453.79,270.94,453.48,270.9,453.51Z" fill="#263238"/>
      <path id="Trazado_122312" data-name="Trazado 122312" d="M271.86,456.49a2.62,2.62,0,0,0,.71.58,5.319,5.319,0,0,0,.9.47,2.649,2.649,0,0,0,.58.18.53.53,0,0,0,.36-.07.4.4,0,0,0,.13-.38,1.72,1.72,0,0,0-2.56-.68.61.61,0,0,0-.18.18,2.671,2.671,0,0,1,.83-.34,1.76,1.76,0,0,1,.94.11,1.45,1.45,0,0,1,.79.77c.05.17-.11.27-.29.24a2.849,2.849,0,0,1-.55-.16,6.793,6.793,0,0,1-.89-.42C272.15,456.69,271.87,456.46,271.86,456.49Z" fill="#263238"/>
      <path id="Trazado_122313" data-name="Trazado 122313" d="M272,456.67a.968.968,0,0,0,.49-.42,1.34,1.34,0,0,0,.24-.68.9.9,0,0,0-.29-.85.36.36,0,0,0-.49.14,1,1,0,0,0-.14.42,2.929,2.929,0,0,0,0,.71,1.37,1.37,0,0,0,.17.62v-.63a2.771,2.771,0,0,1,.06-.67c0-.24.18-.56.39-.44s.22.46.21.69a1.5,1.5,0,0,1-.18.63A3.13,3.13,0,0,1,272,456.67Z" fill="#263238"/>
      <path id="Trazado_122314" data-name="Trazado 122314" d="M260.67,446a9.743,9.743,0,0,1,.8.71,4.5,4.5,0,0,1,1,4.72c-.23.61-.48.94-.45,1s.08-.07.19-.22a4.252,4.252,0,0,0,.37-.7,4.34,4.34,0,0,0-1-4.85,3.911,3.911,0,0,0-.62-.49C260.77,446,260.68,446,260.67,446Z" fill="#263238"/>
      <path id="Trazado_122315" data-name="Trazado 122315" d="M265.65,442.32a27.464,27.464,0,0,0-2,2.19,23.627,23.627,0,0,0-1.86,2.3,49.1,49.1,0,0,0,3.84-4.49Z" fill="#263238"/>
      <path id="Trazado_122316" data-name="Trazado 122316" d="M264.24,452.51a11.581,11.581,0,0,0,3.2,2.72s-.73-.6-1.61-1.35S264.28,452.48,264.24,452.51Z" fill="#263238"/>
      <path id="Trazado_122317" data-name="Trazado 122317" d="M262.08,450.7c-.05,0-.07.2-.13.43s-.15.41-.11.44.2-.13.27-.39S262.13,450.7,262.08,450.7Z" fill="#263238"/>
      <path id="Trazado_122318" data-name="Trazado 122318" d="M262.11,449c-.05,0-.07.17-.06.39s.08.37.12.37.08-.18.06-.39S262.16,449,262.11,449Z" fill="#263238"/>
      <path id="Trazado_122319" data-name="Trazado 122319" d="M261.33,447.57s.12.16.24.36.16.37.21.37.08-.23-.06-.46S261.35,447.52,261.33,447.57Z" fill="#263238"/>
      <path id="Trazado_122320" data-name="Trazado 122320" d="M260.68,446.66v.24c0,.11.14.19.19.16s0-.13,0-.24S260.72,446.63,260.68,446.66Z" fill="#263238"/>
      <path id="Trazado_122321" data-name="Trazado 122321" d="M322,458.17l-.17-7.68-14.38.23.13,11.24h.89c4,.16,20.21.52,22.85-.33C334.3,460.73,322,458.17,322,458.17Z" fill="#26aab7"/>
      <g id="Grupo_55287" data-name="Grupo 55287" opacity="0.5">
        <path id="Trazado_122322" data-name="Trazado 122322" d="M312.82,461.76a5,5,0,0,0-1.88-3,4.85,4.85,0,0,0-3.38-1l.06,4Z" fill="#fff"/>
      </g>
      <g id="Grupo_55288" data-name="Grupo 55288" opacity="0.4">
        <path id="Trazado_122323" data-name="Trazado 122323" d="M328,459.63s4.3,1.17,3.78,1.88-16.95,1-24.2.45v-.33l19.16-.13S327.19,459.68,328,459.63Z" fill="#fff"/>
      </g>
      <path id="Trazado_122324" data-name="Trazado 122324" d="M307.4,461.63h.96l2.62.08c2.21,0,5.26.06,8.63,0s6.42-.17,8.63-.28l2.61-.15.71-.05a.791.791,0,0,0,.25,0h-.96l-2.61.09c-2.21.08-5.26.17-8.63.22s-6.42,0-8.63,0H307.4Z" fill="#263238"/>
      <path id="Trazado_122325" data-name="Trazado 122325" d="M326.79,461.73a5.361,5.361,0,0,1,.47-1.26,5.63,5.63,0,0,1,.87-1,2.32,2.32,0,0,0-1.34,2.27Z" fill="#263238"/>
      <path id="Trazado_122326" data-name="Trazado 122326" d="M322.51,459.64a3.05,3.05,0,0,0,.44-.56c.2-.33.34-.62.3-.65s-.24.22-.44.56S322.47,459.61,322.51,459.64Z" fill="#263238"/>
      <path id="Trazado_122327" data-name="Trazado 122327" d="M321.34,459a2.3,2.3,0,0,0,.5-.35c.25-.23.41-.43.38-.47s-.26.12-.5.35S321.3,459,321.34,459Z" fill="#263238"/>
      <path id="Trazado_122328" data-name="Trazado 122328" d="M320.58,457.69a1.62,1.62,0,0,0,.75.09.38.38,0,1,0,0-.18A2,2,0,0,0,320.58,457.69Z" fill="#263238"/>
      <path id="Trazado_122329" data-name="Trazado 122329" d="M320.31,456.74a1.48,1.48,0,0,0,.84.23,1.4,1.4,0,0,0,.86-.13,4.769,4.769,0,0,0-.85,0,4.238,4.238,0,0,0-.85-.1Z" fill="#263238"/>
      <path id="Trazado_122330" data-name="Trazado 122330" d="M323,458.38a2.871,2.871,0,0,0,.92,0,4.792,4.792,0,0,0,1-.24,2.061,2.061,0,0,0,.56-.24.53.53,0,0,0,.23-.29.35.35,0,0,0-.15-.36,1.69,1.69,0,0,0-2.09.52,1.88,1.88,0,0,0-.29.63.61.61,0,0,0,0,.25,2.58,2.58,0,0,1,.41-.8,1.6,1.6,0,0,1,.78-.52,1.4,1.4,0,0,1,1.1.05c.15.11.1.28-.06.38a2.419,2.419,0,0,1-.52.23,6.734,6.734,0,0,1-.95.27A8.3,8.3,0,0,0,323,458.38Z" fill="#263238"/>
      <path id="Trazado_122331" data-name="Trazado 122331" d="M323.22,458.42a1,1,0,0,0,.09-.64,1.45,1.45,0,0,0-.26-.68.93.93,0,0,0-.77-.46.37.37,0,0,0-.28.44,1,1,0,0,0,.16.41,2.6,2.6,0,0,0,.45.55c.29.28.52.38.53.36s-.19-.16-.45-.45a2.511,2.511,0,0,1-.39-.55c-.13-.19-.22-.54,0-.58s.47.2.61.38a1.51,1.51,0,0,1,.27.6,3.2,3.2,0,0,1,.04.62Z" fill="#263238"/>
      <path id="Trazado_122332" data-name="Trazado 122332" d="M307.64,457.69a5.922,5.922,0,0,1,1.06,0,4.5,4.5,0,0,1,3.81,3c.23.61.26,1,.29,1a.74.74,0,0,0,0-.29,4.137,4.137,0,0,0-.17-.78,4.51,4.51,0,0,0-1.49-2.12,4.46,4.46,0,0,0-2.43-.9,3.65,3.65,0,0,0-.79,0C307.73,457.65,307.63,457.68,307.64,457.69Z" fill="#263238"/>
      <path id="Trazado_122333" data-name="Trazado 122333" d="M309,451.68a27.274,27.274,0,0,0-.07,3,24.165,24.165,0,0,0,.09,2.95,25.562,25.562,0,0,0,.08-2.95,23,23,0,0,0-.1-3Z" fill="#263238"/>
      <path id="Trazado_122334" data-name="Trazado 122334" d="M314.61,460.33a9,9,0,0,0,2.11.18,8,8,0,0,0,2.1-.21c0-.05-.95,0-2.11,0A18.43,18.43,0,0,0,314.61,460.33Z" fill="#263238"/>
      <path id="Trazado_122335" data-name="Trazado 122335" d="M311.79,460.37s.08.2.18.41.16.4.21.4.07-.23-.05-.47S311.82,460.33,311.79,460.37Z" fill="#263238"/>
      <path id="Trazado_122336" data-name="Trazado 122336" d="M310.71,459.06a.861.861,0,0,0,.21.33c.15.14.3.25.34.21s-.06-.18-.21-.33S310.74,459,310.71,459.06Z" fill="#263238"/>
      <path id="Trazado_122337" data-name="Trazado 122337" d="M309.18,458.48a.968.968,0,0,1,.42.12c.22.12.36.18.4.15s-.09-.23-.35-.32S309.17,458.44,309.18,458.48Z" fill="#263238"/>
      <path id="Trazado_122338" data-name="Trazado 122338" d="M308.09,458.21c0,.05.07.12.19.17a.39.39,0,0,0,.25,0c.02,0-.07-.11-.19-.16S308.11,458.17,308.09,458.21Z" fill="#263238"/>
      <path id="Trazado_122339" data-name="Trazado 122339" d="M301.21,295s-4.79,20.26-3.43,24.27,10.12,6.33,10.12,6.33l-.29,55.49-48.53,60L277,455.76s52.53-60.1,57.16-71-3-90.65-3-90.65Z" fill="#263238"/>
      <path id="Trazado_122340" data-name="Trazado 122340" d="M326,286.77l2.38,168.53-24.69.12-16-134.54h0c-2.44-8-5.22-16.35-4.72-25.89l3.31-9.69Z" fill="#263238"/>
      <path id="Trazado_122341" data-name="Trazado 122341" d="M297.37,312.51a5,5,0,0,1,.58.5c.35.35.88.87,1.52,1.57,1.3,1.4,3.12,3.49,5.29,6.19h0v.06c.45,7.55,1.34,18.56,2.41,30.79.85,10,1.73,19.06,2.27,26.15v.07l-.05.06-6.87,9.2-1.9,2.5-.51.65-.19.21s0-.09.14-.25l.46-.68,1.82-2.57,6.73-9.3v.12c-.65-7.08-1.48-16.19-2.39-26.12-1.07-12.23-1.89-23.25-2.24-30.81v.1c-2.13-2.72-3.91-4.85-5.16-6.28-.62-.72-1.12-1.26-1.45-1.63a3.6,3.6,0,0,1-.46-.53Z" fill="#455a64"/>
      <path id="Trazado_122342" data-name="Trazado 122342" d="M324.45,378.42a24.349,24.349,0,0,0-6.67-1.74,25.341,25.341,0,0,0-6.85.66,5.56,5.56,0,0,1,1.92-.75,15.15,15.15,0,0,1,9.82.78,5.32,5.32,0,0,1,1.78,1.05Z" fill="#455a64"/>
      <path id="Trazado_122343" data-name="Trazado 122343" d="M333.16,386.22c.11.09-6.83,9.41-15.51,20.82s-15.81,20.59-15.92,20.5,6.82-9.41,15.51-20.82S333,386.14,333.16,386.22Z" fill="#455a64"/>
      <path id="Trazado_122344" data-name="Trazado 122344" d="M332,299.29a4.25,4.25,0,0,1-1.39,1.83,6.88,6.88,0,0,1-10.07-1.06,4.08,4.08,0,0,1-1-2.08,21.628,21.628,0,0,0,1.26,1.85,6.86,6.86,0,0,0,9.54,1C331.42,300,331.87,299.23,332,299.29Z" fill="#455a64"/>
      <path id="Trazado_122345" data-name="Trazado 122345" d="M278.76,250.58s-3.75,27.42,0,30.89,7.34,2.33,7.34,2.33l7.13-6,1.4-27.26Z" fill="#ffbe9d"/>
      <path id="Trazado_122346" data-name="Trazado 122346" d="M282.22,228.3s-5.36,6.06-6.47,29.23c0,0,15.27,2.9,15.55,2.06S282.22,228.3,282.22,228.3Z" fill="#f5ca56"/>
      <path id="Trazado_122347" data-name="Trazado 122347" d="M282.93,295l48.65.79-.75-7.32s-5.36-27.87-5.32-28.23l.84-1.78a16.19,16.19,0,0,0,.41-14.08h23.62l-1-19.16-24.79-3.65-9.22-.73s-16.25.85-16.6.89c-6.8.82-14.71,1.34-17.6,8.62-1.55,3.89-.08,9.73,2.44,15.76l6,18.49c2.4,10.17-1.43,9.69-3.53,19.92C285.78,286.06,282.9,293.57,282.93,295Z" fill="#f5ca56"/>
      <path id="Trazado_122348" data-name="Trazado 122348" d="M346.58,226.08c0,.14-13.87.26-31,.26s-31-.12-31-.26,13.86-.27,31-.27S346.58,225.93,346.58,226.08Z" fill="#fafafa"/>
      <path id="Trazado_122349" data-name="Trazado 122349" d="M348,235.28c0,.15-15.42.26-34.45.26s-34.45-.11-34.45-.26,15.42-.26,34.45-.26S348,235.14,348,235.28Z" fill="#fafafa"/>
      <path id="Trazado_122350" data-name="Trazado 122350" d="M282.93,245.76a16,16,0,0,1-5.74,0A16,16,0,0,1,282.93,245.76Z" fill="#fafafa"/>
      <path id="Trazado_122351" data-name="Trazado 122351" d="M328,246.08c0,.14-10.09.26-22.53.26s-22.54-.12-22.54-.26,10.09-.26,22.54-.26S328,245.94,328,246.08Z" fill="#fafafa"/>
      <path id="Trazado_122352" data-name="Trazado 122352" d="M327,256.88c0,.14-9.06.26-20.23.26s-20.22-.12-20.22-.26,9.05-.26,20.22-.26S327,256.73,327,256.88Z" fill="#fafafa"/>
      <path id="Trazado_122353" data-name="Trazado 122353" d="M326.71,266.88c0,.14-8.21.26-18.33.26s-18.33-.12-18.33-.26,8.21-.26,18.33-.26S326.71,266.74,326.71,266.88Z" fill="#fafafa"/>
      <path id="Trazado_122354" data-name="Trazado 122354" d="M328.32,275c0,.14-8.78.26-19.61.26s-19.61-.12-19.61-.26,8.78-.26,19.61-.26S328.32,274.83,328.32,275Z" fill="#fafafa"/>
      <path id="Trazado_122355" data-name="Trazado 122355" d="M330.86,285.3c0,.14-10,.26-22.31.26s-22.31-.12-22.31-.26,10-.26,22.31-.26S330.86,285.15,330.86,285.3Z" fill="#fafafa"/>
      <path id="Trazado_122356" data-name="Trazado 122356" d="M289.35,263.73a4,4,0,0,1-.41-.92c-.28-.72-.6-1.57-1-2.56-.82-2.17-2-5.15-3.19-8.47s-2.21-6.37-2.84-8.61c-.32-1.11-.55-2-.69-2.66a4.439,4.439,0,0,1-.16-1,36.128,36.128,0,0,1,1.2,3.56c.72,2.19,1.77,5.21,3,8.53s2.31,6.32,3.05,8.52c.37,1.1.65,2,.83,2.62A3.3,3.3,0,0,1,289.35,263.73Z" fill="#263238"/>
      <g id="Grupo_55289" data-name="Grupo 55289" opacity="0.2">
        <path id="Trazado_122357" data-name="Trazado 122357" d="M292.89,282a48.091,48.091,0,0,0,12.65-7.14,23,23,0,0,0,7.92-11.95c.21-.89.24-2.06-.57-2.49a1.57,1.57,0,0,0-1.79.45,6.32,6.32,0,0,0-1,1.72,12.46,12.46,0,0,1-4.31,5.09c-2.14,1.45-4.67,2.18-7.07,3.13s-4.82,2.22-6.26,4.36-1.57,5.36.33,7.1"/>
      </g>
      <path id="Trazado_122358" data-name="Trazado 122358" d="M315,254.34v1.52a26.719,26.719,0,0,1-.6,4.09,29.14,29.14,0,0,1-16.81,20.34,26.491,26.491,0,0,1-3.9,1.36c-.47.13-.84.2-1.09.25a1.459,1.459,0,0,1-.39.05,8.659,8.659,0,0,1,1.42-.49,32.809,32.809,0,0,0,3.81-1.51,30,30,0,0,0,16.6-20.09,34,34,0,0,0,.76-4A11,11,0,0,1,315,254.34Z" fill="#263238"/>
      <path id="Trazado_122359" data-name="Trazado 122359" d="M352.65,178.42s-.11-.62-.21-1.84a19.57,19.57,0,0,1,.42-5.41,22.42,22.42,0,0,1,12.8-15.63,24.64,24.64,0,0,1,6.93-1.91,26.779,26.779,0,0,1,7.92.17,29,29,0,0,1,15.68,8.32,34.609,34.609,0,0,1,6,8,31.75,31.75,0,0,1,3.37,10.1,30,30,0,0,1-.33,11.26,25.329,25.329,0,0,1-1.94,5.56,22.543,22.543,0,0,1-3.4,5,23,23,0,0,1-10.59,6.44,39.091,39.091,0,0,1-12.95,1.33A51.361,51.361,0,0,1,363,207.43a23.11,23.11,0,0,1-11.48-8,23.82,23.82,0,0,1-4.42-13.76,26.461,26.461,0,0,1,1-7.42,30.8,30.8,0,0,1,3.11-6.94,33.889,33.889,0,0,1,4.87-6,33.168,33.168,0,0,1,6.31-4.63,29.3,29.3,0,0,1,7.44-2.76,26.92,26.92,0,0,1,8-.42,31.73,31.73,0,0,1,25.53,18.77,27.41,27.41,0,0,1,1.49,16.82,21.87,21.87,0,0,1-3.6,7.9,19.41,19.41,0,0,1-6.68,5.65,24.08,24.08,0,0,1-8.47,2.49,30.289,30.289,0,0,1-8.91-.37,30.9,30.9,0,0,1-15.81-8.25,25.19,25.19,0,0,1-5.26-7.44,19.46,19.46,0,0,1-1.74-9c.34-6.23,3.65-12,8.25-16.21a29.24,29.24,0,0,1,16.71-7.48,25,25,0,0,1,17.31,4.81,22.63,22.63,0,0,1,6,6.74,19.62,19.62,0,0,1,1.83,4.14c.26.71.4,1.45.59,2.18a12,12,0,0,1,.33,2.23,24.18,24.18,0,0,1-4.64,16.82,26.15,26.15,0,0,1-14.37,9.44,28.17,28.17,0,0,1-16.88-.83c-10.64-3.86-18.87-13.35-20.64-24.09a23.24,23.24,0,0,1,2.69-15.5,27.06,27.06,0,0,1,11.09-10.65,33,33,0,0,1,14.55-3.6,38,38,0,0,1,14.33,2.49c9,3.4,16.35,10.21,19.58,18.57A28.45,28.45,0,0,1,409,197.81a23.17,23.17,0,0,1-8.53,8.2,28.1,28.1,0,0,1-10.75,3.35,36.57,36.57,0,0,1-20-4.07,44.41,44.41,0,0,1-14.17-10.93A28.62,28.62,0,0,1,349,181a22.06,22.06,0,0,1,1.34-11.88,19.82,19.82,0,0,1,5-7.25,16.5,16.5,0,0,1,4.56-2.93c1.15-.41,1.75-.59,1.75-.59l-.44.16c-.29.11-.73.26-1.29.48a16.9,16.9,0,0,0-4.51,3,19.83,19.83,0,0,0-4.9,7.23A22,22,0,0,0,349.2,181a28.42,28.42,0,0,0,6.56,13.34,44.31,44.31,0,0,0,14.11,10.83,36.32,36.32,0,0,0,19.88,4,27.92,27.92,0,0,0,10.61-3.32,22.73,22.73,0,0,0,8.38-8.1,28.08,28.08,0,0,0,2.06-24.34c-3.2-8.23-10.51-15-19.36-18.31a37.561,37.561,0,0,0-14.17-2.44,32.47,32.47,0,0,0-14.35,3.55A26.72,26.72,0,0,0,352,166.65a22.77,22.77,0,0,0-2.63,15.19c1.74,10.55,9.86,19.91,20.34,23.7a27.61,27.61,0,0,0,16.59.81,25.59,25.59,0,0,0,14.08-9.26A23.67,23.67,0,0,0,405,180.63c-.05-.73-.22-1.45-.33-2.18a21.721,21.721,0,0,0-2.35-6.16,22.4,22.4,0,0,0-5.91-6.59,24.2,24.2,0,0,0-17-4.7A28.72,28.72,0,0,0,363,168.3c-4.51,4.1-7.75,9.79-8.08,15.85a19,19,0,0,0,1.69,8.77,24.88,24.88,0,0,0,5.15,7.28,30.39,30.39,0,0,0,15.55,8.11,29.9,29.9,0,0,0,8.75.37,23.16,23.16,0,0,0,8.29-2.44,18.73,18.73,0,0,0,6.51-5.5,21.23,21.23,0,0,0,3.52-7.7,27,27,0,0,0-1.46-16.52A31.27,31.27,0,0,0,377.8,158a27,27,0,0,0-7.88.41,28.889,28.889,0,0,0-7.3,2.72,32.12,32.12,0,0,0-6.22,4.54,32.619,32.619,0,0,0-4.8,5.9,30.228,30.228,0,0,0-3.07,6.82,26.229,26.229,0,0,0-1,7.29,23.39,23.39,0,0,0,4.33,13.5A22.6,22.6,0,0,0,363.11,207a51.319,51.319,0,0,0,13.23,2.41,38.49,38.49,0,0,0,12.82-1.3,21.45,21.45,0,0,0,13.78-11.23,25,25,0,0,0,1.92-5.48,29.89,29.89,0,0,0,.35-11.13,32.58,32.58,0,0,0-9.22-18A28.8,28.8,0,0,0,380.47,154a26.33,26.33,0,0,0-7.85-.18,24.361,24.361,0,0,0-6.88,1.87,22,22,0,0,0-9.2,7.48,22.31,22.31,0,0,0-3.58,8,20.289,20.289,0,0,0-.47,5.39,13.575,13.575,0,0,0,.12,1.38C352.63,178.25,352.65,178.42,352.65,178.42Z" fill="#26aab7"/>
      <path id="Trazado_122360" data-name="Trazado 122360" d="M392,173.24c0,.13-6.51,2.31-14.63,4.86s-14.75,4.51-14.79,4.37,6.51-2.31,14.63-4.86S391.91,173.1,392,173.24Z" fill="#26aab7"/>
      <path id="Trazado_122361" data-name="Trazado 122361" d="M393.81,178c.05.13-6.06,2.36-13.64,5s-13.75,4.61-13.8,4.47,6.06-2.36,13.64-5S393.76,177.85,393.81,178Z" fill="#26aab7"/>
      <path id="Trazado_122362" data-name="Trazado 122362" d="M382.62,187.76c.16.22-3,1.47-6.82,2.83-1.92.68-3.68,1.26-5,1.66a8.759,8.759,0,0,1-2.11.54,9.31,9.31,0,0,1,2-.89c1.25-.48,3-1.12,4.91-1.8s3.68-1.28,4.95-1.7S382.67,187.74,382.62,187.76Z" fill="#26aab7"/>
      <path id="Trazado_122363" data-name="Trazado 122363" d="M388.26,192.47s-4.58-2.12-4.8-1,.09,1.57,1,1.85,3.39,1.12,3.39,1.12Z" fill="#ffbe9d"/>
      <path id="Trazado_122364" data-name="Trazado 122364" d="M388,194.56s-4.58-2.12-4.8-1,.08,1.56,1,1.85,3.39,1.12,3.39,1.12Z" fill="#eb996e"/>
      <path id="Trazado_122365" data-name="Trazado 122365" d="M377.47,199.24,360.09,222c-2.48,3.67-6.33,5.5-8.93,5.57l-1.63.14.81,15.51,6.86-.78a13.8,13.8,0,0,0,10.37-6.78l17.67-30.54a52.544,52.544,0,0,0,3.1-6.1c1-2.64-.08-6.59-.08-6.59l-7,4.42v-4.77s-.75-.26-2.21,1.17C377.79,194.52,377.47,199.24,377.47,199.24Z" fill="#ffbe9d"/>
      <path id="Trazado_122366" data-name="Trazado 122366" d="M381.15,190.06l.09,16.79a1.36,1.36,0,0,0,1.45,1.35h0a1.36,1.36,0,0,0,1.26-1.36v-17l-1.6-2.6Z" fill="#455a64"/>
      <path id="Trazado_122367" data-name="Trazado 122367" d="M382.33,187.29l-.44,1.01,1.03-.05Z" fill="#263238"/>
      <path id="Trazado_122368" data-name="Trazado 122368" d="M383.93,189.88a2.24,2.24,0,0,1-1.39.44,2.56,2.56,0,0,1-1.44-.25c0-.07.65.09,1.43.05S383.9,189.82,383.93,189.88Z" fill="#263238"/>
      <path id="Trazado_122369" data-name="Trazado 122369" d="M382.5,208.2a4.167,4.167,0,0,1-.05-.71c0-.58,0-1.22,0-1.93,0-1.81,0-4-.05-6.37s0-4.55,0-6.36V190.9a3.61,3.61,0,0,1,0-.71,4.994,4.994,0,0,1,0,.71c0,.58,0,1.22,0,1.93v14.66a6.87,6.87,0,0,1,.1.71Z" fill="#263238"/>
    </g>
  </g>
</svg>
