<svg xmlns="http://www.w3.org/2000/svg" width="49" height="48.999" viewBox="0 0 49 48.999">
  <g id="social-media" transform="translate(0)">
    <path id="Trazado_128044" data-name="Trazado 128044" d="M46.368.008H43.324a.718.718,0,0,0,0,1.436h3.045a1.2,1.2,0,0,1,1.2,1.2V18.368a1.2,1.2,0,0,1-1.2,1.2H44.19a.718.718,0,0,0-.718.718v1.934l-2.441-2.441a.718.718,0,0,0-.508-.21H26.553V14.251a2.636,2.636,0,0,0-2.67-2.632V2.64a1.2,1.2,0,0,1,1.2-1.2H39.238a.718.718,0,0,0,0-1.436H25.079A2.635,2.635,0,0,0,22.447,2.64v8.98H2.632A2.635,2.635,0,0,0,0,14.251V29.98a2.635,2.635,0,0,0,2.632,2.632h1.46v2.949a.721.721,0,0,0,1.225.508l3.456-3.456h5.644v10.1a2.635,2.635,0,0,0,2.632,2.632H32.2L35.653,48.8a.721.721,0,0,0,1.225-.508V45.341h1.46a2.635,2.635,0,0,0,2.632-2.632V26.981a2.635,2.635,0,0,0-2.632-2.632H26.553V21H40.226l3.456,3.456a.721.721,0,0,0,1.225-.508V21h1.46A2.635,2.635,0,0,0,49,18.368V2.64A2.635,2.635,0,0,0,46.368.008ZM14.418,26.981v.42c-.492.261-.9.446-1.143.554A18.047,18.047,0,0,1,10.612,26.5a.718.718,0,0,0-.794,1.2,18.56,18.56,0,0,0,3.2,1.709.717.717,0,0,0,.52,0c.022-.008.358-.14.882-.393v2.167H8.476a.718.718,0,0,0-.508.21L5.528,33.828V31.894a.718.718,0,0,0-.718-.718H2.632a1.2,1.2,0,0,1-1.2-1.2V14.251a1.2,1.2,0,0,1,1.2-1.2H23.921a1.2,1.2,0,0,1,1.2,1.2v10.1H20.3a7.228,7.228,0,0,0,1.386-4.18,4.824,4.824,0,0,0-4.785-4.85A4.735,4.735,0,0,0,13.277,17a4.736,4.736,0,0,0-3.626-1.683,4.824,4.824,0,0,0-4.786,4.85,7.541,7.541,0,0,0,1.936,4.9c.577.688,1.7-.2,1.1-.923a6.149,6.149,0,0,1-1.6-3.976,3.387,3.387,0,0,1,3.35-3.414,3.332,3.332,0,0,1,2.984,1.864.772.772,0,0,0,.642.4.718.718,0,0,0,.641-.4,3.345,3.345,0,0,1,6.334,1.552,6.265,6.265,0,0,1-1.778,4.18H17.05a2.635,2.635,0,0,0-2.632,2.632Zm23.921-1.2a1.2,1.2,0,0,1,1.2,1.2V42.71a1.2,1.2,0,0,1-1.2,1.2H36.161a.718.718,0,0,0-.718.718v1.934L33,44.116a.718.718,0,0,0-.508-.21H17.05a1.2,1.2,0,0,1-1.2-1.2V26.981a1.2,1.2,0,0,1,1.2-1.2Z" transform="translate(0 -0.008)" fill="#7d6eb2"/>
    <path id="Trazado_128045" data-name="Trazado 128045" d="M302.968,33.714a.718.718,0,0,0-.634.38l-1.88,3.531a1.3,1.3,0,0,1-.627.666,1.758,1.758,0,0,0-1.5-.835h-1.208a1.76,1.76,0,0,0-1.758,1.758v7.244a1.76,1.76,0,0,0,1.758,1.758h1.208a1.761,1.761,0,0,0,1.617-1.068,3.326,3.326,0,0,0,1.128.183h6.087a2.213,2.213,0,0,0,2.137-1.646l1.305-4.94a2.038,2.038,0,0,0-1.959-2.482h-2.776a.306.306,0,0,1-.306-.306V36.311a2.6,2.6,0,0,0-2.6-2.6Zm-4.313,12.744a.323.323,0,0,1-.322.322h-1.208a.323.323,0,0,1-.322-.322V39.214a.323.323,0,0,1,.322-.322h1.208a.323.323,0,0,1,.322.322Zm7.216-6.76h2.776a.582.582,0,0,1,.567.7l-1.3,4.925a.776.776,0,0,1-.75.577h-6.087a1.877,1.877,0,0,1-.987-.253V39.721a2.571,2.571,0,0,0,1.646-1.448l1.626-3.054a1.164,1.164,0,0,1,.767,1.093v1.646A1.743,1.743,0,0,0,305.871,39.7Z" transform="translate(-267.099 -30.488)" fill="#7d6eb2"/>
    <path id="Trazado_128046" data-name="Trazado 128046" d="M200.667,344.721a2.544,2.544,0,1,0-2.544-2.544A2.547,2.547,0,0,0,200.667,344.721Zm0-3.653a1.109,1.109,0,1,1-1.109,1.109A1.11,1.11,0,0,1,200.667,341.068Z" transform="translate(-179.162 -307.142)" fill="#7d6eb2"/>
    <path id="Trazado_128047" data-name="Trazado 128047" d="M265.336,344.721a2.544,2.544,0,1,0-2.544-2.544A2.547,2.547,0,0,0,265.336,344.721Zm0-3.653a1.109,1.109,0,1,1-1.109,1.109A1.11,1.11,0,0,1,265.336,341.068Z" transform="translate(-237.642 -307.142)" fill="#7d6eb2"/>
    <path id="Trazado_128048" data-name="Trazado 128048" d="M330,344.721a2.544,2.544,0,1,0-2.544-2.544A2.547,2.547,0,0,0,330,344.721Zm0-3.653a1.109,1.109,0,1,1-1.109,1.109A1.11,1.11,0,0,1,330,341.068Z" transform="translate(-296.121 -307.142)" fill="#7d6eb2"/>
  </g>
</svg>
