<?xml version="1.0" encoding="utf-8"?>
<!-- Generator: Adobe Illustrator 25.3.1, SVG Export Plug-In . SVG Version: 6.00 Build 0)  -->
<svg version="1.1" id="Layer_1" xmlns="http://www.w3.org/2000/svg" xmlns:xlink="http://www.w3.org/1999/xlink" x="0px" y="0px"
	 viewBox="0 0 552.3 506.6" style="enable-background:new 0 0 552.3 506.6;" xml:space="preserve">
<style type="text/css">
	.st0{fill:#CBC5E0;}
	.st1{fill:#8EC8C8;}
	.st2{fill:#FFFFFF;}
	.st3{fill:#D5F2E8;}
	.st4{fill-rule:evenodd;clip-rule:evenodd;fill:#FFFFFF;}
	.st5{fill:#B1A8D1;}
	.st6{fill:#26AAB7;}
	.st7{fill:#7D6EB2;}
	.st8{fill:#263238;}
	.st9{fill:#455A64;}
	.st10{fill:#AA6550;}
	.st11{fill:#724940;}
	.st12{opacity:0.3;}
	.st13{fill:#FAFAFA;}
	.st14{fill:#EBEBEB;}
	.st15{fill:#DBDADA;}
</style>
<g id="Grupo_55010" transform="translate(12889.28 12253)">
	<g id="Background_Complete" transform="translate(-12861.473 -12108.847)">
		<g id="Grupo_53696" transform="translate(54.278 225.783)">
			<g id="Grupo_53695">
				<g id="Grupo_53688">
					<g id="Grupo_53687">
						<g id="Grupo_53686">
							<g id="Grupo_53685">
								<g id="Grupo_53684">
									<g id="Grupo_53683">
										<path id="Trazado_99361" class="st0" d="M99.9,28.3L97.5,29l-7.3-5.8l-1.3-4.8c0,0-3.8,0.8-1.6,7s1.3,4.7,1.3,4.7
											s-7.9,2.2-8.3,3.1c-0.3,0.6,1.6,8.5,2.7,12.8c0.5,2.1,2.4,3.7,4.5,3.7c0.3,0,0.6,0,0.9-0.1c2-0.5,11.6-4.9,11.6-4.9
											l4.1-1.2L99.9,28.3z"/>
									</g>
								</g>
							</g>
						</g>
					</g>
				</g>
				<g id="Grupo_53694" transform="translate(20.697 6.721)">
					<g id="Grupo_53693">
						<g id="Grupo_53692">
							<g id="Grupo_53691">
								<g id="Grupo_53690">
									<g id="Grupo_53689">
										<path id="Trazado_99362" class="st0" d="M85.8,18.4l3.1,16.8l-4.1,1.1l-4.5-16.1L85.8,18.4z"/>
									</g>
								</g>
							</g>
						</g>
					</g>
				</g>
			</g>
		</g>
		<g id="XMLID_51_" transform="translate(104.025 19.008)">
			<g id="XMLID_60_">
				<g id="Grupo_53697">
					<path id="Trazado_99363" class="st1" d="M111.8,81.5L111.8,81.5c-17.4,0-31.6-14.1-31.6-31.6l0,0l0,0
						c0-17.4,14.1-31.6,31.6-31.6l0,0l0,0c17.4,0,31.6,14.1,31.6,31.6l0,0l0,0C143.4,67.4,129.3,81.5,111.8,81.5L111.8,81.5z"/>
				</g>
			</g>
			<g id="XMLID_52_" transform="translate(11.44 11.44)">
				<g id="Grupo_53698">
					<path id="Trazado_99364" class="st2" d="M100.4,18.4c-11.1,0-20.1,9-20.1,20.1s9,20.1,20.1,20.1c11.1,0,20.1-9,20.1-20.1
						C120.5,27.4,111.5,18.4,100.4,18.4z M100.4,21.9c3.7,0,7.2,1.2,10.1,3.5c-2.2,2.7-5.1,4.9-8.4,6.2c-1.7-3.2-3.7-6.2-5.9-9.1
						C97.6,22.1,99,21.9,100.4,21.9L100.4,21.9z M92.9,23.7c2.2,2.9,4.2,5.9,5.9,9c-4.7,1.3-9.6,1.9-14.6,1.9
						C85.4,29.9,88.6,25.9,92.9,23.7L92.9,23.7z M83.8,38.5c0-0.1,0-0.3,0-0.4c5.6,0.1,11.3-0.6,16.7-2.2c0.4,0.8,0.8,1.6,1.1,2.4
						c-5.8,1.9-10.7,5.7-14,10.9C85.1,46.1,83.8,42.4,83.8,38.5L83.8,38.5z M100.4,55.1c-3.7,0-7.3-1.2-10.2-3.5
						c3.3-5.2,7.5-8.5,12.7-10.1c1.5,4,2.7,8.2,3.4,12.5C104.4,54.7,102.4,55.1,100.4,55.1L100.4,55.1z M109.6,52.3
						c-0.7-3.9-1.8-7.8-3.2-11.6c3.5-0.4,7-0.3,10.4,0.3C116.1,45.7,113.5,49.7,109.6,52.3L109.6,52.3z M105,37.5
						c-0.4-0.9-0.8-1.9-1.3-2.8c3.6-1.5,6.8-3.8,9.3-6.8c2.3,2.7,3.7,6.2,3.9,9.8C113,36.9,109,36.8,105,37.5L105,37.5z"/>
				</g>
			</g>
		</g>
		<g id="Grupo_53712" transform="translate(0 0)">
			<g id="Grupo_53711">
				<g id="Grupo_53704">
					<g id="Grupo_53703">
						<g id="Grupo_53702">
							<g id="Grupo_53701">
								<g id="Grupo_53700">
									<g id="Grupo_53699">
										<path id="Trazado_99365" class="st3" d="M110.7,30.5l-3.7,2l-14.2-6.8l-4-7.3c0,0-5.9,2.8,0.1,12c5.9,9.3,3.9,7.2,3.9,7.2
											s-12.1,6.7-12.5,8.3C80,47,86.2,59.2,89.6,65.8c1.6,3.3,5.3,5.1,8.9,4.4c0.5-0.1,1-0.3,1.4-0.5c3-1.6,17.1-12.5,17.1-12.5
											l6.4-3.5L110.7,30.5z"/>
									</g>
								</g>
							</g>
						</g>
					</g>
				</g>
				<g id="Grupo_53710" transform="translate(31.592 4.323)">
					<g id="Grupo_53709">
						<g id="Grupo_53708">
							<g id="Grupo_53707">
								<g id="Grupo_53706">
									<g id="Grupo_53705">
										<path id="Trazado_99366" class="st3" d="M88.6,18.4l11.5,26.4l-6.3,3.5L80.3,23.6L88.6,18.4z"/>
									</g>
								</g>
							</g>
						</g>
					</g>
				</g>
			</g>
		</g>
		<g id="Grupo_53726" transform="translate(106.406 115.166)">
			<g id="Grupo_53725">
				<g id="Grupo_53718">
					<g id="Grupo_53717">
						<g id="Grupo_53716">
							<g id="Grupo_53715">
								<g id="Grupo_53714">
									<g id="Grupo_53713">
										<path id="Trazado_99367" class="st0" d="M102.4,31.7l-2.4-0.4l-4-8.1l0.8-4.8c0,0-3.7-0.8-4.2,5.5s-0.8,4.6-0.8,4.6
											s-7.8-1.2-8.6-0.7c-0.6,0.4-2,8.2-2.8,12.4c-0.4,2.1,0.6,4.2,2.5,5.1c0.3,0.1,0.5,0.2,0.8,0.3c1.9,0.3,12.2,0.4,12.2,0.4
											l4.1,0.7L102.4,31.7z"/>
									</g>
								</g>
							</g>
						</g>
					</g>
				</g>
				<g id="Grupo_53724" transform="translate(20.972 12.509)">
					<g id="Grupo_53723">
						<g id="Grupo_53722">
							<g id="Grupo_53721">
								<g id="Grupo_53720">
									<g id="Grupo_53719">
										<path id="Trazado_99368" class="st0" d="M88.5,19L84.3,35l-4.1-0.7l2.6-16L88.5,19z"/>
									</g>
								</g>
							</g>
						</g>
					</g>
				</g>
			</g>
		</g>
	</g>
	<g id="Social_Media_Icons" transform="translate(-12889.28 -12129.482)">
		<g id="XMLID_37_" transform="translate(140.578 235.903)">
			<g id="XMLID_43_" transform="translate(0)">
				<g id="Grupo_53731">
					<path id="Trazado_99370" class="st1" d="M107.2,72.2L107.2,72.2c-14.9,0-26.9-12-26.9-26.9c0,0,0,0,0,0l0,0
						c0-14.9,12-26.9,26.9-26.9c0,0,0,0,0,0l0,0c14.9,0,26.9,12,26.9,26.9c0,0,0,0,0,0l0,0C134.1,60.2,122.1,72.2,107.2,72.2
						C107.2,72.2,107.2,72.2,107.2,72.2z"/>
				</g>
			</g>
			<g id="XMLID_38_" transform="translate(12.155 12.144)">
				<g id="XMLID_40_">
					<g id="Grupo_53732">
						<path id="Trazado_99371" class="st4" d="M109.8,32.4c-0.3-8-7-14.3-15-14c-7.5,0.2-13.6,6.2-14,13.8c0,0.2,0,0.4,0,0.6
							c0,2.6,0.7,5.2,2.1,7.4l-2.6,7.7l8-2.6c7,3.9,15.9,1.3,19.7-5.7c1.2-2.1,1.8-4.5,1.8-6.9C109.8,32.7,109.8,32.5,109.8,32.4z
							 M95.3,44.9c-2.4,0-4.7-0.7-6.7-2l-4.7,1.5l1.5-4.5c-1.5-2.1-2.3-4.5-2.3-7.1c0-0.4,0-0.8,0.1-1.2c0.7-6.7,6.7-11.6,13.4-10.9
							c5.8,0.6,10.4,5.3,10.9,11.1c0,0.3,0,0.6,0,0.9C107.4,39.5,102,44.9,95.3,44.9L95.3,44.9z"/>
					</g>
				</g>
				<g id="XMLID_39_" transform="translate(7.953 7.854)">
					<g id="Grupo_53733">
						<path id="Trazado_99372" class="st4" d="M94,27.8c-0.4-0.2-2.1-1-2.4-1.1s-0.6-0.2-0.8,0.2s-0.9,1.1-1.1,1.4s-0.4,0.3-0.8,0.1
							c-1-0.4-2-1-2.9-1.7c-0.8-0.7-1.4-1.5-2-2.4c-0.2-0.4,0-0.5,0.2-0.7s0.4-0.4,0.5-0.6c0-0.1,0.1-0.1,0.1-0.2
							c0.1-0.1,0.1-0.3,0.2-0.4c0.1-0.2,0.1-0.4,0-0.6c-0.1-0.2-0.8-1.9-1.1-2.6s-0.6-0.6-0.8-0.6s-0.4,0-0.7,0
							c-0.4,0-0.7,0.2-0.9,0.4c-0.8,0.8-1.3,1.8-1.2,2.9c0,0.4,0.1,0.8,0.2,1.2c0.3,0.9,0.7,1.7,1.3,2.4c0.2,0.2,2.5,3.9,6.1,5.3
							c3.6,1.4,3.6,0.9,4.3,0.9c1-0.2,1.9-0.8,2.4-1.7c0.2-0.5,0.3-1.1,0.2-1.7C94.6,28.1,94.3,28,94,27.8z"/>
					</g>
				</g>
			</g>
		</g>
		<g id="XMLID_11_" transform="translate(73.27 75.657)">
			<g id="XMLID_13_">
				<g id="Grupo_53734">
					<path id="Trazado_99373" class="st5" d="M101,59.9L101,59.9c-11.5,0-20.7-9.3-20.7-20.7c0,0,0,0,0,0l0,0
						c0-11.5,9.3-20.7,20.7-20.7c0,0,0,0,0,0l0,0c11.5,0,20.7,9.3,20.7,20.7c0,0,0,0,0,0l0,0C121.8,50.6,112.5,59.9,101,59.9
						C101,59.9,101,59.9,101,59.9z"/>
				</g>
			</g>
			<g id="XMLID_12_" transform="translate(11.176 8.415)">
				<g id="Grupo_53735">
					<path id="Trazado_99374" class="st2" d="M83.2,32.6c0.2,0.1,0.5,0,0.6-0.2c0,0,0-0.1,0.1-0.2c0.1-0.3,0.2-0.9,0.3-1.1
						c0.1-0.3,0-0.6-0.2-0.8c-0.6-0.8-1-1.8-0.9-2.8c0-3.7,2.9-6.7,6.6-6.8c0.1,0,0.2,0,0.3,0c3.8,0,5.9,2.3,5.9,5.4
						c0,4.1-1.8,7.5-4.5,7.5c-1.2,0.1-2.2-0.9-2.3-2.1c0-0.2,0-0.4,0.1-0.7c0.4-1.8,1.3-3.7,1.3-5c0.1-1-0.6-2-1.7-2.1
						c-0.1,0-0.2,0-0.3,0c-1.5,0-2.7,1.6-2.7,3.7c0,0.8,0.1,1.5,0.5,2.2c0,0-1.6,6.6-1.8,7.7c-0.3,1.8-0.3,3.6,0,5.4
						c0,0.1,0.1,0.2,0.2,0.2c0,0,0.1,0,0.1-0.1c1.1-1.4,2-2.9,2.6-4.6c0.2-0.6,1-3.9,1-3.9c0.8,1.1,2.1,1.8,3.5,1.8
						c4.6,0,7.6-4.1,7.6-9.7c0-4.2-3.6-8.1-9-8.1c-6.7,0-10.1,4.8-10.1,8.8C80.3,29.7,81.2,31.8,83.2,32.6z"/>
				</g>
			</g>
		</g>
		<g id="XMLID_14_" transform="translate(0 138.543)">
			<g id="XMLID_36_">
				<g id="Grupo_53736">
					<path id="Trazado_99375" class="st6" d="M111.7,81.2L111.7,81.2c-17.3,0-31.4-14.1-31.4-31.4l0,0c0-17.3,14.1-31.4,31.4-31.4
						l0,0c17.3,0,31.4,14,31.4,31.4c0,0,0,0,0,0l0,0C143.1,67.1,129,81.2,111.7,81.2C111.7,81.2,111.7,81.2,111.7,81.2z"/>
				</g>
			</g>
			<g id="XMLID_16_" transform="translate(14.165 14.177)">
				<g id="XMLID_1_">
					<g id="Grupo_53737">
						<path id="Trazado_99376" class="st2" d="M97.5,21.5c4.6,0,5.1,0,7,0.1c1.1,0,2.2,0.2,3.2,0.6c1.5,0.6,2.7,1.8,3.3,3.3
							c0.4,1,0.6,2.1,0.6,3.2c0.1,1.8,0.1,2.4,0.1,7s0,5.1-0.1,7c0,1.1-0.2,2.2-0.6,3.2c-0.6,1.5-1.8,2.7-3.3,3.3
							c-1,0.4-2.1,0.6-3.2,0.6c-1.8,0.1-2.4,0.1-7,0.1s-5.1,0-7-0.1c-1.1,0-2.2-0.2-3.2-0.6c-1.5-0.6-2.7-1.8-3.3-3.3
							c-0.4-1-0.6-2.1-0.6-3.2c-0.1-1.8-0.1-2.4-0.1-7s0-5.1,0.1-7c0-1.1,0.2-2.2,0.6-3.2c0.6-1.5,1.8-2.7,3.3-3.3
							c1-0.4,2.1-0.6,3.2-0.6C92.3,21.5,92.9,21.5,97.5,21.5 M97.5,18.4c-4.7,0-5.3,0-7.1,0.1c-1.4,0-2.8,0.3-4.2,0.8
							c-1.1,0.4-2.2,1.1-3.1,2c-0.9,0.9-1.6,1.9-2,3.1c-0.5,1.3-0.8,2.8-0.8,4.2c-0.1,1.8-0.1,2.4-0.1,7.1s0,5.3,0.1,7.1
							c0,1.4,0.3,2.8,0.8,4.2c0.4,1.1,1.1,2.2,2,3.1c0.9,0.9,1.9,1.6,3.1,2c1.3,0.5,2.8,0.8,4.2,0.8c1.8,0.1,2.4,0.1,7.1,0.1
							s5.3,0,7.1-0.1c1.4,0,2.8-0.3,4.2-0.8c1.1-0.4,2.2-1.1,3.1-2c0.9-0.9,1.6-1.9,2-3.1c0.5-1.3,0.8-2.8,0.8-4.2
							c0.1-1.8,0.1-2.4,0.1-7.1s0-5.3-0.1-7.1c0-1.4-0.3-2.8-0.8-4.2c-0.4-1.1-1.1-2.2-2-3.1c-0.9-0.9-1.9-1.6-3.1-2
							c-1.3-0.5-2.8-0.8-4.2-0.8C102.7,18.4,102.2,18.4,97.5,18.4"/>
					</g>
				</g>
				<g id="XMLID_18_" transform="translate(8.389 8.365)">
					<g id="Grupo_53738">
						<path id="Trazado_99377" class="st2" d="M89.1,18.4c-4.9,0-8.8,4-8.8,8.8c0,4.9,4,8.8,8.8,8.8s8.8-4,8.8-8.8l0,0
							C97.9,22.3,94,18.4,89.1,18.4 M89.1,33c-3.2,0-5.7-2.6-5.7-5.7c0-3.2,2.6-5.7,5.7-5.7c3.2,0,5.7,2.6,5.7,5.7
							C94.8,30.4,92.3,33,89.1,33C89.1,33,89.1,33,89.1,33"/>
					</g>
				</g>
				<g id="XMLID_17_" transform="translate(24.342 5.958)">
					<g id="Grupo_53739">
						<path id="Trazado_99378" class="st2" d="M84.4,20.5c0,1.1-0.9,2.1-2.1,2.1s-2.1-0.9-2.1-2.1s0.9-2.1,2.1-2.1c0,0,0,0,0,0
							C83.5,18.4,84.4,19.3,84.4,20.5C84.4,20.4,84.4,20.5,84.4,20.5"/>
					</g>
				</g>
			</g>
		</g>
		<g id="XMLID_1419_" transform="translate(121.218 0)">
			<g id="XMLID_1421_">
				<g id="Grupo_53740">
					<path id="Trazado_99379" class="st7" d="M97.4,52.6L97.4,52.6c-9.4,0-17.1-7.7-17.1-17.1l0,0l0,0c0-9.4,7.7-17.1,17.1-17.1l0,0
						c9.4,0,17.1,7.7,17.1,17.1l0,0C114.5,44.9,106.8,52.6,97.4,52.6z"/>
				</g>
			</g>
			<g id="XMLID_1420_" transform="translate(12.331 6.765)">
				<g id="Grupo_53741">
					<path id="Trazado_99380" class="st2" d="M82.4,39.1h4.2V28.6h2.9l0.3-3.5h-3.2v-2c0-0.8,0.2-1.1,1-1.1h2.3v-3.6h-2.9
						c-3.1,0-4.5,1.4-4.5,4v2.8h-2.2v3.5h2.2V39.1L82.4,39.1z"/>
				</g>
			</g>
		</g>
	</g>
	<g id="Speech_Bubble" transform="translate(-12841.123 -12253)">
		<g id="Grupo_53754" transform="translate(0 0)">
			<g id="Grupo_53743" transform="translate(0.495 0.385)">
				<g id="Grupo_53742">
					<path id="Trazado_99381" class="st6" d="M136.4,44.1l20-25.7l4.9,32.3l26.4-0.9l-19.6,25.7l26,20.1l-33.2-12.3l-4.6,32.3
						L134,93.9L106,113.4l6.2-28.4l-31.9-5L105,65.4L90.6,40.5l25.1,14.2l2.6-35.3L136.4,44.1z"/>
				</g>
			</g>
			<g id="Grupo_53746">
				<g id="Grupo_53745">
					<g id="Grupo_53744">
						<path id="Trazado_99382" class="st8" d="M168.6,75.9c0,0,0.6,0.5,1.8,1.3s2.9,2.2,5.2,3.9c4.5,3.5,11.1,8.5,19.6,15.1l0.7,0.5
							l-0.8-0.3c-4.5-1.9-9.7-3.7-15.3-5.7s-11.8-4.1-18.2-6.7l0.2-0.1c-1.5,9.6-3.1,20.5-4.9,32.1l-0.1,0.4l-0.3-0.3
							c-7-6.8-14.4-14.1-22.2-21.8l0.3,0c-8.8,6.1-18.1,12.5-27.6,19.2l-0.4,0.3l0.1-0.5c1.8-8.9,3.8-18.3,5.8-27.9l0.2,0.2
							c-10.1-1.6-20.8-3.3-31.6-5l-0.6-0.1l0.6-0.3c6.9-4,14.1-8.2,21.5-12.5c1.1-0.6,2.2-1.3,3.3-1.9l-0.1,0.3
							c-2.8-4-5.2-8.2-7.5-12.3s-4.6-8.3-6.8-12.5l-0.4-0.7l0.7,0.4c8.5,4.8,16.9,9.5,25.1,14.1l-0.3,0.2c0.4-6.1,0.8-12.2,1.2-18.1
							c0.2-3,0.4-5.9,0.5-8.8c0.1-1.5,0.2-2.9,0.2-4.4c0-0.7,0.1-1.4,0.1-2.2l0-1.1v-0.5c0-0.2,0-0.4,0-0.4l0.3-0.4l0.1,0.1
							c6.4,8.7,12.5,17,18.3,25h-0.3c7-9.2,13.7-17.9,19.8-25.9l0.2-0.3l0.1,0.4c1.9,11.8,3.6,22.6,5.2,32.1l-0.1-0.1
							c10.2-0.3,18.9-0.6,26.3-0.8l0.2,0l-0.1,0.2c-6.4,8.3-11.3,14.8-14.6,19.1c-1.7,2.2-2.9,3.8-3.8,5
							C169.1,75.3,168.6,75.9,168.6,75.9c0,0,0.4-0.6,1.2-1.7c0.8-1.1,2.1-2.8,3.7-5c3.3-4.4,8.2-10.9,14.5-19.2l0.1,0.2
							c-7.4,0.3-16.1,0.5-26.3,0.9h-0.1l0-0.1c-1.6-9.6-3.3-20.3-5.2-32.1l0.3,0.1c-6.2,8.1-12.8,16.7-19.8,26l-0.2,0.2l-0.2-0.2
							c-5.8-8-11.9-16.3-18.3-25l0.3-0.2c0.1,0.2,0.1,0.4,0.1,0.6v0.5l0,1.1c0,0.7-0.1,1.4-0.1,2.2c-0.1,1.5-0.1,2.9-0.2,4.4
							c-0.2,2.9-0.4,5.9-0.5,8.8c-0.4,5.9-0.8,12-1.2,18.1l0,0.3l-0.3-0.2c-8.2-4.6-16.6-9.3-25.1-14.1l0.3-0.3
							c2.2,4.1,4.4,8.3,6.8,12.4c2.4,4.1,4.8,8.3,7.5,12.3l0.1,0.2l-0.2,0.1c-1.1,0.6-2.2,1.3-3.3,1.9c-7.4,4.3-14.6,8.5-21.5,12.5
							l-0.1-0.4c10.9,1.7,21.5,3.4,31.6,5l0.2,0l0,0.2c-2,9.6-4,19.1-5.8,27.9l-0.3-0.2c9.6-6.7,18.8-13.1,27.6-19.2l0.1-0.1
							l0.1,0.1c7.8,7.7,15.2,15,22.2,21.8l-0.3,0.1c1.8-11.6,3.5-22.4,5-32.1l0-0.2l0.2,0.1c6.4,2.7,12.6,4.7,18.2,6.7
							c5.7,2,10.8,3.8,15.3,5.7l-0.1,0.2l-19.6-15.2c-2.2-1.7-3.9-3.1-5.1-4C169.2,76.3,168.6,75.9,168.6,75.9z"/>
					</g>
				</g>
			</g>
			<g id="Grupo_53753" transform="translate(48.861 49.4)">
				<g id="Grupo_53748">
					<g id="Grupo_53747">
						<path id="Trazado_99383" class="st8" d="M85.5,21c0,1.5-1.2,2.6-2.6,2.6s-2.6-1.2-2.6-2.6c0-1.5,1.2-2.6,2.6-2.6l0,0
							C84.4,18.4,85.5,19.6,85.5,21C85.5,21,85.5,21,85.5,21z"/>
					</g>
				</g>
				<g id="Grupo_53750" transform="translate(8.063)">
					<g id="Grupo_53749">
						<path id="Trazado_99384" class="st8" d="M85.5,21c0,1.5-1.2,2.6-2.6,2.6s-2.6-1.2-2.6-2.6c0-1.5,1.2-2.6,2.6-2.6l0,0
							C84.4,18.4,85.5,19.6,85.5,21C85.5,21,85.5,21,85.5,21z"/>
					</g>
				</g>
				<g id="Grupo_53752" transform="translate(16.126)">
					<g id="Grupo_53751">
						<path id="Trazado_99385" class="st8" d="M85.5,21c0,1.5-1.2,2.6-2.6,2.6s-2.6-1.2-2.6-2.6c0-1.5,1.2-2.6,2.6-2.6l0,0
							C84.4,18.4,85.5,19.6,85.5,21C85.5,21,85.5,21,85.5,21z"/>
					</g>
				</g>
			</g>
		</g>
	</g>
	<g id="Character_1" transform="translate(-12707.524 -12245.277)">
		<g id="Grupo_53770" transform="translate(0.633 0)">
			<g id="Grupo_53769">
				<g id="Grupo_53756" transform="translate(15.664)">
					<g id="Grupo_53755">
						<path id="Trazado_99386" class="st8" d="M250.9,477.7H103.3c-12.7,0-23-10.3-23-23V41.4c0-12.7,10.3-23,23-23h147.7
							c12.7,0,23,10.3,23,23v413.3C274,467.4,263.7,477.7,250.9,477.7C251,477.7,251,477.7,250.9,477.7z"/>
					</g>
				</g>
				<g id="Grupo_53758" transform="translate(0 0.187)">
					<g id="Grupo_53757">
						<path id="Trazado_99387" class="st9" d="M249.1,477.7H105.1c-13.7,0-24.8-11.1-24.8-24.8V43.2c0-13.7,11.1-24.8,24.8-24.8l0,0
							h144.1c13.7,0,24.8,11.1,24.8,24.8v409.7C273.9,466.6,262.8,477.7,249.1,477.7z"/>
					</g>
				</g>
				<g id="Grupo_53768" transform="translate(8.151 7.102)">
					<g id="Grupo_53767">
						<g id="Grupo_53766">
							<g id="Grupo_53765">
								<g id="Grupo_53764">
									<g id="Grupo_53760" transform="translate(0.187 0.235)">
										<g id="Grupo_53759">
											<path id="Trazado_99388" class="st2" d="M236.4,18.6l-26.3,0c-3.5,0-6.4,3.5-6.4,7.9v5.7c0,4.4-2.9,7.9-6.4,7.9L146,39.9
												c-3.5,0-6.4-3.6-6.4-7.9v-5.7c0-4.4-2.9-7.9-6.4-7.9l-9.3,0l-23,0c-11.4,0-20.7,11-20.7,24.5l0.2,393.5
												c0,13.5,9.3,24.5,20.7,24.6l135.5,0.2c11.4,0,20.7-11,20.7-24.5l-0.2-393.5C257.1,29.6,247.8,18.6,236.4,18.6z"/>
										</g>
									</g>
									<g id="Grupo_53763">
										<g id="Grupo_53762">
											<g id="Grupo_53761">
												<path id="Trazado_99389" class="st8" d="M236.6,18.8l0.8,0c0.8,0,1.6,0.1,2.4,0.3c3.1,0.6,6,1.9,8.4,3.8
													c1.8,1.5,3.3,3.2,4.6,5.1c1.6,2.3,2.7,4.8,3.5,7.5c0.4,1.5,0.7,3,0.9,4.6c0.2,1.7,0.2,3.3,0.2,5c0,3.5,0,7.1,0,11
													c0,31.2,0.1,76.2,0.2,131.9c0,55.7,0.1,122,0.2,195.6c0,9.2,0,18.5,0,28c0,4.7,0,9.4,0,14.2v7.2c0.1,2.4,0,4.8-0.2,7.2
													c-0.3,2.4-0.9,4.8-1.8,7.1c-0.9,2.3-2.1,4.4-3.6,6.4c-1.5,2-3.4,3.6-5.4,5c-2.1,1.3-4.5,2.2-6.9,2.7
													c-2.5,0.3-4.9,0.4-7.4,0.3c-2.5,0-5,0-7.4,0c-5,0-9.9,0-15,0c-20,0-40.4-0.1-61.1-0.1c-10.3,0-20.8,0-31.3,0
													c-5.2,0-10.5,0-15.8,0c-2.7,0-5.4-0.5-7.8-1.6c-2.5-1.1-4.7-2.7-6.5-4.6c-3.7-3.9-6.1-8.9-6.8-14.3
													c-0.3-2.6-0.4-5.3-0.3-7.9v-7.9c0-10.5,0-20.9,0-31.3c0-20.7,0-41.1,0-61.1c0-40.1,0-78.7,0-115.5s0-71.8,0-104.6
													c0-16.4,0-32.2,0-47.4c0-7.6,0-15,0-22.3c0.1-7.3,2.9-14.6,8.1-19.3c2.5-2.4,5.7-4,9.1-4.8c0.8-0.2,1.7-0.3,2.5-0.3
													c0.9-0.1,1.7-0.1,2.5-0.1c1.7,0,3.3,0,5,0l19.3,0c1.6,0,3.1,0,4.7,0c0.8,0,1.5,0,2.3,0c0.8,0.1,1.6,0.3,2.2,0.7
													c1.4,0.8,2.4,2,3,3.4c0.6,1.4,0.9,2.9,0.9,4.4v4.4c-0.1,1.4,0.1,2.9,0.6,4.2c0.5,1.3,1.3,2.5,2.4,3.3
													c0.5,0.4,1.2,0.7,1.8,0.9c0.7,0.2,1.3,0.2,2,0.2c11.1,0,21.4,0,30.8,0.1l13.6,0c2.2,0,4.3,0,6.3,0c2-0.1,3.8-1.2,4.8-3
													c1-1.6,1.5-3.5,1.4-5.4c0-1.8,0-3.6,0-5.3c0-1.7,0.5-3.4,1.4-4.8c0.8-1.4,2.2-2.3,3.7-2.8c0.7-0.2,1.5-0.2,2.2-0.2
													c0.7,0,1.4,0,2.1,0c1.4,0,2.7,0,4,0c2.5,0,4.8,0,6.9,0c4.1,0,7.2,0,9.3,0C235.5,18.8,236.6,18.8,236.6,18.8
													c0,0-1.1,0-3.2,0s-5.2,0-9.3,0h-13c-0.7,0-1.5,0-2.2,0.2c-1.5,0.4-2.8,1.4-3.6,2.7c-0.9,1.4-1.4,3-1.4,4.7v5.3
													c0.1,1.9-0.4,3.8-1.4,5.5c-1,1.8-2.9,3-5,3.1h-6.3c-4.3,0-8.9,0-13.6,0c-9.5,0-19.8,0-30.8,0c-0.7,0-1.4,0-2.1-0.2
													c-0.7-0.2-1.4-0.5-1.9-1c-1.2-0.9-2-2.1-2.6-3.5c-0.5-1.4-0.7-2.8-0.6-4.3v-4.4c0.1-1.5-0.2-2.9-0.8-4.3
													c-0.6-1.4-1.6-2.5-2.9-3.2c-0.6-0.4-1.4-0.6-2.1-0.6c-0.7-0.1-1.5,0-2.3,0h-4.7c-6.3,0-12.7,0-19.3,0h-5
													c-0.8,0-1.7,0-2.5,0.1c-0.8,0-1.7,0.1-2.5,0.3c-3.3,0.7-6.4,2.4-8.9,4.7c-5.1,4.7-7.9,11.8-7.9,19c0,7.3,0,14.7,0,22.3
													c0,15.2,0,31,0,47.4c0,32.7,0,67.7,0.1,104.6s0,75.5,0.1,115.5c0,20,0,40.4,0,61.1c0,10.4,0,20.8,0,31.3v7.9
													c-0.1,2.6,0,5.2,0.3,7.8c0.7,5.2,3,10.1,6.7,14c1.8,1.9,4,3.4,6.4,4.5c2.4,1,5,1.6,7.6,1.5c5.3,0,10.5,0,15.8,0
													c10.5,0,20.9,0,31.3,0c20.7,0,41.1,0.1,61.1,0.1c5,0,10,0,15,0c2.5,0,5,0,7.4,0c2.4,0.1,4.9,0,7.3-0.3
													c2.4-0.4,4.7-1.3,6.7-2.6c2-1.3,3.8-3,5.3-4.9c1.5-1.9,2.7-4,3.6-6.2c0.9-2.2,1.5-4.6,1.7-6.9c0.2-2.4,0.3-4.8,0.2-7.2
													v-21.4c0-9.4,0-18.7,0-28c0-73.6,0-139.9,0-195.6c0-55.7,0-100.7,0-131.9c0-3.9,0-7.6,0-11c0-1.7,0-3.3-0.2-5
													c-0.2-1.5-0.5-3.1-0.9-4.6c-0.7-2.7-1.9-5.2-3.4-7.5c-1.3-1.9-2.8-3.6-4.6-5c-2.4-2-5.3-3.3-8.3-3.9
													c-0.8-0.2-1.6-0.3-2.4-0.3C237.1,18.8,236.9,18.8,236.6,18.8z"/>
											</g>
										</g>
									</g>
								</g>
							</g>
						</g>
					</g>
				</g>
			</g>
		</g>
		<g id="Grupo_54047" transform="translate(0 41.886)">
			<g id="Grupo_53772" transform="translate(52.123 367.033)">
				<g id="Grupo_53771">
					<path id="Trazado_99390" class="st10" d="M83.1,18.4l-2.9,42.8l18.5,2.3l8.8-43.7L83.1,18.4z"/>
				</g>
			</g>
			<g id="Grupo_53777" transform="translate(29.507 404.179)">
				<g id="Grupo_53776">
					<g id="Grupo_53775">
						<g id="Grupo_53774">
							<g id="Grupo_53773">
								<path id="Trazado_99391" class="st1" d="M103.1,18.4l-0.2,1.2c0,0-21.9,5.6-22.7,9.5l41.3,5.3l1.2-13.8
									C116.2,22.7,109,21.9,103.1,18.4z"/>
							</g>
						</g>
					</g>
				</g>
			</g>
			<g id="Grupo_53783" transform="translate(65.088 410.118)">
				<g id="Grupo_53782">
					<g id="Grupo_53781">
						<g id="Grupo_53780">
							<g id="Grupo_53779">
								<g id="Grupo_53778">
									<path id="Trazado_99392" class="st2" d="M82.5,18.5c0.8,0.4,1.2,1.3,0.9,2.1c-0.3,0.8-1.2,1.2-2,0.9
										c-0.8-0.4-1.3-1.3-1-2.2c0.4-0.8,1.4-1.1,2.2-0.7"/>
								</g>
							</g>
						</g>
					</g>
				</g>
			</g>
			<g id="Grupo_53788" transform="translate(29.506 413.001)">
				<g id="Grupo_53787">
					<g id="Grupo_53786">
						<g id="Grupo_53785">
							<g id="Grupo_53784">
								<path id="Trazado_99393" class="st2" d="M121.6,25.6l0.3-3.3l-39.7-3.9c0,0-1.9,0.6-1.9,1.9L121.6,25.6z"/>
							</g>
						</g>
					</g>
				</g>
			</g>
			<g id="Grupo_53794" transform="translate(52.023 405.379)">
				<g id="Grupo_53793" transform="translate(0 0)">
					<g id="Grupo_53792">
						<g id="Grupo_53791">
							<g id="Grupo_53790">
								<g id="Grupo_53789">
									<path id="Trazado_99394" class="st8" d="M80.3,18.5c0,0.2,1,0.4,1.9,1.2c0.9,0.7,1.3,1.7,1.5,1.6c0.2,0,0-1.3-1.1-2.2
										C81.5,18.2,80.2,18.3,80.3,18.5z"/>
								</g>
							</g>
						</g>
					</g>
				</g>
			</g>
			<g id="Grupo_53800" transform="translate(47.455 406.673)">
				<g id="Grupo_53799" transform="translate(0 0)">
					<g id="Grupo_53798">
						<g id="Grupo_53797">
							<g id="Grupo_53796">
								<g id="Grupo_53795">
									<path id="Trazado_99395" class="st8" d="M80.3,18.4c-0.1,0.2,0.8,0.6,1.3,1.6c0.6,0.9,0.7,1.9,0.9,1.9
										c0.2,0.1,0.5-1.1-0.3-2.3S80.3,18.3,80.3,18.4z"/>
								</g>
							</g>
						</g>
					</g>
				</g>
			</g>
			<g id="Grupo_53806" transform="translate(43.137 407.924)">
				<g id="Grupo_53805">
					<g id="Grupo_53804">
						<g id="Grupo_53803">
							<g id="Grupo_53802">
								<g id="Grupo_53801">
									<path id="Trazado_99396" class="st8" d="M81.4,22.1c0.2,0.1,0.6-0.9,0.2-2.1s-1.3-1.7-1.4-1.6c-0.1,0.2,0.4,0.8,0.7,1.8
										C81.3,21.2,81.3,22,81.4,22.1z"/>
								</g>
							</g>
						</g>
					</g>
				</g>
			</g>
			<g id="Grupo_53950" transform="translate(87.307 10.801)">
				<g id="Grupo_53808" transform="translate(42.31 5.462)">
					<g id="Grupo_53807">
						<path id="Trazado_99397" class="st8" d="M80.3,24.6c0.5-3,3.1-5.2,6-5.9c3-0.6,6-0.3,8.8,0.9c3.2,1,6.1,2.9,8.5,5.3
							c2.4,2.4,3.6,5.7,3.6,9.1c-0.2,3.1-1.7,6.3-0.9,9.3c0.7,2.3,2.6,4,4.6,5.4s4.1,2.7,5.4,4.7s1.5,5-0.2,6.6
							c-1.6,1.4-4.4,1.6-5.1,3.6c-0.4,1.3,0.3,2.6,0.7,3.8c0.7,2.7,0.3,5.6-1.3,8c-1.6,2.3-3.7,4.2-6.1,5.6
							c-4.3,2.4-9.6,3.5-14.1,1.6c-2.2-1-4.1-2.6-5.5-4.6c-2.3-3.4-3.5-7.3-3.7-11.3c-0.1-4,0.1-8.1,0.8-12"/>
					</g>
				</g>
				<g id="Grupo_53811" transform="translate(40.759 12.431)">
					<g id="Grupo_53810">
						<g id="Grupo_53809">
							<path id="Trazado_99398" class="st8" d="M80.3,65.5c6.6,1.8,13.4-2,15.2-8.6c0.3-1.2,0.5-2.4,0.4-3.6
								c-0.1-3.6-1.7-7.2-0.6-10.7c0.8-2.3,2.7-4.2,3.4-6.5c1-3.5-1.2-7.1-3.2-10.2c-1.2-2-2.7-3.9-4.5-5.4
								c-1.8-1.6-4.2-2.3-6.6-1.9"/>
						</g>
					</g>
				</g>
				<g id="Grupo_53815" transform="translate(0 12.871)">
					<g id="Grupo_53814">
						<g id="Grupo_53813">
							<g id="Grupo_53812">
								<path id="Trazado_99399" class="st8" d="M87.9,18.4c0.2,2.7-1.6,5.1-3.4,7.2s-3.8,4.1-4.2,6.8c-0.7,4.8,4,9.2,3,13.9
									c-0.5,2.5-2.6,4.6-3,7.1c-0.4,2.5,1,4.9,2.6,6.8s3.6,3.4,5.1,5.5c0,0,3,5,12.3,1.8"/>
							</g>
						</g>
					</g>
				</g>
				<g id="Grupo_53819" transform="translate(7.582)">
					<g id="Grupo_53818">
						<g id="Grupo_53817">
							<g id="Grupo_53816">
								<path id="Trazado_99400" class="st8" d="M122,35.4c0.1-2.5-2.2-4.4-4.5-5.3s-4.8-1.2-6.9-2.6c-1.8-1.2-3-3.1-4.5-4.7
									c-5.9-5.9-15.4-6-21.4-0.1c-2,1.9-3.4,4.4-4,7.1c-0.9,3.5-0.3,7.6,2.5,10c3.2,2.7,7.9,2.1,12,1.3s8.7-1.7,12.2,0.7
									c2.1,1.5,3.2,3.8,4.5,6s2.8,4.4,5.2,5.2s5.6-0.6,5.7-3.1"/>
							</g>
						</g>
					</g>
				</g>
				<g id="Grupo_53921" transform="translate(5.211 11.902)">
					<g id="Grupo_53920">
						<g id="Grupo_53919">
							<g id="Grupo_53918">
								<g id="Grupo_53897">
									<g id="Grupo_53896">
										<g id="Grupo_53895">
											<g id="Grupo_53829">
												<g id="Grupo_53828">
													<g id="Grupo_53827">
														<g id="Grupo_53826">
															<g id="Grupo_53825">
																<g id="Grupo_53824">
																	<g id="Grupo_53823">
																		<g id="Grupo_53822">
																			<g id="Grupo_53821">
																				<g id="Grupo_53820">
																					<path id="Trazado_99401" class="st10" d="M114.7,24c2.1,0.2,3.7,2,3.7,4.2l0,0l-2.5,55.5
																						c-0.1,6.6-9.7,10.2-16.7,10.1l0,0c-7.1-0.2-7.3-3.6-7.4-9.9c-0.1-10.4-0.1-14.3-0.1-14.3c0,0-9-1.5-10.8-13.2
																						c-0.9-5.8-0.6-15.3-0.1-23.1c0.5-7,5.1-15.6,12.1-14.8L114.7,24z"/>
																				</g>
																			</g>
																		</g>
																	</g>
																</g>
															</g>
														</g>
													</g>
												</g>
											</g>
											<g id="Grupo_53851" transform="translate(2.152 17.029)">
												<g id="Grupo_53839" transform="translate(0.406 4.211)">
													<g id="Grupo_53838">
														<g id="Grupo_53837">
															<g id="Grupo_53836">
																<g id="Grupo_53835">
																	<g id="Grupo_53834">
																		<g id="Grupo_53833">
																			<g id="Grupo_53832">
																				<g id="Grupo_53831">
																					<g id="Grupo_53830">
																						<path id="Trazado_99402" class="st8" d="M80.3,19.7c0,0.8,0.6,1.5,1.4,1.5c0.8,0.1,1.5-0.5,1.5-1.3
																							c0,0,0,0,0,0c0-0.8-0.6-1.5-1.4-1.5C81,18.3,80.3,18.9,80.3,19.7C80.3,19.7,80.3,19.7,80.3,19.7z"/>
																					</g>
																				</g>
																			</g>
																		</g>
																	</g>
																</g>
															</g>
														</g>
													</g>
												</g>
												<g id="Grupo_53850">
													<g id="Grupo_53849">
														<g id="Grupo_53848">
															<g id="Grupo_53847">
																<g id="Grupo_53846">
																	<g id="Grupo_53845">
																		<g id="Grupo_53844">
																			<g id="Grupo_53843">
																				<g id="Grupo_53842">
																					<g id="Grupo_53841">
																						<g id="Grupo_53840">
																							<path id="Trazado_99403" class="st8" d="M80.3,20c0.2,0.2,1.3-0.6,2.9-0.6s2.8,0.8,3,0.6
																								c0.1-0.1-0.1-0.4-0.6-0.8c-0.7-0.5-1.5-0.7-2.4-0.7c-0.8,0-1.7,0.3-2.3,0.7C80.4,19.5,80.2,19.9,80.3,20z"/>
																						</g>
																					</g>
																				</g>
																			</g>
																		</g>
																	</g>
																</g>
															</g>
														</g>
													</g>
												</g>
											</g>
											<g id="Grupo_53873" transform="translate(17.54 17.821)">
												<g id="Grupo_53861" transform="translate(0 3.705)">
													<g id="Grupo_53860">
														<g id="Grupo_53859">
															<g id="Grupo_53858">
																<g id="Grupo_53857">
																	<g id="Grupo_53856">
																		<g id="Grupo_53855">
																			<g id="Grupo_53854">
																				<g id="Grupo_53853">
																					<g id="Grupo_53852">
																						<path id="Trazado_99404" class="st8" d="M80.3,19.7c0,0.8,0.6,1.5,1.4,1.5c0.8,0.1,1.5-0.5,1.5-1.3
																							c0,0,0,0,0,0c0-0.8-0.6-1.5-1.4-1.5C81,18.3,80.3,18.9,80.3,19.7C80.3,19.7,80.3,19.7,80.3,19.7z"/>
																					</g>
																				</g>
																			</g>
																		</g>
																	</g>
																</g>
															</g>
														</g>
													</g>
												</g>
												<g id="Grupo_53872" transform="translate(0.837)">
													<g id="Grupo_53871">
														<g id="Grupo_53870">
															<g id="Grupo_53869">
																<g id="Grupo_53868">
																	<g id="Grupo_53867">
																		<g id="Grupo_53866">
																			<g id="Grupo_53865">
																				<g id="Grupo_53864">
																					<g id="Grupo_53863">
																						<g id="Grupo_53862">
																							<path id="Trazado_99405" class="st8" d="M80.3,20c0.2,0.2,1.3-0.6,2.9-0.6s2.8,0.8,3,0.6
																								c0.1-0.1-0.1-0.4-0.6-0.8c-0.7-0.5-1.5-0.7-2.4-0.7c-0.8,0-1.7,0.3-2.3,0.7C80.4,19.5,80.2,19.9,80.3,20z"/>
																						</g>
																					</g>
																				</g>
																			</g>
																		</g>
																	</g>
																</g>
															</g>
														</g>
													</g>
												</g>
											</g>
											<g id="Grupo_53884" transform="translate(8.391 18.711)">
												<g id="Grupo_53883">
													<g id="Grupo_53882">
														<g id="Grupo_53881">
															<g id="Grupo_53880">
																<g id="Grupo_53879">
																	<g id="Grupo_53878">
																		<g id="Grupo_53877">
																			<g id="Grupo_53876">
																				<g id="Grupo_53875">
																					<g id="Grupo_53874">
																						<path id="Trazado_99406" class="st8" d="M84.4,31.8c-0.8-0.3-1.7-0.4-2.6-0.5c-0.4,0-0.8-0.1-0.9-0.4
																							c0-0.4,0.1-0.9,0.3-1.2c0.4-1,0.8-2,1.2-3.1c1.7-4.5,2.9-8.1,2.8-8.2s-1.7,3.5-3.4,8
																							c-0.4,1.1-0.8,2.1-1.2,3.2c-0.3,0.5-0.3,1.1-0.2,1.6c0.1,0.3,0.4,0.5,0.7,0.6c0.2,0.1,0.5,0.1,0.7,0.1
																							C82.6,31.9,83.5,31.9,84.4,31.8z"/>
																					</g>
																				</g>
																			</g>
																		</g>
																	</g>
																</g>
															</g>
														</g>
													</g>
												</g>
											</g>
											<g id="Grupo_53894" transform="translate(11.359 47.092)">
												<g id="Grupo_53893">
													<g id="Grupo_53892">
														<g id="Grupo_53891">
															<g id="Grupo_53890">
																<g id="Grupo_53889">
																	<g id="Grupo_53888">
																		<g id="Grupo_53887">
																			<g id="Grupo_53886">
																				<g id="Grupo_53885">
																					<path id="Trazado_99407" class="st11" d="M80.3,22.5c5.5,0.1,10.9-1.3,15.7-4.1c0,0-4,8-15.7,6.9V22.5z"/>
																				</g>
																			</g>
																		</g>
																	</g>
																</g>
															</g>
														</g>
													</g>
												</g>
											</g>
										</g>
									</g>
								</g>
								<g id="Grupo_53907" transform="translate(17.687 14.28)">
									<g id="Grupo_53906">
										<g id="Grupo_53905">
											<g id="Grupo_53904">
												<g id="Grupo_53903">
													<g id="Grupo_53902">
														<g id="Grupo_53901">
															<g id="Grupo_53900">
																<g id="Grupo_53899">
																	<g id="Grupo_53898">
																		<path id="Trazado_99408" class="st8" d="M80.3,19.6c0.2,0.4,1.8,0.2,3.7,0.5c1.9,0.2,3.4,0.7,3.7,0.4
																			c0.1-0.2-0.2-0.6-0.8-1c-1.7-1.1-3.7-1.3-5.6-0.6C80.5,19,80.2,19.4,80.3,19.6z"/>
																	</g>
																</g>
															</g>
														</g>
													</g>
												</g>
											</g>
										</g>
									</g>
								</g>
								<g id="Grupo_53917" transform="translate(2.369 13.365)">
									<g id="Grupo_53916">
										<g id="Grupo_53915">
											<g id="Grupo_53914">
												<g id="Grupo_53913">
													<g id="Grupo_53912">
														<g id="Grupo_53911">
															<g id="Grupo_53910">
																<g id="Grupo_53909">
																	<g id="Grupo_53908">
																		<path id="Trazado_99409" class="st8" d="M80.3,20c0.3,0.4,1.6,0,3.1,0c1.5-0.1,2.8,0.3,3.1-0.1
																			c0.1-0.2-0.1-0.6-0.6-0.9c-0.8-0.4-1.6-0.6-2.5-0.6c-0.9,0-1.7,0.3-2.5,0.7C80.3,19.5,80.2,19.9,80.3,20z"/>
																	</g>
																</g>
															</g>
														</g>
													</g>
												</g>
											</g>
										</g>
									</g>
								</g>
							</g>
						</g>
					</g>
				</g>
				<g id="Grupo_53925" transform="translate(15.091 9.406)">
					<g id="Grupo_53924">
						<g id="Grupo_53923">
							<g id="Grupo_53922">
								<path id="Trazado_99410" class="st8" d="M112.9,64.9c-5.6,1.1-11.1-2.5-12.2-8.1c-0.2-1.1-0.3-2.2-0.1-3.4
									c0.4-2.9,1.9-5.8,0.9-8.5c-1.3-3.6-6.3-4.7-7.7-8.3c-0.8-2.1-0.1-4.5-1-6.6c-0.8-1.9-2.8-3-4.8-3.7s-4.1-1.2-5.7-2.5
									s-2.7-3.7-1.6-5.5c8.7,1,17.3,3.1,25.5,6.2c1.9,0.7,3.9,1.6,5,3.3c1.2,1.8,1.1,4.1,1,6.3c-0.5,10.5-1,21-1.5,31.5"/>
							</g>
						</g>
					</g>
				</g>
				<g id="Grupo_53929" transform="translate(14.989 6.855)">
					<g id="Grupo_53928">
						<g id="Grupo_53927">
							<g id="Grupo_53926">
								<path id="Trazado_99411" class="st9" d="M119.2,29.5c0.1,0.1,0.2,0.3,0.2,0.5c0.1,0.5-0.1,1-0.5,1.4c-0.5,0.6-1.3,1-2.1,1.1
									c-1-0.1-2.1-0.4-3-0.9c-1-0.6-2.2-0.9-3.4-1c-1.4,0-2.8,0.1-4.1,0.4c-1.5,0.3-3.1,0.5-4.7,0.6c-1.8,0.1-3.5-0.6-4.8-1.7
									c-1.2-1.2-2.1-2.7-2.8-4.3c-0.6-1.4-1.3-2.8-2.2-4c-1.6-2.1-4.2-3.1-6.7-2.5c-1.7,0.4-3.1,1.5-4.1,3
									c-0.3,0.6-0.6,1.1-0.9,1.7c0,0,0-0.2,0.1-0.5c0.1-0.5,0.3-0.9,0.6-1.4c0.9-1.6,2.4-2.8,4.2-3.3c1.2-0.3,2.5-0.3,3.8,0.1
									c1.4,0.4,2.6,1.3,3.5,2.5c0.9,1.3,1.7,2.7,2.3,4.1c0.6,1.5,1.5,2.9,2.6,4.1c1.2,1.1,2.8,1.7,4.4,1.6
									c1.5-0.1,3.1-0.2,4.6-0.6c1.4-0.3,2.8-0.4,4.3-0.3c1.3,0.1,2.5,0.5,3.6,1.1c0.8,0.5,1.8,0.8,2.8,0.9c0.7,0,1.4-0.3,1.9-0.9
									c0.3-0.3,0.5-0.8,0.5-1.2C119.3,29.7,119.2,29.5,119.2,29.5z"/>
							</g>
						</g>
					</g>
				</g>
				<g id="Grupo_53933" transform="translate(42.717 11.828)">
					<g id="Grupo_53932">
						<g id="Grupo_53931">
							<g id="Grupo_53930">
								<path id="Trazado_99412" class="st9" d="M92.8,25.7c-0.2,0.1-1.9-2.8-5.5-4.9c-3.6-2.1-7-2.1-7-2.3c0.7-0.1,1.5-0.1,2.2,0
									c3.6,0.5,6.9,2.4,9.2,5.3C92.2,24.3,92.6,25,92.8,25.7z"/>
							</g>
						</g>
					</g>
				</g>
				<g id="Grupo_53936" transform="translate(13.549 3.842)">
					<g id="Grupo_53935">
						<g id="Grupo_53934">
							<path id="Trazado_99413" class="st9" d="M108.9,25.9c0,0,0,0.1-0.2,0.3c-0.2,0.3-0.5,0.6-0.7,0.8c-1.1,0.8-2.5,1.1-3.9,0.9
								c-2-0.5-3.7-1.5-5.1-3c-1.6-1.5-3-3.5-5.2-4.7c-2-1.1-4.4-1.4-6.7-0.9c-1.8,0.5-3.5,1.5-4.7,3c-0.8,1-1.4,2.2-1.8,3.4
								c-0.3,0.9-0.3,1.4-0.4,1.4c0,0,0-0.1,0-0.4c0-0.4,0.1-0.7,0.1-1.1c0.3-1.3,0.9-2.5,1.7-3.6c1.2-1.6,2.9-2.8,4.9-3.3
								c2.4-0.6,5-0.3,7.1,0.9c2.3,1.3,3.8,3.4,5.3,4.9c1.2,1.4,2.9,2.5,4.7,3c1.3,0.3,2.6,0,3.7-0.6
								C108.2,26.5,108.5,26.2,108.9,25.9z"/>
						</g>
					</g>
				</g>
				<g id="Grupo_53938" transform="translate(41.606 19.647)">
					<g id="Grupo_53937">
						<path id="Trazado_99414" class="st9" d="M80.3,59.7c0.2,0.1,0.3,0.1,0.5,0.1c0.5,0.1,1,0.1,1.5,0.2c1.9,0,3.8-0.4,5.5-1.2
							c2.6-1.3,4.7-3.4,5.9-6c1.5-3.2,1.9-6.8,1-10.2c-0.5-1.7-0.8-3.4-1-5.1c-0.1-1.6,0.3-3.2,1.2-4.5c0.8-1.3,1.4-2.7,1.8-4.1
							c0.3-1.3,0.3-2.6,0.1-4c-0.3-1.9-1.2-3.7-2.4-5.1c-0.3-0.4-0.7-0.7-1.1-1.1c-0.1-0.1-0.3-0.2-0.5-0.3c0,0.1,0.5,0.5,1.4,1.5
							c1.1,1.5,1.9,3.2,2.1,5c0.2,1.3,0.1,2.5-0.2,3.8c-0.4,1.4-1,2.7-1.8,4c-0.4,0.7-0.7,1.5-1,2.3c-0.2,0.8-0.3,1.7-0.3,2.6
							c0.2,1.8,0.5,3.5,1,5.2c0.9,3.3,0.5,6.7-0.9,9.7c-2,4.2-6.2,7-10.8,7.2C81,59.8,80.3,59.7,80.3,59.7z"/>
					</g>
				</g>
				<g id="Grupo_53940" transform="translate(50.513 7.907)">
					<g id="Grupo_53939">
						<path id="Trazado_99415" class="st9" d="M92.1,19.7c-0.5-0.5-1.2-0.9-2-1c-3.7-1.1-7.6,0.7-9.3,4.2c-0.4,0.7-0.6,1.4-0.5,2.2
							c0.1,0,0.3-0.8,1-2c1.7-3.1,5.2-4.7,8.7-4C91.3,19.4,92,19.8,92.1,19.7z"/>
					</g>
				</g>
				<g id="Grupo_53942" transform="translate(53.428 10.535)">
					<g id="Grupo_53941">
						<path id="Trazado_99416" class="st9" d="M80.5,24.5c0,0,0-0.3,0-0.8c0-0.7,0.2-1.4,0.5-2.1c0.6-1,1.4-1.8,2.4-2.3
							c1.3-0.7,2.9-0.7,4.3-0.1c1.7,0.7,3,2,3.8,3.7c0.9,1.9,1.3,4,1.2,6.1c-0.2,2.3-0.5,4.7-1.1,6.9c-0.6,2.5-0.9,5-0.9,7.6
							c0.2,2.6,0.9,5.1,2,7.4c1,2.1,1.8,4.3,2.5,6.6c0.6,2,0.8,4.1,0.5,6.2c-0.3,1.8-0.8,3.6-1.6,5.2c-1.2,2.4-2.6,4.7-4.3,6.8
							c-0.5,0.7-1,1.3-1.3,1.8c-0.2,0.2-0.3,0.4-0.4,0.6c0.2-0.2,0.4-0.3,0.5-0.6c0.3-0.4,0.8-0.9,1.4-1.7c1.7-2.1,3.3-4.3,4.5-6.7
							c0.9-1.7,1.4-3.5,1.7-5.4c0.3-2.2,0.2-4.4-0.5-6.5c-0.7-2.3-1.6-4.5-2.5-6.6c-1-2.3-1.7-4.7-1.9-7.2
							c-0.2-5.1,1.9-9.9,1.9-14.5c0.1-2.2-0.3-4.4-1.3-6.3c-0.9-1.7-2.4-3.1-4.1-3.8c-1.5-0.6-3.2-0.5-4.6,0.2
							c-1.1,0.6-1.9,1.4-2.5,2.5c-0.4,0.7-0.5,1.4-0.4,2.2C80.3,24,80.4,24.2,80.5,24.5z"/>
					</g>
				</g>
				<g id="Grupo_53945" transform="translate(18.088 46.03)">
					<g id="Grupo_53944">
						<g id="Grupo_53943">
							<path id="Trazado_99417" class="st11" d="M80.5,20.3c0.2,0.7,0.6,1.4,1,2c0.4,0.6,1.1,1,1.9,1.1c0.8,0,1.5-0.4,2-1.1
								c0.4-0.7,0.6-1.5,0.6-2.3c0-0.7-0.4-1.6-1.1-1.7c-0.3,0-0.6,0.1-0.9,0.2c-1.2,0.5-2.5,1-3.7,1.5"/>
						</g>
					</g>
				</g>
				<g id="Grupo_53949" transform="translate(17.394 45.644)">
					<g id="Grupo_53948">
						<g id="Grupo_53947">
							<g id="Grupo_53946">
								<path id="Trazado_99418" class="st8" d="M82.7,23.8c0.7,0,1.3,0,2-0.2c0.7-0.3,1.2-0.7,1.5-1.4c0.4-0.8,0.4-1.7,0-2.4
									c-0.1-0.2-0.2-0.4-0.3-0.6c-0.1-0.2-0.1-0.1-0.3-0.1c-0.2,0-0.4,0.2-0.6,0.2s-0.4,0.2-0.6,0.3c-0.8,0.3-1.5,0.6-2.1,0.8
									c-0.6,0.3-1.3,0.5-2,0.6c0.6-0.4,1.2-0.8,1.8-1c0.6-0.3,1.3-0.6,2.1-1c0.2-0.1,0.4-0.2,0.6-0.3c0.2-0.1,0.4-0.2,0.7-0.3
									c0.2-0.1,0.4-0.1,0.6,0c0.2,0.1,0.3,0.2,0.4,0.3c0.8,1.1,0.9,2.5,0.3,3.7c-0.4,0.7-1.1,1.3-1.9,1.5
									c-0.5,0.2-1.1,0.2-1.6,0.1C82.8,23.9,82.7,23.8,82.7,23.8z"/>
							</g>
						</g>
					</g>
				</g>
			</g>
			<g id="Grupo_53952" transform="translate(148.509 204.302)">
				<g id="Grupo_53951">
					<path id="Trazado_99419" class="st8" d="M80.3,18.6c0,0.1,0.1,0.3,0.1,0.4C80.3,18.5,80.2,18.1,80.3,18.6z"/>
				</g>
			</g>
			<g id="Grupo_53963" transform="translate(159.459 210.329)">
				<g id="Grupo_53954">
					<g id="Grupo_53953">
						<path id="Trazado_99420" class="st10" d="M80.3,22.6l1.6,14.6l13.3,12.2c0.6-1,0.8-2.2,0.5-3.4c-0.6-1.5,3,2,3,2v8.4
							c0,0,2.3,0.9,3-1.1s1.2-9.1,1.2-9.1l-1.1-0.8c0.9-0.9,1.3-2.1,1.1-3.4c0.8-1.9,1-4,0.8-6.1c-0.2-1.8-0.7-3.6-1.4-5.3
							L91.6,18.4L80.3,22.6z"/>
					</g>
				</g>
				<g id="Grupo_53956" transform="translate(6.693 18.201)">
					<g id="Grupo_53955">
						<path id="Trazado_99421" class="st11" d="M80.3,18.4c2.3,3.5,5.3,6.6,8.7,9c0.1-0.1-2-2-4.4-4.5
							C82.2,20.4,80.4,18.3,80.3,18.4z"/>
					</g>
				</g>
				<g id="Grupo_53958" transform="translate(16.065 20.861)">
					<g id="Grupo_53957">
						<path id="Trazado_99422" class="st11" d="M80.3,18.4c2,2.6,4.2,4.9,6.8,6.9c-0.9-1.3-2-2.6-3.2-3.7
							C82.8,20.4,81.6,19.3,80.3,18.4z"/>
					</g>
				</g>
				<g id="Grupo_53960" transform="translate(17.857 17.524)">
					<g id="Grupo_53959">
						<path id="Trazado_99423" class="st11" d="M80.3,18.4c0.8,1,1.6,2,2.5,3c0.8,1.1,1.6,2.1,2.4,3.1c-0.4-1.3-1.1-2.4-2-3.4
							C82.5,19.9,81.4,19,80.3,18.4z"/>
					</g>
				</g>
				<g id="Grupo_53962" transform="translate(19.395 14.07)">
					<g id="Grupo_53961">
						<path id="Trazado_99424" class="st11" d="M80.3,18.4c0.6,0.9,1.2,1.7,2,2.4c0.6,0.8,1.3,1.6,2.1,2.3c-0.3-1-0.9-1.9-1.7-2.7
							C82,19.6,81.2,18.9,80.3,18.4z"/>
					</g>
				</g>
			</g>
			<g id="Grupo_53965" transform="translate(71.184 45.412)">
				<g id="Grupo_53964">
					<path id="Trazado_99425" class="st9" d="M89.8,22.7c-0.1,0.2-2.3-0.7-4.9-1.9c-1.6-0.6-3.2-1.5-4.6-2.5
						c0.1-0.2,2.3,0.7,4.9,1.9S89.8,22.6,89.8,22.7z"/>
				</g>
			</g>
			<g id="Grupo_54005">
				<g id="Grupo_53967" transform="translate(42.489 69.157)">
					<g id="Grupo_53966">
						<path id="Trazado_99426" class="st10" d="M103,21.4c-1.1,0-3.8,1.6-5.9,4.5c0,0-0.1,0.1-0.1,0.1c-1.5,2-3-3.7-3.2-5.8
							c-0.2-1.2-1.3-2-2.5-1.8c-0.2,0-0.3,0.1-0.5,0.1l-7.1,3.3l-2.1,0.1c-1,0.4-1.6,1.4-1.4,2.5l3.4,11.2l0.1,3L98,40.5l0.2-7.6
							c0.2-0.9,0.5-1.9,0.9-3.1c0.3-1.1,0.9-2.1,1.6-3c0.7-1,1.6-2,2.6-2.8c0.1,0,0.2-0.1,0.2-0.2c0.2-0.1,0.3-0.2,0.4-0.4
							c0.5-0.5,0.5-1.3,0-1.7C103.6,21.6,103.3,21.4,103,21.4z"/>
					</g>
				</g>
				<g id="Grupo_53969">
					<g id="Grupo_53968">
						<path id="Trazado_99427" class="st6" d="M145.3,56.1c0,0-8.3-1.6-20.2-12.4s-17.7-25.4-19.2-25.3s-7.7-2.6-18.7,23.3
							S81,73.5,83.3,73.4s18.1-5,28.1-4.1s22.9,5.7,22.9,5.7L145.3,56.1z"/>
					</g>
				</g>
				<g id="Grupo_53971" transform="translate(52.233 32.99)">
					<g id="Grupo_53970">
						<path id="Trazado_99428" class="st8" d="M110.9,36.6l-2.7,5.4l-1.2,2.4c-1.6,3.3-5.6,4.8-9,3.3l-17.8-5.6l9.6-23.7l17.9,8.9
							C111.2,29,112.6,33.1,110.9,36.6z"/>
					</g>
				</g>
				<g id="Grupo_53973" transform="translate(41.475 56.452)">
					<g id="Grupo_53972">
						<path id="Trazado_99429" class="st8" d="M111.7,21.9l-5.3,11.2l-2.8-0.7L85.7,47.8L80.3,38c0,0,10.7-5,12.6-8.9
							s-0.5-4.7-0.5-4.7l4.9-5.9L111.7,21.9z"/>
					</g>
				</g>
				<g id="Grupo_53975" transform="translate(1.509 0.619)">
					<g id="Grupo_53974">
						<path id="Trazado_99430" class="st8" d="M86.7,41.6c-5.9,14-8.1,26.5-5,27.8s10.3-9,16.2-23.1s8.1-26.5,5-27.8
							S92.5,27.5,86.7,41.6z"/>
					</g>
				</g>
				<g id="Grupo_53977" transform="translate(79.765 51.766)">
					<g id="Grupo_53976">
						<path id="Trazado_99431" class="st9" d="M85.1,25.5l-4.8-1.4l2.8-5.7l3.6,2.1L85.1,25.5z"/>
					</g>
				</g>
				<g id="Grupo_53979" transform="translate(56.875 58.487)" class="st12">
					<g id="Grupo_53978">
						<path id="Trazado_99432" d="M80.3,18.4l13.1,7.8l1.5-3.2L80.3,18.4z"/>
					</g>
				</g>
				<g id="Grupo_53981" transform="translate(68.775 48.745)">
					<g id="Grupo_53980">
						<path id="Trazado_99433" class="st9" d="M90.8,22.8c-0.1,0.2-2.5-0.7-5.4-1.9s-5.2-2.3-5.1-2.5s2.5,0.7,5.4,1.9
							S90.9,22.6,90.8,22.8z"/>
					</g>
				</g>
				<g id="Grupo_53983" transform="translate(67.951 52.769)">
					<g id="Grupo_53982">
						<path id="Trazado_99434" class="st9" d="M89.9,22.3c-0.5,0-1-0.1-1.5-0.3c-0.5-0.1-1-0.3-1.6-0.5s-1.2-0.5-1.9-0.8
							c-1.6-0.6-3.2-1.4-4.6-2.4c0.1-0.2,2.2,0.7,4.9,1.8c0.7,0.3,1.3,0.6,1.8,0.8s1.1,0.4,1.5,0.6C89.4,22,89.9,22.3,89.9,22.3z"/>
					</g>
				</g>
				<g id="Grupo_53985" transform="translate(8.695 19.452)">
					<g id="Grupo_53984">
						<path id="Trazado_99435" class="st13" d="M92.2,19.3c0,0-7.3-4.2-10.9,5.5S85.2,36,85.2,36C88.3,30.8,90.6,25.2,92.2,19.3z"/>
					</g>
				</g>
				<g id="Grupo_53987" transform="translate(8.583 8.647)">
					<g id="Grupo_53986">
						<path id="Trazado_99436" class="st8" d="M99.5,18.4c0,0.6-0.1,1.2-0.2,1.8c-0.2,1.2-0.5,2.9-0.9,5c-0.3,1-0.6,2.2-0.9,3.4
							c-0.2,0.6-0.3,1.2-0.5,1.9l-0.3,1c-0.1,0.3-0.2,0.7-0.3,1c-0.5,1.3-1,2.8-1.5,4.2c-0.1,0.4-0.3,0.7-0.4,1.1s-0.3,0.7-0.5,1.1
							c-0.3,0.7-0.7,1.5-1,2.2s-0.7,1.5-1,2.2c-0.2,0.4-0.3,0.7-0.5,1.1s-0.4,0.7-0.6,1c-0.7,1.4-1.5,2.7-2.2,3.9
							c-0.2,0.3-0.3,0.6-0.5,0.9c-0.2,0.3-0.4,0.6-0.6,0.9c-0.4,0.6-0.7,1.1-1.1,1.6c-0.7,1-1.4,2-2,2.9c-1.3,1.7-2.4,3-3.2,4
							c-0.4,0.5-0.8,1-1.2,1.4c0.3-0.5,0.7-1.1,1.1-1.5c0.7-1,1.8-2.4,3-4.1c0.6-0.9,1.2-1.9,1.9-2.9c0.3-0.5,0.7-1.1,1.1-1.6
							c0.2-0.3,0.4-0.6,0.6-0.9s0.3-0.6,0.5-0.9c0.7-1.2,1.4-2.6,2.1-3.9l0.6-1c0.2-0.3,0.3-0.7,0.5-1.1c0.3-0.7,0.7-1.5,1-2.2
							s0.7-1.5,1-2.2c0.2-0.4,0.3-0.7,0.5-1.1s0.3-0.7,0.4-1.1c0.5-1.4,1-2.8,1.5-4.2c0.1-0.3,0.3-0.7,0.4-1s0.2-0.7,0.3-1
							c0.2-0.6,0.4-1.3,0.5-1.9c0.3-1.2,0.7-2.3,1-3.4c0.4-2.1,0.8-3.8,1-5C99.2,19.6,99.3,19,99.5,18.4z"/>
					</g>
				</g>
				<g id="Grupo_53989" transform="translate(49.629 67.042)">
					<g id="Grupo_53988">
						<path id="Trazado_99437" class="st10" d="M81.2,18.5c-0.8,0.3-1.1,1.2-0.8,2c0.6,1.5,1.4,4,2.1,5.4c0.2,0.5,0.5,0.9,0.8,1.3
							c0.3,0.4,0.9,0.5,1.4,0.4c0.5-0.2,0.8-0.7,0.8-1.3c0-0.5-0.1-1.1-0.3-1.6c-0.5-1.4-1.3-3.6-1.9-5.3c-0.3-0.8-1.1-1.2-1.9-0.9
							C81.3,18.5,81.2,18.5,81.2,18.5L81.2,18.5z"/>
					</g>
				</g>
				<g id="Grupo_53991" transform="translate(47.484 69.881)">
					<g id="Grupo_53990">
						<path id="Trazado_99438" class="st10" d="M81.2,18.5c-0.8,0.3-1.1,1.2-0.8,2c0.6,1.5,1.4,4,2.1,5.4c0.2,0.5,0.5,0.9,0.8,1.3
							c0.3,0.4,0.9,0.5,1.4,0.4c0.5-0.2,0.8-0.8,0.8-1.3c0-0.5-0.1-1.1-0.3-1.6c-0.5-1.4-1.3-3.6-1.9-5.3
							C82.9,18.6,82,18.2,81.2,18.5C81.2,18.5,81.2,18.5,81.2,18.5L81.2,18.5z"/>
					</g>
				</g>
				<g id="Grupo_53993" transform="translate(45.495 71.701)">
					<g id="Grupo_53992">
						<path id="Trazado_99439" class="st10" d="M81.1,18.5c-0.7,0.3-1,1.1-0.8,1.8c0.5,1.3,1.3,3.4,1.9,4.7c0.2,0.4,0.4,0.8,0.7,1.1
							c0.4,0.5,1.1,0.5,1.6,0.1c0.3-0.2,0.4-0.6,0.4-0.9c0-0.5-0.1-1-0.3-1.4c-0.4-1.2-1.1-3.1-1.8-4.6
							C82.6,18.6,81.8,18.2,81.1,18.5C81.1,18.5,81.1,18.5,81.1,18.5L81.1,18.5z"/>
					</g>
				</g>
				<g id="Grupo_53995" transform="translate(42.761 72.306)">
					<g id="Grupo_53994">
						<path id="Trazado_99440" class="st10" d="M81.1,18.5c-0.7,0.3-1,1.1-0.8,1.8c0.5,1.3,1.3,3.4,1.9,4.7c0.2,0.4,0.4,0.8,0.7,1.1
							c0.4,0.5,1.1,0.5,1.6,0.1c0.3-0.2,0.4-0.6,0.4-0.9c0-0.5-0.1-1-0.3-1.4c-0.4-1.3-1.2-3.1-1.8-4.7
							C82.6,18.5,81.8,18.2,81.1,18.5L81.1,18.5z"/>
					</g>
				</g>
				<g id="Grupo_53998" transform="translate(50.092 70.353)">
					<g id="Grupo_53997">
						<g id="Grupo_53996">
							<path id="Trazado_99441" class="st11" d="M82.6,24c-0.6-0.8-1.1-1.7-1.4-2.7c-0.5-0.9-0.8-1.9-0.9-2.9
								c0.6,0.8,1.1,1.7,1.4,2.7C82.2,22,82.5,23,82.6,24z"/>
						</g>
					</g>
				</g>
				<g id="Grupo_54001" transform="translate(47.542 71.894)">
					<g id="Grupo_54000">
						<g id="Grupo_53999">
							<path id="Trazado_99442" class="st11" d="M82.8,24.8c-0.7-0.9-1.2-2-1.5-3.1c-0.5-1-0.9-2.2-1-3.3c0.7,0.9,1.2,2,1.5,3.1
								C82.3,22.5,82.7,23.7,82.8,24.8z"/>
						</g>
					</g>
				</g>
				<g id="Grupo_54004" transform="translate(45.274 72.973)">
					<g id="Grupo_54003">
						<g id="Grupo_54002">
							<path id="Trazado_99443" class="st11" d="M82.7,24.1c-0.7-0.8-1.2-1.7-1.6-2.7c-0.5-0.9-0.8-1.9-0.8-3c0.6,0.9,1,1.8,1.3,2.8
								C82.1,22.1,82.5,23.1,82.7,24.1z"/>
						</g>
					</g>
				</g>
			</g>
			<g id="Grupo_54020" transform="translate(53.223 167.683)">
				<g id="Grupo_54007">
					<g id="Grupo_54006">
						<path id="Trazado_99444" class="st8" d="M177.9,145.3l-7.5-59.9c4.9-11.4,6.6-22.7,5.2-29.8c0.1,0.7,0.1,1.6-0.1-0.4
							c-1.2-12.5-12-21.7-12-21.7L160,18.4l-46.2,6.5l1.7,25.4L85.7,155.4l-5.4,88.9l24.1,2.8c0,0,9.5-44.5,12-63
							c1.4-10.1,2.2-20.2,2.4-30.4l22.7-33.9c2.7,14,5.7,31.3,7.3,40.3c0.7,4,2.4,7.8,5,11l59.3,46.7l0-28.1
							C207.4,176.2,177.9,145.3,177.9,145.3z"/>
					</g>
				</g>
				<g id="Grupo_54010" transform="translate(36.563 7.304)">
					<g id="Grupo_54009">
						<g id="Grupo_54008">
							<path id="Trazado_99445" class="st9" d="M83.2,36.4c-0.4-0.8-0.8-1.6-1-2.5c-0.6-2.1-1.1-4.2-1.4-6.3
								c-0.3-2.1-0.5-4.3-0.5-6.5c-0.1-0.9,0-1.8,0.2-2.7c0.2,0.9,0.2,1.8,0.2,2.7c0.1,1.6,0.3,3.9,0.7,6.4s0.9,4.7,1.3,6.3
								C82.9,34.6,83,35.5,83.2,36.4z"/>
						</g>
					</g>
				</g>
				<g id="Grupo_54013" transform="translate(39.729 7.739)">
					<g id="Grupo_54012">
						<g id="Grupo_54011">
							<path id="Trazado_99446" class="st9" d="M82.1,18.7c0,0,0.2-0.2,0.6-0.3c0.6-0.1,1.2,0,1.8,0.3c0.9,0.4,1.5,1.2,1.6,2.2
								c0.1,1.2-0.5,2.3-1.5,2.9c-1,0.6-2.3,0.5-3.2-0.3c-0.8-0.6-1.2-1.5-1.1-2.4c0.1-0.6,0.2-1.2,0.5-1.7c0.2-0.4,0.3-0.5,0.4-0.5
								s0,0.2-0.2,0.6c-0.2,0.5-0.3,1.1-0.3,1.6c0,0.8,0.4,1.5,1,2c0.7,0.6,1.8,0.7,2.6,0.2c0.8-0.5,1.3-1.4,1.2-2.4
								c-0.1-0.8-0.5-1.5-1.2-1.8C83.6,18.7,82.9,18.6,82.1,18.7z"/>
						</g>
					</g>
				</g>
				<g id="Grupo_54016" transform="translate(52.08 13.989)">
					<g id="Grupo_54015">
						<g id="Grupo_54014">
							<path id="Trazado_99447" class="st9" d="M100.1,24.7c-0.3,0.2-0.5,0.3-0.8,0.3c-0.8,0.3-1.5,0.4-2.3,0.5
								c-1.2,0.2-2.4,0.2-3.6,0.1c-1.5-0.1-2.9-0.4-4.3-0.8c-1.4-0.5-2.7-1.1-4-1.8c-1-0.6-2-1.3-2.8-2.2c-0.6-0.5-1.1-1.1-1.6-1.8
								c-0.3-0.5-0.5-0.7-0.5-0.7c0.1-0.1,0.8,0.9,2.3,2.2c0.9,0.7,1.8,1.4,2.8,2c1.2,0.7,2.5,1.3,3.9,1.7c1.4,0.4,2.7,0.7,4.1,0.8
								c1.2,0.1,2.3,0.1,3.5,0C98.9,25,100.1,24.6,100.1,24.7z"/>
						</g>
					</g>
				</g>
				<g id="Grupo_54019" transform="translate(38.499 65.525)">
					<g id="Grupo_54018">
						<g id="Grupo_54017">
							<path id="Trazado_99448" class="st9" d="M128.5,18.4c-0.1,0.2-0.3,0.5-0.5,0.7c-0.4,0.5-0.9,1.1-1.5,1.9
								c-1.3,1.7-3.1,4.2-5.4,7.3c-4.5,6.2-10.5,15-17.1,24.7c-6.5,9.7-12.5,18.5-16.8,24.9c-2.1,3.1-3.9,5.7-5.1,7.5
								c-0.6,0.8-1.1,1.5-1.4,2c-0.2,0.2-0.3,0.5-0.5,0.7c0.1-0.3,0.3-0.5,0.4-0.7c0.3-0.5,0.8-1.2,1.3-2.1c1.2-1.8,2.9-4.4,4.9-7.6
								c4.2-6.4,10.1-15.3,16.7-25c6.6-9.7,12.7-18.4,17.2-24.6c2.3-3.1,4.2-5.6,5.5-7.2c0.7-0.8,1.2-1.4,1.6-1.9
								C128.1,18.8,128.3,18.6,128.5,18.4z"/>
						</g>
					</g>
				</g>
			</g>
			<g id="Grupo_54046" transform="translate(42.003 80.791)">
				<g id="Grupo_54022" transform="translate(89.758 2.683)">
					<g id="Grupo_54021">
						<path id="Trazado_99449" class="st8" d="M80.4,33.8c0.1,0,0.1-1.2,0.4-3c0.4-2.4,1.2-4.6,2.4-6.7c1.1-2.1,2.8-3.9,4.9-5
							c0.9-0.4,1.9-0.5,2.9-0.5c-0.2-0.1-0.5-0.2-0.8-0.2c-0.8-0.1-1.5,0-2.2,0.3c-2.3,1-4.1,2.8-5.2,5.1c-1.2,2.1-2,4.5-2.3,7
							C80.2,31.8,80.2,32.8,80.4,33.8z"/>
					</g>
				</g>
				<g id="Grupo_54024" transform="translate(41.747)">
					<g id="Grupo_54023">
						<path id="Trazado_99450" class="st1" d="M124.6,18.7l-24.2,3.8l-4.3,3.7c0,0-15.2,29.6-15.5,35.6c-0.3,6.6,3.2,18,3.2,18
							l-3.5,26.2c-0.5,3,1.4,5.9,2.8,5.9l41.8-5.6c5.4-1.1,7.7-3.9,7.3-7.1l-0.6-5.8l17.8-59.8c1.1,3.5-0.6-9.5-8.6-12.5
							C137.5,19.9,129.7,17.6,124.6,18.7z"/>
					</g>
				</g>
				<g id="Grupo_54026" transform="translate(0 5.999)">
					<g id="Grupo_54025">
						<path id="Trazado_99451" class="st1" d="M140.1,18.4c0,0-7.4,5.7-14.5,12.3c-7,6.5-25.8,19.6-25.8,19.6l-1.3-27.3L84.3,21
							c0,0-6.9,34-2.5,43.4s9.6,9.8,24.3,5.1s18.8-6.8,18.8-6.8L140.1,18.4z"/>
					</g>
				</g>
				<g id="Grupo_54028" transform="translate(41.782 10.046)">
					<g id="Grupo_54027">
						<path id="Trazado_99452" class="st8" d="M94.5,18.4c-0.1,0.1-0.2,0.3-0.3,0.4c-0.2,0.3-0.5,0.8-0.9,1.3
							c-0.7,1.1-1.8,2.7-3.1,4.8c-3.4,5.3-6.1,10.9-8.1,16.8c-2,6-2.4,12.4-1.3,18.6c0.4,1.9,1,3.7,1.7,5.4c0.2,0.5,0.4,0.9,0.7,1.4
							c0.1,0.2,0.2,0.3,0.3,0.5c0,0-0.3-0.7-0.8-1.9c-0.7-1.7-1.2-3.5-1.6-5.4c-1-6.1-0.5-12.4,1.4-18.3c2-5.9,4.7-11.5,7.9-16.8
							c1.2-2,2.2-3.6,2.9-4.9c0.3-0.5,0.6-1,0.8-1.3C94.4,18.7,94.5,18.6,94.5,18.4z"/>
					</g>
				</g>
				<g id="Grupo_54030" transform="translate(89.86 2.705)">
					<g id="Grupo_54029">
						<path id="Trazado_99453" class="st1" d="M88.2,18.4c0,0-7.5,9.9-7.9,18.9s13.5,63.3,13.5,63.3l12.2,49.5l15.2-5.6
							c0,0-3.5-35.2-4.2-39.6c-1.4-9.1-7.4-26.9-8.2-37.2s-4.6-30.1-6.5-34.7S100.3,18.1,88.2,18.4z"/>
					</g>
				</g>
				<g id="Grupo_54032" transform="translate(90.484 26.612)">
					<g id="Grupo_54031">
						<path id="Trazado_99454" class="st8" d="M80.3,18.4c0,0.2,0,0.4,0,0.5c0,0.4,0.1,0.9,0.2,1.5c0.2,1.3,0.5,3.2,0.9,5.5
							c0.8,4.6,2.2,11,3.7,18s3.1,13.4,4.3,17.9c0.6,2.3,1.1,4.1,1.5,5.4c0.2,0.6,0.3,1.1,0.4,1.5c0,0.2,0.1,0.3,0.2,0.5
							c0-0.2,0-0.4-0.1-0.5c-0.1-0.4-0.2-0.9-0.3-1.5c-0.3-1.4-0.7-3.2-1.3-5.4c-1.1-4.7-2.5-11-4.2-17.9c-1.6-7-3-13.4-3.9-18
							c-0.4-2.2-0.8-4.1-1.1-5.5c-0.1-0.6-0.2-1.1-0.3-1.5C80.4,18.7,80.3,18.5,80.3,18.4z"/>
					</g>
				</g>
				<g id="Grupo_54034" transform="translate(81.848 23.123)" class="st12">
					<g id="Grupo_54033">
						<path id="Trazado_99455" d="M87.8,82.2c-2.4-2.4-2.9-6.1-3.3-9.4c-1.2-10.7-2.4-21.5-3.6-32.2c-0.7-6.7-1.5-13.7,1.1-20
							c0.3-1,1-1.8,1.9-2.2c1-0.2,2,0.2,2.5,1c0.6,0.8,2.2,1.9,2.5,2.8c2.4,9.6,3.5,19,5.9,28.6c0.6,2.5,1.5,2.4,0.9,5
							c-0.8,3.7-4.3,14.3-4.3,14.3s0.5,3.9,0.6,6.1C92.3,79,90.5,81.5,87.8,82.2"/>
					</g>
				</g>
				<g id="Grupo_54036" transform="translate(91.649 28.998)">
					<g id="Grupo_54035">
						<path id="Trazado_99456" class="st13" d="M80.3,21.3c0.2,0.2,0.5,0.4,0.8,0.6c0.8,0.5,1.6,0.9,2.5,1.3
							c1.3,0.6,2.7,0.9,4.1,0.8c1.7-0.2,3.4-0.8,4.7-1.9c1.3-1,2.7-1.9,4.2-2.7c1.2-0.6,2.5-0.8,3.8-0.6c0.9,0.1,1.7,0.6,2.3,1.2
							c0.4,0.5,0.6,0.8,0.6,0.8c-0.1-0.3-0.2-0.7-0.5-0.9c-0.6-0.7-1.5-1.2-2.4-1.4c-1.4-0.3-2.9-0.1-4.1,0.6
							c-1.5,0.8-2.9,1.7-4.3,2.7c-1.3,1-2.9,1.6-4.5,1.8c-1.3,0.1-2.7-0.2-3.9-0.7C81.6,22,80.3,21.2,80.3,21.3z"/>
					</g>
				</g>
				<g id="Grupo_54038" transform="translate(44.537 29.803)">
					<g id="Grupo_54037">
						<path id="Trazado_99457" class="st13" d="M80.3,19.4c0.1,0.1,0.1,0.3,0.2,0.4c0.2,0.4,0.5,0.7,0.8,1c1.2,1.2,2.6,2,4.2,2.4
							c2.4,0.6,4.8,0.6,7.2,0.1c2.8-0.7,5.6-1.6,8.3-2.7c5-1.8,10.3-2.2,15.5-1c2.1,0.5,4.2,1.2,6.2,2.1c0,0-0.1-0.1-0.4-0.3
							s-0.6-0.4-1.2-0.6c-1.5-0.7-3-1.2-4.6-1.6c-2.3-0.6-4.7-0.8-7.1-0.8c-2.9,0.1-5.9,0.6-8.6,1.7c-2.7,1.1-5.5,2-8.3,2.7
							c-2.3,0.6-4.7,0.6-7,0c-1.5-0.4-3-1.1-4.2-2.2C80.6,19.9,80.3,19.3,80.3,19.4z"/>
					</g>
				</g>
				<g id="Grupo_54040" transform="translate(35.503 25.996)">
					<g id="Grupo_54039">
						<path id="Trazado_99458" class="st13" d="M80.4,18.4c-0.2,0.7-0.2,1.5-0.1,2.3c0.3,3.7,2.1,7.1,5,9.5c0.6,0.5,1.2,0.9,1.9,1.2
							c-0.5-0.5-1.1-1-1.7-1.5c-1.3-1.2-2.4-2.6-3.2-4.2c-0.8-1.6-1.4-3.3-1.6-5C80.5,19.3,80.5,18.4,80.4,18.4z"/>
					</g>
				</g>
				<g id="Grupo_54042" transform="translate(25.739 17.295)" class="st12">
					<g id="Grupo_54041">
						<path id="Trazado_99459" d="M105.7,18.4C94.3,29.8,84.5,42.6,80.3,58.2C86.8,56.1,93,54,97,52.3c0,0-1.2-6.4-0.5-10.2
							C97.5,37.5,97.4,33.6,105.7,18.4"/>
					</g>
				</g>
				<g id="Grupo_54045" transform="translate(15.992 37.879)">
					<g id="Grupo_54044">
						<g id="Grupo_54043">
							<path id="Trazado_99460" class="st8" d="M84,18.4c-0.8,1.1-1.6,2.3-2.3,3.5c-0.5,1.3-1,2.6-1.3,4C80.2,23,81.5,20.1,84,18.4
								L84,18.4z"/>
						</g>
					</g>
				</g>
			</g>
		</g>
	</g>
	<g id="Pictures_1" transform="translate(-12769.768 -12096.89)">
		<g id="Grupo_54089" transform="translate(49.565 44.549)">
			<g id="Grupo_54065">
				<g id="Grupo_54064">
					<g id="Grupo_54063">
						<g id="Grupo_54054" transform="translate(0.268 0.227)">
							<g id="Grupo_54053">
								<g id="Grupo_54052">
									<g id="Grupo_54051">
										<g id="Grupo_54050">
											<g id="Grupo_54049">
												<g id="Grupo_54048">
													
														<rect id="Rectngulo_29338" x="92.2" y="14.7" transform="matrix(0.117 -0.9931 0.9931 0.117 54.8758 173.9891)" class="st13" width="66.2" height="82.9"/>
												</g>
											</g>
										</g>
									</g>
								</g>
							</g>
						</g>
						<g id="Grupo_54062">
							<g id="Grupo_54061">
								<g id="Grupo_54060">
									<g id="Grupo_54059">
										<g id="Grupo_54058">
											<g id="Grupo_54057">
												<g id="Grupo_54056">
													<g id="Grupo_54055">
														<path id="Trazado_99461" class="st8" d="M170.6,28.4l-0.4,0c-0.3,0-0.7-0.1-1.2-0.1c-1-0.1-2.5-0.3-4.5-0.5
															c-3.9-0.5-9.6-1.1-16.9-1.9c-14.5-1.7-35-4.1-59.4-6.9l0.2-0.2c-2.3,19.6-5,42-7.8,65.8v0l-0.2-0.3
															c30.5,3.6,58.8,7,82.3,9.8l-0.2,0.2c2.4-19.8,4.4-36.2,5.8-47.7c0.7-5.7,1.3-10.2,1.6-13.3c0.2-1.5,0.3-2.7,0.4-3.5
															C170.5,28.8,170.6,28.4,170.6,28.4c0,0,0,0.4-0.1,1.2c-0.1,0.8-0.2,2-0.4,3.5c-0.4,3.1-0.9,7.6-1.5,13.3
															c-1.3,11.5-3.2,28-5.6,47.9l0,0.2l-0.2,0c-23.5-2.8-51.8-6.1-82.3-9.7l-0.2,0l0-0.2v0c2.8-23.7,5.5-46.2,7.8-65.8
															l0-0.2l0.2,0c24.5,2.9,45.1,5.4,59.6,7.1c7.2,0.9,12.9,1.6,16.8,2c1.9,0.2,3.4,0.4,4.4,0.6c0.5,0.1,0.9,0.1,1.1,0.1
															C170.5,28.3,170.6,28.4,170.6,28.4z"/>
													</g>
												</g>
											</g>
										</g>
									</g>
								</g>
							</g>
						</g>
					</g>
				</g>
			</g>
			<g id="Grupo_54072" transform="translate(3.595 4.705)">
				<g id="Grupo_54071">
					<g id="Grupo_54070">
						<g id="Grupo_54069">
							<g id="Grupo_54068">
								<g id="Grupo_54067">
									<g id="Grupo_54066">
										
											<rect id="Rectngulo_29339" x="92.9" y="13.1" transform="matrix(0.117 -0.9931 0.9931 0.117 56.3397 166.6731)" class="st14" width="57.9" height="77"/>
									</g>
								</g>
							</g>
						</g>
					</g>
				</g>
			</g>
			<g id="Grupo_54079" transform="translate(3.586 29.634)">
				<g id="Grupo_54078">
					<g id="Grupo_54077">
						<g id="Grupo_54076">
							<g id="Grupo_54075">
								<g id="Grupo_54074">
									<g id="Grupo_54073">
										<path id="Trazado_99462" class="st15" d="M80.3,51l31-32.6l13.9,24.3l12.6-10.6l19,27.9L80.3,51z"/>
									</g>
								</g>
							</g>
						</g>
					</g>
				</g>
			</g>
			<g id="Grupo_54088" transform="translate(46.552 21.264)">
				<g id="Grupo_54087">
					<g id="Grupo_54086">
						<g id="Grupo_54085">
							<g id="Grupo_54084">
								<g id="Grupo_54083">
									<g id="Grupo_54082">
										<g id="Grupo_54081">
											<g id="Grupo_54080">
												<path id="Trazado_99463" class="st15" d="M92.4,25.2c-0.4,3.3-3.4,5.7-6.7,5.3c-3.3-0.4-5.7-3.4-5.3-6.7
													c0.4-3.3,3.4-5.7,6.7-5.3C90.4,18.8,92.7,21.8,92.4,25.2C92.4,25.2,92.4,25.2,92.4,25.2z"/>
											</g>
										</g>
									</g>
								</g>
							</g>
						</g>
					</g>
				</g>
			</g>
		</g>
		<g id="Grupo_54100" transform="translate(222.45 0)">
			<g id="Grupo_54095">
				<g id="Grupo_54091" transform="translate(0.286 0.209)">
					<g id="Grupo_54090">
						<path id="Trazado_99464" class="st13" d="M104.7,97.2H80.3V18.4h24.4"/>
					</g>
				</g>
				<g id="Grupo_54094">
					<g id="Grupo_54093">
						<g id="Grupo_54092">
							<path id="Trazado_99465" class="st8" d="M105,18.6c-0.1,0-0.3,0-0.4,0c-0.3,0-0.7,0-1.3,0c-1.2,0-2.8,0-4.9,0.1
								c-4.3,0-10.4,0.1-17.8,0.1l0.2-0.2c0,10.7,0,24.5,0.1,39.4c0,14.9,0,28.7-0.1,39.4l-0.2-0.2c7.4,0,13.6,0.1,17.8,0.1
								c2.1,0,3.7,0,4.9,0.1c0.5,0,1,0,1.3,0c0.1,0,0.3,0,0.4,0c-0.1,0-0.3,0-0.4,0c-0.3,0-0.7,0-1.3,0c-1.2,0-2.8,0-4.9,0.1
								c-4.3,0-10.4,0.1-17.8,0.1h-0.2v-0.2c0-10.7,0-24.5-0.1-39.4c0-14.9,0-28.7,0.1-39.4v-0.2h0.2c7.4,0,13.6,0.1,17.8,0.1
								c2.1,0,3.7,0,4.9,0.1c0.5,0,1,0,1.3,0C104.7,18.6,104.8,18.6,105,18.6z"/>
						</g>
					</g>
				</g>
			</g>
			<g id="Grupo_54097" transform="translate(4.334 4.444)">
				<g id="Grupo_54096">
					<path id="Trazado_99466" class="st14" d="M100.7,87.7L80.3,88V18.7l20.4-0.3V87.7z"/>
				</g>
			</g>
			<g id="Grupo_54099" transform="translate(4.488 46.034)">
				<g id="Grupo_54098">
					<path id="Trazado_99467" class="st15" d="M80.3,46.1l20.2,0.2l0.1-28L80.3,46.1z"/>
				</g>
			</g>
		</g>
		<g id="Grupo_54142" transform="translate(0 133.318)">
			<g id="Grupo_54118">
				<g id="Grupo_54117">
					<g id="Grupo_54116">
						<g id="Grupo_54107" transform="translate(0.205 0.02)">
							<g id="Grupo_54106">
								<g id="Grupo_54105">
									<g id="Grupo_54104">
										<g id="Grupo_54103">
											<g id="Grupo_54102">
												<g id="Grupo_54101">
													
														<rect id="Rectngulo_29340" x="82.6" y="21.4" transform="matrix(0.996 -8.900280e-02 8.900280e-02 0.996 -3.9319 10.6714)" class="st13" width="70.2" height="56.1"/>
												</g>
											</g>
										</g>
									</g>
								</g>
							</g>
						</g>
						<g id="Grupo_54115">
							<g id="Grupo_54114">
								<g id="Grupo_54113">
									<g id="Grupo_54112">
										<g id="Grupo_54111">
											<g id="Grupo_54110">
												<g id="Grupo_54109">
													<g id="Grupo_54108">
														<path id="Trazado_99468" class="st8" d="M150.3,18.4c0,0-0.1,0-0.3,0s-0.6,0.1-1,0.1c-0.9,0.1-2.1,0.2-3.8,0.4
															c-3.3,0.3-8.2,0.8-14.3,1.3c-12.3,1.1-29.7,2.7-50.5,4.6l0.2-0.2c1.5,16.6,3.2,35.7,5,55.9v0l-0.2-0.2
															c25.9-2.3,49.9-4.4,69.9-6.2l-0.2,0.2c-1.5-16.8-2.7-30.8-3.5-40.5c-0.4-4.9-0.7-8.7-1-11.3c-0.1-1.3-0.2-2.3-0.2-3
															C150.3,18.7,150.3,18.4,150.3,18.4c0,0,0,0.3,0.1,1s0.2,1.7,0.3,3c0.2,2.6,0.6,6.4,1,11.3c0.9,9.8,2.2,23.8,3.7,40.6
															l0,0.2l-0.2,0c-20,1.8-44,3.9-69.9,6.3l-0.2,0l0-0.2v0c-1.8-20.2-3.5-39.2-5-55.9l0-0.2l0.2,0
															c20.8-1.8,38.3-3.3,50.6-4.4c6.1-0.5,11-0.9,14.3-1.2c1.6-0.1,2.9-0.2,3.8-0.3c0.4,0,0.7-0.1,1-0.1
															C150.2,18.4,150.3,18.4,150.3,18.4z"/>
													</g>
												</g>
											</g>
										</g>
									</g>
								</g>
							</g>
						</g>
					</g>
				</g>
			</g>
			<g id="Grupo_54125" transform="translate(2.928 3.756)">
				<g id="Grupo_54124">
					<g id="Grupo_54123">
						<g id="Grupo_54122">
							<g id="Grupo_54121">
								<g id="Grupo_54120">
									<g id="Grupo_54119">
										
											<rect id="Rectngulo_29341" x="82.3" y="21.2" transform="matrix(0.996 -8.900280e-02 8.900280e-02 0.996 -3.6104 10.4102)" class="st14" width="65.2" height="49"/>
									</g>
								</g>
							</g>
						</g>
					</g>
				</g>
			</g>
			<g id="Grupo_54132" transform="translate(7.271 25.993)">
				<g id="Grupo_54131">
					<g id="Grupo_54130">
						<g id="Grupo_54129">
							<g id="Grupo_54128">
								<g id="Grupo_54127">
									<g id="Grupo_54126">
										<path id="Trazado_99469" class="st15" d="M80.3,50.8l20-32.4L116,36.1l8.6-11L145.2,45L80.3,50.8z"/>
									</g>
								</g>
							</g>
						</g>
					</g>
				</g>
			</g>
			<g id="Grupo_54141" transform="translate(36.686 15.808)">
				<g id="Grupo_54140">
					<g id="Grupo_54139">
						<g id="Grupo_54138">
							<g id="Grupo_54137">
								<g id="Grupo_54136">
									<g id="Grupo_54135">
										<g id="Grupo_54134">
											<g id="Grupo_54133">
												<path id="Trazado_99470" class="st15" d="M90.5,23.1c0.3,2.8-1.8,5.3-4.7,5.6c-2.8,0.3-5.3-1.8-5.6-4.7
													c-0.3-2.8,1.8-5.3,4.7-5.6c0,0,0,0,0,0C87.8,18.2,90.3,20.2,90.5,23.1z"/>
											</g>
										</g>
									</g>
								</g>
							</g>
						</g>
					</g>
				</g>
			</g>
		</g>
	</g>
</g>
</svg>
