<svg xmlns="http://www.w3.org/2000/svg" width="391.737" height="469.815" viewBox="0 0 391.737 469.815">
  <g id="Grupo_55010" data-name="Grupo 55010" transform="translate(12889.28 12253)">
    <g id="Background_Complete" transform="translate(-12861.473 -12108.847)">
      <g id="Grupo_53696" data-name="Grupo 53696" transform="translate(54.278 225.783)">
        <g id="Grupo_53695" data-name="Grupo 53695">
          <g id="Grupo_53688" data-name="Grupo 53688">
            <g id="Grupo_53687" data-name="Grupo 53687">
              <g id="Grupo_53686" data-name="Grupo 53686">
                <g id="Grupo_53685" data-name="Grupo 53685">
                  <g id="Grupo_53684" data-name="Grupo 53684">
                    <g id="Grupo_53683" data-name="Grupo 53683">
                      <path id="Trazado_99361" data-name="Trazado 99361" d="M74.719,350.825l-2.4.671-7.271-5.841-1.331-4.785s-3.773.8-1.584,6.952,1.265,4.686,1.265,4.686-7.865,2.222-8.327,3.091c-.341.627,1.628,8.514,2.728,12.771a4.773,4.773,0,0,0,4.543,3.718,3.95,3.95,0,0,0,.88-.121c1.969-.55,11.55-4.939,11.55-4.939l4.147-1.155Z" transform="translate(-55.034 -340.87)" fill="#cbc5e0"/>
                    </g>
                  </g>
                </g>
              </g>
            </g>
          </g>
          <g id="Grupo_53694" data-name="Grupo 53694" transform="translate(20.697 6.721)">
            <g id="Grupo_53693" data-name="Grupo 53693">
              <g id="Grupo_53692" data-name="Grupo 53692">
                <g id="Grupo_53691" data-name="Grupo 53691">
                  <g id="Grupo_53690" data-name="Grupo 53690">
                    <g id="Grupo_53689" data-name="Grupo 53689">
                      <path id="Trazado_99362" data-name="Trazado 99362" d="M79.339,346.98,82.43,363.8l-4.1,1.144L73.85,348.872Z" transform="translate(-73.85 -346.98)" fill="#cbc5e0"/>
                    </g>
                  </g>
                </g>
              </g>
            </g>
          </g>
        </g>
      </g>
      <g id="XMLID_51_" transform="translate(104.025 19.008)">
        <g id="XMLID_60_">
          <g id="Grupo_53697" data-name="Grupo 53697">
            <path id="Trazado_99363" data-name="Trazado 99363" d="M131.819,216.007h0a31.559,31.559,0,0,1-31.559-31.559h0a31.559,31.559,0,0,1,31.559-31.559h0a31.559,31.559,0,0,1,31.559,31.559h0A31.559,31.559,0,0,1,131.819,216.007Z" transform="translate(-100.26 -152.89)" fill="#8ec8c8"/>
          </g>
        </g>
        <g id="XMLID_52_" transform="translate(11.44 11.44)">
          <g id="Grupo_53698" data-name="Grupo 53698">
            <path id="Trazado_99364" data-name="Trazado 99364" d="M130.779,163.29A20.119,20.119,0,1,0,150.9,183.409,20.121,20.121,0,0,0,130.779,163.29Zm0,3.5a16.521,16.521,0,0,1,10.131,3.476,20.374,20.374,0,0,1-8.36,6.171,77.471,77.471,0,0,0-5.852-9.119A16.664,16.664,0,0,1,130.779,166.788Zm-7.5,1.815a74.4,74.4,0,0,1,5.929,9.02,53.464,53.464,0,0,1-14.564,1.859A16.66,16.66,0,0,1,123.277,168.6Zm-9.119,14.806c0-.143.022-.286.022-.429a56.014,56.014,0,0,0,16.676-2.222c.4.792.77,1.595,1.122,2.4A25.925,25.925,0,0,0,118,194.024,16.57,16.57,0,0,1,114.158,183.409Zm16.621,16.621a16.52,16.52,0,0,1-10.2-3.52c3.3-5.181,7.513-8.547,12.738-10.109a65.8,65.8,0,0,1,3.421,12.507A16.551,16.551,0,0,1,130.779,200.029Zm9.218-2.8a69.058,69.058,0,0,0-3.223-11.561,33.541,33.541,0,0,1,10.395.33A16.584,16.584,0,0,1,140,197.225Zm-4.554-14.872c-.407-.946-.836-1.881-1.287-2.816a23.706,23.706,0,0,0,9.306-6.842,16.5,16.5,0,0,1,3.894,9.779A35.916,35.916,0,0,0,135.443,182.353Z" transform="translate(-110.66 -163.29)" fill="#fff"/>
          </g>
        </g>
      </g>
      <g id="Grupo_53712" data-name="Grupo 53712" transform="translate(0 0)">
        <g id="Grupo_53711" data-name="Grupo 53711">
          <g id="Grupo_53704" data-name="Grupo 53704">
            <g id="Grupo_53703" data-name="Grupo 53703">
              <g id="Grupo_53702" data-name="Grupo 53702">
                <g id="Grupo_53701" data-name="Grupo 53701">
                  <g id="Grupo_53700" data-name="Grupo 53700">
                    <g id="Grupo_53699" data-name="Grupo 53699">
                      <path id="Trazado_99365" data-name="Trazado 99365" d="M36.138,147.732l-3.685,2.013-14.168-6.787-4.026-7.348s-5.885,2.772.055,12.023,3.872,7.2,3.872,7.2S6.13,161.5,5.7,163.1c-.308,1.166,5.929,13.343,9.372,19.921a8.016,8.016,0,0,0,8.877,4.356,5.494,5.494,0,0,0,1.4-.539c3.014-1.65,17.061-12.54,17.061-12.54l6.358-3.487Z" transform="translate(-5.69 -135.61)" fill="#d5f2e8"/>
                    </g>
                  </g>
                </g>
              </g>
            </g>
          </g>
          <g id="Grupo_53710" data-name="Grupo 53710" transform="translate(31.592 4.323)">
            <g id="Grupo_53709" data-name="Grupo 53709">
              <g id="Grupo_53708" data-name="Grupo 53708">
                <g id="Grupo_53707" data-name="Grupo 53707">
                  <g id="Grupo_53706" data-name="Grupo 53706">
                    <g id="Grupo_53705" data-name="Grupo 53705">
                      <path id="Trazado_99366" data-name="Trazado 99366" d="M42.7,139.54l11.528,26.411-6.3,3.454L34.41,144.743Z" transform="translate(-34.41 -139.54)" fill="#d5f2e8"/>
                    </g>
                  </g>
                </g>
              </g>
            </g>
          </g>
        </g>
      </g>
      <g id="Grupo_53726" data-name="Grupo 53726" transform="translate(106.406 115.166)">
        <g id="Grupo_53725" data-name="Grupo 53725">
          <g id="Grupo_53718" data-name="Grupo 53718">
            <g id="Grupo_53717" data-name="Grupo 53717">
              <g id="Grupo_53716" data-name="Grupo 53716">
                <g id="Grupo_53715" data-name="Grupo 53715">
                  <g id="Grupo_53714" data-name="Grupo 53714">
                    <g id="Grupo_53713" data-name="Grupo 53713">
                      <path id="Trazado_99367" data-name="Trazado 99367" d="M110.692,245.567l-2.387-.385-4.026-8.1.781-4.763s-3.652-.825-4.235,5.478-.792,4.642-.792,4.642-7.832-1.243-8.591-.671c-.55.418-2.035,8.162-2.8,12.364a4.632,4.632,0,0,0,2.486,5.126,3.245,3.245,0,0,0,.825.253c1.947.319,12.188.352,12.188.352l4.114.671Z" transform="translate(-88.555 -232.288)" fill="#cbc5e0"/>
                    </g>
                  </g>
                </g>
              </g>
            </g>
          </g>
          <g id="Grupo_53724" data-name="Grupo 53724" transform="translate(20.972 12.509)">
            <g id="Grupo_53723" data-name="Grupo 53723">
              <g id="Grupo_53722" data-name="Grupo 53722">
                <g id="Grupo_53721" data-name="Grupo 53721">
                  <g id="Grupo_53720" data-name="Grupo 53720">
                    <g id="Grupo_53719" data-name="Grupo 53719">
                      <path id="Trazado_99368" data-name="Trazado 99368" d="M115.826,244.232,111.7,260.3l-4.081-.66,2.6-15.983Z" transform="translate(-107.62 -243.66)" fill="#cbc5e0"/>
                    </g>
                  </g>
                </g>
              </g>
            </g>
          </g>
        </g>
      </g>
    </g>
    <g id="Social_Media_Icons" transform="translate(-12889.28 -12129.482)">
      <g id="XMLID_37_" transform="translate(140.578 235.903)">
        <g id="XMLID_43_" transform="translate(0)">
          <g id="Grupo_53731" data-name="Grupo 53731">
            <path id="Trazado_99370" data-name="Trazado 99370" d="M135.127,385.143h0a26.916,26.916,0,0,1-26.917-26.917h0a26.916,26.916,0,0,1,26.917-26.917h0a26.916,26.916,0,0,1,26.917,26.917h0A26.909,26.909,0,0,1,135.127,385.143Z" transform="translate(-108.21 -331.31)" fill="#8ec8c8"/>
          </g>
        </g>
        <g id="XMLID_38_" transform="translate(12.155 12.144)">
          <g id="XMLID_40_">
            <g id="Grupo_53732" data-name="Grupo 53732">
              <path id="Trazado_99371" data-name="Trazado 99371" d="M148.784,356.375a14.5,14.5,0,0,0-28.974-.264c-.011.209-.011.418-.011.627a14.292,14.292,0,0,0,2.079,7.436L119.26,371.9l8.03-2.552a14.517,14.517,0,0,0,21.5-12.595C148.784,356.617,148.784,356.5,148.784,356.375Zm-14.5,12.463a12.215,12.215,0,0,1-6.71-2l-4.686,1.5,1.518-4.488a11.937,11.937,0,0,1-2.321-7.095,10.408,10.408,0,0,1,.066-1.177,12.194,12.194,0,0,1,24.277.231c.022.308.044.627.044.946A12.152,12.152,0,0,1,134.286,368.838Z" transform="translate(-119.26 -342.35)" fill="#fff" fill-rule="evenodd"/>
            </g>
          </g>
          <g id="XMLID_39_" transform="translate(7.953 7.854)">
            <g id="Grupo_53733" data-name="Grupo 53733">
              <path id="Trazado_99372" data-name="Trazado 99372" d="M140.207,358.939c-.363-.176-2.1-1.034-2.431-1.144s-.561-.176-.8.176-.924,1.144-1.122,1.375-.418.264-.77.088a9.617,9.617,0,0,1-2.86-1.749,10.784,10.784,0,0,1-1.98-2.431c-.2-.352-.022-.539.154-.715s.352-.418.539-.616a1.081,1.081,0,0,1,.132-.165c.077-.132.143-.253.22-.418a.637.637,0,0,0-.022-.616c-.088-.176-.8-1.914-1.1-2.618s-.594-.583-.8-.583-.44-.033-.682-.033a1.291,1.291,0,0,0-.946.44,3.937,3.937,0,0,0-1.243,2.948,4.4,4.4,0,0,0,.187,1.2,8.159,8.159,0,0,0,1.265,2.442c.176.231,2.453,3.9,6.072,5.324s3.619.935,4.268.88a3.571,3.571,0,0,0,2.4-1.672,2.919,2.919,0,0,0,.209-1.672C140.8,359.2,140.559,359.115,140.207,358.939Z" transform="translate(-126.49 -349.49)" fill="#fff" fill-rule="evenodd"/>
            </g>
          </g>
        </g>
      </g>
      <g id="XMLID_11_" transform="translate(73.27 75.657)">
        <g id="XMLID_13_">
          <g id="Grupo_53734" data-name="Grupo 53734">
            <path id="Trazado_99373" data-name="Trazado 99373" d="M67.766,227.121h0A20.74,20.74,0,0,1,47.02,206.376h0A20.74,20.74,0,0,1,67.766,185.63h0a20.74,20.74,0,0,1,20.746,20.746h0A20.74,20.74,0,0,1,67.766,227.121Z" transform="translate(-47.02 -185.63)" fill="#b1a8d1"/>
          </g>
        </g>
        <g id="XMLID_12_" transform="translate(11.176 8.415)">
          <g id="Grupo_53735" data-name="Grupo 53735">
            <path id="Trazado_99374" data-name="Trazado 99374" d="M60.117,207.536a.481.481,0,0,0,.7-.352c.066-.253.22-.88.286-1.133a.684.684,0,0,0-.209-.792,4.061,4.061,0,0,1-.935-2.772,6.7,6.7,0,0,1,6.963-6.776c3.806,0,5.885,2.321,5.885,5.423,0,4.081-1.8,7.524-4.488,7.524a2.189,2.189,0,0,1-2.233-2.728c.429-1.793,1.254-3.729,1.254-5.027a1.9,1.9,0,0,0-1.914-2.123c-1.518,0-2.728,1.562-2.728,3.663a5.512,5.512,0,0,0,.451,2.244s-1.551,6.567-1.826,7.711a16.123,16.123,0,0,0-.044,5.379.19.19,0,0,0,.341.077,14.958,14.958,0,0,0,2.552-4.631c.176-.627,1-3.894,1-3.894a4.059,4.059,0,0,0,3.454,1.76c4.554,0,7.634-4.147,7.634-9.7,0-4.2-3.553-8.107-8.965-8.107-6.721,0-10.12,4.818-10.12,8.844C57.213,204.566,58.137,206.733,60.117,207.536Z" transform="translate(-57.18 -193.28)" fill="#fff"/>
          </g>
        </g>
      </g>
      <g id="XMLID_14_" transform="translate(0 138.543)">
        <g id="XMLID_36_">
          <g id="Grupo_53736" data-name="Grupo 53736">
            <path id="Trazado_99375" data-name="Trazado 99375" d="M48.8,324.587h0A31.394,31.394,0,0,1,17.41,293.194h0A31.394,31.394,0,0,1,48.8,261.8h0A31.394,31.394,0,0,1,80.2,293.194h0A31.394,31.394,0,0,1,48.8,324.587Z" transform="translate(-17.41 -261.8)" fill="#26aab7"/>
          </g>
        </g>
        <g id="XMLID_16_" transform="translate(14.165 14.177)">
          <g id="XMLID_1_">
            <g id="Grupo_53737" data-name="Grupo 53737">
              <path id="Trazado_99376" data-name="Trazado 99376" d="M46.289,276.56c4.6,0,5.143.012,6.955.1a9.245,9.245,0,0,1,3.2.6,5.7,5.7,0,0,1,3.271,3.271,9.882,9.882,0,0,1,.6,3.2c.085,1.812.1,2.359.1,6.955s-.012,5.143-.1,6.955a9.246,9.246,0,0,1-.6,3.2,5.7,5.7,0,0,1-3.271,3.271,9.88,9.88,0,0,1-3.2.6c-1.812.085-2.359.1-6.955.1s-5.143-.012-6.955-.1a9.247,9.247,0,0,1-3.2-.6,5.7,5.7,0,0,1-3.271-3.271,9.882,9.882,0,0,1-.6-3.2c-.085-1.812-.1-2.359-.1-6.955s.012-5.143.1-6.955a9.246,9.246,0,0,1,.6-3.2,5.7,5.7,0,0,1,3.271-3.271,9.88,9.88,0,0,1,3.2-.6c1.812-.085,2.359-.1,6.955-.1m0-3.1c-4.681,0-5.265.024-7.1.109a12.669,12.669,0,0,0-4.183.8,8.563,8.563,0,0,0-3.052,1.982,8.4,8.4,0,0,0-1.982,3.052,12.67,12.67,0,0,0-.8,4.183c-.085,1.836-.109,2.42-.109,7.1s.024,5.265.109,7.1a12.669,12.669,0,0,0,.8,4.183,8.563,8.563,0,0,0,1.982,3.052,8.4,8.4,0,0,0,3.052,1.982,12.67,12.67,0,0,0,4.183.8c1.836.085,2.42.109,7.1.109s5.265-.024,7.1-.109a12.67,12.67,0,0,0,4.183-.8,8.563,8.563,0,0,0,3.052-1.982,8.4,8.4,0,0,0,1.982-3.052,12.67,12.67,0,0,0,.8-4.183c.085-1.836.1-2.42.1-7.1s-.024-5.265-.1-7.1a12.67,12.67,0,0,0-.8-4.183,8.564,8.564,0,0,0-1.982-3.052,8.4,8.4,0,0,0-3.052-1.982,12.669,12.669,0,0,0-4.183-.8c-1.848-.1-2.432-.109-7.1-.109" transform="translate(-29.06 -273.46)" fill="#fff"/>
            </g>
          </g>
          <g id="XMLID_18_" transform="translate(8.389 8.365)">
            <g id="Grupo_53738" data-name="Grupo 53738">
              <path id="Trazado_99377" data-name="Trazado 99377" d="M44.8,280.34a8.839,8.839,0,1,0,8.839,8.839A8.839,8.839,0,0,0,44.8,280.34m0,14.578a5.739,5.739,0,1,1,5.739-5.739,5.734,5.734,0,0,1-5.739,5.739" transform="translate(-35.96 -280.34)" fill="#fff"/>
            </g>
          </g>
          <g id="XMLID_17_" transform="translate(24.342 5.958)">
            <g id="Grupo_53739" data-name="Grupo 53739">
              <path id="Trazado_99378" data-name="Trazado 99378" d="M53.214,280.427a2.067,2.067,0,1,1-2.067-2.067,2.065,2.065,0,0,1,2.067,2.067" transform="translate(-49.08 -278.36)" fill="#fff"/>
            </g>
          </g>
        </g>
      </g>
      <g id="XMLID_1419_" transform="translate(121.218 0)">
        <g id="XMLID_1421_">
          <g id="Grupo_53740" data-name="Grupo 53740">
            <path id="Trazado_99379" data-name="Trazado 99379" d="M107.715,151.059h0a17.1,17.1,0,0,1-17.1-17.1h0a17.1,17.1,0,0,1,17.1-17.1h0a17.1,17.1,0,0,1,17.1,17.1h0A17.109,17.109,0,0,1,107.715,151.059Z" transform="translate(-90.61 -116.85)" fill="#7d6eb2"/>
          </g>
        </g>
        <g id="XMLID_1420_" transform="translate(12.331 6.765)">
          <g id="Grupo_53741" data-name="Grupo 53741">
            <path id="Trazado_99380" data-name="Trazado 99380" d="M103.987,143.669h4.169V133.241h2.9l.308-3.487h-3.212v-1.991c0-.825.165-1.144.957-1.144h2.255V123h-2.882c-3.1,0-4.5,1.364-4.5,3.982v2.783H101.82V133.3h2.167v10.373Z" transform="translate(-101.82 -123)" fill="#fff"/>
          </g>
        </g>
      </g>
    </g>
    <g id="Speech_Bubble" transform="translate(-12841.123 -12253)">
      <g id="Grupo_53754" data-name="Grupo 53754" transform="translate(0 0)">
        <g id="Grupo_53743" data-name="Grupo 53743" transform="translate(0.495 0.385)">
          <g id="Grupo_53742" data-name="Grupo 53742">
            <path id="Trazado_99381" data-name="Trazado 99381" d="M80.772,30.584,100.792,4.91l4.895,32.3,26.411-.9-19.58,25.718,26,20.086-33.2-12.32-4.642,32.329L78.407,80.435,50.347,99.949,56.5,71.58,24.64,66.564,49.412,51.945l-14.443-24.9L60.114,41.286,62.732,6Z" transform="translate(-24.64 -4.91)" fill="#26aab7"/>
          </g>
        </g>
        <g id="Grupo_53746" data-name="Grupo 53746">
          <g id="Grupo_53745" data-name="Grupo 53745">
            <g id="Grupo_53744" data-name="Grupo 53744">
              <path id="Trazado_99382" data-name="Trazado 99382" d="M112.563,62.056s.616.451,1.782,1.342,2.893,2.211,5.159,3.938c4.51,3.465,11.132,8.547,19.624,15.059l.671.517-.781-.319c-4.532-1.87-9.691-3.729-15.345-5.7s-11.8-4.07-18.227-6.71l.209-.121c-1.474,9.625-3.135,20.46-4.917,32.076l-.055.352-.253-.253C93.467,95.408,86.02,88.1,78.21,80.448l.253.022c-8.8,6.116-18.051,12.54-27.632,19.206l-.44.308.11-.528c1.826-8.855,3.784-18.271,5.775-27.907l.187.242C46.377,70.207,35.7,68.535,24.817,66.819l-.627-.1.55-.319c6.853-3.982,14.135-8.217,21.5-12.5,1.111-.649,2.233-1.3,3.344-1.947l-.077.33c-2.75-4-5.17-8.162-7.524-12.309s-4.609-8.3-6.8-12.452l-.352-.671.66.374q12.82,7.21,25.124,14.135l-.341.176q.627-9.223,1.243-18.139.281-4.455.539-8.833c.077-1.463.154-2.915.22-4.356.022-.726.055-1.441.077-2.167l.022-1.078V6.441c0-.154-.033-.4-.022-.418l.264-.352.077.11q9.537,13.051,18.293,25.047h-.308q10.56-13.81,19.833-25.949l.242-.319.066.4q2.854,17.77,5.159,32.12l-.143-.132c10.2-.319,18.876-.594,26.29-.825l.231-.011-.143.187c-6.358,8.338-11.264,14.773-14.575,19.129q-2.491,3.267-3.784,4.95c-.847,1.111-1.3,1.683-1.3,1.683s.407-.561,1.243-1.683,2.09-2.783,3.729-4.961c3.3-4.378,8.184-10.857,14.52-19.25l.088.176c-7.414.253-16.082.55-26.279.891h-.132l-.022-.121Q103.367,22.754,100.485,5l.308.077q-9.24,12.127-19.8,25.982l-.154.209-.154-.209Q71.94,19.1,62.37,6.034l.341-.242a1.777,1.777,0,0,1,.1.649v.55L62.788,8.08c-.022.726-.055,1.441-.077,2.167-.077,1.452-.143,2.9-.22,4.367q-.264,4.372-.539,8.844-.61,8.91-1.243,18.139l-.022.341-.308-.165Q48.087,34.859,35.245,27.649l.308-.3c2.189,4.136,4.444,8.294,6.8,12.441s4.774,8.294,7.5,12.265l.143.2-.209.121c-1.111.649-2.222,1.3-3.344,1.947-7.37,4.279-14.641,8.514-21.5,12.5l-.077-.418C35.74,68.117,46.41,69.789,56.5,71.384l.231.033-.044.209c-2,9.647-3.96,19.085-5.8,27.94l-.33-.22C60.137,92.691,69.388,86.278,78.2,80.162l.132-.1.121.121c7.8,7.667,15.246,14.982,22.2,21.824l-.308.1c1.8-11.616,3.476-22.44,4.972-32.065l.033-.2.187.077c6.4,2.651,12.551,4.741,18.194,6.743,5.654,1.98,10.813,3.85,15.345,5.742l-.11.187-19.6-15.2c-2.233-1.738-3.949-3.069-5.1-3.971C113.135,62.518,112.563,62.056,112.563,62.056Z" transform="translate(-24.19 -4.56)" fill="#263238"/>
            </g>
          </g>
        </g>
        <g id="Grupo_53753" data-name="Grupo 53753" transform="translate(48.861 49.4)">
          <g id="Grupo_53748" data-name="Grupo 53748">
            <g id="Grupo_53747" data-name="Grupo 53747">
              <path id="Trazado_99383" data-name="Trazado 99383" d="M73.89,52.11a2.64,2.64,0,1,1-2.64-2.64A2.634,2.634,0,0,1,73.89,52.11Z" transform="translate(-68.61 -49.47)" fill="#263238"/>
            </g>
          </g>
          <g id="Grupo_53750" data-name="Grupo 53750" transform="translate(8.063)">
            <g id="Grupo_53749" data-name="Grupo 53749">
              <path id="Trazado_99384" data-name="Trazado 99384" d="M81.22,52.11a2.64,2.64,0,1,1-2.64-2.64A2.634,2.634,0,0,1,81.22,52.11Z" transform="translate(-75.94 -49.47)" fill="#263238"/>
            </g>
          </g>
          <g id="Grupo_53752" data-name="Grupo 53752" transform="translate(16.126)">
            <g id="Grupo_53751" data-name="Grupo 53751">
              <path id="Trazado_99385" data-name="Trazado 99385" d="M88.55,52.11a2.64,2.64,0,1,1-2.64-2.64A2.634,2.634,0,0,1,88.55,52.11Z" transform="translate(-83.27 -49.47)" fill="#263238"/>
            </g>
          </g>
        </g>
      </g>
    </g>
    <g id="Character_1" transform="translate(-12707.524 -12245.277)">
      <g id="Grupo_53770" data-name="Grupo 53770" transform="translate(0.633 0)">
        <g id="Grupo_53769" data-name="Grupo 53769">
          <g id="Grupo_53756" data-name="Grupo 53756" transform="translate(15.664)">
            <g id="Grupo_53755" data-name="Grupo 53755">
              <path id="Trazado_99386" data-name="Trazado 99386" d="M331.145,470.867H183.461a23,23,0,0,1-23-23V34.581a23,23,0,0,1,23-23H331.145a23,23,0,0,1,23,23V447.856A23,23,0,0,1,331.145,470.867Z" transform="translate(-160.46 -11.58)" fill="#263238"/>
            </g>
          </g>
          <g id="Grupo_53758" data-name="Grupo 53758" transform="translate(0 0.187)">
            <g id="Grupo_53757" data-name="Grupo 53757">
              <path id="Trazado_99387" data-name="Trazado 99387" d="M315.1,471.037H171.025a24.8,24.8,0,0,1-24.8-24.8V36.555a24.8,24.8,0,0,1,24.8-24.8H315.1a24.8,24.8,0,0,1,24.8,24.8V446.222A24.813,24.813,0,0,1,315.1,471.037Z" transform="translate(-146.22 -11.75)" fill="#455a64"/>
            </g>
          </g>
          <g id="Grupo_53768" data-name="Grupo 53768" transform="translate(8.151 7.102)">
            <g id="Grupo_53767" data-name="Grupo 53767">
              <g id="Grupo_53766" data-name="Grupo 53766">
                <g id="Grupo_53765" data-name="Grupo 53765">
                  <g id="Grupo_53764" data-name="Grupo 53764">
                    <g id="Grupo_53760" data-name="Grupo 53760" transform="translate(0.187 0.235)">
                      <g id="Grupo_53759" data-name="Grupo 53759">
                        <path id="Trazado_99388" data-name="Trazado 99388" d="M309.943,18.426l-26.312-.033c-3.531,0-6.391,3.531-6.391,7.909v5.654c0,4.367-2.86,7.909-6.38,7.909l-51.292-.077c-3.531,0-6.391-3.553-6.391-7.92V26.214c0-4.367-2.86-7.92-6.391-7.92l-9.251-.011L174.5,18.25c-11.44-.011-20.713,10.956-20.7,24.508l.187,393.464c.011,13.541,9.273,24.53,20.713,24.552l135.452.2c11.44.022,20.7-10.956,20.7-24.508L330.666,43C330.644,29.437,321.372,18.448,309.943,18.426Z" transform="translate(-153.8 -18.25)" fill="#fff"/>
                      </g>
                    </g>
                    <g id="Grupo_53763" data-name="Grupo 53763">
                      <g id="Grupo_53762" data-name="Grupo 53762">
                        <g id="Grupo_53761" data-name="Grupo 53761">
                          <path id="Trazado_99389" data-name="Trazado 99389" d="M309.96,18.447l.8.033a13.911,13.911,0,0,1,2.365.253,19.188,19.188,0,0,1,8.415,3.839,24.867,24.867,0,0,1,4.642,5.06,25.462,25.462,0,0,1,3.476,7.513,28.22,28.22,0,0,1,.9,4.587,43.8,43.8,0,0,1,.209,5.016c.011,3.454.011,7.128.022,11.022.033,31.152.088,76.218.154,131.9.044,55.692.1,122,.154,195.632q.017,13.81.022,27.951,0,7.062.011,14.223v7.172a61.228,61.228,0,0,1-.22,7.227,27.213,27.213,0,0,1-1.76,7.073,24.231,24.231,0,0,1-3.63,6.369,22.351,22.351,0,0,1-5.434,4.983,18.831,18.831,0,0,1-6.919,2.662,49.417,49.417,0,0,1-7.425.275c-2.475,0-4.95-.011-7.425-.011q-7.441-.017-14.96-.022-30.046-.033-61.1-.088-15.51-.016-31.251-.044-7.87-.017-15.785-.022a18.989,18.989,0,0,1-7.821-1.584,20.562,20.562,0,0,1-6.534-4.631,26.016,26.016,0,0,1-6.8-14.267,49.2,49.2,0,0,1-.341-7.931v-7.887q0-15.741-.011-31.262-.017-31.036-.022-61.115c-.011-40.072-.022-78.726-.033-115.542s-.011-71.807-.022-104.553q0-24.552-.011-47.387,0-11.4.011-22.33c.066-7.3,2.871-14.564,8.1-19.327a19.238,19.238,0,0,1,9.108-4.785,15.327,15.327,0,0,1,2.541-.341c.858-.066,1.694-.077,2.53-.066,1.672,0,3.344.011,4.994.011l19.349.033c1.573,0,3.124.011,4.675.011.781.011,1.529-.022,2.321.033a5.674,5.674,0,0,1,2.244.682,7.305,7.305,0,0,1,3.036,3.41,10.109,10.109,0,0,1,.858,4.422v4.4a10.523,10.523,0,0,0,.616,4.191,7.271,7.271,0,0,0,2.431,3.311,5.4,5.4,0,0,0,1.815.9,6.884,6.884,0,0,0,2.024.2c11.055.022,21.351.044,30.833.066l13.6.033c2.156,0,4.268.011,6.325.011a5.929,5.929,0,0,0,4.807-2.959,9.356,9.356,0,0,0,1.353-5.357c0-1.837.011-3.619.011-5.346a9.119,9.119,0,0,1,1.43-4.785,6.517,6.517,0,0,1,3.685-2.794,8.418,8.418,0,0,1,2.211-.176c.715,0,1.43,0,2.112.011,1.386,0,2.706.011,3.971.011q3.795.016,6.875.022c4.092.022,7.216.033,9.328.044,2.068,0,3.146.022,3.146.022s-1.078.022-3.179.022-5.225.011-9.328.011H284.5a7.985,7.985,0,0,0-2.167.176,6.337,6.337,0,0,0-3.575,2.728,9.068,9.068,0,0,0-1.386,4.686v5.346a9.546,9.546,0,0,1-1.375,5.478A6.16,6.16,0,0,1,271,39.963h-6.325q-6.484,0-13.6-.011c-9.471-.011-19.767-.011-30.833-.022a7.3,7.3,0,0,1-2.112-.209,5.546,5.546,0,0,1-1.925-.957,7.707,7.707,0,0,1-2.552-3.454A10.64,10.64,0,0,1,213.007,31V26.6a9.635,9.635,0,0,0-.825-4.268,7.027,7.027,0,0,0-2.893-3.245,5.427,5.427,0,0,0-2.1-.638c-.737-.055-1.529-.011-2.3-.022h-4.675q-9.4-.016-19.349-.022h-4.994c-.836-.011-1.683,0-2.508.066a14.666,14.666,0,0,0-2.486.33,18.923,18.923,0,0,0-8.921,4.7c-5.126,4.675-7.887,11.825-7.942,19.03q0,10.923.011,22.33.017,22.8.044,47.387c.022,32.747.044,67.737.077,104.553s.044,75.47.066,115.542q.017,30.046.033,61.115,0,15.526.011,31.262V432.6a50.244,50.244,0,0,0,.341,7.843,25.487,25.487,0,0,0,6.655,13.959,20.154,20.154,0,0,0,6.358,4.5,18.378,18.378,0,0,0,7.59,1.54q7.92.017,15.785.022,15.741.017,31.251.044,31.036.05,61.1.088,7.507.016,14.96.022c2.486,0,4.961.011,7.425.011a49.02,49.02,0,0,0,7.326-.264,18.033,18.033,0,0,0,6.721-2.585,21.843,21.843,0,0,0,5.291-4.862,23.535,23.535,0,0,0,3.553-6.237,26.212,26.212,0,0,0,1.727-6.941,62.067,62.067,0,0,0,.22-7.161V411.186q0-14.14-.011-27.951c-.011-73.633-.022-139.94-.033-195.632.011-55.681.022-100.748.033-131.9q0-5.841.011-11.022a43.372,43.372,0,0,0-.2-4.994,28.182,28.182,0,0,0-.88-4.565,25.484,25.484,0,0,0-3.432-7.48,24.355,24.355,0,0,0-4.6-5.049,19.041,19.041,0,0,0-8.349-3.872,14.515,14.515,0,0,0-2.354-.286A4.327,4.327,0,0,1,309.96,18.447Z" transform="translate(-153.63 -18.037)" fill="#263238"/>
                        </g>
                      </g>
                    </g>
                  </g>
                </g>
              </g>
            </g>
          </g>
        </g>
      </g>
      <g id="Grupo_54047" data-name="Grupo 54047" transform="translate(0 41.886)">
        <g id="Grupo_53772" data-name="Grupo 53772" transform="translate(52.123 367.033)">
          <g id="Grupo_53771" data-name="Grupo 53771">
            <path id="Trazado_99390" data-name="Trazado 99390" d="M195.912,383.33l-2.882,42.8L211.5,428.4l8.844-43.713Z" transform="translate(-193.03 -383.33)" fill="#aa6550"/>
          </g>
        </g>
        <g id="Grupo_53777" data-name="Grupo 53777" transform="translate(29.507 404.179)">
          <g id="Grupo_53776" data-name="Grupo 53776">
            <g id="Grupo_53775" data-name="Grupo 53775">
              <g id="Grupo_53774" data-name="Grupo 53774">
                <g id="Grupo_53773" data-name="Grupo 53773">
                  <path id="Trazado_99391" data-name="Trazado 99391" d="M195.306,417.1l-.165,1.221s-21.912,5.566-22.671,9.482l41.326,5.324,1.21-13.827A23.841,23.841,0,0,1,195.306,417.1Z" transform="translate(-172.47 -417.1)" fill="#8ec8c8"/>
                </g>
              </g>
            </g>
          </g>
        </g>
        <g id="Grupo_53783" data-name="Grupo 53783" transform="translate(65.088 410.118)">
          <g id="Grupo_53782" data-name="Grupo 53782">
            <g id="Grupo_53781" data-name="Grupo 53781">
              <g id="Grupo_53780" data-name="Grupo 53780">
                <g id="Grupo_53779" data-name="Grupo 53779">
                  <g id="Grupo_53778" data-name="Grupo 53778">
                    <path id="Trazado_99392" data-name="Trazado 99392" d="M207.02,422.621a1.708,1.708,0,0,1,.924,2.079,1.633,1.633,0,0,1-2.046.924,1.774,1.774,0,0,1-.957-2.2,1.7,1.7,0,0,1,2.244-.726" transform="translate(-204.817 -422.499)" fill="#fff"/>
                  </g>
                </g>
              </g>
            </g>
          </g>
        </g>
        <g id="Grupo_53788" data-name="Grupo 53788" transform="translate(29.506 413.001)">
          <g id="Grupo_53787" data-name="Grupo 53787">
            <g id="Grupo_53786" data-name="Grupo 53786">
              <g id="Grupo_53785" data-name="Grupo 53785">
                <g id="Grupo_53784" data-name="Grupo 53784">
                  <path id="Trazado_99393" data-name="Trazado 99393" d="M213.8,432.325l.286-3.322-39.709-3.883s-1.947.561-1.9,1.881Z" transform="translate(-172.469 -425.12)" fill="#fff"/>
                </g>
              </g>
            </g>
          </g>
        </g>
        <g id="Grupo_53794" data-name="Grupo 53794" transform="translate(52.023 405.379)">
          <g id="Grupo_53793" data-name="Grupo 53793" transform="translate(0 0)">
            <g id="Grupo_53792" data-name="Grupo 53792">
              <g id="Grupo_53791" data-name="Grupo 53791">
                <g id="Grupo_53790" data-name="Grupo 53790">
                  <g id="Grupo_53789" data-name="Grupo 53789">
                    <path id="Trazado_99394" data-name="Trazado 99394" d="M192.94,418.311c-.022.2.979.429,1.892,1.2.935.748,1.331,1.694,1.529,1.639.187-.011.044-1.265-1.067-2.178C194.161,418.036,192.918,418.124,192.94,418.311Z" transform="translate(-192.94 -418.191)" fill="#263238"/>
                  </g>
                </g>
              </g>
            </g>
          </g>
        </g>
        <g id="Grupo_53800" data-name="Grupo 53800" transform="translate(47.455 406.673)">
          <g id="Grupo_53799" data-name="Grupo 53799" transform="translate(0 0)">
            <g id="Grupo_53798" data-name="Grupo 53798">
              <g id="Grupo_53797" data-name="Grupo 53797">
                <g id="Grupo_53796" data-name="Grupo 53796">
                  <g id="Grupo_53795" data-name="Grupo 53795">
                    <path id="Trazado_99395" data-name="Trazado 99395" d="M188.79,419.425c-.066.187.759.649,1.331,1.584.6.924.66,1.87.858,1.892.187.055.473-1.111-.264-2.266S188.812,419.238,188.79,419.425Z" transform="translate(-188.787 -419.367)" fill="#263238"/>
                  </g>
                </g>
              </g>
            </g>
          </g>
        </g>
        <g id="Grupo_53806" data-name="Grupo 53806" transform="translate(43.137 407.924)">
          <g id="Grupo_53805" data-name="Grupo 53805">
            <g id="Grupo_53804" data-name="Grupo 53804">
              <g id="Grupo_53803" data-name="Grupo 53803">
                <g id="Grupo_53802" data-name="Grupo 53802">
                  <g id="Grupo_53801" data-name="Grupo 53801">
                    <path id="Trazado_99396" data-name="Trazado 99396" d="M186.048,424.185c.176.066.583-.9.209-2.079s-1.265-1.738-1.375-1.573c-.132.154.4.825.693,1.793C185.9,423.283,185.85,424.141,186.048,424.185Z" transform="translate(-184.861 -420.504)" fill="#263238"/>
                  </g>
                </g>
              </g>
            </g>
          </g>
        </g>
        <g id="Grupo_53950" data-name="Grupo 53950" transform="translate(87.307 10.801)">
          <g id="Grupo_53808" data-name="Grupo 53808" transform="translate(42.31 5.462)">
            <g id="Grupo_53807" data-name="Grupo 53807">
              <path id="Trazado_99397" data-name="Trazado 99397" d="M263.48,70.7c.462-2.959,3.124-5.225,6.028-5.94a15.422,15.422,0,0,1,8.8.891,20.935,20.935,0,0,1,8.459,5.269,12.764,12.764,0,0,1,3.575,9.119c-.165,3.146-1.738,6.292-.858,9.317.66,2.3,2.607,3.971,4.554,5.357s4.059,2.684,5.368,4.675,1.529,4.972-.242,6.578c-1.573,1.43-4.4,1.595-5.06,3.608-.407,1.254.286,2.563.671,3.817a9.94,9.94,0,0,1-1.287,8.008,16.857,16.857,0,0,1-6.138,5.555c-4.257,2.409-9.57,3.531-14.058,1.606A13.526,13.526,0,0,1,267.748,124a21.539,21.539,0,0,1-3.674-11.341,64.022,64.022,0,0,1,.781-12.034" transform="translate(-263.48 -64.444)" fill="#263238"/>
            </g>
          </g>
          <g id="Grupo_53811" data-name="Grupo 53811" transform="translate(40.759 12.431)">
            <g id="Grupo_53810" data-name="Grupo 53810">
              <g id="Grupo_53809" data-name="Grupo 53809">
                <path id="Trazado_99398" data-name="Trazado 99398" d="M262.07,117.892a12.372,12.372,0,0,0,15.664-12.21c-.077-3.586-1.7-7.249-.594-10.659.77-2.343,2.728-4.169,3.388-6.545.979-3.542-1.155-7.128-3.212-10.186a23.8,23.8,0,0,0-4.488-5.445,8.055,8.055,0,0,0-6.567-1.936" transform="translate(-262.07 -70.78)" fill="#263238"/>
              </g>
            </g>
          </g>
          <g id="Grupo_53815" data-name="Grupo 53815" transform="translate(0 12.871)">
            <g id="Grupo_53814" data-name="Grupo 53814">
              <g id="Grupo_53813" data-name="Grupo 53813">
                <g id="Grupo_53812" data-name="Grupo 53812">
                  <path id="Trazado_99399" data-name="Trazado 99399" d="M232.676,71.18c.2,2.706-1.584,5.126-3.388,7.161s-3.806,4.147-4.2,6.842c-.693,4.763,3.971,9.185,3.014,13.9-.517,2.53-2.585,4.554-2.959,7.117-.352,2.464.968,4.884,2.607,6.765s3.641,3.443,5.093,5.478c0,0,3.025,4.961,12.32,1.782" transform="translate(-225.016 -71.18)" fill="#263238"/>
                </g>
              </g>
            </g>
          </g>
          <g id="Grupo_53819" data-name="Grupo 53819" transform="translate(7.582)">
            <g id="Grupo_53818" data-name="Grupo 53818">
              <g id="Grupo_53817" data-name="Grupo 53817">
                <g id="Grupo_53816" data-name="Grupo 53816">
                  <path id="Trazado_99400" data-name="Trazado 99400" d="M273.622,76.486c.066-2.453-2.2-4.356-4.488-5.258s-4.829-1.243-6.864-2.607c-1.8-1.21-3.014-3.113-4.543-4.664A15.128,15.128,0,0,0,232.284,70.9c-.88,3.5-.275,7.634,2.475,9.955,3.2,2.695,7.942,2.1,12.045,1.265s8.745-1.672,12.166.737c2.068,1.452,3.245,3.817,4.51,6.006s2.849,4.422,5.236,5.236,5.632-.594,5.72-3.124" transform="translate(-231.909 -59.479)" fill="#263238"/>
                </g>
              </g>
            </g>
          </g>
          <g id="Grupo_53921" data-name="Grupo 53921" transform="translate(5.211 11.902)">
            <g id="Grupo_53920" data-name="Grupo 53920">
              <g id="Grupo_53919" data-name="Grupo 53919">
                <g id="Grupo_53918" data-name="Grupo 53918">
                  <g id="Grupo_53897" data-name="Grupo 53897">
                    <g id="Grupo_53896" data-name="Grupo 53896">
                      <g id="Grupo_53895" data-name="Grupo 53895">
                        <g id="Grupo_53829" data-name="Grupo 53829">
                          <g id="Grupo_53828" data-name="Grupo 53828">
                            <g id="Grupo_53827" data-name="Grupo 53827">
                              <g id="Grupo_53826" data-name="Grupo 53826">
                                <g id="Grupo_53825" data-name="Grupo 53825">
                                  <g id="Grupo_53824" data-name="Grupo 53824">
                                    <g id="Grupo_53823" data-name="Grupo 53823">
                                      <g id="Grupo_53822" data-name="Grupo 53822">
                                        <g id="Grupo_53821" data-name="Grupo 53821">
                                          <g id="Grupo_53820" data-name="Grupo 53820">
                                            <path id="Trazado_99401" data-name="Trazado 99401" d="M264.146,75.91a4.12,4.12,0,0,1,3.674,4.18h0l-2.453,55.516c-.1,6.556-9.691,10.241-16.709,10.076h0c-7.084-.165-7.315-3.641-7.4-9.878-.143-10.417-.132-14.333-.143-14.278,0,0-8.954-1.507-10.78-13.2-.913-5.819-.594-15.345-.088-23.133.462-7.007,5.126-15.6,12.111-14.85Z" transform="translate(-229.753 -70.299)" fill="#aa6550"/>
                                          </g>
                                        </g>
                                      </g>
                                    </g>
                                  </g>
                                </g>
                              </g>
                            </g>
                          </g>
                        </g>
                        <g id="Grupo_53851" data-name="Grupo 53851" transform="translate(2.152 17.029)">
                          <g id="Grupo_53839" data-name="Grupo 53839" transform="translate(0.406 4.211)">
                            <g id="Grupo_53838" data-name="Grupo 53838">
                              <g id="Grupo_53837" data-name="Grupo 53837">
                                <g id="Grupo_53836" data-name="Grupo 53836">
                                  <g id="Grupo_53835" data-name="Grupo 53835">
                                    <g id="Grupo_53834" data-name="Grupo 53834">
                                      <g id="Grupo_53833" data-name="Grupo 53833">
                                        <g id="Grupo_53832" data-name="Grupo 53832">
                                          <g id="Grupo_53831" data-name="Grupo 53831">
                                            <g id="Grupo_53830" data-name="Grupo 53830">
                                              <path id="Trazado_99402" data-name="Trazado 99402" d="M232.08,90.963a1.5,1.5,0,0,0,1.441,1.518,1.443,1.443,0,0,0,1.551-1.353,1.5,1.5,0,0,0-1.441-1.518A1.443,1.443,0,0,0,232.08,90.963Z" transform="translate(-232.079 -89.608)" fill="#263238"/>
                                            </g>
                                          </g>
                                        </g>
                                      </g>
                                    </g>
                                  </g>
                                </g>
                              </g>
                            </g>
                          </g>
                          <g id="Grupo_53850" data-name="Grupo 53850">
                            <g id="Grupo_53849" data-name="Grupo 53849">
                              <g id="Grupo_53848" data-name="Grupo 53848">
                                <g id="Grupo_53847" data-name="Grupo 53847">
                                  <g id="Grupo_53846" data-name="Grupo 53846">
                                    <g id="Grupo_53845" data-name="Grupo 53845">
                                      <g id="Grupo_53844" data-name="Grupo 53844">
                                        <g id="Grupo_53843" data-name="Grupo 53843">
                                          <g id="Grupo_53842" data-name="Grupo 53842">
                                            <g id="Grupo_53841" data-name="Grupo 53841">
                                              <g id="Grupo_53840" data-name="Grupo 53840">
                                                <path id="Trazado_99403" data-name="Trazado 99403" d="M231.732,87.353c.187.2,1.32-.638,2.937-.638s2.794.814,2.97.616c.088-.088-.1-.44-.616-.814a4.142,4.142,0,0,0-2.376-.737,3.936,3.936,0,0,0-2.332.748C231.809,86.913,231.644,87.265,231.732,87.353Z" transform="translate(-231.71 -85.78)" fill="#263238"/>
                                              </g>
                                            </g>
                                          </g>
                                        </g>
                                      </g>
                                    </g>
                                  </g>
                                </g>
                              </g>
                            </g>
                          </g>
                        </g>
                        <g id="Grupo_53873" data-name="Grupo 53873" transform="translate(17.54 17.821)">
                          <g id="Grupo_53861" data-name="Grupo 53861" transform="translate(0 3.705)">
                            <g id="Grupo_53860" data-name="Grupo 53860">
                              <g id="Grupo_53859" data-name="Grupo 53859">
                                <g id="Grupo_53858" data-name="Grupo 53858">
                                  <g id="Grupo_53857" data-name="Grupo 53857">
                                    <g id="Grupo_53856" data-name="Grupo 53856">
                                      <g id="Grupo_53855" data-name="Grupo 53855">
                                        <g id="Grupo_53854" data-name="Grupo 53854">
                                          <g id="Grupo_53853" data-name="Grupo 53853">
                                            <g id="Grupo_53852" data-name="Grupo 53852">
                                              <path id="Trazado_99404" data-name="Trazado 99404" d="M245.7,91.223a1.5,1.5,0,0,0,1.441,1.518,1.443,1.443,0,0,0,1.551-1.353,1.5,1.5,0,0,0-1.441-1.518A1.436,1.436,0,0,0,245.7,91.223Z" transform="translate(-245.699 -89.868)" fill="#263238"/>
                                            </g>
                                          </g>
                                        </g>
                                      </g>
                                    </g>
                                  </g>
                                </g>
                              </g>
                            </g>
                          </g>
                          <g id="Grupo_53872" data-name="Grupo 53872" transform="translate(0.837)">
                            <g id="Grupo_53871" data-name="Grupo 53871">
                              <g id="Grupo_53870" data-name="Grupo 53870">
                                <g id="Grupo_53869" data-name="Grupo 53869">
                                  <g id="Grupo_53868" data-name="Grupo 53868">
                                    <g id="Grupo_53867" data-name="Grupo 53867">
                                      <g id="Grupo_53866" data-name="Grupo 53866">
                                        <g id="Grupo_53865" data-name="Grupo 53865">
                                          <g id="Grupo_53864" data-name="Grupo 53864">
                                            <g id="Grupo_53863" data-name="Grupo 53863">
                                              <g id="Grupo_53862" data-name="Grupo 53862">
                                                <path id="Trazado_99405" data-name="Trazado 99405" d="M246.482,88.073c.187.2,1.32-.638,2.937-.638s2.794.814,2.97.616c.088-.088-.1-.44-.616-.814A4.142,4.142,0,0,0,249.4,86.5a3.936,3.936,0,0,0-2.332.748C246.559,87.633,246.394,87.985,246.482,88.073Z" transform="translate(-246.46 -86.5)" fill="#263238"/>
                                              </g>
                                            </g>
                                          </g>
                                        </g>
                                      </g>
                                    </g>
                                  </g>
                                </g>
                              </g>
                            </g>
                          </g>
                        </g>
                        <g id="Grupo_53884" data-name="Grupo 53884" transform="translate(8.391 18.711)">
                          <g id="Grupo_53883" data-name="Grupo 53883">
                            <g id="Grupo_53882" data-name="Grupo 53882">
                              <g id="Grupo_53881" data-name="Grupo 53881">
                                <g id="Grupo_53880" data-name="Grupo 53880">
                                  <g id="Grupo_53879" data-name="Grupo 53879">
                                    <g id="Grupo_53878" data-name="Grupo 53878">
                                      <g id="Grupo_53877" data-name="Grupo 53877">
                                        <g id="Grupo_53876" data-name="Grupo 53876">
                                          <g id="Grupo_53875" data-name="Grupo 53875">
                                            <g id="Grupo_53874" data-name="Grupo 53874">
                                              <path id="Trazado_99406" data-name="Trazado 99406" d="M241.5,100.741a10.834,10.834,0,0,0-2.618-.473c-.407-.044-.8-.121-.869-.407a2.1,2.1,0,0,1,.275-1.221c.385-1,.792-2.035,1.221-3.135,1.7-4.466,2.937-8.129,2.75-8.195s-1.7,3.5-3.41,7.953c-.407,1.1-.8,2.145-1.177,3.157a2.4,2.4,0,0,0-.22,1.617,1.041,1.041,0,0,0,.671.6,2.918,2.918,0,0,0,.7.1A10.024,10.024,0,0,0,241.5,100.741Z" transform="translate(-237.381 -87.309)" fill="#263238"/>
                                            </g>
                                          </g>
                                        </g>
                                      </g>
                                    </g>
                                  </g>
                                </g>
                              </g>
                            </g>
                          </g>
                        </g>
                        <g id="Grupo_53894" data-name="Grupo 53894" transform="translate(11.359 47.092)">
                          <g id="Grupo_53893" data-name="Grupo 53893">
                            <g id="Grupo_53892" data-name="Grupo 53892">
                              <g id="Grupo_53891" data-name="Grupo 53891">
                                <g id="Grupo_53890" data-name="Grupo 53890">
                                  <g id="Grupo_53889" data-name="Grupo 53889">
                                    <g id="Grupo_53888" data-name="Grupo 53888">
                                      <g id="Grupo_53887" data-name="Grupo 53887">
                                        <g id="Grupo_53886" data-name="Grupo 53886">
                                          <g id="Grupo_53885" data-name="Grupo 53885">
                                            <path id="Trazado_99407" data-name="Trazado 99407" d="M240.08,117.246a29.717,29.717,0,0,0,15.664-4.136s-3.971,8.03-15.664,6.908Z" transform="translate(-240.08 -113.11)" fill="#724940"/>
                                          </g>
                                        </g>
                                      </g>
                                    </g>
                                  </g>
                                </g>
                              </g>
                            </g>
                          </g>
                        </g>
                      </g>
                    </g>
                  </g>
                  <g id="Grupo_53907" data-name="Grupo 53907" transform="translate(17.687 14.28)">
                    <g id="Grupo_53906" data-name="Grupo 53906">
                      <g id="Grupo_53905" data-name="Grupo 53905">
                        <g id="Grupo_53904" data-name="Grupo 53904">
                          <g id="Grupo_53903" data-name="Grupo 53903">
                            <g id="Grupo_53902" data-name="Grupo 53902">
                              <g id="Grupo_53901" data-name="Grupo 53901">
                                <g id="Grupo_53900" data-name="Grupo 53900">
                                  <g id="Grupo_53899" data-name="Grupo 53899">
                                    <g id="Grupo_53898" data-name="Grupo 53898">
                                      <path id="Trazado_99408" data-name="Trazado 99408" d="M245.841,84.479c.154.44,1.771.231,3.663.462,1.892.2,3.421.748,3.674.363.11-.187-.154-.6-.77-1.023a6.422,6.422,0,0,0-5.588-.627C246.116,83.929,245.775,84.27,245.841,84.479Z" transform="translate(-245.833 -83.281)" fill="#263238"/>
                                    </g>
                                  </g>
                                </g>
                              </g>
                            </g>
                          </g>
                        </g>
                      </g>
                    </g>
                  </g>
                  <g id="Grupo_53917" data-name="Grupo 53917" transform="translate(2.369 13.365)">
                    <g id="Grupo_53916" data-name="Grupo 53916">
                      <g id="Grupo_53915" data-name="Grupo 53915">
                        <g id="Grupo_53914" data-name="Grupo 53914">
                          <g id="Grupo_53913" data-name="Grupo 53913">
                            <g id="Grupo_53912" data-name="Grupo 53912">
                              <g id="Grupo_53911" data-name="Grupo 53911">
                                <g id="Grupo_53910" data-name="Grupo 53910">
                                  <g id="Grupo_53909" data-name="Grupo 53909">
                                    <g id="Grupo_53908" data-name="Grupo 53908">
                                      <path id="Trazado_99409" data-name="Trazado 99409" d="M231.954,84.111c.319.363,1.584-.011,3.1-.022,1.518-.066,2.794.253,3.091-.132.132-.187-.066-.55-.627-.9a4.7,4.7,0,0,0-2.519-.6,4.62,4.62,0,0,0-2.475.726C231.987,83.55,231.811,83.924,231.954,84.111Z" transform="translate(-231.907 -82.449)" fill="#263238"/>
                                    </g>
                                  </g>
                                </g>
                              </g>
                            </g>
                          </g>
                        </g>
                      </g>
                    </g>
                  </g>
                </g>
              </g>
            </g>
          </g>
          <g id="Grupo_53925" data-name="Grupo 53925" transform="translate(15.091 9.406)">
            <g id="Grupo_53924" data-name="Grupo 53924">
              <g id="Grupo_53923" data-name="Grupo 53923">
                <g id="Grupo_53922" data-name="Grupo 53922">
                  <path id="Trazado_99410" data-name="Trazado 99410" d="M271.41,114.592a10.386,10.386,0,0,1-12.353-11.484c.363-2.871,1.914-5.786.913-8.5-1.32-3.6-6.347-4.7-7.689-8.283-.781-2.079-.077-4.521-.957-6.567-.825-1.925-2.849-3.025-4.818-3.74s-4.07-1.2-5.72-2.486-2.684-3.707-1.617-5.5a110.914,110.914,0,0,1,25.542,6.2c1.9.715,3.916,1.573,5.038,3.267,1.188,1.793,1.133,4.114,1.034,6.259q-.742,15.741-1.474,31.482" transform="translate(-238.735 -68.03)" fill="#263238"/>
                </g>
              </g>
            </g>
          </g>
          <g id="Grupo_53929" data-name="Grupo 53929" transform="translate(14.989 6.855)">
            <g id="Grupo_53928" data-name="Grupo 53928">
              <g id="Grupo_53927" data-name="Grupo 53927">
                <g id="Grupo_53926" data-name="Grupo 53926">
                  <path id="Trazado_99411" data-name="Trazado 99411" d="M277.6,76.853a.953.953,0,0,1,.2.473,1.781,1.781,0,0,1-.451,1.408,2.95,2.95,0,0,1-2.09,1.056A6.676,6.676,0,0,1,272.3,78.9a8.248,8.248,0,0,0-3.41-1.012,18.262,18.262,0,0,0-4.125.374,28.829,28.829,0,0,1-4.664.6,6.723,6.723,0,0,1-4.785-1.749,14.014,14.014,0,0,1-2.761-4.279,21.486,21.486,0,0,0-2.233-4.015,6.568,6.568,0,0,0-6.743-2.464,6.844,6.844,0,0,0-4.07,3.014,15.349,15.349,0,0,0-.858,1.727c-.022,0,0-.176.088-.506a6.331,6.331,0,0,1,.561-1.353,6.9,6.9,0,0,1,4.169-3.3,6.722,6.722,0,0,1,3.751.077,7.037,7.037,0,0,1,3.542,2.453,21.583,21.583,0,0,1,2.332,4.1,13.852,13.852,0,0,0,2.629,4.092,6.126,6.126,0,0,0,4.378,1.595,27.846,27.846,0,0,0,4.565-.561,18.385,18.385,0,0,1,4.257-.33,8.611,8.611,0,0,1,3.564,1.122,6.579,6.579,0,0,0,2.761.935,2.735,2.735,0,0,0,1.925-.869,1.736,1.736,0,0,0,.506-1.243C277.656,77.018,277.568,76.864,277.6,76.853Z" transform="translate(-238.643 -65.711)" fill="#455a64"/>
                </g>
              </g>
            </g>
          </g>
          <g id="Grupo_53933" data-name="Grupo 53933" transform="translate(42.717 11.828)">
            <g id="Grupo_53932" data-name="Grupo 53932">
              <g id="Grupo_53931" data-name="Grupo 53931">
                <g id="Grupo_53930" data-name="Grupo 53930">
                  <path id="Trazado_99412" data-name="Trazado 99412" d="M276.39,77.512c-.154.132-1.936-2.849-5.533-4.873-3.564-2.09-7.04-2.123-7.007-2.321a5.48,5.48,0,0,1,2.222.022,14.554,14.554,0,0,1,9.174,5.269A5.164,5.164,0,0,1,276.39,77.512Z" transform="translate(-263.85 -70.232)" fill="#455a64"/>
                </g>
              </g>
            </g>
          </g>
          <g id="Grupo_53936" data-name="Grupo 53936" transform="translate(13.549 3.842)">
            <g id="Grupo_53935" data-name="Grupo 53935">
              <g id="Grupo_53934" data-name="Grupo 53934">
                <path id="Trazado_99413" data-name="Trazado 99413" d="M265.929,70.439c.022.011-.033.132-.165.341a3.362,3.362,0,0,1-.748.792,5.142,5.142,0,0,1-3.872.858,9.823,9.823,0,0,1-5.06-3.014c-1.584-1.54-3.047-3.52-5.2-4.741a9.217,9.217,0,0,0-6.71-.858,8.857,8.857,0,0,0-4.686,3.036,9.765,9.765,0,0,0-1.782,3.4c-.253.88-.308,1.4-.352,1.4-.022,0-.022-.132-.011-.374a6.36,6.36,0,0,1,.143-1.067,9.348,9.348,0,0,1,1.672-3.608,9.076,9.076,0,0,1,4.873-3.3,9.589,9.589,0,0,1,7.139.869c2.3,1.32,3.762,3.355,5.291,4.873a9.657,9.657,0,0,0,4.741,2.992,5.006,5.006,0,0,0,3.663-.638A7.883,7.883,0,0,0,265.929,70.439Z" transform="translate(-237.333 -62.971)" fill="#455a64"/>
              </g>
            </g>
          </g>
          <g id="Grupo_53938" data-name="Grupo 53938" transform="translate(41.606 19.647)">
            <g id="Grupo_53937" data-name="Grupo 53937">
              <path id="Trazado_99414" data-name="Trazado 99414" d="M262.84,118.677a1.544,1.544,0,0,0,.517.143,8.913,8.913,0,0,0,1.54.154,11.83,11.83,0,0,0,5.522-1.243,12.846,12.846,0,0,0,5.9-5.951,14.714,14.714,0,0,0,1-10.186,29.35,29.35,0,0,1-1.023-5.126,8.172,8.172,0,0,1,1.155-4.543,16.417,16.417,0,0,0,1.8-4.136,9.7,9.7,0,0,0,.11-3.96,10.6,10.6,0,0,0-2.409-5.126,7.746,7.746,0,0,0-1.122-1.067,2.29,2.29,0,0,0-.451-.3c-.044.055.55.495,1.364,1.529a10.688,10.688,0,0,1,2.134,5.027,9.537,9.537,0,0,1-.187,3.751,16.909,16.909,0,0,1-1.815,3.982,12.141,12.141,0,0,0-.979,2.277,7.886,7.886,0,0,0-.286,2.6,29.124,29.124,0,0,0,1.034,5.247,14.25,14.25,0,0,1-.9,9.746A12.508,12.508,0,0,1,264.9,118.71C263.577,118.743,262.851,118.611,262.84,118.677Z" transform="translate(-262.84 -77.339)" fill="#455a64"/>
            </g>
          </g>
          <g id="Grupo_53940" data-name="Grupo 53940" transform="translate(50.513 7.907)">
            <g id="Grupo_53939" data-name="Grupo 53939">
              <path id="Trazado_99415" data-name="Trazado 99415" d="M282.732,67.99a3.846,3.846,0,0,0-1.991-1.034A7.836,7.836,0,0,0,271.49,71.2a3.775,3.775,0,0,0-.517,2.189c.11.022.286-.814.957-1.958a8.092,8.092,0,0,1,8.7-3.993C281.929,67.682,282.677,68.089,282.732,67.99Z" transform="translate(-270.938 -66.667)" fill="#455a64"/>
            </g>
          </g>
          <g id="Grupo_53942" data-name="Grupo 53942" transform="translate(53.428 10.535)">
            <g id="Grupo_53941" data-name="Grupo 53941">
              <path id="Trazado_99416" data-name="Trazado 99416" d="M273.821,75.121c.033-.011-.033-.264-.044-.759a3.967,3.967,0,0,1,.517-2.057,5.617,5.617,0,0,1,2.42-2.277,5.06,5.06,0,0,1,4.279-.11,7.86,7.86,0,0,1,3.817,3.663A11.738,11.738,0,0,1,286,79.642a39.33,39.33,0,0,1-1.1,6.93,29.583,29.583,0,0,0-.9,7.612,22.778,22.778,0,0,0,1.98,7.425,63.528,63.528,0,0,1,2.541,6.567,14.437,14.437,0,0,1,.528,6.2,18.486,18.486,0,0,1-1.617,5.236,41.641,41.641,0,0,1-4.29,6.787c-.539.715-.968,1.3-1.32,1.76a3.42,3.42,0,0,0-.429.638,3.642,3.642,0,0,0,.539-.55c.33-.374.814-.935,1.419-1.683a37.441,37.441,0,0,0,4.51-6.743,18.434,18.434,0,0,0,1.749-5.368,14.894,14.894,0,0,0-.484-6.468,59.682,59.682,0,0,0-2.53-6.644,22.445,22.445,0,0,1-1.914-7.2c-.209-5.126,1.87-9.878,1.936-14.487a12.259,12.259,0,0,0-1.32-6.347,8.3,8.3,0,0,0-4.147-3.839,5.464,5.464,0,0,0-4.631.22,5.748,5.748,0,0,0-2.486,2.5,3.868,3.868,0,0,0-.418,2.189A2.974,2.974,0,0,0,273.821,75.121Z" transform="translate(-273.588 -69.056)" fill="#455a64"/>
            </g>
          </g>
          <g id="Grupo_53945" data-name="Grupo 53945" transform="translate(18.088 46.03)">
            <g id="Grupo_53944" data-name="Grupo 53944">
              <g id="Grupo_53943" data-name="Grupo 53943">
                <path id="Trazado_99417" data-name="Trazado 99417" d="M241.713,103.267a7.9,7.9,0,0,0,1,1.969,2.6,2.6,0,0,0,1.859,1.078,2.338,2.338,0,0,0,1.98-1.078,3.751,3.751,0,0,0,.55-2.255c-.033-.715-.363-1.562-1.067-1.65a1.807,1.807,0,0,0-.858.187c-1.243.506-2.475,1-3.718,1.507" transform="translate(-241.46 -101.325)" fill="#724940"/>
              </g>
            </g>
          </g>
          <g id="Grupo_53949" data-name="Grupo 53949" transform="translate(17.394 45.644)">
            <g id="Grupo_53948" data-name="Grupo 53948">
              <g id="Grupo_53947" data-name="Grupo 53947">
                <g id="Grupo_53946" data-name="Grupo 53946">
                  <path id="Trazado_99418" data-name="Trazado 99418" d="M243.261,106.36a5.374,5.374,0,0,0,1.98-.242,2.792,2.792,0,0,0,1.5-1.364,3,3,0,0,0,.044-2.431,3.1,3.1,0,0,0-.319-.561c-.143-.154-.121-.143-.286-.121-.154.044-.4.154-.594.231s-.407.165-.6.253c-.792.319-1.518.6-2.123.825a6.716,6.716,0,0,1-2.024.6,6.909,6.909,0,0,1,1.837-1.045c.583-.286,1.287-.6,2.068-.957.2-.088.4-.176.605-.264a6.232,6.232,0,0,1,.682-.275.859.859,0,0,1,.55.011.959.959,0,0,1,.407.319,3.4,3.4,0,0,1,.308,3.674,3.2,3.2,0,0,1-1.892,1.529,3.019,3.019,0,0,1-1.606.066C243.415,106.525,243.25,106.393,243.261,106.36Z" transform="translate(-240.829 -100.974)" fill="#263238"/>
                </g>
              </g>
            </g>
          </g>
        </g>
        <g id="Grupo_53952" data-name="Grupo 53952" transform="translate(148.509 204.302)">
          <g id="Grupo_53951" data-name="Grupo 53951">
            <path id="Trazado_99419" data-name="Trazado 99419" d="M280.661,235.577c.033.132.055.286.077.418C280.683,235.533,280.639,235.148,280.661,235.577Z" transform="translate(-280.655 -235.391)" fill="#263238"/>
          </g>
        </g>
        <g id="Grupo_53963" data-name="Grupo 53963" transform="translate(159.459 210.329)">
          <g id="Grupo_53954" data-name="Grupo 53954">
            <g id="Grupo_53953" data-name="Grupo 53953">
              <path id="Trazado_99420" data-name="Trazado 99420" d="M290.61,245.05l1.65,14.575L305.6,271.813a4.307,4.307,0,0,0,.517-3.355c-.6-1.518,3.047,1.98,3.047,1.98v8.371s2.288.913,3.047-1.067,1.221-9.141,1.221-9.141l-1.067-.759a3.888,3.888,0,0,0,1.067-3.355,11.862,11.862,0,0,0,.759-6.094,18.492,18.492,0,0,0-1.375-5.335L301.9,240.87Z" transform="translate(-290.61 -240.87)" fill="#aa6550"/>
            </g>
          </g>
          <g id="Grupo_53956" data-name="Grupo 53956" transform="translate(6.693 18.201)">
            <g id="Grupo_53955" data-name="Grupo 53955">
              <path id="Trazado_99421" data-name="Trazado 99421" d="M296.7,257.42a33.376,33.376,0,0,0,8.723,8.965c.1-.121-1.991-1.991-4.389-4.466C298.637,259.466,296.833,257.321,296.7,257.42Z" transform="translate(-296.694 -257.417)" fill="#724940"/>
            </g>
          </g>
          <g id="Grupo_53958" data-name="Grupo 53958" transform="translate(16.065 20.861)">
            <g id="Grupo_53957" data-name="Grupo 53957">
              <path id="Trazado_99422" data-name="Trazado 99422" d="M305.221,259.841a41.945,41.945,0,0,0,6.754,6.93,21.36,21.36,0,0,0-3.179-3.663A21.719,21.719,0,0,0,305.221,259.841Z" transform="translate(-305.215 -259.835)" fill="#724940"/>
            </g>
          </g>
          <g id="Grupo_53960" data-name="Grupo 53960" transform="translate(17.857 17.524)">
            <g id="Grupo_53959" data-name="Grupo 53959">
              <path id="Trazado_99423" data-name="Trazado 99423" d="M306.851,256.811a34.463,34.463,0,0,0,2.519,3,34.994,34.994,0,0,0,2.431,3.069,8.782,8.782,0,0,0-2-3.421A8.478,8.478,0,0,0,306.851,256.811Z" transform="translate(-306.844 -256.801)" fill="#724940"/>
            </g>
          </g>
          <g id="Grupo_53962" data-name="Grupo 53962" transform="translate(19.395 14.07)">
            <g id="Grupo_53961" data-name="Grupo 53961">
              <path id="Trazado_99424" data-name="Trazado 99424" d="M308.251,253.671a13.708,13.708,0,0,0,1.98,2.42,14.153,14.153,0,0,0,2.1,2.31,6.578,6.578,0,0,0-1.683-2.673A6.7,6.7,0,0,0,308.251,253.671Z" transform="translate(-308.242 -253.661)" fill="#724940"/>
            </g>
          </g>
        </g>
        <g id="Grupo_53965" data-name="Grupo 53965" transform="translate(71.184 45.412)">
          <g id="Grupo_53964" data-name="Grupo 53964">
            <path id="Trazado_99425" data-name="Trazado 99425" d="M219.853,95.307c-.066.154-2.255-.693-4.873-1.892a22.686,22.686,0,0,1-4.62-2.453c.066-.154,2.255.693,4.873,1.892S219.93,95.153,219.853,95.307Z" transform="translate(-210.359 -90.944)" fill="#455a64"/>
          </g>
        </g>
        <g id="Grupo_54005" data-name="Grupo 54005">
          <g id="Grupo_53967" data-name="Grupo 53967" transform="translate(42.489 69.157)">
            <g id="Grupo_53966" data-name="Grupo 53966">
              <path id="Trazado_99426" data-name="Trazado 99426" d="M207.05,115.544c-1.1-.044-3.773,1.551-5.907,4.5-.033.044-.077.088-.11.132-1.529,1.98-2.959-3.674-3.212-5.786a2.209,2.209,0,0,0-2.981-1.716l-7.084,3.311-2.068.066a2.109,2.109,0,0,0-1.353,2.5l3.388,11.176.077,3.047,14.179,1.914.22-7.645c.209-.88.495-1.925.869-3.113a9.668,9.668,0,0,1,1.562-2.981,17.935,17.935,0,0,1,2.552-2.794c.077-.044.165-.121.231-.154a1.275,1.275,0,0,0,.407-.352A1.232,1.232,0,0,0,207.05,115.544Z" transform="translate(-184.272 -112.53)" fill="#aa6550"/>
            </g>
          </g>
          <g id="Grupo_53969" data-name="Grupo 53969">
            <g id="Grupo_53968" data-name="Grupo 53968">
              <path id="Trazado_99427" data-name="Trazado 99427" d="M210.638,87.39S202.366,85.806,190.475,75s-17.743-25.421-19.151-25.311-7.678-2.585-18.711,23.331-6.237,31.724-3.894,31.614,18.106-4.994,28.061-4.147,22.858,5.654,22.858,5.654Z" transform="translate(-145.645 -49.659)" fill="#26aab7"/>
            </g>
          </g>
          <g id="Grupo_53971" data-name="Grupo 53971" transform="translate(52.233 32.99)">
            <g id="Grupo_53970" data-name="Grupo 53970">
              <path id="Trazado_99428" data-name="Trazado 99428" d="M223.754,97.833l-2.651,5.412-1.188,2.42a6.97,6.97,0,0,1-8.987,3.344l-17.8-5.643,9.6-23.716,17.875,8.888A6.964,6.964,0,0,1,223.754,97.833Z" transform="translate(-193.13 -79.65)" fill="#263238"/>
            </g>
          </g>
          <g id="Grupo_53973" data-name="Grupo 53973" transform="translate(41.475 56.452)">
            <g id="Grupo_53972" data-name="Grupo 53972">
              <path id="Trazado_99429" data-name="Trazado 99429" d="M214.81,104.533l-5.3,11.165-2.827-.7-17.919,15.444-5.412-9.889s10.7-4.972,12.606-8.9-.451-4.73-.451-4.73l4.939-5.94Z" transform="translate(-183.35 -100.98)" fill="#263238"/>
            </g>
          </g>
          <g id="Grupo_53975" data-name="Grupo 53975" transform="translate(1.509 0.619)">
            <g id="Grupo_53974" data-name="Grupo 53974">
              <path id="Trazado_99430" data-name="Trazado 99430" d="M153.433,73.408c-5.863,14.036-8.118,26.455-5.038,27.753s10.34-9.042,16.2-23.078,8.118-26.455,5.038-27.753S159.3,59.372,153.433,73.408Z" transform="translate(-147.017 -50.222)" fill="#263238"/>
            </g>
          </g>
          <g id="Grupo_53977" data-name="Grupo 53977" transform="translate(79.765 51.766)">
            <g id="Grupo_53976" data-name="Grupo 53976">
              <path id="Trazado_99431" data-name="Trazado 99431" d="M222.978,103.793l-4.818-1.364,2.794-5.709,3.641,2.123Z" transform="translate(-218.16 -96.72)" fill="#455a64"/>
            </g>
          </g>
          <g id="Grupo_53979" data-name="Grupo 53979" transform="translate(56.875 58.487)" opacity="0.3">
            <g id="Grupo_53978" data-name="Grupo 53978">
              <path id="Trazado_99432" data-name="Trazado 99432" d="M197.35,102.83l13.068,7.821,1.507-3.19Z" transform="translate(-197.35 -102.83)"/>
            </g>
          </g>
          <g id="Grupo_53981" data-name="Grupo 53981" transform="translate(68.775 48.745)">
            <g id="Grupo_53980" data-name="Grupo 53980">
              <path id="Trazado_99433" data-name="Trazado 99433" d="M218.7,98.392c-.066.154-2.475-.7-5.379-1.914s-5.214-2.332-5.148-2.486,2.475.7,5.379,1.914S218.763,98.227,218.7,98.392Z" transform="translate(-208.169 -93.974)" fill="#455a64"/>
            </g>
          </g>
          <g id="Grupo_53983" data-name="Grupo 53983" transform="translate(67.951 52.769)">
            <g id="Grupo_53982" data-name="Grupo 53982">
              <path id="Trazado_99434" data-name="Trazado 99434" d="M217.023,101.59a3.965,3.965,0,0,1-1.507-.286c-.451-.132-1-.286-1.595-.473s-1.21-.484-1.881-.77a20.762,20.762,0,0,1-4.62-2.409c.077-.165,2.233.715,4.851,1.848.66.275,1.265.583,1.848.8s1.089.418,1.529.594C216.517,101.238,217.045,101.5,217.023,101.59Z" transform="translate(-207.419 -97.632)" fill="#455a64"/>
            </g>
          </g>
          <g id="Grupo_53985" data-name="Grupo 53985" transform="translate(8.695 19.452)">
            <g id="Grupo_53984" data-name="Grupo 53984">
              <path id="Trazado_99435" data-name="Trazado 99435" d="M165.452,68.253s-7.271-4.224-10.912,5.533,3.927,11.143,3.927,11.143A64,64,0,0,0,165.452,68.253Z" transform="translate(-153.549 -67.343)" fill="#fafafa"/>
            </g>
          </g>
          <g id="Grupo_53987" data-name="Grupo 53987" transform="translate(8.583 8.647)">
            <g id="Grupo_53986" data-name="Grupo 53986">
              <path id="Trazado_99436" data-name="Trazado 99436" d="M172.733,57.52a10.691,10.691,0,0,1-.231,1.848c-.2,1.188-.462,2.9-.858,5.027-.275,1.045-.572,2.189-.891,3.41-.165.616-.33,1.243-.506,1.892l-.264.99c-.1.33-.231.66-.341,1-.473,1.342-.979,2.75-1.5,4.213-.132.363-.264.737-.4,1.1s-.319.726-.473,1.089c-.33.726-.66,1.474-1,2.222s-.671,1.485-1,2.222c-.176.363-.319.737-.506,1.078s-.385.693-.572,1.023c-.748,1.353-1.474,2.662-2.167,3.9-.176.308-.341.627-.517.913-.2.286-.385.572-.572.858-.374.561-.737,1.111-1.089,1.639-.7,1.045-1.364,2.024-1.969,2.926-1.32,1.694-2.431,3.036-3.19,3.96a11.488,11.488,0,0,1-1.243,1.4,10.9,10.9,0,0,1,1.056-1.54c.737-.99,1.771-2.376,3.036-4.081.583-.9,1.21-1.892,1.892-2.948.341-.528.693-1.078,1.056-1.639.187-.286.363-.561.55-.858s.33-.6.506-.913c.682-1.243,1.386-2.552,2.123-3.9l.561-1.023c.187-.341.33-.715.506-1.067.33-.726.66-1.463.99-2.2s.671-1.474,1-2.2c.154-.363.341-.715.473-1.089s.264-.737.4-1.1c.528-1.441,1.034-2.838,1.518-4.169.121-.33.253-.66.352-.99s.187-.66.275-.979q.264-.973.528-1.881.512-1.815.957-3.366c.44-2.079.792-3.762,1.045-4.961A13.029,13.029,0,0,1,172.733,57.52Z" transform="translate(-153.448 -57.52)" fill="#263238"/>
            </g>
          </g>
          <g id="Grupo_53989" data-name="Grupo 53989" transform="translate(49.629 67.042)">
            <g id="Grupo_53988" data-name="Grupo 53988">
              <path id="Trazado_99437" data-name="Trazado 99437" d="M191.706,110.731a1.614,1.614,0,0,0-.847,2.024c.55,1.54,1.419,3.96,2.079,5.423a4.077,4.077,0,0,0,.8,1.309,1.341,1.341,0,0,0,1.375.374,1.491,1.491,0,0,0,.825-1.3,4.468,4.468,0,0,0-.3-1.606c-.462-1.441-1.265-3.6-1.947-5.346a1.483,1.483,0,0,0-1.991-.88Z" transform="translate(-190.763 -110.607)" fill="#aa6550"/>
            </g>
          </g>
          <g id="Grupo_53991" data-name="Grupo 53991" transform="translate(47.484 69.881)">
            <g id="Grupo_53990" data-name="Grupo 53990">
              <path id="Trazado_99438" data-name="Trazado 99438" d="M189.756,113.311a1.614,1.614,0,0,0-.847,2.024c.55,1.54,1.419,3.96,2.079,5.423a4.077,4.077,0,0,0,.8,1.309,1.341,1.341,0,0,0,1.375.374,1.494,1.494,0,0,0,.825-1.309,4.467,4.467,0,0,0-.3-1.606c-.462-1.441-1.265-3.6-1.947-5.346a1.5,1.5,0,0,0-1.991-.869Z" transform="translate(-188.813 -113.189)" fill="#aa6550"/>
            </g>
          </g>
          <g id="Grupo_53993" data-name="Grupo 53993" transform="translate(45.495 71.701)">
            <g id="Grupo_53992" data-name="Grupo 53992">
              <path id="Trazado_99439" data-name="Trazado 99439" d="M187.858,114.95a1.393,1.393,0,0,0-.77,1.76c.495,1.331,1.287,3.432,1.881,4.7a3.5,3.5,0,0,0,.726,1.133,1.132,1.132,0,0,0,1.991-.8,3.622,3.622,0,0,0-.264-1.4c-.418-1.243-1.144-3.113-1.76-4.631a1.371,1.371,0,0,0-1.8-.759Z" transform="translate(-187.004 -114.842)" fill="#aa6550"/>
            </g>
          </g>
          <g id="Grupo_53995" data-name="Grupo 53995" transform="translate(42.761 72.306)">
            <g id="Grupo_53994" data-name="Grupo 53994">
              <path id="Trazado_99440" data-name="Trazado 99440" d="M185.378,115.5a1.378,1.378,0,0,0-.77,1.76c.495,1.342,1.3,3.443,1.892,4.719a3.535,3.535,0,0,0,.737,1.133,1.139,1.139,0,0,0,2-.8,3.622,3.622,0,0,0-.264-1.4c-.418-1.254-1.155-3.124-1.771-4.653a1.4,1.4,0,0,0-1.826-.759Z" transform="translate(-184.519 -115.392)" fill="#aa6550"/>
            </g>
          </g>
          <g id="Grupo_53998" data-name="Grupo 53998" transform="translate(50.092 70.353)">
            <g id="Grupo_53997" data-name="Grupo 53997">
              <g id="Grupo_53996" data-name="Grupo 53996">
                <path id="Trazado_99441" data-name="Trazado 99441" d="M193.567,119.241a8.285,8.285,0,0,1-1.441-2.695,8.43,8.43,0,0,1-.913-2.926,8.284,8.284,0,0,1,1.441,2.695A8.565,8.565,0,0,1,193.567,119.241Z" transform="translate(-191.184 -113.618)" fill="#724940"/>
              </g>
            </g>
          </g>
          <g id="Grupo_54001" data-name="Grupo 54001" transform="translate(47.542 71.894)">
            <g id="Grupo_54000" data-name="Grupo 54000">
              <g id="Grupo_53999" data-name="Grupo 53999">
                <path id="Trazado_99442" data-name="Trazado 99442" d="M191.444,121.466a11.012,11.012,0,0,1-1.54-3.113,10.9,10.9,0,0,1-1.012-3.333,10.634,10.634,0,0,1,1.54,3.113A10.629,10.629,0,0,1,191.444,121.466Z" transform="translate(-188.866 -115.018)" fill="#724940"/>
              </g>
            </g>
          </g>
          <g id="Grupo_54004" data-name="Grupo 54004" transform="translate(45.274 72.973)">
            <g id="Grupo_54003" data-name="Grupo 54003">
              <g id="Grupo_54002" data-name="Grupo 54002">
                <path id="Trazado_99443" data-name="Trazado 99443" d="M189.2,121.676a7.047,7.047,0,0,1-1.551-2.684,6.97,6.97,0,0,1-.8-2.992,11.112,11.112,0,0,1,1.342,2.772A10.788,10.788,0,0,1,189.2,121.676Z" transform="translate(-186.804 -115.999)" fill="#724940"/>
              </g>
            </g>
          </g>
        </g>
        <g id="Grupo_54020" data-name="Grupo 54020" transform="translate(53.223 167.683)">
          <g id="Grupo_54007" data-name="Grupo 54007">
            <g id="Grupo_54006" data-name="Grupo 54006">
              <path id="Trazado_99444" data-name="Trazado 99444" d="M291.665,329.027,284.2,269.078c4.862-11.363,6.633-22.7,5.214-29.755.088.737.121,1.65-.077-.418-1.21-12.485-11.99-21.659-11.99-21.659L273.735,202.1l-46.155,6.49,1.749,25.355-29.876,105.18-5.423,88.912,24.123,2.827s9.46-44.461,12-63.04a256.508,256.508,0,0,0,2.4-30.4l22.66-33.9c2.684,13.992,5.72,31.273,7.282,40.281a23.641,23.641,0,0,0,5.027,10.967l59.3,46.672.011-28.116C321.166,359.871,291.665,329.027,291.665,329.027Z" transform="translate(-194.03 -202.1)" fill="#263238"/>
            </g>
          </g>
          <g id="Grupo_54010" data-name="Grupo 54010" transform="translate(36.563 7.304)">
            <g id="Grupo_54009" data-name="Grupo 54009">
              <g id="Grupo_54008" data-name="Grupo 54008">
                <path id="Trazado_99445" data-name="Trazado 99445" d="M230.174,226.736a10.706,10.706,0,0,1-.968-2.508,44.5,44.5,0,0,1-1.43-6.336,45.323,45.323,0,0,1-.506-6.468,10.931,10.931,0,0,1,.176-2.684,15.778,15.778,0,0,1,.231,2.673c.1,1.65.3,3.916.671,6.4s.869,4.708,1.254,6.314A16.44,16.44,0,0,1,230.174,226.736Z" transform="translate(-227.27 -208.74)" fill="#455a64"/>
              </g>
            </g>
          </g>
          <g id="Grupo_54013" data-name="Grupo 54013" transform="translate(39.729 7.739)">
            <g id="Grupo_54012" data-name="Grupo 54012">
              <g id="Grupo_54011" data-name="Grupo 54011">
                <path id="Trazado_99446" data-name="Trazado 99446" d="M232.02,209.448c-.011-.022.176-.176.594-.264a2.8,2.8,0,0,1,1.771.253,2.772,2.772,0,0,1,1.573,2.156,3.083,3.083,0,0,1-1.474,2.9,2.866,2.866,0,0,1-3.234-.3,2.792,2.792,0,0,1-1.089-2.431,4.4,4.4,0,0,1,.517-1.694c.2-.363.341-.539.374-.528s-.044.231-.165.616a5.349,5.349,0,0,0-.319,1.617,2.386,2.386,0,0,0,1.012,1.991,2.359,2.359,0,0,0,2.618.22,2.64,2.64,0,0,0,1.243-2.365,2.386,2.386,0,0,0-1.232-1.848A3.65,3.65,0,0,0,232.02,209.448Z" transform="translate(-230.148 -209.135)" fill="#455a64"/>
              </g>
            </g>
          </g>
          <g id="Grupo_54016" data-name="Grupo 54016" transform="translate(52.08 13.989)">
            <g id="Grupo_54015" data-name="Grupo 54015">
              <g id="Grupo_54014" data-name="Grupo 54014">
                <path id="Trazado_99447" data-name="Trazado 99447" d="M261.235,221.112a2.851,2.851,0,0,1-.814.341,11.843,11.843,0,0,1-2.332.528,17.334,17.334,0,0,1-3.553.121,19.732,19.732,0,0,1-4.279-.814,20.342,20.342,0,0,1-3.971-1.8,16.041,16.041,0,0,1-2.827-2.156,12.8,12.8,0,0,1-1.606-1.771c-.33-.451-.506-.715-.473-.737.088-.066.836.924,2.343,2.211a20.126,20.126,0,0,0,2.827,2,22.07,22.07,0,0,0,3.872,1.716,21,21,0,0,0,4.147.836,20.153,20.153,0,0,0,3.465,0C260.014,221.387,261.2,221.013,261.235,221.112Z" transform="translate(-241.376 -214.817)" fill="#455a64"/>
              </g>
            </g>
          </g>
          <g id="Grupo_54019" data-name="Grupo 54019" transform="translate(38.499 65.525)">
            <g id="Grupo_54018" data-name="Grupo 54018">
              <g id="Grupo_54017" data-name="Grupo 54017">
                <path id="Trazado_99448" data-name="Trazado 99448" d="M277.308,261.67a5.013,5.013,0,0,1-.506.7q-.577.726-1.518,1.947c-1.276,1.727-3.135,4.213-5.357,7.348-4.455,6.248-10.472,14.993-17.05,24.684-6.545,9.691-12.474,18.458-16.808,24.871-2.134,3.146-3.861,5.7-5.1,7.535-.583.847-1.056,1.529-1.408,2.035a4.658,4.658,0,0,1-.528.693,5.924,5.924,0,0,1,.429-.748c.33-.528.77-1.221,1.32-2.09,1.2-1.848,2.882-4.444,4.95-7.634,4.213-6.424,10.076-15.268,16.665-24.97s12.661-18.4,17.2-24.6c2.266-3.1,4.169-5.566,5.511-7.249.671-.781,1.21-1.408,1.606-1.881A3.734,3.734,0,0,1,277.308,261.67Z" transform="translate(-229.029 -261.669)" fill="#455a64"/>
              </g>
            </g>
          </g>
        </g>
        <g id="Grupo_54046" data-name="Grupo 54046" transform="translate(42.003 80.791)">
          <g id="Grupo_54022" data-name="Grupo 54022" transform="translate(89.758 2.683)">
            <g id="Grupo_54021" data-name="Grupo 54021">
              <path id="Trazado_99449" data-name="Trazado 99449" d="M265.529,140.961c.088,0,.088-1.155.4-2.981a20.586,20.586,0,0,1,2.42-6.732,11.326,11.326,0,0,1,4.906-4.994,6.924,6.924,0,0,1,2.882-.462,1.722,1.722,0,0,0-.792-.22,4.932,4.932,0,0,0-2.233.308,10.988,10.988,0,0,0-5.247,5.082,18.322,18.322,0,0,0-2.321,6.952A9.524,9.524,0,0,0,265.529,140.961Z" transform="translate(-265.43 -125.546)" fill="#263238"/>
            </g>
          </g>
          <g id="Grupo_54024" data-name="Grupo 54024" transform="translate(41.747)">
            <g id="Grupo_54023" data-name="Grupo 54023">
              <path id="Trazado_99450" data-name="Trazado 99450" d="M266.1,123.385l-24.178,3.751-4.312,3.729s-15.224,29.634-15.5,35.617c-.308,6.611,3.234,17.963,3.234,17.963l-3.476,26.18c-.517,3,1.441,5.9,2.75,5.9l41.766-5.6c5.445-1.067,7.678-3.916,7.348-7.073l-.627-5.83,17.842-59.751c1.056,3.531-.594-9.526-8.558-12.452C279.012,124.573,271.224,122.318,266.1,123.385Z" transform="translate(-221.783 -123.107)" fill="#8ec8c8"/>
            </g>
          </g>
          <g id="Grupo_54026" data-name="Grupo 54026" transform="translate(0 5.999)">
            <g id="Grupo_54025" data-name="Grupo 54025">
              <path id="Trazado_99451" data-name="Trazado 99451" d="M243.625,128.56s-7.447,5.731-14.487,12.254S203.3,160.383,203.3,160.383L202,133.092l-14.179-1.914s-6.93,34.034-2.53,43.427,9.647,9.79,24.266,5.093,18.788-6.787,18.788-6.787Z" transform="translate(-183.83 -128.56)" fill="#8ec8c8"/>
            </g>
          </g>
          <g id="Grupo_54028" data-name="Grupo 54028" transform="translate(41.782 10.046)">
            <g id="Grupo_54027" data-name="Grupo 54027">
              <path id="Trazado_99452" data-name="Trazado 99452" d="M236.1,132.24a1.934,1.934,0,0,0-.33.418c-.231.341-.517.759-.869,1.276-.737,1.111-1.8,2.728-3.058,4.763a76.379,76.379,0,0,0-8.118,16.83,37.243,37.243,0,0,0-1.254,18.557,25.439,25.439,0,0,0,1.749,5.4,15.366,15.366,0,0,0,.693,1.375,2.459,2.459,0,0,0,.286.462c.044-.022-.286-.693-.781-1.925a29,29,0,0,1-1.562-5.39,38.4,38.4,0,0,1,1.4-18.315,82.736,82.736,0,0,1,7.92-16.8c1.188-1.991,2.178-3.63,2.9-4.851.308-.528.572-.968.781-1.331A2.013,2.013,0,0,0,236.1,132.24Z" transform="translate(-221.815 -132.239)" fill="#263238"/>
            </g>
          </g>
          <g id="Grupo_54030" data-name="Grupo 54030" transform="translate(89.86 2.705)">
            <g id="Grupo_54029" data-name="Grupo 54029">
              <path id="Trazado_99453" data-name="Trazado 99453" d="M273.473,125.57s-7.524,9.856-7.942,18.909,13.508,63.282,13.508,63.282l12.21,49.51,15.191-5.61s-3.531-35.243-4.213-39.621c-1.4-9.119-7.414-26.895-8.239-37.168s-4.631-30.074-6.512-34.7S285.529,125.317,273.473,125.57Z" transform="translate(-265.522 -125.566)" fill="#8ec8c8"/>
            </g>
          </g>
          <g id="Grupo_54032" data-name="Grupo 54032" transform="translate(90.484 26.612)">
            <g id="Grupo_54031" data-name="Grupo 54031">
              <path id="Trazado_99454" data-name="Trazado 99454" d="M266.1,147.3a1.757,1.757,0,0,0,.022.528c.044.407.11.913.176,1.507.176,1.309.473,3.19.891,5.511.825,4.642,2.156,11.022,3.74,18.04s3.135,13.354,4.323,17.919c.594,2.288,1.089,4.125,1.452,5.39.176.583.319,1.056.429,1.452a1.854,1.854,0,0,0,.187.495,1.91,1.91,0,0,0-.077-.528c-.088-.407-.2-.891-.33-1.485-.319-1.364-.748-3.2-1.276-5.434-1.078-4.675-2.541-10.978-4.158-17.941-1.584-7.018-2.97-13.376-3.894-18-.44-2.244-.8-4.1-1.067-5.478-.11-.594-.209-1.089-.275-1.5A1.943,1.943,0,0,0,266.1,147.3Z" transform="translate(-266.09 -147.3)" fill="#263238"/>
            </g>
          </g>
          <g id="Grupo_54034" data-name="Grupo 54034" transform="translate(81.848 23.123)" opacity="0.3">
            <g id="Grupo_54033" data-name="Grupo 54033">
              <path id="Trazado_99455" data-name="Trazado 99455" d="M265.8,207.984c-2.4-2.409-2.9-6.05-3.278-9.427q-1.8-16.1-3.586-32.2c-.748-6.688-1.452-13.706,1.078-19.954a3.345,3.345,0,0,1,1.914-2.211,2.473,2.473,0,0,1,2.508,1.034c.583.77,2.211,1.87,2.453,2.8,2.442,9.57,3.5,19,5.929,28.567.649,2.53,1.485,2.431.924,4.983-.814,3.7-4.279,14.333-4.279,14.333s.495,3.861.638,6.116a5.824,5.824,0,0,1-4.3,5.951" transform="translate(-258.239 -144.128)"/>
            </g>
          </g>
          <g id="Grupo_54036" data-name="Grupo 54036" transform="translate(91.649 28.998)">
            <g id="Grupo_54035" data-name="Grupo 54035">
              <path id="Trazado_99456" data-name="Trazado 99456" d="M267.15,152.418a3.19,3.19,0,0,0,.825.594,21.317,21.317,0,0,0,2.453,1.32,8.765,8.765,0,0,0,4.081.825,9.87,9.87,0,0,0,4.741-1.87,34,34,0,0,1,4.213-2.651,6.216,6.216,0,0,1,3.839-.627,4.364,4.364,0,0,1,2.343,1.177c.44.462.583.8.627.77a1.894,1.894,0,0,0-.462-.924,4.281,4.281,0,0,0-2.431-1.419,6.349,6.349,0,0,0-4.136.55,30.951,30.951,0,0,0-4.3,2.651,9.837,9.837,0,0,1-4.477,1.826,8.572,8.572,0,0,1-3.894-.682C268.448,153.1,267.194,152.33,267.15,152.418Z" transform="translate(-267.149 -149.469)" fill="#fafafa"/>
            </g>
          </g>
          <g id="Grupo_54038" data-name="Grupo 54038" transform="translate(44.537 29.803)">
            <g id="Grupo_54037" data-name="Grupo 54037">
              <path id="Trazado_99457" data-name="Trazado 99457" d="M224.32,151.19a1.392,1.392,0,0,0,.22.407,6.133,6.133,0,0,0,.825,1.034,9.126,9.126,0,0,0,4.213,2.376,15.061,15.061,0,0,0,7.183.1,72.152,72.152,0,0,0,8.349-2.684,27.7,27.7,0,0,1,15.5-1.045,40.9,40.9,0,0,1,6.2,2.068c.011-.022-.121-.1-.385-.253s-.649-.363-1.166-.6a24.968,24.968,0,0,0-4.565-1.606,26.524,26.524,0,0,0-7.139-.77,27.522,27.522,0,0,0-8.635,1.661,79.234,79.234,0,0,1-8.272,2.717,14.854,14.854,0,0,1-6.963.022,9.4,9.4,0,0,1-4.158-2.156C224.694,151.707,224.364,151.157,224.32,151.19Z" transform="translate(-224.319 -150.2)" fill="#fafafa"/>
            </g>
          </g>
          <g id="Grupo_54040" data-name="Grupo 54040" transform="translate(35.503 25.996)">
            <g id="Grupo_54039" data-name="Grupo 54039">
              <path id="Trazado_99458" data-name="Trazado 99458" d="M216.253,146.74a5.818,5.818,0,0,0-.11,2.266,13.876,13.876,0,0,0,5.016,9.5A5.975,5.975,0,0,0,223.1,159.7a22.118,22.118,0,0,0-1.672-1.485A15.91,15.91,0,0,1,218.2,154a16.163,16.163,0,0,1-1.65-5.038C216.33,147.609,216.352,146.751,216.253,146.74Z" transform="translate(-216.106 -146.74)" fill="#fafafa"/>
            </g>
          </g>
          <g id="Grupo_54042" data-name="Grupo 54042" transform="translate(25.739 17.295)" opacity="0.3">
            <g id="Grupo_54041" data-name="Grupo 54041">
              <path id="Trazado_99459" data-name="Trazado 99459" d="M232.673,138.83c-11.418,11.462-21.241,24.211-25.443,39.841,6.523-2.134,12.694-4.213,16.764-5.907,0,0-1.221-6.435-.484-10.23.913-4.631.9-8.525,9.163-23.7" transform="translate(-207.23 -138.83)"/>
            </g>
          </g>
          <g id="Grupo_54045" data-name="Grupo 54045" transform="translate(15.992 37.879)">
            <g id="Grupo_54044" data-name="Grupo 54044">
              <g id="Grupo_54043" data-name="Grupo 54043">
                <path id="Trazado_99460" data-name="Trazado 99460" d="M202.066,157.551a36.367,36.367,0,0,0-2.277,3.542,33.82,33.82,0,0,0-1.331,3.993,8.551,8.551,0,0,1,3.608-7.535Z" transform="translate(-198.369 -157.542)" fill="#263238"/>
              </g>
            </g>
          </g>
        </g>
      </g>
    </g>
    <g id="Pictures_1" transform="translate(-12769.768 -12096.89)">
      <g id="Grupo_54089" data-name="Grupo 54089" transform="translate(49.565 44.549)">
        <g id="Grupo_54065" data-name="Grupo 54065">
          <g id="Grupo_54064" data-name="Grupo 54064">
            <g id="Grupo_54063" data-name="Grupo 54063">
              <g id="Grupo_54054" data-name="Grupo 54054" transform="translate(0.268 0.227)">
                <g id="Grupo_54053" data-name="Grupo 54053">
                  <g id="Grupo_54052" data-name="Grupo 54052">
                    <g id="Grupo_54051" data-name="Grupo 54051">
                      <g id="Grupo_54050" data-name="Grupo 54050">
                        <g id="Grupo_54049" data-name="Grupo 54049">
                          <g id="Grupo_54048" data-name="Grupo 54048">
                            <rect id="Rectngulo_29338" data-name="Rectngulo 29338" width="66.252" height="82.873" transform="matrix(0.117, -0.993, 0.993, 0.117, 0, 65.795)" fill="#fafafa"/>
                          </g>
                        </g>
                      </g>
                    </g>
                  </g>
                </g>
              </g>
              <g id="Grupo_54062" data-name="Grupo 54062">
                <g id="Grupo_54061" data-name="Grupo 54061">
                  <g id="Grupo_54060" data-name="Grupo 54060">
                    <g id="Grupo_54059" data-name="Grupo 54059">
                      <g id="Grupo_54058" data-name="Grupo 54058">
                        <g id="Grupo_54057" data-name="Grupo 54057">
                          <g id="Grupo_54056" data-name="Grupo 54056">
                            <g id="Grupo_54055" data-name="Grupo 54055">
                              <path id="Trazado_99461" data-name="Trazado 99461" d="M224.462,196.946l-.4-.033c-.275-.033-.66-.066-1.155-.121-1.023-.121-2.53-.286-4.477-.506-3.916-.451-9.625-1.1-16.852-1.936-14.454-1.683-35.012-4.081-59.432-6.919l.242-.187c-2.31,19.58-4.961,42.03-7.755,65.79v.011l-.209-.264c30.47,3.619,58.783,6.985,82.29,9.779l-.22.176c2.387-19.811,4.367-36.222,5.753-47.706.7-5.742,1.254-10.241,1.628-13.332.187-1.529.341-2.706.44-3.52.077-.814.143-1.232.143-1.232s-.033.4-.121,1.177c-.088.8-.22,1.969-.385,3.487-.352,3.08-.869,7.568-1.518,13.3-1.342,11.517-3.245,27.984-5.555,47.86l-.022.2-.2-.022c-23.518-2.772-51.831-6.1-82.3-9.691l-.242-.033.033-.242v-.011c2.816-23.749,5.489-46.2,7.81-65.779l.022-.209.209.022c24.475,2.937,45.066,5.412,59.553,7.15,7.2.88,12.892,1.573,16.8,2.046,1.925.242,3.41.418,4.422.55.484.066.869.11,1.133.143C224.341,196.924,224.462,196.946,224.462,196.946Z" transform="translate(-134.12 -186.98)" fill="#263238"/>
                            </g>
                          </g>
                        </g>
                      </g>
                    </g>
                  </g>
                </g>
              </g>
            </g>
          </g>
        </g>
        <g id="Grupo_54072" data-name="Grupo 54072" transform="translate(3.595 4.705)">
          <g id="Grupo_54071" data-name="Grupo 54071">
            <g id="Grupo_54070" data-name="Grupo 54070">
              <g id="Grupo_54069" data-name="Grupo 54069">
                <g id="Grupo_54068" data-name="Grupo 54068">
                  <g id="Grupo_54067" data-name="Grupo 54067">
                    <g id="Grupo_54066" data-name="Grupo 54066">
                      <rect id="Rectngulo_29339" data-name="Rectngulo 29339" width="57.914" height="77.043" transform="matrix(0.117, -0.993, 0.993, 0.117, 0, 57.515)" fill="#ebebeb"/>
                    </g>
                  </g>
                </g>
              </g>
            </g>
          </g>
        </g>
        <g id="Grupo_54079" data-name="Grupo 54079" transform="translate(3.586 29.634)">
          <g id="Grupo_54078" data-name="Grupo 54078">
            <g id="Grupo_54077" data-name="Grupo 54077">
              <g id="Grupo_54076" data-name="Grupo 54076">
                <g id="Grupo_54075" data-name="Grupo 54075">
                  <g id="Grupo_54074" data-name="Grupo 54074">
                    <g id="Grupo_54073" data-name="Grupo 54073">
                      <path id="Trazado_99462" data-name="Trazado 99462" d="M137.38,246.5l30.954-32.582,13.915,24.321,12.639-10.626,19.008,27.94Z" transform="translate(-137.38 -213.92)" fill="#dbdada"/>
                    </g>
                  </g>
                </g>
              </g>
            </g>
          </g>
        </g>
        <g id="Grupo_54088" data-name="Grupo 54088" transform="translate(46.552 21.264)">
          <g id="Grupo_54087" data-name="Grupo 54087">
            <g id="Grupo_54086" data-name="Grupo 54086">
              <g id="Grupo_54085" data-name="Grupo 54085">
                <g id="Grupo_54084" data-name="Grupo 54084">
                  <g id="Grupo_54083" data-name="Grupo 54083">
                    <g id="Grupo_54082" data-name="Grupo 54082">
                      <g id="Grupo_54081" data-name="Grupo 54081">
                        <g id="Grupo_54080" data-name="Grupo 54080">
                          <path id="Trazado_99463" data-name="Trazado 99463" d="M188.529,213.086a6.064,6.064,0,1,1-5.313-6.732A6.061,6.061,0,0,1,188.529,213.086Z" transform="translate(-176.441 -206.311)" fill="#dbdada"/>
                        </g>
                      </g>
                    </g>
                  </g>
                </g>
              </g>
            </g>
          </g>
        </g>
      </g>
      <g id="Grupo_54100" data-name="Grupo 54100" transform="translate(222.45 0)">
        <g id="Grupo_54095" data-name="Grupo 54095">
          <g id="Grupo_54091" data-name="Grupo 54091" transform="translate(0.286 0.209)">
            <g id="Grupo_54090" data-name="Grupo 54090">
              <path id="Trazado_99464" data-name="Trazado 99464" d="M315.992,225.44H291.55V146.67h24.442" transform="translate(-291.55 -146.67)" fill="#fafafa"/>
            </g>
          </g>
          <g id="Grupo_54094" data-name="Grupo 54094">
            <g id="Grupo_54093" data-name="Grupo 54093">
              <g id="Grupo_54092" data-name="Grupo 54092">
                <path id="Trazado_99465" data-name="Trazado 99465" d="M316.018,146.689a2.189,2.189,0,0,1-.44.033c-.319.011-.748.022-1.276.033-1.166.011-2.8.033-4.895.066-4.279.022-10.384.055-17.831.1l.22-.22c.022,10.714.033,24.453.066,39.379-.022,14.938-.044,28.666-.066,39.39l-.22-.22c7.447.044,13.552.077,17.831.1,2.09.022,3.729.044,4.895.066.528.011.957.022,1.276.033a2.328,2.328,0,0,1,.44.033,2.188,2.188,0,0,1-.44.033c-.319.011-.748.022-1.276.033-1.166.011-2.8.033-4.895.066-4.279.022-10.384.055-17.831.1h-.22v-.231c-.022-10.714-.033-24.453-.066-39.39.022-14.927.044-28.666.066-39.379v-.231h.22c7.447.044,13.552.077,17.831.1,2.09.022,3.729.044,4.895.066.528.011.957.022,1.276.033A1.645,1.645,0,0,1,316.018,146.689Z" transform="translate(-291.29 -146.48)" fill="#263238"/>
              </g>
            </g>
          </g>
        </g>
        <g id="Grupo_54097" data-name="Grupo 54097" transform="translate(4.334 4.444)">
          <g id="Grupo_54096" data-name="Grupo 54096">
            <path id="Trazado_99466" data-name="Trazado 99466" d="M315.624,219.786l-20.394.3V150.817l20.394-.3Z" transform="translate(-295.23 -150.52)" fill="#ebebeb"/>
          </g>
        </g>
        <g id="Grupo_54099" data-name="Grupo 54099" transform="translate(4.488 46.034)">
          <g id="Grupo_54098" data-name="Grupo 54098">
            <path id="Trazado_99467" data-name="Trazado 99467" d="M295.37,216.094l20.24.209.132-27.973Z" transform="translate(-295.37 -188.33)" fill="#dbdada"/>
          </g>
        </g>
      </g>
      <g id="Grupo_54142" data-name="Grupo 54142" transform="translate(0 133.318)">
        <g id="Grupo_54118" data-name="Grupo 54118">
          <g id="Grupo_54117" data-name="Grupo 54117">
            <g id="Grupo_54116" data-name="Grupo 54116">
              <g id="Grupo_54107" data-name="Grupo 54107" transform="translate(0.205 0.02)">
                <g id="Grupo_54106" data-name="Grupo 54106">
                  <g id="Grupo_54105" data-name="Grupo 54105">
                    <g id="Grupo_54104" data-name="Grupo 54104">
                      <g id="Grupo_54103" data-name="Grupo 54103">
                        <g id="Grupo_54102" data-name="Grupo 54102">
                          <g id="Grupo_54101" data-name="Grupo 54101">
                            <rect id="Rectngulo_29340" data-name="Rectngulo 29340" width="70.157" height="56.088" transform="matrix(0.996, -0.089, 0.089, 0.996, 0, 6.23)" fill="#fafafa"/>
                          </g>
                        </g>
                      </g>
                    </g>
                  </g>
                </g>
              </g>
              <g id="Grupo_54115" data-name="Grupo 54115">
                <g id="Grupo_54114" data-name="Grupo 54114">
                  <g id="Grupo_54113" data-name="Grupo 54113">
                    <g id="Grupo_54112" data-name="Grupo 54112">
                      <g id="Grupo_54111" data-name="Grupo 54111">
                        <g id="Grupo_54110" data-name="Grupo 54110">
                          <g id="Grupo_54109" data-name="Grupo 54109">
                            <g id="Grupo_54108" data-name="Grupo 54108">
                              <path id="Trazado_99468" data-name="Trazado 99468" d="M159.14,267.68s-.121.022-.341.044-.55.055-.979.1c-.869.088-2.145.2-3.795.363-3.322.308-8.162.759-14.3,1.32-12.276,1.111-29.722,2.706-50.456,4.587l.165-.2c1.485,16.632,3.19,35.694,5,55.857v.011l-.22-.187c25.872-2.288,49.917-4.422,69.882-6.193l-.154.187c-1.463-16.83-2.673-30.778-3.52-40.534-.418-4.884-.737-8.712-.968-11.33-.11-1.3-.187-2.3-.242-2.992-.066-.671-.077-1.034-.077-1.034s.044.33.11,1,.154,1.672.286,2.959c.242,2.607.594,6.424,1.045,11.286.891,9.779,2.167,23.76,3.707,40.622l.011.165-.165.011c-19.965,1.793-44.01,3.949-69.882,6.259l-.2.022-.022-.2V329.8c-1.793-20.174-3.487-39.236-4.961-55.868l-.011-.187.176-.011c20.79-1.815,38.279-3.344,50.588-4.422,6.127-.528,10.956-.935,14.267-1.221,1.639-.132,2.9-.242,3.762-.319.418-.033.737-.055.957-.077C159.03,267.691,159.14,267.68,159.14,267.68Z" transform="translate(-89.06 -267.68)" fill="#263238"/>
                            </g>
                          </g>
                        </g>
                      </g>
                    </g>
                  </g>
                </g>
              </g>
            </g>
          </g>
        </g>
        <g id="Grupo_54125" data-name="Grupo 54125" transform="translate(2.928 3.756)">
          <g id="Grupo_54124" data-name="Grupo 54124">
            <g id="Grupo_54123" data-name="Grupo 54123">
              <g id="Grupo_54122" data-name="Grupo 54122">
                <g id="Grupo_54121" data-name="Grupo 54121">
                  <g id="Grupo_54120" data-name="Grupo 54120">
                    <g id="Grupo_54119" data-name="Grupo 54119">
                      <rect id="Rectngulo_29341" data-name="Rectngulo 29341" width="65.229" height="49.026" transform="matrix(0.996, -0.089, 0.089, 0.996, 0, 5.792)" fill="#ebebeb"/>
                    </g>
                  </g>
                </g>
              </g>
            </g>
          </g>
        </g>
        <g id="Grupo_54132" data-name="Grupo 54132" transform="translate(7.271 25.993)">
          <g id="Grupo_54131" data-name="Grupo 54131">
            <g id="Grupo_54130" data-name="Grupo 54130">
              <g id="Grupo_54129" data-name="Grupo 54129">
                <g id="Grupo_54128" data-name="Grupo 54128">
                  <g id="Grupo_54127" data-name="Grupo 54127">
                    <g id="Grupo_54126" data-name="Grupo 54126">
                      <path id="Trazado_99469" data-name="Trazado 99469" d="M95.67,323.694l19.987-32.384,15.752,17.743,8.624-11.011,20.6,19.855Z" transform="translate(-95.67 -291.31)" fill="#dbdada"/>
                    </g>
                  </g>
                </g>
              </g>
            </g>
          </g>
        </g>
        <g id="Grupo_54141" data-name="Grupo 54141" transform="translate(36.686 15.808)">
          <g id="Grupo_54140" data-name="Grupo 54140">
            <g id="Grupo_54139" data-name="Grupo 54139">
              <g id="Grupo_54138" data-name="Grupo 54138">
                <g id="Grupo_54137" data-name="Grupo 54137">
                  <g id="Grupo_54136" data-name="Grupo 54136">
                    <g id="Grupo_54135" data-name="Grupo 54135">
                      <g id="Grupo_54134" data-name="Grupo 54134">
                        <g id="Grupo_54133" data-name="Grupo 54133">
                          <path id="Trazado_99470" data-name="Trazado 99470" d="M132.673,286.736a5.141,5.141,0,1,1-5.577-4.664A5.142,5.142,0,0,1,132.673,286.736Z" transform="translate(-122.411 -282.051)" fill="#dbdada"/>
                        </g>
                      </g>
                    </g>
                  </g>
                </g>
              </g>
            </g>
          </g>
        </g>
      </g>
    </g>
  </g>
</svg>
