<svg xmlns="http://www.w3.org/2000/svg" width="67" height="59.183" viewBox="0 0 67 59.183">
  <g id="Grupo_1101895" data-name="Grupo 1101895" transform="translate(-180 -4526.837)">
    <g id="Grupo_1100081" data-name="Grupo 1100081" transform="translate(0 776.686)">
      <path id="_12068" data-name="12068" d="M66.039,71.828c-6.861-.947-14.108-.716-20.351,2.283C37.03,78.27,31.344,87.7,31.126,97.3s4.784,19.038,12.512,24.741a35.81,35.81,0,0,0,27.37,6.013c9.53-1.727,18.474-7.326,23.445-15.638,3.187-5.33,4.677-11.911,2.916-17.867a24.409,24.409,0,0,0-5.793-9.521A42.8,42.8,0,0,0,66.039,71.828Z" transform="translate(148.881 3680.691)" fill="#26aab7"/>
      <path id="Trazado_873155" data-name="Trazado 873155" d="M303.26,44.546a1.582,1.582,0,1,0-.106-2.456A1.573,1.573,0,0,0,303.26,44.546Z" transform="translate(138.287 4055.916) rotate(-90)" fill="#7d6eb2"/>
      <path id="Trazado_873156" data-name="Trazado 873156" d="M321.56,66.974a3.448,3.448,0,1,0-1.687-4.918A3.468,3.468,0,0,0,321.56,66.974Z" transform="translate(128.241 4079.581) rotate(-90)" fill="#ffd947"/>
      <circle id="Elipse_11521" data-name="Elipse 11521" cx="3.689" cy="3.689" r="3.689" transform="translate(237.702 3796.368) rotate(-90)" fill="none" stroke="#fff" stroke-linecap="round" stroke-linejoin="round" stroke-width="1.5"/>
    </g>
    <g id="solucion" transform="translate(190.218 4534.512)">
      <g id="Grupo_1100096" data-name="Grupo 1100096" transform="translate(30.995 0.64)">
        <path id="Trazado_876692" data-name="Trazado 876692" d="M366.281,15.676a2.153,2.153,0,0,1-1.789-.608.8.8,0,0,0-.558-.238h-.082a.774.774,0,0,0-.774.774v3.969h3.969a.774.774,0,0,1,.774.774v.082a.8.8,0,0,1-.238.558,2.156,2.156,0,1,0,3.06,0,.79.79,0,0,1-.235-.555v-.083a.774.774,0,0,1,.774-.774h3.969V8.362a.862.862,0,0,0-.862-.862h-11.21v3.969a.774.774,0,0,0,.774.774h.083a.789.789,0,0,0,.555-.235,2.156,2.156,0,1,1,1.792,3.668Z" transform="translate(-363.077 -7.5)" fill="#aee6e6"/>
      </g>
      <g id="Grupo_1100097" data-name="Grupo 1100097" transform="translate(25.907 30.995)">
        <path id="Trazado_876693" data-name="Trazado 876693" d="M312.464,366.281a2.153,2.153,0,0,1,.608-1.789.8.8,0,0,0,.238-.558v-.082a.774.774,0,0,0-.774-.774h-3.969v3.969a.774.774,0,0,1-.774.774h-.082a.8.8,0,0,1-.558-.238,2.156,2.156,0,1,0,0,3.06.79.79,0,0,1,.555-.235h.857v4.743h11.211a.862.862,0,0,0,.862-.862v-11.21h-3.969a.774.774,0,0,0-.774.774v.083a.789.789,0,0,0,.235.555,2.156,2.156,0,1,1-3.668,1.792Z" transform="translate(-303.479 -363.077)" fill="#59836b"/>
      </g>
      <g id="Grupo_1100098" data-name="Grupo 1100098" transform="translate(40.049 0.64)">
        <path id="Trazado_876694" data-name="Trazado 876694" d="M471.3,7.5h-2.156a.862.862,0,0,1,.862.862v11.21h2.156V8.362A.862.862,0,0,0,471.3,7.5Z" transform="translate(-469.144 -7.5)" fill="#26aab7"/>
      </g>
      <g id="Grupo_1100099" data-name="Grupo 1100099" transform="translate(40.049 30.995)">
        <path id="Trazado_876695" data-name="Trazado 876695" d="M470.006,363.077v11.211a.862.862,0,0,1-.862.862H471.3a.862.862,0,0,0,.862-.862v-11.21Z" transform="translate(-469.144 -363.077)" fill="#4e6f5c"/>
      </g>
      <g id="Grupo_1100100" data-name="Grupo 1100100" transform="translate(0.64 25.907)">
        <path id="Trazado_876696" data-name="Trazado 876696" d="M16.369,312.462a2.153,2.153,0,0,1,1.789.608.8.8,0,0,0,.558.238H18.8a.774.774,0,0,0,.774-.774v-3.969H15.6a.774.774,0,0,1-.774-.774v-.082a.8.8,0,0,1,.238-.558,2.156,2.156,0,1,0-3.06,0,.79.79,0,0,1,.235.555v.083a.774.774,0,0,1-.774.774H7.5v11.211a.862.862,0,0,0,.862.862h11.21v-3.969a.774.774,0,0,0-.774-.774h-.083a.789.789,0,0,0-.555.235,2.156,2.156,0,1,1-1.792-3.668Z" transform="translate(-7.5 -303.477)" fill="#ffd947"/>
      </g>
      <g id="Grupo_1100101" data-name="Grupo 1100101" transform="translate(10.638 30.995)">
        <path id="Trazado_876697" data-name="Trazado 876697" d="M124.62,363.077v3.969a.775.775,0,0,1-.006.089,2.158,2.158,0,0,1,.664.45.788.788,0,0,0,.555.234h.082a.774.774,0,0,0,.774-.774v-3.969Z" transform="translate(-124.614 -363.077)" fill="#deac2f"/>
      </g>
      <g id="Grupo_1100102" data-name="Grupo 1100102" transform="translate(10.643 38.325)">
        <path id="Trazado_876698" data-name="Trazado 876698" d="M125.337,449.175a2.16,2.16,0,0,1-.658.448v4.06h2.07v-3.969a.774.774,0,0,0-.774-.774h-.083A.788.788,0,0,0,125.337,449.175Z" transform="translate(-124.679 -448.941)" fill="#deac2f"/>
      </g>
      <g id="Grupo_1100103" data-name="Grupo 1100103" transform="translate(0.64 0.64)">
        <path id="Trazado_876699" data-name="Trazado 876699" d="M15.676,16.369a2.153,2.153,0,0,1-.608,1.789.8.8,0,0,0-.238.558V18.8a.774.774,0,0,0,.774.774h3.969V15.6a.774.774,0,0,1,.774-.774h.082a.8.8,0,0,1,.558.238,2.156,2.156,0,1,0,0-3.06.79.79,0,0,1-.555.235h-.083a.774.774,0,0,1-.774-.774V7.5H8.362a.862.862,0,0,0-.862.862v11.21h3.969a.774.774,0,0,0,.774-.774v-.083a.789.789,0,0,0-.235-.555,2.156,2.156,0,1,1,3.668-1.792Z" transform="translate(-7.5 -7.5)" fill="#e28086"/>
      </g>
      <g id="Grupo_1100104" data-name="Grupo 1100104" transform="translate(10.643 0.64)">
        <path id="Trazado_876700" data-name="Trazado 876700" d="M125.452,12.243h.083a.789.789,0,0,0,.555-.235,2.159,2.159,0,0,1,.663-.449.786.786,0,0,1-.006-.089V7.5h-2.07v3.969A.774.774,0,0,0,125.452,12.243Z" transform="translate(-124.678 -7.5)" fill="#dd636e"/>
      </g>
      <g id="Grupo_1100105" data-name="Grupo 1100105" transform="translate(10.643 7.97)">
        <path id="Trazado_876701" data-name="Trazado 876701" d="M126.093,93.6a.8.8,0,0,0-.558-.238h-.082a.774.774,0,0,0-.774.774v3.969h2.07V94.138a.77.77,0,0,1,.006-.089A2.16,2.16,0,0,1,126.093,93.6Z" transform="translate(-124.679 -93.364)" fill="#dd636e"/>
      </g>
      <g id="Grupo_1100106" data-name="Grupo 1100106" transform="translate(14.609 4.521)">
        <path id="Trazado_876702" data-name="Trazado 876702" d="M172.17,52.957a2.146,2.146,0,0,0-1.035.265,2.154,2.154,0,0,1,0,3.782,2.156,2.156,0,1,0,1.036-4.047Z" transform="translate(-171.134 -52.957)" fill="#dd636e"/>
      </g>
      <g id="Grupo_1100112" data-name="Grupo 1100112" transform="translate(0 0)">
        <g id="Grupo_1100110" data-name="Grupo 1100110" transform="translate(12.719 12.184)">
          <g id="Grupo_1100107" data-name="Grupo 1100107">
            <path id="Trazado_876703" data-name="Trazado 876703" d="M165.06,152.4a7,7,0,0,0-.046-.806.91.91,0,0,1,.443-.9l1.349-.779a.912.912,0,0,0,.334-1.246l-1.277-2.212a.912.912,0,0,0-1.246-.334l-1.35.779a.911.911,0,0,1-1-.066,6.916,6.916,0,0,0-1.387-.8.92.92,0,0,1-.562-.842v-1.552a.912.912,0,0,0-.912-.912H156.85a.912.912,0,0,0-.912.912v1.552a.92.92,0,0,1-.562.842,6.924,6.924,0,0,0-1.387.8.911.911,0,0,1-1,.066l-1.35-.779a.912.912,0,0,0-1.246.334l-1.277,2.212a.912.912,0,0,0,.334,1.246l1.349.779a.909.909,0,0,1,.443.9,7.027,7.027,0,0,0,0,1.613.91.91,0,0,1-.443.9l-1.349.779a.912.912,0,0,0-.334,1.246l1.277,2.212a.912.912,0,0,0,1.246.334l1.35-.779a.911.911,0,0,1,1,.066,6.916,6.916,0,0,0,1.387.8.92.92,0,0,1,.562.842v1.552a.912.912,0,0,0,.912.912H159.4a.912.912,0,0,0,.912-.912v-1.552a.92.92,0,0,1,.562-.842,6.925,6.925,0,0,0,1.387-.8.911.911,0,0,1,1-.066l1.35.779a.912.912,0,0,0,1.246-.334l1.277-2.212a.912.912,0,0,0-.334-1.246l-1.349-.779a.909.909,0,0,1-.443-.9A6.984,6.984,0,0,0,165.06,152.4Zm-6.933,1.763a1.763,1.763,0,1,1,1.763-1.763A1.763,1.763,0,0,1,158.127,154.162Z" transform="translate(-148.992 -142.73)" fill="#a0aab7"/>
          </g>
          <g id="Grupo_1100108" data-name="Grupo 1100108" transform="translate(4.823 5.358)">
            <path id="Trazado_876704" data-name="Trazado 876704" d="M209.8,205.492a4.312,4.312,0,1,0,4.312,4.312A4.312,4.312,0,0,0,209.8,205.492Zm0,5.978a1.666,1.666,0,1,1,1.666-1.666A1.666,1.666,0,0,1,209.8,211.47Z" transform="translate(-205.492 -205.492)" fill="#dfeaef"/>
          </g>
          <g id="Grupo_1100109" data-name="Grupo 1100109" transform="translate(6.819 3.273)">
            <path id="Trazado_876705" data-name="Trazado 876705" d="M239.867,189.953l-1.349-.779a.909.909,0,0,1-.443-.9,7.025,7.025,0,0,0,0-1.613.91.91,0,0,1,.443-.9l1.349-.779a.912.912,0,0,0,.334-1.246l-1.277-2.212a.912.912,0,0,0-1.193-.361,10.646,10.646,0,0,1-8.858,13.047.9.9,0,0,1,.127.46v1.552a.912.912,0,0,0,.912.912h2.554a.912.912,0,0,0,.912-.912v-1.552a.92.92,0,0,1,.562-.842,6.925,6.925,0,0,0,1.387-.8.911.911,0,0,1,1-.066l1.35.779a.912.912,0,0,0,1.246-.334L240.2,191.2a.912.912,0,0,0-.334-1.246Z" transform="translate(-228.872 -181.074)" fill="#808b95"/>
          </g>
        </g>
        <g id="Grupo_1100111" data-name="Grupo 1100111" transform="translate(0)">
          <path id="Trazado_876706" data-name="Trazado 876706" d="M367.428,0h-2.965a.64.64,0,1,0,0,1.281h2.965a.222.222,0,0,1,.222.222v10.57h-3.329a1.416,1.416,0,0,0-1.414,1.414v.083a1.423,1.423,0,0,0,.422,1.007,1.516,1.516,0,1,1-2.151,0,1.429,1.429,0,0,0,.423-1.009v-.082a1.416,1.416,0,0,0-1.414-1.414h-3.329V8.744a.134.134,0,0,1,.134-.134h.082a.161.161,0,0,1,.107.052,2.8,2.8,0,1,0,0-3.969.156.156,0,0,1-.1.049h-.083a.134.134,0,0,1-.134-.134V1.281h4.614a.64.64,0,1,0,0-1.281h-5.254a.64.64,0,0,0-.64.64V4.609a1.416,1.416,0,0,0,1.414,1.414h.083a1.423,1.423,0,0,0,1.007-.422,1.516,1.516,0,1,1,0,2.151,1.429,1.429,0,0,0-1.009-.423h-.082a1.416,1.416,0,0,0-1.414,1.414v3.969a.64.64,0,0,0,.64.64h3.969a.134.134,0,0,1,.134.134v.082a.161.161,0,0,1-.052.107,2.8,2.8,0,0,0,1.67,4.747,2.8,2.8,0,0,0,3.112-2.779,2.778,2.778,0,0,0-.813-1.971.156.156,0,0,1-.049-.1v-.083a.134.134,0,0,1,.134-.134h3.969a.64.64,0,0,0,.64-.64V1.5a1.5,1.5,0,0,0-1.5-1.5Z" transform="translate(-325.222 0)" fill="#00223d"/>
          <path id="Trazado_876707" data-name="Trazado 876707" d="M313.783,355.577h-3.969a1.416,1.416,0,0,0-1.414,1.414v.083a1.423,1.423,0,0,0,.422,1.007,1.516,1.516,0,1,1-2.151,0,1.428,1.428,0,0,0,.423-1.009v-.082a1.416,1.416,0,0,0-1.414-1.414H301.71a.64.64,0,0,0-.64.64v3.969a.134.134,0,0,1-.134.134h-.082a.161.161,0,0,1-.107-.052,2.8,2.8,0,1,0,0,3.969.156.156,0,0,1,.1-.049h.217v4.1a.64.64,0,0,0,.64.64h11.21a1.5,1.5,0,0,0,1.5-1.5V356.217a.64.64,0,0,0-.64-.64Zm-.64,11.851a.222.222,0,0,1-.222.222H302.35v-4.1a.64.64,0,0,0-.64-.64h-.857a1.423,1.423,0,0,0-1.007.422,1.516,1.516,0,1,1,0-2.151,1.429,1.429,0,0,0,1.009.423h.082a1.416,1.416,0,0,0,1.414-1.414v-3.329h3.329a.134.134,0,0,1,.134.134v.082a.161.161,0,0,1-.052.107,2.8,2.8,0,1,0,3.969,0,.156.156,0,0,1-.049-.1v-.083a.134.134,0,0,1,.134-.134h3.329Z" transform="translate(-270.715 -325.222)" fill="#00223d"/>
          <path id="Trazado_876708" data-name="Trazado 876708" d="M12.713,301.069H8.744a.134.134,0,0,1-.134-.134v-.082a.161.161,0,0,1,.052-.107,2.8,2.8,0,1,0-3.969,0,.156.156,0,0,1,.049.1v.083a.134.134,0,0,1-.134.134H.64a.64.64,0,0,0-.64.64V312.92a1.5,1.5,0,0,0,1.5,1.5H2.925a.64.64,0,0,0,0-1.281H1.5a.222.222,0,0,1-.222-.222v-10.57H4.609a1.416,1.416,0,0,0,1.414-1.414v-.083a1.422,1.422,0,0,0-.422-1.007,1.516,1.516,0,1,1,2.151,0,1.429,1.429,0,0,0-.423,1.009v.082a1.416,1.416,0,0,0,1.414,1.414h3.329v3.328a.134.134,0,0,1-.134.134h-.082a.161.161,0,0,1-.107-.052,2.8,2.8,0,1,0,0,3.969.156.156,0,0,1,.1-.049h.082a.134.134,0,0,1,.134.134v3.328H5.915a.64.64,0,0,0,0,1.281h6.8a.64.64,0,0,0,.64-.64v-3.969a1.416,1.416,0,0,0-1.415-1.415h-.082a1.423,1.423,0,0,0-1.007.422,1.516,1.516,0,1,1,0-2.151,1.428,1.428,0,0,0,1.009.423h.082a1.416,1.416,0,0,0,1.415-1.415v-3.969A.64.64,0,0,0,12.713,301.069Z" transform="translate(0 -270.714)" fill="#00223d"/>
          <path id="Trazado_876709" data-name="Trazado 876709" d="M.64,13.353H4.609a1.416,1.416,0,0,0,1.414-1.414v-.083A1.422,1.422,0,0,0,5.6,10.85a1.516,1.516,0,1,1,2.151,0,1.429,1.429,0,0,0-.423,1.009v.082a1.416,1.416,0,0,0,1.414,1.414h3.969a.64.64,0,0,0,.64-.64V8.744a.134.134,0,0,1,.134-.134h.082a.161.161,0,0,1,.107.052,2.8,2.8,0,1,0,0-3.969.156.156,0,0,1-.1.049h-.083a.134.134,0,0,1-.134-.134V.64a.64.64,0,0,0-.64-.64H1.5A1.5,1.5,0,0,0,0,1.5v11.21a.64.64,0,0,0,.64.64ZM1.28,1.5A.222.222,0,0,1,1.5,1.28h10.57V4.609a1.416,1.416,0,0,0,1.414,1.414h.083A1.422,1.422,0,0,0,14.577,5.6a1.516,1.516,0,1,1,0,2.151,1.429,1.429,0,0,0-1.009-.423h-.082a1.416,1.416,0,0,0-1.414,1.414v3.329H8.744a.134.134,0,0,1-.134-.134v-.082a.161.161,0,0,1,.052-.107,2.8,2.8,0,1,0-3.969,0,.156.156,0,0,1,.049.1v.083a.134.134,0,0,1-.134.134H1.28Z" transform="translate(0 0)" fill="#00223d"/>
          <path id="Trazado_876710" data-name="Trazado 876710" d="M231.927,73h.512a.64.64,0,1,0,0-1.281h-.512a.64.64,0,0,0,0,1.281Z" transform="translate(-211.543 -65.599)" fill="#00223d"/>
          <path id="Trazado_876711" data-name="Trazado 876711" d="M271.483,73h1.273a.64.64,0,1,0,0-1.281h-1.273a.64.64,0,1,0,0,1.281Z" transform="translate(-247.722 -65.599)" fill="#00223d"/>
          <path id="Trazado_876712" data-name="Trazado 876712" d="M319.953,73h.512a.64.64,0,1,0,0-1.281h-.512a.64.64,0,0,0,0,1.281Z" transform="translate(-292.054 -65.599)" fill="#00223d"/>
          <path id="Trazado_876713" data-name="Trazado 876713" d="M425.918,233.08a.64.64,0,0,0,.64-.64v-.512a.64.64,0,0,0-1.281,0v.512A.64.64,0,0,0,425.918,233.08Z" transform="translate(-388.973 -211.543)" fill="#00223d"/>
          <path id="Trazado_876714" data-name="Trazado 876714" d="M425.278,272.756a.64.64,0,1,0,1.281,0v-1.273a.64.64,0,1,0-1.281,0Z" transform="translate(-388.973 -247.722)" fill="#00223d"/>
          <path id="Trazado_876715" data-name="Trazado 876715" d="M425.278,320.465a.64.64,0,1,0,1.281,0v-.512a.64.64,0,0,0-1.281,0Z" transform="translate(-388.973 -292.054)" fill="#00223d"/>
          <path id="Trazado_876716" data-name="Trazado 876716" d="M260.865,425.278h-.512a.64.64,0,0,0,0,1.281h.512a.64.64,0,0,0,0-1.281Z" transform="translate(-237.542 -388.973)" fill="#00223d"/>
          <path id="Trazado_876717" data-name="Trazado 876717" d="M213.156,425.278h-1.273a.64.64,0,0,0,0,1.281h1.273a.64.64,0,0,0,0-1.281Z" transform="translate(-193.21 -388.973)" fill="#00223d"/>
          <path id="Trazado_876718" data-name="Trazado 876718" d="M172.839,425.278h-.512a.64.64,0,0,0,0,1.281h.512a.64.64,0,0,0,0-1.281Z" transform="translate(-157.031 -388.973)" fill="#00223d"/>
          <path id="Trazado_876719" data-name="Trazado 876719" d="M72.362,259.713a.64.64,0,0,0-.64.64v.512a.64.64,0,0,0,1.281,0v-.512A.64.64,0,0,0,72.362,259.713Z" transform="translate(-65.599 -237.542)" fill="#00223d"/>
          <path id="Trazado_876720" data-name="Trazado 876720" d="M73,211.883a.64.64,0,1,0-1.281,0v1.273a.64.64,0,1,0,1.281,0Z" transform="translate(-65.599 -193.21)" fill="#00223d"/>
          <path id="Trazado_876721" data-name="Trazado 876721" d="M73,172.327a.64.64,0,0,0-1.281,0v.512a.64.64,0,1,0,1.281,0Z" transform="translate(-65.599 -157.031)" fill="#00223d"/>
          <path id="Trazado_876722" data-name="Trazado 876722" d="M156.082,151.588l1.35.779a1.553,1.553,0,0,0,2.121-.568l1.277-2.212a1.552,1.552,0,0,0-.568-2.121l-1.349-.779a.271.271,0,0,1-.127-.269,7.663,7.663,0,0,0,0-1.76.271.271,0,0,1,.127-.269l1.349-.779a1.552,1.552,0,0,0,.568-2.121l-1.277-2.212a1.553,1.553,0,0,0-2.121-.568l-1.35.779a.272.272,0,0,1-.3-.025,7.574,7.574,0,0,0-1.516-.877.282.282,0,0,1-.176-.254v-1.552a1.554,1.554,0,0,0-1.552-1.552h-2.554a1.554,1.554,0,0,0-1.552,1.552v1.552a.282.282,0,0,1-.176.254,7.571,7.571,0,0,0-1.516.877.273.273,0,0,1-.3.025l-1.35-.779a1.553,1.553,0,0,0-2.121.568l-1.277,2.212a1.552,1.552,0,0,0,.568,2.121l1.349.779a.271.271,0,0,1,.127.269,7.663,7.663,0,0,0,0,1.76.271.271,0,0,1-.127.269l-1.349.779a1.552,1.552,0,0,0-.568,2.121l1.277,2.212a1.553,1.553,0,0,0,2.121.568l1.35-.779a.272.272,0,0,1,.3.025,7.576,7.576,0,0,0,1.516.877.282.282,0,0,1,.176.254V154.3a1.554,1.554,0,0,0,1.552,1.552h2.554a1.554,1.554,0,0,0,1.552-1.552v-1.552a.282.282,0,0,1,.176-.254,7.572,7.572,0,0,0,1.516-.877A.273.273,0,0,1,156.082,151.588Zm-2.323-.274a1.561,1.561,0,0,0-.948,1.43V154.3a.272.272,0,0,1-.272.272h-2.554a.272.272,0,0,1-.272-.272v-1.552a1.561,1.561,0,0,0-.948-1.43,6.291,6.291,0,0,1-1.259-.728,1.566,1.566,0,0,0-.936-.312,1.533,1.533,0,0,0-.767.205l-1.35.779a.272.272,0,0,1-.372-.1l-1.277-2.212a.272.272,0,0,1,.1-.372l1.349-.779a1.55,1.55,0,0,0,.759-1.525,6.386,6.386,0,0,1,0-1.465,1.55,1.55,0,0,0-.759-1.525L142.9,142.5a.272.272,0,0,1-.1-.372l1.277-2.212a.272.272,0,0,1,.372-.1l1.35.779a1.551,1.551,0,0,0,1.7-.107,6.294,6.294,0,0,1,1.259-.728,1.561,1.561,0,0,0,.948-1.43v-1.552a.272.272,0,0,1,.272-.272h2.554a.272.272,0,0,1,.272.272v1.552a1.561,1.561,0,0,0,.948,1.43,6.294,6.294,0,0,1,1.259.728,1.551,1.551,0,0,0,1.7.107l1.35-.779a.272.272,0,0,1,.372.1l1.277,2.212a.272.272,0,0,1-.1.372l-1.349.779a1.55,1.55,0,0,0-.759,1.525,6.386,6.386,0,0,1,0,1.465,1.551,1.551,0,0,0,.759,1.525l1.349.779a.272.272,0,0,1,.1.372l-1.277,2.212a.272.272,0,0,1-.372.1l-1.35-.779a1.551,1.551,0,0,0-1.7.107A6.3,6.3,0,0,1,153.759,151.314Z" transform="translate(-129.408 -123.684)" fill="#00223d"/>
          <path id="Trazado_876723" data-name="Trazado 876723" d="M231.287,228.98a2.307,2.307,0,1,0,2.307,2.307A2.309,2.309,0,0,0,231.287,228.98Zm0,3.333a1.026,1.026,0,1,1,1.026-1.026A1.027,1.027,0,0,1,231.287,232.313Z" transform="translate(-209.433 -209.433)" fill="#00223d"/>
          <path id="Trazado_876724" data-name="Trazado 876724" d="M202.944,197.992a4.952,4.952,0,1,0,4.952,4.952A4.958,4.958,0,0,0,202.944,197.992Zm0,8.623a3.671,3.671,0,1,1,3.671-3.671A3.676,3.676,0,0,1,202.944,206.615Z" transform="translate(-181.09 -181.09)" fill="#00223d"/>
        </g>
      </g>
    </g>
  </g>
</svg>
