<svg xmlns="http://www.w3.org/2000/svg" width="103.429" height="84.947" viewBox="0 0 103.429 84.947">
  <g id="Grupo_1100083" data-name="Grupo 1100083" transform="translate(0 0)">
    <g id="Grupo_1100032" data-name="Grupo 1100032" transform="translate(0)">
      <path id="_12068" data-name="12068" d="M80.679,72.036c-9.737-1.345-20.023-1.016-28.883,3.24-12.288,5.9-20.358,19.283-20.667,32.911s6.79,27.019,17.758,35.114,25.432,10.964,38.845,8.534c13.525-2.451,26.22-10.4,33.274-22.194,4.524-7.564,6.638-16.905,4.139-25.358a34.642,34.642,0,0,0-8.221-13.513A60.743,60.743,0,0,0,80.679,72.036Z" transform="translate(-27.626 -67.724)" fill="#7d6eb2"/>
      <g id="Grupo_1099025" data-name="Grupo 1099025" transform="translate(0 75.838) rotate(-90)">
        <path id="Trazado_873104" data-name="Trazado 873104" d="M.44,1.927A1.116,1.116,0,0,0,1.9,1.762,1.116,1.116,0,0,0,1.836.3,1.116,1.116,0,0,0,.368.256,1.07,1.07,0,0,0,.44,1.927Z" transform="translate(14.579 87.471)" fill="#fff"/>
        <path id="Trazado_873105" data-name="Trazado 873105" d="M.44,1.927A1.116,1.116,0,0,0,1.9,1.763,1.116,1.116,0,0,0,1.836.3,1.116,1.116,0,0,0,.368.256,1.07,1.07,0,0,0,.44,1.927Z" transform="translate(35.875 92.048)" fill="#ffd947"/>
        <path id="Trazado_873106" data-name="Trazado 873106" d="M.44,1.927A1.116,1.116,0,0,0,1.9,1.763,1.116,1.116,0,0,0,1.836.3,1.117,1.117,0,0,0,.368.256,1.07,1.07,0,0,0,.44,1.927Z" transform="translate(73.694)" fill="#7d6eb2"/>
        <path id="Trazado_873109" data-name="Trazado 873109" d="M1.449,4.5A2.434,2.434,0,0,0,4.464,3.306,2.435,2.435,0,0,0,3.412.24,2.435,2.435,0,0,0,.3,1.151,2.36,2.36,0,0,0,1.449,4.5Z" transform="translate(61.04 86.208)" fill="#7d6eb2"/>
        <path id="Trazado_873110" data-name="Trazado 873110" d="M1.449,4.5A2.434,2.434,0,0,0,4.464,3.306,2.435,2.435,0,0,0,3.412.241,2.434,2.434,0,0,0,.3,1.151,2.36,2.36,0,0,0,1.449,4.5Z" transform="translate(44.433 98.775)" fill="#ffd947"/>
        <path id="Trazado_873111" data-name="Trazado 873111" d="M1.449,4.5A2.434,2.434,0,0,0,4.463,3.306,2.434,2.434,0,0,0,3.412.241,2.434,2.434,0,0,0,.3,1.151,2.36,2.36,0,0,0,1.449,4.5Z" transform="translate(0 27.812)" fill="#ffd947"/>
        <path id="Trazado_873113" data-name="Trazado 873113" d="M1.449,4.5A2.435,2.435,0,0,0,4.464,3.306,2.435,2.435,0,0,0,3.412.24,2.435,2.435,0,0,0,.3,1.151,2.36,2.36,0,0,0,1.449,4.5Z" transform="translate(69.035 5.856)" fill="#ffd947"/>
        <circle id="Elipse_11485" data-name="Elipse 11485" cx="1.149" cy="1.149" r="1.149" transform="translate(5.274 93.025)" fill="none" stroke="#26aab7" stroke-linecap="round" stroke-linejoin="round" stroke-width="1.5"/>
      </g>
    </g>
    <g id="XMLID_1215_" transform="translate(18.657 9)">
      <path id="XMLID_3115_" d="M18.261,89.787a4.567,4.567,0,1,0-6.392,6.392,5.949,5.949,0,1,0,6.392-6.392Z" transform="translate(-8.815 -77.286)" fill="#cbe558"/>
      <path id="XMLID_3114_" d="M183.168,14.562a6.752,6.752,0,0,0-12.683,0,6.084,6.084,0,1,0,6.341,9.561,6.083,6.083,0,1,0,6.341-9.561Z" transform="translate(-145.742 -8.914)" fill="#cbe558"/>
      <path id="XMLID_3113_" d="M59.351,208.73a23.878,23.878,0,0,1,47.756,0c0,13.187-8.846,14.105-22.034,14.105s-25.722-.918-25.722-14.105Z" transform="translate(-52.144 -162.422)" fill="#80b6ff"/>
      <g id="Grupo_1100038" data-name="Grupo 1100038" transform="translate(7.207 27.752)">
        <path id="XMLID_3112_" d="M68.705,272.066a5.949,5.949,0,0,1,2.408-4.78,4.211,4.211,0,0,0-2.506-7.6H64.483a23.776,23.776,0,0,0-5.132,14.791c0,4.142,1.237,7.074,3.343,9.147l6.012-10.868v-.694Z" transform="translate(-59.351 -255.925)" fill="#89df8f"/>
        <path id="XMLID_3111_" d="M320.43,228.729a9.553,9.553,0,0,0-.99-.053,7.283,7.283,0,0,0-3.945,13.4l2.525,1.627a4.683,4.683,0,0,1,.25,7.7,4.726,4.726,0,0,0-1.913,3.8,3.484,3.484,0,0,0,3.484,3.484,7.894,7.894,0,0,0,7.056-4.364,25.479,25.479,0,0,0,2.318-7.042c0-.017,0-.033,0-.049a23.829,23.829,0,0,0-8.786-18.5Z" transform="translate(-281.46 -228.676)" fill="#89df8f"/>
        <path id="XMLID_3110_" d="M215.446,301.01a3.954,3.954,0,0,0-4.057-.861,4.513,4.513,0,0,0-3,4.25v1.927a3.5,3.5,0,0,0,6.565,1.683l1.226-2.235A3.953,3.953,0,0,0,215.446,301.01Z" transform="translate(-190.295 -291.268)" fill="#89df8f"/>
      </g>
      <path id="XMLID_3106_" d="M39.871,281.428v0a14.315,14.315,0,0,0-4.193-10.122,10.022,10.022,0,0,0-7.086-2.935l-5.521-5.521a3.286,3.286,0,0,0-4.648,4.648l6.4,6.4.489.489-7.075-7.075a8.063,8.063,0,0,1-2.362-5.7V253.9a2.937,2.937,0,0,0-5.875,0v6.9a18.9,18.9,0,0,0,5.536,13.366l7.255,7.255Z" transform="translate(-8.786 -220.507)" fill="#f2d2bd"/>
      <path id="XMLID_3103_" d="M256,281.428v0a14.315,14.315,0,0,1,4.193-10.122,10.022,10.022,0,0,1,7.086-2.935l5.521-5.521a3.286,3.286,0,0,1,4.648,4.648l-6.4,6.4-.489.489,7.075-7.075a8.063,8.063,0,0,0,2.362-5.7V253.9a2.937,2.937,0,0,1,5.875,0v6.9a18.9,18.9,0,0,1-5.536,13.366l-7.255,7.255Z" transform="translate(-224.913 -220.507)" fill="#f2d2bd"/>
      <path id="XMLID_1630_" d="M394.486,89.787a4.567,4.567,0,1,1,6.392,6.392,5.949,5.949,0,1,1-6.392-6.392Z" transform="translate(-341.764 -77.286)" fill="#cbe558"/>
      <g id="XMLID_638_">
        <path id="XMLID_665_" d="M207.5,291.319a5.141,5.141,0,0,0-5.3-1.126,5.74,5.74,0,0,0-3.8,5.394v1.927a4.712,4.712,0,0,0,8.844,2.267l1.226-2.235a5.173,5.173,0,0,0-.966-6.227Zm-1.164,5.059-1.226,2.235a2.284,2.284,0,0,1-4.286-1.1v-1.927a3.306,3.306,0,0,1,2.189-3.107,2.739,2.739,0,0,1,3.323,3.9Z" transform="translate(-174.304 -254.705)"/>
        <path id="XMLID_673_" d="M390.4,464.267l-3.391,3.391a1.214,1.214,0,1,0,1.717,1.717l3.391-3.391a1.214,1.214,0,1,0-1.717-1.717Z" transform="translate(-339.705 -407.596)" fill="#00223d"/>
        <path id="XMLID_682_" d="M60.69,30.346a4.152,4.152,0,0,0-6.824,3.177v2.387A25.147,25.147,0,0,0,47.7,27.634L49.857,24.9a7.118,7.118,0,0,0,3.328.823,7.2,7.2,0,0,0,7.08-6.079A5.781,5.781,0,1,0,52.1,11.478,7.158,7.158,0,0,0,47.93,23.421l-2.123,2.694A25.068,25.068,0,0,0,32.3,21.373V18A7.3,7.3,0,1,0,38.328,4.778a7.966,7.966,0,0,0-14.486,0A7.3,7.3,0,1,0,29.87,18v3.37a25.069,25.069,0,0,0-13.507,4.742L14.24,23.421a7.158,7.158,0,0,0-4.169-11.943,5.781,5.781,0,1,0-8.165,8.165,7.2,7.2,0,0,0,7.08,6.079,7.118,7.118,0,0,0,3.328-.823l2.155,2.735A25.147,25.147,0,0,0,8.3,35.91V33.523a4.152,4.152,0,1,0-8.3,0v6.9A19.984,19.984,0,0,0,5.892,54.652l7.255,7.255a1.214,1.214,0,0,0,1.717-1.717L7.609,52.934a17.572,17.572,0,0,1-5.18-12.507v-6.9a1.723,1.723,0,0,1,3.446,0v7.709a9.218,9.218,0,0,0,2.717,6.56l6.586,6.586.489.489a1.214,1.214,0,1,0,1.717-1.717l-6.89-6.89a2.072,2.072,0,0,1,2.93-2.93l5.521,5.521a1.214,1.214,0,0,0,.859.356,8.75,8.75,0,0,1,6.228,2.58,13.015,13.015,0,0,1,3.837,9.264,1.214,1.214,0,1,0,2.429,0,13.015,13.015,0,0,1,3.837-9.264,8.749,8.749,0,0,1,6.228-2.58,1.214,1.214,0,0,0,.859-.356l5.521-5.521a2.072,2.072,0,1,1,2.93,2.93l-6.89,6.89A1.214,1.214,0,1,0,46.5,54.868l.489-.489,6.586-6.586a9.218,9.218,0,0,0,2.717-6.56V33.523a1.723,1.723,0,0,1,3.446,0v6.9a17.744,17.744,0,0,1-2.126,8.407,1.214,1.214,0,1,0,2.137,1.154,20.181,20.181,0,0,0,2.417-9.561v-6.9a4.142,4.142,0,0,0-1.479-3.177ZM52.816,13.838a1.214,1.214,0,0,0,.88-.484,3.353,3.353,0,1,1,4.692,4.692,1.215,1.215,0,0,0-.484.88,4.735,4.735,0,1,1-5.088-5.088ZM21.357,11.676a4.86,4.86,0,0,1,3.681-4.723,1.214,1.214,0,0,0,.845-.761,5.537,5.537,0,0,1,10.4,0,1.215,1.215,0,0,0,.845.761,4.869,4.869,0,1,1-4.6,8.2l2.2-2.2a1.214,1.214,0,1,0-1.717-1.717l-.715.715V7.863a1.214,1.214,0,0,0-2.429,0v5.309l-1.934-1.934a1.214,1.214,0,0,0-1.717,1.717L28.966,15.7a4.871,4.871,0,0,1-7.609-4.027ZM4.266,18.926a1.214,1.214,0,0,0-.484-.88,3.353,3.353,0,1,1,4.692-4.692,1.214,1.214,0,0,0,.88.484,4.735,4.735,0,1,1-5.088,5.088Zm4.712,22.5a22.459,22.459,0,0,1,3.979-8.568h3.505a3,3,0,0,1,1.784,5.405,7.189,7.189,0,0,0-2.629,3.824l-.474-.474a4.506,4.506,0,0,0-6.165-.187ZM41.85,46.791a11.155,11.155,0,0,0-7.431,3.279,15.509,15.509,0,0,0-3.334,4.942,15.509,15.509,0,0,0-3.334-4.942,11.155,11.155,0,0,0-7.431-3.279l-2.545-2.545V44.02a4.753,4.753,0,0,1,1.916-3.8,5.425,5.425,0,0,0-3.229-9.785H15.071a22.561,22.561,0,0,1,27.673-3.406A8.5,8.5,0,0,0,40.584,42.3l2.525,1.627a3.467,3.467,0,0,1,.838.762Zm5.177-5.177-1.355,1.355a5.893,5.893,0,0,0-1.247-1.079L41.9,40.262a6.068,6.068,0,0,1,3.287-11.169h.452a22.624,22.624,0,0,1,7.553,12.334A4.506,4.506,0,0,0,47.026,41.614Z" transform="translate(0 -0.127)" fill="#00223d"/>
        <path id="XMLID_1075_" d="M447.621,432.1a1.213,1.213,0,1,0,.858.355A1.223,1.223,0,0,0,447.621,432.1Z" transform="translate(-392.202 -379.645)" fill="#00223d"/>
      </g>
    </g>
  </g>
</svg>
