<svg xmlns="http://www.w3.org/2000/svg" width="103.429" height="84.947" viewBox="0 0 103.429 84.947">
  <g id="Grupo_1100088" data-name="Grupo 1100088" transform="translate(0 0)">
    <g id="Grupo_1100034" data-name="Grupo 1100034" transform="translate(0)">
      <path id="_12068" data-name="12068" d="M80.679,72.036c-9.737-1.345-20.023-1.016-28.883,3.24-12.288,5.9-20.358,19.283-20.667,32.911s6.79,27.019,17.758,35.114,25.432,10.964,38.845,8.534c13.525-2.451,26.22-10.4,33.274-22.194,4.524-7.564,6.638-16.905,4.139-25.358a34.642,34.642,0,0,0-8.221-13.513A60.743,60.743,0,0,0,80.679,72.036Z" transform="translate(-27.626 -67.724)" fill="#7d6eb2"/>
      <g id="Grupo_1099025" data-name="Grupo 1099025" transform="translate(0 75.838) rotate(-90)">
        <path id="Trazado_873104" data-name="Trazado 873104" d="M.44,1.927A1.116,1.116,0,0,0,1.9,1.762,1.116,1.116,0,0,0,1.836.3,1.116,1.116,0,0,0,.368.256,1.07,1.07,0,0,0,.44,1.927Z" transform="translate(14.579 87.471)" fill="#fff"/>
        <path id="Trazado_873105" data-name="Trazado 873105" d="M.44,1.927A1.116,1.116,0,0,0,1.9,1.763,1.116,1.116,0,0,0,1.836.3,1.116,1.116,0,0,0,.368.256,1.07,1.07,0,0,0,.44,1.927Z" transform="translate(35.875 92.048)" fill="#ffd947"/>
        <path id="Trazado_873106" data-name="Trazado 873106" d="M.44,1.927A1.116,1.116,0,0,0,1.9,1.763,1.116,1.116,0,0,0,1.836.3,1.117,1.117,0,0,0,.368.256,1.07,1.07,0,0,0,.44,1.927Z" transform="translate(73.694)" fill="#7d6eb2"/>
        <path id="Trazado_873109" data-name="Trazado 873109" d="M1.449,4.5A2.434,2.434,0,0,0,4.464,3.306,2.435,2.435,0,0,0,3.412.24,2.435,2.435,0,0,0,.3,1.151,2.36,2.36,0,0,0,1.449,4.5Z" transform="translate(61.04 86.208)" fill="#7d6eb2"/>
        <path id="Trazado_873110" data-name="Trazado 873110" d="M1.449,4.5A2.434,2.434,0,0,0,4.464,3.306,2.435,2.435,0,0,0,3.412.241,2.434,2.434,0,0,0,.3,1.151,2.36,2.36,0,0,0,1.449,4.5Z" transform="translate(44.433 98.775)" fill="#ffd947"/>
        <path id="Trazado_873111" data-name="Trazado 873111" d="M1.449,4.5A2.434,2.434,0,0,0,4.463,3.306,2.434,2.434,0,0,0,3.412.241,2.434,2.434,0,0,0,.3,1.151,2.36,2.36,0,0,0,1.449,4.5Z" transform="translate(0 27.812)" fill="#ffd947"/>
        <path id="Trazado_873113" data-name="Trazado 873113" d="M1.449,4.5A2.435,2.435,0,0,0,4.464,3.306,2.435,2.435,0,0,0,3.412.24,2.435,2.435,0,0,0,.3,1.151,2.36,2.36,0,0,0,1.449,4.5Z" transform="translate(69.035 5.856)" fill="#ffd947"/>
        <circle id="Elipse_11485" data-name="Elipse 11485" cx="1.149" cy="1.149" r="1.149" transform="translate(5.274 93.025)" fill="none" stroke="#26aab7" stroke-linecap="round" stroke-linejoin="round" stroke-width="1.5"/>
      </g>
    </g>
    <g id="intermediario" transform="translate(15.5 6.754)">
      <g id="Grupo_1100065" data-name="Grupo 1100065" transform="translate(24.014 1.028)">
        <g id="Grupo_1100064" data-name="Grupo 1100064">
          <g id="Grupo_1100060" data-name="Grupo 1100060" transform="translate(0 13.847)">
            <path id="Trazado_876381" data-name="Trazado 876381" d="M175.187,113V121.3a1.108,1.108,0,0,0,1.108,1.108h19.94a1.108,1.108,0,0,0,1.108-1.108V113a4.431,4.431,0,0,0-4.431-4.431H179.618A4.431,4.431,0,0,0,175.187,113Z" transform="translate(-175.187 -108.564)" fill="#aee6e6"/>
          </g>
          <g id="Grupo_1100061" data-name="Grupo 1100061" transform="translate(13.847 13.847)">
            <path id="Trazado_876382" data-name="Trazado 876382" d="M280.08,108.563H276.2a4.431,4.431,0,0,1,4.431,4.431v9.416H283.4a1.108,1.108,0,0,0,1.108-1.108v-8.308A4.431,4.431,0,0,0,280.08,108.563Z" transform="translate(-276.203 -108.563)" fill="#26aab7"/>
          </g>
          <g id="Grupo_1100062" data-name="Grupo 1100062" transform="translate(4.154)">
            <ellipse id="Elipse_11826" data-name="Elipse 11826" cx="6.923" cy="6.923" rx="6.923" ry="6.923" fill="#f1d0a4"/>
          </g>
          <g id="Grupo_1100063" data-name="Grupo 1100063" transform="translate(4.967 0.813)">
            <path id="Trazado_876383" data-name="Trazado 876383" d="M220.786,13.475a6.924,6.924,0,0,1-9.366,9.366,6.924,6.924,0,1,0,9.366-9.366Z" transform="translate(-211.42 -13.475)" fill="#edbb87"/>
          </g>
        </g>
      </g>
      <g id="Grupo_1100071" data-name="Grupo 1100071" transform="translate(47 41.448)">
        <g id="Grupo_1100070" data-name="Grupo 1100070">
          <g id="Grupo_1100066" data-name="Grupo 1100066" transform="translate(0 13.847)">
            <path id="Trazado_876384" data-name="Trazado 876384" d="M342.874,407.867v8.308a1.108,1.108,0,0,0,1.108,1.108h19.94a1.108,1.108,0,0,0,1.108-1.108v-8.308a4.431,4.431,0,0,0-4.431-4.431H347.3A4.431,4.431,0,0,0,342.874,407.867Z" transform="translate(-342.874 -403.436)" fill="#26aab7"/>
          </g>
          <g id="Grupo_1100067" data-name="Grupo 1100067" transform="translate(13.847 13.847)">
            <path id="Trazado_876385" data-name="Trazado 876385" d="M447.767,403.436H443.89a4.431,4.431,0,0,1,4.431,4.431v9.416h2.769a1.108,1.108,0,0,0,1.108-1.108v-8.308A4.431,4.431,0,0,0,447.767,403.436Z" transform="translate(-443.89 -403.436)" fill="#2396a2"/>
          </g>
          <g id="Grupo_1100068" data-name="Grupo 1100068" transform="translate(4.154)">
            <ellipse id="Elipse_11827" data-name="Elipse 11827" cx="6.923" cy="6.923" rx="6.923" ry="6.923" fill="#f1d0a4"/>
          </g>
          <g id="Grupo_1100069" data-name="Grupo 1100069" transform="translate(4.967 0.812)">
            <path id="Trazado_876386" data-name="Trazado 876386" d="M388.473,308.347a6.924,6.924,0,0,1-9.366,9.366,6.924,6.924,0,1,0,9.366-9.366Z" transform="translate(-379.107 -308.347)" fill="#edbb87"/>
          </g>
        </g>
      </g>
      <g id="Grupo_1100077" data-name="Grupo 1100077" transform="translate(1.028 41.448)">
        <g id="Grupo_1100076" data-name="Grupo 1100076">
          <g id="Grupo_1100072" data-name="Grupo 1100072" transform="translate(0 13.847)">
            <path id="Trazado_876387" data-name="Trazado 876387" d="M7.5,407.867v8.308a1.108,1.108,0,0,0,1.108,1.108h19.94a1.108,1.108,0,0,0,1.108-1.108v-8.308a4.431,4.431,0,0,0-4.431-4.431H11.931A4.431,4.431,0,0,0,7.5,407.867Z" transform="translate(-7.5 -403.436)" fill="#ffd947"/>
          </g>
          <g id="Grupo_1100073" data-name="Grupo 1100073" transform="translate(13.847 13.847)">
            <path id="Trazado_876388" data-name="Trazado 876388" d="M112.393,403.436h-3.877a4.431,4.431,0,0,1,4.431,4.431v9.416h2.769a1.108,1.108,0,0,0,1.108-1.108v-8.308A4.431,4.431,0,0,0,112.393,403.436Z" transform="translate(-108.516 -403.436)" fill="#f2cf64"/>
          </g>
          <g id="Grupo_1100074" data-name="Grupo 1100074" transform="translate(4.154)">
            <ellipse id="Elipse_11828" data-name="Elipse 11828" cx="6.923" cy="6.923" rx="6.923" ry="6.923" fill="#f1d0a4"/>
          </g>
          <g id="Grupo_1100075" data-name="Grupo 1100075" transform="translate(4.967 0.812)">
            <path id="Trazado_876389" data-name="Trazado 876389" d="M53.1,308.347a6.924,6.924,0,0,1-9.366,9.366,6.924,6.924,0,1,0,9.366-9.366Z" transform="translate(-43.733 -308.347)" fill="#edbb87"/>
          </g>
        </g>
      </g>
      <g id="Grupo_1100078" data-name="Grupo 1100078" transform="translate(22.976 33.601)">
        <path id="Trazado_876390" data-name="Trazado 876390" d="M167.877,249.906l5.884,3.7a.554.554,0,0,0,.849-.469v-1.489h14.955v-4.431H174.61v-1.489a.554.554,0,0,0-.849-.469l-5.884,3.7A.554.554,0,0,0,167.877,249.906Z" transform="translate(-167.618 -245.178)" fill="#75cff9"/>
      </g>
      <g id="Grupo_1100079" data-name="Grupo 1100079" transform="translate(24.568 44.725)">
        <path id="Trazado_876391" data-name="Trazado 876391" d="M200.914,330.117l-5.884-3.7a.554.554,0,0,0-.849.469v1.489H179.226V332.8h14.955v1.489a.554.554,0,0,0,.849.469l5.884-3.7A.554.554,0,0,0,200.914,330.117Z" transform="translate(-179.226 -326.326)" fill="#f6df7d"/>
      </g>
      <g id="Grupo_1100080" data-name="Grupo 1100080" transform="translate(0 0)">
        <path id="Trazado_876392" data-name="Trazado 876392" d="M169.825,29.8h19.939a2.138,2.138,0,0,0,2.136-2.136V26a1.028,1.028,0,0,0-2.056,0v1.663a.08.08,0,0,1-.079.08h-2.295V23.231a1.028,1.028,0,1,0-2.056,0v4.511H174.176V23.231a1.028,1.028,0,1,0-2.056,0v4.511h-2.295a.08.08,0,0,1-.079-.08V19.354a3.407,3.407,0,0,1,3.4-3.4h13.294a3.407,3.407,0,0,1,3.4,3.4V21.2a1.028,1.028,0,0,0,2.056,0V19.354a5.465,5.465,0,0,0-5.458-5.46h-1.317a7.952,7.952,0,1,0-10.66,0h-1.317a5.465,5.465,0,0,0-5.458,5.46v8.308A2.138,2.138,0,0,0,169.825,29.8ZM173.9,8a5.9,5.9,0,1,1,5.893,5.9A5.9,5.9,0,0,1,173.9,8Z" transform="translate(-144.703 -0.048)" fill="#00223d"/>
        <path id="Trazado_876393" data-name="Trazado 876393" d="M354.122,308.767h-1.316a7.952,7.952,0,1,0-10.661,0H340.83a5.466,5.466,0,0,0-5.46,5.46V315.7a1.028,1.028,0,1,0,2.056,0v-1.478a3.408,3.408,0,0,1,3.4-3.4h13.292a3.407,3.407,0,0,1,3.4,3.4v8.308a.08.08,0,0,1-.08.08h-2.3V318.1a1.028,1.028,0,1,0-2.056,0v4.511H341.858V318.1a1.028,1.028,0,1,0-2.056,0v4.511h-2.294a.08.08,0,0,1-.081-.08V320.5a1.028,1.028,0,1,0-2.056,0v2.033a2.139,2.139,0,0,0,2.137,2.136h19.939a2.138,2.138,0,0,0,2.136-2.136v-8.308A5.466,5.466,0,0,0,354.122,308.767Zm-12.541-5.895a5.9,5.9,0,1,1,5.914,5.895A5.9,5.9,0,0,1,341.581,302.872Z" transform="translate(-289.399 -254.5)" fill="#00223d"/>
        <path id="Trazado_876394" data-name="Trazado 876394" d="M18.752,308.767H17.436a7.952,7.952,0,1,0-10.661,0H5.46A5.466,5.466,0,0,0,0,314.226V315.7a1.028,1.028,0,1,0,2.056,0v-1.478a3.407,3.407,0,0,1,3.4-3.4H18.752a3.407,3.407,0,0,1,3.4,3.4v8.308a.08.08,0,0,1-.081.08H19.78V318.1a1.028,1.028,0,1,0-2.056,0v4.511H6.487V318.1a1.028,1.028,0,1,0-2.056,0v4.511h-2.3a.08.08,0,0,1-.08-.08V320.5A1.028,1.028,0,1,0,0,320.5v2.033a2.138,2.138,0,0,0,2.136,2.136H22.075a2.139,2.139,0,0,0,2.137-2.136v-8.308a5.466,5.466,0,0,0-5.46-5.46ZM6.21,302.872a5.9,5.9,0,1,1,5.914,5.895,5.9,5.9,0,0,1-5.914-5.895Z" transform="translate(0 -254.5)" fill="#00223d"/>
        <path id="Trazado_876395" data-name="Trazado 876395" d="M160.856,244.309l5.884,3.7a1.582,1.582,0,0,0,2.425-1.339v-.461h13.927a1.028,1.028,0,0,0,0-2.056H168.137a1.028,1.028,0,0,0-1.028,1.028v.63l-4.52-2.846,4.52-2.846v.63a1.028,1.028,0,0,0,1.028,1.028h14.955a1.028,1.028,0,1,0,0-2.056H169.165v-.461a1.582,1.582,0,0,0-2.425-1.339l-5.884,3.7a1.582,1.582,0,0,0,0,2.677Z" transform="translate(-138.169 -205.109)" fill="#00223d"/>
        <path id="Trazado_876396" data-name="Trazado 876396" d="M195.73,324.12a1.574,1.574,0,0,0-.739-1.339l-5.884-3.7a1.582,1.582,0,0,0-2.425,1.339v.461H172.756a1.028,1.028,0,1,0,0,2.056h14.955a1.028,1.028,0,0,0,1.028-1.028v-.63l4.52,2.846-4.52,2.846v-.63a1.028,1.028,0,0,0-1.028-1.028H172.756a1.028,1.028,0,0,0,0,2.056h13.927v.461a1.582,1.582,0,0,0,2.425,1.339l5.884-3.7A1.574,1.574,0,0,0,195.73,324.12Z" transform="translate(-148.188 -275.135)" fill="#00223d"/>
      </g>
    </g>
  </g>
</svg>
