<svg xmlns="http://www.w3.org/2000/svg" xmlns:xlink="http://www.w3.org/1999/xlink" width="504.33" height="462.878" viewBox="0 0 504.33 462.878">
  <defs>
    <clipPath id="clip-path">
      <rect id="Rectángulo_401419" data-name="Rectángulo 401419" width="504.33" height="462.878" fill="none"/>
    </clipPath>
    <clipPath id="clip-path-2">
      <rect id="Rectángulo_401420" data-name="Rectángulo 401420" width="409.199" height="447.949" fill="none"/>
    </clipPath>
  </defs>
  <g id="Grupo_1101897" data-name="Grupo 1101897" transform="translate(-858 -14061.026)">
    <g id="Grupo_1100194" data-name="Grupo 1100194" transform="translate(858 14061.026)">
      <g id="Grupo_1100188" data-name="Grupo 1100188" clip-path="url(#clip-path)">
        <path id="Trazado_876782" data-name="Trazado 876782" d="M182.375,80.3A72.391,72.391,0,1,1,109.983,7.913,72.392,72.392,0,0,1,182.375,80.3" transform="translate(4.011 0.844)" fill="#bbdcdc"/>
        <path id="Trazado_876783" data-name="Trazado 876783" d="M426.623,432.4,474.46,268.384c5.069-17.376-7.749-34.815-25.588-34.815h-260.2a26.689,26.689,0,0,0-24.66,16.742l-70.19,179.34" transform="translate(10.011 24.922)" fill="#c1b3ff"/>
        <path id="Trazado_876784" data-name="Trazado 876784" d="M410.3,421.3l42.969-147.322c4.552-15.607-6.961-31.27-22.985-31.27H196.575a23.974,23.974,0,0,0-22.15,15.037L111.379,418.837" transform="translate(11.884 25.898)" fill="#211d1d"/>
        <path id="Trazado_876785" data-name="Trazado 876785" d="M22.515,418.807H430.1a7.352,7.352,0,0,0,0-14.7H22.515a7.352,7.352,0,0,0,0,14.7" transform="translate(1.618 43.118)" fill="#c1b3ff"/>
        <path id="Trazado_876786" data-name="Trazado 876786" d="M226.714,418.807h181.6a7.352,7.352,0,0,0,0-14.7h-181.6a7.352,7.352,0,0,0,0,14.7" transform="translate(23.406 43.118)" fill="#a595fa"/>
        <path id="Trazado_876787" data-name="Trazado 876787" d="M151.447,413.649h56.68a2.183,2.183,0,0,0,0-4.366h-56.68a2.183,2.183,0,1,0,0,4.366" transform="translate(15.926 43.671)" fill="#211d1d"/>
        <path id="Trazado_876788" data-name="Trazado 876788" d="M48.2,411.035a3,3,0,1,0,3-3,3,3,0,0,0-3,3" transform="translate(5.143 43.538)" fill="#211d1d"/>
        <path id="Trazado_876789" data-name="Trazado 876789" d="M34.394,411.035a3,3,0,1,0,3-3,3,3,0,0,0-3,3" transform="translate(3.67 43.538)" fill="#211d1d"/>
      </g>
      <g id="Grupo_1101895" data-name="Grupo 1101895">
        <g id="Grupo_1100191" data-name="Grupo 1100191" transform="translate(84.173 0.001)">
          <g id="Grupo_1100190" data-name="Grupo 1100190" clip-path="url(#clip-path-2)">
            <path id="Trazado_876790" data-name="Trazado 876790" d="M296.066,137.306c7.729-9.342,16.472-17.912,26.605-24.375s21.73-10.759,33.643-11.213c5.7-.217,12.172.875,15.389,5.718,2.644,3.979,2.213,9.469.136,13.789s-5.546,7.731-8.945,11.046c7.637-3.871,16.173-5.359,24.577-6.766,9.24-1.546,18.534-3.054,27.9-3.05,6.341,0,12.776.728,18.653,3.181s11.184,6.775,13.989,12.632a22.643,22.643,0,0,1,.9,17.076c-2.141,6.056-6.829,10.874-12.154,14.264s-11.3,5.506-17.235,7.571c-21.478-13.036-46.515-17.464-71.035-22.117-9.623-1.825-19.323-3.612-29.107-3.507a81.945,81.945,0,0,1-10.724-.1,16.257,16.257,0,0,1-9.7-4.23c-2.561-2.573-5.2-7.116-2.884-9.919" transform="translate(-52.677 10.85)" fill="#2d1a14"/>
            <path id="Trazado_876791" data-name="Trazado 876791" d="M422.257,165.207c9.183-6.248,4.991-17.468-2.437-24.72-.432-.423-.883-.834-1.344-1.242H316.392v-4.689c-11.88-6.2-25.73-12.376-39.236-12.542-4.286-.052-9.44.407-12.957,3.132-4.542,3.518-2.027,8.994.594,12.9a1.03,1.03,0,0,1-1.4,1.4c-18.593-12.354-39.9-20.984-62.484-14.195-13.275,3.991-23.567,14.011-20.107,23.614a21.565,21.565,0,0,0-18.271,18.327c-.831,7.6,4.232,15.064,11.5,20.854,10.569,8.416,26.055,13.894,42.244,14.887,4.86,10.669,22.521,17.133,38.11,20.581,17.5,3.87,36.289,5.823,54.361,3.491s35.347-9.367,44.436-20.266c11.847,5.676,27.967,8.758,42.41,8.026,8.4-.426,16.9-1.456,24.3-4.2,11.733-4.36,19.674-13.116,20.148-22.219s-6.534-18.221-17.785-23.137" transform="translate(-66.839 13.017)" fill="#2d1a14"/>
            <ellipse id="Elipse_11842" data-name="Elipse 11842" cx="4.599" cy="11.219" rx="4.599" ry="11.219" transform="translate(227.249 136.442)" fill="none" stroke="#ffd71e" stroke-linecap="round" stroke-linejoin="round" stroke-width="1.45"/>
            <path id="Trazado_876792" data-name="Trazado 876792" d="M138.551,13.176h0a5.542,5.542,0,1,1,5.542-5.542,5.558,5.558,0,0,1-5.542,5.542" transform="translate(-69.98 0.222)" fill="#2d1a14"/>
            <path id="Trazado_876793" data-name="Trazado 876793" d="M329.011,329.852H273.147c-18.173,0-40.112-29.536-22.771-49.074l-24.858-91.695c-1.645-23.047,14.87-33.043,33.043-33.043h90.71a33.14,33.14,0,0,1,33.043,33.043L362.054,296.809a33.14,33.14,0,0,1-33.043,33.043" transform="translate(-60.121 16.649)" fill="#ffd71e"/>
            <path id="Trazado_876794" data-name="Trazado 876794" d="M246.19,212.515q-.676-1.517-1.42-3.009c.467,1,.943,2.005,1.42,3.009" transform="translate(-58.055 22.353)" fill="#ffbf80"/>
            <path id="Trazado_876795" data-name="Trazado 876795" d="M291.785,575.82c1.292-20.175,10.871-252.7,9.693-272.887l-47.025-1.627c-.038,20.548-15.726,250.785-14.86,273.023Z" transform="translate(-58.611 32.149)" fill="#bbdcdc"/>
            <path id="Trazado_876796" data-name="Trazado 876796" d="M359.773,580.209c.043-25.467-20.775-275.725-21.818-299.079l-43.794,16.5c-.353,22.7,12.9,262.29,15.658,284.817Z" transform="translate(-52.786 29.996)" fill="#bbdcdc"/>
            <path id="Trazado_876797" data-name="Trazado 876797" d="M252.966,280.624v36.053a34.894,34.894,0,0,0,34.79,34.791h20.089a34.894,34.894,0,0,0,34.79-34.791V280.624Z" transform="translate(-57.181 29.942)" fill="#bbdcdc"/>
            <path id="Trazado_876798" data-name="Trazado 876798" d="M233.829,215.281a70.206,70.206,0,0,1,1.1-29.537,73.5,73.5,0,0,1,2.966-8.837l-46.21,44.519c-4.57,4.4-5.723,19.585-1.869,24.642l52.278,72.247c4.627,6.734,8.787,9.311,13.7,10.451l2.549-13.4L216.746,231.74Z" transform="translate(-64.167 18.875)" fill="#ae4e3e"/>
            <path id="Trazado_876799" data-name="Trazado 876799" d="M266.587,324.077c1.585-2.053-7.7-8.74-7.7-8.74s12.624,7.933,14.091,6.607c2.316-2.094-12.169-10.88-12.169-10.88s16,9.156,17.211,5.9-15.583-10.485-15.583-10.485,16.189,5.794,16.751,2.815-20.584-9.627-20.584-9.627,10.209-4.378,9.442-6.6c-1.294-3.747-23.374,4.609-23.374,4.609l-5.412,12.065S265,326.13,266.587,324.077" transform="translate(-58.643 31.166)" fill="#ae4e3e"/>
            <path id="Trazado_876800" data-name="Trazado 876800" d="M240.487,163.152c-11.04,9.469-15.263,26.362-28.489,32.412-7.258,3.32-16.9,3.222-21.253,9.912-1.246,1.917-1.861,4.184-3.061,6.131-2.222,3.6-6.208,5.764-8.764,9.138a14.8,14.8,0,0,0,1.739,19.163c1.755,1.609,3.968,2.844,5.091,4.945,1.483,2.773.629,6.152.767,9.294.311,7.057,6.1,13.124,12.876,15.112s14.213.436,20.487-2.808c5.557-2.874,10.612-7.314,12.685-13.216s.424-13.337-4.854-16.695c.236.709,2.109-.973,2.809-1.236,3.3-1.242,11,4.4,14.292,3.162Z" transform="translate(-65.373 17.407)" fill="#ffd71e"/>
            <path id="Trazado_876801" data-name="Trazado 876801" d="M319.281,117.346a6.154,6.154,0,1,1-6.154-6.154,6.155,6.155,0,0,1,6.154,6.154" transform="translate(-51.418 11.863)" fill="#ae4e3e"/>
            <path id="Trazado_876802" data-name="Trazado 876802" d="M257.873,280.78,254.5,341.019l32.99-1.859V281.293Z" transform="translate(-57.017 29.958)" fill="#bbdcdc"/>
            <path id="Trazado_876803" data-name="Trazado 876803" d="M311.378,191.752l8.948,81.619-20.98-7.87,40.126-46.471c13.528-14.478,34.976,4,22.615,19.528-.29.336-.612.675-.925.979L317.012,282.2l-1,.964c-7.579,7.353-20.337,1.6-19.983-8.834l2.463-82.072c.425-7.979,11.843-8.416,12.882-.51" transform="translate(-52.586 19.85)" fill="#ae4e3e"/>
            <path id="Trazado_876804" data-name="Trazado 876804" d="M308.416,181.423a25.068,25.068,0,0,0-11.567-8.5,40.984,40.984,0,0,0-13.828-1.56,4.346,4.346,0,0,0,2.711,6.375v13s14.175,1.2,14.176,1.215c.355,6.078-.811,30.793-.811,30.793-.405,0,20.259,27.147,20.259,26.337,0-4.694-3.123-57.494-10.94-67.665" transform="translate(-54.038 18.279)" fill="#ae4e3e"/>
            <path id="Trazado_876805" data-name="Trazado 876805" d="M315.061,244.6v43c4.6,0,9.667-.362,13.392-3.061s6.548-6.444,9.119-10.258c21.818-6.564,38.628-27.535,42.122-50.048a75.982,75.982,0,0,0-.242-23.927c-2.355-13.124-9.569-33.353-18.638-35.926s-27.646,7.592-30.793,16.478c-4.593,12.965-5.839,30.757-8.4,38.625s-5.553,16.909-6.562,25.121" transform="translate(-50.555 17.495)" fill="#ffd71e"/>
            <path id="Trazado_876806" data-name="Trazado 876806" d="M315.874,239.47l24.393-34.382" transform="translate(-50.468 21.882)" fill="none" stroke="#2d1a14" stroke-linecap="round" stroke-linejoin="round" stroke-width="1.306"/>
            <path id="Trazado_876807" data-name="Trazado 876807" d="M321.274,283.374c3.975-1.975,6.221-5.724,8.753-9.186,3.188-4.358,6.891-6.472,11.914-8.277,9.225-3.312,16.05-8.192,24.154-17.105,3.557-3.912,11.615-17.288,12.966-30.524" transform="translate(-49.892 23.29)" fill="none" stroke="#2d1a14" stroke-linecap="round" stroke-linejoin="round" stroke-width="1.306"/>
            <path id="Trazado_876808" data-name="Trazado 876808" d="M294.251,129.255a122.636,122.636,0,0,1-.594,12.7,42.879,42.879,0,0,1-2.081,10.456,18.744,18.744,0,0,1-6.022,8.654,24.761,24.761,0,0,0,18.13,6.967,27.666,27.666,0,0,0,18.617-7.32c-8.916-12.321-11.61-28.727-11.913-43.932a15.957,15.957,0,0,1-6.134,9.109,14.776,14.776,0,0,1-10,3.362" transform="translate(-53.704 12.46)" fill="#ae4e3e"/>
            <path id="Trazado_876809" data-name="Trazado 876809" d="M298.843,137.49h0c-7.13.208-13.124-5.128-13.321-11.858L285,107.893c-.2-6.73,5.477-12.406,12.608-12.614s13.124,5.128,13.32,11.858l.518,17.739c.2,6.73-5.477,12.406-12.608,12.614" transform="translate(-53.763 10.165)" fill="#ae4e3e"/>
            <path id="Trazado_876810" data-name="Trazado 876810" d="M295.113,115.646c0,.423-.9.788-2.155.935a10.742,10.742,0,0,1-2.569-.008c-1.152-.148-1.951-.488-1.949-.888,0-.372.7-.7,1.726-.874a10.777,10.777,0,0,1,3.087-.04c1.1.155,1.863.487,1.859.874" transform="translate(-53.395 12.235)" fill="#fff"/>
            <path id="Trazado_876811" data-name="Trazado 876811" d="M293.433,115.507a1.275,1.275,0,0,1-.61,1.076,10.763,10.763,0,0,1-1.187.071,10.335,10.335,0,0,1-1.38-.08,1.229,1.229,0,0,1-.542-.941,1.169,1.169,0,0,1,.32-.821,10.777,10.777,0,0,1,3.087-.04,1.149,1.149,0,0,1,.313.735" transform="translate(-53.26 12.235)" fill="#2d1a14"/>
            <path id="Trazado_876812" data-name="Trazado 876812" d="M302.656,115.734c0,.422-.9.787-2.155.935a10.751,10.751,0,0,1-1.187.072,10.346,10.346,0,0,1-1.381-.081c-1.152-.149-1.951-.489-1.949-.888,0-.372.7-.7,1.726-.873a10.067,10.067,0,0,1,1.617-.133,10.253,10.253,0,0,1,1.47.092c1.1.155,1.863.487,1.859.875" transform="translate(-52.591 12.245)" fill="#fff"/>
            <path id="Trazado_876813" data-name="Trazado 876813" d="M300.976,115.594a1.275,1.275,0,0,1-.61,1.076,10.751,10.751,0,0,1-1.187.072,10.516,10.516,0,0,1-1.38-.081,1.232,1.232,0,0,1-.542-.941,1.164,1.164,0,0,1,.32-.82,10.041,10.041,0,0,1,1.616-.133,10.28,10.28,0,0,1,1.471.092,1.149,1.149,0,0,1,.313.735" transform="translate(-52.455 12.245)" fill="#2d1a14"/>
            <path id="Trazado_876814" data-name="Trazado 876814" d="M296.776,113.19a4.916,4.916,0,0,1,3.915.458" transform="translate(-52.506 12.054)" fill="none" stroke="#472a1c" stroke-linecap="round" stroke-linejoin="round" stroke-width="0.367"/>
            <path id="Trazado_876815" data-name="Trazado 876815" d="M288.6,113.7a4.917,4.917,0,0,1,3.876-.716" transform="translate(-53.378 12.04)" fill="none" stroke="#472a1c" stroke-linecap="round" stroke-linejoin="round" stroke-width="0.367"/>
            <path id="Trazado_876816" data-name="Trazado 876816" d="M293.545,119.015l.18-1.621,1.44,1.081v-1.531" transform="translate(-52.851 12.477)" fill="none" stroke="#472a1c" stroke-linecap="round" stroke-linejoin="round" stroke-width="0.367"/>
            <path id="Trazado_876817" data-name="Trazado 876817" d="M292.582,120.036c-.009.089-.013.179-.013.27a2.881,2.881,0,1,0,5.763,0c0-.091-.006-.182-.014-.27Z" transform="translate(-52.955 12.807)" fill="#fff"/>
            <path id="Trazado_876818" data-name="Trazado 876818" d="M284.916,115.3a19.642,19.642,0,0,0,9.461-13.715c-.023,2.614,2.087,4.506,3.52,6.693a16.28,16.28,0,0,0,3.761,4.456,12.409,12.409,0,0,0,4.1,1.8,18.014,18.014,0,0,0,5.633.691c1.686-3.935,3.326-9.042,1.787-13.036a15.748,15.748,0,0,0-6.143-7.1,16.048,16.048,0,0,0-8.4-3.019c-5.372-.134-10.309,3.642-12.741,8.434s-1.562,9.45-.982,14.792" transform="translate(-53.84 9.823)" fill="#2d1a14"/>
            <line id="Línea_1700" data-name="Línea 1700" x2="87.101" transform="translate(199.257 319.445)" fill="none" stroke="#2d1a14" stroke-linecap="round" stroke-linejoin="round" stroke-width="1.306"/>
            <line id="Línea_1701" data-name="Línea 1701" x2="162.405" y2="192.283" transform="translate(68.812 8.579)" fill="none" stroke="#2d1a14" stroke-linecap="round" stroke-linejoin="round" stroke-width="1.306"/>
            <line id="Línea_1702" data-name="Línea 1702" x2="16.264" y2="277.567" transform="translate(260.335 330.196)" fill="none" stroke="#2d1a14" stroke-linecap="round" stroke-linejoin="round" stroke-width="1.306"/>
            <line id="Línea_1703" data-name="Línea 1703" x1="15.066" y2="270.764" transform="translate(195.314 329.121)" fill="none" stroke="#2d1a14" stroke-linecap="round" stroke-linejoin="round" stroke-width="1.306"/>
            <path id="Trazado_876819" data-name="Trazado 876819" d="M291.632,177.289H272.66a2.264,2.264,0,1,1,0-4.528h18.972a2.264,2.264,0,1,1,0,4.528" transform="translate(-55.321 18.433)" fill="#ae4e3e"/>
            <path id="Trazado_876820" data-name="Trazado 876820" d="M312.606,203.052l11.753,72.128c.831,4.971-2.115,9.8-7.9,9.8l-10.362-.24Z" transform="translate(-51.511 21.665)" fill="#ae4e3e"/>
            <path id="Trazado_876821" data-name="Trazado 876821" d="M206.812,197.083a37.27,37.27,0,0,0,57.721-37.841" transform="translate(-62.105 16.99)" fill="none" stroke="#fff" stroke-linecap="round" stroke-linejoin="round" stroke-width="1.892"/>
            <path id="Trazado_876822" data-name="Trazado 876822" d="M330.5,158.075c-3.654,13.262,1.38,27.986,10.9,37.917s22.939,15.458,36.534,17.556" transform="translate(-49.035 16.866)" fill="none" stroke="#fff" stroke-linecap="round" stroke-linejoin="round" stroke-width="1.892"/>
            <path id="Trazado_876823" data-name="Trazado 876823" d="M185.325,239.618c13.949-11.046,28.446-22.021,45.321-27.662s36.787-5.131,51,5.57a41.759,41.759,0,0,1,3.082,64.167" transform="translate(-64.398 22.235)" fill="none" stroke="#fff" stroke-linecap="round" stroke-linejoin="round" stroke-width="1.892"/>
            <path id="Trazado_876824" data-name="Trazado 876824" d="M282.416,338.948s13.106,7.537,22.287,6.3" transform="translate(-54.038 36.165)" fill="none" stroke="#2d1a14" stroke-linecap="round" stroke-linejoin="round" stroke-width="1.306"/>
            <ellipse id="Elipse_11843" data-name="Elipse 11843" cx="4.599" cy="11.219" rx="4.599" ry="11.219" transform="translate(254.589 134.092)" fill="none" stroke="#ffd71e" stroke-linecap="round" stroke-linejoin="round" stroke-width="1.45"/>
            <path id="Trazado_876825" data-name="Trazado 876825" d="M292.414,132.526a10.043,10.043,0,0,0,10.516-.869" transform="translate(-52.972 14.047)" fill="none" stroke="#472a1c" stroke-linecap="round" stroke-linejoin="round" stroke-width="0.367"/>
            <path id="Trazado_876826" data-name="Trazado 876826" d="M316.214,114.488a10.1,10.1,0,0,0-6.537,1.722.426.426,0,0,0-.211.255c-.021.134.083.25.166.356a1.583,1.583,0,0,1-.22,2.106" transform="translate(-51.158 12.211)" fill="none" stroke="#472a1c" stroke-linecap="round" stroke-linejoin="round" stroke-width="0.367"/>
          </g>
        </g>
      </g>
      <g id="Grupo_1100193" data-name="Grupo 1100193">
        <g id="Grupo_1101896" data-name="Grupo 1101896">
          <g id="Grupo_1100192" data-name="Grupo 1100192" clip-path="url(#clip-path)">
            <path id="Trazado_876827" data-name="Trazado 876827" d="M328.029,282.455a24.511,24.511,0,0,0,17.3-7.614" transform="translate(35.001 29.326)" fill="none" stroke="#2d1a14" stroke-linecap="round" stroke-linejoin="round" stroke-width="1.306"/>
            <path id="Trazado_876828" data-name="Trazado 876828" d="M295.35,281.25c-14.266-.564-31.991-10.19-38.69-22.8" transform="translate(27.386 27.577)" fill="none" stroke="#2d1a14" stroke-linecap="round" stroke-linejoin="round" stroke-width="1.306"/>
            <path id="Trazado_876829" data-name="Trazado 876829" d="M247.213,276.717a13.285,13.285,0,0,0,10.378,5.156" transform="translate(26.378 29.526)" fill="none" stroke="#2d1a14" stroke-linecap="round" stroke-linejoin="round" stroke-width="1.306"/>
            <path id="Trazado_876830" data-name="Trazado 876830" d="M228.749,212.68c3.561,14.082,13.562,25.729,24.839,34.882" transform="translate(24.408 22.693)" fill="none" stroke="#2d1a14" stroke-linecap="round" stroke-linejoin="round" stroke-width="1.306"/>
            <line id="Línea_1704" data-name="Línea 1704" y2="144.527" transform="translate(110.799 8.379)" fill="none" stroke="#362f36" stroke-linecap="round" stroke-linejoin="round" stroke-width="1.505"/>
            <path id="Trazado_876831" data-name="Trazado 876831" d="M90.02,10.294C67.647,26.143,55,53.554,56.325,80.364s16.1,53.782,38.124,70.081" transform="translate(6 1.098)" fill="none" stroke="#362f36" stroke-linecap="round" stroke-linejoin="round" stroke-width="1.481"/>
            <path id="Trazado_876832" data-name="Trazado 876832" d="M118.26,10.622c22.373,15.849,35.022,43.26,33.695,70.07s-16.779,53.782-38.805,70.081" transform="translate(12.073 1.133)" fill="none" stroke="#362f36" stroke-linecap="round" stroke-linejoin="round" stroke-width="1.481"/>
            <line id="Línea_1705" data-name="Línea 1705" x2="143.374" transform="translate(41.742 80.391)" fill="none" stroke="#362f36" stroke-linecap="round" stroke-linejoin="round" stroke-width="1.481"/>
            <path id="Trazado_876833" data-name="Trazado 876833" d="M71.529,14.8c22.043,12.38,42.138,9.954,66.826-.164" transform="translate(7.632 1.562)" fill="none" stroke="#362f36" stroke-linecap="round" stroke-linejoin="round" stroke-width="1.481"/>
            <path id="Trazado_876834" data-name="Trazado 876834" d="M50.506,35.249c35.568,22.964,78.679,20.94,112.27-4.827" transform="translate(5.389 3.246)" fill="none" stroke="#362f36" stroke-linecap="round" stroke-linejoin="round" stroke-width="1.481"/>
            <path id="Trazado_876835" data-name="Trazado 876835" d="M141.914,131.542C120.759,117.7,91.692,117.07,69.96,129.985" transform="translate(7.465 12.88)" fill="none" stroke="#362f36" stroke-linecap="round" stroke-linejoin="round" stroke-width="1.481"/>
            <path id="Trazado_876836" data-name="Trazado 876836" d="M167.9,112.066C134.14,86.518,82.838,85.5,47.42,108.7" transform="translate(5.06 9.824)" fill="none" stroke="#362f36" stroke-linecap="round" stroke-linejoin="round" stroke-width="1.481"/>
            <path id="Trazado_876837" data-name="Trazado 876837" d="M198.642,387.8H52.336a8.568,8.568,0,0,1-8.413-10.19L61.586,286A8.57,8.57,0,0,1,70,279.051h146.3a8.569,8.569,0,0,1,8.413,10.192L207.055,380.85a8.568,8.568,0,0,1-8.413,6.946" transform="translate(4.67 29.775)" fill="#a595fa"/>
            <path id="Trazado_876838" data-name="Trazado 876838" d="M57.087,306.414,43.923,374.685a8.569,8.569,0,0,0,8.414,10.19H198.643a8.569,8.569,0,0,0,8.413-6.947l13.789-71.515Z" transform="translate(4.67 32.695)" fill="#fefefe"/>
            <path id="Trazado_876839" data-name="Trazado 876839" d="M368.134,243.762c-2.55,6.094-.964,13.327,2.675,18.839s9.078,9.572,14.648,13.122c6.971,4.443,14.564,8.348,22.788,9.186a43.783,43.783,0,0,0-8.838,68.432" transform="translate(39.147 26.01)" fill="none" stroke="#fff" stroke-linecap="round" stroke-linejoin="round" stroke-width="1.892"/>
            <path id="Trazado_876840" data-name="Trazado 876840" d="M257.943,363.053c-17.589-2.192-36.012,8.3-43.094,24.551-.6,1.372-1.21,2.881-2.508,3.626a6.764,6.764,0,0,1-3.833.476c-5.7-.366-11.567-.209-16.913,1.811s-10.132,6.164-11.728,11.65" transform="translate(19.192 38.707)" fill="none" stroke="#fff" stroke-linecap="round" stroke-linejoin="round" stroke-width="1.892"/>
            <path id="Trazado_876841" data-name="Trazado 876841" d="M369.29,347.239a5.233,5.233,0,1,1-5.234-5.234A5.234,5.234,0,0,1,369.29,347.239Z" transform="translate(38.287 36.492)" fill="none" stroke="#fff" stroke-linecap="round" stroke-linejoin="round" stroke-width="1.892"/>
            <circle id="Elipse_11844" data-name="Elipse 11844" cx="5.203" cy="5.203" r="5.203" transform="translate(243.183 367.048) rotate(-67.5)" fill="none" stroke="#fff" stroke-linecap="round" stroke-linejoin="round" stroke-width="0.946"/>
            <line id="Línea_1706" data-name="Línea 1706" x2="474.833" transform="translate(0.682 461.925)" fill="none" stroke="#472a1c" stroke-linecap="round" stroke-linejoin="round" stroke-width="1.232"/>
            <path id="Trazado_876842" data-name="Trazado 876842" d="M342.88,354.175c12.052,11.65,16.843,26.244,10.7,32.6s-20.89,2.061-32.942-9.59-16.844-26.244-10.7-32.6,20.89-2.061,32.942,9.59" transform="translate(32.785 36.454)" fill="#f4d7b0"/>
            <path id="Trazado_876843" data-name="Trazado 876843" d="M447.052,266.741c12.052,11.65,16.844,26.245,10.7,32.6s-20.89,2.06-32.942-9.59-16.844-26.244-10.7-32.6,20.89-2.061,32.942,9.59" transform="translate(43.9 27.125)" fill="#f4d7b0"/>
            <path id="Trazado_876844" data-name="Trazado 876844" d="M456.9,299.948l-40.723-38.341a292.531,292.531,0,0,1-41.517,48.858A78.634,78.634,0,0,0,397.776,331.8c16.086-13.106,35.8-25.068,59.121-31.849" transform="translate(39.976 27.914)" fill="#f4d7b0"/>
            <path id="Trazado_876845" data-name="Trazado 876845" d="M442.348,270.126c8.731,8.408,12.207,18.936,7.764,23.514s-15.124,1.477-23.855-6.93-12.208-18.936-7.765-23.515S433.618,261.719,442.348,270.126Z" transform="translate(44.447 27.857)" fill="none" stroke="#160d02" stroke-linecap="round" stroke-linejoin="round" stroke-width="1.051"/>
            <path id="Trazado_876846" data-name="Trazado 876846" d="M390.872,327.764s11.96,13.657,38.338,16.392l-16.136,4.179,14.852,17.341s-29.938-2.137-55.574-17.007c0,0,7.267-12.5,18.52-20.906" transform="translate(39.73 34.973)" fill="#6b69d1"/>
            <path id="Trazado_876847" data-name="Trazado 876847" d="M439.457,272.555c5.307,5.188,7.408,11.7,4.695,14.538s-9.218.936-14.524-4.253-7.408-11.7-4.695-14.538S434.15,267.367,439.457,272.555Z" transform="translate(45.214 28.488)" fill="none" stroke="#160d02" stroke-linecap="round" stroke-linejoin="round" stroke-width="1.051"/>
            <path id="Trazado_876848" data-name="Trazado 876848" d="M379.759,338.33s26.652,29.476,51.908,40l-24.87-.687,15.711,22.806s-29.374-14.377-63.522-45.757Z" transform="translate(38.304 36.1)" fill="#8379e8"/>
            <path id="Trazado_876849" data-name="Trazado 876849" d="M373.485,355.149c-15.786-6.044-24.538-16-29.351-23.993A137.45,137.45,0,0,1,315.089,344.3s-2.211,34.587,37.5,40.439a223.024,223.024,0,0,1,20.9-29.594" transform="translate(33.618 35.335)" fill="#f4d7b0"/>
            <path id="Trazado_876850" data-name="Trazado 876850" d="M401.332,327.085a78.649,78.649,0,0,1-23.12-21.332,209.309,209.309,0,0,1-36.88,28.114c4.813,7.993,13.565,17.95,29.351,23.993a218.553,218.553,0,0,1,30.649-30.775" transform="translate(36.42 32.624)" fill="#e03e12"/>
            <line id="Línea_1707" data-name="Línea 1707" x1="125.546" y2="92.633" transform="translate(353.69 321.239)" fill="#962a0c"/>
            <line id="Línea_1708" data-name="Línea 1708" x1="125.546" y2="92.633" transform="translate(353.69 321.239)" fill="none" stroke="#160602" stroke-linecap="round" stroke-linejoin="round" stroke-width="1.051"/>
            <path id="Trazado_876851" data-name="Trazado 876851" d="M401.332,327.085a78.649,78.649,0,0,1-23.12-21.332,209.309,209.309,0,0,1-36.88,28.114c4.813,7.993,13.565,17.95,29.351,23.993a218.553,218.553,0,0,1,30.649-30.775" transform="translate(36.42 32.624)" fill="#a595fa"/>
            <path id="Trazado_876852" data-name="Trazado 876852" d="M368.776,311.248s8.7,16.687,24.78,20.156" transform="translate(39.349 33.21)" fill="none" stroke="#160d02" stroke-linecap="round" stroke-linejoin="round" stroke-width="1.051"/>
            <path id="Trazado_876853" data-name="Trazado 876853" d="M348.441,327.578s6.173,15.913,26.2,23.439" transform="translate(37.179 34.953)" fill="none" stroke="#160d02" stroke-linecap="round" stroke-linejoin="round" stroke-width="1.051"/>
            <path id="Trazado_876854" data-name="Trazado 876854" d="M110.5,349.245a7.609,7.609,0,0,0-1.818-.753c-.221-.1-.444-.19-.667-.289-.377-.165-.909-.384-1.458-.6-1.081-.726-3.219-2.118-2.781-.271.191.81,1.279.986,1.652,1.638a1.25,1.25,0,0,1-.12.5,1.047,1.047,0,0,1-.572.509,1.493,1.493,0,0,1-.562.135.83.83,0,0,1-.252.387l-.071.06a1.055,1.055,0,0,1-1.446,0c-.1-.087-.2-.191-.3-.3a1.686,1.686,0,0,1-.3-.376c-.025-.035-.048-.072-.071-.11a1.918,1.918,0,0,1-.311.056c.024-.273-.128-.547-.622-.848.5-.615-.363-1.393-.116-2.228.139-.471,1.189-1.7-.218-1.467-.342.056-1.4,1.13-1.731,1.393-.461.374-.025.5-.764.712a.833.833,0,0,1-.164.012,2.621,2.621,0,0,1-1.12-.967c-.061-.084-.113-.173-.167-.259-1.505-.547-2.883-2.406-2.033-3.975a3.182,3.182,0,0,1,1.759-1.386,5.513,5.513,0,0,1,1.116-1.645.949.949,0,0,1,.18-.132c.01-.324.017-.53.014-.522.592-2.694,4.053-7.163,6.928-3.474.8,1.024,1.615,8.669,3.222,2.6.495-1.869-1.918-4.157-1.2-5.673,1.521-3.235,2.9.615,4.742.02,1.359-.438,4.7-5.517,5.05-8.2-2.457-2.774,1.822-3.673-2.5-5.332-2.223-.853-5.9-.88-6.169,2.139-2.008-.931-3.11.883-3.067,3.977-3.465,1.236-1.1-4.7-2.046-6.546-1.29-2.532-4.44-2.3-6.6-1.954-2.486.4-3.126,1.114-5.69.233-2.3-.79-3.549-2.74-6.42-1.668-1.929.722-2.352,2.757-4.784,2.866-2.041.093-4-1.491-6.375-1.208-2.006.239-4.277,1.226-5.14,3.474-.486,1.268.417,2.59.146,3.506-.348,1.18-1.386,1.735-1.709,3.04-.672,2.711-1.366,5.252,1.3,6.523,2.695,1.285,3.334-1.3,5.826-1.793.38-4.31,4.764-1.484,5.952-.155,1.763,1.973,2.627,4.875,5.2,6.753,2.135,1.563,6.066,1.419,7.77,3.391,1.875,2.168-.028,5.1,2.79,7.5-1.413,1.878-3.709,2.863-5.183,4.826a4.573,4.573,0,0,0-1.42,4.252,12.272,12.272,0,0,1,.6,1.7c.08.571-.115,1.14.138,1.682.284.605,1.141.9,1.425,1.529a4.341,4.341,0,0,1,.139,1.73,29.1,29.1,0,0,1,.283,3.294,20.953,20.953,0,0,0,.4,3.483v.03c.006.107,0,.215,0,.322s-.012.2-.021.307c-.143,1.335-1.162,1.846-1.98,2.786-.676.777-.4,1.278-.6,2.2a9.885,9.885,0,0,0-.577,2.237c-.017.67-.289,3.967,1.28,2.928.56-.372.234-1.244.424-1.766.381-1.04.339-.419,1.248-.765.758-.287.989-.824,1.545-1.473.538-.626,1.225-.917,1.751-1.445.655-.661.547-1.524,1.121-2.233a6.8,6.8,0,0,1,2.51-1.439,5.25,5.25,0,0,0,2-1.134c.665-.675,1.03-1.36,2.01-1.68,2.291-.749,4.985-.629,6.344-3.071.449-.807.091-1.757.72-2.467.386-.434.908-.43,1.29-.847.664-.722.492-1.743.76-2.6.4-1.277,1.512-1.409,2.224-2.41a6.428,6.428,0,0,0,.79-3.628c-.019-1.205-.546-1.746-1-2.828a4.519,4.519,0,0,0-2.493-2.81" transform="translate(6.971 33.539)" fill="#bbdcdc"/>
            <path id="Trazado_876855" data-name="Trazado 876855" d="M109.753,318.548c1.074-.258,1.566.713,1.707,1.563.181,1.1-.24,1.415.782,2.076.7.454,1.06.2,1.474,1.083a4.449,4.449,0,0,1,.178,2.719c-.481.817-1.315.655-1.645,1.76-.23.768.148,1.392-.812,1.792-.858.357-1.49-.4-2.253-.428-1.192-.044-1.317,1.122-2.362-.1a3.237,3.237,0,0,1-.49-3.285c.5-.9,1.406-1.038,1.383-2.27-.021-1.161-1.122-1.735-.8-2.929.279-1.039,1.335-1.625,2.84-1.98" transform="translate(11.318 33.985)" fill="#bbdcdc"/>
            <path id="Trazado_876856" data-name="Trazado 876856" d="M123.259,334.979a2.37,2.37,0,0,0-2.5.677c-.795.765-.5,1.132-.8,1.993-.176.52-.567.722-.8,1.19a9.8,9.8,0,0,0-.366,1.7,12.812,12.812,0,0,1-1.2,3.524,5,5,0,0,0-.423,4.483c.6,1.491,1.579,2.974,2.3,4.431a4.165,4.165,0,0,0,4.519,2.56c1.718-.225,3.093-2.166,5-1.7,1.543.381,1.145,2.048,1.217,3.2.094,1.489,1.612,2.386,1.574,3.941-.043,1.712-1.857,2.666-1.832,4.374,0,.3.329.518.351.816a6.382,6.382,0,0,1-.235,1.527,11.9,11.9,0,0,0-.225,2.21c.059,2.029,1.643,2.727,3.53,1.773.984-.5,1.263-1.553,2.108-2.18a11.932,11.932,0,0,0,1.235-.725,17.082,17.082,0,0,1,1.357-1.543c1.421-1.111,1.658-2.054,1.988-3.9.2-1.121.193-2.2.342-3.3.2-1.469,1.678-2.1,1.938-3.472.158-.828-.449-1.652-.22-2.479.6-2.179,4.915-2.979,3.992-5.79-.491-1.5-2.213-1.1-3.14-2.124-.511-.568-.421-1.33-1.08-1.9-1.263-1.1-2.261-1.833-2.848-3.577s-.507-3.326-2.5-3.549c-1.221-.136-2.808-.85-4.032-.332a2.908,2.908,0,0,0-1.44,1.792,2.5,2.5,0,0,1-2.241-.519c-.88-.577-.354-.085-.817-.874-.195-.334-.273-.7-.476-1.064-1.023-1.848-2.931-.456-4.285-1.162" transform="translate(12.466 35.73)" fill="#bbdcdc"/>
            <path id="Trazado_876857" data-name="Trazado 876857" d="M130.45,315.972c-1.411-.5-1.616-.128-2.777.639-1.179.778-2.709.795-3.78,1.775-.495.454-1.521,2.531-1.152,3.38.431.994,1.531.432,2.143.8.391.237.1.79.677.992.732.258,1.158-.268,1.345-.863.261-.831-.135-1.351.5-2.18.433-.562,1.513-1.812,2.251-1.163.668.585-.328,1.912-.325,2.639,0,1.263.672,1.391-.591,2.25a6.581,6.581,0,0,1-3.329,1.386c-.659.06-1.323.51-1.894.46-.915-.081-1.881-1.435-2.159-2.222-.268-.758.013-2.047-.909-2.475-1.293-.6-1.928.878-1.62,1.858.116.373.578.592.6,1.015.04.625-.594.809-.675,1.344-.116.758.657.973.775,1.563.091.457-.25,1.023-.335,1.476-.041.215.248.47.214.615-.066.28-.343.438-.417.694-.1.325-.347.538-.363.916-.05,1.124.737,1.3,1.691,1.247-.5,1.279-1.5,3.217,1.285,2.7,1.505-.277,1.409-.72,1.946-1.94.39-.89.491-.621,1.272-1.008.947-.469,1.428-1.825,2.192-.657.237.362.133.864.416,1.282a17.107,17.107,0,0,1,1.1,1.357c.22.391.413,1.329,1.066,1.205.734-.141.559-1.474.269-1.938.871-.84-.12-1.393-.468-2.133s-.258-1.574.869-1.282c1.3.339,1.873,2.892,2.689,3.87,1.361,1.629,2.263.477,3.948.7.883,1.55-.23,2.1-1.255,2.709-.556.327-.733.091-.77.908-.024.533-.1.855.51.915s.9-.972,1.358-1.147a4.634,4.634,0,0,1,1.992.2c1.7.559,1.6,2.5,3.624,2.434-.312,3.365,3.458,6.277,5.965,3.168,1.12-1.391,1.58-2.932.27-4.22-.426-.419-1.161-.613-1.19-1.158-.023-.443.612-.833.54-1.412-1.135-.421-2.528-.582-1.909-2.161.219-.559.844-.758.974-1.256-.682-.174-.75-.47-.838-1.041-.025-.173.225-.766.237-1.017.018-.357-.268-.745-.173-1.215-2.307-.692-1.98-1.895-2.043-4.153-.042-1.475-.117-2.937-.117-4.416,0-1.508,0-3.022-.025-4.514-.01-.54.027-1.028-.35-1.383-.2-.189-1.165-.376-1.5-.568a11.015,11.015,0,0,0-1.052-.682c-.375-.162-.8-.62-1.152-.165-.779,1.008,1.844,1.834,1.564,2.988-2.336-.287-4.924-1.041-7.226-.22-.676.241-2.19,1-2.741.069-.272-.462.549-.413.1-.978-.136-.174-.908.032-1.252.011" transform="translate(12.658 33.494)" fill="#bbdcdc"/>
            <path id="Trazado_876858" data-name="Trazado 876858" d="M134.088,339.571c.622-1.01.827-1.917,2.206-2.036,1.279-.11,1.641.47,2.031,1.562.491,1.375,1.787,2.2,2.242,3.651a3.871,3.871,0,0,0,1.475,2.28,16.6,16.6,0,0,1,1.96,2.529c.349.5.973,1.832,1.469,2.1,1.324.726,4.137-2.854,4.763-3.859,1.013-1.626.457-2.317-.468-3.56-.736-.988-1.718-2.361.226-2.125,1.293.156,3.541.4,4.375,1.271a5.607,5.607,0,0,0,2.1,1.651,2.5,2.5,0,0,1,1.415,1.135c.989,1.361.653,3.629,2.646,3.908.256-1.823-1.109-3.527-.326-5.321.491-1.126,2.551-2.258,1.915-3.639-.432-.94-1.5-1.054-1.884-2.224-.583-1.776-.344-1.723-1.964-2.748-2.805-1.776-2.988-6.39-3.39-9.342a12.276,12.276,0,0,0-.8-3.863c-.554-1.059-.935-1.367-.318-2.7.291-.629.923-.611.2-1.308-.517-.5-1.58,0-2.048-.39-.746-.622.2-2.978.79-3.533-1.3-.3-2.67-.246-3.976-.531-1.5-.328-2.345-.92-3.488.378-.142.162-.046.45-.159.562-.286.279-.58.187-.848.376-.376.267-1.233.01-.816.9.4.86,2.338.315,2.922,1.332a8.987,8.987,0,0,0-1.147.341c-.2.118-.443.082-.641.243-.164.135.134.609-.125.753-.876.487-.688-.226-1.142-.687-.537-.544-.463-.65-1.46-.727a19.294,19.294,0,0,0-1.058,4.308,11.968,11.968,0,0,1-.64,4.224c-.532,1.064-1.641,1.873-2.03,3.019-.446,1.323.021,2.79-.058,4.142-.179,3.084-1.04,3.71-3.513,4.884-1.238.589-.717.961-1.257,2.041-.345.691-1,.747-1.434,1.254a1.519,1.519,0,0,0,.687,2.572c1.8.539,1.825-1.889,1.562-2.828" transform="translate(14.019 33.297)" fill="#bbdcdc"/>
            <path id="Trazado_876859" data-name="Trazado 876859" d="M148.723,313.278c.885.124,2.047-.984,2.843-.681,1.222.465-.217.807-.282,1.3-.2,1.523,2.561.875,3.516,1.083.927.2.687.664,1.3,1.143a11.242,11.242,0,0,0,1.754.819c.684.229,1.891.164,2.232-.594.421-.933-.642-1.085.811-1.368a9.682,9.682,0,0,1,2.8.251,10.758,10.758,0,0,1,2.3.206c.328.115.62.431.93.561a5.491,5.491,0,0,0,1.665.361c0,1.04,1.295.526,1.875.319a3.594,3.594,0,0,1,1.765-.448c1.057,0,3.125-.424,2.827,1.232-.867.045-2.129-.309-2.127.91.5.042.9.291.878.795a4.65,4.65,0,0,0-2.027.812c-.372.29-.838-.076-.52.625.184.406.909.311,1.176.536.9.755.153.93.139,1.963s.943,1.409,1.12,2.311c-.874.157-1.256-.526-1.871-1.016a14.6,14.6,0,0,1-1.583-1.007c-.631-.716-.309-1.58-.393-2.534-.031-.348.1-.95-.256-1.2-.667-.46-.55.344-.769.664-.383.557-.561,1.262-1.338.234.029.193-.058.455-.04.652-.728-.086-1.637-.728-2.368-.3a1.139,1.139,0,0,0,.4,2.136c.642.132,1.508-.39,2.1-.063.528.292.865,1.308,1.332,1.786s3.422,2.311,3.446,2.927c.053,1.338-2.411-.389-2.632-.487-.238-.107-.945-.529-1.244-.31-.546.4.141.744.125,1.2-.076,2.214-3.961-.222-3.077,2.647-.755.278-2.424-.313-2.5.925-.048.77,1.068,1.183,1.581,1.506a4.431,4.431,0,0,1,1.284,1.186c.268.331.985,1.178,1,1.628.061,1.494-2.188.61-2.5,1.817-.429,1.651,1.365,2.091-.8,2.84-.664.23-1.479.222-1.8.958-.47,1.083.85,1.855,1.1,2.768-1.335,1.06-2.021-.6-2.387-1.553-1.218-.109-2.387,1.336-3.246-.24-.354-.649.051-1.471-.256-2.1-.495-1.009-2.581-2.029-3.375-2.663a9.051,9.051,0,0,1-3.515-4.882c-.474-2.239.641-4.408-.274-6.618-1.047-2.531-2.952-4.193-3.343-7.053-.319-2.335.987-2.818,1.874-4.723.09-.194.3-.39.349-.6.072-.309-.344-1.407-.008-.678" transform="translate(15.627 33.349)" fill="#bbdcdc"/>
            <path id="Trazado_876860" data-name="Trazado 876860" d="M160.248,346.083c-.495-.376-1.376-.33-1.486.412s1.026,1.026,1.47,1.517c1.1,1.225,1.3,3.8,3.439,3.859.809.023,1.6-.633,1.178-1.533-.4-.848-1.64-.821-2.077-1.78-.634-1.388-.758-3.616-2.522-2.476" transform="translate(16.939 36.894)" fill="#bbdcdc"/>
            <path id="Trazado_876861" data-name="Trazado 876861" d="M176.994,347.839c-.624-.289-.823.017-1.335.221a2.308,2.308,0,0,1-1.339.29c-1.186.02-1.451.388-1.983,1.539-.5,1.077-.635,2.377-1.332,3.377-.735,1.052-1.486.867-2.71.934-2.461.135-3.847.523-4.354,3.01-.246,1.2-.079,1.857-.748,2.9s-1.111,1.847.4,2.045a8.415,8.415,0,0,1,1.418.009c.58.189.677.725,1.132.961,1.156.6,1.947-.354,3.015-.607a13.727,13.727,0,0,1,2.9-.018c1,0,1.286.325,2.159.891.95.614,1.05,1.2,1.778,2.027.6.677,1.705,2.232,2.552,2.52,1.419.481,2.384-.242,3.476-.879.8-.463,1.366-.556,1.875-1.378.628-1.013,1.091-2.073,1.834-3.063a16.938,16.938,0,0,0,2.054-2.685c.384-.816.05-1.276.236-2.039.437-1.788,2.066-2.218.869-4.029-.7-1.067-1.528-1.657-2.228-2.673-.3-.44-.729-.661-1.039-1.137-.347-.533-.278-1.172-.536-1.734a2.639,2.639,0,0,0-.823-1.059c-.924.9.294,2.821.1,3.856-.787.074-.713-.608-1.257-.876-.456-.226-1.01.015-1.451-.381a1.824,1.824,0,0,1-.286-2.352c.324-.589.984-.318.228-.924-.618-.495-1.64-.09-2.337.009-1.448.2-1.439.327-2.15,1.485-.149-.079-.313-.138-.113-.238" transform="translate(17.347 36.955)" fill="#bbdcdc"/>
            <circle id="Elipse_11845" data-name="Elipse 11845" cx="5.617" cy="5.617" r="5.617" transform="translate(45.545 326.439) rotate(-58.282)" fill="none" stroke="#472a1c" stroke-linecap="round" stroke-linejoin="round" stroke-width="1.232"/>
            <circle id="Elipse_11846" data-name="Elipse 11846" cx="5.617" cy="5.617" r="5.617" transform="translate(69.883 327.126) rotate(-63.435)" fill="none" stroke="#472a1c" stroke-linecap="round" stroke-linejoin="round" stroke-width="1.232"/>
            <circle id="Elipse_11847" data-name="Elipse 11847" cx="5.617" cy="5.617" r="5.617" transform="translate(94.038 327.126) rotate(-63.435)" fill="none" stroke="#472a1c" stroke-linecap="round" stroke-linejoin="round" stroke-width="1.232"/>
            <path id="Trazado_876862" data-name="Trazado 876862" d="M96.971,251.372H129.24a19.506,19.506,0,0,0,19.449-19.449v-.038a19.506,19.506,0,0,0-19.449-19.448H96.971a19.506,19.506,0,0,0-19.449,19.448v.038a19.506,19.506,0,0,0,19.449,19.449" transform="translate(8.272 22.667)" fill="#211d1d"/>
            <path id="Trazado_876863" data-name="Trazado 876863" d="M128.335,239.406c-.287,7.733,3.662,13.774,10.747,16.865-9.685.818-18.2-6.575-21.149-14.884" transform="translate(12.584 25.545)" fill="#211d1d"/>
            <path id="Trazado_876864" data-name="Trazado 876864" d="M113.629,229.518H69.223a26.841,26.841,0,0,1-26.762-26.763V202.7A26.842,26.842,0,0,1,69.223,175.94h44.405A26.843,26.843,0,0,1,140.392,202.7v.051a26.842,26.842,0,0,1-26.763,26.763" transform="translate(4.531 18.773)" fill="#bbdcdc"/>
            <path id="Trazado_876865" data-name="Trazado 876865" d="M63.835,213.052c.394,10.642-5.04,18.953-14.789,23.208,13.326,1.126,25.042-9.046,29.1-20.479" transform="translate(5.233 22.733)" fill="#bbdcdc"/>
            <circle id="Elipse_11848" data-name="Elipse 11848" cx="5.617" cy="5.617" r="5.617" transform="matrix(0.924, -0.383, 0.383, 0.924, 423.848, 240.6)" fill="none" stroke="#472a1c" stroke-linecap="round" stroke-linejoin="round" stroke-width="1.232"/>
            <circle id="Elipse_11849" data-name="Elipse 11849" cx="5.617" cy="5.617" r="5.617" transform="matrix(0.924, -0.383, 0.383, 0.924, 447.991, 240.6)" fill="none" stroke="#472a1c" stroke-linecap="round" stroke-linejoin="round" stroke-width="1.232"/>
            <circle id="Elipse_11850" data-name="Elipse 11850" cx="5.617" cy="5.617" r="5.617" transform="matrix(0.924, -0.383, 0.383, 0.924, 472.146, 240.6)" fill="none" stroke="#472a1c" stroke-linecap="round" stroke-linejoin="round" stroke-width="1.232"/>
            <circle id="Elipse_11851" data-name="Elipse 11851" cx="5.617" cy="5.617" r="5.617" transform="translate(64.279 224.014) rotate(-63.435)" fill="none" stroke="#472a1c" stroke-linecap="round" stroke-linejoin="round" stroke-width="1.232"/>
            <circle id="Elipse_11852" data-name="Elipse 11852" cx="5.617" cy="5.617" r="5.617" transform="translate(88.422 224.014) rotate(-63.435)" fill="none" stroke="#472a1c" stroke-linecap="round" stroke-linejoin="round" stroke-width="1.232"/>
            <circle id="Elipse_11853" data-name="Elipse 11853" cx="5.617" cy="5.617" r="5.617" transform="translate(112.577 224.014) rotate(-63.435)" fill="none" stroke="#472a1c" stroke-linecap="round" stroke-linejoin="round" stroke-width="1.232"/>
            <path id="Trazado_876866" data-name="Trazado 876866" d="M105.145,235.7a2.808,2.808,0,1,1-2.808-2.809A2.809,2.809,0,0,1,105.145,235.7Z" transform="translate(10.62 24.85)" fill="none" stroke="#bbdcdc" stroke-miterlimit="10" stroke-width="0.616"/>
            <path id="Trazado_876867" data-name="Trazado 876867" d="M116.052,235.7a2.808,2.808,0,1,1-2.809-2.809A2.809,2.809,0,0,1,116.052,235.7Z" transform="translate(11.784 24.85)" fill="none" stroke="#bbdcdc" stroke-miterlimit="10" stroke-width="0.616"/>
            <path id="Trazado_876868" data-name="Trazado 876868" d="M126.966,235.7a2.809,2.809,0,1,1-2.81-2.809A2.81,2.81,0,0,1,126.966,235.7Z" transform="translate(12.948 24.85)" fill="none" stroke="#bbdcdc" stroke-miterlimit="10" stroke-width="0.616"/>
            <path id="Trazado_876869" data-name="Trazado 876869" d="M23.233,396.47q-.325-1.169-.579-2.32" transform="translate(2.417 42.056)" fill="none" stroke="#472a1c" stroke-linecap="round" stroke-linejoin="round" stroke-width="1.232"/>
            <path id="Trazado_876870" data-name="Trazado 876870" d="M21.988,393.988c-2.608-26.943,24.446-45.119,49.765-42.7" transform="translate(2.327 37.46)" fill="none" stroke="#472a1c" stroke-linecap="round" stroke-linejoin="round" stroke-width="1.232" stroke-dasharray="4.355 4.355"/>
            <path id="Trazado_876871" data-name="Trazado 876871" d="M69.091,351.532q1.179.174,2.35.411" transform="translate(7.372 37.509)" fill="none" stroke="#472a1c" stroke-linecap="round" stroke-linejoin="round" stroke-width="1.232"/>
            <path id="Trazado_876872" data-name="Trazado 876872" d="M413.02,149.9c28.5,18.233,22.258,49.742,6.134,65.431" transform="translate(44.07 15.994)" fill="none" stroke="#9accca" stroke-linecap="round" stroke-linejoin="round" stroke-width="1.848" stroke-dasharray="4.311 4.311"/>
            <path id="Trazado_876873" data-name="Trazado 876873" d="M177.153,254.415c-5.158-26.315-4.545-52.365,9.554-76.237,3.419-5.788,18.017-26.141,26.615-21.974,10.84,5.253-16.761,22.3-20.29,24.486-13.057,8.1-29.487,14.05-43.367,4.309-13.964-9.8-16.908-28.607-8.3-42.958,2.045-3.4,11.14-10.414,14.238-5.291,2.221,3.674-3.85,10.676-5.927,13.265-14.2,17.693-49.277,11.906-49.277-6.7" transform="translate(10.713 14.398)" fill="none" stroke="#9accca" stroke-linecap="round" stroke-linejoin="round" stroke-width="1.848" stroke-dasharray="4.311 4.311"/>
            <path id="Trazado_876874" data-name="Trazado 876874" d="M225.367,310.111a2.094,2.094,0,1,1-2.095-2.1A2.095,2.095,0,0,1,225.367,310.111Z" transform="translate(23.6 32.866)" fill="none" stroke="#fff" stroke-linecap="round" stroke-linejoin="round" stroke-width="0.946"/>
            <path id="Trazado_876875" data-name="Trazado 876875" d="M374.28,287.446a3.765,3.765,0,1,1-5.324,0A3.766,3.766,0,0,1,374.28,287.446Z" transform="translate(39.25 30.553)" fill="none" stroke="#fff" stroke-linecap="round" stroke-linejoin="round" stroke-width="0.946"/>
          </g>
        </g>
      </g>
    </g>
  </g>
</svg>
