<svg xmlns="http://www.w3.org/2000/svg" width="78.501" height="74.27" viewBox="0 0 78.501 74.27">
  <g id="Grupo_1100296" data-name="Grupo 1100296" transform="translate(-244 -24432.363)">
    <path id="_12068" data-name="12068" d="M72.033,71.913c-8.038-1.11-16.53-.839-23.844,2.675C38.045,79.46,31.382,90.507,31.127,101.757s5.606,22.305,14.66,28.988,21,9.051,32.068,7.045c11.165-2.023,21.645-8.583,27.469-18.322,3.735-6.245,5.48-13.956,3.417-20.934a28.6,28.6,0,0,0-6.787-11.156A50.145,50.145,0,0,0,72.033,71.913Z" transform="translate(212.881 24368.152)" fill="#26aab7"/>
    <g id="compra-en-linea" transform="translate(246.101 24432.324)">
      <path id="Trazado_877553" data-name="Trazado 877553" d="M91.43,119.926H36.953A4.953,4.953,0,0,0,32,124.878v47.049H96.383V124.878A4.953,4.953,0,0,0,91.43,119.926Zm0,0" transform="translate(-27.047 -101.332)" fill="#4398d1"/>
      <path id="Trazado_877554" data-name="Trazado 877554" d="M116,151.926H65.238A1.238,1.238,0,0,0,64,153.164V196.5h54.478V154.4A2.476,2.476,0,0,0,116,151.926Zm0,0" transform="translate(-54.095 -128.38)" fill="#87ced9"/>
      <path id="Trazado_877555" data-name="Trazado 877555" d="M219.906,207.926,184,243.832h35.906Zm0,0" transform="translate(-155.523 -175.713)" fill="#71c4d1"/>
      <path id="Trazado_877556" data-name="Trazado 877556" d="M250.572,7.926l3.846,4.221,5.44-1.733,1.219,5.578,5.578,1.219-1.733,5.44,4.221,3.846-4.221,3.846,1.733,5.44L261.077,37l-1.219,5.578-5.44-1.733-3.846,4.221-3.846-4.221-5.44,1.733L240.067,37l-5.578-1.219,1.733-5.44L232,26.5l4.221-3.846-1.733-5.44,5.578-1.219,1.219-5.578,5.44,1.733Zm0,0" transform="translate(-196.094 -6.666)" fill="#ffd947"/>
      <g id="Grupo_1100295" data-name="Grupo 1100295" transform="translate(44.573 12.403)">
        <path id="Trazado_877557" data-name="Trazado 877557" d="M306.344,94.651,318.725,82.27l1.751,1.751L308.095,96.4Zm0,0" transform="translate(-303.505 -81.907)" fill="#fd6d2f"/>
        <path id="Trazado_877558" data-name="Trazado 877558" d="M291.714,87.355a3.714,3.714,0,1,1,3.714-3.714A3.715,3.715,0,0,1,291.714,87.355Zm0-4.953a1.238,1.238,0,1,0,1.238,1.238A1.238,1.238,0,0,0,291.714,82.4Zm0,0" transform="translate(-288 -79.926)" fill="#fd6d2f"/>
        <path id="Trazado_877559" data-name="Trazado 877559" d="M371.714,135.355a3.714,3.714,0,1,1,3.714-3.714A3.715,3.715,0,0,1,371.714,135.355Zm0-4.953a1.238,1.238,0,1,0,1.238,1.238A1.238,1.238,0,0,0,371.714,130.4Zm0,0" transform="translate(-355.619 -120.497)" fill="#fd6d2f"/>
      </g>
      <path id="Trazado_877560" data-name="Trazado 877560" d="M124.311,342.316l-4.448,1.8,2.9,5.874h4.871Zm0,0" transform="translate(-101.312 -289.304)" fill="#e0e3e6"/>
      <path id="Trazado_877561" data-name="Trazado 877561" d="M145.829,240.741l-15.384-.249-3.324-6.581,12.19-12.064Zm0,0" transform="translate(-107.447 -187.48)" fill="#e0e3e6"/>
      <path id="Trazado_877562" data-name="Trazado 877562" d="M96.189,305.787a3.59,3.59,0,0,0,5,2.052l2.952-1.461-3.324-6.581-3.076,1.826A3.53,3.53,0,0,0,96.189,305.787Zm0,0" transform="translate(-81.147 -253.365)" fill="#7d6eb2"/>
      <path id="Trazado_877563" data-name="Trazado 877563" d="M249.281,266.193l4.095-1.423.812,2.338-4.094,1.423Zm0,0" transform="translate(-210.701 -223.759)" fill="#5eb3d1"/>
      <path id="Trazado_877564" data-name="Trazado 877564" d="M228.492,205.237l2.731-2.846,1.787,1.715-2.731,2.846Zm0,0" transform="translate(-193.129 -171.034)" fill="#5eb3d1"/>
      <path id="Trazado_877565" data-name="Trazado 877565" d="M272,327.926h3.714V330.4H272Zm0,0" transform="translate(-229.903 -277.141)" fill="#5eb3d1"/>
      <path id="Trazado_877566" data-name="Trazado 877566" d="M320,279.926h23.525v14.858H320Zm0,0" transform="translate(-270.475 -236.57)" fill="#e3584b"/>
      <path id="Trazado_877567" data-name="Trazado 877567" d="M344,303.926h4.953V306.4H344Zm0,0" transform="translate(-290.76 -256.855)" fill="#c9433c"/>
      <path id="Trazado_877568" data-name="Trazado 877568" d="M392,303.926h8.667V306.4H392Zm0,0" transform="translate(-331.331 -256.855)" fill="#c9433c"/>
      <path id="Trazado_877569" data-name="Trazado 877569" d="M344,335.926h16.1V338.4H344Zm0,0" transform="translate(-290.76 -283.903)" fill="#c9433c"/>
      <path id="Trazado_877570" data-name="Trazado 877570" d="M8,183.926H26.572v9.905H8Zm0,0" transform="translate(-6.762 -155.427)" fill="#fd6d2f"/>
      <path id="Trazado_877571" data-name="Trazado 877571" d="M32,207.926h2.476V210.4H32Zm0,0" transform="translate(-27.047 -175.713)" fill="#e3584b"/>
      <path id="Trazado_877572" data-name="Trazado 877572" d="M64,207.926h6.191V210.4H64Zm0,0" transform="translate(-54.095 -175.713)" fill="#e3584b"/>
      <path id="Trazado_877573" data-name="Trazado 877573" d="M76.1,431.355H11.714A3.715,3.715,0,0,1,8,427.64v-3.714H36.331a2.239,2.239,0,0,1,2,1.238,2.239,2.239,0,0,0,2,1.238h7.136a2.239,2.239,0,0,0,2-1.238,2.239,2.239,0,0,1,2-1.238H79.812v3.714A3.715,3.715,0,0,1,76.1,431.355Zm0,0" transform="translate(-6.762 -358.283)" fill="#d6d9db"/>
      <path id="Trazado_877574" data-name="Trazado 877574" d="M73.905,199.926v7.429H64v2.476H76.381v-9.905Zm0,0" transform="translate(-54.095 -168.951)" fill="#71c4d1"/>
      <path id="Trazado_877575" data-name="Trazado 877575" d="M32,247.926h4.953V250.4H32Zm0,0" transform="translate(-27.047 -209.522)" fill="#3e8cc7"/>
      <path id="Trazado_877576" data-name="Trazado 877576" d="M416,375.926h4.953V378.4H416Zm0,0" transform="translate(-351.617 -317.712)" fill="#3e8cc7"/>
      <path id="Trazado_877577" data-name="Trazado 877577" d="M73.05,294.212H70.574v-2.476H68.1v2.476H65.621v-2.476H63.145v2.476H44.719a3.459,3.459,0,0,0-3.118,1.923.991.991,0,0,1-.9.553h-7.13a.991.991,0,0,1-.9-.553,3.459,3.459,0,0,0-3.112-1.923H11.143V271.926H8.667v22.286H6.191V271.926H3.714v22.286H1.238A1.238,1.238,0,0,0,0,295.45v3.714a4.953,4.953,0,0,0,4.953,4.953H69.336a4.953,4.953,0,0,0,4.953-4.953V295.45A1.238,1.238,0,0,0,73.05,294.212Zm-1.238,4.953a2.476,2.476,0,0,1-2.476,2.476H4.953a2.476,2.476,0,0,1-2.476-2.476v-2.476H29.569a.991.991,0,0,1,.9.553,3.459,3.459,0,0,0,3.112,1.923h7.136a3.458,3.458,0,0,0,3.118-1.923.991.991,0,0,1,.889-.553H71.812Zm0,0" transform="translate(0 -229.808)" fill="#00223d"/>
      <path id="Trazado_877578" data-name="Trazado 877578" d="M52.477,114.4v-2.476H30.191A6.2,6.2,0,0,0,24,118.116v1.238h2.476v-1.238a3.715,3.715,0,0,1,3.714-3.714Zm0,0" transform="translate(-20.286 -94.57)" fill="#00223d"/>
      <path id="Trazado_877579" data-name="Trazado 877579" d="M56,146.4H82v-2.476H58.476A2.476,2.476,0,0,0,56,146.4Zm0,0" transform="translate(-47.333 -121.618)" fill="#00223d"/>
      <path id="Trazado_877580" data-name="Trazado 877580" d="M259.571,15.606l1.486-4.684a1.238,1.238,0,0,0-.914-1.586l-4.8-1.05-1.045-4.8a1.238,1.238,0,0,0-1.581-.92l-4.684,1.485L244.715.425a1.276,1.276,0,0,0-1.829,0l-3.311,3.635-4.689-1.492a1.238,1.238,0,0,0-1.586.915l-1.05,4.8-4.793,1.05a1.238,1.238,0,0,0-.915,1.586l1.486,4.684-3.635,3.311a1.237,1.237,0,0,0,0,1.829l3.635,3.311-1.486,4.684a1.238,1.238,0,0,0,.915,1.586l4.8,1.05,1.049,4.8a1.239,1.239,0,0,0,1.586.915l4.684-1.492,3.311,3.635a1.237,1.237,0,0,0,1.83,0l3.311-3.635,4.684,1.492a1.238,1.238,0,0,0,1.586-.915l1.05-4.8,4.8-1.05a1.238,1.238,0,0,0,.915-1.586l-1.485-4.684,3.635-3.311a1.238,1.238,0,0,0,0-1.829Zm-2.254,7.156a1.238,1.238,0,0,0-.345,1.291l1.315,4.146-4.251.93a1.24,1.24,0,0,0-.944.944l-.925,4.246L248.021,33a1.245,1.245,0,0,0-1.291.346l-2.93,3.222-2.93-3.219A1.229,1.229,0,0,0,239.585,33l-4.152,1.317-.93-4.251a1.24,1.24,0,0,0-.944-.944l-4.246-.925,1.32-4.146a1.238,1.238,0,0,0-.346-1.291l-3.222-2.93,3.219-2.93a1.236,1.236,0,0,0,.345-1.291l-1.317-4.146,4.251-.93a1.24,1.24,0,0,0,.944-.944l.925-4.246,4.146,1.32a1.238,1.238,0,0,0,1.291-.346L243.8,3.1l2.93,3.219a1.236,1.236,0,0,0,1.291.345l4.146-1.317L253.1,9.6a1.24,1.24,0,0,0,.944.944l4.251.93-1.32,4.147a1.238,1.238,0,0,0,.345,1.291l3.217,2.924Zm0,0" transform="translate(-189.322 0)" fill="#00223d"/>
      <path id="Trazado_877581" data-name="Trazado 877581" d="M306.344,94.651,318.725,82.27l1.751,1.751L308.095,96.4Zm0,0" transform="translate(-258.932 -69.504)" fill="#00223d"/>
      <path id="Trazado_877582" data-name="Trazado 877582" d="M295.429,83.64a3.714,3.714,0,1,0-3.714,3.714A3.715,3.715,0,0,0,295.429,83.64Zm-4.953,0a1.238,1.238,0,1,1,1.238,1.238A1.238,1.238,0,0,1,290.476,83.64Zm0,0" transform="translate(-243.427 -67.523)" fill="#00223d"/>
      <path id="Trazado_877583" data-name="Trazado 877583" d="M371.714,127.926a3.714,3.714,0,1,0,3.714,3.714A3.715,3.715,0,0,0,371.714,127.926Zm0,4.953a1.238,1.238,0,1,1,1.238-1.238A1.238,1.238,0,0,1,371.714,132.878Zm0,0" transform="translate(-311.046 -108.094)" fill="#00223d"/>
      <path id="Trazado_877584" data-name="Trazado 877584" d="M106.5,213.878a1.228,1.228,0,0,0-1.152.324L93.264,226.162l-2.938,1.748a4.758,4.758,0,0,0,1.792,8.824l2.579,5.219a1.237,1.237,0,0,0,1.114.69h4.871a1.238,1.238,0,0,0,1.137-1.733l-2.563-5.917,13.46.223h.021a1.238,1.238,0,0,0,1.17-1.642l-6.516-18.894A1.238,1.238,0,0,0,106.5,213.878Zm-15.927,18.86a2.282,2.282,0,0,1,1.016-2.705l1.934-1.147,2.166,4.283-1.834.907a2.37,2.37,0,0,1-1.966.064A2.294,2.294,0,0,1,90.574,232.739Zm6.007,7.429-1.872-3.782c.078-.034.162-.048.24-.086l1.786-.884,2.057,4.752Zm1.545-7.665-2.58-5.109L105.7,217.347,111,232.71Zm0,0" transform="translate(-74.354 -180.715)" fill="#00223d"/>
      <path id="Trazado_877585" data-name="Trazado 877585" d="M249.281,266.193l4.095-1.423.812,2.338-4.094,1.423Zm0,0" transform="translate(-210.701 -223.759)" fill="#00223d"/>
      <path id="Trazado_877586" data-name="Trazado 877586" d="M228.492,205.237l2.731-2.846,1.787,1.715-2.731,2.846Zm0,0" transform="translate(-193.129 -171.034)" fill="#00223d"/>
      <path id="Trazado_877587" data-name="Trazado 877587" d="M272,327.926h3.714V330.4H272Zm0,0" transform="translate(-229.903 -277.141)" fill="#00223d"/>
      <path id="Trazado_877588" data-name="Trazado 877588" d="M336.763,224.593h-2.476v-8.667H331.81v8.667h-2.476v-2.476h-2.476v2.476h-13.62A1.238,1.238,0,0,0,312,225.831v14.858a1.238,1.238,0,0,0,1.238,1.238h23.525A1.238,1.238,0,0,0,338,240.688V225.831A1.238,1.238,0,0,0,336.763,224.593Zm-1.238,14.858H314.476V227.069h21.048Zm0,0" transform="translate(-263.713 -182.475)" fill="#00223d"/>
      <path id="Trazado_877589" data-name="Trazado 877589" d="M344,303.926h4.953V306.4H344Zm0,0" transform="translate(-290.76 -256.855)"/>
      <path id="Trazado_877590" data-name="Trazado 877590" d="M392,303.926h8.667V306.4H392Zm0,0" transform="translate(-331.331 -256.855)"/>
      <path id="Trazado_877591" data-name="Trazado 877591" d="M344,335.926h16.1V338.4H344Zm0,0" transform="translate(-290.76 -283.903)"/>
      <path id="Trazado_877592" data-name="Trazado 877592" d="M1.238,188.307H19.81a1.238,1.238,0,0,0,1.238-1.238v-9.905a1.238,1.238,0,0,0-1.238-1.238H1.238A1.238,1.238,0,0,0,0,177.164v9.905A1.238,1.238,0,0,0,1.238,188.307ZM2.476,178.4h16.1v7.429H2.476Zm0,0" transform="translate(0 -148.665)"/>
      <path id="Trazado_877593" data-name="Trazado 877593" d="M32,207.926h2.476V210.4H32Zm0,0" transform="translate(-27.047 -175.713)"/>
      <path id="Trazado_877594" data-name="Trazado 877594" d="M64,207.926h6.191V210.4H64Zm0,0" transform="translate(-54.095 -175.713)"/>
    </g>
  </g>
</svg>
