<svg xmlns="http://www.w3.org/2000/svg" width="78.501" height="70.938" viewBox="0 0 78.501 70.938">
  <g id="Grupo_1100292" data-name="Grupo 1100292" transform="translate(-244 -24129.695)">
    <path id="_12068" data-name="12068" d="M72.033,71.913c-8.038-1.11-16.53-.839-23.844,2.675C38.045,79.46,31.382,90.507,31.127,101.757s5.606,22.305,14.66,28.988,21,9.051,32.068,7.045c11.165-2.023,21.645-8.583,27.469-18.322,3.735-6.245,5.48-13.956,3.417-20.934a28.6,28.6,0,0,0-6.787-11.156A50.145,50.145,0,0,0,72.033,71.913Z" transform="translate(212.881 24062.152)" fill="#26aab7"/>
    <g id="distribuidor" transform="translate(244 24094.166)">
      <path id="Trazado_877527" data-name="Trazado 877527" d="M127.579,59.188a4.72,4.72,0,0,0,1.607,3.5,4.089,4.089,0,0,1,3.34-1.728h.984V59.619a3.833,3.833,0,0,1,3.833-3.833h12.119a3.833,3.833,0,0,1,3.833,3.833v1.346h.984a4.089,4.089,0,0,1,3.34,1.728,4.72,4.72,0,0,0,1.607-3.5,4.776,4.776,0,0,0-2.092-3.99,4.782,4.782,0,0,0-4.843-7.2c0-.062,0-.124,0-.186a4.78,4.78,0,0,0-8.455-3.058.785.785,0,0,1-1.2,0,4.78,4.78,0,0,0-8.455,3.058c0,.049,0,.1,0,.147-.142-.013-.285-.02-.43-.02a4.782,4.782,0,0,0-4.09,7.259,4.776,4.776,0,0,0-2.091,3.99Z" transform="translate(-108.019 -6.351)" fill="#685e68"/>
      <g id="Grupo_1100275" data-name="Grupo 1100275" transform="translate(19.561 36.68)">
        <path id="Trazado_877528" data-name="Trazado 877528" d="M127.579,59.186a4.72,4.72,0,0,0,1.607,3.5,4.089,4.089,0,0,1,3.34-1.728h.266a4.761,4.761,0,0,1,1.18-3.17,3.85,3.85,0,0,1,.8-1.015,4.779,4.779,0,0,1,4.2-7.055c.145,0,.288.008.43.02,0-.049,0-.1,0-.147a4.783,4.783,0,0,1,3.557-4.622.762.762,0,0,1-.315-.222,4.78,4.78,0,0,0-8.455,3.058c0,.049,0,.1,0,.147-.142-.013-.285-.02-.43-.02a4.782,4.782,0,0,0-4.09,7.259A4.777,4.777,0,0,0,127.579,59.186Z" transform="translate(-127.579 -43.029)" fill="#554e56"/>
      </g>
      <path id="Trazado_877529" data-name="Trazado 877529" d="M174.855,292.743h3.283v-9.571H152v26.994h22.395V293.2A.46.46,0,0,1,174.855,292.743Z" transform="translate(-128.695 -209.673)" fill="#0593fc"/>
      <path id="Trazado_877530" data-name="Trazado 877530" d="M196.112,266.6l-2.8-1.747a8,8,0,0,1-2.768.491H186.8a8,8,0,0,1-2.768-.491l-2.8,1.747a.4.4,0,0,0-.188.338v8.468a.4.4,0,0,0,.648.311l6.729-5.39a.4.4,0,0,1,.5,0l6.729,5.39a.4.4,0,0,0,.648-.311v-8.468a.4.4,0,0,0-.187-.338Z" transform="translate(-153.289 -194.167)" fill="#0182fc"/>
      <g id="Grupo_1100276" data-name="Grupo 1100276" transform="translate(20.413 54.613)">
        <path id="Trazado_877531" data-name="Trazado 877531" d="M296.239,160h-.984v8.548c0,.127,0,.254-.01.379h.994a4.1,4.1,0,0,0,4.1-4.1v-.736A4.1,4.1,0,0,0,296.239,160Z" transform="translate(-270.39 -159.996)" fill="#ea9b58"/>
        <path id="Trazado_877532" data-name="Trazado 877532" d="M138.217,168.544V160h-.984a4.1,4.1,0,0,0-4.1,4.1v.736a4.1,4.1,0,0,0,4.1,4.1h.994c-.006-.126-.01-.252-.01-.379Z" transform="translate(-133.137 -159.996)" fill="#ea9b58"/>
      </g>
      <path id="Trazado_877533" data-name="Trazado 877533" d="M212.5,266.953h-3.743a8.045,8.045,0,0,1-1.78-.2v4a.468.468,0,0,0,.164.356l3.183,2.719a.469.469,0,0,0,.609,0l3.183-2.719a.469.469,0,0,0,.164-.356v-4A8.048,8.048,0,0,1,212.5,266.953Z" transform="translate(-175.241 -195.771)" fill="#ea9b58"/>
      <g id="Grupo_1100277" data-name="Grupo 1100277" transform="translate(25.493 49.435)">
        <path id="Trazado_877534" data-name="Trazado 877534" d="M178.033,147.967H174.29a8.021,8.021,0,0,1-8.021-8.021v-9.893a3.833,3.833,0,0,1,3.833-3.833h12.119a3.833,3.833,0,0,1,3.833,3.833v9.893A8.021,8.021,0,0,1,178.033,147.967Z" transform="translate(-166.269 -126.22)" fill="#f6a96c"/>
      </g>
      <g id="Grupo_1100278" data-name="Grupo 1100278" transform="translate(25.493 49.435)">
        <path id="Trazado_877535" data-name="Trazado 877535" d="M171.441,139.946v-9.893a3.833,3.833,0,0,1,3.833-3.833H170.1a3.833,3.833,0,0,0-3.833,3.833v9.893a8.021,8.021,0,0,0,8.021,8.021h3.743c.241,0,.479-.013.714-.033A8.02,8.02,0,0,1,171.441,139.946Z" transform="translate(-166.269 -126.22)" fill="#ea9b58"/>
      </g>
      <g id="Grupo_1100286" data-name="Grupo 1100286" transform="translate(45.7 69.811)">
        <g id="Grupo_1100281" data-name="Grupo 1100281" transform="translate(3.742)">
          <g id="Grupo_1100279" data-name="Grupo 1100279" transform="translate(14.187)">
            <path id="Trazado_877536" data-name="Trazado 877536" d="M425.088,259.58a.46.46,0,0,0-.46-.46H415v13.259h10.086Z" transform="translate(-415.002 -259.12)" fill="#f6a96c"/>
          </g>
          <path id="Trazado_877537" data-name="Trazado 877537" d="M336.661,272.379V259.12H322.934a.46.46,0,0,0-.46.46v12.8h14.187Z" transform="translate(-322.474 -259.12)" fill="#ffbd86"/>
          <path id="Trazado_877538" data-name="Trazado 877538" d="M326.388,272.379v-12.8a.46.46,0,0,1,.46-.46h-3.914a.46.46,0,0,0-.46.46v12.8h3.914Z" transform="translate(-322.474 -259.12)" fill="#f6a96c"/>
          <g id="Grupo_1100280" data-name="Grupo 1100280" transform="translate(4.868)">
            <path id="Trazado_877539" data-name="Trazado 877539" d="M358.215,265.132h-3.53a.46.46,0,0,1-.46-.46V259.12h4.45v5.552A.46.46,0,0,1,358.215,265.132Z" transform="translate(-354.225 -259.12)" fill="#fe646f"/>
          </g>
        </g>
        <g id="Grupo_1100285" data-name="Grupo 1100285" transform="translate(0 13.259)">
          <path id="Trazado_877540" data-name="Trazado 877540" d="M442.866,345.6H432.248v17.423h10.618a.46.46,0,0,0,.46-.46v-16.5A.46.46,0,0,0,442.866,345.6Z" transform="translate(-411.675 -345.596)" fill="#ffbd86"/>
          <g id="Grupo_1100282" data-name="Grupo 1100282" transform="translate(0)">
            <path id="Trazado_877541" data-name="Trazado 877541" d="M318.638,363.019H298.065V346.056a.46.46,0,0,1,.46-.46h20.113Z" transform="translate(-298.065 -345.596)" fill="#fed2a4"/>
          </g>
          <g id="Grupo_1100283" data-name="Grupo 1100283" transform="translate(0 0)">
            <path id="Trazado_877542" data-name="Trazado 877542" d="M302.473,345.6h-3.948a.46.46,0,0,0-.46.46v16.963h3.948V346.056A.46.46,0,0,1,302.473,345.6Z" transform="translate(-298.065 -345.596)" fill="#ffbd86"/>
          </g>
          <g id="Grupo_1100284" data-name="Grupo 1100284" transform="translate(8.061)">
            <path id="Trazado_877543" data-name="Trazado 877543" d="M354.633,352.344H351.1a.46.46,0,0,1-.46-.46V345.6h4.45v6.288A.46.46,0,0,1,354.633,352.344Z" transform="translate(-350.643 -345.596)" fill="#fe646f"/>
          </g>
        </g>
      </g>
      <g id="Grupo_1100290" data-name="Grupo 1100290" transform="translate(1.15 69.046)">
        <path id="Trazado_877544" data-name="Trazado 877544" d="M29.317,266.634H24.231v2.123a.491.491,0,0,1-.491.491H13.568a.491.491,0,0,1-.491-.491v-2.123H7.991a.491.491,0,0,0-.491.491v30.04a.491.491,0,0,0,.491.491H29.317a.491.491,0,0,0,.491-.491v-30.04A.491.491,0,0,0,29.317,266.634Z" transform="translate(-7.5 -264.717)" fill="#fed402"/>
        <path id="Trazado_877545" data-name="Trazado 877545" d="M12.713,297.165v-30.04a.49.49,0,0,1,.364-.473v-.019H7.991a.491.491,0,0,0-.491.491v30.04a.491.491,0,0,0,.491.491H13.2A.491.491,0,0,1,12.713,297.165Z" transform="translate(-7.5 -264.717)" fill="#fac600"/>
        <g id="Grupo_1100288" data-name="Grupo 1100288" transform="translate(5.577)">
          <g id="Grupo_1100287" data-name="Grupo 1100287">
            <path id="Trazado_877546" data-name="Trazado 877546" d="M54.538,258.661H44.366a.491.491,0,0,1-.491-.491v-3.549a.491.491,0,0,1,.491-.491H54.538a.491.491,0,0,1,.491.491v3.549A.491.491,0,0,1,54.538,258.661Z" transform="translate(-43.875 -254.13)" fill="#f6a96c"/>
          </g>
        </g>
        <g id="Grupo_1100289" data-name="Grupo 1100289" transform="translate(5.577)">
          <path id="Trazado_877547" data-name="Trazado 877547" d="M47.727,258.17v-3.549a.491.491,0,0,1,.491-.491H44.366a.491.491,0,0,0-.491.491v3.549a.491.491,0,0,0,.491.491h3.852A.491.491,0,0,1,47.727,258.17Z" transform="translate(-43.875 -254.13)" fill="#ea9b58"/>
        </g>
      </g>
      <g id="Grupo_1100291" data-name="Grupo 1100291" transform="translate(0 35.53)">
        <path id="Trazado_877548" data-name="Trazado 877548" d="M191.875,160.57a1.15,1.15,0,1,0-2.3,0v1.782a1.15,1.15,0,1,0,2.3,0Z" transform="translate(-160.509 -140.425)" fill="#00223d"/>
        <path id="Trazado_877549" data-name="Trazado 877549" d="M258.152,159.42a1.15,1.15,0,0,0-1.15,1.15v1.782a1.15,1.15,0,1,0,2.3,0V160.57A1.15,1.15,0,0,0,258.152,159.42Z" transform="translate(-217.598 -140.425)" fill="#00223d"/>
        <path id="Trazado_877550" data-name="Trazado 877550" d="M209.924,221.371a3.133,3.133,0,0,1-4.434,0A1.15,1.15,0,0,0,203.864,223a5.441,5.441,0,0,0,7.686,0,1.15,1.15,0,1,0-1.626-1.626Z" transform="translate(-172.322 -192.593)" fill="#00223d"/>
        <path id="Trazado_877551" data-name="Trazado 877551" d="M212.484,175.34l1.426,1.069a1.15,1.15,0,0,0,1.38-1.84l-1.219-.914,1.449-1.932a1.15,1.15,0,0,0-1.84-1.38l-1.6,2.139A2.044,2.044,0,0,0,212.484,175.34Z" transform="translate(-179.215 -149.284)" fill="#00223d"/>
        <path id="Trazado_877552" data-name="Trazado 877552" d="M76.891,81.92H74.865V78.532a1.15,1.15,0,1,0-2.3,0V81.92H64.779V70.961h7.787v2.2a1.15,1.15,0,1,0,2.3,0V70.271a1.612,1.612,0,0,0-1.61-1.61H49.9a1.612,1.612,0,0,0-1.61,1.61v2.078H44.1a1.539,1.539,0,0,0-.668-.887l-1.087-.678A9.189,9.189,0,0,0,46.3,64.689a5.251,5.251,0,0,0,5.21-5.244v-.736a5.215,5.215,0,0,0-.483-2.2,5.84,5.84,0,0,0,1.335-3.668,5.923,5.923,0,0,0-1.809-4.311,5.933,5.933,0,0,0-5.208-8.089,5.931,5.931,0,0,0-10.118-3.1A5.931,5.931,0,0,0,25.1,40.472a5.934,5.934,0,0,0-4.881,8.063,5.923,5.923,0,0,0-1.809,4.31,5.841,5.841,0,0,0,1.335,3.668,5.212,5.212,0,0,0-.483,2.2v.736a5.251,5.251,0,0,0,5.21,5.244,9.189,9.189,0,0,0,3.952,6.095l-1.087.678a1.538,1.538,0,0,0-.668.887H24.608v-.894a1.643,1.643,0,0,0-1.641-1.641H19.031v-.276A1.643,1.643,0,0,0,17.39,67.9H7.218a1.643,1.643,0,0,0-1.641,1.641v.276H1.641A1.643,1.643,0,0,0,0,71.454v30.04a1.643,1.643,0,0,0,1.641,1.641H22.967a1.643,1.643,0,0,0,1.634-1.493H37.257a1.15,1.15,0,1,0,0-2.3H24.608V91.564a1.15,1.15,0,1,0-2.3,0v9.271H2.3V72.113H5.577v.973a1.643,1.643,0,0,0,1.641,1.641H17.39a1.643,1.643,0,0,0,1.641-1.641v-.973h3.277V86.2a1.15,1.15,0,0,0,2.3,0V74.649h2v6.595a1.547,1.547,0,0,0,2.517,1.209l4.819-3.86.291.248V86.6a1.15,1.15,0,1,0,2.3,0V78.841l.291-.249,4.819,3.859a1.549,1.549,0,0,0,2.517-1.209V74.649h4.131V81.92H46.159a1.612,1.612,0,0,0-1.61,1.61V99.342H42.623a1.15,1.15,0,1,0,0,2.3H76.891a1.612,1.612,0,0,0,1.61-1.61V83.53a1.612,1.612,0,0,0-1.61-1.61ZM16.731,72.428H7.877V70.2h8.854ZM49.207,59.445a2.946,2.946,0,0,1-2.78,2.937v-6.61a2.947,2.947,0,0,1,2.78,2.937ZM24.343,62.382a2.947,2.947,0,0,1-2.78-2.937v-.736a2.947,2.947,0,0,1,2.78-2.937Zm0-9.114v.2a5.219,5.219,0,0,0-3.123,1.159,3.53,3.53,0,0,1-.509-1.8A3.63,3.63,0,0,1,22.3,49.8a1.15,1.15,0,0,0,.335-1.547,3.632,3.632,0,0,1,3.107-5.512c.1,0,.21.005.327.016a1.15,1.15,0,0,0,1.252-1.179V41.53c0-.023,0-.046,0-.069a3.631,3.631,0,0,1,6.422-2.323,1.935,1.935,0,0,0,2.967,0,3.631,3.631,0,0,1,6.422,2.323c0,.048,0,.094,0,.142a1.15,1.15,0,0,0,1.329,1.18,3.675,3.675,0,0,1,.574-.045,3.632,3.632,0,0,1,3.107,5.512A1.15,1.15,0,0,0,48.47,49.8a3.63,3.63,0,0,1,1.589,3.031,3.531,3.531,0,0,1-.509,1.8,5.218,5.218,0,0,0-3.123-1.159v-.2a4.989,4.989,0,0,0-4.983-4.983H29.326a4.988,4.988,0,0,0-4.984,4.983ZM28.908,79.68V73.193l1.675-1.046v2.829a1.617,1.617,0,0,0,.567,1.231l1.013.865Zm8.978-5.017-2.5,2.137-2.5-2.137V72.308c.208.014.418.024.63.024h3.743c.212,0,.421-.01.63-.024v2.354Zm3.975,5.017-3.256-2.608,1.013-.865a1.616,1.616,0,0,0,.567-1.231V72.147l1.675,1.046Zm-4.605-9.648H33.513a6.879,6.879,0,0,1-6.871-6.871V53.268a2.686,2.686,0,0,1,2.683-2.683H41.444a2.686,2.686,0,0,1,2.683,2.683v9.893A6.879,6.879,0,0,1,37.256,70.032Zm18.2.929h2.15v3.712H55.46Zm-4.868,0H53.16v4.4a1.612,1.612,0,0,0,1.61,1.61H58.3a1.612,1.612,0,0,0,1.61-1.61v-4.4h2.568V81.92H50.592V70.961ZM57.061,84.22v4.448h-2.15V84.22Zm8.061,15.123H46.85V84.22h5.762v5.138a1.612,1.612,0,0,0,1.61,1.61h3.53a1.612,1.612,0,0,0,1.61-1.61V84.22h5.762Zm11.078,0H67.423V84.22H76.2Z" transform="translate(0 -35.53)" fill="#00223d"/>
      </g>
    </g>
  </g>
</svg>
