<svg xmlns="http://www.w3.org/2000/svg" width="129.737" height="122.744" viewBox="0 0 129.737 122.744">
  <g id="Grupo_1101898" data-name="Grupo 1101898" transform="translate(-250.264 -25949.064)">
    <path id="_12068" data-name="12068" d="M98.737,72.292c-13.285-1.834-27.318-1.386-39.407,4.421-16.765,8.052-27.775,26.309-28.2,44.9S40.4,158.479,55.36,169.523s34.7,14.959,53,11.643c18.453-3.344,35.773-14.186,45.4-30.28,6.172-10.321,9.057-23.065,5.647-34.6-2.059-6.961-6.267-13.128-11.217-18.437A82.875,82.875,0,0,0,98.737,72.292Z" transform="translate(219.145 25889.5)" fill="#26aab7"/>
    <path id="Trazado_877816" data-name="Trazado 877816" d="M135.153,83.577A51.593,51.593,0,0,1,59.63,129.268c-2.551-1.338-4.37-3.686-5.9-6.415v0c-2.475-4.414-4.186-9.811-7-13.486-3.965-5.183-11.117-5.614-12.894-12.079a51.627,51.627,0,0,1,44.3-65A52.24,52.24,0,0,1,83.577,32a51.543,51.543,0,0,1,51.577,51.577Z" transform="translate(236.377 25920.162)" fill="#aee6e6"/>
    <g id="Grupo_1100448" data-name="Grupo 1100448" transform="translate(290.111 25952.162)">
      <path id="Trazado_877817" data-name="Trazado 877817" d="M183.852,361.146a51.637,51.637,0,0,1-51.565,2.125c-2.551-1.338-4.37-3.686-5.9-6.415v0l5.9-15.328L158.075,336l3.684,9.21,9.21,1.842,5.526,7.368,5.526,1.842Z" transform="translate(-126.39 -266.003)" fill="#88bf40"/>
      <path id="Trazado_877818" data-name="Trazado 877818" d="M281.4,55.946H269.156l-7.368,5.526V76.208L250.736,89.1l-7.368-5.526L245.21,68.84,236,54.1l1.842-5.526L232.41,32.283A52.24,52.24,0,0,1,237.842,32,51.539,51.539,0,0,1,281.4,55.946Z" transform="translate(-207.999 -32)" fill="#88bf40"/>
      <path id="Trazado_877819" data-name="Trazado 877819" d="M424.578,234.878a51.337,51.337,0,0,1-9.625,30.009L408,253.3l5.526-7.368V231.194l10.668-2.634A52,52,0,0,1,424.578,234.878Z" transform="translate(-343.159 -183.302)" fill="#88bf40"/>
    </g>
    <path id="Trazado_877820" data-name="Trazado 877820" d="M31.368,146.313,24,138.945V94.736A14.736,14.736,0,0,1,38.736,80H59l5.526,5.526-9.21,9.21H40.578v51.577Z" transform="translate(242.535 25883.215)" fill="#f79926"/>
    <path id="Trazado_877821" data-name="Trazado 877821" d="M89.156,153.681V122.366L74.42,107.63h9.21l3.684,3.684,5.526-5.526V102.1L78.1,87.368H74.42L72.578,80H67.052L65.21,87.368H63.368A7.368,7.368,0,0,0,56,94.736v40.524l5.526,5.526v12.894Z" transform="translate(217.903 25883.215)" fill="#ffd947"/>
    <path id="Trazado_877822" data-name="Trazado 877822" d="M40,400H84.209v11.052H40Z" transform="translate(230.219 25636.895)" fill="#ffd947"/>
    <path id="Trazado_877823" data-name="Trazado 877823" d="M24,440H75.577v11.052H24Z" transform="translate(242.535 25606.105)" fill="#ffd947"/>
    <path id="Trazado_877824" data-name="Trazado 877824" d="M40,424H84.209v3.684H40Z" transform="translate(230.219 25618.42)" fill="#f79926"/>
    <path id="Trazado_877825" data-name="Trazado 877825" d="M80,384h27.63v3.684H80Z" transform="translate(199.43 25649.211)" fill="#f79926"/>
    <path id="Trazado_877826" data-name="Trazado 877826" d="M69.419,154.891H67.577v-7.368a1.842,1.842,0,0,0-1.842-1.842H60.208V116.208a1.842,1.842,0,0,0-.54-1.3L48.077,103.314h4l3.144,3.145a1.842,1.842,0,0,0,2.605,0l5.526-5.526a1.842,1.842,0,0,0,.539-1.3V95.946a1.842,1.842,0,0,0-.54-1.3l-8.829-8.829,5.145-5.145a1.842,1.842,0,0,0,0-2.605l-5.526-5.526A1.842,1.842,0,0,0,52.84,72H32.578A16.6,16.6,0,0,0,16,88.578v44.209a1.842,1.842,0,0,0,.54,1.3l7.368,7.368a1.842,1.842,0,0,0,1.3.539h3.684v3.684H21.526a1.842,1.842,0,0,0-1.842,1.842v7.368H17.842A1.842,1.842,0,0,0,16,156.733v11.052a1.842,1.842,0,0,0,1.842,1.842H69.419a1.842,1.842,0,0,0,1.842-1.842V156.733A1.842,1.842,0,0,0,69.419,154.891ZM55.762,79.368,51.919,83.21l-3.3-3.3a1.842,1.842,0,0,0-1.3-.539H45.068l-.921-3.684h7.93ZM25.973,138.313l-6.289-6.289V88.578A12.909,12.909,0,0,1,32.578,75.684H33.9l-.921,3.684h-.4a9.22,9.22,0,0,0-9.21,9.21V129.1a1.842,1.842,0,0,0,.54,1.3l4.987,4.986v2.921Zm6.066-4.987-4.987-4.986V88.578a5.533,5.533,0,0,1,5.526-5.526H34.42a1.842,1.842,0,0,0,1.787-1.4L37.7,75.684h2.65l1.493,5.973a1.842,1.842,0,0,0,1.787,1.4h2.921L60.208,96.709v2.158l-3.684,3.684-2.382-2.382a1.842,1.842,0,0,0-1.3-.539H41.788A5.533,5.533,0,0,1,36.262,94.1V90.42H32.578V94.1a9.22,9.22,0,0,0,9.21,9.21h1.079l13.657,13.657v28.71H32.578V134.629a1.842,1.842,0,0,0-.54-1.3Zm-8.671,16.039H63.893v5.526H23.368Zm44.209,16.578H19.684v-7.368H67.577Z" transform="translate(248.693 25889.371)"/>
    <path id="Trazado_877827" data-name="Trazado 877827" d="M160,280h3.684v22.1H160Z" transform="translate(137.85 25729.264)"/>
    <path id="Trazado_877828" data-name="Trazado 877828" d="M179.462,24a52.941,52.941,0,0,0-22.895,5.142l1.581,3.327a49.11,49.11,0,0,1,14.609-4.339l4.763,14.29-1.648,4.944a1.842,1.842,0,0,0,.186,1.559L184.921,63.1,183.16,77.19a1.842,1.842,0,0,0,.723,1.7l7.368,5.526a1.842,1.842,0,0,0,2.5-.275l11.052-12.894a1.842,1.842,0,0,0,.443-1.2V56.235l6.14-4.605h10.617a49.17,49.17,0,0,1,6.6,18.079l-9.059,2.237a1.842,1.842,0,0,0-1.4,1.788V87.856l-5.158,6.877a1.842,1.842,0,0,0-.106,2.053l6.323,10.536a49.965,49.965,0,0,1-11.213,10.843l-1.016-2.711a1.842,1.842,0,0,0-1.142-1.1l-4.979-1.66-5.181-6.908a1.842,1.842,0,0,0-1.112-.7l-8.232-1.646-3.313-8.284a1.842,1.842,0,0,0-2.1-1.117l-9.21,1.973.772,3.6,7.69-1.648,3.107,7.768a1.842,1.842,0,0,0,1.349,1.122l8.519,1.7,5.1,6.805a1.842,1.842,0,0,0,.891.642l4.692,1.564.99,2.643a49.46,49.46,0,0,1-21.808,6.814l.259,3.675A53.42,53.42,0,0,0,179.462,24Zm31.314,23.946a1.842,1.842,0,0,0-1.105.368L202.3,53.84a1.842,1.842,0,0,0-.737,1.474V69.369L192.08,80.434l-5.132-3.849,1.709-13.676a1.842,1.842,0,0,0-.266-1.2l-8.75-14,1.568-4.7a1.843,1.843,0,0,0,0-1.165L176.52,27.769q1.463-.084,2.942-.086A49.409,49.409,0,0,1,214.629,42.25a50.4,50.4,0,0,1,4.905,5.7ZM221.506,104l-4.829-8.047,4.783-6.378a1.842,1.842,0,0,0,.368-1.105V75.177l7.207-1.779q.158,2,.161,4.021A49.552,49.552,0,0,1,221.506,104Z" transform="translate(140.492 25926.32)"/>
    <path id="Trazado_877829" data-name="Trazado 877829" d="M476.867,137.544l3.366-1.5c-.571-1.282-1.194-2.56-1.853-3.8l-3.253,1.73C475.746,135.14,476.331,136.34,476.867,137.544Z" transform="translate(-104.719 25842.996)"/>
    <path id="Trazado_877830" data-name="Trazado 877830" d="M387.906,42.884l3.12-1.96a60.916,60.916,0,0,0-24.913-22.381L364.5,21.856a57.233,57.233,0,0,1,23.406,21.029Z" transform="translate(-19.563 25930.52)"/>
    <path id="Trazado_877831" data-name="Trazado 877831" d="M128,136h3.684v3.684H128Z" transform="translate(162.481 25840.107)"/>
  </g>
</svg>
