<svg xmlns="http://www.w3.org/2000/svg" width="129.737" height="122.746" viewBox="0 0 129.737 122.746">
  <g id="Grupo_1101903" data-name="Grupo 1101903" transform="translate(-1052.264 -26392.961)">
    <path id="_12068" data-name="12068" d="M98.737,72.292c-13.285-1.834-27.318-1.386-39.407,4.421-16.765,8.052-27.775,26.309-28.2,44.9S40.4,158.479,55.36,169.523s34.7,14.959,53,11.643c18.453-3.344,35.773-14.186,45.4-30.28,6.172-10.321,9.057-23.065,5.647-34.6-2.059-6.961-6.267-13.128-11.217-18.437A82.875,82.875,0,0,0,98.737,72.292Z" transform="translate(1021.145 26333.398)" fill="#26aab7"/>
    <g id="estrategia-de-mercadeo-2" transform="translate(1046.164 26376.961)">
      <g id="Grupo_1100539" data-name="Grupo 1100539" transform="translate(16 16)">
        <path id="Trazado_877934" data-name="Trazado 877934" d="M125.937,82.127v38.281a5.543,5.543,0,0,1-5.529,5.529H82.127a5.543,5.543,0,0,1-5.529-5.529V82.127A5.543,5.543,0,0,1,82.127,76.6h38.281a5.543,5.543,0,0,1,5.529,5.529ZM21.529,16H59.81a5.543,5.543,0,0,1,5.529,5.529V59.81a5.543,5.543,0,0,1-5.529,5.529H21.529A5.543,5.543,0,0,1,16,59.81V21.529A5.543,5.543,0,0,1,21.529,16Zm60.6,0h38.281a5.543,5.543,0,0,1,5.529,5.529V59.81a5.543,5.543,0,0,1-5.529,5.529H82.127A5.543,5.543,0,0,1,76.6,59.81V21.529A5.543,5.543,0,0,1,82.127,16ZM65.338,82.075v38.281a5.543,5.543,0,0,1-5.529,5.529H21.529A5.543,5.543,0,0,1,16,120.356V82.075a5.543,5.543,0,0,1,5.529-5.529H59.81a5.543,5.543,0,0,1,5.529,5.529Z" transform="translate(-16 -16)" fill-rule="evenodd"/>
        <path id="Trazado_877935" data-name="Trazado 877935" d="M335.874,332.861V294.581a3.023,3.023,0,0,0-3.012-3.012H294.582a3.023,3.023,0,0,0-3.012,3.012v38.281a3.023,3.023,0,0,0,3.012,3.012h38.281A3.023,3.023,0,0,0,335.874,332.861Zm-17.1-26.408v-3.3a1.26,1.26,0,0,1,1.26-1.26h6.527a1.26,1.26,0,0,1,1.26,1.26v19.834l2.006,0a1.254,1.254,0,1,1,0,2.508l-32.2.052a1.254,1.254,0,1,1,0-2.508l1.433,0v-15.32a1.26,1.26,0,0,1,1.26-1.26h6.527a1.26,1.26,0,0,1,1.26,1.26v5.558h4.011v-5.558a1.26,1.26,0,0,1,1.26-1.26Z" transform="translate(-228.455 -228.454)" fill="#58a8d9" fill-rule="evenodd"/>
        <path id="Trazado_877936" data-name="Trazado 877936" d="M71.3,332.636V294.356a3.023,3.023,0,0,0-3.012-3.012H30a3.023,3.023,0,0,0-3.012,3.012v38.281A3.023,3.023,0,0,0,30,335.648H68.285A3.023,3.023,0,0,0,71.3,332.636ZM49.145,296.209a17.288,17.288,0,1,1-12.224,5.063A17.288,17.288,0,0,1,49.145,296.209Z" transform="translate(-24.475 -228.281)" fill="#60abca" fill-rule="evenodd"/>
        <path id="Trazado_877937" data-name="Trazado 877937" d="M332.862,26.993H294.582A3.023,3.023,0,0,0,291.57,30V68.285a3.023,3.023,0,0,0,3.012,3.012h38.281a3.023,3.023,0,0,0,3.012-3.012V30a3.023,3.023,0,0,0-3.012-3.012ZM314.451,65.35a1.264,1.264,0,0,1-1.458,0l-13.046-7.529a1.255,1.255,0,0,1-.626-1.087l0-15.179a1.26,1.26,0,0,1,.71-1.133q6.534-3.773,13.07-7.543a1.253,1.253,0,0,1,1.266.01q6.568,3.793,13.132,7.579a1.255,1.255,0,0,1,.626,1.087l0,15.179a1.26,1.26,0,0,1-.71,1.133Q320.934,61.609,314.451,65.35Z" transform="translate(-228.455 -24.475)" fill="#ffd947" fill-rule="evenodd"/>
        <path id="Trazado_877938" data-name="Trazado 877938" d="M68.285,26.993H30A3.023,3.023,0,0,0,26.993,30V68.285A3.023,3.023,0,0,0,30,71.3H68.285A3.023,3.023,0,0,0,71.3,68.285V30A3.023,3.023,0,0,0,68.285,26.993Zm-4.8,7.915,4.137,1.264a1.255,1.255,0,0,1,.52,2.089l-4.514,4.485a15.843,15.843,0,1,1-7.986-8.039l4.466-4.435a1.26,1.26,0,0,1,2.139.481Z" transform="translate(-24.475 -24.475)" fill="#ffd947" fill-rule="evenodd"/>
        <path id="Trazado_877939" data-name="Trazado 877939" d="M425.339,366.221v-18.58h-4.011v18.586Z" transform="translate(-328.494 -271.684)" fill="#62529b" fill-rule="evenodd"/>
        <path id="Trazado_877940" data-name="Trazado 877940" d="M396.388,381.584V367.555h-4.143v14.036Z" transform="translate(-306.072 -287.037)" fill="#7d6eb2" fill-rule="evenodd"/>
        <path id="Trazado_877941" data-name="Trazado 877941" d="M367.752,404.544v-7.223h-4.011v7.229Z" transform="translate(-284.096 -309.985)" fill="#26aab7" fill-rule="evenodd"/>
        <path id="Trazado_877942" data-name="Trazado 877942" d="M335.237,381.612l4.011-.006v-14.05h-4.011Z" transform="translate(-262.121 -287.037)" fill="#aee6e6" fill-rule="evenodd"/>
        <path id="Trazado_877943" data-name="Trazado 877943" d="M84.11,327.568a14.769,14.769,0,1,0-21.083,20.689,12.051,12.051,0,0,1,8.288-6.194,6.294,6.294,0,1,1,4.7,0,12.051,12.051,0,0,1,8.287,6.194A14.77,14.77,0,0,0,84.11,327.568Z" transform="translate(-48.997 -252.796)" fill="#ffd947" fill-rule="evenodd"/>
        <path id="Trazado_877944" data-name="Trazado 877944" d="M85.822,421.335a14.775,14.775,0,0,0,17.356,0,9.51,9.51,0,0,0-17.356,0Z" transform="translate(-69.83 -324.167)" fill="#aee6e6" fill-rule="evenodd"/>
      </g>
      <circle id="Elipse_11883" data-name="Elipse 11883" cx="3.782" cy="3.782" r="3.782" transform="matrix(0.555, -0.832, 0.832, 0.555, 35.428, 100.495)" fill="#aee6e6"/>
      <path id="Trazado_877945" data-name="Trazado 877945" d="M352.5,76.041,363.13,69.9l-10.636-6.144q-5.317,3.069-10.633,6.142Z" transform="translate(-251.228 -36.821)" fill="#62a880" fill-rule="evenodd"/>
      <path id="Trazado_877946" data-name="Trazado 877946" d="M404.412,100.068,393.785,106.2v12.284l10.627-6.138Z" transform="translate(-291.259 -64.814)" fill="#62a880" fill-rule="evenodd"/>
      <path id="Trazado_877947" data-name="Trazado 877947" d="M347.019,118.5V106.216l-10.627-6.136v12.278Z" transform="translate(-247.011 -64.823)" fill="#59836b" fill-rule="evenodd"/>
      <path id="Trazado_877948" data-name="Trazado 877948" d="M156.361,61.326l3.956-3.928-.615-2.067-3.956,3.928Z" transform="translate(-107.739 -30.323)" fill="#26aab7" fill-rule="evenodd"/>
      <path id="Trazado_877949" data-name="Trazado 877949" d="M91.539,74.245a1.26,1.26,0,0,1-.787-.023l-2.332-.712a10.8,10.8,0,1,1-3.947-3.973l-.711-2.4a1.262,1.262,0,0,1,0-.727,13.293,13.293,0,1,0,7.775,7.83Z" transform="translate(-38.376 -38.206)" fill="#aee6e6" fill-rule="evenodd"/>
      <path id="Trazado_877950" data-name="Trazado 877950" d="M170.106,72.119l-3.961,3.935,2.061.63,3.961-3.934Z" transform="translate(-115.757 -43.266)" fill="#aee6e6" fill-rule="evenodd"/>
      <path id="Trazado_877951" data-name="Trazado 877951" d="M102.561,90.96l-1.816,1.8a5.765,5.765,0,1,1-1.769-1.781l1.816-1.8a8.277,8.277,0,1,0,1.769,1.781Z" transform="translate(-55.197 -55.169)" fill="#26aab7" fill-rule="evenodd"/>
      <path id="Trazado_877952" data-name="Trazado 877952" d="M115.808,111.555l-2.126,2.111a1.255,1.255,0,0,1-1.77-1.78l2.127-2.112a3.245,3.245,0,1,0,1.769,1.781Z" transform="translate(-72.128 -72.107)" fill="#aee6e6" fill-rule="evenodd"/>
    </g>
  </g>
</svg>
