<svg xmlns="http://www.w3.org/2000/svg" width="129.737" height="122.746" viewBox="0 0 129.737 122.746">
  <g id="Grupo_1101902" data-name="Grupo 1101902" transform="translate(-652.995 -26392.961)">
    <path id="_12068" data-name="12068" d="M98.737,72.292c-13.285-1.834-27.318-1.386-39.407,4.421-16.765,8.052-27.775,26.309-28.2,44.9S40.4,158.479,55.36,169.523s34.7,14.959,53,11.643c18.453-3.344,35.773-14.186,45.4-30.28,6.172-10.321,9.057-23.065,5.647-34.6-2.059-6.961-6.267-13.128-11.217-18.437A82.875,82.875,0,0,0,98.737,72.292Z" transform="translate(621.876 26333.398)" fill="#26aab7"/>
    <g id="conocimiento-de-la-marca" transform="translate(662.525 26377.207)">
      <g id="Grupo_1100471" data-name="Grupo 1100471" transform="translate(2.162 29.339)">
        <path id="Trazado_877871" data-name="Trazado 877871" d="M10,78.6v71.667a4.9,4.9,0,0,0,4.9,4.9l75.888-.039a22.706,22.706,0,0,0-5.962-15.285A18.122,18.122,0,0,1,97.8,109.524c.173,0,.344-.006.514,0V78.6Z" transform="translate(-10 -78.602)" fill="#eaf0f0"/>
      </g>
      <g id="Grupo_1100478" data-name="Grupo 1100478" transform="translate(0 15.753)">
        <g id="Grupo_1100472" data-name="Grupo 1100472" transform="translate(15.271 25.404)">
          <path id="Trazado_877872" data-name="Trazado 877872" d="M70.645,133.276h18.2v18.683h-18.2Z" transform="translate(-70.645 -133.276)" fill="#00d5f5"/>
        </g>
        <g id="Grupo_1100473" data-name="Grupo 1100473" transform="translate(24.151 34.984)">
          <path id="Trazado_877873" data-name="Trazado 877873" d="M120.826,195.8a9.1,9.1,0,0,1-9.1-9.1v0a9.1,9.1,0,1,1,18.2,0v0A9.1,9.1,0,0,1,120.826,195.8Z" transform="translate(-111.725 -177.595)" fill="#ff7e96"/>
        </g>
        <g id="Grupo_1100474" data-name="Grupo 1100474" transform="translate(72.262 44.503)">
          <path id="Trazado_877874" data-name="Trazado 877874" d="M370.546,239.755a18.126,18.126,0,1,0-31.53,12.2,22.705,22.705,0,0,1,5.963,15.284h15.057a22.8,22.8,0,0,1,5.77-15.263,18.049,18.049,0,0,0,4.74-12.217Z" transform="translate(-334.294 -221.629)" fill="#ffce62"/>
        </g>
        <g id="Grupo_1100475" data-name="Grupo 1100475" transform="translate(82.947 90.109)">
          <path id="Trazado_877875" data-name="Trazado 877875" d="M395.814,444.206h-9.125a2.966,2.966,0,0,1-2.966-2.966v-8.628H398.78v8.628A2.966,2.966,0,0,1,395.814,444.206Z" transform="translate(-383.723 -432.612)" fill="#eaf0f0"/>
        </g>
        <g id="Grupo_1100476" data-name="Grupo 1100476" transform="translate(2.162 2.161)">
          <path id="Trazado_877876" data-name="Trazado 877876" d="M98.313,30.65a4.9,4.9,0,0,0-4.9-4.9H14.9a4.9,4.9,0,0,0-4.9,4.9v6.526H98.313Z" transform="translate(-10 -25.752)" fill="#5c90ae"/>
        </g>
        <g id="Grupo_1100477" data-name="Grupo 1100477">
          <path id="Trazado_877877" data-name="Trazado 877877" d="M62.807,146.283h6.929a11.28,11.28,0,0,0,11.052,9.1c13.505-.336,15.391-19.167,2.383-22.271v-7.675a2.162,2.162,0,0,0-2.162-2.162h-18.2a2.162,2.162,0,0,0-2.162,2.162v18.683A2.162,2.162,0,0,0,62.807,146.283Zm24.921-2.162a6.946,6.946,0,0,1-13.532,2.162h6.814a2.162,2.162,0,0,0,2.162-2.162V137.6A6.952,6.952,0,0,1,87.727,144.122ZM74.194,141.96a6.968,6.968,0,0,1,4.653-4.5v4.5ZM64.968,127.6H78.847v5.428a11.29,11.29,0,0,0-9.112,8.932H64.968Z" transform="translate(-47.536 -100.034)"/>
          <path id="Trazado_877878" data-name="Trazado 877878" d="M107.126,85.665a2.162,2.162,0,0,0-2.958.771,16.03,16.03,0,0,1-1.99,2.7A24.321,24.321,0,0,0,96.8,98.972V85.024a1.344,1.344,0,0,1,.3-.848l1.925-2.355a5.711,5.711,0,0,0-4.384-9.246H86.545a5.711,5.711,0,0,0-4.385,9.246l1.925,2.355a1.344,1.344,0,0,1,.3.848V99.956C83.281,95.468,80.913,92,78.032,88.483a15.962,15.962,0,1,1,26.122-18.189,2.162,2.162,0,0,0,3.725-2.194,20.327,20.327,0,0,0-15.243-9.879V22.813a7.067,7.067,0,0,0-7.058-7.06H7.058A7.067,7.067,0,0,0,0,22.813v78.192a7.066,7.066,0,0,0,7.059,7.058l73.726-.038v6.466a5.133,5.133,0,0,0,5.128,5.128h9.125a5.133,5.133,0,0,0,5.128-5.128c0-8.391-.893-15.77,5.2-22.434a20.376,20.376,0,0,0,2.527-3.433,2.162,2.162,0,0,0-.771-2.958ZM86.545,76.9H94.64a1.352,1.352,0,0,1,1.037,2.187l-1.925,2.355a5.68,5.68,0,0,0-1.278,3.583V103.7H88.711V85.024a5.679,5.679,0,0,0-1.278-3.584l-1.925-2.355A1.352,1.352,0,0,1,86.545,76.9ZM4.323,22.813a2.739,2.739,0,0,1,2.734-2.737H85.579a2.739,2.739,0,0,1,2.734,2.737v4.364H4.323ZM7.058,103.74a2.737,2.737,0,0,1-2.734-2.734V31.5h83.99V58.2a20.284,20.284,0,0,0-13.7,32.925c3.1,3.831,5.514,7.532,6.056,12.58Zm88.784,10.751a.805.805,0,0,1-.8.8H85.913a.805.805,0,0,1-.8-.8v-6.467H95.842v6.467Z" transform="translate(0 -15.753)"/>
          <path id="Trazado_877879" data-name="Trazado 877879" d="M62.856,303.8h46.892a2.162,2.162,0,0,0,0-4.323H62.856A2.162,2.162,0,0,0,62.856,303.8Z" transform="translate(-47.585 -238.145)"/>
          <path id="Trazado_877880" data-name="Trazado 877880" d="M148.147,353.424H108.2a2.162,2.162,0,0,0,0,4.323h39.949A2.162,2.162,0,0,0,148.147,353.424Z" transform="translate(-83.126 -280.432)"/>
          <path id="Trazado_877881" data-name="Trazado 877881" d="M236.858,141.952h24.275a2.162,2.162,0,0,0,0-4.323H236.858A2.162,2.162,0,0,0,236.858,141.952Z" transform="translate(-183.974 -111.284)"/>
          <path id="Trazado_877882" data-name="Trazado 877882" d="M236.858,195.9h19.379a2.162,2.162,0,0,0,0-4.323H236.858A2.162,2.162,0,0,0,236.858,195.9Z" transform="translate(-183.974 -153.571)"/>
          <path id="Trazado_877883" data-name="Trazado 877883" d="M236.858,249.849h11.705a2.162,2.162,0,0,0,0-4.323H236.858A2.162,2.162,0,0,0,236.858,249.849Z" transform="translate(-183.974 -195.858)"/>
          <path id="Trazado_877884" data-name="Trazado 877884" d="M64.817,355.042a2.161,2.161,0,1,0-3.326,2.531A2.178,2.178,0,0,0,64.817,355.042Z" transform="translate(-47.55 -280.679)"/>
          <path id="Trazado_877885" data-name="Trazado 877885" d="M496.333,297.228a2.184,2.184,0,0,0-2.542-1.7,2.161,2.161,0,0,0,.843,4.239A2.185,2.185,0,0,0,496.333,297.228Z" transform="translate(-385.699 -235.021)"/>
        </g>
      </g>
    </g>
  </g>
</svg>
