<svg xmlns="http://www.w3.org/2000/svg" width="129.737" height="118.158" viewBox="0 0 129.737 118.158">
  <g id="Grupo_1101907" data-name="Grupo 1101907" transform="translate(-264.264 -27379.639)">
    <path id="_12068" data-name="12068" d="M98.737,72.292c-13.285-1.834-27.318-1.386-39.407,4.421-16.765,8.052-27.775,26.309-28.2,44.9S40.4,158.479,55.36,169.523s34.7,14.959,53,11.643c18.453-3.344,35.773-14.186,45.4-30.28,6.172-10.321,9.057-23.065,5.647-34.6-2.059-6.961-6.267-13.128-11.217-18.437A82.875,82.875,0,0,0,98.737,72.292Z" transform="translate(233.145 27315.488)" fill="#26aab7"/>
    <g id="apreton-de-manos" transform="translate(278.116 27379.631)">
      <path id="Trazado_877953" data-name="Trazado 877953" d="M104.737,258.9l-5.364-2.548,4.486-20.919,13.643-3.378a14.331,14.331,0,0,1,11.841,2.3l10.682,8.727,13.99,14.676a4.485,4.485,0,0,1-6.343,6.343l-7.6-7.6L136.9,253.33l10.77,10.77a4.485,4.485,0,1,1-6.343,6.343l-7.6-7.6-3.172-3.172,10.77,10.77a4.485,4.485,0,1,1-6.343,6.343l-7.6-7.6Z" transform="translate(-79.544 -185.408)" fill="#ffd1c8"/>
      <path id="Trazado_877954" data-name="Trazado 877954" d="M227.609,241.117l-11.886,4.591a5.1,5.1,0,0,1-4.856-8.858l8.2-6.034a8.394,8.394,0,0,1,6.959-1.4l17.853,4.343,5.946,20.462-7.092,3.483Z" transform="translate(-167.127 -183.444)" fill="#ffcaa6"/>
      <g id="Grupo_1100540" data-name="Grupo 1100540" transform="translate(23.879 69.173)">
        <path id="Trazado_877955" data-name="Trazado 877955" d="M130.331,347.935a4.485,4.485,0,0,0-6.343,0l-3.007,3.007a4.485,4.485,0,0,0,6.343,6.343l3.007-3.007A4.485,4.485,0,0,0,130.331,347.935Z" transform="translate(-119.668 -346.622)" fill="#ffcaa6"/>
        <path id="Trazado_877956" data-name="Trazado 877956" d="M162.119,379.722a4.485,4.485,0,0,0-6.343,0l-3.007,3.007a4.485,4.485,0,0,0,6.343,6.343l3.007-3.007A4.485,4.485,0,0,0,162.119,379.722Z" transform="translate(-145.112 -372.066)" fill="#ffcaa6"/>
        <path id="Trazado_877957" data-name="Trazado 877957" d="M193.907,411.51a4.485,4.485,0,0,0-6.343,0l-3.007,3.007a4.485,4.485,0,1,0,6.343,6.343l3.007-3.007A4.486,4.486,0,0,0,193.907,411.51Z" transform="translate(-170.557 -397.51)" fill="#ffcaa6"/>
        <path id="Trazado_877958" data-name="Trazado 877958" d="M225.694,443.3a4.485,4.485,0,0,0-6.343,0l-3.007,3.007a4.485,4.485,0,0,0,6.343,6.343l3.007-3.007A4.485,4.485,0,0,0,225.694,443.3Z" transform="translate(-196.001 -422.955)" fill="#ffcaa6"/>
      </g>
      <path id="Trazado_877959" data-name="Trazado 877959" d="M10,166.118l23.421,12.163-6.888,28.948L10,201.992Z" transform="translate(-8.005 -132.963)" fill="#33d7f6"/>
      <path id="Trazado_877960" data-name="Trazado 877960" d="M408.052,166.118l-23.421,12.163,6.888,28.948,16.532-5.236Z" transform="translate(-307.879 -132.963)" fill="#ff7d99"/>
      <g id="XMLID_1_" transform="translate(57.305 2.003)">
        <path id="XMLID_3_" d="M299.6,83.063h4.3a12.419,12.419,0,0,1,12.419,12.419v2.15H287.178v-2.15A12.419,12.419,0,0,1,299.6,83.063Z" transform="translate(-287.178 -68.485)" fill="#ff7d99"/>
        <path id="XMLID_2_" d="M335.869,10.007a6.06,6.06,0,0,1,6.06,6.06v2.457a6.06,6.06,0,0,1-12.12,0V16.067a6.06,6.06,0,0,1,6.06-6.06Z" transform="translate(-321.302 -10.007)" fill="#ffcaa6"/>
      </g>
      <g id="XMLID_580_" transform="translate(15.729 2.003)">
        <path id="XMLID_585_" d="M95.537,83.063h-4.3A12.419,12.419,0,0,0,78.822,95.482v2.15h29.134v-2.15A12.419,12.419,0,0,0,95.537,83.063Z" transform="translate(-78.822 -68.485)" fill="#33d7f6"/>
        <path id="XMLID_582_" d="M127.511,10.007a6.06,6.06,0,0,0-6.06,6.06v2.457a6.06,6.06,0,1,0,12.12,0V16.067a6.06,6.06,0,0,0-6.06-6.06Z" transform="translate(-112.945 -10.007)" fill="#ffd1c8"/>
      </g>
      <g id="Grupo_1100541" data-name="Grupo 1100541" transform="translate(35.041 2.003)">
        <g id="XMLID_1362_">
          <path id="XMLID_579_" d="M194.011,90.467H189.28A13.678,13.678,0,0,0,175.6,104.144v2.368h32.086v-2.368a13.678,13.678,0,0,0-13.677-13.677Z" transform="translate(-175.602 -74.412)" fill="#ffd947"/>
          <path id="XMLID_1364_" d="M229.226,10.007a6.674,6.674,0,0,0-6.674,6.674v2.706a6.674,6.674,0,1,0,13.349,0V16.682A6.675,6.675,0,0,0,229.226,10.007Z" transform="translate(-213.183 -10.007)" fill="#ffd947"/>
        </g>
      </g>
      <g id="Grupo_1100542" data-name="Grupo 1100542" transform="translate(0 0.008)">
        <path id="Trazado_877961" data-name="Trazado 877961" d="M101.208,156.408a2,2,0,0,0-1.956-.065L75.832,168.506a2,2,0,0,0-1.022,2.233l.509,2.139L59.37,169a10.363,10.363,0,0,0-8.613,1.726l-1.025.755a16.291,16.291,0,0,0-12.253-1.807l-10.486,2.6.364-1.529a2,2,0,0,0-1.022-2.233L2.915,156.343A2,2,0,0,0,0,158.114v35.874a2,2,0,0,0,1.393,1.9l16.532,5.236a2,2,0,0,0,2.544-1.44l.271-1.139,1.579.75a6.472,6.472,0,0,0,5.915,8.8,6.463,6.463,0,0,0,6.343,6.343,6.463,6.463,0,0,0,6.343,6.343,6.479,6.479,0,0,0,11.057,4.451l3.007-3.007a6.44,6.44,0,0,0,1.67-2.889,6.471,6.471,0,0,0,8.434-6.043,6.463,6.463,0,0,0,6.343-6.34,6.477,6.477,0,0,0,6.349-6.477c0-.033,0-.066,0-.1l3.659-1.8.262,1.1a2,2,0,0,0,2.544,1.44l16.532-5.236a2,2,0,0,0,1.393-1.9V158.114a1.992,1.992,0,0,0-.958-1.705ZM3.991,192.527V161.4l19.123,9.931-6.031,25.344ZM26.6,199.864l3.007-3.007a2.49,2.49,0,1,1,3.521,3.521l-3.007,3.007a2.49,2.49,0,0,1-3.521-3.521Zm6.343,6.343,3.007-3.007a2.49,2.49,0,1,1,3.521,3.521l-3.007,3.007a2.49,2.49,0,0,1-3.521-3.521Zm6.343,6.343,3.007-3.007a2.49,2.49,0,0,1,3.521,3.521l-3.007,3.007a2.49,2.49,0,1,1-3.521-3.521Zm12.871,6.857-3.007,3.007a2.49,2.49,0,0,1-3.521-3.521l3.007-3.007a2.49,2.49,0,0,1,3.521,3.521Zm20.9-17.167a2.49,2.49,0,0,1-3.52,0h0l-10.77-10.77a2,2,0,1,0-2.822,2.822l10.77,10.77a2.49,2.49,0,1,1-3.521,3.521l-10.77-10.77a2,2,0,0,0-2.822,2.822l10.77,10.77a2.49,2.49,0,1,1-3.521,3.521l-8.212-8.205a6.456,6.456,0,0,0-4.451-1.892,6.463,6.463,0,0,0-6.34-6.343,6.479,6.479,0,0,0-11.06-4.451l-2.011,2.011-3.093-1.469,4.269-17.941,12.485-3.091a12.309,12.309,0,0,1,7.693.583l-3.574,2.63a7.088,7.088,0,0,0,4.223,12.8,7.028,7.028,0,0,0,2.534-.472l10.642-4.11,13.1,13.745A2.492,2.492,0,0,1,73.06,202.24Zm3.412-5.665c-.175-.23-14.546-15.32-14.546-15.32a2,2,0,0,0-2.163-.484h0l-11.886,4.591a3.1,3.1,0,0,1-2.954-5.389l8.2-6.034a6.384,6.384,0,0,1,5.3-1.063l17.853,4.343c.025.006.05.009.076.014l4.133,17.37Zm21.7-4.049-13.092,4.147L79.053,171.33,98.177,161.4Z" transform="translate(0 -124.967)"/>
        <path id="Trazado_877962" data-name="Trazado 877962" d="M70.816,33.146H88.132V34.1a2,2,0,0,0,2,2h7.064a2,2,0,0,0,0-3.991H92.123v-.372a11.7,11.7,0,0,1,11.682-11.682h.37V22.78a2,2,0,0,0,3.991,0V20.054h.37a11.7,11.7,0,0,1,11.682,11.682v.372h-5.068a2,2,0,1,0,0,3.991h7.064a2,2,0,0,0,2-2v-.958h17.317a2,2,0,0,0,2-2V29a14.439,14.439,0,0,0-10.055-13.739,8.01,8.01,0,0,0,1.548-4.74V8.064a8.056,8.056,0,0,0-16.112,0v2.457a8.009,8.009,0,0,0,1.545,4.737,14.283,14.283,0,0,0-4.729,2.556,15.567,15.567,0,0,0-2.719-1.1,8.625,8.625,0,0,0,1.84-5.33V8.678a8.67,8.67,0,1,0-17.34,0v2.706a8.624,8.624,0,0,0,1.84,5.33,15.568,15.568,0,0,0-2.719,1.1,14.283,14.283,0,0,0-4.729-2.556,8.01,8.01,0,0,0,1.545-4.737V8.064a8.056,8.056,0,0,0-16.112,0v2.457a8.01,8.01,0,0,0,1.548,4.74A14.439,14.439,0,0,0,68.82,29v2.15a2,2,0,0,0,2,2ZM122.895,8.064a4.065,4.065,0,0,1,8.13,0v2.457a4.065,4.065,0,1,1-8.13,0Zm1.917,10.513h.152v1.842a2,2,0,1,0,3.991,0V18.577h.152A10.435,10.435,0,0,1,139.531,29v.154H123.993a15.657,15.657,0,0,0-4.824-8.92,10.352,10.352,0,0,1,5.642-1.658Zm-23.32-9.9a4.679,4.679,0,1,1,9.358,0v2.706a4.679,4.679,0,1,1-9.358,0ZM81.318,8.064a4.065,4.065,0,0,1,8.13,0v2.457a4.065,4.065,0,1,1-8.13,0ZM72.811,29A10.435,10.435,0,0,1,83.235,18.577h.152v1.842a2,2,0,0,0,3.991,0V18.577h.152a10.351,10.351,0,0,1,5.642,1.658,15.657,15.657,0,0,0-4.824,8.92H72.811Z" transform="translate(-55.087 -0.008)"/>
        <circle id="Elipse_11884" data-name="Elipse 11884" cx="1.995" cy="1.995" r="1.995" transform="translate(49.088 32.1)"/>
      </g>
    </g>
  </g>
</svg>
