<svg xmlns="http://www.w3.org/2000/svg" width="129.737" height="122.744" viewBox="0 0 129.737 122.744">
  <g id="Grupo_1101899" data-name="Grupo 1101899" transform="translate(-652.995 -25949.064)">
    <path id="_12068" data-name="12068" d="M98.737,72.292c-13.285-1.834-27.318-1.386-39.407,4.421-16.765,8.052-27.775,26.309-28.2,44.9S40.4,158.479,55.36,169.523s34.7,14.959,53,11.643c18.453-3.344,35.773-14.186,45.4-30.28,6.172-10.321,9.057-23.065,5.647-34.6-2.059-6.961-6.267-13.128-11.217-18.437A82.875,82.875,0,0,0,98.737,72.292Z" transform="translate(621.876 25889.5)" fill="#26aab7"/>
    <g id="plan" transform="translate(663.109 25935.869)">
      <g id="Grupo_1100449" data-name="Grupo 1100449" transform="translate(1.604 14.799)">
        <path id="Trazado_877832" data-name="Trazado 877832" d="M27.012,128.61h93.052a1.206,1.206,0,0,0,1.2-1.2V59.939H25.812v67.474A1.209,1.209,0,0,0,27.012,128.61Z" transform="translate(-21.895 -51.545)" fill="#99e6fc" fill-rule="evenodd"/>
        <path id="Trazado_877833" data-name="Trazado 877833" d="M25.812,70.176h86.225c3.789,0,3.3,1.506,3.3,5.164v55.011h4.723a1.206,1.206,0,0,0,1.2-1.2v-67H25.812Z" transform="translate(-21.895 -53.286)" fill="#62dbfb" fill-rule="evenodd"/>
        <path id="Trazado_877834" data-name="Trazado 877834" d="M11.417,31.7h97.605a1.774,1.774,0,0,0,1.77-1.766V22.461a1.774,1.774,0,0,0-1.77-1.766H9.27A1.77,1.77,0,0,0,7.5,22.461v7.474A1.77,1.77,0,0,0,9.27,31.7Z" transform="translate(-7.5 -20.695)" fill="#d77f4a" fill-rule="evenodd"/>
        <path id="Trazado_877835" data-name="Trazado 877835" d="M415.561,22.461v7.474a1.774,1.774,0,0,1-1.77,1.766h14.624a1.774,1.774,0,0,0,1.77-1.766V22.461a1.774,1.774,0,0,0-1.77-1.766H413.791A1.77,1.77,0,0,1,415.561,22.461Z" transform="translate(-326.893 -20.695)" fill="#c86d36" fill-rule="evenodd"/>
        <path id="Trazado_877836" data-name="Trazado 877836" d="M378.474,142.129a4.75,4.75,0,1,1,4.759-4.747A4.755,4.755,0,0,1,378.474,142.129Z" transform="translate(-295.383 -108.688)" fill="#fd4755" fill-rule="evenodd"/>
        <path id="Trazado_877837" data-name="Trazado 877837" d="M74.483,149.1c-.006,8.254,5.954,9.246,5.954,16.92H92.974c0-7.674,5.966-8.666,5.96-16.92-.012-8.206-6.117-12.312-12.229-12.312S74.5,140.892,74.483,149.1Z" transform="translate(-60.157 -111.956)" fill="#ffd15b" fill-rule="evenodd"/>
        <path id="Trazado_877838" data-name="Trazado 877838" d="M108.589,273.459H102.32v4.59a4.613,4.613,0,0,0,4.6,4.59h3.341a4.607,4.607,0,0,0,4.6-4.59v-4.59Z" transform="translate(-82.04 -219.397)" fill="#004281" fill-rule="evenodd"/>
        <path id="Trazado_877839" data-name="Trazado 877839" d="M129.154,149.1c.012,8.254-5.954,9.246-5.954,16.92h5.184c0-7.674,5.966-8.666,5.96-16.92-.012-8.206-6.117-12.312-12.229-12.312a13.273,13.273,0,0,0-2.589.254C124.655,138.038,129.148,142.059,129.154,149.1Z" transform="translate(-95.566 -111.956)" fill="#ffc344" fill-rule="evenodd"/>
        <path id="Trazado_877840" data-name="Trazado 877840" d="M128.384,273.459H123.2v4.59a4.605,4.605,0,0,1-3.674,4.493,4.622,4.622,0,0,0,.922.1h3.341a4.607,4.607,0,0,0,4.6-4.59v-4.59Z" transform="translate(-95.566 -219.397)" fill="#00366d" fill-rule="evenodd"/>
        <path id="Trazado_877841" data-name="Trazado 877841" d="M362.7,291.1a15.119,15.119,0,0,0-4.013-1.663V287.8a1.429,1.429,0,0,0-1.425-1.421h-4.753a1.424,1.424,0,0,0-1.419,1.421v1.633a15.075,15.075,0,0,0-4.02,1.663l-1.158-1.161a1.433,1.433,0,0,0-2.013,0l-3.359,3.35a1.413,1.413,0,0,0,0,2.008l1.158,1.161a15.355,15.355,0,0,0-1.667,4H338.4a1.429,1.429,0,0,0-1.425,1.421v4.741a1.424,1.424,0,0,0,1.425,1.415h1.637a15.4,15.4,0,0,0,1.667,4.009l-1.158,1.155a1.413,1.413,0,0,0,0,2.008l3.359,3.35a1.433,1.433,0,0,0,2.013,0l1.158-1.155a15.268,15.268,0,0,0,4.02,1.657V320.7a1.419,1.419,0,0,0,1.419,1.415h4.753a1.424,1.424,0,0,0,1.425-1.415v-1.639A15.3,15.3,0,0,0,362.7,317.4l1.158,1.155a1.433,1.433,0,0,0,2.013,0l3.359-3.35a1.414,1.414,0,0,0,0-2.008l-1.158-1.155a15.271,15.271,0,0,0,1.667-4.009h1.637a1.424,1.424,0,0,0,1.425-1.415v-4.741a1.429,1.429,0,0,0-1.425-1.421h-1.637a15.158,15.158,0,0,0-1.667-4l1.158-1.161a1.414,1.414,0,0,0,0-2.008l-3.359-3.35a1.433,1.433,0,0,0-2.013,0Z" transform="translate(-266.505 -229.555)" fill="#3c87d0" fill-rule="evenodd"/>
        <path id="Trazado_877842" data-name="Trazado 877842" d="M388.364,344.545a6.924,6.924,0,1,0,6.924-6.906A6.915,6.915,0,0,0,388.364,344.545Z" transform="translate(-306.904 -269.85)" fill="#f2fbff" fill-rule="evenodd"/>
        <path id="Trazado_877843" data-name="Trazado 877843" d="M414.384,344.194a6.909,6.909,0,0,1-5.553,6.767,6.907,6.907,0,1,0,2.546-13.322,7.24,7.24,0,0,0-1.364.133A6.916,6.916,0,0,1,414.384,344.194Z" transform="translate(-322.993 -269.85)" fill="#dff6fd" fill-rule="evenodd"/>
        <path id="Trazado_877844" data-name="Trazado 877844" d="M443.555,301.306a22.216,22.216,0,0,1,0,28.984,15.339,15.339,0,0,0,2.934-1.336l1.158,1.155a1.433,1.433,0,0,0,2.013,0l3.359-3.35a1.413,1.413,0,0,0,0-2.008l-1.158-1.155a15.27,15.27,0,0,0,1.667-4.009h1.637a1.424,1.424,0,0,0,1.425-1.415V313.43a1.429,1.429,0,0,0-1.425-1.421h-1.637a15.153,15.153,0,0,0-1.667-4l1.158-1.161a1.413,1.413,0,0,0,0-2.008l-3.359-3.35a1.433,1.433,0,0,0-2.013,0l-1.158,1.161A15.357,15.357,0,0,0,443.555,301.306Z" transform="translate(-350.291 -241.106)" fill="#4f66d0" fill-rule="evenodd"/>
      </g>
      <g id="Grupo_1100450" data-name="Grupo 1100450" transform="translate(0 13.195)">
        <path id="Trazado_877845" data-name="Trazado 877845" d="M209.448,145.871a1.6,1.6,0,0,0-2.268,0l-2.837,2.829a2.628,2.628,0,0,0,0,3.706l2.837,2.83a1.6,1.6,0,0,0,2.265-2.272l-.806-.8h33.728a3.97,3.97,0,0,0,3.969-3.962V137.634a6.369,6.369,0,1,0-3.208,0V148.2a.767.767,0,0,1-.76.754H208.633l.812-.81A1.6,1.6,0,0,0,209.448,145.871Zm32.122-14.384a3.158,3.158,0,1,1,3.161,3.143A3.159,3.159,0,0,1,241.57,131.487Z" transform="translate(-160.036 -101.189)"/>
        <path id="Trazado_877846" data-name="Trazado 877846" d="M251.155,280.792a1.6,1.6,0,0,0-2.268,0l-1.638,1.634-1.638-1.634a1.6,1.6,0,0,0-2.265,2.272l1.632,1.628-1.632,1.628a1.6,1.6,0,0,0,2.265,2.272l1.638-1.634,1.638,1.634a1.6,1.6,0,1,0,2.265-2.272l-1.632-1.628,1.632-1.628A1.6,1.6,0,0,0,251.155,280.792Z" transform="translate(-190.928 -223.187)"/>
        <path id="Trazado_877847" data-name="Trazado 877847" d="M79.142,170.9h3.341a6.2,6.2,0,0,0,6.2-6.194v-4.59c0-3.281,1.219-5.11,2.63-7.229,1.562-2.345,3.333-5,3.329-9.694a13.563,13.563,0,0,0-4.361-10.426,14.6,14.6,0,0,0-18.938,0,13.566,13.566,0,0,0-4.36,10.427c0,4.689,1.765,7.347,3.326,9.692,1.41,2.119,2.628,3.948,2.628,7.229v4.59A6.207,6.207,0,0,0,79.142,170.9Zm6.332-6.194a2.992,2.992,0,0,1-2.992,2.986H79.142a3,3,0,0,1-3-2.986v-2.986h9.33ZM70.19,143.2c.011-7.359,5.512-10.71,10.618-10.71s10.614,3.352,10.625,10.709c0,3.717-1.355,5.755-2.791,7.911a15.6,15.6,0,0,0-3.082,7.4H82.413v-11.51h1.1a1.6,1.6,0,0,0,0-3.208h-5.4a1.6,1.6,0,1,0,0,3.208H79.2v11.51H76.058a15.612,15.612,0,0,0-3.079-7.4C71.544,148.958,70.188,146.92,70.19,143.2Z" transform="translate(-52.656 -104.455)"/>
        <path id="Trazado_877848" data-name="Trazado 877848" d="M283.339,175.069a1.6,1.6,0,0,0,2.268,0l1.638-1.634,1.638,1.634a1.6,1.6,0,0,0,2.265-2.272l-1.632-1.628,1.632-1.628a1.6,1.6,0,0,0-2.265-2.272l-1.638,1.634-1.638-1.634a1.6,1.6,0,0,0-2.266,2.272l1.632,1.628-1.632,1.628A1.6,1.6,0,0,0,283.339,175.069Z" transform="translate(-222.369 -133.951)"/>
        <path id="Trazado_877849" data-name="Trazado 877849" d="M106.479,84.1h-.44a16.775,16.775,0,0,0-.882-2.115l.3-.3a3.017,3.017,0,0,0,.006-4.285l-2.887-2.88V27.409h.548a3.376,3.376,0,0,0,3.374-3.37V16.565a3.376,3.376,0,0,0-3.374-3.37H3.374A3.376,3.376,0,0,0,0,16.565v7.474a3.376,3.376,0,0,0,3.374,3.37h.542V57.9a1.6,1.6,0,0,0,3.208,0V27.409H49.173a1.6,1.6,0,1,0,0-3.208H3.374a.166.166,0,0,1-.166-.162V16.565a.166.166,0,0,1,.166-.162h99.752a.17.17,0,0,1,.166.162v7.474a.17.17,0,0,1-.166.162H56.576a1.6,1.6,0,0,0,0,3.208H99.37V73.227a3.045,3.045,0,0,0-1.545.82l-.31.311a16.721,16.721,0,0,0-2.122-.878v-.434a3.03,3.03,0,0,0-3.029-3.025H87.611a3.027,3.027,0,0,0-3.023,3.025v.433a16.728,16.728,0,0,0-2.128.879l-.319-.32a3.042,3.042,0,0,0-4.272.006l-3.359,3.35a3.018,3.018,0,0,0,0,4.276l.312.313a16.965,16.965,0,0,0-.88,2.114H73.5a3.031,3.031,0,0,0-3.029,3.025V90.26H7.125V65.293a1.6,1.6,0,1,0-3.208,0V90.667a2.806,2.806,0,0,0,2.8,2.8H51.643v11.086a6.368,6.368,0,1,0,3.208,0V93.468H70.936A3.029,3.029,0,0,0,73.5,94.883h.443A17.085,17.085,0,0,0,74.82,97l-.3.3a3.018,3.018,0,0,0-.006,4.285l3.359,3.35a3.044,3.044,0,0,0,4.278,0l.312-.311a16.91,16.91,0,0,0,2.128.878v.439a3.024,3.024,0,0,0,3.023,3.019h4.753a3.027,3.027,0,0,0,3.029-3.019v-.44a16.909,16.909,0,0,0,2.122-.876l.319.318a3.042,3.042,0,0,0,4.272-.006l3.359-3.35a3.017,3.017,0,0,0,0-4.279L105.157,97a16.914,16.914,0,0,0,.882-2.117h.44a3.027,3.027,0,0,0,3.029-3.019V87.123a3.031,3.031,0,0,0-3.03-3.025Zm-50.07,26.609a3.158,3.158,0,1,1-3.161-3.149A3.155,3.155,0,0,1,56.408,110.707ZM106.3,91.675h-1.458a1.6,1.6,0,0,0-1.554,1.208,13.689,13.689,0,0,1-1.493,3.588,1.6,1.6,0,0,0,.248,1.953l1.026,1.023-3.1,3.092-1.032-1.029a1.6,1.6,0,0,0-1.95-.245,13.691,13.691,0,0,1-3.593,1.483,1.6,1.6,0,0,0-1.208,1.554v1.449H87.8V104.3a1.6,1.6,0,0,0-1.21-1.555,13.657,13.657,0,0,1-3.6-1.483,1.6,1.6,0,0,0-1.95.245l-1.032,1.029-3.1-3.092,1.026-1.023a1.6,1.6,0,0,0,.248-1.953,13.908,13.908,0,0,1-1.495-3.595,1.6,1.6,0,0,0-1.553-1.2H73.677V87.306h1.458a1.6,1.6,0,0,0,1.553-1.2,13.78,13.78,0,0,1,1.493-3.586,1.6,1.6,0,0,0-.243-1.953l-1.029-1.031,3.1-3.092,1.029,1.032a1.6,1.6,0,0,0,1.957.245,13.472,13.472,0,0,1,3.592-1.486,1.6,1.6,0,0,0,1.21-1.555V73.229h4.388v1.449a1.6,1.6,0,0,0,1.208,1.554,13.512,13.512,0,0,1,3.588,1.486,1.6,1.6,0,0,0,1.957-.245l1.029-1.032,3.1,3.092-1.029,1.031a1.6,1.6,0,0,0-.243,1.953,13.56,13.56,0,0,1,1.492,3.58,1.6,1.6,0,0,0,1.554,1.208H106.3Z" transform="translate(0 -13.195)"/>
        <path id="Trazado_877850" data-name="Trazado 877850" d="M389.392,330.139a8.507,8.507,0,1,0,8.528,8.51A8.529,8.529,0,0,0,389.392,330.139Zm0,13.806a5.3,5.3,0,1,1,5.32-5.3A5.314,5.314,0,0,1,389.392,343.945Z" transform="translate(-299.404 -262.35)"/>
      </g>
    </g>
  </g>
</svg>
