<svg xmlns="http://www.w3.org/2000/svg" width="129.737" height="118.16" viewBox="0 0 129.737 118.16">
  <g id="Grupo_1101908" data-name="Grupo 1101908" transform="translate(-873 -27379.637)">
    <path id="_12068" data-name="12068" d="M98.737,72.292c-13.285-1.834-27.318-1.386-39.407,4.421-16.765,8.052-27.775,26.309-28.2,44.9S40.4,158.479,55.36,169.523s34.7,14.959,53,11.643c18.453-3.344,35.773-14.186,45.4-30.28,6.172-10.321,9.057-23.065,5.647-34.6-2.059-6.961-6.267-13.128-11.217-18.437A82.875,82.875,0,0,0,98.737,72.292Z" transform="translate(841.881 27315.488)" fill="#26aab7"/>
    <g id="_360-grados" data-name="360-grados" transform="translate(882.001 27379.637)">
      <path id="Trazado_877963" data-name="Trazado 877963" d="M115.973,61.746A54.227,54.227,0,1,1,61.746,7.52,54.227,54.227,0,0,1,115.973,61.746Zm0,0" transform="translate(-5.879 -5.879)" fill="#ddd"/>
      <path id="Trazado_877964" data-name="Trazado 877964" d="M173.724,61.746c0-29.948-14.265-54.227-31.862-54.227S110,31.8,110,61.746s14.265,54.227,31.862,54.227S173.724,91.694,173.724,61.746Zm0,0" transform="translate(-85.994 -5.879)" fill="#ffdb56"/>
      <path id="Trazado_877965" data-name="Trazado 877965" d="M115.973,141.862c0-17.6-24.278-31.862-54.227-31.862S7.52,124.265,7.52,141.862,31.8,173.724,61.746,173.724,115.973,159.459,115.973,141.862Zm0,0" transform="translate(-5.879 -85.994)" fill="#ffdb56"/>
      <path id="Trazado_877966" data-name="Trazado 877966" d="M115.973,241.888a19.185,19.185,0,0,0-.413-3.939c-3.3,15.738-26.136,27.923-53.814,27.923S11.235,253.687,7.932,237.949a19.185,19.185,0,0,0-.413,3.939c0,17.6,24.278,31.862,54.227,31.862S115.973,259.485,115.973,241.888Zm0,0" transform="translate(-5.879 -186.021)" fill="#ffc41f"/>
      <path id="Trazado_877967" data-name="Trazado 877967" d="M114.389,114.389a88.19,88.19,0,0,0,0,54.947,88.191,88.191,0,0,0,54.947,0,88.191,88.191,0,0,0,0-54.947,88.19,88.19,0,0,0-54.947,0Zm0,0" transform="translate(-85.994 -85.994)" fill="#ffc41f"/>
      <path id="Trazado_877968" data-name="Trazado 877968" d="M176.326,350.458a75.915,75.915,0,0,0,2.437-8.774,87.292,87.292,0,0,1-59.821,0,75.915,75.915,0,0,0,2.437,8.774,88.191,88.191,0,0,0,54.947,0Zm0,0" transform="translate(-92.984 -267.117)" fill="#ffb600"/>
      <path id="Trazado_877969" data-name="Trazado 877969" d="M241.888,7.52a19.185,19.185,0,0,0-3.939.413c15.738,3.3,27.923,26.136,27.923,53.814s-12.185,50.511-27.923,53.814a19.185,19.185,0,0,0,3.939.413c17.6,0,31.862-24.278,31.862-54.227S259.485,7.52,241.888,7.52Zm0,0" transform="translate(-186.021 -5.879)" fill="#ffc41f"/>
      <path id="Trazado_877970" data-name="Trazado 877970" d="M350.458,121.379a75.915,75.915,0,0,0-8.774-2.437,87.292,87.292,0,0,1,0,59.821,75.915,75.915,0,0,0,8.774-2.437,88.191,88.191,0,0,0,0-54.947Zm0,0" transform="translate(-267.117 -92.984)" fill="#ffb600"/>
      <path id="Trazado_877971" data-name="Trazado 877971" d="M95.372,16.363A55.868,55.868,0,0,0,16.363,95.372,55.871,55.871,0,0,0,91.728,98.71a1.641,1.641,0,0,0-2.108-2.516,52.532,52.532,0,0,1-19.431,10.266,40.2,40.2,0,0,0,9.624-11.416,61.784,61.784,0,0,0,4.822-10.409,61.784,61.784,0,0,0,10.409-4.822,40.162,40.162,0,0,0,11.44-9.655A52.406,52.406,0,0,1,94.3,91.762,1.641,1.641,0,1,0,96.7,94a55.869,55.869,0,0,0-1.323-77.641Zm-2.321,2.321A52.289,52.289,0,0,1,106.5,41.6a40.146,40.146,0,0,0-11.461-9.682,61.73,61.73,0,0,0-10.4-4.817A60.687,60.687,0,0,0,79.07,15.468a1.641,1.641,0,0,0-2.782,1.741A54.829,54.829,0,0,1,80.6,25.785a88.088,88.088,0,0,0-24.735-3.421,88.084,88.084,0,0,0-24.74,3.423,52.312,52.312,0,0,1,6.037-11.127c5.4-7.442,11.871-11.376,18.7-11.376,5.9,0,11.628,3.008,16.575,8.7A1.642,1.642,0,0,0,74.92,9.825a34.55,34.55,0,0,0-4.818-4.6A52.3,52.3,0,0,1,93.051,18.685ZM24.26,48.793a1.639,1.639,0,0,0-1.735,1.543c-.107,1.826-.161,3.687-.161,5.532a88.059,88.059,0,0,0,3.427,24.755,56.836,56.836,0,0,1-7.435-3.64C8.636,71.271,3.283,63.773,3.283,55.868s5.353-15.4,15.073-21.115a56.781,56.781,0,0,1,7.457-3.648A82.8,82.8,0,0,0,23.159,43.67a1.641,1.641,0,0,0,1.412,1.843,1.713,1.713,0,0,0,.217.014A1.642,1.642,0,0,0,26.414,44.1,78.3,78.3,0,0,1,29.7,29.671a83.411,83.411,0,0,1,26.168-4.025,83.424,83.424,0,0,1,26.158,4.021,84.065,84.065,0,0,1,4.063,26.2,83.4,83.4,0,0,1-4.031,26.189,83.4,83.4,0,0,1-26.19,4.031,83.4,83.4,0,0,1-26.189-4.031,83.4,83.4,0,0,1-4.031-26.189c0-1.782.052-3.579.155-5.341A1.642,1.642,0,0,0,24.26,48.793ZM18.685,18.685A52.289,52.289,0,0,1,41.679,5.21a36.615,36.615,0,0,0-7.17,7.521,57.679,57.679,0,0,0-7.387,14.363,61.8,61.8,0,0,0-10.43,4.828A40.147,40.147,0,0,0,5.232,41.6,52.289,52.289,0,0,1,18.685,18.685Zm0,74.366A52.289,52.289,0,0,1,5.232,70.13a40.147,40.147,0,0,0,11.461,9.682A61.762,61.762,0,0,0,27.1,84.634a61.781,61.781,0,0,0,4.821,10.409A40.146,40.146,0,0,0,41.6,106.5,52.289,52.289,0,0,1,18.685,93.051Zm58.3.329c-5.712,9.72-13.21,15.073-21.115,15.073S40.464,103.1,34.753,93.38a56.838,56.838,0,0,1-3.64-7.435,88.091,88.091,0,0,0,24.755,3.426,88.053,88.053,0,0,0,24.754-3.427A56.686,56.686,0,0,1,76.983,93.38Zm16.4-16.4a56.727,56.727,0,0,1-7.435,3.639,88.084,88.084,0,0,0,3.426-24.754,87.966,87.966,0,0,0-3.415-24.75,56.779,56.779,0,0,1,7.424,3.635c9.72,5.712,15.073,13.21,15.073,21.115S103.1,71.271,93.38,76.983Zm0,0" transform="translate(0 0)"/>
      <path id="Trazado_877972" data-name="Trazado 877972" d="M152.564,236.006a1.641,1.641,0,1,0,0,3.283h7.7a1.641,1.641,0,0,0,1.641-1.642V221a1.641,1.641,0,0,0-1.641-1.642h-7.7a1.641,1.641,0,1,0,0,3.283h6.063v5.042h-6.063a1.641,1.641,0,1,0,0,3.283h6.063v5.042Zm0,0" transform="translate(-117.986 -171.485)"/>
      <path id="Trazado_877973" data-name="Trazado 877973" d="M286.4,239.289h8.325a1.641,1.641,0,0,0,1.641-1.642V221a1.641,1.641,0,0,0-1.641-1.642H286.4A1.641,1.641,0,0,0,284.758,221v16.651A1.641,1.641,0,0,0,286.4,239.289Zm6.683-9.966v6.683h-5.042V222.638h5.042Zm0,0" transform="translate(-222.614 -171.485)"/>
      <path id="Trazado_877974" data-name="Trazado 877974" d="M219.2,239.289h8.324a1.642,1.642,0,0,0,1.642-1.642v-8.324a1.642,1.642,0,0,0-1.642-1.642h-6.683v-5.042h6.683a1.641,1.641,0,1,0,0-3.283H219.2A1.642,1.642,0,0,0,217.562,221v16.651A1.641,1.641,0,0,0,219.2,239.289Zm1.641-8.325h5.042v5.042h-5.042Zm0,0" transform="translate(-170.083 -171.485)"/>
      <path id="Trazado_877975" data-name="Trazado 877975" d="M334.642,177.642a4.52,4.52,0,1,0-4.521-4.52A4.526,4.526,0,0,0,334.642,177.642Zm0-5.758a1.237,1.237,0,1,1-1.238,1.238A1.239,1.239,0,0,1,334.642,171.884Zm0,0" transform="translate(-258.078 -131.807)"/>
    </g>
  </g>
</svg>
