<svg xmlns="http://www.w3.org/2000/svg" width="78.501" height="74.271" viewBox="0 0 78.501 74.271">
  <g id="Grupo_1101901" data-name="Grupo 1101901" transform="translate(-244 -31154.363)">
    <path id="_12068" data-name="12068" d="M72.033,71.913c-8.038-1.11-16.53-.839-23.844,2.675C38.045,79.46,31.382,90.507,31.127,101.757s5.606,22.305,14.66,28.988,21,9.051,32.068,7.045c11.165-2.023,21.645-8.583,27.469-18.322,3.735-6.245,5.48-13.956,3.417-20.934a28.6,28.6,0,0,0-6.787-11.156A50.145,50.145,0,0,0,72.033,71.913Z" transform="translate(212.881 31090.152)" fill="#26aab7"/>
    <g id="matriz" transform="translate(230.307 31139.111)">
      <path id="Trazado_878178" data-name="Trazado 878178" d="M89.6,52.337l-6.121-6.093a1.481,1.481,0,0,0-1.723-.274,1.573,1.573,0,0,0-.373.272,1.482,1.482,0,0,0,0,2.1l3.591,3.579h-30.1V30.331c0-.018.006-.036.006-.054V21.82l3.574,3.561a1.483,1.483,0,0,0,2.092-2.1l-6.12-6.1a1.484,1.484,0,0,0-2.1,0l-6.093,6.121a1.481,1.481,0,0,0-.274,1.723,1.562,1.562,0,0,0,.272.373,1.483,1.483,0,0,0,2.1,0l3.579-3.591v30.11H30.481a1.485,1.485,0,0,0-.2-.021H21.82l3.561-3.574a1.483,1.483,0,0,0-2.1-2.092l-6.1,6.12a1.484,1.484,0,0,0,0,2.1l6.121,6.093a1.481,1.481,0,0,0,1.723.274,1.569,1.569,0,0,0,.373-.272,1.483,1.483,0,0,0,0-2.1l-3.576-3.564h30.1V76.3a1.484,1.484,0,0,0-.02.2v8.457L48.324,81.4a1.483,1.483,0,0,0-2.092,2.1l6.12,6.1a1.484,1.484,0,0,0,2.1,0l6.093-6.121a1.481,1.481,0,0,0,.274-1.723,1.561,1.561,0,0,0-.272-.373,1.483,1.483,0,0,0-2.1,0l-3.564,3.576V54.882H76.454c.018,0,.036.006.054.006h8.457L81.4,58.462a1.483,1.483,0,0,0,2.1,2.092l6.1-6.12a1.485,1.485,0,0,0,0-2.1Z" transform="translate(-1.005 -1.005)" fill="#aee6e6"/>
      <path id="Trazado_878179" data-name="Trazado 878179" d="M88.943,50.982,82.822,44.89a1.974,1.974,0,0,0-2.3-.361,2.046,2.046,0,0,0-.49.36,1.976,1.976,0,0,0,0,2.8l2.744,2.735H54.371V29.353c0-.026.006-.063.006-.081V22.006l2.733,2.723a1.977,1.977,0,0,0,2.788-2.8l-6.119-6.1a1.98,1.98,0,0,0-2.8,0L44.89,21.953a1.974,1.974,0,0,0-.36,2.3,2.055,2.055,0,0,0,.36.49,1.966,1.966,0,0,0,1.4.576h.006a1.959,1.959,0,0,0,1.393-.581L50.42,22V50.419H29.511a1.675,1.675,0,0,0-.239-.021H22l2.723-2.732a1.978,1.978,0,0,0-1.4-3.371h0a1.962,1.962,0,0,0-1.4.583L15.828,51a1.979,1.979,0,0,0,0,2.8l6.121,6.092a1.974,1.974,0,0,0,2.3.361,2.062,2.062,0,0,0,.49-.36,1.976,1.976,0,0,0,0-2.8l-2.729-2.72H50.418V75.264a1.679,1.679,0,0,0-.021.239V82.77l-2.732-2.723a1.977,1.977,0,0,0-2.788,2.8L51,88.947a1.98,1.98,0,0,0,2.8,0l6.092-6.121a1.973,1.973,0,0,0,.361-2.3,2.053,2.053,0,0,0-.36-.49,1.968,1.968,0,0,0-1.4-.577h-.006a1.958,1.958,0,0,0-1.393.581l-2.72,2.729V54.371H57.5a.494.494,0,0,0,0-.988H53.876a.494.494,0,0,0-.494.494v30.08a.494.494,0,0,0,.844.349l3.564-3.577a.981.981,0,0,1,.7-.29h0a.985.985,0,0,1,.7.288,1.066,1.066,0,0,1,.182.248.985.985,0,0,1-.184,1.149l-6.092,6.121a.99.99,0,0,1-1.4,0l-6.12-6.1a.989.989,0,0,1,1.395-1.4l3.574,3.561a.494.494,0,0,0,.843-.35V75.5a1.072,1.072,0,0,1,.016-.136.518.518,0,0,0,0-.068V53.877a.494.494,0,0,0-.494-.494H20.817a.494.494,0,0,0-.348.844l3.577,3.564a.988.988,0,0,1,0,1.4,1.071,1.071,0,0,1-.248.182.985.985,0,0,1-1.149-.184l-6.121-6.092a.987.987,0,0,1-.291-.7.976.976,0,0,1,.288-.7l6.1-6.12a.981.981,0,0,1,.7-.291h0a.989.989,0,0,1,.7,1.686l-3.561,3.574a.494.494,0,0,0,.35.843h8.457a1.08,1.08,0,0,1,.136.016.467.467,0,0,0,.068,0H50.913a.494.494,0,0,0,.494-.494V20.8a.494.494,0,0,0-.844-.349l-3.58,3.592a.98.98,0,0,1-.7.29,1.018,1.018,0,0,1-.7-.288A1.08,1.08,0,0,1,45.4,23.8a.986.986,0,0,1,.184-1.149l6.092-6.121a.99.99,0,0,1,1.4,0l6.12,6.1a.989.989,0,0,1-1.395,1.4l-3.574-3.561a.494.494,0,0,0-.843.35V29.25c0,.024-.006.058-.006.076V50.913a.494.494,0,0,0,.494.494h30.1a.494.494,0,0,0,.349-.844l-3.591-3.579a.989.989,0,0,1,0-1.4,1.066,1.066,0,0,1,.248-.182.985.985,0,0,1,1.149.184l6.121,6.092a.99.99,0,0,1,0,1.4l-6.1,6.12a.981.981,0,0,1-.7.291h0a.99.99,0,0,1-.7-1.687l3.561-3.574a.494.494,0,0,0-.35-.843H75.527c-.026,0-.06-.006-.079-.006H62.023a.494.494,0,0,0,0,.988H75.418c.027,0,.065.006.084.006h7.267l-2.723,2.732a1.978,1.978,0,0,0,1.4,3.371h0a1.962,1.962,0,0,0,1.4-.583l6.1-6.119a1.979,1.979,0,0,0,0-2.8Z" transform="translate(0 0)" fill="#00223d"/>
      <path id="Trazado_878180" data-name="Trazado 878180" d="M69.6,50.722H53.586a2.748,2.748,0,0,0-2.748,2.748V69.488a2.748,2.748,0,0,0,2.748,2.748H69.6a2.748,2.748,0,0,0,2.748-2.748V53.47A2.749,2.749,0,0,0,69.6,50.722Z" transform="translate(-23.866 -23.787)" fill="#59836b"/>
      <path id="Trazado_878181" data-name="Trazado 878181" d="M68.6,49.222H52.58a3.246,3.246,0,0,0-3.242,3.242v3.811a.494.494,0,0,0,.988,0V52.464A2.257,2.257,0,0,1,52.58,50.21H68.6a2.257,2.257,0,0,1,2.254,2.254V68.482A2.257,2.257,0,0,1,68.6,70.736H52.58a2.257,2.257,0,0,1-2.254-2.254V60.959a.494.494,0,0,0-.988,0v7.523a3.246,3.246,0,0,0,3.242,3.242H68.6a3.246,3.246,0,0,0,3.242-3.242V52.464A3.246,3.246,0,0,0,68.6,49.222Z" transform="translate(-22.86 -22.781)" fill="#00223d"/>
      <path id="Trazado_878182" data-name="Trazado 878182" d="M158.609,50.722H142.591a2.748,2.748,0,0,0-2.748,2.748V69.488a2.748,2.748,0,0,0,2.748,2.748h16.018a2.748,2.748,0,0,0,2.748-2.748V53.47A2.748,2.748,0,0,0,158.609,50.722Z" transform="translate(-83.555 -23.787)" fill="#7d6eb2"/>
      <path id="Trazado_878183" data-name="Trazado 878183" d="M157.6,49.222H141.585a3.246,3.246,0,0,0-3.242,3.242V68.482a3.246,3.246,0,0,0,3.242,3.242H157.6a3.246,3.246,0,0,0,3.242-3.242V52.464a3.246,3.246,0,0,0-3.242-3.242Zm2.254,19.26a2.257,2.257,0,0,1-2.254,2.254H141.585a2.257,2.257,0,0,1-2.254-2.254V52.464a2.257,2.257,0,0,1,2.254-2.254H157.6a2.257,2.257,0,0,1,2.254,2.254Z" transform="translate(-82.549 -22.781)" fill="#00223d"/>
      <path id="Trazado_878184" data-name="Trazado 878184" d="M69.6,139.728H53.586a2.748,2.748,0,0,0-2.748,2.748v16.018a2.748,2.748,0,0,0,2.748,2.748H69.6a2.748,2.748,0,0,0,2.748-2.748V142.476A2.748,2.748,0,0,0,69.6,139.728Z" transform="translate(-23.866 -83.477)" fill="#ada2d6"/>
      <path id="Trazado_878185" data-name="Trazado 878185" d="M68.6,138.228H52.58a3.246,3.246,0,0,0-3.242,3.242v16.018a3.246,3.246,0,0,0,3.242,3.242H68.6a3.246,3.246,0,0,0,3.242-3.242V141.47A3.246,3.246,0,0,0,68.6,138.228Zm2.254,19.26a2.257,2.257,0,0,1-2.254,2.254H52.58a2.257,2.257,0,0,1-2.254-2.254V141.47a2.257,2.257,0,0,1,2.254-2.254H68.6a2.257,2.257,0,0,1,2.254,2.254v16.018Z" transform="translate(-22.86 -82.471)" fill="#3a312a"/>
      <path id="Trazado_878186" data-name="Trazado 878186" d="M158.609,139.728H142.591a2.748,2.748,0,0,0-2.748,2.748v16.018a2.748,2.748,0,0,0,2.748,2.748h16.018a2.748,2.748,0,0,0,2.748-2.748V142.476A2.748,2.748,0,0,0,158.609,139.728Z" transform="translate(-83.555 -83.477)" fill="#ffd947"/>
      <path id="Trazado_878187" data-name="Trazado 878187" d="M157.6,138.228H141.585a3.246,3.246,0,0,0-3.242,3.242v16.018a3.246,3.246,0,0,0,3.242,3.242H157.6a3.246,3.246,0,0,0,3.242-3.242V141.47A3.246,3.246,0,0,0,157.6,138.228Zm2.254,19.26a2.257,2.257,0,0,1-2.254,2.254H141.585a2.257,2.257,0,0,1-2.254-2.254V141.47a2.257,2.257,0,0,1,2.254-2.254H157.6a2.257,2.257,0,0,1,2.254,2.254Z" transform="translate(-82.549 -82.471)" fill="#00223d"/>
      <path id="Trazado_878188" data-name="Trazado 878188" d="M186.761,52.22H181.82a2.257,2.257,0,0,1,2.253,2.256V70.493a2.256,2.256,0,0,1-2.253,2.253h4.941a2.256,2.256,0,0,0,2.253-2.253V54.476A2.257,2.257,0,0,0,186.761,52.22Z" transform="translate(-111.706 -24.792)" fill="#62529b"/>
      <path id="Trazado_878189" data-name="Trazado 878189" d="M186.761,141.23H181.82a2.256,2.256,0,0,1,2.253,2.253V159.5a2.257,2.257,0,0,1-2.253,2.256h4.941a2.257,2.257,0,0,0,2.253-2.256V143.483A2.256,2.256,0,0,0,186.761,141.23Z" transform="translate(-111.706 -84.484)" fill="#fdc72e"/>
    </g>
  </g>
</svg>
