<svg xmlns="http://www.w3.org/2000/svg" width="78.501" height="74.27" viewBox="0 0 78.501 74.27">
  <g id="Grupo_1101898" data-name="Grupo 1101898" transform="translate(-244 -30236.363)">
    <path id="_12068" data-name="12068" d="M72.033,71.913c-8.038-1.11-16.53-.839-23.844,2.675C38.045,79.46,31.382,90.507,31.127,101.757s5.606,22.305,14.66,28.988,21,9.051,32.068,7.045c11.165-2.023,21.645-8.583,27.469-18.322,3.735-6.245,5.48-13.956,3.417-20.934a28.6,28.6,0,0,0-6.787-11.156A50.145,50.145,0,0,0,72.033,71.913Z" transform="translate(212.881 30172.152)" fill="#26aab7"/>
    <g id="layer1-0" transform="translate(248.52 30234.775)">
      <path id="ellipse10166" d="M13.683,4.328a2.476,2.476,0,1,1-2.476-2.476,2.476,2.476,0,0,1,2.476,2.476Z" transform="translate(38.93 0.973)" fill="#a0bf05"/>
      <path id="ellipse10164" d="M6.8,4.328A2.476,2.476,0,1,1,4.327,1.853,2.476,2.476,0,0,1,6.8,4.328Z" transform="translate(13.625 0.973)" fill="#a0bf05"/>
      <path id="ellipse10162" d="M3.628,7.5A2.476,2.476,0,1,1,1.152,5.028,2.476,2.476,0,0,1,3.628,7.5Z" transform="translate(1.946 12.652)" fill="#f55"/>
      <path id="ellipse10141" d="M24.772,12.386A12.386,12.386,0,1,1,12.386,0,12.386,12.386,0,0,1,24.772,12.386Z" transform="translate(34.041 2.638) rotate(45)" fill="#ffca28"/>
      <path id="ellipse10153" d="M14.869,7.434A7.434,7.434,0,1,1,7.434,0a7.434,7.434,0,0,1,7.434,7.434Z" transform="translate(34.041 9.639) rotate(45)" fill="#e4eff8"/>
      <path id="ellipse10157" d="M11.774,3.968A7.42,7.42,0,0,0,7.8,17.744,7.424,7.424,0,0,1,18,7.534a7.383,7.383,0,0,0-6.23-3.566Z" transform="translate(22.38 8.753)" fill="#c4dcf0"/>
      <path id="ellipse10150" d="M5.558,2.98a12.378,12.378,0,0,1,0,24.633A12.383,12.383,0,1,0,6.975,2.91a12.389,12.389,0,0,0-1.417.07Z" transform="translate(27.251 4.86)" fill="#ecb200"/>
      <path id="ellipse10145" d="M6.8,6.539a12.38,12.38,0,0,0,10,21.074,12.377,12.377,0,0,1,0-24.633q-.528-.058-1.059-.07A12.386,12.386,0,0,0,6.8,6.539Z" transform="translate(18.485 4.859)" fill="#f5f9fb"/>
      <path id="path10127" d="M16.319,10.252,7.579,21.105a3.676,3.676,0,0,1-5.386.079A3.676,3.676,0,0,1,2.272,15.8L13.13,7.056" transform="translate(10.71 20.113)" fill="#427096"/>
      <path id="path10136" d="M13.13,7.056,2.272,15.8a3.676,3.676,0,0,0-.08,5.386,3.759,3.759,0,0,0,.447.363,3.539,3.539,0,0,1,.89-4.175L14.387,8.63l1.791,1.8.14-.174Z" transform="translate(10.71 20.113)" fill="#f5f9fb"/>
      <path id="path10131" d="M12.55,7.056l-.464.372,1.277,1.279L4.623,19.56a3.44,3.44,0,0,1-3.406,1.134,3.775,3.775,0,0,0,.4.491A3.677,3.677,0,0,0,7,21.1l8.74-10.853Z" transform="translate(11.289 20.113)" fill="#365b7a"/>
      <path id="path10117" d="M5.82,9.525H18.2v35.9H5.82Z" transform="translate(28.224 29.197)" fill="#ff5151"/>
      <path id="path10119" d="M5.82,9.525v35.9H8.3V9.525Z" transform="translate(28.224 29.197)" fill="#f5f9fb"/>
      <path id="path10121" d="M7.672,9.525h3.713v35.9H7.672Z" transform="translate(35.037 29.197)" fill="#ff2929"/>
      <path id="path10110" d="M-1.588,14.817H10.79v11.14H-1.588Z" transform="translate(0.973 48.662)" fill="#ff5151"/>
      <path id="path10112" d="M-1.588,14.817v11.14H.888V14.817Z" transform="translate(0.973 48.662)" fill="#f5f9fb"/>
      <path id="path10115" d="M.264,14.817H3.977v11.14H.264Z" transform="translate(7.786 48.662)" fill="#ff2929"/>
      <path id="path10101" d="M9.524,6.88H21.9V55.155H9.524Z" transform="translate(41.85 19.465)" fill="#a0bf05"/>
      <path id="path10106" d="M9.524,6.88V55.155H12V6.88Z" transform="translate(41.85 19.465)" fill="#f5f9fb"/>
      <path id="path10125" d="M16.866,17.123V12.171H11.915v4.951H8.2l6.189,6.189,6.189-6.189Z" transform="translate(36.983 38.93)" fill="#ff5151"/>
      <path id="path10108" d="M11.377,6.88H15.09V55.155H11.377Z" transform="translate(48.662 19.465)" fill="#809804"/>
      <path id="path10080" d="M2.116,12.171H14.494V35.69H2.116Z" transform="translate(14.599 38.93)" fill="#a0bf05"/>
      <path id="path10091" d="M2.116,12.171V35.69H4.592V12.171Z" transform="translate(14.599 38.93)" fill="#f5f9fb"/>
      <path id="ellipse10160" d="M10.243,7.5A2.476,2.476,0,1,1,7.767,5.028,2.476,2.476,0,0,1,10.243,7.5Z" transform="translate(26.277 12.652)" fill="#f55"/>
      <path id="path10096" d="M3.968,12.171H7.682V35.69H3.968Z" transform="translate(21.411 38.93)" fill="#809804"/>
      <path id="path10123" d="M15.808,17.038v4.951H10.857V17.038H7.143l6.189-6.189,6.189,6.189Z" transform="translate(33.09 34.063)" fill="#a0bf05"/>
      <path id="path10094" d="M14.239,5.3A3.713,3.713,0,0,0,14.6,6.9L4.7,16.808a3.733,3.733,0,1,0,1.741,1.746l9.912-9.9a3.694,3.694,0,0,0,3.322-.065l3.571,3.293a13.616,13.616,0,0,0-1.023,15L12.2,34.947A4.99,4.99,0,1,0,19.246,42a.06.06,0,0,0,.01-.009l8.06-10.016a13.6,13.6,0,0,0,17.521-20.1l3.568-3.293a3.719,3.719,0,1,0-1.68-1.82l-3.568,3.3a13.551,13.551,0,0,0-18.222,0l-3.571-3.3A3.713,3.713,0,1,0,14.239,5.3Zm3.713-1.238A1.238,1.238,0,1,1,16.715,5.3,1.238,1.238,0,0,1,17.953,4.063Zm32.184,0A1.238,1.238,0,1,1,48.9,5.3,1.238,1.238,0,0,1,50.136,4.063ZM34.206,9.017a11.141,11.141,0,0,1,7.132,2.722l-1.833,1.692a8.658,8.658,0,0,0-10.923,0l-1.825-1.685a11.14,11.14,0,0,1,7.137-2.729q.156,0,.312,0Zm36.951,3.692a1.239,1.239,0,0,0-1.216,1.262v9.9H68.7a1.238,1.238,0,1,0,0,2.476h1.238v9.9H68.7a1.238,1.238,0,1,0,0,2.476h1.238v9.9H68.7a1.238,1.238,0,1,0,0,2.476h1.238V61H68.7a1.238,1.238,0,1,0,0,2.476h1.238v8.669a1.233,1.233,0,0,1-1.233,1.233H64.99V26.343a1.24,1.24,0,0,0-1.243-1.24H51.379a1.24,1.24,0,0,0-1.243,1.24V46.867l-2.476-2.476V38.723a1.24,1.24,0,0,0-1.243-1.24H34.049a1.24,1.24,0,0,0-1.243,1.24V73.378H30.331V51.086a1.24,1.24,0,0,0-1.243-1.24H16.72a1.24,1.24,0,0,0-1.243,1.24V73.378H13V63.464a1.24,1.24,0,0,0-1.243-1.24H-.61a1.24,1.24,0,0,0-1.243,1.24V74.613A1.24,1.24,0,0,0-.61,75.853q34.663.014,69.318,0a3.718,3.718,0,0,0,3.709-3.708V13.97a1.238,1.238,0,0,0-1.26-1.262Zm-46.083.853,1.833,1.69a8.661,8.661,0,1,0,14.274,0l1.828-1.685a11.133,11.133,0,1,1-17.934,0Zm9.059.4a6.191,6.191,0,0,1,3.527,1.17L35.78,16.874a3.7,3.7,0,0,0-3.472,0L30.43,15.14A6.19,6.19,0,0,1,34.134,13.965Zm-5.379,2.99,1.881,1.736a3.712,3.712,0,1,0,6.82,0l1.879-1.733a6.185,6.185,0,1,1-10.58,0ZM3.1,18.916a1.238,1.238,0,1,1-1.238,1.238A1.238,1.238,0,0,1,3.1,18.916Zm30.946,0a1.238,1.238,0,1,1-1.238,1.238A1.238,1.238,0,0,1,34.044,18.916Zm18.567,8.676h9.9V73.375h-9.9V62.75l5.829-5.829a1.238,1.238,0,0,0-.878-2.11H55.088V51.093a1.238,1.238,0,0,0-1.233-1.235h-.725l-.517-.517ZM23.646,28.918q.367.449.771.865t.858.778L17.326,40.43a2.52,2.52,0,0,1-3.563-3.563ZM35.282,39.973h9.9V44.4l-5.822,5.819a1.238,1.238,0,0,0,.87,2.113h2.476v3.718a1.238,1.238,0,0,0,1.243,1.233h.725l.508.508V73.363h-9.9Zm11.145,6.684,3.2,3.2H48.9a1.176,1.176,0,0,0-1.245,1.238v3.716H45.185V51.1a1.238,1.238,0,0,0-1.233-1.243h-.733ZM17.953,52.336h9.9V73.363h-9.9Zm32.186,0h2.473v3.708a1.238,1.238,0,0,0,1.243,1.243h.72l-3.2,3.2-3.206-3.2h.73a1.236,1.236,0,0,0,1.238-1.235Zm-2.478,7.932,2.476,2.476V73.378H47.661ZM.623,64.713h9.9v8.65H.623Z" transform="translate(0 0)" fill="#00223d"/>
    </g>
  </g>
</svg>
