<svg xmlns="http://www.w3.org/2000/svg" xmlns:xlink="http://www.w3.org/1999/xlink" width="620" height="508.611" viewBox="0 0 620 508.611">
  <defs>
    <clipPath id="clip-path">
      <rect id="Rectángulo_401403" data-name="Rectángulo 401403" width="478.712" height="508.611" fill="none"/>
    </clipPath>
  </defs>
  <g id="Grupo_1101898" data-name="Grupo 1101898" transform="translate(-800 -4724.322)">
    <g id="Grupo_1101897" data-name="Grupo 1101897">
      <path id="Trazado_876398" data-name="Trazado 876398" d="M4281.747,1899.406a5.615,5.615,0,1,0-5.616,5.772A5.6,5.6,0,0,0,4281.747,1899.406Zm-2.128-1c-.246.252-.5.5-.747.748-.152.152-.308.3-.462.452a.215.215,0,0,1-.081.082,8.47,8.47,0,0,1-.607.6.036.036,0,0,1-.021.009.15.15,0,0,1-.107.108.038.038,0,0,1-.009.021h0a8.4,8.4,0,0,1-.6.607h0a.167.167,0,0,1-.1.087.035.035,0,0,1-.009.021h0a7.8,7.8,0,0,1-.63.63l-.084.084a9.609,9.609,0,0,1-.69.7c-.161.151-.38.107-.55-.085a1.508,1.508,0,0,1-.236-.236h0l-.478-.479a1.641,1.641,0,0,1-.237-.237h0l-.505-.5a1.315,1.315,0,0,1-.21-.209l-.026-.027h0l-.478-.479-.026-.027c-.279-.236-.279-.453,0-.689l.026-.027a3.09,3.09,0,0,1,.476-.455c.012-.024.034-.021.055-.018a.4.4,0,0,1,.424.134c.089.1.182.189.273.283l1.108,1.1c.139.138.139.139.285.017l.371-.371h0a3.461,3.461,0,0,1,.37-.37l.318-.318.027-.026h0l.4-.4h0l.319-.316a3.9,3.9,0,0,1,.372-.371,3.809,3.809,0,0,1,.37-.37,3.949,3.949,0,0,1,.37-.371c.12-.123.235-.251.36-.367a.353.353,0,0,1,.491.008c.175.167.347.338.514.513A.351.351,0,0,1,4279.619,1898.41Z" transform="translate(-3354.135 3091.041)" fill="#d3d3d3"/>
      <rect id="Rectángulo_401388" data-name="Rectángulo 401388" width="620" height="437.646" transform="translate(800 4760.322)" fill="#fff8da"/>
      <g id="Grupo_1100091" data-name="Grupo 1100091" transform="translate(870.288 4724.322)">
        <g id="Grupo_1100090" data-name="Grupo 1100090" transform="translate(0)" clip-path="url(#clip-path)">
          <path id="Trazado_876399" data-name="Trazado 876399" d="M558.571,74.53h-117.9a7.51,7.51,0,0,0-7.49,7.489V96.211h1.829V82.019a5.681,5.681,0,0,1,5.661-5.662h117.9Z" transform="translate(-425.476 -15.066)" fill="#7bc3ad" fill-rule="evenodd"/>
          <path id="Trazado_876400" data-name="Trazado 876400" d="M576.263,154.032H528.2a5.68,5.68,0,0,1-5.662-5.662V101.7h-1.829V148.37a7.509,7.509,0,0,0,7.49,7.489h48.065Z" transform="translate(-513 -20.559)" fill="#7bc3ad" fill-rule="evenodd"/>
          <rect id="Rectángulo_401397" data-name="Rectángulo 401397" width="55.843" height="1.828" transform="translate(65.225 180.906)" fill="#7bc3ad"/>
          <path id="Trazado_876401" data-name="Trazado 876401" d="M361.943,279.756v48.065a7.51,7.51,0,0,0,7.49,7.489H440.3v-1.828H369.432a5.68,5.68,0,0,1-5.661-5.662V279.756Z" transform="translate(-250.362 -56.552)" fill="#7bc3ad" fill-rule="evenodd"/>
          <path id="Trazado_876402" data-name="Trazado 876402" d="M357.813,248.1v73.324a5.68,5.68,0,0,1-5.662,5.662H337.961v1.828h14.191a7.509,7.509,0,0,0,7.49-7.489V248.1Z" transform="translate(-150.573 -50.152)" fill="#7bc3ad" fill-rule="evenodd"/>
          <path id="Trazado_876403" data-name="Trazado 876403" d="M258.19,195.793V147.728a6.6,6.6,0,0,1,6.576-6.576h14.191" transform="translate(-6.243 -28.533)" fill="none" stroke="#7bc3ad" stroke-miterlimit="22.926" stroke-width="2.291"/>
          <path id="Trazado_876404" data-name="Trazado 876404" d="M252.929,221.052V147.728a6.6,6.6,0,0,0-6.576-6.576H232.162" transform="translate(40.552 -28.533)" fill="none" stroke="#7bc3ad" stroke-miterlimit="22.926" stroke-width="2.291"/>
          <path id="Trazado_876405" data-name="Trazado 876405" d="M401.023,154.867H178.082a5.681,5.681,0,0,1-5.662-5.662V108.939h-1.829v40.267a7.51,7.51,0,0,0,7.49,7.489H401.023Z" transform="translate(-58.419 -22.022)" fill="#7bc3ad" fill-rule="evenodd"/>
          <path id="Trazado_876406" data-name="Trazado 876406" d="M382.926,59.751V11.686a5.68,5.68,0,0,1,5.662-5.662h14.191V4.2H388.587a7.51,7.51,0,0,0-7.49,7.49V59.751Z" transform="translate(-228.126 -0.848)" fill="#7bc3ad" fill-rule="evenodd"/>
          <path id="Trazado_876407" data-name="Trazado 876407" d="M375.6,85.011V11.686a7.51,7.51,0,0,0-7.49-7.49H353.923V6.025h14.191a5.68,5.68,0,0,1,5.662,5.662V85.011Z" transform="translate(-179.271 -0.848)" fill="#7bc3ad" fill-rule="evenodd"/>
          <path id="Trazado_876408" data-name="Trazado 876408" d="M466.119,337.47H200.835a5.681,5.681,0,0,1-5.662-5.662v-79.24h-1.828v79.24a7.512,7.512,0,0,0,7.489,7.49H466.119Z" transform="translate(-141.669 -51.056)" fill="#7bc3ad" fill-rule="evenodd"/>
          <rect id="Rectángulo_401398" data-name="Rectángulo 401398" width="55.843" height="1.828" transform="translate(131.448 200.646)" fill="#7bc3ad"/>
          <rect id="Rectángulo_401399" data-name="Rectángulo 401399" width="55.843" height="1.828" transform="translate(164.605 56.732)" fill="#7bc3ad"/>
          <rect id="Rectángulo_401400" data-name="Rectángulo 401400" width="55.843" height="1.828" transform="translate(179.148 143.405)" fill="#7bc3ad"/>
          <path id="Trazado_876409" data-name="Trazado 876409" d="M258.809,257.634H170.943a5.681,5.681,0,0,1-5.662-5.662V187.856h-1.828v64.116a7.512,7.512,0,0,0,7.489,7.49h87.866Z" transform="translate(89.49 -37.974)" fill="#7bc3ad" fill-rule="evenodd"/>
          <path id="Trazado_876410" data-name="Trazado 876410" d="M258.809,395.983H170.943a5.683,5.683,0,0,1-5.662-5.662V326.2h-1.828v64.116a7.51,7.51,0,0,0,7.489,7.489h87.866Z" transform="translate(89.49 -65.941)" fill="#7bc3ad" fill-rule="evenodd"/>
          <path id="Trazado_876411" data-name="Trazado 876411" d="M518.81,45.63H430.944a7.51,7.51,0,0,0-7.489,7.489v64.117h1.828V53.119a5.681,5.681,0,0,1,5.662-5.661H518.81Z" transform="translate(-377.953 -9.224)" fill="#7bc3ad" fill-rule="evenodd"/>
          <path id="Trazado_876412" data-name="Trazado 876412" d="M285.837,451.483V199a7.51,7.51,0,0,0-7.489-7.49H173.313v1.829H278.347A5.68,5.68,0,0,1,284.008,199V451.483Z" transform="translate(54.597 -38.712)" fill="#7bc3ad" fill-rule="evenodd"/>
          <path id="Trazado_876413" data-name="Trazado 876413" d="M252.77,391.85V139.362a7.51,7.51,0,0,0-7.489-7.489H85.056V133.7H245.281a5.681,5.681,0,0,1,5.661,5.662V391.85Z" transform="translate(158.079 -26.658)" fill="#7bc3ad" fill-rule="evenodd"/>
          <path id="Trazado_876414" data-name="Trazado 876414" d="M257.213,315.519V63.031a7.51,7.51,0,0,0-7.489-7.489H144.689V57.37H249.723a5.682,5.682,0,0,1,5.662,5.662V315.519Z" transform="translate(106.059 -11.228)" fill="#7bc3ad" fill-rule="evenodd"/>
          <path id="Trazado_876415" data-name="Trazado 876415" d="M432.531,131.516h34.153a4.144,4.144,0,0,0,4.132-4.132V93.231a4.144,4.144,0,0,0-4.132-4.132H432.531a4.144,4.144,0,0,0-4.132,4.132v34.153a4.144,4.144,0,0,0,4.132,4.132" transform="translate(-333.904 -18.011)" fill="#7bc3ad" fill-rule="evenodd"/>
          <path id="Trazado_876416" data-name="Trazado 876416" d="M462.466,105.371H441.135a1.86,1.86,0,0,0-1.854,1.854v15.887a1.859,1.859,0,0,0,1.854,1.854h21.331a1.859,1.859,0,0,0,1.854-1.854V107.225a1.86,1.86,0,0,0-1.854-1.854" transform="translate(-336.09 -21.3)" fill="#fff" fill-rule="evenodd"/>
          <path id="Trazado_876417" data-name="Trazado 876417" d="M459.313,104.9l-.514-2.866a1.709,1.709,0,0,0-.452-.91,1.3,1.3,0,0,0-.937-.39h-7.818a1.3,1.3,0,0,0-.937.39,1.709,1.709,0,0,0-.452.91l-.514,2.866,1.167.536.477-2.664a.566.566,0,0,1,.137-.3.167.167,0,0,1,.122-.053h7.818a.167.167,0,0,1,.122.053.559.559,0,0,1,.136.3l.478,2.664Z" transform="translate(-337.789 -20.364)" fill="#fff" fill-rule="evenodd"/>
          <path id="Trazado_876418" data-name="Trazado 876418" d="M455.592,111.923h-3.554v2.793h-2.793v3.554h2.793v2.793h3.554V118.27h2.793v-3.554h-2.793Z" transform="translate(-338.104 -22.625)" fill="#7bc3ad" fill-rule="evenodd"/>
          <path id="Trazado_876419" data-name="Trazado 876419" d="M480.848,195.11H544.19a7.687,7.687,0,0,0,7.664-7.664V124.1a7.686,7.686,0,0,0-7.664-7.663H480.848a7.686,7.686,0,0,0-7.664,7.663v63.342a7.687,7.687,0,0,0,7.664,7.664" transform="translate(-450.674 -23.538)" fill="#f6aa32" fill-rule="evenodd"/>
          <path id="Trazado_876420" data-name="Trazado 876420" d="M512.4,178.926V154.183c0-2.109,1.529-3.518,3.386-4.385a4.15,4.15,0,0,0,2.154-4.144c-.038-.653,4.577-.678,6.948-.648,2.372-.03,6.987-.006,6.949.648a4.147,4.147,0,0,0,2.154,4.144c1.857.867,3.385,2.276,3.385,4.385q0,12.372,0,24.743c0,4.983-24.973,5.2-24.977,0" transform="translate(-467.483 -29.311)" fill="#fff" fill-rule="evenodd"/>
          <path id="Trazado_876421" data-name="Trazado 876421" d="M535.112,184.457c-.682,3.837-16.661,4.642-22.683,2.086l15.217-15.455Z" transform="translate(-465.243 -34.585)" fill="#f6aa32" fill-rule="evenodd"/>
          <path id="Trazado_876422" data-name="Trazado 876422" d="M502.442,192.717V175.629h14.707c0,4.867,0,12.332,0,17.088,0,2.934-14.707,3.063-14.707,0" transform="translate(-439.312 -35.503)" fill="#fff" fill-rule="evenodd"/>
          <path id="Trazado_876423" data-name="Trazado 876423" d="M517.149,176.126c-.489.435-6.152.766-7.353.766s-6.864-.332-7.354-.766V177.5a33.953,33.953,0,0,0,14.707,0Z" transform="translate(-439.312 -35.603)" fill="#f6aa32" fill-rule="evenodd"/>
          <path id="Trazado_876424" data-name="Trazado 876424" d="M517.692,170.593V174c0,1.845-16.161,1.845-16.161,0v-3.4c0-2.571,16.161-2.627,16.161,0" transform="translate(-439.129 -34.091)" fill="#fff" fill-rule="evenodd"/>
          <path id="Trazado_876425" data-name="Trazado 876425" d="M533.167,146.931a36.132,36.132,0,0,1-6.36.752,31.2,31.2,0,0,1-7.58-.75,4.815,4.815,0,0,1-.347,1.364,32.619,32.619,0,0,0,7.96.79,37.585,37.585,0,0,0,6.674-.79,4.86,4.86,0,0,1-.347-1.366" transform="translate(-468.792 -29.702)" fill="#f6aa32" fill-rule="evenodd"/>
          <path id="Trazado_876426" data-name="Trazado 876426" d="M534.336,133.757v9.767a33.771,33.771,0,0,1-17.068,0v-9.767c0-2.836,17.068-2.841,17.068,0" transform="translate(-468.328 -26.608)" fill="#fff" fill-rule="evenodd"/>
          <path id="Trazado_876427" data-name="Trazado 876427" d="M532.872,136.132h0a.572.572,0,0,0-.57.57v6.353a.57.57,0,1,0,1.141,0V136.7a.571.571,0,0,0-.571-.57m-13.2.076h0a.573.573,0,0,0-.571.57v6.353a.571.571,0,0,0,1.143,0v-6.353a.573.573,0,0,0-.571-.57m9.911.292h0a.571.571,0,0,0-.57.57v6.353a.57.57,0,0,0,1.141,0V137.07a.572.572,0,0,0-.571-.57m-3.308.168h0a.572.572,0,0,0-.571.57v6.353a.57.57,0,1,0,1.141,0v-6.353a.571.571,0,0,0-.57-.57m-3.313-.074h0a.571.571,0,0,0-.57.57v6.353a.57.57,0,0,0,1.141,0v-6.353a.573.573,0,0,0-.571-.57" transform="translate(-468.893 -27.519)" fill="#f6aa32" fill-rule="evenodd"/>
          <path id="Trazado_876428" data-name="Trazado 876428" d="M548.554,193.093v1.65c0,.9-7.838.9-7.838,0v-1.65c0-1.247,7.838-1.274,7.838,0" transform="translate(-501.254 -38.842)" fill="#fff" fill-rule="evenodd"/>
          <path id="Trazado_876429" data-name="Trazado 876429" d="M540.133,198.357v1.65c0,.9-7.839.9-7.839,0v-1.65c0-1.247,7.839-1.274,7.839,0" transform="translate(-486.114 -39.906)" fill="#fff" fill-rule="evenodd"/>
          <path id="Trazado_876430" data-name="Trazado 876430" d="M294.619,286.834H258.576a4.373,4.373,0,0,0-4.36,4.36v36.043a4.374,4.374,0,0,0,4.36,4.361h36.043a4.374,4.374,0,0,0,4.36-4.361V291.194a4.373,4.373,0,0,0-4.36-4.36" transform="translate(-23.095 -57.982)" fill="#f77917" fill-rule="evenodd"/>
          <path id="Trazado_876431" data-name="Trazado 876431" d="M291.551,314.443l-13.668-13.615a2.687,2.687,0,0,0-1.9-.79,13.934,13.934,0,0,1-5.717-1.569,10.382,10.382,0,0,1-1.646-.894l-2.042-2.032a1.22,1.22,0,0,0-1.727-.014l-.653.672a1.23,1.23,0,0,0,.022,1.727l2.018,2.008a10.493,10.493,0,0,1,.9,1.658,13.925,13.925,0,0,1,1.569,5.717,2.685,2.685,0,0,0,.791,1.9L280.935,320.7l.074.077.439.439,1.664,1.67c.016.015.033.028.049.042l.942.941a5.956,5.956,0,0,0,8.423-8.423l-.874-.875a.87.87,0,0,0-.1-.124" transform="translate(-26.067 -59.669)" fill="#fff" fill-rule="evenodd"/>
          <path id="Trazado_876432" data-name="Trazado 876432" d="M272.035,300.869l-3.258-3.248a.555.555,0,0,1-.014-.778l.653-.671a.546.546,0,0,1,.767.021l3.269,3.26-.352.351,21.449,21.449-.718.719-21.449-21.45Z" transform="translate(-30.149 -59.84)" fill="#f77917" fill-rule="evenodd"/>
          <path id="Trazado_876433" data-name="Trazado 876433" d="M277.591,308.442l-3.725,3.726a.476.476,0,0,0,.673.673l3.725-3.725a.476.476,0,0,0-.673-.673m-3.074-3.074a.477.477,0,0,1,.673,0h0a.478.478,0,0,1,0,.673l-3.725,3.725a.476.476,0,1,1-.673-.673Zm6.149,6.149a.476.476,0,1,1,.673.673l-3.726,3.725a.477.477,0,0,1-.673,0h0a.479.479,0,0,1,0-.673l3.726-3.725m3.074,3.074-3.725,3.726a.476.476,0,0,0,.673.673l3.725-3.726a.477.477,0,0,0,0-.673h0a.478.478,0,0,0-.673,0m3.075,3.075a.476.476,0,1,1,.673.673l-3.726,3.725a.476.476,0,0,1-.673-.673Z" transform="translate(-24.855 -61.701)" fill="#f77917" fill-rule="evenodd"/>
          <path id="Trazado_876434" data-name="Trazado 876434" d="M441.7,211.058H400.931A4.948,4.948,0,0,0,396,215.992v40.773a4.947,4.947,0,0,0,4.934,4.933H441.7a4.947,4.947,0,0,0,4.933-4.933V215.992a4.947,4.947,0,0,0-4.933-4.934" transform="translate(-283.873 -42.665)" fill="#7bc3ad" fill-rule="evenodd"/>
          <path id="Trazado_876435" data-name="Trazado 876435" d="M418.236,251.155c-3.039-.4-4.538,2.488-4.751,3.893l-.231,1.527H436l-.231-1.527c-.215-1.417-1.737-4.341-4.827-3.882a17.416,17.416,0,0,0-2.779-.237l.009-.03v-1.084A9.527,9.527,0,0,0,431.967,247a9.945,9.945,0,0,0,2.071-4.2c1.1.243,2.838-1.549,2.841-3.635,0-2.009-1.236-2.432-1.986-2.323.047-.923.068-1.925.058-3.013l.376.092V221.066a41.438,41.438,0,0,0-21.4,0V233.92l.376-.087c-.01,1.087.011,2.086.058,3.008-.75-.109-1.989.314-1.986,2.323,0,2.086,1.74,3.879,2.841,3.635a9.957,9.957,0,0,0,2.07,4.2,9.485,9.485,0,0,0,3.889,2.853v1.057a16.724,16.724,0,0,0-2.94.247" transform="translate(-287.183 -44.404)" fill="#fff" fill-rule="evenodd"/>
          <path id="Trazado_876436" data-name="Trazado 876436" d="M426.427,239.988l-.044.006c-.167-.026-.354-.049-.55-.064-.145-.011-.3-.018-.467-.021h-.152c-.172,0-.346.009-.515.025h0c-.135.012-.267.03-.395.053-.957-.139-5.459-.787-7.853-.016l-.183.058-.074.174a3.341,3.341,0,0,0,.022,2.123,4.824,4.824,0,0,0,1.225,2.246,8.169,8.169,0,0,0,2.323.275,25.967,25.967,0,0,0,3.178-.045c.941-.078,1.367-2.059,1.57-3.008.039-.181.069-.318.083-.363.01-.03.021-.065.032-.106.041-.007.085-.014.129-.018a3.891,3.891,0,0,1,.465-.029h.144c.156,0,.31.013.453.027.1.01.2.021.289.034.01.035.019.066.028.092.014.045.044.182.083.362.2.948.63,2.931,1.57,3.009a25.971,25.971,0,0,0,3.178.045,8.169,8.169,0,0,0,2.323-.275,4.817,4.817,0,0,0,1.225-2.246,3.335,3.335,0,0,0,.022-2.123l-.075-.174-.182-.058c-2.4-.772-6.9-.122-7.854.016m-8.813,1.061a17.606,17.606,0,0,1,5.555.057,2.271,2.271,0,0,1-.061.239c-.024.073-.052.2-.089.373-.128.6-.4,1.853-.592,1.859l-.028,0-.025,0a20.234,20.234,0,0,1-2.466.03,8.575,8.575,0,0,1-1.542-.124,3.405,3.405,0,0,1-.651-1.38,2.457,2.457,0,0,1-.1-1.06m9.952.057a17.605,17.605,0,0,1,5.555-.057,2.454,2.454,0,0,1-.1,1.059,3.394,3.394,0,0,1-.651,1.38,8.571,8.571,0,0,1-1.541.124,20.247,20.247,0,0,1-2.467-.03l-.025,0-.028,0c-.194-.006-.464-1.261-.592-1.858-.037-.174-.065-.3-.088-.375h0a2.071,2.071,0,0,1-.06-.238" transform="translate(-287.922 -48.434)" fill="#7bc3ad" fill-rule="evenodd"/>
          <path id="Trazado_876437" data-name="Trazado 876437" d="M428.189,223.9h-2.62v2.058H423.51v2.62h2.058v2.058h2.62v-2.058h2.058v-2.62h-2.058Z" transform="translate(-289.434 -45.261)" fill="#7bc3ad" fill-rule="evenodd"/>
          <path id="Trazado_876438" data-name="Trazado 876438" d="M511.592,213.747h32.951a4,4,0,0,1,3.987,3.987v32.951a4,4,0,0,1-3.987,3.986H511.592a4,4,0,0,1-3.987-3.986V217.734a4,4,0,0,1,3.987-3.987" transform="translate(-474.813 -43.208)" fill="#f77917" fill-rule="evenodd"/>
          <path id="Trazado_876439" data-name="Trazado 876439" d="M514.865,229.278c3.115-5.572,12.9-4.454,13.551,2.7.63,6.932-6.2,13.91-13.551,18.675Z" transform="translate(-460.531 -45.634)" fill="#fff" fill-rule="evenodd"/>
          <path id="Trazado_876440" data-name="Trazado 876440" d="M545.492,229.278c-3.115-5.572-12.9-4.454-13.552,2.7-.629,6.932,6.2,13.91,13.552,18.675Z" transform="translate(-491.158 -45.634)" fill="#fff" fill-rule="evenodd"/>
          <path id="Trazado_876441" data-name="Trazado 876441" d="M541.387,237.891l-6.955-.018H534.2l-.13.188-.87,1.259-2.576-10.686-2.348,16.816L526,236.287l-.265-1.062-.532.958-1.772,3.192-2.572-4.434-.31-.535-.4.478-2.445,2.949-1.686,0c.116.289.24.578.376.864l1.51,0h.2l.131-.158,2.181-2.63,2.642,4.557.381.657.369-.666,1.611-2.9,3.186,12.786,2.2-16.055,1.9,7.268,1.949-2.82,6.35.016q.2-.43.38-.862" transform="translate(-474.382 -46.217)" fill="#f77917" fill-rule="evenodd"/>
          <path id="Trazado_876442" data-name="Trazado 876442" d="M469.146,271.109H432.188a4.485,4.485,0,0,0-4.471,4.472v36.957a4.484,4.484,0,0,0,4.471,4.471h36.957a4.484,4.484,0,0,0,4.471-4.471V275.581a4.485,4.485,0,0,0-4.471-4.472" transform="translate(-336.16 -54.804)" fill="#f77917" fill-rule="evenodd"/>
          <path id="Trazado_876443" data-name="Trazado 876443" d="M457.671,307.938c.041.112.081.227.124.352.057.164.12.344.184.518.478,1.314,1.225,2.965,2.376,2.547.673-.245,1.112-1.36,1.273-2.745a11.845,11.845,0,0,0-.262-4.18c-.757-6.592,1.851-6.609,2.528-12.019a18.823,18.823,0,0,0-.072-6.147c-.323-2.107-.9-3.942-1.87-4.667-1.656-1.236-3.044-1.245-5.007-.724-3.217.856-2.93,1.07-6.05.015a4.872,4.872,0,0,0-5.059.708c-.97.724-1.548,2.56-1.871,4.667a18.823,18.823,0,0,0-.072,6.147c.677,5.41,3.285,5.427,2.528,12.019a11.863,11.863,0,0,0-.262,4.18c.16,1.385.6,2.5,1.273,2.745,1.151.418,1.9-1.233,2.376-2.547.064-.174.126-.354.184-.518.044-.125.084-.24.124-.352,1.535-4.221,1.886-6.4,3.766-6.356s2.244,2.1,3.791,6.356" transform="translate(-339.386 -56.701)" fill="#fff" fill-rule="evenodd"/>
          <path id="Trazado_876444" data-name="Trazado 876444" d="M329.206,99.586H292.249a4.485,4.485,0,0,0-4.471,4.471v36.957a4.485,4.485,0,0,0,4.471,4.472h36.957a4.484,4.484,0,0,0,4.471-4.472V104.057a4.484,4.484,0,0,0-4.471-4.471" transform="translate(-84.57 -20.131)" fill="#7bc3ad" fill-rule="evenodd"/>
          <path id="Trazado_876445" data-name="Trazado 876445" d="M314.98,110.04l.4.017.345.014,0-.344.008-.677,0-.33-.328-.011-.265-.008-.13,0a3,3,0,0,0-2.465.62,3.2,3.2,0,0,0-.87,1.467c-1.082,3.242.084,10.987,1.74,12.948l.2.243.254-.19.546-.408.294-.219-.243-.272a6.839,6.839,0,0,1-.728-2.028c-.784-2.907-1.721-6.567-.811-9.553a2.05,2.05,0,0,1,.487-.945,1.984,1.984,0,0,1,1.549-.318" transform="translate(-85.381 -21.969)" fill="#fff" fill-rule="evenodd"/>
          <path id="Trazado_876446" data-name="Trazado 876446" d="M311.051,108.194a1.259,1.259,0,0,0-1.423,1.06,1.314,1.314,0,0,0,1.4,1.145,1.257,1.257,0,0,0,1.423-1.06,1.312,1.312,0,0,0-1.4-1.145" transform="translate(-80.773 -21.871)" fill="#fff" fill-rule="evenodd"/>
          <path id="Trazado_876447" data-name="Trazado 876447" d="M299.557,110.062l-.4,0-.345,0,.009-.344.016-.677.008-.33.327,0h.4a3,3,0,0,1,2.442.708,3.2,3.2,0,0,1,.815,1.5c.965,3.278-.48,10.977-2.206,12.877l-.212.235-.247-.2-.531-.427-.285-.229.252-.264a6.8,6.8,0,0,0,.8-2c.888-2.877,1.957-6.5,1.155-9.518a2.056,2.056,0,0,0-.453-.963,1.983,1.983,0,0,0-1.536-.373" transform="translate(-62.821 -21.976)" fill="#fff" fill-rule="evenodd"/>
          <path id="Trazado_876448" data-name="Trazado 876448" d="M303.758,108.182a1.257,1.257,0,0,1,1.383,1.111,1.313,1.313,0,0,1-1.437,1.094,1.258,1.258,0,0,1-1.383-1.111,1.314,1.314,0,0,1,1.437-1.094" transform="translate(-67.637 -21.869)" fill="#fff" fill-rule="evenodd"/>
          <path id="Trazado_876449" data-name="Trazado 876449" d="M307.967,134.711a28.808,28.808,0,0,0,1.715-2.433c.509-.806.944-1.576,1.316-2.3.2-.385.388-.775.568-1.162s.328-.724.465-1.049a9,9,0,0,0,.432-1c.109-.3.176-.527.212-.661l.174-.646-.642-.176-.544-.149-.512-.187-.626-.229-.231.627c-.073.2-.156.418-.255.671v0q-.12.306-.294.722c-.054.1-.119.214-.195.337s-.156.244-.237.354a5.655,5.655,0,0,1-.816.783,3.07,3.07,0,0,1-1.95.72,3.109,3.109,0,0,1-1.932-.831,5.792,5.792,0,0,1-.807-.861c-.081-.12-.156-.242-.224-.361s-.135-.246-.2-.373c-.1-.255-.187-.5-.269-.722q-.134-.375-.239-.686l-.207-.617-.621.188-.515.156-.544.116-.674.144.162.67c.036.145.1.387.195.674a9.385,9.385,0,0,0,.416,1.032c.131.337.275.692.434,1.062.17.4.35.8.54,1.2.358.75.772,1.549,1.256,2.378a29.994,29.994,0,0,0,1.656,2.54l.2.27.33.008,1.921.041.336.007Zm-2.215-3.358a6.025,6.025,0,0,0,.748.069,5.857,5.857,0,0,0,.776-.027l-.1.156h0q-.318.476-.669.956c-.167-.245-.366-.548-.571-.868Z" transform="translate(-73.747 -25.166)" fill="#fff" fill-rule="evenodd"/>
          <path id="Trazado_876450" data-name="Trazado 876450" d="M325.277,120.209a3.218,3.218,0,0,0-.917,4.553,3.454,3.454,0,0,0,4.7.888,3.217,3.217,0,0,0,.917-4.553,3.454,3.454,0,0,0-4.7-.888" transform="translate(-110.175 -24.187)" fill="#fff" fill-rule="evenodd"/>
          <path id="Trazado_876451" data-name="Trazado 876451" d="M326.191,121.389a2.149,2.149,0,0,0-.613,3.041,2.308,2.308,0,0,0,3.14.593,2.149,2.149,0,0,0,.612-3.041,2.306,2.306,0,0,0-3.14-.593m.432.621a1.519,1.519,0,0,1,2.067.39,1.415,1.415,0,0,1-.4,2,1.518,1.518,0,0,1-2.066-.391,1.414,1.414,0,0,1,.4-2" transform="translate(-110.46 -24.463)" fill="#7bc3ad" fill-rule="evenodd"/>
          <path id="Trazado_876452" data-name="Trazado 876452" d="M323.261,135.422c0,.021,0,.113,0,.133a9.855,9.855,0,0,1-1.945,6.264,6.292,6.292,0,0,1-4.979,2.294c-.061,0-.128,0-.2,0-2.546-.071-4.3-2.22-5.436-5.123a30.837,30.837,0,0,1-1.764-10.338c0-.448,0-.889.011-1.318l-1.666-.046q-.017.662-.01,1.378a32.6,32.6,0,0,0,1.874,10.931c1.372,3.5,3.586,6.088,6.944,6.181h0c.081,0,.164,0,.251,0a7.9,7.9,0,0,0,6.254-2.9,11.458,11.458,0,0,0,2.323-7.371Z" transform="translate(-91.381 -25.73)" fill="#fff" fill-rule="evenodd"/>
          <path id="Trazado_876453" data-name="Trazado 876453" d="M252.079,220.755h44.416a5.39,5.39,0,0,0,5.374-5.374V170.965a5.39,5.39,0,0,0-5.374-5.374H252.079a5.39,5.39,0,0,0-5.374,5.374v44.416a5.39,5.39,0,0,0,5.374,5.374" transform="translate(-19.992 -33.474)" fill="#f77917" fill-rule="evenodd"/>
          <path id="Trazado_876454" data-name="Trazado 876454" d="M259.724,204.671a1.2,1.2,0,0,0-1.1,2.138l2.532,1.308a3.336,3.336,0,0,0,2.408.265,3.135,3.135,0,0,0,1.916-1.477l1.773-3.1a1.173,1.173,0,0,0,.345.051h2.292l-.3,4.079a1.2,1.2,0,0,0,2.4.171l.308-4.25h17.946V182.434a.8.8,0,0,1,.793-.794h1.03a1.155,1.155,0,0,0,1.133.955h4.676a1.153,1.153,0,0,0,1.15-1.151v-2.068a1.154,1.154,0,0,0-1.15-1.151H293.2a1.155,1.155,0,0,0-1.14,1h-1.023a3.21,3.21,0,0,0-3.2,3.2v4.145H273.182a3.209,3.209,0,0,0-3.2,3.2V194.4a1.192,1.192,0,0,0-.321.365l-6.269,10.946a.747.747,0,0,1-.456.348.932.932,0,0,1-.675-.078Zm8.88-3.223,1.373-2.4v2.4Zm4.578-12.459h14.656v12.459H272.389V189.783a.8.8,0,0,1,.793-.794" transform="translate(-26.141 -36.028)" fill="#fff" fill-rule="evenodd"/>
          <path id="Trazado_876455" data-name="Trazado 876455" d="M284.311,207.438v1.838h8.037l0-2.411h-5.623v-1.838Z" transform="translate(-40.475 -41.446)" fill="#fff" fill-rule="evenodd"/>
          <path id="Trazado_876456" data-name="Trazado 876456" d="M292.276,211.991a4.286,4.286,0,1,0,4.285,4.285,4.286,4.286,0,0,0-4.285-4.285m0,2.011A2.274,2.274,0,1,1,290,216.276,2.274,2.274,0,0,1,292.276,214" transform="translate(-47.623 -42.853)" fill="#fff" fill-rule="evenodd"/>
          <path id="Trazado_876457" data-name="Trazado 876457" d="M291.251,209.742H293l-.3,4.08a1.2,1.2,0,0,0,2.4.17l.389-5.371.093-1.29h-1.927Z" transform="translate(-49.253 -41.911)" fill="#fff" fill-rule="evenodd"/>
          <path id="Trazado_876458" data-name="Trazado 876458" d="M268.977,207.444h13.075V195.959h-2.411v9.073H268.977Z" transform="translate(-17.945 -39.612)" fill="#fff" fill-rule="evenodd"/>
          <path id="Trazado_876459" data-name="Trazado 876459" d="M270.156,192.957a11.878,11.878,0,1,0,11.878,11.878,11.879,11.879,0,0,0-11.878-11.878m0,4.33a7.548,7.548,0,1,1-7.549,7.548,7.549,7.549,0,0,1,7.549-7.548" transform="translate(-9.391 -39.006)" fill="#fff" fill-rule="evenodd"/>
          <path id="Trazado_876460" data-name="Trazado 876460" d="M373.364,85.85H344.782a3.468,3.468,0,0,0-3.459,3.458v28.583a3.468,3.468,0,0,0,3.459,3.458h28.582a3.468,3.468,0,0,0,3.458-3.458V89.308a3.468,3.468,0,0,0-3.458-3.458" transform="translate(-170.436 -17.354)" fill="#f6aa32" fill-rule="evenodd"/>
          <path id="Trazado_876461" data-name="Trazado 876461" d="M364.13,92.132a4.358,4.358,0,0,1,3.248,2.773v1.919A7.026,7.026,0,0,0,364.084,96c-1.082-.035-2.534-.035-3.617,0a7.026,7.026,0,0,0-3.294.827V94.9a4.358,4.358,0,0,1,3.248-2.773,18.953,18.953,0,0,1,3.709,0" transform="translate(-173.638 -18.606)" fill="#fff" fill-rule="evenodd"/>
          <path id="Trazado_876462" data-name="Trazado 876462" d="M363.513,92.132a4.357,4.357,0,0,1,3.248,2.773v1.918A7.026,7.026,0,0,0,363.466,96c-1.082-.035-2.534-.035-3.617,0a7.332,7.332,0,0,0-2.677.53l4.486-4.486a14.225,14.225,0,0,1,1.854.091" transform="translate(-173.02 -18.606)" fill="#fff" fill-rule="evenodd"/>
          <path id="Trazado_876463" data-name="Trazado 876463" d="M368.413,94.747c-.205,2.516-10.847,15.537-12.627,18.655l2.9,4.8c1.752-3.149,10.647-13.536,11.1-16.682a11.192,11.192,0,0,0-1.374-6.778" transform="translate(-175.031 -19.153)" fill="#fff" fill-rule="evenodd"/>
          <path id="Trazado_876464" data-name="Trazado 876464" d="M367.965,107.447c-2.671,3.61-5.331,7.1-6.145,8.523l2.9,4.8c.916-1.647,3.786-5.273,6.38-8.808Z" transform="translate(-181.065 -21.72)" fill="#fff" fill-rule="evenodd"/>
          <path id="Trazado_876465" data-name="Trazado 876465" d="M355.155,94.747c.205,2.516,10.846,15.537,12.627,18.655l-2.9,4.8c-1.752-3.149-10.647-13.536-11.1-16.682a11.192,11.192,0,0,1,1.374-6.778" transform="translate(-171.263 -19.153)" fill="#fff" fill-rule="evenodd"/>
          <path id="Trazado_876466" data-name="Trazado 876466" d="M284.363,75.966h37.32a4.529,4.529,0,0,0,4.515-4.515V34.131a4.528,4.528,0,0,0-4.515-4.515h-37.32a4.528,4.528,0,0,0-4.515,4.515v37.32a4.528,4.528,0,0,0,4.515,4.515" transform="translate(-70.763 -5.987)" fill="#cc3" fill-rule="evenodd"/>
          <path id="Trazado_876467" data-name="Trazado 876467" d="M319.248,61.337l-21.139-21.12a5.425,5.425,0,0,0-7.668,7.675L311.58,69.011a5.424,5.424,0,1,0,7.668-7.675" transform="translate(-72.585 -7.81)" fill="#fff" fill-rule="evenodd"/>
          <path id="Trazado_876468" data-name="Trazado 876468" d="M291.767,69.278a.743.743,0,1,1-1.051,0,.743.743,0,0,1,1.051,0" transform="translate(-45.048 -13.96)" fill="#cc3" fill-rule="evenodd"/>
          <path id="Trazado_876469" data-name="Trazado 876469" d="M293.839,71.351a.743.743,0,1,1-1.051,0,.743.743,0,0,1,1.051,0" transform="translate(-48.773 -14.379)" fill="#cc3" fill-rule="evenodd"/>
          <path id="Trazado_876470" data-name="Trazado 876470" d="M296.852,76.465a.743.743,0,1,0,0-1.05.743.743,0,0,0,0,1.05" transform="translate(-56.078 -15.201)" fill="#cc3" fill-rule="evenodd"/>
          <path id="Trazado_876471" data-name="Trazado 876471" d="M294.779,74.392a.743.743,0,1,0,0-1.051.743.743,0,0,0,0,1.051" transform="translate(-52.352 -14.782)" fill="#cc3" fill-rule="evenodd"/>
          <path id="Trazado_876472" data-name="Trazado 876472" d="M293.75,67.295a.743.743,0,1,0,0,1.051.743.743,0,0,0,0-1.051" transform="translate(-48.613 -13.559)" fill="#cc3" fill-rule="evenodd"/>
          <path id="Trazado_876473" data-name="Trazado 876473" d="M295.823,69.368a.743.743,0,1,0,0,1.051.743.743,0,0,0,0-1.051" transform="translate(-52.34 -13.978)" fill="#cc3" fill-rule="evenodd"/>
          <path id="Trazado_876474" data-name="Trazado 876474" d="M298.836,74.482a.743.743,0,1,1,1.051,0,.743.743,0,0,1-1.051,0" transform="translate(-59.645 -14.8)" fill="#cc3" fill-rule="evenodd"/>
          <path id="Trazado_876475" data-name="Trazado 876475" d="M296.763,72.409a.743.743,0,1,1,1.051,0,.743.743,0,0,1-1.051,0" transform="translate(-55.918 -14.381)" fill="#cc3" fill-rule="evenodd"/>
          <path id="Trazado_876476" data-name="Trazado 876476" d="M295.767,65.278a.743.743,0,1,1-1.05,0,.743.743,0,0,1,1.05,0" transform="translate(-52.239 -13.152)" fill="#cc3" fill-rule="evenodd"/>
          <path id="Trazado_876477" data-name="Trazado 876477" d="M297.839,67.351a.742.742,0,1,1-1.049,0,.742.742,0,0,1,1.049,0" transform="translate(-55.965 -13.571)" fill="#cc3" fill-rule="evenodd"/>
          <path id="Trazado_876478" data-name="Trazado 876478" d="M300.851,72.465a.743.743,0,1,0,0-1.051.743.743,0,0,0,0,1.051" transform="translate(-63.27 -14.392)" fill="#cc3" fill-rule="evenodd"/>
          <path id="Trazado_876479" data-name="Trazado 876479" d="M298.779,70.392a.743.743,0,1,0,0-1.051.743.743,0,0,0,0,1.051" transform="translate(-59.543 -13.973)" fill="#cc3" fill-rule="evenodd"/>
          <path id="Trazado_876480" data-name="Trazado 876480" d="M297.751,63.295a.743.743,0,1,0,0,1.051.744.744,0,0,0,0-1.051" transform="translate(-55.806 -12.751)" fill="#cc3" fill-rule="evenodd"/>
          <path id="Trazado_876481" data-name="Trazado 876481" d="M299.823,65.368a.743.743,0,1,0,0,1.051.744.744,0,0,0,0-1.051" transform="translate(-59.532 -13.17)" fill="#cc3" fill-rule="evenodd"/>
          <path id="Trazado_876482" data-name="Trazado 876482" d="M302.836,70.482a.743.743,0,1,1,1.051,0,.743.743,0,0,1-1.051,0" transform="translate(-66.836 -13.991)" fill="#cc3" fill-rule="evenodd"/>
          <path id="Trazado_876483" data-name="Trazado 876483" d="M300.763,68.409a.743.743,0,1,1,1.051,0,.744.744,0,0,1-1.051,0" transform="translate(-63.111 -13.572)" fill="#cc3" fill-rule="evenodd"/>
          <path id="Trazado_876484" data-name="Trazado 876484" d="M314.577,46.468a.743.743,0,1,1-1.051,0,.743.743,0,0,1,1.051,0" transform="translate(-86.057 -9.349)" fill="#cc3" fill-rule="evenodd"/>
          <path id="Trazado_876485" data-name="Trazado 876485" d="M316.65,48.54a.743.743,0,1,1-1.05,0,.743.743,0,0,1,1.05,0" transform="translate(-89.784 -9.768)" fill="#cc3" fill-rule="evenodd"/>
          <path id="Trazado_876486" data-name="Trazado 876486" d="M319.663,53.654a.743.743,0,1,0,0-1.051.743.743,0,0,0,0,1.051" transform="translate(-97.089 -10.59)" fill="#cc3" fill-rule="evenodd"/>
          <path id="Trazado_876487" data-name="Trazado 876487" d="M317.589,51.581a.743.743,0,1,0,0-1.051.743.743,0,0,0,0,1.051" transform="translate(-93.362 -10.171)" fill="#cc3" fill-rule="evenodd"/>
          <path id="Trazado_876488" data-name="Trazado 876488" d="M316.561,44.484a.743.743,0,1,0,0,1.051.743.743,0,0,0,0-1.051" transform="translate(-89.624 -8.948)" fill="#cc3" fill-rule="evenodd"/>
          <path id="Trazado_876489" data-name="Trazado 876489" d="M318.634,46.557a.743.743,0,1,0,0,1.051.743.743,0,0,0,0-1.051" transform="translate(-93.351 -9.367)" fill="#cc3" fill-rule="evenodd"/>
          <path id="Trazado_876490" data-name="Trazado 876490" d="M321.647,51.671a.743.743,0,1,1,1.051,0,.743.743,0,0,1-1.051,0" transform="translate(-100.656 -10.189)" fill="#cc3" fill-rule="evenodd"/>
          <path id="Trazado_876491" data-name="Trazado 876491" d="M319.574,49.6a.743.743,0,1,1,1.051,0,.743.743,0,0,1-1.051,0" transform="translate(-96.929 -9.77)" fill="#cc3" fill-rule="evenodd"/>
          <path id="Trazado_876492" data-name="Trazado 876492" d="M318.578,42.467a.743.743,0,1,1-1.051,0,.743.743,0,0,1,1.051,0" transform="translate(-93.251 -8.541)" fill="#cc3" fill-rule="evenodd"/>
          <path id="Trazado_876493" data-name="Trazado 876493" d="M320.65,44.54a.743.743,0,1,1-1.05,0,.743.743,0,0,1,1.05,0" transform="translate(-96.975 -8.96)" fill="#cc3" fill-rule="evenodd"/>
          <path id="Trazado_876494" data-name="Trazado 876494" d="M323.662,49.654a.743.743,0,1,0,0-1.051.743.743,0,0,0,0,1.051" transform="translate(-104.281 -9.781)" fill="#cc3" fill-rule="evenodd"/>
          <path id="Trazado_876495" data-name="Trazado 876495" d="M321.589,47.581a.743.743,0,1,0,0-1.051.743.743,0,0,0,0,1.051" transform="translate(-100.554 -9.362)" fill="#cc3" fill-rule="evenodd"/>
          <path id="Trazado_876496" data-name="Trazado 876496" d="M320.561,40.484a.743.743,0,1,0,0,1.051.743.743,0,0,0,0-1.051" transform="translate(-96.815 -8.14)" fill="#cc3" fill-rule="evenodd"/>
          <path id="Trazado_876497" data-name="Trazado 876497" d="M322.634,42.557a.743.743,0,1,0,0,1.051.743.743,0,0,0,0-1.051" transform="translate(-100.542 -8.559)" fill="#cc3" fill-rule="evenodd"/>
          <path id="Trazado_876498" data-name="Trazado 876498" d="M325.647,47.671a.743.743,0,1,1,1.051,0,.743.743,0,0,1-1.051,0" transform="translate(-107.847 -9.38)" fill="#cc3" fill-rule="evenodd"/>
          <path id="Trazado_876499" data-name="Trazado 876499" d="M323.574,45.6a.743.743,0,1,1,1.051,0,.743.743,0,0,1-1.051,0" transform="translate(-104.12 -8.961)" fill="#cc3" fill-rule="evenodd"/>
          <rect id="Rectángulo_401401" data-name="Rectángulo 401401" width="11.995" height="7.801" transform="translate(233.742 53.803) rotate(-135.003)" fill="#cc3"/>
          <path id="Trazado_876500" data-name="Trazado 876500" d="M428.09,25.194H385.654a5.15,5.15,0,0,0-5.134,5.135V72.764a5.15,5.15,0,0,0,5.134,5.135H428.09a5.15,5.15,0,0,0,5.135-5.135V30.329a5.15,5.15,0,0,0-5.135-5.135" transform="translate(-258.112 -5.093)" fill="#f77917" fill-rule="evenodd"/>
          <path id="Trazado_876501" data-name="Trazado 876501" d="M402.092,78.2V72.5h-5.985v5.7a.531.531,0,0,0,.53.529h4.925a.531.531,0,0,0,.53-.529" transform="translate(-239.415 -14.655)" fill="#fff" fill-rule="evenodd"/>
          <path id="Trazado_876502" data-name="Trazado 876502" d="M429.593,78.2V72.5h-5.984v5.7a.53.53,0,0,0,.529.529h4.926a.53.53,0,0,0,.529-.529" transform="translate(-288.859 -14.655)" fill="#fff" fill-rule="evenodd"/>
          <path id="Trazado_876503" data-name="Trazado 876503" d="M424.336,62.544V53.367s-2.046-9.115-3.1-11.285S418.694,40.1,417.33,40.1H402.449c-1.364,0-2.852-.186-3.906,1.984s-3.1,11.285-3.1,11.285v9.177Zm-3.319-9.673H398.762c-.291,0-.594-.246-.53-.529l1.675-7.312c.065-.284.239-.529.529-.529h18.908c.29,0,.464.245.529.529l1.674,7.312c.065.283-.238.529-.529.529" transform="translate(-261.129 -8.105)" fill="#fff" fill-rule="evenodd"/>
          <path id="Trazado_876504" data-name="Trazado 876504" d="M423.818,36.135h-5.2a.584.584,0,0,0-.582.582v1.13a.585.585,0,0,0,.582.582h5.2Z" transform="translate(-278.636 -7.305)" fill="#fff" fill-rule="evenodd"/>
          <rect id="Rectángulo_401402" data-name="Rectángulo 401402" width="4.596" height="2.295" transform="translate(146.555 28.83)" fill="#fff"/>
          <path id="Trazado_876505" data-name="Trazado 876505" d="M406.783,36.135h-5.2V38.43h5.2a.585.585,0,0,0,.582-.582v-1.13a.584.584,0,0,0-.582-.582" transform="translate(-249.056 -7.305)" fill="#fff" fill-rule="evenodd"/>
          <path id="Trazado_876506" data-name="Trazado 876506" d="M403.3,63.63,399.627,67.3h24.69l1.352-1.352-4.691-2.319H403.3Z" transform="translate(-265.8 -12.863)" fill="#f77917" fill-rule="evenodd"/>
          <path id="Trazado_876507" data-name="Trazado 876507" d="M424.3,67.89H395.309a.531.531,0,0,0-.53.529V72.1a.531.531,0,0,0,.53.53H424.3a.53.53,0,0,0,.529-.53V68.419a.53.53,0,0,0-.529-.529" transform="translate(-261.089 -13.724)" fill="#fff" fill-rule="evenodd"/>
          <path id="Trazado_876508" data-name="Trazado 876508" d="M394.17,49.191h-1.254a.583.583,0,0,0-.582.582v3.114a.583.583,0,0,0,.582.582h1.254a.583.583,0,0,0,.582-.582V49.773a.583.583,0,0,0-.582-.582" transform="translate(-229.065 -9.944)" fill="#fff" fill-rule="evenodd"/>
          <path id="Trazado_876509" data-name="Trazado 876509" d="M433.57,49.191h-1.254a.583.583,0,0,0-.582.582v3.114a.583.583,0,0,0,.582.582h1.254a.584.584,0,0,0,.582-.582V49.773a.584.584,0,0,0-.582-.582" transform="translate(-299.901 -9.944)" fill="#fff" fill-rule="evenodd"/>
          <path id="Trazado_876510" data-name="Trazado 876510" d="M404.342,65.34V63.87a.685.685,0,0,0-.682-.683h-3.652a.684.684,0,0,0-.682.683v1.47a.684.684,0,0,0,.682.682h3.652a.684.684,0,0,0,.682-.682" transform="translate(-244.234 -12.773)" fill="#fff" fill-rule="evenodd"/>
          <path id="Trazado_876511" data-name="Trazado 876511" d="M426.5,65.34V63.87a.685.685,0,0,0-.682-.683h-3.652a.685.685,0,0,0-.683.683v1.47a.685.685,0,0,0,.683.682h3.652a.684.684,0,0,0,.682-.682" transform="translate(-284.073 -12.773)" fill="#fff" fill-rule="evenodd"/>
          <path id="Trazado_876512" data-name="Trazado 876512" d="M245.5,219.983H219.286a3.181,3.181,0,0,0-3.172,3.172v26.216a3.181,3.181,0,0,0,3.172,3.172H245.5a3.181,3.181,0,0,0,3.172-3.172V223.155a3.181,3.181,0,0,0-3.172-3.172" transform="translate(57.61 -44.469)" fill="#cc3" fill-rule="evenodd"/>
          <path id="Trazado_876513" data-name="Trazado 876513" d="M245.447,241.4l-16.253-16.253a1.307,1.307,0,0,0-1.841,0l-6.079,6.079a1.305,1.305,0,0,0,0,1.841l16.253,16.253a1.305,1.305,0,0,0,1.841,0l6.079-6.079a1.305,1.305,0,0,0,0-1.841" transform="translate(56.644 -45.435)" fill="#fff" fill-rule="evenodd"/>
          <path id="Trazado_876514" data-name="Trazado 876514" d="M242.075,245.582,227.542,231.05a.059.059,0,0,0-.084,0l-.278.278a.061.061,0,0,0,0,.084l14.534,14.533a.059.059,0,0,0,.084,0l.278-.278a.059.059,0,0,0,0-.084" transform="translate(55.377 -46.702)" fill="#cc3" fill-rule="evenodd"/>
          <path id="Trazado_876515" data-name="Trazado 876515" d="M243.792,228.871a1.371,1.371,0,1,0-1.516,1.208,1.371,1.371,0,0,0,1.516-1.208" transform="translate(42.582 -45.957)" fill="#cc3" fill-rule="evenodd"/>
          <path id="Trazado_876516" data-name="Trazado 876516" d="M243.611,228.9a1.126,1.126,0,1,0-1.245.993,1.125,1.125,0,0,0,1.245-.993" transform="translate(42.518 -46.019)" fill="#fff" fill-rule="evenodd"/>
          <path id="Trazado_876517" data-name="Trazado 876517" d="M241.383,228.906a1.126,1.126,0,0,0,2.237.252Z" transform="translate(42.509 -46.273)" fill="#cc3" fill-rule="evenodd"/>
          <path id="Trazado_876518" data-name="Trazado 876518" d="M239.4,233.266a1.371,1.371,0,1,0-1.516,1.208,1.37,1.37,0,0,0,1.516-1.208" transform="translate(50.483 -46.846)" fill="#cc3" fill-rule="evenodd"/>
          <path id="Trazado_876519" data-name="Trazado 876519" d="M239.215,233.3a1.126,1.126,0,1,0-1.245.992,1.124,1.124,0,0,0,1.245-.992" transform="translate(50.422 -46.908)" fill="#fff" fill-rule="evenodd"/>
          <path id="Trazado_876520" data-name="Trazado 876520" d="M236.987,233.3a1.126,1.126,0,0,0,2.237.253l-2.237-.253" transform="translate(50.412 -47.161)" fill="#cc3" fill-rule="evenodd"/>
          <path id="Trazado_876521" data-name="Trazado 876521" d="M235,237.662a1.371,1.371,0,1,0-1.516,1.208A1.371,1.371,0,0,0,235,237.662" transform="translate(58.387 -47.734)" fill="#cc3" fill-rule="evenodd"/>
          <path id="Trazado_876522" data-name="Trazado 876522" d="M234.819,237.7a1.126,1.126,0,1,0-1.245.992,1.126,1.126,0,0,0,1.245-.992" transform="translate(58.325 -47.796)" fill="#fff" fill-rule="evenodd"/>
          <path id="Trazado_876523" data-name="Trazado 876523" d="M232.591,237.7a1.126,1.126,0,0,0,2.237.253l-2.237-.253" transform="translate(58.316 -48.05)" fill="#cc3" fill-rule="evenodd"/>
          <path id="Trazado_876524" data-name="Trazado 876524" d="M230.6,242.058a1.371,1.371,0,1,0-1.516,1.208,1.371,1.371,0,0,0,1.516-1.208" transform="translate(66.29 -48.623)" fill="#cc3" fill-rule="evenodd"/>
          <path id="Trazado_876525" data-name="Trazado 876525" d="M230.423,242.092a1.126,1.126,0,1,0-1.245.992,1.125,1.125,0,0,0,1.245-.992" transform="translate(66.228 -48.685)" fill="#fff" fill-rule="evenodd"/>
          <path id="Trazado_876526" data-name="Trazado 876526" d="M228.2,242.093a1.126,1.126,0,0,0,2.237.253l-2.237-.253" transform="translate(66.217 -48.938)" fill="#cc3" fill-rule="evenodd"/>
          <path id="Trazado_876527" data-name="Trazado 876527" d="M226.209,246.454a1.37,1.37,0,1,0-1.515,1.208,1.371,1.371,0,0,0,1.515-1.208" transform="translate(74.192 -49.512)" fill="#cc3" fill-rule="evenodd"/>
          <path id="Trazado_876528" data-name="Trazado 876528" d="M226.028,246.488a1.126,1.126,0,1,0-1.245.993,1.125,1.125,0,0,0,1.245-.993" transform="translate(74.13 -49.574)" fill="#fff" fill-rule="evenodd"/>
          <path id="Trazado_876529" data-name="Trazado 876529" d="M223.8,246.489a1.126,1.126,0,0,0,2.237.253Z" transform="translate(74.122 -49.827)" fill="#cc3" fill-rule="evenodd"/>
          <path id="Trazado_876530" data-name="Trazado 876530" d="M248.857,233.936a1.371,1.371,0,1,0-1.516,1.208,1.37,1.37,0,0,0,1.516-1.208" transform="translate(33.474 -46.981)" fill="#cc3" fill-rule="evenodd"/>
          <path id="Trazado_876531" data-name="Trazado 876531" d="M248.676,233.971a1.126,1.126,0,1,0-1.245.992,1.126,1.126,0,0,0,1.245-.992" transform="translate(33.412 -47.043)" fill="#fff" fill-rule="evenodd"/>
          <path id="Trazado_876532" data-name="Trazado 876532" d="M246.448,233.971a1.126,1.126,0,0,0,2.237.253Z" transform="translate(33.403 -47.296)" fill="#cc3" fill-rule="evenodd"/>
          <path id="Trazado_876533" data-name="Trazado 876533" d="M244.462,238.332a1.371,1.371,0,1,0-1.516,1.208,1.371,1.371,0,0,0,1.516-1.208" transform="translate(41.377 -47.87)" fill="#cc3" fill-rule="evenodd"/>
          <path id="Trazado_876534" data-name="Trazado 876534" d="M244.28,238.366a1.126,1.126,0,1,0-1.245.993,1.125,1.125,0,0,0,1.245-.993" transform="translate(41.315 -47.932)" fill="#fff" fill-rule="evenodd"/>
          <path id="Trazado_876535" data-name="Trazado 876535" d="M242.052,238.366a1.126,1.126,0,0,0,2.237.254l-2.237-.254" transform="translate(41.306 -48.185)" fill="#cc3" fill-rule="evenodd"/>
          <path id="Trazado_876536" data-name="Trazado 876536" d="M240.066,242.728a1.371,1.371,0,1,0-1.516,1.208,1.371,1.371,0,0,0,1.516-1.208" transform="translate(49.281 -48.758)" fill="#cc3" fill-rule="evenodd"/>
          <path id="Trazado_876537" data-name="Trazado 876537" d="M239.885,242.762a1.126,1.126,0,1,0-1.245.992,1.125,1.125,0,0,0,1.245-.992" transform="translate(49.217 -48.82)" fill="#fff" fill-rule="evenodd"/>
          <path id="Trazado_876538" data-name="Trazado 876538" d="M237.657,242.762a1.126,1.126,0,0,0,2.237.253l-2.237-.253" transform="translate(49.208 -49.073)" fill="#cc3" fill-rule="evenodd"/>
          <path id="Trazado_876539" data-name="Trazado 876539" d="M235.671,247.123a1.371,1.371,0,1,0-1.516,1.208,1.37,1.37,0,0,0,1.516-1.208" transform="translate(57.182 -49.647)" fill="#ccc" fill-rule="evenodd"/>
          <path id="Trazado_876540" data-name="Trazado 876540" d="M235.489,247.158a1.126,1.126,0,1,0-1.245.992,1.126,1.126,0,0,0,1.245-.992" transform="translate(57.12 -49.709)" fill="#fff" fill-rule="evenodd"/>
          <path id="Trazado_876541" data-name="Trazado 876541" d="M233.261,247.158a1.126,1.126,0,0,0,2.237.253l-2.237-.253" transform="translate(57.111 -49.962)" fill="#cc3" fill-rule="evenodd"/>
          <path id="Trazado_876542" data-name="Trazado 876542" d="M231.275,251.519a1.371,1.371,0,1,0-1.516,1.208,1.37,1.37,0,0,0,1.516-1.208" transform="translate(65.086 -50.535)" fill="#cc3" fill-rule="evenodd"/>
          <path id="Trazado_876543" data-name="Trazado 876543" d="M231.093,251.554a1.126,1.126,0,1,0-1.245.992,1.126,1.126,0,0,0,1.245-.992" transform="translate(65.024 -50.598)" fill="#fff" fill-rule="evenodd"/>
          <path id="Trazado_876544" data-name="Trazado 876544" d="M228.865,251.554a1.126,1.126,0,0,0,2.237.253Z" transform="translate(65.015 -50.851)" fill="#cc3" fill-rule="evenodd"/>
          <path id="Trazado_876545" data-name="Trazado 876545" d="M414.18,136.694H360.3a6.538,6.538,0,0,0-6.519,6.519v53.88a6.537,6.537,0,0,0,6.519,6.518H414.18a6.537,6.537,0,0,0,6.519-6.518v-53.88a6.538,6.538,0,0,0-6.519-6.519" transform="translate(-224.254 -27.632)" fill="#cc3" fill-rule="evenodd"/>
          <path id="Trazado_876546" data-name="Trazado 876546" d="M372.447,175.621l2.322-2.294,18.464,18.521-2.321,2.293Z" transform="translate(-211.679 -35.038)" fill="#fff" fill-rule="evenodd"/>
          <path id="Trazado_876547" data-name="Trazado 876547" d="M367.684,202.784l-1.318-1.328a1.292,1.292,0,0,1,.006-1.822l7.008-6.96a1.292,1.292,0,0,1,1.822.006l1.318,1.328a1.293,1.293,0,0,1-.006,1.822l-7.008,6.96a1.292,1.292,0,0,1-1.822-.006" transform="translate(-190.19 -38.873)" fill="#fff" fill-rule="evenodd"/>
          <path id="Trazado_876548" data-name="Trazado 876548" d="M406.65,152.4l-1.61-4.857,13.657,13.7-1.628,1.609Z" transform="translate(-263.147 -29.825)" fill="#fff" fill-rule="evenodd"/>
          <path id="Trazado_876549" data-name="Trazado 876549" d="M377.272,195.344l4.872-4.839a.75.75,0,0,0,0-1.057l-1.946-1.96-5.933,5.892,1.946,1.96a.75.75,0,0,0,1.057,0" transform="translate(-202.263 -37.9)" fill="#fff" fill-rule="evenodd"/>
          <path id="Trazado_876550" data-name="Trazado 876550" d="M392.54,174.3l6.566,6.61L390.76,189.2l-6.567-6.609Zm-12.71-11.133-6.443,6.4a4.27,4.27,0,0,0-.02,5.974l16,16.113a1.918,1.918,0,0,0,2.757.01l9.184-9.121a2.333,2.333,0,0,0,.011-3.242l-16-16.113a3.856,3.856,0,0,0-5.49-.019" transform="translate(-220.189 -32.753)" fill="#fff" fill-rule="evenodd"/>
          <path id="Trazado_876551" data-name="Trazado 876551" d="M399.49,164.943l4.1-4.076a1.291,1.291,0,0,1,1.822.006l3.355,3.377-5.933,5.892-3.355-3.377a1.292,1.292,0,0,1,.006-1.822" transform="translate(-248.491 -32.443)" fill="#fff" fill-rule="evenodd"/>
          <path id="Trazado_876552" data-name="Trazado 876552" d="M420.912,157.936c.458,5.288,5.558,9.617,3.44,13.617a4.084,4.084,0,0,1-6.913,0c-2.117-4,2.982-8.329,3.44-13.617Z" transform="translate(-278.797 -31.926)" fill="#fff" fill-rule="evenodd"/>
          <path id="Trazado_876553" data-name="Trazado 876553" d="M401.253,165.36l2.488,2.479-1.186,15.428-9.6-9.563Z" transform="translate(-238.551 -33.427)" fill="#cc3" fill-rule="evenodd"/>
          <path id="Trazado_876554" data-name="Trazado 876554" d="M356.015,323.662H321.424a4.2,4.2,0,0,0-4.185,4.186v34.59a4.2,4.2,0,0,0,4.185,4.186h34.591a4.2,4.2,0,0,0,4.185-4.186v-34.59a4.2,4.2,0,0,0-4.185-4.186" transform="translate(-134.598 -65.427)" fill="#f6aa32" fill-rule="evenodd"/>
          <path id="Trazado_876555" data-name="Trazado 876555" d="M333.843,331.453l-8.813,8.814a1.415,1.415,0,0,0,1.683,2.239l6.609,6.609h0a17.521,17.521,0,0,0,6.044,3.792,38.644,38.644,0,0,1,3.882,1.725A8.667,8.667,0,0,1,345.08,356c1.332,1.226,2.555,2.556,2.559,2.559l1.511-1.45,3.132,3.132-.106.107a.546.546,0,0,0,0,.769l-.183.183a.544.544,0,1,0,.768.769l2.884-2.884a.545.545,0,0,0,0-.768h0a.546.546,0,0,0-.769,0l-.183.183a.546.546,0,0,0-.769,0l-.106.107-3.133-3.133,1.45-1.511s-1.332-1.226-2.559-2.559a8.573,8.573,0,0,1-1.37-1.831,38.416,38.416,0,0,1-1.725-3.881,17.506,17.506,0,0,0-3.793-6.044l0,0-6.609-6.609a1.414,1.414,0,0,0-2.239-1.683m14.209,21.486-3.437-3.437-1.537,1.536,3.44,3.44h0a9.972,9.972,0,0,0-2.129-1.591,40.172,40.172,0,0,0-4.054-1.8,18.237,18.237,0,0,1-4.741-2.725l6.341-6.341a18.249,18.249,0,0,1,2.726,4.741,40.16,40.16,0,0,0,1.8,4.055,9.978,9.978,0,0,0,1.589,2.127M341.23,341.25l-6.4,6.4-.019-.023-6.57-6.57,6.4-6.4,6.569,6.57Z" transform="translate(-136.09 -66.919)" fill="#fff" fill-rule="evenodd"/>
          <path id="Trazado_876556" data-name="Trazado 876556" d="M354.693,279.818H300.814A6.538,6.538,0,0,1,294.3,273.3V219.419a6.537,6.537,0,0,1,6.519-6.519h53.879a6.538,6.538,0,0,1,6.519,6.519V273.3a6.538,6.538,0,0,1-6.519,6.519" transform="translate(-117.305 -43.037)" fill="#7bc3ad" fill-rule="evenodd"/>
          <path id="Trazado_876557" data-name="Trazado 876557" d="M328.288,260.278a4.544,4.544,0,0,0-1.222,1.94,5.61,5.61,0,0,0-.206,2.411,7.282,7.282,0,0,0,.69,2.284,8.563,8.563,0,0,0,3.323,3.6,7.258,7.258,0,0,0,2.223.866,5.623,5.623,0,0,0,2.424-.018,4.52,4.52,0,0,0,3.287-3.042,5.626,5.626,0,0,0,.206-2.412,7.263,7.263,0,0,0-.69-2.284,8.435,8.435,0,0,0-1.369-2.007l-8.505-11.327.278-.3,2.779-3.019,11.554,8.635a8.48,8.48,0,0,0,2.011,1.366,7.281,7.281,0,0,0,2.284.685,5.627,5.627,0,0,0,2.412-.212v0a4.529,4.529,0,0,0,3.034-3.3,5.619,5.619,0,0,0,.011-2.42h0a7.27,7.27,0,0,0-.871-2.22l0,0a8.58,8.58,0,0,0-3.6-3.317,7.246,7.246,0,0,0-2.284-.685,5.623,5.623,0,0,0-2.413.21l0,0a4.545,4.545,0,0,0-1.951,1.245,4.479,4.479,0,0,0-.807,1.233,4.749,4.749,0,0,0-.306.956L310.819,226.9l-.053-.04-2.579,2.579,22.3,29.7a4.737,4.737,0,0,0-.954.306l-.049.023a4.493,4.493,0,0,0-1.182.785Zm-1.924-12.768-7.51-10,9.9,7.4Zm19.484,5.574-.41-.306a4.841,4.841,0,0,1-.8-1.006,3.533,3.533,0,0,1-.435-1.082l0,0a1.934,1.934,0,0,1-.015-.778l0,0a.936.936,0,0,1,.216-.45.947.947,0,0,1,.434-.256,1.966,1.966,0,0,1,.781-.045,3.546,3.546,0,0,1,1.139.354,4.995,4.995,0,0,1,2.007,1.848,3.52,3.52,0,0,1,.445,1.1l0,0a1.945,1.945,0,0,1,.016.777l0,0a.936.936,0,0,1-.217.451.947.947,0,0,1-.434.256,1.962,1.962,0,0,1-.78.044,3.42,3.42,0,0,1-.966-.271l0,0c-.125-.055-.251-.118-.377-.188ZM334.137,264l.306.407a.906.906,0,0,0,.184.183,4.481,4.481,0,0,1,.457.795,3.436,3.436,0,0,1,.277.969,1.945,1.945,0,0,1-.044.778.95.95,0,0,1-.257.438.929.929,0,0,1-.449.215v0a1.947,1.947,0,0,1-.78-.015,3.558,3.558,0,0,1-1.107-.444,5,5,0,0,1-1.854-2,3.535,3.535,0,0,1-.357-1.139,1.942,1.942,0,0,1,.045-.778.956.956,0,0,1,.256-.438.941.941,0,0,1,.448-.215v0a1.95,1.95,0,0,1,.781.015,3.514,3.514,0,0,1,1.086.43,4.858,4.858,0,0,1,1.008.8" transform="translate(-120.114 -45.86)" fill="#fff" fill-rule="evenodd"/>
          <path id="Trazado_876558" data-name="Trazado 876558" d="M49.126,213.129l-6.792.7L0,549.944l.787.136c8.04.925,19.162-9.647,20.152-16.606l42.2-296.583c1.829-12.864-7.138-24.475-14.018-23.762" transform="translate(415.327 -43.077)" fill="#629c8a" fill-rule="evenodd"/>
          <path id="Trazado_876559" data-name="Trazado 876559" d="M188.206,210.082,70.7,215.388a18.166,18.166,0,0,0-11.308,4.878,19.016,19.016,0,0,0-6.009,10.89L7.744,517.816l-.012.025-.026.172v.025a12.326,12.326,0,0,0,3.238,10.716,17.293,17.293,0,0,0,9.9,4.78l.025.013.272.042h.024L140.487,550.95l.033,0h.013c4.45.63,8.7-1.281,11.95-4.439a20.388,20.388,0,0,0,5.9-11.307l.008-.051v-.012L202.22,225.817a15.515,15.515,0,0,0,.14-2.884,13.545,13.545,0,0,0-3.357-8.48,13.125,13.125,0,0,0-8.052-4.246,14.809,14.809,0,0,0-2.745-.124" transform="translate(270.319 -42.464)" fill="#fff" fill-rule="evenodd"/>
          <path id="Trazado_876560" data-name="Trazado 876560" d="M189.127,214l-117.5,5.307c-6.909.311-13.254,6.189-14.36,13.129L11.622,519.1c-1.1,6.941,3.93,11.18,10.774,12.176l119.318,17.362c6.845,1,13.374-6.171,14.36-13.13L199.9,226.181c.985-6.96-3.864-12.488-10.774-12.176" transform="translate(269.533 -43.258)" fill="#7bc3ad" fill-rule="evenodd"/>
          <path id="Trazado_876561" data-name="Trazado 876561" d="M75.311,255.7l117.472-2.116-36.724,267.15L36.011,506.845Z" transform="translate(257.198 -51.261)" fill="#fff" fill-rule="evenodd"/>
          <path id="Trazado_876562" data-name="Trazado 876562" d="M112.3,222.442l-26.409,1.238a2.339,2.339,0,0,0,.219,4.674l26.41-1.238a2.339,2.339,0,0,0-.219-4.674" transform="translate(297.209 -44.965)" fill="#629c8a" fill-rule="evenodd"/>
          <path id="Trazado_876563" data-name="Trazado 876563" d="M168.178,592l-18.654-2.179a5.041,5.041,0,0,0-5.575,4.41l-.74,6.33a5.041,5.041,0,0,0,4.409,5.576l18.654,2.179a5.042,5.042,0,0,0,5.576-4.41l.739-6.33A5.04,5.04,0,0,0,168.178,592" transform="translate(191.858 -119.223)" fill="#629c8a" fill-rule="evenodd"/>
          <path id="Trazado_876564" data-name="Trazado 876564" d="M326.4,438.774l.044,9.607a2.6,2.6,0,1,0,5.192.007l-.045-9.608c-.006-1.427-1.224-2.2-2.592-2.6h0c-1.368-.4-2.6,1.165-2.6,2.592" transform="translate(-113.336 -88.16)" fill="#f5cb8b" fill-rule="evenodd"/>
          <path id="Trazado_876565" data-name="Trazado 876565" d="M335.142,439.3l3.606,11.986a2.727,2.727,0,0,0,3.387,1.822h0c1.433-.43,2.339-1.56,1.909-2.994l-3.692-12.379a2.729,2.729,0,0,0-3.389-1.823h0a2.728,2.728,0,0,0-1.823,3.388" transform="translate(-132.744 -88.095)" fill="#f5cb8b" fill-rule="evenodd"/>
          <path id="Trazado_876566" data-name="Trazado 876566" d="M341.01,443.505l3.314,14.5a2.6,2.6,0,0,0,5-1.382l-3.314-14.5a2.6,2.6,0,0,0-3.192-1.811h0a2.6,2.6,0,0,0-1.81,3.193" transform="translate(-142.71 -88.989)" fill="#f5cb8b" fill-rule="evenodd"/>
          <path id="Trazado_876567" data-name="Trazado 876567" d="M345.218,452.1l2.3,9.565a2.6,2.6,0,1,0,5.018-1.334l-2.3-9.565a2.763,2.763,0,0,0-3.175-1.841c-1.423.129-2.176,1.787-1.842,3.175" transform="translate(-149.277 -90.745)" fill="#f5cb8b" fill-rule="evenodd"/>
          <path id="Trazado_876568" data-name="Trazado 876568" d="M339,464.725l4.273,6.685c.823,1.167,3.534,2.388,4.7,1.565a2.6,2.6,0,0,0,.624-3.618l-5.475-8.172a2.764,2.764,0,0,0-3.618-.624c-1.289.615-1.273,2.962-.505,4.164" transform="translate(-140.409 -93.022)" fill="#f5cb8b" fill-rule="evenodd"/>
          <path id="Trazado_876569" data-name="Trazado 876569" d="M334.471,461.393l6.48,7.4a2.6,2.6,0,0,0,3.822-3.515l-6.48-7.4a2.762,2.762,0,0,0-3.668-.153h0c-1.2.776-1.094,2.594-.153,3.668" transform="translate(-133.023 -92.403)" fill="#f5cb8b" fill-rule="evenodd"/>
          <path id="Trazado_876570" data-name="Trazado 876570" d="M327.41,456.5l5.771,9.07a2.846,2.846,0,0,0,3.937.775h0a2.847,2.847,0,0,0,.775-3.937l-5.772-9.069c-.837-1.316-2.512-1.414-3.936-.775h0c-1.423.64-1.613,2.62-.775,3.936" transform="translate(-120.486 -91.407)" fill="#f5cb8b" fill-rule="evenodd"/>
          <path id="Trazado_876571" data-name="Trazado 876571" d="M319.27,453.55l5.5,11.03a2.883,2.883,0,0,0,3.912,1.115h0a2.884,2.884,0,0,0,1.115-3.911l-5.5-11.03c-.705-1.415-2.394-.669-3.913-1.115s-1.821,2.5-1.115,3.912" transform="translate(-105.884 -90.884)" fill="#f5cb8b" fill-rule="evenodd"/>
          <path id="Trazado_876572" data-name="Trazado 876572" d="M298.009,471.138c2.874,3.2,11.866,10.7,19.839,13.187s20.545-4.007,17.876-9.117-6.483-8.984-8.948-10.461-7.041-3.328-10.425-5.918c-2.26,2.85-8.893,8.869-18.342,12.309" transform="translate(-95.145 -92.751)" fill="#f5cb8b" fill-rule="evenodd"/>
          <path id="Trazado_876573" data-name="Trazado 876573" d="M319.087,455.058l-6.677-9.7a2.6,2.6,0,0,0-3.638-.49h0a2.6,2.6,0,0,0-.489,3.639l5.773,7.963c.838,1.155,2.222,3.74,3.487,3.077s2.356-3.318,1.545-4.494" transform="translate(-86.195 -89.822)" fill="#f5cb8b" fill-rule="evenodd"/>
          <path id="Trazado_876574" data-name="Trazado 876574" d="M312.684,467.361l-3.368-9.241a2.6,2.6,0,0,0-3.364-1.47h0a2.6,2.6,0,0,0-1.469,3.365l-1.244,10.252c-.172,1.418,6.606.057,7.976.46,1.4-.29,1.958-2.023,1.469-3.365" transform="translate(-76.084 -92.274)" fill="#f5cb8b" fill-rule="evenodd"/>
          <path id="Trazado_876575" data-name="Trazado 876575" d="M293.792,486.354l7.154,7.627L317.338,478.5l-7.154-7.627Z" transform="translate(-73.029 -95.186)" fill="#fff" fill-rule="evenodd"/>
          <path id="Trazado_876576" data-name="Trazado 876576" d="M287.593,406.962c-13.537,6.149-21.473,25.4-27.865,46.155-4.012,13.027-7.883,25.589-9.735,26.719-2.449,1.5-5.58,1.269-9.517-.578-6.586-3.093-14.519-9.794-24.009-19.806l-19.1,18.172c11.656,12.295,22.142,20.876,31.959,25.483,12.469,5.853,23.739,5.746,34.4-.762,10.367-6.329,15.683-23.586,21.194-41.484,4.525-14.684,9.234-29.974,11.637-30.878Z" transform="translate(24.685 -82.266)" fill="#ededed" fill-rule="evenodd"/>
          <path id="Trazado_876577" data-name="Trazado 876577" d="M197.645,576.619l-47.795-7.613q-.275,1.874-.555,3.688l48.089,5.563Z" transform="translate(161.952 -115.023)" fill="#1a1a1a" fill-rule="evenodd"/>
          <path id="Trazado_876578" data-name="Trazado 876578" d="M153.456,574.607H104.984V577.9l48.384,5.6Z" transform="translate(241.494 -116.155)" fill="#1a1a1a" fill-rule="evenodd"/>
          <path id="Trazado_876579" data-name="Trazado 876579" d="M222.274,541.58V480.81l-9.118-74.487-6.334.819c-3.637,3.977-14.917,26.34-15.065,39.159l-1.065,91.625Z" transform="translate(104.294 -82.137)" fill="#ededed" fill-rule="evenodd"/>
          <path id="Trazado_876580" data-name="Trazado 876580" d="M93.878,541.385V480.622l42.648-75.263c.556.014,9.778-.011,10.327.034a25.588,25.588,0,0,1,23.874,24.7l.4,120.233Z" transform="translate(232.686 -81.942)" fill="#ededed" fill-rule="evenodd"/>
          <path id="Trazado_876581" data-name="Trazado 876581" d="M143.5,482.895l42.648-77.536-45.273.044-3.636.844Z" transform="translate(183.061 -81.942)" fill="#ededed" fill-rule="evenodd"/>
          <path id="Trazado_876582" data-name="Trazado 876582" d="M206.257,482.994l-15.441-37.223,7.61-5.839L190.7,431.21l6.442-24.953,4.249-.409Z" transform="translate(120.307 -82.041)" fill="#d9d9d9" fill-rule="evenodd"/>
          <path id="Trazado_876583" data-name="Trazado 876583" d="M142.346,388.524h41.831c.176.554-.231,1.3-.09,1.87v12.1c-2.582,10.485-22.061,21.193-32.271,21.193-3.542-8.246-7.363-9.835-9.944-20.317V390.211q.211-.857.474-1.687" transform="translate(181.296 -78.539)" fill="#f5cb8b" fill-rule="evenodd"/>
          <path id="Trazado_876584" data-name="Trazado 876584" d="M142.347,384.233l41.831-16.944c.176.552-.231,1.3-.09,1.868V398.2c-1.111,4.509-5.346,9.922-10.627,13.422l-31.1-23.815-.491-.071v-1.819q.212-.857.474-1.685" transform="translate(181.295 -74.246)" fill="#edba68" fill-rule="evenodd"/>
          <path id="Trazado_876585" data-name="Trazado 876585" d="M184.913,438.439l-4.306,34.113.887,14.075,6.158-29.9,1.893-22.683v-10.22l-4.853,1.356-2.853,7.659Z" transform="translate(145.069 -85.674)" fill="#f1502d" fill-rule="evenodd"/>
          <path id="Trazado_876586" data-name="Trazado 876586" d="M179.257,439.7l-.589,23.369L166.433,486.62l0,.006h0l8.05-62.8,5.216,3.887,6.1,4.044Z" transform="translate(160.135 -85.674)" fill="#c34125" fill-rule="evenodd"/>
          <path id="Trazado_876587" data-name="Trazado 876587" d="M193.527,420.107,183,431.355c-.8-9.6-1.594-15.993-2.4-25.588.494-.109.988-.215,1.482-.325,1.13,5.39,3.905,9.894,11.436,14.665" transform="translate(141.085 -81.959)" fill="#fff" fill-rule="evenodd"/>
          <path id="Trazado_876588" data-name="Trazado 876588" d="M140.18,420.081l14.965,12.96,17.292-27.725h-1.486Z" transform="translate(194.433 -81.933)" fill="#fff" fill-rule="evenodd"/>
          <path id="Trazado_876589" data-name="Trazado 876589" d="M189.49,553.875v17.293l2.354.272V553.492Z" transform="translate(135.684 -111.886)" fill="#d9d9d9" fill-rule="evenodd"/>
          <path id="Trazado_876590" data-name="Trazado 876590" d="M189.49,553.875v17.293l2.354.272V553.492Z" transform="translate(135.684 -111.886)" fill="none" stroke="#d9d9d9" stroke-miterlimit="22.926" stroke-width="0.233"/>
          <path id="Trazado_876591" data-name="Trazado 876591" d="M203.567,556.693a3.636,3.636,0,1,0,3.636,3.637,3.636,3.636,0,0,0-3.636-3.637" transform="translate(111.995 -112.534)" fill="#d9d9d9" fill-rule="evenodd"/>
          <path id="Trazado_876592" data-name="Trazado 876592" d="M153.3,521.452c-1.459.435-3.476.971-6.1,1.606-7.8,1.888-18.789,2.551-33.392.874l-.029.261,1.281.587c3.918,1.77,1.8,7.386-2.681,11.669l-.19,1.665-1.7-.046a19.406,19.406,0,0,1-4.833,2.734,31.339,31.339,0,0,1-11.683,1.616l.7,2.663c2.1-.254,5.918-.9,5.918-.9l10.314,5.2-.364,3.163c17.838,2.046,32.094,1.1,42.857-1.418Z" transform="translate(250.337 -105.41)" fill="#d9d9d9" fill-rule="evenodd"/>
          <path id="Trazado_876593" data-name="Trazado 876593" d="M180.293,511.761l-8.694-5.817a2.769,2.769,0,0,0-3.811.852h0a2.77,2.77,0,0,0,.853,3.811l8.694,5.817c1.261.844,2.792.275,3.81-.852h0c1.018-1.127.41-2.965-.852-3.81" transform="translate(163.524 -102.188)" fill="#f2d291" fill-rule="evenodd"/>
          <path id="Trazado_876594" data-name="Trazado 876594" d="M131.747,482.886l37.465-34.935-4.45-11.729,12.127-9.574,1.892-21.294-6.728-.039Z" transform="translate(194.817 -81.933)" fill="#d9d9d9" fill-rule="evenodd"/>
          <path id="Trazado_876595" data-name="Trazado 876595" d="M236.071,537.125l-45.563-3.493a5.188,5.188,0,0,1-4.091-3.637l-19.188-71.388c-1.869-4.748,2.24-4.4,2.937-4.1l46.339,3.482a5.194,5.194,0,0,1,4.091,3.637c6.352,24.02,12.44,46.879,18.794,70.9,1.142,4.32-.264,4.835-3.32,4.6" transform="translate(105.887 -91.846)" fill="#629c8a" fill-rule="evenodd"/>
          <path id="Trazado_876596" data-name="Trazado 876596" d="M139.448,540.031c4.506.794,16.012,3.045,24.315-.107s14.994-13.5,9.407-16.022-12.7-6.312-16.9-6.8c-3.032.381-6.114,3.145-10.646,3.2-.019,3.869-.531,10.649-6.179,19.73" transform="translate(192.227 -104.53)" fill="#f5cb8b" fill-rule="evenodd"/>
          <path id="Trazado_876597" data-name="Trazado 876597" d="M187.728,515.872l8.875,5.066a2.761,2.761,0,1,0,2.765-4.78l-8.875-5.065c-1.317-.752-2.674-.039-3.771,1.008s-.31,3.019,1.007,3.771" transform="translate(129.407 -103.252)" fill="#f5cb8b" fill-rule="evenodd"/>
          <path id="Trazado_876598" data-name="Trazado 876598" d="M190.2,518.747l10.884,7.661a2.9,2.9,0,0,0,4.032-.7h0a2.9,2.9,0,0,0-.7-4.032l-10.885-7.661a2.9,2.9,0,0,0-4.032.7h0a2.9,2.9,0,0,0,.7,4.032" transform="translate(122.3 -103.8)" fill="#f5cb8b" fill-rule="evenodd"/>
          <path id="Trazado_876599" data-name="Trazado 876599" d="M188.684,523.775l12.291,9.956a2.761,2.761,0,0,0,3.28-4.443l-12.291-9.955a2.769,2.769,0,0,0-3.861.581h0a2.769,2.769,0,0,0,.582,3.861" transform="translate(123.689 -104.873)" fill="#f5cb8b" fill-rule="evenodd"/>
          <path id="Trazado_876600" data-name="Trazado 876600" d="M190.684,532.9l8.2,6.5a2.761,2.761,0,1,0,3.322-4.411l-8.2-6.5c-1.19-.943-2.761-.5-3.866.545h0c-1.105,1.041-.648,2.923.543,3.866" transform="translate(124.206 -106.728)" fill="#f5cb8b" fill-rule="evenodd"/>
          <path id="Trazado_876601" data-name="Trazado 876601" d="M180.05,541.366l7.729,2.4c1.454.436,4.713.055,5.149-1.4a2.768,2.768,0,0,0-1.853-3.436l-9.946-3.243c-1.443-.471-2.762.493-3.436,1.853v0c0,1.517.908,3.38,2.358,3.829" transform="translate(143.896 -108.262)" fill="#f5cb8b" fill-rule="evenodd"/>
          <path id="Trazado_876602" data-name="Trazado 876602" d="M178.757,536.231l10.28,1.936a2.768,2.768,0,0,0,3.17-2.279h0a2.767,2.767,0,0,0-2.279-3.169l-10.281-1.936c-1.491-.281-2.676.843-3.169,2.279h0c-.493,1.435.786,2.888,2.279,3.169" transform="translate(145.753 -107.287)" fill="#f5cb8b" fill-rule="evenodd"/>
          <path id="Trazado_876603" data-name="Trazado 876603" d="M175.871,529.427l10.781,3.8a3.026,3.026,0,0,0,3.8-1.936h0a3.025,3.025,0,0,0-1.936-3.8l-10.783-3.8c-1.564-.551-3.029.466-3.8,1.935h0c-.771,1.469.371,3.25,1.937,3.8" transform="translate(149.533 -105.831)" fill="#f5cb8b" fill-rule="evenodd"/>
          <path id="Trazado_876604" data-name="Trazado 876604" d="M170.083,524.305l12.66,3.387a3.06,3.06,0,0,0,1.312-5.977l-12.66-3.386c-1.624-.435-2.219,1.437-3.644,2.332s.707,3.209,2.332,3.644" transform="translate(158.787 -104.765)" fill="#f5cb8b" fill-rule="evenodd"/>
          <path id="Trazado_876605" data-name="Trazado 876605" d="M170.686,517.742l-8.885-5.521a2.768,2.768,0,0,0-3.78.978h0a2.769,2.769,0,0,0,.98,3.779l5.689,9.395c.787,1.3,5.566-4.29,6.975-4.852h0c.98-1.16.31-2.978-.98-3.779" transform="translate(180.802 -103.467)" fill="#f5cb8b" fill-rule="evenodd"/>
          <path id="Trazado_876606" data-name="Trazado 876606" d="M139.895,542.475l10.1,2.73,6-22.081L145.894,520.4Z" transform="translate(211.109 -105.196)" fill="#fff" fill-rule="evenodd"/>
          <path id="Trazado_876607" data-name="Trazado 876607" d="M101.33,415.2c7.394,6.654,17.756,24.086,25.865,41.013,1.462,3.053,2.856,6.138,4.157,9.2L123.8,520.356a59.356,59.356,0,0,1-13.5,4.951c-10.825,2.621-25.268,3.633-43.416,1.551l3.266-28.609c14.6,1.675,25.594,1.013,33.391-.874,6.182-1.5,8.991-2.445,9.092-2.8.269-.942-4.984-12.7-11.34-25.971-6.723-14.033-14.6-27.84-19.219-32Z" transform="translate(294 -83.932)" fill="#ededed" fill-rule="evenodd"/>
          <path id="Trazado_876608" data-name="Trazado 876608" d="M111.764,385.774A50.843,50.843,0,0,1,134.2,416.322a61.747,61.747,0,0,1,1.378,6.333c.419,2.7.551,5.476-.128,7.455l-5.5-1.888a11.921,11.921,0,0,0-.1-4.681,57.339,57.339,0,0,0-1.265-5.718,45.153,45.153,0,0,0-16.813-25.095Z" transform="translate(253.619 -77.983)" fill="#f6aa32" fill-rule="evenodd"/>
          <path id="Trazado_876609" data-name="Trazado 876609" d="M142.7,493.745l1.028.3.878.256-.28.864-.552,1.707-.268.83-.83-.25-.672-.2-.33-.1c-2.622-.763-4.125-1.2-5.658-3.637a8.484,8.484,0,0,1-.939-4.412c.023-9.039,9.486-27.471,15.294-30.986l.714-.436.476.689,1.025,1.482.55.8-.838.48s-.949.59-3.537,4.466c-4.419,6.626-9.858,15.01-10.1,23.266a5.433,5.433,0,0,0,.423,2.782c.811,1.286,1.832,1.584,3.613,2.1" transform="translate(217.805 -92.519)" fill="#699" fill-rule="evenodd"/>
          <path id="Trazado_876610" data-name="Trazado 876610" d="M144.916,507.637c-1.972-.6-3.167-2.326-2.67-3.86s2.5-2.287,4.467-1.689,3.167,2.327,2.671,3.858-2.5,2.29-4.468,1.691" transform="translate(215.814 -101.454)" fill="#5b412a" fill-rule="evenodd"/>
          <path id="Trazado_876611" data-name="Trazado 876611" d="M109.485,501.7l-1.012-.346-.865-.3-.27.868-.531,1.713-.259.832.823.275.665.22h0l.325.111c2.583.886,4.063,1.394,6.72.286a8.486,8.486,0,0,0,3.308-3.067c5.188-7.4,8.064-27.922,5.341-34.141l-.333-.767-.787.288-1.691.623-.907.333.408.874s.436,1.029.319,5.69c-.2,7.961-.583,17.948-5.142,24.835a5.426,5.426,0,0,1-1.948,2.031c-1.4.585-2.41.239-4.166-.361" transform="translate(268.925 -94.48)" fill="#699" fill-rule="evenodd"/>
          <path id="Trazado_876612" data-name="Trazado 876612" d="M126.652,513.836c1.957.645,3.93-.078,4.407-1.617s-.723-3.307-2.681-3.953-3.929.077-4.4,1.615.722,3.309,2.678,3.955" transform="translate(248.719 -102.696)" fill="#5b412a" fill-rule="evenodd"/>
          <path id="Trazado_876613" data-name="Trazado 876613" d="M132.468,439.571a77.432,77.432,0,0,1,2.244,7.549c.6,2.449,1.036,4.747,1.359,6.869.172,1.131.319,2.271.442,3.393.12,1.083.211,2.09.282,3.022a23.772,23.772,0,0,1,.24,2.86c.022.842,0,1.47-.026,1.835l-.109,1.768-1.76-.1-1.49-.085-1.441.038-1.762.046L130.4,465c-.014-.553-.038-1.178-.072-1.9v-.007q-.041-.871-.126-2.059c-.05-.3-.117-.636-.2-1.007s-.186-.744-.294-1.09a15.018,15.018,0,0,0-1.385-2.653,8.115,8.115,0,0,0-4.28-3.452,8.226,8.226,0,0,0-5.545.449,15.471,15.471,0,0,0-2.749,1.478c-.3.232-.594.474-.867.716s-.546.5-.807.768c-.461.555-.889,1.085-1.282,1.583q-.655.828-1.178,1.519l-1.04,1.372-1.4-1-1.159-.827-1.265-.749-1.569-.929.972-1.543c.211-.335.575-.888,1.059-1.526a24.417,24.417,0,0,1,1.912-2.235q.919-1.1,1.985-2.3c.761-.851,1.55-1.7,2.366-2.544,1.529-1.578,3.244-3.23,5.153-4.9a79.036,79.036,0,0,1,6.3-4.972l.72-.511.834.262,4.852,1.516.848.266Zm-8.389,6.55a15.9,15.9,0,0,1,3.858,1.181l-.127-.476h0q-.4-1.461-.871-2.96c-.626.473-1.381,1.064-2.164,1.694Z" transform="translate(257.755 -88.275)" fill="#f6aa32" fill-rule="evenodd"/>
          <path id="Trazado_876614" data-name="Trazado 876614" d="M196.256,443.26c-3.782-17.72-3.774-42.586,20.707-54.521l0,.01,0,.013,0,.014,0,.01-.006.015,0,.009-.006.018v0l-.006.022v0l-.008.023v0l-.006.022,0,0-.006.02,0,.006,0,.018,0,.009,0,.014,0,.013,0,.012,0,.014,0,.009,0,.018-.009.026v0l-.007.022-.006.025,0,0-.006.021,0,0,0,.018,0,.007,0,.018,0,.009,0,.014,0,.013,0,.01,0,.015,0,.01-.006.017,0,.006,0,.022,0,0-.006.024-.007.023v0l-.006.022,0,.006,0,.019,0,.007,0,.016,0,.01,0,.013,0,.014-.008.034-.006.02,0,0-.006.022v0l-.007.023h0v0l-.018.066,0,.009,0,.016-.01.038,0,.009,0,.018,0,.007-.006.02-.006.026v0l0,.023,0,0-.006.022-.013.049,0,.01-.021.079v.006l-.006.021v0l-.013.048v0l0,.022,0,0,0,.019,0,.008,0,.016,0,.01,0,.014,0,.014,0,.01,0,.016-.007.026,0,.006,0,.02v0l-.006.024h0v5.308c-18.706,11.215-17.822,32.876-14.249,48.152Z" transform="translate(106.626 -78.582)" fill="#f6aa32" fill-rule="evenodd"/>
          <path id="Trazado_876615" data-name="Trazado 876615" d="M207.531,282.479s-37.458-4.691-25.163,32.779c11.182-15.611,25.163-32.779,25.163-32.779" transform="translate(127.655 -57.064)" fill="#471e04" fill-rule="evenodd"/>
          <path id="Trazado_876616" data-name="Trazado 876616" d="M205.934,289.671c-8.851.192-25.061,5.506-24.852,26.953.11,11.342.989,14.184,1.6,19.662-3.45,15.849,5.654,39.345,23.251,41.608Z" transform="translate(128.303 -58.556)" fill="#edb368" fill-rule="evenodd"/>
          <path id="Trazado_876617" data-name="Trazado 876617" d="M143.2,282.486c8.85.192,41.291,2.412,41.755,33.5s-5.279,39.826-8.3,45.313c-6.152,11.156-25.4,14.108-33.451,15.144-12.153-1.478-7.181-19.31-8.175-29.935-2.783-.606-6.515-3.176-6.3-4.635.645-4.46,2.768-10.079,4.936-14.954-4.951-17.909-.827-34.036,9.543-44.432" transform="translate(191.036 -57.104)" fill="#f5cb8b" fill-rule="evenodd"/>
          <path id="Trazado_876618" data-name="Trazado 876618" d="M182.5,350.6c1.44-9.194,4.673-18.259,4.32-27.271-3.251-3.684-8.626,10.568-16.141-23.77-3.047-13.925-39.886-3.922-47.479-7.948-14.7-3.755,2.051-13.447,11.308-15.77,12.478-3.128,45.91-9.36,53.663,8.108,14.583,15.044,4.912,52.153-5.671,66.653" transform="translate(189.463 -55.015)" fill="#471e04" fill-rule="evenodd"/>
          <path id="Trazado_876619" data-name="Trazado 876619" d="M117.981,338.895c.886-2.3,1.972-3.9,4.821-4.5s8.022.852,8.01,8.928-6.744,15.018-11,14.054-2.236-16.331-1.827-18.486" transform="translate(254.438 -67.573)" fill="#f5cb8b" fill-rule="evenodd"/>
          <path id="Trazado_876620" data-name="Trazado 876620" d="M121.468,342.686a4.752,4.752,0,0,1,3.322-2.772c1.735-.364,4.238.5,4.232,5.412s-3.461,9.16-6.053,8.574c-.819-.184-1.272-1.378-1.506-2.921a3.693,3.693,0,0,0,2.22-4.286,4.04,4.04,0,0,0-2.292-3.128c.042-.548.077-.879.077-.879" transform="translate(252.838 -68.698)" fill="#edb368" fill-rule="evenodd"/>
          <path id="Trazado_876621" data-name="Trazado 876621" d="M178.074,368.779a9.269,9.269,0,0,0,18.326,0Z" transform="translate(140.235 -74.547)" fill="#fff" fill-rule="evenodd"/>
          <path id="Trazado_876622" data-name="Trazado 876622" d="M174.795,330.04H166.45a1.922,1.922,0,0,1-1.917-1.916h0a1.923,1.923,0,0,1,1.917-1.917h8.345a1.923,1.923,0,0,1,1.917,1.917h0a1.922,1.922,0,0,1-1.917,1.916" transform="translate(170.727 -65.941)" fill="#471e04" fill-rule="evenodd"/>
          <path id="Trazado_876623" data-name="Trazado 876623" d="M207.356,330.04h-5.3a1.922,1.922,0,0,1-1.917-1.916h0a1.923,1.923,0,0,1,1.917-1.917h5.3a1.923,1.923,0,0,1,1.917,1.917h0a1.922,1.922,0,0,1-1.917,1.916" transform="translate(109.757 -65.941)" fill="#471e04" fill-rule="evenodd"/>
          <path id="Trazado_876624" data-name="Trazado 876624" d="M173.5,339.3a2.814,2.814,0,1,0,2.813,2.814A2.813,2.813,0,0,0,173.5,339.3" transform="translate(166.212 -68.589)" fill="#471e04" fill-rule="evenodd"/>
          <path id="Trazado_876625" data-name="Trazado 876625" d="M175.564,341.9a.952.952,0,1,0,1.176-1.5l-.093-.073c-2.092-1.642-5.612-4.41-10.985.2a.951.951,0,0,0,1.237,1.445c4.186-3.591,6.938-1.431,8.571-.147Z" transform="translate(169.699 -68.324)" fill="#471e04" fill-rule="evenodd"/>
          <path id="Trazado_876626" data-name="Trazado 876626" d="M204.282,339.437a2.673,2.673,0,1,1-2.672,2.673,2.672,2.672,0,0,1,2.672-2.673" transform="translate(110.902 -68.616)" fill="#471e04" fill-rule="evenodd"/>
          <path id="Trazado_876627" data-name="Trazado 876627" d="M199.261,341.563a.9.9,0,1,1-1.117-1.422l.088-.069c1.987-1.561,4.179-3.88,9.284.5a.9.9,0,0,1-1.175,1.374c-3.977-3.413-5.439-1.668-6.991-.45Z" transform="translate(113.068 -68.335)" fill="#471e04" fill-rule="evenodd"/>
          <path id="Trazado_876628" data-name="Trazado 876628" d="M148.592,224.391v-50.4a7.509,7.509,0,0,0-7.489-7.489H61.761v1.828H141.1a5.68,5.68,0,0,1,5.661,5.662v50.4Z" transform="translate(280.844 -33.658)" fill="#7bc3ad" fill-rule="evenodd"/>
          <path id="Trazado_876629" data-name="Trazado 876629" d="M245.348,72.931H241.16a1.4,1.4,0,0,0-1.4,1.4v4.189a1.4,1.4,0,0,0,1.4,1.4h4.188a1.4,1.4,0,0,0,1.4-1.4V74.326a1.4,1.4,0,0,0-1.4-1.4" transform="translate(40.672 -14.743)" fill="#f77917" fill-rule="evenodd"/>
          <path id="Trazado_876630" data-name="Trazado 876630" d="M219.3,142.106h-9.252a3.093,3.093,0,0,0-3.084,3.084v9.252a3.093,3.093,0,0,0,3.084,3.084H219.3a3.093,3.093,0,0,0,3.084-3.084V145.19a3.092,3.092,0,0,0-3.084-3.084" transform="translate(91.196 -28.726)" fill="#f6aa32" fill-rule="evenodd"/>
          <path id="Trazado_876631" data-name="Trazado 876631" d="M236.178,108.672h-6.265a2.094,2.094,0,0,0-2.088,2.088v6.265a2.094,2.094,0,0,0,2.088,2.088h6.265a2.094,2.094,0,0,0,2.088-2.088V110.76a2.094,2.094,0,0,0-2.088-2.088" transform="translate(58.675 -21.968)" fill="#7bc3ad" fill-rule="evenodd"/>
          <path id="Trazado_876632" data-name="Trazado 876632" d="M264.692,92.212H256.92a2.6,2.6,0,0,0-2.591,2.591v7.773a2.6,2.6,0,0,0,2.591,2.59h7.773a2.6,2.6,0,0,0,2.591-2.59V94.8a2.6,2.6,0,0,0-2.591-2.591" transform="translate(8.512 -18.64)" fill="#f77917" fill-rule="evenodd"/>
          <path id="Trazado_876633" data-name="Trazado 876633" d="M521.926,300.4h-11.16a3.731,3.731,0,0,0-3.72,3.72v11.16a3.731,3.731,0,0,0,3.72,3.72h11.16a3.731,3.731,0,0,0,3.72-3.72v-11.16a3.731,3.731,0,0,0-3.72-3.72" transform="translate(-451.482 -60.726)" fill="#f6aa32" fill-rule="evenodd"/>
          <path id="Trazado_876634" data-name="Trazado 876634" d="M552.353,279.818H548.36a1.335,1.335,0,0,0-1.331,1.331v3.993a1.335,1.335,0,0,0,1.331,1.331h3.993a1.335,1.335,0,0,0,1.331-1.331v-3.993a1.335,1.335,0,0,0-1.331-1.331" transform="translate(-511.421 -56.564)" fill="#cc3" fill-rule="evenodd"/>
          <path id="Trazado_876635" data-name="Trazado 876635" d="M492.4,333.648h-4.031a1.347,1.347,0,0,0-1.343,1.344v4.03a1.347,1.347,0,0,0,1.343,1.344H492.4a1.348,1.348,0,0,0,1.344-1.344v-4.03a1.347,1.347,0,0,0-1.344-1.344" transform="translate(-403.61 -67.446)" fill="#f6aa32" fill-rule="evenodd"/>
          <path id="Trazado_876636" data-name="Trazado 876636" d="M443.569,363.118h-8.618a2.881,2.881,0,0,0-2.872,2.872v8.618a2.881,2.881,0,0,0,2.872,2.872h8.618a2.881,2.881,0,0,0,2.872-2.872V365.99a2.881,2.881,0,0,0-2.872-2.872" transform="translate(-312.465 -73.403)" fill="#7bc3ad" fill-rule="evenodd"/>
          <path id="Trazado_876637" data-name="Trazado 876637" d="M414.765,375.9h-5.1a1.7,1.7,0,0,0-1.7,1.7v5.1a1.7,1.7,0,0,0,1.7,1.7h5.1a1.7,1.7,0,0,0,1.7-1.7v-5.1a1.7,1.7,0,0,0-1.7-1.7" transform="translate(-263.252 -75.987)" fill="#cc3" fill-rule="evenodd"/>
          <path id="Trazado_876638" data-name="Trazado 876638" d="M397.468,337.3H389.7a2.6,2.6,0,0,0-2.591,2.591v7.773a2.6,2.6,0,0,0,2.591,2.591h7.773a2.6,2.6,0,0,0,2.591-2.591v-7.773a2.6,2.6,0,0,0-2.591-2.591" transform="translate(-230.2 -68.184)" fill="#f77917" fill-rule="evenodd"/>
          <path id="Trazado_876639" data-name="Trazado 876639" d="M411.672,309.913h-8.254a2.759,2.759,0,0,0-2.751,2.751v8.254a2.758,2.758,0,0,0,2.751,2.751h8.254a2.758,2.758,0,0,0,2.751-2.751v-8.254a2.759,2.759,0,0,0-2.751-2.751" transform="translate(-255.384 -62.648)" fill="#cc3" fill-rule="evenodd"/>
          <path id="Trazado_876640" data-name="Trazado 876640" d="M518.454,6.717h4.031a1.347,1.347,0,0,0,1.343-1.344V1.344A1.347,1.347,0,0,0,522.484,0h-4.031a1.347,1.347,0,0,0-1.344,1.344v4.03a1.347,1.347,0,0,0,1.344,1.344" transform="translate(-457.693)" fill="#f6aa32" fill-rule="evenodd"/>
          <path id="Trazado_876641" data-name="Trazado 876641" d="M503.692,23.09h4.188a1.4,1.4,0,0,0,1.4-1.4V17.505a1.4,1.4,0,0,0-1.4-1.4h-4.188a1.4,1.4,0,0,0-1.4,1.4v4.189a1.4,1.4,0,0,0,1.4,1.4" transform="translate(-431.324 -3.257)" fill="#f77917" fill-rule="evenodd"/>
          <path id="Trazado_876642" data-name="Trazado 876642" d="M477.2,79.185h8.618a2.881,2.881,0,0,0,2.872-2.872V67.7a2.88,2.88,0,0,0-2.872-2.872H477.2a2.88,2.88,0,0,0-2.872,2.872v8.618a2.881,2.881,0,0,0,2.872,2.872" transform="translate(-388.43 -13.104)" fill="#7bc3ad" fill-rule="evenodd"/>
          <path id="Trazado_876643" data-name="Trazado 876643" d="M485.2,44.145h3.993a1.334,1.334,0,0,0,1.331-1.331V38.821a1.334,1.334,0,0,0-1.331-1.331H485.2a1.335,1.335,0,0,0-1.331,1.331v3.993a1.335,1.335,0,0,0,1.331,1.331" transform="translate(-397.868 -7.578)" fill="#cc3" fill-rule="evenodd"/>
          <path id="Trazado_876644" data-name="Trazado 876644" d="M531.174,73.165h4.188a1.4,1.4,0,0,0,1.4-1.4V67.581a1.4,1.4,0,0,0-1.4-1.4h-4.188a1.4,1.4,0,0,0-1.4,1.4v4.188a1.4,1.4,0,0,0,1.4,1.4" transform="translate(-480.732 -13.379)" fill="#f77917" fill-rule="evenodd"/>
          <path id="Trazado_876645" data-name="Trazado 876645" d="M537.286,37.428h6.265a2.094,2.094,0,0,0,2.088-2.088V29.075a2.094,2.094,0,0,0-2.088-2.088h-6.265a2.094,2.094,0,0,0-2.088,2.088V35.34a2.094,2.094,0,0,0,2.088,2.088" transform="translate(-493.936 -5.455)" fill="#7bc3ad" fill-rule="evenodd"/>
          <path id="Trazado_876646" data-name="Trazado 876646" d="M508.534,60.663h12.078a4.038,4.038,0,0,0,4.026-4.026V44.559a4.037,4.037,0,0,0-4.026-4.026H508.534a4.038,4.038,0,0,0-4.026,4.026V56.637a4.038,4.038,0,0,0,4.026,4.026" transform="translate(-448.449 -8.194)" fill="#f6aa32" fill-rule="evenodd"/>
          <path id="Trazado_876647" data-name="Trazado 876647" d="M507.495,67.89h5.1a1.7,1.7,0,0,0,1.7-1.7V61.1a1.7,1.7,0,0,0-1.7-1.7h-5.1a1.7,1.7,0,0,0-1.7,1.7v5.1a1.7,1.7,0,0,0,1.7,1.7" transform="translate(-439.128 -12.007)" fill="#cc3" fill-rule="evenodd"/>
          <path id="Trazado_876648" data-name="Trazado 876648" d="M501.216,95.616h7.773a2.6,2.6,0,0,0,2.591-2.591V85.253a2.6,2.6,0,0,0-2.591-2.59h-7.773a2.6,2.6,0,0,0-2.591,2.59v7.773a2.6,2.6,0,0,0,2.591,2.591" transform="translate(-430.697 -16.71)" fill="#f77917" fill-rule="evenodd"/>
          <path id="Trazado_876649" data-name="Trazado 876649" d="M559.726,104.159h8.254a2.758,2.758,0,0,0,2.751-2.751V93.155A2.758,2.758,0,0,0,567.98,90.4h-8.254a2.758,2.758,0,0,0-2.751,2.751v8.253a2.758,2.758,0,0,0,2.751,2.751" transform="translate(-536.403 -18.275)" fill="#cc3" fill-rule="evenodd"/>
          <path id="Trazado_876650" data-name="Trazado 876650" d="M328.7,193.431h11.16a3.731,3.731,0,0,0,3.72-3.72v-11.16a3.73,3.73,0,0,0-3.72-3.72H328.7a3.73,3.73,0,0,0-3.72,3.72v11.16a3.731,3.731,0,0,0,3.72,3.72" transform="translate(-124.147 -35.341)" fill="#f6aa32" fill-rule="evenodd"/>
          <path id="Trazado_876651" data-name="Trazado 876651" d="M586.355,199.573h7.773a2.6,2.6,0,0,0,2.591-2.591V189.21a2.6,2.6,0,0,0-2.591-2.591h-7.773a2.6,2.6,0,0,0-2.591,2.591v7.773a2.6,2.6,0,0,0,2.591,2.591" transform="translate(-583.764 -37.724)" fill="#f77917" fill-rule="evenodd"/>
          <path id="Trazado_876652" data-name="Trazado 876652" d="M576.947,236.5H585.2a2.759,2.759,0,0,0,2.751-2.751v-8.254a2.758,2.758,0,0,0-2.751-2.751h-8.254a2.758,2.758,0,0,0-2.751,2.751v8.254a2.759,2.759,0,0,0,2.751,2.751" transform="translate(-567.364 -45.027)" fill="#cc3" fill-rule="evenodd"/>
          <path id="Trazado_876653" data-name="Trazado 876653" d="M481.206,253.027h11.16a3.731,3.731,0,0,0,3.72-3.72v-11.16a3.73,3.73,0,0,0-3.72-3.72h-11.16a3.73,3.73,0,0,0-3.72,3.72v11.16a3.731,3.731,0,0,0,3.72,3.72" transform="translate(-398.337 -47.389)" fill="#f6aa32" fill-rule="evenodd"/>
          <path id="Trazado_876654" data-name="Trazado 876654" d="M492.3,276.9h6.265a2.094,2.094,0,0,0,2.088-2.088v-6.265a2.094,2.094,0,0,0-2.088-2.088H492.3a2.094,2.094,0,0,0-2.088,2.088v6.265A2.094,2.094,0,0,0,492.3,276.9" transform="translate(-413.056 -53.864)" fill="#7bc3ad" fill-rule="evenodd"/>
          <path id="Trazado_876655" data-name="Trazado 876655" d="M277.39,262.171h-8.618a2.881,2.881,0,0,0-2.872,2.872v8.618a2.881,2.881,0,0,0,2.872,2.872h8.618a2.881,2.881,0,0,0,2.872-2.872v-8.618a2.881,2.881,0,0,0-2.872-2.872" transform="translate(-13.699 -52.997)" fill="#7bc3ad" fill-rule="evenodd"/>
          <path id="Trazado_876656" data-name="Trazado 876656" d="M248.587,274.954h-5.1a1.7,1.7,0,0,0-1.7,1.7v5.1a1.7,1.7,0,0,0,1.7,1.7h5.1a1.7,1.7,0,0,0,1.7-1.7v-5.1a1.7,1.7,0,0,0-1.7-1.7" transform="translate(35.511 -55.581)" fill="#cc3" fill-rule="evenodd"/>
          <path id="Trazado_876657" data-name="Trazado 876657" d="M382.938,313.134H389.2a2.094,2.094,0,0,0,2.088-2.088v-6.265a2.094,2.094,0,0,0-2.088-2.088h-6.265a2.094,2.094,0,0,0-2.088,2.088v6.265a2.094,2.094,0,0,0,2.088,2.088" transform="translate(-216.441 -61.188)" fill="#7bc3ad" fill-rule="evenodd"/>
          <path id="Trazado_876658" data-name="Trazado 876658" d="M305.795,356.641h4.03a1.347,1.347,0,0,0,1.344-1.344v-4.03a1.347,1.347,0,0,0-1.344-1.344h-4.03a1.347,1.347,0,0,0-1.344,1.344v4.03a1.348,1.348,0,0,0,1.344,1.344" transform="translate(-75.363 -70.736)" fill="#f6aa32" fill-rule="evenodd"/>
          <path id="Trazado_876659" data-name="Trazado 876659" d="M291.034,373.014h4.188a1.4,1.4,0,0,0,1.4-1.4v-4.189a1.4,1.4,0,0,0-1.4-1.4h-4.188a1.4,1.4,0,0,0-1.4,1.4v4.189a1.4,1.4,0,0,0,1.4,1.4" transform="translate(-48.995 -73.993)" fill="#f77917" fill-rule="evenodd"/>
          <path id="Trazado_876660" data-name="Trazado 876660" d="M259.9,383.089h8.254a2.758,2.758,0,0,0,2.751-2.751v-8.254a2.759,2.759,0,0,0-2.751-2.751H259.9a2.759,2.759,0,0,0-2.751,2.751v8.254a2.758,2.758,0,0,0,2.751,2.751" transform="translate(2.631 -74.659)" fill="#cc3" fill-rule="evenodd"/>
          <path id="Trazado_876661" data-name="Trazado 876661" d="M454.156,171.109h-8.618a2.881,2.881,0,0,0-2.872,2.872V182.6a2.881,2.881,0,0,0,2.872,2.872h8.618a2.881,2.881,0,0,0,2.872-2.872v-8.618a2.881,2.881,0,0,0-2.872-2.872" transform="translate(-331.499 -34.589)" fill="#7bc3ad" fill-rule="evenodd"/>
          <path id="Trazado_876662" data-name="Trazado 876662" d="M467.172,198.865h-4.031a1.347,1.347,0,0,0-1.343,1.344v4.031a1.346,1.346,0,0,0,1.343,1.343h4.031a1.347,1.347,0,0,0,1.344-1.343v-4.031a1.347,1.347,0,0,0-1.344-1.344" transform="translate(-358.25 -40.2)" fill="#f6aa32" fill-rule="evenodd"/>
          <path id="Trazado_876663" data-name="Trazado 876663" d="M415.324,114.143h-6.265a2.094,2.094,0,0,0-2.088,2.088V122.5a2.094,2.094,0,0,0,2.088,2.088h6.265a2.094,2.094,0,0,0,2.088-2.088v-6.265a2.094,2.094,0,0,0-2.088-2.088" transform="translate(-263.403 -23.074)" fill="#7bc3ad" fill-rule="evenodd"/>
          <path id="Trazado_876664" data-name="Trazado 876664" d="M401.251,101.073h-4.031a1.347,1.347,0,0,0-1.344,1.344v4.031a1.347,1.347,0,0,0,1.344,1.343h4.031a1.347,1.347,0,0,0,1.344-1.343v-4.031a1.347,1.347,0,0,0-1.344-1.344" transform="translate(-239.735 -20.432)" fill="#f6aa32" fill-rule="evenodd"/>
          <path id="Trazado_876665" data-name="Trazado 876665" d="M153.066,337.724c.331-.014.669-.021,1.009-.018a12.093,12.093,0,0,1,3.156.381,10.977,10.977,0,0,0,.286,1.107c.391,1.192,1.758,10.307,4.393,10.392,2.635.425,16.2.255,17.666-.6s5.368-8.858,3.612-12.947c-7.956-2.562-23.447-.231-26.053.142a15.971,15.971,0,0,0-3.043-.286c-.345,0-.688,0-1.025.016Zm6.313-.389c1.514-.209,14.746-2.3,21.442-.139,1.434,3.339-1.755,9.877-2.95,10.572s-12.274.835-14.426.488c-2.153-.07-3.269-7.513-3.588-8.487a14.813,14.813,0,0,1-.478-2.434" transform="translate(172.956 -67.69)" fill="#471e04" fill-rule="evenodd"/>
          <path id="Trazado_876666" data-name="Trazado 876666" d="M209.749,336.2c-2.156-.3-10.891-2.771-19-.161-1.758,4.089,2.146,12.1,3.611,12.947s7.841,1.023,10.477.6c2.636-.085,4-9.2,4.394-10.392a10.772,10.772,0,0,0,.282-1.094,19.023,19.023,0,0,1,3.128-.376v-1.81a23.681,23.681,0,0,0-2.9.289m-2.377,1.132a14.852,14.852,0,0,1-.479,2.434c-.318.973-1.435,8.417-3.587,8.487-2.152.347-6.042.207-7.238-.488s-4.383-7.233-2.949-10.572c6.7-2.157,12.739-.07,14.253.139" transform="translate(114.229 -67.69)" fill="#471e04" fill-rule="evenodd"/>
        </g>
      </g>
    </g>
  </g>
</svg>
