<svg xmlns="http://www.w3.org/2000/svg" width="129.737" height="122.746" viewBox="0 0 129.737 122.746">
  <g id="Grupo_1101899" data-name="Grupo 1101899" transform="translate(-652.995 -11616.563)">
    <g id="Grupo_1101032" data-name="Grupo 1101032" transform="translate(0 -450)">
      <path id="_12068" data-name="12068" d="M98.737,72.292c-13.285-1.834-27.318-1.386-39.407,4.421-16.765,8.052-27.775,26.309-28.2,44.9S40.4,158.479,55.36,169.523s34.7,14.959,53,11.643c18.453-3.344,35.773-14.186,45.4-30.28,6.172-10.321,9.057-23.065,5.647-34.6-2.059-6.961-6.267-13.128-11.217-18.437A82.875,82.875,0,0,0,98.737,72.292Z" transform="translate(621.876 12007.001)" fill="#26aab7"/>
      <g id="panel" transform="translate(656.734 12035.935)">
        <g id="Grupo_1100999" data-name="Grupo 1100999" transform="translate(1.798 32.424)">
          <g id="Grupo_1100998" data-name="Grupo 1100998" transform="translate(0 0)">
            <g id="Grupo_1100992" data-name="Grupo 1100992">
              <g id="Grupo_1100990" data-name="Grupo 1100990" transform="translate(0 0.768)">
                <g id="Grupo_1100989" data-name="Grupo 1100989">
                  <g id="Grupo_1100988" data-name="Grupo 1100988">
                    <path id="Trazado_878755" data-name="Trazado 878755" d="M11.1,145.033a3.6,3.6,0,0,1-3.6-3.6V55.977L9.9,44.913a3.6,3.6,0,0,1,3.6-3.6l105.51.74c1.986,0,5.262,1.61,5.262,2.647v91.74c0,2.935-3.56,7.879-5.547,7.879l-2.175.709Z" transform="translate(-7.5 -41.317)" fill="#f9f7f8"/>
                  </g>
                </g>
              </g>
              <path id="Trazado_878756" data-name="Trazado 878756" d="M125.719,42.578V52.753l-6.386.765L7.5,53.542V41.711a3.6,3.6,0,0,1,3.6-3.6H115.9l5.6.249A4.743,4.743,0,0,1,125.719,42.578Z" transform="translate(-7.5 -38.114)" fill="#8abbd5"/>
              <g id="Grupo_1100991" data-name="Grupo 1100991" transform="translate(108.404)">
                <path id="Trazado_878757" data-name="Trazado 878757" d="M469.478,93.7l2.936,2.076v85.483a3.6,3.6,0,0,1-3.6,3.6h-6.523l.758-.449a4.141,4.141,0,0,0,2.031-3.563V95.775Z" transform="translate(-461.653 -80.372)" fill="#efedef"/>
                <path id="Trazado_878758" data-name="Trazado 878758" d="M470.382,41.711V53.518h-7.331V42.776a4.71,4.71,0,0,0-2.472-4.144l-.958-.517h7.164a3.6,3.6,0,0,1,3.6,3.6Z" transform="translate(-459.622 -38.114)" fill="#6cabca"/>
              </g>
            </g>
            <g id="Grupo_1100997" data-name="Grupo 1100997" transform="translate(12.721 23.683)">
              <g id="Grupo_1100996" data-name="Grupo 1100996">
                <g id="Grupo_1100993" data-name="Grupo 1100993" transform="translate(0 0.007)">
                  <path id="Trazado_878759" data-name="Trazado 878759" d="M168.766,153.7h8.1a.477.477,0,0,0,.48-.486,16.788,16.788,0,0,0-16.295-16.295.477.477,0,0,0-.486.48v8.1a.477.477,0,0,0,.448.477,7.739,7.739,0,0,1,7.278,7.278.477.477,0,0,0,.477.448Z" transform="translate(-136.586 -136.92)" fill="#fea3ce"/>
                  <path id="Trazado_878760" data-name="Trazado 878760" d="M143.2,237.4a.478.478,0,0,0-.48-.487h-8.1a.478.478,0,0,0-.477.45,7.737,7.737,0,0,1-7.725,7.286l-1.307,4.229,1.307,4.817A16.785,16.785,0,0,0,143.2,237.4Z" transform="translate(-109.633 -212.938)" fill="#8abbd5"/>
                  <path id="Trazado_878761" data-name="Trazado 878761" d="M76.793,240.64a7.764,7.764,0,0,1-7.17-7.17c-.013-.184-.017-.367-.017-.549l-4.657-1.259-4.389,1.259c0,.135,0,.269,0,.4A16.848,16.848,0,0,0,76.937,249.7c.136,0,.27,0,.4,0v-9.047C77.16,240.656,76.977,240.652,76.793,240.64Z" transform="translate(-60.557 -208.945)" fill="#bbec6c"/>
                  <path id="Trazado_878762" data-name="Trazado 878762" d="M76.9,175.978a.478.478,0,0,0,.45-.477v-8.1a.478.478,0,0,0-.487-.48,16.785,16.785,0,0,0-16.3,16.781h9.047A7.738,7.738,0,0,1,76.9,175.978Z" transform="translate(-60.562 -159.729)" fill="#fce459"/>
                </g>
                <g id="Grupo_1100994" data-name="Grupo 1100994" transform="translate(45.433)">
                  <path id="Trazado_878763" data-name="Trazado 878763" d="M292.835,209.217l-14.982-2.011V187.817a1.2,1.2,0,0,1,1.2-1.2h7.5Z" transform="translate(-271.185 -174.695)" fill="#fea3ce"/>
                  <path id="Trazado_878764" data-name="Trazado 878764" d="M320.4,209.217l-3.17-22.6h-3.117v21.755Z" transform="translate(-298.754 -174.695)" fill="#fe7ab6"/>
                  <path id="Trazado_878765" data-name="Trazado 878765" d="M342.115,191.022l-15-2.718V162.954a1.2,1.2,0,0,1,1.2-1.2h6.537Z" transform="translate(-308.639 -155.793)" fill="#fce459"/>
                  <path id="Trazado_878766" data-name="Trazado 878766" d="M364.178,161.755h-4.8V188.3l7.979,2.718Z" transform="translate(-333.166 -155.793)" fill="#f9d608"/>
                  <path id="Trazado_878767" data-name="Trazado 878767" d="M387.433,171.413,376.384,169.4V138.09a1.2,1.2,0,0,1,1.2-1.2h4.807l3.837.48a1.49,1.49,0,0,1,1.49,1.49Z" transform="translate(-346.092 -136.891)" fill="#bbec6c"/>
                  <path id="Trazado_878768" data-name="Trazado 878768" d="M404.227,136.891h-4.8a1.49,1.49,0,0,1,1.49,1.49V169.4l4.8,2.011V138.381A1.49,1.49,0,0,0,404.227,136.891Z" transform="translate(-363.613 -136.891)" fill="#a2e62e"/>
                  <path id="Trazado_878769" data-name="Trazado 878769" d="M297.138,280.235l-4.316.48H251.243a1.2,1.2,0,0,1-1.2-1.2v-5.871a1.2,1.2,0,0,1,1.2-1.2h41.578l4.316.48a1.2,1.2,0,0,1,1.2,1.2v4.912A1.2,1.2,0,0,1,297.138,280.235Z" transform="translate(-250.044 -239.944)" fill="#918291"/>
                  <path id="Trazado_878770" data-name="Trazado 878770" d="M431.731,272.446h-5.275a1.2,1.2,0,0,1,1.2,1.2v5.871a1.2,1.2,0,0,1-1.2,1.2h5.275a1.2,1.2,0,0,0,1.2-1.2v-5.871A1.2,1.2,0,0,0,431.731,272.446Z" transform="translate(-384.158 -239.944)" fill="#7a6d79"/>
                </g>
                <g id="Grupo_1100995" data-name="Grupo 1100995" transform="translate(45.433 50.7)">
                  <circle id="Elipse_11919" data-name="Elipse 11919" cx="3.345" cy="3.345" r="3.345" transform="translate(0 14.027)" fill="#bbec6c"/>
                  <circle id="Elipse_11920" data-name="Elipse 11920" cx="3.345" cy="3.345" r="3.345" transform="translate(14.027)" fill="#bbec6c"/>
                  <circle id="Elipse_11921" data-name="Elipse 11921" cx="3.345" cy="3.345" r="3.345" transform="translate(28.054 14.027)" fill="#bbec6c"/>
                  <circle id="Elipse_11922" data-name="Elipse 11922" cx="3.345" cy="3.345" r="3.345" transform="translate(42.081)" fill="#bbec6c"/>
                </g>
              </g>
            </g>
          </g>
        </g>
        <g id="Grupo_1101001" data-name="Grupo 1101001" transform="translate(0 30.629)">
          <path id="Trazado_878771" data-name="Trazado 878771" d="M117.052,30.629h-13.2a1.8,1.8,0,0,0,0,3.6h13.2a2.115,2.115,0,0,1,2.112,2.113v9.551H3.6V36.338a2.115,2.115,0,0,1,2.112-2.113h89.75a1.8,1.8,0,0,0,0-3.6H5.709A5.716,5.716,0,0,0,0,36.338v28.7a1.8,1.8,0,1,0,3.6,0V49.486H119.164v83.507a2.115,2.115,0,0,1-2.112,2.113H43.921a1.8,1.8,0,0,0,0,3.6h73.131a5.715,5.715,0,0,0,5.709-5.709V36.338A5.715,5.715,0,0,0,117.052,30.629Z" transform="translate(0 -30.629)"/>
          <path id="Trazado_878772" data-name="Trazado 878772" d="M35.529,265.114H5.709A2.115,2.115,0,0,1,3.6,263V203.438a1.8,1.8,0,1,0-3.6,0V263a5.716,5.716,0,0,0,5.709,5.709h29.82a1.8,1.8,0,0,0,0-3.6Z" transform="translate(0 -160.637)"/>
          <path id="Trazado_878773" data-name="Trazado 878773" d="M71.629,172.041a1.8,1.8,0,0,0,1.8-1.8v-9.05a1.8,1.8,0,0,0-1.8-1.8,18.586,18.586,0,1,0,18.586,18.586,1.8,1.8,0,0,0-1.8-1.8h-9.05a1.8,1.8,0,0,0-1.8,1.8,5.94,5.94,0,1,1-5.94-5.94ZM81,179.78h5.516a15.017,15.017,0,0,1-13.084,13.08v-5.514A9.563,9.563,0,0,0,81,179.78ZM69.83,187.345v5.514a15.014,15.014,0,0,1-13.08-13.08h5.514A9.561,9.561,0,0,0,69.83,187.345Zm-7.567-11.162H56.75A15.017,15.017,0,0,1,69.83,163.1v5.516A9.563,9.563,0,0,0,62.263,176.183Z" transform="translate(-40.324 -128.521)"/>
          <path id="Trazado_878774" data-name="Trazado 878774" d="M154.861,129.392a1.8,1.8,0,0,0-1.8,1.8v9.05a1.8,1.8,0,0,0,1.8,1.8,5.947,5.947,0,0,1,5.94,5.94,1.8,1.8,0,0,0,1.8,1.8h9.05a1.8,1.8,0,0,0,1.8-1.8A18.607,18.607,0,0,0,154.861,129.392Zm9.367,16.788a9.564,9.564,0,0,0-7.568-7.568V133.1a15.02,15.02,0,0,1,13.084,13.084Z" transform="translate(-116.364 -105.712)"/>
          <path id="Trazado_878775" data-name="Trazado 878775" d="M284.953,129.392H275.83a3,3,0,0,0-3,3v2.964h-8.815a3,3,0,0,0-3,3v2.964h-8.815a3,3,0,0,0-3,3v17.583h-3.672a3,3,0,0,0-3,3v5.869a3,3,0,0,0,3,3h10.37a1.8,1.8,0,1,0,0-3.6h-9.77v-4.67c11.129-.007,34.327.015,45.177,0v4.67H264.3a1.8,1.8,0,0,0,0,3.6h27.614a3,3,0,0,0,3-3v-5.869a3,3,0,0,0-3-3h-3.671V132.68A3.292,3.292,0,0,0,284.953,129.392Zm-.308,3.6v28.906h-8.216V132.989Zm-11.812,5.961v22.945h-8.216V138.95Zm-20.028,5.961h8.216v16.983h-8.216Z" transform="translate(-184.387 -105.712)"/>
          <path id="Trazado_878776" data-name="Trazado 878776" d="M289.769,351.134a5.16,5.16,0,1,0-4.675-3.011l-7.22,7.22a5.086,5.086,0,0,0-4.264,0l-7.22-7.22a5.144,5.144,0,1,0-9.35,0l-7.22,7.22a5.16,5.16,0,1,0,2.543,2.543l7.22-7.22a5.086,5.086,0,0,0,4.264,0l7.22,7.22a5.144,5.144,0,1,0,9.351,0l7.22-7.22A5.1,5.1,0,0,0,289.769,351.134Zm0-6.691a1.547,1.547,0,1,1-1.547,1.547A1.549,1.549,0,0,1,289.769,344.444Zm-42.081,17.122a1.547,1.547,0,1,1,1.547-1.547A1.549,1.549,0,0,1,247.688,361.565Zm12.48-15.574a1.547,1.547,0,1,1,1.547,1.547A1.549,1.549,0,0,1,260.168,345.991Zm15.574,15.574a1.547,1.547,0,1,1,1.547-1.547A1.549,1.549,0,0,1,275.742,361.565Z" transform="translate(-184.39 -266.467)"/>
          <path id="Trazado_878777" data-name="Trazado 878777" d="M54.84,344.444h4.827a1.8,1.8,0,0,0,0-3.6H54.84a1.8,1.8,0,0,0,0,3.6Z" transform="translate(-40.324 -266.467)"/>
          <path id="Trazado_878778" data-name="Trazado 878778" d="M54.84,387.647h4.827a1.8,1.8,0,1,0,0-3.6H54.84a1.8,1.8,0,1,0,0,3.6Z" transform="translate(-40.324 -299.312)"/>
          <path id="Trazado_878779" data-name="Trazado 878779" d="M54.84,430.852h4.827a1.8,1.8,0,1,0,0-3.6H54.84a1.8,1.8,0,1,0,0,3.6Z" transform="translate(-40.324 -332.158)"/>
          <path id="Trazado_878780" data-name="Trazado 878780" d="M108.179,342.645a1.8,1.8,0,0,0,1.8,1.8h33.951a1.8,1.8,0,0,0,0-3.6H109.977a1.8,1.8,0,0,0-1.8,1.8Z" transform="translate(-82.241 -266.467)"/>
          <path id="Trazado_878781" data-name="Trazado 878781" d="M109.977,387.647h16.786a1.8,1.8,0,1,0,0-3.6H109.977a1.8,1.8,0,1,0,0,3.6Z" transform="translate(-82.241 -299.312)"/>
          <path id="Trazado_878782" data-name="Trazado 878782" d="M109.977,430.852h23.979a1.8,1.8,0,1,0,0-3.6H109.977a1.8,1.8,0,1,0,0,3.6Z" transform="translate(-82.241 -332.158)"/>
          <g id="Grupo_1101000" data-name="Grupo 1101000" transform="translate(8.289 7.631)">
            <circle id="Elipse_11923" data-name="Elipse 11923" cx="1.798" cy="1.798" r="1.798"/>
            <circle id="Elipse_11924" data-name="Elipse 11924" cx="1.798" cy="1.798" r="1.798" transform="translate(8.182)"/>
            <circle id="Elipse_11925" data-name="Elipse 11925" cx="1.798" cy="1.798" r="1.798" transform="translate(16.362)"/>
          </g>
        </g>
      </g>
    </g>
  </g>
</svg>
