<svg xmlns="http://www.w3.org/2000/svg" xmlns:xlink="http://www.w3.org/1999/xlink" width="147.875" height="126.49" viewBox="0 0 147.875 126.49">
  <defs>
    <clipPath id="clip-path">
      <rect id="Rectángulo_401530" data-name="Rectángulo 401530" width="101.813" height="67.148" fill="none"/>
    </clipPath>
  </defs>
  <g id="Grupo_1101897" data-name="Grupo 1101897" transform="translate(-726.063 -12951.362)">
    <path id="_12068" data-name="12068" d="M108.19,72.426c-15.142-2.091-31.137-1.58-44.916,5.039-19.108,9.178-31.658,29.987-32.139,51.18s10.559,42.018,27.615,54.606S98.3,200.3,119.157,196.521c21.033-3.811,40.774-16.169,51.745-34.514,7.035-11.763,10.323-26.289,6.437-39.434-2.346-7.934-7.143-14.963-12.785-21.015A94.461,94.461,0,0,0,108.19,72.426Z" transform="translate(694.944 12880.029)" fill="#fff"/>
    <g id="Grupo_1101269" data-name="Grupo 1101269" transform="translate(749.093 12981.034)">
      <g id="Grupo_1101268" data-name="Grupo 1101268" clip-path="url(#clip-path)">
        <path id="Trazado_879251" data-name="Trazado 879251" d="M3.151,132.016q.005-5.8.01-11.6,0-22.856,0-45.712c0-1.073-.108-.969.929-.969q49.771,0,99.543,0c1.006,0,.914-.09.914.917q0,28.041.009,56.082c0,.436-.105.852-.119,1.282.113.885-.5,1.359-1.08,1.817a2.32,2.32,0,0,1-1.28.423c-.272.021-.545.018-.818.018q-47.454,0-94.909.011a3.455,3.455,0,0,1-2.671-.957c-.341-.354-.7-.735-.529-1.312" transform="translate(-2.894 -68.703)" fill="#fff"/>
        <path id="Trazado_879252" data-name="Trazado 879252" d="M54.157,4.9q-24.9,0-49.8,0c-.948,0-.84.121-.848-.82,0-.432,0-.864,0-1.3A2.723,2.723,0,0,1,6.2.006c.2-.01.409,0,.614,0q47.374,0,94.749,0a5.08,5.08,0,0,1,1.086.058A2.735,2.735,0,0,1,104.9,2.556c.052.655.008,1.318.019,1.977,0,.256-.09.379-.355.366-.2-.01-.409,0-.614,0h-49.8" transform="translate(-3.271 0)" fill="#0059fc"/>
        <path id="Trazado_879253" data-name="Trazado 879253" d="M.258,927.875a3.025,3.025,0,0,0,2.854,2.067c10.872-.037,21.744-.022,32.616-.022q31.354,0,62.707,0a4.528,4.528,0,0,0,1.154-.058,2.784,2.784,0,0,0,1.957-1.984c.206.018.238.155.257.331a3.258,3.258,0,0,1-2.014,3.084,8.149,8.149,0,0,1-2.468.382c-3.478.033-6.956.014-10.434.014-1.462,0-2.924.041-4.384-.012s-2.887.048-4.331.018-2.91-.007-4.365-.007H69.442c-1.484,0-2.969.026-4.453-.008-1.421-.032-2.841.03-4.262.012-1.455-.018-2.91,0-4.365,0h-4.3c-1.53,0-3.062.059-4.588-.018-1.334-.067-2.659.07-3.99.027s-2.682-.009-4.023-.009H35.441c-1.8,0-3.606.028-5.407-.009-1.4-.029-2.8.034-4.194.014-1.432-.021-2.864,0-4.3,0H17.315c-1.575,0-3.153.052-4.725-.016-1.288-.056-2.568.058-3.854.024s-2.591-.007-3.887-.008a12.625,12.625,0,0,1-2.023-.174,3.106,3.106,0,0,1-2.7-2.607c-.025-.155-.07-.307-.106-.461a.44.44,0,0,1,.233-.571" transform="translate(0 -864.562)" fill="#acc5d4"/>
        <path id="Trazado_879254" data-name="Trazado 879254" d="M912.451,758.934c-.295.011-.589.031-.884.031q-3.236,0-6.472,0a3.047,3.047,0,0,1-.544-.018.8.8,0,0,1-.724-.841q-.011-3.781,0-7.562a.783.783,0,0,1,.9-.861q5.995-.008,11.99,0c.732,0,1.027.3,1.031,1.04.007,1.022-.007,2.043-.013,3.065-.264.09-.485-.066-.721-.129a3.657,3.657,0,0,0-4.634,4.622c.065.21.2.418.071.652" transform="translate(-842.149 -698.525)" fill="#b3cdfe"/>
        <path id="Trazado_879255" data-name="Trazado 879255" d="M332.017,519.6h-30.5c-.273,0-.547.012-.818-.012a1.315,1.315,0,0,1-1.2-1.2,2.578,2.578,0,0,1-.007-.273q0-5.356,0-10.712a1.385,1.385,0,0,1,.351-1,1.426,1.426,0,0,1,1.029-.461c.227-.009.455,0,.682,0h60.931c.25,0,.5-.014.75.005a1.408,1.408,0,0,1,1.36,1.359c.008.09,0,.182,0,.273q0,5.186,0,10.371a1.971,1.971,0,0,1-.094.739,1.306,1.306,0,0,1-1.17.9c-.248.021-.5.009-.75.009H332.017" transform="translate(-279.055 -471.411)" fill="#0e62fc"/>
        <path id="Trazado_879256" data-name="Trazado 879256" d="M443.482,374.888c-6.482,0-12.964-.017-19.446.01a2.563,2.563,0,0,1-2.288-3.762,2.64,2.64,0,0,1,2.186-1.433,3.182,3.182,0,0,1,.341,0q19.241,0,38.482,0a3.1,3.1,0,0,1,1.635.378,2.557,2.557,0,0,1,.639,3.922,2.589,2.589,0,0,1-2.1.9c-6.482-.018-12.964-.01-19.446-.01" transform="translate(-392.698 -344.472)" fill="#e9ecef"/>
        <path id="Trazado_879257" data-name="Trazado 879257" d="M1024.083,808.533a3.762,3.762,0,0,1,.325-4.095,3.553,3.553,0,0,1,2.549-1.493,3.883,3.883,0,0,1,2.411.443c.007,1.567.008,3.135.028,4.7,0,.354-.122.473-.474.468-1.613-.019-3.226-.019-4.839-.025" transform="translate(-953.781 -748.125)" fill="#4d8bfd"/>
        <path id="Trazado_879258" data-name="Trazado 879258" d="M982.185,166.513c-.266.116-.342.316-.477.455a2.353,2.353,0,0,1-3.5-.108,4.259,4.259,0,0,1-.2-4.731,2.453,2.453,0,0,1,3.655-.353c.1.093.181.2.266.3.233-.1.139-.289.14-.427.009-.931,0-1.863.006-2.795,0-.731-.09-.667.716-.673.046,0,.091,0,.136,0,.221-.013.346.071.333.311-.006.113,0,.227,0,.341q0,4.056,0,8.111c0,.2.1.474-.084.576a1.469,1.469,0,0,1-.868.039c-.134-.015-.116-.172-.116-.283,0-.24,0-.48,0-.764" transform="translate(-910.692 -147.388)" fill="#010101"/>
        <path id="Trazado_879259" data-name="Trazado 879259" d="M628.211,166.59a2.956,2.956,0,0,1-1.916,1.1,2.229,2.229,0,0,1-2.257-1.1,4.09,4.09,0,0,1-.164-4.159,2.415,2.415,0,0,1,3.871-.586,2,2,0,0,1,.222.372,1.258,1.258,0,0,0,.13-.725c.005-.931,0-1.861,0-2.792,0-.488.013-.489.486-.5.136,0,.272,0,.409,0,.2,0,.288.094.285.288,0,.136,0,.272,0,.409q0,4.018,0,8.036c0,.7-.065.743-.789.667-.191-.02-.292-.076-.285-.282.008-.241,0-.483,0-.725" transform="translate(-580.848 -147.401)" fill="#bf0202"/>
        <path id="Trazado_879260" data-name="Trazado 879260" d="M264.722,162.023a4.18,4.18,0,0,1,.943-.785,2.482,2.482,0,0,1,3.394,1.188,4.241,4.241,0,0,1,.221,2.931,2.587,2.587,0,0,1-1.976,2.12,2.4,2.4,0,0,1-2.568-1.109.954.954,0,0,0-.091.66c.009.287-.086.427-.388.4a2.722,2.722,0,0,0-.409,0c-.212.011-.276-.1-.27-.29,0-.136,0-.273,0-.409q0-3.987,0-7.975c0-.136.006-.273,0-.409-.009-.23.092-.338.325-.315a.452.452,0,0,0,.068,0c.749-.039.75-.039.751.71,0,1.041,0,2.081,0,3.289" transform="translate(-245.592 -147.23)" fill="#bf0101"/>
        <path id="Trazado_879261" data-name="Trazado 879261" d="M368.74,204.61a3.845,3.845,0,0,1-.259,1.466,2.683,2.683,0,0,1-.48.818,3.138,3.138,0,0,1-3.11.938,2.662,2.662,0,0,1-2.21-1.977,4.179,4.179,0,0,1,.049-2.677,2.66,2.66,0,0,1,1.859-1.746,3.717,3.717,0,0,1,1.821-.06,2.845,2.845,0,0,1,2.3,2.625c.023.2.022.408.032.612" transform="translate(-337.751 -187.552)" fill="#bf0202"/>
        <path id="Trazado_879262" data-name="Trazado 879262" d="M793.424,204.82a2.036,2.036,0,0,0,2.422,2.134,5.922,5.922,0,0,0,1.35-.374c.049.056.1.086.1.119.056.85.057.86-.76,1.03a4.7,4.7,0,0,1-2.161,0,2.615,2.615,0,0,1-1.864-1.651,4.064,4.064,0,0,1-.043-3,2.828,2.828,0,0,1,3.751-1.642,2.553,2.553,0,0,1,1.55,2.237c.157,1.147.145,1.148-1.013,1.148Z" transform="translate(-738.147 -187.499)" fill="#010101"/>
        <path id="Trazado_879263" data-name="Trazado 879263" d="M1084.147,204.749a2.076,2.076,0,0,0,2.462,2.131,6.239,6.239,0,0,0,1.357-.378c.041.057.086.09.085.122-.007.858.236.807-.821,1.05a4.64,4.64,0,0,1-1.829.046,2.651,2.651,0,0,1-2.159-1.764,4.192,4.192,0,0,1-.031-2.936,2.834,2.834,0,0,1,3.481-1.753,2.323,2.323,0,0,1,1.484,1.211,3.079,3.079,0,0,1,.306.9c.242,1.373.242,1.373-1.151,1.373Z" transform="translate(-1009.065 -187.428)" fill="#010101"/>
        <path id="Trazado_879264" data-name="Trazado 879264" d="M466.911,202.806c-.023-.152-.041-.218-.042-.284-.017-.668,0-.7.66-.88a5.189,5.189,0,0,1,1.483-.182,2.066,2.066,0,0,1,2.266,2.175c.038.794.014,1.591.016,2.387,0,.5-.013,1,0,1.5.011.294-.089.418-.389.388-.178-.018-.359,0-.571,0-.118-.275-.02-.553-.082-.813-.206-.059-.263.136-.369.232a2.48,2.48,0,0,1-2.4.59,1.742,1.742,0,0,1-1.38-1.509,1.8,1.8,0,0,1,.867-1.864,3.431,3.431,0,0,1,1.616-.482c.408-.027.818-.046,1.226-.036.324.008.381-.147.35-.421a1.489,1.489,0,0,0-1.787-1.267,5.127,5.127,0,0,0-1.468.47" transform="translate(-434.286 -187.713)" fill="#bf0202"/>
        <path id="Trazado_879265" data-name="Trazado 879265" d="M886.479,206.949a2.606,2.606,0,0,1-2.713.971,1.765,1.765,0,0,1-1.443-1.6,1.837,1.837,0,0,1,1.009-1.856,3.473,3.473,0,0,1,1.431-.4c.408-.027.817-.03,1.225-.048s.454-.072.39-.494a1.482,1.482,0,0,0-1.779-1.187,5.26,5.26,0,0,0-1.415.447c-.04-.056-.081-.088-.083-.122-.042-.83-.031-.834.775-1.051a5.03,5.03,0,0,1,1.622-.14,1.991,1.991,0,0,1,1.975,1.81,9.864,9.864,0,0,1,.064,1.564c0,.863-.01,1.727,0,2.59.005.321-.04.5-.436.479-.706-.038-.6.014-.6-.572,0-.087-.01-.173-.022-.385" transform="translate(-822.107 -187.705)" fill="#010101"/>
        <path id="Trazado_879266" data-name="Trazado 879266" d="M458.79,801.718h9.618c.182,0,.364,0,.545.008.224.009.316.174.353.355s-.109.286-.241.377a.983.983,0,0,1-.6.08c-1.2,0-2.41,0-3.615,0q-7.81,0-15.62,0a1.285,1.285,0,0,1-.733-.08c-.156-.1-.3-.225-.268-.437s.2-.29.4-.3c.182-.008.364,0,.546,0h9.618" transform="translate(-417.642 -747.013)" fill="#e8ebef"/>
        <path id="Trazado_879267" data-name="Trazado 879267" d="M456.123,773.577h6.954c.182,0,.364,0,.545.014a.388.388,0,0,1,.384.4c.018.243-.015.478-.295.537a4.424,4.424,0,0,1-.938.149q-6.681-.011-13.362,0a2.4,2.4,0,0,1-.8-.135c-.25-.087-.467-.245-.4-.544a.526.526,0,0,1,.553-.415c.182,0,.364,0,.545,0h6.817" transform="translate(-417.614 -720.792)" fill="#c3cbd5"/>
        <path id="Trazado_879268" data-name="Trazado 879268" d="M737.236,202.631c.2-.263.3-.4.41-.54a1.717,1.717,0,0,1,.57-.479,1.246,1.246,0,0,1,1.228-.139c.276.179.057.629.084.922-.124.145-.241.09-.347.089a1.542,1.542,0,0,0-1.725,1.307,3.512,3.512,0,0,0-.092.946c0,.887-.015,1.774.006,2.66.008.336-.106.429-.429.42-.9-.023-.757.046-.759-.7q-.009-2.524,0-5.048c0-.18-.131-.454.153-.527a1.613,1.613,0,0,1,.806.01c.1.027.09.144.091.233,0,.227,0,.454,0,.846" transform="translate(-685.925 -187.619)" fill="#030303"/>
        <path id="Trazado_879269" data-name="Trazado 879269" d="M568.66,202.84c.286-.33.448-.543.637-.728a1.645,1.645,0,0,1,.976-.436c.637-.078.7-.018.662.636-.007.133-.022.266-.034.408a1.114,1.114,0,0,1-.206.04,1.626,1.626,0,0,0-1.891,1.659,11.071,11.071,0,0,0-.048,1.426c0,.612-.009,1.225,0,1.837.005.272-.06.438-.374.4a1.366,1.366,0,0,0-.34,0c-.365.051-.455-.116-.452-.461.014-1.791.005-3.583.009-5.375,0-.152-.065-.385.1-.429a1.522,1.522,0,0,1,.868.017c.089.03.088.148.088.239,0,.2,0,.405,0,.762" transform="translate(-528.859 -187.89)" fill="#bf0202"/>
        <path id="Trazado_879270" data-name="Trazado 879270" d="M1182.161,201.979v1c.255-.1.292-.327.414-.467a1.87,1.87,0,0,1,1.563-.681c.226.009.335.081.324.319s0,.494,0,.714c-.1.039-.137.068-.175.067-1.312-.035-1.941.551-2,1.921-.034.749-.009,1.5-.01,2.25a3.355,3.355,0,0,1,0,.409c-.03.239.135.585-.1.693a2.236,2.236,0,0,1-.872.037.159.159,0,0,1-.167-.17c-.005-.159-.01-.318-.01-.477q0-2.489,0-4.978c0-.741-.069-.654.649-.661.11,0,.221.011.4.02" transform="translate(-1100.521 -188.061)" fill="#010101"/>
        <path id="Trazado_879271" data-name="Trazado 879271" d="M218.966,504.36c-.371.359-.622.606-.878.848-.085.08-.2.144-.3.062-.143-.114-.071-.249.027-.35.381-.39.768-.773,1.154-1.158a.262.262,0,0,1,.415-.018c.4.4.806.8,1.2,1.205.078.079.147.186.036.295a.2.2,0,0,1-.3-.008c-.278-.259-.547-.527-.936-.9v.646q0,5.859,0,11.719,0,.272-.006.545c0,.13-.063.217-.2.21a.2.2,0,0,1-.2-.222c0-.182-.006-.363-.006-.545q0-5.723,0-11.446Z" transform="translate(-202.85 -469.284)" fill="#0a5ffc"/>
        <path id="Trazado_879272" data-name="Trazado 879272" d="M515.025,838.941a.814.814,0,0,0-.267-.959.917.917,0,0,0,.765-.639c.176.384.4.58.744.586a1.261,1.261,0,0,0-.3.913.782.782,0,0,0-.939.1" transform="translate(-479.634 -780.207)" fill="#fa9515"/>
        <path id="Trazado_879273" data-name="Trazado 879273" d="M483.727,838.532a.857.857,0,0,0,.754.519c-.214.277-.429.5-.179.934-.425-.175-.72-.271-1.033,0-.024-.365.043-.684-.367-.888.392-.108.692-.208.825-.568" transform="translate(-449.951 -781.315)" fill="#fa9310"/>
        <path id="Trazado_879274" data-name="Trazado 879274" d="M546.361,839.177c-.318-.056-.6-.322-.874.146-.093-.42.02-.77-.431-.976.4-.112.709-.2.776-.624.246.275.382.589.882.52a.926.926,0,0,0-.353.934" transform="translate(-507.863 -780.561)" fill="#fa9311"/>
        <path id="Trazado_879275" data-name="Trazado 879275" d="M578.132,837.956a.752.752,0,0,0-.3.929c-.363-.177-.657-.264-.971.005-.01-.369.017-.676-.375-.9a.88.88,0,0,0,.813-.63.859.859,0,0,0,.83.6" transform="translate(-537.152 -780.219)" fill="#fb920f"/>
        <path id="Trazado_879276" data-name="Trazado 879276" d="M454.821,839.921c-.313.368-.461.614-.368.949-.328-.028-.614-.276-.92.212-.011-.473.054-.8-.266-.96.077-.243.285-.141.408-.225s.125-.3.354-.33c.154.219.3.494.793.354" transform="translate(-422.337 -782.279)" fill="#fa9412"/>
        <path id="Trazado_879277" data-name="Trazado 879277" d="M114.041,26.868a.636.636,0,0,1-.685.663.673.673,0,0,1-.656-.708.733.733,0,0,1,.668-.646.673.673,0,0,1,.674.691" transform="translate(-105.008 -24.39)" fill="#f7faff"/>
        <path id="Trazado_879278" data-name="Trazado 879278" d="M78.046,26.831a.634.634,0,0,1-.651.7.674.674,0,0,1-.691-.675.726.726,0,0,1,.635-.678.671.671,0,0,1,.707.655" transform="translate(-71.47 -24.388)" fill="#f7faff"/>
        <path id="Trazado_879279" data-name="Trazado 879279" d="M41.358,26.174a.673.673,0,0,1,.676.689.633.633,0,0,1-.616.664.677.677,0,0,1-.726-.639.725.725,0,0,1,.667-.715" transform="translate(-37.913 -24.388)" fill="#f7faff"/>
        <path id="Trazado_879280" data-name="Trazado 879280" d="M335.766,523.048q-15.35,0-30.7.015c-1.261,0-1.623-.457-1.61-1.6.039-3.365.013-6.731.016-10.1a1.647,1.647,0,0,1,.079-.739,1.123,1.123,0,0,1,.964-.661c.225-.022.454-.009.682-.009q30.53,0,61.06-.014c1.378,0,1.785.455,1.768,1.758-.044,3.251-.014,6.5-.015,9.756A5.188,5.188,0,0,1,368,522a1.084,1.084,0,0,1-1.126,1.043c-.227.01-.455,0-.682,0H335.766" transform="translate(-282.75 -475.147)" fill="#f4f8ff"/>
        <path id="Trazado_879281" data-name="Trazado 879281" d="M449.188,380.058c-6.478,0-12.955-.01-19.433.01a2.1,2.1,0,0,1-2.09-1.323,2.045,2.045,0,0,1,.765-2.627,2.761,2.761,0,0,1,1.481-.433q19.228.01,38.457,0a2.43,2.43,0,0,1,2.106,1.032,1.9,1.9,0,0,1,.183,2.047,2.023,2.023,0,0,1-1.694,1.289c-.18.017-.363,0-.545,0H449.188" transform="translate(-398.298 -350.051)" fill="#fff"/>
        <path id="Trazado_879282" data-name="Trazado 879282" d="M995.634,216.94a2.867,2.867,0,0,1,.309-1.492,1.558,1.558,0,0,1,2.728-.113,3.328,3.328,0,0,1-.026,3.24,1.551,1.551,0,0,1-2.722-.165,2.93,2.93,0,0,1-.289-1.469" transform="translate(-927.693 -199.941)" fill="#fff"/>
        <path id="Trazado_879283" data-name="Trazado 879283" d="M645.174,217.07a2.657,2.657,0,0,1-.342,1.48,1.56,1.56,0,0,1-1.454.833,1.454,1.454,0,0,1-1.369-.948,3.448,3.448,0,0,1,.02-2.835,1.423,1.423,0,0,1,1.318-.92,1.573,1.573,0,0,1,1.508.859,2.948,2.948,0,0,1,.319,1.532" transform="translate(-597.926 -200.03)" fill="#fff"/>
        <path id="Trazado_879284" data-name="Trazado 879284" d="M283.927,217.021a3.544,3.544,0,0,1-.3,1.383,1.559,1.559,0,0,1-2.725.2,3.286,3.286,0,0,1-.008-3.3,1.556,1.556,0,0,1,2.722.2,3.819,3.819,0,0,1,.314,1.517" transform="translate(-261.315 -199.952)" fill="#fff"/>
        <path id="Trazado_879285" data-name="Trazado 879285" d="M384.313,216.659a2.73,2.73,0,0,1-.281,1.381,1.676,1.676,0,0,1-1.5,1.005,1.618,1.618,0,0,1-1.623-.905,3.018,3.018,0,0,1,.03-2.994,1.727,1.727,0,0,1,3.053.069,2.713,2.713,0,0,1,.319,1.444" transform="translate(-354.564 -199.639)" fill="#fff"/>
        <path id="Trazado_879286" data-name="Trazado 879286" d="M813.893,215.685h-3.22a1.728,1.728,0,0,1,1.583-1.916c.961-.028,1.553.641,1.636,1.916" transform="translate(-755.357 -199.182)" fill="#fefefe"/>
        <path id="Trazado_879287" data-name="Trazado 879287" d="M1100.514,215.654c.2-1.28.807-1.924,1.766-1.89.886.031,1.413.68,1.5,1.89Z" transform="translate(-1025.421 -199.177)" fill="#fefefe"/>
        <path id="Trazado_879288" data-name="Trazado 879288" d="M485.518,250.2c.773-.009.8.027.714.793a1.709,1.709,0,0,1-1.66,1.585,1.125,1.125,0,0,1-1.2-.8,1.1,1.1,0,0,1,.683-1.322,3.972,3.972,0,0,1,1.461-.258" transform="translate(-450.355 -233.124)" fill="#fefdfd"/>
        <path id="Trazado_879289" data-name="Trazado 879289" d="M902.483,250.7a1.711,1.711,0,0,1-1.574,1.832,1.143,1.143,0,0,1-1.289-.758,1.092,1.092,0,0,1,.718-1.361,4.433,4.433,0,0,1,1.871-.247c.44.011.208.36.274.533" transform="translate(-838.19 -233.093)" fill="#fdfdfd"/>
        <path id="Trazado_879290" data-name="Trazado 879290" d="M958.876,529.645q-4.91,0-9.82,0a1.082,1.082,0,0,1-.93-.3,1.036,1.036,0,0,1-.306-.724c.007-3.228,0-6.456.007-9.683a1.017,1.017,0,0,1,.939-1.134,3.25,3.25,0,0,1,.611-.029h14.8c.114,0,.228-.006.341,0a1.2,1.2,0,0,1,1.176,1.182c.015,1.386-.01,2.772-.019,4.158a9.982,9.982,0,0,1-1.77-.439,4.752,4.752,0,0,0-5.384,4.245,4.7,4.7,0,0,0,.29,2.138.649.649,0,0,1,.067.586" transform="translate(-883.146 -482.44)" fill="#b3cdfe"/>
        <path id="Trazado_879291" data-name="Trazado 879291" d="M1101.919,593.061a4.847,4.847,0,0,1,1.436-6.247,4.713,4.713,0,0,1,5.361-.284c0,2.014.012,4.029.01,6.043,0,.483-.015.5-.492.5-2.1,0-4.21-.007-6.315-.012" transform="translate(-1026.189 -545.855)" fill="#4d8bfd"/>
        <path id="Trazado_879292" data-name="Trazado 879292" d="M373.948,549.114h-8.869c-.159,0-.319.006-.477,0-.453-.026-.666-.214-.682-.59a.764.764,0,0,1,.639-.762,3.025,3.025,0,0,1,.477-.012h18.08a3.273,3.273,0,0,1,.477.011.674.674,0,0,1-.024,1.347,4.891,4.891,0,0,1-.545.008h-9.074" transform="translate(-339.086 -510.369)" fill="#c4cbd5"/>
        <path id="Trazado_879293" data-name="Trazado 879293" d="M528.628,633c.454-.125.855-.222.949-.686.27.081.237.356.4.477s.408.038.607.233a.987.987,0,0,0-.291,1.134,1.081,1.081,0,0,0-1.3.042.99.99,0,0,0-.366-1.2" transform="translate(-492.557 -589.164)" fill="#fb910d"/>
        <path id="Trazado_879294" data-name="Trazado 879294" d="M451.8,633.2c-.542.292-.55.671-.47,1.157a1.038,1.038,0,0,0-1.178-.054,1.485,1.485,0,0,0-.372-1.142c.339-.1.727-.13.831-.567a.106.106,0,0,1,.2,0c.111.429.49.47.988.6" transform="translate(-419.09 -589.366)" fill="#fb920d"/>
        <path id="Trazado_879295" data-name="Trazado 879295" d="M410.78,632.04c.157.486.515.6,1,.666a1.038,1.038,0,0,0-.35,1.195c-.46-.216-.833-.317-1.171-.053-.215-.222.027-.422-.047-.61s-.326-.253-.362-.517c.374-.1.771-.2.935-.681" transform="translate(-381.879 -588.913)" fill="#fb910d"/>
        <path id="Trazado_879296" data-name="Trazado 879296" d="M369.761,631.966a1.168,1.168,0,0,0,1.047.686,1.057,1.057,0,0,0-.387,1.212,1.109,1.109,0,0,0-1.3-.034.8.8,0,0,0-.334-1.1c.371-.24.888-.2.972-.764" transform="translate(-343.625 -588.844)" fill="#fb910d"/>
        <path id="Trazado_879297" data-name="Trazado 879297" d="M490.655,631.13a.991.991,0,0,0-.327,1.135c-.435-.176-.809-.376-1.208.017a1.1,1.1,0,0,0-.423-1.171c.47-.094.839-.231.986-.809a1.151,1.151,0,0,0,.972.828" transform="translate(-455.351 -587.293)" fill="#fb910d"/>
        <path id="Trazado_879298" data-name="Trazado 879298" d="M469.687,399.119q-2.32,0-4.64,0c-.6,0-1.01-.267-1.029-.656-.02-.409.414-.707,1.047-.708q4.606,0,9.212,0a1.473,1.473,0,0,1,.733.107.661.661,0,0,1,.423.7.694.694,0,0,1-.627.544,4.27,4.27,0,0,1-.477.008h-4.64" transform="translate(-432.355 -370.613)" fill="#e7eaee"/>
        <path id="Trazado_879299" data-name="Trazado 879299" d="M985.866,389.1a1.259,1.259,0,0,1,1.228-1.255,1.22,1.22,0,0,1,1.206,1.413.966.966,0,0,0,.236,1.1.172.172,0,0,1,0,.246.143.143,0,0,1-.233-.021c-.277-.412-.654-.332-1.07-.29a1.106,1.106,0,0,1-1.366-1.191" transform="translate(-918.595 -361.378)" fill="#c9d1d9"/>
        <path id="Trazado_879300" data-name="Trazado 879300" d="M990.681,393.86c-.624,0-.925-.34-.974-.955-.035-.443.577-.959.98-.946a1.053,1.053,0,0,1,.939.993.867.867,0,0,1-.945.908" transform="translate(-922.173 -365.213)" fill="#fefefe"/>
      </g>
    </g>
  </g>
</svg>
