<svg xmlns="http://www.w3.org/2000/svg" width="67" height="59.183" viewBox="0 0 67 59.183">
  <g id="Grupo_1101895" data-name="Grupo 1101895" transform="translate(-180 -12704.754)">
    <g id="Grupo_1101243" data-name="Grupo 1101243" transform="translate(0 8954.602)">
      <path id="_12068" data-name="12068" d="M66.039,71.828c-6.861-.947-14.108-.716-20.351,2.283C37.03,78.27,31.344,87.7,31.126,97.3s4.784,19.038,12.512,24.741a35.81,35.81,0,0,0,27.37,6.013c9.53-1.727,18.474-7.326,23.445-15.638,3.187-5.33,4.677-11.911,2.916-17.867a24.409,24.409,0,0,0-5.793-9.521A42.8,42.8,0,0,0,66.039,71.828Z" transform="translate(148.881 3680.691)" fill="#26aab7"/>
      <path id="Trazado_873155" data-name="Trazado 873155" d="M303.26,44.546a1.582,1.582,0,1,0-.106-2.456A1.573,1.573,0,0,0,303.26,44.546Z" transform="translate(138.287 4055.916) rotate(-90)" fill="#7d6eb2"/>
      <path id="Trazado_873156" data-name="Trazado 873156" d="M321.56,66.974a3.448,3.448,0,1,0-1.687-4.918A3.468,3.468,0,0,0,321.56,66.974Z" transform="translate(128.241 4079.581) rotate(-90)" fill="#ffd947"/>
      <circle id="Elipse_11521" data-name="Elipse 11521" cx="3.689" cy="3.689" r="3.689" transform="translate(237.702 3796.368) rotate(-90)" fill="none" stroke="#fff" stroke-linecap="round" stroke-linejoin="round" stroke-width="1.5"/>
    </g>
    <g id="google" transform="translate(183.453 12651.914)">
      <g id="Grupo_1101248" data-name="Grupo 1101248" transform="translate(0.838 61.352)">
        <g id="Grupo_1101244" data-name="Grupo 1101244">
          <path id="Trazado_879099" data-name="Trazado 879099" d="M63.061,69.128v39.8a1.118,1.118,0,0,1-1.118,1.118H8.618A1.118,1.118,0,0,1,7.5,108.924v-39.8A1.118,1.118,0,0,1,8.618,68.01H61.943A1.118,1.118,0,0,1,63.061,69.128Z" transform="translate(-7.5 -68.01)" fill="#e8e6ed"/>
          <path id="Trazado_879100" data-name="Trazado 879100" d="M389.228,69.128v39.8a1.118,1.118,0,0,1-1.118,1.118H374.72c12.369-10.706,12.094-35.6,11.8-42.032h1.589A1.118,1.118,0,0,1,389.228,69.128Z" transform="translate(-333.668 -68.01)" fill="#d1d0d8"/>
          <path id="Trazado_879101" data-name="Trazado 879101" d="M63.061,69.128v5.928H7.5V69.128A1.118,1.118,0,0,1,8.618,68.01H61.943A1.118,1.118,0,0,1,63.061,69.128Z" transform="translate(-7.5 -68.01)" fill="#ffd947"/>
          <path id="Trazado_879102" data-name="Trazado 879102" d="M483,69.128v5.928h-2.664c.092-3.07.026-5.555-.042-7.046h1.589A1.118,1.118,0,0,1,483,69.128Z" transform="translate(-427.436 -68.01)" fill="#aaaab2"/>
        </g>
        <path id="Trazado_879103" data-name="Trazado 879103" d="M132.232,271.245v1.935a1.587,1.587,0,0,1-1.586,1.586H98.176a1.587,1.587,0,0,1-1.586-1.586v-1.935a1.586,1.586,0,0,1,1.586-1.585h32.469A1.586,1.586,0,0,1,132.232,271.245Z" transform="translate(-86.63 -247.117)" fill="#d1d0d8"/>
        <path id="Trazado_879104" data-name="Trazado 879104" d="M372.412,271.245v1.935a1.587,1.587,0,0,1-1.586,1.586H367V269.66h3.826A1.586,1.586,0,0,1,372.412,271.245Z" transform="translate(-326.811 -247.117)" fill="#59836b"/>
        <g id="Grupo_1101245" data-name="Grupo 1101245" transform="translate(16.38 30.588)">
          <path id="Trazado_879105" data-name="Trazado 879105" d="M161.932,344.8h-6.326a1.586,1.586,0,1,1,0-3.172h6.326a1.586,1.586,0,1,1,0,3.172Z" transform="translate(-154.02 -341.628)" fill="#7d6eb2"/>
          <path id="Trazado_879106" data-name="Trazado 879106" d="M280.932,344.8h-6.326a1.586,1.586,0,1,1,0-3.172h6.326a1.586,1.586,0,0,1,0,3.172Z" transform="translate(-259.717 -341.628)" fill="#7d6eb2"/>
        </g>
        <g id="Grupo_1101247" data-name="Grupo 1101247" transform="translate(25.196 16.481)">
          <g id="Grupo_1101246" data-name="Grupo 1101246">
            <circle id="Elipse_11929" data-name="Elipse 11929" cx="1.292" cy="1.292" r="1.292" fill="#ffd100"/>
            <circle id="Elipse_11930" data-name="Elipse 11930" cx="1.292" cy="1.292" r="1.292" transform="translate(4.599)" fill="#2fd92d"/>
            <circle id="Elipse_11931" data-name="Elipse 11931" cx="1.292" cy="1.292" r="1.292" transform="translate(9.198)" fill="#ff5677"/>
          </g>
        </g>
      </g>
      <g id="Grupo_1101249" data-name="Grupo 1101249" transform="translate(0 60.514)">
        <path id="Trazado_879107" data-name="Trazado 879107" d="M56.4,92.252a.838.838,0,0,0,.838-.838V62.47a1.959,1.959,0,0,0-1.956-1.956H21.23a.838.838,0,1,0,0,1.677H55.281a.28.28,0,0,1,.279.279v5.09H1.677V62.47a.28.28,0,0,1,.279-.279H17.371a.838.838,0,0,0,0-1.677H1.956A1.959,1.959,0,0,0,0,62.47v39.795a1.959,1.959,0,0,0,1.956,1.956H55.281a1.959,1.959,0,0,0,1.956-1.956V95.273a.838.838,0,0,0-1.677,0v6.992a.28.28,0,0,1-.279.279H1.956a.28.28,0,0,1-.279-.279V69.237H55.561V91.414A.838.838,0,0,0,56.4,92.252Z" transform="translate(0 -60.514)" fill="#00223d"/>
        <path id="Trazado_879108" data-name="Trazado 879108" d="M40.771,92.027a.838.838,0,0,0,0,1.677h.013a.838.838,0,0,0,0-1.677Z" transform="translate(-35.469 -88.504)" fill="#00223d"/>
        <path id="Trazado_879109" data-name="Trazado 879109" d="M63.414,92.027a.838.838,0,0,0,0,1.677h.013a.838.838,0,0,0,0-1.677Z" transform="translate(-55.58 -88.504)" fill="#00223d"/>
        <path id="Trazado_879110" data-name="Trazado 879110" d="M86.057,92.027a.838.838,0,1,0,0,1.677h.013a.838.838,0,0,0,0-1.677Z" transform="translate(-75.692 -88.504)" fill="#00223d"/>
        <path id="Trazado_879111" data-name="Trazado 879111" d="M445.51,93.7a.838.838,0,0,0,0-1.677h-1.56a.838.838,0,0,0,0,1.677Z" transform="translate(-393.575 -88.504)" fill="#00223d"/>
        <path id="Trazado_879112" data-name="Trazado 879112" d="M126.411,266.516v-1.935a2.427,2.427,0,0,0-2.424-2.424H91.518a2.427,2.427,0,0,0-2.424,2.424v1.935a2.427,2.427,0,0,0,2.424,2.424h13.706a.838.838,0,1,0,0-1.677H91.518a.748.748,0,0,1-.748-.747v-1.935a.748.748,0,0,1,.748-.748h27.8v3.43h-10.24a.838.838,0,0,0,0,1.677h14.9A2.427,2.427,0,0,0,126.411,266.516ZM121,263.834h2.987a.748.748,0,0,1,.748.748v1.935a.748.748,0,0,1-.748.747H121Z" transform="translate(-79.134 -239.615)" fill="#00223d"/>
        <path id="Trazado_879113" data-name="Trazado 879113" d="M155.27,338.976a2.424,2.424,0,1,0,0-4.849h-6.326a2.424,2.424,0,1,0,0,4.849Zm-7.074-2.424a.748.748,0,0,1,.748-.747h6.326a.747.747,0,1,1,0,1.495h-6.326A.748.748,0,0,1,148.2,336.551Z" transform="translate(-130.139 -303.539)" fill="#00223d"/>
        <path id="Trazado_879114" data-name="Trazado 879114" d="M267.943,334.127a2.424,2.424,0,1,0,0,4.849h6.326a2.424,2.424,0,1,0,0-4.849Zm7.074,2.424a.748.748,0,0,1-.748.748h-6.326a.747.747,0,1,1,0-1.495h6.326A.748.748,0,0,1,275.017,336.551Z" transform="translate(-235.836 -303.539)" fill="#00223d"/>
        <path id="Trazado_879115" data-name="Trazado 879115" d="M155.112,174.214a2.377,2.377,0,0,1,.707.107.838.838,0,0,0,.5-1.6,4.053,4.053,0,1,0,2.848,3.87.838.838,0,0,0-.838-.838h-3.214a.838.838,0,0,0,0,1.677h2.223a2.376,2.376,0,1,1-2.223-3.214Z" transform="translate(-134.172 -160.014)" fill="#00223d"/>
        <path id="Trazado_879116" data-name="Trazado 879116" d="M225.38,210.062a2.131,2.131,0,1,0,2.131-2.131A2.133,2.133,0,0,0,225.38,210.062Zm2.585,0a.454.454,0,1,1-.454-.454A.454.454,0,0,1,227.965,210.062Z" transform="translate(-200.184 -191.451)" fill="#00223d"/>
        <path id="Trazado_879117" data-name="Trazado 879117" d="M266.52,210.062a2.131,2.131,0,1,0,2.131-2.131A2.133,2.133,0,0,0,266.52,210.062Zm2.585,0a.454.454,0,1,1-.454-.454A.454.454,0,0,1,269.1,210.062Z" transform="translate(-236.725 -191.451)" fill="#00223d"/>
        <path id="Trazado_879118" data-name="Trazado 879118" d="M309.79,207.931a2.131,2.131,0,1,0,2.131,2.131A2.133,2.133,0,0,0,309.79,207.931Zm0,2.585a.454.454,0,1,1,.454-.454A.454.454,0,0,1,309.79,210.516Z" transform="translate(-273.265 -191.451)" fill="#00223d"/>
        <path id="Trazado_879119" data-name="Trazado 879119" d="M220.481,174.275a.838.838,0,0,0,.838.838h10.71a.838.838,0,0,0,1.428.653l.9-.9a.838.838,0,0,0,0-1.186l-.9-.9a.838.838,0,0,0-1.428.653h-10.71a.838.838,0,0,0-.838.838Z" transform="translate(-195.833 -160.015)" fill="#00223d"/>
        <path id="Trazado_879120" data-name="Trazado 879120" d="M39.868,405.5a.838.838,0,1,0,0,1.677h1.964a.838.838,0,1,0,0-1.677Z" transform="translate(-34.667 -366.933)" fill="#00223d"/>
        <path id="Trazado_879121" data-name="Trazado 879121" d="M85.267,405.5a.838.838,0,0,0,0,1.677h1.964a.838.838,0,0,0,0-1.677Z" transform="translate(-74.991 -366.933)" fill="#00223d"/>
        <path id="Trazado_879122" data-name="Trazado 879122" d="M130.666,405.5a.838.838,0,0,0,0,1.677h1.964a.838.838,0,0,0,0-1.677Z" transform="translate(-115.314 -366.933)" fill="#00223d"/>
        <path id="Trazado_879123" data-name="Trazado 879123" d="M441.241,405.5a.838.838,0,1,0,0,1.677h1.964a.838.838,0,0,0,0-1.677Z" transform="translate(-391.169 -366.933)" fill="#00223d"/>
      </g>
    </g>
  </g>
</svg>
