<svg xmlns="http://www.w3.org/2000/svg" xmlns:xlink="http://www.w3.org/1999/xlink" width="400.811" height="440.418" viewBox="0 0 400.811 440.418">
  <defs>
    <clipPath id="clip-path">
      <rect id="Rectángulo_401559" data-name="Rectángulo 401559" width="399.252" height="413.571" fill="none"/>
    </clipPath>
    <clipPath id="clip-path-4">
      <rect id="Rectángulo_401552" data-name="Rectángulo 401552" width="163.068" height="222.352" fill="none"/>
    </clipPath>
    <clipPath id="clip-path-5">
      <rect id="Rectángulo_401553" data-name="Rectángulo 401553" width="80.701" height="38.753" fill="none"/>
    </clipPath>
    <clipPath id="clip-path-6">
      <rect id="Rectángulo_401554" data-name="Rectángulo 401554" width="163.068" height="101.206" fill="none"/>
    </clipPath>
  </defs>
  <g id="Grupo_1101896" data-name="Grupo 1101896" transform="translate(-285 -16614.76)">
    <g id="Grupo_1101188" data-name="Grupo 1101188" transform="translate(300.147 16651.904)">
      <path id="Trazado_873105" data-name="Trazado 873105" d="M417.512,417.285a2.3,2.3,0,1,0-.153-3.571A2.287,2.287,0,0,0,417.512,417.285Z" transform="translate(-35.489 -172.918)" fill="#ffd947"/>
      <path id="Trazado_873106" data-name="Trazado 873106" d="M303.554,45.832a2.3,2.3,0,1,0-.154-3.571A2.287,2.287,0,0,0,303.554,45.832Z" transform="translate(4.086 -31.77)" fill="#7d6eb2"/>
      <path id="Trazado_873110" data-name="Trazado 873110" d="M391.229,443.007a5.013,5.013,0,1,0-2.453-7.15A5.043,5.043,0,0,0,391.229,443.007Z" transform="translate(-32.781 -174.844)" fill="#ffd947"/>
      <path id="Trazado_873111" data-name="Trazado 873111" d="M177.082,59.143a5.013,5.013,0,1,0-2.453-7.15A5.043,5.043,0,0,0,177.082,59.143Z" transform="translate(-122.371 -49.533)" fill="#7d6eb2"/>
      <path id="Trazado_873113" data-name="Trazado 873113" d="M322.527,69.974a5.014,5.014,0,1,0-2.453-7.15A5.043,5.043,0,0,0,322.527,69.974Z" transform="translate(2.484 -33.546)" fill="#ffd947"/>
      <ellipse id="Elipse_11484" data-name="Elipse 11484" cx="2.456" cy="2.456" rx="2.456" ry="2.456" transform="translate(25.164 287.07)" fill="none" stroke="#26aab7" stroke-linecap="round" stroke-linejoin="round" stroke-width="1.5"/>
      <ellipse id="Elipse_11486" data-name="Elipse 11486" cx="2.456" cy="2.456" rx="2.456" ry="2.456" transform="translate(316.41 272.114)" fill="none" stroke="#fff" stroke-linecap="round" stroke-linejoin="round" stroke-width="1.5"/>
      <ellipse id="Elipse_11487" data-name="Elipse 11487" cx="2.456" cy="2.456" rx="2.456" ry="2.456" transform="translate(0 140.281)" fill="none" stroke="#7d6eb2" stroke-linecap="round" stroke-linejoin="round" stroke-width="1.5"/>
      <ellipse id="Elipse_11488" data-name="Elipse 11488" cx="2.456" cy="2.456" rx="2.456" ry="2.456" transform="translate(296.806 180.436)" fill="none" stroke="#aee6e6" stroke-linecap="round" stroke-linejoin="round" stroke-width="1.5"/>
      <ellipse id="Elipse_11489" data-name="Elipse 11489" cx="2.456" cy="2.456" rx="2.456" ry="2.456" transform="translate(24.331 27.232)" fill="none" stroke="#7d6eb2" stroke-linecap="round" stroke-linejoin="round" stroke-width="1.5"/>
    </g>
    <g id="Grupo_1101189" data-name="Grupo 1101189" transform="translate(285 16614.76)">
      <g id="Grupo_1101138" data-name="Grupo 1101138" transform="translate(0)">
        <path id="Trazado_873116" data-name="Trazado 873116" d="M239.691,74.293c-40.978-5.659-84.265-4.275-121.554,13.636-51.712,24.838-85.675,81.152-86.977,138.5s28.576,113.71,74.733,147.777,107.03,46.143,163.478,35.914c56.92-10.315,110.345-43.757,140.035-93.4,19.038-31.835,27.937-71.145,17.419-106.717-6.35-21.471-19.331-40.493-34.6-56.87A255.633,255.633,0,0,0,239.691,74.293Z" transform="translate(-31.119 7.697)" fill="#ffd947"/>
        <g id="Grupo_1098987" data-name="Grupo 1098987" transform="translate(34.188)">
          <path id="Trazado_873103" data-name="Trazado 873103" d="M379.233,94.319a2.316,2.316,0,1,0-.155-3.6A2.3,2.3,0,0,0,379.233,94.319Z" transform="translate(-84.357 -90.172)" fill="#fff"/>
          <path id="Trazado_873104" data-name="Trazado 873104" d="M149.858,396.862a2.316,2.316,0,1,0-.155-3.6A2.3,2.3,0,0,0,149.858,396.862Z" transform="translate(-90.35 -27.801)" fill="#fff"/>
          <path id="Trazado_873105-2" data-name="Trazado 873105" d="M417.519,417.313a2.316,2.316,0,1,0-.154-3.6A2.3,2.3,0,0,0,417.519,417.313Z" transform="translate(-114.158 -29.62)" fill="#ffd947"/>
          <path id="Trazado_873106-2" data-name="Trazado 873106" d="M303.561,45.86a2.316,2.316,0,1,0-.155-3.6A2.3,2.3,0,0,0,303.561,45.86Z" transform="translate(6.215 20.558)" fill="#7d6eb2"/>
          <path id="Trazado_873108" data-name="Trazado 873108" d="M104.889,429.178a2.316,2.316,0,1,0-.155-3.6A2.3,2.3,0,0,0,104.889,429.178Z" transform="translate(-86.35 -30.675)" fill="#fff"/>
          <path id="Trazado_873109" data-name="Trazado 873109" d="M340.441,407.48a5.049,5.049,0,1,0-2.47-7.2A5.078,5.078,0,0,0,340.441,407.48Z" transform="translate(-107.109 -28.253)" fill="#fff"/>
          <path id="Trazado_873110-2" data-name="Trazado 873110" d="M391.251,443.073a5.048,5.048,0,1,0-2.47-7.2A5.078,5.078,0,0,0,391.251,443.073Z" transform="translate(-111.629 -31.419)" fill="#ffd947"/>
          <path id="Trazado_873111-2" data-name="Trazado 873111" d="M177.1,59.209a5.048,5.048,0,1,0-2.47-7.2A5.078,5.078,0,0,0,177.1,59.209Z" transform="translate(-119.001 2.725)" fill="#7d6eb2"/>
          <path id="Trazado_873113-2" data-name="Trazado 873113" d="M322.549,70.041a5.049,5.049,0,1,0-2.47-7.2A5.078,5.078,0,0,0,322.549,70.041Z" transform="translate(4.719 37.875)" fill="#ffd947"/>
          <circle id="Elipse_11484-2" data-name="Elipse 11484" cx="2.473" cy="2.473" r="2.473" transform="translate(25.339 331.308)" fill="none" stroke="#26aab7" stroke-linecap="round" stroke-linejoin="round" stroke-width="1.5"/>
          <circle id="Elipse_11485" data-name="Elipse 11485" cx="2.473" cy="2.473" r="2.473" transform="translate(67.797 416.399)" fill="none" stroke="#26aab7" stroke-linecap="round" stroke-linejoin="round" stroke-width="1.5"/>
          <circle id="Elipse_11486-2" data-name="Elipse 11486" cx="2.473" cy="2.473" r="2.473" transform="translate(318.606 316.248)" fill="none" stroke="#fff" stroke-linecap="round" stroke-linejoin="round" stroke-width="1.5"/>
          <circle id="Elipse_11487-2" data-name="Elipse 11487" cx="2.473" cy="2.473" r="2.473" transform="translate(0 183.5)" fill="none" stroke="#7d6eb2" stroke-linecap="round" stroke-linejoin="round" stroke-width="1.5"/>
          <circle id="Elipse_11488-2" data-name="Elipse 11488" cx="2.473" cy="2.473" r="2.473" transform="translate(298.866 223.934)" fill="none" stroke="#aee6e6" stroke-linecap="round" stroke-linejoin="round" stroke-width="1.5"/>
          <circle id="Elipse_11489-2" data-name="Elipse 11489" cx="2.473" cy="2.473" r="2.473" transform="translate(24.5 95.767)" fill="none" stroke="#7d6eb2" stroke-linecap="round" stroke-linejoin="round" stroke-width="1.5"/>
        </g>
      </g>
    </g>
    <g id="Grupo_1101895" data-name="Grupo 1101895">
      <g id="Grupo_1101378" data-name="Grupo 1101378" transform="translate(285.748 16641.605)">
        <g id="Grupo_1101377" data-name="Grupo 1101377" clip-path="url(#clip-path)">
          <g id="Grupo_1101359" data-name="Grupo 1101359">
            <g id="Grupo_1101358" data-name="Grupo 1101358" clip-path="url(#clip-path)">
              <path id="Trazado_879396" data-name="Trazado 879396" d="M271.468,366.344h-126.7a18.183,18.183,0,0,1-18.183-18.182V91.271a18.183,18.183,0,0,1,18.183-18.183h126.7A18.182,18.182,0,0,1,289.65,91.271V348.162a18.182,18.182,0,0,1-18.182,18.182" transform="translate(-11.957 -6.904)" fill="#333"/>
              <path id="Trazado_879397" data-name="Trazado 879397" d="M272.413,83.088H244.147a4.981,4.981,0,0,0-4.98,4.98,4.98,4.98,0,0,1-4.98,4.98h-50.25a4.98,4.98,0,0,1-4.98-4.98,4.981,4.981,0,0,0-4.98-4.98H145.71a9.128,9.128,0,0,0-9.128,9.127V349.106a9.127,9.127,0,0,0,9.128,9.127h126.7a9.127,9.127,0,0,0,9.128-9.127V92.216a9.128,9.128,0,0,0-9.128-9.128" transform="translate(-12.902 -7.849)" fill="#ebebeb"/>
              <path id="Trazado_879398" data-name="Trazado 879398" d="M275,304.26H143.716a3.99,3.99,0,0,1-3.99-3.99V259.653a3.99,3.99,0,0,1,3.99-3.99H275a3.99,3.99,0,0,1,3.99,3.99v40.618a3.99,3.99,0,0,1-3.99,3.99" transform="translate(-13.199 -24.151)" fill="#fff"/>
              <path id="Trazado_879399" data-name="Trazado 879399" d="M275,365.625H143.716a3.99,3.99,0,0,1-3.99-3.99V321.018a3.99,3.99,0,0,1,3.99-3.99H275a3.99,3.99,0,0,1,3.99,3.99v40.618a3.99,3.99,0,0,1-3.99,3.99" transform="translate(-13.199 -29.947)" fill="#fff"/>
              <path id="Trazado_879400" data-name="Trazado 879400" d="M276.019,270.325H191.53a3.89,3.89,0,1,1,0-7.78h84.488a3.89,3.89,0,0,1,0,7.78" transform="translate(-17.725 -24.801)" fill="#d6d6d6"/>
              <path id="Trazado_879401" data-name="Trazado 879401" d="M239.8,285.531H191.53a3.89,3.89,0,1,1,0-7.78H239.8a3.89,3.89,0,1,1,0,7.78" transform="translate(-17.725 -26.237)" fill="#d6d6d6"/>
              <path id="Trazado_879402" data-name="Trazado 879402" d="M147.759,333.523h84.488a3.89,3.89,0,1,0,0-7.78H147.759a3.89,3.89,0,1,0,0,7.78" transform="translate(-13.59 -30.771)" fill="#d6d6d6"/>
              <path id="Trazado_879403" data-name="Trazado 879403" d="M187.759,348.729h48.267a3.89,3.89,0,1,0,0-7.78H187.759a3.89,3.89,0,0,0,0,7.78" transform="translate(-17.369 -32.207)" fill="#d6d6d6"/>
              <path id="Trazado_879404" data-name="Trazado 879404" d="M272.413,83.088H244.147a4.981,4.981,0,0,0-4.98,4.98,4.98,4.98,0,0,1-4.98,4.98h-50.25a4.98,4.98,0,0,1-4.98-4.98,4.981,4.981,0,0,0-4.98-4.98H145.71a9.128,9.128,0,0,0-9.128,9.127v29.627H281.54V92.216a9.128,9.128,0,0,0-9.128-9.128" transform="translate(-12.902 -7.849)" fill="#4f67af"/>
            </g>
          </g>
          <text id="FACEBOOK" transform="translate(164.913 104.279)" fill="#fff" font-size="10" font-family="SegoeUI, Segoe UI"><tspan x="0" y="0" letter-spacing="-0.028em">F</tspan><tspan y="0" letter-spacing="-0.009em">A</tspan><tspan y="0">CEBOOK</tspan></text>
          <g id="Grupo_1101370" data-name="Grupo 1101370">
            <g id="Grupo_1101369" data-name="Grupo 1101369" clip-path="url(#clip-path)">
              <path id="Trazado_879405" data-name="Trazado 879405" d="M306.662,164.616h0v-24.9a3.8,3.8,0,0,1,3.8,3.8v17.3a3.8,3.8,0,0,1-3.8,3.8" transform="translate(-28.968 -13.198)" fill="#383838"/>
              <path id="Trazado_879406" data-name="Trazado 879406" d="M126.3,169.22h0V157.4a2.607,2.607,0,0,0-2.607,2.607v6.6a2.607,2.607,0,0,0,2.607,2.607" transform="translate(-11.684 -14.869)" fill="#383838"/>
              <path id="Trazado_879407" data-name="Trazado 879407" d="M126.3,153.145h0V141.33a2.607,2.607,0,0,0-2.607,2.607v6.6a2.607,2.607,0,0,0,2.607,2.607" transform="translate(-11.684 -13.35)" fill="#383838"/>
              <g id="Grupo_1101362" data-name="Grupo 1101362" transform="translate(114.626 97.09)" opacity="0.15">
                <g id="Grupo_1101361" data-name="Grupo 1101361">
                  <g id="Grupo_1101360" data-name="Grupo 1101360" clip-path="url(#clip-path-4)">
                    <path id="Trazado_879408" data-name="Trazado 879408" d="M126.583,300.168,289.651,137.1V107.219L126.583,270.287Z" transform="translate(-126.583 -107.218)" fill="#fff"/>
                    <path id="Trazado_879409" data-name="Trazado 879409" d="M289.651,170.65V151.129L126.583,314.2v19.521Z" transform="translate(-126.583 -111.366)" fill="#fff"/>
                  </g>
                </g>
              </g>
              <g id="Grupo_1101365" data-name="Grupo 1101365" transform="translate(166.374 75.239)" opacity="0.1">
                <g id="Grupo_1101364" data-name="Grupo 1101364">
                  <g id="Grupo_1101363" data-name="Grupo 1101363" clip-path="url(#clip-path-5)">
                    <path id="Trazado_879410" data-name="Trazado 879410" d="M204.872,122.881l28.793-28.793H212.522L183.73,122.881Z" transform="translate(-183.73 -84.127)" fill="#fff"/>
                    <path id="Trazado_879411" data-name="Trazado 879411" d="M267.366,83.088H253.553l-8.094,8.094a5,5,0,0,1-.771.771L214.8,121.842h13.811Z" transform="translate(-186.665 -83.088)" fill="#fff"/>
                  </g>
                </g>
              </g>
              <path id="Trazado_879412" data-name="Trazado 879412" d="M219.628,87.48a3.356,3.356,0,1,1-3.356-3.356,3.356,3.356,0,0,1,3.356,3.356" transform="translate(-20.113 -7.947)" fill="#383838"/>
              <path id="Trazado_879413" data-name="Trazado 879413" d="M243.569,382.618H182.907a2.113,2.113,0,0,1,0-4.226h60.662a2.113,2.113,0,0,1,0,4.226" transform="translate(-17.078 -35.744)" fill="#d6d6d6"/>
              <g id="Grupo_1101368" data-name="Grupo 1101368" transform="translate(114.626 126.943)" opacity="0.1">
                <g id="Grupo_1101367" data-name="Grupo 1101367">
                  <g id="Grupo_1101366" data-name="Grupo 1101366" clip-path="url(#clip-path-6)">
                    <path id="Trazado_879414" data-name="Trazado 879414" d="M289.651,140.185H126.583v88.648h14.625l19.464,12.557,19.464-12.557H289.651Z" transform="translate(-126.583 -140.185)" fill="#212121"/>
                  </g>
                </g>
              </g>
              <path id="Trazado_879415" data-name="Trazado 879415" d="M305.689,132.1H103.5A14.206,14.206,0,0,0,89.294,146.3v60.235A14.206,14.206,0,0,0,103.5,220.745h34.186l19.464,19.882,19.464-19.882H305.689A14.207,14.207,0,0,0,319.9,206.538V146.3A14.207,14.207,0,0,0,305.689,132.1" transform="translate(-8.435 -12.478)" fill="#4f67af"/>
              <path id="Trazado_879416" data-name="Trazado 879416" d="M216.844,132.1,128.2,220.745H141.36l8.27,8.448,97.094-97.1Z" transform="translate(-12.11 -12.478)" fill="#546eba"/>
              <path id="Trazado_879417" data-name="Trazado 879417" d="M259.353,132.1,157.265,234.185l6.305,6.441,19.464-19.882h7.193L278.874,132.1Z" transform="translate(-14.856 -12.478)" fill="#546eba"/>
              <path id="Trazado_879418" data-name="Trazado 879418" d="M180.046,280.655a17.66,17.66,0,1,1-17.66-17.66,17.659,17.659,0,0,1,17.66,17.66" transform="translate(-13.671 -24.843)" fill="#ffd871"/>
              <path id="Trazado_879419" data-name="Trazado 879419" d="M164.228,283.445c0,.906,3.22,8.15,3.22,8.15l6.433,4.289a17.634,17.634,0,0,0,8.007-14.777c0-.085-.012-.168-.013-.253L168.79,267.768s-4.562,14.771-4.562,15.677" transform="translate(-15.513 -25.294)" fill="#f2ce6c"/>
              <path id="Trazado_879420" data-name="Trazado 879420" d="M166.379,282.975a9.484,9.484,0,0,0,4.089-8.086c0-5.046-3.417-9.135-7.633-9.135s-7.632,4.089-7.632,9.135a9.484,9.484,0,0,0,4.089,8.086,15.763,15.763,0,0,0-9.805,9.479,17.617,17.617,0,0,0,26.7,0,15.763,15.763,0,0,0-9.805-9.479" transform="translate(-14.121 -25.104)" fill="#dbba61"/>
              <path id="Trazado_879421" data-name="Trazado 879421" d="M285.691,342.019a17.66,17.66,0,1,1-17.66-17.66,17.659,17.659,0,0,1,17.66,17.66" transform="translate(-23.651 -30.64)" fill="#42ceff"/>
              <path id="Trazado_879422" data-name="Trazado 879422" d="M269.873,344.81c0,.906,3.22,8.15,3.22,8.15l6.433,4.289a17.634,17.634,0,0,0,8.007-14.777c0-.085-.012-.168-.013-.253l-13.085-13.085s-4.562,14.771-4.562,15.677" transform="translate(-25.493 -31.091)" fill="#3dc0ed"/>
              <path id="Trazado_879423" data-name="Trazado 879423" d="M272.024,344.339a9.484,9.484,0,0,0,4.088-8.086c0-5.046-3.417-9.135-7.633-9.135s-7.632,4.089-7.632,9.135a9.484,9.484,0,0,0,4.089,8.086,15.763,15.763,0,0,0-9.805,9.479,17.617,17.617,0,0,0,26.7,0,15.766,15.766,0,0,0-9.805-9.479" transform="translate(-24.1 -30.901)" fill="#34a0c7"/>
              <path id="Trazado_879424" data-name="Trazado 879424" d="M150.562,113.384l.195.195-1.049,3.013,1.847,1.846,3.023-8.679-.195-.2-8.68,3.024,1.846,1.846Z" transform="translate(-13.764 -10.35)" fill="#fff"/>
              <path id="Trazado_879425" data-name="Trazado 879425" d="M283.168,108.13c-3.263,0-5.907,2.179-5.907,4.864a4.274,4.274,0,0,0,1.046,2.76l-1.046,2.1,2.411-.949a6.746,6.746,0,0,0,3.5.949c3.263,0,5.907-2.178,5.907-4.864s-2.644-4.864-5.907-4.864" transform="translate(-26.191 -10.214)" fill="#fff"/>
              <path id="Trazado_879426" data-name="Trazado 879426" d="M283.874,193.144a12.7,12.7,0,1,1,12.7-12.7,12.712,12.712,0,0,1-12.7,12.7m0-22.679a9.981,9.981,0,1,0,9.982,9.982,9.993,9.993,0,0,0-9.982-9.982" transform="translate(-25.616 -15.846)" fill="#32416e"/>
              <path id="Trazado_879427" data-name="Trazado 879427" d="M284.908,169.248a11.4,11.4,0,0,0-2.355.248,5.255,5.255,0,0,0-.337.925c-.382,1.529.238,3.433,1.732,3.935.985.331,2.342.134,2.808,1.063.609,1.214-1.237,2.743-.486,3.875.415.626,1.337.606,2.063.418a3.224,3.224,0,0,1,2.194-.135c.887.436,1.012,1.62,1.462,2.5a3.342,3.342,0,0,0,3.855,1.475,11.306,11.306,0,0,0-10.935-14.3" transform="translate(-26.648 -15.988)" fill="#32416e"/>
              <path id="Trazado_879428" data-name="Trazado 879428" d="M286.366,192.651a5.109,5.109,0,0,1-1.4-1.89c-.782-1.9-.685-4.522-2.545-5.4-1.081-.508-2.35-.128-3.544-.172a6.565,6.565,0,0,1-5.268-3.787,10.781,10.781,0,0,1-.741-1.9,11.333,11.333,0,0,0,13.494,13.143" transform="translate(-25.758 -16.957)" fill="#32416e"/>
              <path id="Trazado_879429" data-name="Trazado 879429" d="M281.889,180.3a1.464,1.464,0,0,1-1.833.832,2.178,2.178,0,0,1-1.337-1.672,4.413,4.413,0,0,1,.238-2.206c.232-.705.908-.775,1.64-.647a2.173,2.173,0,0,1,1.6,1.4,3.863,3.863,0,0,1-.306,2.291" transform="translate(-26.323 -16.677)" fill="#32416e"/>
              <path id="Trazado_879430" data-name="Trazado 879430" d="M301.385,173.993H292.52a2.955,2.955,0,0,1-2.955-2.956v-8.864a2.955,2.955,0,0,1,2.955-2.956h8.865a2.955,2.955,0,0,1,2.956,2.956v8.864a2.955,2.955,0,0,1-2.956,2.956" transform="translate(-27.353 -15.04)" fill="#d13434"/>
            </g>
          </g>
          <text id="_7" data-name="7" transform="translate(267.268 152.563)" fill="#fff" font-size="7" font-family="SegoeUI, Segoe UI"><tspan x="0" y="0">7</tspan></text>
          <g id="Grupo_1101372" data-name="Grupo 1101372">
            <g id="Grupo_1101371" data-name="Grupo 1101371" clip-path="url(#clip-path)">
              <path id="Trazado_879431" data-name="Trazado 879431" d="M213.475,170.063c-7.241,0-13.11,4.4-13.11,9.835a8.864,8.864,0,0,0,4.059,7.1l-.751,4.545,5.065-2.487a16.953,16.953,0,0,0,4.738.673c7.241,0,13.11-4.4,13.11-9.835s-5.87-9.835-13.11-9.835M210,184.591l3.011-4.822h-3.043l6.633-5.232-2.543,4.043h2.922Z" transform="translate(-18.927 -16.065)" fill="#32416e"/>
              <path id="Trazado_879432" data-name="Trazado 879432" d="M230.535,173.993H221.67a2.955,2.955,0,0,1-2.955-2.956v-8.864a2.955,2.955,0,0,1,2.955-2.956h8.865a2.955,2.955,0,0,1,2.956,2.956v8.864a2.955,2.955,0,0,1-2.956,2.956" transform="translate(-20.66 -15.04)" fill="#d13434"/>
            </g>
          </g>
          <text id="_7-2" data-name="7" transform="translate(203.111 152.563)" fill="#fff" font-size="7" font-family="SegoeUI, Segoe UI"><tspan x="0" y="0">7</tspan></text>
          <g id="Grupo_1101374" data-name="Grupo 1101374">
            <g id="Grupo_1101373" data-name="Grupo 1101373" clip-path="url(#clip-path)">
              <path id="Trazado_879433" data-name="Trazado 879433" d="M140.074,182.267v-3.36a4.475,4.475,0,0,0,1.664-2.469c.337-1.011.092-1.5-.2-1.742.024-.081.049-.155.072-.239,1.693-6.056-4.309-5.791-5.838-5.791A1.62,1.62,0,0,0,134.1,170.1s-3.178.52-1.634,4.664v0c-.254.265-.427.756-.122,1.673a4.48,4.48,0,0,0,1.664,2.469v3.36s-5.682,3.113-6.645,6v4.415h19.356v-4.415c-.962-2.886-6.645-6-6.645-6" transform="translate(-12.031 -15.933)" fill="#32416e"/>
              <path id="Trazado_879434" data-name="Trazado 879434" d="M151.987,184.563V183.3c3.039,1,4.078-.873,4.078-.873-1.95.473-2.514-2.857-2.676-4.927.64-3.457-2.146-4.022-3.9-4.11-1.75.088-4.536.653-3.9,4.11-.162,2.07-.726,5.4-2.676,4.927,0,0,1.039,1.875,4.078.873v1.26s-.284.156-.722.425a9.406,9.406,0,0,1,3.216,3.725v4.415h7.96V189.5c-.791-2.374-5.465-4.934-5.465-4.934" transform="translate(-13.501 -16.379)" fill="#32416e"/>
              <path id="Trazado_879435" data-name="Trazado 879435" d="M159.686,173.993h-8.865a2.955,2.955,0,0,1-2.955-2.956v-8.864a2.955,2.955,0,0,1,2.955-2.956h8.865a2.955,2.955,0,0,1,2.956,2.956v8.864a2.955,2.955,0,0,1-2.956,2.956" transform="translate(-13.968 -15.04)" fill="#d13434"/>
            </g>
          </g>
          <text id="_7-3" data-name="7" transform="translate(138.954 152.563)" fill="#fff" font-size="7" font-family="SegoeUI, Segoe UI"><tspan x="0" y="0">7</tspan></text>
          <g id="Grupo_1101376" data-name="Grupo 1101376">
            <g id="Grupo_1101375" data-name="Grupo 1101375" clip-path="url(#clip-path)">
              <path id="Trazado_879436" data-name="Trazado 879436" d="M76.01,145.545A22.135,22.135,0,1,1,53.875,123.41,22.135,22.135,0,0,1,76.01,145.545" transform="translate(-2.998 -11.658)" fill="#4f67af"/>
              <path id="Trazado_879437" data-name="Trazado 879437" d="M67.6,143.828a1.783,1.783,0,0,0-1.783-1.783h-7.43a13.954,13.954,0,0,0,2.322-5.773c.534-3.057-1.433-3.921-2.767-4.159a1.029,1.029,0,0,0-1.2.925c-.132,1.43-.52,3.99-1.632,5.1-1.585,1.585-3.509,3.9-3.509,3.9v14.262H64.152a1.783,1.783,0,0,0,0-3.565h.453a1.783,1.783,0,0,0,0-3.566h.6a1.783,1.783,0,1,0,0-3.565h.609a1.783,1.783,0,0,0,1.783-1.783" transform="translate(-4.874 -12.478)" fill="#fff"/>
              <path id="Trazado_879438" data-name="Trazado 879438" d="M47.852,143.084H44.568a1.471,1.471,0,0,0-1.472,1.471v11.321a1.471,1.471,0,0,0,1.472,1.471h3.283a1.47,1.47,0,0,0,1.471-1.471V144.555a1.47,1.47,0,0,0-1.471-1.471" transform="translate(-4.071 -13.516)" fill="#fff"/>
              <path id="Trazado_879439" data-name="Trazado 879439" d="M117.3,411.782a15.268,15.268,0,1,1-15.268-15.268A15.268,15.268,0,0,1,117.3,411.782" transform="translate(-8.196 -37.456)" fill="#4f67af"/>
              <path id="Trazado_879440" data-name="Trazado 879440" d="M111.5,410.6a1.23,1.23,0,0,0-1.23-1.23h-5.125a9.617,9.617,0,0,0,1.6-3.982,2.2,2.2,0,0,0-1.909-2.87.71.71,0,0,0-.83.639c-.091.985-.359,2.751-1.126,3.518-1.093,1.093-2.42,2.694-2.42,2.694v9.838h8.66a1.23,1.23,0,0,0,0-2.459h.312a1.23,1.23,0,1,0,0-2.459h.417a1.23,1.23,0,0,0,0-2.459h.42a1.23,1.23,0,0,0,1.23-1.23" transform="translate(-9.49 -38.022)" fill="#fff"/>
              <path id="Trazado_879441" data-name="Trazado 879441" d="M97.875,410.085H95.609a1.015,1.015,0,0,0-1.014,1.014v7.809a1.015,1.015,0,0,0,1.014,1.014h2.266a1.014,1.014,0,0,0,1.014-1.014V411.1a1.014,1.014,0,0,0-1.014-1.014" transform="translate(-8.936 -38.738)" fill="#fff"/>
              <path id="Trazado_879442" data-name="Trazado 879442" d="M357.626,379.133a15.268,15.268,0,1,1-15.268-15.268,15.268,15.268,0,0,1,15.268,15.268" transform="translate(-30.898 -34.372)" fill="#4f67af"/>
              <path id="Trazado_879443" data-name="Trazado 879443" d="M351.826,377.95a1.23,1.23,0,0,0-1.23-1.23H345.47a9.617,9.617,0,0,0,1.6-3.982,2.2,2.2,0,0,0-1.909-2.87.71.71,0,0,0-.83.639c-.091.985-.359,2.751-1.126,3.518-1.093,1.093-2.42,2.694-2.42,2.694v9.838h8.66a1.23,1.23,0,1,0,0-2.459h.312a1.23,1.23,0,1,0,0-2.459h.417a1.23,1.23,0,1,0,0-2.459h.42a1.23,1.23,0,0,0,1.23-1.23" transform="translate(-32.192 -34.938)" fill="#fff"/>
              <path id="Trazado_879444" data-name="Trazado 879444" d="M338.2,377.436h-2.265a1.015,1.015,0,0,0-1.015,1.014v7.809a1.015,1.015,0,0,0,1.015,1.014H338.2a1.014,1.014,0,0,0,1.014-1.014V378.45a1.014,1.014,0,0,0-1.014-1.014" transform="translate(-31.638 -35.654)" fill="#fff"/>
              <path id="Trazado_879445" data-name="Trazado 879445" d="M415.18,205.191a15.269,15.269,0,1,1-15.269-15.268,15.269,15.269,0,0,1,15.269,15.268" transform="translate(-36.335 -17.941)" fill="#4f67af"/>
              <path id="Trazado_879446" data-name="Trazado 879446" d="M409.379,204.008a1.23,1.23,0,0,0-1.23-1.23h-5.125a9.617,9.617,0,0,0,1.6-3.982,2.2,2.2,0,0,0-1.908-2.87.711.711,0,0,0-.831.639c-.091.985-.359,2.751-1.126,3.518-1.093,1.093-2.42,2.694-2.42,2.694v9.838H407a1.23,1.23,0,0,0,0-2.459h.312a1.23,1.23,0,1,0,0-2.459h.417a1.23,1.23,0,0,0,0-2.459h.42a1.23,1.23,0,0,0,1.23-1.23" transform="translate(-37.628 -18.507)" fill="#fff"/>
              <path id="Trazado_879447" data-name="Trazado 879447" d="M395.758,203.494h-2.265a1.015,1.015,0,0,0-1.015,1.014v7.809a1.015,1.015,0,0,0,1.015,1.014h2.265a1.014,1.014,0,0,0,1.014-1.014v-7.809a1.014,1.014,0,0,0-1.014-1.014" transform="translate(-37.075 -19.223)" fill="#fff"/>
              <path id="Trazado_879448" data-name="Trazado 879448" d="M337.955,48.716a13.547,13.547,0,1,1-13.547-13.547,13.547,13.547,0,0,1,13.547,13.547" transform="translate(-29.365 -3.322)" fill="#4f67af"/>
              <path id="Trazado_879449" data-name="Trazado 879449" d="M332.808,47.666a1.092,1.092,0,0,0-1.091-1.091h-4.548a8.525,8.525,0,0,0,1.421-3.533A1.95,1.95,0,0,0,326.9,40.5a.631.631,0,0,0-.737.567,5.8,5.8,0,0,1-1,3.122c-.97.97-2.147,2.39-2.147,2.39V55.3H330.7a1.091,1.091,0,1,0,0-2.182h.277a1.091,1.091,0,1,0,0-2.181h.369a1.091,1.091,0,1,0,0-2.182h.373a1.092,1.092,0,0,0,1.091-1.091" transform="translate(-30.513 -3.824)" fill="#fff"/>
              <path id="Trazado_879450" data-name="Trazado 879450" d="M320.721,47.21h-2.009a.9.9,0,0,0-.9.9v6.928a.9.9,0,0,0,.9.9h2.009a.9.9,0,0,0,.9-.9V48.11a.9.9,0,0,0-.9-.9" transform="translate(-30.021 -4.46)" fill="#fff"/>
              <path id="Trazado_879451" data-name="Trazado 879451" d="M401.856,110.9a24.975,24.975,0,1,1-24.975-24.975A24.975,24.975,0,0,1,401.856,110.9" transform="translate(-33.242 -8.116)" fill="#e33c3c"/>
              <path id="Trazado_879452" data-name="Trazado 879452" d="M387.288,136.043a25.017,25.017,0,0,0,15.9-18.477l-13.83-13.83-5.546,7.329-2.27-1.663L371.32,120.075Z" transform="translate(-35.076 -9.799)" fill="#cf3737"/>
              <path id="Trazado_879453" data-name="Trazado 879453" d="M385.346,101.723c-5.9-.7-7.217,4.228-7.217,4.228s-.948-5.143-7.218-4.228c-6.2.906-11.518,14,7.218,22.745,18.736-8.748,13.444-22.011,7.217-22.745" transform="translate(-34.493 -9.599)" fill="#fff"/>
              <path id="Trazado_879454" data-name="Trazado 879454" d="M420.542,293.815a31.269,31.269,0,1,1-31.269-31.269,31.269,31.269,0,0,1,31.269,31.269" transform="translate(-33.818 -24.801)" fill="#ffd350"/>
              <path id="Trazado_879455" data-name="Trazado 879455" d="M381.264,288.993c0,3.694-1.774,6.688-3.962,6.688s-3.962-2.995-3.962-6.688,1.774-6.688,3.962-6.688,3.962,2.995,3.962,6.688" transform="translate(-35.267 -26.667)" fill="#362c11"/>
              <path id="Trazado_879456" data-name="Trazado 879456" d="M410.9,288.993c0,3.694-1.774,6.688-3.962,6.688s-3.962-2.995-3.962-6.688,1.774-6.688,3.962-6.688,3.962,2.995,3.962,6.688" transform="translate(-38.067 -26.667)" fill="#362c11"/>
              <path id="Trazado_879457" data-name="Trazado 879457" d="M401.158,311.3c0,6.581-4.31,11.915-9.628,11.915S381.9,317.884,381.9,311.3s4.31-11.915,9.629-11.915,9.628,5.335,9.628,11.915" transform="translate(-36.076 -28.281)" fill="#362c11"/>
              <path id="Trazado_879458" data-name="Trazado 879458" d="M372.215,280.6a1.813,1.813,0,0,1-1.743-2.307,6.789,6.789,0,0,1,3.571-4.237,6.088,6.088,0,0,1,5.491.712,1.811,1.811,0,0,1-1.811,3.137,2.762,2.762,0,0,0-2.319-.492,3.274,3.274,0,0,0-1.448,1.871,1.812,1.812,0,0,1-1.741,1.317" transform="translate(-34.989 -25.854)" fill="#362c11"/>
              <path id="Trazado_879459" data-name="Trazado 879459" d="M411.807,280.6a1.813,1.813,0,0,1-1.739-1.306,3.241,3.241,0,0,0-1.46-1.885,2.79,2.79,0,0,0-2.31.5,1.811,1.811,0,0,1-1.811-3.137,6.088,6.088,0,0,1,5.491-.712,6.786,6.786,0,0,1,3.571,4.237,1.813,1.813,0,0,1-1.743,2.307" transform="translate(-38.124 -25.854)" fill="#362c11"/>
              <path id="Trazado_879460" data-name="Trazado 879460" d="M84.191,317.034a31.27,31.27,0,1,1-31.269-31.269,31.269,31.269,0,0,1,31.269,31.269" transform="translate(-2.045 -26.994)" fill="#ffd350"/>
              <path id="Trazado_879461" data-name="Trazado 879461" d="M28.195,322.372a25.414,25.414,0,0,0,50.689,0Z" transform="translate(-2.663 -30.452)" fill="#5c4c1d"/>
              <path id="Trazado_879462" data-name="Trazado 879462" d="M70.743,341.256a25.391,25.391,0,0,0-32.51,0,25.391,25.391,0,0,0,32.51,0" transform="translate(-3.612 -31.68)" fill="#e33c3c"/>
              <path id="Trazado_879463" data-name="Trazado 879463" d="M32.819,305.35l9.85,5.433-13.06,3.773" transform="translate(-2.797 -28.844)" fill="none" stroke="#362c11" stroke-linecap="round" stroke-linejoin="round" stroke-width="4"/>
              <path id="Trazado_879464" data-name="Trazado 879464" d="M78.187,305.35l-9.85,5.433,13.06,3.773" transform="translate(-6.455 -28.844)" fill="none" stroke="#362c11" stroke-linecap="round" stroke-linejoin="round" stroke-width="4"/>
              <path id="Trazado_879465" data-name="Trazado 879465" d="M234.67,20.15A20.15,20.15,0,1,1,214.52,0a20.15,20.15,0,0,1,20.15,20.15" transform="translate(-18.361)" fill="#ffd350"/>
              <path id="Trazado_879466" data-name="Trazado 879466" d="M209.359,17.042c0,2.381-1.143,4.31-2.553,4.31s-2.554-1.93-2.554-4.31,1.144-4.31,2.554-4.31,2.553,1.93,2.553,4.31" transform="translate(-19.294 -1.203)" fill="#362c11"/>
              <path id="Trazado_879467" data-name="Trazado 879467" d="M228.458,17.042c0,2.381-1.143,4.31-2.553,4.31s-2.554-1.93-2.554-4.31,1.144-4.31,2.554-4.31,2.553,1.93,2.553,4.31" transform="translate(-21.099 -1.203)" fill="#362c11"/>
              <path id="Trazado_879468" data-name="Trazado 879468" d="M203.535,11.563a1.113,1.113,0,0,1-.305-.043,1.092,1.092,0,0,1-.747-1.347,4.293,4.293,0,0,1,2.258-2.682,3.847,3.847,0,0,1,3.475.453,1.094,1.094,0,1,1-1.094,1.9,1.857,1.857,0,0,0-1.552-.322,2.125,2.125,0,0,0-.983,1.261,1.1,1.1,0,0,1-1.051.784" transform="translate(-19.123 -0.686)" fill="#362c11"/>
              <path id="Trazado_879469" data-name="Trazado 879469" d="M229.048,11.569a1.1,1.1,0,0,1-1.05-.791,2.125,2.125,0,0,0-.982-1.261,1.862,1.862,0,0,0-1.552.324,1.095,1.095,0,0,1-1.095-1.9,3.847,3.847,0,0,1,3.476-.454,4.3,4.3,0,0,1,2.258,2.684,1.093,1.093,0,0,1-.753,1.351,1.081,1.081,0,0,1-.3.043" transform="translate(-21.143 -0.686)" fill="#362c11"/>
              <path id="Trazado_879470" data-name="Trazado 879470" d="M215.294,33.587c-7.339,0-12.974-5.34-13.058-5.421a1.095,1.095,0,0,1,1.522-1.574,20.207,20.207,0,0,0,7.04,4.095c5.412,1.74,10.411.368,14.86-4.081a1.094,1.094,0,0,1,1.548,1.548c-4.074,4.075-8.21,5.433-11.911,5.433" transform="translate(-19.072 -2.483)" fill="#362c11"/>
              <path id="Trazado_879471" data-name="Trazado 879471" d="M235.26,436.565a16.671,16.671,0,1,1-16.671-16.671,16.67,16.67,0,0,1,16.671,16.671" transform="translate(-19.074 -39.664)" fill="#e33c3c"/>
              <path id="Trazado_879472" data-name="Trazado 879472" d="M225.536,453.35a16.7,16.7,0,0,0,10.616-12.333l-9.232-9.232-3.7,4.892-1.515-1.11-6.826,7.125Z" transform="translate(-20.298 -40.788)" fill="#cf3737"/>
              <path id="Trazado_879473" data-name="Trazado 879473" d="M224.239,430.442a4.18,4.18,0,0,0-4.817,2.823s-.633-3.433-4.818-2.823c-4.141.6-7.688,9.343,4.818,15.183,12.506-5.84,8.974-14.693,4.817-15.183" transform="translate(-19.909 -40.654)" fill="#fff"/>
              <path id="Trazado_879474" data-name="Trazado 879474" d="M120.317,50.773a12.047,12.047,0,1,1-12.047-12.047,12.047,12.047,0,0,1,12.047,12.047" transform="translate(-9.089 -3.658)" fill="#e33c3c"/>
              <path id="Trazado_879475" data-name="Trazado 879475" d="M113.289,62.9a12.067,12.067,0,0,0,7.671-8.913l-6.671-6.671-2.675,3.535-1.095-.8L105.587,55.2Z" transform="translate(-9.974 -4.47)" fill="#cf3737"/>
              <path id="Trazado_879476" data-name="Trazado 879476" d="M112.353,46.349a3.021,3.021,0,0,0-3.482,2.039s-.457-2.48-3.481-2.039c-2.993.436-5.556,6.752,3.481,10.972,9.038-4.221,6.485-10.618,3.482-10.972" transform="translate(-9.693 -4.373)" fill="#fff"/>
              <path id="Trazado_879477" data-name="Trazado 879477" d="M46.672,233.273A16.671,16.671,0,1,1,30,216.6a16.671,16.671,0,0,1,16.671,16.671" transform="translate(-1.259 -20.461)" fill="#e33c3c"/>
              <path id="Trazado_879478" data-name="Trazado 879478" d="M36.947,250.058a16.7,16.7,0,0,0,10.616-12.333l-9.232-9.232-3.7,4.892-1.516-1.11L26.288,239.4Z" transform="translate(-2.483 -21.584)" fill="#cf3737"/>
              <path id="Trazado_879479" data-name="Trazado 879479" d="M35.651,227.149a4.181,4.181,0,0,0-4.817,2.823s-.633-3.433-4.818-2.823c-4.141.6-7.688,9.343,4.818,15.183,12.506-5.84,8.974-14.693,4.817-15.183" transform="translate(-2.094 -21.45)" fill="#fff"/>
              <path id="Trazado_879480" data-name="Trazado 879480" d="M414.111,158.939a2.66,2.66,0,1,1-2.66-2.66,2.66,2.66,0,0,1,2.66,2.66" transform="translate(-38.616 -14.763)" fill="#fff"/>
              <path id="Trazado_879481" data-name="Trazado 879481" d="M374.109,238.889a4.138,4.138,0,1,1-4.137-4.137,4.137,4.137,0,0,1,4.137,4.137" transform="translate(-34.558 -22.175)" fill="#fff"/>
              <path id="Trazado_879482" data-name="Trazado 879482" d="M277.446,29.936a3.651,3.651,0,1,1-3.651-3.651,3.651,3.651,0,0,1,3.651,3.651" transform="translate(-25.519 -2.483)" fill="#fff"/>
              <path id="Trazado_879483" data-name="Trazado 879483" d="M64.28,82.64a4.294,4.294,0,1,1-4.294-4.294A4.294,4.294,0,0,1,64.28,82.64" transform="translate(-5.261 -7.401)" fill="#fff"/>
              <path id="Trazado_879484" data-name="Trazado 879484" d="M6.853,181.568a3.427,3.427,0,1,1-3.427-3.427,3.426,3.426,0,0,1,3.427,3.427" transform="translate(0 -16.828)" fill="#fff"/>
              <path id="Trazado_879485" data-name="Trazado 879485" d="M155.478,441.614a2.264,2.264,0,1,1-2.265-2.264,2.265,2.265,0,0,1,2.265,2.264" transform="translate(-14.259 -41.502)" fill="#fff"/>
              <path id="Trazado_879486" data-name="Trazado 879486" d="M305.772,429.924a4.266,4.266,0,1,1-4.266-4.266,4.266,4.266,0,0,1,4.266,4.266" transform="translate(-28.078 -40.209)" fill="#fff"/>
              <path id="Trazado_879487" data-name="Trazado 879487" d="M341.5,327.72h0a9.087,9.087,0,0,0,5.989,5.99h0A9.082,9.082,0,0,0,341.5,339.7a9.082,9.082,0,0,0-5.99-5.989,9.086,9.086,0,0,0,5.99-5.99" transform="translate(-31.694 -30.957)" fill="#fff"/>
              <path id="Trazado_879488" data-name="Trazado 879488" d="M435.968,233.1h0a6.188,6.188,0,0,0,4.081,4.081,6.188,6.188,0,0,0-4.081,4.081,6.188,6.188,0,0,0-4.081-4.081,6.188,6.188,0,0,0,4.081-4.081" transform="translate(-40.797 -22.019)" fill="#fff"/>
              <path id="Trazado_879489" data-name="Trazado 879489" d="M68.844,248.915h0A6.188,6.188,0,0,0,72.926,253a6.188,6.188,0,0,0-4.081,4.081A6.188,6.188,0,0,0,64.763,253a6.188,6.188,0,0,0,4.081-4.081" transform="translate(-6.118 -23.513)" fill="#fff"/>
              <path id="Trazado_879490" data-name="Trazado 879490" d="M357.577,60.827h0a6.188,6.188,0,0,0,4.081,4.081,6.188,6.188,0,0,0-4.081,4.081,6.188,6.188,0,0,0-4.081-4.081,6.188,6.188,0,0,0,4.081-4.081" transform="translate(-33.392 -5.746)" fill="#fff"/>
              <path id="Trazado_879491" data-name="Trazado 879491" d="M158.261,22.835h0a10.276,10.276,0,0,0,6.776,6.776,10.274,10.274,0,0,0-6.776,6.776,10.274,10.274,0,0,0-6.776-6.776,10.276,10.276,0,0,0,6.776-6.776" transform="translate(-14.31 -2.157)" fill="#fff"/>
              <path id="Trazado_879492" data-name="Trazado 879492" d="M5.919,272.35h0a8.845,8.845,0,0,0,5.833,5.833,8.849,8.849,0,0,0-5.833,5.834,8.848,8.848,0,0,0-5.833-5.834,8.845,8.845,0,0,0,5.833-5.833" transform="translate(-0.008 -25.727)" fill="#fff"/>
              <path id="Trazado_879493" data-name="Trazado 879493" d="M64.567,376.617h0A8.845,8.845,0,0,0,70.4,382.45a8.848,8.848,0,0,0-5.833,5.834,8.848,8.848,0,0,0-5.833-5.834,8.845,8.845,0,0,0,5.833-5.833" transform="translate(-5.548 -35.576)" fill="#fff"/>
            </g>
          </g>
        </g>
      </g>
    </g>
  </g>
</svg>
