<svg xmlns="http://www.w3.org/2000/svg" width="78.501" height="67.149" viewBox="0 0 78.501 67.149">
  <g id="Grupo_1101899" data-name="Grupo 1101899" transform="translate(-244 -16204.613)">
    <g id="Grupo_1101709" data-name="Grupo 1101709" transform="translate(0 -259.871)">
      <path id="_12068" data-name="12068" d="M72.033,71.913c-8.038-1.11-16.53-.839-23.844,2.675C38.045,79.46,31.382,90.507,31.127,101.757s5.606,22.305,14.66,28.988,21,9.051,32.068,7.045c11.165-2.023,21.645-8.583,27.469-18.322,3.735-6.245,5.48-13.956,3.417-20.934a28.6,28.6,0,0,0-6.787-11.156A50.145,50.145,0,0,0,72.033,71.913Z" transform="translate(212.881 16393.152)" fill="#26aab7"/>
      <g id="amor" transform="translate(245.171 16464.484)">
        <path id="Trazado_879877" data-name="Trazado 879877" d="M63.956,8.241H24.135a12,12,0,0,0-12,12V46.358a12,12,0,0,0,12,12H29.85a.492.492,0,0,1,.492.492V71.732a1.682,1.682,0,0,0,2.907,1.152L46.766,58.511a.492.492,0,0,1,.359-.155H63.956a12,12,0,0,0,12-12V20.24A12,12,0,0,0,63.956,8.241Z" transform="translate(-6.052 -7.16)" fill="#ec5569"/>
        <path id="Trazado_879878" data-name="Trazado 879878" d="M35.389,64.3a.5.5,0,0,0-.477-.518H29.38c-6.415,0-11.616-5.657-11.616-12.635V23.64a13.684,13.684,0,0,1,.428-3.408,11.994,11.994,0,0,0-6.057,10.426V56.776a12,12,0,0,0,12,12h5.715a.492.492,0,0,1,.492.492V82.15A1.682,1.682,0,0,0,33.247,83.3l2.141-2.277V64.3Z" transform="translate(-6.051 -17.579)" fill="#e63950"/>
        <path id="Trazado_879879" data-name="Trazado 879879" d="M164.469,111.836h0a7.8,7.8,0,0,0-11.032,0l-1.721,1.721a1.051,1.051,0,0,1-1.486,0l-1.693-1.693a7.8,7.8,0,0,0-11.032,0h0a7.8,7.8,0,0,0,0,11.032l12.726,12.726a1.051,1.051,0,0,0,1.486,0l12.752-12.754A7.8,7.8,0,0,0,164.469,111.836Z" transform="translate(-112.993 -95.183)" fill="#ec5569"/>
        <path id="Trazado_879880" data-name="Trazado 879880" d="M164.469,111.836h0a7.8,7.8,0,0,0-11.032,0l-1.721,1.721a1.051,1.051,0,0,1-1.486,0l-1.693-1.693a7.8,7.8,0,0,0-11.032,0h0a7.8,7.8,0,0,0,0,11.032l12.726,12.726a1.051,1.051,0,0,0,1.486,0l12.752-12.754A7.8,7.8,0,0,0,164.469,111.836Z" transform="translate(-112.993 -95.183)" fill="#fff5f5"/>
        <path id="Trazado_879881" data-name="Trazado 879881" d="M141.586,123.09a7.8,7.8,0,0,1,0-11.032h0a7.761,7.761,0,0,1,3.476-2.012,7.8,7.8,0,0,0-7.556,2.012h0a7.8,7.8,0,0,0,0,11.032l12.726,12.726a1.051,1.051,0,0,0,1.486,0l1.3-1.3Z" transform="translate(-112.994 -95.378)" fill="#dce6eb"/>
        <path id="Trazado_879882" data-name="Trazado 879882" d="M57.978,0H18.157a12.883,12.883,0,0,0-7.721,2.544A.987.987,0,0,0,11.611,4.13a10.921,10.921,0,0,1,6.546-2.156H57.978A11.024,11.024,0,0,1,68.99,12.986V39.1A11.024,11.024,0,0,1,57.978,50.115H41.147a1.484,1.484,0,0,0-1.078.466L26.552,64.954a.695.695,0,0,1-1.2-.476V51.595a1.481,1.481,0,0,0-1.479-1.479H18.157A11.024,11.024,0,0,1,7.145,39.1V12.986A10.95,10.95,0,0,1,9.068,6.767.987.987,0,1,0,7.44,5.651a12.917,12.917,0,0,0-2.269,7.335V39.1A13,13,0,0,0,18.157,52.09h5.22V64.478a2.655,2.655,0,0,0,1.685,2.481,2.683,2.683,0,0,0,.989.19,2.656,2.656,0,0,0,1.938-.843L41.361,52.09H57.978A13,13,0,0,0,70.964,39.1V12.986A13,13,0,0,0,57.978,0Z" transform="translate(0)"/>
        <path id="Trazado_879883" data-name="Trazado 879883" d="M154.873,117.892a.987.987,0,1,0,1.4,1.4l2.947-2.948a8.788,8.788,0,0,0-12.428-12.428l-1.721,1.721a.061.061,0,0,1-.045.019.059.059,0,0,1-.045-.019l-1.693-1.693a8.788,8.788,0,1,0-12.428,12.428l12.726,12.726a2.038,2.038,0,0,0,2.882,0l6.994-6.995a.987.987,0,0,0-1.4-1.4l-6.994,6.995a.061.061,0,0,1-.045.019.059.059,0,0,1-.045-.019l-12.726-12.726a6.814,6.814,0,1,1,9.636-9.636l1.693,1.693a2.038,2.038,0,0,0,2.882,0l1.721-1.721a6.814,6.814,0,0,1,9.636,9.636Z" transform="translate(-106.969 -88.051)"/>
      </g>
    </g>
  </g>
</svg>
