<svg xmlns="http://www.w3.org/2000/svg" width="151.991" height="148.529" viewBox="0 0 151.991 148.529">
  <g id="Grupo_1101899" data-name="Grupo 1101899" transform="translate(-882 -17685)">
    <g id="Grupo_1101715" data-name="Grupo 1101715" transform="translate(882 17708.697)">
      <path id="_12068" data-name="12068" d="M103.949,72.366C89.64,70.39,74.525,70.874,61.5,77.128,43.447,85.8,31.588,105.464,31.133,125.491s9.978,39.705,26.1,51.6S94.6,193.2,114.312,189.632c19.875-3.6,38.53-15.279,48.9-32.614,6.648-11.116,9.755-24.842,6.082-37.264-2.217-7.5-6.75-14.14-12.082-19.858A89.263,89.263,0,0,0,103.949,72.366Z" transform="translate(-24.992 -66.03)" fill="#ffd947"/>
      <g id="Grupo_1099026" data-name="Grupo 1099026" transform="translate(0 111.446) rotate(-90)">
        <path id="Trazado_873104" data-name="Trazado 873104" d="M.647,2.832A1.64,1.64,0,0,0,2.79,2.59,1.64,1.64,0,0,0,2.7.434,1.641,1.641,0,0,0,.541.376,1.573,1.573,0,0,0,.647,2.832Z" transform="translate(21.424 128.541)" fill="#fff"/>
        <path id="Trazado_873105" data-name="Trazado 873105" d="M.646,2.832A1.64,1.64,0,0,0,2.791,2.59,1.641,1.641,0,0,0,2.7.434,1.641,1.641,0,0,0,.541.376,1.573,1.573,0,0,0,.646,2.832Z" transform="translate(52.72 135.267)" fill="#ffd947"/>
        <path id="Trazado_873106" data-name="Trazado 873106" d="M.647,2.832A1.639,1.639,0,0,0,2.79,2.59,1.641,1.641,0,0,0,2.7.434,1.641,1.641,0,0,0,.541.376,1.573,1.573,0,0,0,.647,2.832Z" transform="translate(108.296 0)" fill="#7d6eb2"/>
        <path id="Trazado_873109" data-name="Trazado 873109" d="M2.129,6.609a3.577,3.577,0,0,0,4.43-1.75A3.579,3.579,0,0,0,5.014.353,3.578,3.578,0,0,0,.442,1.692,3.468,3.468,0,0,0,2.129,6.609Z" transform="translate(89.699 129.99)" fill="#26aab7"/>
        <path id="Trazado_873110" data-name="Trazado 873110" d="M2.13,6.609a3.577,3.577,0,0,0,4.43-1.75A3.578,3.578,0,0,0,5.014.354,3.577,3.577,0,0,0,.443,1.691,3.468,3.468,0,0,0,2.13,6.609Z" transform="translate(65.295 145.152)" fill="#7d6eb2"/>
        <path id="Trazado_873111" data-name="Trazado 873111" d="M2.13,6.609a3.576,3.576,0,0,0,4.43-1.75A3.577,3.577,0,0,0,5.014.354,3.576,3.576,0,0,0,.443,1.691,3.468,3.468,0,0,0,2.13,6.609Z" transform="translate(0 40.87)" fill="#7d6eb2"/>
        <path id="Trazado_873113" data-name="Trazado 873113" d="M2.129,6.609a3.578,3.578,0,0,0,4.43-1.75A3.579,3.579,0,0,0,5.015.353,3.578,3.578,0,0,0,.442,1.692,3.468,3.468,0,0,0,2.129,6.609Z" transform="translate(101.449 8.605)" fill="#ffd947"/>
        <circle id="Elipse_11485" data-name="Elipse 11485" cx="1.689" cy="1.689" r="1.689" transform="translate(7.75 136.702)" fill="none" stroke="#26aab7" stroke-linecap="round" stroke-linejoin="round" stroke-width="1.5"/>
      </g>
    </g>
    <g id="mercadeo-en-linea" transform="translate(896.488 17682.436)">
      <g id="Grupo_1101745" data-name="Grupo 1101745" transform="translate(48.138 94.632)">
        <g id="Grupo_1101744" data-name="Grupo 1101744">
          <path id="Trazado_879947" data-name="Trazado 879947" d="M26.77,52.335H46.2v19.44H26.77Z" transform="translate(-26.77 -52.335)" fill="#51504f"/>
        </g>
      </g>
      <g id="Grupo_1101747" data-name="Grupo 1101747" transform="translate(48.139 94.633)">
        <g id="Grupo_1101746" data-name="Grupo 1101746">
          <path id="Trazado_879948" data-name="Trazado 879948" d="M46.2,63.93V52.335H26.77v4.771Z" transform="translate(-26.77 -52.335)" fill="#3a3a3a"/>
        </g>
      </g>
      <g id="Grupo_1101749" data-name="Grupo 1101749" transform="translate(11.121 20.23)">
        <g id="Grupo_1101748" data-name="Grupo 1101748">
          <path id="Trazado_879949" data-name="Trazado 879949" d="M108.019,17.534V83.055a5.368,5.368,0,0,1-5.365,5.364H12.161a5.4,5.4,0,0,1-5.4-5.364V17.534a5.412,5.412,0,0,1,5.4-5.42h90.494a5.38,5.38,0,0,1,5.365,5.42Z" transform="translate(-6.759 -12.114)" fill="#3a3a3a"/>
        </g>
      </g>
      <g id="Grupo_1101751" data-name="Grupo 1101751" transform="translate(4.813 20.23)">
        <g id="Grupo_1101750" data-name="Grupo 1101750" transform="translate(0)">
          <path id="Trazado_879950" data-name="Trazado 879950" d="M104.591,17.534V83.055a5.352,5.352,0,0,1-5.346,5.364H8.751a5.4,5.4,0,0,1-5.4-5.364V17.534a5.412,5.412,0,0,1,5.4-5.42H99.245a5.365,5.365,0,0,1,5.346,5.42Z" transform="translate(-3.349 -12.114)" fill="#51504f"/>
        </g>
      </g>
      <g id="Grupo_1101753" data-name="Grupo 1101753" transform="translate(9.425 24.856)">
        <g id="Grupo_1101752" data-name="Grupo 1101752">
          <path id="Trazado_879951" data-name="Trazado 879951" d="M6.627,81.675a.784.784,0,0,1-.785-.74V15.4a.8.8,0,0,1,.785-.785H97.122a.755.755,0,0,1,.74.785V80.935a.74.74,0,0,1-.74.74Z" transform="translate(-5.842 -14.615)" fill="#fff"/>
        </g>
      </g>
      <g id="Grupo_1101755" data-name="Grupo 1101755" transform="translate(31.965 111.38)">
        <g id="Grupo_1101754" data-name="Grupo 1101754">
          <path id="Trazado_879952" data-name="Trazado 879952" d="M65.664,68.606a.875.875,0,0,0,.447-1.625c-5.484-3.4-14.11-5.592-23.829-5.592s-18.346,2.194-23.829,5.592a.875.875,0,0,0,.447,1.625Z" transform="translate(-18.027 -61.388)" fill="#3a3a3a"/>
        </g>
      </g>
      <g id="Grupo_1101764" data-name="Grupo 1101764" transform="translate(93.739 10.41)">
        <g id="Grupo_1101763" data-name="Grupo 1101763">
          <g id="Grupo_1101762" data-name="Grupo 1101762">
            <g id="Grupo_1101757" data-name="Grupo 1101757" transform="translate(2.424)">
              <g id="Grupo_1101756" data-name="Grupo 1101756">
                <path id="Trazado_879953" data-name="Trazado 879953" d="M53.071,25.661A2.882,2.882,0,0,0,55.4,28.2c.547.117,1.075.216,1.622.294V30.86a1.171,1.171,0,0,0,1.994.84l2.365-2.306a1.19,1.19,0,0,1,.879-.313,50.206,50.206,0,0,0,12.86-.958,2.743,2.743,0,0,0,2.189-2.266,48.953,48.953,0,0,0,.02-15.928,2.827,2.827,0,0,0-2.287-2.307A60.111,60.111,0,0,0,55.416,7.6a2.823,2.823,0,0,0-2.365,2.521A91.647,91.647,0,0,0,53.071,25.661Z" transform="translate(-52.731 -6.806)" fill="#3d5e2a"/>
              </g>
            </g>
            <g id="Grupo_1101759" data-name="Grupo 1101759" transform="translate(0 0.231)">
              <g id="Grupo_1101758" data-name="Grupo 1101758">
                <path id="Trazado_879954" data-name="Trazado 879954" d="M51.761,25.785a2.882,2.882,0,0,0,2.326,2.54c.547.117,1.075.216,1.622.294v2.365a1.171,1.171,0,0,0,1.994.84l2.365-2.306a1.19,1.19,0,0,1,.879-.313,50.206,50.206,0,0,0,12.86-.958A2.743,2.743,0,0,0,76,25.981a48.953,48.953,0,0,0,.02-15.928,2.827,2.827,0,0,0-2.287-2.307,60.111,60.111,0,0,0-19.622-.02,2.823,2.823,0,0,0-2.365,2.521A91.648,91.648,0,0,0,51.761,25.785Z" transform="translate(-51.421 -6.93)" fill="#aec46e"/>
              </g>
            </g>
            <g id="Grupo_1101761" data-name="Grupo 1101761" transform="translate(0.007 11.406)">
              <g id="Grupo_1101760" data-name="Grupo 1101760">
                <path id="Trazado_879955" data-name="Trazado 879955" d="M51.425,12.971c0,2.54.1,5.081.333,7.68a2.882,2.882,0,0,0,2.326,2.54c.547.117,1.075.216,1.622.294v2.365a1.171,1.171,0,0,0,1.994.84l2.365-2.306a1.19,1.19,0,0,1,.879-.313,50.206,50.206,0,0,0,12.86-.958,2.743,2.743,0,0,0,2.189-2.266c.136-.88.273-1.759.352-2.62a22.278,22.278,0,0,1-9.107,1.857C60.3,20.085,54.278,17.192,51.425,12.971Z" transform="translate(-51.425 -12.971)" fill="#617f4d"/>
              </g>
            </g>
          </g>
        </g>
      </g>
      <g id="Grupo_1101766" data-name="Grupo 1101766" transform="translate(98.774 13.287)">
        <g id="Grupo_1101765" data-name="Grupo 1101765">
          <path id="Trazado_879956" data-name="Trazado 879956" d="M68.815,22.445a2.969,2.969,0,1,1-5.939,0,2.8,2.8,0,0,1,.27-1.206q-1.024-.5-2-1.048c-.683-.365-1.35-.73-2-1.127a2.9,2.9,0,0,1-2.032.809,2.977,2.977,0,0,1,0-5.954,2.891,2.891,0,0,1,2,.778c1.3-.794,2.62-1.556,3.985-2.255a2.833,2.833,0,0,1-.223-1.112,2.969,2.969,0,1,1,2.969,2.985,2.881,2.881,0,0,1-2.366-1.191c-1.159.985-2.35,1.906-3.573,2.779a2.854,2.854,0,0,1,.175.985,2.47,2.47,0,0,1-.159.906c.635.444,1.27.889,1.889,1.349.6.445,1.207.889,1.794,1.366a2.886,2.886,0,0,1,2.239-1.033A2.965,2.965,0,0,1,68.815,22.445Z" transform="translate(-54.143 -8.361)" fill="#fff"/>
        </g>
      </g>
      <g id="Grupo_1101768" data-name="Grupo 1101768" transform="translate(18.983 2.564)">
        <g id="Grupo_1101767" data-name="Grupo 1101767">
          <path id="Trazado_879957" data-name="Trazado 879957" d="M83.911,10.61V75.04a8.037,8.037,0,0,1-8.047,8.029H19.056a8.037,8.037,0,0,1-8.047-8.029V10.61a8.052,8.052,0,0,1,8.047-8.046H75.865a8.052,8.052,0,0,1,8.047,8.046Z" transform="translate(-11.009 -2.564)" fill="#d1dafe"/>
        </g>
      </g>
      <g id="Grupo_1101770" data-name="Grupo 1101770" transform="translate(24.535 69.664)">
        <g id="Grupo_1101769" data-name="Grupo 1101769">
          <path id="Trazado_879958" data-name="Trazado 879958" d="M14.011,40.04c10.3-.946,20.6-1.163,30.9-1.2,10.3.034,20.6.25,30.9,1.2-10.3.951-20.6,1.168-30.9,1.2C34.61,41.2,24.31,40.985,14.011,40.04Z" transform="translate(-14.011 -38.837)" fill="#8a9bea"/>
        </g>
      </g>
      <g id="Grupo_1101772" data-name="Grupo 1101772" transform="translate(24.535 76.326)">
        <g id="Grupo_1101771" data-name="Grupo 1101771">
          <path id="Trazado_879959" data-name="Trazado 879959" d="M75.809,43.64c-10.3.946-20.6,1.162-30.9,1.2-10.3-.033-20.6-.25-30.9-1.2,10.3-.951,20.6-1.168,30.9-1.2C55.209,42.478,65.509,42.695,75.809,43.64Z" transform="translate(-14.011 -42.439)" fill="#8a9bea"/>
        </g>
      </g>
      <g id="Grupo_1101774" data-name="Grupo 1101774" transform="translate(24.533 44.666)">
        <g id="Grupo_1101773" data-name="Grupo 1101773" transform="translate(0 0)">
          <path id="Trazado_879960" data-name="Trazado 879960" d="M75.812,26.951V44.8a1.634,1.634,0,0,1-1.646,1.628H15.656A1.634,1.634,0,0,1,14.009,44.8V26.951a1.634,1.634,0,0,1,1.647-1.628h58.51A1.634,1.634,0,0,1,75.812,26.951Z" transform="translate(-14.009 -25.324)" fill="#8a9bea"/>
        </g>
      </g>
      <g id="Grupo_1101776" data-name="Grupo 1101776" transform="translate(24.533 21.913)">
        <g id="Grupo_1101775" data-name="Grupo 1101775">
          <path id="Trazado_879961" data-name="Trazado 879961" d="M75.812,14.67v14.3A1.634,1.634,0,0,1,74.166,30.6H15.656a1.634,1.634,0,0,1-1.647-1.628V14.67a1.65,1.65,0,0,1,1.647-1.646h58.51A1.65,1.65,0,0,1,75.812,14.67Z" transform="translate(-14.009 -13.024)" fill="#8a9bea"/>
        </g>
      </g>
      <g id="Grupo_1101778" data-name="Grupo 1101778" transform="translate(18.983 2.564)">
        <g id="Grupo_1101777" data-name="Grupo 1101777">
          <path id="Trazado_879962" data-name="Trazado 879962" d="M83.911,10.61V16.6h-72.9V10.61a8.052,8.052,0,0,1,8.047-8.046H75.865A8.052,8.052,0,0,1,83.911,10.61Z" transform="translate(-11.009 -2.564)" fill="#4269c4"/>
        </g>
      </g>
      <g id="Grupo_1101785" data-name="Grupo 1101785" transform="translate(24.919 7.827)">
        <g id="Grupo_1101780" data-name="Grupo 1101780">
          <g id="Grupo_1101779" data-name="Grupo 1101779">
            <circle id="Elipse_11979" data-name="Elipse 11979" cx="2.159" cy="2.159" r="2.159" fill="#255299"/>
          </g>
        </g>
        <g id="Grupo_1101782" data-name="Grupo 1101782" transform="translate(6.628)">
          <g id="Grupo_1101781" data-name="Grupo 1101781">
            <circle id="Elipse_11980" data-name="Elipse 11980" cx="2.159" cy="2.159" r="2.159" fill="#255299"/>
          </g>
        </g>
        <g id="Grupo_1101784" data-name="Grupo 1101784" transform="translate(13.258)">
          <g id="Grupo_1101783" data-name="Grupo 1101783">
            <circle id="Elipse_11981" data-name="Elipse 11981" cx="2.159" cy="2.159" r="2.159" fill="#255299"/>
          </g>
        </g>
      </g>
      <g id="Grupo_1101792" data-name="Grupo 1101792" transform="translate(24.34 8.367)">
        <g id="Grupo_1101787" data-name="Grupo 1101787">
          <g id="Grupo_1101786" data-name="Grupo 1101786">
            <circle id="Elipse_11982" data-name="Elipse 11982" cx="2.159" cy="2.159" r="2.159" fill="#fff"/>
          </g>
        </g>
        <g id="Grupo_1101789" data-name="Grupo 1101789" transform="translate(6.63)">
          <g id="Grupo_1101788" data-name="Grupo 1101788">
            <circle id="Elipse_11983" data-name="Elipse 11983" cx="2.159" cy="2.159" r="2.159" fill="#fff"/>
          </g>
        </g>
        <g id="Grupo_1101791" data-name="Grupo 1101791" transform="translate(13.258)">
          <g id="Grupo_1101790" data-name="Grupo 1101790">
            <circle id="Elipse_11984" data-name="Elipse 11984" cx="2.159" cy="2.159" r="2.159" fill="#fff"/>
          </g>
        </g>
      </g>
      <g id="Grupo_1101794" data-name="Grupo 1101794" transform="translate(55.435 9.37)">
        <g id="Grupo_1101793" data-name="Grupo 1101793">
          <path id="Trazado_879963" data-name="Trazado 879963" d="M58.855,7.63A46.193,46.193,0,0,1,51.82,8.708c-2.345.221-4.69.28-7.035.308-2.345-.024-4.69-.083-7.035-.3A45.76,45.76,0,0,1,30.714,7.63a45.761,45.761,0,0,1,7.035-1.083c2.345-.22,4.69-.279,7.035-.3,2.345.027,4.69.087,7.035.308A46.193,46.193,0,0,1,58.855,7.63Z" transform="translate(-30.714 -6.243)" fill="#255299"/>
        </g>
      </g>
      <g id="Grupo_1101796" data-name="Grupo 1101796" transform="translate(24.533 51.925)">
        <g id="Grupo_1101795" data-name="Grupo 1101795" transform="translate(0 0)">
          <path id="Trazado_879964" data-name="Trazado 879964" d="M75.812,34.753v6.716A1.634,1.634,0,0,1,74.166,43.1H15.656a1.634,1.634,0,0,1-1.647-1.628V32.4a3.766,3.766,0,0,0,.388-.2c1.591-.832,3.33-1.7,5.124-1.461,2.146.277,3.737,2.109,5.716,3.016,3.145,1.461,6.863.5,10.026-.907,3.163-1.387,6.253-3.237,9.712-3.552,7.788-.7,14.373,6.511,22.2,6.752a33.842,33.842,0,0,0,7.418-1.073Z" transform="translate(-14.009 -29.248)" fill="#4269c4"/>
        </g>
      </g>
      <g id="Grupo_1101798" data-name="Grupo 1101798" transform="translate(24.533 26.934)">
        <g id="Grupo_1101797" data-name="Grupo 1101797">
          <path id="Trazado_879965" data-name="Trazado 879965" d="M75.812,19.856v6.808a1.634,1.634,0,0,1-1.646,1.628H15.656a1.634,1.634,0,0,1-1.647-1.628V18.783c2.109-1.406,4.754-2.682,7.288-2.072,1.776.425,3.182,1.721,4.81,2.535,3.552,1.776,7.843,1.11,11.617-.111s7.455-2.978,11.413-3.329c8.4-.741,16.371,4.957,24.769,4.236C74.536,19.985,75.183,19.911,75.812,19.856Z" transform="translate(-14.009 -15.738)" fill="#4269c4"/>
        </g>
      </g>
      <g id="Grupo_1101810" data-name="Grupo 1101810" transform="translate(1.626 78.17)">
        <g id="Grupo_1101805" data-name="Grupo 1101805">
          <g id="Grupo_1101800" data-name="Grupo 1101800">
            <g id="Grupo_1101799" data-name="Grupo 1101799">
              <path id="Trazado_879966" data-name="Trazado 879966" d="M31.858,65.457l.692,2.4a1.854,1.854,0,0,1-2.5,2.222l-2.478-1.042a1.879,1.879,0,0,0-1.556.062,18.517,18.517,0,0,1-8.105,1.827c-9,0-16.285-6.153-16.285-13.746S8.915,43.436,17.911,43.436s16.274,6.153,16.274,13.746a12.053,12.053,0,0,1-2.057,6.689A1.914,1.914,0,0,0,31.858,65.457Z" transform="translate(-1.626 -43.436)" fill="#e0860e"/>
            </g>
          </g>
          <g id="Grupo_1101802" data-name="Grupo 1101802" transform="translate(2.267)">
            <g id="Grupo_1101801" data-name="Grupo 1101801">
              <path id="Trazado_879967" data-name="Trazado 879967" d="M33.084,65.457l.692,2.4a1.854,1.854,0,0,1-2.5,2.222L28.8,69.039a1.879,1.879,0,0,0-1.556.062,18.517,18.517,0,0,1-8.105,1.827c-9,0-16.285-6.153-16.285-13.746s7.288-13.746,16.285-13.746S35.41,49.589,35.41,57.182a12.053,12.053,0,0,1-2.057,6.689A1.914,1.914,0,0,0,33.084,65.457Z" transform="translate(-2.852 -43.436)" fill="#fbad3e"/>
            </g>
          </g>
          <g id="Grupo_1101804" data-name="Grupo 1101804" transform="translate(4.829 11.547)">
            <g id="Grupo_1101803" data-name="Grupo 1101803">
              <path id="Trazado_879968" data-name="Trazado 879968" d="M32.6,62.558A1.852,1.852,0,0,1,30.1,64.781l-2.48-1.041a1.814,1.814,0,0,0-1.556.058,18.55,18.55,0,0,1-8.108,1.825A17.127,17.127,0,0,1,4.237,59.271,27.659,27.659,0,0,0,14.3,61.084c10.038,0,18.356-4.961,19.724-11.407a11.383,11.383,0,0,1,.211,2.2,12.043,12.043,0,0,1-2.059,6.692,1.94,1.94,0,0,0-.269,1.579Z" transform="translate(-4.237 -49.678)" fill="#fa990e"/>
            </g>
          </g>
        </g>
        <g id="Grupo_1101807" data-name="Grupo 1101807" transform="translate(9.829 6.537)">
          <g id="Grupo_1101806" data-name="Grupo 1101806">
            <path id="Trazado_879969" data-name="Trazado 879969" d="M22.849,55.828l-6.161,6.161a1.46,1.46,0,0,1-2.065,0L8.462,55.828a5.189,5.189,0,0,1,7.194-7.479,5.241,5.241,0,0,1,6.819-.231,2.451,2.451,0,0,1,.374.374,2.335,2.335,0,0,1,.356.374A5.2,5.2,0,0,1,22.849,55.828Z" transform="translate(-6.94 -46.969)" fill="#b53016"/>
          </g>
        </g>
        <g id="Grupo_1101809" data-name="Grupo 1101809" transform="translate(11.299 10.243)">
          <g id="Grupo_1101808" data-name="Grupo 1101808">
            <path id="Trazado_879970" data-name="Trazado 879970" d="M22.177,54.136l-6.163,6.14a1.446,1.446,0,0,1-2.07,0l-6.163-6.14c-.023-.023-.047-.047-.047-.07a16.678,16.678,0,0,0,3.465.326c5.559,0,10.326-2.233,12.279-5.419A5.183,5.183,0,0,1,22.177,54.136Z" transform="translate(-7.734 -48.973)" fill="#912010"/>
          </g>
        </g>
      </g>
      <g id="Grupo_1101824" data-name="Grupo 1101824" transform="translate(77.935 74.204)">
        <g id="Grupo_1101823" data-name="Grupo 1101823">
          <g id="Grupo_1101822" data-name="Grupo 1101822">
            <g id="Grupo_1101821" data-name="Grupo 1101821">
              <g id="Grupo_1101812" data-name="Grupo 1101812" transform="translate(0 3.97)">
                <g id="Grupo_1101811" data-name="Grupo 1101811">
                  <circle id="Elipse_11985" data-name="Elipse 11985" cx="20.346" cy="20.346" r="20.346" fill="#b53016"/>
                </g>
              </g>
              <g id="Grupo_1101814" data-name="Grupo 1101814" transform="translate(4.902 8.873)">
                <g id="Grupo_1101813" data-name="Grupo 1101813">
                  <circle id="Elipse_11986" data-name="Elipse 11986" cx="15.444" cy="15.444" r="15.444" fill="#fff"/>
                </g>
              </g>
              <g id="Grupo_1101816" data-name="Grupo 1101816" transform="translate(9.806 13.776)">
                <g id="Grupo_1101815" data-name="Grupo 1101815">
                  <circle id="Elipse_11987" data-name="Elipse 11987" cx="10.54" cy="10.54" r="10.54" fill="#b53016"/>
                </g>
              </g>
              <g id="Grupo_1101818" data-name="Grupo 1101818" transform="translate(14.708 18.679)">
                <g id="Grupo_1101817" data-name="Grupo 1101817">
                  <circle id="Elipse_11988" data-name="Elipse 11988" cx="5.638" cy="5.638" r="5.638" fill="#fff"/>
                </g>
              </g>
              <g id="Grupo_1101820" data-name="Grupo 1101820" transform="translate(20.355)">
                <g id="Grupo_1101819" data-name="Grupo 1101819">
                  <path id="Trazado_879971" data-name="Trazado 879971" d="M71.353,46.195l1.625.769L70.054,48.1c-.118.181-.255.343-.373.525-1.494,2.117-3.113,4.118-4.769,6.1-1.673,1.943-3.382,3.867-5.218,5.692A55.148,55.148,0,0,1,53.881,65.6a54.835,54.835,0,0,1,4.156-6.588c1.493-2.1,3.113-4.1,4.751-6.1,1.691-1.942,3.4-3.866,5.236-5.691.1-.089.194-.2.29-.286a.432.432,0,0,1,.043-.147l1.515-3.158.456,1.189a.8.8,0,0,1,.088-.35l1.516-3.177.658,1.735c.4-.338.825-.674,1.246-.992-.281.546-.58,1.074-.9,1.6l2.1,1.01-3.283,1.268a.572.572,0,0,1-.244.046A2.46,2.46,0,0,1,71.353,46.195Z" transform="translate(-53.881 -41.292)" fill="#4269c4"/>
                </g>
              </g>
            </g>
          </g>
        </g>
      </g>
    </g>
  </g>
</svg>
