<svg xmlns="http://www.w3.org/2000/svg" width="78.501" height="74.271" viewBox="0 0 78.501 74.271">
  <g id="Grupo_1101899" data-name="Grupo 1101899" transform="translate(-244 -9153.363)">
    <path id="_12068" data-name="12068" d="M72.033,71.913c-8.038-1.11-16.53-.839-23.844,2.675C38.045,79.46,31.382,90.507,31.127,101.757s5.606,22.305,14.66,28.988,21,9.051,32.068,7.045c11.165-2.023,21.645-8.583,27.469-18.322,3.735-6.245,5.48-13.956,3.417-20.934a28.6,28.6,0,0,0-6.787-11.156A50.145,50.145,0,0,0,72.033,71.913Z" transform="translate(212.881 9089.152)" fill="#26aab7"/>
    <g id="trafico-web" transform="translate(235.719 9143.362)">
      <g id="Grupo_1100939" data-name="Grupo 1100939" transform="translate(10.902 10.906)">
        <g id="Grupo_1100935" data-name="Grupo 1100935" transform="translate(0 0)">
          <g id="Grupo_1100934" data-name="Grupo 1100934">
            <path id="Trazado_878640" data-name="Trazado 878640" d="M20.529,16h63.4a4.537,4.537,0,0,1,4.529,4.529V69.761A4.538,4.538,0,0,1,83.93,74.29h-63.4A4.537,4.537,0,0,1,16,69.761V20.528A4.537,4.537,0,0,1,20.529,16Z" transform="translate(-16 -15.999)" fill="#f9f3f1" fill-rule="evenodd"/>
            <path id="Trazado_878641" data-name="Trazado 878641" d="M83.93,16h-63.4A4.537,4.537,0,0,0,16,20.528V29.15H88.459V20.528A4.537,4.537,0,0,0,83.93,16Z" transform="translate(-16 -15.999)" fill="#6bd9e7" fill-rule="evenodd"/>
            <circle id="Elipse_11912" data-name="Elipse 11912" cx="1.978" cy="1.978" r="1.978" transform="translate(5.213 4.598)" fill="#f79595"/>
            <circle id="Elipse_11913" data-name="Elipse 11913" cx="1.978" cy="1.978" r="1.978" transform="translate(13.916 4.598)" fill="#fad97f"/>
            <path id="Trazado_878642" data-name="Trazado 878642" d="M167.814,50.411a1.978,1.978,0,1,0-1.978-1.978A1.982,1.982,0,0,0,167.814,50.411Z" transform="translate(-143.217 -41.857)" fill="#d6f6b2" fill-rule="evenodd"/>
            <path id="Trazado_878643" data-name="Trazado 878643" d="M321.939,50.411a1.978,1.978,0,1,1,0-3.956h17.405a1.978,1.978,0,0,1,0,3.956Z" transform="translate(-274.076 -41.857)" fill="#f9f3f1" fill-rule="evenodd"/>
          </g>
        </g>
        <g id="Grupo_1100938" data-name="Grupo 1100938" transform="translate(10.479 16.887)">
          <g id="Grupo_1100936" data-name="Grupo 1100936" transform="translate(0 11.59)">
            <path id="Trazado_878644" data-name="Trazado 878644" d="M368.006,248.907h6.052a1.512,1.512,0,0,1,1.51,1.51v35.791H366.5V250.417A1.512,1.512,0,0,1,368.006,248.907Z" transform="translate(-324.066 -242.225)" fill="#26aab7" fill-rule="evenodd"/>
            <path id="Trazado_878645" data-name="Trazado 878645" d="M86.926,361.183h6.051a1.512,1.512,0,0,1,1.51,1.51v18.842h-9.07V362.693a1.512,1.512,0,0,1,1.509-1.51Z" transform="translate(-85.417 -337.552)" fill="#7d6eb2" fill-rule="evenodd"/>
            <path id="Trazado_878646" data-name="Trazado 878646" d="M180.62,289.006h6.051a1.512,1.512,0,0,1,1.51,1.51v29.737H179.11V290.516A1.512,1.512,0,0,1,180.62,289.006Z" transform="translate(-164.966 -276.271)" fill="#ffd947" fill-rule="evenodd"/>
            <path id="Trazado_878647" data-name="Trazado 878647" d="M274.313,329.1h6.051a1.512,1.512,0,0,1,1.51,1.51V354.3H272.8V330.614A1.512,1.512,0,0,1,274.313,329.1Z" transform="translate(-244.516 -310.316)" fill="#59836b" fill-rule="evenodd"/>
            <path id="Trazado_878648" data-name="Trazado 878648" d="M99.514,268.613a2.835,2.835,0,1,1-2.835,2.835A2.835,2.835,0,0,1,99.514,268.613Z" transform="translate(-94.979 -258.956)" fill="#7d6eb2" fill-rule="evenodd"/>
            <path id="Trazado_878649" data-name="Trazado 878649" d="M193.207,204.644a2.835,2.835,0,1,1-2.835,2.835A2.835,2.835,0,0,1,193.207,204.644Z" transform="translate(-174.528 -204.644)" fill="#ffd947" fill-rule="evenodd"/>
            <path id="Trazado_878650" data-name="Trazado 878650" d="M286.9,240.182a2.835,2.835,0,1,1-2.835,2.835A2.835,2.835,0,0,1,286.9,240.182Z" transform="translate(-254.078 -234.817)" fill="#59836b" fill-rule="evenodd"/>
          </g>
          <g id="Grupo_1100937" data-name="Grupo 1100937" transform="translate(18.035)">
            <path id="Trazado_878651" data-name="Trazado 878651" d="M220.2,132.846a9,9,0,0,1-15.189,0,.74.74,0,0,1,0-.812,9,9,0,0,1,15.189,0A.741.741,0,0,1,220.2,132.846Z" transform="translate(-204.888 -127.868)" fill="#aee6e6" fill-rule="evenodd"/>
            <path id="Trazado_878652" data-name="Trazado 878652" d="M238.044,143.393a3.192,3.192,0,1,0-3.193-3.192A3.2,3.2,0,0,0,238.044,143.393Z" transform="translate(-230.328 -135.628)" fill="#7d6eb2" fill-rule="evenodd"/>
            <path id="Trazado_878653" data-name="Trazado 878653" d="M251.558,154.5a.79.79,0,1,0-.79-.79A.791.791,0,0,0,251.558,154.5Z" transform="translate(-243.842 -149.143)" fill="#fff" fill-rule="evenodd"/>
          </g>
        </g>
      </g>
      <path id="Trazado_878654" data-name="Trazado 878654" d="M44.685,29.082a4.1,4.1,0,0,0,0,6.569,8.166,8.166,0,0,1-4.332-3.285A8.167,8.167,0,0,1,44.685,29.082Zm9.224,3.285a8.13,8.13,0,0,1-4.325,3.285,4.1,4.1,0,0,0,0-6.569A8.124,8.124,0,0,1,53.91,32.366Zm-6.774-2.287a2.287,2.287,0,1,1-2.287,2.287A2.291,2.291,0,0,1,47.135,30.079Zm0,7.765a9.937,9.937,0,0,0,8.628-5.033.908.908,0,0,0,0-.892,9.913,9.913,0,0,0-17.256,0,.91.91,0,0,0,0,.894A9.939,9.939,0,0,0,47.135,37.844Zm7.073,11.668a1.929,1.929,0,1,1,1.924-1.929A1.932,1.932,0,0,1,54.208,49.512ZM40.063,44.148a1.93,1.93,0,1,1,1.931-1.929A1.933,1.933,0,0,1,40.063,44.148ZM25.917,53.805a1.93,1.93,0,1,1,1.931-1.931A1.932,1.932,0,0,1,25.917,53.805ZM68.482,35.958,65.407,35.5a.906.906,0,0,0-.27,1.792l.951.142-9.537,7.238a3.739,3.739,0,0,0-5.418.78l-7.357-2.791a3.02,3.02,0,0,0,.028-.439,3.742,3.742,0,1,0-7.25,1.3L28.4,49.082a3.739,3.739,0,1,0,1.257,2.793,3.593,3.593,0,0,0-.234-1.3l8.152-5.564a3.731,3.731,0,0,0,5.553-.66l7.364,2.791a3.02,3.02,0,0,0-.028.439,3.739,3.739,0,1,0,7.179-1.472l9.48-7.192-.135.879a.908.908,0,0,0,1.8.269l.462-3.08a.91.91,0,0,0-.767-1.03ZM58.767,16.41H76.172a1.072,1.072,0,1,1,0,2.143H58.767a1.072,1.072,0,1,1,0-2.143Zm0,3.955H76.172a2.883,2.883,0,0,0,0-5.767H58.767a2.883,2.883,0,0,0,0,5.767ZM35.5,16.41a1.072,1.072,0,1,1-1.072,1.072A1.074,1.074,0,0,1,35.5,16.41Zm0,3.955a2.883,2.883,0,1,0-2.883-2.883A2.886,2.886,0,0,0,35.5,20.365ZM26.8,16.41a1.072,1.072,0,1,1-1.072,1.072A1.074,1.074,0,0,1,26.8,16.41Zm0,3.955a2.883,2.883,0,1,0-2.883-2.883A2.886,2.886,0,0,0,26.8,20.365ZM18.1,16.41a1.072,1.072,0,1,1-1.072,1.072A1.074,1.074,0,0,1,18.1,16.41Zm0,3.955a2.883,2.883,0,1,0-2.883-2.883A2.886,2.886,0,0,0,18.1,20.365ZM78.835,68.291a3.627,3.627,0,0,0,3.622-3.623v-39.7H11.807v39.7a3.628,3.628,0,0,0,3.629,3.623h5.042V64.523a2.42,2.42,0,0,1,2.414-2.415h6.05a2.421,2.421,0,0,1,2.421,2.415v3.768h3.259V53.629a2.414,2.414,0,0,1,2.414-2.415h6.05A2.414,2.414,0,0,1,45.5,53.629V68.291h3.267V59.68a2.415,2.415,0,0,1,2.414-2.415h6.05a2.42,2.42,0,0,1,2.414,2.415v8.611h3.259V47.575a2.42,2.42,0,0,1,2.414-2.415h6.057a2.42,2.42,0,0,1,2.414,2.415V68.291ZM64.718,82.46V47.575a.6.6,0,0,1,.6-.6h6.057a.608.608,0,0,1,.6.6V82.46Zm-35.172,0H22.288V64.523a.6.6,0,0,1,.6-.6h6.05a.6.6,0,0,1,.6.6V82.46Zm14.146,0H36.434V53.629a.6.6,0,0,1,.6-.6h6.05a.6.6,0,0,1,.6.6V82.46Zm14.146,0H50.579V59.68a.6.6,0,0,1,.6-.6h6.05a.6.6,0,0,1,.6.6V82.46ZM59.648,70.1h3.259V82.46H59.648ZM45.5,70.1h3.267V82.46H45.5Zm-14.139,0h3.259V82.46H31.364ZM15.436,11.812a3.629,3.629,0,0,0-3.629,3.623v7.717h70.65V15.435a3.628,3.628,0,0,0-3.622-3.623ZM78.835,10h-63.4A5.445,5.445,0,0,0,10,15.435V64.668a5.444,5.444,0,0,0,5.44,5.434h5.042V82.46H15.1a.906.906,0,1,0,0,1.811H79.169a.906.906,0,1,0,0-1.811H73.793V70.1h5.042a5.438,5.438,0,0,0,5.432-5.434V15.435A5.439,5.439,0,0,0,78.835,10Z" fill="#00223d" fill-rule="evenodd"/>
    </g>
  </g>
</svg>
