<?xml version="1.0" encoding="utf-8"?>
<!-- Generator: Adobe Illustrator 25.3.1, SVG Export Plug-In . SVG Version: 6.00 Build 0)  -->
<svg version="1.1" id="Layer_1" xmlns="http://www.w3.org/2000/svg" xmlns:xlink="http://www.w3.org/1999/xlink" x="0px" y="0px"
	 viewBox="0 0 352 252.4" style="enable-background:new 0 0 352 252.4;" xml:space="preserve">
<style type="text/css">
	.st0{enable-background:new    ;}
	.st1{fill:#12263F;}
	.st2{fill:#EBEBEB;}
	.st3{fill:#E0E0E0;}
	.st4{opacity:0.1;}
	.st5{fill:#7D6EB2;}
	.st6{opacity:0.5;fill:#7D7D7D;enable-background:new    ;}
	.st7{opacity:0.6;fill:#7D7D7D;enable-background:new    ;}
	.st8{fill:#E4AF6C;}
	.st9{opacity:0.45;enable-background:new    ;}
	.st10{opacity:0.25;enable-background:new    ;}
	.st11{opacity:0.2;enable-background:new    ;}
	.st12{fill:#E6E6E6;}
	.st13{opacity:0.4;fill:#F5CA56;enable-background:new    ;}
	.st14{opacity:0.3;enable-background:new    ;}
</style>
<g id="Grupo_55808" transform="translate(11102 5595.771)">
	<g class="st0">
		<path class="st1" d="M-10952.7-5558v-14.2h4.4c1.2,0,2.4,0.3,3.4,0.8s1.8,1.4,2.3,2.4s0.8,2.2,0.8,3.5v0.7c0,1.3-0.3,2.5-0.8,3.5
			s-1.3,1.8-2.3,2.4s-2.1,0.9-3.3,0.9H-10952.7z M-10949.8-5569.8v9.5h1.4c1.1,0,2-0.4,2.6-1.1s0.9-1.8,0.9-3.2v-0.8
			c0-1.4-0.3-2.5-0.9-3.3s-1.5-1.1-2.6-1.1H-10949.8z"/>
		<path class="st1" d="M-10935.1-5557.8c-1.5,0-2.8-0.5-3.8-1.4s-1.5-2.2-1.5-3.8v-0.3c0-1.1,0.2-2,0.6-2.8s1-1.5,1.7-1.9
			s1.6-0.7,2.6-0.7c1.4,0,2.6,0.5,3.4,1.4s1.2,2.2,1.2,3.9v1.2h-6.7c0.1,0.7,0.4,1.2,0.8,1.7s1,0.6,1.7,0.6c1.1,0,1.9-0.4,2.5-1.2
			l1.4,1.6c-0.4,0.6-1,1.1-1.7,1.4S-10934.2-5557.8-10935.1-5557.8z M-10935.4-5566.5c-0.6,0-1,0.2-1.4,0.6
			c-0.3,0.4-0.6,0.9-0.7,1.6h3.9v-0.2c0-0.6-0.2-1.1-0.5-1.5C-10934.3-5566.3-10934.8-5566.5-10935.4-5566.5z"/>
		<path class="st1" d="M-10923.4-5560.9c0-0.3-0.2-0.6-0.5-0.8s-0.9-0.4-1.6-0.5c-2.5-0.5-3.8-1.6-3.8-3.2c0-0.9,0.4-1.7,1.2-2.3
			s1.8-0.9,3.1-0.9c1.3,0,2.4,0.3,3.2,0.9s1.2,1.5,1.2,2.5h-2.8c0-0.4-0.1-0.7-0.4-1s-0.7-0.4-1.2-0.4c-0.5,0-0.8,0.1-1.1,0.3
			s-0.4,0.5-0.4,0.8c0,0.3,0.1,0.6,0.4,0.8s0.8,0.4,1.5,0.5s1.3,0.3,1.8,0.5c1.5,0.5,2.2,1.5,2.2,2.8c0,1-0.4,1.7-1.2,2.3
			s-1.9,0.9-3.2,0.9c-0.9,0-1.7-0.2-2.4-0.5s-1.2-0.7-1.6-1.3s-0.6-1.1-0.6-1.8h2.7c0,0.5,0.2,0.9,0.6,1.2s0.8,0.4,1.4,0.4
			c0.5,0,0.9-0.1,1.2-0.3S-10923.4-5560.6-10923.4-5560.9z"/>
		<path class="st1" d="M-10914-5557.8c-1.5,0-2.8-0.5-3.8-1.4s-1.5-2.2-1.5-3.8v-0.3c0-1.1,0.2-2,0.6-2.8s1-1.5,1.7-1.9
			s1.6-0.7,2.6-0.7c1.4,0,2.6,0.5,3.4,1.4s1.2,2.2,1.2,3.9v1.2h-6.7c0.1,0.7,0.4,1.2,0.8,1.7s1,0.6,1.7,0.6c1.1,0,1.9-0.4,2.5-1.2
			l1.4,1.6c-0.4,0.6-1,1.1-1.7,1.4S-10913.1-5557.8-10914-5557.8z M-10914.3-5566.5c-0.6,0-1,0.2-1.4,0.6c-0.3,0.4-0.6,0.9-0.7,1.6
			h3.9v-0.2c0-0.6-0.2-1.1-0.5-1.5C-10913.2-5566.3-10913.7-5566.5-10914.3-5566.5z"/>
		<path class="st1" d="M-10908.5-5563.4c0-1,0.2-2,0.6-2.8s1-1.5,1.7-1.9s1.6-0.7,2.6-0.7c1.4,0,2.6,0.4,3.5,1.3s1.4,2.1,1.5,3.6
			l0,0.7c0,1.6-0.5,2.9-1.4,3.9s-2.1,1.5-3.6,1.5s-2.7-0.5-3.6-1.5s-1.4-2.3-1.4-4V-5563.4z M-10905.6-5563.2c0,1,0.2,1.8,0.6,2.3
			s0.9,0.8,1.6,0.8c0.7,0,1.2-0.3,1.6-0.8c0.4-0.5,0.6-1.4,0.6-2.5c0-1-0.2-1.7-0.6-2.3s-0.9-0.8-1.6-0.8c-0.7,0-1.2,0.3-1.6,0.8
			S-10905.6-5564.3-10905.6-5563.2z"/>
	</g>
	<rect id="Rectángulo_30697" x="-11087.7" y="-5398.9" class="st2" width="337.7" height="0.2"/>
	<rect id="Rectángulo_30698" x="-10806.2" y="-5388.1" class="st2" width="22.4" height="0.2"/>
	<rect id="Rectángulo_30699" x="-10869.9" y="-5386.2" class="st2" width="5.9" height="0.2"/>
	<rect id="Rectángulo_30700" x="-10819.8" y="-5394.3" class="st2" width="13" height="0.2"/>
	<rect id="Rectángulo_30701" x="-11052.3" y="-5393.2" class="st2" width="29.2" height="0.2"/>
	<rect id="Rectángulo_30702" x="-11017.1" y="-5393.2" class="st2" width="4.3" height="0.2"/>
	<rect id="Rectángulo_30703" x="-10998.9" y="-5390.4" class="st2" width="63.3" height="0.2"/>
	<path id="Trazado_128932" class="st3" d="M-10972.9-5490.1h-11c-2.1-3.2-2.4-6.3,0-9.3h11
		C-10970.8-5496.6-10970.8-5492.9-10972.9-5490.1z"/>
	<path id="Trazado_128933" class="st3" d="M-10955.9-5490.1h-11c-2.1-3.2-2.4-6.3,0-9.3h11
		C-10953.9-5496.6-10953.9-5492.9-10955.9-5490.1z"/>
	<rect id="Rectángulo_30704" x="-10966.9" y="-5501" class="st3" width="10.8" height="1.6"/>
	<path id="Trazado_128934" class="st3" d="M-10955.6-5501h-11.7c-0.3-0.4-0.3-1,0-1.4h11.7
		C-10955.3-5502-10955.3-5501.4-10955.6-5501z"/>
	<path id="Trazado_128935" class="st3" d="M-10941.4-5490.5h-9.5c-2.8-3.8-2.8-7.9,0-12.3h9.5
		C-10938.5-5498.3-10938.6-5494.2-10941.4-5490.5z"/>
	<path id="Trazado_128936" class="st3" d="M-10950.3-5504.8h8.4c0.3,0,0.5,0.2,0.5,0.5v1.4h-9.5v-1.4
		C-10950.9-5504.5-10950.6-5504.8-10950.3-5504.8z"/>
	<path id="Trazado_128937" class="st3" d="M-10925.7-5489.6h-9.5c-2.8-3.8-2.8-7.9,0-12.3h9.5
		C-10922.8-5497.3-10922.9-5493.2-10925.7-5489.6z"/>
	<path id="Trazado_128938" class="st3" d="M-10934.6-5503.8h8.4c0.3,0,0.5,0.2,0.5,0.5v1.4h-9.5v-1.4
		C-10935.1-5503.6-10934.9-5503.8-10934.6-5503.8z"/>
	<path id="Trazado_128939" class="st3" d="M-10910.2-5489.6h-9.5c-2.8-3.8-2.8-7.9,0-12.3h9.5
		C-10907.3-5497.3-10907.4-5493.2-10910.2-5489.6z"/>
	<path id="Trazado_128940" class="st3" d="M-10919.1-5503.8h8.4c0.3,0,0.5,0.2,0.5,0.5v1.4h-9.5v-1.4
		C-10919.7-5503.6-10919.4-5503.8-10919.1-5503.8C-10919.1-5503.8-10919.1-5503.8-10919.1-5503.8z"/>
	<path id="Trazado_128941" class="st3" d="M-10888.1-5489.8h-15.7c-2.1-4.2-2.1-9.2,0-13.4h15.7
		C-10886-5499-10886-5494-10888.1-5489.8z"/>
	<g id="Grupo_55806" transform="translate(-11609 -10815)">
		<g id="Image_Place_Holder" transform="translate(507 5219.229)" class="st4">
			<path id="Image_Place_Holder-2" class="st5" d="M10,0h332c5.5,0,10,4.5,10,10v232.4c0,5.5-4.5,10-10,10H10c-5.5,0-10-4.5-10-10
				V10C0,4.5,4.5,0,10,0z"/>
		</g>
		<g id="freepik--Hamburger--inject-2" transform="translate(582.418 5309.677)">
			<path id="Trazado_126160" class="st1" d="M0,110.8l56.1,12.8c0,3.6,22.8,6.6,50.8,6.6s50.8-3,50.8-6.6l56.1-12.8H0z"/>
			<path id="Trazado_126161" class="st6" d="M0,107.8l56.1,12.8c0,3.6,22.8,6.6,50.8,6.6s50.8-3,50.8-6.6l56.1-12.8H0z"/>
			<ellipse id="Elipse_4249" class="st1" cx="106.9" cy="109.8" rx="106.9" ry="13.9"/>
			<ellipse id="Elipse_4250" class="st7" cx="106.9" cy="109.8" rx="106.9" ry="13.9"/>
			<path id="Trazado_126162" class="st8" d="M188.8,81.8c0-0.6-0.1-1.1-0.3-1.6c0.2-0.7,0.3-1.4,0.3-2.2v-0.4c1.7-2.1,1.5-5.1-0.4-7
				c0,0,0-0.1,0-0.1c0-1.5-0.6-2.9-1.6-3.9c0.2-0.4,0.2-0.7,0.2-1.1c0-1.7-1.5-3-3.6-3.5c-1.1-1.5-2.8-2.4-4.7-2.4
				c-0.2,0-0.5,0-0.7,0c-1.4-1.9-3.6-2.9-5.9-2.8c-0.7,0-1.3,0.1-1.9,0.2c-0.4-1.2-1.5-1.9-2.7-1.9c-0.5,0-1.1,0.2-1.5,0.5
				c-0.9-1.6-3.3-2.7-6.1-2.7c-1.2,0-2.4,0.2-3.5,0.6c-1.7-1.3-3.9-2-6-1.9c-1.9,0-3.8,0.5-5.4,1.5c-0.5-1.4-1.4-2.2-2.3-2.2
				s-1.7,0.8-2.2,2c-1-1.5-2.7-2.3-4.5-2.3c-0.8,0-1.7,0.2-2.4,0.5c-0.9-0.6-2-0.8-3.1-0.8c-1,0-1.9,0.2-2.8,0.7
				c-1-1.7-3.2-2.2-4.9-1.2c-0.5,0.3-0.9,0.7-1.2,1.2c-6-0.4-12.2-0.7-18.6-0.7c-15.2-0.1-30.3,1.3-45.3,4.2
				C57.1,54.1,56.6,54,56,54c-1.2-0.1-2.3,0.4-3,1.3l-0.4,0.1C52,55.2,51.3,55,50.7,55c-1.3-0.1-2.5,0.6-3.1,1.7h-0.1
				c-0.8-0.3-1.6-0.5-2.4-0.5c-2,0-3.7,0.9-3.7,2c0,0.1,0,0.2,0.1,0.3L41,58.7c-0.2-0.4-0.6-0.7-1-0.8c-0.4,0-0.7,0.2-0.9,0.6
				c-0.9,0-1.7,0.4-2.2,1.1h-0.6c-2.4,0-4.4,0.9-4.9,2.2c-0.3-0.1-0.7-0.1-1-0.1c-2.1,0-4,1.2-4.9,3.1c-0.2,0-0.3,0-0.5,0
				c-1.8,0-3.3,1.1-3.3,2.4l0,0c-2.4,0.2-4.4,1.7-4.7,3.6c-0.5,0.5-0.8,1.1-0.8,1.8c0,0.5,0.2,1,0.5,1.5c-1,0.8-1.6,2-1.6,3.2
				c0,1.4,0.6,2.6,1.8,3.4c0,0,0,0.1,0,0.1c0,0.9,0.6,1.8,1.4,2.3c0.1,0.2,0.2,0.3,0.3,0.5c-0.1,0.3-0.1,0.7-0.1,1
				c0,2.5,2.5,4.6,5.7,4.7l0.3,0.2c0.4,2,2.7,3.6,5.7,3.8c0.2,0.4,0.5,0.8,0.9,1.2c-0.3,0.3-0.5,0.7-0.5,1.2c0,1.8,3.2,3.2,7.2,3.2
				c1.1,0,2.2-0.1,3.2-0.3c1.6,1.2,3.6,1.9,5.6,1.8c0.5,0,1.1,0,1.6-0.1c0.9,0.7,2,1.1,3.2,1.1c0.6,0,1.1-0.1,1.7-0.2
				c0.7,0.1,1.3,0.2,2,0.2c15.7,3.2,31.8,4.8,47.8,4.7c23.9,0,45.5-3.2,61-8.2c0.5,0.1,1.1,0.2,1.7,0.2c1.9,0.1,3.8-0.6,5.2-1.9
				c0.7,0.1,1.4,0.2,2.1,0.2c3.5,0,6.4-1.2,7.6-2.8h0.5c2.8,0,5-1.8,5-4c0-0.8-0.3-1.7-0.9-2.3l0,0c0.4,0.7,1.1,1.2,1.9,1.2
				c1.4-0.1,2.5-1.4,2.4-2.8c0-0.8-0.3-1.5-0.8-2.1C188.7,82.7,188.8,82.3,188.8,81.8z"/>
			<path id="Trazado_126163" class="st9" d="M188.8,81.8c0-0.6-0.1-1.1-0.3-1.6c0.2-0.7,0.3-1.4,0.3-2.2v-0.4c1.7-2.1,1.5-5.1-0.4-7
				c0,0,0-0.1,0-0.1c0-1.5-0.6-2.9-1.6-3.9c0.2-0.4,0.2-0.7,0.2-1.1c0-1.7-1.5-3-3.6-3.5c-1.1-1.5-2.8-2.4-4.7-2.4
				c-0.2,0-0.5,0-0.7,0c-1.4-1.9-3.6-2.9-5.9-2.8c-0.7,0-1.3,0.1-1.9,0.2c-0.4-1.2-1.5-1.9-2.7-1.9c-0.5,0-1.1,0.2-1.5,0.5
				c-0.9-1.6-3.3-2.7-6.1-2.7c-1.2,0-2.4,0.2-3.5,0.6c-1.7-1.3-3.9-2-6-1.9c-1.9,0-3.8,0.5-5.4,1.5c-0.5-1.4-1.4-2.2-2.3-2.2
				s-1.7,0.8-2.2,2c-1-1.5-2.7-2.3-4.5-2.3c-0.8,0-1.7,0.2-2.4,0.5c-0.9-0.6-2-0.8-3.1-0.8c-1,0-1.9,0.2-2.8,0.7
				c-1-1.7-3.2-2.2-4.9-1.2c-0.5,0.3-0.9,0.7-1.2,1.2c-6-0.4-12.2-0.7-18.6-0.7c-15.2-0.1-30.3,1.3-45.3,4.2
				C57.1,54.1,56.6,54,56,54c-1.2-0.1-2.3,0.4-3,1.3l-0.4,0.1C52,55.2,51.3,55,50.7,55c-1.3-0.1-2.5,0.6-3.1,1.7h-0.1
				c-0.8-0.3-1.6-0.5-2.4-0.5c-2,0-3.7,0.9-3.7,2c0,0.1,0,0.2,0.1,0.3L41,58.7c-0.2-0.4-0.6-0.7-1-0.8c-0.4,0-0.7,0.2-0.9,0.6
				c-0.9,0-1.7,0.4-2.2,1.1h-0.6c-2.4,0-4.4,0.9-4.9,2.2c-0.3-0.1-0.7-0.1-1-0.1c-2.1,0-4,1.2-4.9,3.1c-0.2,0-0.3,0-0.5,0
				c-1.8,0-3.3,1.1-3.3,2.4l0,0c-2.4,0.2-4.4,1.7-4.7,3.6c-0.5,0.5-0.8,1.1-0.8,1.8c0,0.5,0.2,1,0.5,1.5c-1,0.8-1.6,2-1.6,3.2
				c0,1.4,0.6,2.6,1.8,3.4c0,0,0,0.1,0,0.1c0,0.9,0.6,1.8,1.4,2.3c0.1,0.2,0.2,0.3,0.3,0.5c-0.1,0.3-0.1,0.7-0.1,1
				c0,2.5,2.5,4.6,5.7,4.7l0.3,0.2c0.4,2,2.7,3.6,5.7,3.8c0.2,0.4,0.5,0.8,0.9,1.2c-0.3,0.3-0.5,0.7-0.5,1.2c0,1.8,3.2,3.2,7.2,3.2
				c1.1,0,2.2-0.1,3.2-0.3c1.6,1.2,3.6,1.9,5.6,1.8c0.5,0,1.1,0,1.6-0.1c0.9,0.7,2,1.1,3.2,1.1c0.6,0,1.1-0.1,1.7-0.2
				c0.7,0.1,1.3,0.2,2,0.2c15.7,3.2,31.8,4.8,47.8,4.7c23.9,0,45.5-3.2,61-8.2c0.5,0.1,1.1,0.2,1.7,0.2c1.9,0.1,3.8-0.6,5.2-1.9
				c0.7,0.1,1.4,0.2,2.1,0.2c3.5,0,6.4-1.2,7.6-2.8h0.5c2.8,0,5-1.8,5-4c0-0.8-0.3-1.7-0.9-2.3l0,0c0.4,0.7,1.1,1.2,1.9,1.2
				c1.4-0.1,2.5-1.4,2.4-2.8c0-0.8-0.3-1.5-0.8-2.1C188.7,82.7,188.8,82.3,188.8,81.8z"/>
			<path id="Trazado_126164" class="st10" d="M188.8,81.8c0-0.6-0.1-1.1-0.3-1.6c0.2-0.7,0.3-1.4,0.3-2.2v-0.4
				c1.7-2.1,1.5-5.1-0.4-7c0,0,0-0.1,0-0.1c0-1.5-0.6-2.9-1.6-3.9c0.2-0.4,0.2-0.7,0.2-1.1c0-1.7-1.5-3-3.6-3.5
				c-1.1-1.5-2.8-2.4-4.7-2.4h-0.1c0,0.2,0.1,0.5,0.1,0.7c0,1-0.3,2-1,2.8c0,0.1,0,0.3,0,0.4c0,0.6-0.1,1.3-0.2,1.9
				c0.3,0.9,0.3,1.8,0.1,2.6c0.4,0.5,0.7,1.2,0.7,1.8c0.1,1.3-0.8,2.4-2.1,2.5c-0.7,0-1.3-0.4-1.7-1l0,0c0.5,0.5,0.8,1.2,0.8,2
				c0,1.9-1.9,3.5-4.4,3.5h-0.5c-1,1.4-3.6,2.5-6.6,2.5c-0.6,0-1.2,0-1.8-0.1c-1.3,1.1-2.9,1.7-4.6,1.7c-0.5,0-1,0-1.5-0.1
				c-13.6,4.4-32.4,7.2-53.2,7.2c-14,0.1-28-1.3-41.7-4.1c-0.6,0-1.2-0.1-1.7-0.2c-0.5,0.1-1,0.2-1.5,0.2c-1,0-2-0.3-2.8-0.9
				c-0.5,0.1-1,0.1-1.4,0.1c-1.8,0.1-3.5-0.5-4.9-1.6c-0.9,0.2-1.9,0.3-2.8,0.3c-3.5,0-6.3-1.2-6.3-2.8c0-0.4,0.2-0.7,0.4-1
				c-0.3-0.3-0.6-0.6-0.8-1c-2.6-0.1-4.6-1.5-4.9-3.3l-0.3-0.2c-2.8-0.1-5-1.9-5-4.1c0-0.3,0-0.6,0.1-0.9c-0.1-0.1-0.2-0.3-0.2-0.4
				c-0.7-0.4-1.1-1.2-1.2-2c0,0,0,0,0-0.1c-0.8-0.5-1.3-1.3-1.5-2.3c-0.4,0.4-0.6,0.8-0.9,1.3c-0.2,0-0.3,0-0.5,0
				c-1.8,0-3.3,1.1-3.3,2.4l0,0c-2.4,0.2-4.4,1.7-4.7,3.6c-0.5,0.5-0.8,1.1-0.8,1.8c0,0.5,0.2,1,0.5,1.5c-1,0.8-1.6,2-1.6,3.2
				c0,1.4,0.6,2.6,1.8,3.4v0.1c0,0.9,0.6,1.8,1.4,2.3c0.1,0.2,0.2,0.3,0.3,0.5c-0.1,0.3-0.1,0.7-0.1,1c0,2.5,2.5,4.6,5.7,4.7
				l0.3,0.2c0.4,2,2.7,3.6,5.7,3.8c0.2,0.4,0.5,0.8,0.9,1.2c-0.3,0.3-0.5,0.7-0.5,1.2c0,1.8,3.2,3.2,7.2,3.2c1.1,0,2.2-0.1,3.2-0.3
				c1.6,1.2,3.6,1.9,5.6,1.8c0.5,0,1.1,0,1.6-0.1c0.9,0.7,2,1.1,3.2,1.1c0.6,0,1.1-0.1,1.7-0.2c0.7,0.1,1.3,0.2,2,0.2
				c15.7,3.2,31.8,4.8,47.8,4.7c23.9,0,45.5-3.2,61-8.2c0.5,0.1,1.1,0.2,1.7,0.2c1.9,0.1,3.8-0.6,5.2-1.9c0.7,0.1,1.4,0.2,2.1,0.2
				c3.5,0,6.4-1.2,7.6-2.8h0.5c2.8,0,5-1.8,5-4c0-0.8-0.3-1.7-0.9-2.3l0,0c0.4,0.7,1.1,1.2,1.9,1.2c1.4-0.1,2.5-1.4,2.4-2.8
				c0-0.8-0.3-1.5-0.8-2.1C188.7,82.7,188.8,82.3,188.8,81.8z"/>
			<path id="Trazado_126165" class="st8" d="M19.8,91.7c58,15.4,114.1,15.2,168.1-1.2c7.3,6.4,6.4,13.1,0,20
				c-20,14.1-127.3,16.2-166.8,2.7C15,106.8,14.6,99.7,19.8,91.7z"/>
			<path id="Trazado_126167" class="st8" d="M184.4,49.4c0-6.4-36.1-6.9-80.6-6.9s-80.6,5.2-80.6,11.6s36.1,11.6,80.6,11.6
				S184.4,55.8,184.4,49.4z"/>
			<path id="Trazado_126168" class="st8" d="M23.3,54.1l0.4,11.5c44,12.5,99.8,7.9,161.3-4.9c0.1-4.2-0.2-8.5-0.7-12.7
				C129.6,59.1,75.9,61.2,23.3,54.1z"/>
			<path id="Trazado_126169" class="st11" d="M23.3,54.1l0.4,11.5c44,12.5,99.8,7.9,161.3-4.9c0.1-4.2-0.2-8.5-0.7-12.7
				C129.6,59.1,75.9,61.2,23.3,54.1z"/>
			<path id="Trazado_126170" class="st8" d="M17.4,53.9c0,0-26.5-53.6,86.7-53.6s82.5,48,82.5,48C129.6,55.2,73.5,58,17.4,53.9z"/>
			<path id="Trazado_126172" class="st12" d="M146.1,35.7c0,1.4,0.6,2.6,1.4,2.6s1.4-1.2,1.4-2.6s-0.6-2.6-1.4-2.6
				S146.1,34.3,146.1,35.7z"/>
			<ellipse id="Elipse_4251" class="st12" cx="98.1" cy="3.7" rx="1.4" ry="1.3"/>
			<path id="Trazado_126173" class="st12" d="M126.2,4.6c0,0.8,0.5,1.4,1.3,1.5c0.8,0,1.4-0.5,1.5-1.3s-0.5-1.4-1.3-1.5
				c0,0-0.1,0-0.1,0C126.9,3.3,126.3,3.9,126.2,4.6z"/>
			<path id="Trazado_126174" class="st12" d="M121.8,5.7c0,1.4,0.6,2.6,1.4,2.6s1.4-1.2,1.4-2.6s-0.6-2.6-1.4-2.6
				S121.8,4.3,121.8,5.7z"/>
			<path id="Trazado_126175" class="st12" d="M133.5,5c0,1.4,0.6,2.6,1.4,2.6s1.4-1.2,1.4-2.6s-0.6-2.6-1.4-2.6S133.5,3.6,133.5,5z"
				/>
			<path id="Trazado_126176" class="st12" d="M67.1,15.1c0,1.4,0.6,2.6,1.4,2.6s1.4-1.2,1.4-2.6s-0.6-2.6-1.4-2.6
				S67.1,13.7,67.1,15.1z"/>
			<path id="Trazado_126177" class="st12" d="M25.6,19.3c0,1.4,0.6,2.6,1.4,2.6s1.4-1.2,1.4-2.6s-0.6-2.6-1.4-2.6
				S25.6,17.9,25.6,19.3z"/>
			<path id="Trazado_126178" class="st12" d="M135.9,26.7c0,1.4,0.6,2.6,1.4,2.6s1.4-1.2,1.4-2.6s-0.6-2.6-1.4-2.6
				S135.9,25.2,135.9,26.7z"/>
			<ellipse id="Elipse_4252" class="st12" cx="132.4" cy="24.1" rx="1.4" ry="2.6"/>
			<ellipse id="Elipse_4253" class="st12" cx="134.9" cy="15.6" rx="1.4" ry="2.6"/>
			<path id="Trazado_126179" class="st12" d="M175.5,33.7c0,1.4,0.6,2.6,1.4,2.6s1.4-1.2,1.4-2.6s-0.6-2.6-1.4-2.6
				S175.5,32.3,175.5,33.7z"/>
			<path id="Trazado_126180" class="st12" d="M177.8,36.1c0,1.4,0.6,2.6,1.4,2.6s1.4-1.2,1.4-2.6s-0.6-2.6-1.4-2.6
				S177.8,34.7,177.8,36.1z"/>
			<path id="Trazado_126181" class="st12" d="M188.9,36.1c0,1.4,0.6,2.6,1.4,2.6s1.4-1.2,1.4-2.6s-0.6-2.6-1.4-2.6
				S188.9,34.7,188.9,36.1z"/>
			<path id="Trazado_126182" class="st12" d="M67.1,41.4c0,1.4,0.6,2.6,1.4,2.6s1.4-1.2,1.4-2.6s-0.6-2.6-1.4-2.6S67.1,40,67.1,41.4
				z"/>
			<path id="Trazado_126183" class="st12" d="M109,2.8c-0.9,1.1-1.2,2.4-0.7,2.9s1.8,0,2.7-1.1s1.2-2.4,0.7-2.9S109.9,1.7,109,2.8z"
				/>
			<path id="Trazado_126184" class="st12" d="M45.3,8.8c-0.9,1.1-1.2,2.4-0.7,2.9s1.8,0,2.7-1.1s1.2-2.4,0.7-2.9S46.2,7.7,45.3,8.8z
				"/>
			<path id="Trazado_126185" class="st12" d="M72.6,2.6c-0.9,1.1-1.2,2.4-0.7,2.9s1.8,0,2.7-1.1s1.2-2.4,0.7-2.9S73.5,1.6,72.6,2.6z
				"/>
			<path id="Trazado_126186" class="st12" d="M84,8.8c-0.9,1.1-1.2,2.4-0.7,2.9s1.8,0,2.7-1.1s1.2-2.4,0.7-2.9S84.9,7.7,84,8.8z"/>
			<path id="Trazado_126187" class="st12" d="M17,25.7c-0.9,1.1-1.2,2.4-0.7,2.9s1.8,0,2.7-1.1s1.2-2.4,0.7-2.9S18,24.7,17,25.7z"/>
			<path id="Trazado_126188" class="st12" d="M28.3,28.4c-0.9,1.1-1.2,2.4-0.7,2.9s1.8,0,2.7-1.1s1.2-2.4,0.7-2.9
				S29.2,27.3,28.3,28.4z"/>
			<path id="Trazado_126189" class="st12" d="M52.6,20.6c-0.9,1.1-1.2,2.4-0.7,2.9s1.8,0,2.7-1.1s1.2-2.4,0.7-2.9
				S53.5,19.5,52.6,20.6z"/>
			<path id="Trazado_126190" class="st12" d="M66,20.6c-0.9,1.1-1.2,2.4-0.7,2.9s1.8,0,2.7-1.1s1.2-2.4,0.7-2.9S66.9,19.5,66,20.6z"
				/>
			<path id="Trazado_126191" class="st12" d="M117.4,20.6c-0.9,1.1-1.2,2.4-0.7,2.9s1.8,0,2.7-1.1s1.2-2.4,0.7-2.9
				S118.4,19.5,117.4,20.6z"/>
			<path id="Trazado_126192" class="st12" d="M123.5,15c-0.9,1.1-1.2,2.4-0.7,2.9s1.8,0,2.7-1.1s1.2-2.4,0.7-2.9
				S124.4,13.9,123.5,15z"/>
			<path id="Trazado_126193" class="st12" d="M77.2,18.4c-0.9,1.1-1.2,2.4-0.7,2.9s1.8,0,2.7-1.1s1.2-2.4,0.7-2.9
				S78.2,17.3,77.2,18.4z"/>
			<path id="Trazado_126194" class="st12" d="M75.3,14.6c-0.9,1.1-1.2,2.4-0.7,2.9s1.8,0,2.7-1.1s1.2-2.4,0.7-2.9
				S76.3,13.5,75.3,14.6z"/>
			<path id="Trazado_126195" class="st12" d="M28.9,16.3c-0.9,1.1-1.2,2.4-0.7,2.9s1.8,0,2.7-1.1s1.2-2.4,0.7-2.9
				S29.8,15.2,28.9,16.3z"/>
			<path id="Trazado_126196" class="st12" d="M31,18.1c-0.9,1.1-1.2,2.4-0.7,2.9s1.8,0,2.7-1.1s1.2-2.4,0.7-2.9S31.9,17,31,18.1z"/>
			<path id="Trazado_126197" class="st12" d="M50.5,7.2c-0.9,1.1-1.2,2.4-0.7,2.9s1.8,0,2.7-1.1s1.2-2.4,0.7-2.9S51.5,6.1,50.5,7.2z
				"/>
			<path id="Trazado_126198" class="st12" d="M66.8,7.2c-0.9,1.1-1.2,2.4-0.7,2.9s1.8,0,2.7-1.1s1.2-2.4,0.7-2.9S67.8,6.1,66.8,7.2z
				"/>
			<path id="Trazado_126199" class="st12" d="M43.7,37.8c-0.9,1.1-1.2,2.4-0.7,2.9s1.8,0,2.7-1.1s1.2-2.4,0.7-2.9
				S44.6,36.7,43.7,37.8z"/>
			<path id="Trazado_126200" class="st12" d="M93.9,32.8c-0.9,1.1-1.2,2.4-0.7,2.9s1.8,0,2.7-1.1s1.2-2.4,0.7-2.9
				S94.8,31.7,93.9,32.8z"/>
			<path id="Trazado_126201" class="st12" d="M101.4,40.5c-0.9,1.1-1.2,2.4-0.7,2.9s1.8,0,2.7-1.1s1.2-2.4,0.7-2.9
				S102.4,39.4,101.4,40.5z"/>
			<path id="Trazado_126202" class="st12" d="M106.7,40.5c-0.9,1.1-1.2,2.4-0.7,2.9s1.8,0,2.7-1.1s1.2-2.4,0.7-2.9
				S107.6,39.4,106.7,40.5z"/>
			<path id="Trazado_126203" class="st12" d="M164.3,40.3c-1.1-0.9-2.4-1.1-2.9-0.5s0.1,1.8,1.2,2.7s2.4,1.1,2.9,0.5
				S165.5,41.2,164.3,40.3z"/>
			<path id="Trazado_126204" class="st12" d="M90.4,2.2c-1.1-0.9-2.4-1.1-2.9-0.5s0.1,1.8,1.2,2.7s2.4,1.1,2.9,0.5
				S91.5,3.1,90.4,2.2z"/>
			<path id="Trazado_126205" class="st12" d="M57.2,8.6c-1.1-0.9-2.4-1.1-2.9-0.5s0.1,1.8,1.2,2.7s2.4,1.1,2.9,0.5
				S58.4,9.5,57.2,8.6z"/>
			<path id="Trazado_126206" class="st12" d="M43.8,18.3c-1.1-0.9-2.4-1.1-2.9-0.5s0.1,1.8,1.2,2.7s2.4,1.1,2.9,0.5
				S44.9,19.1,43.8,18.3z"/>
			<path id="Trazado_126207" class="st12" d="M158.7,26.8c-1.1-0.9-2.4-1.1-2.9-0.5s0.1,1.8,1.2,2.7s2.4,1.1,2.9,0.5
				S159.8,27.6,158.7,26.8z"/>
			<path id="Trazado_126208" class="st12" d="M160,12.8c-1.1-0.9-2.4-1.1-2.9-0.5s0.1,1.8,1.2,2.7s2.4,1.1,2.9,0.5
				S161.1,13.7,160,12.8z"/>
			<path id="Trazado_126209" class="st12" d="M145,8.9c-1.1-0.9-2.4-1.1-2.9-0.5s0.1,1.8,1.2,2.7s2.4,1.1,2.9,0.5S146.1,9.7,145,8.9
				z"/>
			<path id="Trazado_126210" class="st12" d="M143.4,3.9c-1.1-0.9-2.4-1.1-2.9-0.5s0.1,1.8,1.2,2.7s2.4,1.1,2.9,0.5
				S144.6,4.8,143.4,3.9z"/>
			<path id="Trazado_126211" class="st12" d="M40.5,33.2c-1.1-0.9-2.4-1.1-2.9-0.5s0.1,1.8,1.2,2.7s2.4,1.1,2.9,0.5
				S41.6,34.1,40.5,33.2z"/>
			<path id="Trazado_126212" class="st12" d="M67.2,28.2c-1.1-0.9-2.4-1.1-2.9-0.5s0.1,1.8,1.2,2.7s2.4,1.1,2.9,0.5
				S68.3,29,67.2,28.2z"/>
			<path id="Trazado_126213" class="st12" d="M78.1,28.2c-1.1-0.9-2.4-1.1-2.9-0.5s0.1,1.8,1.2,2.7s2.4,1.1,2.9,0.5
				S79.2,29,78.1,28.2z"/>
			<path id="Trazado_126214" class="st12" d="M130.3,27.7c-1.1-0.9-2.4-1.1-2.9-0.5s0.1,1.8,1.2,2.7s2.4,1.1,2.9,0.5
				S131.5,28.5,130.3,27.7z"/>
			<path id="Trazado_126215" class="st12" d="M108.6,21.4c-1.1-0.9-2.4-1.1-2.9-0.5s0.1,1.8,1.2,2.7s2.4,1.1,2.9,0.5
				S109.8,22.3,108.6,21.4z"/>
			<path id="Trazado_126216" class="st12" d="M180.4,23c-1.1-0.9-2.4-1.1-2.9-0.5s0.1,1.8,1.2,2.7s2.4,1.1,2.9,0.5
				S181.5,23.8,180.4,23z"/>
			<path id="Trazado_126217" class="st12" d="M184.9,20.4c-1.1-0.9-2.4-1.1-2.9-0.5s0.1,1.8,1.2,2.7c1.1,0.9,2.4,1.1,2.9,0.5
				S186,21.2,184.9,20.4z"/>
			<path id="Trazado_126218" class="st12" d="M188.3,25.6c-1.1-0.9-2.4-1.1-2.9-0.5s0.1,1.8,1.2,2.7s2.4,1.1,2.9,0.5
				S189.5,26.4,188.3,25.6z"/>
			<path id="Trazado_126219" class="st12" d="M124.2,33.2c0,0.7-1.2,1.2-2.6,1.2s-2.6-0.5-2.6-1.2s1.2-1.2,2.6-1.2
				S124.2,32.5,124.2,33.2z"/>
			<path id="Trazado_126220" class="st12" d="M105.1,2.3c0,0.7-1.2,1.2-2.6,1.2S99.8,3,99.8,2.3s1.2-1.2,2.6-1.2
				S105.1,1.7,105.1,2.3z"/>
			<path id="Trazado_126221" class="st12" d="M115.5,1.2c0,0.7-1.2,1.2-2.6,1.2s-2.6-0.5-2.6-1.2s1.2-1.2,2.6-1.2
				C114.3,0,115.5,0.5,115.5,1.2z"/>
			<path id="Trazado_126222" class="st12" d="M124.3,2.8c0,0.7-1.2,1.2-2.6,1.2S119,3.4,119,2.8s1.2-1.2,2.6-1.2
				S124.3,2.1,124.3,2.8z"/>
			<path id="Trazado_126223" class="st12" d="M79.9,2.4c0,0.7-1.2,1.2-2.6,1.2s-2.6-0.5-2.6-1.2s1.2-1.2,2.6-1.2S79.9,1.7,79.9,2.4z
				"/>
			<path id="Trazado_126224" class="st12" d="M98.6,12.7c0,0.7-1.2,1.2-2.6,1.2s-2.6-0.5-2.6-1.2s1.2-1.2,2.6-1.2S98.6,12,98.6,12.7
				z"/>
			<path id="Trazado_126225" class="st12" d="M100.2,17.1c0,0.7-1.2,1.2-2.6,1.2s-2.6-0.5-2.6-1.2s1.2-1.2,2.6-1.2
				S100.2,16.5,100.2,17.1z"/>
			<path id="Trazado_126226" class="st12" d="M94.8,19.3c0,0.7-1.2,1.2-2.6,1.2s-2.6-0.5-2.6-1.2s1.2-1.2,2.6-1.2
				S94.8,18.7,94.8,19.3z"/>
			<path id="Trazado_126227" class="st12" d="M70.4,13.9c0,0.7-1.2,1.2-2.6,1.2s-2.6-0.5-2.6-1.2s1.2-1.2,2.6-1.2
				S70.4,13.2,70.4,13.9z"/>
			<path id="Trazado_126228" class="st12" d="M156,6.9c0,0.7-1.2,1.2-2.6,1.2s-2.6-0.5-2.6-1.2s1.2-1.2,2.6-1.2S156,6.2,156,6.9z"/>
			<path id="Trazado_126229" class="st12" d="M109.3,8.1c0,0.7-1.2,1.2-2.6,1.2S104,8.8,104,8.1s1.2-1.2,2.6-1.2
				S109.3,7.4,109.3,8.1z"/>
			<path id="Trazado_126230" class="st12" d="M120.2,6.9c0,0.7-1.2,1.2-2.6,1.2S115,7.6,115,6.9s1.2-1.2,2.6-1.2
				S120.2,6.2,120.2,6.9z"/>
			<path id="Trazado_126231" class="st12" d="M127.3,5.7c0,0.7-1.2,1.2-2.6,1.2S122,6.4,122,5.7s1.2-1.2,2.6-1.2S127.3,5,127.3,5.7z
				"/>
			<path id="Trazado_126232" class="st12" d="M134.5,4.5c0,0.7-1.2,1.2-2.6,1.2s-2.6-0.5-2.6-1.2s1.2-1.2,2.6-1.2
				S134.5,3.8,134.5,4.5z"/>
			<path id="Trazado_126233" class="st8" d="M21.9,62.7c0,0,57.7,14.7,66.5,14.7s98-23.3,98-23.3L21.9,58.9V62.7z"/>
			<path id="Trazado_126234" class="st13" d="M21.9,62.7c0,0,57.7,14.7,66.5,14.7s98-23.3,98-23.3L21.9,58.9V62.7z"/>
			<path id="Trazado_126235" d="M15.7,49.1c0,0-11.6,0-11.6,6.8s12.2,4.7,12.2,4.7s-10.9,4.3-5.5,8.1s26.6-8.1,26.6-8.1
				s-7.7,6.7,2.2,8.1c6.1,0.7,12.1-1.1,16.7-5.1c0,0-5.3,13.2,4.1,12.4s8.6-11.3,8.6-11.3s4.9,3,14,2.6c5.8-0.3,11.6-1.4,17.1-3.2
				c0,0,2.7,5.7,13.6,4.7s15.2-6.6,15.2-6.6s9.5,8.7,20.9,6.8s5.7-6.8,5.7-6.8s11.3,5.1,19.9,2s5.1-9.8,5.1-9.8s7.8,13.1,15.3,7.8
				s4.1-11,4.1-11s6.5,2.6,6.5-1.9s-18.4-3.3-18.4-3.3l-1.3,2.5c-60.7,7.5-116.9,9.4-169.2,5.7L15.7,49.1z"/>
			<path id="Trazado_126236" class="st14" d="M11.2,60.8c2.6-0.5,5-1.8,6.9-3.7l-1.9,3.4L11.2,60.8z"/>
			<path id="Trazado_126237" class="st14" d="M38.2,57.1c0,0-8.1,2.4-10.3,5.2c-1.7,2-3.8,3.8-6,5.3c5.3-2,10.4-4.3,15.4-7.1
				L38.2,57.1z"/>
			<path id="Trazado_126238" class="st14" d="M56.3,63.5l1.7-5.6c-5.1,5.1-11.5,8.8-18.5,10.8C45.4,69.5,50.9,67.7,56.3,63.5z"/>
			<path id="Trazado_126239" class="st14" d="M68.9,64.6c-0.6-1.6-1-3.3-1.1-5c2,3.7,4.4,6.5,7.7,7.2C73.3,66.4,71,65.7,68.9,64.6z"
				/>
			<path id="Trazado_126240" class="st14" d="M94.3,65.6c3.8-1.8,6-4.3,6.5-7.6c0.3,2,0,4.1-0.8,6L94.3,65.6z"/>
			<path id="Trazado_126241" class="st14" d="M112.1,68.7c9.5-1.4,15.2-5,16.9-10.9c0.2,1.6,0.4,3.2-0.1,4.1
				C125,66.2,119.2,68.2,112.1,68.7z"/>
			<path id="Trazado_126242" class="st14" d="M155.5,62c-2.8-1.3-5.2-3.5-6.7-6.2c10,7.1,19.4,9.9,28,7.5
				C171.1,65.8,164.1,65.5,155.5,62z"/>
			<path id="Trazado_126243" class="st14" d="M180.4,54.1l-2.6-4.8c6.2,9.5,12.5,13.8,18,12.6C190.9,64.9,185.8,62.4,180.4,54.1z"/>
			<path id="Trazado_126244" class="st14" d="M199.8,51l-13.2-2.7l0.7-1.2c15.5,4.9,19,4.2,19,2C206.1,51.9,203.8,52.4,199.8,51z"/>
			<path id="Trazado_126245" d="M19.8,91.7c60.8,15.9,116.6,14.6,168.1-1.2l1.2,1.1c0,0,11,1.6,11-2.7s-7.1-2.4-7.1-2.4
				s7.6-2.9,1.7-5.7s-10.8,5.9-10.8,5.9s1.3-4.3-4.9-5.1s-12.3,6.1-12.3,6.1s5.5-5.7-2.2-5s-9,6.8-9,6.8s1.6-3.6-6.8-2.8
				s-15.3,8-15.3,8s2.2-7.3-4-6.9c-6.2,0.4-14.5,8.3-14.5,8.3s-5.4-8.3-13.5-7.6s-14.1,7.8-14.1,7.8s-6.5-9.3-14.9-8.7
				S63,94.4,63,94.4S50.4,85,46.6,85.5s-4,7.7-4,7.7s-5.7-7.1-11.4-7.3s-2,3.9-2,3.9S18.1,84,14.6,86.3s2.4,4.3,2.4,4.3
				s-4.7-2.7-5.8,1.1s7.5,2.3,7.5,2.3L19.8,91.7z"/>
			<path id="Trazado_126246" class="st14" d="M11.6,93.3c4,1,6.5,0.5,8.2-1.6l-1.1,2.2C16.1,94.5,13.7,94.5,11.6,93.3z"/>
			<path id="Trazado_126247" class="st14" d="M17,90.5l2.8,1.2l10.3,2.5c-8.4-2.5-16.8-5-15.4-8C12.6,87.8,13.7,89.2,17,90.5z"/>
			<path id="Trazado_126248" class="st14" d="M29.2,89.7c0.6,1.3,4.3,3.7,8,6.2c-4-3.5-8-7-9-9.2C27.8,87.7,28.2,88.7,29.2,89.7z"/>
			<path id="Trazado_126249" class="st14" d="M43.6,88.1c-0.6,1.6-1,3.3-1,5c-0.4,2.2,4.6,3.8,9.1,5.5
				C46.9,95.7,42.4,92.7,43.6,88.1z"/>
			<path id="Trazado_126250" class="st14" d="M63,94.4c0.7-2.8,2.7-5.1,5.4-6.1c-4.3,5.6,1.3,9.3,5.9,13.3
				C68.2,99.2,62.8,96.8,63,94.4z"/>
			<path id="Trazado_126251" class="st14" d="M97.9,92.2c-2.6,1-5.8,5.3-6.2,10.6l19,0.2c0.3-5.1-4.1-10.2-6.1-11
				C102.5,91.3,100.1,91.3,97.9,92.2L97.9,92.2z"/>
			<path id="Trazado_126252" class="st14" d="M132.4,88.5c1.3,1.4,1.7,3.3,0.9,6.2c-2.1,3.1-4.8,5.6-8,7.6
				C131.1,97,134.1,92.3,132.4,88.5z"/>
			<path id="Trazado_126253" class="st14" d="M187.9,90.5l1.2,1.1c6.3,0.5,9.7,0.1,10.3-1.1C196.7,92,192.9,92,187.9,90.5z"/>
			<path id="Trazado_126254" class="st14" d="M193.1,86.5c-2.9,2.9-6,4.7-9.2,5.2c8.9-4.4,13.1-7.9,11.7-10.5
				C198,82.8,197.5,84.5,193.1,86.5z"/>
			<path id="Trazado_126255" class="st14" d="M183.9,86.7c-2.7,3.2-6.5,5.8-10.9,8c7.1-5.6,12.6-10.6,8.8-12.3
				C183.9,83.2,184.6,84.6,183.9,86.7z"/>
			<path id="Trazado_126256" class="st14" d="M166.8,87.7c-2.3,3.4-4.9,6.6-7.6,9.7c6.6-8.1,10.7-14.3,7.6-14.7
				C169.5,83.1,169.1,85,166.8,87.7z"/>
			<path id="Trazado_126257" class="st14" d="M155.5,89.5l-6.7,10c4.2-6.1,7.2-11.3,4.6-12.7C154.8,87.1,155.9,87.8,155.5,89.5z"/>
		</g>
	</g>
</g>
</svg>
