<svg id="Business_deal-pana" data-name="Business deal-pana" xmlns="http://www.w3.org/2000/svg" width="414.64" height="393.616" viewBox="0 0 414.64 393.616">
  <g id="freepik--background-complete--inject-38" transform="translate(27.61)">
    <path id="Trazado_122689" data-name="Trazado 122689" d="M75.832,359.61a4.189,4.189,0,0,0-.533.729c-.32.489-.765,1.209-1.307,2.1-1.085,1.778-2.507,4.285-4.027,7.068l-3.858,7.157-1.156,2.169a4.16,4.16,0,0,0-.4.809,3.174,3.174,0,0,0,.542-.729c.32-.48.773-1.2,1.3-2.1,1.067-1.778,2.454-4.312,3.974-7.112l3.912-7.112c.471-.845.889-1.565,1.191-2.16A3.662,3.662,0,0,0,75.832,359.61Z" transform="translate(-40.688 -77.22)" fill="#e0e0e0"/>
    <path id="Trazado_122690" data-name="Trazado 122690" d="M60.38,380.274c.062-.1-4.97-3.263-11.22-7.112s-11.388-6.81-11.451-6.712,4.961,3.272,11.22,7.112S60.318,380.416,60.38,380.274Z" transform="translate(-37.709 -77.978)" fill="#e0e0e0"/>
    <path id="Trazado_122691" data-name="Trazado 122691" d="M69.359,416.622a3.744,3.744,0,0,0-.889-.293l-2.427-.658c-2.045-.56-4.872-1.342-8-2.32s-5.859-1.929-7.85-2.667l-2.3-.827A4.077,4.077,0,0,0,47,409.59a3.823,3.823,0,0,0,.827.418c.542.249,1.334.587,2.32.978,1.983.791,4.739,1.778,7.841,2.783s5.948,1.707,8,2.2c1.04.24,1.876.418,2.463.524a3.9,3.9,0,0,0,.907.133Z" transform="translate(-38.74 -82.766)" fill="#e0e0e0"/>
    <path id="Trazado_122693" data-name="Trazado 122693" d="M98.694,430.3a5.264,5.264,0,0,0-.889.7l-2.178,2.027c-1.831,1.734-4.338,4.143-7.112,6.828s-5.227,5.121-7,6.908L79.429,448.9a5.824,5.824,0,0,0-.729.818,5.422,5.422,0,0,0,.889-.7l2.187-2.036c1.778-1.725,4.33-4.134,7.112-6.819s5.192-5.121,6.97-6.908l2.089-2.134a6.05,6.05,0,0,0,.747-.818Z" transform="translate(-42.258 -85.064)" fill="#e0e0e0"/>
    <path id="Trazado_122694" data-name="Trazado 122694" d="M75.655,450.263a6.226,6.226,0,0,0-1.1-.4l-3.049-.907c-2.569-.8-6.125-1.92-10.01-3.263s-7.37-2.667-9.895-3.556l-2.987-1.182a6.493,6.493,0,0,0-1.111-.365,6.376,6.376,0,0,0,1.049.525c.685.311,1.689.738,2.943,1.253,2.489,1.031,5.965,2.374,9.868,3.716s7.459,2.418,10.055,3.138c1.307.365,2.356.64,3.094.818A6.722,6.722,0,0,0,75.655,450.263Z" transform="translate(-38.796 -86.206)" fill="#e0e0e0"/>
    <rect id="Rectángulo_29998" data-name="Rectángulo 29998" width="83.24" height="120.65" transform="translate(290.703 19.274)" fill="#e0e0e0"/>
    <rect id="Rectángulo_29999" data-name="Rectángulo 29999" width="83.24" height="120.65" transform="translate(286.534 19.274)" fill="#f5f5f5"/>
    <rect id="Rectángulo_30000" data-name="Rectángulo 30000" width="62.552" height="94.512" transform="translate(296.882 32.343)" fill="#fff"/>
    <path id="Trazado_122695" data-name="Trazado 122695" d="M434.175,172.821v-6.988c0-4.534,0-11.131-.053-19.47,0-16.669-.062-40.264-.107-68.055l.213.2H371.677l.222-.222V172.8l-.178-.178,45.527.089,12.58.044h.071l-12.535.044-45.643.1h-.187v-.178c0-25.986,0-58.862-.044-94.512V77.98h62.988v.213c-.044,27.844-.08,51.492-.1,68.188,0,8.321-.044,14.909-.062,19.425v6.463A1.19,1.19,0,0,1,434.175,172.821Z" transform="translate(-74.75 -45.966)" fill="#e0e0e0"/>
    <path id="Trazado_122696" data-name="Trazado 122696" d="M452.485,63.65A13.861,13.861,0,0,1,451,65.8c-.96,1.3-2.338,3.058-3.9,4.952s-3.032,3.556-4.116,4.783a14.469,14.469,0,0,1-1.831,1.876,16,16,0,0,1,1.591-2.08l4.01-4.863,4-4.863a15.339,15.339,0,0,1,1.734-1.956Z" transform="translate(-82.481 -44.376)" fill="#e0e0e0"/>
    <path id="Trazado_122697" data-name="Trazado 122697" d="M442.37,184.32a77.477,77.477,0,0,0,10.908,13.638" transform="translate(-82.616 -57.767)" fill="#fff"/>
    <path id="Trazado_122698" data-name="Trazado 122698" d="M453.278,197.958a11.8,11.8,0,0,1-1.9-1.725,59.2,59.2,0,0,1-4.116-4.641,61.58,61.58,0,0,1-3.627-5.041,12.185,12.185,0,0,1-1.262-2.231,17.305,17.305,0,0,1,1.529,2.054c.889,1.289,2.214,3.049,3.716,4.934s2.943,3.556,3.992,4.7a18.144,18.144,0,0,1,1.671,1.947Z" transform="translate(-82.616 -57.767)" fill="#e0e0e0"/>
    <path id="Trazado_122699" data-name="Trazado 122699" d="M360,197.571l10.9-13.451" transform="translate(-73.475 -57.745)" fill="#fff"/>
    <path id="Trazado_122700" data-name="Trazado 122700" d="M370.9,184.12a80.282,80.282,0,0,1-5.272,6.863A83.518,83.518,0,0,1,360,197.571a83.489,83.489,0,0,1,5.272-6.872A84.282,84.282,0,0,1,370.9,184.12Z" transform="translate(-73.475 -57.745)" fill="#e0e0e0"/>
    <path id="Trazado_122701" data-name="Trazado 122701" d="M360,63.65a75.287,75.287,0,0,1,5.334,6.321,75.908,75.908,0,0,1,4.934,6.614,75.371,75.371,0,0,1-5.29-6.33A75.749,75.749,0,0,1,360,63.65Z" transform="translate(-73.475 -44.376)" fill="#e0e0e0"/>
    <rect id="Rectángulo_30001" data-name="Rectángulo 30001" width="20.945" height="59.467" transform="translate(319.001 51.528)" fill="#e0e0e0"/>
    <path id="Trazado_122702" data-name="Trazado 122702" d="M152.073,41.97v66.472H56.592L53.16,42.432Z" transform="translate(-39.424 -41.97)" fill="#e0e0e0"/>
    <rect id="Rectángulo_30002" data-name="Rectángulo 30002" width="65.868" height="95.481" transform="translate(13.736 66.33) rotate(-90)" fill="#fff"/>
    <path id="Trazado_122703" data-name="Trazado 122703" d="M149.029,108.757H52.65V42h96.379Zm-95.481-.889h94.539V42.889H53.548Z" transform="translate(-39.367 -41.973)" fill="#e0e0e0"/>
    <rect id="Rectángulo_30003" data-name="Rectángulo 30003" width="74.794" height="49.501" transform="translate(24.075 8.65)" fill="#fff"/>
    <path id="Trazado_122704" data-name="Trazado 122704" d="M139.537,51.672H134l-15.416.062-53.839.107.187-.169v49.492h0l-.231-.24,74.794.053-.187.187c0-15.069.071-27.418.1-36.023,0-4.294,0-7.655.044-9.957v-.027c0,2.294,0,5.636.044,9.913,0,8.632.053,21.025.1,36.139v.187H64.37v-.231h0V51.45h.222l53.982.107,15.362.062h5.1Z" transform="translate(-40.668 -43.022)" fill="#e0e0e0"/>
    <path id="Trazado_122705" data-name="Trazado 122705" d="M53.15,42.28a8.081,8.081,0,0,1,1.645,1.067c.978.7,2.311,1.707,3.743,2.854s2.667,2.24,3.556,3.049a7.948,7.948,0,0,1,1.369,1.4,62.078,62.078,0,0,1-5.254-4.09A52.63,52.63,0,0,1,53.15,42.28Z" transform="translate(-39.423 -42.004)" fill="#e0e0e0"/>
    <path id="Trazado_122706" data-name="Trazado 122706" d="M159.257,42.49a45.728,45.728,0,0,1-5.023,4.276,47.561,47.561,0,0,1-5.334,3.912,46.336,46.336,0,0,1,5.023-4.285,46.748,46.748,0,0,1,5.334-3.9Z" transform="translate(-50.049 -42.028)" fill="#e0e0e0"/>
    <path id="Trazado_122707" data-name="Trazado 122707" d="M159.138,115.522,148.47,106.89" transform="translate(-50.001 -49.174)" fill="#fff"/>
    <path id="Trazado_122708" data-name="Trazado 122708" d="M148.49,106.89a51.118,51.118,0,0,1,5.476,4.134,50.124,50.124,0,0,1,5.174,4.5,50.1,50.1,0,0,1-5.476-4.134,51.418,51.418,0,0,1-5.174-4.5Z" transform="translate(-50.003 -49.174)" fill="#e0e0e0"/>
    <path id="Trazado_122709" data-name="Trazado 122709" d="M53.15,115.57a47.2,47.2,0,0,1,4.979-4.232,45.076,45.076,0,0,1,5.263-3.858,45.343,45.343,0,0,1-4.97,4.232A43.872,43.872,0,0,1,53.15,115.57Z" transform="translate(-39.423 -49.24)" fill="#e0e0e0"/>
    <rect id="Rectángulo_30004" data-name="Rectángulo 30004" width="16.571" height="47.065" transform="translate(39.26 40.646) rotate(-90)" fill="#e0e0e0"/>
    <path id="Trazado_122710" data-name="Trazado 122710" d="M408.634,283.022a33.543,33.543,0,1,1,1.218-47.332,33.543,33.543,0,0,1-1.218,47.332Z" transform="translate(-72.581 -62.304)" fill="#ebebeb"/>
    <path id="Trazado_122711" data-name="Trazado 122711" d="M404.145,278.229a25.568,25.568,0,1,1,.889-36.1,25.568,25.568,0,0,1-.889,36.1Z" transform="translate(-73.578 -63.298)" fill="#f5f5f5"/>
    <path id="Trazado_122712" data-name="Trazado 122712" d="M405.655,277.561c-.116-.107.622-.96,1.778-2.6a26.9,26.9,0,0,0,3.663-7.53,26.437,26.437,0,0,0,1.04-5.654,25.169,25.169,0,0,0-.427-6.526,23.3,23.3,0,0,0-.889-3.432,24.732,24.732,0,0,0-3.485-6.659,27,27,0,0,0-2.569-2.987,27.924,27.924,0,0,0-3.014-2.552,25.525,25.525,0,0,0-3.272-1.991,23.931,23.931,0,0,0-3.414-1.422,23.556,23.556,0,0,0-3.441-.889,25.541,25.541,0,0,0-6.561-.338,26.267,26.267,0,0,0-5.645,1.094,27.187,27.187,0,0,0-7.495,3.734c-1.636,1.147-2.471,1.894-2.587,1.778s.578-1.013,2.116-2.391a23.772,23.772,0,0,1,7.521-4.445,25.666,25.666,0,0,1,5.93-1.4,26.012,26.012,0,0,1,7.014.178,24.728,24.728,0,0,1,3.716.889,24.212,24.212,0,0,1,3.7,1.494,25.927,25.927,0,0,1,3.556,2.116,29.655,29.655,0,0,1,3.263,2.747,27.786,27.786,0,0,1,2.765,3.227,26.1,26.1,0,0,1,2.16,3.556,25.521,25.521,0,0,1,1.52,3.681,23.994,23.994,0,0,1,.889,3.707,26.19,26.19,0,0,1,.24,7.023,25.911,25.911,0,0,1-1.342,5.939,23.9,23.9,0,0,1-4.374,7.566C406.66,276.974,405.735,277.641,405.655,277.561Z" transform="translate(-74.51 -63.19)" fill="#e0e0e0"/>
    <path id="Trazado_122713" data-name="Trazado 122713" d="M378.609,273.775l-3.147,3.121-2.774-2.845,3.094-3.023c-2.569-2.987-4.329-6.552-4.632-9.308l5-1.823a16.074,16.074,0,0,0,3.369,7.495l4.747-4.641c-2.311-3.9-4.7-8.464-.631-12.446,3.023-2.943,7.743-3.272,12.642.72l3.165-3.085,2.774,2.854-3.1,3.023a18.039,18.039,0,0,1,3.912,7.512l-4.89,2a16.527,16.527,0,0,0-2.765-5.805l-4.89,4.694c2.347,3.885,4.676,8.384.667,12.3C388.184,277.393,383.507,277.731,378.609,273.775Zm9.779-15.113,4.045-3.947c-1.778-1.174-3.227-.96-4.161,0s-.685,2.32.142,3.947Zm-2.08,11.557c1-.969.729-2.32,0-3.965l-3.93,3.832c1.689,1.156,3.041,1.022,3.956.133Z" transform="translate(-74.712 -64.827)" fill="#e0e0e0"/>
    <path id="Trazado_122714" data-name="Trazado 122714" d="M259.321,332.05a35.223,35.223,0,1,1-44.78-21.674,35.223,35.223,0,0,1,44.78,21.674Z" transform="translate(-54.702 -71.538)" fill="#ebebeb"/>
    <path id="Trazado_122715" data-name="Trazado 122715" d="M252.486,335.822a26.84,26.84,0,1,1-34.13-16.518A26.84,26.84,0,0,1,252.486,335.822Z" transform="translate(-55.752 -72.581)" fill="#f5f5f5"/>
    <path id="Trazado_122716" data-name="Trazado 122716" d="M252.085,334.9c-.151.062-.649-1.013-1.725-2.818a28.725,28.725,0,0,0-5.619-6.757,27.675,27.675,0,0,0-4.961-3.449,26.739,26.739,0,0,0-6.437-2.454,24.65,24.65,0,0,0-3.681-.613,26.1,26.1,0,0,0-7.868.445,29.344,29.344,0,0,0-3.974,1.165,28.984,28.984,0,0,0-3.743,1.778,25.137,25.137,0,0,0-3.325,2.267,24.457,24.457,0,0,0-2.845,2.667,25.356,25.356,0,0,0-2.329,2.916,26.669,26.669,0,0,0-3.165,6.125,27.914,27.914,0,0,0-1.4,5.868,28.449,28.449,0,0,0,.32,8.784c.4,2.063.747,3.192.6,3.254s-.72-1-1.369-3.058a24.892,24.892,0,0,1-1-9.166,26.768,26.768,0,0,1,4.445-12.918,25.5,25.5,0,0,1,2.454-3.174,25.935,25.935,0,0,1,3.023-2.889,26.824,26.824,0,0,1,3.556-2.471,28.45,28.45,0,0,1,4.027-1.929,29.133,29.133,0,0,1,4.294-1.254,27.621,27.621,0,0,1,4.3-.533,26.144,26.144,0,0,1,4.187.133,26.586,26.586,0,0,1,3.938.729,28.05,28.05,0,0,1,6.819,2.809,27.5,27.5,0,0,1,5.1,3.867,24.777,24.777,0,0,1,5.334,7.45C251.961,333.684,252.2,334.858,252.085,334.9Z" transform="translate(-55.663 -72.453)" fill="#e0e0e0"/>
    <path id="Trazado_122717" data-name="Trazado 122717" d="M236.962,359.8l1.591,4.392-3.921,1.422-1.556-4.276c-3.965,1.173-8.135,1.307-10.908.4l.427-5.565a16.937,16.937,0,0,0,8.624,0l-2.383-6.561c-4.738.525-10.135.836-12.171-4.774-1.5-4.161.222-8.828,6.17-11.78l-1.582-4.356,3.921-1.431,1.556,4.285a18.749,18.749,0,0,1,8.828-.5l-.2,5.539a17.247,17.247,0,0,0-6.748.133l2.418,6.677c4.73-.56,10.046-.845,12.046,4.685C244.555,352.2,242.857,356.812,236.962,359.8Zm-10.215-15.931-2.027-5.565c-1.9,1.218-2.311,2.667-1.849,3.956S224.818,343.921,226.748,343.868Zm10.179,7.014c-.5-1.378-1.9-1.707-3.805-1.68l1.965,5.414C236.891,353.47,237.354,352.136,236.927,350.883Z" transform="translate(-57.512 -73.631)" fill="#e0e0e0"/>
    <path id="Trazado_122718" data-name="Trazado 122718" d="M109.981,233.505A29.56,29.56,0,1,1,80.056,204.39a29.56,29.56,0,0,1,29.925,29.116Z" transform="translate(-39.169 -59.994)" fill="#ebebeb"/>
    <path id="Trazado_122719" data-name="Trazado 122719" d="M103.826,234.465a22.492,22.492,0,1,1-6.792-15.843A22.528,22.528,0,0,1,103.826,234.465Z" transform="translate(-40.047 -60.865)" fill="#f5f5f5"/>
    <path id="Trazado_122720" data-name="Trazado 122720" d="M103.781,233.659a12.672,12.672,0,0,1-.631-2.667,23.862,23.862,0,0,0-2.667-6.872,22.341,22.341,0,0,0-7.53-7.752,21.031,21.031,0,0,0-2.774-1.467,20.179,20.179,0,0,0-3.067-1.085,21.227,21.227,0,0,0-3.316-.64,23.744,23.744,0,0,0-3.476-.124,24.374,24.374,0,0,0-3.449.427,22.716,22.716,0,0,0-3.245.889,20.066,20.066,0,0,0-2.969,1.36,20.837,20.837,0,0,0-2.667,1.7,22.314,22.314,0,0,0-4.134,4.036,22.918,22.918,0,0,0-2.667,4.312,24,24,0,0,0-2.071,7.112c-.231,1.778-.249,2.747-.391,2.747s-.311-.978-.276-2.8a20.785,20.785,0,0,1,1.618-7.521,23.008,23.008,0,0,1,2.667-4.676,23.525,23.525,0,0,1,4.312-4.445,22.17,22.17,0,0,1,2.792-1.876,22.919,22.919,0,0,1,6.677-2.525,25.543,25.543,0,0,1,3.725-.471,26.157,26.157,0,0,1,3.743.142,23.337,23.337,0,0,1,3.556.72,21.123,21.123,0,0,1,3.3,1.218,21.719,21.719,0,0,1,2.943,1.618,23.114,23.114,0,0,1,4.685,4.045,22.662,22.662,0,0,1,3.04,4.445,20.705,20.705,0,0,1,2.276,7.352A6.374,6.374,0,0,1,103.781,233.659Z" transform="translate(-40.01 -60.762)" fill="#e0e0e0"/>
    <path id="Trazado_122721" data-name="Trazado 122721" d="M85.635,249.02l.107,3.921-3.5.1-.107-3.823a16.637,16.637,0,0,1-8.792-2.56l1.778-4.33a14.144,14.144,0,0,0,6.863,2.3l-.151-5.85c-3.921-.836-8.295-2.018-8.428-7.023-.1-3.716,2.507-6.979,8-7.752l-.107-3.894,3.5-.089.107,3.814a15.9,15.9,0,0,1,7.166,1.947l-1.636,4.356a14.447,14.447,0,0,0-5.405-1.68l.16,5.956c3.912.809,8.215,1.991,8.348,6.926C93.69,244.984,91.112,248.2,85.635,249.02Zm-3.921-15.389-.133-4.97c-1.849.462-2.552,1.5-2.525,2.667s1.093,1.858,2.658,2.3Zm6.223,8.277c0-1.227-1.067-1.858-2.587-2.347l.133,4.836c1.778-.391,2.516-1.369,2.48-2.489Z" transform="translate(-41.663 -61.729)" fill="#e0e0e0"/>
    <path id="Trazado_122722" data-name="Trazado 122722" d="M271.2,89.055a26.119,26.119,0,0,0,3.289-12.722A25.782,25.782,0,0,0,248.854,50.4a25.355,25.355,0,0,0-6.854.933,26.022,26.022,0,0,1,0,50.008,25.391,25.391,0,0,0,20.448-3l12.055,4.659Z" transform="translate(-60.38 -42.905)" fill="#ebebeb"/>
  </g>
  <g id="freepik--Floor--inject-38" transform="translate(0 379.472)">
    <path id="Trazado_122723" data-name="Trazado 122723" d="M452.27,469.05c0,.124-92.829.231-207.31.231s-207.33-.107-207.33-.231,92.809-.24,207.33-.24S452.27,468.917,452.27,469.05Z" transform="translate(-37.63 -468.81)" fill="#263238"/>
  </g>
  <g id="freepik--Characters--inject-38" transform="translate(93.621 32.02)">
    <path id="Trazado_122724" data-name="Trazado 122724" d="M150.076,437l.72,22.119,5.619,17.336a2.267,2.267,0,0,1-1.6,2.9h0a2.258,2.258,0,0,1-2.027-.471c-3.556-3.049-16.563-14.322-16.527-15.94,0-1.885-2.32-23.292-2.32-23.292Z" transform="translate(-114.399 -117.828)" fill="#7d7d7d"/>
    <path id="Trazado_122725" data-name="Trazado 122725" d="M155.09,482.375l-18.67-17.9.053.889a3.414,3.414,0,0,0,.933,2.169c1.494,1.565,5.716,5.814,15.567,14.331a2.258,2.258,0,0,0,2.089.471Z" transform="translate(-114.674 -120.876)" fill="#e0e0e0"/>
    <path id="Trazado_122726" data-name="Trazado 122726" d="M140.864,456.141a1.369,1.369,0,0,1,.471,1.778,1.307,1.307,0,0,1-1.778.489,1.44,1.44,0,0,1-.5-1.876,1.369,1.369,0,0,1,1.876-.3" transform="translate(-114.949 -119.935)" fill="#fff"/>
    <path id="Trazado_122727" data-name="Trazado 122727" d="M151.127,473.731c.124.053.56-1.138,1.84-1.831a6.981,6.981,0,0,1,2.516-.631c0-.053-.267-.2-.791-.249a3.5,3.5,0,0,0-1.965.453,3.556,3.556,0,0,0-1.4,1.44C151.082,473.384,151.073,473.713,151.127,473.731Z" transform="translate(-116.303 -121.602)" fill="#263238"/>
    <path id="Trazado_122728" data-name="Trazado 122728" d="M153.089,477.078a16.6,16.6,0,0,1,1.9-1.067,17.673,17.673,0,0,1,2.143-.391,2.48,2.48,0,0,0-2.311-.062A2.609,2.609,0,0,0,153.089,477.078Z" transform="translate(-116.523 -122.079)" fill="#263238"/>
    <path id="Trazado_122729" data-name="Trazado 122729" d="M147.59,469.645a23.853,23.853,0,0,1,2.836-1.832,22.776,22.776,0,0,1,3.236-.951A6.223,6.223,0,0,0,147.59,469.645Z" transform="translate(-115.914 -121.136)" fill="#263238"/>
    <path id="Trazado_122730" data-name="Trazado 122730" d="M146.71,462.293c.071.124,1.262-.453,2.845-.6s2.872.16,2.907,0a4.374,4.374,0,0,0-2.952-.516A4.445,4.445,0,0,0,146.71,462.293Z" transform="translate(-115.816 -120.504)" fill="#263238"/>
    <path id="Trazado_122731" data-name="Trazado 122731" d="M146.29,454.992a11.112,11.112,0,0,1,2.943-.7,10.8,10.8,0,0,1,2.969.578c0-.053-.222-.311-.747-.578a4.836,4.836,0,0,0-2.231-.48,4.916,4.916,0,0,0-2.214.569C146.5,454.672,146.254,454.948,146.29,454.992Z" transform="translate(-115.769 -119.693)" fill="#263238"/>
    <path id="Trazado_122732" data-name="Trazado 122732" d="M149.072,452.467a1.946,1.946,0,0,0,0-.889,5.92,5.92,0,0,0-.782-2.151,2.667,2.667,0,0,0-1.174-1.165.889.889,0,0,0-1.013.258,1.44,1.44,0,0,0-.293,1.022,3.2,3.2,0,0,0,2.969,2.8,3.716,3.716,0,0,0,3.556-2.143,1.3,1.3,0,0,0,0-1.076.889.889,0,0,0-.96-.418,3.138,3.138,0,0,0-1.414.836,6.436,6.436,0,0,0-1.414,1.778,1.956,1.956,0,0,0-.293.782,10.427,10.427,0,0,1,1.929-2.32,3.031,3.031,0,0,1,1.254-.7.48.48,0,0,1,.525.231.889.889,0,0,1-.044.7,3.334,3.334,0,0,1-3.094,1.831,2.791,2.791,0,0,1-2.552-2.347,1.04,1.04,0,0,1,.178-.72.48.48,0,0,1,.551-.151,2.32,2.32,0,0,1,1.013.969A8.632,8.632,0,0,1,149.072,452.467Z" transform="translate(-115.715 -119.071)" fill="#263238"/>
    <path id="Trazado_122733" data-name="Trazado 122733" d="M198.435,440.586l-1.147,16.545s16.438,6.721,16.518,9.779l-32.156-1.067.729-25.853Z" transform="translate(-119.694 -118.16)" fill="#7d7d7d"/>
    <path id="Trazado_122734" data-name="Trazado 122734" d="M187.985,457.33a1.325,1.325,0,0,0-.987,1.485,1.271,1.271,0,0,0,1.449.969,1.387,1.387,0,0,0,1-1.565,1.307,1.307,0,0,0-1.609-.836" transform="translate(-120.285 -120.084)" fill="#e0e0e0"/>
    <path id="Trazado_122735" data-name="Trazado 122735" d="M181.65,468.765l.178-2.6,30.769,2s1.4.676,1.209,1.671Z" transform="translate(-119.694 -121.064)" fill="#e0e0e0"/>
    <path id="Trazado_122736" data-name="Trazado 122736" d="M199.467,459.091c0,.151-.8.2-1.591.676s-1.218,1.129-1.36,1.058.116-.96,1.085-1.529A1.883,1.883,0,0,1,199.467,459.091Z" transform="translate(-121.339 -120.263)" fill="#263238"/>
    <path id="Trazado_122737" data-name="Trazado 122737" d="M203.3,460.791c0,.151-.658.4-1.218,1.049s-.729,1.342-.889,1.325-.222-.889.48-1.689S203.3,460.64,203.3,460.791Z" transform="translate(-121.851 -120.46)" fill="#263238"/>
    <path id="Trazado_122738" data-name="Trazado 122738" d="M205.559,465.077c-.142,0-.338-.756.1-1.609s1.174-1.165,1.236-1.031-.4.578-.747,1.28S205.719,465.068,205.559,465.077Z" transform="translate(-122.328 -120.648)" fill="#263238"/>
    <path id="Trazado_122739" data-name="Trazado 122739" d="M199.242,454.753c-.071.142-.782-.1-1.671-.062s-1.591.285-1.671.142.6-.676,1.654-.693S199.322,454.638,199.242,454.753Z" transform="translate(-121.274 -119.73)" fill="#263238"/>
    <path id="Trazado_122740" data-name="Trazado 122740" d="M199.245,450.73a2.926,2.926,0,0,1-1.645-.062,7.015,7.015,0,0,1-1.671-.569,7.4,7.4,0,0,1-.889-.524,1.779,1.779,0,0,1-.471-.391.676.676,0,0,1-.044-.836.889.889,0,0,1,.7-.338,2.248,2.248,0,0,1,.6.1,6.225,6.225,0,0,1,1,.382,5.61,5.61,0,0,1,1.449,1.022c.72.72.96,1.307.889,1.342s-.427-.453-1.165-1.049a6.134,6.134,0,0,0-1.4-.889,5.828,5.828,0,0,0-.889-.311c-.338-.107-.631-.116-.72,0s-.044.08,0,.178a1.779,1.779,0,0,0,.347.293,9.557,9.557,0,0,0,.836.507,8.477,8.477,0,0,0,1.538.649,12.873,12.873,0,0,1,1.547.5Z" transform="translate(-121.109 -119.05)" fill="#263238"/>
    <path id="Trazado_122741" data-name="Trazado 122741" d="M199.562,450.687a2.667,2.667,0,0,1-.373-1.574,5.441,5.441,0,0,1,.72-2.72,1.325,1.325,0,0,1,1.058-.773.756.756,0,0,1,.658.471,2.054,2.054,0,0,1,.142.6,3.388,3.388,0,0,1,0,1.085,3.628,3.628,0,0,1-.738,1.636c-.658.818-1.316.987-1.334.889s.507-.365,1.022-1.147a3.8,3.8,0,0,0,.56-1.494,3.646,3.646,0,0,0,0-.934c-.044-.347-.16-.622-.293-.6a1.117,1.117,0,0,0-.578.516,5.1,5.1,0,0,0-.427.889,5.673,5.673,0,0,0-.364,1.6C199.5,450.074,199.651,450.67,199.562,450.687Z" transform="translate(-121.639 -118.785)" fill="#263238"/>
    <path id="Trazado_122742" data-name="Trazado 122742" d="M126.17,256.263,130.917,434.1l25.373-.756L162.336,250.2Z" transform="translate(-113.537 -97.098)" fill="#263238"/>
    <path id="Trazado_122743" data-name="Trazado 122743" d="M182.208,249.86s18.83,75.389,19.407,88.245-4.027,93.241-4.027,93.241H172.749l2.08-91.57L156,262.378l4.561-12.117Z" transform="translate(-116.847 -97.06)" fill="#263238"/>
    <path id="Trazado_122744" data-name="Trazado 122744" d="M167.631,260.27a1.1,1.1,0,0,1,0,.249v.7c0,.658-.053,1.556-.1,2.712-.107,2.383-.267,5.779-.453,9.957-.436,8.437-1.031,20.039-1.689,32.894s-1.351,24.4-1.778,32.841c-.249,4.178-.462,7.566-.6,9.957-.08,1.147-.142,2.054-.187,2.667a6.036,6.036,0,0,1-.062.7,1.015,1.015,0,0,1,0,.24.979.979,0,0,1,0-.24v-.7c0-.658.062-1.565.107-2.712.107-2.383.267-5.779.453-9.957.436-8.437,1.031-20.039,1.68-32.894s1.351-24.4,1.822-32.841c.249-4.178.453-7.566.6-9.948.08-1.147.142-2.054.187-2.712a6.233,6.233,0,0,1,.062-.7A.64.64,0,0,1,167.631,260.27Z" transform="translate(-117.596 -98.216)" fill="#455a64"/>
    <path id="Trazado_122745" data-name="Trazado 122745" d="M161.4,140.829s9.219,45.732,9.353,58.613,4.659,38.059,4.659,38.059H135.534l-.889-69.673L131.8,147.052l5.992-8.552Z" transform="translate(-114.162 -84.702)" fill="#f5f5f5"/>
    <path id="Trazado_122746" data-name="Trazado 122746" d="M165.65,142.63s9.521,2.8,12.037,6.321c1.983,2.783,4.667,55.377,4.667,55.377l4.054,46.336-3.992-.373-5.636-17.345Z" transform="translate(-117.918 -85.161)" fill="#f5ca56"/>
    <path id="Trazado_122747" data-name="Trazado 122747" d="M179.19,149.74l26.884,24.67,33.081-10.722,6.6,13.9-35.3,16c-5.041,2.151-8.206.969-11.708-1.84l-18.518-14.829Z" transform="translate(-119.421 -85.95)" fill="#f5ca56"/>
    <path id="Trazado_122748" data-name="Trazado 122748" d="M239.549,170.363a.738.738,0,0,1-.3.987.72.72,0,0,1-.978-.3.711.711,0,0,1,.293-.978A.738.738,0,0,1,239.549,170.363Z" transform="translate(-125.967 -88.196)" fill="#263238"/>
    <path id="Trazado_122749" data-name="Trazado 122749" d="M238.906,171.458a.613.613,0,0,1-.222,0,.747.747,0,0,1-.445-.365.782.782,0,0,1-.053-.569.765.765,0,0,1,.933-.5.756.756,0,0,1,.445.365.747.747,0,0,1,.053.569.729.729,0,0,1-.364.445.694.694,0,0,1-.347.053Zm0-1.449a.747.747,0,0,0-.329.08.72.72,0,0,0-.338.418.7.7,0,0,0,1,.818.676.676,0,0,0,.338-.409.72.72,0,0,0-.053-.542.7.7,0,0,0-.622-.373Z" transform="translate(-125.964 -88.198)" fill="#263238"/>
    <path id="Trazado_122750" data-name="Trazado 122750" d="M242.669,169.622a.738.738,0,0,1-.3.987.72.72,0,0,1-.978-.3.711.711,0,0,1,.293-.978.72.72,0,0,1,.987.293Z" transform="translate(-126.313 -88.114)" fill="#263238"/>
    <path id="Trazado_122751" data-name="Trazado 122751" d="M242.026,170.717a.613.613,0,0,1-.222,0,.747.747,0,0,1-.445-.364.75.75,0,1,1,1.325-.7.747.747,0,0,1,.053.569.756.756,0,0,1-.364.445.8.8,0,0,1-.347.053Zm0-1.458a.764.764,0,0,0-.329.089.7.7,0,0,0-.284.951.667.667,0,0,0,.418.338.7.7,0,1,0,.4-1.342.755.755,0,0,0-.213-.036Z" transform="translate(-126.31 -88.115)" fill="#263238"/>
    <path id="Trazado_122752" data-name="Trazado 122752" d="M245.63,169.022a.72.72,0,0,1-.293.987.738.738,0,0,1-.987-.3.72.72,0,0,1,.3-.978.711.711,0,0,1,.978.293Z" transform="translate(-126.642 -88.047)" fill="#263238"/>
    <path id="Trazado_122753" data-name="Trazado 122753" d="M245,170.119a.615.615,0,0,1-.222,0,.747.747,0,0,1-.5-.889.711.711,0,0,1,.364-.436.747.747,0,0,1,1.013.3h0a.756.756,0,0,1-.311,1.013.8.8,0,0,1-.347.009Zm0-1.449a.747.747,0,0,0-.329.08.7.7,0,0,0-.285.951.667.667,0,0,0,.409.338.72.72,0,0,0,.542-.053.7.7,0,0,0,.285-.951h0a.7.7,0,0,0-.631-.365Z" transform="translate(-126.641 -88.05)" fill="#263238"/>
    <path id="Trazado_122754" data-name="Trazado 122754" d="M247.01,166.093l2.56-.933,5.876,12.375-2.5,1.067Z" transform="translate(-126.947 -87.661)" fill="#e0e0e0"/>
    <path id="Trazado_122755" data-name="Trazado 122755" d="M180.154,160.71a8,8,0,0,1,.151,1.378c.1.978.231,2.24.391,3.769.365,3.263.889,7.61,1.4,12.446s.969,9.255,1.165,12.446c.107,1.6.151,2.9.16,3.8a6.728,6.728,0,0,1-.044,1.387,8.164,8.164,0,0,1-.133-1.378c-.062-.889-.16-2.187-.311-3.778-.285-3.183-.756-7.583-1.3-12.446s-1-9.246-1.271-12.446c-.133-1.6-.2-2.9-.24-3.8a6.966,6.966,0,0,1,.027-1.378Z" transform="translate(-119.522 -87.167)" fill="#263238"/>
    <path id="Trazado_122756" data-name="Trazado 122756" d="M186.294,167.65a51.713,51.713,0,0,1-1.689,6.632,52.143,52.143,0,0,1-2.125,6.5,50.678,50.678,0,0,1,1.68-6.632,50.675,50.675,0,0,1,2.134-6.5Z" transform="translate(-119.786 -87.937)" fill="#263238"/>
    <path id="Trazado_122757" data-name="Trazado 122757" d="M208.984,185.8a2.809,2.809,0,0,1-.6-1.174,8.508,8.508,0,0,1,.391-6.223,2.961,2.961,0,0,1,.738-1.094,16.687,16.687,0,0,0-1.067,4.214,16.579,16.579,0,0,0,.533,4.276Z" transform="translate(-122.615 -89.009)" fill="#263238"/>
    <path id="Trazado_122758" data-name="Trazado 122758" d="M205.495,219.01l3.441.267-1.36,14.349-3.325-.373Z" transform="translate(-122.202 -93.637)" fill="#e0e0e0"/>
    <path id="Trazado_122759" data-name="Trazado 122759" d="M135.59,139.62l-18.554,11.833a12.037,12.037,0,0,0-4.445,13.664l14.224,44.709-5.13,40.629,40.664-1.725-1-17.781L157.9,199.087a63.122,63.122,0,0,0-4.365-17.194Z" transform="translate(-111.96 -84.827)" fill="#f5ca56"/>
    <path id="Trazado_122760" data-name="Trazado 122760" d="M116.58,168.991l18.554,38.833a11.486,11.486,0,0,0,7.717,6.223l51.492,12.2,1.316-14.989-39.3-14.749-19.772-37.944a11.291,11.291,0,0,0-15.842-4.445h0a11.282,11.282,0,0,0-4.161,14.873Z" transform="translate(-112.33 -86.255)" fill="#f5ca56"/>
    <path id="Trazado_122761" data-name="Trazado 122761" d="M196.274,211.353a.694.694,0,0,1-.213-.053l-.6-.2-2.329-.836-8.624-3.174-29.062-10.864h-.08v-.089l-3.423-6.774c-3.218-6.277-6.428-12.189-9.433-17.523-1.5-2.667-2.952-5.183-4.321-7.53l-1.991-3.4c-.32-.551-.64-1.076-.978-1.565a13.119,13.119,0,0,0-1.049-1.4,12.358,12.358,0,0,0-4.943-3.556,11.158,11.158,0,0,0-4.561-.818,8.081,8.081,0,0,0-3.823,1.022,1.058,1.058,0,0,1,.213-.151,3.9,3.9,0,0,1,.685-.382,8.145,8.145,0,0,1,2.916-.667,11.291,11.291,0,0,1,4.658.747,12.642,12.642,0,0,1,5.1,3.618,13.333,13.333,0,0,1,1.085,1.422c.356.507.685,1.031,1,1.582l2.018,3.378q2.08,3.556,4.365,7.521c3.023,5.334,6.223,11.228,9.477,17.514,1.182,2.32,2.338,4.605,3.414,6.792l-.124-.116,29.009,11.006,8.57,3.3,2.3.889.6.24Z" transform="translate(-112.945 -86.353)" fill="#263238"/>
    <path id="Trazado_122762" data-name="Trazado 122762" d="M195.668,229.009a.729.729,0,1,1-.729-.729.729.729,0,0,1,.729.729Z" transform="translate(-121.087 -94.666)" fill="#263238"/>
    <path id="Trazado_122763" data-name="Trazado 122763" d="M194.907,229.754a.747.747,0,1,1,.747-.747.747.747,0,0,1-.747.747Zm0-1.449a.7.7,0,1,0,.7.7.7.7,0,0,0-.7-.7Z" transform="translate(-121.082 -94.663)" fill="#263238"/>
    <path id="Trazado_122764" data-name="Trazado 122764" d="M198.818,229.829a.729.729,0,1,1-.729-.729A.729.729,0,0,1,198.818,229.829Z" transform="translate(-121.437 -94.757)" fill="#263238"/>
    <path id="Trazado_122765" data-name="Trazado 122765" d="M198.037,230.574a.747.747,0,1,1,.747-.747A.756.756,0,0,1,198.037,230.574Zm0-1.449a.7.7,0,1,0,.7.7A.7.7,0,0,0,198.037,229.124Z" transform="translate(-121.429 -94.754)" fill="#263238"/>
    <circle id="Elipse_4183" data-name="Elipse 4183" cx="0.729" cy="0.729" r="0.729" transform="translate(78.457 135.117)" fill="#263238"/>
    <path id="Trazado_122766" data-name="Trazado 122766" d="M200.907,231.444a.747.747,0,1,1,.747-.747.756.756,0,0,1-.747.747Zm0-1.449a.7.7,0,1,0,.7.7A.7.7,0,0,0,200.907,229.994Z" transform="translate(-121.748 -94.851)" fill="#263238"/>
    <path id="Trazado_122767" data-name="Trazado 122767" d="M194.954,229.228a.775.775,0,0,1-.249,0l-.72-.16-2.774-.667-10.188-2.507c-8.6-2.107-20.448-5.094-33.623-8.144-1.645-.391-3.272-.7-4.881-1.138a10.873,10.873,0,0,1-4.4-2.2,12.9,12.9,0,0,1-2.667-3.912l-1.938-4.054-6.694-14.073-4.445-9.495c-.5-1.1-.889-1.965-1.182-2.587l-.3-.685a1.262,1.262,0,0,1-.089-.231,2.145,2.145,0,0,1,.133.213c.08.142.2.391.338.658l1.271,2.56c1.094,2.258,2.667,5.467,4.587,9.424s4.205,8.748,6.748,14.02c.631,1.316,1.289,2.667,1.947,4.045a12.776,12.776,0,0,0,2.6,3.769,10.366,10.366,0,0,0,4.223,2.089c1.574.427,3.218.738,4.863,1.129,13.166,3.058,25.017,6.09,33.6,8.277,4.258,1.12,7.717,2.018,10.153,2.667l2.747.756.711.2Z" transform="translate(-112.941 -89.239)" fill="#263238"/>
    <path id="Trazado_122768" data-name="Trazado 122768" d="M155.086,232.72a5.335,5.335,0,0,1-.613.516c-.418.311-1.013.738-1.778,1.254a28.912,28.912,0,0,1-6.4,3.325,14.731,14.731,0,0,1-7.166.72,9.707,9.707,0,0,1-2.116-.613,2.134,2.134,0,0,1-.7-.382,23.194,23.194,0,0,0,2.863.667,15.549,15.549,0,0,0,6.97-.827,34.751,34.751,0,0,0,6.374-3.165A21.529,21.529,0,0,1,155.086,232.72Z" transform="translate(-114.662 -95.158)" fill="#263238"/>
    <path id="Trazado_122769" data-name="Trazado 122769" d="M157.318,238.52a1.307,1.307,0,0,1,.124.329,8.271,8.271,0,0,1,.24,1,11.185,11.185,0,0,1,0,3.778,11.638,11.638,0,0,1-2.311,5.085,11.406,11.406,0,0,1-12.553,3.556,11.558,11.558,0,0,1-4.614-3.156,11.15,11.15,0,0,1-1.991-3.209,9.388,9.388,0,0,1-.311-.978c-.053-.222-.08-.347-.062-.347a13.513,13.513,0,0,0,2.6,4.312,11.468,11.468,0,0,0,4.516,2.969,11.113,11.113,0,0,0,12.073-3.369,11.468,11.468,0,0,0,2.32-4.881A13.531,13.531,0,0,0,157.318,238.52Z" transform="translate(-114.609 -95.802)" fill="#263238"/>
    <path id="Trazado_122770" data-name="Trazado 122770" d="M140.789,97.8l.116,33.125a9.85,9.85,0,0,0,10.375,9.779h0a9.868,9.868,0,0,0,9.335-9.842v-4.836s8.428-.818,9.006-9.166c.285-4.036.178-12.393,0-19.959a15.576,15.576,0,0,0-14.7-15.2h-.809C145.421,81.664,140.531,89.079,140.789,97.8Z" transform="translate(-115.158 -78.399)" fill="#b78876"/>
    <path id="Trazado_122771" data-name="Trazado 122771" d="M161.773,130.946a19.479,19.479,0,0,1-10.713-3.716s2.231,6.161,10.606,5.876Z" transform="translate(-116.299 -83.452)" fill="#aa6550"/>
    <path id="Trazado_122772" data-name="Trazado 122772" d="M170.6,104.167a1.2,1.2,0,0,1-1.227,1.138,1.138,1.138,0,0,1-1.165-1.147,1.2,1.2,0,0,1,1.218-1.138,1.147,1.147,0,0,1,1.174,1.147Z" transform="translate(-118.202 -80.765)" fill="#263238"/>
    <path id="Trazado_122773" data-name="Trazado 122773" d="M170.57,102.546c-.151.151-1.022-.569-2.3-.64s-2.267.516-2.391.356.1-.347.525-.622a3.325,3.325,0,0,1,1.929-.48,3.111,3.111,0,0,1,1.823.711C170.534,102.191,170.65,102.484,170.57,102.546Z" transform="translate(-117.939 -80.558)" fill="#263238"/>
    <path id="Trazado_122774" data-name="Trazado 122774" d="M156.563,104.057a1.191,1.191,0,0,1-1.218,1.138,1.138,1.138,0,0,1-1.165-1.147,1.191,1.191,0,0,1,1.218-1.138,1.138,1.138,0,0,1,1.165,1.147Z" transform="translate(-116.645 -80.753)" fill="#263238"/>
    <path id="Trazado_122775" data-name="Trazado 122775" d="M156.2,102.226c-.16.142-1.022-.578-2.311-.649s-2.258.525-2.391.356.107-.347.533-.622a3.218,3.218,0,0,1,1.92-.471,3.165,3.165,0,0,1,1.831.7C156.154,101.87,156.269,102.155,156.2,102.226Z" transform="translate(-116.343 -80.522)" fill="#263238"/>
    <path id="Trazado_122776" data-name="Trazado 122776" d="M161.36,112.41a8.534,8.534,0,0,1,2.107-.258c.329,0,.649-.062.711-.284a1.68,1.68,0,0,0-.16-.978c-.267-.818-.542-1.662-.827-2.56-1.147-3.627-1.956-6.605-1.778-6.65s1.191,2.863,2.338,6.49c.267.889.533,1.778.782,2.569a1.876,1.876,0,0,1,.1,1.3.827.827,0,0,1-.569.445,2.143,2.143,0,0,1-.56,0A8.331,8.331,0,0,1,161.36,112.41Z" transform="translate(-117.442 -80.616)" fill="#263238"/>
    <path id="Trazado_122777" data-name="Trazado 122777" d="M156.635,99.261c-.151.347-1.422.107-2.934.2s-2.765.436-2.943.107c-.08-.151.151-.471.658-.782a4.845,4.845,0,0,1,2.214-.631,4.916,4.916,0,0,1,2.267.4C156.439,98.808,156.7,99.1,156.635,99.261Z" transform="translate(-116.264 -80.225)" fill="#263238"/>
    <path id="Trazado_122778" data-name="Trazado 122778" d="M170.456,99.1c-.24.276-1.111-.08-2.169-.151s-1.974.08-2.169-.231c-.08-.151.08-.436.489-.693a3.165,3.165,0,0,1,3.494.311C170.456,98.653,170.6,98.955,170.456,99.1Z" transform="translate(-117.968 -80.168)" fill="#263238"/>
    <path id="Trazado_122779" data-name="Trazado 122779" d="M140.437,106.763c-.142-.071-5.645-2.027-5.788,3.7s5.628,4.685,5.645,4.525S140.437,106.763,140.437,106.763Z" transform="translate(-114.478 -81.138)" fill="#b78876"/>
    <path id="Trazado_122780" data-name="Trazado 122780" d="M138.777,113a2.692,2.692,0,0,1-.267.142.978.978,0,0,1-.747,0,2.463,2.463,0,0,1-1.085-2.24,3.307,3.307,0,0,1,.311-1.422,1.174,1.174,0,0,1,.773-.747.5.5,0,0,1,.578.293c.071.16,0,.276.062.284s.124-.1.089-.329a.676.676,0,0,0-.222-.365.738.738,0,0,0-.542-.16,1.4,1.4,0,0,0-1.067.889,3.361,3.361,0,0,0-.382,1.582,2.578,2.578,0,0,0,1.4,2.507,1.094,1.094,0,0,0,.889-.124C138.768,113.136,138.8,113.011,138.777,113Z" transform="translate(-114.658 -81.368)" fill="#aa6550"/>
    <path id="Trazado_122781" data-name="Trazado 122781" d="M137.533,103.5a3.014,3.014,0,0,1,2.667,1.565c.32.836.356,1.778.676,2.6a2.027,2.027,0,0,0,2,1.467,1.778,1.778,0,0,0,1.271-1.236,4.926,4.926,0,0,0,.116-1.84c-.178-2.667-.6-5.334-.542-8.063a13.744,13.744,0,0,1,2.169-7.663,7.521,7.521,0,0,1,6.9-3.378c1.778.249,3.343,1.262,5.085,1.609a7.006,7.006,0,0,0,5.912-1.6,2.019,2.019,0,0,1,.285-.2,1.538,1.538,0,0,0,.649-1.778,1.511,1.511,0,0,0-.3-.569c-3.316-3.432-9.575-4.694-14.224-3.8a16.723,16.723,0,0,0-11.442,8.135c-2.231,4.223-1.991,10.277-1.138,14.722" transform="translate(-114.739 -78.248)" fill="#263238"/>
    <path id="Trazado_122782" data-name="Trazado 122782" d="M157.971,114.88c.213,0,.213,1.378,1.4,2.365s2.667.836,2.667,1.031-.329.276-.96.284a3.423,3.423,0,0,1-2.24-.773,3.023,3.023,0,0,1-1.085-1.983C157.677,115.218,157.837,114.871,157.971,114.88Z" transform="translate(-117.04 -82.081)" fill="#263238"/>
    <path id="Trazado_122783" data-name="Trazado 122783" d="M247.81,167.013s6.268-5.5,7.45-5.912,10.624-.578,11.255-.107,10.188,5.708,8.606,6.517-8.206-2.987-8.206-2.987l-1.111.151s5.779,3.085,6.8,4.267.044,2.409-1.031,1.9-6.037-3.361-6.428-3.254,5.281,3.423,5.805,4.045c.7.818.249,2.418-.845,1.956-.64-.267-5.868-3.734-5.868-3.734a52.307,52.307,0,0,1,4.232,3.867c.462.889-.427,1.7-1.342,1.138-.622-.382-3.316-3.032-4.152-3.556,0,0-.889-.071-2.285,1.387s-6.739,3.441-6.739,3.441Z" transform="translate(-127.036 -87.167)" fill="#b78876"/>
    <path id="Trazado_122784" data-name="Trazado 122784" d="M276.87,167.963a5.032,5.032,0,0,1-2.027-.124,11.807,11.807,0,0,1-2.125-.64c-.738-.356-1.547-.765-2.4-1.2l-1.778-.889h.124a30.48,30.48,0,0,1-4.854-.133,28.1,28.1,0,0,1,4.845-.347h.116l1.778.889,2.32,1.218a13.948,13.948,0,0,0,2.018.711C276.105,167.8,276.879,167.883,276.87,167.963Z" transform="translate(-128.811 -87.602)" fill="#aa6550"/>
    <path id="Trazado_122785" data-name="Trazado 122785" d="M250.43,169.047a2.125,2.125,0,0,0,2.356.809c.889-.187,1.662-.658,2.516-.889,2.569-.738,5.423.631,7.948-.231.356-.124.747-.382.711-.747s-.427-.516-.756-.622l-8.428-2.667" transform="translate(-127.326 -87.61)" fill="#b78876"/>
    <path id="Trazado_122786" data-name="Trazado 122786" d="M254.774,164.66a3.317,3.317,0,0,1,.942.2c.6.16,1.449.409,2.507.72l3.7,1.12,1.067.329c.338.133.827.16,1.147.685a.738.738,0,0,1-.133.818,1.529,1.529,0,0,1-.6.4,5.681,5.681,0,0,1-1.28.285,34.178,34.178,0,0,1-4.756-.258,6.775,6.775,0,0,0-1.983.187c-.6.16-1.147.427-1.671.613a3.111,3.111,0,0,1-2.667,0c-.569-.329-.658-.738-.64-.729a2.667,2.667,0,0,0,.729.56,3.032,3.032,0,0,0,2.471-.178,17.906,17.906,0,0,1,1.689-.685,6.81,6.81,0,0,1,2.116-.249,39.794,39.794,0,0,0,4.685.222,5.832,5.832,0,0,0,1.147-.258c.347-.124.587-.373.48-.533a1.779,1.779,0,0,0-.889-.436l-1.067-.347L258.1,165.9c-1.04-.356-1.885-.649-2.463-.889A3.377,3.377,0,0,1,254.774,164.66Z" transform="translate(-127.323 -87.605)" fill="#aa6550"/>
    <path id="Trazado_122787" data-name="Trazado 122787" d="M207.342,219.271l10.393-1.031s13.744,9.415,12.446,11.486-3.556,0-3.556,0,2.445,3.014-1.511,3.956c0,0-.942,2.071-2.445,1.885h-.942s-.889,2.623-2.125,2.054a44.318,44.318,0,0,1-5.1-3.947l-10.668-.942Z" transform="translate(-122.155 -93.551)" fill="#b78876"/>
    <path id="Trazado_122788" data-name="Trazado 122788" d="M214.594,231.43s-2.667,1.022-3.209,2.1-.889,3.556.836,4.045a15.753,15.753,0,0,0,3.032-.1l-.658-2.8a19.819,19.819,0,0,1,1.582-1.636C216.746,232.568,216.123,230.728,214.594,231.43Z" transform="translate(-122.944 -94.998)" fill="#ffbe9d"/>
    <path id="Trazado_122789" data-name="Trazado 122789" d="M217.989,233.03s-2.667,1.022-3.209,2.089a2.347,2.347,0,0,0,1.529,3.325,12.318,12.318,0,0,0,2.747-.089l-.285-.542c-.533-1.049-.765-1.9.178-2.6a6.2,6.2,0,0,0,.622-.569,1.165,1.165,0,0,0-1.582-1.609Z" transform="translate(-123.343 -95.175)" fill="#ffbe9d"/>
    <path id="Trazado_122790" data-name="Trazado 122790" d="M219.088,238.548a1.565,1.565,0,0,1-.213-1.831,2.534,2.534,0,0,1,1.565-1.138,1.165,1.165,0,0,1,1.218.2,1.049,1.049,0,0,1,.169.8,4.223,4.223,0,0,1-1.085,1.947c-.249.311-.551.649-.951.64s-.693-.382-.889-.72" transform="translate(-123.802 -95.465)" fill="#ffbe9d"/>
    <path id="Trazado_122791" data-name="Trazado 122791" d="M155.769,144.56l2.338-.88,2.018,3.618L159,151.166l-2.383.587-2.374-3Z" transform="translate(-116.652 -85.277)" fill="#f5ca56"/>
    <path id="Trazado_122792" data-name="Trazado 122792" d="M156.91,152.687s3.032,16.634,5.548,28.333c0,0,2.071,9.779,2.907,11.984a31.838,31.838,0,0,0,3.814,6.223l2.925,1.138-1.778-16.438L159.3,152.1Z" transform="translate(-116.948 -86.212)" fill="#f5ca56"/>
    <g id="Grupo_55295" data-name="Grupo 55295" transform="translate(37.588 58.403)" opacity="0.4">
      <path id="Trazado_122793" data-name="Trazado 122793" d="M155.769,144.56l2.338-.88,2.018,3.618L159,151.166l-2.383.587-2.374-3Z" transform="translate(-154.24 -143.68)"/>
    </g>
    <g id="Grupo_55296" data-name="Grupo 55296" transform="translate(39.962 65.888)" opacity="0.4">
      <path id="Trazado_122794" data-name="Trazado 122794" d="M156.91,152.687s3.032,16.634,5.548,28.333c0,0,2.374,9.655,2.907,11.984.311,1.378,3.814,6.223,3.814,6.223l2.925,1.138-1.778-16.438L159.3,152.1Z" transform="translate(-156.91 -152.1)"/>
    </g>
    <path id="Trazado_122795" data-name="Trazado 122795" d="M139.959,133.3l14.029,10.108-3.032,8.339-12.766-13.14Z" transform="translate(-114.871 -84.125)" fill="#f5f5f5"/>
    <path id="Trazado_122796" data-name="Trazado 122796" d="M158.59,142.588l3.912-8.748,2.223,7.219-3.085,7.574Z" transform="translate(-117.135 -84.185)" fill="#f5f5f5"/>
    <path id="Trazado_122797" data-name="Trazado 122797" d="M154.066,143.985a2.667,2.667,0,0,1-.16.64l-.569,1.778c-.5,1.485-1.227,3.556-2.107,6.028l-.116.338-.249-.267-3.263-3.609c-2.543-2.818-4.827-5.387-6.454-7.263l-1.92-2.24a5.077,5.077,0,0,1-.658-.889,5.333,5.333,0,0,1,.791.747l2.027,2.134c1.7,1.778,4.018,4.356,6.552,7.174,1.147,1.28,2.24,2.507,3.254,3.627l-.365.071c.889-2.436,1.689-4.507,2.258-5.974l.685-1.7A2.33,2.33,0,0,1,154.066,143.985Z" transform="translate(-114.913 -84.702)" fill="#263238"/>
    <path id="Trazado_122798" data-name="Trazado 122798" d="M164.729,142a10.534,10.534,0,0,1-.658,2.045c-.453,1.236-1.12,2.943-1.885,4.81l-.329.809-.231.56-.2-.569a38.675,38.675,0,0,0-2.8-5.743,5.8,5.8,0,0,1,1.174,1.458,19.319,19.319,0,0,1,2.063,4.134h-.436c.107-.267.222-.533.329-.809.765-1.876,1.476-3.556,2.009-4.765a9.273,9.273,0,0,1,.96-1.929Z" transform="translate(-117.139 -85.091)" fill="#263238"/>
    <path id="Trazado_122799" data-name="Trazado 122799" d="M364.1,438.07l5.405,21.461,9.175,15.745a2.267,2.267,0,0,1-.951,3.174h0a2.24,2.24,0,0,1-2.071,0c-4.125-2.223-19.239-10.482-19.559-12.073-.356-1.84-7.21-22.226-7.21-22.226Z" transform="translate(-138.253 -117.947)" fill="#7d7d7d"/>
    <g id="Grupo_55297" data-name="Grupo 55297" transform="translate(217.5 346.963)" opacity="0.6">
      <path id="Trazado_122800" data-name="Trazado 122800" d="M378.622,481.8,356.61,468.26l.249.889a3.414,3.414,0,0,0,1.369,1.92c1.778,1.218,6.828,4.445,18.252,10.668a2.285,2.285,0,0,0,2.143,0Z" transform="translate(-356.61 -468.26)" fill="#fff"/>
    </g>
    <g id="Grupo_55298" data-name="Grupo 55298" transform="translate(218.268 338.815)" opacity="0.6">
      <path id="Trazado_122801" data-name="Trazado 122801" d="M359.177,459.153a1.369,1.369,0,0,1,.845,1.627,1.316,1.316,0,0,1-1.609.845,1.44,1.44,0,0,1-.889-1.725,1.36,1.36,0,0,1,1.778-.693" transform="translate(-357.474 -459.095)" fill="#fff"/>
    </g>
    <path id="Trazado_122802" data-name="Trazado 122802" d="M372.991,474.092a6.856,6.856,0,0,1,1.4-2.178,7.112,7.112,0,0,1,2.329-1.147c0-.053-.311-.142-.827-.08a3.645,3.645,0,0,0-2.9,2.569C372.866,473.772,372.92,474.092,372.991,474.092Z" transform="translate(-140.919 -121.564)" fill="#263238"/>
    <path id="Trazado_122803" data-name="Trazado 122803" d="M375.577,476.962c.133.071.622-.818,1.636-1.44a20.315,20.315,0,0,1,2.009-.845,2.516,2.516,0,0,0-2.267.436C375.808,475.842,375.453,476.935,375.577,476.962Z" transform="translate(-141.212 -121.998)" fill="#263238"/>
    <path id="Trazado_122804" data-name="Trazado 122804" d="M368.67,470.781a11.61,11.61,0,0,1,5.334-4A6.223,6.223,0,0,0,368.67,470.781Z" transform="translate(-140.448 -121.133)" fill="#263238"/>
    <path id="Trazado_122805" data-name="Trazado 122805" d="M366.2,463.852c.1.107,1.138-.711,2.667-1.182s2.836-.453,2.845-.6a4.347,4.347,0,0,0-3,.124A4.445,4.445,0,0,0,366.2,463.852Z" transform="translate(-140.174 -120.588)" fill="#263238"/>
    <path id="Trazado_122806" data-name="Trazado 122806" d="M364.239,456.82a10.668,10.668,0,0,1,2.729-1.307,11.074,11.074,0,0,1,3.023-.08c0-.053-.284-.249-.889-.4a4.91,4.91,0,0,0-2.285,0,4.845,4.845,0,0,0-2.036,1.031C364.373,456.456,364.195,456.767,364.239,456.82Z" transform="translate(-139.956 -119.814)" fill="#263238"/>
    <path id="Trazado_122807" data-name="Trazado 122807" d="M366.406,453.736a1.893,1.893,0,0,0-.187-.818,5.859,5.859,0,0,0-1.227-1.938,2.614,2.614,0,0,0-1.4-.889.889.889,0,0,0-.934.471,1.431,1.431,0,0,0-.071,1.049,3.2,3.2,0,0,0,3.494,2.116,3.734,3.734,0,0,0,3-2.854,1.307,1.307,0,0,0-.231-1.049.889.889,0,0,0-1.022-.2,3.165,3.165,0,0,0-1.209,1.12,6.445,6.445,0,0,0-1,2.063,2,2,0,0,0-.125.827,10.262,10.262,0,0,1,1.4-2.667,2.988,2.988,0,0,1,1.076-.951.48.48,0,0,1,.56.116.889.889,0,0,1,.107.693,3.325,3.325,0,0,1-2.667,2.445,2.783,2.783,0,0,1-3-1.778,1.093,1.093,0,0,1,0-.738.489.489,0,0,1,.516-.267,2.355,2.355,0,0,1,1.191.729,8.562,8.562,0,0,1,1.716,2.525Z" transform="translate(-139.766 -119.22)" fill="#263238"/>
    <path id="Trazado_122808" data-name="Trazado 122808" d="M288.711,442.5l1.147,16.545s-16.429,6.721-16.518,9.779l32.156-1.049-.72-25.853Z" transform="translate(-129.869 -118.374)" fill="#7d7d7d"/>
    <path id="Trazado_122809" data-name="Trazado 122809" d="M302.861,459.24a1.316,1.316,0,0,1,.96,1.476,1.271,1.271,0,0,1-1.449.978,1.387,1.387,0,0,1-1-1.565,1.316,1.316,0,0,1,1.618-.836" transform="translate(-132.977 -120.296)" fill="#e0e0e0"/>
    <path id="Trazado_122810" data-name="Trazado 122810" d="M305.494,470.675l-.169-2.6-30.769,2s-1.414.676-1.218,1.68Z" transform="translate(-129.867 -121.276)" fill="#e0e0e0"/>
    <path id="Trazado_122811" data-name="Trazado 122811" d="M291.33,460.98c0,.151.8.2,1.582.676s1.227,1.129,1.369,1.067-.124-.969-1.085-1.538S291.294,460.856,291.33,460.98Z" transform="translate(-131.865 -120.472)" fill="#263238"/>
    <path id="Trazado_122812" data-name="Trazado 122812" d="M287.59,462.7c0,.16.658.4,1.209,1.049s.738,1.342.889,1.334.231-.889-.48-1.7S287.59,462.559,287.59,462.7Z" transform="translate(-131.45 -120.673)" fill="#263238"/>
    <path id="Trazado_122813" data-name="Trazado 122813" d="M285.413,467c.151,0,.338-.765-.089-1.609s-1.182-1.165-1.245-1.031.409.578.756,1.271S285.262,466.979,285.413,467Z" transform="translate(-131.06 -120.861)" fill="#263238"/>
    <path id="Trazado_122814" data-name="Trazado 122814" d="M291.509,456.672c.071.133.782-.107,1.671-.071s1.591.284,1.662.151-.6-.676-1.654-.7S291.42,456.548,291.509,456.672Z" transform="translate(-131.884 -119.942)" fill="#263238"/>
    <path id="Trazado_122815" data-name="Trazado 122815" d="M291.32,452.659a3.157,3.157,0,0,0,1.609-.062,7.3,7.3,0,0,0,1.662-.578,6.794,6.794,0,0,0,.889-.525,1.778,1.778,0,0,0,.48-.391.685.685,0,0,0,.044-.836.889.889,0,0,0-.7-.338,1.991,1.991,0,0,0-.6.107,5.4,5.4,0,0,0-.987.373,5.609,5.609,0,0,0-1.449,1.022c-.729.72-.96,1.316-.889,1.342s.418-.453,1.156-1.049a6.534,6.534,0,0,1,1.414-.889,5.539,5.539,0,0,1,.889-.311c.338-.1.622-.116.72,0s0,.08,0,.178a1.565,1.565,0,0,1-.356.293,8.512,8.512,0,0,1-.836.516,9.888,9.888,0,0,1-1.529.649A9.667,9.667,0,0,0,291.32,452.659Z" transform="translate(-131.864 -119.263)" fill="#263238"/>
    <path id="Trazado_122816" data-name="Trazado 122816" d="M291.27,452.6a2.535,2.535,0,0,0,.373-1.565,5.334,5.334,0,0,0-.276-1.778,4.9,4.9,0,0,0-.444-.96,1.342,1.342,0,0,0-1.049-.782.756.756,0,0,0-.658.471,2.1,2.1,0,0,0-.151.6,3.646,3.646,0,0,0,0,1.085,3.717,3.717,0,0,0,.747,1.645c.658.809,1.316.978,1.325.889a8.591,8.591,0,0,1-1.014-1.156,3.663,3.663,0,0,1-.56-1.494,3.284,3.284,0,0,1,0-.933c0-.338.16-.622.284-.587a1.228,1.228,0,0,1,.587.507,6.359,6.359,0,0,1,.427.889,5.671,5.671,0,0,1,.365,1.6C291.332,451.982,291.19,452.577,291.27,452.6Z" transform="translate(-131.609 -118.994)" fill="#263238"/>
    <path id="Trazado_122817" data-name="Trazado 122817" d="M280.76,240.14l5.174,192.528,25.373-.765-1.956-165.234L341.676,436.5l22.91-5.983-29.578-190Z" transform="translate(-130.692 -95.982)" fill="#263238"/>
    <path id="Trazado_122818" data-name="Trazado 122818" d="M296.371,434.748c-.133,0-.231-39.908-.231-89.134s.1-89.134.231-89.134.231,39.9.231,89.134S296.5,434.748,296.371,434.748Z" transform="translate(-132.399 -97.795)" fill="#455a64"/>
    <path id="Trazado_122819" data-name="Trazado 122819" d="M354.174,439.6c-.124,0-6.045-38.228-13.229-85.444s-12.926-85.515-12.775-85.533,6.045,38.228,13.229,85.462S354.307,439.58,354.174,439.6Z" transform="translate(-135.953 -99.142)" fill="#455a64"/>
    <path id="Trazado_122820" data-name="Trazado 122820" d="M317.286,101.753a38.791,38.791,0,0,0,2.143-6.125c.3-1.6.782-3.992.142-5.485a3.84,3.84,0,0,0-4.152-2.525,9.308,9.308,0,0,0-5.379-7.281,23.559,23.559,0,0,0-8.89-2.311,7.512,7.512,0,0,0-3.334.418,4.276,4.276,0,0,0-2.009,2.16,7.37,7.37,0,0,0-6.534-1.04c-2.454.658-5.245,1.983-6.321,4.276a7.192,7.192,0,0,0-.187,5.432c.471,1.494,2.054,3.841,3.556,3.289" transform="translate(-130.865 -77.987)" fill="#263238"/>
    <path id="Trazado_122821" data-name="Trazado 122821" d="M305.344,144.357h0A10.979,10.979,0,0,1,294.6,132.8c.151-3.067.293-5.548.293-5.548s-8.375-1.085-8.686-9.424.658-27.506.658-27.506h0a28.982,28.982,0,0,1,29.2,2.978l1.253.889-.773,39.393a10.988,10.988,0,0,1-11.211,10.775Z" transform="translate(-131.29 -79.064)" fill="#ffbe9d"/>
    <path id="Trazado_122822" data-name="Trazado 122822" d="M295.986,131.671a19.434,19.434,0,0,0,10.793-3.361s-2.569,6.463-10.908,5.921Z" transform="translate(-132.369 -83.572)" fill="#eb996e"/>
    <path id="Trazado_122823" data-name="Trazado 122823" d="M320.3,104.711c.142-.062,5.69-1.84,5.645,3.867s-5.752,4.49-5.761,4.321S320.3,104.711,320.3,104.711Z" transform="translate(-135.067 -80.918)" fill="#ffbe9d"/>
    <path id="Trazado_122824" data-name="Trazado 122824" d="M322.149,110.976a2.731,2.731,0,0,0,.267.151.96.96,0,0,0,.747,0,2.445,2.445,0,0,0,1.156-2.2,3.2,3.2,0,0,0-.276-1.422,1.129,1.129,0,0,0-.738-.765.5.5,0,0,0-.587.267c-.08.16-.044.267-.071.276s-.124-.089-.08-.329a.649.649,0,0,1,.231-.356.791.791,0,0,1,.551-.142,1.422,1.422,0,0,1,1.031.889,3.271,3.271,0,0,1,.329,1.591,2.587,2.587,0,0,1-1.467,2.454,1.093,1.093,0,0,1-.889-.16C322.158,111.118,322.132,110.993,322.149,110.976Z" transform="translate(-135.285 -81.146)" fill="#eb996e"/>
    <path id="Trazado_122825" data-name="Trazado 122825" d="M289.39,105.182a1.2,1.2,0,0,0,1.182,1.174,1.138,1.138,0,0,0,1.2-1.1,1.191,1.191,0,0,0-1.182-1.174,1.147,1.147,0,0,0-1.2,1.1Z" transform="translate(-131.65 -80.883)" fill="#263238"/>
    <path id="Trazado_122826" data-name="Trazado 122826" d="M289.058,103.657c.151.151,1.04-.533,2.32-.56s2.24.587,2.374.427-.089-.347-.507-.64a3.29,3.29,0,0,0-1.9-.533,3.13,3.13,0,0,0-1.84.649C289.112,103.31,289.005,103.594,289.058,103.657Z" transform="translate(-131.612 -80.691)" fill="#263238"/>
    <path id="Trazado_122827" data-name="Trazado 122827" d="M303.51,105.171a1.2,1.2,0,0,0,1.182,1.165,1.129,1.129,0,0,0,1.2-1.1,1.191,1.191,0,0,0-1.174-1.173,1.156,1.156,0,0,0-1.209,1.111Z" transform="translate(-133.217 -80.88)" fill="#263238"/>
    <path id="Trazado_122828" data-name="Trazado 122828" d="M303.228,103.576c.16.151,1.04-.542,2.32-.569s2.24.587,2.374.427-.089-.347-.507-.631a3.245,3.245,0,0,0-1.9-.542,3.129,3.129,0,0,0-1.84.649C303.281,103.22,303.156,103.5,303.228,103.576Z" transform="translate(-133.183 -80.681)" fill="#263238"/>
    <path id="Trazado_122829" data-name="Trazado 122829" d="M297.856,113.216a8.633,8.633,0,0,0-2.089-.32c-.329,0-.64-.08-.7-.3a1.778,1.778,0,0,1,.2-.978c.293-.8.6-1.636.889-2.516a42.249,42.249,0,0,0,2.009-6.57,43.166,43.166,0,0,0-2.534,6.392l-.889,2.534a1.894,1.894,0,0,0-.142,1.289.889.889,0,0,0,.551.462,2.24,2.24,0,0,0,.56.062A7.9,7.9,0,0,0,297.856,113.216Z" transform="translate(-132.221 -80.711)" fill="#263238"/>
    <path id="Trazado_122830" data-name="Trazado 122830" d="M302.039,115.45c-.213,0-.178,1.378-1.342,2.4s-2.667.889-2.667,1.094.338.258.969.258a3.432,3.432,0,0,0,2.214-.836,3.014,3.014,0,0,0,1.04-2.009C302.3,115.779,302.137,115.432,302.039,115.45Z" transform="translate(-132.609 -82.144)" fill="#263238"/>
    <path id="Trazado_122831" data-name="Trazado 122831" d="M302.719,97.972c.133.347,1.414.151,2.916.293s2.738.516,2.925.2c.089-.151-.133-.48-.631-.8a4.837,4.837,0,0,0-2.178-.7,4.925,4.925,0,0,0-2.276.32C302.968,97.527,302.666,97.8,302.719,97.972Z" transform="translate(-133.128 -80.091)" fill="#263238"/>
    <path id="Trazado_122832" data-name="Trazado 122832" d="M289.485,99.467c.231.285,1.1,0,2.169-.08s1.965.142,2.16-.16c.089-.151-.062-.445-.462-.711a3.138,3.138,0,0,0-3.485.2C289.494,99.023,289.379,99.325,289.485,99.467Z" transform="translate(-131.656 -80.217)" fill="#263238"/>
    <path id="Trazado_122833" data-name="Trazado 122833" d="M317.515,94.59c-.053,2.436.56,5.13.187,7.521-.053.365-.96,1.351-1.04,1.707-.436,2.125-1.289,3.049-2.6.889a18.12,18.12,0,0,1-1.085-4.09l-1.707-7.655a13.4,13.4,0,0,1-6.3,1.662,6.481,6.481,0,0,1-5.494-3.067,6.73,6.73,0,0,1-10.4,1.636,2.8,2.8,0,0,1-3.689.889,3.334,3.334,0,0,1-1.449-3.645c.524-2.045,2.667-3.2,4.685-3.849,7.868-2.534,16.687-.889,23.915,3.076a12.09,12.09,0,0,1,2.934,2.1c.836.889,1.991,1.885,2.054,3.094" transform="translate(-131.033 -78.807)" fill="#263238"/>
    <path id="Trazado_122834" data-name="Trazado 122834" d="M315,94.972a4.072,4.072,0,0,1,1.289.2,4.372,4.372,0,0,1,1.191.765c.409.356.809.818,1.3,1.271a4.267,4.267,0,0,0,1.618,1.022,2.9,2.9,0,0,0,1.582,0c.889-.249,1.227-.729,1.191-.765a8.944,8.944,0,0,1-1.262.427,2.747,2.747,0,0,1-1.369-.116,4.028,4.028,0,0,1-1.431-.942c-.462-.436-.889-.889-1.334-1.262a4.117,4.117,0,0,0-1.369-.747A1.539,1.539,0,0,0,315,94.972Z" transform="translate(-134.491 -79.847)" fill="#455a64"/>
    <path id="Trazado_122835" data-name="Trazado 122835" d="M316.069,97.787c0,.071.427,0,.889.4a5.084,5.084,0,0,1,.729.827,3.716,3.716,0,0,0,1.085,1,3.9,3.9,0,0,0,2.6.551c.685-.107,1.04-.356,1.014-.409s-.418.053-1.049.062a4.17,4.17,0,0,1-2.3-.622c-.818-.453-1.227-1.325-1.876-1.7S316.007,97.724,316.069,97.787Z" transform="translate(-134.61 -80.172)" fill="#455a64"/>
    <path id="Trazado_122836" data-name="Trazado 122836" d="M290.931,79.558a1.48,1.48,0,0,0-.738.071,3.147,3.147,0,0,0-1.6,1.209c-1.022,1.431-1.262,3.965-.471,6.428a9.077,9.077,0,0,0,4.089,5.023,7.921,7.921,0,0,0,1.823.773,1.9,1.9,0,0,0,.72.124,25.226,25.226,0,0,1-2.347-1.2,9.21,9.21,0,0,1-3.8-4.881c-.756-2.32-.578-4.747.284-6.081a3.254,3.254,0,0,1,1.387-1.218C290.673,79.62,290.931,79.6,290.931,79.558Z" transform="translate(-131.457 -78.159)" fill="#455a64"/>
    <path id="Trazado_122837" data-name="Trazado 122837" d="M283.563,83.45a3.689,3.689,0,0,0,.071,1.609,9.966,9.966,0,0,0,4.223,6.348,3.716,3.716,0,0,0,1.458.693,16.386,16.386,0,0,1-3.8-3.716A16.4,16.4,0,0,1,283.563,83.45Z" transform="translate(-130.997 -78.593)" fill="#455a64"/>
    <path id="Trazado_122838" data-name="Trazado 122838" d="M229.994,214.14l-12.2.613a2.9,2.9,0,0,0-2.747,2.934c.062,2.792.533,6.605,2.667,6.223l1.387-6.072,10.126,8.89a7.353,7.353,0,0,0,3.645,1.778l2.383-.249Z" transform="translate(-123.4 -93.096)" fill="#ffbe9d"/>
    <path id="Trazado_122839" data-name="Trazado 122839" d="M296.279,140.371l-6.374,2.107L286.74,195.42v46.967l39.144,4.33.453-67.726-2.525-33.7-5.983-7.148Z" transform="translate(-131.356 -84.662)" fill="#e0e0e0"/>
    <path id="Trazado_122840" data-name="Trazado 122840" d="M295.26,142.456v-5.13l23.266-3.236-.933,11.815-5.343,9.264-8.739.489-6.312-3.894Z" transform="translate(-132.301 -84.213)" fill="#e0e0e0"/>
    <path id="Trazado_122841" data-name="Trazado 122841" d="M297.586,142.246a6.018,6.018,0,0,1-.133-2.347,6.224,6.224,0,0,1,.329-2.329,6.017,6.017,0,0,1,.133,2.347,6.223,6.223,0,0,1-.329,2.329Z" transform="translate(-132.538 -84.599)" fill="#263238"/>
    <path id="Trazado_122842" data-name="Trazado 122842" d="M304.131,141.7a7.779,7.779,0,0,1-.08-2.623,7.5,7.5,0,0,1,.391-2.6,7.656,7.656,0,0,1,.071,2.667,7.325,7.325,0,0,1-.382,2.551Z" transform="translate(-133.269 -84.478)" fill="#263238"/>
    <path id="Trazado_122843" data-name="Trazado 122843" d="M310.466,141a8.464,8.464,0,0,1,0-2.774,8.357,8.357,0,0,1,.436-2.738,8.767,8.767,0,0,1,0,2.774,8.642,8.642,0,0,1-.436,2.738Z" transform="translate(-133.976 -84.368)" fill="#263238"/>
    <path id="Trazado_122844" data-name="Trazado 122844" d="M316.533,140.039a10.668,10.668,0,0,1,.24-5.219,9.715,9.715,0,0,1,0,2.614A9.942,9.942,0,0,1,316.533,140.039Z" transform="translate(-134.638 -84.294)" fill="#263238"/>
    <path id="Trazado_122845" data-name="Trazado 122845" d="M312.162,165.86a3.36,3.36,0,0,1-.311.889c-.222.551-.569,1.334-1.022,2.294-.889,1.911-2.249,4.516-3.9,7.29s-3.3,5.21-4.552,6.917c-.622.889-1.138,1.538-1.511,2a3.69,3.69,0,0,1-.622.685,31.452,31.452,0,0,1,1.867-2.872c1.182-1.778,2.774-4.2,4.445-6.961s3.032-5.334,4.009-7.21a32.9,32.9,0,0,1,1.6-3.032Z" transform="translate(-132.854 -87.739)" fill="#263238"/>
    <path id="Trazado_122846" data-name="Trazado 122846" d="M321.091,137.21l6.312,3.04,12.2,3a10.162,10.162,0,0,1,8.339,11.3l-6.392,49.785,7.628,48.274-30.227-.889-1.778-17.958V183.973Z" transform="translate(-134.733 -84.559)" fill="#455a64"/>
    <path id="Trazado_122847" data-name="Trazado 122847" d="M317.17,195.537a4.274,4.274,0,0,1,.089-.622c.089-.444.2-1.022.347-1.778l1.342-6.419,4.614-21.132c.507-2.267,1-4.445,1.467-6.6l.062.213-2.1-2.2-.116-.124.089-.142,3.512-5.841v.169l-3.876-9.388c-.436-1.094-.791-1.974-1.049-2.667a6.144,6.144,0,0,1-.338-.942,4.832,4.832,0,0,1,.444.889l1.156,2.587,3.983,9.4.044.089-.053.089c-1.076,1.778-2.24,3.778-3.476,5.876v-.267l2.1,2.178.089.089v.116c-.471,2.125-.96,4.33-1.458,6.6-1.849,8.224-3.556,15.665-4.747,21.105-.613,2.667-1.12,4.827-1.485,6.392l-.427,1.725a3.1,3.1,0,0,1-.213.6Z" transform="translate(-134.733 -84.655)" fill="#263238"/>
    <path id="Trazado_122848" data-name="Trazado 122848" d="M232.44,204.131l26.742-14.909,12.953-34.948a18.785,18.785,0,0,1,10.375-10.793l3.441-1.431v92.005l.685,21.8-14.491-4.338,7.4-43.811-2.56-21.559-2.534,10.428a14.135,14.135,0,0,1-6.605,8.89L240.05,219.9Z" transform="translate(-125.33 -85.096)" fill="#455a64"/>
    <path id="Trazado_122849" data-name="Trazado 122849" d="M232.519,212.64l-2.249.676,6.33,15.1,2.952-1.147Z" transform="translate(-125.089 -92.93)" fill="#e0e0e0"/>
    <path id="Trazado_122850" data-name="Trazado 122850" d="M267.381,201.344a19.466,19.466,0,0,0-2-3.387,19.848,19.848,0,0,0-2.96-2.587,7.485,7.485,0,0,1,4.961,5.974Z" transform="translate(-128.657 -91.013)" fill="#263238"/>
    <path id="Trazado_122851" data-name="Trazado 122851" d="M235.986,212.082a1.364,1.364,0,0,0-.151.436c-.018.258.151.56.507.453a.382.382,0,0,0,.178-.649c-.151-.213-.347-.222-.356-.293s.249-.2.587.053a.8.8,0,0,1,.3.649.782.782,0,0,1-.578.685.756.756,0,0,1-.96-.969C235.666,212.046,235.941,211.993,235.986,212.082Z" transform="translate(-125.666 -92.852)" fill="#263238"/>
    <path id="Trazado_122852" data-name="Trazado 122852" d="M238.407,211.061a1.224,1.224,0,0,0-.142.436c-.009.258.151.56.507.453a.391.391,0,0,0,.178-.658c-.151-.2-.347-.222-.365-.285s.249-.2.6.053a.782.782,0,0,1,.3.64.818.818,0,0,1-1.449.427.809.809,0,0,1-.089-.711C238.1,210.99,238.407,210.99,238.407,211.061Z" transform="translate(-125.936 -92.738)" fill="#263238"/>
    <path id="Trazado_122853" data-name="Trazado 122853" d="M292.116,197.387a2.429,2.429,0,0,1-.116-.56c-.062-.427-.151-.969-.249-1.645-.2-1.485-.48-3.556-.818-6.036-.658-5.156-1.547-12.189-2.534-19.95-.133-1.1-.267-2.187-.4-3.263v-.107c.676-1.716,1.334-3.378,1.956-4.97v.169c-.676-1.538-1.325-3.014-1.929-4.445v-.133c1.191-4.276,2.187-7.877,2.9-10.473.356-1.227.64-2.2.845-2.934a6.789,6.789,0,0,1,.347-1.031,7.048,7.048,0,0,1-.222,1.058c-.178.738-.427,1.734-.738,2.969-.676,2.6-1.618,6.223-2.729,10.517v-.133l1.965,4.392v.169L288.444,166v-.116c.133,1.067.267,2.16.409,3.263.889,7.77,1.778,14.8,2.391,19.959.285,2.516.516,4.57.676,6.063l.16,1.645a2.364,2.364,0,0,1,.036.569Z" transform="translate(-131.496 -85.092)" fill="#263238"/>
    <path id="Trazado_122854" data-name="Trazado 122854" d="M284.669,210.8a2.3,2.3,0,0,1-.089-.436c-.044-.338-.107-.756-.178-1.254-.142-1.165-.329-2.729-.569-4.632-.471-3.912-1.138-9.308-1.938-15.265s-1.582-11.344-2.151-15.238c-.276-1.894-.507-3.458-.676-4.614-.062-.507-.116-.889-.16-1.262a1.412,1.412,0,0,1,0-.445,2.172,2.172,0,0,1,.116.427c.071.338.151.747.249,1.245.2,1.085.489,2.667.818,4.6.658,3.885,1.494,9.264,2.294,15.229s1.414,11.371,1.778,15.291c.2,1.956.338,3.556.427,4.641,0,.507.062.889.08,1.271A1.414,1.414,0,0,1,284.669,210.8Z" transform="translate(-130.485 -87.938)" fill="#263238"/>
    <path id="Trazado_122855" data-name="Trazado 122855" d="M281.239,250.9a3.71,3.71,0,0,0,.613.747,2.845,2.845,0,0,0,2.445.551,4.125,4.125,0,0,0,2.667-2.6,16.109,16.109,0,0,0,.747-4.783,10.934,10.934,0,0,0-.489-4.774,8.73,8.73,0,0,0-2.427-3.058,11.334,11.334,0,0,1-1.849-2.018,2.311,2.311,0,0,1-.436-.889,9.738,9.738,0,0,0,.578.8,14,14,0,0,0,1.929,1.885,8.6,8.6,0,0,1,2.6,3.138,10.856,10.856,0,0,1,.56,4.961,15.782,15.782,0,0,1-.809,4.916,4.445,4.445,0,0,1-2.969,2.756,2.907,2.907,0,0,1-2.667-.729,2.161,2.161,0,0,1-.436-.622C281.239,250.97,281.221,250.9,281.239,250.9Z" transform="translate(-130.745 -95.308)" fill="#263238"/>
    <path id="Trazado_122856" data-name="Trazado 122856" d="M270.06,212.75s.889-10.2,8.961-11.139C279.021,201.61,279.173,209.958,270.06,212.75Z" transform="translate(-129.505 -91.706)" fill="#263238"/>
    <path id="Trazado_122857" data-name="Trazado 122857" d="M318.74,252.324l23.515,15.38,2.667-2.125,1.254-34.468L323.781,214.14,320.7,215.2Z" transform="translate(-134.907 -93.096)" fill="#26aab7"/>
    <path id="Trazado_122858" data-name="Trazado 122858" d="M323.617,214.69l.916,37.3H319.59l1.654-36.566Z" transform="translate(-135.001 -93.158)" fill="#e0e0e0"/>
    <path id="Trazado_122859" data-name="Trazado 122859" d="M331.67,264.173a2.889,2.889,0,0,0,2.667,1.778.3.3,0,0,1,.2.169,2.667,2.667,0,0,0,2.231,1.387,4.766,4.766,0,0,0,2.525-.729c1.227-.747,3.414-5.654,3.414-5.654l5.183-11.557-8.712-2.356L328.1,250.659c0,.2-2.6,10.668-2.6,10.668a2.667,2.667,0,0,0,3.112-1.654,28.683,28.683,0,0,1,1.956-3.663l.827,4.721-3.156,1.076a2.1,2.1,0,0,0,1.351,2.4Z" transform="translate(-135.657 -96.766)" fill="#ffbe9d"/>
    <path id="Trazado_122860" data-name="Trazado 122860" d="M336.84,172.207l14.518,26.724L339.543,234l13.131,7.406,16.7-39.028a11.1,11.1,0,0,0-.142-9.033l-20.448-44Z" transform="translate(-136.916 -85.906)" fill="#455a64"/>
    <path id="Trazado_122861" data-name="Trazado 122861" d="M339.727,244.57l-1.227,2.72,12.393,6.685,1.3-2.383Z" transform="translate(-137.1 -96.473)" fill="#e0e0e0"/>
    <path id="Trazado_122862" data-name="Trazado 122862" d="M339.019,233.88V233.7a2.923,2.923,0,0,1,.151-.516l.631-1.983c.578-1.778,1.4-4.258,2.409-7.37,2.1-6.294,5.023-15.06,8.366-25.1v.187c-1.689-2.872-3.432-5.9-5.183-9.033-3.2-5.716-6.134-11.228-8.65-16.323-1.245-2.551-2.4-4.987-3.378-7.326a14.606,14.606,0,0,1-1.209-6.926,15.9,15.9,0,0,1,1.289-5.663,11.1,11.1,0,0,1,2.569-3.556,8.438,8.438,0,0,1,2.311-1.529,5.21,5.21,0,0,1,.889-.329,10.2,10.2,0,0,0-3.094,1.991,10.846,10.846,0,0,0-2.454,3.556,15.862,15.862,0,0,0-1.209,5.574,14.472,14.472,0,0,0,1.236,6.757c1,2.32,2.16,4.747,3.414,7.29,2.525,5.076,5.476,10.57,8.677,16.278,1.778,3.129,3.476,6.161,5.156,9.033l.053.089v.1c-3.414,10.019-6.383,18.767-8.526,25.044l-2.454,7.308c-.3.827-.533,1.476-.7,1.956l-.2.507a1.168,1.168,0,0,1-.1.16Z" transform="translate(-136.392 -85.783)" fill="#263238"/>
    <path id="Trazado_122863" data-name="Trazado 122863" d="M362.977,204.656a10.921,10.921,0,0,1-1.431-.507,10.233,10.233,0,0,0-7.05.222,10.507,10.507,0,0,1-1.4.6,3.379,3.379,0,0,1,1.262-.889,8.766,8.766,0,0,1,3.627-.889,8.677,8.677,0,0,1,3.672.676A3.4,3.4,0,0,1,362.977,204.656Z" transform="translate(-138.72 -91.881)" fill="#263238"/>
    <path id="Trazado_122864" data-name="Trazado 122864" d="M333.57,167.91,344,202.813l1.476-11.477Z" transform="translate(-136.553 -87.966)" fill="#263238"/>
    <path id="Trazado_122865" data-name="Trazado 122865" d="M352.933,245.032a1.223,1.223,0,0,0-.142.436c-.009.258.151.56.507.453a.391.391,0,0,0,.178-.658c-.151-.2-.347-.222-.356-.284s.24-.2.587.053a.782.782,0,0,1,.3.649.791.791,0,0,1-.587.685.773.773,0,0,1-.889-.267.791.791,0,0,1-.089-.7C352.578,244.987,352.933,244.987,352.933,245.032Z" transform="translate(-138.642 -96.509)" fill="#263238"/>
    <path id="Trazado_122866" data-name="Trazado 122866" d="M354.067,242.2a1.225,1.225,0,0,0-.142.445.4.4,0,1,0,.684-.2c-.151-.213-.356-.222-.364-.293s.249-.2.6.053a.8.8,0,0,1,.3.649.791.791,0,1,1-1.538-.285C353.756,242.166,354.067,242.139,354.067,242.2Z" transform="translate(-138.771 -96.194)" fill="#263238"/>
    <path id="Trazado_122867" data-name="Trazado 122867" d="M369.926,192.21c-1.556.818-2.1,3.112-1.92,4.863s.827,3.449.782,5.2a22.063,22.063,0,0,1-.667,3.707,6.339,6.339,0,0,0,.107,3.707,2.845,2.845,0,0,0,2.943,1.858l1.236-2.489a13.718,13.718,0,0,0-.178-12.5Z" transform="translate(-140.362 -90.663)" fill="#263238"/>
  </g>
  <g id="freepik--speech-bubble--inject-38" transform="translate(172.182 7.43)">
    <path id="Trazado_122868" data-name="Trazado 122868" d="M226.076,50.4a2.178,2.178,0,0,1,.453,0h1.334a14.225,14.225,0,0,1,2.151.2c.427.071.889.116,1.369.213l1.538.382a24.892,24.892,0,0,1,7.4,3.307,25.719,25.719,0,0,1-4.427,45.18,25.1,25.1,0,0,1-8.57,1.885,24.52,24.52,0,0,1-8.961-1.111l-.267-.089h.2l-14.98,5.192-.6.213.187-.622,3.894-12.446.062.3a25.657,25.657,0,0,1-6.01-22.226,25.2,25.2,0,0,1,3.867-9.193,25.533,25.533,0,0,1,5.93-6.223A23.009,23.009,0,0,1,216.732,52a19.87,19.87,0,0,1,2.667-.889,16.812,16.812,0,0,1,2.311-.48c.7-.1,1.325-.2,1.858-.249l1.369-.044h.88a.889.889,0,0,1,.284,0,1.875,1.875,0,0,1-.284.044l-.827.062-1.351.1c-.533.062-1.147.178-1.84.293a16.7,16.7,0,0,0-2.276.525,19.412,19.412,0,0,0-2.667.889,29.337,29.337,0,0,0-2.925,1.378,26.446,26.446,0,0,0-3.04,2.018,25.676,25.676,0,0,0-5.779,6.143,24.786,24.786,0,0,0-3.734,9.077,25.124,25.124,0,0,0,5.956,21.666l.124.133-.053.169q-1.858,6-3.867,12.446l-.418-.4,14.962-5.059h.213l.258.08a24.048,24.048,0,0,0,8.73,1.085,24.68,24.68,0,0,0,8.357-1.823,25.233,25.233,0,0,0-2.792-47.607l-1.511-.409c-.48-.107-.933-.16-1.351-.24a14.145,14.145,0,0,0-2.134-.267l-1.325-.107a2.97,2.97,0,0,1-.453-.133Z" transform="translate(-200.327 -50.327)" fill="#7d6eb2"/>
    <path id="Trazado_122869" data-name="Trazado 122869" d="M212.35,79.708l3.938-3.947,7.6,6.757L238.816,68.16l3.654,3.947L223.329,90.119Z" transform="translate(-201.662 -52.306)" fill="#7d6eb2"/>
  </g>
</svg>
