<svg xmlns="http://www.w3.org/2000/svg" width="536" height="449.702" viewBox="0 0 536 449.702">
  <g id="investigation-pana" transform="translate(-95.47 -39.121)">
    <g id="freepik--background-complete--inject-9" transform="translate(103 50.52)">
      <rect id="Rectángulo_29708" data-name="Rectángulo 29708" width="137.13" height="80.77" transform="translate(4.91 48.69)" fill="#fafafa"/>
      <path id="Trazado_120848" data-name="Trazado 120848" d="M184.429,118.31c0,.15-26.676.26-59.575.26s-59.575-.11-59.575-.26,26.668-.26,59.575-.26S184.429,118.17,184.429,118.31Z" transform="translate(-60.37 -50.52)" fill="#ebebeb"/>
      <path id="Trazado_120849" data-name="Trazado 120849" d="M184.429,127.87c0,.15-26.676.26-59.575.26s-59.575-.11-59.575-.26,26.668-.26,59.575-.26S184.429,127.73,184.429,127.87Z" transform="translate(-60.37 -50.52)" fill="#ebebeb"/>
      <path id="Trazado_120850" data-name="Trazado 120850" d="M184.429,137.43c0,.14-26.676.26-59.575.26s-59.575-.12-59.575-.26,26.668-.26,59.575-.26S184.429,137.28,184.429,137.43Z" transform="translate(-60.37 -50.52)" fill="#ebebeb"/>
      <path id="Trazado_120851" data-name="Trazado 120851" d="M184.429,147c0,.14-26.676.26-59.575.26S65.28,147.14,65.28,147s26.668-.27,59.575-.27S184.429,146.84,184.429,147Z" transform="translate(-60.37 -50.52)" fill="#ebebeb"/>
      <path id="Trazado_120852" data-name="Trazado 120852" d="M184.429,156.54c0,.15-26.676.26-59.575.26s-59.575-.11-59.575-.26,26.668-.26,59.575-.26S184.429,156.4,184.429,156.54Z" transform="translate(-60.37 -50.52)" fill="#ebebeb"/>
      <path id="Trazado_120853" data-name="Trazado 120853" d="M163.08,145.41s-.08.15-.239.42a2.953,2.953,0,0,1-.9.87,3.2,3.2,0,0,1-3.923-1.09,11.335,11.335,0,0,1-1.849-3.5c-.519-1.45-.924-3.13-1.41-4.88a17.912,17.912,0,0,0-2.1-5.08,4.822,4.822,0,0,0-1.829-1.68,3.292,3.292,0,0,0-2.254-.18,8.281,8.281,0,0,0-4.289,3.42c-1.283,1.74-2.407,3.88-3.79,5.82a8.063,8.063,0,0,1-5.194,3.84,3.652,3.652,0,0,1-2.972-1.19,10.592,10.592,0,0,1-2.075-3.59c-1.071-2.78-1.609-6-3-8.54a5.434,5.434,0,0,0-2.607-2.71,2.773,2.773,0,0,0-3.059,1.1,11.31,11.31,0,0,0-1.995,4,36.3,36.3,0,0,0-.951,5,43.357,43.357,0,0,1-.944,5.22,15.465,15.465,0,0,1-.864,2.45,11.193,11.193,0,0,1-1.27,2,7.451,7.451,0,0,1-3.285,2.46,5.239,5.239,0,0,1-3.618.08,7.572,7.572,0,0,1-3.2-2.37c-.944-1.06-1.8-2.23-2.7-3.28a7.682,7.682,0,0,0-2.906-2.38,3.014,3.014,0,0,0-3.112.6,9.685,9.685,0,0,0-2.321,3.25,38.567,38.567,0,0,0-1.569,4.14,37.636,37.636,0,0,1-1.556,4.1,9.814,9.814,0,0,1-2.228,3.19,3.418,3.418,0,0,1-2.913,1,4.131,4.131,0,0,1-2.534-2.12,12.726,12.726,0,0,1-1.39-3.65,36.52,36.52,0,0,1-.665-3.91,25.094,25.094,0,0,0-1.5-7,6.153,6.153,0,0,0-3.458-3.87,2.708,2.708,0,0,0-1.995.37,5.837,5.837,0,0,0-1.6,1.59c-1.815,2.61-2.66,5.77-4.036,7.6s-2.66,2.78-3.611,2.73a2.182,2.182,0,0,1-1.057-.28l-.326-.22a2.665,2.665,0,0,0,1.383.4c.931,0,2.268-.88,3.518-2.77s2.155-5,3.99-7.67a5.786,5.786,0,0,1,1.656-1.66,2.846,2.846,0,0,1,2.1-.42,6.3,6.3,0,0,1,3.631,4,16.116,16.116,0,0,1,1,3.4c.233,1.22.386,2.49.545,3.77a37.435,37.435,0,0,0,.665,3.84,12.511,12.511,0,0,0,1.33,3.5,3.912,3.912,0,0,0,2.361,2,3.2,3.2,0,0,0,2.713-1,9.284,9.284,0,0,0,2.135-3.06,37.375,37.375,0,0,0,1.523-4,38.041,38.041,0,0,1,1.589-4.21,10.162,10.162,0,0,1,2.427-3.4,3.232,3.232,0,0,1,3.325-.66,8.074,8.074,0,0,1,3.039,2.46c.911,1.07,1.762,2.24,2.66,3.28a7.343,7.343,0,0,0,3.066,2.28,5.036,5.036,0,0,0,3.465-.08,7.228,7.228,0,0,0,3.139-2.36,9.661,9.661,0,0,0,1.21-1.94,13.967,13.967,0,0,0,.831-2.33,42.866,42.866,0,0,0,.931-5.14,35.177,35.177,0,0,1,.978-5.13,11.493,11.493,0,0,1,2.115-4.22,3.02,3.02,0,0,1,3.325-1.19,5.751,5.751,0,0,1,2.786,2.89c1.443,2.64,1.995,5.92,3.026,8.61a10.087,10.087,0,0,0,1.995,3.44,3.448,3.448,0,0,0,2.78,1.13,7.812,7.812,0,0,0,5.021-3.71c1.363-1.9,2.494-4,3.8-5.8a8.483,8.483,0,0,1,4.429-3.49,3.487,3.487,0,0,1,2.361.22,5.107,5.107,0,0,1,1.915,1.77,18.187,18.187,0,0,1,2.128,5.21c.479,1.77.878,3.43,1.377,4.87a11.246,11.246,0,0,0,1.782,3.46,2.884,2.884,0,0,0,5.034-.02Z" transform="translate(-53.08 -50.52)" fill="#e0e0e0"/>
      <path id="Trazado_120854" data-name="Trazado 120854" d="M177.96,143.18h-.4a4.359,4.359,0,0,1-.5-.09,4.1,4.1,0,0,1-.646-.33,12.854,12.854,0,0,1-3.462-4.06q-.488-.78-.991-1.68a18.388,18.388,0,0,0-1.07-1.84,5.138,5.138,0,0,0-3.418-2.17,3.535,3.535,0,0,0-2.09.36,5.782,5.782,0,0,0-1.86,1.75,62.116,62.116,0,0,0-3.059,5.51,11.526,11.526,0,0,1-1.961,2.65,5.2,5.2,0,0,1-2.679,1.4,9.18,9.18,0,0,1-5.9-1.54c-1.925-1.12-3.77-2.65-5.846-3.64a8.268,8.268,0,0,0-3.225-.9,5.467,5.467,0,0,0-3.253,1c-2.075,1.39-3.7,3.91-5.652,6a11.211,11.211,0,0,1-3.275,2.5,9.172,9.172,0,0,1-3.749.9,11.015,11.015,0,0,1-7.447-2.87,22.974,22.974,0,0,1-5.652-7.83c-1.515-3.16-2.341-6.74-3.433-10a22.78,22.78,0,0,0-2-4.56,9.838,9.838,0,0,0-2.944-3.17,3.955,3.955,0,0,0-3.548-.52,6.2,6.2,0,0,0-2.944,2.7A15.957,15.957,0,0,0,95.221,127a43.417,43.417,0,0,0-.912,4.71c-.244,1.59-.46,3.16-.768,4.7a26.467,26.467,0,0,1-1.264,4.37,19.239,19.239,0,0,1-4.266,6.7,10.866,10.866,0,0,1-5.566,3.13,8.658,8.658,0,0,1-5.5-.88c-3.076-1.477-5.511-4.8-6.629-9.06-.46-1.86-.718-3.65-1.02-5.25a14.62,14.62,0,0,0-1.365-4.09,4.476,4.476,0,0,0-3.835-2.74,2.627,2.627,0,0,0-1.436.73,2.24,2.24,0,0,1,1.436-.84,4.493,4.493,0,0,1,3.957,2.72,14.632,14.632,0,0,1,1.379,4.15c.345,1.61.589,3.4,1.049,5.22,1.118,4.151,3.514,7.384,6.528,8.81a8.465,8.465,0,0,0,5.372.84,10.719,10.719,0,0,0,5.422-3.09,18.829,18.829,0,0,0,4.151-6.57,39.247,39.247,0,0,0,1.989-8.95,44.823,44.823,0,0,1,.919-4.78,16.5,16.5,0,0,1,1.824-4.42,6.6,6.6,0,0,1,3.124-2.86,4.213,4.213,0,0,1,3.792.55,10.116,10.116,0,0,1,3.074,3.3,23.421,23.421,0,0,1,2.061,4.67c1.106,3.32,1.925,6.85,3.411,10a22.512,22.512,0,0,0,5.53,7.67,10.767,10.767,0,0,0,7.239,2.8,8.952,8.952,0,0,0,3.641-.87,10.854,10.854,0,0,0,3.174-2.41c1.917-2,3.591-4.57,5.745-6a5.661,5.661,0,0,1,3.411-1,8.482,8.482,0,0,1,3.325.94c2.111,1,3.964,2.57,5.86,3.67a9.008,9.008,0,0,0,5.745,1.54,5,5,0,0,0,2.564-1.32,11.184,11.184,0,0,0,1.9-2.56,61.307,61.307,0,0,1,3.1-5.52,5.948,5.948,0,0,1,1.946-1.8,3.721,3.721,0,0,1,2.154-.36,5.334,5.334,0,0,1,3.526,2.28,19.021,19.021,0,0,1,1.077,1.88c.33.6.654,1.17.977,1.69a13.385,13.385,0,0,0,3.375,4.1,2.272,2.272,0,0,0,1.515.38Z" transform="translate(-57.75 -50.52)" fill="#e0e0e0"/>
      <path id="Trazado_120861" data-name="Trazado 120861" d="M111.56,166.79a18.089,18.089,0,0,1-4.28.26,18.09,18.09,0,0,1-4.28-.26,18.091,18.091,0,0,1,4.28-.26,18.089,18.089,0,0,1,4.28.26Z" transform="translate(-103 -50.52)" fill="#e0e0e0"/>
      <path id="Trazado_120862" data-name="Trazado 120862" d="M149.28,166.79a18.089,18.089,0,0,1-4.28.26,18.09,18.09,0,0,1-4.28-.26,18.091,18.091,0,0,1,4.28-.26,18.088,18.088,0,0,1,4.28.26Z" transform="translate(-103 -50.52)" fill="#e0e0e0"/>
      <path id="Trazado_120863" data-name="Trazado 120863" d="M187,166.79a18,18,0,0,1-4.28.26,18,18,0,0,1-4.27-.26,18,18,0,0,1,4.27-.26,18,18,0,0,1,4.28.26Z" transform="translate(-97.056 -50.52)" fill="#e0e0e0"/>
      <path id="Trazado_120864" data-name="Trazado 120864" d="M224.73,166.79a35.359,35.359,0,0,1-8.56,0,35.361,35.361,0,0,1,8.56,0Z" transform="translate(-106.18 -50.52)" fill="#e0e0e0"/>
      <rect id="Rectángulo_29709" data-name="Rectángulo 29709" width="173.5" height="107.39" transform="translate(224.826 256.79)" fill="#fafafa"/>
      <path id="Trazado_120865" data-name="Trazado 120865" d="M474.14,385c-12-4.56-25.87,8.05-37.66,2.91-6.87-3-10-10.76-13.34-17.45s-9.16-13.74-16.61-13-13.58,9.48-20.84,7.39c-4.57-1.33-6.85-6.4-8-11s-1.94-9.72-5.43-13-10.75-2.38-11.3,2.35v56.93H496.65S478.3,386.53,474.14,385Z" transform="translate(-117.412 -50.52)" fill="#ebebeb"/>
      <path id="Trazado_120866" data-name="Trazado 120866" d="M500.27,400.13c0,.12-32.89.22-73.45.22s-73.45-.1-73.45-.22,32.88-.22,73.45-.22S500.27,400,500.27,400.13Z" transform="translate(-117.34 -50.52)" fill="#e0e0e0"/>
      <path id="Trazado_120867" data-name="Trazado 120867" d="M500.27,375.27c0,.12-32.89.22-73.45.22s-73.45-.1-73.45-.22,32.88-.23,73.45-.23S500.27,375.14,500.27,375.27Z" transform="translate(-117.34 -50.52)" fill="#e0e0e0"/>
      <path id="Trazado_120868" data-name="Trazado 120868" d="M500.27,350.4c0,.12-32.89.22-73.45.22s-73.45-.1-73.45-.22,32.88-.22,73.45-.22S500.27,350.28,500.27,350.4Z" transform="translate(-117.34 -50.52)" fill="#e0e0e0"/>
      <path id="Trazado_120869" data-name="Trazado 120869" d="M500.27,326.77c0,.12-32.89.22-73.45.22s-73.45-.1-73.45-.22,32.88-.22,73.45-.22S500.27,326.65,500.27,326.77Z" transform="translate(-117.34 -50.52)" fill="#e0e0e0"/>
      <rect id="Rectángulo_29710" data-name="Rectángulo 29710" width="129.14" height="115.54" transform="translate(398.85 0.49)" fill="#fafafa"/>
      <path id="Trazado_120870" data-name="Trazado 120870" d="M656.36,166.55v-8.34c0-5.42,0-13.35-.08-23.45,0-20.19-.08-49-.15-83.75l.3.29-129.14.05h0l.35-.34V166.55l-.31-.31,93.41.16,26.34.08h.15l-26.28.08-93.6.15h-.3V50.52h.35l129.14.05h.29V51c-.06,34.79-.12,63.7-.15,83.93,0,10.07-.06,18-.08,23.39v6.13A7.14,7.14,0,0,1,656.36,166.55Z" transform="translate(-128.36 -50.52)" fill="#e0e0e0"/>
      <path id="Trazado_120871" data-name="Trazado 120871" d="M576.73,71.54c0,.19-6.8.34-15.18.34s-15.18-.15-15.18-.34,6.79-.35,15.18-.35S576.73,71.34,576.73,71.54Z" transform="translate(-128.36 -50.52)" fill="#e0e0e0"/>
      <path id="Trazado_120872" data-name="Trazado 120872" d="M631.45,80.21c0,.19-18.67.35-41.71.35S548,80.4,548,80.21s18.67-.34,41.7-.34S631.45,80,631.45,80.21Z" transform="translate(-128.36 -50.52)" fill="#e0e0e0"/>
      <rect id="Rectángulo_29711" data-name="Rectángulo 29711" width="5.44" height="5.44" transform="translate(418.23 44.39)" fill="#e0e0e0"/>
      <rect id="Rectángulo_29712" data-name="Rectángulo 29712" width="5.44" height="5.44" transform="translate(431.62 44.39)" fill="#e0e0e0"/>
      <rect id="Rectángulo_29713" data-name="Rectángulo 29713" width="5.44" height="5.44" transform="translate(445.26 44.14)" fill="#e0e0e0"/>
      <rect id="Rectángulo_29714" data-name="Rectángulo 29714" width="5.44" height="5.44" transform="translate(458.41 44.39)" fill="#e0e0e0"/>
      <rect id="Rectángulo_29715" data-name="Rectángulo 29715" width="5.44" height="5.44" transform="translate(471.8 44.39)" fill="#e0e0e0"/>
      <rect id="Rectángulo_29716" data-name="Rectángulo 29716" width="5.44" height="5.44" transform="translate(485.19 44.39)" fill="#e0e0e0"/>
      <rect id="Rectángulo_29717" data-name="Rectángulo 29717" width="5.44" height="5.44" transform="translate(498.59 44.39)" fill="#ebebeb"/>
      <rect id="Rectángulo_29718" data-name="Rectángulo 29718" width="5.44" height="5.44" transform="translate(418.23 55.95)" fill="#ebebeb"/>
      <rect id="Rectángulo_29719" data-name="Rectángulo 29719" width="5.44" height="5.44" transform="translate(431.62 55.95)" fill="#e0e0e0"/>
      <rect id="Rectángulo_29720" data-name="Rectángulo 29720" width="5.44" height="5.44" transform="translate(445.01 55.95)" fill="#ebebeb"/>
      <rect id="Rectángulo_29721" data-name="Rectángulo 29721" width="5.44" height="5.44" transform="translate(458.41 55.95)" fill="#e0e0e0"/>
      <rect id="Rectángulo_29722" data-name="Rectángulo 29722" width="5.44" height="5.44" transform="translate(471.8 55.95)" fill="#e0e0e0"/>
      <rect id="Rectángulo_29723" data-name="Rectángulo 29723" width="5.44" height="5.44" transform="translate(485.44 55.71)" fill="#e0e0e0"/>
      <rect id="Rectángulo_29724" data-name="Rectángulo 29724" width="5.44" height="5.44" transform="translate(498.59 55.95)" fill="#e0e0e0"/>
      <rect id="Rectángulo_29725" data-name="Rectángulo 29725" width="5.44" height="5.44" transform="translate(418.23 67.52)" fill="#e0e0e0"/>
      <rect id="Rectángulo_29726" data-name="Rectángulo 29726" width="5.44" height="5.44" transform="translate(431.87 67.27)" fill="#e0e0e0"/>
      <rect id="Rectángulo_29727" data-name="Rectángulo 29727" width="5.44" height="5.44" transform="translate(445.01 67.52)" fill="#e0e0e0"/>
      <rect id="Rectángulo_29728" data-name="Rectángulo 29728" width="5.44" height="5.44" transform="translate(458.41 67.52)" fill="#ebebeb"/>
      <rect id="Rectángulo_29729" data-name="Rectángulo 29729" width="5.44" height="5.44" transform="translate(471.8 67.52)" fill="#e0e0e0"/>
      <rect id="Rectángulo_29730" data-name="Rectángulo 29730" width="5.44" height="5.44" transform="translate(485.19 67.52)" fill="#e0e0e0"/>
      <rect id="Rectángulo_29731" data-name="Rectángulo 29731" width="5.44" height="5.44" transform="translate(498.59 67.52)" fill="#e0e0e0"/>
      <rect id="Rectángulo_29732" data-name="Rectángulo 29732" width="5.44" height="5.44" transform="translate(418.23 79.09)" fill="#e0e0e0"/>
      <rect id="Rectángulo_29733" data-name="Rectángulo 29733" width="5.44" height="5.44" transform="translate(431.62 79.09)" fill="#e0e0e0"/>
      <rect id="Rectángulo_29734" data-name="Rectángulo 29734" width="5.44" height="5.44" transform="translate(445.01 79.09)" fill="#e0e0e0"/>
      <rect id="Rectángulo_29735" data-name="Rectángulo 29735" width="5.44" height="5.44" transform="translate(458.65 78.84)" fill="#e0e0e0"/>
      <rect id="Rectángulo_29736" data-name="Rectángulo 29736" width="5.44" height="5.44" transform="translate(471.8 79.09)" fill="#e0e0e0"/>
      <rect id="Rectángulo_29737" data-name="Rectángulo 29737" width="5.44" height="5.44" transform="translate(485.19 79.09)" fill="#ebebeb"/>
      <rect id="Rectángulo_29738" data-name="Rectángulo 29738" width="5.44" height="5.44" transform="translate(498.59 79.09)" fill="#e0e0e0"/>
      <rect id="Rectángulo_29739" data-name="Rectángulo 29739" width="5.44" height="5.44" transform="translate(418.23 90.65)" fill="#e0e0e0"/>
      <rect id="Rectángulo_29740" data-name="Rectángulo 29740" width="5.44" height="5.44" transform="translate(431.62 90.65)" fill="#ebebeb"/>
      <rect id="Rectángulo_29741" data-name="Rectángulo 29741" width="5.44" height="5.44" transform="translate(445.01 90.65)" fill="#e0e0e0"/>
      <rect id="Rectángulo_29742" data-name="Rectángulo 29742" width="5.44" height="5.44" transform="translate(458.41 90.65)" fill="#e0e0e0"/>
      <rect id="Rectángulo_29743" data-name="Rectángulo 29743" width="5.44" height="5.44" transform="translate(471.8 90.65)" fill="#e0e0e0"/>
      <rect id="Rectángulo_29744" data-name="Rectángulo 29744" width="5.44" height="5.44" transform="translate(485.44 90.41)" fill="#e0e0e0"/>
      <rect id="Rectángulo_29745" data-name="Rectángulo 29745" width="5.44" height="5.44" transform="translate(498.59 90.65)" fill="#e0e0e0"/>
    </g>
    <g id="freepik--Panel--inject-9" transform="translate(246.722 60)">
      <path id="Trazado_120874" data-name="Trazado 120874" d="M476.17,61.46s15.29.21,8.75,30.49-5.7,36-5.7,48A20.89,20.89,0,0,0,490.53,159H469.79L454.54,88.31V61.46Z" transform="translate(-259.494 -60)" fill="#e0e0e0"/>
      <path id="Trazado_120875" data-name="Trazado 120875" d="M480.67,299.79H271.28l1.87-204.85L470.37,84.63Z" transform="translate(-259.494 -60)" fill="#e0e0e0"/>
      <path id="Trazado_120876" data-name="Trazado 120876" d="M473.48,294.5H264.09l1.87-204.85,203.31-3.97Z" transform="translate(-259.494 -60)" fill="#ebebeb"/>
      <path id="Trazado_120877" data-name="Trazado 120877" d="M469.14,288.79H260.18V83.94l209.09-.49Z" transform="translate(-259.494 -60)" fill="#fafafa"/>
      <path id="Trazado_120878" data-name="Trazado 120878" d="M469.14,288.79c0-1.91,0-82.17-.1-205.34l.23.23-208.76.52h-.33l.26-.26V288.79l-.22-.22,209,.22-209,.23H260V83.68h.58l208.77-.45h.22v.22C469.28,206.62,469.14,286.88,469.14,288.79Z" transform="translate(-259.494 -60)" fill="#263238"/>
      <path id="Trazado_120879" data-name="Trazado 120879" d="M469.27,82.9c-10.8-12.57,1.73-21.87,6-22.07l-199-.11a16.76,16.76,0,0,0-16.53,19.62,23.832,23.832,0,0,0,.81,3.11" transform="translate(-259.494 -60)" fill="#f5f5f5"/>
      <path id="Trazado_120880" data-name="Trazado 120880" d="M474.54,159h4.2l11.79-.07v.31a12.77,12.77,0,0,1-4.81-2.75,15.69,15.69,0,0,1-3.58-5.12,34.122,34.122,0,0,1-2.15-6.54c-.27-1.17-.51-2.36-.73-3.58a18.684,18.684,0,0,1-.29-1.87,15.216,15.216,0,0,1-.14-1.92,69.293,69.293,0,0,1,.26-8c.2-2.72.51-5.51.84-8.36.68-5.69,1.53-11.62,2.54-17.7.42-2.59.94-5.16,1.37-7.67s.75-5,1.07-7.48.58-4.88.87-7.25c.13-1.18.29-2.35.32-3.5a21.4,21.4,0,0,0-.19-3.41A20.661,20.661,0,0,0,484,67.74,12.48,12.48,0,0,0,480.15,63a7.52,7.52,0,0,0-5.44-1.21,9.87,9.87,0,0,0-4.84,2,12,12,0,0,0-3,3.74,16,16,0,0,0-1.46,4.07,10.64,10.64,0,0,0,.79,6.78,23.48,23.48,0,0,0,2.2,3.83l.68.93c.15.21.22.33.22.33a3.326,3.326,0,0,1-.27-.29l-.71-.91a20.762,20.762,0,0,1-2.3-3.81,10.82,10.82,0,0,1-.9-6.92,16.31,16.31,0,0,1,1.46-4.16,12.271,12.271,0,0,1,3.09-3.88,10.38,10.38,0,0,1,5-2.12,7.94,7.94,0,0,1,5.74,1.26,12.84,12.84,0,0,1,4,4.91A20.84,20.84,0,0,1,486.33,74a22.411,22.411,0,0,1,.21,3.49,32.732,32.732,0,0,1-.32,3.55c-.26,2.37-.54,4.79-.86,7.26s-.65,5-1.06,7.5-.95,5.07-1.36,7.67c-1,6.07-1.87,12-2.56,17.67-.33,2.84-.64,5.62-.85,8.34a71,71,0,0,0-.29,7.9,16.474,16.474,0,0,0,.13,1.88c.05.62.18,1.24.28,1.85.22,1.21.45,2.4.72,3.56a33.58,33.58,0,0,0,2.08,6.47,15.44,15.44,0,0,0,3.47,5,12.37,12.37,0,0,0,4.66,2.71l1,.32h-1l-11.79-.07h-3.92Z" transform="translate(-259.494 -60)" fill="#263238"/>
      <path id="Trazado_120881" data-name="Trazado 120881" d="M345.67,67.09c.08.06-.52.85-1.11,2.31a13.432,13.432,0,0,0-.75,2.63,15.16,15.16,0,0,0-.16,3.35,14.533,14.533,0,0,0,.67,3.28,13.06,13.06,0,0,0,1.14,2.5c.81,1.34,1.52,2,1.45,2.11s-.22-.14-.54-.45a8.31,8.31,0,0,1-1.22-1.47,11.661,11.661,0,0,1-1.28-2.53,12.7,12.7,0,0,1-.53-6.87,12.049,12.049,0,0,1,.88-2.7,8.341,8.341,0,0,1,1-1.64C345.47,67.26,345.64,67.07,345.67,67.09Z" transform="translate(-259.494 -60)" fill="#263238"/>
      <path id="Trazado_120882" data-name="Trazado 120882" d="M340.7,60a20.881,20.881,0,0,0-2.64,3.23,13.22,13.22,0,0,0,3.33,17.86A21.37,21.37,0,0,0,345,83.16a4.68,4.68,0,0,1-1.1-.3,12.09,12.09,0,0,1-2.75-1.46,13.19,13.19,0,0,1-3.4-18.4,11.791,11.791,0,0,1,2-2.35,4.17,4.17,0,0,1,.95-.65Z" transform="translate(-259.494 -60)" fill="#263238"/>
      <path id="Trazado_120883" data-name="Trazado 120883" d="M453.16,219.92h-2.57l-7.39.05-27.2.13-89.61.08h-38.9v-.25c0-25.6.07-47.62.1-63.26,0-7.8.05-14,.07-18.28v0c0,4.28,0,10.48.07,18.28,0,15.64.06,37.66.1,63.26l-.25-.25h38.65l89.61.08,27.16.08,7.39.05h1.92Z" transform="translate(-259.494 -60)" fill="#263238"/>
      <rect id="Rectángulo_29746" data-name="Rectángulo 29746" width="16.71" height="16.71" transform="translate(41.726 138.15)" fill="#c1507f"/>
      <rect id="Rectángulo_29747" data-name="Rectángulo 29747" width="16.71" height="28.65" transform="translate(66.216 126.21)" fill="#c1507f"/>
      <rect id="Rectángulo_29748" data-name="Rectángulo 29748" width="16.71" height="42.22" transform="translate(90.806 112.64)" fill="#c1507f"/>
      <rect id="Rectángulo_29749" data-name="Rectángulo 29749" width="16.71" height="57.32" transform="translate(114.646 97.54)" fill="#c1507f"/>
      <rect id="Rectángulo_29750" data-name="Rectángulo 29750" width="16.71" height="76.65" transform="translate(139.036 78.21)" fill="#c1507f"/>
      <rect id="Rectángulo_29751" data-name="Rectángulo 29751" width="16.71" height="90.61" transform="translate(163.246 63.46)" fill="#c1507f"/>
      <path id="Trazado_120884" data-name="Trazado 120884" d="M301.22,181a1.06,1.06,0,0,1,.21-.17l.65-.45,2.55-1.7,9.57-6.31,33.15-21.67.39-.25v7.94l-.4-.21,13.06-8.76,46.1-30.8,14-9.29,3.82-2.5,1-.64.35-.2a2.189,2.189,0,0,1-.32.24l-1,.69-3.77,2.58L406.72,119l-46,30.93-13.07,8.75-.4.27v-8l.39.21-33.26,21.51-9.65,6.19-2.59,1.63-.67.42Z" transform="translate(-259.494 -60)" fill="#263238"/>
      <path id="Trazado_120885" data-name="Trazado 120885" d="M425.69,113.09a8.57,8.57,0,0,1-.18-2.06c0-1.28-.07-3.06-.08-5l.26.26h-.64c-2.14,0-4.08,0-5.48-.08a10.48,10.48,0,0,1-2.27-.18,10,10,0,0,1,2.27-.19c1.4,0,3.34-.07,5.48-.07h.9V106c0,2,0,3.77-.08,5a8.57,8.57,0,0,1-.18,2.09Z" transform="translate(-259.494 -60)" fill="#263238"/>
      <path id="Trazado_120886" data-name="Trazado 120886" d="M337.41,233.39c0,.15-5.16.26-11.53.26s-11.53-.11-11.53-.26,5.16-.26,11.53-.26S337.41,233.25,337.41,233.39Z" transform="translate(-259.494 -60)" fill="#263238"/>
      <path id="Trazado_120887" data-name="Trazado 120887" d="M325.57,241.29a14.15,14.15,0,0,1,0-5.4A14.15,14.15,0,0,1,325.57,241.29Z" transform="translate(-259.494 -60)" fill="#263238"/>
      <path id="Trazado_120888" data-name="Trazado 120888" d="M353.83,244c0,.14-13.87.26-31,.26s-31-.12-31-.26,13.86-.26,31-.26S353.83,243.85,353.83,244Z" transform="translate(-259.494 -60)" fill="#263238"/>
      <path id="Trazado_120889" data-name="Trazado 120889" d="M292.32,251.68a27,27,0,0,1,0-7.48,27,27,0,0,1,0,7.48Z" transform="translate(-259.494 -60)" fill="#263238"/>
      <path id="Trazado_120890" data-name="Trazado 120890" d="M314.35,250.85a20.069,20.069,0,0,1,0-6.44,20.071,20.071,0,0,1,0,6.44Z" transform="translate(-259.494 -60)" fill="#263238"/>
      <path id="Trazado_120891" data-name="Trazado 120891" d="M337,251.26a24.089,24.089,0,0,1,0-7.06A24.091,24.091,0,0,1,337,251.26Z" transform="translate(-259.494 -60)" fill="#263238"/>
      <path id="Trazado_120892" data-name="Trazado 120892" d="M354.24,251.26a25.538,25.538,0,0,1,0-7.27,25.538,25.538,0,0,1,0,7.27Z" transform="translate(-259.494 -60)" fill="#263238"/>
      <path id="Trazado_120893" data-name="Trazado 120893" d="M300,253.76a54.726,54.726,0,0,1-7.48.26,54.721,54.721,0,0,1-7.48-.26,52.859,52.859,0,0,1,7.48-.26,52.864,52.864,0,0,1,7.48.26Z" transform="translate(-259.494 -60)" fill="#263238"/>
      <path id="Trazado_120894" data-name="Trazado 120894" d="M319.13,253.76a62.945,62.945,0,0,1-11.43,0,62.938,62.938,0,0,1,11.43,0Z" transform="translate(-259.494 -60)" fill="#263238"/>
      <path id="Trazado_120895" data-name="Trazado 120895" d="M343.44,254.38a72.388,72.388,0,0,1-12.26,0,72.386,72.386,0,0,1,12.26,0Z" transform="translate(-259.494 -60)" fill="#263238"/>
      <path id="Trazado_120896" data-name="Trazado 120896" d="M363.18,253.34a82.508,82.508,0,0,1-13.09,0A82.508,82.508,0,0,1,363.18,253.34Z" transform="translate(-259.494 -60)" fill="#263238"/>
      <path id="Trazado_120897" data-name="Trazado 120897" d="M292.53,261a9.27,9.27,0,0,1,0-4.36,9.27,9.27,0,0,1,0,4.36Z" transform="translate(-259.494 -60)" fill="#263238"/>
      <path id="Trazado_120898" data-name="Trazado 120898" d="M306.75,261c0,.14-6.05.26-13.5.26s-13.51-.12-13.51-.26,6.05-.26,13.51-.26S306.75,260.88,306.75,261Z" transform="translate(-259.494 -60)" fill="#263238"/>
      <path id="Trazado_120899" data-name="Trazado 120899" d="M306.75,267.26a18.789,18.789,0,0,1,0-6.23,18.79,18.79,0,0,1,0,6.23Z" transform="translate(-259.494 -60)" fill="#263238"/>
      <path id="Trazado_120900" data-name="Trazado 120900" d="M279.74,267.68a21.39,21.39,0,0,1,0-6.65,21.391,21.391,0,0,1,0,6.65Z" transform="translate(-259.494 -60)" fill="#263238"/>
      <path id="Trazado_120901" data-name="Trazado 120901" d="M337.55,261a9.27,9.27,0,0,1,0-4.36,9.27,9.27,0,0,1,0,4.36Z" transform="translate(-259.494 -60)" fill="#263238"/>
      <path id="Trazado_120902" data-name="Trazado 120902" d="M370.39,261c0,.14-10.22.26-22.82.26s-22.81-.12-22.81-.26,10.21-.26,22.81-.26S370.39,260.88,370.39,261Z" transform="translate(-259.494 -60)" fill="#263238"/>
      <path id="Trazado_120903" data-name="Trazado 120903" d="M351.77,267.26a18.789,18.789,0,0,1,0-6.23,18.79,18.79,0,0,1,0,6.23Z" transform="translate(-259.494 -60)" fill="#263238"/>
      <path id="Trazado_120904" data-name="Trazado 120904" d="M371.32,267.26a18.789,18.789,0,0,1,0-6.23,18.789,18.789,0,0,1,0,6.23Z" transform="translate(-259.494 -60)" fill="#263238"/>
      <path id="Trazado_120905" data-name="Trazado 120905" d="M324.76,267.68a21.391,21.391,0,0,1,0-6.65,21.391,21.391,0,0,1,0,6.65Z" transform="translate(-259.494 -60)" fill="#263238"/>
      <path id="Trazado_120906" data-name="Trazado 120906" d="M285.06,271.51a54.561,54.561,0,0,1-10.64,0A54.561,54.561,0,0,1,285.06,271.51Z" transform="translate(-259.494 -60)" fill="#263238"/>
      <path id="Trazado_120907" data-name="Trazado 120907" d="M311.52,270.75a63.82,63.82,0,0,1-11.51,0A63.82,63.82,0,0,1,311.52,270.75Z" transform="translate(-259.494 -60)" fill="#263238"/>
      <path id="Trazado_120908" data-name="Trazado 120908" d="M330.63,270.75a49.469,49.469,0,0,1-10.13,0,49.472,49.472,0,0,1,10.13,0Z" transform="translate(-259.494 -60)" fill="#263238"/>
      <path id="Trazado_120909" data-name="Trazado 120909" d="M356.4,270.75a58.2,58.2,0,0,1-11,0A58.2,58.2,0,0,1,356.4,270.75Z" transform="translate(-259.494 -60)" fill="#263238"/>
      <path id="Trazado_120910" data-name="Trazado 120910" d="M377,270.06a60,60,0,0,1-11.16,0,60,60,0,0,1,11.16,0Z" transform="translate(-259.494 -60)" fill="#263238"/>
      <path id="Trazado_120911" data-name="Trazado 120911" d="M453,274.11H382.47V230.43H453Zm-70.49-.05H453V230.48H382.52Z" transform="translate(-259.494 -60)" fill="#263238"/>
      <path id="Trazado_120912" data-name="Trazado 120912" d="M436,262c-4.89-1.85-10.51,3.27-15.31,1.18-2.78-1.21-4.05-4.37-5.42-7.08s-3.72-5.59-6.74-5.27-5.52,3.85-8.47,3c-1.86-.54-2.78-2.6-3.25-4.48s-.79-3.95-2.21-5.27-4.36-1-4.59,1v23.13h55.13S437.66,262.64,436,262Z" transform="translate(-259.494 -60)" fill="#f5ca56"/>
      <path id="Trazado_120913" data-name="Trazado 120913" d="M446.58,268.17c0,.05-13.36.09-29.84.09s-29.84,0-29.84-.09,13.36-.09,29.84-.09S446.58,268.12,446.58,268.17Z" transform="translate(-259.494 -60)" fill="#e0e0e0"/>
      <path id="Trazado_120914" data-name="Trazado 120914" d="M446.58,258.07c0,.05-13.36.09-29.84.09s-29.84,0-29.84-.09,13.36-.09,29.84-.09S446.58,258,446.58,258.07Z" transform="translate(-259.494 -60)" fill="#263238"/>
      <path id="Trazado_120915" data-name="Trazado 120915" d="M446.58,248s-13.36.08-29.84.08-29.84,0-29.84-.08,13.36-.09,29.84-.09S446.58,247.92,446.58,248Z" transform="translate(-259.494 -60)" fill="#263238"/>
      <path id="Trazado_120916" data-name="Trazado 120916" d="M446.58,238.36s-13.36.09-29.84.09-29.84,0-29.84-.09,13.36-.09,29.84-.09S446.58,238.31,446.58,238.36Z" transform="translate(-259.494 -60)" fill="#263238"/>
      <path id="Trazado_120917" data-name="Trazado 120917" d="M287.79,98.29h.38a5.77,5.77,0,0,1,1.1.1,5.65,5.65,0,0,1,1.66.57,5.38,5.38,0,0,1,1.77,1.52,6.28,6.28,0,0,1,1.17,2.6,6.2,6.2,0,0,1-.41,3.25,9.62,9.62,0,0,1-.81,1.6,16.925,16.925,0,0,0-.91,1.62,13.7,13.7,0,0,0-1.22,3.71v.09h-.09l-2.61-.06-2.74-.07H285v-.1a7.83,7.83,0,0,0-1.13-3.66c-.29-.56-.62-1.08-.93-1.61a15.636,15.636,0,0,1-.86-1.55,5.09,5.09,0,0,1-.29-3.24,6.8,6.8,0,0,1,1.13-2.59A5,5,0,0,1,284.67,99a6.18,6.18,0,0,1,1.65-.56,6.42,6.42,0,0,1,1.09-.14h0a6.84,6.84,0,0,0-1.07.17,6.529,6.529,0,0,0-1.62.58,5.079,5.079,0,0,0-1.73,1.47,6.711,6.711,0,0,0-1.07,2.55,4.89,4.89,0,0,0,.29,3.13,15.841,15.841,0,0,0,.86,1.53c.31.52.64,1.05.94,1.61a7.91,7.91,0,0,1,1.15,3.76l-.09-.11,2.74.07,2.61.07-.1.08a14.2,14.2,0,0,1,1.24-3.76,16.914,16.914,0,0,1,.93-1.63,9.3,9.3,0,0,0,.8-1.57,5.92,5.92,0,0,0,.42-3.17,6.261,6.261,0,0,0-1.11-2.54A5.55,5.55,0,0,0,290.88,99a5.87,5.87,0,0,0-1.62-.59,7.351,7.351,0,0,0-1.09-.13h-.29Z" transform="translate(-259.494 -60)" fill="#263238"/>
      <path id="Trazado_120918" data-name="Trazado 120918" d="M288.55,113a.624.624,0,0,0,0-.09v-.24c0-.22-.06-.54-.11-1-.08-.83-.21-2-.27-3.51v-2.43a3.5,3.5,0,0,1,.35-1.31,2.07,2.07,0,0,1,1.05-1,1.35,1.35,0,0,1,1.43.34,1,1,0,0,1,.28.73,1.31,1.31,0,0,1-.3.75,1.9,1.9,0,0,1-.66.49,3.581,3.581,0,0,1-.79.23,10.52,10.52,0,0,1-3.36,0,2.66,2.66,0,0,1-.78-.26,2,2,0,0,1-.65-.5,1.54,1.54,0,0,1-.36-.72,1.23,1.23,0,0,1,.13-.78,1.09,1.09,0,0,1,.58-.52.94.94,0,0,1,.75.07,1.37,1.37,0,0,1,.54.5,1.88,1.88,0,0,1,.25.67,7.823,7.823,0,0,1,.08,1.35V113a.449.449,0,0,0,0-.08v-1.25c0-.83,0-2-.06-3.51v-2.43a7.648,7.648,0,0,0-.08-1.34,1.84,1.84,0,0,0-.24-.64,1.31,1.31,0,0,0-.52-.47.83.83,0,0,0-.69-.06,1,1,0,0,0-.53.48,1.11,1.11,0,0,0-.12.72,1.54,1.54,0,0,0,.34.69,2.39,2.39,0,0,0,1.39.73,9.15,9.15,0,0,0,1.66.15,8.331,8.331,0,0,0,1.66-.13,2.91,2.91,0,0,0,.78-.22,1.8,1.8,0,0,0,.63-.46,1.23,1.23,0,0,0,.28-.7.9.9,0,0,0-.26-.68,1.27,1.27,0,0,0-1.34-.32,1.94,1.94,0,0,0-1,.94,3.27,3.27,0,0,0-.35,1.28,10.454,10.454,0,0,1-.05,1.26,8.976,8.976,0,0,0,0,1.16c.05,1.48.17,2.68.24,3.5a7.618,7.618,0,0,0,.1,1V113Z" transform="translate(-259.494 -60)" fill="#263238"/>
      <path id="Trazado_120919" data-name="Trazado 120919" d="M285.07,113v3.17h0l1.7,2.12h1.89l1.07-1.21.54-.6v.08c0-1.21,0-2.35.06-3.39l.11.11-3.85-.12h-1.52a1.34,1.34,0,0,1,.36,0h5.09v3.5h0l-.54.61-1.07,1.2h-2.12L285,116.26h0c0-.91.05-1.69.07-2.35a5.41,5.41,0,0,1,0-.91Z" transform="translate(-259.494 -60)" fill="#263238"/>
      <path id="Trazado_120920" data-name="Trazado 120920" d="M290.26,116.22l-.2-.09a4,4,0,0,0-.52-.23,5.1,5.1,0,0,0-1.85-.36,5.17,5.17,0,0,0-1.85.32,4.538,4.538,0,0,0-.53.22l-.2.09a.74.74,0,0,1,.18-.12l.53-.25a5.19,5.19,0,0,1,1.87-.35,5.07,5.07,0,0,1,1.87.39,4.939,4.939,0,0,1,.52.26.74.74,0,0,1,.18.12Z" transform="translate(-259.494 -60)" fill="#263238"/>
      <path id="Trazado_120921" data-name="Trazado 120921" d="M290.29,115.4l-.19-.1-.53-.23a5.56,5.56,0,0,0-1.85-.36,5.38,5.38,0,0,0-1.85.33,4.538,4.538,0,0,0-.53.22l-.19.08.18-.11a3.2,3.2,0,0,1,.52-.25,5,5,0,0,1,1.88-.35,5.06,5.06,0,0,1,1.86.39,3.54,3.54,0,0,1,.52.26A.74.74,0,0,1,290.29,115.4Z" transform="translate(-259.494 -60)" fill="#263238"/>
      <path id="Trazado_120922" data-name="Trazado 120922" d="M290.27,114.61a.941.941,0,0,1-.19-.09,4.289,4.289,0,0,0-.53-.23,5.2,5.2,0,0,0-3.7,0c-.22.08-.4.16-.53.22l-.19.09.18-.12c.12-.06.3-.15.52-.24a4.88,4.88,0,0,1,1.88-.35,4.93,4.93,0,0,1,1.87.38c.22.1.4.19.52.26Z" transform="translate(-259.494 -60)" fill="#263238"/>
      <path id="Trazado_120923" data-name="Trazado 120923" d="M309.37,136.14s-2,18.45.57,28.55l24.65-1.08s-5.28-18.19-2-26.25Z" transform="translate(-259.494 -60)" fill="#ebebeb"/>
      <path id="Trazado_120924" data-name="Trazado 120924" d="M309.47,135.55s.17,19.92,1.18,26l25-1.18s-2.2-19.58-1.35-24.81Z" transform="translate(-259.494 -60)" fill="rgba(193,80,127,0.5)"/>
      <path id="Trazado_120925" data-name="Trazado 120925" d="M330.51,143.92c0,.09-3.74.39-8.37.67s-8.38.43-8.39.33,3.74-.39,8.37-.67S330.51,143.82,330.51,143.92Z" transform="translate(-259.494 -60)" fill="#fff"/>
      <path id="Trazado_120926" data-name="Trazado 120926" d="M330.52,148.13c0,.1-3.74.4-8.37.67s-8.39.43-8.39.34,3.74-.39,8.37-.67S330.51,148,330.52,148.13Z" transform="translate(-259.494 -60)" fill="#fff"/>
      <path id="Trazado_120927" data-name="Trazado 120927" d="M326.27,152.28a6.151,6.151,0,0,1-1.39.2c-.86.08-2.05.17-3.37.25s-2.52.13-3.38.15a5.37,5.37,0,0,1-1.41,0,5.63,5.63,0,0,1,1.39-.2c.87-.08,2.06-.17,3.38-.25s2.51-.14,3.38-.16a5.489,5.489,0,0,1,1.4.01Z" transform="translate(-259.494 -60)" fill="#fff"/>
      <path id="Trazado_120928" data-name="Trazado 120928" d="M366.42,103.21c0,.15-14.61.26-32.63.26s-32.63-.11-32.63-.26,14.61-.26,32.63-.26S366.42,103.07,366.42,103.21Z" transform="translate(-259.494 -60)" fill="#263238"/>
      <path id="Trazado_120929" data-name="Trazado 120929" d="M325.13,109.16c0,.15-5.48.26-12.24.26s-12.24-.11-12.24-.26,5.48-.26,12.24-.26S325.13,109,325.13,109.16Z" transform="translate(-259.494 -60)" fill="#263238"/>
      <path id="Trazado_120930" data-name="Trazado 120930" d="M338.13,109.16a43,43,0,0,1-9.44,0A43,43,0,0,1,338.13,109.16Z" transform="translate(-259.494 -60)" fill="#263238"/>
      <path id="Trazado_120931" data-name="Trazado 120931" d="M474.54,171.9a.889.889,0,0,1,0-.23,2.891,2.891,0,0,0-.06-.67c-.05-.63-.12-1.49-.21-2.57-.15-2.29-.37-5.51-.64-9.47-.5-8.05-1.19-19.08-1.95-31.27s-1.32-23.23-1.79-31.28c-.2-4-.36-7.19-.48-9.48,0-1.08-.08-1.94-.1-2.58v-.67a.6.6,0,0,1,0-.23q.006.115,0,.23l.06.67c.05.63.12,1.49.2,2.57.16,2.29.38,5.51.65,9.47.5,8,1.19,19.08,1.94,31.27s1.33,23.23,1.79,31.27c.21,4,.37,7.2.49,9.49,0,1.08.08,1.94.1,2.58v.67a.6.6,0,0,1,0,.23Z" transform="translate(-259.494 -60)" fill="#263238"/>
      <path id="Trazado_120932" data-name="Trazado 120932" d="M469.27,60.83H436.39L357,60.84l-82.15-.26h0a19.78,19.78,0,0,0-10.44,6.51,19.25,19.25,0,0,0-4.06,8.38,20.35,20.35,0,0,0-.39,5.89c.06.67.12,1.18.18,1.52a4.929,4.929,0,0,1,.07.52,13.146,13.146,0,0,1-.35-2,19.669,19.669,0,0,1,.3-5.94,19.33,19.33,0,0,1,4-8.51,20,20,0,0,1,10.58-6.68h0l82.16.1,79.35.25,24.06.14,6.54.06h1.7Z" transform="translate(-259.494 -60)" fill="#263238"/>
    </g>
    <g id="freepik--character-2--inject-9" transform="translate(362.295 99.903)">
      <path id="Trazado_120961" data-name="Trazado 120961" d="M492.29,446.69l-1.63,20.53s-20.28,6.52-20.4,10.32l39.68.52,1.17-31.41Z" transform="translate(-394.434 -99.903)" fill="#26aab7"/>
      <path id="Trazado_120962" data-name="Trazado 120962" d="M502.89,465.13a1.63,1.63,0,0,1,1.18,1.82,1.57,1.57,0,0,1-1.79,1.18A1.71,1.71,0,0,1,501,466.2a1.61,1.61,0,0,1,2-1" transform="translate(-394.434 -99.903)" fill="#ebebeb"/>
      <path id="Trazado_120963" data-name="Trazado 120963" d="M509.94,478.06l-.08-3.18-37.58.23s-2.15,1.28-2.09,2.52Z" transform="translate(-394.434 -99.903)" fill="#ebebeb"/>
      <path id="Trazado_120964" data-name="Trazado 120964" d="M490,467c0,.19,1,.25,2,.85s1.51,1.39,1.68,1.31-.14-1.2-1.33-1.9A2.394,2.394,0,0,0,490,467Z" transform="translate(-394.434 -99.903)" fill="#263238"/>
      <path id="Trazado_120965" data-name="Trazado 120965" d="M485.9,468.89c0,.19.81.49,1.49,1.29s.9,1.66,1.1,1.65.28-1.12-.59-2.1S485.9,468.7,485.9,468.89Z" transform="translate(-394.434 -99.903)" fill="#263238"/>
      <path id="Trazado_120966" data-name="Trazado 120966" d="M483.68,473.94c.18,0,.42-.94-.11-2s-1.45-1.44-1.52-1.27.5.71.92,1.58S483.49,473.93,483.68,473.94Z" transform="translate(-394.434 -99.903)" fill="#263238"/>
      <path id="Trazado_120967" data-name="Trazado 120967" d="M490.22,462.35c.09.17,1-.12,2.07-.08s2,.36,2.06.19-.75-.84-2-.87S490.12,462.2,490.22,462.35Z" transform="translate(-394.434 -99.903)" fill="#263238"/>
      <path id="Trazado_120968" data-name="Trazado 120968" d="M490,458.22a3.67,3.67,0,0,0,2-.07,8.712,8.712,0,0,0,2.07-.7,9.126,9.126,0,0,0,1.12-.64,2.72,2.72,0,0,0,.59-.49.85.85,0,0,0,0-1,1.06,1.06,0,0,0-.86-.42,2.581,2.581,0,0,0-.74.13,7.461,7.461,0,0,0-1.23.46,6.718,6.718,0,0,0-1.79,1.26c-.9.88-1.19,1.61-1.12,1.65s.52-.56,1.43-1.3a8.339,8.339,0,0,1,1.75-1.05,7.49,7.49,0,0,1,1.13-.38c.41-.13.77-.14.89,0s0,.1,0,.23a2.379,2.379,0,0,1-.43.35,9.616,9.616,0,0,1-1,.63,10.678,10.678,0,0,1-1.9.8,14.405,14.405,0,0,0-1.91.54Z" transform="translate(-394.434 -99.903)" fill="#263238"/>
      <path id="Trazado_120969" data-name="Trazado 120969" d="M490.29,458.49a3.17,3.17,0,0,0,.46-1.94,6.441,6.441,0,0,0-.33-2.17,7.406,7.406,0,0,0-.55-1.19,1.63,1.63,0,0,0-1.3-1,.91.91,0,0,0-.81.58,2.769,2.769,0,0,0-.18.73,4.26,4.26,0,0,0,0,1.34,4.6,4.6,0,0,0,.91,2c.81,1,1.62,1.21,1.64,1.15a8.346,8.346,0,0,1-1.25-1.43,4.55,4.55,0,0,1-.69-1.85,4.42,4.42,0,0,1,0-1.15c0-.42.2-.77.36-.73a1.489,1.489,0,0,1,.72.63,7.4,7.4,0,0,1,.52,1.06,7.491,7.491,0,0,1,.45,2C490.37,457.73,490.18,458.46,490.29,458.49Z" transform="translate(-394.434 -99.903)" fill="#263238"/>
      <path id="Trazado_120970" data-name="Trazado 120970" d="M578.09,443.27l4.58,24,9.1,17.92a2.5,2.5,0,0,1-1.25,3.43h0a2.48,2.48,0,0,1-2.29-.17c-4.39-2.71-20.5-12.75-20.74-14.53-.27-2-6.52-25-6.52-25Z" transform="translate(-394.434 -99.903)" fill="#26aab7"/>
      <path id="Trazado_120971" data-name="Trazado 120971" d="M590.52,488.6l-23.38-16.31.22,1a3.75,3.75,0,0,0,1.39,2.2c1.9,1.46,7.23,5.36,19.41,12.95a2.5,2.5,0,0,0,2.36.15Z" transform="translate(-394.434 -99.903)" fill="#ebebeb"/>
      <path id="Trazado_120972" data-name="Trazado 120972" d="M570.4,465.26a1.5,1.5,0,0,1,.82,1.84,1.45,1.45,0,0,1-1.82.83,1.6,1.6,0,0,1-.86-2,1.52,1.52,0,0,1,2-.65" transform="translate(-394.434 -99.903)" fill="#ebebeb"/>
      <path id="Trazado_120973" data-name="Trazado 120973" d="M582.82,479.35a7.63,7.63,0,0,1,1.69-2.31,8,8,0,0,1,2.64-1.12c0-.06-.34-.18-.91-.14a3.939,3.939,0,0,0-2.06.84,3.86,3.86,0,0,0-1.29,1.81C582.72,479,582.76,479.34,582.82,479.35Z" transform="translate(-394.434 -99.903)" fill="#263238"/>
      <path id="Trazado_120974" data-name="Trazado 120974" d="M585.21,482.18c.13.08.73-.86,1.89-1.48a21.323,21.323,0,0,1,2.26-.81,2.8,2.8,0,0,0-2.52.34C585.52,480.94,585.07,482.14,585.21,482.18Z" transform="translate(-394.434 -99.903)" fill="#263238"/>
      <path id="Trazado_120975" data-name="Trazado 120975" d="M578.77,475.93a25.422,25.422,0,0,1,2.77-2.48,24.993,24.993,0,0,1,3.36-1.59,6.83,6.83,0,0,0-6.13,4.07Z" transform="translate(-394.434 -99.903)" fill="#263238"/>
      <path id="Trazado_120976" data-name="Trazado 120976" d="M576.77,468.76c.09.13,1.29-.7,3-1.14s3.15-.31,3.17-.47a6.25,6.25,0,0,0-6.17,1.61Z" transform="translate(-394.434 -99.903)" fill="#263238"/>
      <path id="Trazado_120977" data-name="Trazado 120977" d="M575.25,461.76a12,12,0,0,1,3.08-1.27,12.722,12.722,0,0,1,3.34.11,1.836,1.836,0,0,0-.92-.5,5.43,5.43,0,0,0-4.82.87C575.42,461.37,575.2,461.71,575.25,461.76Z" transform="translate(-394.434 -99.903)" fill="#263238"/>
      <path id="Trazado_120978" data-name="Trazado 120978" d="M578,459.17a3.746,3.746,0,0,0-.16-.91,6.209,6.209,0,0,0-1.22-2.21,2.88,2.88,0,0,0-1.48-1.07,1,1,0,0,0-1.06.45,1.631,1.631,0,0,0-.15,1.16,3.54,3.54,0,0,0,3.72,2.55,4.11,4.11,0,0,0,3.49-2.95A1.46,1.46,0,0,0,581,455a1,1,0,0,0-1.12-.29,3.53,3.53,0,0,0-1.39,1.15,7.209,7.209,0,0,0-1.23,2.21,2.2,2.2,0,0,0-.19.9,11.55,11.55,0,0,1,1.71-2.86,3.2,3.2,0,0,1,1.24-1,.54.54,0,0,1,.61.16,1,1,0,0,1,.07.78,3.66,3.66,0,0,1-3,2.51,3.06,3.06,0,0,1-3.18-2.11,1.18,1.18,0,0,1,.06-.82.56.56,0,0,1,.58-.26,2.58,2.58,0,0,1,1.27.89,9.069,9.069,0,0,1,1.57,2.91Z" transform="translate(-394.434 -99.903)" fill="#263238"/>
      <path id="Trazado_120979" data-name="Trazado 120979" d="M492,258c-.25,0-3.29,201.15-3.29,201.15l24.31-.84,8.41-98.9,2-72.6L540,354l20.63,105.39,24.27-6.09L554,256.72l-29.08-5.62Z" transform="translate(-394.434 -99.903)" fill="#263238"/>
      <path id="Trazado_120980" data-name="Trazado 120980" d="M544.85,133.75c2.91-5.74,3.82-16.06.49-21.77s-10.09-9.84-16.43-11.72a5.53,5.53,0,0,0-3.26-.2,2.18,2.18,0,0,0-1.54,2.55,14.05,14.05,0,0,0-4-2.29,4.73,4.73,0,0,0-4.37.62,2.88,2.88,0,0,0-.42,4.06,5,5,0,0,0-6.74,6.11,16,16,0,0,0,3.23,5.09c1.26,1.34,1.38,2.64,1,4.45" transform="translate(-394.434 -99.903)" fill="#263238"/>
      <path id="Trazado_120981" data-name="Trazado 120981" d="M520.88,181.06c.18-2.76.63-27.7.62-27.81s-9.26-1.15-9.66-10.36c-.19-4.45.16-13.64.57-21.95A17.17,17.17,0,0,1,529,104.62h.89c9.6.26,14.74,8.56,14.21,18.15l-1.31,53.37" transform="translate(-394.434 -99.903)" fill="#ffbe9d"/>
      <path id="Trazado_120982" data-name="Trazado 120982" d="M521.5,153.25a22.28,22.28,0,0,0,11.89-3.92s-2.77,5.76-12,5.22Z" transform="translate(-394.434 -99.903)" fill="#eb996e"/>
      <path id="Trazado_120983" data-name="Trazado 120983" d="M514,127.16a1.33,1.33,0,0,0,1.31,1.29,1.26,1.26,0,0,0,1.32-1.23,1.3,1.3,0,0,0-1.31-1.29,1.26,1.26,0,0,0-1.32,1.23Z" transform="translate(-394.434 -99.903)" fill="#263238"/>
      <path id="Trazado_120984" data-name="Trazado 120984" d="M514.53,125.39c.17.16,1.14-.61,2.56-.65s2.47.64,2.62.46-.1-.38-.57-.7a3.62,3.62,0,0,0-2.1-.58,3.48,3.48,0,0,0-2,.73C514.58,125,514.45,125.31,514.53,125.39Z" transform="translate(-394.434 -99.903)" fill="#263238"/>
      <path id="Trazado_120985" data-name="Trazado 120985" d="M528.14,127.36a1.32,1.32,0,0,0,1.31,1.29,1.25,1.25,0,0,0,1.32-1.23,1.32,1.32,0,0,0-1.31-1.29,1.28,1.28,0,0,0-1.32,1.23Z" transform="translate(-394.434 -99.903)" fill="#263238"/>
      <path id="Trazado_120986" data-name="Trazado 120986" d="M528.45,125.22c.17.16,1.15-.61,2.56-.65s2.48.64,2.62.46-.1-.38-.56-.7a3.68,3.68,0,0,0-2.11-.58,3.51,3.51,0,0,0-2,.73C528.51,124.83,528.37,125.14,528.45,125.22Z" transform="translate(-394.434 -99.903)" fill="#263238"/>
      <path id="Trazado_120987" data-name="Trazado 120987" d="M523.64,135.88a8.68,8.68,0,0,0-2.31-.35c-.36,0-.71-.09-.78-.33a1.9,1.9,0,0,1,.21-1.08l1-2.78c1.37-4,2.34-7.23,2.18-7.28s-1.39,3.12-2.76,7.08c-.32,1-.64,1.91-.93,2.8a2.08,2.08,0,0,0-.15,1.43.93.93,0,0,0,.61.51,2.39,2.39,0,0,0,.62.06,9.109,9.109,0,0,0,2.31-.06Z" transform="translate(-394.434 -99.903)" fill="#263238"/>
      <path id="Trazado_120988" data-name="Trazado 120988" d="M527.84,136.73c-.23,0-.19,1.53-1.47,2.66s-2.92,1-2.93,1.23.38.28,1.07.28A3.87,3.87,0,0,0,527,140a3.37,3.37,0,0,0,1.13-2.23C528.13,137.09,527.94,136.71,527.84,136.73Z" transform="translate(-394.434 -99.903)" fill="#263238"/>
      <path id="Trazado_120989" data-name="Trazado 120989" d="M527.91,119.68c.16.38,1.56.15,3.23.3s3,.56,3.23.21c.1-.17-.15-.52-.7-.88a5.48,5.48,0,0,0-2.42-.76,5.41,5.41,0,0,0-2.5.37C528.15,119.19,527.85,119.5,527.91,119.68Z" transform="translate(-394.434 -99.903)" fill="#263238"/>
      <path id="Trazado_120990" data-name="Trazado 120990" d="M514.92,121.27c.26.32,1.23,0,2.4-.1s2.17.15,2.39-.19c.09-.17-.07-.49-.52-.78a3.37,3.37,0,0,0-2-.47,3.28,3.28,0,0,0-1.89.71C514.93,120.78,514.81,121.12,514.92,121.27Z" transform="translate(-394.434 -99.903)" fill="#263238"/>
      <path id="Trazado_120991" data-name="Trazado 120991" d="M543.59,129.59c.16-.07,6.27-2.07,6.27,4.24s-6.33,5-6.35,4.82S543.59,129.59,543.59,129.59Z" transform="translate(-394.434 -99.903)" fill="#ffbe9d"/>
      <path id="Trazado_120992" data-name="Trazado 120992" d="M545.44,136.26a1.632,1.632,0,0,0,.3.16,1.07,1.07,0,0,0,.82,0,2.72,2.72,0,0,0,1.26-2.44,3.76,3.76,0,0,0-.31-1.57,1.27,1.27,0,0,0-.82-.84.55.55,0,0,0-.65.3c-.09.17,0,.3-.08.31s-.13-.11-.08-.37a.7.7,0,0,1,.24-.39.84.84,0,0,1,.61-.16,1.52,1.52,0,0,1,1.15,1,3.689,3.689,0,0,1,.38,1.75,2.87,2.87,0,0,1-1.61,2.73,1.18,1.18,0,0,1-1-.17C545.45,136.41,545.42,136.27,545.44,136.26Z" transform="translate(-394.434 -99.903)" fill="#eb996e"/>
      <path id="Trazado_120993" data-name="Trazado 120993" d="M508.39,109c-.74,8.17,9.33,11.58,13.75,7,2-2.11,3.82-4.75,6.6-5.7a7.5,7.5,0,0,1,5.75.6h0c2.6,1.35,4.13,4.36,4.54,7.26.56,4-.09,7.6,1,11.31a2.5,2.5,0,0,0,.78,1.43,2,2,0,0,0,2.49-.63,7.75,7.75,0,0,0,1.58-4.16,25.811,25.811,0,0,0-.38-10.21,17.64,17.64,0,0,0-5.12-8.76,16.74,16.74,0,0,0-11.86-4.06,20.59,20.59,0,0,0-11.77,4.62,12.079,12.079,0,0,0-3.73,4.58" transform="translate(-394.434 -99.903)" fill="#263238"/>
      <path id="Trazado_120994" data-name="Trazado 120994" d="M515.06,104.53a1.88,1.88,0,0,0-.87,0,4.37,4.37,0,0,0-2.08,1.16,5.4,5.4,0,0,0-1.57,3.17,6.1,6.1,0,0,0,1.21,4.16,8,8,0,0,0,3.41,2.66,10.69,10.69,0,0,0,3.44.76,12.741,12.741,0,0,0,2.36-.07,2.85,2.85,0,0,0,.85-.17c0-.09-1.23.08-3.18-.1a11.34,11.34,0,0,1-3.29-.83,7.72,7.72,0,0,1-3.2-2.54A5.71,5.71,0,0,1,511,109a5.12,5.12,0,0,1,1.36-3,4.51,4.51,0,0,1,1.89-1.22C514.76,104.59,515.07,104.58,515.06,104.53Z" transform="translate(-394.434 -99.903)" fill="#455a64"/>
      <path id="Trazado_120995" data-name="Trazado 120995" d="M519.28,101.65a.915.915,0,0,0-.6.1,2,2,0,0,0-1,1.35,3.62,3.62,0,0,0,.48,2.41,10.429,10.429,0,0,0,1.72,2.41,11,11,0,0,0,4.51,2.86,5.1,5.1,0,0,0,2.18.37c0-.09-.82-.19-2.06-.69a12,12,0,0,1-4.27-2.87,11.14,11.14,0,0,1-1.69-2.29,3.5,3.5,0,0,1-.54-2.14,2,2,0,0,1,.75-1.25C519.07,101.71,519.29,101.69,519.28,101.65Z" transform="translate(-394.434 -99.903)" fill="#455a64"/>
      <path id="Trazado_120996" data-name="Trazado 120996" d="M464.39,183.29,421,179.18l-6.86-1.65s-15.68-2.8-17.15-3.27c-1.7-.53-2.37.16-2.52.8-.24,1,.75,2.07,2.19,2.57.5.18,8.49,2.6,8.49,2.6a20.235,20.235,0,0,0-2.63.87c-1.86.71-3.58,3.22-4.37,6.09s-.76,3.74.34,4.1a1.44,1.44,0,0,0,1.24-.22A2.92,2.92,0,0,0,401,189.4c1.34-4.58,4.15-5.05,4.15-5.05l.9.22s-2.84,2.15-2.69,4.61a2.8,2.8,0,0,0,.27,1A3.72,3.72,0,0,0,408,195c.62-.13,1.27-.52,1.34-1.15a2.07,2.07,0,0,0-.24-1,3,3,0,0,1-.17-.5l2.6.25s5.87.26,8.41.66l40.87,10.57a10.46,10.46,0,0,0,12.8-7.69h0a10.47,10.47,0,0,0-9.22-12.85Z" transform="translate(-394.434 -99.903)" fill="#ffbe9d"/>
      <path id="Trazado_120997" data-name="Trazado 120997" d="M420.08,180.32a2.19,2.19,0,0,1-1.79,1.79c-.89.22-1.81.14-2.71.29-2.67.47-4.66,3-7.36,3.34-.37,0-.85,0-1-.37s.15-.66.41-.9l6.49-6.22" transform="translate(-394.434 -99.903)" fill="#ffbe9d"/>
      <path id="Trazado_120998" data-name="Trazado 120998" d="M414.15,178.25a4.341,4.341,0,0,0-.77.6c-.47.41-1.14,1-2,1.78l-2.88,2.67c-.27.26-.54.52-.83.78a1.612,1.612,0,0,0-.73,1.13.75.75,0,0,0,.49.7,1.55,1.55,0,0,0,.73.09,6.378,6.378,0,0,0,1.29-.31,34.552,34.552,0,0,0,4.22-2.36,6.611,6.611,0,0,1,1.9-.71c.62-.12,1.23-.13,1.8-.19a3.16,3.16,0,0,0,2.42-1.16,1.2,1.2,0,0,0,.26-1,2.79,2.79,0,0,1-.42.83,3.06,3.06,0,0,1-2.29.92,18.443,18.443,0,0,0-1.84.13,7.09,7.09,0,0,0-2,.71,39.5,39.5,0,0,1-4.19,2.29,5.47,5.47,0,0,1-1.16.29c-.37,0-.7-.08-.67-.28a1.84,1.84,0,0,1,.57-.77c.28-.26.55-.54.82-.79l2.8-2.76c.79-.79,1.43-1.44,1.86-1.89S414.18,178.28,414.15,178.25Z" transform="translate(-394.434 -99.903)" fill="#eb996e"/>
      <path id="Trazado_120999" data-name="Trazado 120999" d="M406.12,184.47a3.72,3.72,0,0,0-1.7.05,2.86,2.86,0,0,0-1.44,1.07,7.29,7.29,0,0,0-1,2.06,12.087,12.087,0,0,1-.9,2.19,3.85,3.85,0,0,1-1.36,1.41,1.47,1.47,0,0,1-1.31.08c-.29-.14-.4-.28-.39-.29s.15.08.43.17a1.38,1.38,0,0,0,1.16-.17,3.63,3.63,0,0,0,1.21-1.36,13.44,13.44,0,0,0,.85-2.14,7.12,7.12,0,0,1,1.05-2.14,3,3,0,0,1,1.62-1.11,2.61,2.61,0,0,1,1.31,0,1,1,0,0,1,.47.18Z" transform="translate(-394.434 -99.903)" fill="#eb996e"/>
      <path id="Trazado_121000" data-name="Trazado 121000" d="M396.14,177.43a9.871,9.871,0,0,1,1.59.47l3.8,1.23,3.82,1.17a10.7,10.7,0,0,1,1.58.53,6.84,6.84,0,0,1-1.64-.3c-1-.24-2.36-.61-3.86-1.08s-2.83-.95-3.78-1.33a7.721,7.721,0,0,1-1.51-.69Z" transform="translate(-394.434 -99.903)" fill="#eb996e"/>
      <path id="Trazado_121001" data-name="Trazado 121001" d="M407.35,186.83s-.11.16-.32.41a1.51,1.51,0,0,0-.44,1.2.81.81,0,0,0,.53.62,4.339,4.339,0,0,0,1.06.25,1.84,1.84,0,0,1,1.18.58,1.6,1.6,0,0,1,.26,1.41,1.82,1.82,0,0,1-.93,1.08,2.21,2.21,0,0,1-1.3.24,6.929,6.929,0,0,1-2-.67,4.17,4.17,0,0,1-1.19-.81,1,1,0,0,1-.29-.45s.13.14.38.36a4.85,4.85,0,0,0,1.19.69,7.65,7.65,0,0,0,2,.58,1.8,1.8,0,0,0,1.87-1.11,1.29,1.29,0,0,0-.19-1.12,1.58,1.58,0,0,0-1-.48,4.752,4.752,0,0,1-1.12-.3,1.06,1.06,0,0,1-.64-.83,2,2,0,0,1,1-1.65Z" transform="translate(-394.434 -99.903)" fill="#eb996e"/>
      <path id="Trazado_121002" data-name="Trazado 121002" d="M408.49,192.17a.794.794,0,0,1,.43.19,1.42,1.42,0,0,1,.53,1.18,1.91,1.91,0,0,1-1.08,1.57,3.13,3.13,0,0,1-2.34.13,3.83,3.83,0,0,1-1.92-1.35,3.59,3.59,0,0,1-.69-1.77,3.431,3.431,0,0,1,.09-1.28c.08-.29.16-.44.18-.43a5.551,5.551,0,0,0,0,1.67,3.51,3.51,0,0,0,.71,1.63,3.61,3.61,0,0,0,1.77,1.21,2.9,2.9,0,0,0,2.1-.08,1.72,1.72,0,0,0,1-1.32,1.41,1.41,0,0,0-.38-1.07C408.64,192.25,408.48,192.2,408.49,192.17Z" transform="translate(-394.434 -99.903)" fill="#eb996e"/>
      <path id="Trazado_121003" data-name="Trazado 121003" d="M415.52,188.34a1.53,1.53,0,0,1,.25-.75,3.16,3.16,0,0,1,1.52-1.35v.29a9.578,9.578,0,0,1-1-.51,7,7,0,0,1-2.81-2.68,17.16,17.16,0,0,0,3,2.4,8.477,8.477,0,0,0,1,.5l.34.16-.35.13a3.35,3.35,0,0,0-1.47,1.16C415.66,188.08,415.57,188.36,415.52,188.34Z" transform="translate(-394.434 -99.903)" fill="#eb996e"/>
      <path id="Trazado_121004" data-name="Trazado 121004" d="M401.91,184.26c.06-.06.54.43.62,1.22s-.27,1.37-.35,1.32.1-.59,0-1.28S401.83,184.32,401.91,184.26Z" transform="translate(-394.434 -99.903)" fill="#eb996e"/>
      <path id="Trazado_121005" data-name="Trazado 121005" d="M465.16,204.49,493.44,198S492,249.8,492,250.29s-2.33,1.3-2.13,5.07l2,4.47,62,.83,1.68-50.34,5.66-39-13-8.05L543.63,157l-17.88,18.86-4.45-16.1.13-4.79-4.42,4.8-23.85,6.88-31.51,14.69-21.3-1.63-5.53,18.64Z" transform="translate(-394.434 -99.903)" fill="#26aab7"/>
      <path id="Trazado_121006" data-name="Trazado 121006" d="M523.28,170.08a2.85,2.85,0,0,0-1.28,1.43,5.672,5.672,0,0,0-.39,2.18,8.441,8.441,0,0,1-.42,3l-.22.51-.22-.51a28.144,28.144,0,0,1-1.4-4.59c-.75-3.24-1.24-6.21-1.56-8.35a21.44,21.44,0,0,1-.37-3.51,27.641,27.641,0,0,1,.74,3.44c.41,2.13,1,5.08,1.7,8.3a31.091,31.091,0,0,0,1.32,4.51h-.43a8.408,8.408,0,0,0,.46-2.79,5.761,5.761,0,0,1,.52-2.28,2.6,2.6,0,0,1,1-1.14A1,1,0,0,1,523.28,170.08Z" transform="translate(-394.434 -99.903)" fill="#263238"/>
      <path id="Trazado_121007" data-name="Trazado 121007" d="M546.23,162.18a4.292,4.292,0,0,1-.6.87c-.42.53-1,1.3-1.8,2.24-1.54,1.88-3.68,4.45-6.08,7.28L533.93,177l-.3.34-.1-.43c-.55-2.18-1-4-1.28-5.3-.12-.65-.48-1-.83-1a.72.72,0,0,0-.48.13s.07-.26.48-.28a.88.88,0,0,1,.66.27,1.9,1.9,0,0,1,.44.82c.37,1.28.88,3.1,1.46,5.26l-.41-.09,3.78-4.49c2.4-2.82,4.59-5.36,6.2-7.18.8-.91,1.46-1.64,1.92-2.14S546.2,162.15,546.23,162.18Z" transform="translate(-394.434 -99.903)" fill="#263238"/>
      <path id="Trazado_121008" data-name="Trazado 121008" d="M519.86,245a2.94,2.94,0,0,1-.06-.67c0-.5,0-1.13,0-1.93v-7.07c.06-6,.35-14.23,1-23.33s1.64-17.3,2.46-23.22c.4-3,.77-5.35,1-7l.33-1.9a3.634,3.634,0,0,1,.15-.65,3.38,3.38,0,0,1,0,.67c-.06.49-.14,1.12-.23,1.91-.22,1.72-.52,4.1-.89,7-.72,5.93-1.61,14.13-2.3,23.22s-1,17.33-1.18,23.29c-.07,2.94-.12,5.34-.17,7.08,0,.79,0,1.42-.05,1.92a4.987,4.987,0,0,1-.06.68Z" transform="translate(-394.434 -99.903)" fill="#263238"/>
      <path id="Trazado_121009" data-name="Trazado 121009" d="M514.81,257.13a11.871,11.871,0,0,1-.47-4.45,16.36,16.36,0,0,1,.52-4.44,23.4,23.4,0,0,1,0,4.45C514.79,255.13,515,257.11,514.81,257.13Z" transform="translate(-394.434 -99.903)" fill="#263238"/>
      <path id="Trazado_121010" data-name="Trazado 121010" d="M540.21,242.58a12.678,12.678,0,0,1-1.59.6c-1,.36-2.56.83-4.44,1.38A146.377,146.377,0,0,1,519.24,248,143.835,143.835,0,0,1,504,249.92c-1.95.13-3.54.21-4.64.23a10.2,10.2,0,0,1-1.7,0,11.29,11.29,0,0,1,1.69-.18l4.62-.4c3.9-.36,9.28-1,15.16-2s11.15-2.31,14.93-3.31l4.48-1.23a9.778,9.778,0,0,1,1.67-.45Z" transform="translate(-394.434 -99.903)" fill="#263238"/>
      <path id="Trazado_121011" data-name="Trazado 121011" d="M493.13,208.89c-.14,0-.23-7.35-.2-16.43s.17-16.43.32-16.42.23,7.35.2,16.43S493.28,208.89,493.13,208.89Z" transform="translate(-394.434 -99.903)" fill="#263238"/>
      <path id="Trazado_121012" data-name="Trazado 121012" d="M560.06,170.56s7.81,6.7,8.33,10.5c.39,2.93,8.08,30.48,11.54,42.82a17.92,17.92,0,0,1-.66,11.63l-10,24.7-16.15-9.56,8.08-23.16-6.69-19.66Z" transform="translate(-394.434 -99.903)" fill="#26aab7"/>
      <path id="Trazado_121013" data-name="Trazado 121013" d="M569.29,260.21a1.26,1.26,0,0,1-.3-.15l-.86-.47-3.27-1.87L553,250.83l-.15-.09.06-.15c2.26-6.53,5-14.47,8-23.19v.17c-.94-2.54-1.93-5.19-2.94-7.9-2.37-6.37-4.62-12.45-6.68-18h0c-2.05-4.29-3.82-8.44-4.31-12.42a17.54,17.54,0,0,1,.16-5.59,16.819,16.819,0,0,1,1.62-4.49,18.69,18.69,0,0,1,4.18-5.26,16.755,16.755,0,0,1,1.4-1.12,3.113,3.113,0,0,1,.52-.33,3.088,3.088,0,0,1-.47.4c-.32.25-.78.63-1.35,1.16a19.3,19.3,0,0,0-4,5.29,16.071,16.071,0,0,0-1.54,4.42,17.142,17.142,0,0,0-.11,5.47c.51,3.89,2.28,8,4.35,12.27h0l6.72,18c1,2.71,2,5.36,2.94,7.91v.17c-3.06,8.7-5.84,16.63-8.13,23.15l-.09-.24,11.73,7,3.22,2,.83.52C569.2,260.13,569.3,260.2,569.29,260.21Z" transform="translate(-394.434 -99.903)" fill="#263238"/>
      <g id="Grupo_55243" data-name="Grupo 55243" transform="translate(133.186 70.677)" opacity="0.3">
        <path id="Trazado_121014" data-name="Trazado 121014" d="M527.66,174.18a2.41,2.41,0,0,1,2.4,1.76c.2,1.08.05,2.2.33,3.26s1.25,2.1,2.32,1.87a2.85,2.85,0,0,0,1.53-1.2,37.162,37.162,0,0,0,5-9.29c0,.07-5.54,6.36-5.54,6.36a18.652,18.652,0,0,0-1.24-4.63c-.19-.48-.4-1.29-.86-1.51-.75-.34-1.75.76-2.25,1.42a12.432,12.432,0,0,1-1.73,1.86" transform="translate(-527.62 -170.58)"/>
      </g>
      <g id="Grupo_55244" data-name="Grupo 55244" transform="translate(124.196 68.477)" opacity="0.3">
        <path id="Trazado_121015" data-name="Trazado 121015" d="M518.63,168.48a32.161,32.161,0,0,0,2,10.28,2.239,2.239,0,0,0,.54.9.84.84,0,0,0,1,.14,12.215,12.215,0,0,0,1-2.13c.51-1.43,2.59-1.56,2.59-1.56a37.636,37.636,0,0,0-1.36-4.76,1.33,1.33,0,0,0-1.29-.83,2.15,2.15,0,0,0-1.42,1.63c-.31,2.57-.27,3.74-.65,4.64-1-2.73-1.76-6-2.4-8.41" transform="translate(-518.63 -168.38)"/>
      </g>
      <g id="Grupo_55245" data-name="Grupo 55245" transform="translate(107.016 140.014)" opacity="0.3">
        <path id="Trazado_121016" data-name="Trazado 121016" d="M534,244.23a2.18,2.18,0,0,0,.48-3.08,3.35,3.35,0,0,0-3.13-1.19,7,7,0,0,0-3.16,1.42c-.95.69-1.82,1.48-2.82,2.09-2.45,1.5-5.43,1.85-8.31,1.89a49.441,49.441,0,0,0-8.61.39c-2.82.54-5.64,2-7,4.53C501.41,250.28,526,248.5,534,244.23Z" transform="translate(-501.45 -239.917)"/>
      </g>
      <path id="Trazado_121017" data-name="Trazado 121017" d="M550,280.35a20.391,20.391,0,0,1-6.44-6.64.28.28,0,0,0,0-.22.4.4,0,0,0-.25-.15,32,32,0,0,1-1.88-3.3c2-1.3,4.63-3.28,1.78-3.68-3.51-.5-6-2.21-6.38-3.14a1.11,1.11,0,0,1,1.73-1.18,13.222,13.222,0,0,0,3.38,1.17,8.659,8.659,0,0,0,2.87.18c.59-.07,2.68-1.5,4.92-2.55a1.71,1.71,0,0,1,1-.14l.85-.06a2.62,2.62,0,0,0,2.17-1.42l3.25-6.24,9.8,5.8-7.76,10.76A129.6,129.6,0,0,1,550,280.35Z" transform="translate(-394.434 -99.903)" fill="#ffbe9d"/>
      <path id="Trazado_121018" data-name="Trazado 121018" d="M552.06,281.47a7.7,7.7,0,0,1-2.26-1.06,20.358,20.358,0,0,1-4.64-3.86,20.579,20.579,0,0,1-3.32-5,8.261,8.261,0,0,1-.81-2.37,26.23,26.23,0,0,0,11,12.33Z" transform="translate(-394.434 -99.903)" fill="#455a64"/>
      <path id="Trazado_121019" data-name="Trazado 121019" d="M521.19,287.78a.778.778,0,0,1-.28-.08,3.381,3.381,0,0,1-.69-.45,5.72,5.72,0,0,1-1.6-2.54,40.658,40.658,0,0,1-1.09-4.28c-.36-1.62-.73-3.4-1.1-5.28-.74-3.75-1.3-7.17-1.66-9.65-.18-1.24-.31-2.25-.38-2.94a4.707,4.707,0,0,1-.07-1.09,4,4,0,0,1,.27,1l.54,2.92c.46,2.46,1.07,5.86,1.81,9.61.37,1.87.73,3.64,1.06,5.28a34.3,34.3,0,0,0,1,4.26,6.141,6.141,0,0,0,1.38,2.51A8.541,8.541,0,0,0,521.19,287.78Z" transform="translate(-394.434 -99.903)" fill="#455a64"/>
      <path id="Trazado_121020" data-name="Trazado 121020" d="M520.35,265.33a.865.865,0,0,1,.44,0,1.7,1.7,0,0,1,.92.81,1.72,1.72,0,0,1-.1,1.83,2,2,0,0,1-2.1.8,2.11,2.11,0,0,1-1.47-1.7,2,2,0,0,1,.63-1.72c.83-.71,1.58-.5,1.54-.46a3.17,3.17,0,0,0-1.28.72,1.59,1.59,0,0,0-.41,1.38,1.64,1.64,0,0,0,1.13,1.27,1.58,1.58,0,0,0,1.58-.57,1.39,1.39,0,0,0,.15-1.39C521,265.49,520.31,265.4,520.35,265.33Z" transform="translate(-394.434 -99.903)" fill="#455a64"/>
      <path id="Trazado_121021" data-name="Trazado 121021" d="M499.09,261.31a5.85,5.85,0,0,1,.26,2.3,12.37,12.37,0,0,1-5.17,9.61,5.78,5.78,0,0,1-2.07,1c0-.08.75-.47,1.85-1.34a13.57,13.57,0,0,0,5-9.34C499.11,262.2,499,261.32,499.09,261.31Z" transform="translate(-394.434 -99.903)" fill="#455a64"/>
      <path id="Trazado_121022" data-name="Trazado 121022" d="M460.28,191.15a34.318,34.318,0,0,1,.51-5,35,35,0,0,1,.72-4.94,18.57,18.57,0,0,1-.21,5,19,19,0,0,1-1.02,4.94Z" transform="translate(-394.434 -99.903)" fill="#263238"/>
      <path id="Trazado_121023" data-name="Trazado 121023" d="M440.35,179.73a1.361,1.361,0,0,1-.07.35c-.06.27-.15.6-.26,1-.26.92-.61,2.2-1.06,3.8L435,198.43l-.16-.28c5.65,1.4,12.46,2.54,19.73,3.88,3.62.68,7.11,1.41,10.33,2.21h-.11l20.28-4.59,5.91-1.28,1.58-.33a2.091,2.091,0,0,1,.56-.08,3.647,3.647,0,0,1-.54.17l-1.56.4L485.18,200l-20.24,4.77h-.12c-3.21-.79-6.69-1.51-10.31-2.18-7.25-1.34-14.08-2.51-19.74-4l-.23-.05.07-.23c1.68-5.55,3.09-10.18,4.1-13.49.49-1.58.89-2.84,1.18-3.76q.19-.6.33-1A2.069,2.069,0,0,1,440.35,179.73Z" transform="translate(-394.434 -99.903)" fill="#263238"/>
    </g>
    <g id="freepik--character-1--inject-9" transform="translate(153.77 116.879)">
      <path id="Trazado_121024" data-name="Trazado 121024" d="M160.62,410.73l-2.89,53.51,19.39,4.68,3.86-52.27Z" transform="translate(-148.492 -116.879)" fill="#aa6550"/>
      <path id="Trazado_121025" data-name="Trazado 121025" d="M157.16,463.79l-3.3,14.52h22.3l.96-9.46Z" transform="translate(-148.492 -116.879)" fill="#26aab7"/>
      <path id="Trazado_121026" data-name="Trazado 121026" d="M176.62,476.2a16.29,16.29,0,0,1-3.25.18c-2,0-4.78,0-7.84-.14l-7.83-.33a19.859,19.859,0,0,1-3.24-.26,15.4,15.4,0,0,1,3.25-.18c2,0,4.78,0,7.84.15l7.83.33a18.074,18.074,0,0,1,3.24.25Z" transform="translate(-148.492 -116.879)" fill="#263238"/>
      <path id="Trazado_121027" data-name="Trazado 121027" d="M167.17,466.62c.17,0,.16,2.11,0,4.7s-.45,4.67-.62,4.66-.17-2.12,0-4.7S167,466.6,167.17,466.62Z" transform="translate(-148.492 -116.879)" fill="#263238"/>
      <g id="Grupo_55246" data-name="Grupo 55246" transform="translate(5.368 358.771)" opacity="0.6">
        <path id="Trazado_121028" data-name="Trazado 121028" d="M153.86,478.31h22.3l.22-2.11-22.12-.55-.4,2.41" transform="translate(-153.86 -475.65)" fill="#fff"/>
      </g>
      <path id="Trazado_121029" data-name="Trazado 121029" d="M234.22,436.75l4.71,35.45,17.15-1.19-3.6-32.51Z" transform="translate(-148.492 -116.879)" fill="#aa6550"/>
      <path id="Trazado_121030" data-name="Trazado 121030" d="M256.26,467.16h0s19.28,6.51,19.6,10L239,478.26l-.33-9.63,1.36.27a27.39,27.39,0,0,0,16.23-1.74Z" transform="translate(-148.492 -116.879)" fill="#26aab7"/>
      <g id="Grupo_55247" data-name="Grupo 55247" transform="translate(93.473 353.397)" opacity="0.6">
        <path id="Trazado_121031" data-name="Trazado 121031" d="M243,470.31a1.5,1.5,0,0,0-1,1.75,1.44,1.44,0,0,0,1.72,1,1.58,1.58,0,0,0,1-1.85,1.5,1.5,0,0,0-1.91-.84" transform="translate(-241.964 -470.276)" fill="#fff"/>
      </g>
      <g id="Grupo_55248" data-name="Grupo 55248" transform="translate(90.508 358.381)" opacity="0.6">
        <path id="Trazado_121032" data-name="Trazado 121032" d="M239,478.26v-3l35.34.09s1.66.67,1.51,1.83Z" transform="translate(-239 -475.26)" fill="#fff"/>
      </g>
      <path id="Trazado_121033" data-name="Trazado 121033" d="M256.85,467c0,.18-.89.28-1.76.89s-1.32,1.37-1.49,1.31.07-1.12,1.14-1.83S256.89,466.79,256.85,467Z" transform="translate(-148.492 -116.879)" fill="#263238"/>
      <path id="Trazado_121034" data-name="Trazado 121034" d="M260.77,468.44c0,.17-.73.5-1.32,1.28s-.74,1.59-.92,1.59-.32-1,.43-2S260.76,468.27,260.77,468.44Z" transform="translate(-148.492 -116.879)" fill="#263238"/>
      <path id="Trazado_121035" data-name="Trazado 121035" d="M263.1,473c-.16,0-.44-.85,0-1.85s1.27-1.42,1.35-1.27-.43.69-.77,1.51S263.28,473,263.1,473Z" transform="translate(-148.492 -116.879)" fill="#263238"/>
      <path id="Trazado_121036" data-name="Trazado 121036" d="M256.45,466.86a3.37,3.37,0,0,1-1.85.05,8.192,8.192,0,0,1-1.94-.54,7.691,7.691,0,0,1-1.08-.53,2.43,2.43,0,0,1-.57-.42.77.77,0,0,1-.11-.95,1,1,0,0,1,.78-.44,2.08,2.08,0,0,1,.69.08,6,6,0,0,1,1.16.36,6.66,6.66,0,0,1,1.73,1.06c.88.77,1.19,1.44,1.13,1.47s-.51-.49-1.4-1.12a7.63,7.63,0,0,0-1.67-.88,6.688,6.688,0,0,0-1.07-.29c-.39-.09-.73-.09-.82.09s0,.09,0,.21a1.609,1.609,0,0,0,.41.3,10.806,10.806,0,0,0,1,.53,10,10,0,0,0,1.8.63A15.5,15.5,0,0,1,256.45,466.86Z" transform="translate(-148.492 -116.879)" fill="#263238"/>
      <path id="Trazado_121037" data-name="Trazado 121037" d="M256.22,467.13a3,3,0,0,1-.53-1.77,6,6,0,0,1,.19-2,5.271,5.271,0,0,1,.44-1.13,1.51,1.51,0,0,1,1.15-1,.86.86,0,0,1,.78.49,2.549,2.549,0,0,1,.21.67,4.061,4.061,0,0,1,0,1.25,4.33,4.33,0,0,1-.73,1.93c-.7,1-1.44,1.21-1.46,1.15a7.836,7.836,0,0,0,1.08-1.39,4.2,4.2,0,0,0,.53-1.75,3.9,3.9,0,0,0-.06-1.07c-.07-.39-.23-.7-.37-.65a1.356,1.356,0,0,0-.63.62,6.648,6.648,0,0,0-.43,1,6.76,6.76,0,0,0-.3,1.86C256.11,466.43,256.32,467.1,256.22,467.13Z" transform="translate(-148.492 -116.879)" fill="#263238"/>
      <path id="Trazado_121038" data-name="Trazado 121038" d="M175,257.26S161.35,280,161.35,293.59L158,459.19l21.5,5.13,16.4-161.84s39.72,162.26,41,162.26,20.83-3.51,20.83-3.51L228.07,258Z" transform="translate(-148.492 -116.879)" fill="#263238"/>
      <path id="Trazado_121039" data-name="Trazado 121039" d="M183.42,298a1.881,1.881,0,0,1,0,.42c0,.3-.1.71-.17,1.22-.18,1.1-.43,2.67-.75,4.67-.66,4.05-1.58,9.91-2.68,17.17-2.18,14.48-4.91,34.58-7.2,56.89s-3.68,42.52-4.47,57.18c-.4,7.33-.69,13.26-.86,17.36-.09,2-.17,3.61-.22,4.72,0,.52-.06.92-.07,1.23a2.1,2.1,0,0,1-.05.42,2.761,2.761,0,0,1,0-.42q0-.465,0-1.23c0-1.12.06-2.7.11-4.73.1-4.1.32-10,.67-17.37.69-14.67,2-34.92,4.3-57.22s5.08-42.39,7.38-56.89c1.15-7.25,2.13-13.11,2.87-17.15.36-2,.65-3.56.85-4.65.1-.51.17-.91.23-1.21a2.94,2.94,0,0,1,.06-.41Z" transform="translate(-148.492 -116.879)" fill="#455a64"/>
      <path id="Trazado_121040" data-name="Trazado 121040" d="M217.45,300.77c.16,0,6.72,36.32,14.65,81.17s14.23,81.25,14.07,81.28-6.72-36.31-14.65-81.18S217.29,300.8,217.45,300.77Z" transform="translate(-148.492 -116.879)" fill="#455a64"/>
      <path id="Trazado_121041" data-name="Trazado 121041" d="M195.14,302.2a2.374,2.374,0,0,1-.23-.41c-.13-.28-.32-.69-.55-1.23a42.77,42.77,0,0,1-1.59-4.67,47.41,47.41,0,0,1-1.54-16.16c.11-1.6.33-3.14.57-4.62s.65-2.89,1-4.22c.75-2.65,1.54-5,2.22-7s1.26-3.55,1.68-4.63l.5-1.25a2.631,2.631,0,0,1,.2-.42,1.4,1.4,0,0,1-.11.46l-.4,1.28c-.39,1.18-.9,2.76-1.52,4.67s-1.38,4.34-2.11,7c-.36,1.32-.73,2.72-1,4.17a40.8,40.8,0,0,0-.55,4.57,50.3,50.3,0,0,0,1.37,16c.51,2,1.06,3.59,1.43,4.69a15.474,15.474,0,0,1,.63,1.77Z" transform="translate(-148.492 -116.879)" fill="#455a64"/>
      <path id="Trazado_121042" data-name="Trazado 121042" d="M201.23,274.39v.31a5.882,5.882,0,0,0,.05.88c0,.81.08,1.91.14,3.27.1,2.84.24,6.79.4,11.52l-.14-.2,8.28,3.37h-.23l6.72-4.09.44-.27-.13.2c.51-5.46,1-10.6,1.4-15l.22.25L206,274.5l-3.53-.06h-1.28a8.432,8.432,0,0,1,1.19-.06l3.47-.06,12.52-.11h.25v.25c-.39,4.43-.84,9.57-1.33,15v.13l-.11.07-.44.26L210,294l-.11.07-.11-.05-8.26-3.43-.13-.05v-.15c-.07-4.79-.13-8.79-.17-11.67V275.5a7.27,7.27,0,0,1,.01-1.11Z" transform="translate(-148.492 -116.879)" fill="#455a64"/>
      <path id="Trazado_121043" data-name="Trazado 121043" d="M170.11,270a6.033,6.033,0,0,1-.15,1.12c-.15.71-.27,1.77-.46,3-.43,2.63-1,6.28-1.72,10.65l-.09-.22,6.25,4.63h-.22l7.6-2.11.39-.11-.18.18c1.45-5,2.82-9.61,4-13.63l.17.29-11.23-2.68-3.2-.79c-.74-.19-1.15-.3-1.16-.32a9.392,9.392,0,0,1,1.09.2l3.17.66,11.43,2.48.23.06-.06.23L182,287.28v.14h-.14l-.39.11-7.6,2.1h-.12l-.1-.07L167.42,285l-.11-.09v-.13c.81-4.41,1.48-8.1,2-10.75.24-1.23.43-2.22.57-3A6.87,6.87,0,0,1,170.11,270Z" transform="translate(-148.492 -116.879)" fill="#455a64"/>
      <path id="Trazado_121044" data-name="Trazado 121044" d="M213.53,299a84.687,84.687,0,0,1-9.14,2.25,86.346,86.346,0,0,1-9.26,1.74,84.525,84.525,0,0,1,9.15-2.25,85.938,85.938,0,0,1,9.25-1.74Z" transform="translate(-148.492 -116.879)" fill="#455a64"/>
      <path id="Trazado_121045" data-name="Trazado 121045" d="M186.8,299.71a8.811,8.811,0,0,1-2.34,0,38.389,38.389,0,0,1-5.6-.87,37.467,37.467,0,0,1-5.41-1.66,8.159,8.159,0,0,1-2.11-1,14.382,14.382,0,0,1,2.23.68c1.37.44,3.27,1,5.41,1.49s4.09.82,5.52,1a13.154,13.154,0,0,1,2.3.36Z" transform="translate(-148.492 -116.879)" fill="#455a64"/>
      <path id="Trazado_121046" data-name="Trazado 121046" d="M184.42,127.19c.74,2.14-1.8,4-4,4.47s-4.88.82-5.89,2.85c-.88,1.76,0,4-.79,5.79-1.52,3.41-7.66,2.7-8.86,6.24C164,149,166.32,151.47,166,154c-.25,2.19-2.26,3.69-4,5s-3.62,3.16-3.35,5.36c.32,2.53,3.42,4.28,3.13,6.82s-3.64,3.66-4.13,6.13c-.57,2.92,3.09,4.8,4.27,7.54.9,2.09.34,4.79,1.86,6.49s4.32,1.39,6.6.91l22.77-4.83c-1.54-3.59-.1-7.81,2.1-11.05s5.11-6,7-9.4,2.5-8,0-11.06" transform="translate(-148.492 -116.879)" fill="#263238"/>
      <path id="Trazado_121047" data-name="Trazado 121047" d="M224.45,145.39a24.073,24.073,0,0,0-.75-3.6,3.53,3.53,0,0,0-.91-1.47c-.45-.43-1-.16-1.4.45a11,11,0,0,0,0,9.23c.37.62,1,.89,1.4.46a3.63,3.63,0,0,0,.91-1.48,24.108,24.108,0,0,0,.75-3.59,2.84,2.84,0,0,1,.08,1,10,10,0,0,1-.43,2.73,4,4,0,0,1-1,1.72,1.21,1.21,0,0,1-1.21.28,2,2,0,0,1-1-.81,11.19,11.19,0,0,1,0-9.84,2,2,0,0,1,1-.81,1.21,1.21,0,0,1,1.21.28,4,4,0,0,1,1,1.72,10,10,0,0,1,.43,2.72,2.919,2.919,0,0,1-.08,1.01Z" transform="translate(-148.492 -116.879)" fill="#263238"/>
      <path id="Trazado_121048" data-name="Trazado 121048" d="M187.31,166.35c-4.12-7-5.3-16.23-6.34-24.24-.49-3.78-1.35-9.15,1.3-11.51,2.85-2.53,3.12-6.43,6.39-8.38s7.7-2.11,10.78.12" transform="translate(-148.492 -116.879)" fill="#263238"/>
      <path id="Trazado_121049" data-name="Trazado 121049" d="M198.72,191h0a11.15,11.15,0,0,0,12-10.67c.26-6.08.48-12.22.48-12.22s9.21-.84,9.91-10,.45-30.16.45-30.16h0a31.77,31.77,0,0,0-32.11,2l.47,32.08-.05,17.26C190,185.1,193,190.54,198.72,191Z" transform="translate(-148.492 -116.879)" fill="#aa6550"/>
      <path id="Trazado_121050" data-name="Trazado 121050" d="M212.09,147c-1.56-1.95-4.12-2.73-6.22-1.37a5.3,5.3,0,0,0-1.79,6.62,7,7,0,0,0,4.47,3.39,3.51,3.51,0,0,1,2.73,3.78c-.27,2.28-4.08,3.13-5.81,5-2.68,2.94-8.54,4.17-12.49,4.62s-3.42.49-5.67-2.71a12.26,12.26,0,0,1-2.2-7.4q-.17-10.09-.35-20.17a28.23,28.23,0,0,1,.48-7.23,9.66,9.66,0,0,1,3.83-6c2.22-1.46,5-1.57,7.56-2.38,3.16-1,5.85-3.1,8.8-4.6s6.59-2.4,9.55-.9c2.12,1.08,3.54,3.2,5.61,4.39,2.94,1.68,7,1.31,8.37,5.65a7.37,7.37,0,0,1-.06,4.64c-2,5.89-9.33,8.24-14.58,5.68-.1,1,.87,3.22-.19,6.38-.34,1-.46,2.54-2,2.56" transform="translate(-148.492 -116.879)" fill="#263238"/>
      <path id="Trazado_121051" data-name="Trazado 121051" d="M210.44,152.69a.9.9,0,0,1-.12.39,1.36,1.36,0,0,1-1,.51,2.5,2.5,0,0,1-2.35-2.52,2.62,2.62,0,0,1,.67-1.93,2.72,2.72,0,0,1,1.43-.82c.94-.19,1.48.16,1.44.21a9,9,0,0,0-1.31.23,2.28,2.28,0,0,0-1.6,2.24,2.13,2.13,0,0,0,1.7,2.09C210.07,153.18,210.38,152.63,210.44,152.69Z" transform="translate(-148.492 -116.879)" fill="#995037"/>
      <path id="Trazado_121052" data-name="Trazado 121052" d="M224.47,145a33.25,33.25,0,0,1-6.13,1.31,34.5,34.5,0,0,1-6.23.72,33.021,33.021,0,0,1,6.13-1.31,33.531,33.531,0,0,1,6.23-.72Z" transform="translate(-148.492 -116.879)" fill="#263238"/>
      <path id="Trazado_121053" data-name="Trazado 121053" d="M188,175.25a2.65,2.65,0,0,0,3.17,1.27,7.63,7.63,0,0,0,3.06-2.08,8.06,8.06,0,0,1,3-2.12c2.43-.74,5.41.88,7.45-.63,1.86-1.37,1.62-4.48,3.45-5.9,1-.75,2.32-.85,3.31-1.58,1.85-1.36,1.54-4.41,0-6.11s-3.89-2.38-6.1-3l-19.59,8.35Z" transform="translate(-148.492 -116.879)" fill="#263238"/>
      <path id="Trazado_121054" data-name="Trazado 121054" d="M211.31,139.85a1.019,1.019,0,0,1-.16.12,4.05,4.05,0,0,1-.52.29,10.551,10.551,0,0,1-2.14.77,24.391,24.391,0,0,1-3.56.57,36.091,36.091,0,0,0-4.68.64,8.81,8.81,0,0,0-4.83,2.65c-1.32,1.53-1.82,3.73-2.84,5.87a7.57,7.57,0,0,1-2.28,2.87,12,12,0,0,1-3.41,1.68c-2.41.8-5.06,1.29-7.06,3a5,5,0,0,0-1.81,3.2,22,22,0,0,0,0,3.81,7,7,0,0,1-.73,3.75,6.89,6.89,0,0,1-2.65,2.55c-2,1.21-4.19,1.85-5.9,2.94a6.84,6.84,0,0,0-2.11,1.95,5.12,5.12,0,0,0-.8,2.49,17.16,17.16,0,0,0,.63,4.63,12,12,0,0,1,.33,3.6,5,5,0,0,1-.65,2.19,2.729,2.729,0,0,1-.5.63,5.43,5.43,0,0,0,.92-2.83,12.14,12.14,0,0,0-.42-3.51,17.15,17.15,0,0,1-.73-4.73,5.53,5.53,0,0,1,.83-2.72,7.27,7.27,0,0,1,2.23-2.11c1.78-1.16,3.94-1.82,5.89-3a5.72,5.72,0,0,0,3.08-5.83,22.189,22.189,0,0,1,0-3.91,5.62,5.62,0,0,1,2-3.56c2.18-1.83,4.92-2.3,7.26-3.09a11.61,11.61,0,0,0,3.26-1.58,7.08,7.08,0,0,0,2.13-2.67c1-2,1.52-4.3,2.95-5.94a9.12,9.12,0,0,1,5.12-2.73,33.672,33.672,0,0,1,4.74-.57,27.3,27.3,0,0,0,3.54-.46,15.3,15.3,0,0,0,2.87-.96Z" transform="translate(-148.492 -116.879)" fill="#455a64"/>
      <path id="Trazado_121055" data-name="Trazado 121055" d="M206,143.12c0,.06-.71,0-1.91.27a8.65,8.65,0,0,0-4.39,2.62,8,8,0,0,0-1.75,3.07,13.37,13.37,0,0,0-.36,4.09,10.67,10.67,0,0,1-.68,4.68,4.72,4.72,0,0,1-1.71,1.92A21.43,21.43,0,0,1,193,161a5.93,5.93,0,0,0-1.94,1.38,3.51,3.51,0,0,0-.77,2.1c-.11,1.52.22,3.21-.52,4.67a7.68,7.68,0,0,1-3.05,3c-1.15.68-2.27,1.19-3.21,1.76a7.7,7.7,0,0,0-2.26,1.87,5.06,5.06,0,0,0-1,2,4.47,4.47,0,0,0,0,1.89,1.11,1.11,0,0,1-.2-.47,3.46,3.46,0,0,1-.06-1.46,5.17,5.17,0,0,1,.93-2.13,8.14,8.14,0,0,1,2.31-2c1-.61,2.07-1.14,3.17-1.82a7.18,7.18,0,0,0,2.81-2.84c.65-1.26.35-2.82.44-4.47a4.09,4.09,0,0,1,.89-2.44,6.43,6.43,0,0,1,2.14-1.53c1.53-.75,3.08-1.43,3.71-2.86a10.28,10.28,0,0,0,.65-4.42,14,14,0,0,1,.44-4.24,8.14,8.14,0,0,1,1.91-3.2,8.63,8.63,0,0,1,4.65-2.57,6.291,6.291,0,0,1,1.45-.1,1.69,1.69,0,0,1,.51,0Z" transform="translate(-148.492 -116.879)" fill="#455a64"/>
      <path id="Trazado_121056" data-name="Trazado 121056" d="M213.47,176.62l-2.37-4.87-20.59-.78-3.23,6.33h25.86" transform="translate(-148.492 -116.879)" fill="#26aab7"/>
      <path id="Trazado_121057" data-name="Trazado 121057" d="M284.25,220.67c-.15-.74,5.44-29.82,7-37.8a1.69,1.69,0,0,0-1.66-2H248.35a1.68,1.68,0,0,0-1.65,1.3l-8.44,35.59-20.81,1.55.73,1.37Z" transform="translate(-148.492 -116.879)" fill="#455a64"/>
      <path id="Trazado_121058" data-name="Trazado 121058" d="M282.44,218.09l6.67-35.25-40.53.24-8.9,35.06Z" transform="translate(-148.492 -116.879)" fill="#ebebeb"/>
      <path id="Trazado_121059" data-name="Trazado 121059" d="M239.65,218.16h0l8.9-35.07h0l40.56-.25h0l-6.68,35.27h0Zm8.95-35-8.89,35,42.71-.05,6.66-35.2Z" transform="translate(-148.492 -116.879)" fill="#263238"/>
      <path id="Trazado_121060" data-name="Trazado 121060" d="M282.4,218.33c0,.14-11.86.26-26.48.26s-26.49-.12-26.49-.26,11.85-.26,26.49-.26S282.4,218.19,282.4,218.33Z" transform="translate(-148.492 -116.879)" fill="#263238"/>
      <path id="Trazado_121061" data-name="Trazado 121061" d="M279.6,209.43a1.649,1.649,0,0,1-.52,0l-1.52.05-5.59.08c-4.72,0-11.23.08-18.43.08H247.3l.08-.31c1.44-5.55,2.69-10.4,3.61-14,.45-1.68.82-3,1.1-4.08a10.138,10.138,0,0,1,.46-1.45,9.419,9.419,0,0,1-.29,1.5c-.24,1-.56,2.41-1,4.11-.87,3.56-2.06,8.42-3.43,14l-.24-.31h5.91c7.2,0,13.71,0,18.43.08l5.59.08h1.52a1.65,1.65,0,0,1,.56.17Z" transform="translate(-148.492 -116.879)" fill="#455a64"/>
      <path id="Trazado_121062" data-name="Trazado 121062" d="M250.25,208.09l.75-3.4h5.22l-.67,3.4Z" transform="translate(-148.492 -116.879)" fill="#26aab7"/>
      <path id="Trazado_121063" data-name="Trazado 121063" d="M257.34,208.09l1.57-6.69h5.22l-1.48,6.69Z" transform="translate(-148.492 -116.879)" fill="#26aab7"/>
      <path id="Trazado_121064" data-name="Trazado 121064" d="M264.43,208.09l.76-3.4h5.22l-.67,3.4Z" transform="translate(-148.492 -116.879)" fill="#26aab7"/>
      <path id="Trazado_121065" data-name="Trazado 121065" d="M271.52,208.09l2.99-13h5.22l-2.9,13Z" transform="translate(-148.492 -116.879)" fill="#26aab7"/>
      <path id="Trazado_121066" data-name="Trazado 121066" d="M254.34,211.89a4.46,4.46,0,0,1-2.11.24c-1.16,0-2.1-.13-2.1-.28a8.65,8.65,0,0,1,4.21,0Z" transform="translate(-148.492 -116.879)" fill="#455a64"/>
      <path id="Trazado_121067" data-name="Trazado 121067" d="M261.21,211.88a4.55,4.55,0,0,1-2.1.24,4.621,4.621,0,0,1-2.11-.28,4.54,4.54,0,0,1,2.11-.24,4.45,4.45,0,0,1,2.1.28Z" transform="translate(-148.492 -116.879)" fill="#455a64"/>
      <path id="Trazado_121068" data-name="Trazado 121068" d="M268.09,211.87a4.61,4.61,0,0,1-2.11.24,4.56,4.56,0,0,1-2.1-.28,4.51,4.51,0,0,1,2.11-.24A4.45,4.45,0,0,1,268.09,211.87Z" transform="translate(-148.492 -116.879)" fill="#455a64"/>
      <path id="Trazado_121069" data-name="Trazado 121069" d="M275,211.86a8.69,8.69,0,0,1-4.22,0,8.69,8.69,0,0,1,4.22,0Z" transform="translate(-148.492 -116.879)" fill="#455a64"/>
      <path id="Trazado_121070" data-name="Trazado 121070" d="M264.85,188.36a33.319,33.319,0,0,1-5.83.26,33.39,33.39,0,0,1-5.84-.26,33.388,33.388,0,0,1,5.84-.26,33.32,33.32,0,0,1,5.83.26Z" transform="translate(-148.492 -116.879)" fill="#455a64"/>
      <path id="Trazado_121071" data-name="Trazado 121071" d="M258.72,186.91a12.56,12.56,0,0,1-5.18,0,13,13,0,0,1,5.18,0Z" transform="translate(-148.492 -116.879)" fill="#455a64"/>
      <path id="Trazado_121072" data-name="Trazado 121072" d="M247.54,242.1l23.86-17.27-.89-1.44a11.51,11.51,0,0,0-5.58-4.68l-3.73.67-22.12,3.37Z" transform="translate(-148.492 -116.879)" fill="#26aab7"/>
      <path id="Trazado_121073" data-name="Trazado 121073" d="M162.71,238.13l19.83-7.88-4.43-16.41-16.15,5.49Z" transform="translate(-148.492 -116.879)" fill="#26aab7"/>
      <path id="Trazado_121074" data-name="Trazado 121074" d="M246.71,242.56c4.94-2.45,6.21-8.34,3.8-13.3L230,185.36a8,8,0,0,0-2.07-2.83,23.19,23.19,0,0,0-17-5.82l-21.42-.56s-16.83,0-23.14,13.26c-.46,1-10.24,20.37-16.69,33.15a11.05,11.05,0,0,0,6.06,15.36h0a11,11,0,0,0,13.9-5.85l7-15.62L181,238.82l-6.35,18.44,53.11.73-4.08-24.67-1.29-17.58L233.2,238a10,10,0,0,0,13.51,4.61Z" transform="translate(-148.492 -116.879)" fill="#26aab7"/>
      <g id="Grupo_55249" data-name="Grupo 55249" transform="translate(34.057 105.398)" opacity="0.2">
        <path id="Trazado_121075" data-name="Trazado 121075" d="M182.83,238.39c4,3,9.95,2,14.9,1.19a21.53,21.53,0,0,0,13-7,8.76,8.76,0,0,0,2.41-6.13c-.2-2.25-2.19-4.42-4.43-4.15-2.56.31-3.8,3.19-5,5.46a19.89,19.89,0,0,1-20.73,9.73S182.12,237.86,182.83,238.39Z" transform="translate(-182.549 -222.277)"/>
      </g>
      <g id="Grupo_55250" data-name="Grupo 55250" transform="translate(67.138 86.951)" opacity="0.2">
        <path id="Trazado_121076" data-name="Trazado 121076" d="M215.63,203.83c1.25,10.1.69,9.34,2.8,19.3,1,4.89,2.29,10,5.67,13.7l-1.67-21.09Z" transform="translate(-215.63 -203.83)"/>
      </g>
      <path id="Trazado_121077" data-name="Trazado 121077" d="M174.69,257.26l-1.52-4.43,3.96-2.64,48.72-4.02,3.43,6.46-1.48,5.36Z" transform="translate(-148.492 -116.879)" fill="#26aab7"/>
      <path id="Trazado_121078" data-name="Trazado 121078" d="M184.75,173.67a7.26,7.26,0,0,0-3.38,10.84,3.64,3.64,0,0,1,.93,2c-.1,1.8-3,1.85-3.92,3.4a2.77,2.77,0,0,0,.78,3.25,21.049,21.049,0,0,0,3,2,3.68,3.68,0,0,1,1.84,2.93c1,0,1.62-1.26,1.47-2.26a10.13,10.13,0,0,0-1.25-2.77,2.89,2.89,0,0,1-.13-2.89c.66-.95,2-1,3.1-1.41a4.32,4.32,0,0,0,2.29-5.56c-.66-1.46-2.18-2.94-1.44-4.36.41-.79,1.36-1.09,2.14-1.53a5.57,5.57,0,0,0,.73-9.28" transform="translate(-148.492 -116.879)" fill="#263238"/>
      <path id="Trazado_121079" data-name="Trazado 121079" d="M176.5,218.59a13,13,0,0,1-1.08,2.49c-.74,1.51-1.82,3.56-3.12,5.77s-2.59,4.13-3.56,5.51a13.27,13.27,0,0,1-1.66,2.14,14.8,14.8,0,0,1,1.36-2.35c.88-1.42,2.11-3.38,3.41-5.57s2.42-4.21,3.24-5.67A14.619,14.619,0,0,1,176.5,218.59Z" transform="translate(-148.492 -116.879)" fill="#263238"/>
      <path id="Trazado_121080" data-name="Trazado 121080" d="M171.83,227a8.54,8.54,0,0,1-2.2,6.86c-.13-.09.77-1.46,1.36-3.35S171.67,227,171.83,227Z" transform="translate(-148.492 -116.879)" fill="#263238"/>
      <path id="Trazado_121081" data-name="Trazado 121081" d="M249.64,227.68c-.13.06-4.29-8.64-9.28-19.42s-8.94-19.58-8.81-19.64,4.29,8.63,9.28,19.42S249.77,227.62,249.64,227.68Z" transform="translate(-148.492 -116.879)" fill="#263238"/>
      <path id="Trazado_121082" data-name="Trazado 121082" d="M224.34,182.84c0,.08-.9.41-2.22,1.23a13.86,13.86,0,0,0-6.44,9.81c-.23,1.54-.16,2.52-.25,2.53a6.46,6.46,0,0,1-.12-2.58,12.91,12.91,0,0,1,6.62-10.08,6.37,6.37,0,0,1,2.41-.91Z" transform="translate(-148.492 -116.879)" fill="#263238"/>
      <path id="Trazado_121083" data-name="Trazado 121083" d="M181,239c-.14,0-2.53-10.14-5.34-22.73s-5-22.81-4.83-22.84,2.53,10.14,5.34,22.73S181.12,239,181,239Z" transform="translate(-148.492 -116.879)" fill="#263238"/>
      <path id="Trazado_121084" data-name="Trazado 121084" d="M271.4,224.83l9.68-4.17h-12.9l2.82,3.66" transform="translate(-148.492 -116.879)" fill="#aa6550"/>
      <path id="Trazado_121085" data-name="Trazado 121085" d="M251.5,225.91a16.74,16.74,0,0,1-2.35-2.21,17.893,17.893,0,0,1-2.28-2.28,7.15,7.15,0,0,1,2.64,1.91,7.42,7.42,0,0,1,1.99,2.58Z" transform="translate(-148.492 -116.879)" fill="#263238"/>
      <path id="Trazado_121086" data-name="Trazado 121086" d="M233.65,238.77a8.37,8.37,0,0,1-.82-1.35c-.5-.88-1.19-2.17-2-3.77-1.68-3.21-3.92-7.68-6.36-12.62s-4.69-9.41-6.36-12.62c-.79-1.54-1.46-2.82-2-3.8a9.938,9.938,0,0,1-.67-1.42,9,9,0,0,1,.85,1.32c.52.87,1.25,2.14,2.12,3.73,1.75,3.17,4.05,7.61,6.49,12.56s4.6,9.35,6.23,12.68l1.88,3.85a9.411,9.411,0,0,1,.64,1.44Z" transform="translate(-148.492 -116.879)" fill="#263238"/>
      <path id="Trazado_121087" data-name="Trazado 121087" d="M214.5,225.18v.35a8.938,8.938,0,0,1-.17,1A13.211,13.211,0,0,1,213,230a19.49,19.49,0,0,1-9,8,39,39,0,0,1-11.71,2.92c-1.53.17-2.78.27-3.64.33a5.72,5.72,0,0,1-1.34,0,8.092,8.092,0,0,1,1.32-.23l3.61-.5a42.2,42.2,0,0,0,11.54-3,20,20,0,0,0,8.87-7.66,18.891,18.891,0,0,0,1.85-4.68Z" transform="translate(-148.492 -116.879)" fill="#263238"/>
      <path id="Trazado_121088" data-name="Trazado 121088" d="M203.82,251c0,.14-6.58.72-14.72,1.29s-14.74.92-14.75.77,6.58-.72,14.72-1.29S203.81,250.8,203.82,251Z" transform="translate(-148.492 -116.879)" fill="#263238"/>
      <path id="Trazado_121089" data-name="Trazado 121089" d="M212.31,247a23.911,23.911,0,0,1,1.06,10.08c-.15,0-.21-2.27-.51-5A50.694,50.694,0,0,1,212.31,247Z" transform="translate(-148.492 -116.879)" fill="#263238"/>
      <path id="Trazado_121090" data-name="Trazado 121090" d="M215.73,243.82a6.819,6.819,0,0,1,.44,2,25.41,25.41,0,0,1-.69,9.87,6.419,6.419,0,0,1-.72,1.93c-.16,0,.78-3,1-6.87S215.57,243.84,215.73,243.82Z" transform="translate(-148.492 -116.879)" fill="#263238"/>
      <path id="Trazado_121091" data-name="Trazado 121091" d="M213.53,177a104.891,104.891,0,0,1-10.63-.33c-5.86-.33-10.6-.72-10.6-.86s4.77,0,10.63.34S213.53,176.83,213.53,177Z" transform="translate(-148.492 -116.879)" fill="#263238"/>
    </g>
    <g id="freepik--Chart--inject-9" transform="translate(258.563 309.19)">
      <path id="Trazado_121098" data-name="Trazado 121098" d="M310.42,348.86a4.8,4.8,0,0,1-.85.06l-2.44.05-8.95.09-29.54.08h-2.38v-.28c0-11,.06-20.92.09-28.13,0-3.53.06-6.4.08-8.45,0-.95,0-1.72.05-2.29a4.232,4.232,0,0,1,.06-.8,5.062,5.062,0,0,1,0,.8c0,.57,0,1.34.05,2.29,0,2.05.05,4.92.09,8.45,0,7.21,0,17.1.09,28.13l-.28-.28h2.1l29.54.09,8.95.08,2.44.06a5.737,5.737,0,0,1,.9.05Z" transform="translate(-266.26 -309.19)" fill="#263238"/>
      <path id="Trazado_121099" data-name="Trazado 121099" d="M305.54,318.82a11.722,11.722,0,0,1-1.31,1.25l-3.7,3.25c-3.15,2.73-7.51,6.47-12.36,10.57l-.74.62-.18.16-.18-.17-5.5-5.11h.34l-8.07,6.66-2.34,1.87a5.25,5.25,0,0,1-.88.63,5.07,5.07,0,0,1,.77-.76l2.25-2,7.94-6.81.17-.15.17.15,5.52,5.08h-.36l.73-.62c4.85-4.1,9.25-7.79,12.46-10.44l3.82-3.12A12,12,0,0,1,305.54,318.82Z" transform="translate(-266.26 -309.19)" fill="#263238"/>
      <path id="Trazado_121100" data-name="Trazado 121100" d="M305.54,328a14.408,14.408,0,0,1-.19-2.74c-.05-1.69-.08-4-.09-6.67l.28.28h-.47c-2.73,0-5.2,0-7-.08a14.553,14.553,0,0,1-2.9-.2,16.234,16.234,0,0,1,2.9-.19c1.79-.06,4.26-.09,7-.09h.75v.28c0,2.62,0,5-.09,6.67A14.411,14.411,0,0,1,305.54,328Z" transform="translate(-266.26 -309.19)" fill="#263238"/>
    </g>
    <g id="freepik--Gears--inject-9" transform="translate(95.47 191)">
      <path id="Trazado_121101" data-name="Trazado 121101" d="M120.8,194.81a15.839,15.839,0,0,1,4,1.07l3-2.49,5.1,3.88-1.6,3.53a15.43,15.43,0,0,1,2.1,3.61l3.86.34.86,6.36-3.63,1.35a15.611,15.611,0,0,1-1.06,4l2.49,3-3.89,5.1L128.52,223a16.1,16.1,0,0,1-3.62,2.11l-.34,3.86-6.35.86-1.36-3.63a15.841,15.841,0,0,1-4-1.07l-3,2.49-5.1-3.88,1.6-3.53a15.429,15.429,0,0,1-2.1-3.61l-3.86-.34-.86-6.36,3.63-1.35a15.79,15.79,0,0,1,1.06-4.05l-2.49-3,3.89-5.1,3.52,1.61a16.1,16.1,0,0,1,3.62-2.11l.34-3.86,6.35-.86,1.36,3.63Zm-2.61,8.82a6.88,6.88,0,1,0,7.74,5.9,6.88,6.88,0,0,0-7.74-5.9Z" transform="translate(-95.47 -191)" fill="#7d6eb2"/>
      <path id="Trazado_121102" data-name="Trazado 121102" d="M118.19,203.63a1.24,1.24,0,0,1,.43-.09,5.49,5.49,0,0,1,1.27,0,6.89,6.89,0,0,1,4.22,1.94A7.093,7.093,0,1,1,113,207a6.91,6.91,0,0,1,3.55-3,5.37,5.37,0,0,1,1.24-.31,1.229,1.229,0,0,1,.44,0c0,.06-.6.12-1.6.54a6.91,6.91,0,0,0-3.28,3,6.64,6.64,0,0,0,10.39,8,6.57,6.57,0,0,0,1.88-3.35,6.69,6.69,0,0,0-1.75-6.12,6.84,6.84,0,0,0-4-2C118.8,203.59,118.19,203.69,118.19,203.63Z" transform="translate(-95.47 -191)" fill="#26aab7"/>
      <path id="Trazado_121103" data-name="Trazado 121103" d="M120.8,194.81a.477.477,0,0,0-.1-.22l-.28-.67c-.25-.65-.61-1.55-1.06-2.71l.09.06-6.34.91.12-.12c-.1,1.17-.21,2.47-.32,3.86V196h-.09a15.82,15.82,0,0,0-3.56,2.1l-.09.07-.1-.05-3.53-1.59.23-.06-3.86,5.12v-.28l2.5,3,.09.1v.13a15.78,15.78,0,0,0-1.05,4v.14l-.14.05-3.63,1.37.16-.27c.28,2,.57,4.15.87,6.35l-.23-.22,3.86.34h.16l.06.15a15.539,15.539,0,0,0,2.08,3.54l.1.13-.07.15c-.5,1.11-1,2.31-1.61,3.53l-.08-.33,5.11,3.88h-.35l3-2.49.13-.11.16.07a15.57,15.57,0,0,0,4,1h0c.1.08-.23-.17.22.18h0v.17l.08.23.17.45.34.91c.23.61.45,1.21.68,1.81l-.3-.18,6.36-.86-.24.25c.12-1.3.23-2.58.34-3.86v-.16l.15-.07a15.46,15.46,0,0,0,3.55-2.06l.13-.1.15.07,3.52,1.61-.32.08,3.89-5.1v.32l-2.48-3-.1-.11.06-.14a15.441,15.441,0,0,0,1.06-4v-.14h.14l3.63-1.35-.15.25c-.29-2.24-.57-4.35-.84-6.36l.19.18-3.85-.35h-.13v-.11a15.14,15.14,0,0,0-2.07-3.58l-.07-.09v-.1l1.62-3.52.05.2-5.07-3.91h.15l-3,2.47h0a16.338,16.338,0,0,0-3-.94l-.76-.15c-.18,0-.26-.05-.25-.06h.26a5.546,5.546,0,0,1,.77.11,15.179,15.179,0,0,1,3,.86h-.09l3-2.52.08-.06.08.06L133.1,197l.11.08-.06.12-1.59,3.53v-.18a15.9,15.9,0,0,1,2.15,3.64l-.17-.12,3.86.33h.17v.17q.42,3,.88,6.35v.19l-.18.06-3.62,1.37.15-.2a16,16,0,0,1-1.07,4.11v-.26c.81,1,1.65,2,2.49,3l.13.16-.12.16-3.88,5.11-.12.17-.2-.09-3.53-1.6h.28a16,16,0,0,1-3.67,2.15l.17-.23c-.12,1.27-.23,2.56-.34,3.86v.22h-.22l-6.35.86h-.22l-.08-.2c-.23-.6-.45-1.21-.68-1.81l-.34-.91-.17-.46-.08-.23-.05-.11v-.06h0c.45.35.13.09.23.17h0a16.329,16.329,0,0,1-4.11-1.08l.29-.05-3,2.49-.17.14-.18-.13-5.1-3.89-.17-.13.09-.2c.55-1.21,1.1-2.42,1.61-3.52v.27a16.23,16.23,0,0,1-2.14-3.67l.22.16-3.85-.34h-.21v-.21c-.29-2.2-.58-4.36-.85-6.35v-.2l.19-.07,3.63-1.35-.15.2a15.51,15.51,0,0,1,1.09-4.1v.23c-.87-1-1.72-2.05-2.48-3l-.12-.13.11-.14,3.9-5.09.1-.13.14.07,3.52,1.62h-.19a16.509,16.509,0,0,1,3.66-2.11l-.1.14c.13-1.39.26-2.69.37-3.86v-.11h.11l6.36-.81h.07v.07q.63,1.74,1,2.7c.1.29.18.53.25.71a2.311,2.311,0,0,1-.07.33Z" transform="translate(-95.47 -191)" fill="#26aab7"/>
      <path id="Trazado_121104" data-name="Trazado 121104" d="M109,237.69a10,10,0,0,1,2.54.67l1.86-1.56,3.21,2.44-1,2.21a10.051,10.051,0,0,1,1.32,2.27l2.43.21.54,4-2.28.86a10,10,0,0,1-.67,2.54l1.56,1.86-2.44,3.21-2.21-1a10.05,10.05,0,0,1-2.27,1.32l-.22,2.42-4,.54-.85-2.27a10,10,0,0,1-2.54-.68l-1.86,1.57-3.21-2.44,1-2.22a9.77,9.77,0,0,1-1.32-2.26l-2.42-.22-.55-4,2.28-.85a9.909,9.909,0,0,1,.67-2.54L97,241.89l2.44-3.2,2.21,1a10.051,10.051,0,0,1,2.27-1.32l.22-2.43,4-.54.85,2.28Zm-1.64,5.54a4.32,4.32,0,1,0,4.86,3.7,4.32,4.32,0,0,0-4.86-3.7Z" transform="translate(-95.47 -191)" fill="none"/>
      <path id="Trazado_121105" data-name="Trazado 121105" d="M107.36,243.23l.27-.06a3.36,3.36,0,0,1,.8,0,4.33,4.33,0,0,1,2.65,1.21,4.46,4.46,0,0,1-5.28,7.08,4.35,4.35,0,0,1-1.82-1.86,4.45,4.45,0,0,1,.1-4.27,4.3,4.3,0,0,1,2.23-1.88,4,4,0,0,1,.77-.19h.28a6.187,6.187,0,0,0-1,.34,4.34,4.34,0,0,0-2.07,1.88,4.19,4.19,0,0,0,0,4,4.06,4.06,0,0,0,1.7,1.71,4.13,4.13,0,0,0,4.86-.66,4,4,0,0,0,1.18-2.1,4.2,4.2,0,0,0-1.09-3.84,4.35,4.35,0,0,0-2.49-1.26C107.75,243.2,107.36,243.27,107.36,243.23Z" transform="translate(-95.47 -191)" fill="#263238"/>
      <path id="Trazado_121106" data-name="Trazado 121106" d="M109,237.69l-.06-.13-.18-.43c-.16-.4-.38-1-.66-1.7h.05l-4,.57.07-.08c-.06.74-.12,1.55-.19,2.43v.06h-.06a10,10,0,0,0-2.24,1.32h-.06l-2.22-1h.15L97.13,242v-.17l1.56,1.86.06.06v.09a9.55,9.55,0,0,0-.66,2.5v.09h-.08l-2.28.86.1-.17c.17,1.25.36,2.61.55,4l-.15-.14,2.42.21h.1v.09a9.49,9.49,0,0,0,1.31,2.23l.06.08v.09l-1,2.22v-.21l3.2,2.44H102c.58-.5,1.22-1,1.86-1.57l.08-.07h.1a9.5,9.5,0,0,0,2.49.66h0l.14.11h0v.13l.05.14.11.29.21.57c.14.38.29.76.43,1.13l-.19-.11,4-.54-.15.16c.07-.82.15-1.63.22-2.43v-.1h.09a9.171,9.171,0,0,0,2.23-1.3l.08-.06h.1l2.21,1-.2.06c.83-1.1,1.65-2.16,2.44-3.21v.2l-1.56-1.86-.06-.08v-.08a9.86,9.86,0,0,0,.67-2.5v-.09h.08l2.29-.85-.1.15c-.18-1.4-.36-2.73-.53-4l.12.12-2.42-.22h-.08v-.07a10,10,0,0,0-1.3-2.25v-.12c.38-.8.71-1.52,1-2.21v.13l-3.19-2.46h.09l-1.88,1.54h0a10.592,10.592,0,0,0-1.88-.59l-.48-.09h0l.49.07a9,9,0,0,1,1.91.54h-.06l1.85-1.58h.05l3.22,2.41h.07v.08c-.31.69-.63,1.41-1,2.22v-.12a10,10,0,0,1,1.35,2.29l-.11-.07,2.43.2h.1v.11c.17,1.26.36,2.58.55,4v.11h-.11l-2.28.86.1-.12a10.16,10.16,0,0,1-.68,2.58v-.16l1.56,1.86.09.1-.08.1-2.44,3.21-.08.1h-.12l-2.21-1h.17a10.209,10.209,0,0,1-2.31,1.35l.11-.15q-.1,1.2-.21,2.43v.14h-.13l-4,.55h-.14l-.05-.13-.42-1.14-.22-.57-.11-.29v-.27h0l.14.11h0a10.51,10.51,0,0,1-2.58-.68h.17l-1.86,1.56-.11.09-.11-.08L98.81,256l-.11-.09.06-.12,1-2.22v.18a10.1,10.1,0,0,1-1.34-2.31l.13.1-2.42-.22H96v-.13c-.18-1.38-.36-2.73-.53-4v-.12h.12l2.28-.85-.1.12a10,10,0,0,1,.69-2.57v.14L96.92,242l-.08-.08.07-.09,2.45-3.2.06-.07h.09l2.21,1h-.12a10.42,10.42,0,0,1,2.3-1.33l-.06.09.23-2.42v-.08h.07l4-.51h0l.6,1.7.15.44a.87.87,0,0,1,.11.24Z" transform="translate(-95.47 -191)" fill="#263238"/>
    </g>
    <g id="freepik--Clock--inject-9" transform="translate(189.597 39.121)">
      <circle id="Elipse_4134" data-name="Elipse 4134" cx="21.74" cy="21.74" r="21.74" transform="translate(0 12.407) rotate(-16.58)" fill="#f5f5f5"/>
      <path id="Trazado_121107" data-name="Trazado 121107" d="M198.49,64.73a2.367,2.367,0,0,1,0,.35v1.76a3.7,3.7,0,0,0,.08.91,16.863,16.863,0,0,0,.32,2.27A20.55,20.55,0,0,0,201,76a21.74,21.74,0,0,0,5,6.4,21.45,21.45,0,0,0,8.79,4.6,21.67,21.67,0,0,0,11.34-.21,21.222,21.222,0,0,0,2.88-1.05,21.552,21.552,0,0,0,2.74-1.51,27.572,27.572,0,0,0,2.57-1.91,26.431,26.431,0,0,0,2.3-2.32,20.8,20.8,0,0,0,3.46-5.71,21.374,21.374,0,0,0-1.76-19.68A25,25,0,0,0,236.35,52a24.181,24.181,0,0,0-2.3-2.23,23.681,23.681,0,0,0-2.51-1.87,24.238,24.238,0,0,0-2.72-1.41,21.529,21.529,0,0,0-26.42,7.46,20.5,20.5,0,0,0-2.79,5.57,15.917,15.917,0,0,0-.61,2.2c-.07.32-.15.62-.2.9s-.07.52-.1.75q-.09.64-.15,1a1.682,1.682,0,0,1-.06.35,1.329,1.329,0,0,1,0-.35c0-.26.06-.6.1-1,0-.23.05-.49.07-.76s.12-.58.18-.91a17.05,17.05,0,0,1,.57-2.23,20.5,20.5,0,0,1,2.74-5.68A21.892,21.892,0,0,1,229,46.05a22.92,22.92,0,0,1,2.78,1.44,22.22,22.22,0,0,1,2.58,1.9,20,20,0,0,1,4.34,5,21.29,21.29,0,0,1,2.75,6.25A21.716,21.716,0,0,1,237,80.29a26.345,26.345,0,0,1-2.32,2.4,26,26,0,0,1-2.64,2,22.48,22.48,0,0,1-2.8,1.54,22.071,22.071,0,0,1-28.55-10.1,20.67,20.67,0,0,1-2-6,16.361,16.361,0,0,1-.27-2.29,4.5,4.5,0,0,0-.06-.92V65.16a1.6,1.6,0,0,1,.13-.43Z" transform="translate(-193.144 -39.121)" fill="#263238"/>
      <path id="Trazado_121108" data-name="Trazado 121108" d="M230.06,66.82a4.06,4.06,0,0,1-.77.06h-9.37V54.91a6.473,6.473,0,0,1,.05-.9,5.41,5.41,0,0,1,.06.9V66.82l-.14-.13h9.23a7.062,7.062,0,0,1,.94.13Z" transform="translate(-193.144 -39.121)" fill="#263238"/>
      <path id="Trazado_121109" data-name="Trazado 121109" d="M220.13,48a6,6,0,0,1,.14,1.83,6,6,0,0,1-.14,1.83,6,6,0,0,1-.14-1.83A6,6,0,0,1,220.13,48Z" transform="translate(-193.144 -39.121)" fill="#263238"/>
      <path id="Trazado_121110" data-name="Trazado 121110" d="M230,50.92a6,6,0,0,1-1.18,1.37,5.6,5.6,0,0,1-1.37,1.17,6,6,0,0,1,1.18-1.37A5.6,5.6,0,0,1,230,50.92Z" transform="translate(-193.144 -39.121)" fill="#263238"/>
      <path id="Trazado_121111" data-name="Trazado 121111" d="M235.83,57.25a7.57,7.57,0,0,1-1.5,1,7.72,7.72,0,0,1-1.58.87A4.75,4.75,0,0,1,234.19,58a4.65,4.65,0,0,1,1.64-.75Z" transform="translate(-193.144 -39.121)" fill="#263238"/>
      <path id="Trazado_121112" data-name="Trazado 121112" d="M239.23,66.64a22.3,22.3,0,0,1-5,0,22.3,22.3,0,0,1,5,0Z" transform="translate(-193.144 -39.121)" fill="#263238"/>
      <path id="Trazado_121113" data-name="Trazado 121113" d="M204.69,66.3a9.8,9.8,0,0,1-2.35.14A9.92,9.92,0,0,1,200,66.3a10.59,10.59,0,0,1,2.36-.14,10.46,10.46,0,0,1,2.33.14Z" transform="translate(-193.144 -39.121)" fill="#263238"/>
      <path id="Trazado_121114" data-name="Trazado 121114" d="M207.13,73.3a10.44,10.44,0,0,1-1.78,1.61,10.219,10.219,0,0,1-1.95,1.39,10.44,10.44,0,0,1,1.78-1.61,10.22,10.22,0,0,1,1.95-1.39Z" transform="translate(-193.144 -39.121)" fill="#263238"/>
      <path id="Trazado_121115" data-name="Trazado 121115" d="M213.16,78.7A16.871,16.871,0,0,1,212,80.8a14.529,14.529,0,0,1-1.29,2,8.291,8.291,0,0,1,1.05-2.2,8.05,8.05,0,0,1,1.4-1.9Z" transform="translate(-193.144 -39.121)" fill="#263238"/>
      <path id="Trazado_121116" data-name="Trazado 121116" d="M220.13,85.68a11.1,11.1,0,0,1-.14-2.5,11,11,0,0,1,.14-2.49,11,11,0,0,1,.14,2.49A11.1,11.1,0,0,1,220.13,85.68Z" transform="translate(-193.144 -39.121)" fill="#263238"/>
      <path id="Trazado_121117" data-name="Trazado 121117" d="M230.87,82.36A7.38,7.38,0,0,1,228.81,81a7.26,7.26,0,0,1-1.67-1.84A22.563,22.563,0,0,1,229,80.74a23,23,0,0,1,1.87,1.62Z" transform="translate(-193.144 -39.121)" fill="#263238"/>
      <path id="Trazado_121118" data-name="Trazado 121118" d="M235.9,76.93a8.35,8.35,0,0,1-1.64-1.45,8.939,8.939,0,0,1-1.46-1.65,8.74,8.74,0,0,1,1.65,1.45,8.549,8.549,0,0,1,1.45,1.65Z" transform="translate(-193.144 -39.121)" fill="#263238"/>
      <path id="Trazado_121119" data-name="Trazado 121119" d="M206.9,59.61a7.1,7.1,0,0,1-1.45-1.26,6.72,6.72,0,0,1-1.26-1.46,6.72,6.72,0,0,1,1.46,1.26,6.5,6.5,0,0,1,1.25,1.46Z" transform="translate(-193.144 -39.121)" fill="#263238"/>
      <path id="Trazado_121120" data-name="Trazado 121120" d="M213.12,53.06a7,7,0,0,1-1.43-1.23,6.15,6.15,0,0,1-1.23-1.42,6.41,6.41,0,0,1,1.43,1.22A6.15,6.15,0,0,1,213.12,53.06Z" transform="translate(-193.144 -39.121)" fill="#263238"/>
    </g>
  </g>
</svg>
