<svg xmlns="http://www.w3.org/2000/svg" xmlns:xlink="http://www.w3.org/1999/xlink" width="444" height="353.76" viewBox="0 0 444 353.76">
  <defs>
    <clipPath id="clip-path">
      <path id="Trazado_118297" data-name="Trazado 118297" d="M365.63,173.8s-13.3-.18-16.23,4.17-15,31.42-15,31.42l18.87,9.82,4.06-11.6,6.62,24.25c-7.58,6-18.32,60.63-16.18,83.64l70.88.23s.49-63.84-18.68-84.83l4.49-25.35,4.33,12.37,20-8.3-15.05-27.07a14.58,14.58,0,0,0-12.66-7.49h-4.91s-2.07,18.12-15.24,17.77S365.63,173.8,365.63,173.8Z" transform="translate(-334.4 -173.799)" fill="none"/>
    </clipPath>
  </defs>
  <g id="Online_shopping-pana" data-name="Online shopping-pana" transform="translate(-325.798 -70.7)">
    <g id="freepik--background-complete--inject-8" transform="translate(336.017 70.7)">
      <path id="Trazado_118253" data-name="Trazado 118253" d="M589.59,257.64,430,229.19a7.54,7.54,0,0,1-6.1-8.75l17.57-98.6a7.55,7.55,0,0,1,8.75-6.1l159.62,28.45a7.54,7.54,0,0,1,6.1,8.75l-17.58,98.6a7.54,7.54,0,0,1-8.77,6.1Z" transform="translate(-192.145 -70.7)" fill="#e0e0e0"/>
      <path id="Trazado_118254" data-name="Trazado 118254" d="M586.83,167.33a12.21,12.21,0,1,1-2-9.148,12.23,12.23,0,0,1,2,9.148Z" transform="translate(-192.145 -70.7)" fill="#fff"/>
      <path id="Trazado_118255" data-name="Trazado 118255" d="M589.33,180.5a13.27,13.27,0,0,1-2.26-.2,12.7,12.7,0,1,1,2.26.2Zm0-24.47a11.74,11.74,0,1,0,11.55,13.79h0a11.73,11.73,0,0,0-9.49-13.6,11.119,11.119,0,0,0-2.09-.22Z" transform="translate(-192.145 -70.7)" fill="#fff"/>
      <path id="Trazado_118256" data-name="Trazado 118256" d="M445.29,189.76l-1.72,9.68-1-.18,1.57-8.8-2.28-.4.15-.89Z" transform="translate(-190.021 -70.7)" fill="#fff"/>
      <path id="Trazado_118257" data-name="Trazado 118257" d="M453.68,200.33l-.15.89-6.8-1.21.13-.71,4.73-3.23c1.28-.88,1.61-1.49,1.72-2.16.2-1.12-.46-1.95-1.94-2.21a3.32,3.32,0,0,0-2.84.6l-.59-.73a4.38,4.38,0,0,1,3.67-.77c2,.35,3,1.57,2.75,3.18-.17.93-.61,1.71-2.13,2.75l-3.87,2.65Z" transform="translate(-190.115 -70.7)" fill="#fff"/>
      <path id="Trazado_118258" data-name="Trazado 118258" d="M464.17,200.49l-1.93-.35-.46,2.55-1-.18.45-2.54-5.46-1,.12-.72,6.28-5.5,1.11.19-6.07,5.37,4.21.75.4-2.24,1,.18-.39,2.24,1.93.34Z" transform="translate(-190.236 -70.7)" fill="#fff"/>
      <path id="Trazado_118259" data-name="Trazado 118259" d="M479,203.13l-1.94-.34-.45,2.54-1-.17.45-2.55-5.46-1,.13-.72,6.28-5.51,1.1.2L472.06,201l4.21.75.4-2.24,1,.17-.4,2.24,1.93.35Z" transform="translate(-190.422 -70.7)" fill="#fff"/>
      <path id="Trazado_118260" data-name="Trazado 118260" d="M487.54,204.34c-.3,1.65-1.68,2.73-4,2.31a5.05,5.05,0,0,1-3.25-1.87l.62-.7a4.27,4.27,0,0,0,2.78,1.65c1.64.29,2.66-.35,2.87-1.53s-.42-2.16-2.88-2.6l-2.06-.36,1.36-4.77,5.3.94-.16.89-4.42-.79-.88,3,1.24.23C486.94,201.28,487.84,202.62,487.54,204.34Z" transform="translate(-190.539 -70.7)" fill="#fff"/>
      <path id="Trazado_118261" data-name="Trazado 118261" d="M497.12,206a3.07,3.07,0,0,1-3.84,2.39c-2.57-.46-3.65-2.49-3.11-5.55.59-3.29,2.69-4.69,5.32-4.22a4.47,4.47,0,0,1,2.2.93l-.54.73a3.55,3.55,0,0,0-1.8-.79c-2.09-.37-3.67.73-4.14,3.36,0,.22-.07.5-.1.8a3.15,3.15,0,0,1,3.26-1.13C496.29,202.86,497.43,204.23,497.12,206Zm-1-.14c.23-1.28-.57-2.26-2.06-2.53A2.28,2.28,0,0,0,491.2,205c-.19,1.06.51,2.23,2.19,2.53a2.15,2.15,0,0,0,2.74-1.67Z" transform="translate(-190.658 -70.7)" fill="#fff"/>
      <path id="Trazado_118262" data-name="Trazado 118262" d="M510.35,208.48c-.29,1.62-1.69,2.65-4,2.23a5.07,5.07,0,0,1-3.26-1.86l.62-.7a4.32,4.32,0,0,0,2.8,1.65c1.61.29,2.63-.3,2.84-1.51s-.47-2.06-2.27-2.39l-.69-.12.13-.73,3.28-2.89-4.95-.88.16-.88,6.22,1.11-.12.7-3.36,3C509.78,205.65,510.62,206.93,510.35,208.48Z" transform="translate(-190.827 -70.7)" fill="#fff"/>
      <path id="Trazado_118263" data-name="Trazado 118263" d="M520.08,210.1a3.07,3.07,0,0,1-3.84,2.38c-2.57-.46-3.65-2.49-3.11-5.55.59-3.29,2.69-4.69,5.32-4.22a4.65,4.65,0,0,1,2.21.94l-.55.73a3.47,3.47,0,0,0-1.8-.79c-2.09-.38-3.67.73-4.14,3.36,0,.22-.07.5-.1.79a3.15,3.15,0,0,1,3.26-1.13C519.25,207,520.39,208.33,520.08,210.1Zm-1-.15c.23-1.27-.57-2.26-2.06-2.52a2.27,2.27,0,0,0-2.87,1.67c-.19,1.06.52,2.23,2.19,2.53a2.15,2.15,0,0,0,2.75-1.63Z" transform="translate(-190.947 -70.7)" fill="#fff"/>
      <path id="Trazado_118264" data-name="Trazado 118264" d="M530.2,204.89l-.13.71-5.65,8.25-1.08-.19,5.55-8.09-5-.89-.32,1.82-1-.18.49-2.7Z" transform="translate(-191.067 -70.7)" fill="#fff"/>
      <path id="Trazado_118265" data-name="Trazado 118265" d="M544,207.36l-.12.71-5.66,8.25-1.08-.19,5.56-8.09-5-.89-.33,1.82-1-.18.48-2.7Z" transform="translate(-192.145 -70.7)" fill="#fff"/>
      <path id="Trazado_118266" data-name="Trazado 118266" d="M552.33,216.05c-.31,1.71-2,2.52-4.26,2.11s-3.55-1.74-3.24-3.45a2.47,2.47,0,0,1,2.29-2.05,2.22,2.22,0,0,1-1.14-2.4c.28-1.58,1.8-2.32,3.84-1.95s3.25,1.59,3,3.16a2.24,2.24,0,0,1-1.93,1.86A2.49,2.49,0,0,1,552.33,216.05Zm-1-.2c.21-1.19-.68-2.12-2.4-2.43s-2.86.27-3.07,1.46.66,2.13,2.38,2.43,2.85-.26,3.07-1.46Zm-2.26-3.21c1.51.26,2.53-.25,2.72-1.3s-.64-1.93-2.1-2.19-2.51.24-2.7,1.32.55,1.9,2.06,2.17Z" transform="translate(-192.145 -70.7)" fill="#fff"/>
      <path id="Trazado_118267" data-name="Trazado 118267" d="M562.13,215.5c-.59,3.29-2.69,4.68-5.32,4.21a4.47,4.47,0,0,1-2.2-.93l.54-.73a3.47,3.47,0,0,0,1.8.79c2.09.37,3.67-.73,4.14-3.36a7.394,7.394,0,0,0,.1-.79,3.16,3.16,0,0,1-3.26,1.13c-1.92-.35-3.06-1.72-2.74-3.49a3.07,3.07,0,0,1,3.83-2.39C561.6,210.4,562.68,212.44,562.13,215.5Zm-1-2.17c.19-1.07-.51-2.24-2.19-2.53a2.15,2.15,0,0,0-2.74,1.68c-.22,1.27.57,2.25,2.07,2.52a2.27,2.27,0,0,0,2.83-1.67Z" transform="translate(-192.145 -70.7)" fill="#fff"/>
      <path id="Trazado_118268" data-name="Trazado 118268" d="M572.8,212.49l-1.73,9.68-1-.18,1.57-8.8-2.29-.4.16-.89Z" transform="translate(-192.145 -70.7)" fill="#fff"/>
      <path id="Trazado_118269" data-name="Trazado 118269" d="M581.19,223.06,581,224l-6.79-1.21.13-.71,4.72-3.23c1.29-.88,1.61-1.49,1.73-2.16.2-1.12-.46-1.95-1.94-2.21a3.32,3.32,0,0,0-2.84.6l-.6-.73a4.42,4.42,0,0,1,3.68-.77c2,.35,3,1.57,2.75,3.19-.17.92-.61,1.7-2.14,2.74l-3.87,2.65Z" transform="translate(-192.145 -70.7)" fill="#fff"/>
      <path id="Trazado_118270" data-name="Trazado 118270" d="M590.22,222.71c-.29,1.62-1.69,2.66-4,2.24a5.08,5.08,0,0,1-3.26-1.87l.62-.7a4.34,4.34,0,0,0,2.8,1.66c1.61.28,2.63-.3,2.84-1.51s-.47-2.07-2.27-2.39l-.69-.12.13-.73,3.28-2.89-4.95-.88.16-.89,6.22,1.11-.12.71-3.36,3C589.65,219.89,590.49,221.16,590.22,222.71Z" transform="translate(-192.145 -70.7)" fill="#fff"/>
      <rect id="Rectángulo_29528" data-name="Rectángulo 29528" width="4.27" height="78.8" transform="matrix(0.176, -0.984, 0.984, 0.176, 321.216, 152.937)" fill="#fff"/>
      <rect id="Rectángulo_29529" data-name="Rectángulo 29529" width="4.27" height="40.41" transform="matrix(0.176, -0.984, 0.984, 0.176, 357.51, 168.072)" fill="#fff"/>
      <g id="Grupo_55088" data-name="Grupo 55088" transform="translate(250.582 85.35)" opacity="0.5">
        <rect id="Rectángulo_29530" data-name="Rectángulo 29530" width="33.06" height="24.7" rx="4.96" transform="matrix(0.984, 0.176, -0.176, 0.984, 4.336, 0)" fill="#ebebeb"/>
      </g>
      <path id="Trazado_118271" data-name="Trazado 118271" d="M442.07,173.62l.28-1.56,16.76,3a3.57,3.57,0,0,0,1.25-7l-16.76-3,.28-1.56,16.76,3a5.15,5.15,0,0,1-1.81,10.14Z" transform="translate(-190.176 -70.7)" fill="#e0e0e0"/>
      <rect id="Rectángulo_29531" data-name="Rectángulo 29531" width="1.58" height="11.68" transform="translate(273.518 102.379) rotate(-79.84)" fill="#e0e0e0"/>
      <rect id="Rectángulo_29532" data-name="Rectángulo 29532" width="85.03" height="7.3" transform="matrix(0.984, 0.176, -0.176, 0.984, 261.703, 66.006)" fill="#fff"/>
      <path id="Trazado_118272" data-name="Trazado 118272" d="M276.17,137.66a.753.753,0,0,0-.27.09l-.8.23-3.12.82-11.59,2.91-39,9.57-.26.07-.1-.26-2.48-6.24c-7.19-18.28-13.61-34.61-17.8-45.24l.24.12-10.4,2.43-2.78.62-.72.15a.74.74,0,0,1-.24,0,.563.563,0,0,0,.23-.09l.71-.2,2.74-.72,10.36-2.61h.17l.07.16,18,45.16c.85,2.14,1.69,4.25,2.47,6.24l-.36-.19,39-9.37,11.63-2.73,3.15-.71.82-.17Z" transform="translate(-186.85 -70.7)" fill="#fff"/>
      <path id="Trazado_118273" data-name="Trazado 118273" d="M217,140l.27-.1.81-.22,3.12-.81,11.71-2.94L273.34,126l-.23.31c-.45-7.1-.95-14.78-1.46-22.72-.25-4.09-.51-8.11-.75-11.94l.39.29-47.7,11.48-14.14,3.34-3.82.87-1,.21a1.1,1.1,0,0,1-.34.05,1.89,1.89,0,0,1,.33-.11l1-.26,3.79-1,14.1-3.52,47.65-11.69.36-.09v.37c.24,3.83.5,7.85.76,11.94.5,7.94,1,15.62,1.43,22.72v.26l-.25.06L233,136.32l-11.75,2.76-3.15.71-.81.18a1.48,1.48,0,0,1-.29.03Z" transform="translate(-186.85 -70.7)" fill="#fff"/>
      <path id="Trazado_118274" data-name="Trazado 118274" d="M238.68,162.52c-.06,0-.17-.47-.61-1.23a5.62,5.62,0,0,0-2.71-2.39,5.37,5.37,0,1,0,2,8.37,5.67,5.67,0,0,0,1.31-3.37c0-.87-.09-1.36,0-1.38s.06.12.13.35a4.359,4.359,0,0,1,.15,1,5.65,5.65,0,0,1-1.21,3.65,5.85,5.85,0,0,1-5.2,2.2,5.91,5.91,0,0,1-2.63-10.83,5.83,5.83,0,0,1,5.63-.43,5.6,5.6,0,0,1,2.74,2.68,4.26,4.26,0,0,1,.35,1C238.69,162.4,238.7,162.52,238.68,162.52Z" transform="translate(-186.85 -70.7)" fill="#fff"/>
      <path id="Trazado_118275" data-name="Trazado 118275" d="M274,154c-.06,0-.18-.47-.61-1.24a5.61,5.61,0,0,0-2.71-2.38,5.36,5.36,0,1,0,2,8.36,5.71,5.71,0,0,0,1.31-3.36c0-.88-.09-1.37,0-1.38s.06.11.13.34a4.059,4.059,0,0,1,.14,1A5.6,5.6,0,0,1,273,159a5.82,5.82,0,0,1-5.19,2.2,5.91,5.91,0,0,1-2.64-10.83,5.83,5.83,0,0,1,5.63-.43,5.59,5.59,0,0,1,2.75,2.68,3.73,3.73,0,0,1,.34,1A.87.87,0,0,1,274,154Z" transform="translate(-187.81 -70.7)" fill="#fff"/>
      <path id="Trazado_118276" data-name="Trazado 118276" d="M282.51,83a16.1,16.1,0,1,1-19.44-11.84A16.1,16.1,0,0,1,282.51,83Z" transform="translate(-186.85 -70.7)" fill="#fff"/>
      <path id="Trazado_118277" data-name="Trazado 118277" d="M273.7,80.81a16.823,16.823,0,0,1-1.45,3c-1,1.81-2.34,4.29-3.9,7l-1.67,2.89-.14.25-.26-.13c-2-1.09-3.81-2-5-2.74a9.909,9.909,0,0,1-1.91-1.2,9.49,9.49,0,0,1,2.09.86c1.28.61,3.08,1.49,5.15,2.54l-.4.12c.51-.92,1.07-1.9,1.64-2.91,1.55-2.72,3-5.16,4.06-6.91a15.7,15.7,0,0,1,1.79-2.77Z" transform="translate(-187.776 -70.7)" fill="#e0e0e0"/>
    </g>
    <g id="freepik--Device--inject-8" transform="translate(325.798 75.2)">
      <path id="Trazado_118279" data-name="Trazado 118279" d="M446.35,419.724l-132.86-.546c-15.979-.063-28.876-11.508-28.81-25.567l1.41-293.073c.11-14.05,13.11-25.378,29.08-25.338L448,75.737c15.969.092,28.849,11.526,28.81,25.576l-1.38,293.081c-.116,14.047-13.114,25.369-29.08,25.33Z" transform="translate(-284.68 -75.2)" fill="#455a64"/>
      <path id="Trazado_118280" data-name="Trazado 118280" d="M447.84,87.237l-25.76-.1c-3.531.057-6.341,2.6-6.28,5.673v4.07a5.2,5.2,0,0,1-1.79,3.972,6.866,6.866,0,0,1-4.49,1.7l-50.22-.2a6.849,6.849,0,0,1-4.473-1.738,5.19,5.19,0,0,1-1.747-3.987v-4.07c.084-3.077-2.7-5.635-6.23-5.726h-9.06l-22.55-.087c-11.195-.043-20.31,7.83-20.36,17.587l-1.37,283.3c-.05,9.753,8.979,17.7,20.17,17.743l132.6.532c11.2.043,20.316-7.836,20.36-17.6L468,104.971c.044-9.746-8.977-17.682-20.16-17.735Z" transform="translate(-284.68 -75.2)" fill="#fafafa"/>
      <path id="Trazado_118281" data-name="Trazado 118281" d="M450.74,119.31a21.481,21.481,0,0,1-3.33.17c-2.07,0-4.94.08-8.18.09H439v-.22c-.06-.44-.13-.9-.19-1.36-.56-4-1-7.54-1.28-9.84l.16.14a18.079,18.079,0,0,1-3-.17,19,19,0,0,1,3-.16h.14v.14c.37,2.29.91,5.84,1.46,9.82.07.46.13.92.19,1.35l-.25-.22c3.24,0,6.11,0,8.18.09a21.479,21.479,0,0,1,3.33.17Z" transform="translate(-284.68 -75.2)" fill="#263238"/>
      <path id="Trazado_118282" data-name="Trazado 118282" d="M438.89,116.92a4.86,4.86,0,0,1,.89-.08l2.46-.07c2.11,0,5.07-.08,8.5-.09l-.25.2.8-4.58c.15-.82.29-1.63.43-2.4l.25.3c-4,0-7.49,0-10-.09l-3-.07a4,4,0,0,1-1.07-.1,5.131,5.131,0,0,1,1.07-.09l3-.08c2.52,0,6-.07,10-.08h.31v.3c-.14.77-.28,1.58-.42,2.4-.29,1.6-.57,3.14-.82,4.58v.21h-.21c-3.43,0-6.39,0-8.5-.09l-2.46-.07A3.52,3.52,0,0,1,438.89,116.92Z" transform="translate(-284.68 -75.2)" fill="#263238"/>
      <path id="Trazado_118283" data-name="Trazado 118283" d="M442.1,122.44c-.08,0-.08-.45-.56-.77a1,1,0,0,0-.9-.09.92.92,0,0,0,0,1.71,1,1,0,0,0,.9-.09c.48-.31.48-.78.56-.76s.08.1.07.3a1.2,1.2,0,0,1-.41.76,1.33,1.33,0,0,1-1.28.24,1.38,1.38,0,0,1,0-2.61,1.33,1.33,0,0,1,1.28.24,1.2,1.2,0,0,1,.41.76C442.18,122.33,442.14,122.44,442.1,122.44Z" transform="translate(-284.68 -75.2)" fill="#263238"/>
      <path id="Trazado_118284" data-name="Trazado 118284" d="M449.51,122.44c-.08,0-.08-.45-.56-.77a1,1,0,0,0-.9-.09.92.92,0,0,0,0,1.71,1,1,0,0,0,.9-.09c.48-.31.48-.78.56-.76s.08.1.07.3a1.2,1.2,0,0,1-.41.76,1.33,1.33,0,0,1-1.28.24,1.37,1.37,0,0,1-.94-1.3,1.39,1.39,0,0,1,.94-1.31,1.33,1.33,0,0,1,1.28.24,1.2,1.2,0,0,1,.41.76C449.59,122.33,449.55,122.44,449.51,122.44Z" transform="translate(-284.68 -75.2)" fill="#263238"/>
      <path id="Trazado_118285" data-name="Trazado 118285" d="M332.6,120.53a95.907,95.907,0,0,1-9.91.26,95.75,95.75,0,0,1-9.91-.26,92.492,92.492,0,0,1,9.91-.26,92.65,92.65,0,0,1,9.91.26Z" transform="translate(-284.68 -75.2)" fill="#263238"/>
      <path id="Trazado_118286" data-name="Trazado 118286" d="M332.6,116.78a92.652,92.652,0,0,1-9.91.26,92.488,92.488,0,0,1-9.91-.26,95.754,95.754,0,0,1,9.91-.26,95.91,95.91,0,0,1,9.91.26Z" transform="translate(-284.68 -75.2)" fill="#263238"/>
      <path id="Trazado_118287" data-name="Trazado 118287" d="M332.6,113a95.912,95.912,0,0,1-9.91.26,95.747,95.747,0,0,1-9.91-.26,95.758,95.758,0,0,1,9.91-.26,95.906,95.906,0,0,1,9.91.26Z" transform="translate(-284.68 -75.2)" fill="#263238"/>
      <g id="Grupo_55089" data-name="Grupo 55089" transform="translate(49.72 80.011)" clip-path="url(#clip-path)">
        <path id="Trazado_118288" data-name="Trazado 118288" d="M365.63,173.8s-13.3-.18-16.23,4.17-15,31.42-15,31.42l18.87,9.82,4.06-11.6,6.62,24.25c-7.58,6-18.32,60.63-16.18,83.64l70.88.23s.49-63.84-18.68-84.83l4.49-25.35,4.33,12.37,20-8.3-15.05-27.07a14.58,14.58,0,0,0-12.66-7.49h-4.91s-2.07,18.12-15.24,17.77S365.63,173.8,365.63,173.8Z" transform="translate(-334.4 -173.799)" fill="#c1507f"/>
        <path id="Trazado_118289" data-name="Trazado 118289" d="M433.81,259.88a1.644,1.644,0,0,1,0-.32,4.379,4.379,0,0,0-.08-.94,9.627,9.627,0,0,0-.17-1.52,15,15,0,0,0-.43-2,18.851,18.851,0,0,0-2.21-5.24,19.63,19.63,0,0,0-23.58-8.34,18.19,18.19,0,0,0-4.95,2.67,21.854,21.854,0,0,0-2.22,1.88,22.251,22.251,0,0,0-1.92,2.28,19.65,19.65,0,0,0-3.81,11.56,21.21,21.21,0,0,0,1,6.18,19.239,19.239,0,0,0,2.8,5.4,18,18,0,0,0,4.14,4.16,18.471,18.471,0,0,0,4.95,2.67,19.66,19.66,0,0,0,23.58-8.35,18.549,18.549,0,0,0,2.21-5.24,15.229,15.229,0,0,0,.43-2,9.88,9.88,0,0,0,.17-1.52,8.964,8.964,0,0,1,.08-.94,1.644,1.644,0,0,1,0-.32,1.566,1.566,0,0,1,0,.32v.95a9.33,9.33,0,0,1-.13,1.53,13.422,13.422,0,0,1-.38,2.06,18.658,18.658,0,0,1-2.16,5.34,19.936,19.936,0,0,1-23.99,8.65,18.71,18.71,0,0,1-5.09-2.72,24.259,24.259,0,0,1-2.28-1.93,22,22,0,0,1-2-2.33,19.529,19.529,0,0,1-2.88-5.53,21.381,21.381,0,0,1-1-6.35A20.15,20.15,0,0,1,397.8,248a21.928,21.928,0,0,1,2-2.32,22.846,22.846,0,0,1,2.28-1.93,19.17,19.17,0,0,1,5.09-2.73,19.926,19.926,0,0,1,23.99,8.66,18.621,18.621,0,0,1,2.16,5.33,13.313,13.313,0,0,1,.38,2.07,9.252,9.252,0,0,1,.13,1.53v.95a1.571,1.571,0,0,1-.02.32Z" transform="translate(-334.4 -173.799)" fill="#c1507f"/>
        <path id="Trazado_118290" data-name="Trazado 118290" d="M371.36,215.34a25.1,25.1,0,0,0-.56-3.56,14.494,14.494,0,0,0-25.69-5,14.33,14.33,0,0,0,0,17,13.421,13.421,0,0,0,3,3.06,13.571,13.571,0,0,0,3.64,2,14.42,14.42,0,0,0,7.58.64,14.25,14.25,0,0,0,6.09-2.68,14.62,14.62,0,0,0,5.34-8,24.873,24.873,0,0,0,.56-3.55.871.871,0,0,1,0,.24c0,.18,0,.41,0,.7a6.262,6.262,0,0,1-.09,1.13,10.122,10.122,0,0,1-.27,1.53,13.911,13.911,0,0,1-1.59,4,14.87,14.87,0,0,1-17.82,6.38,13.549,13.549,0,0,1-3.78-2,13.931,13.931,0,0,1-3.16-3.16,14.81,14.81,0,0,1,0-17.63,14.141,14.141,0,0,1,3.16-3.16,13.781,13.781,0,0,1,3.78-2,14.77,14.77,0,0,1,17.78,6.43,14,14,0,0,1,1.59,3.95,10.455,10.455,0,0,1,.27,1.54,6.133,6.133,0,0,1,.09,1.13v.7a.87.87,0,0,1,.08.31Z" transform="translate(-334.4 -173.799)" fill="#c1507f"/>
        <path id="Trazado_118291" data-name="Trazado 118291" d="M371.35,301.65c-.05,0-.05-.4-.24-1.07a4.45,4.45,0,0,0-1.65-2.35,4.27,4.27,0,1,0,0,6.85,4.45,4.45,0,0,0,1.65-2.35c.19-.68.19-1.08.24-1.08s0,.1,0,.29a3.659,3.659,0,0,1-.08.84,4.47,4.47,0,0,1-1.62,2.59,4.67,4.67,0,0,1-4.45.73,4.72,4.72,0,0,1,0-8.89,4.67,4.67,0,0,1,4.45.73,4.47,4.47,0,0,1,1.62,2.59,3.578,3.578,0,0,1,.08.83C371.38,301.56,371.37,301.65,371.35,301.65Z" transform="translate(-334.4 -173.799)" fill="#c1507f"/>
        <path id="Trazado_118292" data-name="Trazado 118292" d="M363.56,186.51c-.05,0-.05-.4-.24-1.07a4.45,4.45,0,0,0-1.65-2.35,4.27,4.27,0,1,0,0,6.85,4.51,4.51,0,0,0,1.65-2.36c.19-.67.19-1.07.24-1.07a.74.74,0,0,1,0,.29,2.709,2.709,0,0,1-.08.83,4.39,4.39,0,0,1-1.62,2.6,4.64,4.64,0,0,1-4.44.73,4.72,4.72,0,0,1,0-8.89,4.64,4.64,0,0,1,4.44.73,4.37,4.37,0,0,1,1.62,2.59,2.73,2.73,0,0,1,.08.83.74.74,0,0,1,0,.29Z" transform="translate(-334.4 -173.799)" fill="#c1507f"/>
        <path id="Trazado_118293" data-name="Trazado 118293" d="M378.2,280.12a2.725,2.725,0,0,1-.09-.42c-.06-.31-.13-.71-.22-1.2-.18-1.08-.44-2.6-.76-4.5l-2.62-15.91.25.19-22.06,3.51.22-.3h0v.36l.06.37.12.76c.08.5.15,1,.23,1.49.16,1,.31,2,.46,2.95.31,1.95.61,3.86.89,5.71.58,3.7,1.12,7.2,1.62,10.41l-.26-.19L372,281l4.52-.65,1.21-.16.43-.05a1.581,1.581,0,0,1-.37.09l-1.16.21-4.45.76-16.05,2.64h-.22v-.23c-.51-3.21-1.07-6.7-1.66-10.4q-.45-2.79-.91-5.71c-.15-1-.3-1.95-.46-2.95l-.24-1.49-.12-.76-.06-.37v-.36h0c-.2.27.26-.36.21-.3l22.07-3.43h.23v.22c1,6.62,1.83,12.16,2.42,16.09.27,1.89.49,3.39.64,4.47.06.48.12.86.16,1.16a1.856,1.856,0,0,1,.01.34Z" transform="translate(-334.4 -173.799)" fill="#c1507f"/>
        <path id="Trazado_118294" data-name="Trazado 118294" d="M405.17,222.4a2.844,2.844,0,0,1,.25-.44c.19-.3.45-.7.76-1.21l2.88-4.53c2.51-3.89,6-9.4,10.28-16l.06.32-22.06-14.33.36-.08h0l-.06.1-.13.18-.24.38-.49.75-1,1.5-1.92,3-3.71,5.69-6.8,10.39-.07-.32,15.86,10.47,4.47,3,1.19.8.41.3a2,2,0,0,1-.4-.23l-1.18-.73-4.49-2.86L383,208.23l-.19-.12.12-.19c2.09-3.21,4.35-6.71,6.76-10.41l3.7-5.71,1.92-2.94,1-1.5.49-.75.25-.38.12-.19.06-.09h0l.37-.08,22,14.39.19.12-.12.19-10.55,16-2.95,4.42-.78,1.15q-.1.135-.22.26Z" transform="translate(-334.4 -173.799)" fill="#c1507f"/>
        <path id="Trazado_118295" data-name="Trazado 118295" d="M390.27,289.7l-.09.17-.25.46-1,1.75-3.63,6.47c-3.08,5.46-7.54,13.23-12.76,22.31l-.21-.37h35.84l-.21.37c-5.22-9.08-9.69-16.85-12.76-22.31l-3.63-6.47-1-1.75c-.1-.18-.19-.33-.25-.46l-.09-.17a4.339,4.339,0,0,1,.34.55l1,1.67,3.78,6.38c3.27,5.52,7.76,13.27,13,22.31l.21.37H371.87l.22-.37c5.25-9,9.74-16.79,13-22.31l3.78-6.38,1-1.67A4.339,4.339,0,0,1,390.27,289.7Z" transform="translate(-334.4 -173.799)" fill="#c1507f"/>
        <path id="Trazado_118296" data-name="Trazado 118296" d="M376.06,232.52s.05.15.13.4.19.66.32,1.09l1.16,4c1,3.35,2.29,8.21,3.83,13.88l-.41-.11,7.1-7.12,7.13-7.1.11.41c-5.67-1.55-10.53-2.87-13.88-3.83l-4-1.17-1.09-.32a2.311,2.311,0,0,1-.4-.13l.34.07,1.05.26,4,1c3.53.87,8.39,2.16,14.06,3.65l.42.11-.31.3c-2.19,2.21-4.6,4.62-7.1,7.13l-7.12,7.1-.3.3L381,252c-1.5-5.68-2.78-10.53-3.66-14.06-.41-1.68-.74-3-1-4l-.25-1.06A1.421,1.421,0,0,1,376.06,232.52Z" transform="translate(-334.4 -173.799)" fill="#c1507f"/>
      </g>
      <path id="Trazado_118298" data-name="Trazado 118298" d="M400.33,231c0,.15-8,.46-18,.7s-18,.32-18,.18,8-.46,18-.7S400.33,230.86,400.33,231Z" transform="translate(-284.68 -93.966)" fill="#263238"/>
      <path id="Trazado_118299" data-name="Trazado 118299" d="M351.4,191.18a88.4,88.4,0,0,1,3.35,8.82,89.446,89.446,0,0,1,2.86,9,82.584,82.584,0,0,1-3.35-8.83,83.914,83.914,0,0,1-2.86-8.99Z" transform="translate(-284.68 -89.804)" fill="#263238"/>
      <path id="Trazado_118300" data-name="Trazado 118300" d="M406.35,192.41a15.276,15.276,0,0,1-.19,2.88c-.19,1.77-.51,4.2-.94,6.88s-.89,5.1-1.26,6.84a14.9,14.9,0,0,1-.72,2.79,15.54,15.54,0,0,1,.36-2.86l1.11-6.85c.41-2.59.78-4.93,1.09-6.85a15.72,15.72,0,0,1,.55-2.83Z" transform="translate(-284.68 -90.022)" fill="#263238"/>
      <path id="Trazado_118301" data-name="Trazado 118301" d="M368.22,243.73a5.209,5.209,0,0,1-.39-1.9,14.78,14.78,0,0,1,2.22-9,5.13,5.13,0,0,1,1.23-1.5,19.88,19.88,0,0,0-3.06,12.38Z" transform="translate(-284.68 -94.579)" fill="#263238"/>
      <path id="Trazado_118302" data-name="Trazado 118302" d="M373.61,238.13a6.24,6.24,0,0,1-.56-3.24,6.349,6.349,0,0,1,.65-3.23,29.327,29.327,0,0,1-.13,3.24C373.53,236.67,373.76,238.1,373.61,238.13Z" transform="translate(-284.68 -94.321)" fill="#263238"/>
      <path id="Trazado_118303" data-name="Trazado 118303" d="M404.67,299a2.569,2.569,0,0,1-.6-.25,17.183,17.183,0,0,1-1.66-.86,30.559,30.559,0,0,1-5.56-4.06,38.74,38.74,0,0,1-6.53-7.83,50.1,50.1,0,0,1-5.3-11.31c-2.71-8.48-3.34-16.57-3.72-22.33-.17-2.89-.25-5.24-.3-6.86v-1.86a2.69,2.69,0,0,1,0-.65,4.422,4.422,0,0,1,.08.64c0,.48.08,1.1.13,1.86.12,1.68.28,4,.47,6.84.47,5.75,1.16,13.79,3.85,22.2a50.448,50.448,0,0,0,5.21,11.21,39.51,39.51,0,0,0,6.37,7.82,33.1,33.1,0,0,0,5.41,4.15C403.89,298.55,404.69,299,404.67,299Z" transform="translate(-284.68 -98.733)" fill="#263238"/>
      <g id="Grupo_55090" data-name="Grupo 55090" transform="translate(96.16 150.875)" opacity="0.2">
        <path id="Trazado_118304" data-name="Trazado 118304" d="M381.7,249.86a40.64,40.64,0,0,0,15,26.26c3,2.34,6.47,4.51,7.73,8.08,1,2.89.3,6.12-.95,8.92a4.22,4.22,0,0,1-2.4,2.63c-1.22.32-2.45-.41-3.45-1.16-6.57-4.95-10.8-12.5-13.17-20.37s-3-16.15-3.62-24.35" transform="translate(-380.84 -249.86)"/>
      </g>
      <path id="Trazado_118305" data-name="Trazado 118305" d="M421,354.55c0,.15-16.9.26-37.73.26s-37.73-.11-37.73-.26,16.89-.26,37.73-.26S421,354.41,421,354.55Z" transform="translate(-284.68 -108.789)" fill="#263238"/>
      <path id="Trazado_118306" data-name="Trazado 118306" d="M421,146.51c0,.14-16.9.26-37.73.26s-37.73-.12-37.73-.26,16.89-.26,37.73-.26S421,146.36,421,146.51Z" transform="translate(-284.68 -72.558)" fill="#263238"/>
      <path id="Trazado_118307" data-name="Trazado 118307" d="M421,360.78c0,.14-16.9.26-37.73.26s-37.73-.12-37.73-.26,16.89-.26,37.73-.26S421,360.64,421,360.78Z" transform="translate(-284.68 -109.539)" fill="#263238"/>
      <path id="Trazado_118308" data-name="Trazado 118308" d="M378.15,378.92v10.86h-2.51v-8.85h-2.18v-2Z" transform="translate(-284.68 -112.746)"/>
      <path id="Trazado_118309" data-name="Trazado 118309" d="M380,384.35c0-3.59,2-5.62,4.66-5.62s4.66,2,4.66,5.62-2,5.62-4.66,5.62S380,387.93,380,384.35Zm6.79,0c0-2.47-.87-3.49-2.13-3.49s-2.11,1-2.11,3.49.87,3.49,2.11,3.49,2.17-1.02,2.17-3.49Z" transform="translate(-284.68 -112.76)"/>
      <path id="Trazado_118310" data-name="Trazado 118310" d="M396.29,381.3a2.16,2.16,0,0,1-2.26,2.38,2.32,2.32,0,0,1-1.22-.31l.38-.75a1.37,1.37,0,0,0,.82.22,1.17,1.17,0,0,0,1.25-1.28,1.55,1.55,0,0,1-1.1.39,1.4,1.4,0,0,1-1.52-1.37,1.52,1.52,0,0,1,1.67-1.48C395.54,379.1,396.29,379.87,396.29,381.3Zm-1.14-.77c0-.38-.29-.66-.78-.66a.665.665,0,1,0,.02,1.32.69.69,0,0,0,.76-.66Z" transform="translate(-284.68 -112.159)" fill="#263238"/>
      <path id="Trazado_118311" data-name="Trazado 118311" d="M400.31,381.3a2.16,2.16,0,0,1-2.26,2.38,2.32,2.32,0,0,1-1.22-.31l.38-.75a1.38,1.38,0,0,0,.83.22,1.17,1.17,0,0,0,1.24-1.28,1.55,1.55,0,0,1-1.1.39,1.4,1.4,0,0,1-1.52-1.37,1.52,1.52,0,0,1,1.67-1.48C399.56,379.1,400.31,379.87,400.31,381.3Zm-1.15-.77a.76.76,0,1,0-.75.66.68.68,0,0,0,.75-.66Z" transform="translate(-284.68 -112.159)" fill="#263238"/>
      <rect id="Rectángulo_29534" data-name="Rectángulo 29534" width="7.76" height="0.98" transform="translate(107.83 272.638)" fill="#263238"/>
      <path id="Trazado_118312" data-name="Trazado 118312" d="M404.87,346.59c0,.14-9.35.26-20.89.26s-20.89-.12-20.89-.26,9.35-.26,20.89-.26S404.87,346.45,404.87,346.59Z" transform="translate(-284.68 -107.831)" fill="#26aab7"/>
      <circle id="Elipse_4119" data-name="Elipse 4119" cx="15.08" cy="15.08" r="15.08" transform="translate(134.775 261.659) rotate(-22.5)" fill="#26aab7"/>
      <path id="Trazado_118313" data-name="Trazado 118313" d="M435.35,392.06a4.871,4.871,0,0,1,.83-.74c.56-.46,1.37-1.1,2.38-1.88,2-1.57,4.84-3.71,8-6.05v.42h0l-.07-.06-.15-.11-.29-.21-.57-.44-1.12-.84-2.12-1.6-3.57-2.73-2.38-1.88a5.129,5.129,0,0,1-.83-.75,4.291,4.291,0,0,1,.95.58l2.48,1.75,3.64,2.65,2.13,1.57,1.13.84.58.43.29.22.14.1.08.06h0v.42c-3.13,2.34-6,4.43-8.06,5.92l-2.48,1.75A4.291,4.291,0,0,1,435.35,392.06Z" transform="translate(-284.68 -112.88)" fill="#fafafa"/>
      <circle id="Elipse_4120" data-name="Elipse 4120" cx="15.08" cy="15.08" r="15.08" transform="translate(23.027 282.51) rotate(-80.78)" fill="#26aab7"/>
      <path id="Trazado_118314" data-name="Trazado 118314" d="M328.81,375.14a4.611,4.611,0,0,1-.83.75c-.55.45-1.37,1.09-2.38,1.88-2,1.57-4.83,3.7-8,6v-.41h0l.08.05.14.11.29.22.58.43,1.12.84,2.12,1.6,3.56,2.74c1,.78,1.83,1.42,2.38,1.88a4.4,4.4,0,0,1,.83.74,4.572,4.572,0,0,1-.95-.58l-2.48-1.75L321.64,387l-2.14-1.58-1.12-.84-.58-.42-.29-.22-.15-.11-.07-.05h0v-.42c3.13-2.33,6-4.42,8.05-5.92,1-.68,1.8-1.27,2.48-1.75a4.568,4.568,0,0,1,.99-.55Z" transform="translate(-284.68 -112.87)" fill="#fafafa"/>
      <rect id="Rectángulo_29535" data-name="Rectángulo 29535" width="30.13" height="30.13" transform="translate(29.77 287.034)" fill="#e0e0e0"/>
      <rect id="Rectángulo_29536" data-name="Rectángulo 29536" width="30.13" height="30.13" transform="translate(67.99 287.034)" fill="#e0e0e0"/>
      <rect id="Rectángulo_29537" data-name="Rectángulo 29537" width="30.13" height="30.13" transform="translate(106.22 287.034)" fill="#e0e0e0"/>
      <rect id="Rectángulo_29538" data-name="Rectángulo 29538" width="30.13" height="30.13" transform="translate(144.44 287.034)" fill="#e0e0e0"/>
      <rect id="Rectángulo_29539" data-name="Rectángulo 29539" width="56.22" height="3.2" transform="translate(69.82 60.85)" fill="#26aab7"/>
    </g>
    <g id="freepik--Bag--inject-8" transform="translate(689.352 337.289)">
      <path id="Trazado_118315" data-name="Trazado 118315" d="M596.94,409.63a2.082,2.082,0,0,1-.05-.59c0-.45,0-1,0-1.7,0-1.55-.05-3.67-.08-6.26v-6.73a18.916,18.916,0,0,1,.08-2.58,8.57,8.57,0,0,1,16.74-1.17,9.332,9.332,0,0,1,.32,2.59c0,.83,0,1.63,0,2.41v4.32c0,2.59-.06,4.71-.08,6.26a16.734,16.734,0,0,1-.05,1.7,2.7,2.7,0,0,1,0,.59,2.081,2.081,0,0,1,0-.59c0-.45,0-1-.05-1.7,0-1.55,0-3.67-.09-6.26V395.6a18.733,18.733,0,0,0-.34-4.86,8.1,8.1,0,0,0-13.44-3.56,8.19,8.19,0,0,0-2.36,4.66,21.063,21.063,0,0,0-.09,2.51c0,.83,0,1.63,0,2.41v4.32c0,2.59-.06,4.71-.08,6.26v1.7a2.7,2.7,0,0,1-.43.59Z" transform="translate(-577.48 -384.356)" fill="#263238"/>
      <path id="Trazado_118316" data-name="Trazado 118316" d="M607.26,409.63a2.077,2.077,0,0,1,0-.59c0-.45,0-1-.05-1.7,0-1.55,0-3.67-.09-6.26v-6.73a18.926,18.926,0,0,1,.08-2.58,8.565,8.565,0,0,1,16.73-1.17,9,9,0,0,1,.33,2.59v6.73c0,2.59-.06,4.71-.08,6.26v1.7a2.7,2.7,0,0,1,0,.59,2.269,2.269,0,0,1-.06-.59v-1.7c0-1.55-.05-3.67-.09-6.26V395.6a18.736,18.736,0,0,0-.34-4.86,8.1,8.1,0,0,0-15.8,1.1,19.149,19.149,0,0,0-.09,2.51c0,.83,0,1.63,0,2.41v4.32c0,2.59-.06,4.71-.08,6.26l-.05,1.7A2.7,2.7,0,0,1,607.26,409.63Z" transform="translate(-577.48 -384.356)" fill="#263238"/>
      <path id="Trazado_118317" data-name="Trazado 118317" d="M584.43,405.23l-6.95,61.39H625.2l6.02-61.39Z" transform="translate(-577.48 -384.356)" fill="#26aab7"/>
      <path id="Trazado_118318" data-name="Trazado 118318" d="M631.22,405.23h9.97l8.42,61.39H625.2Z" transform="translate(-577.48 -384.356)" fill="#26aab7"/>
      <g id="Grupo_55091" data-name="Grupo 55091" transform="translate(47.72 20.874)" opacity="0.4">
        <path id="Trazado_118319" data-name="Trazado 118319" d="M631.22,405.23h9.97l8.42,61.39H625.2Z" transform="translate(-625.2 -405.23)"/>
      </g>
      <path id="Trazado_118320" data-name="Trazado 118320" d="M582.47,422.5l45.86,12.21L626,458.5l-46.27-11.76Z" transform="translate(-577.48 -384.356)" fill="#fafafa"/>
    </g>
    <g id="freepik--Character--inject-8" transform="translate(535.212 247.569)">
      <path id="Trazado_118321" data-name="Trazado 118321" d="M510.11,311a30.91,30.91,0,0,0-.33,18.79c1.13,3.75,3,7.5,2.43,11.37-.47,3.16-2.52,5.92-2.93,9.09-.82,6.44,5.3,12.54,3.66,18.82a10,10,0,0,1-5.87,6.35,18.25,18.25,0,0,1-8.8,1.11c-4.39-.38-9.14-2-11.17-6-1.62-3.12-1.11-6.87-.55-10.33,2.48-15.32,5.34-30.75,11.55-45" transform="translate(-423.34 -294.635)" fill="#263238"/>
      <path id="Trazado_118322" data-name="Trazado 118322" d="M512.06,358.35a3.314,3.314,0,0,1-.51.17,5.382,5.382,0,0,1-1.55.13,5.91,5.91,0,0,1-2.36-.68,5.31,5.31,0,0,1-2.26-2.31,5.86,5.86,0,0,1-.45-3.9,5.511,5.511,0,0,1,.94-2,8.431,8.431,0,0,1,1.67-1.65,45.617,45.617,0,0,0,4-3,7.93,7.93,0,0,0,2.22-4.63,13.341,13.341,0,0,0-.38-5.21,30.066,30.066,0,0,0-1.74-4.62,38.437,38.437,0,0,1-3-7.85,11.861,11.861,0,0,1,0-5.66,6.131,6.131,0,0,1,.82-1.91,12.335,12.335,0,0,0-.71,1.94,12.21,12.21,0,0,0,.08,5.58,39,39,0,0,0,3.07,7.78,30.479,30.479,0,0,1,1.78,4.66,13.77,13.77,0,0,1,.39,5.34,8.16,8.16,0,0,1-2.32,4.8,43.18,43.18,0,0,1-4,3,6.18,6.18,0,0,0-2.52,3.49,5.6,5.6,0,0,0,.39,3.74,5.24,5.24,0,0,0,2.15,2.26,6,6,0,0,0,2.28.71,6.639,6.639,0,0,0,2.01-.18Z" transform="translate(-423.34 -294.635)" fill="#263238"/>
      <path id="Trazado_118323" data-name="Trazado 118323" d="M451.59,457l-2.5,9.58-25.75-.24s1.89-4.51,16-4.3l1-5Z" transform="translate(-423.34 -294.635)" fill="#b78876"/>
      <path id="Trazado_118324" data-name="Trazado 118324" d="M545.34,313.36c-.25.49-6.79,34.09-6.79,34.09l15.41.72,6-28.89Z" transform="translate(-423.34 -294.635)" fill="#455a64"/>
      <path id="Trazado_118325" data-name="Trazado 118325" d="M538.55,347.45l-1.76-.75,6.67-33.12,2.09-.14Z" transform="translate(-423.34 -294.635)" fill="#263238"/>
      <path id="Trazado_118326" data-name="Trazado 118326" d="M551.53,320.7a.8.8,0,1,0,.89-.69.79.79,0,0,0-.89.69Z" transform="translate(-423.34 -294.635)" fill="#263238"/>
      <path id="Trazado_118327" data-name="Trazado 118327" d="M554.71,344.29l.23-4.4-6.58-2.72,2.57-6.09a5.31,5.31,0,0,1,7.39-2.53L561,330a7.56,7.56,0,0,1,3.75,4.87,98.574,98.574,0,0,1,1.53,10.75" transform="translate(-423.34 -294.635)" fill="#b78876"/>
      <path id="Trazado_118328" data-name="Trazado 118328" d="M572.33,456.28s27.08,7.5,28.17,7.88c1.63.58,1.36,6.55-1.18,6.46-1.2,0-20.8.73-23.28.58s-9.95-3.1-9.95-3.1Z" transform="translate(-423.34 -294.635)" fill="#b89841"/>
      <path id="Trazado_118329" data-name="Trazado 118329" d="M583.61,466.62a25.611,25.611,0,0,1,1.2-2.91,25.943,25.943,0,0,1,1.91-2.49,6,6,0,0,0-3.11,5.4Z" transform="translate(-423.34 -294.635)" fill="#263238"/>
      <path id="Trazado_118330" data-name="Trazado 118330" d="M580.79,465.34c.13,0,.41-1.26,1.13-2.67s1.57-2.41,1.47-2.5a5.11,5.11,0,0,0-1.88,2.29,5.241,5.241,0,0,0-.72,2.88Z" transform="translate(-423.34 -294.635)" fill="#263238"/>
      <path id="Trazado_118331" data-name="Trazado 118331" d="M578.14,464.63a19.539,19.539,0,0,1,.64-2.86,19.159,19.159,0,0,1,1.47-2.54A5.09,5.09,0,0,0,578.14,464.63Z" transform="translate(-423.34 -294.635)" fill="#263238"/>
      <path id="Trazado_118332" data-name="Trazado 118332" d="M578.62,461.13a4.73,4.73,0,0,0,.29-2,9.258,9.258,0,0,0-.27-2.2,9.617,9.617,0,0,0-.4-1.26,1.47,1.47,0,0,0-.44-.66.73.73,0,0,0-.93,0,1.22,1.22,0,0,0-.36.77,4.3,4.3,0,0,0,0,.71,5.638,5.638,0,0,0,.16,1.33,8,8,0,0,0,.84,2.07,5.65,5.65,0,0,0,1.21,1.63c.07,0-.39-.67-.93-1.78a9.37,9.37,0,0,1-.71-2,6.2,6.2,0,0,1-.13-1.24c0-.42,0-.94.25-1.14a.28.28,0,0,1,.36,0,1.24,1.24,0,0,1,.3.48,11.986,11.986,0,0,1,.41,1.19,10.838,10.838,0,0,1,.35,2.12C578.67,460.35,578.55,461.12,578.62,461.13Z" transform="translate(-423.34 -294.635)" fill="#263238"/>
      <path id="Trazado_118333" data-name="Trazado 118333" d="M578.59,460.85a4,4,0,0,0-1.75-.28,7.85,7.85,0,0,0-1.92.24,3.868,3.868,0,0,0-1.11.41,1.14,1.14,0,0,0-.61,1.23,1.35,1.35,0,0,0,1,1,2.47,2.47,0,0,0,1.21,0,4.6,4.6,0,0,0,1.76-.87,4.73,4.73,0,0,0,1.26-1.24,11.444,11.444,0,0,0-1.44,1,4.869,4.869,0,0,1-1.66.72,2.15,2.15,0,0,1-1,0,.91.91,0,0,1-.66-.64.72.72,0,0,1,.41-.76,4.149,4.149,0,0,1,1-.38,9.331,9.331,0,0,1,1.82-.32C577.91,460.82,578.58,460.93,578.59,460.85Z" transform="translate(-423.34 -294.635)" fill="#263238"/>
      <path id="Trazado_118334" data-name="Trazado 118334" d="M587.78,466.91a13.847,13.847,0,0,1,.53-2.44,13.309,13.309,0,0,1,1.33-2.12,3.228,3.228,0,0,0-1.75,1.94A3.16,3.16,0,0,0,587.78,466.91Z" transform="translate(-423.34 -294.635)" fill="#263238"/>
      <path id="Trazado_118335" data-name="Trazado 118335" d="M568.88,468.16a5.711,5.711,0,0,0,1,.49,22.881,22.881,0,0,0,3,.93,42.263,42.263,0,0,0,10.34,1c4.06,0,7.72-.22,10.37-.33l3.14-.17a5.7,5.7,0,0,0,1.14-.12,5.489,5.489,0,0,0-1.15-.05h-3.14l-10.36.2a48.308,48.308,0,0,1-10.27-.84C570.42,468.74,568.91,468.07,568.88,468.16Z" transform="translate(-423.34 -294.635)" fill="#263238"/>
      <path id="Trazado_118336" data-name="Trazado 118336" d="M568.08,468.77a21.209,21.209,0,0,0,2-.91,9.45,9.45,0,0,1,5.12-.86,8.17,8.17,0,0,1,4.43,2.64,16.55,16.55,0,0,0,1.56,1.59,8.649,8.649,0,0,0-1.32-1.81,11,11,0,0,0-1.8-1.68,6.341,6.341,0,0,0-2.8-1.18,8.88,8.88,0,0,0-5.33,1,7.221,7.221,0,0,0-1.86,1.21Z" transform="translate(-423.34 -294.635)" fill="#263238"/>
      <path id="Trazado_118337" data-name="Trazado 118337" d="M543.59,448.81S518,465.59,517,466.28c-1.38,1,.21,6,2.6,5.15,1.13-.41,22.63-6.39,24.94-7.29s8.54-6,8.54-6Z" transform="translate(-423.34 -294.635)" fill="#b89841"/>
      <path id="Trazado_118338" data-name="Trazado 118338" d="M536,462.08a4.9,4.9,0,0,0-1.72-2.74,4.76,4.76,0,0,0-2.88-1.46,25,25,0,0,1,2.58,1.79,28.392,28.392,0,0,1,2.02,2.41Z" transform="translate(-423.34 -294.635)" fill="#263238"/>
      <path id="Trazado_118339" data-name="Trazado 118339" d="M538.28,460a6.75,6.75,0,0,0-4-4.13c-.07.11,1.06.79,2.16,1.93S538.16,460.06,538.28,460Z" transform="translate(-423.34 -294.635)" fill="#263238"/>
      <path id="Trazado_118340" data-name="Trazado 118340" d="M540.59,458.52a5.08,5.08,0,0,0-3.65-4.5,18.371,18.371,0,0,1,2.17,2,19.059,19.059,0,0,1,1.48,2.5Z" transform="translate(-423.34 -294.635)" fill="#263238"/>
      <path id="Trazado_118341" data-name="Trazado 118341" d="M539.07,455.33c.06,0-.29-.72-.58-1.91a10.386,10.386,0,0,1-.3-2.13,10.74,10.74,0,0,1,0-1.26,1.29,1.29,0,0,1,.14-.54.26.26,0,0,1,.35-.08c.3.12.45.61.59,1a6.064,6.064,0,0,1,.25,1.21,8.671,8.671,0,0,1-.07,2.14c-.18,1.21-.42,2-.35,2a5.491,5.491,0,0,0,.67-1.93,8,8,0,0,0,.16-2.22,6.34,6.34,0,0,0-.24-1.32,6.909,6.909,0,0,0-.25-.67,1.23,1.23,0,0,0-.58-.62.73.73,0,0,0-.9.24,1.57,1.57,0,0,0-.21.77,9.682,9.682,0,0,0,0,1.32,9.505,9.505,0,0,0,.41,2.18,4.641,4.641,0,0,0,.91,1.82Z" transform="translate(-423.34 -294.635)" fill="#263238"/>
      <path id="Trazado_118342" data-name="Trazado 118342" d="M539,455.06c0,.07.64-.24,1.67-.49a9.3,9.3,0,0,1,1.84-.25,3.69,3.69,0,0,1,1.05.07.69.69,0,0,1,.61.6.91.91,0,0,1-.43.81,2.15,2.15,0,0,1-1,.32,4.929,4.929,0,0,1-1.81-.18,11,11,0,0,0-1.67-.5,4.631,4.631,0,0,0,1.58.8,4.56,4.56,0,0,0,1.94.29,2.52,2.52,0,0,0,1.16-.36,1.36,1.36,0,0,0,.63-1.22,1.14,1.14,0,0,0-1-1,4.3,4.3,0,0,0-1.17-.06,8,8,0,0,0-1.91.36A4,4,0,0,0,539,455.06Z" transform="translate(-423.34 -294.635)" fill="#263238"/>
      <path id="Trazado_118343" data-name="Trazado 118343" d="M522.9,470.49a1.685,1.685,0,0,0,.63-1,3.8,3.8,0,0,0-.48-2.78,10.533,10.533,0,0,0-.86-1.28,4.62,4.62,0,0,0-.87-.93,1.51,1.51,0,0,0-.82-.35c-.21,0-.32,0-.32.07a2.441,2.441,0,0,1,.93.52,6,6,0,0,1,.74.93c.26.39.55.8.8,1.26a3.94,3.94,0,0,1,.56,2.5,10.188,10.188,0,0,1-.31,1.06Z" transform="translate(-423.34 -294.635)" fill="#263238"/>
      <path id="Trazado_118344" data-name="Trazado 118344" d="M532.1,463.62a3.86,3.86,0,0,0-3.16-3.78,14,14,0,0,1,1.91,1.61,14.81,14.81,0,0,1,1.25,2.17Z" transform="translate(-423.34 -294.635)" fill="#263238"/>
      <path id="Trazado_118345" data-name="Trazado 118345" d="M550.48,459.07a8.75,8.75,0,0,0-1.12.77,32,32,0,0,1-3.16,1.94,40.8,40.8,0,0,1-5,2.23c-1.94.73-4.12,1.41-6.42,2.08-4.61,1.32-8.78,2.54-11.79,3.44l-3.57,1.1a8.161,8.161,0,0,0-1.28.46,8.846,8.846,0,0,0,1.33-.29l3.6-1c3-.82,7.22-2,11.84-3.32,2.3-.67,4.49-1.36,6.44-2.12a38,38,0,0,0,5-2.34,25,25,0,0,0,3.11-2.07,6.473,6.473,0,0,0,1.02-.88Z" transform="translate(-423.34 -294.635)" fill="#263238"/>
      <path id="Trazado_118346" data-name="Trazado 118346" d="M551.43,459.42a7.059,7.059,0,0,0-2.17-.58,8.9,8.9,0,0,0-5.38.66,6.349,6.349,0,0,0-2.31,2,11,11,0,0,0-1.2,2.14,8.249,8.249,0,0,0-.71,2.13,16.632,16.632,0,0,0,1-2,8.11,8.11,0,0,1,3.42-3.86,9.39,9.39,0,0,1,5.14-.74C550.58,459.3,551.42,459.49,551.43,459.42Z" transform="translate(-423.34 -294.635)" fill="#263238"/>
      <path id="Trazado_118347" data-name="Trazado 118347" d="M482.13,348.84l21,2,8.54,2.42a23.24,23.24,0,0,1,9.72,5.57l27.51,26.41,5-41,13.75,1.19-2.3,52.8a15.72,15.72,0,0,1-15,10.95,16.28,16.28,0,0,1-11.07-4.55l-19.59-18.42-.58,26.32,13.59,11-52.41,29.2s-2.84-11.16-1.55-36c.24-4.56-8.12-18.4-8.76-22.47-2.45-15.65-2.07-38.54-2.07-38.54Z" transform="translate(-423.34 -294.635)" fill="#f5ca56"/>
      <path id="Trazado_118348" data-name="Trazado 118348" d="M469.22,355.22s-10.63,3.95-13.2,12.27c-2.28,7.39-9.89,48.91-9.89,48.91l-7.55,44,15.81.6,18.19-74.9Z" transform="translate(-423.34 -294.635)" fill="#f5ca56"/>
      <path id="Trazado_118349" data-name="Trazado 118349" d="M468.51,403.76a3.942,3.942,0,0,0,.32-.89c.18-.58.42-1.43.7-2.48.57-2.11,1.3-5,2-8.27s1.32-6.19,1.71-8.34c.19-1.07.34-1.94.43-2.54a3.717,3.717,0,0,0,.09-.95,4.423,4.423,0,0,0-.27.92c-.15.69-.34,1.52-.57,2.51-.49,2.23-1.13,5.11-1.83,8.3l-1.9,8.29c-.22,1-.4,1.83-.56,2.52a4.214,4.214,0,0,0-.12.93Z" transform="translate(-423.34 -294.635)" fill="#263238"/>
      <path id="Trazado_118350" data-name="Trazado 118350" d="M565.25,349.34a5,5,0,0,0,.41-2.07,5.372,5.372,0,0,0,0-2.12,5,5,0,0,0-.41,2.08A5.31,5.31,0,0,0,565.25,349.34Z" transform="translate(-423.34 -294.635)" fill="#263238"/>
      <path id="Trazado_118351" data-name="Trazado 118351" d="M561.23,349.46a5.431,5.431,0,0,0,.34-2.2,5.85,5.85,0,0,0-.11-2.23,5.46,5.46,0,0,0-.34,2.21A5.779,5.779,0,0,0,561.23,349.46Z" transform="translate(-423.34 -294.635)" fill="#263238"/>
      <path id="Trazado_118352" data-name="Trazado 118352" d="M557.24,349.21a7.349,7.349,0,0,0,.36-2.46,6.7,6.7,0,0,0-.09-2.48,6.94,6.94,0,0,0-.36,2.46A6.7,6.7,0,0,0,557.24,349.21Z" transform="translate(-423.34 -294.635)" fill="#263238"/>
      <path id="Trazado_118353" data-name="Trazado 118353" d="M549.51,391.52a14.812,14.812,0,0,0-.15-3.63,14.483,14.483,0,0,0-.6-3.59,14.815,14.815,0,0,0,.15,3.63,14.06,14.06,0,0,0,.6,3.59Z" transform="translate(-423.34 -294.635)" fill="#263238"/>
      <path id="Trazado_118354" data-name="Trazado 118354" d="M451.79,456.38a5.659,5.659,0,0,0-.61,2.2,5.92,5.92,0,0,0-.17,2.28,5.66,5.66,0,0,0,.61-2.2,5.918,5.918,0,0,0,.17-2.28Z" transform="translate(-423.34 -294.635)" fill="#263238"/>
      <path id="Trazado_118355" data-name="Trazado 118355" d="M446.59,456.37a5.079,5.079,0,0,0-.56,2,4.94,4.94,0,0,0-.12,2.07,4.741,4.741,0,0,0,.57-2,5.08,5.08,0,0,0,.11-2.07Z" transform="translate(-423.34 -294.635)" fill="#263238"/>
      <path id="Trazado_118356" data-name="Trazado 118356" d="M441.66,455.87a7.389,7.389,0,0,0-.52,2.26,7.65,7.65,0,0,0-.25,2.3,5,5,0,0,0,.7-2.22,5.28,5.28,0,0,0,.07-2.34Z" transform="translate(-423.34 -294.635)" fill="#263238"/>
      <path id="Trazado_118357" data-name="Trazado 118357" d="M460.69,360.34c0,.09,1.1,0,2.81.38a13.34,13.34,0,0,1,6,3,13.5,13.5,0,0,1,3.77,5.58c.59,1.65.67,2.75.75,2.74a2.16,2.16,0,0,0,0-.78,11.156,11.156,0,0,0-.44-2.06,12.769,12.769,0,0,0-3.77-5.82,12.93,12.93,0,0,0-6.27-3,11,11,0,0,0-2.1-.15,2.671,2.671,0,0,0-.75.11Z" transform="translate(-423.34 -294.635)" fill="#263238"/>
      <path id="Trazado_118358" data-name="Trazado 118358" d="M517.46,397.43c-.09,0,.41-1.3.91-3.41a29.82,29.82,0,0,0-.89-16.7c-.72-2.05-1.35-3.25-1.27-3.29s.22.27.52.8a20,20,0,0,1,1.09,2.36,26.85,26.85,0,0,1,.9,16.92,17.87,17.87,0,0,1-.84,2.46,3.589,3.589,0,0,1-.42.86Z" transform="translate(-423.34 -294.635)" fill="#263238"/>
      <path id="Trazado_118359" data-name="Trazado 118359" d="M518.8,411.94a3.63,3.63,0,0,1-.91.06,22.353,22.353,0,0,1-2.47-.11,42.33,42.33,0,0,1-15.65-4.48c-.93-.48-1.67-.9-2.16-1.22a3.1,3.1,0,0,1-.74-.53c0-.07,1.17.55,3.06,1.42a51.708,51.708,0,0,0,15.53,4.44,33.184,33.184,0,0,1,3.34.42Z" transform="translate(-423.34 -294.635)" fill="#263238"/>
      <g id="Grupo_55092" data-name="Grupo 55092" transform="translate(72.24 109.985)" opacity="0.2">
        <path id="Trazado_118360" data-name="Trazado 118360" d="M495.6,404.62c1.64,1.48,4.2,1.69,6.4,1.65s4.4-.48,6.61-.44a8.19,8.19,0,0,1,6,2.27,3,3,0,0,1,.86,1.81,1.62,1.62,0,0,1-1,1.61,2.57,2.57,0,0,1-1.26,0c-6.19-1.28-12.84-2.73-17.63-6.85" transform="translate(-495.58 -404.62)"/>
      </g>
      <g id="Grupo_55093" data-name="Grupo 55093" transform="translate(47.08 87.585)" opacity="0.2">
        <path id="Trazado_118361" data-name="Trazado 118361" d="M475.35,406.58c1.63-.47,1.89-2.38,2-4.07a36.86,36.86,0,0,0-3.93-20.29c-.77,4.59-2.05,9.38-3,14.06Z" transform="translate(-470.42 -382.22)"/>
      </g>
      <path id="Trazado_118362" data-name="Trazado 118362" d="M472.5,387.44a4,4,0,0,0-1.34-.6,4.52,4.52,0,0,0-3.69,1.06c-1.34,1-2.08,3-2.49,5.26s-.66,4.88-2.35,7.11a5.51,5.51,0,0,1-3.39,2,27.38,27.38,0,0,1-3.61.26,7.78,7.78,0,0,0-5.35,2.2,8.23,8.23,0,0,0-2.12,3.38c-.28.92-.31,1.46-.37,1.45a1.279,1.279,0,0,1,0-.39,4.871,4.871,0,0,1,.18-1.11,8.15,8.15,0,0,1,4.4-5.26,8.9,8.9,0,0,1,3.23-.75,28.586,28.586,0,0,0,3.54-.28,5,5,0,0,0,3.08-1.86,9.46,9.46,0,0,0,1.56-3.38c.32-1.18.49-2.37.73-3.5.44-2.24,1.24-4.35,2.73-5.45a4.65,4.65,0,0,1,4-1,2.809,2.809,0,0,1,1,.51C472.42,387.33,472.51,387.42,472.5,387.44Z" transform="translate(-423.34 -294.635)" fill="#fafafa"/>
      <path id="Trazado_118363" data-name="Trazado 118363" d="M531.9,368.09a6.742,6.742,0,0,1-1.31,2,9.94,9.94,0,0,1-5.77,3.09,9.44,9.44,0,0,1-4.57-.36,15,15,0,0,1-4.46-2.78,25.092,25.092,0,0,0-4.59-3.33,7.419,7.419,0,0,0-2.82-.78,8.839,8.839,0,0,0-3,.38,20.27,20.27,0,0,0-5.39,2.79,32.935,32.935,0,0,1-5,3,12.73,12.73,0,0,1-5.14,1.1,14.7,14.7,0,0,1-4.52-.75,13.63,13.63,0,0,1-5.54-3.55,11,11,0,0,1-1.1-1.41,2.509,2.509,0,0,1-.31-.54c.05,0,.49.71,1.56,1.81a13.859,13.859,0,0,0,5.5,3.34,13.08,13.08,0,0,0,9.36-.43,35.54,35.54,0,0,0,4.87-3,20.071,20.071,0,0,1,5.52-2.87,8.859,8.859,0,0,1,3.18-.39,7.84,7.84,0,0,1,3,.83,25.552,25.552,0,0,1,4.68,3.42,14.64,14.64,0,0,0,4.3,2.74,9.13,9.13,0,0,0,4.37.41,10,10,0,0,0,5.67-2.87,15.737,15.737,0,0,0,1.51-1.85Z" transform="translate(-423.34 -294.635)" fill="#fafafa"/>
      <path id="Trazado_118364" data-name="Trazado 118364" d="M557.79,407.72a13.824,13.824,0,0,1-.41-1.84A23.54,23.54,0,0,0,556,401a11.159,11.159,0,0,0-1.89-2.92,7.34,7.34,0,0,0-3.27-2.16,13.581,13.581,0,0,0-4.39-.44,18.239,18.239,0,0,1-4.89-.35,10.78,10.78,0,0,1-4.27-2.45,38.478,38.478,0,0,1-3.17-3.24c-1.92-2.11-4-3.81-6.05-4.31a6.09,6.09,0,0,0-4.83.73,5.891,5.891,0,0,0-1.3,1.32,2.523,2.523,0,0,1,.21-.44,4.17,4.17,0,0,1,1-1,6.21,6.21,0,0,1,5-.92c2.22.49,4.35,2.24,6.31,4.34,1,1,2,2.17,3.16,3.18a10.281,10.281,0,0,0,4.07,2.34c3.14.79,6.42-.15,9.29.83a7.8,7.8,0,0,1,3.44,2.33,11.051,11.051,0,0,1,1.9,3.07,20.529,20.529,0,0,1,1.3,5c.09.6.15,1.07.18,1.39a1.52,1.52,0,0,1-.01.42Z" transform="translate(-423.34 -294.635)" fill="#fafafa"/>
      <path id="Trazado_118365" data-name="Trazado 118365" d="M518.77,392.56a1.932,1.932,0,0,1-.51.08,6.531,6.531,0,0,1-1.48-.05,18.659,18.659,0,0,1-5.12-1.85,21.375,21.375,0,0,0-3.45-1.34,9.19,9.19,0,0,0-4.16-.14c-2.93.57-5.78,2.45-8.28,4.82s-4.69,5-7.12,6.83a15.92,15.92,0,0,1-7.36,3.3,15.12,15.12,0,0,1-5.44-.08,11.1,11.1,0,0,1-1.44-.37,2,2,0,0,1-.48-.19c0-.05.7.17,1.95.36a15.91,15.91,0,0,0,12.47-3.4c2.37-1.85,4.52-4.4,7.06-6.83a17.6,17.6,0,0,1,8.55-4.91,9.609,9.609,0,0,1,4.36.19,20.724,20.724,0,0,1,3.5,1.43,20.321,20.321,0,0,0,5,2A19.344,19.344,0,0,0,518.77,392.56Z" transform="translate(-423.34 -294.635)" fill="#fafafa"/>
      <path id="Trazado_118366" data-name="Trazado 118366" d="M509.59,410.18a6.539,6.539,0,0,0-2,.82c-1,.72-1.16,1.74-1.31,1.71s-.11-.28,0-.71a2.87,2.87,0,0,1,1-1.41,2.76,2.76,0,0,1,1.61-.59C509.35,410,509.6,410.11,509.59,410.18Z" transform="translate(-423.34 -294.635)" fill="#fafafa"/>
      <path id="Trazado_118367" data-name="Trazado 118367" d="M518.16,406.1a6.229,6.229,0,0,1-1.28,3,6.32,6.32,0,0,1-2.3,2.35,28.99,28.99,0,0,1,1.87-2.64,31.642,31.642,0,0,1,1.71-2.71Z" transform="translate(-423.34 -294.635)" fill="#fafafa"/>
      <path id="Trazado_118368" data-name="Trazado 118368" d="M483.22,420.23c-.05.14-1.13-.16-2.48-.16a19.838,19.838,0,0,1-2.47.12,3.63,3.63,0,0,1,2.48-.64,3.7,3.7,0,0,1,2.47.68Z" transform="translate(-423.34 -294.635)" fill="#fafafa"/>
      <path id="Trazado_118369" data-name="Trazado 118369" d="M454.52,371.69a3.793,3.793,0,0,0,.65.24,3,3,0,0,0,1.82-.16,5,5,0,0,0,2.1-1.75,25.3,25.3,0,0,1,2.23-2.77,11.841,11.841,0,0,1,5.67-3.11,11.081,11.081,0,0,1,1.95-.25c.47,0,.72,0,.72.07s-1,.1-2.58.54a12.58,12.58,0,0,0-5.39,3.12,26.932,26.932,0,0,0-2.22,2.71,5.3,5.3,0,0,1-2.36,1.79,3,3,0,0,1-2,0C454.66,371.92,454.5,371.7,454.52,371.69Z" transform="translate(-423.34 -294.635)" fill="#fafafa"/>
      <path id="Trazado_118370" data-name="Trazado 118370" d="M508,352a3.888,3.888,0,0,1-1.13,1.31,9.451,9.451,0,0,1-3.72,1.93,9.31,9.31,0,0,1-4.19.14,3.69,3.69,0,0,1-1.63-.59A12.242,12.242,0,0,1,499,355a11.339,11.339,0,0,0,4-.28,11.21,11.21,0,0,0,3.62-1.71A12.256,12.256,0,0,1,508,352Z" transform="translate(-423.34 -294.635)" fill="#fafafa"/>
      <path id="Trazado_118371" data-name="Trazado 118371" d="M463.14,426.52c0,.05-.42,0-1.15.2a7.49,7.49,0,0,0-2.8,1.36,11.54,11.54,0,0,0-3,3.54c-.9,1.53-1.64,3.35-2.59,5.2a13.929,13.929,0,0,1-3.56,4.68,6.58,6.58,0,0,1-4.54,1.54,5,5,0,0,1-3-1.12,3,3,0,0,1-.6-.65c-.11-.17-.16-.26-.14-.27a7.376,7.376,0,0,0,.87.77,5.14,5.14,0,0,0,2.92.91,6.37,6.37,0,0,0,4.23-1.55,14.1,14.1,0,0,0,3.4-4.55c.93-1.82,1.7-3.65,2.64-5.2a11.48,11.48,0,0,1,3.18-3.6,7,7,0,0,1,3-1.26,4.253,4.253,0,0,1,.88,0C463,426.49,463.14,426.5,463.14,426.52Z" transform="translate(-423.34 -294.635)" fill="#fafafa"/>
      <g id="Grupo_55094" data-name="Grupo 55094" transform="translate(123.079 89.835)" opacity="0.3">
        <path id="Trazado_118372" data-name="Trazado 118372" d="M548.47,384.68a9,9,0,0,0-1.8,7.83c.11.45.31.94.75,1.07a1,1,0,0,0,1-.38,2.63,2.63,0,0,0,.42-1,16,16,0,0,0-.14-7.73" transform="translate(-546.419 -384.47)"/>
      </g>
      <path id="Trazado_118373" data-name="Trazado 118373" d="M567.2,361.57a14.559,14.559,0,0,0-2.52,3,23.783,23.783,0,0,0-1.82,3.89c-.57,1.51-1.13,3.23-1.93,5a12.72,12.72,0,0,1-3.11,4.38,8,8,0,0,1-4,1.82,5.46,5.46,0,0,1-2.94-.38,4,4,0,0,1-.69-.41c-.15-.11-.22-.18-.21-.19s.34.18,1,.41a5.619,5.619,0,0,0,2.81.2,7.74,7.74,0,0,0,3.75-1.81,12.631,12.631,0,0,0,3-4.24c.78-1.69,1.35-3.39,2-4.92a21.879,21.879,0,0,1,2-3.91,10.479,10.479,0,0,1,1.93-2.23,3.1,3.1,0,0,1,.73-.61Z" transform="translate(-423.34 -294.635)" fill="#fafafa"/>
      <path id="Trazado_118374" data-name="Trazado 118374" d="M568,350.46a6.3,6.3,0,0,1-1.76,1.54,14.5,14.5,0,0,1-10.83,2.14,6.369,6.369,0,0,1-2.21-.75c0-.09.87.18,2.27.38a16.22,16.22,0,0,0,10.58-2.09C567.3,351,568,350.39,568,350.46Z" transform="translate(-423.34 -294.635)" fill="#fafafa"/>
      <path id="Trazado_118375" data-name="Trazado 118375" d="M575.41,456S512.57,414.75,510,413.89s-8.79-4.93-15-3.22-11.79,7.3-14.58,15.44-3,26.38-3,26.38,4.93,14.37,14.58,17.37a24.243,24.243,0,0,0,2.51.63,29.68,29.68,0,0,0,30.35-13.11l1.41-2.14s41.11,15.1,41.75,14.89Z" transform="translate(-423.34 -294.635)" fill="#263238"/>
      <path id="Trazado_118376" data-name="Trazado 118376" d="M596.84,407.89a12.26,12.26,0,0,1,7.72,11.36C604.62,435.76,571.2,454,571.2,454l-44.48-29.48V421.4S584,400.81,596.84,407.89Z" transform="translate(-423.34 -294.635)" fill="#263238"/>
      <path id="Trazado_118377" data-name="Trazado 118377" d="M497.66,444.62l.35.16,1,.41,4,1.53,14.81,5.58c6.29,2.34,13.82,5.13,22.27,8.21s17.82,6.45,27.83,9.83l.18.06.09-.17,4.91-9.37,2.5-4.78.1-.19-.18-.11L527.6,425.35l-14.4-9.08-3.91-2.44-1-.63-.35-.2.33.24,1,.66,3.87,2.51,14.32,9.2,47.86,30.55-.08-.29-2.5,4.78L567.8,470l.27-.11c-10-3.38-19.37-6.74-27.83-9.79L517.93,452l-14.85-5.44-4-1.46-1-.37Z" transform="translate(-423.34 -294.635)" fill="#455a64"/>
      <path id="Trazado_118378" data-name="Trazado 118378" d="M549.25,439.38a9.228,9.228,0,0,0,1.16-.79c.73-.52,1.77-1.31,3-2.29,2.55-2,6-4.76,9.74-8s7-6.21,9.34-8.43c1.17-1.11,2.1-2,2.73-2.66a7.291,7.291,0,0,0,1-1,9,9,0,0,0-1.07.9l-2.83,2.55c-2.38,2.16-5.69,5.12-9.41,8.31s-7.15,6-9.65,8.06l-3,2.4a8.576,8.576,0,0,0-1.01.95Z" transform="translate(-423.34 -294.635)" fill="#455a64"/>
      <path id="Trazado_118379" data-name="Trazado 118379" d="M584.29,414.06a8.74,8.74,0,0,0-4.29.39,8.63,8.63,0,0,0-3.81,2c.07.12,1.69-.92,3.94-1.57S584.29,414.2,584.29,414.06Z" transform="translate(-423.34 -294.635)" fill="#455a64"/>
      <path id="Trazado_118380" data-name="Trazado 118380" d="M580.45,411.46a6.78,6.78,0,0,0-4,5,30.787,30.787,0,0,1,1.74-2.72C579.31,412.37,580.53,411.57,580.45,411.46Z" transform="translate(-423.34 -294.635)" fill="#455a64"/>
      <path id="Trazado_118381" data-name="Trazado 118381" d="M599.29,463.74c0-.05-.53-.16-1.15.35a4.14,4.14,0,0,0-1.28,2.58,5.07,5.07,0,0,0,.4,2.85,2.64,2.64,0,0,0,.7,1c.04,0-.18-.42-.4-1.08a5.669,5.669,0,0,1-.25-2.67,4.46,4.46,0,0,1,1.05-2.41A2.919,2.919,0,0,1,599.29,463.74Z" transform="translate(-423.34 -294.635)" fill="#263238"/>
      <path id="Trazado_118382" data-name="Trazado 118382" d="M470.51,316.58a6.32,6.32,0,0,0-9.2.4,10.76,10.76,0,0,0-2.12,5.58,26.879,26.879,0,0,1-1.17,5.92,6.07,6.07,0,0,1-4.2,4c-1.5.28-3.28-.18-4.43.82a2.88,2.88,0,0,0-.26,3.58,6.68,6.68,0,0,0,3.08,2.31c.47.21,1,.51,1,1,0,.67-.86.91-1.48,1.17-1.86.79-2.4,3.44-1.36,5.18a6,6,0,0,0,5.19,2.59,17.53,17.53,0,0,0,5.88-1.35,2.28,2.28,0,0,0-.06,2.9,3.14,3.14,0,0,0,2.84,1.06,5.12,5.12,0,0,0,2.76-1.43,9.93,9.93,0,0,0,2.71-5.45,32.579,32.579,0,0,0,.36-6.17,165.5,165.5,0,0,1,1.57-22" transform="translate(-423.34 -294.635)" fill="#263238"/>
      <path id="Trazado_118383" data-name="Trazado 118383" d="M491.75,302.38a15.21,15.21,0,0,1,14.5,15.18c0,6.29-.09,13.13-.49,17.19-.93,9.44-8,11.05-8,11.05s.22,5.87.54,11.43c.3,5.3-4,10-9.72,10.42h0c-5.61.45-10.42-3.39-10.8-8.64l-1.9-40.73a15.21,15.21,0,0,1,15.89-15.9Z" transform="translate(-423.34 -294.635)" fill="#b78876"/>
      <path id="Trazado_118384" data-name="Trazado 118384" d="M504.1,321.68A1.2,1.2,0,0,1,503,323a1.14,1.14,0,0,1-1.3-1,1.2,1.2,0,0,1,1.09-1.28,1.14,1.14,0,0,1,1.31.96Z" transform="translate(-423.34 -294.635)" fill="#263238"/>
      <path id="Trazado_118385" data-name="Trazado 118385" d="M504.07,319.82c-.14.17-1.09-.45-2.38-.37s-2.19.78-2.34.63.06-.35.45-.68a3.39,3.39,0,0,1,1.87-.7,3.3,3.3,0,0,1,1.91.49C504,319.48,504.14,319.75,504.07,319.82Z" transform="translate(-423.34 -294.635)" fill="#263238"/>
      <path id="Trazado_118386" data-name="Trazado 118386" d="M490.66,322.39a1.21,1.21,0,0,1-1.08,1.28,1.15,1.15,0,0,1-1.3-1,1.2,1.2,0,0,1,1.08-1.28,1.15,1.15,0,0,1,1.3,1Z" transform="translate(-423.34 -294.635)" fill="#263238"/>
      <path id="Trazado_118387" data-name="Trazado 118387" d="M490.63,321.09c-.14.17-1.08-.45-2.37-.37s-2.2.78-2.35.63.06-.36.46-.68a3.25,3.25,0,0,1,1.86-.7,3.2,3.2,0,0,1,1.91.49C490.55,320.74,490.7,321,490.63,321.09Z" transform="translate(-423.34 -294.635)" fill="#263238"/>
      <path id="Trazado_118388" data-name="Trazado 118388" d="M495.89,330.39a8.241,8.241,0,0,1,2.07-.51c.33-.05.63-.13.68-.36a1.749,1.749,0,0,0-.28-1l-1.12-2.45a42.916,42.916,0,0,1-2.58-6.43,44.262,44.262,0,0,1,3.09,6.21c.38.86.74,1.68,1.08,2.47a1.89,1.89,0,0,1,.25,1.28.86.86,0,0,1-.52.52,2.541,2.541,0,0,1-.55.11,9.127,9.127,0,0,1-2.12.16Z" transform="translate(-423.34 -294.635)" fill="#263238"/>
      <path id="Trazado_118389" data-name="Trazado 118389" d="M497.77,345.81A25.61,25.61,0,0,1,485,343s3.49,6.72,12.89,5.5Z" transform="translate(-423.34 -294.635)" fill="#995037"/>
      <path id="Trazado_118390" data-name="Trazado 118390" d="M486.38,317.5c.15.23,1.09-.16,2.26-.42s2.19-.32,2.23-.59-1.06-.66-2.44-.35S486.22,317.3,486.38,317.5Z" transform="translate(-423.34 -294.635)" fill="#263238"/>
      <path id="Trazado_118391" data-name="Trazado 118391" d="M499.16,315.18c.06.26,1.12.23,2.39.25s2.33.07,2.4-.19-1-.77-2.39-.78S499.09,314.93,499.16,315.18Z" transform="translate(-423.34 -294.635)" fill="#263238"/>
      <path id="Trazado_118392" data-name="Trazado 118392" d="M478.26,354.12c-.09-1.94,2.08-10.36,2.95-15.53s-2.52-6-3.06-9.06a10.52,10.52,0,0,1,1-5.95c4.94,1.77,6.89-1.75,9.59-3.83,2.86-2.22,3.49-4.94,4.66-8.37s2.54-5.56,6.15-5.9a10.72,10.72,0,0,1,4.8,5.51c1.1,3.21,2,15.73,2,15.73.5-6,5.37-8.52,4.05-17.36-.57-3.81-3.73-9-8.61-9.78-1.42-.23-4.1-.4-4.1-.4-2.91-2.62-4.33-2.54-7.12-3.78-6-2.67-13.26,2.1-17.25,7.33-3.08,4-4.57,9.47-5.41,14.59a42.421,42.421,0,0,0-.23,10.74c.2,2.13-.06,4.83-2.16,6.47-3,2.33-3.78,6.77-1.71,12.69s-5.56,16-5.56,16a47,47,0,0,1,6.8-4.61C468.12,357,478.26,354.12,478.26,354.12Z" transform="translate(-423.34 -294.635)" fill="#263238"/>
      <path id="Trazado_118393" data-name="Trazado 118393" d="M494.33,333.47a1.94,1.94,0,0,0-1.78-.59,1.81,1.81,0,0,0-1.17.75,1.13,1.13,0,0,0,0,1.28,1.31,1.31,0,0,0,1.43.25,4.26,4.26,0,0,0,1.31-.92,1.131,1.131,0,0,0,.28-.34.36.36,0,0,0,0-.4" transform="translate(-423.34 -294.635)" fill="#995037"/>
      <path id="Trazado_118394" data-name="Trazado 118394" d="M491.5,331.83c.17,0,.26,1.14,1.32,1.89s2.28.53,2.3.69-.26.25-.78.3a2.88,2.88,0,0,1-1.92-.51,2.55,2.55,0,0,1-1-1.59C491.31,332.13,491.42,331.83,491.5,331.83Z" transform="translate(-423.34 -294.635)" fill="#263238"/>
      <path id="Trazado_118395" data-name="Trazado 118395" d="M450.71,329.19a9.472,9.472,0,0,0,.1,1.3,4.671,4.671,0,0,0,.49,1.43,3.29,3.29,0,0,0,1.4,1.36,2.74,2.74,0,0,0,2.3.11,2.92,2.92,0,0,0,1.54-2.12,11.57,11.57,0,0,0,.16-3.09c0-1.08-.1-2.21-.1-3.37a13.479,13.479,0,0,1,1.26-6.41,6.38,6.38,0,0,1,4-3.44,5.09,5.09,0,0,1,3.56.28,3.18,3.18,0,0,1,1,.8,8.38,8.38,0,0,0-1.1-.69,5.1,5.1,0,0,0-3.46-.17,6.2,6.2,0,0,0-3.79,3.36,13.41,13.41,0,0,0-1.2,6.26c0,1.16.06,2.28.1,3.37a11.849,11.849,0,0,1-.19,3.17,3.2,3.2,0,0,1-1.72,2.29,3,3,0,0,1-2.5-.15,3.43,3.43,0,0,1-1.45-1.48,4.46,4.46,0,0,1-.46-1.49A4,4,0,0,1,450.71,329.19Z" transform="translate(-423.34 -294.635)" fill="#263238"/>
      <path id="Trazado_118396" data-name="Trazado 118396" d="M464.5,349.47a2.45,2.45,0,0,1-.5-.47,3.94,3.94,0,0,1-.73-1.85,5.43,5.43,0,0,1,.54-3.1,11.9,11.9,0,0,1,2.6-3.27,22.068,22.068,0,0,0,3.4-3.68,8.64,8.64,0,0,0,1.19-5.5,57.852,57.852,0,0,1-.48-6.39,8.41,8.41,0,0,1,.78-3.34,6,6,0,0,1,2.44-2.54c2.1-1.19,4.45-1.52,6.37-2.58a10.38,10.38,0,0,0,4.12-4.65c.92-1.81,1.58-3.65,2.43-5.26a11.36,11.36,0,0,1,3.15-4,6.15,6.15,0,0,1,3.93-1.34,4.89,4.89,0,0,1,2.91,1.17,3.65,3.65,0,0,1,1.12,1.64,1.839,1.839,0,0,1,.12.5v.18a1.729,1.729,0,0,0-.2-.66,3.65,3.65,0,0,0-1.14-1.57,4.84,4.84,0,0,0-2.84-1.09,6,6,0,0,0-3.78,1.35,11.06,11.06,0,0,0-3.06,3.9c-.83,1.6-1.48,3.43-2.41,5.27a10.64,10.64,0,0,1-4.23,4.79c-2,1.1-4.33,1.42-6.35,2.58a5.61,5.61,0,0,0-2.32,2.41,8.34,8.34,0,0,0-.76,3.21,58.861,58.861,0,0,0,.47,6.36,8.91,8.91,0,0,1-1.22,5.64,22.21,22.21,0,0,1-3.47,3.7,11.879,11.879,0,0,0-2.59,3.19,5.41,5.41,0,0,0-.58,3,3.87,3.87,0,0,0,1.09,2.4Z" transform="translate(-423.34 -294.635)" fill="#455a64"/>
      <path id="Trazado_118397" data-name="Trazado 118397" d="M467,321.09a4.8,4.8,0,0,1,1.19-5.68,21.792,21.792,0,0,0-1,2.75,20,20,0,0,0-.19,2.93Z" transform="translate(-423.34 -294.635)" fill="#fafafa"/>
      <path id="Trazado_118398" data-name="Trazado 118398" d="M470.25,349.94a22.31,22.31,0,0,0,2.92,14.46,11.36,11.36,0,0,0,3.57,3.94,5.9,5.9,0,0,0,5.13.73,4,4,0,0,0,2.65-4.19c-.4-2.5-3.48-4.07-3.5-6.61,1.12.68,2.64,1.33,3.62.46a2.22,2.22,0,0,0,.37-2.46,9.529,9.529,0,0,0-1.52-2.17,13.6,13.6,0,0,1-2.72-10.35c.15-1,.42-4.14.44-5.16s-.28,0-1-.67a3.17,3.17,0,0,0-2.86-.53,6.08,6.08,0,0,0-2.53,1.59,11.71,11.71,0,0,0-3.48,8.88" transform="translate(-423.34 -294.635)" fill="#263238"/>
    </g>
    <g id="freepik--Handbag--inject-8" transform="translate(583.312 195.846)">
      <rect id="Rectángulo_29548" data-name="Rectángulo 29548" width="29.74" height="44.51" rx="3.58" transform="matrix(0.377, -0.926, 0.926, 0.377, 5.15, 34.872)" fill="#26aab7"/>
      <g id="Grupo_55111" data-name="Grupo 55111" transform="translate(5.15 7.327)" opacity="0.4">
        <rect id="Rectángulo_29549" data-name="Rectángulo 29549" width="29.74" height="44.51" rx="3.58" transform="matrix(0.377, -0.926, 0.926, 0.377, 0, 27.545)"/>
      </g>
      <path id="Trazado_118531" data-name="Trazado 118531" d="M543.3,240a2.276,2.276,0,0,1,.21-.53c.19-.39.42-.87.7-1.47a35.14,35.14,0,0,0,2.2-5.52,13.43,13.43,0,0,0-.18-8.57,8.75,8.75,0,0,0-3.14-3.93,24.471,24.471,0,0,0-5-2.52c-3.51-1.42-7.27-2.14-10.43-1.15a9.59,9.59,0,0,0-3.93,2.35,14,14,0,0,0-2.45,3.24,29.468,29.468,0,0,0-2.24,5.5l-.49,1.55a3.339,3.339,0,0,1-.2.53,1.829,1.829,0,0,1,.1-.56c.08-.36.21-.9.39-1.58a27.3,27.3,0,0,1,2.11-5.62,14.1,14.1,0,0,1,2.48-3.36,9.76,9.76,0,0,1,4.09-2.51,12.14,12.14,0,0,1,5.29-.37,23.061,23.061,0,0,1,5.48,1.5,24.44,24.44,0,0,1,5,2.59,9.119,9.119,0,0,1,3.29,4.16,13.55,13.55,0,0,1,.09,8.85,31.143,31.143,0,0,1-2.37,5.51c-.33.63-.6,1.11-.78,1.43A3,3,0,0,1,543.3,240Z" transform="translate(-499.011 -215.343)" fill="#263238"/>
      <rect id="Rectángulo_29550" data-name="Rectángulo 29550" width="29.74" height="44.51" rx="3.58" transform="matrix(0.377, -0.926, 0.926, 0.377, 0, 32.593)" fill="#26aab7"/>
      <g id="Grupo_55112" data-name="Grupo 55112" transform="translate(6.069 17.657)" opacity="0.7">
        <path id="Trazado_118532" data-name="Trazado 118532" d="M505.08,233a74,74,0,0,0,8.51,4.76c3,1.24.2,2,5.16,1.46s5.4-.56,6.51.34,1.61,2.2,2.46,2.66a25.573,25.573,0,0,0,2.38,1s3.62,1.51,4.45,1.74c5.83,1.62,7.16.22,8.82,2.67s2.75,2.58,2.75,2.58l1.13-2.78L542,245.3s-2.42-2-3.13-2.46-1-1.45-2.28-.92a7.74,7.74,0,0,1-3.15.49c-.74,0-3.36-.45-3.36-.45l-2.28-.93-.51-2-2.08-1.44-1.12-.16-2.81-.7-3.91-.56-4-1-2.28-.93-3.45-.22Z" transform="translate(-505.08 -233)" fill="#fff"/>
      </g>
      <g id="Grupo_55113" data-name="Grupo 55113" transform="translate(5.249 22.917)" opacity="0.7">
        <path id="Trazado_118533" data-name="Trazado 118533" d="M504.26,238.26l5.95,4.63,2.95,2.54s4,2.2,5.32,2.16a11.379,11.379,0,0,1,3.5.84l2,1.66,2.78,1.13,3.09.4,2.77.08,2.41,1,3.17,1.29,2.91,1.19,1.77.72.45,1.21,1-2.51-8.24-5.6-6.21-.72-5.13-2.08-2.34-2.76-4.15-.33-3.88-1-4.21-2-4.43-1.8Z" transform="translate(-504.26 -238.26)" fill="#fff"/>
      </g>
      <g id="Grupo_55114" data-name="Grupo 55114" transform="translate(2.779 24.607)" opacity="0.7">
        <path id="Trazado_118534" data-name="Trazado 118534" d="M501.79,241.06l2.67,6.88,2.27,3.13,7.22,2.94-4.48-7.13-3.49-2.31-2.85-3.52-.89-1.1Z" transform="translate(-501.79 -239.95)" fill="#fff"/>
      </g>
      <g id="Grupo_55115" data-name="Grupo 55115" transform="translate(14.009 32.237)" opacity="0.7">
        <path id="Trazado_118535" data-name="Trazado 118535" d="M513.02,247.58l4.83,4.48.79,3.86,4.69,1.9,5.44,2.22,3.59-1.56,4.48-.47,1.9.04-3.67-1.49-4.53.22-3.5-.47-3.61-3.09-4.06-1.65-1.15-1.87-1.95-1.39Z" transform="translate(-513.02 -247.58)" fill="#fff"/>
      </g>
      <g id="Grupo_55116" data-name="Grupo 55116" transform="translate(7.59 12.057)" opacity="0.7">
        <path id="Trazado_118536" data-name="Trazado 118536" d="M508.41,228.58l6.9,1.19L521,228.4l4-1,4.33,2.8,5,2.34,6.22,1.2,4,.43,3.09,2.59,1.42,4.86.08,1.24-.56,1.38-3.47-5.26a34.109,34.109,0,0,0-2.83-2.48c-.38-.16-2.13-1.31-2.91-1.19a14.91,14.91,0,0,1-5-.72c-1.82-.59-5.06-1.46-5.06-1.46l-3-1.84-1.77-.72h-4.29l-2.45.92-2.22,1.11-3.68-1.49-5.3-1.65.79-1.92Z" transform="translate(-506.6 -227.4)" fill="#fff"/>
      </g>
      <g id="Grupo_55117" data-name="Grupo 55117" transform="translate(8.679 7.957)" opacity="0.7">
        <path id="Trazado_118537" data-name="Trazado 118537" d="M516.22,223.3l-7.93,1.8-.6,1.46,4.56.04,4.29-.37,2.82-1.65Z" transform="translate(-507.69 -223.3)" fill="#fff"/>
      </g>
      <path id="Trazado_118538" data-name="Trazado 118538" d="M536.91,263.35a4.45,4.45,0,0,0,1.41.21,3.51,3.51,0,0,0,3.15-2.18l5.67-14.16q.92-2.25,1.89-4.69c.32-.81.7-1.66,1-2.48a3.37,3.37,0,0,0-.29-2.54,3.6,3.6,0,0,0-2.1-1.66l-2.76-1.12-5.77-2.33L513.43,222a3.34,3.34,0,0,0-3.23.41,3.27,3.27,0,0,0-1,1.29l-.69,1.65-2.66,6.55q-2.64,6.44-5.05,12.37a4.39,4.39,0,0,0-.43,1.44,3.38,3.38,0,0,0,2.16,3.42l5.44,2.22,9.74,4,14.1,5.83,3.82,1.61,1,.43a2.291,2.291,0,0,1,.33.16,1.73,1.73,0,0,1-.35-.11l-1-.38-3.86-1.52-14.16-5.67-9.77-3.95-5.44-2.2a3.82,3.82,0,0,1-2.23-2.24,3.781,3.781,0,0,1-.23-1.64,4.89,4.89,0,0,1,.45-1.58l5-12.39c.88-2.14,1.76-4.33,2.66-6.54.23-.56.44-1.11.69-1.68A3.76,3.76,0,0,1,509.9,222a3.86,3.86,0,0,1,3.73-.47L539.28,232l5.75,2.36,2.76,1.13a4,4,0,0,1,2.31,1.86,3.79,3.79,0,0,1,.31,2.87c-.32.9-.68,1.69-1,2.51l-1.92,4.68c-2.46,5.93-4.45,10.74-5.83,14.09a3.67,3.67,0,0,1-1.63,1.78,3.561,3.561,0,0,1-1.71.44A2.76,2.76,0,0,1,536.91,263.35Z" transform="translate(-499.011 -215.343)" fill="#263238"/>
    </g>
    <g id="freepik--speech-bubble--inject-8" transform="translate(684.612 226.028)">
      <path id="Trazado_118539" data-name="Trazado 118539" d="M657.26,295.36v-.65l.21-1.9c0-.42.12-.89.13-1.41s0-1.09,0-1.7.05-1.28,0-2-.13-1.46-.19-2.25a36.509,36.509,0,0,0-3-11.2,36.059,36.059,0,0,0-9-12.31l-1.63-1.42c-.58-.44-1.19-.86-1.8-1.3a35.6,35.6,0,0,0-3.88-2.39,36.23,36.23,0,0,0-9.09-3.29,37.3,37.3,0,0,0-5-.79c-.86-.09-1.73,0-2.61-.08h-1.32c-.45,0-.89.07-1.33.1a34.44,34.44,0,0,0-10.69,2.36,36.43,36.43,0,0,0-17.88,14.77A37.08,37.08,0,0,0,585,294.17q.12.82.27,1.65v.11l-.06.09L573.5,312.38l-.25-.4,17.38-2.69h.16l.08.13a36.27,36.27,0,0,0,21.37,15.05,28.482,28.482,0,0,0,4,.74l2,.25c.66.08,1.33.05,2,.07a36.251,36.251,0,0,0,14.44-2.57,37.34,37.34,0,0,0,10.75-6.62l2.05-1.92,1.75-2a19.477,19.477,0,0,0,1.53-2,19.837,19.837,0,0,0,1.34-1.93,38.167,38.167,0,0,0,3.38-6.9l.9-2.63c.19-.78.34-1.44.47-2s.22-.92.29-1.21a3.1,3.1,0,0,1,.12-.41,1.871,1.871,0,0,1-.07.42c-.07.27-.15.69-.26,1.22s-.26,1.21-.43,2-.54,1.66-.86,2.66a37.37,37.37,0,0,1-3.34,7c-.37.67-.87,1.27-1.33,1.95a18.639,18.639,0,0,1-1.53,2l-1.75,2-2.06,1.95a37.481,37.481,0,0,1-10.81,6.73,36.58,36.58,0,0,1-14.59,2.65,19.189,19.189,0,0,1-2-.07l-2-.24a29.161,29.161,0,0,1-4.08-.74,36.71,36.71,0,0,1-21.67-15.21l.25.11-17.38,2.7-.61.1.36-.5,11.77-16.36-.05.2q-.15-.84-.27-1.68a37.49,37.49,0,0,1,5.22-24.63,37,37,0,0,1,18.14-15,35.19,35.19,0,0,1,10.84-2.37c.45,0,.9-.08,1.34-.09h1.34a23.3,23.3,0,0,1,2.65.1,38.447,38.447,0,0,1,5.1.81,36,36,0,0,1,9.17,3.36,34,34,0,0,1,3.92,2.43c.61.44,1.23.86,1.81,1.31l1.65,1.44a36.3,36.3,0,0,1,12,23.77c.06.8.11,1.55.17,2.27s0,1.37,0,2,0,1.19-.05,1.71-.11,1-.16,1.41c-.11.82-.2,1.45-.26,1.9A3.016,3.016,0,0,1,657.26,295.36Z" transform="translate(-572.74 -252.14)" fill="#263238"/>
      <path id="Trazado_118540" data-name="Trazado 118540" d="M633.06,275.07l4.39,33.25H604.93l4.74-33.25Z" transform="translate(-572.74 -252.14)" fill="#455a64"/>
      <path id="Trazado_118541" data-name="Trazado 118541" d="M612.31,279.89A14.935,14.935,0,0,0,614,283a8.55,8.55,0,0,0,2.83,2.5,9.25,9.25,0,0,0,4.48,1.09,9.56,9.56,0,0,0,4.5-1,7.68,7.68,0,0,0,2.79-2.52,14,14,0,0,0,1.5-3.22,2.54,2.54,0,0,1-.13,1,9,9,0,0,1-1.06,2.45,7.84,7.84,0,0,1-2.87,2.74,9.71,9.71,0,0,1-4.73,1.09,9.49,9.49,0,0,1-4.71-1.19,8.59,8.59,0,0,1-2.9-2.71,9.129,9.129,0,0,1-1.17-2.39,2.47,2.47,0,0,1-.22-.95Z" transform="translate(-572.74 -252.14)" fill="#fff"/>
    </g>
  </g>
</svg>
