<svg xmlns="http://www.w3.org/2000/svg" width="352" height="252.638" viewBox="0 0 352 252.638">
  <g id="Marketing-rafiki" transform="translate(0 -55)">
    <g id="freepik--background-complete--inject-398" transform="translate(0 55)">
      <rect id="Rectángulo_30102" data-name="Rectángulo 30102" width="23.316" height="0.176" transform="translate(293.413 241.817)" fill="#ebebeb"/>
      <rect id="Rectángulo_30103" data-name="Rectángulo 30103" width="6.118" height="0.176" transform="translate(227.061 243.732)" fill="#ebebeb"/>
      <rect id="Rectángulo_30104" data-name="Rectángulo 30104" width="13.51" height="0.176" transform="translate(279.199 235.284)" fill="#ebebeb"/>
      <rect id="Rectángulo_30105" data-name="Rectángulo 30105" width="30.406" height="0.176" transform="translate(36.932 236.467)" fill="#ebebeb"/>
      <rect id="Rectángulo_30106" data-name="Rectángulo 30106" width="4.456" height="0.176" transform="translate(73.61 236.467)" fill="#ebebeb"/>
      <rect id="Rectángulo_30107" data-name="Rectángulo 30107" width="65.951" height="0.176" transform="translate(92.555 239.437)" fill="#ebebeb"/>
      <path id="Trazado_123776" data-name="Trazado 123776" d="M178.158,254.091H42.223a4.02,4.02,0,0,1-4.013-4.02V58.985A4.02,4.02,0,0,1,42.223,55H178.158a4.02,4.02,0,0,1,4.02,4.02V250.071A4.02,4.02,0,0,1,178.158,254.091ZM42.223,55.141a3.844,3.844,0,0,0-3.837,3.844V250.071a3.844,3.844,0,0,0,3.837,3.844H178.158A3.851,3.851,0,0,0,182,250.071V58.985a3.851,3.851,0,0,0-3.844-3.844Z" transform="translate(-11.31 -55)" fill="#ebebeb"/>
      <path id="Trazado_123777" data-name="Trazado 123777" d="M394.462,254.091H258.52a4.027,4.027,0,0,1-4.02-4.02V58.985A4.027,4.027,0,0,1,258.52,55H394.462a4.02,4.02,0,0,1,4.006,3.985V250.071A4.02,4.02,0,0,1,394.462,254.091ZM258.52,55.141a3.851,3.851,0,0,0-3.844,3.844V250.071a3.851,3.851,0,0,0,3.844,3.844H394.462a3.851,3.851,0,0,0,3.844-3.844V58.985a3.851,3.851,0,0,0-3.844-3.844Z" transform="translate(-75.332 -55)" fill="#ebebeb"/>
      <rect id="Rectángulo_30108" data-name="Rectángulo 30108" width="352" height="0.176" transform="translate(0 230.49)" fill="#ebebeb"/>
      <path id="Trazado_123778" data-name="Trazado 123778" d="M405.958,267.625l3.076,2.253a.183.183,0,0,0,.077.049l2.992-2.506c9.3-8.075,19.86-16.98,11.56-24.246-5.766-5.048-12.454-.345-15.826,2.71-3.569-2.816-11.081-10.856-17.4-1.1C385.162,252.918,396.151,260.155,405.958,267.625Z" transform="translate(-115.164 -109.788)" fill="#ebebeb"/>
      <path id="Trazado_123779" data-name="Trazado 123779" d="M437.19,248.9a.929.929,0,1,0,.1,0Z" transform="translate(-129.148 -112.394)" fill="#fff" opacity="0.5"/>
      <path id="Trazado_123780" data-name="Trazado 123780" d="M432.37,261.127c2.57-1.668,0-7.5,3.21-8C437.953,254.1,435.545,259.051,432.37,261.127Z" transform="translate(-127.982 -113.646)" fill="#fff" opacity="0.5"/>
      <rect id="Rectángulo_30109" data-name="Rectángulo 30109" width="33.7" height="16.502" rx="8.251" transform="translate(49.763 163.165) rotate(-22.78)" fill="#ebebeb"/>
      <path id="Trazado_123781" data-name="Trazado 123781" d="M85.048,290.916l-1.281.542-.317-.753,3.52-1.464.317.753-1.281.535,1.352,3.252-.929.387Z" transform="translate(-24.701 -124.335)" fill="#fff"/>
      <path id="Trazado_123782" data-name="Trazado 123782" d="M94.09,287.45l.176,3.52-.859.359-1.492-1.619L92,291.92l-.859.359-2.4-2.612.845-.352,1.6,1.781-.148-2.373.753-.317,1.605,1.774-.12-2.4Z" transform="translate(-26.267 -123.805)" fill="#fff"/>
      <path id="Trazado_123783" data-name="Trazado 123783" d="M100.677,287.439l-2.323.979a.894.894,0,0,0,1.14.246,1.126,1.126,0,0,0,.648-.62l.7.317a1.957,1.957,0,0,1-3.485.183,1.7,1.7,0,0,1,.979-2.274,1.647,1.647,0,0,1,2.267.922A1.45,1.45,0,0,1,100.677,287.439Zm-2.556.465,1.514-.641a.831.831,0,0,0-1.514.641Z" transform="translate(-28.778 -123.407)" fill="#fff"/>
      <path id="Trazado_123784" data-name="Trazado 123784" d="M105.821,285.3l-2.3.979a.894.894,0,0,0,1.14.246,1.105,1.105,0,0,0,.648-.62l.7.31a1.943,1.943,0,0,1-3.478.183,1.69,1.69,0,0,1,.979-2.267,1.647,1.647,0,0,1,2.267.922A.448.448,0,0,0,105.821,285.3Zm-2.556.458,1.514-.634a.832.832,0,0,0-1.514.634Z" transform="translate(-30.31 -122.774)" fill="#fff"/>
      <path id="Trazado_123785" data-name="Trazado 123785" d="M110.135,284.577a1.443,1.443,0,0,1-.648.5,1.105,1.105,0,0,1-1.612-.627l-.528-1.26-.479.2-.289-.7.479-.2-.317-.746.894-.373.317.746.76-.324.289.7-.76.324.521,1.246a.387.387,0,0,0,.556.246.7.7,0,0,0,.31-.26Z" transform="translate(-31.548 -122.003)" fill="#fff"/>
      <rect id="Rectángulo_30110" data-name="Rectángulo 30110" width="52.54" height="15.551" rx="3.91" transform="translate(33.003 137.692) rotate(7.22)" fill="#e6e6e6"/>
      <path id="Trazado_123786" data-name="Trazado 123786" d="M66.786,261.234l-.169,1.324,2.323.3-.12.929-2.316-.3-.232,1.83-1.162-.148.634-5.02,3.795.486-.12.929Z" transform="translate(-19.273 -115.724)" fill="#fff"/>
      <path id="Trazado_123787" data-name="Trazado 123787" d="M71.283,264.458a2.112,2.112,0,1,1,1.908,2.26,2.006,2.006,0,0,1-1.908-2.26Zm3.1.394a.979.979,0,0,0-.845-1.19,1.077,1.077,0,0,0-.268,2.112.979.979,0,0,0,1.112-.922Z" transform="translate(-21.095 -116.421)" fill="#fff"/>
      <path id="Trazado_123788" data-name="Trazado 123788" d="M78.7,261.36l1.112.141-.7,5.322-1.119-.141Z" transform="translate(-23.085 -116.083)" fill="#fff"/>
      <path id="Trazado_123789" data-name="Trazado 123789" d="M81.7,261.75l1.119.141-.7,5.322L81,267.072Z" transform="translate(-23.976 -116.198)" fill="#fff"/>
      <path id="Trazado_123790" data-name="Trazado 123790" d="M84.073,266.08a2.112,2.112,0,1,1,1.873,2.26,2,2,0,0,1-1.873-2.26Zm3.1.394a1,1,0,1,0-1.119.943.979.979,0,0,0,1.119-.943Z" transform="translate(-24.88 -116.902)" fill="#fff"/>
      <path id="Trazado_123791" data-name="Trazado 123791" d="M97.332,265.817l-1.887,3.675-1.077-.134-.563-2.506-1.2,2.281L91.531,269l-.9-4,1.049.134.62,2.682,1.274-2.492.943.12.591,2.732,1.267-2.492Z" transform="translate(-26.826 -117.16)" fill="#fff"/>
      <rect id="Rectángulo_30111" data-name="Rectángulo 30111" width="52.547" height="15.558" transform="translate(47.734 109.243) rotate(37.22)" fill="#e0e0e0"/>
      <path id="Trazado_123792" data-name="Trazado 123792" d="M64.76,223.641l.852-.458a3.006,3.006,0,0,0,1.014,1.408c.549.415.915.4,1.1.155.577-.753-2.161-2.013-1.021-3.52.521-.7,1.507-.838,2.647,0a3.365,3.365,0,0,1,1.126,1.408l-.824.486a2.929,2.929,0,0,0-.873-1.162c-.556-.415-.922-.373-1.119-.12-.563.739,2.168,2.006,1.042,3.52-.507.7-1.5.824-2.654-.049A3.6,3.6,0,0,1,64.76,223.641Z" transform="translate(-19.169 -104.032)" fill="#fff"/>
      <path id="Trazado_123793" data-name="Trazado 123793" d="M71.652,226.263l1.711-2.253.936.7-1.69,2.225c-.584.76-.486,1.331.077,1.76s1.133.366,1.718-.4l1.69-2.218.915.7-1.739,2.253a2.291,2.291,0,0,1-3.647-2.774Z" transform="translate(-21.062 -105.027)" fill="#fff"/>
      <path id="Trazado_123794" data-name="Trazado 123794" d="M80.945,234.668c-.528.7-1.408.7-2.443-.127l-2.112-1.584,3.062-4.027,1.964,1.5c1.007.76,1.2,1.577.7,2.2a1.225,1.225,0,0,1-1.211.479,1.246,1.246,0,0,1,.035,1.556Zm-1.077-4.33-.7.95.929.7c.451.345.824.373,1.063.056s.113-.662-.345-1.007Zm.218,3.52c.253-.345.12-.7-.366-1.063l-1.084-.831-.76,1,1.091.824c.479.366.852.415,1.119.07Z" transform="translate(-22.611 -106.483)" fill="#fff"/>
      <path id="Trazado_123795" data-name="Trazado 123795" d="M82.66,237.231l.845-.458a2.978,2.978,0,0,0,1.014,1.408c.549.422.915.408,1.105.155.57-.753-2.161-2.013-1.028-3.52.521-.7,1.507-.838,2.647,0a3.309,3.309,0,0,1,1.126,1.408l-.824.493a2.9,2.9,0,0,0-.873-1.169c-.556-.415-.922-.373-1.119-.12-.563.746,2.168,2.013,1.049,3.52-.514.669-1.507.824-2.661-.056A3.52,3.52,0,0,1,82.66,237.231Z" transform="translate(-24.467 -108.054)" fill="#fff"/>
      <path id="Trazado_123796" data-name="Trazado 123796" d="M89.528,239.781a2.6,2.6,0,0,1,3.766-.422,2.64,2.64,0,0,1,1.119,1.978l-1.021.092a1.64,1.64,0,0,0-.655-1.239,1.619,1.619,0,1,0-1.957,2.577,1.591,1.591,0,0,0,1.408.3l.183,1.007a2.816,2.816,0,0,1-2.816-4.287Z" transform="translate(-26.38 -109.387)" fill="#fff"/>
      <path id="Trazado_123797" data-name="Trazado 123797" d="M96.44,248.16l.07-1.711-.042-.035-.81-.612-.852,1.119-.936-.7,3.062-4.027,1.739,1.331c1.077.817,1.331,1.887.641,2.816a1.633,1.633,0,0,1-1.8.641l-.077,1.978Zm1.605-3.928-.76-.577-1.063,1.408.76.577c.57.436,1.056.387,1.408-.049s.225-.929-.345-1.359Z" transform="translate(-27.786 -110.408)" fill="#fff"/>
      <path id="Trazado_123798" data-name="Trazado 123798" d="M102.932,246.74l.929.7-3.055,4.027-.936-.7Z" transform="translate(-29.562 -111.755)" fill="#fff"/>
      <path id="Trazado_123799" data-name="Trazado 123799" d="M107.082,254.511c-.535.7-1.408.7-2.45-.12l-2.112-1.584,3.062-4.027,1.964,1.492c1.007.767,1.211,1.577.7,2.2a1.225,1.225,0,0,1-1.211.486,1.239,1.239,0,0,1,.042,1.549ZM106,250.188l-.7.943.929.7c.451.345.824.373,1.063.056s.113-.655-.345-1.007Zm.211,3.52c.26-.338.12-.7-.366-1.063l-1.084-.824-.753.993,1.084.824c.479.366.852.408,1.112.063Z" transform="translate(-30.346 -112.359)" fill="#fff"/>
      <path id="Trazado_123800" data-name="Trazado 123800" d="M112.449,259.173l-.57.746-3.119-2.365,3.062-4.034,3.041,2.316-.57.746-2.112-1.605-.662.873,1.873,1.408-.556.7-1.866-1.408-.7.929Z" transform="translate(-32.193 -113.762)" fill="#fff"/>
      <path id="Trazado_123801" data-name="Trazado 123801" d="M204.1,109.944a1.929,1.929,0,0,1-1.929-1.922v-4.738h-.929a2.478,2.478,0,0,1-2.471-2.471V78.377a2.471,2.471,0,0,1,2.464-2.457h35.01a2.464,2.464,0,0,1,2.464,2.457v22.436a2.478,2.478,0,0,1-2.471,2.471H213.364l-8.1,6.273a1.894,1.894,0,0,1-1.169.387Zm-2.865-33.32a1.767,1.767,0,0,0-1.76,1.753v22.436a1.774,1.774,0,0,0,1.767,1.767h1.633v5.442a1.225,1.225,0,0,0,1.225,1.218,1.2,1.2,0,0,0,.7-.246l8.3-6.413h23.14a1.774,1.774,0,0,0,1.767-1.767V78.377a1.76,1.76,0,0,0-1.76-1.753Z" transform="translate(-58.836 -61.192)" fill="#e0e0e0"/>
      <rect id="Rectángulo_30112" data-name="Rectángulo 30112" width="4.386" height="0.535" transform="translate(153.634 11.919)" fill="#e0e0e0"/>
      <path id="Trazado_123802" data-name="Trazado 123802" d="M195.1,78.252h-.542V75.6a3.689,3.689,0,0,1,3.689-3.675h9.779v.535h-9.779A3.147,3.147,0,0,0,195.1,75.6Z" transform="translate(-57.59 -60.011)" fill="#e0e0e0"/>
      <path id="Trazado_123803" data-name="Trazado 123803" d="M232.15,89.883H212.916a1.077,1.077,0,0,1,0-2.112H232.15a1.077,1.077,0,1,1,0,2.112Z" transform="translate(-62.767 -64.694)" fill="#e0e0e0"/>
      <path id="Trazado_123804" data-name="Trazado 123804" d="M232.15,95.913H212.916a1.077,1.077,0,0,1,0-2.112H232.15a1.077,1.077,0,1,1,0,2.112Z" transform="translate(-62.767 -66.479)" fill="#e0e0e0"/>
      <path id="Trazado_123805" data-name="Trazado 123805" d="M232.15,101.943H212.916a1.077,1.077,0,0,1,0-2.112H232.15a1.077,1.077,0,1,1,0,2.112Z" transform="translate(-62.767 -68.264)" fill="#e0e0e0"/>
      <path id="Trazado_123806" data-name="Trazado 123806" d="M257.508,132.023h19.233a1.077,1.077,0,1,0,0-2.112H257.508a1.077,1.077,0,1,0,0,2.112Z" transform="translate(-75.841 -77.167)" fill="#e0e0e0"/>
      <path id="Trazado_123807" data-name="Trazado 123807" d="M257.508,138.1h19.233a1.077,1.077,0,1,0,0-2.112H257.508a1.077,1.077,0,1,0,0,2.112Z" transform="translate(-75.841 -78.967)" fill="#e0e0e0"/>
      <path id="Trazado_123808" data-name="Trazado 123808" d="M257.508,144.1h19.233a1.077,1.077,0,1,0,0-2.112H257.508a1.077,1.077,0,1,0,0,2.112Z" transform="translate(-75.841 -80.743)" fill="#e0e0e0"/>
      <path id="Trazado_123809" data-name="Trazado 123809" d="M283.076,132.2c0,3.372-1.929,6.442-5.111,8.772v7.744a.8.8,0,0,1-1.408.57l-7.434-4.576a29.828,29.828,0,0,1-6.04.612c-11.032,0-19.972-5.878-19.972-13.13s8.941-13.13,19.972-13.13S283.076,124.945,283.076,132.2Z" transform="translate(-71.961 -73.962)" fill="none" stroke="#e0e0e0" stroke-miterlimit="10" stroke-width="1"/>
      <path id="Trazado_123810" data-name="Trazado 123810" d="M360.741,120.08h-2.964a2.717,2.717,0,0,0-2.675,2.541l-.7,13.686a2.394,2.394,0,0,0,2.408,2.541h2.943a2.717,2.717,0,0,0,2.675-2.541l.7-13.686a2.394,2.394,0,0,0-2.387-2.541Zm.077,16.192a.993.993,0,0,1-.979.929h-2.964a.873.873,0,0,1-.88-.929l.7-13.686a.993.993,0,0,1,.979-.936h2.964a.88.88,0,0,1,.88.936Z" transform="translate(-104.901 -74.264)" fill="#ebebeb"/>
      <path id="Trazado_123811" data-name="Trazado 123811" d="M387.974,114.938h-8.68l1.936-4.562a3.02,3.02,0,0,0,.232-1.549l-.408-3.59a2.816,2.816,0,0,0-2.851-2.527h-3.45l-.289,5.562-5.6,7.04a4.336,4.336,0,0,0-.936,2.436l-.7,12.806a2.943,2.943,0,0,0,2.971,3.133h12.144a3.851,3.851,0,0,0,2.816-1.288l1.133-1.26a3.829,3.829,0,0,0,.9-1.732l2.661-11.855Z" transform="translate(-108.697 -69.122)" fill="#ebebeb"/>
      <g id="Grupo_55333" data-name="Grupo 55333" transform="translate(249.493 45.816)" opacity="0.5">
        <path id="Trazado_123812" data-name="Trazado 123812" d="M360.741,120.08h-2.964a2.717,2.717,0,0,0-2.675,2.541l-.7,13.686a2.394,2.394,0,0,0,2.408,2.541h2.943a2.717,2.717,0,0,0,2.675-2.541l.7-13.686a2.394,2.394,0,0,0-2.387-2.541Zm.077,16.192a.993.993,0,0,1-.979.929h-2.964a.873.873,0,0,1-.88-.929l.7-13.686a.993.993,0,0,1,.979-.936h2.964a.88.88,0,0,1,.88.936Z" transform="translate(-354.394 -120.08)" fill="#ebebeb"/>
      </g>
      <path id="Trazado_123813" data-name="Trazado 123813" d="M118.851,106.886,106.2,104.373l2.767-5.653,9.5,1.88Z" transform="translate(-31.435 -67.941)" fill="#ebebeb"/>
      <path id="Trazado_123814" data-name="Trazado 123814" d="M122.356,101.39,119.35,107l3.393.676Z" transform="translate(-35.328 -68.731)" fill="#e0e0e0"/>
      <rect id="Rectángulo_30113" data-name="Rectángulo 30113" width="32.426" height="24.851" rx="5.59" transform="matrix(0.981, 0.195, -0.195, 0.981, 65.104, 34.527)" fill="#ebebeb"/>
      <path id="Trazado_123815" data-name="Trazado 123815" d="M0,0H.7A3.654,3.654,0,0,1,4.358,3.654V21.2A3.654,3.654,0,0,1,.7,24.851H0Z" transform="matrix(0.981, 0.195, -0.195, 0.981, 92.618, 39.971)" fill="#e0e0e0"/>
      <path id="Trazado_123816" data-name="Trazado 123816" d="M114.562,121.8a8.786,8.786,0,1,1-6.906-10.328A8.786,8.786,0,0,1,114.562,121.8Z" transform="translate(-28.758 -71.664)" fill="#fafafa"/>
      <path id="Trazado_123817" data-name="Trazado 123817" d="M113.828,121.851a7.709,7.709,0,1,1-6.061-9.053,7.709,7.709,0,0,1,6.061,9.053Z" transform="translate(-29.172 -72.064)" fill="#e0e0e0"/>
      <path id="Trazado_123818" data-name="Trazado 123818" d="M101.3,111.2l5.892,1.169-3,15.115-7.568-1.45S102.741,113.572,101.3,111.2Z" transform="translate(-28.602 -71.635)" fill="#e0e0e0"/>
      <rect id="Rectángulo_30114" data-name="Rectángulo 30114" width="4.076" height="1.795" transform="matrix(0.981, 0.195, -0.195, 0.981, 70.01, 33.911)" fill="#ebebeb"/>
      <path id="Trazado_123819" data-name="Trazado 123819" d="M126.138,116.88a1.035,1.035,0,1,1-.155-.779,1.035,1.035,0,0,1,.155.779Z" transform="translate(-36.73 -72.95)" fill="#fafafa"/>
      <path id="Trazado_123820" data-name="Trazado 123820" d="M98.831,116.73a10.3,10.3,0,0,1-14.671,7.23,10.3,10.3,0,0,0,3.872-19.5,10.285,10.285,0,0,1,10.8,12.271Z" transform="translate(-24.911 -69.633)" fill="#ebebeb"/>
      <ellipse id="Elipse_4212" data-name="Elipse 4212" cx="9.94" cy="7.61" rx="9.94" ry="7.61" transform="matrix(0.195, -0.981, 0.981, 0.195, 51.784, 52.849)" fill="#fafafa"/>
      <path id="Trazado_123821" data-name="Trazado 123821" d="M79.522,123.519a10.3,10.3,0,1,1,3.872-19.5,10.3,10.3,0,0,0-3.872,19.5Z" transform="translate(-20.28 -69.191)" fill="#e6e6e6"/>
    </g>
    <g id="freepik--Podium--inject-398" transform="translate(96.758 191.379)">
      <rect id="Rectángulo_30115" data-name="Rectángulo 30115" width="162.082" height="53.448" transform="translate(0 52.807)" fill="#f5ca56"/>
      <rect id="Rectángulo_30117" data-name="Rectángulo 30117" width="70.351" height="53.448" transform="translate(43.831)" fill="#f5ca56"/>
      <path id="Trazado_123822" data-name="Trazado 123822" d="M255,270.27l-3.978,19.9h-4.611l3.245-16.192H245.67l.739-3.7Z" transform="translate(-169.476 -255.099)" fill="#263238"/>
    </g>
    <g id="freepik--character-2--inject-398" transform="translate(215.079 148.548)">
      <path id="Trazado_123823" data-name="Trazado 123823" d="M310.99,211.239l2.739,2.9,19.409-12.918,21.915,7.251,19.071-14.087,1.281,2.3,5.153-8.666-10.074-.134,1.281,2.288L354.73,205l-21.965-7.089Z" transform="translate(-307.132 -187.88)" fill="#263238"/>
      <path id="Trazado_123824" data-name="Trazado 123824" d="M323.832,329.722l14.749-.535c-3.478-1-7.153-.943-10.757-1.316a11.575,11.575,0,0,1-3.055-.634c-.929-.359-1.767-.929-2.689-1.309a7.307,7.307,0,0,0-3.823-.479,3.52,3.52,0,0,0-1.2.352,3.323,3.323,0,0,0-1.485,1.852,7.273,7.273,0,0,0-.394,2.07h0v.31h0a11.525,11.525,0,0,0,.972,4.492c3.421,8.286,31.138,1.211,31.138,1.211-.972,5.435.479,9.532,1.471,14.974l2.6,14.333-2.774.3,1.119,4.013h2.443V329.722Z" transform="translate(-308.372 -228.579)" opacity="0.2"/>
      <path id="Trazado_123825" data-name="Trazado 123825" d="M367.627,392.77v4.491l-.113-.134-.605-3.154a.858.858,0,0,1,0-.134,1.148,1.148,0,0,1,.718-1.07Z" transform="translate(-323.683 -248.527)" opacity="0.2"/>
      <g id="freepik--Character--inject-2--inject-398" transform="translate(0 27.421)">
        <path id="Trazado_123826" data-name="Trazado 123826" d="M386.34,383.583l4.344-.472.422-10.2-4.351.472Z" transform="translate(-329.436 -270.07)" fill="#ff8b7b"/>
        <path id="Trazado_123827" data-name="Trazado 123827" d="M390.808,384.776l-4.928-.056a.31.31,0,0,0-.338.275.063.063,0,0,0,0,.035l-.282,3.872a.789.789,0,0,0,.76.788c1.7,0,2.422-.1,4.569-.225,1.331-.085,4.492-.3,6.294-.634s1.408-2.112.62-2.112c-1.88-.035-4.759-.655-5.977-1.64A1.239,1.239,0,0,0,390.808,384.776Z" transform="translate(-329.116 -273.565)" fill="#263238"/>
        <path id="Trazado_123828" data-name="Trazado 123828" d="M386.847,373.389l4.351-.479-.2,4.914-4.344.324Z" transform="translate(-329.527 -270.07)" opacity="0.2"/>
        <path id="Trazado_123829" data-name="Trazado 123829" d="M336.712,309.59s33.088-1.633,35.277,10.694a234.157,234.157,0,0,1,.627,34.855l-6.139,1.183s-4.787-21.388-4.294-31.9c-9.117-1-33.94,3.421-37.812-3.372-3.161-5.54-2.57-8.983-2.57-8.983Z" transform="translate(-310.319 -251.306)" fill="#263238"/>
        <path id="Trazado_123830" data-name="Trazado 123830" d="M382.336,377.168l9.307-.436.641-3.492-10.314.352Z" transform="translate(-328.142 -270.167)" fill="#26aab7"/>
        <path id="Trazado_123831" data-name="Trazado 123831" d="M395.622,385.222a.563.563,0,0,0,.134-.549.38.38,0,0,0-.239-.289c-.535-.225-1.774.613-1.908.7a.092.092,0,0,0-.049.063.1.1,0,0,0,.077.12,5.379,5.379,0,0,0,1.162.169,1.2,1.2,0,0,0,.824-.218Zm-.169-.655a.169.169,0,0,1,.1.148.352.352,0,0,1-.07.359c-.211.2-.781.225-1.563.056C394.425,384.806,395.157,384.454,395.453,384.567Z" transform="translate(-331.572 -273.455)" fill="#26aab7"/>
        <path id="Trazado_123832" data-name="Trazado 123832" d="M393.725,384.81c.436-.253,1.1-1.155,1-1.633a.38.38,0,0,0-.359-.31.521.521,0,0,0-.451.148c-.444.422-.366,1.675-.359,1.732a.1.1,0,0,0,.056.084h.049Zm.577-1.739c.155,0,.183.084.2.148.063.31-.373.993-.76,1.309a2.26,2.26,0,0,1,.3-1.408.289.289,0,0,1,.225-.085Z" transform="translate(-331.569 -273.015)" fill="#26aab7"/>
        <path id="Trazado_123833" data-name="Trazado 123833" d="M373.36,319.522s6.906-1.978,8.392,2.182-.253,24.45-2.309,28.991-5.836-30.455-5.836-30.455Z" transform="translate(-325.594 -254.128)" opacity="0.3"/>
        <path id="Trazado_123834" data-name="Trazado 123834" d="M373.4,388.419l4.217-.113L377.3,378.07l-4.217.106Z" transform="translate(-325.511 -271.597)" fill="#ff8b7b"/>
        <path id="Trazado_123835" data-name="Trazado 123835" d="M377.443,390.817l-4.893.31a.324.324,0,0,0-.31.324v3.879a.774.774,0,0,0,.817.7c1.7-.162,2.506-.3,4.66-.451a39.532,39.532,0,0,0,5.724-.549c1.781-.408,1.338-2.154.549-2.147a11.968,11.968,0,0,1-5.8-1.908,1.211,1.211,0,0,0-.746-.162Z" transform="translate(-325.262 -275.368)" fill="#263238"/>
        <path id="Trazado_123836" data-name="Trazado 123836" d="M382.135,390.991a.549.549,0,0,0,.092-.556.394.394,0,0,0-.253-.275c-.549-.183-1.725.753-1.859.859a.134.134,0,0,0-.035.063.1.1,0,0,0,.084.113,5,5,0,0,0,1.169.077A1.112,1.112,0,0,0,382.135,390.991Zm-.225-.634a.19.19,0,0,1,.127.134.373.373,0,0,1-.049.366c-.176.218-.767.275-1.556.176.507-.359,1.211-.767,1.5-.676Z" transform="translate(-327.582 -275.169)" fill="#26aab7"/>
        <path id="Trazado_123837" data-name="Trazado 123837" d="M380.276,390.794c.415-.289,1.007-1.26.873-1.7a.38.38,0,0,0-.387-.282.514.514,0,0,0-.444.169c-.408.451-.225,1.7-.225,1.753a.1.1,0,0,0,.063.077h.042a.1.1,0,0,0,.077-.014Zm.451-1.8c.148,0,.2.077.2.134.092.31-.3,1.021-.662,1.366a2.2,2.2,0,0,1,.2-1.408.289.289,0,0,1,.2-.106Z" transform="translate(-327.574 -274.775)" fill="#26aab7"/>
        <path id="Trazado_123838" data-name="Trazado 123838" d="M372.54,377.756l4.717-.8.042,6.4-4.139.479Z" transform="translate(-325.351 -271.268)" opacity="0.2"/>
        <path id="Trazado_123839" data-name="Trazado 123839" d="M328.442,311s32.673,2.436,33.088,11.968c2.408,15.488.591,35.9.591,35.9l-7.828,1.633s-4.02-19.114-4.6-33.165c-8,1.345-24.45,3.823-30.089-.176-5.09-4.6-3.682-14.052-3.682-14.052Z" transform="translate(-308.54 -251.744)" fill="#263238"/>
        <path id="Trazado_123840" data-name="Trazado 123840" d="M369.148,382.891l9.567-.81.2-4.182-10.483,1.084Z" transform="translate(-324.134 -271.547)" fill="#26aab7"/>
        <path id="Trazado_123841" data-name="Trazado 123841" d="M337,269.987c.183.746.352,1.408.549,2.07s.4,1.316.627,2c.436,1.316.936,2.619,1.478,3.942a32.624,32.624,0,0,0,4.386,7.7,15.185,15.185,0,0,0,1.732,1.83,9.362,9.362,0,0,0,2.358,1.549,10.278,10.278,0,0,0,5.252.852,14.621,14.621,0,0,0,4.555-1.225,18.184,18.184,0,0,0,1.978-1.028,9.6,9.6,0,0,0,.929-.612c.3-.232.577-.429.922-.7l-1.69-2.816-.838.253-.88.239c-.6.148-1.183.282-1.788.38a12.672,12.672,0,0,1-3.3.169,5.379,5.379,0,0,1-2.485-.81,5.031,5.031,0,0,1-.894-.746,11.257,11.257,0,0,1-.922-1.155,20.63,20.63,0,0,1-1.7-3c-.535-1.084-1.007-2.225-1.457-3.4s-.859-2.365-1.267-3.562l-.577-1.816c-.183-.6-.38-1.239-.528-1.76Z" transform="translate(-314.831 -239.117)" fill="#ff8b7b"/>
        <path id="Trazado_123842" data-name="Trazado 123842" d="M335.686,264.617c2.633-3.576,6.843-2.429,9.363,3.055a54.008,54.008,0,0,1,3.365,9.075l-9.659,3.724C336.016,275.318,332.975,268.292,335.686,264.617Z" transform="translate(-314.129 -237.408)" fill="#26aab7"/>
        <path id="Trazado_123843" data-name="Trazado 123843" d="M335.686,264.617c2.633-3.576,6.843-2.429,9.363,3.055a54.008,54.008,0,0,1,3.365,9.075l-9.659,3.724C336.016,275.318,332.975,268.292,335.686,264.617Z" transform="translate(-314.129 -237.408)" fill="#b1a8d1" opacity="0.1"/>
        <path id="Trazado_123844" data-name="Trazado 123844" d="M340.923,273.567c-.824-.521-2.372,2.7-3.013,6.477.577,1.288,1.2,2.52,1.809,3.668l5.808-2.253C344.45,277.981,342.768,274.742,340.923,273.567Z" transform="translate(-315.1 -240.648)" opacity="0.3"/>
        <path id="Trazado_123845" data-name="Trazado 123845" d="M369.74,287.362l2.112-1.232.9,4.752s-3.52,2.26-4.583.514l.07-1.232a3.907,3.907,0,0,1,1.5-2.8Z" transform="translate(-324.057 -244.383)" fill="#ff8b7b"/>
        <path id="Trazado_123846" data-name="Trazado 123846" d="M376.049,285.68l1.992,3.773-3.788,1.3L373.36,286Z" transform="translate(-325.594 -244.25)" fill="#ff8b7b"/>
        <path id="Trazado_123847" data-name="Trazado 123847" d="M329.278,260.822l-5.027-.542-6.188.739a4.337,4.337,0,0,0-3.781,3.668,111.11,111.11,0,0,0-.824,13.756,137.027,137.027,0,0,0,1.816,19.712l20.733-3.182c-.373-18.163.817-23.837.838-28.66a4.337,4.337,0,0,0-3.14-4.182Z" transform="translate(-307.862 -236.731)" fill="#26aab7"/>
        <path id="Trazado_123848" data-name="Trazado 123848" d="M329.278,260.822l-5.027-.542-6.188.739a4.337,4.337,0,0,0-3.781,3.668,111.11,111.11,0,0,0-.824,13.756,137.027,137.027,0,0,0,1.816,19.712l20.733-3.182c-.373-18.163.817-23.837.838-28.66a4.337,4.337,0,0,0-3.14-4.182Z" transform="translate(-307.862 -236.731)" fill="#b1a8d1"/>
        <path id="Trazado_123849" data-name="Trazado 123849" d="M315.943,263.977c4.132-.859,4.224,8.575,2.556,15.53-.486,2.013-2.879,1.253-3.689.76C312.141,278.655,310.881,267.159,315.943,263.977Z" transform="translate(-307.572 -237.809)" opacity="0.3"/>
        <path id="Trazado_123850" data-name="Trazado 123850" d="M314.294,282.978c.289,4.076-.936,6.252,1.274,7.54s15.2,5.146,15.488,4.6c-.591,1-1.169,1.859-1.76,2.865q-5.576-.655-11.158-1.183c-2.717-.26-7.1-.817-9.279-2.464-1.971-1.492-1.844-8.314-1.676-13.228C308.887,280.049,314.294,282.978,314.294,282.978Z" transform="translate(-305.98 -242.829)" fill="#ff8b7b"/>
        <path id="Trazado_123851" data-name="Trazado 123851" d="M312.191,261.586c4.224-1.408,5.949,1.978,4.836,7.885a52.962,52.962,0,0,1-2.506,9.349l-9.011-2.534C306.32,270.5,307.89,263.008,312.191,261.586Z" transform="translate(-305.51 -237.024)" fill="#b1a8d1"/>
        <path id="Trazado_123852" data-name="Trazado 123852" d="M323.813,260.418a3.7,3.7,0,0,0,.7,2.541,11.117,11.117,0,0,0,1.894,1.922c.873.746,1.9,1.542,3.034,1.352s1.626-.7,2.006-1.978c.943,1.408,1.014,2.112,2,2.2a2.218,2.218,0,0,0,1.619-.922,3.569,3.569,0,0,0,1.211-2.443c.176-1.837-1.366-3.52-3.112-4.076a21.682,21.682,0,0,0-5.47-.908C326.1,257.968,324.081,258.539,323.813,260.418Z" transform="translate(-310.923 -236.081)" fill="#263238"/>
        <path id="Trazado_123853" data-name="Trazado 123853" d="M328.918,248.72l2.337,2.541,3.189,3.45a3.8,3.8,0,0,0-.591,1.281,2.161,2.161,0,0,0,.936,2.689c.479.2.788,2.647-2.3,2.492a6.428,6.428,0,0,1-4.724-1.971c-.591-.746-.753-1.147-.2-1.992C329.178,254.817,329.178,251.416,328.918,248.72Z" transform="translate(-311.937 -233.309)" fill="#ff8b7b"/>
        <path id="Trazado_123854" data-name="Trazado 123854" d="M335.444,254.946l-2.02-2.506a.874.874,0,0,1-.07.246,7.418,7.418,0,0,0-.155,1.112c-.077,1.274,1.169,2.865,2.351,3.52l.084-.26a4.823,4.823,0,0,1,.535-1.218.141.141,0,0,1,.056-.056Z" transform="translate(-313.705 -234.411)" opacity="0.2"/>
        <path id="Trazado_123855" data-name="Trazado 123855" d="M340.38,244.392c1.866-3.64,1.471-5.7,3.267-7.638.965-.429,2.654,1.352,1.528,4.379S340.38,244.392,340.38,244.392Z" transform="translate(-315.832 -229.749)" fill="#263238"/>
        <path id="Trazado_123856" data-name="Trazado 123856" d="M329.641,239.511c-.218,4.224-.528,6.681,1.359,9.011,2.816,3.52,8.237,2.112,9.694-2.013,1.309-3.682,1.408-9.969-2.52-12.01a5.857,5.857,0,0,0-7.892,2.548A5.772,5.772,0,0,0,329.641,239.511Z" transform="translate(-312.604 -228.908)" fill="#ff8b7b"/>
        <path id="Trazado_123857" data-name="Trazado 123857" d="M327.879,243.655l3.443,1.359-.866-3.7,1.873-1.07,2.288-3.421s-4.928-1.45-6.427-1.647c-.521-.07-2.33,1.338-2.6,1.929a4.843,4.843,0,0,0,.8,5.041A10.782,10.782,0,0,0,327.879,243.655Z" transform="translate(-311.342 -229.301)" fill="#263238"/>
        <path id="Trazado_123858" data-name="Trazado 123858" d="M330.219,228.4c1.084-.528,2.4.134,3.555.486a29.5,29.5,0,0,0,3.464,1,4.365,4.365,0,0,0,3.034-.373,2.147,2.147,0,0,0,.922-2.682,4.477,4.477,0,0,1,.62,7.364,6.068,6.068,0,0,1-3.752,1.2,17.981,17.981,0,0,1-3.964-.549c-1.739-.373-4.224-.429-5.843-1.225S326.91,230,330.219,228.4Z" transform="translate(-311.958 -226.83)" fill="#263238"/>
        <path id="Trazado_123859" data-name="Trazado 123859" d="M326.763,245.395a3.872,3.872,0,0,0,1.281,2.429c.929.788,2-.141,2.112-1.338.07-1.07-.514-2.612-1.612-2.943S326.623,244.226,326.763,245.395Z" transform="translate(-311.796 -231.758)" fill="#ff8b7b"/>
        <path id="Trazado_123860" data-name="Trazado 123860" d="M338.786,244.957c-.049.352.084.669.317.7s.422-.2.5-.549a.57.57,0,0,0-.31-.7C339.06,244.366,338.842,244.612,338.786,244.957Z" transform="translate(-315.357 -232.032)" fill="#263238"/>
        <path id="Trazado_123861" data-name="Trazado 123861" d="M344.345,246c-.056.352.084.7.31.7a.578.578,0,0,0,.507-.542c.056-.338-.092-.669-.317-.7S344.394,245.656,344.345,246Z" transform="translate(-317.001 -232.343)" fill="#263238"/>
        <path id="Trazado_123862" data-name="Trazado 123862" d="M342.253,246.27a11.361,11.361,0,0,0,.831,2.858,1.7,1.7,0,0,1-1.443-.1Z" transform="translate(-316.205 -232.584)" fill="#ff5652"/>
        <path id="Trazado_123863" data-name="Trazado 123863" d="M339.9,252.4a3.013,3.013,0,0,1-2.021-1.26.116.116,0,0,1,.176-.141,2.893,2.893,0,0,0,2.26,1.2.106.106,0,0,1,.007.211h0A3.818,3.818,0,0,1,339.9,252.4Z" transform="translate(-315.089 -233.976)" fill="#263238"/>
        <path id="Trazado_123864" data-name="Trazado 123864" d="M337.939,242.874a.354.354,0,0,1-.085-.056.211.211,0,0,1,0-.3,1.964,1.964,0,0,1,1.8-.493.2.2,0,0,1,.148.246h0a.2.2,0,0,1-.26.141,1.591,1.591,0,0,0-1.408.4.2.2,0,0,1-.19.056Z" transform="translate(-315.066 -231.314)" fill="#263238"/>
        <path id="Trazado_123865" data-name="Trazado 123865" d="M344.868,242.891a.228.228,0,0,1,0-.1.211.211,0,0,1,.253-.155,1.971,1.971,0,0,1,1.408,1.2.211.211,0,0,1-.394.134,1.57,1.57,0,0,0-1.133-.929.211.211,0,0,1-.134-.148Z" transform="translate(-317.158 -231.507)" fill="#263238"/>
      </g>
      <path id="Trazado_123866" data-name="Trazado 123866" d="M360.647,318.678l28.266-3.7a.535.535,0,0,0,.465-.6h0a.542.542,0,0,0-.6-.465l-28.273,3.7a.542.542,0,0,0-.458.605h0a.528.528,0,0,0,.6.458Z" transform="translate(-321.652 -225.186)" fill="#26aab7"/>
      <path id="Trazado_123867" data-name="Trazado 123867" d="M360.647,318.678l28.266-3.7a.535.535,0,0,0,.465-.6h0a.542.542,0,0,0-.6-.465l-28.273,3.7a.542.542,0,0,0-.458.605h0a.528.528,0,0,0,.6.458Z" transform="translate(-321.652 -225.186)" opacity="0.5"/>
      <path id="Trazado_123868" data-name="Trazado 123868" d="M340.888,320l13.714.169a.528.528,0,0,0,.542-.528h0a.535.535,0,0,0-.528-.542L340.9,318.93a.542.542,0,0,0-.542.528h0a.528.528,0,0,0,.528.542Z" transform="translate(-315.826 -226.671)" fill="#26aab7"/>
      <path id="Trazado_123869" data-name="Trazado 123869" d="M340.888,320l13.714.169a.528.528,0,0,0,.542-.528h0a.535.535,0,0,0-.528-.542L340.9,318.93a.542.542,0,0,0-.542.528h0a.528.528,0,0,0,.528.542Z" transform="translate(-315.826 -226.671)" fill="#fff" opacity="0.5"/>
      <path id="Trazado_123870" data-name="Trazado 123870" d="M355.408,318.731l-15.1-.12s-.507-.3.507-.493,14.122-1.929,14.122-1.929Z" transform="translate(-315.772 -225.86)" fill="#26aab7"/>
      <path id="Trazado_123871" data-name="Trazado 123871" d="M355.559,318.731l-14.742-.162s-.507-.3.507-.493,13.763-1.887,13.763-1.887Z" transform="translate(-315.923 -225.86)" fill="#26aab7"/>
      <path id="Trazado_123872" data-name="Trazado 123872" d="M355.559,318.731l-14.742-.162s-.507-.3.507-.493,13.763-1.887,13.763-1.887Z" transform="translate(-315.923 -225.86)" fill="#fff" opacity="0.2"/>
      <path id="Trazado_123873" data-name="Trazado 123873" d="M360.814,310.43l26.358-3.45a1.908,1.908,0,0,0,1.619-1.929l-.577-13.5a1.549,1.549,0,0,0-1.767-1.485l-26.358,3.471a1.908,1.908,0,0,0-1.619,1.936l.577,13.5a1.542,1.542,0,0,0,1.767,1.464Z" transform="translate(-321.186 -218.122)" fill="#26aab7"/>
      <path id="Trazado_123874" data-name="Trazado 123874" d="M360.814,310.43l26.358-3.45a1.908,1.908,0,0,0,1.619-1.929l-.577-13.5a1.549,1.549,0,0,0-1.767-1.485l-26.358,3.471a1.908,1.908,0,0,0-1.619,1.936l.577,13.5a1.542,1.542,0,0,0,1.767,1.464Z" transform="translate(-321.186 -218.122)" opacity="0.4"/>
      <path id="Trazado_123875" data-name="Trazado 123875" d="M361.9,310.233l26.358-3.443a1.915,1.915,0,0,0,1.619-1.936l-.577-13.489a1.549,1.549,0,0,0-1.767-1.492l-26.358,3.45a1.9,1.9,0,0,0-1.619,1.929l.577,13.5a1.542,1.542,0,0,0,1.767,1.478Z" transform="translate(-321.509 -218.066)" fill="#26aab7"/>
      <path id="Trazado_123876" data-name="Trazado 123876" d="M361.9,310.233l26.358-3.443a1.915,1.915,0,0,0,1.619-1.936l-.577-13.489a1.549,1.549,0,0,0-1.767-1.492l-26.358,3.45a1.9,1.9,0,0,0-1.619,1.929l.577,13.5a1.542,1.542,0,0,0,1.767,1.478Z" transform="translate(-321.509 -218.066)" fill="#fff" opacity="0.2"/>
      <path id="Trazado_123877" data-name="Trazado 123877" d="M344.139,274.525c-2.879-.605-5.892,2.175-6.73,6.2s.817,7.779,3.7,8.378,5.9-2.175,6.737-6.2S347.025,275.124,344.139,274.525Zm-2.485,13.89c-1.837-.38-2.717-3.612-1.971-7.216s2.816-6.216,4.689-5.836,2.724,3.619,1.978,7.223S343.5,288.8,341.654,288.415Z" transform="translate(-314.888 -213.502)" fill="#263238"/>
      <path id="Trazado_123878" data-name="Trazado 123878" d="M347.277,282.948c-.746,3.6-2.816,6.216-4.682,5.829s-2.724-3.612-1.978-7.216,2.816-6.216,4.689-5.836S348.03,279.35,347.277,282.948Z" transform="translate(-315.822 -213.871)" fill="#fff" opacity="0.5"/>
      <path id="Trazado_123879" data-name="Trazado 123879" d="M340.091,294.78,337,304.523s.162,1.2,1.577.605,2.45-10.011,2.45-10.011Z" transform="translate(-314.831 -219.522)" fill="#263238"/>
      <path id="Trazado_123880" data-name="Trazado 123880" d="M335.775,298.264l2.175-.7v5.4s-4.724,1.274-5.09-.908l.57-1.2C333.895,299.806,334.592,298.574,335.775,298.264Z" transform="translate(-313.606 -220.345)" fill="#ff8b7b"/>
      <path id="Trazado_123881" data-name="Trazado 123881" d="M343.418,298.944l-.549,3.048-2.809.957.028-5.4Z" transform="translate(-315.737 -220.342)" fill="#ff8b7b"/>
      <path id="Trazado_123882" data-name="Trazado 123882" d="M375.739,259.817l-.021.007-.028-.007.028-.007Z" transform="translate(-326.283 -209.171)" fill="#f0f0f0"/>
    </g>
    <g id="freepik--character-1--inject-398" transform="translate(51.948 119.613)">
      <g id="freepik--group--inject-398" transform="translate(1.212 7.697)">
        <path id="Trazado_123883" data-name="Trazado 123883" d="M145.359,172.548c.218-.042.458.19.528.521s-.042.655-.268.7-.458-.19-.528-.528S145.133,172.59,145.359,172.548Z" transform="translate(-96.101 -162.103)" fill="#263238"/>
        <path id="Trazado_123884" data-name="Trazado 123884" d="M146.176,177.542a1.985,1.985,0,0,0,1.549-.648,12.109,12.109,0,0,1-2.225-2.534Z" transform="translate(-96.228 -162.641)" fill="#b74d3c"/>
        <path id="Trazado_123885" data-name="Trazado 123885" d="M142.858,170.779a1.605,1.605,0,0,1,1.345-.584h.07a.2.2,0,0,0,0-.408,1.992,1.992,0,0,0-1.7.7.225.225,0,0,0-.049.134.218.218,0,0,0,.2.211.254.254,0,0,0,.134-.056Z" transform="translate(-95.346 -161.284)" fill="#263238"/>
        <path id="Trazado_123886" data-name="Trazado 123886" d="M137,195.907c-5.8.063-6.688-3.091-6.688-3.091,1.725-1.69,1.809-4.787,1.443-7.547a6.146,6.146,0,0,0,1.725,1.647,5.266,5.266,0,0,0,4.224.76.12.12,0,0,0,.07,0,1.4,1.4,0,0,0,0,.169c-.345,2.211-.035,4.576,2.281,5.273C140.046,193.1,143.39,195.837,137,195.907Z" transform="translate(-91.732 -165.87)" fill="#b25b52"/>
        <path id="Trazado_123887" data-name="Trazado 123887" d="M138.426,185.984c-.063.268-.12.535-.162.817a.12.12,0,0,1-.07,0,5.266,5.266,0,0,1-4.224-.76,6.146,6.146,0,0,1-1.725-1.647c-.092-.7-.218-1.408-.345-2.013l6.336,3.457Z" transform="translate(-92.203 -165.014)" fill="#b25b52"/>
        <path id="Trazado_123888" data-name="Trazado 123888" d="M127.8,195.013s.915-2.816,2.3-3.724,7.455.035,8.406.408,1.915,2.563,1.915,2.563Z" transform="translate(-90.989 -167.538)" fill="#26aab7"/>
        <path id="Trazado_123889" data-name="Trazado 123889" d="M112.394,200.031a3.238,3.238,0,0,0,1.3-6.336h0c-2.6-.563-5.287-1.225-7.9-1.894a57.067,57.067,0,0,1-5.977-1.563c-.627-.2-1.232-.444-1.83-.7l-.331-.127a.7.7,0,0,1-.155-.063,2.816,2.816,0,0,1-.451-.31c-.824-.753-6.336-7.927-7.385-10.363l-.035-.077a1.612,1.612,0,0,0-3.084.845c.331,2.957,5.752,12.94,6.857,14.214a8.589,8.589,0,0,0,1.162,1.042,7.814,7.814,0,0,0,1.309.788c.7.331,5.393,1.739,8.18,2.548s5.5,1.471,8.371,2.013Z" transform="translate(-78.773 -163.601)" fill="#b25b52"/>
        <path id="Trazado_123890" data-name="Trazado 123890" d="M88.75,176.795v.563a1.309,1.309,0,0,1-.774,1.3,6.335,6.335,0,0,1-3.126.394l.866-4.858,2.387,1.549a1.352,1.352,0,0,1,.648,1.056Z" transform="translate(-78.276 -162.59)" fill="#b25b52"/>
        <path id="Trazado_123891" data-name="Trazado 123891" d="M84.358,173.566l-.866,4.858-3.231-1.908-.07-4.386Z" transform="translate(-76.897 -161.98)" fill="#b25b52"/>
        <path id="Trazado_123892" data-name="Trazado 123892" d="M120.272,195.46c-1.246.183-6.174,1.239-10.264.084l-.268,8.356s7.1,3.52,10.321.979S125.3,197.755,120.272,195.46Z" transform="translate(-85.643 -168.886)" fill="#263238"/>
        <path id="Trazado_123893" data-name="Trazado 123893" d="M110.35,205.753l-3.21-1.443.922-9.99,2.992.542Z" transform="translate(-84.874 -168.549)" fill="#26aab7"/>
        <path id="Trazado_123894" data-name="Trazado 123894" d="M139.56,194.8c-.936-.155-1.992-.3-3.062-.387a85.893,85.893,0,0,0-9.708.106l-2.112.2c-3.379.246-6.78,3.182-6.1,6.5,3.752,18.3,2.682,28.5,2.337,31.476l22.831-.246c2.365-18.8,1.711-28.273.788-32.877a6.047,6.047,0,0,0-4.97-4.78Z" transform="translate(-88.233 -168.55)" fill="#263238"/>
        <path id="Trazado_123895" data-name="Trazado 123895" d="M152.106,228.758l-.7,6.632a162.354,162.354,0,0,0,1.542-25.436l-8.673-5.794C148.163,216.445,149.437,220.324,152.106,228.758Z" transform="translate(-95.864 -171.461)" opacity="0.2"/>
        <path id="Trazado_123896" data-name="Trazado 123896" d="M141.625,176.208a5.871,5.871,0,0,1-2.816,4.928h-.049a4.753,4.753,0,0,1-1.408.605.12.12,0,0,1-.07,0,5.266,5.266,0,0,1-4.224-.76,6.145,6.145,0,0,1-1.725-1.647c-1.14-1.556-1.612-3.64-2.429-6.568a5.906,5.906,0,0,1-.141-2.647,5.794,5.794,0,0,1,6.73-4.668C139.837,166.275,141.716,172.294,141.625,176.208Z" transform="translate(-91.248 -159.976)" fill="#b25b52"/>
        <path id="Trazado_123897" data-name="Trazado 123897" d="M142.408,186.968a4.752,4.752,0,0,1-1.408.605l.162-2.584S142.084,186.975,142.408,186.968Z" transform="translate(-94.896 -165.787)" opacity="0.2"/>
        <path id="Trazado_123898" data-name="Trazado 123898" d="M141.135,174.924a6.406,6.406,0,0,1-2.591,4.59,1.753,1.753,0,0,1-.62.3c-.7.169-1.408-.465-1.767-1.148a6.962,6.962,0,0,1-.563-2.865c-.085-2.316.2-4.851,1.83-6.5a2.2,2.2,0,0,1,1.408-.746C140.9,168.482,141.283,173.6,141.135,174.924Z" transform="translate(-93.292 -160.923)" fill="#263238"/>
        <path id="Trazado_123899" data-name="Trazado 123899" d="M127.748,161.4a2.281,2.281,0,0,0-2.675,3.337,5.48,5.48,0,0,0-3.935,3.837c-.366,1.887,1.2,4.09,3.112,3.872a1.591,1.591,0,0,0,1.45,2.767c1.492,2.478,6.139,3.02,8.385,1.19.528-.429.148-.88.26-1.549a1.577,1.577,0,0,0-.824-1.711l.486-1.683-1.408-1.577a8.741,8.741,0,0,0,3.182-3.583c.556-1.521-.084-3.6-1.661-3.971a1.739,1.739,0,0,0,1.14-2.457,1.774,1.774,0,0,0-2.689-.282c-.444-.612-.8-1.281-1.556-1.485A2.606,2.606,0,0,0,127.748,161.4Z" transform="translate(-89.001 -157.789)" fill="#263238"/>
        <path id="Trazado_123900" data-name="Trazado 123900" d="M141.272,173.211c1.225.359,1.859,2.154,1.908,3.3.063,1.26-.781,2.056-1.88,1.211a4.759,4.759,0,0,1-1.683-2.577C139.294,173.915,140.033,172.859,141.272,173.211Z" transform="translate(-94.465 -162.28)" fill="#b25b52"/>
        <path id="Trazado_123901" data-name="Trazado 123901" d="M138.881,402.238a.106.106,0,0,1-.092-.084.113.113,0,0,1,.049-.113c.084-.035,1.647-.971,2.408-.781a.528.528,0,0,1,.352.246.394.394,0,0,1,0,.465c-.183.268-.7.359-1.324.373a7.855,7.855,0,0,1-1.394-.106Zm2.112-.8a4.808,4.808,0,0,0-1.774.62c.852.1,2,.07,2.2-.225.042-.042.07-.106,0-.239a.317.317,0,0,0-.218-.148.656.656,0,0,0-.2,0Z" transform="translate(-94.242 -229.795)" fill="#26aab7"/>
        <path id="Trazado_123902" data-name="Trazado 123902" d="M138.836,401.767a.127.127,0,0,1-.056-.1,2.915,2.915,0,0,1,.662-1.76.8.8,0,0,1,.605-.19c.3,0,.4.169.408.289.1.528-.957,1.514-1.507,1.767h-.014a.126.126,0,0,1-.1-.007Zm1.14-1.844a.564.564,0,0,0-.373.162,2.542,2.542,0,0,0-.57,1.408c.556-.352,1.267-1.133,1.211-1.443,0,0,0-.12-.218-.12h-.056Z" transform="translate(-94.239 -229.345)" fill="#26aab7"/>
        <path id="Trazado_123903" data-name="Trazado 123903" d="M132.05,387.755l4.513-.084-.162,10.44-4.541.092Z" transform="translate(-92.191 -225.78)" fill="#b25b52"/>
        <path id="Trazado_123904" data-name="Trazado 123904" d="M136.768,402.117c3.126,1.83,4.083,1.9,7.667,2.612.781.155.331,2.056-1.542,2.112-3.091.056-3.421-.084-6.054,0-2.26.042-4.851.2-6.646.26h-.162a.655.655,0,0,1-.507-.781l.8-4.055a.4.4,0,0,1,.38-.317l4.963-.1A2.112,2.112,0,0,1,136.768,402.117Z" transform="translate(-91.495 -229.977)" fill="#263238"/>
        <path id="Trazado_123905" data-name="Trazado 123905" d="M132.082,387.764l-.092,5.365,4.534-.085.077-5.365Z" transform="translate(-92.229 -225.783)" opacity="0.2"/>
        <path id="Trazado_123906" data-name="Trazado 123906" d="M84.684,402.444a.106.106,0,0,1-.2,0c-.042-.077-.943-1.647-.7-2.4a.563.563,0,0,1,.246-.345.415.415,0,0,1,.479,0c.26.183.338.7.338,1.324A7.792,7.792,0,0,1,84.684,402.444Zm-.753-2.112a4.766,4.766,0,0,0,.563,1.767c.12-.845.113-1.985-.183-2.2,0-.042-.1-.07-.232,0a.31.31,0,0,0-.155.218.7.7,0,0,0,0,.2Z" transform="translate(-77.948 -229.318)" fill="#26aab7"/>
        <path id="Trazado_123907" data-name="Trazado 123907" d="M84.214,402.989a.1.1,0,0,1-.1.042,2.858,2.858,0,0,1-1.746-.7.739.739,0,0,1-.183-.6c0-.3.176-.4.3-.4.521-.092,1.5.979,1.746,1.521v.042a.1.1,0,0,1-.014.1Zm-1.837-1.155a.613.613,0,0,0,.155.373,2.507,2.507,0,0,0,1.408.577c-.338-.556-1.105-1.281-1.408-1.225,0,0-.12,0-.12.211v.063Z" transform="translate(-77.486 -229.821)" fill="#26aab7"/>
        <path id="Trazado_123908" data-name="Trazado 123908" d="M87.395,388.61l4.407.225-2.38,10.574-4.442-.225Z" transform="translate(-78.314 -226.059)" fill="#b25b52"/>
        <path id="Trazado_123909" data-name="Trazado 123909" d="M81.107,402.423c-1.19,1.408-1.816,2.175-5.287,3.337-.767.253-.077,2.077,1.788,1.873,3.076-.331,1.408-.289,4-.577,2.246-.239,4.836-.415,6.625-.577a.562.562,0,0,0,.183,0,.662.662,0,0,0,.415-.838l-1.288-3.914a.387.387,0,0,0-.415-.268l-4.928.528a1.549,1.549,0,0,0-1.091.437Z" transform="translate(-75.512 -229.861)" fill="#263238"/>
        <path id="Trazado_123910" data-name="Trazado 123910" d="M87.882,388.62l-1.232,5.428,4.421.232,1.225-5.442Z" transform="translate(-78.809 -226.062)" opacity="0.2"/>
        <path id="Trazado_123911" data-name="Trazado 123911" d="M111.072,248.734a46.937,46.937,0,0,0-4.006,8.5c-2.281,6.6-1.352,10-2.07,14.446-1.26,7.836-3.267,13.862-4.639,19.811-4.28,18.621-15.037,57.953-15.037,57.953l8,1.584s15.544-45.76,19.459-59.094c3.52-12,12.566-43.521,12.566-43.521Z" transform="translate(-78.415 -184.559)" fill="#26aab7"/>
        <path id="Trazado_123912" data-name="Trazado 123912" d="M111.072,248.734a46.937,46.937,0,0,0-4.006,8.5c-2.281,6.6-1.352,10-2.07,14.446-1.26,7.836-3.267,13.862-4.639,19.811-4.28,18.621-15.037,57.953-15.037,57.953l8,1.584s15.544-45.76,19.459-59.094c3.52-12,12.566-43.521,12.566-43.521Z" transform="translate(-78.415 -184.559)" fill="#cbc5e0"/>
        <path id="Trazado_123913" data-name="Trazado 123913" d="M84,389.85v2.816l9.617.838s.781-3.112.746-3.112Z" transform="translate(-78.024 -226.426)" fill="#26aab7"/>
        <path id="Trazado_123914" data-name="Trazado 123914" d="M132.583,268.97c-2.816,9.9-6.456,22.422-8.385,28.991-.092.317-.19.648-.289,1,.584-10.926,2.344-29.244,7.807-30.033a2,2,0,0,1,.866.042Z" transform="translate(-89.838 -190.624)" opacity="0.3"/>
        <path id="Trazado_123915" data-name="Trazado 123915" d="M131.625,248.576s-1.7,30.089-1.676,44.3c.035,13.242.218,58.045.218,58.045l7.681-.148s4.435-45.7,5.512-59.178c1.028-12.756,3.752-43.078,3.752-43.078Z" transform="translate(-91.625 -184.592)" fill="#26aab7"/>
        <path id="Trazado_123916" data-name="Trazado 123916" d="M131.625,248.576s-1.7,30.089-1.676,44.3c.035,13.242.218,58.045.218,58.045l7.681-.148s4.435-45.7,5.512-59.178c1.028-12.756,3.752-43.078,3.752-43.078Z" transform="translate(-91.625 -184.592)" fill="#cbc5e0"/>
        <path id="Trazado_123917" data-name="Trazado 123917" d="M128.57,389.968l.317,2.816,9.335-.183s.373-3.161.338-3.161Z" transform="translate(-91.217 -226.304)" fill="#26aab7"/>
        <path id="Trazado_123918" data-name="Trazado 123918" d="M172.22,184.062l2.33-1.612c.535,2.534,2.943,4.513,4.773,5.688.873.563,1.2,1.844.577,2.274l-1.514,1.056C176.55,192.735,172.22,184.062,172.22,184.062Z" transform="translate(-104.138 -165.035)" fill="#26aab7"/>
        <path id="Trazado_123919" data-name="Trazado 123919" d="M168.383,181.16l5.336-3.7a3.837,3.837,0,0,0,.972-5.329h0a3.851,3.851,0,0,0-5.336-.972l-5.336,3.7a3.837,3.837,0,0,0-.964,5.329h0a3.837,3.837,0,0,0,5.329.972Z" transform="translate(-101.223 -161.492)" fill="#26aab7"/>
        <path id="Trazado_123920" data-name="Trazado 123920" d="M168.383,181.16l5.336-3.7a3.837,3.837,0,0,0,.972-5.329h0a3.851,3.851,0,0,0-5.336-.972l-5.336,3.7a3.837,3.837,0,0,0-.964,5.329h0a3.837,3.837,0,0,0,5.329.972Z" transform="translate(-101.223 -161.492)" opacity="0.3"/>
        <path id="Trazado_123921" data-name="Trazado 123921" d="M187.032,171.623l-10.011,4.224c-.788.549-7.871-9.666-7.04-10.215l7.462-7.892Z" transform="translate(-103.455 -157.721)" fill="#26aab7"/>
        <path id="Trazado_123922" data-name="Trazado 123922" d="M184.62,165.18c2.661,3.83,5.139,6.716,5.54,6.435s-1.408-3.612-4.083-7.448-5.139-6.716-5.54-6.435S181.966,161.344,184.62,165.18Z" transform="translate(-106.583 -157.713)" fill="#26aab7"/>
        <path id="Trazado_123923" data-name="Trazado 123923" d="M184.62,165.18c2.661,3.83,5.139,6.716,5.54,6.435s-1.408-3.612-4.083-7.448-5.139-6.716-5.54-6.435S181.966,161.344,184.62,165.18Z" transform="translate(-106.583 -157.713)" opacity="0.3"/>
        <path id="Trazado_123924" data-name="Trazado 123924" d="M188.652,166.1a2.278,2.278,0,0,0-2.457-.957c-.444.31-.282,1.324.366,2.26s1.542,1.408,1.985,1.133a1.929,1.929,0,0,0,.106-2.436Z" transform="translate(-108.2 -159.879)" fill="#26aab7"/>
        <path id="Trazado_123925" data-name="Trazado 123925" d="M171.16,188.753l.7-1.985a6.252,6.252,0,0,1,2.323-3.02l1.492-1.035a.648.648,0,0,1,.894.162,10.764,10.764,0,0,1,1.971,4.618,1.2,1.2,0,0,1-.493,1.084l-3.21,2.154c-.507.394-1.105.591-1.563.141Z" transform="translate(-103.824 -165.08)" fill="#b25b52"/>
        <path id="Trazado_123926" data-name="Trazado 123926" d="M169.779,190.822l-2.3,9.659c-.07.317-.155.62-.232.922-1.943,7.209-5.688,11.039-7.406,10.152s-5.5-5.111-5.5-5.111l4.273-3.372,1.225,1.028,6.688-14.446.95-2.013S170.476,187.619,169.779,190.822Z" transform="translate(-98.845 -166.571)" fill="#b25b52"/>
        <path id="Trazado_123927" data-name="Trazado 123927" d="M172.908,205.88l-.218.929h0C172.746,206.5,172.831,206.2,172.908,205.88Z" transform="translate(-104.277 -171.97)" fill="#b25b52"/>
        <path id="Trazado_123928" data-name="Trazado 123928" d="M151.764,197c3.914,3.2,6.336,10.018,6.336,10.018l-6.336,4.02s-8.307-5.892-7.66-11.489C144.57,195.261,146.928,193.029,151.764,197Z" transform="translate(-95.805 -168.729)" fill="#263238"/>
        <path id="Trazado_123929" data-name="Trazado 123929" d="M149.8,213.354l2.239,2.38,8.716-5.6-1.352-2.76Z" transform="translate(-97.501 -172.411)" fill="#26aab7"/>
      </g>
      <path id="Trazado_123930" data-name="Trazado 123930" d="M196.29,157.664l4.541-10.884,3.612,1.992Z" transform="translate(-110.05 -146.78)" fill="#263238"/>
      <path id="Trazado_123931" data-name="Trazado 123931" d="M196.95,165.808l11.778-.669-.69-4.069Z" transform="translate(-110.245 -151.01)" fill="#263238"/>
      <path id="Trazado_123932" data-name="Trazado 123932" d="M201.13,157.988l9-10.468,3.562,3.914Z" transform="translate(-111.483 -146.999)" fill="#263238"/>
      <path id="Trazado_123933" data-name="Trazado 123933" d="M73.79,158.48v9.532l8.941,4.731V162.4Z" transform="translate(-73.79 -150.243)" fill="#26aab7"/>
      <path id="Trazado_123934" data-name="Trazado 123934" d="M73.79,158.48v9.532l8.941,4.731V162.4Z" transform="translate(-73.79 -150.243)" opacity="0.1"/>
      <path id="Trazado_123935" data-name="Trazado 123935" d="M95.424,158.48v9.532l-8.934,4.731V162.4Z" transform="translate(-77.549 -150.243)" fill="#26aab7"/>
      <path id="Trazado_123936" data-name="Trazado 123936" d="M95.424,158.48v9.532l-8.934,4.731V162.4Z" transform="translate(-77.549 -150.243)" opacity="0.2"/>
      <path id="Trazado_123937" data-name="Trazado 123937" d="M73.79,156.592l8.941,3.921,8.934-3.921L82.731,152.1Z" transform="translate(-73.79 -148.355)" fill="#26aab7"/>
      <path id="Trazado_123938" data-name="Trazado 123938" d="M92.17,161.3v5.921l.465-.774.282.415.3-.669.3.415V160.72Z" transform="translate(-79.23 -150.906)" fill="#263238"/>
      <path id="Trazado_123939" data-name="Trazado 123939" d="M88.34,159.519l-9.11-4.083,1.471-.746,8.976,4.245Z" transform="translate(-75.4 -149.121)" fill="#263238"/>
    </g>
    <g id="freepik--Device--inject-398" transform="translate(108.578 258.779)">
      <path id="Trazado_123940" data-name="Trazado 123940" d="M271.727,400.819H255.31c0-1.119,2.112-2.112,5.055-2.5v-7.04h6.3v7.04C269.636,398.721,271.727,399.693,271.727,400.819Z" transform="translate(-184.15 -358.318)" fill="#26aab7"/>
      <path id="Trazado_123941" data-name="Trazado 123941" d="M271.727,400.819H255.31c0-1.119,2.112-2.112,5.055-2.5v-7.04h6.3v7.04C269.636,398.721,271.727,399.693,271.727,400.819Z" transform="translate(-184.15 -358.318)" opacity="0.4"/>
      <rect id="Rectángulo_30119" data-name="Rectángulo 30119" width="53.349" height="28.688" transform="translate(52.8 6.294)" fill="#26aab7"/>
      <rect id="Rectángulo_30120" data-name="Rectángulo 30120" width="53.349" height="28.688" transform="translate(52.8 6.294)" opacity="0.2"/>
      <rect id="Rectángulo_30121" data-name="Rectángulo 30121" width="50.66" height="24.112" transform="translate(54.039 7.604)" opacity="0.2"/>
      <rect id="Rectángulo_30122" data-name="Rectángulo 30122" width="6.301" height="1.521" transform="translate(76.215 34.982)" opacity="0.2"/>
      <path id="Trazado_123942" data-name="Trazado 123942" d="M262.49,366.37V376.8l9.258-5.217Z" transform="translate(-186.275 -350.945)" fill="#fff"/>
      <path id="Trazado_123943" data-name="Trazado 123943" d="M219.542,347.078a1.471,1.471,0,0,1-1.408,1.324H208.77a1.183,1.183,0,0,1-1.2-1.324l.12-1.408H219.7Z" transform="translate(-170.015 -344.818)" fill="#26aab7"/>
      <path id="Trazado_123944" data-name="Trazado 123944" d="M196.581,348.4l-3.59,40.952a3.555,3.555,0,0,0,3.6,3.942h17.044a4.393,4.393,0,0,0,4.287-3.942L221.5,348.4a3.555,3.555,0,0,0-3.6-3.942H200.862a4.393,4.393,0,0,0-4.28,3.942Z" transform="translate(-165.697 -344.459)" fill="#26aab7"/>
      <g id="Grupo_55334" data-name="Grupo 55334" transform="translate(27.273)" opacity="0.4">
        <path id="Trazado_123945" data-name="Trazado 123945" d="M219.542,347.078a1.471,1.471,0,0,1-1.408,1.324H208.77a1.183,1.183,0,0,1-1.2-1.324l.12-1.408H219.7Z" transform="translate(-197.288 -344.818)"/>
        <path id="Trazado_123946" data-name="Trazado 123946" d="M196.581,348.4l-3.59,40.952a3.555,3.555,0,0,0,3.6,3.942h17.044a4.393,4.393,0,0,0,4.287-3.942L221.5,348.4a3.555,3.555,0,0,0-3.6-3.942H200.862a4.393,4.393,0,0,0-4.28,3.942Z" transform="translate(-192.97 -344.459)" fill="#26aab7"/>
      </g>
      <path id="Trazado_123947" data-name="Trazado 123947" d="M199.662,345.66h17.044a2.816,2.816,0,0,1,2.816,3.119l-3.576,40.952a3.52,3.52,0,0,1-3.393,3.119H195.529a2.816,2.816,0,0,1-2.816-3.119l3.583-40.952A3.471,3.471,0,0,1,199.662,345.66Z" transform="translate(-165.616 -344.815)" fill="#26aab7"/>
      <path id="Trazado_123948" data-name="Trazado 123948" d="M199.662,345.66h17.044a2.816,2.816,0,0,1,2.816,3.119l-3.576,40.952a3.52,3.52,0,0,1-3.393,3.119H195.529a2.816,2.816,0,0,1-2.816-3.119l3.583-40.952A3.471,3.471,0,0,1,199.662,345.66Z" transform="translate(-165.616 -344.815)" fill="#fff" opacity="0.3"/>
      <path id="Trazado_123949" data-name="Trazado 123949" d="M195.085,348.432,191.5,389.384a3.562,3.562,0,0,0,3.6,3.942h17.044a4.4,4.4,0,0,0,4.287-3.942l3.576-40.952a3.555,3.555,0,0,0-3.6-3.942H199.372A4.393,4.393,0,0,0,195.085,348.432Zm.824,0a3.471,3.471,0,0,1,3.393-3.119h17.044a2.816,2.816,0,0,1,2.816,3.119l-3.576,40.952a3.52,3.52,0,0,1-3.393,3.119H195.169a2.816,2.816,0,0,1-2.816-3.119Z" transform="translate(-165.256 -344.468)" fill="#fff"/>
      <path id="Trazado_123950" data-name="Trazado 123950" d="M218.213,345.69h0a2.387,2.387,0,0,1-2.33,2.112h-7.709a1.936,1.936,0,0,1-1.957-2.112h12.01Z" transform="translate(-169.616 -344.824)" fill="#fff"/>
      <path id="Trazado_123951" data-name="Trazado 123951" d="M208.75,381.3l-3.3-.648c.627,3.013-1.056,6.336-2.485,8.448-.7,1.028-.422,2.584.451,2.76l2.154.422C208.173,392.808,208.75,381.3,208.75,381.3Z" transform="translate(-168.537 -355.172)" fill="#26aab7"/>
      <path id="Trazado_123952" data-name="Trazado 123952" d="M208.48,377.521l-7.575-1.485a4.569,4.569,0,0,1-3.59-5.35h0a4.562,4.562,0,0,1,5.343-3.59l7.575,1.485a4.569,4.569,0,0,1,3.6,5.343h0A4.576,4.576,0,0,1,208.48,377.521Z" transform="translate(-166.958 -351.134)" fill="#26aab7"/>
      <path id="Trazado_123953" data-name="Trazado 123953" d="M208.48,377.521l-7.575-1.485a4.569,4.569,0,0,1-3.59-5.35h0a4.562,4.562,0,0,1,5.343-3.59l7.575,1.485a4.569,4.569,0,0,1,3.6,5.343h0A4.576,4.576,0,0,1,208.48,377.521Z" transform="translate(-166.958 -351.134)" opacity="0.3"/>
      <path id="Trazado_123954" data-name="Trazado 123954" d="M183.92,375.848l12.911-.169c1.119.218,3.964-14.277,2.816-14.5l-11.891-5.034Z" transform="translate(-163.018 -347.92)" fill="#26aab7"/>
      <path id="Trazado_123955" data-name="Trazado 123955" d="M186.775,366.2c-1.063,5.435-2.394,9.757-2.964,9.645s-.169-4.611.9-10.053,2.394-9.757,2.964-9.645S187.845,360.76,186.775,366.2Z" transform="translate(-162.909 -347.919)" fill="#26aab7"/>
      <path id="Trazado_123956" data-name="Trazado 123956" d="M186.775,366.2c-1.063,5.435-2.394,9.757-2.964,9.645s-.169-4.611.9-10.053,2.394-9.757,2.964-9.645S187.845,360.76,186.775,366.2Z" transform="translate(-162.909 -347.919)" opacity="0.3"/>
      <path id="Trazado_123957" data-name="Trazado 123957" d="M183.531,369.2c.26-1.331,1.591-2.337,2.225-2.218s.936,1.3.7,2.633-.986,2.309-1.619,2.189A2.327,2.327,0,0,1,183.531,369.2Z" transform="translate(-162.89 -351.124)" fill="#26aab7"/>
      <path id="Trazado_123958" data-name="Trazado 123958" d="M212.336,384.739,210.6,382.9a7.484,7.484,0,0,0-3.971-2.182l-2.112-.415a.774.774,0,0,0-.9.6,12.83,12.83,0,0,0,.056,5.97,1.408,1.408,0,0,0,1.049.95l4.527.817c.739.183,1.485.113,1.767-.6Z" transform="translate(-168.751 -355.065)" fill="#ffc0ba"/>
      <path id="Trazado_123959" data-name="Trazado 123959" d="M214.388,391.165l7.793,10.328.774-8.877-7.575-6.005S212.093,388.018,214.388,391.165Z" transform="translate(-171.796 -356.936)" fill="#ffc0ba"/>
      <path id="Trazado_123960" data-name="Trazado 123960" d="M173.865,363.837,164.9,356.17l-2.316,3.414Z" transform="translate(-156.702 -347.926)" fill="#fff"/>
      <path id="Trazado_123961" data-name="Trazado 123961" d="M175.471,372.32l-10.806,4.717L163.44,373.1Z" transform="translate(-156.956 -352.706)" fill="#fff"/>
      <path id="Trazado_123962" data-name="Trazado 123962" d="M168.4,367.16l-12.756-5.28-1.415,5.1Z" transform="translate(-154.23 -349.616)" fill="#fff"/>
    </g>
    <g id="freepik--Target--inject-398" transform="translate(140.631 130.236)">
      <path id="Trazado_123963" data-name="Trazado 123963" d="M211.6,231.549l-2.3,12.067h2.872l4.02-9.659S215.9,230.972,211.6,231.549Z" transform="translate(-202.584 -182.473)" fill="#26aab7"/>
      <path id="Trazado_123964" data-name="Trazado 123964" d="M246.327,231.549l2.3,12.067H245.75l-4.02-9.659S242.019,230.972,246.327,231.549Z" transform="translate(-212.183 -182.473)" fill="#26aab7"/>
      <path id="Trazado_123965" data-name="Trazado 123965" d="M211.6,231.549l-2.3,12.067h2.872l4.02-9.659S215.9,230.972,211.6,231.549Z" transform="translate(-202.584 -182.473)" opacity="0.3"/>
      <path id="Trazado_123966" data-name="Trazado 123966" d="M246.327,231.549l2.3,12.067H245.75l-4.02-9.659S242.019,230.972,246.327,231.549Z" transform="translate(-212.183 -182.473)" opacity="0.3"/>
      <circle id="Elipse_4213" data-name="Elipse 4213" cx="21.549" cy="21.549" r="21.549" transform="translate(0 12.503)" fill="#c1507f"/>
      <circle id="Elipse_4214" data-name="Elipse 4214" cx="16.65" cy="16.65" r="16.65" transform="translate(5.174 17.403)" fill="#fff"/>
      <circle id="Elipse_4215" data-name="Elipse 4215" cx="13.376" cy="13.376" r="13.376" transform="translate(8.173 20.676)" fill="#c1507f"/>
      <circle id="Elipse_4216" data-name="Elipse 4216" cx="10.335" cy="10.335" r="10.335" transform="translate(11.215 23.718)" fill="#fff"/>
      <circle id="Elipse_4217" data-name="Elipse 4217" cx="2.985" cy="2.985" r="2.985" transform="translate(18.564 31.068)" fill="#c1507f"/>
      <path id="Trazado_123967" data-name="Trazado 123967" d="M261.4,161.87v5.463l-5.878,7.04h-.007l-1.105-4.266Z" transform="translate(-215.936 -161.87)" fill="#26aab7"/>
      <rect id="Rectángulo_30123" data-name="Rectángulo 30123" width="37.27" height="0.803" transform="translate(21.243 33.796) rotate(-50.07)" fill="#263238"/>
      <path id="Trazado_123968" data-name="Trazado 123968" d="M266.74,169.729l-5.829,6.941H255.99l5.878-7.04Z" transform="translate(-216.404 -164.167)" fill="#26aab7"/>
      <path id="Trazado_123969" data-name="Trazado 123969" d="M266.74,169.729l-5.829,6.941H255.99l5.878-7.04Z" transform="translate(-216.404 -164.167)" opacity="0.2"/>
    </g>
    <g id="freepik--Money--inject-398" transform="translate(183.8 160.729)">
      <path id="Trazado_123970" data-name="Trazado 123970" d="M271.213,211.39l-1.873-3.52s1.408-2.584,3.161-2.682a5.982,5.982,0,0,1,3.52,1.408l2.2-.915L276.57,211.9S273.571,214.382,271.213,211.39Z" transform="translate(-263.525 -205.183)" fill="#26aab7"/>
      <path id="Trazado_123971" data-name="Trazado 123971" d="M283.291,226.83c0,7.9-4.97,11.109-11.1,11.109A11.109,11.109,0,0,1,261.08,226.83c0-6.132,4.97-13.96,11.109-13.96C272.189,212.87,283.291,219.6,283.291,226.83Z" transform="translate(-261.08 -207.459)" fill="#26aab7"/>
      <path id="Trazado_123972" data-name="Trazado 123972" d="M283.291,226.83c0,7.9-4.97,11.109-11.1,11.109A11.109,11.109,0,0,1,261.08,226.83c0-6.132,4.97-13.96,11.109-13.96C272.189,212.87,283.291,219.6,283.291,226.83Z" transform="translate(-261.08 -207.459)" opacity="0.2"/>
      <path id="Trazado_123973" data-name="Trazado 123973" d="M279.121,231.529c0,1.591-1.281,2.661-3.288,2.816l-.268,1.316h-1.2l.26-1.316a5.744,5.744,0,0,1-2.76-.929l.81-1.485a4.6,4.6,0,0,0,2.267.852l.408-2.028c-1.119-.338-2.344-.781-2.344-2.232,0-1.6,1.309-2.675,3.351-2.816l.26-1.316h1.2l-.268,1.331a5.244,5.244,0,0,1,2.211.7l-.7,1.492a3.921,3.921,0,0,0-1.788-.627l-.422,2.112C277.931,229.747,279.121,230.142,279.121,231.529Zm-3.436-2.485.352-1.725c-.7.134-1.07.5-1.084.957S275.256,228.874,275.686,229.043Zm1.492,2.816c0-.352-.275-.563-.7-.7l-.324,1.64C276.805,232.627,277.178,232.3,277.178,231.859Z" transform="translate(-264.274 -210.869)" fill="#fff"/>
    </g>
  </g>
</svg>
