<svg xmlns="http://www.w3.org/2000/svg" width="720" height="407.857" viewBox="0 0 720 407.857">
  <g id="monitoreo-pana" transform="translate(-36.213 -47.393)">
    <g id="freepik--background-complete--inject-79" transform="translate(36.213 47.393)">
      <rect id="Rectángulo_29894" data-name="Rectángulo 29894" width="5.62" height="42.05" transform="translate(459.496 257.417) rotate(-90)" fill="#e0e0e0"/>
      <path id="Trazado_121805" data-name="Trazado 121805" d="M472.53,299.42a13.428,13.428,0,0,1,0,5.26,12.94,12.94,0,0,1,0-5.26Z" transform="translate(-8.733 -47.393)" fill="#fafafa"/>
      <path id="Trazado_121806" data-name="Trazado 121806" d="M471.61,299.31a13.428,13.428,0,0,1,0,5.26,13.429,13.429,0,0,1,0-5.26Z" transform="translate(-8.791 -47.393)" fill="#fafafa"/>
      <path id="Trazado_121807" data-name="Trazado 121807" d="M505.59,299.42a12.94,12.94,0,0,1,0,5.26A13.429,13.429,0,0,1,505.59,299.42Z" transform="translate(-6.649 -47.393)" fill="#fafafa"/>
      <ellipse id="Elipse_4172" data-name="Elipse 4172" cx="0.26" cy="2.63" rx="0.26" ry="2.63" transform="translate(497.713 251.917)" fill="#fafafa"/>
      <path id="Trazado_121808" data-name="Trazado 121808" d="M499.18,302.17c0,.14-4.81.26-10.75.26s-10.76-.12-10.76-.26a107.162,107.162,0,0,1,10.76-.27,106.873,106.873,0,0,1,10.75.27Z" transform="translate(-7.502 -47.393)" fill="#fafafa"/>
      <rect id="Rectángulo_29895" data-name="Rectángulo 29895" width="11.23" height="42.05" transform="translate(459.304 288.317) rotate(-90)" fill="#e0e0e0"/>
      <path id="Trazado_121809" data-name="Trazado 121809" d="M509.2,332.55a1,1,0,0,1-.23.13c-.15.08-.39.19-.7.32a12,12,0,0,1-2.85.82,7.38,7.38,0,0,1-4.62-.66,6.11,6.11,0,0,1-2.2-2,4.64,4.64,0,0,1-.77-3.24,3.38,3.38,0,0,1,.78-1.67,2.17,2.17,0,0,1,1.77-.8,2.53,2.53,0,0,1,1.78,1,3.47,3.47,0,0,1,.82,1.91,5.13,5.13,0,0,1-1.45,4,6.44,6.44,0,0,1-4,2,10.83,10.83,0,0,1-4.7-.58A8.69,8.69,0,0,1,488.7,331a4.49,4.49,0,0,1-1-2.42,3.15,3.15,0,0,1,.9-2.53,2,2,0,0,1,1.31-.57,2.36,2.36,0,0,1,1.38.38,3.64,3.64,0,0,1,1.54,2.27,5.29,5.29,0,0,1-1.65,4.95,8.3,8.3,0,0,1-4.74,1.93,11.77,11.77,0,0,1-4.91-.49,6.78,6.78,0,0,1-3.73-2.9,5,5,0,0,1-.47-4.46,2.34,2.34,0,0,1,1.72-1.45,2.66,2.66,0,0,1,2.12.51,3.52,3.52,0,0,1,1,3.78,6.57,6.57,0,0,1-2.12,3,9.64,9.64,0,0,1-5.77,2.24,9.26,9.26,0,0,1-4.56-1,9,9,0,0,1-2.39-1.77,5.752,5.752,0,0,1-.5-.58c-.11-.14-.16-.21-.15-.22a10.7,10.7,0,0,0,3.13,2.39,9.15,9.15,0,0,0,4.46.92,9.26,9.26,0,0,0,5.54-2.23,6.16,6.16,0,0,0,2-2.81,3.09,3.09,0,0,0-.88-3.32,2.25,2.25,0,0,0-1.76-.42,1.88,1.88,0,0,0-1.38,1.19,4.51,4.51,0,0,0,.46,4,6.26,6.26,0,0,0,3.48,2.67,11,11,0,0,0,4.69.45,7.71,7.71,0,0,0,4.43-1.8,4.77,4.77,0,0,0,1.5-4.44,3.13,3.13,0,0,0-1.31-1.94,1.61,1.61,0,0,0-2.05.13,2.6,2.6,0,0,0-.74,2.1,4,4,0,0,0,.85,2.15,8.18,8.18,0,0,0,3.85,2.59,10.31,10.31,0,0,0,4.47.57,5.93,5.93,0,0,0,3.76-1.8,4.7,4.7,0,0,0,1.35-3.62,2.69,2.69,0,0,0-2.18-2.52,1.83,1.83,0,0,0-1.46.66,3.12,3.12,0,0,0-.7,1.48,4.29,4.29,0,0,0,.68,3,5.84,5.84,0,0,0,2.06,1.91,7.23,7.23,0,0,0,4.45.71,13.26,13.26,0,0,0,2.84-.71A6.339,6.339,0,0,1,509.2,332.55Z" transform="translate(-7.291 -47.393)" fill="#fafafa"/>
      <rect id="Rectángulo_29896" data-name="Rectángulo 29896" width="19.49" height="38.29" transform="translate(463.134 277.067) rotate(-90)" fill="#ebebeb"/>
      <path id="Trazado_121810" data-name="Trazado 121810" d="M476.73,305.64a82.3,82.3,0,0,1,.27,9.43,82.31,82.31,0,0,1-.27,9.43,86.788,86.788,0,0,1-.26-9.43,86.789,86.789,0,0,1,.26-9.43Z" transform="translate(-8.467 -47.393)" fill="#e0e0e0"/>
      <path id="Trazado_121811" data-name="Trazado 121811" d="M479.64,305.39a84.65,84.65,0,0,1,.26,9.31,84.771,84.771,0,0,1-.26,9.32,80.39,80.39,0,0,1-.27-9.32,80.291,80.291,0,0,1,.27-9.31Z" transform="translate(-8.285 -47.393)" fill="#e0e0e0"/>
      <path id="Trazado_121812" data-name="Trazado 121812" d="M504.33,304.77a88.94,88.94,0,0,1,.27,9.8,88.994,88.994,0,0,1-.27,9.81,93.909,93.909,0,0,1-.26-9.81,93.784,93.784,0,0,1,.26-9.8Z" transform="translate(-6.728 -47.393)" fill="#e0e0e0"/>
      <path id="Trazado_121813" data-name="Trazado 121813" d="M500.92,305a84.5,84.5,0,0,1,.27,9.55,84.6,84.6,0,0,1-.27,9.56,86.184,86.184,0,0,1-.26-9.56A86.065,86.065,0,0,1,500.92,305Z" transform="translate(-6.943 -47.393)" fill="#e0e0e0"/>
      <rect id="Rectángulo_29897" data-name="Rectángulo 29897" width="258.14" height="171.23" transform="translate(227.155 35.667)" fill="#e0e0e0"/>
      <path id="Trazado_121814" data-name="Trazado 121814" d="M36.22,95.57A43.74,43.74,0,1,1,80.66,138.8,43.74,43.74,0,0,1,36.22,95.57Zm64.64-1a21.394,21.394,0,1,1,0-.05Z" transform="translate(-36.213 -47.393)" fill="#f5f5f5"/>
      <path id="Trazado_121815" data-name="Trazado 121815" d="M36.22,95.57a43.9,43.9,0,0,1,43-44.64l.37,22.92a21,21,0,1,0,.67,42l.37,22.93A43.89,43.89,0,0,1,36.22,95.57Z" transform="translate(-36.213 -47.393)" fill="#e0e0e0"/>
      <path id="Trazado_121816" data-name="Trazado 121816" d="M75.32,47.4c28.22-.46,50.72,21.44,51.17,49.78l-26.7.43c-.21-13.55-10.52-22.08-24-21.86Z" transform="translate(-36.213 -47.393)" fill="#ebebeb"/>
      <path id="Trazado_121817" data-name="Trazado 121817" d="M245.45,448c-1.12-1-3.63-4-1.69-7.57.7-1.3,2.21-1.94,3.57-2.52a14.372,14.372,0,0,0,3.93-2c2.12-1.81,2.71-4.82,4.12-7.23,1.62-2.77,4.65-4.85,7.84-4.7,3.66.17,6.71,3.15,8.1,6.56s1.43,7.2,1.46,10.88c0,2-.08,4.33-1.57,5.7s-3.45,1.28-5.32,1.23l-20-.62" transform="translate(-22.591 -47.393)" fill="#f5f5f5"/>
      <path id="Trazado_121818" data-name="Trazado 121818" d="M283.71,393h-52.6l9.47,56.5a6.31,6.31,0,0,0,4.49,5l.19.05a2.953,2.953,0,0,1,.47.12,7.279,7.279,0,0,0,1.07.13v.05h23.71a6.69,6.69,0,0,0,1.28-.13,6.33,6.33,0,0,0,5.32-5.52l4.57-38.93.21-1.55h0l1.81-15.41Zm-9.93,36h-5.39l.54-16.39h6.25Zm1.93-16.39h5.17L279,429h-4.64Zm-15.42,34.57L260,432.94h7.77l-.47,14.25Zm-8.41-14.25h7.56l.33,14.25H253Zm.59,14.25h-6.33c-.61-3.85-1.39-8.85-2.24-14.25h7.46ZM251.58,429l-1.28-16.39H259l.38,16.39Zm8.29,0-.38-16.39h8.92L267.86,429Zm-.47-20.33-.35-15.18h10l-.5,15.18Zm-.52,0H250l-1.18-15.18h9.71Zm-9.4,0h-9.4c-.33-2.09-.65-4.08-.93-5.86-1-6.14-1.35-8.45-1.56-9.32H248.3Zm.3,3.94L251.06,429h-7.77c-.27-1.66-.53-3.34-.8-5-.6-3.87-1.21-7.74-1.79-11.36Zm-7,16.39H237.7l-2.75-16.39h5.24c.81,5.07,1.67,10.71,2.57,16.39Zm.61,3.93c.78,4.93,1.54,9.79,2.24,14.25h-4.88l-2.39-14.25Zm24.41,14.25.48-14.25h5.19l-1.22,14.25Zm1.28-38.51.51-15.18h7.25l-1.3,15.18Zm-32-15.18c.21,1.1,1.17,7.07,2.45,15.18h-5.28l-2.54-15.18Zm39.72,53.69h-4.06L274,432.94h4.52Zm4.52-38.51H276l1.3-15.18h5.78Z" transform="translate(-22.907 -47.393)" fill="#e0e0e0"/>
      <rect id="Rectángulo_29898" data-name="Rectángulo 29898" width="11.33" height="45.24" transform="translate(659.45 62.347)" fill="#e0e0e0"/>
      <rect id="Rectángulo_29899" data-name="Rectángulo 29899" width="11.33" height="35.37" transform="translate(676.11 72.217)" fill="#e0e0e0"/>
      <rect id="Rectángulo_29900" data-name="Rectángulo 29900" width="11.33" height="27.29" transform="translate(693.02 80.297)" fill="#e0e0e0"/>
      <rect id="Rectángulo_29901" data-name="Rectángulo 29901" width="11.33" height="16.21" transform="translate(708.67 91.387)" fill="#e0e0e0"/>
      <path id="Trazado_121819" data-name="Trazado 121819" d="M695.33,211.25a39.18,39.18,0,0,0-55.09,1.86,38.63,38.63,0,0,0,1.87,54.77,39.19,39.19,0,0,0,55.1-1.87,38.62,38.62,0,0,0-1.88-54.76Zm-13,41a18.74,18.74,0,0,1-26.34.89,18.48,18.48,0,0,1-.9-26.19,18.76,18.76,0,0,1,26.35-.89,18.47,18.47,0,0,1,.9,26.15Z" transform="translate(6.44 -47.393)" fill="#f5f5f5"/>
      <path id="Trazado_121820" data-name="Trazado 121820" d="M640.24,213.11a39.18,39.18,0,0,1,55.09-1.86L681.45,226a18.76,18.76,0,0,0-26.35.89,18.48,18.48,0,0,0,.9,26.19l-13.89,14.78a38.63,38.63,0,0,1-1.87-54.75Z" transform="translate(6.44 -47.393)" fill="#ebebeb"/>
      <path id="Trazado_121821" data-name="Trazado 121821" d="M693.74,204.91c19.24,17.87,21.55,46.92,3.57,66L677.79,254c8.6-9.14,10.46-21.35,1.26-29.9Z" transform="translate(6.44 -47.393)" fill="#fafafa"/>
      <rect id="Rectángulo_29902" data-name="Rectángulo 29902" width="110.45" height="31.11" rx="3.23" transform="translate(138.907 227.947)" fill="#e0e0e0"/>
      <ellipse id="Elipse_4173" data-name="Elipse 4173" cx="6.73" cy="6.76" rx="6.73" ry="6.76" transform="translate(149.513 237.707)" fill="#f5f5f5"/>
      <path id="Trazado_121822" data-name="Trazado 121822" d="M187.21,289.56a27.84,27.84,0,0,1-3.62,3.91c-.3.3-.6.58-.89.86l-.18.18-.17-.18a18.8,18.8,0,0,1-2.7-3.07,19.431,19.431,0,0,1,3.06,2.71h-.36l.88-.87a27.63,27.63,0,0,1,3.98-3.54Z" transform="translate(-27.079 -47.393)" fill="#e0e0e0"/>
      <path id="Trazado_121823" data-name="Trazado 121823" d="M265,288.52c0,.14-14.83.26-33.11.26s-33.11-.12-33.11-.26,14.82-.26,33.11-.26S265,288.37,265,288.52Z" transform="translate(-24.867 -47.393)" fill="#fafafa"/>
      <path id="Trazado_121824" data-name="Trazado 121824" d="M265.27,294.15c0,.15-14.83.26-33.11.26s-33.11-.11-33.11-.26,14.82-.26,33.11-.26S265.27,294,265.27,294.15Z" transform="translate(-24.848 -47.393)" fill="#fafafa"/>
      <path id="Trazado_121825" data-name="Trazado 121825" d="M614.07,298.25l-2.02,157h90.33V300.39Z" transform="translate(6.44 -47.393)" fill="#f5f5f5"/>
      <path id="Trazado_121826" data-name="Trazado 121826" d="M662.74,299.43l-.8,155.82h40.44V300.39Z" transform="translate(6.44 -47.393)" fill="#e0e0e0"/>
      <path id="Trazado_121827" data-name="Trazado 121827" d="M616.91,301.08v32.11H659.7V302.6Z" transform="translate(6.44 -47.393)" fill="#e0e0e0"/>
      <path id="Trazado_121828" data-name="Trazado 121828" d="M631.66,309.91v4.75h13.09v-5.18Z" transform="translate(6.44 -47.393)" fill="#f5f5f5"/>
      <rect id="Rectángulo_29903" data-name="Rectángulo 29903" width="13.52" height="1.94" transform="translate(638.1 271.247)" fill="#f5f5f5"/>
      <path id="Trazado_121829" data-name="Trazado 121829" d="M616.91,413.61v32.11H659.7V415.13Z" transform="translate(6.44 -47.393)" fill="#e0e0e0"/>
      <path id="Trazado_121830" data-name="Trazado 121830" d="M631.66,422.44v4.75h13.09v-5.18Z" transform="translate(6.44 -47.393)" fill="#f5f5f5"/>
      <rect id="Rectángulo_29904" data-name="Rectángulo 29904" width="13.52" height="1.94" transform="translate(638.1 383.777)" fill="#f5f5f5"/>
      <path id="Trazado_121831" data-name="Trazado 121831" d="M616.91,337.28v32.11H659.7V338.8Z" transform="translate(6.44 -47.393)" fill="#e0e0e0"/>
      <path id="Trazado_121832" data-name="Trazado 121832" d="M631.66,346.11v4.75h13.09v-5.18Z" transform="translate(6.44 -47.393)" fill="#f5f5f5"/>
      <rect id="Rectángulo_29905" data-name="Rectángulo 29905" width="13.52" height="1.94" transform="translate(638.1 307.447)" fill="#f5f5f5"/>
      <rect id="Rectángulo_29906" data-name="Rectángulo 29906" width="42.79" height="32.11" transform="translate(622.79 328.337)" fill="#e0e0e0"/>
      <path id="Trazado_121833" data-name="Trazado 121833" d="M631.39,390.2v4.46H643.7V389.8Z" transform="translate(6.44 -47.393)" fill="#f5f5f5"/>
      <rect id="Rectángulo_29907" data-name="Rectángulo 29907" width="12.71" height="1.82" transform="translate(637.83 351.017)" fill="#f5f5f5"/>
    </g>
    <g id="freepik--Floor--inject-79" transform="translate(44.22 453.63)">
      <path id="Trazado_121834" data-name="Trazado 121834" d="M748.434,453.89c0,.15-157.659.26-352.086.26s-352.128-.11-352.128-.26,157.627-.26,352.128-.26S748.434,453.75,748.434,453.89Z" transform="translate(-44.22 -453.63)" fill="#263238"/>
    </g>
    <g id="freepik--Screens--inject-79" transform="translate(81.3 74.3)">
      <rect id="Rectángulo_29908" data-name="Rectángulo 29908" width="267.33" height="175.35" transform="translate(165.483 13.05)" fill="#fafafa"/>
      <path id="Trazado_121835" data-name="Trazado 121835" d="M494.25,262.7c0-1.69-.08-68.4-.21-175.35l.21.21H226.94l.26-.26V262.65l-.24-.24,267.33.24-267.33.24h-.24V87.04H227l267.31.06h.21v.2C494.33,194.3,494.25,261,494.25,262.7Z" transform="translate(-61.434 -74.3)" fill="#263238"/>
      <path id="Trazado_121836" data-name="Trazado 121836" d="M308.62,184.18l26.29.37c-.2,14-12,25.43-26.29,25.43h-.16Z" transform="translate(-63.797 -74.3)" fill="rgba(193,80,127,0.5)"/>
      <path id="Trazado_121837" data-name="Trazado 121837" d="M352.1,219.79a3.222,3.222,0,0,1-.57,0h-1.6l-5.88.07H344l-.05-.06c-2.35-2.95-5.37-6.77-8.67-10.93l-7-8.91.14.06-7.74-.07-2.18.05a3.6,3.6,0,0,1-.77,0,4.688,4.688,0,0,1,.77-.05h2.16l7.74-.07h.08v.06l7,8.89,8.6,11-.12-.06,5.88.07h1.6A2.6,2.6,0,0,1,352.1,219.79Z" transform="translate(-62.818 -74.3)" fill="#263238"/>
      <path id="Trazado_121838" data-name="Trazado 121838" d="M361.53,222.82c0,.11-3.81.2-8.51.2s-8.51-.09-8.51-.2,3.81-.2,8.51-.2S361.53,222.71,361.53,222.82Z" transform="translate(-61.359 -74.3)" fill="#263238"/>
      <path id="Trazado_121839" data-name="Trazado 121839" d="M361.53,226c0,.11-3.81.2-8.51.2s-8.51-.09-8.51-.2,3.81-.2,8.51-.2A80.021,80.021,0,0,1,361.53,226Z" transform="translate(-61.359 -74.3)" fill="#263238"/>
      <path id="Trazado_121840" data-name="Trazado 121840" d="M304.46,180.44l-.37,25.8c-14.28-.2-25.93-11.78-25.93-25.8s11.87-25.79,26.3-25.79,26.3,11.64,26.3,25.79Z" transform="translate(-65.38 -74.3)" fill="#c1507f"/>
      <path id="Trazado_121841" data-name="Trazado 121841" d="M294.19,172a1.881,1.881,0,0,1-.45.1l-1.31.21-4.72.67h-.08l-.06-.06-6.3-6.13c-3-3-5.75-5.67-7.71-7.64l-2.3-2.35a6.854,6.854,0,0,1-.81-.9,6.418,6.418,0,0,1,.92.79l2.39,2.25c2,1.92,4.76,4.59,7.79,7.56l6.25,6.18h-.14l4.75-.52,1.31-.12a1.29,1.29,0,0,1,.47-.04Z" transform="translate(-66.797 -74.3)" fill="#263238"/>
      <path id="Trazado_121842" data-name="Trazado 121842" d="M263.79,154.78c0,.11-3.81.2-8.51.2s-8.5-.09-8.5-.2,3.8-.2,8.5-.2S263.79,154.67,263.79,154.78Z" transform="translate(-68.763 -74.3)" fill="#263238"/>
      <path id="Trazado_121843" data-name="Trazado 121843" d="M263.79,157.93c0,.11-3.81.2-8.51.2s-8.5-.09-8.5-.2,3.8-.2,8.5-.2S263.79,157.82,263.79,157.93Z" transform="translate(-68.763 -74.3)" fill="#263238"/>
      <path id="Trazado_121844" data-name="Trazado 121844" d="M396.45,129.48l-.1-16a20.5,20.5,0,0,0-13.23,5.16,19,19,0,0,0-6.37,16.6,22.121,22.121,0,0,0,.38,2.33.13.13,0,0,0,0,.06h0l19.31-4.35Z" transform="translate(-58.814 -74.3)" fill="#26aab7"/>
      <g id="Grupo_55265" data-name="Grupo 55265" transform="translate(317.797 39.18)" opacity="0.3">
        <path id="Trazado_121845" data-name="Trazado 121845" d="M396.45,129.48l-.1-16a20.5,20.5,0,0,0-13.23,5.16,19,19,0,0,0-6.37,16.6,22.121,22.121,0,0,0,.38,2.33.13.13,0,0,0,0,.06h0l19.31-4.35Z" transform="translate(-376.612 -113.48)" fill="#c1507f"/>
      </g>
      <path id="Trazado_121846" data-name="Trazado 121846" d="M416.36,124.55a19,19,0,0,0-15.59-10.91l-.61-.06H398.5l.11,16v3.76L418,137.53h0a18.569,18.569,0,0,0,.43-4.15,20.71,20.71,0,0,0-2.07-8.83Z" transform="translate(-57.144 -74.3)" fill="#26aab7"/>
      <g id="Grupo_55266" data-name="Grupo 55266" transform="translate(341.356 39.28)" opacity="0.3">
        <path id="Trazado_121847" data-name="Trazado 121847" d="M416.36,124.55a19,19,0,0,0-15.59-10.91l-.61-.06H398.5l.11,16v3.76L418,137.53h0a18.569,18.569,0,0,0,.43-4.15,20.71,20.71,0,0,0-2.07-8.83Z" transform="translate(-398.5 -113.58)" fill="rgba(193,80,127,0.5)"/>
      </g>
      <path id="Trazado_121848" data-name="Trazado 121848" d="M397.49,135.25l-19.32,4.35a19.8,19.8,0,0,0,38.66-.13l-19.32-4.22" transform="translate(-57.91 -74.3)" fill="#c1507f"/>
      <path id="Trazado_121849" data-name="Trazado 121849" d="M472.67,132.37c0,.14-10,.26-22.3.26s-22.31-.12-22.31-.26,10-.27,22.31-.27S472.67,132.22,472.67,132.37Z" transform="translate(-53.676 -74.3)" fill="#263238"/>
      <path id="Trazado_121850" data-name="Trazado 121850" d="M472.67,127.28c0,.14-10,.26-22.3.26s-22.31-.12-22.31-.26,10-.26,22.31-.26S472.67,127.14,472.67,127.28Z" transform="translate(-53.676 -74.3)" fill="#263238"/>
      <path id="Trazado_121851" data-name="Trazado 121851" d="M472.67,122.2c0,.14-10,.26-22.3.26s-22.31-.12-22.31-.26,10-.26,22.31-.26S472.67,122.05,472.67,122.2Z" transform="translate(-53.676 -74.3)" fill="#263238"/>
      <path id="Trazado_121852" data-name="Trazado 121852" d="M472.67,137.1c0,.14-10,.26-22.3.26s-22.31-.12-22.31-.26,10-.27,22.31-.27S472.67,137,472.67,137.1Z" transform="translate(-53.676 -74.3)" fill="#263238"/>
      <path id="Trazado_121853" data-name="Trazado 121853" d="M458.86,142.24c0,.15-6.86.26-15.32.26s-15.32-.11-15.32-.26,6.86-.26,15.32-.26S458.86,142.1,458.86,142.24Z" transform="translate(-54.366 -74.3)" fill="#263238"/>
      <rect id="Rectángulo_29909" data-name="Rectángulo 29909" width="4.59" height="51.31" transform="translate(322.226 104.75)" fill="#26aab7"/>
      <rect id="Rectángulo_29910" data-name="Rectángulo 29910" width="4.59" height="33.88" transform="translate(331.754 122.17)" fill="#26aab7"/>
      <rect id="Rectángulo_29911" data-name="Rectángulo 29911" width="4.59" height="45.19" transform="translate(341.281 111.12)" fill="#26aab7"/>
      <rect id="Rectángulo_29912" data-name="Rectángulo 29912" width="4.59" height="49.33" transform="translate(350.809 106.73)" fill="#26aab7"/>
      <rect id="Rectángulo_29913" data-name="Rectángulo 29913" width="4.59" height="32.84" transform="translate(360.326 123.21)" fill="#26aab7"/>
      <rect id="Rectángulo_29914" data-name="Rectángulo 29914" width="4.59" height="26.4" transform="translate(369.853 129.65)" fill="#26aab7"/>
      <rect id="Rectángulo_29915" data-name="Rectángulo 29915" width="4.59" height="46.04" transform="translate(379.381 110.01)" fill="#26aab7"/>
      <rect id="Rectángulo_29916" data-name="Rectángulo 29916" width="4.59" height="37.74" transform="translate(388.908 118.31)" fill="#26aab7"/>
      <rect id="Rectángulo_29917" data-name="Rectángulo 29917" width="4.59" height="44.37" transform="translate(398.436 111.68)" fill="#26aab7"/>
      <rect id="Rectángulo_29918" data-name="Rectángulo 29918" width="4.59" height="30.23" transform="translate(407.963 125.82)" fill="#26aab7"/>
      <rect id="Rectángulo_29919" data-name="Rectángulo 29919" width="4.59" height="35.98" transform="translate(417.491 120.07)" fill="#26aab7"/>
      <path id="Trazado_121854" data-name="Trazado 121854" d="M476.45,233.93c0,.1-21.79.19-48.67.19s-48.67-.09-48.67-.19,21.79-.19,48.67-.19S476.45,233.82,476.45,233.93Z" transform="translate(-54.983 -74.3)" fill="#263238"/>
      <path id="Trazado_121855" data-name="Trazado 121855" d="M387.84,238a32.39,32.39,0,0,1-6.82,0,30.7,30.7,0,0,1,6.82,0Z" transform="translate(-58.997 -74.3)" fill="#263238"/>
      <path id="Trazado_121856" data-name="Trazado 121856" d="M399.15,238.17a43.79,43.79,0,0,1-8.15,0,43.79,43.79,0,0,1,8.15,0Z" transform="translate(-58.201 -74.3)" fill="#263238"/>
      <path id="Trazado_121857" data-name="Trazado 121857" d="M408.8,238.17a43.79,43.79,0,0,1-8.15,0A43.792,43.792,0,0,1,408.8,238.17Z" transform="translate(-57.481 -74.3)" fill="#263238"/>
      <path id="Trazado_121858" data-name="Trazado 121858" d="M418.44,238.17a43.79,43.79,0,0,1-8.15,0,43.791,43.791,0,0,1,8.15,0Z" transform="translate(-56.762 -74.3)" fill="#263238"/>
      <path id="Trazado_121859" data-name="Trazado 121859" d="M428.09,238.17a43.79,43.79,0,0,1-8.15,0A43.792,43.792,0,0,1,428.09,238.17Z" transform="translate(-56.042 -74.3)" fill="#263238"/>
      <path id="Trazado_121860" data-name="Trazado 121860" d="M437.73,238.17a43.79,43.79,0,0,1-8.15,0,43.79,43.79,0,0,1,8.15,0Z" transform="translate(-55.323 -74.3)" fill="#263238"/>
      <path id="Trazado_121861" data-name="Trazado 121861" d="M447.38,238.17a43.79,43.79,0,0,1-8.15,0A43.792,43.792,0,0,1,447.38,238.17Z" transform="translate(-54.604 -74.3)" fill="#263238"/>
      <path id="Trazado_121862" data-name="Trazado 121862" d="M457,238.17a43.79,43.79,0,0,1-8.15,0A43.792,43.792,0,0,1,457,238.17Z" transform="translate(-53.886 -74.3)" fill="#263238"/>
      <path id="Trazado_121863" data-name="Trazado 121863" d="M466.67,238.17a43.79,43.79,0,0,1-8.15,0A43.792,43.792,0,0,1,466.67,238.17Z" transform="translate(-53.165 -74.3)" fill="#263238"/>
      <path id="Trazado_121864" data-name="Trazado 121864" d="M476.32,238.17a43.791,43.791,0,0,1-8.15,0,43.792,43.792,0,0,1,8.15,0Z" transform="translate(-52.445 -74.3)" fill="#263238"/>
      <g id="Grupo_55267" data-name="Grupo 55267" transform="translate(331.754 122.17)" opacity="0.3">
        <rect id="Rectángulo_29920" data-name="Rectángulo 29920" width="4.59" height="33.88" fill="#fff"/>
      </g>
      <g id="Grupo_55268" data-name="Grupo 55268" transform="translate(350.809 106.73)" opacity="0.3">
        <rect id="Rectángulo_29921" data-name="Rectángulo 29921" width="4.59" height="49.33" fill="#fff"/>
      </g>
      <g id="Grupo_55269" data-name="Grupo 55269" transform="translate(369.853 129.65)" opacity="0.3">
        <rect id="Rectángulo_29922" data-name="Rectángulo 29922" width="4.59" height="26.4" fill="#fff"/>
      </g>
      <g id="Grupo_55270" data-name="Grupo 55270" transform="translate(388.908 118.31)" opacity="0.3">
        <rect id="Rectángulo_29923" data-name="Rectángulo 29923" width="4.59" height="37.74" fill="#fff"/>
      </g>
      <g id="Grupo_55271" data-name="Grupo 55271" transform="translate(407.963 125.82)" opacity="0.3">
        <rect id="Rectángulo_29924" data-name="Rectángulo 29924" width="4.59" height="30.23" fill="#fff"/>
      </g>
      <path id="Trazado_121865" data-name="Trazado 121865" d="M259.4,120.31a4.43,4.43,0,1,1-4.42-4.42A4.43,4.43,0,0,1,259.4,120.31Z" transform="translate(-68.661 -74.3)" fill="#26aab7"/>
      <path id="Trazado_121866" data-name="Trazado 121866" d="M335.43,116.82c0,.15-14.91.26-33.3.26s-33.3-.11-33.3-.26,14.9-.26,33.3-.26S335.43,116.68,335.43,116.82Z" transform="translate(-65.721 -74.3)" fill="#26aab7"/>
      <path id="Trazado_121867" data-name="Trazado 121867" d="M295.56,122.17a3.689,3.689,0,0,1-1,.1l-2.81.09c-2.38,0-5.66.07-9.28.07s-6.91,0-9.28-.07l-2.82-.09a3.77,3.77,0,0,1-1-.1,4.349,4.349,0,0,1,1-.1c.67,0,1.63-.06,2.82-.08,2.37,0,5.65-.08,9.28-.08s6.9,0,9.28.08c1.19,0,2.15.05,2.81.08a4.25,4.25,0,0,1,1,.1Z" transform="translate(-66.816 -74.3)" fill="#26aab7"/>
      <rect id="Rectángulo_29925" data-name="Rectángulo 29925" width="139.91" height="159.68" transform="translate(0.26 28.93)" fill="#fafafa"/>
      <path id="Trazado_121868" data-name="Trazado 121868" d="M221.48,262.9V251.31c0-7.54,0-18.57-.06-32.58,0-28-.07-67.89-.11-115.5l.23.23H81.64l.26-.26V262.87l-.22-.22L183,262.8l28.38.06h.09l-28.33.06-101.62.11H81.3V103H221.71v.23c-.05,47.67-.09,87.61-.12,115.65,0,14-.05,25-.06,32.52v10.77A3.867,3.867,0,0,1,221.48,262.9Z" transform="translate(-81.3 -74.3)" fill="#263238"/>
      <path id="Trazado_121869" data-name="Trazado 121869" d="M209.45,184.76c0,.1-1.55-.78-4.5-1.71a29,29,0,0,0-12.9-1,28.359,28.359,0,0,0-8.51,2.74,39.619,39.619,0,0,0-8.37,6c-2.74,2.42-5.47,5.17-8.61,7.71a29.68,29.68,0,0,1-11,5.94,16.36,16.36,0,0,1-6.41.39A21.13,21.13,0,0,1,143.2,203a104.805,104.805,0,0,1-10-5.93,30.74,30.74,0,0,0-9.36-4.19,27.67,27.67,0,0,0-8.91-.69,28.6,28.6,0,0,0-12.3,4c-2.64,1.61-3.88,2.82-4,2.74a5,5,0,0,1,.89-.88,22,22,0,0,1,2.86-2.18,28.12,28.12,0,0,1,21.59-3.78,31.749,31.749,0,0,1,9.64,4.22,103.905,103.905,0,0,0,9.9,5.82,16.91,16.91,0,0,0,11.73,1.38A29.17,29.17,0,0,0,166,197.83c3.1-2.49,5.83-5.22,8.62-7.65a40.211,40.211,0,0,1,8.59-6.06,28.44,28.44,0,0,1,21.89-1.42,22.11,22.11,0,0,1,3.3,1.42,6.45,6.45,0,0,1,1.05.64Z" transform="translate(-81.3 -74.3)" fill="#26aab7"/>
      <rect id="Rectángulo_29926" data-name="Rectángulo 29926" width="11.89" height="32.17" transform="translate(38.77 131.91)" fill="#b1a8d1"/>
      <rect id="Rectángulo_29927" data-name="Rectángulo 29927" width="11.89" height="32.17" transform="translate(89.25 131.91)" fill="#b1a8d1"/>
      <rect id="Rectángulo_29928" data-name="Rectángulo 29928" width="11.89" height="51.06" transform="translate(114.033 113.01)" fill="#b1a8d1"/>
      <rect id="Rectángulo_29929" data-name="Rectángulo 29929" width="11.89" height="10.83" transform="translate(23.38 153.95)" fill="#b1a8d1"/>
      <rect id="Rectángulo_29930" data-name="Rectángulo 29930" width="11.9" height="17.64" transform="translate(55.6 146.43)" fill="#b1a8d1"/>
      <rect id="Rectángulo_29931" data-name="Rectángulo 29931" width="11.89" height="21.69" transform="translate(72.42 142.38)" fill="#b1a8d1"/>
      <path id="Trazado_121870" data-name="Trazado 121870" d="M132.45,242.17c0,.26-2.88.48-6.43.48s-6.43-.22-6.43-.48,2.88-.48,6.43-.48S132.45,241.9,132.45,242.17Z" transform="translate(-81.3 -74.3)" fill="#263238"/>
      <path id="Trazado_121871" data-name="Trazado 121871" d="M117.65,242.17c0,.26-2.88.48-6.43.48s-6.43-.22-6.43-.48,2.88-.48,6.43-.48S117.65,241.9,117.65,242.17Z" transform="translate(-81.3 -74.3)" fill="#263238"/>
      <path id="Trazado_121872" data-name="Trazado 121872" d="M201.61,242.17c0,.26-3.25.48-7.26.48s-7.27-.22-7.27-.48,3.25-.48,7.27-.48S201.61,241.9,201.61,242.17Z" transform="translate(-73.321 -74.3)" fill="#263238"/>
      <ellipse id="Elipse_4174" data-name="Elipse 4174" cx="7.26" cy="0.48" rx="7.26" ry="0.48" transform="translate(88.12 167.39)" fill="#263238"/>
      <path id="Trazado_121873" data-name="Trazado 121873" d="M165.62,242.17c0,.26-2.88.48-6.43.48s-6.43-.22-6.43-.48,2.88-.48,6.43-.48S165.62,241.9,165.62,242.17Z" transform="translate(-81.3 -74.3)" fill="#263238"/>
      <path id="Trazado_121874" data-name="Trazado 121874" d="M148.23,242.17c0,.26-2.87.48-6.42.48s-6.43-.22-6.43-.48,2.88-.48,6.43-.48S148.23,241.9,148.23,242.17Z" transform="translate(-81.3 -74.3)" fill="#263238"/>
      <rect id="Rectángulo_29932" data-name="Rectángulo 29932" width="97.21" height="40.37" transform="translate(23.1 52.21)" fill="#e0e0e0"/>
      <path id="Trazado_121875" data-name="Trazado 121875" d="M124.6,139.26a4.54,4.54,0,1,1-4.54-4.53,4.54,4.54,0,0,1,4.54,4.53Z" transform="translate(-81.3 -74.3)" fill="#263238"/>
      <rect id="Rectángulo_29933" data-name="Rectángulo 29933" width="31.58" height="1.75" transform="translate(47.83 61.83)" fill="#263238"/>
      <rect id="Rectángulo_29934" data-name="Rectángulo 29934" width="61.43" height="1.75" transform="translate(47.83 65.82)" fill="#fff"/>
      <path id="Trazado_121876" data-name="Trazado 121876" d="M124.6,153.2a4.53,4.53,0,1,1-1.33-3.207A4.54,4.54,0,0,1,124.6,153.2Z" transform="translate(-81.3 -74.3)" fill="#26aab7"/>
      <rect id="Rectángulo_29935" data-name="Rectángulo 29935" width="16.12" height="1.75" transform="translate(47.83 75.77)" fill="#26aab7"/>
      <rect id="Rectángulo_29936" data-name="Rectángulo 29936" width="61.43" height="1.75" transform="translate(47.83 79.75)" fill="#fff"/>
      <rect id="Rectángulo_29937" data-name="Rectángulo 29937" width="153.64" height="175.35" transform="translate(468.714 0.26)" fill="#fafafa"/>
      <path id="Trazado_121877" data-name="Trazado 121877" d="M661,249.91V237.18c0-8.28,0-20.39-.06-35.77,0-30.75-.07-74.56-.11-126.85l.23.23H507.43l.27-.26c0,64.65,0,124.94-.05,175.35l-.22-.22,111.45.11,31.15.06h.09L619,250l-111.59.11h-.22V74.3H661.33v.23c0,52.35-.09,96.21-.12,127,0,15.37,0,27.46-.06,35.73v11.82A3.651,3.651,0,0,0,661,249.91Z" transform="translate(-38.646 -74.3)" fill="#263238"/>
      <rect id="Rectángulo_29938" data-name="Rectángulo 29938" width="124.46" height="99.85" transform="translate(481.014 14.28)" fill="#e0e0e0"/>
      <rect id="Rectángulo_29939" data-name="Rectángulo 29939" width="4.08" height="1.18" transform="translate(480.158 96.38)" fill="#263238"/>
      <rect id="Rectángulo_29940" data-name="Rectángulo 29940" width="5.22" height="1.18" transform="translate(490.16 102.67)" fill="#263238"/>
      <rect id="Rectángulo_29941" data-name="Rectángulo 29941" width="5.22" height="1.18" transform="translate(517.134 102.67)" fill="#263238"/>
      <rect id="Rectángulo_29942" data-name="Rectángulo 29942" width="5.22" height="1.18" transform="translate(535.324 102.67)" fill="#263238"/>
      <rect id="Rectángulo_29943" data-name="Rectángulo 29943" width="5.22" height="1.18" transform="translate(553.504 102.67)" fill="#263238"/>
      <rect id="Rectángulo_29944" data-name="Rectángulo 29944" width="5.22" height="1.18" transform="translate(571.694 102.67)" fill="#263238"/>
      <rect id="Rectángulo_29945" data-name="Rectángulo 29945" width="5.22" height="1.18" transform="translate(589.874 102.67)" fill="#263238"/>
      <rect id="Rectángulo_29946" data-name="Rectángulo 29946" width="4.08" height="1.18" transform="translate(480.158 80.65)" fill="#263238"/>
      <rect id="Rectángulo_29947" data-name="Rectángulo 29947" width="4.08" height="1.18" transform="translate(480.158 51.07)" fill="#263238"/>
      <rect id="Rectángulo_29948" data-name="Rectángulo 29948" width="4.08" height="1.18" transform="translate(480.158 36.2)" fill="#263238"/>
      <rect id="Rectángulo_29949" data-name="Rectángulo 29949" width="4.08" height="1.18" transform="translate(480.383 65.86)" fill="#263238"/>
      <path id="Trazado_121878" data-name="Trazado 121878" d="M633.6,171.85a2.5,2.5,0,0,1-.44,0h-6.28l-18.17.09-60,.07h-14.4v-.26c0-20,.07-37.69.09-50.35,0-6.3.06-11.36.08-14.87v-5a1.349,1.349,0,0,1,0-.35,1.349,1.349,0,0,1,0,.35v5c0,3.51.05,8.57.08,14.87,0,12.66,0,30.31.09,50.35l-.26-.25H548.6l60,.08,18.17.08,5,.05h1.28Z" transform="translate(-38.646 -74.3)" fill="#263238"/>
      <path id="Trazado_121879" data-name="Trazado 121879" d="M634.75,140.75c0,.14-21.54.26-48.11.26s-48.12-.12-48.12-.26,21.54-.26,48.12-.26S634.75,140.61,634.75,140.75Z" transform="translate(-38.646 -74.3)" fill="#263238"/>
      <path id="Trazado_121880" data-name="Trazado 121880" d="M634.75,126c0,.15-21.54.26-48.11.26s-48.12-.11-48.12-.26,21.54-.26,48.12-.26S634.75,125.81,634.75,126Z" transform="translate(-38.646 -74.3)" fill="#263238"/>
      <path id="Trazado_121881" data-name="Trazado 121881" d="M634.75,111.08c0,.15-21.54.26-48.11.26s-48.12-.11-48.12-.26,21.54-.26,48.12-.26S634.75,110.94,634.75,111.08Z" transform="translate(-38.646 -74.3)" fill="#263238"/>
      <path id="Trazado_121882" data-name="Trazado 121882" d="M634.75,155.54c0,.15-21.54.26-48.11.26s-48.12-.11-48.12-.26,21.54-.26,48.12-.26S634.75,155.4,634.75,155.54Z" transform="translate(-38.646 -74.3)" fill="#263238"/>
      <path id="Trazado_121883" data-name="Trazado 121883" d="M539.51,168.67V155.54l8.18-12.7,5.56,4.26,11.39-17.7,6.72,4.73,9.35-16.33,7.6,6.19,11.39-21.66L612,126.54l9.93-12.11,11.69-3.35v57.59Z" transform="translate(-38.646 -74.3)" fill="#455a64"/>
      <path id="Trazado_121884" data-name="Trazado 121884" d="M634.75,106.42h-3.19l-9,.07.12-.06L613.08,119l-.06.08H588.94l.21-.12c-3.17,5.27-6.58,11-10.11,16.84l-9.94,16.51-.19.32-.23-.3c-4.74-6.54-9.14-12.59-13-17.93H556L544.05,153l-3.33,5.11-.89,1.33c-.2.3-.32.45-.32.45s.08-.17.27-.48l.83-1.37,3.24-5.17,11.75-18.61.17-.27.18.26L569,152.16h-.42l9.92-16.52,10.13-16.83.07-.12h24.21l-.16.08,9.69-12.49v-.06h.07l9,.07h2.98Z" transform="translate(-38.646 -74.3)" fill="#26aab7"/>
      <path id="Trazado_121885" data-name="Trazado 121885" d="M559.73,138.61a.93.93,0,1,1-.93-.89A.91.91,0,0,1,559.73,138.61Z" transform="translate(-38.646 -74.3)" fill="#26aab7"/>
      <path id="Trazado_121886" data-name="Trazado 121886" d="M587.48,122.83a.93.93,0,1,1-.92-.88.91.91,0,0,1,.92.88Z" transform="translate(-38.646 -74.3)" fill="#26aab7"/>
      <path id="Trazado_121887" data-name="Trazado 121887" d="M609.06,119a.93.93,0,1,1-.93-.89.91.91,0,0,1,.93.89Z" transform="translate(-38.646 -74.3)" fill="#26aab7"/>
      <path id="Trazado_121888" data-name="Trazado 121888" d="M638.51,203.27c0,.15-26.26.26-58.65.26s-58.66-.11-58.66-.26,26.26-.26,58.66-.26S638.51,203.13,638.51,203.27Z" transform="translate(-38.646 -74.3)" fill="#263238"/>
      <path id="Trazado_121889" data-name="Trazado 121889" d="M638.51,209.61c0,.15-26.26.26-58.65.26s-58.66-.11-58.66-.26,26.26-.26,58.66-.26S638.51,209.47,638.51,209.61Z" transform="translate(-38.646 -74.3)" fill="#263238"/>
      <path id="Trazado_121890" data-name="Trazado 121890" d="M638.51,216c0,.14-26.26.26-58.65.26s-58.66-.12-58.66-.26,26.26-.26,58.66-.26S638.51,215.81,638.51,216Z" transform="translate(-38.646 -74.3)" fill="#263238"/>
      <path id="Trazado_121891" data-name="Trazado 121891" d="M638.51,222.3c0,.14-26.26.26-58.65.26s-58.66-.12-58.66-.26,26.26-.26,58.66-.26S638.51,222.15,638.51,222.3Z" transform="translate(-38.646 -74.3)" fill="#263238"/>
    </g>
    <g id="freepik--character-2--inject-79" transform="translate(565.496 181.423)">
      <path id="Trazado_121892" data-name="Trazado 121892" d="M592.18,219.81c3.21-5.39,4.15-12.57,5-18.79.38-2.93,1.06-7.09-1-8.93s-2.4-5-4.93-6.51a7.78,7.78,0,0,0-8.36.07" transform="translate(-522.842 -181.423)" fill="#263238"/>
      <path id="Trazado_121893" data-name="Trazado 121893" d="M583.28,238.9h0a8.66,8.66,0,0,1-9.32-8.3c-.18-4.72-.34-9.48-.34-9.48s-7.14-.67-7.66-7.74-.28-23.39-.28-23.39h0a24.63,24.63,0,0,1,24.9,1.6l-.44,24.88v13.39C590.09,234.35,587.76,238.56,583.28,238.9Z" transform="translate(-522.842 -181.423)" fill="#ffbe9d"/>
      <path id="Trazado_121894" data-name="Trazado 121894" d="M573,204.75a3.62,3.62,0,0,1,4.83-1.06,4.12,4.12,0,0,1,1.37,5.14,5.43,5.43,0,0,1-3.47,2.62,2.73,2.73,0,0,0-2.13,2.93c.21,1.77,3.16,2.44,4.49,3.91,2.07,2.28,6.62,3.25,9.69,3.61s2.64.38,4.39-2.09a9.411,9.411,0,0,0,1.72-5.74l.33-15.64a22.393,22.393,0,0,0-.36-5.61,7.52,7.52,0,0,0-3-4.64c-1.72-1.13-3.9-1.23-5.85-1.86-2.45-.79-4.53-2.42-6.82-3.59s-5.1-1.87-7.4-.72c-1.65.83-2.76,2.48-4.37,3.39-2.28,1.3-5.39,1-6.5,4.37a5.59,5.59,0,0,0,0,3.59c1.55,4.58,7.21,6.42,11.29,4.44.08.78-.68,2.5.13,4.95.26.78.36,2,1.58,2" transform="translate(-522.842 -181.423)" fill="#263238"/>
      <path id="Trazado_121895" data-name="Trazado 121895" d="M574.27,209.16a1.245,1.245,0,0,0,.89.34,1.66,1.66,0,0,0,1.32-1.62,1.77,1.77,0,0,0-1.21-1.76c-.59-.21-1-.1-1-.18s.39-.32,1.12-.17a2.17,2.17,0,0,1,1.11.64,2.08,2.08,0,0,1,.52,1.5,1.94,1.94,0,0,1-1.84,2,1.06,1.06,0,0,1-.79-.39C574.24,209.29,574.24,209.17,574.27,209.16Z" transform="translate(-522.842 -181.423)" fill="#eb996e"/>
      <path id="Trazado_121896" data-name="Trazado 121896" d="M581.63,187.84a2.218,2.218,0,0,1,.59-.6,4.86,4.86,0,0,1,2.15-.83,6.18,6.18,0,0,1,3.38.51,7.74,7.74,0,0,1,3.12,2.79,15.86,15.86,0,0,1,2.2,7.16,18.879,18.879,0,0,1,.19,3.09,17.282,17.282,0,0,1-.56-3,17,17,0,0,0-2.26-6.92,7.531,7.531,0,0,0-2.89-2.64,5.71,5.71,0,0,0-5.92.48Z" transform="translate(-522.842 -181.423)" fill="#455a64"/>
      <path id="Trazado_121897" data-name="Trazado 121897" d="M561.72,195.08a.69.69,0,0,1-.27,0,2.14,2.14,0,0,1-.7-.32,2.59,2.59,0,0,1-.82-.92,2.34,2.34,0,0,1-.22-1.64,2.69,2.69,0,0,1,1.14-1.65,3.86,3.86,0,0,1,2.24-.44,3.06,3.06,0,0,0,2.13-.54,15,15,0,0,0,1.73-1.86,8.76,8.76,0,0,1,4.41-2.54,9.43,9.43,0,0,1,4.14-.1,8,8,0,0,1,2.61,1,3.189,3.189,0,0,1,.81.62,12.5,12.5,0,0,0-3.48-1.26,9.41,9.41,0,0,0-4,.19,8.5,8.5,0,0,0-4.13,2.43,14.832,14.832,0,0,1-1.81,1.92,2.94,2.94,0,0,1-1.22.55,5.758,5.758,0,0,1-1.23.06,3.47,3.47,0,0,0-2,.32,2.32,2.32,0,0,0-1,1.38,2.27,2.27,0,0,0,.8,2.31,5.88,5.88,0,0,0,.87.49Z" transform="translate(-522.842 -181.423)" fill="#455a64"/>
      <path id="Trazado_121898" data-name="Trazado 121898" d="M580.64,214.75c0-.05.35-.18.93-.57A5.849,5.849,0,0,0,583.5,212a5.35,5.35,0,0,0,.32-4.14,5.289,5.289,0,0,0-1.28-2.13,10.309,10.309,0,0,0-2.21-1.61c-.83-.48-1.67-.93-2.43-1.45a8.07,8.07,0,0,1-2-1.85,8.539,8.539,0,0,1-1.66-4.18,7.809,7.809,0,0,1,.24-3,3.368,3.368,0,0,1,.28-.77c.08-.18.13-.26.14-.25a10.681,10.681,0,0,0-.29,4,8.45,8.45,0,0,0,1.67,3.94,8.1,8.1,0,0,0,1.86,1.72c.74.49,1.57.93,2.41,1.42a10.39,10.39,0,0,1,2.32,1.71,5.75,5.75,0,0,1,1.37,2.33,5.67,5.67,0,0,1-.46,4.47,5.6,5.6,0,0,1-2.14,2.14,2.749,2.749,0,0,1-1,.4Z" transform="translate(-522.842 -181.423)" fill="#455a64"/>
      <path id="Trazado_121899" data-name="Trazado 121899" d="M592.9,204.37a3.069,3.069,0,0,1-.91.21,13.92,13.92,0,0,1-2.55.07,15.67,15.67,0,0,1-7.88-2.71,12.5,12.5,0,0,1-5.18-6.51,5.421,5.421,0,0,1-.1-2.56,2,2,0,0,1,.35-.87,6.32,6.32,0,0,0,.11,3.33,12.78,12.78,0,0,0,5.11,6.18,16.589,16.589,0,0,0,7.62,2.77C591.57,204.51,592.89,204.27,592.9,204.37Z" transform="translate(-522.842 -181.423)" fill="#455a64"/>
      <path id="Trazado_121900" data-name="Trazado 121900" d="M594,199.53a12.51,12.51,0,0,1,9.75-4.42c3.68.21,7.27,2.76,8.17,6.33.68,2.7-.15,5.51-.49,8.26s0,6,2.23,7.61c1.36,1,3.11,1.16,4.74,1.56s3.36,1.21,3.92,2.79c.64,1.81-.67,3.86-2.43,4.63a9,9,0,0,1-5.66.08,4.73,4.73,0,0,1-2.1,5.66,6.25,6.25,0,0,1-6.28-.26,9.38,9.38,0,0,1-3.83-5.2c-1.21,2.13-4.39,2.58-6.43,1.22a6.72,6.72,0,0,1-2.6-6.46,12.5,12.5,0,0,1,3.26-6.46,16.21,16.21,0,0,0,2.27-2.9,3.67,3.67,0,0,0,.14-3.53,2.12,2.12,0,0,0-3.14-.63" transform="translate(-522.842 -181.423)" fill="#263238"/>
      <path id="Trazado_121901" data-name="Trazado 121901" d="M598.27,207a2.44,2.44,0,0,1-2.12,0,5.09,5.09,0,0,1-3.08-4,5.241,5.241,0,0,1,.33-2.87,5.43,5.43,0,0,1,1.36-1.92,3.43,3.43,0,0,1,1.86-1,16.134,16.134,0,0,0-1.6,1.3,5.24,5.24,0,0,0-1.44,4.45,5,5,0,0,0,2.71,3.76,5.16,5.16,0,0,0,1.98.28Z" transform="translate(-522.842 -181.423)" fill="#26aab7"/>
      <path id="Trazado_121902" data-name="Trazado 121902" d="M573.39,221a3.33,3.33,0,0,1-1.62-.16,8.74,8.74,0,0,1-5.72-5.06,3.29,3.29,0,0,1-.36-1.58,11.556,11.556,0,0,1,.69,1.43,10.051,10.051,0,0,0,2.29,3,10.261,10.261,0,0,0,3.21,1.91A10.139,10.139,0,0,1,573.39,221Z" transform="translate(-522.842 -181.423)" fill="#eb996e"/>
      <path id="Trazado_121903" data-name="Trazado 121903" d="M600.61,226.79h-.35a3.331,3.331,0,0,1-.92-.41,5,5,0,0,1-2-3.05,6.44,6.44,0,0,1-.09-2.57,10.15,10.15,0,0,1,.94-2.78c.89-1.87,2.29-3.64,3.33-5.69a10,10,0,0,0,1-3.15,6.09,6.09,0,0,0-3.93-6.56,6.48,6.48,0,0,0-3.5-.21c-.83.17-1.25.4-1.27.36s.09-.08.29-.2a5.331,5.331,0,0,1,.93-.36,6.29,6.29,0,0,1,7.59,3.79,6.611,6.611,0,0,1,.4,3.24,10.622,10.622,0,0,1-1.09,3.32c-1.08,2.12-2.49,3.87-3.37,5.67a7.56,7.56,0,0,0-.92,5.06,5,5,0,0,0,1.76,3,7.752,7.752,0,0,0,1.2.54Z" transform="translate(-522.842 -181.423)" fill="#455a64"/>
      <path id="Trazado_121904" data-name="Trazado 121904" d="M611.27,232a2.12,2.12,0,0,1-.44,0,5,5,0,0,1-1.26-.22,7.13,7.13,0,0,1-3.69-2.87,10.92,10.92,0,0,1-1.58-6.74,66.932,66.932,0,0,1,1.36-8.37,19.89,19.89,0,0,0,.3-4.31,11.209,11.209,0,0,0-.91-3.86,7,7,0,0,0-5-4.14,10.21,10.21,0,0,0-4.55,0c-1.07.24-1.63.48-1.65.43s.13-.09.39-.21a10.527,10.527,0,0,1,1.21-.42,9.91,9.91,0,0,1,4.68-.17,7.43,7.43,0,0,1,3,1.34,7.7,7.7,0,0,1,2.33,3,11.3,11.3,0,0,1,1,4,19,19,0,0,1-.29,4.42,77.119,77.119,0,0,0-1.4,8.31,10.73,10.73,0,0,0,1.42,6.51,7.06,7.06,0,0,0,3.44,2.88,11,11,0,0,0,1.64.42Z" transform="translate(-522.842 -181.423)" fill="#455a64"/>
      <path id="Trazado_121905" data-name="Trazado 121905" d="M613.4,264.17l-15.05,11.74,6.31,10.38,18.14-13.36Z" transform="translate(-522.842 -181.423)" fill="#ffbe9d"/>
      <path id="Trazado_121906" data-name="Trazado 121906" d="M573.12,224.7s.08-1.26-3.21-1.44a33.63,33.63,0,0,0-3.65-.12,8.34,8.34,0,0,1-1.57-3,9.209,9.209,0,0,1,.7-3.1l3.33-.3-.9-2.26-2.35.16-6.61.8L556.23,227l-18.06,33.7a8.71,8.71,0,0,0,3.45,12.67h0c4.67,2.26,10.92-2.53,12.65-7.42l10-37.49,3.52-2.74,5-.92" transform="translate(-522.842 -181.423)" fill="#ffbe9d"/>
      <path id="Trazado_121907" data-name="Trazado 121907" d="M532,449l24.55-141.4h0c.06-.21.11-.41.16-.61h0c4.19-16.59,10.64-21.9,10.64-21.9l37.61,2.36c3.2,5.75,3.61,19.54,3.61,19.54.44,1.69-7.95,138.72-7.95,138.72L588,445.32l-6.82-129.64L544.57,449.55Z" transform="translate(-522.842 -181.423)" fill="#ffbe9d"/>
      <path id="Trazado_121908" data-name="Trazado 121908" d="M531.67,450.28l.05-1.27,12.94.37-.11,4.21h-.8c-3.56.09-18.11.21-20.47-.52C520.66,452.28,531.67,450.28,531.67,450.28Z" transform="translate(-522.842 -181.423)" fill="#26aab7"/>
      <g id="Grupo_55272" data-name="Grupo 55272" transform="translate(17.038 268.63)" opacity="0.6">
        <path id="Trazado_121909" data-name="Trazado 121909" d="M539.88,453.37a4.18,4.18,0,0,1,1.72-2.51,4.61,4.61,0,0,1,3-.79l-.1,3.35Z" transform="translate(-539.88 -450.053)" fill="#fff"/>
      </g>
      <g id="Grupo_55273" data-name="Grupo 55273" transform="translate(0 270.017)" opacity="0.6">
        <path id="Trazado_121910" data-name="Trazado 121910" d="M526.28,451.44s-3.86.92-3.4,1.52,15.17,1,21.67.63v-.27L527.38,453S527,451.49,526.28,451.44Z" transform="translate(-522.842 -451.44)" fill="#fff"/>
      </g>
      <path id="Trazado_121911" data-name="Trazado 121911" d="M544.74,453.32h-3.2c-2,0-4.72,0-7.74-.08s-5.75-.2-7.73-.32l-2.34-.15h.01l2.34.1c2,.09,4.71.2,7.73.28s5.75.1,7.73.12h3.2Z" transform="translate(-522.842 -181.423)" fill="#263238"/>
      <path id="Trazado_121912" data-name="Trazado 121912" d="M527.37,453.19a3,3,0,0,0-1.18-1.9,1.62,1.62,0,0,1,.91.78,1.5,1.5,0,0,1,.27,1.12Z" transform="translate(-522.842 -181.423)" fill="#263238"/>
      <path id="Trazado_121913" data-name="Trazado 121913" d="M531.23,451.5a2.589,2.589,0,0,1-.39-.47c-.18-.28-.3-.52-.26-.54s.21.19.39.47S531.27,451.48,531.23,451.5Z" transform="translate(-522.842 -181.423)" fill="#263238"/>
      <path id="Trazado_121914" data-name="Trazado 121914" d="M532.29,451a2.281,2.281,0,0,1-.45-.3c-.22-.19-.37-.37-.34-.4a1.22,1.22,0,0,1,.45.3C532.17,450.81,532.32,451,532.29,451Z" transform="translate(-522.842 -181.423)" fill="#263238"/>
      <path id="Trazado_121915" data-name="Trazado 121915" d="M533,449.9a1.64,1.64,0,0,1-.67.07,1.59,1.59,0,0,1-.67-.09,1.54,1.54,0,0,1,.67-.06A1.74,1.74,0,0,1,533,449.9Z" transform="translate(-522.842 -181.423)" fill="#263238"/>
      <path id="Trazado_121916" data-name="Trazado 121916" d="M533.23,449.11a1.3,1.3,0,0,1-.75.19,1.38,1.38,0,0,1-.78-.12,4.64,4.64,0,0,1,.77,0A4.191,4.191,0,0,1,533.23,449.11Z" transform="translate(-522.842 -181.423)" fill="#263238"/>
      <path id="Trazado_121917" data-name="Trazado 121917" d="M530.82,450.45a2.88,2.88,0,0,1-.82,0,6,6,0,0,1-.88-.2,3,3,0,0,1-.5-.21.43.43,0,0,1-.2-.25.29.29,0,0,1,.14-.3,1.58,1.58,0,0,1,1.86.46,1.31,1.31,0,0,1,.26.52q0,.21,0,.21a2.089,2.089,0,0,0-.35-.67,1.56,1.56,0,0,0-.7-.44,1.36,1.36,0,0,0-1,0c-.13.08-.08.23.06.31a2.367,2.367,0,0,0,.46.2,6.1,6.1,0,0,0,.85.23C530.51,450.41,530.82,450.42,530.82,450.45Z" transform="translate(-522.842 -181.423)" fill="#263238"/>
      <path id="Trazado_121918" data-name="Trazado 121918" d="M530.61,450.48a.72.72,0,0,1-.08-.54,1.22,1.22,0,0,1,.24-.56.87.87,0,0,1,.7-.37.31.31,0,0,1,.25.36.82.82,0,0,1-.15.34,2.721,2.721,0,0,1-.41.46,1.3,1.3,0,0,1-.48.3s.17-.14.4-.37a2.231,2.231,0,0,0,.36-.46c.12-.16.21-.45,0-.49a.77.77,0,0,0-.55.32,1.09,1.09,0,0,0-.25.49,2.249,2.249,0,0,0-.03.52Z" transform="translate(-522.842 -181.423)" fill="#263238"/>
      <path id="Trazado_121919" data-name="Trazado 121919" d="M544.58,450h-1a4.55,4.55,0,0,0-2.1.74,3.94,3.94,0,0,0-1.35,1.68c-.21.5-.24.85-.27.84a.62.62,0,0,1,0-.24,2.925,2.925,0,0,1,.16-.64,3.69,3.69,0,0,1,1.36-1.75,4.18,4.18,0,0,1,2.19-.73,3.35,3.35,0,0,1,.7,0,.661.661,0,0,1,.31.1Z" transform="translate(-522.842 -181.423)" fill="#263238"/>
      <path id="Trazado_121920" data-name="Trazado 121920" d="M538.3,452.16a7.56,7.56,0,0,1-1.89.13,8.458,8.458,0,0,1-1.88-.19c0-.05.85,0,1.88,0A13.806,13.806,0,0,1,538.3,452.16Z" transform="translate(-522.842 -181.423)" fill="#263238"/>
      <path id="Trazado_121921" data-name="Trazado 121921" d="M540.82,452.23s-.07.16-.16.34-.15.33-.19.33-.06-.19,0-.4S540.79,452.2,540.82,452.23Z" transform="translate(-522.842 -181.423)" fill="#263238"/>
      <path id="Trazado_121922" data-name="Trazado 121922" d="M541.81,451.15a.779.779,0,0,1-.2.27c-.14.12-.27.2-.3.17s.06-.15.19-.27S541.78,451.12,541.81,451.15Z" transform="translate(-522.842 -181.423)" fill="#263238"/>
      <path id="Trazado_121923" data-name="Trazado 121923" d="M543.18,450.68a.96.96,0,0,0-.37.09c-.19.09-.33.15-.36.12s.08-.19.31-.26S543.2,450.65,543.18,450.68Z" transform="translate(-522.842 -181.423)" fill="#263238"/>
      <path id="Trazado_121924" data-name="Trazado 121924" d="M544.16,450.47a.317.317,0,0,1-.17.13.482.482,0,0,1-.22,0,.275.275,0,0,1,.17-.13C544.05,450.44,544.14,450.43,544.16,450.47Z" transform="translate(-522.842 -181.423)" fill="#263238"/>
      <path id="Trazado_121925" data-name="Trazado 121925" d="M594.87,228.68a24.79,24.79,0,0,1,10,3.92c11.89,7.71,31.78,24,30.13,31.57-1.44,6.42-17,14.23-17,14.23l-10-12.12,6.17-3.53L599,252.65Z" transform="translate(-522.842 -181.423)" fill="#263238"/>
      <path id="Trazado_121926" data-name="Trazado 121926" d="M601.65,253.23l-.49,1.8-1.75,8.36L599,275.64c9,11.62,9.16,21.4,9.16,21.4l-45.57,5.32c0-9,3.29-20.34,3.29-20.34,2.63-4.47,2.51-17.85,2-18.34-2.84-2.82-3.53-4.89-1.26-8.5,0,0-14.13,14.84-15.58,16.17-5,4.58-9.8,3.3-12,1.31-6.24-5.57.16-12.75.16-12.75L563,232.64a11.87,11.87,0,0,1,6.18-3.77,51.333,51.333,0,0,1,5.1-.9l15.89.13a26.921,26.921,0,0,1,4.73.58,11.35,11.35,0,0,1,6.94,8.6C603.23,244.11,601.65,253.23,601.65,253.23Z" transform="translate(-522.842 -181.423)" fill="#263238"/>
      <path id="Trazado_121927" data-name="Trazado 121927" d="M602.15,242.3a6.077,6.077,0,0,1,.1,1.32c0,.85,0,2.09-.09,3.61A94.592,94.592,0,0,1,600.59,259c-.29,1.55-.61,3.05-.94,4.44v-.05c-.14,3.54-.28,6.6-.4,8.78-.07,1-.12,1.86-.16,2.54a3.832,3.832,0,0,1-.12.92,3.541,3.541,0,0,1-.05-.92v-2.55c0-2.18.11-5.25.22-8.79v-.05c.31-1.37.62-2.87.91-4.42.87-4.54,1.45-8.69,1.72-11.71.13-1.51.2-2.73.25-3.58a7,7,0,0,1,.13-1.31Z" transform="translate(-522.842 -181.423)" fill="#455a64"/>
      <path id="Trazado_121928" data-name="Trazado 121928" d="M602.3,254.55a190.658,190.658,0,0,1,16.35,11.31,92.352,92.352,0,0,1-8.32-5.44,95.438,95.438,0,0,1-8.03-5.87Z" transform="translate(-522.842 -181.423)" fill="#455a64"/>
      <path id="Trazado_121929" data-name="Trazado 121929" d="M572.84,236.69a1.168,1.168,0,0,1,.24.18,4.754,4.754,0,0,1,.56.62,6.91,6.91,0,0,1,1.24,2.82,9.32,9.32,0,0,1-.26,4.57,18.672,18.672,0,0,1-2.56,5,17.647,17.647,0,0,1-1.88,2.21c-.66.67-1.37,1.22-2,1.79-1.26,1.13-2.34,2.2-3.24,3.12s-1.61,1.67-2.1,2.19-.77.82-.8.79a4.92,4.92,0,0,1,.65-.92c.44-.56,1.11-1.36,2-2.32s1.93-2,3.19-3.21c.63-.59,1.32-1.15,2-1.8a17.585,17.585,0,0,0,1.82-2.16,19.149,19.149,0,0,0,2.52-4.8,9.34,9.34,0,0,0,.36-4.36,8.171,8.171,0,0,0-1.74-3.72Z" transform="translate(-522.842 -181.423)" fill="#455a64"/>
      <path id="Trazado_121930" data-name="Trazado 121930" d="M567.54,276.98l.53-6.12h31.08l-.17,4.78Z" transform="translate(-522.842 -181.423)" fill="#455a64"/>
      <path id="Trazado_121931" data-name="Trazado 121931" d="M541,258.71a19.842,19.842,0,0,0-1.73,1.8,8.27,8.27,0,0,0,.44,10.85,23.933,23.933,0,0,0,1.87,1.66,1.27,1.27,0,0,1-.64-.27,7.078,7.078,0,0,1-1.49-1.13,8.21,8.21,0,0,1-.46-11.35,6.853,6.853,0,0,1,1.39-1.25C540.78,258.78,541,258.68,541,258.71Z" transform="translate(-522.842 -181.423)" fill="#455a64"/>
      <path id="Trazado_121932" data-name="Trazado 121932" d="M600.58,445.67l3.53,8.2-15.78-.19-.33-8.36Z" transform="translate(-522.842 -181.423)" fill="#26aab7"/>
      <path id="Trazado_121933" data-name="Trazado 121933" d="M588.22,452.26a14.354,14.354,0,0,0,2.2.11h5.34l5.32-.11a15.408,15.408,0,0,0,2.21-.12,15.653,15.653,0,0,0-2.21-.1h-5.33l-5.33.1a18.745,18.745,0,0,0-2.2.12Z" transform="translate(-522.842 -181.423)" fill="#263238"/>
      <path id="Trazado_121934" data-name="Trazado 121934" d="M594.79,445.49a10.85,10.85,0,0,0-.06,3.32,11.139,11.139,0,0,0,.43,3.3,10.85,10.85,0,0,0,.06-3.32A11.14,11.14,0,0,0,594.79,445.49Z" transform="translate(-522.842 -181.423)" fill="#263238"/>
      <path id="Trazado_121935" data-name="Trazado 121935" d="M604.08,454.04l-15.76-.53-.1-1.5,15.07.13.8,1.72" transform="translate(-522.842 -181.423)" fill="#fff" opacity="0.6"/>
      <path id="Trazado_121936" data-name="Trazado 121936" d="M607.13,289.14c11.87,37.45-3.43,82.91.24,126.55.36,4.29,2.1,9.41-1.91,11.85a6.541,6.541,0,0,1-3.62.89c-3.2-.11-5.88-1.77-8.74-2.91a26,26,0,0,0-17.2-.67c-3.78,1.18-7.54,3.27-11.46,2.68-5.21-.79-8.58-5.94-13.37-8.12-4.49-2-9.67-1.28-14.6-1.4h-.15a11.06,11.06,0,0,1-10.22-14c7.17-26.24,30.92-111.46,41.44-127L599,275.64C601.88,279.14,605.6,284.37,607.13,289.14Z" transform="translate(-522.842 -181.423)" fill="#f5ca56"/>
      <path id="Trazado_121937" data-name="Trazado 121937" d="M596.12,306.77a14,14,0,0,1-1.71,2.15,50.821,50.821,0,0,1-4.64,4.75,31.05,31.05,0,0,1-5.48,3.76,12.393,12.393,0,0,1-2.5,1.16c-.11-.18,3.74-2,7.63-5.32,1.94-1.68,3.53-3.39,4.72-4.6a14.156,14.156,0,0,1,1.98-1.9Z" transform="translate(-522.842 -181.423)" fill="#263238"/>
      <g id="Grupo_55274" data-name="Grupo 55274" transform="translate(40.87 139.477)" opacity="0.1">
        <path id="Trazado_121938" data-name="Trazado 121938" d="M582.24,320.9A133.889,133.889,0,0,0,577,401.06c.56,2.29,1.14,4.89-.17,6.86-1.68,2.54-5.77,2.37-8.08.37s-3.23-5.13-3.81-8.13c-4.32-22.34,3.5-44.8,11.94-65.93" transform="translate(-563.712 -320.9)"/>
      </g>
    </g>
    <g id="freepik--character-1--inject-79" transform="translate(296.824 227.147)">
      <rect id="Rectángulo_29950" data-name="Rectángulo 29950" width="59.59" height="2.9" transform="translate(70.57 106.373)" fill="#263238"/>
      <path id="Trazado_121939" data-name="Trazado 121939" d="M335.09,336.42l-11.17-41.88h46.52l10.12,41.88Z" transform="translate(-273.76 -227.147)" fill="#263238"/>
      <path id="Trazado_121940" data-name="Trazado 121940" d="M377.77,333.25H336.21l-9.67-36.78h41.77Z" transform="translate(-273.76 -227.147)" fill="#f5f5f5"/>
      <path id="Trazado_121941" data-name="Trazado 121941" d="M327.23,299.12H369l-.71-2.65H326.54Z" transform="translate(-273.76 -227.147)" fill="#ebebeb"/>
      <path id="Trazado_121942" data-name="Trazado 121942" d="M331.74,297.8a.46.46,0,1,0,.46-.46A.46.46,0,0,0,331.74,297.8Z" transform="translate(-273.76 -227.147)" fill="#fafafa"/>
      <path id="Trazado_121943" data-name="Trazado 121943" d="M330.17,297.8a.46.46,0,1,0,.46-.46A.46.46,0,0,0,330.17,297.8Z" transform="translate(-273.76 -227.147)" fill="#fafafa"/>
      <path id="Trazado_121944" data-name="Trazado 121944" d="M328.6,297.8a.427.427,0,1,0,.46-.46A.46.46,0,0,0,328.6,297.8Z" transform="translate(-273.76 -227.147)" fill="#fafafa"/>
      <path id="Trazado_121945" data-name="Trazado 121945" d="M358.63,315.23l4.58,5.24A6.47,6.47,0,0,0,366,315.2c0-3.66-3.36-6.66-7.41-6.64s-7.38,3-7.36,6.7Z" transform="translate(-273.76 -227.147)" fill="#26aab7"/>
      <path id="Trazado_121946" data-name="Trazado 121946" d="M358.05,316.07a10.24,10.24,0,0,1,1.31,1.31c.82.88,2,2.16,3.38,3.72l.16.18-.2.14a7.87,7.87,0,0,1-7.71.76,7.6,7.6,0,0,1-3.18-2.55,6.51,6.51,0,0,1-1.17-3.44V316h5.49a11.939,11.939,0,0,1,1.93.09,13.647,13.647,0,0,1-2,.16c-1.26.06-3,.12-5.18.18l.22-.24a6.28,6.28,0,0,0,1.14,3.17,7.09,7.09,0,0,0,3,2.36,7.58,7.58,0,0,0,7.25-.63v.32c-1.33-1.55-2.42-2.86-3.18-3.79A13.278,13.278,0,0,1,358.05,316.07Z" transform="translate(-273.76 -227.147)" fill="#263238"/>
      <path id="Trazado_121947" data-name="Trazado 121947" d="M355.06,311.28a.43.43,0,0,0,.42.42.42.42,0,0,0,.41-.42.415.415,0,0,0-.83,0Z" transform="translate(-273.76 -227.147)" fill="#263238"/>
      <path id="Trazado_121948" data-name="Trazado 121948" d="M346.83,308.29a23.239,23.239,0,0,1,4.95-.28h.76l.08.07a19.793,19.793,0,0,1,2.86,3.2,20.168,20.168,0,0,1-3.23-2.83l.19.07h-.66a24.194,24.194,0,0,1-4.95-.23Z" transform="translate(-273.76 -227.147)" fill="#263238"/>
      <path id="Trazado_121949" data-name="Trazado 121949" d="M337.48,313.52a12.944,12.944,0,0,1-.48-1.93c-.28-1.27-.67-3.12-1.13-5.39l-.05-.25h.26l10.34-.09c-.06,0,.49.41.26.22h0v.48l.09.49c.06.33.13.65.19,1,.12.64.23,1.27.35,1.89.23,1.23.44,2.41.65,3.53l.05.28h-.28c-3.11,0-5.72-.05-7.54-.08l-2.09-.06a2.928,2.928,0,0,1-.71-.06,4.506,4.506,0,0,1,.8-.06l2.14-.07c1.83-.05,4.38-.11,7.4-.14l-.23.28-.6-3.56c-.12-.61-.24-1.24-.36-1.88-.06-.32-.13-.65-.19-1l-.09-.49-.05-.25v-.22h0c-.23-.19.31.26.25.22H336.08l.21-.25c.39,2.19.69,4,.9,5.32S337.5,313.49,337.48,313.52Z" transform="translate(-273.76 -227.147)" fill="#263238"/>
      <path id="Trazado_121950" data-name="Trazado 121950" d="M354.45,319.61a.415.415,0,1,0,.41-.42.41.41,0,0,0-.41.42Z" transform="translate(-273.76 -227.147)" fill="#263238"/>
      <path id="Trazado_121951" data-name="Trazado 121951" d="M347.35,319.64a13.479,13.479,0,0,1,3.76-.28,13.251,13.251,0,0,1,3.75.25,13.668,13.668,0,0,1-3.75.27,14,14,0,0,1-3.76-.24Z" transform="translate(-273.76 -227.147)" fill="#263238"/>
      <path id="Trazado_121952" data-name="Trazado 121952" d="M337.51,322.9a9.2,9.2,0,0,1-.45-1.38c-.27-.92-.66-2.28-1.13-4l-.06-.24h.25c2.82-.05,6.57-.09,10.67-.1l.25.19h0v.35l.09.36.18.7c.12.47.24.93.35,1.38.23.9.45,1.78.66,2.62l.08.3h-.31c-3.16,0-5.86,0-7.74-.08l-2.18-.06a3.459,3.459,0,0,1-.75-.06,5.822,5.822,0,0,1,.84-.07l2.23-.07c1.89-.06,4.52-.11,7.6-.14l-.24.3c-.22-.84-.45-1.71-.68-2.61l-.36-1.38-.18-.71-.09-.35-.05-.18v-.16h0c-.06,0,.48.37.25.2H336.08l.18-.25c.4,1.64.7,3,.91,3.93a9.945,9.945,0,0,1,.34,1.51Z" transform="translate(-273.76 -227.147)" fill="#263238"/>
      <path id="Trazado_121953" data-name="Trazado 121953" d="M338.3,308.41a12.559,12.559,0,0,1,3.53-.27,11.8,11.8,0,0,1,3.54.25,12.608,12.608,0,0,1-3.54.27,11.761,11.761,0,0,1-3.53-.25Z" transform="translate(-273.76 -227.147)" fill="#263238"/>
      <path id="Trazado_121954" data-name="Trazado 121954" d="M338.38,309.57a12.812,12.812,0,0,1,3.56-.27,12.569,12.569,0,0,1,3.56.24,24,24,0,0,1-7.12,0Z" transform="translate(-273.76 -227.147)" fill="#263238"/>
      <path id="Trazado_121955" data-name="Trazado 121955" d="M338.59,310.69a11.34,11.34,0,0,1,3.44-.28,11.93,11.93,0,0,1,3.43.25,11.241,11.241,0,0,1-3.43.28,12,12,0,0,1-3.44-.25Z" transform="translate(-273.76 -227.147)" fill="#263238"/>
      <path id="Trazado_121956" data-name="Trazado 121956" d="M338.51,319.54a11.37,11.37,0,0,1,3.37-.27,10.739,10.739,0,0,1,3.37.25,11.481,11.481,0,0,1-3.37.27,10.74,10.74,0,0,1-3.37-.25Z" transform="translate(-273.76 -227.147)" fill="#263238"/>
      <path id="Trazado_121957" data-name="Trazado 121957" d="M338.92,320.82a16.08,16.08,0,0,1,5.76,0A16.08,16.08,0,0,1,338.92,320.82Z" transform="translate(-273.76 -227.147)" fill="#263238"/>
      <path id="Trazado_121958" data-name="Trazado 121958" d="M273.76,336.29v5.49h3.6V452.99h7.38V341.78h39.17V452.99h7.38V341.78H501.22V452.96h7.39V341.78h3.19v-5.49Z" transform="translate(-273.76 -227.147)" fill="#263238"/>
      <path id="Trazado_121959" data-name="Trazado 121959" d="M433.8,377.72a55,55,0,0,0,9.6,0,57.7,57.7,0,0,0-9.6,0Z" transform="translate(-273.76 -227.147)" fill="#263238"/>
      <ellipse id="Elipse_4175" data-name="Elipse 4175" cx="0.26" cy="0.13" rx="0.26" ry="0.13" transform="translate(89.87 151.453)" fill="#455a64"/>
      <path id="Trazado_121960" data-name="Trazado 121960" d="M410.92,279.87l-27.56-28-.6-3c-.11-.55-.23-1.17-.34-1.88a7.52,7.52,0,0,1,.05-2.46,11,11,0,0,1,.85-2.94c.46-.81-.28-1.79-1.05-1.45s-2.1,2.53-2.39,5.56-2.87-1-3.83-2.44-4.16-5.77-4.83-5.82c-1-.08-1.22,1-.23,2.4s3.7,5.9,2.94,6.37h0a3.6,3.6,0,0,0-3.81,1.89c-.7,1.33-1.47,3.23-.84,4.1a49.7,49.7,0,0,0,4.4,4.66l.92.79s23.85,34.56,29.05,35.69c3.23.69,53.21,4.84,53.21,4.84l3.77-13.77Z" transform="translate(-273.76 -227.147)" fill="#b78876"/>
      <path id="Trazado_121961" data-name="Trazado 121961" d="M369,251.58l2.55,2.45a3.149,3.149,0,0,0,1,.71,1.06,1.06,0,0,0,1.12-.18,1.08,1.08,0,0,0,.15-1,3,3,0,0,0-.59-.9l-2.48-3" transform="translate(-273.76 -227.147)" fill="#b78876"/>
      <path id="Trazado_121962" data-name="Trazado 121962" d="M370.75,249.65c.06-.05.53.42,1.26,1.23.41.46.83.93,1.26,1.43a4.609,4.609,0,0,1,.71.95,1.36,1.36,0,0,1-.07,1.41,1.25,1.25,0,0,1-1.4.32,2.83,2.83,0,0,1-1-.7l-1.33-1.36c-.75-.78-1.19-1.29-1.14-1.35a6.06,6.06,0,0,1,1.39,1.09l1.41,1.27a2.41,2.41,0,0,0,.84.57.77.77,0,0,0,.82-.16.87.87,0,0,0,0-.87,4.9,4.9,0,0,0-.61-.87c-.41-.51-.8-1-1.18-1.5a5.8,5.8,0,0,1-.96-1.46Z" transform="translate(-273.76 -227.147)" fill="#aa6550"/>
      <path id="Trazado_121963" data-name="Trazado 121963" d="M370.85,249.8l2.55,2.45a3,3,0,0,0,1,.7,1,1,0,0,0,1.12-.18,1.06,1.06,0,0,0,.15-1,3.159,3.159,0,0,0-.59-.91l-2.48-3" transform="translate(-273.76 -227.147)" fill="#b78876"/>
      <path id="Trazado_121964" data-name="Trazado 121964" d="M372.56,247.86a7.823,7.823,0,0,1,1.26,1.24l1.26,1.42a4.609,4.609,0,0,1,.71.95,1.38,1.38,0,0,1-.07,1.42,1.25,1.25,0,0,1-1.4.32,2.831,2.831,0,0,1-1-.7L372,251.15a6.18,6.18,0,0,1-1.14-1.35,6.16,6.16,0,0,1,1.39,1.08l1.41,1.28a2.41,2.41,0,0,0,.84.57.77.77,0,0,0,.82-.16.89.89,0,0,0,0-.88,4.44,4.44,0,0,0-.62-.86l-1.17-1.5a5.551,5.551,0,0,1-.97-1.47Z" transform="translate(-273.76 -227.147)" fill="#aa6550"/>
      <path id="Trazado_121965" data-name="Trazado 121965" d="M372.84,248.34l2.55,2.45a2.77,2.77,0,0,0,1,.7.91.91,0,0,0,1.26-1.2,3,3,0,0,0-.59-.91c-.82-1-1.65-2-2.47-3" transform="translate(-273.76 -227.147)" fill="#b78876"/>
      <path id="Trazado_121966" data-name="Trazado 121966" d="M374.55,246.4a6.52,6.52,0,0,1,1.26,1.23l1.26,1.43a4.591,4.591,0,0,1,.7.95,1.33,1.33,0,0,1-.07,1.42,1.23,1.23,0,0,1-1.39.32,2.83,2.83,0,0,1-1-.7L374,249.69a5.921,5.921,0,0,1-1.13-1.35,6,6,0,0,1,1.39,1.08l1.41,1.28a2.47,2.47,0,0,0,.83.57.76.76,0,0,0,.82-.16.84.84,0,0,0,0-.88,4.842,4.842,0,0,0-.61-.86l-1.17-1.5a5.55,5.55,0,0,1-.99-1.47Z" transform="translate(-273.76 -227.147)" fill="#aa6550"/>
      <path id="Trazado_121967" data-name="Trazado 121967" d="M376.87,252.58c0-.09.63-.21,1.55.07l-.29.25a4.359,4.359,0,0,1-.07-1.75,4.45,4.45,0,0,1,1-2.13c.39-.46.72-.64.76-.59a9.051,9.051,0,0,0-1.2,2.8,5.271,5.271,0,0,0,0,1.58l.05.4-.34-.15C377.47,252.72,376.86,252.68,376.87,252.58Z" transform="translate(-273.76 -227.147)" fill="#aa6550"/>
      <path id="Trazado_121968" data-name="Trazado 121968" d="M447,237.88l.12,38.37-15,.71-.6-9.19s-7.22,1.09-8.73-4.34c-1-3.47-.72-30.27-.72-30.27Z" transform="translate(-273.76 -227.147)" fill="#b78876"/>
      <path id="Trazado_121969" data-name="Trazado 121969" d="M418.42,236.94c1.11,2.3,6.39,6.49,6.39,6.49l2.39,6.39c2.07-1.62,4.85-1.53,5.38,2.11.38,2.64-2.89,3.17-2.89,3.17,1.9,3.24,3.19,5.86,6,8.94,3,3.34,4.68,3.67,7.94,3.73h3.59s7.34-6.14,5.89-22.3S437.09,234,433.62,230C428,223.41,414.72,229.29,418.42,236.94Z" transform="translate(-273.76 -227.147)" fill="#263238"/>
      <path id="Trazado_121970" data-name="Trazado 121970" d="M452.25,259a5.109,5.109,0,0,1-1.77-.08,9.2,9.2,0,0,1-4.29-2.2,23.38,23.38,0,0,1-4.33-5.73c-1.4-2.29-2.93-4.95-5.5-6.73s-5.66-2.09-8.29-2.63a15.7,15.7,0,0,1-6.69-2.55,7.17,7.17,0,0,1-2.68-4,4,4,0,0,1-.07-1.77,5.52,5.52,0,0,0,.15,1.75,7.16,7.16,0,0,0,2.69,3.88,15.73,15.73,0,0,0,6.64,2.47c2.62.53,5.7.87,8.37,2.65s4.15,4.51,5.54,6.8a23.722,23.722,0,0,0,4.27,5.72,9.33,9.33,0,0,0,4.2,2.23,7.224,7.224,0,0,0,1.3.16Z" transform="translate(-273.76 -227.147)" fill="#455a64"/>
      <path id="Trazado_121971" data-name="Trazado 121971" d="M453.1,245.84l-.77-.24a12.934,12.934,0,0,0-2.26-.5,5,5,0,0,0-3.46.78,2.84,2.84,0,0,0-1.21,1.82,2.54,2.54,0,0,0,.7,2.29,2,2,0,0,0,1.21.48,2.46,2.46,0,0,0,1.33-.37,4.07,4.07,0,0,0,1.81-2.31,5.71,5.71,0,0,0-4.83-7.5,10.12,10.12,0,0,0-3.71.48,26.379,26.379,0,0,1-3.85.93,15.48,15.48,0,0,1-4.08,0,13.56,13.56,0,0,1-3.94-1.09,4.74,4.74,0,0,1-2.69-2.84,3.73,3.73,0,0,1,.91-3.63,3.2,3.2,0,0,1,3.52-.51,2.66,2.66,0,0,1,1.3,1.22,3,3,0,0,1,.28,1.72,3.93,3.93,0,0,1-1.75,2.74,5.65,5.65,0,0,1-3,.83,8.78,8.78,0,0,1-2.8-.43,10.12,10.12,0,0,1-4.12-2.54,10.43,10.43,0,0,1-2.1-3,10.931,10.931,0,0,1-.75-2.2c-.09-.52-.12-.8-.12-.8s.06.27.16.79a11.538,11.538,0,0,0,.78,2.17,10.261,10.261,0,0,0,2.11,3,9.869,9.869,0,0,0,4.08,2.48,8.54,8.54,0,0,0,2.76.42,5.51,5.51,0,0,0,2.86-.81,3.73,3.73,0,0,0,1.66-2.62,2.57,2.57,0,0,0-1.47-2.75,3,3,0,0,0-3.3.49,3.52,3.52,0,0,0-.86,3.42,4.58,4.58,0,0,0,2.59,2.71A13.079,13.079,0,0,0,434,241.5a15.1,15.1,0,0,0,4,0,25.6,25.6,0,0,0,3.82-.91,10.11,10.11,0,0,1,3.8-.49,5.91,5.91,0,0,1,5,7.76,4.27,4.27,0,0,1-1.9,2.39,2.62,2.62,0,0,1-1.41.38,2.07,2.07,0,0,1-1.31-.52,2.7,2.7,0,0,1-.73-2.42,3,3,0,0,1,1.27-1.9,5.16,5.16,0,0,1,3.54-.76,11.179,11.179,0,0,1,2.26.54C452.84,245.73,453.1,245.84,453.1,245.84Z" transform="translate(-273.76 -227.147)" fill="#455a64"/>
      <path id="Trazado_121972" data-name="Trazado 121972" d="M434.08,443.62l-4.88-6.27,11.69-9.23,7.25,9.1-.69.62c-3.08,2.72-15.88,13.65-18.55,14.7C425.92,453.71,434.08,443.62,434.08,443.62Z" transform="translate(-273.76 -227.147)" fill="#26aab7"/>
      <g id="Grupo_55275" data-name="Grupo 55275" transform="translate(154.489 209.833)" opacity="0.4">
        <path id="Trazado_121973" data-name="Trazado 121973" d="M430.23,448.72s-2.69,3.76-1.8,4,14.23-10.32,19.71-15.49l-.23-.25-15.46,12.44S430.93,448.21,430.23,448.72Z" transform="translate(-428.249 -436.98)" fill="#fff"/>
      </g>
      <path id="Trazado_121974" data-name="Trazado 121974" d="M448.09,436.82a1.149,1.149,0,0,1-.18.18l-.55.49-2.05,1.77c-1.75,1.48-4.18,3.5-6.92,5.67s-5.26,4.08-7.1,5.43l-2.2,1.6-.6.42-.22.13.2-.16.58-.45,2.16-1.64c1.82-1.38,4.33-3.3,7.07-5.47s5.18-4.17,6.94-5.63l2.09-1.72.57-.47Z" transform="translate(-273.76 -227.147)" fill="#263238"/>
      <path id="Trazado_121975" data-name="Trazado 121975" d="M432.6,449.59a6.108,6.108,0,0,0-1.2-.7,5.83,5.83,0,0,0-1.36-.24,2.406,2.406,0,0,1,2.56.94Z" transform="translate(-273.76 -227.147)" fill="#263238"/>
      <path id="Trazado_121976" data-name="Trazado 121976" d="M434.67,445.11c0,.05-.34,0-.73-.15s-.68-.28-.66-.33.34,0,.72.16a1.71,1.71,0,0,1,.67.32Z" transform="translate(-273.76 -227.147)" fill="#263238"/>
      <path id="Trazado_121977" data-name="Trazado 121977" d="M435.22,443.86c0,.05-.29.08-.63.06s-.62-.08-.62-.13.28-.08.63-.05a1.36,1.36,0,0,1,.62.12Z" transform="translate(-273.76 -227.147)" fill="#263238"/>
      <path id="Trazado_121978" data-name="Trazado 121978" d="M434.94,442.29a3.209,3.209,0,0,1-.55.56c-.34.27-.63.46-.66.42s.22-.29.55-.56S434.91,442.25,434.94,442.29Z" transform="translate(-273.76 -227.147)" fill="#263238"/>
      <path id="Trazado_121979" data-name="Trazado 121979" d="M434.53,441.35a2.22,2.22,0,0,1-1.3,1.2,6.49,6.49,0,0,1,.66-.6C434.25,441.62,434.49,441.32,434.53,441.35Z" transform="translate(-273.76 -227.147)" fill="#263238"/>
      <path id="Trazado_121980" data-name="Trazado 121980" d="M433.46,444.41a2.59,2.59,0,0,1-.75.59,5.926,5.926,0,0,1-.94.45,2.57,2.57,0,0,1-.61.18.58.58,0,0,1-.37-.09.37.37,0,0,1-.12-.39,1.75,1.75,0,0,1,2-.94,1.661,1.661,0,0,1,.64.3c.13.11.19.18.18.19a2.52,2.52,0,0,0-.85-.37,1.68,1.68,0,0,0-1,.09,1.5,1.5,0,0,0-.85.77.243.243,0,0,0,.31.26,3.876,3.876,0,0,0,.56-.15,8.73,8.73,0,0,0,.94-.41C433.16,444.61,433.44,444.38,433.46,444.41Z" transform="translate(-273.76 -227.147)" fill="#263238"/>
      <path id="Trazado_121981" data-name="Trazado 121981" d="M433.3,444.6a1.079,1.079,0,0,1-.5-.45,1.609,1.609,0,0,1-.23-.72,1,1,0,0,1,.32-.87.38.38,0,0,1,.51.16,1.081,1.081,0,0,1,.14.44,3,3,0,0,1,0,.73,1.39,1.39,0,0,1-.19.65,4.928,4.928,0,0,1,.06-.66,2.9,2.9,0,0,0,0-.7c0-.24-.18-.58-.39-.46a.84.84,0,0,0-.24.71,1.551,1.551,0,0,0,.17.65,3.583,3.583,0,0,0,.35.52Z" transform="translate(-273.76 -227.147)" fill="#263238"/>
      <path id="Trazado_121982" data-name="Trazado 121982" d="M445.32,433.81a5.314,5.314,0,0,0-.83.71,4.7,4.7,0,0,0-1.14,4.86,10.714,10.714,0,0,0,.44,1c-.03,0-.08-.07-.19-.23a4.808,4.808,0,0,1-.37-.73,4.7,4.7,0,0,1-.19-2.68,4.52,4.52,0,0,1,1.36-2.32,3.91,3.91,0,0,1,.65-.49.889.889,0,0,1,.27-.12Z" transform="translate(-273.76 -227.147)" fill="#263238"/>
      <path id="Trazado_121983" data-name="Trazado 121983" d="M440.27,429.9a27.38,27.38,0,0,1,2,2.32c1.06,1.32,1.89,2.41,1.86,2.44a25.393,25.393,0,0,1-2-2.32,23.123,23.123,0,0,1-1.86-2.44Z" transform="translate(-273.76 -227.147)" fill="#263238"/>
      <path id="Trazado_121984" data-name="Trazado 121984" d="M441.45,440.5a8,8,0,0,1-1.57,1.52,8.53,8.53,0,0,1-1.81,1.21s.77-.6,1.7-1.36S441.42,440.46,441.45,440.5Z" transform="translate(-273.76 -227.147)" fill="#263238"/>
      <path id="Trazado_121985" data-name="Trazado 121985" d="M443.74,438.68c.05,0,.07.21.13.45s.14.43.1.46-.21-.14-.28-.42S443.7,438.67,443.74,438.68Z" transform="translate(-273.76 -227.147)" fill="#263238"/>
      <path id="Trazado_121986" data-name="Trazado 121986" d="M443.76,436.93c.05,0,.07.18,0,.4s-.08.39-.13.39-.07-.19-.05-.41S443.71,436.92,443.76,436.93Z" transform="translate(-273.76 -227.147)" fill="#263238"/>
      <path id="Trazado_121987" data-name="Trazado 121987" d="M444.6,435.46s-.13.17-.25.36-.18.39-.23.38-.08-.24.07-.48S444.59,435.41,444.6,435.46Z" transform="translate(-273.76 -227.147)" fill="#263238"/>
      <path id="Trazado_121988" data-name="Trazado 121988" d="M445.3,434.53v.25a.2.2,0,0,1-.2.17c-.04-.02,0-.14,0-.26A.185.185,0,0,1,445.3,434.53Z" transform="translate(-273.76 -227.147)" fill="#263238"/>
      <g id="Grupo_55276" data-name="Grupo 55276" transform="translate(158.38 205.553)" opacity="0.3">
        <path id="Trazado_121989" data-name="Trazado 121989" d="M445.06,433.51l-11.83,9.04-1.09-1.43,12.43-8.42Z" transform="translate(-432.14 -432.7)"/>
      </g>
      <path id="Trazado_121990" data-name="Trazado 121990" d="M380.32,449.92v-7.95l14.9-.06.09,11.64-.93.06c-4.11.25-20.91.95-23.66.13C367.67,452.82,380.32,449.92,380.32,449.92Z" transform="translate(-273.76 -227.147)" fill="#26aab7"/>
      <g id="Grupo_55277" data-name="Grupo 55277" transform="translate(96.451 224.413)" opacity="0.4">
        <path id="Trazado_121991" data-name="Trazado 121991" d="M374.14,451.56s-4.44,1.29-3.88,2,17.57.66,25.07,0v-.33l-19.84.25S375,451.59,374.14,451.56Z" transform="translate(-370.211 -451.56)" fill="#fff"/>
      </g>
      <path id="Trazado_121992" data-name="Trazado 121992" d="M395.54,453.21h-1l-2.7.13c-2.29.09-5.45.18-8.94.2s-6.66,0-8.95-.11l-2.7-.1h2.71c2.28,0,5.45.07,8.94.06s6.65-.09,8.93-.15l2.71-.07h1Z" transform="translate(-273.76 -227.147)" fill="#263238"/>
      <path id="Trazado_121993" data-name="Trazado 121993" d="M375.47,453.7a6.22,6.22,0,0,0-.52-1.29,5.761,5.761,0,0,0-.92-1,2.417,2.417,0,0,1,1.44,2.29Z" transform="translate(-273.76 -227.147)" fill="#263238"/>
      <path id="Trazado_121994" data-name="Trazado 121994" d="M379.85,451.45a3.268,3.268,0,0,1-.47-.57c-.22-.34-.36-.64-.32-.66s.25.22.47.57S379.89,451.43,379.85,451.45Z" transform="translate(-273.76 -227.147)" fill="#263238"/>
      <path id="Trazado_121995" data-name="Trazado 121995" d="M381.06,450.81a2.321,2.321,0,0,1-.53-.35c-.26-.23-.44-.44-.41-.48s.27.12.53.35S381.09,450.77,381.06,450.81Z" transform="translate(-273.76 -227.147)" fill="#263238"/>
      <path id="Trazado_121996" data-name="Trazado 121996" d="M381.81,449.4a1.63,1.63,0,0,1-.77.1,1.681,1.681,0,0,1-.78-.08,1.791,1.791,0,0,1,.77-.1,1.861,1.861,0,0,1,.78.08Z" transform="translate(-273.76 -227.147)" fill="#263238"/>
      <path id="Trazado_121997" data-name="Trazado 121997" d="M382.07,448.41a1.57,1.57,0,0,1-.87.25,1.5,1.5,0,0,1-.89-.11,4.637,4.637,0,0,1,.88-.07,5.078,5.078,0,0,1,.88-.07Z" transform="translate(-273.76 -227.147)" fill="#263238"/>
      <path id="Trazado_121998" data-name="Trazado 121998" d="M379.34,450.16a2.879,2.879,0,0,1-1,0,5.236,5.236,0,0,1-1-.22,2.68,2.68,0,0,1-.58-.23.56.56,0,0,1-.24-.3.37.37,0,0,1,.15-.38,1.75,1.75,0,0,1,2.17.5,1.67,1.67,0,0,1,.31.64.57.57,0,0,1,0,.26,2.68,2.68,0,0,0-.44-.82,1.77,1.77,0,0,0-.82-.53,1.46,1.46,0,0,0-1.14.09c-.15.11-.09.29.08.39a2.35,2.35,0,0,0,.54.22,6,6,0,0,0,1,.26C379,450.13,379.34,450.13,379.34,450.16Z" transform="translate(-273.76 -227.147)" fill="#263238"/>
      <path id="Trazado_121999" data-name="Trazado 121999" d="M379.09,450.2a1,1,0,0,1-.11-.66,1.55,1.55,0,0,1,.26-.7,1,1,0,0,1,.79-.49.37.37,0,0,1,.3.44,1.1,1.1,0,0,1-.16.43,2.852,2.852,0,0,1-.45.58c-.3.29-.53.41-.55.39s.19-.17.46-.48a3.512,3.512,0,0,0,.4-.57c.13-.21.21-.57,0-.61s-.48.21-.62.4a1.54,1.54,0,0,0-.27.63,6.069,6.069,0,0,0-.05.64Z" transform="translate(-273.76 -227.147)" fill="#263238"/>
      <path id="Trazado_122000" data-name="Trazado 122000" d="M395.21,449.13h-1.1a4.881,4.881,0,0,0-2.39,1,4.73,4.73,0,0,0-1.49,2.13,10.3,10.3,0,0,0-.28,1.07.78.78,0,0,1,0-.3,3.532,3.532,0,0,1,.15-.81,4.75,4.75,0,0,1,1.5-2.23,4.57,4.57,0,0,1,2.5-1,3.449,3.449,0,0,1,.82,0A.721.721,0,0,1,395.21,449.13Z" transform="translate(-273.76 -227.147)" fill="#263238"/>
      <path id="Trazado_122001" data-name="Trazado 122001" d="M393.64,442.94a25.3,25.3,0,0,1,.15,3.06,28.118,28.118,0,0,1,0,3.06,24.222,24.222,0,0,1-.14-3.06,26.817,26.817,0,0,1-.01-3.06Z" transform="translate(-273.76 -227.147)" fill="#263238"/>
      <path id="Trazado_122002" data-name="Trazado 122002" d="M388,452a8.61,8.61,0,0,1-2.17.22,8.943,8.943,0,0,1-2.18-.16c0-.05,1,0,2.18,0S388,452,388,452Z" transform="translate(-273.76 -227.147)" fill="#263238"/>
      <path id="Trazado_122003" data-name="Trazado 122003" d="M391,452s-.07.21-.17.43-.16.42-.21.42-.07-.24,0-.49A.511.511,0,0,1,391,452Z" transform="translate(-273.76 -227.147)" fill="#263238"/>
      <path id="Trazado_122004" data-name="Trazado 122004" d="M392.06,450.62a.939.939,0,0,1-.21.34c-.15.15-.31.26-.35.23s.06-.2.22-.35S392,450.58,392.06,450.62Z" transform="translate(-273.76 -227.147)" fill="#263238"/>
      <path id="Trazado_122005" data-name="Trazado 122005" d="M393.63,450a.933.933,0,0,0-.43.13c-.22.13-.37.2-.41.16s.08-.24.36-.33S393.65,449.94,393.63,450Z" transform="translate(-273.76 -227.147)" fill="#263238"/>
      <path id="Trazado_122006" data-name="Trazado 122006" d="M394.75,449.68c0,.05-.07.13-.19.18s-.24.05-.26,0,.07-.12.19-.17S394.73,449.64,394.75,449.68Z" transform="translate(-273.76 -227.147)" fill="#263238"/>
      <g id="Grupo_55278" data-name="Grupo 55278" transform="translate(106.55 219.513)" opacity="0.3">
        <path id="Trazado_122007" data-name="Trazado 122007" d="M395.33,448.53l-15.02.02.01-1.8,14.95-.09Z" transform="translate(-380.31 -446.66)"/>
      </g>
      <path id="Trazado_122008" data-name="Trazado 122008" d="M417.09,312.64l-6,18c-1.61,4.85-5.85,5.68-11,5.68H367v-7.44l30.32-4.33,7.22-18.46Z" transform="translate(-273.76 -227.147)" fill="#b78876"/>
      <path id="Trazado_122009" data-name="Trazado 122009" d="M363.33,327.29l-2.63-1.24s-2.84-5.49-3.49-5.27-.85,1.83.29,4.36l-3.49-1s-7.59,3.5-7.25,4a1.75,1.75,0,0,0,2.61.75c1.65-.85,3.81-1.84,3.81-1.84l4.09,1.17-5.27.67-5,4.51a2.43,2.43,0,0,0,3-.08l13,2.74,4,.22v-7.44Z" transform="translate(-273.76 -227.147)" fill="#b78876"/>
      <path id="Trazado_122010" data-name="Trazado 122010" d="M350.07,333.29a8.515,8.515,0,0,0,.76-.85,3.63,3.63,0,0,1,.94-.72,3.93,3.93,0,0,1,1.39-.37,18.219,18.219,0,0,0,3.86-.66,19.6,19.6,0,0,0-3.91.26,3.889,3.889,0,0,0-1.53.45,3.259,3.259,0,0,0-1,.86,2.48,2.48,0,0,0-.51,1.03Z" transform="translate(-273.76 -227.147)" fill="#aa6550"/>
      <path id="Trazado_122011" data-name="Trazado 122011" d="M352.09,333.81c.05,0,.09-.27.45-.35s.95-.13,1.56-.19a13.771,13.771,0,0,0,2.26-.23,4.53,4.53,0,0,0-2.3-.18,6.939,6.939,0,0,0-1.62.34.65.65,0,0,0-.39.4C352,333.74,352.06,333.81,352.09,333.81Z" transform="translate(-273.76 -227.147)" fill="#aa6550"/>
      <path id="Trazado_122012" data-name="Trazado 122012" d="M419.9,308.72l-2.55,8.65L401.15,310c.59-1.81,3.27-9.87,8.39-22.66a22,22,0,0,1,16.79-13.54,96.139,96.139,0,0,1,15.51-1.52c9.09.1,22.46,5.78,24.25,14.68,1.38,6.8.05,18.8.05,33.38L465,348.23l-46.55,1.57Z" transform="translate(-273.76 -227.147)" fill="#26aab7"/>
      <g id="Grupo_55279" data-name="Grupo 55279" transform="translate(157.83 86.256)" opacity="0.3">
        <path id="Trazado_122013" data-name="Trazado 122013" d="M466.09,313.92c-5.66,1.16-11.48,0-17.25-.35-3.5-.21-7.38-.59-10.15,1.56-2.19,1.71-3.07,4.58-3.71,7.28-2.41,10.32-2.85,17.23-3.39,27.81l28,1.7Z" transform="translate(-431.59 -313.403)"/>
      </g>
      <path id="Trazado_122014" data-name="Trazado 122014" d="M418.71,278.49a6.133,6.133,0,0,1,3.92,2.54,9,9,0,0,1,1.6,4.85,30,30,0,0,1-.49,6.38,108.079,108.079,0,0,1-2.6,11.41c-.38,1.4-.7,2.55-.94,3.43a7.367,7.367,0,0,0-.3,1.27,7.068,7.068,0,0,0,.45-1.23c.26-.8.63-1.95,1.06-3.39a87,87,0,0,0,2.73-11.43,29.25,29.25,0,0,0,.46-6.47,9.2,9.2,0,0,0-1.74-5A6.4,6.4,0,0,0,420,278.7a5.461,5.461,0,0,0-.95-.22C418.83,278.48,418.71,278.47,418.71,278.49Z" transform="translate(-273.76 -227.147)" fill="#263238"/>
      <path id="Trazado_122015" data-name="Trazado 122015" d="M401.66,307.83a16.258,16.258,0,0,0,2.28,1.31c1.44.75,3.45,1.74,5.71,2.76s4.34,1.87,5.86,2.45a14,14,0,0,0,2.49.84,19.065,19.065,0,0,0-2.39-1.1c-1.48-.65-3.54-1.54-5.79-2.56s-4.28-2-5.75-2.65a17.6,17.6,0,0,0-2.41-1.05Z" transform="translate(-273.76 -227.147)" fill="#263238"/>
      <path id="Trazado_122016" data-name="Trazado 122016" d="M394.24,351.92a16.59,16.59,0,0,0-6.77,22.22L428,443.7l18.69-11.29-31.46-62.8L438,354.72" transform="translate(-273.76 -227.147)" fill="#263238"/>
      <path id="Trazado_122017" data-name="Trazado 122017" d="M443.57,348.47l-55.62,2a16.59,16.59,0,0,0-16,16.84l2.31,79.43h23.39l-.78-75.1,46.7-1.23Z" transform="translate(-273.76 -227.147)" fill="#263238"/>
      <path id="Trazado_122018" data-name="Trazado 122018" d="M396.87,374.27a3.86,3.86,0,0,1,.07.74q0,.8.09,2.1c.07,1.83.14,4.48.21,7.76.14,6.55.23,15.6.28,25.59s.1,19,.13,25.59c0,3.24,0,5.87.05,7.76v2.11a3.908,3.908,0,0,1,0,.74,4,4,0,0,1-.07-.74c0-.53-.05-1.23-.09-2.11-.07-1.83-.14-4.48-.21-7.75-.14-6.55-.23-15.6-.28-25.6s-.1-19-.13-25.59V375A3.81,3.81,0,0,1,396.87,374.27Z" transform="translate(-273.76 -227.147)" fill="#455a64"/>
      <path id="Trazado_122019" data-name="Trazado 122019" d="M467.66,298.07H450.83a12.26,12.26,0,0,0-12.26,12.26V369H405a8.49,8.49,0,0,0-8.49,8.49h76.75a7,7,0,0,0,6.71-7V310.33a12.26,12.26,0,0,0-12.31-12.26Z" transform="translate(-273.76 -227.147)" fill="#455a64"/>
      <path id="Trazado_122020" data-name="Trazado 122020" d="M443.46,300c.14,0,.26,17.25.26,38.53s-.12,38.53-.26,38.53-.26-17.25-.26-38.53S443.32,300,443.46,300Z" transform="translate(-273.76 -227.147)" fill="#263238"/>
      <path id="Trazado_122021" data-name="Trazado 122021" d="M441.33,439.14V377.56h-5.47v61.58c-3.34,6.58-11.19,11-20.75,14.68h48.76C454,449.8,445,446.71,441.33,439.14Z" transform="translate(-273.76 -227.147)" fill="#455a64"/>
    </g>
  </g>
</svg>
