<?xml version="1.0" encoding="utf-8"?>
<!-- Generator: Adobe Illustrator 25.3.1, SVG Export Plug-In . SVG Version: 6.00 Build 0)  -->
<svg version="1.1" id="Layer_1" xmlns="http://www.w3.org/2000/svg" xmlns:xlink="http://www.w3.org/1999/xlink" x="0px" y="0px"
	 viewBox="0 0 342.1 245.5" style="enable-background:new 0 0 342.1 245.5;" xml:space="preserve">
<style type="text/css">
	.st0{fill:#F5F5F5;}
	.st1{fill:#E0E0E0;}
	.st2{fill:#FFFFFF;}
	.st3{fill:#EBEBEB;}
	.st4{fill:#FAFAFA;}
	.st5{fill:#263238;}
	.st6{fill:#455A64;}
	.st7{fill:#DDAF8B;}
	.st8{fill:#AA6550;}
	.st9{fill:#26AAB7;}
	.st10{opacity:0.3;}
	.st11{fill:#8EC8C8;}
	.st12{opacity:0.4;}
	.st13{opacity:0.4;enable-background:new    ;}
	.st14{fill:#F1D17A;}
	.st15{opacity:0.2;fill:#FFFFFF;enable-background:new    ;}
	.st16{opacity:0.3;enable-background:new    ;}
	.st17{opacity:0.2;}
	.st18{fill:none;}
</style>
<g id="money" transform="translate(-33.29)">
	<g id="freepik--background-complete--inject-197" transform="translate(33.29)">
		<path id="Trazado_123341" class="st0" d="M115.4,245.3L0,0h332.7l-87.6,245.3H115.4z"/>
		<path id="Trazado_123342" class="st1" d="M130.7,245.3c0,0,42.8-26,86.6,0H130.7z"/>
		<path id="Trazado_123343" class="st2" d="M120.6,230.3c0-0.5-5.2-16.8-5.2-16.8l-4.5,1.9l2.4-14.9l10.8,10.1l-4.3,1.6l5.8,17
			L120.6,230.3z"/>
		<path id="Trazado_123344" class="st2" d="M251,132.8c0.2-0.4,3.7-17.2,3.7-17.2l-4.8-0.6l9.4-11.8l4.5,14.1l-4.5-0.7l-3.3,17.7
			L251,132.8z"/>
		<path id="Trazado_123345" class="st2" d="M39.6,90.4c-0.1-0.4-7.3-16-7.3-16l-4.2,2.4l0.4-15.1l12.1,8.6l-4,2.1l8,16.1L39.6,90.4z
			"/>
		<circle id="Elipse_4186" class="st1" cx="312" cy="148" r="30.1"/>
		<circle id="Elipse_4187" class="st3" cx="309.4" cy="145.3" r="30.1"/>
		
			<ellipse id="Elipse_4188" transform="matrix(0.941 -0.3384 0.3384 0.941 -30.8687 113.1883)" class="st0" cx="309.2" cy="145.1" rx="22.9" ry="22.4"/>
		<path id="Trazado_123346" class="st4" d="M316.7,166.1c-11.7,4.2-24.6-1.6-29.1-13.2c0.1,0.2,0.1,0.4,0.2,0.6
			c4.3,11.9,17.4,18.1,29.4,13.8c11.9-4.3,18.1-17.4,13.8-29.4c-0.1-0.2-0.2-0.4-0.2-0.6C334.6,149.1,328.4,161.9,316.7,166.1z"/>
		<path id="Trazado_123347" class="st1" d="M301.6,124.1c11.7-4.2,24.6,1.7,29.1,13.2c-0.1-0.2-0.1-0.4-0.2-0.6
			c-4.3-11.9-17.5-18-29.4-13.7c-11.8,4.3-18,17.4-13.8,29.2c0.1,0.2,0.2,0.4,0.2,0.6C283.7,141.1,290,128.3,301.6,124.1z"/>
		<path id="Trazado_123348" class="st1" d="M322.6,147.2c-1.1-3-3.2-4.5-5.7-4.5c1.3-1.7,1.6-4.1,0.7-6.1c-1.1-3-3.5-4.5-6.9-4.1
			l-1.3-3.7l-3.4,1.2l1.2,3.4l-1.9,0.7l-1.2-3.4l-3.4,1.2l1.2,3.4l-3.1,1.1l-2.2,0.8l1.2,3.4l2.2-0.8l5.9,16.5l-2.4,0.9l1.2,3.4
			l2.4-0.9l0,0l3.1-1.1l1.4,4l3.4-1.2l-1.4-4l1.9-0.7l1.4,4l3.4-1.2l-1.5-4.1C322.7,153.6,323.9,150.6,322.6,147.2z M304.4,138.4
			l4.6-1.7c2.6-0.9,4.4-0.4,5.2,1.8c0.8,2.2-0.3,3.7-2.8,4.6l-5.2,1.9l-2.3-6.4L304.4,138.4z M315.7,153l-5.5,2l-0.4,0.1l-2.4-6.7
			l6-2.1c2.8-1,4.7-0.5,5.5,1.8S318.5,152,315.7,153L315.7,153z"/>
		<path id="Trazado_123349" class="st3" d="M321,147.8c-1.1-3-3.2-4.5-5.7-4.5c1.3-1.7,1.6-4,0.7-6c-1.1-3-3.5-4.5-6.9-4.1l-1.3-3.7
			l-3.4,1.2l1.2,3.4l-1.9,0.7l-1.2-3.4l-3.4,1.2l1.2,3.4l-3.1,1.1l-2.2,0.8l1.2,3.4l2.2-0.8l6,16.5L302,158l1.2,3.4l2.4-0.9l0,0
			l3.1-1.1l1.4,4l3.4-1.2l-1.4-4l1.9-0.7l1.4,4l3.4-1.2l-1.5-4.1C321,154.2,322.2,151.2,321,147.8z M302.8,139l4.6-1.7
			c2.6-0.9,4.4-0.4,5.2,1.8c0.8,2.2-0.3,3.7-2.8,4.6l-5.2,1.9l-2.3-6.4L302.8,139z M314.1,153.6l-5.6,2l-0.4,0.1l-2.4-6.7l6-2.1
			c2.8-1,4.7-0.5,5.5,1.8S316.8,152.6,314.1,153.6L314.1,153.6z"/>
		<path id="Trazado_123350" class="st4" d="M279.1,131.4c-1,0.7-2.1,1.2-3.3,1.5l0.2-0.4c0.4,1,0.8,2.1,1.3,3.4l0.1,0.4l-0.4,0.1
			l-0.9,0.3c-1.6,0.6-3.1,1.1-4.4,1.5l0.2-0.4c0.7,2.1,1.1,3.5,0.9,3.5s-0.7-1.3-1.5-3.3l-0.1-0.3l0.3-0.1c1.2-0.5,2.7-1.1,4.3-1.6
			l0.9-0.3l-0.2,0.5c-0.4-1.3-0.8-2.4-1.2-3.4l-0.1-0.3l0.3-0.1C276.7,131.8,277.9,131.5,279.1,131.4z"/>
		<path id="Trazado_123351" class="st4" d="M308.6,129.3c0.1,0.2-0.8,0.7-1.9,1.1s-2.1,0.6-2.2,0.4s0.8-0.7,1.9-1.1
			S308.5,129.1,308.6,129.3z"/>
		<path id="Trazado_123352" class="st4" d="M281.7,156.9c-0.2,0.1-1.7-3.5-3.3-8s-2.7-8.2-2.5-8.2s1.7,3.5,3.3,8
			S281.9,156.8,281.7,156.9z"/>
		<path id="Trazado_123353" class="st4" d="M311.4,143.2c0.1,0.2-1.3,0.9-3.1,1.6s-3.3,1-3.4,0.8s1.3-0.9,3.1-1.6
			S311.3,143,311.4,143.2z"/>
		<path id="Trazado_123354" class="st4" d="M315.2,153.2c0.1,0.2-1.3,0.9-3.2,1.6s-3.3,1-3.4,0.8s1.3-0.9,3.1-1.6
			S315.1,153,315.2,153.2z"/>
		<circle id="Elipse_4189" class="st1" cx="42" cy="191.3" r="21.2"/>
		<circle id="Elipse_4190" class="st3" cx="42.5" cy="188.7" r="21.2"/>
		
			<ellipse id="Elipse_4191" transform="matrix(0.5632 -0.8263 0.8263 0.5632 -137.1665 117.457)" class="st0" cx="42.5" cy="188.5" rx="15.8" ry="16.2"/>
		<path id="Trazado_123355" class="st4" d="M33.7,201.5c-7.2-4.9-9.2-14.7-4.5-22.1l-0.3,0.4c-5,7.4-3.1,17.4,4.3,22.5
			c7.4,5,17.4,3.1,22.5-4.3c0.1-0.1,0.2-0.3,0.3-0.4C50.7,204.7,40.9,206.4,33.7,201.5z"/>
		<path id="Trazado_123356" class="st1" d="M51.4,175.5c7.2,4.9,9.2,14.7,4.5,22.1c0.1-0.1,0.2-0.2,0.3-0.4c5-7.4,3.1-17.4-4.3-22.5
			c-7.4-5-17.4-3.1-22.5,4.3c-0.1,0.1-0.2,0.3-0.3,0.4C34.3,172.3,44.1,170.6,51.4,175.5z"/>
		<path id="Trazado_123357" class="st1" d="M46.9,197c1.2-1.5,1.3-3.5,0.2-5.1c1.5,0,3-0.8,3.7-2.1c1.3-1.7,1.1-4.2-0.5-5.6l1.6-2.3
			l-2.1-1.4l-1.4,2.1l-1.2-0.8l1.4-2.1l-2.1-1.4l-1.4,2.1l-1.9-1.3l-1.3-0.9l-1.4,2.1l1.3,0.9l-7,10.2l-1.5-1l-1.4,2.1l1.5,1l0,0
			l1.9,1.3l-1.7,2.5l2.1,1.4l1.7-2.5l1.2,0.8l-1.7,2.5L39,201l1.7-2.5C43.3,199.7,45.4,199.2,46.9,197z M44.4,183l2.8,1.9
			c1.6,1.1,2,2.4,1.1,3.7s-2.2,1.4-3.8,0.3l-3.2-2.2l2.7-4L44.4,183z M40.7,195.5l-3.4-2.3L37,193l2.8-4.2l3.7,2.5
			c1.7,1.2,2.2,2.4,1.2,3.9S42.4,196.6,40.7,195.5L40.7,195.5z"/>
		<path id="Trazado_123358" class="st3" d="M45.9,196.3c1.2-1.5,1.3-3.5,0.2-5.1c1.5,0,3-0.8,3.7-2.1c1.3-1.7,1.1-4.2-0.5-5.6
			l1.6-2.3l-2.1-1.4l-1.4,2.1l-1.2-0.8l1.4-2.1l-2.1-1.4l-1.4,2.1l-1.9-1.3l-1.3-0.9l-1.4,2.1l1.3,0.9l-7,10.3l-1.5-1l-1.4,2.1
			l1.5,1l0,0l1.9,1.3l-1.7,2.5l2.1,1.4l1.7-2.5l1.2,0.8l-1.7,2.5l2.1,1.4l1.7-2.5C42.3,199,44.4,198.5,45.9,196.3z M43.4,182.3
			l2.8,1.9c1.6,1.1,2,2.4,1.1,3.7s-2.2,1.4-3.8,0.3l-3.2-2.2l2.7-4L43.4,182.3z M39.7,194.8l-3.4-2.4l-0.2-0.2l2.8-4.2l3.7,2.5
			c1.7,1.2,2.2,2.4,1.2,3.9S41.4,196,39.7,194.8L39.7,194.8z"/>
		<path id="Trazado_123359" class="st4" d="M47.6,179c-0.1,0.1-1-0.3-2.3-1.2l0.5-0.1c-0.4,0.6-0.9,1.4-1.4,2.2l-0.2,0.3l-0.3-0.2
			l-0.6-0.4c-1-0.7-1.9-1.3-2.6-1.9l0.5-0.1c-0.9,1.2-1.6,2-1.7,1.9s0.3-1,1.2-2.3l0.2-0.3l0.3,0.2c0.8,0.5,1.7,1.1,2.7,1.8l0.6,0.4
			l-0.6,0.1c0.5-0.8,1.1-1.5,1.5-2.1l0.2-0.3l0.3,0.2C46.9,178.2,47.7,178.9,47.6,179z"/>
		<path id="Trazado_123360" class="st4" d="M73.8,181.6c-0.1,0.2-0.8,0-1.5-0.5s-1.2-1-1.1-1.2s0.8,0,1.5,0.5
			C73.5,180.9,74,181.4,73.8,181.6z"/>
		<path id="Trazado_123361" class="st4" d="M33.7,190.5c-0.2-0.1,1.2-2.5,3.1-5.3s3.6-4.9,3.8-4.8s-1.2,2.5-3.1,5.2
			S33.9,190.6,33.7,190.5z"/>
		<path id="Trazado_123362" class="st4" d="M44.5,189c-0.1,0.2-1.1-0.3-2.3-1.1s-1.9-1.5-1.8-1.7s1.1,0.3,2.3,1.1
			S44.7,188.8,44.5,189z"/>
		<path id="Trazado_123363" class="st4" d="M40.4,195.3c-0.1,0.2-1.1-0.3-2.3-1.1s-1.9-1.5-1.8-1.7s1.1,0.3,2.3,1.1
			S40.5,195.1,40.4,195.3z"/>
		<circle id="Elipse_4192" class="st1" cx="192.5" cy="30.5" r="16.5"/>
		<circle id="Elipse_4193" class="st3" cx="192.4" cy="28.4" r="16.5"/>
		
			<ellipse id="Elipse_4194" transform="matrix(0.3753 -0.9269 0.9269 0.3753 93.7595 195.6507)" class="st0" cx="192" cy="28.3" rx="12.3" ry="12.6"/>
		<path id="Trazado_123364" class="st4" d="M187,39.6c-6.3-2.6-9.4-9.7-7.1-16c-0.1,0.1-0.1,0.2-0.1,0.3c-2.6,6.4,0.5,13.8,6.9,16.4
			c6.4,2.6,13.8-0.5,16.4-6.9c0-0.1,0.1-0.2,0.1-0.3C200.5,39.2,193.3,42.1,187,39.6z"/>
		<path id="Trazado_123365" class="st1" d="M196.7,17c6.3,2.5,9.4,9.7,7.1,16c0.1-0.1,0.1-0.2,0.1-0.3c2.6-6.4-0.5-13.8-6.9-16.4
			s-13.8,0.5-16.4,6.9l0,0c0,0.1-0.1,0.2-0.1,0.3C183.2,17.3,190.4,14.4,196.7,17L196.7,17z"/>
		<path id="Trazado_123366" class="st1" d="M196.2,34c0.7-1.3,0.4-2.9-0.7-3.9c1.2-0.2,2.1-1.1,2.5-2.2c0.7-1.5,0.1-3.3-1.3-4.2
			l0.8-2l-1.8-0.7l-0.8,1.8l-1.1-0.4l0.7-1.8l-1.8-0.7l-0.7,1.8l-1.7-0.7l-1.1-0.5l-0.7,1.8l1.2,0.5l-3.6,8.9l-1.3-0.5l-0.7,1.8
			l1.3,0.5l0,0l1.6,0.7l-0.9,2.2l1.8,0.7l0.9-2.1l1.1,0.4l-0.9,2.1l1.8,0.7l0.9-2.2C193.9,36.7,195.4,35.9,196.2,34z M191.9,23.8
			l2.5,1c1.4,0.6,1.9,1.5,1.5,2.6s-1.5,1.4-2.9,0.9l-2.8-1.1l1.4-3.5L191.9,23.8z M191.2,33.9l-3-1.2l-0.2-0.1l1.5-3.6l3.2,1.3
			c1.5,0.6,2.1,1.5,1.6,2.8S192.7,34.5,191.2,33.9L191.2,33.9z"/>
		<path id="Trazado_123367" class="st3" d="M194.8,33.7c0.7-1.3,0.4-2.9-0.7-3.9c1.2-0.2,2.1-1.1,2.5-2.2c0.7-1.5,0.1-3.3-1.3-4.2
			l0.8-2l-1.8-0.7l-0.8,1.8l-1.1-0.4l0.7-1.8l-1.8-0.7l-0.7,1.8l-1.7-0.7l-1.2-0.5l-0.7,1.8l1.2,0.5l-3.6,8.9l-1.3-0.5l-0.7,1.8
			l1.3,0.5l0,0l1.7,0.7l-0.9,2.2l1.8,0.7l0.9-2.1l1.1,0.4l-0.9,2.1l1.8,0.7l0.9-2.2C192.5,36.3,194.1,35.5,194.8,33.7z M190.6,23.4
			l2.5,1c1.4,0.6,1.9,1.4,1.5,2.6s-1.5,1.4-2.9,0.9l-2.8-1.1l1.4-3.5L190.6,23.4z M189.9,33.5l-3-1.2l-0.2-0.1l1.5-3.6l3.2,1.3
			c1.5,0.6,2.1,1.5,1.6,2.8C192.4,33.9,191.4,34.1,189.9,33.5L189.9,33.5z"/>
		<path id="Trazado_123368" class="st4" d="M193.3,20.2c-0.1,0.1-0.8,0-2-0.4l0.4-0.2c-0.2,0.5-0.4,1.2-0.7,1.9l-0.1,0.4l-0.4-0.2
			l-0.5-0.2c-0.9-0.4-1.7-0.7-2.3-1l0.4-0.2c-0.5,1.1-0.9,1.8-1.1,1.7s0-0.8,0.4-2l0.1-0.3l0.3,0.1c0.7,0.2,1.5,0.5,2.4,0.9l0.5,0.2
			l-0.5,0.2c0.3-0.7,0.6-1.3,0.8-1.8l0.2-0.3l0.3,0.1C192.7,19.7,193.4,20.1,193.3,20.2z"/>
		<path id="Trazado_123369" class="st4" d="M198.9,21.6c-0.1,0.2-0.6,0.2-1.3-0.1s-1.1-0.6-1-0.8s0.6-0.2,1.3,0.1
			S199,21.4,198.9,21.6z"/>
		<path id="Trazado_123370" class="st4" d="M182.8,31.2c-0.2-0.1,0.4-2.1,1.4-4.5s1.9-4.3,2.2-4.2S186,24.6,185,27
			S183.1,31.3,182.8,31.2z"/>
		<path id="Trazado_123371" class="st4" d="M192.9,28.3c-0.1,0.2-0.9,0.1-1.9-0.3s-1.7-0.9-1.6-1.1s0.9-0.1,1.9,0.3
			S193,28.1,192.9,28.3z"/>
		<path id="Trazado_123372" class="st4" d="M189.8,33.8c-0.1,0.2-0.9,0.1-1.9-0.3s-1.7-0.9-1.6-1.1s0.9-0.1,1.9,0.3
			S189.8,33.6,189.8,33.8z"/>
	</g>
	<g id="freepik--Floor--inject-197" transform="translate(48.425 245.199)">
		<path id="Trazado_123373" class="st5" d="M313,0.1c0,0.1-70.1,0.1-156.5,0.1S0,0.2,0,0.1S70.1,0,156.5,0S313,0.1,313,0.1z"/>
	</g>
	<g id="freepik--Character--inject-197" transform="translate(138.163 47.893)">
		<path id="Trazado_123374" class="st6" d="M55.6,1.1c0,0.2-4.2,12.3-4.2,12.3l-6.3-3.3L48.3,0L55.6,1.1z"/>
		<path id="Trazado_123375" class="st5" d="M51.4,13.4l0.7,0.1l4.2-12.3l-0.8-0.1L51.4,13.4z"/>
		<path id="Trazado_123376" class="st5" d="M51.3,2c-0.1,0.2-0.2,0.2-0.4,0.2c0,0,0,0,0,0c-0.1-0.1-0.1-0.3,0-0.4
			c0.1-0.1,0.2-0.1,0.3-0.1C51.3,1.7,51.4,1.9,51.3,2L51.3,2z"/>
		<path id="Trazado_123377" class="st7" d="M44.2,7.5C44.2,7.4,44.2,7.4,44.2,7.5C44.2,7.4,44.2,7.4,44.2,7.5
			c0.2-0.3,1.1-1.2,1.9-2.1c0.6-0.6,1.3-0.9,2.1-0.8l1.1,0.1c1.1,0,1.9,1,1.9,2.1c0,0.1,0,0.1,0,0.2l-0.2,1.5c0,0.3-0.3,0.5-0.5,0.5
			l-2.9,0l-0.4,0.5L44.2,7.5z"/>
		<path id="Trazado_123380" class="st5" d="M91.4,19.1c-1.6-2.2-4.4-3-7.1-3.7l-5.9-1.5c-1.2-0.4-2.4-0.6-3.7-0.5
			c-0.3,0-0.6,0.1-0.9,0.2c0.2-0.5,0.4-1,0.6-1.5c0.4-0.9,0.4-1.9,0.1-2.8c-0.3-0.6-0.8-1.1-1.3-1.5c-1.3-1.1-2.8-2.7-4.4-2.9
			c-1.7-0.2-3.3,0.6-4.2,2l0.1,1c0.9-1.2,2.1-2.1,3.5-2.6c0.5,1.6,2,5.2,3.3,6.2c0.1,0.1,0.3,0.2,0.4,0.4c0.1,0.3,0,0.6-0.2,0.9
			c-0.5,0.8-0.8,1.6-1.1,2.5c-0.4,1.2-0.7,2.5-0.8,3.8c-0.2,0.8,0.1,1.7,0.7,2.2c0.7,0.6,1.6,0.9,2.5,1.1c0.9,0.2,1.8,0.4,2.6,0.8
			c1.4,0.8,2.2,2.2,2.1,3.8c0.6-0.2,1.1-0.8,1.1-1.5l1.4,1.1c0.2-0.9,0.3-1.8,0.1-2.6c0.6,0.5,1.2,0.9,1.9,1.4c1.5,1,3.3,1.8,5,1.3
			l0-1.4l2.8,2c0.8-1,1.1-2.4,0.6-3.7L92,25C92.9,23.1,92.7,20.8,91.4,19.1L91.4,19.1z"/>
		<path id="Trazado_123381" class="st5" d="M68.7,4.1c1.6-1.5,4-1.4,5.5,0.2c0,0,0,0,0.1,0.1c0.6,0.7,0.9,1.6,1.5,2.3
			c2.1,2.1,6.2,0.2,8.4,2.3c1.5,1.4,1.3,4.2,3,5.4c1.5,1.1,3.9,0.5,5.3,1.8c0.5,0.6,0.8,1.3,1,2.1c0.1,0.8,0.5,1.5,0.9,2.1
			c0.5,0.6,1.3,0.9,2.1,0.6c0.1,1-0.6,1.8-1.6,1.9c-0.9,0.1-1.8,0-2.7-0.4c-0.9-0.3-1.8-0.4-2.7-0.1c-1.2,0.4-1.8,1.7-3,2.2
			c-1.1,0.3-2.2,0.1-3.1-0.6c-0.8-0.7-1.5-1.6-2.1-2.5c-0.6-0.9-1.4-1.8-2.3-2.4c-1.2-0.6-2.6-0.9-4-0.8c-1.4,0.1-2.8-0.2-4-0.7
			c-1.3-0.6-2-2-1.6-3.4"/>
		<path id="Trazado_123382" class="st5" d="M69,18.3c0,0.3,0.3,0.5,0.6,0.4c0.3,0,0.5-0.1,0.7-0.3c1.8-1.1,3.3-2.6,4.4-4.4
			c1-1.5,1.4-3.3,1.1-5.1c-0.3-1-0.8-1.8-1.6-2.5c-0.8-0.7-1.6-1.2-2.5-1.6c-0.9-0.5-1.9-0.8-2.9-0.8c-2.8,0-5.1,2.4-5.1,5.2"/>
		<path id="Trazado_123383" class="st7" d="M73.7,9.5c-0.8,0.7-1.8,1.4-2.7,2l-1.2,2.2c-0.6,1.2-0.2,2.6,0.9,3.3l0,0l-3.6,7.1
			c-0.8,1.5-5.1,1.3-6.7,0.4l0,0c-1.6-0.9-0.3-2.5,0.5-3.9c0.7-1.1,1.2-2.2,1.7-3.3c-1.2-1.1-1.6-2.9-0.9-4.4
			c0.8-1.9,1.7-3.7,2.8-5.4c1-1.6,2.6-3.2,4.2-2.2L73.7,9.5z"/>
		<path id="Trazado_123384" class="st5" d="M64.5,9.3c-0.1,0.2,0,0.4,0.2,0.5c0.2,0.1,0.4,0.1,0.5-0.1c0,0,0,0,0,0
			c0.1-0.2,0-0.4-0.1-0.5C64.9,9.1,64.6,9.1,64.5,9.3C64.5,9.3,64.5,9.3,64.5,9.3z"/>
		<path id="Trazado_123385" class="st5" d="M64.5,8.9c0,0.1,0.4,0,0.8,0.2s0.5,0.5,0.6,0.5s0-0.1,0-0.3c-0.1-0.2-0.3-0.4-0.5-0.5
			c-0.2-0.1-0.4-0.1-0.6-0.1C64.6,8.8,64.5,8.9,64.5,8.9z"/>
		<path id="Trazado_123386" class="st5" d="M68.1,11.4c-0.1,0.2,0,0.4,0.1,0.5c0.2,0.1,0.4,0.1,0.5-0.1c0,0,0,0,0,0
			c0.1-0.2,0-0.4-0.1-0.5C68.4,11.2,68.2,11.2,68.1,11.4C68.1,11.4,68.1,11.4,68.1,11.4z"/>
		<path id="Trazado_123387" class="st5" d="M68.2,10.9c0,0.1,0.4,0,0.8,0.2s0.5,0.5,0.6,0.5s0-0.1,0-0.3c-0.2-0.4-0.6-0.6-1.1-0.6
			C68.2,10.8,68.2,10.9,68.2,10.9z"/>
		<path id="Trazado_123388" class="st5" d="M65.3,13c-0.2-0.2-0.4-0.3-0.6-0.4c-0.1-0.1-0.2-0.1-0.2-0.2s0.1-0.2,0.2-0.2l0.7-0.6
			c0.6-0.5,1.1-1,1.6-1.6c-0.6,0.4-1.2,0.9-1.8,1.4L64.7,12c-0.1,0.1-0.2,0.2-0.2,0.3c0,0.1,0,0.2,0.1,0.2c0,0,0.1,0.1,0.2,0.1
			C64.9,12.8,65.1,12.9,65.3,13z"/>
		<path id="Trazado_123389" class="st8" d="M62.7,17.3c1.3,0.7,2.7,1,4.2,1c-1.4,0.8-3.2,0.7-4.5-0.3L62.7,17.3z"/>
		<path id="Trazado_123390" class="st8" d="M65,14c0.2-0.1,0.5-0.1,0.7,0.1c0.2,0.1,0.3,0.3,0.3,0.5c0,0.2,0,0.4-0.2,0.5
			c-0.2,0.1-0.4,0-0.6-0.1c-0.1-0.2-0.3-0.3-0.3-0.5c0-0.1,0-0.1,0-0.2C64.9,14.1,64.9,14,65,14"/>
		<path id="Trazado_123391" class="st5" d="M66.3,13.8c-0.1,0-0.3,0.4-0.8,0.5c-0.3,0-0.6,0-0.9-0.1c0.1,0.1,0.1,0.2,0.2,0.2
			c0.2,0.1,0.5,0.2,0.8,0.1c0.3-0.1,0.5-0.2,0.6-0.4C66.3,14,66.3,13.9,66.3,13.8z"/>
		<path id="Trazado_123392" class="st5" d="M68.3,10.2c0,0.1,0.4,0.3,0.8,0.6s0.7,0.6,0.8,0.5s0-0.2-0.1-0.3
			c-0.1-0.2-0.3-0.4-0.5-0.6c-0.2-0.1-0.5-0.2-0.7-0.3C68.5,10.1,68.4,10.1,68.3,10.2z"/>
		<path id="Trazado_123393" class="st5" d="M65.3,7.9c0,0.1,0.3,0.2,0.6,0.3s0.5,0.4,0.6,0.3s0.1-0.1,0-0.3
			c-0.2-0.4-0.6-0.6-1.1-0.5C65.3,7.8,65.3,7.8,65.3,7.9z"/>
		<path id="Trazado_123394" class="st5" d="M68.7,5c-0.4,1.7,0,3.4,0.9,4.8c0.5,0.5,0.8,1.1,1.1,1.8c0.2,0.8,0,1.8,0.3,2.6
			c0.5,0.9,1.4,1.4,2.5,1.4c1,0,2,0.3,2.8,0.8c1.1,0.8,1.5,2.4,2.8,2.8c1.4,0.4,3-1.1,4.3-0.5c0.8,0.4,1.2,1.4,1.9,1.9
			c0.9,0.3,1.9,0.3,2.8,0c0.9-0.2,2.1-0.3,2.7,0.4"/>
		<path id="Trazado_123395" class="st6" d="M91,20.9c-0.3-0.3-0.7-0.5-1.1-0.5c-0.5,0-1,0-1.5,0.1c-0.6,0.2-1.3,0.3-2,0.3
			c-0.4,0-0.8-0.1-1.1-0.4c-0.3-0.3-0.6-0.6-0.9-0.9c-0.2-0.4-0.6-0.6-1-0.8c-0.4-0.2-0.9-0.2-1.3,0c-0.5,0.1-0.9,0.3-1.4,0.5
			c-0.5,0.2-1.1,0.2-1.6,0.1c-0.5-0.2-1-0.6-1.3-1.1c-0.3-0.4-0.6-0.9-1-1.3c-0.4-0.4-0.8-0.7-1.3-0.8c-0.5-0.1-1-0.2-1.6-0.3
			c-0.5-0.1-1-0.2-1.5-0.4c-0.5-0.2-0.9-0.5-1.2-1c-0.2-0.4-0.3-0.9-0.3-1.4c0-0.4,0-0.9-0.1-1.3c-0.3-0.7-0.7-1.4-1.2-2
			c-0.6-1-0.9-2.2-0.9-3.4c0-0.3,0-0.6,0.1-0.9c0-0.1,0-0.2,0.1-0.3c-0.1,0.4-0.1,0.8-0.1,1.3c0,1.2,0.3,2.3,1,3.3
			c0.5,0.6,1,1.3,1.3,2.1C71,12,71,12.5,71,12.9c0,0.5,0.1,0.9,0.3,1.3c0.3,0.4,0.7,0.7,1.1,0.9c0.5,0.2,1,0.3,1.5,0.4
			c0.5,0.1,1.1,0.1,1.6,0.3c0.6,0.2,1.1,0.5,1.5,0.9c0.4,0.4,0.7,0.9,1,1.3c0.3,0.4,0.7,0.8,1.2,0.9c0.5,0.1,1,0.1,1.5-0.1
			c0.5-0.1,0.9-0.3,1.4-0.5c0.5-0.2,1-0.1,1.5,0c0.4,0.2,0.8,0.5,1.1,0.9c0.2,0.3,0.5,0.6,0.8,0.9c0.3,0.2,0.7,0.3,1,0.3
			c0.7,0,1.3-0.1,1.9-0.3c0.5-0.1,1-0.2,1.5-0.1c0.3,0,0.6,0.2,0.9,0.4C90.9,20.7,90.9,20.8,91,20.9L91,20.9z"/>
		<path id="Trazado_123396" class="st6" d="M91.4,17.2c-0.1,0-0.2,0.1-0.3,0.1c-2,0.4-4.1-0.3-5.4-2c-0.4-0.6-1-1.2-1.7-1.6
			c-0.8-0.4-1.6-0.5-2.5-0.4c-0.9,0.1-1.9,0.2-2.9,0.1c-0.5,0-1-0.2-1.4-0.4c-0.5-0.2-0.8-0.5-1.1-0.9c-0.4-0.8-0.6-1.6-0.9-2.5
			C75.2,9.3,75,9,74.6,8.8c-0.3-0.2-0.7-0.3-1.1-0.4c-0.7-0.1-1.4-0.3-2-0.6c-0.9-0.5-1.6-1.3-2-2.2c-0.1-0.3-0.2-0.5-0.2-0.8
			c0-0.1,0-0.2,0-0.3c0.1,0.4,0.2,0.7,0.3,1.1c0.4,0.9,1.1,1.7,2,2.1c0.6,0.3,1.3,0.4,2,0.5c0.4,0.1,0.8,0.2,1.1,0.4
			c0.4,0.2,0.7,0.5,0.9,0.9c0.4,0.8,0.4,1.7,0.9,2.5c0.6,0.7,1.4,1.2,2.3,1.2c0.9,0,1.9,0,2.8-0.1c0.9-0.1,1.8,0.1,2.6,0.4
			c0.7,0.5,1.3,1,1.7,1.7c0.4,0.5,0.9,1,1.5,1.4c0.9,0.5,1.8,0.8,2.8,0.8C91.1,17.3,91.4,17.2,91.4,17.2z"/>
		<path id="Trazado_123397" class="st9" d="M67.9,22.4c1.6,0.8,3,1.8,4.2,3.2c0.8,0.2,9.8,9.7,13.6,13.8c1.4,1.5,1.8,3.6,1.1,5.5
			c-0.9,2.4-3.4,3.8-5.9,3.4l-12.8-1.7L69,40l8.5,1.1L68,32.9C63.3,40,55.6,50,53.9,51.6L41.6,38.2l7.2-5.9l2.8-6.9
			c-2.4-0.3-13,1.2-15.1-1.8s6.6-16.9,6.6-16.9l4.2,2.7l-3.6,9.1c0,0,6.6-0.3,11.8-0.3c1,0,2,0.2,3,0.5c0.6,0.2,3,0.9,3,0.9l0,0.3
			c0.2,1.6,1.7,2.8,3.3,2.6L67.9,22.4z"/>
		<path id="Trazado_123398" class="st5" d="M53.8,45.4c-0.3-0.2-0.6-0.5-0.9-0.9c-0.6-0.8-1.2-1.6-1.7-2.4c-0.6-1-1-2.1-1.4-3.3
			l0.1,0c0.1,0.2,0.1,0.4,0.2,0.6c-0.1-0.2-0.2-0.3-0.3-0.5l0.1,0c0.4,1.1,0.9,2.1,1.5,3.2C52.6,44,53.8,45.3,53.8,45.4z"/>
		<path id="Trazado_123399" class="st5" d="M55.8,38.3c-0.3-0.1-0.7-0.3-1-0.5c-0.6-0.4-1.4-0.9-2.2-1.6s-1.5-1.3-2.1-1.7
			c-0.3-0.2-0.6-0.5-0.8-0.8c0.1-0.1,1.3,1.1,3,2.3S55.9,38.3,55.8,38.3z"/>
		<path id="Trazado_123400" class="st5" d="M60.4,36.2c-0.5,0-1,0-1.6-0.1c-2.5-0.4-4.9-1.2-7-2.6c-0.5-0.3-0.9-0.6-1.2-0.9
			c0.5,0.2,0.9,0.5,1.4,0.8c1.1,0.6,2.2,1.1,3.4,1.6c1.2,0.4,2.4,0.8,3.6,1C59.4,36,59.9,36.1,60.4,36.2L60.4,36.2z"/>
		<path id="Trazado_123401" class="st5" d="M75.5,29.1c-0.3-0.4-0.6-0.8-0.9-1.2c-0.7-0.9-1.5-1.8-2.4-2.6c-0.9-0.8-1.8-1.5-2.9-2.2
			c-0.4-0.2-0.9-0.5-1.3-0.8c0.5,0.1,0.9,0.4,1.4,0.6c2.1,1.2,3.9,2.8,5.3,4.8C75,28.2,75.3,28.6,75.5,29.1z"/>
		<path id="Trazado_123402" class="st4" d="M75.9,29.5c-0.1,0-0.2,0.1-0.3,0.1l-0.8,0.2L73.5,30c-0.5,0.1-1.1,0.2-1.7,0.3
			c-0.7,0.1-1.4,0-2.1-0.3c-0.4-0.2-0.7-0.4-1-0.7c-0.3-0.3-0.5-0.7-0.8-1c-0.5-0.7-0.9-1.5-1.4-2.3c-0.3-0.4-0.6-0.7-1-0.9
			c-0.4-0.3-0.8-0.4-1.3-0.5c-0.9-0.1-1.9-0.1-2.8,0c-0.9,0.1-1.8,0.2-2.7,0c-1.5-0.3-2.9-1.1-3.9-2.2c-0.7-0.8-1.2-1.7-1.5-2.7
			c-0.1-0.3-0.1-0.6-0.1-0.8c0-0.1,0-0.2,0-0.3c0,0,0,0.4,0.2,1.1c0.3,1,0.8,1.9,1.5,2.6c1,1.1,2.4,1.9,3.8,2.1
			c0.9,0.1,1.8,0.1,2.6-0.1c1-0.2,2-0.2,2.9,0c0.5,0.1,1,0.3,1.4,0.5c0.4,0.3,0.8,0.6,1.1,1c0.6,0.8,1,1.6,1.4,2.3
			c0.2,0.3,0.5,0.7,0.7,1c0.3,0.3,0.6,0.5,0.9,0.7c0.6,0.3,1.3,0.4,2,0.3c0.6,0,1.2-0.2,1.7-0.2l1.3-0.2l0.8-0.1
			C75.7,29.5,75.8,29.5,75.9,29.5L75.9,29.5z"/>
		<path id="Trazado_123403" class="st4" d="M48.5,25.3c-0.4-0.1-0.8-0.2-1.1-0.5c-0.9-0.5-1.7-1.2-2.2-2.1c-0.5-0.9-0.7-2-0.4-3
			c0.1-0.3,0.2-0.6,0.4-0.8c0.1-0.2,0.2-0.3,0.2-0.3c-0.2,0.4-0.3,0.7-0.4,1.1c-0.2,1,0,2,0.5,2.8c0.5,0.8,1.2,1.5,2.1,2
			C48.1,25.1,48.5,25.3,48.5,25.3z"/>
		<path id="Trazado_123404" class="st4" d="M66.9,34.5c-0.3,0-0.5,0-0.8,0c-0.7,0.1-1.4,0.2-2,0.4c-0.5,0.1-0.9,0.3-1.4,0.4
			c-0.6,0.1-1.1,0.1-1.7,0c-1.3-0.4-2.4-1.1-3.1-2.2c-0.8-1.1-1.4-2.2-2.1-3.2c-0.5-0.9-1.3-1.6-2.1-2.2c-0.6-0.4-1.2-0.6-1.9-0.6
			c-0.5,0-0.8,0.1-0.8,0c0.1,0,0.1-0.1,0.2-0.1c0.2,0,0.4-0.1,0.6-0.1c0.7,0,1.4,0.2,2,0.6c0.9,0.5,1.7,1.3,2.2,2.2
			c0.7,1,1.3,2.1,2.1,3.2c0.7,1,1.7,1.8,2.9,2.1c1,0.1,2,0,3-0.3c0.7-0.2,1.4-0.3,2.1-0.4c0.2,0,0.4,0,0.6,0.1
			C66.8,34.5,66.9,34.5,66.9,34.5z"/>
		<path id="Trazado_123405" class="st4" d="M79.8,33.5c-0.1-0.1-0.2-0.1-0.3-0.2c-0.3-0.1-0.7-0.2-1-0.1c-0.5,0.1-1,0.3-1.4,0.6
			c-0.5,0.4-1,0.8-1.4,1.3c-0.5,0.5-1,0.8-1.6,1.1c-0.5,0.2-1.1,0.2-1.6,0.1c-0.4,0-0.7-0.2-1-0.3c-0.1,0-0.2-0.1-0.3-0.2
			c0.4,0.2,0.9,0.3,1.4,0.3c0.5,0,1,0,1.5-0.2c0.6-0.2,1.1-0.6,1.5-1c0.4-0.5,0.9-0.9,1.4-1.3c0.4-0.3,0.9-0.5,1.5-0.6
			c0.4,0,0.7,0.1,1.1,0.2C79.7,33.4,79.8,33.5,79.8,33.5z"/>
		<path id="Trazado_123406" class="st4" d="M87,44c-0.2-0.6-0.4-1.1-0.6-1.7c-0.3-0.6-0.7-1.1-1.2-1.5c-0.6-0.5-1.4-0.7-2.2-0.5
			c-0.8,0.2-1.5,0.6-2.1,1.1c-0.6,0.4-1.2,0.6-1.9,0.6c-0.5,0-0.9-0.2-1.3-0.5c-0.1-0.1-0.2-0.3-0.3-0.4c0.1,0.1,0.2,0.2,0.3,0.3
			c0.3,0.3,0.8,0.4,1.2,0.4c0.6-0.1,1.3-0.3,1.8-0.6c0.7-0.5,1.4-0.9,2.2-1.1c0.8-0.2,1.7,0,2.4,0.6c0.5,0.4,0.9,1,1.2,1.6
			c0.2,0.4,0.3,0.8,0.4,1.3C87,43.6,87,43.8,87,44L87,44z"/>
		<path id="Trazado_123407" class="st4" d="M72.6,46.9c0.3-0.1,0.6-0.3,0.8-0.5c0.2-0.3,0.3-0.6,0.2-1c-0.1-0.4-0.2-0.8-0.4-1.2
			c-0.2-0.4-0.4-0.8-0.5-1.3c-0.1-0.4-0.1-0.8,0.1-1.1c0.1-0.2,0.2-0.5,0.5-0.6c0.2-0.1,0.3-0.1,0.3-0.1c-0.2,0.2-0.4,0.5-0.5,0.8
			c-0.1,0.3-0.1,0.7,0,1c0.1,0.4,0.3,0.8,0.5,1.2c0.2,0.4,0.3,0.9,0.4,1.3c0,0.4-0.1,0.8-0.3,1.1c-0.2,0.2-0.4,0.4-0.6,0.4
			C72.7,47,72.6,47,72.6,46.9z"/>
		<path id="Trazado_123408" class="st4" d="M58,46.7c0.1-0.2,0.1-0.4,0.1-0.7c0-0.6-0.3-1.2-0.8-1.6c-0.8-0.5-1.6-0.9-2.6-1.1
			c-0.6-0.2-1.1-0.4-1.6-0.7c-0.5-0.4-0.9-0.8-1.2-1.4c-0.5-1.1-0.9-2.2-1.1-3.4c-0.2-0.9-0.6-1.8-1.1-2.6c-0.4-0.5-0.9-0.9-1.4-1.2
			c-0.4-0.2-0.7-0.2-0.7-0.2s0.1,0,0.2,0c0.2,0,0.4,0.1,0.5,0.1c0.6,0.2,1.2,0.6,1.6,1.2c0.6,0.8,1,1.7,1.2,2.6
			c0.2,1.1,0.6,2.2,1.1,3.3c0.3,0.5,0.7,1,1.1,1.3c0.5,0.3,1,0.5,1.5,0.7c1,0.2,1.8,0.6,2.6,1.2c0.5,0.4,0.8,1.1,0.8,1.8
			c0,0.2-0.1,0.4-0.1,0.5C58,46.6,58,46.7,58,46.7z"/>
		<path id="Trazado_123409" class="st4" d="M55,50.3c-0.2-0.8-0.6-1.6-1.1-2.3c-0.5-0.6-1.2-1.2-1.9-1.6c0.3,0,0.5,0.1,0.7,0.3
			c0.5,0.3,1,0.7,1.4,1.2c0.4,0.5,0.6,1.1,0.8,1.7C55.1,49.8,55.1,50.1,55,50.3L55,50.3z"/>
		<path id="Trazado_123410" class="st4" d="M44.4,18.7c-0.1,0-0.2-0.1-0.3-0.1c-0.3,0-0.6,0.1-0.9,0.2c-0.9,0.6-1.8,1.2-2.6,1.9
			c-0.5,0.4-1.1,0.6-1.6,0.8c-0.5,0.1-1,0.2-1.5,0.1c-0.3,0-0.7-0.1-1-0.3c-0.2-0.1-0.3-0.2-0.3-0.2c0.4,0.2,0.8,0.3,1.3,0.3
			c1.1,0,2.1-0.3,3-1c0.9-0.7,1.8-1.3,2.7-1.8c0.3-0.1,0.7-0.2,1-0.1C44.3,18.6,44.4,18.7,44.4,18.7z"/>
		<path id="Trazado_123411" class="st4" d="M44.7,15.6c0-0.1-0.1-0.1-0.1-0.2c-0.2-0.1-0.4-0.2-0.6-0.2c-0.7,0.1-1.5,0.2-2.3,0.1
			c-0.4-0.1-0.8-0.2-1.2-0.4c-0.3-0.2-0.5-0.5-0.7-0.8c-0.2-0.3-0.3-0.6-0.2-0.9c0.1,0.3,0.2,0.6,0.3,0.8c0.4,0.6,1.1,1,1.8,1.1
			c0.4,0.1,0.8,0.1,1.2,0c0.4,0,0.7-0.1,1-0.1c0.3,0,0.5,0.1,0.6,0.3C44.7,15.4,44.7,15.5,44.7,15.6z"/>
		<g id="Grupo_55323" transform="translate(59.181 32.513)" class="st10">
			<path id="Trazado_123412" d="M8.7,0.5c0.8-2.3-2.9,4-4.9,5.5C2.9,6.7,2,7.4,1.3,8.3C0.5,9.7,0,11.2,0,12.8
				C0,12.8,8.2,2.1,8.7,0.5z"/>
		</g>
		<path id="Trazado_123413" class="st11" d="M17.1,85.7l0.2-3.7l7,0.4L24,87.9h-0.4c-1.9,0-9.8-0.2-11.1-0.6
			C11.1,86.7,17.1,85.7,17.1,85.7z"/>
		<g id="Grupo_55324" transform="translate(21.499 85.793)" class="st12">
			<path id="Trazado_123414" d="M0,1.9c0.1-0.6,0.5-1.1,1-1.4C1.5,0.1,2.1-0.1,2.6,0L2.5,2L0,1.9z"/>
		</g>
		<path id="Trazado_123415" class="st13" d="M14.2,86.3c0,0-2.1,0.5-1.9,0.8S20.5,88,24,87.9v-0.2l-9.3-0.4
			C14.7,87.3,14.6,86.4,14.2,86.3z"/>
		<path id="Trazado_123416" class="st5" d="M24.1,87.7h-1.7c-1.1,0-2.6-0.1-4.2-0.2s-3.1-0.2-4.2-0.3l-1.3-0.1l-0.3,0h0.3l1.3,0.1
			c1.1,0.1,2.6,0.2,4.2,0.3s3.1,0.1,4.2,0.2l1.3,0H24L24.1,87.7z"/>
		<path id="Trazado_123417" class="st5" d="M14.7,87.4c-0.1-0.4-0.3-0.8-0.6-1.1c0.2,0.1,0.4,0.3,0.5,0.5
			C14.7,86.9,14.8,87.1,14.7,87.4z"/>
		<path id="Trazado_123418" class="st5" d="M16.8,86.4c-0.1-0.1-0.2-0.2-0.2-0.3c-0.1-0.2-0.2-0.3-0.1-0.3s0.1,0.1,0.2,0.3
			C16.8,86.2,16.8,86.3,16.8,86.4L16.8,86.4z"/>
		<path id="Trazado_123419" class="st5" d="M17.4,86.2c-0.1,0-0.2-0.1-0.2-0.2c-0.1-0.1-0.2-0.2-0.2-0.2s0.1,0.1,0.2,0.2
			S17.4,86.2,17.4,86.2z"/>
		<path id="Trazado_123420" class="st5" d="M17.8,85.5c0,0-0.2,0-0.4,0s-0.4,0-0.4-0.1c0.1,0,0.2,0,0.4,0
			C17.6,85.5,17.7,85.5,17.8,85.5z"/>
		<path id="Trazado_123421" class="st5" d="M18,85.1c-0.1,0.1-0.3,0.1-0.4,0.1c-0.1,0-0.3,0-0.4-0.1c0.1,0,0.3,0,0.4,0
			C17.7,85.1,17.8,85.1,18,85.1z"/>
		<path id="Trazado_123422" class="st5" d="M16.6,85.8c-0.1,0-0.3,0-0.4,0c-0.2,0-0.3-0.1-0.5-0.1c-0.1,0-0.2-0.1-0.3-0.1
			c-0.1,0-0.1-0.1-0.1-0.1c0-0.1,0-0.1,0.1-0.2c0.4-0.2,0.8,0,1,0.3C16.5,85.6,16.5,85.7,16.6,85.8c-0.1,0.1-0.1,0.1-0.1,0.1
			c0-0.1-0.1-0.3-0.2-0.4c-0.1-0.1-0.2-0.2-0.4-0.3c-0.2-0.1-0.4-0.1-0.5,0c-0.1,0.1-0.1,0.1,0,0.2c0.1,0,0.2,0.1,0.2,0.1
			c0.1,0.1,0.3,0.1,0.5,0.1C16.5,85.8,16.6,85.8,16.6,85.8z"/>
		<path id="Trazado_123423" class="st5" d="M16.5,85.8c-0.1-0.1-0.1-0.2,0-0.3c0-0.1,0.1-0.2,0.1-0.3c0.1-0.1,0.2-0.2,0.4-0.2
			c0.1,0,0.1,0.1,0.1,0.2c0,0.1,0,0.1-0.1,0.2c-0.1,0.1-0.1,0.2-0.2,0.3C16.8,85.7,16.7,85.8,16.5,85.8c0.1-0.1,0.2-0.1,0.3-0.2
			c0.1-0.1,0.1-0.2,0.2-0.3c0.1-0.1,0.1-0.3,0-0.3s-0.2,0.1-0.3,0.2c-0.1,0.1-0.1,0.2-0.1,0.3C16.5,85.6,16.5,85.7,16.5,85.8z"/>
		<path id="Trazado_123424" class="st5" d="M24.1,85.8c-0.2,0-0.4,0-0.5,0c-0.8,0-1.6,0.6-1.9,1.4c-0.1,0.3-0.1,0.5-0.2,0.5
			c0,0,0-0.1,0-0.1c0-0.1,0-0.3,0.1-0.4c0.3-0.8,1.1-1.4,2-1.4c0.1,0,0.3,0,0.4,0C24,85.8,24.1,85.8,24.1,85.8z"/>
		<path id="Trazado_123425" class="st5" d="M23.6,82.8c0,0.5,0,1,0,1.4c0,0.5,0,1-0.1,1.4c0-0.5,0-1,0-1.4
			C23.5,83.8,23.5,83.3,23.6,82.8z"/>
		<path id="Trazado_123426" class="st5" d="M20.7,86.9C20.3,87,20,87,19.6,87c-0.3,0-0.7-0.1-1-0.1c0,0,0.5,0,1,0.1
			S20.7,86.9,20.7,86.9z"/>
		<path id="Trazado_123427" class="st5" d="M22,87c0,0,0,0.1-0.1,0.2s-0.1,0.2-0.1,0.2s0-0.1,0-0.2S22,87,22,87z"/>
		<path id="Trazado_123428" class="st5" d="M22.6,86.4c0,0.1-0.1,0.1-0.1,0.2c-0.1,0.1-0.2,0.1-0.2,0.1s0-0.1,0.1-0.2
			S22.6,86.4,22.6,86.4z"/>
		<path id="Trazado_123429" class="st5" d="M23.3,86.1c-0.1,0-0.1,0-0.2,0c-0.1,0-0.2,0.1-0.2,0.1s0-0.1,0.2-0.1
			S23.4,86.1,23.3,86.1z"/>
		<path id="Trazado_123430" class="st5" d="M23.9,86C23.9,86.1,23.8,86.1,23.9,86c-0.1,0.1-0.2,0.1-0.2,0.1c0,0,0.1-0.1,0.1-0.1
			C23.8,86,23.9,86,23.9,86z"/>
		<path id="Trazado_123431" class="st11" d="M4.6,65.2l1.6-3.1l5.8,3l-2.3,4.5l-0.4-0.2c-1.6-0.7-8.3-3.9-9.2-4.7
			C-0.8,63.8,4.6,65.2,4.6,65.2z"/>
		<g id="Grupo_55325" transform="translate(7.656 67.656)" class="st12">
			<path id="Trazado_123432" d="M0,0.9C0.3,0.4,0.8,0.1,1.4,0C1.9-0.1,2.5,0,3,0.3L2.1,1.9L0,0.9z"/>
		</g>
		<path id="Trazado_123433" class="st13" d="M1.9,64.6c0,0-2-0.4-1.9,0s6.7,3.8,9.7,5.1l0.1-0.1L2,65.6C2,65.6,2.2,64.8,1.9,64.6z"
			/>
		<path id="Trazado_123434" class="st5" d="M9.9,69.6c0,0-0.1,0-0.1,0l-0.3-0.1l-1.1-0.5c-0.9-0.4-2.2-1.1-3.5-1.7s-2.6-1.4-3.4-1.9
			l-1.1-0.6l-0.3-0.2c-0.1,0-0.1-0.1-0.1-0.1l0.1,0.1l0.3,0.1l1.1,0.6c0.9,0.5,2.1,1.1,3.5,1.8s2.6,1.3,3.5,1.8l1.1,0.5l0.3,0.1
			L9.9,69.6z"/>
		<path id="Trazado_123435" class="st5" d="M2,65.7c0-0.2,0.1-0.4,0.1-0.6c0-0.2-0.1-0.4-0.2-0.6c0.1,0.2,0.2,0.4,0.2,0.6
			C2.2,65.3,2.1,65.5,2,65.7L2,65.7z"/>
		<path id="Trazado_123436" class="st5" d="M4.2,65.7c0-0.1-0.1-0.2-0.1-0.3c0-0.1,0-0.2,0-0.3C4.2,65.3,4.2,65.5,4.2,65.7L4.2,65.7
			z"/>
		<path id="Trazado_123437" class="st5" d="M4.8,65.7c-0.1-0.1-0.1-0.2-0.1-0.2c0-0.1-0.1-0.2-0.1-0.3c0.1,0.1,0.1,0.2,0.1,0.2
			C4.7,65.6,4.8,65.7,4.8,65.7z"/>
		<path id="Trazado_123438" class="st5" d="M5.3,65.3c-0.1,0-0.2-0.1-0.3-0.1C4.8,65.1,4.7,65,4.7,65s0.2,0,0.3,0.1
			S5.3,65.3,5.3,65.3z"/>
		<path id="Trazado_123439" class="st5" d="M5.6,65c-0.1,0-0.3,0-0.4-0.1c-0.2-0.1-0.3-0.2-0.3-0.2c0.1,0,0.2,0.1,0.4,0.2
			C5.4,64.9,5.5,64.9,5.6,65z"/>
		<path id="Trazado_123440" class="st5" d="M4.2,65.1c-0.1,0-0.3-0.1-0.4-0.2c-0.1-0.1-0.2-0.2-0.4-0.3c-0.1-0.1-0.1-0.1-0.2-0.2
			c0,0,0-0.1,0-0.2c0-0.1,0.1-0.1,0.1-0.1c0.4,0,0.7,0.3,0.7,0.6C4.2,64.9,4.2,65,4.2,65.1c-0.1,0-0.1,0.1-0.1,0.1
			c0-0.1,0-0.3,0-0.4c0-0.1-0.1-0.3-0.2-0.4c-0.1-0.1-0.3-0.2-0.5-0.2c-0.1,0-0.1,0.1-0.1,0.2c0,0.1,0.1,0.1,0.2,0.2
			c0.1,0.1,0.2,0.2,0.3,0.3C4,65,4.1,65,4.2,65.1z"/>
		<path id="Trazado_123441" class="st5" d="M4.1,65.1c0-0.1,0-0.2,0.1-0.3c0.1-0.1,0.1-0.2,0.2-0.2c0.1-0.1,0.3-0.1,0.4,0
			c0.1,0.1,0.1,0.2,0,0.2c0,0.1-0.1,0.1-0.2,0.1C4.6,65,4.5,65,4.4,65.1C4.3,65.1,4.2,65.1,4.1,65.1c0.1,0,0.2,0,0.3-0.1
			c0.1,0,0.2-0.1,0.3-0.1c0.1-0.1,0.2-0.2,0.1-0.2c-0.1,0-0.2,0-0.3,0c-0.1,0-0.2,0.1-0.2,0.2C4.2,64.9,4.1,65,4.1,65.1L4.1,65.1z"
			/>
		<path id="Trazado_123442" class="st5" d="M10.6,67.9c-0.1-0.1-0.3-0.2-0.4-0.2c-0.7-0.3-1.6-0.1-2.1,0.4c-0.2,0.2-0.3,0.4-0.3,0.4
			c0,0,0-0.1,0.1-0.1c0.1-0.1,0.1-0.2,0.2-0.3C8.6,67.4,9.7,67.3,10.6,67.9C10.5,67.9,10.6,67.9,10.6,67.9z"/>
		<path id="Trazado_123443" class="st5" d="M11.2,65.2c-0.2,0.4-0.4,0.8-0.6,1.2c-0.2,0.4-0.4,0.8-0.6,1.2c0.2-0.4,0.3-0.8,0.6-1.2
			C10.8,66,11,65.6,11.2,65.2z"/>
		<path id="Trazado_123444" class="st5" d="M7.2,67.6c-0.3-0.1-0.6-0.2-0.9-0.4c-0.3-0.1-0.6-0.3-0.8-0.5c0,0,0.4,0.2,0.8,0.4
			C6.7,67.3,6.9,67.4,7.2,67.6z"/>
		<path id="Trazado_123445" class="st5" d="M8.4,68.2l-0.2,0.1c-0.1,0.1-0.1,0.1-0.2,0.1s0-0.1,0.1-0.2S8.3,68.2,8.4,68.2z"/>
		<path id="Trazado_123446" class="st5" d="M9.1,67.9C9,67.9,9,68,8.9,68c-0.1,0-0.2,0-0.2,0s0.1-0.1,0.2-0.1S9,67.9,9.1,67.9z"/>
		<path id="Trazado_123447" class="st5" d="M9.8,68c-0.1,0-0.1,0-0.2,0c-0.1,0-0.1,0-0.2,0c0.1-0.1,0.1-0.1,0.2-0.1
			C9.7,67.9,9.8,67.9,9.8,68z"/>
		<path id="Trazado_123448" class="st5" d="M10.3,68.1c0,0-0.1,0-0.1,0c-0.1,0-0.1,0-0.1,0s0.1,0,0.1,0S10.3,68,10.3,68.1z"/>
		<path id="Trazado_123449" class="st2" d="M29.2,40.8c0.2,1.4-0.8,2.6-2.2,2.8c-1.4,0.2-2.6-0.8-2.8-2.2C24,40,25,38.7,26.4,38.6
			C27.8,38.4,29,39.4,29.2,40.8C29.2,40.8,29.2,40.8,29.2,40.8z"/>
		<path id="Trazado_123450" class="st2" d="M19.3,53.4c0,0.5-0.3,0.9-0.8,0.9c-0.5,0-0.9-0.3-0.9-0.8c0-0.5,0.3-0.9,0.8-0.9
			c0.1,0,0.3,0,0.4,0.1C19.1,52.8,19.3,53.1,19.3,53.4z"/>
		<path id="Trazado_123451" class="st5" d="M52.3,49.7h0.1L42,38.4c0,0-23.6-4-25.4-1.5S4.5,64.5,4.5,64.5l7.2,3.5l3.9-7.7
			c0.3,8.9,1.3,24.3,1.3,24.3h8l0.4-23.6l21.1-3.4c3.2-0.5,6.1-3.2,7.6-6.1L52.3,49.7z M19.9,51.9l2.5-4.9l9.7,0.9
			C27.7,49.1,23.1,50.6,19.9,51.9L19.9,51.9z"/>
		<path id="Trazado_123452" class="st6" d="M43.9,44.1c-0.5,0.5-1.1,1-1.7,1.4c-0.6,0.5-1.2,0.9-1.8,1.2c0.5-0.5,1.1-1,1.7-1.4
			C42.7,44.8,43.3,44.4,43.9,44.1z"/>
		<path id="Trazado_123453" class="st6" d="M48.6,47.5c-0.1,0.3-0.2,0.5-0.3,0.8c-0.3,1.3,0.4,2.6,1.7,3c0,0,0.1,0,0.1,0
			c0.5,0.1,0.8,0.1,0.8,0.1c-0.3,0.1-0.6,0.1-0.8,0c-0.7-0.1-1.3-0.5-1.7-1.1c-0.4-0.6-0.4-1.3-0.2-2C48.2,47.9,48.4,47.7,48.6,47.5
			z"/>
		<path id="Trazado_123454" class="st6" d="M39.3,46.5l-0.1,0l-0.3,0.1l-1.1,0.3c-1,0.3-2.5,0.6-4.2,1.1c-3.5,1-8.4,2.4-13.8,4
			c-0.6,0.3-1.3,0.6-1.8,0.9c-0.6,0.3-1.1,0.8-1.5,1.2c-0.4,0.5-0.6,1.1-0.7,1.7c-0.1,0.6-0.1,1.2-0.1,1.8c0.2,2.4,0.3,4.6,0.4,6.5
			s0.2,3.3,0.2,4.4c0,0.5,0,0.9,0,1.2c0,0.1,0,0.2,0,0.3c0,0,0,0.1,0,0.1c0-0.1,0-0.3,0-0.4v-1.2c0-1.1-0.1-2.5-0.2-4.3
			s-0.3-4-0.5-6.4c-0.1-0.6,0-1.3,0.1-1.9c0.1-0.7,0.4-1.3,0.8-1.8c0.5-0.5,1-1,1.6-1.3c0.6-0.4,1.2-0.7,1.9-1
			c2.7-0.8,5.3-1.5,7.6-2.2l6.2-1.7c1.8-0.5,3.2-0.8,4.2-1l1.2-0.3l0.3-0.1C39.2,46.5,39.3,46.5,39.3,46.5z"/>
		<path id="Trazado_123455" class="st6" d="M23.1,60.1c0.7,0.2,1.3,0.4,2,0.7C24.4,60.8,23.7,60.6,23.1,60.1z"/>
		<path id="Trazado_123456" class="st6" d="M23.7,58.9c0.3,0.2,0.6,0.5,0.8,0.8c0.3,0.3,0.5,0.6,0.6,1c-0.3-0.2-0.6-0.5-0.8-0.8
			C24.1,59.6,23.9,59.3,23.7,58.9z"/>
		<path id="Trazado_123457" class="st6" d="M20.8,45.1c0.3,0.3,0.5,0.7,0.8,1c0.3,0.3,0.5,0.7,0.7,1.1c-0.4-0.2-0.7-0.5-0.9-0.9
			C21.1,45.9,20.9,45.5,20.8,45.1L20.8,45.1z"/>
		<path id="Trazado_123458" class="st6" d="M22.1,44.6c0.2,0.4,0.3,0.8,0.3,1.3c0.1,0.4,0.1,0.9,0.1,1.3c-0.2-0.4-0.3-0.8-0.3-1.3
			C22.1,45.4,22.1,45,22.1,44.6z"/>
		<path id="Trazado_123459" class="st6" d="M44,45.3c-0.1-0.1,0-0.3,0.1-0.4c0.1-0.1,0.3-0.2,0.4-0.1c0.2,0.1,0.3,0.3,0.2,0.5
			c-0.1,0.2-0.2,0.3-0.4,0.3c-0.2,0-0.3-0.1-0.4-0.2c-0.1-0.2,0-0.4,0-0.4S44,45.2,44,45.3c0.2,0.2,0.3,0.2,0.4,0.2
			c0.1-0.1,0.1-0.2,0.1-0.3c0,0-0.1-0.1-0.1-0.1c-0.1,0-0.2,0-0.2,0C44.1,45.1,44.1,45.3,44,45.3z"/>
		<path id="Trazado_123460" class="st6" d="M38.3,39.1c0,0-0.1,0.3,0,0.7c0.1,1.1,1,2,2.2,1.9c0.1,0,0.2,0,0.3,0
			c0.2-0.1,0.5-0.1,0.7-0.2c-0.2,0.2-0.4,0.3-0.7,0.3c-1.1,0.3-2.3-0.4-2.5-1.6c0-0.2-0.1-0.3-0.1-0.5
			C38.1,39.6,38.1,39.3,38.3,39.1L38.3,39.1z"/>
		<path id="Trazado_123461" class="st9" d="M41.6,37.9c0-0.8,0.2-1.5,0.5-2.3c0.3-0.7,0.9-1.3,1.6-1.6c1.5-0.5,2.9,0.7,3.8,1.9
			c1.2,2,2.1,4.2,2.7,6.5c0.8,2.2,1.8,4.5,3.7,5.8"/>
		<path id="Trazado_123464" class="st7" d="M68.5,45.3c-1.5,0-4.3,0-5.2-0.2c-1.8-0.2-1.8-0.4-1.7-0.6c0.2-0.6,3.2,0.3,2.7-0.3
			s-3.9-0.6-3.7-1.2c0.3-0.8,3.5,0.2,3.7,0.3s0.4-0.3,0.1-0.4c-0.4-0.1-4.2-0.8-3.9-1.5c0.1-0.4,0.9-0.1,0.9-0.1s3.5,0.9,3.6,0.6
			s-1.9-1-2.6-1.1s-0.9-0.5-0.6-0.8c1,0,2.1,0.2,3.1,0.5c0.7,0.2,2.6,0.7,1.9-0.3c-0.6-0.7-0.8-1.5-0.7-2.4c0.1-0.2,0.4-0.2,0.5-0.1
			c0.1,0.1,0.2,0.2,0.2,0.3c0.1,0.4,0.3,0.8,0.5,1.1c0.2,0.3,0.4,0.5,0.6,0.8c0.3,0.3,1,0.8,1.2,0.9L68.5,45.3z"/>
	</g>
	<g id="freepik--Bitcoin--inject-197" transform="translate(40.545 1.216)">
		<path id="Trazado_123465" class="st14" d="M319.9,20.7c0,0-14.5-5.8-46.6,26.4c0,0-33.4,28.7-15.6,40.8
			c15.2,10.3,35.3-4.4,45.9-14.1c6.1-5.7,11.4-12,16-18.9C327,43.5,331.4,28.6,319.9,20.7z"/>
		<path id="Trazado_123466" class="st13" d="M319.9,20.7c0,0-14.5-5.8-46.6,26.4c0,0-33.4,28.7-15.6,40.8
			c15.2,10.3,35.3-4.4,45.9-14.1c6.1-5.7,11.4-12,16-18.9C327,43.5,331.4,28.6,319.9,20.7z"/>
		<path id="Trazado_123467" class="st14" d="M318.8,20.3c0,0-17.9-9.9-50.1,22.2c0,0-31,33.1-12.1,43.5c13,7.1,31.9-7.1,42.4-16.7
			c5.6-5,13.1-13,17.1-19.3C323.6,38.6,327.6,25.8,318.8,20.3z"/>
		
			<ellipse id="Elipse_4195" transform="matrix(0.7071 -0.7071 0.7071 0.7071 46.5707 218.6896)" class="st15" cx="287.3" cy="53.1" rx="35.9" ry="14"/>
		<path id="Trazado_123468" class="st14" d="M305.8,37.3l-4.5,4.5l-1.2-1.2l4.4-4.4l-2.3-2.3l-4.7,4.7l-1.8-1.8l-23.8,23.8l1.2,1.2
			l-4.8,4.5l2.6,2.6l4.7-4.7l0.7,0.7l-4.6,4.6l2.5,2.5l5.4-5.4c0,0,2,2.1,8.8-3.8c5.2-4.4,4.1-8.7,4.1-8.7s2.6,0.3,6.4-2.7
			c2.4-2,4-4.6,4.6-7.6l4.4-4.4L305.8,37.3z M286.1,60.1c-3.8,3.3-7-1.1-7-1.1l5.9-5.9C285,53.1,290,56.8,286.1,60.1z M295.5,50.1
			c-3.7,3-5.8-1.3-5.8-1.3l5.1-5.1C294.8,43.7,299.7,46.6,295.5,50.1L295.5,50.1z"/>
		<path id="Trazado_123469" class="st13" d="M305.8,37.3l-4.5,4.5l-1.2-1.2l4.4-4.4l-2.3-2.3l-4.7,4.7l-1.8-1.8l-23.8,23.8l1.2,1.2
			l-4.8,4.5l2.6,2.6l4.7-4.7l0.7,0.7l-4.6,4.6l2.5,2.5l5.4-5.4c0,0,2,2.1,8.8-3.8c5.2-4.4,4.1-8.7,4.1-8.7s2.6,0.3,6.4-2.7
			c2.4-2,4-4.6,4.6-7.6l4.4-4.4L305.8,37.3z M286.1,60.1c-3.8,3.3-7-1.1-7-1.1l5.9-5.9C285,53.1,290,56.8,286.1,60.1z M295.5,50.1
			c-3.7,3-5.8-1.3-5.8-1.3l5.1-5.1C294.8,43.7,299.7,46.6,295.5,50.1L295.5,50.1z"/>
		<path id="Trazado_123470" class="st14" d="M303.3,36l-4.5,4.5l-1.2-1.2L302,35l-2.3-2.3l-4.7,4.7l-1.8-1.8l-23.8,23.8l1.2,1.2
			l-4.9,4.5l2.6,2.6l4.7-4.7l0.7,0.7l-4.6,4.6l2.5,2.5l5.4-5.4c0,0,2,2.1,8.8-3.8c5.2-4.4,4.1-8.7,4.1-8.7s2.6,0.3,6.4-2.7
			c2.4-2,4-4.6,4.6-7.6l4.4-4.4L303.3,36z M283.7,58.8c-3.8,3.3-7-1.1-7-1.1l5.9-5.9C282.6,51.9,287.5,55.6,283.7,58.8z M293,48.8
			c-3.7,3-5.8-1.3-5.8-1.3l5.1-5.1C292.4,42.5,297.3,45.3,293,48.8L293,48.8z"/>
		<path id="Trazado_123471" class="st4" d="M316.8,19.5c0,0.1-1.4-0.2-3.9-0.3c-3.6-0.1-7.1,0.3-10.6,1.1c-2.4,0.6-4.7,1.4-7,2.4
			c-2.6,1.1-5.1,2.5-7.5,4c-5.4,3.6-10.5,7.6-15.2,12.1c-10.2,9.3-17.2,20.1-20.2,28.6c-1.3,3.3-1.8,6.9-1.4,10.4l0.1,0.9l0.2,0.8
			c0.1,0.2,0.1,0.5,0.2,0.7s0.1,0.4,0.2,0.5c0.1,0.3,0.2,0.6,0.3,1c-0.2-0.3-0.3-0.6-0.5-0.9c-0.1-0.2-0.2-0.3-0.2-0.5
			s-0.1-0.4-0.2-0.6s-0.2-0.5-0.2-0.8s-0.1-0.6-0.2-0.9c-0.5-3.6-0.1-7.3,1.2-10.7c2.9-8.7,9.9-19.6,20.2-29
			c4.7-4.5,9.9-8.6,15.3-12.2c2.4-1.5,5-2.9,7.6-4c2.3-1,4.7-1.8,7.1-2.3c3.5-0.9,7.1-1.2,10.7-0.9c0.6,0,1.2,0.1,1.7,0.2
			c0.4,0,0.8,0.1,1.2,0.2C316.1,19.3,316.5,19.4,316.8,19.5L316.8,19.5z"/>
		<path id="Trazado_123472" class="st13" d="M261.1,77.6c0,0-9.5-11.6,14.4-36.1s37.1-13.8,37.1-13.8s-10.9-8.9-36,16.1
			C254.8,65.6,261.1,77.6,261.1,77.6z"/>
		<path id="Trazado_123473" class="st4" d="M300.3,32.7c-0.4,0.5-0.8,1-1.3,1.4c-0.9,0.8-2.1,2.1-3.7,3.5l-0.2,0.2l-0.2-0.2
			l-1.4-1.7h0.5c-2.4,2.5-5.4,5.5-8.6,8.7c-4.2,4.2-8.1,7.9-10.9,10.6c-1.4,1.3-2.6,2.4-3.4,3.2c-0.4,0.4-0.8,0.8-1.3,1.1
			c0.3-0.5,0.7-0.9,1.1-1.3c0.7-0.8,1.8-1.9,3.2-3.3c2.7-2.8,6.5-6.6,10.7-10.8c3.2-3.2,6.2-6.2,8.7-8.6l0.3-0.3l0.2,0.3l1.3,1.8
			l-0.4,0c1.6-1.4,3-2.6,3.9-3.3C299.2,33.5,299.7,33.1,300.3,32.7z"/>
		<path id="Trazado_123474" class="st4" d="M293.7,48.6c0.1,0.1,0,0.3-0.3,0.6c-0.8,0.8-2,1.1-3.1,0.9c-0.4-0.1-0.6-0.3-0.6-0.4
			c0.1-0.2,1-0.2,2.1-0.5S293.5,48.4,293.7,48.6z"/>
		<path id="Trazado_123475" class="st4" d="M259.5,59.7c0.1,0.1,0,0.3-0.3,0.5c-0.7,0.5-1.6,0.7-2.5,0.3c-0.3-0.1-0.5-0.3-0.4-0.4
			c0.1-0.2,0.8-0.1,1.6-0.3S259.3,59.5,259.5,59.7z"/>
		<path id="Trazado_123476" class="st4" d="M303.1,57.6c0.2,0.1-1.6,2.6-4.4,5c-2.8,2.5-5.4,4-5.5,3.8s2.2-2,4.9-4.4
			C300.8,59.6,302.9,57.4,303.1,57.6z"/>
		<path id="Trazado_123477" class="st5" d="M245.6,91c0,0-0.1-0.1-0.1-0.1l-0.3-0.4c-0.3-0.3-0.7-0.8-1.1-1.4
			c-0.5-0.6-1-1.3-1.4-2.1c0.6,0.6,1.2,1.2,1.6,1.9C244.8,89.6,245.3,90.3,245.6,91z"/>
		<path id="Trazado_123478" class="st5" d="M233.9,91c0,0-0.1-0.1-0.1-0.1l-0.3-0.3c-0.2-0.3-0.5-0.7-0.9-1.1
			c-0.4-0.5-0.8-1.1-1.1-1.7c0.5,0.4,1,0.9,1.3,1.5C233.5,90.2,234,91,233.9,91z"/>
		<path id="Trazado_123479" class="st5" d="M255.2,89.4c-1.2-1.3-2.3-2.8-3.2-4.4c0.6,0.6,1.2,1.4,1.7,2.1
			C254.3,87.8,254.8,88.6,255.2,89.4L255.2,89.4z"/>
		<path id="Trazado_123480" class="st5" d="M264.1,86.8c-0.7-0.7-1.3-1.4-1.8-2.3c-0.6-0.8-1.2-1.6-1.6-2.4c0.7,0.7,1.3,1.4,1.8,2.3
			C263.1,85.1,263.7,85.9,264.1,86.8z"/>
		<path id="Trazado_123481" class="st5" d="M291.7,82.9c-0.7-0.7-1.3-1.4-1.9-2.3c-0.6-0.8-1.2-1.6-1.6-2.4
			C289.5,79.7,290.7,81.3,291.7,82.9z"/>
		<path id="Trazado_123482" class="st5" d="M297.1,78.8c-0.7-0.7-1.3-1.4-1.9-2.3c-0.6-0.8-1.2-1.6-1.6-2.4
			C295,75.6,296.1,77.2,297.1,78.8z"/>
		<path id="Trazado_123483" class="st5" d="M302.6,74.8c-0.7-0.7-1.3-1.4-1.9-2.3c-0.6-0.8-1.2-1.6-1.6-2.4c0.7,0.7,1.3,1.4,1.8,2.3
			C301.6,73.1,302.1,73.9,302.6,74.8z"/>
		<path id="Trazado_123484" class="st5" d="M307.4,69.7c-1.3-1.4-2.5-3-3.5-4.7c0.7,0.7,1.3,1.4,1.8,2.3
			C306.4,68.1,306.9,68.9,307.4,69.7z"/>
		<path id="Trazado_123485" class="st5" d="M312,64.6c-0.7-0.7-1.3-1.4-1.8-2.3c-0.6-0.8-1.2-1.6-1.6-2.4c0.7,0.7,1.3,1.5,1.8,2.3
			C311,62.9,311.6,63.7,312,64.6L312,64.6z"/>
		<path id="Trazado_123486" class="st5" d="M316.6,59.3c-0.7-0.7-1.3-1.4-1.8-2.3c-0.6-0.8-1.2-1.6-1.6-2.4c0.7,0.7,1.3,1.4,1.8,2.3
			C315.6,57.6,316.1,58.4,316.6,59.3z"/>
		<path id="Trazado_123487" class="st5" d="M320.6,53.6c-0.7-0.7-1.3-1.4-1.9-2.3c-0.6-0.8-1.1-1.6-1.6-2.4c0.7,0.7,1.3,1.4,1.8,2.3
			C319.6,52,320.1,52.8,320.6,53.6z"/>
		<path id="Trazado_123488" class="st5" d="M324.1,47.1c-0.7-0.7-1.3-1.5-1.9-2.3c-0.6-0.8-1.2-1.6-1.6-2.4c0.7,0.7,1.3,1.4,1.8,2.3
			C323,45.5,323.6,46.3,324.1,47.1L324.1,47.1z"/>
		<path id="Trazado_123489" class="st5" d="M326,40.1c-0.6-0.6-1.2-1.3-1.7-2c-0.6-0.7-1-1.4-1.4-2.2c0.6,0.6,1.2,1.3,1.7,2
			C325.1,38.6,325.6,39.4,326,40.1z"/>
		<path id="Trazado_123490" class="st5" d="M326.9,33.2c-0.6-0.6-1.2-1.3-1.7-2c-0.6-0.7-1-1.4-1.4-2.2c0.6,0.6,1.2,1.3,1.7,2
			C326,31.7,326.5,32.4,326.9,33.2z"/>
		<circle id="Elipse_4196" class="st14" cx="49.8" cy="39.2" r="27.7"/>
		<circle id="Elipse_4197" class="st15" cx="49.8" cy="39.2" r="27.7"/>
		<path id="Trazado_123491" class="st5" d="M84.5,12.1c0.4,0.4,0.7,0.9,0.9,1.4c0.3,0.5,0.5,1,0.7,1.5c-0.4-0.4-0.7-0.9-0.9-1.4
			C84.9,13.2,84.6,12.7,84.5,12.1z"/>
		<path id="Trazado_123494" class="st5" d="M77.2,11.5c0.4,0.4,0.7,0.9,0.9,1.4c0.3,0.5,0.5,1,0.7,1.5c-0.4-0.4-0.7-0.9-0.9-1.4
			C77.6,12.6,77.3,12,77.2,11.5z"/>
		<path id="Trazado_123495" class="st5" d="M70.4,11.7c0.4,0.4,0.7,0.9,0.9,1.4c0.3,0.5,0.5,1,0.7,1.5c-0.4-0.4-0.7-0.9-0.9-1.4
			C70.8,12.7,70.6,12.2,70.4,11.7L70.4,11.7z"/>
		<path id="Trazado_123496" class="st5" d="M63.8,12.7c0.4,0.4,0.7,0.9,0.9,1.4c0.3,0.5,0.5,1,0.7,1.5c-0.4-0.4-0.7-0.9-0.9-1.4
			C64.1,13.7,63.9,13.2,63.8,12.7z"/>
		<path id="Trazado_123497" class="st5" d="M38.1,14c0.4,0.4,0.7,0.9,0.9,1.4c0.3,0.5,0.5,1,0.7,1.5c-0.4-0.4-0.7-0.9-0.9-1.4
			C38.4,15.1,38.2,14.6,38.1,14L38.1,14z"/>
		<path id="Trazado_123498" class="st5" d="M34.2,16.2c0.4,0.4,0.7,0.9,0.9,1.4c0.3,0.5,0.5,1,0.7,1.5c-0.4-0.4-0.7-0.9-0.9-1.4
			C34.6,17.3,34.3,16.8,34.2,16.2z"/>
		<path id="Trazado_123499" class="st5" d="M30.8,18.9c0.4,0.4,0.7,0.9,0.9,1.4c0.3,0.5,0.5,1,0.7,1.5c-0.4-0.4-0.7-0.9-0.9-1.4
			C31.2,20,31,19.5,30.8,18.9L30.8,18.9z"/>
		<path id="Trazado_123500" class="st5" d="M28.2,21.8c0.4,0.4,0.7,0.9,0.9,1.4c0.3,0.5,0.5,1,0.7,1.5c-0.4-0.4-0.7-0.9-0.9-1.4
			C28.5,22.9,28.3,22.3,28.2,21.8L28.2,21.8z"/>
		<path id="Trazado_123501" class="st5" d="M25.9,25.4c0.4,0.4,0.7,0.9,1,1.4c0.3,0.5,0.6,1,0.7,1.6c-0.4-0.4-0.7-0.9-1-1.4
			C26.3,26.5,26,26,25.9,25.4L25.9,25.4z"/>
		<path id="Trazado_123502" class="st5" d="M24,29.4c0.4,0.4,0.7,0.9,1,1.4c0.3,0.5,0.6,1,0.7,1.6c-0.4-0.4-0.7-0.9-1-1.4
			C24.4,30.5,24.1,29.9,24,29.4z"/>
		<path id="Trazado_123503" class="st5" d="M22.7,33.6c0.4,0.4,0.7,0.9,1,1.4c0.4,0.5,0.7,1,0.8,1.5c-0.4-0.4-0.8-0.9-1.1-1.4
			C23.1,34.7,22.8,34.1,22.7,33.6z"/>
		<path id="Trazado_123504" class="st5" d="M22.1,38.3c0.4,0.5,0.8,1,1.1,1.6c0.4,0.5,0.6,1.1,0.8,1.8c-0.4-0.5-0.8-1-1.1-1.6
			C22.6,39.5,22.3,38.9,22.1,38.3z"/>
		<path id="Trazado_123505" class="st5" d="M22.6,44.6c0.5,0.5,0.8,1.1,1.1,1.7c0.4,0.6,0.7,1.2,0.9,1.9c-0.5-0.5-0.8-1.1-1.1-1.7
			C23.2,45.8,22.9,45.2,22.6,44.6z"/>
		<circle id="Elipse_4198" class="st14" cx="51.7" cy="42.1" r="27.7"/>
		
			<ellipse id="Elipse_4199" transform="matrix(0.9964 -8.524302e-02 8.524302e-02 0.9964 -3.3742 4.5483)" class="st15" cx="51.6" cy="41.8" rx="21.1" ry="20.6"/>
		<path id="Trazado_123506" class="st4" d="M53.3,62.2c-11.4,1-21.5-7.3-22.8-18.6c0,0.2,0,0.4,0,0.6c1,11.6,11.1,20.3,22.8,19.3
			c11.6-1,20.3-11.1,19.3-22.8c0,0,0-0.1,0-0.1c0-0.2,0-0.4-0.1-0.6C73.2,51.4,64.7,61.2,53.3,62.2L53.3,62.2z"/>
		<path id="Trazado_123507" class="st16" d="M49.8,21.3c11.4-1,21.5,7.3,22.8,18.6c0-0.2,0-0.4,0-0.6c-1-11.6-11.3-20.2-22.9-19.2
			c-11.6,1-20.1,11.2-19.2,22.8c0,0.2,0,0.4,0.1,0.6C29.9,32.2,38.4,22.3,49.8,21.3L49.8,21.3z"/>
		<g>
			<path id="Trazado_123508" class="st14" d="M62.6,45.4c-0.3-3-1.8-4.7-4-5.4c1.6-1.2,2.3-3.2,2.1-5.2c-0.1-2.8-2.3-5.1-5.2-5.3
				L55.3,26l-3.3,0.3l0.3,3.3l-1.9,0.2l-0.3-3.3l-3.3,0.3l0.3,3.3l-3,0.3l-2.1,0.2l0.3,3.3l2.1-0.2l1.4,16.1l-2.3,0.2l0.3,3.3L46,53
				l0,0l3-0.3l0.3,3.9l3.3-0.3l-0.3-3.9l1.9-0.2l0.3,3.9l3.3-0.3l-0.3-4C61.2,51.1,62.9,48.8,62.6,45.4z M48.5,33.3l4.5-0.4
				c2.5-0.2,4,0.7,4.2,2.8s-1.1,3.2-3.6,3.4l-5.1,0.4l-0.5-6.3L48.5,33.3z M55.1,48.9l-5.4,0.5l-0.4,0l-0.6-6.6l5.8-0.5
				c2.7-0.2,4.3,0.6,4.5,2.9S57.8,48.7,55.1,48.9L55.1,48.9z"/>
			<path id="Trazado_123509" class="st16" d="M62.6,45.4c-0.3-3-1.8-4.7-4-5.4c1.6-1.2,2.3-3.2,2.1-5.2c-0.1-2.8-2.3-5.1-5.2-5.3
				L55.3,26l-3.3,0.3l0.3,3.3l-1.9,0.2l-0.3-3.3l-3.3,0.3l0.3,3.3l-3,0.3l-2.1,0.2l0.3,3.3l2.1-0.2l1.4,16.1l-2.3,0.2l0.3,3.3L46,53
				l0,0l3-0.3l0.3,3.9l3.3-0.3l-0.3-3.9l1.9-0.2l0.3,3.9l3.3-0.3l-0.3-4C61.2,51.1,62.9,48.8,62.6,45.4z M48.5,33.3l4.5-0.4
				c2.5-0.2,4,0.7,4.2,2.8s-1.1,3.2-3.6,3.4l-5.1,0.4l-0.5-6.3L48.5,33.3z M55.1,48.9l-5.4,0.5l-0.4,0l-0.6-6.6l5.8-0.5
				c2.7-0.2,4.3,0.6,4.5,2.9S57.8,48.7,55.1,48.9L55.1,48.9z"/>
			<path id="Trazado_123510" class="st14" d="M62.9,47c-0.3-3-1.8-4.7-4-5.4c1.6-1.3,2.3-3.2,2.1-5.2c-0.1-2.8-2.3-5.1-5.2-5.3
				l-0.3-3.6l-3.3,0.3l0.3,3.3l-1.9,0.2L50.3,28L47,28.3l0.3,3.4l-3,0.3l-2.1,0.2l0.3,3.3l2.1-0.2l1.4,16.1l-2.3,0.2l0.3,3.3
				l2.3-0.2l0,0l3-0.3l0.3,3.9l3.3-0.3l-0.3-3.9l1.9-0.2l0.3,3.9l3.3-0.3l-0.3-4C61.4,52.6,63.2,50.3,62.9,47z M48.7,34.8l4.5-0.4
				c2.5-0.2,4,0.7,4.2,2.8c0.2,2.1-1.1,3.2-3.6,3.4l-5.1,0.4l-0.5-6.3L48.7,34.8z M55.3,50.5L49.9,51l-0.4,0l-0.6-6.6l5.8-0.5
				c2.7-0.2,4.3,0.6,4.5,2.9S58,50.3,55.3,50.5L55.3,50.5z"/>
			<path id="Trazado_123511" class="st4" d="M44.8,51.1c-0.2,0-0.7-3.5-1.1-7.9s-0.5-7.9-0.3-7.9s0.7,3.5,1.1,7.9S45,51.1,44.8,51.1
				z"/>
			<path id="Trazado_123512" class="st4" d="M57.5,40.6c0,0.2-1.4,0.5-3.2,0.7s-3.2,0.1-3.2-0.1s1.4-0.5,3.2-0.7
				S57.5,40.4,57.5,40.6z"/>
			<path id="Trazado_123513" class="st4" d="M59,50.4c0,0.2-1.4,0.5-3.2,0.7s-3.2,0.1-3.2-0.1s1.4-0.5,3.2-0.7S59,50.2,59,50.4z"/>
		</g>
		<circle id="Elipse_4200" class="st14" cx="179.4" cy="175.5" r="45.9"/>
		<circle id="Elipse_4201" class="st13" cx="179.4" cy="175.5" r="45.9"/>
		<circle id="Elipse_4202" class="st14" cx="173.1" cy="170.6" r="45.9"/>
		
			<ellipse id="Elipse_4203" transform="matrix(0.9953 -9.671437e-02 9.671437e-02 0.9953 -15.6604 17.2947)" class="st15" cx="170.6" cy="170.2" rx="35" ry="34.1"/>
		<path id="Trazado_123514" class="st4" d="M173.8,204c-18.8,1.8-35.7-11.7-38-30.4c0,0.3,0,0.7,0.1,1c1.8,19.2,18.8,33.4,38,31.6
			s33.4-18.8,31.6-38c0-0.1,0-0.3,0-0.4c0-0.3-0.1-0.7-0.1-1C206.6,185.7,192.7,202.2,173.8,204z"/>
		<path id="Trazado_123515" class="st16" d="M167,136.4c18.8-1.8,35.7,11.7,38.1,30.4c0-0.3,0-0.7-0.1-1
			c-2-19.2-19.1-33.2-38.4-31.2c-19.1,2-33,18.9-31.2,38c0,0.3,0.1,0.7,0.1,1C134.3,154.7,148.2,138.2,167,136.4z"/>
		<path id="Trazado_123516" class="st14" d="M190.1,178.3c-0.5-4.9-3.1-7.8-6.7-8.8c2.3-1.8,3.7-4.8,3.3-8.7c-0.5-4.8-3.5-8-8.6-8.6
			l-0.6-5.9l-5.5,0.5l0.5,5.5l-3.1,0.3l-0.5-5.5l-5.5,0.5l0.5,5.5l-5,0.5l-3.5,0.3l0.5,5.5l3.5-0.3l2.6,26.6l-3.8,0.4l0.5,5.5
			l3.8-0.4l0,0l5-0.5l0.6,6.4l5.5-0.5l-0.6-6.4l3.1-0.3l0.7,6.4l5.5-0.5l-0.6-6.6C187.8,187.8,190.6,183.9,190.1,178.3z
			 M166.5,158.5l7.4-0.7c4.1-0.4,6.6,1.1,6.9,4.6s-1.8,5.4-5.9,5.8l-8.4,0.8l-1-10.4L166.5,158.5z M177.7,184.3l-9,0.9l-0.6,0.1
			l-1.1-10.8l9.6-0.9c4.5-0.4,7.1,1,7.4,4.7S182.1,183.9,177.7,184.3L177.7,184.3z"/>
		<path id="Trazado_123517" class="st16" d="M190.1,178.3c-0.5-4.9-3.1-7.8-6.7-8.8c2.3-1.8,3.7-4.8,3.3-8.7c-0.5-4.8-3.5-8-8.6-8.6
			l-0.6-5.9l-5.5,0.5l0.5,5.5l-3.1,0.3l-0.5-5.5l-5.5,0.5l0.5,5.5l-5,0.5l-3.5,0.3l0.5,5.5l3.5-0.3l2.6,26.6l-3.8,0.4l0.5,5.5
			l3.8-0.4l0,0l5-0.5l0.6,6.4l5.5-0.5l-0.6-6.4l3.1-0.3l0.7,6.4l5.5-0.5l-0.6-6.6C187.8,187.8,190.6,183.9,190.1,178.3z
			 M166.5,158.5l7.4-0.7c4.1-0.4,6.6,1.1,6.9,4.6s-1.8,5.4-5.9,5.8l-8.4,0.8l-1-10.4L166.5,158.5z M177.7,184.3l-9,0.9l-0.6,0.1
			l-1.1-10.8l9.6-0.9c4.5-0.4,7.1,1,7.4,4.7S182.1,183.9,177.7,184.3L177.7,184.3z"/>
		<path id="Trazado_123518" class="st14" d="M185.8,178.6c-0.5-4.9-3.1-7.8-6.7-8.8c2.3-1.8,3.7-4.8,3.3-8.7c-0.5-4.8-3.5-8-8.7-8.6
			l-0.6-5.9l-5.5,0.5l0.5,5.5l-3.1,0.3l-0.5-5.5l-5.5,0.5l0.5,5.5l-5,0.5l-3.5,0.3l0.5,5.5l3.5-0.3l2.6,26.6l-3.8,0.4l0.5,5.5
			l3.8-0.4l0,0l5-0.5l0.6,6.4l5.5-0.5l-0.6-6.4l3.1-0.3l0.6,6.4l5.5-0.5l-0.6-6.6C183.5,188,186.3,184.2,185.8,178.6z M162.2,158.8
			l7.4-0.7c4.1-0.4,6.6,1.1,7,4.6s-1.8,5.4-5.9,5.8l-8.4,0.8l-1-10.4L162.2,158.8z M173.4,184.6l-9,0.9l-0.6,0.1l-1.1-10.8l9.6-0.9
			c4.5-0.4,7.1,1,7.4,4.7S177.9,184.1,173.4,184.6L173.4,184.6z"/>
		<path id="Trazado_123519" class="st4" d="M210.8,150.9c-0.1-0.1-0.1-0.2-0.2-0.3l-0.5-1c-0.2-0.4-0.5-0.9-0.9-1.5
			s-0.8-1.3-1.3-2.1c-2.8-4.3-6.3-8.1-10.4-11.2c-2.8-2.2-5.8-4-9-5.5c-3.7-1.7-7.6-2.9-11.6-3.5c-2.2-0.4-4.3-0.6-6.5-0.6
			c-2.3-0.1-4.6,0.1-6.9,0.4c-7.2,0.9-14.1,3.6-20.1,7.7c-1.9,1.3-3.8,2.8-5.5,4.5c-3.2,3.1-6,6.6-8.2,10.5c-2,3.5-3.5,7.3-4.5,11.2
			c-0.9,3.4-1.3,6.9-1.4,10.5c-0.1,2.9,0.1,5.8,0.6,8.7c0.4,2.2,0.9,4.3,1.6,6.4c0.3,0.9,0.5,1.6,0.8,2.3s0.5,1.2,0.6,1.6l0.4,1
			c0.1,0.1,0.1,0.2,0.1,0.4c-0.1-0.1-0.1-0.2-0.2-0.3l-0.5-1c-0.2-0.4-0.5-1-0.7-1.6s-0.6-1.4-0.9-2.3c-0.7-2.1-1.3-4.3-1.7-6.4
			c-0.5-2.9-0.8-5.8-0.8-8.8c0.1-12.4,5.3-24.2,14.2-32.8c7.1-6.8,16.2-11.2,26-12.4c2.3-0.3,4.6-0.4,6.9-0.4c2.2,0,4.4,0.3,6.6,0.6
			c7.6,1.3,14.8,4.5,20.9,9.3c2.3,1.8,4.4,3.9,6.4,6.1c1.4,1.7,2.7,3.5,3.9,5.4c0.5,0.8,0.9,1.5,1.2,2.1s0.6,1.1,0.8,1.6l0.5,1
			C210.8,150.8,210.8,150.9,210.8,150.9z"/>
		<path id="Trazado_123520" class="st4" d="M158.5,147.4c0,0.1-2.1,0.5-5.4,0.9l0.3-0.4c0.2,1.6,0.4,3.5,0.6,5.5l0,0.4l-0.4,0
			l-1.5,0.1c-2.6,0.3-5,0.5-7,0.6l0.3-0.4c0.2,3.3,0.3,5.5,0.2,5.5s-0.5-2.1-0.9-5.4l0-0.3l0.3,0c2-0.2,4.4-0.5,7-0.8l1.5-0.1
			l-0.4,0.4c-0.2-2-0.3-3.9-0.5-5.5v-0.3l0.3,0C156.4,147.4,158.5,147.3,158.5,147.4z"/>
		<path id="Trazado_123521" class="st4" d="M175.5,146.6c0,0.2-1.4,0.6-3.3,0.7s-3.3,0.1-3.3-0.1s1.4-0.6,3.3-0.7
			S175.4,146.4,175.5,146.6z"/>
		<path id="Trazado_123522" class="st4" d="M150.9,185.7c-0.2,0-1-5.8-1.7-13s-1.1-13.1-0.9-13.1s1,5.8,1.7,13
			S151.1,185.7,150.9,185.7z"/>
		<path id="Trazado_123523" class="st4" d="M172.9,168.2c0,0.2-2.3,0.6-5.2,0.9s-5.3,0.3-5.3,0.1s2.3-0.6,5.2-0.9
			S172.9,168,172.9,168.2z"/>
		<path id="Trazado_123524" class="st4" d="M175.7,184.4c0,0.2-2.3,0.6-5.2,0.9s-5.3,0.3-5.3,0.1s2.3-0.6,5.2-0.9
			C173.3,184.2,175.6,184.2,175.7,184.4z"/>
		<path id="Trazado_123525" class="st5" d="M159.2,220.4c-1.1-1.5-2-3.1-2.7-4.8C157.6,217.1,158.5,218.7,159.2,220.4z"/>
		<path id="Trazado_123526" class="st5" d="M147.8,218c-0.6-0.7-1-1.4-1.4-2.2c-0.5-0.7-0.9-1.5-1.2-2.4
			C146.2,214.8,147.1,216.4,147.8,218L147.8,218z"/>
		<path id="Trazado_123527" class="st5" d="M137.3,214.7c-0.6-0.7-1-1.4-1.4-2.2c-0.5-0.7-0.9-1.5-1.2-2.4c0.6,0.7,1,1.4,1.4,2.2
			C136.6,213.1,137,213.8,137.3,214.7z"/>
		<path id="Trazado_123528" class="st5" d="M171.3,221.4c-0.6-0.7-1.1-1.5-1.5-2.3c-0.5-0.8-0.9-1.6-1.2-2.5
			c0.6,0.7,1.1,1.5,1.5,2.3C170.5,219.7,171,220.5,171.3,221.4L171.3,221.4z"/>
		<path id="Trazado_123529" class="st5" d="M182.6,221c-1.1-1.5-2-3.1-2.7-4.8C180.9,217.7,181.8,219.3,182.6,221z"/>
		<path id="Trazado_123530" class="st5" d="M193.6,219.4c-0.6-0.7-1.1-1.5-1.5-2.3c-0.5-0.8-0.9-1.6-1.2-2.5
			c0.6,0.7,1.1,1.5,1.5,2.3C192.8,217.7,193.3,218.5,193.6,219.4z"/>
		<path id="Trazado_123531" class="st5" d="M203.7,216.9c-0.6-0.7-1.1-1.5-1.5-2.3c-0.5-0.8-0.9-1.6-1.2-2.5
			c0.6,0.7,1.1,1.5,1.5,2.3C202.9,215.3,203.3,216.1,203.7,216.9z"/>
		<path id="Trazado_123532" class="st5" d="M213.3,213.2c-0.6-0.7-1.1-1.5-1.5-2.3c-0.5-0.8-0.9-1.6-1.2-2.5
			c0.6,0.7,1.1,1.5,1.5,2.3C212.6,211.5,213,212.4,213.3,213.2z"/>
		<path id="Trazado_123533" class="st5" d="M221.7,208.6c-0.6-0.7-1.1-1.5-1.5-2.3c-0.5-0.8-0.9-1.6-1.2-2.5
			c0.6,0.7,1.1,1.5,1.5,2.3C220.9,207,221.3,207.8,221.7,208.6z"/>
		<path id="Trazado_123534" class="st5" d="M228.3,203.9c-0.6-0.7-1.1-1.5-1.5-2.3c-0.5-0.8-0.9-1.6-1.2-2.5
			c0.6,0.7,1.1,1.5,1.5,2.3C227.6,202.2,228,203,228.3,203.9z"/>
		<path id="Trazado_123535" class="st5" d="M234.4,198.3c-1.1-1.5-2-3.1-2.7-4.8c0.6,0.7,1.1,1.5,1.5,2.3
			C233.6,196.6,234,197.4,234.4,198.3z"/>
		<path id="Trazado_123536" class="st5" d="M239.3,192c-0.6-0.7-1.1-1.5-1.5-2.3c-0.5-0.8-0.9-1.6-1.2-2.5c0.6,0.7,1.1,1.5,1.5,2.3
			C238.5,190.3,238.9,191.1,239.3,192z"/>
		<path id="Trazado_123537" class="st5" d="M242.4,184.9c-0.6-0.7-1.1-1.5-1.5-2.3c-0.5-0.8-0.9-1.6-1.2-2.5
			c0.6,0.7,1.1,1.5,1.5,2.3C241.6,183.2,242.1,184.1,242.4,184.9z"/>
		<path id="Trazado_123538" class="st5" d="M243.8,177.4c-0.7-0.9-1.3-1.9-1.8-2.9c-0.6-1-1.1-2-1.5-3
			C241.7,173.5,242.8,175.4,243.8,177.4z"/>
		<path id="Trazado_123539" class="st5" d="M242.2,166.9c-0.7-0.9-1.3-1.9-1.8-2.9c-0.6-1-1.1-1.9-1.5-3c0.7,0.9,1.3,1.9,1.8,2.9
			C241.2,164.9,241.8,165.9,242.2,166.9z"/>
		<g id="Grupo_55327" transform="translate(125.526 124.76)" class="st17">
			<path id="Trazado_123540" class="st18" d="M23,53.9c-0.1,0.2-0.1,0.4,0,0.6c0.2,0.3,0.5,0.4,0.8,0.3c0.2-0.1,0.3-0.2,0.3-0.4
				c0.1-0.2,0-0.4-0.1-0.6c-0.2-0.3-0.6-0.3-0.5-0.3C23.5,53.5,23.2,53.5,23,53.9z"/>
			<path id="Trazado_123541" class="st18" d="M45.4,38.2c-0.1,0.2-0.1,0.4,0,0.6c0.1,0.2,0.4,0.4,0.6,0.3c0.2,0,0.5-0.2,0.5-0.4
				c0-0.1,0-0.1,0-0.2l0,0c0-0.1-0.1-0.3-0.1-0.4c-0.2-0.3-0.6-0.3-0.5-0.3C45.8,37.8,45.5,37.9,45.4,38.2z"/>
			<path id="Trazado_123542" class="st18" d="M19.1,75.4c-0.1,0.2-0.1,0.4,0,0.6c0.2,0.3,0.5,0.4,0.8,0.3c0.1-0.1,0.3-0.2,0.3-0.4
				c0.1-0.2,0-0.4-0.1-0.6C19.8,75,19.6,75,19.6,75C19.6,75.1,19.3,75.1,19.1,75.4z"/>
			<path id="Trazado_123543" class="st18" d="M72.6,39.3c-0.1,0.2-0.1,0.4,0,0.6c0.2,0.3,0.5,0.4,0.8,0.3c0.2-0.1,0.3-0.2,0.3-0.4
				c0.1-0.2,0-0.4-0.1-0.6c-0.2-0.3-0.5-0.3-0.5-0.3C73.1,38.9,72.8,38.9,72.6,39.3z"/>
			<path id="Trazado_123544" class="st18" d="M26.1,19.5c-0.1,0.2-0.1,0.4,0,0.6c0.2,0.3,0.5,0.4,0.8,0.3c0.2-0.1,0.3-0.2,0.3-0.4
				c0.1-0.2,0-0.4-0.1-0.6c-0.1-0.1-0.3-0.2-0.4-0.3v0.1c0,0.1,0,0.3,0,0.4c0-0.1-0.1-0.3-0.1-0.4v-0.1c0,0-0.1,0,0,0
				C26.4,19.1,26.2,19.3,26.1,19.5z"/>
			<path id="Trazado_123545" class="st18" d="M74.7,30.8c-0.1,0.2-0.1,0.4,0,0.6c0.2,0.3,0.5,0.4,0.8,0.3c0.1-0.1,0.3-0.2,0.3-0.4
				c0.1-0.2,0-0.4-0.1-0.6c-0.2-0.3-0.6-0.3-0.5-0.3C75.2,30.5,74.9,30.5,74.7,30.8z"/>
			<path id="Trazado_123546" class="st18" d="M43.9,41.5c-0.1,0.2-0.1,0.4,0,0.6c0.2,0.3,0.5,0.4,0.8,0.3c0.2-0.1,0.3-0.2,0.3-0.4
				c0.1-0.2,0-0.4-0.1-0.5h-0.2l0.2,0c0,0,0,0,0,0c-0.2-0.3-0.6-0.3-0.5-0.3C44.2,41.2,44,41.3,43.9,41.5z"/>
			<path id="Trazado_123547" class="st18" d="M38.1,51.9c-0.1,0.2-0.1,0.4,0,0.6c0.1,0.3,0.5,0.4,0.8,0.3c0.2-0.1,0.3-0.2,0.3-0.4
				c0,0,0-0.1,0-0.1h0c0-0.2,0-0.3-0.1-0.4c-0.2-0.3-0.6-0.3-0.5-0.3C38.4,51.6,38.3,51.7,38.1,51.9z"/>
			<path id="Trazado_123548" class="st2" d="M16.3,30.9l37.3-3.7l5.5,5.8l0,0h0.1l11.3-1.2l3-0.3l0.8-0.1h0.1c0,0,0,0.1,0,0.1
				c0.2,0.4,0.7,0.6,1.2,0.4c0.2-0.1,0.4-0.3,0.5-0.6c0.1-0.3,0-0.6-0.2-0.8c-0.1-0.1-0.3-0.2-0.5-0.2c-0.1,0-0.2,0-0.2,0.1
				c0.2,0,0.4,0.1,0.5,0.3c0.1,0.2,0.2,0.4,0.1,0.6c-0.1,0.3-0.4,0.5-0.8,0.4c-0.2,0-0.3-0.2-0.4-0.3c-0.1-0.2-0.1-0.4,0-0.6
				c0.2-0.3,0.5-0.4,0.5-0.4s-0.1,0-0.2,0c-0.2,0-0.4,0.2-0.5,0.3c-0.1,0.2-0.2,0.5-0.1,0.7h-0.1l-0.8,0.1l-3,0.3l-11.2,1.1L53.6,27
				l0,0h-0.1l-37.3,3.6L2.2,32c0,0.1-0.1,0.2-0.1,0.3L16.3,30.9z"/>
			<path id="Trazado_123549" class="st2" d="M74.8,22.1l5.9,6l0,0h0.1l7.2-0.7c0-0.1,0-0.1-0.1-0.2l-7.1,0.6l-5.9-6l-0.1-0.1h-0.1
				l-4.7,0.5L52.8,24l-5.3,0.6l-1.4,0.2c-0.2,0-0.3,0-0.5,0.1c0.2,0,0.3,0,0.5,0l1.4-0.1l5.3-0.5l17.4-1.6L74.8,22.1z"/>
			<path id="Trazado_123550" class="st2" d="M37.1,42.9l3.6,1.5h0l6.1-0.6l1.6-0.2h0.1c0,0.3,0.3,0.4,0.5,0.4s0.4-0.3,0.4-0.5
				c0-0.2-0.3-0.4-0.5-0.4c-0.2,0-0.4,0.2-0.4,0.5h-0.1l-1.6,0.1l-6.1,0.5l-3.6-1.5h-0.1L11,45.2l-9.2,0.9L0,45.2v0.3l1.7,0.8h0.1
				l9.2-0.9L37.1,42.9z"/>
			<path id="Trazado_123551" class="st2" d="M40.5,40.6L37,39.5H37l-2.2,0.2c-0.1-1.4-0.2-2.8-0.3-4v-0.1h-0.1l-10.1,1.1L21.4,37
				l-0.3,0c0-0.2-0.3-0.4-0.5-0.4c-0.3,0-0.4,0.2-0.4,0.5c0,0.3,0.2,0.4,0.5,0.4c0.2,0,0.4-0.2,0.4-0.5l0.3,0l2.8-0.3l10-1
				c0.1,1.3,0.2,2.6,0.3,4v0.1h0.2l2.3-0.2l3.4,1.1h0.1l4.3-0.4l19.3-1.9l3.6,2h0.1l3.6-0.4l1-0.1h0c0.2,0.5,0.7,0.6,1.2,0.4
				c0.2-0.1,0.4-0.3,0.5-0.6c0.1-0.3,0-0.6-0.2-0.8c-0.1-0.1-0.3-0.2-0.5-0.2c-0.1,0-0.2,0-0.2,0.1c0.2,0,0.4,0.1,0.5,0.3
				c0.1,0.2,0.2,0.4,0.1,0.6c-0.1,0.3-0.4,0.5-0.8,0.4c-0.2,0-0.3-0.2-0.4-0.3c-0.1-0.2-0.1-0.4,0-0.6c0.2-0.3,0.5-0.4,0.5-0.4
				s-0.1,0-0.2,0c-0.2,0-0.4,0.2-0.5,0.3c-0.2,0.2-0.2,0.5-0.1,0.8h0l-1,0.1l-3.6,0.3l-3.5-2h-0.1l-19.4,1.8L40.5,40.6z"/>
			<path id="Trazado_123552" class="st2" d="M20.3,75.2c-0.1-0.1-0.3-0.2-0.5-0.2c-0.1,0-0.2,0-0.2,0.1c0.2,0,0.4,0.1,0.5,0.3
				c0.1,0.2,0.2,0.4,0.1,0.6c-0.1,0.3-0.4,0.5-0.8,0.4c-0.2,0-0.3-0.2-0.4-0.3c-0.1-0.2-0.1-0.4,0-0.6c0.2-0.3,0.5-0.4,0.5-0.4
				s-0.1,0-0.2,0c-0.2,0-0.4,0.2-0.5,0.3c-0.2,0.3-0.2,0.6-0.1,0.8c0.2,0.3,0.5,0.6,0.9,0.5c0.4,0,0.7-0.3,0.8-0.7v0h0.1l0.7,0
				l2.6-0.2l9-0.8h0.1l0-0.1l2.6-5.5v-0.1c-0.1-0.8-0.2-1.7-0.2-2.6c-0.4-3.7-0.7-7.2-1-10.2v-0.1l-0.1,0l-4.3-2.8h0L25.7,54
				l-1.1,0.1h-0.2c0-0.2-0.1-0.4-0.2-0.5c-0.1-0.1-0.3-0.2-0.5-0.2c-0.1,0-0.2,0-0.2,0.1c0.2,0,0.4,0.1,0.5,0.3
				c0.1,0.2,0.2,0.4,0.1,0.6c-0.1,0.3-0.4,0.5-0.7,0.4c-0.2,0-0.3-0.2-0.4-0.3c-0.1-0.2-0.1-0.4,0-0.6c0.2-0.3,0.5-0.4,0.5-0.4
				s-0.1,0-0.2,0c-0.2,0-0.4,0.2-0.5,0.3c-0.2,0.2-0.2,0.6-0.1,0.8c0.2,0.5,0.7,0.6,1.2,0.4c0.2-0.1,0.4-0.3,0.5-0.6
				c0-0.1,0-0.2,0-0.2h0.1l1.1-0.1l4.2-0.4c1.2,0.8,2.6,1.8,4.2,2.8c0.3,3,0.6,6.5,1,10.1c0.1,0.8,0.2,1.7,0.2,2.5l-2.5,5.4
				l-8.9,0.9l-2.6,0.3l-0.7,0.1h-0.1C20.5,75.7,20.4,75.4,20.3,75.2z"/>
			<path id="Trazado_123553" class="st2" d="M68.4,62c0.2,0,0.4-0.2,0.4-0.5l0,0l1.3-0.1l4.9-0.4h0.1l5.2-4.3l10.4-1
				c0-0.1,0-0.2,0.1-0.3l-10.6,1.1h0l0,0L75,60.8l-4.9,0.5l-1.3,0.2l0,0c0-0.3-0.2-0.4-0.5-0.4c-0.3,0-0.4,0.2-0.4,0.5
				C67.9,61.8,68.1,62,68.4,62C68.4,62,68.4,62,68.4,62L68.4,62z"/>
			<path id="Trazado_123554" class="st2" d="M44.6,91.6c0-0.2,0-0.4,0-0.6c-0.1-0.7-0.1-1.6-0.2-2.8c-0.2-2.3-0.5-5.6-0.8-9.2
				c-0.1-1.1-0.2-2.2-0.3-3.2v-0.1l0,0l-5.3-4.3c-0.1-0.9-0.2-1.6-0.2-2.1c0-0.4-0.1-0.6-0.1-0.7c0.1,0,0.1,0,0.2,0
				c0.3,0,0.4-0.2,0.4-0.5c0-0.3-0.2-0.4-0.5-0.4s-0.4,0.2-0.4,0.5c0,0,0,0,0,0c0,0.2,0.1,0.3,0.3,0.4c0,0.1,0,0.3,0,0.7
				c0,0.5,0.1,1.3,0.2,2.2v0l0,0l5.2,4.3c0.1,1,0.2,2.1,0.3,3.2c0.3,3.6,0.7,6.8,0.9,9.2c0.1,1.1,0.2,2.1,0.3,2.8L44.6,91.6
				c-0.2,0-0.3,0-0.3,0.1H45C44.9,91.6,44.7,91.6,44.6,91.6L44.6,91.6z"/>
			<path id="Trazado_123555" class="st2" d="M23.3,23.9c0,0.2,0.2,0.4,0.5,0.4c0,0,0,0,0,0c0.3,0,0.4-0.3,0.4-0.5
				c0-0.3-0.3-0.4-0.5-0.4C23.4,23.5,23.2,23.7,23.3,23.9z"/>
			<path id="Trazado_123556" class="st2" d="M59.7,65.6l0.9-0.1h0.2c0,0,0,0.1,0,0.1c0,0.2,0.2,0.4,0.5,0.4c0,0,0,0,0,0
				c0.2,0,0.4-0.2,0.4-0.5c0-0.2-0.2-0.4-0.5-0.4c-0.2,0-0.4,0.2-0.4,0.4h-0.2L59.7,65.6l-3.4,0.1l-11.5,0.8c-0.2-1.3-0.3-2.6-0.5-4
				c0-0.4-0.1-0.7-0.1-1.1l4.1-4.5l0,0v-0.1c-0.2-1.5-0.3-2.9-0.4-4.1v-0.1l0,0l-1.4-1.1l0,0h0L41.2,52l-1.4,0.2h-0.2
				c0-0.2-0.1-0.4-0.3-0.5c-0.1-0.1-0.3-0.2-0.5-0.2c-0.1,0-0.2,0-0.2,0.1c0.2,0,0.4,0.1,0.5,0.3c0.1,0.1,0.1,0.3,0.1,0.4h0
				c0,0,0,0.1,0,0.1c-0.1,0.3-0.4,0.5-0.7,0.4c-0.2,0-0.3-0.2-0.4-0.3c-0.1-0.2-0.1-0.4,0-0.6c0.2-0.3,0.5-0.4,0.5-0.4s-0.1,0-0.2,0
				c-0.2,0-0.4,0.2-0.5,0.3c-0.2,0.2-0.2,0.6-0.1,0.8c0.2,0.5,0.7,0.7,1.2,0.5c0.3-0.1,0.5-0.3,0.5-0.6c0-0.1,0-0.1,0-0.2h0.2
				l1.4-0.1l5.2-0.5l1.3,1.1c0.1,1.2,0.2,2.6,0.4,4l-4.1,4.5l0,0.1v0.1c0,0.4,0.1,0.8,0.1,1.2l0.5,4.1v0.2h0.1l11.6-0.9L59.7,65.6z"
				/>
			<path id="Trazado_123557" class="st2" d="M52.8,64.1c-0.2-3-0.5-6.1-0.8-9.3c0-0.4-0.1-0.9-0.1-1.3v-0.1l-0.1,0l-4.4-3.8l-0.1,0
				h-0.1l-27.3,2.7H20L3.5,63.3l0.1,0.2l16.6-11.1l27.2-2.6l4.3,3.7c0,0.4,0.1,0.8,0.1,1.3c0.3,3.3,0.5,6.5,0.8,9.5v0.2h0.2
				l36.5-3.2l0.1-0.2L52.8,64.1z"/>
			<path id="Trazado_123558" class="st2" d="M52.2,47.2c0.1,0.9,0.2,2.2,0.4,3.8v0l0,0l7.8,6l0,0h0l10.3-1l17.8-1.8l2.5-0.3l0-0.2
				l-2.5,0.2l-17.8,1.7l-10.2,1l-7.8-5.9C52.6,49.3,52.4,48.1,52.2,47.2c0-0.4,0-0.7-0.1-1c0-0.1,0-0.2-0.1-0.3c0,0.1,0,0.2,0,0.3
				C52.1,46.5,52.1,46.8,52.2,47.2z"/>
			<path id="Trazado_123559" class="st2" d="M60.9,35.3L60.9,35.3L60.9,35.3l-2.8,1.9l-8.4,0.9l-2.4,0.3l-0.6,0.1
				c0-0.2-0.1-0.4-0.2-0.5c-0.1-0.1-0.3-0.2-0.5-0.2c-0.1,0-0.2,0-0.2,0.1c0.2,0,0.4,0.1,0.5,0.3c0.1,0.1,0.1,0.2,0.1,0.4l0,0
				c0,0.1,0,0.1,0,0.2c-0.1,0.2-0.3,0.4-0.5,0.4c-0.3,0-0.5-0.1-0.6-0.3c-0.1-0.2-0.1-0.4,0-0.6c0.2-0.3,0.5-0.4,0.5-0.4
				s-0.1,0-0.2,0c-0.2,0-0.4,0.2-0.5,0.3c-0.2,0.3-0.2,0.6-0.1,0.8c0.2,0.4,0.7,0.6,1.2,0.4c0.2-0.1,0.4-0.3,0.5-0.6
				c0-0.1,0-0.2,0-0.3l0.6,0l2.4-0.2l8.4-0.8h0.1l2.7-1.9l4.5-0.3l13.8-1.1l4.2-0.4l1.1-0.1c0,0.2,0.2,0.4,0.5,0.4
				c0.2,0,0.4-0.2,0.4-0.5s-0.2-0.4-0.5-0.4c-0.2,0-0.4,0.2-0.4,0.4l-1.1,0.1l-4.2,0.3L65.4,35L60.9,35.3z"/>
			<path id="Trazado_123560" class="st2" d="M38.1,81.3c-0.1-1.3-0.2-2.5-0.4-3.7v-0.1l-0.1,0l-2.9-1.8l0,0h0l-6.6,0.7l-1.9,0.2
				l-0.2,0c0-0.2-0.3-0.4-0.5-0.4c-0.3,0-0.4,0.3-0.4,0.5c0,0.2,0.2,0.4,0.5,0.4c0.2,0,0.4-0.2,0.4-0.5h0.2l1.9-0.1l6.5-0.6l2.7,1.7
				c0.1,1.2,0.2,2.4,0.3,3.6l1,9.9l0.2,0C38.8,88.5,38.4,85,38.1,81.3z"/>
			<path id="Trazado_123561" class="st2" d="M42.5,88.9L42.5,88.9l0-0.1c-0.5-4.9-0.9-9.5-1.3-13.6v-0.1l0,0l-4-3.3
				c-0.4-3.5-0.7-6.3-0.9-8.3c-0.1-1-0.2-1.7-0.3-2.3c0-0.2-0.1-0.4-0.1-0.6h0.1c0.3,0,0.4-0.2,0.4-0.5c0-0.3-0.2-0.4-0.5-0.4
				s-0.4,0.2-0.4,0.5c0,0,0,0,0,0c0,0.2,0.2,0.4,0.4,0.4c0,0.2,0,0.4,0,0.6c0,0.5,0.1,1.3,0.2,2.3c0.2,2,0.4,4.9,0.8,8.4v0l0,0
				l4,3.3c0.4,4,0.8,8.6,1.3,13.4l-0.4,0.5l-1.7,2.1l0.4,0c0.5-0.6,1.1-1.3,1.6-1.9L42.5,88.9z"/>
			<path id="Trazado_123562" class="st2" d="M84.6,68.7l-22.9,2.2l-5,0.5h-0.1l0,0.1l-1.6,5.9v0.1c0.5,5.1,1,9.6,1.3,13.2l0.2,0
				c-0.3-3.5-0.7-8-1.2-13.1c0.5-1.8,1.1-3.8,1.6-5.8l4.9-0.5l22.9-2.3l1.1-0.1l0.1-0.2L84.6,68.7z"/>
			<path id="Trazado_123563" class="st2" d="M55.7,50.2L55.7,50.2l0.1,0.1l1.6,1.2l4.5,3.2l0,0h0l11.7-1.2l3.4-0.4l0.8-0.1
				c0,0.3,0.3,0.4,0.5,0.4c0.3,0,0.4-0.3,0.4-0.5c0-0.3-0.3-0.4-0.5-0.4c-0.2,0-0.4,0.2-0.4,0.5l-0.8,0.1l-3.4,0.3l-11.6,1.1
				l-4.5-3.2L56,50.1c-0.4-3.5-0.7-6.8-1-9.6v-0.1h-0.1l-7.4,0.8l-2.1,0.2l-0.3,0c0-0.1-0.1-0.1-0.1-0.2c-0.1-0.1-0.3-0.2-0.5-0.2
				c-0.1,0-0.2,0-0.2,0.1c0.2,0,0.4,0.1,0.5,0.3c0,0,0,0,0,0l-0.2,0h0.2C45,41.6,45,41.8,45,42c-0.1,0.3-0.4,0.5-0.8,0.4
				c-0.2,0-0.3-0.2-0.4-0.3c-0.1-0.2-0.1-0.4,0-0.6c0.2-0.3,0.5-0.4,0.5-0.4s-0.1,0-0.2,0c-0.2,0-0.4,0.2-0.5,0.3
				c-0.2,0.3-0.2,0.6-0.1,0.8c0.2,0.4,0.7,0.6,1.2,0.4c0.2-0.1,0.4-0.3,0.5-0.6c0-0.2,0-0.4-0.1-0.6h0.3l2.1-0.2l7.3-0.7
				C55.1,43.5,55.4,46.7,55.7,50.2z"/>
			<path id="Trazado_123564" class="st2" d="M90.9,43.9l-4.3-3.6l-0.1,0h-0.1l-0.4,0l-18.8,1.9l-3-1.7h-0.1l-3.9,0.4h0l0,0l-3.9,4.8
				l0,0v0c0.1,1.3,0.2,2.2,0.3,2.9c0,0.3,0.1,0.6,0.1,0.7c0,0.1,0,0.2,0,0.2c0-0.1,0-0.2,0-0.3c0-0.2,0-0.4-0.1-0.8
				c-0.1-0.7-0.1-1.6-0.2-2.9l3.9-4.7l3.8-0.4l3,1.7h0.1l18.8-1.8l0.3,0l4.3,3.6l0,0h0.1l0.9-0.1v-0.3L90.9,43.9z"/>
			<path id="Trazado_123565" class="st2" d="M31.1,5.3L31.1,5.3L31.1,5.3l4.6,3.8c0.4,4.5,0.9,8.5,1.2,11.7v0.1l0.1,0l4.3,2.1h0
				l2.6-0.3l0.7-0.1c0.1,0,0.2,0,0.2,0c-0.1,0-0.2,0-0.2,0l-0.7,0l-2.6,0.2l-4.2-2.1c-0.3-3.2-0.7-7.2-1.1-11.7V9l-0.1,0l-4.6-3.8
				c-0.1-0.9-0.2-1.8-0.3-2.7l-0.3,0.1C30.9,3.4,31,4.3,31.1,5.3L31.1,5.3z"/>
			<path id="Trazado_123566" class="st2" d="M38.7,8.7L38.7,8.7l0,0.1c0.3,3.2,0.6,5.9,0.8,7.8c0.1,0.9,0.2,1.7,0.3,2.2
				c0,0.3,0.1,0.5,0.1,0.8c0-0.3,0-0.5,0-0.8c0-0.6-0.1-1.3-0.2-2.2c-0.2-2-0.4-4.6-0.7-7.8l4.3-5.2l2.3-2.8l0,0V0.8L45.5,0h-0.3
				l0.1,0.7L43,3.5L38.7,8.7z"/>
			<path id="Trazado_123567" class="st2" d="M43.9,8.5C44,8.4,44,8.3,44,8.3c0-0.3-0.2-0.4-0.5-0.4c-0.2,0-0.4,0.2-0.4,0.5
				c0,0,0,0,0,0c0,0.2,0.2,0.4,0.5,0.4C43.7,8.8,43.8,8.7,43.9,8.5l0.4,0.5c0.5,0.4,1.2,1.1,2.1,1.8c0.1,0.7,0.1,1.4,0.2,2.1
				c0.2,1.7,0.3,3.2,0.5,4.3c0,0.6,0.1,1.2,0.3,1.8c0-0.6,0-1.2-0.1-1.8c-0.1-1.1-0.2-2.6-0.4-4.3c-0.1-0.8-0.2-1.5-0.2-2.2v-0.1
				l0,0c-0.9-0.7-1.6-1.3-2.2-1.7L43.9,8.5z"/>
			<path id="Trazado_123568" class="st2" d="M49.4,20.4L49.4,20.4L49.4,20.4l2.4,2.6l0,0.1h0.1l14-1.4l7.2-0.7h0.1l0-0.1l5.5-7.2
				l-0.2-0.2l-5.5,7.2l-7.1,0.7L52,22.7l-2.3-2.4c-0.8-8.2-1.5-15.2-2-20.2V0h-0.2v0.1C47.9,5.1,48.6,12.1,49.4,20.4z"/>
			<path id="Trazado_123569" class="st2" d="M55.2,25.3l-3.3,0.3l-10.9,1c0-0.5-0.1-1-0.1-1.5V25l-0.1,0l-4.3-2.4l0,0h0l-8.8,0.9
				l-2.5,0.3l-0.7,0.1c-0.1,0-0.2,0-0.2,0c0.1,0,0.2,0,0.2,0l0.7,0l2.5-0.2l8.7-0.8l4.1,2.4v0c0.1,0.6,0.1,1.1,0.2,1.6V27h0.2
				l11.1-1.1l3.3-0.4l0.9-0.1c0.1,0,0.2,0,0.3-0.1c-0.1,0-0.2,0-0.3,0L55.2,25.3z"/>
			<path id="Trazado_123570" class="st2" d="M15.1,11.8l2.9,2.9l0.1,0h0.1l7.9-0.8c0.2,1.7,0.3,3.1,0.4,4.1c0,0.4,0.1,0.7,0.1,1
				c0,0,0,0,0,0s0,0,0,0v0.1c0,0.1,0,0.3,0.1,0.4c0-0.1,0-0.3,0-0.4v-0.1c0.2,0,0.3,0.1,0.4,0.3c0.1,0.2,0.2,0.4,0.1,0.6
				c-0.1,0.3-0.4,0.5-0.8,0.4c-0.2,0-0.3-0.2-0.4-0.3c-0.1-0.2-0.1-0.4,0-0.6c0.2-0.3,0.5-0.4,0.5-0.4s-0.1,0-0.2,0
				c-0.2,0-0.4,0.2-0.5,0.3c-0.2,0.2-0.2,0.6-0.1,0.8c0.2,0.4,0.7,0.6,1.2,0.4c0.2-0.1,0.4-0.3,0.5-0.6c0.1-0.3,0-0.6-0.2-0.8
				C27.2,19.1,27,19,26.8,19c0,0-0.1,0-0.1,0c0-0.3,0-0.6-0.1-1c-0.1-1.1-0.2-2.5-0.4-4.2v-0.1h-0.1l-7.9,0.7l-2.8-2.9L15.1,11.8z"
				/>
		</g>
		<path id="Trazado_123571" class="st14" d="M2.1,107.3c0,0,7.1-5.7,30.8,6.7c0,0,23.8,10.4,15.9,20.3c-6.8,8.4-20.6,3.6-28.3,0.1
			c-4.4-2.1-8.5-4.8-12.3-7.9C2.1,121.4-3,113.8,2.1,107.3z"/>
		<path id="Trazado_123572" class="st13" d="M2.1,107.3c0,0,7.1-5.7,30.8,6.7c0,0,23.8,10.4,15.9,20.3c-6.8,8.4-20.6,3.6-28.3,0.1
			c-4.4-2.1-8.5-4.8-12.3-7.9C2.1,121.4-3,113.8,2.1,107.3z"/>
		<path id="Trazado_123573" class="st14" d="M2.6,106.9c0,0,8.4-8.7,32.1,3.8c0,0,23.3,13.2,14.4,22.4c-6.1,6.3-19.2,1.5-26.8-2
			c-4.6-2.1-9-4.8-13-7.9C3.1,118.1-1.4,111.6,2.6,106.9z"/>
		
			<ellipse id="Elipse_4204" transform="matrix(0.467 -0.8843 0.8843 0.467 -92.1218 87.03)" class="st15" cx="26.1" cy="119.9" rx="8.3" ry="21.2"/>
		<path id="Trazado_123574" class="st14" d="M39.1,124.9l-3.2-1.8c-0.8-1.6-2.2-2.9-3.8-3.6c-2.6-1.1-4.1-0.6-4.1-0.6
			s-0.1-2.6-3.7-4.3c-4.7-2.3-5.6-0.8-5.6-0.8l-3.9-2.2l-1.1,1.8l3.3,1.9l-0.3,0.5l-3.4-2l-1.1,1.9l3.5,1.8l-0.5,0.9l17.2,9.9
			l0.7-1.3l3.4,2l0.9-1.6l-3.2-1.8l0.5-0.8l3.2,1.8L39.1,124.9z M23.9,120.7l-4.3-2.5c0,0,1.2-3,3.8-1.7S23.9,120.7,23.9,120.7
			L23.9,120.7z M30.9,124.6l-3.7-2.1c0,0,0.5-2.8,3.1-1.6C33.2,122.2,30.9,124.6,30.9,124.6z"/>
		<path id="Trazado_123575" class="st13" d="M39.1,124.9l-3.2-1.8c-0.8-1.6-2.2-2.9-3.8-3.6c-2.6-1.1-4.1-0.6-4.1-0.6
			s-0.1-2.6-3.7-4.3c-4.7-2.3-5.6-0.8-5.6-0.8l-3.9-2.2l-1.1,1.8l3.3,1.9l-0.3,0.5l-3.4-2l-1.1,1.9l3.5,1.8l-0.5,0.9l17.2,9.9
			l0.7-1.3l3.4,2l0.9-1.6l-3.2-1.8l0.5-0.8l3.2,1.8L39.1,124.9z M23.9,120.7l-4.3-2.5c0,0,1.2-3,3.8-1.7S23.9,120.7,23.9,120.7
			L23.9,120.7z M30.9,124.6l-3.7-2.1c0,0,0.5-2.8,3.1-1.6C33.2,122.2,30.9,124.6,30.9,124.6z"/>
		<path id="Trazado_123576" class="st14" d="M39.9,123.5l-3.2-1.8c-0.8-1.6-2.2-2.9-3.8-3.6c-2.6-1.1-4.1-0.6-4.1-0.6
			s-0.1-2.6-3.7-4.3c-4.7-2.3-5.6-0.8-5.6-0.8l-3.9-2.3l-1.1,1.8l3.3,1.9l-0.3,0.5l-3.4-2l-1.1,1.9l3.5,1.8L16,117l17.2,9.9l0.7-1.3
			l3.4,2l1-1.6l-3.2-1.8l0.5-0.8l3.3,1.9L39.9,123.5z M24.7,119.3l-4.3-2.5c0,0,1.2-3,3.8-1.7S24.7,119.3,24.7,119.3L24.7,119.3z
			 M31.7,123.2l-3.7-2.1c0,0,0.5-2.8,3.1-1.6C34,120.8,31.7,123.2,31.7,123.2L31.7,123.2z"/>
		<path id="Trazado_123577" class="st4" d="M3.7,106.1c0.2-0.1,0.3-0.2,0.5-0.3c0.2-0.1,0.4-0.2,0.6-0.3s0.6-0.3,0.9-0.4
			c2-0.8,4.1-1.3,6.2-1.4c1.5-0.1,3-0.1,4.4,0.1c1.7,0.2,3.4,0.5,5,0.9c3.7,1.1,7.3,2.5,10.7,4.2c7.5,3.5,13.3,8.5,16.4,12.9
			c1.3,1.7,2.2,3.7,2.5,5.9c0,0.2,0,0.4,0.1,0.5v0.5c0,0.2,0,0.5-0.1,0.7c0,0.2-0.1,0.4-0.1,0.6c-0.1,0,0.1-0.8-0.2-2.3
			c-0.4-2-1.3-4-2.6-5.6c-3.2-4.2-9-9-16.3-12.5c-3.4-1.7-7-3.1-10.6-4.2c-1.6-0.4-3.2-0.7-4.8-0.9c-1.4-0.2-2.9-0.2-4.3-0.2
			c-2.1,0.1-4.2,0.5-6.1,1.1C4.4,105.8,3.7,106.2,3.7,106.1z"/>
		<path id="Trazado_123578" class="st13" d="M45.1,129.2c0,0,3.4-8.2-14.4-17.9S7.4,110,7.4,110s4.6-6.9,23.1,2.8
			C46.6,121.3,45.1,129.2,45.1,129.2z"/>
		<path id="Trazado_123579" class="st5" d="M40.6,138.9c-0.1,0,0.1-0.7,0.3-1.4c0.1-0.5,0.3-0.9,0.6-1.3c0,0.5-0.2,1-0.4,1.4
			C41,138,40.8,138.4,40.6,138.9z"/>
		<path id="Trazado_123580" class="st5" d="M68,137.5c-0.1,0,0-0.6,0.2-1.2c0.1-0.4,0.3-0.7,0.5-1.1c0,0.4-0.1,0.8-0.3,1.1
			C68.3,136.8,68.2,137.2,68,137.5z"/>
		<path id="Trazado_123581" class="st5" d="M36.7,139c0-0.5,0.2-1.1,0.4-1.6c0.1-0.5,0.4-1,0.7-1.5c0,0.5-0.2,1.1-0.4,1.6
			C37.2,138.1,37,138.6,36.7,139z"/>
		<path id="Trazado_123582" class="st5" d="M32.9,138.6c0.1-0.6,0.2-1.1,0.4-1.7c0.1-0.6,0.4-1.1,0.7-1.6
			C33.9,136.5,33.5,137.6,32.9,138.6L32.9,138.6z"/>
		<path id="Trazado_123583" class="st5" d="M28.8,137.5c0.1-0.6,0.2-1.1,0.4-1.7c0.1-0.6,0.4-1.1,0.7-1.6c-0.1,0.6-0.2,1.1-0.4,1.7
			C29.4,136.5,29.1,137,28.8,137.5z"/>
		<path id="Trazado_123584" class="st5" d="M25,136.1c0.1-0.6,0.2-1.1,0.4-1.7c0.1-0.6,0.4-1.1,0.7-1.6c-0.1,0.6-0.2,1.1-0.4,1.7
			C25.6,135.1,25.3,135.6,25,136.1z"/>
		<path id="Trazado_123585" class="st5" d="M21.2,134.8c0.1-0.6,0.2-1.1,0.4-1.7c0.1-0.6,0.4-1.1,0.7-1.6
			C22.2,132.7,21.8,133.8,21.2,134.8L21.2,134.8z"/>
		<path id="Trazado_123586" class="st5" d="M17.7,132.8c0.1-0.6,0.2-1.1,0.4-1.7c0.1-0.6,0.4-1.1,0.7-1.6c-0.1,0.6-0.2,1.1-0.4,1.7
			C18.2,131.8,18,132.3,17.7,132.8z"/>
		<path id="Trazado_123587" class="st5" d="M14.2,130.7c0.2-1.1,0.6-2.2,1.1-3.2c-0.1,0.6-0.2,1.1-0.4,1.7
			C14.7,129.7,14.5,130.2,14.2,130.7z"/>
		<path id="Trazado_123588" class="st5" d="M10.7,128.5c0.1-0.6,0.2-1.1,0.4-1.7c0.1-0.6,0.4-1.1,0.7-1.6c-0.1,0.6-0.2,1.1-0.4,1.7
			C11.2,127.5,11,128,10.7,128.5z"/>
		<path id="Trazado_123589" class="st5" d="M7.4,126c0.2-1.1,0.6-2.2,1.1-3.2c-0.1,0.6-0.2,1.1-0.4,1.7C8,125,7.8,125.5,7.4,126z"/>
		<path id="Trazado_123590" class="st5" d="M4.4,123c0.2-1.1,0.6-2.2,1.1-3.2c-0.1,0.6-0.2,1.1-0.4,1.7C4.9,121.9,4.7,122.5,4.4,123
			z"/>
		<path id="Trazado_123591" class="st5" d="M2,119.3c0-0.5,0.2-1,0.4-1.5c0.1-0.5,0.3-1,0.6-1.4c0,0.5-0.2,1-0.4,1.5
			C2.5,118.4,2.3,118.9,2,119.3z"/>
		<path id="Trazado_123592" class="st5" d="M0.3,115.6c0-0.5,0.2-1,0.4-1.5c0.1-0.5,0.3-1,0.6-1.4c0,0.5-0.2,1-0.4,1.5
			C0.8,114.7,0.6,115.2,0.3,115.6z"/>
		<path id="Trazado_123593" class="st4" d="M23.5,115.2c-0.1,0.2-0.5,0.2-0.9,0.3s-0.8,0.1-1-0.1c-0.1-0.1,0-0.2,0.1-0.4
			c0.4-0.4,1-0.4,1.5-0.1C23.4,114.9,23.5,115.1,23.5,115.2z"/>
		<path id="Trazado_123594" class="st4" d="M31,119.5c-0.1,0.2-0.6,0.1-1.1,0.1s-0.9,0-1-0.2c0-0.1,0-0.3,0.2-0.4
			c0.5-0.3,1.2-0.2,1.7,0.1C31,119.3,31.1,119.4,31,119.5z"/>
		<path id="Trazado_123595" class="st4" d="M25.5,113.4c0,0-0.2,0-0.5-0.1l-1.1-0.4c-0.5-0.2-1-0.4-1.6-0.5
			c-0.6-0.2-1.3-0.2-1.9-0.1c-0.1,0-0.3,0.1-0.4,0.1c-0.1,0-0.2,0.1-0.3,0.2l-0.3,0.2l-0.2-0.1c-2.2-1.3-3.8-2.4-3.7-2.6
			s1.9,0.6,4.1,1.9l-0.5,0.1c0.2-0.1,0.3-0.2,0.5-0.3c0.2-0.1,0.3-0.1,0.5-0.2c0.8-0.1,1.5-0.1,2.3,0.1c0.5,0.2,1.1,0.4,1.6,0.7
			c0.4,0.2,0.7,0.4,1,0.7C25.5,113.2,25.6,113.3,25.5,113.4z"/>
	</g>
</g>
</svg>
