<?xml version="1.0" encoding="utf-8"?>
<!-- Generator: Adobe Illustrator 25.3.1, SVG Export Plug-In . SVG Version: 6.00 Build 0)  -->
<svg version="1.1" id="Layer_1" xmlns="http://www.w3.org/2000/svg" xmlns:xlink="http://www.w3.org/1999/xlink" x="0px" y="0px"
	 viewBox="0 0 342.1 245.5" style="enable-background:new 0 0 342.1 245.5;" xml:space="preserve">
<style type="text/css">
	.st0{fill:#F5F5F5;}
	.st1{fill:#EBEBEB;}
	.st2{fill:#E0E0E0;}
	.st3{fill:#FFFFFF;}
	.st4{fill:#455A64;}
	.st5{fill:#263238;}
	.st6{fill:#FF725E;}
	.st7{opacity:0.5;}
	.st8{fill:#FAFAFA;}
	.st9{fill:#C1507F;}
	.st10{opacity:0.4;}
	.st11{fill:#12263F;}
	.st12{opacity:0.6;}
	.st13{fill:#FFBE9D;}
	.st14{fill:#EB996E;}
	.st15{fill:#26AAB7;}
</style>
<g id="Price-pana" transform="translate(3.254 -51.775)">
	<g id="freepik--background-complete--inject-2" transform="translate(-3.254 51.775)">
		<path id="Trazado_118898" class="st0" d="M65.2,57.1c2,13.2-7.1,25.5-20.4,27.5c-13.2,2-25.5-7.1-27.5-20.4
			c-2-13.2,7.1-25.5,20.4-27.5c0,0,0.1,0,0.1,0C51,34.9,63.3,44,65.2,57.1z"/>
		<path id="Trazado_118899" class="st1" d="M59.6,58C61,68,54.1,77.4,44,78.8C34,80.3,24.6,73.3,23.2,63.3
			c-1.5-10.1,5.5-19.4,15.5-20.9c4.8-0.7,9.7,0.5,13.6,3.4C56.3,48.8,58.9,53.1,59.6,58z"/>
		<path id="Trazado_118900" class="st2" d="M59.5,57.4c-0.3-0.7-0.6-1.4-0.8-2.1C58,53.4,57,51.6,55.8,50c-0.9-1.1-1.8-2.1-2.9-3
			c-1.2-1-2.6-1.8-4-2.5c-1.6-0.7-3.3-1.2-5-1.4C42.9,43,42,43,41.1,43c-1.9,0-3.8,0.4-5.6,1c-1.7,0.6-3.3,1.4-4.8,2.5
			c-0.7,0.5-1.4,1.1-2,1.7c-1.1,1.1-2.1,2.4-2.9,3.7c-0.7,1.2-1.3,2.5-1.7,3.8c-0.6,1.9-0.9,3.9-0.9,6c0.1,0.8,0.1,1.5,0,2.3
			c-0.3-0.7-0.5-1.5-0.5-2.2c-0.2-2.1,0-4.2,0.5-6.3c0.4-1.4,0.9-2.8,1.6-4.1c0.8-1.5,1.8-2.9,3-4.1c0.6-0.7,1.3-1.3,2.1-1.8
			c0.8-0.6,1.6-1.1,2.4-1.6c0.9-0.5,1.8-0.9,2.7-1.2c1.9-0.7,4-1,6-1.1c1,0,2,0.1,3,0.2c0.9,0.1,1.9,0.4,2.8,0.7
			c0.9,0.3,1.7,0.6,2.6,1c1.5,0.7,3,1.7,4.2,2.8c1.1,1,2.1,2.1,2.9,3.3c1.2,1.7,2.1,3.7,2.6,5.7C59.4,55.9,59.5,56.7,59.5,57.4z"/>
		<path id="Trazado_118901" class="st2" d="M45,71.2l0.5,3.2l-2.8,0.5l-0.5-3.1c-2.5,0.3-5.1-0.1-7.4-1.1l1-3.7
			c1.8,0.9,3.8,1.3,5.8,1.1l-0.8-4.7c-3.3-0.3-6.9-0.7-7.6-4.8c-0.5-3,1.3-5.9,5.7-7.1l-0.5-3.2l2.8-0.5l0.5,3.1
			c2-0.2,4.1,0.1,6,0.8l-0.9,3.7c-1.5-0.6-3-0.8-4.6-0.8l0.8,4.8c3.3,0.2,6.9,0.7,7.5,4.7C51.1,67.1,49.3,69.9,45,71.2z M40.1,59.1
			l-0.7-4c-1.4,0.6-1.9,1.5-1.8,2.4S38.8,58.9,40.1,59.1L40.1,59.1z M46.1,65.2c-0.2-1-1.1-1.4-2.4-1.6l0.6,3.9
			C45.7,66.9,46.2,66.1,46.1,65.2L46.1,65.2z"/>
		<path id="Trazado_118902" class="st0" d="M324.7,149.5c2,13.4-7.3,25.9-20.7,27.8c-13.4,2-25.9-7.3-27.8-20.7s7.3-25.9,20.7-27.8
			c0,0,0,0,0.1,0C310.3,126.9,322.7,136.2,324.7,149.5z"/>
		<path id="Trazado_118903" class="st1" d="M318.9,150.4c1.5,10.2-5.6,19.7-15.8,21.2c-10.2,1.5-19.7-5.6-21.2-15.8
			c-1.5-10.2,5.6-19.7,15.8-21.2c0,0,0,0,0,0C307.9,133.1,317.4,140.2,318.9,150.4z"/>
		<path id="Trazado_118904" class="st2" d="M318.8,149.8c-0.3-0.7-0.6-1.4-0.8-2.2c-1.2-3.3-3.2-6.2-5.9-8.4c-1.2-1-2.6-1.9-4.1-2.5
			c-0.8-0.4-1.6-0.7-2.4-0.9c-0.9-0.3-1.7-0.4-2.6-0.6c-0.9-0.1-1.9-0.2-2.8-0.2c-1,0-1.9,0.1-2.9,0.3c-0.9,0.2-1.9,0.4-2.8,0.7
			c-0.9,0.3-1.7,0.7-2.6,1.1c-0.8,0.4-1.6,0.9-2.3,1.4c-0.7,0.5-1.4,1.1-2,1.7c-1.1,1.1-2.1,2.4-3,3.8c-0.7,1.2-1.3,2.5-1.7,3.8
			c-0.6,2-0.9,4-0.9,6c0.1,0.8,0.1,1.5,0,2.3c-0.3-0.7-0.5-1.5-0.5-2.3c-0.2-2.1,0-4.3,0.5-6.4c0.4-1.4,0.9-2.8,1.7-4.1
			c3.3-6,9.6-9.7,16.5-9.8c1,0,2,0.1,3,0.2c1,0.1,1.9,0.4,2.8,0.7c0.9,0.3,1.8,0.6,2.6,1c2.9,1.4,5.4,3.5,7.3,6.1
			c1.2,1.7,2.2,3.7,2.7,5.8C318.8,148.2,318.9,149,318.8,149.8z"/>
		<path id="Trazado_118905" class="st2" d="M304.1,163.8l0.5,3.2l-2.9,0.5l-0.5-3.1c-2.6,0.3-5.2-0.1-7.5-1.2l1-3.8
			c1.8,0.9,3.9,1.3,5.9,1.1l-0.8-4.8c-3.3-0.3-7-0.8-7.7-4.9c-0.5-3,1.3-6,5.8-7.2l-0.5-3.2l2.9-0.5l0.5,3.1
			c2.1-0.2,4.2,0.1,6.1,0.8l-0.9,3.8c-1.5-0.6-3.1-0.8-4.6-0.8l0.8,4.9c3.3,0.2,7,0.7,7.6,4.8C310.3,159.6,308.5,162.5,304.1,163.8z
			 M299.2,151.6l-0.7-4.1c-1.5,0.6-1.9,1.5-1.8,2.5C296.9,150.9,297.9,151.4,299.2,151.6L299.2,151.6z M305.3,157.7
			c-0.2-1-1.1-1.4-2.4-1.6l0.7,3.9C304.9,159.5,305.4,158.6,305.3,157.7L305.3,157.7z"/>
		<path id="Trazado_118906" class="st0" d="M287.2,83.9c1.5,10.2-5.6,19.6-15.8,21.1c-10.2,1.5-19.6-5.6-21.1-15.8
			c-1.5-10.2,5.6-19.6,15.8-21.1c4.9-0.7,9.9,0.6,13.8,3.5C283.8,74.6,286.5,79,287.2,83.9z"/>
		<path id="Trazado_118907" class="st1" d="M282.8,84.5c1.2,7.8-4.2,15-12,16.2c-7.8,1.2-15-4.2-16.2-12c-1.2-7.8,4.2-15,12-16.2
			c0,0,0,0,0,0C274.4,71.4,281.6,76.8,282.8,84.5z"/>
		<path id="Trazado_118908" class="st2" d="M282.7,84.1c-0.3-0.5-0.5-1.1-0.6-1.6c-0.5-1.5-1.3-2.8-2.2-4.1
			c-0.7-0.8-1.4-1.6-2.2-2.3c-0.9-0.8-2-1.4-3.1-1.9c-1.9-0.8-3.9-1.2-6-1.2c-0.7,0-1.5,0.1-2.2,0.2c-0.7,0.1-1.4,0.3-2.1,0.6
			c-2,0.7-3.7,1.8-5.2,3.2c-0.9,0.9-1.6,1.8-2.3,2.9c-0.5,0.9-1,1.9-1.3,2.9c-0.5,1.5-0.7,3-0.7,4.6c0.1,0.6,0.1,1.2,0,1.7
			c-0.3-0.5-0.4-1.1-0.4-1.7c-0.2-1.6,0-3.3,0.4-4.8c0.3-1.1,0.7-2.2,1.3-3.1c0.6-1.1,1.4-2.2,2.3-3.1c0.5-0.5,1-1,1.6-1.4
			c0.6-0.5,1.2-0.9,1.9-1.2c0.7-0.4,1.4-0.7,2.1-0.9c0.7-0.3,1.5-0.5,2.3-0.6c0.8-0.1,1.6-0.2,2.4-0.2c2.2,0,4.4,0.5,6.4,1.4
			c2.2,1,4.1,2.7,5.5,4.7c0.9,1.3,1.6,2.8,2,4.4C282.7,82.9,282.8,83.5,282.7,84.1z"/>
		<path id="Trazado_118909" class="st2" d="M271.5,94.7l0.4,2.4l-2.2,0.3l-0.4-2.4c-2,0.2-3.9-0.1-5.7-0.9l0.8-2.9
			c1.4,0.7,2.9,1,4.5,0.9l-0.6-3.6c-2.5-0.2-5.4-0.6-5.9-3.7c-0.4-2.3,1-4.6,4.4-5.5l-0.4-2.4l2.2-0.3L269,79
			c1.6-0.1,3.2,0.1,4.6,0.7l-0.7,2.9c-1.1-0.4-2.3-0.6-3.5-0.6l0.6,3.7c2.5,0.2,5.3,0.6,5.8,3.6C276.2,91.5,274.9,93.8,271.5,94.7z
			 M267.8,85.4l-0.5-3.1c-1.1,0.4-1.5,1.1-1.4,1.9C266,84.9,266.8,85.3,267.8,85.4L267.8,85.4z M272.4,90.1
			c-0.1-0.8-0.8-1.1-1.8-1.3l0.5,3C272.1,91.4,272.5,90.8,272.4,90.1L272.4,90.1z"/>
		<path id="Trazado_118910" class="st0" d="M145.7,217.5c-2.6,11.5-13.9,18.7-25.4,16.1c-11.5-2.6-18.7-13.9-16.1-25.4
			c2.6-11.5,13.9-18.7,25.4-16.1c0,0,0,0,0,0C141.1,194.7,148.3,206,145.7,217.5L145.7,217.5z"/>
		<path id="Trazado_118911" class="st1" d="M140.5,216.4c-1.9,8.7-10.6,14.3-19.4,12.3c-8.7-1.9-14.3-10.6-12.3-19.4
			c1.9-8.7,10.6-14.3,19.4-12.3c0,0,0,0,0,0C137,199,142.5,207.7,140.5,216.4z"/>
		<path id="Trazado_118912" class="st2" d="M140.6,215.9c-0.1-0.7-0.1-1.3,0-2c0-1.8-0.2-3.6-0.7-5.3c-0.4-1.2-0.8-2.3-1.4-3.4
			c-0.7-1.2-1.5-2.3-2.5-3.3c-0.5-0.5-1.1-1-1.7-1.5c-0.6-0.5-1.3-0.9-2-1.3c-0.7-0.4-1.5-0.7-2.2-1c-2.3-0.9-4.9-1.1-7.3-0.8
			c-0.8,0.1-1.5,0.2-2.3,0.5c-0.7,0.2-1.4,0.5-2.1,0.8c-1.3,0.6-2.5,1.3-3.6,2.1c-1,0.8-1.8,1.6-2.6,2.6c-1.1,1.4-2,2.9-2.6,4.6
			c-0.2,0.6-0.4,1.3-0.7,1.9c-0.1-0.7,0-1.4,0.3-2c0.5-1.8,1.3-3.5,2.4-5c0.8-1,1.6-2,2.6-2.8c1.1-1,2.4-1.8,3.8-2.4
			c0.7-0.4,1.5-0.7,2.3-0.9c4.3-1.2,8.9-0.7,12.8,1.5c0.7,0.4,1.4,0.9,2.1,1.4c0.6,0.5,1.2,1,1.8,1.6c1,1.1,1.9,2.3,2.6,3.6
			c0.6,1.1,1.1,2.4,1.4,3.6c0.5,1.8,0.6,3.7,0.4,5.5C141.1,214.6,140.9,215.3,140.6,215.9z"/>
		<path id="Trazado_118913" class="st2" d="M124,222.7l-0.6,2.8l-2.5-0.5l0.6-2.7c-2.2-0.5-4.2-1.7-5.7-3.3l2-2.7
			c1.2,1.3,2.7,2.2,4.4,2.8l0.9-4.1c-2.6-1.2-5.5-2.8-4.7-6.3c0.5-2.6,2.9-4.5,6.9-4.1l0.6-2.7l2.5,0.5l-0.6,2.7
			c1.7,0.5,3.4,1.3,4.7,2.6l-1.9,2.8c-1-0.9-2.2-1.6-3.5-2.1l-0.9,4.2c2.6,1.2,5.4,2.8,4.7,6.2C130.3,221.2,128,223,124,222.7z
			 M123.8,211.2l0.7-3.5c-1.4,0-2,0.7-2.2,1.4C122.2,210,122.8,210.7,123.8,211.2L123.8,211.2z M126.8,218.1
			c0.2-0.9-0.4-1.5-1.4-2.1l-0.7,3.4C126,219.4,126.7,218.9,126.8,218.1L126.8,218.1z"/>
		<path id="Trazado_118914" class="st1" d="M238.6,186.5l-17.1-10.6c-1.4-0.9-3-1.1-4.6-0.7l-42.3,12.1c-3,0.9-4.7,4-3.9,7
			c0,0,0,0,0,0.1l8.9,29.9c0.9,3,4,4.7,7,3.8c0,0,0,0,0,0l42-12.6c1.6-0.5,2.9-1.6,3.5-3.1l8.5-18.8
			C241.9,191.1,240.9,188,238.6,186.5L238.6,186.5z M232.9,193.8c-0.3,2.6-2.5,4.4-5.1,4.2c-2.6-0.3-4.4-2.5-4.2-5.1
			c0.3-2.6,2.5-4.4,5.1-4.2C231.3,189,233.2,191.2,232.9,193.8C232.9,193.8,232.9,193.8,232.9,193.8z"/>
		<path id="Trazado_118915" class="st3" d="M189.2,200.4c-1-3.6,0.5-6.6,3.7-7.5c3.1-0.9,6,0.8,7,4.4c1,3.7-0.5,6.6-3.6,7.5
			S190.3,204,189.2,200.4z M196.9,198.2c-0.7-2.3-1.9-3.2-3.2-2.8s-2,1.8-1.3,4.1c0.7,2.3,1.9,3.2,3.2,2.8
			C196.9,201.9,197.5,200.6,196.9,198.2z M205.8,189.5l3.7-1l-8.6,25.8l-3.7,1L205.8,189.5z M206.8,206.4c-1-3.6,0.5-6.6,3.6-7.5
			c3.1-0.9,6,0.8,7.1,4.4c1,3.6-0.5,6.6-3.7,7.5C210.7,211.7,207.8,210,206.8,206.4L206.8,206.4z M214.4,204.2
			c-0.7-2.3-1.9-3.2-3.2-2.8c-1.4,0.4-1.9,1.7-1.3,4.1c0.7,2.3,1.9,3.2,3.2,2.8C214.4,207.9,215,206.5,214.4,204.2L214.4,204.2z"/>
		<path id="Trazado_118916" class="st2" d="M235.7,195.8c0.2,0,0.3,0.1,0.5,0.2c0.3,0.1,0.8,0.3,1.4,0.6c0.6,0.3,1.4,0.6,2.2,1
			c0.9,0.4,1.8,0.9,2.8,1.6c1.1,0.7,2.2,1.5,3.2,2.3l0.4,0.4l0.4,0.4c0.3,0.3,0.5,0.5,0.8,0.8c0.5,0.6,0.9,1.3,1.2,2.1
			c0.1,0.4,0.2,0.8,0.2,1.3c0,0.4-0.1,0.9-0.3,1.3c-0.4,0.8-1,1.5-1.8,1.9c-0.8,0.4-1.7,0.7-2.6,0.7c-0.9,0-1.8,0-2.7-0.2
			c-1.8-0.3-3.5-1-5.1-1.9c-0.8-0.4-1.5-0.9-2.2-1.4c-0.7-0.5-1.3-1-1.9-1.5c-2.2-1.7-4.2-3.7-6-5.9c-0.4-0.5-0.7-0.9-1-1.4
			c-0.2-0.2-0.3-0.4-0.4-0.7c-0.1-0.2-0.3-0.4-0.3-0.7c-0.2-0.4-0.2-0.9-0.1-1.4c0.1-0.4,0.4-0.7,0.7-0.9c0.1-0.1,0.3-0.2,0.4-0.2
			c0.1-0.1,0.3-0.1,0.4-0.1c0.2-0.1,0.4-0.1,0.7,0c0.1,0,0.3,0,0.4,0.1l0.1,0.1h-0.1c-0.1,0-0.3-0.1-0.4-0.1c-0.2,0-0.4,0-0.6,0.1
			c-0.1,0-0.3,0.1-0.4,0.1c-0.1,0.1-0.3,0.2-0.4,0.2c-0.3,0.2-0.5,0.5-0.6,0.8c-0.1,0.4-0.1,0.8,0.1,1.2c0.1,0.2,0.2,0.4,0.3,0.7
			c0.1,0.2,0.3,0.4,0.4,0.7c0.3,0.4,0.7,0.9,1,1.3c1.8,2.1,3.8,4.1,6,5.8c0.6,0.5,1.3,1,1.9,1.5c0.7,0.5,1.4,0.9,2.1,1.3
			c1.5,0.9,3.2,1.5,4.9,1.8c0.9,0.2,1.7,0.2,2.6,0.2c0.8,0,1.7-0.3,2.4-0.7c0.7-0.4,1.3-1,1.6-1.7c0.3-0.7,0.4-1.5,0.1-2.2
			c-0.2-0.7-0.6-1.3-1.1-1.9c-0.2-0.3-0.5-0.5-0.7-0.8l-0.4-0.4l-0.4-0.4c-1-0.9-2-1.6-3.1-2.3c-1-0.7-2-1.2-2.8-1.6
			s-1.6-0.8-2.2-1.1l-1.4-0.7C235.9,196.1,235.8,196,235.7,195.8z"/>
		<path id="Trazado_118917" class="st1" d="M312.9,42.8l-4.2-11.2c-0.3-0.9-1-1.6-1.9-2l-24.4-9.6c-1.7-0.7-3.7,0.1-4.4,1.9
			c0,0,0,0,0,0.1l-6.6,17.3c-0.7,1.7,0.2,3.7,2,4.3c0,0,0,0,0,0l24.4,9.3c0.9,0.3,1.9,0.3,2.8-0.2l10.8-5.8
			C312.8,46.2,313.5,44.4,312.9,42.8L312.9,42.8z M307.6,44.2c-1.1,1.1-2.8,1.2-3.9,0.1c-1.1-1.1-1.2-2.8-0.1-3.9s2.8-1.2,3.9-0.1
			c0.5,0.5,0.8,1.2,0.9,1.9C308.3,43,308.1,43.7,307.6,44.2z"/>
		<path id="Trazado_118918" class="st3" d="M283.9,31c0.8-2.1,2.6-2.9,4.4-2.2s2.5,2.5,1.7,4.6c-0.8,2.1-2.6,2.9-4.4,2.2
			C283.8,34.8,283,33.1,283.9,31z M288.3,32.7c0.5-1.3,0.3-2.2-0.5-2.5c-0.8-0.3-1.6,0.1-2.1,1.5c-0.5,1.3-0.3,2.2,0.5,2.5
			C287,34.4,287.7,34,288.3,32.7L288.3,32.7z M295.7,31.8l2.1,0.8l-13.4,9.1l-2.1-0.8L295.7,31.8z M290,40.2
			c0.8-2.1,2.6-2.9,4.4-2.2s2.6,2.5,1.7,4.6c-0.8,2.1-2.6,2.9-4.4,2.2S289.2,42.3,290,40.2L290,40.2z M294.3,41.9
			c0.5-1.3,0.3-2.2-0.5-2.5c-0.8-0.3-1.5,0.1-2.1,1.5s-0.3,2.2,0.5,2.5C293,43.6,293.8,43.2,294.3,41.9L294.3,41.9z"/>
		<path id="Trazado_118919" class="st2" d="M146.4,5.8c0.1,0.1,0.1,0.2,0.2,0.3c0.1,0.2,0.3,0.4,0.4,0.8c0.2,0.4,0.4,0.8,0.7,1.3
			s0.5,1.1,0.8,1.8c0.3,0.7,0.5,1.5,0.7,2.2l0.1,0.3c0,0.1,0,0.2,0,0.3c0,0.2,0.1,0.4,0.1,0.7c0,0.5,0,1-0.2,1.4
			c-0.1,0.2-0.2,0.5-0.4,0.7c-0.2,0.2-0.4,0.4-0.6,0.5c-0.5,0.2-1,0.3-1.6,0.2c-0.5-0.1-1-0.3-1.5-0.6c-0.4-0.3-0.8-0.7-1.2-1.1
			c-0.7-0.8-1.3-1.7-1.7-2.7c-0.2-0.5-0.4-0.9-0.5-1.4c-0.1-0.5-0.3-0.9-0.4-1.4c-0.4-1.6-0.7-3.3-0.7-5c0-0.4,0-0.7,0-1
			c0-0.2,0-0.3,0-0.5c0-0.2,0-0.3,0.1-0.4c0.1-0.3,0.2-0.5,0.5-0.7c0.2-0.1,0.4-0.2,0.7-0.2c0.1,0,0.2,0,0.3,0c0.1,0,0.2,0,0.2,0.1
			c0.1,0.1,0.2,0.1,0.3,0.2c0.1,0.1,0.1,0.1,0.2,0.2c0,0,0,0.1,0,0.1s0,0-0.1-0.1c0-0.1-0.1-0.1-0.2-0.2c-0.1-0.1-0.2-0.1-0.3-0.2
			c-0.1,0-0.1-0.1-0.2-0.1c-0.1,0-0.2,0-0.3,0c-0.2,0-0.4,0-0.6,0.1c-0.2,0.1-0.3,0.4-0.4,0.6c0,0.1-0.1,0.3-0.1,0.4
			c0,0.2,0,0.3,0,0.5v1c0.1,1.7,0.3,3.3,0.7,4.9c0.1,0.5,0.2,0.9,0.4,1.4c0.1,0.5,0.3,0.9,0.5,1.4c0.4,1,1,1.8,1.6,2.6
			c0.4,0.4,0.8,0.7,1.2,1c0.4,0.3,0.9,0.5,1.4,0.6c0.5,0.1,0.9,0,1.4-0.2c0.4-0.2,0.7-0.6,0.9-1c0.1-0.4,0.2-0.9,0.2-1.3
			c0-0.2,0-0.4-0.1-0.7c0-0.1,0-0.2,0-0.3l-0.1-0.3c-0.1-0.8-0.3-1.5-0.6-2.2c-0.2-0.7-0.5-1.3-0.7-1.8c-0.2-0.5-0.4-1-0.6-1.3
			L146.5,6C146.4,6,146.4,5.9,146.4,5.8L146.4,5.8z"/>
	</g>
	<g id="freepik--Device--inject-2" transform="translate(41.169 66.428)">
		<path id="Trazado_118920" class="st4" d="M11.6,147.6L11.6,7.3c0-4.3,3.5-7.8,7.9-7.8l208.1,0.1c4.3,0,7.8,3.5,7.8,7.9l-0.1,140.3
			c0,4.3-3.5,7.8-7.8,7.8c0,0,0,0,0,0l-208.1-0.1C15.1,155.4,11.6,151.9,11.6,147.6z"/>
		<rect id="Rect치ngulo_29573" x="33" y="4.2" class="st3" width="186.9" height="146.1"/>
		<path id="Trazado_118921" class="st5" d="M22.9,83.4c-3.3,0-6-2.7-6-6c0-3.3,2.7-6,6-6c3.3,0,6,2.7,6,6c0,1.6-0.6,3.1-1.8,4.2
			C26,82.8,24.4,83.4,22.9,83.4z"/>
		<path id="Rect치ngulo_29574" class="st5" d="M229,55.1l0,44.8c0,0.6-0.5,1.1-1.1,1.1l-0.3,0c-0.6,0-1.1-0.5-1.1-1.1l0-44.8
			c0-0.6,0.5-1.1,1.1-1.1l0.3,0C228.5,54.1,229,54.6,229,55.1z"/>
		<path id="Trazado_118922" class="st2" d="M47,8.5h159.3c4.6,0,8.3,3.7,8.3,8.3c0,0,0,0,0,0v105.2H38.7V16.7
			C38.7,12.2,42.5,8.5,47,8.5z"/>
		<path id="Trazado_118923" class="st1" d="M201.1,130.2c0,2.1-33.9,3.8-75.6,3.8s-75.6-1.7-75.6-3.8c0-2.1,33.9-3.8,75.6-3.8
			S201.1,128.2,201.1,130.2z"/>
		<path id="Trazado_118924" class="st5" d="M200.4,20.4C200.4,20.3,200.3,20.3,200.4,20.4l-6.5-0.1h-2.4l-0.1-0.4l-0.1-0.7
			c0-0.1-0.1-0.1-0.1-0.1h-1.8c-0.1,0-0.2,0-0.2,0.1c0,0.1,0.1,0.1,0.2,0.1l1.6,0l0.9,7c0,0.1,0.1,0.1,0.1,0.1h7.2
			c0.2,0,0.2,0,0.2-0.1s-0.1-0.1-0.2-0.1l-7-0.1l-0.2-1.2l7.4,0.1l0,0c0.1,0,0.1,0,0.1-0.1l0.6-2.9L200.4,20.4
			C200.4,20.4,200.4,20.4,200.4,20.4L200.4,20.4z M191.5,20.5l8.6,0.1l-0.8,4.1h-7.2L191.5,20.5z"/>
		<path id="Trazado_118925" class="st5" d="M194,28.2c0-0.2-0.1-0.4-0.3-0.5c-0.2-0.2-0.5-0.2-0.8-0.2c-0.5,0.2-0.7,0.7-0.5,1.1
			c0.1,0.2,0.3,0.4,0.5,0.5c0.1,0,0.2,0.1,0.3,0.1c0.2,0,0.4-0.1,0.5-0.2c0.2-0.1,0.3-0.3,0.3-0.5c0-0.1,0-0.1,0-0.2
			C194,28.3,194,28.2,194,28.2z M193,28.9c-0.3-0.1-0.5-0.5-0.3-0.8c0.1-0.2,0.2-0.3,0.3-0.3c0.1,0,0.1,0,0.2,0c0.1,0,0.3,0,0.4,0.1
			c0.1,0.1,0.2,0.2,0.2,0.3v0.2c0,0,0,0.1,0,0.1c0,0.1-0.1,0.2-0.2,0.3C193.3,28.9,193.1,29,193,28.9L193,28.9z"/>
		<path id="Trazado_118926" class="st5" d="M198.7,28.2c0-0.2-0.1-0.4-0.3-0.5c-0.4-0.3-0.9-0.2-1.2,0.1c-0.3,0.4-0.2,0.9,0.1,1.2
			c0.1,0.1,0.2,0.1,0.2,0.1c0.1,0,0.2,0.1,0.3,0.1c0.4,0,0.8-0.3,0.8-0.7c0-0.1,0-0.1,0-0.2C198.7,28.4,198.7,28.3,198.7,28.2z
			 M197.7,29c-0.2-0.1-0.4-0.3-0.4-0.5c0-0.2,0.2-0.5,0.4-0.5c0.1,0,0.1,0,0.2,0c0.1,0,0.3,0,0.4,0.1c0.1,0.1,0.2,0.2,0.2,0.3v0.2
			c0,0,0,0.1,0,0.1c0,0.1-0.1,0.2-0.2,0.3C198,29,197.8,29,197.7,29L197.7,29z"/>
		<path id="Trazado_118947" class="st2" d="M179.6,115.6c0,0.1-27.7,0.2-61.9,0.2s-61.9-0.1-61.9-0.2c0-0.1,27.7-0.2,61.9-0.2
			S179.6,115.5,179.6,115.6z"/>
		<rect id="Rect치ngulo_29576" x="52.6" y="94.1" class="st6" width="146.2" height="21.4"/>
		<g id="Grupo_55148" transform="translate(46.87 108.203)" class="st7">
			<rect id="Rect치ngulo_29577" x="5.7" y="-14.1" width="146.2" height="21.4"/>
		</g>
		<path id="Trazado_118948" class="st5" d="M58.1,115.2C58,123,64.2,129.4,72,129.5c7.8,0.1,14.2-6.1,14.3-13.9s-6.1-14.2-13.9-14.3
			c0,0,0,0,0,0C64.6,101.2,58.2,107.4,58.1,115.2L58.1,115.2z"/>
		<path id="Trazado_118949" class="st5" d="M58.1,115.2C58.1,115.2,58.1,115.2,58.1,115.2C58,123,64.2,129.4,72,129.5
			c7.8,0.1,14.2-6.1,14.3-13.9v0L58.1,115.2z"/>
		<path id="Trazado_118950" class="st8" d="M62.3,115.3c-0.1,5.5,4.3,10,9.8,10c5.5,0.1,10-4.3,10-9.8c0.1-5.5-4.3-10-9.8-10
			c0,0,0,0,0,0C66.9,105.4,62.4,109.8,62.3,115.3z"/>
		<path id="Trazado_118951" class="st2" d="M72.3,105.5c-5.5-0.1-10,4.3-10,9.8l19.8,0.3C82.2,110.1,77.8,105.6,72.3,105.5z"/>
		<path id="Trazado_118952" class="st5" d="M66.2,115.3c-0.1,3.3,2.6,6.1,5.9,6.2s6.1-2.6,6.2-5.9c0.1-3.3-2.6-6.1-5.9-6.2
			c0,0,0,0,0,0C69,109.3,66.2,112,66.2,115.3z"/>
		<path id="Trazado_118953" class="st5" d="M165.9,115.2c-0.1,7.8,6.1,14.2,13.9,14.3c7.8,0.1,14.2-6.1,14.3-13.9
			c0.1-7.8-6.1-14.2-13.9-14.3c0,0,0,0,0,0C172.4,101.2,166,107.4,165.9,115.2z"/>
		<path id="Trazado_118954" class="st5" d="M165.9,115.2C165.9,115.2,165.9,115.2,165.9,115.2c-0.1,7.8,6.1,14.2,13.9,14.3
			c7.8,0.1,14.2-6.1,14.3-13.9l0,0v0L165.9,115.2z"/>
		<path id="Trazado_118955" class="st8" d="M170.1,115.3c-0.1,5.5,4.3,10,9.8,10c5.5,0.1,10-4.3,10-9.8c0.1-5.5-4.3-10-9.8-10
			C174.7,105.4,170.2,109.8,170.1,115.3C170.1,115.3,170.1,115.3,170.1,115.3z"/>
		<path id="Trazado_118956" class="st2" d="M180.1,105.5c-5.5-0.1-10,4.3-10,9.8c0,0,0,0,0,0l19.8,0.3
			C190,110.1,185.6,105.6,180.1,105.5L180.1,105.5z"/>
		<path id="Trazado_118957" class="st5" d="M174,115.3c-0.1,3.3,2.6,6.1,5.9,6.2c3.3,0.1,6.1-2.6,6.2-5.9s-2.6-6.1-5.9-6.2
			c0,0,0,0,0,0C176.8,109.3,174,112,174,115.3z"/>
		<path id="Trazado_118958" class="st9" d="M90.7,82c0,0-20.8,1.5-28.4,3.3c-5.4,1.2-15.9,3.3-15.8,9.9l0.8,4.7
			c-2.4,1.2-3.9,3.6-3.9,6.3c0,4.5-0.9,11.5,8.1,11.8c1.5,0,4.3,0,4.3,0s-1.7-19.3,16-19.8c18-0.6,16.8,19.7,16.8,19.7h75.2
			c0,0-3.1-19.7,16.3-19.7s16.4,19.9,16.4,19.9s7.1,0.6,10.5-5.4c3.3-6,2.4-10.3,2.4-10.3l-0.1-3.8c0-1.3-1.1-2.3-2.4-2.4l0,0
			c0,0,1.3-9.5-0.7-11.2c-2-1.6-12.9-11.6-12.9-11.6l0.5-0.3c0.6-0.4,0.7-1.1,0.4-1.7c-0.1-0.2-0.4-0.4-0.6-0.5
			c-4.1-1.4-12.3-4.2-14.2-4.9c-0.3-0.1-0.6-0.2-0.9-0.2c-1.1-0.1-4.4-0.3-10.4-0.4c-7.3-0.1-36.1,0-36.1,0s-9.9,0.8-15.5,3.3
			C110.8,71.2,90.7,82,90.7,82z"/>
		<g id="Grupo_55149" transform="translate(38.81 121.325)" class="st10">
			<path id="Trazado_118959" d="M9.9-15.7c-0.8-0.2-1.7-0.1-2.5,0.3c-0.4,0.4-0.6,1-0.6,1.6c-0.1,0.8-0.1,1.6,0.1,2.3
				C7-10.7,7.5-10,8.1-9.6c0.7,0.4,1.6,0.3,2.2-0.3c0.4-0.6,0.6-1.3,0.5-2c0-1,0-1.9-0.1-2.9c0-0.2-0.1-0.4-0.3-0.6
				C10.3-15.5,10.1-15.7,9.9-15.7"/>
		</g>
		<path id="Trazado_118960" class="st8" d="M47.3,99.9c2.2,0,4.3-0.1,6.6-0.3c0.2,0,0.5-0.1,0.7-0.2c0.2-0.2,0.3-0.5,0.2-0.8
			c0-1.2-0.1-2.5-0.9-3.3c-0.6-0.4-1.3-0.7-2-0.7c-1.8-0.2-3.6,0-5.3,0.5L47.3,99.9z"/>
		<path id="Trazado_118961" class="st3" d="M93.1,117.2c0-0.1,0-0.1,0-0.2l0-0.6c0-0.5-0.1-1.2-0.1-2.1s-0.1-2.1-0.3-3.4
			c-0.1-1.5-0.4-2.9-0.8-4.4c-0.5-1.7-1.2-3.4-2.1-4.9c-1-1.8-2.4-3.4-4.1-4.6c-4-2.6-8.6-4-13.4-4c-4.8-0.1-9.4,1.4-13.3,4.2
			c-1.7,1.2-3.1,2.7-4.3,4.4c-1,1.5-1.9,3.1-2.5,4.7c-0.5,1.4-0.9,2.8-1.1,4.3c-0.1,1.1-0.2,2.2-0.1,3.4c0,0.7,0.1,1.4,0.3,2.1
			c0,0.2,0.1,0.4,0.1,0.5c0,0.1,0,0.1,0,0.2l0-0.2c0-0.2-0.1-0.4-0.1-0.5c-0.1-0.7-0.2-1.4-0.3-2.1c-0.1-1.1,0-2.3,0.1-3.4
			c0.2-1.5,0.5-2.9,1-4.3c0.6-1.7,1.5-3.3,2.5-4.8c1.2-1.7,2.7-3.2,4.3-4.4c3.9-2.8,8.6-4.3,13.4-4.2c4.8,0,9.5,1.4,13.5,4.1
			c1.7,1.2,3.1,2.8,4.1,4.6c0.9,1.6,1.6,3.2,2.1,5c0.4,1.4,0.6,2.9,0.8,4.4c0.1,1.3,0.2,2.4,0.2,3.4c0,0.9,0.1,1.6,0.1,2.1v0.6
			C93,117.1,93,117.1,93.1,117.2z"/>
		<path id="Trazado_118962" class="st5" d="M93.9,117.5c0-0.1,0-0.1,0-0.2v-0.5c0-0.4,0-1-0.1-1.8c0-1.6-0.1-3.9-0.2-6.9
			c-0.1-3-0.2-6.6-0.3-10.7c0-1-0.1-2.1-0.1-3.2c0-0.6,0-1.1,0.1-1.7l0.1-0.8l0.2-0.9c0.6-2.4,1.6-4.6,3.1-6.6l0,0l13-8.2l3.5-2.2
			c1.2-0.8,2.4-1.5,3.7-2.1c1.3-0.6,2.7-1.2,4-1.6c0.7-0.2,1.4-0.4,2.1-0.7c0.7-0.2,1.4-0.4,2.2-0.5c2.8-0.6,5.6-1,8.4-1.1
			c2.8-0.1,5.5-0.1,8.1,0h0.1V68c-1.2,5.6-2.4,10.8-3.5,15.7l0,0c-0.6,1.1-1.2,2.2-1.6,3.4c-0.4,1.1-0.6,2.3-0.5,3.5
			c0.1,1.2,0.1,2.3,0.2,3.4s0,2.2,0.1,3.2c0.1,4.1,0.1,7.7,0.1,10.7c0,3,0,5.3,0,6.9v2.3c0,0.1,0,0.1,0,0.2c0,0,0-0.1,0-0.2v-2.3
			c0-1.6,0-3.9,0-6.9c0-3,0-6.6-0.1-10.7c0-1,0-2.1-0.1-3.2c0-1.1-0.1-2.2-0.2-3.4c0-1.2,0.1-2.4,0.5-3.5c0.4-1.2,0.9-2.3,1.6-3.4
			l0,0c1.1-4.8,2.2-10.1,3.5-15.7l0.1,0.1c-2.7-0.1-5.4-0.1-8.1,0c-2.8,0.1-5.6,0.5-8.4,1.1c-0.7,0.1-1.4,0.3-2.2,0.5
			c-0.7,0.2-1.4,0.4-2.1,0.7c-1.4,0.5-2.7,1-4,1.6c-1.3,0.6-2.5,1.3-3.7,2.1l-3.6,2.2l-13,8.2l0,0c-1.5,1.9-2.5,4.2-3.1,6.5
			c-0.6,2.3-0.3,4.5-0.3,6.6c0.1,4.1,0.2,7.7,0.3,10.7c0.1,3,0.1,5.3,0.2,6.9c0,0.8,0,1.4,0,1.8L93.9,117.5L93.9,117.5z"/>
		<path id="Trazado_118963" class="st5" d="M141.7,68.4h0.5l1.4,0l5.2-0.1l17.5-0.3h0l2.4,3l7,8.6c0.3,0.3,0.5,0.7,0.8,1
			c1.2,1.6,1.5,3.7,0.8,5.5c-0.3,0.7-0.5,1.3-0.8,1.9l-2.4,5.6l-0.7,1.5c-0.1,0.2-0.1,0.3-0.2,0.4c0,0,0,0.1-0.1,0.1l0.1-0.1
			l0.2-0.4c0.2-0.4,0.4-0.9,0.7-1.5l2.4-5.6c0.5-1.2,1.3-2.4,1.2-3.9c0-0.8-0.2-1.5-0.5-2.2c-0.2-0.4-0.4-0.7-0.7-1l-0.8-1l-7-8.5
			l-2.4-3h0.1l-17.5,0.3l-5.2,0.1L141.7,68.4L141.7,68.4z"/>
		<path id="Trazado_118964" class="st5" d="M132.9,91.7h0.2c0.2,0,0.4-0.1,0.6-0.2c0.3-0.2,0.5-0.4,0.6-0.7c0.1-0.2,0.1-0.4,0.1-0.6
			c0-0.2-0.1-0.5-0.2-0.7c-0.2-0.4-0.7-0.7-1.2-0.7H127c-0.7,0-1.3,0.5-1.4,1.2c0,0.3,0,0.6,0.2,0.9c0.1,0.3,0.4,0.5,0.7,0.6
			c0.3,0.1,0.6,0.1,0.9,0.1L132.9,91.7c-0.1-0.1-0.2-0.1-0.2-0.1h-5.7c-0.2,0-0.3,0-0.5-0.1c-0.3-0.1-0.6-0.4-0.7-0.7
			c-0.2-0.3-0.2-0.7-0.2-1c0.1-0.8,0.7-1.3,1.5-1.3h5.8c0.8,0,1.5,0.7,1.5,1.5c0,0.2,0,0.4-0.1,0.6c-0.1,0.3-0.3,0.6-0.6,0.8
			c-0.2,0.1-0.4,0.2-0.6,0.2C133,91.6,132.9,91.6,132.9,91.7z"/>
		<path id="Trazado_118965" class="st5" d="M171.8,91.7h0.2c0.2,0,0.4-0.1,0.6-0.2c0.3-0.2,0.5-0.4,0.6-0.7c0.1-0.2,0.1-0.4,0.1-0.6
			c0-0.2-0.1-0.5-0.2-0.7c-0.2-0.4-0.7-0.7-1.2-0.7H166c-0.3,0-0.7,0.1-0.9,0.4c-0.2,0.2-0.4,0.5-0.4,0.9c0,0.3,0,0.6,0.2,0.9
			c0.1,0.3,0.4,0.5,0.7,0.6c0.3,0.1,0.6,0.1,0.9,0.1L171.8,91.7c-0.1-0.1-0.1-0.1-0.2-0.1h-5.7c-0.2,0-0.3,0-0.5-0.1
			c-0.3-0.1-0.6-0.4-0.7-0.7c-0.2-0.3-0.2-0.7-0.2-1c0-0.4,0.2-0.7,0.5-0.9c0.3-0.3,0.6-0.4,1-0.4h5.9c0.8,0,1.5,0.7,1.5,1.5
			c0,0.2,0,0.4-0.1,0.6c-0.1,0.3-0.3,0.6-0.6,0.8c-0.2,0.1-0.4,0.2-0.6,0.2C172,91.6,171.9,91.6,171.8,91.7L171.8,91.7z"/>
		<path id="Trazado_118966" class="st8" d="M206,85.3h-7.8c-1.1,0-2,0.6-2.5,1.5l0,0c-0.4,0.8-0.4,1.7-0.1,2.5l3.1,6.9l7.8-0.1
			C206.4,96.2,208.1,87.4,206,85.3z"/>
		<path id="Trazado_118967" class="st5" d="M97.7,84.3l40.2-0.7l26.2-0.5l8.6-5c0.6-0.3,0.9-1.1,0.5-1.8c0-0.1-0.1-0.1-0.1-0.2
			l-5.4-7.1c-0.6-0.7-1.4-1.2-2.4-1.2l-29.3-0.2c0,0-11-0.7-19.7,4.2C109.9,75.7,103.7,79.8,97.7,84.3L97.7,84.3z"/>
		<path id="Trazado_118968" class="st4" d="M116.4,68.7c0,0,1.7,0.7,0.4,1.5c-1.3,0.8-21.7,13.7-21.7,13.7L90.7,82
			C99,77.4,107.5,72.9,116.4,68.7z"/>
		<path id="Trazado_118969" class="st5" d="M95.8,84.2h-0.1l-0.4,0.1l-1.4,0.3c-1.2,0.2-3,0.6-5.3,1c-4.5,0.8-10.7,1.7-17.6,2.3
			c-1.7,0.2-3.4,0.3-5,0.4c-1.6,0.1-3.2,0.2-4.7,0.3c-2.6,0.2-5.3,0.6-7.8,1.3c-1.7,0.5-3.4,1.2-4.9,2.1c-0.6,0.3-1,0.6-1.2,0.8
			L47,92.9l-0.1,0.1l0.1-0.1l0.3-0.2c0.4-0.3,0.8-0.5,1.2-0.8c1.6-0.9,3.2-1.6,4.9-2.1c2.6-0.7,5.2-1.2,7.8-1.4
			c1.5-0.1,3.1-0.2,4.7-0.4c1.6-0.1,3.3-0.2,5-0.4c6.9-0.6,13.1-1.5,17.6-2.2c2.2-0.4,4-0.7,5.3-0.9l1.4-0.3l0.4-0.1L95.8,84.2z"/>
		<path id="Trazado_118970" class="st5" d="M209.1,102.2c0,0-2.7,0.1-6,0.1c-3.3,0-6,0-6-0.1s2.7-0.1,6-0.1
			C206.4,102.1,209.1,102.2,209.1,102.2z"/>
		<path id="Trazado_118971" class="st5" d="M160.1,109c0,0-15.1,0.1-33.8,0.1s-33.8,0-33.8-0.1s15.1-0.1,33.8-0.1
			S160.1,109,160.1,109z"/>
		<path id="Trazado_118972" class="st5" d="M54.1,102.4c0,0-2.1,0.1-4.8,0.1c-2.6,0-4.8,0-4.8-0.1c0,0,2.1-0.1,4.8-0.1
			S54.1,102.4,54.1,102.4z"/>
		<path id="Trazado_118973" class="st4" d="M193.3,73c0,0-1.8,2-1.1,3.5c0.7,1.5,8,6.6,8,6.6l5.3,1L193.3,73z"/>
		<path id="Trazado_118974" class="st4" d="M142.9,69.4l-1.2,12.9l21.3-0.6l8.6-5l-5.6-7.3L142.9,69.4z"/>
		<path id="Trazado_118975" class="st4" d="M102.7,83c0,0,12.9-9.3,17.9-11.2c3.8-1.5,7.9-2.3,12-2.4c4.4-0.1,7.1,0,7.1,0l-3.4,13.1
			L102.7,83z"/>
		<path id="Trazado_118976" class="st11" d="M100.9,83L100.9,83c0-0.8,0.4-1.6,1.1-2l3-1.7c0.8-0.5,1.8-0.7,2.8-0.7l0,0
			c0.6,0,1.2,0.1,1.8,0.3c1.3,0.4,2.1,1.6,2.2,2.9l0,0c0.1,1.8-1.4,3.3-3.2,3.4c0,0-0.1,0-0.1,0h-5.3
			C101.9,85.2,100.9,84.2,100.9,83L100.9,83z"/>
		<path id="Trazado_118977" class="st5" d="M100.9,83c0,0.1,0,0.2,0,0.3c0,0.3,0.1,0.5,0.3,0.8c0.2,0.4,0.5,0.7,0.9,0.9
			c0.2,0.1,0.5,0.2,0.8,0.2h5.4c0.4,0,0.9-0.1,1.3-0.2c0.4-0.2,0.8-0.4,1.1-0.7c0.3-0.3,0.6-0.7,0.8-1.1c0.2-0.4,0.2-0.9,0.2-1.4
			c-0.1-0.9-0.5-1.8-1.3-2.4c-0.4-0.2-0.8-0.4-1.2-0.5c-0.4-0.1-0.9-0.2-1.3-0.2c-0.8,0-1.6,0.2-2.3,0.5c-0.3,0.2-0.7,0.3-1,0.5
			l-0.9,0.5l-1.5,0.8c-0.4,0.2-0.7,0.5-0.9,0.9c-0.1,0.2-0.2,0.5-0.3,0.8C100.9,82.8,100.9,82.9,100.9,83c0-0.1,0-0.2,0-0.3
			c0-0.3,0.1-0.5,0.2-0.8c0.2-0.4,0.5-0.7,0.9-0.9l1.5-0.9l0.9-0.5c0.3-0.2,0.6-0.4,1-0.5c0.7-0.3,1.5-0.5,2.4-0.5
			c0.4,0,0.9,0,1.3,0.1c0.5,0.1,0.9,0.3,1.3,0.5c0.8,0.6,1.3,1.5,1.4,2.5c0,0.5,0,1-0.2,1.5c-0.2,0.4-0.4,0.9-0.8,1.2
			c-0.3,0.3-0.7,0.6-1.2,0.7c-0.4,0.1-0.9,0.2-1.3,0.2h-4.5c-0.3,0-0.6,0-0.9,0c-0.3,0-0.5-0.1-0.8-0.3c-0.4-0.2-0.7-0.5-0.9-0.9
			c-0.1-0.2-0.2-0.5-0.2-0.8C100.8,83.2,100.9,83.1,100.9,83L100.9,83z"/>
		<path id="Trazado_118978" class="st3" d="M200,117.3v-0.7c0-0.2,0-0.5,0.1-0.9c0-0.3,0-0.7,0-1.2c0-0.4,0-0.9,0-1.5
			c0-0.6,0-1.2-0.1-1.8c-0.1-1.4-0.4-2.9-0.8-4.2c-0.2-0.8-0.5-1.6-0.8-2.4c-1.1-2.7-3-5-5.4-6.7c-1.8-1.3-3.8-2.3-5.9-2.9
			c-2.3-0.6-4.6-1-7-0.9c-2.4,0-4.7,0.3-7,1c-1.1,0.3-2.1,0.8-3.1,1.3c-1,0.5-1.9,1.1-2.7,1.8c-1.6,1.2-3,2.7-4.2,4.3
			c-0.5,0.7-1,1.5-1.4,2.3c-0.4,0.8-0.7,1.6-1,2.3c-0.8,2.4-1.4,4.9-1.5,7.4c0,0.7,0,1.4,0,2.1v0.5c0-0.2,0-0.4,0-0.5
			c0-0.5,0-1.2,0-2.1c0.1-2.5,0.6-5,1.5-7.4c0.3-0.8,0.6-1.6,1-2.3c0.4-0.8,0.9-1.6,1.4-2.3c1.2-1.6,2.6-3.1,4.2-4.3
			c0.9-0.7,1.8-1.3,2.7-1.8c1-0.5,2.1-1,3.1-1.3c2.3-0.7,4.7-1.1,7-1.1c2.4,0,4.8,0.3,7.1,0.9c2.1,0.6,4.1,1.6,5.9,2.9
			c0.8,0.6,1.6,1.3,2.3,2c0.7,0.7,1.3,1.5,1.8,2.3c0.5,0.8,0.9,1.6,1.3,2.4c0.3,0.8,0.6,1.6,0.8,2.4c0.4,1.4,0.6,2.8,0.7,4.3
			c0.1,0.7,0.1,1.2,0.1,1.8c0,0.5,0,1,0,1.5c0,0.4,0,0.8-0.1,1.2c0,0.3-0.1,0.7-0.1,0.9s0,0.4-0.1,0.5L200,117.3z"/>
		<path id="Trazado_118979" class="st3" d="M135.8,84.3h-0.9l-2.5,0c-2.1,0-5.1,0.1-8.3,0.2c-3.3,0.1-6.2,0.2-8.3,0.2h-2.5l2.5,0
			c2.1,0,5.1-0.1,8.3-0.2s6.2-0.2,8.3-0.2L135.8,84.3L135.8,84.3z"/>
		<path id="Trazado_118980" class="st3" d="M132.4,88.3c-1.5,0.1-3.1,0.1-4.6,0C129.3,88.2,130.8,88.2,132.4,88.3z"/>
		<path id="Trazado_118981" class="st3" d="M133.2,74.2c0,0-2.9,1.2-6.4,2.6s-6.4,2.6-6.5,2.5c0,0,2.8-1.2,6.4-2.7
			C130.3,75.3,133.2,74.1,133.2,74.2z"/>
		<path id="Trazado_118982" class="st3" d="M127.4,75.1c0,0-2.7,1.2-6.1,2.7s-6.1,2.6-6.1,2.6c0,0,2.7-1.2,6.1-2.7
			C124.6,76.2,127.4,75,127.4,75.1z"/>
		<path id="Trazado_118983" class="st3" d="M164.2,73.7c0,0-2.9,1.2-6.4,2.7c-3.5,1.4-6.4,2.6-6.5,2.5c0,0,2.8-1.2,6.4-2.7
			C161.3,74.8,164.2,73.6,164.2,73.7z"/>
		<path id="Trazado_118984" class="st3" d="M158.4,74.6c0,0-2.7,1.2-6.1,2.7c-3.4,1.4-6.1,2.6-6.1,2.6c0,0,2.7-1.2,6.1-2.7
			C155.6,75.7,158.4,74.5,158.4,74.6z"/>
		<path id="Trazado_118985" class="st3" d="M164.8,84.3c0,0-5.7,0.1-12.7,0.1s-12.7,0-12.7,0c0,0,5.7-0.1,12.7-0.1
			C159.1,84.3,164.8,84.3,164.8,84.3z"/>
		<path id="Trazado_118986" class="st3" d="M171.1,88.1c0,0-1.6,0.1-3.6,0.1c-2,0-3.6,0-3.6,0s1.6-0.1,3.6-0.1
			C168.7,88,169.9,88,171.1,88.1z"/>
		<path id="Trazado_118987" class="st3" d="M62,86.1h-0.2l-0.4,0.1c-0.2,0-0.5,0-0.7,0.1c-0.3,0-0.6,0.1-0.9,0.2
			c-0.7,0.1-1.5,0.3-2.4,0.5c-1,0.3-1.9,0.6-2.8,0.9c-0.9,0.4-1.8,0.8-2.7,1.2c-0.8,0.4-1.5,0.9-2.1,1.2c-0.3,0.2-0.6,0.4-0.8,0.5
			c-0.2,0.2-0.4,0.3-0.6,0.4l-0.4,0.3l-0.1,0.1c0,0,0.1-0.1,0.1-0.1l0.3-0.3c0.2-0.1,0.3-0.3,0.6-0.4c0.2-0.2,0.5-0.3,0.8-0.5
			c0.6-0.4,1.3-0.8,2.1-1.3c0.9-0.5,1.8-0.9,2.7-1.3c0.9-0.4,1.9-0.7,2.9-0.9c0.9-0.2,1.7-0.4,2.4-0.5c0.3-0.1,0.7-0.1,0.9-0.1
			c0.3,0,0.5-0.1,0.7-0.1h0.5C61.9,86.1,61.9,86.1,62,86.1z"/>
		<path id="Trazado_118988" class="st3" d="M109,79.9c-0.1-0.1-0.2-0.2-0.3-0.3c-0.3-0.2-0.6-0.3-0.9-0.3c-0.5,0-1,0-1.4,0.2
			c-1.6,0.4-3.1,1.2-4.4,2.2c-0.6,0.5-1,0.9-1,0.9c0.1-0.1,0.1-0.2,0.2-0.3c0.2-0.2,0.4-0.5,0.7-0.7c0.8-0.7,1.7-1.3,2.7-1.7
			c0.5-0.2,1.1-0.4,1.7-0.6c0.5-0.1,1-0.2,1.4-0.1c0.3,0,0.6,0.2,0.9,0.4C108.9,79.7,108.9,79.8,109,79.9
			C109,79.9,109,79.9,109,79.9z"/>
		<path id="Trazado_118989" class="st5" d="M193.9,72.9c-0.4,0.1-0.7,0.1-1.1,0.1c-0.4,0-0.9-0.1-1.3-0.2c-0.6-0.1-1.1-0.3-1.7-0.5
			c-0.6-0.2-1.3-0.5-2-0.8l-1.1-0.4c-0.4-0.1-0.8-0.3-1.2-0.4c-1.8-0.6-3.6-1.1-5.4-1.5c-3.3-0.7-6.7-1.1-10-1.2
			c-0.7,0-1.2,0-1.7-0.1h-2.2l0.8,0h3.1c3.4,0.1,6.7,0.5,10.1,1.2c1.8,0.4,3.6,0.9,5.4,1.5c0.4,0.2,0.8,0.3,1.2,0.4l1.1,0.5
			c0.7,0.3,1.3,0.6,2,0.8c0.5,0.2,1.1,0.4,1.7,0.5c0.4,0.1,0.9,0.2,1.3,0.2c0.3,0,0.6,0,0.8,0L193.9,72.9L193.9,72.9z"/>
		<circle id="Elipse_4124" class="st1" cx="125.5" cy="141.8" r="6.8"/>
		<path id="Trazado_118990" class="st5" d="M125.7,144.7c-0.1,0-0.2,0-0.3-0.1l-3.4-4c-0.1-0.1-0.1-0.3,0-0.5c0.1-0.1,0.3-0.1,0.5,0
			c0,0,0,0,0,0l3.2,3.7l2.8-3.7c0.1-0.2,0.3-0.2,0.5-0.1c0.2,0.1,0.2,0.3,0.1,0.5c0,0,0,0,0,0l-3.1,4
			C125.9,144.7,125.8,144.7,125.7,144.7L125.7,144.7z"/>
	</g>
	<g id="freepik--Character--inject-2" transform="translate(41.185 66.428)">
		<path id="Trazado_118991" class="st4" d="M53.8,201.6l-0.4,11.5c0,0,11.6,4.3,11.7,6.4H42.7l-0.1-18L53.8,201.6z"/>
		<path id="Trazado_118992" class="st2" d="M46.5,212.1c-0.5,0.1-0.7,0.6-0.7,1c0.1,0.5,0.6,0.8,1,0.7c0.5-0.2,0.8-0.6,0.7-1.1
			c-0.2-0.5-0.7-0.7-1.1-0.5"/>
		<path id="Trazado_118993" class="st5" d="M42.7,219.5l0.1-1.8l21.4,0.7c0,0,1,0.4,0.9,1.1L42.7,219.5z"/>
		<path id="Trazado_118994" class="st3" d="M53.7,213c0,0.1-0.6,0.2-1.1,0.5c-0.5,0.3-0.8,0.8-0.9,0.8c-0.1,0,0.1-0.7,0.7-1.1
			S53.8,212.9,53.7,213z"/>
		<path id="Trazado_118995" class="st3" d="M56.1,214c0,0.1-0.4,0.3-0.8,0.7s-0.5,1-0.6,0.9c-0.1,0-0.2-0.6,0.3-1.2
			S56.1,213.9,56.1,214z"/>
		<path id="Trazado_118996" class="st3" d="M57.4,216.8c-0.1,0-0.3-0.5,0-1.1c0.3-0.6,0.8-0.8,0.8-0.7c0,0.1-0.3,0.4-0.5,0.9
			C57.5,216.3,57.5,216.8,57.4,216.8z"/>
		<path id="Trazado_118997" class="st3" d="M53.5,210.3c0,0.1-0.5-0.1-1.2,0s-1.1,0.2-1.2,0.1s0.4-0.5,1.1-0.5
			C53.1,209.9,53.6,210.3,53.5,210.3z"/>
		<path id="Trazado_118998" class="st4" d="M28.1,202.6l-0.9,13.9l2.5,11.2c0.2,0.8-0.3,1.5-1.1,1.7c0,0-0.1,0-0.1,0l0,0
			c-0.5,0.1-0.9-0.1-1.2-0.4c-2-2.1-9.5-10-9.4-11c0.1-1.2,0-14.7,0-14.7L28.1,202.6z"/>
		<path id="Trazado_118999" class="st5" d="M28.5,229.5l-10.6-12.4v0.6c0,0.5,0.1,1,0.5,1.4c0.8,1.1,3.2,4,8.9,9.9
			C27.6,229.4,28.1,229.6,28.5,229.5L28.5,229.5z"/>
		<g id="Grupo_55150" transform="translate(9.282 243.75)" class="st12">
			<path id="Trazado_119000" class="st3" d="M11.7-31c0.3,0.3,0.4,0.8,0.2,1.1c-0.3,0.4-0.8,0.4-1.1,0.2c-0.4-0.3-0.5-0.8-0.2-1.2
				C10.9-31.2,11.4-31.2,11.7-31"/>
		</g>
		<path id="Trazado_119001" class="st3" d="M25.6,223.3c0.4-0.4,0.8-0.8,1.3-1c0.5-0.2,1.1-0.3,1.6-0.2c0,0-0.2-0.2-0.5-0.2
			c-0.9-0.1-1.7,0.3-2.2,1C25.6,223.1,25.6,223.3,25.6,223.3z"/>
		<path id="Trazado_119002" class="st3" d="M26.5,225.1c0.4-0.2,0.8-0.4,1.3-0.5c0.5-0.1,0.9-0.1,1.4-0.1c-0.4-0.3-1-0.3-1.4-0.2
			C27.2,224.4,26.8,224.7,26.5,225.1z"/>
		<path id="Trazado_119003" class="st3" d="M23.8,220.8c0.6-0.4,1.2-0.7,1.9-1c0.7-0.2,1.4-0.3,2.1-0.4
			C26.3,219.1,24.8,219.6,23.8,220.8L23.8,220.8z"/>
		<path id="Trazado_119004" class="st3" d="M23.8,216.5c0,0.1,0.8-0.2,1.8-0.2s1.8,0.3,1.8,0.2C26.3,215.9,24.9,215.9,23.8,216.5
			L23.8,216.5z"/>
		<path id="Trazado_119005" class="st3" d="M23.9,212.4c0.6-0.2,1.3-0.3,1.9-0.3c0.6,0.1,1.3,0.3,1.8,0.5c-0.1-0.2-0.3-0.3-0.4-0.4
			c-0.8-0.5-1.9-0.6-2.8-0.2C24.1,212.3,23.9,212.4,23.9,212.4z"/>
		<path id="Trazado_119006" class="st3" d="M25.8,211.4c0.1-0.2,0.1-0.3,0-0.5c0-0.5-0.1-1-0.4-1.4c-0.1-0.3-0.4-0.6-0.7-0.8
			c-0.2-0.1-0.5-0.1-0.7,0.1c-0.2,0.2-0.3,0.4-0.3,0.7c0,1,0.7,1.8,1.7,1.9c0.9,0.1,1.9-0.3,2.4-1.1c0.1-0.2,0.1-0.4,0.1-0.7
			c-0.1-0.2-0.3-0.4-0.6-0.3c-0.3,0.1-0.7,0.2-0.9,0.4c-0.4,0.3-0.7,0.6-1,1c-0.1,0.1-0.2,0.3-0.2,0.5c0.4-0.5,0.8-0.9,1.4-1.3
			c0.2-0.2,0.5-0.3,0.8-0.4c0.1,0,0.3,0.1,0.3,0.2c0,0.1,0,0.3-0.1,0.4c-0.4,0.7-1.2,1.1-2,1c-0.8-0.1-1.4-0.8-1.5-1.6
			c0-0.2,0.1-0.3,0.2-0.4c0.1-0.1,0.2-0.1,0.4-0.1c0.3,0.2,0.5,0.4,0.6,0.7C25.6,210.2,25.7,210.8,25.8,211.4z"/>
		<path id="Trazado_119007" class="st5" d="M63.6,104.2c1.2,4.8,1.7,9.7,1.4,14.6c-0.2,3.1-10.1,92.7-10.1,92.7l-12.7-1.1l2.2-83.8
			l-0.5,0.5c0,0-7.5,35.2-8,40.8c-0.4,5-6.5,45.2-6.5,45.2l-12.3-0.6l2.8-50.9l3.7-46.2l1.5-13.4L63.6,104.2z"/>
		<path id="Trazado_119008" class="st4" d="M42,119.3c0.2,0.1,0.4,0.2,0.6,0.3c0.6,0.3,1.1,0.5,1.8,0.6c0.4,0.1,0.9,0.1,1.3,0
			c0.5-0.1,0.9-0.3,1.3-0.7c0.4-0.4,0.7-0.9,0.8-1.5c0.2-0.6,0.2-1.1,0.3-1.7c0.4-2.3,0.7-4.5,0.8-6c0.1-0.8,0.1-1.4,0.1-1.8
			c0-0.2,0-0.4,0-0.7c-0.1,0.2-0.1,0.4-0.1,0.7c-0.1,0.5-0.1,1.1-0.2,1.8c-0.2,1.5-0.5,3.7-0.9,6c-0.2,1.1-0.3,2.3-1,3
			c-0.7,0.6-1.6,0.8-2.4,0.7c-0.6-0.1-1.2-0.2-1.7-0.5C42.4,119.4,42.2,119.3,42,119.3z"/>
		<path id="Trazado_119009" class="st4" d="M46,108.3c-0.1-0.1-0.2-0.1-0.3-0.1c-0.3,0-0.6,0.1-0.8,0.3c-0.6,0.4-0.7,1.3-0.3,1.9
			c0.4,0.6,1.3,0.7,1.9,0.3c0.5-0.3,0.7-0.9,0.5-1.5c-0.1-0.3-0.2-0.5-0.4-0.7c-0.2-0.1-0.3-0.1-0.3-0.1c0.3,0.2,0.4,0.5,0.5,0.9
			c0.1,0.3,0,0.7-0.2,1c-0.3,0.3-0.8,0.4-1.2,0.3c-0.4-0.1-0.7-0.5-0.7-0.9c0-0.4,0.2-0.7,0.4-0.9C45.3,108.4,45.6,108.3,46,108.3
			L46,108.3z"/>
		<path id="Trazado_119010" class="st4" d="M23.8,114.6c0.2,0,0.3,0.1,0.5,0.1c0.4,0,0.9,0,1.3,0c1.5-0.1,2.9-0.5,4.2-1.1
			c1.3-0.6,2.6-1.4,3.6-2.4c0.3-0.3,0.6-0.6,0.9-1c0.1-0.1,0.2-0.3,0.3-0.4c0,0-0.5,0.5-1.3,1.2c-2.2,1.9-4.9,3.1-7.7,3.5
			C24.4,114.6,23.8,114.5,23.8,114.6z"/>
		<path id="Trazado_119011" class="st4" d="M57.9,108.2c0.2,0.5,0.4,1,0.8,1.4c1.4,2.2,3.4,4,5.7,5.3c0.5,0.3,1,0.5,1.5,0.7
			c-0.4-0.3-0.9-0.6-1.4-0.8c-1.1-0.7-2.1-1.5-3.1-2.3c-0.9-0.9-1.8-1.8-2.5-2.9C58.6,109.1,58.2,108.7,57.9,108.2L57.9,108.2z"/>
		<path id="Trazado_119012" class="st13" d="M55.3,13.9c-0.9-5.7-6-9.8-11.8-9.4l-0.6,0C36.8,5.3,34,11,35,17.1l2.1,21.7l0.1,4.5
			l14.6,1.3l-0.3-9.5c0,0,5.9-1.4,5.5-7.3C56.9,25.1,56.1,19.2,55.3,13.9z"/>
		<path id="Trazado_119013" class="st14" d="M51.6,35.2c-2.8,0.2-5.5-0.4-7.9-1.7c0,0,2.1,4.1,8,3.2L51.6,35.2z"/>
		<path id="Trazado_119014" class="st5" d="M54.4,19.4c0,0.5-0.3,0.9-0.8,0.9c-0.4,0.1-0.9-0.2-0.9-0.7c0,0,0,0,0,0
			c0-0.5,0.3-0.9,0.8-0.9C53.9,18.6,54.3,18.9,54.4,19.4C54.4,19.4,54.4,19.4,54.4,19.4L54.4,19.4z"/>
		<path id="Trazado_119015" class="st5" d="M54.2,16.9c-0.1,0.1-0.8-0.3-1.7-0.2c-0.9,0.1-1.6,0.6-1.7,0.5s0-0.3,0.3-0.5
			c0.4-0.3,0.8-0.5,1.3-0.5c0.5,0,0.9,0.1,1.4,0.3C54.1,16.6,54.2,16.8,54.2,16.9z"/>
		<path id="Trazado_119016" class="st5" d="M45.8,20.4c0,0.5-0.3,0.9-0.8,0.9c-0.4,0.1-0.9-0.2-0.9-0.7c0,0,0,0,0,0
			c0-0.5,0.3-0.9,0.8-0.9C45.3,19.6,45.7,19.9,45.8,20.4C45.8,20.4,45.8,20.4,45.8,20.4z"/>
		<path id="Trazado_119017" class="st5" d="M45.2,17.7c-0.1,0.1-0.8-0.3-1.7-0.2c-0.9,0.1-1.5,0.6-1.7,0.5c-0.1-0.1,0-0.3,0.3-0.5
			c0.4-0.3,0.8-0.5,1.3-0.5c0.5,0,0.9,0.1,1.3,0.3C45.2,17.4,45.3,17.6,45.2,17.7z"/>
		<path id="Trazado_119018" class="st5" d="M49,24.2c0.5-0.2,1-0.3,1.5-0.4c0.2,0,0.4-0.1,0.5-0.3c0-0.2-0.1-0.5-0.2-0.7
			c-0.3-0.5-0.5-1.1-0.8-1.7c-0.7-1.5-1.4-3-1.9-4.5c0.9,1.4,1.6,2.9,2.2,4.4l0.8,1.7c0.2,0.3,0.2,0.6,0.2,0.9
			c-0.1,0.2-0.2,0.3-0.4,0.4c-0.1,0-0.2,0.1-0.4,0.1C50.1,24.2,49.6,24.3,49,24.2L49,24.2z"/>
		<path id="Trazado_119019" class="st5" d="M46.4,25c0.2,0,0.2,1,1.1,1.6s2,0.5,2,0.6s-0.2,0.2-0.7,0.3c-0.6,0.1-1.2-0.1-1.6-0.4
			c-0.5-0.3-0.8-0.8-0.9-1.4C46.2,25.3,46.3,25,46.4,25z"/>
		<path id="Trazado_119020" class="st5" d="M45.2,14.1c-0.1,0.3-1,0.2-2,0.4c-1.1,0.2-1.9,0.6-2.1,0.3c-0.1-0.1,0.1-0.3,0.4-0.6
			c0.4-0.3,1-0.6,1.5-0.7c0.5-0.1,1.1-0.1,1.6,0.1C45,13.8,45.2,14,45.2,14.1z"/>
		<path id="Trazado_119021" class="st5" d="M53.7,14.3c-0.1,0.2-0.8,0-1.5,0.1c-0.8,0-1.4,0.2-1.6,0c-0.1-0.1,0-0.3,0.3-0.5
			c0.4-0.3,0.8-0.4,1.2-0.4c0.4,0,0.9,0.1,1.3,0.3C53.6,13.9,53.7,14.1,53.7,14.3z"/>
		<path id="Trazado_119022" class="st13" d="M36.4,22.9c-0.1-0.9-0.9-1.5-1.8-1.4c0,0,0,0-0.1,0c-1.1,0.2-2.3,0.9-2,3.2
			c0.4,4.1,4.4,2.8,4.4,2.7C36.9,27.2,36.6,24.6,36.4,22.9z"/>
		<path id="Trazado_119023" class="st14" d="M35.8,25.9c-0.1,0-0.1,0.1-0.2,0.1c-0.2,0.1-0.3,0.1-0.5,0.1c-0.6-0.3-0.9-0.9-1-1.5
			c0-0.3,0-0.7,0.1-1c0.1-0.3,0.2-0.5,0.5-0.6c0.2-0.1,0.3,0,0.4,0.2c0.1,0.1,0,0.2,0.1,0.2c0,0,0.1-0.1,0-0.2
			c0-0.1-0.1-0.2-0.2-0.2c-0.1-0.1-0.3-0.1-0.4-0.1c-0.3,0.1-0.6,0.4-0.7,0.7c-0.1,0.4-0.2,0.8-0.1,1.2c0,0.7,0.5,1.4,1.2,1.6
			c0.2,0.1,0.5,0,0.7-0.2C35.8,26,35.8,25.9,35.8,25.9z"/>
		<path id="Trazado_119024" class="st13" d="M71.5,57.6c1.9,5.5,2.5,5.6,4.2,21.4c0.3,3.1-0.5,7.8-3.2,9.2c-2.7,1.4-7.6-0.1-9.2-2.8
			l-1.8-11.7L71.5,57.6z"/>
		<path id="Trazado_119025" class="st14" d="M64.7,81c0.3-0.8,0.6-1.6,1-2.4c0.4-0.7,0.9-1.4,1.4-2.1c-0.2,0.1-0.4,0.3-0.6,0.5
			c-0.4,0.5-0.8,1-1.1,1.5c-0.3,0.5-0.5,1.1-0.7,1.7C64.8,80.4,64.7,80.7,64.7,81z"/>
		<path id="Trazado_119026" class="st15" d="M25.1,87.4l0.1-13.1l0-1.3L11.8,70c0,0,2.6-8.5,5-17.8c1.4-5.3,6-8,7.1-8.5l0,0l0.2-0.1
			l0,0l13-5c2.6,2.7,6.1,4.5,9.7,3.4c2-0.5,3.7-1.7,5-3.2l8.8,2.6l0,0c2.5,0.9,4.6,2.6,5.9,4.8c1.8,3.2,7.5,17.7,7.6,18.1l-10.6,1
			c0,0,1.9,34.5,1.2,40.7c0,0-2.6,1.8-9.1,2.1c-13.2,0.6-32.9-0.3-32.9-0.3c0.3-2,0.7-5.3,0.8-7L25.1,87.4z"/>
		<path id="Trazado_119027" class="st5" d="M63.2,52.4c-0.1,0,0.2,8.2,0.7,18.4s0.8,18.4,0.8,18.4s-0.2-8.2-0.7-18.4
			S63.3,52.4,63.2,52.4z"/>
		<path id="Trazado_119028" class="st5" d="M75.4,59.3l-4.1,17.1c-0.2,0.9-1.1,1.6-2.4,2l-23.3,0.1c-1.1-0.5-1.8-1.6-1.7-2.9
			l3.1-16.4c0.2-1,1-1.7,2-1.7l24.6-0.6c1.1,0,1.9,0.8,1.9,1.9C75.4,58.9,75.4,59.1,75.4,59.3L75.4,59.3z"/>
		<path id="Trazado_119029" class="st13" d="M76.9,62.7c0.4-0.5,0.4-1.3,0-1.8c-0.4-0.5-1.1-0.8-1.8-0.8c-0.7,0-1.3,0.2-1.9,0.4
			c-0.8,0.3-1.5,0.7-2.2,1.2c-0.5,0.3-0.9,0.7-1.1,1.3c-0.1,0.6,0.6,1.2,1.1,0.9c-0.7,0.3-1.2,1-1.4,1.7c-0.1,0.7,0.3,1.1,1,1.3
			c-0.6,0.2-0.8,0.9-0.6,1.4c0.4,0.5,1,0.7,1.6,0.4c0.5-0.3,1-0.7,1.3-1.2c-0.3,0.8-0.4,1.8-0.2,2.6c1.5-0.6,3.1-2.3,2.6-3.9
			c0.8-0.6,1-1.7,0.6-2.6c0.7-0.3,1.2-1,1.2-1.8"/>
		<path id="Trazado_119030" class="st14" d="M72.7,70.2c0.2-0.2,0.4-0.3,0.6-0.4c0.5-0.3,0.9-0.7,1.3-1.2c0.4-0.5,0.6-1,0.7-1.6
			c0-0.2,0-0.5,0-0.7c0.1,0.2,0.1,0.5,0.1,0.8c0,0.6-0.3,1.2-0.7,1.7c-0.4,0.5-0.9,0.9-1.4,1.2C73.1,70.1,72.9,70.2,72.7,70.2
			L72.7,70.2z"/>
		<path id="Trazado_119031" class="st14" d="M70.6,66.9c0.2-0.2,0.4-0.3,0.7-0.5c0.5-0.4,1.1-0.8,1.8-1c0.4-0.1,0.7-0.1,1.1,0
			c0.3,0.1,0.6,0.2,0.8,0.4c0.2,0.2,0.4,0.4,0.5,0.7c0-0.1,0-0.2-0.1-0.2c-0.1-0.2-0.2-0.4-0.4-0.5c-0.2-0.2-0.5-0.4-0.8-0.4
			c-0.4-0.1-0.8-0.1-1.2,0c-0.7,0.2-1.3,0.5-1.8,1C71,66.5,70.8,66.7,70.6,66.9L70.6,66.9z"/>
		<path id="Trazado_119032" class="st14" d="M70.7,64c0.3-0.1,0.6-0.2,0.8-0.4c0.3-0.2,0.6-0.3,0.9-0.4c0.4-0.1,0.7-0.2,1.1-0.3
			c0.4-0.1,0.8-0.1,1.1,0c0.3,0.1,0.6,0.2,0.8,0.3c0.2,0.2,0.4,0.4,0.6,0.7c0-0.1,0-0.2-0.1-0.2c-0.1-0.2-0.2-0.4-0.4-0.5
			c-0.3-0.2-0.6-0.3-0.9-0.4c-0.4-0.1-0.8-0.1-1.2,0c-0.4,0.1-0.8,0.2-1.1,0.3c-0.3,0.1-0.6,0.3-0.9,0.4
			C71.2,63.6,70.9,63.8,70.7,64L70.7,64z"/>
		<path id="Trazado_119033" class="st5" d="M33.1,18.7c0.3,1.2,0.2,3.1,1.3,2.8c2.1-0.5,1.6,3.7,2.6,3.3c1-0.4,1.8-1.6,1.9-4.2
			c0.1-3.3-1.2-5.7,0-9.5c0.8-1.5,2.4-2.5,4.2-2.6c1.8,0,3.4,0.8,4.4,2.3c0.2-1.2,0.7-2.9,1.8-3.4c1-0.6,2.3-0.5,3.3,0.3
			c0.9,0.8,1.1,2.1,0.4,3.2c0.5,0.2,1,0,1.3-0.5c0,0.5-0.1,1.1-0.5,1.5c0.4-0.1,0.8-0.4,1-0.7c-0.1,0.5-0.2,1-0.3,1.4
			c1.7,0,3.4-1.6,3.9-3.1c0.6-2.2,0.2-4.7-1.1-6.6c-1.3-2.1-3.5-3.4-5.9-3.4c-2.3-0.1-4.4,1.2-5.3,3.4c-1.9-1.2-4.3-1.4-6.4-0.7
			c-1.8,0.8-2.9,2.5-3.2,4.4c-1.1-0.4-2.4-0.1-3.3,0.7c-0.1,0.1-0.2,0.1-0.2,0.2c-1.2,1.2-1.8,2.9-1.4,4.6c0.1,0.7,0.4,1.3,0.5,1.9
			C32.4,15.4,33.1,18.7,33.1,18.7z"/>
		<path id="Trazado_119034" class="st4" d="M54.5,10.3c0.1,0,0.1-0.1,0.1-0.1c0.1-0.1,0.2-0.2,0.3-0.4c0.4-0.5,0.6-1.1,0.7-1.7
			c0.1-0.9-0.2-1.9-0.8-2.6c-0.8-0.9-1.9-1.3-3.1-1.2c-0.6,0.1-1.2,0.3-1.6,0.7c-0.5,0.3-0.9,0.7-1.2,1.1c-0.6,0.7-1,1.6-1.2,2.5
			c-0.2,0.6-0.2,1.2-0.2,1.8c0,0.2,0,0.3,0,0.5c0,0.1,0,0.1,0,0.2c-0.1-0.8,0-1.7,0.2-2.5C48,7.7,48.4,6.9,49,6.2
			c0.7-0.9,1.7-1.5,2.7-1.7c1.1-0.1,2.2,0.3,3,1.1c0.6,0.7,0.9,1.6,0.8,2.5c-0.1,0.6-0.3,1.2-0.6,1.7C54.7,10,54.6,10.2,54.5,10.3z"
			/>
		<path id="Trazado_119035" class="st4" d="M55.3,12.1c0-0.1,0.1-0.1,0.1-0.2c0.1-0.1,0.2-0.3,0.3-0.6c0.4-0.7,0.7-1.5,1-2.3
			c0.2-0.5,0.2-1.1,0.3-1.7c0-0.7-0.1-1.3-0.3-1.9c-0.3-0.7-0.8-1.3-1.4-1.7c-0.7-0.4-1.4-0.7-2.2-0.7c-0.8,0-1.6,0.1-2.3,0.4
			c-0.7,0.3-1.3,0.6-1.9,1.1c-1,0.7-1.7,1.8-2.1,3c-0.2,0.8-0.2,1.7,0.1,2.4c0.1,0.2,0.2,0.4,0.3,0.6c0.1,0.1,0.1,0.2,0.1,0.2
			c-0.2-0.3-0.3-0.5-0.4-0.8c-0.3-0.8-0.3-1.6-0.1-2.4c0.3-1.2,1.1-2.2,2-2.9C50,3.7,51.5,3.2,53,3.3c0.8,0,1.5,0.3,2.1,0.7
			c0.6,0.4,1,0.9,1.3,1.6c0.2,0.6,0.4,1.2,0.4,1.9c0,0.6-0.1,1.1-0.2,1.6c-0.2,0.8-0.5,1.5-0.9,2.3l-0.3,0.6
			C55.3,12,55.3,12.1,55.3,12.1L55.3,12.1z"/>
		<path id="Trazado_119036" class="st4" d="M34.6,16.1c-0.3-0.3-0.6-0.6-0.9-0.9c-1.3-1.5-1.8-3.7-1.2-5.6C32.7,8.9,33,8.5,33,8.5
			c-0.1,0.1-0.1,0.2-0.2,0.3c-0.1,0.3-0.3,0.6-0.4,0.8c-0.3,1-0.4,2-0.2,3c0.2,1,0.7,1.9,1.4,2.7c0.2,0.2,0.4,0.5,0.7,0.7
			C34.3,16,34.4,16.1,34.6,16.1z"/>
		<path id="Trazado_119037" class="st4" d="M38.2,16c-0.2-0.1-0.4-0.2-0.5-0.3c-0.4-0.3-0.8-0.7-1-1.2l-0.2-0.4l0,0.4
			c0.1,0.6,0.1,1.2,0.2,1.9l0.1-0.1c-1.2-0.8-2-2-2.2-3.4c-0.1-0.6-0.1-1.3,0-1.9c0.1-0.6,0.3-1.1,0.6-1.7c0,0-0.1,0.1-0.1,0.1
			C35.1,9.5,35,9.6,35,9.7c-0.2,0.4-0.3,0.8-0.4,1.2c-0.1,0.6-0.2,1.3-0.1,2c0.3,1.4,1.1,2.7,2.3,3.5l0.2,0.1v-0.2
			c-0.1-0.7-0.2-1.4-0.2-1.9l-0.1,0c0.2,0.5,0.6,0.9,1.1,1.2c0.1,0.1,0.3,0.1,0.4,0.2C38.1,16,38.2,16,38.2,16z"/>
		<path id="Trazado_119038" class="st4" d="M39.4,7.4C39.6,7,40,6.6,40.3,6.3c0.4-0.3,0.9-0.6,1.5-0.7c0.7-0.1,1.3-0.1,2,0.2
			C44.4,6,45,6.4,45.4,6.9c0.4,0.4,0.7,0.9,0.9,1.4c0.2,0.5,0.3,1,0.4,1.5c0-0.1,0-0.3,0-0.4c-0.1-0.4-0.2-0.7-0.3-1.1
			c-0.2-0.5-0.5-1-0.9-1.4c-0.5-0.5-1-0.9-1.7-1.2c-0.7-0.2-1.4-0.3-2-0.2c-0.6,0.1-1.1,0.4-1.5,0.7C40,6.4,39.7,6.7,39.5,7
			c0,0.1-0.1,0.2-0.1,0.3C39.4,7.4,39.4,7.4,39.4,7.4z"/>
		<path id="Trazado_119039" class="st4" d="M40.3,4.3c0.4-0.2,0.7-0.3,1.1-0.4c0.9-0.2,1.9-0.1,2.8,0.4c0.8,0.5,1.5,1.2,2,2
			c0.4,0.7,0.5,1.1,0.5,1.1c0-0.1,0-0.2-0.1-0.3c-0.1-0.3-0.2-0.6-0.3-0.8c-0.4-0.9-1.1-1.7-2-2.1c-0.9-0.5-1.9-0.6-2.9-0.4
			c-0.3,0.1-0.6,0.2-0.8,0.4C40.5,4.2,40.4,4.3,40.3,4.3z"/>
		<path id="Trazado_119040" class="st5" d="M26.5,54.7c0.1,0-0.2,7.3-0.6,16.3c-0.4,9-0.8,16.3-1,16.3c-0.1,0,0.2-7.3,0.6-16.3
			C26,62,26.4,54.7,26.5,54.7z"/>
		<path id="Trazado_119041" class="st13" d="M11.8,76.2c0.4-3.2,0.8-6.1,0.8-6.1l10.6,2.5l-0.5,1.7l8.2-8.3l1.3,0.1l4.1,4.3
			c0,0-3.6,7.6-5.7,10.6c-2.7,3.8-7,9.7-12.9,9.2C12.4,89.6,11,82,11.8,76.2z"/>
		<path id="Trazado_119042" class="st14" d="M17.5,78.1c0.7-0.8,1.4-1.5,2.3-2.1c0.8-0.7,1.8-1.2,2.8-1.5c0,0.1-1.2,0.8-2.6,1.8
			C19.2,77,18.4,77.6,17.5,78.1z"/>
		<path id="Trazado_119043" class="st13" d="M45.2,55.1l-3.6-1.9l-4.7,1.5l-2.3,2.2l-3.6,9.1L28,69.6l5.1,6.6l3.2-5.9
			c0,0,2.7-1.2,3.8-2.9c1.1-1.7,1.6-2.6,1.6-2.6s1.6-0.8,1.9-1.5c0.2-0.4,0.3-0.9,0.3-1.3L43,60.8c0.1-0.5,0-1-0.2-1.5
			c-0.2-0.2-0.4-0.4-0.6-0.5c0,0,0.2-1-0.1-1.3c-0.7-0.4-1.4-0.7-2.2-1l0,0l1.6-0.9C41.4,55.6,45,56.7,45.2,55.1z"/>
		<path id="Trazado_119044" class="st14" d="M39.8,58.4c0,0,0.6,0.1,1.2,0.2s1.2,0.4,1.2,0.3c-0.4-0.2-0.7-0.4-1.2-0.5
			C40.6,58.3,40.2,58.3,39.8,58.4z"/>
		<path id="Trazado_119045" class="st14" d="M40.9,60.4c0.3,0.1,0.7,0.1,1,0.1c0.3,0.1,0.7,0.1,1,0.2C42.3,60.4,41.6,60.3,40.9,60.4
			L40.9,60.4z"/>
		<path id="Trazado_119046" class="st14" d="M42.4,63.6c0,0,0.1-0.2,0.1-0.5s0-0.5-0.1-0.5c0,0-0.1,0.2-0.1,0.5
			C42.3,63.4,42.4,63.6,42.4,63.6z"/>
		<path id="Trazado_119047" class="st14" d="M41.7,64.6c0.1-0.6,0.5-1.2,1.1-1.4c-0.1,0-0.2,0-0.3,0c-0.2,0.1-0.4,0.2-0.6,0.4
			c-0.1,0.2-0.2,0.4-0.3,0.7C41.7,64.5,41.7,64.6,41.7,64.6z"/>
		<path id="Trazado_119048" class="st14" d="M38.9,61.7c0.2-0.3,0.4-0.5,0.7-0.7c0.3-0.1,0.6-0.2,0.9-0.2c-0.1-0.1-0.2-0.1-0.3-0.1
			c-0.2,0-0.5,0-0.7,0.2c-0.2,0.1-0.4,0.3-0.5,0.5C38.9,61.6,38.9,61.7,38.9,61.7z"/>
		<path id="Trazado_119049" class="st14" d="M37.2,59.6c0.2-0.2,0.4-0.4,0.6-0.6c0.2-0.1,0.5-0.2,0.8-0.3c-0.1,0-0.2-0.1-0.3-0.1
			c-0.4,0-0.8,0.3-1,0.7C37.2,59.5,37.2,59.6,37.2,59.6z"/>
		<path id="Trazado_119050" class="st14" d="M36.1,58.7c0-0.1,0-0.2,0-0.3c0.1-0.5,0.4-0.9,0.8-1.1c0.1,0,0.2-0.1,0.3-0.1
			c-0.1,0-0.2,0-0.3,0c-0.5,0.2-0.9,0.7-0.9,1.2C36,58.4,36.1,58.6,36.1,58.7z"/>
		<path id="Trazado_119051" class="st14" d="M37.7,56.3c0,0.1,0.8,0.1,1.7,0.2c0.5,0.1,1.1,0.3,1.6,0.4c-0.5-0.3-1-0.5-1.6-0.6
			c-0.4-0.1-0.8-0.1-1.2-0.1C38,56.3,37.8,56.3,37.7,56.3L37.7,56.3z"/>
	</g>
	<g id="freepik--Floor--inject-2" transform="translate(37.374 318.281)">
		<path id="Trazado_119052" class="st5" d="M245-32c0,0.1-52.2,0.2-116.5,0.2S12.1-31.9,12.1-32s52.1-0.2,116.5-0.2S245-32.1,245-32
			z"/>
	</g>
</g>
</svg>
