<svg xmlns="http://www.w3.org/2000/svg" width="1085.402" height="420.747" viewBox="0 0 1085.402 420.747">
  <g id="OBJECTS" transform="translate(-7.65 -7.61)">
    <g id="freepik--background-complete--inject-179" transform="translate(8.865 9.636)">
      <rect id="Rectángulo_30223" data-name="Rectángulo 30223" width="595.74" height="0.298" transform="translate(0 390.091)" fill="#e9e9e9"/>
      <rect id="Rectángulo_30224" data-name="Rectángulo 30224" width="63.232" height="0.298" transform="translate(472.815 409.261)" fill="#e9e9e9"/>
      <rect id="Rectángulo_30225" data-name="Rectángulo 30225" width="69.892" height="0.298" transform="translate(324.75 405.532)" fill="#e9e9e9"/>
      <rect id="Rectángulo_30226" data-name="Rectángulo 30226" width="22.865" height="0.298" transform="translate(453.001 403.816)" fill="#e9e9e9"/>
      <rect id="Rectángulo_30227" data-name="Rectángulo 30227" width="51.46" height="0.298" transform="translate(119.708 400.206)" fill="#e9e9e9"/>
      <rect id="Rectángulo_30228" data-name="Rectángulo 30228" width="18.396" height="0.298" transform="translate(94.675 400.206)" fill="#e9e9e9"/>
      <rect id="Rectángulo_30229" data-name="Rectángulo 30229" width="64.578" height="0.298" transform="translate(156.644 405.234)" fill="#e9e9e9"/>
      <path id="Trazado_125702" data-name="Trazado 125702" d="M283.734,346.261H53.671a6.806,6.806,0,0,1-6.791-6.8V16.054A6.809,6.809,0,0,1,53.671,9.31H283.734a6.809,6.809,0,0,1,6.8,6.8h0V339.457A6.809,6.809,0,0,1,283.734,346.261ZM53.671,9.548a6.511,6.511,0,0,0-6.494,6.505v323.4a6.511,6.511,0,0,0,6.494,6.505H283.734a6.529,6.529,0,0,0,6.505-6.505V16.054a6.529,6.529,0,0,0-6.505-6.505Z" transform="translate(-1.354 -9.31)" fill="#e9e9e9"/>
      <path id="Trazado_125703" data-name="Trazado 125703" d="M500.048,346.261H269.973a6.824,6.824,0,0,1-6.8-6.8V16.054a6.82,6.82,0,0,1,6.8-6.744H500.048a6.8,6.8,0,0,1,6.78,6.744v323.4A6.811,6.811,0,0,1,500.048,346.261ZM269.973,9.548a6.529,6.529,0,0,0-6.505,6.505v323.4a6.529,6.529,0,0,0,6.505,6.505H500.048a6.529,6.529,0,0,0,6.505-6.505V16.054a6.529,6.529,0,0,0-6.505-6.505Z" transform="translate(40.062 -9.31)" fill="#e9e9e9"/>
      <rect id="Rectángulo_30230" data-name="Rectángulo 30230" width="278.389" height="4.694" transform="translate(234.912 261.184)" fill="#e4e4e4"/>
      <rect id="Rectángulo_30231" data-name="Rectángulo 30231" width="282.845" height="4.694" transform="translate(243.264 261.184)" fill="#efefef"/>
      <rect id="Rectángulo_30232" data-name="Rectángulo 30232" width="36.864" height="110.522" transform="translate(476.437 279.569)" fill="#e4e4e4"/>
      <path id="Trazado_125704" data-name="Trazado 125704" d="M424.414,338.749h22.459V326.06h-46Z" transform="translate(66.428 51.341)" fill="#e9e9e9"/>
      <rect id="Rectángulo_30233" data-name="Rectángulo 30233" width="36.864" height="110.522" transform="translate(365.939 279.569)" fill="#e4e4e4"/>
      <rect id="Rectángulo_30234" data-name="Rectángulo 30234" width="130.086" height="107.889" transform="translate(383.216 279.569)" fill="#e9e9e9"/>
      <path id="Trazado_125705" data-name="Trazado 125705" d="M352.759,338.749H330.3V326.06h46Z" transform="translate(52.916 51.341)" fill="#e9e9e9"/>
      <rect id="Rectángulo_30235" data-name="Rectángulo 30235" width="95.247" height="55.583" transform="translate(400.635 292.008)" fill="#f9f9f9"/>
      <rect id="Rectángulo_30236" data-name="Rectángulo 30236" width="95.247" height="26.451" transform="translate(400.635 353.25)" fill="#f9f9f9"/>
      <path id="Trazado_125706" data-name="Trazado 125706" d="M396.015,257.593H378.261a5.128,5.128,0,0,1-5.111-5.123h28.024a5.131,5.131,0,0,1-5.123,5.123Z" transform="translate(61.121 37.25)" fill="#e9e9e9"/>
      <path id="Trazado_125707" data-name="Trazado 125707" d="M396.015,308.981H378.261a5.11,5.11,0,0,1-5.111-5.111h28.024a5.11,5.11,0,0,1-5.112,5.111Z" transform="translate(61.121 47.092)" fill="#e9e9e9"/>
      <rect id="Rectángulo_30237" data-name="Rectángulo 30237" width="36.864" height="110.522" transform="translate(336.379 279.569)" fill="#e4e4e4"/>
      <path id="Trazado_125708" data-name="Trazado 125708" d="M306.874,338.749h22.447V326.06H283.33Z" transform="translate(43.922 51.341)" fill="#e9e9e9"/>
      <rect id="Rectángulo_30238" data-name="Rectángulo 30238" width="36.864" height="110.522" transform="translate(225.893 279.569)" fill="#e4e4e4"/>
      <rect id="Rectángulo_30239" data-name="Rectángulo 30239" width="130.086" height="107.889" transform="translate(243.169 279.569)" fill="#e9e9e9"/>
      <path id="Trazado_125709" data-name="Trazado 125709" d="M235.207,338.749H212.76V326.06h45.991Z" transform="translate(30.409 51.341)" fill="#e9e9e9"/>
      <rect id="Rectángulo_30240" data-name="Rectángulo 30240" width="95.247" height="55.583" transform="translate(260.589 292.008)" fill="#f9f9f9"/>
      <rect id="Rectángulo_30241" data-name="Rectángulo 30241" width="95.247" height="26.451" transform="translate(260.589 353.25)" fill="#f9f9f9"/>
      <path id="Trazado_125710" data-name="Trazado 125710" d="M278.464,257.593H260.723a5.146,5.146,0,0,1-5.123-5.123h27.988A5.131,5.131,0,0,1,278.464,257.593Z" transform="translate(38.612 37.25)" fill="#e9e9e9"/>
      <path id="Trazado_125711" data-name="Trazado 125711" d="M278.464,308.981H260.723a5.128,5.128,0,0,1-5.123-5.111h27.988a5.11,5.11,0,0,1-5.111,5.111Z" transform="translate(38.612 47.092)" fill="#e9e9e9"/>
      <rect id="Rectángulo_30242" data-name="Rectángulo 30242" width="269.751" height="4.635" transform="translate(243.55 274.934)" fill="#efefef"/>
      <rect id="Rectángulo_30243" data-name="Rectángulo 30243" width="17.658" height="4.635" transform="translate(225.893 274.922)" fill="#dedede"/>
    </g>
    <g id="Grupo_55398" data-name="Grupo 55398" transform="translate(612.29 7.61)">
      <g id="freepik--background-complete--inject-2">
        <rect id="Rectángulo_30246" data-name="Rectángulo 30246" width="10.354" height="0.298" transform="translate(338.762 412.502)" fill="#e9e9e9"/>
        <rect id="Rectángulo_30247" data-name="Rectángulo 30247" width="22.865" height="0.298" transform="translate(427.003 398.205)" fill="#e9e9e9"/>
        <rect id="Rectángulo_30248" data-name="Rectángulo 30248" width="51.46" height="0.298" transform="translate(16.979 400.206)" fill="#e9e9e9"/>
        <rect id="Rectángulo_30249" data-name="Rectángulo 30249" width="7.542" height="0.298" transform="translate(79.055 400.206)" fill="#e9e9e9"/>
        <rect id="Rectángulo_30250" data-name="Rectángulo 30250" width="111.618" height="0.298" transform="translate(111.117 405.234)" fill="#e9e9e9"/>
        <path id="Trazado_125712" data-name="Trazado 125712" d="M751.974,344.561H521.911a6.806,6.806,0,0,1-6.791-6.8V14.354a6.809,6.809,0,0,1,6.791-6.744H751.974a6.809,6.809,0,0,1,6.8,6.8h0V337.757A6.809,6.809,0,0,1,751.974,344.561ZM521.911,7.848a6.511,6.511,0,0,0-6.494,6.505v323.4a6.511,6.511,0,0,0,6.494,6.505H751.974a6.529,6.529,0,0,0,6.505-6.505V14.354a6.529,6.529,0,0,0-6.505-6.505H521.911Z" transform="translate(-515.12 -7.61)" fill="#e9e9e9"/>
        <path id="Trazado_125713" data-name="Trazado 125713" d="M948.26,344.561H737.638a6.555,6.555,0,0,1-6.228-6.8V14.354a6.545,6.545,0,0,1,6.228-6.744H948.26a6.527,6.527,0,0,1,6.206,6.744v323.4A6.537,6.537,0,0,1,948.26,344.561ZM737.638,7.848a6.272,6.272,0,0,0-5.955,6.505v323.4a6.272,6.272,0,0,0,5.955,6.505H948.26a6.272,6.272,0,0,0,5.956-6.505V14.354a6.272,6.272,0,0,0-5.956-6.505H737.638Z" transform="translate(-473.705 -7.61)" fill="#e9e9e9"/>
        <rect id="Rectángulo_30251" data-name="Rectángulo 30251" width="269.548" height="154.63" transform="translate(185.966 32.67)" fill="#e4e4e4"/>
        <rect id="Rectángulo_30252" data-name="Rectángulo 30252" width="273.385" height="154.63" transform="translate(189.338 32.67)" fill="#efefef"/>
        <rect id="Rectángulo_30253" data-name="Rectángulo 30253" width="269.548" height="13.392" transform="translate(185.966 187.301)" fill="#e4e4e4"/>
        <rect id="Rectángulo_30254" data-name="Rectángulo 30254" width="273.385" height="13.392" transform="translate(201.336 187.301)" fill="#efefef"/>
        <rect id="Rectángulo_30255" data-name="Rectángulo 30255" width="253.213" height="134.459" transform="translate(199.418 42.75)" fill="#f9f9f9"/>
        <path id="Trazado_125714" data-name="Trazado 125714" d="M698.11,177.949,757.3,43.49h27.952l-59.2,134.458Z" transform="translate(-480.081 -0.74)" fill="#fff"/>
        <path id="Trazado_125715" data-name="Trazado 125715" d="M686.525,166.964a.735.735,0,0,1-.715-.727V49.1a.726.726,0,0,1,1.442,0V166.237a.722.722,0,0,1-.727.727Z" transform="translate(-482.436 0.213)" fill="#efefef"/>
        <path id="Trazado_125716" data-name="Trazado 125716" d="M726.6,177.949,785.8,43.49h10.89l-59.2,134.458Z" transform="translate(-474.626 -0.74)" fill="#fff"/>
        <rect id="Rectángulo_30256" data-name="Rectángulo 30256" width="1.275" height="134.459" transform="translate(451.356 42.75)" fill="#e4e4e4"/>
        <path id="Trazado_125717" data-name="Trazado 125717" d="M948.948,58.075H679.4l-.929-11.3H948.018Z" transform="translate(-483.842 -0.11)" fill="#e9e9e9" opacity="0.6"/>
        <path id="Trazado_125718" data-name="Trazado 125718" d="M948.948,73.6H679.4L678.47,62.32H948.018Z" transform="translate(-483.842 2.866)" fill="#e9e9e9" opacity="0.6"/>
        <path id="Trazado_125719" data-name="Trazado 125719" d="M948.948,89.143H679.4L678.47,77.86H948.018Z" transform="translate(-483.842 5.841)" fill="#e9e9e9" opacity="0.6"/>
        <path id="Trazado_125720" data-name="Trazado 125720" d="M948.948,104.685H679.4l-.929-11.3H948.018Z" transform="translate(-483.842 8.815)" fill="#e9e9e9" opacity="0.6"/>
        <path id="Trazado_125721" data-name="Trazado 125721" d="M948.948,120.225H679.4l-.929-11.3H948.018Z" transform="translate(-483.842 11.791)" fill="#e9e9e9" opacity="0.6"/>
        <path id="Trazado_125722" data-name="Trazado 125722" d="M948.948,135.753H679.4l-.929-11.283H948.018Z" transform="translate(-483.842 14.766)" fill="#e9e9e9" opacity="0.6"/>
        <path id="Trazado_125723" data-name="Trazado 125723" d="M704.485,227.88h0c-.608,0-1.192,0-1.847.06-13.106,1.049-23.615,13.488-24.449,28.81a36.22,36.22,0,0,0,.87,10.128,180.531,180.531,0,0,1,4.134,40.236v39.521c0,2.86,1.978,5.183,4.42,5.183H774.83V227.9Z" transform="translate(-483.906 34.567)" fill="#efefef"/>
        <path id="Trazado_125724" data-name="Trazado 125724" d="M789.862,258.775c0-17.777-12.808-32.051-28.2-30.824-13.106,1.049-23.627,13.488-24.449,28.81a35.64,35.64,0,0,0,.846,10.116,180.535,180.535,0,0,1,4.134,40.236v39.521c0,2.86,1.978,5.183,4.42,5.183H780.4c2.383,0,4.42-2.323,4.42-5.183V304.743a164.516,164.516,0,0,1,4.087-37.71A36.356,36.356,0,0,0,789.862,258.775Z" transform="translate(-472.606 34.567)" fill="#f9f9f9"/>
        <rect id="Rectángulo_30257" data-name="Rectángulo 30257" width="92.042" height="70.047" transform="translate(162.542 316.278)" fill="#f4f4f4"/>
        <path id="Trazado_125725" data-name="Trazado 125725" d="M606.512,202.61H707.632a21.606,21.606,0,0,1,21.6,21.6h0v74.182H584.91V224.212a21.606,21.606,0,0,1,21.6-21.6Z" transform="translate(-501.757 29.729)" fill="#e4e4e4"/>
        <path id="Trazado_125726" data-name="Trazado 125726" d="M619.654,202.61h91.065A21.291,21.291,0,0,1,732.01,223.9v74.491H598.35V223.9a21.291,21.291,0,0,1,21.292-21.292Z" transform="translate(-499.183 29.729)" fill="#f4f4f4"/>
        <path id="Trazado_125727" data-name="Trazado 125727" d="M656.742,270.94h86.025a4.632,4.632,0,0,1,4.635,4.635h0v7.459a4.632,4.632,0,0,1-4.635,4.635H656.742a1.383,1.383,0,0,1-1.382-1.382h0V272.322a1.383,1.383,0,0,1,1.382-1.382Z" transform="translate(-488.267 42.812)" fill="#e9e9e9"/>
        <path id="Trazado_125728" data-name="Trazado 125728" d="M575.852,331.85H795.716v.286a3.483,3.483,0,0,1-3.479,3.479H579.319a3.483,3.483,0,0,1-3.479-3.479h0v-.286h.012Z" transform="translate(-503.493 54.475)" fill="#e4e4e4"/>
        <path id="Trazado_125729" data-name="Trazado 125729" d="M581.2,227.888h0c-.608,0-1.191,0-1.847.06-13.106,1.049-23.627,13.488-24.449,28.81a36.141,36.141,0,0,0,.846,10.056,180.525,180.525,0,0,1,4.134,40.236v39.521c0,2.86,1.978,5.183,4.42,5.183H671.307V227.84Z" transform="translate(-507.514 34.56)" fill="#efefef"/>
        <path id="Trazado_125730" data-name="Trazado 125730" d="M683.181,258.775c0-17.777-12.808-32.051-28.2-30.824-13.106,1.049-23.615,13.488-24.449,28.81a36.142,36.142,0,0,0,.846,10.056,180.531,180.531,0,0,1,4.134,40.236v39.521c0,2.86,1.978,5.183,4.42,5.183h33.79c2.383,0,4.432-2.323,4.432-5.183V304.743a163.847,163.847,0,0,1,4.075-37.71A36.349,36.349,0,0,0,683.181,258.775Z" transform="translate(-493.032 34.567)" fill="#f9f9f9"/>
        <path id="Trazado_125731" data-name="Trazado 125731" d="M881.979,238.838a5.258,5.258,0,0,0,3.789-8.912c-2.383-2.454-6.291-4.456-12.511-4.456s-10.08,2-12.5,4.456a5.254,5.254,0,0,0,.119,7.435,5.194,5.194,0,0,0,3.658,1.477h17.443Z" transform="translate(-449.221 34.106)" fill="#f4f4f4"/>
        <path id="Trazado_125732" data-name="Trazado 125732" d="M895.371,236.429a3.37,3.37,0,0,0,2.383-5.719c-1.549-1.585-4.039-2.86-8.031-2.86s-6.482,1.275-8.031,2.86a3.372,3.372,0,0,0,2.383,5.719Z" transform="translate(-445.111 34.562)" fill="#f4f4f4"/>
        <path id="Trazado_125733" data-name="Trazado 125733" d="M855.91,233.78s.679,6.946,26.784,6.946,26.8-6.946,26.8-6.946Z" transform="translate(-449.866 35.697)" fill="#efefef"/>
        <path id="Trazado_125734" data-name="Trazado 125734" d="M835.008,224.646a6.012,6.012,0,0,0-.667.071v-2.383a1.886,1.886,0,0,0-1.871-1.894H822.343a1.9,1.9,0,0,0-1.883,1.894v20.946h13.881V239.9a6.335,6.335,0,0,0,.667.071,5.578,5.578,0,0,0,5.564-5.564v-4.23A5.578,5.578,0,0,0,835.008,224.646Zm3.181,9.758a3.2,3.2,0,0,1-3.181,3.181,3.093,3.093,0,0,1-.667-.071V227.1a3.1,3.1,0,0,1,.667-.071,3.2,3.2,0,0,1,3.181,3.181Z" transform="translate(-456.654 33.143)" fill="#e4e4e4"/>
        <rect id="Rectángulo_30258" data-name="Rectángulo 30258" width="51.734" height="113.667" transform="translate(338.035 276.423)" fill="#e4e4e4"/>
        <rect id="Rectángulo_30259" data-name="Rectángulo 30259" width="91.005" height="113.667" transform="translate(389.757 276.423)" fill="#f4f4f4"/>
        <rect id="Rectángulo_30260" data-name="Rectángulo 30260" width="81.473" height="108.901" transform="translate(394.523 281.189)" fill="#e4e4e4"/>
        <rect id="Rectángulo_30261" data-name="Rectángulo 30261" width="20.565" height="108.901" transform="translate(394.535 281.189)" fill="#dedede"/>
        <rect id="Rectángulo_30262" data-name="Rectángulo 30262" width="84.047" height="4.766" transform="translate(394.535 333.257)" fill="#f4f4f4"/>
        <path id="Trazado_125735" data-name="Trazado 125735" d="M872.112,293.6H854.24l5.3-39.152h12.57Z" transform="translate(-450.185 39.655)" fill="#e4e4e4"/>
        <path id="Trazado_125736" data-name="Trazado 125736" d="M897.693,294.674h-33.85l-6.3-45.824h33.85Z" transform="translate(-449.553 38.583)" fill="#efefef"/>
        <path id="Trazado_125737" data-name="Trazado 125737" d="M901.715,294.674H866.483l-6.3-45.824h35.232Z" transform="translate(-449.048 38.583)" fill="#f4f4f4"/>
        <path id="Trazado_125738" data-name="Trazado 125738" d="M868.932,290.484l-5.3-38.6h28l5.314,38.6Z" transform="translate(-448.387 39.163)" fill="#fff"/>
        <path id="Trazado_125739" data-name="Trazado 125739" d="M874.2,276.554l-1.763-12.785a3.607,3.607,0,0,1,3.574-4.039h3.431a3.576,3.576,0,0,1,3.574,3.074l1.752,12.773a3.6,3.6,0,0,1-3.574,4.051h-3.42A3.576,3.576,0,0,1,874.2,276.554Z" transform="translate(-446.707 40.666)" fill="#f4f4f4"/>
      </g>
    </g>
    <g id="Grupo_55399" data-name="Grupo 55399" transform="translate(7.65 111.041)">
      <path id="Trazado_125740" data-name="Trazado 125740" d="M356.884,211.87a47.15,47.15,0,0,1,94.21.441l71.334.322a118.458,118.458,0,0,0-236.878-1.084Z" transform="translate(45.562 -94.174)" fill="#cbc5e0"/>
      <path id="Trazado_125741" data-name="Trazado 125741" d="M312.194,193.043a47.15,47.15,0,0,1-94.21-.441l-71.334-.322a118.458,118.458,0,0,0,236.878,1.084Z" transform="translate(18.966 -75.68)" fill="#cbc5e0"/>
      <path id="Trazado_125742" data-name="Trazado 125742" d="M244.54,211.352l-71.346-.322a47.143,47.143,0,0,0-94.2-.441L7.65,210.268a118.464,118.464,0,0,1,236.89,1.084Z" transform="translate(-7.65 -94.419)" fill="#cbc5e0"/>
      <path id="Trazado_125743" data-name="Trazado 125743" d="M590.084,194.323a47.15,47.15,0,0,1-94.21-.441l-71.334-.322a118.458,118.458,0,0,0,236.878,1.084Z" transform="translate(72.176 -75.435)" fill="#cbc5e0"/>
    </g>
    <g id="Grupo_55401" data-name="Grupo 55401" transform="translate(39.8 141.149)">
      <circle id="Elipse_4238" data-name="Elipse 4238" cx="76.815" cy="76.815" r="76.815" transform="translate(0 152.277) rotate(-82.409)" fill="#fff" opacity="0.64"/>
      <g id="Grupo_55400" data-name="Grupo 55400" transform="translate(33.083 33.065)">
        <path id="Trazado_125744" data-name="Trazado 125744" d="M115.373,253.875A53.218,53.218,0,1,1,168.835,200.9,53.276,53.276,0,0,1,115.373,253.875Z" transform="translate(-62.4 -147.44)" fill="#a9e0dd"/>
      </g>
    </g>
    <circle id="Elipse_4239" data-name="Elipse 4239" cx="76.815" cy="76.815" r="76.815" transform="translate(206.494 160.797) rotate(-6.667)" fill="#fff" opacity="0.64"/>
    <g id="Grupo_55402" data-name="Grupo 55402" transform="translate(237.42 173.907)">
      <circle id="Elipse_4240" data-name="Elipse 4240" cx="53.223" cy="53.223" r="53.223" transform="translate(0 2.15) rotate(-1.157)" fill="#a9e0dd"/>
    </g>
    <g id="Grupo_55404" data-name="Grupo 55404" transform="translate(375.234 146.977)">
      <circle id="Elipse_4241" data-name="Elipse 4241" cx="76.815" cy="76.815" r="76.815" transform="translate(0 153.261) rotate(-86.021)" fill="#fff" opacity="0.64"/>
      <g id="Grupo_55403" data-name="Grupo 55403" transform="translate(17.126 17.087)">
        <circle id="Elipse_4242" data-name="Elipse 4242" cx="53.223" cy="53.223" r="53.223" transform="translate(0 103.051) rotate(-75.476)" fill="#9cd8d6"/>
      </g>
    </g>
    <g id="Grupo_55406" data-name="Grupo 55406" transform="translate(545.996 152.887)">
      <circle id="Elipse_4243" data-name="Elipse 4243" cx="76.815" cy="76.815" r="76.815" fill="#fff" opacity="0.64"/>
      <g id="Grupo_55405" data-name="Grupo 55405" transform="translate(11.777 11.795)">
        <circle id="Elipse_4244" data-name="Elipse 4244" cx="53.223" cy="53.223" r="53.223" transform="matrix(0.255, -0.967, 0.967, 0.255, 0, 102.923)" fill="#8ec8c8"/>
      </g>
    </g>
    <g id="Grupo_55407" data-name="Grupo 55407" transform="translate(86.633 78.205)">
      <path id="Trazado_125745" data-name="Trazado 125745" d="M113.724,146.8a39.969,39.969,0,1,1,40.153-39.784A40,40,0,0,1,113.724,146.8Z" transform="translate(-73.94 -66.86)" fill="#f5ca56"/>
    </g>
    <g id="Grupo_55408" data-name="Grupo 55408" transform="translate(102.849 90.18)">
      <path id="Trazado_125746" data-name="Trazado 125746" d="M107,110.846a1.394,1.394,0,0,0,2.788,0v-.81a5.459,5.459,0,0,0,0-10.58V94.213a8.214,8.214,0,0,1,2.478,1.656,1.395,1.395,0,0,0,2-1.942,10.091,10.091,0,0,0-4.468-2.633v-.81a1.394,1.394,0,1,0-2.788,0v.846a5.461,5.461,0,0,0,0,10.533v5.123a9.8,9.8,0,0,1-2.419-1.966,1.394,1.394,0,1,0-2.121,1.811A11.005,11.005,0,0,0,107,109.989v.858Zm4.123-6.1a2.669,2.669,0,0,1-1.334,2.311v-4.635A2.714,2.714,0,0,1,111.124,104.746Zm-5.35-8.15a2.647,2.647,0,0,1,1.239-2.252V98.86A2.7,2.7,0,0,1,105.774,96.6Z" transform="translate(-84.756 -74.578)" fill="#7d6eb2"/>
      <path id="Trazado_125747" data-name="Trazado 125747" d="M119.918,110.243c.2-.2,4.9-4.933,4.9-10.5a15.013,15.013,0,1,0-30.025,0c0,5.564,4.694,10.294,4.9,10.5a14.08,14.08,0,0,1,2.9,4.837l.917,3.777a1.395,1.395,0,0,0,.262,2.764h12.094a1.395,1.395,0,0,0,.262-2.764l.917-3.777A13.761,13.761,0,0,1,119.918,110.243Zm-18.277-1.978c-.036-.036-4.075-4.1-4.075-8.519a12.237,12.237,0,1,1,24.473,0c0,4.4-4.039,8.483-4.075,8.531a16.562,16.562,0,0,0-3.6,6.053.129.129,0,0,0-.012.06l-1.084,4.444h-6.9l-1.084-4.444a.516.516,0,0,0-.012-.06A16.762,16.762,0,0,0,101.641,108.266Z" transform="translate(-86.164 -75.416)" fill="#7d6eb2"/>
      <path id="Trazado_125748" data-name="Trazado 125748" d="M114.319,116.92H102.774a1.394,1.394,0,1,0,0,2.788h11.545a1.394,1.394,0,0,0,0-2.788Z" transform="translate(-84.902 -69.249)" fill="#7d6eb2"/>
      <path id="Trazado_125749" data-name="Trazado 125749" d="M111.474,120.4h-6.66a1.394,1.394,0,1,0,0,2.788h6.66a1.394,1.394,0,1,0,0-2.788Z" transform="translate(-84.511 -68.583)" fill="#7d6eb2"/>
      <path id="Trazado_125750" data-name="Trazado 125750" d="M96.782,107.725l-3.586,3.6a1.39,1.39,0,0,0,1.966,1.966l3.586-3.6a1.39,1.39,0,1,0-1.966-1.966Z" transform="translate(-86.547 -71.087)" fill="#7d6eb2"/>
      <path id="Trazado_125751" data-name="Trazado 125751" d="M95.247,98.384a1.4,1.4,0,0,0-1.394-1.394H88.944a1.394,1.394,0,0,0,0,2.788h4.909A1.388,1.388,0,0,0,95.247,98.384Z" transform="translate(-87.55 -73.065)" fill="#7d6eb2"/>
      <path id="Trazado_125752" data-name="Trazado 125752" d="M94.722,89.618a1.388,1.388,0,0,0,.989.405,1.342,1.342,0,0,0,.977-.405,1.381,1.381,0,0,0,0-1.966L93.1,84.066a1.39,1.39,0,0,0-1.966,1.966Z" transform="translate(-86.942 -75.618)" fill="#7d6eb2"/>
      <path id="Trazado_125753" data-name="Trazado 125753" d="M118.722,107.726a1.39,1.39,0,0,0-1.966,1.966l3.586,3.6a1.388,1.388,0,0,0,.989.405,1.342,1.342,0,0,0,.977-.405,1.381,1.381,0,0,0,0-1.966Z" transform="translate(-82.036 -71.088)" fill="#7d6eb2"/>
      <path id="Trazado_125754" data-name="Trazado 125754" d="M127.273,97h-4.909a1.394,1.394,0,1,0,0,2.788h4.909a1.394,1.394,0,0,0,0-2.788Z" transform="translate(-81.151 -73.063)" fill="#7d6eb2"/>
      <path id="Trazado_125755" data-name="Trazado 125755" d="M119.792,90.035a1.388,1.388,0,0,0,.989-.405l3.586-3.6a1.39,1.39,0,0,0-1.966-1.966l-3.586,3.6a1.388,1.388,0,0,0,.977,2.371Z" transform="translate(-81.641 -75.618)" fill="#7d6eb2"/>
      <path id="Trazado_125756" data-name="Trazado 125756" d="M107.614,85.036a1.4,1.4,0,0,0,1.394-1.394V78.3a1.394,1.394,0,0,0-2.788,0v5.338A1.388,1.388,0,0,0,107.614,85.036Z" transform="translate(-83.975 -76.91)" fill="#7d6eb2"/>
    </g>
    <g id="Grupo_55409" data-name="Grupo 55409" transform="translate(249.591 295.054)">
      <path id="Trazado_125757" data-name="Trazado 125757" d="M250.494,328.8a39.969,39.969,0,1,1,40.153-39.784A40,40,0,0,1,250.494,328.8Z" transform="translate(-210.71 -248.86)" fill="#f5ca56"/>
    </g>
    <g id="Grupo_55410" data-name="Grupo 55410" transform="translate(269.155 309.436)">
      <path id="Trazado_125758" data-name="Trazado 125758" d="M262.9,302.358h-.774a15.561,15.561,0,0,1-2.681-9.806h4.206a1.243,1.243,0,0,0,1.239-1.227c0-.06.083-6.22.083-13.511,0-8.722-4.623-12.856-8.507-14.8a20.658,20.658,0,0,0-8.376-2.085,1.165,1.165,0,0,0-.488.107l-7.983,3.467h0a1.164,1.164,0,0,0-.6.5l-11.7,18.718a1.23,1.23,0,0,0,.179,1.537l4.682,4.683a1.244,1.244,0,0,0,1.561.155l6.708-4.48.7-.036a6.554,6.554,0,0,1-1.966,4.945c-5.254,5.254-5.29,10.39-5.111,12.189a3.547,3.547,0,0,0-2.037,3.205v.286a3.559,3.559,0,0,0,3.551,3.551h27.3a3.56,3.56,0,0,0,3.551-3.551v-.286A3.544,3.544,0,0,0,262.9,302.358ZM248.326,263.42a18.434,18.434,0,0,1,7.1,1.859c4.694,2.371,7.065,6.6,7.065,12.546,0,5.362-.048,10.1-.071,12.248h-2.883c.036-.6.083-1.215.119-1.871.167-2.431.346-5.171.346-8.507,0-4.814-1.525-8.591-4.528-11.236a17.868,17.868,0,0,0-9.663-3.944Zm-7.387,28.846a9.273,9.273,0,0,0,2.7-7.185,6.942,6.942,0,0,0,3.312-2.288c2.5-3.217,1.382-7.876,1.334-8.078a1.24,1.24,0,0,0-2.407.6c.012.036.87,3.717-.882,5.957-.965,1.239-2.633,1.871-4.933,1.871a1.268,1.268,0,0,0-.691.2l-6.172,4.111-3.265-3.265.584-.941a.9.9,0,0,0,.179.012,1.208,1.208,0,0,0,.87-.369,1.258,1.258,0,0,0,.369-.87,1.351,1.351,0,0,0-.214-.7l9.055-14.5c2-.143,8.781-.3,13.059,3.479,2.443,2.157,3.694,5.314,3.694,9.389,0,3.253-.179,5.957-.346,8.34-.369,5.469-.632,9.305,1.74,13.809h-17.05c-.048-1.74.405-5.552,4.432-9.58a1.238,1.238,0,0,0-1.751-1.751c-4.575,4.575-5.195,9.067-5.159,11.331h-2.9C236.471,300.118,236.924,296.293,240.939,292.266Zm23.031,13.928a1.068,1.068,0,0,1-1.072,1.072H235.6a1.068,1.068,0,0,1-1.072-1.072v-.286a1.068,1.068,0,0,1,1.072-1.072h27.3a1.068,1.068,0,0,1,1.072,1.072v.286Z" transform="translate(-227.13 -260.93)" fill="#7d6eb2"/>
      <path id="Trazado_125759" data-name="Trazado 125759" d="M238.727,271.962a1.246,1.246,0,0,0-1.74.214l-.536.691a1.246,1.246,0,0,0,.214,1.74,1.233,1.233,0,0,0,.763.262,1.253,1.253,0,0,0,.977-.477l.536-.691A1.247,1.247,0,0,0,238.727,271.962Z" transform="translate(-225.394 -258.867)" fill="#7d6eb2"/>
    </g>
    <path id="Trazado_125760" data-name="Trazado 125760" d="M390.734,148.066a39.969,39.969,0,1,1,40.153-39.784A40,40,0,0,1,390.734,148.066Z" transform="translate(65.735 11.588)" fill="#f5ca56"/>
    <g id="Grupo_55411" data-name="Grupo 55411" transform="translate(431.701 96.715)">
      <path id="Trazado_125761" data-name="Trazado 125761" d="M415.665,102.835a6.162,6.162,0,0,0-5.517-6.124V83.735a1.339,1.339,0,0,0-1.823-1.251l-25.462,9.889H368.935a1.325,1.325,0,0,0-.941.393,17.432,17.432,0,0,0-3.741,6.22c-1.156,3.479-1.454,8.71,3.741,13.9a1.346,1.346,0,0,0,.941.393h.31l10.545,16.693a1.323,1.323,0,0,0,1.132.62h10.938a1.332,1.332,0,0,0,1.334-1.334,1.274,1.274,0,0,0-.262-.786l-9.437-14.953,24.83,9.663a1.371,1.371,0,0,0,.489.1,1.35,1.35,0,0,0,1.334-1.346V108.947A6.142,6.142,0,0,0,415.665,102.835Zm-46.134-7.78h12.248v15.561H369.507C362.942,103.609,368.053,96.758,369.531,95.054Zm12.129,32.885L372.414,113.3h7.78l9.246,14.643Zm2.8-33.3,23.031-8.948v34.3l-23.031-8.96Zm25.688,11.629V99.415a3.484,3.484,0,0,1,0,6.851Z" transform="translate(-363.553 -82.395)" fill="#7d6eb2"/>
      <path id="Trazado_125762" data-name="Trazado 125762" d="M398.154,101.109h.179a1.334,1.334,0,1,0,0-2.669h-.179a1.334,1.334,0,0,0,0,2.669Z" transform="translate(-357.183 -79.323)" fill="#7d6eb2"/>
      <path id="Trazado_125763" data-name="Trazado 125763" d="M393.824,101.109H394a1.334,1.334,0,1,0,0-2.669h-.179a1.334,1.334,0,1,0,0,2.669Z" transform="translate(-358.012 -79.323)" fill="#7d6eb2"/>
      <path id="Trazado_125764" data-name="Trazado 125764" d="M389.484,101.109h.179a1.334,1.334,0,0,0,0-2.669h-.179a1.334,1.334,0,0,0,0,2.669Z" transform="translate(-358.843 -79.323)" fill="#7d6eb2"/>
      <path id="Trazado_125765" data-name="Trazado 125765" d="M385.154,101.109h.179a1.334,1.334,0,1,0,0-2.669h-.179a1.334,1.334,0,0,0,0,2.669Z" transform="translate(-359.672 -79.323)" fill="#7d6eb2"/>
    </g>
    <g id="Grupo_55412" data-name="Grupo 55412" transform="translate(582.336 296.579)">
      <path id="Trazado_125766" data-name="Trazado 125766" d="M529.764,330.077a39.969,39.969,0,1,1,40.153-39.784A40,40,0,0,1,529.764,330.077Z" transform="translate(-489.98 -250.14)" fill="#f5ca56"/>
    </g>
    <path id="Trazado_125767" data-name="Trazado 125767" d="M553.353,268.732a1.3,1.3,0,0,0-1.191-.8h-4.087v-4.087a1.288,1.288,0,0,0-2.192-.917l-4.194,4.206a25,25,0,1,0,7.077,7.292l4.313-4.313A1.276,1.276,0,0,0,553.353,268.732Zm-7.84-.036-4.134,4.134v-1.74l4.134-4.146ZM534.48,287.844a6.851,6.851,0,1,1-6.851-6.851,6.77,6.77,0,0,1,4.158,1.418l-2.24,2.24a3.723,3.723,0,1,0,1.8,3.181,3.882,3.882,0,0,0-.191-1.18l2.335-2.347A6.77,6.77,0,0,1,534.48,287.844Zm-.858-7.256a9.4,9.4,0,1,0,1.74,1.883l3.968-3.968a15.094,15.094,0,1,1-1.775-1.859Zm16.466,7.256a22.5,22.5,0,1,1-10.259-18.837l-.655.655a1.3,1.3,0,0,0-.381.906v3.753a17.627,17.627,0,1,0,2.776,2.9h3.872a1.233,1.233,0,0,0,.906-.381l.536-.536A22.326,22.326,0,0,1,550.089,287.844Zm-5.159-13.19h-1.74l4.146-4.146h1.74Z" transform="translate(94.777 48.817)" fill="#7d6eb2"/>
    <rect id="Rectángulo_30263" data-name="Rectángulo 30263" width="99.965" height="89.85" transform="translate(76.196 191.98)" fill="none"/>
    <g id="Grupo" transform="translate(77.345 187.384)">
      <text id="Conocer_" data-name="Conocer " transform="translate(22.495 14)" fill="#12263f" font-size="13" font-family="Roboto-Light, Roboto" font-weight="300"><tspan x="0" y="0">Conocer </tspan></text>
      <text id="deseos_y_" data-name="deseos y " transform="translate(20.994 31.157)" fill="#12263f" font-size="13" font-family="Roboto-Light, Roboto" font-weight="300"><tspan x="0" y="0">deseos y </tspan></text>
      <text id="necesidades_de_" data-name="necesidades de " transform="translate(0 48.315)" fill="#12263f" font-size="13" font-family="Roboto-Light, Roboto" font-weight="300"><tspan x="0" y="0">necesidades de </tspan></text>
      <text id="los_clientes" data-name="los clientes" transform="translate(13.547 65.472)" fill="#12263f" font-size="13" font-family="Roboto-Light, Roboto" font-weight="300"><tspan x="0" y="0">los clientes</tspan></text>
    </g>
    <rect id="Rectángulo_30264" data-name="Rectángulo 30264" width="99.965" height="89.85" transform="translate(241.883 191.98)" fill="none"/>
    <g id="Grupo-2" data-name="Grupo" transform="translate(243.242 187.384)">
      <text id="Diseñar_" data-name="Diseñar " transform="translate(24.723 14)" fill="#12263f" font-size="13" font-family="Roboto-Light, Roboto" font-weight="300"><tspan x="0" y="0">Diseñar </tspan></text>
      <text id="estrategias_" data-name="estrategias " transform="translate(13.499 31.157)" fill="#12263f" font-size="13" font-family="Roboto-Light, Roboto" font-weight="300"><tspan x="0" y="0">estrategias </tspan></text>
      <text id="impulsadas_por_" data-name="impulsadas por " transform="translate(0 48.315)" fill="#12263f" font-size="13" font-family="Roboto-Light, Roboto" font-weight="300"><tspan x="0" y="0">impulsadas por </tspan></text>
      <text id="los_clientes-2" data-name="los clientes" transform="translate(13.321 65.472)" fill="#12263f" font-size="13" font-family="Roboto-Light, Roboto" font-weight="300"><tspan x="0" y="0">los clientes</tspan></text>
    </g>
    <rect id="Rectángulo_30265" data-name="Rectángulo 30265" width="99.965" height="89.85" transform="translate(406.307 188.405)" fill="none"/>
    <g id="Grupo-3" data-name="Grupo" transform="translate(411.132 183.81)">
      <text id="Elaborar_" data-name="Elaborar " transform="translate(18.897 14)" fill="#12263f" font-size="13" font-family="Roboto-Light, Roboto" font-weight="300"><tspan x="0" y="0">Elaborar </tspan></text>
      <text id="programas_de_" data-name="programas de " transform="translate(1.275 31.157)" fill="#12263f" font-size="13" font-family="Roboto-Light, Roboto" font-weight="300"><tspan x="0" y="0">programas de </tspan></text>
      <text id="marketing_que_" data-name="marketing que " transform="translate(0 48.315)" fill="#12263f" font-size="13" font-family="Roboto-Light, Roboto" font-weight="300"><tspan x="0" y="0">marketing que </tspan></text>
      <text id="de_valor_al_" data-name="de valor al " transform="translate(13.166 65.472)" fill="#12263f" font-size="13" font-family="Roboto-Light, Roboto" font-weight="300"><tspan x="0" y="0">de valor al </tspan></text>
      <text id="cliente" transform="translate(24.485 82.629)" fill="#12263f" font-size="13" font-family="Roboto-Light, Roboto" font-weight="300"><tspan x="0" y="0">cliente</tspan></text>
    </g>
    <rect id="Rectángulo_30266" data-name="Rectángulo 30266" width="99.965" height="51.424" transform="translate(571.983 203.454)" fill="none"/>
    <g id="Grupo-4" data-name="Grupo" transform="translate(578.42 198.855)">
      <text id="Interacción_" data-name="Interacción " transform="translate(8.305 14)" fill="#12263f" font-size="13" font-family="Roboto-Light, Roboto" font-weight="300"><tspan x="0" y="0">Interacción </tspan></text>
      <text id="y_satisfacción_" data-name="y satisfacción " transform="translate(0 31.157)" fill="#12263f" font-size="13" font-family="Roboto-Light, Roboto" font-weight="300"><tspan x="0" y="0">y satisfacción </tspan></text>
      <text id="superiores" transform="translate(10.461 48.315)" fill="#12263f" font-size="13" font-family="Roboto-Light, Roboto" font-weight="300"><tspan x="0" y="0">superiores</tspan></text>
    </g>
    <g id="freepik--Board--inject-179" transform="translate(680.514 133.835)">
      <path id="Trazado_125768" data-name="Trazado 125768" d="M572.38,126.588l.667-.048.643,18.408-.655.048Z" transform="translate(-572.38 -111.063)" fill="#64a7b4"/>
      <path id="Trazado_125769" data-name="Trazado 125769" d="M573.1,147.256l.667-.036.31,9.043-.655.036Z" transform="translate(-572.242 -107.103)" fill="#64a7b4"/>
      <path id="Trazado_125770" data-name="Trazado 125770" d="M582.8,310.99,575.93,115.254c-.024-.894.477-1.656,1.12-1.7H770.523c.632,0,1.144.679,1.168,1.549l6.875,195.736c.036.894-.465,1.656-1.108,1.7H583.973C583.353,312.539,582.841,311.86,582.8,310.99Z" transform="translate(-571.7 -113.55)" fill="#d5f2e8" opacity="0.8"/>
    </g>
    <g id="freepik--Character--inject-2" transform="translate(871.342 111.745)">
      <path id="Trazado_125771" data-name="Trazado 125771" d="M809.1,339.78H801.63l.751,17.336h7.471Z" transform="translate(-719.311 -48.141)" fill="#eec1bb"/>
      <path id="Trazado_125772" data-name="Trazado 125772" d="M809.112,339.79l.381,8.936h-7.482l-.381-8.936Z" transform="translate(-719.311 -48.14)" opacity="0.2"/>
      <path id="Trazado_125773" data-name="Trazado 125773" d="M849.554,335.85l-7.3,1.6,7.339,16.121,7.3-1.573Z" transform="translate(-711.533 -48.894)" fill="#eec1bb"/>
      <path id="Trazado_125774" data-name="Trazado 125774" d="M853.343,344.177l-7.316,1.585-3.777-8.317,7.316-1.585Z" transform="translate(-711.533 -48.892)" opacity="0.2"/>
      <path id="Trazado_125775" data-name="Trazado 125775" d="M831.651,144.79c2.871,4.742,5.445,9.484,7.911,14.393a152.924,152.924,0,0,1,6.684,15.215c.5,1.323.941,2.7,1.382,4.075l.131.441a2.873,2.873,0,0,1,.119.512,9.974,9.974,0,0,1,.167,1.013,9.688,9.688,0,0,1,0,1.859,12.65,12.65,0,0,1-.572,3.05,26.585,26.585,0,0,1-4.718,8.4,66.052,66.052,0,0,1-12.213,11.7l-3.848-4.075a113.415,113.415,0,0,0,8.805-12.582,31.991,31.991,0,0,0,1.585-3.122,12.117,12.117,0,0,0,.906-2.788,3.636,3.636,0,0,0,0-.882v-.155h0c-.453-1.156-.929-2.3-1.466-3.467-2.061-4.647-4.48-9.305-6.958-13.94s-5.064-9.282-7.626-13.8Z" transform="translate(-715.422 -85.478)" fill="#eec1bb"/>
      <path id="Trazado_125776" data-name="Trazado 125776" d="M831.783,195.054c-.774,3.539-4.623,5.278-4.623,5.278l-4.42-7.435,5.254-1.728Z" transform="translate(-715.269 -76.597)" fill="#eec1bb"/>
      <path id="Trazado_125777" data-name="Trazado 125777" d="M823.891,192.63l4.42,7.435-6.47,1.156L816.73,195.5Z" transform="translate(-716.419 -76.318)" fill="#eec1bb"/>
      <path id="Trazado_125778" data-name="Trazado 125778" d="M800.633,114.582c-.381-.1-.8.334-.917.929s.1,1.12.477,1.215.8-.334.917-.929S801.014,114.677,800.633,114.582Z" transform="translate(-719.684 -91.265)" fill="#2e353a"/>
      <path id="Trazado_125779" data-name="Trazado 125779" d="M799.967,122.036a3.429,3.429,0,0,1-2.717-1.1,21.626,21.626,0,0,0,3.849-4.48Z" transform="translate(-720.149 -90.903)" fill="#d4827d"/>
      <path id="Trazado_125780" data-name="Trazado 125780" d="M803.439,113.378a2.78,2.78,0,0,0-2.383-.941h0a.368.368,0,0,1-.405-.3.352.352,0,0,1,.3-.405A3.554,3.554,0,0,1,804,112.9a.368.368,0,0,1,0,.5.474.474,0,0,1-.25.107A.344.344,0,0,1,803.439,113.378Z" transform="translate(-719.499 -91.812)" fill="#2e353a"/>
      <path id="Trazado_125781" data-name="Trazado 125781" d="M807.281,131.492c1.06,4.254,1.227,8.781-4.885,10.235,0,0-5.85,5.552,5.35,5.552,10.175,0,11.665-5.552,11.665-5.552-3.825-3.646-2.7-13.678-1.692-19.147Z" transform="translate(-719.456 -89.731)" fill="#eec1bb"/>
      <path id="Trazado_125782" data-name="Trazado 125782" d="M801.133,140.418s-1.084-2.169,2.728-2.967,14.882-.357,16.919.06c1.835.381.941,1.656.131,2.681Z" transform="translate(-719.433 -86.968)" fill="#fff"/>
      <path id="Trazado_125783" data-name="Trazado 125783" d="M848.214,351.206a.232.232,0,0,0,.107-.167.2.2,0,0,0-.107-.167c-.107-.036-2.419-.989-3.431-.5a.769.769,0,0,0-.453.524.712.712,0,0,0,.179.822,2.4,2.4,0,0,0,1.859.107A8.855,8.855,0,0,0,848.214,351.206Zm-.548-.143c-1.048.393-2.55.739-2.943.393-.06-.036-.167-.131-.06-.453a.484.484,0,0,1,.262-.31l.214-.072A5.961,5.961,0,0,1,847.666,351.063Z" transform="translate(-711.146 -46.14)" fill="#786ead"/>
      <path id="Trazado_125784" data-name="Trazado 125784" d="M848.115,351.5a.162.162,0,0,0,0-.179c-.036-.1-.643-2.157-1.656-2.669a.954.954,0,0,0-.786-.06.587.587,0,0,0-.453.572c.024.846,1.823,2.133,2.681,2.383h.083A.179.179,0,0,0,848.115,351.5Zm-1.871-2.55a4.318,4.318,0,0,1,1.37,2.109c-.822-.417-2.037-1.43-2.037-1.918,0-.036,0-.155.226-.226h.072A.5.5,0,0,1,846.245,348.947Z" transform="translate(-710.964 -46.466)" fill="#786ead"/>
      <path id="Trazado_125785" data-name="Trazado 125785" d="M802.39,354.727a.177.177,0,0,0,.143-.143.16.16,0,0,0-.1-.179c-.107-.071-2.717-1.561-3.956-1.227a.922.922,0,0,0-.572.417.662.662,0,0,0,0,.774c.31.429,1.227.56,2.2.56A13.248,13.248,0,0,0,802.39,354.727Zm-3.479-1.239a8.1,8.1,0,0,1,2.955.941c-1.394.191-3.289.179-3.634-.3-.083-.06-.131-.179,0-.393a.532.532,0,0,1,.346-.25,1.561,1.561,0,0,1,.334,0Z" transform="translate(-720.047 -45.585)" fill="#786ead"/>
      <path id="Trazado_125786" data-name="Trazado 125786" d="M802.184,355a.172.172,0,0,0,.071-.167c-.012-.083-.214-2.1-1.156-2.883a1.374,1.374,0,0,0-1.013-.31c-.477.048-.655.3-.655.5-.143.834,1.644,2.466,2.55,2.871h.072A.236.236,0,0,0,802.184,355Zm-1.966-3.014a1.107,1.107,0,0,1,.572.2,4.247,4.247,0,0,1,1.013,2.3c-.906-.548-2.121-1.823-2.037-2.335.012-.036.036-.191.345-.191h.107v.024Z" transform="translate(-719.733 -45.872)" fill="#786ead"/>
      <path id="Trazado_125787" data-name="Trazado 125787" d="M848.432,351.1c-1.454,2-3.694,4.158-9.055,6.613-1.191.548-.131,3.491,2.931,2.836s8.078-1.883,10.306-2.359c3.61-.786,5.04-.917,7.923-1.5a1.031,1.031,0,0,0,.25-.083,1.089,1.089,0,0,0,.536-1.442l-2.848-6.184a.629.629,0,0,0-.727-.369l-8.221,1.775A1.915,1.915,0,0,0,848.432,351.1Z" transform="translate(-712.174 -46.453)" fill="#2e353a"/>
      <path id="Trazado_125788" data-name="Trazado 125788" d="M803.384,354.184c-5.064,3.11-9.83,3.253-15.692,4.528-1.287.286-.417,3.4,2.633,3.4,5.076,0,8.817-.238,13.154-.238,3.694,0,7.959.214,10.9.214a1.785,1.785,0,0,0,.25-.024,1.107,1.107,0,0,0,.834-1.3l-1.477-6.648a.663.663,0,0,0-.643-.512H805.2A3.51,3.51,0,0,0,803.384,354.184Z" transform="translate(-722.089 -45.495)" fill="#2e353a"/>
      <path id="Trazado_125789" data-name="Trazado 125789" d="M809.94,155.572a172.937,172.937,0,0,1-18.682-2.55c-3.086-.6-6.208-1.251-9.27-2.085a73.548,73.548,0,0,1-9.329-3.05c-.786-.286-1.573-.643-2.371-1.013a20.8,20.8,0,0,1-2.538-1.489,38.816,38.816,0,0,1-3.98-2.967c-2.526-1.99-4.849-4.075-7.125-6.172-4.551-4.206-8.876-8.567-13.035-13.154l3.741-4.182,14.774,10.616c2.431,1.763,4.9,3.467,7.316,5.088,1.2.81,2.431,1.573,3.551,2.2a11.886,11.886,0,0,0,1.465.715c.608.25,1.227.477,1.859.691a109.028,109.028,0,0,0,16.883,3.765c5.814.917,11.819,1.68,17.622,2.276Z" transform="translate(-730.42 -90.434)" fill="#eec1bb"/>
      <path id="Trazado_125790" data-name="Trazado 125790" d="M820.912,154.668c3.968,8.364,15.656,25.664,15.656,25.664l11.45-3.813S836.246,141.7,829.228,140.1C822.068,138.464,816.8,145.911,820.912,154.668Z" transform="translate(-715.895 -86.42)" fill="#2e353a"/>
      <path id="Trazado_125791" data-name="Trazado 125791" d="M834.569,179.231c1.394.822,11.8-1.191,12.594-2.574s-.345-6.1-1.239-7.387C843.35,170.855,832.15,173,832.15,173S833.175,178.409,834.569,179.231Z" transform="translate(-713.467 -80.791)" fill="#2e353a"/>
      <path id="Trazado_125792" data-name="Trazado 125792" d="M834.569,179.231c1.394.822,11.8-1.191,12.594-2.574s-.345-6.1-1.239-7.387C843.35,170.855,832.15,173,832.15,173S833.175,178.409,834.569,179.231Z" transform="translate(-713.467 -80.791)" fill="#f9f9f9" opacity="0.2"/>
      <path id="Trazado_125793" data-name="Trazado 125793" d="M804.588,138.689a150.1,150.1,0,0,1,17.014,0,103.368,103.368,0,0,1,13.392,1.692c-5.922,28.929-2.061,58.931-2.347,65.031h-40c-7.518-55.654.441-64.65.441-64.65A73.853,73.853,0,0,1,804.588,138.689Z" transform="translate(-721.649 -86.693)" fill="#2e353a"/>
      <path id="Trazado_125794" data-name="Trazado 125794" d="M805.7,139.372c-9.246.179-31.741-4.492-31.741-4.492l-5.767,11.1s35.983,14.762,43.155,7.363C816.767,147.712,817.112,139.134,805.7,139.372Z" transform="translate(-725.714 -87.376)" fill="#2e353a"/>
      <path id="Trazado_125795" data-name="Trazado 125795" d="M770.23,132.821c-1.549.524-6.863,9.711-6.3,11.2s4.837,3.741,6.41,3.9c.453-2.967,6.2-12.844,6.2-12.844S771.778,132.285,770.23,132.821Z" transform="translate(-726.538 -87.783)" fill="#2e353a"/>
      <path id="Trazado_125796" data-name="Trazado 125796" d="M770.23,132.821c-1.549.524-6.863,9.711-6.3,11.2s4.837,3.741,6.41,3.9c.453-2.967,6.2-12.844,6.2-12.844S771.778,132.285,770.23,132.821Z" transform="translate(-726.538 -87.783)" fill="#f9f9f9" opacity="0.2"/>
      <path id="Trazado_125797" data-name="Trazado 125797" d="M746.835,124.84c-5.362.894-8.745-4.778-8.745-4.778l5.481-6.112,5.088,5.993Z" transform="translate(-731.477 -91.383)" fill="#eec1bb"/>
      <path id="Trazado_125798" data-name="Trazado 125798" d="M744.586,114.416l-5.481,6.077-6.565-6.077,4.933-2.836Z" transform="translate(-732.54 -91.837)" fill="#eec1bb"/>
      <path id="Trazado_125799" data-name="Trazado 125799" d="M821.421,115.283a10.126,10.126,0,0,0-11.879-7.983c-7.7,1.442-10.878,12.022-10.64,18.861.25,7.59,8.543,12.749,15.2,8.257,4.444-2.979,5.207-7.268,7.125-14.453A9.882,9.882,0,0,0,821.421,115.283Z" transform="translate(-719.835 -92.693)" fill="#eec1bb"/>
      <path id="Trazado_125800" data-name="Trazado 125800" d="M802.138,112.3a16.882,16.882,0,0,1,5.874,10.735c.465,3.312,1.346,6.267,3.908,7.673-.048,1.156.691,1.5,1.775,1.358.036.906.858,1.215,1.99,1.108.119.953,1.215,1.156,2.6.882a2.653,2.653,0,0,1,.215-1.215,4.167,4.167,0,0,0,1.656.346c-.072-1.013,3.67-5.195,4.814-7.03,2.633-2.7,4.659-5.767,4.98-7.8.667-4.146-.882-4.6-1.906-5.469a11.341,11.341,0,0,1,4.075-2.657c-2.621-1.06-4.134-.286-4.885.417V109.51h0c-.179-9.722-26.606-3.789-21.518-14.5C794.918,101.623,796.955,108.164,802.138,112.3Z" transform="translate(-720.021 -95.01)" fill="#2e353a"/>
      <path id="Trazado_125801" data-name="Trazado 125801" d="M807.135,114.729c-2.145.62-3.324,3.67-3.443,5.707-.131,2.18,1.311,3.622,3.265,2.18a8.307,8.307,0,0,0,3.05-4.456C810.578,116,809.279,114.11,807.135,114.729Z" transform="translate(-718.918 -91.257)" fill="#eec1bb"/>
      <path id="Trazado_125802" data-name="Trazado 125802" d="M829.849,194.61s6.613,55.5,9.77,80.7c2.907,23.222,23.341,93.6,23.341,93.6l-13.392,2.907s-27.309-75.218-32.4-98.631c-4.647-21.375-13.142-78.53-13.142-78.53Z" transform="translate(-718.851 -75.939)" fill="#786ead"/>
      <path id="Trazado_125803" data-name="Trazado 125803" d="M829.849,194.61s6.613,55.5,9.77,80.7c2.907,23.222,23.341,93.6,23.341,93.6l-13.392,2.907s-27.309-75.218-32.4-98.631c-4.647-21.375-13.142-78.53-13.142-78.53Z" transform="translate(-718.851 -75.939)" opacity="0.5"/>
      <path id="Trazado_125804" data-name="Trazado 125804" d="M806.69,212.015c2.836,18.17,6.97,43.775,9.806,57.084,1.18-18.825,2.216-55.428-7.59-57.346A3.379,3.379,0,0,0,806.69,212.015Z" transform="translate(-718.342 -72.671)" opacity="0.3"/>
      <path id="Trazado_125805" data-name="Trazado 125805" d="M818.5,194.65s-3.062,55.094-3.682,80.544c-.548,23.293-1.013,99.6-1.013,99.6h-12.63s-8.317-77.684-9.163-101.407c-.81-22.8.214-78.733.214-78.733Z" transform="translate(-721.212 -75.931)" fill="#786ead"/>
      <path id="Trazado_125806" data-name="Trazado 125806" d="M818.5,194.65s-3.062,55.094-3.682,80.544c-.548,23.293-1.013,99.6-1.013,99.6h-12.63s-8.317-77.684-9.163-101.407c-.81-22.8.214-78.733.214-78.733Z" transform="translate(-721.212 -75.931)" opacity="0.5"/>
      <path id="Trazado_125807" data-name="Trazado 125807" d="M803.211,365.015a.122.122,0,0,1-.131-.119c-2.216-21.494-7.483-73.5-8.15-92.185-.679-19.087-.072-61.8.143-74.432a.119.119,0,0,1,.119-.119h0a.132.132,0,0,1,.131.131c-.214,12.63-.822,55.332-.143,74.408.655,18.682,5.91,70.69,8.15,92.173v.012a.122.122,0,0,1-.119.131Z" transform="translate(-720.653 -75.259)" fill="#f9f9f9" opacity="0.2"/>
      <path id="Trazado_125808" data-name="Trazado 125808" d="M855.858,337.14l1.263,4.528-15.06,3.253s-2.55-4.837-2.49-4.837Z" transform="translate(-712.046 -48.647)" fill="#2e353a"/>
      <path id="Trazado_125809" data-name="Trazado 125809" d="M814.108,342.162l-.417,4.694H798.285s-.775-5.266-.715-5.266Z" transform="translate(-720.089 -47.795)" fill="#2e353a"/>
    </g>
    <g id="Grupo_55414" data-name="Grupo 55414" transform="translate(725.779 154.21)">
      <circle id="Elipse_4245" data-name="Elipse 4245" cx="76.815" cy="76.815" r="76.815" fill="#fff" opacity="0.64"/>
      <g id="Grupo_55413" data-name="Grupo 55413" transform="translate(11.791 11.803)">
        <circle id="Elipse_4246" data-name="Elipse 4246" cx="53.223" cy="53.223" r="53.223" transform="matrix(0.255, -0.967, 0.967, 0.255, 0, 102.923)" fill="#64a7b4"/>
      </g>
    </g>
    <rect id="Rectángulo_30267" data-name="Rectángulo 30267" width="99.965" height="56.428" transform="translate(752.623 204.764)" fill="none"/>
    <g id="Grupo-5" data-name="Grupo" transform="translate(758.067 199.606)">
      <text id="Captar_valor_" data-name="Captar valor " transform="translate(0 17)" fill="#fff" font-size="16" font-family="Roboto-Light, Roboto" font-weight="300"><tspan x="0" y="0">Captar valor </tspan></text>
      <text id="y_obtener_" data-name="y obtener " transform="translate(10.294 37.017)" fill="#fff" font-size="16" font-family="Roboto-Light, Roboto" font-weight="300"><tspan x="0" y="0">y obtener </tspan></text>
      <text id="utilidades" transform="translate(9.127 57.034)" fill="#fff" font-size="16" font-family="Roboto-Light, Roboto" font-weight="300"><tspan x="0" y="0">utilidades</tspan></text>
    </g>
    <path id="Trazado_125810" data-name="Trazado 125810" d="M605.2,211.592,582.224,303.17l-7.3-181.01Z" transform="translate(108.621 21.934)" fill="#64a7b4"/>
  </g>
</svg>
