<svg xmlns="http://www.w3.org/2000/svg" xmlns:xlink="http://www.w3.org/1999/xlink" width="123.832" height="123.833" viewBox="0 0 123.832 123.833">
  <defs>
    <radialGradient id="radial-gradient" cx="0.076" cy="0.019" r="1.465" gradientTransform="translate(0.001)" gradientUnits="objectBoundingBox">
      <stop offset="0" stop-color="#f6f6f7"/>
      <stop offset="0.477" stop-color="#f9f9fa"/>
      <stop offset="0.715" stop-color="#fff"/>
    </radialGradient>
  </defs>
  <g id="Grupo_55804" data-name="Grupo 55804" transform="translate(8305.348 923)">
    <g id="Grupo_46891" data-name="Grupo 46891" transform="translate(-8305.348 -923)">
      <g id="Grupo_42274" data-name="Grupo 42274" transform="translate(0 0)">
        <g id="Grupo_18423" data-name="Grupo 18423" transform="translate(0 0)">
          <g id="Grupo_18421" data-name="Grupo 18421">
            <g id="Grupo_18420" data-name="Grupo 18420">
              <g id="Grupo_18419" data-name="Grupo 18419">
                <path id="Trazado_40936" data-name="Trazado 40936" d="M318.456,2207.635a61.916,61.916,0,1,1-61.915-61.915A61.915,61.915,0,0,1,318.456,2207.635Z" transform="translate(-194.623 -2145.721)" fill="#fff"/>
              </g>
            </g>
          </g>
          <path id="Trazado_40937" data-name="Trazado 40937" d="M317.728,2206.843a61.915,61.915,0,1,0-61.915,61.918A61.672,61.672,0,0,0,317.728,2206.843Z" transform="translate(-193.895 -2144.928)" fill="url(#radial-gradient)"/>
          <path id="Trazado_40938" data-name="Trazado 40938" d="M296.6,2200.4a47.26,47.26,0,1,0-47.26,47.26A47.084,47.084,0,0,0,296.6,2200.4Z" transform="translate(-187.238 -2138.278)" fill="none" stroke="#26aab7" stroke-miterlimit="10" stroke-width="4"/>
          <g id="Grupo_18422" data-name="Grupo 18422" transform="translate(10.969 34.762)">
            <path id="Trazado_40939" data-name="Trazado 40939" d="M307.148,2164.488a61.924,61.924,0,0,1-106.6,61.66,61.727,61.727,0,0,0,106.6-61.66Z" transform="translate(-200.545 -2164.488)" fill="#eceef0"/>
          </g>
        </g>
      </g>
    </g>
    <path id="Trazado_128693" data-name="Trazado 128693" d="M55.007,67.656H12.351a2.344,2.344,0,0,1-2.344-2.344V12.344A2.344,2.344,0,0,1,12.351,10H55.007a2.344,2.344,0,0,1,2.344,2.344V65.313A2.344,2.344,0,0,1,55.007,67.656Z" transform="translate(-8277.335 -899.302)" fill="#fff"/>
    <circle id="Elipse_4318" data-name="Elipse 4318" cx="9.5" cy="9.5" r="9.5" transform="translate(-8253.5 -882.474)" fill="#fe6663"/>
    <path id="Trazado_128694" data-name="Trazado 128694" d="M192.1,112.547v.762a3.047,3.047,0,0,1-3.047,3.047h0a3.047,3.047,0,0,1-3.047-3.047v-.762a3.047,3.047,0,0,1,3.047-3.047h0A3.047,3.047,0,0,1,192.1,112.547Z" transform="translate(-8432.71 -987.142)" fill="#ffcdac"/>
    <path id="Trazado_128695" data-name="Trazado 128695" d="M162.718,168h0a7.032,7.032,0,0,0-6.543,4.457,9.6,9.6,0,0,0,13.086,0A7.032,7.032,0,0,0,162.718,168Z" transform="translate(-8406.374 -1038.786)" fill="#a5ddff"/>
    <path id="Trazado_128696" data-name="Trazado 128696" d="M330.524,137.723l.67-1.16a3.75,3.75,0,0,1,5.123-1.373h0a3.75,3.75,0,0,1,1.373,5.123l-14.747,25.543-6.5-3.75,6.361-11.018Z" transform="translate(-8547.864 -1009.378)" fill="#ffbc53"/>
    <path id="Trazado_128697" data-name="Trazado 128697" d="M434.3,135.19h0a3.75,3.75,0,0,0-5.123,1.373l-1.741,3.016,6.5,3.75,1.741-3.016A3.75,3.75,0,0,0,434.3,135.19Z" transform="translate(-8645.843 -1009.377)" fill="#fe6663"/>
    <path id="Trazado_128698" data-name="Trazado 128698" d="M315.122,372.406l-7.533,5.548,1.038-9.3Z" transform="translate(-8540.044 -1215.928)" fill="#9ad8ff"/>
    <path id="Trazado_128699" data-name="Trazado 128699" d="M48.523,46.679a1.172,1.172,0,0,0-1.172,1.172v8.633a1.173,1.173,0,0,1-1.172,1.172H3.523a1.173,1.173,0,0,1-1.172-1.172V3.516A1.173,1.173,0,0,1,3.523,2.344H46.179a1.173,1.173,0,0,1,1.172,1.172V16.26a1.172,1.172,0,0,0,2.344,0V3.516A3.52,3.52,0,0,0,46.179,0H3.523A3.52,3.52,0,0,0,.007,3.516V56.484A3.52,3.52,0,0,0,3.523,60H46.179a3.52,3.52,0,0,0,3.516-3.516V47.851A1.172,1.172,0,0,0,48.523,46.679Z" transform="translate(-8268.507 -890.474)"/>
    <path id="Trazado_128700" data-name="Trazado 128700" d="M141.569,64.781a10.781,10.781,0,1,0-18.178,7.836,1.159,1.159,0,0,0,.126.117,10.761,10.761,0,0,0,14.541,0,1.173,1.173,0,0,0,.126-.117A10.751,10.751,0,0,0,141.569,64.781Zm-10.781-8.437a8.432,8.432,0,0,1,6.79,13.439,8.13,8.13,0,0,0-3.453-2.894,4.2,4.2,0,0,0,.882-2.576v-.762a4.219,4.219,0,0,0-8.438,0v.762a4.2,4.2,0,0,0,.882,2.576A8.13,8.13,0,0,0,124,69.783a8.432,8.432,0,0,1,6.79-13.439Zm-1.875,7.969v-.762a1.875,1.875,0,0,1,3.75,0v.762a1.875,1.875,0,0,1-3.75,0ZM125.692,71.5a5.859,5.859,0,0,1,10.193,0,8.415,8.415,0,0,1-10.193,0Z" transform="translate(-8374.444 -938.146)"/>
    <path id="Trazado_128701" data-name="Trazado 128701" d="M209.507,438h-6.328a1.172,1.172,0,0,0,0,2.344h6.328a1.172,1.172,0,1,0,0-2.344Z" transform="translate(-8446.835 -1277.146)"/>
    <path id="Trazado_128702" data-name="Trazado 128702" d="M131.819,382H115.179a1.172,1.172,0,0,0,0,2.344h16.641a1.172,1.172,0,1,0,0-2.344Z" transform="translate(-8369.147 -1227.708)"/>
    <path id="Trazado_128703" data-name="Trazado 128703" d="M131.819,326H115.179a1.172,1.172,0,0,0,0,2.344h16.641a1.172,1.172,0,1,0,0-2.344Z" transform="translate(-8369.147 -1178.271)"/>
    <path id="Trazado_128704" data-name="Trazado 128704" d="M73.288,270.343a1.171,1.171,0,1,0,.343.829A1.181,1.181,0,0,0,73.288,270.343Z" transform="translate(-8331.434 -1128.833)"/>
    <path id="Trazado_128705" data-name="Trazado 128705" d="M73.288,326.343a1.171,1.171,0,1,0,.343.828A1.183,1.183,0,0,0,73.288,326.343Z" transform="translate(-8331.434 -1178.271)"/>
    <path id="Trazado_128706" data-name="Trazado 128706" d="M72.459,382a1.173,1.173,0,1,0,.83.343A1.183,1.183,0,0,0,72.459,382Z" transform="translate(-8331.434 -1227.708)"/>
    <path id="Trazado_128707" data-name="Trazado 128707" d="M131.819,270H115.179a1.172,1.172,0,0,0,0,2.344h16.641a1.172,1.172,0,1,0,0-2.344Z" transform="translate(-8369.147 -1128.833)"/>
    <path id="Trazado_128708" data-name="Trazado 128708" d="M320.255,125.337a4.922,4.922,0,0,0-6.723,1.8l-14.747,25.543a1.174,1.174,0,0,0-.15.456l-1.038,9.3a1.172,1.172,0,0,0,1.86,1.074l7.533-5.548a1.17,1.17,0,0,0,.32-.358l14.747-25.543A4.927,4.927,0,0,0,320.255,125.337Zm-19.49,29.841,3.392,1.958-3.934,2.9Zm5.1.238-4.465-2.578,11.834-20.5,4.465,2.578Zm14.161-24.528-1.155,2-4.465-2.578,1.155-2a2.578,2.578,0,0,1,4.465,2.578Z" transform="translate(-8531.216 -1000.538)"/>
  </g>
</svg>
