<svg xmlns="http://www.w3.org/2000/svg" width="352" height="252.371" viewBox="0 0 352 252.371">
  <g id="Grupo_55809" data-name="Grupo 55809" transform="translate(10734 5596.417)">
    <text id="Demanda" transform="translate(-10600.5 -5558)" fill="#12263f" font-size="20" font-family="Roboto-Black, Roboto" font-weight="800"><tspan x="0" y="0">Demanda</tspan></text>
    <g id="Grupo_55805" data-name="Grupo 55805" transform="translate(-11609 -10815)">
      <g id="Image_Place_Holder" data-name="Image Place Holder" transform="translate(875 5218.583)" opacity="0.1">
        <rect id="Image_Place_Holder-2" data-name="Image Place Holder" width="352" height="252.371" rx="10" transform="translate(0 0)" fill="#7d6eb2"/>
      </g>
      <g id="Pizza_maker-pana" data-name="Pizza maker-pana" transform="translate(852.926 5066.859)">
        <g id="freepik--Pizza--inject-696" transform="translate(44.114 270.739)">
          <path id="Trazado_125043" data-name="Trazado 125043" d="M205.822,410.54,184,418.772l-53.77,67.257L141.747,500.1l280.095-2.01-45.1-81.428Z" transform="translate(-130.191 -408.299)" fill="#263238"/>
          <path id="Trazado_125044" data-name="Trazado 125044" d="M147.823,460.36a82.187,82.187,0,0,1-8.605,5.977,77.749,77.749,0,0,1-9.017,5.372,85.032,85.032,0,0,1,8.618-5.939,81.673,81.673,0,0,1,9-5.411Z" transform="translate(-130.2 -393.94)" fill="#455a64"/>
          <path id="Trazado_125045" data-name="Trazado 125045" d="M151.971,471.711a32.21,32.21,0,0,1-5.81,6.222,32.977,32.977,0,0,1-6.84,5.05c-.116-.155,2.911-2.435,6.441-5.539S151.791,471.582,151.971,471.711Z" transform="translate(-127.572 -390.67)" fill="#455a64"/>
          <path id="Trazado_125046" data-name="Trazado 125046" d="M202.325,410.98l-58,64.732H434.048L379.982,410.98Z" transform="translate(-126.128 -408.172)" fill="#455a64"/>
          <path id="Trazado_125047" data-name="Trazado 125047" d="M143.88,460.79l6.518,18.138,281.009-3.9,2.2-14.235Z" transform="translate(-126.257 -393.816)" fill="#455a64"/>
          <path id="Trazado_125048" data-name="Trazado 125048" d="M200.2,409.08l2.95,9.623L150.4,493.831l-6.518-18.138Z" transform="translate(-126.257 -408.719)" fill="#455a64"/>
          <path id="Trazado_125049" data-name="Trazado 125049" d="M367.042,408.8v9.559l-176.394.425-3.388-9.623Z" transform="translate(-113.755 -408.8)" fill="#455a64"/>
          <path id="Trazado_125050" data-name="Trazado 125050" d="M326.82,418.358l51.863,71.65,2.2-14.235L326.82,408.8Z" transform="translate(-73.533 -408.8)" fill="#455a64"/>
          <path id="Trazado_125051" data-name="Trazado 125051" d="M433.6,460.956H391.227L288.8,460.75c-40.012,0-76.236,0-102.451.077l-31.033.129h-8.451l8.438-.155,31.046-.348c26.215-.219,62.439-.322,102.451-.27s76.21.219,102.425.412l31.046.258,8.438.116h2.2Z" transform="translate(-126.243 -393.995)" fill="#263238"/>
          <path id="Trazado_125052" data-name="Trazado 125052" d="M158.85,476.08a3.56,3.56,0,0,1,.438-.708c.335-.5.786-1.134,1.288-1.932l5.024-7.021,16.747-23.007,16.231-21.99v.219l-2.357-9.172c-.258-1.031-.464-1.855-.618-2.5a6.105,6.105,0,0,1-.167-.889,4.315,4.315,0,0,1,.309.85q.3.953.734,2.473l2.576,9.108v.1l-.077.1c-4.225,5.8-9.881,13.552-16.09,22.093L165.974,466.7c-2.164,2.86-3.865,5.153-5.153,6.892l-1.443,1.855a3.529,3.529,0,0,1-.528.631Z" transform="translate(-121.943 -408.719)" fill="#263238"/>
          <path id="Trazado_125053" data-name="Trazado 125053" d="M366.264,408.8a3.755,3.755,0,0,1,0,.618v1.829c0,1.649,0,4.032.064,7.111v.142h-.142c-14.75.386-46.543,1.056-83.321,1.752l-65.7,1.134-19.9.258h-5.423l5.41-.168,19.9-.477,65.7-1.288c36.778-.7,68.571-1.211,83.334-1.366l-.142.142c0-3.079,0-5.462.064-7.111v-1.829A3.742,3.742,0,0,1,366.264,408.8Z" transform="translate(-112.977 -408.8)" fill="#263238"/>
          <path id="Trazado_125054" data-name="Trazado 125054" d="M370.046,473.636c-.142.116-9.945-12.65-21.9-28.508s-21.5-28.791-21.346-28.907,9.945,12.65,21.9,28.508S370.2,473.52,370.046,473.636Z" transform="translate(-73.539 -406.662)" fill="#263238"/>
          <path id="Trazado_125055" data-name="Trazado 125055" d="M191.178,456.594A7,7,0,0,1,187.442,451a20.612,20.612,0,0,1,.683-6.969c.683-3.195,1.546-6.673,4.161-8.644s6.274-1.829,9.365-3.014c4.187-1.585,7.162-5.539,11.4-6.969s8.644-.193,12.882-.928c4.818-.837,8.94-4.058,13.719-5.076,5.436-1.147,10.988.657,16.489,1.43,7.175,1,14.467.232,21.706,0a139.852,139.852,0,0,1,34,3.182s8.077-1.919,13.217.644,6.982,3.865,12.122,5.565,17.4,5.32,19.259,10.654.992,6,.992,6l-25.957-11.8-21.822-5.707-34.782-3-34.588.425-21.191,6.145-12.985,7.188-7.729,7.729.438,6.853Z" transform="translate(-113.718 -405.851)" fill="#daa764"/>
          <path id="Trazado_125056" data-name="Trazado 125056" d="M273.464,449.686l-80.333,8.36a9.288,9.288,0,0,1-3.865-8.3c0-15.175,38.015-27.671,84.2-27.671s84.223,12.431,84.223,27.606Z" transform="translate(-113.185 -404.973)" fill="#e8b990"/>
          <g id="Grupo_55363" data-name="Grupo 55363" transform="translate(88.626 21.771)" opacity="0.3">
            <path id="Trazado_125057" data-name="Trazado 125057" d="M341.141,444.765c.85-2.074-.708-4.483-2.731-5.436a15.214,15.214,0,0,0-6.608-.85,10.95,10.95,0,0,1-6.441-1.443c-2.293-1.649-3.349-4.921-6.042-5.8-3.452-1.134-7.034,2.576-10.576,1.7-2.422-.567-3.865-3.027-6.183-4.045-4.29-1.932-9.017,1.868-13.745,1.559s-8.5-4.637-13.191-4.483c-3.233.116-6.132,2.383-9.365,2.306s-6.2-2.576-9.494-2.576c-4.882,0-8.747,5.539-13.565,4.779-3.465-.541-6.209-4.264-9.662-3.658-3.066.554-4.638,4.264-7.6,5.23-2.435.8-5.217-.438-7.588.5-3.865,1.52-4.573,7.9-8.7,8.4-2.473.309-5.243-1.8-7.253-.348-1.288.953-1.391,2.9-.992,4.483a12.883,12.883,0,0,1,.876,4.767c-.232,1.61-6.351,2.344-1.288,2.1l69.692-7.034Z" transform="translate(-198.998 -425.7)" fill="#fff"/>
          </g>
          <path id="Trazado_125058" data-name="Trazado 125058" d="M273.317,440.657a7.367,7.367,0,0,1-.876.155l-2.576.309-9.339,1.056L229.7,445.371l-28.482,2.783h-.167l-.09-.155a6.08,6.08,0,0,0-4.947-3.1,5.784,5.784,0,0,0-4.251,1.546,6.441,6.441,0,0,0-1.675,2.435c-.245.644-.283,1-.322,1s0-.09,0-.271a5.153,5.153,0,0,1,.167-.786,6.441,6.441,0,0,1,1.623-2.576,6.132,6.132,0,0,1,4.47-1.752,6.557,6.557,0,0,1,5.372,3.272l-.245-.129,28.469-2.95,30.853-3,9.352-.837,2.576-.193A3.6,3.6,0,0,1,273.317,440.657Z" transform="translate(-113.038 -399.627)" fill="#263238"/>
          <path id="Trazado_125059" data-name="Trazado 125059" d="M211.265,433.81c.077,0-.451,1.031-1.971,1.816a14.172,14.172,0,0,1-2.731.992,17.849,17.849,0,0,0-3.246,1.095c-2.19,1.018-2.886,3.388-4.032,4.612a3.953,3.953,0,0,1-2.254,1.443,7.4,7.4,0,0,0,1.881-1.726c.477-.644.9-1.494,1.481-2.422a6.261,6.261,0,0,1,2.576-2.5,15.7,15.7,0,0,1,3.388-1.108,15.456,15.456,0,0,0,2.68-.824A10,10,0,0,0,211.265,433.81Z" transform="translate(-110.939 -401.592)" fill="#263238"/>
          <path id="Trazado_125060" data-name="Trazado 125060" d="M312.623,436.821a6.184,6.184,0,0,0-2.679-1.456,33.89,33.89,0,0,0-11.787-1.662,72.15,72.15,0,0,1-9.43.387,44.832,44.832,0,0,1-7.085-1.533c-3.5-.889-7.059-1.52-10.615-2.151a29,29,0,0,0-10.035-.58c-2.216.4-4.354,1.288-6.609,1.352a47.038,47.038,0,0,1-5.32-.708,50.4,50.4,0,0,0-7.729.412c-2.576.142-5.848.1-7.845-1.546h0c-1.546-1.366-4.032-.4-5.462,1.082s-2.435,3.427-4.212,4.457c-2.821,1.649-6.931.541-9.224,2.873s-.94,6.441,1.778,8.09,6.17,1.391,9.275.708c5.024-1.108,10.061-3.182,15.149-2.409,3.04.464,6.106,1.932,9.017,1.069s5.153-4.135,8.36-4.522c2.576-.309,4.921,1.288,7.472,1.8,3.014.554,6.042-.618,9.017-.9,4.831-.438,9.546,1.366,14.364,1.971,7.253.927,14.557-.863,21.655-2.576a3.62,3.62,0,0,0,2.332-1.288A2.422,2.422,0,0,0,312.623,436.821Z" transform="translate(-106.214 -403.07)" fill="#e8b990"/>
          <g id="Grupo_55364" data-name="Grupo 55364" transform="translate(107.211 25.611)" opacity="0.4">
            <path id="Trazado_125061" data-name="Trazado 125061" d="M312.623,436.821a6.184,6.184,0,0,0-2.679-1.456,33.89,33.89,0,0,0-11.787-1.662,72.15,72.15,0,0,1-9.43.387,44.832,44.832,0,0,1-7.085-1.533c-3.5-.889-7.059-1.52-10.615-2.151a29,29,0,0,0-10.035-.58c-2.216.4-4.354,1.288-6.609,1.352a47.038,47.038,0,0,1-5.32-.708,50.4,50.4,0,0,0-7.729.412c-2.576.142-5.848.1-7.845-1.546h0c-1.546-1.366-4.032-.4-5.462,1.082s-2.435,3.427-4.212,4.457c-2.821,1.649-6.931.541-9.224,2.873s-.94,6.441,1.778,8.09,6.17,1.391,9.275.708c5.024-1.108,10.061-3.182,15.149-2.409,3.04.464,6.106,1.932,9.017,1.069s5.153-4.135,8.36-4.522c2.576-.309,4.921,1.288,7.472,1.8,3.014.554,6.042-.618,9.017-.9,4.831-.438,9.546,1.366,14.364,1.971,7.253.927,14.557-.863,21.655-2.576a3.62,3.62,0,0,0,2.332-1.288A2.422,2.422,0,0,0,312.623,436.821Z" transform="translate(-213.425 -428.681)" fill="#fff"/>
          </g>
          <path id="Trazado_125062" data-name="Trazado 125062" d="M217.34,423.26a14.174,14.174,0,0,1,2.074.824l5.539,2.46c4.676,2.126,11.117,5.076,18.215,8.386,9.649,4.5,18.035,8.476,22.273,10.576h.09v.1q0,1.662-.077,2.744a3.183,3.183,0,0,1-.09.94,4.467,4.467,0,0,1-.077-.94q0-1.082-.077-2.744l.09.142c-4.341-1.907-12.766-5.758-22.415-10.306-7.1-3.3-13.5-6.338-18.125-8.554l-5.462-2.667a13.866,13.866,0,0,1-1.958-.966Z" transform="translate(-105.086 -404.633)" fill="#263238"/>
          <path id="Trazado_125063" data-name="Trazado 125063" d="M284.751,421.6c.116.142-6.441,5.823-14.621,12.689S255.186,446.6,255.07,446.463s6.441-5.823,14.621-12.689S284.609,421.459,284.751,421.6Z" transform="translate(-94.212 -405.112)" fill="#263238"/>
          <path id="Trazado_125064" data-name="Trazado 125064" d="M248.294,424.58a18.782,18.782,0,0,1-14.724,1.688,52.257,52.257,0,0,0,7.459,0A52.588,52.588,0,0,0,248.294,424.58Z" transform="translate(-100.408 -404.252)" fill="#263238"/>
          <path id="Trazado_125065" data-name="Trazado 125065" d="M263.2,426.072l-6.364-.824a5.449,5.449,0,0,1,3.272-.245A5.553,5.553,0,0,1,263.2,426.072Z" transform="translate(-93.701 -404.172)" fill="#263238"/>
          <path id="Trazado_125066" data-name="Trazado 125066" d="M297.808,431.457a8.825,8.825,0,0,0-8.528-2.576,2.466,2.466,0,0,1,1.288-.631,6.789,6.789,0,0,1,6.441,1.932C297.666,430.89,297.937,431.418,297.808,431.457Z" transform="translate(-84.352 -403.245)" fill="#263238"/>
          <path id="Trazado_125067" data-name="Trazado 125067" d="M337.237,441.072a7.343,7.343,0,0,0-.528-1.095,6.777,6.777,0,0,0-2.37-2.435,6.067,6.067,0,0,0-5.153-.644,6.441,6.441,0,0,0-4.3,5v.232h-.232c-7.253-.077-16.45-.155-26.421-.18-12.109,0-23.059,0-30.994.116l-9.391.064h-2.576a4.359,4.359,0,0,1-.889,0,4.284,4.284,0,0,1,.889-.09l2.576-.116,9.391-.283c7.922-.18,18.885-.335,30.994-.309,9.971,0,19.169.154,26.434.322l-.271.232a6.943,6.943,0,0,1,4.7-5.333,6.441,6.441,0,0,1,5.4.8,6.712,6.712,0,0,1,2.357,2.576,3.862,3.862,0,0,1,.386,1.147Z" transform="translate(-94.41 -400.88)" fill="#263238"/>
          <path id="Trazado_125068" data-name="Trazado 125068" d="M223.5,440.861c0,2.409-3.13,4.354-6.995,4.354s-6.995-1.945-6.995-4.354,3.13-4.341,6.995-4.341S223.5,438.427,223.5,440.861Z" transform="translate(-107.342 -400.811)" fill="#c1507f"/>
          <path id="Trazado_125069" data-name="Trazado 125069" d="M216.921,441.721c.077.167,0,.4-.3.5a.425.425,0,0,1-.618-.09c-.077-.168,0-.386.3-.5a.425.425,0,0,1,.618.09Z" transform="translate(-105.478 -399.365)" fill="#e0e0e0"/>
          <path id="Trazado_125070" data-name="Trazado 125070" d="M217.2,440.177a.361.361,0,0,1-.155.477.338.338,0,0,1-.348-.58.361.361,0,0,1,.5.1Z" transform="translate(-105.318 -399.804)" fill="#e0e0e0"/>
          <path id="Trazado_125071" data-name="Trazado 125071" d="M218.951,440.221a.348.348,0,1,1-.477,0A.348.348,0,0,1,218.951,440.221Z" transform="translate(-104.79 -399.771)" fill="#e0e0e0"/>
          <path id="Trazado_125072" data-name="Trazado 125072" d="M213.391,439.344a.361.361,0,0,1-.644.3.355.355,0,0,1,.644-.3Z" transform="translate(-106.418 -400.053)" fill="#e0e0e0"/>
          <path id="Trazado_125073" data-name="Trazado 125073" d="M216.379,438.53a.374.374,0,0,1-.232.477.361.361,0,0,1-.5-.129.374.374,0,0,1,.219-.477A.387.387,0,0,1,216.379,438.53Z" transform="translate(-105.581 -400.283)" fill="#e0e0e0"/>
          <path id="Trazado_125074" data-name="Trazado 125074" d="M218.541,438.819a.306.306,0,0,1-.116.4.3.3,0,0,1-.361-.219.271.271,0,1,1,.477-.18Z" transform="translate(-104.895 -400.225)" fill="#c1507f"/>
          <path id="Trazado_125075" data-name="Trazado 125075" d="M214.583,437.567c.09.168-.116.425-.438.58s-.644.142-.721,0,.116-.425.438-.58S214.506,437.4,214.583,437.567Z" transform="translate(-106.219 -400.544)" fill="#e0e0e0"/>
          <path id="Trazado_125076" data-name="Trazado 125076" d="M211.158,438.841a.373.373,0,0,1-.245.438.361.361,0,0,1-.451-.219.348.348,0,0,1,.245-.425A.361.361,0,0,1,211.158,438.841Z" transform="translate(-107.071 -400.207)" fill="#e0e0e0"/>
          <path id="Trazado_125077" data-name="Trazado 125077" d="M211.314,440.637a.335.335,0,0,1-.129.464.335.335,0,1,1-.335-.58.335.335,0,0,1,.464.116Z" transform="translate(-107.008 -399.672)" fill="#e0e0e0"/>
          <path id="Trazado_125078" data-name="Trazado 125078" d="M214.186,441.865c.077.167,0,.386-.271.5a.412.412,0,0,1-.554-.116.477.477,0,0,1,.825-.386Z" transform="translate(-106.234 -399.315)" fill="#e0e0e0"/>
          <path id="Trazado_125079" data-name="Trazado 125079" d="M215.661,440.34a.736.736,0,0,1-.515.567c-.348.142-.709.129-.773,0s.155-.425.515-.58S215.6,440.159,215.661,440.34Z" transform="translate(-105.944 -399.748)" fill="#e0e0e0"/>
          <path id="Trazado_125080" data-name="Trazado 125080" d="M212.706,440.908a.309.309,0,0,1-.09.451.337.337,0,0,1-.335-.58.309.309,0,0,1,.425.129Z" transform="translate(-106.584 -399.595)" fill="#e0e0e0"/>
          <path id="Trazado_125081" data-name="Trazado 125081" d="M216.841,437.6a.309.309,0,1,1-.138-.194.309.309,0,0,1,.138.194Z" transform="translate(-105.398 -400.568)" fill="#e0e0e0"/>
          <ellipse id="Elipse_4233" data-name="Elipse 4233" cx="6.995" cy="4.341" rx="6.995" ry="4.341" transform="translate(199.608 30.827)" fill="#c1507f"/>
          <path id="Trazado_125082" data-name="Trazado 125082" d="M292.549,437.93c.077.167,0,.4-.3.5a.425.425,0,0,1-.567-.116c-.077-.167,0-.387.3-.5a.425.425,0,0,1,.567.116Z" transform="translate(-83.667 -400.456)" fill="#e0e0e0"/>
          <path id="Trazado_125083" data-name="Trazado 125083" d="M292.845,436.386a.385.385,0,1,1-.5-.09.348.348,0,0,1,.5.09Z" transform="translate(-83.524 -400.896)" fill="#e0e0e0"/>
          <path id="Trazado_125084" data-name="Trazado 125084" d="M294.587,436.431a.348.348,0,0,1,0,.49.335.335,0,1,1-.013-.528Z" transform="translate(-82.986 -400.864)" fill="#e0e0e0"/>
          <path id="Trazado_125085" data-name="Trazado 125085" d="M289.033,435.552a.335.335,0,0,1-.18.451.361.361,0,0,1-.477-.155.348.348,0,0,1,.193-.451A.361.361,0,0,1,289.033,435.552Z" transform="translate(-84.62 -401.144)" fill="#e0e0e0"/>
          <path id="Trazado_125086" data-name="Trazado 125086" d="M292.019,434.74a.374.374,0,0,1-.232.477.361.361,0,0,1-.5-.129.374.374,0,0,1,.219-.477A.387.387,0,0,1,292.019,434.74Z" transform="translate(-83.781 -401.375)" fill="#e0e0e0"/>
          <path id="Trazado_125087" data-name="Trazado 125087" d="M294.181,435.059a.306.306,0,0,1-.116.4.3.3,0,0,1-.361-.219.271.271,0,1,1,.477-.18Z" transform="translate(-83.095 -401.308)" fill="#e0e0e0"/>
          <path id="Trazado_125088" data-name="Trazado 125088" d="M290.263,433.777c.077.168-.116.425-.438.58s-.644.142-.721,0,.116-.425.438-.58S290.134,433.61,290.263,433.777Z" transform="translate(-84.408 -401.636)" fill="#e0e0e0"/>
          <path id="Trazado_125089" data-name="Trazado 125089" d="M286.808,435.051a.374.374,0,0,1-.245.438.361.361,0,0,1-.451-.219.348.348,0,0,1,.245-.425.361.361,0,0,1,.451.206Z" transform="translate(-85.268 -401.299)" fill="#e0e0e0"/>
          <path id="Trazado_125090" data-name="Trazado 125090" d="M286.956,436.849a.335.335,0,0,1-.129.464.344.344,0,1,1,.129-.464Z" transform="translate(-85.21 -400.767)" fill="#e0e0e0"/>
          <path id="Trazado_125091" data-name="Trazado 125091" d="M289.788,438.039c.077.167,0,.386-.27.5a.412.412,0,0,1-.554-.116.48.48,0,0,1,.824-.386Z" transform="translate(-84.448 -400.423)" fill="#e0e0e0"/>
          <path id="Trazado_125092" data-name="Trazado 125092" d="M291.291,436.547c.064.167-.168.425-.515.58s-.708.116-.773,0,.155-.425.515-.58S291.291,436.38,291.291,436.547Z" transform="translate(-84.147 -400.838)" fill="#e0e0e0"/>
          <path id="Trazado_125093" data-name="Trazado 125093" d="M288.347,437.13a.309.309,0,0,1-.09.438.337.337,0,0,1-.335-.58.309.309,0,0,1,.425.142Z" transform="translate(-84.784 -400.686)" fill="#e0e0e0"/>
          <path id="Trazado_125094" data-name="Trazado 125094" d="M292.481,433.815a.322.322,0,0,1-.18.412.335.335,0,0,1-.386-.245.3.3,0,1,1,.567-.168Z" transform="translate(-83.599 -401.661)" fill="#e0e0e0"/>
          <ellipse id="Elipse_4234" data-name="Elipse 4234" cx="6.261" cy="3.169" rx="6.261" ry="3.169" transform="translate(119.352 29.371)" fill="#c1507f"/>
          <path id="Trazado_125095" data-name="Trazado 125095" d="M229.475,435.405a.4.4,0,0,1-.283.464.361.361,0,0,1-.49-.18.374.374,0,0,1,.271-.451.386.386,0,0,1,.5.168Z" transform="translate(-101.814 -401.191)" fill="#e0e0e0"/>
          <path id="Trazado_125096" data-name="Trazado 125096" d="M229.727,434.282a.309.309,0,0,1-.142.438.328.328,0,1,1-.283-.593.309.309,0,0,1,.425.155Z" transform="translate(-101.692 -401.51)" fill="#e0e0e0"/>
          <path id="Trazado_125097" data-name="Trazado 125097" d="M231.3,434.32a.309.309,0,0,1,0,.438.337.337,0,0,1-.438-.5.3.3,0,0,1,.438.064Z" transform="translate(-101.214 -401.483)" fill="#e0e0e0"/>
          <path id="Trazado_125098" data-name="Trazado 125098" d="M226.325,433.679a.335.335,0,0,1-.167.425.322.322,0,0,1-.412-.206.311.311,0,1,1,.58-.219Z" transform="translate(-102.67 -401.693)" fill="#e0e0e0"/>
          <path id="Trazado_125099" data-name="Trazado 125099" d="M229,433.045a.361.361,0,0,1-.219.451.348.348,0,0,1-.438-.193.335.335,0,0,1,.206-.438A.361.361,0,0,1,229,433.045Z" transform="translate(-101.92 -401.871)" fill="#e0e0e0"/>
          <path id="Trazado_125100" data-name="Trazado 125100" d="M230.921,433.3a.283.283,0,0,1-.116.386.342.342,0,0,1-.309-.258.282.282,0,0,1,.129-.386C230.753,433,230.869,433.119,230.921,433.3Z" transform="translate(-101.301 -401.815)" fill="#e0e0e0"/>
          <path id="Trazado_125101" data-name="Trazado 125101" d="M227.4,432.386c.064.167-.116.4-.4.515s-.58.064-.644-.1.116-.412.4-.515S227.332,432.218,227.4,432.386Z" transform="translate(-102.492 -402.048)" fill="#e0e0e0"/>
          <path id="Trazado_125102" data-name="Trazado 125102" d="M224.341,433.316a.348.348,0,0,1-.232.412.335.335,0,0,1-.387-.258.322.322,0,0,1,.219-.4A.348.348,0,0,1,224.341,433.316Z" transform="translate(-103.25 -401.807)" fill="#e0e0e0"/>
          <path id="Trazado_125103" data-name="Trazado 125103" d="M224.471,434.625a.309.309,0,0,1-.129.425.335.335,0,0,1-.283-.605A.322.322,0,0,1,224.471,434.625Z" transform="translate(-103.199 -401.415)" fill="#e0e0e0"/>
          <path id="Trazado_125104" data-name="Trazado 125104" d="M227,435.513a.374.374,0,0,1-.245.464.361.361,0,0,1-.49-.18.4.4,0,0,1,.734-.283Z" transform="translate(-102.517 -401.157)" fill="#e0e0e0"/>
          <path id="Trazado_125105" data-name="Trazado 125105" d="M228.362,434.411a.725.725,0,0,1-1.159.374c-.064-.129.155-.4.477-.5S228.3,434.23,228.362,434.411Z" transform="translate(-102.246 -401.471)" fill="#e0e0e0"/>
          <path id="Trazado_125106" data-name="Trazado 125106" d="M225.725,434.828a.309.309,0,0,1-.09.412.344.344,0,0,1-.3-.605C225.468,434.57,225.635,434.66,225.725,434.828Z" transform="translate(-102.818 -401.36)" fill="#e0e0e0"/>
          <path id="Trazado_125107" data-name="Trazado 125107" d="M229.405,432.421a.3.3,0,0,1-.167.386.349.349,0,0,1-.335-.27.322.322,0,0,1,.18-.386.309.309,0,0,1,.322.271Z" transform="translate(-101.757 -402.07)" fill="#e0e0e0"/>
          <path id="Trazado_125108" data-name="Trazado 125108" d="M252.591,431.546c0,1.752-2.808,3.169-6.261,3.169s-6.261-1.417-6.261-3.169,2.808-3.156,6.261-3.156S252.591,429.807,252.591,431.546Z" transform="translate(-98.535 -403.154)" fill="#c1507f"/>
          <path id="Trazado_125109" data-name="Trazado 125109" d="M246.7,432.186a.4.4,0,0,1-.283.464.361.361,0,0,1-.49-.18.374.374,0,0,1,.271-.451A.386.386,0,0,1,246.7,432.186Z" transform="translate(-96.851 -402.119)" fill="#e0e0e0"/>
          <path id="Trazado_125110" data-name="Trazado 125110" d="M246.959,431.041a.348.348,0,0,1-.155.451.322.322,0,0,1-.425-.167.309.309,0,0,1,.142-.438A.335.335,0,0,1,246.959,431.041Z" transform="translate(-96.728 -402.443)" fill="#e0e0e0"/>
          <path id="Trazado_125111" data-name="Trazado 125111" d="M248.517,431.1a.309.309,0,0,1,0,.438.337.337,0,0,1-.438-.5.3.3,0,0,1,.438.064Z" transform="translate(-96.251 -402.412)" fill="#e0e0e0"/>
          <path id="Trazado_125112" data-name="Trazado 125112" d="M243.545,430.459a.311.311,0,1,1-.58.219.311.311,0,1,1,.58-.219Z" transform="translate(-97.707 -402.621)" fill="#e0e0e0"/>
          <path id="Trazado_125113" data-name="Trazado 125113" d="M246.22,429.879a.361.361,0,0,1-.219.438.336.336,0,1,1-.232-.631A.348.348,0,0,1,246.22,429.879Z" transform="translate(-96.956 -402.788)" fill="#e0e0e0"/>
          <path id="Trazado_125114" data-name="Trazado 125114" d="M248.1,430.059a.284.284,0,0,1-.116.387.342.342,0,0,1-.309-.258.282.282,0,0,1,.129-.386A.266.266,0,0,1,248.1,430.059Z" transform="translate(-96.35 -402.749)" fill="#e0e0e0"/>
          <path id="Trazado_125115" data-name="Trazado 125115" d="M244.616,429.166c.064.167-.116.4-.4.515s-.58.064-.644-.1.116-.412.4-.515S244.552,429,244.616,429.166Z" transform="translate(-97.529 -402.977)" fill="#c1507f"/>
          <path id="Trazado_125116" data-name="Trazado 125116" d="M241.566,430.056a.348.348,0,0,1-.232.412.339.339,0,1,1-.167-.657.348.348,0,0,1,.4.245Z" transform="translate(-98.292 -402.746)" fill="#e0e0e0"/>
          <path id="Trazado_125117" data-name="Trazado 125117" d="M241.691,431.4a.309.309,0,0,1-.129.425.335.335,0,0,1-.283-.605A.322.322,0,0,1,241.691,431.4Z" transform="translate(-98.236 -402.343)" fill="#e0e0e0"/>
          <path id="Trazado_125118" data-name="Trazado 125118" d="M244.216,432.294a.374.374,0,0,1-.245.464.361.361,0,0,1-.49-.18.4.4,0,0,1,.734-.283Z" transform="translate(-97.554 -402.085)" fill="#e0e0e0"/>
          <path id="Trazado_125119" data-name="Trazado 125119" d="M245.582,431.191a.725.725,0,0,1-1.159.374c-.064-.129.155-.4.477-.5S245.518,431,245.582,431.191Z" transform="translate(-97.284 -402.4)" fill="#e0e0e0"/>
          <path id="Trazado_125120" data-name="Trazado 125120" d="M242.944,431.608a.309.309,0,0,1-.09.412.3.3,0,0,1-.374-.193.309.309,0,0,1,.077-.412C242.687,431.35,242.854,431.44,242.944,431.608Z" transform="translate(-97.854 -402.288)" fill="#e0e0e0"/>
          <path id="Trazado_125121" data-name="Trazado 125121" d="M246.626,429.2a.3.3,0,0,1-.167.386.337.337,0,0,1-.335-.258.322.322,0,0,1,.18-.4.309.309,0,0,1,.322.271Z" transform="translate(-96.795 -402.999)" fill="#e0e0e0"/>
          <path id="Trazado_125122" data-name="Trazado 125122" d="M244.321,439.6c0,1.739-2.8,3.156-6.261,3.156s-6.261-1.417-6.261-3.156,2.808-3.169,6.261-3.169S244.321,437.847,244.321,439.6Z" transform="translate(-100.918 -400.837)" fill="#c1507f"/>
          <path id="Trazado_125123" data-name="Trazado 125123" d="M238.422,440.238a.412.412,0,1,1-.5-.18A.386.386,0,0,1,238.422,440.238Z" transform="translate(-99.231 -399.801)" fill="#e0e0e0"/>
          <path id="Trazado_125124" data-name="Trazado 125124" d="M238.689,439.1a.348.348,0,0,1-.142.451.335.335,0,0,1-.438-.167.309.309,0,0,1,.142-.438A.335.335,0,0,1,238.689,439.1Z" transform="translate(-99.112 -400.12)" fill="#e0e0e0"/>
          <path id="Trazado_125125" data-name="Trazado 125125" d="M240.256,439.136a.287.287,0,0,1-.425.386.291.291,0,1,1,.425-.386Z" transform="translate(-98.63 -400.091)" fill="#e0e0e0"/>
          <path id="Trazado_125126" data-name="Trazado 125126" d="M235.274,438.495a.311.311,0,1,1-.58.219.31.31,0,0,1,.58-.219Z" transform="translate(-100.09 -400.299)" fill="#e0e0e0"/>
          <path id="Trazado_125127" data-name="Trazado 125127" d="M237.952,437.921a.351.351,0,1,1-.451-.206A.348.348,0,0,1,237.952,437.921Z" transform="translate(-99.341 -400.473)" fill="#e0e0e0"/>
          <path id="Trazado_125128" data-name="Trazado 125128" d="M239.88,438.119c0,.18,0,.348-.116.387s-.258-.077-.309-.258,0-.348.116-.386S239.828,437.939,239.88,438.119Z" transform="translate(-98.718 -400.426)" fill="#e0e0e0"/>
          <path id="Trazado_125129" data-name="Trazado 125129" d="M236.346,437.21a.548.548,0,0,1-.4.515c-.3.1-.58.064-.644-.1s.116-.4.4-.515S236.282,436.991,236.346,437.21Z" transform="translate(-99.912 -400.664)" fill="#e0e0e0"/>
          <path id="Trazado_125130" data-name="Trazado 125130" d="M233.291,438.149a.335.335,0,0,1-.232.4.322.322,0,0,1-.386-.245.335.335,0,0,1,.219-.412.348.348,0,0,1,.4.258Z" transform="translate(-100.67 -400.417)" fill="#e0e0e0"/>
          <path id="Trazado_125131" data-name="Trazado 125131" d="M233.437,439.445a.322.322,0,1,1-.412-.18A.322.322,0,0,1,233.437,439.445Z" transform="translate(-100.623 -400.026)" fill="#e0e0e0"/>
          <path id="Trazado_125132" data-name="Trazado 125132" d="M235.957,440.347a.448.448,0,1,1-.477-.18.361.361,0,0,1,.477.18Z" transform="translate(-99.948 -399.769)" fill="#e0e0e0"/>
          <path id="Trazado_125133" data-name="Trazado 125133" d="M237.312,439.231a.61.61,0,0,1-.477.5.637.637,0,0,1-.683-.116c-.064-.116.155-.412.477-.515S237.247,439.05,237.312,439.231Z" transform="translate(-99.667 -400.082)" fill="#e0e0e0"/>
          <path id="Trazado_125134" data-name="Trazado 125134" d="M234.673,439.646a.309.309,0,0,1-.09.412.3.3,0,0,1-.374-.193.309.309,0,0,1,.09-.412.3.3,0,0,1,.374.193Z" transform="translate(-100.236 -399.97)" fill="#e0e0e0"/>
          <path id="Trazado_125135" data-name="Trazado 125135" d="M238.367,437.238c0,.18,0,.361-.18.386s-.283-.077-.322-.258a.3.3,0,0,1,.167-.386C238.174,437.006,238.316,437.006,238.367,437.238Z" transform="translate(-99.176 -400.678)" fill="#e0e0e0"/>
          <ellipse id="Elipse_4235" data-name="Elipse 4235" cx="6.261" cy="3.169" rx="6.261" ry="3.169" transform="translate(171.641 33.326)" fill="#c1507f"/>
          <path id="Trazado_125136" data-name="Trazado 125136" d="M270.052,438.479a.412.412,0,1,1-.5-.18.374.374,0,0,1,.5.18Z" transform="translate(-90.115 -400.309)" fill="#e0e0e0"/>
          <path id="Trazado_125137" data-name="Trazado 125137" d="M270.317,437.341a.348.348,0,0,1-.142.451.337.337,0,1,1,.142-.451Z" transform="translate(-89.994 -400.627)" fill="#e0e0e0"/>
          <path id="Trazado_125138" data-name="Trazado 125138" d="M271.888,437.37a.322.322,0,0,1,0,.438.31.31,0,1,1,0-.438Z" transform="translate(-89.517 -400.592)" fill="#e0e0e0"/>
          <path id="Trazado_125139" data-name="Trazado 125139" d="M266.917,436.737a.322.322,0,0,1-.18.425.33.33,0,0,1-.232-.618A.335.335,0,0,1,266.917,436.737Z" transform="translate(-90.973 -400.809)" fill="#e0e0e0"/>
          <path id="Trazado_125140" data-name="Trazado 125140" d="M269.582,436.161a.351.351,0,1,1-.451-.206A.351.351,0,0,1,269.582,436.161Z" transform="translate(-90.225 -400.98)" fill="#e0e0e0"/>
          <path id="Trazado_125141" data-name="Trazado 125141" d="M271.51,436.359c0,.18,0,.361-.116.386s-.258-.077-.309-.258,0-.348.116-.386S271.458,436.192,271.51,436.359Z" transform="translate(-89.602 -400.933)" fill="#e0e0e0"/>
          <path id="Trazado_125142" data-name="Trazado 125142" d="M267.977,435.447c.077.18-.1.412-.4.515s-.567.064-.644-.1.116-.4.4-.515S267.913,435.28,267.977,435.447Z" transform="translate(-90.797 -401.168)" fill="#e0e0e0"/>
          <path id="Trazado_125143" data-name="Trazado 125143" d="M264.921,436.387a.309.309,0,0,1-.232.4.331.331,0,0,1-.155-.644.309.309,0,0,1,.386.245Z" transform="translate(-91.554 -400.923)" fill="#e0e0e0"/>
          <path id="Trazado_125144" data-name="Trazado 125144" d="M265.06,437.685a.335.335,0,0,1-.129.438.343.343,0,1,1,.129-.438Z" transform="translate(-91.5 -400.533)" fill="#e0e0e0"/>
          <path id="Trazado_125145" data-name="Trazado 125145" d="M267.588,438.589a.4.4,0,1,1-.49-.18.361.361,0,0,1,.49.18Z" transform="translate(-90.82 -400.277)" fill="#e0e0e0"/>
          <path id="Trazado_125146" data-name="Trazado 125146" d="M268.942,437.471c.064.18-.155.4-.477.515a.589.589,0,0,1-.683-.129c-.064-.129.155-.412.477-.515S268.89,437.29,268.942,437.471Z" transform="translate(-90.551 -400.589)" fill="#e0e0e0"/>
          <path id="Trazado_125147" data-name="Trazado 125147" d="M266.3,437.886a.346.346,0,0,1-.09.412.3.3,0,0,1-.374-.193.309.309,0,0,1,.09-.412.3.3,0,0,1,.374.193Z" transform="translate(-91.12 -400.477)" fill="#e0e0e0"/>
          <path id="Trazado_125148" data-name="Trazado 125148" d="M270,435.479c0,.18,0,.361-.167.386a.337.337,0,0,1-.167-.644C269.8,435.183,269.946,435.3,270,435.479Z" transform="translate(-90.06 -401.187)" fill="#e0e0e0"/>
          <ellipse id="Elipse_4236" data-name="Elipse 4236" cx="6.261" cy="3.169" rx="6.261" ry="3.169" transform="translate(182.423 26.395)" fill="#c1507f"/>
          <path id="Trazado_125149" data-name="Trazado 125149" d="M278.432,433.1a.412.412,0,1,1-.5-.18A.387.387,0,0,1,278.432,433.1Z" transform="translate(-87.7 -401.859)" fill="#e0e0e0"/>
          <path id="Trazado_125150" data-name="Trazado 125150" d="M278.7,431.961a.348.348,0,0,1-.142.451.335.335,0,0,1-.438-.167.309.309,0,0,1,.142-.438.348.348,0,0,1,.438.155Z" transform="translate(-87.581 -402.177)" fill="#e0e0e0"/>
          <path id="Trazado_125151" data-name="Trazado 125151" d="M280.265,432.019a.309.309,0,0,1,0,.438.3.3,0,0,1-.425,0,.305.305,0,1,1,.425-.438Z" transform="translate(-87.099 -402.133)" fill="#e0e0e0"/>
          <path id="Trazado_125152" data-name="Trazado 125152" d="M275.285,431.357a.312.312,0,0,1-.58.232.322.322,0,0,1,.18-.425.309.309,0,0,1,.4.193Z" transform="translate(-88.56 -402.36)" fill="#e0e0e0"/>
          <path id="Trazado_125153" data-name="Trazado 125153" d="M277.962,430.781a.351.351,0,1,1-.451-.206A.351.351,0,0,1,277.962,430.781Z" transform="translate(-87.81 -402.531)" fill="#e0e0e0"/>
          <path id="Trazado_125154" data-name="Trazado 125154" d="M279.89,430.979c0,.18,0,.361-.116.386s-.258-.077-.309-.258,0-.348.116-.386S279.838,430.812,279.89,430.979Z" transform="translate(-87.187 -402.484)" fill="#e0e0e0"/>
          <path id="Trazado_125155" data-name="Trazado 125155" d="M276.357,430.035c.064.18-.1.412-.4.515s-.567.064-.644-.1.116-.4.4-.515A.548.548,0,0,1,276.357,430.035Z" transform="translate(-88.382 -402.725)" fill="#e0e0e0"/>
          <path id="Trazado_125156" data-name="Trazado 125156" d="M273.3,431.057a.335.335,0,0,1-.232.4.322.322,0,0,1-.386-.245.309.309,0,0,1,.219-.4.322.322,0,0,1,.4.245Z" transform="translate(-89.14 -402.459)" fill="#e0e0e0"/>
          <path id="Trazado_125157" data-name="Trazado 125157" d="M273.438,432.3a.335.335,0,0,1-.142.438.309.309,0,0,1-.4-.18.3.3,0,1,1,.541-.258Z" transform="translate(-89.082 -402.077)" fill="#e0e0e0"/>
          <path id="Trazado_125158" data-name="Trazado 125158" d="M275.959,433.208a.374.374,0,0,1-.258.451.336.336,0,1,1-.232-.631A.374.374,0,0,1,275.959,433.208Z" transform="translate(-88.396 -401.827)" fill="#e0e0e0"/>
          <path id="Trazado_125159" data-name="Trazado 125159" d="M277.322,432.091c0,.18-.155.4-.477.515a.589.589,0,0,1-.683-.129c-.064-.129.155-.412.477-.515S277.245,431.91,277.322,432.091Z" transform="translate(-88.136 -402.14)" fill="#e0e0e0"/>
          <path id="Trazado_125160" data-name="Trazado 125160" d="M274.683,432.506a.346.346,0,0,1-.09.412.3.3,0,0,1-.374-.193.309.309,0,0,1,.09-.412.3.3,0,0,1,.374.193Z" transform="translate(-88.705 -402.027)" fill="#e0e0e0"/>
          <path id="Trazado_125161" data-name="Trazado 125161" d="M278.377,430.058c0,.18,0,.361-.18.386s-.283-.077-.322-.258a.3.3,0,0,1,.168-.386A.433.433,0,0,1,278.377,430.058Z" transform="translate(-87.645 -402.748)" fill="#e0e0e0"/>
          <ellipse id="Elipse_4237" data-name="Elipse 4237" cx="6.261" cy="3.169" rx="6.261" ry="3.169" transform="translate(156.427 30.183)" fill="#c1507f"/>
          <path id="Trazado_125162" data-name="Trazado 125162" d="M258.253,436.049a.374.374,0,0,1-.271.451.348.348,0,1,1-.232-.631.374.374,0,0,1,.5.18Z" transform="translate(-93.53 -401.009)" fill="#e0e0e0"/>
          <path id="Trazado_125163" data-name="Trazado 125163" d="M258.507,434.9a.322.322,0,0,1-.142.451.337.337,0,0,1-.3-.605.322.322,0,0,1,.438.155Z" transform="translate(-93.397 -401.332)" fill="#e0e0e0"/>
          <path id="Trazado_125164" data-name="Trazado 125164" d="M260.118,434.94a.309.309,0,0,1,0,.438.322.322,0,0,1-.438-.064.309.309,0,0,1,0-.438.3.3,0,0,1,.438.064Z" transform="translate(-92.909 -401.305)" fill="#e0e0e0"/>
          <path id="Trazado_125165" data-name="Trazado 125165" d="M255.145,434.3a.322.322,0,0,1-.168.425.335.335,0,1,1,.168-.425Z" transform="translate(-94.376 -401.513)" fill="#e0e0e0"/>
          <path id="Trazado_125166" data-name="Trazado 125166" d="M257.771,433.719a.335.335,0,0,1-.206.438.337.337,0,1,1-.232-.631.335.335,0,0,1,.438.193Z" transform="translate(-93.628 -401.681)" fill="#e0e0e0"/>
          <path id="Trazado_125167" data-name="Trazado 125167" d="M259.7,433.919c0,.18,0,.348-.116.387s-.258-.077-.309-.258,0-.348.116-.386S259.648,433.739,259.7,433.919Z" transform="translate(-93.006 -401.637)" fill="#e0e0e0"/>
          <path id="Trazado_125168" data-name="Trazado 125168" d="M256.177,433.039c.064.18-.116.4-.4.515s-.58.064-.644-.1.1-.4.4-.515S256.112,432.833,256.177,433.039Z" transform="translate(-94.197 -401.865)" fill="#e0e0e0"/>
          <path id="Trazado_125169" data-name="Trazado 125169" d="M253.14,433.949a.322.322,0,0,1-.219.4.339.339,0,0,1-.167-.657.335.335,0,0,1,.386.258Z" transform="translate(-94.949 -401.628)" fill="#e0e0e0"/>
          <path id="Trazado_125170" data-name="Trazado 125170" d="M253.249,435.245a.3.3,0,0,1-.541.258.335.335,0,0,1,.129-.438.322.322,0,0,1,.412.18Z" transform="translate(-94.903 -401.236)" fill="#e0e0e0"/>
          <path id="Trazado_125171" data-name="Trazado 125171" d="M255.777,436.149a.361.361,0,0,1-.245.451.374.374,0,0,1-.49-.167.387.387,0,0,1,.245-.464.361.361,0,0,1,.49.18Z" transform="translate(-94.223 -400.981)" fill="#e0e0e0"/>
          <path id="Trazado_125172" data-name="Trazado 125172" d="M257.141,435.041a.61.61,0,0,1-.477.5c-.322.1-.631,0-.683-.116s.155-.412.464-.515S257.077,434.848,257.141,435.041Z" transform="translate(-93.951 -401.29)" fill="#e0e0e0"/>
          <path id="Trazado_125173" data-name="Trazado 125173" d="M254.493,435.446a.3.3,0,0,1-.077.412.361.361,0,0,1-.386-.193.309.309,0,0,1,.09-.412.3.3,0,0,1,.374.193Z" transform="translate(-94.524 -401.18)" fill="#e0e0e0"/>
          <path id="Trazado_125174" data-name="Trazado 125174" d="M258.187,433.058a.3.3,0,0,1-.167.386.337.337,0,0,1-.335-.258c-.052-.18,0-.361.167-.386a.3.3,0,0,1,.335.258Z" transform="translate(-93.464 -401.884)" fill="#e0e0e0"/>
          <path id="Trazado_125175" data-name="Trazado 125175" d="M274.831,444.451,355.19,436.4a9.249,9.249,0,0,1,3.865,8.3c0,15.188-38.092,27.581-84.275,27.439s-84.159-12.74-84.12-27.928Z" transform="translate(-112.775 -400.845)" fill="#daa764"/>
          <g id="Grupo_55365" data-name="Grupo 55365" transform="translate(91.25 40.493)" opacity="0.3">
            <path id="Trazado_125176" data-name="Trazado 125176" d="M201.273,447.031c-.85,2.074.7,4.483,2.731,5.449a15.189,15.189,0,0,0,6.609.863,10.834,10.834,0,0,1,6.441,1.469c2.293,1.649,3.336,4.921,6.016,5.81,3.465,1.147,7.046-2.512,10.589-1.675,2.409.567,3.865,3.04,6.17,4.071,4.277,1.945,9.017-1.842,13.758-1.533s8.489,4.676,13.178,4.522c3.221-.09,6.132-2.357,9.365-2.28s6.183,2.576,9.481,2.576c4.882,0,8.76-5.514,13.591-4.741,3.452.554,6.183,4.29,9.636,3.684,3.079-.541,4.663-4.251,7.626-5.153,2.435-.786,5.153.464,7.588-.464,3.865-1.52,4.6-7.9,8.721-8.386,2.473-.3,5.23,1.829,7.253.386,1.288-.953,1.391-2.911,1-4.5a12.883,12.883,0,0,1-.863-4.766c.232-1.61,6.351-2.332,1.288-2.087l-69.731,6.827Z" transform="translate(-201.035 -440.234)" fill="#fff"/>
          </g>
          <path id="Trazado_125177" data-name="Trazado 125177" d="M255.94,447.532a4.024,4.024,0,0,1,.876-.155l2.576-.309,9.34-1.018,30.917-3.1,28.5-2.705h.013l.077.142a6.106,6.106,0,0,0,4.934,3.13,5.8,5.8,0,0,0,4.251-1.546,6.2,6.2,0,0,0,1.688-2.435c.245-.631.3-1,.335-.992a1.073,1.073,0,0,1,0,.271,5.151,5.151,0,0,1-.18.773,6.093,6.093,0,0,1-1.636,2.577,5.99,5.99,0,0,1-4.457,1.739,6.544,6.544,0,0,1-5.372-3.285l.245.129-28.469,2.86-30.917,2.924-9.365.8-2.576.193a4.65,4.65,0,0,1-.773.013Z" transform="translate(-93.961 -400.229)" fill="#263238"/>
          <path id="Trazado_125178" data-name="Trazado 125178" d="M302.472,454.71c-.077,0,.451-1.031,1.971-1.8a13.416,13.416,0,0,1,2.731-.979,17.521,17.521,0,0,0,3.246-1.1c2.2-1.018,2.9-3.375,4.045-4.6a3.918,3.918,0,0,1,2.254-1.43,7.032,7.032,0,0,0-1.881,1.726c-.477.631-.9,1.481-1.481,2.409a6.338,6.338,0,0,1-2.577,2.5,15.867,15.867,0,0,1-3.4,1.082,17.413,17.413,0,0,0-2.692.812A10.912,10.912,0,0,0,302.472,454.71Z" transform="translate(-80.552 -398.428)" fill="#263238"/>
          <path id="Trazado_125179" data-name="Trazado 125179" d="M220.252,453.221a6.2,6.2,0,0,0,2.692,1.469,33.842,33.842,0,0,0,11.774,1.688,74.618,74.618,0,0,1,9.43-.348,44.856,44.856,0,0,1,7.085,1.546c3.5.9,7.059,1.546,10.615,2.19a28.624,28.624,0,0,0,10.022.605c2.216-.4,4.367-1.288,6.621-1.288a46.494,46.494,0,0,1,5.307.734,50.557,50.557,0,0,0,7.729-.4c2.576-.129,5.848-.077,7.832,1.585h0c1.546,1.353,4.045.4,5.475-1.069s2.435-3.427,4.212-4.444c2.834-1.636,6.931-.528,9.236-2.86s.966-6.441-1.752-8.09-6.171-1.4-9.275-.734c-5.024,1.1-10.061,3.156-15.149,2.37-3.04-.477-6.106-1.958-9.017-1.1s-5.153,4.109-8.36,4.5c-2.576.309-4.921-1.365-7.472-1.829-3-.554-6.042.605-9.017.876-4.831.425-9.546-1.391-14.351-2.022-7.266-.94-14.57.824-21.681,2.576a3.633,3.633,0,0,0-2.319,1.288,2.435,2.435,0,0,0,.361,2.757Z" transform="translate(-104.429 -398.859)" fill="#e8b990"/>
          <g id="Grupo_55366" data-name="Grupo 55366" transform="translate(115.19 44.433)" opacity="0.4">
            <path id="Trazado_125180" data-name="Trazado 125180" d="M220.252,453.221a6.2,6.2,0,0,0,2.692,1.469,33.842,33.842,0,0,0,11.774,1.688,74.618,74.618,0,0,1,9.43-.348,44.856,44.856,0,0,1,7.085,1.546c3.5.9,7.059,1.546,10.615,2.19a28.624,28.624,0,0,0,10.022.605c2.216-.4,4.367-1.288,6.621-1.288a46.494,46.494,0,0,1,5.307.734,50.557,50.557,0,0,0,7.729-.4c2.576-.129,5.848-.077,7.832,1.585h0c1.546,1.353,4.045.4,5.475-1.069s2.435-3.427,4.212-4.444c2.834-1.636,6.931-.528,9.236-2.86s.966-6.441-1.752-8.09-6.171-1.4-9.275-.734c-5.024,1.1-10.061,3.156-15.149,2.37-3.04-.477-6.106-1.958-9.017-1.1s-5.153,4.109-8.36,4.5c-2.576.309-4.921-1.365-7.472-1.829-3-.554-6.042.605-9.017.876-4.831.425-9.546-1.391-14.351-2.022-7.266-.94-14.57.824-21.681,2.576a3.633,3.633,0,0,0-2.319,1.288,2.435,2.435,0,0,0,.361,2.757Z" transform="translate(-219.619 -443.292)" fill="#fff"/>
          </g>
          <path id="Trazado_125181" data-name="Trazado 125181" d="M303.95,468.859a14.809,14.809,0,0,1-2.074-.824l-5.539-2.5c-4.676-2.126-11.1-5.153-18.189-8.425-9.636-4.535-18.035-8.541-22.234-10.641h-.1v-.1c0-1.121.064-2.023.09-2.744a4.047,4.047,0,0,1,.09-.953,4.69,4.69,0,0,1,.077.953c0,.721,0,1.623.077,2.744l-.09-.142c4.328,1.919,12.74,5.8,22.376,10.306,7.085,3.324,13.488,6.377,18.1,8.605l5.462,2.68a14.913,14.913,0,0,1,1.958,1.043Z" transform="translate(-93.998 -399.038)" fill="#263238"/>
          <path id="Trazado_125182" data-name="Trazado 125182" d="M232.4,470.043c-.116-.142,6.441-5.81,14.66-12.65s14.969-12.264,15.1-12.122-6.441,5.8-14.66,12.637S232.516,470.184,232.4,470.043Z" transform="translate(-100.746 -398.29)" fill="#263238"/>
          <path id="Trazado_125183" data-name="Trazado 125183" d="M265.5,462.158a18.769,18.769,0,0,1,14.724-1.636,54.426,54.426,0,0,0-7.459,0,55.011,55.011,0,0,0-7.266,1.636Z" transform="translate(-91.206 -394.127)" fill="#263238"/>
          <path id="Trazado_125184" data-name="Trazado 125184" d="M248.74,460.34l6.364.85a5.449,5.449,0,0,1-3.272.245,5.513,5.513,0,0,1-3.092-1.095Z" transform="translate(-96.036 -393.946)" fill="#263238"/>
          <path id="Trazado_125185" data-name="Trazado 125185" d="M214.643,455.34a8.664,8.664,0,0,0,8.476,2.577,2.466,2.466,0,0,1-1.288.631,6.7,6.7,0,0,1-3.5-.116,6.866,6.866,0,0,1-2.976-1.842C214.772,455.92,214.578,455.379,214.643,455.34Z" transform="translate(-105.866 -395.387)" fill="#263238"/>
          <path id="Trazado_125186" data-name="Trazado 125186" d="M191.86,446.231a10.982,10.982,0,0,0,.528,1.1,6.762,6.762,0,0,0,2.37,2.435,6.08,6.08,0,0,0,5.153.657,6.441,6.441,0,0,0,4.328-4.985V445.2h.232c7.253.09,16.45.206,26.421.258,12.1.064,23.059,0,30.917,0h11.967a4.348,4.348,0,0,1,.889,0,4.468,4.468,0,0,1-.889.09l-2.576.1-9.391.258c-7.935.155-18.9.283-30.994.219-9.984,0-19.181-.206-26.434-.4l.271-.219a6.931,6.931,0,0,1-4.728,5.307,6.338,6.338,0,0,1-5.307-.721,6.44,6.44,0,0,1-2.332-2.576,4.249,4.249,0,0,1-.425-1.288Z" transform="translate(-112.429 -398.309)" fill="#263238"/>
          <path id="Trazado_125187" data-name="Trazado 125187" d="M290.19,447.335c0-2.4,3.143-4.328,7.008-4.315s6.995,1.958,6.995,4.367-3.156,4.328-7.021,4.315S290.177,449.744,290.19,447.335Z" transform="translate(-84.09 -398.938)" fill="#c1507f"/>
          <path id="Trazado_125188" data-name="Trazado 125188" d="M293.866,444.726c-.077-.167,0-.4.3-.5a.425.425,0,0,1,.567.116c.077.167,0,.386-.3.5S293.944,444.894,293.866,444.726Z" transform="translate(-83.038 -398.608)" fill="#e0e0e0"/>
          <path id="Trazado_125189" data-name="Trazado 125189" d="M293.538,446.275a.374.374,0,1,1,.49.09.348.348,0,0,1-.49-.09Z" transform="translate(-83.148 -398.173)" fill="#e0e0e0"/>
          <path id="Trazado_125190" data-name="Trazado 125190" d="M291.765,446.206a.351.351,0,1,1,.477-.515.351.351,0,0,1-.477.515Z" transform="translate(-83.668 -398.195)" fill="#e0e0e0"/>
          <path id="Trazado_125191" data-name="Trazado 125191" d="M297.326,447.11a.362.362,0,1,1,.464.155.348.348,0,0,1-.464-.155Z" transform="translate(-82.041 -397.901)" fill="#e0e0e0"/>
          <path id="Trazado_125192" data-name="Trazado 125192" d="M294.355,447.909a.374.374,0,0,1,.232-.477.361.361,0,0,1,.5.129.413.413,0,0,1-.734.348Z" transform="translate(-82.896 -397.681)" fill="#e0e0e0"/>
          <path id="Trazado_125193" data-name="Trazado 125193" d="M292.147,447.6a.309.309,0,0,1,.116-.4c.142,0,.3,0,.361.232a.309.309,0,0,1-.129.4C292.366,447.883,292.211,447.78,292.147,447.6Z" transform="translate(-83.535 -397.733)" fill="#e0e0e0"/>
          <path id="Trazado_125194" data-name="Trazado 125194" d="M296.234,448.9c-.077-.168.116-.425.438-.58s.657-.142.734,0-.116.425-.438.58S296.324,449.072,296.234,448.9Z" transform="translate(-82.353 -397.441)" fill="#e0e0e0"/>
          <path id="Trazado_125195" data-name="Trazado 125195" d="M299.552,447.6a.361.361,0,0,1,.245-.425.339.339,0,1,1,.206.644A.361.361,0,0,1,299.552,447.6Z" transform="translate(-81.394 -397.746)" fill="#e0e0e0"/>
          <path id="Trazado_125196" data-name="Trazado 125196" d="M299.4,445.8a.348.348,0,0,1,.142-.464.335.335,0,0,1,.464.129.346.346,0,0,1-.605.335Z" transform="translate(-81.447 -398.282)" fill="#e0e0e0"/>
          <path id="Trazado_125197" data-name="Trazado 125197" d="M296.611,444.581a.477.477,0,0,1,.824-.386.4.4,0,0,1-.27.489C296.946,444.787,296.688,444.749,296.611,444.581Z" transform="translate(-82.241 -398.644)" fill="#e0e0e0"/>
          <path id="Trazado_125198" data-name="Trazado 125198" d="M295.192,446.15c-.064-.167.167-.425.528-.567s.7-.129.773,0-.167.425-.528.567S295.27,446.291,295.192,446.15Z" transform="translate(-82.651 -398.228)" fill="#e0e0e0"/>
          <path id="Trazado_125199" data-name="Trazado 125199" d="M298.011,445.528a.335.335,0,0,1,.09-.451.322.322,0,0,1,.425.142.3.3,0,1,1-.515.309Z" transform="translate(-81.85 -398.354)" fill="#e0e0e0"/>
          <path id="Trazado_125200" data-name="Trazado 125200" d="M293.856,448.824a.309.309,0,0,1,.18-.412.322.322,0,0,1,.374.245.291.291,0,1,1-.554.167Z" transform="translate(-83.04 -397.385)" fill="#e0e0e0"/>
          <path id="Trazado_125201" data-name="Trazado 125201" d="M214.54,450.905c0-2.4,3.143-4.328,7.008-4.316s6.995,1.958,6.995,4.367-3.143,4.328-7.021,4.315S214.527,453.314,214.54,450.905Z" transform="translate(-105.893 -397.909)" fill="#c1507f"/>
          <path id="Trazado_125202" data-name="Trazado 125202" d="M218.216,448.3c-.077-.167,0-.4.3-.5a.425.425,0,0,1,.567.116c.077.167,0,.386-.3.5S218.294,448.464,218.216,448.3Z" transform="translate(-104.841 -397.58)" fill="#e0e0e0"/>
          <path id="Trazado_125203" data-name="Trazado 125203" d="M217.888,449.845a.374.374,0,1,1,.49.09.348.348,0,0,1-.49-.09Z" transform="translate(-104.95 -397.144)" fill="#e0e0e0"/>
          <path id="Trazado_125204" data-name="Trazado 125204" d="M216.115,449.776a.351.351,0,0,1,.477-.515.335.335,0,0,1,0,.477.348.348,0,0,1-.477.039Z" transform="translate(-105.471 -397.166)" fill="#e0e0e0"/>
          <path id="Trazado_125205" data-name="Trazado 125205" d="M221.676,450.671a.361.361,0,1,1,.47.166.361.361,0,0,1-.47-.166Z" transform="translate(-103.843 -396.875)" fill="#e0e0e0"/>
          <path id="Trazado_125206" data-name="Trazado 125206" d="M218.7,451.479a.374.374,0,0,1,.232-.477.361.361,0,0,1,.5.129.374.374,0,0,1-.219.477A.386.386,0,0,1,218.7,451.479Z" transform="translate(-104.698 -396.653)" fill="#e0e0e0"/>
          <path id="Trazado_125207" data-name="Trazado 125207" d="M216.5,451.169a.309.309,0,0,1,.116-.4c.142,0,.3,0,.361.232a.309.309,0,0,1-.129.4C216.716,451.453,216.561,451.35,216.5,451.169Z" transform="translate(-105.338 -396.704)" fill="#e0e0e0"/>
          <path id="Trazado_125208" data-name="Trazado 125208" d="M220.584,452.476c-.077-.167.116-.425.438-.58s.657-.155.734,0-.116.438-.438.593S220.674,452.643,220.584,452.476Z" transform="translate(-104.156 -396.413)" fill="#e0e0e0"/>
          <path id="Trazado_125209" data-name="Trazado 125209" d="M223.9,451.17a.361.361,0,0,1,.245-.425.339.339,0,1,1,.206.644.361.361,0,0,1-.451-.219Z" transform="translate(-103.197 -396.717)" fill="#e0e0e0"/>
          <path id="Trazado_125210" data-name="Trazado 125210" d="M223.749,449.374a.348.348,0,0,1,.142-.464.335.335,0,0,1,.464.129.346.346,0,0,1-.605.335Z" transform="translate(-103.25 -397.253)" fill="#e0e0e0"/>
          <path id="Trazado_125211" data-name="Trazado 125211" d="M221,448.122a.4.4,0,0,1,.271-.49c.232-.1.477-.064.554.1a.477.477,0,0,1-.824.387Z" transform="translate(-104.034 -397.625)" fill="#e0e0e0"/>
          <path id="Trazado_125212" data-name="Trazado 125212" d="M219.54,449.689c0-.167.167-.425.528-.567s.7-.129.773,0-.167.425-.528.567S219.617,449.87,219.54,449.689Z" transform="translate(-104.452 -397.208)" fill="#e0e0e0"/>
          <path id="Trazado_125213" data-name="Trazado 125213" d="M222.341,449.105a.3.3,0,1,1,.515-.3.3.3,0,0,1-.515.3Z" transform="translate(-103.659 -397.319)" fill="#e0e0e0"/>
          <path id="Trazado_125214" data-name="Trazado 125214" d="M218.2,452.393a.293.293,0,1,1,.554-.167.3.3,0,1,1-.554.167Z" transform="translate(-104.842 -396.356)" fill="#e0e0e0"/>
          <path id="Trazado_125215" data-name="Trazado 125215" d="M278,452.873c0-1.752,2.808-3.156,6.261-3.143s6.261,1.43,6.248,3.182-2.808,3.156-6.261,3.143S278,454.612,278,452.873Z" transform="translate(-87.603 -397.004)" fill="#c1507f"/>
          <path id="Trazado_125216" data-name="Trazado 125216" d="M281.252,450.991a.4.4,0,0,1,.283-.464.387.387,0,0,1,.5.18.425.425,0,0,1-.786.283Z" transform="translate(-86.668 -396.783)" fill="#e0e0e0"/>
          <path id="Trazado_125217" data-name="Trazado 125217" d="M281.007,452.106a.335.335,0,0,1,.142-.438.322.322,0,0,1,.438.155.348.348,0,0,1-.142.451A.335.335,0,0,1,281.007,452.106Z" transform="translate(-86.746 -396.455)" fill="#e0e0e0"/>
          <path id="Trazado_125218" data-name="Trazado 125218" d="M279.38,452.118a.309.309,0,0,1,0-.438.3.3,0,0,1,.425,0,.305.305,0,1,1-.425.438Z" transform="translate(-87.231 -396.467)" fill="#e0e0e0"/>
          <path id="Trazado_125219" data-name="Trazado 125219" d="M284.355,452.714a.312.312,0,1,1,.412.206.322.322,0,0,1-.412-.206Z" transform="translate(-85.777 -396.265)" fill="#e0e0e0"/>
          <path id="Trazado_125220" data-name="Trazado 125220" d="M281.706,453.308a.353.353,0,0,1,.657-.258.361.361,0,0,1-.206.451.348.348,0,0,1-.451-.193Z" transform="translate(-86.542 -396.111)" fill="#e0e0e0"/>
          <path id="Trazado_125221" data-name="Trazado 125221" d="M279.72,453.088c0-.18,0-.348.116-.386s.258.077.309.258,0,.348-.116.386S279.772,453.268,279.72,453.088Z" transform="translate(-87.107 -396.149)" fill="#e0e0e0"/>
          <path id="Trazado_125222" data-name="Trazado 125222" d="M283.383,454.029c-.064-.18.116-.4.4-.515s.58-.064.644.1-.116.412-.4.515S283.447,454.158,283.383,454.029Z" transform="translate(-86.055 -395.931)" fill="#e0e0e0"/>
          <path id="Trazado_125223" data-name="Trazado 125223" d="M286.354,453.091a.309.309,0,0,1,.219-.4.335.335,0,0,1,.4.245.348.348,0,0,1-.232.412A.335.335,0,0,1,286.354,453.091Z" transform="translate(-85.2 -396.152)" fill="#e0e0e0"/>
          <path id="Trazado_125224" data-name="Trazado 125224" d="M286.207,451.783a.335.335,0,0,1,.142-.438.309.309,0,0,1,.4.18.3.3,0,1,1-.541.258Z" transform="translate(-85.247 -396.544)" fill="#e0e0e0"/>
          <path id="Trazado_125225" data-name="Trazado 125225" d="M283.724,450.892a.374.374,0,0,1,.245-.464.361.361,0,0,1,.49.18.4.4,0,0,1-.734.283Z" transform="translate(-85.958 -396.813)" fill="#e0e0e0"/>
          <path id="Trazado_125226" data-name="Trazado 125226" d="M282.45,452.006c0-.18.155-.4.477-.515a.589.589,0,0,1,.683.129c.064.129-.155.412-.477.515S282.514,452.161,282.45,452.006Z" transform="translate(-86.32 -396.51)" fill="#e0e0e0"/>
          <path id="Trazado_125227" data-name="Trazado 125227" d="M284.95,451.564a.309.309,0,0,1,.09-.412.322.322,0,0,1,.374.206.309.309,0,0,1-.09.412A.322.322,0,0,1,284.95,451.564Z" transform="translate(-85.613 -396.596)" fill="#e0e0e0"/>
          <path id="Trazado_125228" data-name="Trazado 125228" d="M281.255,453.967a.3.3,0,0,1,.168-.386.322.322,0,0,1,.335.27.309.309,0,0,1-.18.387C281.448,454.276,281.293,454.121,281.255,453.967Z" transform="translate(-86.671 -395.894)" fill="#e0e0e0"/>
          <path id="Trazado_125229" data-name="Trazado 125229" d="M260.75,456.043c0-1.752,2.808-3.156,6.261-3.143s6.261,1.43,6.248,3.182-2.808,3.156-6.261,3.143S260.737,457.782,260.75,456.043Z" transform="translate(-92.575 -396.09)" fill="#c1507f"/>
          <path id="Trazado_125230" data-name="Trazado 125230" d="M264,454.169a.412.412,0,0,1,.773-.283.386.386,0,0,1-.283.451A.374.374,0,0,1,264,454.169Z" transform="translate(-91.642 -395.878)" fill="#e0e0e0"/>
          <path id="Trazado_125231" data-name="Trazado 125231" d="M263.727,455.276a.335.335,0,0,1,.142-.438.322.322,0,0,1,.438.155.309.309,0,0,1-.142.438.322.322,0,0,1-.438-.155Z" transform="translate(-91.726 -395.542)" fill="#e0e0e0"/>
          <path id="Trazado_125232" data-name="Trazado 125232" d="M262.151,455.234a.322.322,0,0,1,0-.451.309.309,0,0,1,.425.064.291.291,0,1,1-.425.386Z" transform="translate(-92.197 -395.564)" fill="#e0e0e0"/>
          <path id="Trazado_125233" data-name="Trazado 125233" d="M267.126,455.888a.311.311,0,1,1,.58-.219.309.309,0,0,1-.167.425A.335.335,0,0,1,267.126,455.888Z" transform="translate(-90.744 -395.355)" fill="#e0e0e0"/>
          <path id="Trazado_125234" data-name="Trazado 125234" d="M264.477,456.479a.348.348,0,1,1,.451.18.335.335,0,0,1-.451-.18Z" transform="translate(-91.509 -395.199)" fill="#e0e0e0"/>
          <path id="Trazado_125235" data-name="Trazado 125235" d="M262.49,456.258c0-.18,0-.348.116-.387s.258.077.309.258,0,.348-.116.386S262.542,456.426,262.49,456.258Z" transform="translate(-92.073 -395.236)" fill="#e0e0e0"/>
          <path id="Trazado_125236" data-name="Trazado 125236" d="M266.15,457.2a.578.578,0,0,1,.4-.515c.283-.116.58-.064.644.1s-.1.412-.4.515S266.214,457.367,266.15,457.2Z" transform="translate(-91.018 -395.018)" fill="#e0e0e0"/>
          <path id="Trazado_125237" data-name="Trazado 125237" d="M269.123,456.251a.309.309,0,0,1,.232-.4.322.322,0,0,1,.387.245.348.348,0,0,1-.232.412A.335.335,0,0,1,269.123,456.251Z" transform="translate(-90.166 -395.242)" fill="#e0e0e0"/>
          <path id="Trazado_125238" data-name="Trazado 125238" d="M269.007,454.953a.335.335,0,0,1,.142-.438.322.322,0,0,1,.412.18.335.335,0,0,1-.142.438A.322.322,0,0,1,269.007,454.953Z" transform="translate(-90.204 -395.631)" fill="#e0e0e0"/>
          <path id="Trazado_125239" data-name="Trazado 125239" d="M266.491,454.043a.4.4,0,0,1,.734-.271.374.374,0,0,1-.245.451.361.361,0,0,1-.489-.18Z" transform="translate(-90.921 -395.893)" fill="#e0e0e0"/>
          <path id="Trazado_125240" data-name="Trazado 125240" d="M265.22,455.176c0-.18.155-.4.477-.515a.589.589,0,0,1,.683.129c.064.129-.155.412-.477.515S265.284,455.356,265.22,455.176Z" transform="translate(-91.286 -395.596)" fill="#e0e0e0"/>
          <path id="Trazado_125241" data-name="Trazado 125241" d="M267.72,454.735a.265.265,0,1,1,.464-.219.346.346,0,0,1-.09.412.3.3,0,0,1-.374-.193Z" transform="translate(-90.578 -395.683)" fill="#e0e0e0"/>
          <path id="Trazado_125242" data-name="Trazado 125242" d="M264,457.137a.3.3,0,0,1,.167-.386.322.322,0,0,1,.335.271.271.271,0,1,1-.5.116Z" transform="translate(-91.643 -394.981)" fill="#e0e0e0"/>
          <path id="Trazado_125243" data-name="Trazado 125243" d="M269,448.023c0-1.752,2.808-3.156,6.261-3.143s6.261,1.43,6.261,3.182-2.821,3.156-6.274,3.143S269,449.775,269,448.023Z" transform="translate(-90.197 -398.401)" fill="#c1507f"/>
          <path id="Trazado_125244" data-name="Trazado 125244" d="M272.323,446.1a.361.361,0,0,1,.271-.451.348.348,0,1,1-.271.451Z" transform="translate(-89.243 -398.181)" fill="#e0e0e0"/>
          <path id="Trazado_125245" data-name="Trazado 125245" d="M272.008,447.256a.322.322,0,0,1,.155-.438.309.309,0,0,1,.425.155.322.322,0,0,1-.142.451.335.335,0,0,1-.438-.167Z" transform="translate(-89.34 -397.853)" fill="#e0e0e0"/>
          <path id="Trazado_125246" data-name="Trazado 125246" d="M270.437,447.211a.3.3,0,1,1,.438,0A.322.322,0,0,1,270.437,447.211Z" transform="translate(-89.805 -397.873)" fill="#e0e0e0"/>
          <path id="Trazado_125247" data-name="Trazado 125247" d="M275.425,447.868a.335.335,0,0,1,.168-.425.348.348,0,0,1,.412.206.322.322,0,0,1-.18.425.309.309,0,0,1-.4-.206Z" transform="translate(-88.352 -397.666)" fill="#e0e0e0"/>
          <path id="Trazado_125248" data-name="Trazado 125248" d="M272.765,448.456a.351.351,0,1,1,.451.193A.361.361,0,0,1,272.765,448.456Z" transform="translate(-89.118 -397.507)" fill="#e0e0e0"/>
          <path id="Trazado_125249" data-name="Trazado 125249" d="M270.78,448.238c0-.18,0-.348.116-.386s.258.077.309.258,0,.348-.116.387S270.832,448.419,270.78,448.238Z" transform="translate(-89.684 -397.547)" fill="#e0e0e0"/>
          <path id="Trazado_125250" data-name="Trazado 125250" d="M274.443,449.176c-.064-.167.116-.4.4-.515a.567.567,0,0,1,.644.116c.064.116-.1.4-.4.515S274.52,449.344,274.443,449.176Z" transform="translate(-88.632 -397.326)" fill="#e0e0e0"/>
          <path id="Trazado_125251" data-name="Trazado 125251" d="M277.413,448.245a.335.335,0,1,1,.413.233.335.335,0,0,1-.413-.233Z" transform="translate(-87.776 -397.554)" fill="#e0e0e0"/>
          <path id="Trazado_125252" data-name="Trazado 125252" d="M277.276,446.924a.3.3,0,1,1,.393.148A.3.3,0,0,1,277.276,446.924Z" transform="translate(-87.819 -397.933)" fill="#e0e0e0"/>
          <path id="Trazado_125253" data-name="Trazado 125253" d="M274.784,446.047a.374.374,0,0,1,.245-.464.348.348,0,1,1,.245.631.373.373,0,0,1-.489-.168Z" transform="translate(-88.535 -398.216)" fill="#e0e0e0"/>
          <path id="Trazado_125254" data-name="Trazado 125254" d="M273.51,447.122c0-.18.155-.4.477-.5s.631,0,.683.129-.155.4-.477.5S273.574,447.341,273.51,447.122Z" transform="translate(-88.897 -397.912)" fill="#e0e0e0"/>
          <path id="Trazado_125255" data-name="Trazado 125255" d="M276.007,446.725a.346.346,0,0,1,.09-.412.344.344,0,0,1,.3.605A.335.335,0,0,1,276.007,446.725Z" transform="translate(-88.186 -397.993)" fill="#e0e0e0"/>
          <path id="Trazado_125256" data-name="Trazado 125256" d="M272.314,449.089a.322.322,0,0,1,.167-.4.348.348,0,0,1,.168.657A.309.309,0,0,1,272.314,449.089Z" transform="translate(-89.247 -397.303)" fill="#e0e0e0"/>
          <path id="Trazado_125257" data-name="Trazado 125257" d="M237.4,449.7c0-1.752,2.808-3.156,6.274-3.143s6.248,1.43,6.248,3.182-2.808,3.143-6.274,3.143S237.4,451.429,237.4,449.7Z" transform="translate(-99.304 -397.917)" fill="#c1507f"/>
          <path id="Trazado_125258" data-name="Trazado 125258" d="M240.7,447.847a.425.425,0,1,1,.5.167A.386.386,0,0,1,240.7,447.847Z" transform="translate(-98.374 -397.736)" fill="#e0e0e0"/>
          <path id="Trazado_125259" data-name="Trazado 125259" d="M240.39,448.927a.322.322,0,0,1,.142-.451.335.335,0,0,1,.438.167.322.322,0,0,1-.155.438.309.309,0,0,1-.425-.155Z" transform="translate(-98.455 -397.373)" fill="#e0e0e0"/>
          <path id="Trazado_125260" data-name="Trazado 125260" d="M238.81,448.871a.309.309,0,0,1,0-.438.322.322,0,0,1,.438.064.309.309,0,0,1,0,.438.3.3,0,0,1-.438-.064Z" transform="translate(-98.924 -397.394)" fill="#e0e0e0"/>
          <path id="Trazado_125261" data-name="Trazado 125261" d="M243.786,449.539a.311.311,0,1,1,.58-.219.311.311,0,1,1-.58.219Z" transform="translate(-97.472 -397.186)" fill="#e0e0e0"/>
          <path id="Trazado_125262" data-name="Trazado 125262" d="M241.125,450.1a.335.335,0,0,1,.219-.438.322.322,0,0,1,.438.18.353.353,0,1,1-.657.258Z" transform="translate(-98.237 -397.031)" fill="#e0e0e0"/>
          <path id="Trazado_125263" data-name="Trazado 125263" d="M239.14,449.907c0-.18,0-.361.129-.386s.245.077.3.258,0,.348-.116.387S239.192,450.139,239.14,449.907Z" transform="translate(-98.803 -397.065)" fill="#e0e0e0"/>
          <path id="Trazado_125264" data-name="Trazado 125264" d="M242.814,450.848c-.077-.18.1-.412.4-.515s.567-.064.644.1-.116.412-.4.515S242.878,451.015,242.814,450.848Z" transform="translate(-97.749 -396.846)" fill="#e0e0e0"/>
          <path id="Trazado_125265" data-name="Trazado 125265" d="M245.772,449.9a.335.335,0,0,1,.232-.4.322.322,0,0,1,.386.245.309.309,0,0,1-.219.4.322.322,0,0,1-.4-.245Z" transform="translate(-96.894 -397.072)" fill="#e0e0e0"/>
          <path id="Trazado_125266" data-name="Trazado 125266" d="M245.637,448.6a.3.3,0,0,1,.541-.258.335.335,0,0,1-.129.438A.322.322,0,0,1,245.637,448.6Z" transform="translate(-96.939 -397.454)" fill="#e0e0e0"/>
          <path id="Trazado_125267" data-name="Trazado 125267" d="M243.143,447.693a.374.374,0,0,1,.245-.451.348.348,0,1,1-.245.451Z" transform="translate(-97.653 -397.724)" fill="#e0e0e0"/>
          <path id="Trazado_125268" data-name="Trazado 125268" d="M241.87,448.825a.609.609,0,0,1,.477-.515c.322-.1.631,0,.683.129s-.155.412-.464.515S241.934,448.992,241.87,448.825Z" transform="translate(-98.016 -397.425)" fill="#e0e0e0"/>
          <path id="Trazado_125269" data-name="Trazado 125269" d="M244.38,448.385a.265.265,0,1,1,.464-.219.346.346,0,0,1-.09.412.3.3,0,0,1-.374-.193Z" transform="translate(-97.305 -397.513)" fill="#e0e0e0"/>
          <path id="Trazado_125270" data-name="Trazado 125270" d="M240.673,450.786a.322.322,0,0,1,.167-.386.339.339,0,0,1,.335.27.3.3,0,0,1-.167.386A.322.322,0,0,1,240.673,450.786Z" transform="translate(-98.365 -396.811)" fill="#e0e0e0"/>
          <path id="Trazado_125271" data-name="Trazado 125271" d="M229,455.043c0-1.739,2.808-3.156,6.261-3.143s6.261,1.43,6.248,3.182-2.808,3.156-6.261,3.143S229,456.8,229,455.043Z" transform="translate(-101.725 -396.378)" fill="#c1507f"/>
          <path id="Trazado_125272" data-name="Trazado 125272" d="M232.292,453.165a.373.373,0,0,1,.271-.451.348.348,0,1,1,.219.631.361.361,0,0,1-.489-.18Z" transform="translate(-100.779 -396.162)" fill="#e0e0e0"/>
          <path id="Trazado_125273" data-name="Trazado 125273" d="M232.011,454.28a.322.322,0,1,1,.58-.271.309.309,0,0,1-.142.438A.335.335,0,0,1,232.011,454.28Z" transform="translate(-100.871 -395.834)" fill="#e0e0e0"/>
          <path id="Trazado_125274" data-name="Trazado 125274" d="M230.41,454.232a.309.309,0,0,1,0-.438.3.3,0,0,1,.425.064.309.309,0,0,1,0,.438A.322.322,0,0,1,230.41,454.232Z" transform="translate(-101.345 -395.85)" fill="#e0e0e0"/>
          <path id="Trazado_125275" data-name="Trazado 125275" d="M235.386,454.886a.309.309,0,0,1,.18-.412.335.335,0,0,1,.412.193.316.316,0,1,1-.593.219Z" transform="translate(-99.892 -395.641)" fill="#e0e0e0"/>
          <path id="Trazado_125276" data-name="Trazado 125276" d="M232.735,455.476a.351.351,0,1,1,.451.206.351.351,0,0,1-.451-.206Z" transform="translate(-100.655 -395.484)" fill="#e0e0e0"/>
          <path id="Trazado_125277" data-name="Trazado 125277" d="M230.75,455.258c0-.18,0-.348.116-.386s.258.09.309.258,0,.361-.116.387S230.8,455.438,230.75,455.258Z" transform="translate(-101.221 -395.524)" fill="#e0e0e0"/>
          <path id="Trazado_125278" data-name="Trazado 125278" d="M234.41,456.2a.591.591,0,0,1,.4-.515c.283-.116.58-.064.644.116s-.1.4-.4.515S234.474,456.379,234.41,456.2Z" transform="translate(-100.166 -395.306)" fill="#e0e0e0"/>
          <path id="Trazado_125279" data-name="Trazado 125279" d="M237.383,455.263a.319.319,0,1,1,.386.245.322.322,0,0,1-.386-.245Z" transform="translate(-99.313 -395.529)" fill="#e0e0e0"/>
          <path id="Trazado_125280" data-name="Trazado 125280" d="M237.238,453.95a.309.309,0,0,1,.142-.425.322.322,0,0,1,.412.18.309.309,0,0,1-.142.425.322.322,0,0,1-.412-.18Z" transform="translate(-99.361 -395.916)" fill="#e0e0e0"/>
          <path id="Trazado_125281" data-name="Trazado 125281" d="M234.753,453.1a.361.361,0,0,1,.245-.451.335.335,0,1,1-.245.451Z" transform="translate(-100.071 -396.164)" fill="#e0e0e0"/>
          <path id="Trazado_125282" data-name="Trazado 125282" d="M233.48,454.172a.725.725,0,0,1,1.159-.374c.064.129-.155.4-.477.5S233.544,454.352,233.48,454.172Z" transform="translate(-100.434 -395.88)" fill="#e0e0e0"/>
          <path id="Trazado_125283" data-name="Trazado 125283" d="M236.01,453.745a.309.309,0,0,1,.09-.412.3.3,0,0,1,.374.193.309.309,0,0,1-.09.412.3.3,0,0,1-.374-.193Z" transform="translate(-99.717 -395.969)" fill="#e0e0e0"/>
          <path id="Trazado_125284" data-name="Trazado 125284" d="M232.285,456.146a.3.3,0,0,1,.167-.387.337.337,0,0,1,.335.258c.052.18,0,.361-.167.386a.3.3,0,0,1-.335-.258Z" transform="translate(-100.785 -395.266)" fill="#e0e0e0"/>
          <path id="Trazado_125285" data-name="Trazado 125285" d="M249.2,452.163c0-1.739,2.808-3.156,6.274-3.143s6.248,1.43,6.248,3.182-2.821,3.156-6.274,3.143S249.2,453.915,249.2,452.163Z" transform="translate(-95.903 -397.208)" fill="#c1507f"/>
          <path id="Trazado_125286" data-name="Trazado 125286" d="M252.482,450.279a.374.374,0,0,1,.271-.451.344.344,0,1,1,.232.631.374.374,0,0,1-.5-.18Z" transform="translate(-94.96 -396.986)" fill="#e0e0e0"/>
          <path id="Trazado_125287" data-name="Trazado 125287" d="M252.178,451.394a.322.322,0,0,1,.155-.438.335.335,0,0,1,.438.167.322.322,0,0,1-.155.438A.335.335,0,0,1,252.178,451.394Z" transform="translate(-95.055 -396.658)" fill="#e0e0e0"/>
          <path id="Trazado_125288" data-name="Trazado 125288" d="M250.61,451.352a.309.309,0,0,1,0-.438.335.335,0,0,1,.438.5.3.3,0,0,1-.438-.064Z" transform="translate(-95.523 -396.68)" fill="#e0e0e0"/>
          <path id="Trazado_125289" data-name="Trazado 125289" d="M255.586,452a.309.309,0,0,1,.168-.412.335.335,0,0,1,.232.618.309.309,0,0,1-.4-.206Z" transform="translate(-94.071 -396.469)" fill="#e0e0e0"/>
          <path id="Trazado_125290" data-name="Trazado 125290" d="M252.925,452.6a.351.351,0,1,1,.451.206A.351.351,0,0,1,252.925,452.6Z" transform="translate(-94.836 -396.314)" fill="#e0e0e0"/>
          <path id="Trazado_125291" data-name="Trazado 125291" d="M250.94,452.378c0-.18,0-.348.116-.386s.258.09.309.258,0,.361-.116.386S251.017,452.558,250.94,452.378Z" transform="translate(-95.402 -396.354)" fill="#e0e0e0"/>
          <path id="Trazado_125292" data-name="Trazado 125292" d="M254.6,453.319a.588.588,0,0,1,.412-.515c.3-.116.567-.064.644.116s-.116.4-.412.515S254.677,453.5,254.6,453.319Z" transform="translate(-94.347 -396.136)" fill="#e0e0e0"/>
          <path id="Trazado_125293" data-name="Trazado 125293" d="M257.572,452.383a.348.348,0,0,1,.232-.412.335.335,0,0,1,.387.258.309.309,0,0,1-.232.4.322.322,0,0,1-.386-.245Z" transform="translate(-93.493 -396.359)" fill="#e0e0e0"/>
          <path id="Trazado_125294" data-name="Trazado 125294" d="M257.439,451.1a.3.3,0,1,1,.541-.245.3.3,0,1,1-.541.245Z" transform="translate(-93.54 -396.738)" fill="#e0e0e0"/>
          <path id="Trazado_125295" data-name="Trazado 125295" d="M254.942,450.177a.4.4,0,0,1,.734-.283.361.361,0,0,1-.245.451.374.374,0,0,1-.49-.167Z" transform="translate(-94.251 -397.013)" fill="#e0e0e0"/>
          <path id="Trazado_125296" data-name="Trazado 125296" d="M253.67,451.292a.61.61,0,0,1,.477-.5c.322-.1.631,0,.683.129s-.155.4-.477.5S253.734,451.472,253.67,451.292Z" transform="translate(-94.615 -396.71)" fill="#e0e0e0"/>
          <path id="Trazado_125297" data-name="Trazado 125297" d="M256.181,450.868a.309.309,0,0,1,.077-.412c.129-.064.3,0,.386.193a.309.309,0,0,1-.09.412.3.3,0,0,1-.374-.193Z" transform="translate(-93.905 -396.802)" fill="#e0e0e0"/>
          <path id="Trazado_125298" data-name="Trazado 125298" d="M252.47,453.267c0-.18,0-.361.168-.386a.367.367,0,1,1-.167.386Z" transform="translate(-94.961 -396.096)" fill="#e0e0e0"/>
        </g>
      </g>
    </g>
  </g>
</svg>
