<svg xmlns="http://www.w3.org/2000/svg" width="496.328" height="384.701" viewBox="0 0 496.328 384.701">
  <g id="Features_Overview-pana" data-name="Features Overview-pana" transform="translate(-14.046 -48)">
    <g id="freepik--background-complete--inject-269" transform="translate(36.421 48)">
      <rect id="Rectángulo_30071" data-name="Rectángulo 30071" width="57.152" height="59.578" transform="translate(270.241 0.046)" fill="#e0e0e0"/>
      <rect id="Rectángulo_30072" data-name="Rectángulo 30072" width="57.152" height="59.578" transform="translate(265.623 0.046)" fill="#fafafa"/>
      <path id="Trazado_123619" data-name="Trazado 123619" d="M335.809,107.643H278.62V48h57.189Zm-57.152,0h57.124V48.065H278.657Z" transform="translate(-13.015 -48)" fill="#e0e0e0"/>
      <rect id="Rectángulo_30073" data-name="Rectángulo 30073" width="41.79" height="43.558" transform="translate(272.818 8.056)" fill="#fafafa"/>
      <path id="Trazado_123620" data-name="Trazado 123620" d="M286.33,104.05a6.954,6.954,0,0,1-1.037,1.2c-.667.7-1.6,1.658-2.658,2.695s-2.009,1.954-2.722,2.611a7,7,0,0,1-1.213,1.009,6.661,6.661,0,0,1,1.028-1.195c.667-.7,1.611-1.667,2.667-2.7s2.019-1.963,2.732-2.621a6.808,6.808,0,0,1,1.2-1Z" transform="translate(-18.612 -52.149)" fill="#e0e0e0"/>
      <path id="Trazado_123621" data-name="Trazado 123621" d="M332.07,103.94a6.658,6.658,0,0,1,1.195,1.028c.7.667,1.658,1.611,2.695,2.658s1.954,2.019,2.611,2.778a6.648,6.648,0,0,1,1.009,1.2,6.315,6.315,0,0,1-1.195-1.019c-.7-.676-1.658-1.611-2.695-2.667s-1.963-2.019-2.621-2.778a6.194,6.194,0,0,1-1-1.2Z" transform="translate(-14.277 -52.14)" fill="#e0e0e0"/>
      <path id="Trazado_123622" data-name="Trazado 123622" d="M331.94,56.22a7.6,7.6,0,0,1,1.037-1.195c.667-.7,1.6-1.658,2.658-2.695s2.009-1.963,2.722-2.611a6.482,6.482,0,0,1,1.213-1.009,6.657,6.657,0,0,1-1.028,1.195c-.667.7-1.611,1.658-2.658,2.695s-2.028,1.963-2.778,2.621a6.316,6.316,0,0,1-1.167,1Z" transform="translate(-14.273 -48.053)" fill="#e0e0e0"/>
      <path id="Trazado_123623" data-name="Trazado 123623" d="M286.21,56.326a7.02,7.02,0,0,1-1.195-1.037c-.7-.667-1.658-1.6-2.695-2.648s-1.954-2.019-2.611-2.778A6.483,6.483,0,0,1,278.7,48.65a6.657,6.657,0,0,1,1.2,1.074c.7.667,1.658,1.611,2.7,2.667s1.963,2.019,2.611,2.778a5.889,5.889,0,0,1,.991,1.157Z" transform="translate(-18.623 -48.048)" fill="#e0e0e0"/>
      <path id="Trazado_123624" data-name="Trazado 123624" d="M328.6,100.232V88.185c0-7.63-.046-18.52-.083-31.483l.157.157H287.007l.185-.185v43.521l-.157-.157,30.169.083h.065L287,100.2h-.157V56.34h42.021v.167c0,13.056-.065,23.955-.083,31.613V99.871a.62.62,0,0,1-.176.361Z" transform="translate(-14.103 -48.617)" fill="#e0e0e0"/>
      <rect id="Rectángulo_30074" data-name="Rectángulo 30074" width="13.945" height="13.945" transform="translate(285.948 22.863)" fill="#ebebeb"/>
      <rect id="Rectángulo_30075" data-name="Rectángulo 30075" width="80.357" height="83.765" transform="translate(6.732 24.659)" fill="#e0e0e0"/>
      <rect id="Rectángulo_30076" data-name="Rectángulo 30076" width="80.357" height="83.765" transform="translate(1.287 24.659)" fill="#fafafa"/>
      <path id="Trazado_123625" data-name="Trazado 123625" d="M119.983,158.411H39.58V74.6h80.4Zm-80.357-.046h80.311V74.646H39.626Z" transform="translate(-38.311 -49.969)" fill="#e0e0e0"/>
      <rect id="Rectángulo_30077" data-name="Rectángulo 30077" width="58.754" height="61.245" transform="translate(12.093 35.919)" fill="#fafafa"/>
      <path id="Trazado_123626" data-name="Trazado 123626" d="M50.415,153.37a9.416,9.416,0,0,1-1.454,1.685c-.926.991-2.25,2.324-3.7,3.787s-2.834,2.778-3.834,3.7a8.936,8.936,0,0,1-1.7,1.417,10.186,10.186,0,0,1,1.417-1.676c.926-.991,2.259-2.333,3.7-3.8s2.843-2.778,3.843-3.7a9.1,9.1,0,0,1,1.732-1.417Z" transform="translate(-38.322 -55.799)" fill="#e0e0e0"/>
      <path id="Trazado_123627" data-name="Trazado 123627" d="M114.72,153.2a9.935,9.935,0,0,1,1.685,1.454c.991.926,2.324,2.259,3.787,3.7s2.778,2.843,3.7,3.843a9.093,9.093,0,0,1,1.417,1.695,9.131,9.131,0,0,1-1.676-1.445c-.991-.926-2.333-2.259-3.8-3.7s-2.778-2.843-3.7-3.843a8.76,8.76,0,0,1-1.417-1.7Z" transform="translate(-31.881 -55.786)" fill="#e0e0e0"/>
      <path id="Trazado_123628" data-name="Trazado 123628" d="M114.54,86.153a9.936,9.936,0,0,1,1.454-1.685c.926-.991,2.259-2.324,3.7-3.787s2.843-2.778,3.843-3.7a9.094,9.094,0,0,1,1.695-1.417,9.13,9.13,0,0,1-1.445,1.676c-.926.991-2.259,2.333-3.7,3.8s-2.843,2.778-3.843,3.7a8.76,8.76,0,0,1-1.7,1.417Z" transform="translate(-31.893 -50.04)" fill="#e0e0e0"/>
      <path id="Trazado_123629" data-name="Trazado 123629" d="M50.253,86.275a9.528,9.528,0,0,1-1.685-1.454c-.991-.926-2.333-2.259-3.787-3.7s-2.778-2.843-3.7-3.843A9.594,9.594,0,0,1,39.66,75.58a8.463,8.463,0,0,1,1.676,1.445c.991.926,2.333,2.259,3.8,3.7s2.778,2.843,3.7,3.843a9.26,9.26,0,0,1,1.417,1.7Z" transform="translate(-38.317 -50.041)" fill="#e0e0e0"/>
      <path id="Trazado_123630" data-name="Trazado 123630" d="M109.837,148.011v-4.463c0-2.9,0-7.121-.065-12.482,0-10.723-.065-26-.111-44.3l.222.222H51.306l.259-.259v61.245l-.222-.222,42.419.111,11.917.056h3.972a1.58,1.58,0,0,1,.278,0h-4.158l-11.954.157-42.6.12H51V86.47h59.078V86.7c-.046,18.353-.093,33.687-.12,44.447,0,5.334,0,9.538-.056,12.427v4.093A1.584,1.584,0,0,1,109.837,148.011Z" transform="translate(-39.157 -50.847)" fill="#e0e0e0"/>
      <rect id="Rectángulo_30078" data-name="Rectángulo 30078" width="19.603" height="19.603" transform="translate(31.669 56.735)" fill="#ebebeb"/>
      <rect id="Rectángulo_30079" data-name="Rectángulo 30079" width="84.015" height="87.58" transform="translate(367.677 48.67)" fill="#e0e0e0"/>
      <rect id="Rectángulo_30080" data-name="Rectángulo 30080" width="84.015" height="87.58" transform="translate(361.982 48.67)" fill="#fafafa"/>
      <path id="Trazado_123631" data-name="Trazado 123631" d="M444.22,188.165H360.15V100.53h84.07ZM360.2,188.11h83.968V100.586H360.2Z" transform="translate(1.814 -51.888)" fill="#e0e0e0"/>
      <rect id="Rectángulo_30081" data-name="Rectángulo 30081" width="61.43" height="64.032" transform="translate(373.279 60.439)" fill="#fafafa"/>
      <path id="Trazado_123632" data-name="Trazado 123632" d="M371.474,182.89a10.462,10.462,0,0,1-1.519,1.759c-.982,1.037-2.352,2.435-3.9,3.963s-2.972,2.871-4.019,3.834a10.111,10.111,0,0,1-1.769,1.482,9.074,9.074,0,0,1,1.5-1.75c.982-1.037,2.371-2.445,3.917-3.972s2.972-2.88,4.019-3.843a9.742,9.742,0,0,1,1.769-1.472Z" transform="translate(-11.489 -57.984)" fill="#e0e0e0"/>
      <path id="Trazado_123633" data-name="Trazado 123633" d="M438.71,182.72a10.185,10.185,0,0,1,1.759,1.509c1.037.982,2.445,2.361,3.963,3.908s2.88,2.963,3.843,4.019a9.742,9.742,0,0,1,1.472,1.769,10.305,10.305,0,0,1-1.75-1.5c-1.037-.982-2.445-2.371-3.963-3.917s-2.889-2.972-3.852-4.019A9.743,9.743,0,0,1,438.71,182.72Z" transform="translate(-4.001 -57.971)" fill="#e0e0e0"/>
      <path id="Trazado_123634" data-name="Trazado 123634" d="M438.53,112.578a10.046,10.046,0,0,1,1.519-1.759c.982-1.037,2.352-2.445,3.9-3.963s2.972-2.88,4.019-3.843a9.741,9.741,0,0,1,1.769-1.472,9.778,9.778,0,0,1-1.5,1.75c-.982,1.037-2.371,2.445-3.917,3.963s-2.972,2.889-4.019,3.852A9.742,9.742,0,0,1,438.53,112.578Z" transform="translate(-3.988 -51.963)" fill="#e0e0e0"/>
      <path id="Trazado_123635" data-name="Trazado 123635" d="M371.308,112.734a10.046,10.046,0,0,1-1.759-1.519c-1.037-.982-2.445-2.361-3.963-3.908s-2.88-2.963-3.843-4.01a9.261,9.261,0,0,1-1.472-1.778,10.716,10.716,0,0,1,1.75,1.509c1.037.982,2.445,2.361,3.963,3.917s2.889,2.972,3.852,4.019A9.74,9.74,0,0,1,371.308,112.734Z" transform="translate(-11.511 -51.961)" fill="#e0e0e0"/>
      <path id="Trazado_123636" data-name="Trazado 123636" d="M433.623,177.291a2.287,2.287,0,0,1,0-.315v-4.389c0-3.028,0-7.408-.065-13.047,0-11.214-.065-27.2-.12-46.3l.241.241H372.424l.269-.278v64.041l-.232-.232,44.355.111,12.464.065h.093l-12.408.056-44.5.12h-.231V113H434v.231c-.056,19.2-.093,35.187-.12,46.475,0,5.556-.056,9.982-.065,12.964v4.278A.456.456,0,0,1,433.623,177.291Z" transform="translate(0.919 -52.811)" fill="#e0e0e0"/>
      <rect id="Rectángulo_30082" data-name="Rectángulo 30082" width="20.501" height="20.501" transform="translate(393.743 82.209)" fill="#ebebeb"/>
      <path id="Trazado_123637" data-name="Trazado 123637" d="M44.19,417.01v42.882h131.9V417.01Z" transform="translate(-38.653 -75.312)" fill="#f5f5f5"/>
      <path id="Trazado_123638" data-name="Trazado 123638" d="M38.21,404.06v11.992H180.247V404.06H38.21Z" transform="translate(-38.21 -74.354)" fill="#e0e0e0"/>
      <path id="Trazado_123639" data-name="Trazado 123639" d="M114.689,458.934H181.1V416.052h4.6V404.06H111.92v10.88Z" transform="translate(-29.789 -74.354)" fill="#e0e0e0"/>
      <rect id="Rectángulo_30083" data-name="Rectángulo 30083" width="26.752" height="6.454" transform="translate(23.983 348.615)" fill="#e0e0e0"/>
      <rect id="Rectángulo_30084" data-name="Rectángulo 30084" width="34.345" height="13.63" transform="translate(20.538 363.144)" fill="#fff"/>
    </g>
    <g id="freepik--Character--inject-269" transform="translate(229.349 140.388)">
      <path id="Trazado_123640" data-name="Trazado 123640" d="M239.382,327.546s-2.167-9.408-10.9-8.936-10.853.472-14.621,0-9.621-5.01-11.269-3.6-.732,4.491,2.333,7.213,8.334,4.63,8.334,4.63L202.1,328.769s-10.056-5.371-12.417-4.426a3.648,3.648,0,0,0-2.167,3.556s-4.176-1.852-5.352-.222-1.472,2.778-.287,3.7c0,0-.778-.769-2.945-.13-1.852.546-1.695,3.963,0,4.88l.574.333s15.816,9.1,16.3,9.167c2.778.37,19.835-.352,28.613-.759a8.954,8.954,0,0,1,8,4.185l14.131,22.409,15.964-18.427Z" transform="translate(-177.603 -160.13)" fill="#b78876"/>
      <path id="Trazado_123641" data-name="Trazado 123641" d="M211.367,333.685a17.8,17.8,0,0,1-2.584.574c-1.639.306-3.935.713-6.621,1.167h-.13l-3.574-1.639-8.528-3.926-2.574-1.222a4.3,4.3,0,0,1-.926-.519,4.341,4.341,0,0,1,.991.343l2.639,1.083,3.88,1.676,4.713,2.148,3.565,1.658h-.139c2.685-.426,5-.769,6.649-1a16.812,16.812,0,0,1,2.639-.343Z" transform="translate(-178.256 -161.121)" fill="#aa6550"/>
      <path id="Trazado_123642" data-name="Trazado 123642" d="M208.621,338.66a13.52,13.52,0,0,0-6.371,5.056,8.019,8.019,0,0,1,6.371-5.056Z" transform="translate(-179.427 -161.901)" fill="#aa6550"/>
      <path id="Trazado_123643" data-name="Trazado 123643" d="M227.866,324.42c.056,0,.1.574.407,1.5a7.88,7.88,0,0,0,2.148,3.315l.324.287-.426.083a22.539,22.539,0,0,0-4.334,1.287,22.853,22.853,0,0,0-6.084,3.7c-1.4,1.194-2.139,2.074-2.2,2.019s.139-.259.463-.667a17.41,17.41,0,0,1,1.509-1.6,20.426,20.426,0,0,1,6.13-3.926,20.9,20.9,0,0,1,4.445-1.269l-.111.37a7.5,7.5,0,0,1-2.111-3.556,3.7,3.7,0,0,1-.157-1.546Z" transform="translate(-180.57 -160.847)" fill="#aa6550"/>
      <path id="Trazado_123644" data-name="Trazado 123644" d="M216.4,327.3a26.354,26.354,0,0,1-6.084,1.639c-1.713.315-3.278.537-4.408.648a6.952,6.952,0,0,1-1.852.074c0-.148,2.778-.556,6.167-1.195l4.352-.861a8.11,8.11,0,0,1,1.824-.306Z" transform="translate(-179.561 -161.06)" fill="#aa6550"/>
      <path id="Trazado_123645" data-name="Trazado 123645" d="M199.907,340.065A23.352,23.352,0,0,1,197.268,339c-1.62-.667-3.889-1.528-6.417-2.426s-4.806-1.759-6.426-2.454a13.723,13.723,0,0,1-2.565-1.25,21.364,21.364,0,0,1,2.685.926l6.482,2.315c2.528.926,4.787,1.852,6.38,2.574A12.532,12.532,0,0,1,199.907,340.065Z" transform="translate(-177.918 -161.472)" fill="#aa6550"/>
      <path id="Trazado_123646" data-name="Trazado 123646" d="M205.145,340.228a10.528,10.528,0,0,1-6.815.676c0-.139,1.556-.056,3.417-.25A31.48,31.48,0,0,1,205.145,340.228Z" transform="translate(-179.137 -162.015)" fill="#aa6550"/>
      <path id="Trazado_123647" data-name="Trazado 123647" d="M296.453,281.81s-14.121,8.121-17.075,32.937c-1.537,12.964-7.176,36.993-7.176,36.993l-11.6-13.019L243.07,358.778S262.006,399.2,272.7,410.216s31.909,14.418,31.909,14.418l4.269-67.551Z" transform="translate(-182.449 -157.693)" fill="#f5ca56"/>
      <path id="Trazado_123648" data-name="Trazado 123648" d="M407.252,269.3,374.63,263.59l-41.586,2.065s-34.632,14.3-32.863,14.816l-6.75,66.838,16.723,32.3L306,448.417H420.818l-5.991-47.836-7.51-57.643,14.251,44.623,2.158,60.856h31.946c3.38-26.5,4.435-63.319,4.435-63.319l-26.076-85.191a49.679,49.679,0,0,0-22.085-28.317A26.739,26.739,0,0,0,407.252,269.3Z" transform="translate(-186.176 -156.345)" fill="#f5ca56"/>
      <path id="Trazado_123649" data-name="Trazado 123649" d="M300.32,318.23l.074.343c.046.25.111.583.185,1.009.157.926.389,2.2.676,3.871.565,3.361,1.38,8.232,2.306,14.26s2.019,13.223,2.945,21.224,1.935,16.834,2.472,26.131c.046.87.093,1.732.139,2.528h0c-.482,18.047-1.037,34.261-1.546,45.966-.259,5.843-.491,10.565-.694,13.825q-.157,2.417-.25,3.7c0,.407-.056.732-.074.972a2.329,2.329,0,0,1,0,.333,1.849,1.849,0,0,1,0-.333v-.982c0-.88.093-2.139.167-3.7.12-3.287.306-8,.537-13.834.417-11.7.926-27.918,1.4-45.957h0c0-.8-.093-1.658-.139-2.528-.537-9.26-1.472-18.1-2.435-26.1s-1.982-15.2-2.871-21.224-1.648-10.89-2.158-14.288l-.583-3.889c-.056-.426-.1-.759-.139-1.009a1.673,1.673,0,0,1-.009-.315Z" transform="translate(-186.686 -160.389)" fill="#263238"/>
      <path id="Trazado_123650" data-name="Trazado 123650" d="M408.361,319.214a1.332,1.332,0,0,1-.1-.426c-.056-.343-.13-.75-.213-1.241a8.165,8.165,0,0,0-.13-.926c-.046-.352-.056-.685-.083-1.074a23.338,23.338,0,0,1-.083-2.63q0-.736,0-1.528c0-.528.093-1.083.148-1.658a32.564,32.564,0,0,1,.556-3.621,39.735,39.735,0,0,1,2.648-7.964A40.6,40.6,0,0,1,415.5,291a34.855,34.855,0,0,1,2.426-2.778c.4-.407.769-.815,1.167-1.176l1.157-1.009a23.525,23.525,0,0,1,2.065-1.62,8.176,8.176,0,0,1,.926-.63l.769-.472,1.083-.639a2.29,2.29,0,0,1,.389-.194,2.211,2.211,0,0,1-.343.278l-1.019.713-.75.5c-.269.194-.546.426-.843.657a25.012,25.012,0,0,0-2.009,1.667l-1.12,1.019c-.389.361-.75.778-1.139,1.185a32.744,32.744,0,0,0-2.361,2.778,37.336,37.336,0,0,0-6.991,14.955,34.183,34.183,0,0,0-.593,3.574c-.065.565-.148,1.1-.176,1.63s-.046,1.028-.065,1.519c-.074.926,0,1.852,0,2.6v1.074a7.267,7.267,0,0,0,.1.926c.046.491.083.926.111,1.241a1.649,1.649,0,0,1,.074.417Z" transform="translate(-194.637 -157.743)" fill="#263238"/>
      <path id="Trazado_123651" data-name="Trazado 123651" d="M430.273,393.085a2.424,2.424,0,0,1-.213-.556c-.139-.417-.315-.926-.528-1.611-.454-1.454-1.083-3.463-1.852-5.926-1.565-5.01-3.7-11.936-6.195-19.548s-4.778-14.5-6.63-19.4c-.926-2.435-1.9-4.343-2.472-5.695-.287-.676-.509-1.2-.648-1.565a4.073,4.073,0,0,1-.185-.565,2.776,2.776,0,0,1,.278.528l.722,1.528c.63,1.324,1.611,3.2,2.621,5.639,1.945,4.9,4.287,11.76,6.769,19.381s4.584,14.556,6.074,19.594c.741,2.519,1.324,4.565,1.713,5.982.176.667.324,1.2.435,1.63a2.675,2.675,0,0,1,.111.583Z" transform="translate(-194.919 -161.868)" fill="#263238"/>
      <path id="Trazado_123652" data-name="Trazado 123652" d="M456.012,395.056c0,.083-1.241-.269-3.25-.583a31.166,31.166,0,0,0-7.9-.185,30.847,30.847,0,0,0-7.676,1.852c-1.852.741-3,1.352-3.046,1.278a3.306,3.306,0,0,1,.741-.5,20.184,20.184,0,0,1,2.176-1.093,27.188,27.188,0,0,1,7.75-2.037,26.855,26.855,0,0,1,8.01.324,18.711,18.711,0,0,1,2.361.593A3.259,3.259,0,0,1,456.012,395.056Z" transform="translate(-196.591 -165.969)" fill="#263238"/>
      <path id="Trazado_123653" data-name="Trazado 123653" d="M299.761,387.661a11.715,11.715,0,0,1-.861-1.287c-.565-.824-1.4-2-2.519-3.38-2.213-2.778-5.463-6.482-9.075-10.584s-6.88-7.778-9.186-10.51c-1.148-1.361-2.074-2.472-2.695-3.259a9.4,9.4,0,0,1-.926-1.241,8.408,8.408,0,0,1,1.065,1.12l2.778,3.158,9.26,10.408c3.611,4.084,6.825,7.834,8.982,10.7a39.343,39.343,0,0,1,2.408,3.491c.259.426.426.778.546,1.019S299.779,387.652,299.761,387.661Z" transform="translate(-184.775 -163.288)" fill="#263238"/>
      <g id="Grupo_55329" data-name="Grupo 55329" transform="translate(108.43 212.53)" opacity="0.3">
        <path id="Trazado_123654" data-name="Trazado 123654" d="M307.636,431.7c.519-18.7,1.491-35.947-.2-54.411-.759,16.39-6.723,35.567-12.732,50.837Z" transform="translate(-294.7 -377.29)"/>
      </g>
      <g id="Grupo_55330" data-name="Grupo 55330" transform="translate(216.099 174.685)" opacity="0.3">
        <path id="Trazado_123655" data-name="Trazado 123655" d="M415.98,348.328s-5.324-11.908-4.963-11.908a181.1,181.1,0,0,0,12.343,68.523Z" transform="translate(-410.975 -336.42)"/>
      </g>
      <path id="Trazado_123656" data-name="Trazado 123656" d="M395.561,417.48a6.237,6.237,0,0,1-.639.407l-1.852,1.083c-1.62.926-3.963,2.333-6.824,4.1s-6.278,3.852-10.186,6.047a89.667,89.667,0,0,1-13.093,6.186,43.984,43.984,0,0,1-14.2,2.889,21.363,21.363,0,0,1-6.287-.926,14.909,14.909,0,0,1-4.9-2.574,12.371,12.371,0,0,1-4.408-6.575,9.909,9.909,0,0,1-.287-2.158,4.747,4.747,0,0,1,.046-.75,13.951,13.951,0,0,0,.426,2.861,12.519,12.519,0,0,0,4.426,6.362,14.817,14.817,0,0,0,4.815,2.454,21.14,21.14,0,0,0,6.167.824,44.513,44.513,0,0,0,14.029-2.9,93.408,93.408,0,0,0,13.047-6.121c3.871-2.167,7.3-4.241,10.186-5.954s5.26-3.065,6.908-3.973l1.917-1.009A3.882,3.882,0,0,1,395.561,417.48Z" transform="translate(-189.097 -167.735)" fill="#263238"/>
      <path id="Trazado_123657" data-name="Trazado 123657" d="M398.362,388.19A10.548,10.548,0,0,1,398,389.8a17.591,17.591,0,0,1-.537,1.852c-.241.713-.482,1.546-.852,2.426s-.732,1.852-1.222,2.861-1.037,2.074-1.63,3.185a47.6,47.6,0,0,1-10.352,12.612,32.424,32.424,0,0,1-2.778,2.222c-.926.639-1.769,1.25-2.574,1.759s-1.546.926-2.2,1.315-1.241.667-1.722.926a12.615,12.615,0,0,1-1.509.667,10.652,10.652,0,0,1,1.426-.833c.463-.25,1.037-.556,1.667-.926s1.389-.806,2.158-1.361,1.648-1.1,2.519-1.787,1.8-1.435,2.778-2.241a50,50,0,0,0,10.177-12.566c.6-1.093,1.195-2.121,1.658-3.139s.926-1.945,1.269-2.778.648-1.676.926-2.38a18.868,18.868,0,0,0,.62-1.852,9.906,9.906,0,0,1,.546-1.574Z" transform="translate(-192.037 -165.567)" fill="#263238"/>
      <path id="Trazado_123658" data-name="Trazado 123658" d="M300.377,341.692c0,.13-4.852-.824-10.769-2.13s-10.7-2.463-10.667-2.593,4.843.815,10.769,2.121S300.4,341.562,300.377,341.692Z" transform="translate(-185.104 -161.775)" fill="#fafafa"/>
      <path id="Trazado_123659" data-name="Trazado 123659" d="M300.445,335.912a17.434,17.434,0,0,1-3.047-.343c-1.852-.287-4.445-.75-7.288-1.287l-7.25-1.417a22.767,22.767,0,0,1-2.991-.685,17.43,17.43,0,0,1,3.046.343c1.852.287,4.454.75,7.288,1.287l7.25,1.426a22.045,22.045,0,0,1,2.991.676Z" transform="translate(-185.172 -161.421)" fill="#fafafa"/>
      <path id="Trazado_123660" data-name="Trazado 123660" d="M401.158,336.938c0,.13-20.844.083-46.559-.111s-46.549-.463-46.549-.593,20.844-.083,46.559.111S401.158,336.771,401.158,336.938Z" transform="translate(-187.258 -161.716)" fill="#fafafa"/>
      <path id="Trazado_123661" data-name="Trazado 123661" d="M402.6,342.051c0,.13-21.446.241-47.9.241s-47.9-.111-47.9-.241,21.446-.241,47.9-.241S402.6,341.912,402.6,342.051Z" transform="translate(-187.166 -162.134)" fill="#fafafa"/>
      <path id="Trazado_123662" data-name="Trazado 123662" d="M449.625,330.187h.111c.111,0-.083,0-.139.056h-.083v-.093h.407l-.287.1c-1.7.63-8.871,3.056-17.325,6.278l-12.464,4.787-3.778,1.445a9.018,9.018,0,0,1-1.407.482,7.813,7.813,0,0,1,1.333-.648c.88-.389,2.148-.926,3.7-1.593,3.158-1.315,7.538-3.083,12.417-4.926,8.473-3.222,15.742-5.5,17.473-5.926v.1h-.111v-.093h.083a.125.125,0,0,1,.139.074Z" transform="translate(-195.149 -161.271)" fill="#fafafa"/>
      <path id="Trazado_123663" data-name="Trazado 123663" d="M448.685,323.73c0,.13-8.084,2.972-18.159,6.352s-18.27,6.028-18.307,5.908,8.084-2.972,18.159-6.362S448.639,323.6,448.685,323.73Z" transform="translate(-194.968 -160.796)" fill="#fafafa"/>
      <path id="Trazado_123664" data-name="Trazado 123664" d="M381.009,264.34a3.9,3.9,0,0,1,.083.75,17.587,17.587,0,0,1,.056,2.148,23.262,23.262,0,0,1-1.639,7.75,23.937,23.937,0,0,1-6.871,9.491,23.585,23.585,0,0,1-27.159,1.658,23.826,23.826,0,0,1-7.973-8.584,23.251,23.251,0,0,1-2.574-7.491,17.083,17.083,0,0,1-.2-2.148,3.548,3.548,0,0,1,0-.75,3.805,3.805,0,0,1,.1.75,15.4,15.4,0,0,0,.3,2.12,24.325,24.325,0,0,0,2.685,7.352,23.882,23.882,0,0,0,7.908,8.334,23.307,23.307,0,0,0,26.65-1.63,23.918,23.918,0,0,0,8.6-16.9c0-.926.056-1.648,0-2.139a4.223,4.223,0,0,1,.037-.713Z" transform="translate(-189.231 -156.4)" fill="#fafafa"/>
      <path id="Trazado_123665" data-name="Trazado 123665" d="M261.548,345.34a4.018,4.018,0,0,1-.491.926c-.333.556-.852,1.352-1.509,2.324-1.324,1.926-3.25,4.528-5.556,7.26a89.564,89.564,0,0,1-6.26,6.667c-.843.815-1.537,1.454-2.037,1.852a3.7,3.7,0,0,1-.806.62,5.2,5.2,0,0,1,.676-.759l1.926-1.982c1.63-1.676,3.834-4.028,6.13-6.741s4.26-5.269,5.649-7.149l1.63-2.222A4.213,4.213,0,0,1,261.548,345.34Z" transform="translate(-182.583 -162.395)" fill="#fafafa"/>
      <g id="Grupo_55331" data-name="Grupo 55331" transform="translate(162.146 233.8)" opacity="0.3">
        <path id="Trazado_123666" data-name="Trazado 123666" d="M374.137,418.817c-4.676,2.658-10.982,3.084-16.612,3.232a7.159,7.159,0,0,1-3.13-.417,2.648,2.648,0,0,1-1.685-2.463c.12-1.278,1.389-2.093,2.565-2.584,4.547-1.852,9.649-1.778,14.427-2.972,8.13-2.046,16.436-7.852,22.77-13.353a49.531,49.531,0,0,1-18.335,18.52" transform="translate(-352.71 -400.26)"/>
      </g>
      <path id="Trazado_123667" data-name="Trazado 123667" d="M354.054,279.229h0a20.881,20.881,0,0,1-19.223-21.011c0-5.2.093-9.371.093-9.371s-16.76-2.6-16.964-19.362,2.695-55.254,2.695-55.254h0a58.244,58.244,0,0,1,58.541,7.362l2.482,1.908-5.111,76.283a20.89,20.89,0,0,1-22.511,19.446Z" transform="translate(-187.991 -149.38)" fill="#b78876"/>
      <path id="Trazado_123668" data-name="Trazado 123668" d="M336.247,254.414a39.012,39.012,0,0,0,21.853-6.2s-5.158,12.038-21.89,10.547Z" transform="translate(-189.342 -155.206)" fill="#aa6550"/>
      <path id="Trazado_123669" data-name="Trazado 123669" d="M384.484,203.308c.287-.12,11.519-3.408,11.112,8.056s-11.8,8.723-11.806,8.4S384.484,203.308,384.484,203.308Z" transform="translate(-192.864 -151.844)" fill="#b78876"/>
      <path id="Trazado_123670" data-name="Trazado 123670" d="M387.759,215.831c.056,0,.194.148.528.315a2.019,2.019,0,0,0,1.491.074c1.222-.407,2.306-2.3,2.426-4.361a6.556,6.556,0,0,0-.463-2.871,2.324,2.324,0,0,0-1.454-1.583,1.019,1.019,0,0,0-1.195.509c-.167.315-.1.546-.157.565s-.241-.194-.139-.667a1.305,1.305,0,0,1,.472-.7,1.556,1.556,0,0,1,1.12-.259,2.778,2.778,0,0,1,2.028,1.852,6.742,6.742,0,0,1,.583,3.213c-.139,2.315-1.4,4.435-3.065,4.861a2.139,2.139,0,0,1-1.852-.361C387.768,216.108,387.722,215.849,387.759,215.831Z" transform="translate(-193.157 -152.144)" fill="#aa6550"/>
      <path id="Trazado_123671" data-name="Trazado 123671" d="M327.44,203.437a2.389,2.389,0,0,0,2.306,2.417,2.287,2.287,0,0,0,2.472-2.158,2.4,2.4,0,0,0-2.306-2.417,2.287,2.287,0,0,0-2.472,2.158Z" transform="translate(-188.693 -151.732)" fill="#263238"/>
      <path id="Trazado_123672" data-name="Trazado 123672" d="M324.3,199.849c.3.315,2.1-1.028,4.685-1.019s4.463,1.3,4.741.982c.139-.139-.167-.7-.991-1.306a6.575,6.575,0,0,0-3.8-1.167,6.287,6.287,0,0,0-3.7,1.2C324.417,199.146,324.149,199.71,324.3,199.849Z" transform="translate(-188.458 -151.441)" fill="#263238"/>
      <path id="Trazado_123673" data-name="Trazado 123673" d="M354.15,204.047a2.4,2.4,0,0,0,2.306,2.417,2.3,2.3,0,0,0,2.472-2.158,2.389,2.389,0,0,0-2.306-2.417,2.287,2.287,0,0,0-2.472,2.158Z" transform="translate(-190.67 -151.777)" fill="#263238"/>
      <path id="Trazado_123674" data-name="Trazado 123674" d="M351.637,200.369c.3.315,2.111-1.028,4.685-1.019s4.463,1.3,4.741.982c.139-.139-.157-.7-.982-1.306a6.593,6.593,0,0,0-3.8-1.167,6.26,6.26,0,0,0-3.7,1.2C351.757,199.666,351.489,200.23,351.637,200.369Z" transform="translate(-190.481 -151.48)" fill="#263238"/>
      <path id="Trazado_123675" data-name="Trazado 123675" d="M341.019,219.485c0-.148-1.583-.417-4.176-.75-.657-.074-1.287-.2-1.4-.648a3.4,3.4,0,0,1,.444-1.954c.62-1.593,1.259-3.259,1.945-5.01,2.7-7.13,4.63-12.964,4.371-13.093s-2.713,5.556-5.417,12.714l-1.852,5.037a3.824,3.824,0,0,0-.343,2.583,1.639,1.639,0,0,0,1.083.926,4.324,4.324,0,0,0,1.111.157C339.389,219.624,341.01,219.633,341.019,219.485Z" transform="translate(-189.216 -151.492)" fill="#263238"/>
      <path id="Trazado_123676" data-name="Trazado 123676" d="M350.919,189.516c.259.7,2.824.37,5.852.732s5.463,1.195,5.861.565c.185-.306-.241-.926-1.232-1.639a10.26,10.26,0,0,0-8.927-.982C351.373,188.637,350.808,189.183,350.919,189.516Z" transform="translate(-190.43 -150.72)" fill="#263238"/>
      <path id="Trazado_123677" data-name="Trazado 123677" d="M325.315,191.789c.454.593,2.222,0,4.361-.046s3.935.389,4.352-.222c.185-.3-.1-.926-.926-1.435a5.982,5.982,0,0,0-3.547-.926,6.047,6.047,0,0,0-3.482,1.176C325.361,190.863,325.111,191.511,325.315,191.789Z" transform="translate(-188.531 -150.835)" fill="#263238"/>
      <path id="Trazado_123678" data-name="Trazado 123678" d="M312.047,162.021a6.2,6.2,0,0,1,2.287-5.556,4.389,4.389,0,0,1,5.686.426,5.121,5.121,0,0,1,4.4-6.213c2.778-.167,5.065,1.9,7.713,2.621a12.164,12.164,0,0,0,7.825-.926c2.482-1.019,4.8-2.38,7.306-3.3a21.446,21.446,0,0,1,27.418,12.593c3.7-1.148,7.834.713,10.093,3.815s2.843,7.186,2.389,11a34.881,34.881,0,0,1-1.917,7.612c0,.213,0,.426,0,.648-.176,9.214-1.213,20.038-5.148,20.094-6.852.111-5.223-12.806-5.223-12.806-8.408-3.25-5.278-15.853-7.408-17.76s-6.482-6.352-24.076,2.648c-6.834,3.491-15.927,3.38-20.89,2.259l-.444-.093h-.1a.871.871,0,0,0-.139-.056,16.048,16.048,0,0,1-4.519-1.917,8.954,8.954,0,0,1-3.7-4.139,4.88,4.88,0,0,1,.926-5.25,10.723,10.723,0,0,1-2.472-5.7Z" transform="translate(-187.551 -147.772)" fill="#263238"/>
      <path id="Trazado_123679" data-name="Trazado 123679" d="M339.151,229.53a11.658,11.658,0,0,0,1.5,2.926,3.9,3.9,0,0,0,2.778,1.611,3.491,3.491,0,0,0,2.954-1.611,5.556,5.556,0,0,0,.824-3.361c-.046-1.056-.537-2.315-1.583-2.445a2.584,2.584,0,0,0-1.278.287l-5.556,2.241" transform="translate(-189.533 -153.61)" fill="#aa6550"/>
      <path id="Trazado_123680" data-name="Trazado 123680" d="M341.277,234.03a7.732,7.732,0,0,0,2.945-.361,4.232,4.232,0,0,0,2.232-2.028,4.445,4.445,0,0,0,.074-3.611,4.085,4.085,0,0,0-.482-.833c-.222-.222-.185-.213-.417-.185a7.778,7.778,0,0,0-.926.352l-.926.37c-1.185.482-2.259.926-3.158,1.232a11.755,11.755,0,0,1-3.009.926,10.719,10.719,0,0,1,2.732-1.546c.87-.417,1.917-.926,3.074-1.426l.926-.407a10.577,10.577,0,0,1,1.009-.417,1.334,1.334,0,0,1,.824,0,1.593,1.593,0,0,1,.611.482,5.047,5.047,0,0,1,.445,5.473,4.7,4.7,0,0,1-2.778,2.269,4.454,4.454,0,0,1-2.389.093C341.508,234.271,341.249,234.086,341.277,234.03Z" transform="translate(-189.446 -153.565)" fill="#263238"/>
      <path id="Trazado_123681" data-name="Trazado 123681" d="M368.945,173.873a9.868,9.868,0,0,0,0-2.028,7.861,7.861,0,0,0-2.621-4.7,10.612,10.612,0,0,0-7.547-2.491c-3.1,0-6.4,1.037-9.806,2.185a52.782,52.782,0,0,1-5.074,1.472,26.3,26.3,0,0,1-4.9.6,26.687,26.687,0,0,1-8.26-1.093,25.409,25.409,0,0,1-5.167-2.185,14.01,14.01,0,0,1-1.3-.806,2.611,2.611,0,0,1-.426-.315s.639.352,1.852.926a28.3,28.3,0,0,0,5.176,2.019,26.5,26.5,0,0,0,12.964.352c1.639-.37,3.315-.926,5.028-1.463,3.4-1.148,6.76-2.176,9.954-2.185a10.927,10.927,0,0,1,7.76,2.722,7.963,7.963,0,0,1,2.574,4.945A4.677,4.677,0,0,1,368.945,173.873Z" transform="translate(-188.428 -148.984)" fill="#455a64"/>
      <path id="Trazado_123682" data-name="Trazado 123682" d="M385.794,202.628a2.313,2.313,0,0,1-.222-.352,9.694,9.694,0,0,1-.519-1.065,21.4,21.4,0,0,1-1.343-4.167,22.891,22.891,0,0,1-.426-6.482,56.7,56.7,0,0,1,1.491-7.788,15.177,15.177,0,0,0,0-7.7,7.769,7.769,0,0,0-1.611-2.917,5.834,5.834,0,0,0-2.408-1.583,5.556,5.556,0,0,0-4.13.111,7.224,7.224,0,0,0-1.287.926,3.139,3.139,0,0,1,1.194-1.074,5.556,5.556,0,0,1,4.334-.259,6.083,6.083,0,0,1,2.6,1.63,8.2,8.2,0,0,1,1.741,3.056,15.381,15.381,0,0,1,0,7.945,60.518,60.518,0,0,0-1.519,7.723,23.64,23.64,0,0,0,.315,6.38,25,25,0,0,0,1.176,4.158A11.36,11.36,0,0,1,385.794,202.628Z" transform="translate(-192.239 -149.414)" fill="#455a64"/>
      <path id="Trazado_123683" data-name="Trazado 123683" d="M370.414,171.683a3.7,3.7,0,0,1,0-.676c0-.491,0-1.12.065-1.917a22.223,22.223,0,0,0-.769-6.963,12.353,12.353,0,0,0-2.241-4.232,8.677,8.677,0,0,0-4.491-2.963,11.362,11.362,0,0,0-6,.241,27.689,27.689,0,0,0-6,2.722,49.5,49.5,0,0,1-5.945,3.056,18.029,18.029,0,0,1-6.13,1.232,19.538,19.538,0,0,1-5.621-.685,21.779,21.779,0,0,1-4.547-1.852,18.613,18.613,0,0,1-5.4-4.63,12.813,12.813,0,0,1-1.093-1.593,4.632,4.632,0,0,1-.324-.593,2.954,2.954,0,0,1,.407.537,16.175,16.175,0,0,0,1.157,1.528,19.288,19.288,0,0,0,5.417,4.417,22.148,22.148,0,0,0,4.491,1.787,19.1,19.1,0,0,0,5.491.63,17.677,17.677,0,0,0,5.963-1.222,50.255,50.255,0,0,0,5.889-3.046,27.669,27.669,0,0,1,6.111-2.778,11.769,11.769,0,0,1,6.241-.222,9.038,9.038,0,0,1,4.695,3.148A12.575,12.575,0,0,1,370.043,162a21.418,21.418,0,0,1,.63,7.065c-.046.843-.111,1.491-.167,1.926a3.046,3.046,0,0,1-.093.695Z" transform="translate(-188.285 -148.147)" fill="#455a64"/>
    </g>
    <g id="freepik--Desk--inject-269" transform="translate(26.125 432.219)">
      <path id="Trazado_123684" data-name="Trazado 123684" d="M511.339,463.171c0,.13-108.4.241-242.125.241S27.09,463.3,27.09,463.171s108.38-.241,242.125-.241S511.339,462.995,511.339,463.171Z" transform="translate(-27.09 -462.93)" fill="#263238"/>
    </g>
    <g id="freepik--Features--inject-269" transform="translate(14.046 77.173)">
      <path id="Trazado_123685" data-name="Trazado 123685" d="M216.99,304.2,177.7,302.52V263.24h39.29Z" transform="translate(-26.159 -93.104)" fill="#b1a8d1"/>
      <rect id="Rectángulo_30085" data-name="Rectángulo 30085" width="39.29" height="39.29" transform="translate(167.116 158.895)" fill="#b1a8d1"/>
      <path id="Trazado_123686" data-name="Trazado 123686" d="M220.13,301.622l15.575-11.232V251.1L220.13,262.341Z" transform="translate(-29.299 -92.205)" fill="#b1a8d1"/>
      <path id="Trazado_123687" data-name="Trazado 123687" d="M177.7,262.341,193.275,251.1h39.29L216.99,262.341Z" transform="translate(-26.159 -92.205)" fill="#b1a8d1"/>
      <path id="Trazado_123688" data-name="Trazado 123688" d="M220.13,303.3l15.575-12.908V251.1L220.13,262.341Z" transform="translate(-29.299 -92.205)" fill="#b1a8d1"/>
      <path id="Trazado_123689" data-name="Trazado 123689" d="M177.7,262.341,193.275,251.1h39.29L216.99,262.341Z" transform="translate(-26.159 -92.205)" fill="#fff" opacity="0.3"/>
      <path id="Trazado_123690" data-name="Trazado 123690" d="M220.13,303.3l15.575-12.908V251.1L220.13,262.341Z" transform="translate(-29.299 -92.205)" opacity="0.4"/>
      <path id="Trazado_123691" data-name="Trazado 123691" d="M242.736,295.15a5.842,5.842,0,0,1,.241,2.315c-.194.389-.056.111-.093.194h-.056l-.093.065-.185.139-.352.25c-.231.157-.435.3-.62.4-.361.222-.6.333-.639.278s.13-.259.435-.546l.556-.482.333-.278.185-.139.093-.074h0c0,.093.1-.185-.093.194A5.844,5.844,0,0,1,242.736,295.15Z" transform="translate(-30.839 -95.466)" fill="#b1a8d1"/>
      <path id="Trazado_123692" data-name="Trazado 123692" d="M242.861,284.43a12.907,12.907,0,0,1,0,4.963,12.909,12.909,0,0,1,0-4.963Z" transform="translate(-30.964 -94.672)" fill="#b1a8d1"/>
      <path id="Trazado_123693" data-name="Trazado 123693" d="M242.861,273.71a12.907,12.907,0,0,1,0,4.963,12.909,12.909,0,0,1,0-4.963Z" transform="translate(-30.964 -93.879)" fill="#b1a8d1"/>
      <path id="Trazado_123694" data-name="Trazado 123694" d="M242.861,263a12.907,12.907,0,0,1,0,4.963,12.909,12.909,0,0,1,0-4.963Z" transform="translate(-30.964 -93.086)" fill="#b1a8d1"/>
      <path id="Trazado_123695" data-name="Trazado 123695" d="M242.861,252.27a12.907,12.907,0,0,1,0,4.963,12.909,12.909,0,0,1,0-4.963Z" transform="translate(-30.964 -92.292)" fill="#b1a8d1"/>
      <path id="Trazado_123696" data-name="Trazado 123696" d="M240.38,244.388a5.658,5.658,0,0,1,2.315-.241l.241.241h0v.889a3.053,3.053,0,0,1-.056.741c0,.417-.1.676-.167.676s-.13-.259-.167-.676a3.631,3.631,0,0,0-.056-.741v-.926h0l.241.241a5.843,5.843,0,0,1-2.352-.2Z" transform="translate(-30.798 -91.689)" fill="#b1a8d1"/>
      <path id="Trazado_123697" data-name="Trazado 123697" d="M230.79,244.391a10.38,10.38,0,0,1,4.445,0,10.38,10.38,0,0,1-4.445,0Z" transform="translate(-30.088 -91.691)" fill="#b1a8d1"/>
      <path id="Trazado_123698" data-name="Trazado 123698" d="M221.2,244.391a10.334,10.334,0,0,1,4.435,0,10.334,10.334,0,0,1-4.435,0Z" transform="translate(-29.378 -91.691)" fill="#b1a8d1"/>
      <path id="Trazado_123699" data-name="Trazado 123699" d="M211.61,244.391a10.334,10.334,0,0,1,4.435,0,10.334,10.334,0,0,1-4.435,0Z" transform="translate(-28.668 -91.691)" fill="#b1a8d1"/>
      <path id="Trazado_123700" data-name="Trazado 123700" d="M202,244.391a10.334,10.334,0,0,1,4.435,0,10.334,10.334,0,0,1-4.435,0Z" transform="translate(-27.957 -91.691)" fill="#b1a8d1"/>
      <path id="Trazado_123701" data-name="Trazado 123701" d="M192.63,244.94a1.813,1.813,0,0,1,.5-.667h.083c.38,0,.87-.056,1.417-.056a5.185,5.185,0,0,1,2.213.241,5.361,5.361,0,0,1-2.213.241,10.732,10.732,0,0,1-1.417-.056l.12-.046A2.871,2.871,0,0,1,192.63,244.94Z" transform="translate(-27.264 -91.694)" fill="#b1a8d1"/>
      <path id="Trazado_123702" data-name="Trazado 123702" d="M185.249,250.863c-.083-.1.611-.824,1.556-1.6s1.778-1.333,1.852-1.232-.611.815-1.556,1.6S185.333,250.964,185.249,250.863Z" transform="translate(-26.717 -91.977)" fill="#b1a8d1"/>
      <path id="Trazado_123703" data-name="Trazado 123703" d="M177.869,256.983c-.083-.1.611-.815,1.556-1.6s1.778-1.333,1.852-1.232-.611.824-1.556,1.6S177.99,257.094,177.869,256.983Z" transform="translate(-26.171 -92.43)" fill="#b1a8d1"/>
      <path id="Trazado_123704" data-name="Trazado 123704" d="M172.21,264.072a5.852,5.852,0,0,1-.222-2.315l.093-.185h.046l.093-.074.176-.139.343-.269.6-.435c.352-.232.583-.352.63-.3s-.12.259-.417.565c-.148.148-.324.324-.528.509l-.324.287-.176.148-.093.074h-.046c0-.074-.083.185.093-.176a5.88,5.88,0,0,1-.268,2.306Z" transform="translate(-25.733 -92.89)" fill="#b1a8d1"/>
      <path id="Trazado_123705" data-name="Trazado 123705" d="M172.11,273.923a5.658,5.658,0,0,1-.213-2.3,5.75,5.75,0,0,1,.259-2.3,10.871,10.871,0,0,1-.046,4.63Z" transform="translate(-25.726 -93.555)" fill="#b1a8d1"/>
      <path id="Trazado_123706" data-name="Trazado 123706" d="M171.979,283.843a5.556,5.556,0,0,1-.222-2.3,5.751,5.751,0,0,1,.259-2.3,5.555,5.555,0,0,1,.222,2.3A5.751,5.751,0,0,1,171.979,283.843Z" transform="translate(-25.716 -94.289)" fill="#b1a8d1"/>
      <path id="Trazado_123707" data-name="Trazado 123707" d="M171.92,293.763a5.76,5.76,0,0,1-.222-2.3,5.658,5.658,0,0,1,.269-2.3,5.658,5.658,0,0,1,.213,2.3A5.75,5.75,0,0,1,171.92,293.763Z" transform="translate(-25.712 -95.023)" fill="#b1a8d1"/>
      <path id="Trazado_123708" data-name="Trazado 123708" d="M171.82,303.683a5.658,5.658,0,0,1-.213-2.3,5.75,5.75,0,0,1,.259-2.3,5.759,5.759,0,0,1,.222,2.3A5.658,5.658,0,0,1,171.82,303.683Z" transform="translate(-25.705 -95.757)" fill="#b1a8d1"/>
      <path id="Trazado_123709" data-name="Trazado 123709" d="M174.064,311.362a5.889,5.889,0,0,1-2.324.2c-.472-.491-.13-.139-.232-.25h0v-.9a2.938,2.938,0,0,1,.056-.732c.046-.417.111-.676.176-.676s.13.259.167.676a4.342,4.342,0,0,0,.046.741,1.3,1.3,0,0,1,0,.435v.435h0l-.241-.241a5.843,5.843,0,0,1,2.352.306Z" transform="translate(-25.698 -96.492)" fill="#b1a8d1"/>
      <path id="Trazado_123710" data-name="Trazado 123710" d="M183.39,311.675a5.019,5.019,0,0,1-2.195.213,5.352,5.352,0,0,1-2.185-.278,4.935,4.935,0,0,1,2.195-.2A5.3,5.3,0,0,1,183.39,311.675Z" transform="translate(-26.256 -96.666)" fill="#b1a8d1"/>
      <path id="Trazado_123711" data-name="Trazado 123711" d="M192.86,311.835a5.278,5.278,0,0,1-2.195.2,5.037,5.037,0,0,1-2.185-.278,5.278,5.278,0,0,1,2.195-.2,5.167,5.167,0,0,1,2.185.278Z" transform="translate(-26.956 -96.677)" fill="#b1a8d1"/>
      <path id="Trazado_123712" data-name="Trazado 123712" d="M202.339,311.978a10.13,10.13,0,0,1-4.389-.074,10.13,10.13,0,0,1,4.389.074Z" transform="translate(-27.657 -96.691)" fill="#b1a8d1"/>
      <path id="Trazado_123713" data-name="Trazado 123713" d="M211.809,312.145a10.13,10.13,0,0,1-4.389-.074,5.37,5.37,0,0,1,2.2-.2A5.241,5.241,0,0,1,211.809,312.145Z" transform="translate(-28.358 -96.7)" fill="#b1a8d1"/>
      <path id="Trazado_123714" data-name="Trazado 123714" d="M221.28,312.3a5.279,5.279,0,0,1-2.195.2,5.167,5.167,0,0,1-2.185-.278,5.279,5.279,0,0,1,2.195-.2,5,5,0,0,1,2.185.278Z" transform="translate(-29.06 -96.712)" fill="#b1a8d1"/>
      <path id="Trazado_123715" data-name="Trazado 123715" d="M229.283,307.739c.074.1-.639.778-1.611,1.509a5.306,5.306,0,0,1-1.852,1.139c-.083-.111.639-.787,1.6-1.519S229.2,307.628,229.283,307.739Z" transform="translate(-29.72 -96.396)" fill="#b1a8d1"/>
      <path id="Trazado_123716" data-name="Trazado 123716" d="M236.833,302c.083.1-.639.787-1.6,1.519a5.362,5.362,0,0,1-1.852,1.13c-.074-.111.639-.787,1.6-1.519S236.732,301.906,236.833,302Z" transform="translate(-30.279 -95.972)" fill="#b1a8d1"/>
      <path id="Trazado_123717" data-name="Trazado 123717" d="M231.313,241c.13,0,.13.565,0,1.185s-.361,1.1-.491,1.074-.12-.556,0-1.176S231.184,240.925,231.313,241Z" transform="translate(-30.084 -91.457)" fill="#b1a8d1"/>
      <path id="Trazado_123718" data-name="Trazado 123718" d="M233.575,230.79a6.2,6.2,0,0,1-.3,2.408,6.3,6.3,0,0,1-.769,2.3,12.112,12.112,0,0,1,1.065-4.7Z" transform="translate(-30.215 -90.702)" fill="#b1a8d1"/>
      <path id="Trazado_123719" data-name="Trazado 123719" d="M235.916,220.62a12.326,12.326,0,0,1-1.056,4.7,12.325,12.325,0,0,1,1.056-4.7Z" transform="translate(-30.389 -89.949)" fill="#b1a8d1"/>
      <path id="Trazado_123720" data-name="Trazado 123720" d="M238.163,210.45a12.2,12.2,0,0,1-1.065,4.713,6.185,6.185,0,0,1,.3-2.408,6.305,6.305,0,0,1,.769-2.306Z" transform="translate(-30.554 -89.197)" fill="#b1a8d1"/>
      <path id="Trazado_123721" data-name="Trazado 123721" d="M240.455,200.28a6.185,6.185,0,0,1-.3,2.408,6.111,6.111,0,0,1-.769,2.306,12.205,12.205,0,0,1,1.065-4.713Z" transform="translate(-30.725 -88.444)" fill="#b1a8d1"/>
      <path id="Trazado_123722" data-name="Trazado 123722" d="M242.754,190.12a6.417,6.417,0,0,1-.3,2.408,6.3,6.3,0,0,1-.769,2.3,6.2,6.2,0,0,1,.3-2.408A6.1,6.1,0,0,1,242.754,190.12Z" transform="translate(-30.893 -87.692)" fill="#b1a8d1"/>
      <path id="Trazado_123723" data-name="Trazado 123723" d="M244.483,182.6c.13,0,.12.556,0,1.176s-.361,1.111-.491,1.074-.12-.556,0-1.176S244.354,182.563,244.483,182.6Z" transform="translate(-31.058 -87.135)" fill="#b1a8d1"/>
      <path id="Trazado_123724" data-name="Trazado 123724" d="M192.177,242.17c.12-.056.444.361.732.926s.426,1.083.306,1.148-.444-.361-.732-.926S192.056,242.234,192.177,242.17Z" transform="translate(-27.227 -91.544)" fill="#b1a8d1"/>
      <path id="Trazado_123725" data-name="Trazado 123725" d="M187.79,233.47c.12-.065.676.8,1.232,1.908a5.639,5.639,0,0,1,.806,2.121c-.12.065-.676-.8-1.232-1.908A5.639,5.639,0,0,1,187.79,233.47Z" transform="translate(-26.905 -90.9)" fill="#b1a8d1"/>
      <path id="Trazado_123726" data-name="Trazado 123726" d="M183.41,224.76a10.567,10.567,0,0,1,2.028,4.037,5.611,5.611,0,0,1-1.232-1.908,5.491,5.491,0,0,1-.8-2.13Z" transform="translate(-26.581 -90.256)" fill="#b1a8d1"/>
      <path id="Trazado_123727" data-name="Trazado 123727" d="M179,216.06c.12-.065.667.8,1.232,1.908a5.556,5.556,0,0,1,.8,2.121c-.12.065-.667-.8-1.232-1.908a5.556,5.556,0,0,1-.8-2.12Z" transform="translate(-26.255 -89.612)" fill="#b1a8d1"/>
      <path id="Trazado_123728" data-name="Trazado 123728" d="M174.64,207.35a5.464,5.464,0,0,1,1.232,1.908,5.556,5.556,0,0,1,.806,2.13,5.463,5.463,0,0,1-1.232-1.908A5.658,5.658,0,0,1,174.64,207.35Z" transform="translate(-25.932 -88.967)" fill="#b1a8d1"/>
      <path id="Trazado_123729" data-name="Trazado 123729" d="M170.26,198.65c.12-.065.667.8,1.232,1.908a5.556,5.556,0,0,1,.8,2.121,10.615,10.615,0,0,1-2.028-4.028Z" transform="translate(-25.608 -88.323)" fill="#b1a8d1"/>
      <path id="Trazado_123730" data-name="Trazado 123730" d="M165.88,189.94a10.615,10.615,0,0,1,2.028,4.028c-.12.065-.667-.787-1.232-1.852A5.556,5.556,0,0,1,165.88,189.94Z" transform="translate(-25.284 -87.679)" fill="#b1a8d1"/>
      <path id="Trazado_123731" data-name="Trazado 123731" d="M161.49,181.24c.12-.065.676.787,1.232,1.908a5.556,5.556,0,0,1,.806,2.12,5.463,5.463,0,0,1-1.232-1.908A5.639,5.639,0,0,1,161.49,181.24Z" transform="translate(-24.959 -87.034)" fill="#b1a8d1"/>
      <path id="Trazado_123732" data-name="Trazado 123732" d="M158.177,174.65c.12-.056.444.352.732.926s.426,1.083.306,1.139-.444-.352-.732-.926S158.056,174.714,158.177,174.65Z" transform="translate(-24.71 -86.546)" fill="#b1a8d1"/>
      <path id="Trazado_123733" data-name="Trazado 123733" d="M113.685,257.272c0,.13-.537.2-1.176.148s-1.148-.194-1.139-.324.537-.2,1.176-.157S113.694,257.143,113.685,257.272Z" transform="translate(-21.249 -92.636)" fill="#b1a8d1"/>
      <path id="Trazado_123734" data-name="Trazado 123734" d="M123.624,258.059a11.647,11.647,0,0,1-4.7-.37,6.038,6.038,0,0,1,2.371-.056,5.861,5.861,0,0,1,2.333.426Z" transform="translate(-21.808 -92.682)" fill="#b1a8d1"/>
      <path id="Trazado_123735" data-name="Trazado 123735" d="M133.814,258.853a11.649,11.649,0,0,1-4.7-.37A11.649,11.649,0,0,1,133.814,258.853Z" transform="translate(-22.562 -92.745)" fill="#b1a8d1"/>
      <path id="Trazado_123736" data-name="Trazado 123736" d="M143.974,259.649a11.649,11.649,0,0,1-4.7-.37,6.057,6.057,0,0,1,2.371-.056,5.76,5.76,0,0,1,2.333.426Z" transform="translate(-23.314 -92.8)" fill="#b1a8d1"/>
      <path id="Trazado_123737" data-name="Trazado 123737" d="M154.144,260.438a5.852,5.852,0,0,1-2.371.056,6.056,6.056,0,0,1-2.333-.417,5.834,5.834,0,0,1,2.371-.083A6.158,6.158,0,0,1,154.144,260.438Z" transform="translate(-24.067 -92.857)" fill="#b1a8d1"/>
      <path id="Trazado_123738" data-name="Trazado 123738" d="M164.3,261.243a6.056,6.056,0,0,1-2.371.056,5.862,5.862,0,0,1-2.333-.426A11.648,11.648,0,0,1,164.3,261.243Z" transform="translate(-24.819 -92.922)" fill="#b1a8d1"/>
      <path id="Trazado_123739" data-name="Trazado 123739" d="M172.066,261.843c0,.139-.528.2-1.167.157s-1.148-.2-1.139-.333.537-.2,1.176-.148S172.084,261.713,172.066,261.843Z" transform="translate(-25.571 -92.975)" fill="#b1a8d1"/>
      <circle id="Elipse_4205" data-name="Elipse 4205" cx="40.771" cy="40.771" r="40.771" transform="matrix(0.225, -0.974, 0.974, 0.225, 65.383, 84.14)" fill="#fff"/>
      <path id="Trazado_123740" data-name="Trazado 123740" d="M174.972,134.134a6.055,6.055,0,0,0-.056-.667c-.056-.444-.074-1.093-.13-1.935a13.4,13.4,0,0,0-.083-1.417c-.046-.528-.157-1.093-.25-1.7s-.2-1.278-.315-1.991a21.34,21.34,0,0,0-.537-2.222,38.7,38.7,0,0,0-4.51-10.816,40.419,40.419,0,0,0-10.334-11.519L157,100.549c-.62-.4-1.269-.769-1.908-1.167a18.12,18.12,0,0,0-1.982-1.148l-2.1-1.009-1.065-.509-1.13-.407-2.278-.833c-.778-.259-1.593-.417-2.389-.639a19.787,19.787,0,0,0-2.463-.556,37.188,37.188,0,0,0-5.121-.593c-.88,0-1.759-.12-2.648-.1l-2.685.139a7.269,7.269,0,0,0-1.352.083l-1.352.213c-.926.148-1.852.25-2.732.444a41.67,41.67,0,0,0-5.408,1.583,42.865,42.865,0,0,0-5.287,2.324c-.852.463-1.676,1-2.528,1.509-.407.259-.852.491-1.25.787l-1.195.926a45.558,45.558,0,0,0-4.63,3.908l-2.065,2.269-.519.574-.463.611-.926,1.241-.926,1.25-.815,1.333-.815,1.343-.407.676-.352.7-1.37,2.861-1.046,2.972a40.234,40.234,0,0,0,0,25.585c.37,1,.741,2,1.1,3s.926,1.908,1.38,2.861l.343.7.407.676.824,1.343.815,1.333.926,1.25.926,1.241.463.62.519.565,2.056,2.269a45.763,45.763,0,0,0,4.63,3.917l1.195.926c.4.306.843.528,1.25.8.852.5,1.676,1.037,2.528,1.509a42.864,42.864,0,0,0,5.287,2.324,44.838,44.838,0,0,0,5.408,1.583c.926.185,1.852.3,2.732.444l1.352.2c.454.065.926.056,1.352.093l2.685.139c.926,0,1.769-.074,2.648-.1a37.319,37.319,0,0,0,5.13-.6,20.018,20.018,0,0,0,2.454-.556c.806-.213,1.611-.38,2.389-.639l2.287-.833,1.12-.407,1.074-.509,2.1-1.009a22.065,22.065,0,0,0,1.982-1.148c.648-.389,1.3-.759,1.908-1.167l1.759-1.306a40.669,40.669,0,0,0,10.325-11.519,38.891,38.891,0,0,0,4.426-10.862,21.343,21.343,0,0,0,.537-2.222c.111-.7.213-1.37.315-1.982s.2-1.185.25-1.7.065-1,.083-1.426c.056-.843.1-1.482.13-1.935s.056-.657.056-.657v.657c0,.435-.046,1.1-.074,1.945a11.058,11.058,0,0,1-.065,1.426c-.065.5-.148,1.093-.231,1.713s-.185,1.287-.3,1.991a20.726,20.726,0,0,1-.509,2.241,38.7,38.7,0,0,1-4.445,10.945,40.512,40.512,0,0,1-10.353,11.658l-1.759,1.324c-.62.407-1.278.787-1.926,1.185a19.309,19.309,0,0,1-1.991,1.167l-2.12,1.028-1.083.519-1.139.417-2.3.843c-.787.259-1.6.435-2.417.657a21.778,21.778,0,0,1-2.472.565,39.47,39.47,0,0,1-5.186.611c-.926,0-1.769.12-2.667.111L131.2,175a7.52,7.52,0,0,1-1.37-.083l-1.37-.2c-.926-.148-1.852-.259-2.778-.444a44.762,44.762,0,0,1-10.816-3.935c-.87-.472-1.695-1.019-2.556-1.528-.417-.269-.87-.491-1.269-.8l-1.213-.926a46.659,46.659,0,0,1-4.63-3.954l-2.093-2.3-.519-.574-.472-.62-.926-1.259-.926-1.259-.824-1.352-.87-1.37-.417-.676L97.8,153q-.694-1.426-1.389-2.889c-.37-1.009-.741-2.019-1.12-3.037a40.632,40.632,0,0,1,0-25.881l1.111-3.037c.463-.972.926-1.935,1.4-2.9l.343-.713.417-.676.824-1.361.833-1.352.926-1.259.926-1.259.472-.62.528-.574,2.083-2.3a45.458,45.458,0,0,1,4.63-3.945l1.2-.926c.4-.3.852-.528,1.269-.8.861-.509,1.685-1.056,2.556-1.519a44.763,44.763,0,0,1,10.816-3.935c.926-.194,1.852-.3,2.778-.444l1.37-.2c.454-.065.926-.056,1.37-.093l2.713-.13c.926,0,1.787.074,2.667.1a37.651,37.651,0,0,1,5.176.62,19.721,19.721,0,0,1,2.482.565c.815.222,1.63.389,2.408.648l2.306.852,1.139.417,1.074.519,2.13,1.028c.7.324,1.333.778,1.991,1.157s1.3.778,1.917,1.185l1.769,1.324a40.632,40.632,0,0,1,10.353,11.658,38.8,38.8,0,0,1,4.463,10.908,21.229,21.229,0,0,1,.509,2.241c.111.713.2,1.38.3,1.991s.185,1.195.232,1.713.046,1.009.065,1.435c0,.843.056,1.491.074,1.935A5.176,5.176,0,0,0,174.972,134.134Z" transform="translate(-19.902 -80.515)" fill="#b1a8d1"/>
      <path id="Trazado_123741" data-name="Trazado 123741" d="M140.52,112.745a13.26,13.26,0,0,1,3.509.926l2.583-2.167,4.426,3.371-1.4,3.065a13.408,13.408,0,0,1,1.852,3.139l3.352.3.75,5.51-3.158,1.185a13.353,13.353,0,0,1-.926,3.509l2.167,2.574-3.371,4.435-3.065-1.4a13.889,13.889,0,0,1-3.139,1.852l-.3,3.352-5.556.75L137.075,140a14,14,0,0,1-3.509-.926l-2.574,2.158-4.435-3.371,1.4-3.065a13.51,13.51,0,0,1-1.852-3.13l-3.352-.3L122,125.81l3.148-1.176a14,14,0,0,1,.926-3.509l-2.158-2.584,3.371-4.426,3.065,1.389a13.89,13.89,0,0,1,3.13-1.852l.3-3.352,5.556-.75ZM138.26,120.4a5.306,5.306,0,1,0,0-.009Z" transform="translate(-22.036 -81.729)" fill="none"/>
      <path id="Trazado_123742" data-name="Trazado 123742" d="M139.136,121.251a1.933,1.933,0,0,1,.37-.083,4.565,4.565,0,0,1,1.1,0,5.936,5.936,0,0,1,3.7,1.676,6.163,6.163,0,1,1-9.649,1.315,5.917,5.917,0,0,1,3.074-2.593,4.814,4.814,0,0,1,1.074-.278,1.148,1.148,0,0,1,.389,0,7.872,7.872,0,0,0-1.389.463,5.991,5.991,0,0,0-2.852,2.593,5.815,5.815,0,0,0,0,5.556,5.741,5.741,0,0,0,2.352,2.371,5.772,5.772,0,0,0,6.834-9.139A5.954,5.954,0,0,0,140.7,121.4,12.443,12.443,0,0,0,139.136,121.251Z" transform="translate(-22.912 -82.586)" fill="#263238"/>
      <path id="Trazado_123743" data-name="Trazado 123743" d="M140.51,112.742l-.083-.194-.241-.583-.926-2.352h.083l-5.556.8.1-.111c-.083,1.019-.176,2.148-.269,3.352v.083h-.083a13.4,13.4,0,0,0-3.093,1.852l-.074.056h-.083l-3.074-1.38.213-.056-3.361,4.435v-.231l2.167,2.574.074.093v.111a13.594,13.594,0,0,0-.926,3.454v.139h-.12l-3.148,1.185.139-.231c.241,1.732.491,3.6.759,5.556l-.2-.185,3.352.287h.139v.13a13.889,13.889,0,0,0,1.852,3.084l.083.111-.056.13-1.4,3.056-.065-.278,4.426,3.361h-.3l2.583-2.158.111-.093.13.056a13.649,13.649,0,0,0,3.445.926h0l.2.157h0v.148l.074.194.148.4.287.787c.2.528.4,1.056.593,1.574l-.259-.157,5.556-.741-.2.213c.093-1.13.194-2.25.3-3.352V138.8l.13-.056a13.251,13.251,0,0,0,3.084-1.8l.111-.083.13.056,3.065,1.4-.278.074q1.722-2.278,3.38-4.426v.278c-.732-.926-1.445-1.741-2.158-2.583l-.083-.1.056-.12a13.722,13.722,0,0,0,.926-3.454v-.13l.111-.046,3.158-1.167-.13.213c-.259-1.935-.5-3.769-.732-5.556l.167.157-3.352-.306h-.1v-.093a13.565,13.565,0,0,0-1.8-3.1l-.056-.083v-.083l1.408-3.056.046.176-4.408-3.408h.13l-2.593,2.139h-.046a14.492,14.492,0,0,0-2.6-.815l-.657-.13-.2.046a.648.648,0,0,1,.231,0,5.761,5.761,0,0,1,.667.093,12.491,12.491,0,0,1,2.639.75h-.074l2.556-2.185.065-.056.074.056,4.445,3.343.093.065-.046.111-1.389,3.074v-.157a13.788,13.788,0,0,1,1.852,3.158l-.139-.1,3.352.287h.139v.148l.759,5.51V127l-.148.056-3.148,1.185.139-.176a13.984,13.984,0,0,1-.926,3.565v-.213c.713.843,1.435,1.695,2.167,2.574l.111.13-.1.148-3.371,4.435-.111.139-.167-.074-3.065-1.389h.241a13.816,13.816,0,0,1-3.185,1.852l.148-.194c-.1,1.1-.194,2.222-.3,3.343v.194h-.185l-5.556.75h-.194l-.065-.185-.583-1.574-.3-.787-.148-.4-.074-.194v-.148h0l.194.157h0a14.187,14.187,0,0,1-3.574-.926h.25l-2.583,2.158-.148.12-.148-.111-4.426-3.38-.148-.111.074-.176,1.4-3.056v.241a13.733,13.733,0,0,1-1.852-3.195l.185.139-3.343-.3h-.185v-.176c-.259-1.917-.509-3.787-.741-5.556v-.167l.167-.065,3.148-1.167-.13.167a14.084,14.084,0,0,1,.926-3.565v.2c-.759-.926-1.491-1.778-2.158-2.584l-.093-.111.083-.12,3.389-4.426.083-.1.13.056,3.056,1.407h-.167a13.585,13.585,0,0,1,3.176-1.852l-.083.12c.111-1.213.222-2.333.315-3.352v-.1h.093l5.556-.7h.065v.056c.352,1.009.63,1.8.833,2.352.083.25.157.454.2.611A.833.833,0,0,1,140.51,112.742Z" transform="translate(-22.026 -81.726)" fill="#263238"/>
      <path id="Trazado_123744" data-name="Trazado 123744" d="M130.635,148.221a7.546,7.546,0,0,1,1.935.509L134,147.545l2.445,1.852-.769,1.685a7.5,7.5,0,0,1,1.009,1.732l1.852.167.407,3.046-1.732.648a7.667,7.667,0,0,1-.519,1.935l1.195,1.426-1.852,2.445-1.685-.769a8.028,8.028,0,0,1-1.732,1l-.167,1.852-3.046.417-.648-1.741a7.546,7.546,0,0,1-1.935-.509l-1.426,1.195-2.445-1.852.769-1.695a7.315,7.315,0,0,1-1.009-1.732l-1.852-.157-.417-3.046,1.741-.648a7.714,7.714,0,0,1,.509-1.945l-1.195-1.417,1.852-2.445,1.695.769a7.315,7.315,0,0,1,1.732-1.009l.157-1.852,3.046-.417.648,1.741Zm-1.25,4.232a3.3,3.3,0,1,0,3.7,2.778,3.3,3.3,0,0,0-3.7-2.778Z" transform="translate(-21.921 -84.462)" fill="#b1a8d1" fill-rule="evenodd"/>
      <circle id="Elipse_4206" data-name="Elipse 4206" cx="40.771" cy="40.771" r="40.771" transform="translate(168.082 57.659) rotate(-45)" fill="#fff"/>
      <path id="Trazado_123745" data-name="Trazado 123745" d="M295.326,138.492a5.833,5.833,0,0,0-.056-.657c-.056-.435-.074-1.1-.12-1.935,0-.426-.056-.926-.083-1.426s-.167-1.093-.259-1.7-.2-1.278-.315-1.991-.352-1.435-.528-2.222a39.039,39.039,0,0,0-4.519-10.815,40.548,40.548,0,0,0-10.325-11.519l-1.759-1.315c-.611-.4-1.259-.769-1.908-1.167a19.9,19.9,0,0,0-1.972-1.148l-2.1-1.009-1.074-.509-1.12-.407-2.287-.833c-.778-.25-1.583-.417-2.389-.639a21.9,21.9,0,0,0-2.454-.556,37.151,37.151,0,0,0-5.13-.593c-.88,0-1.759-.111-2.648-.1l-2.685.139a7.269,7.269,0,0,0-1.352.083l-1.352.213c-.926.148-1.852.259-2.732.444a44.53,44.53,0,0,0-10.7,3.908c-.852.463-1.676,1.009-2.519,1.509-.417.269-.861.491-1.259.787l-1.185.926a45.664,45.664,0,0,0-4.63,3.908l-2.065,2.269-.519.574-.463.611-.926,1.241-.926,1.25-.815,1.333-.815,1.343-.407.676-.343.7-1.38,2.861-1.093,3.019a40.142,40.142,0,0,0,0,25.585l1.1,3,1.37,2.861.352.7.407.676.815,1.343.815,1.333.926,1.25.926,1.241.463.62.519.565,2.065,2.278a45.558,45.558,0,0,0,4.63,3.908l1.195.926c.4.306.843.528,1.259.8.843.5,1.667,1.046,2.519,1.509a42.374,42.374,0,0,0,5.3,2.324,43.876,43.876,0,0,0,5.408,1.583c.926.185,1.852.3,2.722.444l1.352.2c.454.065.926.056,1.361.093l2.685.139c.926,0,1.769-.074,2.639-.1a38.632,38.632,0,0,0,5.13-.593,23.6,23.6,0,0,0,2.454-.556c.806-.222,1.62-.389,2.389-.648l2.287-.824,1.13-.417,1.065-.509,2.111-1.009c.7-.315,1.324-.769,1.982-1.139s1.287-.769,1.908-1.176l1.75-1.306a40.393,40.393,0,0,0,10.325-11.519,39.2,39.2,0,0,0,4.519-10.825c.176-.787.444-1.509.528-2.222s.213-1.37.315-1.982.2-1.185.259-1.7.056-1,.083-1.426c.046-.843.093-1.482.12-1.935s.056-.657.056-.657v.657c0,.435,0,1.1-.074,1.945a12.884,12.884,0,0,1-.056,1.426c-.056.5-.157,1.093-.241,1.713s-.185,1.287-.287,2-.343,1.445-.519,2.232a38.3,38.3,0,0,1-4.463,10.917,40.567,40.567,0,0,1-10.343,11.649l-1.769,1.324c-.62.417-1.278.787-1.917,1.195a16.318,16.318,0,0,1-2,1.157l-2.158.954-1.083.519-1.13.417-2.306.843c-.778.259-1.6.435-2.408.657a22.4,22.4,0,0,1-2.482.565,36.593,36.593,0,0,1-5.176.611c-.926,0-1.778.12-2.676.111l-2.713-.139a7.518,7.518,0,0,1-1.37-.083l-1.361-.2c-.926-.148-1.852-.259-2.778-.444A43.742,43.742,0,0,1,240.572,177a43.222,43.222,0,0,1-5.352-2.343c-.861-.472-1.695-1.019-2.556-1.528-.417-.259-.861-.491-1.269-.8l-1.2-.926a46.759,46.759,0,0,1-4.63-3.954l-2.083-2.3-.528-.574-.472-.62-.926-1.259-.926-1.259-.833-1.352-.824-1.352-.417-.685-.343-.713c-.463-.926-.926-1.926-1.4-2.9l-1.111-3.037a40.549,40.549,0,0,1,0-25.881l1.111-3.037,1.4-2.889.352-.722.407-.676.833-1.361.824-1.352.926-1.259.926-1.25.472-.63.528-.574c.694-.769,1.4-1.528,2.083-2.3a46.664,46.664,0,0,1,4.63-3.945l1.2-.926c.407-.306.852-.537,1.269-.806.861-.509,1.695-1.046,2.556-1.519a41.883,41.883,0,0,1,5.352-2.343,43.745,43.745,0,0,1,5.473-1.593c.926-.185,1.852-.3,2.778-.444l1.361-.2c.454-.065.926-.056,1.37-.093l2.713-.13c.926,0,1.787.074,2.667.111a36.555,36.555,0,0,1,5.186.611,19.956,19.956,0,0,1,2.472.565c.815.222,1.63.389,2.417.657l2.3.843,1.148.472,1.083.519,2.121,1.028c.7.324,1.333.778,1.991,1.157s1.306.778,1.926,1.185l1.759,1.324a40.633,40.633,0,0,1,10.353,11.658,38.253,38.253,0,0,1,4.454,10.908c.176.8.435,1.528.519,2.241s.194,1.38.287,2,.194,1.185.241,1.7,0,1.009.056,1.435c0,.843.056,1.491.074,1.945S295.326,138.492,295.326,138.492Z" transform="translate(-28.814 -80.835)" fill="#b1a8d1"/>
      <circle id="Elipse_4207" data-name="Elipse 4207" cx="20.52" cy="20.52" r="20.52" transform="translate(197.404 68.124) rotate(-65.66)" fill="#f5f5f5"/>
      <path id="Trazado_123746" data-name="Trazado 123746" d="M234.426,138.995a2.27,2.27,0,0,1,0,.333q0,.361,0,.972v.722a3.61,3.61,0,0,0,.074.861,15.963,15.963,0,0,0,.3,2.13,19.964,19.964,0,0,0,1.926,5.556,20.372,20.372,0,0,0,23.826,10.214,21.729,21.729,0,0,0,2.713-.991,20.259,20.259,0,0,0,2.583-1.435,22.475,22.475,0,0,0,2.426-1.8,24.288,24.288,0,0,0,2.139-2.222,19.8,19.8,0,0,0,3.259-5.38,21.956,21.956,0,0,0,1.463-6.315,21.733,21.733,0,0,0-.63-6.482,19.546,19.546,0,0,0-2.519-5.769,24.522,24.522,0,0,0-1.852-2.482,22.076,22.076,0,0,0-2.167-2.1,20.759,20.759,0,0,0-2.38-1.759,20.372,20.372,0,0,0-27.492,5.7,19.575,19.575,0,0,0-2.63,5.26,14.908,14.908,0,0,0-.574,2.074c-.065.306-.139.583-.185.843s-.074.5-.1.713c-.056.407-.1.722-.13.926a1.925,1.925,0,0,1-.065.333,1.287,1.287,0,0,1,0-.333c0-.25.056-.565.093-.972,0-.222.046-.463.074-.722s.1-.546.167-.852a15.056,15.056,0,0,1,.537-2.111,19.53,19.53,0,0,1,2.584-5.352,20.557,20.557,0,0,1,30.428-4.047,22.066,22.066,0,0,1,2.222,2.148,24.174,24.174,0,0,1,1.852,2.528,20.011,20.011,0,0,1,2.583,5.908,22.12,22.12,0,0,1,.648,6.6,22.538,22.538,0,0,1-1.5,6.482,20.372,20.372,0,0,1-3.343,5.556A24.191,24.191,0,0,1,268.557,156a23.47,23.47,0,0,1-2.482,1.852,21.767,21.767,0,0,1-2.648,1.463,21.14,21.14,0,0,1-13.658,1.074,20.677,20.677,0,0,1-13.242-10.7,19.676,19.676,0,0,1-1.852-5.648,15.742,15.742,0,0,1-.25-2.158c0-.315-.056-.6-.056-.87V140.3a5.747,5.747,0,0,1,.046-.972,1.527,1.527,0,0,1,.009-.333Z" transform="translate(-30.353 -82.468)" fill="#263238"/>
      <path id="Trazado_123747" data-name="Trazado 123747" d="M265.835,141.707a3.526,3.526,0,0,1-.732,0l-1.991.046H256.27v-9.065c0-.926,0-1.722.046-2.306a4.815,4.815,0,0,1,.046-.852,5.28,5.28,0,0,1,.056.852v2.306c0,1.945.046,4.63.046,7.6v1.333l-.139-.13c2.667,0,5.019,0,6.713.046h1.991A3.527,3.527,0,0,1,265.835,141.707Z" transform="translate(-31.974 -83.207)" fill="#263238"/>
      <path id="Trazado_123748" data-name="Trazado 123748" d="M256.47,123.48a11.511,11.511,0,0,1,0,3.445A11.509,11.509,0,0,1,256.47,123.48Z" transform="translate(-31.979 -82.76)" fill="#263238"/>
      <path id="Trazado_123749" data-name="Trazado 123749" d="M266.388,126.47a11.112,11.112,0,0,1-2.408,2.408,5.472,5.472,0,0,1,1.111-1.3,5.409,5.409,0,0,1,1.3-1.111Z" transform="translate(-32.545 -82.981)" fill="#263238"/>
      <path id="Trazado_123750" data-name="Trazado 123750" d="M272.248,132.92a7.481,7.481,0,0,1-1.417.926,7.046,7.046,0,0,1-1.482.815,4.482,4.482,0,0,1,1.343-1.046A4.63,4.63,0,0,1,272.248,132.92Z" transform="translate(-32.942 -83.458)" fill="#263238"/>
      <path id="Trazado_123751" data-name="Trazado 123751" d="M275.564,142.48a21.4,21.4,0,0,1-4.7,0,21.4,21.4,0,0,1,4.7,0Z" transform="translate(-33.054 -84.156)" fill="#263238"/>
      <path id="Trazado_123752" data-name="Trazado 123752" d="M240.395,142.14a19.112,19.112,0,0,1-4.445,0A19.112,19.112,0,0,1,240.395,142.14Z" transform="translate(-30.47 -84.131)" fill="#263238"/>
      <path id="Trazado_123753" data-name="Trazado 123753" d="M242.948,149.27a9.01,9.01,0,0,1-1.676,1.528,9.623,9.623,0,0,1-1.852,1.315,18.648,18.648,0,0,1,3.528-2.843Z" transform="translate(-30.727 -84.668)" fill="#263238"/>
      <path id="Trazado_123754" data-name="Trazado 123754" d="M249.191,154.78a15.61,15.61,0,0,1-1.148,1.982,13.991,13.991,0,0,1-1.213,1.935,7.611,7.611,0,0,1,.991-2.074,7.407,7.407,0,0,1,1.37-1.843Z" transform="translate(-31.275 -85.076)" fill="#263238"/>
      <path id="Trazado_123755" data-name="Trazado 123755" d="M256.47,161.514a21.4,21.4,0,0,1,0-4.7,21.4,21.4,0,0,1,0,4.7Z" transform="translate(-31.979 -85.226)" fill="#263238"/>
      <path id="Trazado_123756" data-name="Trazado 123756" d="M267.139,158.265a7.111,7.111,0,0,1-1.935-1.324,7.279,7.279,0,0,1-1.583-1.741,19.119,19.119,0,0,1,1.759,1.537A20.24,20.24,0,0,1,267.139,158.265Z" transform="translate(-32.518 -85.107)" fill="#263238"/>
      <path id="Trazado_123757" data-name="Trazado 123757" d="M272.326,152.766a8.334,8.334,0,0,1-1.556-1.37,7.6,7.6,0,0,1-1.37-1.556,16.413,16.413,0,0,1,2.926,2.926Z" transform="translate(-32.946 -84.711)" fill="#263238"/>
      <path id="Trazado_123758" data-name="Trazado 123758" d="M242.8,135.125a6.676,6.676,0,0,1-1.37-1.185,6.26,6.26,0,0,1-1.185-1.38,6.676,6.676,0,0,1,1.37,1.185,6.261,6.261,0,0,1,1.185,1.38Z" transform="translate(-30.787 -83.432)" fill="#263238"/>
      <path id="Trazado_123759" data-name="Trazado 123759" d="M249.139,128.45a5.732,5.732,0,0,1-1.352-1.157,6.065,6.065,0,0,1-1.167-1.343,5.732,5.732,0,0,1,1.352,1.157A6.065,6.065,0,0,1,249.139,128.45Z" transform="translate(-31.26 -82.942)" fill="#263238"/>
      <circle id="Elipse_4208" data-name="Elipse 4208" cx="10.76" cy="10.76" r="10.76" transform="translate(226.119 34.869) rotate(-22.33)" fill="#b1a8d1"/>
      <path id="Trazado_123760" data-name="Trazado 123760" d="M278.175,119.86a10.745,10.745,0,0,1-1.324,1.722c-.852,1.019-2.065,2.417-3.426,3.935-.38.417-.75.815-1.1,1.213l-.157.167-.167-.148c-1.232-1.1-2.287-2.083-3.028-2.778a6.323,6.323,0,0,1-1.12-1.195,6.407,6.407,0,0,1,1.324.972c.8.648,1.852,1.583,3.13,2.667h-.324q.519-.593,1.083-1.222c1.361-1.519,2.611-2.871,3.537-3.843A9.258,9.258,0,0,1,278.175,119.86Z" transform="translate(-32.831 -82.492)" fill="#fafafa"/>
      <path id="Trazado_123761" data-name="Trazado 123761" d="M168.049,314.6c-.083-.093.611-.87,1.565-1.722a6.206,6.206,0,0,1,1.852-1.37,6.144,6.144,0,0,1-1.565,1.722C168.948,314.083,168.142,314.741,168.049,314.6Z" transform="translate(-25.444 -96.676)" fill="#b1a8d1"/>
      <path id="Trazado_123762" data-name="Trazado 123762" d="M160.619,321.292c-.093-.1.6-.87,1.556-1.732a6,6,0,0,1,1.852-1.361,6.2,6.2,0,0,1-1.556,1.722C161.518,320.773,160.7,321.394,160.619,321.292Z" transform="translate(-24.894 -97.171)" fill="#b1a8d1"/>
      <path id="Trazado_123763" data-name="Trazado 123763" d="M153.179,327.982c-.093-.1.611-.926,1.565-1.732a5.861,5.861,0,0,1,1.852-1.37c.083.1-.611.87-1.565,1.732a5.862,5.862,0,0,1-1.852,1.37Z" transform="translate(-24.343 -97.666)" fill="#b1a8d1"/>
      <path id="Trazado_123764" data-name="Trazado 123764" d="M145.749,334.662c-.093-.093.6-.87,1.556-1.722a6.336,6.336,0,0,1,1.852-1.37A6.3,6.3,0,0,1,147.6,333.3,6.023,6.023,0,0,1,145.749,334.662Z" transform="translate(-23.793 -98.16)" fill="#b1a8d1"/>
      <path id="Trazado_123765" data-name="Trazado 123765" d="M138.309,341.352c-.093-.1.611-.87,1.565-1.722a6.207,6.207,0,0,1,1.852-1.37,6.144,6.144,0,0,1-1.565,1.722C139.208,340.833,138.4,341.454,138.309,341.352Z" transform="translate(-23.242 -98.656)" fill="#b1a8d1"/>
      <circle id="Elipse_4209" data-name="Elipse 4209" cx="40.771" cy="40.771" r="40.771" transform="matrix(0.23, -0.973, 0.973, 0.23, 41.053, 306.016)" fill="#fff"/>
      <path id="Trazado_123766" data-name="Trazado 123766" d="M148.867,374.016a5.835,5.835,0,0,0-.056-.657c-.056-.435-.065-1.093-.12-1.935,0-.426-.056-.926-.083-1.426s-.167-1.093-.259-1.7-.2-1.278-.315-1.982a20.684,20.684,0,0,0-.528-2.222,38.966,38.966,0,0,0-4.519-10.825,40.549,40.549,0,0,0-10.325-11.519l-1.759-1.333c-.62-.407-1.269-.778-1.917-1.176a17.312,17.312,0,0,0-1.972-1.139l-2.111-1.009-1.074-.509-1.12-.417-2.287-.824c-.778-.259-1.583-.426-2.389-.648a24.152,24.152,0,0,0-2.454-.556,38.635,38.635,0,0,0-5.13-.593c-.87,0-1.759-.111-2.648-.1l-2.676.139a6.642,6.642,0,0,0-1.361.093l-1.352.2c-.926.148-1.852.259-2.722.444A43.873,43.873,0,0,0,94.28,335.9a41.668,41.668,0,0,0-5.287,2.324c-.861.463-1.685,1.009-2.528,1.509-.417.269-.861.491-1.25.8l-1.195.926a45.659,45.659,0,0,0-4.63,3.908l-2.056,2.269-.519.574-.472.62-.926,1.241-.926,1.241-.815,1.333-.815,1.343-.407.676-.343.713c-.463.926-.926,1.9-1.38,2.852s-.732,2-1.1,3.009a40.114,40.114,0,0,0,0,25.576c.37,1,.732,2.009,1.1,3s.926,1.917,1.37,2.861l.352.713.407.667.815,1.343.815,1.343.926,1.241.926,1.241.463.62.519.574,2.065,2.269a45.655,45.655,0,0,0,4.63,3.908l1.185.926c.4.3.843.519,1.259.787.843.5,1.667,1.046,2.519,1.509a42.365,42.365,0,0,0,5.3,2.324,40.864,40.864,0,0,0,5.408,1.583c.926.194,1.852.3,2.722.444l1.352.213c.454.056.926.056,1.361.083l2.685.139c.926,0,1.769-.074,2.639-.1a37.142,37.142,0,0,0,5.13-.593,19.277,19.277,0,0,0,2.454-.556c.806-.222,1.62-.389,2.389-.639l2.287-.833,1.13-.407,1.065-.509,2.111-1.019c.7-.315,1.324-.769,1.982-1.139s1.287-.769,1.908-1.176l1.75-1.306A40.447,40.447,0,0,0,142.987,394.8a39.262,39.262,0,0,0,4.519-10.871,21.2,21.2,0,0,0,.528-2.222c.111-.713.222-1.371.315-1.991s.2-1.176.259-1.7.056-1,.083-1.426c.056-.833.093-1.482.12-1.935s.056-.657.056-.657v.667c0,.444,0,1.093-.074,1.935a13.135,13.135,0,0,1-.056,1.435c-.056.509-.148,1.093-.241,1.7s-.185,1.287-.287,2a21.913,21.913,0,0,1-.519,2.241,38.577,38.577,0,0,1-4.454,10.908,40.743,40.743,0,0,1-10.353,11.649l-1.769,1.333c-.62.407-1.278.778-1.917,1.185a16.315,16.315,0,0,1-2,1.157l-2.12,1.028-1.083.519-1.13.417-2.306.843c-.778.269-1.6.435-2.408.657a20.49,20.49,0,0,1-2.482.565,36.6,36.6,0,0,1-5.176.611c-.926,0-1.778.12-2.676.111l-2.713-.13a6.644,6.644,0,0,1-1.361-.093l-1.37-.2c-.926-.148-1.852-.25-2.778-.444a42.225,42.225,0,0,1-5.473-1.593,43.042,43.042,0,0,1-5.352-2.343c-.861-.463-1.695-1.009-2.556-1.519-.417-.269-.861-.5-1.269-.806l-1.2-.926a45.555,45.555,0,0,1-4.63-3.954l-2.083-2.287-.528-.583-.472-.62L75.1,398.2l-.926-1.259-.833-1.343-.824-1.361-.407-.685-.352-.713-1.4-2.9-1.111-3.037a40.549,40.549,0,0,1,0-25.881l1.111-3.037c.472-.926.926-1.926,1.4-2.889l.352-.722.417-.676.824-1.361L74.177,351l.926-1.269.926-1.25.472-.62.528-.583,2.065-2.232a46.764,46.764,0,0,1,4.63-3.954l1.213-.926c.4-.306.843-.537,1.269-.806.852-.5,1.685-1.046,2.546-1.519A44.447,44.447,0,0,1,94.1,335.5a43.736,43.736,0,0,1,5.5-1.565c.926-.185,1.852-.3,2.778-.444l1.361-.2c.463-.056.926-.056,1.37-.083l2.713-.139c.926,0,1.787.074,2.676.111a36.6,36.6,0,0,1,5.176.611,21.781,21.781,0,0,1,2.472.565c.815.222,1.63.4,2.417.657l2.306.843,1.13.417,1.083.519,2.12,1.028c.713.324,1.333.778,1.991,1.157s1.306.778,1.926,1.195l1.759,1.324a40.6,40.6,0,0,1,10.353,11.649,38.3,38.3,0,0,1,4.463,10.917,21.212,21.212,0,0,1,.519,2.232c.1.713.2,1.38.287,2s.194,1.185.241,1.713,0,1,.056,1.426c0,.843.065,1.491.074,1.945A6.463,6.463,0,0,1,148.867,374.016Z" transform="translate(-17.975 -98.272)" fill="#b1a8d1"/>
      <path id="Trazado_123767" data-name="Trazado 123767" d="M130.19,394.062a5.17,5.17,0,0,1-.787.046l-2.25.046-8.334.083-27.363.083H89.28v-.259c0-10.186.056-19.39.074-26.066,0-3.269.065-5.926.083-7.825,0-.926,0-1.593.046-2.121a6.485,6.485,0,0,1,0-.741,3.8,3.8,0,0,1,.056.741c0,.528,0,1.232,0,2.121,0,1.9,0,4.556.083,7.825,0,6.676,0,15.844.074,26.066l-.259-.259h1.954l27.363.074,8.334.083,2.25.046A4.321,4.321,0,0,1,130.19,394.062Z" transform="translate(-19.614 -100.066)" fill="#263238"/>
      <path id="Trazado_123768" data-name="Trazado 123768" d="M126,366.94a9.873,9.873,0,0,1-1.213,1.157l-3.426,3.009c-2.917,2.528-6.963,5.991-11.445,9.788l-.685.583-.176.148-.167-.157-5.093-4.732h.37L96.682,382.9l-2.167,1.732a4.862,4.862,0,0,1-.815.583,4.7,4.7,0,0,1,.713-.7l2.083-1.852,7.352-6.306.167-.139.157.148,5.111,4.7h-.343l.676-.574c4.491-3.806,8.575-7.223,11.547-9.677l3.537-2.889A11.115,11.115,0,0,1,126,366.94Z" transform="translate(-19.941 -100.779)" fill="#263238"/>
      <path id="Trazado_123769" data-name="Trazado 123769" d="M127.812,375.413a13.288,13.288,0,0,1-.176-2.528c0-1.574-.074-3.76-.074-6.186l.25.259h-.435c-2.528,0-4.815,0-6.482-.074a13.472,13.472,0,0,1-2.685-.185,15.474,15.474,0,0,1,2.685-.185c1.658,0,3.945-.074,6.482-.074h.694v.259c0,2.426,0,4.63-.074,6.186a11.909,11.909,0,0,1-.185,2.528Z" transform="translate(-21.755 -100.742)" fill="#263238"/>
      <circle id="Elipse_4210" data-name="Elipse 4210" cx="40.771" cy="40.771" r="40.771" transform="matrix(0.24, -0.971, 0.971, 0.24, 0, 191.377)" fill="#fff"/>
      <path id="Trazado_123770" data-name="Trazado 123770" d="M104.833,250.723a5.893,5.893,0,0,0-.056-.667c-.056-.435-.065-1.093-.12-1.935,0-.426-.056-.926-.083-1.426s-.167-1.083-.259-1.7-.2-1.278-.315-1.982-.352-1.435-.528-2.222a39.039,39.039,0,0,0-4.537-10.834A40.568,40.568,0,0,0,88.61,218.424L86.9,217.119c-.62-.4-1.269-.769-1.917-1.167a18.9,18.9,0,0,0-1.972-1.148L80.9,213.794l-1.074-.509-1.12-.407-2.287-.833c-.778-.259-1.583-.426-2.389-.639a20.018,20.018,0,0,0-2.454-.556,37.149,37.149,0,0,0-5.13-.593c-.87,0-1.759-.12-2.648-.1l-2.676.139a7.369,7.369,0,0,0-1.361.083l-1.352.213c-.926.148-1.852.25-2.722.435a42.372,42.372,0,0,0-5.408,1.593,41.672,41.672,0,0,0-5.287,2.324c-.861.463-1.685,1-2.528,1.509-.417.259-.861.491-1.25.787l-1.195.926a45.662,45.662,0,0,0-4.63,3.908l-2.056,2.269-.519.565-.472.62-.926,1.241-.926,1.25-.815,1.333-.815,1.343-.407.667-.343.713-1.4,2.834-1.1,3a40.114,40.114,0,0,0,0,25.576c.37,1.009.732,2.009,1.1,3.009s.926,1.908,1.37,2.852l.352.713.407.676.815,1.343.815,1.333.926,1.25.926,1.241.463.611.519.574,2.065,2.269A45.668,45.668,0,0,0,40,283.262l1.185.926c.4.3.843.528,1.259.787.843.509,1.667,1.046,2.519,1.509a44.968,44.968,0,0,0,10.7,3.917c.926.185,1.852.287,2.722.444l1.352.2c.454.056.926.056,1.361.083l2.685.139c.926,0,1.769-.065,2.639-.1a37.151,37.151,0,0,0,5.13-.593,19.277,19.277,0,0,0,2.454-.556c.806-.213,1.62-.38,2.389-.639l2.287-.833,1.13-.407,1.065-.509,2.111-1.009c.7-.324,1.324-.778,1.982-1.148s1.287-.759,1.908-1.167L88.628,283a40.475,40.475,0,0,0,10.306-11.556,39.262,39.262,0,0,0,4.51-10.816,21.2,21.2,0,0,0,.528-2.222c.111-.7.222-1.37.315-1.982s.2-1.185.259-1.7.056-1,.083-1.426c.056-.843.093-1.482.12-1.935s.056-.657.056-.657v.657c0,.435,0,1.1-.074,1.935a13.05,13.05,0,0,1-.056,1.435c-.056.509-.148,1.093-.241,1.713s-.185,1.278-.287,1.991a21.361,21.361,0,0,1-.519,2.241,38.475,38.475,0,0,1-4.454,10.908,40.743,40.743,0,0,1-10.334,11.658l-1.769,1.324c-.62.407-1.278.787-1.917,1.185a17.66,17.66,0,0,1-2,1.167l-2.121,1.028-1.083.509-1.13.417-2.306.852c-.778.259-1.6.426-2.408.648a20.52,20.52,0,0,1-2.482.574,39.524,39.524,0,0,1-5.176.611c-.926,0-1.778.12-2.676.111l-2.713-.139a7.368,7.368,0,0,1-1.361-.083l-1.37-.213c-.926-.148-1.852-.25-2.778-.435a43.806,43.806,0,0,1-5.473-1.6,43.053,43.053,0,0,1-5.334-2.361c-.861-.463-1.695-1.009-2.556-1.519-.417-.269-.861-.491-1.269-.8l-1.2-.926a45.455,45.455,0,0,1-4.63-3.945L33,277.354l-.528-.574-.472-.62-.926-1.259-.926-1.259-.833-1.352-.824-1.361-.407-.676-.352-.722c-.463-.926-.926-1.926-1.4-2.889l-1.167-2.954a40.549,40.549,0,0,1,0-25.881l1.111-3.037,1.4-2.9.352-.713.417-.685.824-1.352.824-1.352.926-1.259.926-1.259.472-.62.528-.574,2.093-2.343a45.458,45.458,0,0,1,4.63-3.945l1.213-.926c.4-.3.843-.528,1.269-.8.852-.509,1.685-1.056,2.546-1.519a43.052,43.052,0,0,1,5.352-2.343,42.224,42.224,0,0,1,5.473-1.593c.926-.194,1.852-.3,2.778-.444l1.361-.213c.463-.056.926-.056,1.37-.083l2.713-.13c.926,0,1.787.074,2.676.1a39.524,39.524,0,0,1,5.176.611,19.975,19.975,0,0,1,2.472.574c.815.222,1.63.389,2.417.648l2.306.852,1.13.417,1.083.509,2.185,1.046c.713.324,1.333.787,1.991,1.167s1.306.778,1.926,1.185l1.759,1.324a40.632,40.632,0,0,1,10.353,11.658,38.252,38.252,0,0,1,4.463,10.908c.176.8.435,1.519.519,2.241s.2,1.37.287,1.991.194,1.185.241,1.713,0,1,.056,1.435c0,.843.056,1.482.074,1.935A3.221,3.221,0,0,1,104.833,250.723Z" transform="translate(-14.712 -89.143)" fill="#b1a8d1"/>
      <path id="Trazado_123771" data-name="Trazado 123771" d="M67.026,234.779l4.417,8.954a1.167,1.167,0,0,0,.87.62l9.88,1.435a1.148,1.148,0,0,1,.63,1.963l-7.149,6.963a1.157,1.157,0,0,0-.324,1.019l1.685,9.834a1.148,1.148,0,0,1-1.667,1.213l-8.834-4.63a1.139,1.139,0,0,0-1.065,0l-8.843,4.63a1.139,1.139,0,0,1-1.658-1.213l1.685-9.834a1.167,1.167,0,0,0-.333-1.019l-7.149-6.963a1.157,1.157,0,0,1,.639-1.963l9.88-1.435a1.158,1.158,0,0,0,.861-.62l4.417-8.954a1.148,1.148,0,0,1,2.056,0Z" transform="translate(-16.62 -90.95)" fill="#fafafa"/>
      <path id="Trazado_123772" data-name="Trazado 123772" d="M67.008,234.774s0-.093-.185-.241a1.12,1.12,0,0,0-1.852.361l-.861,1.8c-.648,1.352-1.445,2.991-2.371,4.9l-.722,1.482c-.12.259-.25.519-.38.778a1.315,1.315,0,0,1-.769.62c-1.232.2-2.463.37-3.787.574l-4.148.62L49.739,246a.926.926,0,0,0-.519,1.519l7.158,6.982a1.4,1.4,0,0,1,.435,1.4l-.222,1.333c-.157.926-.306,1.8-.463,2.7-.306,1.852-.63,3.7-.926,5.556a.926.926,0,0,0,.407,1.019.806.806,0,0,0,.546.13,1.315,1.315,0,0,0,.583-.222l2.621-1.37,5.343-2.778.685-.361a1.435,1.435,0,0,1,.926-.1,3.362,3.362,0,0,1,.75.333l.667.352,2.658,1.4,5.176,2.722a.926.926,0,0,0,1.269-.741,2.879,2.879,0,0,0-.074-.639l-.472-2.778c-.306-1.852-.611-3.6-.926-5.352l-.222-1.3a1.417,1.417,0,0,1,.5-1.352c.611-.6,1.222-1.185,1.852-1.769q1.806-1.75,3.491-3.4l1.667-1.611a.926.926,0,0,0-.12-1.583,3.335,3.335,0,0,0-.991-.213l-1.083-.158-2.028-.306-3.769-.565-1.741-.259c-.287-.056-.537-.065-.843-.148a1.259,1.259,0,0,1-.694-.556l-2.389-4.908-1.5-3.121-.37-.806c-.083-.185-.12-.287-.12-.287a1.184,1.184,0,0,1,.157.259c.111.2.25.463.417.8.38.732.926,1.759,1.565,3.065l2.454,4.852a1.009,1.009,0,0,0,.528.454c.222.065.537.083.806.13l1.732.241,3.778.537,2.028.287,1.056.148a3.492,3.492,0,0,1,1.111.241,1.352,1.352,0,0,1,.213,2.195l-1.648,1.62L77.713,253l-1.852,1.787a.926.926,0,0,0-.361.926l.222,1.3q.454,2.611.926,5.352c.157.926.315,1.852.482,2.778a3.185,3.185,0,0,1,.074.769,1.3,1.3,0,0,1-.343.778,1.361,1.361,0,0,1-1.574.343L70.073,264.3l-2.584-1.4-.667-.352a3.011,3.011,0,0,0-.63-.287.926.926,0,0,0-.583.065l-.676.352-5.343,2.778-2.621,1.38a1.982,1.982,0,0,1-.769.278,1.352,1.352,0,0,1-.843-.213,1.4,1.4,0,0,1-.611-1.5q.491-2.834.926-5.556c.157-.926.315-1.852.472-2.7l.222-1.333a.926.926,0,0,0-.3-1.009l-7.186-7.047a1.352,1.352,0,0,1-.213-1.287,1.333,1.333,0,0,1,.926-.861l2.222-.324,4.148-.583,3.76-.537a1.028,1.028,0,0,0,.593-.463l.38-.769.741-1.472,2.445-4.861c.343-.667.639-1.259.926-1.778a1.232,1.232,0,0,1,1.222-.741,1.12,1.12,0,0,1,.8.417A.648.648,0,0,1,67.008,234.774Z" transform="translate(-16.603 -90.945)" fill="#263238"/>
      <circle id="Elipse_4211" data-name="Elipse 4211" cx="40.771" cy="40.771" r="40.771" transform="matrix(0.24, -0.971, 0.971, 0.24, 0, 191.377)" fill="#fff"/>
      <path id="Trazado_123773" data-name="Trazado 123773" d="M104.833,250.723a5.893,5.893,0,0,0-.056-.667c-.056-.435-.065-1.093-.12-1.935,0-.426-.056-.926-.083-1.426s-.167-1.083-.259-1.7-.2-1.278-.315-1.982-.352-1.435-.528-2.222a39.039,39.039,0,0,0-4.537-10.834A40.568,40.568,0,0,0,88.61,218.424L86.9,217.119c-.62-.4-1.269-.769-1.917-1.167a18.9,18.9,0,0,0-1.972-1.148L80.9,213.794l-1.074-.509-1.12-.407-2.287-.833c-.778-.259-1.583-.426-2.389-.639a20.018,20.018,0,0,0-2.454-.556,37.149,37.149,0,0,0-5.13-.593c-.87,0-1.759-.12-2.648-.1l-2.676.139a7.369,7.369,0,0,0-1.361.083l-1.352.213c-.926.148-1.852.25-2.722.435a42.372,42.372,0,0,0-5.408,1.593,41.672,41.672,0,0,0-5.287,2.324c-.861.463-1.685,1-2.528,1.509-.417.259-.861.491-1.25.787l-1.195.926a45.662,45.662,0,0,0-4.63,3.908l-2.056,2.269-.519.565-.472.62-.926,1.241-.926,1.25-.815,1.333-.815,1.343-.407.667-.343.713-1.4,2.834-1.1,3a40.114,40.114,0,0,0,0,25.576c.37,1.009.732,2.009,1.1,3.009s.926,1.908,1.37,2.852l.352.713.407.676.815,1.343.815,1.333.926,1.25.926,1.241.463.611.519.574,2.065,2.269A45.668,45.668,0,0,0,40,283.262l1.185.926c.4.3.843.528,1.259.787.843.509,1.667,1.046,2.519,1.509a44.968,44.968,0,0,0,10.7,3.917c.926.185,1.852.287,2.722.444l1.352.2c.454.056.926.056,1.361.083l2.685.139c.926,0,1.769-.065,2.639-.1a37.151,37.151,0,0,0,5.13-.593,19.277,19.277,0,0,0,2.454-.556c.806-.213,1.62-.38,2.389-.639l2.287-.833,1.13-.407,1.065-.509,2.111-1.009c.7-.324,1.324-.778,1.982-1.148s1.287-.759,1.908-1.167L88.628,283a40.475,40.475,0,0,0,10.306-11.556,39.262,39.262,0,0,0,4.51-10.816,21.2,21.2,0,0,0,.528-2.222c.111-.7.222-1.37.315-1.982s.2-1.185.259-1.7.056-1,.083-1.426c.056-.843.093-1.482.12-1.935s.056-.657.056-.657v.657c0,.435,0,1.1-.074,1.935a13.05,13.05,0,0,1-.056,1.435c-.056.509-.148,1.093-.241,1.713s-.185,1.278-.287,1.991a21.361,21.361,0,0,1-.519,2.241,38.475,38.475,0,0,1-4.454,10.908,40.743,40.743,0,0,1-10.334,11.658l-1.769,1.324c-.62.407-1.278.787-1.917,1.185a17.66,17.66,0,0,1-2,1.167l-2.121,1.028-1.083.509-1.13.417-2.306.852c-.778.259-1.6.426-2.408.648a20.52,20.52,0,0,1-2.482.574,39.524,39.524,0,0,1-5.176.611c-.926,0-1.778.12-2.676.111l-2.713-.139a7.368,7.368,0,0,1-1.361-.083l-1.37-.213c-.926-.148-1.852-.25-2.778-.435a43.806,43.806,0,0,1-5.473-1.6,43.053,43.053,0,0,1-5.334-2.361c-.861-.463-1.695-1.009-2.556-1.519-.417-.269-.861-.491-1.269-.8l-1.2-.926a45.455,45.455,0,0,1-4.63-3.945L33,277.354l-.528-.574-.472-.62-.926-1.259-.926-1.259-.833-1.352-.824-1.361-.407-.676-.352-.722c-.463-.926-.926-1.926-1.4-2.889l-1.167-2.954a40.549,40.549,0,0,1,0-25.881l1.111-3.037,1.4-2.9.352-.713.417-.685.824-1.352.824-1.352.926-1.259.926-1.259.472-.62.528-.574,2.093-2.343a45.458,45.458,0,0,1,4.63-3.945l1.213-.926c.4-.3.843-.528,1.269-.8.852-.509,1.685-1.056,2.546-1.519a43.052,43.052,0,0,1,5.352-2.343,42.224,42.224,0,0,1,5.473-1.593c.926-.194,1.852-.3,2.778-.444l1.361-.213c.463-.056.926-.056,1.37-.083l2.713-.13c.926,0,1.787.074,2.676.1a39.524,39.524,0,0,1,5.176.611,19.975,19.975,0,0,1,2.472.574c.815.222,1.63.389,2.417.648l2.306.852,1.13.417,1.083.509,2.185,1.046c.713.324,1.333.787,1.991,1.167s1.306.778,1.926,1.185l1.759,1.324a40.632,40.632,0,0,1,10.353,11.658,38.252,38.252,0,0,1,4.463,10.908c.176.8.435,1.519.519,2.241s.2,1.37.287,1.991.194,1.185.241,1.713,0,1,.056,1.435c0,.843.056,1.482.074,1.935A3.221,3.221,0,0,1,104.833,250.723Z" transform="translate(-14.712 -89.143)" fill="#b1a8d1"/>
      <path id="Trazado_123774" data-name="Trazado 123774" d="M67.026,234.779l4.417,8.954a1.167,1.167,0,0,0,.87.62l9.88,1.435a1.148,1.148,0,0,1,.63,1.963l-7.149,6.963a1.157,1.157,0,0,0-.324,1.019l1.685,9.834a1.148,1.148,0,0,1-1.667,1.213l-8.834-4.63a1.139,1.139,0,0,0-1.065,0l-8.843,4.63a1.139,1.139,0,0,1-1.658-1.213l1.685-9.834a1.167,1.167,0,0,0-.333-1.019l-7.149-6.963a1.157,1.157,0,0,1,.639-1.963l9.88-1.435a1.158,1.158,0,0,0,.861-.62l4.417-8.954a1.148,1.148,0,0,1,2.056,0Z" transform="translate(-16.62 -90.95)" fill="#fafafa"/>
      <path id="Trazado_123775" data-name="Trazado 123775" d="M67.008,234.774s0-.093-.185-.241a1.12,1.12,0,0,0-1.852.361l-.861,1.8c-.648,1.352-1.445,2.991-2.371,4.9l-.722,1.482c-.12.259-.25.519-.38.778a1.315,1.315,0,0,1-.769.62c-1.232.2-2.463.37-3.787.574l-4.148.62L49.739,246a.926.926,0,0,0-.519,1.519l7.158,6.982a1.4,1.4,0,0,1,.435,1.4l-.222,1.333c-.157.926-.306,1.8-.463,2.7-.306,1.852-.63,3.7-.926,5.556a.926.926,0,0,0,.407,1.019.806.806,0,0,0,.546.13,1.315,1.315,0,0,0,.583-.222l2.621-1.37,5.343-2.778.685-.361a1.435,1.435,0,0,1,.926-.1,3.362,3.362,0,0,1,.75.333l.667.352,2.658,1.4,5.176,2.722a.926.926,0,0,0,1.269-.741,2.879,2.879,0,0,0-.074-.639l-.472-2.778c-.306-1.852-.611-3.6-.926-5.352l-.222-1.3a1.417,1.417,0,0,1,.5-1.352c.611-.6,1.222-1.185,1.852-1.769q1.806-1.75,3.491-3.4l1.667-1.611a.926.926,0,0,0-.12-1.583,3.335,3.335,0,0,0-.991-.213l-1.083-.158-2.028-.306-3.769-.565-1.741-.259c-.287-.056-.537-.065-.843-.148a1.259,1.259,0,0,1-.694-.556l-2.389-4.908-1.5-3.121-.37-.806c-.083-.185-.12-.287-.12-.287a1.184,1.184,0,0,1,.157.259c.111.2.25.463.417.8.38.732.926,1.759,1.565,3.065l2.454,4.852a1.009,1.009,0,0,0,.528.454c.222.065.537.083.806.13l1.732.241,3.778.537,2.028.287,1.056.148a3.492,3.492,0,0,1,1.111.241,1.352,1.352,0,0,1,.213,2.195l-1.648,1.62L77.713,253l-1.852,1.787a.926.926,0,0,0-.361.926l.222,1.3q.454,2.611.926,5.352c.157.926.315,1.852.482,2.778a3.185,3.185,0,0,1,.074.769,1.3,1.3,0,0,1-.343.778,1.361,1.361,0,0,1-1.574.343L70.073,264.3l-2.584-1.4-.667-.352a3.011,3.011,0,0,0-.63-.287.926.926,0,0,0-.583.065l-.676.352-5.343,2.778-2.621,1.38a1.982,1.982,0,0,1-.769.278,1.352,1.352,0,0,1-.843-.213,1.4,1.4,0,0,1-.611-1.5q.491-2.834.926-5.556c.157-.926.315-1.852.472-2.7l.222-1.333a.926.926,0,0,0-.3-1.009l-7.186-7.047a1.352,1.352,0,0,1-.213-1.287,1.333,1.333,0,0,1,.926-.861l2.222-.324,4.148-.583,3.76-.537a1.028,1.028,0,0,0,.593-.463l.38-.769.741-1.472,2.445-4.861c.343-.667.639-1.259.926-1.778a1.232,1.232,0,0,1,1.222-.741,1.12,1.12,0,0,1,.8.417A.648.648,0,0,1,67.008,234.774Z" transform="translate(-16.603 -90.945)" fill="#263238"/>
    </g>
  </g>
</svg>
