<svg xmlns="http://www.w3.org/2000/svg" width="368" height="260.908" viewBox="0 0 368 260.908">
  <g id="Finance-pana" transform="translate(-39.74 -73.975)">
    <g id="freepik--background-complete--inject-178" transform="translate(71.955 73.975)">
      <path id="Trazado_124122" data-name="Trazado 124122" d="M584.355,85.661A13.436,13.436,0,1,1,569.139,74.33,13.436,13.436,0,0,1,584.355,85.661Z" transform="translate(-299.917 -51.519)" fill="#f5f5f5"/>
      <path id="Trazado_124123" data-name="Trazado 124123" d="M583.714,88.626a10.239,10.239,0,1,1-11.605-8.632A10.239,10.239,0,0,1,583.714,88.626Z" transform="translate(-302.434 -54.026)" fill="#ebebeb"/>
      <path id="Trazado_124124" data-name="Trazado 124124" d="M583.529,88a6.162,6.162,0,0,1-.448-1.176,10.5,10.5,0,0,0-3.224-4.585,10.15,10.15,0,0,0-2.239-1.377,9.206,9.206,0,0,0-1.332-.5,10.074,10.074,0,0,0-1.45-.308,10.573,10.573,0,0,0-1.528-.09,11.6,11.6,0,0,0-1.573.157,10.556,10.556,0,0,0-1.528.4,9.329,9.329,0,0,0-1.411.61,9.516,9.516,0,0,0-1.254.789,9.066,9.066,0,0,0-1.081.918,10.192,10.192,0,0,0-1.624,2.071,10.573,10.573,0,0,0-.946,2.1,10.97,10.97,0,0,0-.509,3.309,6,6,0,0,1,0,1.26,2.989,2.989,0,0,1-.291-1.243,9.515,9.515,0,0,1,.28-3.482,10.384,10.384,0,0,1,2.586-4.523,10.076,10.076,0,0,1,1.12-1.008,10.278,10.278,0,0,1,2.855-1.54,12.248,12.248,0,0,1,1.646-.431,11.755,11.755,0,0,1,1.679-.162,10.027,10.027,0,0,1,1.651.112,9.456,9.456,0,0,1,1.562.353,9.608,9.608,0,0,1,1.422.56,10.35,10.35,0,0,1,2.351,1.54,10.518,10.518,0,0,1,1.668,1.808,9.514,9.514,0,0,1,1.467,3.174A3.031,3.031,0,0,1,583.529,88Z" transform="translate(-302.298 -53.72)" fill="#e0e0e0"/>
      <path id="Trazado_124125" data-name="Trazado 124125" d="M580.081,98.373l.28,1.763-1.573.252-.274-1.713a7.585,7.585,0,0,1-4.115-.649l.56-2.055a6.433,6.433,0,0,0,3.225.627l-.42-2.626c-1.814-.146-3.852-.414-4.216-2.665-.263-1.679.717-3.286,3.152-3.969l-.274-1.747,1.568-.252.274,1.719a7.166,7.166,0,0,1,3.359.448l-.476,2.055a6.645,6.645,0,0,0-2.536-.431l.425,2.676c1.814.129,3.824.4,4.176,2.62C583.467,96.077,582.5,97.684,580.081,98.373Zm-2.687-6.718-.358-2.239c-.8.319-1.058.829-.974,1.349s.6.806,1.332.913Zm3.309,3.359c-.084-.56-.588-.778-1.3-.907l.347,2.172c.756-.28,1.041-.739.957-1.243Z" transform="translate(-306.906 -56.428)" fill="#e0e0e0"/>
      <path id="Trazado_124126" data-name="Trazado 124126" d="M494.138,83.271A23.317,23.317,0,1,1,467.72,63.6,23.317,23.317,0,0,1,494.138,83.271Z" transform="translate(-251.552 -46.75)" fill="#f5f5f5"/>
      <path id="Trazado_124127" data-name="Trazado 124127" d="M493.005,88.417a17.746,17.746,0,1,1-6.97-11.671A17.769,17.769,0,0,1,493.005,88.417Z" transform="translate(-255.912 -51.101)" fill="#ebebeb"/>
      <path id="Trazado_124128" data-name="Trazado 124128" d="M492.707,87.356a11.3,11.3,0,0,1-.773-2.049,18.933,18.933,0,0,0-2.8-5.094,18.278,18.278,0,0,0-2.8-2.855,17.976,17.976,0,0,0-3.88-2.4,16.748,16.748,0,0,0-2.318-.857,16.538,16.538,0,0,0-2.514-.56,17.406,17.406,0,0,0-2.659-.157,17.181,17.181,0,0,0-5.385.957,16.727,16.727,0,0,0-2.43,1.086,17.041,17.041,0,0,0-2.178,1.366,17.579,17.579,0,0,0-1.881,1.6,17.8,17.8,0,0,0-2.8,3.594,18.476,18.476,0,0,0-1.64,3.644,19.033,19.033,0,0,0-.884,5.749,13.833,13.833,0,0,1,0,2.183,5.015,5.015,0,0,1-.509-2.155,16.455,16.455,0,0,1,.487-6.052,17.825,17.825,0,0,1,4.479-7.838,16.316,16.316,0,0,1,1.987-1.758,17.9,17.9,0,0,1,2.29-1.489,17.353,17.353,0,0,1,2.631-1.164,19.87,19.87,0,0,1,2.861-.756,19.535,19.535,0,0,1,2.945-.274,17.919,17.919,0,0,1,2.866.185,17.581,17.581,0,0,1,2.7.61,17.8,17.8,0,0,1,2.469.963,18.17,18.17,0,0,1,4.087,2.676,17.957,17.957,0,0,1,2.833,3.146,16.409,16.409,0,0,1,2.547,5.509A5.108,5.108,0,0,1,492.707,87.356Z" transform="translate(-255.697 -50.589)" fill="#e0e0e0"/>
      <path id="Trazado_124129" data-name="Trazado 124129" d="M486.69,105.375l.487,3.057-2.726.431-.476-2.973a12.863,12.863,0,0,1-7.143-1.12l.963-3.572a11.2,11.2,0,0,0,5.6,1.12l-.733-4.557c-3.146-.252-6.69-.722-7.317-4.624-.459-2.894,1.243-5.71,5.475-6.891l-.487-3.029,2.732-.437.476,2.973a12.506,12.506,0,0,1,5.805.778l-.789,3.577a11.342,11.342,0,0,0-4.4-.756l.739,4.641c3.146.224,6.634.7,7.25,4.546C492.569,101.377,490.889,104.176,486.69,105.375Zm-4.663-11.628-.616-3.874c-1.394.56-1.842,1.444-1.68,2.346S480.768,93.54,482.027,93.747Zm5.749,5.828c-.151-.957-1.03-1.349-2.267-1.573l.6,3.768C487.435,101.254,487.917,100.448,487.777,99.575Z" transform="translate(-263.665 -55.301)" fill="#e0e0e0"/>
      <path id="Trazado_124130" data-name="Trazado 124130" d="M141.354,231.744a13.436,13.436,0,1,1-15.222-11.325A13.436,13.436,0,0,1,141.354,231.744Z" transform="translate(-104.919 -115.824)" fill="#f5f5f5"/>
      <path id="Trazado_124131" data-name="Trazado 124131" d="M140.7,234.707a10.239,10.239,0,1,1-11.6-8.633,10.239,10.239,0,0,1,11.6,8.633Z" transform="translate(-107.431 -118.328)" fill="#ebebeb"/>
      <path id="Trazado_124132" data-name="Trazado 124132" d="M140.518,234.1a5.941,5.941,0,0,1-.442-1.181,10.871,10.871,0,0,0-1.623-2.934,10.526,10.526,0,0,0-1.607-1.646,10.167,10.167,0,0,0-2.239-1.383,8.957,8.957,0,0,0-1.332-.493,9.245,9.245,0,0,0-1.45-.308,9.831,9.831,0,0,0-1.528-.09,10.762,10.762,0,0,0-1.573.151,9.943,9.943,0,0,0-4.193,1.8,9.661,9.661,0,0,0-1.08.924,10.155,10.155,0,0,0-1.623,2.066,10.7,10.7,0,0,0-.946,2.1,10.978,10.978,0,0,0-.509,3.314,5.6,5.6,0,0,1,0,1.26,3.029,3.029,0,0,1-.291-1.243,9.518,9.518,0,0,1,.28-3.488,10.35,10.35,0,0,1,.913-2.239,10.636,10.636,0,0,1,1.679-2.239,9.513,9.513,0,0,1,1.12-1.013,10.68,10.68,0,0,1,2.855-1.534,11.352,11.352,0,0,1,1.651-.437,11.581,11.581,0,0,1,1.679-.157,10.725,10.725,0,0,1,1.679.106,9.984,9.984,0,0,1,1.556.353,10.453,10.453,0,0,1,5.408,3.919,9.517,9.517,0,0,1,1.467,3.174A3.057,3.057,0,0,1,140.518,234.1Z" transform="translate(-107.296 -118.047)" fill="#e0e0e0"/>
      <path id="Trazado_124133" data-name="Trazado 124133" d="M137.074,244.476l.28,1.758-1.573.252-.274-1.713a7.536,7.536,0,0,1-4.115-.627l.56-2.06a6.382,6.382,0,0,0,3.23.627l-.425-2.626c-1.808-.14-3.852-.409-4.21-2.659-.269-1.68.711-3.292,3.152-3.969l-.28-1.747,1.573-.252.274,1.713a7.149,7.149,0,0,1,3.359.448l-.476,2.06a6.421,6.421,0,0,0-2.536-.431l.425,2.67c1.814.129,3.824.4,4.176,2.62C140.461,242.175,139.492,243.782,137.074,244.476Zm-2.687-6.718-.358-2.239c-.8.325-1.058.828-.974,1.349s.6.8,1.332.913Zm3.314,3.359c-.09-.56-.593-.773-1.31-.9l.347,2.167c.761-.28,1.041-.745.963-1.248Z" transform="translate(-111.907 -120.746)" fill="#e0e0e0"/>
      <path id="Trazado_124134" data-name="Trazado 124134" d="M110.707,175.266a8.739,8.739,0,1,1,2.71-12.042,8.739,8.739,0,0,1-2.71,12.042Z" transform="translate(-97.286 -88.916)" fill="#f5f5f5"/>
      <path id="Trazado_124135" data-name="Trazado 124135" d="M111.229,175.136a6.662,6.662,0,1,1,2.071-9.181A6.662,6.662,0,0,1,111.229,175.136Z" transform="translate(-98.921 -90.543)" fill="#ebebeb"/>
      <path id="Trazado_124136" data-name="Trazado 124136" d="M113.7,174.846a6.047,6.047,0,0,1,.56-.56,6.986,6.986,0,0,0,1.316-1.741,6.55,6.55,0,0,0,.784-3.085,5.762,5.762,0,0,0-.056-.924,6.273,6.273,0,0,0-.2-.94,6.522,6.522,0,0,0-.353-.935,6.382,6.382,0,0,0-1.148-1.679,5.928,5.928,0,0,0-.733-.672,6.064,6.064,0,0,0-.8-.56,5.7,5.7,0,0,0-.817-.437,6.716,6.716,0,0,0-1.679-.42,7.414,7.414,0,0,0-1.495,0,6.975,6.975,0,0,0-2.1.56,4.192,4.192,0,0,1-.756.325,2.924,2.924,0,0,1,.666-.5,6.125,6.125,0,0,1,2.144-.75,6.634,6.634,0,0,1,1.584-.062,6.717,6.717,0,0,1,1.786.4,6.227,6.227,0,0,1,.907.414,6.388,6.388,0,0,1,.868.56,6.9,6.9,0,0,1,1.489,1.59,7.213,7.213,0,0,1,.56.969,7.089,7.089,0,0,1,.375,1.008,6.714,6.714,0,0,1,.2,1.019,6,6,0,0,1,.045,1,6.785,6.785,0,0,1-.291,1.8,6.667,6.667,0,0,1-.649,1.45,6.159,6.159,0,0,1-1.5,1.713A2.032,2.032,0,0,1,113.7,174.846Z" transform="translate(-101.218 -90.366)" fill="#e0e0e0"/>
      <path id="Trazado_124137" data-name="Trazado 124137" d="M106.444,174.878l-.974.633-.56-.868.946-.616a4.848,4.848,0,0,1-.711-2.614l1.366-.213a4.187,4.187,0,0,0,.481,2.088l1.45-.946c-.392-1.12-.773-2.4.47-3.208.918-.6,2.144-.448,3.191.823l.963-.627.56.868-.946.616a4.7,4.7,0,0,1,.621,2.1l-1.355.263a4.227,4.227,0,0,0-.409-1.623l-1.478.963c.4,1.12.773,2.379-.453,3.174C108.706,176.283,107.491,176.132,106.444,174.878Zm3.269-3.359,1.232-.806c-.4-.392-.773-.409-1.058-.224s-.3.56-.174,1.024Zm-1.12,2.855c.3-.2.3-.56.19-1.019l-1.2.784c.381.369.733.409,1.008.23Z" transform="translate(-100.642 -93.163)" fill="#e0e0e0"/>
      <path id="Trazado_124140" data-name="Trazado 124140" d="M532.437,46.07a6.042,6.042,0,0,1,.56-.56,6.986,6.986,0,0,0,1.316-1.741,6.409,6.409,0,0,0,.56-1.388,6.781,6.781,0,0,0,.235-1.679,6.514,6.514,0,0,0-.039-.957,6.263,6.263,0,0,0-.2-.941,6.15,6.15,0,0,0-.353-.935,6.772,6.772,0,0,0-.5-.9,6.915,6.915,0,0,0-.621-.8,5.984,5.984,0,0,0-.739-.677,5.721,5.721,0,0,0-.8-.56,6.342,6.342,0,0,0-.834-.4,6.479,6.479,0,0,0-1.68-.414,6.678,6.678,0,0,0-1.495,0,6.992,6.992,0,0,0-2.1.56,3.732,3.732,0,0,1-.756.325,2.923,2.923,0,0,1,.666-.5,6.126,6.126,0,0,1,2.144-.722,6.37,6.37,0,0,1,1.584-.056,6.684,6.684,0,0,1,1.786.4,6.23,6.23,0,0,1,.907.414,6.8,6.8,0,0,1,2.357,2.133,7.272,7.272,0,0,1,.56.968,7.051,7.051,0,0,1,.369,1.008,6.063,6.063,0,0,1,.2,1.019,5.989,5.989,0,0,1,.045,1,6.786,6.786,0,0,1-.291,1.8,6.667,6.667,0,0,1-.661,1.484,6.157,6.157,0,0,1-1.495,1.679,2.076,2.076,0,0,1-.717.448Z" transform="translate(-285.546 -33.695)" fill="#e0e0e0"/>
    </g>
    <g id="freepik--Floor--inject-178" transform="translate(39.74 297.712)">
      <path id="Trazado_124142" data-name="Trazado 124142" d="M407.74,470.246c0,.078-82.385.146-183.989.146s-184.011-.067-184.011-.146,82.368-.146,184.011-.146S407.74,470.162,407.74,470.246Z" transform="translate(-39.74 -470.1)" fill="#263238"/>
    </g>
    <g id="freepik--Device--inject-178" transform="translate(121.233 92.323)">
      <path id="Trazado_124143" data-name="Trazado 124143" d="M496.187,134.64H283.051A6.651,6.651,0,0,0,276.4,141.3V291.839a6.651,6.651,0,0,0,6.651,6.651h81.8s5.206,16.089-10.928,24.42h76.489s-18.2-6.248-13.531-24.42h79.3a6.651,6.651,0,0,0,6.651-6.651V141.3A6.651,6.651,0,0,0,496.187,134.64Z" transform="translate(-232.779 -87.81)" fill="#263238"/>
      <path id="Trazado_124144" data-name="Trazado 124144" d="M478.176,398c2.9,4.143-1.635,8.683-5.783,5.783a1.433,1.433,0,0,1-.353-.358c-2.894-4.143,1.64-8.672,5.783-5.777A1.5,1.5,0,0,1,478.176,398Z" transform="translate(-318.492 -203.178)" fill="#455a64"/>
      <path id="Trazado_124145" data-name="Trazado 124145" d="M288.4,139.57H496.657a5.43,5.43,0,0,1,5.43,5.43V273.122H283V145a5.43,5.43,0,0,1,5.4-5.43Z" transform="translate(-235.684 -94.828)" fill="#fff"/>
      <rect id="Rectángulo_30143" data-name="Rectángulo 30143" width="7.188" height="80.256" transform="translate(65.852 75.283)" fill="#f5ca56"/>
      <rect id="Rectángulo_30144" data-name="Rectángulo 30144" width="7.188" height="52.999" transform="translate(79.725 103.241)" fill="#f5ca56"/>
      <rect id="Rectángulo_30145" data-name="Rectángulo 30145" width="7.188" height="70.689" transform="translate(93.597 85.556)" fill="#f5ca56"/>
      <rect id="Rectángulo_30146" data-name="Rectángulo 30146" width="7.188" height="77.155" transform="translate(107.475 78.477)" fill="#f5ca56"/>
      <rect id="Rectángulo_30147" data-name="Rectángulo 30147" width="7.188" height="51.364" transform="translate(121.348 104.911)" fill="#f5ca56"/>
      <rect id="Rectángulo_30148" data-name="Rectángulo 30148" width="7.188" height="41.293" transform="translate(135.22 115.184)" fill="#f5ca56"/>
      <rect id="Rectángulo_30149" data-name="Rectángulo 30149" width="7.188" height="72.016" transform="translate(149.092 83.762)" fill="#f5ca56"/>
      <rect id="Rectángulo_30150" data-name="Rectángulo 30150" width="7.188" height="59.033" transform="translate(162.965 97.071)" fill="#f5ca56"/>
      <rect id="Rectángulo_30151" data-name="Rectángulo 30151" width="7.188" height="69.407" transform="translate(176.843 86.44)" fill="#f5ca56"/>
      <rect id="Rectángulo_30152" data-name="Rectángulo 30152" width="7.188" height="47.288" transform="translate(190.715 109.071)" fill="#f5ca56"/>
      <rect id="Rectángulo_30153" data-name="Rectángulo 30153" width="7.188" height="72.016" transform="translate(218.387 83.762)" fill="#f5ca56"/>
      <rect id="Rectángulo_30154" data-name="Rectángulo 30154" width="7.188" height="24.643" transform="translate(247.851 131.043)" fill="#f5ca56"/>
      <rect id="Rectángulo_30155" data-name="Rectángulo 30155" width="7.188" height="47.288" transform="translate(233.486 109.071)" fill="#f5ca56"/>
      <rect id="Rectángulo_30156" data-name="Rectángulo 30156" width="7.188" height="56.285" transform="translate(204.588 99.882)" fill="#f5ca56"/>
      <path id="Trazado_124146" data-name="Trazado 124146" d="M510.433,210.393a4.48,4.48,0,0,1-.627-.1l-1.831-.375a28.628,28.628,0,0,0-2.99-.476,36.949,36.949,0,0,0-4.115-.342,47.647,47.647,0,0,0-11.253.963,49.667,49.667,0,0,0-13.951,5.285A56.95,56.95,0,0,0,461.533,226.6c-4.4,4.826-8.112,10.788-11.908,17.1s-7.737,13.083-13.385,18.928A35.034,35.034,0,0,1,426.381,270a20.546,20.546,0,0,1-6.08,1.859,19.481,19.481,0,0,1-6.444-.218,26.3,26.3,0,0,1-11.224-5.884,52.253,52.253,0,0,1-8.313-9.075c-4.826-6.494-8.252-13.492-11.919-19.868s-7.345-12.378-11.907-17.052a32.385,32.385,0,0,0-7.362-5.789,30.968,30.968,0,0,0-3.98-1.931,32.378,32.378,0,0,0-4.059-1.2,29.531,29.531,0,0,0-14.751.414,33.276,33.276,0,0,0-10.127,4.87,36.88,36.88,0,0,0-5.318,4.77l-1.248,1.383a3.914,3.914,0,0,1-.448.459,3.2,3.2,0,0,1,.381-.509l1.181-1.456a34.6,34.6,0,0,1,5.257-4.91,33.03,33.03,0,0,1,10.189-5.038,29.811,29.811,0,0,1,15-.56,31.123,31.123,0,0,1,15.753,9.013c4.6,4.736,8.425,10.743,12.075,17.147s7.132,13.363,11.907,19.773a51.845,51.845,0,0,0,8.2,8.957,25.517,25.517,0,0,0,10.872,5.71,18.737,18.737,0,0,0,6.158.207,19.961,19.961,0,0,0,5.85-1.786,34.339,34.339,0,0,0,9.657-7.216c5.57-5.727,9.467-12.49,13.318-18.754s7.569-12.316,12.047-17.164a57.571,57.571,0,0,1,14.348-11.3,49.561,49.561,0,0,1,14.141-5.223,46.6,46.6,0,0,1,11.353-.84,34.615,34.615,0,0,1,4.137.42,25.277,25.277,0,0,1,2.99.56l1.814.453a4,4,0,0,1,.61.174Z" transform="translate(-253.379 -124.859)" fill="#263238"/>
      <path id="Trazado_124147" data-name="Trazado 124147" d="M301.767,266.394c-.162,0-.3-22.886-.3-51.112s.134-51.112.3-51.112.3,22.88.3,51.112S301.918,266.394,301.767,266.394Z" transform="translate(-243.814 -105.659)" fill="#263238"/>
      <path id="Trazado_124148" data-name="Trazado 124148" d="M502.58,346.537c0,.162-43.107.291-96.29.291S310,346.7,310,346.537s43.107-.3,96.29-.3S502.58,346.374,502.58,346.537Z" transform="translate(-247.568 -183.608)" fill="#263238"/>
      <path id="Trazado_124149" data-name="Trazado 124149" d="M326.035,357.817a48.052,48.052,0,0,1-10.665,0,48.066,48.066,0,0,1,10.665,0Z" transform="translate(-249.932 -188.33)" fill="#263238"/>
      <path id="Trazado_124150" data-name="Trazado 124150" d="M355.977,358.391c0,.168-2.855.3-6.371.3s-6.376-.129-6.376-.3,2.855-.291,6.376-.291A34.911,34.911,0,0,1,355.977,358.391Z" transform="translate(-262.195 -188.573)" fill="#263238"/>
      <path id="Trazado_124151" data-name="Trazado 124151" d="M382.977,358.391c0,.168-2.855.3-6.371.3s-6.376-.129-6.376-.3,2.855-.291,6.376-.291A34.911,34.911,0,0,1,382.977,358.391Z" transform="translate(-274.08 -188.573)" fill="#263238"/>
      <path id="Trazado_124152" data-name="Trazado 124152" d="M409.9,358.391c0,.168-2.855.3-6.371.3s-6.376-.129-6.376-.3,2.855-.291,6.376-.291A34.911,34.911,0,0,1,409.9,358.391Z" transform="translate(-285.93 -188.573)" fill="#263238"/>
      <path id="Trazado_124153" data-name="Trazado 124153" d="M436.847,358.391c0,.168-2.849.3-6.371.3s-6.376-.129-6.376-.3,2.855-.291,6.376-.291A34.911,34.911,0,0,1,436.847,358.391Z" transform="translate(-297.792 -188.573)" fill="#263238"/>
      <path id="Trazado_124154" data-name="Trazado 124154" d="M463.807,358.391c0,.168-2.855.3-6.376.3s-6.371-.129-6.371-.3,2.85-.291,6.371-.291A35,35,0,0,1,463.807,358.391Z" transform="translate(-309.66 -188.573)" fill="#263238"/>
      <path id="Trazado_124155" data-name="Trazado 124155" d="M490.757,358.391c0,.168-2.855.3-6.376.3s-6.371-.129-6.371-.3,2.849-.291,6.371-.291A35,35,0,0,1,490.757,358.391Z" transform="translate(-321.522 -188.573)" fill="#263238"/>
      <path id="Trazado_124156" data-name="Trazado 124156" d="M517.707,358.391c0,.168-2.855.3-6.376.3s-6.371-.129-6.371-.3,2.855-.291,6.371-.291A35.05,35.05,0,0,1,517.707,358.391Z" transform="translate(-333.385 -188.573)" fill="#263238"/>
      <path id="Trazado_124157" data-name="Trazado 124157" d="M544.657,358.391c0,.168-2.855.3-6.371.3s-6.376-.129-6.376-.3,2.855-.291,6.376-.291A34.912,34.912,0,0,1,544.657,358.391Z" transform="translate(-345.248 -188.573)" fill="#263238"/>
      <path id="Trazado_124158" data-name="Trazado 124158" d="M571.607,358.391c0,.168-2.855.3-6.371.3s-6.376-.129-6.376-.3,2.855-.291,6.376-.291A34.911,34.911,0,0,1,571.607,358.391Z" transform="translate(-357.111 -188.573)" fill="#263238"/>
      <path id="Trazado_124159" data-name="Trazado 124159" d="M596.677,358.4c0,.168-2.855.3-6.376.3s-6.371-.129-6.371-.3,2.855-.291,6.371-.291A35.054,35.054,0,0,1,596.677,358.4Z" transform="translate(-368.146 -188.578)" fill="#263238"/>
      <path id="Trazado_124160" data-name="Trazado 124160" d="M621.747,358.411a68.609,68.609,0,0,1-12.747,0,69.92,69.92,0,0,1,12.747,0Z" transform="translate(-379.181 -188.582)" fill="#263238"/>
      <path id="Trazado_124161" data-name="Trazado 124161" d="M646.807,358.417a68.594,68.594,0,0,1-12.747,0,68.608,68.608,0,0,1,12.747,0Z" transform="translate(-390.212 -188.582)" fill="#263238"/>
      <path id="Trazado_124162" data-name="Trazado 124162" d="M430.782,259.9c0-.123.884.185,1.164,1.388a2.956,2.956,0,0,1-.224,2.071,1.792,1.792,0,0,1-1.047.885,1.926,1.926,0,0,1-1.461-.174,2.446,2.446,0,0,1-1.248-2.29,2.564,2.564,0,0,1,1-1.853,1.64,1.64,0,0,1,1.372-.336c.336.1.448.263.425.3a1.6,1.6,0,0,0-1.433.476,2.11,2.11,0,0,0-.627,1.444,1.78,1.78,0,0,0,.89,1.556,1.064,1.064,0,0,0,1.489-.381,2.62,2.62,0,0,0,.3-1.6A3.492,3.492,0,0,0,430.782,259.9Z" transform="translate(-299.492 -147.237)" fill="#263238"/>
      <path id="Trazado_124163" data-name="Trazado 124163" d="M599.93,212.8c0-.045.229-.118.627,0a2.418,2.418,0,0,1,1.282,1.12,3.185,3.185,0,0,1,.313,2.519A2.648,2.648,0,0,1,599.7,218.4a2.094,2.094,0,0,1-1.562-.812,3.36,3.36,0,0,1-.661-1.4,3.191,3.191,0,0,1,.4-2.5c.885-1.248,1.976-1.187,1.937-1.12.05.118-.862.291-1.45,1.383a2.8,2.8,0,0,0-.174,2.032c.19.739.761,1.584,1.534,1.59a1.976,1.976,0,0,0,1.73-1.394,2.754,2.754,0,0,0-.117-2.021,2.9,2.9,0,0,0-1.405-1.36Z" transform="translate(-374.064 -127.552)" fill="#263238"/>
      <rect id="Rectángulo_30157" data-name="Rectángulo 30157" width="144.216" height="112.239" transform="translate(0.112 0.19)" fill="#fff"/>
      <path id="Trazado_124164" data-name="Trazado 124164" d="M342.808,178.9c0-1.12-.05-44.506-.134-112.239l.134.134h-144.2l.162-.162V178.872l-.146-.146,144.216.146-144.216.146h-.146V66.47H342.993V66.6C342.864,134.394,342.814,177.78,342.808,178.9Z" transform="translate(-198.48 -66.47)" fill="#263238"/>
      <rect id="Rectángulo_30158" data-name="Rectángulo 30158" width="23.345" height="1.299" transform="translate(7.149 14.936)" fill="#263238"/>
      <rect id="Rectángulo_30159" data-name="Rectángulo 30159" width="11.538" height="1.299" transform="translate(7.149 17.976)" fill="#263238"/>
      <rect id="Rectángulo_30160" data-name="Rectángulo 30160" width="4.227" height="1.22" transform="translate(20.456 100.007)" fill="#263238"/>
      <rect id="Rectángulo_30161" data-name="Rectángulo 30161" width="5.408" height="1.22" transform="translate(30.023 106.774)" fill="#263238"/>
      <rect id="Rectángulo_30162" data-name="Rectángulo 30162" width="5.408" height="1.22" transform="translate(48.85 106.774)" fill="#263238"/>
      <rect id="Rectángulo_30163" data-name="Rectángulo 30163" width="5.408" height="1.22" transform="translate(67.677 106.774)" fill="#263238"/>
      <rect id="Rectángulo_30164" data-name="Rectángulo 30164" width="5.408" height="1.22" transform="translate(86.504 106.774)" fill="#263238"/>
      <rect id="Rectángulo_30165" data-name="Rectángulo 30165" width="5.408" height="1.22" transform="translate(105.331 106.774)" fill="#263238"/>
      <rect id="Rectángulo_30166" data-name="Rectángulo 30166" width="5.408" height="1.22" transform="translate(124.158 106.774)" fill="#263238"/>
      <rect id="Rectángulo_30167" data-name="Rectángulo 30167" width="4.227" height="1.22" transform="translate(20.456 83.106)" fill="#263238"/>
      <rect id="Rectángulo_30168" data-name="Rectángulo 30168" width="4.227" height="1.22" transform="translate(20.456 51.294)" fill="#263238"/>
      <rect id="Rectángulo_30169" data-name="Rectángulo 30169" width="4.227" height="1.22" transform="translate(20.456 33.998)" fill="#263238"/>
      <rect id="Rectángulo_30170" data-name="Rectángulo 30170" width="4.227" height="1.22" transform="translate(20.674 67.2)" fill="#263238"/>
      <path id="Trazado_124165" data-name="Trazado 124165" d="M348.926,183.17H347.14l-5.117.028-18.816.05-62.09.039H246.26v-.146c0-20.764.039-39.037.05-52.125,0-6.539.034-11.756.045-15.4v0c0,3.616,0,8.856.045,15.4,0,13.089.028,31.35.05,52.125L246.3,183h14.813l62.09.045,18.816.045,5.117.028h1.332Z" transform="translate(-219.512 -85.648)" fill="#263238"/>
      <path id="Trazado_124166" data-name="Trazado 124166" d="M353.429,183.036c0,.078-22.3.146-49.824.146s-49.824-.067-49.824-.146,22.3-.146,49.824-.146S353.429,182.952,353.429,183.036Z" transform="translate(-222.822 -115.218)" fill="#263238"/>
      <path id="Trazado_124167" data-name="Trazado 124167" d="M353.429,155.676c0,.078-22.3.146-49.824.146s-49.824-.067-49.824-.146,22.3-.146,49.824-.146S353.429,155.6,353.429,155.676Z" transform="translate(-222.822 -103.761)" fill="#263238"/>
      <path id="Trazado_124168" data-name="Trazado 124168" d="M353.429,128.176c0,.084-22.3.146-49.824.146s-49.824-.062-49.824-.146,22.3-.146,49.824-.146S353.429,128.1,353.429,128.176Z" transform="translate(-222.822 -93.567)" fill="#263238"/>
      <path id="Trazado_124169" data-name="Trazado 124169" d="M353.429,210.4c0,.078-22.3.146-49.824.146s-49.824-.067-49.824-.146,22.3-.146,49.824-.146S353.429,210.317,353.429,210.4Z" transform="translate(-222.822 -126.674)" fill="#263238"/>
      <path id="Trazado_124170" data-name="Trazado 124170" d="M255.66,180.784V167.2l8.47-13.161,5.749,4.411,11.8-18.323,6.959,4.9,9.679-16.907,7.838,6.41,11.84-22.415L330.7,137.173l10.245-12.54,12.1-3.465v59.616Z" transform="translate(-223.649 -86.56)" fill="#c1507f"/>
      <path id="Trazado_124171" data-name="Trazado 124171" d="M354.274,119.608a1.562,1.562,0,0,1-.213,0h-3.085l-9.287.039.062-.034L331.8,132.669l-.039.045H306.79l.123-.067L296.438,150.08c-3.566,5.934-7.02,11.672-10.284,17.091l-.106.185-.123-.174-13.5-18.547h.2l-12.271,19.191-3.421,5.307c-.392.6-.694,1.069-.907,1.388s-.319.47-.319.47.1-.168.291-.487l.873-1.405c.778-1.237,1.915-3.045,3.359-5.346l12.2-19.241.1-.146.106.14,13.531,18.525h-.235l10.25-17.086,10.486-17.433.039-.067h.112l24.912.028-.09.045,10.015-12.954v-.034h.039l9.287.039h3.085Z" transform="translate(-223.667 -89.826)" fill="#263238"/>
      <path id="Trazado_124172" data-name="Trazado 124172" d="M291.5,178.468a.957.957,0,1,1-.957-.918A.941.941,0,0,1,291.5,178.468Z" transform="translate(-238.581 -112.964)" fill="#263238"/>
      <path id="Trazado_124173" data-name="Trazado 124173" d="M342.855,149.278a.957.957,0,1,1-.952-.918A.935.935,0,0,1,342.855,149.278Z" transform="translate(-261.188 -100.746)" fill="#263238"/>
      <ellipse id="Elipse_4223" data-name="Elipse 4223" cx="0.957" cy="0.918" rx="0.957" ry="0.918" transform="translate(102.095 41.841)" fill="#263238"/>
      <path id="Trazado_124174" data-name="Trazado 124174" d="M207.689,74.18a1.12,1.12,0,1,1-1.12-1.12A1.12,1.12,0,0,1,207.689,74.18Z" transform="translate(-201.548 -69.371)" fill="#263238"/>
      <path id="Trazado_124175" data-name="Trazado 124175" d="M213.449,74.18a1.12,1.12,0,1,1-1.12-1.12A1.12,1.12,0,0,1,213.449,74.18Z" transform="translate(-204.083 -69.371)" fill="#263238"/>
      <path id="Trazado_124176" data-name="Trazado 124176" d="M219.239,74.18a1.12,1.12,0,1,1-1.12-1.12A1.12,1.12,0,0,1,219.239,74.18Z" transform="translate(-206.632 -69.371)" fill="#263238"/>
      <path id="Trazado_124177" data-name="Trazado 124177" d="M342.92,82.756c0,.078-32.224.146-71.965.146S199,82.828,199,82.756s32.218-.146,71.971-.146S342.92,82.672,342.92,82.756Z" transform="translate(-198.709 -73.574)" fill="#263238"/>
    </g>
    <g id="freepik--Character--inject-178" transform="translate(145.059 147.291)">
      <path id="Trazado_124178" data-name="Trazado 124178" d="M244.313,462.37l-.963,4.053s-6.634,8.616-8.677,8.19c-1.344-.274.308-2.519,2.8-9.063l.56-2.7Z" transform="translate(-233.144 -287.037)" fill="#455a64"/>
      <path id="Trazado_124179" data-name="Trazado 124179" d="M234.568,475.794a.818.818,0,0,0,.353.342,1.232,1.232,0,0,0,1.271-.179,37.991,37.991,0,0,0,3.3-3.124c1.226-1.288,2.239-2.53,2.984-3.443l.845-1.092c.084-.106.162-.2.23-.3a.677.677,0,0,1,.09-.1.69.69,0,0,1-.09.1l-.213.313c-.185.269-.465.649-.817,1.12a42.259,42.259,0,0,1-2.967,3.471,32.674,32.674,0,0,1-3.359,3.118,1.539,1.539,0,0,1-.75.274,1.119,1.119,0,0,1-.588-.129.706.706,0,0,1-.28-.257.376.376,0,0,1-.006-.118Z" transform="translate(-233.309 -289.471)" fill="#263238"/>
      <path id="Trazado_124180" data-name="Trazado 124180" d="M236.24,476.941a1.052,1.052,0,0,1,.56-.062,2.844,2.844,0,0,1,1.248.431,2.279,2.279,0,0,1,.907.963,1.165,1.165,0,0,1,.146.532,3.024,3.024,0,0,0-.218-.493,2.429,2.429,0,0,0-.9-.9,3.089,3.089,0,0,0-1.2-.453A5.26,5.26,0,0,0,236.24,476.941Z" transform="translate(-234.046 -293.418)" fill="#263238"/>
      <path id="Trazado_124181" data-name="Trazado 124181" d="M247.267,470.213a.6.6,0,0,1-.084-.2,4.412,4.412,0,0,1-.129-.56,3.051,3.051,0,0,1,.308-1.847,2.872,2.872,0,0,1,1.344-1.3,1.943,1.943,0,0,1,.56-.168.641.641,0,0,1,.207,0,4.481,4.481,0,0,0-.722.258,2.939,2.939,0,0,0-1.271,1.282,3.174,3.174,0,0,0-.33,1.78C247.194,469.922,247.284,470.208,247.267,470.213Z" transform="translate(-238.791 -288.694)" fill="#263238"/>
      <path id="Trazado_124182" data-name="Trazado 124182" d="M251.053,463.6s-.123.56-.246,1.293a4.441,4.441,0,0,1-.347,1.276s.106-.56.23-1.3a4.2,4.2,0,0,1,.364-1.271Z" transform="translate(-240.305 -287.579)" fill="#263238"/>
      <path id="Trazado_124183" data-name="Trazado 124183" d="M239.89,469.024a1.591,1.591,0,0,1,.851,0,1.489,1.489,0,0,1,.767.364c0,.034-.347-.146-.795-.246S239.9,469.064,239.89,469.024Z" transform="translate(-235.652 -289.941)" fill="#263238"/>
      <path id="Trazado_124184" data-name="Trazado 124184" d="M239.65,470.261a1.07,1.07,0,0,1,.717,0,1.013,1.013,0,0,1,.627.347c0,.028-.286-.146-.655-.23S239.656,470.3,239.65,470.261Z" transform="translate(-235.546 -290.484)" fill="#263238"/>
      <path id="Trazado_124185" data-name="Trazado 124185" d="M238.7,471.764a.913.913,0,0,1,.745-.1.89.89,0,0,1,.627.409,2.883,2.883,0,0,0-.655-.291,2.918,2.918,0,0,0-.717-.022Z" transform="translate(-235.128 -291.113)" fill="#263238"/>
      <path id="Trazado_124186" data-name="Trazado 124186" d="M240.71,467.238a7.8,7.8,0,0,0,.778-.263,6.369,6.369,0,0,0,.8-.386c.14-.084.291-.179.437-.28a.542.542,0,0,0,.28-.4c-.006-.157-.2-.246-.353-.207a.963.963,0,0,0-.409.274c-.246.23-.453.448-.621.638a5.588,5.588,0,0,1-.56.621.812.812,0,0,1,.112-.19c.078-.118.2-.285.364-.487a8.658,8.658,0,0,1,.61-.661,1.042,1.042,0,0,1,.459-.308.386.386,0,0,1,.5.313.666.666,0,0,1-.325.5,4.588,4.588,0,0,1-.459.28,5.045,5.045,0,0,1-.823.369,4.484,4.484,0,0,1-.588.162C240.788,467.243,240.71,467.249,240.71,467.238Z" transform="translate(-236.013 -288.445)" fill="#263238"/>
      <path id="Trazado_124187" data-name="Trazado 124187" d="M240.381,466.7a7.277,7.277,0,0,1-.123-.739,3.2,3.2,0,0,0-.224-.767,1.679,1.679,0,0,0-.246-.392c-.1-.112-.258-.213-.381-.14s-.14.258-.123.409a1.918,1.918,0,0,0,.129.442,2.688,2.688,0,0,0,.431.666,5.618,5.618,0,0,0,.56.521c0,.017-.067,0-.174-.1a3.057,3.057,0,0,1-.425-.358,2.559,2.559,0,0,1-.47-.683,2.054,2.054,0,0,1-.146-.476.5.5,0,0,1,.185-.521.437.437,0,0,1,.521.162,1.719,1.719,0,0,1,.263.426,2.967,2.967,0,0,1,.207.8c.028.23.039.42.045.56A.711.711,0,0,1,240.381,466.7Z" transform="translate(-235.337 -287.986)" fill="#263238"/>
      <path id="Trazado_124188" data-name="Trazado 124188" d="M300.967,461.381l.028-5.408-10.1-.123-.14,7.922.627.05c2.8.19,14.214.761,16.089.218C309.56,463.424,300.967,461.381,300.967,461.381Z" transform="translate(-258.039 -284.167)" fill="#455a64"/>
      <path id="Trazado_124189" data-name="Trazado 124189" d="M290.5,469.57h.174l.5.039,1.836.1c1.556.078,3.706.151,6.08.185s4.523,0,6.08,0l1.842-.05H299.1c-2.374,0-4.518-.1-6.074-.146l-1.842-.067h-.5Z" transform="translate(-257.929 -290.206)" fill="#263238"/>
      <path id="Trazado_124190" data-name="Trazado 124190" d="M314.864,469.138a4.48,4.48,0,0,1,.353-.873,4.306,4.306,0,0,1,.638-.694,1.332,1.332,0,0,0-.739.627A1.355,1.355,0,0,0,314.864,469.138Z" transform="translate(-268.651 -289.326)" fill="#263238"/>
      <path id="Trazado_124191" data-name="Trazado 124191" d="M309.565,466.938a1.308,1.308,0,0,0,.319-.386c.146-.23.252-.431.224-.453s-.174.157-.325.386S309.531,466.916,309.565,466.938Z" transform="translate(-266.319 -288.678)" fill="#263238"/>
      <path id="Trazado_124192" data-name="Trazado 124192" d="M308.108,466.356c0,.028.185-.078.358-.229s.3-.3.28-.33-.185.084-.358.235S308.086,466.334,308.108,466.356Z" transform="translate(-265.679 -288.544)" fill="#263238"/>
      <path id="Trazado_124193" data-name="Trazado 124193" d="M307.21,465.036a1.209,1.209,0,0,0,.526.078,1.237,1.237,0,0,0,.56-.05,1.2,1.2,0,0,0-.56-.073A1.232,1.232,0,0,0,307.21,465.036Z" transform="translate(-265.285 -288.186)" fill="#263238"/>
      <path id="Trazado_124194" data-name="Trazado 124194" d="M306.9,463.88a1.12,1.12,0,0,0,.588.179,1.013,1.013,0,0,0,.61-.078,3.458,3.458,0,0,0-.582-.034A3.164,3.164,0,0,0,306.9,463.88Z" transform="translate(-265.148 -287.702)" fill="#263238"/>
      <path id="Trazado_124195" data-name="Trazado 124195" d="M310.2,465.3a1.979,1.979,0,0,0,.649,0,3.357,3.357,0,0,0,.694-.14,1.8,1.8,0,0,0,.4-.162.348.348,0,0,0,.168-.2.258.258,0,0,0-.1-.263,1.2,1.2,0,0,0-1.484.33,1.147,1.147,0,0,0-.218.431.348.348,0,0,0,0,.174,1.82,1.82,0,0,1,.3-.56,1.175,1.175,0,0,1,.56-.353.991.991,0,0,1,.778.062c.1.078.062.2-.056.263a1.683,1.683,0,0,1-.369.151,4.35,4.35,0,0,1-.672.168A3.206,3.206,0,0,1,310.2,465.3Z" transform="translate(-266.601 -287.935)" fill="#263238"/>
      <path id="Trazado_124196" data-name="Trazado 124196" d="M309.824,465.091a.633.633,0,0,0,.078-.453,1.042,1.042,0,0,0-.168-.476.661.661,0,0,0-.56-.341.269.269,0,0,0-.207.3.75.75,0,0,0,.106.291,1.993,1.993,0,0,0,.3.4.975.975,0,0,0,.369.269,3.384,3.384,0,0,1-.3-.33,2.073,2.073,0,0,1-.269-.392c-.09-.14-.146-.386,0-.414s.33.151.426.28a1.086,1.086,0,0,1,.179.425A2.754,2.754,0,0,1,309.824,465.091Z" transform="translate(-266.057 -287.675)" fill="#263238"/>
      <path id="Trazado_124197" data-name="Trazado 124197" d="M290.94,464.561s.286,0,.745.034a3.174,3.174,0,0,1,2.626,2.15c.151.437.162.728.185.728a.655.655,0,0,0,0-.207,2.4,2.4,0,0,0-.1-.56,3.073,3.073,0,0,0-2.7-2.206,2.968,2.968,0,0,0-.56,0A.561.561,0,0,0,290.94,464.561Z" transform="translate(-258.123 -287.969)" fill="#263238"/>
      <path id="Trazado_124198" data-name="Trazado 124198" d="M292.794,457.12a16.907,16.907,0,0,0-.118,2.077,17.711,17.711,0,0,0,0,2.083,17.809,17.809,0,0,0,.112-2.083,18.449,18.449,0,0,0,.006-2.077Z" transform="translate(-258.874 -284.726)" fill="#263238"/>
      <path id="Trazado_124199" data-name="Trazado 124199" d="M299.61,468.183a6.029,6.029,0,0,0,1.478.162,5.479,5.479,0,0,0,1.484-.1c0-.034-.666,0-1.478,0S299.616,468.144,299.61,468.183Z" transform="translate(-261.939 -289.592)" fill="#263238"/>
      <path id="Trazado_124200" data-name="Trazado 124200" d="M296.065,468.136c-.028,0,.05.14.118.291s.1.286.134.286.056-.157,0-.336S296.088,468.108,296.065,468.136Z" transform="translate(-260.377 -289.573)" fill="#263238"/>
      <path id="Trazado_124201" data-name="Trazado 124201" d="M294.75,466.455a.632.632,0,0,0,.146.235c.106.106.207.174.23.151s-.039-.129-.14-.235S294.778,466.427,294.75,466.455Z" transform="translate(-259.8 -288.833)" fill="#263238"/>
      <path id="Trazado_124202" data-name="Trazado 124202" d="M292.85,465.625c0,.034.14.034.291.09s.252.134.28.112-.056-.162-.241-.23S292.838,465.6,292.85,465.625Z" transform="translate(-258.963 -288.445)" fill="#263238"/>
      <path id="Trazado_124203" data-name="Trazado 124203" d="M291.49,465.28c0,.028.045.084.129.118s.162.034.174,0-.045-.084-.123-.118S291.507,465.247,291.49,465.28Z" transform="translate(-258.365 -288.307)" fill="#263238"/>
      <path id="Trazado_124204" data-name="Trazado 124204" d="M282.094,280.76l-3.885,101.5-15.776.33,2.62-87.943-17.735,88.615h-15l19.32-102.3Z" transform="translate(-232.32 -207.097)" fill="#263238"/>
      <path id="Trazado_124205" data-name="Trazado 124205" d="M294.216,287.36a9.959,9.959,0,0,1-.179,1.679c-.146,1.024-.369,2.446-.633,4a17.232,17.232,0,0,1-.448,2.206,3.146,3.146,0,0,1-1.03,1.551,2.418,2.418,0,0,1-1.148.509.923.923,0,0,1-.459,0,3.006,3.006,0,0,0,1.478-.655,3.057,3.057,0,0,0,.913-1.478,19.745,19.745,0,0,0,.42-2.172c.263-1.562.515-2.973.711-3.992a10.633,10.633,0,0,1,.375-1.651Z" transform="translate(-257.85 -210.002)" fill="#455a64"/>
      <path id="Trazado_124206" data-name="Trazado 124206" d="M291.262,288.013a.918.918,0,0,0,0,.453.56.56,0,0,0,.263.341.476.476,0,0,0,.621-.56.521.521,0,0,0-.3-.3c-.258-.112-.437,0-.453-.039s.146-.23.515-.151a.711.711,0,0,1,.481.4.718.718,0,0,1-.985.868.705.705,0,0,1-.336-.532C291.027,288.125,291.251,287.979,291.262,288.013Z" transform="translate(-258.177 -210.168)" fill="#455a64"/>
      <path id="Trazado_124207" data-name="Trazado 124207" d="M276.118,288.619a2.973,2.973,0,0,1,.3-2.8c.073.034-.157.633-.23,1.4A12.471,12.471,0,0,1,276.118,288.619Z" transform="translate(-251.503 -209.324)" fill="#455a64"/>
      <path id="Trazado_124208" data-name="Trazado 124208" d="M279.475,288.289a2.447,2.447,0,0,1-.23-1.489,2.508,2.508,0,0,1,.437-1.45c.073,0-.106.666-.157,1.467A14,14,0,0,1,279.475,288.289Z" transform="translate(-252.962 -209.117)" fill="#455a64"/>
      <path id="Trazado_124209" data-name="Trazado 124209" d="M308.8,288.941a8.637,8.637,0,0,1,.09-1.523,9.4,9.4,0,0,1,.067-1.528,2.849,2.849,0,0,1,.207,1.54A2.894,2.894,0,0,1,308.8,288.941Z" transform="translate(-265.982 -209.355)" fill="#455a64"/>
      <path id="Trazado_124210" data-name="Trazado 124210" d="M312.468,288.693c-.078-.034.168-.7.224-1.551s-.09-1.54,0-1.562a3.292,3.292,0,0,1-.213,3.113Z" transform="translate(-267.592 -209.218)" fill="#455a64"/>
      <path id="Trazado_124211" data-name="Trazado 124211" d="M280.746,185.279l9.741-.778c.062-1.12,0-5.531,0-5.531s4.053-.633,4.1-4.68-.655-13.352-.655-13.352h0a14.08,14.08,0,0,0-14.186,1.763l-.6.465Z" transform="translate(-252.933 -153.843)" fill="#ffbe9d"/>
      <path id="Trazado_124212" data-name="Trazado 124212" d="M295.189,192.82a9.371,9.371,0,0,1-5.279-1.5s1.248,2.917,5.29,2.553Z" transform="translate(-257.67 -167.728)" fill="#eb996e"/>
      <path id="Trazado_124213" data-name="Trazado 124213" d="M301.759,172.779a.56.56,0,1,1-.191-.385.56.56,0,0,1,.191.385Z" transform="translate(-262.375 -159.337)" fill="#263238"/>
      <path id="Trazado_124214" data-name="Trazado 124214" d="M302.321,171.52c-.073.073-.509-.252-1.12-.252s-1.08.313-1.148.241.039-.174.241-.319a1.624,1.624,0,0,1,.918-.28,1.523,1.523,0,0,1,.9.291C302.293,171.363,302.355,171.52,302.321,171.52Z" transform="translate(-262.126 -158.744)" fill="#263238"/>
      <path id="Trazado_124215" data-name="Trazado 124215" d="M290.529,173.04a.56.56,0,1,1-.191-.385.56.56,0,0,1,.191.385Z" transform="translate(-257.432 -159.451)" fill="#263238"/>
      <path id="Trazado_124216" data-name="Trazado 124216" d="M291.392,171.754c-.073.078-.509-.246-1.12-.246s-1.08.313-1.148.235.039-.168.241-.313a1.54,1.54,0,0,1,.918-.28,1.523,1.523,0,0,1,.9.291C291.364,171.586,291.431,171.721,291.392,171.754Z" transform="translate(-257.315 -158.849)" fill="#263238"/>
      <path id="Trazado_124217" data-name="Trazado 124217" d="M297.006,176.4a4.284,4.284,0,0,1,1.008-.185c.162,0,.314-.045.336-.157a.789.789,0,0,0-.106-.47q-.218-.56-.47-1.209a20.769,20.769,0,0,1-1.052-3.163,21.113,21.113,0,0,1,1.31,3.073c.157.42.3.829.448,1.215a.924.924,0,0,1,.078.627.4.4,0,0,1-.263.235,1,1,0,0,1-.269.039,4.109,4.109,0,0,1-1.019-.006Z" transform="translate(-260.667 -158.88)" fill="#263238"/>
      <path id="Trazado_124218" data-name="Trazado 124218" d="M293.9,181.25c.1,0,.1.666.677,1.148s1.3.409,1.3.5-.162.134-.465.14a1.68,1.68,0,0,1-1.086-.375,1.506,1.506,0,0,1-.56-.969C293.751,181.412,293.824,181.244,293.9,181.25Z" transform="translate(-259.367 -163.295)" fill="#263238"/>
      <path id="Trazado_124219" data-name="Trazado 124219" d="M291.246,167.511c-.062.168-.683.084-1.411.174s-1.321.291-1.422.134c-.039-.073.062-.23.3-.392a2.48,2.48,0,0,1,2.161-.241C291.14,167.293,291.274,167.427,291.246,167.511Z" transform="translate(-257.007 -157.041)" fill="#263238"/>
      <path id="Trazado_124220" data-name="Trazado 124220" d="M302.024,168.311c-.106.14-.56,0-1.052,0s-.952.1-1.052-.056,0-.213.218-.347a1.433,1.433,0,0,1,.857-.23,1.5,1.5,0,0,1,.84.28C302.013,168.093,302.075,168.238,302.024,168.311Z" transform="translate(-262.058 -157.32)" fill="#263238"/>
      <path id="Trazado_124221" data-name="Trazado 124221" d="M277.88,173.24c-.067-.028-2.8-.823-2.693,1.948a2.088,2.088,0,0,0,2.855,2.032C278.048,177.142,277.88,173.24,277.88,173.24Z" transform="translate(-251.188 -159.714)" fill="#ffbe9d"/>
      <path id="Trazado_124222" data-name="Trazado 124222" d="M277.77,176.892a.882.882,0,0,1-.123.073.482.482,0,0,1-.364,0,1.193,1.193,0,0,1-.56-1.052,1.58,1.58,0,0,1,.112-.7.56.56,0,0,1,.347-.381.252.252,0,0,1,.291.123c.039.078,0,.134.039.14s.056-.05.034-.162a.33.33,0,0,0-.118-.174.386.386,0,0,0-.269-.062.672.672,0,0,0-.487.448,1.6,1.6,0,0,0-.146.778,1.243,1.243,0,0,0,.745,1.17.515.515,0,0,0,.437-.084C277.77,176.959,277.781,176.9,277.77,176.892Z" transform="translate(-251.778 -160.409)" fill="#eb996e"/>
      <path id="Trazado_124223" data-name="Trazado 124223" d="M292.988,152.773a4.283,4.283,0,0,0-6.651-1.282,4.193,4.193,0,0,0-6.891-.9c-.778.885-1.181,2.077-2.088,2.8-.789.644-1.853.857-2.648,1.489a3.057,3.057,0,0,0,1.092,5.33,3.286,3.286,0,0,0,1.618,4.479l.4-.168a5.766,5.766,0,0,0,.84-6.36,1.266,1.266,0,0,0,.146,0,3.225,3.225,0,0,0,4.21-.963,3.589,3.589,0,0,0,3.863.162,1.478,1.478,0,0,1,.56-.263,1.377,1.377,0,0,1,.722.218,3.4,3.4,0,0,0,1.965.392,1.881,1.881,0,0,0,1.467-1.052h.05a2.172,2.172,0,0,0,1.618-1.568A3.219,3.219,0,0,0,292.988,152.773Z" transform="translate(-250.475 -149.177)" fill="#263238"/>
      <path id="Trazado_124224" data-name="Trazado 124224" d="M287.82,221.452l.358-18.25c-3.241-3.185-4.971-4.137-9.483-4.669l-1.226-.14-.386-3.006-11.062-.627.56,3.572h0a26.811,26.811,0,0,0-4.294.823c-4.3.823-7.4,3.952-8.252,6.847-.711,2.379-5.251,20.019-5.251,20.019l-.924,5.324,10.155-3.684v17.92h30.79C288.912,242.222,287.82,221.452,287.82,221.452Z" transform="translate(-239.16 -169.242)" fill="#f5ca56"/>
      <g id="Grupo_55336" data-name="Grupo 55336" transform="translate(8.7 25.518)" opacity="0.2">
        <path id="Trazado_124225" data-name="Trazado 124225" d="M287.82,221.452l.358-18.25c-3.241-3.185-4.971-4.137-9.483-4.669l-1.226-.14-.386-3.006-11.062-.627.56,3.572h0a26.811,26.811,0,0,0-4.294.823c-4.3.823-7.4,3.952-8.252,6.847-.711,2.379-5.251,20.019-5.251,20.019l-.924,5.324,10.155-3.684v17.92h30.79C288.912,242.222,287.82,221.452,287.82,221.452Z" transform="translate(-247.86 -194.76)"/>
      </g>
      <path id="Trazado_124226" data-name="Trazado 124226" d="M252.467,249.355l15.188-2.155,2.889,5.173-14.119,6.365a6.158,6.158,0,0,1-2.508.56h0a6.1,6.1,0,0,1-5.637-3.812l-.459-1.12Z" transform="translate(-239.143 -192.325)" fill="#f5ca56"/>
      <g id="Grupo_55337" data-name="Grupo 55337" transform="translate(8.677 54.875)" opacity="0.2">
        <path id="Trazado_124227" data-name="Trazado 124227" d="M252.467,249.355l15.188-2.155,2.889,5.173-14.119,6.365a6.158,6.158,0,0,1-2.508.56h0a6.1,6.1,0,0,1-5.637-3.812l-.459-1.12Z" transform="translate(-247.82 -247.2)"/>
      </g>
      <path id="Trazado_124228" data-name="Trazado 124228" d="M309.724,203.49a11.2,11.2,0,0,1,6.1,5.6c1.176,2.7,2.905,15.675,2.905,15.675l2.178,4.2a7.06,7.06,0,0,1,.795,3.264v.644a7.082,7.082,0,0,1-1.59,4.479h0a7.082,7.082,0,0,1-4.87,2.586c-2.178.2-4.809.28-5.369-.358a26.647,26.647,0,0,1-2.48-4.182l6.343-3.359L311,227Z" transform="translate(-265.364 -173.084)" fill="#f5ca56"/>
      <g id="Grupo_55338" data-name="Grupo 55338" transform="translate(42.026 30.406)" opacity="0.2">
        <path id="Trazado_124229" data-name="Trazado 124229" d="M309.724,203.49a11.2,11.2,0,0,1,6.1,5.6c1.176,2.7,2.905,15.675,2.905,15.675l2.178,4.2a7.06,7.06,0,0,1,.795,3.264v.644a7.082,7.082,0,0,1-1.59,4.479h0a7.082,7.082,0,0,1-4.87,2.586c-2.178.2-4.809.28-5.369-.358a26.647,26.647,0,0,1-2.48-4.182l6.343-3.359L311,227Z" transform="translate(-307.39 -203.49)"/>
      </g>
      <path id="Trazado_124230" data-name="Trazado 124230" d="M260.784,258.2a2.029,2.029,0,0,1,.246-.14l.728-.353,2.726-1.276,9.3-4.249-.062.2-1.78-3.191-1.12-1.982.134.067-11.129,1.092-3.3.3-.9.067a1.024,1.024,0,0,1-.313,0,1.787,1.787,0,0,1,.308-.056l.89-.112,3.3-.381L270.945,247h.09l.045.078,1.12,1.982,1.775,3.191.073.129-.134.062-9.343,4.159-2.76,1.2-.75.314A1.54,1.54,0,0,1,260.784,258.2Z" transform="translate(-242.444 -192.236)" fill="#263238"/>
      <path id="Trazado_124231" data-name="Trazado 124231" d="M269.79,238.836c-.078,0-.14-2.715-.14-6.063s.062-6.063.14-6.063.14,2.715.14,6.063S269.846,238.836,269.79,238.836Z" transform="translate(-248.752 -183.305)" fill="#263238"/>
      <path id="Trazado_124232" data-name="Trazado 124232" d="M313.69,255.548a2.29,2.29,0,0,1,.459-.073,4.3,4.3,0,0,1,1.282.073,1.512,1.512,0,0,1,.8.459,2.032,2.032,0,0,1,.42.963,2.239,2.239,0,0,1-.1,1.159,2.161,2.161,0,0,1-.767.985,5.709,5.709,0,0,1-2.2.784,10.129,10.129,0,0,1-1.887.185,3.4,3.4,0,0,1-1.707-.3,9.132,9.132,0,0,0,1.707.1,11.2,11.2,0,0,0,1.836-.241,5.677,5.677,0,0,0,2.088-.756,1.92,1.92,0,0,0,.778-1.875,1.893,1.893,0,0,0-.341-.862,1.372,1.372,0,0,0-.677-.414,5.241,5.241,0,0,0-1.232-.157A2,2,0,0,1,313.69,255.548Z" transform="translate(-266.508 -195.959)" fill="#263238"/>
      <path id="Trazado_124233" data-name="Trazado 124233" d="M316.188,266.415a3.163,3.163,0,0,1-1.12.129,6.883,6.883,0,0,1-2.626-.431,5.654,5.654,0,0,1-1.3-.7,3.057,3.057,0,0,1-.806-.907,2.4,2.4,0,0,1-.392-1.036c.045,0,.19.381.56.929a3.275,3.275,0,0,0,.795.812,5.965,5.965,0,0,0,1.254.638,8,8,0,0,0,2.525.5,7.837,7.837,0,0,1,1.114.067Z" transform="translate(-266.486 -199.486)" fill="#263238"/>
      <path id="Trazado_124234" data-name="Trazado 124234" d="M322.127,245.23a5.728,5.728,0,0,1-.75.9c-.487.532-1.176,1.26-1.948,2.049s-1.478,1.5-2,2a4.983,4.983,0,0,1-.885.773,4.854,4.854,0,0,1,.745-.907c.487-.56,1.176-1.265,1.943-2.055A26.1,26.1,0,0,1,322.127,245.23Z" transform="translate(-269.392 -191.457)" fill="#263238"/>
      <path id="Trazado_124235" data-name="Trazado 124235" d="M314.036,234.716a43.04,43.04,0,0,1,0-6.936,43.046,43.046,0,0,1,0,6.936Z" transform="translate(-268.22 -183.776)" fill="#263238"/>
      <path id="Trazado_124236" data-name="Trazado 124236" d="M294.193,207.576c0,.078-6.835.146-15.266.146s-15.266-.067-15.266-.146,6.835-.146,15.266-.146S294.193,207.492,294.193,207.576Z" transform="translate(-246.115 -174.819)" fill="#fafafa"/>
      <path id="Trazado_124237" data-name="Trazado 124237" d="M291.93,201.283a48.033,48.033,0,0,1-5.268.118,46.2,46.2,0,0,1-5.262-.179,97.158,97.158,0,0,1,10.53.062Z" transform="translate(-253.924 -172.025)" fill="#263238"/>
      <path id="Trazado_124238" data-name="Trazado 124238" d="M294.977,218.591c0,.078-8.3.146-18.536.146s-18.541-.067-18.541-.146,8.3-.151,18.541-.151S294.977,218.507,294.977,218.591Z" transform="translate(-243.58 -179.665)" fill="#fafafa"/>
      <path id="Trazado_124239" data-name="Trazado 124239" d="M294.672,229.886c0,.084-8.957.146-20.036.146s-20.036-.062-20.036-.146,8.957-.146,20.036-.146S294.672,229.824,294.672,229.886Z" transform="translate(-242.127 -184.639)" fill="#fafafa"/>
      <path id="Trazado_124240" data-name="Trazado 124240" d="M294.209,240.936c0,.078-9.467.146-21.145.146s-21.145-.067-21.145-.146,9.467-.146,21.145-.146S294.209,240.852,294.209,240.936Z" transform="translate(-240.947 -189.503)" fill="#fafafa"/>
      <path id="Trazado_124241" data-name="Trazado 124241" d="M295.6,258.886c0,.078-10.519.146-23.513.146s-23.513-.067-23.513-.146,10.519-.146,23.513-.146S295.6,258.8,295.6,258.886Z" transform="translate(-239.473 -197.404)" fill="#fafafa"/>
      <path id="Trazado_124242" data-name="Trazado 124242" d="M296.143,271.456c0,.078-6.942.146-15.5.146s-15.5-.067-15.5-.146,6.936-.146,15.5-.146S296.143,271.372,296.143,271.456Z" transform="translate(-246.767 -202.937)" fill="#fafafa"/>
      <path id="Trazado_124243" data-name="Trazado 124243" d="M297.035,241.372l-.33-.246a7.58,7.58,0,0,0-5.979-1.383h0a10.407,10.407,0,0,0-4.652,2.183l-2.6,2.144,2.766,4.96,1.887-2.637s1.758,2.385,2.071,2.133a4.04,4.04,0,0,0,.689-1l-1.254-1.758,3.012.627,4.395-2.01L295.148,242l1.887.627Z" transform="translate(-254.835 -188.983)" fill="#ffbe9d"/>
      <path id="Trazado_124244" data-name="Trazado 124244" d="M291.808,240.189,282.14,251.9l.745.8,15.686-2.39,7.782-11.706-.722-.649Z" transform="translate(-254.25 -188.253)" fill="#263238"/>
      <path id="Trazado_124245" data-name="Trazado 124245" d="M305.944,247.47h0a1.489,1.489,0,0,0-1.394.952,3.263,3.263,0,0,1-.952,1.517,3.382,3.382,0,0,1-2.536.375c-.633-.308-3.169-2.592-3.611-2.34s-.823.823-.381,1.332,2.8,2.027,2.346,2.536-5.391-1.724-6.158-1.528-1.2.661-.761.968,3.8,1.573,3.992,2.015c0,0-5.072-1.332-5.262-1.013s-.5.823,0,1.013,4.882,1.332,5.262,1.523a9.219,9.219,0,0,0,1.954.56,20.973,20.973,0,0,1,2.043.644,4.434,4.434,0,0,0,3.152-.084l.515-.207a2.016,2.016,0,0,0,1.248-1.987l-.1-1.724.56-1.428Z" transform="translate(-258.129 -192.443)" fill="#ffbe9d"/>
      <path id="Trazado_124246" data-name="Trazado 124246" d="M307.005,239.3a1.22,1.22,0,0,1-.291.073l-.84.146-3.09.5-4.591.7-2.71.409a5.206,5.206,0,0,0-2.626,1.064,17.233,17.233,0,0,0-1.909,2.2c-.6.739-1.17,1.456-1.719,2.139l-2.917,3.611-1.987,2.43-.56.649a1.3,1.3,0,0,1-.207.213,1.84,1.84,0,0,1,.162-.246l.509-.683,1.915-2.474,2.872-3.656,1.679-2.15a17.421,17.421,0,0,1,1.948-2.239,5.469,5.469,0,0,1,2.76-1.12l2.715-.392,4.6-.644,3.107-.409.845-.1A1,1,0,0,1,307.005,239.3Z" transform="translate(-254.875 -188.843)" fill="#455a64"/>
      <path id="Trazado_124247" data-name="Trazado 124247" d="M311.921,243.88a1.41,1.41,0,0,0-.437.353.454.454,0,0,0,0,.526.493.493,0,0,0,.649,0,.616.616,0,0,0,.246-.375.448.448,0,0,0-.129-.42.347.347,0,0,0-.425,0" transform="translate(-267.129 -190.863)" fill="#fafafa"/>
    </g>
    <g id="freepik--speech-bubble--inject-178" transform="translate(117.151 142.33)">
      <path id="Trazado_124248" data-name="Trazado 124248" d="M208.734,176.795l-2.844-5.038a13.436,13.436,0,1,0-3.213,3.577h0Z" transform="translate(-181.014 -151.275)" fill="#f5ca56"/>
      <path id="Trazado_124249" data-name="Trazado 124249" d="M196.73,170.906a1.77,1.77,0,1,1,1.763,1.982A1.774,1.774,0,0,1,196.73,170.906Zm2.5,0c0-.767-.3-1.12-.739-1.12s-.739.381-.739,1.12.3,1.12.739,1.12S199.232,171.679,199.232,170.906Zm3.482-1.9h1.2l-4.837,7.183h-1.2Zm-1.164,5.285a1.768,1.768,0,1,1,1.752,1.982A1.777,1.777,0,0,1,201.55,174.293Zm2.491,0c0-.761-.3-1.12-.739-1.12s-.739.369-.739,1.12.3,1.12.739,1.12S204.041,175.055,204.041,174.293Z" transform="translate(-187.932 -159.046)" fill="#fff"/>
    </g>
  </g>
</svg>
