<?xml version="1.0" encoding="utf-8"?>
<!-- Generator: Adobe Illustrator 25.3.1, SVG Export Plug-In . SVG Version: 6.00 Build 0)  -->
<svg version="1.1" id="Layer_1" xmlns="http://www.w3.org/2000/svg" xmlns:xlink="http://www.w3.org/1999/xlink" x="0px" y="0px"
	 viewBox="0 0 457.9 384.7" style="enable-background:new 0 0 457.9 384.7;" xml:space="preserve">
<style type="text/css">
	.st0{fill:#E0E0E0;}
	.st1{fill:#FAFAFA;}
	.st2{fill:#EBEBEB;}
	.st3{fill:#F5F5F5;}
	.st4{fill:#FFFFFF;}
	.st5{fill:#B78876;}
	.st6{fill:#AA6550;}
	.st7{fill:#F5CA56;}
	.st8{fill:#263238;}
	.st9{opacity:0.3;}
	.st10{fill:#455A64;}
	.st11{fill:#B1A8D1;}
	.st12{opacity:0.3;fill:#FFFFFF;enable-background:new    ;}
	.st13{opacity:0.4;enable-background:new    ;}
	.st14{fill:none;}
	.st15{fill-rule:evenodd;clip-rule:evenodd;fill:#B1A8D1;}
</style>
<g>
	<rect id="Rectángulo_30071" x="296.4" y="8.2" class="st0" width="57.2" height="59.6"/>
	<rect id="Rectángulo_30072" x="291.8" y="8.2" class="st1" width="57.2" height="59.6"/>
	<path id="Trazado_123619" class="st0" d="M349,67.8h-57.2V8.2H349V67.8z M291.8,67.8h57.1V8.2h-57.1L291.8,67.8z"/>
	<rect id="Rectángulo_30073" x="299" y="16.2" class="st1" width="41.8" height="43.6"/>
	<path id="Trazado_123620" class="st0" d="M293.9,60.1c-0.3,0.4-0.6,0.8-1,1.2c-0.7,0.7-1.6,1.7-2.7,2.7c-1.1,1-2,2-2.7,2.6
		c-0.4,0.4-0.8,0.7-1.2,1c0.3-0.4,0.6-0.8,1-1.2c0.7-0.7,1.6-1.7,2.7-2.7c1.1-1,2-2,2.7-2.6C293,60.7,293.4,60.4,293.9,60.1
		L293.9,60.1z"/>
	<path id="Trazado_123621" class="st0" d="M343.9,60c0.4,0.3,0.8,0.6,1.2,1c0.7,0.7,1.7,1.6,2.7,2.7s2,2,2.6,2.8
		c0.4,0.4,0.7,0.8,1,1.2c-0.4-0.3-0.8-0.6-1.2-1c-0.7-0.7-1.7-1.6-2.7-2.7s-2-2-2.6-2.8C344.6,60.8,344.2,60.4,343.9,60L343.9,60z"
		/>
	<path id="Trazado_123622" class="st0" d="M343.8,16.3c0.3-0.4,0.7-0.8,1-1.2c0.7-0.7,1.6-1.7,2.7-2.7s2-2,2.7-2.6
		c0.4-0.4,0.8-0.7,1.2-1c-0.3,0.4-0.6,0.8-1,1.2c-0.7,0.7-1.6,1.7-2.7,2.7s-2,2-2.8,2.6C344.6,15.7,344.3,16.1,343.8,16.3
		L343.8,16.3z"/>
	<path id="Trazado_123623" class="st0" d="M293.7,16.5c-0.4-0.3-0.8-0.6-1.2-1c-0.7-0.7-1.7-1.6-2.7-2.6s-2-2-2.6-2.8
		c-0.4-0.4-0.7-0.8-1-1.2c0.4,0.3,0.8,0.7,1.2,1.1c0.7,0.7,1.7,1.6,2.7,2.7s2,2,2.6,2.8C293.1,15.6,293.5,16,293.7,16.5L293.7,16.5z
		"/>
	<path id="Trazado_123624" class="st0" d="M340.7,59.8v-12c0-7.6,0-18.5-0.1-31.5l0.2,0.2h-41.7l0.2-0.2v43.5l-0.2-0.2l30.2,0.1h0.1
		l-30.3,0.1h-0.2V15.9h42v0.2c0,13.1-0.1,24-0.1,31.6v11.8C340.8,59.6,340.8,59.7,340.7,59.8L340.7,59.8z"/>
	<rect id="Rectángulo_30074" x="312.1" y="31" class="st2" width="13.9" height="13.9"/>
	<rect id="Rectángulo_30075" x="32.9" y="16.6" class="st0" width="80.4" height="83.8"/>
	<rect id="Rectángulo_30076" x="27.4" y="16.6" class="st1" width="80.4" height="83.8"/>
	<path id="Trazado_123625" class="st0" d="M107.8,100.4H27.4V16.6h80.4L107.8,100.4z M27.5,100.3h80.3V16.6H27.5V100.3z"/>
	<rect id="Rectángulo_30077" x="38.2" y="27.9" class="st1" width="58.8" height="61.2"/>
	<path id="Trazado_123626" class="st0" d="M38.2,89.5c-0.4,0.6-0.9,1.2-1.5,1.7c-0.9,1-2.2,2.3-3.7,3.8c-1.4,1.5-2.8,2.8-3.8,3.7
		c-0.5,0.5-1.1,1-1.7,1.4c0.4-0.6,0.9-1.2,1.4-1.7c0.9-1,2.3-2.3,3.7-3.8c1.4-1.5,2.8-2.8,3.8-3.7C37,90.4,37.6,89.9,38.2,89.5
		L38.2,89.5z"/>
	<path id="Trazado_123627" class="st0" d="M109,89.4c0.6,0.4,1.2,0.9,1.7,1.5c1,0.9,2.3,2.3,3.8,3.7s2.8,2.8,3.7,3.8
		c0.5,0.5,1,1.1,1.4,1.7c-0.6-0.4-1.2-0.9-1.7-1.4c-1-0.9-2.3-2.3-3.8-3.7s-2.8-2.8-3.7-3.8C109.9,90.6,109.4,90,109,89.4L109,89.4z
		"/>
	<path id="Trazado_123628" class="st0" d="M108.8,28.1c0.4-0.6,0.9-1.2,1.5-1.7c0.9-1,2.3-2.3,3.7-3.8s2.8-2.8,3.8-3.7
		c0.5-0.5,1.1-1,1.7-1.4c-0.4,0.6-0.9,1.2-1.4,1.7c-0.9,1-2.3,2.3-3.7,3.8s-2.8,2.8-3.8,3.7C110,27.2,109.4,27.7,108.8,28.1
		L108.8,28.1z"/>
	<path id="Trazado_123629" class="st0" d="M38.1,28.2c-0.6-0.4-1.2-0.9-1.7-1.5c-1-0.9-2.3-2.3-3.8-3.7c-1.5-1.4-2.8-2.8-3.7-3.8
		c-0.5-0.5-1-1.1-1.4-1.7c0.6,0.4,1.2,0.9,1.7,1.4c1,0.9,2.3,2.3,3.8,3.7c1.5,1.4,2.8,2.8,3.7,3.8C37.2,27,37.7,27.5,38.1,28.2
		L38.1,28.2z"/>
	<path id="Trazado_123630" class="st0" d="M96.8,89.1v-4.5c0-2.9,0-7.1-0.1-12.5c0-10.7-0.1-26-0.1-44.3l0.2,0.2H38.3l0.3-0.3v61.2
		l-0.2-0.2L80.8,89L92.7,89h4C96.7,89,96.8,89,96.8,89.1L92.8,89l-12,0.2l-42.6,0.1H38V27.6h59.1v0.2C97,46.1,97,61.5,97,72.2
		c0,5.3,0,9.5-0.1,12.4v4.1C96.9,88.9,96.9,89,96.8,89.1z"/>
	<rect id="Rectángulo_30078" x="57.8" y="48.7" class="st2" width="19.6" height="19.6"/>
	<path id="Trazado_123637" class="st3" d="M31.7,333.6v42.9h131.9v-42.9H31.7z"/>
	<path id="Trazado_123638" class="st0" d="M26.2,321.6v12h142v-12H26.2z"/>
	<path id="Trazado_123639" class="st0" d="M111.1,376.5h66.4v-42.9h4.6v-12h-73.8v10.9L111.1,376.5z"/>
	<rect id="Rectángulo_30083" x="50.1" y="340.6" class="st0" width="26.8" height="6.5"/>
	<rect id="Rectángulo_30084" x="46.7" y="355.1" class="st4" width="34.3" height="13.6"/>
	<g id="freepik--Character--inject-269" transform="translate(229.349 140.388)">
		<path id="Trazado_123640" class="st5" d="M4.3,111.4c0,0-2.2-9.4-10.9-8.9s-10.9,0.5-14.6,0s-9.6-5-11.3-3.6
			c-1.6,1.4-0.7,4.5,2.3,7.2s8.3,4.6,8.3,4.6l-11.2,1.9c0,0-10.1-5.4-12.4-4.4c-1.4,0.6-2.3,2-2.2,3.6c0,0-4.2-1.9-5.4-0.2
			s-1.5,2.8-0.3,3.7c0,0-0.8-0.8-2.9-0.1c-1.9,0.5-1.7,4,0,4.9l0.6,0.3c0,0,15.8,9.1,16.3,9.2c2.8,0.4,19.8-0.4,28.6-0.8
			c3.2-0.1,6.3,1.4,8,4.2l14.1,22.4l16-18.4L4.3,111.4z"/>
		<path id="Trazado_123641" class="st6" d="M-24.4,116.5c-0.8,0.3-1.7,0.4-2.6,0.6c-1.6,0.3-3.9,0.7-6.6,1.2h-0.1l-3.6-1.6l-8.5-3.9
			l-2.6-1.2c-0.3-0.1-0.6-0.3-0.9-0.5c0.3,0.1,0.7,0.2,1,0.3l2.6,1.1l3.9,1.7l4.7,2.1l3.6,1.7h-0.1c2.7-0.4,5-0.8,6.6-1
			C-26.2,116.7-25.3,116.5-24.4,116.5z"/>
		<path id="Trazado_123642" class="st6" d="M-28.3,120.7c-2.6,1-4.8,2.8-6.4,5.1C-33.6,123-31.2,121.1-28.3,120.7z"/>
		<path id="Trazado_123643" class="st6" d="M-10.2,107.5c0.1,0,0.1,0.6,0.4,1.5c0.4,1.3,1.2,2.4,2.1,3.3l0.3,0.3l-0.4,0.1
			c-1.5,0.3-2.9,0.7-4.3,1.3c-2.2,0.9-4.3,2.2-6.1,3.7c-1.4,1.2-2.1,2.1-2.2,2s0.1-0.3,0.5-0.7c0.5-0.6,1-1.1,1.5-1.6
			c1.8-1.7,3.9-3,6.1-3.9c1.4-0.6,2.9-1,4.4-1.3l-0.1,0.4c-1-1-1.8-2.2-2.1-3.6C-10.2,108.6-10.3,108-10.2,107.5L-10.2,107.5z"/>
		<path id="Trazado_123644" class="st6" d="M-20.7,110.2c-2,0.8-4,1.3-6.1,1.6c-1.7,0.3-3.3,0.5-4.4,0.6c-0.6,0.1-1.2,0.1-1.9,0.1
			c0-0.1,2.8-0.6,6.2-1.2l4.4-0.9C-21.9,110.3-21.3,110.2-20.7,110.2L-20.7,110.2z"/>
		<path id="Trazado_123645" class="st6" d="M-35.5,122.5c-0.9-0.3-1.8-0.7-2.6-1.1c-1.6-0.7-3.9-1.5-6.4-2.4s-4.8-1.8-6.4-2.5
			c-0.9-0.3-1.8-0.7-2.6-1.2c0.9,0.2,1.8,0.6,2.7,0.9l6.5,2.3c2.5,0.9,4.8,1.9,6.4,2.6C-37.1,121.5-36.3,122-35.5,122.5z"/>
		<path id="Trazado_123646" class="st6" d="M-31.5,122.2c-2.1,1-4.5,1.2-6.8,0.7c0-0.1,1.6-0.1,3.4-0.2
			C-33.8,122.4-32.6,122.2-31.5,122.2z"/>
		<path id="Trazado_123647" class="st7" d="M56.5,68.1c0,0-14.1,8.1-17.1,32.9c-1.5,13-7.2,37-7.2,37l-11.6-13L3.1,145
			c0,0,18.9,40.4,29.6,51.4s31.9,14.4,31.9,14.4l4.3-67.6L56.5,68.1z"/>
		<path id="Trazado_123648" class="st7" d="M163.6,56.9l-32.6-5.7l-41.6,2.1c0,0-34.6,14.3-32.9,14.8l-6.8,66.8l16.7,32.3L62.3,236
			h114.8l-6-47.8l-7.5-57.6l14.3,44.6L180,236H212c3.4-26.5,4.4-63.3,4.4-63.3l-26.1-85.2c-3.6-11.9-11.4-22-22.1-28.3
			C166.8,58.3,165.2,57.5,163.6,56.9z"/>
		<path id="Trazado_123649" class="st8" d="M56.1,101.8l0.1,0.3c0,0.2,0.1,0.6,0.2,1c0.2,0.9,0.4,2.2,0.7,3.9
			c0.6,3.4,1.4,8.2,2.3,14.3s2,13.2,2.9,21.2s1.9,16.8,2.5,26.1c0,0.9,0.1,1.7,0.1,2.5l0,0c-0.5,18-1,34.3-1.5,46
			c-0.3,5.8-0.5,10.6-0.7,13.8c-0.1,1.6-0.2,2.8-0.2,3.7c0,0.4-0.1,0.7-0.1,1c0,0.1,0,0.2,0,0.3c0-0.1,0-0.2,0-0.3v-1
			c0-0.9,0.1-2.1,0.2-3.7c0.1-3.3,0.3-8,0.5-13.8c0.4-11.7,0.9-27.9,1.4-46l0,0c0-0.8-0.1-1.7-0.1-2.5c-0.5-9.3-1.5-18.1-2.4-26.1
			s-2-15.2-2.9-21.2s-1.6-10.9-2.2-14.3l-0.6-3.9c-0.1-0.4-0.1-0.8-0.1-1C56.1,102,56.1,101.9,56.1,101.8L56.1,101.8z"/>
		<path id="Trazado_123650" class="st8" d="M156.2,105.4c-0.1-0.1-0.1-0.3-0.1-0.4c-0.1-0.3-0.1-0.8-0.2-1.2c0-0.3-0.1-0.6-0.1-0.9
			c0-0.4-0.1-0.7-0.1-1.1c-0.1-0.9-0.1-1.8-0.1-2.6c0-0.5,0-1,0-1.5s0.1-1.1,0.1-1.7c0.1-1.2,0.3-2.4,0.6-3.6c0.6-2.7,1.5-5.4,2.6-8
			c1.2-2.5,2.7-4.9,4.4-7.1c0.8-1,1.6-1.9,2.4-2.8c0.4-0.4,0.8-0.8,1.2-1.2l1.2-1c0.7-0.6,1.3-1.1,2.1-1.6c0.3-0.2,0.6-0.4,0.9-0.6
			l0.8-0.5l1.1-0.6c0.1-0.1,0.3-0.1,0.4-0.2c-0.1,0.1-0.2,0.2-0.3,0.3l-1,0.7l-0.8,0.5c-0.3,0.2-0.5,0.4-0.8,0.7
			c-0.7,0.5-1.4,1.1-2,1.7l-1.1,1c-0.4,0.4-0.8,0.8-1.1,1.2c-0.8,0.9-1.6,1.8-2.4,2.8c-3.4,4.4-5.8,9.5-7,15
			c-0.3,1.2-0.5,2.4-0.6,3.6c-0.1,0.6-0.1,1.1-0.2,1.6s0,1-0.1,1.5c-0.1,0.9,0,1.9,0,2.6v1.1c0,0.3,0,0.6,0.1,0.9
			c0,0.5,0.1,0.9,0.1,1.2C156.2,105.1,156.2,105.3,156.2,105.4L156.2,105.4z"/>
		<path id="Trazado_123651" class="st8" d="M177.8,175.2c-0.1-0.2-0.2-0.4-0.2-0.6c-0.1-0.4-0.3-0.9-0.5-1.6
			c-0.5-1.5-1.1-3.5-1.9-5.9c-1.6-5-3.7-11.9-6.2-19.5s-4.8-14.5-6.6-19.4c-0.9-2.4-1.9-4.3-2.5-5.7c-0.3-0.7-0.5-1.2-0.6-1.6
			c-0.1-0.2-0.1-0.4-0.2-0.6c0.1,0.2,0.2,0.3,0.3,0.5l0.7,1.5c0.6,1.3,1.6,3.2,2.6,5.6c1.9,4.9,4.3,11.8,6.8,19.4s4.6,14.6,6.1,19.6
			c0.7,2.5,1.3,4.6,1.7,6c0.2,0.7,0.3,1.2,0.4,1.6C177.8,174.8,177.8,175,177.8,175.2L177.8,175.2z"/>
		<path id="Trazado_123652" class="st8" d="M201.9,173c0,0.1-1.2-0.3-3.2-0.6c-2.6-0.4-5.3-0.5-7.9-0.2c-2.6,0.3-5.2,0.9-7.7,1.9
			c-1.9,0.7-3,1.4-3,1.3c0.2-0.2,0.5-0.4,0.7-0.5c0.7-0.4,1.4-0.8,2.2-1.1c2.5-1.1,5.1-1.7,7.8-2c2.7-0.3,5.4-0.2,8,0.3
			c0.8,0.1,1.6,0.3,2.4,0.6C201.4,172.8,201.7,172.9,201.9,173z"/>
		<path id="Trazado_123653" class="st8" d="M57.5,168.3c-0.3-0.4-0.6-0.8-0.9-1.3c-0.6-0.8-1.4-2-2.5-3.4c-2.2-2.8-5.5-6.5-9.1-10.6
			s-6.9-7.8-9.2-10.5c-1.1-1.4-2.1-2.5-2.7-3.3c-0.3-0.4-0.7-0.8-0.9-1.2c0.4,0.3,0.7,0.7,1.1,1.1l2.8,3.2l9.3,10.4
			c3.6,4.1,6.8,7.8,9,10.7c0.9,1.1,1.7,2.3,2.4,3.5c0.3,0.4,0.4,0.8,0.5,1S57.5,168.3,57.5,168.3z"/>
		<g id="Grupo_55329" transform="translate(108.43 212.53)" class="st9">
			<path id="Trazado_123654" d="M-44.6-1.6c0.5-18.7,1.5-35.9-0.2-54.4c-0.8,16.4-6.7,35.6-12.7,50.8L-44.6-1.6z"/>
		</g>
		<g id="Grupo_55330" transform="translate(216.099 174.685)" class="st9">
			<path id="Trazado_123655" d="M-52.5-44.2c0,0-5.3-11.9-5-11.9c-0.4,23.4,3.8,46.7,12.3,68.5L-52.5-44.2z"/>
		</g>
		<path id="Trazado_123656" class="st8" d="M149,193.7c-0.2,0.1-0.4,0.3-0.6,0.4l-1.9,1.1c-1.6,0.9-4,2.3-6.8,4.1s-6.3,3.9-10.2,6
			c-4.2,2.4-8.6,4.5-13.1,6.2c-4.5,1.7-9.3,2.7-14.2,2.9c-2.1,0-4.2-0.3-6.3-0.9c-1.8-0.5-3.4-1.4-4.9-2.6c-2.1-1.6-3.7-4-4.4-6.6
			c-0.2-0.7-0.3-1.4-0.3-2.2c0-0.3,0-0.5,0-0.8c0,1,0.2,1.9,0.4,2.9c0.8,2.5,2.3,4.8,4.4,6.4c1.4,1.1,3.1,1.9,4.8,2.5
			c2,0.6,4.1,0.9,6.2,0.8c4.8-0.2,9.5-1.2,14-2.9c4.5-1.7,8.9-3.7,13-6.1c3.9-2.2,7.3-4.2,10.2-6s5.3-3.1,6.9-4l1.9-1
			C148.5,193.8,148.7,193.8,149,193.7z"/>
		<path id="Trazado_123657" class="st8" d="M148.8,166.6c-0.1,0.5-0.2,1.1-0.4,1.6c-0.1,0.6-0.3,1.2-0.5,1.9
			c-0.2,0.7-0.5,1.5-0.9,2.4s-0.7,1.9-1.2,2.9s-1,2.1-1.6,3.2c-2.7,4.8-6.2,9-10.4,12.6c-0.9,0.8-1.8,1.5-2.8,2.2
			c-0.9,0.6-1.8,1.2-2.6,1.8c-0.8,0.5-1.5,0.9-2.2,1.3s-1.2,0.7-1.7,0.9c-0.5,0.3-1,0.5-1.5,0.7c0.5-0.3,0.9-0.6,1.4-0.8
			c0.5-0.2,1-0.6,1.7-0.9s1.4-0.8,2.2-1.4c0.8-0.6,1.6-1.1,2.5-1.8s1.8-1.4,2.8-2.2c4.1-3.6,7.5-7.9,10.2-12.6
			c0.6-1.1,1.2-2.1,1.7-3.1s0.9-1.9,1.3-2.8s0.6-1.7,0.9-2.4c0.2-0.6,0.4-1.2,0.6-1.9C148.4,167.6,148.6,167.1,148.8,166.6
			L148.8,166.6z"/>
		<path id="Trazado_123658" class="st1" d="M57.8,123.9c0,0.1-4.9-0.8-10.8-2.1s-10.7-2.5-10.7-2.6s4.8,0.8,10.8,2.1
			S57.8,123.7,57.8,123.9z"/>
		<path id="Trazado_123659" class="st1" d="M57.8,118.4c-1,0-2-0.1-3-0.3c-1.9-0.3-4.4-0.8-7.3-1.3l-7.2-1.4c-1-0.2-2-0.4-3-0.7
			c1,0,2,0.1,3,0.3c1.9,0.3,4.5,0.8,7.3,1.3l7.2,1.4C55.8,117.9,56.8,118.1,57.8,118.4L57.8,118.4z"/>
		<path id="Trazado_123660" class="st1" d="M156.4,119.2c0,0.1-20.8,0.1-46.6-0.1s-46.5-0.5-46.5-0.6s20.8-0.1,46.6,0.1
			S156.4,119,156.4,119.2z"/>
		<path id="Trazado_123661" class="st1" d="M157.9,123.9c0,0.1-21.4,0.2-47.9,0.2s-47.9-0.1-47.9-0.2s21.4-0.2,47.9-0.2
			S157.9,123.7,157.9,123.9z"/>
		<path id="Trazado_123662" class="st1" d="M197,112.9h0.1C197.2,112.9,197,112.9,197,112.9l-0.1,0.1v-0.1h0.4L197,112.9
			c-1.7,0.7-8.9,3.1-17.3,6.3l-12.5,4.8l-3.8,1.4c-0.5,0.2-0.9,0.4-1.4,0.5c0.4-0.3,0.9-0.5,1.3-0.6c0.9-0.4,2.1-0.9,3.7-1.6
			c3.2-1.3,7.5-3.1,12.4-4.9C187.9,115.5,195.2,113.2,197,112.9L197,112.9l-0.2,0.1v-0.1L197,112.9C197,112.8,197,112.8,197,112.9
			L197,112.9z"/>
		<path id="Trazado_123663" class="st1" d="M196.2,106.9c0,0.1-8.1,3-18.2,6.4s-18.3,6-18.3,5.9s8.1-3,18.2-6.4
			S196.2,106.7,196.2,106.9z"/>
		<path id="Trazado_123664" class="st1" d="M134.3,51.9c0.1,0.2,0.1,0.5,0.1,0.8c0.1,0.7,0.1,1.4,0.1,2.1c-0.1,2.7-0.7,5.3-1.6,7.8
			c-1.5,3.7-3.8,6.9-6.9,9.5c-7.8,6.2-18.7,6.9-27.2,1.7c-3.3-2.2-6.1-5.1-8-8.6c-1.3-2.3-2.2-4.9-2.6-7.5c-0.1-0.7-0.2-1.4-0.2-2.1
			c0-0.2,0-0.5,0-0.8c0.1,0.2,0.1,0.5,0.1,0.8c0.1,0.7,0.2,1.4,0.3,2.1c0.5,2.6,1.4,5.1,2.7,7.4c1.9,3.4,4.6,6.2,7.9,8.3
			c8.3,5.1,19,4.5,26.6-1.6c5.1-4.2,8.2-10.3,8.6-16.9c0-0.9,0.1-1.6,0-2.1C134.2,52.4,134.2,52.1,134.3,51.9L134.3,51.9z"/>
		<path id="Trazado_123665" class="st1" d="M21.5,126.9c-0.1,0.3-0.3,0.6-0.5,0.9c-0.3,0.6-0.9,1.4-1.5,2.3
			c-1.3,1.9-3.2,4.5-5.6,7.3c-2,2.3-4.1,4.6-6.3,6.7c-0.8,0.8-1.5,1.5-2,1.9c-0.2,0.2-0.5,0.5-0.8,0.6c0.2-0.3,0.4-0.5,0.7-0.8
			l1.9-2c1.6-1.7,3.8-4,6.1-6.7s4.3-5.3,5.6-7.1l1.6-2.2C21,127.4,21.2,127.1,21.5,126.9z"/>
		<g id="Grupo_55331" transform="translate(162.146 233.8)" class="st9">
			<path id="Trazado_123666" d="M-36.1-37.5c-4.7,2.7-11,3.1-16.6,3.2c-1.1,0.1-2.1,0-3.1-0.4c-1-0.4-1.7-1.4-1.7-2.5
				c0.1-1.3,1.4-2.1,2.6-2.6c4.5-1.9,9.6-1.8,14.4-3c8.1-2,16.4-7.9,22.8-13.4C-22.1-48.4-28.4-42-36.1-37.5"/>
		</g>
		<path id="Trazado_123667" class="st5" d="M108.6,73.8L108.6,73.8c-10.9-0.9-19.3-10-19.2-21c0-5.2,0.1-9.4,0.1-9.4
			s-16.8-2.6-17-19.4s2.7-55.3,2.7-55.3l0,0c19.4-8.3,41.8-5.5,58.5,7.4l2.5,1.9l-5.1,76.3c-0.8,11.5-10.7,20.2-22.2,19.5
			C108.8,73.8,108.7,73.8,108.6,73.8L108.6,73.8z"/>
		<path id="Trazado_123668" class="st6" d="M89.4,43.1c7.7,0.1,15.3-2,21.9-6.2c0,0-5.2,12-21.9,10.5L89.4,43.1z"/>
		<path id="Trazado_123669" class="st5" d="M134.1-4.6c0.3-0.1,11.5-3.4,11.1,8.1s-11.8,8.7-11.8,8.4S134.1-4.6,134.1-4.6z"/>
		<path id="Trazado_123670" class="st6" d="M137.1,7.6c0.1,0,0.2,0.1,0.5,0.3c0.5,0.2,1,0.2,1.5,0.1c1.2-0.4,2.3-2.3,2.4-4.4
			c0.1-1-0.1-2-0.5-2.9c-0.2-0.7-0.7-1.3-1.5-1.6c-0.5-0.1-1,0.1-1.2,0.5c-0.2,0.3-0.1,0.5-0.2,0.6s-0.2-0.2-0.1-0.7
			c0.1-0.3,0.2-0.5,0.5-0.7c0.3-0.2,0.7-0.3,1.1-0.3c1,0.2,1.7,0.9,2,1.9c0.5,1,0.7,2.1,0.6,3.2c-0.1,2.3-1.4,4.4-3.1,4.9
			c-0.6,0.2-1.3,0-1.9-0.4C137.1,7.9,137.1,7.6,137.1,7.6z"/>
		<path id="Trazado_123671" class="st8" d="M81.2-4.4c0,1.3,1,2.4,2.3,2.4C84.8-1.8,85.9-2.8,86-4c0,0,0,0,0-0.1
			c0-1.3-1-2.4-2.3-2.4C82.5-6.6,81.4-5.7,81.2-4.4C81.2-4.4,81.2-4.4,81.2-4.4z"/>
		<path id="Trazado_123672" class="st8" d="M78.3-7.7c0.3,0.3,2.1-1,4.7-1s4.5,1.3,4.7,1c0.1-0.1-0.2-0.7-1-1.3
			c-1.1-0.8-2.4-1.2-3.8-1.2c-1.3,0-2.6,0.4-3.7,1.2C78.5-8.4,78.2-7.8,78.3-7.7z"/>
		<path id="Trazado_123673" class="st8" d="M106-3.8c0,1.3,1,2.4,2.3,2.4c1.3,0.1,2.4-0.9,2.5-2.1c0,0,0,0,0,0c0-1.3-1-2.4-2.3-2.4
			C107.2-6.1,106.1-5.1,106-3.8C106-3.8,106-3.8,106-3.8z"/>
		<path id="Trazado_123674" class="st8" d="M103.7-7.2c0.3,0.3,2.1-1,4.7-1s4.5,1.3,4.7,1c0.1-0.1-0.2-0.7-1-1.3
			c-1.1-0.8-2.4-1.2-3.8-1.2c-1.3,0-2.6,0.4-3.7,1.2C103.8-7.9,103.5-7.3,103.7-7.2z"/>
		<path id="Trazado_123675" class="st8" d="M94.3,11.9c0-0.1-1.6-0.4-4.2-0.8c-0.7-0.1-1.3-0.2-1.4-0.6c-0.1-0.7,0.1-1.4,0.4-2
			c0.6-1.6,1.3-3.3,1.9-5c2.7-7.1,4.6-13,4.4-13.1S92.8-4,90.1,3.2l-1.9,5c-0.4,0.8-0.5,1.7-0.3,2.6c0.2,0.5,0.6,0.8,1.1,0.9
			c0.4,0.1,0.7,0.2,1.1,0.2C92.7,12.1,94.3,12.1,94.3,11.9z"/>
		<path id="Trazado_123676" class="st8" d="M103-17.3c0.3,0.7,2.8,0.4,5.9,0.7s5.5,1.2,5.9,0.6c0.2-0.3-0.2-0.9-1.2-1.6
			c-2.7-1.7-6-2-8.9-1C103.4-18.1,102.9-17.6,103-17.3z"/>
		<path id="Trazado_123677" class="st8" d="M79.3-15.1c0.5,0.6,2.2,0,4.4,0s3.9,0.4,4.4-0.2c0.2-0.3-0.1-0.9-0.9-1.4
			c-1.1-0.7-2.3-1-3.5-0.9c-1.3,0-2.5,0.4-3.5,1.2C79.3-16,79.1-15.4,79.3-15.1z"/>
		<path id="Trazado_123678" class="st8" d="M67-41.8c-0.2-2.1,0.6-4.2,2.3-5.6c1.7-1.3,4.2-1.1,5.7,0.4c-0.6-2.8,1.1-5.5,3.9-6.1
			c0.2,0,0.4-0.1,0.5-0.1c2.8-0.2,5.1,1.9,7.7,2.6c2.6,0.6,5.4,0.2,7.8-0.9c2.5-1,4.8-2.4,7.3-3.3c11-4,23.3,1.6,27.4,12.6
			c3.7-1.1,7.8,0.7,10.1,3.8s2.8,7.2,2.4,11c-0.4,2.6-1,5.2-1.9,7.6c0,0.2,0,0.4,0,0.6C140-9.9,139,0.9,135,1
			c-6.9,0.1-5.2-12.8-5.2-12.8c-8.4-3.2-5.3-15.9-7.4-17.8s-6.5-6.4-24.1,2.6c-6.8,3.5-15.9,3.4-20.9,2.3L77-24.7h-0.1
			c0,0-0.1,0-0.1-0.1c-1.6-0.4-3.1-1.1-4.5-1.9c-1.6-1-2.9-2.4-3.7-4.1c-0.8-1.8-0.4-3.8,0.9-5.2C68.1-37.7,67.2-39.7,67-41.8
			L67-41.8z"/>
		<path id="Trazado_123679" class="st6" d="M92.1,19.9c0.4,1,0.9,2,1.5,2.9c0.7,0.9,1.7,1.5,2.8,1.6c1.2,0,2.3-0.6,3-1.6
			c0.6-1,0.9-2.2,0.8-3.4c0-1.1-0.5-2.3-1.6-2.4c-0.4,0-0.9,0.1-1.3,0.3l-5.6,2.2"/>
		<path id="Trazado_123680" class="st8" d="M94.3,24.4c1,0.1,2-0.1,2.9-0.4c1-0.4,1.8-1.1,2.2-2c0.5-1.1,0.6-2.5,0.1-3.6
			c-0.1-0.3-0.3-0.6-0.5-0.8c-0.2-0.2-0.2-0.2-0.4-0.2c-0.3,0.1-0.6,0.2-0.9,0.4l-0.9,0.4c-1.2,0.5-2.3,0.9-3.2,1.2
			c-1,0.4-2,0.8-3,0.9c0.8-0.6,1.8-1.2,2.7-1.5c0.9-0.4,1.9-0.9,3.1-1.4l0.9-0.4c0.3-0.2,0.7-0.3,1-0.4c0.3-0.1,0.6-0.1,0.8,0
			c0.2,0.1,0.5,0.3,0.6,0.5c1.2,1.6,1.4,3.7,0.4,5.5c-0.6,1.1-1.6,1.9-2.8,2.3c-0.8,0.2-1.6,0.3-2.4,0.1
			C94.6,24.6,94.3,24.5,94.3,24.4z"/>
		<path id="Trazado_123681" class="st10" d="M123-31.2c0.1-0.7,0.1-1.4,0-2c-0.3-1.8-1.2-3.5-2.6-4.7c-2.1-1.8-4.8-2.7-7.5-2.5
			c-3.1,0-6.4,1-9.8,2.2c-1.7,0.6-3.4,1.1-5.1,1.5c-1.6,0.4-3.3,0.6-4.9,0.6c-2.8,0.1-5.6-0.3-8.3-1.1c-1.8-0.5-3.5-1.3-5.2-2.2
			c-0.4-0.2-0.9-0.5-1.3-0.8c-0.2-0.1-0.3-0.2-0.4-0.3c0,0,0.6,0.4,1.9,0.9c1.7,0.8,3.4,1.5,5.2,2c4.2,1.2,8.7,1.3,13,0.4
			c1.6-0.4,3.3-0.9,5-1.5c3.4-1.1,6.8-2.2,10-2.2c2.8-0.1,5.6,0.8,7.8,2.7c1.4,1.3,2.3,3,2.6,4.9C123.3-32.5,123.2-31.8,123-31.2z"
			/>
		<path id="Trazado_123682" class="st10" d="M136-2.8c-0.1-0.1-0.2-0.2-0.2-0.4c-0.2-0.3-0.4-0.7-0.5-1.1c-0.6-1.3-1-2.7-1.3-4.2
			c-0.4-2.1-0.6-4.3-0.4-6.5c0.3-2.6,0.8-5.2,1.5-7.8c0.7-2.5,0.7-5.2,0-7.7c-0.3-1.1-0.9-2.1-1.6-2.9c-0.7-0.7-1.5-1.3-2.4-1.6
			c-1.3-0.5-2.8-0.5-4.1,0.1c-0.5,0.3-0.9,0.6-1.3,0.9c0.3-0.5,0.7-0.8,1.2-1.1c1.3-0.7,2.9-0.8,4.3-0.3c1,0.3,1.9,0.9,2.6,1.6
			c0.8,0.9,1.4,1.9,1.7,3.1c0.7,2.6,0.7,5.3,0,7.9c-0.7,2.5-1.2,5.1-1.5,7.7c-0.2,2.1-0.1,4.3,0.3,6.4c0.3,1.4,0.7,2.8,1.2,4.2
			C135.7-3.8,135.9-3.3,136-2.8z"/>
		<path id="Trazado_123683" class="st10" d="M124.6-32.5c0-0.2,0-0.5,0-0.7c0-0.5,0-1.1,0.1-1.9c0.1-2.3-0.1-4.7-0.8-7
			c-0.5-1.5-1.2-3-2.2-4.2c-1.1-1.4-2.7-2.5-4.5-3c-2-0.5-4.1-0.4-6,0.2c-2.1,0.7-4.1,1.6-6,2.7c-1.9,1.2-3.9,2.2-5.9,3.1
			c-2,0.8-4,1.2-6.1,1.2c-1.9,0-3.8-0.2-5.6-0.7c-1.6-0.4-3.1-1.1-4.5-1.9c-2.1-1.2-3.9-2.8-5.4-4.6c-0.4-0.5-0.8-1-1.1-1.6
			c-0.1-0.2-0.2-0.4-0.3-0.6c0.2,0.2,0.3,0.3,0.4,0.5c0.4,0.5,0.7,1,1.2,1.5c1.5,1.8,3.4,3.3,5.4,4.4c1.4,0.8,2.9,1.4,4.5,1.8
			c1.8,0.5,3.6,0.7,5.5,0.6c2-0.1,4.1-0.5,6-1.2c2-0.9,4-1.9,5.9-3c1.9-1.2,4-2.1,6.1-2.8c2-0.6,4.2-0.7,6.2-0.2
			c1.9,0.5,3.5,1.6,4.7,3.1c1,1.3,1.8,2.8,2.3,4.4c0.6,2.3,0.8,4.7,0.6,7.1c0,0.8-0.1,1.5-0.2,1.9C124.7-33,124.7-32.7,124.6-32.5
			L124.6-32.5z"/>
	</g>
	<g id="freepik--Features--inject-269" transform="translate(14.046 77.173)">
		<path id="Trazado_123685" class="st11" d="M180.6,155l-39.3-1.7v-39.3h39.3L180.6,155z"/>
		<rect id="Rectángulo_30085" x="156.9" y="102.8" class="st11" width="39.3" height="39.3"/>
		<path id="Trazado_123686" class="st11" d="M180.6,153.4l15.6-11.2v-39.3l-15.6,11.2V153.4z"/>
		<path id="Trazado_123687" class="st11" d="M141.3,114.1l15.6-11.2h39.3l-15.6,11.2H141.3z"/>
		<path id="Trazado_123688" class="st11" d="M180.6,155l15.6-12.9v-39.3l-15.6,11.2V155z"/>
		<path id="Trazado_123689" class="st12" d="M141.3,114.1l15.6-11.2h39.3l-15.6,11.2H141.3z"/>
		<path id="Trazado_123690" class="st13" d="M180.6,155l15.6-12.9v-39.3l-15.6,11.2V155z"/>
		<path id="Trazado_123691" class="st11" d="M201.6,143.6c0.2,0.7,0.3,1.5,0.2,2.3c-0.2,0.4-0.1,0.1-0.1,0.2h-0.1l-0.1,0.1l-0.2,0.1
			l-0.4,0.2c-0.2,0.2-0.4,0.3-0.6,0.4c-0.4,0.2-0.6,0.3-0.6,0.3s0.1-0.3,0.4-0.5l0.6-0.5l0.3-0.3l0.2-0.1l0.1-0.1l0,0
			c0,0.1,0.1-0.2-0.1,0.2C201.3,145.2,201.4,144.4,201.6,143.6z"/>
		<path id="Trazado_123692" class="st11" d="M201.6,133.7c0.3,1.6,0.3,3.3,0,5C201.3,137,201.3,135.3,201.6,133.7z"/>
		<path id="Trazado_123693" class="st11" d="M201.6,123.8c0.3,1.6,0.3,3.3,0,5C201.3,127.1,201.3,125.4,201.6,123.8z"/>
		<path id="Trazado_123694" class="st11" d="M201.6,113.9c0.3,1.6,0.3,3.3,0,5C201.3,117.2,201.3,115.5,201.6,113.9z"/>
		<path id="Trazado_123695" class="st11" d="M201.6,103.9c0.3,1.6,0.3,3.3,0,5C201.3,107.2,201.3,105.6,201.6,103.9z"/>
		<path id="Trazado_123696" class="st11" d="M199.3,96.6c0.7-0.2,1.5-0.3,2.3-0.2l0.2,0.2l0,0v0.9c0,0.2,0,0.5-0.1,0.7
			c0,0.4-0.1,0.7-0.2,0.7s-0.1-0.3-0.2-0.7c0-0.2,0-0.5-0.1-0.7v-0.9l0,0l0.2,0.2C200.9,96.9,200.1,96.9,199.3,96.6L199.3,96.6z"/>
		<path id="Trazado_123697" class="st11" d="M190.4,96.6c1.5-0.3,3-0.3,4.4,0C193.4,97,191.9,97,190.4,96.6z"/>
		<path id="Trazado_123698" class="st11" d="M181.6,96.6c1.5-0.3,3-0.3,4.4,0C184.5,97,183,97,181.6,96.6z"/>
		<path id="Trazado_123699" class="st11" d="M172.7,96.6c1.5-0.3,3-0.3,4.4,0C175.7,97,174.1,97,172.7,96.6z"/>
		<path id="Trazado_123700" class="st11" d="M163.8,96.6c1.5-0.3,3-0.3,4.4,0C166.8,97,165.2,97,163.8,96.6z"/>
		<path id="Trazado_123701" class="st11" d="M155.1,97.2c0.1-0.3,0.3-0.5,0.5-0.7h0.1c0.4,0,0.9-0.1,1.4-0.1c0.7-0.1,1.5,0,2.2,0.2
			c-0.7,0.2-1.5,0.3-2.2,0.2c-0.5,0-0.9,0-1.4-0.1l0.1,0C155.6,97,155.4,97.1,155.1,97.2z"/>
		<path id="Trazado_123702" class="st11" d="M148.3,102.8c-0.1-0.1,0.6-0.8,1.6-1.6s1.8-1.3,1.9-1.2s-0.6,0.8-1.6,1.6
			S148.4,102.9,148.3,102.8z"/>
		<path id="Trazado_123703" class="st11" d="M141.4,108.5c-0.1-0.1,0.6-0.8,1.6-1.6s1.8-1.3,1.9-1.2s-0.6,0.8-1.6,1.6
			S141.6,108.6,141.4,108.5z"/>
		<path id="Trazado_123704" class="st11" d="M136.2,115.1c-0.2-0.7-0.3-1.5-0.2-2.3l0.1-0.2h0l0.1-0.1l0.2-0.1l0.3-0.3l0.6-0.4
			c0.4-0.2,0.6-0.4,0.6-0.3s-0.1,0.3-0.4,0.6c-0.1,0.1-0.3,0.3-0.5,0.5l-0.3,0.3l-0.2,0.1l-0.1,0.1h0c0-0.1-0.1,0.2,0.1-0.2
			C136.5,113.6,136.5,114.4,136.2,115.1L136.2,115.1z"/>
		<path id="Trazado_123705" class="st11" d="M136.1,124.3c-0.2-0.7-0.3-1.5-0.2-2.3c-0.1-0.8,0-1.6,0.3-2.3
			C136.5,121.2,136.5,122.8,136.1,124.3L136.1,124.3z"/>
		<path id="Trazado_123706" class="st11" d="M136,133.5c-0.2-0.7-0.3-1.5-0.2-2.3c-0.1-0.8,0-1.6,0.3-2.3c0.2,0.7,0.3,1.5,0.2,2.3
			C136.3,132,136.2,132.8,136,133.5z"/>
		<path id="Trazado_123707" class="st11" d="M135.9,142.7c-0.2-0.7-0.3-1.5-0.2-2.3c-0.1-0.8,0-1.6,0.3-2.3c0.2,0.7,0.3,1.5,0.2,2.3
			C136.3,141.2,136.2,141.9,135.9,142.7z"/>
		<path id="Trazado_123708" class="st11" d="M135.9,151.9c-0.2-0.7-0.3-1.5-0.2-2.3c-0.1-0.8,0-1.6,0.3-2.3c0.2,0.7,0.3,1.5,0.2,2.3
			C136.2,150.3,136.1,151.1,135.9,151.9z"/>
		<path id="Trazado_123709" class="st11" d="M138.1,158.8c-0.8,0.2-1.5,0.3-2.3,0.2c-0.5-0.5-0.1-0.1-0.2-0.2l0,0v-0.9
			c0-0.2,0-0.5,0.1-0.7c0-0.4,0.1-0.7,0.2-0.7s0.1,0.3,0.2,0.7c0,0.2,0,0.5,0,0.7c0,0.1,0,0.3,0,0.4v0.4l0,0l-0.2-0.2
			C136.5,158.4,137.3,158.5,138.1,158.8L138.1,158.8z"/>
		<path id="Trazado_123710" class="st11" d="M146.9,158.9c-0.7,0.2-1.5,0.3-2.2,0.2c-0.7,0.1-1.5,0-2.2-0.3c0.7-0.2,1.5-0.3,2.2-0.2
			C145.4,158.6,146.2,158.7,146.9,158.9z"/>
		<path id="Trazado_123711" class="st11" d="M155.6,159.1c-0.7,0.2-1.5,0.3-2.2,0.2c-0.7,0.1-1.5,0-2.2-0.3c0.7-0.2,1.5-0.3,2.2-0.2
			C154.2,158.8,154.9,158.9,155.6,159.1z"/>
		<path id="Trazado_123712" class="st11" d="M164.4,159.2c-1.5,0.3-2.9,0.3-4.4-0.1C161.5,158.9,163,158.9,164.4,159.2L164.4,159.2z
			"/>
		<path id="Trazado_123713" class="st11" d="M173.2,159.4c-1.5,0.3-2.9,0.3-4.4-0.1c0.7-0.2,1.5-0.3,2.2-0.2
			C171.7,159,172.5,159.1,173.2,159.4z"/>
		<path id="Trazado_123714" class="st11" d="M182,159.5c-0.7,0.2-1.5,0.3-2.2,0.2c-0.7,0.1-1.5,0-2.2-0.3c0.7-0.2,1.5-0.3,2.2-0.2
			C180.5,159.2,181.3,159.3,182,159.5z"/>
		<path id="Trazado_123715" class="st11" d="M189.3,155.3c0.1,0.1-0.6,0.8-1.6,1.5c-0.5,0.5-1.2,0.9-1.9,1.1
			c-0.1-0.1,0.6-0.8,1.6-1.5S189.2,155.2,189.3,155.3z"/>
		<path id="Trazado_123716" class="st11" d="M196.3,150c0.1,0.1-0.6,0.8-1.6,1.5c-0.5,0.5-1.2,0.9-1.9,1.1c-0.1-0.1,0.6-0.8,1.6-1.5
			S196.2,149.9,196.3,150z"/>
		<path id="Trazado_123717" class="st11" d="M191,93.5c0.1,0,0.1,0.6,0,1.2s-0.4,1.1-0.5,1.1s-0.1-0.6,0-1.2S190.8,93.4,191,93.5z"
			/>
		<path id="Trazado_123718" class="st11" d="M193.1,84c0.1,0.8,0,1.6-0.3,2.4c-0.1,0.8-0.4,1.6-0.8,2.3
			C192.1,87.1,192.4,85.5,193.1,84L193.1,84z"/>
		<path id="Trazado_123719" class="st11" d="M195.3,74.6c0,1.6-0.4,3.2-1.1,4.7C194.2,77.7,194.6,76.1,195.3,74.6z"/>
		<path id="Trazado_123720" class="st11" d="M197.3,65.2c0,1.6-0.4,3.2-1.1,4.7c-0.1-0.8,0-1.6,0.3-2.4
			C196.7,66.7,196.9,65.9,197.3,65.2L197.3,65.2z"/>
		<path id="Trazado_123721" class="st11" d="M199.5,55.8c0.1,0.8,0,1.6-0.3,2.4c-0.1,0.8-0.4,1.6-0.8,2.3
			C198.4,58.9,198.8,57.3,199.5,55.8L199.5,55.8z"/>
		<path id="Trazado_123722" class="st11" d="M201.6,46.4c0.1,0.8,0,1.6-0.3,2.4c-0.1,0.8-0.4,1.6-0.8,2.3c-0.1-0.8,0-1.6,0.3-2.4
			C200.9,47.9,201.2,47.1,201.6,46.4z"/>
		<path id="Trazado_123723" class="st11" d="M203.2,39.4c0.1,0,0.1,0.6,0,1.2s-0.4,1.1-0.5,1.1s-0.1-0.6,0-1.2S203,39.4,203.2,39.4z
			"/>
		<path id="Trazado_123724" class="st11" d="M154.7,94.6c0.1-0.1,0.4,0.4,0.7,0.9s0.4,1.1,0.3,1.1s-0.4-0.4-0.7-0.9
			S154.6,94.6,154.7,94.6z"/>
		<path id="Trazado_123725" class="st11" d="M150.6,86.5c0.1-0.1,0.7,0.8,1.2,1.9c0.4,0.6,0.7,1.4,0.8,2.1c-0.1,0.1-0.7-0.8-1.2-1.9
			C151,88,150.7,87.3,150.6,86.5z"/>
		<path id="Trazado_123726" class="st11" d="M146.6,78.4c1,1.2,1.7,2.6,2,4c-0.5-0.5-1-1.2-1.2-1.9
			C146.9,79.9,146.7,79.2,146.6,78.4L146.6,78.4z"/>
		<path id="Trazado_123727" class="st11" d="M142.5,70.4c0.1-0.1,0.7,0.8,1.2,1.9c0.4,0.6,0.7,1.4,0.8,2.1c-0.1,0.1-0.7-0.8-1.2-1.9
			C142.9,71.9,142.6,71.1,142.5,70.4L142.5,70.4z"/>
		<path id="Trazado_123728" class="st11" d="M138.4,62.3c0.5,0.5,1,1.2,1.2,1.9c0.4,0.6,0.7,1.4,0.8,2.1c-0.5-0.5-1-1.2-1.2-1.9
			C138.8,63.8,138.6,63.1,138.4,62.3z"/>
		<path id="Trazado_123729" class="st11" d="M134.4,54.3c0.1-0.1,0.7,0.8,1.2,1.9c0.4,0.6,0.7,1.4,0.8,2.1
			C135.5,57.1,134.8,55.7,134.4,54.3L134.4,54.3z"/>
		<path id="Trazado_123730" class="st11" d="M130.3,46.2c1,1.2,1.6,2.6,2,4c-0.1,0.1-0.7-0.8-1.2-1.9
			C130.7,47.7,130.4,47,130.3,46.2z"/>
		<path id="Trazado_123731" class="st11" d="M126.3,38.1c0.1-0.1,0.7,0.8,1.2,1.9c0.4,0.6,0.7,1.4,0.8,2.1c-0.5-0.5-1-1.2-1.2-1.9
			C126.7,39.6,126.4,38.9,126.3,38.1z"/>
		<path id="Trazado_123732" class="st11" d="M123.2,32c0.1-0.1,0.4,0.4,0.7,0.9s0.4,1.1,0.3,1.1s-0.4-0.4-0.7-0.9
			S123.1,32.1,123.2,32z"/>
		<path id="Trazado_123733" class="st11" d="M82.2,108.6c0,0.1-0.5,0.2-1.2,0.1s-1.1-0.2-1.1-0.3s0.5-0.2,1.2-0.2
			S82.2,108.4,82.2,108.6z"/>
		<path id="Trazado_123734" class="st11" d="M91.6,109.3c-1.6,0.2-3.2,0.1-4.7-0.4c0.8-0.2,1.6-0.2,2.4-0.1
			C90,108.9,90.8,109,91.6,109.3L91.6,109.3z"/>
		<path id="Trazado_123735" class="st11" d="M101,110c-1.6,0.2-3.2,0.1-4.7-0.4C97.9,109.5,99.5,109.6,101,110z"/>
		<path id="Trazado_123736" class="st11" d="M110.4,110.8c-1.6,0.2-3.2,0.1-4.7-0.4c0.8-0.2,1.6-0.2,2.4-0.1
			C108.9,110.3,109.7,110.5,110.4,110.8L110.4,110.8z"/>
		<path id="Trazado_123737" class="st11" d="M119.8,111.5c-0.8,0.2-1.6,0.2-2.4,0.1c-0.8,0-1.6-0.1-2.3-0.4c0.8-0.2,1.6-0.2,2.4-0.1
			C118.3,111.1,119.1,111.2,119.8,111.5z"/>
		<path id="Trazado_123738" class="st11" d="M129.2,112.3c-0.8,0.2-1.6,0.2-2.4,0.1c-0.8,0-1.6-0.1-2.3-0.4
			C126.1,111.7,127.7,111.8,129.2,112.3z"/>
		<path id="Trazado_123739" class="st11" d="M136.2,112.8c0,0.1-0.5,0.2-1.2,0.2s-1.1-0.2-1.1-0.3s0.5-0.2,1.2-0.1
			S136.2,112.7,136.2,112.8z"/>
		<circle id="Elipse_4205" class="st4" cx="104" cy="-2.5" r="40.8"/>
		<path id="Trazado_123740" class="st11" d="M144.8-2.4c0-0.2,0-0.4-0.1-0.7c-0.1-0.4-0.1-1.1-0.1-1.9c0-0.5,0-0.9-0.1-1.4
			c0-0.5-0.2-1.1-0.2-1.7s-0.2-1.3-0.3-2c-0.1-0.7-0.3-1.5-0.5-2.2c-0.9-3.8-2.5-7.5-4.5-10.8c-2.7-4.5-6.2-8.4-10.3-11.5l-1.8-1.3
			c-0.6-0.4-1.3-0.8-1.9-1.2c-0.6-0.4-1.3-0.8-2-1.1l-2.1-1l-1.1-0.5l-1.1-0.4l-2.3-0.8c-0.8-0.3-1.6-0.4-2.4-0.6
			c-0.8-0.2-1.6-0.4-2.5-0.6c-1.7-0.3-3.4-0.5-5.1-0.6c-0.9,0-1.8-0.1-2.6-0.1l-2.7,0.1c-0.5,0-0.9,0-1.4,0.1l-1.4,0.2
			c-0.9,0.1-1.9,0.2-2.7,0.4c-1.8,0.4-3.6,0.9-5.4,1.6c-1.8,0.7-3.6,1.4-5.3,2.3c-0.9,0.5-1.7,1-2.5,1.5c-0.4,0.3-0.9,0.5-1.2,0.8
			L80-35c-1.6,1.2-3.2,2.5-4.6,3.9l-2.1,2.3l-0.5,0.6l-0.5,0.6l-0.9,1.2l-0.9,1.2l-0.8,1.3l-0.8,1.3l-0.4,0.7L68-21.1l-1.4,2.9l-1,3
			c-2.8,8.3-2.8,17.3,0,25.6c0.4,1,0.7,2,1.1,3s0.9,1.9,1.4,2.9l0.3,0.7l0.4,0.7l0.8,1.3l0.8,1.3l0.9,1.2l0.9,1.2l0.5,0.6l0.5,0.6
			l2.1,2.3c1.5,1.4,3,2.7,4.6,3.9l1.2,0.9c0.4,0.3,0.8,0.5,1.2,0.8c0.9,0.5,1.7,1,2.5,1.5c1.7,0.9,3.5,1.7,5.3,2.3
			c1.8,0.6,3.6,1.2,5.4,1.6c0.9,0.2,1.9,0.3,2.7,0.4l1.4,0.2c0.5,0.1,0.9,0.1,1.4,0.1l2.7,0.1c0.9,0,1.8-0.1,2.6-0.1
			c1.7-0.1,3.4-0.3,5.1-0.6c0.8-0.1,1.6-0.3,2.5-0.6c0.8-0.2,1.6-0.4,2.4-0.6l2.3-0.8l1.1-0.4l1.1-0.5l2.1-1c0.7-0.3,1.3-0.7,2-1.1
			c0.6-0.4,1.3-0.8,1.9-1.2l1.8-1.3c4.1-3.1,7.7-7.1,10.3-11.5c2-3.4,3.5-7,4.4-10.9c0.2-0.7,0.4-1.5,0.5-2.2c0.1-0.7,0.2-1.4,0.3-2
			s0.2-1.2,0.2-1.7s0.1-1,0.1-1.4c0.1-0.8,0.1-1.5,0.1-1.9S144.8-2.4,144.8-2.4l0,0.7c0,0.4,0,1.1-0.1,1.9c0,0.5,0,1-0.1,1.4
			c-0.1,0.5-0.1,1.1-0.2,1.7s-0.2,1.3-0.3,2c-0.1,0.8-0.3,1.5-0.5,2.2c-0.9,3.9-2.4,7.5-4.4,10.9c-2.7,4.5-6.2,8.5-10.4,11.7
			l-1.8,1.3c-0.6,0.4-1.3,0.8-1.9,1.2c-0.6,0.4-1.3,0.8-2,1.2l-2.1,1l-1.1,0.5l-1.1,0.4l-2.3,0.8c-0.8,0.3-1.6,0.4-2.4,0.7
			c-0.8,0.2-1.6,0.4-2.5,0.6c-1.7,0.3-3.4,0.5-5.2,0.6c-0.9,0-1.8,0.1-2.7,0.1l-2.7-0.1c-0.5,0-0.9,0-1.4-0.1l-1.4-0.2
			c-0.9-0.1-1.9-0.3-2.8-0.4c-3.8-0.8-7.4-2.2-10.8-3.9c-0.9-0.5-1.7-1-2.6-1.5c-0.4-0.3-0.9-0.5-1.3-0.8l-1.2-0.9
			c-1.6-1.2-3.2-2.5-4.6-4l-2.1-2.3l-0.5-0.6l-0.5-0.6L71,21.8l-0.9-1.3l-0.8-1.4l-0.9-1.4L68,17.1l-0.4-0.7c-0.5-1-0.9-1.9-1.4-2.9
			c-0.4-1-0.7-2-1.1-3c-2.8-8.4-2.8-17.5,0-25.9l1.1-3c0.5-1,0.9-1.9,1.4-2.9L68-22l0.4-0.7l0.8-1.4l0.8-1.4l0.9-1.3l0.9-1.3
			l0.5-0.6l0.5-0.6l2.1-2.3c1.5-1.4,3-2.7,4.6-3.9l1.2-0.9c0.4-0.3,0.9-0.5,1.3-0.8c0.9-0.5,1.7-1.1,2.6-1.5
			c3.4-1.8,7.1-3.1,10.8-3.9c0.9-0.2,1.9-0.3,2.8-0.4l1.4-0.2c0.5-0.1,0.9-0.1,1.4-0.1l2.7-0.1c0.9,0,1.8,0.1,2.7,0.1
			c1.7,0.1,3.5,0.3,5.2,0.6c0.8,0.1,1.7,0.3,2.5,0.6c0.8,0.2,1.6,0.4,2.4,0.6l2.3,0.9l1.1,0.4l1.1,0.5l2.1,1c0.7,0.3,1.3,0.8,2,1.2
			s1.3,0.8,1.9,1.2l1.8,1.3c4.2,3.2,7.7,7.1,10.4,11.7c2,3.4,3.5,7.1,4.5,10.9c0.2,0.7,0.4,1.5,0.5,2.2c0.1,0.7,0.2,1.4,0.3,2
			s0.2,1.2,0.2,1.7s0,1,0.1,1.4c0,0.8,0.1,1.5,0.1,1.9C144.7-2.9,144.8-2.7,144.8-2.4z"/>
		<path id="Trazado_123741" class="st14" d="M108.2-25c1.2,0.1,2.4,0.5,3.5,0.9l2.6-2.2l4.4,3.4l-1.4,3.1c0.8,1,1.4,2,1.9,3.1
			l3.4,0.3l0.8,5.5l-3.2,1.2c-0.1,1.2-0.5,2.4-0.9,3.5l2.2,2.6L118,0.8l-3.1-1.4c-1,0.8-2,1.4-3.1,1.9l-0.3,3.4l-5.6,0.8l-1.2-3.1
			c-1.2-0.2-2.4-0.5-3.5-0.9l-2.6,2.2l-4.4-3.4L95.7-3c-0.8-1-1.4-2-1.9-3.1l-3.4-0.3L89.7-12l3.1-1.2c0.2-1.2,0.5-2.4,0.9-3.5
			l-2.2-2.6l3.4-4.4l3.1,1.4c1-0.8,2-1.4,3.1-1.9l0.3-3.4l5.6-0.8L108.2-25z M106-17.4c0,2.9,2.4,5.3,5.3,5.3s5.3-2.4,5.3-5.3
			s-2.4-5.3-5.3-5.3C108.3-22.7,106-20.3,106-17.4L106-17.4z"/>
		<path id="Trazado_123742" class="st8" d="M106-17.4c0.1,0,0.2-0.1,0.4-0.1c0.4,0,0.7,0,1.1,0c1.4,0.1,2.7,0.7,3.7,1.7
			c2.4,2.4,2.5,6.3,0.1,8.7c-2.4,2.4-6.3,2.5-8.7,0.1c-2-2-2.4-5.1-1-7.5c0.7-1.2,1.8-2.1,3.1-2.6c0.3-0.1,0.7-0.2,1.1-0.3
			C105.8-17.4,105.9-17.4,106-17.4c-0.4,0.1-0.9,0.3-1.3,0.5c-1.2,0.5-2.2,1.4-2.9,2.6c-0.9,1.7-0.9,3.8,0,5.6
			c0.5,1,1.4,1.8,2.4,2.4c2.8,1.5,6.3,0.4,7.8-2.4c1.2-2.2,0.8-5-1-6.8c-0.9-0.9-2.1-1.6-3.4-1.7C107-17.3,106.5-17.4,106-17.4z"/>
		<path id="Trazado_123743" class="st8" d="M108.2-25l-0.1-0.2l-0.2-0.6l-0.9-2.4h0.1l-5.6,0.8l0.1-0.1c-0.1,1-0.2,2.1-0.3,3.4v0.1
			h-0.1c-1.1,0.5-2.2,1.1-3.1,1.9l-0.1,0.1H98l-3.1-1.4l0.2-0.1l-3.4,4.4v-0.2l2.2,2.6l0.1,0.1v0.1c-0.5,1.1-0.8,2.3-0.9,3.5v0.1H93
			l-3.1,1.2L90-12c0.2,1.7,0.5,3.6,0.8,5.6l-0.2-0.2l3.4,0.3H94v0.1c0.5,1.1,1.1,2.1,1.9,3.1l0.1,0.1l-0.1,0.1l-1.4,3.1l-0.1-0.3
			l4.4,3.4h-0.3l2.6-2.2l0.1-0.1l0.1,0.1c1.1,0.5,2.3,0.8,3.4,0.9l0,0l0.2,0.2l0,0v0.1l0.1,0.2l0.1,0.4l0.3,0.8
			c0.2,0.5,0.4,1.1,0.6,1.6L105.9,5l5.6-0.7l-0.2,0.2c0.1-1.1,0.2-2.2,0.3-3.4V1l0.1-0.1c1.1-0.5,2.1-1.1,3.1-1.8l0.1-0.1l0.1,0.1
			l3.1,1.4l-0.3,0.1c1.1-1.5,2.3-3,3.4-4.4v0.3c-0.7-0.9-1.4-1.7-2.2-2.6l-0.1-0.1l0.1-0.1c0.5-1.1,0.8-2.3,0.9-3.5v-0.1l0.1,0
			l3.2-1.2l-0.1,0.2c-0.3-1.9-0.5-3.8-0.7-5.6l0.2,0.2l-3.4-0.3H119v-0.1c-0.5-1.1-1.1-2.2-1.8-3.1l-0.1-0.1V-20l1.4-3.1l0,0.2
			l-4.4-3.4h0.1l-2.6,2.1h0c-0.8-0.4-1.7-0.6-2.6-0.8l-0.7-0.1L108.2-25c0.1,0,0.2,0,0.2,0c0.2,0,0.4,0,0.7,0.1
			c0.9,0.2,1.8,0.4,2.6,0.8h-0.1l2.6-2.2l0.1-0.1l0.1,0.1l4.4,3.3l0.1,0.1l0,0.1l-1.4,3.1v-0.2c0.8,1,1.4,2,1.9,3.2l-0.1-0.1
			l3.4,0.3h0.1v0.1l0.8,5.5v0.2l-0.1,0.1l-3.1,1.2l0.1-0.2c-0.2,1.2-0.5,2.4-0.9,3.6v-0.2c0.7,0.8,1.4,1.7,2.2,2.6l0.1,0.1l-0.1,0.1
			l-3.4,4.4l-0.1,0.1L117.9,1l-3.1-1.4h0.2c-1,0.8-2,1.4-3.2,1.9l0.1-0.2c-0.1,1.1-0.2,2.2-0.3,3.3v0.2h-0.2L106,5.5h-0.2l-0.1-0.2
			l-0.6-1.6L104.9,3l-0.1-0.4l-0.1-0.2V2.3l0,0l0.2,0.2l0,0c-1.2-0.2-2.4-0.5-3.6-0.9h0.2l-2.6,2.2l-0.1,0.1l-0.1-0.1l-4.4-3.4
			L94,0.2L94.1,0l1.4-3.1v0.2c-0.8-1-1.4-2.1-1.9-3.2l0.2,0.1l-3.3-0.3h-0.2v-0.2c-0.3-1.9-0.5-3.8-0.7-5.6v-0.2l0.2-0.1l3.1-1.2
			l-0.1,0.2c0.2-1.2,0.5-2.4,0.9-3.6v0.2c-0.8-0.9-1.5-1.8-2.2-2.6l-0.1-0.1l0.1-0.1l3.4-4.4l0.1-0.1l0.1,0.1l3.1,1.4H98
			c1-0.8,2-1.4,3.2-1.9l-0.1,0.1c0.1-1.2,0.2-2.3,0.3-3.4v-0.1h0.1l5.6-0.7h0.1v0.1c0.4,1,0.6,1.8,0.8,2.4c0.1,0.2,0.2,0.5,0.2,0.6
			C108.2-25.2,108.2-25.1,108.2-25z"/>
		<path id="Trazado_123744" class="st15" d="M98.4,7.7c0.7,0.1,1.3,0.3,1.9,0.5l1.4-1.2l2.4,1.9l-0.8,1.7c0.4,0.5,0.8,1.1,1,1.7
			l1.9,0.2l0.4,3l-1.7,0.6c-0.1,0.7-0.3,1.3-0.5,1.9l1.2,1.4l-1.9,2.4l-1.7-0.8c-0.5,0.4-1.1,0.7-1.7,1l-0.2,1.9l-3,0.4l-0.6-1.7
			c-0.7-0.1-1.3-0.3-1.9-0.5l-1.4,1.2l-2.4-1.9l0.8-1.7c-0.4-0.5-0.8-1.1-1-1.7L88.7,18l-0.4-3l1.7-0.6c0.1-0.7,0.3-1.3,0.5-1.9
			l-1.2-1.4l1.9-2.4l1.7,0.8c0.5-0.4,1.1-0.8,1.7-1l0.2-1.9l3-0.4L98.4,7.7L98.4,7.7z M97.2,11.9c-1.8,0.2-3.1,1.9-2.8,3.7
			c0.2,1.8,1.9,3.1,3.7,2.8s3.1-1.9,2.8-3.7c0,0,0,0,0-0.1C100.6,12.9,99,11.7,97.2,11.9z"/>
		<circle id="Elipse_4206" class="st4" cx="215.5" cy="1.6" r="40.8"/>
		<path id="Trazado_123745" class="st11" d="M256.2,1.6c0-0.2,0-0.4-0.1-0.7c-0.1-0.4-0.1-1.1-0.1-1.9c0-0.4-0.1-0.9-0.1-1.4
			s-0.2-1.1-0.3-1.7s-0.2-1.3-0.3-2s-0.4-1.4-0.5-2.2c-1-3.8-2.5-7.5-4.5-10.8c-2.7-4.5-6.2-8.4-10.3-11.5l-1.8-1.3
			c-0.6-0.4-1.3-0.8-1.9-1.2c-0.6-0.4-1.3-0.8-2-1.1l-2.1-1l-1.1-0.5l-1.1-0.4l-2.3-0.8c-0.8-0.2-1.6-0.4-2.4-0.6
			c-0.8-0.2-1.6-0.4-2.5-0.6c-1.7-0.3-3.4-0.5-5.1-0.6c-0.9,0-1.8-0.1-2.6-0.1l-2.7,0.1c-0.5,0-0.9,0-1.4,0.1l-1.4,0.2
			c-0.9,0.1-1.9,0.3-2.7,0.4c-3.7,0.8-7.3,2.2-10.7,3.9c-0.9,0.5-1.7,1-2.5,1.5c-0.4,0.3-0.9,0.5-1.3,0.8l-1.2,0.9
			c-1.6,1.2-3.2,2.5-4.6,3.9l-2.1,2.3l-0.5,0.6l-0.5,0.6l-0.9,1.2l-0.9,1.2l-0.8,1.3l-0.8,1.3l-0.4,0.7l-0.3,0.7l-1.4,2.9l-1.1,3
			c-2.8,8.3-2.8,17.3,0,25.6l1.1,3l1.4,2.9l0.4,0.7l0.4,0.7l0.8,1.3l0.8,1.3l0.9,1.2l0.9,1.2l0.5,0.6l0.5,0.6l2.1,2.3
			c1.5,1.4,3,2.7,4.6,3.9l1.2,0.9c0.4,0.3,0.8,0.5,1.3,0.8c0.8,0.5,1.7,1,2.5,1.5c1.7,0.9,3.5,1.7,5.3,2.3c1.8,0.6,3.6,1.2,5.4,1.6
			c0.9,0.2,1.9,0.3,2.7,0.4l1.4,0.2c0.5,0.1,0.9,0.1,1.4,0.1l2.7,0.1c0.9,0,1.8-0.1,2.6-0.1c1.7-0.1,3.4-0.3,5.1-0.6
			c0.8-0.1,1.6-0.3,2.5-0.6c0.8-0.2,1.6-0.4,2.4-0.6l2.3-0.8l1.1-0.4l1.1-0.5l2.1-1c0.7-0.3,1.3-0.8,2-1.1s1.3-0.8,1.9-1.2l1.8-1.3
			c4.2-3.1,7.7-7.1,10.3-11.5c2-3.4,3.6-7,4.5-10.8c0.2-0.8,0.4-1.5,0.5-2.2s0.2-1.4,0.3-2s0.2-1.2,0.3-1.7s0.1-1,0.1-1.4
			c0-0.8,0.1-1.5,0.1-1.9S256.3,1.7,256.2,1.6l0,0.7c0,0.4,0,1.1-0.1,1.9c0,0.5,0,1-0.1,1.4c-0.1,0.5-0.2,1.1-0.2,1.7
			s-0.2,1.3-0.3,2s-0.3,1.4-0.5,2.2c-0.9,3.8-2.4,7.5-4.5,10.9c-2.7,4.5-6.2,8.5-10.3,11.6l-1.8,1.3c-0.6,0.4-1.3,0.8-1.9,1.2
			c-0.6,0.4-1.3,0.8-2,1.2l-2.2,1l-1.1,0.5l-1.1,0.4l-2.3,0.8c-0.8,0.3-1.6,0.4-2.4,0.7c-0.8,0.2-1.6,0.4-2.5,0.6
			c-1.7,0.3-3.4,0.5-5.2,0.6c-0.9,0-1.8,0.1-2.7,0.1l-2.7-0.1c-0.5,0-0.9,0-1.4-0.1l-1.4-0.2c-0.9-0.1-1.9-0.3-2.8-0.4
			c-1.9-0.4-3.7-1-5.5-1.6c-1.8-0.7-3.6-1.4-5.4-2.3c-0.9-0.5-1.7-1-2.6-1.5c-0.4-0.3-0.9-0.5-1.3-0.8l-1.2-0.9
			c-1.6-1.2-3.2-2.5-4.6-4l-2.1-2.3l-0.5-0.6l-0.5-0.6l-0.9-1.3l-0.9-1.3l-0.8-1.4l-0.8-1.4l-0.4-0.7l-0.3-0.7
			c-0.5-0.9-0.9-1.9-1.4-2.9l-1.1-3c-2.8-8.4-2.8-17.5,0-25.9l1.1-3l1.4-2.9l0.4-0.7l0.4-0.7l0.8-1.4l0.8-1.4l0.9-1.3l0.9-1.2
			l0.5-0.6l0.5-0.6c0.7-0.8,1.4-1.5,2.1-2.3c1.5-1.4,3-2.7,4.6-3.9l1.2-0.9c0.4-0.3,0.9-0.5,1.3-0.8c0.9-0.5,1.7-1,2.6-1.5
			c1.7-0.9,3.5-1.7,5.4-2.3c1.8-0.6,3.6-1.2,5.5-1.6c0.9-0.2,1.9-0.3,2.8-0.4l1.4-0.2c0.5-0.1,0.9-0.1,1.4-0.1l2.7-0.1
			c0.9,0,1.8,0.1,2.7,0.1c1.7,0.1,3.5,0.3,5.2,0.6c0.8,0.1,1.7,0.3,2.5,0.6c0.8,0.2,1.6,0.4,2.4,0.7l2.3,0.8l1.1,0.5l1.1,0.5l2.1,1
			c0.7,0.3,1.3,0.8,2,1.2s1.3,0.8,1.9,1.2l1.8,1.3c4.2,3.2,7.7,7.1,10.4,11.7c2,3.4,3.5,7.1,4.5,10.9c0.2,0.8,0.4,1.5,0.5,2.2
			s0.2,1.4,0.3,2s0.2,1.2,0.2,1.7s0,1,0.1,1.4c0,0.8,0.1,1.5,0.1,1.9S256.2,1.6,256.2,1.6z"/>
		<circle id="Elipse_4207" class="st3" cx="214.3" cy="1.8" r="20.5"/>
		<path id="Trazado_123746" class="st8" d="M193.8,0.5c0,0.1,0,0.2,0,0.3c0,0.2,0,0.6,0,1v0.7c0,0.3,0,0.6,0.1,0.9
			c0.1,0.7,0.2,1.4,0.3,2.1c0.4,1.9,1,3.8,1.9,5.6c4.5,8.7,14.5,13,23.8,10.2c0.9-0.3,1.8-0.6,2.7-1c0.9-0.4,1.8-0.9,2.6-1.4
			c0.8-0.5,1.7-1.1,2.4-1.8c0.8-0.7,1.5-1.4,2.1-2.2c1.4-1.6,2.5-3.4,3.3-5.4c0.8-2,1.3-4.1,1.5-6.3c0.1-2.2-0.1-4.4-0.6-6.5
			c-0.5-2-1.4-4-2.5-5.8c-0.6-0.9-1.2-1.7-1.9-2.5c-0.7-0.7-1.4-1.5-2.2-2.1c-0.8-0.6-1.5-1.2-2.4-1.8c-9.2-5.7-21.3-3.2-27.5,5.7
			c-1.1,1.6-2,3.4-2.6,5.3c-0.2,0.7-0.4,1.4-0.6,2.1c-0.1,0.3-0.1,0.6-0.2,0.8S194-1.1,194-0.9c-0.1,0.4-0.1,0.7-0.1,0.9
			C193.8,0.1,193.8,0.3,193.8,0.5c0-0.2,0-0.3,0-0.4c0-0.2,0.1-0.6,0.1-1c0-0.2,0-0.5,0.1-0.7s0.1-0.5,0.2-0.9
			c0.1-0.7,0.3-1.4,0.5-2.1c0.6-1.9,1.5-3.7,2.6-5.4c6.4-9.4,19.2-11.9,28.6-5.5c0.7,0.4,1.3,0.9,1.9,1.4c0.8,0.7,1.5,1.4,2.2,2.1
			c0.7,0.8,1.3,1.6,1.9,2.5c1.2,1.8,2,3.8,2.6,5.9c0.5,2.2,0.8,4.4,0.6,6.6c-0.2,2.2-0.7,4.4-1.5,6.5c-0.8,2-1.9,3.9-3.3,5.6
			c-0.7,0.8-1.4,1.6-2.2,2.3c-0.8,0.7-1.6,1.3-2.5,1.9c-0.8,0.5-1.7,1-2.6,1.5c-4.3,1.9-9.1,2.2-13.7,1.1
			c-5.7-1.5-10.6-5.4-13.2-10.7c-0.9-1.8-1.5-3.7-1.9-5.6c-0.1-0.7-0.2-1.4-0.2-2.2c0-0.3-0.1-0.6-0.1-0.9V1.8c0-0.3,0-0.6,0-1
			C193.8,0.7,193.8,0.6,193.8,0.5L193.8,0.5z"/>
		<path id="Trazado_123747" class="st8" d="M223.6,2.4c-0.2,0-0.5,0-0.7,0l-2,0H214v-9.1c0-0.9,0-1.7,0-2.3c0-0.3,0-0.6,0-0.9
			c0,0.3,0.1,0.6,0.1,0.9v2.3c0,1.9,0,4.6,0,7.6v1.3l-0.1-0.1c2.7,0,5,0,6.7,0h2C223.1,2.3,223.3,2.4,223.6,2.4z"/>
		<path id="Trazado_123748" class="st8" d="M214.2-15.3c0.2,1.1,0.2,2.3,0,3.4C214.1-13,214.1-14.2,214.2-15.3z"/>
		<path id="Trazado_123749" class="st8" d="M223.6-12.6c-0.7,0.9-1.5,1.7-2.4,2.4c0.3-0.5,0.7-0.9,1.1-1.3
			C222.7-11.9,223.1-12.3,223.6-12.6L223.6-12.6z"/>
		<path id="Trazado_123750" class="st8" d="M229-6.6c-0.4,0.4-0.9,0.7-1.4,0.9c-0.5,0.3-1,0.6-1.5,0.8c0.4-0.4,0.8-0.8,1.3-1
			C228-6.2,228.5-6.5,229-6.6z"/>
		<path id="Trazado_123751" class="st8" d="M232.2,2.3c-1.6,0.2-3.1,0.2-4.7,0C229.1,2.1,230.7,2.1,232.2,2.3z"/>
		<path id="Trazado_123752" class="st8" d="M199.7,1.9c-1.5,0.2-3,0.2-4.4,0C196.7,1.8,198.2,1.8,199.7,1.9z"/>
		<path id="Trazado_123753" class="st8" d="M202,8.5c-0.5,0.6-1.1,1.1-1.7,1.5c-0.6,0.5-1.2,1-1.9,1.3C199.5,10.3,200.7,9.3,202,8.5
			z"/>
		<path id="Trazado_123754" class="st8" d="M207.7,13.6c-0.3,0.7-0.7,1.4-1.1,2c-0.4,0.7-0.8,1.3-1.2,1.9c0.2-0.7,0.6-1.4,1-2.1
			C206.6,14.8,207.1,14.2,207.7,13.6L207.7,13.6z"/>
		<path id="Trazado_123755" class="st8" d="M214.2,20.2c-0.2-1.6-0.2-3.1,0-4.7C214.4,17.1,214.4,18.7,214.2,20.2z"/>
		<path id="Trazado_123756" class="st8" d="M224.4,17.1c-0.7-0.3-1.4-0.8-1.9-1.3c-0.6-0.5-1.2-1.1-1.6-1.7c0.6,0.5,1.2,1,1.8,1.5
			C223.2,16,223.8,16.6,224.4,17.1z"/>
		<path id="Trazado_123757" class="st8" d="M229.1,12c-0.6-0.4-1.1-0.9-1.6-1.4c-0.5-0.5-1-1-1.4-1.6C227.3,9.9,228.3,10.9,229.1,12
			z"/>
		<path id="Trazado_123758" class="st8" d="M201.7-4.4c-0.5-0.3-1-0.7-1.4-1.2c-0.5-0.4-0.9-0.9-1.2-1.4c0.5,0.3,1,0.7,1.4,1.2
			C201-5.3,201.4-4.9,201.7-4.4z"/>
		<path id="Trazado_123759" class="st8" d="M207.6-10.6c-0.5-0.3-1-0.7-1.4-1.2c-0.5-0.4-0.8-0.8-1.2-1.3c0.5,0.3,1,0.7,1.4,1.2
			C206.9-11.5,207.3-11.1,207.6-10.6z"/>
		<circle id="Elipse_4208" class="st11" cx="229.9" cy="-15.3" r="10.8"/>
		<path id="Trazado_123760" class="st1" d="M235.1-18.7c-0.4,0.6-0.8,1.2-1.3,1.7c-0.9,1-2.1,2.4-3.4,3.9c-0.4,0.4-0.8,0.8-1.1,1.2
			l-0.2,0.2l-0.2-0.1c-1.2-1.1-2.3-2.1-3-2.8c-0.4-0.3-0.8-0.7-1.1-1.2c0.5,0.3,0.9,0.6,1.3,1c0.8,0.6,1.9,1.6,3.1,2.7h-0.3
			c0.3-0.4,0.7-0.8,1.1-1.2c1.4-1.5,2.6-2.9,3.5-3.8C234-17.8,234.5-18.3,235.1-18.7z"/>
		<path id="Trazado_123761" class="st11" d="M132.3,161.9c-0.1-0.1,0.6-0.9,1.6-1.7c0.5-0.6,1.2-1,1.9-1.4c-0.4,0.7-0.9,1.3-1.6,1.7
			C133.2,161.3,132.4,162,132.3,161.9z"/>
		<path id="Trazado_123762" class="st11" d="M125.5,168.1c-0.1-0.1,0.6-0.9,1.6-1.7c0.5-0.6,1.2-1,1.9-1.4c-0.4,0.7-0.9,1.3-1.6,1.7
			C126.4,167.5,125.5,168.2,125.5,168.1z"/>
		<path id="Trazado_123763" class="st11" d="M118.6,174.3c-0.1-0.1,0.6-0.9,1.6-1.7c0.5-0.6,1.2-1,1.9-1.4c0.1,0.1-0.6,0.9-1.6,1.7
			C119.9,173.5,119.3,173.9,118.6,174.3z"/>
		<path id="Trazado_123764" class="st11" d="M111.7,180.4c-0.1-0.1,0.6-0.9,1.6-1.7c0.5-0.6,1.2-1,1.9-1.4c-0.4,0.7-0.9,1.3-1.6,1.7
			C113,179.6,112.4,180.1,111.7,180.4z"/>
		<path id="Trazado_123765" class="st11" d="M104.8,186.6c-0.1-0.1,0.6-0.9,1.6-1.7c0.5-0.6,1.2-1,1.9-1.4c-0.4,0.7-0.9,1.3-1.6,1.7
			C105.7,186.1,104.9,186.7,104.8,186.6z"/>
		<circle id="Elipse_4209" class="st4" cx="79.8" cy="219.7" r="40.8"/>
		<path id="Trazado_123766" class="st11" d="M120.6,219.7c0-0.2,0-0.4-0.1-0.7c-0.1-0.4-0.1-1.1-0.1-1.9c0-0.4-0.1-0.9-0.1-1.4
			s-0.2-1.1-0.3-1.7s-0.2-1.3-0.3-2c-0.1-0.7-0.3-1.5-0.5-2.2c-1-3.8-2.5-7.5-4.5-10.8c-2.7-4.5-6.2-8.4-10.3-11.5l-1.8-1.3
			c-0.6-0.4-1.3-0.8-1.9-1.2c-0.6-0.4-1.3-0.8-2-1.1l-2.1-1l-1.1-0.5l-1.1-0.4l-2.3-0.8c-0.8-0.3-1.6-0.4-2.4-0.6
			c-0.8-0.2-1.6-0.4-2.5-0.6c-1.7-0.3-3.4-0.5-5.1-0.6c-0.9,0-1.8-0.1-2.6-0.1l-2.7,0.1c-0.5,0-0.9,0-1.4,0.1l-1.4,0.2
			c-0.9,0.1-1.9,0.3-2.7,0.4c-1.8,0.4-3.6,0.9-5.4,1.6c-1.8,0.7-3.6,1.4-5.3,2.3c-0.9,0.5-1.7,1-2.5,1.5c-0.4,0.3-0.9,0.5-1.2,0.8
			l-1.2,0.9c-1.6,1.2-3.2,2.5-4.6,3.9l-2.1,2.3l-0.5,0.6l-0.5,0.6l-0.9,1.2l-0.9,1.2l-0.8,1.3l-0.8,1.3l-0.4,0.7l-0.3,0.7
			c-0.5,0.9-0.9,1.9-1.4,2.9s-0.7,2-1.1,3c-2.8,8.3-2.8,17.3,0,25.6c0.4,1,0.7,2,1.1,3s0.9,1.9,1.4,2.9l0.4,0.7l0.4,0.7l0.8,1.3
			l0.8,1.3l0.9,1.2l0.9,1.2l0.5,0.6l0.5,0.6l2.1,2.3c1.5,1.4,3,2.7,4.6,3.9l1.2,0.9c0.4,0.3,0.8,0.5,1.3,0.8c0.8,0.5,1.7,1,2.5,1.5
			c1.7,0.9,3.5,1.7,5.3,2.3c1.8,0.7,3.6,1.2,5.4,1.6c0.9,0.2,1.9,0.3,2.7,0.4l1.4,0.2c0.5,0.1,0.9,0.1,1.4,0.1l2.7,0.1
			c0.9,0,1.8-0.1,2.6-0.1c1.7-0.1,3.4-0.3,5.1-0.6c0.8-0.1,1.6-0.3,2.5-0.6c0.8-0.2,1.6-0.4,2.4-0.6l2.3-0.8l1.1-0.4l1.1-0.5l2.1-1
			c0.7-0.3,1.3-0.8,2-1.1s1.3-0.8,1.9-1.2l1.8-1.3c4.2-3.1,7.7-7.1,10.3-11.5c2-3.4,3.6-7,4.5-10.9c0.2-0.7,0.4-1.5,0.5-2.2
			c0.1-0.7,0.2-1.4,0.3-2s0.2-1.2,0.3-1.7s0.1-1,0.1-1.4c0.1-0.8,0.1-1.5,0.1-1.9S120.6,219.7,120.6,219.7l0,0.6
			c0,0.4,0,1.1-0.1,1.9c0,0.5,0,1-0.1,1.4c-0.1,0.5-0.1,1.1-0.2,1.7s-0.2,1.3-0.3,2c-0.1,0.8-0.3,1.5-0.5,2.2
			c-0.9,3.8-2.4,7.5-4.5,10.9c-2.7,4.5-6.2,8.5-10.4,11.6l-1.8,1.3c-0.6,0.4-1.3,0.8-1.9,1.2c-0.6,0.4-1.3,0.8-2,1.2l-2.1,1
			l-1.1,0.5l-1.1,0.4l-2.3,0.8c-0.8,0.3-1.6,0.4-2.4,0.7c-0.8,0.2-1.6,0.4-2.5,0.6c-1.7,0.3-3.4,0.5-5.2,0.6c-0.9,0-1.8,0.1-2.7,0.1
			l-2.7-0.1c-0.5,0-0.9,0-1.4-0.1l-1.4-0.2c-0.9-0.1-1.9-0.2-2.8-0.4c-1.9-0.4-3.7-0.9-5.5-1.6c-1.8-0.7-3.6-1.4-5.4-2.3
			c-0.9-0.5-1.7-1-2.6-1.5c-0.4-0.3-0.9-0.5-1.3-0.8l-1.2-0.9c-1.6-1.2-3.2-2.5-4.6-4l-2.1-2.3l-0.5-0.6l-0.5-0.6l-0.9-1.3l-0.9-1.3
			l-0.8-1.3l-0.8-1.4l-0.4-0.7l-0.4-0.7l-1.4-2.9l-1.1-3c-2.8-8.4-2.8-17.5,0-25.9l1.1-3c0.5-0.9,0.9-1.9,1.4-2.9l0.4-0.7l0.4-0.7
			l0.8-1.4l0.8-1.3l0.9-1.3l0.9-1.2l0.5-0.6l0.5-0.6l2.1-2.2c1.5-1.4,3-2.7,4.6-4l1.2-0.9c0.4-0.3,0.8-0.5,1.3-0.8
			c0.9-0.5,1.7-1,2.5-1.5c1.7-0.9,3.5-1.7,5.3-2.3c1.8-0.6,3.6-1.2,5.5-1.6c0.9-0.2,1.9-0.3,2.8-0.4l1.4-0.2
			c0.5-0.1,0.9-0.1,1.4-0.1l2.7-0.1c0.9,0,1.8,0.1,2.7,0.1c1.7,0.1,3.5,0.3,5.2,0.6c0.8,0.1,1.7,0.3,2.5,0.6
			c0.8,0.2,1.6,0.4,2.4,0.7l2.3,0.8l1.1,0.4l1.1,0.5l2.1,1c0.7,0.3,1.3,0.8,2,1.2s1.3,0.8,1.9,1.2l1.8,1.3
			c4.2,3.2,7.7,7.1,10.4,11.6c2,3.4,3.5,7.1,4.5,10.9c0.2,0.7,0.4,1.5,0.5,2.2c0.1,0.7,0.2,1.4,0.3,2s0.2,1.2,0.2,1.7s0,1,0.1,1.4
			c0,0.8,0.1,1.5,0.1,1.9C120.6,219.3,120.6,219.5,120.6,219.7z"/>
		<path id="Trazado_123767" class="st8" d="M100.3,237.9c-0.3,0-0.5,0.1-0.8,0l-2.2,0l-8.3,0.1l-27.4,0.1h-2.2v-0.3
			c0-10.2,0.1-19.4,0.1-26.1c0-3.3,0.1-5.9,0.1-7.8c0-0.9,0-1.6,0-2.1c0-0.2,0-0.5,0-0.7c0,0.2,0.1,0.5,0.1,0.7c0,0.5,0,1.2,0,2.1
			c0,1.9,0,4.6,0.1,7.8c0,6.7,0,15.8,0.1,26.1l-0.3-0.3h2l27.4,0.1l8.3,0.1l2.2,0C99.7,237.9,100,237.9,100.3,237.9z"/>
		<path id="Trazado_123768" class="st8" d="M95.8,210.1c-0.4,0.4-0.8,0.8-1.2,1.2l-3.4,3c-2.9,2.5-7,6-11.4,9.8l-0.7,0.6l-0.2,0.1
			l-0.2-0.2l-5.1-4.7H74l-7.5,6.2l-2.2,1.7c-0.3,0.2-0.5,0.4-0.8,0.6c0.2-0.3,0.5-0.5,0.7-0.7l2.1-1.9l7.4-6.3l0.2-0.1l0.2,0.1
			l5.1,4.7h-0.3l0.7-0.6c4.5-3.8,8.6-7.2,11.5-9.7l3.5-2.9C94.9,210.7,95.3,210.4,95.8,210.1z"/>
		<path id="Trazado_123769" class="st8" d="M95.8,218.6c-0.1-0.8-0.2-1.7-0.2-2.5c0-1.6-0.1-3.8-0.1-6.2l0.2,0.3h-0.4
			c-2.5,0-4.8,0-6.5-0.1c-0.9,0-1.8,0-2.7-0.2c0.9-0.1,1.8-0.2,2.7-0.2c1.7,0,3.9-0.1,6.5-0.1h0.7v0.3c0,2.4,0,4.6-0.1,6.2
			C96,216.9,95.9,217.8,95.8,218.6z"/>
		<circle id="Elipse_4210" class="st4" cx="39.1" cy="105.5" r="40.8"/>
		<path id="Trazado_123770" class="st11" d="M79.9,105.5c0-0.2,0-0.4-0.1-0.7c-0.1-0.4-0.1-1.1-0.1-1.9c0-0.4-0.1-0.9-0.1-1.4
			s-0.2-1.1-0.3-1.7s-0.2-1.3-0.3-2s-0.4-1.4-0.5-2.2c-1-3.8-2.5-7.5-4.5-10.8c-2.7-4.5-6.2-8.4-10.3-11.5l-1.7-1.3
			c-0.6-0.4-1.3-0.8-1.9-1.2c-0.6-0.4-1.3-0.8-2-1.1l-2.1-1l-1.1-0.5l-1.1-0.4l-2.3-0.8c-0.8-0.3-1.6-0.4-2.4-0.6
			c-0.8-0.2-1.6-0.4-2.5-0.6c-1.7-0.3-3.4-0.5-5.1-0.6c-0.9,0-1.8-0.1-2.6-0.1l-2.7,0.1c-0.5,0-0.9,0-1.4,0.1l-1.4,0.2
			c-0.9,0.1-1.9,0.2-2.7,0.4c-1.8,0.4-3.6,0.9-5.4,1.6c-1.8,0.7-3.6,1.4-5.3,2.3c-0.9,0.5-1.7,1-2.5,1.5c-0.4,0.3-0.9,0.5-1.2,0.8
			L15,73c-1.6,1.2-3.2,2.5-4.6,3.9l-2.1,2.3l-0.5,0.6l-0.5,0.6l-0.9,1.2l-0.9,1.2l-0.8,1.3l-0.8,1.3l-0.4,0.7l-0.3,0.7l-1.4,2.8
			l-1.1,3c-2.8,8.3-2.8,17.3,0,25.6c0.4,1,0.7,2,1.1,3s0.9,1.9,1.4,2.9l0.4,0.7l0.4,0.7l0.8,1.3l0.8,1.3l0.9,1.2l0.9,1.2l0.5,0.6
			l0.5,0.6l2.1,2.3c1.5,1.4,3,2.7,4.6,3.9l1.2,0.9c0.4,0.3,0.8,0.5,1.3,0.8c0.8,0.5,1.7,1,2.5,1.5c3.4,1.8,7,3.1,10.7,3.9
			c0.9,0.2,1.9,0.3,2.7,0.4l1.4,0.2c0.5,0.1,0.9,0.1,1.4,0.1l2.7,0.1c0.9,0,1.8-0.1,2.6-0.1c1.7-0.1,3.4-0.3,5.1-0.6
			c0.8-0.1,1.6-0.3,2.5-0.6c0.8-0.2,1.6-0.4,2.4-0.6l2.3-0.8l1.1-0.4l1.1-0.5l2.1-1c0.7-0.3,1.3-0.8,2-1.1s1.3-0.8,1.9-1.2l1.7-1.3
			c4.1-3.2,7.6-7.1,10.3-11.6c2-3.4,3.6-7,4.5-10.8c0.2-0.7,0.4-1.5,0.5-2.2c0.1-0.7,0.2-1.4,0.3-2s0.2-1.2,0.3-1.7s0.1-1,0.1-1.4
			c0.1-0.8,0.1-1.5,0.1-1.9S79.8,105.5,79.9,105.5l0,0.6c0,0.4,0,1.1-0.1,1.9c0,0.5,0,1-0.1,1.4c-0.1,0.5-0.1,1.1-0.2,1.7
			s-0.2,1.3-0.3,2c-0.1,0.8-0.3,1.5-0.5,2.2c-0.9,3.8-2.4,7.5-4.5,10.9c-2.7,4.5-6.2,8.5-10.3,11.7l-1.8,1.3
			c-0.6,0.4-1.3,0.8-1.9,1.2c-0.6,0.4-1.3,0.8-2,1.2l-2.1,1l-1.1,0.5l-1.1,0.4l-2.3,0.9c-0.8,0.3-1.6,0.4-2.4,0.6
			c-0.8,0.2-1.6,0.4-2.5,0.6c-1.7,0.3-3.4,0.5-5.2,0.6c-0.9,0-1.8,0.1-2.7,0.1l-2.7-0.1c-0.5,0-0.9,0-1.4-0.1l-1.4-0.2
			c-0.9-0.1-1.9-0.2-2.8-0.4c-1.9-0.4-3.7-0.9-5.5-1.6c-1.8-0.7-3.6-1.5-5.3-2.4c-0.9-0.5-1.7-1-2.6-1.5c-0.4-0.3-0.9-0.5-1.3-0.8
			l-1.2-0.9c-1.6-1.2-3.2-2.5-4.6-3.9L8,132.2l-0.5-0.6L7,131l-0.9-1.3l-0.9-1.3l-0.8-1.4l-0.8-1.4l-0.4-0.7l-0.4-0.7
			c-0.5-0.9-0.9-1.9-1.4-2.9l-1.2-3c-2.8-8.4-2.8-17.5,0-25.9l1.1-3l1.4-2.9L3.1,86l0.4-0.7l0.8-1.4l0.8-1.4L6,81.3L7,80l0.5-0.6
			L8,78.9l2.1-2.3c1.5-1.4,3-2.7,4.6-3.9l1.2-0.9c0.4-0.3,0.8-0.5,1.3-0.8c0.9-0.5,1.7-1.1,2.5-1.5c1.7-0.9,3.5-1.7,5.4-2.3
			c1.8-0.7,3.6-1.2,5.5-1.6c0.9-0.2,1.9-0.3,2.8-0.4l1.4-0.2c0.5-0.1,0.9-0.1,1.4-0.1l2.7-0.1c0.9,0,1.8,0.1,2.7,0.1
			c1.7,0.1,3.5,0.3,5.2,0.6c0.8,0.1,1.7,0.3,2.5,0.6c0.8,0.2,1.6,0.4,2.4,0.6l2.3,0.9l1.1,0.4l1.1,0.5l2.2,1c0.7,0.3,1.3,0.8,2,1.2
			s1.3,0.8,1.9,1.2l1.8,1.3c4.2,3.2,7.7,7.1,10.4,11.7c2,3.4,3.5,7.1,4.5,10.9c0.2,0.8,0.4,1.5,0.5,2.2s0.2,1.4,0.3,2
			s0.2,1.2,0.2,1.7s0,1,0.1,1.4c0,0.8,0.1,1.5,0.1,1.9C79.9,105.1,79.9,105.3,79.9,105.5z"/>
		<path id="Trazado_123771" class="st1" d="M40.1,87.8l4.4,9c0.2,0.3,0.5,0.6,0.9,0.6l9.9,1.4c0.6,0.1,1.1,0.7,1,1.3
			c0,0.3-0.2,0.5-0.3,0.7l-7.1,7c-0.3,0.3-0.4,0.6-0.3,1l1.7,9.8c0.1,0.6-0.3,1.2-0.9,1.3c-0.3,0-0.5,0-0.7-0.1l-8.8-4.6
			c-0.3-0.2-0.7-0.2-1.1,0l-8.8,4.6c-0.6,0.3-1.2,0.1-1.5-0.5c-0.1-0.2-0.2-0.5-0.1-0.7l1.7-9.8c0.1-0.4-0.1-0.8-0.3-1l-7.1-7
			c-0.5-0.5-0.5-1.2,0-1.6c0.2-0.2,0.4-0.3,0.6-0.3l9.9-1.4c0.4-0.1,0.7-0.3,0.9-0.6l4.4-9c0.3-0.6,1-0.8,1.5-0.5
			C39.8,87.4,40,87.5,40.1,87.8L40.1,87.8z"/>
		<path id="Trazado_123772" class="st8" d="M40.1,87.8c0,0,0-0.1-0.2-0.2c-0.4-0.4-1.1-0.5-1.6,0c-0.1,0.1-0.2,0.2-0.3,0.4l-0.9,1.8
			c-0.6,1.4-1.4,3-2.4,4.9l-0.7,1.5c-0.1,0.3-0.2,0.5-0.4,0.8c-0.2,0.3-0.4,0.5-0.8,0.6c-1.2,0.2-2.5,0.4-3.8,0.6l-4.1,0.6L22.9,99
			c-0.5,0.1-0.8,0.6-0.7,1.1c0,0.2,0.1,0.3,0.2,0.4l7.2,7c0.4,0.3,0.6,0.9,0.4,1.4l-0.2,1.3c-0.2,0.9-0.3,1.8-0.5,2.7
			c-0.3,1.9-0.6,3.7-0.9,5.6c-0.1,0.4,0.1,0.8,0.4,1c0.2,0.1,0.4,0.2,0.5,0.1c0.2,0,0.4-0.1,0.6-0.2l2.6-1.4l5.3-2.8l0.7-0.4
			c0.3-0.1,0.6-0.2,0.9-0.1c0.3,0.1,0.5,0.2,0.8,0.3l0.7,0.4l2.7,1.4l5.2,2.7c0.5,0.2,1,0,1.2-0.5c0-0.1,0.1-0.2,0.1-0.2
			c0-0.2,0-0.4-0.1-0.6l-0.5-2.8c-0.3-1.9-0.6-3.6-0.9-5.4l-0.2-1.3c-0.1-0.5,0.1-1,0.5-1.4c0.6-0.6,1.2-1.2,1.9-1.8
			c1.2-1.2,2.4-2.3,3.5-3.4l1.7-1.6c0.4-0.3,0.5-0.9,0.2-1.3c-0.1-0.1-0.2-0.2-0.3-0.3c-0.3-0.1-0.7-0.2-1-0.2l-1.1-0.2l-2-0.3
			l-3.8-0.6L46,97.6c-0.3-0.1-0.5-0.1-0.8-0.1c-0.3-0.1-0.5-0.3-0.7-0.6L42.1,92l-1.5-3.1L40.3,88C40.2,87.9,40.1,87.8,40.1,87.8
			c0.1,0.1,0.1,0.2,0.1,0.2c0.1,0.2,0.2,0.5,0.4,0.8c0.4,0.7,0.9,1.8,1.6,3.1l2.5,4.9c0.1,0.2,0.3,0.4,0.5,0.5
			c0.2,0.1,0.5,0.1,0.8,0.1l1.7,0.2l3.8,0.5l2,0.3l1.1,0.1c0.4,0,0.8,0.1,1.1,0.2c0.6,0.4,0.9,1.2,0.5,1.8c-0.1,0.1-0.2,0.3-0.3,0.3
			l-1.6,1.6l-3.5,3.4l-1.9,1.8c-0.3,0.2-0.4,0.6-0.4,0.9l0.2,1.3c0.3,1.7,0.6,3.5,0.9,5.4c0.2,0.9,0.3,1.9,0.5,2.8
			c0.1,0.3,0.1,0.5,0.1,0.8c0,0.3-0.1,0.6-0.3,0.8c-0.4,0.4-1,0.6-1.6,0.3l-5.2-2.7l-2.6-1.4l-0.7-0.4c-0.2-0.1-0.4-0.2-0.6-0.3
			c-0.2,0-0.4,0-0.6,0.1l-0.7,0.4l-5.3,2.8l-2.6,1.4c-0.2,0.1-0.5,0.2-0.8,0.3c-0.3,0-0.6-0.1-0.8-0.2c-0.5-0.3-0.7-0.9-0.6-1.5
			c0.3-1.9,0.6-3.7,0.9-5.6c0.2-0.9,0.3-1.9,0.5-2.7l0.2-1.3c0.1-0.4,0-0.8-0.3-1l-7.2-7c-0.3-0.4-0.4-0.8-0.2-1.3
			c0.1-0.4,0.5-0.7,0.9-0.9l2.2-0.3l4.1-0.6l3.8-0.5c0.2-0.1,0.5-0.2,0.6-0.5l0.4-0.8l0.7-1.5l2.4-4.9c0.3-0.7,0.6-1.3,0.9-1.8
			c0.2-0.5,0.7-0.8,1.2-0.7c0.3,0,0.6,0.2,0.8,0.4C40,87.6,40.1,87.7,40.1,87.8z"/>
		<circle id="Elipse_4211" class="st4" cx="39.1" cy="105.5" r="40.8"/>
		<path id="Trazado_123773" class="st11" d="M79.9,105.5c0-0.2,0-0.4-0.1-0.7c-0.1-0.4-0.1-1.1-0.1-1.9c0-0.4-0.1-0.9-0.1-1.4
			s-0.2-1.1-0.3-1.7s-0.2-1.3-0.3-2s-0.4-1.4-0.5-2.2c-1-3.8-2.5-7.5-4.5-10.8c-2.7-4.5-6.2-8.4-10.3-11.5l-1.7-1.3
			c-0.6-0.4-1.3-0.8-1.9-1.2c-0.6-0.4-1.3-0.8-2-1.1l-2.1-1l-1.1-0.5l-1.1-0.4l-2.3-0.8c-0.8-0.3-1.6-0.4-2.4-0.6
			c-0.8-0.2-1.6-0.4-2.5-0.6c-1.7-0.3-3.4-0.5-5.1-0.6c-0.9,0-1.8-0.1-2.6-0.1l-2.7,0.1c-0.5,0-0.9,0-1.4,0.1l-1.4,0.2
			c-0.9,0.1-1.9,0.2-2.7,0.4c-1.8,0.4-3.6,0.9-5.4,1.6c-1.8,0.7-3.6,1.4-5.3,2.3c-0.9,0.5-1.7,1-2.5,1.5c-0.4,0.3-0.9,0.5-1.2,0.8
			L15,73c-1.6,1.2-3.2,2.5-4.6,3.9l-2.1,2.3l-0.5,0.6l-0.5,0.6l-0.9,1.2l-0.9,1.2l-0.8,1.3l-0.8,1.3l-0.4,0.7l-0.3,0.7l-1.4,2.8
			l-1.1,3c-2.8,8.3-2.8,17.3,0,25.6c0.4,1,0.7,2,1.1,3s0.9,1.9,1.4,2.9l0.4,0.7l0.4,0.7l0.8,1.3l0.8,1.3l0.9,1.2l0.9,1.2l0.5,0.6
			l0.5,0.6l2.1,2.3c1.5,1.4,3,2.7,4.6,3.9l1.2,0.9c0.4,0.3,0.8,0.5,1.3,0.8c0.8,0.5,1.7,1,2.5,1.5c3.4,1.8,7,3.1,10.7,3.9
			c0.9,0.2,1.9,0.3,2.7,0.4l1.4,0.2c0.5,0.1,0.9,0.1,1.4,0.1l2.7,0.1c0.9,0,1.8-0.1,2.6-0.1c1.7-0.1,3.4-0.3,5.1-0.6
			c0.8-0.1,1.6-0.3,2.5-0.6c0.8-0.2,1.6-0.4,2.4-0.6l2.3-0.8l1.1-0.4l1.1-0.5l2.1-1c0.7-0.3,1.3-0.8,2-1.1s1.3-0.8,1.9-1.2l1.7-1.3
			c4.1-3.2,7.6-7.1,10.3-11.6c2-3.4,3.6-7,4.5-10.8c0.2-0.7,0.4-1.5,0.5-2.2c0.1-0.7,0.2-1.4,0.3-2s0.2-1.2,0.3-1.7s0.1-1,0.1-1.4
			c0.1-0.8,0.1-1.5,0.1-1.9S79.8,105.5,79.9,105.5l0,0.6c0,0.4,0,1.1-0.1,1.9c0,0.5,0,1-0.1,1.4c-0.1,0.5-0.1,1.1-0.2,1.7
			s-0.2,1.3-0.3,2c-0.1,0.8-0.3,1.5-0.5,2.2c-0.9,3.8-2.4,7.5-4.5,10.9c-2.7,4.5-6.2,8.5-10.3,11.7l-1.8,1.3
			c-0.6,0.4-1.3,0.8-1.9,1.2c-0.6,0.4-1.3,0.8-2,1.2l-2.1,1l-1.1,0.5l-1.1,0.4l-2.3,0.9c-0.8,0.3-1.6,0.4-2.4,0.6
			c-0.8,0.2-1.6,0.4-2.5,0.6c-1.7,0.3-3.4,0.5-5.2,0.6c-0.9,0-1.8,0.1-2.7,0.1l-2.7-0.1c-0.5,0-0.9,0-1.4-0.1l-1.4-0.2
			c-0.9-0.1-1.9-0.2-2.8-0.4c-1.9-0.4-3.7-0.9-5.5-1.6c-1.8-0.7-3.6-1.5-5.3-2.4c-0.9-0.5-1.7-1-2.6-1.5c-0.4-0.3-0.9-0.5-1.3-0.8
			l-1.2-0.9c-1.6-1.2-3.2-2.5-4.6-3.9L8,132.2l-0.5-0.6L7,131l-0.9-1.3l-0.9-1.3l-0.8-1.4l-0.8-1.4l-0.4-0.7l-0.4-0.7
			c-0.5-0.9-0.9-1.9-1.4-2.9l-1.2-3c-2.8-8.4-2.8-17.5,0-25.9l1.1-3l1.4-2.9L3.1,86l0.4-0.7l0.8-1.4l0.8-1.4L6,81.3L7,80l0.5-0.6
			L8,78.9l2.1-2.3c1.5-1.4,3-2.7,4.6-3.9l1.2-0.9c0.4-0.3,0.8-0.5,1.3-0.8c0.9-0.5,1.7-1.1,2.5-1.5c1.7-0.9,3.5-1.7,5.4-2.3
			c1.8-0.7,3.6-1.2,5.5-1.6c0.9-0.2,1.9-0.3,2.8-0.4l1.4-0.2c0.5-0.1,0.9-0.1,1.4-0.1l2.7-0.1c0.9,0,1.8,0.1,2.7,0.1
			c1.7,0.1,3.5,0.3,5.2,0.6c0.8,0.1,1.7,0.3,2.5,0.6c0.8,0.2,1.6,0.4,2.4,0.6l2.3,0.9l1.1,0.4l1.1,0.5l2.2,1c0.7,0.3,1.3,0.8,2,1.2
			s1.3,0.8,1.9,1.2l1.8,1.3c4.2,3.2,7.7,7.1,10.4,11.7c2,3.4,3.5,7.1,4.5,10.9c0.2,0.8,0.4,1.5,0.5,2.2s0.2,1.4,0.3,2
			s0.2,1.2,0.2,1.7s0,1,0.1,1.4c0,0.8,0.1,1.5,0.1,1.9C79.9,105.1,79.9,105.3,79.9,105.5z"/>
		<path id="Trazado_123774" class="st1" d="M40.1,87.8l4.4,9c0.2,0.3,0.5,0.6,0.9,0.6l9.9,1.4c0.6,0.1,1.1,0.7,1,1.3
			c0,0.3-0.2,0.5-0.3,0.7l-7.1,7c-0.3,0.3-0.4,0.6-0.3,1l1.7,9.8c0.1,0.6-0.3,1.2-0.9,1.3c-0.3,0-0.5,0-0.7-0.1l-8.8-4.6
			c-0.3-0.2-0.7-0.2-1.1,0l-8.8,4.6c-0.6,0.3-1.2,0.1-1.5-0.5c-0.1-0.2-0.2-0.5-0.1-0.7l1.7-9.8c0.1-0.4-0.1-0.8-0.3-1l-7.1-7
			c-0.5-0.5-0.5-1.2,0-1.6c0.2-0.2,0.4-0.3,0.6-0.3l9.9-1.4c0.4-0.1,0.7-0.3,0.9-0.6l4.4-9c0.3-0.6,1-0.8,1.5-0.5
			C39.8,87.4,40,87.5,40.1,87.8L40.1,87.8z"/>
		<path id="Trazado_123775" class="st8" d="M40.1,87.8c0,0,0-0.1-0.2-0.2c-0.4-0.4-1.1-0.5-1.6,0c-0.1,0.1-0.2,0.2-0.3,0.4l-0.9,1.8
			c-0.6,1.4-1.4,3-2.4,4.9l-0.7,1.5c-0.1,0.3-0.2,0.5-0.4,0.8c-0.2,0.3-0.4,0.5-0.8,0.6c-1.2,0.2-2.5,0.4-3.8,0.6l-4.1,0.6L22.9,99
			c-0.5,0.1-0.8,0.6-0.7,1.1c0,0.2,0.1,0.3,0.2,0.4l7.2,7c0.4,0.3,0.6,0.9,0.4,1.4l-0.2,1.3c-0.2,0.9-0.3,1.8-0.5,2.7
			c-0.3,1.9-0.6,3.7-0.9,5.6c-0.1,0.4,0.1,0.8,0.4,1c0.2,0.1,0.4,0.2,0.5,0.1c0.2,0,0.4-0.1,0.6-0.2l2.6-1.4l5.3-2.8l0.7-0.4
			c0.3-0.1,0.6-0.2,0.9-0.1c0.3,0.1,0.5,0.2,0.8,0.3l0.7,0.4l2.7,1.4l5.2,2.7c0.5,0.2,1,0,1.2-0.5c0-0.1,0.1-0.2,0.1-0.2
			c0-0.2,0-0.4-0.1-0.6l-0.5-2.8c-0.3-1.9-0.6-3.6-0.9-5.4l-0.2-1.3c-0.1-0.5,0.1-1,0.5-1.4c0.6-0.6,1.2-1.2,1.9-1.8
			c1.2-1.2,2.4-2.3,3.5-3.4l1.7-1.6c0.4-0.3,0.5-0.9,0.2-1.3c-0.1-0.1-0.2-0.2-0.3-0.3c-0.3-0.1-0.7-0.2-1-0.2l-1.1-0.2l-2-0.3
			l-3.8-0.6L46,97.6c-0.3-0.1-0.5-0.1-0.8-0.1c-0.3-0.1-0.5-0.3-0.7-0.6L42.1,92l-1.5-3.1L40.3,88C40.2,87.9,40.1,87.8,40.1,87.8
			c0.1,0.1,0.1,0.2,0.1,0.2c0.1,0.2,0.2,0.5,0.4,0.8c0.4,0.7,0.9,1.8,1.6,3.1l2.5,4.9c0.1,0.2,0.3,0.4,0.5,0.5
			c0.2,0.1,0.5,0.1,0.8,0.1l1.7,0.2l3.8,0.5l2,0.3l1.1,0.1c0.4,0,0.8,0.1,1.1,0.2c0.6,0.4,0.9,1.2,0.5,1.8c-0.1,0.1-0.2,0.3-0.3,0.3
			l-1.6,1.6l-3.5,3.4l-1.9,1.8c-0.3,0.2-0.4,0.6-0.4,0.9l0.2,1.3c0.3,1.7,0.6,3.5,0.9,5.4c0.2,0.9,0.3,1.9,0.5,2.8
			c0.1,0.3,0.1,0.5,0.1,0.8c0,0.3-0.1,0.6-0.3,0.8c-0.4,0.4-1,0.6-1.6,0.3l-5.2-2.7l-2.6-1.4l-0.7-0.4c-0.2-0.1-0.4-0.2-0.6-0.3
			c-0.2,0-0.4,0-0.6,0.1l-0.7,0.4l-5.3,2.8l-2.6,1.4c-0.2,0.1-0.5,0.2-0.8,0.3c-0.3,0-0.6-0.1-0.8-0.2c-0.5-0.3-0.7-0.9-0.6-1.5
			c0.3-1.9,0.6-3.7,0.9-5.6c0.2-0.9,0.3-1.9,0.5-2.7l0.2-1.3c0.1-0.4,0-0.8-0.3-1l-7.2-7c-0.3-0.4-0.4-0.8-0.2-1.3
			c0.1-0.4,0.5-0.7,0.9-0.9l2.2-0.3l4.1-0.6l3.8-0.5c0.2-0.1,0.5-0.2,0.6-0.5l0.4-0.8l0.7-1.5l2.4-4.9c0.3-0.7,0.6-1.3,0.9-1.8
			c0.2-0.5,0.7-0.8,1.2-0.7c0.3,0,0.6,0.2,0.8,0.4C40,87.6,40.1,87.7,40.1,87.8z"/>
	</g>
</g>
</svg>
