<svg xmlns="http://www.w3.org/2000/svg" width="352" height="245.479" viewBox="0 0 352 245.479">
  <g id="money" transform="translate(-33.29)">
    <g id="freepik--background-complete--inject-197" transform="translate(33.29)">
      <path id="Trazado_123341" data-name="Trazado 123341" d="M148.652,245.336,33.29,0H365.973L278.381,245.336Z" transform="translate(-33.29)" fill="#f5f5f5"/>
      <path id="Trazado_123342" data-name="Trazado 123342" d="M178,455.011s42.827-26.037,86.634,0Z" transform="translate(-47.27 -209.674)" fill="#e0e0e0"/>
      <path id="Trazado_123343" data-name="Trazado 123343" d="M184.4,410.2c0-.453-5.166-16.785-5.166-16.785l-4.481,1.861,2.425-14.887L188,390.517l-4.275,1.555,5.767,17.012Z" transform="translate(-63.831 -179.863)" fill="#fff"/>
      <path id="Trazado_123344" data-name="Trazado 123344" d="M353.458,225.362c.221-.39,3.69-17.164,3.69-17.164l-4.818-.564,9.389-11.8,4.491,14.123-4.486-.733-3.279,17.655Z" transform="translate(-102.48 -92.596)" fill="#fff"/>
      <path id="Trazado_123345" data-name="Trazado 123345" d="M98.075,145.758c-.058-.443-7.338-15.952-7.338-15.952l-4.217,2.441.432-15.077,12.067,8.6-4.028,2.109,7.981,16.084Z" transform="translate(-58.459 -55.402)" fill="#fff"/>
      <circle id="Elipse_4186" data-name="Elipse 4186" cx="30.117" cy="30.117" r="30.117" transform="translate(273.626 129.412) rotate(-19.17)" fill="#e0e0e0"/>
      <circle id="Elipse_4187" data-name="Elipse 4187" cx="30.117" cy="30.117" r="30.117" transform="translate(266.816 145.349) rotate(-45)" fill="#ebebeb"/>
      <ellipse id="Elipse_4188" data-name="Elipse 4188" cx="22.947" cy="22.378" rx="22.947" ry="22.378" transform="translate(280.004 131.828) rotate(-19.78)" fill="#f5f5f5"/>
      <path id="Trazado_123346" data-name="Trazado 123346" d="M398.335,289.259A22.937,22.937,0,0,1,369.22,276.08c.069.206.132.411.206.622A22.941,22.941,0,1,0,412.6,261.165c-.076-.2-.155-.405-.234-.605A22.942,22.942,0,0,1,398.335,289.259Z" transform="translate(-81.615 -123.203)" fill="#fafafa"/>
      <path id="Trazado_123347" data-name="Trazado 123347" d="M381.815,233.146a22.937,22.937,0,0,1,29.115,13.211c-.069-.206-.132-.416-.211-.622a22.939,22.939,0,0,0-43.169,15.53c.074.206.158.406.237.612A22.937,22.937,0,0,1,381.815,233.146Z" transform="translate(-80.182 -109.015)" fill="#e0e0e0"/>
      <path id="Trazado_123348" data-name="Trazado 123348" d="M412.44,262.784c-1.091-3.031-3.247-4.476-5.662-4.507a6.13,6.13,0,0,0,.706-6.052c-1.054-2.978-3.49-4.5-6.89-4.075l-1.323-3.69-3.395,1.223L397.1,249.1l-1.929.7-1.228-3.421-3.4,1.223,1.234,3.416-3.094,1.107-2.156.775,1.223,3.395,2.156-.775,5.941,16.521-2.383.859,1.223,3.395,2.383-.854h0l3.094-1.112L401.6,278.3l3.4-1.223-1.429-3.975,1.924-.7,1.434,3.98,3.395-1.223-1.476-4.107C412.482,269.163,413.663,266.237,412.44,262.784Zm-18.224-8.793,4.6-1.655c2.551-.917,4.386-.369,5.161,1.792s-.3,3.722-2.847,4.639l-5.219,1.877-2.314-6.41Zm11.276,14.6-5.535,1.982-.39.142-2.425-6.732,5.957-2.14c2.783-1,4.655-.527,5.493,1.824S408.275,267.6,405.492,268.594Z" transform="translate(-89.8 -115.59)" fill="#e0e0e0"/>
      <path id="Trazado_123349" data-name="Trazado 123349" d="M409.3,263.914c-1.091-3.031-3.247-4.476-5.662-4.513a6.118,6.118,0,0,0,.706-6.047c-1.054-2.984-3.49-4.5-6.89-4.075l-1.323-3.69-3.395,1.223,1.228,3.421-1.929.691-1.228-3.416-3.411,1.228,1.234,3.421-3.094,1.112-2.156.775,1.218,3.4,2.156-.775,5.957,16.548-2.383.859,1.223,3.395,2.383-.854h0l3.094-1.118,1.429,3.98,3.4-1.223-1.434-3.985,1.929-.691,1.434,3.975,3.395-1.218-1.476-4.112C409.343,270.293,410.539,267.367,409.3,263.914Zm-18.213-8.793,4.6-1.655c2.551-.917,4.381-.374,5.161,1.792s-.3,3.716-2.847,4.639l-5.219,1.877-2.314-6.431Zm11.281,14.6-5.562,2-.4.137-2.42-6.727,5.957-2.146c2.783-1,4.655-.527,5.493,1.824s-.306,3.906-3.089,4.908Z" transform="translate(-88.31 -116.124)" fill="#ebebeb"/>
      <path id="Trazado_123350" data-name="Trazado 123350" d="M390.42,249.226a13.134,13.134,0,0,1-3.284,1.539l.206-.432c.39.97.833,2.109,1.3,3.395l.137.38-.385.142-.912.332c-1.608.58-3.11,1.091-4.36,1.492l.206-.432c.664,2.072,1.054,3.463.9,3.511s-.733-1.255-1.539-3.284l-.121-.306.327-.127c1.218-.49,2.7-1.054,4.312-1.629l.912-.327-.242.527c-.448-1.265-.849-2.446-1.165-3.442l-.111-.332.311-.1A12.749,12.749,0,0,1,390.42,249.226Z" transform="translate(-111.339 -117.831)" fill="#fafafa"/>
      <path id="Trazado_123351" data-name="Trazado 123351" d="M405.306,245.152c.074.211-.78.717-1.914,1.123s-2.109.569-2.2.353.78-.717,1.919-1.128S405.211,244.936,405.306,245.152Z" transform="translate(-96.731 -115.871)" fill="#fafafa"/>
      <path id="Trazado_123352" data-name="Trazado 123352" d="M395.331,283.089c-.216.074-1.692-3.49-3.3-7.96s-2.741-8.16-2.525-8.24,1.692,3.484,3.3,7.96S395.553,283.009,395.331,283.089Z" transform="translate(-113.633 -126.194)" fill="#fafafa"/>
      <path id="Trazado_123353" data-name="Trazado 123353" d="M408.49,271.552c.079.211-1.328.917-3.137,1.581s-3.342,1.007-3.416.791,1.323-.912,3.137-1.581S408.411,271.336,408.49,271.552Z" transform="translate(-97.084 -128.369)" fill="#fafafa"/>
      <path id="Trazado_123354" data-name="Trazado 123354" d="M415.6,290.6c.074.216-1.328.917-3.163,1.581s-3.337,1.007-3.416.791,1.328-.912,3.137-1.582S415.517,290.386,415.6,290.6Z" transform="translate(-100.431 -137.377)" fill="#fafafa"/>
      <circle id="Elipse_4189" data-name="Elipse 4189" cx="21.239" cy="21.239" r="21.239" transform="translate(20.797 170.026)" fill="#e0e0e0"/>
      <circle id="Elipse_4190" data-name="Elipse 4190" cx="21.239" cy="21.239" r="21.239" transform="matrix(0.982, -0.19, 0.19, 0.982, 17.564, 171.923)" fill="#ebebeb"/>
      <ellipse id="Elipse_4191" data-name="Elipse 4191" cx="15.778" cy="16.184" rx="15.778" ry="16.184" transform="matrix(0.563, -0.826, 0.826, 0.563, 20.268, 192.395)" fill="#f5f5f5"/>
      <path id="Trazado_123355" data-name="Trazado 123355" d="M90.355,362.368a16.173,16.173,0,0,1-4.507-22.088l-.269.374a16.175,16.175,0,0,0,26.732,18.219c.09-.126.169-.258.253-.39A16.173,16.173,0,0,1,90.355,362.368Z" transform="translate(-56.685 -160.897)" fill="#fafafa"/>
      <path id="Trazado_123356" data-name="Trazado 123356" d="M110.819,329.706a16.173,16.173,0,0,1,4.507,22.088c.09-.121.179-.243.269-.374A16.175,16.175,0,0,0,88.863,333.2c-.09.132-.169.258-.253.39A16.173,16.173,0,0,1,110.819,329.706Z" transform="translate(-59.447 -154.208)" fill="#e0e0e0"/>
      <path id="Trazado_123357" data-name="Trazado 123357" d="M108.732,356.857a4.276,4.276,0,0,0,.232-5.1,4.339,4.339,0,0,0,3.748-2.109,4.2,4.2,0,0,0-.527-5.62l1.555-2.277-2.109-1.434-1.444,2.109-1.2-.812,1.444-2.109-2.109-1.434-1.444,2.109-1.914-1.307L103.639,338l-1.434,2.109,1.339.907L96.57,351.227l-1.476-1.007-1.434,2.109,1.476,1h0l1.914,1.307L95.373,357.1l2.109,1.434,1.682-2.462,1.191.812-1.676,2.467,2.109,1.434,1.734-2.546C105.11,359.524,107.277,359,108.732,356.857Zm-2.52-14.044,2.847,1.94c1.581,1.081,2.024,2.351,1.112,3.69s-2.246,1.371-3.827.3l-3.231-2.2,2.715-3.985Zm-3.69,12.483-3.411-2.346-.242-.169,2.841-4.165,3.69,2.515c1.724,1.17,2.219,2.446,1.234,3.89s-2.372,1.429-4.091.274Z" transform="translate(-61.835 -159.819)" fill="#e0e0e0"/>
      <path id="Trazado_123358" data-name="Trazado 123358" d="M106.792,355.5a4.276,4.276,0,0,0,.232-5.1,4.339,4.339,0,0,0,3.748-2.109,4.2,4.2,0,0,0-.527-5.62l1.581-2.283-2.109-1.434-1.444,2.109-1.2-.812,1.444-2.109-2.109-1.434-1.444,2.109-1.914-1.307-1.339-.912-1.434,2.109,1.339.907-6.99,10.253-1.476-1.007L91.72,350.97l1.476,1.007h0l1.919,1.307-1.666,2.457,2.109,1.434,1.682-2.462,1.191.812-1.676,2.467,2.109,1.434,1.734-2.546C103.17,358.166,105.337,357.639,106.792,355.5Zm-2.52-14.044,2.847,1.94c1.581,1.081,2.024,2.351,1.112,3.69s-2.246,1.371-3.827.29l-3.231-2.2,2.715-3.985Zm-3.69,12.483-3.442-2.367L96.9,351.4l2.841-4.165,3.69,2.515c1.719,1.17,2.214,2.446,1.228,3.89s-2.335,1.471-4.054.3Z" transform="translate(-60.918 -159.157)" fill="#ebebeb"/>
      <path id="Trazado_123359" data-name="Trazado 123359" d="M116.153,337.758c-.079.116-.981-.343-2.293-1.154l.469-.09c-.385.633-.859,1.371-1.386,2.156l-.227.343-.337-.232-.569-.385c-1-.68-1.908-1.328-2.636-1.887l.474-.09c-.928,1.228-1.581,1.993-1.719,1.914s.348-.986,1.154-2.3l.169-.274.306.185c.791.485,1.729,1.091,2.725,1.771l.564.39-.569.105c.527-.78,1.054-1.492,1.5-2.077l.211-.285.258.2C115.473,336.972,116.232,337.642,116.153,337.758Z" transform="translate(-68.571 -158.76)" fill="#fafafa"/>
      <path id="Trazado_123360" data-name="Trazado 123360" d="M128.291,342.848c-.127.185-.8-.047-1.5-.527s-1.17-1.023-1.054-1.207.8.047,1.508.527S128.417,342.658,128.291,342.848Z" transform="translate(-54.452 -161.261)" fill="#fafafa"/>
      <path id="Trazado_123361" data-name="Trazado 123361" d="M97.205,352.328c-.185-.132,1.191-2.478,3.079-5.272s3.569-4.908,3.759-4.781-1.191,2.478-3.079,5.245S97.395,352.455,97.205,352.328Z" transform="translate(-63.504 -161.838)" fill="#fafafa"/>
      <path id="Trazado_123362" data-name="Trazado 123362" d="M114.127,355.932c-.127.185-1.139-.279-2.262-1.054s-1.924-1.539-1.8-1.724,1.139.279,2.262,1.054S114.243,355.742,114.127,355.932Z" transform="translate(-69.587 -166.965)" fill="#fafafa"/>
      <path id="Trazado_123363" data-name="Trazado 123363" d="M106.2,367.88c-.127.19-1.139-.279-2.262-1.054s-1.924-1.534-1.8-1.724,1.144.279,2.262,1.054S106.329,367.691,106.2,367.88Z" transform="translate(-65.838 -172.614)" fill="#fafafa"/>
      <circle id="Elipse_4192" data-name="Elipse 4192" cx="16.495" cy="16.495" r="16.495" transform="translate(170.645 38.703) rotate(-65.7)" fill="#e0e0e0"/>
      <circle id="Elipse_4193" data-name="Elipse 4193" cx="16.495" cy="16.495" r="16.495" transform="matrix(0.637, -0.771, 0.771, 0.637, 169.203, 30.657)" fill="#ebebeb"/>
      <ellipse id="Elipse_4194" data-name="Elipse 4194" cx="12.257" cy="12.568" rx="12.257" ry="12.568" transform="translate(175.772 34.916) rotate(-67.96)" fill="#f5f5f5"/>
      <path id="Trazado_123364" data-name="Trazado 123364" d="M266.234,60.716A12.557,12.557,0,0,1,259.18,44.69c-.053.111-.1.221-.148.332a12.566,12.566,0,1,0,23.3,9.427c.04-.112.082-.222.119-.338A12.557,12.557,0,0,1,266.234,60.716Z" transform="translate(-79.275 -21.131)" fill="#fafafa"/>
      <path id="Trazado_123365" data-name="Trazado 123365" d="M276.355,30.744a12.552,12.552,0,0,1,7.053,16.02c.053-.105.1-.216.148-.327a12.566,12.566,0,1,0-23.3-9.427c-.04.112-.082.222-.119.333a12.557,12.557,0,0,1,16.216-6.6Z" transform="translate(-79.69 -13.785)" fill="#e0e0e0"/>
      <path id="Trazado_123366" data-name="Trazado 123366" d="M280.267,51.856a3.316,3.316,0,0,0-.664-3.906,3.374,3.374,0,0,0,2.5-2.214,3.274,3.274,0,0,0-1.323-4.18l.807-1.982-1.835-.743L279,40.675l-1.054-.422.743-1.845-1.829-.738-.749,1.845-1.671-.68-1.123-.464-.743,1.835,1.165.469-3.611,8.914-1.286-.527L268.1,50.9l1.286.527h0l1.65.654-.88,2.161,1.835.743.87-2.146,1.054.422-.87,2.146,1.835.738.9-2.214C277.958,54.476,279.513,53.717,280.267,51.856ZM276.05,41.608l2.483,1.007c1.376.559,1.924,1.45,1.45,2.636s-1.476,1.413-2.852.854l-2.815-1.139,1.4-3.469Zm-.727,10.079-3.01-1.191-.216-.084,1.471-3.632,3.216,1.3c1.5.606,2.082,1.492,1.582,2.752s-1.55,1.466-3.052.854Z" transform="translate(-84.103 -17.812)" fill="#e0e0e0"/>
      <path id="Trazado_123367" data-name="Trazado 123367" d="M278.563,51.175a3.323,3.323,0,0,0-.659-3.906,3.369,3.369,0,0,0,2.509-2.209,3.274,3.274,0,0,0-1.323-4.18l.8-1.982-1.835-.743L277.3,40l-1.054-.422.743-1.845L275.173,37l-.749,1.845-1.671-.675-1.16-.469-.743,1.829,1.165.474L268.4,48.919l-1.286-.527-.738,1.835,1.281.527h0l1.682.659-.87,2.151,1.835.738.87-2.146,1.054.422-.87,2.146,1.808.727.9-2.214C276.254,53.8,277.809,53.042,278.563,51.175Zm-4.217-10.243,2.483,1.007c1.376.554,1.924,1.444,1.455,2.636s-1.492,1.386-2.868.859L272.6,44.291l1.4-3.469Zm-.727,10.079-3-1.212-.211-.09,1.466-3.627,3.216,1.3c1.5.612,2.082,1.5,1.582,2.752s-1.56,1.487-3.063.88Z" transform="translate(-83.723 -17.495)" fill="#ebebeb"/>
      <path id="Trazado_123368" data-name="Trazado 123368" d="M280.98,37.317c-.053.132-.817-.047-1.956-.427l.443-.19c-.185.527-.416,1.186-.685,1.871l-.148.38-.385-.153-.5-.2c-.865-.353-1.661-.7-2.314-1.012l.448-.19c-.527,1.081-.928,1.755-1.054,1.7s.047-.822.427-1.961l.1-.3.343.116c.685.227,1.5.527,2.367.88l.49.2-.527.227c.285-.68.564-1.3.812-1.819L279,36.12l.285.137C280.358,36.779,281.038,37.185,280.98,37.317Z" transform="translate(-87.685 -17.079)" fill="#fafafa"/>
      <path id="Trazado_123369" data-name="Trazado 123369" d="M290.691,40.071c-.084.211-.648.185-1.26-.063s-1.054-.622-.954-.833.648-.179,1.26.069S290.776,39.834,290.691,40.071Z" transform="translate(-91.807 -18.457)" fill="#fafafa"/>
      <path id="Trazado_123370" data-name="Trazado 123370" d="M270.1,51.428c-.211-.084.411-2.109,1.386-4.523s1.94-4.3,2.151-4.217-.411,2.109-1.386,4.523S270.314,51.512,270.1,51.428Z" transform="translate(-87.253 -20.183)" fill="#fafafa"/>
      <path id="Trazado_123371" data-name="Trazado 123371" d="M282.091,52.319c-.09.211-.949.058-1.924-.332s-1.7-.891-1.613-1.1.944-.058,1.919.337S282.176,52.108,282.091,52.319Z" transform="translate(-89.204 -24.015)" fill="#fafafa"/>
      <path id="Trazado_123372" data-name="Trazado 123372" d="M278.041,62.7c-.09.211-.949.058-1.924-.337s-1.7-.886-1.613-1.1.944-.063,1.924.332S278.126,62.487,278.041,62.7Z" transform="translate(-88.281 -28.922)" fill="#fafafa"/>
    </g>
    <g id="freepik--Floor--inject-197" transform="translate(48.425 245.199)">
      <path id="Trazado_123373" data-name="Trazado 123373" d="M374.993,465.267c0,.079-70.081.142-156.509.142S62,465.346,62,465.267s70.081-.137,156.525-.137S374.993,465.193,374.993,465.267Z" transform="translate(-62 -465.13)" fill="#263238"/>
    </g>
    <g id="freepik--Character--inject-197" transform="translate(138.163 47.893)">
      <path id="Trazado_123374" data-name="Trazado 123374" d="M242.3,91.925c0,.206-4.249,12.283-4.249,12.283l-6.3-3.3,3.163-10.058Z" transform="translate(-186.66 -90.85)" fill="#455a64"/>
      <path id="Trazado_123375" data-name="Trazado 123375" d="M243.7,105.159l.706.09,4.223-12.288-.764-.1Z" transform="translate(-192.311 -91.8)" fill="#263238"/>
      <path id="Trazado_123376" data-name="Trazado 123376" d="M243.159,94.351a.3.3,0,0,1-.4.153.3.3,0,0,1,.237-.527.306.306,0,0,1,.158.374Z" transform="translate(-191.818 -92.327)" fill="#263238"/>
      <path id="Trazado_123377" data-name="Trazado 123377" d="M230.057,102.4a.037.037,0,0,1,0-.058c.19-.2,1.112-1.154,1.94-2a2.847,2.847,0,0,1,2.14-.838l1.123.053a1.982,1.982,0,0,1,1.877,2.24l-.216,1.5a.554.554,0,0,1-.527.469l-2.9-.032-.443.527Z" transform="translate(-185.853 -94.942)" fill="#ddaf8b"/>
      <path id="Trazado_123380" data-name="Trazado 123380" d="M295.571,114.413c-1.581-2.156-4.423-2.973-7.053-3.659L282.6,109.22a10.242,10.242,0,0,0-3.69-.5,4.381,4.381,0,0,0-.886.2,14.133,14.133,0,0,0,.575-1.492,3.98,3.98,0,0,0,.09-2.778,4.149,4.149,0,0,0-1.344-1.513c-1.339-1.054-2.757-2.673-4.449-2.884a4.518,4.518,0,0,0-4.217,1.982l.137.975a7.668,7.668,0,0,1,3.474-2.636c.485,1.581,1.961,5.214,3.311,6.221a1.054,1.054,0,0,1,.364.364,1.023,1.023,0,0,1-.174.9,11.47,11.47,0,0,0-1.086,2.457,13.7,13.7,0,0,0-.754,3.822,2.214,2.214,0,0,0,.738,2.225,5.635,5.635,0,0,0,2.467,1.1,9.9,9.9,0,0,1,2.588.828,4.133,4.133,0,0,1,2.109,3.759,1.666,1.666,0,0,0,1.1-1.523l1.371,1.054a6.126,6.126,0,0,0,.111-2.636c.622.459,1.228.938,1.866,1.365,1.471,1,3.289,1.766,5.013,1.3l-.047-1.376,2.826,1.961a3.885,3.885,0,0,0,.638-3.653l1.434,1.55a5.883,5.883,0,0,0-.6-5.873Z" transform="translate(-204.122 -95.288)" fill="#263238"/>
      <path id="Trazado_123381" data-name="Trazado 123381" d="M276.5,97.7a3.906,3.906,0,0,1,5.583.258c.585.717.9,1.629,1.545,2.277,2.109,2.109,6.236.242,8.4,2.293,1.518,1.439,1.281,4.186,2.963,5.44,1.513,1.133,3.938.527,5.272,1.85a4.508,4.508,0,0,1,.981,2.066,5.672,5.672,0,0,0,.886,2.109,1.766,1.766,0,0,0,2.051.617,1.811,1.811,0,0,1-1.555,1.935,5.946,5.946,0,0,1-2.71-.374,4.355,4.355,0,0,0-2.71-.142c-1.165.438-1.819,1.745-2.973,2.2a3.242,3.242,0,0,1-3.1-.633,10.9,10.9,0,0,1-2.109-2.525,7.654,7.654,0,0,0-2.277-2.372,8.179,8.179,0,0,0-3.991-.775,8.887,8.887,0,0,1-4.017-.7,2.947,2.947,0,0,1-1.624-3.395" transform="translate(-207.82 -93.591)" fill="#263238"/>
      <path id="Trazado_123382" data-name="Trazado 123382" d="M272.363,112.846a.527.527,0,0,0,.575.448,1.439,1.439,0,0,0,.738-.285,14,14,0,0,0,4.36-4.433,6.674,6.674,0,0,0,1.128-5.05,5.319,5.319,0,0,0-1.581-2.493,10.718,10.718,0,0,0-2.5-1.639,6.21,6.21,0,0,0-2.889-.822,5.209,5.209,0,0,0-5.135,5.2" transform="translate(-203.356 -94.5)" fill="#263238"/>
      <path id="Trazado_123383" data-name="Trazado 123383" d="M273.439,104.818a19.287,19.287,0,0,1-2.715,1.982l-1.16,2.151a2.488,2.488,0,0,0,.928,3.326h0l-3.59,7.085c-.828,1.508-5.077,1.328-6.684.427h0c-1.629-.912-.348-2.478.527-3.864a24.48,24.48,0,0,0,1.719-3.332,3.836,3.836,0,0,1-.88-4.4,32.088,32.088,0,0,1,2.826-5.388c.965-1.581,2.636-3.247,4.18-2.209Z" transform="translate(-199.751 -95.308)" fill="#ddaf8b"/>
      <path id="Trazado_123384" data-name="Trazado 123384" d="M268.561,108.346a.4.4,0,0,0,.153.527.374.374,0,0,0,.527-.121.4.4,0,0,0-.148-.527.38.38,0,0,0-.532.121Z" transform="translate(-204.045 -99.036)" fill="#263238"/>
      <path id="Trazado_123385" data-name="Trazado 123385" d="M268.6,107.64c0,.069.39,0,.764.216s.527.527.612.527.032-.116-.042-.269a1.112,1.112,0,0,0-.464-.464,1.012,1.012,0,0,0-.633-.111C268.673,107.55,268.589,107.608,268.6,107.64Z" transform="translate(-204.084 -98.736)" fill="#263238"/>
      <path id="Trazado_123386" data-name="Trazado 123386" d="M275.286,112.338a.39.39,0,0,0,.148.527.374.374,0,0,0,.527-.121.4.4,0,0,0-.148-.527.38.38,0,0,0-.527.121Z" transform="translate(-207.223 -100.925)" fill="#263238"/>
      <path id="Trazado_123387" data-name="Trazado 123387" d="M275.519,111.491c0,.069.385,0,.759.216s.527.527.612.527.032-.111-.042-.264a1.054,1.054,0,0,0-1.1-.58C275.593,111.4,275.509,111.459,275.519,111.491Z" transform="translate(-207.356 -100.557)" fill="#263238"/>
      <path id="Trazado_123388" data-name="Trazado 123388" d="M269.376,112.762a2.9,2.9,0,0,0-.554-.432c-.09-.063-.169-.132-.153-.206s.111-.158.216-.248l.669-.575a14.978,14.978,0,0,0,1.65-1.581,14.667,14.667,0,0,0-1.771,1.434l-.659.6a.617.617,0,0,0-.248.348.258.258,0,0,0,.079.227.849.849,0,0,0,.153.111A2.636,2.636,0,0,0,269.376,112.762Z" transform="translate(-204.049 -99.772)" fill="#263238"/>
      <path id="Trazado_123389" data-name="Trazado 123389" d="M264.9,123.64a7.844,7.844,0,0,0,4.154.959,3.9,3.9,0,0,1-4.455-.3Z" transform="translate(-202.193 -106.354)" fill="#aa6550"/>
      <path id="Trazado_123390" data-name="Trazado 123390" d="M269.44,117.3a.759.759,0,0,1,.738.074.675.675,0,0,1,.3.453.437.437,0,0,1-.206.464.527.527,0,0,1-.559-.137,1.718,1.718,0,0,1-.327-.527.617.617,0,0,1-.047-.169.148.148,0,0,1,.074-.137" transform="translate(-204.434 -103.328)" fill="#aa6550"/>
      <path id="Trazado_123391" data-name="Trazado 123391" d="M270.454,117.088c-.063-.037-.279.369-.78.474a2.414,2.414,0,0,1-.944-.116.522.522,0,0,0,.237.232,1.149,1.149,0,0,0,.775.121.986.986,0,0,0,.622-.411A.641.641,0,0,0,270.454,117.088Z" transform="translate(-204.146 -103.255)" fill="#263238"/>
      <path id="Trazado_123392" data-name="Trazado 123392" d="M275.86,110.106c0,.121.38.269.791.559s.706.6.812.527.037-.158-.053-.332a1.581,1.581,0,0,0-.527-.559,1.661,1.661,0,0,0-.712-.274C275.992,110.011,275.871,110.048,275.86,110.106Z" transform="translate(-207.517 -99.916)" fill="#263238"/>
      <path id="Trazado_123393" data-name="Trazado 123393" d="M270,105.666c0,.121.327.169.638.327s.527.364.648.306.053-.137,0-.279a1.054,1.054,0,0,0-1.054-.527C270.053,105.539,270,105.608,270,105.666Z" transform="translate(-204.746 -97.769)" fill="#263238"/>
      <path id="Trazado_123394" data-name="Trazado 123394" d="M276.449,100.28a6.126,6.126,0,0,0,.933,4.8,6.51,6.51,0,0,1,1.107,1.761c.242.838-.042,1.787.311,2.588a3.029,3.029,0,0,0,2.451,1.444,6.432,6.432,0,0,1,2.831.759c1.1.785,1.55,2.441,2.847,2.789,1.434.385,2.973-1.139,4.317-.527.812.385,1.154,1.408,1.924,1.871a4.048,4.048,0,0,0,2.82,0c.938-.211,2.109-.322,2.72.411" transform="translate(-207.726 -95.309)" fill="#263238"/>
      <path id="Trazado_123395" data-name="Trazado 123395" d="M298.656,116.185a1.882,1.882,0,0,0-1.133-.5,4.217,4.217,0,0,0-1.471.142,7.5,7.5,0,0,1-1.982.332,2.045,2.045,0,0,1-1.144-.369,4.606,4.606,0,0,1-.875-.933,2.525,2.525,0,0,0-.954-.843,1.945,1.945,0,0,0-1.318,0c-.464.116-.923.311-1.423.459a2.636,2.636,0,0,1-1.618.069,2.852,2.852,0,0,1-1.313-1.054c-.343-.443-.638-.912-1.012-1.318a2.762,2.762,0,0,0-1.334-.833,9.863,9.863,0,0,0-1.581-.279,5.915,5.915,0,0,1-1.545-.38,2.52,2.52,0,0,1-1.212-.975,2.741,2.741,0,0,1-.316-1.439,5.532,5.532,0,0,0-.09-1.313,7.954,7.954,0,0,0-1.228-2.024,6.163,6.163,0,0,1-.917-3.374,5.454,5.454,0,0,1,.111-.949,1.365,1.365,0,0,1,.09-.322,11.6,11.6,0,0,0-.09,1.276,6.189,6.189,0,0,0,.97,3.268,7.356,7.356,0,0,1,1.286,2.066,5.9,5.9,0,0,1,.111,1.365,2.5,2.5,0,0,0,.29,1.313,2.288,2.288,0,0,0,1.1.865,5.635,5.635,0,0,0,1.481.353,9.96,9.96,0,0,1,1.618.29,3.01,3.01,0,0,1,1.46.907c.39.427.691.907,1.023,1.334a2.636,2.636,0,0,0,1.181.949,2.43,2.43,0,0,0,1.46-.063c.48-.142.944-.337,1.434-.459a2.214,2.214,0,0,1,1.476.047,2.773,2.773,0,0,1,1.054.923,4.3,4.3,0,0,0,.822.907,1.845,1.845,0,0,0,1.028.343,7.464,7.464,0,0,0,1.94-.29,4.3,4.3,0,0,1,1.518-.095,1.793,1.793,0,0,1,.891.358.886.886,0,0,1,.216.248Z" transform="translate(-207.672 -95.309)" fill="#455a64"/>
      <path id="Trazado_123396" data-name="Trazado 123396" d="M299.82,112.16a2.014,2.014,0,0,1-.274.09,5.314,5.314,0,0,1-5.356-1.972,5.873,5.873,0,0,0-1.655-1.629,4.686,4.686,0,0,0-2.5-.4,17.4,17.4,0,0,1-2.852.111A4.322,4.322,0,0,1,285.75,108a2.588,2.588,0,0,1-1.107-.949,17.844,17.844,0,0,1-.875-2.5,1.913,1.913,0,0,0-.775-.833,4.281,4.281,0,0,0-1.054-.38,7.992,7.992,0,0,1-2.019-.585,4.338,4.338,0,0,1-2.014-2.23,3.688,3.688,0,0,1-.221-.8,1.7,1.7,0,0,1,0-.29,7.518,7.518,0,0,0,.337,1.054,4.376,4.376,0,0,0,2.008,2.109,8.281,8.281,0,0,0,1.977.527,4.181,4.181,0,0,1,1.128.4,2.172,2.172,0,0,1,.88.928c.4.791.411,1.724.875,2.467a2.994,2.994,0,0,0,2.335,1.181,17.8,17.8,0,0,0,2.81-.105,4.961,4.961,0,0,1,2.636.438,6.158,6.158,0,0,1,1.713,1.713,5.24,5.24,0,0,0,1.5,1.36,5.414,5.414,0,0,0,2.836.759C299.43,112.25,299.809,112.129,299.82,112.16Z" transform="translate(-208.377 -94.912)" fill="#455a64"/>
      <path id="Trazado_123397" data-name="Trazado 123397" d="M246.609,119.272a12.9,12.9,0,0,1,4.154,3.163c.77.174,9.768,9.71,13.622,13.827a5.356,5.356,0,0,1,1.1,5.546,5.461,5.461,0,0,1-5.878,3.395l-12.836-1.724.886-6.59,8.466,1.139-9.436-8.208c-4.7,7.017-12.467,17.112-14.1,18.656L220.3,135.055l7.222-5.878,2.778-6.911c-2.4-.258-13.047,1.16-15.14-1.787s6.59-16.869,6.59-16.869l4.244,2.725-3.611,9.078s6.637-.348,11.766-.253a10.127,10.127,0,0,1,3.015.527c.606.2,3.015.928,3.015.928l.047.327a3.047,3.047,0,0,0,3.305,2.636Z" transform="translate(-178.661 -96.883)" fill="#26aab7"/>
      <path id="Trazado_123398" data-name="Trazado 123398" d="M244.74,171.066a4.27,4.27,0,0,1-.859-.87,15.563,15.563,0,0,1-1.666-2.425,14.66,14.66,0,0,1-1.355-3.274l.137-.047a1.892,1.892,0,0,1,.158.6,2.109,2.109,0,0,1-.3-.527l.137-.047a23.981,23.981,0,0,0,1.455,3.163C243.57,169.621,244.808,171,244.74,171.066Z" transform="translate(-190.968 -125.651)" fill="#263238"/>
      <path id="Trazado_123399" data-name="Trazado 123399" d="M246.718,159.387a4.176,4.176,0,0,1-.97-.527c-.575-.374-1.355-.917-2.182-1.581s-1.545-1.265-2.051-1.729a4.4,4.4,0,0,1-.775-.8c.053-.058,1.344,1.054,2.994,2.314S246.765,159.324,246.718,159.387Z" transform="translate(-190.911 -121.062)" fill="#263238"/>
      <path id="Trazado_123400" data-name="Trazado 123400" d="M252.021,156.234a6.272,6.272,0,0,1-1.555-.1,17.992,17.992,0,0,1-7.017-2.583,6.326,6.326,0,0,1-1.249-.933,14.661,14.661,0,0,1,1.35.764,22.942,22.942,0,0,0,3.369,1.581,23.61,23.61,0,0,0,3.579.986,15.126,15.126,0,0,1,1.524.285Z" transform="translate(-191.601 -120.055)" fill="#263238"/>
      <path id="Trazado_123401" data-name="Trazado 123401" d="M282.685,139.976a13.191,13.191,0,0,1-.923-1.165,20.749,20.749,0,0,0-2.435-2.609,21.305,21.305,0,0,0-2.852-2.151,12.735,12.735,0,0,1-1.255-.791,5.539,5.539,0,0,1,1.355.627,16.521,16.521,0,0,1,5.345,4.808A5.763,5.763,0,0,1,282.685,139.976Z" transform="translate(-207.215 -110.903)" fill="#263238"/>
      <path id="Trazado_123402" data-name="Trazado 123402" d="M269.713,137.01a1.631,1.631,0,0,1-.279.074l-.817.169-1.3.248c-.527.09-1.054.216-1.734.279a4.1,4.1,0,0,1-2.109-.29,3.69,3.69,0,0,1-.986-.717,7.09,7.09,0,0,1-.775-1.017c-.469-.727-.859-1.545-1.418-2.267a4.016,4.016,0,0,0-1-.938,3.59,3.59,0,0,0-1.313-.5,9.637,9.637,0,0,0-2.836.032,9.826,9.826,0,0,1-2.72.037,6.811,6.811,0,0,1-3.948-2.24,6.606,6.606,0,0,1-1.46-2.71,5.018,5.018,0,0,1-.137-.833,1.1,1.1,0,0,1,0-.29c.032,0,.047.4.248,1.091a6.853,6.853,0,0,0,1.5,2.609,6.7,6.7,0,0,0,3.848,2.109,9.753,9.753,0,0,0,2.636-.058,9.826,9.826,0,0,1,2.92-.032,3.838,3.838,0,0,1,1.408.527A4.291,4.291,0,0,1,260.5,133.3c.585.759.97,1.581,1.423,2.3a6.69,6.69,0,0,0,.733.981,3.552,3.552,0,0,0,.907.68,3.917,3.917,0,0,0,2.019.3c.638-.047,1.218-.158,1.724-.237l1.307-.2.828-.116a.928.928,0,0,1,.274,0Z" transform="translate(-193.81 -107.494)" fill="#fafafa"/>
      <path id="Trazado_123403" data-name="Trazado 123403" d="M234.672,132.959a3.643,3.643,0,0,1-1.144-.459,5.736,5.736,0,0,1-2.2-2.061,3.991,3.991,0,0,1-.438-2.973,2.589,2.589,0,0,1,.385-.843c.121-.179.211-.264.227-.253a6.289,6.289,0,0,0-.422,1.139,4.049,4.049,0,0,0,.485,2.794,6.184,6.184,0,0,0,2.066,2.03C234.256,132.727,234.688,132.917,234.672,132.959Z" transform="translate(-186.198 -107.644)" fill="#fafafa"/>
      <path id="Trazado_123404" data-name="Trazado 123404" d="M258.935,149.64a5.623,5.623,0,0,1-.759,0,8.745,8.745,0,0,0-2.019.448,12.648,12.648,0,0,1-1.408.364,4.155,4.155,0,0,1-1.692,0,5.609,5.609,0,0,1-3.094-2.209c-.833-1.091-1.4-2.246-2.056-3.2a6.9,6.9,0,0,0-2.109-2.156,4.006,4.006,0,0,0-1.929-.622c-.485,0-.754.058-.759.032a.686.686,0,0,1,.19-.063,2.255,2.255,0,0,1,.569-.074,3.885,3.885,0,0,1,2.024.559,6.821,6.821,0,0,1,2.23,2.182c.68.965,1.26,2.109,2.066,3.163a5.467,5.467,0,0,0,2.936,2.109,6.1,6.1,0,0,0,2.989-.306,8.149,8.149,0,0,1,2.066-.369,2.952,2.952,0,0,1,.575.053C258.867,149.614,258.935,149.63,258.935,149.64Z" transform="translate(-192.032 -115.111)" fill="#fafafa"/>
      <path id="Trazado_123405" data-name="Trazado 123405" d="M289.855,153.967a2.443,2.443,0,0,0-.337-.179,1.945,1.945,0,0,0-.986-.137,2.741,2.741,0,0,0-1.36.585,16.561,16.561,0,0,0-1.4,1.281,4.281,4.281,0,0,1-1.639,1.054,3.632,3.632,0,0,1-1.581.137,3.2,3.2,0,0,1-1.023-.322.886.886,0,0,1-.322-.221,6.173,6.173,0,0,0,1.365.348,3.579,3.579,0,0,0,1.492-.185,4.217,4.217,0,0,0,1.534-1.012,13.313,13.313,0,0,1,1.434-1.286,2.8,2.8,0,0,1,1.492-.575,1.882,1.882,0,0,1,1.054.237C289.787,153.835,289.866,153.957,289.855,153.967Z" transform="translate(-210.047 -120.45)" fill="#fafafa"/>
      <path id="Trazado_123406" data-name="Trazado 123406" d="M302.664,170.674a17.753,17.753,0,0,0-.606-1.7,3.932,3.932,0,0,0-1.181-1.481,2.636,2.636,0,0,0-2.161-.527,8.083,8.083,0,0,0-2.109,1.054,3.69,3.69,0,0,1-1.914.617,1.866,1.866,0,0,1-1.255-.5.749.749,0,0,1-.258-.422,1.431,1.431,0,0,0,.327.343,1.845,1.845,0,0,0,1.191.385,3.611,3.611,0,0,0,1.777-.643,7.808,7.808,0,0,1,2.177-1.107,2.8,2.8,0,0,1,2.378.58,3.99,3.99,0,0,1,1.207,1.581,5.856,5.856,0,0,1,.38,1.286,1.286,1.286,0,0,1,.047.532Z" transform="translate(-215.707 -126.682)" fill="#fafafa"/>
      <path id="Trazado_123407" data-name="Trazado 123407" d="M283.837,174.685a1.334,1.334,0,0,0,.759-.527,1.465,1.465,0,0,0,.206-.97,4.112,4.112,0,0,0-.4-1.218,6.423,6.423,0,0,1-.527-1.26,1.908,1.908,0,0,1,.053-1.139,1.281,1.281,0,0,1,.459-.612c.153-.1.258-.111.264-.095a1.582,1.582,0,0,0-.527.77,1.84,1.84,0,0,0,0,1.012,7.427,7.427,0,0,0,.527,1.207,3.9,3.9,0,0,1,.406,1.313,1.582,1.582,0,0,1-.3,1.1,1.1,1.1,0,0,1-.633.432C283.937,174.732,283.837,174.7,283.837,174.685Z" transform="translate(-211.277 -127.735)" fill="#fafafa"/>
      <path id="Trazado_123408" data-name="Trazado 123408" d="M246.8,167.776a2.4,2.4,0,0,0,.116-.68,2.2,2.2,0,0,0-.817-1.624,7.333,7.333,0,0,0-2.573-1.139,6.078,6.078,0,0,1-1.581-.722,4.217,4.217,0,0,1-1.239-1.4,13.606,13.606,0,0,1-1.118-3.363,7.412,7.412,0,0,0-1.091-2.594,3.69,3.69,0,0,0-1.444-1.2c-.416-.174-.675-.19-.67-.216s.063,0,.185,0a2.33,2.33,0,0,1,.527.116,3.516,3.516,0,0,1,1.581,1.181,7.185,7.185,0,0,1,1.186,2.636,13.887,13.887,0,0,0,1.112,3.295,3.964,3.964,0,0,0,1.149,1.313,5.857,5.857,0,0,0,1.5.7,7.248,7.248,0,0,1,2.636,1.234,2.277,2.277,0,0,1,.8,1.771,1.439,1.439,0,0,1-.127.527C246.844,167.729,246.8,167.781,246.8,167.776Z" transform="translate(-188.849 -121.101)" fill="#fafafa"/>
      <path id="Trazado_123409" data-name="Trazado 123409" d="M247.982,182.825a8.129,8.129,0,0,0-1.054-2.262,7.908,7.908,0,0,0-1.9-1.624,1.513,1.513,0,0,1,.717.253,4.418,4.418,0,0,1,1.4,1.207,4.365,4.365,0,0,1,.791,1.666,1.523,1.523,0,0,1,.047.759Z" transform="translate(-192.94 -132.502)" fill="#fafafa"/>
      <path id="Trazado_123410" data-name="Trazado 123410" d="M222.97,126.2a1.933,1.933,0,0,0-.348-.069,1.771,1.771,0,0,0-.912.206,30.37,30.37,0,0,0-2.636,1.861,5.683,5.683,0,0,1-1.639.8,3.769,3.769,0,0,1-1.487.148,2.514,2.514,0,0,1-.959-.311c-.211-.116-.3-.216-.29-.227a4.217,4.217,0,0,0,1.265.343,4.813,4.813,0,0,0,2.957-.981,21.777,21.777,0,0,1,2.715-1.813,1.692,1.692,0,0,1,1.007-.132C222.876,126.09,222.976,126.19,222.97,126.2Z" transform="translate(-178.598 -107.471)" fill="#fafafa"/>
      <path id="Trazado_123411" data-name="Trazado 123411" d="M226.4,118.241a.674.674,0,0,0-.142-.2.77.77,0,0,0-.569-.211,9.173,9.173,0,0,1-2.267.1,2.884,2.884,0,0,1-1.207-.443,2.262,2.262,0,0,1-.727-.77,1.154,1.154,0,0,1-.184-.933,3.51,3.51,0,0,0,.348.833,2.6,2.6,0,0,0,1.813,1.054,5.9,5.9,0,0,0,1.212.032c.374,0,.712-.079,1.023-.058a.822.822,0,0,1,.643.343A.275.275,0,0,1,226.4,118.241Z" transform="translate(-181.706 -102.643)" fill="#fafafa"/>
      <g id="Grupo_55323" data-name="Grupo 55323" transform="translate(59.181 32.513)" opacity="0.3">
        <path id="Trazado_123412" data-name="Trazado 123412" d="M267.189,153.039c.78-2.346-2.92,4.017-4.876,5.525a11.835,11.835,0,0,0-2.546,2.251,9.162,9.162,0,0,0-1.286,4.513C258.454,165.327,266.661,154.589,267.189,153.039Z" transform="translate(-258.48 -152.525)"/>
      </g>
      <path id="Trazado_123413" data-name="Trazado 123413" d="M174.331,250.142l.237-3.732,7,.4-.29,5.461h-.438c-1.94,0-9.847-.153-11.118-.622C168.311,251.139,174.331,250.142,174.331,250.142Z" transform="translate(-157.229 -164.405)" fill="#8ec8c8"/>
      <g id="Grupo_55324" data-name="Grupo 55324" transform="translate(21.499 85.793)" opacity="0.4">
        <path id="Trazado_123414" data-name="Trazado 123414" d="M187,255.469a2.409,2.409,0,0,1,.975-1.439,2.378,2.378,0,0,1,1.666-.416l-.111,1.956Z" transform="translate(-187 -253.595)"/>
      </g>
      <path id="Trazado_123415" data-name="Trazado 123415" d="M171.371,254.61s-2.109.48-1.877.838,8.229.812,11.766.7v-.158l-9.32-.448S171.777,254.647,171.371,254.61Z" transform="translate(-157.215 -168.282)" opacity="0.4"/>
      <path id="Trazado_123416" data-name="Trazado 123416" d="M181.319,256.673h-1.745c-1.054,0-2.562-.074-4.217-.163s-3.121-.211-4.217-.306l-1.265-.127-.348-.037h.348l1.27.1c1.054.079,2.557.185,4.217.279s3.121.148,4.217.19l1.276.042h.348Z" transform="translate(-157.184 -168.958)" fill="#263238"/>
      <path id="Trazado_123417" data-name="Trazado 123417" d="M173.592,255.573a1.871,1.871,0,0,0-.612-1.133.949.949,0,0,1,.48.474.922.922,0,0,1,.132.659Z" transform="translate(-158.872 -168.202)" fill="#263238"/>
      <path id="Trazado_123418" data-name="Trazado 123418" d="M177.864,254.286a1.323,1.323,0,0,1-.206-.285c-.09-.169-.153-.311-.132-.322s.111.116.206.279a.881.881,0,0,1,.132.327Z" transform="translate(-161.019 -167.842)" fill="#263238"/>
      <path id="Trazado_123419" data-name="Trazado 123419" d="M178.9,253.945a1.089,1.089,0,0,1-.237-.179c-.116-.116-.2-.221-.174-.237s.121.063.237.179S178.914,253.929,178.9,253.945Z" transform="translate(-161.474 -167.769)" fill="#263238"/>
      <path id="Trazado_123420" data-name="Trazado 123420" d="M179.347,253.053c0,.026-.163.037-.364.026s-.369-.032-.364-.058a.818.818,0,0,1,.364,0,.891.891,0,0,1,.364.032Z" transform="translate(-161.538 -167.521)" fill="#263238"/>
      <path id="Trazado_123421" data-name="Trazado 123421" d="M179.563,252.229a.727.727,0,0,1-.416.1.743.743,0,0,1-.416-.084,2.635,2.635,0,0,1,.416,0,3.163,3.163,0,0,1,.416-.016Z" transform="translate(-161.59 -167.155)" fill="#263238"/>
      <path id="Trazado_123422" data-name="Trazado 123422" d="M176.62,253.058a1.276,1.276,0,0,1-.448,0,3.163,3.163,0,0,1-.474-.132,1.582,1.582,0,0,1-.269-.132.221.221,0,0,1-.1-.142.184.184,0,0,1,.079-.179.822.822,0,0,1,1,.3.791.791,0,0,1,.132.306.237.237,0,0,1,0,.127,1.271,1.271,0,0,0-.185-.4.812.812,0,0,0-.369-.274.728.728,0,0,0-.527,0c-.074.053-.053.137.026.19a1.2,1.2,0,0,0,.248.121,2.99,2.99,0,0,0,.453.148C176.451,253.036,176.62,253.047,176.62,253.058Z" transform="translate(-159.981 -167.241)" fill="#263238"/>
      <path id="Trazado_123423" data-name="Trazado 123423" d="M177.514,252.913a.443.443,0,0,1-.037-.316.807.807,0,0,1,.142-.322.448.448,0,0,1,.39-.206.185.185,0,0,1,.127.216.527.527,0,0,1-.09.2,1.254,1.254,0,0,1-.227.258.6.6,0,0,1-.269.169,2.376,2.376,0,0,0,.227-.211,1.92,1.92,0,0,0,.206-.258c.063-.09.116-.258,0-.285s-.232.084-.306.174a.738.738,0,0,0-.148.285A1.76,1.76,0,0,0,177.514,252.913Z" transform="translate(-160.992 -167.081)" fill="#263238"/>
      <path id="Trazado_123424" data-name="Trazado 123424" d="M189.658,253.537a2.306,2.306,0,0,0-.527,0,2.193,2.193,0,0,0-1.914,1.355c-.127.3-.148.5-.163.5a.37.37,0,0,1,0-.142,1.582,1.582,0,0,1,.095-.374,2.109,2.109,0,0,1,1.966-1.392,1.513,1.513,0,0,1,.385.032A.4.4,0,0,1,189.658,253.537Z" transform="translate(-165.523 -167.746)" fill="#263238"/>
      <path id="Trazado_123425" data-name="Trazado 123425" d="M190.794,248a12.359,12.359,0,0,1,0,1.439,13.592,13.592,0,0,1-.105,1.439,11.1,11.1,0,0,1,0-1.439A10.9,10.9,0,0,1,190.794,248Z" transform="translate(-167.234 -165.156)" fill="#263238"/>
      <path id="Trazado_123426" data-name="Trazado 123426" d="M183.572,255.669a3.732,3.732,0,0,1-1.054.047,3.932,3.932,0,0,1-1.017-.142c0-.026.459.032,1.023.058S183.572,255.648,183.572,255.669Z" transform="translate(-162.9 -168.734)" fill="#263238"/>
      <path id="Trazado_123427" data-name="Trazado 123427" d="M187.806,255.906s-.042.095-.095.2-.084.2-.105.19-.032-.111.032-.227S187.806,255.885,187.806,255.906Z" transform="translate(-165.779 -168.893)" fill="#263238"/>
      <path id="Trazado_123428" data-name="Trazado 123428" d="M188.827,254.737a.418.418,0,0,1-.111.158c-.079.069-.153.111-.169.095s.037-.09.111-.158S188.811,254.721,188.827,254.737Z" transform="translate(-166.231 -168.34)" fill="#263238"/>
      <path id="Trazado_123429" data-name="Trazado 123429" d="M190.148,254.225a.541.541,0,0,0-.2.047c-.105.047-.185.079-.2.063s.047-.111.174-.148S190.159,254.2,190.148,254.225Z" transform="translate(-166.799 -168.077)" fill="#263238"/>
      <path id="Trazado_123430" data-name="Trazado 123430" d="M191.336,254.044a.189.189,0,0,1-.095.074.28.28,0,0,1-.121,0,.164.164,0,0,1,.095-.074C191.272,254.028,191.325,254.012,191.336,254.044Z" transform="translate(-167.449 -168.005)" fill="#263238"/>
      <path id="Trazado_123431" data-name="Trazado 123431" d="M150.876,211.829l1.624-3.079,5.8,3-2.325,4.513-.369-.158c-1.645-.743-8.3-3.88-9.2-4.744C145.4,210.384,150.876,211.829,150.876,211.829Z" transform="translate(-146.246 -146.598)" fill="#8ec8c8"/>
      <g id="Grupo_55325" data-name="Grupo 55325" transform="translate(7.656 67.656)" opacity="0.4">
        <path id="Trazado_123432" data-name="Trazado 123432" d="M160.74,220.081a2.267,2.267,0,0,1,1.376-.849,2.214,2.214,0,0,1,1.581.279l-.838,1.618Z" transform="translate(-160.74 -219.189)"/>
      </g>
      <path id="Trazado_123433" data-name="Trazado 123433" d="M148.132,213.252s-1.977-.4-1.914,0,6.679,3.817,9.726,5.071l.058-.132-7.744-3.927S148.464,213.442,148.132,213.252Z" transform="translate(-146.217 -148.643)" opacity="0.4"/>
      <path id="Trazado_123434" data-name="Trazado 123434" d="M156.157,218.3a.254.254,0,0,1-.105-.037l-.3-.132-1.054-.5c-.907-.427-2.151-1.054-3.506-1.74s-2.573-1.365-3.448-1.856l-1.081-.59-.279-.163c-.063-.037-.095-.058-.09-.063l.1.053.285.148,1.054.569c.88.48,2.109,1.133,3.458,1.835s2.594,1.318,3.49,1.755l1.054.527.29.148Z" transform="translate(-146.256 -148.711)" fill="#263238"/>
      <path id="Trazado_123435" data-name="Trazado 123435" d="M149.92,214.431a3.053,3.053,0,0,0,.063-.6,2.542,2.542,0,0,0-.153-.59.859.859,0,0,1,.232.58.875.875,0,0,1-.142.611Z" transform="translate(-147.925 -148.721)" fill="#263238"/>
      <path id="Trazado_123436" data-name="Trazado 123436" d="M154.022,214.963a.722.722,0,0,1-.069-.322.691.691,0,0,1,0-.322,1.328,1.328,0,0,1,.058.643Z" transform="translate(-149.866 -149.231)" fill="#263238"/>
      <path id="Trazado_123437" data-name="Trazado 123437" d="M155.055,215.071a.983.983,0,0,1-.132-.242.612.612,0,0,1-.063-.269.925.925,0,0,1,.137.237C155.05,214.934,155.076,215.061,155.055,215.071Z" transform="translate(-150.304 -149.345)" fill="#263238"/>
      <path id="Trazado_123438" data-name="Trazado 123438" d="M155.786,214.5a1.47,1.47,0,0,1-.322-.116c-.169-.084-.3-.169-.285-.19s.153.032.322.116S155.8,214.48,155.786,214.5Z" transform="translate(-150.455 -149.17)" fill="#263238"/>
      <path id="Trazado_123439" data-name="Trazado 123439" d="M156.261,213.876a.643.643,0,0,1-.385-.079c-.206-.084-.337-.206-.327-.227a2.108,2.108,0,0,1,.353.158A1.86,1.86,0,0,1,156.261,213.876Z" transform="translate(-150.63 -148.877)" fill="#263238"/>
      <path id="Trazado_123440" data-name="Trazado 123440" d="M153.381,213.5a1.112,1.112,0,0,1-.369-.2,2.04,2.04,0,0,1-.353-.29,1.494,1.494,0,0,1-.179-.211.269.269,0,0,1-.032-.163.179.179,0,0,1,.137-.121.77.77,0,0,1,.738.638.738.738,0,0,1,0,.311c0,.074-.037.105-.042.105a1.3,1.3,0,0,0,0-.406.78.78,0,0,0-.211-.369.654.654,0,0,0-.459-.2c-.084,0-.095.095-.053.169a1.456,1.456,0,0,0,.163.2,3.224,3.224,0,0,0,.332.3A3.563,3.563,0,0,1,153.381,213.5Z" transform="translate(-149.162 -148.38)" fill="#263238"/>
      <path id="Trazado_123441" data-name="Trazado 123441" d="M154,213.811a.453.453,0,0,1,.09-.279.7.7,0,0,1,.243-.216.416.416,0,0,1,.411-.032.174.174,0,0,1,0,.232.443.443,0,0,1-.153.132,1.091,1.091,0,0,1-.29.137.559.559,0,0,1-.29.037,2.516,2.516,0,0,0,.269-.09,1.37,1.37,0,0,0,.274-.142c.09-.053.2-.179.116-.242a.364.364,0,0,0-.327.032.712.712,0,0,0-.232.19,1.979,1.979,0,0,0-.111.243Z" transform="translate(-149.897 -148.723)" fill="#263238"/>
      <path id="Trazado_123442" data-name="Trazado 123442" d="M163.685,219.364a2.626,2.626,0,0,0-.438-.206,2.04,2.04,0,0,0-2.14.422c-.216.206-.311.364-.327.358a.417.417,0,0,1,.063-.116,1.276,1.276,0,0,1,.227-.279,2.017,2.017,0,0,1,2.536-.264A.385.385,0,0,1,163.685,219.364Z" transform="translate(-153.103 -151.418)" fill="#263238"/>
      <path id="Trazado_123443" data-name="Trazado 123443" d="M166.442,214.58a12.165,12.165,0,0,1-.564,1.218,13.36,13.36,0,0,1-.638,1.181,10.406,10.406,0,0,1,.564-1.218,11.213,11.213,0,0,1,.638-1.181Z" transform="translate(-155.212 -149.354)" fill="#263238"/>
      <path id="Trazado_123444" data-name="Trazado 123444" d="M158.383,218.31a4.087,4.087,0,0,1-.891-.353,4.139,4.139,0,0,1-.812-.527s.38.2.849.432A8.928,8.928,0,0,1,158.383,218.31Z" transform="translate(-151.164 -150.702)" fill="#263238"/>
      <path id="Trazado_123445" data-name="Trazado 123445" d="M161.772,220.2l-.153.132c-.079.069-.148.132-.163.121s0-.111.111-.185S161.766,220.181,161.772,220.2Z" transform="translate(-153.42 -152.009)" fill="#263238"/>
      <path id="Trazado_123446" data-name="Trazado 123446" d="M163.1,219.6a.4.4,0,0,1-.153.09c-.09.026-.174.037-.179,0s.063-.058.153-.09S163.091,219.581,163.1,219.6Z" transform="translate(-154.044 -151.719)" fill="#263238"/>
      <path id="Trazado_123447" data-name="Trazado 123447" d="M164.455,219.672a.631.631,0,0,1-.2-.037.289.289,0,0,0-.19,0,.237.237,0,0,1,.206-.058C164.4,219.6,164.465,219.656,164.455,219.672Z" transform="translate(-154.658 -151.715)" fill="#263238"/>
      <path id="Trazado_123448" data-name="Trazado 123448" d="M165.545,219.952a.181.181,0,0,1-.105.026c-.058-.005-.105-.026-.1-.047s.053-.037.105-.032S165.551,219.915,165.545,219.952Z" transform="translate(-155.259 -151.869)" fill="#263238"/>
      <path id="Trazado_123449" data-name="Trazado 123449" d="M197.034,166.235a2.52,2.52,0,1,1-2.789-2.219A2.52,2.52,0,0,1,197.034,166.235Z" transform="translate(-167.87 -125.438)" fill="#fff"/>
      <path id="Trazado_123450" data-name="Trazado 123450" d="M181.35,191.461a.865.865,0,1,1-.5-.745A.865.865,0,0,1,181.35,191.461Z" transform="translate(-162.012 -138.033)" fill="#fff"/>
      <path id="Trazado_123451" data-name="Trazado 123451" d="M202.567,172.9h.116l-10.448-11.234s-23.591-4.038-25.4-1.5-12.051,27.6-12.051,27.6l7.2,3.5,3.875-7.654c.274,8.862,1.292,24.307,1.292,24.307h8l.353-23.58,21.087-3.395c3.242-.527,6.094-3.205,7.6-6.12Zm-32.431,2.256,2.493-4.924,9.737.865c-4.386,1.276-9.02,2.736-12.23,4.059Z" transform="translate(-150.266 -123.227)" fill="#263238"/>
      <path id="Trazado_123452" data-name="Trazado 123452" d="M226.366,174.49a11.766,11.766,0,0,1-1.692,1.386,11.133,11.133,0,0,1-1.813,1.223,12.2,12.2,0,0,1,1.692-1.386A11.133,11.133,0,0,1,226.366,174.49Z" transform="translate(-182.457 -130.398)" fill="#455a64"/>
      <path id="Trazado_123453" data-name="Trazado 123453" d="M237.927,180.93a6.464,6.464,0,0,0-.279.775,2.425,2.425,0,0,0,1.829,2.978c.49.121.812.069.817.105a1.492,1.492,0,0,1-.849.037,2.52,2.52,0,0,1-1.692-1.133,2.557,2.557,0,0,1-.248-2.024A1.45,1.45,0,0,1,237.927,180.93Z" transform="translate(-189.332 -133.443)" fill="#455a64"/>
      <path id="Trazado_123454" data-name="Trazado 123454" d="M199.233,179.071l-.1.032-.3.084-1.149.29c-1,.253-2.451.585-4.217,1.054-3.527,1.023-8.435,2.351-13.806,3.959a10.544,10.544,0,0,0-1.835.933,6.22,6.22,0,0,0-1.529,1.244,3.875,3.875,0,0,0-.738,1.734,7.692,7.692,0,0,0-.084,1.835c.179,2.425.322,4.613.422,6.452s.153,3.326.163,4.354c0,.527,0,.917-.026,1.186a.8.8,0,0,1-.032.306.363.363,0,0,1,0,.105,4,4,0,0,1,0-.411v-1.186c-.032-1.054-.111-2.509-.232-4.349s-.274-4.017-.459-6.442a7.38,7.38,0,0,1,.079-1.887,4.022,4.022,0,0,1,.77-1.819,6.268,6.268,0,0,1,1.581-1.3,10.717,10.717,0,0,1,1.866-.954c2.7-.812,5.272-1.539,7.612-2.182l6.231-1.719c1.782-.48,3.237-.785,4.217-1.017l1.16-.253.3-.063C199.2,179.071,199.233,179.065,199.233,179.071Z" transform="translate(-159.963 -132.559)" fill="#455a64"/>
      <path id="Trazado_123455" data-name="Trazado 123455" d="M190.11,204.89q1,.316,1.977.717a3.063,3.063,0,0,1-1.977-.717Z" transform="translate(-166.971 -144.772)" fill="#455a64"/>
      <path id="Trazado_123456" data-name="Trazado 123456" d="M191.2,202.6a3.337,3.337,0,0,1,.77.843,3.163,3.163,0,0,1,.606.97,3.227,3.227,0,0,1-.77-.843A3.163,3.163,0,0,1,191.2,202.6Z" transform="translate(-167.487 -143.69)" fill="#455a64"/>
      <path id="Trazado_123457" data-name="Trazado 123457" d="M185.66,176.32a6.538,6.538,0,0,1,.759,1.012,6.647,6.647,0,0,1,.727,1.054,2.91,2.91,0,0,1-.891-.917,2.873,2.873,0,0,1-.6-1.149Z" transform="translate(-164.867 -131.263)" fill="#455a64"/>
      <path id="Trazado_123458" data-name="Trazado 123458" d="M188.1,175.36a4.076,4.076,0,0,1,.29,1.276,4.381,4.381,0,0,1,.09,1.307,4.255,4.255,0,0,1-.29-1.276A4.38,4.38,0,0,1,188.1,175.36Z" transform="translate(-166.013 -130.809)" fill="#455a64"/>
      <path id="Trazado_123459" data-name="Trazado 123459" d="M229.679,176.265a.283.283,0,0,1,.063-.353.369.369,0,0,1,.422-.09.422.422,0,0,1-.153.817.4.4,0,0,1-.374-.221c-.111-.232,0-.38.032-.358s0,.142.095.285a.247.247,0,1,0,.322-.353.232.232,0,0,0-.248.026C229.695,176.122,229.711,176.265,229.679,176.265Z" transform="translate(-185.638 -131.013)" fill="#455a64"/>
      <path id="Trazado_123460" data-name="Trazado 123460" d="M218.64,165.07c.037,0-.063.285-.026.738a2.051,2.051,0,0,0,2.42,1.9,7.143,7.143,0,0,0,.706-.2,1.207,1.207,0,0,1-.68.343,2.109,2.109,0,0,1-2.594-2.04,1.218,1.218,0,0,1,.174-.743Z" transform="translate(-180.377 -125.944)" fill="#455a64"/>
      <path id="Trazado_123461" data-name="Trazado 123461" d="M225.15,159.255a6.69,6.69,0,0,1,.527-2.267,2.889,2.889,0,0,1,1.65-1.581c1.46-.459,2.947.68,3.822,1.94a26.359,26.359,0,0,1,2.72,6.468c.775,2.214,1.835,4.47,3.738,5.841" transform="translate(-183.54 -121.326)" fill="#26aab7"/>
      <path id="Trazado_123464" data-name="Trazado 123464" d="M268.977,169.761c-1.476,0-4.275-.037-5.166-.153-1.829-.248-1.808-.411-1.745-.617.174-.564,3.237.306,2.689-.264s-3.869-.627-3.664-1.2c.269-.754,3.458.211,3.732.274s.374-.332.127-.374c-.364-.063-4.159-.8-3.9-1.539.142-.411.854-.09.854-.09s3.5.949,3.611.6-1.924-.986-2.636-1.149-.9-.527-.575-.8a11.733,11.733,0,0,1,3.073.453c.691.174,2.573.7,1.85-.311a3.16,3.16,0,0,1-.738-2.378.39.39,0,0,1,.717.158,4.546,4.546,0,0,0,.527,1.139,3.126,3.126,0,0,0,.643.77c.3.253.98.78,1.212.949Z" transform="translate(-200.508 -124.504)" fill="#ddaf8b"/>
    </g>
    <g id="freepik--Bitcoin--inject-197" transform="translate(40.545 1.216)">
      <path id="Trazado_123465" data-name="Trazado 123465" d="M383.893,41.171s-14.455-5.751-46.559,26.363c0,0-33.422,28.736-15.557,40.808,15.2,10.274,35.267-4.439,45.863-14.07a106.449,106.449,0,0,0,16.01-18.946C390.967,64.013,395.321,49.068,383.893,41.171Z" transform="translate(-63.953 -20.494)" fill="#f1d17a"/>
      <path id="Trazado_123466" data-name="Trazado 123466" d="M383.893,41.171s-14.455-5.751-46.559,26.363c0,0-33.422,28.736-15.557,40.808,15.2,10.274,35.267-4.439,45.863-14.07a106.449,106.449,0,0,0,16.01-18.946C390.967,64.013,395.321,49.068,383.893,41.171Z" transform="translate(-63.953 -20.494)" opacity="0.4"/>
      <path id="Trazado_123467" data-name="Trazado 123467" d="M380.961,39.452s-17.924-9.921-50.08,22.194c0,0-31.05,33.1-12.125,43.47,12.963,7.106,31.851-7.1,42.447-16.732,5.567-5.045,13.053-12.952,17.143-19.278C385.679,57.787,389.728,45.035,380.961,39.452Z" transform="translate(-62.118 -19.186)" fill="#f1d17a"/>
      <ellipse id="Elipse_4195" data-name="Elipse 4195" cx="35.926" cy="14.017" rx="35.926" ry="14.017" transform="translate(251.952 68.621) rotate(-45)" fill="#fff" opacity="0.2"/>
      <path id="Trazado_123468" data-name="Trazado 123468" d="M383.783,70.105l-4.513,4.518-1.165-1.165,4.4-4.381L380.219,66.8l-4.692,4.692L373.735,69.7,349.907,93.532l1.207,1.207-4.845,4.539,2.636,2.636,4.744-4.744.738.738-4.607,4.607,2.525,2.525,5.419-5.382s1.972,2.056,8.767-3.759c5.177-4.428,4.112-8.714,4.112-8.714s2.594.311,6.437-2.731a13.522,13.522,0,0,0,4.6-7.644l4.428-4.423ZM364.136,92.889c-3.838,3.284-7.038-1.054-7.038-1.054l5.9-5.9S367.979,89.61,364.136,92.889ZM373.5,82.873c-3.69,3.042-5.8-1.281-5.8-1.281l5.087-5.092s4.966,2.889.712,6.389Z" transform="translate(-78.019 -32.801)" fill="#f1d17a"/>
      <path id="Trazado_123469" data-name="Trazado 123469" d="M383.783,70.105l-4.513,4.518-1.165-1.165,4.4-4.381L380.219,66.8l-4.692,4.692L373.735,69.7,349.907,93.532l1.207,1.207-4.845,4.539,2.636,2.636,4.744-4.744.738.738-4.607,4.607,2.525,2.525,5.419-5.382s1.972,2.056,8.767-3.759c5.177-4.428,4.112-8.714,4.112-8.714s2.594.311,6.437-2.731a13.522,13.522,0,0,0,4.6-7.644l4.428-4.423ZM364.136,92.889c-3.838,3.284-7.038-1.054-7.038-1.054l5.9-5.9S367.979,89.61,364.136,92.889ZM373.5,82.873c-3.69,3.042-5.8-1.281-5.8-1.281l5.087-5.092s4.966,2.889.712,6.389Z" transform="translate(-78.019 -32.801)" opacity="0.4"/>
      <path id="Trazado_123470" data-name="Trazado 123470" d="M379.139,67.721l-4.518,4.513-1.16-1.16,4.381-4.381-2.293-2.283-4.692,4.7L369.07,67.32,345.243,91.142l1.207,1.207-4.85,4.544,2.636,2.636,4.744-4.744.738.738-4.607,4.6,2.53,2.525,5.409-5.409s1.966,2.056,8.761-3.753c5.177-4.428,4.112-8.714,4.112-8.714s2.594.311,6.437-2.731a13.564,13.564,0,0,0,4.607-7.644l4.423-4.428ZM359.492,90.5c-3.843,3.279-7.043-1.054-7.043-1.054l5.92-5.92S363.33,87.226,359.492,90.5Zm9.362-10.016c-3.69,3.042-5.8-1.281-5.8-1.281l5.113-5.077s4.918,2.873.685,6.373Z" transform="translate(-75.811 -31.671)" fill="#f1d17a"/>
      <path id="Trazado_123471" data-name="Trazado 123471" d="M378.879,38.673c0,.084-1.4-.2-3.922-.316a36.485,36.485,0,0,0-10.58,1.149,45.828,45.828,0,0,0-6.964,2.4,55.282,55.282,0,0,0-7.454,4,105.942,105.942,0,0,0-15.172,12.125c-10.2,9.31-17.18,20.069-20.217,28.551a22.125,22.125,0,0,0-1.386,10.448l.132.875.19.759c.058.237.116.453.163.654s.132.364.185.527a4.682,4.682,0,0,1,.306.975,4.9,4.9,0,0,1-.459-.917c-.069-.153-.153-.322-.227-.527s-.127-.416-.2-.648-.158-.49-.232-.764-.116-.575-.174-.891a21.626,21.626,0,0,1,1.155-10.686c2.936-8.656,9.916-19.568,20.206-28.968a105.021,105.021,0,0,1,15.33-12.167,54.044,54.044,0,0,1,7.586-3.985,44.651,44.651,0,0,1,7.1-2.335,34.572,34.572,0,0,1,10.738-.907c.638.037,1.2.116,1.687.185a12.163,12.163,0,0,1,1.223.206,5.066,5.066,0,0,1,.991.264Z" transform="translate(-62.102 -19.15)" fill="#fafafa"/>
      <path id="Trazado_123472" data-name="Trazado 123472" d="M331.1,102.71s-9.536-11.6,14.407-36.137,37.123-13.78,37.123-13.78S371.706,43.932,346.6,68.909C324.736,90.66,331.1,102.71,331.1,102.71Z" transform="translate(-69.959 -25.068)" opacity="0.4"/>
      <path id="Trazado_123473" data-name="Trazado 123473" d="M379.651,64.41A7.766,7.766,0,0,1,378.36,65.8c-.87.849-2.146,2.056-3.727,3.532l-.227.211-.211-.248-1.4-1.7h.527c-2.425,2.467-5.4,5.461-8.63,8.667-4.217,4.175-8.055,7.907-10.865,10.607-1.408,1.344-2.557,2.42-3.358,3.163a6.467,6.467,0,0,1-1.313,1.054,6.758,6.758,0,0,1,1.086-1.3c.738-.8,1.819-1.94,3.163-3.332,2.7-2.789,6.484-6.605,10.7-10.78,3.232-3.205,6.242-6.157,8.73-8.561l.274-.264.227.29,1.339,1.8-.438-.032c1.634-1.418,2.968-2.557,3.906-3.332A8.234,8.234,0,0,1,379.651,64.41Z" transform="translate(-79.385 -31.671)" fill="#fafafa"/>
      <path id="Trazado_123474" data-name="Trazado 123474" d="M390.863,94.423c.079.074,0,.337-.316.648a3.487,3.487,0,0,1-3.116.917c-.422-.1-.643-.269-.622-.374.058-.227,1-.163,2.061-.49S390.694,94.259,390.863,94.423Z" transform="translate(-97.186 -45.848)" fill="#fafafa"/>
      <path id="Trazado_123475" data-name="Trazado 123475" d="M370.459,115.473c.063.09-.032.29-.29.527a2.567,2.567,0,0,1-2.467.343c-.306-.132-.453-.3-.416-.406.084-.216.78-.142,1.581-.264S370.3,115.288,370.459,115.473Z" transform="translate(-110.978 -55.785)" fill="#fafafa"/>
      <path id="Trazado_123476" data-name="Trazado 123476" d="M403.426,111.513c.169.137-1.639,2.557-4.407,5.029s-5.361,4.012-5.483,3.832,2.219-2.008,4.934-4.444S403.267,111.36,403.426,111.513Z" transform="translate(-100.366 -53.939)" fill="#fafafa"/>
      <path id="Trazado_123477" data-name="Trazado 123477" d="M353.271,171.454a.748.748,0,0,1-.132-.137l-.337-.39c-.279-.348-.664-.833-1.054-1.376a11.855,11.855,0,0,1-1.4-2.051,10.625,10.625,0,0,1,1.613,1.882A7.4,7.4,0,0,1,353.271,171.454Z" transform="translate(-107.701 -80.416)" fill="#263238"/>
      <path id="Trazado_123478" data-name="Trazado 123478" d="M339.027,172.139a.565.565,0,0,1-.111-.111l-.279-.322c-.227-.274-.527-.664-.87-1.1a7.83,7.83,0,0,1-1.107-1.661,6.853,6.853,0,0,1,1.323,1.492C338.647,171.312,339.143,172.081,339.027,172.139Z" transform="translate(-105.166 -81.102)" fill="#263238"/>
      <path id="Trazado_123479" data-name="Trazado 123479" d="M365.092,167.935a26.9,26.9,0,0,1-3.242-4.375,14.1,14.1,0,0,1,1.729,2.109,13.776,13.776,0,0,1,1.513,2.267Z" transform="translate(-109.876 -78.553)" fill="#263238"/>
      <path id="Trazado_123480" data-name="Trazado 123480" d="M376.054,162.736a14.924,14.924,0,0,1-1.845-2.256,15.645,15.645,0,0,1-1.629-2.42,15.285,15.285,0,0,1,1.845,2.256A16.124,16.124,0,0,1,376.054,162.736Z" transform="translate(-111.921 -75.952)" fill="#263238"/>
      <path id="Trazado_123481" data-name="Trazado 123481" d="M387.6,155.421a15.478,15.478,0,0,1-1.85-2.256,15.288,15.288,0,0,1-1.624-2.425,31.784,31.784,0,0,1,3.474,4.681Z" transform="translate(-95.92 -72.491)" fill="#263238"/>
      <path id="Trazado_123482" data-name="Trazado 123482" d="M397.974,147.676a15.133,15.133,0,0,1-1.85-2.256A15.368,15.368,0,0,1,394.5,143a31.372,31.372,0,0,1,3.474,4.676Z" transform="translate(-100.824 -68.831)" fill="#263238"/>
      <path id="Trazado_123483" data-name="Trazado 123483" d="M408.344,139.926a15.13,15.13,0,0,1-1.85-2.256,15.368,15.368,0,0,1-1.624-2.42,15.713,15.713,0,0,1,1.845,2.256,16.128,16.128,0,0,1,1.629,2.42Z" transform="translate(-105.727 -65.167)" fill="#263238"/>
      <path id="Trazado_123484" data-name="Trazado 123484" d="M417.389,130.386a30.862,30.862,0,0,1-3.469-4.676,15.709,15.709,0,0,1,1.845,2.256,16.126,16.126,0,0,1,1.624,2.42Z" transform="translate(-110.006 -60.656)" fill="#263238"/>
      <path id="Trazado_123485" data-name="Trazado 123485" d="M426.239,120.6a16.083,16.083,0,0,1-1.845-2.256,15,15,0,0,1-1.624-2.425,15.961,15.961,0,0,1,1.845,2.262,15.1,15.1,0,0,1,1.624,2.42Z" transform="translate(-114.191 -56.027)" fill="#263238"/>
      <path id="Trazado_123486" data-name="Trazado 123486" d="M434.889,110.556a15.712,15.712,0,0,1-1.845-2.256,15.367,15.367,0,0,1-1.624-2.42,15.709,15.709,0,0,1,1.845,2.256,15.367,15.367,0,0,1,1.624,2.42Z" transform="translate(-118.281 -51.28)" fill="#263238"/>
      <path id="Trazado_123487" data-name="Trazado 123487" d="M442.448,99.876a15.13,15.13,0,0,1-1.866-2.256A15.368,15.368,0,0,1,439,95.2a15.71,15.71,0,0,1,1.845,2.256A16.127,16.127,0,0,1,442.448,99.876Z" transform="translate(-121.865 -46.23)" fill="#263238"/>
      <path id="Trazado_123488" data-name="Trazado 123488" d="M449.014,87.531a15.36,15.36,0,0,1-1.85-2.262,15.1,15.1,0,0,1-1.624-2.42,16.084,16.084,0,0,1,1.845,2.256,15.714,15.714,0,0,1,1.629,2.425Z" transform="translate(-124.957 -40.39)" fill="#263238"/>
      <path id="Trazado_123489" data-name="Trazado 123489" d="M453.1,74.675a12.758,12.758,0,0,1-1.661-2A12.1,12.1,0,0,1,450,70.5a12.808,12.808,0,0,1,1.655,2.008A12.176,12.176,0,0,1,453.1,74.675Z" transform="translate(-127.066 -34.551)" fill="#263238"/>
      <path id="Trazado_123490" data-name="Trazado 123490" d="M454.79,61.49a12.432,12.432,0,0,1-1.661-2,13.008,13.008,0,0,1-1.439-2.167,11.878,11.878,0,0,1,1.661,2A12.54,12.54,0,0,1,454.79,61.49Z" transform="translate(-127.865 -28.319)" fill="#263238"/>
      <circle id="Elipse_4196" data-name="Elipse 4196" cx="27.718" cy="27.718" r="27.718" transform="translate(10.622 39.2) rotate(-45)" fill="#f1d17a"/>
      <circle id="Elipse_4197" data-name="Elipse 4197" cx="27.718" cy="27.718" r="27.718" transform="translate(10.622 39.2) rotate(-45)" fill="#fff" opacity="0.2"/>
      <path id="Trazado_123491" data-name="Trazado 123491" d="M152.87,25.32a5.271,5.271,0,0,1,.928,1.413,5.113,5.113,0,0,1,.691,1.529,5.272,5.272,0,0,1-.928-1.392A5.114,5.114,0,0,1,152.87,25.32Z" transform="translate(-68.389 -13.188)" fill="#263238"/>
      <path id="Trazado_123492" data-name="Trazado 123492" d="M161.49,28.18a4.923,4.923,0,0,1,.9,1.334,4.744,4.744,0,0,1,.654,1.466,4.924,4.924,0,0,1-.9-1.334,4.686,4.686,0,0,1-.654-1.466Z" transform="translate(-70.137 -14.54)" fill="#263238"/>
      <path id="Trazado_123493" data-name="Trazado 123493" d="M169.37,32.07a4.66,4.66,0,0,1,.9,1.334,4.687,4.687,0,0,1,.659,1.466,4.66,4.66,0,0,1-.9-1.334A4.781,4.781,0,0,1,169.37,32.07Z" transform="translate(-71.726 -16.38)" fill="#263238"/>
      <path id="Trazado_123494" data-name="Trazado 123494" d="M143.74,24.1a5.272,5.272,0,0,1,.928,1.392,5.114,5.114,0,0,1,.691,1.529,5.271,5.271,0,0,1-.928-1.392,5.061,5.061,0,0,1-.691-1.529Z" transform="translate(-66.548 -12.611)" fill="#263238"/>
      <path id="Trazado_123495" data-name="Trazado 123495" d="M135.25,24.47a5.092,5.092,0,0,1,.923,1.392,5.271,5.271,0,0,1,.691,1.529A5.092,5.092,0,0,1,135.93,26a5.271,5.271,0,0,1-.68-1.529Z" transform="translate(-64.837 -12.786)" fill="#263238"/>
      <path id="Trazado_123496" data-name="Trazado 123496" d="M126.91,26.32a5.214,5.214,0,0,1,.928,1.36,4.96,4.96,0,0,1,.685,1.492,5.124,5.124,0,0,1-.928-1.355A5.018,5.018,0,0,1,126.91,26.32Z" transform="translate(-63.155 -13.661)" fill="#263238"/>
      <path id="Trazado_123497" data-name="Trazado 123497" d="M119.24,28.9a5.092,5.092,0,0,1,.928,1.392,5.271,5.271,0,0,1,.691,1.529,5.171,5.171,0,0,1-.933-1.4,5.272,5.272,0,0,1-.685-1.524Z" transform="translate(-81.186 -14.881)" fill="#263238"/>
      <path id="Trazado_123498" data-name="Trazado 123498" d="M111.91,33.09a5.013,5.013,0,0,1,.928,1.392,5.113,5.113,0,0,1,.691,1.529,5.382,5.382,0,0,1-.928-1.386A5.182,5.182,0,0,1,111.91,33.09Z" transform="translate(-77.72 -16.862)" fill="#263238"/>
      <path id="Trazado_123499" data-name="Trazado 123499" d="M105.52,38.24a5.382,5.382,0,0,1,.928,1.4,5.119,5.119,0,0,1,.691,1.523,5.271,5.271,0,0,1-.928-1.392,5.113,5.113,0,0,1-.691-1.529Z" transform="translate(-74.698 -19.297)" fill="#263238"/>
      <path id="Trazado_123500" data-name="Trazado 123500" d="M100.46,43.66a5.382,5.382,0,0,1,.928,1.4,5.119,5.119,0,0,1,.691,1.523,5.272,5.272,0,0,1-.928-1.392,5.113,5.113,0,0,1-.691-1.529Z" transform="translate(-72.306 -21.86)" fill="#263238"/>
      <path id="Trazado_123501" data-name="Trazado 123501" d="M96.16,50.57a5.694,5.694,0,0,1,.97,1.444,5.467,5.467,0,0,1,.717,1.581,5.693,5.693,0,0,1-.959-1.444,5.467,5.467,0,0,1-.727-1.581Z" transform="translate(-70.273 -25.127)" fill="#263238"/>
      <path id="Trazado_123502" data-name="Trazado 123502" d="M92.52,58a5.6,5.6,0,0,1,.959,1.439,5.841,5.841,0,0,1,.717,1.581,5.45,5.45,0,0,1-.959-1.439A5.4,5.4,0,0,1,92.52,58Z" transform="translate(-68.552 -28.64)" fill="#263238"/>
      <path id="Trazado_123503" data-name="Trazado 123503" d="M90.07,66a7.538,7.538,0,0,1,1.017,1.381,4.8,4.8,0,0,1,.843,1.518,6.685,6.685,0,0,1-1.054-1.365A4.217,4.217,0,0,1,90.07,66Z" transform="translate(-67.393 -32.423)" fill="#263238"/>
      <path id="Trazado_123504" data-name="Trazado 123504" d="M89,74.88a6.779,6.779,0,0,1,1.054,1.645,7.011,7.011,0,0,1,.817,1.75,6.674,6.674,0,0,1-1.054-1.618A7.09,7.09,0,0,1,89,74.88Z" transform="translate(-66.887 -36.622)" fill="#263238"/>
      <path id="Trazado_123505" data-name="Trazado 123505" d="M90,86.85a7.907,7.907,0,0,1,1.144,1.719,7.733,7.733,0,0,1,.912,1.856,8.055,8.055,0,0,1-1.149-1.719A7.829,7.829,0,0,1,90,86.85Z" transform="translate(-67.36 -42.282)" fill="#263238"/>
      <circle id="Elipse_4198" data-name="Elipse 4198" cx="27.718" cy="27.718" r="27.718" transform="translate(17.557 22.85) rotate(-15.67)" fill="#f1d17a"/>
      <ellipse id="Elipse_4199" data-name="Elipse 4199" cx="21.118" cy="20.596" rx="21.118" ry="20.596" transform="translate(28.776 23.065) rotate(-4.89)" fill="#fff" opacity="0.2"/>
      <path id="Trazado_123506" data-name="Trazado 123506" d="M127.779,100.395A21.087,21.087,0,0,1,105,81.775a3.289,3.289,0,0,0,.037.6,21.111,21.111,0,1,0,42.068-3.6,5.561,5.561,0,0,0-.063-.6,21.087,21.087,0,0,1-19.263,22.215Z" transform="translate(-74.453 -38.182)" fill="#fafafa"/>
      <path id="Trazado_123507" data-name="Trazado 123507" d="M124.166,41.654a21.087,21.087,0,0,1,22.768,18.635,3.29,3.29,0,0,0-.037-.6,21.111,21.111,0,0,0-42.068,3.6,5.561,5.561,0,0,0,.063.6,21.087,21.087,0,0,1,19.273-22.23Z" transform="translate(-74.335 -20.307)" opacity="0.3"/>
      <path id="Trazado_123508" data-name="Trazado 123508" d="M144.743,71.025c-.253-2.952-1.829-4.744-3.97-5.351a5.645,5.645,0,0,0,2.061-5.208,5.512,5.512,0,0,0-5.166-5.272l-.306-3.585-3.311.285.285,3.332-1.877.158-.29-3.332-3.311.29.29,3.332-3.021.258-2.109.179.285,3.311,2.109-.179,1.381,16.1-2.325.2.285,3.311,2.32-.2h0l3.021-.258.332,3.88,3.311-.285-.332-3.875,1.877-.163.332,3.875,3.311-.279-.343-4.006C143.272,76.708,145.027,74.389,144.743,71.025ZM130.61,58.9l4.47-.39c2.483-.211,3.985.706,4.165,2.815s-1.144,3.237-3.632,3.448l-5.082.438L130,58.948Zm6.579,15.651-5.419.459-.385.032-.559-6.558,5.8-.5c2.71-.232,4.259.648,4.455,2.92S139.9,74.32,137.189,74.552Z" transform="translate(-60.531 -25.619)" fill="#f1d17a"/>
      <path id="Trazado_123509" data-name="Trazado 123509" d="M144.743,71.025c-.253-2.952-1.829-4.744-3.97-5.351a5.645,5.645,0,0,0,2.061-5.208,5.512,5.512,0,0,0-5.166-5.272l-.306-3.585-3.311.285.285,3.332-1.877.158-.29-3.332-3.311.29.29,3.332-3.021.258-2.109.179.285,3.311,2.109-.179,1.381,16.1-2.325.2.285,3.311,2.32-.2h0l3.021-.258.332,3.88,3.311-.285-.332-3.875,1.877-.163.332,3.875,3.311-.279-.343-4.006C143.272,76.708,145.027,74.389,144.743,71.025ZM130.61,58.9l4.47-.39c2.483-.211,3.985.706,4.165,2.815s-1.144,3.237-3.632,3.448l-5.082.438L130,58.948Zm6.579,15.651-5.419.459-.385.032-.559-6.558,5.8-.5c2.71-.232,4.259.648,4.455,2.92S139.9,74.32,137.189,74.552Z" transform="translate(-60.531 -25.619)" opacity="0.3"/>
      <path id="Trazado_123510" data-name="Trazado 123510" d="M145.014,73.976c-.253-2.957-1.829-4.744-3.97-5.351a5.65,5.65,0,0,0,2.061-5.214,5.52,5.52,0,0,0-5.166-5.272l-.306-3.59-3.311.285.285,3.332-1.877.163L132.446,55l-3.316.285.269,3.353-3.021.258-2.109.179.285,3.311,2.109-.179,1.381,16.1-2.325.2L126,81.815l2.32-.2h0l3.015-.258.332,3.875,3.311-.285-.332-3.875,1.877-.158.332,3.875,3.311-.285-.343-4C143.543,79.659,145.3,77.339,145.014,73.976ZM130.881,61.851l4.486-.385c2.488-.216,3.985.7,4.165,2.815s-1.144,3.237-3.632,3.448l-5.082.438L130.29,61.9ZM137.46,77.5l-5.424.48-.385.032-.559-6.553,5.8-.527c2.71-.232,4.259.648,4.455,2.926s-1.176,3.405-3.885,3.637Z" transform="translate(-60.572 -27.009)" fill="#f1d17a"/>
      <path id="Trazado_123511" data-name="Trazado 123511" d="M129.786,85.052c-.227,0-.712-3.5-1.086-7.855s-.49-7.907-.264-7.907.712,3.5,1.086,7.86S130.012,85.036,129.786,85.052Z" transform="translate(-63.443 -33.979)" fill="#fafafa"/>
      <path id="Trazado_123512" data-name="Trazado 123512" d="M143.784,79.125c0,.227-1.4.527-3.163.685s-3.21.09-3.232-.137,1.4-.527,3.163-.68S143.763,78.9,143.784,79.125Z" transform="translate(-64.711 -38.526)" fill="#fafafa"/>
      <path id="Trazado_123513" data-name="Trazado 123513" d="M145.614,97.794c0,.227-1.4.527-3.163.685s-3.21.09-3.232-.137,1.4-.527,3.163-.685S145.593,97.541,145.614,97.794Z" transform="translate(-65.068 -47.347)" fill="#fafafa"/>
      <circle id="Elipse_4200" data-name="Elipse 4200" cx="45.89" cy="45.89" r="45.89" transform="translate(114.547 175.469) rotate(-45)" fill="#f1d17a"/>
      <circle id="Elipse_4201" data-name="Elipse 4201" cx="45.89" cy="45.89" r="45.89" transform="translate(114.547 175.469) rotate(-45)" opacity="0.4"/>
      <circle id="Elipse_4202" data-name="Elipse 4202" cx="45.89" cy="45.89" r="45.89" transform="translate(108.192 170.644) rotate(-45)" fill="#f1d17a"/>
      <ellipse id="Elipse_4203" data-name="Elipse 4203" cx="34.967" cy="34.097" rx="34.967" ry="34.097" transform="translate(132.472 139.637) rotate(-5.55)" fill="#fff" opacity="0.2"/>
      <path id="Trazado_123514" data-name="Trazado 123514" d="M231.985,355.906a34.94,34.94,0,0,1-38.045-30.417c0,.332.037.664.069,1a34.957,34.957,0,1,0,69.585-6.763c-.037-.332-.084-.659-.121-.991A34.946,34.946,0,0,1,231.985,355.906Z" transform="translate(-58.139 -151.923)" fill="#fafafa"/>
      <path id="Trazado_123515" data-name="Trazado 123515" d="M225.139,259.066a34.951,34.951,0,0,1,38.051,30.417c-.026-.332-.042-.659-.074-1a34.957,34.957,0,0,0-69.585,6.763c.037.337.084.664.127.991A34.946,34.946,0,0,1,225.139,259.066Z" transform="translate(-58.094 -122.692)" opacity="0.3"/>
      <path id="Trazado_123516" data-name="Trazado 123516" d="M265.11,311.9c-.474-4.887-3.11-7.823-6.669-8.783,2.32-1.8,3.69-4.8,3.311-8.667-.464-4.8-3.474-7.95-8.645-8.6l-.58-5.931-5.472.527.527,5.514-3.084.327-.527-5.514-5.477.527.527,5.514-4.987.485-3.474.337.527,5.477,3.474-.343,2.557,26.611-3.843.374.527,5.477,3.843-.374h0l4.987-.485.622,6.41,5.477-.527-.622-6.41,3.1-.3.664,6.4,5.477-.527-.643-6.621C262.791,321.334,265.653,317.465,265.11,311.9Zm-23.622-19.811,7.417-.717c4.112-.4,6.611,1.091,6.948,4.581s-1.829,5.377-5.941,5.8l-8.435.817-1.007-10.359Zm11.192,25.794-8.962.87-.633.063-1.054-10.844,9.6-.933c4.481-.438,7.064.991,7.428,4.744s-1.908,5.656-6.379,6.094Z" transform="translate(-75.022 -133.572)" fill="#f1d17a"/>
      <path id="Trazado_123517" data-name="Trazado 123517" d="M265.11,311.9c-.474-4.887-3.11-7.823-6.669-8.783,2.32-1.8,3.69-4.8,3.311-8.667-.464-4.8-3.474-7.95-8.645-8.6l-.58-5.931-5.472.527.527,5.514-3.084.327-.527-5.514-5.477.527.527,5.514-4.987.485-3.474.337.527,5.477,3.474-.343,2.557,26.611-3.843.374.527,5.477,3.843-.374h0l4.987-.485.622,6.41,5.477-.527-.622-6.41,3.1-.3.664,6.4,5.477-.527-.643-6.621C262.791,321.334,265.653,317.465,265.11,311.9Zm-23.622-19.811,7.417-.717c4.112-.4,6.611,1.091,6.948,4.581s-1.829,5.377-5.941,5.8l-8.435.817-1.007-10.359Zm11.192,25.794-8.962.87-.633.063-1.054-10.844,9.6-.933c4.481-.438,7.064.991,7.428,4.744s-1.908,5.656-6.379,6.094Z" transform="translate(-75.022 -133.572)" opacity="0.3"/>
      <path id="Trazado_123518" data-name="Trazado 123518" d="M260.047,312.388c-.474-4.887-3.116-7.823-6.669-8.783,2.314-1.8,3.69-4.8,3.311-8.667-.469-4.8-3.474-7.95-8.651-8.6l-.575-5.931-5.477.527.527,5.514-3.11.3-.527-5.514-5.472.527.527,5.514-4.987.485-3.474.337.527,5.477,3.474-.337,2.6,26.638-3.838.369.527,5.477,3.838-.374h0l4.987-.485.627,6.41,5.472-.527-.622-6.41,3.11-.3.622,6.41,5.477-.527-.648-6.621C257.722,321.84,260.584,317.955,260.047,312.388Zm-23.622-19.811,7.412-.722c4.112-.4,6.611,1.091,6.953,4.581s-1.829,5.377-5.946,5.8l-8.435.817L235.4,292.693Zm11.186,25.789-8.962.87-.633.063-1.054-10.844,9.6-.933c4.476-.438,7.064.991,7.428,4.744s-1.887,5.662-6.384,6.1Z" transform="translate(-74.238 -133.804)" fill="#f1d17a"/>
      <path id="Trazado_123519" data-name="Trazado 123519" d="M260.464,264.756a1.58,1.58,0,0,1-.206-.311l-.527-.954c-.221-.427-.527-.944-.875-1.539s-.759-1.3-1.276-2.051a46.069,46.069,0,0,0-10.359-11.25,46.749,46.749,0,0,0-9.041-5.477,46.181,46.181,0,0,0-11.6-3.532,42.6,42.6,0,0,0-6.532-.612,43.468,43.468,0,0,0-6.853.369,45.707,45.707,0,0,0-20.064,7.723,44.78,44.78,0,0,0-5.5,4.47,45.71,45.71,0,0,0-8.224,10.543,46.248,46.248,0,0,0-4.544,11.229,46.917,46.917,0,0,0-1.386,10.464,44.86,44.86,0,0,0,.643,8.714,45.862,45.862,0,0,0,1.582,6.421c.258.87.527,1.624.791,2.283s.459,1.207.648,1.65l.406,1.012a1.244,1.244,0,0,1,.111.358,1.629,1.629,0,0,1-.19-.322l-.48-.981c-.216-.432-.469-.975-.722-1.629s-.585-1.4-.865-2.272a42.83,42.83,0,0,1-1.724-6.442,44.568,44.568,0,0,1-.775-8.8,46.107,46.107,0,0,1,14.228-32.811A46.218,46.218,0,0,1,213.156,238.6a44.281,44.281,0,0,1,6.948-.353,43.3,43.3,0,0,1,6.642.648,45.7,45.7,0,0,1,20.855,9.3,44.218,44.218,0,0,1,6.358,6.141,43.147,43.147,0,0,1,3.9,5.388c.5.764.88,1.487,1.218,2.109s.612,1.144.812,1.582l.459,1C260.464,264.634,260.5,264.75,260.464,264.756Z" transform="translate(-49.663 -113.858)" fill="#fafafa"/>
      <path id="Trazado_123520" data-name="Trazado 123520" d="M238.54,281.938c0,.142-2.109.474-5.44.875l.306-.374c.19,1.582.4,3.469.606,5.5l.037.406-.406.042-1.476.148c-2.588.253-5,.459-7,.606l.311-.369c.248,3.311.332,5.493.19,5.509s-.474-2.146-.87-5.446l-.042-.332.348-.037c1.987-.242,4.391-.5,6.98-.754l1.476-.137-.369.443c-.19-2.035-.348-3.927-.469-5.514v-.348l.327-.026C236.358,281.88,238.529,281.8,238.54,281.938Z" transform="translate(-79.992 -134.494)" fill="#fafafa"/>
      <path id="Trazado_123521" data-name="Trazado 123521" d="M263.451,280.212c0,.227-1.444.554-3.274.733s-3.326.137-3.347-.09,1.439-.553,3.268-.727S263.43,280.011,263.451,280.212Z" transform="translate(-87.994 -133.622)" fill="#fafafa"/>
      <path id="Trazado_123522" data-name="Trazado 123522" d="M235.048,331.185c-.227,0-.981-5.8-1.676-13.016s-1.086-13.068-.859-13.089.975,5.8,1.676,13.01S235.274,331.164,235.048,331.185Z" transform="translate(-84.188 -145.469)" fill="#fafafa"/>
      <path id="Trazado_123523" data-name="Trazado 123523" d="M258.014,321.221c0,.227-2.325.643-5.245.923s-5.3.332-5.319.105,2.325-.638,5.24-.923S257.993,320.995,258.014,321.221Z" transform="translate(-85.098 -153.033)" fill="#fafafa"/>
      <path id="Trazado_123524" data-name="Trazado 123524" d="M261.394,352.03c.026.227-2.325.638-5.24.923s-5.3.327-5.324.105,2.325-.643,5.245-.928S261.373,351.8,261.394,352.03Z" transform="translate(-85.739 -167.6)" fill="#fafafa"/>
      <path id="Trazado_123525" data-name="Trazado 123525" d="M245.451,416.082a27.769,27.769,0,0,1-2.741-4.8,28.17,28.17,0,0,1,2.741,4.8Z" transform="translate(-86.225 -195.684)" fill="#263238"/>
      <path id="Trazado_123526" data-name="Trazado 123526" d="M231.225,411.687a12.953,12.953,0,0,1-1.434-2.235,12.787,12.787,0,0,1-1.191-2.372,25.3,25.3,0,0,1,2.636,4.607Z" transform="translate(-83.425 -193.698)" fill="#263238"/>
      <path id="Trazado_123527" data-name="Trazado 123527" d="M218.1,405.4a13.126,13.126,0,0,1-1.429-2.235,12.851,12.851,0,0,1-1.2-2.372,12.952,12.952,0,0,1,1.434,2.235A12.79,12.79,0,0,1,218.1,405.4Z" transform="translate(-80.796 -190.724)" fill="#263238"/>
      <path id="Trazado_123528" data-name="Trazado 123528" d="M260.546,417.932a14.112,14.112,0,0,1-1.487-2.335,13.7,13.7,0,0,1-1.249-2.467,13.918,13.918,0,0,1,1.487,2.33,13.622,13.622,0,0,1,1.249,2.472Z" transform="translate(-89.25 -196.559)" fill="#263238"/>
      <path id="Trazado_123529" data-name="Trazado 123529" d="M274.621,417.152a28.172,28.172,0,0,1-2.741-4.8A27.768,27.768,0,0,1,274.621,417.152Z" transform="translate(-92.065 -196.19)" fill="#263238"/>
      <path id="Trazado_123530" data-name="Trazado 123530" d="M288.421,414.142a14.006,14.006,0,0,1-1.492-2.33,14.513,14.513,0,0,1-1.249-2.472,13.923,13.923,0,0,1,1.492,2.335A14.364,14.364,0,0,1,288.421,414.142Z" transform="translate(-94.828 -194.767)" fill="#263238"/>
      <path id="Trazado_123531" data-name="Trazado 123531" d="M301.041,409.522a13.926,13.926,0,0,1-1.492-2.335,14.582,14.582,0,0,1-1.249-2.467,13.7,13.7,0,0,1,1.492,2.33A14.514,14.514,0,0,1,301.041,409.522Z" transform="translate(-97.355 -192.582)" fill="#263238"/>
      <path id="Trazado_123532" data-name="Trazado 123532" d="M313.1,402.448a14.2,14.2,0,0,1-1.492-2.335,14.511,14.511,0,0,1-1.249-2.472,13.92,13.92,0,0,1,1.492,2.335A14.3,14.3,0,0,1,313.1,402.448Z" transform="translate(-99.769 -189.235)" fill="#263238"/>
      <path id="Trazado_123533" data-name="Trazado 123533" d="M323.541,393.788a14.2,14.2,0,0,1-1.492-2.335,14.513,14.513,0,0,1-1.249-2.472,13.921,13.921,0,0,1,1.492,2.335A14.3,14.3,0,0,1,323.541,393.788Z" transform="translate(-101.859 -185.14)" fill="#263238"/>
      <path id="Trazado_123534" data-name="Trazado 123534" d="M331.856,384.688a14.4,14.4,0,0,1-1.487-2.335,13.62,13.62,0,0,1-1.249-2.472,14.112,14.112,0,0,1,1.487,2.335,13.438,13.438,0,0,1,1.249,2.472Z" transform="translate(-103.527 -180.837)" fill="#263238"/>
      <path id="Trazado_123535" data-name="Trazado 123535" d="M339.391,374.168a28.466,28.466,0,0,1-2.741-4.808,14.2,14.2,0,0,1,1.492,2.335A14.052,14.052,0,0,1,339.391,374.168Z" transform="translate(-105.033 -175.863)" fill="#263238"/>
      <path id="Trazado_123536" data-name="Trazado 123536" d="M345.541,362.228a13.92,13.92,0,0,1-1.492-2.335,14.3,14.3,0,0,1-1.249-2.472,14.2,14.2,0,0,1,1.492,2.335A14.514,14.514,0,0,1,345.541,362.228Z" transform="translate(-106.264 -170.217)" fill="#263238"/>
      <path id="Trazado_123537" data-name="Trazado 123537" d="M349.441,348.818a13.923,13.923,0,0,1-1.492-2.335A14.3,14.3,0,0,1,346.7,344a14.2,14.2,0,0,1,1.492,2.335A14.514,14.514,0,0,1,349.441,348.818Z" transform="translate(-107.045 -163.872)" fill="#263238"/>
      <path id="Trazado_123538" data-name="Trazado 123538" d="M350.722,333.681a20.591,20.591,0,0,1-1.787-2.852,20.309,20.309,0,0,1-1.545-2.989A42.036,42.036,0,0,1,350.722,333.681Z" transform="translate(-106.956 -156.231)" fill="#263238"/>
      <path id="Trazado_123539" data-name="Trazado 123539" d="M348.762,313.656a20.881,20.881,0,0,1-1.782-2.852,21.11,21.11,0,0,1-1.55-2.984,20.2,20.2,0,0,1,1.787,2.852A21.086,21.086,0,0,1,348.762,313.656Z" transform="translate(-106.565 -146.764)" fill="#263238"/>
      <g id="Grupo_55327" data-name="Grupo 55327" transform="translate(125.526 124.76)" opacity="0.2">
        <path id="Trazado_123540" data-name="Trazado 123540" d="M216.794,340.766a.654.654,0,0,0,0,.6.612.612,0,0,0,1.139-.116.654.654,0,0,0-.116-.585c-.248-.3-.554-.264-.527-.316C217.285,340.4,216.979,340.429,216.794,340.766Z" transform="translate(-193.815 -286.906)" fill="none"/>
        <path id="Trazado_123541" data-name="Trazado 123541" d="M259.234,311.091a.649.649,0,0,0,0,.6.622.622,0,0,0,.606.332.643.643,0,0,0,.527-.443.734.734,0,0,0,0-.211h0a.622.622,0,0,0-.137-.374c-.242-.3-.553-.264-.527-.316C259.724,310.722,259.413,310.754,259.234,311.091Z" transform="translate(-213.882 -272.877)" fill="none"/>
        <path id="Trazado_123542" data-name="Trazado 123542" d="M209.374,381.626a.654.654,0,0,0,0,.6.617.617,0,0,0,1.139-.111.648.648,0,0,0-.116-.59c-.248-.3-.527-.264-.527-.316C209.865,381.279,209.559,381.31,209.374,381.626Z" transform="translate(-190.307 -306.226)" fill="none"/>
        <path id="Trazado_123543" data-name="Trazado 123543" d="M310.936,313.1a.664.664,0,0,0,0,.6.617.617,0,0,0,1.144-.111.648.648,0,0,0-.121-.59c-.242-.3-.527-.264-.527-.316C311.463,312.727,311.141,312.759,310.936,313.1Z" transform="translate(-238.329 -273.823)" fill="none"/>
        <path id="Trazado_123544" data-name="Trazado 123544" d="M222.794,275.553a.648.648,0,0,0,0,.6.617.617,0,0,0,1.144-.111.659.659,0,0,0-.121-.59.8.8,0,0,0-.422-.269v.1a1.835,1.835,0,0,1,0,.406,1.787,1.787,0,0,1-.069-.4v-.127c-.032,0-.053,0-.047-.026A.758.758,0,0,0,222.794,275.553Z" transform="translate(-196.652 -256.069)" fill="none"/>
        <path id="Trazado_123545" data-name="Trazado 123545" d="M314.934,297.076a.654.654,0,0,0,0,.6.617.617,0,0,0,1.139-.111.648.648,0,0,0-.116-.59c-.248-.3-.554-.264-.527-.316C315.409,296.713,315.1,296.739,314.934,297.076Z" transform="translate(-240.22 -266.248)" fill="none"/>
        <path id="Trazado_123546" data-name="Trazado 123546" d="M256.454,317.342a.649.649,0,0,0,0,.6.617.617,0,0,0,1.144-.111.659.659,0,0,0-.069-.527h-.19l.179-.037a.184.184,0,0,0-.026-.042c-.242-.3-.554-.264-.527-.316A1.159,1.159,0,0,0,256.454,317.342Z" transform="translate(-212.567 -275.823)" fill="none"/>
        <path id="Trazado_123547" data-name="Trazado 123547" d="M245.544,337.11a.654.654,0,0,0,0,.6.612.612,0,0,0,1.139-.111.385.385,0,0,0,0-.132h.005a.648.648,0,0,0-.142-.432c-.248-.3-.554-.264-.527-.316A1.08,1.08,0,0,0,245.544,337.11Z" transform="translate(-207.409 -285.19)" fill="none"/>
        <path id="Trazado_123548" data-name="Trazado 123548" d="M191.412,294.071l37.255-3.653,5.519,5.762.032.037h.053l11.292-1.17,3.031-.327.78-.095h.148a.588.588,0,0,0,.042.137.9.9,0,0,0,1.687-.163.87.87,0,0,0-.237-.817.77.77,0,0,0-.527-.216c-.132,0-.2.037-.2.053a.769.769,0,0,1,.527.316.648.648,0,0,1,.116.59.617.617,0,0,1-1.139.111.654.654,0,0,1,0-.6c.185-.337.49-.364.474-.416s-.069-.037-.2,0a.764.764,0,0,0-.464.316.859.859,0,0,0-.121.691h-.148l-.78.063-3.036.274-11.25,1.054-5.5-5.8-.042-.047h-.058l-37.292,3.6-14.075,1.376c-.037.105-.069.211-.105.316Z" transform="translate(-175.128 -263.179)" fill="#fff"/>
        <path id="Trazado_123549" data-name="Trazado 123549" d="M288.9,280.661l5.883,6,.042.042h.063l7.185-.743c0-.053-.047-.105-.069-.163l-7.075.638-5.862-6.036-.053-.053h-.074l-4.686.453-17.344,1.734-5.272.559-1.423.169a3,3,0,0,0-.5.079,2.99,2.99,0,0,0,.5,0l1.434-.111,5.272-.459,17.354-1.639Z" transform="translate(-214.147 -258.536)" fill="#fff"/>
        <path id="Trazado_123550" data-name="Trazado 123550" d="M210.409,320.131l3.648,1.518h.026l6.141-.564,1.629-.163h.111a.458.458,0,1,0,.406-.522.464.464,0,0,0-.411.474h-.111l-1.634.111-6.12.474-3.643-1.55h-.058l-26.163,2.5-9.167.9-1.792-.87v.332l1.7.833h.084l9.2-.891Z" transform="translate(-173.27 -277.241)" fill="#fff"/>
        <path id="Trazado_123551" data-name="Trazado 123551" d="M231.855,311.413l-3.442-1.054h-.063l-2.2.227c-.121-1.413-.237-2.762-.348-4.038v-.137h-.137l-10.1,1.118-2.82.332-.311.042a.453.453,0,0,0-.485-.374.464.464,0,1,0,.5.443l.311-.026,2.831-.258,9.953-.965q.148,1.924.322,4.049v.148h.153l2.325-.232,3.442,1.054h.063l4.286-.416,19.315-1.924,3.579,1.966h.053l3.627-.4.959-.116h.047a.9.9,0,0,0,1.692-.169.859.859,0,0,0-.237-.812.764.764,0,0,0-.527-.221c-.132,0-.2.037-.2.058a.794.794,0,0,1,.527.316.648.648,0,0,1,.121.59.617.617,0,0,1-1.144.111.664.664,0,0,1,0-.6c.185-.337.49-.369.474-.416s-.074-.042-.2,0a.754.754,0,0,0-.464.311.865.865,0,0,0-.095.791h-.037l-.965.069-3.606.311-3.521-2.019h-.069l-19.357,1.84Z" transform="translate(-191.364 -270.858)" fill="#fff"/>
        <path id="Trazado_123552" data-name="Trazado 123552" d="M210.293,362.041a.759.759,0,0,0-.527-.221c-.132,0-.2.037-.2.058a.794.794,0,0,1,.527.316.648.648,0,0,1,.116.59.617.617,0,0,1-1.139.111.654.654,0,0,1,0-.6c.185-.337.49-.369.474-.417s-.074-.042-.2,0a.754.754,0,0,0-.464.311.875.875,0,0,0-.074.849.9.9,0,0,0,.9.527.907.907,0,0,0,.785-.691v-.032h.137l.68-.047,2.573-.206,9.014-.817h.079l.037-.074,2.594-5.5v-.084c-.079-.833-.163-1.687-.248-2.551-.369-3.716-.717-7.212-1.012-10.2V343.3l-.058-.032-4.312-2.831h-.037l-4.217.459-1.133.137h-.153a.843.843,0,0,0-.248-.527.764.764,0,0,0-.527-.221c-.132,0-.2.037-.2.058a.794.794,0,0,1,.527.316.654.654,0,0,1,.116.585.611.611,0,0,1-1.139.116.654.654,0,0,1,0-.6c.185-.337.49-.369.474-.416s-.074-.042-.2,0a.733.733,0,0,0-.464.311.849.849,0,0,0-.079.843.9.9,0,0,0,1.692-.163.79.79,0,0,0,0-.248h.148l1.144-.084,4.186-.358c1.207.812,2.636,1.771,4.217,2.82.285,2.978.612,6.452.965,10.143.084.849.163,1.687.248,2.509l-2.52,5.393-8.925.928-2.562.29-.675.09h-.132A.854.854,0,0,0,210.293,362.041Z" transform="translate(-190.039 -286.873)" fill="#fff"/>
        <path id="Trazado_123553" data-name="Trazado 123553" d="M302.543,350.58a.453.453,0,0,0,.406-.469h0l1.334-.1,4.934-.427h.058l5.166-4.265,10.443-1a1.46,1.46,0,0,1,.074-.327l-10.591,1.054h-.042l-.037.032-5.129,4.323-4.887.527-1.334.163h0a.455.455,0,1,0-.4.49Z" transform="translate(-234.154 -288.627)" fill="#fff"/>
        <path id="Trazado_123554" data-name="Trazado 123554" d="M251.15,391.235a3.839,3.839,0,0,0-.037-.606c-.053-.712-.132-1.65-.216-2.789-.2-2.346-.5-5.593-.849-9.173-.111-1.118-.216-2.209-.322-3.242v-.063l-.047-.037-5.272-4.286c-.1-.854-.185-1.581-.248-2.109-.047-.358-.084-.6-.105-.7a.38.38,0,0,0,.174,0,.459.459,0,1,0-.5-.411.448.448,0,0,0,.3.38c0,.1,0,.343.032.722.042.527.095,1.27.163,2.151v.037l.032.032,5.208,4.349c.095,1.017.2,2.082.3,3.163.348,3.579.68,6.822.938,9.167.132,1.128.237,2.061.322,2.773l.079.606a.453.453,0,0,0-.274.158h.722a.464.464,0,0,0-.4-.121Z" transform="translate(-206.584 -299.656)" fill="#fff"/>
        <path id="Trazado_123555" data-name="Trazado 123555" d="M217.378,283.881a.453.453,0,0,0,.527.411.459.459,0,1,0-.527-.411Z" transform="translate(-194.125 -259.969)" fill="#fff"/>
        <path id="Trazado_123556" data-name="Trazado 123556" d="M266.849,350.687l.912-.095h.158a.523.523,0,0,0,0,.09.453.453,0,0,0,.5.411.464.464,0,0,0,.411-.5.453.453,0,0,0-.9-.042h-.169l-.917.042-3.421.216-11.466.817q-.237-1.919-.485-3.954c-.047-.374-.095-.749-.137-1.1l4.112-4.518.047-.047v-.069c-.153-1.471-.3-2.862-.422-4.117v-.053l-.042-.037-1.371-1.118-.042-.032h-.047l-5.208.559-1.423.174h-.174a.822.822,0,0,0-.253-.527.759.759,0,0,0-.527-.221c-.132,0-.2.037-.2.058a.794.794,0,0,1,.527.316.648.648,0,0,1,.142.432h-.005a.385.385,0,0,1,0,.132.611.611,0,0,1-1.139.111.654.654,0,0,1,0-.6c.185-.332.49-.364.474-.411s-.069-.042-.2,0a.733.733,0,0,0-.464.311.865.865,0,0,0-.074.844.891.891,0,0,0,1.687-.163,1.053,1.053,0,0,0,0-.216h.174l1.429-.105,5.171-.453,1.281,1.054c.111,1.223.237,2.573.369,4l-4.133,4.513-.047.053v.074c.042.369.095.764.142,1.165l.527,4.1v.153h.148L263.4,351Z" transform="translate(-207.175 -285.119)" fill="#fff"/>
        <path id="Trazado_123557" data-name="Trazado 123557" d="M229.189,347.478c-.248-2.994-.527-6.147-.775-9.347-.037-.443-.074-.88-.105-1.323v-.063l-.053-.042-4.412-3.8-.053-.042h-.069l-27.275,2.667h-.063L179.82,346.645l.079.2,16.611-11.07,27.175-2.636L228,336.83c.032.416.069.833.1,1.255.274,3.258.527,6.463.791,9.489v.158h.158l36.453-3.163.084-.237Z" transform="translate(-176.367 -283.365)" fill="#fff"/>
        <path id="Trazado_123558" data-name="Trazado 123558" d="M272.1,327.268c.1.9.248,2.177.427,3.774v.037l.037.026,7.76,6.015.042.032h.047l10.3-.986,17.818-1.761,2.478-.264.032-.185-2.53.221-17.818,1.687-10.237,1.007L272.706,331c-.211-1.581-.38-2.831-.527-3.727-.058-.411-.111-.743-.148-1a1.449,1.449,0,0,0-.069-.337,1.857,1.857,0,0,0,0,.343A6.568,6.568,0,0,1,272.1,327.268Z" transform="translate(-219.932 -280.093)" fill="#fff"/>
        <path id="Trazado_123559" data-name="Trazado 123559" d="M274.553,304.022h-.042l-.037.026L271.8,305.93l-8.408.875-2.409.274-.58.079a.807.807,0,0,0-.242-.48.754.754,0,0,0-.527-.221c-.132,0-.2.037-.2.058a.784.784,0,0,1,.527.316.622.622,0,0,1,.137.374h0a.735.735,0,0,1,0,.211.643.643,0,0,1-.527.443.622.622,0,0,1-.606-.332.648.648,0,0,1,0-.6c.179-.337.49-.369.474-.416s-.074-.042-.206,0a.764.764,0,0,0-.464.311.875.875,0,0,0-.074.849.9.9,0,0,0,1.687-.169.743.743,0,0,0,0-.285l.58-.032,2.414-.2,8.435-.764h.074l2.678-1.866,4.47-.348,13.822-1.139,4.186-.385,1.086-.111a.448.448,0,1,0,0-.069l-1.086.058-4.217.279L279.008,303.7Z" transform="translate(-213.629 -268.723)" fill="#fff"/>
        <path id="Trazado_123560" data-name="Trazado 123560" d="M233.927,388.078c-.121-1.276-.248-2.509-.364-3.69v-.053l-.063-.042-2.862-1.782-.042-.032h-.047l-6.574.7-1.861.221-.216.026a.453.453,0,0,0-.49-.374.459.459,0,0,0,.09.912.453.453,0,0,0,.406-.464h.216l1.871-.142,6.537-.58,2.741,1.74c.116,1.16.232,2.372.348,3.616l1,9.905.243.037C234.6,395.311,234.28,391.848,233.927,388.078Z" transform="translate(-195.845 -306.827)" fill="#fff"/>
        <path id="Trazado_123561" data-name="Trazado 123561" d="M247.671,381.533l.042-.053v-.063c-.48-4.908-.938-9.526-1.334-13.569v-.058l-.047-.037-4.022-3.284c-.358-3.463-.654-6.294-.859-8.292-.105-.965-.2-1.729-.253-2.277-.032-.237-.053-.427-.074-.58h.095a.459.459,0,1,0-.5-.411.448.448,0,0,0,.369.4,3.689,3.689,0,0,0,.037.59c.047.527.111,1.318.19,2.288.185,2.008.443,4.86.759,8.35v.047l.037.037,4,3.305c.385,4.017.822,8.587,1.286,13.448l-.443.527-1.724,2.109.374.042c.527-.622,1.054-1.276,1.581-1.94Z" transform="translate(-205.161 -292.606)" fill="#fff"/>
        <path id="Trazado_123562" data-name="Trazado 123562" d="M307.113,369.1l-22.91,2.182-5.024.49h-.111l-.026.105-1.581,5.936v.053c.527,5.119.975,9.626,1.334,13.179l.2-.047c-.332-3.537-.749-8.029-1.228-13.126.527-1.845,1.054-3.79,1.581-5.8l4.913-.474,22.905-2.272,1.091-.116.127-.221Z" transform="translate(-222.535 -300.448)" fill="#fff"/>
        <path id="Trazado_123563" data-name="Trazado 123563" d="M268.009,325.394v.074l.063.042,1.624,1.155,4.549,3.221.047.032h.042l11.687-1.191,3.4-.374.775-.1a.459.459,0,1,0-.005-.058l-.78.053-3.411.285-11.64,1.054-4.5-3.2-1.581-1.107c-.353-3.532-.68-6.811-.965-9.637v-.132h-.132l-7.38.775-2.061.237-.279.037a.78.78,0,0,0-.132-.158.743.743,0,0,0-.527-.216c-.132,0-.2.037-.2.053a.76.76,0,0,1,.527.316.183.183,0,0,1,.026.042l-.179.037h.19a.659.659,0,0,1,.069.527.617.617,0,0,1-1.144.111.648.648,0,0,1,0-.6c.184-.337.49-.364.474-.417s-.074-.042-.206,0a.791.791,0,0,0-.464.311.875.875,0,0,0-.074.849.9.9,0,0,0,1.687-.163.833.833,0,0,0-.079-.6h.258l2.066-.163,7.27-.654C267.36,318.636,267.666,321.894,268.009,325.394Z" transform="translate(-212.272 -275.161)" fill="#fff"/>
        <path id="Trazado_123564" data-name="Trazado 123564" d="M314.654,319.012l-4.344-3.579-.053-.042h-.063l-.385.042-18.772,1.861-2.994-1.692h-.074l-3.875.39h-.047l-.026.037-3.89,4.787h0v.026c.137,1.26.248,2.235.322,2.921.037.311.069.559.09.749a1.358,1.358,0,0,0,.042.248,1.3,1.3,0,0,0,0-.253c0-.19-.032-.438-.053-.754-.058-.675-.142-1.645-.248-2.894l3.9-4.676,3.8-.353,2.984,1.713h.084l18.82-1.8.316-.032,4.349,3.574.047.037h.069l.933-.095v-.306Z" transform="translate(-223.797 -275.104)" fill="#fff"/>
        <path id="Trazado_123565" data-name="Trazado 123565" d="M232.019,246.459l.053.037h0l4.592,3.774c.448,4.476.854,8.487,1.176,11.7v.063l.058.032,4.265,2.109h.042l2.636-.29.675-.09a1.2,1.2,0,0,0,.232-.042.858.858,0,0,0-.232,0l-.685.047-2.6.216-4.154-2.109c-.306-3.221-.68-7.238-1.1-11.714v-.074l-.053-.042-4.6-3.79c-.095-.917-.185-1.824-.274-2.72l-.3.105c.084.891.169,1.792.258,2.71Z" transform="translate(-200.922 -241.145)" fill="#fff"/>
        <path id="Trazado_123566" data-name="Trazado 123566" d="M246.637,247.689l-.037.047v.058c.332,3.163.612,5.862.817,7.823.105.928.2,1.676.258,2.235a5.357,5.357,0,0,0,.127.8,5.086,5.086,0,0,0-.032-.8c-.042-.564-.1-1.318-.174-2.246-.174-1.951-.416-4.634-.7-7.776l4.275-5.171,2.288-2.794.042-.047v-.063l-.079-.78h-.285l.069.743-2.256,2.741Z" transform="translate(-207.943 -238.97)" fill="#fff"/>
        <path id="Trazado_123567" data-name="Trazado 123567" d="M255.886,254.529a.474.474,0,0,0,.074-.279.459.459,0,0,0-.5-.411.453.453,0,0,0-.411.5.443.443,0,0,0,.759.29l.469.422c.5.448,1.218,1.054,2.056,1.766.063.669.132,1.386.2,2.109.158,1.661.322,3.163.459,4.254a9.532,9.532,0,0,0,.285,1.75,10.017,10.017,0,0,0-.063-1.771c-.074-1.1-.206-2.6-.364-4.265-.079-.77-.158-1.508-.227-2.188v-.063l-.047-.037c-.88-.712-1.634-1.307-2.177-1.719Z" transform="translate(-211.937 -245.999)" fill="#fff"/>
        <path id="Trazado_123568" data-name="Trazado 123568" d="M265.174,259.368v.053l.032.037,2.388,2.483.047.053h.074l13.954-1.371,7.2-.7h.069l.042-.053,5.456-7.154-.206-.216-5.461,7.154-7.127.691-13.87,1.334-2.309-2.388c-.822-8.213-1.524-15.214-2.019-20.18v-.09h-.179v.111C263.734,244.107,264.393,251.134,265.174,259.368Z" transform="translate(-215.821 -238.994)" fill="#fff"/>
        <path id="Trazado_123569" data-name="Trazado 123569" d="M250.188,284.451l-3.311.274-10.923,1.033c-.042-.474-.09-.97-.142-1.471v-.2l-.074-.037-4.265-2.414-.042-.026h-.047l-8.761.912-2.536.29-.675.09a.95.95,0,0,0-.232.047.739.739,0,0,0,.237,0l.68-.042,2.541-.2,8.73-.8,4.143,2.362v.037c.058.554.111,1.107.163,1.629v.158h.153l11.07-1.128,3.3-.369.891-.116a1.175,1.175,0,0,0,.306-.063,1.159,1.159,0,0,0-.311,0Z" transform="translate(-194.978 -259.132)" fill="#fff"/>
        <path id="Trazado_123570" data-name="Trazado 123570" d="M202,261.2l2.915,2.91.053.047h.069l7.907-.807c.185,1.7.337,3.094.448,4.107.047.38.09.7.121.965,0,0-.037,0-.037.032s0,0,.047.026v.127a1.786,1.786,0,0,0,.069.4,1.833,1.833,0,0,0,0-.406v-.1a.8.8,0,0,1,.422.269.659.659,0,0,1,.121.59.617.617,0,0,1-1.144.111.648.648,0,0,1,0-.6c.185-.337.49-.369.474-.417s-.074-.042-.206,0a.722.722,0,0,0-.459.311.859.859,0,0,0-.079.849.9.9,0,0,0,1.687-.169.849.849,0,0,0-.237-.812.754.754,0,0,0-.527-.221.258.258,0,0,0-.079,0c0-.269-.042-.585-.069-.965-.09-1.054-.211-2.478-.364-4.217V263.1h-.121l-7.907.738-2.847-2.852Z" transform="translate(-186.855 -249.382)" fill="#fff"/>
      </g>
      <path id="Trazado_123571" data-name="Trazado 123571" d="M49.134,204.717s7.133-5.746,30.818,6.748c0,0,23.828,10.375,15.862,20.285-6.774,8.435-20.638,3.637-28.282.053a62.9,62.9,0,0,1-12.32-7.907C49.134,218.818,44.052,211.159,49.134,204.717Z" transform="translate(-47.053 -97.39)" fill="#f1d17a"/>
      <path id="Trazado_123572" data-name="Trazado 123572" d="M49.134,204.717s7.133-5.746,30.818,6.748c0,0,23.828,10.375,15.862,20.285-6.774,8.435-20.638,3.637-28.282.053a62.9,62.9,0,0,1-12.32-7.907C49.134,218.818,44.052,211.159,49.134,204.717Z" transform="translate(-47.053 -97.39)" opacity="0.4"/>
      <path id="Trazado_123573" data-name="Trazado 123573" d="M50.659,202.45s8.382-8.714,32.062,3.79c0,0,23.253,13.248,14.407,22.378-6.068,6.257-19.183,1.545-26.827-2.04a66.569,66.569,0,0,1-13.01-7.907C51.186,213.6,46.7,207.142,50.659,202.45Z" transform="translate(-48.051 -95.545)" fill="#f1d17a"/>
      <ellipse id="Elipse_4204" data-name="Elipse 4204" cx="8.266" cy="21.181" rx="8.266" ry="21.181" transform="translate(3.542 117.349) rotate(-62.16)" fill="#fff" opacity="0.2"/>
      <path id="Trazado_123574" data-name="Trazado 123574" d="M97.111,227.216l-3.2-1.84a7.992,7.992,0,0,0-3.8-3.648c-2.636-1.139-4.086-.564-4.086-.564s-.053-2.6-3.69-4.328c-4.744-2.262-5.567-.791-5.567-.791L72.862,213.8l-1.054,1.824,3.332,1.914-.306.527L71.407,216.1,70.3,218.017l3.458,1.84-.527.875,17.228,9.9.743-1.292,3.39,1.951.949-1.65-3.163-1.819.485-.843,3.163,1.819Zm-15.2-4.17-4.281-2.462s1.16-2.952,3.848-1.671S81.908,223.046,81.908,223.046ZM88.93,226.9l-3.69-2.109s.527-2.783,3.094-1.613C91.292,224.507,88.93,226.9,88.93,226.9Z" transform="translate(-58.045 -102.308)" fill="#f1d17a"/>
      <path id="Trazado_123575" data-name="Trazado 123575" d="M97.111,227.216l-3.2-1.84a7.992,7.992,0,0,0-3.8-3.648c-2.636-1.139-4.086-.564-4.086-.564s-.053-2.6-3.69-4.328c-4.744-2.262-5.567-.791-5.567-.791L72.862,213.8l-1.054,1.824,3.332,1.914-.306.527L71.407,216.1,70.3,218.017l3.458,1.84-.527.875,17.228,9.9.743-1.292,3.39,1.951.949-1.65-3.163-1.819.485-.843,3.163,1.819Zm-15.2-4.17-4.281-2.462s1.16-2.952,3.848-1.671S81.908,223.046,81.908,223.046ZM88.93,226.9l-3.69-2.109s.527-2.783,3.094-1.613C91.292,224.507,88.93,226.9,88.93,226.9Z" transform="translate(-58.045 -102.308)" opacity="0.4"/>
      <path id="Trazado_123576" data-name="Trazado 123576" d="M98.62,224.566l-3.2-1.84a7.971,7.971,0,0,0-3.8-3.643c-2.636-1.139-4.08-.564-4.08-.564s-.053-2.6-3.69-4.328c-4.744-2.267-5.562-.791-5.562-.791l-3.912-2.251-1.054,1.829,3.337,1.914-.306.527-3.427-1.972-1.1,1.924,3.458,1.84-.527.87,17.222,9.905.743-1.3,3.395,1.951L97.071,227l-3.163-1.824.48-.838,3.268,1.877Zm-15.2-4.17-4.281-2.472s1.154-2.952,3.848-1.676S83.422,220.4,83.422,220.4Zm7.022,3.854-3.69-2.109s.527-2.783,3.089-1.618C92.806,221.862,90.444,224.25,90.444,224.25Z" transform="translate(-58.769 -101.055)" fill="#f1d17a"/>
      <path id="Trazado_123577" data-name="Trazado 123577" d="M54,201.306a2.994,2.994,0,0,1,.527-.343c.174-.1.385-.221.648-.343s.564-.274.917-.411a19.885,19.885,0,0,1,6.221-1.418,26.721,26.721,0,0,1,4.428.058,32.478,32.478,0,0,1,4.992.917,60.715,60.715,0,0,1,10.733,4.186c7.454,3.516,13.3,8.477,16.447,12.884a12.562,12.562,0,0,1,2.478,5.883,5.094,5.094,0,0,0,.053.527v.469a3.637,3.637,0,0,1-.058.738,1.655,1.655,0,0,1-.132.59c-.084,0,.069-.838-.174-2.293a13.179,13.179,0,0,0-2.636-5.583c-3.195-4.217-8.962-9.025-16.342-12.483a63.582,63.582,0,0,0-10.628-4.217,33.548,33.548,0,0,0-4.824-.938,27.815,27.815,0,0,0-4.317-.158,22.2,22.2,0,0,0-6.147,1.133C54.764,200.979,54.026,201.375,54,201.306Z" transform="translate(-50.338 -95.181)" fill="#fafafa"/>
      <path id="Trazado_123578" data-name="Trazado 123578" d="M98.8,227.177s3.358-8.208-14.407-17.855S61.08,208,61.08,208s4.607-6.89,23.1,2.81C100.285,219.28,98.8,227.177,98.8,227.177Z" transform="translate(-53.686 -97.988)" opacity="0.4"/>
      <path id="Trazado_123579" data-name="Trazado 123579" d="M123.971,263.237c-.105,0,.058-.669.332-1.423a3.891,3.891,0,0,1,.638-1.323,4.27,4.27,0,0,1-.38,1.418,5.84,5.84,0,0,1-.59,1.328Z" transform="translate(-83.407 -124.385)" fill="#263238"/>
      <path id="Trazado_123580" data-name="Trazado 123580" d="M132.293,261.158c-.105,0,0-.554.237-1.154a3.242,3.242,0,0,1,.527-1.054,2.715,2.715,0,0,1-.285,1.149A3.781,3.781,0,0,1,132.293,261.158Z" transform="translate(-64.319 -123.656)" fill="#263238"/>
      <path id="Trazado_123581" data-name="Trazado 123581" d="M116.66,263.262a4.887,4.887,0,0,1,.406-1.582,4.813,4.813,0,0,1,.664-1.471,4.929,4.929,0,0,1-.406,1.581A4.744,4.744,0,0,1,116.66,263.262Z" transform="translate(-79.966 -124.253)" fill="#263238"/>
      <path id="Trazado_123582" data-name="Trazado 123582" d="M109.51,262.3a5.409,5.409,0,0,1,.443-1.666,5.351,5.351,0,0,1,.7-1.581,10.775,10.775,0,0,1-1.144,3.237Z" transform="translate(-76.585 -123.704)" fill="#263238"/>
      <path id="Trazado_123583" data-name="Trazado 123583" d="M101.73,260.187a5.409,5.409,0,0,1,.443-1.666,5.509,5.509,0,0,1,.7-1.581,5.556,5.556,0,0,1-.443,1.666A5.425,5.425,0,0,1,101.73,260.187Z" transform="translate(-72.906 -122.706)" fill="#263238"/>
      <path id="Trazado_123584" data-name="Trazado 123584" d="M94.54,257.627a5.409,5.409,0,0,1,.443-1.666,5.509,5.509,0,0,1,.7-1.581,5.556,5.556,0,0,1-.443,1.666A5.425,5.425,0,0,1,94.54,257.627Z" transform="translate(-69.507 -121.496)" fill="#263238"/>
      <path id="Trazado_123585" data-name="Trazado 123585" d="M87.35,255.087a5.408,5.408,0,0,1,.443-1.666,5.509,5.509,0,0,1,.7-1.582,10.875,10.875,0,0,1-1.144,3.247Z" transform="translate(-66.107 -120.295)" fill="#263238"/>
      <path id="Trazado_123586" data-name="Trazado 123586" d="M80.6,251.267a5.482,5.482,0,0,1,.438-1.666,5.593,5.593,0,0,1,.7-1.581,5.482,5.482,0,0,1-.438,1.666,5.593,5.593,0,0,1-.7,1.581Z" transform="translate(-62.915 -118.489)" fill="#263238"/>
      <path id="Trazado_123587" data-name="Trazado 123587" d="M73.9,247.3a10.875,10.875,0,0,1,1.144-3.242,5.409,5.409,0,0,1-.443,1.666A5.509,5.509,0,0,1,73.9,247.3Z" transform="translate(-59.747 -116.616)" fill="#263238"/>
      <path id="Trazado_123588" data-name="Trazado 123588" d="M67.26,243.147a5.593,5.593,0,0,1,.443-1.666,5.509,5.509,0,0,1,.7-1.581,5.557,5.557,0,0,1-.443,1.666A5.425,5.425,0,0,1,67.26,243.147Z" transform="translate(-56.608 -114.649)" fill="#263238"/>
      <path id="Trazado_123589" data-name="Trazado 123589" d="M61.18,238.442a10.875,10.875,0,0,1,1.144-3.242,5.593,5.593,0,0,1-.443,1.666A5.424,5.424,0,0,1,61.18,238.442Z" transform="translate(-53.733 -112.427)" fill="#263238"/>
      <path id="Trazado_123590" data-name="Trazado 123590" d="M55.32,232.632a10.875,10.875,0,0,1,1.144-3.242,5.593,5.593,0,0,1-.443,1.666A5.425,5.425,0,0,1,55.32,232.632Z" transform="translate(-50.962 -109.68)" fill="#263238"/>
      <path id="Trazado_123591" data-name="Trazado 123591" d="M50.88,226.1a4.534,4.534,0,0,1,.38-1.487,4.423,4.423,0,0,1,.643-1.4,4.518,4.518,0,0,1-.38,1.471A4.354,4.354,0,0,1,50.88,226.1Z" transform="translate(-48.863 -106.758)" fill="#263238"/>
      <path id="Trazado_123592" data-name="Trazado 123592" d="M47.64,218.964a4.533,4.533,0,0,1,.38-1.487,4.354,4.354,0,0,1,.643-1.4,4.5,4.5,0,0,1-.38,1.487,4.286,4.286,0,0,1-.643,1.4Z" transform="translate(-47.331 -103.386)" fill="#263238"/>
      <path id="Trazado_123593" data-name="Trazado 123593" d="M89.851,220.279c-.1.211-.5.237-.917.279s-.822.069-.954-.121c-.058-.095,0-.248.142-.4a1.323,1.323,0,0,1,1.523-.126C89.825,220.031,89.894,220.179,89.851,220.279Z" transform="translate(-66.394 -105.113)" fill="#fafafa"/>
      <path id="Trazado_123594" data-name="Trazado 123594" d="M103.976,228.333c-.137.185-.569.111-1.054.079s-.907-.037-1.007-.248c-.047-.1,0-.253.221-.38a1.476,1.476,0,0,1,1.666.137C103.987,228.091,104.061,228.249,103.976,228.333Z" transform="translate(-72.986 -108.829)" fill="#fafafa"/>
      <path id="Trazado_123595" data-name="Trazado 123595" d="M86.657,214.4c0,.047-.19,0-.453-.069l-1.054-.4a11.161,11.161,0,0,0-1.581-.474,4.6,4.6,0,0,0-1.919-.053,2.05,2.05,0,0,0-.385.116,1.614,1.614,0,0,0-.285.153l-.253.2-.232-.132c-2.2-1.313-3.806-2.425-3.69-2.6s1.871.648,4.112,1.9l-.48.058a1.8,1.8,0,0,1,.527-.316,2.378,2.378,0,0,1,.527-.174,4.792,4.792,0,0,1,2.283.121,7.955,7.955,0,0,1,1.566.68,6.22,6.22,0,0,1,1,.654C86.578,214.212,86.689,214.349,86.657,214.4Z" transform="translate(-61.118 -101.033)" fill="#fafafa"/>
    </g>
  </g>
</svg>
