<svg xmlns="http://www.w3.org/2000/svg" width="130" height="130" viewBox="0 0 130 130">
  <g id="Grupo_55415" data-name="Grupo 55415" transform="translate(-231 -1401)">
    <g id="Trazado_116891" data-name="Trazado 116891" transform="translate(231 1401)" fill="#fff">
      <path d="M 65 128 C 56.49416351318359 128 48.24383544921875 126.3345642089844 40.47816467285156 123.0499649047852 C 36.74560165405273 121.4712219238281 33.14536285400391 119.5170516967773 29.77749061584473 117.2417831420898 C 26.44110870361328 114.9877624511719 23.30365371704102 112.3991088867188 20.45227241516113 109.5477294921875 C 17.60089111328125 106.6963424682617 15.01223659515381 103.5588912963867 12.75821781158447 100.2225112915039 C 10.48294544219971 96.85463714599609 8.528781890869141 93.25440216064453 6.950036525726318 89.52183532714844 C 3.665436267852783 81.75616455078125 2 73.50583648681641 2 65 C 2 56.49416351318359 3.665436267852783 48.24383544921875 6.950036525726318 40.47816467285156 C 8.528781890869141 36.74560165405273 10.48294544219971 33.14536285400391 12.75821781158447 29.77749061584473 C 15.01223659515381 26.44110870361328 17.60089111328125 23.30365371704102 20.45227241516113 20.45227241516113 C 23.30365371704102 17.60089111328125 26.44110870361328 15.01223659515381 29.77749061584473 12.75821781158447 C 33.14536285400391 10.48294544219971 36.74560165405273 8.528781890869141 40.47816467285156 6.950036525726318 C 48.24383544921875 3.665436267852783 56.49416351318359 2 65 2 C 73.50583648681641 2 81.75616455078125 3.665436267852783 89.52183532714844 6.950036525726318 C 93.25440216064453 8.528781890869141 96.85463714599609 10.48294544219971 100.2225112915039 12.75821781158447 C 103.5588912963867 15.01223659515381 106.6963424682617 17.60089111328125 109.5477294921875 20.45227241516113 C 112.3991088867188 23.30365371704102 114.9877624511719 26.44110870361328 117.2417831420898 29.77749061584473 C 119.5170516967773 33.14536285400391 121.4712219238281 36.74560165405273 123.0499649047852 40.47816467285156 C 126.3345642089844 48.24383544921875 128 56.49416351318359 128 65 C 128 73.50583648681641 126.3345642089844 81.75616455078125 123.0499649047852 89.52183532714844 C 121.4712219238281 93.25440216064453 119.5170516967773 96.85463714599609 117.2417831420898 100.2225112915039 C 114.9877624511719 103.5588912963867 112.3991088867188 106.6963424682617 109.5477294921875 109.5477294921875 C 106.6963424682617 112.3991088867188 103.5588912963867 114.9877624511719 100.2225112915039 117.2417831420898 C 96.85463714599609 119.5170516967773 93.25440216064453 121.4712219238281 89.52183532714844 123.0499649047852 C 81.75616455078125 126.3345642089844 73.50583648681641 128 65 128 Z" stroke="none"/>
      <path d="M 65 4 C 56.76329803466797 4 48.77507781982422 5.612281799316406 41.25727844238281 8.792037963867188 C 37.64363861083984 10.32048034667969 34.15798187255859 12.21247863769531 30.89711761474609 14.41548156738281 C 27.66619873046875 16.59824371337891 24.62786102294922 19.10511779785156 21.86647796630859 21.86647796630859 C 19.10511779785156 24.62786102294922 16.59824371337891 27.66619873046875 14.41548156738281 30.89711761474609 C 12.21247863769531 34.15798187255859 10.32048034667969 37.64363861083984 8.792037963867188 41.25727844238281 C 5.612281799316406 48.77507781982422 4 56.76329803466797 4 65 C 4 73.2366943359375 5.612281799316406 81.22491455078125 8.792037963867188 88.74272155761719 C 10.32048034667969 92.35636138916016 12.21247863769531 95.84201812744141 14.41548156738281 99.10288238525391 C 16.59824371337891 102.3338012695313 19.10511779785156 105.3721389770508 21.86647796630859 108.1335220336914 C 24.62786102294922 110.8948822021484 27.66619873046875 113.4017639160156 30.89711761474609 115.5845184326172 C 34.15798187255859 117.7875213623047 37.64363861083984 119.6795196533203 41.25727844238281 121.2079620361328 C 48.77507781982422 124.3877182006836 56.76329803466797 126 65 126 C 73.2366943359375 126 81.22491455078125 124.3877182006836 88.74272155761719 121.2079620361328 C 92.35636138916016 119.6795196533203 95.84201812744141 117.7875213623047 99.10288238525391 115.5845184326172 C 102.3338012695313 113.4017639160156 105.3721389770508 110.8948822021484 108.1335220336914 108.1335220336914 C 110.8948822021484 105.3721389770508 113.4017639160156 102.3338012695313 115.5845184326172 99.10288238525391 C 117.7875213623047 95.84201812744141 119.6795196533203 92.35636138916016 121.2079620361328 88.74272155761719 C 124.3877182006836 81.22491455078125 126 73.2366943359375 126 65 C 126 56.76329803466797 124.3877182006836 48.77507781982422 121.2079620361328 41.25727844238281 C 119.6795196533203 37.64363861083984 117.7875213623047 34.15798187255859 115.5845184326172 30.89711761474609 C 113.4017639160156 27.66619873046875 110.8948822021484 24.62786102294922 108.1335220336914 21.86647796630859 C 105.3721389770508 19.10511779785156 102.3338012695313 16.59824371337891 99.10288238525391 14.41548156738281 C 95.84201812744141 12.21247863769531 92.35636138916016 10.32048034667969 88.74272155761719 8.792037963867188 C 81.22491455078125 5.612281799316406 73.2366943359375 4 65 4 M 65 0 C 100.8984985351563 0 130 29.10150146484375 130 65 C 130 100.8984985351563 100.8984985351563 130 65 130 C 29.10150146484375 130 0 100.8984985351563 0 65 C 0 29.10150146484375 29.10150146484375 0 65 0 Z" stroke="none" fill="#cbc5e0"/>
    </g>
    <g id="Grupo_55023" data-name="Grupo 55023" transform="translate(11645.431 11536.849)">
      <g id="Grupo_55021" data-name="Grupo 55021" transform="translate(-11348.266 -10033.301)">
        <path id="Trazado_116842" data-name="Trazado 116842" d="M192.266,68.614a22.624,22.624,0,0,1-.183,2.967c-.408,1.651-1.078,3.229-1.541,4.867-.116.408.152.926.244,1.389.311-.292.755-.53.908-.889a2.357,2.357,0,0,1,2.4-1.486,6.3,6.3,0,0,1,4.368,1.645,2.426,2.426,0,0,0,.847.268,4.011,4.011,0,0,0-.134-.981,1.2,1.2,0,0,0-.512-.548c-.908-.5-1.834-.969-2.76-1.438-.439-.219-.9-.408-1.34-.615a12.708,12.708,0,0,1,.883-1.291c.335-.378.786-.646,1.139-1.005.433-.439,1.231-.841.707-1.553-.128-.171-1.176.14-1.645.457a15.28,15.28,0,0,0-1.888,1.73c-.1-.055-.2-.11-.3-.158.085-.56.2-1.115.244-1.681a8.174,8.174,0,0,0,.006-2.041c-.049-.274-.591-.463-.908-.688A3.725,3.725,0,0,0,192.266,68.614Z" transform="translate(-190.513 -66.986)" fill="#3c4973"/>
        <path id="Trazado_116843" data-name="Trazado 116843" d="M211.095,78.921a5.856,5.856,0,0,1-1.62,1.206,1.211,1.211,0,0,1-1.761-.512,1.509,1.509,0,0,1,1-1.8,18.6,18.6,0,0,1,1.876-.384c.213.134.658.268.786.548A1.072,1.072,0,0,1,211.095,78.921Zm-.1-2.753a8.671,8.671,0,0,0-.975-.006c-.024-.079-.049-.158-.073-.231a12.247,12.247,0,0,0-2.479.9c-1.109.688-1.261,1.992-.615,3.4a2.091,2.091,0,0,0,2.364,1.48,4.843,4.843,0,0,0,3.381-3.35A1.678,1.678,0,0,0,211,76.168Z" transform="translate(-197.174 -70.33)" fill="#3c4973"/>
        <path id="Trazado_116844" data-name="Trazado 116844" d="M230.95,66.62c-.268.177-.664.292-.792.548-1.468,2.985-2.9,5.982-4.325,8.985-.183.39-.286.81-.463,1.31.134.213.274.439.42.67.256-.158.621-.262.743-.487.944-1.791,1.876-3.588,2.753-5.416.7-1.468,1.346-2.967,1.931-4.484C231.328,67.448,231.048,67,230.95,66.62Z" transform="translate(-205.88 -66.62)" fill="#3c4973"/>
        <path id="Trazado_116845" data-name="Trazado 116845" d="M249.853,74.527a2.261,2.261,0,0,0-2.559.311,25.107,25.107,0,0,0-2.711,2.632,4.721,4.721,0,0,0-.6,1.127c-.7-.731-1.03-1.078-1.358-1.419l-.439.164c.079.914.122,1.834.256,2.735.049.317.3.786.536.835a1.27,1.27,0,0,0,1.011-.378c.56-.609,1-1.328,1.523-1.98,1.3-1.6,2.248-3.8,5.093-3.028A2.307,2.307,0,0,0,249.853,74.527Z" transform="translate(-212.454 -69.661)" fill="#3c4973"/>
        <path id="Trazado_116846" data-name="Trazado 116846" d="M220.819,73.29c-.238.177-.6.311-.682.542-.244.731-.7.841-1.358.676a5.149,5.149,0,0,0-.816-.067c0,.164-.03.256.006.3a2.229,2.229,0,0,0,.353.4c1.31,1.133,1.3,1.127.652,2.784a9.6,9.6,0,0,0-.567,1.748c-.049.256.2.56.311.847.238-.177.573-.3.694-.542.341-.676.542-1.432.908-2.1.4-.743.926-1.425,1.486-2.272-.11-.347-.286-.969-.512-1.572A4.394,4.394,0,0,0,220.819,73.29Z" transform="translate(-202.981 -69.276)" fill="#3c4973"/>
        <path id="Trazado_116847" data-name="Trazado 116847" d="M236.888,78.084c.018-.006.1.347.152.53l-1.115.274-.134-.524C236.151,78.267,236.517,78.158,236.888,78.084Zm-.055,1.517c.414-.256.932-.707.975-1.115a1.665,1.665,0,0,0-.743-1.267c-1-.591-2.577.28-3.241,1.657a1.861,1.861,0,0,0,.993,2.7,19.284,19.284,0,0,0,2.79.707c.037-.122.079-.244.116-.366-.8-.317-1.614-.585-2.376-.975-.244-.128-.335-.56-.493-.859a4.381,4.381,0,0,1,.816-.359C236.06,79.656,236.541,79.79,236.834,79.6Z" transform="translate(-209.089 -70.77)" fill="#3c4973"/>
      </g>
      <g id="Grupo_55020" data-name="Grupo 55020" transform="translate(-11381.769 -10037.234)">
        <path id="Trazado_116848" data-name="Trazado 116848" d="M17.626,73.778c-.676.049-1.023-.262-.8-.9a43.989,43.989,0,0,1,1.8-4.526c.542-1.1,1.267-1.066,1.9.024a8.45,8.45,0,0,1,.579,1.712A4.01,4.01,0,0,1,17.626,73.778Zm4.922-3.533a19.962,19.962,0,0,0-1.687-3.052c-1.005-1.255-2.041-1.2-2.888.177-1.231,2-2.315,4.088-3.363,6.189a14.644,14.644,0,0,0-1.06,3.07c-.085.353.244.8.384,1.212.335-.256.883-.451.975-.774a3.616,3.616,0,0,1,3.32-2.68,10.389,10.389,0,0,0,1.273-.292,3.592,3.592,0,0,0,2.766-3.7C22.366,70.342,22.457,70.293,22.549,70.244Z" transform="translate(-13.537 -66.292)" fill="#3c4973"/>
        <path id="Trazado_116849" data-name="Trazado 116849" d="M31.184,74.217c-.969-.274-.877-.78-.6-1.468.372-.908.761-1.8,1.078-2.729a2.206,2.206,0,0,0-.1-.889,7.717,7.717,0,0,0-.914.408,1.05,1.05,0,0,0-.286.457c-.9,1.98-1.821,3.947-2.65,5.964-.164.408.061.975.11,1.468a5.872,5.872,0,0,0,1.334-.414,9.794,9.794,0,0,0,1.3-1.121c.341,1.352-.822,2.717.938,3.679.244-1.4.567-2.8.682-4.216A1.492,1.492,0,0,0,31.184,74.217Z" transform="translate(-19.054 -67.433)" fill="#3c4973"/>
        <path id="Trazado_116850" data-name="Trazado 116850" d="M58.1,77.431c.207.238.463.445.433.506a1.038,1.038,0,0,1-.487.469c-.079.03-.42-.262-.4-.335A2.6,2.6,0,0,1,58.1,77.431Zm-4.9,7.456a.825.825,0,0,0,.627-.262,2.57,2.57,0,0,0,.359-.664c1.048-2.089,2.059-4.179,4.733-4.672.475-.085.847-.737,1.425-1.273-.536-.6-.841-1.237-1.285-1.352a2.614,2.614,0,0,0-1.791.286A8.607,8.607,0,0,0,55.476,78.5a6.919,6.919,0,0,0-1.413,1.645,21.73,21.73,0,0,0-1.1,3.058,3.455,3.455,0,0,0-.2,1.157A.725.725,0,0,0,53.192,84.887Z" transform="translate(-30.193 -70.445)" fill="#3c4973"/>
        <path id="Trazado_116851" data-name="Trazado 116851" d="M40.49,77.394c.134.213.292.469.451.719.25-.171.6-.28.731-.518.67-1.157,1.352-2.321,1.913-3.533.963-2.071,1.864-4.167,2.723-6.281.122-.3-.14-.761-.231-1.151-.268.171-.67.28-.792.524-1.492,3.022-2.948,6.055-4.4,9.1C40.734,76.578,40.648,76.937,40.49,77.394Z" transform="translate(-24.07 -66.428)" fill="#3c4973"/>
        <path id="Trazado_116852" data-name="Trazado 116852" d="M49.015,81.945c.158-.067.311-.079.335-.152.591-1.432,1.182-2.869,1.736-4.319a.657.657,0,0,0-.213-.524c-.256.006-.688.073-.737.225-.493,1.425-.932,2.869-1.358,4.313C48.747,81.61,48.93,81.787,49.015,81.945Z" transform="translate(-27.308 -70.536)" fill="#3c4973"/>
        <path id="Trazado_116853" data-name="Trazado 116853" d="M36.283,81.44c.469-1.176.938-2.351,1.328-3.552.085-.262-.128-.621-.2-.938-.268.195-.682.335-.786.6-.433,1.109-.792,2.242-1.121,3.387a4.223,4.223,0,0,0,.116,1.237C35.978,81.781,36.2,81.641,36.283,81.44Z" transform="translate(-22.111 -70.541)" fill="#3c4973"/>
        <path id="Trazado_116854" data-name="Trazado 116854" d="M54.013,70.974a3.675,3.675,0,0,0-.713-.8c-.152.189-.469.414-.433.554a5.56,5.56,0,0,0,.646,1.121C53.788,71.394,54.074,71.1,54.013,70.974Z" transform="translate(-28.907 -67.741)" fill="#3c4973"/>
        <path id="Trazado_116855" data-name="Trazado 116855" d="M40.626,70.994a3.687,3.687,0,0,0-.621-.774c-.152.152-.457.359-.426.445a7.167,7.167,0,0,0,.652,1.121C40.456,71.359,40.681,71.109,40.626,70.994Z" transform="translate(-23.713 -67.76)" fill="#3c4973"/>
      </g>
      <g id="Grupo_55022" data-name="Grupo 55022" transform="translate(-11399.431 -10119.849)">
        <path id="Trazado_116837" data-name="Trazado 116837" d="M168.1,54.851a11.494,11.494,0,0,1,.317-2.1c.835-3.145.573-6.326.426-9.507-.037-.773.03-1.367,1.005-1.564,1.017-.2.621-1.237.969-1.849l-.219-.642a10.758,10.758,0,0,1-1.017-1.938,1.193,1.193,0,0,1,.609-1.023c1.657-.511,2.144-1.712,2.339-3.216a3.741,3.741,0,0,1,.682-1.213h0a8.421,8.421,0,0,1-.183,6.094c-1.066,2.776-2.083,5.571-2.991,8.395a13.164,13.164,0,0,0-.311,3.038,27.947,27.947,0,0,1-.244,3.793,17.479,17.479,0,0,1-1.273,3.086A7.871,7.871,0,0,1,168.1,54.851Zm.219-13.752a.641.641,0,0,1,.006-.595,1.187,1.187,0,0,1,1.633.315A1.162,1.162,0,0,1,168.315,41.1Zm-.755-1.48c.006-.071.012-.149.018-.22.061-1.338.128-2.675.189-4.013V34.322c-.037.048-.067.1-.1.149l-.085.119.085-.119.1-.149c.122-.969-.043-2.033.889-2.753.067-.143.134-.291.2-.434.024-.428.049-.862.073-1.338.9,1.231,1.718,2.348,2.528,3.466a3.489,3.489,0,0,1,0,1.207c-.231.618-.7.785-1.2.2-.341-.4-.652-.82-.975-1.231.219.7.445,1.4.664,2.1l-.317.166c-.219-.339-.433-.684-.652-1.023-.232-.363-.475-.713-.554.071a1.408,1.408,0,0,1-.055,2.14,2.576,2.576,0,0,0-.384.844c.378.054.963-.018,1.09.19a5.849,5.849,0,0,1,.475,1.552c-.457.107-.908.244-1.371.309A2.249,2.249,0,0,1,167.559,39.619Zm7.688-17.991c-.091.184-.189.363-.274.547C175.058,21.991,175.156,21.813,175.247,21.629ZM168.7,15.546a29.294,29.294,0,0,1,6.262,6.653c.609,1.677,1.011,3.365.219,5.1-.938-3.08-3.113-5.285-5.464-7.378C168.942,19.233,168.51,17.318,168.7,15.546Zm-.311-1.344c1.6-.214,5.641,3.662,5.921,5.963Zm6.366.22c-.006.012-.012.03-.018.042A.063.063,0,0,0,174.754,14.423Zm-7.066-2.539a3.428,3.428,0,0,1,1.815.19c1.712.826,3.351,1.784,5.02,2.693a.965.965,0,0,0,.213-.279.892.892,0,0,1-.213.279c.286.422.573.844.865,1.266.1,1.314.2,2.634.3,3.948l-.25.036a30.455,30.455,0,0,0-2.638-3.4,41.213,41.213,0,0,0-3.9-3.139C168.327,13.032,167.419,12.812,167.687,11.884Zm-1.31-3.127c1.206.262,2.169.476,3.137.684h0c1.358,1.094,2.741,2.158,4.063,3.288a4.5,4.5,0,0,1,.725,1.159L167.6,10.909C166.743,10.54,166.633,9.791,166.377,8.757Zm5.745,23.425h0c-.445.648-.8.434-1.084-.125-.591-1.153-1.164-2.313-1.742-3.472.091-1.231.189-2.467.28-3.7.14-.042.286-.077.426-.119.761,1.361,1.56,2.705,2.266,4.1.359.707.8,1.486.079,2.265C172.274,31.48,172.2,31.831,172.122,32.182Zm1.736-4.245-.433.006c.073.63.146,1.254.219,1.885-.426.44-.847.88-1.273,1.32.049.042.1.077.152.119-.049-.042-.1-.077-.152-.119.426-.44.847-.88,1.273-1.314a7.029,7.029,0,0,1-.8-.963c-1.017-1.79-2.065-3.567-2.961-5.416a12.38,12.38,0,0,1-.621-2.717c2.4.767,5.257,5.1,5.251,7.622h0C174.291,28.216,174.071,28.079,173.858,27.937ZM161.236,82.4c-1.748-.3-1.773-.47-.944-2a74.259,74.259,0,0,0,8.157-22.331,2.322,2.322,0,0,1,.518-1.142,6.249,6.249,0,0,0,1.62-3.864c.146-1.647-.195-3.383.2-4.958a72.517,72.517,0,0,1,2.979-9.18,11.077,11.077,0,0,0,.78-6.635,3.655,3.655,0,0,1,.871-3.537A5.031,5.031,0,0,0,176.7,25.13c-.012-1.9.012-3.811.012-5.713,0-.85.006-1.7-.043-2.551a5.949,5.949,0,0,0-1.5-3.9c-.908-.963-1.913-1.831-2.833-2.782-1.036-1.076-2.022-2.194-3.034-3.294h-1.31l1.3,1.7c-1.986.244-3.509-.386-4.136-1.7H164.5a33.927,33.927,0,0,1,3.984,12.14c.53,3.329.822,6.635-.225,9.964a39.255,39.255,0,0,0-.932,5.1h0c-.11.583-.195,1.177-.335,1.754-.152.63-.347,1.249-.524,1.873-1.419-1.474-3.442-1.611-5.58-2.128,1.669-.826,2.839-.107,4.045.273-1.62-1.576-3.478-1.249-5.4-.369-.037-.155-.067-.3-.1-.458q1.234-.58,2.473-1.171c-1.858-.8-2.632,1.587-4.423,1.468.463-.369.792-.624,1.322-1.04a11.724,11.724,0,0,1-1.6.089,4.109,4.109,0,0,0-3.552.892c-.1.1-.463-.059-.7-.1.219-.351.432-.7.652-1.058.122-.1.25-.19.372-.285-.037-.089-.073-.178-.116-.273-.737.256-1.48.505-2.217.761-.591.773-1.176,1.546-1.767,2.319-.725.85-1.45,1.694-2.175,2.545l.238.446,2.2-2.735a25.249,25.249,0,0,1,4.191-.832c2.583-.083,5.172.1,7.755.172,0,.868-.694.791-1.243.815-2.6.1-5.2.155-8.09.232a5.477,5.477,0,0,0,1.432.565,24.291,24.291,0,0,0,2.711-.03,16.268,16.268,0,0,1,3.125-.119c.975.155,1.767.392,2.449-.583.195-.279.768-.315,1.164-.464l2.187,1.064,1.535,2.122c.14.707.28,1.421.42,2.128h0c-.146.708-.292,1.415-.433,2.128a6.139,6.139,0,0,0-.311.678c-1.03,3.282-3.344,4.929-6.817,5.077-1.986.083-3.978.137-5.97.2a5.048,5.048,0,0,0,1.413.4c1.73-.012,3.472-.036,5.2-.2,3.661-.351,5.671-2.045,6.707-5.511.14-.172.28-.339.481-.583.152.493.268.862.384,1.225-.14,2.039-.262,4.084-.433,6.124-.2,2.426-.439,4.845-.664,7.271a5.783,5.783,0,0,0-.189.606,68.016,68.016,0,0,1-6.067,17.343c-1.517,2.937-2.79,6.017-5.55,8.151-.761.589-1.419,1.308-2.126,1.962h1.523l3.472-2.747h0c.439.916.883,1.831,1.322,2.747h.652c-.585-1.058-1.163-2.123-1.748-3.181-.152-.761.341-.779.841-.63,4.435,1.29,9.022,1.617,13.579,2.206a55.7,55.7,0,0,1,6.5,1.605h3.7a51.127,51.127,0,0,0-11.148-2.788Q166.655,83.332,161.236,82.4Z" transform="translate(-84.098 -6.883)" fill="#3c4973"/>
        <path id="Trazado_116838" data-name="Trazado 116838" d="M62.465,14.942c.822-.381,1.432-.66,2.242-1.029-.049,1.825.414,3.537-.859,4.917-1.5,1.623-3.1,3.163-4.691,4.7a13.177,13.177,0,0,0-3.74,6.587,7.066,7.066,0,0,1-.713,1.421c-.292-1.409-.579-2.812-.871-4.221h0a2.485,2.485,0,0,0,.2-.375,14.268,14.268,0,0,1,7.462-8.46,3.792,3.792,0,0,0,.664-.547l-.238-.25c-3.588,1.754-6.476,4.221-8.017,8.056l-.219-.161c-.03-.2-.061-.41-.091-.612.3-.707.6-1.409.9-2.117h0q1.946-2.078,3.9-4.15c-.067-.059-.14-.119-.207-.178-1.425,1.254-3.125,2.253-3.929,4.1-.737-.707-.183-1.385.1-2.033a7.045,7.045,0,0,1,.786-1.136h0A23.235,23.235,0,0,0,60.3,16.173C59.023,16.7,57.842,17.38,56.635,18a3.39,3.39,0,0,1-1.066.161c.006-.071.018-.137.024-.208a40.063,40.063,0,0,1,3.162-2.557c1.523-1,3.143-1.861,4.746-2.735a6.312,6.312,0,0,1,1.492-.345C64.737,13.824,63.032,13.628,62.465,14.942ZM61.356,26.268a25.935,25.935,0,0,0-2.248,4.661c-.4,1.219-.871,2.027-2.242,2.1l.292.143-.292-.143c-.122-.416-.414-.868-.335-1.243A11.806,11.806,0,0,1,59.413,26.3c1.669-1.831,3.417-3.591,5.166-5.422-.03.161-.055.315-.079.47C63.446,22.98,62.325,24.579,61.356,26.268Zm-5.7,6.2a9.986,9.986,0,0,1,1.45-5.291A34.176,34.176,0,0,1,60.327,23.2c1.121-1.237,2.364-2.366,3.558-3.538.128.1.256.19.384.279-.524.731-.987,1.51-1.578,2.188-.914,1.046-1.907,2.033-2.888,3.014a13.484,13.484,0,0,0-3.868,6.873A.832.832,0,0,1,55.655,32.463Zm10.5.285a23.669,23.669,0,0,0-.256-8.335A29.755,29.755,0,0,1,67.326,6.886h-.652a3.262,3.262,0,0,1-.963.4,17.571,17.571,0,0,0-6.707,2.045,2.9,2.9,0,0,1-1.06.1c.006.357.006.713.012,1.07a57.435,57.435,0,0,1,5.891-2.384c2.278-.66,2.364-.4,1.84,1.819a2.642,2.642,0,0,1-2.211,2.218,14.564,14.564,0,0,0-6.116,3.722,9.731,9.731,0,0,1-1.882,1.469c.1-.791.213-1.581.317-2.372h0l1.279-2.14c-.073-.279-.14-.559-.213-.844.366-.493.731-.993,1.1-1.486-.006-.357-.006-.713-.012-1.07,1.09-.85,2.187-1.7,3.277-2.551H58.609a17.733,17.733,0,0,0-2.1,3.448c-1.627,4.851-3.637,9.626-3.838,14.822a14.91,14.91,0,0,0,.28,3.567c.268,1.314.8,2.568,1.176,3.864a1.794,1.794,0,0,1,.03,1.207,7.863,7.863,0,0,0-.4,6.2,31.169,31.169,0,0,1,1.188,7.961,25.339,25.339,0,0,0,1.87,9.019c.786,1.926,2.029,3.151,4.295,3.127.341-.006.981.273.987.44.055,1.32.414,2.854-.134,3.924a43.2,43.2,0,0,1-4.088,5.868,26,26,0,0,0-2.15,2.515,4.125,4.125,0,0,1-2.205,1.908c-.567.232-1.121.505-1.681.755-4.959,2.194-9.266,5.422-13.78,8.324-1.419.916-2.717,2-4.075,3.014h1.962a10.22,10.22,0,0,1,1.1-1c1.687-1.153,3.375-2.307,5.1-3.4,2.455-1.558,4.9-3.121,7.426-4.566,1.864-1.07,3.838-1.962,5.763-2.937,1.048.505.8,1.5.835,2.325.128,3.193.177,6.391.256,9.584h.652q-.219-6.8-.445-13.6,2.924-3.567,5.854-7.146c.043.042.152.107.177.2.1.339.189.678.262,1.029a55.285,55.285,0,0,0,6.092,16.385c.6,1.046,1.188,2.093,1.785,3.139h1.09c-.4-.826-.792-1.659-1.206-2.485-1.511-3.02-3.034-6.035-4.526-9.061A3.463,3.463,0,0,1,66,74.277c.079-.351.152-.7.231-1.046a20.626,20.626,0,0,1-2.747-8.752c-.177-1.825-.207-3.662-.3-5.494a28.833,28.833,0,0,0-.353-5.69,1.654,1.654,0,0,0-.487,1.011c-.049.7-.024,1.409-.024,2.117,0,2.164,0,2.521-1.541,2.557-.359,0-.719,0-1.078-.006a5.12,5.12,0,0,1-2.169-3.056q-.658-2.506-1.31-5.012c-.085-1.427-.164-2.848-.25-4.275,1.365,4.132,1.413,4.245,2.455,4.673a3.453,3.453,0,0,0-.225-.725,11.432,11.432,0,0,1-1.517-6.439,10.937,10.937,0,0,0-.835-5.494,3.485,3.485,0,0,1-.195-1.142c-.012-.083.085-.172.134-.262.286.143.548.279.664.339.457-.517.8-1.237,1.206-1.278.518-.054,1.1.446,1.651.708.079-.119.152-.238.231-.357a14.127,14.127,0,0,0-1.553-1.076c-1.535-.791-2.735-.2-2.8,1.486a9.025,9.025,0,0,0,.5,2.782,4.756,4.756,0,0,1,.1,3.52c-.177-.488-.3-.838-.433-1.2-.244-1.1-.493-2.194-.731-3.294-.652-3-.213-4.049,2.266-5.41.14-.071.28-.149.42-.22.658.071,1.322.149,1.98.22.061,0,.122,0,.183-.006l.451.422c.091.606.177,1.219.28,1.885l1.066.279a2.361,2.361,0,0,1-.195.678,2.563,2.563,0,0,0-.341,2.5,2.14,2.14,0,0,1-.091,1.243c-.079.244-.42.606-.615.589-1.206-.1-1.59.731-1.9,1.558-1.023,2.693.189,5.309,1.8,7.045.116.131.353.155.536.226a3.035,3.035,0,0,0-.682-1.4,5.94,5.94,0,0,1-1.078-5.708c.189-.606.487-1.052,1.34-.85,1.907.446,2.3,1.361,1.328,3.068-.341.595-.78,1.4-.615,1.95A38.628,38.628,0,0,0,62.6,51.244c.091-.018.183-.042.268-.059a3.462,3.462,0,0,0-.091-.951,17.821,17.821,0,0,0-1.005-2.224c-.688-1.254-.664-1.718.3-2.86.353-.773.713-1.54,1.109-2.414a7.2,7.2,0,0,1-.9-.589c-.347-.285-.938-.7-.889-.957.274-1.474-.548-2.967.256-4.447a2.163,2.163,0,0,0-1.5-2.866l1.3-4.459a17.816,17.816,0,0,0,1.09-1.688,3.886,3.886,0,0,0,.213-1.082,10,10,0,0,0-2.619,4.465l-.439-.22c-.006.054-.018.1-.024.155.006-.054.018-.1.024-.155a6.682,6.682,0,0,1,.524-1.587c1.541-2.455,3.137-4.869,4.715-7.3a45.843,45.843,0,0,1,.658,4.608c.1,2.033.012,4.084-.061,6.124-.012.309-.39.612-.6.916.439.22.877.44,1.31.654A8.962,8.962,0,0,1,66.157,32.748Z" transform="translate(-33.98 -6.88)" fill="#3c4973"/>
        <path id="Trazado_116839" data-name="Trazado 116839" d="M87.309,120.472c1.523,2.1,2.936,4.295,4.593,6.287s3.558,3.783,5.349,5.665h.871c-.42-.445-.841-.9-1.267-1.34a60.821,60.821,0,0,1-4.417-4.63c-2-2.565-3.777-5.306-5.647-7.974-.079.359-.152.713-.231,1.072C86.816,119.851,87.072,120.149,87.309,120.472Z" transform="translate(-57.073 -52.465)" fill="#3c4973"/>
        <path id="Trazado_116840" data-name="Trazado 116840" d="M158.232,126.856c-.116-.037-.232-.079-.347-.116-.171.262-.347.524-.518.78a31.421,31.421,0,0,1-2.522,3.661c-1.432,1.584-3.058,2.985-4.605,4.465h1.09c2.467-2.3,5.007-4.551,6.555-7.639A6.132,6.132,0,0,0,158.232,126.856Z" transform="translate(-84.059 -55.693)" fill="#3c4973"/>
        <path id="Trazado_116841" data-name="Trazado 116841" d="M112.12,135.908l5.361,3.125H119q-3.3-1.818-6.591-3.643C112.315,135.561,112.217,135.731,112.12,135.908Z" transform="translate(-67.839 -59.073)" fill="#3c4973"/>
        <path id="Trazado_116856" data-name="Trazado 116856" d="M120.627,106.943c1.785.475,3.545,1.023,5.324,1.517a13.564,13.564,0,0,0,6.878.1,11.251,11.251,0,0,1,1.194-.164c.037.1.067.2.1.3a3.833,3.833,0,0,1-.859.469c-1.389.347-2.735,1.023-4.234.56a1.123,1.123,0,0,0-.743.073,3.491,3.491,0,0,1-2.814-.122c-1.176-.384-2.449-.475-3.673-.743a6.318,6.318,0,0,1-4.228-2.607C118.757,106.566,119.707,106.7,120.627,106.943Zm5.513.177a9.372,9.372,0,0,0,5.007.134,13.388,13.388,0,0,1,4.222-.152,14.237,14.237,0,0,1-12.671-.579C123.849,106.718,125.019,106.828,126.14,107.12Zm-12.61-1.84c.956.792,1.663,1.316,2.309,1.919.981.914,1.907,1.882,2.863,2.827.14-.073.286-.146.426-.219-.42-.475-.841-.95-1.261-1.432.049-.085.1-.177.152-.262,2.93,1.694,5.824,3.491,9.418,2.9a29.331,29.331,0,0,0,9.637-2.888c-1.517,2.473-4.069,3.332-6.567,4.216a10.682,10.682,0,0,1-7.871-.14c-1.17-.8-2.333-1.6-3.5-2.394-.14.073-.286.146-.426.219l3.448,2.425a9.872,9.872,0,0,0,7.913.621c3.186-.95,6.232-2.193,8.187-5.184.323-.493,1.176-.652,1.8-.926.262-.116.658-.055.828-.225a.8.8,0,0,0-.14-.761,1.16,1.16,0,0,0-.932-.286c-2.321.993-4.764.816-7.182.871-.786.018-1.572.207-2.357.28a10.1,10.1,0,0,1-2.339.116c-3.619-.518-7.225-1.145-10.843-1.645A27.238,27.238,0,0,0,113.53,105.28Z" transform="translate(-69.013 -46.923)" fill="#3c4973"/>
        <path id="Trazado_116857" data-name="Trazado 116857" d="M118.063,67.043V64.8C119.165,65.776,119.19,66.172,118.063,67.043Zm-.688-1.809a2.333,2.333,0,0,0,.256,2.156,1.471,1.471,0,0,1,.006,1.3,6.249,6.249,0,0,1-5.47,3A47.42,47.42,0,0,1,106,71.453a6.987,6.987,0,0,1-5.215-2.967h0a12.364,12.364,0,0,1-.883-6.53c-.506.073-1.017.14-1.523.213.908.122.865.816.853,1.468a7.567,7.567,0,0,0,1.31,5.081c1.06,2.175,3.034,2.973,5.215,3.2a53.929,53.929,0,0,0,6.506.244,7,7,0,0,0,5.921-3.3,16.318,16.318,0,0,0,2.437-6.683c-.152-.079-.311-.152-.463-.231A5.422,5.422,0,0,0,117.374,65.233Z" transform="translate(-62.357 -29.325)" fill="#3c4973"/>
        <path id="Trazado_116858" data-name="Trazado 116858" d="M89.619,56.163c-.615-.445-1.231-.9-1.846-1.34-1.3-.694-2.6-1.383-3.887-2.089a2.482,2.482,0,0,1-.4-.323c.055-.1.11-.189.164-.286l4.337,2.467c.621.408,1.249.81,1.87,1.218Zm4.252-.28c.652-.567,1.3-1.139,1.955-1.706.085-.085.171-.164.25-.25.914-1.127,2.211-1.054,3.466-1.109-.439-.134-.877-.274-1.31-.408a6.446,6.446,0,0,0-4.8,3.265,4.791,4.791,0,0,1-4.021-.761c-1.535-.956-3.125-1.821-4.691-2.723-.439-.225-.877-.451-1.31-.67-.073-.085-.128-.213-.213-.238A7.777,7.777,0,0,0,81.73,50.9c-.134-.018-.475.481-.451.506a4.791,4.791,0,0,0,1.017,1c2.638,1.627,5.623,2.747,7.67,5.239.579.073,1.157.146,1.736.213.506-.073,1.017-.14,1.523-.213C93.438,57.052,93.658,56.468,93.871,55.883Z" transform="translate(-54.947 -24.788)" fill="#3c4973"/>
        <path id="Trazado_116859" data-name="Trazado 116859" d="M129.981,90.764a5.708,5.708,0,0,0-3.381-2.181c-1.365-.274-1.852-1.145-1.718-2.583.03-.317.006-.64.006-1.212-1.127,1.645-.822,3.058.567,3.941,1.5.95,3,1.895,4.453,2.918a6.572,6.572,0,0,0,7.456.25,15.772,15.772,0,0,1,2.662-1.462,4.936,4.936,0,0,0,3.314-3.32,5.745,5.745,0,0,1,.755.676,23.394,23.394,0,0,0,2.138,2.711,5.037,5.037,0,0,1,1.541,5.141c-.347,1.553-.908,3.052-1.352,4.587-.146.512-.232,1.036-.341,1.559l.292.073a1.193,1.193,0,0,0,.238-.323,59.079,59.079,0,0,0,1.754-5.94A5.117,5.117,0,0,0,148,92.257c-1.316-2.217-2.973-4.234-4.5-6.329a.773.773,0,0,0-.177-.128c-.073-.219-.146-.439-.225-.652-.439-.822-.828-1.675-1.346-2.449a1.353,1.353,0,0,0-1-.439c-.213,0-.426.4-.433.408a18.973,18.973,0,0,1,1.45,1.273,10.335,10.335,0,0,1,.871,1.224c.292,2.388-.414,3.686-2.26,4.477a23.81,23.81,0,0,0-3.509,1.852C134.806,92.823,131.461,92.561,129.981,90.764Z" transform="translate(-73.494 -37.791)" fill="#3c4973"/>
        <path id="Trazado_116860" data-name="Trazado 116860" d="M131.62,59.969c.128.018.262.037.39.061-.067.536-.134,1.078-.2,1.614-.189-.03-.372-.067-.56-.1C131.376,61.017,131.5,60.493,131.62,59.969Zm-14.669-6.847a.652.652,0,0,0,.2-.043A.827.827,0,0,1,116.951,53.122Zm-1.566.061A1.6,1.6,0,0,1,113.418,53c.018-.128.043-.262.061-.39l1.925.219Zm8.766,3.552a1.851,1.851,0,0,1-1.261-2.881c.463-.816.786-1.718,1.17-2.583-.146-.061-.3-.128-.445-.189a16.821,16.821,0,0,1-1.139,2.15c-.238.335-.853.725-1.145.634A4.2,4.2,0,0,1,119.4,52.72a4.589,4.589,0,0,0-2.778-1.529,9.4,9.4,0,0,1-1.407-.536c-.688.329-.213.536.1.646.6.213,1.243.335,1.852.53a2.5,2.5,0,0,1,1.194.768h-1.188l-2.169-.439h0c-.3-.433-.591-.865-.889-1.3a3.489,3.489,0,0,0-2.851-.439c1.109.493,1.968.877,2.827,1.267-.043.134-.085.262-.128.4-.524.024-1.054.055-1.578.079-.871-.14-1.742-.286-2.613-.433a2.094,2.094,0,0,0-2.7-.213l1.535.164-.012.189c-.262.1-.53.195-.792.286h0c-.067,0-.14,0-.207.006.439.134.877.274,1.31.408l1.279.043,1.962.256c-.018.152-.03.3-.049.457l-3.85-.292-.713.347.049.171h2.266c-.932.987-2.461,1.005-4.4.128-.085.085-.171.164-.25.25,1.243,1.182,2.766,1.054,4.185.634a16.612,16.612,0,0,1,5-.688,7.81,7.81,0,0,0,2.15-.621c.055-.11.207-.122.359-.134-.152.012-.3.018-.359.134a19.652,19.652,0,0,1,3.192.451,4.688,4.688,0,0,1,3.107,3.253h0c.006.146.006.286.012.433.152.079.311.152.463.231a9.847,9.847,0,0,1,5.933-.469c.914.14,1.249.676,1.291,1.663a33.716,33.716,0,0,0,.6,4.021c.219-.14.433-.286.652-.426a2.132,2.132,0,0,0-.061-3.5,1.15,1.15,0,0,1-.378-1.517l-.238-.457a17.965,17.965,0,0,1-2-.317A7.862,7.862,0,0,0,124.152,56.734Z" transform="translate(-65.431 -24.588)" fill="#3c4973"/>
        <path id="Trazado_116861" data-name="Trazado 116861" d="M96.1,120.683a18.317,18.317,0,0,1-4.776-6.762c-1.048-2.546-2.083-5.1-3.241-7.932C88.22,109.188,92.777,119.879,96.1,120.683Z" transform="translate(-57.655 -47.584)" fill="#3c4973"/>
        <path id="Trazado_116862" data-name="Trazado 116862" d="M144.857,67.98c-.091.018-.189.037-.28.049a7.372,7.372,0,0,0-.049,1.267c.311,2.333.585,4.672,1,6.987s1.474,4.611-.164,6.92c.122.061.238.116.359.177.268-.353.713-.682.774-1.072a9.648,9.648,0,0,0,.189-3.2c-.634-3.344-1.657-6.622-1.578-10.082A4.837,4.837,0,0,0,144.857,67.98Z" transform="translate(-81.449 -31.86)" fill="#3c4973"/>
        <path id="Trazado_116863" data-name="Trazado 116863" d="M109.871,101.489c-1.066-2.772-.609-4.727,1.535-6.7a10.148,10.148,0,0,0,.926-1.109l-.244-.189c-1.846,1.291-3.442,2.693-3.35,5.275.061,1.669.859,4.149,1.748,4.764.018-.116.073-.231.043-.317C110.321,102.64,110.1,102.067,109.871,101.489Z" transform="translate(-66.329 -42.174)" fill="#3c4973"/>
        <path id="Trazado_116864" data-name="Trazado 116864" d="M137.05,119.99H126.14C128.236,120.855,135.692,120.861,137.05,119.99Z" transform="translate(-73.903 -53.055)" fill="#3c4973"/>
        <path id="Trazado_116865" data-name="Trazado 116865" d="M172.676,98.87c-.737,2.546-1.456,5.014-2.156,7.432C171.842,105.522,173.206,100.588,172.676,98.87Z" transform="translate(-92.463 -44.313)" fill="#3c4973"/>
        <path id="Trazado_116866" data-name="Trazado 116866" d="M108.592,126.254c-1.157-2.607-2.224-5.026-3.3-7.444C105.022,120.114,107.49,125.56,108.592,126.254Z" transform="translate(-64.857 -52.593)" fill="#3c4973"/>
        <path id="Trazado_116867" data-name="Trazado 116867" d="M84.773,62.273c.067-.14.14-.286.207-.426V56.108l-.408-.018c-.122,2.12-.244,4.234-.372,6.427C84.4,62.432,84.584,62.352,84.773,62.273Z" transform="translate(-55.889 -26.894)" fill="#3c4973"/>
        <path id="Trazado_116868" data-name="Trazado 116868" d="M121.9,125.53c1.157,1.651,2.394,3.119,4.666,2.912,1.218-.11,2.443-.158,3.667-.238-1.023-.073-2.047-.152-3.07-.225C124.818,128.478,123.478,126.748,121.9,125.53Z" transform="translate(-72.029 -55.22)" fill="#3c4973"/>
        <path id="Trazado_116869" data-name="Trazado 116869" d="M90.27,72.81c1.6-.853,3.125-1.675,4.752-2.552C93.194,70.166,90.818,71.469,90.27,72.81Z" transform="translate(-58.526 -32.605)" fill="#3c4973"/>
        <path id="Trazado_116870" data-name="Trazado 116870" d="M138.054,128.894a4.667,4.667,0,0,0,3.186-1.054c-1.645.274-3.3.554-4.94.828C136.879,128.742,137.47,128.821,138.054,128.894Z" transform="translate(-78.048 -56.123)" fill="#3c4973"/>
        <path id="Trazado_116871" data-name="Trazado 116871" d="M76.2,84.516c.774-1.017,1.383-1.815,2.047-2.686C77.053,81.94,76.255,82.927,76.2,84.516Z" transform="translate(-52.521 -37.307)" fill="#3c4973"/>
        <path id="Trazado_116872" data-name="Trazado 116872" d="M91.56,75.783c.085.11.171.225.256.335.853-.652,1.706-1.31,2.559-1.962-.067-.1-.134-.195-.207-.286C93.01,74.089,92.431,75.149,91.56,75.783Z" transform="translate(-59.037 -34.07)" fill="#3c4973"/>
        <path id="Trazado_116873" data-name="Trazado 116873" d="M122.29,85.558c1.078-.81,2.029-1.529,3.022-2.278A3.331,3.331,0,0,0,122.29,85.558Z" transform="translate(-72.059 -37.889)" fill="#3c4973"/>
        <path id="Trazado_116874" data-name="Trazado 116874" d="M149.058,73.451a3.7,3.7,0,0,0,2.632,1.748c-.8-.731-1.6-1.462-2.406-2.193-.292-.944-.585-1.882-.871-2.827-.219.14-.433.286-.652.426C148.186,71.563,148.625,72.507,149.058,73.451Z" transform="translate(-82.876 -32.607)" fill="#3c4973"/>
        <path id="Trazado_116875" data-name="Trazado 116875" d="M130.54,129.413c1.023.073,2.047.152,3.07.225.731-.073,1.462-.14,2.193-.213-.585-.073-1.17-.146-1.754-.225C132.873,129.273,131.71,129.34,130.54,129.413Z" transform="translate(-75.614 -56.654)" fill="#3c4973"/>
        <path id="Trazado_116876" data-name="Trazado 116876" d="M146.458,56.209c-.244-.737-.512-1.438-.694-2.156-.177-.682.219-1.627-.914-1.913C145.094,55.3,145.362,56,146.458,56.209Z" transform="translate(-81.574 -25.266)" fill="#3c4973"/>
        <path id="Trazado_116877" data-name="Trazado 116877" d="M154.17,53.016v.006h0l.006-.006.006-.006Z" transform="translate(-85.47 -25.584)" fill="#3c4973"/>
        <path id="Trazado_116878" data-name="Trazado 116878" d="M151.53,53.149l.189.25c.469-.292.944-.579,1.413-.871l.658-.768A2.913,2.913,0,0,0,151.53,53.149Z" transform="translate(-84.421 -25.091)" fill="#3c4973"/>
        <path id="Trazado_116879" data-name="Trazado 116879" d="M78.842,10.17a5.942,5.942,0,0,0-1.3.28c-1.639.822-3.247,1.7-4.88,2.54a9.589,9.589,0,0,1-1.109.4c.073.286.14.573.213.865C74.09,12.917,76.411,11.577,78.842,10.17Z" transform="translate(-50.623 -8.166)" fill="#3c4973"/>
        <path id="Trazado_116880" data-name="Trazado 116880" d="M187.126,36.97l-.366.238c.646,1.005,1.285,2,1.931,3.009.146,0,.286,0,.433-.006A11.138,11.138,0,0,0,187.126,36.97Z" transform="translate(-99.345 -19.099)" fill="#3c4973"/>
        <path id="Trazado_116881" data-name="Trazado 116881" d="M155.95,60.99c.5.847.92,1.907,2.156,1.255.152-.079.018-.688.018-1.194a.919.919,0,0,1,1.352.487.942.942,0,0,1-.908,1.3,6.136,6.136,0,0,1-2.388-.42c-.3-.116-.372-.816-.542-1.255C155.742,61.106,155.846,61.045,155.95,60.99Zm4.7.822.414.542-.792.6c-.122-.146-.25-.286-.372-.433Zm-8.522.853c1.712.28,3.418.621,5.135.755a22.389,22.389,0,0,0,4.088-.146,20.53,20.53,0,0,0,2.784-.707,21.4,21.4,0,0,0-3.454-2.1c-2.839-1.09-5.757-.195-8.687.1.481.11.969.213,1.45.323l.067.25c-.749.341-1.492.676-2.437,1.109A5.856,5.856,0,0,0,152.124,62.665Z" transform="translate(-84.586 -28.431)" fill="#3c4973"/>
        <path id="Trazado_116882" data-name="Trazado 116882" d="M163.1,71.838c.018-.116.043-.238.061-.353a6,6,0,0,0-1.687-.146,10.063,10.063,0,0,1-8.8-1.913,6.042,6.042,0,0,0-.847-.475c-.055.1-.11.2-.164.3,1.517,1.145,2.942,2.5,5.026,2.571C158.818,71.886,160.962,71.838,163.1,71.838Z" transform="translate(-84.783 -32.08)" fill="#3c4973"/>
        <path id="Trazado_116883" data-name="Trazado 116883" d="M166.473,66.664l-.03-.384c-1.261.146-2.522.3-3.783.445A5.406,5.406,0,0,0,166.473,66.664Z" transform="translate(-89.187 -30.972)" fill="#3c4973"/>
        <path id="Trazado_116884" data-name="Trazado 116884" d="M175.007,65.378l-.1-.408c-.646.164-1.291.329-1.943.493A1.436,1.436,0,0,0,175.007,65.378Z" transform="translate(-93.488 -30.443)" fill="#3c4973"/>
        <path id="Trazado_116885" data-name="Trazado 116885" d="M171.37,71.469l1.8.64.152-.4-1.773-.676Z" transform="translate(-92.812 -32.903)" fill="#3c4973"/>
        <path id="Trazado_116886" data-name="Trazado 116886" d="M81.965,38.36c-.487,1.054-.969,2.114-1.462,3.162-.225.475-.475.944-.713,1.413a7.385,7.385,0,0,0,2.571-3.954C82.409,38.835,82.1,38.567,81.965,38.36Z" transform="translate(-54.048 -19.671)" fill="#3c4973"/>
        <path id="Trazado_116887" data-name="Trazado 116887" d="M186.756,57.811l-.469-.2c-.341.731-.676,1.468-1.017,2.2.073.219.146.439.225.658Q186.126,59.133,186.756,57.811Z" transform="translate(-98.678 -27.476)" fill="#3c4973"/>
        <path id="Trazado_116888" data-name="Trazado 116888" d="M114.083,60.961a6.639,6.639,0,0,1-1.17.11c.213-.481.262-.847.457-.956a1.7,1.7,0,0,1,1.03-.213c.2.03.353.384.53.591A4.6,4.6,0,0,1,114.083,60.961Zm-1.767-.359a2.443,2.443,0,0,1-2.6.646c-.725-.207-1.157-.67-.926-1.767.932.828,1.761,1.718,3.07.816-.152-.359-.268-.646-.542-1.291.664.219,1.048.353,1.438.481A3.315,3.315,0,0,1,112.316,60.6ZM107.9,58.726a15.467,15.467,0,0,0-3.43,1.559c-.366.189-.6.634-1.06,1.151,1.815-.037,3.375.158,4.362-2.01.615,2.717,2.376,2.467,4.075,2.351,1.474-.1,2.948-.292,4.423-.292,1.176,0,2.23-.037,2.845-1.45a15.416,15.416,0,0,0-1.687-.822A16.668,16.668,0,0,0,107.9,58.726Z" transform="translate(-64.345 -27.744)" fill="#3c4973"/>
        <path id="Trazado_116889" data-name="Trazado 116889" d="M117.45,71.281c-2.3,1.962-4.892,2.12-7.67,1.419-.359-.091-.725-.146-1.09-.219.018.292.1.414.207.463a9.9,9.9,0,0,0,10.63-2.394c-.043-.091-.085-.183-.128-.28A9.828,9.828,0,0,0,117.45,71.281Z" transform="translate(-66.475 -32.622)" fill="#3c4973"/>
        <path id="Trazado_116890" data-name="Trazado 116890" d="M115.217,65.265c-1.3-.317-2.565-.634-3.947-.975A3.314,3.314,0,0,0,115.217,65.265Z" transform="translate(-67.411 -30.17)" fill="#3c4973"/>
      </g>
    </g>
  </g>
</svg>
