<svg xmlns="http://www.w3.org/2000/svg" width="458.572" height="443.28" viewBox="0 0 458.572 443.28">
  <g id="Grupo_55794" data-name="Grupo 55794" transform="translate(-885.167 8922.395)">
    <g id="freepik--background-complete--inject-75" transform="translate(861.949 -8956.205)">
      <rect id="Rectángulo_30578" data-name="Rectángulo 30578" width="96.05" height="85.93" transform="translate(33.9 34.08)" fill="#fafafa"/>
      <path id="Trazado_128081" data-name="Trazado 128081" d="M130,120v-6.2c0-4,0-9.93-.06-17.44,0-15-.06-36.47-.11-62.3l.22.22h-96l.25-.26v85.94l-.22-.23,69.47.12L123,120h.06l-19.55.06-69.61.11h-.23V33.81h96.49v.21c0,25.88-.09,47.39-.11,62.43,0,7.49-.05,13.37-.06,17.4v4.56C129.99,119.45,130,120,130,120Z" fill="#e0e0e0"/>
      <path id="Trazado_128082" data-name="Trazado 128082" d="M70.73,49.35c0,.15-5.06.26-11.29.26s-11.3-.11-11.3-.26,5.06-.25,11.3-.25S70.73,49.21,70.73,49.35Z" fill="#727997"/>
      <path id="Trazado_128083" data-name="Trazado 128083" d="M111.43,55.81c0,.14-13.89.25-31,.25s-31-.11-31-.25,13.88-.26,31-.26S111.43,55.66,111.43,55.81Z" fill="#727997"/>
      <rect id="Rectángulo_30579" data-name="Rectángulo 30579" width="4.05" height="4.05" transform="translate(48.31 66.74)" fill="#b0c0d2"/>
      <rect id="Rectángulo_30580" data-name="Rectángulo 30580" width="4.05" height="4.05" transform="translate(58.27 66.74)" fill="#b0c0d2"/>
      <rect id="Rectángulo_30581" data-name="Rectángulo 30581" width="4.05" height="4.05" transform="translate(68.42 66.55)" fill="#b0c0d2"/>
      <rect id="Rectángulo_30582" data-name="Rectángulo 30582" width="4.05" height="4.05" transform="translate(78.19 66.74)" fill="#b0c0d2"/>
      <rect id="Rectángulo_30583" data-name="Rectángulo 30583" width="4.05" height="4.05" transform="translate(88.15 66.74)" fill="#b0c0d2"/>
      <rect id="Rectángulo_30584" data-name="Rectángulo 30584" width="4.05" height="4.05" transform="translate(98.12 66.74)" fill="#b0c0d2"/>
      <rect id="Rectángulo_30585" data-name="Rectángulo 30585" width="4.05" height="4.05" transform="translate(108.08 66.74)" fill="#b0c0d2"/>
      <rect id="Rectángulo_30586" data-name="Rectángulo 30586" width="4.05" height="4.05" transform="translate(48.31 75.34)" fill="#b0c0d2"/>
      <rect id="Rectángulo_30587" data-name="Rectángulo 30587" width="4.05" height="4.05" transform="translate(58.27 75.34)" fill="#b0c0d2"/>
      <rect id="Rectángulo_30588" data-name="Rectángulo 30588" width="4.05" height="4.05" transform="translate(68.23 75.34)" fill="#b0c0d2"/>
      <rect id="Rectángulo_30589" data-name="Rectángulo 30589" width="4.05" height="4.05" transform="translate(78.19 75.34)" fill="#b0c0d2"/>
      <rect id="Rectángulo_30590" data-name="Rectángulo 30590" width="4.05" height="4.05" transform="translate(88.15 75.34)" fill="#e0e0e0"/>
      <rect id="Rectángulo_30591" data-name="Rectángulo 30591" width="4.05" height="4.05" transform="translate(98.3 75.15)" fill="#e0e0e0"/>
      <rect id="Rectángulo_30592" data-name="Rectángulo 30592" width="4.05" height="4.05" transform="translate(108.08 75.34)" fill="#e0e0e0"/>
      <rect id="Rectángulo_30593" data-name="Rectángulo 30593" width="4.05" height="4.05" transform="translate(48.31 83.94)" fill="#b0c0d2"/>
      <rect id="Rectángulo_30594" data-name="Rectángulo 30594" width="4.05" height="4.05" transform="translate(58.46 83.76)" fill="#b0c0d2"/>
      <rect id="Rectángulo_30595" data-name="Rectángulo 30595" width="4.05" height="4.05" transform="translate(68.23 83.94)" fill="#b0c0d2"/>
      <rect id="Rectángulo_30596" data-name="Rectángulo 30596" width="4.05" height="4.05" transform="translate(78.19 83.94)" fill="#b0c0d2"/>
      <rect id="Rectángulo_30597" data-name="Rectángulo 30597" width="4.05" height="4.05" transform="translate(88.15 83.94)" fill="#e0e0e0"/>
      <rect id="Rectángulo_30598" data-name="Rectángulo 30598" width="4.05" height="4.05" transform="translate(98.12 83.94)" fill="#e0e0e0"/>
      <rect id="Rectángulo_30599" data-name="Rectángulo 30599" width="4.05" height="4.05" transform="translate(108.08 83.94)" fill="#e0e0e0"/>
      <rect id="Rectángulo_30600" data-name="Rectángulo 30600" width="4.05" height="4.05" transform="translate(48.31 92.54)" fill="#b0c0d2"/>
      <rect id="Rectángulo_30601" data-name="Rectángulo 30601" width="4.05" height="4.05" transform="translate(58.27 92.54)" fill="#b0c0d2"/>
      <rect id="Rectángulo_30602" data-name="Rectángulo 30602" width="4.05" height="4.05" transform="translate(68.23 92.54)" fill="#b0c0d2"/>
      <rect id="Rectángulo_30603" data-name="Rectángulo 30603" width="4.05" height="4.05" transform="translate(78.38 92.36)" fill="#b0c0d2"/>
      <rect id="Rectángulo_30604" data-name="Rectángulo 30604" width="4.05" height="4.05" transform="translate(88.15 92.54)" fill="#e0e0e0"/>
      <rect id="Rectángulo_30605" data-name="Rectángulo 30605" width="4.05" height="4.05" transform="translate(98.12 92.54)" fill="#ebebeb"/>
      <rect id="Rectángulo_30606" data-name="Rectángulo 30606" width="4.05" height="4.05" transform="translate(108.08 92.54)" fill="#e0e0e0"/>
      <rect id="Rectángulo_30607" data-name="Rectángulo 30607" width="4.05" height="4.05" transform="translate(48.31 101.15)" fill="#b0c0d2"/>
      <rect id="Rectángulo_30608" data-name="Rectángulo 30608" width="4.05" height="4.05" transform="translate(58.27 101.15)" fill="#b0c0d2"/>
      <rect id="Rectángulo_30609" data-name="Rectángulo 30609" width="4.05" height="4.05" transform="translate(68.23 101.15)" fill="#b0c0d2"/>
      <rect id="Rectángulo_30610" data-name="Rectángulo 30610" width="4.05" height="4.05" transform="translate(78.19 101.15)" fill="#b0c0d2"/>
      <rect id="Rectángulo_30611" data-name="Rectángulo 30611" width="4.05" height="4.05" transform="translate(88.15 101.15)" fill="#e0e0e0"/>
      <rect id="Rectángulo_30612" data-name="Rectángulo 30612" width="4.05" height="4.05" transform="translate(98.3 100.96)" fill="#e0e0e0"/>
      <rect id="Rectángulo_30613" data-name="Rectángulo 30613" width="4.05" height="4.05" transform="translate(108.08 101.15)" fill="#e0e0e0"/>
      <rect id="Rectángulo_30614" data-name="Rectángulo 30614" width="68.04" height="68.04" transform="translate(402.46 35.83)" fill="#fff"/>
      <path id="Trazado_128084" data-name="Trazado 128084" d="M470.5,103.88V98.89c0-3.22,0-7.9-.06-13.85,0-11.91-.07-28.89-.12-49.26l.23.23h-68l.26-.26V103.8l-.22-.23,49.25.12,13.85.06h.09l-13.79.06-49.4.11h-.23V35.44h68.49v.22c-.05,20.43-.09,37.46-.12,49.4,0,5.93,0,10.6-.06,13.8v4.54A1.083,1.083,0,0,1,470.5,103.88Z" fill="#e0e0e0"/>
      <path id="Trazado_128085" data-name="Trazado 128085" d="M470.21,53.25c0,.14-15.17.26-33.88.26s-33.87-.12-33.87-.26S417.62,53,436.33,53,470.21,53.11,470.21,53.25Z" fill="#e0e0e0"/>
      <circle id="Elipse_4306" data-name="Elipse 4306" cx="1.93" cy="1.93" r="1.93" transform="translate(407.15 42.26)" fill="#e0e0e0"/>
      <circle id="Elipse_4307" data-name="Elipse 4307" cx="1.93" cy="1.93" r="1.93" transform="translate(413.03 42.26)" fill="#e0e0e0"/>
      <path id="Trazado_128086" data-name="Trazado 128086" d="M422.77,44.19a1.92,1.92,0,1,1-.562-1.368,1.93,1.93,0,0,1,.562,1.368Z" fill="#e0e0e0"/>
      <circle id="Elipse_4308" data-name="Elipse 4308" cx="5.53" cy="5.53" r="5.53" transform="translate(410.71 62.2)" fill="#d2e1f1"/>
      <path id="Trazado_128087" data-name="Trazado 128087" d="M421.77,88a5.53,5.53,0,1,1-5.53-5.53A5.53,5.53,0,0,1,421.77,88Z" fill="#d2e1f1"/>
      <path id="Trazado_128088" data-name="Trazado 128088" d="M460.34,67.28c0,.14-7.56.26-16.89.26s-16.89-.12-16.89-.26,7.56-.26,16.89-.26S460.34,67.13,460.34,67.28Z" fill="#e0e0e0"/>
      <path id="Trazado_128089" data-name="Trazado 128089" d="M438.73,87.93a69.48,69.48,0,0,1-12,0A69.48,69.48,0,0,1,438.73,87.93Z" fill="#e0e0e0"/>
      <circle id="Elipse_4309" data-name="Elipse 4309" cx="21.45" cy="21.45" r="21.45" transform="translate(438.89 71.32)" fill="#26aab7"/>
      <rect id="Rectángulo_30615" data-name="Rectángulo 30615" width="2" height="15.92" transform="translate(460.36 84.63)" fill="#fff"/>
      <rect id="Rectángulo_30616" data-name="Rectángulo 30616" width="15.92" height="2" transform="translate(453.4 91.59)" fill="#fff"/>
      <circle id="Elipse_4310" data-name="Elipse 4310" cx="21.45" cy="21.45" r="21.45" transform="matrix(0.921, -0.39, 0.39, 0.921, 23.218, 241.922)" fill="#26aab7"/>
      <rect id="Rectángulo_30617" data-name="Rectángulo 30617" width="2" height="15.92" transform="translate(51.35 245.18)" fill="#fff"/>
      <rect id="Rectángulo_30618" data-name="Rectángulo 30618" width="15.92" height="2" transform="translate(44.39 252.14)" fill="#fff"/>
      <rect id="Rectángulo_30619" data-name="Rectángulo 30619" width="145.68" height="67.18" transform="translate(165.74 348.53)" fill="#f5f5f5"/>
      <path id="Trazado_128090" data-name="Trazado 128090" d="M308,412.55H169.07V352.06H308Zm-138-.91H307V353H170Z" fill="#e0e0e0"/>
      <rect id="Rectángulo_30620" data-name="Rectángulo 30620" width="35.59" height="67.18" transform="translate(311.42 348.53)" fill="#e0e0e0"/>
      <path id="Trazado_128091" data-name="Trazado 128091" d="M169.53,370.78h138a.18.18,0,0,0,0-.36h-138a.18.18,0,1,0,0,.36Z" fill="#e0e0e0"/>
      <path id="Trazado_128092" data-name="Trazado 128092" d="M239,370.6a150.154,150.154,0,0,0,0-18.25.19.19,0,0,0-.37,0,152.218,152.218,0,0,0,0,18.25.14.14,0,1,0,.28,0Z" fill="#e0e0e0"/>
      <path id="Trazado_128093" data-name="Trazado 128093" d="M276.1,361.47a1.88,1.88,0,1,1-1.88-1.88,1.88,1.88,0,0,1,1.88,1.88Z" fill="#e0e0e0"/>
      <path id="Trazado_128094" data-name="Trazado 128094" d="M203.69,361.47a1.88,1.88,0,1,1-1.88-1.88,1.88,1.88,0,0,1,1.88,1.88Z" fill="#e0e0e0"/>
      <path id="Trazado_128095" data-name="Trazado 128095" d="M240.39,382.31a1.88,1.88,0,1,1-1.88-1.88A1.88,1.88,0,0,1,240.39,382.31Z" fill="#e0e0e0"/>
      <path id="Trazado_128096" data-name="Trazado 128096" d="M183.16,415.71l-7.5,42.18h4.22l13.82-42.18Z" fill="#e0e0e0"/>
      <path id="Trazado_128097" data-name="Trazado 128097" d="M301.11,415.71l6.27,42.25h-4.22l-12.6-42.25Z" fill="#e0e0e0"/>
      <path id="Trazado_128098" data-name="Trazado 128098" d="M329.27,415.71l7.11,42.25h-4.22l-13.44-42.25Z" fill="#e0e0e0"/>
      <path id="Trazado_128099" data-name="Trazado 128099" d="M240.26,401.32a1.88,1.88,0,1,1-1.87-1.88A1.88,1.88,0,0,1,240.26,401.32Z" fill="#e0e0e0"/>
      <path id="Trazado_128100" data-name="Trazado 128100" d="M169.53,391.59h138a.19.19,0,0,0,0-.37h-138a.19.19,0,0,0,0,.37Z" fill="#e0e0e0"/>
    </g>
    <g id="freepik--Floor--inject-75" transform="translate(861.949 -8956.205)">
      <path id="Trazado_128101" data-name="Trazado 128101" d="M461.43,458.08c0,.14-97.8.26-218.42.26s-218.44-.12-218.44-.26,97.78-.26,218.44-.26S461.43,457.93,461.43,458.08Z" fill="#263238"/>
    </g>
    <g id="freepik--Window--inject-75" transform="translate(861.949 -8956.205)">
      <rect id="Rectángulo_30621" data-name="Rectángulo 30621" width="299.89" height="264.22" transform="translate(86.46 68.72)" fill="#fff"/>
      <rect id="Rectángulo_30622" data-name="Rectángulo 30622" width="299.89" height="44.64" transform="translate(86.46 229.59)" fill="#fff"/>
      <rect id="Rectángulo_30623" data-name="Rectángulo 30623" width="299.89" height="51.08" transform="translate(86.46 178.52)" fill="#f5f5f5"/>
      <rect id="Rectángulo_30624" data-name="Rectángulo 30624" width="299.89" height="51.08" transform="translate(86.46 281.53)" fill="#f5f5f5"/>
      <path id="Trazado_128102" data-name="Trazado 128102" d="M267.53,194.42c0,.15-35.37.27-79,.27s-79-.12-79-.27,35.36-.26,79-.26S267.53,194.28,267.53,194.42Z" fill="#263238"/>
      <path id="Trazado_128103" data-name="Trazado 128103" d="M176.24,208.64c0,.14-15,.26-33.57.26s-33.57-.12-33.57-.26,15-.26,33.57-.26S176.24,208.5,176.24,208.64Z" fill="#263238"/>
      <path id="Trazado_128104" data-name="Trazado 128104" d="M267.53,244.81c0,.14-35.37.26-79,.26s-79-.12-79-.26,35.36-.26,79-.26S267.53,244.66,267.53,244.81Z" fill="#263238"/>
      <path id="Trazado_128105" data-name="Trazado 128105" d="M176.24,259c0,.15-15,.26-33.57.26s-33.57-.11-33.57-.26,15-.26,33.57-.26S176.24,258.88,176.24,259Z" fill="#263238"/>
      <path id="Trazado_128106" data-name="Trazado 128106" d="M267.53,295.19c0,.14-35.37.26-79,.26s-79-.12-79-.26,35.36-.26,79-.26S267.53,295,267.53,295.19Z" fill="#263238"/>
      <path id="Trazado_128107" data-name="Trazado 128107" d="M176.24,309.4c0,.15-15,.26-33.57.26s-33.57-.11-33.57-.26,15-.26,33.57-.26S176.24,309.26,176.24,309.4Z" fill="#263238"/>
      <rect id="Rectángulo_30625" data-name="Rectángulo 30625" width="299.89" height="25.21" transform="translate(86.46 68.39)" fill="#e0e0e0"/>
      <rect id="Rectángulo_30626" data-name="Rectángulo 30626" width="299.89" height="25.21" transform="translate(86.46 91.21)" fill="#f5f5f5"/>
      <path id="Trazado_128108" data-name="Trazado 128108" d="M104.51,80.2a3.16,3.16,0,1,1-.911-2.26A3.17,3.17,0,0,1,104.51,80.2Z" fill="#263238"/>
      <path id="Trazado_128109" data-name="Trazado 128109" d="M116.13,80.2A3.17,3.17,0,1,1,113,77,3.17,3.17,0,0,1,116.13,80.2Z" fill="#263238"/>
      <path id="Trazado_128110" data-name="Trazado 128110" d="M127.74,80.2a3.17,3.17,0,1,1-.918-2.261,3.17,3.17,0,0,1,.918,2.261Z" fill="#263238"/>
      <path id="Trazado_128111" data-name="Trazado 128111" d="M386.41,333c0-1.68-.06-103-.15-264.56l.15.2L86.67,68.7h0l.18-.26V333l-.17-.24,299.76.24-299.76.24H86.5V68.18h.21l299.74.05h.15v.21C386.46,230,386.41,331.27,386.41,333Z" fill="#263238"/>
      <rect id="Rectángulo_30627" data-name="Rectángulo 30627" width="82.52" height="27.91" rx="5.77" transform="translate(270.79 131.28)" fill="#c1507f"/>
      <path id="Trazado_128112" data-name="Trazado 128112" d="M290,145.08h-1.79v1.77h-.83v-1.77h-1.8v-.78h1.8v-1.78h.83v1.78H290Z" fill="#fff"/>
      <rect id="Rectángulo_30628" data-name="Rectángulo 30628" width="82.52" height="17.71" rx="8.85" transform="translate(270.79 198.09)" fill="#727997"/>
      <path id="Trazado_128125" data-name="Trazado 128125" d="M377.987,266.93H319.223c-6.557,0-11.873-3.962-11.873-8.85h0c0-4.888,5.316-8.85,11.873-8.85h58.763c6.557,0,11.873,3.962,11.873,8.85h0C389.86,262.968,384.544,266.93,377.987,266.93Z" transform="translate(-36.56 0)" fill="#727997"/>
      <rect id="Rectángulo_30629" data-name="Rectángulo 30629" width="82.52" height="17.71" rx="8.85" transform="translate(270.79 299.32)" fill="#727997"/>
    </g>
    <g id="freepik--Character--inject-75" transform="translate(861.949 -8956.205)">
      <path id="Trazado_128146" data-name="Trazado 128146" d="M387.17,427.82l.79,19.36s-19.42,7.31-19.62,10.9l37.6-.18V427.68Z" fill="#263238"/>
      <path id="Trazado_128147" data-name="Trazado 128147" d="M399.58,445.5a1.54,1.54,0,0,1,1.07,1.75,1.49,1.49,0,0,1-1.73,1.07,1.61,1.61,0,0,1-1.12-1.85,1.52,1.52,0,0,1,1.92-.92" fill="#e0e0e0"/>
      <path id="Trazado_128148" data-name="Trazado 128148" d="M405.94,457.9l-.12-3-36,1.31s-1.67.74-1.48,1.92Z" fill="#455a64"/>
      <path id="Trazado_128149" data-name="Trazado 128149" d="M387.35,447c0,.18.92.26,1.83.84s1.39,1.36,1.56,1.29-.11-1.14-1.22-1.83S387.31,446.83,387.35,447Z" fill="#fff"/>
      <path id="Trazado_128150" data-name="Trazado 128150" d="M383.41,448.64c0,.18.76.49,1.39,1.26s.81,1.6,1,1.59.29-1.05-.5-2S383.42,448.47,383.41,448.64Z" fill="#fff"/>
      <path id="Trazado_128151" data-name="Trazado 128151" d="M381.2,453.37c.16,0,.41-.88-.06-1.88s-1.34-1.4-1.42-1.24.46.68.84,1.51S381,453.36,381.2,453.37Z" fill="#fff"/>
      <path id="Trazado_128152" data-name="Trazado 128152" d="M387.66,442.56c.08.17.92-.09,2,0s1.84.39,1.94.23-.69-.81-1.91-.87S387.57,442.42,387.66,442.56Z" fill="#fff"/>
      <path id="Trazado_128153" data-name="Trazado 128153" d="M445,432.33l4.88,22.93-1.37,19.25a2.4,2.4,0,0,0,2.39,2.57h0a2.4,2.4,0,0,0,1.95-1c2.88-4,13.4-18.93,13-20.59-.53-1.92-3.54-24.53-3.54-24.53Z" fill="#263238"/>
      <path id="Trazado_128154" data-name="Trazado 128154" d="M450.89,477.08l14.6-23.15.19,1a3.58,3.58,0,0,1-.41,2.46c-1.14,2-4.4,7.44-12.36,18.7a2.4,2.4,0,0,1-2,1Z" fill="#455a64"/>
      <g id="Grupo_55747" data-name="Grupo 55747" opacity="0.6">
        <path id="Trazado_128155" data-name="Trazado 128155" d="M459.36,447.39a1.46,1.46,0,0,0,0,1.94,1.4,1.4,0,0,0,1.93.06,1.54,1.54,0,0,0,0-2.06,1.46,1.46,0,0,0-2,.17" fill="#fff"/>
      </g>
      <path id="Trazado_128156" data-name="Trazado 128156" d="M454.25,466a7.441,7.441,0,0,0-2.36-1.41,7.59,7.59,0,0,0-2.75,0c0-.05.23-.28.76-.46a3.78,3.78,0,0,1,2.13,0,3.82,3.82,0,0,1,1.82,1.12C454.2,465.66,454.3,466,454.25,466Z" fill="#fff"/>
      <path id="Trazado_128157" data-name="Trazado 128157" d="M453.19,469.41a20.933,20.933,0,0,0-2.23-.6,22.42,22.42,0,0,0-2.3.13A3.39,3.39,0,0,1,453.19,469.41Z" fill="#fff"/>
      <path id="Trazado_128158" data-name="Trazado 128158" d="M456.56,461.49a12.31,12.31,0,0,0-6.94-1.32,6.58,6.58,0,0,1,6.94,1.32Z" fill="#fff"/>
      <path id="Trazado_128159" data-name="Trazado 128159" d="M455.66,454.39c0,.15-1.41-.14-3.08.12s-2.9.89-3,.76a6,6,0,0,1,6.06-.88Z" fill="#fff"/>
      <path id="Trazado_128160" data-name="Trazado 128160" d="M454.4,447.63a11.489,11.489,0,0,0-3.21,0,11.83,11.83,0,0,0-2.91,1.34,2.238,2.238,0,0,1,.62-.78,5.1,5.1,0,0,1,2.18-1.06,5.261,5.261,0,0,1,2.42,0C454.1,447.35,454.42,447.57,454.4,447.63Z" fill="#fff"/>
      <path id="Trazado_128161" data-name="Trazado 128161" d="M451,446.36a2,2,0,0,1-.2-.86,6.26,6.26,0,0,1,.26-2.42,2.76,2.76,0,0,1,.91-1.49,1,1,0,0,1,1.11,0,1.54,1.54,0,0,1,.56,1,3.39,3.39,0,0,1-2.34,3.63,3.92,3.92,0,0,1-4.18-1.3,1.38,1.38,0,0,1-.28-1.11,1,1,0,0,1,.88-.67,3.3,3.3,0,0,1,1.67.5,7,7,0,0,1,1.91,1.49,2.221,2.221,0,0,1,.51.73,11.319,11.319,0,0,0-2.58-1.9,3.3,3.3,0,0,0-1.47-.4.51.51,0,0,0-.48.37.92.92,0,0,0,.23.71,3.5,3.5,0,0,0,3.64,1.09,3,3,0,0,0,2-3.06,1.11,1.11,0,0,0-.37-.69.51.51,0,0,0-.61,0,2.45,2.45,0,0,0-.79,1.25,9.238,9.238,0,0,0-.38,3.13Z" fill="#fff"/>
      <path id="Trazado_128162" data-name="Trazado 128162" d="M373.33,270.37s-.16,10.2.52,23.37c.26,5.1,11,146.86,11,146.86l23.18.58-3.19-132.49,4,1s12.21,44.18,14.87,54.29c3.16,12,20.17,80.22,20.17,80.22l21.19.78-13.94-79.91L439.1,289l-2.41-22.12Z" fill="#455a64"/>
      <path id="Trazado_128163" data-name="Trazado 128163" d="M408.84,295.29a4.77,4.77,0,0,1-1,.52,11.5,11.5,0,0,1-2.89.93,6,6,0,0,1-2.14,0,4.39,4.39,0,0,1-2.21-1.13,5.34,5.34,0,0,1-1.29-2.4c-.25-.91-.38-1.85-.55-2.8-.65-3.84-1.06-7.34-1.29-9.88-.11-1.27-.18-2.3-.22-3a5.29,5.29,0,0,1,0-1.11,4.479,4.479,0,0,1,.19,1.09c.1.81.23,1.81.38,3,.31,2.53.78,6,1.42,9.83.33,1.9.54,3.82,1.68,5a4.85,4.85,0,0,0,4,1.15,13.46,13.46,0,0,0,2.87-.77A4.72,4.72,0,0,1,408.84,295.29Z" fill="#263238"/>
      <path id="Trazado_128164" data-name="Trazado 128164" d="M402.31,277.16a.958.958,0,0,1,.48-.13,2.13,2.13,0,0,1,1.28.45,2.232,2.232,0,1,1-3.45,1.19,2,2,0,0,1,.74-1.15c.26-.2.44-.22.45-.2a2.63,2.63,0,0,0-.85,1.42,2,2,0,0,0,.4,1.64,1.74,1.74,0,0,0,1.91.41,1.72,1.72,0,0,0,1.24-1.5,2,2,0,0,0-.7-1.54,2.66,2.66,0,0,0-1.5-.59Z" fill="#263238"/>
      <path id="Trazado_128165" data-name="Trazado 128165" d="M438.81,287.63a2.361,2.361,0,0,1-.79.11,16.481,16.481,0,0,1-2.18,0A21.18,21.18,0,0,1,423,281.9a14.685,14.685,0,0,1-1.46-1.62,2.85,2.85,0,0,1-.45-.66c.07-.05.79.82,2.15,2a24.07,24.07,0,0,0,5.9,3.83,23.73,23.73,0,0,0,6.78,1.89C437.68,287.58,438.81,287.54,438.81,287.63Z" fill="#263238"/>
      <path id="Trazado_128166" data-name="Trazado 128166" d="M382.68,277.1a12.321,12.321,0,0,1-.92,2.32,26.143,26.143,0,0,1-3,4.88,20.92,20.92,0,0,1-3.72,3.76,6.409,6.409,0,0,1-1.74,1.09,18.38,18.38,0,0,1,1.61-1.38,27.517,27.517,0,0,0,3.62-3.82,33.1,33.1,0,0,0,3-4.72C382.25,277.92,382.63,277.06,382.68,277.1Z" fill="#263238"/>
      <path id="Trazado_128167" data-name="Trazado 128167" d="M396,130.59a18,18,0,0,1,17.9-16.6h.93c10.05.56,15.19,9.41,14.35,19.44L427,164.62l-17.91,18.62-4.58-11.13V164.7s-9.66-1.48-9.81-11.13C394.68,148.9,395.32,139.28,396,130.59Z" fill="#ffbe9d"/>
      <path id="Trazado_128168" data-name="Trazado 128168" d="M404.48,164.69A23.48,23.48,0,0,0,417.13,161s-3,7-12.6,6.11Z" fill="#eb996e"/>
      <path id="Trazado_128169" data-name="Trazado 128169" d="M398.58,138.64a1.38,1.38,0,0,0,1.33,1.38,1.32,1.32,0,0,0,1.42-1.24,1.37,1.37,0,0,0-1.33-1.39,1.32,1.32,0,0,0-1.42,1.25Z" fill="#263238"/>
      <path id="Trazado_128170" data-name="Trazado 128170" d="M398.08,135.31c.18.18,1.22-.6,2.7-.6s2.58.74,2.74.56-.1-.41-.57-.75a3.72,3.72,0,0,0-2.19-.67,3.63,3.63,0,0,0-2.15.7C398.15,134.9,398,135.23,398.08,135.31Z" fill="#263238"/>
      <path id="Trazado_128171" data-name="Trazado 128171" d="M412,139a1.39,1.39,0,0,0,1.34,1.39,1.33,1.33,0,0,0,1.42-1.25,1.39,1.39,0,0,0-1.34-1.39A1.32,1.32,0,0,0,412,139Z" fill="#263238"/>
      <path id="Trazado_128172" data-name="Trazado 128172" d="M412.67,135.54c.18.18,1.22-.59,2.7-.59s2.58.73,2.74.55-.1-.4-.57-.75a3.8,3.8,0,0,0-2.19-.66,3.59,3.59,0,0,0-2.15.7C412.75,135.14,412.59,135.46,412.67,135.54Z" fill="#263238"/>
      <path id="Trazado_128173" data-name="Trazado 128173" d="M407.32,146.57a9.21,9.21,0,0,0-2.41-.43c-.38,0-.74-.12-.81-.37a2,2,0,0,1,.25-1.13l1.12-2.89c1.54-4.11,2.66-7.49,2.49-7.55s-1.55,3.22-3.1,7.33c-.37,1-.72,2-1.06,2.91a2.18,2.18,0,0,0-.19,1.49.94.94,0,0,0,.62.55,2.72,2.72,0,0,0,.64.09,9.91,9.91,0,0,0,2.45,0Z" fill="#263238"/>
      <path id="Trazado_128174" data-name="Trazado 128174" d="M411.69,147.58c-.24,0-.24,1.6-1.62,2.74s-3.09,1-3.1,1.21.38.31,1.11.32a3.92,3.92,0,0,0,2.59-.91,3.47,3.47,0,0,0,1.25-2.3C412,148,411.8,147.57,411.69,147.58Z" fill="#263238"/>
      <path id="Trazado_128175" data-name="Trazado 128175" d="M412.28,129.73c.14.4,1.62.2,3.37.41s3.15.68,3.38.31c.1-.17-.15-.55-.71-.94a5.9,5.9,0,0,0-5.15-.55C412.53,129.22,412.21,129.54,412.28,129.73Z" fill="#263238"/>
      <path id="Trazado_128176" data-name="Trazado 128176" d="M398.62,131c.26.34,1.28,0,2.51,0s2.27.22,2.51-.13c.11-.17-.06-.51-.52-.83a3.49,3.49,0,0,0-2-.54,3.44,3.44,0,0,0-2,.68C398.64,130.5,398.5,130.84,398.62,131Z" fill="#263238"/>
      <path id="Trazado_128177" data-name="Trazado 128177" d="M392.42,122.14a1.84,1.84,0,0,1,1.89-1.54A4,4,0,0,1,393,120a1.36,1.36,0,0,1-.5-1.34c.23-.75,1.18-.93,1.93-1.17a4.91,4.91,0,0,0,2.47-1.75c.89-1.18,1.2-2.7,1.95-4a6.42,6.42,0,0,1,9.92-1.38,6.68,6.68,0,0,1,10.79,1.33,7.78,7.78,0,0,1,10.9,8.22l-5.9,3.85a3.25,3.25,0,0,0-4-2.7c-1.8.58-2.9,2.71-4.78,2.91-1.47.15-2.75-.95-4.18-1.29a7,7,0,0,0-5.07,1.25,20.321,20.321,0,0,1-4.69,2.54,10,10,0,0,1-6.15-.56,6.19,6.19,0,0,1-2.3-1.34,2.8,2.8,0,0,1-.97-2.43Z" fill="#263238"/>
      <path id="Trazado_128178" data-name="Trazado 128178" d="M423.39,121l-27.54.63a12.69,12.69,0,0,1,4-4.69,21.51,21.51,0,0,1,12.46-4.49c4.49-.08,13.64,5.38,16.9,8.47,2.6,2.48,2.59,4.63,2.59,4.63.41,3.57-1.58,7.63-2.38,11.13-.4,1.81-1.19,7.28-1.19,7.28h0c-1.52,0-2.08-1.21-1.86-2.71l.28-5.89A8.88,8.88,0,0,1,424,124.94C424.37,124.4,425.21,122,423.39,121Z" fill="#263238"/>
      <path id="Trazado_128179" data-name="Trazado 128179" d="M427.12,134.91c1.27-4.92,2.4-10.18.78-15l.81-.06.35.24a3.85,3.85,0,0,1,4.5,5.81,3.34,3.34,0,0,1,3.43,2.82,6.23,6.23,0,0,1-.8,3.24,7.49,7.49,0,0,0-.95,3.21,2.41,2.41,0,0,0,1.9,2.44,2.76,2.76,0,0,1-3.08,1.6,5.55,5.55,0,0,0,2,2.33c-1.76,1.27-4.23.93-6.21,0a5.3,5.3,0,0,1-2.84-2.48A6.66,6.66,0,0,1,427.12,134.91Z" fill="#263238"/>
      <path id="Trazado_128180" data-name="Trazado 128180" d="M427.73,140.58c.17-.07,6.64-2,6.44,4.62s-6.78,5.05-6.79,4.86S427.73,140.58,427.73,140.58Z" fill="#ffbe9d"/>
      <path id="Trazado_128181" data-name="Trazado 128181" d="M428.89,147.62s.12.08.31.18a1.16,1.16,0,0,0,.86,0,2.88,2.88,0,0,0,1.39-2.52,3.82,3.82,0,0,0-.28-1.65,1.32,1.32,0,0,0-.83-.91.59.59,0,0,0-.69.29c-.1.19-.06.32-.09.33s-.14-.12-.08-.39a.7.7,0,0,1,.27-.4.82.82,0,0,1,.64-.15,1.61,1.61,0,0,1,1.17,1.06,3.83,3.83,0,0,1,.35,1.85,3,3,0,0,1-1.76,2.8,1.24,1.24,0,0,1-1-.2C428.9,147.78,428.87,147.63,428.89,147.62Z" fill="#eb996e"/>
      <path id="Trazado_128182" data-name="Trazado 128182" d="M434.42,134.91a1.09,1.09,0,0,0,.1-.77,2.46,2.46,0,0,0-1.28-1.68,7.57,7.57,0,0,0-3-.64,3.7,3.7,0,0,1-3.05-1.45,5.45,5.45,0,0,1-.62-3.44c.13-1.11.39-2.13.51-3a4.87,4.87,0,0,0-.12-2.82,12.692,12.692,0,0,1-.23,2.76c-.17.85-.47,1.83-.63,3a5.78,5.78,0,0,0,.66,3.78,3.25,3.25,0,0,0,1.61,1.28,6.49,6.49,0,0,0,1.83.35,8,8,0,0,1,2.92.49,2.43,2.43,0,0,1,1.25,1.41A4,4,0,0,1,434.42,134.91Z" fill="#455a64"/>
      <path id="Trazado_128183" data-name="Trazado 128183" d="M435.93,132a1.351,1.351,0,0,0,.19-.6,3,3,0,0,0-1.19-2.6,3.36,3.36,0,0,0-1.28-.56,3.59,3.59,0,0,1-1.26-.48,1.5,1.5,0,0,1-.54-1.19c0-.5,0-1,0-1.56a7.54,7.54,0,0,0-1.22-3.82,1.83,1.83,0,0,0-1.49-.89c-.43,0-.61.22-.59.23a1.312,1.312,0,0,1,.58,0,1.67,1.67,0,0,1,1.2.89,7.69,7.69,0,0,1,.85,2.23,7.069,7.069,0,0,1,.17,1.41v1.57a2,2,0,0,0,.74,1.57,4.06,4.06,0,0,0,1.46.53,2.73,2.73,0,0,1,1.89,1.2,3.55,3.55,0,0,1,.49,2.07Z" fill="#455a64"/>
      <path id="Trazado_128184" data-name="Trazado 128184" d="M396.86,115.71a1.378,1.378,0,0,0,1.36-.09,3.9,3.9,0,0,0,1.21-1.09,5.46,5.46,0,0,1,1.49-1.41,4.62,4.62,0,0,1,5,.19c.83.57,1.57,1.38,2.54,2a4.33,4.33,0,0,0,1.67.72,3.66,3.66,0,0,0,1.88-.24c1.17-.46,2.09-1.21,3.1-1.61a8.31,8.31,0,0,1,3.08-.65,8.18,8.18,0,0,1,5.05,1.58,8.92,8.92,0,0,1,2.43,2.69c.44.76.6,1.22.64,1.2s0-.12-.08-.35a6.3,6.3,0,0,0-.38-.94,8.5,8.5,0,0,0-2.4-2.89,8.4,8.4,0,0,0-5.26-1.76,8.7,8.7,0,0,0-3.27.65c-1.09.44-2,1.19-3.1,1.6a3,3,0,0,1-1.61.21,3.75,3.75,0,0,1-1.47-.63c-.9-.61-1.66-1.41-2.56-2a4.8,4.8,0,0,0-2.9-.87,5.13,5.13,0,0,0-2.54.76,5.391,5.391,0,0,0-1.52,1.54,3.92,3.92,0,0,1-1.09,1.1,1.93,1.93,0,0,1-1.27.29Z" fill="#455a64"/>
      <path id="Trazado_128185" data-name="Trazado 128185" d="M358.16,203.23l-34.17-27-4.87-5.11s-11.64-10.87-12.62-12.06c-1.14-1.37-2.08-1.15-2.55-.7-.75.71-.5,2.15.44,3.35.33.42,5.72,6.79,5.72,6.79a20.329,20.329,0,0,0-2.68-.69c-1.95-.41-4.75.76-7,2.73s-2.67,2.73-1.94,3.63a1.47,1.47,0,0,0,1.16.49,2.92,2.92,0,0,0,1.95-.73c3.6-3.12,6.22-2,6.22-2l.64.67s-3.55.27-4.77,2.42a2.671,2.671,0,0,0-.34,1,3.74,3.74,0,0,0,1.08,6.35,1.56,1.56,0,0,0,1.75-.24,2.15,2.15,0,0,0,.32-.94,2.909,2.909,0,0,1,.12-.51l2.05,1.62s4.79,3.4,6.71,5.12L344,218.53a10.47,10.47,0,0,0,14.92.49h0a10.47,10.47,0,0,0-.76-15.79Z" fill="#ffbe9d"/>
      <path id="Trazado_128186" data-name="Trazado 128186" d="M322.57,176.67a2.19,2.19,0,0,1-2.48.53c-.86-.29-1.59-.87-2.43-1.22-2.49-1.06-5.54,0-8-1.2-.35-.16-.71-.47-.63-.84s.5-.47.84-.53l8.83-1.69" fill="#ffbe9d"/>
      <path id="Trazado_128187" data-name="Trazado 128187" d="M318.72,171.72a3.6,3.6,0,0,0-1,.08c-.62.09-1.51.23-2.61.42l-3.88.69-1.11.2a1.8,1.8,0,0,0-1.24.55.75.75,0,0,0,0,.85,1.55,1.55,0,0,0,.56.47,6.409,6.409,0,0,0,1.25.44,35.519,35.519,0,0,0,4.83.32,6.69,6.69,0,0,1,2,.43,17.474,17.474,0,0,1,1.62.82,3.17,3.17,0,0,0,2.65.34c.63-.27.76-.67.74-.66a2.9,2.9,0,0,1-.8.47,3.05,3.05,0,0,1-2.42-.47,16.864,16.864,0,0,0-1.62-.89,6.74,6.74,0,0,0-2.1-.51,39.693,39.693,0,0,1-4.76-.35,5.79,5.79,0,0,1-1.13-.39c-.33-.17-.54-.45-.41-.6a1.874,1.874,0,0,1,.9-.34l1.11-.22,3.85-.79c1.1-.24,2-.43,2.59-.58a4.231,4.231,0,0,0,.98-.28Z" fill="#eb996e"/>
      <path id="Trazado_128188" data-name="Trazado 128188" d="M308.59,172.57a3.85,3.85,0,0,0-1.45-.88,2.89,2.89,0,0,0-1.79.12,7.529,7.529,0,0,0-1.94,1.19,11.541,11.541,0,0,1-1.94,1.35,3.7,3.7,0,0,1-1.91.45,1.48,1.48,0,0,1-1.15-.64.84.84,0,0,1-.17-.46,4.18,4.18,0,0,0,.27.38,1.41,1.41,0,0,0,1.07.49,3.62,3.62,0,0,0,1.75-.49,12.721,12.721,0,0,0,1.88-1.34,7.459,7.459,0,0,1,2-1.22,3,3,0,0,1,2-.05,2.72,2.72,0,0,1,1.11.7C308.54,172.41,308.61,172.56,308.59,172.57Z" fill="#eb996e"/>
      <path id="Trazado_128189" data-name="Trazado 128189" d="M304,161.24a9.312,9.312,0,0,1,1.08,1.26l2.52,3.1,2.57,3.06a10.409,10.409,0,0,1,1,1.3,7.732,7.732,0,0,1-1.21-1.14c-.71-.75-1.65-1.8-2.65-3s-1.86-2.33-2.46-3.17a7.1,7.1,0,0,1-.85-1.41Z" fill="#eb996e"/>
      <path id="Trazado_128190" data-name="Trazado 128190" d="M308.35,175.23a2.36,2.36,0,0,1-.49.16,1.56,1.56,0,0,0-1,.78.84.84,0,0,0,.11.81,4.891,4.891,0,0,0,.75.77,1.9,1.9,0,0,1,.69,1.14,1.61,1.61,0,0,1-.56,1.32,1.78,1.78,0,0,1-1.36.4,2.23,2.23,0,0,1-1.22-.5,7.341,7.341,0,0,1-1.34-1.66,4.53,4.53,0,0,1-.56-1.33,1.218,1.218,0,0,1,0-.53,1.542,1.542,0,0,0,.12.5,4.76,4.76,0,0,0,.63,1.23,7.63,7.63,0,0,0,1.33,1.56,1.78,1.78,0,0,0,2.17.08,1.25,1.25,0,0,0,.45-1,1.54,1.54,0,0,0-.57-.94,4.48,4.48,0,0,1-.77-.86,1.05,1.05,0,0,1-.09-1.05,1.58,1.58,0,0,1,1.2-.8A1.35,1.35,0,0,1,308.35,175.23Z" fill="#eb996e"/>
      <path id="Trazado_128191" data-name="Trazado 128191" d="M306.4,180.33a.735.735,0,0,1,.27.39,1.47,1.47,0,0,1-.2,1.28,1.93,1.93,0,0,1-1.77.73,3.15,3.15,0,0,1-2-1.16,3.86,3.86,0,0,1-.88-2.17,3.65,3.65,0,0,1,1.15-2.9c.23-.2.38-.28.39-.26a5.8,5.8,0,0,0-.95,1.38,3.6,3.6,0,0,0,.54,3.73,2.94,2.94,0,0,0,1.82,1.08,1.72,1.72,0,0,0,1.54-.57,1.38,1.38,0,0,0,.26-1.11C306.48,180.48,306.38,180.34,306.4,180.33Z" fill="#eb996e"/>
      <path id="Trazado_128192" data-name="Trazado 128192" d="M314.39,180.94a1.825,1.825,0,0,1,.62-.51,3.2,3.2,0,0,1,2-.3l-.17.24a10.812,10.812,0,0,1-.57-1,7,7,0,0,1-.9-3.78,18,18,0,0,0,1.2,3.63c.17.34.36.66.54.95l.2.32-.36-.08a3.32,3.32,0,0,0-1.87.17C314.65,180.79,314.42,181,314.39,180.94Z" fill="#eb996e"/>
      <path id="Trazado_128193" data-name="Trazado 128193" d="M305.17,170.12c.09,0,.23.64-.14,1.35s-1,1-1,.92a10.392,10.392,0,0,0,.71-1.07C305.05,170.69,305.08,170.12,305.17,170.12Z" fill="#eb996e"/>
      <path id="Trazado_128194" data-name="Trazado 128194" d="M356.61,221.19l19.73-13.66s-1.73,52.9-1.73,53.39c0,0-3.61,1.43-3,5.21l1,5.33c21.73,5,43.26,8.23,65.17.16l2.49-42.14L448,178l-17.63-7.5-3-7-18.26,19.67-4.67-12.7.13-4.79-4.42,4.8L378.75,174l-26.66,21.61-8.74-7.07-13.19,18.32,15,15.14A17.5,17.5,0,0,0,356.61,221.19Z" fill="#f5ca56"/>
      <path id="Trazado_128195" data-name="Trazado 128195" d="M406.43,180.84a3,3,0,0,0-1.28,1.43,5.629,5.629,0,0,0-.39,2.18,8.13,8.13,0,0,1-.42,3l-.22.52-.22-.52a29,29,0,0,1-1.4-4.58c-.75-3.24-1.23-6.21-1.56-8.36a21.282,21.282,0,0,1-.37-3.5,27.653,27.653,0,0,1,.74,3.44c.41,2.13.95,5.08,1.7,8.3a31.433,31.433,0,0,0,1.33,4.51h-.44a8.451,8.451,0,0,0,.46-2.79,5.509,5.509,0,0,1,.53-2.28,2.48,2.48,0,0,1,1-1.14C406.23,180.83,406.42,180.82,406.43,180.84Z" fill="#263238"/>
      <path id="Trazado_128196" data-name="Trazado 128196" d="M429.38,172.93a4,4,0,0,1-.6.87c-.42.54-1,1.31-1.8,2.25-1.54,1.88-3.68,4.45-6.08,7.27l-3.82,4.46-.29.34-.11-.44c-.55-2.17-1-4-1.28-5.3-.12-.64-.48-1-.83-1a.76.76,0,0,0-.48.14s.07-.26.48-.29a.92.92,0,0,1,.66.27,2,2,0,0,1,.44.83c.37,1.28.88,3.09,1.46,5.26l-.4-.1L420.5,183c2.4-2.82,4.59-5.35,6.2-7.17.8-.91,1.46-1.64,1.92-2.14a4.42,4.42,0,0,1,.76-.76Z" fill="#263238"/>
      <path id="Trazado_128197" data-name="Trazado 128197" d="M403,255.74a2.833,2.833,0,0,1-.05-.68v-9c.07-6,.35-14.23,1-23.32s1.63-17.31,2.45-23.23c.41-3,.77-5.35,1.05-7l.32-1.89q.058-.334.15-.66a2.611,2.611,0,0,1,0,.67c-.06.49-.14,1.13-.23,1.91-.22,1.72-.52,4.1-.89,7-.72,5.93-1.61,14.13-2.29,23.22s-1,17.32-1.19,23.29c-.07,2.94-.12,5.34-.16,7.07q0,1.19-.06,1.92A5.332,5.332,0,0,1,403,255.74Z" fill="#263238"/>
      <path id="Trazado_128198" data-name="Trazado 128198" d="M398,267.88a11.63,11.63,0,0,1-.46-4.44A16.14,16.14,0,0,1,398,259a23.348,23.348,0,0,1,0,4.45C397.94,265.89,398.1,267.86,398,267.88Z" fill="#263238"/>
      <path id="Trazado_128199" data-name="Trazado 128199" d="M423.36,253.33a9.654,9.654,0,0,1-1.59.6c-1,.36-2.56.84-4.44,1.39a146.364,146.364,0,0,1-14.94,3.47,149.51,149.51,0,0,1-15.21,1.89c-2,.13-3.55.21-4.65.23a10.194,10.194,0,0,1-1.7,0,10.311,10.311,0,0,1,1.69-.19l4.63-.39c3.89-.36,9.27-1,15.15-2S413.45,256,417.23,255l4.48-1.22a12.443,12.443,0,0,1,1.65-.45Z" fill="#263238"/>
      <path id="Trazado_128200" data-name="Trazado 128200" d="M376.28,219.65c-.14,0-.23-7.36-.2-16.43s.18-16.43.32-16.43.23,7.36.2,16.43S376.43,219.65,376.28,219.65Z" fill="#263238"/>
      <g id="Grupo_55748" data-name="Grupo 55748" opacity="0.3">
        <path id="Trazado_128201" data-name="Trazado 128201" d="M410.81,184.94a2.4,2.4,0,0,1,2.4,1.76c.2,1.07.05,2.2.33,3.26s1.25,2.09,2.32,1.87a2.84,2.84,0,0,0,1.53-1.21,37.16,37.16,0,0,0,5-9.29c0,.08-5.54,6.36-5.54,6.36a18,18,0,0,0-1.24-4.62c-.18-.48-.4-1.3-.86-1.51-.75-.35-1.75.75-2.25,1.42a12.429,12.429,0,0,1-1.73,1.86"/>
      </g>
      <g id="Grupo_55749" data-name="Grupo 55749" opacity="0.3">
        <path id="Trazado_128202" data-name="Trazado 128202" d="M401.78,179.23a32.171,32.171,0,0,0,2,10.29,2.2,2.2,0,0,0,.54.89.83.83,0,0,0,1,.15,11.828,11.828,0,0,0,1-2.13c.51-1.43,2.59-1.56,2.59-1.56a37.182,37.182,0,0,0-1.36-4.76,1.31,1.31,0,0,0-1.29-.83,2.13,2.13,0,0,0-1.42,1.63c-.31,2.56-.27,3.74-.65,4.64-1-2.74-1.76-6-2.4-8.41"/>
      </g>
      <g id="Grupo_55750" data-name="Grupo 55750" opacity="0.3">
        <path id="Trazado_128203" data-name="Trazado 128203" d="M417.12,255a2.19,2.19,0,0,0,.48-3.09,3.34,3.34,0,0,0-3.13-1.18,7,7,0,0,0-3.16,1.42c-.95.69-1.82,1.47-2.82,2.08-2.45,1.51-5.43,1.85-8.31,1.9a50.438,50.438,0,0,0-8.61.38c-2.82.55-5.64,2-7,4.54C384.56,261,409.15,259.25,417.12,255Z"/>
      </g>
      <path id="Trazado_128204" data-name="Trazado 128204" d="M448,178s7.44,5.3,9.24,10.1,8.45,37.77,9.53,43.4c1.37,7.08,1.41,15.84-8.78,19.17-3.79,1.23-27-.66-27-.66l.76-16.49,12.53.47s-.75-1.11,1.05-2.45l-4-21.45s1.47-22.78,1.65-23.32S448,178,448,178Z" fill="#f5ca56"/>
      <path id="Trazado_128205" data-name="Trazado 128205" d="M448.4,178.57a17,17,0,0,0-9.54,10,5.61,5.61,0,0,1,.54-2,13.84,13.84,0,0,1,7-7.31,5.92,5.92,0,0,1,2-.69Z" fill="#263238"/>
      <path id="Trazado_128206" data-name="Trazado 128206" d="M452.46,237.33c-.08,0-.25-.55-.75-1.32a8.539,8.539,0,0,0-2.55-2.49,8.37,8.37,0,0,0-3.31-1.31c-.91-.13-1.49,0-1.51-.11a2.57,2.57,0,0,1,1.55-.25,7.37,7.37,0,0,1,3.56,1.23,7.53,7.53,0,0,1,2.58,2.74,2.72,2.72,0,0,1,.43,1.51Z" fill="#263238"/>
      <path id="Trazado_128207" data-name="Trazado 128207" d="M439,197.06a7.656,7.656,0,0,1,.34,1.32c.21,1,.46,2.19.77,3.65.62,3.09,1.44,7.36,2.31,12.08s1.64,9,2.17,12.11c.24,1.48.44,2.71.59,3.68a6.512,6.512,0,0,1,.15,1.36,8.114,8.114,0,0,1-.35-1.32c-.2-1-.45-2.19-.76-3.65-.62-3.09-1.44-7.36-2.31-12.08s-1.64-9-2.17-12.11c-.24-1.48-.44-2.71-.59-3.68A6.505,6.505,0,0,1,439,197.06Z" fill="#263238"/>
      <path id="Trazado_128208" data-name="Trazado 128208" d="M431,250a7,7,0,0,1,0-1.28c0-.91,0-2.08.08-3.49.09-3,.24-7.09.45-11.74v-.25h.26l2.06.08,10.46.45h.07l.05.05a11.14,11.14,0,0,1,3.43,4.82,10.684,10.684,0,0,1,.43,1.6,1.82,1.82,0,0,1,.05.58c-.06,0-.18-.79-.71-2.09a11.37,11.37,0,0,0-3.47-4.58l.13.05-10.46-.36-2.06-.09.26-.24c-.21,4.64-.43,8.77-.61,11.72-.1,1.41-.18,2.58-.24,3.49A5.812,5.812,0,0,1,431,250Z" fill="#263238"/>
      <path id="Trazado_128209" data-name="Trazado 128209" d="M412.69,230.06,403,210.28a3.92,3.92,0,0,0-3.52-2.19H375.07a1.19,1.19,0,0,0-1.05,1.76l16.5,30.82a2.68,2.68,0,0,0,2.35,1.4h25.29Z" fill="#455a64"/>
      <path id="Trazado_128210" data-name="Trazado 128210" d="M374.18,210h7.02l16.93-.14a4.79,4.79,0,0,1,2.25.54,4.22,4.22,0,0,1,1.5,1.66c.71,1.35,1.3,2.76,1.92,4l3.24,6.9,2.21,4.63c.25.51.46.92.63,1.25a1.922,1.922,0,0,0,.24.42,1.749,1.749,0,0,0-.16-.46c-.14-.34-.33-.76-.55-1.28-.51-1.17-1.22-2.76-2.08-4.7s-2-4.34-3.15-6.93c-.61-1.31-1.18-2.68-1.91-4.09a4.62,4.62,0,0,0-1.66-1.83,5.18,5.18,0,0,0-2.46-.61c-6.64,0-12.61.19-17,.28l-5.13.14-1.4.06a1.579,1.579,0,0,0-.44.16Z" fill="#263238"/>
      <path id="Trazado_128211" data-name="Trazado 128211" d="M389.21,214.33a.8.8,0,0,0-.37,1.22,1.16,1.16,0,0,0,1.29.49.89.89,0,0,0,.67-.65,1.11,1.11,0,0,0-.74-1.12,1.77,1.77,0,0,0-.85.06Z" fill="#fff"/>
      <path id="Trazado_128212" data-name="Trazado 128212" d="M431.49,234.19l-6.06-.59s-2.75-3.12-3.83-4.06-7.26-4-7.26-4-3.21-3.41-3.63-3.36a1.458,1.458,0,0,0-1.17,2.15,26.166,26.166,0,0,0,2.12,4.84l-12.21,1.74a2.61,2.61,0,0,0-1.88,1.19c-.27.45-.35.92.26,1.13a58.591,58.591,0,0,0,6.7,1.14l-2.4-.32s-.23,2.28,1.37,3.16a7.531,7.531,0,0,1,1.71,1.06,7.1,7.1,0,0,0,1.06,2.86c.74.77,8.06,3.49,8.06,3.49s4.57.78,6.78.4l9.9,1.51Z" fill="#ffbe9d"/>
      <path id="Trazado_128213" data-name="Trazado 128213" d="M410.48,229.39a25.342,25.342,0,0,0,3.49,0,13.13,13.13,0,0,0,3.48-.25,15,15,0,0,0-3.49-.19,9.8,9.8,0,0,0-3.48.44Z" fill="#eb996e"/>
      <path id="Trazado_128214" data-name="Trazado 128214" d="M412.77,234.62a18.609,18.609,0,0,0-5.13-.46h-3.63a6.869,6.869,0,0,0-1.5.06,4,4,0,0,0,1.49.24c.94.07,2.22.1,3.64.11C410.47,234.58,412.75,234.73,412.77,234.62Z" fill="#eb996e"/>
      <path id="Trazado_128215" data-name="Trazado 128215" d="M413.25,238.63c0-.13-1.8,0-4-.09s-4-.44-4-.31a11.06,11.06,0,0,0,4,.75,10.719,10.719,0,0,0,4-.35Z" fill="#eb996e"/>
      <path id="Trazado_128216" data-name="Trazado 128216" d="M413.05,243.2c.12,0,.24-.49.27-1.12s-.05-1.13-.17-1.14-.24.5-.27,1.12S412.93,243.2,413.05,243.2Z" fill="#eb996e"/>
      <path id="Trazado_128217" data-name="Trazado 128217" d="M413.5,237.7c.12,0,.14-.43.3-.88s.39-.77.31-.87-.53.16-.72.73S413.39,237.73,413.5,237.7Z" fill="#eb996e"/>
      <path id="Trazado_128218" data-name="Trazado 128218" d="M414.25,232.15c.13,0,.22-.27.33-.58s.21-.58.12-.66-.39.12-.53.51S414.13,232.16,414.25,232.15Z" fill="#eb996e"/>
    </g>
  </g>
</svg>
