<svg xmlns="http://www.w3.org/2000/svg" width="352" height="277.748" viewBox="0 0 352 277.748">
  <g id="Price-pana" transform="translate(3.254 -51.775)">
    <g id="freepik--background-complete--inject-2" transform="translate(-3.254 51.775)">
      <path id="Trazado_118898" data-name="Trazado 118898" d="M86.039,137.775a27.65,27.65,0,1,1-31.324-23.292,27.65,27.65,0,0,1,31.324,23.292Z" transform="translate(-31.039 -73.93)" fill="#f5f5f5"/>
      <path id="Trazado_118899" data-name="Trazado 118899" d="M81.728,140.883a21.038,21.038,0,1,1-8.254-13.838A21.038,21.038,0,0,1,81.728,140.883Z" transform="translate(-33.235 -76.092)" fill="#ebebeb"/>
      <path id="Trazado_118900" data-name="Trazado 118900" d="M81.482,140.007a12.7,12.7,0,0,1-.917-2.427,22.435,22.435,0,0,0-3.336-6.011,21.211,21.211,0,0,0-3.314-3.389,20.955,20.955,0,0,0-4.606-2.848,20.512,20.512,0,0,0-5.725-1.645,19.859,19.859,0,0,0-3.148-.188,20.693,20.693,0,0,0-6.387,1.135,20.212,20.212,0,0,0-5.477,2.878,19.675,19.675,0,0,0-2.254,1.9,21.143,21.143,0,0,0-3.344,4.253,21.437,21.437,0,0,0-1.939,4.328,22.255,22.255,0,0,0-1.052,6.815,16.586,16.586,0,0,1,0,2.592,5.98,5.98,0,0,1-.609-2.555,19.663,19.663,0,0,1,.586-7.175,21.181,21.181,0,0,1,1.871-4.658,21.684,21.684,0,0,1,3.456-4.651,21.04,21.04,0,0,1,2.352-2.081,20.716,20.716,0,0,1,2.765-1.781,21.219,21.219,0,0,1,3.118-1.383,21.722,21.722,0,0,1,6.882-1.217,22.144,22.144,0,0,1,3.4.218,20.888,20.888,0,0,1,3.2.751,20.106,20.106,0,0,1,2.93,1.142,21.571,21.571,0,0,1,4.839,3.171,21.241,21.241,0,0,1,3.366,3.757,19.536,19.536,0,0,1,3.005,6.529A5.79,5.79,0,0,1,81.482,140.007Z" transform="translate(-33.086 -75.847)" fill="#e0e0e0"/>
      <path id="Trazado_118901" data-name="Trazado 118901" d="M68.886,158.126l.579,3.622-3.231.518-.564-3.524a15.581,15.581,0,0,1-8.475-1.3l1.15-4.23a13.269,13.269,0,0,0,6.642,1.292L64.1,149.11c-3.757-.293-7.934-.849-8.678-5.477-.548-3.434,1.5-6.762,6.492-8.175l-.556-3.629,3.238-.518.564,3.524a14.817,14.817,0,0,1,6.89.924L71.065,140a13.457,13.457,0,0,0-5.26-.887l.924,5.492c3.757.263,7.867.834,8.6,5.395C75.858,153.37,73.867,156.676,68.886,158.126Zm-5.538-13.81-.751-4.591c-1.653.661-2.186,1.706-2.014,2.78S61.846,144.091,63.348,144.316Zm6.815,6.913c-.188-1.135-1.217-1.6-2.69-1.863l.714,4.463c1.578-.609,2.156-1.563,1.991-2.6Z" transform="translate(-37.08 -78.188)" fill="#e0e0e0"/>
      <path id="Trazado_118902" data-name="Trazado 118902" d="M354.275,58.706a28.033,28.033,0,1,1-31.767-23.645,28.033,28.033,0,0,1,31.767,23.645Z" transform="translate(-2.58 110.818)" fill="#f5f5f5"/>
      <path id="Trazado_118903" data-name="Trazado 118903" d="M349.877,61.867a21.361,21.361,0,1,1-24.2-18.033A21.361,21.361,0,0,1,349.877,61.867Z" transform="translate(-4.786 108.619)" fill="#ebebeb"/>
      <path id="Trazado_118904" data-name="Trazado 118904" d="M349.654,60.92a13.633,13.633,0,0,1-.932-2.464A22.015,22.015,0,0,0,341.96,48.9a21.271,21.271,0,0,0-4.673-2.885,19.414,19.414,0,0,0-2.78-1.029,20.6,20.6,0,0,0-3.005-.646,21.264,21.264,0,0,0-3.193-.188,23.466,23.466,0,0,0-3.283.323,23.023,23.023,0,0,0-3.186.826,21.04,21.04,0,0,0-2.938,1.277,19.3,19.3,0,0,0-2.622,1.645,20.1,20.1,0,0,0-2.254,1.923,21.234,21.234,0,0,0-3.389,4.32,21.579,21.579,0,0,0-1.969,4.38,22.466,22.466,0,0,0-1.067,6.913,17.114,17.114,0,0,1,0,2.63,6.087,6.087,0,0,1-.616-2.6,19.737,19.737,0,0,1,.594-7.273,21.443,21.443,0,0,1,1.9-4.726,21.867,21.867,0,0,1,18.837-11.24,22.542,22.542,0,0,1,3.441.225,21.581,21.581,0,0,1,3.253.751,20.286,20.286,0,0,1,2.968,1.157,21.361,21.361,0,0,1,8.318,7,19.535,19.535,0,0,1,3.058,6.619A6.373,6.373,0,0,1,349.654,60.92Z" transform="translate(-4.661 108.882)" fill="#e0e0e0"/>
      <path id="Trazado_118905" data-name="Trazado 118905" d="M336.891,79.337l.586,3.674-3.276.526-.579-3.576a15.7,15.7,0,0,1-8.588-1.322l1.165-4.29a13.457,13.457,0,0,0,6.762,1.315l-.9-5.485c-3.757-.3-8.047-.864-8.8-5.553-.556-3.479,1.5-6.867,6.582-8.265l-.586-3.644,3.283-.526.571,3.576a14.975,14.975,0,0,1,6.98.939L339.1,61a13.562,13.562,0,0,0-5.3-.9l.894,5.575c3.757.27,7.979.842,8.716,5.47C343.961,74.535,341.94,77.887,336.891,79.337Zm-5.583-13.975-.751-4.658c-1.676.669-2.209,1.728-2.036,2.818S329.805,65.128,331.308,65.361Zm6.913,7c-.188-1.15-1.24-1.623-2.727-1.886l.751,4.508c1.533-.609,2.119-1.578,1.954-2.652Z" transform="translate(-8.713 106.485)" fill="#e0e0e0"/>
      <path id="Trazado_118906" data-name="Trazado 118906" d="M456.826,180.238a21.316,21.316,0,1,1-8.354-14.031A21.346,21.346,0,0,1,456.826,180.238Z" transform="translate(-148.011 -85.813)" fill="#f5f5f5"/>
      <path id="Trazado_118907" data-name="Trazado 118907" d="M453.481,182.655a16.267,16.267,0,1,1-18.431-13.712,16.267,16.267,0,0,1,18.431,13.712Z" transform="translate(-149.693 -87.502)" fill="#ebebeb"/>
      <path id="Trazado_118908" data-name="Trazado 118908" d="M453.3,181.952a11.029,11.029,0,0,1-.706-1.878,17.28,17.28,0,0,0-2.57-4.658,16.658,16.658,0,0,0-2.555-2.615,16.334,16.334,0,0,0-3.554-2.2,16.911,16.911,0,0,0-6.86-1.383,17.617,17.617,0,0,0-2.495.24,18.35,18.35,0,0,0-2.434.631,15.778,15.778,0,0,0-5.943,3.689,16.194,16.194,0,0,0-2.585,3.291,16.462,16.462,0,0,0-1.5,3.328,17.282,17.282,0,0,0-.811,5.26,8.723,8.723,0,0,1,0,2,4.952,4.952,0,0,1-.466-1.976,15.027,15.027,0,0,1,.451-5.53,16.049,16.049,0,0,1,1.45-3.6,16.328,16.328,0,0,1,2.66-3.584,15.613,15.613,0,0,1,1.818-1.608,15.223,15.223,0,0,1,2.134-1.375,16.109,16.109,0,0,1,2.4-1.067,17.676,17.676,0,0,1,2.622-.691,18.294,18.294,0,0,1,2.7-.255,16.515,16.515,0,0,1,7.356,1.615,16.222,16.222,0,0,1,6.334,5.327,14.9,14.9,0,0,1,2.329,5.042A4.673,4.673,0,0,1,453.3,181.952Z" transform="translate(-149.598 -87.302)" fill="#e0e0e0"/>
      <path id="Trazado_118909" data-name="Trazado 118909" d="M443.546,195.945l.451,2.8-2.495.4-.436-2.72a12.022,12.022,0,0,1-6.544-1l.887-3.268a10.188,10.188,0,0,0,5.132.992l-.669-4.17c-2.878-.225-6.124-.654-6.695-4.23-.428-2.645,1.135-5.26,5-6.311l-.443-2.773,2.5-.4.436,2.72a11.533,11.533,0,0,1,5.312.751l-.751,3.276a10.519,10.519,0,0,0-4.027-.691l.684,4.245c2.87.21,6.071.646,6.634,4.17C448.963,192.286,447.423,194.84,443.546,195.945Zm-4.26-10.639-.571-3.546c-1.277.511-1.683,1.315-1.548,2.141s.992,1.232,2.149,1.405Zm5.26,5.327c-.143-.872-.939-1.232-2.074-1.435l.548,3.449c1.277-.473,1.683-1.21,1.555-2.014Z" transform="translate(-152.673 -89.115)" fill="#e0e0e0"/>
      <path id="Trazado_118910" data-name="Trazado 118910" d="M189.5,379.872A24.352,24.352,0,1,1,171.08,350.8a24.352,24.352,0,0,1,18.416,29.07Z" transform="translate(-42.435 -132.613)" fill="#f5f5f5"/>
      <path id="Trazado_118911" data-name="Trazado 118911" d="M185.763,380.521a18.559,18.559,0,1,1-14.035-22.143,18.559,18.559,0,0,1,14.035,22.143Z" transform="translate(-44.656 -134.532)" fill="#ebebeb"/>
      <path id="Trazado_118912" data-name="Trazado 118912" d="M185.985,379.719a11.5,11.5,0,0,1,0-2.254,19.649,19.649,0,0,0-.842-6.011,19.038,19.038,0,0,0-1.653-3.832,18.25,18.25,0,0,0-2.893-3.757,16.38,16.38,0,0,0-1.939-1.706,16.786,16.786,0,0,0-2.254-1.458,17.2,17.2,0,0,0-2.532-1.142,18.207,18.207,0,0,0-8.385-.962,18.617,18.617,0,0,0-2.637.518,17.455,17.455,0,0,0-2.427.864,18.536,18.536,0,0,0-4.095,2.449,19.161,19.161,0,0,0-2.953,2.938,19.76,19.76,0,0,0-3.005,5.26,11.579,11.579,0,0,1-.834,2.126,5.478,5.478,0,0,1,.308-2.3,17.11,17.11,0,0,1,2.735-5.718,18.724,18.724,0,0,1,3.005-3.238,19.022,19.022,0,0,1,4.3-2.735,17.831,17.831,0,0,1,2.615-1.014,18.98,18.98,0,0,1,14.6,1.668,17.483,17.483,0,0,1,2.412,1.608,18.116,18.116,0,0,1,2.051,1.863,18.994,18.994,0,0,1,3.005,4.132,18.74,18.74,0,0,1,1.585,4.125,17.229,17.229,0,0,1,.428,6.326A5.547,5.547,0,0,1,185.985,379.719Z" transform="translate(-44.808 -134.301)" fill="#e0e0e0"/>
      <path id="Trazado_118913" data-name="Trazado 118913" d="M170.18,389.616l-.661,3.163-2.825-.594.646-3.081a13.506,13.506,0,0,1-6.559-3.757l2.254-3.118a11.758,11.758,0,0,0,5.064,3.156l.984-4.719c-3.005-1.42-6.251-3.2-5.4-7.243.624-3.005,3.344-5.109,7.912-4.681l.654-3.133,2.825.594-.646,3.081a13.164,13.164,0,0,1,5.372,2.923l-2.141,3.178a11.857,11.857,0,0,0-4.012-2.374l-1.007,4.8c3.005,1.4,6.206,3.163,5.372,7.145C177.408,387.918,174.733,390.007,170.18,389.616Zm-.218-13.081.841-4.012c-1.57,0-2.337.751-2.532,1.653S168.82,375.881,169.962,376.535Zm3.426,7.829c.2-.992-.5-1.7-1.623-2.374l-.819,3.9c1.5-.015,2.277-.624,2.464-1.525Z" transform="translate(-47.963 -136.444)" fill="#e0e0e0"/>
      <path id="Trazado_118914" data-name="Trazado 118914" d="M304.876,354.265,285.341,342.1a6.477,6.477,0,0,0-5.207-.751l-48.425,13.885a6.477,6.477,0,0,0-4.418,8.077L237.449,397.5a6.477,6.477,0,0,0,8.07,4.358l48.087-14.389a6.506,6.506,0,0,0,4.05-3.546l9.7-21.519a6.484,6.484,0,0,0-2.479-8.137Zm-6.417,8.34a5.342,5.342,0,1,1-4.786-5.846,5.342,5.342,0,0,1,4.786,5.846Z" transform="translate(-51.668 -142.452)" fill="#ebebeb"/>
      <path id="Trazado_118915" data-name="Trazado 118915" d="M253.17,375.237c-1.18-4.163.6-7.514,4.2-8.551s6.837.879,8.032,5.072-.571,7.514-4.163,8.535S254.357,379.392,253.17,375.237Zm8.708-2.479c-.751-2.645-2.134-3.622-3.689-3.178s-2.232,2.036-1.48,4.643,2.171,3.614,3.682,3.178S262.63,375.425,261.878,372.758Zm10.264-9.971,4.193-1.187-9.82,29.461-4.193,1.187Zm1.1,19.3c-1.18-4.155.6-7.514,4.163-8.535s6.882.9,8.07,5.057-.6,7.514-4.2,8.551S274.441,386.252,273.239,382.09Zm8.671-2.464c-.751-2.607-2.134-3.622-3.689-3.178s-2.209,2-1.458,4.643,2.171,3.607,3.689,3.178,2.216-2.036,1.473-4.643Z" transform="translate(-56.351 -147.547)" fill="#fff"/>
      <path id="Trazado_118916" data-name="Trazado 118916" d="M328.126,372.123a2.749,2.749,0,0,1,.586.2c.368.158.917.383,1.615.7s1.548.706,2.525,1.195,2.066,1.067,3.238,1.788a26.549,26.549,0,0,1,3.637,2.652l.458.406.451.436a11.566,11.566,0,0,1,.879.932,7.274,7.274,0,0,1,1.39,2.352,4.237,4.237,0,0,1,.2,1.45,3.817,3.817,0,0,1-.361,1.458,4.892,4.892,0,0,1-2.089,2.186,7.274,7.274,0,0,1-3.005.8,13.4,13.4,0,0,1-3.141-.21,18.4,18.4,0,0,1-5.778-2.126,23.785,23.785,0,0,1-2.479-1.593c-.751-.556-1.5-1.127-2.209-1.691a42.62,42.62,0,0,1-6.875-6.762c-.421-.541-.8-1.074-1.15-1.585-.173-.255-.338-.511-.488-.751a4.365,4.365,0,0,1-.4-.751,2.066,2.066,0,0,1-.075-1.578,2.254,2.254,0,0,1,.826-1.037,3.006,3.006,0,0,1,.5-.278,3.329,3.329,0,0,1,.466-.15,2.3,2.3,0,0,1,.751-.053,1.345,1.345,0,0,1,.451.12l.143.083h-.158a1.842,1.842,0,0,0-.443-.06,2.4,2.4,0,0,0-.706.105,2.772,2.772,0,0,0-.428.165,2.821,2.821,0,0,0-.436.278,2.006,2.006,0,0,0-.7.939,1.788,1.788,0,0,0,.105,1.352,5.673,5.673,0,0,0,.4.751c.15.248.323.488.5.751.353.5.751,1.014,1.172,1.54a44.254,44.254,0,0,0,6.882,6.582q1.059.834,2.209,1.668a24.317,24.317,0,0,0,2.4,1.54,18.252,18.252,0,0,0,5.59,2.051,13.142,13.142,0,0,0,3.005.2,6.642,6.642,0,0,0,2.75-.751,4.351,4.351,0,0,0,1.863-1.908,3.4,3.4,0,0,0,.143-2.5,6.867,6.867,0,0,0-1.262-2.179c-.27-.316-.548-.624-.841-.909l-.436-.428-.443-.406a27.587,27.587,0,0,0-3.531-2.667c-1.142-.751-2.254-1.337-3.171-1.848s-1.788-.932-2.464-1.277l-1.57-.8A2.18,2.18,0,0,1,328.126,372.123Z" transform="translate(-78.236 -149.662)" fill="#e0e0e0"/>
      <path id="Trazado_118917" data-name="Trazado 118917" d="M201.288,51.386l-4.809-12.841a3.847,3.847,0,0,0-2.194-2.254L166.432,25.359a3.847,3.847,0,0,0-5.027,2.2l-7.589,19.8a3.854,3.854,0,0,0,2.254,4.982l27.875,10.632a3.862,3.862,0,0,0,3.193-.21l12.36-6.635a3.847,3.847,0,0,0,1.788-4.741Zm-6.071,1.608a3.178,3.178,0,1,1,.867-2.284A3.178,3.178,0,0,1,195.217,52.994Z" transform="translate(136.912 -3.894)" fill="#ebebeb"/>
      <path id="Trazado_118918" data-name="Trazado 118918" d="M172.376,41.074c.947-2.389,3.005-3.329,5.072-2.51s2.908,2.885,1.954,5.26-3.005,3.336-5.057,2.517S171.392,43.493,172.376,41.074Zm5,1.984c.6-1.5.308-2.479-.586-2.833s-1.773.158-2.367,1.661-.286,2.487.586,2.833,1.736-.113,2.337-1.63Zm8.453-.984,2.412.954L172.9,53.4l-2.412-.962Zm-6.5,9.52c.954-2.389,3.005-3.329,5.057-2.517s2.923,2.915,1.969,5.3-3.005,3.329-5.072,2.51S178.387,54,179.326,51.593Zm4.982,1.976c.594-1.5.308-2.479-.586-2.833s-1.766.143-2.367,1.661-.286,2.487.586,2.833,1.773-.143,2.367-1.645Z" transform="translate(132.704 -7.174)" fill="#fff"/>
      <path id="Trazado_118919" data-name="Trazado 118919" d="M210.625,65.741a1.547,1.547,0,0,1,.2.308c.12.21.3.511.511.917s.481.887.751,1.5.594,1.255.879,2.014a15.775,15.775,0,0,1,.751,2.57l.068.361a3.338,3.338,0,0,0,.053.368,6.178,6.178,0,0,1,.075.751,4.26,4.26,0,0,1-.2,1.608,2.533,2.533,0,0,1-.428.751,2.2,2.2,0,0,1-.7.556,2.825,2.825,0,0,1-1.773.27,4.147,4.147,0,0,1-1.706-.7,8.145,8.145,0,0,1-1.352-1.255,10.79,10.79,0,0,1-1.954-3.1,14.275,14.275,0,0,1-.586-1.638q-.233-.811-.428-1.6a25.546,25.546,0,0,1-.8-5.673c0-.406,0-.8,0-1.165a1.79,1.79,0,0,1,.053-.533,2.789,2.789,0,0,1,.09-.511,1.24,1.24,0,0,1,.533-.751,1.36,1.36,0,0,1,.751-.188,2.028,2.028,0,0,1,.331.053,1.337,1.337,0,0,1,.278.1,1.255,1.255,0,0,1,.376.248.751.751,0,0,1,.173.225c0,.053.038.083,0,.083s0,0-.06-.068a1.434,1.434,0,0,0-.188-.188,1.24,1.24,0,0,0-.376-.2,1.27,1.27,0,0,0-.255-.075,1.383,1.383,0,0,0-.308,0,1.18,1.18,0,0,0-.639.12,1.082,1.082,0,0,0-.443.684,3.007,3.007,0,0,0-.068.481,2.586,2.586,0,0,1-.038.526v1.15a26.216,26.216,0,0,0,.857,5.59c.135.518.278,1.052.443,1.585a13.671,13.671,0,0,0,.579,1.6,10.775,10.775,0,0,0,1.886,3.005,7.979,7.979,0,0,0,1.352,1.157,4.012,4.012,0,0,0,1.563.654,2.57,2.57,0,0,0,1.563-.233,1.976,1.976,0,0,0,.977-1.127,3.96,3.96,0,0,0,.2-1.5,5.957,5.957,0,0,0-.068-.751.86.86,0,0,0-.053-.361l-.06-.346a15.7,15.7,0,0,0-.7-2.54c-.27-.751-.564-1.435-.826-2.021s-.5-1.089-.7-1.5L210.76,66a1.277,1.277,0,0,1-.135-.263Z" transform="translate(-62.838 -60.608)" fill="#e0e0e0"/>
    </g>
    <g id="freepik--Device--inject-2" transform="translate(41.169 66.428)">
      <path id="Trazado_118920" data-name="Trazado 118920" d="M94.53,249.5l.083-160.415a9.016,9.016,0,0,1,9.016-8.971l238.023.12a9.016,9.016,0,0,1,8.971,9.016l-.083,160.415a8.971,8.971,0,0,1-9.016,8.971l-238.016-.12A9.016,9.016,0,0,1,94.53,249.5Z" transform="translate(-94.53 -80.11)" fill="#455a64"/>
      <rect id="Rectángulo_29573" data-name="Rectángulo 29573" width="167.125" height="213.777" transform="translate(238.375 5.41) rotate(90.03)" fill="#fff"/>
      <path id="Trazado_118921" data-name="Trazado 118921" d="M109.437,203.39a6.845,6.845,0,1,1,4.845-2,6.845,6.845,0,0,1-4.845,2Z" transform="translate(-96.537 -107.358)" fill="#263238"/>
      <rect id="Rectángulo_29574" data-name="Rectángulo 29574" width="53.722" height="2.825" rx="1.22" transform="translate(248.669 62.444) rotate(90.03)" fill="#263238"/>
      <path id="Trazado_118922" data-name="Trazado 118922" d="M145.357,93.79H327.509a9.467,9.467,0,0,1,9.467,9.467V223.542H135.89V103.257A9.467,9.467,0,0,1,145.357,93.79Z" transform="translate(-104.814 -83.511)" fill="#e0e0e0"/>
      <path id="Trazado_118923" data-name="Trazado 118923" d="M325.791,277.705c0,2.382-38.733,4.305-86.512,4.305s-86.519-1.923-86.519-4.305,38.733-4.305,86.519-4.305S325.791,275.354,325.791,277.705Z" transform="translate(-109.008 -128.17)" fill="#ebebeb"/>
      <path id="Trazado_118924" data-name="Trazado 118924" d="M377.663,111.443a.135.135,0,0,0-.1-.045l-7.348-.045H367.43l-.06-.421-.113-.826a.12.12,0,0,0-.12-.105h-2.044c-.158,0-.263,0-.263.135s.105.128.263.135l1.871.038,1.044,8.055a.128.128,0,0,0,.12.113h8.265c.188,0,.285,0,.285-.128s-.1-.135-.285-.143l-8.047-.105-.2-1.428,8.46.12h0a.12.12,0,0,0,.12-.105l.631-3.366.331-1.811a.105.105,0,0,0-.03-.068Zm-10.2.18,9.82.128-.864,4.711h-8.265Z" transform="translate(-161.737 -87.542)" fill="#263238"/>
      <path id="Trazado_118925" data-name="Trazado 118925" d="M371.553,123.531a.909.909,0,0,0-.338-.556.984.984,0,0,0-.947-.173,1.014,1.014,0,0,0,0,1.908,1.157,1.157,0,0,0,.346.06,1.014,1.014,0,0,0,.609-.21.992.992,0,0,0,.353-.564.753.753,0,0,0,0-.233A.8.8,0,0,0,371.553,123.531Zm-1.187.849a.669.669,0,0,1,0-1.247.879.879,0,0,1,.225-.038.639.639,0,0,1,.406.135.751.751,0,0,1,.263.368v.188a1.029,1.029,0,0,1-.038.143.676.676,0,0,1-.263.368.691.691,0,0,1-.594.083Z" transform="translate(-162.923 -90.712)" fill="#263238"/>
      <path id="Trazado_118926" data-name="Trazado 118926" d="M378.718,123.592a.962.962,0,0,0-.338-.564,1.007,1.007,0,1,0-.969,1.736.946.946,0,0,0,.338.06.984.984,0,0,0,.969-.751,1.13,1.13,0,0,0,0-.233A.75.75,0,0,0,378.718,123.592Zm-1.187.864a.661.661,0,0,1-.421-.624.684.684,0,0,1,.436-.616.616.616,0,0,1,.225,0,.639.639,0,0,1,.406.135.751.751,0,0,1,.263.368v.188a1.4,1.4,0,0,1-.038.143.7.7,0,0,1-.263.368A.669.669,0,0,1,377.531,124.456Z" transform="translate(-164.701 -90.727)" fill="#263238"/>
      <path id="Trazado_118947" data-name="Trazado 118947" d="M303.456,256.865c0,.105-31.707.2-70.816.2s-70.831-.09-70.831-.2,31.707-.2,70.831-.2S303.456,256.753,303.456,256.865Z" transform="translate(-111.258 -124.01)" fill="#e0e0e0"/>
      <rect id="Rectángulo_29576" data-name="Rectángulo 29576" width="167.178" height="24.532" transform="translate(46.87 108.203)" fill="#ff725e"/>
      <g id="Grupo_55148" data-name="Grupo 55148" transform="translate(46.87 108.203)" opacity="0.5">
        <rect id="Rectángulo_29577" data-name="Rectángulo 29577" width="167.178" height="24.532"/>
      </g>
      <path id="Trazado_118948" data-name="Trazado 118948" d="M165.349,250.983A16.124,16.124,0,1,0,181.7,235.1a16.124,16.124,0,0,0-16.35,15.884Z" transform="translate(-112.138 -118.646)" fill="#263238"/>
      <path id="Trazado_118949" data-name="Trazado 118949" d="M165.359,256.19a.335.335,0,0,1,0,.038,16.123,16.123,0,1,0,32.243.466l0-.038Z" transform="translate(-112.141 -123.89)" fill="#263238"/>
      <path id="Trazado_118950" data-name="Trazado 118950" d="M171.74,252.647a11.323,11.323,0,1,0,11.466-11.158,11.323,11.323,0,0,0-11.466,11.158Z" transform="translate(-113.727 -120.235)" fill="#fafafa"/>
      <path id="Trazado_118951" data-name="Trazado 118951" d="M183.2,241.49a11.323,11.323,0,0,0-11.481,11.158l22.638.323A11.323,11.323,0,0,0,183.2,241.49Z" transform="translate(-113.722 -120.235)" fill="#e0e0e0"/>
      <path id="Trazado_118952" data-name="Trazado 118952" d="M177.63,254.182a6.9,6.9,0,1,0,7-6.762A6.9,6.9,0,0,0,177.63,254.182Z" transform="translate(-115.191 -121.71)" fill="#263238"/>
      <path id="Trazado_118953" data-name="Trazado 118953" d="M329.409,250.983A16.124,16.124,0,1,0,345.766,235.1,16.124,16.124,0,0,0,329.409,250.983Z" transform="translate(-152.93 -118.646)" fill="#263238"/>
      <path id="Trazado_118954" data-name="Trazado 118954" d="M329.419,256.19a.335.335,0,0,1,0,.038,16.123,16.123,0,1,0,32.243.466l0-.038Z" transform="translate(-152.932 -123.89)" fill="#263238"/>
      <path id="Trazado_118955" data-name="Trazado 118955" d="M335.81,252.647a11.316,11.316,0,1,0,11.473-11.158,11.316,11.316,0,0,0-11.473,11.158Z" transform="translate(-154.521 -120.235)" fill="#fafafa"/>
      <path id="Trazado_118956" data-name="Trazado 118956" d="M347.283,241.49a11.315,11.315,0,0,0-11.473,11.158l22.631.323a11.323,11.323,0,0,0-11.158-11.481Z" transform="translate(-154.522 -120.235)" fill="#e0e0e0"/>
      <path id="Trazado_118957" data-name="Trazado 118957" d="M341.69,254.182a6.9,6.9,0,1,0,7-6.762A6.9,6.9,0,0,0,341.69,254.182Z" transform="translate(-155.983 -121.71)" fill="#263238"/>
      <path id="Trazado_118958" data-name="Trazado 118958" d="M197.032,199.459s-23.735,1.751-32.534,3.757c-6.206,1.39-18.16,3.757-18.033,11.316l.947,5.395a8.107,8.107,0,0,0-4.433,7.191c0,5.169-1.082,13.186,9.272,13.524,1.706.053,4.944,0,4.944,0s-1.984-22.045,18.266-22.691c20.61-.661,19.242,22.488,19.242,22.488h86.016s-3.531-22.541,18.656-22.586,18.784,22.736,18.784,22.736,8.16.706,11.962-6.154,2.8-11.744,2.8-11.744l-.12-4.328a2.81,2.81,0,0,0-2.7-2.727h0s1.5-10.917-.8-12.773-14.742-13.284-14.742-13.284l.594-.376a1.4,1.4,0,0,0-.285-2.51c-4.734-1.623-14.1-4.846-16.29-5.613a4.072,4.072,0,0,0-1.022-.218c-1.315-.1-5.034-.338-11.856-.406-8.318-.09-41.325,0-41.325,0s-11.353.932-17.687,3.719C220.069,187.024,197.032,199.459,197.032,199.459Z" transform="translate(-106.568 -105.05)" fill="#c1507f"/>
      <g id="Grupo_55149" data-name="Grupo 55149" transform="translate(38.81 121.325)" opacity="0.4">
        <path id="Trazado_118959" data-name="Trazado 118959" d="M149.8,241.694a3.627,3.627,0,0,0-2.84.391,2.72,2.72,0,0,0-.691,1.781,7.8,7.8,0,0,0,.06,2.675,3.276,3.276,0,0,0,1.5,2.126,2.1,2.1,0,0,0,2.479-.293,3.254,3.254,0,0,0,.609-2.314,19.214,19.214,0,0,0-.143-3.291,1.6,1.6,0,0,0-.293-.661.894.894,0,0,0-.691-.413" transform="translate(-146.184 -241.583)"/>
      </g>
      <path id="Trazado_118960" data-name="Trazado 118960" d="M148.6,231c2.525,0,4.966-.143,7.514-.308a1.232,1.232,0,0,0,.751-.233,1.255,1.255,0,0,0,.263-.917c0-1.352-.06-2.885-1.082-3.757a4.02,4.02,0,0,0-2.307-.751,14.824,14.824,0,0,0-6.071.609Z" transform="translate(-107.743 -116.122)" fill="#fafafa"/>
      <path id="Trazado_118961" data-name="Trazado 118961" d="M202.582,250.111a1.437,1.437,0,0,1,0-.21l-.045-.631c0-.564-.075-1.383-.128-2.434s-.128-2.352-.286-3.839a29.589,29.589,0,0,0-.887-5.012,22.541,22.541,0,0,0-2.427-5.658,17.74,17.74,0,0,0-4.689-5.26,27.427,27.427,0,0,0-15.305-4.6,24.862,24.862,0,0,0-15.2,4.786,22.436,22.436,0,0,0-4.929,5.034,24.217,24.217,0,0,0-2.893,5.432,22.339,22.339,0,0,0-1.217,4.936,21.135,21.135,0,0,0-.15,3.832,19.155,19.155,0,0,0,.3,2.412c.045.27.083.481.113.624a.409.409,0,0,1,0,.218l-.045-.21a5.086,5.086,0,0,0-.128-.624,18.109,18.109,0,0,1-.331-2.412,20.472,20.472,0,0,1,.128-3.854,21.789,21.789,0,0,1,1.2-4.959,23.652,23.652,0,0,1,2.885-5.47,22.218,22.218,0,0,1,4.951-5.072,24.863,24.863,0,0,1,15.283-4.824,27.366,27.366,0,0,1,15.388,4.636,17.83,17.83,0,0,1,4.719,5.26,22.444,22.444,0,0,1,2.419,5.688,29.726,29.726,0,0,1,.872,5.027c.143,1.5.2,2.8.255,3.847s.075,1.878.105,2.434v.639A.917.917,0,0,0,202.582,250.111Z" transform="translate(-109.391 -115.467)" fill="#fff"/>
      <path id="Trazado_118962" data-name="Trazado 118962" d="M219.528,241.01a1.627,1.627,0,0,1,0-.18V240.3c0-.473,0-1.172-.06-2.081-.053-1.826-.128-4.508-.225-7.9s-.21-7.514-.338-12.262c0-1.187-.068-2.4-.1-3.659a11.758,11.758,0,0,1,.083-1.916l.135-.969.2-.977a20.114,20.114,0,0,1,3.546-7.514h0l14.892-9.384,4.027-2.532a31.174,31.174,0,0,1,4.253-2.374,41.527,41.527,0,0,1,4.628-1.848c.789-.278,1.6-.5,2.412-.751a24.7,24.7,0,0,1,2.472-.6,56.45,56.45,0,0,1,9.595-1.217q4.756-.21,9.294,0h.09v.09c-1.428,6.379-2.765,12.39-4,17.9h0a20.015,20.015,0,0,0-1.8,3.847,10.519,10.519,0,0,0-.6,3.982c.1,1.322.135,2.615.173,3.869s.045,2.479.068,3.659c.068,4.734.09,8.859.1,12.255s0,6.071,0,7.9v2.615a1.638,1.638,0,0,1,0,.18s0-.06,0-.18V237.8c0-1.826,0-4.508-.045-7.9s-.053-7.514-.135-12.255c0-1.18-.053-2.4-.075-3.652s-.075-2.547-.18-3.87a10.685,10.685,0,0,1,.609-4.027,19.455,19.455,0,0,1,1.8-3.877h0c1.225-5.507,2.562-11.526,3.99-17.9l.068.1a88.746,88.746,0,0,0-9.279,0,56.938,56.938,0,0,0-9.572,1.21c-.834.165-1.645.4-2.464.609s-1.615.466-2.4.751a43.224,43.224,0,0,0-4.606,1.833,30.957,30.957,0,0,0-4.238,2.367l-4.117,2.547-14.9,9.369h0a20.091,20.091,0,0,0-3.531,7.469c-.676,2.585-.338,5.132-.331,7.514.113,4.734.218,8.859.3,12.262s.143,6.079.188,7.9c0,.909.038,1.608.045,2.081v.714Z" transform="translate(-125.428 -105.991)" fill="#263238"/>
      <path id="Trazado_118963" data-name="Trazado 118963" d="M292.58,184.836h.548l1.6-.038,5.936-.12,20-.338h.03l2.8,3.426,8.04,9.843c.3.376.609.751.909,1.112a6.21,6.21,0,0,1,.864,6.289c-.316.751-.616,1.45-.909,2.126l-2.765,6.394-.751,1.736c-.09.2-.15.346-.2.451a1.037,1.037,0,0,1-.075.15l.06-.158.188-.451c.173-.406.413-1,.751-1.751l2.712-6.417c.526-1.367,1.435-2.8,1.375-4.508a6.251,6.251,0,0,0-.594-2.562,6.385,6.385,0,0,0-.751-1.172l-.917-1.12-8.01-9.768-2.8-3.434h.06l-20,.286-5.936.068h-2.149Z" transform="translate(-143.773 -106.026)" fill="#263238"/>
      <path id="Trazado_118964" data-name="Trazado 118964" d="M276.353,219.219h.24a1.721,1.721,0,0,0,.631-.255,1.593,1.593,0,0,0,.646-.842,1.856,1.856,0,0,0,.083-.661,1.684,1.684,0,0,0-.188-.751,1.608,1.608,0,0,0-1.39-.849h-6.687a1.578,1.578,0,0,0-1.563,1.4,1.773,1.773,0,0,0,.188,1.067,1.623,1.623,0,0,0,.751.684,2.367,2.367,0,0,0,1,.12h6.266a.939.939,0,0,1-.248,0h-6.537a1.892,1.892,0,0,1-.533-.12,1.773,1.773,0,0,1-.849-.751,1.938,1.938,0,0,1-.218-1.157,1.751,1.751,0,0,1,1.721-1.54h6.687a1.7,1.7,0,0,1,1.691,1.676,1.877,1.877,0,0,1-.1.691,1.661,1.661,0,0,1-.7.864,1.742,1.742,0,0,1-.661.233A.978.978,0,0,1,276.353,219.219Z" transform="translate(-137.644 -113.788)" fill="#263238"/>
      <path id="Trazado_118965" data-name="Trazado 118965" d="M335.677,219.219h.24a1.72,1.72,0,0,0,.631-.255,1.593,1.593,0,0,0,.646-.842,1.855,1.855,0,0,0,.083-.661,1.683,1.683,0,0,0-.188-.751,1.608,1.608,0,0,0-1.39-.849h-6.687a1.578,1.578,0,0,0-1.059.413,1.548,1.548,0,0,0-.5.984,1.773,1.773,0,0,0,.2,1.067,1.608,1.608,0,0,0,.751.684,2.4,2.4,0,0,0,1.007.12h6.259a.856.856,0,0,1-.24,0h-6.537a1.885,1.885,0,0,1-.541-.12,1.773,1.773,0,0,1-.849-.751,1.931,1.931,0,0,1-.21-1.157,1.736,1.736,0,0,1,.548-1.082A1.705,1.705,0,0,1,329,215.56h6.695a1.7,1.7,0,0,1,1.668,1.691,1.877,1.877,0,0,1-.1.691,1.691,1.691,0,0,1-.691.864,1.744,1.744,0,0,1-.661.233,1.029,1.029,0,0,1-.233.18Z" transform="translate(-152.398 -113.788)" fill="#263238"/>
      <path id="Trazado_118966" data-name="Trazado 118966" d="M386.441,210.75h-8.919a3.284,3.284,0,0,0-2.908,1.758h0a3.329,3.329,0,0,0-.105,2.863l3.5,7.942,8.934-.09S388.838,213.192,386.441,210.75Z" transform="translate(-164.076 -112.592)" fill="#fafafa"/>
      <path id="Trazado_118967" data-name="Trazado 118967" d="M225.62,202.943l46.021-.849,29.957-.548,9.873-5.7a1.5,1.5,0,0,0,.458-2.254l-6.154-8.085a3.4,3.4,0,0,0-2.69-1.345l-33.5-.27s-12.615-.751-22.541,4.831a211.6,211.6,0,0,0-21.421,14.223Z" transform="translate(-127.124 -105.905)" fill="#263238"/>
      <path id="Trazado_118968" data-name="Trazado 118968" d="M244.413,185.41s1.954.751.458,1.721S220.077,202.8,220.077,202.8l-5.117-2.1C224.435,195.411,234.127,190.256,244.413,185.41Z" transform="translate(-124.474 -106.292)" fill="#455a64"/>
      <path id="Trazado_118969" data-name="Trazado 118969" d="M204.226,209.035h-.143l-.428.1-1.63.338c-1.428.278-3.486.676-6.011,1.12-5.109.879-12.21,1.9-20.1,2.585-1.969.173-3.9.308-5.763.436s-3.652.233-5.357.391a46.314,46.314,0,0,0-8.956,1.5,25.5,25.5,0,0,0-5.643,2.352c-.639.338-1.1.669-1.42.872l-.368.233-.128.075.12-.09.353-.248a15.074,15.074,0,0,1,1.413-.894,24.554,24.554,0,0,1,5.643-2.4,45.082,45.082,0,0,1,8.971-1.57c1.706-.165,3.5-.278,5.365-.406s3.757-.263,5.755-.436c7.882-.684,14.982-1.691,20.091-2.54,2.562-.428,4.621-.8,6.011-1.067l1.645-.316.421-.075Z" transform="translate(-107.894 -112.155)" fill="#263238"/>
      <path id="Trazado_118970" data-name="Trazado 118970" d="M390.695,236.455c0,.045-3.066.083-6.852.083s-6.852-.038-6.852-.083,3.066-.075,6.852-.075S390.695,236.41,390.695,236.455Z" transform="translate(-164.761 -118.965)" fill="#263238"/>
      <path id="Trazado_118971" data-name="Trazado 118971" d="M294.948,246.875c0,.045-17.281.075-38.665.075s-38.673,0-38.673-.075,17.281-.075,38.673-.075S294.948,246.83,294.948,246.875Z" transform="translate(-125.133 -121.556)" fill="#263238"/>
      <path id="Trazado_118972" data-name="Trazado 118972" d="M155.572,236.8s-2.449.075-5.462.075-5.47-.038-5.47-.075,2.449-.083,5.47-.083S155.572,236.758,155.572,236.8Z" transform="translate(-106.989 -119.049)" fill="#263238"/>
      <path id="Trazado_118973" data-name="Trazado 118973" d="M370.595,192.08s-2.059,2.3-1.247,3.99,9.152,7.6,9.152,7.6l6.063,1.135Z" transform="translate(-162.813 -107.95)" fill="#455a64"/>
      <path id="Trazado_118974" data-name="Trazado 118974" d="M293.937,186.6l-1.367,14.712,24.389-.691,9.828-5.718-6.364-8.3Z" transform="translate(-143.771 -106.588)" fill="#455a64"/>
      <path id="Trazado_118975" data-name="Trazado 118975" d="M233.31,202.04s14.7-10.624,20.512-12.773a37.086,37.086,0,0,1,13.78-2.7c5.034-.143,8.092,0,8.092,0l-3.885,14.96Z" transform="translate(-129.036 -106.564)" fill="#455a64"/>
      <path id="Trazado_118976" data-name="Trazado 118976" d="M230.44,205.6h0a2.57,2.57,0,0,1,1.315-2.254l3.381-1.9a6.447,6.447,0,0,1,3.156-.826h0a6.446,6.446,0,0,1,2.006.323,3.667,3.667,0,0,1,2.464,3.366h0a3.757,3.757,0,0,1-3.757,3.862h-6.011a2.585,2.585,0,0,1-2.555-2.57Z" transform="translate(-128.323 -110.074)" fill="#12263f"/>
      <path id="Trazado_118977" data-name="Trazado 118977" d="M230.432,205.582a1.728,1.728,0,0,0,.045.323,2.449,2.449,0,0,0,.293.887,2.539,2.539,0,0,0,1.037,1.014,2.472,2.472,0,0,0,.872.278h6.191a3.757,3.757,0,0,0,1.435-.233,3.629,3.629,0,0,0,1.27-.811,3.524,3.524,0,0,0,.864-1.307,3.757,3.757,0,0,0,.225-1.593,3.629,3.629,0,0,0-1.5-2.7,3.84,3.84,0,0,0-1.39-.586,6.146,6.146,0,0,0-1.5-.173,6.462,6.462,0,0,0-2.645.564c-.383.173-.751.4-1.1.586l-1.007.556-1.728.962a2.6,2.6,0,0,0-1.037,1.022,2.75,2.75,0,0,0-.3.879,2.887,2.887,0,0,1-.038.331,1.573,1.573,0,0,1,0-.331,2.45,2.45,0,0,1,.278-.909,2.652,2.652,0,0,1,1.044-1.067l1.721-.977,1-.571c.353-.2.706-.413,1.1-.594a6.431,6.431,0,0,1,2.7-.594,6.334,6.334,0,0,1,1.5.165,4.087,4.087,0,0,1,1.45.609,3.824,3.824,0,0,1,1.593,2.818,3.9,3.9,0,0,1-.24,1.661,3.8,3.8,0,0,1-.894,1.36,3.907,3.907,0,0,1-1.33.842,4.283,4.283,0,0,1-1.5.24h-5.154a9.607,9.607,0,0,1-1.052,0,2.6,2.6,0,0,1-.9-.293,2.7,2.7,0,0,1-1.044-1.067,2.644,2.644,0,0,1-.278-.909,2.729,2.729,0,0,1,.023-.383Z" transform="translate(-128.315 -110.054)" fill="#263238"/>
      <path id="Trazado_118978" data-name="Trazado 118978" d="M365.823,250.673v-.827c0-.27.053-.6.068-.992s0-.849.045-1.36,0-1.082,0-1.706a16.183,16.183,0,0,0-.128-2.014,25.613,25.613,0,0,0-.872-4.846,21.227,21.227,0,0,0-.954-2.7,18.115,18.115,0,0,0-6.169-7.649,22.256,22.256,0,0,0-6.762-3.336,28.485,28.485,0,0,0-7.979-1.067,26.3,26.3,0,0,0-8.017,1.165,22.806,22.806,0,0,0-3.569,1.5,20.183,20.183,0,0,0-3.1,2.029,25.426,25.426,0,0,0-4.779,4.9,19.3,19.3,0,0,0-1.593,2.66c-.421.909-.8,1.788-1.1,2.652a31.558,31.558,0,0,0-1.736,8.453,19.98,19.98,0,0,0,0,2.352v.616a2.9,2.9,0,0,0-.053-.609c0-.541-.045-1.337,0-2.359a30.948,30.948,0,0,1,1.7-8.49,24.93,24.93,0,0,1,1.089-2.667,18.5,18.5,0,0,1,1.593-2.682,25.7,25.7,0,0,1,4.786-4.936,20.67,20.67,0,0,1,3.118-2.044,23.081,23.081,0,0,1,3.592-1.5,26.365,26.365,0,0,1,8.062-1.21,28.266,28.266,0,0,1,8.077,1.082,22.255,22.255,0,0,1,6.762,3.359,20.693,20.693,0,0,1,2.667,2.337,16.37,16.37,0,0,1,2.066,2.63,17.427,17.427,0,0,1,1.458,2.757,21.035,21.035,0,0,1,.954,2.72,25.811,25.811,0,0,1,.857,4.869c.083.751.075,1.4.113,2.021s0,1.195,0,1.706-.045.969-.068,1.36-.06.751-.075,1-.045.466-.06.609Z" transform="translate(-150.37 -115.886)" fill="#fff"/>
      <path id="Trazado_118979" data-name="Trazado 118979" d="M274.789,209.26h-1.059l-2.885.053c-2.442.045-5.816.135-9.535.24s-7.1.173-9.542.188h-2.885l2.885-.053c2.442-.045,5.816-.135,9.535-.233s7.1-.173,9.542-.2h3.945Z" transform="translate(-132.661 -112.222)" fill="#fff"/>
      <path id="Trazado_118980" data-name="Trazado 118980" d="M276.64,215.263a46.462,46.462,0,0,1-5.26,0,42.241,42.241,0,0,1,5.26,0Z" transform="translate(-138.502 -113.694)" fill="#fff"/>
      <path id="Trazado_118981" data-name="Trazado 118981" d="M274.807,193.83s-3.261,1.405-7.318,3.005-7.363,2.945-7.378,2.9,3.253-1.405,7.318-3.043S274.784,193.785,274.807,193.83Z" transform="translate(-135.7 -108.385)" fill="#fff"/>
      <path id="Trazado_118982" data-name="Trazado 118982" d="M266.2,195.2c0,.038-3.1,1.413-6.973,3.066s-7.01,2.968-7.025,2.93,3.1-1.42,6.965-3.073S266.183,195.155,266.2,195.2Z" transform="translate(-133.733 -108.726)" fill="#fff"/>
      <path id="Trazado_118983" data-name="Trazado 118983" d="M322.017,193.069c0,.038-3.261,1.405-7.318,3.043s-7.363,2.945-7.378,2.908,3.253-1.405,7.318-3.051S322,193.017,322.017,193.069Z" transform="translate(-147.438 -108.196)" fill="#fff"/>
      <path id="Trazado_118984" data-name="Trazado 118984" d="M313.368,194.44c0,.038-3.1,1.413-6.973,3.066s-7.01,2.968-7.025,2.93,3.1-1.42,6.965-3.073S313.368,194.395,313.368,194.44Z" transform="translate(-145.461 -108.537)" fill="#fff"/>
      <path id="Trazado_118985" data-name="Trazado 118985" d="M318.1,209.239c0,.045-6.514.12-14.554.165s-14.561.053-14.561,0,6.514-.113,14.561-.165S318.1,209.2,318.1,209.239Z" transform="translate(-142.878 -112.208)" fill="#fff"/>
      <path id="Trazado_118986" data-name="Trazado 118986" d="M334.63,214.981c0,.045-1.826.1-4.08.12s-4.08,0-4.08-.045,1.826-.09,4.08-.113A36.538,36.538,0,0,1,334.63,214.981Z" transform="translate(-152.199 -113.63)" fill="#fff"/>
      <path id="Trazado_118987" data-name="Trazado 118987" d="M165.877,212h-.18l-.511.068a5.657,5.657,0,0,0-.8.113c-.316.053-.676.09-1.067.173-.751.135-1.713.346-2.735.616a32.791,32.791,0,0,0-3.253,1.074,34.1,34.1,0,0,0-3.126,1.428c-.932.5-1.751.977-2.427,1.405-.338.21-.631.421-.894.6s-.488.331-.669.466l-.421.3-.15.09a.928.928,0,0,1,.135-.12l.4-.323c.173-.135.391-.308.654-.488s.548-.4.887-.616c.669-.451,1.5-.939,2.419-1.443a31.515,31.515,0,0,1,3.133-1.443,33.1,33.1,0,0,1,3.276-1.074c1.029-.263,1.961-.458,2.758-.586.391-.068.751-.105,1.067-.15s.594-.068.811-.083h.518A.548.548,0,0,1,165.877,212Z" transform="translate(-108.233 -112.902)" fill="#fff"/>
      <path id="Trazado_118988" data-name="Trazado 118988" d="M239.884,202.271a3.969,3.969,0,0,0-.286-.286,2.006,2.006,0,0,0-1-.4,4.343,4.343,0,0,0-1.608.173,12.476,12.476,0,0,0-4.982,2.562c-.714.6-1.1,1.044-1.12,1.022a1.932,1.932,0,0,1,.255-.316q.376-.4.789-.751a11.594,11.594,0,0,1,3.1-1.976,10.992,10.992,0,0,1,1.931-.646,4.32,4.32,0,0,1,1.653-.143,1.961,1.961,0,0,1,1.022.466,1.57,1.57,0,0,1,.2.233C239.876,202.233,239.891,202.263,239.884,202.271Z" transform="translate(-128.434 -110.289)" fill="#fff"/>
      <path id="Trazado_118989" data-name="Trazado 118989" d="M361.425,190.015a4.824,4.824,0,0,1-1.277.135,7.567,7.567,0,0,1-1.5-.188,13.352,13.352,0,0,1-1.923-.594c-.691-.263-1.435-.594-2.254-.932l-1.247-.511c-.436-.165-.887-.316-1.345-.481a51.553,51.553,0,0,0-6.139-1.676,70.1,70.1,0,0,0-11.481-1.428c-.751-.045-1.413-.045-2-.06H329.8l.954-.053h3.509a66.587,66.587,0,0,1,11.5,1.382,51.766,51.766,0,0,1,6.154,1.691c.458.173.917.323,1.345.5l1.255.518c.8.346,1.54.684,2.254.954a13.961,13.961,0,0,0,1.893.609,8.362,8.362,0,0,0,1.5.21,7.661,7.661,0,0,0,.947-.038h.248Z" transform="translate(-152.945 -105.998)" fill="#263238"/>
      <circle id="Elipse_4124" data-name="Elipse 4124" cx="7.814" cy="7.814" r="7.814" transform="translate(119.216 162.73) rotate(-45)" fill="#ebebeb"/>
      <path id="Trazado_118990" data-name="Trazado 118990" d="M266.753,299.455a.391.391,0,0,1-.286-.128l-3.907-4.6a.376.376,0,1,1,.571-.488l3.607,4.238,3.231-4.223a.376.376,0,1,1,.594.458l-3.509,4.568a.353.353,0,0,1-.286.143Z" transform="translate(-136.287 -133.314)" fill="#263238"/>
    </g>
    <g id="freepik--Character--inject-2" transform="translate(41.185 66.428)">
      <path id="Trazado_118991" data-name="Trazado 118991" d="M97.681,437.113,97.2,450.291s13.231,4.921,13.382,7.363H84.99L84.9,437.09Z" transform="translate(-49.387 -205.973)" fill="#455a64"/>
      <path id="Trazado_118992" data-name="Trazado 118992" d="M90.486,453.17a1.052,1.052,0,0,0-.751,1.195,1.007,1.007,0,0,0,1.18.751,1.112,1.112,0,0,0,.751-1.27,1.037,1.037,0,0,0-1.307-.616" transform="translate(-50.585 -209.971)" fill="#e0e0e0"/>
      <path id="Trazado_118993" data-name="Trazado 118993" d="M85,463.744l.075-2.074,24.5.8s1.142.5,1.014,1.3Z" transform="translate(-49.412 -212.084)" fill="#263238"/>
      <path id="Trazado_118994" data-name="Trazado 118994" d="M101.046,454.448c0,.12-.631.18-1.247.579s-.939.924-1.059.879.075-.751.826-1.247S101.068,454.328,101.046,454.448Z" transform="translate(-52.82 -210.257)" fill="#fff"/>
      <path id="Trazado_118995" data-name="Trazado 118995" d="M104.829,455.98c0,.12-.511.331-.939.857s-.549,1.089-.669,1.082-.2-.714.338-1.36S104.829,455.837,104.829,455.98Z" transform="translate(-53.92 -210.654)" fill="#fff"/>
      <path id="Trazado_118996" data-name="Trazado 118996" d="M107.358,459.527c-.113,0-.286-.594,0-1.277s.909-.962.962-.857-.308.473-.564,1.037S107.486,459.519,107.358,459.527Z" transform="translate(-54.932 -211.015)" fill="#fff"/>
      <path id="Trazado_118997" data-name="Trazado 118997" d="M100.64,450.325c-.053.113-.624-.06-1.33,0s-1.255.27-1.322.158.466-.548,1.3-.594S100.7,450.227,100.64,450.325Z" transform="translate(-52.64 -209.154)" fill="#fff"/>
      <path id="Trazado_118998" data-name="Trazado 118998" d="M58.939,438.72l-1.014,15.929,2.825,12.833a1.638,1.638,0,0,1-1.36,1.969h0a1.631,1.631,0,0,1-1.413-.481c-2.337-2.434-10.895-11.428-10.752-12.585.158-1.345-.045-16.868-.045-16.868Z" transform="translate(-40.008 -206.378)" fill="#455a64"/>
      <path id="Trazado_118999" data-name="Trazado 118999" d="M59.419,474.928,47.3,460.78v.676a2.487,2.487,0,0,0,.518,1.623c.962,1.232,3.7,4.568,10.166,11.368a1.638,1.638,0,0,0,1.5.481Z" transform="translate(-40.037 -211.863)" fill="#263238"/>
      <g id="Grupo_55150" data-name="Grupo 55150" transform="translate(9.282 243.75)" opacity="0.6">
        <path id="Trazado_119000" data-name="Trazado 119000" d="M51.447,454.066a.984.984,0,0,1,.218,1.3.947.947,0,0,1-1.285.225,1.037,1.037,0,0,1-.225-1.375.984.984,0,0,1,1.345-.09" transform="translate(-49.989 -453.903)" fill="#fff"/>
      </g>
      <path id="Trazado_119001" data-name="Trazado 119001" d="M58.992,469.569a5.093,5.093,0,0,1,1.45-1.187,4.989,4.989,0,0,1,1.848-.27c0-.038-.18-.173-.548-.24A2.615,2.615,0,0,0,59.187,469C58.992,469.321,58.924,469.554,58.992,469.569Z" transform="translate(-42.939 -213.619)" fill="#fff"/>
      <path id="Trazado_119002" data-name="Trazado 119002" d="M60.357,472.643a15.279,15.279,0,0,1,1.443-.624,14.819,14.819,0,0,1,1.563-.143,1.848,1.848,0,0,0-1.653-.2A2.047,2.047,0,0,0,60.357,472.643Z" transform="translate(-43.282 -214.544)" fill="#fff"/>
      <path id="Trazado_119003" data-name="Trazado 119003" d="M56.3,465.819a17.068,17.068,0,0,1,2.156-1.12,16.651,16.651,0,0,1,2.389-.451,4.463,4.463,0,0,0-4.546,1.57Z" transform="translate(-42.276 -212.695)" fill="#fff"/>
      <path id="Trazado_119004" data-name="Trazado 119004" d="M56.17,459.705c.045.1.939-.233,2.089-.225s2.044.316,2.081.218a4.069,4.069,0,0,0-4.17.007Z" transform="translate(-42.244 -211.449)" fill="#fff"/>
      <path id="Trazado_119005" data-name="Trazado 119005" d="M56.41,453.453a8.267,8.267,0,0,1,2.164-.293,8.157,8.157,0,0,1,2.1.616,1.584,1.584,0,0,0-.5-.466,3.524,3.524,0,0,0-3.193-.24C56.583,453.242,56.395,453.423,56.41,453.453Z" transform="translate(-42.303 -209.878)" fill="#fff"/>
      <path id="Trazado_119006" data-name="Trazado 119006" d="M58.586,451.035a1.278,1.278,0,0,0,.045-.6,4.065,4.065,0,0,0-.413-1.6,1.841,1.841,0,0,0-.751-.917.654.654,0,0,0-.751.113,1.089,1.089,0,0,0-.286.751,2.322,2.322,0,0,0,1.931,2.186,2.682,2.682,0,0,0,2.69-1.292.947.947,0,0,0,.075-.751.646.646,0,0,0-.661-.368,2.344,2.344,0,0,0-1.074.5,4.733,4.733,0,0,0-1.127,1.157,1.5,1.5,0,0,0-.27.541,7.468,7.468,0,0,1,1.548-1.5,2.1,2.1,0,0,1,.947-.413.346.346,0,0,1,.361.2.631.631,0,0,1-.083.5,2.374,2.374,0,0,1-2.337,1.1,2.006,2.006,0,0,1-1.676-1.863.751.751,0,0,1,.18-.5.353.353,0,0,1,.406-.068,1.653,1.653,0,0,1,.661.751A6.071,6.071,0,0,1,58.586,451.035Z" transform="translate(-42.308 -208.647)" fill="#fff"/>
      <path id="Trazado_119007" data-name="Trazado 119007" d="M99.219,288.025a56.5,56.5,0,0,1,1.63,16.643c-.188,3.546-11.578,106.017-11.578,106.017l-14.494-1.3,2.5-95.813-.609.548s-8.633,40.3-9.2,46.675c-.511,5.733-7.408,51.746-7.408,51.746L46,411.864l3.186-58.17,4.26-52.783,1.706-15.38Z" transform="translate(-39.715 -168.289)" fill="#263238"/>
      <path id="Trazado_119008" data-name="Trazado 119008" d="M83.91,307.526a3.238,3.238,0,0,0,.684.361,7.514,7.514,0,0,0,2.014.654,4.148,4.148,0,0,0,1.5,0,3.006,3.006,0,0,0,1.5-.751,3.757,3.757,0,0,0,.909-1.668c.173-.631.263-1.285.383-1.954.451-2.667.751-5.1.909-6.867.083-.879.135-1.593.158-2.089a3.419,3.419,0,0,0,0-.751,3.756,3.756,0,0,0-.135.751c-.068.564-.158,1.255-.263,2.081-.225,1.751-.556,4.178-1.007,6.837-.225,1.315-.376,2.652-1.172,3.449a3.344,3.344,0,0,1-2.773.789,8.664,8.664,0,0,1-1.991-.533A3.556,3.556,0,0,0,83.91,307.526Z" transform="translate(-49.141 -170.509)" fill="#455a64"/>
      <path id="Trazado_119009" data-name="Trazado 119009" d="M89.378,295.05a.682.682,0,0,0-.331-.09,1.5,1.5,0,0,0-.9.316,1.54,1.54,0,1,0,2.374.826,1.45,1.45,0,0,0-.511-.8c-.18-.135-.308-.15-.316-.135a1.848,1.848,0,0,1,.586.992A1.39,1.39,0,0,1,90,297.289a1.21,1.21,0,0,1-1.33.286,1.2,1.2,0,0,1-.857-1.052,1.368,1.368,0,0,1,.488-1.059,1.841,1.841,0,0,1,1.074-.413Z" transform="translate(-50.033 -170.634)" fill="#455a64"/>
      <path id="Trazado_119010" data-name="Trazado 119010" d="M56.17,302.877a1.862,1.862,0,0,0,.556.068,10.317,10.317,0,0,0,1.5,0,14.462,14.462,0,0,0,4.831-1.24,14.741,14.741,0,0,0,4.14-2.78,10.259,10.259,0,0,0,1.014-1.12,1.736,1.736,0,0,0,.316-.466c-.045-.038-.548.571-1.5,1.405A16.222,16.222,0,0,1,58.2,302.7C56.959,302.839,56.178,302.817,56.17,302.877Z" transform="translate(-42.244 -171.225)" fill="#455a64"/>
      <path id="Trazado_119011" data-name="Trazado 119011" d="M108.17,295.06a6.612,6.612,0,0,0,.872,1.623,18.356,18.356,0,0,0,6.492,6.011,6.679,6.679,0,0,0,1.683.751,16.087,16.087,0,0,0-1.563-.962,22.934,22.934,0,0,1-3.5-2.66,23.745,23.745,0,0,1-2.915-3.291,17.209,17.209,0,0,0-1.067-1.473Z" transform="translate(-55.173 -170.658)" fill="#455a64"/>
      <path id="Trazado_119012" data-name="Trazado 119012" d="M96.386,147.831a12.69,12.69,0,0,0-13.464-10.722l-.654.045c-7.04.932-10.181,7.423-9.061,14.434l2.449,24.87.12,5.147,16.755,1.5-.361-10.857s6.717-1.548,6.311-8.348C98.28,160.634,97.325,153.909,96.386,147.831Z" transform="translate(-46.424 -131.377)" fill="#ffbe9d"/>
      <path id="Trazado_119013" data-name="Trazado 119013" d="M95.591,183.244A16.53,16.53,0,0,1,86.5,181.29s2.449,4.734,9.182,3.629Z" transform="translate(-49.785 -142.371)" fill="#eb996e"/>
      <path id="Trazado_119014" data-name="Trazado 119014" d="M102.18,159.511a.969.969,0,0,1-.864,1.044.932.932,0,0,1-1.067-.8.977.977,0,0,1,.864-1.052.939.939,0,0,1,1.067.8Z" transform="translate(-53.202 -136.753)" fill="#263238"/>
      <path id="Trazado_119015" data-name="Trazado 119015" d="M101.224,155.706c-.105.135-.879-.353-1.923-.278s-1.773.661-1.893.541.045-.293.361-.556a2.637,2.637,0,0,1,1.5-.586,2.525,2.525,0,0,1,1.548.376C101.156,155.391,101.284,155.609,101.224,155.706Z" transform="translate(-52.487 -135.789)" fill="#263238"/>
      <path id="Trazado_119016" data-name="Trazado 119016" d="M89.072,161.06a.969.969,0,0,1-.864,1.044.932.932,0,0,1-1.059-.8.969.969,0,0,1,.864-1.044.924.924,0,0,1,1.059.8Z" transform="translate(-49.945 -137.138)" fill="#263238"/>
      <path id="Trazado_119017" data-name="Trazado 119017" d="M87.59,156.908c-.113.135-.887-.353-1.931-.27s-1.766.654-1.893.533.045-.286.361-.556a2.72,2.72,0,0,1,1.5-.586,2.57,2.57,0,0,1,1.5.376C87.515,156.629,87.643,156.847,87.59,156.908Z" transform="translate(-49.094 -136.088)" fill="#263238"/>
      <path id="Trazado_119018" data-name="Trazado 119018" d="M94.29,164.28a6.89,6.89,0,0,1,1.676-.428c.263-.045.511-.12.541-.308a1.33,1.33,0,0,0-.233-.751c-.3-.624-.609-1.285-.939-1.976a37.494,37.494,0,0,1-2.156-5.177,37.421,37.421,0,0,1,2.57,5l.9,1.984a1.5,1.5,0,0,1,.218,1.037.676.676,0,0,1-.413.421,1.584,1.584,0,0,1-.406.1,6.7,6.7,0,0,1-1.758.105Z" transform="translate(-51.443 -135.993)" fill="#263238"/>
      <path id="Trazado_119019" data-name="Trazado 119019" d="M90.6,168.4c.173,0,.255,1.112,1.285,1.841s2.254.526,2.254.676-.255.24-.751.293a2.8,2.8,0,0,1-1.863-.5,2.472,2.472,0,0,1-1.007-1.548C90.419,168.686,90.524,168.4,90.6,168.4Z" transform="translate(-50.774 -139.166)" fill="#263238"/>
      <path id="Trazado_119020" data-name="Trazado 119020" d="M87.265,151.514c-.083.293-1.135.233-2.344.473s-2.179.639-2.367.4c-.075-.113.075-.4.451-.7a4.027,4.027,0,0,1,1.721-.751,3.952,3.952,0,0,1,1.871.083C87.054,151.176,87.3,151.379,87.265,151.514Z" transform="translate(-48.799 -134.805)" fill="#263238"/>
      <path id="Trazado_119021" data-name="Trazado 119021" d="M100.519,151.67c-.165.248-.9.053-1.766.105s-1.585.278-1.773,0c-.083-.113,0-.361.316-.609a2.5,2.5,0,0,1,1.413-.488,2.42,2.42,0,0,1,1.443.376C100.474,151.287,100.594,151.528,100.519,151.67Z" transform="translate(-52.383 -134.758)" fill="#263238"/>
      <path id="Trazado_119022" data-name="Trazado 119022" d="M73.883,164.533a1.848,1.848,0,0,0-2.119-1.63c-1.255.21-2.615,1.037-2.337,3.644.488,4.636,5.034,3.193,5.027,3.058S74.109,166.472,73.883,164.533Z" transform="translate(-45.531 -137.794)" fill="#ffbe9d"/>
      <path id="Trazado_119023" data-name="Trazado 119023" d="M73.8,168.466a1.365,1.365,0,0,1-.2.143.834.834,0,0,1-.6.075,2.014,2.014,0,0,1-1.112-1.7,2.765,2.765,0,0,1,.105-1.18.939.939,0,0,1,.549-.684.413.413,0,0,1,.5.173c.075.128.053.218.083.225s.09-.09,0-.278a.488.488,0,0,0-.21-.27.624.624,0,0,0-.458-.068,1.135,1.135,0,0,0-.751.8,2.652,2.652,0,0,0-.143,1.322,2.1,2.1,0,0,0,1.383,1.878.857.857,0,0,0,.751-.2C73.8,168.579,73.812,168.473,73.8,168.466Z" transform="translate(-46.061 -138.292)" fill="#eb996e"/>
      <path id="Trazado_119024" data-name="Trazado 119024" d="M124.988,218c2.156,6.281,2.878,6.387,4.839,24.524.376,3.524-.571,8.881-3.7,10.519s-8.671-.165-10.519-3.178L113.53,236.5Z" transform="translate(-56.505 -151.498)" fill="#ffbe9d"/>
      <path id="Trazado_119025" data-name="Trazado 119025" d="M118.54,251.824a29.068,29.068,0,0,1,1.172-2.7,28.24,28.24,0,0,1,1.653-2.427,2.54,2.54,0,0,0-.639.6,9.437,9.437,0,0,0-1.21,1.721,9.671,9.671,0,0,0-.8,1.946A2.961,2.961,0,0,0,118.54,251.824Z" transform="translate(-57.751 -158.634)" fill="#eb996e"/>
      <path id="Trazado_119026" data-name="Trazado 119026" d="M53.147,244.856l.083-14.93-.053-1.465L38,224.923s3.005-9.768,5.7-20.332c1.578-6.086,6.822-9.144,8.085-9.768h0l.278-.128h0L66.92,189c2.945,3.141,7,5.139,11.128,3.93a11.458,11.458,0,0,0,5.74-3.682l10.091,2.96h0a12.713,12.713,0,0,1,6.762,5.507c2.059,3.637,8.626,20.287,8.746,20.692l-12.18,1.1s2.164,39.484,1.4,46.539c0,0-2.953,2.044-10.414,2.4-15.125.714-37.643-.361-37.643-.361.353-2.254.751-6.086.932-8.01Z" transform="translate(-37.726 -144.288)" fill="#26aab7"/>
      <path id="Trazado_119027" data-name="Trazado 119027" d="M116.288,210c-.06,0,.263,9.415.751,21.038s.879,21.038.939,21.038-.255-9.422-.751-21.038S116.355,210,116.288,210Z" transform="translate(-57.189 -149.509)" fill="#263238"/>
      <path id="Trazado_119028" data-name="Trazado 119028" d="M122.761,219.6l-4.7,19.58c-.263,1.082-1.225,1.848-2.788,2.254l-26.681.09a3.163,3.163,0,0,1-1.946-3.291l3.494-18.7a2.434,2.434,0,0,1,2.329-1.976l28.123-.646a2.186,2.186,0,0,1,2.171,2.69Z" transform="translate(-49.815 -151.227)" fill="#263238"/>
      <path id="Trazado_119029" data-name="Trazado 119029" d="M134.278,224.713a1.706,1.706,0,0,0-.038-2.111,2.607,2.607,0,0,0-2.029-.9,5.718,5.718,0,0,0-2.216.511,15.027,15.027,0,0,0-2.5,1.322,2.419,2.419,0,0,0-1.225,1.5c-.1.661.639,1.39,1.21,1.052a2.8,2.8,0,0,0-1.593,1.984c-.1.834.353,1.27,1.165,1.5a1.262,1.262,0,0,0-.684,1.623,1.45,1.45,0,0,0,1.856.5,4.17,4.17,0,0,0,1.54-1.36,4.726,4.726,0,0,0-.21,3.005c1.766-.646,3.5-2.615,3.005-4.508a2.532,2.532,0,0,0,.714-3.005,2.472,2.472,0,0,0,1.42-2.1" transform="translate(-59.574 -152.418)" fill="#ffbe9d"/>
      <path id="Trazado_119030" data-name="Trazado 119030" d="M130.62,235.706a3.9,3.9,0,0,1,.691-.5,6.972,6.972,0,0,0,1.5-1.345,3.622,3.622,0,0,0,.751-1.826,8.21,8.21,0,0,1,.053-.849,1.841,1.841,0,0,1,.113.864,3.351,3.351,0,0,1-.751,1.954,5.568,5.568,0,0,1-1.615,1.337,2.4,2.4,0,0,1-.744.361Z" transform="translate(-60.755 -154.778)" fill="#eb996e"/>
      <path id="Trazado_119031" data-name="Trazado 119031" d="M127.47,231.535a7.131,7.131,0,0,0,.751-.6,5.26,5.26,0,0,1,2.006-1.089,2.855,2.855,0,0,1,1.232,0,2.254,2.254,0,0,1,.909.428,2.908,2.908,0,0,1,.609.751.6.6,0,0,0-.075-.255,1.8,1.8,0,0,0-.443-.579,2.292,2.292,0,0,0-.954-.5,2.81,2.81,0,0,0-1.322,0,4.809,4.809,0,0,0-2.051,1.172,3.359,3.359,0,0,0-.661.669Z" transform="translate(-59.972 -154.386)" fill="#eb996e"/>
      <path id="Trazado_119032" data-name="Trazado 119032" d="M127.62,227.156a3.629,3.629,0,0,0,.924-.406,9.021,9.021,0,0,1,.992-.458,7.943,7.943,0,0,1,1.27-.361,3.644,3.644,0,0,1,1.3-.045,2.39,2.39,0,0,1,.969.4,2.254,2.254,0,0,1,.646.751.646.646,0,0,0-.083-.27,1.7,1.7,0,0,0-.481-.579,2.254,2.254,0,0,0-1.022-.458,3.66,3.66,0,0,0-1.367,0,7.554,7.554,0,0,0-1.3.391,7.417,7.417,0,0,0-.984.5,7.72,7.72,0,0,0-.864.533Z" transform="translate(-60.009 -153.404)" fill="#eb996e"/>
      <path id="Trazado_119033" data-name="Trazado 119033" d="M69.8,151.513c.383,1.322.248,3.531,1.435,3.231,2.359-.594,1.788,4.238,2.923,3.757s2.1-1.841,2.171-4.816c.09-3.757-1.428-6.492.053-10.812a5.718,5.718,0,0,1,4.771-2.96,5.808,5.808,0,0,1,5,2.652c.21-1.322.857-3.306,2.029-3.937a3.381,3.381,0,0,1,3.757.308,2.765,2.765,0,0,1,.5,3.607,1.33,1.33,0,0,0,1.5-.533,2.254,2.254,0,0,1-.586,1.691,2.1,2.1,0,0,0,1.195-.826c-.12.541-.233,1.089-.353,1.63,1.984.053,3.93-1.871,4.508-3.584a8.844,8.844,0,0,0-1.262-7.514,8.167,8.167,0,0,0-6.762-3.907,6.274,6.274,0,0,0-6.063,3.832,8.642,8.642,0,0,0-7.326-.751,6.357,6.357,0,0,0-3.622,5.042,3.817,3.817,0,0,0-3.757.751c-.083.075-.173.143-.248.218a5.658,5.658,0,0,0-1.645,5.26c.143.751.406,1.5.556,2.141C68.967,147.7,69.8,151.513,69.8,151.513Z" transform="translate(-45.16 -129.492)" fill="#263238"/>
      <path id="Trazado_119034" data-name="Trazado 119034" d="M100.243,143.725a.8.8,0,0,0,.158-.128,2.953,2.953,0,0,0,.391-.428,3.99,3.99,0,0,0,.751-1.976,3.757,3.757,0,0,0-.924-2.968,4.087,4.087,0,0,0-3.546-1.345,4.591,4.591,0,0,0-1.878.751,6.049,6.049,0,0,0-1.382,1.262,7.326,7.326,0,0,0-1.428,2.81,7.19,7.19,0,0,0-.225,2.111,5.753,5.753,0,0,0,.053.579.751.751,0,0,0,.045.2,8.475,8.475,0,0,1,.271-2.848,7.363,7.363,0,0,1,1.428-2.727A5.169,5.169,0,0,1,97.1,137.1a3.9,3.9,0,0,1,3.374,1.255,3.674,3.674,0,0,1,.924,2.833,4.215,4.215,0,0,1-.7,1.946A4.929,4.929,0,0,1,100.243,143.725Z" transform="translate(-51.19 -131.321)" fill="#455a64"/>
      <path id="Trazado_119035" data-name="Trazado 119035" d="M100.856,145.333a1.727,1.727,0,0,0,.143-.225c.083-.158.21-.376.361-.669a15.072,15.072,0,0,0,1.1-2.592,7.822,7.822,0,0,0,.3-1.923,5.545,5.545,0,0,0-.4-2.2,4.358,4.358,0,0,0-1.6-1.9,5.3,5.3,0,0,0-2.525-.834,6.356,6.356,0,0,0-2.622.421,8.333,8.333,0,0,0-2.149,1.225,6.462,6.462,0,0,0-2.352,3.4,4.643,4.643,0,0,0,.143,2.788,3.517,3.517,0,0,0,.346.684c.1.143.158.218.165.21a5.147,5.147,0,0,1-.436-.924,4.643,4.643,0,0,1-.075-2.72,6.349,6.349,0,0,1,2.322-3.291,7.018,7.018,0,0,1,4.643-1.585,4.982,4.982,0,0,1,2.427.8,4.117,4.117,0,0,1,1.5,1.8,5.2,5.2,0,0,1,.406,2.134,7.319,7.319,0,0,1-.271,1.886,15.831,15.831,0,0,1-1.022,2.592l-.331.684a1.081,1.081,0,0,0-.075.248Z" transform="translate(-50.894 -130.856)" fill="#455a64"/>
      <path id="Trazado_119036" data-name="Trazado 119036" d="M71.681,151.906a8,8,0,0,1-.992-1.022,6.762,6.762,0,0,1-1.322-6.394c.248-.834.541-1.307.5-1.33a1.773,1.773,0,0,0-.218.323,6.59,6.59,0,0,0-.428.962,6.687,6.687,0,0,0-.218,3.456,6.6,6.6,0,0,0,1.578,3.081,5.05,5.05,0,0,0,.751.751A1.3,1.3,0,0,0,71.681,151.906Z" transform="translate(-45.402 -132.89)" fill="#455a64"/>
      <path id="Trazado_119037" data-name="Trazado 119037" d="M76.782,152.1a3.7,3.7,0,0,1-.6-.353,3.359,3.359,0,0,1-1.172-1.405l-.2-.451.045.488c.06.654.128,1.405.2,2.217l.15-.09a6.064,6.064,0,0,1-2.555-3.922,6.222,6.222,0,0,1,0-2.186,8.325,8.325,0,0,1,.654-1.916.474.474,0,0,0-.09.113,3.566,3.566,0,0,0-.2.353,5.642,5.642,0,0,0-.5,1.428,6.078,6.078,0,0,0-.06,2.254,6.154,6.154,0,0,0,2.63,4.057l.173.113v-.2c-.09-.811-.173-1.563-.24-2.216l-.15.038a3.246,3.246,0,0,0,1.27,1.42,2.919,2.919,0,0,0,.466.233A.5.5,0,0,0,76.782,152.1Z" transform="translate(-46.273 -133.218)" fill="#455a64"/>
      <path id="Trazado_119038" data-name="Trazado 119038" d="M79.993,140.838a4.621,4.621,0,0,1,1.074-1.345,4,4,0,0,1,1.668-.751,4.155,4.155,0,0,1,2.254.2,4.876,4.876,0,0,1,1.871,1.262,5.845,5.845,0,0,1,1.007,1.57,11.075,11.075,0,0,1,.5,1.66,1.42,1.42,0,0,0,0-.473,6.079,6.079,0,0,0-.338-1.247,5.62,5.62,0,0,0-1.007-1.638,4.929,4.929,0,0,0-1.939-1.33,4.305,4.305,0,0,0-2.344-.2,3.945,3.945,0,0,0-1.721.857,3.329,3.329,0,0,0-.894.962,2.4,2.4,0,0,0-.143.323C79.993,140.792,79.948,140.83,79.993,140.838Z" transform="translate(-48.162 -131.725)" fill="#455a64"/>
      <path id="Trazado_119039" data-name="Trazado 119039" d="M81.4,136.644a6.22,6.22,0,0,1,1.277-.488,4.606,4.606,0,0,1,3.186.451,5.71,5.71,0,0,1,2.254,2.344c.406.751.533,1.27.571,1.255a1.052,1.052,0,0,0-.075-.368,4.936,4.936,0,0,0-.368-.954,5.538,5.538,0,0,0-2.254-2.457,4.576,4.576,0,0,0-3.321-.413,3.374,3.374,0,0,0-.947.406A1.067,1.067,0,0,0,81.4,136.644Z" transform="translate(-48.517 -131.077)" fill="#455a64"/>
      <path id="Trazado_119040" data-name="Trazado 119040" d="M59.778,213.54c.105,0-.2,8.363-.684,18.664s-.969,18.649-1.1,18.641.2-8.355.684-18.664S59.673,213.532,59.778,213.54Z" transform="translate(-42.688 -150.389)" fill="#263238"/>
      <path id="Trazado_119041" data-name="Trazado 119041" d="M37.864,242.389c.488-3.7.9-6.98.9-6.98l12.119,2.81-.518,1.954L59.7,230.66l1.5.128,4.711,4.9s-4.11,8.686-6.5,12.067c-3.111,4.4-8,11.1-14.7,10.519C38.54,257.769,36.978,249.038,37.864,242.389Z" transform="translate(-37.635 -154.646)" fill="#ffbe9d"/>
      <path id="Trazado_119042" data-name="Trazado 119042" d="M46.67,247.84a10.8,10.8,0,0,1,2.667-2.419A10.52,10.52,0,0,1,52.5,243.67c.053.1-1.337.909-2.938,2.066A32.294,32.294,0,0,1,46.67,247.84Z" transform="translate(-39.881 -157.881)" fill="#eb996e"/>
      <path id="Trazado_119043" data-name="Trazado 119043" d="M82.3,213.426,78.136,211.3l-5.4,1.713-2.675,2.472-4.148,10.361-3.291,4.17,5.816,7.574,3.674-6.717s3.126-1.36,4.373-3.336,1.811-3.005,1.811-3.005,1.811-.872,2.141-1.7a4.17,4.17,0,0,0,.316-1.5L79.841,220a3.3,3.3,0,0,0-.278-1.7,1.668,1.668,0,0,0-.714-.579s.263-1.12-.158-1.5a13.155,13.155,0,0,0-2.495-1.142h0l1.818-1.029S82.073,215.267,82.3,213.426Z" transform="translate(-43.847 -149.832)" fill="#ffbe9d"/>
      <path id="Trazado_119044" data-name="Trazado 119044" d="M80.58,219.113c0,.053.639.075,1.405.233s1.352.406,1.375.353a3.238,3.238,0,0,0-1.337-.526,3.291,3.291,0,0,0-1.443-.06Z" transform="translate(-48.313 -151.762)" fill="#eb996e"/>
      <path id="Trazado_119045" data-name="Trazado 119045" d="M82.25,222.209a11.263,11.263,0,0,0,1.2.15,11.367,11.367,0,0,0,1.195.21,3.674,3.674,0,0,0-2.4-.361Z" transform="translate(-48.728 -152.529)" fill="#eb996e"/>
      <path id="Trazado_119046" data-name="Trazado 119046" d="M84.557,226.729c.053,0,.083-.24.083-.533s-.053-.526-.105-.526-.083.24-.075.533S84.512,226.729,84.557,226.729Z" transform="translate(-49.277 -153.405)" fill="#eb996e"/>
      <path id="Trazado_119047" data-name="Trazado 119047" d="M83.512,228.047a1.863,1.863,0,0,1,1.225-1.563.79.79,0,0,0-.331,0,1.4,1.4,0,0,0-.646.466,1.42,1.42,0,0,0-.3.751C83.444,227.927,83.489,228.055,83.512,228.047Z" transform="translate(-49.028 -153.604)" fill="#eb996e"/>
      <path id="Trazado_119048" data-name="Trazado 119048" d="M79.2,223.789a2.634,2.634,0,0,1,.751-.751,2.675,2.675,0,0,1,.992-.24.649.649,0,0,0-.316-.1,1.375,1.375,0,0,0-.751.188,1.39,1.39,0,0,0-.556.548C79.19,223.676,79.175,223.782,79.2,223.789Z" transform="translate(-47.967 -152.666)" fill="#eb996e"/>
      <path id="Trazado_119049" data-name="Trazado 119049" d="M76.668,220.729a2.857,2.857,0,0,1,.669-.691,3.148,3.148,0,0,1,.909-.308.579.579,0,0,0-.3-.06,1.4,1.4,0,0,0-1.2.751C76.66,220.609,76.653,220.729,76.668,220.729Z" transform="translate(-47.339 -151.913)" fill="#eb996e"/>
      <path id="Trazado_119050" data-name="Trazado 119050" d="M74.97,218.988a1.865,1.865,0,0,1,.045-.353,1.578,1.578,0,0,1,.947-1.277,2.3,2.3,0,0,0,.331-.143,1.01,1.01,0,0,0-.376,0,1.45,1.45,0,0,0-1.037,1.39A.672.672,0,0,0,74.97,218.988Z" transform="translate(-46.896 -151.299)" fill="#eb996e"/>
      <path id="Trazado_119051" data-name="Trazado 119051" d="M77.33,215.983c0,.06.872.075,1.923.233a19.231,19.231,0,0,1,1.863.481,4.23,4.23,0,0,0-1.841-.654,8.267,8.267,0,0,0-1.375-.105,1.735,1.735,0,0,0-.571.045Z" transform="translate(-47.505 -150.984)" fill="#eb996e"/>
    </g>
    <g id="freepik--Floor--inject-2" transform="translate(37.374 318.281)">
      <path id="Trazado_119052" data-name="Trazado 119052" d="M305.892,464.745c0,.113-59.648.2-133.2.2s-133.217-.053-133.217-.2,59.611-.2,133.217-.2S305.892,464.64,305.892,464.745Z" transform="translate(-39.47 -464.55)" fill="#263238"/>
    </g>
  </g>
</svg>
