<svg xmlns="http://www.w3.org/2000/svg" width="720" height="370.56" viewBox="0 0 720 370.56">
  <g id="Grupo_55348" data-name="Grupo 55348" transform="translate(-139 -4664.006)">
    <text id="Estima" transform="translate(187 4819.737)" fill="#12263f" font-size="16" font-family="Roboto-Regular, Roboto"><tspan x="0" y="17">Estima</tspan></text>
    <text id="Autorealización" transform="translate(187 4763.354)" fill="#12263f" font-size="16" font-family="Roboto-Regular, Roboto"><tspan x="0" y="17">Autorealización</tspan></text>
    <text id="Sociales" transform="translate(187 4873.12)" fill="#12263f" font-size="16" font-family="Roboto-Regular, Roboto"><tspan x="0" y="17">Sociales</tspan></text>
    <text id="Seguridad" transform="translate(187 4928.133)" fill="#12263f" font-size="16" font-family="Roboto-Regular, Roboto"><tspan x="0" y="17">Seguridad</tspan></text>
    <text id="Fisiológicas" transform="translate(187 4983.368)" fill="#12263f" font-size="16" font-family="Roboto-Regular, Roboto"><tspan x="0" y="17">Fisiológicas</tspan></text>
    <path id="Trazado_124545" data-name="Trazado 124545" d="M0,0H368" transform="translate(139 4809.869)" fill="none" stroke="#ccc" stroke-width="3"/>
    <path id="Trazado_124547" data-name="Trazado 124547" d="M0,0H368" transform="translate(139 4861.251)" fill="none" stroke="#ccc" stroke-width="3"/>
    <path id="Trazado_124548" data-name="Trazado 124548" d="M0,0H368" transform="translate(139 4914.486)" fill="none" stroke="#ccc" stroke-width="3"/>
    <path id="Trazado_124549" data-name="Trazado 124549" d="M0,0H368" transform="translate(139 4968.5)" fill="none" stroke="#ccc" stroke-width="3"/>
    <g id="piramide" transform="translate(273 4609.006)">
      <g id="freepik--background-complete--inject-31" transform="translate(69.8 55)">
        <rect id="Rectángulo_29951" data-name="Rectángulo 29951" width="494.173" height="0.25" transform="translate(0 327.4)" fill="#ebebeb"/>
        <rect id="Rectángulo_29952" data-name="Rectángulo 29952" width="33.12" height="0.25" transform="translate(320.691 334.21)" fill="#ebebeb"/>
        <rect id="Rectángulo_29953" data-name="Rectángulo 29953" width="8.69" height="0.25" transform="translate(422.743 336.4)" fill="#ebebeb"/>
        <rect id="Rectángulo_29954" data-name="Rectángulo 29954" width="19.19" height="0.25" transform="translate(354.523 343.49)" fill="#ebebeb"/>
        <rect id="Rectángulo_29955" data-name="Rectángulo 29955" width="43.19" height="0.25" transform="translate(204.293 340.11)" fill="#ebebeb"/>
        <rect id="Rectángulo_29956" data-name="Rectángulo 29956" width="6.33" height="0.25" transform="translate(189.405 340.11)" fill="#ebebeb"/>
        <rect id="Rectángulo_29957" data-name="Rectángulo 29957" width="93.68" height="0.25" transform="translate(79.217 335.89)" fill="#ebebeb"/>
        <path id="Trazado_122022" data-name="Trazado 122022" d="M237,337.8H43.91a5.71,5.71,0,0,1-5.7-5.71V60.66A5.71,5.71,0,0,1,43.91,55H237a5.71,5.71,0,0,1,5.71,5.71V332.09A5.71,5.71,0,0,1,237,337.8ZM43.91,55.2a5.46,5.46,0,0,0-5.45,5.46V332.09a5.46,5.46,0,0,0,5.45,5.46H237a5.47,5.47,0,0,0,5.46-5.46V60.66A5.47,5.47,0,0,0,237,55.2Z" transform="translate(0 -55)" fill="#ebebeb"/>
        <path id="Trazado_122023" data-name="Trazado 122023" d="M453.31,337.8H260.21a5.72,5.72,0,0,1-5.71-5.71V60.66A5.72,5.72,0,0,1,260.21,55h193.1A5.71,5.71,0,0,1,459,60.66V332.09A5.71,5.71,0,0,1,453.31,337.8ZM260.21,55.2a5.47,5.47,0,0,0-5.46,5.46V332.09a5.47,5.47,0,0,0,5.46,5.46h193.1a5.47,5.47,0,0,0,5.46-5.46V60.66a5.47,5.47,0,0,0-5.46-5.46Z" transform="translate(-5.827 -55)" fill="#ebebeb"/>
        <path id="Trazado_122024" data-name="Trazado 122024" d="M117.3,307.73c-5.22-1.77-9-6.81-5.7-12,5.5-8.54-8.25-10.36-4.39-24.65,5.44-20.18,22.33-2.69,26.53-22.06,3-14.09,26.72-23.32,27.64-4.77,1,20.32,11.2,7.05,13.46,29.63,1.56,15.62-20.66,17.89-14,22.77,4.85,3.57,7.71,9.78.95,14-9.21,5.79-.52,10.31-6.78,14.35s-7.28-2.4-17,.74c-8.69,2.8-16.06-5.79-14.33-11.16C125.27,309.63,122.55,309.51,117.3,307.73Z" transform="translate(341.281 -55)" fill="#e6e6e6"/>
        <path id="Trazado_122025" data-name="Trazado 122025" d="M167.54,317s-.71,65.38-28.12,65.38S111.31,317,111.31,317Z" transform="translate(342.574 -56)" fill="#f0f0f0"/>
        <rect id="Rectángulo_29958" data-name="Rectángulo 29958" width="155.74" height="144.13" transform="translate(432.004 173.04) rotate(180)" fill="#e6e6e6"/>
        <rect id="Rectángulo_29959" data-name="Rectángulo 29959" width="157.73" height="144.13" transform="translate(430.299 173.04) rotate(180)" fill="#f0f0f0"/>
        <rect id="Rectángulo_29960" data-name="Rectángulo 29960" width="132.36" height="147.25" transform="translate(425.101 34.79) rotate(90)" fill="#fafafa"/>
        <path id="Trazado_122026" data-name="Trazado 122026" d="M343.42,222.15,369.43,89.79h34.09L377.51,222.15Z" transform="translate(-4.332 -55)" fill="#fff"/>
        <path id="Trazado_122027" data-name="Trazado 122027" d="M382.82,222.15l26-132.36h15.4L398.21,222.15Z" transform="translate(-4.642 -55)" fill="#fff"/>
        <path id="Trazado_122028" data-name="Trazado 122028" d="M300.79,222.15,326.8,89.79h5.65L306.44,222.15Z" transform="translate(-3.575 -55)" fill="#fff"/>
        <rect id="Rectángulo_29961" data-name="Rectángulo 29961" width="132.36" height="0.67" transform="translate(279.736 34.78) rotate(90)" fill="#e6e6e6"/>
        <path id="Trazado_122029" data-name="Trazado 122029" d="M440.4,83.67V184.84H425.29S398.14,123.07,392,86.64a6.06,6.06,0,0,1,6-7.08h38.36a4.11,4.11,0,0,1,4.04,4.11Z" transform="translate(-4.823 -55)" fill="#e6e6e6" opacity="0.7"/>
        <path id="Trazado_122030" data-name="Trazado 122030" d="M440.4,242.12V189.45H425.29s-9.41,31-13,52.67Z" transform="translate(-4.864 -55)" fill="#e6e6e6" opacity="0.7"/>
        <rect id="Rectángulo_29962" data-name="Rectángulo 29962" width="17.14" height="4.61" rx="1.51" transform="translate(429.635 134.45) rotate(180)" fill="#e0e0e0"/>
        <path id="Trazado_122031" data-name="Trazado 122031" d="M272.72,83.67V184.84h15.11s27.15-61.77,33.32-98.2a6.06,6.06,0,0,0-6-7.08H276.83A4.11,4.11,0,0,0,272.72,83.67Z" transform="translate(-3.356 -55)" fill="#e6e6e6" opacity="0.7"/>
        <path id="Trazado_122032" data-name="Trazado 122032" d="M272.72,242.12V189.45h15.11s9.4,31,13,52.67Z" transform="translate(-3.218 -55)" fill="#e6e6e6" opacity="0.7"/>
        <rect id="Rectángulo_29963" data-name="Rectángulo 29963" width="17.14" height="4.61" rx="1.51" transform="translate(268.623 129.84)" fill="#e0e0e0"/>
        <rect id="Rectángulo_29964" data-name="Rectángulo 29964" width="37.8" height="98.07" transform="translate(258.255 327.4) rotate(180)" fill="#e6e6e6"/>
        <path id="Trazado_122033" data-name="Trazado 122033" d="M233.23,382.4h-10.1V365.48h20.68Z" transform="translate(-2.594 -55)" fill="#f5f5f5"/>
        <rect id="Rectángulo_29965" data-name="Rectángulo 29965" width="37.8" height="98.07" transform="translate(436.899 327.4) rotate(180)" fill="#e6e6e6"/>
        <rect id="Rectángulo_29966" data-name="Rectángulo 29966" width="189.64" height="92.24" transform="translate(408.858 321.58) rotate(180)" fill="#f5f5f5"/>
        <rect id="Rectángulo_29967" data-name="Rectángulo 29967" width="173.98" height="19.33" transform="translate(401.073 257.22) rotate(180)" fill="#f0f0f0"/>
        <path id="Trazado_122034" data-name="Trazado 122034" d="M402.68,382.4h10.09V365.48H392.09Z" transform="translate(-4.557 -55)" fill="#f5f5f5"/>
        <rect id="Rectángulo_29968" data-name="Rectángulo 29968" width="173.98" height="19.33" transform="translate(401.073 285.12) rotate(180)" fill="#f0f0f0"/>
        <rect id="Rectángulo_29969" data-name="Rectángulo 29969" width="173.98" height="19.33" transform="translate(401.073 313.02) rotate(180)" fill="#f0f0f0"/>
        <rect id="Rectángulo_29970" data-name="Rectángulo 29970" width="81.17" height="88.15" transform="translate(213.902 128.615) rotate(180)" fill="#e6e6e6"/>
        <rect id="Rectángulo_29971" data-name="Rectángulo 29971" width="86.09" height="88.15" transform="translate(212.024 128.615) rotate(180)" fill="#f5f5f5"/>
        <rect id="Rectángulo_29972" data-name="Rectángulo 29972" width="77.17" height="75.11" transform="translate(206.504 45.945) rotate(90)" fill="#fff"/>
        <path id="Trazado_122035" data-name="Trazado 122035" d="M195,166.16h0a20.37,20.37,0,0,0-20.38-20.38H146.35a20.38,20.38,0,0,0,20.38,20.38Z" transform="translate(-1.802 -71.435)" fill="#f5f5f5"/>
        <rect id="Rectángulo_29973" data-name="Rectángulo 29973" width="48.3" height="53.62" transform="translate(114.64 84.54) rotate(180)" fill="#e6e6e6"/>
        <rect id="Rectángulo_29974" data-name="Rectángulo 29974" width="53.22" height="53.62" transform="translate(112.7 84.54) rotate(180)" fill="#f5f5f5"/>
        <rect id="Rectángulo_29975" data-name="Rectángulo 29975" width="42.65" height="42.24" transform="translate(107.2 36.4) rotate(90)" fill="#fff"/>
        <rect id="Rectángulo_29976" data-name="Rectángulo 29976" width="17.65" height="17.65" transform="translate(91.566 45.25) rotate(45)" fill="#f5f5f5"/>
      </g>
      <g id="freepik--Shadow--inject-31" transform="translate(50.11 402.92)">
        <ellipse id="freepik--path--inject-31" cx="193.89" cy="11.32" rx="193.89" ry="11.32" fill="#dee4f0"/>
      </g>
      <g id="freepik--Pyramid--inject-31" transform="translate(51.625 198.95)">
        <path id="Trazado_122036" data-name="Trazado 122036" d="M95,413.72H405l-31-53.69H126Z" transform="translate(-95 -198.95)" fill="#7e57c2"/>
        <path id="Trazado_122037" data-name="Trazado 122037" d="M95,413.72H405l-31-53.69H126Z" transform="translate(-95 -198.95)" fill="#fff" opacity="0.4"/>
        <path id="Trazado_122038" data-name="Trazado 122038" d="M126,360.03H374l-31-53.7H157Z" transform="translate(-95 -198.95)" fill="#7e57c2"/>
        <path id="Trazado_122039" data-name="Trazado 122039" d="M126,360.03H374l-31-53.7H157Z" transform="translate(-95 -198.95)" fill="#fff" opacity="0.3"/>
        <path id="Trazado_122040" data-name="Trazado 122040" d="M188,252.64l-31,53.69H343l-31-53.69Z" transform="translate(-95 -198.95)" fill="#7e57c2"/>
        <path id="Trazado_122041" data-name="Trazado 122041" d="M188,252.64l-31,53.69H343l-31-53.69Z" transform="translate(-95 -198.95)" fill="#fff" opacity="0.2"/>
        <path id="Trazado_122042" data-name="Trazado 122042" d="M281,198.95H219l-31,53.69H312Z" transform="translate(-95 -198.95)" fill="#7e57c2"/>
        <path id="Trazado_122043" data-name="Trazado 122043" d="M281,198.95H219l-31,53.69H312Z" transform="translate(-95 -198.95)" opacity="0.1"/>
      </g>
      <g id="freepik--character-2--inject-31" transform="translate(223.168 74.957)">
        <path id="Trazado_122044" data-name="Trazado 122044" d="M159.52,121.91c.51.38,1.2.92,1.81,1.42s1.23,1,1.84,1.59c1.2,1.1,2.39,2.22,3.51,3.4a48.881,48.881,0,0,1,5.9,7.64c.37.61,1,1.64.89,1.5a2.26,2.26,0,0,1,.11,1.1,13.49,13.49,0,0,1-1.27,4,61.174,61.174,0,0,1-5.11,8.54l2.81,2.7a39.269,39.269,0,0,0,7.57-8.25,18,18,0,0,0,2.64-5.75,9,9,0,0,0,.06-4.12,6.709,6.709,0,0,0-.36-1.16,7.427,7.427,0,0,0-.37-.8l-.63-1.29a45.359,45.359,0,0,0-6.47-9.38,53.649,53.649,0,0,0-3.95-4c-.7-.63-1.42-1.25-2.15-1.85s-1.45-1.14-2.38-1.78Z" transform="translate(-42.13 -74.957)" fill="#b55b52"/>
        <path id="Trazado_122045" data-name="Trazado 122045" d="M175.583,110.32c4.92.22,12.33,10.12,12.33,10.12L180,129.82s-10-5.39-11.1-12.52C168.373,113.74,170.743,110.1,175.583,110.32Z" transform="translate(-58.863 -74.957)" fill="#c1507f"/>
        <path id="Trazado_122046" data-name="Trazado 122046" d="M175.187,149.93l-5.86,5,5.5,1.39s3.42-2,2.42-4.79Z" transform="translate(-48.877 -74.957)" fill="#b55b52"/>
        <path id="Trazado_122047" data-name="Trazado 122047" d="M171.93,157.86l2.86,2.77,2.68-4.26-5.5-1.39Z" transform="translate(-51.52 -74.957)" fill="#b55b52"/>
        <path id="Trazado_122048" data-name="Trazado 122048" d="M219.223,97.68c.24.51.16,1.07-.18,1.24s-.8-.12-1-.63-.16-1.07.17-1.24S218.983,97.16,219.223,97.68Z" transform="translate(-139.403 -74.957)" fill="#263238"/>
        <path id="Trazado_122049" data-name="Trazado 122049" d="M220.35,97l-1.41.26S220.03,97.91,220.35,97Z" transform="translate(-141.41 -74.957)" fill="#263238"/>
        <path id="Trazado_122050" data-name="Trazado 122050" d="M216.86,98.4a15.77,15.77,0,0,1-.3,4.21,2.49,2.49,0,0,0,2-.57Z" transform="translate(-137.24 -74.957)" fill="#a02724"/>
        <path id="Trazado_122051" data-name="Trazado 122051" d="M217.891,94.58a.29.29,0,0,0,.14-.08,2.8,2.8,0,0,1,2.34-.81.33.33,0,0,0,.4-.26.34.34,0,0,0-.26-.4,3.47,3.47,0,0,0-2.94,1,.33.33,0,0,0,0,.47A.34.34,0,0,0,217.891,94.58Z" transform="translate(-140.372 -74.957)" fill="#263238"/>
        <path id="Trazado_122052" data-name="Trazado 122052" d="M203.97,98.15c-.14,4.29,1.7,11.21,5.06,13.4,0,0-2.17,4.64-9.89,6.13-8.49,1.65-4.75-3.4-4.75-3.4,4.45-2,3.77-5.4,2.43-8.45Z" transform="translate(-104.721 -74.957)" fill="#b55b52"/>
        <path id="Trazado_122053" data-name="Trazado 122053" d="M242.45,122.06c-.39,2.18-.8,4.5-1.28,6.74s-.92,4.53-1.45,6.77-1.08,4.47-1.67,6.68c-.29,1.11-.62,2.2-.94,3.29l-.85,2.65a4.48,4.48,0,0,1-1.37,1.38,16.822,16.822,0,0,1-2.54,1.43,45.869,45.869,0,0,1-6.17,2.33c-2.15.69-4.38,1.28-6.63,1.81s-4.53,1-6.77,1.49l.36,3.89a84.34,84.34,0,0,0,14.48-1.47,45.389,45.389,0,0,0,7.29-2,21.739,21.739,0,0,0,3.72-1.79,10.74,10.74,0,0,0,3.69-3.47,7.684,7.684,0,0,0,.39-.69l.17-.38.13-.32.33-.86.65-1.71c.41-1.15.83-2.29,1.21-3.45.77-2.3,1.47-4.62,2.07-7a126.421,126.421,0,0,0,3-14.2Z" transform="translate(-165.17 -74.957)" fill="#b55b52"/>
        <path id="Trazado_122054" data-name="Trazado 122054" d="M258.39,131.28l39.49,47.8-61.14,10.3Z" transform="translate(-236.74 -74.957)" fill="#7e57c2"/>
        <path id="Trazado_122055" data-name="Trazado 122055" d="M254.52,157l-5.61-1.91-.65,5.24s5.12,2.74,7-1Z" transform="translate(-205.64 -74.957)" fill="#b55b52"/>
        <path id="Trazado_122056" data-name="Trazado 122056" d="M256.43,156.79l-1.86,4.93,4.15-1.38.65-5.24Z" transform="translate(-216.06 -74.957)" fill="#b55b52"/>
        <path id="Trazado_122057" data-name="Trazado 122057" d="M187.83,317.29l-7.09.52-2.11-16.28,7.09-.52Z" transform="translate(-68.58 -74.957)" fill="#b55b52"/>
        <path id="Trazado_122058" data-name="Trazado 122058" d="M149,297.65l-6.52,3.03-8.73-13.82,6.52-3.03Z" transform="translate(15.13 -74.957)" fill="#b55b52"/>
        <path id="Trazado_122059" data-name="Trazado 122059" d="M134.962,299.12l6.41-4.93a.56.56,0,0,1,.75,0l4.51,4.37a1.14,1.14,0,0,1-.15,1.69c-2.27,1.68-3.45,2.38-6.27,4.54-1.73,1.33-4.14,3.46-6.53,5.3s-4.29-.37-3.46-1.34c3.76-4.37,3.48-6.2,4-8.59A2,2,0,0,1,134.962,299.12Z" transform="translate(20.918 -74.957)" fill="#263238"/>
        <path id="Trazado_122060" data-name="Trazado 122060" d="M187.864,316.8h8a.58.58,0,0,1,.58.49l1.07,6.31a1.1,1.1,0,0,1-1.1,1.26c-2.78-.05-4.12-.21-7.63-.21-2.16,0-6.61.22-9.59.22s-3.21-2.94-2-3.21c5.53-1.2,7.68-2.85,9.51-4.42a1.83,1.83,0,0,1,1.16-.44Z" transform="translate(-76.154 -74.957)" fill="#263238"/>
        <path id="Trazado_122061" data-name="Trazado 122061" d="M179.65,301.54l1.17,9.04,7.01-1.17-1.08-8.4Z" transform="translate(-69.6 -74.957)" opacity="0.2"/>
        <path id="Trazado_122062" data-name="Trazado 122062" d="M145.27,283.84l-6.52,3.03,3.87,6.12,6.38-3.26Z" transform="translate(10.13 -74.957)" opacity="0.2"/>
        <path id="Trazado_122063" data-name="Trazado 122063" d="M218.168,153.51,189.718,159c-13.44-39.57-10.22-40.85-10.22-40.85a58.767,58.767,0,0,1,6.45-3l.38-.15c1.82-.66,2.2-.76,4.64-1.47,4.19-1,8.09-1.8,12.91-2.49a9.258,9.258,0,0,0,.92-.13c.88-.11,1.75-.2,2.58-.28.57-.07,1.13-.1,1.67-.14l1.84-.1c3.11-.15,5.33-.11,5.33-.11C214.6,135,215.788,142.1,218.168,153.51Z" transform="translate(-99.448 -74.957)" fill="#c1507f"/>
        <path id="Trazado_122064" data-name="Trazado 122064" d="M216.886,130.22a24.07,24.07,0,0,1-.83,12.41c-2.36-7.74-3.71-13-4.43-16.65C213.806,125.7,216.126,126.4,216.886,130.22Z" transform="translate(-131.086 -74.957)" opacity="0.2"/>
        <path id="Trazado_122065" data-name="Trazado 122065" d="M219.322,118.05c-4.74,3.09-7.77,10-8.57,13.93l11,9s6-13.39,4-16.81C223.742,120.57,221.112,116.87,219.322,118.05Z" transform="translate(-139.032 -74.957)" fill="#c1507f"/>
        <path id="Trazado_122066" data-name="Trazado 122066" d="M217.022,87.65c2.56,6.53,3.79,9.24,2.11,14.09-2.52,7.29-11.07,9.27-15.52,3.69-4-5-7.54-14.85-2.52-20.46a9.38,9.38,0,0,1,15.93,2.68Z" transform="translate(-120.642 -74.957)" fill="#b55b52"/>
        <path id="Trazado_122067" data-name="Trazado 122067" d="M216.9,94.8a6.3,6.3,0,0,1-.24,3.82c-.65,1.72-2,1.68-2.65.46s-1-3.32.07-4.68S216.495,93.4,216.9,94.8Z" transform="translate(-132.615 -74.957)" fill="#b55b52"/>
        <path id="Trazado_122068" data-name="Trazado 122068" d="M200.727,76.5a8.78,8.78,0,0,1,9.23,5.14c2.41,4.85,4.72,11.25,8.17,9.92-.65,1-2.7,2.11-3.4,1.65,2.33,2.33,2.79,4.22,3.29,9,.62,5.91,3.89,4.61,3.89,4.61s-3.82,6.19-16.33,8.38c-11.12,2-16.27-.54-17.77-2.62,1.54-.5,3.94-6,1.83-9.12s-5.76-11.75-5.16-15.21c-1.35,2.14-1.42,5.54-2.55,2.12s-1.64-7,2.55-11.25C188.207,75.29,199.1,73.42,200.727,76.5Z" transform="translate(-105.158 -74.957)" fill="#263238"/>
        <path id="Trazado_122069" data-name="Trazado 122069" d="M139,157.57S152.86,204,159.63,230.7c7.14,28.19,31.47,61.3,31.47,61.3l9-5s-14.76-31.63-21.68-57.94c-14-53.41-7.29-64.73-18.49-75.58Z" transform="translate(-41.22 -74.957)" fill="#263238"/>
        <path id="Trazado_122070" data-name="Trazado 122070" d="M141.3,292.88l11.18-6.24-1.63-3.3-13.19,6.07Z" transform="translate(7.74 -74.957)" fill="#7e57c2"/>
        <path id="Trazado_122071" data-name="Trazado 122071" d="M187.869,167.45c9.09,7,9.7,33.73,9.49,45.8-4.62-16.87-10.09-35.64-13.29-46.51C184.939,166,186.2,166.16,187.869,167.45Z" transform="translate(-83.579 -74.957)" opacity="0.2"/>
        <path id="Trazado_122072" data-name="Trazado 122072" d="M142.422,302.07a1,1,0,0,0,.25.06c.9.08,2.07-1.15,2.68-1.9a.17.17,0,0,0,0-.18.15.15,0,0,0-.19-.05c-.3,0-2.88.27-3.3,1.07a.56.56,0,0,0,0,.57,1,1,0,0,0,.56.43Zm2.4-1.73c-.85,1-1.63,1.5-2.12,1.46a.61.61,0,0,1-.48-.36.25.25,0,0,1,0-.25c.21-.42,1.57-.72,2.6-.85Z" transform="translate(10.718 -74.957)" fill="#7e57c2"/>
        <path id="Trazado_122073" data-name="Trazado 122073" d="M178.463,159s-1.77,56.15,2.2,77.29c4.12,22,16.69,72,16.69,72l10.22-1.29s-6.46-50.55-9.21-72.4c-3-23.83.93-79.64.93-79.64Z" transform="translate(-87.763 -74.957)" fill="#263238"/>
        <path id="Trazado_122074" data-name="Trazado 122074" d="M177.35,308.93l14.58-1.88-.18-3.46-15.86.69Z" transform="translate(-69.94 -74.957)" fill="#7e57c2"/>
        <path id="Trazado_122075" data-name="Trazado 122075" d="M142.674,299.93a5,5,0,0,0,2.21.36.17.17,0,0,0,.13-.1.2.2,0,0,0,0-.17c-.06-.06-1.28-1.64-2.3-1.71a.89.89,0,0,0-.73.26.58.58,0,0,0-.16.72A1.61,1.61,0,0,0,142.674,299.93Zm1.85.05c-.87,0-2.21-.4-2.42-.84a.311.311,0,0,1,.1-.33.57.57,0,0,1,.46-.17c.61.04,1.42.84,1.86,1.36Z" transform="translate(11.086 -74.957)" fill="#7e57c2"/>
        <path id="Trazado_122076" data-name="Trazado 122076" d="M188.5,318a12,12,0,0,0,2.23-.25.16.16,0,0,0,.13-.14.17.17,0,0,0-.09-.17c-.33-.17-3.2-1.62-4.05-1.13a.49.49,0,0,0-.27.44.92.92,0,0,0,.32.82A2.68,2.68,0,0,0,188.5,318Zm1.66-.49c-1.56.26-2.73.19-3.17-.19a.66.66,0,0,1-.21-.54.22.22,0,0,1,.1-.18c.42-.22,2.1.4,3.28.95Z" transform="translate(-79.416 -74.957)" fill="#7e57c2"/>
        <path id="Trazado_122077" data-name="Trazado 122077" d="M188.965,317.79a.17.17,0,0,0,.1,0,.15.15,0,0,0,.07-.15c0-.13-.34-3-1.93-3h-.14c-.46.05-.59.28-.62.47-.13.8,1.59,2.33,2.45,2.72Zm-1.77-2.87c1,0,1.43,1.68,1.56,2.4-.89-.52-2.05-1.73-2-2.21,0,0,0-.16.33-.19Z" transform="translate(-77.695 -74.957)" fill="#7e57c2"/>
        <path id="Trazado_122078" data-name="Trazado 122078" d="M207.008,151.77l1.7,2.29c.13.17-.07.42-.4.48l-29.83,5.78c-.26.05-.49,0-.53-.19l-.68-2.48c-.05-.18.15-.37.43-.42l28.81-5.58a.53.53,0,0,1,.5.12Z" transform="translate(-88.128 -74.957)" fill="#7e57c2"/>
        <path id="Trazado_122079" data-name="Trazado 122079" d="M207.008,151.77l1.7,2.29c.13.17-.07.42-.4.48l-29.83,5.78c-.26.05-.49,0-.53-.19l-.68-2.48c-.05-.18.15-.37.43-.42l28.81-5.58a.53.53,0,0,1,.5.12Z" transform="translate(-88.128 -74.957)" opacity="0.3"/>
        <path id="Trazado_122080" data-name="Trazado 122080" d="M182.588,155.72l.77-.14c.15,0,.26-.14.23-.23l-.91-3.22c0-.09-.17-.15-.32-.12l-.78.15a.219.219,0,0,0-.23.23l.91,3.22C182.288,155.7,182.428,155.75,182.588,155.72Z" transform="translate(-67.058 -74.957)" fill="#263238"/>
        <path id="Trazado_122081" data-name="Trazado 122081" d="M202.07,159.54l.77-.15c.15,0,.25-.13.23-.22l-.91-3.22c0-.09-.17-.15-.32-.12l-.78.15a.219.219,0,0,0-.23.23l.91,3.22C201.76,159.52,201.9,159.57,202.07,159.54Z" transform="translate(-106.02 -74.957)" fill="#263238"/>
        <path id="Trazado_122082" data-name="Trazado 122082" d="M225.82,415.5h-2.48l-7.08-34.88-1.24-6.11-7.72-38H177.7l-16,79h-2.48l16.35-80.45a1.2,1.2,0,0,1,1.19-1h31.53a1.2,1.2,0,0,1,1.19,1l6.78,33.38,1.24,6.1Z" transform="translate(-87.16 -74.957)" fill="#263238"/>
        <path id="Trazado_122083" data-name="Trazado 122083" d="M178.29,415.5h-2.48l-16-79H130.22l-7.72,38-1.24,6.09-7.08,34.88H111.7l8.32-41,1.24-6.08,6.73-33.34a1.2,1.2,0,0,1,1.19-1h31.57a1.2,1.2,0,0,1,1.19,1Z" transform="translate(7.89 -74.957)" fill="#263238"/>
        <path id="Trazado_122084" data-name="Trazado 122084" d="M125.74,324.87h86.08a7.44,7.44,0,0,1,7.45,7.45v.25a2.71,2.71,0,0,1-2.71,2.72H121a2.71,2.71,0,0,1-2.71-2.72v-.25a7.44,7.44,0,0,1,7.45-7.45Z" transform="translate(-39.68 -74.957)" fill="#f5ca56"/>
      </g>
    </g>
    <path id="Trazado_125852" data-name="Trazado 125852" d="M1229.092,943.469v-2.576l-.031-5.576v-2.622l9.488,5.393Z" transform="translate(-1072.742 3837.36)" fill="#26aab7"/>
    <path id="Trazado_125856" data-name="Trazado 125856" d="M1229.092,943.469v-2.576l-.031-5.576v-2.622l9.488,5.393Z" transform="translate(-1072.742 3946.36)" fill="#26aab7"/>
    <path id="Trazado_125858" data-name="Trazado 125858" d="M1229.092,943.469v-2.576l-.031-5.576v-2.622l9.488,5.393Z" transform="translate(-1072.742 4001.916)" fill="#26aab7"/>
    <path id="Trazado_125854" data-name="Trazado 125854" d="M1229.092,943.469v-2.576l-.031-5.576v-2.622l9.488,5.393Z" transform="translate(-1072.742 3892.916)" fill="#26aab7"/>
    <path id="Trazado_125857" data-name="Trazado 125857" d="M1229.092,943.469v-2.576l-.031-5.576v-2.622l9.488,5.393Z" transform="translate(-1072.742 4057.471)" fill="#26aab7"/>
  </g>
</svg>
