<svg xmlns="http://www.w3.org/2000/svg" width="352" height="252.371" viewBox="0 0 352 252.371">
  <g id="Grupo_55807" data-name="Grupo 55807" transform="translate(11739 5595.771)">
    <text id="Necesidad" transform="translate(-11610 -5558)" fill="#12263f" font-size="20" font-family="Roboto-Black, Roboto" font-weight="800"><tspan x="0" y="0">Necesidad</tspan></text>
    <g id="Grupo_55804" data-name="Grupo 55804" transform="translate(-11878 -10815)">
      <g id="Image_Place_Holder" data-name="Image Place Holder" transform="translate(139 5219.229)" opacity="0.1">
        <rect id="Image_Place_Holder-2" data-name="Image Place Holder" width="352" height="252.371" rx="10" transform="translate(0 0)" fill="#7d6eb2"/>
      </g>
      <g id="Baker-pana" transform="translate(121.694 5090.083)">
        <g id="Baker-cuate" transform="translate(17.306 282.813)">
          <g id="freepik--Table--inject-18" transform="translate(0 56.015)">
            <path id="Trazado_125325" data-name="Trazado 125325" d="M38.17,383.03l38.888-.24,38.888-.09,77.77-.17,77.77.17,38.888.09,38.888.24-38.888.25-38.888.09-77.77.16-77.77-.17-38.888-.08Z" transform="translate(-38.17 -382.53)" fill="#263238"/>
          </g>
          <path id="Trazado_125697" data-name="Trazado 125697" d="M495.263,271.529s10.088-9.685-5.27-22.646c-12.225-10.349-33.232-18.61-69.836-18.634-40.734,0-77.6,15.192-78.334,31.595s15.026,14.693,39.5,16.141c19.607,1.163,51.961.712,70.31.38,6.5,0,29.007-1.211,35.25-2.967C490.682,274.354,494.2,273.025,495.263,271.529Z" transform="translate(-329.804 -227.882)" fill="#c49d6a"/>
          <g id="Grupo_55390" data-name="Grupo 55390" transform="translate(118.64 3.769)" opacity="0.3">
            <path id="Trazado_125642" data-name="Trazado 125642" d="M406.28,235.279a140.207,140.207,0,0,1,4.463,16.949,2.539,2.539,0,0,1,0,1.519c-.522,1.021-2.089.783-3.11.237a23.212,23.212,0,0,1-5.792-5.1c-5.649-6.148-11.275-11.869-16.9-18.04A123.652,123.652,0,0,1,406.28,235.279Z" transform="translate(-384.94 -230.84)"/>
          </g>
          <g id="Grupo_55391" data-name="Grupo 55391" transform="translate(69.418 2.279)" opacity="0.3">
            <path id="Trazado_125643" data-name="Trazado 125643" d="M392.08,230.373a122.964,122.964,0,0,1,10.136,20.034c.641,1.567,1.187,3.513,0,4.748a3.2,3.2,0,0,1-3.228.76,9.258,9.258,0,0,1-3.038-1.733l-30.1-22.527a134.675,134.675,0,0,1,26.23-1.282Z" transform="translate(-365.85 -230.212)"/>
          </g>
          <g id="Grupo_55392" data-name="Grupo 55392" transform="translate(28.419 8.753)" opacity="0.3">
            <path id="Trazado_125644" data-name="Trazado 125644" d="M363.744,232.94a162.578,162.578,0,0,1,18.99,16.83c.949,1,1.946,2.492,1.139,3.608s-2.184.736-3.323.4a83.222,83.222,0,0,1-30.36-15.667,99.7,99.7,0,0,1,13.554-5.175Z" transform="translate(-350.19 -232.94)"/>
          </g>
          <rect id="Rectángulo_30222" data-name="Rectángulo 30222" width="317.94" height="8.237" transform="translate(317.94 56.015) rotate(180)" fill="#263238"/>
          <path id="Trazado_125698" data-name="Trazado 125698" d="M546.3,270.579s10.065-9.685-5.27-22.669c-12.249-10.326-33.233-18.586-69.859-18.61-40.734,0-77.574,15.192-78.334,31.595s15.026,14.693,39.5,16.141c19.631,1.163,51.961.688,70.31.38,6.5,0,29.007-1.211,35.274-2.967C541.693,273.38,545.182,272.051,546.3,270.579Z" transform="translate(-238.447 -229.187)" fill="#daa764"/>
          <g id="Grupo_55393" data-name="Grupo 55393" transform="translate(256.768 1.49)" opacity="0.3">
            <path id="Trazado_125646" data-name="Trazado 125646" d="M457.29,234.319a131.286,131.286,0,0,1,4.463,16.972,2.374,2.374,0,0,1,0,1.5c-.522,1.044-2.089.783-3.086.237a23.288,23.288,0,0,1-5.816-5.08c-5.626-6.148-11.275-11.869-16.9-18.064a125.8,125.8,0,0,1,21.34,4.439Z" transform="translate(-435.95 -229.88)"/>
          </g>
          <g id="Grupo_55394" data-name="Grupo 55394" transform="translate(202.608)" opacity="0.3">
            <path id="Trazado_125647" data-name="Trazado 125647" d="M443.09,229.413a123.913,123.913,0,0,1,10.136,20.034c.641,1.567,1.187,3.537,0,4.748a3.2,3.2,0,0,1-3.228.76,9.638,9.638,0,0,1-3.038-1.709l-30.1-22.551a134.68,134.68,0,0,1,26.23-1.282Z" transform="translate(-416.86 -229.252)"/>
          </g>
          <g id="Grupo_55395" data-name="Grupo 55395" transform="translate(169.345 8.744)" opacity="0.3">
            <path id="Trazado_125648" data-name="Trazado 125648" d="M414.823,232a167.091,167.091,0,0,1,18.871,16.83c.973,1,1.947,2.492,1.139,3.608s-2.184.76-3.323.4A83.531,83.531,0,0,1,401.15,237.2a102.9,102.9,0,0,1,13.673-5.2Z" transform="translate(-401.15 -232)"/>
          </g>
          <g id="Grupo_55396" data-name="Grupo 55396" transform="translate(160.21 37.542)" opacity="0.3">
            <path id="Trazado_125649" data-name="Trazado 125649" d="M395.29,245.168c.237-.38,2.041.38,5.293,1.258a64.278,64.278,0,0,0,14.243,2.042c12.248.475,29.458.641,48.377.783l48.519.261c12.438.119,20.129.332,20.2,1.211s-7.6,2.16-20.034,3.157-29.7,1.685-48.733,1.543a434.858,434.858,0,0,1-48.78-2.587,45.933,45.933,0,0,1-14.575-4.178C396.477,247,395.1,245.5,395.29,245.168Z" transform="translate(-395.273 -245.068)"/>
          </g>
        </g>
      </g>
    </g>
  </g>
</svg>
