<svg xmlns="http://www.w3.org/2000/svg" width="352" height="318.353" viewBox="0 0 352 318.353">
  <g id="mercado-Online_Groceries-pana" data-name="mercado-Online Groceries-pana" transform="translate(-21.961 -28.949)">
    <g id="freepik--background-complete--inject-302" transform="translate(24.158 28.949)">
      <path id="Trazado_126267" data-name="Trazado 126267" d="M238.158,95.544a15.205,15.205,0,0,0,2.425-1.106,9.534,9.534,0,0,0,4.3-6.01,10.216,10.216,0,0,0,.212-2.584,14.162,14.162,0,0,0-.561-2.819c-.523-1.963-1.091-4.1-1.705-6.381l-4.138-15.567-5-18.871c-.447-1.7-.9-3.418-1.372-5.176a9.519,9.519,0,0,0-2.486-4.661A9.178,9.178,0,0,0,225.07,29.8a10.9,10.9,0,0,0-5.6.508L169.82,43.387a9.223,9.223,0,0,0-5.222,3.683,9.019,9.019,0,0,0-1.554,6.108,21.41,21.41,0,0,0,.712,3.175c.28,1.069.553,2.13.834,3.183q.834,3.168,1.645,6.283,3.263,12.5,6.268,23.956,1.516,5.73,2.91,11.156a10.527,10.527,0,0,0,2.221,4.835,9.162,9.162,0,0,0,4.267,2.812c3.32,1.167,6.616-.417,9.761-1.1l9.095-2.357,27.367-7.063,7.45-1.887,1.94-.47c.44-.106.667-.136.667-.136s-.212.083-.644.2l-1.925.546-7.42,2.016-27.283,7.291-9.094,2.4-4.82,1.266a9.8,9.8,0,0,1-9.852-3.122,11.1,11.1,0,0,1-2.372-5.078q-1.432-5.411-2.941-11.148c-2.008-7.632-4.123-15.635-6.306-23.941q-.818-3.115-1.652-6.283-.424-1.576-.841-3.183a21.849,21.849,0,0,1-.758-3.282,9.769,9.769,0,0,1,1.675-6.6,9.966,9.966,0,0,1,5.684-4.024l49.656-13.005a11.588,11.588,0,0,1,5.9-.5,9.852,9.852,0,0,1,5.07,2.8,10.2,10.2,0,0,1,2.63,4.956c.455,1.751.909,3.479,1.349,5.176q2.649,10.231,4.911,18.894c1.5,5.783,2.85,11,4.039,15.589q.887,3.448,1.652,6.4a15.43,15.43,0,0,1,.576,2.9,10.1,10.1,0,0,1-.258,2.668,9.587,9.587,0,0,1-4.494,6.063,8.275,8.275,0,0,1-1.834.8C238.385,95.5,238.158,95.544,238.158,95.544Z" transform="translate(-58.117 -28.949)" fill="#e0e0e0"/>
      <path id="Trazado_126268" data-name="Trazado 126268" d="M223.683,86.152a2.712,2.712,0,0,1-.462.159l-1.334.379-4.972,1.372-16.673,4.487h-.136l-.061-.129-1.152-2.645-8.071-19.341.121.053-4.456,1.137-1.19.288L184.88,72a2.23,2.23,0,0,1,.4-.136l1.175-.341L190.9,70.29h.091v.083l8.177,19.3,1.122,2.675-.189-.1,16.734-4.381,4.994-1.273,1.349-.326A3.182,3.182,0,0,1,223.683,86.152Z" transform="translate(-63.605 -38.959)" fill="#e0e0e0"/>
      <path id="Trazado_126269" data-name="Trazado 126269" d="M200.61,86.369a.258.258,0,0,0,.114-.045l.341-.106,1.341-.379,5.017-1.379,17.34-4.661-.114.167c-.258-3.031-.538-6.359-.834-9.784-.144-1.758-.3-3.486-.432-5.138l.2.144-20.463,5.366-6.063,1.561-1.637.409-.424.091h-.152l.144-.045.417-.129,1.629-.462,6.063-1.652,20.463-5.472.182-.053v.189c.136,1.652.28,3.38.432,5.138.288,3.426.561,6.73.818,9.792v.129h-.129L207.5,84.6l-5.04,1.288-1.357.333-.349.083Z" transform="translate(-66.019 -37.63)" fill="#e0e0e0"/>
      <path id="Trazado_126270" data-name="Trazado 126270" d="M213.415,105.19a4.6,4.6,0,0,0-.28-.523,2.41,2.41,0,0,0-1.19-.993,2.334,2.334,0,0,0-2.183.273,2.274,2.274,0,1,0,3.13,3.289,2.4,2.4,0,0,0,.538-1.448c0-.379-.045-.591,0-.6a1.25,1.25,0,0,1,.144.6,2.433,2.433,0,0,1-.485,1.592,2.539,2.539,0,0,1-2.274,1.008,2.577,2.577,0,0,1-1.243-4.691,2.516,2.516,0,0,1,2.44-.235,2.478,2.478,0,0,1,1.213,1.144,1.258,1.258,0,0,1,.189.584Z" transform="translate(-69.313 -46.939)" fill="#e0e0e0"/>
      <path id="Trazado_126271" data-name="Trazado 126271" d="M233.43,99.9a3.933,3.933,0,0,0-.28-.523,2.448,2.448,0,0,0-1.19-.993,2.274,2.274,0,1,0,.947,3.562,2.425,2.425,0,0,0,.538-1.455c0-.371-.045-.584,0-.591a1.2,1.2,0,0,1,.144.591,2.41,2.41,0,0,1-.485,1.592,2.539,2.539,0,0,1-2.236,1.008,2.569,2.569,0,0,1-1.228-4.684,2.531,2.531,0,0,1,2.448-.235,2.448,2.448,0,0,1,1.213,1.144A1.243,1.243,0,0,1,233.43,99.9Z" transform="translate(-74.171 -45.659)" fill="#e0e0e0"/>
      <path id="Trazado_126272" data-name="Trazado 126272" d="M408.26,439.07c-17.014-8.337-23.562-27.753-25.707-45.753-.356-3.031-1.175-6.063-.152-8.943s4.055-5.146,6.927-4.3c2.38.7,3.744,3.138,5.305,5.078a17.741,17.741,0,0,0,8.041,5.623c2.054.69,4.5.932,6.222-.394,2.365-1.819,2.115-5.426,1.645-8.4l-2.66-16.605a27.917,27.917,0,0,1-.462-8.966c.493-2.963,2.13-5.9,4.835-7.124s6.457-.136,7.5,2.683a26.945,26.945,0,0,1,.659,3.683c.273,1.22,1.053,2.5,2.274,2.668s2.274-.864,3.031-1.872c2.607-3.471,4.093-7.655,5.449-11.8s2.637-8.375,4.919-12.073,5.729-6.889,9.951-7.791,9.163,1.038,10.883,5.047-.03,8.655-2.183,12.49a67.093,67.093,0,0,1-11.785,15.294,5.538,5.538,0,0,0-1.933,2.842c-.341,2.077,1.842,3.789,3.9,4.108,2.334.4,4.7-.2,7.063-.288s5.025.553,6.237,2.615c1.69,2.85-.364,6.427-2.546,8.9a57.6,57.6,0,0,1-15.332,12.27c-2.069,1.129-4.259,2.19-5.79,3.994s-2.175,4.646-.758,6.578,4.221,2.183,6.449,1.4,4.085-2.334,6.139-3.494c3.85-2.175,9.17-2.706,12.331.424a9.52,9.52,0,0,1,2.274,8.17,21.906,21.906,0,0,1-3.38,8.034,57.8,57.8,0,0,1-21.766,20.91c-8.973,4.744-17.621,6.988-27.564,4.987" transform="translate(-111.31 -126.892)" fill="#f5f5f5"/>
      <path id="Trazado_126273" data-name="Trazado 126273" d="M420.5,427.729a269.291,269.291,0,0,1,6.162-30.315q1.023-3.986,2.023-7.867c.667-2.577,1.334-5.131,2.137-7.579a135.725,135.725,0,0,1,5.434-13.877c1.94-4.327,3.941-8.337,5.836-12.126s3.751-7.23,5.57-10.322a106.508,106.508,0,0,1,9.64-13.937c1.258-1.516,2.274-2.721,2.979-3.5l.8-.887a1.95,1.95,0,0,1,.288-.288,3.129,3.129,0,0,1-.243.326l-.758.925c-.667.8-1.66,1.993-2.9,3.57a112.45,112.45,0,0,0-9.473,14c-1.789,3.092-3.608,6.571-5.495,10.33s-3.858,7.814-5.783,12.126a137.038,137.038,0,0,0-5.381,13.839c-.8,2.448-1.448,4.979-2.122,7.579s-1.334,5.207-2.016,7.859a276.925,276.925,0,0,0-6.2,30.239" transform="translate(-120.654 -127.487)" fill="#e0e0e0"/>
      <path id="Trazado_126274" data-name="Trazado 126274" d="M431.327,389.225a6.578,6.578,0,0,1-.485-1.22c-.28-.8-.652-1.97-1.084-3.418-.879-2.9-1.948-6.935-3.115-11.368s-2.274-8.473-3.213-11.368c-.455-1.44-.834-2.6-1.106-3.4a6.059,6.059,0,0,1-.364-1.258,5.905,5.905,0,0,1,.568,1.182c.333.758.758,1.925,1.273,3.35,1.016,2.857,2.205,6.866,3.373,11.33s2.167,8.382,2.956,11.429c.364,1.372.674,2.531.925,3.456A5.728,5.728,0,0,1,431.327,389.225Z" transform="translate(-121.008 -129.771)" fill="#e0e0e0"/>
      <path id="Trazado_126275" data-name="Trazado 126275" d="M471.443,382.28a8.7,8.7,0,0,1-1.516.417c-.963.235-2.365.576-4.085,1.046-3.441.917-8.155,2.349-13.286,4.153s-9.693,3.66-12.96,5.093c-1.637.7-2.948,1.3-3.858,1.713a8.673,8.673,0,0,1-1.44.6,8.412,8.412,0,0,1,1.341-.758c.887-.478,2.175-1.137,3.789-1.887,3.236-1.516,7.8-3.433,12.937-5.252a136.581,136.581,0,0,1,13.369-4.017c1.735-.424,3.153-.7,4.138-.872a8.4,8.4,0,0,1,1.569-.235Z" transform="translate(-123.996 -136.139)" fill="#e0e0e0"/>
      <path id="Trazado_126276" data-name="Trazado 126276" d="M412.448,444.229a1.906,1.906,0,0,1-.333-.424l-.872-1.281c-.758-1.122-1.781-2.766-3.031-4.812-2.516-4.093-5.82-9.852-9.375-16.272s-6.821-12.2-9.223-16.347l-2.933-4.9c-.311-.531-.568-.97-.758-1.334a1.978,1.978,0,0,1-.242-.493,2.5,2.5,0,0,1,.333.432c.235.349.523.758.864,1.281.758,1.114,1.789,2.759,3.031,4.8,2.516,4.1,5.813,9.852,9.375,16.279s6.821,12.2,9.223,16.34l2.888,4.9.758,1.341A2.2,2.2,0,0,1,412.448,444.229Z" transform="translate(-112.224 -144.76)" fill="#e0e0e0"/>
      <path id="Trazado_126277" data-name="Trazado 126277" d="M469.249,427a1.819,1.819,0,0,1-.47.288l-1.4.72-5.169,2.6c-4.358,2.2-10.353,5.305-16.969,8.731s-12.641,6.487-17.052,8.594c-2.205,1.053-3.994,1.887-5.244,2.44L421.5,451a2.207,2.207,0,0,1-.515.182,2.229,2.229,0,0,1,.47-.288l1.4-.72,5.161-2.6c4.365-2.19,10.36-5.305,16.976-8.731s12.641-6.487,17.045-8.594c2.205-1.053,4-1.887,5.252-2.44l1.44-.621a2.05,2.05,0,0,1,.523-.189Z" transform="translate(-120.771 -151.692)" fill="#e0e0e0"/>
      <path id="Trazado_126278" data-name="Trazado 126278" d="M30.627,113.572s-8.45,2.054-1.743,20.349,11.762,27.564,11.762,27.564,1.076,4.191-2.372,4.4-10.709-1.864-12.71,2.069c-2.077,4.085.546,8.5,6.412,12.793s18.371,14.187,19.515,15.089,2.077,2.887-.243,3.41-19.212.243-18.863,8.261,18.644,17.317,20.622,18.371,2.372,1.993,2.069,3.115-5.98.493-10.785.606-10.36,1.1-9.769,5.714S45.315,250.7,72.538,256.734l12.793,1.97,8.337-10.012c16.469-22.494,17.029-37.325,14.4-41.183s-7.42-.925-11.11,2.16-7.533,7.3-8.5,6.662-1.3-1.607-.508-3.706,8.42-21.16,3.388-27.42-17.537,5.1-19.629,6.245-2.683-1.016-2.433-2.41,3.122-17.1,4.7-24.2.621-12.126-3.63-13.839c-4.1-1.645-8.193,4.722-10.921,6.821s-4.684-1.743-4.684-1.743-2.319-10.3-9.352-28.473-14.923-13.99-14.923-13.99" transform="translate(-24.86 -58.036)" fill="#ebebeb"/>
      <path id="Trazado_126279" data-name="Trazado 126279" d="M89.387,267.16C84.271,253.8,75.578,229.888,68.007,209.4S53.57,170.387,48.522,157c-2.524-6.677-4.547-12.126-5.995-15.847-.7-1.864-1.25-3.312-1.622-4.312-.182-.485-.318-.856-.417-1.129s-.129-.387-.129-.387.061.121.167.371l.455,1.114,1.7,4.282c1.463,3.721,3.554,9.094,6.108,15.809,5.116,13.361,12.027,31.884,19.6,52.369s16.219,44.4,21.266,57.8" transform="translate(-28.613 -64.95)" fill="#e0e0e0"/>
      <path id="Trazado_126280" data-name="Trazado 126280" d="M39.06,189.83a4.547,4.547,0,0,1,.864.364c.546.25,1.326.637,2.274,1.122,1.91.978,4.547,2.4,7.382,4.017L56.87,199.5l2.213,1.25a4.166,4.166,0,0,1,.758.485,3.787,3.787,0,0,1-.864-.349c-.546-.25-1.326-.637-2.274-1.137-1.91-1-4.5-2.448-7.351-4.07l-7.306-4.115-2.221-1.235A3.457,3.457,0,0,1,39.06,189.83Z" transform="translate(-28.298 -77.707)" fill="#e0e0e0"/>
      <path id="Trazado_126281" data-name="Trazado 126281" d="M67.839,196.131c-.1-.053,2.592-5.563,6-12.315s6.268-12.179,6.366-12.126-2.592,5.563-6,12.315S67.96,196.177,67.839,196.131Z" transform="translate(-35.266 -72.569)" fill="#e0e0e0"/>
      <path id="Trazado_126282" data-name="Trazado 126282" d="M81.31,240.264a3.9,3.9,0,0,1,.614-.758l1.773-1.895c1.516-1.607,3.554-3.789,5.73-6.366s4.085-4.9,5.442-6.616l1.614-2.039a4.7,4.7,0,0,1,.629-.72,4.546,4.546,0,0,1-.5.811c-.349.508-.856,1.235-1.516,2.122-1.3,1.766-3.168,4.161-5.358,6.707s-4.282,4.744-5.836,6.3c-.758.758-1.41,1.395-1.864,1.811a4.935,4.935,0,0,1-.728.644Z" transform="translate(-38.528 -87.673)" fill="#e0e0e0"/>
      <path id="Trazado_126283" data-name="Trazado 126283" d="M52.46,239.11a3.417,3.417,0,0,1,.879.121l2.357.477c1.978.417,4.714,1.023,7.73,1.72s5.745,1.341,7.708,1.834l2.327.6a3.964,3.964,0,0,1,.841.273,3.349,3.349,0,0,1-.872-.121l-2.372-.44c-1.986-.417-4.722-1.023-7.738-1.72s-5.737-1.341-7.708-1.834l-2.327-.6a3.654,3.654,0,0,1-.826-.311Z" transform="translate(-31.543 -92.397)" fill="#e0e0e0"/>
      <path id="Trazado_126284" data-name="Trazado 126284" d="M59.62,277.87a7.165,7.165,0,0,1,1.114.167l3.032.6c2.546.523,6.063,1.273,9.928,2.13S81.075,282.41,83.6,283l3.032.758a6.454,6.454,0,0,1,1.091.318,5.417,5.417,0,0,1-1.122-.167l-3.031-.6c-2.546-.523-6.063-1.273-9.928-2.13s-7.412-1.7-9.943-2.266l-3.031-.758A5.241,5.241,0,0,1,59.62,277.87Z" transform="translate(-33.276 -104.152)" fill="#e0e0e0"/>
      <path id="Trazado_126285" data-name="Trazado 126285" d="M95.81,277.953a6.4,6.4,0,0,1,.758-.947l2.16-2.486c1.826-2.107,4.327-5.017,7.01-8.337s5.032-6.336,6.715-8.549l2-2.622a6.989,6.989,0,0,1,.758-.932,6.928,6.928,0,0,1-.637,1.023c-.44.652-1.084,1.576-1.9,2.706-1.629,2.274-3.949,5.305-6.631,8.632s-5.229,6.184-7.109,8.246c-.94,1.023-1.713,1.849-2.274,2.4A8.157,8.157,0,0,1,95.81,277.953Z" transform="translate(-42.039 -97.721)" fill="#e0e0e0"/>
    </g>
    <g id="freepik--Table--inject-302" transform="translate(31.737 342.318)">
      <path id="Trazado_126286" data-name="Trazado 126286" d="M360.958,477.417c0,.114-73.006.2-163.042.2s-163.057-.083-163.057-.2,72.991-.2,163.057-.2S360.958,477.311,360.958,477.417Z" transform="translate(-34.86 -477.22)" fill="#263238"/>
    </g>
    <g id="freepik--Screen--inject-302" transform="translate(191.783 56.463)">
      <path id="Trazado_126287" data-name="Trazado 126287" d="M376.928,65.562H354.949a5.206,5.206,0,0,0-5.305,5.107v3.65a5.206,5.206,0,0,1-5.305,5.107H301.481a5.239,5.239,0,0,1-5.343-5.114V70.627a5.228,5.228,0,0,0-5.305-5.107H263.861c-9.558,0-17.309,7.09-17.317,15.841l-.053,254.075c0,8.746,7.742,15.837,17.295,15.841l113.181.062c9.557.008,17.31-7.084,17.31-15.834l.053-254.082a15.2,15.2,0,0,0-5.094-11.247A18.156,18.156,0,0,0,376.928,65.562Z" transform="translate(-246.147 -65.318)" fill="#fff"/>
      <path id="Trazado_126288" data-name="Trazado 126288" d="M376.818,65.48h.591a12.753,12.753,0,0,1,1.751.118,17.414,17.414,0,0,1,6.495,2.082,16.654,16.654,0,0,1,3.941,2.928,15.606,15.606,0,0,1,3.3,4.733,15.192,15.192,0,0,1,1.3,6.433v7.467c0,21.11.038,51.652.061,89.382s0,82.679,0,132.547v23.747a15.288,15.288,0,0,1-2.872,9.327,17.846,17.846,0,0,1-3.6,3.657,18.507,18.507,0,0,1-10,3.553c-3.623.1-7.23,0-10.868.042H264.872a19.6,19.6,0,0,1-11.285-2.908,16.38,16.38,0,0,1-6.821-8.675,16.15,16.15,0,0,1-.72-5.357V81.511c0-.638.061-1.284.1-1.922a8.929,8.929,0,0,1,.349-1.888,15.723,15.723,0,0,1,3.645-6.718,18.309,18.309,0,0,1,14.1-5.718h25.889a5.939,5.939,0,0,1,3.41.867,5.361,5.361,0,0,1,2.115,2.547,7.66,7.66,0,0,1,.349,3.13v1.6a11.035,11.035,0,0,0,.053,1.513,4.842,4.842,0,0,0,1.387,2.651,5.182,5.182,0,0,0,2.645,1.5,6.4,6.4,0,0,0,1.554.146h43.07a5.465,5.465,0,0,0,2.114-.694,5.043,5.043,0,0,0,2.425-3.192,7.856,7.856,0,0,0,.136-1.929V71.5a9.394,9.394,0,0,1,.091-1.846,4.956,4.956,0,0,1,.652-1.693,5.353,5.353,0,0,1,2.736-2.193,9.47,9.47,0,0,1,3.441-.333h0a8.787,8.787,0,0,0-3.38.34,5.182,5.182,0,0,0-2.675,2.172,5.079,5.079,0,0,0-.629,1.652,10.258,10.258,0,0,0-.083,1.818v1.895a8.653,8.653,0,0,1-.136,1.964,5.222,5.222,0,0,1-2.5,3.31,5.637,5.637,0,0,1-2.205.694c-.8.062-1.576,0-2.38,0H301.645a6.543,6.543,0,0,1-1.629-.146,5.4,5.4,0,0,1-2.789-1.582,5.1,5.1,0,0,1-1.372-2.776,10.63,10.63,0,0,1-.053-1.374V71.837a7.552,7.552,0,0,0-.341-3.033,5.037,5.037,0,0,0-2-2.408,5.673,5.673,0,0,0-3.236-.819H264.334A17.935,17.935,0,0,0,250.5,71.2a15.373,15.373,0,0,0-3.554,6.579c-.174.6-.227,1.228-.349,1.846a10.411,10.411,0,0,0-.091,1.888V334.557a15.671,15.671,0,0,0,.7,5.232,15.971,15.971,0,0,0,6.669,8.432A18.989,18.989,0,0,0,264.865,351h102.07c3.63,0,7.268.055,10.845-.042a17.968,17.968,0,0,0,9.724-3.47,17.272,17.272,0,0,0,3.509-3.56,14.882,14.882,0,0,0,2.8-9.063V311.115c0-49.889.053-94.83.076-132.547s.076-68.272.1-89.382V81.719a15.1,15.1,0,0,0-1.266-6.384,15.536,15.536,0,0,0-3.251-4.705,17.732,17.732,0,0,0-10.353-5.01,15.211,15.211,0,0,0-1.743-.146A3.364,3.364,0,0,1,376.818,65.48Z" transform="translate(-246.037 -65.253)" fill="#263238"/>
      <path id="Trazado_126289" data-name="Trazado 126289" d="M279.308,102.53c0,.068-2.865.159-6.389.182s-6.389,0-6.389-.076,2.857-.159,6.389-.189S279.308,102.454,279.308,102.53Z" transform="translate(-250.999 -74.256)" fill="#263238"/>
      <path id="Trazado_126290" data-name="Trazado 126290" d="M279.34,106.84c0,.076-2.857.159-6.381.189s-6.389,0-6.389-.083,2.857-.159,6.381-.189S279.34,106.764,279.34,106.84Z" transform="translate(-251.009 -75.3)" fill="#263238"/>
      <path id="Trazado_126291" data-name="Trazado 126291" d="M279.378,111.15c0,.076-2.857.159-6.389.189s-6.389,0-6.389-.083,2.857-.159,6.389-.189S279.378,111.074,279.378,111.15Z" transform="translate(-251.016 -76.343)" fill="#263238"/>
      <rect id="Rectángulo_30361" data-name="Rectángulo 30361" width="56.879" height="56.879" transform="translate(13.379 215.888)" fill="#f5f5f5"/>
      <path id="Trazado_126292" data-name="Trazado 126292" d="M317.709,424.679c-4.631-6.465-14.46-10.891-22.448-9.7-6.472.963-12.2,3.971-15.339,10.4a2.918,2.918,0,0,0,2.274,4.206,133.281,133.281,0,0,0,32.46-.106c1.66-.212,3.638-.674,3.751-2.728a3.282,3.282,0,0,0-.7-2.069Z" transform="translate(-254.166 -176.248)" fill="#f5ca56"/>
      <g id="Grupo_55434" data-name="Grupo 55434" transform="translate(25.755 238.536)" opacity="0.5">
        <path id="Trazado_126293" data-name="Trazado 126293" d="M317.808,424.679c-4.631-6.465-14.46-10.891-22.448-9.7-6.472.963-12.2,3.971-15.339,10.4" transform="translate(-280.02 -414.785)" fill="#fff"/>
      </g>
      <path id="Trazado_126294" data-name="Trazado 126294" d="M295.407,424.945a3.718,3.718,0,0,1-.811-.9,7.321,7.321,0,0,1-1.228-2.683,13.182,13.182,0,0,1-.243-2.925,3.676,3.676,0,0,1,.1-1.205,3.7,3.7,0,0,1,.182,1.2,21.7,21.7,0,0,0,.341,2.842,9.464,9.464,0,0,0,1.076,2.622A4.751,4.751,0,0,1,295.407,424.945Z" transform="translate(-257.435 -176.84)" fill="#f5f5f5"/>
      <path id="Trazado_126295" data-name="Trazado 126295" d="M304.915,424.419c-.114,0,.053-1.834-.189-4.062s-.758-3.979-.659-4.017A13.368,13.368,0,0,1,304.915,424.419Z" transform="translate(-260.084 -176.625)" fill="#f5f5f5"/>
      <path id="Trazado_126296" data-name="Trazado 126296" d="M314.545,423.755c-.114-.045.424-1.266.553-2.872s-.167-2.9-.053-2.933A6.412,6.412,0,0,1,314.545,423.755Z" transform="translate(-262.621 -177.015)" fill="#f5f5f5"/>
      <g id="Grupo_55435" data-name="Grupo 55435" transform="translate(43.572 239.033)" opacity="0.3">
        <path id="Trazado_126297" data-name="Trazado 126297" d="M303.53,415.44l.061.114h0Z" transform="translate(-303.53 -415.44)"/>
      </g>
      <rect id="Rectángulo_30362" data-name="Rectángulo 30362" width="57.538" height="86.254" transform="translate(13.379 51.584)" fill="#f5f5f5"/>
      <rect id="Rectángulo_30363" data-name="Rectángulo 30363" width="57.538" height="86.254" transform="translate(13.379 133.538)" fill="#f5f5f5"/>
      <rect id="Rectángulo_30364" data-name="Rectángulo 30364" width="57.538" height="80.532" transform="translate(76.396 119.535)" fill="#f5f5f5"/>
      <rect id="Rectángulo_30365" data-name="Rectángulo 30365" width="57.538" height="78.076" transform="translate(75.926 194.682)" fill="#f5f5f5"/>
      <rect id="Rectángulo_30366" data-name="Rectángulo 30366" width="57.538" height="71.24" transform="translate(76.396 52.007)" fill="#f5f5f5"/>
      <path id="Trazado_126298" data-name="Trazado 126298" d="M307.805,171.113v23.911c0,1.046-.841,2.13-2.387,2.948a14.611,14.611,0,0,1-6.631,1.379h-.038c-5.646,0-9.019-2.228-9.019-4.327V171.068c0-2.334,1.72-4.767,3.448-7.177a10.473,10.473,0,0,0,1.516-5.305v-.44h-.159a1.258,1.258,0,0,1-1.349-1.152v-1.008a1.266,1.266,0,0,1,1.349-1.167h8.481a1.379,1.379,0,0,1,1.243.7,1.06,1.06,0,0,1,.106.462v1.008a1.266,1.266,0,0,1-1.349,1.152h-.2v.44a10.151,10.151,0,0,0,1.516,5.305c1.728,2.41,3.441,4.843,3.448,7.177Z" transform="translate(-256.616 -93.614)" fill="#fafafa"/>
      <path id="Trazado_126299" data-name="Trazado 126299" d="M307.706,171.06v-.243a6.94,6.94,0,0,0-.1-.712,9.276,9.276,0,0,0-1-2.577,36.072,36.072,0,0,0-2.448-3.691,10.512,10.512,0,0,1-1.516-5.722v-.136h.076a1.22,1.22,0,0,0,1.364-.9v-1.016a.932.932,0,0,0-.341-.834,1.349,1.349,0,0,0-.917-.3h-8.3a1.349,1.349,0,0,0-1.046.364.932.932,0,0,0-.243.477,5.454,5.454,0,0,0,0,.621v.637a.879.879,0,0,0,.235.493,1.334,1.334,0,0,0,1.091.387h.174v.189a14.676,14.676,0,0,1-.318,2.91,7.965,7.965,0,0,1-1.144,2.819,23.177,23.177,0,0,0-3.13,5.305,6.54,6.54,0,0,0-.333,1.516v23.388a7.173,7.173,0,0,0,.061,1.364,2.568,2.568,0,0,0,.629,1.129,6.342,6.342,0,0,0,2.2,1.516,14.718,14.718,0,0,0,5.146,1.053,17.848,17.848,0,0,0,5-.447,7.92,7.92,0,0,0,4.077-2.183,2.706,2.706,0,0,0,.531-.94,3.548,3.548,0,0,0,.091-1.076v-6.336c0-5.252.045-9.5.061-12.475v-3.4c0-.8.038-1.182.038-1.182a9.512,9.512,0,0,1,.046,1.182c0,.8,0,1.94.038,3.4,0,2.971,0,7.223.061,12.475v6.336a3.874,3.874,0,0,1-.091,1.167,3.032,3.032,0,0,1-.591,1.061,8.117,8.117,0,0,1-4.244,2.274,18.007,18.007,0,0,1-5.1.477,15.066,15.066,0,0,1-5.305-1.076,6.616,6.616,0,0,1-2.334-1.584,3.031,3.031,0,0,1-.72-1.3,7.342,7.342,0,0,1-.076-1.455V170.6a6.664,6.664,0,0,1,.349-1.607,23.251,23.251,0,0,1,3.191-5.389,10.36,10.36,0,0,0,1.41-5.517l.182.182a1.675,1.675,0,0,1-1.349-.508,1.251,1.251,0,0,1-.326-.682V156.4a5.225,5.225,0,0,1,0-.674,1.258,1.258,0,0,1,.341-.659,1.667,1.667,0,0,1,1.288-.47h8.3a1.668,1.668,0,0,1,1.1.371,1.258,1.258,0,0,1,.44,1.053c0,.356,0,.674,0,1.053a1.47,1.47,0,0,1-1.629,1.122l.129-.129a10.269,10.269,0,0,0,1.425,5.608,35.923,35.923,0,0,1,2.41,3.744,8.68,8.68,0,0,1,.94,2.63,5.372,5.372,0,0,1,.068.72A.811.811,0,0,1,307.706,171.06Z" transform="translate(-256.517 -93.552)" fill="#263238"/>
      <path id="Trazado_126300" data-name="Trazado 126300" d="M303.989,159.107a36.24,36.24,0,0,1-7.579,0A36.242,36.242,0,0,1,303.989,159.107Z" transform="translate(-258.234 -93.923)" fill="#263238"/>
      <path id="Trazado_126301" data-name="Trazado 126301" d="M307.29,180.088a2.706,2.706,0,0,0-2.584.114,9.664,9.664,0,0,1-2.486,1.069,4.721,4.721,0,0,1-3.032-.758A19.114,19.114,0,0,0,296.376,179a5.472,5.472,0,0,0-5.646,1.326v20.463s1.129,3.494,9.057,2.948,7.3-4.047,7.3-4.047Z" transform="translate(-256.858 -100.607)" fill="#dee4f0"/>
      <path id="Trazado_126302" data-name="Trazado 126302" d="M387.681,390.094h0v23.714c0,1.046-.834,2.114-2.38,2.933a14.4,14.4,0,0,1-6.586,1.372h0c-5.616,0-8.966-2.221-8.966-4.3V390.124h0v-.053c0-2.319,1.713-4.737,3.426-7.124a10.452,10.452,0,0,0,1.516-5.252v-.432h-.2a1.258,1.258,0,0,1-1.341-1.152v-1a1.251,1.251,0,0,1,1.341-1.152h8.428a1.364,1.364,0,0,1,1.235.7,1.045,1.045,0,0,1,.1.455v1a1.25,1.25,0,0,1-1.334,1.152h-.159v.432a10.155,10.155,0,0,0,1.478,5.252c1.72,2.387,3.418,4.8,3.433,7.124C387.689,390.064,387.681,390.079,387.681,390.094Z" transform="translate(-275.991 -166.362)" fill="#fafafa"/>
      <path id="Trazado_126303" data-name="Trazado 126303" d="M387.609,390.029a1.925,1.925,0,0,0,0-.243,6.256,6.256,0,0,0-.091-.712,9.282,9.282,0,0,0-.993-2.554,34.258,34.258,0,0,0-2.44-3.668,10.459,10.459,0,0,1-1.516-5.684v-.144h.129a1.205,1.205,0,0,0,1.349-.9v-1.008a.963.963,0,0,0-.341-.826,1.371,1.371,0,0,0-.909-.3H374.55a1.334,1.334,0,0,0-1.038.364.9.9,0,0,0-.243.478,5.254,5.254,0,0,0,0,.614v.629a.879.879,0,0,0,.235.493,1.319,1.319,0,0,0,1.076.379h.182v.189a14.451,14.451,0,0,1-.318,2.887,7.844,7.844,0,0,1-1.137,2.8,22.9,22.9,0,0,0-3.107,5.305,6.065,6.065,0,0,0-.326,1.516v23.229a7.042,7.042,0,0,0,.061,1.349,2.614,2.614,0,0,0,.629,1.129,6.382,6.382,0,0,0,2.183,1.516,14.71,14.71,0,0,0,5.078,1.016,17.662,17.662,0,0,0,4.972-.447,7.776,7.776,0,0,0,4.047-2.167,2.677,2.677,0,0,0,.53-.932,3.523,3.523,0,0,0,.083-1.069v-6.29c0-5.222.046-9.451.061-12.4,0-1.448,0-2.577.038-3.365a9.081,9.081,0,0,0,0-1.175,7.664,7.664,0,0,1,.045,1.175c0,.758,0,1.917,0,3.365,0,2.948.038,7.177.068,12.4v6.29a3.632,3.632,0,0,1-.1,1.16,3.032,3.032,0,0,1-.584,1.053,8.086,8.086,0,0,1-4.214,2.274,17.824,17.824,0,0,1-5.07.478,14.929,14.929,0,0,1-5.245-1.069,6.609,6.609,0,0,1-2.213-1.554,3.031,3.031,0,0,1-.712-1.288,7.23,7.23,0,0,1-.076-1.44V389.6a6.747,6.747,0,0,1,.349-1.607,23.03,23.03,0,0,1,3.168-5.343,10.374,10.374,0,0,0,1.4-5.479l.174.174a1.667,1.667,0,0,1-1.334-.5,1.19,1.19,0,0,1-.318-.682c0-.258,0-.447,0-.674a5.129,5.129,0,0,1,0-.675,1.288,1.288,0,0,1,.341-.652,1.667,1.667,0,0,1,1.281-.47h8.246a1.629,1.629,0,0,1,1.091.371,1.25,1.25,0,0,1,.44,1.046v1.046a1.516,1.516,0,0,1-1.622,1.122l.129-.129a10.231,10.231,0,0,0,1.41,5.563,33.157,33.157,0,0,1,2.395,3.721,8.685,8.685,0,0,1,.94,2.615,4.153,4.153,0,0,1,.061.712C387.631,389.945,387.624,390.029,387.609,390.029Z" transform="translate(-275.918 -166.297)" fill="#263238"/>
      <path id="Trazado_126304" data-name="Trazado 126304" d="M383.893,378.137a35.806,35.806,0,0,1-7.5,0A35.806,35.806,0,0,1,383.893,378.137Z" transform="translate(-277.599 -160.973)" fill="#263238"/>
      <path id="Trazado_126305" data-name="Trazado 126305" d="M387.161,398.987a2.675,2.675,0,0,0-2.569.106,9.672,9.672,0,0,1-2.463,1.069,4.759,4.759,0,0,1-3.032-.758,18.537,18.537,0,0,0-2.8-1.516,5.426,5.426,0,0,0-5.6,1.326v20.356s1.114,3.479,8.988,2.933,7.26-4.024,7.26-4.024Z" transform="translate(-276.221 -172.088)" fill="#dee4f0"/>
      <path id="Trazado_126307" data-name="Trazado 126307" d="M398.044,278.46a1.667,1.667,0,0,0-1.592.182c-.114.076-.235.167-.349.258a21.789,21.789,0,0,1-13.308,4.267c-9.314,0-17.029-5.222-18.409-12.043v-1.288a.932.932,0,1,0-1.857,0v3.607a.916.916,0,0,0,.053.25,11.17,11.17,0,0,0-.993,4.5c0,7.874,8.337,14.271,18.651,14.271,8.647,0,15.915-4.494,18.037-10.61a.167.167,0,0,0,.045-.1,3.79,3.79,0,0,0,.4-1.569,1.781,1.781,0,0,0-.682-1.728Z" transform="translate(-274.015 -128.617)" fill="#f5ca56"/>
      <g id="Grupo_55437" data-name="Grupo 55437" transform="translate(89.674 145.953)" opacity="0.3">
        <path id="Trazado_126308" data-name="Trazado 126308" d="M364.36,276.5s8.784,20.2,32.589,6.063c0,0-6.131,6.366-14.127,7.912C375.577,291.862,364.845,287.777,364.36,276.5Z" transform="translate(-364.36 -276.5)"/>
      </g>
      <path id="Trazado_126309" data-name="Trazado 126309" d="M409.895,282.5c-.144.349-.712.447-1.266.212s-.887-.712-.758-1.061.712-.44,1.266-.2S410.046,282.153,409.895,282.5Z" transform="translate(-285.214 -131.445)" fill="#263238"/>
      <path id="Trazado_126310" data-name="Trazado 126310" d="M418.052,108.082a.546.546,0,0,1-.189,0h-2.531l-6.692.061h-.053v-.053c-.053-.356-.106-.758-.167-1.106-.462-3.244-.872-6.139-1.144-8.033h-2.236a.644.644,0,0,1-.159,0h2.456v.038c.28,1.887.712,4.782,1.2,8.018.053.379.106.758.159,1.107l-.061-.053h9.413Z" transform="translate(-284.497 -73.412)" fill="#263238"/>
      <path id="Trazado_126311" data-name="Trazado 126311" d="M409.2,106.67h2.744l6.942-.068-.061.053c.2-1.175.417-2.44.637-3.744.114-.675.227-1.341.341-1.97l.061.076h-8.185l8.185-.068h.076v.076l-.333,1.963c-.227,1.311-.447,2.577-.644,3.789v.045h-9.739Z" transform="translate(-285.342 -73.894)" fill="#263238"/>
      <path id="Trazado_126312" data-name="Trazado 126312" d="M412.376,114.1a.735.735,0,0,0-.053-.227.9.9,0,0,0-.349-.485.917.917,0,0,0-.841-.114.887.887,0,0,0,0,1.66.871.871,0,0,0,.841-.121.924.924,0,0,0,.341-.485c.046-.144.046-.227.053-.227a.478.478,0,0,1,0,.235.978.978,0,0,1-.341.553.99.99,0,1,1,.008-1.569.94.94,0,0,1,.341.546.433.433,0,0,1,0,.235Z" transform="translate(-285.839 -76.842)" fill="#263238"/>
      <path id="Trazado_126313" data-name="Trazado 126313" d="M420.38,114.052a.676.676,0,0,0-.053-.22.879.879,0,0,0-.349-.485.909.909,0,1,0,.008,1.4.993.993,0,0,0,.349-.493c.038-.144.038-.227.045-.227a.477.477,0,0,1,0,.235.955.955,0,0,1-.333.553.993.993,0,0,1-1.607-.758,1.008,1.008,0,0,1,.659-.947.978.978,0,0,1,.932.152.887.887,0,0,1,.341.546.432.432,0,0,1,.008.243Z" transform="translate(-287.78 -76.827)" fill="#263238"/>
      <circle id="Elipse_4254" data-name="Elipse 4254" cx="2.683" cy="2.683" r="2.683" transform="matrix(0.977, -0.211, 0.211, 0.977, 130.807, 23.987)" fill="#f5ca56"/>
      <path id="Trazado_126314" data-name="Trazado 126314" d="M423,98.27v2.039h-.478v-1.66h-.409V98.27Z" transform="translate(-288.669 -73.248)" fill="#fff"/>
      <rect id="Rectángulo_30367" data-name="Rectángulo 30367" width="99.38" height="26.086" rx="13.043" transform="translate(24.429 246.726)" fill="#727997"/>
      <rect id="Rectángulo_30369" data-name="Rectángulo 30369" width="99.38" height="26.086" rx="13.043" transform="translate(20.571 246.726)" fill="#3c4973"/>
      <path id="Trazado_126315" data-name="Trazado 126315" d="M333.214,440.222c0,1.334-.97,2.145-2.569,2.145h-1.516v1.872h-.879V438.07h2.41C332.244,438.07,333.214,438.881,333.214,440.222Zm-.879,0c0-.887-.591-1.387-1.72-1.387H329.1V441.6h1.516c1.129,0,1.72-.5,1.72-1.379Z" transform="translate(-265.943 -181.886)" fill="#fff"/>
      <path id="Trazado_126316" data-name="Trazado 126316" d="M339.745,442.683h-3.251l-.674,1.516h-.909l2.8-6.169h.872l2.8,6.169h-.925Zm-.311-.7-1.326-3.032-1.334,3.032Z" transform="translate(-267.555 -181.877)" fill="#fff"/>
      <path id="Trazado_126317" data-name="Trazado 126317" d="M346.179,442.1v2.137h-.872v-2.152l-2.448-4.017h.94l1.97,3.251,1.986-3.251h.871Z" transform="translate(-269.48 -181.886)" fill="#fff"/>
      <path id="Trazado_126318" data-name="Trazado 126318" d="M300.8,299.323a11.148,11.148,0,0,0-9.39-12.732.864.864,0,0,0-1.1,1.167,13.46,13.46,0,0,0,10.474,11.883" transform="translate(-256.738 -133.592)" fill="#455a64"/>
      <path id="Trazado_126319" data-name="Trazado 126319" d="M282.793,323.62c2.812,5.8,6.821,9.7,11.861,9.89,1,0,1.758-.621,2.713-.682a6.169,6.169,0,0,1,1.6.606,2.426,2.426,0,0,0,.841.189c5.169-.28,9.58-3.918,12.55-10,4.13-8.526,2.857-17.681-2.85-20.463a13.643,13.643,0,0,0-2.342-.91,9.233,9.233,0,0,0-2.834-.333,21.093,21.093,0,0,0-6.487,1.463l-.28.106c-4.638-2.054-8.337-2.061-11.937-.326C279.92,305.939,278.655,315.094,282.793,323.62Z" transform="translate(-254.347 -139.383)" fill="#c1507f"/>
      <path id="Trazado_126320" data-name="Trazado 126320" d="M283.53,315.8a4.548,4.548,0,0,1-.47-1.713,9.208,9.208,0,0,1,2.9-7.836,4.3,4.3,0,0,1,1.47-.993c.038.053-.53.424-1.281,1.19a10.073,10.073,0,0,0-2.812,7.579C283.409,315.128,283.6,315.779,283.53,315.8Z" transform="translate(-254.986 -139.24)" fill="#fafafa"/>
      <path id="Trazado_126321" data-name="Trazado 126321" d="M284.919,323.907c-.106,0-.288-.379-.409-.894s-.129-.962,0-.993.288.379.409.9S285.025,323.884,284.919,323.907Z" transform="translate(-255.33 -143.933)" fill="#fafafa"/>
      <path id="Trazado_126322" data-name="Trazado 126322" d="M315.711,285c0,.076-1.076.485-2.683,1.448a22.485,22.485,0,0,0-2.675,1.9,23.456,23.456,0,0,0-2.789,2.865,23.17,23.17,0,0,0-2.274,3.335,21.916,21.916,0,0,0-1.334,2.994c-.629,1.773-.811,2.925-.887,2.91a3.169,3.169,0,0,1,.091-.819,6.925,6.925,0,0,1,.189-.947,12.447,12.447,0,0,1,.341-1.228,18.671,18.671,0,0,1,1.281-3.085,20.3,20.3,0,0,1,5.154-6.3,19.494,19.494,0,0,1,2.744-1.864,11.551,11.551,0,0,1,1.144-.576,8.316,8.316,0,0,1,.887-.379A3.664,3.664,0,0,1,315.711,285Z" transform="translate(-259.846 -133.234)" fill="#263238"/>
      <path id="Trazado_126323" data-name="Trazado 126323" d="M400.19,177.191c-4.631-6.457-14.46-10.883-22.448-9.693-6.472.962-12.2,3.971-15.339,10.4a2.925,2.925,0,0,0,2.274,4.206,133.282,133.282,0,0,0,32.46-.106c1.667-.212,3.638-.674,3.751-2.728a3.3,3.3,0,0,0-.7-2.077Z" transform="translate(-274.138 -96.831)" fill="#f5ca56"/>
      <path id="Trazado_126324" data-name="Trazado 126324" d="M377.888,177.463a3.714,3.714,0,0,1-.811-.9,7.381,7.381,0,0,1-1.228-2.683,13.178,13.178,0,0,1-.243-2.925,4.025,4.025,0,0,1,.1-1.213,3.563,3.563,0,0,1,.182,1.2,21.972,21.972,0,0,0,.349,2.85,9.017,9.017,0,0,0,1.076,2.622,4.694,4.694,0,0,1,.576,1.053Z" transform="translate(-277.407 -97.399)" fill="#263238"/>
      <path id="Trazado_126325" data-name="Trazado 126325" d="M387.4,176.929c-.121,0,.045-1.834-.189-4.062s-.758-3.979-.659-4.017a10.254,10.254,0,0,1,1.046,3.971A10.429,10.429,0,0,1,387.4,176.929Z" transform="translate(-280.057 -97.134)" fill="#263238"/>
      <path id="Trazado_126326" data-name="Trazado 126326" d="M397,176.275c-.106-.045.424-1.273.553-2.88s-.167-2.9-.053-2.925a6.411,6.411,0,0,1-.5,5.805Z" transform="translate(-282.584 -97.581)" fill="#263238"/>
      <g id="Grupo_55439" data-name="Grupo 55439" transform="translate(106.074 71.3)" opacity="0.3">
        <path id="Trazado_126327" data-name="Trazado 126327" d="M386,168l.061.114h0Z" transform="translate(-386 -168)"/>
      </g>
      <g id="Grupo_55440" data-name="Grupo 55440" transform="translate(105.301 71.203)" opacity="0.3">
        <path id="Trazado_126328" data-name="Trazado 126328" d="M385.821,168.11a6.881,6.881,0,0,0,1.137,8.124A11.118,11.118,0,0,0,385.821,168.11Z" transform="translate(-384.98 -168.11)"/>
      </g>
      <g id="Grupo_55441" data-name="Grupo 55441" transform="translate(96.861 72.607)" opacity="0.3">
        <path id="Trazado_126329" data-name="Trazado 126329" d="M376.531,176.416a10.612,10.612,0,0,1-1.288-4.327,6.411,6.411,0,0,0-.288-1.978,5.04,5.04,0,0,0-1.1,3.517,5.116,5.116,0,0,0,1.743,3.448,1.326,1.326,0,0,0,.531.3.508.508,0,0,0,.538-.2C376.8,176.938,376.668,176.65,376.531,176.416Z" transform="translate(-373.843 -170.11)"/>
      </g>
      <g id="Grupo_55442" data-name="Grupo 55442" transform="translate(112.905 72.412)" opacity="0.3">
        <path id="Trazado_126330" data-name="Trazado 126330" d="M397.163,170.906h0a2.068,2.068,0,0,0-.227-.758.682.682,0,0,0-.652-.349c-.356.061-.531.462-.637.811a8.927,8.927,0,0,0-.523,4.714c.083.356.318.758.69.758s.47-.3.6-.553A7.654,7.654,0,0,0,397.163,170.906Z" transform="translate(-395.013 -169.797)"/>
      </g>
      <path id="Trazado_126331" data-name="Trazado 126331" d="M280.817,233.6v.712h-.523v-.7a2.743,2.743,0,0,1-1.554-.531l.28-.637a2.509,2.509,0,0,0,1.273.477V231.65c-.7-.174-1.463-.4-1.463-1.288,0-.644.47-1.213,1.463-1.3V228.3h.523v.7a2.8,2.8,0,0,1,1.288.387l-.265.644a2.592,2.592,0,0,0-1.023-.341v1.281c.7.167,1.47.394,1.47,1.273C282.287,232.938,281.809,233.491,280.817,233.6Zm-.523-2.721v-1.129c-.447.068-.644.3-.644.576S279.922,230.771,280.294,230.877Zm1.182,1.47c0-.311-.28-.462-.659-.568V232.9C281.279,232.832,281.476,232.62,281.476,232.347Z" transform="translate(-253.955 -115.356)" fill="#263238"/>
      <path id="Trazado_126332" data-name="Trazado 126332" d="M287.866,229.36V233.8h-.826V230.05h-.94v-.69Z" transform="translate(-255.737 -115.627)" fill="#263238"/>
      <path id="Trazado_126333" data-name="Trazado 126333" d="M290.6,234.4a1.449,1.449,0,0,1-.144.553l-.326.894h-.515l.258-.978a.477.477,0,0,1-.3-.47.515.515,0,1,1,1.023,0Z" transform="translate(-256.579 -116.911)" fill="#263238"/>
      <path id="Trazado_126334" data-name="Trazado 126334" d="M294.806,232.437c0,.758-.561,1.432-1.758,1.432a2.812,2.812,0,0,1-1.667-.515l.349-.644a2.115,2.115,0,0,0,1.311.44c.584,0,.94-.258.94-.682s-.28-.69-1.2-.69h-1.069l.227-2.418h2.607v.69h-1.94l-.1,1.031h.424C294.283,231.08,294.806,231.649,294.806,232.437Z" transform="translate(-257.016 -115.63)" fill="#263238"/>
      <path id="Trazado_126335" data-name="Trazado 126335" d="M296.53,231.564c0-1.463.8-2.274,1.857-2.274s1.857.826,1.857,2.274-.8,2.274-1.857,2.274S296.53,233.026,296.53,231.564Zm2.887,0c0-1.076-.424-1.569-1.031-1.569s-1.023.493-1.023,1.569.417,1.569,1.023,1.569S299.417,232.632,299.417,231.564Z" transform="translate(-258.263 -115.61)" fill="#263238"/>
      <path id="Trazado_126336" data-name="Trazado 126336" d="M314.048,242.627c0,.114-8.147.2-18.189.2s-18.189-.083-18.189-.2,8.147-.2,18.189-.2S314.048,242.521,314.048,242.627Z" transform="translate(-253.696 -119.49)" fill="#263238"/>
      <path id="Trazado_126337" data-name="Trazado 126337" d="M294.6,246.537c0,.114-3.789.2-8.45.2s-8.458-.083-8.458-.2,3.789-.2,8.458-.2S294.6,246.431,294.6,246.537Z" transform="translate(-253.701 -120.687)" fill="#263238"/>
      <path id="Trazado_126338" data-name="Trazado 126338" d="M365.008,209.632v.712h-.493v-.7a2.8,2.8,0,0,1-1.516-.523l.28-.644a2.418,2.418,0,0,0,1.273.485v-1.273c-.7-.167-1.463-.4-1.463-1.281,0-.644.47-1.213,1.463-1.311v-.712h.523v.7a2.653,2.653,0,0,1,1.288.387l-.265.637a2.591,2.591,0,0,0-1.023-.341v1.281c.7.174,1.47.394,1.47,1.281A1.486,1.486,0,0,1,365.008,209.632Zm-.523-2.713V205.79c-.455.068-.644.3-.644.576s.273.447.675.553Zm1.182,1.463c0-.311-.28-.455-.659-.561v1.122C365.471,208.874,365.668,208.639,365.668,208.382Z" transform="translate(-274.357 -108.004)" fill="#263238"/>
      <path id="Trazado_126339" data-name="Trazado 126339" d="M373.718,209.1v.7h-3.282v-.553l1.766-1.675c.432-.417.508-.675.508-.925,0-.4-.28-.637-.826-.637a1.25,1.25,0,0,0-1.038.462l-.576-.447a2.046,2.046,0,0,1,1.682-.758c.97,0,1.592.485,1.592,1.273a1.781,1.781,0,0,1-.758,1.4l-1.19,1.137Z" transform="translate(-276.117 -108.235)" fill="#263238"/>
      <path id="Trazado_126340" data-name="Trazado 126340" d="M376.541,210.445a1.453,1.453,0,0,1-.144.546l-.326.894h-.515l.258-.97a.485.485,0,0,1-.3-.47.515.515,0,0,1,1.031,0Z" transform="translate(-277.386 -109.588)" fill="#263238"/>
      <path id="Trazado_126341" data-name="Trazado 126341" d="M380.808,209.1v.7h-3.282v-.553l1.766-1.675c.432-.417.508-.674.508-.925,0-.4-.28-.637-.826-.637a1.25,1.25,0,0,0-1.038.462l-.576-.447a2.046,2.046,0,0,1,1.69-.758c.962,0,1.584.485,1.584,1.273a1.781,1.781,0,0,1-.758,1.4l-1.19,1.137Z" transform="translate(-277.834 -108.235)" fill="#263238"/>
      <path id="Trazado_126342" data-name="Trazado 126342" d="M385.706,208.465c0,.758-.561,1.425-1.758,1.425a2.766,2.766,0,0,1-1.667-.515l.349-.637a2.107,2.107,0,0,0,1.3.432c.591,0,.94-.258.94-.674s-.273-.7-1.19-.7h-1.076l.235-2.418h2.607v.7h-1.91l-.1,1.023h.424C385.183,207.1,385.706,207.676,385.706,208.465Z" transform="translate(-279.025 -108.269)" fill="#263238"/>
      <path id="Trazado_126343" data-name="Trazado 126343" d="M398.218,218.657c0,.106-8.147.2-18.189.2s-18.189-.091-18.189-.2,8.155-.2,18.189-.2S398.218,218.551,398.218,218.657Z" transform="translate(-274.076 -112.153)" fill="#263238"/>
      <path id="Trazado_126344" data-name="Trazado 126344" d="M378.788,222.567c0,.106-3.789.2-8.458.2s-8.45-.091-8.45-.2,3.789-.2,8.45-.2S378.788,222.461,378.788,222.567Z" transform="translate(-274.086 -113.35)" fill="#263238"/>
      <path id="Trazado_126345" data-name="Trazado 126345" d="M278.9,355.317v.712h-.523v-.712a2.766,2.766,0,0,1-1.554-.531l.288-.637a2.41,2.41,0,0,0,1.266.477v-1.266c-.7-.174-1.455-.4-1.455-1.281,0-.652.47-1.213,1.455-1.311v-.72h.523v.72a2.8,2.8,0,0,1,1.288.387l-.258.644a2.669,2.669,0,0,0-1.031-.341v1.281c.7.174,1.47.394,1.47,1.273C280.367,354.65,279.9,355.211,278.9,355.317Zm-.523-2.721v-1.129c-.447.076-.637.3-.637.584s.273.432.637.538Zm1.182,1.47c0-.311-.28-.455-.659-.568v1.129c.462-.068.659-.3.659-.568Z" transform="translate(-253.49 -152.767)" fill="#263238"/>
      <path id="Trazado_126346" data-name="Trazado 126346" d="M284.48,353.274c0-1.463.8-2.274,1.857-2.274s1.857.819,1.857,2.274-.8,2.274-1.857,2.274S284.48,354.729,284.48,353.274Zm2.887,0c0-1.069-.424-1.569-1.031-1.569s-1.023.5-1.023,1.569.417,1.569,1.023,1.569S287.367,354.342,287.367,353.274Z" transform="translate(-255.345 -152.972)" fill="#263238"/>
      <path id="Trazado_126347" data-name="Trazado 126347" d="M291.032,356.105a1.454,1.454,0,0,1-.144.546l-.326.894h-.508l.25-.97a.493.493,0,0,1-.3-.47.515.515,0,1,1,1.023,0Z" transform="translate(-256.683 -154.209)" fill="#263238"/>
      <path id="Trazado_126348" data-name="Trazado 126348" d="M295.236,354.137c0,.758-.561,1.432-1.758,1.432a2.766,2.766,0,0,1-1.667-.515l.349-.644a2.106,2.106,0,0,0,1.3.44c.591,0,.94-.258.94-.682s-.273-.69-1.19-.69h-1.076l.235-2.418h2.615v.712h-1.91l-.1,1.031h.424C294.713,352.78,295.236,353.349,295.236,354.137Z" transform="translate(-257.12 -152.988)" fill="#263238"/>
      <path id="Trazado_126349" data-name="Trazado 126349" d="M297,353.274c0-1.463.8-2.274,1.857-2.274s1.857.819,1.857,2.274-.8,2.274-1.857,2.274S297,354.729,297,353.274Zm2.887,0c0-1.069-.424-1.569-1.031-1.569s-1.023.5-1.023,1.569.417,1.569,1.023,1.569,1-.5,1-1.569Z" transform="translate(-258.376 -152.972)" fill="#263238"/>
      <path id="Trazado_126350" data-name="Trazado 126350" d="M312.138,364.337c0,.106-8.155.2-18.189.2s-18.189-.091-18.189-.2,8.147-.2,18.189-.2S312.138,364.223,312.138,364.337Z" transform="translate(-253.234 -156.748)" fill="#263238"/>
      <path id="Trazado_126351" data-name="Trazado 126351" d="M292.7,368.247c0,.106-3.789.2-8.45.2s-8.45-.091-8.45-.2,3.789-.2,8.45-.2S292.7,368.133,292.7,368.247Z" transform="translate(-253.243 -157.945)" fill="#263238"/>
      <path id="Trazado_126352" data-name="Trazado 126352" d="M361.087,323.58v.712h-.515v-.7a2.774,2.774,0,0,1-1.561-.531l.288-.637a2.417,2.417,0,0,0,1.273.478v-1.266c-.7-.174-1.463-.4-1.463-1.281,0-.652.47-1.213,1.463-1.311v-.72h.515v.7a2.8,2.8,0,0,1,1.288.387l-.258.644a2.623,2.623,0,0,0-1.031-.341V321c.7.174,1.47.394,1.47,1.273C362.557,322.92,362.087,323.481,361.087,323.58Zm-.515-2.721V319.73c-.455.076-.644.3-.644.584S360.2,320.753,360.571,320.859Zm1.175,1.47c0-.311-.28-.455-.659-.568v1.129C361.549,322.814,361.746,322.625,361.746,322.329Z" transform="translate(-273.391 -143.016)" fill="#263238"/>
      <path id="Trazado_126353" data-name="Trazado 126353" d="M368.136,319.33v4.441h-.826V320.02h-.94v-.69Z" transform="translate(-275.173 -143.244)" fill="#263238"/>
      <path id="Trazado_126354" data-name="Trazado 126354" d="M370.881,324.4a1.456,1.456,0,0,1-.144.546l-.326.894H369.9l.25-.97a.493.493,0,0,1-.3-.47.515.515,0,0,1,1.031,0Z" transform="translate(-276.015 -144.507)" fill="#263238"/>
      <path id="Trazado_126355" data-name="Trazado 126355" d="M371.81,321.534c0-1.463.8-2.274,1.857-2.274s1.857.819,1.857,2.274-.758,2.274-1.857,2.274S371.81,323,371.81,321.534Zm2.887,0c0-1.069-.424-1.569-1.031-1.569s-1.023.5-1.023,1.569.417,1.569,1.023,1.569S374.7,322.61,374.7,321.534Z" transform="translate(-276.49 -143.229)" fill="#263238"/>
      <path id="Trazado_126356" data-name="Trazado 126356" d="M377.45,321.534c0-1.463.8-2.274,1.857-2.274s1.857.819,1.857,2.274-.8,2.274-1.857,2.274S377.45,323,377.45,321.534Zm2.887,0c0-1.069-.424-1.569-1.031-1.569s-1.023.5-1.023,1.569.417,1.569,1.023,1.569S380.338,322.61,380.338,321.534Z" transform="translate(-277.855 -143.229)" fill="#263238"/>
      <path id="Trazado_126357" data-name="Trazado 126357" d="M394.378,332.6c0,.106-8.155.2-18.189.2S358,332.711,358,332.6s8.147-.2,18.189-.2S394.378,332.491,394.378,332.6Z" transform="translate(-273.146 -147.032)" fill="#263238"/>
      <path id="Trazado_126358" data-name="Trazado 126358" d="M374.891,336.515c0,.106-3.789.2-8.45.2s-8.45-.091-8.45-.2,3.789-.2,8.45-.2S374.891,336.4,374.891,336.515Z" transform="translate(-273.144 -148.229)" fill="#263238"/>
      <path id="Trazado_126359" data-name="Trazado 126359" d="M357.225,108.467c0,.106-8.784.2-19.614.2s-19.621-.091-19.621-.2,8.784-.2,19.621-.2S357.225,108.353,357.225,108.467Z" transform="translate(-263.459 -75.669)" fill="#f5ca56"/>
    </g>
    <g id="freepik--Character--inject-302" transform="translate(21.961 57.758)">
      <path id="Trazado_126360" data-name="Trazado 126360" d="M30.024,419.04a5.245,5.245,0,0,0-4.926,4.2,50.536,50.536,0,0,0-1.16,5.616s-4.449,4,0,5.07S30,429,30,429l.682-9.989Z" transform="translate(-21.961 -178.566)" fill="#ffbe9d"/>
      <path id="Trazado_126361" data-name="Trazado 126361" d="M91.38,292.335s13.9-46.677,15.317-48.686c2.334-3.327,24.836-13.331,24.836-13.331L137.6,218.01,174.966,212l9.269,11.929,26.048,19.144L208.464,309.1l-.97,46.1,4.934,57.553-118.3-.22,5.351-12.126L105.09,295.73Z" transform="translate(-38.769 -128.444)" fill="#727997"/>
      <path id="Trazado_126362" data-name="Trazado 126362" d="M112.448,297.831a1.25,1.25,0,0,1-.045-.379,7.362,7.362,0,0,0-.061-1.084c0-.94-.083-2.274-.114-3.979-.061-3.365-.061-8.011.083-13.142s.417-9.769.675-13.126c.121-1.675.243-3.031.341-3.964l.114-1.076a2.092,2.092,0,0,1,.068-.371,1.122,1.122,0,0,1,0,.379,9.735,9.735,0,0,1-.045,1.076c-.053,1-.129,2.342-.22,3.979-.182,3.357-.409,7.988-.553,13.119s-.189,9.761-.2,13.126v5.063A1.342,1.342,0,0,1,112.448,297.831Z" transform="translate(-43.808 -140.238)" fill="#263238"/>
      <g id="Grupo_55443" data-name="Grupo 55443" transform="translate(91.801 141.33)" opacity="0.3">
        <path id="Trazado_126363" data-name="Trazado 126363" d="M146.728,291.087a2.274,2.274,0,0,1,.432-1.463,3.789,3.789,0,0,1,4.418-1.091c1.978.947,2.963,3.221,3.365,5.381.432,2.365.371,4.8.819,7.169s1.516,4.775,3.6,5.995c2.569,1.516,5.942.834,8.64,2.107,4.017,1.887,4.949,7.109,5.154,11.55.379,8.4,0,16.817-.349,25.222l-2.319,53.673-2.114,26.927-10.883,4.623-14.4-94.621Z" transform="translate(-143.09 -288.231)"/>
      </g>
      <path id="Trazado_126364" data-name="Trazado 126364" d="M150.744,272.936a.758.758,0,0,1-.28.152,1.91,1.91,0,0,1-.925.091,3.175,3.175,0,0,1-2.471-2.16,5.715,5.715,0,0,1-.22-2.334,25.108,25.108,0,0,1,.44-2.615c.364-1.834.758-3.835,1.182-5.934.849-4.206,1.637-8.011,2.228-10.762l.758-3.251a8.031,8.031,0,0,1,.311-1.182,6.623,6.623,0,0,1-.159,1.213c-.159.841-.356,1.948-.6,3.282-.523,2.759-1.273,6.571-2.122,10.777-.432,2.1-.841,4.1-1.213,5.927s-.758,3.479-.311,4.8a3.032,3.032,0,0,0,2.228,2.092A2.638,2.638,0,0,0,150.744,272.936Z" transform="translate(-52.191 -136.42)" fill="#263238"/>
      <path id="Trazado_126365" data-name="Trazado 126365" d="M155.871,258.7c0,.038-.311.038-.826.2a3.843,3.843,0,0,0-1.826,1.288,3.229,3.229,0,0,0-.561,3.107,3.38,3.38,0,0,0,6.268.5,3.221,3.221,0,0,0-.061-3.153,3.789,3.789,0,0,0-1.6-1.561c-.485-.243-.758-.288-.758-.326s.076,0,.22,0a2.321,2.321,0,0,1,.621.174,3.744,3.744,0,0,1,1.781,1.561,3.789,3.789,0,0,1,.523,1.584,3.35,3.35,0,0,1-.379,1.88,3.729,3.729,0,0,1-6.942-.553,3.328,3.328,0,0,1-.076-1.917,3.835,3.835,0,0,1,2.766-2.736,2.271,2.271,0,0,1,.644-.076A.593.593,0,0,1,155.871,258.7Z" transform="translate(-53.483 -139.744)" fill="#263238"/>
      <path id="Trazado_126366" data-name="Trazado 126366" d="M141.829,318.428,73.5,306.06l-31.9,7,71.377,12.846Z" transform="translate(-26.716 -151.218)" fill="#f5ca56"/>
      <g id="Grupo_55444" data-name="Grupo 55444" transform="translate(14.884 154.842)" opacity="0.6">
        <path id="Trazado_126367" data-name="Trazado 126367" d="M141.829,318.428,73.5,306.06l-31.9,7,71.377,12.846Z" transform="translate(-41.6 -306.06)"/>
      </g>
      <path id="Trazado_126368" data-name="Trazado 126368" d="M116.2,338.541c.925-12.6,4.381-44.586,6.972-56.947.758-3.7,1.667-7.48,3.789-10.61s5.866-5.419,9.595-4.843c3.335.515,6.018,3.221,7.367,6.313a22.357,22.357,0,0,1,1.72,9.905c-.644,15.279-1.963,32.392-1.948,46.556" transform="translate(-44.779 -141.531)" fill="#455a64"/>
      <path id="Trazado_126369" data-name="Trazado 126369" d="M141.483,322.12a25.61,25.61,0,0,1-2.531.8,50.778,50.778,0,0,0-11.618,5.267,25.174,25.174,0,0,1-2.274,1.379,5.089,5.089,0,0,1,.538-.478c.364-.288.9-.674,1.584-1.137a40.356,40.356,0,0,1,5.631-3.122,39.235,39.235,0,0,1,6.063-2.175c.8-.212,1.448-.364,1.895-.447A2.772,2.772,0,0,1,141.483,322.12Z" transform="translate(-46.924 -155.107)" fill="#263238"/>
      <path id="Trazado_126370" data-name="Trazado 126370" d="M142.927,302.939c0,.061-1.023.288-2.66.8a36.021,36.021,0,0,0-11.77,6.184c-1.341,1.061-2.122,1.788-2.168,1.743a3.236,3.236,0,0,1,.493-.568,18.713,18.713,0,0,1,1.516-1.387,30.351,30.351,0,0,1,5.586-3.789,30.734,30.734,0,0,1,6.283-2.463,19.526,19.526,0,0,1,1.993-.447A2.389,2.389,0,0,1,142.927,302.939Z" transform="translate(-47.231 -150.462)" fill="#263238"/>
      <path id="Trazado_126371" data-name="Trazado 126371" d="M142.193,287.483c0,.068-.811.106-2.092.341a18.332,18.332,0,0,0-4.8,1.6,18.544,18.544,0,0,0-4.168,2.865c-.963.879-1.516,1.516-1.516,1.463a1.694,1.694,0,0,1,.311-.485,10.662,10.662,0,0,1,1.023-1.182,15.915,15.915,0,0,1,9.094-4.547,11.174,11.174,0,0,1,1.561-.106A1.6,1.6,0,0,1,142.193,287.483Z" transform="translate(-48.028 -146.707)" fill="#263238"/>
      <path id="Trazado_126372" data-name="Trazado 126372" d="M124.422,326.055a.227.227,0,0,0,0,.068v43.729c0,1.917-1.516,3.9-4.388,5.4a26.544,26.544,0,0,1-12.126,2.531h-.068c-10.345,0-16.529-4.085-16.529-7.927V326.123a.418.418,0,0,0,0-.068v-.083c0-4.274,3.16-8.738,6.328-13.149,2.122-2.941,2.63-7.185,2.728-9.671v-.811h-.288a2.274,2.274,0,0,1-2.463-2.114v-1.849a2.274,2.274,0,0,1,2.463-2.13h15.536a2.5,2.5,0,0,1,2.274,1.3,1.947,1.947,0,0,1,.189.834v1.849a2.274,2.274,0,0,1-2.471,2.114h-.28v.811c.1,2.486.606,6.73,2.736,9.671,3.16,4.411,6.306,8.875,6.328,13.149A.112.112,0,0,1,124.422,326.055Z" transform="translate(-38.752 -148.84)" fill="#fafafa"/>
      <path id="Trazado_126373" data-name="Trazado 126373" d="M124.356,326a3.293,3.293,0,0,0,0-.447,11.286,11.286,0,0,0-.159-1.3,17.068,17.068,0,0,0-1.811-4.744,64,64,0,0,0-4.471-6.783,13.8,13.8,0,0,1-2.031-4.706,25.329,25.329,0,0,1-.7-5.722v-.136h.136a2.88,2.88,0,0,0,1.645-.387,1.971,1.971,0,0,0,.955-1.372v-1.872a1.887,1.887,0,0,0-.674-1.614,2.592,2.592,0,0,0-1.758-.576H100.248a2.577,2.577,0,0,0-2.016.712,1.834,1.834,0,0,0-.485.955,11.41,11.41,0,0,0,0,1.16v1.182a1.841,1.841,0,0,0,.47.985,2.577,2.577,0,0,0,2.1.758h.182v.189a26.42,26.42,0,0,1-.576,5.305,14.59,14.59,0,0,1-2.092,5.093c-1.069,1.516-2.168,3.031-3.183,4.638a25.011,25.011,0,0,0-2.577,5.1,11.564,11.564,0,0,0-.614,2.819c-.053.947,0,1.963,0,2.948v39.91a13.241,13.241,0,0,0,.121,2.539,4.987,4.987,0,0,0,1.19,2.137,11.793,11.793,0,0,0,4.07,2.812,23.061,23.061,0,0,0,4.7,1.4,32.182,32.182,0,0,0,4.782.538,32.628,32.628,0,0,0,9.2-.841,20.126,20.126,0,0,0,4.161-1.516,10.672,10.672,0,0,0,3.38-2.539,5.306,5.306,0,0,0,.993-1.773,6.534,6.534,0,0,0,.167-2.008V357.233c0-9.64.045-17.431.061-22.858s.068-8.382.068-8.382a2.227,2.227,0,0,1,0,.553v7.829c0,5.411,0,13.217.061,22.857v12.641a4.244,4.244,0,0,1-.167,1.069,5.518,5.518,0,0,1-1.053,1.887,10.832,10.832,0,0,1-3.479,2.63,20.667,20.667,0,0,1-4.221,1.516,33.15,33.15,0,0,1-9.185.879,32,32,0,0,1-4.835-.538,23.684,23.684,0,0,1-4.782-1.425,11.93,11.93,0,0,1-4.214-2.872,5.26,5.26,0,0,1-1.281-2.274,12.883,12.883,0,0,1-.136-2.63v-42.9a12.126,12.126,0,0,1,.637-2.91,25.208,25.208,0,0,1,2.622-5.184c1.016-1.614,2.13-3.138,3.2-4.646a14.4,14.4,0,0,0,2.024-4.972,26.677,26.677,0,0,0,.584-5.214l.174.174a2.933,2.933,0,0,1-2.357-.872,2.122,2.122,0,0,1-.553-1.175c0-.447,0-.818,0-1.228a11.159,11.159,0,0,1,0-1.22,2.191,2.191,0,0,1,.584-1.129,2.941,2.941,0,0,1,2.274-.819h15.2a2.9,2.9,0,0,1,1.94.652,2.152,2.152,0,0,1,.758,1.834v1.91a2.22,2.22,0,0,1-1.076,1.561,3.1,3.1,0,0,1-1.789.409l.121-.121c.068,3.994.841,7.692,2.645,10.315a62.518,62.518,0,0,1,4.426,6.821,16.43,16.43,0,0,1,1.758,4.8,10.235,10.235,0,0,1,.129,1.357,1.234,1.234,0,0,1,0,.44Z" transform="translate(-38.686 -148.787)" fill="#263238"/>
      <path id="Trazado_126374" data-name="Trazado 126374" d="M117.461,304.08a59.425,59.425,0,0,1-6.912.2,59.6,59.6,0,0,1-6.919-.2,61.714,61.714,0,0,1,6.919-.2A61.506,61.506,0,0,1,117.461,304.08Z" transform="translate(-41.735 -150.685)" fill="#263238"/>
      <path id="Trazado_126375" data-name="Trazado 126375" d="M123.49,342.463c-1.394-.909-3.236-.508-4.737.2s-2.918,1.705-4.547,1.963a8.759,8.759,0,0,1-5.555-1.417A35.1,35.1,0,0,0,103.5,340.4a10.034,10.034,0,0,0-10.337,2.44v37.545s2.061,6.4,16.582,5.4,13.377-7.42,13.377-7.42Z" transform="translate(-39.2 -159.405)" fill="#f5ca56"/>
      <path id="Trazado_126376" data-name="Trazado 126376" d="M79.218,305.685a10.61,10.61,0,0,0-8.966-12.126,1.076,1.076,0,0,0-.758.083c-.311.212-.318.659-.288,1.031a12.884,12.884,0,0,0,10,11.368" transform="translate(-33.398 -148.183)" fill="#455a64"/>
      <path id="Trazado_126377" data-name="Trazado 126377" d="M62.007,328.859c2.683,5.532,6.54,9.261,11.323,9.443.955,0,1.675-.6,2.584-.652a6.06,6.06,0,0,1,1.516.576,2.183,2.183,0,0,0,.758.182c4.941-.265,9.148-3.736,11.982-9.549,3.949-8.132,2.728-16.87-2.721-19.53a13.359,13.359,0,0,0-2.228-.872,9.388,9.388,0,0,0-2.706-.318,20.462,20.462,0,0,0-6.139,1.41l-.265.1c-4.434-1.955-7.965-1.971-11.368-.311C59.264,311.988,58.051,320.727,62.007,328.859Z" transform="translate(-31.095 -151.72)" fill="#c1507f"/>
      <path id="Trazado_126378" data-name="Trazado 126378" d="M62.706,321.395a4.312,4.312,0,0,1-.455-1.637,8.791,8.791,0,0,1,2.766-7.48,4.266,4.266,0,0,1,1.41-.947c0,.061-.5.409-1.22,1.144a9.8,9.8,0,0,0-2.1,3.35,9.6,9.6,0,0,0-.576,3.911A13.561,13.561,0,0,1,62.706,321.395Z" transform="translate(-31.702 -152.494)" fill="#fafafa"/>
      <path id="Trazado_126379" data-name="Trazado 126379" d="M64.044,329.136c-.106,0-.288-.356-.4-.856s-.121-.917,0-.94.28.356.4.856S64.15,329.113,64.044,329.136Z" transform="translate(-32.032 -156.37)" fill="#fafafa"/>
      <path id="Trazado_126380" data-name="Trazado 126380" d="M93.428,292c0,.068-1.016.462-2.554,1.387a19.966,19.966,0,0,0-2.546,1.819,22.368,22.368,0,0,0-2.69,2.728,22.742,22.742,0,0,0-2.137,3.183,20.07,20.07,0,0,0-1.273,2.857c-.6,1.682-.758,2.789-.856,2.774a3.516,3.516,0,0,1,.083-.758,5.917,5.917,0,0,1,.182-.9,11.461,11.461,0,0,1,.326-1.182,17.955,17.955,0,0,1,1.22-2.941,19.129,19.129,0,0,1,4.919-6.01,17.434,17.434,0,0,1,2.645-1.781,11.419,11.419,0,0,1,1.091-.553,6.919,6.919,0,0,1,.849-.356A3.329,3.329,0,0,1,93.428,292Z" transform="translate(-36.346 -147.814)" fill="#263238"/>
      <path id="Trazado_126381" data-name="Trazado 126381" d="M38.857,315.3,30.27,423.615,110.3,442.964s27.92-9.466,28.3-10.11.485-112.166.485-112.166l-28.852,7.48Z" transform="translate(-23.973 -153.456)" fill="#f5ca56"/>
      <g id="Grupo_55445" data-name="Grupo 55445" transform="translate(6.297 161.844)" opacity="0.4">
        <path id="Trazado_126382" data-name="Trazado 126382" d="M38.857,315.3,30.27,423.615,110.3,442.964s27.92-9.466,28.3-10.11.485-112.166.485-112.166l-28.852,7.48Z" transform="translate(-30.27 -315.3)"/>
      </g>
      <path id="Trazado_126383" data-name="Trazado 126383" d="M188.519,139.009l-4.464,63.214A19.7,19.7,0,0,1,164.4,220.541h0a19.7,19.7,0,0,1-19.7-20.993c.394-6.018.758-10.951.758-10.951s-15.3-2.38-15.491-17.681c-.106-8.837,1.417-28.89,2.721-44.252A20.069,20.069,0,0,1,152.725,108.3h9.238a28.322,28.322,0,0,1,26.556,30.709Z" transform="translate(-48.109 -103.336)" fill="#ffbe9d"/>
      <path id="Trazado_126384" data-name="Trazado 126384" d="M150.353,212.369a36.943,36.943,0,0,0,19.925-5.889s-4.926,11.133-20.2,9.754Z" transform="translate(-52.982 -127.107)" fill="#eb996e"/>
      <path id="Trazado_126385" data-name="Trazado 126385" d="M137.369,152.616c.273.288,1.925-.94,4.282-.932s4.07,1.182,4.327.894c.121-.129-.152-.637-.9-1.19a6.063,6.063,0,0,0-3.464-1.069,5.866,5.866,0,0,0-3.41,1.1C137.483,151.98,137.241,152.5,137.369,152.616Z" transform="translate(-49.896 -113.51)" fill="#263238"/>
      <path id="Trazado_126386" data-name="Trazado 126386" d="M171,156.288a2.2,2.2,0,0,0,2.107,2.205,2.1,2.1,0,0,0,2.274-1.97,2.183,2.183,0,0,0-2.107-2.205,2.092,2.092,0,0,0-2.274,1.97Z" transform="translate(-58.047 -114.476)" fill="#263238"/>
      <path id="Trazado_126387" data-name="Trazado 126387" d="M140.18,156.287a2.19,2.19,0,0,0,2.107,2.205,2.092,2.092,0,0,0,2.274-1.97,2.175,2.175,0,0,0-2.1-2.205,2.084,2.084,0,0,0-2.281,1.97Z" transform="translate(-50.585 -114.475)" fill="#263238"/>
      <path id="Trazado_126388" data-name="Trazado 126388" d="M167.559,152.624c.273.28,1.933-.947,4.282-.94s4.07,1.182,4.327.894c.121-.129-.152-.637-.9-1.19a6.063,6.063,0,0,0-3.464-1.069,5.866,5.866,0,0,0-3.41,1.1C167.673,151.98,167.431,152.5,167.559,152.624Z" transform="translate(-57.206 -113.51)" fill="#263238"/>
      <path id="Trazado_126389" data-name="Trazado 126389" d="M154.416,170.11a16.176,16.176,0,0,0-3.789-.682c-.6-.068-1.167-.182-1.266-.591a3.031,3.031,0,0,1,.394-1.781l1.781-4.547c2.463-6.51,4.252-11.861,3.986-11.959s-2.478,5.1-4.941,11.611q-.947,2.372-1.705,4.57a3.539,3.539,0,0,0-.311,2.357,1.516,1.516,0,0,0,.993.879,4.084,4.084,0,0,0,1.016.144C152.93,170.239,154.408,170.247,154.416,170.11Z" transform="translate(-52.596 -113.565)" fill="#263238"/>
      <path id="Trazado_126390" data-name="Trazado 126390" d="M163.045,178.51c-.379,0-.386,2.531-2.569,4.343s-4.9,1.516-4.926,1.887c0,.159.606.493,1.758.531a6.374,6.374,0,0,0,4.108-1.432,5.57,5.57,0,0,0,1.993-3.645C163.508,179.131,163.22,178.495,163.045,178.51Z" transform="translate(-54.306 -120.335)" fill="#263238"/>
      <path id="Trazado_126391" data-name="Trazado 126391" d="M166.766,142.7c.235.637,2.577.333,5.305.667s4.994,1.084,5.358.515c.167-.273-.227-.879-1.122-1.516a9,9,0,0,0-3.971-1.387,8.9,8.9,0,0,0-4.176.493C167.175,141.9,166.668,142.4,166.766,142.7Z" transform="translate(-57.019 -111.232)" fill="#263238"/>
      <path id="Trazado_126392" data-name="Trazado 126392" d="M137.791,143.692c.417.538,2.039,0,3.986-.045s3.592.364,3.979-.2c.159-.273-.1-.811-.819-1.311a5.745,5.745,0,0,0-6.412.2C137.836,142.881,137.609,143.434,137.791,143.692Z" transform="translate(-49.992 -111.315)" fill="#263238"/>
      <path id="Trazado_126393" data-name="Trazado 126393" d="M200.231,163.846c.265-.114,10.519-3.107,10.186,7.351s-10.769,7.965-10.777,7.67S200.231,163.846,200.231,163.846Z" transform="translate(-64.982 -116.668)" fill="#ffbe9d"/>
      <path id="Trazado_126394" data-name="Trazado 126394" d="M204,176.065c.045,0,.182.136.485.288a1.811,1.811,0,0,0,1.357.068c1.122-.371,2.107-2.092,2.213-3.979a5.89,5.89,0,0,0-.424-2.622,2.114,2.114,0,0,0-1.326-1.448.925.925,0,0,0-1.091.47c-.152.288-.091.5-.144.515s-.22-.182-.121-.614a1.212,1.212,0,0,1,.432-.644,1.379,1.379,0,0,1,1.016-.235,2.584,2.584,0,0,1,1.857,1.682,6.275,6.275,0,0,1,.538,2.941c-.136,2.107-1.281,4.039-2.8,4.434a1.963,1.963,0,0,1-1.66-.333C204,176.3,204,176.087,204,176.065Z" transform="translate(-66.037 -117.753)" fill="#eb996e"/>
      <path id="Trazado_126395" data-name="Trazado 126395" d="M192.747,149.471c-1.592-.387-4.35,1.091-5.032,2.584s-.834,3.183-1.516,4.676-2.213,2.85-3.789,2.471a3.213,3.213,0,0,1-2.175-2.387,8.7,8.7,0,0,1,0-3.373c.614-4.888,1.637-9.731,1.834-14.65s-.5-10.034-3.085-14.225-7.329-7.276-12.24-6.882c-3.251.265-6.23,1.963-9.458,2.41a12.763,12.763,0,0,1-10.61-3.539c-.356-.349-1.986-1.432-1.986-1.432,0-.25.235-2.433,1.1-3.229,6.4-5.927,17.954-7.579,26.42-5.449s16.4,8.1,20.038,16.037,2.562,18.947.553,26.988" transform="translate(-51.677 -102.672)" fill="#263238"/>
      <path id="Trazado_126396" data-name="Trazado 126396" d="M130.918,126.774c1.372,3.176,4.873,5.025,8.337,5.373s6.881-.546,10.209-1.516,12.262-2.425,15.726-2.319c.515,0,1.137,0,1.417-.432.364-.584-.22-1.288-.758-1.705-4.547-3.577-15.589-5.767-21.38-6.01s-11.861,2.274-15,7.116" transform="translate(-47.992 -106.204)" fill="#263238"/>
      <path id="Trazado_126397" data-name="Trazado 126397" d="M133.37,122.713s40.167-12.884,57.508,21.819c0,0,2.592-8.693,2.592-13.354,0-3.107-1.857-21.645-20.925-27.473C172.545,103.705,143.814,92.746,133.37,122.713Z" transform="translate(-48.936 -101.75)" fill="#727997"/>
      <g id="Grupo_55446" data-name="Grupo 55446" transform="translate(83.949 2.88)" opacity="0.4">
        <path id="Trazado_126398" data-name="Trazado 126398" d="M133.37,122.713a18.644,18.644,0,0,1,12.763-5.79c11.846-.531,34.006,6.131,44.715,27.609,0,0,2.592-8.693,2.592-13.354,0-3.107-1.857-21.645-20.925-27.473C172.545,103.705,143.814,92.746,133.37,122.713Z" transform="translate(-133.37 -101.75)" fill="#727997"/>
      </g>
      <path id="Trazado_126399" data-name="Trazado 126399" d="M182.948,140.734a75.666,75.666,0,0,0-23.388-22.4c-9.2-5.767-24.457-11.467-34.968-14.263-3.153-.834-6.442-1.569-9.663-1.008s-6.374,2.7-7.169,5.866c-1,3.964,6.063,10.08,9.345,12.482a107.134,107.134,0,0,0,10.049,5.934s-.091-7.351,11.679-8.867C154.831,116.421,182.948,140.734,182.948,140.734Z" transform="translate(-42.712 -102.021)" fill="#b0c0d2"/>
      <path id="Trazado_126400" data-name="Trazado 126400" d="M159.9,111.386a37.9,37.9,0,0,0-11.6-3.941,14.575,14.575,0,0,1,3.153-1.895,29.989,29.989,0,0,1,9.034,3.031Z" transform="translate(-52.551 -102.67)" fill="#fafafa"/>
      <path id="Trazado_126401" data-name="Trazado 126401" d="M226.992,250.235s-10.974,12.543-9.761,30c.167,2.418.288,5.79.584,8.2,1.849,14.976,4.714,28.875,4.714,28.875h1.046l38.265-9.451s-5.767-33.218-7.094-37.628c-4.237-14.119-18.765-21.887-18.765-21.887Z" transform="translate(-69.218 -137.243)" fill="#727997"/>
      <path id="Trazado_126402" data-name="Trazado 126402" d="M164.111,434.486v-8.632c0-5.586,0-13.642.046-23.737.068-20.152.167-48.193.28-79.819l.243.19-14.551,3.789-14.294,3.706.144-.189c.2,15.855.144,30.815.068,44.336s-.152,25.593-.212,35.688,0,18.189,0,23.8v6.427c0-1.516-.053-3.638-.1-6.427-.068-5.586-.114-13.7-.106-23.8s.083-22.175.129-35.688.091-28.481-.114-44.328v-.159l.152-.038,14.286-3.706,14.559-3.789.25-.068v.258c-.167,31.626-.311,59.675-.409,79.819-.068,10.065-.129,18.151-.167,23.737,0,2.781-.045,4.934-.061,6.4v1.667A.918.918,0,0,1,164.111,434.486Z" transform="translate(-49.483 -155.087)" fill="#263238"/>
      <path id="Trazado_126403" data-name="Trazado 126403" d="M146.934,218.831s-1.516,14.559,3.38,16.825c5.525,2.546,11.035.053,14.4-2.107,9.026-5.76,22.441-21.759,22.441-21.759l9.095,11.808s-22.9,27.526-27.5,27.344c-3.032-.114-7.692-3.031-10.61-5.085a19.7,19.7,0,0,1-4.221-3.994l-3.964-5.04a29.863,29.863,0,0,0-11.717,9.58s-1.319-10.193,1.053-14.816,7.1-12.6,7.1-12.6Z" transform="translate(-50.025 -128.393)" fill="#727997"/>
      <path id="Trazado_126404" data-name="Trazado 126404" d="M138.859,235.832a.946.946,0,0,1-.091.25c-.068.182-.167.417-.3.712a15.91,15.91,0,0,0-.674,2.9,45.282,45.282,0,0,0,0,10.913l-.273-.053a20.123,20.123,0,0,1,4.911-5.593,36.562,36.562,0,0,1,7.26-4.6l.121-.061.091.106c1.6,1.857,3.289,3.789,5.07,5.752a36.483,36.483,0,0,0,5.98,5.517,14.954,14.954,0,0,0,3.388,1.8,11.147,11.147,0,0,0,1.819.493,7.442,7.442,0,0,0,1.834.068,11.535,11.535,0,0,0,6.275-3.122h0l15.68-16.719,4.547-4.8,1.22-1.266.318-.326.121-.1-.091.121-.3.349-1.175,1.3-4.471,4.873-15.567,16.81h0a16.861,16.861,0,0,1-2.925,2.092,9.094,9.094,0,0,1-3.562,1.137,8.335,8.335,0,0,1-1.94-.068,11.032,11.032,0,0,1-1.887-.508,15.583,15.583,0,0,1-3.494-1.842,36.65,36.65,0,0,1-6.063-5.578c-1.789-1.97-3.479-3.911-5.07-5.775l.22.045a36.862,36.862,0,0,0-7.2,4.547,20.083,20.083,0,0,0-4.813,5.457l-.227.394-.045-.447a43.465,43.465,0,0,1,.121-10.974,14.918,14.918,0,0,1,.758-2.887c.136-.318.258-.546.333-.7A1.807,1.807,0,0,1,138.859,235.832Z" transform="translate(-49.877 -132.245)" fill="#263238"/>
      <g id="Grupo_55447" data-name="Grupo 55447" transform="translate(89.402 97.046)" opacity="0.3">
        <path id="Trazado_126405" data-name="Trazado 126405" d="M140.065,248.61a1.948,1.948,0,0,0,.561,2.221,1.849,1.849,0,0,0,1.887-.341,7.04,7.04,0,0,0,1.273-1.554,16.553,16.553,0,0,1,3.236-3.471c1.22-.985,2.9-1.819,4.3-1.122a4.851,4.851,0,0,1,1.895,2.418c1.9,3.888,4.183,7.844,7.9,10.065a15.126,15.126,0,0,0,12.6.872,24.9,24.9,0,0,0,10.4-7.632,73.517,73.517,0,0,0,7.192-10.868c1.713-2.963,3.448-6.018,3.979-9.4-.47.265-1.576,1.97-2.046,2.236,0,0-17.666,19.455-19.326,20.463s-6.237,7.723-19.2-6.821l-4.29-4.653S142.256,244.988,140.065,248.61Z" transform="translate(-139.925 -229.8)"/>
      </g>
      <rect id="Rectángulo_30370" data-name="Rectángulo 30370" width="19.652" height="5.934" transform="translate(117.432 154.851) rotate(8.72)" fill="#fff"/>
      <path id="Trazado_126406" data-name="Trazado 126406" d="M235.893,327.84l-30.315,7.329,3.5,28.595-58.053,43.6c-2.319.326-4.7.7-6.018,1.031-3.176.758-8.784,8.753-10.368,9.549l-11.315,8.731s-.993,3.971,4.168,3.176,10.913-4.76,11.512-4.76,2.4,1.205,1.516,3.789c-.758,2.274-3.865,10.095-3.865,10.095l-3.842,7.048s16.613.546,21.22-5.616c3.153-4.183,12.884-16.044,12.884-16.044s68.338-33.619,72.438-40.66C244.942,374.123,235.893,327.84,235.893,327.84Z" transform="translate(-46.485 -156.492)" fill="#ffbe9d"/>
      <path id="Trazado_126407" data-name="Trazado 126407" d="M249.118,387.443a18.878,18.878,0,0,0-.136-3.122,10.883,10.883,0,0,0-10.269-9.292,18.817,18.817,0,0,0-3.122.174,2.889,2.889,0,0,1,.819-.25,9.649,9.649,0,0,1,2.319-.2,10.777,10.777,0,0,1,10.527,9.534,9.66,9.66,0,0,1,0,2.327A2.9,2.9,0,0,1,249.118,387.443Z" transform="translate(-73.686 -167.848)" fill="#eb996e"/>
      <path id="Trazado_126408" data-name="Trazado 126408" d="M151.6,469.69a8.715,8.715,0,0,1-.394,1.91,20.462,20.462,0,0,1-1.682,4.418,8.807,8.807,0,0,1-3.2,3.494,4.8,4.8,0,0,1-1.341.546,1.142,1.142,0,0,1-.531.053,11.662,11.662,0,0,0,1.728-.834,9.52,9.52,0,0,0,3.032-3.448,26.415,26.415,0,0,0,1.72-4.312A11.189,11.189,0,0,1,151.6,469.69Z" transform="translate(-51.619 -190.837)" fill="#eb996e"/>
      <path id="Trazado_126409" data-name="Trazado 126409" d="M162.478,466.2a7.527,7.527,0,0,1-.584,1.842,36.31,36.31,0,0,1-1.986,4.229,36.9,36.9,0,0,1-2.516,3.941,7.881,7.881,0,0,1-1.243,1.516,11.611,11.611,0,0,1,1.016-1.645c.652-.993,1.516-2.387,2.395-3.971s1.584-3.032,2.077-4.146A11.236,11.236,0,0,1,162.478,466.2Z" transform="translate(-54.452 -189.992)" fill="#eb996e"/>
      <path id="Trazado_126410" data-name="Trazado 126410" d="M163.089,400.9a4.293,4.293,0,0,1,.136.97c.068.621.121,1.516.152,2.645a52.014,52.014,0,0,1-2.5,17.249c-.349,1.061-.652,1.917-.894,2.493a4.807,4.807,0,0,1-.4.887,4.371,4.371,0,0,1,.258-.94c.2-.591.462-1.455.758-2.524a62.147,62.147,0,0,0,1.849-8.5,63.536,63.536,0,0,0,.637-8.67v-2.637a5.2,5.2,0,0,1,.008-.978Z" transform="translate(-55.282 -174.181)" fill="#263238"/>
      <path id="Trazado_126411" data-name="Trazado 126411" d="M142.54,412.91a20.225,20.225,0,0,1,.955,2.387c.561,1.516,1.341,3.532,2.274,5.767s1.8,4.244,2.44,5.692a20.837,20.837,0,0,1,.993,2.372,13.067,13.067,0,0,1-1.243-2.274c-.712-1.425-1.629-3.418-2.554-5.661s-1.66-4.312-2.152-5.828A13.868,13.868,0,0,1,142.54,412.91Z" transform="translate(-51.156 -177.089)" fill="#263238"/>
      <path id="Trazado_126412" data-name="Trazado 126412" d="M121.362,437.638a1.986,1.986,0,0,1-.477.136l-1.387.333c-.606.144-1.341.311-2.213.455s-1.849.356-2.956.493-2.274.326-3.6.44-2.7.212-4.161.3a79.413,79.413,0,0,1-19.007-1.448c-1.432-.311-2.8-.584-4.062-.932s-2.433-.652-3.494-.978-2.016-.652-2.85-.932-1.516-.553-2.114-.758l-1.326-.531A3.5,3.5,0,0,1,73.26,434a1.881,1.881,0,0,1,.485.136l1.349.462c.576.212,1.3.47,2.13.758s1.789.591,2.857.872,2.228.637,3.494.925,2.622.6,4.055.894a92,92,0,0,0,9.42,1.258,90.58,90.58,0,0,0,9.5.182c1.463-.076,2.85-.129,4.146-.258s2.493-.25,3.592-.386,2.084-.3,2.956-.44,1.614-.265,2.221-.387l1.4-.258a2.218,2.218,0,0,1,.493-.121Z" transform="translate(-34.382 -182.196)" fill="#263238"/>
      <path id="Trazado_126413" data-name="Trazado 126413" d="M130.68,420.192a20.3,20.3,0,0,1-3.6-1.736,21,21,0,0,1-3.41-2.077,19.417,19.417,0,0,1,3.6,1.736A20.008,20.008,0,0,1,130.68,420.192Z" transform="translate(-46.587 -177.93)" fill="#263238"/>
      <path id="Trazado_126414" data-name="Trazado 126414" d="M261.816,308.643l-.189.061-.561.152-2.168.553-8.155,2.016-28.193,6.821-.2.046v-.2c-.8-5.207-1.887-10.822-2.941-16.673-.69-3.9-1.288-7.73-1.7-11.444s-.591-7.329-.644-10.769a58.162,58.162,0,0,1,.568-9.739,28.04,28.04,0,0,1,2.486-8.132A20.372,20.372,0,0,1,224.3,255.7a16.409,16.409,0,0,1,4.373-2.986,14.621,14.621,0,0,1,3.2-1.008l.864-.106a1.434,1.434,0,0,1,.3,0,1.334,1.334,0,0,1-.3.061l-.849.152a14.725,14.725,0,0,0-3.145,1.061,16.673,16.673,0,0,0-4.29,3.032,20.462,20.462,0,0,0-4.085,5.593,28.117,28.117,0,0,0-2.41,8.056,58.507,58.507,0,0,0-.531,9.693c.061,3.426.258,7.018.667,10.724s1.016,7.526,1.705,11.421c1.046,5.843,2.13,11.467,2.925,16.673l-.235-.159,28.231-6.707,8.178-1.91,2.183-.493.568-.121A.9.9,0,0,1,261.816,308.643Z" transform="translate(-69.196 -138.03)" fill="#263238"/>
    </g>
  </g>
</svg>
