<svg xmlns="http://www.w3.org/2000/svg" width="352" height="309.529" viewBox="0 0 352 309.529">
  <g id="mercados-extranjeros" transform="translate(0 -78.65)">
    <g id="freepik--background-complete--inject-345" transform="translate(0 78.65)">
      <rect id="Rectángulo_29822" data-name="Rectángulo 29822" width="352" height="0.235" transform="translate(0 267.06)" fill="#ebebeb"/>
      <rect id="Rectángulo_29823" data-name="Rectángulo 29823" width="31.147" height="0.235" transform="translate(273.739 282.191)" fill="#ebebeb"/>
      <rect id="Rectángulo_29824" data-name="Rectángulo 29824" width="8.172" height="0.235" transform="translate(225.712 284.749)" fill="#ebebeb"/>
      <rect id="Rectángulo_29825" data-name="Rectángulo 29825" width="18.047" height="0.235" transform="translate(275.457 273.464)" fill="#ebebeb"/>
      <rect id="Rectángulo_29826" data-name="Rectángulo 29826" width="40.616" height="0.235" transform="translate(49.334 275.044)" fill="#ebebeb"/>
      <rect id="Rectángulo_29827" data-name="Rectángulo 29827" width="5.953" height="0.235" transform="translate(73.293 275.044)" fill="#ebebeb"/>
      <rect id="Rectángulo_29828" data-name="Rectángulo 29828" width="88.098" height="0.235" transform="translate(85.389 279.012)" fill="#ebebeb"/>
      <path id="Trazado_121442" data-name="Trazado 121442" d="M318.3,78.65l-34.438,129.5V147.3l18.178-68.65Z" transform="translate(-89.326 -78.65)" fill="#fff"/>
      <path id="Trazado_121443" data-name="Trazado 121443" d="M330.889,78.65,296.159,208.427H290.62L325.349,78.65Z" transform="translate(-92.459 -78.65)" fill="#fff"/>
      <path id="Trazado_121444" data-name="Trazado 121444" d="M439.064,165.73v20.736l-7.025,27.15H426.5Z" transform="translate(-143.62 -89.793)" fill="#fff"/>
      <rect id="Rectángulo_29833" data-name="Rectángulo 29833" width="85.267" height="76.465" transform="translate(49.334 190.557)" fill="#f5f5f5"/>
      <rect id="Rectángulo_29834" data-name="Rectángulo 29834" width="29.679" height="76.465" transform="translate(49.334 190.557)" fill="#ebebeb"/>
      <rect id="Rectángulo_29835" data-name="Rectángulo 29835" width="85.267" height="76.465" transform="translate(66.299 123.264)" fill="#ebebeb"/>
      <rect id="Rectángulo_29836" data-name="Rectángulo 29836" width="29.679" height="76.465" transform="translate(66.299 123.264)" fill="#e0e0e0"/>
      <rect id="Rectángulo_29837" data-name="Rectángulo 29837" width="85.267" height="76.465" transform="translate(49.334 53.265)" fill="#f5f5f5"/>
      <rect id="Rectángulo_29838" data-name="Rectángulo 29838" width="29.679" height="76.465" transform="translate(49.334 53.265)" fill="#ebebeb"/>
      <rect id="Rectángulo_29839" data-name="Rectángulo 29839" width="85.267" height="76.465" transform="translate(98.481 190.623)" fill="#ebebeb"/>
      <rect id="Rectángulo_29840" data-name="Rectángulo 29840" width="29.679" height="76.465" transform="translate(103.988 190.623)" fill="#e0e0e0"/>
      <rect id="Rectángulo_29841" data-name="Rectángulo 29841" width="85.267" height="47.895" transform="translate(105.024 151.054)" fill="#f5f5f5"/>
      <rect id="Rectángulo_29842" data-name="Rectángulo 29842" width="29.679" height="47.895" transform="translate(110.897 151.054)" fill="#e6e6e6"/>
      <rect id="Rectángulo_29843" data-name="Rectángulo 29843" width="55.089" height="76.465" transform="translate(103.672 80.092)" fill="#ebebeb"/>
      <rect id="Rectángulo_29844" data-name="Rectángulo 29844" width="19.175" height="76.465" transform="translate(106.958 80.092)" fill="#e0e0e0"/>
      <rect id="Rectángulo_29845" data-name="Rectángulo 29845" width="85.267" height="76.465" transform="translate(292.923 267.163) rotate(180)" fill="#f5f5f5"/>
      <rect id="Rectángulo_29846" data-name="Rectángulo 29846" width="29.679" height="76.465" transform="translate(292.923 267.163) rotate(180)" fill="#e6e6e6"/>
      <rect id="Rectángulo_29847" data-name="Rectángulo 29847" width="85.267" height="62.246" transform="translate(299.302 199.411) rotate(180)" fill="#ebebeb"/>
      <rect id="Rectángulo_29848" data-name="Rectángulo 29848" width="29.679" height="62.246" transform="translate(296.362 199.411) rotate(180)" fill="#e0e0e0"/>
      <rect id="Rectángulo_29849" data-name="Rectángulo 29849" width="82.23" height="30.469" transform="translate(292.923 140.571) rotate(180)" fill="#f5f5f5"/>
      <rect id="Rectángulo_29850" data-name="Rectángulo 29850" width="28.617" height="30.469" transform="translate(292.933 140.571) rotate(180)" fill="#e6e6e6"/>
    </g>
    <g id="freepik--Shadow--inject-345" transform="translate(52.767 366.888)">
      <ellipse id="freepik--path--inject-345" cx="123.233" cy="10.645" rx="123.233" ry="10.645" fill="#f5f5f5"/>
    </g>
    <g id="freepik--bubble-speech--inject-345" transform="translate(223.022 108.085)">
      <rect id="Rectángulo_29851" data-name="Rectángulo 29851" width="34.692" height="32.256" rx="4.53" fill="#8ec8c8"/>
      <path id="Trazado_121445" data-name="Trazado 121445" d="M340.34,139.89s2.191,10.6,17.125,16.476c0,0-9.131-5.84-8.567-16.476Z" transform="translate(-326.384 -111.734)" fill="#8ec8c8"/>
      <path id="Trazado_121446" data-name="Trazado 121446" d="M335.96,125.81l4.956,6.884,10.062-11.934" transform="translate(-326.123 -110.594)" fill="none" stroke="#fff" stroke-linecap="round" stroke-linejoin="round" stroke-width="3"/>
    </g>
    <g id="freepik--character-2--inject-345" transform="translate(181.274 122.096)">
      <path id="Trazado_121447" data-name="Trazado 121447" d="M390.707,149.134c4.6,3.3,8.755,8.943,5.642,24.742s-3.9,19.561-3.9,19.561l-30.093-3.385s-1.411-13.984.94-27.14C366.472,145.918,377.24,139.457,390.707,149.134Z" transform="translate(-294.098 -144.618)" fill="#263238"/>
      <path id="Trazado_121448" data-name="Trazado 121448" d="M358.536,242.25s-10.194,54.309-12.912,76.625c-3.555,29.1-18.084,71.66-18.084,71.66l5.812,1.5s20.482-36.178,24.451-68.716c16.269-33.262,17.586-74.227,17.586-74.227Z" transform="translate(-292.049 -150.435)" fill="#eec1bb"/>
      <path id="Trazado_121449" data-name="Trazado 121449" d="M315.967,413.232a8.4,8.4,0,0,1,2.981-.752h0s3.574-2.107,7.11-10.269h3.987A3.291,3.291,0,0,1,333.1,404.4a1.882,1.882,0,0,1,.113.555,22.664,22.664,0,0,1-.31,2.821,79.84,79.84,0,0,1-2.323,9.4L329.9,417l1.223-5.934c.414-2.022-1.712-.075-2.69,1.965s-2.454,4.025-6.827,3.085C316.456,414.9,314.4,414.153,315.967,413.232Z" transform="translate(-291.328 -159.966)" fill="#263238"/>
      <path id="Trazado_121450" data-name="Trazado 121450" d="M333.848,404.2c.752-1.928,1.712-5.379,1.712-5.379l-8.53-1.185s0,4.194-1.58,6.94C329.908,404.561,333.848,404.2,333.848,404.2Z" transform="translate(-291.924 -159.694)" fill="#263238"/>
      <path id="Trazado_121451" data-name="Trazado 121451" d="M371.75,241.33s1.27,55.249,3.216,77.631c2.549,29.209-2.868,73.86-2.868,73.86l6,.263s12.555-39.629,9.733-72.3c9.037-35.9,1.881-76.249,1.881-76.249Z" transform="translate(-294.683 -150.38)" fill="#eec1bb"/>
      <path id="Trazado_121452" data-name="Trazado 121452" d="M362.17,415.077A8.464,8.464,0,0,1,365.058,414h0s3.32-2.473,5.962-10.975l3.95-.451a3.282,3.282,0,0,1,3.282,1.881,1.787,1.787,0,0,1,.169.536,22.755,22.755,0,0,1,0,2.887,79.508,79.508,0,0,1-1.307,9.555l-.686-.094L377,411.3c.188-2.05-1.7.113-2.464,2.248s-2.041,4.326-6.517,3.762C362.81,416.675,360.675,416.139,362.17,415.077Z" transform="translate(-294.084 -159.987)" fill="#263238"/>
      <path id="Trazado_121453" data-name="Trazado 121453" d="M378.9,404.254c.536-1.994,1.119-5.53,1.119-5.53l-8.6-.254s.451,4.166-.818,7.072C375.02,405.025,378.9,404.254,378.9,404.254Z" transform="translate(-294.615 -159.744)" fill="#263238"/>
      <path id="Trazado_121454" data-name="Trazado 121454" d="M357.482,232.61,346.3,309.931s36.413,5.642,50.989,2.342c0,0,3.583-44.641-11.633-77.114Z" transform="translate(-293.167 -149.861)" fill="#263238"/>
      <path id="Trazado_121455" data-name="Trazado 121455" d="M321.083,202.553l-9.733-9.611s-.329-2.577-1.279-3.291-7.608-3.141-8.464-2.6-1.956,5.934-.809,6.921,7.213,2.248,7.834,2.144l10.561,12.517Z" transform="translate(-290.426 -147.141)" fill="#eec1bb"/>
      <path id="Trazado_121456" data-name="Trazado 121456" d="M356.712,184.91c-4.194,2.229-19.09,23.05-21.282,24.075s-18.959-12.564-18.959-12.564l-2.821,4.824S327.4,220.73,335.176,219.79s22.664-17.4,22.664-17.4Z" transform="translate(-291.221 -147.018)" fill="#8ec8c8"/>
      <path id="Trazado_121457" data-name="Trazado 121457" d="M356.712,184.91c-4.194,2.229-19.09,23.05-21.282,24.075s-18.959-12.564-18.959-12.564l-2.821,4.824S327.4,220.73,335.176,219.79s22.664-17.4,22.664-17.4Z" transform="translate(-291.221 -147.018)" fill="#fff" opacity="0.1"/>
      <path id="Trazado_121458" data-name="Trazado 121458" d="M317.362,197.63l-1.166-1.1L313.14,201.7l1.1,2.116Z" transform="translate(-291.191 -147.711)" fill="#8ec8c8"/>
      <path id="Trazado_121459" data-name="Trazado 121459" d="M354.266,209.008c3.48-3.32,5.981-6.075,5.981-6.075l-.263-4.138L358.7,194.78a16.5,16.5,0,0,0-4.439,14.228Z" transform="translate(-293.628 -147.607)" opacity="0.2"/>
      <path id="Trazado_121460" data-name="Trazado 121460" d="M357.565,228.94c-1.176-20.689-.649-32.087-.113-37.776.592-6.066,1.523-6.291,1.523-6.291s6.583-.639,12.291-.592a92.739,92.739,0,0,1,13.166,1.392,87.592,87.592,0,0,1,12.225,2.943c-.668,1.881-1.27,3.762-1.834,5.417-.743,2.248-1.411,4.326-2.022,6.273-1.129,3.63-2.012,6.771-2.708,9.583a104.386,104.386,0,0,0-3.132,21.63s7.232,18.9,8.642,32.773l-23.981,2.586-3.291-13.871-3.291,14.341-13.4-4.7Z" transform="translate(-293.485 -146.981)" fill="#8ec8c8"/>
      <path id="Trazado_121461" data-name="Trazado 121461" d="M357.565,228.94c-1.176-20.689-.649-32.087-.113-37.776.592-6.066,1.523-6.291,1.523-6.291s6.583-.639,12.291-.592a92.739,92.739,0,0,1,13.166,1.392,87.592,87.592,0,0,1,12.225,2.943c-.668,1.881-1.27,3.762-1.834,5.417-.743,2.248-1.411,4.326-2.022,6.273-1.129,3.63-2.012,6.771-2.708,9.583a104.386,104.386,0,0,0-3.132,21.63s7.232,18.9,8.642,32.773l-23.981,2.586-3.291-13.871-3.291,14.341-13.4-4.7Z" transform="translate(-293.485 -146.981)" fill="#fff" opacity="0.1"/>
      <path id="Trazado_121462" data-name="Trazado 121462" d="M391.272,216.245c.32-1.58.7-3.263,1.157-5.069.292-1.147.611-2.351.94-3.63-.94-3.207-1.881-.7-1.881-.7A28.954,28.954,0,0,0,391.272,216.245Z" transform="translate(-295.829 -148.27)" opacity="0.2"/>
      <path id="Trazado_121463" data-name="Trazado 121463" d="M372.712,184.944a7.958,7.958,0,0,1,.893-.386c.677-.536,1.5-1.824,1.467-4.956a26.99,26.99,0,0,0-.348-3.705l8.718-1.627s-2.972,5.868-.5,10.232c.856.376,1.364.94,1.27,1.627-.649,5.031-11.482,9.9-11.482,9.9S367.455,187.831,372.712,184.944Z" transform="translate(-294.601 -146.384)" fill="#eec1bb"/>
      <path id="Trazado_121464" data-name="Trazado 121464" d="M375,175.9a26.987,26.987,0,0,1,.339,3.677c5.887,0,8.379-5.3,8.379-5.3Z" transform="translate(-294.877 -146.384)" opacity="0.2"/>
      <path id="Trazado_121465" data-name="Trazado 121465" d="M379.4,150.108c-7.58-.414-10.241,3.508-11.219,11.285-1.232,9.724.555,16.777,10.147,15.216C391.35,174.455,391.99,150.795,379.4,150.108Z" transform="translate(-294.45 -144.943)" fill="#eec1bb"/>
      <path id="Trazado_121466" data-name="Trazado 121466" d="M373.279,162a15.985,15.985,0,0,1-2.379,3.019,2.078,2.078,0,0,0,1.956.94Z" transform="translate(-294.632 -145.653)" fill="#d4827d"/>
      <path id="Trazado_121467" data-name="Trazado 121467" d="M378.4,161.493c0,.621.245,1.157.658,1.185s.79-.442.846-1.063-.254-1.157-.668-1.185S378.447,160.872,378.4,161.493Z" transform="translate(-295.079 -145.56)" fill="#263238"/>
      <path id="Trazado_121468" data-name="Trazado 121468" d="M379.387,160.43l-1.307-.63S378.663,160.985,379.387,160.43Z" transform="translate(-295.06 -145.522)" fill="#263238"/>
      <path id="Trazado_121469" data-name="Trazado 121469" d="M370.19,160.712c-.047.621.245,1.147.658,1.185s.8-.442.846-1.072-.254-1.147-.668-1.185S370.237,160.091,370.19,160.712Z" transform="translate(-294.59 -145.513)" fill="#263238"/>
      <path id="Trazado_121470" data-name="Trazado 121470" d="M371.177,159.649l-1.307-.639S370.453,160.2,371.177,159.649Z" transform="translate(-294.571 -145.475)" fill="#263238"/>
      <path id="Trazado_121471" data-name="Trazado 121471" d="M378.79,156a3.931,3.931,0,0,1,3.216,1.326" transform="translate(-295.103 -145.295)" fill="none" stroke="#263238" stroke-linecap="round" stroke-linejoin="round" stroke-width="0.686"/>
      <path id="Trazado_121472" data-name="Trazado 121472" d="M372.806,155.33a3.536,3.536,0,0,0-3.056.451" transform="translate(-294.564 -145.246)" fill="none" stroke="#263238" stroke-linecap="round" stroke-linejoin="round" stroke-width="0.686"/>
      <path id="Trazado_121473" data-name="Trazado 121473" d="M387.017,163.157s-3.207-6.423-2.407-11.2c0,0-14.68-6.959-16.26,8.238,0,0-.724-13.617,12.319-13.166s11.943,19.476,4.909,24.789C385.578,171.781,388.992,167.173,387.017,163.157Z" transform="translate(-294.48 -144.761)" fill="#263238"/>
      <path id="Trazado_121474" data-name="Trazado 121474" d="M386.786,165.629a3.329,3.329,0,0,1,3.762-2.821c2.332.386,3.188,5.276-2.718,6.113C386.983,169.015,386.541,168.168,386.786,165.629Z" transform="translate(-295.575 -145.699)" fill="#eec1bb"/>
      <path id="Trazado_121475" data-name="Trazado 121475" d="M378.994,168.07a6.1,6.1,0,0,1-4.354,1.759" transform="translate(-294.855 -146.015)" fill="none" stroke="#263238" stroke-linecap="round" stroke-linejoin="round" stroke-width="0.686"/>
      <path id="Trazado_121476" data-name="Trazado 121476" d="M384.515,152.236s-16.382-4.26-17.755,11.1" transform="translate(-294.386 -145.039)" fill="none" stroke="#263238" stroke-linecap="round" stroke-linejoin="round" stroke-width="0.686"/>
      <path id="Trazado_121477" data-name="Trazado 121477" d="M370.076,189.59s-1.251,12.451.8,23.783c0,0,4.834-17.51,11.624-23.463l-7.805,1.119Z" transform="translate(-294.561 -147.297)" fill="#8ec8c8"/>
      <path id="Trazado_121478" data-name="Trazado 121478" d="M370.076,189.59s-1.251,12.451.8,23.783c0,0,4.834-17.51,11.624-23.463l-7.805,1.119Z" transform="translate(-294.561 -147.297)" fill="#fff" opacity="0.5"/>
      <path id="Trazado_121479" data-name="Trazado 121479" d="M382.549,183.677l-7.928,5.859V183.31a9.452,9.452,0,0,0-5.953,9.4l5.257-2.417v2.417l1.232-2.332,4.157,4.749s5.088-5.934,5.642-7.721S382.549,183.677,382.549,183.677Z" transform="translate(-294.498 -146.923)" fill="#8ec8c8"/>
      <path id="Trazado_121480" data-name="Trazado 121480" d="M382.549,183.677l-7.928,5.859V183.31a9.452,9.452,0,0,0-5.953,9.4l5.257-2.417v2.417l1.232-2.332,4.157,4.749s5.088-5.934,5.642-7.721S382.549,183.677,382.549,183.677Z" transform="translate(-294.498 -146.923)" fill="#fff" opacity="0.7"/>
      <path id="Trazado_121481" data-name="Trazado 121481" d="M390.179,239.838,382.9,205.108a1.618,1.618,0,0,0-1.58-1.288H358.929a1.129,1.129,0,0,0-1.11,1.326l6.066,34.005a1.608,1.608,0,0,0,1.542,1.335l23.67.705a1.128,1.128,0,0,0,1.081-1.354Z" transform="translate(-293.852 -148.145)" fill="#263238"/>
      <path id="Trazado_121482" data-name="Trazado 121482" d="M390.179,239.838,382.9,205.108a1.618,1.618,0,0,0-1.58-1.288H358.929a1.129,1.129,0,0,0-1.11,1.326l6.066,34.005a1.608,1.608,0,0,0,1.542,1.335l23.67.705a1.128,1.128,0,0,0,1.081-1.354Z" transform="translate(-293.852 -148.145)" fill="#fff" opacity="0.1"/>
      <path id="Trazado_121483" data-name="Trazado 121483" d="M401.078,229.45l-11.577-7.3s-.884-2.436-1.956-2.934-8.106-1.429-8.793-.724-.63,6.207.705,6.931,7.523.639,8.106.4l12.968,9.931Z" transform="translate(-295.075 -149.004)" fill="#eec1bb"/>
      <path id="Trazado_121484" data-name="Trazado 121484" d="M399.094,188.89s-7.523,10.984-6.461,20.388l10.034,16.608-6.743-3.442-3.056,5.755s7.758,11.953,17.633,9.131S399.094,188.89,399.094,188.89Z" transform="translate(-295.921 -147.256)" fill="#8ec8c8"/>
      <path id="Trazado_121485" data-name="Trazado 121485" d="M399.094,188.89s-7.523,10.984-6.461,20.388l10.034,16.608-6.743-3.442-3.056,5.755s7.758,11.953,17.633,9.131S399.094,188.89,399.094,188.89Z" transform="translate(-295.921 -147.256)" fill="#fff" opacity="0.1"/>
      <path id="Trazado_121486" data-name="Trazado 121486" d="M396.592,224.185l-3.837,7.138-.865-2.041,3.056-5.8Z" transform="translate(-295.883 -149.317)" fill="#8ec8c8"/>
      <path id="Trazado_121487" data-name="Trazado 121487" d="M380.6,203.819c-.884,0-.884,23.134-.884,23.134L359.5,226.37s-2.276-19.561,0-22.57Z" transform="translate(-293.893 -148.144)" fill="#fff"/>
      <path id="Trazado_121488" data-name="Trazado 121488" d="M380.6,203.819c-.884,0-.884,23.134-.884,23.134L359.5,226.37s-2.276-19.561,0-22.57Z" transform="translate(-293.893 -148.144)" opacity="0.1"/>
      <path id="Trazado_121489" data-name="Trazado 121489" d="M293,184.31l19.119,8.041a.856.856,0,0,1,.442,1.128h0a.837.837,0,0,1-1.1.433l-19.241-8.153-.179-.094L289.8,184l2.944.254a.828.828,0,0,1,.254.056Z" transform="translate(-289.8 -146.964)" fill="#263238"/>
    </g>
    <g id="freepik--character-1--inject-345" transform="translate(63.201 104.408)">
      <g id="freepik--group--inject-345">
        <path id="Trazado_121490" data-name="Trazado 121490" d="M221.509,223.407l-18.573,1.655-7.448-4.2s-23.887-13.307-30.093-17.511c-1.881-1.288-3.639-4.091-5.153-7.382a74.353,74.353,0,0,1-3.273-8.68c-.423-1.326-.8-2.6-1.119-3.762-.715-2.511-1.157-4.392-1.279-4.9h0a.46.46,0,0,0,0-.122h.047l5.887-1.881,4.918-1.561s.226,1.166.611,2.943l.339,1.57c.1.451.207.94.32,1.429,1.241,5.473,3.15,12.94,4.533,14.163,2.229,1.965,30.253,21.065,31.25,21.564s9.921,0,9.921,0Z" transform="translate(-104.239 -115.13)" fill="#e4897b"/>
        <path id="Trazado_121491" data-name="Trazado 121491" d="M154.275,150.68c8.558-.132,14,26.388,14,26.388l-11.285,5.642a36.13,36.13,0,0,1-4.843-18.263C152.413,154.272,154.275,150.68,154.275,150.68Z" transform="translate(-104.094 -108.7)" fill="#8ec8c8"/>
        <path id="Trazado_121492" data-name="Trazado 121492" d="M154.275,150.68c8.558-.132,14,26.388,14,26.388l-11.285,5.642a36.13,36.13,0,0,1-4.843-18.263C152.413,154.272,154.275,150.68,154.275,150.68Z" transform="translate(-104.094 -108.7)" fill="#fff" opacity="0.5"/>
        <path id="Trazado_121493" data-name="Trazado 121493" d="M169.679,179.14l-3.047,1.975-3.978,2.577-5.718,3.7-1.025.668-1.241-3.771,1.147-.621.752-.414L161.8,180.4l4.175-2.285,2.088-1.138.367-.2Z" transform="translate(-104.245 -114.654)" fill="#8ec8c8"/>
        <path id="Trazado_121494" data-name="Trazado 121494" d="M163.154,187.517a12.15,12.15,0,0,1-2.953,8.012,74.342,74.342,0,0,1-3.273-8.68l-1.025.668-1.241-3.762,1.147-.621c-.715-2.511-1.157-4.392-1.279-4.9h0v-.15l1.354-10.345a50.387,50.387,0,0,1,4.533,8.464c.489,1.157.94,2.389,1.354,3.668q.216.658.395,1.354c.179.639.329,1.288.461,1.937a24.451,24.451,0,0,1,.527,4.354Z" transform="translate(-104.236 -113.793)" opacity="0.2"/>
        <path id="Trazado_121495" data-name="Trazado 121495" d="M153.05,408.284l7.871.837,1.476-16.974-7.871-.837Z" transform="translate(-104.148 -141.63)" fill="#e4897b"/>
        <path id="Trazado_121496" data-name="Trazado 121496" d="M111.3,407.631h7.617l.63-17.661h-7.627Z" transform="translate(-101.66 -141.55)" fill="#e4897b"/>
        <path id="Trazado_121497" data-name="Trazado 121497" d="M119.8,407.81h-9.263a.677.677,0,0,0-.649.527l-1.5,6.79a1.119,1.119,0,0,0,.865,1.335.734.734,0,0,0,.245,0c3,0,5.182-.226,8.943-.226,2.323,0,9.32.235,12.517.235s3.621-3.16,2.3-3.451c-5.878-1.279-10.345-3.056-12.225-4.7A1.881,1.881,0,0,0,119.8,407.81Z" transform="translate(-101.485 -142.613)" fill="#263238"/>
        <path id="Trazado_121498" data-name="Trazado 121498" d="M121.081,408.835a.188.188,0,0,1-.141-.16.169.169,0,0,1,.085-.169c.273-.179,2.737-1.693,3.583-1.251a.517.517,0,0,1,.31.5,1.082,1.082,0,0,1-.376.94,2.267,2.267,0,0,1-1.467.395,8.866,8.866,0,0,1-1.994-.254Zm.517-.254a3.677,3.677,0,0,0,2.718-.141.762.762,0,0,0,.244-.649c0-.141-.066-.207-.122-.207a.376.376,0,0,0-.226-.047,7.345,7.345,0,0,0-2.614,1.044Z" transform="translate(-102.235 -142.575)" fill="#8ec8c8"/>
        <path id="Trazado_121499" data-name="Trazado 121499" d="M120.995,408.783a.2.2,0,0,1-.085-.169c0-.1.2-2.295,1.081-3.009a.94.94,0,0,1,.762-.235.593.593,0,0,1,.583.47c.15.809-1.373,2.483-2.154,2.915H121.1a.188.188,0,0,1-.1.028Zm1.223-2.972a4.345,4.345,0,0,0-.94,2.389c.79-.592,1.759-1.881,1.665-2.36,0-.047,0-.179-.263-.179h-.085a.658.658,0,0,0-.348.132Z" transform="translate(-102.233 -142.467)" fill="#8ec8c8"/>
        <path id="Trazado_121500" data-name="Trazado 121500" d="M161.575,407.56h-9.263a.668.668,0,0,0-.649.517l-1.5,6.79a1.129,1.129,0,0,0,.865,1.335h.254c2.991-.056,5.172-.235,8.943-.235,2.313,0,9.31.245,12.508.245s3.621-3.169,2.313-3.461c-5.878-1.279-10.345-3.047-12.225-4.7A1.881,1.881,0,0,0,161.575,407.56Z" transform="translate(-103.974 -142.598)" fill="#263238"/>
        <path id="Trazado_121501" data-name="Trazado 121501" d="M162.851,408.575a.188.188,0,0,1-.141-.16.16.16,0,0,1,.094-.169c.273-.179,2.737-1.693,3.574-1.251a.536.536,0,0,1,.31.5,1.072,1.072,0,0,1-.376.94,2.323,2.323,0,0,1-1.448.442,8.946,8.946,0,0,1-2.012-.3Zm.517-.254a3.762,3.762,0,0,0,2.718-.132.752.752,0,0,0,.244-.649c0-.15-.066-.216-.113-.216a.4.4,0,0,0-.235-.047A7.523,7.523,0,0,0,163.368,408.321Z" transform="translate(-104.724 -142.56)" fill="#8ec8c8"/>
        <path id="Trazado_121502" data-name="Trazado 121502" d="M162.8,408.5a.2.2,0,0,1-.094-.16c0-.113.2-2.3,1.081-3.019a.94.94,0,0,1,.762-.235.592.592,0,0,1,.583.48c.16.8-1.364,2.483-2.154,2.906H162.9a.178.178,0,0,1-.094.028Zm1.223-2.972a4.27,4.27,0,0,0-.94,2.389c.781-.592,1.749-1.881,1.655-2.351,0-.056,0-.188-.263-.188h-.085a.63.63,0,0,0-.367.15Z" transform="translate(-104.724 -142.45)" fill="#8ec8c8"/>
        <path id="Trazado_121503" data-name="Trazado 121503" d="M154.571,391.31l7.871.837-.771,8.755-7.871-.837Z" transform="translate(-104.193 -141.63)" opacity="0.2"/>
        <path id="Trazado_121504" data-name="Trazado 121504" d="M111.939,389.98h7.627l-.329,9.113H111.61Z" transform="translate(-101.679 -141.55)" opacity="0.2"/>
        <path id="Trazado_121505" data-name="Trazado 121505" d="M114.9,225.22H155.34c3.846,21.018,15.893,95.377,7.251,161.629l-13.7-1.7s1.27-87.957-10.824-120.467c-1.392,17.4-3.047,35.914-4.476,45.77C130.1,334.694,122.566,387.7,122.566,387.7H108.62s2.821-50.726,4.166-74.565C114.225,287.259,114.855,230.533,114.9,225.22Z" transform="translate(-101.501 -131.733)" fill="#8ec8c8"/>
        <path id="Trazado_121506" data-name="Trazado 121506" d="M140,266.268a108.268,108.268,0,0,1,4.523,17.51c1.128-15.489-3.395-31.908-3.395-31.908Z" transform="translate(-103.37 -124.516)" opacity="0.2"/>
        <path id="Trazado_121507" data-name="Trazado 121507" d="M166.646,400.023,149.69,397.5l.517-4.693,17.633,2.313Z" transform="translate(-103.948 -141.719)" fill="#8ec8c8"/>
        <path id="Trazado_121508" data-name="Trazado 121508" d="M166.646,400.023,149.69,397.5l.517-4.693,17.633,2.313Z" transform="translate(-103.948 -141.719)" fill="#fff" opacity="0.6"/>
        <path id="Trazado_121509" data-name="Trazado 121509" d="M124.188,397.778H107.74V392.86l17.069-.32Z" transform="translate(-101.448 -141.703)" fill="#8ec8c8"/>
        <path id="Trazado_121510" data-name="Trazado 121510" d="M124.188,397.778H107.74V392.86l17.069-.32Z" transform="translate(-101.448 -141.703)" fill="#fff" opacity="0.6"/>
        <path id="Trazado_121511" data-name="Trazado 121511" d="M115.218,232.167l-.038-5.859,41.247-2.549.292,5.68Z" transform="translate(-101.891 -120.301)" fill="#263238"/>
        <rect id="Rectángulo_29852" data-name="Rectángulo 29852" width="1.862" height="8.586" transform="translate(21.903 104.448)" fill="#8ec8c8"/>
        <rect id="Rectángulo_29853" data-name="Rectángulo 29853" width="1.862" height="8.586" transform="translate(50.412 101.914) rotate(-4.17)" fill="#8ec8c8"/>
        <path id="Trazado_121512" data-name="Trazado 121512" d="M155.88,219.394l-41.209,3.047c0-3.611-.094-7.636-.367-11.887-.508-7.852-1.476-16.448-2.558-24.507-2.295-17.125-5.106-31.824-5.106-31.824,19.184-4.843,44.924-3.583,44.924-3.583C158.25,175.693,155.88,219.394,155.88,219.394Z" transform="translate(-101.383 -108.689)" fill="#8ec8c8"/>
        <path id="Trazado_121513" data-name="Trazado 121513" d="M155.88,219.394l-41.209,3.047c0-3.611-.094-7.636-.367-11.887-.508-7.852-1.476-16.448-2.558-24.507-2.295-17.125-5.106-31.824-5.106-31.824,19.184-4.843,44.924-3.583,44.924-3.583C158.25,175.693,155.88,219.394,155.88,219.394Z" transform="translate(-101.383 -108.689)" fill="#fff" opacity="0.6"/>
        <path id="Trazado_121514" data-name="Trazado 121514" d="M122.21,150.488c3.762,3.376,12.818,2.135,12.818,2.135s5.642-1.561,4.486-3.338c-3.348-.545-4.965-2.107-5.642-4.11a9.479,9.479,0,0,1-.339-3.818,18.168,18.168,0,0,1,.282-2.135L122.53,130.89C124.044,136.391,125.849,146.5,122.21,150.488Z" transform="translate(-102.31 -107.521)" fill="#e4897b"/>
        <path id="Trazado_121515" data-name="Trazado 121515" d="M125.36,136.52c.442,6.752,5.99,8.614,8.708,8.99a9.48,9.48,0,0,1-.339-3.818Z" transform="translate(-102.498 -107.857)" opacity="0.2"/>
        <path id="Trazado_121516" data-name="Trazado 121516" d="M145.395,113.76c2.737,2.6,1.6,10.5-3.978,14.548s-5.577-15.517-5.577-15.517S143.655,112.1,145.395,113.76Z" transform="translate(-103.123 -106.434)" fill="#263238"/>
        <path id="Trazado_121517" data-name="Trazado 121517" d="M124.41,136.552a9.536,9.536,0,0,0,10.956,3.7,10.608,10.608,0,0,0,6.056-4.937,11.183,11.183,0,0,0,.508-1.006c2.746-6.385,3.592-17.67-3.169-21.865a10.345,10.345,0,0,0-14.247,3.254,10.467,10.467,0,0,0-1.552,4.552C122.134,127.731,121.288,132.113,124.41,136.552Z" transform="translate(-102.31 -106.328)" fill="#e4897b"/>
        <path id="Trazado_121518" data-name="Trazado 121518" d="M134.648,125.03c-.141.592.132,1.147.536,1.213s.8-.376.94-.94-.141-1.147-.527-1.213S134.76,124.419,134.648,125.03Z" transform="translate(-103.049 -107.116)" fill="#263238"/>
        <path id="Trazado_121519" data-name="Trazado 121519" d="M141.938,126.27c-.141.592.141,1.157.527,1.223s.809-.376.94-.94-.141-1.157-.536-1.223S142.041,125.7,141.938,126.27Z" transform="translate(-103.484 -107.189)" fill="#263238"/>
        <path id="Trazado_121520" data-name="Trazado 121520" d="M139.507,126.25a21.752,21.752,0,0,0,2.012,5.642,3.545,3.545,0,0,1-3.009.047Z" transform="translate(-103.282 -107.245)" fill="#de5753"/>
        <path id="Trazado_121521" data-name="Trazado 121521" d="M132.776,122.236a.414.414,0,0,0,.376-.075,2.887,2.887,0,0,1,2.483-.809.357.357,0,0,0,.433-.263.367.367,0,0,0-.263-.433h0a3.611,3.611,0,0,0-3.15.94.367.367,0,0,0,0,.508h0a.461.461,0,0,0,.122.132Z" transform="translate(-102.927 -106.908)" fill="#263238"/>
        <path id="Trazado_121522" data-name="Trazado 121522" d="M136.6,135.327h0a5.5,5.5,0,0,1-4.486-2.445.19.19,0,0,1,.32-.207h0a5.294,5.294,0,0,0,4.175,2.248.188.188,0,0,1,.188.179h0a.188.188,0,0,1-.179.179Z" transform="translate(-102.899 -107.623)" fill="#263238"/>
        <path id="Trazado_121523" data-name="Trazado 121523" d="M145.36,124.17a.4.4,0,0,0,.207.056.376.376,0,0,0,.254-.442h0a3.555,3.555,0,0,0-2.219-2.436.357.357,0,0,0-.442.235h0a.367.367,0,0,0,.235.451h0a2.906,2.906,0,0,1,1.73,1.956.357.357,0,0,0,.235.179Z" transform="translate(-103.558 -106.952)" fill="#263238"/>
        <path id="Trazado_121524" data-name="Trazado 121524" d="M129.866,111.938v3.348a2.483,2.483,0,0,0-1.618,2.953c.724,2.915-1.373,7.034-3.715,8.464,0,0,.075-1.213-.94-1.053s-1.533,6.47.085,9.7c0,0-2.671-3.066-3.555-9.856-.828-6.282-.395-11.379,1.138-13.58Z" transform="translate(-102.161 -106.39)" fill="#263238"/>
        <path id="Trazado_121525" data-name="Trazado 121525" d="M118.44,126.446a7.2,7.2,0,0,0,3.442,4.279c2.219,1.194,3.884-.668,3.762-3.047-.15-2.125-1.467-5.36-3.931-5.548A3.219,3.219,0,0,0,118.44,126.446Z" transform="translate(-102.077 -106.998)" fill="#e4897b"/>
        <path id="Trazado_121526" data-name="Trazado 121526" d="M119.722,117.287s-2.323-5.577,3.762-9.667,20.52.677,21.535,4S135.117,120.964,119.722,117.287Z" transform="translate(-102.136 -106.04)" fill="#263238"/>
        <path id="Trazado_121527" data-name="Trazado 121527" d="M123.455,147.923l9.207,5.041,1.26-6.884,6.451,4.194v8.793L133.546,155l-4.8,7.185-9.47-10.4Z" transform="translate(-102.136 -108.426)" fill="#8ec8c8"/>
        <rect id="Rectángulo_29854" data-name="Rectángulo 29854" width="9.442" height="7.091" rx="1.16" transform="matrix(0.998, -0.055, 0.055, 0.998, 33.893, 104.169)" fill="#fff"/>
        <path id="Trazado_121528" data-name="Trazado 121528" d="M123.455,147.923l9.207,5.041,1.26-6.884,6.451,4.194v8.793L133.546,155l-4.8,7.185-9.47-10.4Z" transform="translate(-102.136 -108.426)" fill="#fff" opacity="0.5"/>
        <path id="Trazado_121529" data-name="Trazado 121529" d="M129.411,211.022c-2.737,4.119-11.492,4.091-14.783,1.815-.508-7.852-1.476-16.448-2.558-24.507Z" transform="translate(-101.706 -116.344)" opacity="0.2"/>
        <path id="Trazado_121530" data-name="Trazado 121530" d="M114.495,178.74s1.947,12.677,3.856,15.15,41.378,24.056,41.378,24.056l13.645-.987,6.273,7.194s-18.178,2.821-20.162,2.276a19.136,19.136,0,0,1-3.508-1.354s-41.378-16.3-44.858-20.021-7.439-22.843-7.439-22.843Z" transform="translate(-101.206 -115.567)" fill="#e4897b"/>
        <path id="Trazado_121531" data-name="Trazado 121531" d="M106.307,154.487c7.222-1.5,10.956,28.466,10.956,28.466l-14.774,3.762S97.42,156.349,106.307,154.487Z" transform="translate(-101.049 -112.176)" fill="#8ec8c8"/>
        <path id="Trazado_121532" data-name="Trazado 121532" d="M106.307,154.487c7.222-1.5,10.956,28.466,10.956,28.466l-14.774,3.762S97.42,156.349,106.307,154.487Z" transform="translate(-101.049 -112.176)" fill="#fff" opacity="0.5"/>
        <path id="Trazado_121533" data-name="Trazado 121533" d="M101.66,187.749l16.57-3.969v2.849L102.4,191.219Z" transform="translate(-101.086 -115.441)" fill="#8ec8c8"/>
      </g>
    </g>
    <g id="freepik--Boxes--inject-345" transform="translate(81.829 164.661)">
      <path id="Trazado_121534" data-name="Trazado 121534" d="M161.4,377.435V248.523a27.276,27.276,0,0,0-4.9-15.606L152,226.47h80.029l4.5,6.451a27.272,27.272,0,0,1,4.9,15.6V376.212" transform="translate(-152 -192.06)" fill="none" stroke="#263238" stroke-linecap="round" stroke-linejoin="round" stroke-width="6"/>
      <circle id="Elipse_4149" data-name="Elipse 4149" cx="8.285" cy="8.285" r="8.285" transform="translate(171.193 197.064)" fill="#263238"/>
      <path id="Trazado_121535" data-name="Trazado 121535" d="M346.734,407.977a4.138,4.138,0,1,0-1.215,2.929A4.147,4.147,0,0,0,346.734,407.977Z" transform="translate(-163.109 -202.628)" fill="#fff" opacity="0.4"/>
      <path id="Trazado_121536" data-name="Trazado 121536" d="M341.293,409.222h0a3.16,3.16,0,0,1-2.962-2.069L333.45,393.78h10.993v12.291a3.15,3.15,0,0,1-3.15,3.15Z" transform="translate(-162.812 -202.03)" fill="#263238"/>
      <path id="Trazado_121537" data-name="Trazado 121537" d="M341.293,409.222h0a3.16,3.16,0,0,1-2.962-2.069L333.45,393.78h10.993v12.291a3.15,3.15,0,0,1-3.15,3.15Z" transform="translate(-162.812 -202.03)" fill="#fff" opacity="0.2"/>
      <circle id="Elipse_4150" data-name="Elipse 4150" cx="8.285" cy="8.285" r="8.285" transform="translate(79.032 197.064)" fill="#263238"/>
      <path id="Trazado_121538" data-name="Trazado 121538" d="M248.734,407.977a4.138,4.138,0,1,0-1.215,2.929A4.147,4.147,0,0,0,248.734,407.977Z" transform="translate(-157.27 -202.628)" fill="#fff" opacity="0.4"/>
      <path id="Trazado_121539" data-name="Trazado 121539" d="M243.293,409.222h0a3.16,3.16,0,0,1-2.962-2.069L235.45,393.78h10.993v12.291a3.15,3.15,0,0,1-3.15,3.15Z" transform="translate(-156.972 -202.03)" fill="#263238"/>
      <path id="Trazado_121540" data-name="Trazado 121540" d="M243.293,409.222h0a3.16,3.16,0,0,1-2.962-2.069L235.45,393.78h10.993v12.291a3.15,3.15,0,0,1-3.15,3.15Z" transform="translate(-156.972 -202.03)" fill="#fff" opacity="0.2"/>
      <path id="Trazado_121541" data-name="Trazado 121541" d="M345.931,383.53v7.824A2.643,2.643,0,0,1,343.288,394h-185.2a2.643,2.643,0,0,1-2.643-2.643V383.53Z" transform="translate(-152.206 -201.419)" fill="#263238"/>
      <path id="Trazado_121542" data-name="Trazado 121542" d="M345.931,383.53v7.824A2.643,2.643,0,0,1,343.288,394h-185.2a2.643,2.643,0,0,1-2.643-2.643V383.53Z" transform="translate(-152.206 -201.419)" fill="#fff" opacity="0.4"/>
      <path id="Trazado_121543" data-name="Trazado 121543" d="M280.1,383.53v7.824A2.643,2.643,0,0,1,277.459,394H158.093a2.643,2.643,0,0,1-2.643-2.643V383.53Z" transform="translate(-152.206 -201.419)" fill="#fff" opacity="0.2"/>
      <circle id="Elipse_4151" data-name="Elipse 4151" cx="8.285" cy="8.285" r="8.285" transform="translate(104.424 197.064)" fill="#263238"/>
      <path id="Trazado_121544" data-name="Trazado 121544" d="M275.734,407.977a4.138,4.138,0,1,0-1.215,2.929A4.147,4.147,0,0,0,275.734,407.977Z" transform="translate(-158.879 -202.628)" fill="#fff" opacity="0.6"/>
      <path id="Trazado_121545" data-name="Trazado 121545" d="M270.293,409.222h0a3.16,3.16,0,0,1-2.962-2.069L262.45,393.78h10.993v12.291A3.15,3.15,0,0,1,270.293,409.222Z" transform="translate(-158.581 -202.03)" fill="#263238"/>
      <path id="Trazado_121546" data-name="Trazado 121546" d="M270.293,409.222h0a3.16,3.16,0,0,1-2.962-2.069L262.45,393.78h10.993v12.291A3.15,3.15,0,0,1,270.293,409.222Z" transform="translate(-158.581 -202.03)" fill="#fff" opacity="0.4"/>
      <circle id="Elipse_4152" data-name="Elipse 4152" cx="8.285" cy="8.285" r="8.285" transform="translate(12.263 197.064)" fill="#263238"/>
      <path id="Trazado_121547" data-name="Trazado 121547" d="M177.734,407.977a4.138,4.138,0,1,0-1.215,2.929,4.147,4.147,0,0,0,1.215-2.929Z" transform="translate(-153.039 -202.628)" fill="#fff" opacity="0.6"/>
      <path id="Trazado_121548" data-name="Trazado 121548" d="M172.293,409.222h0a3.16,3.16,0,0,1-2.962-2.069L164.45,393.78h10.993v12.291A3.15,3.15,0,0,1,172.293,409.222Z" transform="translate(-152.742 -202.03)" fill="#263238"/>
      <path id="Trazado_121549" data-name="Trazado 121549" d="M172.293,409.222h0a3.16,3.16,0,0,1-2.962-2.069L164.45,393.78h10.993v12.291A3.15,3.15,0,0,1,172.293,409.222Z" transform="translate(-152.742 -202.03)" fill="#fff" opacity="0.4"/>
      <rect id="Rectángulo_29855" data-name="Rectángulo 29855" width="87.694" height="60.704" transform="translate(26.181 121.407)" fill="#8ec8c8"/>
      <rect id="Rectángulo_29856" data-name="Rectángulo 29856" width="87.694" height="60.704" transform="translate(26.181 121.407)" fill="#fff" opacity="0.4"/>
      <rect id="Rectángulo_29857" data-name="Rectángulo 29857" width="40.692" height="60.704" transform="translate(26.181 121.407)" fill="#fff" opacity="0.2"/>
      <rect id="Rectángulo_29858" data-name="Rectángulo 29858" width="6.818" height="8.68" rx="0.92" transform="translate(57.074 169.275)" opacity="0.2"/>
      <rect id="Rectángulo_29859" data-name="Rectángulo 29859" width="6.818" height="8.68" rx="0.92" transform="translate(47.895 169.275)" opacity="0.2"/>
      <rect id="Rectángulo_29860" data-name="Rectángulo 29860" width="4.956" height="6.329" transform="translate(90.063 121.407)" opacity="0.4"/>
      <rect id="Rectángulo_29861" data-name="Rectángulo 29861" width="34.137" height="7.937" transform="translate(74.434 147.325)" opacity="0.2"/>
      <rect id="Rectángulo_29862" data-name="Rectángulo 29862" width="11.671" height="11.671" transform="translate(28.833 124.567)" opacity="0.2"/>
      <rect id="Rectángulo_29863" data-name="Rectángulo 29863" width="87.694" height="60.704" transform="translate(35.134 60.704)" fill="#8ec8c8"/>
      <rect id="Rectángulo_29864" data-name="Rectángulo 29864" width="87.694" height="60.704" transform="translate(35.134 60.704)" opacity="0.4"/>
      <rect id="Rectángulo_29865" data-name="Rectángulo 29865" width="40.692" height="60.704" transform="translate(35.134 60.704)" fill="#fff" opacity="0.2"/>
      <rect id="Rectángulo_29866" data-name="Rectángulo 29866" width="6.818" height="8.68" rx="0.92" transform="translate(66.036 108.571)" opacity="0.2"/>
      <rect id="Rectángulo_29867" data-name="Rectángulo 29867" width="6.818" height="8.68" rx="0.92" transform="translate(56.857 108.571)" opacity="0.2"/>
      <rect id="Rectángulo_29868" data-name="Rectángulo 29868" width="4.956" height="6.329" transform="translate(99.016 60.704)" opacity="0.4"/>
      <rect id="Rectángulo_29869" data-name="Rectángulo 29869" width="34.137" height="7.937" transform="translate(83.387 86.622)" opacity="0.2"/>
      <rect id="Rectángulo_29870" data-name="Rectángulo 29870" width="11.671" height="11.671" transform="translate(37.795 63.864)" opacity="0.2"/>
      <rect id="Rectángulo_29871" data-name="Rectángulo 29871" width="87.694" height="60.704" transform="translate(88.813 60.704)" fill="#8ec8c8"/>
      <rect id="Rectángulo_29872" data-name="Rectángulo 29872" width="87.694" height="60.704" transform="translate(88.813 60.704)" fill="#fff" opacity="0.4"/>
      <rect id="Rectángulo_29873" data-name="Rectángulo 29873" width="40.692" height="60.704" transform="translate(88.813 60.704)" fill="#fff" opacity="0.2"/>
      <rect id="Rectángulo_29874" data-name="Rectángulo 29874" width="6.818" height="8.68" rx="0.92" transform="translate(119.715 108.571)" opacity="0.2"/>
      <rect id="Rectángulo_29875" data-name="Rectángulo 29875" width="6.818" height="8.68" rx="0.92" transform="translate(110.536 108.571)" opacity="0.2"/>
      <rect id="Rectángulo_29876" data-name="Rectángulo 29876" width="4.956" height="6.329" transform="translate(152.695 60.704)" opacity="0.4"/>
      <rect id="Rectángulo_29877" data-name="Rectángulo 29877" width="34.137" height="7.937" transform="translate(137.065 86.622)" opacity="0.2"/>
      <rect id="Rectángulo_29878" data-name="Rectángulo 29878" width="11.671" height="11.671" transform="translate(91.474 63.864)" opacity="0.2"/>
      <rect id="Rectángulo_29879" data-name="Rectángulo 29879" width="87.694" height="60.704" transform="translate(58.484)" fill="#8ec8c8"/>
      <rect id="Rectángulo_29880" data-name="Rectángulo 29880" width="40.692" height="60.704" transform="translate(58.484)" fill="#fff" opacity="0.2"/>
      <rect id="Rectángulo_29881" data-name="Rectángulo 29881" width="6.818" height="8.68" rx="0.92" transform="translate(89.377 47.867)" opacity="0.2"/>
      <rect id="Rectángulo_29882" data-name="Rectángulo 29882" width="6.818" height="8.68" rx="0.92" transform="translate(80.208 47.867)" opacity="0.2"/>
      <rect id="Rectángulo_29883" data-name="Rectángulo 29883" width="4.956" height="6.329" transform="translate(122.367)" opacity="0.4"/>
      <rect id="Rectángulo_29884" data-name="Rectángulo 29884" width="34.137" height="7.937" transform="translate(106.737 25.918)" opacity="0.2"/>
      <rect id="Rectángulo_29885" data-name="Rectángulo 29885" width="11.671" height="11.671" transform="translate(61.136 3.16)" opacity="0.2"/>
      <rect id="Rectángulo_29886" data-name="Rectángulo 29886" width="87.694" height="60.704" transform="translate(81.985 121.407)" fill="#263238"/>
      <rect id="Rectángulo_29887" data-name="Rectángulo 29887" width="87.694" height="60.704" transform="translate(81.985 121.407)" fill="#fff" opacity="0.2"/>
      <rect id="Rectángulo_29888" data-name="Rectángulo 29888" width="40.692" height="60.704" transform="translate(81.985 121.407)" fill="#fff" opacity="0.2"/>
      <rect id="Rectángulo_29889" data-name="Rectángulo 29889" width="6.818" height="8.68" rx="0.92" transform="translate(112.878 169.275)" opacity="0.2"/>
      <rect id="Rectángulo_29890" data-name="Rectángulo 29890" width="6.818" height="8.68" rx="0.92" transform="translate(103.699 169.275)" opacity="0.2"/>
      <rect id="Rectángulo_29891" data-name="Rectángulo 29891" width="4.956" height="6.329" transform="translate(145.868 121.407)" opacity="0.4"/>
      <rect id="Rectángulo_29892" data-name="Rectángulo 29892" width="34.137" height="7.937" transform="translate(130.238 147.325)" opacity="0.2"/>
      <rect id="Rectángulo_29893" data-name="Rectángulo 29893" width="11.671" height="11.671" transform="translate(84.637 124.567)" opacity="0.2"/>
    </g>
  </g>
</svg>
