<?xml version="1.0" encoding="utf-8"?>
<!-- Generator: Adobe Illustrator 25.3.1, SVG Export Plug-In . SVG Version: 6.00 Build 0)  -->
<svg version="1.1" id="Layer_1" xmlns="http://www.w3.org/2000/svg" xmlns:xlink="http://www.w3.org/1999/xlink" x="0px" y="0px"
	 viewBox="0 0 342.1 245.4" style="enable-background:new 0 0 342.1 245.4;" xml:space="preserve">
<style type="text/css">
	.st0{fill:#EBEBEB;}
	.st1{fill:#FFFFFF;}
	.st2{fill:#F5F5F5;}
	.st3{fill:#E0E0E0;}
	.st4{fill:#E6E6E6;}
	.st5{fill:#8EC8C8;}
	.st6{fill:none;stroke:#FFFFFF;stroke-width:3;stroke-linecap:round;stroke-linejoin:round;}
	.st7{fill:#263238;}
	.st8{fill:#EEC1BB;}
	.st9{opacity:0.1;fill:#FFFFFF;enable-background:new    ;}
	.st10{opacity:0.2;enable-background:new    ;}
	.st11{fill:#D4827D;}
	.st12{fill:none;stroke:#263238;stroke-width:0.686;stroke-linecap:round;stroke-linejoin:round;}
	.st13{opacity:0.5;fill:#FFFFFF;enable-background:new    ;}
	.st14{opacity:0.7;fill:#FFFFFF;enable-background:new    ;}
	.st15{opacity:0.1;enable-background:new    ;}
	.st16{fill:#E4897B;}
	.st17{opacity:0.6;fill:#FFFFFF;enable-background:new    ;}
	.st18{fill:#DE5753;}
	.st19{fill:none;stroke:#263238;stroke-width:6;stroke-linecap:round;stroke-linejoin:round;}
	.st20{opacity:0.4;fill:#FFFFFF;enable-background:new    ;}
	.st21{opacity:0.2;fill:#FFFFFF;enable-background:new    ;}
	.st22{opacity:0.4;enable-background:new    ;}
</style>
<g id="mercados-extranjeros" transform="translate(0 -78.65)">
	<g id="freepik--background-complete--inject-345" transform="translate(0 78.65)">
		<rect id="Rectángulo_29822" x="32.6" y="211.1" class="st0" width="277" height="0.2"/>
		<rect id="Rectángulo_29823" x="248" y="223" class="st0" width="24.5" height="0.2"/>
		<rect id="Rectángulo_29824" x="210.2" y="225" class="st0" width="6.4" height="0.2"/>
		<rect id="Rectángulo_29825" x="249.3" y="216.1" class="st0" width="14.2" height="0.2"/>
		<rect id="Rectángulo_29826" x="71.4" y="217.3" class="st0" width="32" height="0.2"/>
		<rect id="Rectángulo_29827" x="90.2" y="217.3" class="st0" width="4.7" height="0.2"/>
		<rect id="Rectángulo_29828" x="99.8" y="220.5" class="st0" width="69.3" height="0.2"/>
		<path id="Trazado_121442" class="st1" d="M212.7,0.9l-27.1,101.9V54.9l14.3-54H212.7z"/>
		<path id="Trazado_121443" class="st1" d="M220.2,0.9L192.8,103h-4.4L215.8,0.9H220.2z"/>
		<path id="Trazado_121444" class="st1" d="M265,60.7V77l-5.5,21.4h-4.4L265,60.7z"/>
		<rect id="Rectángulo_29833" x="71.4" y="150.9" class="st2" width="67.1" height="60.2"/>
		<rect id="Rectángulo_29834" x="71.4" y="150.9" class="st0" width="23.4" height="60.2"/>
		<rect id="Rectángulo_29835" x="84.7" y="97.9" class="st0" width="67.1" height="60.2"/>
		<rect id="Rectángulo_29836" x="84.7" y="97.9" class="st3" width="23.4" height="60.2"/>
		<rect id="Rectángulo_29837" x="71.4" y="42.8" class="st2" width="67.1" height="60.2"/>
		<rect id="Rectángulo_29838" x="71.4" y="42.8" class="st0" width="23.4" height="60.2"/>
		<rect id="Rectángulo_29839" x="110.1" y="150.9" class="st0" width="67.1" height="60.2"/>
		<rect id="Rectángulo_29840" x="114.4" y="150.9" class="st3" width="23.4" height="60.2"/>
		<rect id="Rectángulo_29841" x="115.2" y="119.8" class="st2" width="67.1" height="37.7"/>
		<rect id="Rectángulo_29842" x="119.8" y="119.8" class="st4" width="23.4" height="37.7"/>
		<rect id="Rectángulo_29843" x="114.1" y="63.9" class="st0" width="43.3" height="60.2"/>
		<rect id="Rectángulo_29844" x="116.7" y="63.9" class="st3" width="15.1" height="60.2"/>
		<rect id="Rectángulo_29845" x="196" y="151" class="st2" width="67.1" height="60.2"/>
		<rect id="Rectángulo_29846" x="239.7" y="151" class="st4" width="23.4" height="60.2"/>
		<rect id="Rectángulo_29847" x="201" y="108.9" class="st0" width="67.1" height="49"/>
		<rect id="Rectángulo_29848" x="242.4" y="108.9" class="st3" width="23.4" height="49"/>
		<rect id="Rectángulo_29849" x="198.3" y="87.6" class="st2" width="64.7" height="24"/>
		<rect id="Rectángulo_29850" x="240.5" y="87.6" class="st4" width="22.5" height="24"/>
	</g>
	<g id="freepik--Shadow--inject-345" transform="translate(52.767 366.888)">
		<ellipse id="freepik--path--inject-345" class="st2" cx="118.3" cy="-52.1" rx="97" ry="8.4"/>
	</g>
	<g id="freepik--bubble-speech--inject-345" transform="translate(223.022 108.085)">
		<path id="Rectángulo_29851" class="st5" d="M-11.4-5.3H8.8c2,0,3.6,1.6,3.6,3.6v18.3c0,2-1.6,3.6-3.6,3.6h-20.2
			c-2,0-3.6-1.6-3.6-3.6V-1.8C-15-3.8-13.4-5.3-11.4-5.3z"/>
		<path id="Trazado_121445" class="st5" d="M-4,16.8c0,0,1.7,8.3,13.5,13c0,0-7.2-4.6-6.7-13H-4z"/>
		<path id="Trazado_121446" class="st6" d="M-7.2,6.6l3.9,5.4l7.9-9.4"/>
	</g>
	<g id="freepik--character-2--inject-345" transform="translate(181.274 122.096)">
		<path id="Trazado_121447" class="st7" d="M69.9-4.8c3.6,2.6,6.9,7,4.4,19.5s-3.1,15.4-3.1,15.4l-23.7-2.7c0,0-1.1-11,0.7-21.4
			C50.9-7.3,59.3-12.4,69.9-4.8z"/>
		<path id="Trazado_121448" class="st8" d="M46.2,63.9c0,0-8,42.7-10.2,60.3c-2.8,22.9-14.2,56.4-14.2,56.4l4.6,1.2
			c0,0,16.1-28.5,19.2-54.1c12.8-26.2,13.8-58.4,13.8-58.4L46.2,63.9z"/>
		<path id="Trazado_121449" class="st7" d="M13.3,190.9c0.7-0.3,1.5-0.5,2.3-0.6l0,0c0,0,2.8-1.7,5.6-8.1h3.1c1.1,0,2,0.7,2.4,1.7
			c0.1,0.1,0.1,0.3,0.1,0.4c0,0.7-0.1,1.5-0.2,2.2c-0.5,2.5-1.1,5-1.8,7.4l-0.5-0.1l1-4.7c0.3-1.6-1.3-0.1-2.1,1.5s-1.9,3.2-5.4,2.4
			C13.7,192.3,12.1,191.7,13.3,190.9z"/>
		<path id="Trazado_121450" class="st7" d="M26.9,184c0.6-1.5,1.3-4.2,1.3-4.2l-6.7-0.9c0,0,0,3.3-1.2,5.5
			C23.8,184.3,26.9,184,26.9,184z"/>
		<path id="Trazado_121451" class="st8" d="M54.6,63.2c0,0,1,43.5,2.5,61.1c2,23-2.3,58.1-2.3,58.1l4.7,0.2c0,0,9.9-31.2,7.7-56.9
			c7.1-28.2,1.5-60,1.5-60L54.6,63.2z"/>
		<path id="Trazado_121452" class="st7" d="M47.5,192.4c0.7-0.4,1.5-0.7,2.3-0.8l0,0c0,0,2.6-1.9,4.7-8.6l3.1-0.4
			c1.1-0.1,2.1,0.5,2.6,1.5c0.1,0.1,0.1,0.3,0.1,0.4c0,0.8,0,1.5,0,2.3c-0.2,2.5-0.5,5-1,7.5l-0.5-0.1l0.5-4.8
			c0.1-1.6-1.3,0.1-1.9,1.8c-0.6,1.7-1.6,3.4-5.1,3C48,193.6,46.3,193.2,47.5,192.4z"/>
		<path id="Trazado_121453" class="st7" d="M60.2,184.1c0.4-1.6,0.9-4.4,0.9-4.4l-6.8-0.2c0,0,0.4,3.3-0.6,5.6
			C57.2,184.7,60.2,184.1,60.2,184.1z"/>
		<path id="Trazado_121454" class="st7" d="M44.5,56.8l-8.8,60.8c0,0,28.7,4.4,40.1,1.8c0,0,2.8-35.1-9.2-60.7L44.5,56.8z"/>
		<path id="Trazado_121455" class="st8" d="M18,35.3l-7.7-7.6c0,0-0.3-2-1-2.6s-6-2.5-6.7-2c-0.7,0.4-1.5,4.7-0.6,5.4
			s5.7,1.8,6.2,1.7l8.3,9.8L18,35.3z"/>
		<path id="Trazado_121456" class="st5" d="M45.5,21.5c-3.3,1.8-15,18.1-16.7,18.9c-1.7,0.8-14.9-9.9-14.9-9.9l-2.2,3.8
			c0,0,10.8,15.3,16.9,14.6c6.1-0.7,17.8-13.7,17.8-13.7L45.5,21.5z"/>
		<path id="Trazado_121457" class="st9" d="M45.5,21.5c-3.3,1.8-15,18.1-16.7,18.9c-1.7,0.8-14.9-9.9-14.9-9.9l-2.2,3.8
			c0,0,10.8,15.3,16.9,14.6c6.1-0.7,17.8-13.7,17.8-13.7L45.5,21.5z"/>
		<path id="Trazado_121458" class="st5" d="M14.5,30.9l-0.9-0.9l-2.4,4.1l0.9,1.7L14.5,30.9z"/>
		<path id="Trazado_121459" class="st10" d="M41.6,40c2.7-2.6,4.7-4.8,4.7-4.8l-0.2-3.3l-1-3.2C42.2,31.7,40.9,35.9,41.6,40L41.6,40
			z"/>
		<path id="Trazado_121460" class="st5" d="M44.3,56.2c-0.9-16.3-0.5-25.2-0.1-29.7c0.5-4.8,1.2-4.9,1.2-4.9s5.2-0.5,9.7-0.5
			c3.5,0.1,6.9,0.5,10.4,1.1c3.3,0.5,6.5,1.3,9.6,2.3c-0.5,1.5-1,3-1.4,4.3c-0.6,1.8-1.1,3.4-1.6,4.9c-0.9,2.9-1.6,5.3-2.1,7.5
			c-1.4,5.6-2.2,11.3-2.5,17c0,0,5.7,14.9,6.8,25.8l-18.9,2l-2.6-10.9l-2.6,11.3l-10.5-3.7L44.3,56.2z"/>
		<path id="Trazado_121461" class="st9" d="M44.3,56.2c-0.9-16.3-0.5-25.2-0.1-29.7c0.5-4.8,1.2-4.9,1.2-4.9s5.2-0.5,9.7-0.5
			c3.5,0.1,6.9,0.5,10.4,1.1c3.3,0.5,6.5,1.3,9.6,2.3c-0.5,1.5-1,3-1.4,4.3c-0.6,1.8-1.1,3.4-1.6,4.9c-0.9,2.9-1.6,5.3-2.1,7.5
			c-1.4,5.6-2.2,11.3-2.5,17c0,0,5.7,14.9,6.8,25.8l-18.9,2l-2.6-10.9l-2.6,11.3l-10.5-3.7L44.3,56.2z"/>
		<path id="Trazado_121462" class="st10" d="M69,45.2c0.3-1.2,0.6-2.6,0.9-4c0.2-0.9,0.5-1.8,0.7-2.9c-0.7-2.5-1.5-0.6-1.5-0.6
			C68.7,40.2,68.7,42.7,69,45.2z"/>
		<path id="Trazado_121463" class="st8" d="M55.4,22c0.2-0.1,0.5-0.2,0.7-0.3c0.5-0.4,1.2-1.4,1.2-3.9c0-1-0.1-2-0.3-2.9l6.9-1.3
			c0,0-2.3,4.6-0.4,8.1c0.7,0.3,1.1,0.7,1,1.3c-0.5,4-9,7.8-9,7.8S51.2,24.3,55.4,22z"/>
		<path id="Trazado_121464" class="st10" d="M57,14.9c0.2,1,0.2,1.9,0.3,2.9c4.6,0,6.6-4.2,6.6-4.2L57,14.9z"/>
		<path id="Trazado_121465" class="st8" d="M60.8-4.3c-6-0.3-8.1,2.8-8.8,8.9c-1,7.7,0.4,13.2,8,12C70.2,14.9,70.7-3.7,60.8-4.3z"/>
		<path id="Trazado_121466" class="st11" d="M55.8,4.5c-0.5,0.9-1.2,1.7-1.9,2.4c0.3,0.5,0.9,0.8,1.5,0.7L55.8,4.5z"/>
		<path id="Trazado_121467" class="st7" d="M59.5,4.2c0,0.5,0.2,0.9,0.5,0.9c0.3,0,0.6-0.3,0.7-0.8s-0.2-0.9-0.5-0.9
			C59.8,3.3,59.5,3.7,59.5,4.2z"/>
		<path id="Trazado_121468" class="st7" d="M60.3,3.4l-1-0.5C59.2,2.9,59.7,3.8,60.3,3.4z"/>
		<path id="Trazado_121469" class="st7" d="M53.4,3.6c0,0.5,0.2,0.9,0.5,0.9s0.6-0.3,0.7-0.8c0-0.5-0.2-0.9-0.5-0.9
			S53.4,3.1,53.4,3.6z"/>
		<path id="Trazado_121470" class="st7" d="M54.2,2.8l-1-0.5C53.2,2.3,53.6,3.3,54.2,2.8z"/>
		<path id="Trazado_121471" class="st12" d="M59.8,0.1c1-0.1,1.9,0.3,2.5,1"/>
		<path id="Trazado_121472" class="st12" d="M55.5-0.4c-0.8-0.3-1.7-0.1-2.4,0.4"/>
		<path id="Trazado_121473" class="st7" d="M66.7,6.1c0,0-2.5-5.1-1.9-8.8c0,0-11.6-5.5-12.8,6.5c0,0-0.6-10.7,9.7-10.4
			C72-6.2,71.1,8.8,65.6,13C65.6,12.9,68.3,9.3,66.7,6.1z"/>
		<path id="Trazado_121474" class="st8" d="M65.7,7.3c0.2-1.4,1.5-2.4,3-2.2c1.8,0.3,2.5,4.2-2.1,4.8C65.8,10,65.5,9.3,65.7,7.3z"/>
		<path id="Trazado_121475" class="st12" d="M60.1,9c-0.9,0.9-2.1,1.4-3.4,1.4"/>
		<path id="Trazado_121476" class="st12" d="M64.8-2.7c0,0-12.9-3.4-14,8.7"/>
		<path id="Trazado_121477" class="st5" d="M53.3,24.9c0,0-1,9.8,0.6,18.7c0,0,3.8-13.8,9.1-18.5L57,26.1L53.3,24.9z"/>
		<path id="Trazado_121478" class="st13" d="M53.3,24.9c0,0-1,9.8,0.6,18.7c0,0,3.8-13.8,9.1-18.5L57,26.1L53.3,24.9z"/>
		<path id="Trazado_121479" class="st5" d="M63.2,20.6L57,25.2v-4.9c-3,1.2-4.9,4.2-4.7,7.4l4.1-1.9v1.9l1-1.8l3.3,3.7
			c0,0,4-4.7,4.4-6.1C65.5,22.1,63.2,20.6,63.2,20.6z"/>
		<path id="Trazado_121480" class="st14" d="M63.2,20.6L57,25.2v-4.9c-3,1.2-4.9,4.2-4.7,7.4l4.1-1.9v1.9l1-1.8l3.3,3.7
			c0,0,4-4.7,4.4-6.1C65.5,22.1,63.2,20.6,63.2,20.6z"/>
		<path id="Trazado_121481" class="st7" d="M69.7,63.8L64,36.5c-0.1-0.6-0.6-1-1.2-1H45.1c-0.5,0-0.9,0.4-0.9,0.9c0,0.1,0,0.1,0,0.2
			L49,63.3c0.1,0.6,0.6,1,1.2,1.1l18.6,0.6c0.5,0,0.9-0.4,0.9-0.9C69.7,63.9,69.7,63.9,69.7,63.8L69.7,63.8z"/>
		<path id="Trazado_121482" class="st9" d="M69.7,63.8L64,36.5c-0.1-0.6-0.6-1-1.2-1H45.1c-0.5,0-0.9,0.4-0.9,0.9c0,0.1,0,0.1,0,0.2
			L49,63.3c0.1,0.6,0.6,1,1.2,1.1l18.6,0.6c0.5,0,0.9-0.4,0.9-0.9C69.7,63.9,69.7,63.9,69.7,63.8L69.7,63.8z"/>
		<path id="Trazado_121483" class="st8" d="M77.3,55l-9.1-5.7c0,0-0.7-1.9-1.5-2.3c-0.8-0.4-6.4-1.1-6.9-0.6
			c-0.5,0.6-0.5,4.9,0.6,5.5c1.1,0.6,5.9,0.5,6.4,0.3l10.2,7.8L77.3,55z"/>
		<path id="Trazado_121484" class="st5" d="M75.1,24.4c0,0-5.9,8.6-5.1,16l7.9,13.1l-5.3-2.7l-2.4,4.5c0,0,6.1,9.4,13.9,7.2
			S75.1,24.4,75.1,24.4z"/>
		<path id="Trazado_121485" class="st9" d="M75.1,24.4c0,0-5.9,8.6-5.1,16l7.9,13.1l-5.3-2.7l-2.4,4.5c0,0,6.1,9.4,13.9,7.2
			S75.1,24.4,75.1,24.4z"/>
		<path id="Trazado_121486" class="st5" d="M73.2,50.6l-3,5.6l-0.7-1.6l2.4-4.6L73.2,50.6z"/>
		<path id="Trazado_121487" class="st1" d="M62.1,35.5c-0.7,0-0.7,18.2-0.7,18.2l-15.9-0.5c0,0-1.8-15.4,0-17.8L62.1,35.5z"/>
		<path id="Trazado_121488" class="st15" d="M62.1,35.5c-0.7,0-0.7,18.2-0.7,18.2l-15.9-0.5c0,0-1.8-15.4,0-17.8L62.1,35.5z"/>
		<path id="Trazado_121489" class="st7" d="M-3.6,21.1l15,6.3c0.3,0.1,0.5,0.5,0.3,0.9c0,0,0,0,0,0l0,0c-0.1,0.3-0.5,0.5-0.9,0.3
			l-15.1-6.4l-0.1-0.1l-1.8-1.3l2.3,0.2C-3.7,21-3.6,21-3.6,21.1L-3.6,21.1z"/>
	</g>
	<g id="freepik--character-1--inject-345" transform="translate(63.201 104.408)">
		<g id="freepik--group--inject-345">
			<path id="Trazado_121490" class="st16" d="M111.4,80.6l-14.6,1.3l-5.9-3.3c0,0-18.8-10.5-23.7-13.8c-1.5-1-2.9-3.2-4.1-5.8
				c-1-2.2-1.9-4.5-2.6-6.8c-0.3-1-0.6-2-0.9-3c-0.6-2-0.9-3.5-1-3.9l0,0c0,0,0-0.1,0-0.1h0l4.6-1.5l3.9-1.2c0,0,0.2,0.9,0.5,2.3
				l0.3,1.2c0.1,0.4,0.2,0.7,0.3,1.1c1,4.3,2.5,10.2,3.6,11.1c1.8,1.5,23.8,16.6,24.6,17s7.8,0,7.8,0L111.4,80.6z"/>
			<path id="Trazado_121491" class="st5" d="M58.6,28.5c6.7-0.1,11,20.8,11,20.8l-8.9,4.4c-2.5-4.4-3.8-9.3-3.8-14.4
				C57.1,31.3,58.6,28.5,58.6,28.5z"/>
			<path id="Trazado_121492" class="st13" d="M58.6,28.5c6.7-0.1,11,20.8,11,20.8l-8.9,4.4c-2.5-4.4-3.8-9.3-3.8-14.4
				C57.1,31.3,58.6,28.5,58.6,28.5z"/>
			<path id="Trazado_121493" class="st5" d="M70.6,46.2l-2.4,1.6l-3.1,2l-4.5,2.9l-0.8,0.5l-1-3l0.9-0.5l0.6-0.3l4.1-2.2l3.3-1.8
				l1.6-0.9l0.3-0.2L70.6,46.2z"/>
			<path id="Trazado_121494" class="st10" d="M65.5,53.4c0,2.3-0.8,4.6-2.3,6.3c-1-2.2-1.9-4.5-2.6-6.8l-0.8,0.5l-1-3l0.9-0.5
				c-0.6-2-0.9-3.5-1-3.9l0,0V46l1.1-8.1c1.4,2.1,2.6,4.3,3.6,6.7c0.4,0.9,0.7,1.9,1.1,2.9c0.1,0.3,0.2,0.7,0.3,1.1
				c0.1,0.5,0.3,1,0.4,1.5C65.3,51.1,65.4,52.3,65.5,53.4L65.5,53.4z"/>
			<path id="Trazado_121495" class="st16" d="M57.6,205.2l6.2,0.7l1.2-13.4l-6.2-0.7L57.6,205.2z"/>
			<path id="Trazado_121496" class="st16" d="M26.7,204.8h6l0.5-13.9h-6L26.7,204.8z"/>
			<path id="Trazado_121497" class="st7" d="M33.5,204.1h-7.3c-0.2,0-0.5,0.2-0.5,0.4l-1.2,5.3c-0.1,0.5,0.2,0.9,0.7,1c0,0,0,0,0,0
				c0.1,0,0.1,0,0.2,0c2.4,0,4.1-0.2,7-0.2c1.8,0,7.3,0.2,9.8,0.2c2.5,0,2.8-2.5,1.8-2.7c-4.6-1-8.1-2.4-9.6-3.7
				C34.2,204.3,33.9,204.1,33.5,204.1z"/>
			<path id="Trazado_121498" class="st5" d="M33.9,204.9c-0.1,0-0.1-0.1-0.1-0.1c0-0.1,0-0.1,0.1-0.1c0.2-0.1,2.2-1.3,2.8-1
				c0.2,0.1,0.3,0.2,0.2,0.4c0,0.3-0.1,0.6-0.3,0.7c-0.3,0.2-0.7,0.3-1.2,0.3C35,205.1,34.4,205.1,33.9,204.9L33.9,204.9z
				 M34.3,204.7c0.7,0.2,1.5,0.2,2.1-0.1c0.1-0.1,0.2-0.3,0.2-0.5c0-0.1-0.1-0.2-0.1-0.2c-0.1,0-0.1,0-0.2,0
				C35.7,204.1,35,204.3,34.3,204.7L34.3,204.7z"/>
			<path id="Trazado_121499" class="st5" d="M33.9,205c0,0-0.1-0.1-0.1-0.1c0-0.1,0.2-1.8,0.9-2.4c0.2-0.1,0.4-0.2,0.6-0.2
				c0.2,0,0.4,0.2,0.5,0.4c0.1,0.6-1.1,2-1.7,2.3L33.9,205C33.9,205,33.9,205,33.9,205L33.9,205z M34.8,202.6
				c-0.4,0.5-0.7,1.2-0.7,1.9c0.6-0.5,1.4-1.5,1.3-1.9c0,0,0-0.1-0.2-0.1h-0.1C35,202.5,34.9,202.6,34.8,202.6L34.8,202.6z"/>
			<path id="Trazado_121500" class="st7" d="M64.4,203.9h-7.3c-0.2,0-0.5,0.2-0.5,0.4l-1.2,5.3c-0.1,0.5,0.2,0.9,0.7,1.1h0.2
				c2.4,0,4.1-0.2,7-0.2c1.8,0,7.3,0.2,9.8,0.2c2.5,0,2.8-2.5,1.8-2.7c-4.6-1-8.1-2.4-9.6-3.7C65.1,204.1,64.8,203.9,64.4,203.9z"/>
			<path id="Trazado_121501" class="st5" d="M64.8,204.7c-0.1,0-0.1-0.1-0.1-0.1c0-0.1,0-0.1,0.1-0.1c0.2-0.1,2.2-1.3,2.8-1
				c0.2,0.1,0.2,0.2,0.2,0.4c0,0.3-0.1,0.6-0.3,0.7c-0.3,0.2-0.7,0.4-1.1,0.3C65.9,205,65.3,204.9,64.8,204.7L64.8,204.7z
				 M65.2,204.5c0.7,0.2,1.5,0.2,2.1-0.1c0.1-0.1,0.2-0.3,0.2-0.5c0-0.1-0.1-0.2-0.1-0.2c-0.1,0-0.1,0-0.2,0
				C66.6,203.9,65.9,204.1,65.2,204.5z"/>
			<path id="Trazado_121502" class="st5" d="M64.8,204.8c0,0-0.1-0.1-0.1-0.1c0-0.1,0.2-1.8,0.9-2.4c0.2-0.1,0.4-0.2,0.6-0.2
				c0.2,0,0.4,0.2,0.5,0.4c0.1,0.6-1.1,2-1.7,2.3L64.8,204.8C64.8,204.8,64.8,204.8,64.8,204.8L64.8,204.8z M65.8,202.4
				c-0.4,0.5-0.7,1.2-0.7,1.9c0.6-0.5,1.4-1.5,1.3-1.8c0,0,0-0.1-0.2-0.1H66C65.9,202.3,65.8,202.4,65.8,202.4L65.8,202.4z"/>
			<path id="Trazado_121503" class="st10" d="M58.7,191.9l6.2,0.7l-0.6,6.9l-6.2-0.7L58.7,191.9z"/>
			<path id="Trazado_121504" class="st10" d="M27.2,190.9h6l-0.3,7.2h-6L27.2,190.9z"/>
			<path id="Trazado_121505" class="st5" d="M29.6,69h31.8c3,16.5,12.5,75,5.7,127.2l-10.8-1.3c0,0,1-69.2-8.5-94.8
				c-1.1,13.7-2.4,28.3-3.5,36c-2.7,19.1-8.7,60.8-8.7,60.8h-11c0,0,2.2-39.9,3.3-58.7C29.1,117.8,29.6,73.2,29.6,69z"/>
			<path id="Trazado_121506" class="st10" d="M47.9,107c1.6,4.5,2.8,9.1,3.6,13.8c0.9-12.2-2.7-25.1-2.7-25.1L47.9,107z"/>
			<path id="Trazado_121507" class="st5" d="M68.4,198.7l-13.3-2l0.4-3.7l13.9,1.8L68.4,198.7z"/>
			<path id="Trazado_121508" class="st17" d="M68.4,198.7l-13.3-2l0.4-3.7l13.9,1.8L68.4,198.7z"/>
			<path id="Trazado_121509" class="st5" d="M37,196.9H24v-3.9l13.4-0.3L37,196.9z"/>
			<path id="Trazado_121510" class="st17" d="M37,196.9H24v-3.9l13.4-0.3L37,196.9z"/>
			<path id="Trazado_121511" class="st7" d="M29.6,83.5l0-4.6l32.5-2l0.2,4.5L29.6,83.5z"/>
			<rect id="Rectángulo_29852" x="36.3" y="77.6" class="st5" width="1.5" height="6.8"/>
			
				<rect id="Rectángulo_29853" x="59" y="75.6" transform="matrix(0.9974 -7.271600e-02 7.271600e-02 0.9974 -5.5821 4.5528)" class="st5" width="1.5" height="6.8"/>
			<path id="Trazado_121512" class="st5" d="M62,82.5l-32.4,2.4c0-2.8-0.1-6-0.3-9.4c-0.4-6.2-1.2-12.9-2-19.3c-1.8-13.5-4-25-4-25
				c15.1-3.8,35.3-2.8,35.3-2.8C63.8,48.2,62,82.5,62,82.5z"/>
			<path id="Trazado_121513" class="st17" d="M62,82.5l-32.4,2.4c0-2.8-0.1-6-0.3-9.4c-0.4-6.2-1.2-12.9-2-19.3c-1.8-13.5-4-25-4-25
				c15.1-3.8,35.3-2.8,35.3-2.8C63.8,48.2,62,82.5,62,82.5z"/>
			<path id="Trazado_121514" class="st16" d="M34.8,29.2c3,2.7,10.1,1.7,10.1,1.7s4.4-1.2,3.5-2.6c-2.6-0.4-3.9-1.7-4.4-3.2
				c-0.3-1-0.4-2-0.3-3c0-0.6,0.1-1.1,0.2-1.7L35,13.8C36.2,18.2,37.6,26.1,34.8,29.2z"/>
			<path id="Trazado_121515" class="st10" d="M37.1,18c0.3,5.3,4.7,6.8,6.9,7.1c-0.3-1-0.4-2-0.3-3L37.1,18z"/>
			<path id="Trazado_121516" class="st7" d="M52.4,1.2c2.2,2,1.3,8.3-3.1,11.4c-4.4,3.2-4.4-12.2-4.4-12.2S51-0.1,52.4,1.2z"/>
			<path id="Trazado_121517" class="st16" d="M36.5,19.2c1.9,2.8,5.4,4,8.6,2.9c2-0.6,3.7-2,4.8-3.9c0.1-0.3,0.3-0.5,0.4-0.8
				c2.2-5,2.8-13.9-2.5-17.2C44-2.1,39-1,36.6,2.8c-0.7,1.1-1.1,2.3-1.2,3.6C34.7,12.3,34,15.7,36.5,19.2z"/>
			<path id="Trazado_121518" class="st7" d="M44,9.5c-0.1,0.5,0.1,0.9,0.4,1c0.3,0.1,0.6-0.3,0.7-0.7c0.1-0.4-0.1-0.9-0.4-1
				C44.4,8.7,44,9.1,44,9.5z"/>
			<path id="Trazado_121519" class="st7" d="M49.4,10.4c-0.1,0.5,0.1,0.9,0.4,1s0.6-0.3,0.7-0.7c0.1-0.4-0.1-0.9-0.4-1
				C49.8,9.7,49.4,10,49.4,10.4z"/>
			<path id="Trazado_121520" class="st18" d="M47.6,10.4c0.3,1.5,0.9,3,1.6,4.4c-0.7,0.4-1.6,0.4-2.4,0L47.6,10.4z"/>
			<path id="Trazado_121521" class="st7" d="M42.6,7.5c0.1,0,0.2,0,0.3-0.1c0.5-0.5,1.2-0.7,2-0.6c0.2,0,0.3-0.1,0.3-0.2
				c0,0,0,0,0,0c0-0.2-0.1-0.3-0.2-0.3l0,0c-0.9-0.2-1.8,0.1-2.5,0.7c-0.1,0.1-0.1,0.3,0,0.4l0,0C42.5,7.4,42.5,7.5,42.6,7.5
				L42.6,7.5z"/>
			<path id="Trazado_121522" class="st7" d="M45.6,17.2L45.6,17.2c-1.4,0-2.7-0.7-3.5-1.9c0-0.1,0-0.2,0-0.2s0.2,0,0.2,0l0,0
				c0.8,1.1,2,1.7,3.3,1.8c0.1,0,0.1,0.1,0.1,0.1l0,0C45.8,17.1,45.7,17.2,45.6,17.2L45.6,17.2z"/>
			<path id="Trazado_121523" class="st7" d="M52,9c0,0,0.1,0,0.2,0c0.1,0,0.2-0.2,0.2-0.3l0,0c-0.2-0.9-0.9-1.6-1.7-1.9
				c-0.1,0-0.3,0-0.3,0.2l0,0c0,0.1,0,0.3,0.2,0.4l0,0c0.7,0.3,1.2,0.8,1.4,1.5C51.8,8.9,51.9,9,52,9L52,9z"/>
			<path id="Trazado_121524" class="st7" d="M40.9-0.2v2.6c-1,0.3-1.5,1.3-1.3,2.3c0.6,2.3-1.1,5.5-2.9,6.7c0,0,0.1-1-0.7-0.8
				c-0.8,0.1-1.2,5.1,0.1,7.6c0,0-2.1-2.4-2.8-7.8c-0.7-4.9-0.3-9,0.9-10.7L40.9-0.2z"/>
			<path id="Trazado_121525" class="st16" d="M32,10.7c0.4,1.4,1.4,2.6,2.7,3.4c1.7,0.9,3.1-0.5,3-2.4c-0.1-1.7-1.2-4.2-3.1-4.4
				c-1.4-0.1-2.6,0.9-2.7,2.3C31.8,10,31.8,10.4,32,10.7z"/>
			<path id="Trazado_121526" class="st7" d="M32.9,4.3c0,0-1.8-4.4,3-7.6S52-2.8,52.8-0.2S45,7.2,32.9,4.3z"/>
			<path id="Trazado_121527" class="st5" d="M35.9,26.5l7.2,4l1-5.4l5.1,3.3v6.9l-5.4-3.2L40,37.7l-7.5-8.2L35.9,26.5z"/>
			<path id="Rectángulo_29854" class="st1" d="M46.7,77.3l5.6-0.3c0.5,0,0.9,0.4,1,0.9l0.2,3.7c0,0.5-0.4,0.9-0.9,1L47,82.9
				c-0.5,0-0.9-0.4-1-0.9l-0.2-3.7C45.8,77.8,46.2,77.4,46.7,77.3z"/>
			<path id="Trazado_121528" class="st13" d="M35.9,26.5l7.2,4l1-5.4l5.1,3.3v6.9l-5.4-3.2L40,37.7l-7.5-8.2L35.9,26.5z"/>
			<path id="Trazado_121529" class="st10" d="M40.9,69.9c-2.2,3.2-9,3.2-11.6,1.4c-0.4-6.2-1.2-12.9-2-19.3L40.9,69.9z"/>
			<path id="Trazado_121530" class="st16" d="M29.6,45.1c0,0,1.5,10,3,11.9S65.1,76,65.1,76l10.7-0.8l4.9,5.7c0,0-14.3,2.2-15.9,1.8
				c-1-0.3-1.9-0.6-2.8-1.1c0,0-32.6-12.8-35.3-15.8c-2.7-2.9-5.9-18-5.9-18L29.6,45.1z"/>
			<path id="Trazado_121531" class="st5" d="M23.2,28.7c5.7-1.2,8.6,22.4,8.6,22.4l-11.6,3C20.2,54.1,16.2,30.2,23.2,28.7z"/>
			<path id="Trazado_121532" class="st13" d="M23.2,28.7c5.7-1.2,8.6,22.4,8.6,22.4l-11.6,3C20.2,54.1,16.2,30.2,23.2,28.7z"/>
			<path id="Trazado_121533" class="st5" d="M19.5,52.3l13-3.1v2.2l-12.5,3.6L19.5,52.3z"/>
		</g>
	</g>
	<g id="freepik--Boxes--inject-345" transform="translate(81.829 164.661)">
		<path id="Trazado_121534" class="st19" d="M22.5,128.4V27c0-4.4-1.3-8.7-3.9-12.3l-3.5-5.1h63l3.5,5.1c2.5,3.6,3.9,7.9,3.9,12.3
			v100.5"/>
		<circle id="Elipse_4149" class="st7" cx="156.3" cy="144.2" r="6.5"/>
		<path id="Trazado_121535" class="st20" d="M159.6,144.2c0-1.8-1.5-3.3-3.3-3.3c-1.8,0-3.3,1.5-3.3,3.3c0,1.8,1.5,3.3,3.3,3.3
			c0.9,0,1.7-0.3,2.3-1C159.3,145.9,159.6,145,159.6,144.2z"/>
		<path id="Trazado_121536" class="st7" d="M155.6,145.6L155.6,145.6c-1,0-2-0.7-2.3-1.6l-3.8-10.5h8.6v9.7
			C158,144.5,156.9,145.6,155.6,145.6L155.6,145.6z"/>
		<path id="Trazado_121537" class="st21" d="M155.6,145.6L155.6,145.6c-1,0-2-0.7-2.3-1.6l-3.8-10.5h8.6v9.7
			C158,144.5,156.9,145.6,155.6,145.6L155.6,145.6z"/>
		<circle id="Elipse_4150" class="st7" cx="83.8" cy="144.2" r="6.5"/>
		<path id="Trazado_121538" class="st20" d="M87.1,144.2c0-1.8-1.5-3.3-3.3-3.3c-1.8,0-3.3,1.5-3.3,3.3c0,1.8,1.5,3.3,3.3,3.3
			c0.9,0,1.7-0.3,2.3-1C86.7,145.9,87.1,145,87.1,144.2z"/>
		<path id="Trazado_121539" class="st7" d="M83,145.6L83,145.6c-1,0-2-0.7-2.3-1.6l-3.8-10.5h8.6v9.7
			C85.5,144.5,84.4,145.6,83,145.6L83,145.6z"/>
		<path id="Trazado_121540" class="st21" d="M83,145.6L83,145.6c-1,0-2-0.7-2.3-1.6l-3.8-10.5h8.6v9.7
			C85.5,144.5,84.4,145.6,83,145.6L83,145.6z"/>
		<path id="Trazado_121541" class="st7" d="M167.6,125.9v6.2c0,1.1-0.9,2.1-2.1,2.1c0,0,0,0,0,0H19.8c-1.1,0-2.1-0.9-2.1-2.1l0,0
			v-6.2H167.6z"/>
		<path id="Trazado_121542" class="st20" d="M167.6,125.9v6.2c0,1.1-0.9,2.1-2.1,2.1c0,0,0,0,0,0H19.8c-1.1,0-2.1-0.9-2.1-2.1l0,0
			v-6.2H167.6z"/>
		<path id="Trazado_121543" class="st21" d="M115.8,125.9v6.2c0,1.1-0.9,2.1-2.1,2.1c0,0,0,0,0,0H19.8c-1.1,0-2.1-0.9-2.1-2.1l0,0
			v-6.2H115.8z"/>
		<circle id="Elipse_4151" class="st7" cx="103.8" cy="144.2" r="6.5"/>
		<path id="Trazado_121544" class="st17" d="M107.1,144.2c0-1.8-1.5-3.3-3.3-3.3c-1.8,0-3.3,1.5-3.3,3.3c0,1.8,1.5,3.3,3.3,3.3
			c0.9,0,1.7-0.3,2.3-1C106.7,145.9,107.1,145,107.1,144.2z"/>
		<path id="Trazado_121545" class="st7" d="M103,145.6L103,145.6c-1,0-2-0.7-2.3-1.6l-3.8-10.5h8.6v9.7
			C105.5,144.5,104.4,145.6,103,145.6C103,145.6,103,145.6,103,145.6z"/>
		<path id="Trazado_121546" class="st20" d="M103,145.6L103,145.6c-1,0-2-0.7-2.3-1.6l-3.8-10.5h8.6v9.7
			C105.5,144.5,104.4,145.6,103,145.6C103,145.6,103,145.6,103,145.6z"/>
		<circle id="Elipse_4152" class="st7" cx="31.3" cy="144.2" r="6.5"/>
		<path id="Trazado_121547" class="st17" d="M34.6,144.2c0-1.8-1.5-3.3-3.3-3.3c-1.8,0-3.3,1.5-3.3,3.3c0,1.8,1.5,3.3,3.3,3.3
			c0.9,0,1.7-0.3,2.3-1C34.2,145.9,34.6,145,34.6,144.2z"/>
		<path id="Trazado_121548" class="st7" d="M30.5,145.6L30.5,145.6c-1,0-2-0.7-2.3-1.6l-3.8-10.5H33v9.7
			C33,144.5,31.9,145.6,30.5,145.6C30.5,145.6,30.5,145.6,30.5,145.6z"/>
		<path id="Trazado_121549" class="st20" d="M30.5,145.6L30.5,145.6c-1,0-2-0.7-2.3-1.6l-3.8-10.5H33v9.7
			C33,144.5,31.9,145.6,30.5,145.6C30.5,145.6,30.5,145.6,30.5,145.6z"/>
		<rect id="Rectángulo_29855" x="35.7" y="78.1" class="st5" width="69" height="47.8"/>
		<rect id="Rectángulo_29856" x="35.7" y="78.1" class="st20" width="69" height="47.8"/>
		<rect id="Rectángulo_29857" x="35.7" y="78.1" class="st21" width="32" height="47.8"/>
		<path id="Rectángulo_29858" class="st10" d="M60.8,115.8h3.9c0.4,0,0.7,0.3,0.7,0.7v5.4c0,0.4-0.3,0.7-0.7,0.7h-3.9
			c-0.4,0-0.7-0.3-0.7-0.7v-5.4C60,116.1,60.4,115.8,60.8,115.8z"/>
		<path id="Rectángulo_29859" class="st10" d="M53.5,115.8h3.9c0.4,0,0.7,0.3,0.7,0.7v5.4c0,0.4-0.3,0.7-0.7,0.7h-3.9
			c-0.4,0-0.7-0.3-0.7-0.7v-5.4C52.8,116.1,53.1,115.8,53.5,115.8z"/>
		<rect id="Rectángulo_29860" x="86" y="78.1" class="st22" width="3.9" height="5"/>
		<rect id="Rectángulo_29861" x="73.7" y="98.5" class="st10" width="26.9" height="6.2"/>
		<rect id="Rectángulo_29862" x="37.8" y="80.6" class="st10" width="9.2" height="9.2"/>
		<rect id="Rectángulo_29863" x="42.8" y="30.4" class="st5" width="69" height="47.8"/>
		<rect id="Rectángulo_29864" x="42.8" y="30.4" class="st22" width="69" height="47.8"/>
		<rect id="Rectángulo_29865" x="42.8" y="30.4" class="st21" width="32" height="47.8"/>
		<path id="Rectángulo_29866" class="st10" d="M67.8,68h3.9c0.4,0,0.7,0.3,0.7,0.7v5.4c0,0.4-0.3,0.7-0.7,0.7h-3.9
			c-0.4,0-0.7-0.3-0.7-0.7v-5.4C67.1,68.3,67.4,68,67.8,68z"/>
		<path id="Rectángulo_29867" class="st10" d="M60.6,68h3.9c0.4,0,0.7,0.3,0.7,0.7v5.4c0,0.4-0.3,0.7-0.7,0.7h-3.9
			c-0.4,0-0.7-0.3-0.7-0.7v-5.4C59.9,68.3,60.2,68,60.6,68z"/>
		<rect id="Rectángulo_29868" x="93" y="30.4" class="st22" width="3.9" height="5"/>
		<rect id="Rectángulo_29869" x="80.7" y="50.7" class="st10" width="26.9" height="6.2"/>
		<rect id="Rectángulo_29870" x="44.9" y="32.8" class="st10" width="9.2" height="9.2"/>
		<rect id="Rectángulo_29871" x="85" y="30.4" class="st5" width="69" height="47.8"/>
		<rect id="Rectángulo_29872" x="85" y="30.4" class="st20" width="69" height="47.8"/>
		<rect id="Rectángulo_29873" x="85" y="30.4" class="st21" width="32" height="47.8"/>
		<path id="Rectángulo_29874" class="st10" d="M110,68h3.9c0.4,0,0.7,0.3,0.7,0.7v5.4c0,0.4-0.3,0.7-0.7,0.7H110
			c-0.4,0-0.7-0.3-0.7-0.7v-5.4C109.3,68.3,109.6,68,110,68z"/>
		<path id="Rectángulo_29875" class="st10" d="M102.8,68h3.9c0.4,0,0.7,0.3,0.7,0.7v5.4c0,0.4-0.3,0.7-0.7,0.7h-3.9
			c-0.4,0-0.7-0.3-0.7-0.7v-5.4C102.1,68.3,102.4,68,102.8,68z"/>
		<rect id="Rectángulo_29876" x="135.3" y="30.4" class="st22" width="3.9" height="5"/>
		<rect id="Rectángulo_29877" x="123" y="50.7" class="st10" width="26.9" height="6.2"/>
		<rect id="Rectángulo_29878" x="87.1" y="32.8" class="st10" width="9.2" height="9.2"/>
		<rect id="Rectángulo_29879" x="61.1" y="-17.4" class="st5" width="69" height="47.8"/>
		<rect id="Rectángulo_29880" x="61.1" y="-17.4" class="st21" width="32" height="47.8"/>
		<path id="Rectángulo_29881" class="st10" d="M86.2,20.3h3.9c0.4,0,0.7,0.3,0.7,0.7v5.4c0,0.4-0.3,0.7-0.7,0.7h-3.9
			c-0.4,0-0.7-0.3-0.7-0.7V21C85.4,20.6,85.8,20.3,86.2,20.3z"/>
		<path id="Rectángulo_29882" class="st10" d="M79,20.3h3.9c0.4,0,0.7,0.3,0.7,0.7v5.4c0,0.4-0.3,0.7-0.7,0.7H79
			c-0.4,0-0.7-0.3-0.7-0.7V21C78.2,20.6,78.6,20.3,79,20.3z"/>
		<rect id="Rectángulo_29883" x="111.4" y="-17.4" class="st22" width="3.9" height="5"/>
		<rect id="Rectángulo_29884" x="99.1" y="3" class="st10" width="26.9" height="6.2"/>
		<rect id="Rectángulo_29885" x="63.2" y="-14.9" class="st10" width="9.2" height="9.2"/>
		<rect id="Rectángulo_29886" x="79.6" y="78.1" class="st7" width="69" height="47.8"/>
		<rect id="Rectángulo_29887" x="79.6" y="78.1" class="st21" width="69" height="47.8"/>
		<rect id="Rectángulo_29888" x="79.6" y="78.1" class="st21" width="32" height="47.8"/>
		<path id="Rectángulo_29889" class="st10" d="M104.7,115.8h3.9c0.4,0,0.7,0.3,0.7,0.7v5.4c0,0.4-0.3,0.7-0.7,0.7h-3.9
			c-0.4,0-0.7-0.3-0.7-0.7v-5.4C103.9,116.1,104.3,115.8,104.7,115.8z"/>
		<path id="Rectángulo_29890" class="st10" d="M97.4,115.8h3.9c0.4,0,0.7,0.3,0.7,0.7v5.4c0,0.4-0.3,0.7-0.7,0.7h-3.9
			c-0.4,0-0.7-0.3-0.7-0.7v-5.4C96.7,116.1,97,115.8,97.4,115.8z"/>
		<rect id="Rectángulo_29891" x="129.9" y="78.1" class="st22" width="3.9" height="5"/>
		<rect id="Rectángulo_29892" x="117.6" y="98.5" class="st10" width="26.9" height="6.2"/>
		<rect id="Rectángulo_29893" x="81.7" y="80.6" class="st10" width="9.2" height="9.2"/>
	</g>
</g>
</svg>
