<?xml version="1.0" encoding="utf-8"?>
<!-- Generator: Adobe Illustrator 25.3.1, SVG Export Plug-In . SVG Version: 6.00 Build 0)  -->
<svg version="1.1" id="Layer_1" xmlns="http://www.w3.org/2000/svg" xmlns:xlink="http://www.w3.org/1999/xlink" x="0px" y="0px"
	 viewBox="0 0 352 252.4" style="enable-background:new 0 0 352 252.4;" xml:space="preserve">
<style type="text/css">
	.st0{enable-background:new    ;}
	.st1{fill:#12263F;}
	.st2{opacity:0.1;}
	.st3{fill:#7D6EB2;}
	.st4{fill:#263238;}
	.st5{fill:#455A64;}
	.st6{fill:#DAA764;}
	.st7{fill:#E8B990;}
	.st8{opacity:0.3;}
	.st9{fill:#FFFFFF;}
	.st10{opacity:0.4;}
	.st11{fill:#C1507F;}
	.st12{fill:#E0E0E0;}
</style>
<g id="Grupo_55809" transform="translate(10734 5596.417)">
	<g class="st0">
		<path class="st1" d="M-10599.2-5558v-14.2h4.4c1.2,0,2.4,0.3,3.4,0.8s1.8,1.4,2.3,2.4s0.8,2.2,0.8,3.5v0.7c0,1.3-0.3,2.5-0.8,3.5
			s-1.3,1.8-2.3,2.4s-2.1,0.9-3.3,0.9H-10599.2z M-10596.3-5569.8v9.5h1.4c1.1,0,2-0.4,2.6-1.1s0.9-1.8,0.9-3.2v-0.8
			c0-1.4-0.3-2.5-0.9-3.3s-1.5-1.1-2.6-1.1H-10596.3z"/>
		<path class="st1" d="M-10581.6-5557.8c-1.5,0-2.8-0.5-3.8-1.4s-1.5-2.2-1.5-3.8v-0.3c0-1.1,0.2-2,0.6-2.8s1-1.5,1.7-1.9
			s1.6-0.7,2.6-0.7c1.4,0,2.6,0.5,3.4,1.4s1.2,2.2,1.2,3.9v1.2h-6.7c0.1,0.7,0.4,1.2,0.8,1.7s1,0.6,1.7,0.6c1.1,0,1.9-0.4,2.5-1.2
			l1.4,1.6c-0.4,0.6-1,1.1-1.7,1.4S-10580.7-5557.8-10581.6-5557.8z M-10581.9-5566.5c-0.6,0-1,0.2-1.4,0.6
			c-0.3,0.4-0.6,0.9-0.7,1.6h3.9v-0.2c0-0.6-0.2-1.1-0.5-1.5C-10580.8-5566.3-10581.3-5566.5-10581.9-5566.5z"/>
		<path class="st1" d="M-10573-5568.6l0.1,1.2c0.7-0.9,1.8-1.4,3-1.4c1.4,0,2.3,0.5,2.8,1.6c0.7-1.1,1.8-1.6,3.2-1.6
			c1.1,0,2,0.3,2.6,1s0.8,1.7,0.8,3v6.7h-2.8v-6.8c0-0.6-0.1-1-0.4-1.3s-0.6-0.4-1.2-0.4c-0.8,0-1.4,0.4-1.8,1.2l0,7.3h-2.8v-6.7
			c0-0.6-0.1-1.1-0.4-1.3s-0.7-0.4-1.2-0.4c-0.8,0-1.4,0.3-1.7,1v7.5h-2.8v-10.6H-10573z"/>
		<path class="st1" d="M-10552.2-5558c-0.1-0.3-0.2-0.6-0.3-0.9c-0.7,0.8-1.6,1.1-2.7,1.1c-1,0-1.9-0.3-2.6-0.9s-1-1.4-1-2.3
			c0-1.1,0.4-2,1.2-2.6s2-0.9,3.6-0.9h1.3v-0.6c0-0.5-0.1-0.9-0.4-1.2s-0.6-0.4-1.2-0.4c-0.5,0-0.8,0.1-1.1,0.3s-0.4,0.5-0.4,0.9
			h-2.8c0-0.6,0.2-1.2,0.6-1.7s0.9-0.9,1.6-1.2s1.5-0.4,2.3-0.4c1.3,0,2.3,0.3,3.1,1s1.1,1.6,1.1,2.8v4.6c0,1,0.1,1.8,0.4,2.3v0.2
			H-10552.2z M-10554.5-5560c0.4,0,0.8-0.1,1.2-0.3s0.6-0.4,0.8-0.7v-1.8h-1.1c-1.4,0-2.2,0.5-2.3,1.5l0,0.2c0,0.4,0.1,0.6,0.4,0.9
			S-10554.9-5560-10554.5-5560z"/>
		<path class="st1" d="M-10545-5568.6l0.1,1.2c0.8-0.9,1.8-1.4,3-1.4c1.1,0,2,0.3,2.5,1s0.8,1.6,0.8,2.9v6.8h-2.8v-6.8
			c0-0.6-0.1-1-0.4-1.3s-0.7-0.4-1.3-0.4c-0.8,0-1.4,0.3-1.8,1v7.5h-2.8v-10.6H-10545z"/>
		<path class="st1" d="M-10536.8-5563.4c0-1.6,0.4-3,1.1-3.9s1.7-1.5,3-1.5c1,0,1.9,0.4,2.5,1.2v-5.4h2.8v15h-2.5l-0.1-1.1
			c-0.7,0.9-1.6,1.3-2.7,1.3c-1.2,0-2.2-0.5-3-1.5S-10536.8-5561.6-10536.8-5563.4z M-10534-5563.2c0,1,0.2,1.8,0.5,2.3
			c0.3,0.5,0.8,0.8,1.5,0.8c0.9,0,1.5-0.4,1.8-1.1v-4.2c-0.4-0.7-1-1.1-1.8-1.1C-10533.3-5566.5-10534-5565.4-10534-5563.2z"/>
		<path class="st1" d="M-10519-5558c-0.1-0.3-0.2-0.6-0.3-0.9c-0.7,0.8-1.6,1.1-2.7,1.1c-1,0-1.9-0.3-2.6-0.9s-1-1.4-1-2.3
			c0-1.1,0.4-2,1.2-2.6s2-0.9,3.6-0.9h1.3v-0.6c0-0.5-0.1-0.9-0.4-1.2s-0.6-0.4-1.2-0.4c-0.5,0-0.8,0.1-1.1,0.3s-0.4,0.5-0.4,0.9
			h-2.8c0-0.6,0.2-1.2,0.6-1.7s0.9-0.9,1.6-1.2s1.5-0.4,2.3-0.4c1.3,0,2.3,0.3,3.1,1s1.1,1.6,1.1,2.8v4.6c0,1,0.1,1.8,0.4,2.3v0.2
			H-10519z M-10521.3-5560c0.4,0,0.8-0.1,1.2-0.3s0.6-0.4,0.8-0.7v-1.8h-1.1c-1.4,0-2.2,0.5-2.3,1.5l0,0.2c0,0.4,0.1,0.6,0.4,0.9
			S-10521.7-5560-10521.3-5560z"/>
	</g>
	<g id="Grupo_55805" transform="translate(-11609 -10815)">
		<g id="Image_Place_Holder" transform="translate(875 5218.583)" class="st2">
			<path id="Image_Place_Holder-2" class="st3" d="M10,0h332c5.5,0,10,4.5,10,10v232.4c0,5.5-4.5,10-10,10H10c-5.5,0-10-4.5-10-10
				V10C0,4.5,4.5,0,10,0z"/>
		</g>
		<g id="Pizza_maker-pana" transform="translate(852.926 5066.859)">
			<g id="freepik--Pizza--inject-696" transform="translate(44.114 270.739)">
				<path id="Trazado_125043" class="st4" d="M75.6,2.2l-21.8,8.2L0,77.7l11.5,14.1l280.1-2L246.6,8.4L75.6,2.2z"/>
				<path id="Trazado_125044" class="st5" d="M17.6,66.4c-2.7,2.2-5.6,4.2-8.6,6c-2.9,2-5.9,3.8-9,5.4c2.7-2.2,5.6-4.1,8.6-5.9
					C11.5,69.8,14.5,68,17.6,66.4L17.6,66.4z"/>
				<path id="Trazado_125045" class="st5" d="M24.4,81c-1.7,2.3-3.6,4.4-5.8,6.2c-2.1,2-4.4,3.7-6.8,5c-0.1-0.2,2.9-2.4,6.4-5.5
					S24.2,80.9,24.4,81z"/>
				<path id="Trazado_125046" class="st5" d="M76.2,2.8l-58,64.7h289.7L253.9,2.8H76.2z"/>
				<path id="Trazado_125047" class="st5" d="M17.6,67l6.5,18.1l281-3.9l2.2-14.2L17.6,67z"/>
				<path id="Trazado_125048" class="st5" d="M73.9,0.4l2.9,9.6L24.1,85.1L17.6,67L73.9,0.4z"/>
				<path id="Trazado_125049" class="st5" d="M253.3,0v9.6L76.9,10l-3.4-9.6L253.3,0z"/>
				<path id="Trazado_125050" class="st5" d="M253.3,9.6l51.9,71.6l2.2-14.2L253.3,0V9.6z"/>
				<path id="Trazado_125051" class="st4" d="M307.4,67H265l-102.4-0.2c-40,0-76.2,0-102.5,0.1l-31,0.1h-8.5l8.4-0.2l31-0.3
					c26.2-0.2,62.4-0.3,102.5-0.3s76.2,0.2,102.4,0.4l31,0.3l8.4,0.1h2.2L307.4,67z"/>
				<path id="Trazado_125052" class="st4" d="M36.9,67.4c0.1-0.3,0.3-0.5,0.4-0.7c0.3-0.5,0.8-1.1,1.3-1.9l5-7l16.7-23l16.2-22v0.2
					l-2.4-9.2c-0.3-1-0.5-1.9-0.6-2.5c-0.1-0.3-0.1-0.6-0.2-0.9c0.1,0.3,0.2,0.6,0.3,0.9c0.2,0.6,0.4,1.5,0.7,2.5l2.6,9.1v0.1L77,13
					c-4.2,5.8-9.9,13.6-16.1,22.1L44,58c-2.2,2.9-3.9,5.2-5.2,6.9l-1.4,1.9C37.3,67,37.1,67.2,36.9,67.4L36.9,67.4z"/>
				<path id="Trazado_125053" class="st4" d="M253.3,0c0,0.2,0,0.4,0,0.6v1.8c0,1.6,0,4,0.1,7.1v0.1h-0.1
					c-14.8,0.4-46.5,1.1-83.3,1.8l-65.7,1.1l-19.9,0.3h-5.4l5.4-0.2l19.9-0.5l65.7-1.3c36.8-0.7,68.6-1.2,83.3-1.4l-0.1,0.1
					c0-3.1,0-5.5,0.1-7.1V0.7C253.2,0.5,253.2,0.2,253.3,0z"/>
				<path id="Trazado_125054" class="st4" d="M296.5,67c-0.1,0.1-9.9-12.6-21.9-28.5S253.1,9.7,253.3,9.6s9.9,12.6,21.9,28.5
					S296.7,66.9,296.5,67z"/>
				<path id="Trazado_125055" class="st6" d="M77.5,50.7c-2.1-1.1-3.5-3.2-3.7-5.6c-0.2-2.3,0.1-4.7,0.7-7c0.7-3.2,1.5-6.7,4.2-8.6
					s6.3-1.8,9.4-3c4.2-1.6,7.2-5.5,11.4-7s8.6-0.2,12.9-0.9c4.8-0.8,8.9-4.1,13.7-5.1c5.4-1.1,11,0.7,16.5,1.4
					c7.2,1,14.5,0.2,21.7,0c11.4-0.3,22.8,0.7,34,3.2c0,0,8.1-1.9,13.2,0.6s7,3.9,12.1,5.6s17.4,5.3,19.3,10.7s1,6,1,6l-26-11.8
					l-21.8-5.7l-34.8-3l-34.6,0.4l-21.2,6.1l-13,7.2L84.7,42l0.4,6.9L77.5,50.7z"/>
				<path id="Trazado_125056" class="st7" d="M160.3,44.7l-80.3,8.4c-2.7-1.9-4.1-5-3.9-8.3c0-15.2,38-27.7,84.2-27.7
					s84.2,12.4,84.2,27.6L160.3,44.7z"/>
				<g id="Grupo_55363" transform="translate(88.626 21.771)" class="st8">
					<path id="Trazado_125057" class="st9" d="M142.1,19.1c0.9-2.1-0.7-4.5-2.7-5.4c-2.1-0.8-4.4-1.1-6.6-0.9
						c-2.2,0.2-4.5-0.3-6.4-1.4c-2.3-1.6-3.3-4.9-6-5.8c-3.5-1.1-7,2.6-10.6,1.7c-2.4-0.6-3.9-3-6.2-4c-4.3-1.9-9,1.9-13.7,1.6
						s-8.5-4.6-13.2-4.5c-3.2,0.1-6.1,2.4-9.4,2.3S61.1,0,57.8,0C52.9,0,49,5.5,44.2,4.8c-3.5-0.5-6.2-4.3-9.7-3.7
						c-3.1,0.6-4.6,4.3-7.6,5.2c-2.4,0.8-5.2-0.4-7.6,0.5c-3.9,1.5-4.6,7.9-8.7,8.4c-2.5,0.3-5.2-1.8-7.3-0.3c-1.3,1-1.4,2.9-1,4.5
						c0.6,1.5,0.9,3.1,0.9,4.8c-0.2,1.6-6.4,2.3-1.3,2.1l69.7-7L142.1,19.1z"/>
				</g>
				<path id="Trazado_125058" class="st4" d="M160.3,41c-0.3,0.1-0.6,0.1-0.9,0.2l-2.6,0.3l-9.3,1.1l-30.8,3.2l-28.5,2.8H88
					l-0.1-0.2c-1-1.8-2.9-3-4.9-3.1c-1.6-0.1-3.1,0.5-4.3,1.5c-0.7,0.7-1.3,1.5-1.7,2.4c-0.2,0.6-0.3,1-0.3,1s0-0.1,0-0.3
					c0-0.3,0.1-0.5,0.2-0.8c0.3-1,0.9-1.9,1.6-2.6c1.2-1.2,2.8-1.8,4.5-1.8c2.2,0.1,4.3,1.3,5.4,3.3L88.1,48l28.5-3l30.9-3l9.4-0.8
					l2.6-0.2C159.7,41,160,41,160.3,41z"/>
				<path id="Trazado_125059" class="st4" d="M100.3,32.2c0.1,0-0.5,1-2,1.8c-0.9,0.4-1.8,0.8-2.7,1c-1.1,0.3-2.2,0.6-3.2,1.1
					c-2.2,1-2.9,3.4-4,4.6c-0.6,0.7-1.4,1.2-2.3,1.4c0.7-0.5,1.4-1,1.9-1.7c0.5-0.6,0.9-1.5,1.5-2.4c0.6-1.1,1.5-1.9,2.6-2.5
					c1.1-0.5,2.2-0.9,3.4-1.1c0.9-0.2,1.8-0.5,2.7-0.8C98.9,33.2,99.6,32.8,100.3,32.2z"/>
				<path id="Trazado_125060" class="st7" d="M206.4,33.8c-0.8-0.7-1.7-1.2-2.7-1.5c-3.8-1.2-7.8-1.8-11.8-1.7
					c-3.1,0.3-6.3,0.5-9.4,0.4c-2.4-0.3-4.8-0.8-7.1-1.5c-3.5-0.9-7.1-1.5-10.6-2.2c-3.3-0.8-6.7-1-10-0.6c-2.2,0.4-4.4,1.3-6.6,1.4
					c-1.8-0.1-3.6-0.4-5.3-0.7c-2.6-0.1-5.2,0.1-7.7,0.4c-2.6,0.1-5.8,0.1-7.8-1.5l0,0c-1.5-1.4-4-0.4-5.5,1.1s-2.4,3.4-4.2,4.5
					c-2.8,1.6-6.9,0.5-9.2,2.9s-0.9,6.4,1.8,8.1s6.2,1.4,9.3,0.7c5-1.1,10.1-3.2,15.1-2.4c3,0.5,6.1,1.9,9,1.1s5.2-4.1,8.4-4.5
					c2.6-0.3,4.9,1.3,7.5,1.8c3,0.6,6-0.6,9-0.9c4.8-0.4,9.5,1.4,14.4,2c7.3,0.9,14.6-0.9,21.7-2.6c0.9-0.1,1.7-0.6,2.3-1.3
					C207.3,35.7,207.2,34.5,206.4,33.8z"/>
				<g id="Grupo_55364" transform="translate(107.211 25.611)" class="st10">
					<path id="Trazado_125061" class="st9" d="M99.2,8.1c-0.8-0.7-1.7-1.2-2.7-1.5C92.7,5.4,88.7,4.9,84.7,5
						c-3.1,0.3-6.3,0.5-9.4,0.4c-2.4-0.3-4.8-0.8-7.1-1.5C64.7,3,61.2,2.4,57.6,1.7c-3.3-0.8-6.7-1-10-0.6c-2.2,0.4-4.4,1.3-6.6,1.4
						c-1.8-0.1-3.6-0.4-5.3-0.7c-2.6-0.1-5.2,0.1-7.7,0.4c-2.6,0.1-5.8,0.1-7.8-1.5l0,0c-1.5-1.4-4-0.4-5.5,1.1s-2.4,3.4-4.2,4.5
						C7.6,7.8,3.5,6.7,1.2,9.1s-0.9,6.4,1.8,8.1s6.2,1.4,9.3,0.7c5-1.1,10.1-3.2,15.1-2.4c3,0.5,6.1,1.9,9,1.1s5.2-4.1,8.4-4.5
						c2.6-0.3,4.9,1.3,7.5,1.8c3,0.6,6-0.6,9-0.9c4.8-0.4,9.5,1.4,14.4,2c7.3,0.9,14.6-0.9,21.7-2.6c0.9-0.1,1.7-0.6,2.3-1.3
						C100.1,10.1,99.9,8.9,99.2,8.1z"/>
				</g>
				<path id="Trazado_125062" class="st4" d="M112.3,18.6c0.7,0.2,1.4,0.5,2.1,0.8l5.5,2.5c4.7,2.1,11.1,5.1,18.2,8.4
					c9.6,4.5,18,8.5,22.3,10.6h0.1V41c0,1.1,0,2-0.1,2.7c0,0.3,0,0.6-0.1,0.9c-0.1-0.3-0.1-0.6-0.1-0.9c0-0.7,0-1.6-0.1-2.7l0.1,0.1
					c-4.3-1.9-12.8-5.8-22.4-10.3c-7.1-3.3-13.5-6.3-18.1-8.6l-5.5-2.7C113.5,19.3,112.9,19,112.3,18.6L112.3,18.6z"/>
				<path id="Trazado_125063" class="st4" d="M190.5,16.5c0.1,0.1-6.4,5.8-14.6,12.7S161,41.5,160.9,41.4s6.4-5.8,14.6-12.7
					S190.4,16.3,190.5,16.5z"/>
				<path id="Trazado_125064" class="st4" d="M147.9,20.3c-4.5,2.6-9.8,3.2-14.7,1.7c2.5,0.2,5,0.2,7.5,0
					C143.1,21.6,145.5,21.1,147.9,20.3z"/>
				<path id="Trazado_125065" class="st4" d="M169.5,21.9l-6.4-0.8c1-0.4,2.2-0.5,3.3-0.2C167.5,20.9,168.6,21.2,169.5,21.9z"/>
				<path id="Trazado_125066" class="st4" d="M213.5,28.2c-2.2-2.3-5.4-3.3-8.5-2.6c0.4-0.3,0.8-0.6,1.3-0.6
					c2.3-0.5,4.8,0.2,6.4,1.9C213.3,27.6,213.6,28.2,213.5,28.2z"/>
				<path id="Trazado_125067" class="st4" d="M242.8,40.2c-0.1-0.4-0.3-0.7-0.5-1.1c-0.6-1-1.4-1.8-2.4-2.4c-1.5-1-3.4-1.2-5.2-0.6
					c-2.2,0.8-3.9,2.7-4.3,5v0.2h-0.2c-7.3-0.1-16.5-0.2-26.4-0.2c-12.1,0-23.1,0-31,0.1l-9.4,0.1h-2.6c-0.3,0-0.6,0-0.9,0
					c0.3-0.1,0.6-0.1,0.9-0.1l2.6-0.1l9.4-0.3c7.9-0.2,18.9-0.3,31-0.3c10,0,19.2,0.2,26.4,0.3L230,41c0.5-2.5,2.3-4.6,4.7-5.3
					c1.8-0.5,3.8-0.3,5.4,0.8c1,0.6,1.8,1.5,2.4,2.6C242.6,39.4,242.8,39.8,242.8,40.2L242.8,40.2z"/>
				<path id="Trazado_125068" class="st11" d="M116.2,40c0,2.4-3.1,4.4-7,4.4s-7-1.9-7-4.4s3.1-4.3,7-4.3S116.2,37.6,116.2,40z"/>
				<path id="Trazado_125069" class="st12" d="M111.4,42.4c0.1,0.2,0,0.4-0.3,0.5c-0.2,0.1-0.5,0.1-0.6-0.1c0,0,0,0,0,0
					c-0.1-0.2,0-0.4,0.3-0.5C111,42.1,111.3,42.1,111.4,42.4C111.4,42.3,111.4,42.3,111.4,42.4z"/>
				<path id="Trazado_125070" class="st12" d="M111.9,40.4c0.1,0.2,0,0.4-0.2,0.5c-0.2,0.1-0.4,0-0.5-0.1c-0.1-0.2,0-0.4,0.1-0.5
					C111.5,40.2,111.8,40.2,111.9,40.4L111.9,40.4z"/>
				<path id="Trazado_125071" class="st12" d="M114.2,40.5c0.1,0.1,0.1,0.4,0,0.5c-0.1,0.1-0.4,0.1-0.5,0s-0.1-0.4,0-0.5
					c0,0,0,0,0,0C113.8,40.3,114,40.3,114.2,40.5z"/>
				<path id="Trazado_125072" class="st12" d="M107,39.3c0.1,0.2-0.1,0.4-0.3,0.4c-0.1,0-0.3,0-0.4-0.1c-0.1-0.2,0-0.4,0.2-0.5
					C106.7,39,106.9,39.1,107,39.3L107,39.3z"/>
				<path id="Trazado_125073" class="st12" d="M110.8,38.2c0.1,0.2,0,0.4-0.2,0.5c0,0,0,0,0,0c-0.2,0.1-0.4,0-0.5-0.1c0,0,0,0,0,0
					c-0.1-0.2,0-0.4,0.2-0.5C110.5,38,110.7,38.1,110.8,38.2z"/>
				<path id="Trazado_125074" class="st11" d="M113.6,38.6c0.1,0.1,0,0.3-0.1,0.4c-0.2,0-0.3-0.1-0.4-0.2c-0.1-0.1-0.1-0.3,0-0.4
					c0.1-0.1,0.3-0.1,0.4,0C113.6,38.5,113.6,38.5,113.6,38.6L113.6,38.6z"/>
				<path id="Trazado_125075" class="st12" d="M108.4,37c0.1,0.2-0.1,0.4-0.4,0.6s-0.6,0.1-0.7,0s0.1-0.4,0.4-0.6
					S108.3,36.9,108.4,37z"/>
				<path id="Trazado_125076" class="st12" d="M104.1,38.6c0,0.2-0.1,0.4-0.2,0.4c-0.2,0.1-0.4,0-0.5-0.2c0-0.2,0.1-0.4,0.2-0.4
					C103.8,38.4,104,38.5,104.1,38.6z"/>
				<path id="Trazado_125077" class="st12" d="M104.3,41c0.1,0.2,0,0.4-0.1,0.5c0,0,0,0,0,0c-0.2,0.1-0.4,0-0.5-0.1
					c-0.1-0.2,0-0.4,0.1-0.5c0,0,0,0,0,0C104,40.8,104.2,40.8,104.3,41C104.3,41,104.3,41,104.3,41z"/>
				<path id="Trazado_125078" class="st12" d="M108,42.5c0.1,0.2,0,0.4-0.3,0.5c-0.2,0.1-0.4,0.1-0.6-0.1c0-0.3,0.1-0.5,0.4-0.5
					C107.7,42.4,107.8,42.4,108,42.5L108,42.5z"/>
				<path id="Trazado_125079" class="st12" d="M109.7,40.6c-0.1,0.3-0.3,0.5-0.5,0.6c-0.3,0.1-0.7,0.1-0.8,0s0.2-0.4,0.5-0.6
					S109.7,40.4,109.7,40.6z"/>
				<path id="Trazado_125080" class="st12" d="M106.1,41.3c0.1,0.1,0.1,0.3-0.1,0.4c0,0,0,0,0,0c-0.2,0.1-0.4,0-0.4-0.2
					c-0.1-0.1,0-0.3,0.1-0.4C105.8,41.1,106,41.2,106.1,41.3C106.1,41.3,106.1,41.3,106.1,41.3z"/>
				<path id="Trazado_125081" class="st12" d="M111.4,37c0,0.2-0.1,0.3-0.2,0.4c-0.2,0-0.3-0.1-0.4-0.2c0-0.2,0.1-0.3,0.2-0.4
					c0.1,0,0.2,0,0.2,0C111.4,36.9,111.4,37,111.4,37z"/>
				<ellipse id="Elipse_4233" class="st11" cx="206.6" cy="35.2" rx="7" ry="4.3"/>
				<path id="Trazado_125082" class="st12" d="M208.9,37.5c0.1,0.2,0,0.4-0.3,0.5c-0.2,0.1-0.4,0.1-0.6-0.1c-0.1-0.2,0-0.4,0.3-0.5
					C208.5,37.2,208.8,37.3,208.9,37.5z"/>
				<path id="Trazado_125083" class="st12" d="M209.3,35.5c0.1,0.2,0.1,0.4-0.1,0.5c-0.2,0.1-0.4,0.1-0.5-0.1
					c-0.1-0.2-0.1-0.4,0.1-0.5c0,0,0,0,0,0C209,35.3,209.2,35.3,209.3,35.5C209.3,35.5,209.3,35.5,209.3,35.5z"/>
				<path id="Trazado_125084" class="st12" d="M211.6,35.6c0.1,0.1,0.1,0.4,0,0.5c-0.1,0.1-0.4,0.1-0.5,0c-0.1-0.1-0.1-0.4,0-0.5
					C211.3,35.4,211.5,35.4,211.6,35.6L211.6,35.6z"/>
				<path id="Trazado_125085" class="st12" d="M204.4,34.4c0.1,0.2,0,0.4-0.2,0.4c0,0,0,0,0,0c-0.2,0.1-0.4,0-0.5-0.2
					c-0.1-0.2,0-0.4,0.2-0.5C204.1,34.2,204.3,34.2,204.4,34.4z"/>
				<path id="Trazado_125086" class="st12" d="M208.2,33.4c0.1,0.2,0,0.4-0.2,0.5c0,0,0,0,0,0c-0.2,0.1-0.4,0-0.5-0.1c0,0,0,0,0,0
					c-0.1-0.2,0-0.4,0.2-0.5C207.9,33.1,208.1,33.2,208.2,33.4z"/>
				<path id="Trazado_125087" class="st12" d="M211.1,33.8c0.1,0.1,0,0.3-0.1,0.4c-0.2,0-0.3-0.1-0.4-0.2c-0.1-0.1-0.1-0.3,0-0.4
					c0.1-0.1,0.3-0.1,0.4,0C211.1,33.6,211.1,33.7,211.1,33.8L211.1,33.8z"/>
				<path id="Trazado_125088" class="st12" d="M205.9,32.1c0.1,0.2-0.1,0.4-0.4,0.6s-0.6,0.1-0.7,0s0.1-0.4,0.4-0.6
					S205.7,32,205.9,32.1z"/>
				<path id="Trazado_125089" class="st12" d="M201.5,33.8c0,0.2-0.1,0.4-0.2,0.4c-0.2,0.1-0.4,0-0.5-0.2c0-0.2,0.1-0.4,0.2-0.4
					C201.3,33.5,201.5,33.6,201.5,33.8z"/>
				<path id="Trazado_125090" class="st12" d="M201.7,36.1c0.1,0.2,0,0.4-0.1,0.5c0,0,0,0,0,0c-0.2,0.1-0.4,0-0.5-0.1
					c-0.1-0.2,0-0.4,0.1-0.5C201.4,35.9,201.6,35.9,201.7,36.1C201.7,36.1,201.7,36.1,201.7,36.1z"/>
				<path id="Trazado_125091" class="st12" d="M205.3,37.6c0.1,0.2,0,0.4-0.3,0.5c-0.2,0.1-0.4,0.1-0.6-0.1c0-0.3,0.2-0.5,0.4-0.5
					C205.1,37.5,205.2,37.5,205.3,37.6L205.3,37.6z"/>
				<path id="Trazado_125092" class="st12" d="M207.1,35.7c0.1,0.2-0.2,0.4-0.5,0.6s-0.7,0.1-0.8,0s0.2-0.4,0.5-0.6
					S207.1,35.5,207.1,35.7z"/>
				<path id="Trazado_125093" class="st12" d="M203.6,36.4c0.1,0.1,0.1,0.3-0.1,0.4c0,0,0,0,0,0c-0.2,0.1-0.4,0-0.4-0.2
					c-0.1-0.1,0-0.3,0.1-0.4C203.3,36.2,203.5,36.3,203.6,36.4C203.6,36.4,203.6,36.4,203.6,36.4z"/>
				<path id="Trazado_125094" class="st12" d="M208.9,32.2c0.1,0.2,0,0.3-0.2,0.4c-0.2,0-0.3-0.1-0.4-0.2c-0.1-0.1,0-0.3,0.1-0.4
					C208.6,31.8,208.8,31.9,208.9,32.2C208.9,32.1,208.9,32.1,208.9,32.2L208.9,32.2z"/>
				<ellipse id="Elipse_4234" class="st11" cx="125.6" cy="32.5" rx="6.3" ry="3.2"/>
				<path id="Trazado_125095" class="st12" d="M127.7,34.2c0,0.2-0.1,0.4-0.3,0.5c-0.2,0.1-0.4,0-0.5-0.2c0,0,0,0,0,0
					c0-0.2,0.1-0.4,0.3-0.5C127.3,34,127.6,34,127.7,34.2L127.7,34.2z"/>
				<path id="Trazado_125096" class="st12" d="M128,32.8c0.1,0.1,0,0.3-0.1,0.4c0,0,0,0,0,0c-0.2,0.1-0.4,0-0.4-0.2
					c-0.1-0.2,0-0.4,0.2-0.4l0,0C127.8,32.5,127.9,32.6,128,32.8C128,32.8,128,32.8,128,32.8z"/>
				<path id="Trazado_125097" class="st12" d="M130.1,32.8c0.1,0.1,0.1,0.3,0,0.4c0,0,0,0,0,0c-0.2,0.1-0.4,0-0.5-0.1
					c-0.1-0.1-0.1-0.3,0-0.4C129.8,32.7,130,32.7,130.1,32.8C130.1,32.8,130.1,32.8,130.1,32.8L130.1,32.8z"/>
				<path id="Trazado_125098" class="st12" d="M123.7,32c0.1,0.2,0,0.3-0.2,0.4c-0.2,0.1-0.4,0-0.4-0.2c0,0,0,0,0,0
					c-0.1-0.2,0-0.3,0.1-0.4S123.6,31.8,123.7,32C123.6,32,123.7,32,123.7,32L123.7,32z"/>
				<path id="Trazado_125099" class="st12" d="M127.1,31.2c0.1,0.2,0,0.4-0.2,0.5c-0.2,0.1-0.4,0-0.4-0.2c-0.1-0.2,0-0.4,0.2-0.4
					c0,0,0,0,0,0C126.8,30.9,127,31,127.1,31.2z"/>
				<path id="Trazado_125100" class="st12" d="M129.6,31.5c0.1,0.1,0,0.3-0.1,0.4c0,0,0,0,0,0c-0.1,0-0.3-0.1-0.3-0.3
					c-0.1-0.1,0-0.3,0.1-0.4c0,0,0,0,0,0C129.5,31.2,129.6,31.3,129.6,31.5z"/>
				<path id="Trazado_125101" class="st12" d="M124.9,30.3c0.1,0.2-0.1,0.4-0.4,0.5s-0.6,0.1-0.6-0.1s0.1-0.4,0.4-0.5
					S124.8,30.2,124.9,30.3z"/>
				<path id="Trazado_125102" class="st12" d="M121.1,31.5c0,0.2-0.1,0.4-0.2,0.4c-0.2,0-0.3-0.1-0.4-0.3c-0.1-0.2,0-0.3,0.2-0.4
					c0,0,0,0,0,0C120.9,31.2,121,31.3,121.1,31.5z"/>
				<path id="Trazado_125103" class="st12" d="M121.3,33.2c0.1,0.1,0,0.3-0.1,0.4c0,0,0,0,0,0c-0.2,0.1-0.4,0-0.4-0.2
					c-0.1-0.2,0-0.3,0.1-0.4C121,33,121.2,33,121.3,33.2z"/>
				<path id="Trazado_125104" class="st12" d="M124.5,34.4c0.1,0.2-0.1,0.4-0.2,0.5c-0.2,0.1-0.4,0-0.5-0.2c0,0,0,0,0,0
					c0-0.2,0.1-0.4,0.3-0.5C124.2,34.1,124.4,34.2,124.5,34.4L124.5,34.4z"/>
				<path id="Trazado_125105" class="st12" d="M126.1,32.9c-0.1,0.4-0.5,0.6-0.9,0.5c-0.1,0-0.2-0.1-0.3-0.1
					c-0.1-0.1,0.2-0.4,0.5-0.5S126.1,32.8,126.1,32.9z"/>
				<path id="Trazado_125106" class="st12" d="M122.9,33.5c0.1,0.1,0,0.3-0.1,0.4c-0.2,0.1-0.4-0.1-0.4-0.2c0-0.1,0-0.3,0.1-0.4
					C122.7,33.2,122.8,33.3,122.9,33.5z"/>
				<path id="Trazado_125107" class="st12" d="M127.6,30.4c0.1,0.2,0,0.3-0.2,0.4c-0.2,0-0.3-0.1-0.3-0.3c0-0.2,0-0.3,0.2-0.4
					C127.5,30.1,127.6,30.2,127.6,30.4L127.6,30.4z"/>
				<path id="Trazado_125108" class="st11" d="M154.1,28.4c0,1.8-2.8,3.2-6.3,3.2s-6.3-1.4-6.3-3.2s2.8-3.2,6.3-3.2
					S154.1,26.7,154.1,28.4z"/>
				<path id="Trazado_125109" class="st12" d="M149.8,30.1c0,0.2-0.1,0.4-0.3,0.5c-0.2,0.1-0.4,0-0.5-0.2c0,0,0,0,0,0
					c0-0.2,0.1-0.4,0.3-0.5C149.5,29.8,149.8,29.9,149.8,30.1z"/>
				<path id="Trazado_125110" class="st12" d="M150.2,28.6c0.1,0.2,0,0.4-0.2,0.5c-0.2,0.1-0.4,0-0.4-0.2c0,0,0,0,0,0
					c-0.1-0.1,0-0.3,0.1-0.4c0,0,0,0,0,0C150,28.4,150.2,28.4,150.2,28.6z"/>
				<path id="Trazado_125111" class="st12" d="M152.3,28.7c0.1,0.1,0.1,0.3,0,0.4c0,0,0,0,0,0c-0.2,0.1-0.4,0-0.5-0.1
					c-0.1-0.1-0.1-0.3,0-0.4C152,28.5,152.1,28.5,152.3,28.7C152.3,28.7,152.3,28.7,152.3,28.7L152.3,28.7z"/>
				<path id="Trazado_125112" class="st12" d="M145.8,27.8c0.1,0.2,0,0.3-0.1,0.4s-0.3,0-0.4-0.1c0,0,0,0,0,0
					c-0.1-0.2,0-0.3,0.1-0.4S145.7,27.6,145.8,27.8C145.8,27.8,145.8,27.8,145.8,27.8z"/>
				<path id="Trazado_125113" class="st12" d="M149.3,27.1c0.1,0.2,0,0.4-0.2,0.4c-0.2,0.1-0.4,0-0.4-0.2c-0.1-0.2,0-0.4,0.2-0.4
					C149,26.8,149.2,26.9,149.3,27.1z"/>
				<path id="Trazado_125114" class="st12" d="M151.8,27.3c0.1,0.1,0,0.3-0.1,0.4c0,0,0,0,0,0c-0.1,0-0.3-0.1-0.3-0.3
					c-0.1-0.1,0-0.3,0.1-0.4c0,0,0,0,0,0C151.6,27,151.7,27.1,151.8,27.3C151.7,27.3,151.7,27.3,151.8,27.3z"/>
				<path id="Trazado_125115" class="st11" d="M147.1,26.2c0.1,0.2-0.1,0.4-0.4,0.5s-0.6,0.1-0.6-0.1s0.1-0.4,0.4-0.5
					S147,26,147.1,26.2z"/>
				<path id="Trazado_125116" class="st12" d="M143.3,27.3c0,0.2-0.1,0.4-0.2,0.4c-0.2,0-0.4-0.1-0.4-0.2c0-0.2,0.1-0.4,0.2-0.4
					c0,0,0,0,0,0C143.1,27,143.2,27.1,143.3,27.3L143.3,27.3z"/>
				<path id="Trazado_125117" class="st12" d="M143.5,29.1c0.1,0.1,0,0.3-0.1,0.4c0,0,0,0,0,0c-0.2,0.1-0.4,0-0.4-0.2
					c-0.1-0.2,0-0.3,0.1-0.4C143.2,28.8,143.4,28.9,143.5,29.1z"/>
				<path id="Trazado_125118" class="st12" d="M146.7,30.2c0.1,0.2-0.1,0.4-0.2,0.5c-0.2,0.1-0.4,0-0.5-0.2c0,0,0,0,0,0
					c0-0.2,0.1-0.4,0.3-0.5C146.4,30,146.6,30.1,146.7,30.2L146.7,30.2z"/>
				<path id="Trazado_125119" class="st12" d="M148.3,28.8c-0.1,0.4-0.5,0.6-0.9,0.5c-0.1,0-0.2-0.1-0.3-0.1
					c-0.1-0.1,0.2-0.4,0.5-0.5S148.2,28.6,148.3,28.8z"/>
				<path id="Trazado_125120" class="st12" d="M145.1,29.3c0.1,0.1,0,0.3-0.1,0.4c-0.2,0-0.3,0-0.4-0.2c-0.1-0.1-0.1-0.3,0.1-0.4
					C144.8,29.1,145,29.2,145.1,29.3z"/>
				<path id="Trazado_125121" class="st12" d="M149.8,26.2c0.1,0.2,0,0.3-0.2,0.4c-0.2,0-0.3-0.1-0.3-0.3c-0.1-0.2,0-0.3,0.2-0.4
					C149.7,25.9,149.8,26,149.8,26.2L149.8,26.2z"/>
				<path id="Trazado_125122" class="st11" d="M143.4,38.8c0,1.7-2.8,3.2-6.3,3.2s-6.3-1.4-6.3-3.2s2.8-3.2,6.3-3.2
					S143.4,37,143.4,38.8z"/>
				<path id="Trazado_125123" class="st12" d="M139.2,40.4c0.1,0.2,0,0.4-0.2,0.6c-0.2,0.1-0.4,0-0.6-0.2c-0.1-0.2,0-0.4,0.2-0.6
					c0,0,0,0,0.1,0C138.9,40.2,139.1,40.3,139.2,40.4z"/>
				<path id="Trazado_125124" class="st12" d="M139.6,39c0.1,0.2,0,0.4-0.1,0.5c-0.2,0.1-0.4,0-0.4-0.2c-0.1-0.1,0-0.3,0.1-0.4
					c0,0,0,0,0,0C139.3,38.8,139.5,38.8,139.6,39z"/>
				<path id="Trazado_125125" class="st12" d="M141.6,39c0.1,0.1,0.1,0.3,0,0.4c-0.1,0.1-0.3,0.1-0.4,0l0,0c-0.1-0.1-0.1-0.3,0-0.4
					S141.4,38.9,141.6,39C141.6,39,141.6,39,141.6,39z"/>
				<path id="Trazado_125126" class="st12" d="M135.2,38.2c0.1,0.2,0,0.3-0.1,0.4s-0.3,0-0.4-0.1c0,0,0,0,0,0
					c-0.1-0.2,0-0.3,0.2-0.4C134.9,38,135.1,38,135.2,38.2z"/>
				<path id="Trazado_125127" class="st12" d="M138.6,37.4c0.1,0.2,0,0.4-0.2,0.5c-0.2,0.1-0.4,0-0.5-0.2c-0.1-0.2,0-0.4,0.2-0.5
					c0,0,0,0,0,0C138.3,37.2,138.5,37.3,138.6,37.4C138.6,37.4,138.6,37.4,138.6,37.4z"/>
				<path id="Trazado_125128" class="st12" d="M141.2,37.7c0,0.2,0,0.3-0.1,0.4s-0.3-0.1-0.3-0.3s0-0.3,0.1-0.4
					S141.1,37.5,141.2,37.7z"/>
				<path id="Trazado_125129" class="st12" d="M136.4,36.5c0,0.2-0.2,0.4-0.4,0.5c-0.3,0.1-0.6,0.1-0.6-0.1s0.1-0.4,0.4-0.5
					S136.4,36.3,136.4,36.5z"/>
				<path id="Trazado_125130" class="st12" d="M132.6,37.7c0,0.2-0.1,0.3-0.2,0.4c-0.2,0-0.3-0.1-0.4-0.2c0,0,0,0,0,0
					c-0.1-0.2,0-0.4,0.2-0.4C132.4,37.4,132.6,37.6,132.6,37.7L132.6,37.7z"/>
				<path id="Trazado_125131" class="st12" d="M132.8,39.4c0.1,0.2,0,0.4-0.2,0.4c-0.2,0.1-0.4,0-0.4-0.2s0-0.4,0.2-0.4c0,0,0,0,0,0
					C132.6,39.2,132.7,39.3,132.8,39.4z"/>
				<path id="Trazado_125132" class="st12" d="M136,40.6c0.1,0.2,0.1,0.5-0.1,0.6s-0.5,0.1-0.6-0.1c-0.1-0.2-0.1-0.5,0.1-0.6
					c0,0,0.1-0.1,0.1-0.1C135.7,40.3,135.9,40.4,136,40.6z"/>
				<path id="Trazado_125133" class="st12" d="M137.6,39.1c0,0.2-0.2,0.4-0.5,0.5c-0.2,0.1-0.5,0.1-0.7-0.1
					c-0.1-0.1,0.2-0.4,0.5-0.5S137.6,39,137.6,39.1z"/>
				<path id="Trazado_125134" class="st12" d="M134.4,39.7c0.1,0.1,0,0.3-0.1,0.4c-0.2,0-0.3,0-0.4-0.2c-0.1-0.1,0-0.3,0.1-0.4
					C134.2,39.4,134.4,39.5,134.4,39.7z"/>
				<path id="Trazado_125135" class="st12" d="M139.2,36.6c0,0.2,0,0.4-0.2,0.4s-0.3-0.1-0.3-0.3c-0.1-0.2,0-0.3,0.2-0.4
					C139,36.3,139.1,36.3,139.2,36.6z"/>
				<ellipse id="Elipse_4235" class="st11" cx="177.9" cy="36.5" rx="6.3" ry="3.2"/>
				<path id="Trazado_125136" class="st12" d="M179.9,38.2c0.1,0.2,0,0.4-0.2,0.6c-0.2,0.1-0.4,0-0.6-0.2c-0.1-0.2,0-0.4,0.2-0.6
					c0,0,0,0,0.1,0C179.6,37.9,179.8,38,179.9,38.2C179.9,38.2,179.9,38.2,179.9,38.2z"/>
				<path id="Trazado_125137" class="st12" d="M180.3,36.7c0.1,0.2,0,0.4-0.1,0.5c-0.2,0.1-0.4,0-0.5-0.1c-0.1-0.2,0-0.4,0.1-0.5
					S180.2,36.5,180.3,36.7C180.3,36.7,180.3,36.7,180.3,36.7z"/>
				<path id="Trazado_125138" class="st12" d="M182.4,36.8c0.1,0.1,0.1,0.3,0,0.4c-0.1,0.1-0.3,0.1-0.4,0c-0.1-0.1-0.1-0.3,0-0.4
					C182.1,36.7,182.2,36.7,182.4,36.8C182.4,36.8,182.4,36.8,182.4,36.8z"/>
				<path id="Trazado_125139" class="st12" d="M175.9,35.9c0.1,0.2,0,0.4-0.2,0.4c0,0,0,0,0,0c-0.2,0.1-0.4,0-0.4-0.2
					c-0.1-0.2,0-0.4,0.2-0.4C175.7,35.7,175.9,35.8,175.9,35.9z"/>
				<path id="Trazado_125140" class="st12" d="M179.4,35.2c0.1,0.2,0,0.4-0.2,0.5c-0.2,0.1-0.4,0-0.5-0.2c-0.1-0.2,0-0.4,0.2-0.5
					c0,0,0,0,0,0C179.1,34.9,179.3,35,179.4,35.2z"/>
				<path id="Trazado_125141" class="st12" d="M181.9,35.4c0,0.2,0,0.4-0.1,0.4s-0.3-0.1-0.3-0.3s0-0.3,0.1-0.4
					S181.9,35.3,181.9,35.4z"/>
				<path id="Trazado_125142" class="st12" d="M177.2,34.3c0.1,0.2-0.1,0.4-0.4,0.5s-0.6,0.1-0.6-0.1s0.1-0.4,0.4-0.5
					S177.1,34.1,177.2,34.3z"/>
				<path id="Trazado_125143" class="st12" d="M173.4,35.5c0.1,0.2,0,0.3-0.2,0.4c0,0,0,0,0,0c-0.2,0-0.4-0.1-0.4-0.2
					s0.1-0.4,0.2-0.4l0,0C173.1,35.2,173.3,35.3,173.4,35.5C173.4,35.4,173.4,35.5,173.4,35.5L173.4,35.5z"/>
				<path id="Trazado_125144" class="st12" d="M173.6,37.2c0.1,0.2,0,0.3-0.1,0.4c-0.2,0.1-0.4,0.1-0.5-0.1s-0.1-0.4,0.1-0.5
					C173.2,36.9,173.4,37,173.6,37.2C173.5,37.1,173.6,37.1,173.6,37.2z"/>
				<path id="Trazado_125145" class="st12" d="M176.8,38.3c0.1,0.2,0,0.4-0.2,0.5c-0.2,0.1-0.4,0-0.5-0.2c-0.1-0.2,0-0.4,0.2-0.5
					c0,0,0,0,0.1,0C176.5,38,176.7,38.1,176.8,38.3C176.8,38.3,176.8,38.3,176.8,38.3z"/>
				<path id="Trazado_125146" class="st12" d="M178.4,36.9c0.1,0.2-0.2,0.4-0.5,0.5c-0.2,0.1-0.5,0.1-0.7-0.1
					c-0.1-0.1,0.2-0.4,0.5-0.5S178.3,36.7,178.4,36.9z"/>
				<path id="Trazado_125147" class="st12" d="M175.2,37.4c0.1,0.1,0,0.3-0.1,0.4c-0.2,0-0.3,0-0.4-0.2c-0.1-0.1,0-0.3,0.1-0.4
					C175,37.2,175.1,37.3,175.2,37.4z"/>
				<path id="Trazado_125148" class="st12" d="M179.9,34.3c0,0.2,0,0.4-0.2,0.4c-0.2,0-0.3-0.1-0.4-0.3c0-0.1,0.1-0.3,0.2-0.3
					C179.7,34,179.9,34.1,179.9,34.3z"/>
				<ellipse id="Elipse_4236" class="st11" cx="188.7" cy="29.6" rx="6.3" ry="3.2"/>
				<path id="Trazado_125149" class="st12" d="M190.7,31.2c0.1,0.2,0,0.4-0.2,0.6c-0.2,0.1-0.4,0-0.6-0.2c-0.1-0.2,0-0.4,0.2-0.6
					c0,0,0,0,0.1,0C190.4,31,190.6,31.1,190.7,31.2z"/>
				<path id="Trazado_125150" class="st12" d="M191.1,29.8c0.1,0.2,0,0.4-0.1,0.5c-0.2,0.1-0.4,0-0.4-0.2c-0.1-0.1,0-0.3,0.1-0.4
					c0,0,0,0,0,0C190.8,29.6,191,29.6,191.1,29.8L191.1,29.8z"/>
				<path id="Trazado_125151" class="st12" d="M193.2,29.9c0.1,0.1,0.1,0.3,0,0.4c0,0,0,0,0,0c-0.1,0.1-0.3,0.1-0.4,0c0,0,0,0,0,0
					c-0.1-0.1-0.1-0.3,0-0.4S193,29.8,193.2,29.9z"/>
				<path id="Trazado_125152" class="st12" d="M186.7,29c0.1,0.2,0,0.3-0.2,0.4c-0.2,0.1-0.3,0-0.4-0.2l0,0c-0.1-0.2,0-0.4,0.2-0.4
					c0,0,0,0,0,0C186.5,28.7,186.7,28.8,186.7,29C186.7,29,186.7,29,186.7,29z"/>
				<path id="Trazado_125153" class="st12" d="M190.2,28.2c0.1,0.2,0,0.4-0.2,0.5c-0.2,0.1-0.4,0-0.5-0.2c-0.1-0.2,0-0.4,0.2-0.5
					c0,0,0,0,0,0C189.9,28,190.1,28.1,190.2,28.2z"/>
				<path id="Trazado_125154" class="st12" d="M192.7,28.5c0,0.2,0,0.4-0.1,0.4s-0.3-0.1-0.3-0.3s0-0.3,0.1-0.4
					S192.7,28.3,192.7,28.5z"/>
				<path id="Trazado_125155" class="st12" d="M188,27.3c0.1,0.2-0.1,0.4-0.4,0.5s-0.6,0.1-0.6-0.1s0.1-0.4,0.4-0.5
					C187.5,27.1,187.8,27.1,188,27.3z"/>
				<path id="Trazado_125156" class="st12" d="M184.2,28.6c0,0.2-0.1,0.3-0.2,0.4c-0.2,0-0.3-0.1-0.4-0.2c0,0,0,0,0,0
					c-0.1-0.2,0-0.3,0.2-0.4c0,0,0,0,0,0C183.9,28.3,184.1,28.4,184.2,28.6C184.2,28.6,184.2,28.6,184.2,28.6L184.2,28.6z"/>
				<path id="Trazado_125157" class="st12" d="M184.4,30.2c0.1,0.2,0,0.4-0.1,0.4c-0.2,0.1-0.3,0-0.4-0.2c0,0,0,0,0,0
					c-0.1-0.1,0-0.3,0.1-0.4C184.1,30,184.3,30.1,184.4,30.2C184.3,30.2,184.4,30.2,184.4,30.2L184.4,30.2z"/>
				<path id="Trazado_125158" class="st12" d="M187.6,31.4c0,0.2-0.1,0.4-0.3,0.5c-0.2,0.1-0.4,0-0.4-0.2c-0.1-0.2,0-0.4,0.2-0.4
					C187.3,31.1,187.5,31.2,187.6,31.4z"/>
				<path id="Trazado_125159" class="st12" d="M189.2,30c0,0.2-0.2,0.4-0.5,0.5c-0.2,0.1-0.5,0.1-0.7-0.1c-0.1-0.1,0.2-0.4,0.5-0.5
					S189.1,29.8,189.2,30z"/>
				<path id="Trazado_125160" class="st12" d="M186,30.5c0.1,0.1,0,0.3-0.1,0.4c-0.2,0-0.3,0-0.4-0.2c-0.1-0.1,0-0.3,0.1-0.4
					C185.8,30.2,185.9,30.3,186,30.5z"/>
				<path id="Trazado_125161" class="st12" d="M190.7,27.3c0,0.2,0,0.4-0.2,0.4s-0.3-0.1-0.3-0.3c-0.1-0.2,0-0.3,0.2-0.4
					C190.5,27.1,190.7,27.2,190.7,27.3z"/>
				<ellipse id="Elipse_4237" class="st11" cx="162.7" cy="33.4" rx="6.3" ry="3.2"/>
				<path id="Trazado_125162" class="st12" d="M164.7,35c0,0.2-0.1,0.4-0.3,0.5c-0.2,0.1-0.4,0.1-0.5-0.1c-0.1-0.2-0.1-0.4,0.1-0.5
					c0,0,0.1-0.1,0.2-0.1C164.4,34.8,164.6,34.9,164.7,35C164.7,35,164.7,35,164.7,35L164.7,35z"/>
				<path id="Trazado_125163" class="st12" d="M165.1,33.6c0.1,0.2,0,0.4-0.1,0.4c0,0,0,0,0,0c-0.2,0.1-0.4,0-0.5-0.2
					c-0.1-0.2,0-0.4,0.2-0.5l0,0C164.8,33.3,165,33.4,165.1,33.6C165.1,33.6,165.1,33.6,165.1,33.6L165.1,33.6z"/>
				<path id="Trazado_125164" class="st12" d="M167.2,33.6c0.1,0.1,0.1,0.3,0,0.4c0,0,0,0,0,0c-0.1,0.1-0.3,0.1-0.4-0.1
					c-0.1-0.1-0.1-0.3,0-0.4c0,0,0,0,0,0C166.9,33.5,167.1,33.5,167.2,33.6C167.2,33.6,167.2,33.6,167.2,33.6z"/>
				<path id="Trazado_125165" class="st12" d="M160.8,32.8c0.1,0.2,0,0.4-0.2,0.4c0,0,0,0,0,0c-0.2,0.1-0.4,0-0.4-0.2
					c-0.1-0.2,0-0.4,0.2-0.4C160.5,32.5,160.7,32.6,160.8,32.8C160.8,32.8,160.8,32.8,160.8,32.8z"/>
				<path id="Trazado_125166" class="st12" d="M164.1,32c0.1,0.2,0,0.4-0.2,0.4c0,0,0,0,0,0c-0.2,0.1-0.4,0-0.4-0.2
					c-0.1-0.2,0-0.4,0.2-0.4c0,0,0,0,0,0C163.9,31.8,164.1,31.9,164.1,32C164.1,32,164.1,32,164.1,32L164.1,32z"/>
				<path id="Trazado_125167" class="st12" d="M166.7,32.3c0,0.2,0,0.3-0.1,0.4s-0.3-0.1-0.3-0.3s0-0.3,0.1-0.4
					S166.6,32.1,166.7,32.3z"/>
				<path id="Trazado_125168" class="st12" d="M162,31.2c0.1,0.2-0.1,0.4-0.4,0.5s-0.6,0.1-0.6-0.1s0.1-0.4,0.4-0.5
					S161.9,31,162,31.2z"/>
				<path id="Trazado_125169" class="st12" d="M158.2,32.3c0.1,0.2,0,0.3-0.2,0.4c0,0,0,0,0,0c-0.2,0-0.4-0.1-0.4-0.3
					c0-0.2,0.1-0.4,0.2-0.4C158,32,158.2,32.1,158.2,32.3L158.2,32.3z"/>
				<path id="Trazado_125170" class="st12" d="M158.3,34c0.1,0.2,0,0.3-0.2,0.4c-0.1,0.1-0.3,0-0.4-0.1c-0.1-0.2,0-0.3,0.1-0.4
					C158.1,33.8,158.3,33.8,158.3,34z"/>
				<path id="Trazado_125171" class="st12" d="M161.6,35.2c0.1,0.2-0.1,0.4-0.2,0.4c0,0,0,0,0,0c-0.2,0.1-0.4,0-0.5-0.2
					c-0.1-0.2,0.1-0.4,0.2-0.5C161.2,34.9,161.5,35,161.6,35.2C161.5,35.2,161.6,35.2,161.6,35.2z"/>
				<path id="Trazado_125172" class="st12" d="M163.2,33.8c0,0.2-0.2,0.4-0.5,0.5c-0.3,0.1-0.6,0-0.7-0.1s0.2-0.4,0.5-0.5
					S163.1,33.6,163.2,33.8z"/>
				<path id="Trazado_125173" class="st12" d="M160,34.3c0.1,0.1,0.1,0.3-0.1,0.4c-0.2,0-0.3-0.1-0.4-0.2c-0.1-0.1,0-0.3,0.1-0.4
					C159.8,34,159.9,34.1,160,34.3L160,34.3z"/>
				<path id="Trazado_125174" class="st12" d="M164.7,31.2c0.1,0.2,0,0.3-0.2,0.4c-0.2,0-0.3-0.1-0.3-0.3c-0.1-0.2,0-0.4,0.2-0.4
					C164.6,30.9,164.7,31,164.7,31.2z"/>
				<path id="Trazado_125175" class="st6" d="M162.1,43.6l80.4-8.1c2.7,1.9,4.1,5,3.9,8.3c0,15.2-38.1,27.6-84.3,27.4
					S77.8,58.6,77.9,43.4L162.1,43.6z"/>
				<g id="Grupo_55365" transform="translate(91.25 40.493)" class="st8">
					<path id="Trazado_125176" class="st9" d="M0.2,6.8c-0.9,2.1,0.7,4.5,2.7,5.4c2.1,0.8,4.4,1.1,6.6,0.9c2.2-0.2,4.5,0.3,6.4,1.5
						c2.3,1.6,3.3,4.9,6,5.8c3.5,1.1,7-2.5,10.6-1.7c2.4,0.6,3.9,3,6.2,4.1c4.3,1.9,9-1.8,13.8-1.5c4.7,0.3,8.5,4.7,13.2,4.5
						c3.2-0.1,6.1-2.4,9.4-2.3s6.2,2.6,9.5,2.6c4.9,0,8.8-5.5,13.6-4.7c3.5,0.6,6.2,4.3,9.6,3.7c3.1-0.5,4.7-4.3,7.6-5.2
						c2.4-0.8,5.2,0.5,7.6-0.5c3.9-1.5,4.6-7.9,8.7-8.4c2.5-0.3,5.2,1.8,7.3,0.4c1.3-1,1.4-2.9,1-4.5c-0.6-1.5-0.9-3.1-0.9-4.8
						c0.2-1.6,6.4-2.3,1.3-2.1L70.7,6.9L0.2,6.8z"/>
				</g>
				<path id="Trazado_125177" class="st4" d="M162,47.3c0.3-0.1,0.6-0.1,0.9-0.2l2.6-0.3l9.3-1l30.9-3.1l28.5-2.7h0l0.1,0.1
					c1,1.8,2.9,3,4.9,3.1c1.6,0.1,3.1-0.5,4.3-1.5c0.8-0.7,1.3-1.5,1.7-2.4c0.2-0.6,0.3-1,0.3-1c0,0.1,0,0.2,0,0.3
					c0,0.3-0.1,0.5-0.2,0.8c-0.3,1-0.9,1.9-1.6,2.6c-1.2,1.2-2.8,1.8-4.5,1.7c-2.2-0.1-4.3-1.3-5.4-3.3l0.2,0.1l-28.5,2.9l-30.9,2.9
					l-9.4,0.8l-2.6,0.2C162.5,47.3,162.2,47.3,162,47.3L162,47.3z"/>
				<path id="Trazado_125178" class="st4" d="M221.9,56.3c-0.1,0,0.5-1,2-1.8c0.9-0.4,1.8-0.8,2.7-1c1.1-0.3,2.2-0.6,3.2-1.1
					c2.2-1,2.9-3.4,4-4.6c0.6-0.7,1.4-1.2,2.3-1.4c-0.7,0.5-1.4,1-1.9,1.7c-0.5,0.6-0.9,1.5-1.5,2.4c-0.6,1.1-1.5,1.9-2.6,2.5
					c-1.1,0.5-2.2,0.9-3.4,1.1c-0.9,0.2-1.8,0.5-2.7,0.8C223.3,55.3,222.6,55.7,221.9,56.3z"/>
				<path id="Trazado_125179" class="st7" d="M115.8,54.4c0.8,0.7,1.7,1.2,2.7,1.5c3.8,1.3,7.8,1.8,11.8,1.7
					c3.1-0.3,6.3-0.4,9.4-0.3c2.4,0.3,4.8,0.8,7.1,1.5c3.5,0.9,7.1,1.5,10.6,2.2c3.3,0.8,6.7,1,10,0.6c2.2-0.4,4.4-1.3,6.6-1.3
					c1.8,0.1,3.6,0.4,5.3,0.7c2.6,0.1,5.2-0.1,7.7-0.4c2.6-0.1,5.8-0.1,7.8,1.6l0,0c1.5,1.4,4,0.4,5.5-1.1s2.4-3.4,4.2-4.4
					c2.8-1.6,6.9-0.5,9.2-2.9s1-6.4-1.8-8.1s-6.2-1.4-9.3-0.7c-5,1.1-10.1,3.2-15.1,2.4c-3-0.5-6.1-2-9-1.1s-5.2,4.1-8.4,4.5
					c-2.6,0.3-4.9-1.4-7.5-1.8c-3-0.6-6,0.6-9,0.9c-4.8,0.4-9.5-1.4-14.4-2c-7.3-0.9-14.6,0.8-21.7,2.6c-0.9,0.1-1.7,0.6-2.3,1.3
					C115,52.5,115.1,53.6,115.8,54.4L115.8,54.4z"/>
				<g id="Grupo_55366" transform="translate(115.19 44.433)" class="st10">
					<path id="Trazado_125180" class="st9" d="M0.6,9.9c0.8,0.7,1.7,1.2,2.7,1.5c3.8,1.3,7.8,1.8,11.8,1.7c3.1-0.3,6.3-0.4,9.4-0.3
						c2.4,0.3,4.8,0.8,7.1,1.5c3.5,0.9,7.1,1.5,10.6,2.2c3.3,0.8,6.7,1,10,0.6c2.2-0.4,4.4-1.3,6.6-1.3c1.8,0.1,3.6,0.4,5.3,0.7
						c2.6,0.1,5.2-0.1,7.7-0.4c2.6-0.1,5.8-0.1,7.8,1.6l0,0c1.5,1.4,4,0.4,5.5-1.1s2.4-3.4,4.2-4.4c2.8-1.6,6.9-0.5,9.2-2.9
						s1-6.4-1.8-8.1s-6.2-1.4-9.3-0.7c-5,1.1-10.1,3.2-15.1,2.4c-3-0.5-6.1-2-9-1.1s-5.2,4.1-8.4,4.5c-2.6,0.3-4.9-1.4-7.5-1.8
						c-3-0.6-6,0.6-9,0.9c-4.8,0.4-9.5-1.4-14.4-2C17,2.4,9.7,4.1,2.6,5.9C1.7,6,0.9,6.5,0.3,7.2C-0.2,8.1-0.1,9.2,0.6,9.9L0.6,9.9z
						"/>
				</g>
				<path id="Trazado_125181" class="st4" d="M210,69.8c-0.7-0.2-1.4-0.5-2.1-0.8l-5.5-2.5c-4.7-2.1-11.1-5.2-18.2-8.4
					c-9.6-4.5-18-8.5-22.2-10.6h-0.1v-0.1c0-1.1,0.1-2,0.1-2.7c0-0.3,0-0.6,0.1-1c0.1,0.3,0.1,0.6,0.1,1c0,0.7,0,1.6,0.1,2.7
					l-0.1-0.1c4.3,1.9,12.7,5.8,22.4,10.3c7.1,3.3,13.5,6.4,18.1,8.6l5.5,2.7C208.7,69.1,209.3,69.4,210,69.8L210,69.8z"/>
				<path id="Trazado_125182" class="st4" d="M131.7,71.8c-0.1-0.1,6.4-5.8,14.7-12.6s15-12.3,15.1-12.1s-6.4,5.8-14.7,12.6
					S131.8,71.9,131.7,71.8z"/>
				<path id="Trazado_125183" class="st4" d="M174.3,68c4.5-2.5,9.8-3.1,14.7-1.6c-2.5-0.2-5-0.2-7.5,0
					C179.1,66.8,176.7,67.3,174.3,68L174.3,68z"/>
				<path id="Trazado_125184" class="st4" d="M152.7,66.4l6.4,0.9c-1,0.4-2.2,0.5-3.3,0.2C154.7,67.4,153.6,67.1,152.7,66.4z"/>
				<path id="Trazado_125185" class="st4" d="M108.8,60c2.1,2.3,5.4,3.3,8.5,2.6c-0.4,0.3-0.8,0.6-1.3,0.6c-1.2,0.3-2.4,0.2-3.5-0.1
					c-1.1-0.3-2.2-1-3-1.8C108.9,60.5,108.7,60,108.8,60z"/>
				<path id="Trazado_125186" class="st4" d="M79.4,47.9c0.2,0.4,0.3,0.7,0.5,1.1c0.6,1,1.4,1.8,2.4,2.4c1.5,1,3.4,1.2,5.2,0.7
					c2.2-0.7,3.9-2.7,4.3-5v-0.2H92c7.3,0.1,16.4,0.2,26.4,0.3c12.1,0.1,23.1,0,30.9,0h12c0.3,0,0.6,0,0.9,0
					c-0.3,0.1-0.6,0.1-0.9,0.1l-2.6,0.1l-9.4,0.3c-7.9,0.2-18.9,0.3-31,0.2c-10,0-19.2-0.2-26.4-0.4l0.3-0.2
					c-0.5,2.5-2.3,4.5-4.7,5.3c-1.8,0.6-3.7,0.3-5.3-0.7c-1-0.6-1.8-1.5-2.3-2.6C79.6,48.8,79.5,48.4,79.4,47.9L79.4,47.9z"/>
				<path id="Trazado_125187" class="st11" d="M206.1,48.4c0-2.4,3.1-4.3,7-4.3s7,2,7,4.4s-3.2,4.3-7,4.3S206.1,50.8,206.1,48.4z"/>
				<path id="Trazado_125188" class="st12" d="M210.8,46.1c-0.1-0.2,0-0.4,0.3-0.5c0.2-0.1,0.4-0.1,0.6,0.1c0.1,0.2,0,0.4-0.3,0.5
					S210.9,46.3,210.8,46.1z"/>
				<path id="Trazado_125189" class="st12" d="M210.4,48.1c-0.1-0.2-0.1-0.4,0.1-0.5s0.4-0.1,0.5,0.1c0.1,0.2,0.1,0.4-0.1,0.5
					c0,0,0,0,0,0C210.7,48.3,210.5,48.3,210.4,48.1C210.4,48.1,210.4,48.1,210.4,48.1z"/>
				<path id="Trazado_125190" class="st12" d="M208.1,48c-0.1-0.1-0.2-0.4,0-0.5s0.4-0.2,0.5,0c0,0,0,0,0,0c0.1,0.1,0.1,0.4,0,0.5
					C208.5,48.1,208.2,48.1,208.1,48z"/>
				<path id="Trazado_125191" class="st12" d="M215.3,49.2c-0.1-0.2,0-0.4,0.1-0.5s0.4,0,0.5,0.1c0.1,0.2,0,0.4-0.1,0.5c0,0,0,0,0,0
					C215.6,49.4,215.4,49.4,215.3,49.2z"/>
				<path id="Trazado_125192" class="st12" d="M211.5,50.2c-0.1-0.2,0-0.4,0.2-0.5c0,0,0,0,0,0c0.2-0.1,0.4,0,0.5,0.1c0,0,0,0,0,0
					c0.1,0.2-0.1,0.4-0.3,0.5C211.7,50.4,211.6,50.4,211.5,50.2L211.5,50.2z"/>
				<path id="Trazado_125193" class="st12" d="M208.6,49.9c-0.1-0.1,0-0.3,0.1-0.4c0.1,0,0.3,0,0.4,0.2c0.1,0.1,0,0.3-0.1,0.4
					C208.8,50.1,208.7,50,208.6,49.9z"/>
				<path id="Trazado_125194" class="st12" d="M213.9,51.5c-0.1-0.2,0.1-0.4,0.4-0.6s0.7-0.1,0.7,0s-0.1,0.4-0.4,0.6
					S214,51.6,213.9,51.5z"/>
				<path id="Trazado_125195" class="st12" d="M218.2,49.9c0-0.2,0.1-0.4,0.2-0.4c0.2-0.1,0.4,0,0.4,0.2s0,0.4-0.2,0.4c0,0,0,0,0,0
					C218.4,50.1,218.2,50,218.2,49.9z"/>
				<path id="Trazado_125196" class="st12" d="M218,47.5c-0.1-0.2,0-0.4,0.1-0.5c0.2-0.1,0.4,0,0.5,0.1c0,0,0,0,0,0
					c0.1,0.2,0,0.4-0.2,0.5C218.2,47.7,218,47.7,218,47.5L218,47.5z"/>
				<path id="Trazado_125197" class="st12" d="M214.4,45.9c0-0.3,0.1-0.5,0.4-0.5c0.2,0,0.3,0,0.4,0.2c0.1,0.2-0.1,0.4-0.3,0.5
					C214.7,46.1,214.4,46.1,214.4,45.9z"/>
				<path id="Trazado_125198" class="st12" d="M212.5,47.9c-0.1-0.2,0.2-0.4,0.5-0.6s0.7-0.1,0.8,0s-0.2,0.4-0.5,0.6
					S212.6,48.1,212.5,47.9z"/>
				<path id="Trazado_125199" class="st12" d="M216.2,47.2c-0.1-0.2-0.1-0.3,0.1-0.5c0.2-0.1,0.3,0,0.4,0.1c0.1,0.1,0,0.3-0.1,0.4
					C216.4,47.4,216.2,47.3,216.2,47.2L216.2,47.2z"/>
				<path id="Trazado_125200" class="st12" d="M210.8,51.4c-0.1-0.2,0-0.3,0.2-0.4c0,0,0,0,0,0c0.2,0,0.3,0.1,0.4,0.2
					c0.1,0.1,0,0.3-0.2,0.4S210.9,51.6,210.8,51.4C210.8,51.5,210.8,51.5,210.8,51.4z"/>
				<path id="Trazado_125201" class="st11" d="M108.6,53c0-2.4,3.1-4.3,7-4.3s7,2,7,4.4s-3.1,4.3-7,4.3S108.6,55.4,108.6,53z"/>
				<path id="Trazado_125202" class="st12" d="M113.4,50.7c-0.1-0.2,0-0.4,0.3-0.5c0.2-0.1,0.4-0.1,0.6,0.1c0.1,0.2,0,0.4-0.3,0.5
					S113.5,50.9,113.4,50.7z"/>
				<path id="Trazado_125203" class="st12" d="M112.9,52.7c-0.1-0.2-0.1-0.4,0.1-0.5c0.2-0.1,0.4-0.1,0.5,0.1
					c0.1,0.2,0.1,0.4-0.1,0.5c0,0,0,0,0,0C113.3,52.9,113.1,52.9,112.9,52.7C112.9,52.7,112.9,52.7,112.9,52.7z"/>
				<path id="Trazado_125204" class="st12" d="M110.6,52.6c-0.1-0.1-0.1-0.4,0-0.5c0.1-0.1,0.4-0.1,0.5,0c0.1,0.1,0.1,0.3,0,0.5
					c0,0,0,0,0,0C111,52.7,110.8,52.7,110.6,52.6L110.6,52.6z"/>
				<path id="Trazado_125205" class="st12" d="M117.8,53.8c-0.1-0.2,0-0.4,0.2-0.5c0.2-0.1,0.4,0,0.5,0.2c0.1,0.2,0,0.4-0.2,0.5
					c0,0,0,0,0,0C118.1,54,117.9,54,117.8,53.8z"/>
				<path id="Trazado_125206" class="st12" d="M114,54.8c-0.1-0.2,0-0.4,0.2-0.5c0,0,0,0,0,0c0.2-0.1,0.4,0,0.5,0.1c0,0,0,0,0,0
					c0.1,0.2,0,0.4-0.2,0.5C114.3,55.1,114.1,55,114,54.8z"/>
				<path id="Trazado_125207" class="st12" d="M111.2,54.5c-0.1-0.1,0-0.3,0.1-0.4c0.1,0,0.3,0,0.4,0.2c0.1,0.1,0,0.3-0.1,0.4
					C111.4,54.7,111.2,54.6,111.2,54.5z"/>
				<path id="Trazado_125208" class="st12" d="M116.4,56.1c-0.1-0.2,0.1-0.4,0.4-0.6s0.7-0.2,0.7,0s-0.1,0.4-0.4,0.6
					S116.5,56.2,116.4,56.1z"/>
				<path id="Trazado_125209" class="st12" d="M120.7,54.5c0-0.2,0.1-0.4,0.2-0.4c0.2-0.1,0.4,0,0.4,0.2c0.1,0.2,0,0.4-0.2,0.4
					c0,0,0,0,0,0C121,54.7,120.8,54.6,120.7,54.5L120.7,54.5z"/>
				<path id="Trazado_125210" class="st12" d="M120.5,52.1c-0.1-0.2,0-0.4,0.1-0.5c0.2-0.1,0.4,0,0.5,0.1c0,0,0,0,0,0
					c0.1,0.2,0,0.4-0.2,0.5C120.8,52.3,120.6,52.3,120.5,52.1L120.5,52.1z"/>
				<path id="Trazado_125211" class="st12" d="M117,50.5c-0.1-0.2,0.1-0.4,0.3-0.5c0.2-0.1,0.5-0.1,0.6,0.1c0,0.3-0.1,0.5-0.4,0.5
					C117.2,50.7,117.1,50.6,117,50.5L117,50.5z"/>
				<path id="Trazado_125212" class="st12" d="M115.1,52.5c0-0.2,0.2-0.4,0.5-0.6s0.7-0.1,0.8,0s-0.2,0.4-0.5,0.6
					S115.2,52.7,115.1,52.5z"/>
				<path id="Trazado_125213" class="st12" d="M118.7,51.8c-0.1-0.1-0.1-0.3,0.1-0.4c0.1-0.1,0.3-0.1,0.4,0.1c0,0,0,0,0,0.1
					c0.1,0.2,0,0.3-0.2,0.4C118.9,51.9,118.8,51.9,118.7,51.8z"/>
				<path id="Trazado_125214" class="st12" d="M113.4,56c-0.1-0.1,0-0.3,0.1-0.4c0.1-0.1,0.3,0,0.4,0.1c0,0,0,0.1,0,0.1
					c0.1,0.1,0,0.3-0.1,0.4s-0.3,0-0.4-0.1C113.4,56.1,113.4,56.1,113.4,56z"/>
				<path id="Trazado_125215" class="st11" d="M190.4,55.9c0-1.8,2.8-3.2,6.3-3.1s6.3,1.4,6.2,3.2s-2.8,3.2-6.3,3.1
					S190.4,57.6,190.4,55.9z"/>
				<path id="Trazado_125216" class="st12" d="M194.6,54.2c0-0.2,0.1-0.4,0.3-0.5c0.2-0.1,0.4,0,0.5,0.2c0,0.2-0.1,0.4-0.4,0.5
					C194.8,54.4,194.7,54.4,194.6,54.2L194.6,54.2z"/>
				<path id="Trazado_125217" class="st12" d="M194.3,55.7c-0.1-0.2,0-0.4,0.1-0.4c0.2-0.1,0.4,0,0.4,0.1c0,0,0,0,0,0
					c0.1,0.2,0,0.4-0.1,0.5C194.5,55.9,194.3,55.8,194.3,55.7z"/>
				<path id="Trazado_125218" class="st12" d="M192.1,55.7c-0.1-0.1-0.1-0.3,0-0.4c0,0,0,0,0,0c0.1-0.1,0.3-0.1,0.4,0c0,0,0,0,0,0
					c0.1,0.1,0.1,0.3,0,0.4S192.3,55.8,192.1,55.7z"/>
				<path id="Trazado_125219" class="st12" d="M198.6,56.4c0-0.2,0-0.3,0.2-0.4c0.2,0,0.3,0,0.4,0.2c0,0.2,0,0.3-0.2,0.4
					C198.8,56.7,198.6,56.6,198.6,56.4C198.6,56.5,198.6,56.5,198.6,56.4z"/>
				<path id="Trazado_125220" class="st12" d="M195.2,57.2c-0.1-0.2,0-0.4,0.2-0.5c0.2-0.1,0.4,0,0.4,0.2c0.1,0.2,0,0.4-0.2,0.5
					C195.4,57.5,195.2,57.4,195.2,57.2L195.2,57.2z"/>
				<path id="Trazado_125221" class="st12" d="M192.6,56.9c0-0.2,0-0.3,0.1-0.4s0.3,0.1,0.3,0.3s0,0.3-0.1,0.4
					S192.7,57.1,192.6,56.9z"/>
				<path id="Trazado_125222" class="st12" d="M197.3,58.1c-0.1-0.2,0.1-0.4,0.4-0.5s0.6-0.1,0.6,0.1s-0.1,0.4-0.4,0.5
					S197.4,58.2,197.3,58.1z"/>
				<path id="Trazado_125223" class="st12" d="M201.2,56.9c-0.1-0.2,0-0.3,0.2-0.4c0,0,0,0,0,0c0.2,0,0.4,0.1,0.4,0.2
					c0,0.2-0.1,0.4-0.2,0.4C201.4,57.2,201.2,57.1,201.2,56.9z"/>
				<path id="Trazado_125224" class="st12" d="M201,55.2c-0.1-0.2,0-0.4,0.1-0.4c0.2-0.1,0.3,0,0.4,0.2c0,0,0,0,0,0
					c0.1,0.1,0,0.3-0.1,0.4C201.2,55.5,201.1,55.4,201,55.2C201,55.3,201,55.2,201,55.2L201,55.2z"/>
				<path id="Trazado_125225" class="st12" d="M197.8,54.1c-0.1-0.2,0.1-0.4,0.2-0.5c0.2-0.1,0.4,0,0.5,0.2c0,0,0,0,0,0
					c0,0.2-0.1,0.4-0.3,0.5C198,54.3,197.9,54.2,197.8,54.1L197.8,54.1z"/>
				<path id="Trazado_125226" class="st12" d="M196.1,55.5c0-0.2,0.2-0.4,0.5-0.5c0.2-0.1,0.5-0.1,0.7,0.1c0.1,0.1-0.2,0.4-0.5,0.5
					S196.2,55.7,196.1,55.5z"/>
				<path id="Trazado_125227" class="st12" d="M199.3,55c-0.1-0.1,0-0.3,0.1-0.4c0.2,0,0.3,0.1,0.4,0.2c0.1,0.1,0,0.3-0.1,0.4
					C199.6,55.2,199.4,55.1,199.3,55z"/>
				<path id="Trazado_125228" class="st12" d="M194.6,58.1c-0.1-0.2,0-0.3,0.2-0.4c0.2,0,0.3,0.1,0.3,0.3c0.1,0.2,0,0.3-0.2,0.4
					C194.8,58.4,194.6,58.2,194.6,58.1z"/>
				<path id="Trazado_125229" class="st11" d="M168.2,60c0-1.8,2.8-3.2,6.3-3.1s6.3,1.4,6.2,3.2s-2.8,3.2-6.3,3.1
					S168.2,61.7,168.2,60z"/>
				<path id="Trazado_125230" class="st12" d="M172.4,58.3c-0.1-0.2,0.1-0.4,0.3-0.5c0.2-0.1,0.4,0,0.5,0.2c0,0.2-0.1,0.4-0.3,0.5
					C172.7,58.5,172.4,58.5,172.4,58.3z"/>
				<path id="Trazado_125231" class="st12" d="M172,59.7c-0.1-0.2,0-0.4,0.1-0.4c0.2-0.1,0.4,0,0.4,0.1c0,0,0,0,0,0
					c0.1,0.1,0,0.3-0.1,0.4c0,0,0,0,0,0C172.3,60,172.1,59.9,172,59.7C172,59.7,172,59.7,172,59.7z"/>
				<path id="Trazado_125232" class="st12" d="M170,59.7c-0.1-0.1-0.1-0.3,0-0.5c0.1-0.1,0.3-0.1,0.4,0.1c0.1,0.1,0.1,0.3,0,0.4
					C170.3,59.8,170.1,59.8,170,59.7C170,59.7,170,59.7,170,59.7L170,59.7z"/>
				<path id="Trazado_125233" class="st12" d="M176.4,60.5c-0.1-0.2,0-0.3,0.1-0.4c0.2-0.1,0.3,0,0.4,0.1c0,0,0,0,0,0
					c0.1,0.2,0,0.3-0.1,0.4c0,0,0,0,0,0C176.6,60.8,176.4,60.7,176.4,60.5z"/>
				<path id="Trazado_125234" class="st12" d="M173,61.3c-0.1-0.2,0-0.4,0.2-0.5c0.2-0.1,0.4,0,0.5,0.2c0.1,0.2,0,0.4-0.2,0.5
					c0,0,0,0,0,0C173.3,61.5,173.1,61.5,173,61.3C173,61.3,173,61.3,173,61.3z"/>
				<path id="Trazado_125235" class="st12" d="M170.4,61c0-0.2,0-0.3,0.1-0.4s0.3,0.1,0.3,0.3s0,0.3-0.1,0.4S170.5,61.2,170.4,61z"
					/>
				<path id="Trazado_125236" class="st12" d="M175.1,62.2c0-0.2,0.2-0.4,0.4-0.5c0.3-0.1,0.6-0.1,0.6,0.1s-0.1,0.4-0.4,0.5
					S175.2,62.3,175.1,62.2z"/>
				<path id="Trazado_125237" class="st12" d="M179,61c-0.1-0.2,0-0.3,0.2-0.4c0,0,0,0,0,0c0.2,0,0.3,0.1,0.4,0.2c0,0,0,0,0,0
					c0,0.2-0.1,0.4-0.2,0.4C179.2,61.3,179,61.2,179,61z"/>
				<path id="Trazado_125238" class="st12" d="M178.8,59.3c-0.1-0.2,0-0.4,0.1-0.4c0.2-0.1,0.3,0,0.4,0.2c0.1,0.2,0,0.4-0.1,0.4
					C179.1,59.6,178.9,59.5,178.8,59.3z"/>
				<path id="Trazado_125239" class="st12" d="M175.6,58.1c0-0.2,0.1-0.4,0.3-0.5c0.2,0,0.3,0,0.4,0.2c0.1,0.2-0.1,0.4-0.2,0.5
					C175.9,58.4,175.7,58.3,175.6,58.1C175.6,58.2,175.6,58.2,175.6,58.1z"/>
				<path id="Trazado_125240" class="st12" d="M173.9,59.6c0-0.2,0.2-0.4,0.5-0.5c0.2-0.1,0.5-0.1,0.7,0.1c0.1,0.1-0.2,0.4-0.5,0.5
					S174,59.8,173.9,59.6z"/>
				<path id="Trazado_125241" class="st12" d="M177.1,59.1c-0.1-0.1-0.1-0.3,0-0.4c0.1-0.1,0.3-0.1,0.4,0c0,0,0,0.1,0.1,0.1
					c0.1,0.1,0,0.3-0.1,0.4C177.4,59.3,177.2,59.2,177.1,59.1z"/>
				<path id="Trazado_125242" class="st12" d="M172.4,62.2c-0.1-0.2,0-0.3,0.2-0.4c0.2,0,0.3,0.1,0.3,0.3c0.1,0.1,0,0.3-0.1,0.4
					c-0.1,0.1-0.3,0-0.4-0.1C172.4,62.3,172.4,62.2,172.4,62.2L172.4,62.2z"/>
				<path id="Trazado_125243" class="st11" d="M178.8,49.6c0-1.8,2.8-3.2,6.3-3.1s6.3,1.4,6.3,3.2s-2.8,3.2-6.3,3.1
					S178.8,51.4,178.8,49.6z"/>
				<path id="Trazado_125244" class="st12" d="M183.1,47.9c-0.1-0.2,0.1-0.4,0.2-0.4c0,0,0,0,0,0c0.2,0,0.4,0.1,0.4,0.3
					c0,0.2-0.1,0.4-0.3,0.4C183.3,48.2,183.1,48.1,183.1,47.9z"/>
				<path id="Trazado_125245" class="st12" d="M182.7,49.4c-0.1-0.2,0-0.4,0.1-0.4c0,0,0,0,0,0c0.2-0.1,0.3,0,0.4,0.1c0,0,0,0,0,0
					c0.1,0.2,0,0.4-0.1,0.4c0,0,0,0,0,0C182.9,49.6,182.7,49.6,182.7,49.4L182.7,49.4z"/>
				<path id="Trazado_125246" class="st12" d="M180.6,49.3c-0.1-0.1-0.1-0.3,0-0.4c0.1-0.1,0.3-0.1,0.4,0c0.1,0.1,0.1,0.3,0,0.4
					C180.9,49.5,180.8,49.5,180.6,49.3z"/>
				<path id="Trazado_125247" class="st12" d="M187.1,50.2c-0.1-0.2,0-0.3,0.2-0.4c0.2,0,0.3,0,0.4,0.2c0.1,0.2,0,0.4-0.2,0.4
					c0,0,0,0,0,0C187.3,50.5,187.1,50.4,187.1,50.2C187.1,50.2,187.1,50.2,187.1,50.2z"/>
				<path id="Trazado_125248" class="st12" d="M183.6,50.9c-0.1-0.2,0-0.4,0.2-0.5c0.2-0.1,0.4,0,0.5,0.2c0.1,0.2,0,0.4-0.2,0.5
					c0,0,0,0,0,0C183.9,51.2,183.7,51.1,183.6,50.9z"/>
				<path id="Trazado_125249" class="st12" d="M181.1,50.7c0-0.2,0-0.3,0.1-0.4s0.3,0.1,0.3,0.3s0,0.3-0.1,0.4
					S181.1,50.9,181.1,50.7z"/>
				<path id="Trazado_125250" class="st12" d="M185.8,51.9c-0.1-0.2,0.1-0.4,0.4-0.5c0.2-0.1,0.5-0.1,0.6,0.1
					c0.1,0.1-0.1,0.4-0.4,0.5S185.9,52,185.8,51.9z"/>
				<path id="Trazado_125251" class="st12" d="M189.6,50.7c0-0.2,0.1-0.4,0.2-0.4c0.2,0,0.4,0.1,0.4,0.2c0,0.2-0.1,0.4-0.2,0.4
					C189.9,51,189.7,50.9,189.6,50.7C189.6,50.7,189.6,50.7,189.6,50.7z"/>
				<path id="Trazado_125252" class="st12" d="M189.5,49c-0.1-0.2,0-0.3,0.1-0.4c0.2-0.1,0.3,0,0.4,0.1c0.1,0.2,0,0.3-0.1,0.4
					c0,0,0,0,0,0C189.7,49.2,189.5,49.1,189.5,49z"/>
				<path id="Trazado_125253" class="st12" d="M186.2,47.8c-0.1-0.2,0.1-0.4,0.2-0.5c0.2-0.1,0.4-0.1,0.5,0.1
					c0.1,0.2,0.1,0.4-0.1,0.5c0,0-0.1,0.1-0.2,0.1C186.6,48.1,186.3,48,186.2,47.8L186.2,47.8z"/>
				<path id="Trazado_125254" class="st12" d="M184.6,49.2c0-0.2,0.2-0.4,0.5-0.5s0.6,0,0.7,0.1s-0.2,0.4-0.5,0.5
					S184.7,49.4,184.6,49.2z"/>
				<path id="Trazado_125255" class="st12" d="M187.8,48.7c-0.1-0.1,0-0.3,0.1-0.4c0.2-0.1,0.4,0.1,0.4,0.2c0,0.1,0,0.3-0.1,0.4
					C188.1,49,187.9,48.9,187.8,48.7z"/>
				<path id="Trazado_125256" class="st12" d="M183.1,51.8c-0.1-0.2,0-0.3,0.2-0.4c0.2,0,0.4,0.1,0.4,0.3c0,0.1-0.1,0.3-0.2,0.3
					C183.2,52.1,183.1,51.9,183.1,51.8z"/>
				<path id="Trazado_125257" class="st11" d="M138.1,51.8c0-1.8,2.8-3.2,6.3-3.1s6.2,1.4,6.2,3.2s-2.8,3.1-6.3,3.1
					S138.1,53.5,138.1,51.8z"/>
				<path id="Trazado_125258" class="st12" d="M142.3,50.1c-0.1-0.2-0.1-0.5,0.1-0.6c0.2-0.1,0.5-0.1,0.6,0.1
					c0.1,0.2,0.1,0.5-0.1,0.6c0,0-0.1,0-0.1,0C142.6,50.4,142.4,50.3,142.3,50.1z"/>
				<path id="Trazado_125259" class="st12" d="M141.9,51.6c-0.1-0.2,0-0.4,0.1-0.4c0,0,0,0,0,0c0.2-0.1,0.4,0,0.4,0.2
					c0.1,0.2,0,0.4-0.1,0.4c0,0,0,0,0,0C142.2,51.8,142,51.7,141.9,51.6C141.9,51.6,141.9,51.6,141.9,51.6L141.9,51.6z"/>
				<path id="Trazado_125260" class="st12" d="M139.9,51.5c-0.1-0.1-0.1-0.3,0-0.4c0,0,0,0,0,0c0.1-0.1,0.3-0.1,0.4,0.1
					c0.1,0.1,0.1,0.3,0,0.4c0,0,0,0,0,0C140.2,51.6,140,51.6,139.9,51.5C139.9,51.5,139.9,51.5,139.9,51.5z"/>
				<path id="Trazado_125261" class="st12" d="M146.3,52.4c-0.1-0.2,0-0.3,0.1-0.4s0.3,0,0.4,0.1c0,0,0,0,0,0c0.1,0.2,0,0.3-0.1,0.4
					S146.4,52.6,146.3,52.4C146.3,52.4,146.3,52.4,146.3,52.4z"/>
				<path id="Trazado_125262" class="st12" d="M142.9,53.1c-0.1-0.2,0-0.4,0.2-0.4c0,0,0,0,0,0c0.2-0.1,0.4,0,0.4,0.2c0,0,0,0,0,0
					c0.1,0.2,0,0.4-0.2,0.5S143,53.3,142.9,53.1C142.9,53.1,142.9,53.1,142.9,53.1z"/>
				<path id="Trazado_125263" class="st12" d="M140.3,52.8c0-0.2,0-0.4,0.1-0.4s0.2,0.1,0.3,0.3s0,0.3-0.1,0.4
					S140.4,53.1,140.3,52.8z"/>
				<path id="Trazado_125264" class="st12" d="M145.1,54c-0.1-0.2,0.1-0.4,0.4-0.5s0.6-0.1,0.6,0.1s-0.1,0.4-0.4,0.5
					S145.1,54.2,145.1,54z"/>
				<path id="Trazado_125265" class="st12" d="M148.9,52.8c0-0.2,0.1-0.3,0.2-0.4c0.2,0,0.3,0.1,0.4,0.2c0,0,0,0,0,0
					c0.1,0.2,0,0.3-0.2,0.4c0,0,0,0,0,0C149.1,53.1,148.9,53,148.9,52.8C148.9,52.8,148.9,52.8,148.9,52.8L148.9,52.8z"/>
				<path id="Trazado_125266" class="st12" d="M148.7,51.1c-0.1-0.2,0-0.3,0.2-0.4c0.1-0.1,0.3,0,0.4,0.1c0.1,0.2,0,0.3-0.1,0.4
					C148.9,51.4,148.8,51.3,148.7,51.1z"/>
				<path id="Trazado_125267" class="st12" d="M145.5,50c-0.1-0.2,0.1-0.4,0.2-0.5c0.2,0,0.4,0.1,0.4,0.3c0,0.2-0.1,0.4-0.3,0.4
					C145.7,50.2,145.5,50.1,145.5,50z"/>
				<path id="Trazado_125268" class="st12" d="M143.9,51.4c0-0.3,0.2-0.5,0.5-0.5c0.3-0.1,0.6,0,0.7,0.1s-0.2,0.4-0.5,0.5
					S143.9,51.6,143.9,51.4z"/>
				<path id="Trazado_125269" class="st12" d="M147.1,50.9c-0.1-0.1-0.1-0.3,0-0.4c0.1-0.1,0.3-0.1,0.4,0c0,0,0,0.1,0.1,0.1
					c0.1,0.1,0,0.3-0.1,0.4C147.3,51.1,147.1,51,147.1,50.9L147.1,50.9z"/>
				<path id="Trazado_125270" class="st12" d="M142.3,54c0-0.2,0-0.3,0.2-0.4c0.2,0,0.3,0.1,0.3,0.3c0.1,0.2,0,0.3-0.2,0.4
					C142.5,54.3,142.3,54.1,142.3,54z"/>
				<path id="Trazado_125271" class="st11" d="M127.3,58.7c0-1.7,2.8-3.2,6.3-3.1s6.3,1.4,6.2,3.2s-2.8,3.2-6.3,3.1
					S127.3,60.4,127.3,58.7z"/>
				<path id="Trazado_125272" class="st12" d="M131.5,57c0-0.2,0.1-0.4,0.3-0.5c0.2-0.1,0.4-0.1,0.5,0.1s0.1,0.4-0.1,0.5
					c-0.1,0-0.1,0.1-0.2,0.1C131.8,57.3,131.6,57.2,131.5,57C131.5,57,131.5,57,131.5,57L131.5,57z"/>
				<path id="Trazado_125273" class="st12" d="M131.1,58.4c-0.1-0.2,0-0.4,0.1-0.4s0.4,0,0.4,0.1c0,0,0,0,0,0.1
					c0.1,0.1,0,0.3-0.1,0.4c0,0,0,0,0,0C131.4,58.7,131.2,58.6,131.1,58.4z"/>
				<path id="Trazado_125274" class="st12" d="M129.1,58.4c-0.1-0.1-0.1-0.3,0-0.4c0,0,0,0,0,0c0.1-0.1,0.3-0.1,0.4,0.1c0,0,0,0,0,0
					c0.1,0.1,0.1,0.3,0,0.4c0,0,0,0,0,0C129.4,58.5,129.2,58.5,129.1,58.4z"/>
				<path id="Trazado_125275" class="st12" d="M135.5,59.2c-0.1-0.2,0-0.3,0.2-0.4c0,0,0,0,0,0c0.2-0.1,0.3,0,0.4,0.2
					c0.1,0.2,0,0.3-0.2,0.4C135.7,59.5,135.6,59.4,135.5,59.2L135.5,59.2L135.5,59.2z"/>
				<path id="Trazado_125276" class="st12" d="M132.1,60c-0.1-0.2,0-0.4,0.2-0.5c0.2-0.1,0.4,0,0.5,0.2c0.1,0.2,0,0.4-0.2,0.5
					c0,0,0,0,0,0C132.3,60.3,132.1,60.2,132.1,60z"/>
				<path id="Trazado_125277" class="st12" d="M129.5,59.7c0-0.2,0-0.3,0.1-0.4s0.3,0.1,0.3,0.3s0,0.4-0.1,0.4
					S129.6,59.9,129.5,59.7z"/>
				<path id="Trazado_125278" class="st12" d="M134.2,60.9c0-0.2,0.2-0.4,0.4-0.5c0.3-0.1,0.6-0.1,0.6,0.1s-0.1,0.4-0.4,0.5
					S134.3,61.1,134.2,60.9z"/>
				<path id="Trazado_125279" class="st12" d="M138.1,59.7c0-0.2,0.1-0.3,0.2-0.4s0.3,0.1,0.4,0.2c0,0.2-0.1,0.3-0.2,0.4
					C138.3,60,138.1,59.9,138.1,59.7C138.1,59.7,138.1,59.7,138.1,59.7z"/>
				<path id="Trazado_125280" class="st12" d="M137.9,58c-0.1-0.2,0-0.3,0.1-0.4c0,0,0,0,0,0c0.2-0.1,0.3,0,0.4,0.2
					c0.1,0.2,0,0.3-0.1,0.4c0,0,0,0,0,0C138.1,58.3,137.9,58.2,137.9,58z"/>
				<path id="Trazado_125281" class="st12" d="M134.7,56.9c-0.1-0.2,0.1-0.4,0.2-0.4c0,0,0,0,0,0c0.2,0,0.4,0.1,0.4,0.3
					c0,0.2-0.1,0.4-0.3,0.4C134.9,57.2,134.7,57.1,134.7,56.9z"/>
				<path id="Trazado_125282" class="st12" d="M133,58.3c0.1-0.4,0.5-0.6,0.9-0.5c0.1,0,0.2,0.1,0.3,0.1c0.1,0.1-0.2,0.4-0.5,0.5
					S133.1,58.5,133,58.3z"/>
				<path id="Trazado_125283" class="st12" d="M136.3,57.8c-0.1-0.1,0-0.3,0.1-0.4c0.2,0,0.3,0,0.4,0.2c0.1,0.1,0,0.3-0.1,0.4
					C136.5,58,136.3,57.9,136.3,57.8z"/>
				<path id="Trazado_125284" class="st12" d="M131.5,60.9c-0.1-0.2,0-0.3,0.2-0.4c0.2,0,0.3,0.1,0.3,0.3c0.1,0.2,0,0.4-0.2,0.4
					C131.7,61.2,131.5,61,131.5,60.9L131.5,60.9z"/>
				<path id="Trazado_125285" class="st11" d="M153.3,55c0-1.7,2.8-3.2,6.3-3.1s6.2,1.4,6.2,3.2s-2.8,3.2-6.3,3.1
					S153.3,56.7,153.3,55z"/>
				<path id="Trazado_125286" class="st12" d="M157.5,53.3c0-0.2,0.1-0.4,0.3-0.5c0.2-0.1,0.4-0.1,0.5,0.1c0.1,0.2,0.1,0.4-0.1,0.5
					c0,0-0.1,0-0.1,0.1C157.8,53.6,157.6,53.5,157.5,53.3C157.5,53.3,157.5,53.3,157.5,53.3L157.5,53.3z"/>
				<path id="Trazado_125287" class="st12" d="M157.1,54.7c-0.1-0.2,0-0.4,0.1-0.4c0,0,0,0,0,0c0.2-0.1,0.4,0,0.4,0.2
					c0.1,0.2,0,0.4-0.1,0.4c0,0,0,0,0,0C157.4,55,157.2,54.9,157.1,54.7z"/>
				<path id="Trazado_125288" class="st12" d="M155.1,54.7c-0.1-0.1-0.1-0.3,0-0.4c0,0,0,0,0,0c0.2-0.1,0.4-0.1,0.5,0.1
					c0.1,0.1,0.1,0.3,0,0.4C155.4,54.8,155.2,54.8,155.1,54.7C155.1,54.7,155.1,54.7,155.1,54.7L155.1,54.7z"/>
				<path id="Trazado_125289" class="st12" d="M161.5,55.5c-0.1-0.2,0-0.3,0.2-0.4c0,0,0,0,0,0c0.2,0,0.4,0.1,0.4,0.3
					c0,0.1,0,0.3-0.2,0.4C161.8,55.8,161.6,55.7,161.5,55.5C161.5,55.5,161.5,55.5,161.5,55.5L161.5,55.5z"/>
				<path id="Trazado_125290" class="st12" d="M158.1,56.3c-0.1-0.2,0-0.4,0.2-0.5c0.2-0.1,0.4,0,0.5,0.2c0.1,0.2,0,0.4-0.2,0.5
					c0,0,0,0,0,0C158.4,56.6,158.2,56.5,158.1,56.3z"/>
				<path id="Trazado_125291" class="st12" d="M155.5,56c0-0.2,0-0.3,0.1-0.4s0.3,0.1,0.3,0.3s0,0.4-0.1,0.4S155.6,56.2,155.5,56z"
					/>
				<path id="Trazado_125292" class="st12" d="M160.3,57.2c0-0.2,0.2-0.4,0.4-0.5c0.3-0.1,0.6-0.1,0.6,0.1s-0.1,0.4-0.4,0.5
					S160.3,57.4,160.3,57.2z"/>
				<path id="Trazado_125293" class="st12" d="M164.1,56c0-0.2,0.1-0.4,0.2-0.4c0.2,0,0.3,0.1,0.4,0.3c0.1,0.2,0,0.3-0.2,0.4
					c0,0,0,0,0,0C164.3,56.3,164.1,56.2,164.1,56C164.1,56,164.1,56,164.1,56L164.1,56z"/>
				<path id="Trazado_125294" class="st12" d="M163.9,54.4c-0.1-0.1,0-0.3,0.1-0.4s0.3,0,0.4,0.1c0,0,0,0.1,0,0.1
					c0.1,0.1,0,0.3-0.1,0.4S164,54.6,163.9,54.4C163.9,54.4,163.9,54.4,163.9,54.4z"/>
				<path id="Trazado_125295" class="st12" d="M160.7,53.2c0-0.2,0.1-0.4,0.3-0.5c0.2,0,0.3,0,0.4,0.2c0.1,0.2-0.1,0.4-0.2,0.4
					c0,0,0,0,0,0C161,53.4,160.8,53.3,160.7,53.2L160.7,53.2z"/>
				<path id="Trazado_125296" class="st12" d="M159.1,54.6c0-0.2,0.2-0.4,0.5-0.5c0.3-0.1,0.6,0,0.7,0.1s-0.2,0.4-0.5,0.5
					S159.1,54.8,159.1,54.6z"/>
				<path id="Trazado_125297" class="st12" d="M162.3,54.1c-0.1-0.1-0.1-0.3,0.1-0.4c0.1-0.1,0.3,0,0.4,0.2c0.1,0.1,0,0.3-0.1,0.4
					C162.5,54.3,162.3,54.2,162.3,54.1L162.3,54.1z"/>
				<path id="Trazado_125298" class="st12" d="M157.5,57.2c0-0.2,0-0.4,0.2-0.4c0.2-0.1,0.4-0.1,0.5,0.1c0.1,0.2,0.1,0.4-0.1,0.5
					c-0.2,0.1-0.4,0.1-0.5-0.1C157.5,57.3,157.5,57.2,157.5,57.2L157.5,57.2z"/>
			</g>
		</g>
	</g>
</g>
</svg>
