<?xml version="1.0" encoding="utf-8"?>
<!-- Generator: Adobe Illustrator 25.3.1, SVG Export Plug-In . SVG Version: 6.00 Build 0)  -->
<svg version="1.1" id="Layer_1" xmlns="http://www.w3.org/2000/svg" xmlns:xlink="http://www.w3.org/1999/xlink" x="0px" y="0px"
	 viewBox="0 0 720 370.6" style="enable-background:new 0 0 720 370.6;" xml:space="preserve">
<style type="text/css">
	.st0{enable-background:new    ;}
	.st1{fill:#12263F;}
	.st2{fill:none;stroke:#CCCCCC;stroke-width:3;}
	.st3{fill:#EBEBEB;}
	.st4{fill:#E6E6E6;}
	.st5{fill:#F0F0F0;}
	.st6{fill:#FAFAFA;}
	.st7{fill:#FFFFFF;}
	.st8{opacity:0.7;fill:#E6E6E6;enable-background:new    ;}
	.st9{fill:#E0E0E0;}
	.st10{fill:#F5F5F5;}
	.st11{fill:#DEE4F0;}
	.st12{fill:#7E57C2;}
	.st13{opacity:0.4;fill:#FFFFFF;enable-background:new    ;}
	.st14{opacity:0.3;fill:#FFFFFF;enable-background:new    ;}
	.st15{opacity:0.2;fill:#FFFFFF;enable-background:new    ;}
	.st16{opacity:0.1;enable-background:new    ;}
	.st17{fill:#B55B52;}
	.st18{fill:#C1507F;}
	.st19{fill:#263238;}
	.st20{fill:#A02724;}
	.st21{opacity:0.2;enable-background:new    ;}
	.st22{opacity:0.3;enable-background:new    ;}
	.st23{fill:#F5CA56;}
	.st24{fill:#26AAB7;}
</style>
<g id="Grupo_55348" transform="translate(-139 -4664.006)">
	<g class="st0">
		<path class="st1" d="M194.8,4831.5h-4.9v4h5.7v1.2h-7.2v-11.4h7.1v1.2h-5.6v3.7h4.9V4831.5z"/>
		<path class="st1" d="M202.1,4834.5c0-0.4-0.1-0.7-0.4-0.9c-0.3-0.2-0.8-0.4-1.5-0.6c-0.7-0.2-1.3-0.3-1.7-0.6s-0.7-0.5-1-0.8
			c-0.2-0.3-0.3-0.7-0.3-1.1c0-0.7,0.3-1.3,0.9-1.8s1.3-0.7,2.2-0.7c1,0,1.7,0.2,2.3,0.7c0.6,0.5,0.9,1.1,0.9,1.9H202
			c0-0.4-0.2-0.7-0.5-1s-0.8-0.4-1.3-0.4c-0.5,0-0.9,0.1-1.2,0.3s-0.4,0.5-0.4,0.9c0,0.3,0.1,0.6,0.4,0.8c0.3,0.2,0.8,0.3,1.5,0.5
			c0.7,0.2,1.3,0.4,1.8,0.6c0.4,0.2,0.8,0.5,1,0.8c0.2,0.3,0.3,0.7,0.3,1.2c0,0.8-0.3,1.4-0.9,1.8c-0.6,0.5-1.4,0.7-2.4,0.7
			c-0.7,0-1.3-0.1-1.8-0.4c-0.5-0.2-0.9-0.6-1.2-1c-0.3-0.4-0.4-0.9-0.4-1.4h1.4c0,0.5,0.2,0.9,0.6,1.2c0.4,0.3,0.8,0.4,1.4,0.4
			c0.5,0,1-0.1,1.3-0.3C201.9,4835.2,202.1,4834.9,202.1,4834.5z"/>
		<path class="st1" d="M207.4,4826.2v2h1.6v1.1h-1.6v5.2c0,0.3,0.1,0.6,0.2,0.8c0.1,0.2,0.4,0.3,0.7,0.3c0.2,0,0.4,0,0.7-0.1v1.2
			c-0.4,0.1-0.8,0.2-1.1,0.2c-0.6,0-1.1-0.2-1.5-0.6s-0.5-0.9-0.5-1.7v-5.2h-1.5v-1.1h1.5v-2H207.4z"/>
		<path class="st1" d="M210.7,4826c0-0.2,0.1-0.4,0.2-0.6c0.1-0.2,0.4-0.2,0.6-0.2s0.5,0.1,0.6,0.2c0.1,0.2,0.2,0.4,0.2,0.6
			s-0.1,0.4-0.2,0.6c-0.1,0.2-0.4,0.2-0.6,0.2s-0.5-0.1-0.6-0.2C210.7,4826.5,210.7,4826.3,210.7,4826z M212.2,4836.7h-1.4v-8.5h1.4
			V4836.7z"/>
		<path class="st1" d="M215.9,4828.3l0,0.9c0.6-0.7,1.5-1.1,2.5-1.1c1.2,0,2,0.5,2.4,1.4c0.3-0.4,0.6-0.7,1.1-1
			c0.5-0.2,1-0.4,1.6-0.4c1.9,0,2.8,1,2.8,2.9v5.7h-1.4v-5.6c0-0.6-0.1-1.1-0.4-1.4c-0.3-0.3-0.7-0.4-1.4-0.4c-0.5,0-1,0.2-1.3,0.5
			c-0.4,0.3-0.6,0.8-0.6,1.3v5.6h-1.5v-5.5c0-1.2-0.6-1.8-1.8-1.8c-0.9,0-1.6,0.4-1.9,1.2v6.2h-1.4v-8.5H215.9z"/>
		<path class="st1" d="M233.8,4836.7c-0.1-0.2-0.2-0.5-0.2-0.9c-0.7,0.7-1.5,1-2.4,1c-0.8,0-1.5-0.2-2.1-0.7
			c-0.5-0.5-0.8-1.1-0.8-1.8c0-0.9,0.3-1.6,1-2.1c0.7-0.5,1.6-0.7,2.8-0.7h1.4v-0.7c0-0.5-0.2-0.9-0.5-1.2c-0.3-0.3-0.7-0.4-1.3-0.4
			c-0.5,0-0.9,0.1-1.3,0.4c-0.3,0.3-0.5,0.6-0.5,0.9h-1.5c0-0.4,0.1-0.8,0.4-1.2c0.3-0.4,0.7-0.7,1.2-0.9c0.5-0.2,1.1-0.3,1.7-0.3
			c1,0,1.7,0.2,2.3,0.7c0.6,0.5,0.8,1.2,0.9,2v3.9c0,0.8,0.1,1.4,0.3,1.9v0.1H233.8z M231.4,4835.6c0.5,0,0.9-0.1,1.3-0.4
			s0.7-0.5,0.9-0.9v-1.7h-1.1c-1.8,0-2.7,0.5-2.7,1.6c0,0.5,0.2,0.8,0.5,1.1C230.5,4835.5,230.9,4835.6,231.4,4835.6z"/>
	</g>
	<g class="st0">
		<path class="st1" d="M194.6,4777.4h-4.8l-1.1,3h-1.5l4.3-11.4h1.3l4.4,11.4h-1.5L194.6,4777.4z M190.3,4776.2h3.9l-1.9-5.3
			L190.3,4776.2z"/>
		<path class="st1" d="M203.7,4779.5c-0.6,0.7-1.4,1-2.5,1c-0.9,0-1.6-0.3-2.1-0.8c-0.5-0.5-0.7-1.3-0.7-2.3v-5.5h1.4v5.5
			c0,1.3,0.5,1.9,1.6,1.9c1.1,0,1.8-0.4,2.2-1.2v-6.1h1.4v8.5h-1.4L203.7,4779.5z"/>
		<path class="st1" d="M209.2,4769.9v2h1.6v1.1h-1.6v5.2c0,0.3,0.1,0.6,0.2,0.8c0.1,0.2,0.4,0.3,0.7,0.3c0.2,0,0.4,0,0.7-0.1v1.2
			c-0.4,0.1-0.8,0.2-1.1,0.2c-0.6,0-1.1-0.2-1.5-0.6s-0.5-0.9-0.5-1.7v-5.2h-1.5v-1.1h1.5v-2H209.2z"/>
		<path class="st1" d="M212,4776c0-0.8,0.2-1.6,0.5-2.2c0.3-0.7,0.8-1.2,1.4-1.5c0.6-0.4,1.2-0.5,2-0.5c1.2,0,2.1,0.4,2.8,1.2
			s1.1,1.9,1.1,3.2v0.1c0,0.8-0.2,1.6-0.5,2.2c-0.3,0.7-0.8,1.2-1.4,1.5s-1.3,0.5-2,0.5c-1.1,0-2.1-0.4-2.8-1.2s-1.1-1.9-1.1-3.2
			V4776z M213.4,4776.2c0,0.9,0.2,1.7,0.7,2.3c0.4,0.6,1,0.9,1.7,0.9c0.7,0,1.3-0.3,1.8-0.9c0.4-0.6,0.6-1.4,0.6-2.4
			c0-0.9-0.2-1.7-0.7-2.3c-0.4-0.6-1-0.9-1.8-0.9c-0.7,0-1.3,0.3-1.7,0.9S213.4,4775.2,213.4,4776.2z"/>
		<path class="st1" d="M225.5,4773.2c-0.2,0-0.5-0.1-0.7-0.1c-0.9,0-1.6,0.4-1.9,1.2v6h-1.4v-8.5h1.4l0,1c0.5-0.8,1.1-1.1,2-1.1
			c0.3,0,0.5,0,0.6,0.1V4773.2z"/>
		<path class="st1" d="M231,4773.2c-0.2,0-0.5-0.1-0.7-0.1c-0.9,0-1.6,0.4-1.9,1.2v6h-1.4v-8.5h1.4l0,1c0.5-0.8,1.1-1.1,2-1.1
			c0.3,0,0.5,0,0.6,0.1V4773.2z"/>
		<path class="st1" d="M235.6,4780.5c-1.1,0-2.1-0.4-2.8-1.1s-1.1-1.8-1.1-3v-0.3c0-0.8,0.2-1.6,0.5-2.2s0.8-1.2,1.3-1.5
			c0.6-0.4,1.2-0.6,1.9-0.6c1.1,0,2,0.4,2.6,1.1s0.9,1.8,0.9,3.1v0.6h-5.7c0,0.8,0.3,1.5,0.7,2c0.5,0.5,1.1,0.8,1.8,0.8
			c0.5,0,0.9-0.1,1.3-0.3c0.4-0.2,0.7-0.5,0.9-0.8l0.9,0.7C238.1,4780,237.1,4780.5,235.6,4780.5z M235.5,4772.9
			c-0.6,0-1.1,0.2-1.5,0.6c-0.4,0.4-0.6,1-0.7,1.8h4.2v-0.1c0-0.7-0.2-1.3-0.6-1.7C236.6,4773.1,236.1,4772.9,235.5,4772.9z"/>
		<path class="st1" d="M245.8,4780.4c-0.1-0.2-0.2-0.5-0.2-0.9c-0.7,0.7-1.5,1-2.4,1c-0.8,0-1.5-0.2-2.1-0.7
			c-0.5-0.5-0.8-1.1-0.8-1.8c0-0.9,0.3-1.6,1-2.1c0.7-0.5,1.6-0.7,2.8-0.7h1.4v-0.7c0-0.5-0.2-0.9-0.5-1.2c-0.3-0.3-0.7-0.4-1.3-0.4
			c-0.5,0-0.9,0.1-1.3,0.4c-0.3,0.3-0.5,0.6-0.5,0.9h-1.5c0-0.4,0.1-0.8,0.4-1.2c0.3-0.4,0.7-0.7,1.2-0.9c0.5-0.2,1.1-0.3,1.7-0.3
			c1,0,1.7,0.2,2.3,0.7c0.6,0.5,0.8,1.2,0.9,2v3.9c0,0.8,0.1,1.4,0.3,1.9v0.1H245.8z M243.4,4779.3c0.5,0,0.9-0.1,1.3-0.4
			s0.7-0.5,0.9-0.9v-1.7h-1.1c-1.8,0-2.7,0.5-2.7,1.6c0,0.5,0.2,0.8,0.5,1.1C242.6,4779.1,243,4779.3,243.4,4779.3z"/>
		<path class="st1" d="M250.9,4780.4h-1.4v-12h1.4V4780.4z"/>
		<path class="st1" d="M253.2,4769.7c0-0.2,0.1-0.4,0.2-0.6c0.1-0.2,0.4-0.2,0.6-0.2s0.5,0.1,0.6,0.2c0.1,0.2,0.2,0.4,0.2,0.6
			s-0.1,0.4-0.2,0.6c-0.1,0.2-0.4,0.2-0.6,0.2s-0.5-0.1-0.6-0.2C253.3,4770.1,253.2,4769.9,253.2,4769.7z M254.8,4780.4h-1.4v-8.5
			h1.4V4780.4z"/>
		<path class="st1" d="M258.4,4779.2h4.9v1.2h-6.7v-1.1l4.7-6.2h-4.6v-1.2h6.4v1L258.4,4779.2z"/>
		<path class="st1" d="M270.2,4780.4c-0.1-0.2-0.2-0.5-0.2-0.9c-0.7,0.7-1.5,1-2.4,1c-0.8,0-1.5-0.2-2.1-0.7
			c-0.5-0.5-0.8-1.1-0.8-1.8c0-0.9,0.3-1.6,1-2.1c0.7-0.5,1.6-0.7,2.8-0.7h1.4v-0.7c0-0.5-0.2-0.9-0.5-1.2c-0.3-0.3-0.7-0.4-1.3-0.4
			c-0.5,0-0.9,0.1-1.3,0.4c-0.3,0.3-0.5,0.6-0.5,0.9h-1.5c0-0.4,0.1-0.8,0.4-1.2c0.3-0.4,0.7-0.7,1.2-0.9c0.5-0.2,1.1-0.3,1.7-0.3
			c1,0,1.7,0.2,2.3,0.7c0.6,0.5,0.8,1.2,0.9,2v3.9c0,0.8,0.1,1.4,0.3,1.9v0.1H270.2z M267.8,4779.3c0.5,0,0.9-0.1,1.3-0.4
			s0.7-0.5,0.9-0.9v-1.7h-1.1c-1.8,0-2.7,0.5-2.7,1.6c0,0.5,0.2,0.8,0.5,1.1C267,4779.1,267.4,4779.3,267.8,4779.3z"/>
		<path class="st1" d="M277.1,4779.3c0.5,0,1-0.2,1.4-0.5c0.4-0.3,0.6-0.7,0.6-1.2h1.4c0,0.5-0.2,0.9-0.5,1.4
			c-0.3,0.4-0.7,0.8-1.2,1c-0.5,0.3-1.1,0.4-1.6,0.4c-1.2,0-2.1-0.4-2.7-1.2s-1-1.8-1-3.2v-0.2c0-0.8,0.2-1.6,0.5-2.2
			c0.3-0.6,0.7-1.1,1.3-1.5c0.6-0.4,1.2-0.5,2-0.5c0.9,0,1.7,0.3,2.4,0.9c0.6,0.6,1,1.3,1,2.2h-1.4c0-0.5-0.2-1-0.6-1.3
			c-0.4-0.4-0.8-0.5-1.4-0.5c-0.7,0-1.3,0.3-1.7,0.8c-0.4,0.5-0.6,1.3-0.6,2.3v0.3c0,1,0.2,1.7,0.6,2.2
			C275.8,4779.1,276.4,4779.3,277.1,4779.3z"/>
		<path class="st1" d="M282.1,4769.7c0-0.2,0.1-0.4,0.2-0.6c0.1-0.2,0.4-0.2,0.6-0.2s0.5,0.1,0.6,0.2c0.1,0.2,0.2,0.4,0.2,0.6
			s-0.1,0.4-0.2,0.6c-0.1,0.2-0.4,0.2-0.6,0.2s-0.5-0.1-0.6-0.2C282.2,4770.1,282.1,4769.9,282.1,4769.7z M283.7,4780.4h-1.4v-8.5
			h1.4V4780.4z"/>
		<path class="st1" d="M285.6,4776c0-0.8,0.2-1.6,0.5-2.2c0.3-0.7,0.8-1.2,1.4-1.5c0.6-0.4,1.2-0.5,2-0.5c1.2,0,2.1,0.4,2.8,1.2
			s1.1,1.9,1.1,3.2v0.1c0,0.8-0.2,1.6-0.5,2.2c-0.3,0.7-0.8,1.2-1.4,1.5s-1.3,0.5-2,0.5c-1.1,0-2.1-0.4-2.8-1.2s-1.1-1.9-1.1-3.2
			V4776z M287,4776.2c0,0.9,0.2,1.7,0.7,2.3c0.4,0.6,1,0.9,1.7,0.9c0.7,0,1.3-0.3,1.8-0.9c0.4-0.6,0.6-1.4,0.6-2.4
			c0-0.9-0.2-1.7-0.7-2.3c-0.4-0.6-1-0.9-1.8-0.9c-0.7,0-1.3,0.3-1.7,0.9S287,4775.2,287,4776.2z M290.1,4768.4h1.8l-2.1,2.3l-1.2,0
			L290.1,4768.4z"/>
		<path class="st1" d="M296.5,4771.9l0,1.1c0.6-0.8,1.5-1.2,2.5-1.2c1.8,0,2.7,1,2.7,3v5.6h-1.4v-5.6c0-0.6-0.1-1.1-0.4-1.4
			s-0.7-0.4-1.3-0.4c-0.5,0-0.9,0.1-1.2,0.4c-0.4,0.2-0.6,0.6-0.8,1v6h-1.4v-8.5H296.5z"/>
	</g>
	<g class="st0">
		<path class="st1" d="M191.7,4885c-1.3-0.4-2.2-0.8-2.8-1.4s-0.9-1.2-0.9-2c0-0.9,0.4-1.6,1.1-2.2c0.7-0.6,1.6-0.9,2.8-0.9
			c0.8,0,1.5,0.2,2.1,0.5c0.6,0.3,1.1,0.7,1.4,1.2s0.5,1.1,0.5,1.7h-1.5c0-0.7-0.2-1.2-0.7-1.6s-1.1-0.6-1.9-0.6
			c-0.7,0-1.3,0.2-1.7,0.5s-0.6,0.8-0.6,1.4c0,0.5,0.2,0.9,0.6,1.2c0.4,0.3,1.1,0.6,2,0.9c0.9,0.3,1.7,0.6,2.2,0.9
			c0.5,0.3,0.9,0.7,1.2,1.1s0.4,0.9,0.4,1.5c0,0.9-0.4,1.7-1.1,2.2s-1.7,0.8-2.9,0.8c-0.8,0-1.5-0.1-2.2-0.4
			c-0.7-0.3-1.2-0.7-1.6-1.2s-0.6-1.1-0.6-1.8h1.5c0,0.7,0.3,1.2,0.8,1.6s1.2,0.6,2,0.6c0.8,0,1.4-0.2,1.8-0.5s0.6-0.8,0.6-1.3
			s-0.2-1-0.6-1.3S192.7,4885.3,191.7,4885z"/>
		<path class="st1" d="M197.2,4885.8c0-0.8,0.2-1.6,0.5-2.2c0.3-0.7,0.8-1.2,1.4-1.5c0.6-0.4,1.2-0.5,2-0.5c1.2,0,2.1,0.4,2.8,1.2
			s1.1,1.9,1.1,3.2v0.1c0,0.8-0.2,1.6-0.5,2.2c-0.3,0.7-0.8,1.2-1.4,1.5s-1.3,0.5-2,0.5c-1.1,0-2.1-0.4-2.8-1.2s-1.1-1.9-1.1-3.2
			V4885.8z M198.7,4886c0,0.9,0.2,1.7,0.7,2.3c0.4,0.6,1,0.9,1.7,0.9c0.7,0,1.3-0.3,1.8-0.9c0.4-0.6,0.6-1.4,0.6-2.4
			c0-0.9-0.2-1.7-0.7-2.3c-0.4-0.6-1-0.9-1.8-0.9c-0.7,0-1.3,0.3-1.7,0.9S198.7,4884.9,198.7,4886z"/>
		<path class="st1" d="M210.1,4889.1c0.5,0,1-0.2,1.4-0.5c0.4-0.3,0.6-0.7,0.6-1.2h1.4c0,0.5-0.2,0.9-0.5,1.4
			c-0.3,0.4-0.7,0.8-1.2,1c-0.5,0.3-1.1,0.4-1.6,0.4c-1.2,0-2.1-0.4-2.7-1.2s-1-1.8-1-3.2v-0.2c0-0.8,0.2-1.6,0.5-2.2
			c0.3-0.6,0.7-1.1,1.3-1.5c0.6-0.4,1.2-0.5,2-0.5c0.9,0,1.7,0.3,2.4,0.9c0.6,0.6,1,1.3,1,2.2h-1.4c0-0.5-0.2-1-0.6-1.3
			c-0.4-0.4-0.8-0.5-1.4-0.5c-0.7,0-1.3,0.3-1.7,0.8c-0.4,0.5-0.6,1.3-0.6,2.3v0.3c0,1,0.2,1.7,0.6,2.2
			C208.8,4888.8,209.4,4889.1,210.1,4889.1z"/>
		<path class="st1" d="M215.1,4879.4c0-0.2,0.1-0.4,0.2-0.6c0.1-0.2,0.4-0.2,0.6-0.2s0.5,0.1,0.6,0.2c0.1,0.2,0.2,0.4,0.2,0.6
			s-0.1,0.4-0.2,0.6c-0.1,0.2-0.4,0.2-0.6,0.2s-0.5-0.1-0.6-0.2C215.2,4879.9,215.1,4879.7,215.1,4879.4z M216.7,4890.1h-1.4v-8.5
			h1.4V4890.1z"/>
		<path class="st1" d="M224.2,4890.1c-0.1-0.2-0.2-0.5-0.2-0.9c-0.7,0.7-1.5,1-2.4,1c-0.8,0-1.5-0.2-2.1-0.7
			c-0.5-0.5-0.8-1.1-0.8-1.8c0-0.9,0.3-1.6,1-2.1c0.7-0.5,1.6-0.7,2.8-0.7h1.4v-0.7c0-0.5-0.2-0.9-0.5-1.2c-0.3-0.3-0.7-0.4-1.3-0.4
			c-0.5,0-0.9,0.1-1.3,0.4c-0.3,0.3-0.5,0.6-0.5,0.9h-1.5c0-0.4,0.1-0.8,0.4-1.2c0.3-0.4,0.7-0.7,1.2-0.9c0.5-0.2,1.1-0.3,1.7-0.3
			c1,0,1.7,0.2,2.3,0.7c0.6,0.5,0.8,1.2,0.9,2v3.9c0,0.8,0.1,1.4,0.3,1.9v0.1H224.2z M221.8,4889c0.5,0,0.9-0.1,1.3-0.4
			s0.7-0.5,0.9-0.9v-1.7h-1.1c-1.8,0-2.7,0.5-2.7,1.6c0,0.5,0.2,0.8,0.5,1.1C220.9,4888.9,221.3,4889,221.8,4889z"/>
		<path class="st1" d="M229.2,4890.1h-1.4v-12h1.4V4890.1z"/>
		<path class="st1" d="M235.1,4890.3c-1.1,0-2.1-0.4-2.8-1.1s-1.1-1.8-1.1-3v-0.3c0-0.8,0.2-1.6,0.5-2.2s0.8-1.2,1.3-1.5
			c0.6-0.4,1.2-0.6,1.9-0.6c1.1,0,2,0.4,2.6,1.1s0.9,1.8,0.9,3.1v0.6h-5.7c0,0.8,0.3,1.5,0.7,2c0.5,0.5,1.1,0.8,1.8,0.8
			c0.5,0,0.9-0.1,1.3-0.3c0.4-0.2,0.7-0.5,0.9-0.8l0.9,0.7C237.5,4889.7,236.5,4890.3,235.1,4890.3z M234.9,4882.7
			c-0.6,0-1.1,0.2-1.5,0.6c-0.4,0.4-0.6,1-0.7,1.8h4.2v-0.1c0-0.7-0.2-1.3-0.6-1.7C236,4882.9,235.5,4882.7,234.9,4882.7z"/>
		<path class="st1" d="M245,4887.9c0-0.4-0.1-0.7-0.4-0.9c-0.3-0.2-0.8-0.4-1.5-0.6c-0.7-0.2-1.3-0.3-1.7-0.6s-0.7-0.5-1-0.8
			c-0.2-0.3-0.3-0.7-0.3-1.1c0-0.7,0.3-1.3,0.9-1.8s1.3-0.7,2.2-0.7c1,0,1.7,0.2,2.3,0.7c0.6,0.5,0.9,1.1,0.9,1.9h-1.5
			c0-0.4-0.2-0.7-0.5-1s-0.8-0.4-1.3-0.4c-0.5,0-0.9,0.1-1.2,0.3s-0.4,0.5-0.4,0.9c0,0.3,0.1,0.6,0.4,0.8c0.3,0.2,0.8,0.3,1.5,0.5
			c0.7,0.2,1.3,0.4,1.8,0.6c0.4,0.2,0.8,0.5,1,0.8c0.2,0.3,0.3,0.7,0.3,1.2c0,0.8-0.3,1.4-0.9,1.8c-0.6,0.5-1.4,0.7-2.4,0.7
			c-0.7,0-1.3-0.1-1.8-0.4c-0.5-0.2-0.9-0.6-1.2-1c-0.3-0.4-0.4-0.9-0.4-1.4h1.4c0,0.5,0.2,0.9,0.6,1.2c0.4,0.3,0.8,0.4,1.4,0.4
			c0.5,0,1-0.1,1.3-0.3C244.8,4888.5,245,4888.2,245,4887.9z"/>
	</g>
	<g class="st0">
		<path class="st1" d="M191.7,4940.1c-1.3-0.4-2.2-0.8-2.8-1.4s-0.9-1.2-0.9-2c0-0.9,0.4-1.6,1.1-2.2c0.7-0.6,1.6-0.9,2.8-0.9
			c0.8,0,1.5,0.2,2.1,0.5c0.6,0.3,1.1,0.7,1.4,1.2s0.5,1.1,0.5,1.7h-1.5c0-0.7-0.2-1.2-0.7-1.6s-1.1-0.6-1.9-0.6
			c-0.7,0-1.3,0.2-1.7,0.5s-0.6,0.8-0.6,1.4c0,0.5,0.2,0.9,0.6,1.2c0.4,0.3,1.1,0.6,2,0.9c0.9,0.3,1.7,0.6,2.2,0.9
			c0.5,0.3,0.9,0.7,1.2,1.1s0.4,0.9,0.4,1.5c0,0.9-0.4,1.7-1.1,2.2s-1.7,0.8-2.9,0.8c-0.8,0-1.5-0.1-2.2-0.4
			c-0.7-0.3-1.2-0.7-1.6-1.2s-0.6-1.1-0.6-1.8h1.5c0,0.7,0.3,1.2,0.8,1.6s1.2,0.6,2,0.6c0.8,0,1.4-0.2,1.8-0.5s0.6-0.8,0.6-1.3
			s-0.2-1-0.6-1.3S192.7,4940.4,191.7,4940.1z"/>
		<path class="st1" d="M201.1,4945.3c-1.1,0-2.1-0.4-2.8-1.1s-1.1-1.8-1.1-3v-0.3c0-0.8,0.2-1.6,0.5-2.2s0.8-1.2,1.3-1.5
			c0.6-0.4,1.2-0.6,1.9-0.6c1.1,0,2,0.4,2.6,1.1s0.9,1.8,0.9,3.1v0.6h-5.7c0,0.8,0.3,1.5,0.7,2c0.5,0.5,1.1,0.8,1.8,0.8
			c0.5,0,0.9-0.1,1.3-0.3c0.4-0.2,0.7-0.5,0.9-0.8l0.9,0.7C203.6,4944.7,202.5,4945.3,201.1,4945.3z M200.9,4937.7
			c-0.6,0-1.1,0.2-1.5,0.6c-0.4,0.4-0.6,1-0.7,1.8h4.2v-0.1c0-0.7-0.2-1.3-0.6-1.7C202,4937.9,201.5,4937.7,200.9,4937.7z"/>
		<path class="st1" d="M205.7,4940.8c0-1.3,0.3-2.4,0.9-3.1s1.4-1.2,2.4-1.2c1,0,1.8,0.4,2.4,1.1l0.1-0.9h1.3v8.2c0,1.1-0.3,2-1,2.6
			s-1.5,0.9-2.6,0.9c-0.6,0-1.2-0.1-1.8-0.4c-0.6-0.3-1-0.6-1.3-1.1l0.8-0.9c0.6,0.8,1.4,1.1,2.3,1.1c0.7,0,1.3-0.2,1.6-0.6
			c0.4-0.4,0.6-1,0.6-1.7v-0.7c-0.6,0.7-1.4,1-2.4,1c-1,0-1.8-0.4-2.4-1.2C206,4943.3,205.7,4942.2,205.7,4940.8z M207.2,4941
			c0,1,0.2,1.7,0.6,2.2s0.9,0.8,1.6,0.8c0.9,0,1.6-0.4,2-1.2v-3.9c-0.4-0.8-1.1-1.2-2-1.2c-0.7,0-1.3,0.3-1.6,0.8
			C207.4,4939.1,207.2,4939.9,207.2,4941z"/>
		<path class="st1" d="M220.3,4944.3c-0.6,0.7-1.4,1-2.5,1c-0.9,0-1.6-0.3-2.1-0.8c-0.5-0.5-0.7-1.3-0.7-2.3v-5.5h1.4v5.5
			c0,1.3,0.5,1.9,1.6,1.9c1.1,0,1.8-0.4,2.2-1.2v-6.1h1.4v8.5h-1.4L220.3,4944.3z"/>
		<path class="st1" d="M227.9,4938c-0.2,0-0.5-0.1-0.7-0.1c-0.9,0-1.6,0.4-1.9,1.2v6h-1.4v-8.5h1.4l0,1c0.5-0.8,1.1-1.1,2-1.1
			c0.3,0,0.5,0,0.6,0.1V4938z"/>
		<path class="st1" d="M229.3,4934.4c0-0.2,0.1-0.4,0.2-0.6c0.1-0.2,0.4-0.2,0.6-0.2s0.5,0.1,0.6,0.2c0.1,0.2,0.2,0.4,0.2,0.6
			s-0.1,0.4-0.2,0.6c-0.1,0.2-0.4,0.2-0.6,0.2s-0.5-0.1-0.6-0.2C229.4,4934.9,229.3,4934.7,229.3,4934.4z M230.8,4945.1h-1.4v-8.5
			h1.4V4945.1z"/>
		<path class="st1" d="M232.8,4940.8c0-1.3,0.3-2.3,0.9-3.1c0.6-0.8,1.4-1.2,2.4-1.2c1,0,1.8,0.3,2.4,1v-4.4h1.4v12h-1.3l-0.1-0.9
			c-0.6,0.7-1.4,1.1-2.4,1.1c-1,0-1.8-0.4-2.4-1.2s-0.9-1.8-0.9-3.1V4940.8z M234.2,4941c0,1,0.2,1.7,0.6,2.2
			c0.4,0.5,0.9,0.8,1.6,0.8c0.9,0,1.6-0.4,2-1.2v-3.9c-0.4-0.8-1.1-1.2-2-1.2c-0.7,0-1.3,0.3-1.7,0.8
			C234.4,4939.1,234.2,4939.9,234.2,4941z"/>
		<path class="st1" d="M247.4,4945.1c-0.1-0.2-0.2-0.5-0.2-0.9c-0.7,0.7-1.5,1-2.4,1c-0.8,0-1.5-0.2-2.1-0.7
			c-0.5-0.5-0.8-1.1-0.8-1.8c0-0.9,0.3-1.6,1-2.1c0.7-0.5,1.6-0.7,2.8-0.7h1.4v-0.7c0-0.5-0.2-0.9-0.5-1.2c-0.3-0.3-0.7-0.4-1.3-0.4
			c-0.5,0-0.9,0.1-1.3,0.4c-0.3,0.3-0.5,0.6-0.5,0.9h-1.5c0-0.4,0.1-0.8,0.4-1.2c0.3-0.4,0.7-0.7,1.2-0.9c0.5-0.2,1.1-0.3,1.7-0.3
			c1,0,1.7,0.2,2.3,0.7c0.6,0.5,0.8,1.2,0.9,2v3.9c0,0.8,0.1,1.4,0.3,1.9v0.1H247.4z M245,4944c0.5,0,0.9-0.1,1.3-0.4
			s0.7-0.5,0.9-0.9v-1.7H246c-1.8,0-2.7,0.5-2.7,1.6c0,0.5,0.2,0.8,0.5,1.1C244.1,4943.9,244.5,4944,245,4944z"/>
		<path class="st1" d="M250.5,4940.8c0-1.3,0.3-2.3,0.9-3.1c0.6-0.8,1.4-1.2,2.4-1.2c1,0,1.8,0.3,2.4,1v-4.4h1.4v12h-1.3l-0.1-0.9
			c-0.6,0.7-1.4,1.1-2.4,1.1c-1,0-1.8-0.4-2.4-1.2s-0.9-1.8-0.9-3.1V4940.8z M252,4941c0,1,0.2,1.7,0.6,2.2c0.4,0.5,0.9,0.8,1.6,0.8
			c0.9,0,1.6-0.4,2-1.2v-3.9c-0.4-0.8-1.1-1.2-2-1.2c-0.7,0-1.3,0.3-1.7,0.8C252.2,4939.1,252,4939.9,252,4941z"/>
	</g>
	<g class="st0">
		<path class="st1" d="M194.6,4995.3h-4.8v5h-1.5V4989h7v1.2h-5.5v3.9h4.8V4995.3z"/>
		<path class="st1" d="M196.9,4989.7c0-0.2,0.1-0.4,0.2-0.6c0.1-0.2,0.4-0.2,0.6-0.2s0.5,0.1,0.6,0.2c0.1,0.2,0.2,0.4,0.2,0.6
			s-0.1,0.4-0.2,0.6c-0.1,0.2-0.4,0.2-0.6,0.2s-0.5-0.1-0.6-0.2C197,4990.1,196.9,4989.9,196.9,4989.7z M198.5,5000.4h-1.4v-8.5h1.4
			V5000.4z"/>
		<path class="st1" d="M205.7,4998.1c0-0.4-0.1-0.7-0.4-0.9c-0.3-0.2-0.8-0.4-1.5-0.6c-0.7-0.2-1.3-0.3-1.7-0.6s-0.7-0.5-1-0.8
			c-0.2-0.3-0.3-0.7-0.3-1.1c0-0.7,0.3-1.3,0.9-1.8s1.3-0.7,2.2-0.7c1,0,1.7,0.2,2.3,0.7c0.6,0.5,0.9,1.1,0.9,1.9h-1.5
			c0-0.4-0.2-0.7-0.5-1s-0.8-0.4-1.3-0.4c-0.5,0-0.9,0.1-1.2,0.3s-0.4,0.5-0.4,0.9c0,0.3,0.1,0.6,0.4,0.8c0.3,0.2,0.8,0.3,1.5,0.5
			c0.7,0.2,1.3,0.4,1.8,0.6c0.4,0.2,0.8,0.5,1,0.8c0.2,0.3,0.3,0.7,0.3,1.2c0,0.8-0.3,1.4-0.9,1.8c-0.6,0.5-1.4,0.7-2.4,0.7
			c-0.7,0-1.3-0.1-1.8-0.4c-0.5-0.2-0.9-0.6-1.2-1c-0.3-0.4-0.4-0.9-0.4-1.4h1.4c0,0.5,0.2,0.9,0.6,1.2c0.4,0.3,0.8,0.4,1.4,0.4
			c0.5,0,1-0.1,1.3-0.3C205.6,4998.8,205.7,4998.5,205.7,4998.1z"/>
		<path class="st1" d="M209.1,4989.7c0-0.2,0.1-0.4,0.2-0.6c0.1-0.2,0.4-0.2,0.6-0.2s0.5,0.1,0.6,0.2c0.1,0.2,0.2,0.4,0.2,0.6
			s-0.1,0.4-0.2,0.6c-0.1,0.2-0.4,0.2-0.6,0.2s-0.5-0.1-0.6-0.2C209.1,4990.1,209.1,4989.9,209.1,4989.7z M210.6,5000.4h-1.4v-8.5
			h1.4V5000.4z"/>
		<path class="st1" d="M212.6,4996.1c0-0.8,0.2-1.6,0.5-2.2c0.3-0.7,0.8-1.2,1.4-1.5c0.6-0.4,1.2-0.5,2-0.5c1.2,0,2.1,0.4,2.8,1.2
			s1.1,1.9,1.1,3.2v0.1c0,0.8-0.2,1.6-0.5,2.2c-0.3,0.7-0.8,1.2-1.4,1.5s-1.3,0.5-2,0.5c-1.1,0-2.1-0.4-2.8-1.2s-1.1-1.9-1.1-3.2
			V4996.1z M214,4996.2c0,0.9,0.2,1.7,0.7,2.3c0.4,0.6,1,0.9,1.7,0.9c0.7,0,1.3-0.3,1.8-0.9c0.4-0.6,0.6-1.4,0.6-2.4
			c0-0.9-0.2-1.7-0.7-2.3c-0.4-0.6-1-0.9-1.8-0.9c-0.7,0-1.3,0.3-1.7,0.9S214,4995.2,214,4996.2z"/>
		<path class="st1" d="M223.6,5000.4h-1.4v-12h1.4V5000.4z"/>
		<path class="st1" d="M225.6,4996.1c0-0.8,0.2-1.6,0.5-2.2c0.3-0.7,0.8-1.2,1.4-1.5c0.6-0.4,1.2-0.5,2-0.5c1.2,0,2.1,0.4,2.8,1.2
			s1.1,1.9,1.1,3.2v0.1c0,0.8-0.2,1.6-0.5,2.2c-0.3,0.7-0.8,1.2-1.4,1.5s-1.3,0.5-2,0.5c-1.1,0-2.1-0.4-2.8-1.2s-1.1-1.9-1.1-3.2
			V4996.1z M227,4996.2c0,0.9,0.2,1.7,0.7,2.3c0.4,0.6,1,0.9,1.7,0.9c0.7,0,1.3-0.3,1.8-0.9c0.4-0.6,0.6-1.4,0.6-2.4
			c0-0.9-0.2-1.7-0.7-2.3c-0.4-0.6-1-0.9-1.8-0.9c-0.7,0-1.3,0.3-1.7,0.9S227,4995.2,227,4996.2z M230.1,4988.4h1.8l-2.1,2.3l-1.2,0
			L230.1,4988.4z"/>
		<path class="st1" d="M234.7,4996.1c0-1.3,0.3-2.4,0.9-3.1s1.4-1.2,2.4-1.2c1,0,1.8,0.4,2.4,1.1l0.1-0.9h1.3v8.2c0,1.1-0.3,2-1,2.6
			s-1.5,0.9-2.6,0.9c-0.6,0-1.2-0.1-1.8-0.4c-0.6-0.3-1-0.6-1.3-1.1l0.8-0.9c0.6,0.8,1.4,1.1,2.3,1.1c0.7,0,1.3-0.2,1.6-0.6
			c0.4-0.4,0.6-1,0.6-1.7v-0.7c-0.6,0.7-1.4,1-2.4,1c-1,0-1.8-0.4-2.4-1.2C235,4998.5,234.7,4997.4,234.7,4996.1z M236.2,4996.2
			c0,1,0.2,1.7,0.6,2.2s0.9,0.8,1.6,0.8c0.9,0,1.6-0.4,2-1.2v-3.9c-0.4-0.8-1.1-1.2-2-1.2c-0.7,0-1.3,0.3-1.6,0.8
			C236.4,4994.4,236.2,4995.2,236.2,4996.2z"/>
		<path class="st1" d="M244.1,4989.7c0-0.2,0.1-0.4,0.2-0.6c0.1-0.2,0.4-0.2,0.6-0.2s0.5,0.1,0.6,0.2c0.1,0.2,0.2,0.4,0.2,0.6
			s-0.1,0.4-0.2,0.6c-0.1,0.2-0.4,0.2-0.6,0.2s-0.5-0.1-0.6-0.2C244.1,4990.1,244.1,4989.9,244.1,4989.7z M245.6,5000.4h-1.4v-8.5
			h1.4V5000.4z"/>
		<path class="st1" d="M251.3,4999.3c0.5,0,1-0.2,1.4-0.5c0.4-0.3,0.6-0.7,0.6-1.2h1.4c0,0.5-0.2,0.9-0.5,1.4
			c-0.3,0.4-0.7,0.8-1.2,1c-0.5,0.3-1.1,0.4-1.6,0.4c-1.2,0-2.1-0.4-2.7-1.2s-1-1.8-1-3.2v-0.2c0-0.8,0.2-1.6,0.5-2.2
			c0.3-0.6,0.7-1.1,1.3-1.5c0.6-0.4,1.2-0.5,2-0.5c0.9,0,1.7,0.3,2.4,0.9c0.6,0.6,1,1.3,1,2.2h-1.4c0-0.5-0.2-1-0.6-1.3
			c-0.4-0.4-0.8-0.5-1.4-0.5c-0.7,0-1.3,0.3-1.7,0.8c-0.4,0.5-0.6,1.3-0.6,2.3v0.3c0,1,0.2,1.7,0.6,2.2
			C250,4999.1,250.6,4999.3,251.3,4999.3z"/>
		<path class="st1" d="M261.5,5000.4c-0.1-0.2-0.2-0.5-0.2-0.9c-0.7,0.7-1.5,1-2.4,1c-0.8,0-1.5-0.2-2.1-0.7
			c-0.5-0.5-0.8-1.1-0.8-1.8c0-0.9,0.3-1.6,1-2.1c0.7-0.5,1.6-0.7,2.8-0.7h1.4v-0.7c0-0.5-0.2-0.9-0.5-1.2c-0.3-0.3-0.7-0.4-1.3-0.4
			c-0.5,0-0.9,0.1-1.3,0.4c-0.3,0.3-0.5,0.6-0.5,0.9h-1.5c0-0.4,0.1-0.8,0.4-1.2c0.3-0.4,0.7-0.7,1.2-0.9c0.5-0.2,1.1-0.3,1.7-0.3
			c1,0,1.7,0.2,2.3,0.7c0.6,0.5,0.8,1.2,0.9,2v3.9c0,0.8,0.1,1.4,0.3,1.9v0.1H261.5z M259.1,4999.3c0.5,0,0.9-0.1,1.3-0.4
			s0.7-0.5,0.9-0.9v-1.7h-1.1c-1.8,0-2.7,0.5-2.7,1.6c0,0.5,0.2,0.8,0.5,1.1C258.3,4999.1,258.7,4999.3,259.1,4999.3z"/>
		<path class="st1" d="M269.9,4998.1c0-0.4-0.1-0.7-0.4-0.9c-0.3-0.2-0.8-0.4-1.5-0.6c-0.7-0.2-1.3-0.3-1.7-0.6s-0.7-0.5-1-0.8
			c-0.2-0.3-0.3-0.7-0.3-1.1c0-0.7,0.3-1.3,0.9-1.8s1.3-0.7,2.2-0.7c1,0,1.7,0.2,2.3,0.7c0.6,0.5,0.9,1.1,0.9,1.9h-1.5
			c0-0.4-0.2-0.7-0.5-1s-0.8-0.4-1.3-0.4c-0.5,0-0.9,0.1-1.2,0.3s-0.4,0.5-0.4,0.9c0,0.3,0.1,0.6,0.4,0.8c0.3,0.2,0.8,0.3,1.5,0.5
			c0.7,0.2,1.3,0.4,1.8,0.6c0.4,0.2,0.8,0.5,1,0.8c0.2,0.3,0.3,0.7,0.3,1.2c0,0.8-0.3,1.4-0.9,1.8c-0.6,0.5-1.4,0.7-2.4,0.7
			c-0.7,0-1.3-0.1-1.8-0.4c-0.5-0.2-0.9-0.6-1.2-1c-0.3-0.4-0.4-0.9-0.4-1.4h1.4c0,0.5,0.2,0.9,0.6,1.2c0.4,0.3,0.8,0.4,1.4,0.4
			c0.5,0,1-0.1,1.3-0.3C269.8,4998.8,269.9,4998.5,269.9,4998.1z"/>
	</g>
	<path id="Trazado_124545" class="st2" d="M139,4809.9h368"/>
	<path id="Trazado_124547" class="st2" d="M139,4861.3h368"/>
	<path id="Trazado_124548" class="st2" d="M139,4914.5h368"/>
	<path id="Trazado_124549" class="st2" d="M139,4968.5h368"/>
	<g id="piramide" transform="translate(273 4609.006)">
		<g id="freepik--background-complete--inject-31" transform="translate(69.8 55)">
			<rect id="Rectángulo_29951" x="0" y="327.4" class="st3" width="494.2" height="0.2"/>
			<rect id="Rectángulo_29952" x="320.7" y="334.2" class="st3" width="33.1" height="0.2"/>
			<rect id="Rectángulo_29953" x="422.7" y="336.4" class="st3" width="8.7" height="0.2"/>
			<rect id="Rectángulo_29954" x="354.5" y="343.5" class="st3" width="19.2" height="0.2"/>
			<rect id="Rectángulo_29955" x="204.3" y="340.1" class="st3" width="43.2" height="0.2"/>
			<rect id="Rectángulo_29956" x="189.4" y="340.1" class="st3" width="6.3" height="0.2"/>
			<rect id="Rectángulo_29957" x="79.2" y="335.9" class="st3" width="93.7" height="0.2"/>
			<path id="Trazado_122022" class="st3" d="M237,282.8H43.9c-3.1,0-5.7-2.6-5.7-5.7V5.7c0-3.1,2.6-5.7,5.7-5.7H237
				c3.2,0,5.7,2.6,5.7,5.7c0,0,0,0,0,0v271.4C242.7,280.2,240.2,282.8,237,282.8z M43.9,0.2c-3,0-5.5,2.4-5.5,5.5v271.4
				c0,3,2.4,5.5,5.5,5.5H237c3,0,5.5-2.4,5.5-5.5V5.7c0-3-2.4-5.5-5.5-5.5H43.9z"/>
			<path id="Trazado_122023" class="st3" d="M447.5,282.8H254.4c-3.2,0-5.7-2.6-5.7-5.7V5.7c0-3.1,2.6-5.7,5.7-5.7h193.1
				c3.1,0,5.7,2.5,5.7,5.7v271.4C453.2,280.2,450.6,282.8,447.5,282.8z M254.4,0.2c-3,0-5.5,2.4-5.5,5.5v271.4c0,3,2.4,5.5,5.5,5.5
				h193.1c3,0,5.5-2.4,5.5-5.5V5.7c0-3-2.4-5.5-5.5-5.5H254.4z"/>
			<path id="Trazado_122024" class="st4" d="M458.6,252.7c-5.2-1.8-9-6.8-5.7-12c5.5-8.5-8.2-10.4-4.4-24.6
				c5.4-20.2,22.3-2.7,26.5-22.1c3-14.1,26.7-23.3,27.6-4.8c1,20.3,11.2,7.1,13.5,29.6c1.6,15.6-20.7,17.9-14,22.8
				c4.9,3.6,7.7,9.8,0.9,14c-9.2,5.8-0.5,10.3-6.8,14.4c-6.3,4-7.3-2.4-17,0.7c-8.7,2.8-16.1-5.8-14.3-11.2
				C466.6,254.6,463.8,254.5,458.6,252.7z"/>
			<path id="Trazado_122025" class="st5" d="M510.1,261c0,0-0.7,65.4-28.1,65.4c-27.4,0-28.1-65.4-28.1-65.4H510.1z"/>
			<rect id="Rectángulo_29958" x="276.3" y="28.9" class="st4" width="155.7" height="144.1"/>
			<rect id="Rectángulo_29959" x="272.6" y="28.9" class="st5" width="157.7" height="144.1"/>
			<rect id="Rectángulo_29960" x="277.9" y="34.8" class="st6" width="147.2" height="132.4"/>
			<path id="Trazado_122026" class="st7" d="M339.1,167.1l26-132.4h34.1l-26,132.4H339.1z"/>
			<path id="Trazado_122027" class="st7" d="M378.2,167.1l26-132.4h15.4l-26,132.4H378.2z"/>
			<path id="Trazado_122028" class="st7" d="M297.2,167.1l26-132.4h5.6l-26,132.4H297.2z"/>
			<rect id="Rectángulo_29961" x="279.1" y="34.8" class="st4" width="0.7" height="132.4"/>
			<path id="Trazado_122029" class="st8" d="M435.6,28.7v101.2h-15.1c0,0-27.1-61.8-33.3-98.2c-0.6-3.3,1.7-6.4,5-7
				c0.3-0.1,0.7-0.1,1-0.1h38.4C433.8,24.6,435.6,26.4,435.6,28.7z"/>
			<path id="Trazado_122030" class="st8" d="M435.5,187.1v-52.7h-15.1c0,0-9.4,31-13,52.7H435.5z"/>
			<path id="Rectángulo_29962" class="st9" d="M428.1,134.4H414c-0.8,0-1.5-0.7-1.5-1.5v-1.6c0-0.8,0.7-1.5,1.5-1.5h14.1
				c0.8,0,1.5,0.7,1.5,1.5v1.6C429.6,133.8,429,134.4,428.1,134.4z"/>
			<path id="Trazado_122031" class="st8" d="M269.4,28.7v101.2h15.1c0,0,27.1-61.8,33.3-98.2c0.6-3.3-1.7-6.4-5-7
				c-0.3-0.1-0.7-0.1-1-0.1h-38.3C271.2,24.6,269.4,26.4,269.4,28.7z"/>
			<path id="Trazado_122032" class="st8" d="M269.5,187.1v-52.7h15.1c0,0,9.4,31,13,52.7H269.5z"/>
			<path id="Rectángulo_29963" class="st9" d="M270.1,129.8h14.1c0.8,0,1.5,0.7,1.5,1.5v1.6c0,0.8-0.7,1.5-1.5,1.5h-14.1
				c-0.8,0-1.5-0.7-1.5-1.5v-1.6C268.6,130.5,269.3,129.8,270.1,129.8z"/>
			<rect id="Rectángulo_29964" x="220.5" y="229.3" class="st4" width="37.8" height="98.1"/>
			<path id="Trazado_122033" class="st10" d="M230.6,327.4h-10.1v-16.9h20.7L230.6,327.4z"/>
			<rect id="Rectángulo_29965" x="399.1" y="229.3" class="st4" width="37.8" height="98.1"/>
			<rect id="Rectángulo_29966" x="219.2" y="229.3" class="st10" width="189.6" height="92.2"/>
			<rect id="Rectángulo_29967" x="227.1" y="237.9" class="st5" width="174" height="19.3"/>
			<path id="Trazado_122034" class="st10" d="M398.1,327.4h10.1v-16.9h-20.7L398.1,327.4z"/>
			<rect id="Rectángulo_29968" x="227.1" y="265.8" class="st5" width="174" height="19.3"/>
			<rect id="Rectángulo_29969" x="227.1" y="293.7" class="st5" width="174" height="19.3"/>
			<rect id="Rectángulo_29970" x="132.7" y="40.5" class="st4" width="81.2" height="88.2"/>
			<rect id="Rectángulo_29971" x="125.9" y="40.5" class="st10" width="86.1" height="88.2"/>
			<rect id="Rectángulo_29972" x="131.4" y="45.9" class="st7" width="75.1" height="77.2"/>
			<path id="Trazado_122035" class="st10" d="M193.2,94.7L193.2,94.7c0-11.3-9.1-20.4-20.4-20.4c0,0,0,0,0,0h-28.3
				c0,11.3,9.1,20.4,20.4,20.4h0H193.2z"/>
			<rect id="Rectángulo_29973" x="66.3" y="30.9" class="st4" width="48.3" height="53.6"/>
			<rect id="Rectángulo_29974" x="59.5" y="30.9" class="st10" width="53.2" height="53.6"/>
			<rect id="Rectángulo_29975" x="65" y="36.4" class="st7" width="42.2" height="42.7"/>
			
				<rect id="Rectángulo_29976" x="82.7" y="48.9" transform="matrix(0.7071 -0.7071 0.7071 0.7071 -14.0025 81.6558)" class="st10" width="17.6" height="17.6"/>
		</g>
		<g id="freepik--Shadow--inject-31" transform="translate(50.11 402.92)">
			<ellipse id="freepik--path--inject-31" class="st11" cx="193.9" cy="11.3" rx="193.9" ry="11.3"/>
		</g>
		<g id="freepik--Pyramid--inject-31" transform="translate(51.625 198.95)">
			<path id="Trazado_122036" class="st12" d="M0,214.8h310l-31-53.7H31L0,214.8z"/>
			<path id="Trazado_122037" class="st13" d="M0,214.8h310l-31-53.7H31L0,214.8z"/>
			<path id="Trazado_122038" class="st12" d="M31,161.1h248l-31-53.7H62L31,161.1z"/>
			<path id="Trazado_122039" class="st14" d="M31,161.1h248l-31-53.7H62L31,161.1z"/>
			<path id="Trazado_122040" class="st12" d="M93,53.7l-31,53.7h186l-31-53.7L93,53.7z"/>
			<path id="Trazado_122041" class="st15" d="M93,53.7l-31,53.7h186l-31-53.7L93,53.7z"/>
			<path id="Trazado_122042" class="st12" d="M186,0h-62L93,53.7h124L186,0z"/>
			<path id="Trazado_122043" class="st16" d="M186,0h-62L93,53.7h124L186,0z"/>
		</g>
		<g id="freepik--character-2--inject-31" transform="translate(223.168 74.957)">
			<path id="Trazado_122044" class="st17" d="M117.4,47c0.5,0.4,1.2,0.9,1.8,1.4s1.2,1,1.8,1.6c1.2,1.1,2.4,2.2,3.5,3.4
				c2.2,2.3,4.2,4.9,5.9,7.6c0.4,0.6,1,1.6,0.9,1.5c0.1,0.4,0.2,0.7,0.1,1.1c-0.2,1.4-0.6,2.7-1.3,4c-1.5,3-3.2,5.8-5.1,8.5l2.8,2.7
				c2.9-2.4,5.5-5.2,7.6-8.2c1.2-1.7,2.1-3.7,2.6-5.8c0.3-1.4,0.4-2.8,0.1-4.1c-0.1-0.4-0.2-0.8-0.4-1.2c-0.1-0.3-0.2-0.5-0.4-0.8
				l-0.6-1.3c-1.8-3.4-3.9-6.5-6.5-9.4c-1.2-1.4-2.6-2.7-3.9-4c-0.7-0.6-1.4-1.2-2.1-1.8s-1.4-1.1-2.4-1.8L117.4,47z"/>
			<path id="Trazado_122045" class="st18" d="M116.7,35.4c4.9,0.2,12.3,10.1,12.3,10.1l-7.9,9.4c0,0-10-5.4-11.1-12.5
				C109.5,38.8,111.9,35.1,116.7,35.4z"/>
			<path id="Trazado_122046" class="st17" d="M126.3,75l-5.9,5l5.5,1.4c0,0,3.4-2,2.4-4.8L126.3,75z"/>
			<path id="Trazado_122047" class="st17" d="M120.4,82.9l2.9,2.8l2.7-4.3l-5.5-1.4L120.4,82.9z"/>
			<path id="Trazado_122048" class="st19" d="M79.8,22.7c0.2,0.5,0.2,1.1-0.2,1.2s-0.8-0.1-1-0.6s-0.2-1.1,0.2-1.2
				S79.6,22.2,79.8,22.7z"/>
			<path id="Trazado_122049" class="st19" d="M78.9,22l-1.4,0.3C77.5,22.3,78.6,23,78.9,22z"/>
			<path id="Trazado_122050" class="st20" d="M79.6,23.4c0.1,1.4,0,2.8-0.3,4.2c0.7,0.1,1.4-0.1,2-0.6L79.6,23.4z"/>
			<path id="Trazado_122051" class="st19" d="M77.5,19.6c0.1,0,0.1,0,0.1-0.1c0.6-0.6,1.5-0.9,2.3-0.8c0.2,0,0.4-0.1,0.4-0.2
				c0,0,0,0,0,0c0-0.2-0.1-0.4-0.3-0.4c-1.1-0.1-2.2,0.2-2.9,1c-0.1,0.1-0.1,0.3,0,0.5c0,0,0,0,0,0C77.3,19.6,77.4,19.7,77.5,19.6z"
				/>
			<path id="Trazado_122052" class="st17" d="M99.2,23.2c-0.1,4.3,1.7,11.2,5.1,13.4c0,0-2.2,4.6-9.9,6.1c-8.5,1.7-4.8-3.4-4.8-3.4
				c4.4-2,3.8-5.4,2.4-8.4L99.2,23.2z"/>
			<path id="Trazado_122053" class="st17" d="M77.3,47.1c-0.4,2.2-0.8,4.5-1.3,6.7s-0.9,4.5-1.4,6.8s-1.1,4.5-1.7,6.7
				c-0.3,1.1-0.6,2.2-0.9,3.3l-0.9,2.6c-0.4,0.6-0.8,1-1.4,1.4c-0.8,0.5-1.7,1-2.5,1.4c-2,0.9-4.1,1.7-6.2,2.3
				c-2.1,0.7-4.4,1.3-6.6,1.8s-4.5,1-6.8,1.5l0.4,3.9c4.9-0.1,9.7-0.6,14.5-1.5c2.5-0.5,4.9-1.1,7.3-2c1.3-0.5,2.5-1.1,3.7-1.8
				c1.5-0.8,2.8-2,3.7-3.5c0.1-0.2,0.3-0.5,0.4-0.7l0.2-0.4l0.1-0.3l0.3-0.9l0.6-1.7c0.4-1.1,0.8-2.3,1.2-3.4c0.8-2.3,1.5-4.6,2.1-7
				c1.3-4.7,2.3-9.4,3-14.2L77.3,47.1z"/>
			<path id="Trazado_122054" class="st12" d="M21.7,56.3l39.5,47.8L0,114.4L21.7,56.3z"/>
			<path id="Trazado_122055" class="st17" d="M48.9,82l-5.6-1.9l-0.6,5.2c0,0,5.1,2.7,7-1L48.9,82z"/>
			<path id="Trazado_122056" class="st17" d="M40.4,81.8l-1.9,4.9l4.2-1.4l0.6-5.2L40.4,81.8z"/>
			<path id="Trazado_122057" class="st17" d="M119.2,242.3l-7.1,0.5l-2.1-16.3l7.1-0.5L119.2,242.3z"/>
			<path id="Trazado_122058" class="st17" d="M164.1,222.7l-6.5,3l-8.7-13.8l6.5-3L164.1,222.7z"/>
			<path id="Trazado_122059" class="st19" d="M155.9,224.2l6.4-4.9c0.2-0.2,0.5-0.2,0.8,0l4.5,4.4c0.4,0.5,0.4,1.2-0.1,1.6
				c0,0-0.1,0.1-0.1,0.1c-2.3,1.7-3.4,2.4-6.3,4.5c-1.7,1.3-4.1,3.5-6.5,5.3s-4.3-0.4-3.5-1.3c3.8-4.4,3.5-6.2,4-8.6
				C155.3,224.8,155.5,224.4,155.9,224.2z"/>
			<path id="Trazado_122060" class="st19" d="M111.7,241.8h8c0.3,0,0.5,0.2,0.6,0.5l1.1,6.3c0.1,0.6-0.3,1.2-0.9,1.2
				c-0.1,0-0.1,0-0.2,0c-2.8,0-4.1-0.2-7.6-0.2c-2.2,0-6.6,0.2-9.6,0.2s-3.2-2.9-2-3.2c5.5-1.2,7.7-2.9,9.5-4.4
				C110.9,242,111.3,241.9,111.7,241.8z"/>
			<path id="Trazado_122061" class="st21" d="M110,226.6l1.2,9l7-1.2l-1.1-8.4L110,226.6z"/>
			<path id="Trazado_122062" class="st21" d="M155.4,208.9l-6.5,3l3.9,6.1l6.4-3.3L155.4,208.9z"/>
			<path id="Trazado_122063" class="st18" d="M118.7,78.6L90.3,84C76.8,44.5,80.1,43.2,80.1,43.2c2.1-1.1,4.2-2.1,6.4-3l0.4-0.2
				c1.8-0.7,2.2-0.8,4.6-1.5c4.2-1,8.1-1.8,12.9-2.5c0.3,0,0.6-0.1,0.9-0.1c0.9-0.1,1.8-0.2,2.6-0.3c0.6-0.1,1.1-0.1,1.7-0.1
				l1.8-0.1c3.1-0.2,5.3-0.1,5.3-0.1C115.2,60,116.3,67.1,118.7,78.6z"/>
			<path id="Trazado_122064" class="st21" d="M85.8,55.3c0.8,4.1,0.5,8.4-0.8,12.4c-2.4-7.7-3.7-13-4.4-16.7
				C82.7,50.7,85,51.4,85.8,55.3z"/>
			<path id="Trazado_122065" class="st18" d="M80.3,43.1c-4.7,3.1-7.8,10-8.6,13.9l11,9c0,0,6-13.4,4-16.8
				C84.7,45.6,82.1,41.9,80.3,43.1z"/>
			<path id="Trazado_122066" class="st17" d="M96.4,12.7c2.6,6.5,3.8,9.2,2.1,14.1C96,34.1,87.4,36.1,83,30.5
				c-4-5-7.5-14.8-2.5-20.5c3.3-4,9.3-4.5,13.2-1.1C94.9,9.9,95.8,11.2,96.4,12.7z"/>
			<path id="Trazado_122067" class="st17" d="M84.3,19.8c0.3,1.3,0.2,2.6-0.2,3.8c-0.6,1.7-2,1.7-2.6,0.5s-1-3.3,0.1-4.7
				S83.9,18.4,84.3,19.8z"/>
			<path id="Trazado_122068" class="st19" d="M95.6,1.5c3.9-0.5,7.6,1.6,9.2,5.1c2.4,4.8,4.7,11.2,8.2,9.9c-0.6,1-2.7,2.1-3.4,1.7
				c2.3,2.3,2.8,4.2,3.3,9c0.6,5.9,3.9,4.6,3.9,4.6s-3.8,6.2-16.3,8.4c-11.1,2-16.3-0.5-17.8-2.6c1.5-0.5,3.9-6,1.8-9.1
				s-5.8-11.8-5.2-15.2c-1.4,2.1-1.4,5.5-2.6,2.1s-1.6-7,2.6-11.2C83,0.3,93.9-1.5,95.6,1.5z"/>
			<path id="Trazado_122069" class="st19" d="M97.8,82.6c0,0,13.9,46.4,20.6,73.1c7.1,28.2,31.5,61.3,31.5,61.3l9-5
				c0,0-14.8-31.6-21.7-57.9c-14-53.4-7.3-64.7-18.5-75.6L97.8,82.6z"/>
			<path id="Trazado_122070" class="st12" d="M149,217.9l11.2-6.2l-1.6-3.3l-13.2,6.1L149,217.9z"/>
			<path id="Trazado_122071" class="st21" d="M104.3,92.5c9.1,7,9.7,33.7,9.5,45.8c-4.6-16.9-10.1-35.6-13.3-46.5
				C101.4,91,102.6,91.2,104.3,92.5z"/>
			<path id="Trazado_122072" class="st12" d="M153.1,227.1c0.1,0,0.2,0.1,0.2,0.1c0.9,0.1,2.1-1.1,2.7-1.9c0-0.1,0-0.1,0-0.2
				c0-0.1-0.1-0.1-0.2,0c-0.3,0-2.9,0.3-3.3,1.1c-0.1,0.2-0.1,0.4,0,0.6C152.7,226.9,152.9,227,153.1,227.1L153.1,227.1z
				 M155.5,225.4c-0.9,1-1.6,1.5-2.1,1.5c-0.2,0-0.4-0.2-0.5-0.4c0-0.1,0-0.2,0-0.2C153.2,225.8,154.5,225.5,155.5,225.4
				L155.5,225.4z"/>
			<path id="Trazado_122073" class="st19" d="M90.7,84c0,0-1.8,56.1,2.2,77.3c4.1,22,16.7,72,16.7,72l10.2-1.3
				c0,0-6.5-50.5-9.2-72.4c-3-23.8,0.9-79.6,0.9-79.6L90.7,84z"/>
			<path id="Trazado_122074" class="st12" d="M107.4,234l14.6-1.9l-0.2-3.5l-15.9,0.7L107.4,234z"/>
			<path id="Trazado_122075" class="st12" d="M153.8,225c0.7,0.3,1.5,0.4,2.2,0.4c0.1,0,0.1,0,0.1-0.1c0-0.1,0-0.1,0-0.2
				c-0.1-0.1-1.3-1.6-2.3-1.7c-0.3,0-0.5,0.1-0.7,0.3c-0.2,0.2-0.3,0.5-0.2,0.7C153.1,224.6,153.4,224.9,153.8,225z M155.6,225
				c-0.9,0-2.2-0.4-2.4-0.8c0-0.1,0-0.3,0.1-0.3c0.1-0.1,0.3-0.2,0.5-0.2C154.4,223.7,155.2,224.5,155.6,225L155.6,225z"/>
			<path id="Trazado_122076" class="st12" d="M109.1,243c0.7,0,1.5-0.1,2.2-0.2c0.1,0,0.1-0.1,0.1-0.1c0-0.1,0-0.1-0.1-0.2
				c-0.3-0.2-3.2-1.6-4.1-1.1c-0.2,0.1-0.3,0.3-0.3,0.4c0,0.3,0.1,0.6,0.3,0.8C107.9,242.9,108.5,243.1,109.1,243z M110.7,242.6
				c-1.6,0.3-2.7,0.2-3.2-0.2c-0.1-0.1-0.2-0.3-0.2-0.5c0-0.1,0-0.1,0.1-0.2C107.9,241.4,109.6,242,110.7,242.6L110.7,242.6z"/>
			<path id="Trazado_122077" class="st12" d="M111.3,242.8c0,0,0.1,0,0.1,0c0.1,0,0.1-0.1,0.1-0.1c0-0.1-0.3-3-1.9-3h-0.1
				c-0.5,0-0.6,0.3-0.6,0.5C108.6,241,110.3,242.5,111.3,242.8L111.3,242.8z M109.5,240c1,0,1.4,1.7,1.6,2.4c-0.9-0.5-2.1-1.7-2-2.2
				c0,0,0-0.2,0.3-0.2H109.5z"/>
			<path id="Trazado_122078" class="st12" d="M118.9,76.8l1.7,2.3c0.1,0.2-0.1,0.4-0.4,0.5l-29.8,5.8c-0.3,0.1-0.5,0-0.5-0.2
				l-0.7-2.5c-0.1-0.2,0.1-0.4,0.4-0.4l28.8-5.6C118.6,76.6,118.7,76.7,118.9,76.8L118.9,76.8z"/>
			<path id="Trazado_122079" class="st22" d="M118.9,76.8l1.7,2.3c0.1,0.2-0.1,0.4-0.4,0.5l-29.8,5.8c-0.3,0.1-0.5,0-0.5-0.2
				l-0.7-2.5c-0.1-0.2,0.1-0.4,0.4-0.4l28.8-5.6C118.6,76.6,118.7,76.7,118.9,76.8L118.9,76.8z"/>
			<path id="Trazado_122080" class="st19" d="M115.5,80.8l0.8-0.1c0.1,0,0.3-0.1,0.2-0.2l-0.9-3.2c0-0.1-0.2-0.1-0.3-0.1l-0.8,0.1
				c-0.1,0-0.2,0.1-0.2,0.2c0,0,0,0,0,0l0.9,3.2C115.2,80.7,115.4,80.8,115.5,80.8z"/>
			<path id="Trazado_122081" class="st19" d="M96.1,84.6l0.8-0.1c0.1,0,0.2-0.1,0.2-0.2L96.1,81c0-0.1-0.2-0.1-0.3-0.1L95,81
				c-0.1,0-0.2,0.1-0.2,0.2c0,0,0,0,0,0l0.9,3.2C95.7,84.6,95.9,84.6,96.1,84.6z"/>
			<path id="Trazado_122082" class="st19" d="M138.7,340.5h-2.5l-7.1-34.9l-1.2-6.1l-7.7-38H90.5l-16,79h-2.5l16.4-80.5
				c0.1-0.6,0.6-1,1.2-1h31.5c0.6,0,1.1,0.4,1.2,1l6.8,33.4l1.2,6.1L138.7,340.5z"/>
			<path id="Trazado_122083" class="st19" d="M186.2,340.5h-2.5l-16-79h-29.6l-7.7,38l-1.2,6.1l-7.1,34.9h-2.5l8.3-41l1.2-6.1
				l6.7-33.3c0.1-0.6,0.6-1,1.2-1h31.6c0.6,0,1.1,0.4,1.2,1L186.2,340.5z"/>
			<path id="Trazado_122084" class="st23" d="M86.1,249.9h86.1c4.1,0,7.4,3.3,7.4,7.4c0,0,0,0,0,0v0.2c0,1.5-1.2,2.7-2.7,2.7
				c0,0,0,0,0,0H81.3c-1.5,0-2.7-1.2-2.7-2.7c0,0,0,0,0,0v-0.2C78.6,253.3,81.9,249.9,86.1,249.9C86,249.9,86.1,249.9,86.1,249.9z"
				/>
		</g>
	</g>
	<path id="Trazado_125852" class="st24" d="M156.4,4780.8v-2.6l0-5.6v-2.6l9.5,5.4L156.4,4780.8z"/>
	<path id="Trazado_125856" class="st24" d="M156.4,4889.8v-2.6l0-5.6v-2.6l9.5,5.4L156.4,4889.8z"/>
	<path id="Trazado_125858" class="st24" d="M156.4,4945.4v-2.6l0-5.6v-2.6l9.5,5.4L156.4,4945.4z"/>
	<path id="Trazado_125854" class="st24" d="M156.4,4836.4v-2.6l0-5.6v-2.6l9.5,5.4L156.4,4836.4z"/>
	<path id="Trazado_125857" class="st24" d="M156.4,5000.9v-2.6l0-5.6v-2.6l9.5,5.4L156.4,5000.9z"/>
</g>
</svg>
