<svg xmlns="http://www.w3.org/2000/svg" width="456.656" height="313.372" viewBox="0 0 456.656 313.372">
  <g id="Mobile_Marketing-rafiki" data-name="Mobile Marketing-rafiki" transform="translate(57 -79.504)">
    <g id="freepik--background-complete--inject-7" transform="translate(-57 82.869)">
      <rect id="Rectángulo_29453" data-name="Rectángulo 29453" width="450.175" height="0.225" transform="translate(0 272.464)" fill="#ebebeb"/>
      <rect id="Rectángulo_29454" data-name="Rectángulo 29454" width="29.82" height="0.225" transform="translate(375.248 286.95)" fill="#ebebeb"/>
      <rect id="Rectángulo_29455" data-name="Rectángulo 29455" width="7.824" height="0.225" transform="translate(290.39 289.399)" fill="#ebebeb"/>
      <rect id="Rectángulo_29456" data-name="Rectángulo 29456" width="17.278" height="0.225" transform="translate(357.07 278.595)" fill="#ebebeb"/>
      <rect id="Rectángulo_29457" data-name="Rectángulo 29457" width="38.886" height="0.225" transform="translate(47.232 280.108)" fill="#ebebeb"/>
      <rect id="Rectángulo_29458" data-name="Rectángulo 29458" width="5.699" height="0.225" transform="translate(94.141 280.108)" fill="#ebebeb"/>
      <rect id="Rectángulo_29459" data-name="Rectángulo 29459" width="84.345" height="0.225" transform="translate(118.369 283.907)" fill="#ebebeb"/>
      <rect id="Rectángulo_29460" data-name="Rectángulo 29460" width="175.379" height="154.05" transform="translate(205.415)" fill="#e6e6e6"/>
      <rect id="Rectángulo_29461" data-name="Rectángulo 29461" width="177.819" height="154.05" transform="translate(207.558)" fill="#f0f0f0"/>
      <rect id="Rectángulo_29462" data-name="Rectángulo 29462" width="175.379" height="4.25" transform="translate(205.415 154.041)" fill="#e6e6e6"/>
      <rect id="Rectángulo_29463" data-name="Rectángulo 29463" width="177.819" height="4.25" transform="translate(215.174 154.041)" fill="#f0f0f0"/>
      <rect id="Rectángulo_29464" data-name="Rectángulo 29464" width="141.247" height="165.007" transform="translate(378.966 6.401) rotate(90)" fill="#fafafa"/>
      <path id="Trazado_117711" data-name="Trazado 117711" d="M262.17,228.128l18.2-141.238h31.5L293.664,228.128Z" transform="translate(-26.125 -80.489)" fill="#fff"/>
      <path id="Trazado_117712" data-name="Trazado 117712" d="M304.66,228.128,322.865,86.89h12.281L316.941,228.128Z" transform="translate(-30.36 -80.489)" fill="#fff"/>
      <rect id="Rectángulo_29465" data-name="Rectángulo 29465" width="141.247" height="0.81" transform="translate(378.975 6.392) rotate(90)" fill="#e6e6e6"/>
      <path id="Trazado_117713" data-name="Trazado 117713" d="M410.224,100.625H234.845L234.26,89.65H409.639Z" transform="translate(-23.344 -80.764)" fill="#e0e0e0" opacity="0.5"/>
      <path id="Trazado_117714" data-name="Trazado 117714" d="M410.224,120.656H234.845l-.585-10.966H409.639Z" transform="translate(-23.344 -82.761)" fill="#e0e0e0" opacity="0.5"/>
      <path id="Trazado_117715" data-name="Trazado 117715" d="M410.224,140.686H234.845l-.585-10.966H409.639Z" transform="translate(-23.344 -84.757)" fill="#e0e0e0" opacity="0.5"/>
      <path id="Trazado_117716" data-name="Trazado 117716" d="M410.224,160.725H234.845l-.585-10.975H409.639Z" transform="translate(-23.344 -86.753)" fill="#e0e0e0" opacity="0.5"/>
      <path id="Trazado_117717" data-name="Trazado 117717" d="M410.224,180.755H234.845l-.585-10.975H409.639Z" transform="translate(-23.344 -88.749)" fill="#e0e0e0" opacity="0.5"/>
      <path id="Trazado_117718" data-name="Trazado 117718" d="M410.224,200.785H234.845l-.585-10.975H409.639Z" transform="translate(-23.344 -90.745)" fill="#e0e0e0" opacity="0.5"/>
      <rect id="Rectángulo_29466" data-name="Rectángulo 29466" width="54.786" height="108.321" transform="translate(52.805 32.359)" fill="#e0e0e0"/>
      <rect id="Rectángulo_29467" data-name="Rectángulo 29467" width="55.867" height="108.321" transform="translate(54.975 32.359)" fill="#f5f5f5"/>
      <rect id="Rectángulo_29468" data-name="Rectángulo 29468" width="95.788" height="46.503" transform="translate(59.648 134.413) rotate(-90)" fill="#fff"/>
      <rect id="Rectángulo_29469" data-name="Rectángulo 29469" width="54.786" height="108.321" transform="translate(125.95 15.828)" fill="#e0e0e0"/>
      <rect id="Rectángulo_29470" data-name="Rectángulo 29470" width="55.867" height="108.321" transform="translate(128.12 15.828)" fill="#f5f5f5"/>
      <rect id="Rectángulo_29471" data-name="Rectángulo 29471" width="95.788" height="46.512" transform="translate(132.802 117.883) rotate(-90)" fill="#fff"/>
      <rect id="Rectángulo_29472" data-name="Rectángulo 29472" width="23.058" height="99.831" transform="translate(147.945 172.633)" fill="#e6e6e6"/>
      <path id="Trazado_117719" data-name="Trazado 117719" d="M184.562,381.275h4.376V371.11H179.97Z" transform="translate(-17.934 -108.811)" fill="#f0f0f0"/>
      <rect id="Rectángulo_29473" data-name="Rectángulo 29473" width="23.058" height="99.831" transform="translate(61.755 172.633)" fill="#e6e6e6"/>
      <rect id="Rectángulo_29474" data-name="Rectángulo 29474" width="90.017" height="93.591" transform="translate(80.986 172.633)" fill="#f0f0f0"/>
      <rect id="Rectángulo_29475" data-name="Rectángulo 29475" width="74.657" height="40.138" transform="translate(127.462 253.511) rotate(-90)" fill="#e6e6e6"/>
      <rect id="Rectángulo_29476" data-name="Rectángulo 29476" width="74.657" height="40.138" transform="translate(84.381 253.511) rotate(-90)" fill="#e6e6e6"/>
      <path id="Trazado_117720" data-name="Trazado 117720" d="M118.542,281.241H110.6A14.063,14.063,0,0,1,101.48,278h26.182A14.063,14.063,0,0,1,118.542,281.241Z" transform="translate(-10.113 -99.533)" fill="#f0f0f0"/>
      <path id="Trazado_117721" data-name="Trazado 117721" d="M166.842,281.241H158.9A14.046,14.046,0,0,1,149.78,278h26.182A14.063,14.063,0,0,1,166.842,281.241Z" transform="translate(-14.926 -99.533)" fill="#f0f0f0"/>
      <path id="Trazado_117722" data-name="Trazado 117722" d="M94.335,381.275H89.95V371.11h8.976Z" transform="translate(-8.964 -108.811)" fill="#f0f0f0"/>
      <path id="Trazado_117723" data-name="Trazado 117723" d="M113.42,260.94s.684,9.526,26.929,9.526,26.929-9.526,26.929-9.526Z" transform="translate(-11.302 -97.833)" fill="#e6e6e6"/>
      <rect id="Rectángulo_29477" data-name="Rectángulo 29477" width="197.014" height="16.494" transform="translate(402.582 205.811) rotate(180)" fill="#ebebeb"/>
      <rect id="Rectángulo_29478" data-name="Rectángulo 29478" width="55.921" height="16.494" transform="translate(261.497 205.811) rotate(180)" fill="#e0e0e0"/>
      <rect id="Rectángulo_29479" data-name="Rectángulo 29479" width="11.795" height="66.653" transform="translate(402.591 272.464) rotate(180)" fill="#ebebeb"/>
      <path id="Trazado_117724" data-name="Trazado 117724" d="M434.05,312.989l11.795-2.3V308.37H434.05Z" transform="translate(-43.253 -102.559)" fill="#e0e0e0"/>
      <rect id="Rectángulo_29480" data-name="Rectángulo 29480" width="11.795" height="66.653" transform="translate(217.362 272.464) rotate(180)" fill="#e0e0e0"/>
      <rect id="Rectángulo_29481" data-name="Rectángulo 29481" width="11.795" height="66.653" transform="translate(261.497 272.464) rotate(180)" fill="#ebebeb"/>
      <path id="Trazado_117725" data-name="Trazado 117725" d="M277.34,312.989l11.795-2.3V308.37H277.34Z" transform="translate(-27.637 -102.559)" fill="#e0e0e0"/>
      <rect id="Rectángulo_29482" data-name="Rectángulo 29482" width="11.795" height="66.653" transform="translate(365.668 272.464) rotate(180)" fill="#e0e0e0"/>
    </g>
    <g id="freepik--Shadow--inject-7" transform="translate(50.519 372.492)">
      <ellipse id="freepik--path--inject-7" cx="174.569" cy="10.192" rx="174.569" ry="10.192" fill="#f5f5f5"/>
    </g>
    <g id="freepik--Smartphone--inject-7" transform="translate(88.818 124.364)">
      <path id="Trazado_117726" data-name="Trazado 117726" d="M219.251,129.33h-107.4A12.263,12.263,0,0,0,99.5,142.538l15.4,229.049a14.406,14.406,0,0,0,14.135,13.235h107.4a12.245,12.245,0,0,0,12.344-13.235l-15.4-229.049a14.406,14.406,0,0,0-14.126-13.208Z" transform="translate(-98.729 -129.329)" fill="#26aab7"/>
      <path id="Trazado_117727" data-name="Trazado 117727" d="M219.251,129.33h-107.4A12.263,12.263,0,0,0,99.5,142.538l15.4,229.049a14.406,14.406,0,0,0,14.135,13.235h107.4a12.245,12.245,0,0,0,12.344-13.235l-15.4-229.049a14.406,14.406,0,0,0-14.126-13.208Z" transform="translate(-98.729 -129.329)" fill="#fff" opacity="0.3"/>
      <rect id="Rectángulo_29483" data-name="Rectángulo 29483" width="0.9" height="21.653" transform="matrix(0.998, -0.067, 0.067, 0.998, 0, 49.137)" fill="#26aab7"/>
      <rect id="Rectángulo_29484" data-name="Rectángulo 29484" width="0.9" height="9.706" transform="translate(2.247 82.101) rotate(-3.85)" fill="#26aab7"/>
      <path id="Trazado_117728" data-name="Trazado 117728" d="M122.689,374.648a3.6,3.6,0,0,1-6.987,1.495,13.748,13.748,0,0,1-.81-3.79L99.5,143.258a12.9,12.9,0,0,1,.306-3.844,3.6,3.6,0,0,1,7.122.585Z" transform="translate(-98.729 -130.049)" fill="#26aab7"/>
      <path id="Trazado_117729" data-name="Trazado 117729" d="M237.753,381.008H137.967a10.12,10.12,0,0,1-9.8-9.2l-15.4-229.04a7.914,7.914,0,0,1,8.022-8.616h99.786a10.12,10.12,0,0,1,9.8,9.193l15.4,229.049a7.932,7.932,0,0,1-8.022,8.616ZM120.789,135.113a6.96,6.96,0,0,0-7.059,7.59l15.4,229a9.121,9.121,0,0,0,8.841,8.3h99.786a6.96,6.96,0,0,0,7.059-7.59l-15.4-229.04a9.121,9.121,0,0,0-8.841-8.3Z" transform="translate(-100.052 -129.81)" fill="#fff"/>
      <g id="Grupo_55078" data-name="Grupo 55078" transform="translate(20.153 17.552)" opacity="0.5">
        <ellipse id="Elipse_4106" data-name="Elipse 4106" cx="40.102" cy="44.828" rx="40.102" ry="44.828" transform="translate(0 58.273) rotate(-46.6)" fill="#26aab7"/>
        <ellipse id="Elipse_4107" data-name="Elipse 4107" cx="32.079" cy="35.861" rx="32.079" ry="35.861" transform="translate(12.027 58.615) rotate(-46.6)" fill="#fff"/>
        <ellipse id="Elipse_4108" data-name="Elipse 4108" cx="24.057" cy="26.893" rx="24.057" ry="26.893" transform="matrix(0.687, -0.726, 0.726, 0.687, 24.052, 58.976)" fill="#26aab7"/>
        <ellipse id="Elipse_4109" data-name="Elipse 4109" cx="16.044" cy="17.935" rx="16.044" ry="17.935" transform="translate(36.07 59.281) rotate(-46.6)" fill="#fff"/>
        <ellipse id="Elipse_4110" data-name="Elipse 4110" cx="8.022" cy="8.967" rx="8.022" ry="8.967" transform="matrix(0.687, -0.726, 0.726, 0.687, 48.094, 59.637)" fill="#26aab7"/>
      </g>
      <path id="Trazado_117730" data-name="Trazado 117730" d="M190.992,277.815h-.477a14.838,14.838,0,0,0-12.983-8.013,13.316,13.316,0,0,0-4.061.63A15.225,15.225,0,0,0,160.29,262.5a12.911,12.911,0,0,0-13.1,12.767,10.084,10.084,0,0,0-9.454,10.921,11.894,11.894,0,0,0,11.7,10.957h42.875a8.931,8.931,0,0,0,9-9.679A10.507,10.507,0,0,0,190.992,277.815Z" transform="translate(-102.539 -142.6)" fill="#fff"/>
      <path id="Trazado_117731" data-name="Trazado 117731" d="M222.622,161.84h-.369a11.56,11.56,0,0,0-10.12-6.239,10.426,10.426,0,0,0-3.169.486,11.876,11.876,0,0,0-10.273-6.176,10.066,10.066,0,0,0-10.21,9.9,7.869,7.869,0,0,0-7.374,8.517,9.274,9.274,0,0,0,9.121,8.535h33.421a6.96,6.96,0,0,0,7.032-7.545,8.2,8.2,0,0,0-8.058-7.482Z" transform="translate(-106.862 -131.38)" fill="#fff"/>
      <path id="Trazado_117732" data-name="Trazado 117732" d="M234.809,318.86H173.081a3.205,3.205,0,0,0-3.232,3.466l2.5,36.815a3.754,3.754,0,0,0,3.7,3.466h8.283l.693,10.183,9.481-10.183h43.217a3.2,3.2,0,0,0,3.232-3.466l-2.494-36.815a3.772,3.772,0,0,0-3.655-3.466Z" transform="translate(-105.742 -148.216)" fill="#fff" opacity="0.3"/>
      <path id="Trazado_117733" data-name="Trazado 117733" d="M235.071,345.225h-57.5l-.315-4.655h57.505Z" transform="translate(-106.482 -150.38)" fill="#fff"/>
      <path id="Trazado_117734" data-name="Trazado 117734" d="M217.614,355.965H178.305l-.315-4.655H217.3Z" transform="translate(-106.554 -151.45)" fill="#fff"/>
      <path id="Trazado_117735" data-name="Trazado 117735" d="M234.35,334.485H176.845l-.315-4.655h57.505Z" transform="translate(-106.409 -149.309)" fill="#fff"/>
    </g>
    <g id="freepik--Character--inject-7" transform="translate(131.038 90.061)">
      <path id="Trazado_117736" data-name="Trazado 117736" d="M294.586,145.22l2.368,1.7q1.233.9,2.485,1.7c1.666,1.107,3.34,2.215,5.033,3.223s3.4,1.963,5.1,2.809a36.531,36.531,0,0,0,4.916,2.044,2.945,2.945,0,0,0-1.143-.054,2.17,2.17,0,0,0-.657.189c-.261.135-.18.144-.045.063a7,7,0,0,0,1.4-1.279,35.164,35.164,0,0,0,3.205-4.5c1.053-1.657,2.062-3.412,3.025-5.213s1.927-3.646,2.818-5.4l.063-.117a4.052,4.052,0,0,1,7.509,2.944,87.525,87.525,0,0,1-4.637,12.533,43.272,43.272,0,0,1-3.556,6.257,18.486,18.486,0,0,1-2.962,3.34,10.192,10.192,0,0,1-2.746,1.711,8.85,8.85,0,0,1-2.2.585,8,8,0,0,1-2.7-.153,44.848,44.848,0,0,1-7.041-2.26,64.232,64.232,0,0,1-6.248-2.944q-3-1.594-5.843-3.358c-.945-.594-1.882-1.2-2.809-1.8s-1.8-1.233-2.818-1.972a6.3,6.3,0,0,1,7.374-10.12Z" transform="translate(-159.445 -95.907)" fill="#26aab7"/>
      <path id="Trazado_117737" data-name="Trazado 117737" d="M294.586,145.22l2.368,1.7q1.233.9,2.485,1.7c1.666,1.107,3.34,2.215,5.033,3.223s3.4,1.963,5.1,2.809a36.531,36.531,0,0,0,4.916,2.044,2.945,2.945,0,0,0-1.143-.054,2.17,2.17,0,0,0-.657.189c-.261.135-.18.144-.045.063a7,7,0,0,0,1.4-1.279,35.164,35.164,0,0,0,3.205-4.5c1.053-1.657,2.062-3.412,3.025-5.213s1.927-3.646,2.818-5.4l.063-.117a4.052,4.052,0,0,1,7.509,2.944,87.525,87.525,0,0,1-4.637,12.533,43.272,43.272,0,0,1-3.556,6.257,18.486,18.486,0,0,1-2.962,3.34,10.192,10.192,0,0,1-2.746,1.711,8.85,8.85,0,0,1-2.2.585,8,8,0,0,1-2.7-.153,44.848,44.848,0,0,1-7.041-2.26,64.232,64.232,0,0,1-6.248-2.944q-3-1.594-5.843-3.358c-.945-.594-1.882-1.2-2.809-1.8s-1.8-1.233-2.818-1.972a6.3,6.3,0,0,1,7.374-10.12Z" transform="translate(-159.445 -95.907)" fill="#7d6eb2" opacity="0.2"/>
      <path id="Trazado_117738" data-name="Trazado 117738" d="M329.773,138.434l2.44-4.124,4.682,5.051a6.221,6.221,0,0,1-3.4,3.2,2.323,2.323,0,0,1-2.044-.27l-.9-.576a2.44,2.44,0,0,1-.774-3.277Z" transform="translate(-163.867 -95.523)" fill="#ffb573"/>
      <path id="Trazado_117739" data-name="Trazado 117739" d="M339.156,131.539l1.035.639a2.449,2.449,0,0,1,.333,3.917l-3.322,2.953L332.52,134l4.079-2.467a2.44,2.44,0,0,1,2.557.009Z" transform="translate(-164.174 -95.21)" fill="#ffb573"/>
      <path id="Trazado_117740" data-name="Trazado 117740" d="M232.02,406.292l7.131.207,2.683-16.512-7.122-.207Z" transform="translate(-154.159 -120.981)" fill="#ffb573"/>
      <path id="Trazado_117741" data-name="Trazado 117741" d="M240.112,406.008,232.143,405a.513.513,0,0,0-.585.423l-1.179,6.248a1.261,1.261,0,0,0,1.08,1.414c2.782.306,4.124.306,7.626.747,2.152.279,7.761,1.63,10.741,1.26s2.53-3.3,1.233-3.4c-5.807-.5-7.986-3.268-9.787-5.1A2.026,2.026,0,0,0,240.112,406.008Z" transform="translate(-153.995 -122.497)" fill="#263238"/>
      <path id="Trazado_117742" data-name="Trazado 117742" d="M234.847,389.79l7.131.207-1.387,8.508-7.131-.207Z" transform="translate(-154.303 -120.982)" opacity="0.2"/>
      <path id="Trazado_117743" data-name="Trazado 117743" d="M273.589,213.049s-6.221,59.054-10.363,79.114c-4.5,21.969-19.06,86.235-19.06,86.235l-13.046-.963s7.149-66.482,13-88c0-22.347,5.4-84.975,5.4-84.975Z" transform="translate(-154.07 -102.513)" fill="#263238"/>
      <path id="Trazado_117744" data-name="Trazado 117744" d="M254.35,235.5c-.117-4.619-2.62-6.1-5.087-6.05-.9,11.11-1.864,24.733-2.593,37.022C251.046,259.377,254.674,248.33,254.35,235.5Z" transform="translate(-155.619 -105.004)" opacity="0.3"/>
      <path id="Trazado_117745" data-name="Trazado 117745" d="M230.633,396.194l13.973,1.035,1.6-5.267L230.12,391.8Z" transform="translate(-153.97 -121.182)" fill="#fff"/>
      <path id="Trazado_117746" data-name="Trazado 117746" d="M151.71,345.578l4.493,5.555,13.442-9.7-4.5-5.546Z" transform="translate(-146.157 -115.611)" fill="#ffb573"/>
      <path id="Trazado_117747" data-name="Trazado 117747" d="M156.56,352.03l-4-6.96a.513.513,0,0,0-.684-.216l-5.7,2.827a1.26,1.26,0,0,0-.477,1.711c1.432,2.4,2.242,3.475,4,6.537,1.08,1.882,3.926,7.293,5.4,9.9s4.025,1.053,3.6-.18c-1.8-5.546-2.314-9.787-1.945-12.317a2.017,2.017,0,0,0-.2-1.306Z" transform="translate(-145.542 -116.498)" fill="#263238"/>
      <path id="Trazado_117748" data-name="Trazado 117748" d="M165.863,335.89l4.5,5.555-6.933,4.988-4.5-5.546Z" transform="translate(-146.876 -115.611)" opacity="0.2"/>
      <path id="Trazado_117749" data-name="Trazado 117749" d="M253.363,207.442s-17.548,50.221-25.525,69.093c-8.724,20.663-60.9,57.361-60.9,57.361L158.7,323.731s35.456-35.537,48.619-52.391c7.293-22.95,22.86-72.19,22.86-72.19Z" transform="translate(-146.853 -101.984)" fill="#263238"/>
      <path id="Trazado_117750" data-name="Trazado 117750" d="M158.33,336.71l8.9,10.984,4.349-2.512L161.157,333.55Z" transform="translate(-146.816 -115.377)" fill="#fff"/>
      <path id="Trazado_117751" data-name="Trazado 117751" d="M274.208,206.32,238.05,192.608c.9-3.3,5.627-13.01,9.832-26.524a182.447,182.447,0,0,0,6.915-30.612h0a2.242,2.242,0,0,1,2.62-1.936c.675.117,1.477.27,2.359.441,2.278.459,5.123,1.107,7.833,1.936a141.934,141.934,0,0,1,15.306,5.456,46.632,46.632,0,0,1,4.871,2.548,13.335,13.335,0,0,1,2.584,1.918,2.7,2.7,0,0,1,1,1.855C291.369,152.858,286.192,172.881,274.208,206.32Z" transform="translate(-154.76 -95.442)" fill="#f0f0f0"/>
      <path id="Trazado_117752" data-name="Trazado 117752" d="M285.4,139.418c-4.07-2.647-3.871-5.672-2.494-8.589a20.473,20.473,0,0,1,1.161-2.1l-3.917-6.618-2.881-4.853c-.63,5.33-2.557,14.766-7.059,16.855a19.808,19.808,0,0,0,10.021,7.383C286.875,143.568,285.4,139.418,285.4,139.418Z" transform="translate(-157.965 -93.824)" fill="#ffb573"/>
      <path id="Trazado_117753" data-name="Trazado 117753" d="M280.555,143.873l-.063-1.693-4.5.882Z" transform="translate(-158.541 -96.307)" fill="#e0e0e0"/>
      <path id="Trazado_117754" data-name="Trazado 117754" d="M281.06,143.908l.837-1.378,2.908,3.538Z" transform="translate(-159.046 -96.342)" fill="#e0e0e0"/>
      <path id="Trazado_117755" data-name="Trazado 117755" d="M270.539,135.033a42.515,42.515,0,0,0,9.094,6.392c-1.8,1.107-3.511,4.025-4.16,6.438-1.459-1.017-7.293-10.615-8.1-13.253Z" transform="translate(-157.682 -95.553)" fill="#fff"/>
      <path id="Trazado_117756" data-name="Trazado 117756" d="M285.725,140.73a7.2,7.2,0,0,1-3.745,1.621c.963,1.414,1.8,5.078,1.8,7.2a16.047,16.047,0,0,0,4.7-6.672Z" transform="translate(-159.138 -96.163)" fill="#fff"/>
      <path id="Trazado_117757" data-name="Trazado 117757" d="M284.758,140.59s3.935,1.891,7.41,4.034a7.716,7.716,0,0,1,3.385,8.634c-4.295,15.18-10.093,29.919-12.5,38.121-2.548,8.742-6.1,19.709-6.1,19.709l-6.131,1.45S286.2,153.753,284.758,140.59Z" transform="translate(-158.027 -96.149)" opacity="0.3"/>
      <path id="Trazado_117758" data-name="Trazado 117758" d="M267.423,134.22s-5.285-.693-9.9-.9a7.05,7.05,0,0,0-7.149,5.3c-2.341,9.256-4.07,26.956-6.437,33.844-2.944,8.607-6.933,25.39-6.933,25.39l20.942,12.1S279.1,144.961,267.423,134.22Z" transform="translate(-154.656 -95.423)" opacity="0.3"/>
      <path id="Trazado_117759" data-name="Trazado 117759" d="M267,134.22s-5.285-.693-9.9-.9a7.05,7.05,0,0,0-7.149,5.3c-2.341,9.256-5.528,26.542-7.905,33.439-2.962,8.607-9.247,23.238-9.247,23.238l26.416,12.389S278.682,144.961,267,134.22Z" transform="translate(-154.237 -95.423)" fill="#26aab7"/>
      <path id="Trazado_117760" data-name="Trazado 117760" d="M267,134.22s-5.285-.693-9.9-.9a7.05,7.05,0,0,0-7.149,5.3c-2.341,9.256-5.528,26.542-7.905,33.439-2.962,8.607-9.247,23.238-9.247,23.238l26.416,12.389S278.682,144.961,267,134.22Z" transform="translate(-154.237 -95.423)" fill="#7d6eb2" opacity="0.2"/>
      <path id="Trazado_117761" data-name="Trazado 117761" d="M284.951,140.59s3.935,1.891,7.41,4.034a7.716,7.716,0,0,1,3.385,8.634c-4.295,15.18-7.689,31.089-9.4,39.462-1.8,8.913-3.682,17.026-3.682,17.026l-9.9,1.342S286.391,153.753,284.951,140.59Z" transform="translate(-158.219 -96.149)" fill="#26aab7"/>
      <path id="Trazado_117762" data-name="Trazado 117762" d="M284.951,140.59s3.935,1.891,7.41,4.034a7.716,7.716,0,0,1,3.385,8.634c-4.295,15.18-7.689,31.089-9.4,39.462-1.8,8.913-3.682,17.026-3.682,17.026l-9.9,1.342S286.391,153.753,284.951,140.59Z" transform="translate(-158.219 -96.149)" fill="#7d6eb2" opacity="0.2"/>
      <path id="Trazado_117763" data-name="Trazado 117763" d="M285.083,129.268a20.477,20.477,0,0,0-1.161,2.125c-1.927-1.161-3.908-4.367-3.439-6.591a10.117,10.117,0,0,1,.684-2.152Z" transform="translate(-158.982 -94.361)" opacity="0.2"/>
      <path id="Trazado_117764" data-name="Trazado 117764" d="M291.769,99.68c4.79.621,6.546,7.086,3.9,11.353C291.327,104.74,291.769,99.68,291.769,99.68Z" transform="translate(-160.112 -92.072)" fill="#263238"/>
      <path id="Trazado_117765" data-name="Trazado 117765" d="M275.178,111.632c1.621,6.924,2.206,11.047,6.356,14.153a9.238,9.238,0,0,0,14.847-6.879c.45-6.474-2.269-16.71-9.607-18.565a9.346,9.346,0,0,0-11.6,11.29Z" transform="translate(-158.432 -92.103)" fill="#ffb573"/>
      <path id="Trazado_117766" data-name="Trazado 117766" d="M276.45,116.926c4.169.117,3.52-6.789,1.7-9.4,5.78.9,15.36-4.2,16.323-9.553,1.4-7.752-10.426-7.752-14.253-5.285,1.648.117,2.485,1.513,2.089,2.233,0,0-5.708-1.729-9.4.279,1.612.594,3.322,2.917-2.809,3.655-5.834.7-4.07,6.573-1.125,6.465-1.567,2.4-3.448,7.869.081,10.192s5.942,5.348,5.177,6.591C275.469,122.058,278.089,120.572,276.45,116.926Z" transform="translate(-157.57 -91.23)" fill="#263238"/>
      <path id="Trazado_117767" data-name="Trazado 117767" d="M269.712,106.28c-2.791.27-4.394,2.449-4.5,5.4a21.609,21.609,0,0,1,4.5-5.4Z" transform="translate(-157.467 -92.73)" fill="#263238"/>
      <path id="Trazado_117768" data-name="Trazado 117768" d="M273.321,119.433a6.3,6.3,0,0,0,3.421,3.079c1.954.711,2.98-1.017,2.476-2.944-.459-1.747-2.026-4.2-4.007-4.079S272.457,117.668,273.321,119.433Z" transform="translate(-158.24 -93.647)" fill="#ffb573"/>
      <path id="Trazado_117769" data-name="Trazado 117769" d="M287.4,113.385c.09.567.477.981.846.9s.594-.549.5-1.116-.477-.99-.855-.9S287.3,112.818,287.4,113.385Z" transform="translate(-159.675 -93.325)" fill="#263238"/>
      <path id="Trazado_117770" data-name="Trazado 117770" d="M294.567,112.424c.09.567.468.981.846.9s.594-.549.5-1.125-.477-.981-.855-.9S294.468,111.848,294.567,112.424Z" transform="translate(-160.39 -93.229)" fill="#263238"/>
      <path id="Trazado_117771" data-name="Trazado 117771" d="M292.34,113.17a21.8,21.8,0,0,0,3.547,4.5,3.331,3.331,0,0,1-2.638.9Z" transform="translate(-160.17 -93.416)" fill="#ed893e"/>
      <path id="Trazado_117772" data-name="Trazado 117772" d="M290.646,120.99a4.916,4.916,0,0,1-3.6-1.432.169.169,0,0,1,.243-.234,4.7,4.7,0,0,0,3.989,1.27.171.171,0,1,1,.045.333A4.331,4.331,0,0,1,290.646,120.99Z" transform="translate(-159.638 -94.025)" fill="#263238"/>
      <path id="Trazado_117773" data-name="Trazado 117773" d="M288.833,122.868a4.916,4.916,0,0,1-1.963-3.358.171.171,0,0,1,.153-.18.162.162,0,0,1,.18.153,4.8,4.8,0,0,0,2.359,3.466.162.162,0,0,1,.063.225.171.171,0,0,1-.234.063,6.656,6.656,0,0,1-.558-.369Z" transform="translate(-159.625 -94.03)" fill="#263238"/>
      <path id="Trazado_117774" data-name="Trazado 117774" d="M284.752,111.25a.3.3,0,0,1-.306-.459,3.277,3.277,0,0,1,2.5-1.8.338.338,0,1,1,.045.675,2.611,2.611,0,0,0-1.954,1.4A.315.315,0,0,1,284.752,111.25Z" transform="translate(-159.38 -93)" fill="#263238"/>
      <path id="Trazado_117775" data-name="Trazado 117775" d="M296.928,109.45a.324.324,0,0,1-.279-.144,2.827,2.827,0,0,0-2.161-1.26.342.342,0,0,1,0-.675h0a3.475,3.475,0,0,1,2.7,1.549.333.333,0,0,1-.081.468.3.3,0,0,1-.18.063Z" transform="translate(-160.356 -92.838)" fill="#263238"/>
      <path id="Trazado_117776" data-name="Trazado 117776" d="M258.341,145.088c-1.8,1.468-3.7,3.1-5.51,4.691s-3.655,3.232-5.4,4.907A105.429,105.429,0,0,0,237.687,165l-1.026,1.333-.126.171a.984.984,0,0,0,.072-.126,1.955,1.955,0,0,0,.135-.315,1.674,1.674,0,0,0,.108-.567c0-.306-.054-.306,0-.162a2.927,2.927,0,0,0,.234.8,12.965,12.965,0,0,0,1.351,2.413,31.7,31.7,0,0,0,2,2.629,65.991,65.991,0,0,0,4.772,5.222c1.7,1.7,3.5,3.421,5.222,5l.117.1a4.043,4.043,0,0,1-4.925,6.383,81.131,81.131,0,0,1-12.6-9.859c-.981-.981-1.945-2.008-2.89-3.142a25.453,25.453,0,0,1-2.7-3.953,14.883,14.883,0,0,1-1.143-2.7,10.093,10.093,0,0,1-.414-3.9,8.915,8.915,0,0,1,.558-2.4,9.119,9.119,0,0,1,.549-1.161l.324-.531.144-.216,1.17-1.738a97.958,97.958,0,0,1,10.381-12.236c1.8-1.873,3.691-3.7,5.609-5.465s3.817-3.466,5.933-5.2a6.3,6.3,0,0,1,7.86,9.679Z" transform="translate(-153.542 -95.542)" fill="#26aab7"/>
      <path id="Trazado_117777" data-name="Trazado 117777" d="M258.341,145.088c-1.8,1.468-3.7,3.1-5.51,4.691s-3.655,3.232-5.4,4.907A105.429,105.429,0,0,0,237.687,165l-1.026,1.333-.126.171a.984.984,0,0,0,.072-.126,1.955,1.955,0,0,0,.135-.315,1.674,1.674,0,0,0,.108-.567c0-.306-.054-.306,0-.162a2.927,2.927,0,0,0,.234.8,12.965,12.965,0,0,0,1.351,2.413,31.7,31.7,0,0,0,2,2.629,65.991,65.991,0,0,0,4.772,5.222c1.7,1.7,3.5,3.421,5.222,5l.117.1a4.043,4.043,0,0,1-4.925,6.383,81.131,81.131,0,0,1-12.6-9.859c-.981-.981-1.945-2.008-2.89-3.142a25.453,25.453,0,0,1-2.7-3.953,14.883,14.883,0,0,1-1.143-2.7,10.093,10.093,0,0,1-.414-3.9,8.915,8.915,0,0,1,.558-2.4,9.119,9.119,0,0,1,.549-1.161l.324-.531.144-.216,1.17-1.738a97.958,97.958,0,0,1,10.381-12.236c1.8-1.873,3.691-3.7,5.609-5.465s3.817-3.466,5.933-5.2a6.3,6.3,0,0,1,7.86,9.679Z" transform="translate(-153.542 -95.542)" fill="#7d6eb2" opacity="0.2"/>
      <path id="Trazado_117778" data-name="Trazado 117778" d="M254.091,188.206l6.122,3.745-7.824,4.457s-5.2-3.89-2.98-6.4l2.611-1.8A1.9,1.9,0,0,1,254.091,188.206Z" transform="translate(-155.837 -100.863)" fill="#ffb573"/>
      <path id="Trazado_117779" data-name="Trazado 117779" d="M260.937,199.244l-3.367,1.981a2.026,2.026,0,0,1-2.809-.756l-1.981-3.6,7.824-4.457,1.26,4.5A2.053,2.053,0,0,1,260.937,199.244Z" transform="translate(-156.228 -101.313)" fill="#ffb573"/>
    </g>
    <g id="freepik--Megaphone--inject-7" transform="translate(277.404 79.504)">
      <path id="Trazado_117780" data-name="Trazado 117780" d="M326.877,129.2l8.292-1.63c-2.278,4.016,1.071,7.86,4.079,10.273,1.432,1.152.423,3.214-1.8,3.6l-5.4,1.062C325.527,143.821,326.877,129.2,326.877,129.2Z" transform="translate(-309.967 -84.294)" fill="#26aab7"/>
      <path id="Trazado_117781" data-name="Trazado 117781" d="M321.723,127.178l19.015-3.682a11.452,11.452,0,0,0,9-13.415h0a11.47,11.47,0,0,0-13.415-9L317.32,104.8a11.479,11.479,0,0,0-9,13.424h0A11.461,11.461,0,0,0,321.723,127.178Z" transform="translate(-308.108 -81.633)" fill="#26aab7"/>
      <path id="Trazado_117782" data-name="Trazado 117782" d="M321.723,127.178l19.015-3.682a11.452,11.452,0,0,0,9-13.415h0a11.47,11.47,0,0,0-13.415-9L317.32,104.8a11.479,11.479,0,0,0-9,13.424h0A11.461,11.461,0,0,0,321.723,127.178Z" transform="translate(-308.108 -81.633)" fill="#fff" opacity="0.3"/>
      <path id="Trazado_117783" data-name="Trazado 117783" d="M376.263,128.931l-32.413-.432c-2.809.549-9.9-35.825-7.131-36.374l29.838-12.6Z" transform="translate(-310.896 -79.506)" fill="#26aab7"/>
      <path id="Trazado_117784" data-name="Trazado 117784" d="M372.128,104.719c2.7,13.649,6.005,24.49,7.437,24.21s.423-11.578-2.26-25.21-6.005-24.49-7.437-24.21S369.454,91.061,372.128,104.719Z" transform="translate(-314.197 -79.504)" fill="#26aab7"/>
      <path id="Trazado_117785" data-name="Trazado 117785" d="M372.128,104.719c2.7,13.649,6.005,24.49,7.437,24.21s.423-11.578-2.26-25.21-6.005-24.49-7.437-24.21S369.454,91.061,372.128,104.719Z" transform="translate(-314.197 -79.504)" opacity="0.3"/>
      <path id="Trazado_117786" data-name="Trazado 117786" d="M384.716,105.15c-.657-3.34-8.1-4.7-9.679-4.385s-2.341,3.268-1.693,6.609,2.476,5.789,4.061,5.483S385.346,108.481,384.716,105.15Z" transform="translate(-314.586 -81.618)" fill="#26aab7"/>
      <rect id="Rectángulo_29485" data-name="Rectángulo 29485" width="42.722" height="0.963" transform="matrix(0.987, -0.16, 0.16, 0.987, 78.093, 26.189)" fill="#26aab7"/>
      <rect id="Rectángulo_29486" data-name="Rectángulo 29486" width="22.725" height="0.963" transform="translate(74.117 15.903) rotate(-40.45)" fill="#26aab7"/>
      <rect id="Rectángulo_29487" data-name="Rectángulo 29487" width="0.963" height="6.726" transform="translate(99.652 43.16) rotate(-70.56)" fill="#26aab7"/>
      <rect id="Rectángulo_29488" data-name="Rectángulo 29488" width="0.963" height="16.927" transform="matrix(0.318, -0.948, 0.948, 0.318, 76.687, 35.338)" fill="#26aab7"/>
    </g>
  </g>
</svg>
