<svg xmlns="http://www.w3.org/2000/svg" width="130" height="130" viewBox="0 0 130 130">
  <g id="Grupo_55416" data-name="Grupo 55416" transform="translate(-231 -1185)">
    <g id="Elipse_4099" data-name="Elipse 4099" transform="translate(231 1185)" fill="#fff" stroke="#cbc5e0" stroke-width="4">
      <circle cx="65" cy="65" r="65" stroke="none"/>
      <circle cx="65" cy="65" r="63" fill="none"/>
    </g>
    <g id="marketing-05" transform="translate(248.244 1214.83)">
      <path id="Trazado_116961" data-name="Trazado 116961" d="M71.1,1.18A2.617,2.617,0,0,1,72.13,3.566c-.037,7.433-.022,14.865-.015,22.3a1.775,1.775,0,0,1-.951,1.873,1.6,1.6,0,0,1-2.319-1.375c-.015-.23-.007-.461-.007-.691V10.263c-.059-.022-.119-.037-.186-.059-.372.728-.758,1.442-1.122,2.178q-3.568,7.124-7.12,14.263A1.818,1.818,0,0,1,58.714,27.9c-.877-.015-1.308-.58-1.665-1.3Q53.091,18.65,49.1,10.716a.914.914,0,0,0-.424-.453v15.7c0,1.152-.58,1.866-1.546,1.94a1.568,1.568,0,0,1-1.717-1.457c-.015-.2-.007-.4-.007-.609,0-7.522.015-15.036-.022-22.558a2.164,2.164,0,0,1,1.078-2.089h1.212a6.724,6.724,0,0,1,.959,1.167c1.955,3.857,3.865,7.737,5.8,11.6,1.4,2.8,2.809,5.6,4.266,8.5a6.364,6.364,0,0,0,.372-.572C62.274,15.5,65.463,9.1,68.688,2.711a9.267,9.267,0,0,1,1.2-1.524C70.294,1.18,70.7,1.18,71.1,1.18Z" transform="translate(-11.2 -0.003)" fill="#3c4973"/>
      <path id="Trazado_116962" data-name="Trazado 116962" d="M15.651,1.18a6.578,6.578,0,0,1,1.122,1.256Q22.5,13.819,28.16,25.224c.714,1.427-.03,2.765-1.457,2.661a1.766,1.766,0,0,1-1.487-1.159Q21.571,19.4,17.9,12.083c-.773-1.546-1.546-3.1-2.326-4.645-.126-.245-.275-.476-.491-.847-.825,1.635-1.583,3.144-2.341,4.653Q8.932,18.869,5.119,26.5c-.892,1.776-2.1,1.9-3.359.372V25.655A4.277,4.277,0,0,0,2.1,25.18q5.652-11.3,11.312-22.587A7.838,7.838,0,0,1,14.6,1.18Z" transform="translate(-0.001 -0.003)" fill="#3c4973"/>
      <path id="Trazado_116963" data-name="Trazado 116963" d="M91.811,1.177c2.416,1.234,4.816,2.475,7.239,3.687q7.7,3.869,15.422,7.722c.84.424,1.821.743,1.814,1.955s-.974,1.509-1.828,1.94Q103.677,21.866,92.9,27.266c-.312.156-.617.32-.936.453a1.648,1.648,0,1,1-1.4-2.98c2.5-1.271,5.01-2.512,7.507-3.768q5.965-2.988,11.929-5.976c.245-.126.491-.268.862-.476-.617-.32-1.107-.595-1.613-.847Q100.106,9.1,90.964,4.522c-1.776-.892-1.91-2.089-.379-3.352C91,1.177,91.4,1.177,91.811,1.177Z" transform="translate(-22.535 0)" fill="#3c4973"/>
      <path id="Trazado_116964" data-name="Trazado 116964" d="M103.769,89.661a1.118,1.118,0,0,1-.78-1.2c.015-1.65-.03-3.3.022-4.943.015-.364.3-.981.535-1.018a1.562,1.562,0,0,1,1.249.416c.989,1.159,1.88,2.408,2.98,3.6,0-1.018.015-2.029-.007-3.047-.007-.543.067-1.041.714-1.063.691-.03.832.453.825,1.048-.015,1.68.022,3.352-.03,5.032-.007.342-.268.929-.461.951a1.533,1.533,0,0,1-1.182-.394c-1-1.182-1.91-2.445-3.047-3.649a28.544,28.544,0,0,1-.03,2.876,4.916,4.916,0,0,1-.624,1.39A1.152,1.152,0,0,1,103.769,89.661Z" transform="translate(-25.99 -20.855)" fill="#3c4973"/>
      <path id="Trazado_116965" data-name="Trazado 116965" d="M92.723,89.63a3.774,3.774,0,0,1-2.966-3.122,3.671,3.671,0,0,1,2.75-4.125,3.747,3.747,0,0,1,4.564,2.445,3.617,3.617,0,0,1-2.17,4.526c-.208.082-.409.186-.617.275Zm.714-1.479A2.1,2.1,0,0,0,95.6,85.958a2.207,2.207,0,0,0-2.081-2.222,2.21,2.21,0,0,0-.082,4.415Z" transform="translate(-22.585 -20.824)" fill="#3c4973"/>
      <path id="Trazado_116966" data-name="Trazado 116966" d="M36.689,89.623a12.739,12.739,0,0,1-1.174-.513,3.623,3.623,0,0,1-1.643-4.259,3.8,3.8,0,0,1,7.314.4,3.611,3.611,0,0,1-2.222,4.066c-.238.1-.468.2-.706.3Zm.832-1.487a2.186,2.186,0,0,0,2.1-2.207,2.246,2.246,0,0,0-2.2-2.215,2.209,2.209,0,0,0-2.089,2.222A2.17,2.17,0,0,0,37.521,88.137Z" transform="translate(-8.203 -20.817)" fill="#3c4973"/>
      <path id="Trazado_116967" data-name="Trazado 116967" d="M1.77,88.425q1.193-2.575,2.393-5.143a2.284,2.284,0,0,1,.505-.78,1.058,1.058,0,0,1,1.583.468c.818,1.784,1.591,3.582,2.393,5.366a.951.951,0,0,1-.453,1.308H7.842c-.193-.208-.5-.386-.55-.624-.245-1.055-.959-1.219-1.873-1.1a3.348,3.348,0,0,1-.862,0,.958.958,0,0,0-1.167.721,4.572,4.572,0,0,1-.751,1.011H1.77Zm2.572-1.977H6.192c-.327-.728-.609-1.353-.966-2.148C4.877,85.147,4.617,85.772,4.342,86.448Z" transform="translate(-0.004 -20.831)" fill="#3c4973"/>
      <path id="Trazado_116968" data-name="Trazado 116968" d="M63.725,89.645a1.1,1.1,0,0,1-.268-1.509c.773-1.643,1.479-3.315,2.207-4.98.208-.468.483-.966,1.07-.78a1.888,1.888,0,0,1,1.055.8c.81,1.657,1.509,3.367,2.282,5.039a.947.947,0,0,1-.446,1.427h-.171c-.3-.357-.6-.706-.9-1.063-.171-.208-.32-.595-.5-.609a10.5,10.5,0,0,0-2.646.022c-.3.059-.5.743-.751,1.137-.119.186-.275.349-.409.52Zm3-5.411c-.364.892-.639,1.553-.922,2.259h1.836C67.345,85.765,67.085,85.119,66.728,84.234Z" transform="translate(-15.795 -20.839)" fill="#3c4973"/>
      <path id="Trazado_116969" data-name="Trazado 116969" d="M1.77,54.668c.647-1.368,1.293-2.743,1.932-4.11a7.771,7.771,0,0,1,.617-1.33,1.418,1.418,0,0,1,.936-.587A1.249,1.249,0,0,1,6.2,49.2q1.293,2.7,2.423,5.463c.119.282-.178.736-.282,1.107-.357-.156-.959-.245-1.018-.476-.3-1.167-1.093-1.249-2.044-1.137a2.031,2.031,0,0,1-.52,0,1.133,1.133,0,0,0-1.42.862c-.342.951-.676,1.018-1.568.513Q1.77,55.1,1.77,54.668ZM5.241,50.55c-.357.87-.624,1.494-.907,2.178H6.177C5.873,52.022,5.605,51.4,5.241,50.55Z" transform="translate(-0.004 -12.188)" fill="#3c4973"/>
      <path id="Trazado_116970" data-name="Trazado 116970" d="M25.949,89.656c-.58-.238-1.182-.446-1.747-.721-.461-.223-.751-.624-.446-1.122.3-.476.706-.357,1.2-.156a8.414,8.414,0,0,0,2.118.461c.164.015.468-.327.52-.55.03-.149-.238-.453-.431-.543a14.069,14.069,0,0,0-1.553-.513C24.292,86.1,23.757,85.4,23.89,84.2A2.09,2.09,0,0,1,26.15,82.38a8.534,8.534,0,0,1,2.1.386c.52.149.87.557.6,1.13-.26.55-.736.4-1.2.216a3.139,3.139,0,0,0-1.226-.342c-.327.015-.647.327-.966.505.238.245.431.58.714.714.513.245,1.1.334,1.628.543a1.873,1.873,0,0,1,1.412,1.94A2.028,2.028,0,0,1,27.7,89.456a2.451,2.451,0,0,0-.364.193C26.878,89.656,26.41,89.656,25.949,89.656Z" transform="translate(-5.616 -20.85)" fill="#3c4973"/>
      <path id="Trazado_116971" data-name="Trazado 116971" d="M15.917,89.678c-.557-.223-1.122-.431-1.672-.676-.513-.23-.8-.647-.5-1.182.3-.513.736-.357,1.2-.141a5.193,5.193,0,0,0,1.695.543c.3.03.624-.372.944-.572-.23-.253-.416-.6-.706-.736-.513-.245-1.1-.334-1.635-.535a1.806,1.806,0,0,1-1.4-2.007,1.922,1.922,0,0,1,1.687-1.9,11.033,11.033,0,0,1,2.847.416.633.633,0,0,1,.409,1.018,1.287,1.287,0,0,1-1.018.282c-.5-.052-.981-.364-1.472-.386-.282-.015-.58.327-.87.505.208.238.364.565.624.7a10.542,10.542,0,0,0,1.4.439c1.219.409,1.7.974,1.717,1.992.015,1.085-.431,1.643-1.68,2.1a.937.937,0,0,0-.193.156C16.839,89.678,16.378,89.678,15.917,89.678Z" transform="translate(-3.047 -20.872)" fill="#3c4973"/>
      <path id="Trazado_116972" data-name="Trazado 116972" d="M49.349,89.632c-.23-.111-.453-.223-.684-.327a3.654,3.654,0,0,1-2.037-4.311A3.57,3.57,0,0,1,50.456,82.3a6.822,6.822,0,0,1,1.739.453c.505.2.929.609.587,1.219-.327.58-.81.468-1.33.156a1.962,1.962,0,0,0-2.549.111,2.371,2.371,0,0,0-.55,2.624,2.037,2.037,0,0,0,2.8,1.078c.208-.1.394-.327.595-.334a5.808,5.808,0,0,1,1.063.149c-.074.357-.037.84-.26,1.033a7.466,7.466,0,0,1-1.472.832C50.508,89.632,49.929,89.632,49.349,89.632Z" transform="translate(-11.49 -20.826)" fill="#3c4973"/>
      <path id="Trazado_116973" data-name="Trazado 116973" d="M76.268,89.37a6.966,6.966,0,0,1-.461-1.583c-.067-1.345-.022-2.705-.022-4.192a4.452,4.452,0,0,1-1.308-.03c-.334-.119-.587-.483-.877-.736.282-.238.557-.661.847-.676q2.163-.1,4.326,0a1.1,1.1,0,0,1,.766.706c.111.535-.334.728-.825.743-.4.007-.8,0-1.323,0,0,1.539.045,3-.03,4.46a4.11,4.11,0,0,1-.572,1.308Z" transform="translate(-18.446 -20.779)" fill="#3c4973"/>
      <path id="Trazado_116974" data-name="Trazado 116974" d="M58.98,89.666c-.216-.424-.6-.847-.624-1.278-.074-1.583-.022-3.181-.037-4.764,0-.58.03-1.182.78-1.2.84-.03.832.639.832,1.234.007,1.561.045,3.122-.03,4.682a4.316,4.316,0,0,1-.58,1.345A2.633,2.633,0,0,0,58.98,89.666Z" transform="translate(-14.521 -20.861)" fill="#3c4973"/>
      <path id="Trazado_116975" data-name="Trazado 116975" d="M85.111,89.659a1.162,1.162,0,0,1-.721-1.234c.03-1.643.015-3.285.007-4.935,0-.572.089-1.093.788-1.1s.788.52.78,1.093c-.015,1.643-.03,3.293.007,4.935a1.147,1.147,0,0,1-.691,1.241Z" transform="translate(-21.216 -20.853)" fill="#3c4973"/>
      <path id="Trazado_116976" data-name="Trazado 116976" d="M15.459,51.924c0,.981-.015,1.955.007,2.936.007.535-.141.959-.728.966-.624.015-.81-.424-.81-1,.007-1.732-.03-3.471.03-5.2a1.141,1.141,0,0,1,.572-.892,1.277,1.277,0,0,1,1.085.379c.661.9,1.211,1.888,1.873,2.958.6-.974,1.174-1.858,1.709-2.765.275-.476.609-.773,1.182-.639.624.149.647.632.647,1.152-.007,1.65-.015,3.293,0,4.943.007.543-.089,1.033-.728,1.055-.7.022-.818-.476-.81-1.063a17.065,17.065,0,0,0-.149-2.921c-.349.528-.7,1.063-1.063,1.591-.543.8-1.048.8-1.6.015-.178-.26-.342-.535-.513-.8s-.342-.52-.513-.773C15.578,51.887,15.519,51.9,15.459,51.924Z" transform="translate(-3.124 -12.187)" fill="#3c4973"/>
      <path id="Trazado_116977" data-name="Trazado 116977" d="M79.082,51.633v3.1c0,.565-.089,1.115-.8,1.1s-.766-.572-.758-1.13c.007-1.65-.03-3.3.03-4.943.015-.364.29-.951.55-1.011a1.442,1.442,0,0,1,1.174.409c.788.884,1.464,1.858,2.185,2.8a2.675,2.675,0,0,0,.825.766c0-.989.015-1.977-.007-2.958-.015-.58.1-1.107.78-1.107s.8.535.788,1.107c-.007,1.65.03,3.3-.03,4.943-.015.364-.282.966-.528,1.018a1.412,1.412,0,0,1-1.152-.439c-1-1.189-1.91-2.453-2.854-3.687C79.223,51.611,79.156,51.618,79.082,51.633Z" transform="translate(-19.453 -12.193)" fill="#3c4973"/>
      <path id="Trazado_116978" data-name="Trazado 116978" d="M42.232,53.288a6.612,6.612,0,0,1,.966,1.271c.141.312-.015.751-.03,1.137-.386-.052-.862.015-1.13-.193A4.5,4.5,0,0,1,41,54.247a1.37,1.37,0,0,0-1.769-.587,4.6,4.6,0,0,1-.03,1.36c-.111.334-.505.572-.773.855-.26-.26-.743-.513-.751-.788-.067-1.843-.037-3.694-.022-5.545.007-.617.409-.84.981-.832.751.007,1.5-.007,2.252.015,1.464.045,2.245.543,2.579,1.605C43.807,51.43,43.443,52.344,42.232,53.288Zm-2.966-1.174c.6,0,1.122.007,1.635,0,.6-.007,1-.275,1.033-.914.03-.684-.386-1-1.011-1.033-.535-.03-1.078-.007-1.657-.007Z" transform="translate(-9.212 -12.206)" fill="#3c4973"/>
      <path id="Trazado_116979" data-name="Trazado 116979" d="M28.768,50.126v1.42c.832,0,1.635.007,2.438,0,.491-.007.892.111.877.691s-.416.7-.9.7H28.79v1.442H31.5c.513,0,1.048.007,1.07.7.022.714-.52.721-1.033.721-1.1,0-2.2-.007-3.3,0-.7.007-1.078-.245-1.07-1.018q.033-2.553,0-5.121a.826.826,0,0,1,.944-.959c1.189,0,2.371-.007,3.56.007.468.007.974.164.84.714a1.236,1.236,0,0,1-.892.669A27.925,27.925,0,0,1,28.768,50.126Z" transform="translate(-6.525 -12.203)" fill="#3c4973"/>
      <path id="Trazado_116980" data-name="Trazado 116980" d="M69.1,54.133a6.5,6.5,0,0,1-.8-.007,1.041,1.041,0,0,0-1.338.855c-.037.164-.1.394-.23.453a1.586,1.586,0,0,1-.951.253.9.9,0,0,1-.334-.81c.818-1.97,1.657-3.924,2.572-5.849a.99.99,0,0,1,1.762.082c.884,1.873,1.709,3.776,2.5,5.693a.942.942,0,0,1-.334.884c-.238.111-.639-.134-.959-.238a.191.191,0,0,1-.089-.141A1.333,1.333,0,0,0,69.1,54.133Zm-1.159-1.4H69.78c-.3-.743-.572-1.4-.914-2.23C68.524,51.324,68.256,51.97,67.944,52.728Z" transform="translate(-16.35 -12.159)" fill="#3c4973"/>
      <path id="Trazado_116981" data-name="Trazado 116981" d="M58.075,48.37a12.712,12.712,0,0,1,2.066.773c.245.141.253.706.364,1.078a3.651,3.651,0,0,1-1.122.216,11.617,11.617,0,0,0-1.7-.424,1.882,1.882,0,0,0-1.739,1.665,2.3,2.3,0,0,0,.832,2.312,2.02,2.02,0,0,0,2.356.037c.1-.059.2-.178.29-.171.379.037.758.111,1.137.171-.1.349-.089.832-.327,1.026a3.6,3.6,0,0,1-3.6.572,3.317,3.317,0,0,1-2.319-2.683A3.785,3.785,0,0,1,58.075,48.37Z" transform="translate(-13.475 -12.119)" fill="#3c4973"/>
      <path id="Trazado_116982" data-name="Trazado 116982" d="M50.508,52.26c0,.87-.007,1.732,0,2.6.007.528-.164.951-.743.966-.624.022-.825-.409-.825-.974q.011-2.642,0-5.285c0-.55.223-.922.788-.929s.78.394.78.929C50.5,50.476,50.508,51.368,50.508,52.26Z" transform="translate(-12.114 -12.188)" fill="#3c4973"/>
      <g id="Grupo_55027" data-name="Grupo 55027" transform="translate(1.756 48.723)">
        <path id="Trazado_116983" data-name="Trazado 116983" d="M93.186,71.495a4,4,0,0,1-4.378,1,3.236,3.236,0,0,1-2.356-3.018,3.456,3.456,0,0,1,1.8-3.575,4.1,4.1,0,0,1,3.984-.037c.535.26.87.654.543,1.234-.312.55-.8.439-1.271.149a2.111,2.111,0,0,0-2.364-.111,2.186,2.186,0,0,0-1.018,2.148,2.145,2.145,0,0,0,3.181,1.747c.26-.149.327-.617.557-1.085a5.453,5.453,0,0,1-1.308-.111,1.009,1.009,0,0,1-.565-.632c-.03-.186.275-.609.453-.617.929-.045,1.9-.334,2.757.29C93.186,69.763,93.186,70.633,93.186,71.495Z" transform="translate(-23.496 -65.207)" fill="#3c4973"/>
        <path id="Trazado_116984" data-name="Trazado 116984" d="M7.073,68.83c-.349.528-.684,1.063-1.055,1.576-.453.639-.974.632-1.434-.022A9.08,9.08,0,0,0,3.32,68.8c0,.944-.007,1.888,0,2.824.007.543-.089,1.033-.743,1.055-.706.015-.81-.513-.81-1.078,0-1.65-.037-3.293.03-4.943a1.492,1.492,0,0,1,.58-1.085c.543-.3.951.119,1.241.6.528.877,1.085,1.747,1.7,2.735.6-.966,1.145-1.806,1.657-2.661.3-.505.639-.922,1.308-.714.609.193.587.706.587,1.211v4.764c0,.543-.015,1.13-.728,1.159-.736.03-.87-.535-.87-1.13-.007-.884,0-1.776,0-2.661C7.207,68.867,7.14,68.845,7.073,68.83Z" transform="translate(-1.756 -65.233)" fill="#3c4973"/>
        <path id="Trazado_116985" data-name="Trazado 116985" d="M79.531,69.544V66.637c0-.557.074-1.1.78-1.107s.78.528.773,1.093c-.007,1.643.03,3.293-.03,4.935-.015.364-.268.959-.505,1.018a1.393,1.393,0,0,1-1.137-.431c-.884-1.026-1.672-2.133-2.5-3.2-.126-.171-.282-.312-.587-.639,0,1.271-.007,2.326.007,3.382.007.557-.134,1.018-.766,1.018s-.78-.468-.78-1.026c.007-1.7-.022-3.4.03-5.106.007-.334.282-.892.505-.936a1.483,1.483,0,0,1,1.189.342c.989,1.159,1.888,2.4,2.817,3.6A1.9,1.9,0,0,0,79.531,69.544Z" transform="translate(-20.507 -65.248)" fill="#3c4973"/>
        <path id="Trazado_116986" data-name="Trazado 116986" d="M30.832,70.141a8.07,8.07,0,0,1,1.011,1.33,1.108,1.108,0,0,1-.067,1.026,1.084,1.084,0,0,1-1.041-.045,5.762,5.762,0,0,1-1.1-1.323,1.377,1.377,0,0,0-1.821-.587,4.5,4.5,0,0,1-.03,1.3c-.1.334-.483.587-.743.877-.275-.282-.766-.55-.78-.847-.074-1.814-.074-3.642,0-5.455a1.144,1.144,0,0,1,.8-.8,20.373,20.373,0,0,1,2.936.007,2.069,2.069,0,0,1,2.066,1.546,2.324,2.324,0,0,1-.847,2.7C31.1,69.948,30.988,70.03,30.832,70.141Zm-2.966-1.174c.617,0,1.189.022,1.754-.007a.967.967,0,0,0-.007-1.932c-.565-.037-1.13-.007-1.747-.007C27.866,67.7,27.866,68.291,27.866,68.967Z" transform="translate(-8.033 -65.258)" fill="#3c4973"/>
        <path id="Trazado_116987" data-name="Trazado 116987" d="M50.067,68.408c.8,0,1.546.015,2.289-.007.513-.015.989.082,1,.684s-.446.728-.966.714c-.773-.015-1.553-.007-2.341-.007v1.442c.951,0,1.866.007,2.78,0,.55-.007,1.041.111,1.026.758-.015.624-.535.661-1.018.661-1.159,0-2.312.007-3.471.007a.85.85,0,0,1-.959-.959V66.5a.824.824,0,0,1,.907-.922c1.211-.015,2.43-.015,3.642-.007.491.007.944.223.825.751a1.114,1.114,0,0,1-.832.639c-.944.082-1.9.03-2.884.03C50.067,67.486,50.067,67.9,50.067,68.408Z" transform="translate(-13.734 -65.256)" fill="#3c4973"/>
        <path id="Trazado_116988" data-name="Trazado 116988" d="M40.006,69.771a1.453,1.453,0,0,0-.9,1.68c.03.193.059.468-.045.587-.223.26-.535.624-.8.609a.994.994,0,0,1-.706-.684c-.059-1.9-.067-3.813-.007-5.716.007-.26.491-.505.751-.758.268.282.714.535.773.862a12.207,12.207,0,0,1,.037,2.193c.84-.818,1.531-1.487,2.215-2.163.164-.164.327-.327.5-.483.379-.364.8-.669,1.271-.2s.186.892-.208,1.264c-.587.55-1.174,1.1-1.8,1.687.595.758,1.174,1.472,1.724,2.207.379.505,1.1,1.048.29,1.665-.751.572-1.107-.2-1.486-.676C41.076,71.168,40.556,70.477,40.006,69.771Z" transform="translate(-10.935 -65.229)" fill="#3c4973"/>
        <path id="Trazado_116989" data-name="Trazado 116989" d="M17.651,65.15c.364.334.773.543.929.87.84,1.769,1.613,3.568,2.4,5.359.208.468.253,1-.32,1.13a1.143,1.143,0,0,1-1-.468c-.3-1.107-1.055-1.219-1.984-1.115a3.07,3.07,0,0,1-.691,0,.966.966,0,0,0-1.264.825c-.03.141-.082.334-.178.379-.32.164-.669.275-1.011.409-.111-.342-.4-.751-.3-1,.758-1.866,1.6-3.7,2.408-5.545.022-.052.037-.119.082-.149C16.99,65.641,17.25,65.447,17.651,65.15Zm.87,4.363c-.312-.758-.58-1.39-.914-2.193-.342.818-.617,1.464-.929,2.193Z" transform="translate(-4.954 -65.15)" fill="#3c4973"/>
        <path id="Trazado_116990" data-name="Trazado 116990" d="M60.386,67.016a5.935,5.935,0,0,1-1.472-.03c-.282-.082-.654-.461-.654-.706a.96.96,0,0,1,.669-.676c1.494-.059,3-.067,4.5.007.268.015.52.476.773.736-.26.223-.491.557-.788.639a5.88,5.88,0,0,1-1.427.03v3.716c0,.32-.007.632,0,.951.015.55-.156,1.011-.78,1.026s-.788-.439-.788-1c.015-1.33.007-2.653,0-3.984A5.066,5.066,0,0,0,60.386,67.016Z" transform="translate(-16.263 -65.255)" fill="#3c4973"/>
        <path id="Trazado_116991" data-name="Trazado 116991" d="M70.547,69.181c0,.862.007,1.732,0,2.594-.007.52-.26,1.011-.8.884a1.26,1.26,0,0,1-.758-.922c-.074-1.754-.037-3.516-.037-5.277,0-.528.216-.922.78-.951.595-.03.8.394.81.907C70.562,67.338,70.547,68.26,70.547,69.181Z" transform="translate(-19.007 -65.242)" fill="#3c4973"/>
      </g>
    </g>
  </g>
</svg>
