<svg xmlns="http://www.w3.org/2000/svg" width="368" height="216.454" viewBox="0 0 368 216.454">
  <g id="Free_shipping-rafiki" data-name="Free shipping-rafiki" transform="translate(0 -116.896)">
    <g id="freepik--background-complete--inject-447" transform="translate(0 116.896)">
      <rect id="Rectángulo_30124" data-name="Rectángulo 30124" width="368" height="0.207" transform="translate(0 179.046)" fill="#ebebeb"/>
      <rect id="Rectángulo_30125" data-name="Rectángulo 30125" width="27.435" height="0.207" transform="translate(299.064 192.374)" fill="#ebebeb"/>
      <rect id="Rectángulo_30126" data-name="Rectángulo 30126" width="7.198" height="0.207" transform="translate(236.855 194.627)" fill="#ebebeb"/>
      <rect id="Rectángulo_30127" data-name="Rectángulo 30127" width="15.896" height="0.207" transform="translate(290.428 184.687)" fill="#ebebeb"/>
      <rect id="Rectángulo_30128" data-name="Rectángulo 30128" width="35.777" height="0.207" transform="translate(43.456 186.078)" fill="#ebebeb"/>
      <rect id="Rectángulo_30129" data-name="Rectángulo 30129" width="5.244" height="0.207" transform="translate(76.832 186.078)" fill="#ebebeb"/>
      <rect id="Rectángulo_30130" data-name="Rectángulo 30130" width="77.601" height="0.207" transform="translate(93.962 189.574)" fill="#ebebeb"/>
      <path id="Trazado_123976" data-name="Trazado 123976" d="M139.09,344.7l4.067,9.311a9.841,9.841,0,0,0,9.029,5.923h16.956a8.491,8.491,0,0,0,6-2.485h31.668a7.72,7.72,0,0,0,6.262-3.205l4.183-5.8Z" transform="translate(-39.708 -196.883)" fill="#e0e0e0"/>
      <path id="Trazado_123977" data-name="Trazado 123977" d="M160.415,293.331c0,4.465,17.793,36.174,19.574,37.434S205,330.615,205,330.615l-1.706,6.577H139.507L113,285.76l17.52-25.29,31.933.886S160.415,288.874,160.415,293.331Z" transform="translate(-32.812 -172.123)" fill="#e6e6e6"/>
      <path id="Trazado_123978" data-name="Trazado 123978" d="M160.415,293.331c0,4.465,17.793,36.174,19.574,37.434S205,330.615,205,330.615l-1.706,6.577H139.507L113,285.76l17.52-25.29,31.933.886S160.415,288.874,160.415,293.331Z" transform="translate(-32.812 -172.123)" fill="#f0f0f0"/>
      <ellipse id="Elipse_4218" data-name="Elipse 4218" cx="26.019" cy="31.386" rx="26.019" ry="31.386" transform="translate(55.13 116.496)" fill="#e0e0e0"/>
      <ellipse id="Elipse_4219" data-name="Elipse 4219" cx="16.41" cy="19.798" rx="16.41" ry="19.798" transform="translate(60.152 128.085)" fill="#ebebeb"/>
      <path id="Trazado_123979" data-name="Trazado 123979" d="M96.464,334.51c-3.777,0-6.834,3.686-6.834,8.242s3.057,8.284,6.834,8.284,6.834-3.694,6.834-8.284S100.241,334.51,96.464,334.51Z" transform="translate(-23.945 -187.872)" fill="#e6e6e6"/>
      <path id="Trazado_123980" data-name="Trazado 123980" d="M96.464,334.51c-3.777,0-6.834,3.686-6.834,8.242s3.057,8.284,6.834,8.284,6.834-3.694,6.834-8.284S100.241,334.51,96.464,334.51Z" transform="translate(-23.945 -187.872)" fill="#e0e0e0"/>
      <path id="Trazado_123981" data-name="Trazado 123981" d="M268.146,285.329s-23.484,18.009-32.438,55.127H198.1l35.619-57.985,18.787-7.811Z" transform="translate(-56.022 -175.42)" fill="#e6e6e6"/>
      <path id="Trazado_123982" data-name="Trazado 123982" d="M270.615,283.5s-21.968,16.8-32.455,48.384a12.425,12.425,0,0,1-11.779,8.574H198.1l35.619-57.985,18.787-7.811Z" transform="translate(-56.182 -175.42)" fill="#e0e0e0"/>
      <path id="Trazado_123983" data-name="Trazado 123983" d="M246.279,278.159h-14.5a13.867,13.867,0,0,0-7.753,2.27c-8.607,5.732-28.993,21.72-31.113,47.051a6.71,6.71,0,0,1-6.627,6.18H123.235a59.88,59.88,0,0,1-30.158-8.146l-18.019-10.5a10.769,10.769,0,0,1-5.1-11.448c2.145-10.338,8.192-28.1,25.5-35.04.273-.124-.141-.232.688-.331V257.426h45.2s-9.062,21.612-9.062,30.525c0,8.441,8.913,40.714,20.444,44.027h15.739a11.912,11.912,0,0,0,10.172-6.213c7.671-13.693,24.71-49.2,19.4-82.753-.621-3.918,2.394-7.952,6.37-7.952h20.295s18.265,21.14,24.138,39.007C249.418,275.832,248.118,278.159,246.279,278.159Z" transform="translate(-11.97 -166.364)" fill="#e6e6e6"/>
      <path id="Trazado_123984" data-name="Trazado 123984" d="M233.593,223.885h-5.8a6.685,6.685,0,0,1-4.183-1.483l-11.92-9.65a2.651,2.651,0,0,0-1.657-.588H187.147a1.657,1.657,0,0,1,0-3.313h22.9a5.972,5.972,0,0,1,3.744,1.325l11.928,9.65a3.313,3.313,0,0,0,2.1.746h5.8a3.363,3.363,0,0,0,3.313-2.874l.522-3.719a6,6,0,0,1,5.906-5.128h4.365a1.657,1.657,0,1,1,0,3.313h-4.365a2.667,2.667,0,0,0-2.626,2.278l-.522,3.719A6.693,6.693,0,0,1,233.593,223.885Z" transform="translate(-52.094 -146.792)" fill="#e0e0e0"/>
      <path id="Trazado_123985" data-name="Trazado 123985" d="M230.213,218.49s.075,3.91-3.6,3.661l-1.193,4.216a4.44,4.44,0,0,0,.505,3.57l2.593,4.142h24.022l1.889-3.562a3.024,3.024,0,0,0-.505-3.537l-7.124-7.24a4.018,4.018,0,0,0-2.883-1.218Z" transform="translate(-61.065 -149.965)" fill="#e6e6e6"/>
      <path id="Trazado_123986" data-name="Trazado 123986" d="M230.213,218.49s.075,3.91-3.6,3.661l-1.193,4.216a4.44,4.44,0,0,0,.505,3.57l2.593,4.142h24.022l1.889-3.562a3.024,3.024,0,0,0-.505-3.537l-7.124-7.24a4.018,4.018,0,0,0-2.883-1.218Z" transform="translate(-61.065 -149.965)" fill="#e0e0e0"/>
      <ellipse id="Elipse_4220" data-name="Elipse 4220" cx="26.019" cy="31.386" rx="26.019" ry="31.386" transform="translate(180.415 116.496)" fill="#e0e0e0"/>
      <ellipse id="Elipse_4221" data-name="Elipse 4221" cx="16.41" cy="19.798" rx="16.41" ry="19.798" transform="translate(186.367 128.085)" fill="#ebebeb"/>
      <path id="Trazado_123987" data-name="Trazado 123987" d="M300.395,315.486c-2.742-4.655-10.073-14.745-23.252-17.694a25.746,25.746,0,0,0-10.3-.3l-.058-.141.058-.124h-.1l-2.27-5.169H261.9A9.65,9.65,0,0,0,256.1,294l-4.523,3.4,2.129,7.381a21.278,21.278,0,0,0-1.723,2.1,37.36,37.36,0,0,0-7.579,16.31,1.748,1.748,0,0,0,1.731,2.013H247.5a1.748,1.748,0,0,0,1.657-1.11,22.672,22.672,0,0,1,5.625-8.449L262.29,335.3l6.072-2.551-2.129-24.486s13.966-3.918,23.111,7.372a5.7,5.7,0,0,0,4.423,2.129h5.31a1.516,1.516,0,0,0,1.317-2.278Z" transform="translate(-68.062 -177.783)" fill="#e6e6e6"/>
      <path id="Trazado_123988" data-name="Trazado 123988" d="M300.395,315.486c-2.742-4.655-10.073-14.745-23.252-17.694a25.746,25.746,0,0,0-10.3-.3l-.058-.141.058-.124h-.1l-2.27-5.169H261.9A9.65,9.65,0,0,0,256.1,294l-4.523,3.4,2.129,7.381a21.278,21.278,0,0,0-1.723,2.1,37.36,37.36,0,0,0-7.579,16.31,1.748,1.748,0,0,0,1.731,2.013H247.5a1.748,1.748,0,0,0,1.657-1.11,22.672,22.672,0,0,1,5.625-8.449L262.29,335.3l6.072-2.551-2.129-24.486s13.966-3.918,23.111,7.372a5.7,5.7,0,0,0,4.423,2.129h5.31a1.516,1.516,0,0,0,1.317-2.278Z" transform="translate(-68.062 -177.783)" fill="#f0f0f0"/>
      <path id="Trazado_123989" data-name="Trazado 123989" d="M269.824,334.51c-3.777,0-6.834,3.686-6.834,8.242s3.057,8.284,6.834,8.284,6.834-3.694,6.834-8.284S273.6,334.51,269.824,334.51Z" transform="translate(-70.258 -187.872)" fill="#e6e6e6"/>
      <path id="Trazado_123990" data-name="Trazado 123990" d="M269.824,334.51c-3.777,0-6.834,3.686-6.834,8.242s3.057,8.284,6.834,8.284,6.834-3.694,6.834-8.284S273.6,334.51,269.824,334.51Z" transform="translate(-70.258 -187.872)" fill="#e0e0e0"/>
      <path id="Trazado_123991" data-name="Trazado 123991" d="M241.53,237.854s4.3,27.062,18.5,27.253c13.312.174,14.554-25.24,1.856-29.142C251.628,232.809,241.53,237.854,241.53,237.854Z" transform="translate(-65.457 -156.604)" fill="#e6e6e6"/>
      <path id="Trazado_123992" data-name="Trazado 123992" d="M241.53,237.854s4.3,27.062,18.5,27.253c13.312.174,14.554-25.24,1.856-29.142C251.628,232.809,241.53,237.854,241.53,237.854Z" transform="translate(-65.457 -156.604)" fill="#f0f0f0"/>
      <ellipse id="Elipse_4222" data-name="Elipse 4222" cx="9.791" cy="12.475" rx="9.791" ry="12.475" transform="translate(182.921 82.399) rotate(-6.86)" fill="#f5f5f5"/>
      <path id="Trazado_123993" data-name="Trazado 123993" d="M256.864,231.72H244.53l.977-1.59h11.357Z" transform="translate(-65.249 -152.712)" fill="#e6e6e6"/>
      <path id="Trazado_123994" data-name="Trazado 123994" d="M163.859,259.745v3.115c0,2.825-2.311,4.655-5.144,4.655H102.7c-2.841,0-5.111-1.831-5.111-4.655v-3.115c0-2.825,2.27-4.655,5.111-4.655h56.014C161.548,255.09,163.859,256.921,163.859,259.745Z" transform="translate(-27.481 -161.577)" fill="#e0e0e0"/>
      <path id="Trazado_123995" data-name="Trazado 123995" d="M145.635,259.743v3.115a4.448,4.448,0,0,1-4.771,4.655H102.7c-2.841,0-5.111-1.831-5.111-4.655v-3.115c0-2.825,2.27-4.655,5.111-4.655h38.162a4.448,4.448,0,0,1,4.771,4.655Z" transform="translate(-26.947 -161.574)" fill="#f0f0f0"/>
      <path id="Trazado_123996" data-name="Trazado 123996" d="M133.8,320.639v19.98h-10.57a59.88,59.88,0,0,1-30.158-8.146l-18.02-10.525a10.769,10.769,0,0,1-5.1-11.448c2.145-10.338,8.284-28.1,25.621-35.04l.828.041h7a21.247,21.247,0,0,1,19.234,12.243l7.455,15.987A39.894,39.894,0,0,1,133.8,320.639Z" transform="translate(-11.97 -175.599)" fill="#f0f0f0"/>
      <rect id="Rectángulo_30131" data-name="Rectángulo 30131" width="1.657" height="14.77" transform="matrix(0.794, -0.608, 0.608, 0.794, 148.167, 54.047)" fill="#e0e0e0"/>
      <path id="Trazado_123997" data-name="Trazado 123997" d="M196.535,193.59h4.225a2.253,2.253,0,0,1,2.063,1.359l.563,1.317a2.245,2.245,0,0,1-2.063,3.123h-4.6a2.237,2.237,0,0,1-2.22-1.922l-.19-1.317a2.245,2.245,0,0,1,2.22-2.56Z" transform="translate(-51.704 -141.357)" fill="#e6e6e6"/>
      <rect id="Rectángulo_30132" data-name="Rectángulo 30132" width="10.719" height="1.657" transform="matrix(0.206, -0.979, 0.979, 0.206, 185.085, 65.149)" fill="#e0e0e0"/>
      <path id="Trazado_123998" data-name="Trazado 123998" d="M260.021,193.59h-4.548a1.847,1.847,0,0,0-1.831,1.59l-.306,2.1a1.856,1.856,0,0,0,1.839,2.112h4.506a1.847,1.847,0,0,0,1.831-1.59l.306-2.1a1.856,1.856,0,0,0-1.8-2.112Z" transform="translate(-67.367 -141.357)" fill="#e6e6e6"/>
      <path id="Trazado_123999" data-name="Trazado 123999" d="M106.149,238.964v11.324l1.988,1.1v6.246c-10.686,1.773-16.932,23.807-16.932,23.807H54.575a6.1,6.1,0,0,1-6.1-6.1V167.245a6.1,6.1,0,0,1,6.1-6.105h71.761a5.989,5.989,0,0,1,2.767.671,6.088,6.088,0,0,1,3.313,5.434v71.719Z" transform="translate(-8.319 -137.473)" fill="#e6e6e6"/>
      <path id="Trazado_124000" data-name="Trazado 124000" d="M113.449,239.1v11.324l1.988,1.1v6.246C104.751,259.547,98.5,281.581,98.5,281.581H91V167.334a5.384,5.384,0,0,1,5.384-5.384h40.035a6.088,6.088,0,0,1,3.313,5.434V239.1Z" transform="translate(-25.145 -137.774)" fill="#ebebeb"/>
      <rect id="Rectángulo_30133" data-name="Rectángulo 30133" width="118.546" height="175.666" transform="translate(209.601 15)" fill="rgba(176,192,210,0.53)"/>
      <rect id="Rectángulo_30134" data-name="Rectángulo 30134" width="28.438" height="28.438" transform="translate(280.454 20.802)" fill="#f5f5f5"/>
      <rect id="Rectángulo_30135" data-name="Rectángulo 30135" width="28.438" height="28.438" transform="translate(249.551 20.802)" fill="#f5f5f5"/>
      <rect id="Rectángulo_30136" data-name="Rectángulo 30136" width="28.438" height="28.438" transform="translate(249.551 44.886)" fill="#f5f5f5"/>
      <rect id="Rectángulo_30137" data-name="Rectángulo 30137" width="28.438" height="28.438" transform="translate(280.454 44.886)" fill="#f5f5f5"/>
      <path id="Trazado_124001" data-name="Trazado 124001" d="M325.908,242.269a4.639,4.639,0,1,1-4.639-4.639A4.639,4.639,0,0,1,325.908,242.269Z" transform="translate(-84.26 -155.677)" fill="#e0e0e0"/>
      <path id="Trazado_124002" data-name="Trazado 124002" d="M109.034,115.639a4.664,4.664,0,0,0-4.655-4.664,4.721,4.721,0,0,0-1.334.2,10.158,10.158,0,0,0,.1-1.433,9.874,9.874,0,0,0-9.874-9.874,9.353,9.353,0,0,0-1.814.174,8.631,8.631,0,0,0-16,4.357H75.3a7.961,7.961,0,0,0,0,15.913h29.208a4.647,4.647,0,0,0,4.523-4.672Z" transform="translate(-11.603 -95.896)" fill="#f5f5f5"/>
      <path id="Trazado_124003" data-name="Trazado 124003" d="M235.59,84.924a2.858,2.858,0,0,0-2.858-2.841,2.924,2.924,0,0,0-.828.116,5.966,5.966,0,0,0,.066-.87,6.03,6.03,0,0,0-7.165-5.948A5.285,5.285,0,0,0,215,78.057h-.05a4.879,4.879,0,1,0,0,9.75H232.84a2.858,2.858,0,0,0,2.75-2.883Z" transform="translate(-49.354 -68.112)" fill="#f5f5f5"/>
    </g>
    <g id="freepik--Shadow--inject-447" transform="translate(46.479 314.597)">
      <ellipse id="freepik--path--inject-447" cx="137.521" cy="9.377" rx="137.521" ry="9.377" fill="#8ec8c8"/>
    </g>
    <g id="freepik--character-2--inject-447" transform="translate(224.075 155.386)">
      <path id="Trazado_124020" data-name="Trazado 124020" d="M315.39,190.89s.211-2.461-.436-3.3-8.277-5.734-8.661-5.2-1.964,4.515-1.874,5.681,5.915,6.313,6.772,5.681S315.39,190.89,315.39,190.89Z" transform="translate(-304.415 -155.704)" fill="#b97964"/>
      <path id="Trazado_124021" data-name="Trazado 124021" d="M353.507,179.11c-5.794.594-15.765,18.308-18.594,18.158s-19.053-9.075-19.053-9.075L313,192.5s18.06,12.86,22.959,12.567,18.9-17.473,18.9-17.473Z" transform="translate(-306.54 -148.005)" fill="#b97964"/>
      <path id="Trazado_124022" data-name="Trazado 124022" d="M368.663,339.581c4.8,6.02,9.113,11.513,12.875,15.5h0c3.762,4.041,5.7,6.547,5.7,6.547l3.717-2.137s-3.439-5.441-8.1-12.943c-3.966-6.366-8.819-14.222-13.229-21.5-5.7-9.406-10.663-17.842-11.972-20.859-.933-2.145,1.6-10.384,4.387-18.15,2.837-7.909,5.952-15.336,5.952-15.336L357.842,253.51s-4.131,11.446-7.8,23.523c-2.416,7.9-4.613,16.081-5.358,21.514C343.642,306.14,356.743,324.614,368.663,339.581Z" transform="translate(-314.367 -207.305)" fill="#b97964"/>
      <path id="Trazado_124023" data-name="Trazado 124023" d="M376.52,363.113c4.8,6.02,9.414,11.513,12.845,15.5.489-2.453.986-5.358,1.377-8.526-3.966-6.366-8.819-14.222-13.229-21.5A83.261,83.261,0,0,1,376.52,363.113Z" transform="translate(-322.261 -230.838)" opacity="0.2"/>
      <path id="Trazado_124024" data-name="Trazado 124024" d="M351.82,277.051l12,9.03c2.837-7.909,5.952-15.336,5.952-15.336L359.623,253.55S355.492,264.973,351.82,277.051Z" transform="translate(-316.148 -186.473)" opacity="0.2"/>
      <path id="Trazado_124025" data-name="Trazado 124025" d="M379.68,372.363l4.327.564s6.208-30.559,6.02-55.775a215.05,215.05,0,0,0,5.388-25.382c1.5-10.324,2.257-21.822.256-30.4l-15.05,6.772-.309,22.575-.256,18.812Z" transform="translate(-323.043 -209.251)" fill="#b97964"/>
      <path id="Trazado_124026" data-name="Trazado 124026" d="M380.52,290.717l15.1,1.053c1.505-10.324,2.258-21.822.256-30.4l-15.05,6.772Z" transform="translate(-323.251 -189.508)" opacity="0.2"/>
      <path id="Trazado_124027" data-name="Trazado 124027" d="M404.06,391.206c-.444-.324-4.191,5.267-4.191,5.267s.835,5.847-.85,9.624,1.6,3.454,4.319-.128l6.772-8.842C412.037,394.614,408.673,394.547,404.06,391.206Z" transform="translate(-327.716 -241.382)" fill="#263238"/>
      <path id="Trazado_124028" data-name="Trazado 124028" d="M397.933,402.711a.79.79,0,0,1-.692-.888,2.754,2.754,0,0,1,.753-1.3c-.564.263-1.136.429-1.43.226s-.256-.361-.181-.692a1,1,0,0,1,.5-.707,4.142,4.142,0,0,1,2.521,0l.06.038h0v.045h0v.053h0v.068c-.105.489-.655,2.912-1.5,3.115ZM399.091,400c-.594.5-1.43,1.317-1.5,1.866a.376.376,0,0,0,.075.3c.166.211.271.188.309.181C398.339,402.252,398.82,401.048,399.091,400Zm-1.181-.519a1.641,1.641,0,0,0-.813.173.692.692,0,0,0-.339.474c0,.1-.045.271,0,.324.256.173,1.257-.271,2.16-.835A4.574,4.574,0,0,0,397.91,399.483Z" transform="translate(-327.164 -243.346)" fill="#7d6eb2"/>
      <path id="Trazado_124029" data-name="Trazado 124029" d="M381.868,405.908c0-.549-6.772-.12-6.772-.12s-4.139,4.214-8.165,5.162-1.776,3.364,2.724,3.364h11.129C384,414.276,382,411.552,381.868,405.908Z" transform="translate(-319.369 -244.955)" fill="#263238"/>
      <path id="Trazado_124030" data-name="Trazado 124030" d="M373.526,407.041a.925.925,0,0,1-.587-.158.625.625,0,0,1-.166-.715.685.685,0,0,1,.361-.459,2.784,2.784,0,0,1,1.5-.166c-.542-.293-1.023-.647-1.046-1,0-.233.135-.421.444-.564a1.038,1.038,0,0,1,.873,0A3.754,3.754,0,0,1,376.416,406a.113.113,0,0,1,0,.068h0a.179.179,0,0,1,0,.06h0a.158.158,0,0,1,0,.045h0a.12.12,0,0,1-.06.045A8.473,8.473,0,0,1,373.526,407.041Zm.579-1.174a1.716,1.716,0,0,0-.8.151.354.354,0,0,0-.188.233c-.068.263,0,.331.045.354.316.263,1.55-.105,2.543-.527a7.841,7.841,0,0,0-1.6-.211Zm.391-1.648a.806.806,0,0,0-.309.075c-.09.045-.241.135-.241.226,0,.3.986.828,1.979,1.2a2.935,2.935,0,0,0-1.151-1.445A.753.753,0,0,0,374.5,404.219Z" transform="translate(-321.322 -244.523)" fill="#7d6eb2"/>
      <path id="Trazado_124031" data-name="Trazado 124031" d="M366.284,280.3,350,271.771a177.645,177.645,0,0,1,9.737-24.381c16,2.739,14.538,15.381,14.538,15.381S370.2,271.214,366.284,280.3Z" transform="translate(-315.697 -183.922)" fill="#263238"/>
      <path id="Trazado_124032" data-name="Trazado 124032" d="M367.307,277.9c-.346.79-.7,1.6-1.046,2.4L350,271.771a177.152,177.152,0,0,1,9.73-24.381c9.873,1.693,13.093,7.156,14.117,11.092a12.982,12.982,0,0,1,.421,4.289S370.9,269.784,367.307,277.9Z" transform="translate(-315.697 -183.922)" fill="#fff" opacity="0.1"/>
      <path id="Trazado_124033" data-name="Trazado 124033" d="M373,281.314c3.574-8.112,6.953-15.125,6.953-15.125a12.982,12.982,0,0,0-.421-4.289,5.141,5.141,0,0,0-1.663-.7S373.542,268.025,373,281.314Z" transform="translate(-321.39 -188.295)" opacity="0.2"/>
      <path id="Trazado_124034" data-name="Trazado 124034" d="M374.281,279.521l.557-26.029-12.9-3.762s1.016-11.942,2.521-17.827c0,0,20.957-5.215,24.148,1.889,0,0,0,.113.045.15l.053.06s6.02,10.6,4.221,45.526Z" transform="translate(-318.653 -178.274)" fill="#263238"/>
      <path id="Trazado_124035" data-name="Trazado 124035" d="M374.281,279.521l.557-26.029-12.9-3.762s1.016-11.942,2.521-17.827c0,0,20.957-5.215,24.148,1.889,0,0,0,.113.045.15l.053.06s6.02,10.6,4.221,45.526Z" transform="translate(-318.653 -178.274)" fill="#fff" opacity="0.1"/>
      <path id="Trazado_124036" data-name="Trazado 124036" d="M389.76,229.393v3.552l-24.08-1.859V226.88Z" transform="translate(-319.578 -173.255)" fill="#263238"/>
      <rect id="Rectángulo_30138" data-name="Rectángulo 30138" width="1.204" height="6.14" transform="translate(62.939 60.601) rotate(-177.07)" fill="#263238"/>
      <rect id="Rectángulo_30139" data-name="Rectángulo 30139" width="5.328" height="4.041" transform="translate(56.466 58.913) rotate(-174.88)" fill="#fff"/>
      <rect id="Rectángulo_30140" data-name="Rectángulo 30140" width="1.205" height="6.148" transform="translate(47.573 59.355) rotate(-177.138)" fill="#263238"/>
      <rect id="Rectángulo_30141" data-name="Rectángulo 30141" width="6.14" height="1.204" transform="translate(61.742 60.573) rotate(-87.07)" fill="#fff" opacity="0.1"/>
      <rect id="Rectángulo_30142" data-name="Rectángulo 30142" width="6.14" height="1.204" transform="translate(46.882 59.255) rotate(-87.08)" fill="#fff" opacity="0.1"/>
      <path id="Trazado_124037" data-name="Trazado 124037" d="M365.1,215.327l24.26,2.1c.579-9.03,1.151-14.839,6.494-30.913q.7-2.115,1.505-4.477a72.284,72.284,0,0,0-10.053-2.415,78.007,78.007,0,0,0-10.9-1.151c-4.726,0-10.144.5-10.144.5s-.753.188-1.257,5.185C364.556,188.839,364.127,198.238,365.1,215.327Z" transform="translate(-319.289 -147.846)" fill="#7d6eb2"/>
      <path id="Trazado_124038" data-name="Trazado 124038" d="M397.366,182.022c-.549,1.573-1.053,3.07-1.505,4.477s-.963,2.927-1.385,4.267c-.993,3.16-1.776,5.885-2.4,8.277a87.2,87.2,0,0,0-2.709,18.338l-24.26-2.1c-.978-17.089-.542-26.488-.1-31.191.489-5,1.257-5.185,1.257-5.185s1.437-.143,3.484-.271c1.919-.128,4.372-.241,6.66-.226a77.772,77.772,0,0,1,10.889,1.2,62.027,62.027,0,0,1,6.193,1.309Q395.447,181.412,397.366,182.022Z" transform="translate(-319.29 -147.831)" fill="#fff" opacity="0.6"/>
      <path id="Trazado_124039" data-name="Trazado 124039" d="M398.188,294.308l-21.258-.188.376,3.2,19.941-.188Z" transform="translate(-322.363 -199.703)" fill="#7d6eb2"/>
      <path id="Trazado_124040" data-name="Trazado 124040" d="M367.3,287.714l-17.684-9.594-.941,2.822,17.119,8.466Z" transform="translate(-315.371 -194.213)" fill="#7d6eb2"/>
      <path id="Trazado_124041" data-name="Trazado 124041" d="M382.328,181.269c5.982-.753,7.781-3.326,7.781-3.326-2.446-2.3-2-5.7-1.377-7.826a12.16,12.16,0,0,1,.753-1.956l-7.239,1.385a20.728,20.728,0,0,1,.278,3.01,9.082,9.082,0,0,1-.2,2.258c-.489,2.152-1.716,2.182-1.716,2.182C379.318,179.327,382.328,181.269,382.328,181.269Z" transform="translate(-323.193 -145.294)" fill="#b97964"/>
      <path id="Trazado_124042" data-name="Trazado 124042" d="M383.168,172.569a9.085,9.085,0,0,1-.2,2.257c2.859-.376,5.027-2.664,6.389-4.65a12.163,12.163,0,0,1,.753-1.956l-7.216,1.339a20.724,20.724,0,0,1,.278,3.01Z" transform="translate(-323.838 -145.309)" opacity="0.2"/>
      <path id="Trazado_124043" data-name="Trazado 124043" d="M397.18,144.395s4.154-3.672,8.277-1.791,4.515,4.869,2.935,8.142-2.867,6.148-1.136,7.337a2.774,2.774,0,0,1-.452,4.665c-1.686.79-2.784,1.8-.9,2.641,0,0-.3.166-1.889-.843s-.294-2.107.2-2.844-.4.181-1.889-1.972-.5-4.515.3-6.991-4.7-2.145-4.7-2.145Z" transform="translate(-327.375 -138.836)" fill="#263238"/>
      <path id="Trazado_124044" data-name="Trazado 124044" d="M387.619,140.2s-4.447-2.92-9.03-2.355-8.895,5.922-7.578,9.7,2.7,5.553,1.415,6.946-1.836,3.928-.1,5.027a1.874,1.874,0,0,1,0-2.5c1.091-1.339,5.177-.647,6.261-3.672s6.336-3.815,6.336-3.815l3.13,10.016s4.906-1.362,5.4-8.466S391.7,139.509,387.619,140.2Z" transform="translate(-320.838 -137.774)" fill="#263238"/>
      <path id="Trazado_124045" data-name="Trazado 124045" d="M382.08,143.448c-6.261.233-8.15,3.665-8.368,10.136-.278,8.082,1.723,13.748,9.489,11.731C393.751,162.584,392.479,143.064,382.08,143.448Z" transform="translate(-321.56 -139.177)" fill="#b97964"/>
      <path id="Trazado_124046" data-name="Trazado 124046" d="M378.511,156.25a13.3,13.3,0,0,1-1.731,2.664,1.723,1.723,0,0,0,1.678.647Z" transform="translate(-322.326 -142.347)" fill="#a24e3f"/>
      <path id="Trazado_124047" data-name="Trazado 124047" d="M384.15,155.071c0,.519.286.933.632.926s.617-.429.61-.941-.293-.926-.64-.926S384.142,154.559,384.15,155.071Z" transform="translate(-324.15 -141.822)" fill="#263238"/>
      <path id="Trazado_124048" data-name="Trazado 124048" d="M384.779,154.021l-1.129-.421S384.222,154.533,384.779,154.021Z" transform="translate(-324.026 -141.691)" fill="#263238"/>
      <path id="Trazado_124049" data-name="Trazado 124049" d="M375.64,155.051c0,.512.286.926.632.918s.617-.421.609-.941-.293-.926-.632-.918S375.632,154.531,375.64,155.051Z" transform="translate(-322.043 -141.817)" fill="#263238"/>
      <path id="Trazado_124050" data-name="Trazado 124050" d="M376.269,154l-1.129-.429S375.712,154.5,376.269,154Z" transform="translate(-321.92 -141.683)" fill="#263238"/>
      <path id="Trazado_124051" data-name="Trazado 124051" d="M384,149.617a3.251,3.251,0,0,1,2.747.85" transform="translate(-324.113 -140.695)" fill="none" stroke="#263238" stroke-linecap="round" stroke-linejoin="round" stroke-width="0.708"/>
      <path id="Trazado_124052" data-name="Trazado 124052" d="M377.186,149.479a2.92,2.92,0,0,0-2.476.61" transform="translate(-321.813 -140.655)" fill="none" stroke="#263238" stroke-linecap="round" stroke-linejoin="round" stroke-width="0.708"/>
      <path id="Trazado_124053" data-name="Trazado 124053" d="M380.35,163.457a15.9,15.9,0,0,1,.813,2.152l.4-.053c1.814-.256,2.574-.971,2.867-1.693a2.355,2.355,0,0,0,.173-1.069,2.256,2.256,0,0,0-.135-.625A8.685,8.685,0,0,1,381,163.4Z" transform="translate(-323.209 -143.812)" fill="#263238"/>
      <path id="Trazado_124054" data-name="Trazado 124054" d="M381.17,163.347l.256.632c1.708-.241,2.882-.64,3.341-1.234a2.257,2.257,0,0,0-.135-.625A8.684,8.684,0,0,1,381.17,163.347Z" transform="translate(-323.412 -143.8)" fill="#fff"/>
      <path id="Trazado_124055" data-name="Trazado 124055" d="M382,166.113c1.814-.256,2.574-.971,2.867-1.693a6.021,6.021,0,0,0-1.964.685A2.258,2.258,0,0,0,382,166.113Z" transform="translate(-323.618 -144.369)" fill="#de5753"/>
      <path id="Trazado_124056" data-name="Trazado 124056" d="M389.31,152.921s-3.123-5.034-2.822-9.03c0,0-12.6-4.613-12.747,8.007,0,0-1.625-11.137,9.128-11.784s11.287,15.1,5.907,20C388.776,160.123,391.222,156.074,389.31,152.921Z" transform="translate(-321.552 -138.348)" fill="#263238"/>
      <path id="Trazado_124057" data-name="Trazado 124057" d="M393.16,158.138a2.754,2.754,0,0,1,2.867-2.619c1.949.135,3.01,4.086-1.768,5.222C393.566,160.869,393.152,160.207,393.16,158.138Z" transform="translate(-326.38 -142.165)" fill="#b97964"/>
      <path id="Trazado_124058" data-name="Trazado 124058" d="M390.4,144.825a7.682,7.682,0,0,0-.941,3.544c0,1.964,2.739,5.734,2.784,6.84s-.753,3.01.113,4.116a2.641,2.641,0,0,1,.971-2.807c1.505-1.023,2.844-4.154,1.174-6.359s-.075-5.064-.075-5.064S392.124,142.455,390.4,144.825Z" transform="translate(-325.464 -139.275)" fill="#263238"/>
      <path id="Trazado_124059" data-name="Trazado 124059" d="M389.231,183.19c7.48,6.366-10.264,24.388-18.812,28.595s-38.174,9.293-38.174,9.293l-.595-5.027S362.5,208.9,366.483,204.96,387.756,181.934,389.231,183.19Z" transform="translate(-311.156 -157.099)" fill="#b97964"/>
      <path id="Trazado_124060" data-name="Trazado 124060" d="M327.769,226.5s-2.084-1.332-3.13-1.151-8.925,4.688-8.631,5.267,3.123,3.845,4.169,4.3,8.338-2.318,8.187-3.386S327.769,226.5,327.769,226.5Z" transform="translate(-307.282 -172.871)" fill="#b97964"/>
      <path id="Trazado_124061" data-name="Trazado 124061" d="M395.186,180.91a20.075,20.075,0,0,1-16.058,5.576c-7.186-.549-7.788-5.757-7.691-7.811,1.919-.128,4.372-.241,6.66-.226a77.77,77.77,0,0,1,10.911,1.166A60.8,60.8,0,0,1,395.186,180.91Z" transform="translate(-321.001 -147.841)" fill="#b97964"/>
    </g>
    <g id="freepik--character-1--inject-447" transform="translate(117.048 128.698)">
      <g id="freepik--group--inject-447" transform="translate(0 0)">
        <path id="Trazado_124062" data-name="Trazado 124062" d="M195.57,404.973l6.3.662,1.181-13.583-6.3-.662Z" transform="translate(-156.011 -214.744)" fill="#ebb376"/>
        <path id="Trazado_124063" data-name="Trazado 124063" d="M153.82,404.182h6.1l.5-14.132h-6.11Z" transform="translate(-145.678 -214.412)" fill="#ebb376"/>
        <path id="Trazado_124064" data-name="Trazado 124064" d="M160.039,407.89h-7.412a.534.534,0,0,0-.519.421l-1.2,5.433a.9.9,0,0,0,.692,1.061.934.934,0,0,0,.2,0c2.393-.038,4.139-.188,7.156-.188,1.851,0,7.45.2,10.008.2s2.9-2.528,1.851-2.762c-4.7-1.023-8.277-2.446-9.782-3.8a1.505,1.505,0,0,0-.993-.361Z" transform="translate(-144.951 -218.827)" fill="#263238"/>
        <path id="Trazado_124065" data-name="Trazado 124065" d="M163.573,408.564a.143.143,0,0,1-.113-.12.151.151,0,0,1,.068-.143c.218-.135,2.19-1.347,2.867-1a.429.429,0,0,1,.248.406.865.865,0,0,1-.3.753,1.814,1.814,0,0,1-1.174.309A7.094,7.094,0,0,1,163.573,408.564Zm.414-.2a3.01,3.01,0,0,0,2.175-.113.587.587,0,0,0,.2-.519c0-.12-.053-.173-.09-.173a.339.339,0,0,0-.188-.038,5.885,5.885,0,0,0-2.092.85Z" transform="translate(-148.064 -218.666)" fill="#7d6eb2"/>
        <path id="Trazado_124066" data-name="Trazado 124066" d="M163.528,408.15a.158.158,0,0,1-.068-.128c0-.083.158-1.844.865-2.415a.813.813,0,0,1,.61-.188.474.474,0,0,1,.467.384c.128.647-1.091,1.987-1.723,2.325h-.068A.105.105,0,0,1,163.528,408.15Zm.978-2.37a3.386,3.386,0,0,0-.715,1.911c.625-.474,1.4-1.505,1.324-1.889,0-.038,0-.151-.211-.151h-.068A.5.5,0,0,0,164.506,405.78Z" transform="translate(-148.064 -218.215)" fill="#7d6eb2"/>
        <path id="Trazado_124067" data-name="Trazado 124067" d="M201.817,407.63h-7.39a.534.534,0,0,0-.519.421l-1.2,5.433a.911.911,0,0,0,.7,1.069h.2c2.4-.038,4.146-.188,7.156-.188,1.851,0,7.45.2,10.008.2s2.9-2.528,1.851-2.762c-4.7-1.023-8.277-2.446-9.782-3.762A1.505,1.505,0,0,0,201.817,407.63Z" transform="translate(-155.297 -218.763)" fill="#263238"/>
        <path id="Trazado_124068" data-name="Trazado 124068" d="M205.343,408.321a.146.146,0,0,1-.038-.271c.218-.135,2.19-1.347,2.859-1a.429.429,0,0,1,.248.406.828.828,0,0,1-.3.753,1.8,1.8,0,0,1-1.174.309A7.607,7.607,0,0,1,205.343,408.321Zm.421-.2a2.92,2.92,0,0,0,2.167-.113.587.587,0,0,0,.2-.519c0-.113-.053-.173-.09-.173a.4.4,0,0,0-.188-.038,5.792,5.792,0,0,0-2.084.843Z" transform="translate(-158.402 -218.604)" fill="#7d6eb2"/>
        <path id="Trazado_124069" data-name="Trazado 124069" d="M205.305,407.9a.165.165,0,0,1-.075-.135c0-.083.158-1.836.865-2.415a.753.753,0,0,1,.61-.181.467.467,0,0,1,.467.376c.128.647-1.091,1.987-1.723,2.333h-.068a.143.143,0,0,1-.075.023Zm.978-2.378a3.4,3.4,0,0,0-.752,1.911c.625-.474,1.4-1.505,1.324-1.889,0-.038,0-.143-.211-.143h-.068a.5.5,0,0,0-.293.12Z" transform="translate(-158.402 -218.152)" fill="#7d6eb2"/>
        <path id="Trazado_124070" data-name="Trazado 124070" d="M196.937,391.39l6.3.662-.617,7.006-6.3-.662Z" transform="translate(-156.197 -214.744)" opacity="0.2"/>
        <path id="Trazado_124071" data-name="Trazado 124071" d="M154.393,390.06h6.11l-.263,7.284h-6.11Z" transform="translate(-145.755 -214.415)" opacity="0.2"/>
        <path id="Trazado_124072" data-name="Trazado 124072" d="M156.174,225.3h32.357c3.078,16.811,12.717,76.311,5.8,129.324l-10.941-1.354s1.016-70.381-8.661-96.4c-1.114,13.929-2.438,28.745-3.582,36.624-2.807,19.407-8.827,61.81-8.827,61.81H151.14s2.257-40.59,3.334-59.658C155.625,274.942,156.129,229.589,156.174,225.3Z" transform="translate(-145.015 -173.636)" fill="#263238"/>
        <path id="Trazado_124073" data-name="Trazado 124073" d="M156.174,225.3h32.357c3.078,16.811,12.717,76.311,5.8,129.324l-10.941-1.354s1.016-70.381-8.661-96.4c-1.114,13.929-2.438,28.745-3.582,36.624-2.807,19.407-8.827,61.81-8.827,61.81H151.14s2.257-40.59,3.334-59.658C155.625,274.942,156.129,229.589,156.174,225.3Z" transform="translate(-145.015 -173.636)" fill="#fff" opacity="0.2"/>
        <path id="Trazado_124074" data-name="Trazado 124074" d="M201.507,156.64S221.072,175.1,230.1,178.184,262.346,192.7,262.346,192.7l3.559-2.807c0-.158,2.6,1.851,2.626,3.243,0,1.008-2.551,9.459-3.085,9.451-2.483,0-5.23-5.689-5.23-5.689s-29.724-7.743-35.059-10.076-27.278-19.46-27.278-19.46Z" transform="translate(-156.583 -124.511)" fill="#ebb376"/>
        <path id="Trazado_124075" data-name="Trazado 124075" d="M196.319,150.75c4.47-.135,28.046,20.558,29.874,22.643s20.144,8.33,22.221,11.461-1.038,6.825-6.1,7.277-39.98-15.223-45.293-22.861S196.319,150.75,196.319,150.75Z" transform="translate(-155.737 -121.922)" fill="#7d6eb2"/>
        <path id="Trazado_124076" data-name="Trazado 124076" d="M196.319,150.75c4.47-.135,28.046,20.558,29.874,22.643s20.144,8.33,22.221,11.461-1.038,6.825-6.1,7.277-39.98-15.223-45.293-22.861S196.319,150.75,196.319,150.75Z" transform="translate(-155.737 -121.922)" opacity="0.2"/>
        <path id="Trazado_124077" data-name="Trazado 124077" d="M212.2,172.067l2.581,52.434h35.051l26.789-6.411V168.8l-37.482-.211Z" transform="translate(-160.127 -129.983)" fill="#7d6eb2"/>
        <path id="Trazado_124078" data-name="Trazado 124078" d="M212.2,172.067l2.581,52.434h35.051l26.789-6.411V168.8l-37.482-.211Z" transform="translate(-160.127 -129.983)" fill="#fff" opacity="0.6"/>
        <path id="Trazado_124079" data-name="Trazado 124079" d="M212.2,173.21l35.548,1.2,2.084,51.238H214.781Z" transform="translate(-160.127 -131.684)" fill="#fff" opacity="0.2"/>
        <path id="Trazado_124080" data-name="Trazado 124080" d="M247.748,173.263l28.873-4.462-37.482-.211L212.2,172.067Z" transform="translate(-160.127 -127.496)" fill="#fff" opacity="0.4"/>
        <path id="Trazado_124081" data-name="Trazado 124081" d="M229.85,173.567l4.553-.707,5.659.263-5.109.617v2.882l-4.869-.339Z" transform="translate(-164.496 -129.082)" opacity="0.2"/>
        <path id="Trazado_124082" data-name="Trazado 124082" d="M265.02,168.69l-1.49.309h5.057l1.836-.278Z" transform="translate(-172.831 -127.372)" opacity="0.2"/>
        <path id="Trazado_124083" data-name="Trazado 124083" d="M262.21,179.928l.4,5.064,9.624-1.64V178.37Z" transform="translate(-172.505 -131.298)" opacity="0.2"/>
        <path id="Trazado_124084" data-name="Trazado 124084" d="M282.25,227.219v6.148l10.52-2.476V225.3Z" transform="translate(-177.465 -149.288)" opacity="0.2"/>
        <path id="Trazado_124085" data-name="Trazado 124085" d="M246.52,225.3s.993,3.078,2.875,4.033v5.328l-1.437,1.5H252.9l-2.619-1.686-.1-5.124A5.267,5.267,0,0,0,252.9,225.3h-2.709l-.482,1.618.873.1-.873,1.821V227.9H249l.715-2.574Z" transform="translate(-168.621 -149.493)" opacity="0.2"/>
        <path id="Trazado_124086" data-name="Trazado 124086" d="M182.49,263.468a86.535,86.535,0,0,1,3.62,14c.9-12.386-2.717-25.532-2.717-25.532Z" transform="translate(-152.774 -161.126)" opacity="0.2"/>
        <path id="Trazado_124087" data-name="Trazado 124087" d="M185.107,150.712s-20.6-1-35.947,2.875c0,0,4.681,41.9,4.974,63.014a3.386,3.386,0,0,0,3.507,3.326l30.92-1.076a3.386,3.386,0,0,0,3.266-3.522C191.375,204.034,189.6,167.523,185.107,150.712Z" transform="translate(-144.525 -123.127)" fill="#7d6eb2"/>
        <path id="Trazado_124088" data-name="Trazado 124088" d="M156.91,240.849v3.529l36.308-1.761-.278-2.9Z" transform="translate(-146.443 -154.525)" fill="#263238"/>
        <path id="Trazado_124089" data-name="Trazado 124089" d="M179.63,162s6.923,31.108,5.915,60.012" transform="translate(-152.066 -127.467)" fill="none" stroke="#263238" stroke-miterlimit="10" stroke-width="1"/>
        <path id="Trazado_124090" data-name="Trazado 124090" d="M148.41,175.764s6.434,17.751,8.338,21.476,39.378,7.4,39.378,7.4,8.277,5.358,9.782,5.109,4.951-7.277,3.446-8.029-6.08-5.93-8.556-5.847-4.643,2.837-4.643,2.837-30.852-8.842-32.515-9.5c-1.189-.474-6.065-17.661-6.065-17.661Z" transform="translate(-144.339 -130.169)" fill="#ebb376"/>
        <path id="Trazado_124091" data-name="Trazado 124091" d="M147.643,154.569c-5.094.128-6.968,8.375-.572,26.706,4.109,11.8,13.966,18.06,29.408,20.8s15.727-6.155,12.507-9.233-20.927-7.638-23.779-10.219S158.336,154.306,147.643,154.569Z" transform="translate(-143 -123.757)" fill="#7d6eb2"/>
        <path id="Trazado_124092" data-name="Trazado 124092" d="M203.793,205.43l-.963,8.368,2.6.865.9-9.233Z" transform="translate(-157.808 -141.769)" fill="#263238"/>
        <path id="Trazado_124093" data-name="Trazado 124093" d="M147.643,154.569c-5.094.128-6.968,8.375-.572,26.706,4.109,11.8,13.966,18.06,29.408,20.8s15.727-6.155,12.507-9.233-20.927-7.638-23.779-10.219S158.336,154.306,147.643,154.569Z" transform="translate(-143 -123.757)" opacity="0.2"/>
        <path id="Trazado_124094" data-name="Trazado 124094" d="M164.72,150.75s10.249,9.512,11.98,8.5,2.257-7.886,2.257-7.886Z" transform="translate(-148.376 -114.298)" fill="#fff"/>
        <path id="Trazado_124095" data-name="Trazado 124095" d="M164.73,146.65c3.01,2.7,10.257,1.7,10.257,1.7s4.515-1.242,3.589-2.664c-2.679-.444-3.973-1.693-4.515-3.288a7.744,7.744,0,0,1-.271-3.063,14.968,14.968,0,0,1,.226-1.708l-9.03-6.667C166.2,135.362,167.642,143.459,164.73,146.65Z" transform="translate(-148.378 -109.4)" fill="#ebb376"/>
        <path id="Trazado_124096" data-name="Trazado 124096" d="M167.88,136.6c.354,5.4,4.793,6.885,6.968,7.194a7.743,7.743,0,0,1-.271-3.063Z" transform="translate(-149.158 -110.796)" opacity="0.2"/>
        <path id="Trazado_124097" data-name="Trazado 124097" d="M187.013,114.45s1.354,6.178.263,10.61-2.393,4.891-3.762,5.185-1.324-15.261-1.324-15.261Z" transform="translate(-152.7 -105.314)" fill="#7d6eb2"/>
        <path id="Trazado_124098" data-name="Trazado 124098" d="M185.551,115.61s2.084,6.1.993,10.535-2.393,4.891-3.808,5.185-1.317-15.261-1.317-15.261Z" transform="translate(-152.508 -105.601)" opacity="0.5"/>
        <path id="Trazado_124099" data-name="Trazado 124099" d="M183.408,111.75s2.641,8.089-1.234,12.04-6.434-11.521-6.434-11.521Z" transform="translate(-151.103 -104.646)" fill="#263238"/>
        <path id="Trazado_124100" data-name="Trazado 124100" d="M167.682,132.219a7.638,7.638,0,0,0,9.128,1.5,8.488,8.488,0,0,0,4.139-4.7c.1-.271.188-.564.263-.858,1.324-5.433.534-14.41-5.373-16.841a8.277,8.277,0,0,0-11.446,8.217C164.724,125.552,164.627,129.119,167.682,132.219Z" transform="translate(-148.29 -104.384)" fill="#ebb376"/>
        <path id="Trazado_124101" data-name="Trazado 124101" d="M176.579,124.428c-.038.489.256.9.579.9s.587-.406.587-.9-.256-.888-.579-.888S176.586,123.931,176.579,124.428Z" transform="translate(-151.31 -107.564)" fill="#263238"/>
        <path id="Trazado_124102" data-name="Trazado 124102" d="M184,124.458c0,.489.263.9.579.9s.587-.4.594-.888-.263-.9-.587-.9S184,123.991,184,124.458Z" transform="translate(-153.148 -107.571)" fill="#263238"/>
        <path id="Trazado_124103" data-name="Trazado 124103" d="M181.61,125.07a17.6,17.6,0,0,0,2.333,4.214,2.837,2.837,0,0,1-2.363.436Z" transform="translate(-152.549 -107.942)" fill="#d58745"/>
        <path id="Trazado_124104" data-name="Trazado 124104" d="M174.22,121.778a.309.309,0,0,0,.278-.113,2.325,2.325,0,0,1,1.851-.956.293.293,0,0,0,.309-.271.286.286,0,0,0-.263-.309h0a2.89,2.89,0,0,0-2.355,1.181.293.293,0,0,0,.045.406h0A.4.4,0,0,0,174.22,121.778Z" transform="translate(-150.667 -106.72)" fill="#263238"/>
        <path id="Trazado_124105" data-name="Trazado 124105" d="M186.474,121.556a.331.331,0,0,0,.173,0,.286.286,0,0,0,.135-.384h0a2.859,2.859,0,0,0-2.069-1.633.286.286,0,0,0-.324.248h0a.293.293,0,0,0,.248.324h0a2.325,2.325,0,0,1,1.618,1.317.324.324,0,0,0,.218.128Z" transform="translate(-153.243 -106.573)" fill="#263238"/>
        <path id="Trazado_124106" data-name="Trazado 124106" d="M168.98,134.41a7.292,7.292,0,0,0,4.982,5.132c3.356.918,4.914-.813,4.914-.813a5.779,5.779,0,0,1-6.772,1.121,11.686,11.686,0,0,1-4.733-4.417Z" transform="translate(-149.032 -110.254)" fill="#263238"/>
        <path id="Trazado_124107" data-name="Trazado 124107" d="M167.924,112.43l.436,2.649a1.994,1.994,0,0,0-.888,2.543c.956,2.2-.166,5.727-1.821,7.186,0,0-.09-.971-.9-.707s-.361,5.313,1.339,7.645c0,0-2.513-2.069-4.1-7.314-1.5-4.846-1.806-8.925-.888-10.866Z" transform="translate(-147.351 -104.814)" fill="#263238"/>
        <path id="Trazado_124108" data-name="Trazado 124108" d="M160.762,127.737a5.779,5.779,0,0,0,3.288,2.927c1.9.647,3.01-1.038,2.543-2.9-.4-1.655-1.866-4.033-3.83-3.86A2.569,2.569,0,0,0,160.762,127.737Z" transform="translate(-147.323 -107.652)" fill="#ebb376"/>
        <path id="Trazado_124109" data-name="Trazado 124109" d="M180.292,112.657s-12.446-.4-13.146,2.032-.045,7.427.128,10.9c.12,2.378-1.821,3.544-3.7,3.657h0a4.016,4.016,0,0,1-.6,0,3.883,3.883,0,0,1-1.746-.489c-2.257-1.354-4.951-3.454-6.479-9.617-1.994-8.044,1.829-16.721,13.334-16.826S180.292,112.657,180.292,112.657Z" transform="translate(-145.782 -102.309)" fill="#7d6eb2"/>
        <path id="Trazado_124110" data-name="Trazado 124110" d="M182.646,115.976s-11.731-.542-12.431,1.889-.045,7.427.128,10.9c.12,2.378-1.821,3.544-3.7,3.657a2.11,2.11,0,0,0,1.686-2.258c.083-1.889-1.181-10.2,0-11.792s5.185-2.852,9.3-3.168S182.646,115.976,182.646,115.976Z" transform="translate(-148.851 -105.486)" opacity="0.5"/>
        <path id="Trazado_124111" data-name="Trazado 124111" d="M166.741,114.784s-1.219,1.565-.625,2.521,19.271-.61,19.5-1.076-2.1-1.287-2.446-1.5-.444-2.257-1.121-2.453S172.008,111.428,166.741,114.784Z" transform="translate(-148.681 -104.73)" fill="#263238"/>
        <path id="Trazado_124112" data-name="Trazado 124112" d="M168.684,116.867a.482.482,0,1,1-.2-.316.482.482,0,0,1,.2.316Z" transform="translate(-149.118 -105.812)" fill="#7d6eb2"/>
        <path id="Trazado_124113" data-name="Trazado 124113" d="M180.562,132.453a16.052,16.052,0,0,0-.632,2.257h-.414c-1.874-.09-2.717-.753-3.078-1.452a2.491,2.491,0,0,1-.248-1.121,2.258,2.258,0,0,1,.09-.647,8.789,8.789,0,0,0,3.642.926C180.291,132.446,180.562,132.453,180.562,132.453Z" transform="translate(-151.214 -109.531)" fill="#263238"/>
        <path id="Trazado_124114" data-name="Trazado 124114" d="M179.892,132.406l-.2.67c-1.768-.09-3.01-.384-3.529-.948a2.257,2.257,0,0,1,.09-.647,8.789,8.789,0,0,0,3.642.926Z" transform="translate(-151.207 -109.529)" fill="#fff"/>
        <path id="Trazado_124115" data-name="Trazado 124115" d="M179.568,135.282c-1.874-.09-2.717-.753-3.078-1.452a6.02,6.02,0,0,1,2.062.5,2.2,2.2,0,0,1,1.016.948Z" transform="translate(-151.289 -110.11)" fill="#de5753"/>
        <path id="Trazado_124116" data-name="Trazado 124116" d="M162.19,151.039l.993-3.439s10.422,3.875,12.13,10.866c0,0-.753-8.481,1.829-10.866l1.776,2.257s.226,8.466-2.844,9.5S162.19,151.039,162.19,151.039Z" transform="translate(-147.749 -113.519)" fill="#7d6eb2"/>
        <path id="Trazado_124117" data-name="Trazado 124117" d="M162.19,151.039l.993-3.439s10.422,3.875,12.13,10.866c0,0-.753-8.481,1.829-10.866l1.776,2.257s.226,8.466-2.844,9.5S162.19,151.039,162.19,151.039Z" transform="translate(-147.749 -113.519)" opacity="0.2"/>
        <path id="Trazado_124118" data-name="Trazado 124118" d="M205.778,398.659l-13.568-2.017.414-3.763,14.109,1.851Z" transform="translate(-155.18 -215.113)" fill="#7d6eb2"/>
        <path id="Trazado_124119" data-name="Trazado 124119" d="M205.778,398.659l-13.568-2.017.414-3.763,14.109,1.851Z" transform="translate(-155.18 -215.113)" fill="#fff" opacity="0.6"/>
        <path id="Trazado_124120" data-name="Trazado 124120" d="M163.421,396.8H150.26v-3.936l13.658-.256Z" transform="translate(-144.797 -215.046)" fill="#7d6eb2"/>
        <path id="Trazado_124121" data-name="Trazado 124121" d="M163.421,396.8H150.26v-3.936l13.658-.256Z" transform="translate(-144.797 -215.046)" fill="#fff" opacity="0.6"/>
      </g>
    </g>
  </g>
</svg>
