<?xml version="1.0" encoding="utf-8"?>
<!-- Generator: Adobe Illustrator 25.3.1, SVG Export Plug-In . SVG Version: 6.00 Build 0)  -->
<svg version="1.1" id="Layer_1" xmlns="http://www.w3.org/2000/svg" xmlns:xlink="http://www.w3.org/1999/xlink" x="0px" y="0px"
	 viewBox="0 0 342.1 245.4" style="enable-background:new 0 0 342.1 245.4;" xml:space="preserve">
<style type="text/css">
	.st0{fill:#EBEBEB;}
	.st1{fill:#E6E6E6;}
	.st2{fill:#F0F0F0;}
	.st3{fill:#FAFAFA;}
	.st4{fill:#FFFFFF;}
	.st5{opacity:0.5;fill:#E0E0E0;enable-background:new    ;}
	.st6{fill:#E0E0E0;}
	.st7{fill:#F5F5F5;}
	.st8{fill:#26AAB7;}
	.st9{opacity:0.3;fill:#FFFFFF;enable-background:new    ;}
	.st10{opacity:0.5;}
	.st11{opacity:0.2;fill:#7D6EB2;enable-background:new    ;}
	.st12{fill:#FFB573;}
	.st13{fill:#263238;}
	.st14{opacity:0.2;enable-background:new    ;}
	.st15{opacity:0.3;enable-background:new    ;}
	.st16{fill:#ED893E;}
</style>
<g id="Mobile_Marketing-rafiki" transform="translate(57 -79.504)">
	<g id="freepik--background-complete--inject-7" transform="translate(-57 82.869)">
		<rect id="Rectángulo_29453" x="-0.7" y="209.3" class="st0" width="338" height="0.2"/>
		<rect id="Rectángulo_29454" x="281" y="220.1" class="st0" width="22.4" height="0.2"/>
		<rect id="Rectángulo_29455" x="217.3" y="222" class="st0" width="5.9" height="0.2"/>
		<rect id="Rectángulo_29456" x="267.4" y="213.9" class="st0" width="13" height="0.2"/>
		<rect id="Rectángulo_29457" x="34.7" y="215" class="st0" width="29.2" height="0.2"/>
		<rect id="Rectángulo_29458" x="70" y="215" class="st0" width="4.3" height="0.2"/>
		<rect id="Rectángulo_29459" x="88.2" y="217.8" class="st0" width="63.3" height="0.2"/>
		<rect id="Rectángulo_29460" x="153.5" y="4.7" class="st1" width="131.7" height="115.7"/>
		<rect id="Rectángulo_29461" x="155.1" y="4.7" class="st2" width="133.5" height="115.7"/>
		<rect id="Rectángulo_29462" x="153.5" y="120.3" class="st1" width="131.7" height="3.2"/>
		<rect id="Rectángulo_29463" x="160.8" y="120.3" class="st2" width="133.5" height="3.2"/>
		<rect id="Rectángulo_29464" x="159.9" y="9.5" class="st3" width="123.9" height="106.1"/>
		<path id="Trazado_117711" class="st4" d="M176.5,115.5L190.2,9.5h23.7l-13.7,106.1H176.5z"/>
		<path id="Trazado_117712" class="st4" d="M205.2,115.5L218.9,9.5h9.2l-13.7,106.1H205.2z"/>
		<rect id="Rectángulo_29465" x="283.2" y="9.5" class="st1" width="0.6" height="106.1"/>
		<path id="Trazado_117713" class="st5" d="M289.8,19.6H158.1l-0.4-8.2h131.7L289.8,19.6z"/>
		<path id="Trazado_117714" class="st5" d="M289.8,33.1H158.1l-0.4-8.2h131.7L289.8,33.1z"/>
		<path id="Trazado_117715" class="st5" d="M289.8,46.7H158.1l-0.4-8.2h131.7L289.8,46.7z"/>
		<path id="Trazado_117716" class="st5" d="M289.8,60.2H158.1l-0.4-8.2h131.7L289.8,60.2z"/>
		<path id="Trazado_117717" class="st5" d="M289.8,73.7H158.1l-0.4-8.2h131.7L289.8,73.7z"/>
		<path id="Trazado_117718" class="st5" d="M289.8,87.3H158.1l-0.4-8.2h131.7L289.8,87.3z"/>
		<rect id="Rectángulo_29466" x="38.9" y="29" class="st6" width="41.1" height="81.3"/>
		<rect id="Rectángulo_29467" x="40.6" y="29" class="st7" width="42" height="81.3"/>
		<rect id="Rectángulo_29468" x="44.1" y="33.7" class="st4" width="34.9" height="71.9"/>
		<rect id="Rectángulo_29469" x="93.8" y="16.5" class="st6" width="41.1" height="81.3"/>
		<rect id="Rectángulo_29470" x="95.5" y="16.5" class="st7" width="42" height="81.3"/>
		<rect id="Rectángulo_29471" x="99" y="21.2" class="st4" width="34.9" height="71.9"/>
		<rect id="Rectángulo_29472" x="110.4" y="134.3" class="st1" width="17.3" height="75"/>
		<path id="Trazado_117719" class="st2" d="M124.4,209.3h3.3v-7.6h-6.7L124.4,209.3z"/>
		<rect id="Rectángulo_29473" x="45.6" y="134.3" class="st1" width="17.3" height="75"/>
		<rect id="Rectángulo_29474" x="60.1" y="134.3" class="st2" width="67.6" height="70.3"/>
		<rect id="Rectángulo_29475" x="95" y="139" class="st1" width="30.1" height="56.1"/>
		<rect id="Rectángulo_29476" x="62.6" y="139" class="st1" width="30.1" height="56.1"/>
		<path id="Trazado_117720" class="st2" d="M80.7,141.1h-6c-2.5,0-4.9-0.8-6.8-2.4h19.7C85.6,140.3,83.2,141.1,80.7,141.1z"/>
		<path id="Trazado_117721" class="st2" d="M113.3,141.1h-6c-2.5,0-4.9-0.8-6.8-2.4h19.7C118.3,140.3,115.8,141.1,113.3,141.1z"/>
		<path id="Trazado_117722" class="st2" d="M63.4,209.3h-3.3v-7.6h6.7L63.4,209.3z"/>
		<path id="Trazado_117723" class="st1" d="M76,127.1c0,0,0.5,7.2,20.2,7.2s20.2-7.2,20.2-7.2H76z"/>
		<rect id="Rectángulo_29477" x="153.6" y="146.8" class="st0" width="147.9" height="12.4"/>
		<rect id="Rectángulo_29478" x="153.6" y="146.8" class="st6" width="42" height="12.4"/>
		<rect id="Rectángulo_29479" x="292.7" y="159.2" class="st0" width="8.9" height="50"/>
		<path id="Trazado_117724" class="st6" d="M292.7,162.7l8.9-1.7v-1.7h-8.9V162.7z"/>
		<rect id="Rectángulo_29480" x="153.6" y="159.2" class="st6" width="8.9" height="50"/>
		<rect id="Rectángulo_29481" x="186.8" y="159.2" class="st0" width="8.9" height="50"/>
		<path id="Trazado_117725" class="st6" d="M186.8,162.7l8.9-1.7v-1.7h-8.9V162.7z"/>
		<rect id="Rectángulo_29482" x="265" y="159.2" class="st6" width="8.9" height="50"/>
	</g>
	<g id="freepik--Shadow--inject-7" transform="translate(50.519 372.492)">
		<ellipse id="freepik--path--inject-7" class="st7" cx="103.6" cy="-59.8" rx="131.1" ry="7.7"/>
	</g>
	<g id="freepik--Smartphone--inject-7" transform="translate(88.818 124.364)">
		<path id="Trazado_117726" class="st8" d="M53.4-5.7h-80.6c-5.1-0.1-9.2,4-9.3,9.1c0,0.3,0,0.5,0,0.8l11.6,172
			c0.5,5.6,5,9.9,10.6,9.9h80.6c5.1,0.1,9.2-4,9.3-9.1c0-0.3,0-0.6,0-0.8L64.1,4.2C63.6-1.3,59-5.6,53.4-5.7L53.4-5.7z"/>
		<path id="Trazado_117727" class="st9" d="M53.4-5.7h-80.6c-5.1-0.1-9.2,4-9.3,9.1c0,0.3,0,0.5,0,0.8l11.6,172
			c0.5,5.6,5,9.9,10.6,9.9h80.6c5.1,0.1,9.2-4,9.3-9.1c0-0.3,0-0.6,0-0.8L64.1,4.2C63.6-1.3,59-5.6,53.4-5.7L53.4-5.7z"/>
		
			<rect id="Rectángulo_29483" x="-36.5" y="31.2" transform="matrix(0.9978 -6.698349e-02 6.698349e-02 0.9978 -2.7143 -2.3346)" class="st8" width="0.7" height="16.3"/>
		
			<rect id="Rectángulo_29484" x="-35.1" y="55.9" transform="matrix(0.9977 -6.714462e-02 6.714462e-02 0.9977 -4.0792 -2.2011)" class="st8" width="0.7" height="7.3"/>
		<path id="Trazado_117728" class="st8" d="M-19.1,178c0.1,1.5-1,2.8-2.5,2.9c-1.2,0.1-2.4-0.6-2.8-1.8c-0.3-0.9-0.5-1.9-0.6-2.8
			l-11.6-172c-0.1-1,0-1.9,0.2-2.9c0.3-1.5,1.7-2.4,3.2-2.1c1.2,0.3,2.1,1.3,2.2,2.5L-19.1,178z"/>
		<path id="Trazado_117729" class="st4" d="M66.3,182.9H-8.6c-3.8-0.1-7-3.1-7.4-6.9l-11.6-172c-0.3-3.3,2.1-6.2,5.4-6.4
			c0.2,0,0.4,0,0.6,0h74.9c3.8,0.1,7,3.1,7.4,6.9l11.6,172c0.3,3.3-2.1,6.2-5.4,6.4C66.7,182.9,66.5,183,66.3,182.9L66.3,182.9z
			 M-21.5-1.7c-2.9-0.1-5.3,2.2-5.3,5.1c0,0.2,0,0.4,0,0.6l11.6,172c0.3,3.5,3.2,6.1,6.6,6.2h74.9c2.9,0.1,5.3-2.2,5.3-5.1
			c0-0.2,0-0.4,0-0.6L60.1,4.5c-0.3-3.5-3.2-6.1-6.6-6.2L-21.5-1.7z"/>
		<g id="Grupo_55078" transform="translate(20.153 17.552)" class="st10">
			
				<ellipse id="Elipse_4106" transform="matrix(0.6871 -0.7266 0.7266 0.6871 -24.4355 13.1715)" class="st8" cx="3.1" cy="35" rx="30.1" ry="33.7"/>
			
				<ellipse id="Elipse_4107" transform="matrix(0.6871 -0.7266 0.7266 0.6871 -24.4412 13.1735)" class="st4" cx="3.1" cy="35" rx="24.1" ry="26.9"/>
			
				<ellipse id="Elipse_4108" transform="matrix(0.6873 -0.7263 0.7263 0.6873 -24.4601 13.1625)" class="st8" cx="3.1" cy="35" rx="18.1" ry="20.2"/>
			
				<ellipse id="Elipse_4109" transform="matrix(0.6871 -0.7266 0.7266 0.6871 -24.4409 13.174)" class="st4" cx="3.1" cy="35" rx="12" ry="13.5"/>
			
				<ellipse id="Elipse_4110" transform="matrix(0.6873 -0.7263 0.7263 0.6873 -24.4504 13.1659)" class="st8" cx="3.1" cy="35" rx="6" ry="6.7"/>
		</g>
		<path id="Trazado_117730" class="st4" d="M29.4,95.9H29c-1.9-3.7-5.6-6-9.7-6c-1,0-2.1,0.2-3,0.5c-2-3.6-5.8-5.9-9.9-6
			c-5.4-0.1-9.8,4.2-9.8,9.6c0,0,0,0,0,0c-4.2,0.2-7.4,3.8-7.1,8c0,0.1,0,0.1,0,0.2c0.4,4.6,4.2,8.2,8.8,8.2h32.2
			c3.7,0,6.7-2.9,6.8-6.6c0-0.2,0-0.4,0-0.6C36.8,99,33.4,95.9,29.4,95.9z"/>
		<path id="Trazado_117731" class="st4" d="M49.9,17.2h-0.3c-1.5-2.8-4.4-4.6-7.6-4.7c-0.8,0-1.6,0.1-2.4,0.4
			c-1.5-2.8-4.5-4.6-7.7-4.6c-4.2-0.1-7.6,3.3-7.7,7.4c-3.3,0.2-5.7,3-5.5,6.2c0,0,0,0.1,0,0.1c0.3,3.6,3.3,6.4,6.8,6.4h25.1
			c2.9,0,5.3-2.3,5.3-5.2c0-0.2,0-0.3,0-0.5C55.6,19.7,53,17.2,49.9,17.2L49.9,17.2z"/>
		<path id="Trazado_117732" class="st9" d="M59.9,122.5H13.5c-1.3,0-2.4,1-2.4,2.4c0,0.1,0,0.1,0,0.2l1.9,27.6
			c0.1,1.5,1.3,2.6,2.8,2.6H22l0.5,7.6l7.1-7.6h32.5c1.3,0,2.4-1,2.4-2.4c0-0.1,0-0.2,0-0.2l-1.9-27.6
			C62.5,123.6,61.3,122.5,59.9,122.5L59.9,122.5z"/>
		<path id="Trazado_117733" class="st4" d="M59.5,140.6H16.3l-0.2-3.5h43.2L59.5,140.6z"/>
		<path id="Trazado_117734" class="st4" d="M46.3,147.9H16.8l-0.2-3.5h29.5L46.3,147.9z"/>
		<path id="Trazado_117735" class="st4" d="M59,133.4H15.8l-0.2-3.5h43.2L59,133.4z"/>
	</g>
	<g id="freepik--Character--inject-7" transform="translate(131.038 90.061)">
		<path id="Trazado_117736" class="st8" d="M53.9,39.9l1.8,1.3c0.6,0.5,1.2,0.9,1.9,1.3c1.3,0.8,2.5,1.7,3.8,2.4s2.6,1.5,3.8,2.1
			c1.2,0.6,2.4,1.1,3.7,1.5c-0.3-0.1-0.6-0.1-0.9,0c-0.2,0-0.3,0.1-0.5,0.1c-0.2,0.1-0.1,0.1,0,0c0.4-0.3,0.7-0.6,1.1-1
			c0.9-1.1,1.7-2.2,2.4-3.4c0.8-1.2,1.5-2.6,2.3-3.9c0.7-1.4,1.4-2.7,2.1-4.1l0-0.1c0.8-1.5,2.6-2.1,4.1-1.3
			c1.3,0.7,1.9,2.1,1.5,3.5c-0.9,3.2-2.1,6.4-3.5,9.4c-0.8,1.6-1.7,3.2-2.7,4.7c-0.6,0.9-1.4,1.8-2.2,2.5c-0.6,0.5-1.3,1-2.1,1.3
			c-0.5,0.2-1.1,0.4-1.7,0.4c-0.7,0.1-1.4,0-2-0.1c-1.8-0.4-3.6-1-5.3-1.7c-1.6-0.7-3.2-1.4-4.7-2.2c-1.5-0.8-3-1.6-4.4-2.5
			c-0.7-0.4-1.4-0.9-2.1-1.4c-0.7-0.5-1.4-0.9-2.1-1.5c-1.9-1.8-2.1-4.8-0.3-6.7C49.5,39.1,51.9,38.7,53.9,39.9L53.9,39.9z"/>
		<path id="Trazado_117737" class="st11" d="M53.9,39.9l1.8,1.3c0.6,0.5,1.2,0.9,1.9,1.3c1.3,0.8,2.5,1.7,3.8,2.4s2.6,1.5,3.8,2.1
			c1.2,0.6,2.4,1.1,3.7,1.5c-0.3-0.1-0.6-0.1-0.9,0c-0.2,0-0.3,0.1-0.5,0.1c-0.2,0.1-0.1,0.1,0,0c0.4-0.3,0.7-0.6,1.1-1
			c0.9-1.1,1.7-2.2,2.4-3.4c0.8-1.2,1.5-2.6,2.3-3.9c0.7-1.4,1.4-2.7,2.1-4.1l0-0.1c0.8-1.5,2.6-2.1,4.1-1.3
			c1.3,0.7,1.9,2.1,1.5,3.5c-0.9,3.2-2.1,6.4-3.5,9.4c-0.8,1.6-1.7,3.2-2.7,4.7c-0.6,0.9-1.4,1.8-2.2,2.5c-0.6,0.5-1.3,1-2.1,1.3
			c-0.5,0.2-1.1,0.4-1.7,0.4c-0.7,0.1-1.4,0-2-0.1c-1.8-0.4-3.6-1-5.3-1.7c-1.6-0.7-3.2-1.4-4.7-2.2c-1.5-0.8-3-1.6-4.4-2.5
			c-0.7-0.4-1.4-0.9-2.1-1.4c-0.7-0.5-1.4-0.9-2.1-1.5c-1.9-1.8-2.1-4.8-0.3-6.7C49.5,39.1,51.9,38.7,53.9,39.9L53.9,39.9z"/>
		<path id="Trazado_117738" class="st12" d="M77,35.1l1.8-3.1l3.5,3.8c-0.5,1.1-1.4,2-2.6,2.4c-0.5,0.2-1.1,0.1-1.5-0.2l-0.7-0.4
			C76.8,37,76.5,35.9,77,35.1L77,35.1z"/>
		<path id="Trazado_117739" class="st12" d="M83.8,30.1l0.8,0.5c0.9,0.5,1.1,1.7,0.6,2.5c-0.1,0.2-0.2,0.3-0.3,0.4l-2.5,2.2L78.8,32
			l3.1-1.9C82.5,29.8,83.2,29.8,83.8,30.1L83.8,30.1z"/>
		<path id="Trazado_117740" class="st12" d="M10.9,217.1l5.4,0.2l2-12.4l-5.3-0.2L10.9,217.1z"/>
		<path id="Trazado_117741" class="st13" d="M17.1,215.8l-6-0.8c-0.2,0-0.4,0.1-0.4,0.3L9.8,220c-0.1,0.5,0.3,1,0.8,1.1
			c2.1,0.2,3.1,0.2,5.7,0.6c1.6,0.2,5.8,1.2,8.1,0.9c2.2-0.3,1.9-2.5,0.9-2.6c-4.4-0.4-6-2.5-7.3-3.8
			C17.7,216,17.4,215.8,17.1,215.8z"/>
		<path id="Trazado_117742" class="st14" d="M12.9,204.7l5.4,0.2l-1,6.4l-5.4-0.2L12.9,204.7z"/>
		<path id="Trazado_117743" class="st13" d="M42.2,85.9c0,0-4.7,44.3-7.8,59.4C31,161.8,20.1,210,20.1,210l-9.8-0.7
			c0,0,5.4-49.9,9.8-66.1c0-16.8,4.1-63.8,4.1-63.8L42.2,85.9z"/>
		<path id="Trazado_117744" class="st15" d="M26.6,100.9c-0.1-3.5-2-4.6-3.8-4.5c-0.7,8.3-1.4,18.6-1.9,27.8
			C24.1,118.8,26.8,110.5,26.6,100.9z"/>
		<path id="Trazado_117745" class="st4" d="M10,209.4l10.5,0.8l1.2-4l-12.1-0.1L10,209.4z"/>
		<path id="Trazado_117746" class="st12" d="M-43.4,175.5l3.4,4.2l10.1-7.3l-3.4-4.2L-43.4,175.5z"/>
		<path id="Trazado_117747" class="st13" d="M-39.3,179.7l-3-5.2c-0.1-0.2-0.3-0.3-0.5-0.2l-4.3,2.1c-0.5,0.3-0.6,0.8-0.4,1.3
			c1.1,1.8,1.7,2.6,3,4.9c0.8,1.4,2.9,5.5,4.1,7.4s3,0.8,2.7-0.1c-1.4-4.2-1.7-7.3-1.5-9.2C-39.1,180.4-39.1,180-39.3,179.7
			L-39.3,179.7z"/>
		<path id="Trazado_117748" class="st14" d="M-33.3,168.3l3.4,4.2l-5.2,3.7l-3.4-4.2L-33.3,168.3z"/>
		<path id="Trazado_117749" class="st13" d="M32.4,82.1c0,0-13.2,37.7-19.2,51.9C6.7,149.5-32.5,177-32.5,177l-6.2-7.6
			c0,0,26.6-26.7,36.5-39.3C3.3,112.8,15,75.8,15,75.8L32.4,82.1z"/>
		<path id="Trazado_117750" class="st4" d="M-38.9,169.1l6.7,8.2l3.3-1.9l-7.8-8.7L-38.9,169.1z"/>
		<path id="Trazado_117751" class="st2" d="M42.1,86.1L15,75.8c0.7-2.5,4.2-9.8,7.4-19.9c2.4-7.5,4.1-15.2,5.2-23l0,0
			c0.1-0.9,1-1.6,1.9-1.5c0,0,0.1,0,0.1,0c0.5,0.1,1.1,0.2,1.8,0.3c1.7,0.3,3.8,0.8,5.9,1.5c3.9,1.1,7.7,2.5,11.5,4.1
			c1.3,0.6,2.5,1.2,3.7,1.9c0.7,0.4,1.4,0.9,1.9,1.4c0.4,0.3,0.7,0.8,0.8,1.4C55,46,51.1,61,42.1,86.1z"/>
		<path id="Trazado_117752" class="st12" d="M48.1,37.1c-3.1-2-2.9-4.3-1.9-6.4c0.3-0.5,0.6-1.1,0.9-1.6l-2.9-5L42,20.5
			c-0.5,4-1.9,11.1-5.3,12.7c1.8,2.6,4.5,4.6,7.5,5.5C49.2,40.2,48.1,37.1,48.1,37.1z"/>
		<path id="Trazado_117753" class="st6" d="M44.1,38.6l0-1.3L40.6,38L44.1,38.6z"/>
		<path id="Trazado_117754" class="st6" d="M44.1,38.6l0.6-1l2.2,2.7L44.1,38.6z"/>
		<path id="Trazado_117755" class="st4" d="M37.2,32.5c2.1,1.9,4.4,3.5,6.8,4.8c-1.4,0.8-2.6,3-3.1,4.8c-1.1-0.8-5.5-8-6.1-10
			L37.2,32.5z"/>
		<path id="Trazado_117756" class="st4" d="M47.5,36.3c-0.8,0.7-1.8,1.1-2.8,1.2c0.7,1.1,1.4,3.8,1.4,5.4c1.6-1.3,2.8-3.1,3.5-5
			L47.5,36.3z"/>
		<path id="Trazado_117757" class="st15" d="M47.6,36.2c0,0,3,1.4,5.6,3c2.2,1.4,3.2,4,2.5,6.5c-3.2,11.4-7.6,22.5-9.4,28.6
			c-1.9,6.6-4.6,14.8-4.6,14.8l-4.6,1.1C37.1,90.3,48.7,46.1,47.6,36.2z"/>
		<path id="Trazado_117758" class="st15" d="M37.1,32c0,0-4-0.5-7.4-0.7c-2.5-0.1-4.7,1.5-5.4,4c-1.8,7-3.1,20.2-4.8,25.4
			c-2.2,6.5-5.2,19.1-5.2,19.1L30,88.9C30,88.9,45.9,40.1,37.1,32z"/>
		<path id="Trazado_117759" class="st8" d="M37.1,32c0,0-4-0.5-7.4-0.7c-2.5-0.1-4.7,1.5-5.4,4c-1.8,7-4.2,19.9-5.9,25.1
			c-2.2,6.5-6.9,17.4-6.9,17.4l19.8,9.3C31.3,87.2,45.9,40.1,37.1,32z"/>
		<path id="Trazado_117760" class="st11" d="M37.1,32c0,0-4-0.5-7.4-0.7c-2.5-0.1-4.7,1.5-5.4,4c-1.8,7-4.2,19.9-5.9,25.1
			c-2.2,6.5-6.9,17.4-6.9,17.4l19.8,9.3C31.3,87.2,45.9,40.1,37.1,32z"/>
		<path id="Trazado_117761" class="st8" d="M47.6,36.2c0,0,3,1.4,5.6,3c2.2,1.4,3.2,4,2.5,6.5c-3.2,11.4-5.8,23.3-7.1,29.6
			c-1.4,6.7-2.8,12.8-2.8,12.8l-7.4,1C38.4,89.2,48.7,46.1,47.6,36.2z"/>
		<path id="Trazado_117762" class="st11" d="M47.6,36.2c0,0,3,1.4,5.6,3c2.2,1.4,3.2,4,2.5,6.5c-3.2,11.4-5.8,23.3-7.1,29.6
			c-1.4,6.7-2.8,12.8-2.8,12.8l-7.4,1C38.4,89.2,48.7,46.1,47.6,36.2z"/>
		<path id="Trazado_117763" class="st14" d="M47.1,29.1c-0.3,0.5-0.6,1-0.9,1.6c-1.4-0.9-2.9-3.3-2.6-4.9c0.1-0.6,0.3-1.1,0.5-1.6
			L47.1,29.1z"/>
		<path id="Trazado_117764" class="st13" d="M51.3,8.6c3.6,0.5,4.9,5.3,2.9,8.5C51,12.4,51.3,8.6,51.3,8.6z"/>
		<path id="Trazado_117765" class="st12" d="M40.1,17.5c1.2,5.2,1.7,8.3,4.8,10.6c3,2.3,7.4,1.8,9.7-1.3c0.9-1.1,1.4-2.5,1.4-3.9
			c0.3-4.9-1.7-12.5-7.2-13.9c-3.7-1.1-7.6,1.1-8.7,4.8C39.8,15.1,39.8,16.3,40.1,17.5L40.1,17.5z"/>
		<path id="Trazado_117766" class="st13" d="M41.7,22.2c3.1,0.1,2.6-5.1,1.3-7.1c4.3,0.7,11.5-3.2,12.3-7.2c1.1-5.8-7.8-5.8-10.7-4
			c1.2,0.1,1.9,1.1,1.6,1.7c0,0-4.3-1.3-7.1,0.2c1.2,0.4,2.5,2.2-2.1,2.7c-4.4,0.5-3.1,4.9-0.8,4.9c-1.2,1.8-2.6,5.9,0.1,7.7
			s4.5,4,3.9,4.9C41,26,42.9,24.9,41.7,22.2z"/>
		<path id="Trazado_117767" class="st13" d="M36.7,13c-2.1,0.2-3.3,1.8-3.4,4.1C34.2,15.6,35.4,14.2,36.7,13z"/>
		<path id="Trazado_117768" class="st12" d="M38.8,22.2c0.5,1.1,1.5,1.9,2.6,2.3c1.5,0.5,2.2-0.8,1.9-2.2c-0.3-1.3-1.5-3.2-3-3.1
			S38.2,20.9,38.8,22.2z"/>
		<path id="Trazado_117769" class="st13" d="M48.3,17.9c0.1,0.4,0.4,0.7,0.6,0.7c0.3-0.1,0.4-0.4,0.4-0.8S49,17,48.7,17.1
			C48.4,17.2,48.3,17.5,48.3,17.9z"/>
		<path id="Trazado_117770" class="st13" d="M53.2,17.3c0.1,0.4,0.4,0.7,0.6,0.7c0.3-0.1,0.4-0.4,0.4-0.8c-0.1-0.4-0.4-0.7-0.6-0.7
			C53.3,16.5,53.1,16.8,53.2,17.3z"/>
		<path id="Trazado_117771" class="st16" d="M51.7,17.7c0.7,1.2,1.6,2.4,2.7,3.4c-0.5,0.5-1.3,0.8-2,0.7L51.7,17.7z"/>
		<path id="Trazado_117772" class="st13" d="M50.8,23.1c-1,0-2-0.4-2.7-1.1c0-0.1,0-0.1,0-0.2c0,0,0.1,0,0.2,0c0.8,0.8,1.9,1.1,3,1
			c0.1,0,0.1,0,0.2,0.1c0,0.1,0,0.1-0.1,0.2c0,0,0,0,0,0C51.1,23.1,51,23.1,50.8,23.1z"/>
		<path id="Trazado_117773" class="st13" d="M49.5,24.5C48.6,23.9,48.1,23,48,22c0-0.1,0-0.1,0.1-0.1c0.1,0,0.1,0,0.1,0.1
			c0,0,0,0,0,0c0.2,1.1,0.8,2.1,1.8,2.6c0.1,0,0.1,0.1,0,0.2c0,0,0,0,0,0c0,0.1-0.1,0.1-0.2,0c0,0,0,0,0,0
			C49.7,24.7,49.6,24.6,49.5,24.5L49.5,24.5z"/>
		<path id="Trazado_117774" class="st13" d="M46.6,16.6c-0.1,0-0.2-0.1-0.3-0.2c0-0.1,0-0.1,0-0.2c0.4-0.7,1.1-1.2,1.9-1.4
			c0.1,0,0.3,0.1,0.3,0.2c0,0.1-0.1,0.3-0.2,0.3c-0.6,0.1-1.2,0.5-1.5,1.1C46.7,16.5,46.7,16.6,46.6,16.6z"/>
		<path id="Trazado_117775" class="st13" d="M55,15.3c-0.1,0-0.2,0-0.2-0.1c-0.4-0.6-1-0.9-1.6-0.9c-0.1,0-0.2-0.2-0.2-0.3
			c0-0.1,0.1-0.2,0.2-0.2l0,0c0.8,0,1.6,0.5,2,1.2c0.1,0.1,0.1,0.3-0.1,0.3c0,0,0,0,0,0C55.1,15.3,55,15.3,55,15.3L55,15.3z"/>
		<path id="Trazado_117776" class="st8" d="M31.1,40.1c-1.4,1.1-2.8,2.3-4.1,3.5c-1.4,1.2-2.7,2.4-4.1,3.7c-2.6,2.4-5.1,5-7.3,7.7
			l-0.8,1l-0.1,0.1c0,0,0-0.1,0.1-0.1c0-0.1,0.1-0.2,0.1-0.2c0.1-0.1,0.1-0.3,0.1-0.4c0-0.2,0-0.2,0-0.1c0,0.2,0.1,0.4,0.2,0.6
			c0.3,0.6,0.6,1.2,1,1.8c0.5,0.7,1,1.3,1.5,2c1.1,1.4,2.3,2.7,3.6,3.9c1.3,1.3,2.6,2.6,3.9,3.8l0.1,0.1c1.2,1.1,1.3,3,0.2,4.3
			c-1,1.1-2.7,1.3-3.9,0.5c-3.4-2.1-6.6-4.6-9.5-7.4c-0.7-0.7-1.5-1.5-2.2-2.4c-0.8-0.9-1.4-1.9-2-3c-0.4-0.6-0.6-1.3-0.9-2
			c-0.3-0.9-0.4-1.9-0.3-2.9c0.1-0.6,0.2-1.2,0.4-1.8c0.1-0.3,0.3-0.6,0.4-0.9l0.2-0.4l0.1-0.2L8.8,50c2.3-3.3,4.9-6.3,7.8-9.2
			c1.4-1.4,2.8-2.8,4.2-4.1c1.4-1.3,2.9-2.6,4.5-3.9c2.2-1.3,5.1-0.6,6.5,1.6C32.8,36.2,32.6,38.5,31.1,40.1L31.1,40.1z"/>
		<path id="Trazado_117777" class="st11" d="M31.1,40.1c-1.4,1.1-2.8,2.3-4.1,3.5c-1.4,1.2-2.7,2.4-4.1,3.7c-2.6,2.4-5.1,5-7.3,7.7
			l-0.8,1l-0.1,0.1c0,0,0-0.1,0.1-0.1c0-0.1,0.1-0.2,0.1-0.2c0.1-0.1,0.1-0.3,0.1-0.4c0-0.2,0-0.2,0-0.1c0,0.2,0.1,0.4,0.2,0.6
			c0.3,0.6,0.6,1.2,1,1.8c0.5,0.7,1,1.3,1.5,2c1.1,1.4,2.3,2.7,3.6,3.9c1.3,1.3,2.6,2.6,3.9,3.8l0.1,0.1c1.2,1.1,1.3,3,0.2,4.3
			c-1,1.1-2.7,1.3-3.9,0.5c-3.4-2.1-6.6-4.6-9.5-7.4c-0.7-0.7-1.5-1.5-2.2-2.4c-0.8-0.9-1.4-1.9-2-3c-0.4-0.6-0.6-1.3-0.9-2
			c-0.3-0.9-0.4-1.9-0.3-2.9c0.1-0.6,0.2-1.2,0.4-1.8c0.1-0.3,0.3-0.6,0.4-0.9l0.2-0.4l0.1-0.2L8.8,50c2.3-3.3,4.9-6.3,7.8-9.2
			c1.4-1.4,2.8-2.8,4.2-4.1c1.4-1.3,2.9-2.6,4.5-3.9c2.2-1.3,5.1-0.6,6.5,1.6C32.8,36.2,32.6,38.5,31.1,40.1L31.1,40.1z"/>
		<path id="Trazado_117778" class="st12" d="M26.2,68.5l4.6,2.8l-5.9,3.3c0,0-3.9-2.9-2.2-4.8l2-1.4C25.1,68.1,25.7,68.1,26.2,68.5z
			"/>
		<path id="Trazado_117779" class="st12" d="M31.1,76.4l-2.5,1.5c-0.7,0.4-1.7,0.2-2.1-0.5c0,0,0,0,0,0l-1.5-2.7l5.9-3.3l0.9,3.4
			C31.9,75.3,31.7,76,31.1,76.4z"/>
	</g>
	<g id="freepik--Megaphone--inject-7" transform="translate(277.404 79.504)">
		<path id="Trazado_117780" class="st8" d="M-71.3,39.2l6.2-1.2c-1.7,3,0.8,5.9,3.1,7.7c1.1,0.9,0.3,2.4-1.4,2.7l-4.1,0.8
			C-72.3,50.2-71.3,39.2-71.3,39.2z"/>
		<path id="Trazado_117781" class="st8" d="M-73.8,39.7l14.3-2.8c4.6-0.9,7.7-5.4,6.8-10.1l0,0c-0.9-4.6-5.4-7.7-10.1-6.8l-14.3,2.8
			c-4.6,0.9-7.7,5.4-6.8,10.1l0,0C-82.9,37.6-78.4,40.6-73.8,39.7z"/>
		<path id="Trazado_117782" class="st9" d="M-73.8,39.7l14.3-2.8c4.6-0.9,7.7-5.4,6.8-10.1l0,0c-0.9-4.6-5.4-7.7-10.1-6.8l-14.3,2.8
			c-4.6,0.9-7.7,5.4-6.8,10.1l0,0C-82.9,37.6-78.4,40.6-73.8,39.7z"/>
		<path id="Trazado_117783" class="st8" d="M-34.9,42.6l-24.3-0.3c-2.1,0.4-7.4-26.9-5.4-27.3l22.4-9.5L-34.9,42.6z"/>
		<path id="Trazado_117784" class="st8" d="M-40.5,24.4c2,10.2,4.5,18.4,5.6,18.2c1.1-0.2,0.3-8.7-1.7-18.9
			c-2-10.2-4.5-18.4-5.6-18.2C-43.3,5.7-42.5,14.2-40.5,24.4z"/>
		<path id="Trazado_117785" class="st15" d="M-40.5,24.4c2,10.2,4.5,18.4,5.6,18.2c1.1-0.2,0.3-8.7-1.7-18.9
			c-2-10.2-4.5-18.4-5.6-18.2C-43.3,5.7-42.5,14.2-40.5,24.4z"/>
		<path id="Trazado_117786" class="st8" d="M-31.4,23.2c-0.5-2.5-6.1-3.5-7.3-3.3c-1.2,0.2-1.8,2.5-1.3,5c0.5,2.5,1.9,4.3,3,4.1
			C-35.7,28.7-30.9,25.7-31.4,23.2z"/>
		
			<rect id="Rectángulo_29485" x="-25.5" y="22.6" transform="matrix(0.9871 -0.16 0.16 0.9871 -3.795 -1.2245)" class="st8" width="32.1" height="0.7"/>
		
			<rect id="Rectángulo_29486" x="-30.2" y="11.8" transform="matrix(0.761 -0.6488 0.6488 0.761 -13.0743 -11.1343)" class="st8" width="17.1" height="0.7"/>
		
			<rect id="Rectángulo_29487" x="-7.1" y="35.9" transform="matrix(0.3328 -0.943 0.943 0.3328 -40.6839 19.3048)" class="st8" width="0.7" height="5.1"/>
		
			<rect id="Rectángulo_29488" x="-20.7" y="27.4" transform="matrix(0.318 -0.9481 0.9481 0.318 -45.8065 3.7371)" class="st8" width="0.7" height="12.7"/>
	</g>
</g>
</svg>
