<svg xmlns="http://www.w3.org/2000/svg" xmlns:xlink="http://www.w3.org/1999/xlink" width="386.577" height="202.778" viewBox="0 0 386.577 202.778">
  <defs>
    <clipPath id="clip-path">
      <path id="Trazado_124429" data-name="Trazado 124429" d="M190.045,242.33a1.622,1.622,0,1,1-2.787,0h-1.877a1.641,1.641,0,0,1,.229.821,1.622,1.622,0,1,1-3.016-.821h-1.909a1.578,1.578,0,0,1,.229.821,1.622,1.622,0,1,1-3.016-.821h-1.877a1.578,1.578,0,0,1,.229.821,1.622,1.622,0,1,1-3.238,0,1.578,1.578,0,0,1,.229-.821h-1.877a1.622,1.622,0,1,1-3.016.821,1.578,1.578,0,0,1,.229-.821h-1.845a1.622,1.622,0,1,1-2.787,0H162.77v33.51h27.893V242.33Z" transform="translate(-162.77 -242.33)" fill="none"/>
    </clipPath>
  </defs>
  <g id="Grupo_55418" data-name="Grupo 55418" transform="translate(-691 -3050.6)">
    <g id="Telecommuting-pana" transform="translate(691 3050.6)">
      <g id="freepik--background-complete--inject-7" transform="translate(4.787 1.488)">
        <path id="Trazado_124250" data-name="Trazado 124250" d="M330.41,89.74,341.8,125.776h-8.246l-3.633-12.426Z" transform="translate(-155.566 -60.117)" fill="#ebebeb"/>
        <rect id="Rectángulo_30171" data-name="Rectángulo 30171" width="170.116" height="10.167" transform="translate(9.579 65.621)" fill="#e0e0e0"/>
        <rect id="Rectángulo_30172" data-name="Rectángulo 30172" width="8.233" height="15.607" transform="translate(33.285 73.568)" fill="#e0e0e0"/>
        <rect id="Rectángulo_30173" data-name="Rectángulo 30173" width="8.227" height="15.607" transform="translate(155.561 73.568)" fill="#e0e0e0"/>
        <path id="Trazado_124251" data-name="Trazado 124251" d="M106.565,71.989s-7.635,5.815-.318,13.5a.674.674,0,0,0,.484.2l66.7-.388s5.726-6.362.967-13.755Z" transform="translate(-91.209 -53.5)" fill="#ebebeb"/>
        <path id="Trazado_124252" data-name="Trazado 124252" d="M169.275,81.7c0,.07-8.309.134-18.553.134s-18.553-.064-18.553-.134,8.309-.134,18.553-.134S169.275,81.627,169.275,81.7Z" transform="translate(-101.792 -57.145)" fill="#e0e0e0"/>
        <path id="Trazado_124253" data-name="Trazado 124253" d="M164.206,85.494c0,.076-3.906.134-8.723.134s-8.723-.057-8.723-.134,3.906-.134,8.723-.134S164.206,85.417,164.206,85.494Z" transform="translate(-107.1 -58.524)" fill="#e0e0e0"/>
        <path id="Trazado_124254" data-name="Trazado 124254" d="M201.13,84.984c-.045,0,.146-.763.35-2a28.515,28.515,0,0,0,.388-4.861,29.224,29.224,0,0,0-.477-4.861c-.229-1.234-.439-1.985-.394-2a2.125,2.125,0,0,1,.2.515c.108.337.242.827.382,1.444a23.687,23.687,0,0,1,.1,9.8c-.134.636-.254,1.113-.356,1.451a2.4,2.4,0,0,1-.185.515Z" transform="translate(-112.496 -53.395)" fill="#e0e0e0"/>
        <path id="Trazado_124255" data-name="Trazado 124255" d="M209,71.42a2.367,2.367,0,0,1,.3.484,6.63,6.63,0,0,1,.293.6c.108.242.235.509.344.821a14.589,14.589,0,0,1,.636,2.208,16.542,16.542,0,0,1,.337,2.812,16.066,16.066,0,0,1-.242,2.806,15.183,15.183,0,0,1-.6,2.227c-.1.312-.229.579-.331.821a5.5,5.5,0,0,1-.286.636,2.786,2.786,0,0,1-.286.49c-.051,0,.324-.744.719-1.979a15.543,15.543,0,0,0,.534-2.2,17.812,17.812,0,0,0,.223-2.768,17.444,17.444,0,0,0-.267-2.761,16.027,16.027,0,0,0-.566-2.2C209.356,72.158,209,71.445,209,71.42Z" transform="translate(-120.765 -53.453)" fill="#e0e0e0"/>
        <path id="Trazado_124256" data-name="Trazado 124256" d="M124.03,85.528a2.278,2.278,0,0,1-.312-.445,4.662,4.662,0,0,1-.312-.56c-.108-.223-.242-.471-.356-.763a11.855,11.855,0,0,1-.636-2.106,13.137,13.137,0,0,1-.254-2.685,13.291,13.291,0,0,1,.331-2.679A11.222,11.222,0,0,1,123.2,74.2a6.994,6.994,0,0,1,.375-.757,4.286,4.286,0,0,1,.324-.547c.2-.293.305-.452.324-.439s-.382.674-.853,1.813a13.15,13.15,0,0,0-.636,2.068,14,14,0,0,0-.305,2.628,14.844,14.844,0,0,0,.229,2.64,13.654,13.654,0,0,0,.585,2.08C123.668,84.828,124.081,85.483,124.03,85.528Z" transform="translate(-98.151 -53.831)" fill="#e0e0e0"/>
        <path id="Trazado_124257" data-name="Trazado 124257" d="M112.5,87.062a3.365,3.365,0,0,1-.344-.509,5.267,5.267,0,0,1-.344-.636c-.127-.255-.28-.534-.407-.859a14.525,14.525,0,0,1-.763-2.36,16.542,16.542,0,0,1-.375-3.009,16.16,16.16,0,0,1,.242-3.022,14.392,14.392,0,0,1,.636-2.386,9.21,9.21,0,0,1,.363-.878,6.73,6.73,0,0,1,.318-.636,2.144,2.144,0,0,1,.324-.515c.045,0-.382.783-.827,2.1a15.641,15.641,0,0,0,.235,10.638C112.089,86.292,112.553,87.03,112.5,87.062Z" transform="translate(-93.825 -53.755)" fill="#e0e0e0"/>
        <path id="Trazado_124258" data-name="Trazado 124258" d="M195.692,125.09v12.769H171V125.09Z" transform="translate(-104.521 -72.976)" fill="#ebebeb"/>
        <path id="Trazado_124259" data-name="Trazado 124259" d="M84.428,130.832v.337a7.31,7.31,0,0,0,7.361,6.852H165.35V137.1H147.886a6.362,6.362,0,0,1-6.362-6.362h0a6.362,6.362,0,0,1,6.362-6.362H165.35V123l-73.561.223a7.368,7.368,0,0,0-7.361,7.609Z" transform="translate(-84.424 -72.216)" fill="#e0e0e0"/>
        <path id="Trazado_124260" data-name="Trazado 124260" d="M196.842,135.314c0,.076-5.09.14-11.338.14s-11.344-.064-11.344-.14,5.09-.134,11.344-.134S196.842,135.244,196.842,135.314Z" transform="translate(-105.325 -76.646)" fill="#e0e0e0"/>
        <path id="Trazado_124261" data-name="Trazado 124261" d="M196.977,139.834c0,.076-4.8.14-10.733.14s-10.733-.064-10.733-.14,4.8-.134,10.733-.134S196.977,139.764,196.977,139.834Z" transform="translate(-125.85 -78.291)" fill="#e0e0e0"/>
        <path id="Trazado_124262" data-name="Trazado 124262" d="M198.777,143.974c0,.076-4.32.134-9.645.134s-9.652-.057-9.652-.134,4.32-.134,9.652-.134S198.777,143.9,198.777,143.974Z" transform="translate(-105.252 -79.797)" fill="#e0e0e0"/>
        <path id="Trazado_124263" data-name="Trazado 124263" d="M197.107,131.254c0,.076-4.975.134-11.109.134s-11.109-.057-11.109-.134,4.969-.134,11.109-.134S197.107,131.184,197.107,131.254Z" transform="translate(-105.015 -75.17)" fill="#e0e0e0"/>
        <path id="Trazado_124264" data-name="Trazado 124264" d="M197.941,127.194c0,.076-4.454.134-9.887.134s-9.893-.057-9.893-.134,4.454-.134,9.893-.134S197.941,127.117,197.941,127.194Z" transform="translate(-104.945 -73.693)" fill="#e0e0e0"/>
        <path id="Trazado_124265" data-name="Trazado 124265" d="M96.45,123.69a17.367,17.367,0,0,0-1.552,1.858,9.461,9.461,0,0,0,.134,10.937,17.637,17.637,0,0,0,1.6,1.826,3.3,3.3,0,0,1-.528-.394,8.621,8.621,0,0,1-1.209-1.3,9.3,9.3,0,0,1-.134-11.16,8.5,8.5,0,0,1,1.2-1.342A2.545,2.545,0,0,1,96.45,123.69Z" transform="translate(-87.532 -72.467)" fill="#f5f5f5"/>
        <path id="Trazado_124266" data-name="Trazado 124266" d="M92.513,123.26a16.961,16.961,0,0,0-1.559,1.858,9.461,9.461,0,0,0,.127,10.943,17.911,17.911,0,0,0,1.6,1.82,2.851,2.851,0,0,1-.528-.394,8.322,8.322,0,0,1-1.253-1.317A9.3,9.3,0,0,1,90.8,125a8.5,8.5,0,0,1,1.2-1.342A2.544,2.544,0,0,1,92.513,123.26Z" transform="translate(-86.083 -72.31)" fill="#f5f5f5"/>
        <path id="Trazado_124267" data-name="Trazado 124267" d="M171.082,123.69a16.5,16.5,0,0,0-1.565,1.858,9.461,9.461,0,0,0,.134,10.937,16.76,16.76,0,0,0,1.6,1.826,3.3,3.3,0,0,1-.528-.394,8.315,8.315,0,0,1-1.228-1.3,9.3,9.3,0,0,1-.134-11.16,8.194,8.194,0,0,1,1.2-1.342A2.545,2.545,0,0,1,171.082,123.69Z" transform="translate(-114.669 -72.467)" fill="#f5f5f5"/>
        <path id="Trazado_124268" data-name="Trazado 124268" d="M167.172,123.26a17.371,17.371,0,0,0-1.565,1.858,9.474,9.474,0,0,0,.134,10.943,17.912,17.912,0,0,0,1.6,1.82,2.852,2.852,0,0,1-.528-.394,8.322,8.322,0,0,1-1.228-1.317,9.3,9.3,0,0,1-.134-11.16,8.5,8.5,0,0,1,1.2-1.342A2.545,2.545,0,0,1,167.172,123.26Z" transform="translate(-113.247 -72.31)" fill="#f5f5f5"/>
        <path id="Trazado_124269" data-name="Trazado 124269" d="M109.382,133.879l-.07-5.192a3.64,3.64,0,0,0-.185-1.336,1.272,1.272,0,0,0-.986-.827c-.636-.293-1.661.254-2.112,1a4.893,4.893,0,0,0-.515,2.545,36.734,36.734,0,0,0,.2,4.1,4.606,4.606,0,0,0,.484,1.877,1.565,1.565,0,0,0,2.965-.248,5.224,5.224,0,0,0,.216-1.915Z" transform="translate(-92.091 -73.469)" fill="#f5f5f5"/>
        <path id="Trazado_124270" data-name="Trazado 124270" d="M142.921,135.71c0,.07-5.319.134-11.872.134s-11.878-.064-11.878-.134,5.313-.14,11.878-.14S142.921,135.634,142.921,135.71Z" transform="translate(-97.063 -76.788)" fill="#f5f5f5"/>
        <path id="Trazado_124271" data-name="Trazado 124271" d="M103.774,115.971l-.134-12.1h6.585l.229,12.1Z" transform="translate(-91.414 -65.257)" fill="#f5f5f5"/>
        <path id="Trazado_124272" data-name="Trazado 124272" d="M109.881,107.165a16.931,16.931,0,0,1-3.06.14,16.931,16.931,0,0,1-3.06-.14,18.082,18.082,0,0,1,3.06-.134,18.082,18.082,0,0,1,3.06.134Z" transform="translate(-91.458 -66.401)" fill="#e0e0e0"/>
        <path id="Trazado_124273" data-name="Trazado 124273" d="M109.881,110.1a17.32,17.32,0,0,1-3.06.134,17.32,17.32,0,0,1-3.06-.134,17.32,17.32,0,0,1,3.06-.134,17.318,17.318,0,0,1,3.06.134Z" transform="translate(-91.458 -67.47)" fill="#e0e0e0"/>
        <path id="Trazado_124274" data-name="Trazado 124274" d="M109.881,113.035a16.931,16.931,0,0,1-3.06.14,16.931,16.931,0,0,1-3.06-.14,18.082,18.082,0,0,1,3.06-.134A18.081,18.081,0,0,1,109.881,113.035Z" transform="translate(-91.458 -68.537)" fill="#e0e0e0"/>
        <path id="Trazado_124275" data-name="Trazado 124275" d="M109.881,115.974a17.318,17.318,0,0,1-3.06.134,17.318,17.318,0,0,1-3.06-.134,17.318,17.318,0,0,1,3.06-.134,17.32,17.32,0,0,1,3.06.134Z" transform="translate(-91.458 -69.605)" fill="#e0e0e0"/>
        <path id="Trazado_124276" data-name="Trazado 124276" d="M109.881,118.915a16.928,16.928,0,0,1-3.06.14,16.93,16.93,0,0,1-3.06-.14,18.081,18.081,0,0,1,3.06-.134,18.08,18.08,0,0,1,3.06.134Z" transform="translate(-91.458 -70.676)" fill="#e0e0e0"/>
        <path id="Trazado_124277" data-name="Trazado 124277" d="M103.09,103.37h73a34.191,34.191,0,0,1,0,13.075H103.4v-.891h4.454a2.093,2.093,0,0,0,2.1-2.093v-7.24a2.093,2.093,0,0,0-2.1-2.093H103.1Z" transform="translate(-91.214 -65.075)" fill="#ebebeb"/>
        <path id="Trazado_124278" data-name="Trazado 124278" d="M129.216,112.169h1.222a.223.223,0,0,1,.127,0,.248.248,0,0,1,.134.229.14.14,0,0,1,0,.076,1.393,1.393,0,0,1-.076.312,3.493,3.493,0,0,1-.763,1.381,1.457,1.457,0,0,1-1.043.534h-.146a1.2,1.2,0,0,1-.827-.636,2.729,2.729,0,0,1-.363-1.463,3.97,3.97,0,0,1,.146-1.043,3.531,3.531,0,0,1,.719-1.412,1.482,1.482,0,0,1,1.1-.585,1.012,1.012,0,0,1,.458.108,1.476,1.476,0,0,1,.713.891.261.261,0,0,1,.032.121.229.229,0,0,1-.038.127.242.242,0,0,1-.223.134H130.3a.261.261,0,0,1-.172-.165h0a1.209,1.209,0,0,0-.146-.286.681.681,0,0,0-.579-.35.725.725,0,0,0-.407.146,2.144,2.144,0,0,0-.636.961,3.6,3.6,0,0,0-.286,1.374,2.545,2.545,0,0,0,.2,1.075.713.713,0,0,0,.636.477.859.859,0,0,0,.592-.356,3.131,3.131,0,0,0,.636-1.126h-.872a.277.277,0,0,1-.293-.293.362.362,0,0,1,0-.089A.274.274,0,0,1,129.216,112.169Z" transform="translate(-100.085 -67.327)" fill="#fafafa"/>
        <path id="Trazado_124279" data-name="Trazado 124279" d="M135.241,109.847a.155.155,0,0,0,.032.089q.076.267.859,4.524a.229.229,0,0,1,0,.064.267.267,0,0,1-.038.134.235.235,0,0,1-.216.134h-.045a.235.235,0,0,1-.2-.185l-.293-1.5h-1.5l-.719,1.508a.128.128,0,0,1,0,.051.267.267,0,0,1-.223.127.254.254,0,0,1-.14-.038.261.261,0,0,1-.121-.223.318.318,0,0,1,0-.076c.045-.108.121-.274.223-.5q1.572-3.436,1.909-4.059a.293.293,0,0,1,.254-.178A.274.274,0,0,1,135.241,109.847Zm-.331,1.012-.808,1.705h1.145Z" transform="translate(-101.962 -67.385)" fill="#fafafa"/>
        <path id="Trazado_124280" data-name="Trazado 124280" d="M141.719,114.779h-2.2a.273.273,0,0,1-.14-.038.414.414,0,0,1-.127-.28h0q0-.134.636-4.5a.49.49,0,0,1,0-.1.235.235,0,0,1,.235-.165.261.261,0,0,1,.121,0,.255.255,0,0,1,.14.235c0,.2-.07.636-.153,1.234-.248,1.909-.382,2.939-.394,3.041h1.871a.5.5,0,0,1,.14,0,.248.248,0,0,1,.165.248.172.172,0,0,1,0,.083A.3.3,0,0,1,141.719,114.779Z" transform="translate(-104.368 -67.374)" fill="#fafafa"/>
        <path id="Trazado_124281" data-name="Trazado 124281" d="M146.352,109.833a.636.636,0,0,1,.038.089q.076.267.859,4.524a.229.229,0,0,1,0,.064.267.267,0,0,1-.038.134.242.242,0,0,1-.216.134h-.045a.242.242,0,0,1-.2-.185l-.3-1.527h-1.5l-.719,1.508a.127.127,0,0,1,0,.051.286.286,0,0,1-.223.127.293.293,0,0,1-.146-.038.274.274,0,0,1-.121-.223.171.171,0,0,1,0-.076c.045-.108.121-.274.223-.5q1.578-3.436,1.909-4.059a.286.286,0,0,1,.254-.178A.267.267,0,0,1,146.352,109.833Zm-.324,1.012-.808,1.705h1.145Z" transform="translate(-105.999 -67.37)" fill="#fafafa"/>
        <path id="Trazado_124282" data-name="Trazado 124282" d="M152.141,112.468c.172.477.305.846.4,1.1.229.636.337.961.337.993a.235.235,0,0,1-.038.134.254.254,0,0,1-.223.121.229.229,0,0,1-.216-.178l-.045-.108c-.115-.274-.312-.789-.585-1.552l-1.272,1.705a.293.293,0,0,1-.229.134.344.344,0,0,1-.14,0,.248.248,0,0,1-.121-.223v-.057a.636.636,0,0,1,.134-.21c.42-.541.878-1.183,1.381-1.909-.051-.146-.1-.286-.153-.414-.464-1.272-.7-1.909-.7-1.947a.344.344,0,0,1,0-.134.229.229,0,0,1,.216-.127.261.261,0,0,1,.242.14l.738,1.985,1.463-2a.3.3,0,0,1,.235-.127.261.261,0,0,1,.121,0,.242.242,0,0,1,.127.229.274.274,0,0,1,0,.121Z" transform="translate(-108.282 -67.41)" fill="#fafafa"/>
        <path id="Trazado_124283" data-name="Trazado 124283" d="M159.762,109.7a.261.261,0,0,1,.121.032.248.248,0,0,1,.14.223c-.356,2.844-.56,4.384-.592,4.613a2.857,2.857,0,0,1-.471,1.2,1.718,1.718,0,0,1-1.463.713,1.686,1.686,0,0,1-.706-.185,1.565,1.565,0,0,1-.8-.706.286.286,0,0,1,0-.127.343.343,0,0,1,0-.134.261.261,0,0,1,.229-.127.242.242,0,0,1,.2.108,1.419,1.419,0,0,0,1.126.636,1.139,1.139,0,0,0,.878-.445,2.43,2.43,0,0,0,.484-1.381,1.374,1.374,0,0,1-.324.344,1.311,1.311,0,0,1-.789.255h-.146a1.164,1.164,0,0,1-.833-.636,2.672,2.672,0,0,1-.369-1.463,6.141,6.141,0,0,1,.038-.827c.038-.445.14-1.075.293-1.909a.355.355,0,0,1,0-.076.248.248,0,0,1,.235-.178.229.229,0,0,1,.127.038.235.235,0,0,1,.134.21c0,.134-.045.464-.121,1a14.741,14.741,0,0,0-.178,1.533,3.181,3.181,0,0,0,.2,1.2c.153.356.369.534.636.534h.089a1.221,1.221,0,0,0,.636-.528,3.181,3.181,0,0,0,.541-1.215l.337-2.507a.306.306,0,0,1,.032-.108A.248.248,0,0,1,159.762,109.7Z" transform="translate(-110.457 -67.352)" fill="#fafafa"/>
        <path id="Trazado_124284" data-name="Trazado 124284" d="M213.434,116.518c-.076,0-.134-3-.134-6.706s.057-6.712.134-6.712.134,3,.134,6.712S213.51,116.518,213.434,116.518Z" transform="translate(-122.059 -64.977)" fill="#f5f5f5"/>
        <path id="Trazado_124285" data-name="Trazado 124285" d="M119.554,116.518c-.076,0-.134-3-.134-6.706s.057-6.712.134-6.712.134,3,.134,6.712S119.624,116.518,119.554,116.518Z" transform="translate(-97.154 -64.977)" fill="#e0e0e0"/>
        <path id="Trazado_124286" data-name="Trazado 124286" d="M215.444,116.518c-.07,0-.134-3-.134-6.706s.064-6.712.134-6.712.14,3,.14,6.712S215.52,116.518,215.444,116.518Z" transform="translate(-122.646 -64.977)" fill="#f5f5f5"/>
        <path id="Trazado_124287" data-name="Trazado 124287" d="M117.67,116.518c-.076,0-.14-3-.14-6.706s.064-6.712.14-6.712.134,3,.134,6.712S117.74,116.518,117.67,116.518Z" transform="translate(-96.467 -64.977)" fill="#e0e0e0"/>
        <path id="Trazado_124288" data-name="Trazado 124288" d="M181.1,106.57h0l7.718,6.222.07.057H188.8l-1.024.274-6.515,1.705h0l-5.9-2.5-1.692-.719-.445-.191-.108-.051h0l.115.045.445.178,1.68.7,5.917,2.469h0l6.515-1.718,1.024-.267v.076l-7.7-6.248h0" transform="translate(-98.769 -66.239)" fill="#e0e0e0"/>
        <path id="Trazado_124289" data-name="Trazado 124289" d="M196.38,114.8l.426.394.56-.121-.248.522.293.5-.573-.07-.382.433-.108-.573-.528-.229.5-.28Z" transform="translate(-111.234 -69.233)" fill="#e0e0e0"/>
        <path id="Trazado_124290" data-name="Trazado 124290" d="M184.881,118.65l.286.242.363-.1-.14.35.21.312-.375-.025-.229.293-.1-.363-.35-.134.318-.2Z" transform="translate(-120.846 -70.633)" fill="#e0e0e0"/>
        <path id="Trazado_124291" data-name="Trazado 124291" d="M172.22,113.191l.458.032.286-.363.115.445.433.159-.388.242-.019.458-.35-.293-.445.127.172-.426Z" transform="translate(-116.361 -68.527)" fill="#e0e0e0"/>
        <path id="Trazado_124292" data-name="Trazado 124292" d="M202.14,106.541l.458.025.286-.356.115.445.426.153-.388.248-.013.458-.356-.293-.439.127.165-.426Z" transform="translate(-112.767 -66.108)" fill="#e0e0e0"/>
        <path id="Trazado_124293" data-name="Trazado 124293" d="M185.1,106.136l.293.013.185-.229.07.286.28.1-.248.153-.013.293-.229-.185-.28.083.108-.274Z" transform="translate(-121.046 -66.003)" fill="#e0e0e0"/>
        <path id="Trazado_124294" data-name="Trazado 124294" d="M196.78,106.953s-2.494-.051-5.573-.185-5.573-.261-5.567-.293,2.494.057,5.573.185S196.78,106.928,196.78,106.953Z" transform="translate(-108.44 -66.203)" fill="#e0e0e0"/>
        <path id="Trazado_124295" data-name="Trazado 124295" d="M164.763,99.665H90.731c-.973-2.2-1.209-4.288,0-6.165h74.032a7.177,7.177,0,0,1,0,6.165Z" transform="translate(-86.419 -61.485)" fill="#e0e0e0"/>
        <rect id="Rectángulo_30174" data-name="Rectángulo 30174" width="40.108" height="2.24" transform="translate(19.638 33.778)" fill="#ebebeb"/>
        <path id="Trazado_124296" data-name="Trazado 124296" d="M94.928,99.788a2.233,2.233,0,0,1-.585-.744,5.522,5.522,0,0,1-.674-2.189,5.44,5.44,0,0,1,.286-2.271,2.163,2.163,0,0,1,.445-.833,7.385,7.385,0,0,1-.267.891,6.617,6.617,0,0,0-.2,2.2,6.527,6.527,0,0,0,.579,2.119A6.948,6.948,0,0,1,94.928,99.788Z" transform="translate(-87.779 -61.576)" fill="#e0e0e0"/>
        <path id="Trazado_124297" data-name="Trazado 124297" d="M97.447,99.788a2.233,2.233,0,0,1-.585-.744,5.421,5.421,0,0,1-.674-2.189,5.338,5.338,0,0,1,.286-2.271,2.163,2.163,0,0,1,.445-.833,7.388,7.388,0,0,1-.267.891,6.451,6.451,0,0,0-.2,2.2,6.222,6.222,0,0,0,.579,2.119,6.949,6.949,0,0,1,.414.833Z" transform="translate(-88.695 -61.576)" fill="#e0e0e0"/>
        <path id="Trazado_124298" data-name="Trazado 124298" d="M202.85,99.548a12.921,12.921,0,0,0,.522-3.016,12.853,12.853,0,0,0-.49-3.022,6.28,6.28,0,0,1-.032,6.038Z" transform="translate(-112.958 -61.488)" fill="#f5f5f5"/>
        <path id="Trazado_124299" data-name="Trazado 124299" d="M200.668,99.628c-.076,0,.235-1.317.223-2.952s-.312-2.927-.229-2.946a8.958,8.958,0,0,1,0,5.9Z" transform="translate(-112.439 -61.568)" fill="#f5f5f5"/>
        <path id="Trazado_124300" data-name="Trazado 124300" d="M250.84,43.18h50.8v66.3h-50.46Z" transform="translate(-131.208 -43.18)" fill="#e0e0e0"/>
        <rect id="Rectángulo_30175" data-name="Rectángulo 30175" width="50.511" height="65.621" transform="translate(165.954 65.946) rotate(180)" fill="#fff"/>
        <path id="Trazado_124301" data-name="Trazado 124301" d="M295.653,43.3v66.117H244.64V43.3Zm-.522,65.621V43.8H245.124v65.125Z" transform="translate(-129.457 -43.224)" fill="#e0e0e0"/>
        <rect id="Rectángulo_30176" data-name="Rectángulo 30176" width="38.67" height="51.408" transform="translate(120.923 7.444)" fill="#fff"/>
        <path id="Trazado_124302" data-name="Trazado 124302" d="M253.127,54.8V69.113c0,9.041.032,21.874.057,37.092l-.115-.121h38.664l-.134.134V54.811l.21.076-28.083-.057h-.064l28.147-.14h.1v51.643H253v-.115c0-15.27.045-28.109.057-37.169,0-4.511,0-8.074.032-10.517V55.046A.644.644,0,0,1,253.127,54.8Z" transform="translate(-132.296 -47.367)" fill="#e0e0e0"/>
        <path id="Trazado_124303" data-name="Trazado 124303" d="M244.85,142.774a7.113,7.113,0,0,1,.681-1.113c.452-.636,1.088-1.571,1.813-2.545s1.419-1.858,1.909-2.475a5.662,5.662,0,0,1,.884-.961,7.712,7.712,0,0,1-.738,1.075l-1.871,2.545-1.871,2.513A6.445,6.445,0,0,1,244.85,142.774Z" transform="translate(-131.12 -76.828)" fill="#e0e0e0"/>
        <path id="Trazado_124304" data-name="Trazado 124304" d="M245,43.69a37.2,37.2,0,0,1,2.7,3.474,37.005,37.005,0,0,1,2.494,3.633,35.4,35.4,0,0,1-2.647-3.474A37.539,37.539,0,0,1,245,43.69Z" transform="translate(-131.167 -43.366)" fill="#e0e0e0"/>
        <line id="Línea_1518" data-name="Línea 1518" x1="6.649" y2="7.368" transform="translate(162.798 0.324)" fill="#fff"/>
        <path id="Trazado_124305" data-name="Trazado 124305" d="M314,51.058a46.31,46.31,0,0,1,3.226-3.773,45.728,45.728,0,0,1,3.423-3.595,47.539,47.539,0,0,1-3.232,3.773A46.442,46.442,0,0,1,314,51.058Z" transform="translate(-151.188 -43.366)" fill="#e0e0e0"/>
        <path id="Trazado_124306" data-name="Trazado 124306" d="M320.8,142.807a43.527,43.527,0,0,1-3.277-3.429,42.532,42.532,0,0,1-3.073-3.607,45.669,45.669,0,0,1,3.27,3.429A44.944,44.944,0,0,1,320.8,142.807Z" transform="translate(-151.332 -76.861)" fill="#e0e0e0"/>
        <path id="Trazado_124307" data-name="Trazado 124307" d="M256.1,125.822s4.161-12.89,6.636-14.264a23.77,23.77,0,0,1,10.861-2.939c5.726-.051,8.449.375,11.809,2.685,3.875,2.666,6.5,14.385,6.5,14.385" transform="translate(-133.299 -66.983)" fill="#e0e0e0"/>
        <path id="Trazado_124308" data-name="Trazado 124308" d="M270.649,75.32c-3.557.159-4.454,4.937-4.186,7.635.115,1.272.509,2.7-.14,3.817-.464.8-1.374,1.272-1.756,2.106-.471,1.012,0,2.182.318,3.245s.484,2.411-.369,3.137a30.806,30.806,0,0,0,6.14,1.152,10.39,10.39,0,0,0,6.019-1.336" transform="translate(-136.554 -54.871)" fill="#e0e0e0"/>
        <path id="Trazado_124309" data-name="Trazado 124309" d="M269.777,84.158c-2.348-5.376.833-8.666,2.914-9.849a8.774,8.774,0,0,1,4.123-.891,15.085,15.085,0,0,1,4.18.369,7.539,7.539,0,0,1,3.627,2.03c1.711,1.82,2.106,4.517,1.953,7a19.52,19.52,0,0,1-2.456,8.379,2,2,0,0,1-.725.846.757.757,0,0,1-1.005-.178" transform="translate(-137.681 -54.172)" fill="#e0e0e0"/>
        <path id="Trazado_124310" data-name="Trazado 124310" d="M278.081,104.684c2.411.165,4.524-1.909,4.772-5.631l1.272-18.909-.089,1.311a1.527,1.527,0,0,0-1.368-1.54l-7.488-.77a4.555,4.555,0,0,0-5.02,4.269,45.985,45.985,0,0,0,.076,8.545c.7,4.314,4.008,4.854,4.008,4.854l-.254,3.137a4.377,4.377,0,0,0,4.072,4.734Z" transform="translate(-138.119 -56.254)" fill="#f5f5f5"/>
        <path id="Trazado_124311" data-name="Trazado 124311" d="M272.54,89.412a.547.547,0,0,0,.534.554.534.534,0,0,0,.573-.5.553.553,0,0,0-.541-.554.528.528,0,0,0-.566.5Z" transform="translate(-139.33 -59.814)" fill="#e0e0e0"/>
        <path id="Trazado_124312" data-name="Trazado 124312" d="M271.485,88.405c.07.07.484-.242,1.082-.242s1.037.3,1.1.229-.038-.165-.229-.305a1.584,1.584,0,0,0-.884-.267,1.476,1.476,0,0,0-.859.28C271.511,88.246,271.453,88.374,271.485,88.405Z" transform="translate(-138.981 -59.419)" fill="#e0e0e0"/>
        <path id="Trazado_124313" data-name="Trazado 124313" d="M281.54,89.412a.547.547,0,0,0,.534.554.522.522,0,0,0,.566-.5.547.547,0,0,0-.534-.554.522.522,0,0,0-.566.5Z" transform="translate(-141.957 -59.814)" fill="#e0e0e0"/>
        <path id="Trazado_124314" data-name="Trazado 124314" d="M280.694,88.555c.064.07.484-.242,1.082-.242s1.031.3,1.1.223-.038-.159-.235-.3a1.546,1.546,0,0,0-.878-.267,1.431,1.431,0,0,0-.859.28C280.719,88.39,280.656,88.524,280.694,88.555Z" transform="translate(-141.666 -59.473)" fill="#e0e0e0"/>
        <path id="Trazado_124315" data-name="Trazado 124315" d="M276.436,92.994a3.519,3.519,0,0,0-.973-.172c-.146,0-.293-.051-.318-.153a.744.744,0,0,1,.1-.452c.14-.369.286-.751.445-1.158a19.719,19.719,0,0,0,1-3.06,20.323,20.323,0,0,0-1.272,2.946c-.153.407-.293.8-.426,1.171a.878.878,0,0,0-.083.592.394.394,0,0,0,.254.223,1.031,1.031,0,0,0,.254.038,4.059,4.059,0,0,0,1.018.025Z" transform="translate(-139.991 -59.484)" fill="#e0e0e0"/>
        <path id="Trazado_124316" data-name="Trazado 124316" d="M276.653,106.039a11.013,11.013,0,0,0,5.783-1.559s-1.546,2.99-5.866,2.6Z" transform="translate(-140.332 -65.479)" fill="#ebebeb"/>
        <path id="Trazado_124317" data-name="Trazado 124317" d="M277.687,97.867a1.082,1.082,0,0,1,.961-.4.98.98,0,0,1,.681.363.636.636,0,0,1,.045.706.719.719,0,0,1-.776.2,2.272,2.272,0,0,1-.763-.452.636.636,0,0,1-.172-.178.2.2,0,0,1,0-.223" transform="translate(-140.788 -62.925)" fill="#e0e0e0"/>
        <path id="Trazado_124318" data-name="Trazado 124318" d="M278.987,96.49c-.1,0-.1.636-.636,1.1s-1.241.388-1.272.484.153.121.445.127a1.584,1.584,0,0,0,1.037-.363,1.406,1.406,0,0,0,.5-.923C279.1,96.643,279.031,96.484,278.987,96.49Z" transform="translate(-140.621 -62.572)" fill="#e0e0e0"/>
        <path id="Trazado_124319" data-name="Trazado 124319" d="M280.268,86.992c.057.165.636.083,1.355.165s1.272.274,1.355.127-.057-.223-.286-.382a2.271,2.271,0,0,0-1.005-.344,2.131,2.131,0,0,0-1.056.127C280.37,86.788,280.243,86.916,280.268,86.992Z" transform="translate(-141.524 -58.953)" fill="#e0e0e0"/>
        <path id="Trazado_124320" data-name="Trazado 124320" d="M271.812,85.653c.108.134.515,0,1.012,0s.91.089,1.012-.057,0-.2-.21-.331a1.387,1.387,0,0,0-.821-.216,1.336,1.336,0,0,0-.8.274C271.824,85.469,271.767,85.609,271.812,85.653Z" transform="translate(-139.079 -58.41)" fill="#e0e0e0"/>
        <path id="Trazado_124321" data-name="Trazado 124321" d="M274.9,73.8c4.18-2.354,8.672-.706,12.057,2.691a8.321,8.321,0,0,0,2.392,2.049c.973.414,2.449.382,3.079,1.336.725,1.12-.254,2.7.274,3.926.5,1.126,2.042,1.451,2.615,2.545a4.131,4.131,0,0,1-.045,2.831,2.844,2.844,0,0,0,.414,2.729l-9,3.417a2.341,2.341,0,0,1-1.272.14c-1.272-.255-1.374-1.438-1.272-2.418a4.059,4.059,0,0,0-.057-2.176c-.369-.8-1.272-1.215-1.622-2.023-.585-1.425,1.031-2.908.833-4.454a2.87,2.87,0,0,0-1.832-2.08c-.884-.382-1.864-.509-2.78-.808a8.309,8.309,0,0,1-4.778-4.784,2.329,2.329,0,0,1,.967-2.933Z" transform="translate(-138.889 -53.916)" fill="#e0e0e0"/>
        <path id="Trazado_124323" data-name="Trazado 124323" d="M562.01,194.66a9.7,9.7,0,0,1-1.463,1.7c-.948,1-2.271,2.348-3.76,3.817s-2.863,2.774-3.875,3.7A8.99,8.99,0,0,1,551.2,205.3a9.5,9.5,0,0,1,1.457-1.692c.948-1,2.278-2.354,3.773-3.817s2.863-2.78,3.875-3.709a9.012,9.012,0,0,1,1.705-1.425Z" transform="translate(-219.789 -98.283)" fill="#e0e0e0"/>
        <path id="Trazado_124326" data-name="Trazado 124326" d="M561.844,91.32a9.992,9.992,0,0,1-1.7-1.463c-1-.948-2.348-2.271-3.817-3.767s-2.78-2.857-3.7-3.868A8.909,8.909,0,0,1,551.2,80.51a9.355,9.355,0,0,1,1.686,1.457c1,.942,2.354,2.278,3.817,3.773s2.787,2.863,3.709,3.875A9.016,9.016,0,0,1,561.844,91.32Z" transform="translate(-219.804 -56.759)" fill="#e0e0e0"/>
      </g>
      <g id="freepik--Chair--inject-7" transform="translate(251.379 106.142)">
        <path id="Trazado_124341" data-name="Trazado 124341" d="M451.578,324.685a10.434,10.434,0,0,1,10.18-8.761c21.976-.293,77.926-.8,80.929,1.584,3.741,2.971,5.726,4.492,5.4,9.206-.274,4.326-4.988,79.078-4.988,79.078H438.37Z" transform="translate(-438.37 -315.669)" fill="#455a64"/>
        <path id="Trazado_124342" data-name="Trazado 124342" d="M583.811,409.134a1.593,1.593,0,0,1-.032-.223,3.145,3.145,0,0,0-.051-.636c-.045-.585-.108-1.425-.184-2.488s-.165-2.411-.216-3.951-.153-3.3-.153-5.236c0-.973,0-1.991-.032-3.048s0-2.163.038-3.3c0-2.284.134-4.721.242-7.285.293-5.128.776-10.752,1.559-16.625s1.851-11.452,2.939-16.447c.579-2.5,1.113-4.88,1.711-7.088.293-1.1.554-2.17.846-3.181s.579-1.991.846-2.927c.522-1.871,1.088-3.531,1.546-5.007s.9-2.723,1.272-3.747.636-1.794.84-2.354l.229-.636c.051-.134.083-.2.083-.2a1,1,0,0,1-.051.216l-.2.636c-.184.566-.445,1.362-.782,2.379s-.77,2.284-1.209,3.76-.993,3.143-1.5,5.014c-.267.935-.541,1.909-.827,2.933s-.541,2.093-.827,3.181c-.585,2.2-1.107,4.587-1.68,7.081-1.075,5.014-2.093,10.561-2.908,16.428s-1.272,11.452-1.584,16.593c-.115,2.545-.255,4.994-.274,7.279,0,1.139-.057,2.24-.057,3.3v3.041c0,1.94.07,3.7.108,5.236s.1,2.863.153,3.945.1,1.909.121,2.5v.636A1.2,1.2,0,0,1,583.811,409.134Z" transform="translate(-491.029 -318.973)" fill="#263238"/>
        <path id="Trazado_124343" data-name="Trazado 124343" d="M490,375.163a.371.371,0,0,0,.159-.064,1.541,1.541,0,0,1,.484,0,2.182,2.182,0,0,1,1.533.9,2.5,2.5,0,0,1,.153,2.609,3.339,3.339,0,0,1-1.018,1.228,3.181,3.181,0,0,1-1.622.566,2.634,2.634,0,0,1-1.673-.439,2.087,2.087,0,0,1-.865-1.362,2.844,2.844,0,0,1,.8-2.507c1.177-1.005,2.214-1.037,2.2-.942s-.057,0-.159,0a2.649,2.649,0,0,0-.445.153,4.6,4.6,0,0,0-1.425.923,2.647,2.647,0,0,0-.668,2.284,1.775,1.775,0,0,0,.751,1.152,2.3,2.3,0,0,0,1.463.375,2.857,2.857,0,0,0,1.457-.5,2.9,2.9,0,0,0,.935-1.094,2.278,2.278,0,0,0-.07-2.341,2.169,2.169,0,0,0-1.355-.91,5.086,5.086,0,0,0-.63-.032Z" transform="translate(-456.098 -337.281)" fill="#263238"/>
        <path id="Trazado_124344" data-name="Trazado 124344" d="M509.246,360.165c0,.07-1.082-.127-2.812.032a12.89,12.89,0,0,0-10.562,7.425c-.744,1.572-.923,2.647-.993,2.634A3,3,0,0,1,495,369.5a10.818,10.818,0,0,1,.636-1.972,12.534,12.534,0,0,1,10.771-7.539,11.29,11.29,0,0,1,2.081.057A2.921,2.921,0,0,1,509.246,360.165Z" transform="translate(-458.926 -331.782)" fill="#263238"/>
        <path id="Trazado_124345" data-name="Trazado 124345" d="M469.72,387.767a2.2,2.2,0,0,1,.248-.541,8.124,8.124,0,0,1,.922-1.323,9.817,9.817,0,0,1,9.658-3.3,8.683,8.683,0,0,1,1.54.49,2.3,2.3,0,0,1,.528.274c0,.064-.789-.3-2.112-.534a10.231,10.231,0,0,0-9.442,3.219C470.165,387.048,469.777,387.8,469.72,387.767Z" transform="translate(-449.774 -339.935)" fill="#263238"/>
        <path id="Trazado_124346" data-name="Trazado 124346" d="M498.842,390.688a4.059,4.059,0,0,1-1.075-.776,12,12,0,0,1-2.081-2.449,11.733,11.733,0,0,1-1.355-2.908,3.816,3.816,0,0,1-.261-1.3,23.483,23.483,0,0,0,1.909,4.034,24.631,24.631,0,0,0,2.863,3.4Z" transform="translate(-458.632 -340.253)" fill="#263238"/>
        <path id="Trazado_124347" data-name="Trazado 124347" d="M545.572,376.551a.7.7,0,0,1,.159-.064,1.54,1.54,0,0,1,.484,0,2.208,2.208,0,0,1,1.533.9,2.545,2.545,0,0,1,.159,2.609,3.36,3.36,0,0,1-1.024,1.228,3.181,3.181,0,0,1-1.622.566,2.634,2.634,0,0,1-1.673-.439,2.112,2.112,0,0,1-.865-1.362,2.844,2.844,0,0,1,.8-2.551c1.177-1,2.214-1.037,2.2-.942s-.057,0-.159.032a2.642,2.642,0,0,0-.445.153,4.6,4.6,0,0,0-1.425.923,2.646,2.646,0,0,0-.636,2.284,1.8,1.8,0,0,0,.751,1.152,2.3,2.3,0,0,0,1.463.375,2.857,2.857,0,0,0,1.457-.5,2.9,2.9,0,0,0,.935-1.094,2.278,2.278,0,0,0-.07-2.341,2.169,2.169,0,0,0-1.355-.91A5.089,5.089,0,0,0,545.572,376.551Z" transform="translate(-476.312 -337.785)" fill="#263238"/>
        <path id="Trazado_124348" data-name="Trazado 124348" d="M564.793,361.54c0,.07-1.082-.127-2.812.032a12.89,12.89,0,0,0-10.549,7.4c-.744,1.572-.923,2.647-.992,2.634a3,3,0,0,1,.121-.757,10.814,10.814,0,0,1,.636-1.972,12.534,12.534,0,0,1,10.759-7.539,11.3,11.3,0,0,1,2.08.057,2.918,2.918,0,0,1,.757.146Z" transform="translate(-479.137 -332.273)" fill="#263238"/>
        <path id="Trazado_124349" data-name="Trazado 124349" d="M525.3,389.159a2.2,2.2,0,0,1,.248-.541,8.555,8.555,0,0,1,.923-1.323,9.849,9.849,0,0,1,9.658-3.3,8.962,8.962,0,0,1,1.546.49,1.909,1.909,0,0,1,.522.28c0,.057-.789-.305-2.112-.541a10.218,10.218,0,0,0-9.435,3.219C525.745,388.44,525.357,389.191,525.3,389.159Z" transform="translate(-469.992 -340.442)" fill="#263238"/>
        <path id="Trazado_124350" data-name="Trazado 124350" d="M554.422,392.1a4.059,4.059,0,0,1-1.075-.776,12.211,12.211,0,0,1-2.08-2.45,11.731,11.731,0,0,1-1.355-2.908,3.819,3.819,0,0,1-.261-1.272,23.547,23.547,0,0,0,1.909,4.027A24.627,24.627,0,0,0,554.422,392.1Z" transform="translate(-478.85 -340.777)" fill="#263238"/>
      </g>
      <g id="freepik--Cushion--inject-7" transform="translate(277.629 77.432)">
        <path id="Trazado_124351" data-name="Trazado 124351" d="M554.319,273.707c-28.185-27.848-63.28-34.5-63.28-34.5-20.868,12.445-34.948,33.332-45.669,58.4,17.98,16.638,41.1,32.588,60.888,34.051C537.548,323.753,554.319,273.707,554.319,273.707Z" transform="translate(-445.37 -239.108)" fill="#f5ca56"/>
        <g id="Grupo_55339" data-name="Grupo 55339" opacity="0.4">
          <path id="Trazado_124352" data-name="Trazado 124352" d="M554.319,273.707c-28.185-27.848-63.28-34.5-63.28-34.5-20.868,12.445-34.948,33.332-45.669,58.4,17.98,16.638,41.1,32.588,60.888,34.051C537.548,323.753,554.319,273.707,554.319,273.707Z" transform="translate(-445.37 -239.21)"/>
        </g>
        <path id="Trazado_124353" data-name="Trazado 124353" d="M564.765,300.141a1,1,0,0,1-.07-.191l-.178-.573c-.159-.522-.382-1.272-.674-2.24l-2.475-8.417.121.07-13.825,4.454.089-.083a.41.41,0,0,1-.038.07c-.038.051-.134.076-.165.051a.178.178,0,0,1-.089-.089.567.567,0,0,1,0-.1v-9.3c0-1.667-.07-3.359-.165-5.09a45.62,45.62,0,0,0-.547-5.274l.2.127L534.3,276.486l-7.635,1.775-.165.038v-.165c-1.133-5.942-2.214-11.586-3.181-16.79l.191.121a113.345,113.345,0,0,1-20.08,3.506h-.1v-.1c-.528-4.326-.948-7.762-1.234-10.135-.14-1.164-.242-2.074-.318-2.7-.032-.3-.051-.528-.07-.7a2.243,2.243,0,0,1,0-.235.831.831,0,0,1,.045.229,6.338,6.338,0,0,0,.108.693c.083.636.21,1.533.369,2.7.312,2.367.763,5.8,1.33,10.122l-.115-.1a115.36,115.36,0,0,0,19.9-3.531l.159-.045v.159c1,5.2,2.087,10.848,3.226,16.784l-.2-.127,7.635-1.781,12.572-2.914.165-.038v.165a44.093,44.093,0,0,1,.541,5.313c.1,1.737.134,3.442.159,5.09s0,3.283,0,4.854v4.441h0c-.032,0-.064,0-.083.032h0l-.083-.051-.07-.032.159-.051,13.9-4.441.1-.032v.1l2.386,8.443.636,2.252.153.579a.714.714,0,0,1,.064.223Z" transform="translate(-465.863 -243.434)" fill="#26aab7"/>
        <path id="Trazado_124354" data-name="Trazado 124354" d="M553.62,314.962a.748.748,0,0,1-.064-.146c-.044-.115-.1-.261-.172-.452l-.636-1.756c-.547-1.552-1.336-3.817-2.341-6.687l.108.057-16.478,4.4-.153.038v-.153c-.394-3.035-.833-6.286-1.317-9.715s-1-7.043-1.661-10.752l.2.127-12.088,2.806-8.169,1.909-.165.038v-.172c-1.133-5.936-2.208-11.579-3.181-16.784l.191.115a113.429,113.429,0,0,1-20.08,3.512h-.1v-.1c-.528-4.326-.948-7.768-1.234-10.135-.134-1.171-.242-2.074-.312-2.7-.032-.293-.057-.528-.076-.693a1.379,1.379,0,0,1,0-.242,1.542,1.542,0,0,1,.045.235,6.078,6.078,0,0,0,.1.693c.083.636.21,1.527.369,2.691.312,2.373.763,5.8,1.33,10.122l-.115-.089a115.361,115.361,0,0,0,19.971-3.595l.159-.045v.159c1,5.2,2.087,10.816,3.232,16.784l-.2-.134,8.163-1.909,12.088-2.793.165-.038v.165c.636,3.722,1.164,7.336,1.648,10.765s.9,6.687,1.272,9.722l-.172-.115,16.5-4.307h.076l.032.076c.967,2.882,1.731,5.154,2.259,6.712.248.77.445,1.362.585,1.775.057.191.108.337.14.452Z" transform="translate(-460.107 -249.392)" fill="#fafafa"/>
        <path id="Trazado_124355" data-name="Trazado 124355" d="M537.154,335.736v-.528c0-.344.07-.872.127-1.533.121-1.362.293-3.34.515-5.872l.108.089-17.089,5.675-.146.051v-.153c-1.349-7-2.939-15.27-4.67-24.234l.2.127-10.453,2.411-9.779,2.265-.165.038-.032-.165c-1.133-5.942-2.208-11.586-3.181-16.784l.185.115a113.627,113.627,0,0,1-20.08,3.512h-.1v-.1c-.528-4.326-.948-7.768-1.234-10.135-.134-1.171-.242-2.074-.312-2.7-.032-.3-.057-.528-.076-.694a1.373,1.373,0,0,1,0-.242.944.944,0,0,0,.045.235c.045.153.057.394.1.693.083.636.21,1.527.369,2.691.312,2.367.757,5.8,1.33,10.122l-.115-.089a115.471,115.471,0,0,0,20.016-3.588l.159-.045.032.159c1,5.2,2.087,10.816,3.232,16.777l-.2-.127,9.779-2.271,10.441-2.4.165-.038v.172c1.705,8.965,3.283,17.242,4.613,24.241l-.172-.1,17.121-5.58.115-.038v.127q-.382,3.817-.592,5.86c-.07.636-.127,1.171-.165,1.533A2.94,2.94,0,0,1,537.154,335.736Z" transform="translate(-454.679 -256.449)" fill="#26aab7"/>
        <path id="Trazado_124356" data-name="Trazado 124356" d="M509.974,356.568l-.038-.121-.1-.363c-.083-.337-.2-.808-.363-1.406-.305-1.272-.751-3.067-1.317-5.357s-1.215-5.09-1.972-8.271-1.578-6.8-2.341-10.759l.178.121-20.226,4.708-.172.045-.032-.172c-.1-.554-.216-1.152-.331-1.75-1.005-5.249-1.972-10.307-2.876-15.034l.2.121a112.757,112.757,0,0,1-20.08,3.512h-.115v-.115c-.515-4.256-.935-7.7-1.222-10.084-.14-1.177-.242-2.093-.318-2.729-.032-.3-.057-.534-.07-.713a1.151,1.151,0,0,1,0-.242,1.109,1.109,0,0,1,.051.242l.1.7c.089.636.216,1.552.375,2.723.318,2.386.77,5.822,1.33,10.078l-.121-.1a115.282,115.282,0,0,0,20.016-3.588l.159-.045.038.165c.9,4.734,1.877,9.785,2.889,15.034.115.6.229,1.2.331,1.75l-.2-.127,20.239-4.683.146-.032.032.153c.744,3.945,1.578,7.546,2.29,10.752s1.368,6,1.909,8.316.948,4.11,1.234,5.37c.14.636.242,1.082.318,1.425l.076.363C509.974,356.524,509.981,356.568,509.974,356.568Z" transform="translate(-450.245 -264.117)" fill="#fafafa"/>
        <path id="Trazado_124357" data-name="Trazado 124357" d="M512.218,374.021a5.365,5.365,0,0,1-.235-.878l-.547-2.456c-.445-2.08-1.056-4.994-1.724-8.271l.2.127-1.909.445c-3.722.865-7.1,1.629-9.544,2.163l-2.9.636a7.348,7.348,0,0,1-1.075.185,6.281,6.281,0,0,1,1.043-.312l2.882-.719c2.43-.6,5.8-1.4,9.544-2.265l1.909-.439.165-.038v.165c.636,3.3,1.222,6.222,1.616,8.316.178,1.012.331,1.839.445,2.475A5.778,5.778,0,0,1,512.218,374.021Z" transform="translate(-463.235 -283.848)" fill="#26aab7"/>
        <path id="Trazado_124358" data-name="Trazado 124358" d="M477.885,355.492a5.568,5.568,0,0,1-.235-.9c-.14-.636-.318-1.476-.528-2.475-.433-2.087-1.005-4.982-1.622-8.182-.032-.2-.07-.388-.108-.573l.21.127c-3.029.821-5.777,1.406-7.768,1.762-.993.185-1.8.312-2.36.388a4.395,4.395,0,0,1-.872.089,5,5,0,0,1,.853-.21l2.335-.49c1.979-.42,4.708-1.037,7.724-1.858l.172-.045.032.172.115.573c.636,3.181,1.145,6.1,1.521,8.2.172,1.005.312,1.845.426,2.494A4.919,4.919,0,0,1,477.885,355.492Z" transform="translate(-452.365 -276.911)" fill="#26aab7"/>
        <path id="Trazado_124359" data-name="Trazado 124359" d="M448.074,331.444a12.5,12.5,0,0,1-.509-4.034,6.413,6.413,0,0,1,.42,2A6.216,6.216,0,0,1,448.074,331.444Z" transform="translate(-446.165 -271.193)" fill="#26aab7"/>
        <path id="Trazado_124360" data-name="Trazado 124360" d="M574.626,286.826a.529.529,0,0,1-.038-.159,3.553,3.553,0,0,0-.1-.464c-.076-.426-.185-1.031-.331-1.813-.286-1.6-.694-3.932-1.215-6.871l.108.076-9.613,1.54h-.127v-.121c-.967-5.783-2.125-12.725-3.4-20.359l.191.127-13.119,3.054-6.687,1.546-.159.038-.038-.159c-1.419-5.777-2.742-11.249-3.735-16.294l.165.121-19.526,3h-.1v-.1c-.375-3.13-.674-5.605-.884-7.317-.089-.84-.165-1.489-.216-1.947a4,4,0,0,0-.051-.5.5.5,0,0,1,0-.172v.165l.076.5.267,1.941c.229,1.711.56,4.18.973,7.3l-.108-.083,19.507-3.1h.14l.032.14c1.005,5.033,2.335,10.5,3.76,16.275l-.2-.121,6.687-1.552,13.119-3.041.165-.038v.165c1.272,7.635,2.386,14.633,3.334,20.359l-.14-.1,9.62-1.476h.1v.089c.484,2.946.865,5.281,1.126,6.884.127.789.223,1.393.286,1.826.032.2.051.35.07.471a.6.6,0,0,1,.057.178Z" transform="translate(-470.971 -239.414)" fill="#fafafa"/>
        <path id="Trazado_124361" data-name="Trazado 124361" d="M586.5,292.68a.781.781,0,0,1-.178.07l-.528.159c-.458.153-1.152.305-2.017.636a41.619,41.619,0,0,0-7.075,3.181,49.469,49.469,0,0,0-9.276,6.75,63.974,63.974,0,0,0-9.219,10.606,94.79,94.79,0,0,0-7.056,12.19c-1.909,3.887-3.448,7.482-4.7,10.517s-2.214,5.51-2.889,7.215c-.337.833-.6,1.5-.789,1.966-.083.2-.153.375-.21.5a.969.969,0,0,1-.083.172.845.845,0,0,1,.051-.184c.044-.134.108-.305.184-.515q.255-.713.725-1.985c.636-1.724,1.578-4.206,2.793-7.259s2.736-6.655,4.638-10.568a93.5,93.5,0,0,1,7.062-12.254,62.879,62.879,0,0,1,9.283-10.644,48.474,48.474,0,0,1,9.365-6.725,38.692,38.692,0,0,1,7.151-3.067c.872-.3,1.578-.433,2.042-.566l.534-.127A1.153,1.153,0,0,1,586.5,292.68Z" transform="translate(-480.699 -258.559)" fill="#263238"/>
      </g>
      <g id="freepik--Notes--inject-7" transform="translate(79.321 66.433)">
        <path id="Trazado_124362" data-name="Trazado 124362" d="M294.22,202.367l.089,1.711a1.494,1.494,0,1,1,.121,2.278l.1,1.718a1.438,1.438,0,0,1,.935-.407,1.491,1.491,0,1,1-.814,2.672l.089,1.718a1.47,1.47,0,0,1,.935-.407,1.489,1.489,0,0,1,.159,2.971,1.457,1.457,0,0,1-.973-.3l.1,1.718a1.438,1.438,0,0,1,.935-.407,1.489,1.489,0,0,1,.159,2.971,1.438,1.438,0,0,1-.973-.305l.089,1.724a1.489,1.489,0,1,1,.121,2.259l.1,1.724a1.438,1.438,0,0,1,.935-.407,1.489,1.489,0,0,1,.159,2.971,1.438,1.438,0,0,1-.973-.305l.057,1.069,45.866-1.1L339.1,199.51Z" transform="translate(-210.587 -198.791)" fill="#ebebeb"/>
        <path id="Trazado_124363" data-name="Trazado 124363" d="M292.62,200.823l.1,1.718a1.45,1.45,0,0,1,.935-.407,1.489,1.489,0,1,1-.814,2.666l.089,1.718a1.494,1.494,0,1,1,.121,2.278l.1,1.718a1.451,1.451,0,0,1,.935-.407,1.489,1.489,0,1,1-.814,2.672l.089,1.718a1.47,1.47,0,0,1,.935-.407,1.489,1.489,0,0,1,.159,2.971,1.457,1.457,0,0,1-.973-.3l.1,1.718a1.451,1.451,0,0,1,.935-.407,1.489,1.489,0,0,1,.159,2.971,1.45,1.45,0,0,1-.973-.305l.089,1.724a1.489,1.489,0,1,1,.121,2.259l.057,1.069,45.86-2.45L338.48,198.38Z" transform="translate(-210.005 -198.38)" fill="#f5f5f5"/>
        <path id="Trazado_124364" data-name="Trazado 124364" d="M338.919,206.115c0,.1-10.256.713-22.9,1.393s-22.9,1.152-22.9,1.063,10.256-.719,22.9-1.393S338.919,206.039,338.919,206.115Z" transform="translate(-210.183 -201.191)" fill="#e0e0e0"/>
        <path id="Trazado_124365" data-name="Trazado 124365" d="M339.241,212.393c0,.089-10.256.713-22.9,1.393s-22.936,1.152-22.936,1.056,10.25-.713,22.9-1.387S339.234,212.3,339.241,212.393Z" transform="translate(-210.289 -203.473)" fill="#e0e0e0"/>
        <path id="Trazado_124366" data-name="Trazado 124366" d="M339.581,218.664c0,.1-10.262.719-22.9,1.393s-22.9,1.152-22.936,1.063,10.256-.713,22.9-1.393S339.574,218.575,339.581,218.664Z" transform="translate(-210.412 -205.755)" fill="#e0e0e0"/>
        <path id="Trazado_124367" data-name="Trazado 124367" d="M339.911,224.99c0,.089-10.256.713-22.9,1.393s-22.936,1.152-22.936,1.063,10.256-.719,22.9-1.393S339.9,224.869,339.911,224.99Z" transform="translate(-210.532 -208.053)" fill="#e0e0e0"/>
        <path id="Trazado_124368" data-name="Trazado 124368" d="M340.247,231.223c0,.089-10.256.713-22.9,1.387s-22.936,1.158-22.943,1.063,10.256-.713,22.9-1.393S340.241,231.128,340.247,231.223Z" transform="translate(-210.653 -210.323)" fill="#e0e0e0"/>
        <rect id="Rectángulo_30180" data-name="Rectángulo 30180" width="0.318" height="24.991" transform="translate(88.825 2.115) rotate(-3.06)" fill="#26aab7"/>
        <path id="Trazado_124369" data-name="Trazado 124369" d="M310.495,226.289c-.089,0-.464-5.58-.833-12.47s-.592-12.483-.5-12.489.464,5.58.833,12.47S310.59,226.283,310.495,226.289Z" transform="translate(-216.014 -199.453)" fill="#e0e0e0"/>
        <path id="Trazado_124370" data-name="Trazado 124370" d="M297.665,226.966c-.089,0-.464-5.573-.833-12.464s-.592-12.5-.5-12.5.464,5.573.833,12.47S297.76,226.966,297.665,226.966Z" transform="translate(-211.347 -199.697)" fill="#e0e0e0"/>
        <path id="Trazado_124371" data-name="Trazado 124371" d="M317.525,225.928c-.089,0-.464-5.58-.833-12.47S316.1,201,316.189,201s.464,5.58.833,12.477S317.614,225.921,317.525,225.928Z" transform="translate(-218.571 -199.333)" fill="#e0e0e0"/>
        <path id="Trazado_124372" data-name="Trazado 124372" d="M324.555,225.539c-.1,0-.464-5.58-.833-12.47s-.592-12.483-.5-12.489.464,5.573.833,12.47S324.644,225.533,324.555,225.539Z" transform="translate(-221.129 -199.18)" fill="#e0e0e0"/>
        <path id="Trazado_124373" data-name="Trazado 124373" d="M331.577,225.159c-.089,0-.458-5.58-.827-12.47s-.6-12.483-.5-12.489.464,5.58.833,12.47S331.673,225.153,331.577,225.159Z" transform="translate(-223.685 -199.042)" fill="#e0e0e0"/>
        <path id="Trazado_124374" data-name="Trazado 124374" d="M338.6,224.783c-.089,0-.464-5.573-.833-12.47s-.592-12.483-.5-12.483.464,5.573.833,12.47S338.7,224.783,338.6,224.783Z" transform="translate(-226.24 -198.907)" fill="#e0e0e0"/>
        <path id="Trazado_124375" data-name="Trazado 124375" d="M345.635,224.409c-.089,0-.464-5.58-.833-12.47s-.592-12.483-.5-12.489.464,5.58.833,12.47S345.724,224.4,345.635,224.409Z" transform="translate(-228.797 -198.769)" fill="#e0e0e0"/>
        <path id="Trazado_124376" data-name="Trazado 124376" d="M352.664,224.029c-.1,0-.464-5.58-.833-12.47s-.6-12.483-.5-12.489.464,5.58.833,12.477S352.753,224.023,352.664,224.029Z" transform="translate(-231.353 -198.631)" fill="#e0e0e0"/>
        <path id="Trazado_124377" data-name="Trazado 124377" d="M359.685,223.659c-.089,0-.464-5.58-.833-12.47s-.592-12.483-.5-12.489.464,5.573.833,12.47S359.78,223.653,359.685,223.659Z" transform="translate(-233.908 -198.496)" fill="#e0e0e0"/>
        <path id="Trazado_124378" data-name="Trazado 124378" d="M341.176,214.164a1.07,1.07,0,0,1-.324.051l-.942.083-3.442.229c-2.914.185-6.941.407-11.382.636s-8.481.388-11.395.477a30.6,30.6,0,0,1-4.721,0l16.1-.808,11.389-.528,3.448-.134h.942A1.025,1.025,0,0,1,341.176,214.164Z" transform="translate(-215.953 -204.118)" fill="#263238"/>
        <path id="Trazado_124379" data-name="Trazado 124379" d="M342.134,221.329c0,.089-7.4.5-16.542.923s-16.542.687-16.542.592,7.393-.5,16.542-.923S342.1,221.234,342.134,221.329Z" transform="translate(-215.982 -206.721)" fill="#263238"/>
        <path id="Trazado_124380" data-name="Trazado 124380" d="M342.9,227.6c0,.1-7.393.509-16.542.929s-16.542.681-16.542.592,7.393-.509,16.542-.923S342.9,227.511,342.9,227.6Z" transform="translate(-216.262 -209.003)" fill="#263238"/>
        <path id="Trazado_124381" data-name="Trazado 124381" d="M300.69,205.052a4.008,4.008,0,0,0,1.47,2.545,2.621,2.621,0,1,0,.961-4.727" transform="translate(-212.941 -199.994)" fill="#e0e0e0"/>
        <path id="Trazado_124382" data-name="Trazado 124382" d="M300.518,205.063a2.087,2.087,0,1,0,1.972-2.2A2.087,2.087,0,0,0,300.518,205.063Z" transform="translate(-212.877 -200.012)" fill="#455a64"/>
        <path id="Trazado_124383" data-name="Trazado 124383" d="M298.61,204.214a1.272,1.272,0,1,0,.481-1.317A1.272,1.272,0,0,0,298.61,204.214Z" transform="translate(-212.172 -199.933)" fill="#455a64"/>
        <path id="Trazado_124384" data-name="Trazado 124384" d="M300.47,205.648c0-.051.2-.038.452-.134a1.209,1.209,0,0,0,.713-.687,1.273,1.273,0,0,0-.1-1c-.127-.248-.274-.363-.248-.407s.229,0,.439.274a1.323,1.323,0,0,1,.216,1.241,1.272,1.272,0,0,1-.967.808C300.641,205.795,300.457,205.693,300.47,205.648Z" transform="translate(-212.86 -200.208)" fill="#263238"/>
        <path id="Trazado_124385" data-name="Trazado 124385" d="M302.114,203.613c.045-.083.356,0,.706-.076s.592-.3.636-.242-.1.445-.592.566S302.037,203.676,302.114,203.613Z" transform="translate(-213.455 -200.164)" fill="#263238"/>
        <path id="Trazado_124386" data-name="Trazado 124386" d="M301.918,208.072c-.089,0-.178-.388-.509-.693s-.719-.375-.719-.464.5-.191.948.223S302.007,208.091,301.918,208.072Z" transform="translate(-212.941 -201.455)" fill="#263238"/>
        <path id="Trazado_124387" data-name="Trazado 124387" d="M356.09,202.722a4.027,4.027,0,0,0,1.47,2.545,2.621,2.621,0,1,0,.961-4.727" transform="translate(-233.093 -199.146)" fill="#e0e0e0"/>
        <path id="Trazado_124388" data-name="Trazado 124388" d="M360.125,202.037a2.017,2.017,0,1,1-.666-1.4A2.017,2.017,0,0,1,360.125,202.037Z" transform="translate(-233.095 -199.015)" fill="#26aab7"/>
        <path id="Trazado_124389" data-name="Trazado 124389" d="M362.729,201.114a1.2,1.2,0,1,1-.4-.839A1.209,1.209,0,0,1,362.729,201.114Z" transform="translate(-234.629 -198.957)" fill="#26aab7"/>
        <path id="Trazado_124390" data-name="Trazado 124390" d="M361.617,202.531a.64.64,0,0,1-.477.146,1.209,1.209,0,0,1-1.018-.674,1.273,1.273,0,0,1,.076-1.215c.178-.274.382-.344.4-.312s-.1.172-.191.42a1.228,1.228,0,0,0,0,.961,1.152,1.152,0,0,0,.751.592C361.426,202.512,361.6,202.48,361.617,202.531Z" transform="translate(-234.517 -199.14)" fill="#263238"/>
        <path id="Trazado_124391" data-name="Trazado 124391" d="M359.844,200.77c.07.064-.229.382-.725.324s-.706-.439-.636-.49.324.127.668.165S359.793,200.694,359.844,200.77Z" transform="translate(-233.959 -199.186)" fill="#263238"/>
        <path id="Trazado_124392" data-name="Trazado 124392" d="M360.608,204.967c-.089,0-.21-.477.172-.929s.9-.4.891-.312-.363.2-.636.528S360.7,204.96,360.608,204.967Z" transform="translate(-234.704 -200.303)" fill="#263238"/>
        <path id="Trazado_124393" data-name="Trazado 124393" d="M239.72,292.265l37.487,4.778-.5-13.724Z" transform="translate(-190.762 -229.278)" fill="#e0e0e0"/>
        <rect id="Rectángulo_30181" data-name="Rectángulo 30181" width="36.113" height="11.987" transform="translate(49.932 51.316) rotate(4.77)" fill="#455a64"/>
        <path id="Trazado_124394" data-name="Trazado 124394" d="M274.462,288.108c0,.089-6.044-.337-13.482-.961s-13.456-1.2-13.45-1.272,6.044.337,13.482.954S274.468,288.019,274.462,288.108Z" transform="translate(-193.603 -230.204)" fill="#263238"/>
        <path id="Trazado_124395" data-name="Trazado 124395" d="M274.352,293.008c0,.089-6.044-.337-13.482-.961s-13.456-1.2-13.45-1.272,6.038.337,13.482.954S274.358,292.919,274.352,293.008Z" transform="translate(-193.563 -231.987)" fill="#263238"/>
        <path id="Trazado_124396" data-name="Trazado 124396" d="M257.686,277.75l13.946,1.158-.732.624.954.833-1.139.522,1.018.9-14.614-1.222.91-.77-.452-.827.783-.4Z" transform="translate(-197.091 -227.252)" fill="#ebebeb"/>
        <path id="Trazado_124397" data-name="Trazado 124397" d="M190.646,243.77a1.622,1.622,0,1,1-2.787,0h-1.909a1.641,1.641,0,0,1,.229.821,1.622,1.622,0,1,1-3.016-.821h-1.877a1.578,1.578,0,0,1,.229.821,1.622,1.622,0,1,1-3.016-.821h-1.909a1.578,1.578,0,0,1,.229.821,1.622,1.622,0,1,1-3.238,0,1.578,1.578,0,0,1,.229-.821H171.9a1.578,1.578,0,0,1,.229.821,1.622,1.622,0,1,1-3.238,0,1.578,1.578,0,0,1,.229-.821h-1.909a1.622,1.622,0,1,1-2.787,0H163.25v33.479l29.267,1.61-1.4-35.088Z" transform="translate(-162.945 -214.891)" fill="#e0e0e0"/>
        <g id="Grupo_55340" data-name="Grupo 55340" transform="translate(0 27.962)" clip-path="url(#clip-path)">
          <path id="Trazado_124398" data-name="Trazado 124398" d="M190.045,242.33a1.622,1.622,0,1,1-2.787,0h-1.877a1.641,1.641,0,0,1,.229.821,1.622,1.622,0,1,1-3.016-.821h-1.909a1.578,1.578,0,0,1,.229.821,1.622,1.622,0,1,1-3.016-.821h-1.877a1.578,1.578,0,0,1,.229.821,1.622,1.622,0,1,1-3.238,0,1.578,1.578,0,0,1,.229-.821h-1.877a1.622,1.622,0,1,1-3.016.821,1.578,1.578,0,0,1,.229-.821h-1.845a1.622,1.622,0,1,1-2.787,0H162.77v33.51h27.893V242.33Z" transform="translate(-162.77 -242.33)" fill="#f5f5f5"/>
          <path id="Trazado_124399" data-name="Trazado 124399" d="M159.854,276.656c-.1,0-.248-8.112-.35-18.12s-.115-18.126,0-18.126.248,8.112.35,18.12S159.943,276.656,159.854,276.656Z" transform="translate(-161.552 -241.632)" fill="#e0e0e0"/>
          <path id="Trazado_124400" data-name="Trazado 124400" d="M166.891,276.586c-.1,0-.254-8.112-.356-18.12s-.108-18.126,0-18.126.248,8.112.35,18.12S166.98,276.586,166.891,276.586Z" transform="translate(-164.111 -241.606)" fill="#e0e0e0"/>
          <path id="Trazado_124401" data-name="Trazado 124401" d="M170.384,276.586c-.089,0-.248-8.112-.35-18.12s-.115-18.126,0-18.126.248,8.112.35,18.12S170.473,276.586,170.384,276.586Z" transform="translate(-165.383 -241.606)" fill="#e0e0e0"/>
          <path id="Trazado_124402" data-name="Trazado 124402" d="M177.495,276.586c-.089,0-.248-8.112-.35-18.12s-.108-18.126,0-18.126.248,8.112.35,18.12S177.59,276.586,177.495,276.586Z" transform="translate(-167.97 -241.606)" fill="#e0e0e0"/>
          <path id="Trazado_124403" data-name="Trazado 124403" d="M184.6,276.586c-.089,0-.248-8.112-.35-18.12s-.108-18.126,0-18.126.248,8.112.35,18.12S184.7,276.586,184.6,276.586Z" transform="translate(-170.557 -241.606)" fill="#e0e0e0"/>
          <path id="Trazado_124404" data-name="Trazado 124404" d="M191.755,276.586c-.089,0-.248-8.112-.35-18.12s-.108-18.126,0-18.126.248,8.112.35,18.12S191.825,276.586,191.755,276.586Z" transform="translate(-173.158 -241.606)" fill="#e0e0e0"/>
          <path id="Trazado_124405" data-name="Trazado 124405" d="M198.465,276.586c-.089,0-.248-8.112-.35-18.12s-.108-18.126,0-18.126.248,8.112.35,18.12S198.56,276.586,198.465,276.586Z" transform="translate(-175.599 -241.606)" fill="#e0e0e0"/>
          <path id="Trazado_124406" data-name="Trazado 124406" d="M205.214,276.586c-.089,0-.248-8.112-.35-18.12s-.115-18.126,0-18.126.248,8.112.35,18.12S205.3,276.586,205.214,276.586Z" transform="translate(-178.053 -241.606)" fill="#e0e0e0"/>
          <path id="Trazado_124407" data-name="Trazado 124407" d="M173.925,276.516c-.089,0-.248-8.118-.35-18.126s-.108-18.12,0-18.12.248,8.106.35,18.12S174.02,276.51,173.925,276.516Z" transform="translate(-166.672 -241.581)" fill="#e0e0e0"/>
          <path id="Trazado_124408" data-name="Trazado 124408" d="M180.964,276.436c-.089,0-.248-8.112-.35-18.12s-.115-18.12,0-18.126.248,8.112.35,18.126S181.053,276.436,180.964,276.436Z" transform="translate(-169.231 -241.552)" fill="#e0e0e0"/>
          <path id="Trazado_124409" data-name="Trazado 124409" d="M188,276.366c-.1,0-.254-8.112-.356-18.12s-.108-18.126,0-18.126.248,8.112.35,18.126S188.09,276.366,188,276.366Z" transform="translate(-171.79 -241.526)" fill="#e0e0e0"/>
          <path id="Trazado_124410" data-name="Trazado 124410" d="M195.035,276.276c-.089,0-.248-8.112-.35-18.12s-.108-18.126,0-18.126.248,8.112.35,18.12S195.13,276.276,195.035,276.276Z" transform="translate(-174.351 -241.493)" fill="#e0e0e0"/>
          <path id="Trazado_124411" data-name="Trazado 124411" d="M201.754,276.656c-.1,0-.248-8.112-.35-18.12s-.115-18.126,0-18.126.248,8.112.35,18.12S201.862,276.656,201.754,276.656Z" transform="translate(-176.794 -241.632)" fill="#e0e0e0"/>
          <path id="Trazado_124412" data-name="Trazado 124412" d="M209.11,276.156c-.1,0-.248-8.118-.356-18.126s-.108-18.12,0-18.12.248,8.106.356,18.12S209.2,276.15,209.11,276.156Z" transform="translate(-179.468 -241.45)" fill="#e0e0e0"/>
          <path id="Trazado_124413" data-name="Trazado 124413" d="M196.186,290.157c0,.089-8.118.248-18.12.344s-18.126.108-18.126,0,8.112-.248,18.12-.35S196.18,290.068,196.186,290.157Z" transform="translate(-161.741 -259.701)" fill="#e0e0e0"/>
          <path id="Trazado_124414" data-name="Trazado 124414" d="M196.476,293.756c0,.089-8.112.248-18.12.344s-18.126.108-18.126,0,8.112-.248,18.126-.35S196.476,293.66,196.476,293.756Z" transform="translate(-161.846 -261.009)" fill="#e0e0e0"/>
          <path id="Trazado_124415" data-name="Trazado 124415" d="M196.116,283.119c0,.1-8.118.248-18.12.35s-18.126.108-18.126,0,8.112-.248,18.12-.344S196.11,283.018,196.116,283.119Z" transform="translate(-161.715 -257.142)" fill="#e0e0e0"/>
          <path id="Trazado_124416" data-name="Trazado 124416" d="M196.046,276.09c0,.089-8.118.242-18.126.344s-18.12.108-18.12,0,8.112-.242,18.12-.344S196.04,276.008,196.046,276.09Z" transform="translate(-161.69 -254.586)" fill="#e0e0e0"/>
          <path id="Trazado_124417" data-name="Trazado 124417" d="M195.976,269.046c0,.089-8.118.248-18.126.344s-18.12.108-18.12,0,8.106-.248,18.12-.35S195.97,268.95,195.976,269.046Z" transform="translate(-161.664 -252.02)" fill="#e0e0e0"/>
          <path id="Trazado_124418" data-name="Trazado 124418" d="M195.906,262.012c0,.1-8.118.248-18.126.35s-18.12.1-18.12,0,8.106-.248,18.12-.344S195.9,261.923,195.906,262.012Z" transform="translate(-161.639 -249.466)" fill="#e0e0e0"/>
          <path id="Trazado_124419" data-name="Trazado 124419" d="M195.83,254.962c0,.1-8.112.248-18.12.35s-18.12.108-18.12,0,8.106-.242,18.12-.344S195.83,254.88,195.83,254.962Z" transform="translate(-161.613 -246.901)" fill="#e0e0e0"/>
          <path id="Trazado_124420" data-name="Trazado 124420" d="M195.756,247.953c0,.089-8.112.248-18.12.344s-18.12.108-18.126,0,8.112-.248,18.126-.35S195.756,247.845,195.756,247.953Z" transform="translate(-161.584 -244.346)" fill="#e0e0e0"/>
          <path id="Trazado_124421" data-name="Trazado 124421" d="M195.756,245.115c0,.089-8.112.248-18.12.344s-18.12.108-18.126,0,8.112-.248,18.126-.35S195.756,245.013,195.756,245.115Z" transform="translate(-161.584 -243.314)" fill="#e0e0e0"/>
          <path id="Trazado_124422" data-name="Trazado 124422" d="M195.756,251.532c0,.1-8.112.248-18.12.35s-18.12.108-18.126,0,8.112-.248,18.126-.344S195.756,251.443,195.756,251.532Z" transform="translate(-161.584 -245.653)" fill="#e0e0e0"/>
          <path id="Trazado_124423" data-name="Trazado 124423" d="M195.756,258.511c0,.1-8.112.248-18.12.35s-18.12.108-18.126,0,8.112-.242,18.126-.344S195.756,258.422,195.756,258.511Z" transform="translate(-161.584 -248.191)" fill="#e0e0e0"/>
          <path id="Trazado_124424" data-name="Trazado 124424" d="M195.756,265.491c0,.1-8.112.248-18.12.35s-18.12.108-18.126,0,8.112-.242,18.126-.344S195.756,265.4,195.756,265.491Z" transform="translate(-161.584 -250.73)" fill="#e0e0e0"/>
          <path id="Trazado_124425" data-name="Trazado 124425" d="M195.756,272.478c0,.089-8.112.242-18.12.344s-18.12.108-18.126,0,8.112-.242,18.126-.344S195.756,272.382,195.756,272.478Z" transform="translate(-161.584 -253.27)" fill="#e0e0e0"/>
          <path id="Trazado_124426" data-name="Trazado 124426" d="M195.756,279.456c0,.089-8.112.242-18.12.344s-18.12.108-18.126,0,8.112-.248,18.126-.35S195.756,279.36,195.756,279.456Z" transform="translate(-161.584 -255.807)" fill="#e0e0e0"/>
          <path id="Trazado_124427" data-name="Trazado 124427" d="M195.756,286.436c0,.089-8.112.242-18.12.344s-18.12.108-18.126,0,8.112-.248,18.126-.35S195.756,286.34,195.756,286.436Z" transform="translate(-161.584 -258.346)" fill="#e0e0e0"/>
          <path id="Trazado_124428" data-name="Trazado 124428" d="M190.045,242.33a1.622,1.622,0,1,1-2.787,0h-1.877a1.641,1.641,0,0,1,.229.821,1.622,1.622,0,1,1-3.016-.821h-1.909a1.578,1.578,0,0,1,.229.821,1.622,1.622,0,1,1-3.016-.821h-1.877a1.578,1.578,0,0,1,.229.821,1.622,1.622,0,1,1-3.238,0,1.578,1.578,0,0,1,.229-.821h-1.877a1.622,1.622,0,1,1-3.016.821,1.578,1.578,0,0,1,.229-.821h-1.845a1.622,1.622,0,1,1-2.787,0H162.77v33.51h27.893V242.33Z" transform="translate(-162.77 -242.33)" fill="none"/>
        </g>
        <path id="Trazado_124430" data-name="Trazado 124430" d="M181.68,248.722a4.008,4.008,0,0,0,1.47,2.545,2.621,2.621,0,1,0,.961-4.727" transform="translate(-169.649 -215.879)" fill="#e0e0e0"/>
        <path id="Trazado_124431" data-name="Trazado 124431" d="M181.6,248.683a2.087,2.087,0,1,0,1.972-2.2,2.087,2.087,0,0,0-1.972,2.2Z" transform="translate(-169.618 -215.879)" fill="#26aab7"/>
        <path id="Trazado_124432" data-name="Trazado 124432" d="M179.719,247.975a1.272,1.272,0,1,0,1.183-1.317A1.272,1.272,0,0,0,179.719,247.975Z" transform="translate(-168.935 -215.941)" fill="#26aab7"/>
        <path id="Trazado_124433" data-name="Trazado 124433" d="M181.55,249.273c0-.051.2-.032.452-.127a1.222,1.222,0,0,0,.713-.693,1.272,1.272,0,0,0-.1-1c-.127-.242-.274-.363-.248-.4s.229,0,.439.267a1.323,1.323,0,0,1,.216,1.272,1.272,1.272,0,0,1-.967.808C181.728,249.42,181.537,249.305,181.55,249.273Z" transform="translate(-169.601 -216.081)" fill="#263238"/>
        <path id="Trazado_124434" data-name="Trazado 124434" d="M183.2,247.234c.045-.083.356,0,.706-.07s.592-.3.668-.248-.1.452-.592.566S183.139,247.3,183.2,247.234Z" transform="translate(-170.198 -216.033)" fill="#263238"/>
        <path id="Trazado_124435" data-name="Trazado 124435" d="M183,251.693c-.089,0-.178-.388-.5-.693s-.725-.375-.725-.464.5-.185.948.223S183.093,251.712,183,251.693Z" transform="translate(-169.682 -217.324)" fill="#263238"/>
        <path id="Trazado_124436" data-name="Trazado 124436" d="M190.332,261.035c0,.089-4.454.165-9.938.165s-9.944-.076-9.944-.165,4.454-.165,9.944-.165S190.332,260.953,190.332,261.035Z" transform="translate(-165.564 -221.112)" fill="#263238"/>
        <path id="Trazado_124437" data-name="Trazado 124437" d="M190.332,264.285c0,.089-4.454.165-9.938.165s-9.944-.076-9.944-.165,4.454-.165,9.944-.165S190.332,264.19,190.332,264.285Z" transform="translate(-165.564 -222.294)" fill="#263238"/>
        <path id="Trazado_124438" data-name="Trazado 124438" d="M190.332,267.535c0,.089-4.454.165-9.938.165s-9.944-.076-9.944-.165,4.454-.165,9.944-.165S190.332,267.44,190.332,267.535Z" transform="translate(-165.564 -223.476)" fill="#263238"/>
        <path id="Trazado_124439" data-name="Trazado 124439" d="M190.332,270.775c0,.1-4.454.165-9.938.165s-9.944-.07-9.944-.165,4.454-.165,9.944-.165S190.332,270.686,190.332,270.775Z" transform="translate(-165.564 -224.655)" fill="#263238"/>
        <path id="Trazado_124440" data-name="Trazado 124440" d="M190.332,274.025c0,.1-4.454.165-9.938.165s-9.944-.07-9.944-.165,4.454-.165,9.944-.165S190.332,273.949,190.332,274.025Z" transform="translate(-165.564 -225.837)" fill="#263238"/>
        <path id="Trazado_124441" data-name="Trazado 124441" d="M190.332,277.275c0,.089-4.454.165-9.938.165s-9.944-.076-9.944-.165,4.454-.165,9.944-.165S190.332,277.186,190.332,277.275Z" transform="translate(-165.564 -227.019)" fill="#263238"/>
        <path id="Trazado_124442" data-name="Trazado 124442" d="M190.332,280.525c0,.089-4.454.165-9.938.165s-9.944-.076-9.944-.165,4.454-.165,9.944-.165S190.332,280.43,190.332,280.525Z" transform="translate(-165.564 -228.202)" fill="#263238"/>
      </g>
      <g id="freepik--Lamp--inject-7" transform="translate(0 10.192)">
        <path id="Trazado_124443" data-name="Trazado 124443" d="M111.207,380.083a.674.674,0,0,1-.636-.509l-22.644-86.21a.677.677,0,1,1,1.311-.344l22.624,86.21a.674.674,0,0,1-.484.827.535.535,0,0,1-.172.025Z" transform="translate(-80.903 -211.297)" fill="#263238"/>
        <path id="Trazado_124444" data-name="Trazado 124444" d="M101.811,383.433a.674.674,0,0,1-.636-.5L78.537,296.714a.677.677,0,1,1,1.311-.344l22.624,86.216a.674.674,0,0,1-.484.827.844.844,0,0,1-.178.019Z" transform="translate(-77.487 -212.515)" fill="#263238"/>
        <path id="Trazado_124445" data-name="Trazado 124445" d="M82.2,246.166l-1.088-.808,58.082-78.168,52.979,10.154-.254,1.33-52.146-10Z" transform="translate(-78.431 -165.708)" fill="#263238"/>
        <rect id="Rectángulo_30182" data-name="Rectángulo 30182" width="96.014" height="1.355" transform="matrix(0.595, -0.804, 0.804, 0.595, 7.693, 81.124)" fill="#263238"/>
        <path id="Trazado_124446" data-name="Trazado 124446" d="M170.009,169.931a3.817,3.817,0,1,0,.181-2.938A3.817,3.817,0,0,0,170.009,169.931Z" transform="translate(-110.693 -164.86)" fill="#26aab7"/>
        <path id="Trazado_124447" data-name="Trazado 124447" d="M251.2,172.948l-.948-5.523,4.085-.305.3,5.332Z" transform="translate(-139.959 -165.682)" fill="#26aab7"/>
        <g id="Grupo_55341" data-name="Grupo 55341" transform="translate(110.291 1.438)" opacity="0.3">
          <path id="Trazado_124448" data-name="Trazado 124448" d="M251.2,172.948l-.948-5.523,4.085-.305.3,5.332Z" transform="translate(-250.25 -167.12)"/>
        </g>
        <path id="Trazado_124449" data-name="Trazado 124449" d="M238.863,174.88l-3.779,20.487-9.543,27.072,53.787-7.756-21.708-23.636-9.066-17.566-9.69,1.4" transform="translate(-130.97 -167.996)" fill="#c1507f"/>
        <path id="Trazado_124450" data-name="Trazado 124450" d="M76.9,292.479a4.269,4.269,0,1,0,4.269-4.269A4.269,4.269,0,0,0,76.9,292.479Z" transform="translate(-76.9 -209.731)" fill="#26aab7"/>
        <path id="Trazado_124451" data-name="Trazado 124451" d="M97.735,447.005c0-.286-.045-.566-.045-.859a17.075,17.075,0,1,1,34.15,0c0,.293-.035.573-.048.859Z" transform="translate(-84.463 -260.971)" fill="#c1507f"/>
      </g>
      <g id="freepik--Character--inject-7" transform="translate(125.153)">
        <path id="Trazado_124452" data-name="Trazado 124452" d="M243.833,447.21c-.21.045-1.107.954.172,2.4s8.99,5.4,10.409,3.035-2-4-2-4Z" transform="translate(-237.99 -250.991)" fill="#ffbe9d"/>
        <path id="Trazado_124453" data-name="Trazado 124453" d="M249.247,429.67s7.953-.878,11.2-.464a11.532,11.532,0,0,0,9.467-3.754,12.725,12.725,0,0,0,2.793-5.624l5.09-3.537s.547-12.031-7.476-10.091l-9.372.331s-18.451,3.054-21.3,5.351c0,0-3.474,3.378-4.485,4.683-.382.5-.706,5.453,2.818,7.145,0,0-2.08,2.653-.248,4.155l.859.636s-1.19,2.653-.07,3.41,9.97,3.442,12.483,1.692-.4-3.767-1.731-3.945" transform="translate(-234.935 -235.996)" fill="#ffbe9d"/>
        <path id="Trazado_124454" data-name="Trazado 124454" d="M241.4,433.1a8.011,8.011,0,0,1,1.037.115c.668.083,1.635.2,2.838.293.6.038,1.272.076,1.96.089s1.457,0,2.265.057a4.657,4.657,0,0,1,2.437.77,2.7,2.7,0,0,1,1.19,2.449,2.081,2.081,0,0,1-.713,1.272,3.576,3.576,0,0,1-1.2.668,10.859,10.859,0,0,1-2.488.464,22.433,22.433,0,0,1-4.256-.083c-1.2-.127-2.163-.286-2.825-.4a5.726,5.726,0,0,1-1.031-.216,7.282,7.282,0,0,1,1.043.089c.674.076,1.642.2,2.838.293a24.136,24.136,0,0,0,4.2,0,10.9,10.9,0,0,0,2.411-.464,3.417,3.417,0,0,0,1.094-.6,1.781,1.781,0,0,0,.6-1.062,2.386,2.386,0,0,0-1.05-2.144,4.5,4.5,0,0,0-2.271-.732c-.776-.07-1.54-.045-2.246-.083s-1.374-.07-1.979-.134c-1.2-.115-2.163-.267-2.831-.394a5.089,5.089,0,0,1-1.018-.242Z" transform="translate(-237 -245.858)" fill="#eb996e"/>
        <path id="Trazado_124455" data-name="Trazado 124455" d="M240.564,424.07a6.7,6.7,0,0,1,1.037.115c.636.089,1.629.216,2.819.318s2.615.185,4.2.185a5.624,5.624,0,0,1,2.513.375,2,2,0,0,1,.954,1.024,2.59,2.59,0,0,1,.134,1.425,3.423,3.423,0,0,1-1.61,2.208,5.522,5.522,0,0,1-2.418.783,24,24,0,0,1-4.231-.2l-2.825-.286a6.029,6.029,0,0,1-1.037-.153,6.836,6.836,0,0,1,1.043,0l2.838.185a26.409,26.409,0,0,0,4.18.121,5.255,5.255,0,0,0,2.278-.757,3.086,3.086,0,0,0,1.451-1.985,1.909,1.909,0,0,0-.91-2.106,5.332,5.332,0,0,0-2.36-.356,37.642,37.642,0,0,1-4.218-.254c-1.2-.134-2.157-.3-2.819-.426A5.912,5.912,0,0,1,240.564,424.07Z" transform="translate(-236.814 -242.574)" fill="#eb996e"/>
        <path id="Trazado_124456" data-name="Trazado 124456" d="M246.432,423.5a10.419,10.419,0,0,1-.719-1.47,9.067,9.067,0,0,1-.764-1.444c.064-.064.636.458,1.056,1.272A2.742,2.742,0,0,1,246.432,423.5Z" transform="translate(-238.578 -241.305)" fill="#eb996e"/>
        <path id="Trazado_124457" data-name="Trazado 124457" d="M268.513,404.323l-7.52-1s-21.25-4.333-21.46-3.773-1.272.757-.471,3.035,13.049,4.295,13.6,5.02.942,4.944,5.726,6.884,7.8,1.272,7.8,1.272" transform="translate(-236.329 -233.636)" fill="#ffbe9d"/>
        <path id="Trazado_124458" data-name="Trazado 124458" d="M266.122,415.693l-.159.044-.49.07a11.455,11.455,0,0,1-1.909,0,16.624,16.624,0,0,1-2.946-.522,16.23,16.23,0,0,1-3.7-1.438,8.589,8.589,0,0,1-3.315-3.461,19.405,19.405,0,0,1-1.018-2.475,2.294,2.294,0,0,0-.14-.28.675.675,0,0,0-.223-.14,6.49,6.49,0,0,0-.636-.223c-.445-.14-.9-.261-1.374-.382-1.871-.49-3.849-.961-5.872-1.552-1.012-.3-2.036-.636-3.054-1.037a10.18,10.18,0,0,1-1.5-.738,3.613,3.613,0,0,1-.687-.541,1.532,1.532,0,0,1-.261-.388c-.07-.146-.089-.28-.14-.414a3.092,3.092,0,0,1-.1-1.737,2.042,2.042,0,0,1,.458-.751,1.425,1.425,0,0,0,.21-.293l.051-.083a.223.223,0,0,1,.121-.076.71.71,0,0,1,.14,0h.223c1.107.07,2.157.254,3.181.42,2.08.344,4.078.713,5.981,1.075,3.817.719,7.215,1.406,10.084,2,.713.14,1.4.305,2.042.414l1.845.255,2.946.42,1.864.28.484.083.165.038a.5.5,0,0,1-.172,0l-.484-.045-1.877-.223-2.958-.363-1.851-.235c-.636-.1-1.33-.254-2.049-.388l-10.1-1.909c-1.909-.35-3.9-.719-5.974-1.056-1.037-.159-2.106-.344-3.181-.414H239.5a.109.109,0,0,0-.032-.076h0c.248.089.064,0,.121.057h0a1.3,1.3,0,0,1-.261.375,1.763,1.763,0,0,0-.394.636,2.8,2.8,0,0,0,.108,1.54,1.432,1.432,0,0,0,.331.674,3.348,3.348,0,0,0,.636.484,10.5,10.5,0,0,0,1.444.713c1,.407,2.01.732,3.022,1.031,2.01.6,3.983,1.069,5.853,1.565.471.127.935.255,1.387.394a5.339,5.339,0,0,1,.674.242.8.8,0,0,1,.344.242,1.534,1.534,0,0,1,.172.337,19.191,19.191,0,0,0,1,2.456,8.309,8.309,0,0,0,3.181,3.385,16.276,16.276,0,0,0,3.627,1.463,16.725,16.725,0,0,0,2.908.566,12.849,12.849,0,0,0,1.871.064h.49Z" transform="translate(-236.241 -233.554)" fill="#eb996e"/>
        <path id="Trazado_124459" data-name="Trazado 124459" d="M249.436,442.611a2.449,2.449,0,0,1,.783.038,7.514,7.514,0,0,1,2.049.6,6.744,6.744,0,0,1,1.272.763,2.265,2.265,0,0,1,.942,1.476,1.826,1.826,0,0,1-.942,1.68,3.531,3.531,0,0,1-2.023.42,37.944,37.944,0,0,1-6.941-1.024,17.92,17.92,0,0,1-2.036-.636,3.6,3.6,0,0,1-.719-.312,3.647,3.647,0,0,1,.757.185c.484.14,1.177.331,2.049.522a45.027,45.027,0,0,0,6.9.923,3.258,3.258,0,0,0,1.839-.363,1.521,1.521,0,0,0,.808-1.381,1.991,1.991,0,0,0-.808-1.272,6.362,6.362,0,0,0-1.215-.763A11.109,11.109,0,0,0,249.436,442.611Z" transform="translate(-237.44 -249.313)" fill="#eb996e"/>
        <path id="Trazado_124460" data-name="Trazado 124460" d="M320.656,333.186s9.423-15.511,11.541-25.748,13.062-26.48,16.618-30.717,17.655-9.174,17.655-9.174l5.2-2.812,40.331-3.544s26.83,2.825,34.955,10.237,14.468,24.361,14.468,32.83,8.2,81.845,8.2,81.845l-99.386-.127,2.227-36.176s-12.006-8.118-15.181-15.181-1.412-3.531-1.412-3.531-11.268,23.954-15.149,26.779-49.022,16.676-49.022,16.676l-6.178-23.687Z" transform="translate(-253.34 -183.323)" fill="#26aab7"/>
        <path id="Trazado_124461" data-name="Trazado 124461" d="M488.215,281.583c-1.088.337-14.551,35.107-15.5,38.269s0,23.089,0,23.089l4.454,8.227s-1.272,6.006-.318,8.856l-19.927,3.817s-5.058-3.48-9.8,0l-23.541,1.991s6.9.076,4.848,10.663c-2.01,10.371-3.544,12.648-3.544,12.648l82.615-1.909s9.181-.458,7.781-18.107-5.338-66.334-5.338-66.334S503.924,276.71,488.215,281.583Z" transform="translate(-303.558 -190.521)" fill="#26aab7"/>
        <path id="Trazado_124462" data-name="Trazado 124462" d="M497.668,348.1a1.832,1.832,0,0,1-.2-.426l-.5-1.272c-.216-.541-.477-1.209-.732-2s-.592-1.68-.859-2.691-.636-2.112-.884-3.315-.547-2.488-.8-3.817a70.308,70.308,0,0,1-.973-8.965,72.139,72.139,0,0,1,.274-9.015c.165-1.374.3-2.685.522-3.9.1-.636.185-1.2.3-1.762s.229-1.094.337-1.61c.2-1.024.464-1.909.674-2.749s.407-1.489.592-2.049.312-.954.414-1.272a4.628,4.628,0,0,1,.165-.445,1.908,1.908,0,0,1-.1.464c-.089.324-.21.757-.356,1.272s-.356,1.272-.534,2.061-.439,1.718-.636,2.749c-.1.515-.2,1.05-.312,1.61s-.185,1.145-.28,1.75c-.21,1.215-.337,2.545-.49,3.894a67.594,67.594,0,0,0,.693,17.891c.248,1.362.477,2.653.77,3.817s.566,2.3.84,3.315.573,1.909.814,2.7.477,1.47.674,2.017l.445,1.272a3.816,3.816,0,0,1,.146.484Z" transform="translate(-328.694 -198.463)" fill="#263238"/>
        <path id="Trazado_124463" data-name="Trazado 124463" d="M531.24,423.263a2.484,2.484,0,0,1-.216-.242l-.547-.732c-.235-.325-.528-.713-.884-1.145s-.744-.948-1.222-1.476-.98-1.12-1.565-1.711-1.222-1.222-1.909-1.864a47.2,47.2,0,0,0-4.759-3.817,47.71,47.71,0,0,0-5.243-3.1c-.846-.407-1.641-.808-2.418-1.12s-1.489-.636-2.151-.859-1.272-.439-1.813-.636-1-.318-1.381-.42l-.878-.261a1.153,1.153,0,0,1-.305-.115,1.411,1.411,0,0,1,.318.051l.9.2c.388.089.859.2,1.406.369s1.164.331,1.832.585,1.412.49,2.182.821,1.591.7,2.443,1.1a44.016,44.016,0,0,1,5.3,3.1,45.358,45.358,0,0,1,4.772,3.856c.681.636,1.33,1.272,1.909,1.909s1.088,1.2,1.546,1.75.84,1.069,1.19,1.514a13.14,13.14,0,0,1,.84,1.183c.2.331.369.56.5.77A1.311,1.311,0,0,1,531.24,423.263Z" transform="translate(-333.521 -235.913)" fill="#263238"/>
        <path id="Trazado_124464" data-name="Trazado 124464" d="M546.47,422.013c-.051.045-.782-.789-2.157-1.909a21.866,21.866,0,0,0-2.545-1.781,24.232,24.232,0,0,0-3.429-1.661,23.96,23.96,0,0,0-3.665-1.031,22.079,22.079,0,0,0-3.092-.363c-1.775-.07-2.876.064-2.882,0a3.421,3.421,0,0,1,.77-.127,7.847,7.847,0,0,1,.91-.083,10.9,10.9,0,0,1,1.209,0,20.261,20.261,0,0,1,3.143.3,22.028,22.028,0,0,1,3.722,1.024,21.8,21.8,0,0,1,3.474,1.705,20.092,20.092,0,0,1,2.545,1.858,11.7,11.7,0,0,1,.884.827,7.153,7.153,0,0,1,.636.636,3.562,3.562,0,0,1,.477.6Z" transform="translate(-341.797 -239.288)" fill="#263238"/>
        <path id="Trazado_124465" data-name="Trazado 124465" d="M532.7,405.454c-.038.057-1.012-.719-2.793-1.6a14.464,14.464,0,0,0-1.489-.636c-.534-.229-1.133-.4-1.756-.6a20.143,20.143,0,0,0-8.443-.579c-.636.108-1.272.2-1.82.35a15.076,15.076,0,0,0-1.565.445c-1.909.636-2.952,1.272-2.984,1.2a4.153,4.153,0,0,1,.744-.452,7.494,7.494,0,0,1,.91-.458,13.054,13.054,0,0,1,1.272-.509,13.554,13.554,0,0,1,1.572-.484,17.679,17.679,0,0,1,1.845-.394,19.393,19.393,0,0,1,8.57.592,15.544,15.544,0,0,1,1.775.636,13.192,13.192,0,0,1,1.5.693,12.481,12.481,0,0,1,1.171.681,6.757,6.757,0,0,1,.84.573A3.684,3.684,0,0,1,532.7,405.454Z" transform="translate(-335.667 -234.366)" fill="#263238"/>
        <path id="Trazado_124466" data-name="Trazado 124466" d="M465.242,435.671a29.744,29.744,0,0,0,.585-3.537,22.853,22.853,0,0,0-.032-3.887,31.017,31.017,0,0,0-.827-4.689,32.874,32.874,0,0,0-1.584-4.454,24.592,24.592,0,0,0-1.909-3.4,32.448,32.448,0,0,0-2.246-2.806,6.091,6.091,0,0,1,.732.636,8.124,8.124,0,0,1,.776.84l.458.541c.159.2.305.42.471.636a22.044,22.044,0,0,1,1.972,3.4,27.511,27.511,0,0,1,2.443,9.276,21.519,21.519,0,0,1-.038,3.932c-.032.28-.064.541-.089.8l-.14.7a7.282,7.282,0,0,1-.267,1.107,6.072,6.072,0,0,1-.305.9Z" transform="translate(-316.526 -238.51)" fill="#263238"/>
        <path id="Trazado_124467" data-name="Trazado 124467" d="M443.843,369.775a.636.636,0,0,1-.038-.185,4.079,4.079,0,0,0-.089-.541c-.07-.5-.172-1.2-.3-2.093-.261-1.82-.6-4.454-.993-7.724-.783-6.521-1.718-15.556-2.45-25.558s-1.113-19.087-1.272-25.647c-.089-3.283-.134-5.942-.146-7.781v-2.666a.1.1,0,1,1,.038,0v.553c0,.5.038,1.209.07,2.112.057,1.858.14,4.511.242,7.775.235,6.566.636,15.632,1.381,25.634s1.629,19.023,2.354,25.551c.369,3.245.674,5.879.884,7.73.1.9.178,1.6.235,2.106a4.858,4.858,0,0,0,.057.547A1.014,1.014,0,0,1,443.843,369.775Z" transform="translate(-308.978 -196.493)" fill="#263238"/>
        <path id="Trazado_124468" data-name="Trazado 124468" d="M389.2,357.86a7.261,7.261,0,0,1-.433-.973c-.255-.636-.636-1.546-1.113-2.672-.954-2.246-2.379-5.306-4.085-8.627s-3.245-6.267-4.4-8.481c-.554-1.094-1-1.979-1.272-2.6a6.946,6.946,0,0,1-.426-.98,5.9,5.9,0,0,1,.541.916l1.381,2.545c1.158,2.15,2.787,5.09,4.492,8.443s3.1,6.407,4,8.685c.452,1.139.8,2.068,1.018,2.717A6.752,6.752,0,0,1,389.2,357.86Z" transform="translate(-286.785 -209.638)" fill="#263238"/>
        <path id="Trazado_124469" data-name="Trazado 124469" d="M380.365,349.547a1.946,1.946,0,0,1-.579-.108c-.363-.089-.884-.242-1.527-.452a37.684,37.684,0,0,1-9.4-4.657c-.553-.382-.993-.706-1.272-.942a2.265,2.265,0,0,1-.433-.388A20.758,20.758,0,0,1,369,344.133a49.877,49.877,0,0,0,4.555,2.545c1.832.9,3.537,1.6,4.791,2.074a21.537,21.537,0,0,1,2.017.8Z" transform="translate(-283.03 -213.083)" fill="#263238"/>
        <path id="Trazado_124470" data-name="Trazado 124470" d="M363.79,383.415A3.429,3.429,0,0,1,363.1,383c-.42-.286-1.043-.693-1.826-1.164a37.627,37.627,0,0,0-13.3-4.982c-.9-.159-1.635-.261-2.144-.324a3.5,3.5,0,0,1-.789-.134,3.523,3.523,0,0,1,.8,0,17.66,17.66,0,0,1,2.17.216,33.436,33.436,0,0,1,7,1.781,33.829,33.829,0,0,1,6.426,3.232c.77.509,1.374.942,1.775,1.272A4.362,4.362,0,0,1,363.79,383.415Z" transform="translate(-274.988 -225.223)" fill="#263238"/>
        <path id="Trazado_124471" data-name="Trazado 124471" d="M466.628,261.28a5.124,5.124,0,0,1-.038.515c-.045.369-.1.859-.172,1.476-.165,1.272-.394,3.13-.783,5.408a68.538,68.538,0,0,1-1.781,7.915,36.9,36.9,0,0,1-3.989,9.085,27.856,27.856,0,0,1-3.315,4.25l-.127.14-.121-.159a16.829,16.829,0,0,0-6.038-5.007,16.048,16.048,0,0,0-3.181-1.171,14.081,14.081,0,0,0-2.895-.388,11.942,11.942,0,0,0-4.123.579c-.923.324-1.412.566-1.425.534a2.29,2.29,0,0,1,.35-.185,8.624,8.624,0,0,1,1.037-.458,11.554,11.554,0,0,1,4.167-.681,14.054,14.054,0,0,1,2.952.356,16.217,16.217,0,0,1,3.245,1.158,16.956,16.956,0,0,1,6.171,5.09h-.248a28.3,28.3,0,0,0,3.27-4.2,37.485,37.485,0,0,0,3.989-9,74.686,74.686,0,0,0,1.845-7.864c.42-2.265.681-4.116.884-5.389.1-.636.178-1.1.235-1.463a2.266,2.266,0,0,1,.089-.547Z" transform="translate(-309.036 -183.356)" fill="#263238"/>
        <path id="Trazado_124472" data-name="Trazado 124472" d="M463.793,257.265l-6.127-8.125-6.661.21L429.36,260.783Z" transform="translate(-305.66 -178.94)" fill="#26aab7"/>
        <path id="Trazado_124473" data-name="Trazado 124473" d="M429.981,287.776a1.462,1.462,0,0,1-.35,0,7.756,7.756,0,0,1-1-.165,12.4,12.4,0,0,1-3.417-1.463,7.5,7.5,0,0,0-2.322-.961,6.84,6.84,0,0,0-2.876,0,6.725,6.725,0,0,0-4.8,4.18l-.344.929v-1.769c.076-5.014.083-9.543.286-12.846.1-1.641.223-2.971.363-3.881.057-.458.127-.808.178-1.043a2.194,2.194,0,0,1,.089-.356c.032,0-.057.5-.14,1.419s-.191,2.233-.254,3.875c-.146,3.283-.108,7.819-.191,12.839v.783l-.318-.064a7,7,0,0,1,5.052-4.358,7.139,7.139,0,0,1,5.37,1.063,13.442,13.442,0,0,0,3.334,1.54C429.5,287.712,429.987,287.744,429.981,287.776Z" transform="translate(-300.389 -186.674)" fill="#263238"/>
        <path id="Trazado_124474" data-name="Trazado 124474" d="M444.945,172.8v48.8a11.834,11.834,0,0,1-2.78,7.635h0a35.916,35.916,0,0,1-9.8,8.112l-9.836,5.542-8.144-7.291a11.853,11.853,0,0,1-3.938-8.367c-.14-3.55-.14-7.132-.14-7.132s-13.787-.993-15.085-14.589c-.636-6.4-.8-19.513-.833-31.6a26.455,26.455,0,0,1,24.272-26.423l.388-.032A25.284,25.284,0,0,1,444.945,172.8Z" transform="translate(-292.939 -141.948)" fill="#ffbe9d"/>
        <path id="Trazado_124475" data-name="Trazado 124475" d="M419.35,257.6a31.648,31.648,0,0,0,17.331-6.515s-3.385,10.142-17.07,10.04Z" transform="translate(-302.019 -179.646)" fill="#eb996e"/>
        <path id="Trazado_124476" data-name="Trazado 124476" d="M401.59,202.3a1.953,1.953,0,0,0,2.036,1.807,1.864,1.864,0,0,0,1.858-1.909,1.947,1.947,0,0,0-2.03-1.807,1.864,1.864,0,0,0-1.864,1.909Z" transform="translate(-295.558 -161.205)" fill="#263238"/>
        <path id="Trazado_124477" data-name="Trazado 124477" d="M399.828,196.29c.261.229,1.641-.98,3.735-1.145s3.716.751,3.919.477c.1-.127-.178-.56-.891-.993a5.325,5.325,0,0,0-3.181-.693,5.09,5.09,0,0,0-2.946,1.228C399.879,195.711,399.7,196.182,399.828,196.29Z" transform="translate(-294.903 -158.85)" fill="#263238"/>
        <path id="Trazado_124478" data-name="Trazado 124478" d="M432.87,200.968a1.953,1.953,0,0,0,2.036,1.807,1.87,1.87,0,0,0,1.864-1.909,1.953,1.953,0,0,0-2.036-1.807,1.87,1.87,0,0,0-1.864,1.909Z" transform="translate(-306.937 -160.721)" fill="#263238"/>
        <path id="Trazado_124479" data-name="Trazado 124479" d="M432.195,194.228c.261.229,1.648-.98,3.735-1.145s3.716.751,3.919.471c.1-.121-.178-.56-.891-.986a5.37,5.37,0,0,0-3.181-.7,5.128,5.128,0,0,0-2.946,1.228C432.246,193.642,432.055,194.119,432.195,194.228Z" transform="translate(-306.676 -158.098)" fill="#263238"/>
        <path id="Trazado_124480" data-name="Trazado 124480" d="M419.2,210.989a13.643,13.643,0,0,0-3.448-.337c-.534,0-1.05-.07-1.171-.426a2.749,2.749,0,0,1,.223-1.616c.4-1.336.814-2.729,1.272-4.2,1.711-5.974,2.908-10.867,2.666-10.93s-1.826,4.721-3.537,10.689c-.414,1.476-.808,2.876-1.177,4.218a3.073,3.073,0,0,0-.1,2.119,1.336,1.336,0,0,0,.942.713,3.6,3.6,0,0,0,.916.051A17.938,17.938,0,0,0,419.2,210.989Z" transform="translate(-299.996 -158.692)" fill="#263238"/>
        <path id="Trazado_124481" data-name="Trazado 124481" d="M428.62,222.43c-.344,0-.159,2.278-1.972,4.053s-4.244,1.724-4.237,2.042c0,.14.579.394,1.6.337a5.656,5.656,0,0,0,3.544-1.578,4.912,4.912,0,0,0,1.508-3.385C429.071,222.945,428.772,222.4,428.62,222.43Z" transform="translate(-303.132 -169.223)" fill="#263238"/>
        <path id="Trazado_124482" data-name="Trazado 124482" d="M430.29,181.651c.254.554,2.322.108,4.8.2s4.524.6,4.8.057c.127-.254-.261-.757-1.107-1.272a8.36,8.36,0,0,0-7.317-.2C430.6,180.907,430.182,181.391,430.29,181.651Z" transform="translate(-305.993 -153.678)" fill="#263238"/>
        <path id="Trazado_124483" data-name="Trazado 124483" d="M400.232,186.577c.407.445,1.807-.165,3.537-.331s3.226.051,3.525-.471c.127-.254-.14-.713-.821-1.107a4.937,4.937,0,0,0-2.946-.541,4.861,4.861,0,0,0-2.742,1.19C400.213,185.871,400.06,186.38,400.232,186.577Z" transform="translate(-295.04 -155.276)" fill="#263238"/>
        <path id="Trazado_124484" data-name="Trazado 124484" d="M448.68,160.6l.076.051a10.771,10.771,0,0,1,4.581,6.6l.057.274c.853,3.817,1.088,7.794,1.979,11.624s.725,6.757,4.562,7.635a5.09,5.09,0,0,0,5.338-2.17,3.27,3.27,0,0,0,.337-1.82c-.045-9.429,1.851-13.094,1.018-22.9a8.271,8.271,0,0,0-3.983-6.439c-2.176-1.3-4.81-2.621-7-1.355s-4.791,5.783-6.413,7.743" transform="translate(-312.688 -143.452)" fill="#263238"/>
        <path id="Trazado_124485" data-name="Trazado 124485" d="M467.43,197.167c.229-.115,9.124-3.537,9.6,5.8s-9,7.877-9.022,7.635S467.43,197.167,467.43,197.167Z" transform="translate(-319.509 -159.777)" fill="#ffbe9d"/>
        <path id="Trazado_124486" data-name="Trazado 124486" d="M472.536,208.588c.038-.032.165.108.445.216a1.616,1.616,0,0,0,1.215-.038c.967-.407,1.718-2.017,1.68-3.7a5.351,5.351,0,0,0-.573-2.3,1.87,1.87,0,0,0-1.272-1.183.821.821,0,0,0-.935.5c-.115.267-.045.445-.1.464s-.2-.146-.153-.534a1.069,1.069,0,0,1,.337-.6,1.272,1.272,0,0,1,.891-.28,2.29,2.29,0,0,1,1.769,1.362,5.491,5.491,0,0,1,.693,2.545c.038,1.909-.833,3.69-2.163,4.148a1.737,1.737,0,0,1-1.5-.172C472.561,208.81,472.5,208.607,472.536,208.588Z" transform="translate(-321.363 -161.47)" fill="#eb996e"/>
        <path id="Trazado_124487" data-name="Trazado 124487" d="M429.681,148.854c1.985-3.913-4.734-8.742-9.448-9.811s-10.581,1.673-15.021,3.569c-2.806,1.2-5.567,2.768-8.615,2.888a20.415,20.415,0,0,1-6.025-1.012,14.987,14.987,0,0,0-6.051-.681,5.624,5.624,0,0,0-4.638,3.512c-.611,1.953.7,4.454,2.742,4.555a4.584,4.584,0,1,0-.515,8.57c-1.406-.9-3.3.929-3,2.545s1.909,2.723,3.467,3.264c4.027,1.381,8.506.464,12.413-1.222s7.45-4.1,11.312-5.879,10.32-4.937,14.43-3.862c3.029.8,5.37,4.174,7,3.251a5.726,5.726,0,0,0,2.6-4.454,16.352,16.352,0,0,0-.636-5.281" transform="translate(-286.315 -138.803)" fill="#263238"/>
        <path id="Trazado_124488" data-name="Trazado 124488" d="M384.508,153.207c.076-.051.534.636,1.629,1.654a12.859,12.859,0,0,0,5.446,2.895,11.828,11.828,0,0,0,8.844-1.088c3.048-1.68,5.523-4.746,8.417-7.673s6.394-5.255,10.046-5.892a10.776,10.776,0,0,1,9.149,2.341,8.175,8.175,0,0,1,2.615,5.841,6.477,6.477,0,0,1-.261,1.75c-.14.375-.229.566-.261.554a14.513,14.513,0,0,0,.159-2.29,8.036,8.036,0,0,0-2.685-5.37,10.2,10.2,0,0,0-8.564-1.991c-3.385.649-6.725,2.825-9.544,5.726s-5.389,6.012-8.653,7.768a12.725,12.725,0,0,1-14.958-2.3,9.108,9.108,0,0,1-1.088-1.368C384.578,153.41,384.482,153.226,384.508,153.207Z" transform="translate(-289.343 -140.3)" fill="#455a64"/>
        <path id="Trazado_124489" data-name="Trazado 124489" d="M466.106,182.985c-.032.032-.426-.223-.84-.935a6.261,6.261,0,0,1-.738-3.334c-.045-3.016,2.341-6.451,2.335-10.619a9.39,9.39,0,0,0-1.489-5.472,7.177,7.177,0,0,0-3.709-2.7,6.07,6.07,0,0,0-3.143-.165c-.738.185-1.12.388-1.164.318s.305-.356,1.063-.636a5.879,5.879,0,0,1,3.423-.121,7.565,7.565,0,0,1,4.225,2.844,9.906,9.906,0,0,1,1.718,5.968,17,17,0,0,1-1.311,6.012,17.758,17.758,0,0,0-1.272,4.638A6.97,6.97,0,0,0,466.106,182.985Z" transform="translate(-315.844 -146.193)" fill="#455a64"/>
        <rect id="Rectángulo_30183" data-name="Rectángulo 30183" width="4.791" height="11.09" rx="2.14" transform="translate(153.154 40.053) rotate(42.82)" fill="#263238"/>
        <path id="Trazado_124490" data-name="Trazado 124490" d="M510.94,332.17a2.774,2.774,0,0,0,.038.375c.038.248.045.636.083,1.094.07.973.165,2.4.3,4.263.254,3.741.636,9.206,1.088,16.135s1,15.32,1.635,24.909q.229,3.595.484,7.412c.1,1.272.146,2.545.2,3.881a18.7,18.7,0,0,1,0,1.979,19.216,19.216,0,0,1-.108,2l-.248,2.023c-.146.668-.293,1.342-.433,2.017a19.525,19.525,0,0,1-.636,1.991,10.37,10.37,0,0,1-.878,1.909,11.483,11.483,0,0,1-6.305,5.726H423.941l.057-.21c.6-2.15,1.2-4.275,1.794-6.394q.452-1.584.884-3.181a21.968,21.968,0,0,0,.738-3.137,13.634,13.634,0,0,0-.547-6.248,7.635,7.635,0,0,0-1.489-2.685,4.377,4.377,0,0,0-2.545-1.5l-1.3-.2,1.272-.108,23.509-1.972h-.07a8.029,8.029,0,0,1,5.09-1.559,10.18,10.18,0,0,1,4.905,1.565h-.108l19.933-3.754-.089.153a8.352,8.352,0,0,1-.344-2.348,19.146,19.146,0,0,1,.064-2.271,35.175,35.175,0,0,1,.6-4.3v.076c-1.6-2.984-3.06-5.726-4.415-8.233v-.038c-.312-7.336-.426-13.119-.369-17.064,0-1.972.1-3.487.2-4.5a7.7,7.7,0,0,1,.172-1.145c.057-.255.089-.382.089-.382a1.8,1.8,0,0,1-.064.388,8.454,8.454,0,0,0-.146,1.145c-.089,1.018-.146,2.545-.153,4.5,0,3.945.115,9.728.452,17.057V361.5c1.355,2.513,2.831,5.236,4.454,8.214h0v.038a35.961,35.961,0,0,0-.6,4.3,18.908,18.908,0,0,0-.057,2.252,8.2,8.2,0,0,0,.337,2.278l.038.127H476.1l-19.927,3.817h-.051l-.051-.032a9.83,9.83,0,0,0-4.759-1.5,7.685,7.685,0,0,0-4.88,1.508h-.076l-23.5,2v-.312a4.663,4.663,0,0,1,2.749,1.591,8.023,8.023,0,0,1,1.552,2.8,13.927,13.927,0,0,1,.566,6.394,21.786,21.786,0,0,1-.744,3.181l-.884,3.181q-.891,3.181-1.788,6.362l-.159-.21h19.723l62.243.045h0a9.543,9.543,0,0,0,3.607-2.227,13.439,13.439,0,0,0,2.513-3.366c.337-.636.579-1.272.865-1.909a16.85,16.85,0,0,0,.636-1.966c.2-.655.286-1.33.433-1.991s.165-1.342.248-2a18.955,18.955,0,0,0,.115-1.985,18.464,18.464,0,0,0,0-1.966c-.057-1.3-.1-2.589-.2-3.862q-.235-3.817-.471-7.418c-.636-9.588-1.139-17.986-1.578-24.921s-.77-12.394-1.005-16.135c-.108-1.858-.2-3.3-.254-4.269,0-.477-.045-.84-.057-1.094S510.94,332.17,510.94,332.17Z" transform="translate(-302.812 -209.144)" fill="#263238"/>
        <path id="Trazado_124491" data-name="Trazado 124491" d="M523.082,277.68a12.176,12.176,0,0,1-1.133.706A26.493,26.493,0,0,0,519,280.5a34.559,34.559,0,0,0-7.635,9.124,75.371,75.371,0,0,0-5.09,10.816l-1.323,3.385-.369.923a1.341,1.341,0,0,1-.146.312,1.272,1.272,0,0,1,.083-.337c.083-.248.191-.56.312-.942.28-.814.687-1.985,1.228-3.429a68.193,68.193,0,0,1,5.02-10.911,33.136,33.136,0,0,1,7.762-9.136,22.564,22.564,0,0,1,3.029-2.036c.369-.223.681-.356.878-.458a1.586,1.586,0,0,1,.331-.127Z" transform="translate(-332.972 -189.322)" fill="#263238"/>
        <g id="Grupo_55342" data-name="Grupo 55342" transform="translate(152.567 112.605)" opacity="0.3">
          <path id="Trazado_124492" data-name="Trazado 124492" d="M487.373,315.841a42.234,42.234,0,0,0-3.563,19.03c.242,6.464,1.018,12.947.382,19.392s-2.869,13.017-7.673,17.35a6.243,6.243,0,0,0-1.552,1.724,1.75,1.75,0,0,0,.3,2.131,2.545,2.545,0,0,0,2,.21c4.6-.8,9.257-1.374,13.864-2.17.986-.172,4.3-.821,4.3-.821a17.987,17.987,0,0,1-.28-3.817c.146-1.152.6-5.09.6-5.09a6.769,6.769,0,0,0-.884-1.641,37.632,37.632,0,0,1-3.817-9.792,44.585,44.585,0,0,1-3.009-9.448c-2.017-8.341-1.96-16.542-.674-27.11" transform="translate(-474.732 -315.79)"/>
        </g>
        <g id="Grupo_55343" data-name="Grupo 55343" transform="translate(114.684 98.565)" opacity="0.3">
          <path id="Trazado_124493" data-name="Trazado 124493" d="M415.279,298.314c.375.954.757,1.909,1.133,2.869a1.158,1.158,0,0,0,.547.719c.566.216,1.018-.477,1.273-1.024a7.348,7.348,0,0,1,5.643-3.964c1.909-.223,3.919.337,5.822-.057a25.792,25.792,0,0,0-5.255-2.615,8.717,8.717,0,0,0-5.771-.057,5.325,5.325,0,0,0-3.48,4.345" transform="translate(-415.19 -293.722)"/>
        </g>
        <g id="Grupo_55344" data-name="Grupo 55344" transform="translate(130.138 86.526)" opacity="0.3">
          <path id="Trazado_124494" data-name="Trazado 124494" d="M439.843,289.02a31,31,0,0,1,6.738.636,10.511,10.511,0,0,1,5.771,3.321c1.54,1.877,2.112,4.339,2.736,6.68.121.452.337.986.8,1.037a1.132,1.132,0,0,0,.763-.3,22.2,22.2,0,0,0,7.7-11.6,50.771,50.771,0,0,0,1.769-14c-1.82,3.251-2.609,6.954-3.817,10.479s-2.971,7.075-6.089,9.111a3.041,3.041,0,0,0-.713-2.233,6.668,6.668,0,0,0-1.851-1.514,17.687,17.687,0,0,0-14.163-1.737" transform="translate(-439.48 -274.8)"/>
        </g>
        <path id="Trazado_124495" data-name="Trazado 124495" d="M397.51,411.641h-7.794s-17.579-6.362-21.193-5.726c-3.258.547-15.174,8.462-17.509,10.033a1.469,1.469,0,0,0-.566.719h0a2.545,2.545,0,0,0,1.425,3.245l.242.1-.1.356a4.218,4.218,0,0,0-.185,1.425,1.718,1.718,0,0,0,3.181.738l-.445.8a1.909,1.909,0,0,0-.248,1.069l.038.719a1.96,1.96,0,0,0,1.349,1.756h0a1.953,1.953,0,0,0,2.036-.566c1.514-1.661,4.778-4.988,7-5.357a51.62,51.62,0,0,1,7.215-.363,2.45,2.45,0,0,1,2.271,1.559h0c-1.311.1-10.447,4.861-13.679,6.566a3.442,3.442,0,0,0-1.877,2.6c-.121,1.012.388,2.068,2.392,1.6,4.295-1.005,12.025-4.555,12.025-4.555s3.983-1.139,6.566.681c3.633,2.545,5.3,3.506,8.417,2.469a26.431,26.431,0,0,0,5.421-2.545l6.146-.636S405.457,413.867,397.51,411.641Z" transform="translate(-276.897 -235.953)" fill="#ffbe9d"/>
        <path id="Trazado_124496" data-name="Trazado 124496" d="M376.872,419.168c0,.07-1.272-.324-3.3-.458a17.038,17.038,0,0,0-14.207,6.063,32.87,32.87,0,0,0-1.953,2.7,3.883,3.883,0,0,1,.388-.814,14.777,14.777,0,0,1,1.381-2.036,16.5,16.5,0,0,1,14.411-6.146,15.273,15.273,0,0,1,2.424.407A4.138,4.138,0,0,1,376.872,419.168Z" transform="translate(-279.487 -240.515)" fill="#eb996e"/>
        <path id="Trazado_124497" data-name="Trazado 124497" d="M373.481,412.384a13.361,13.361,0,0,0-11.452,1.667A32.041,32.041,0,0,0,355.6,419.5l-1.769,1.858a4.535,4.535,0,0,1-.674.636,6.131,6.131,0,0,1,.579-.751c.388-.471.961-1.139,1.692-1.947a29.611,29.611,0,0,1,6.445-5.58,14.633,14.633,0,0,1,8.176-2.214,9.823,9.823,0,0,1,2.545.471,5.725,5.725,0,0,1,.636.248Z" transform="translate(-277.941 -238.001)" fill="#eb996e"/>
      </g>
      <g id="freepik--speech-bubble--inject-7" transform="translate(305.576 41.222)">
        <path id="Trazado_124498" data-name="Trazado 124498" d="M529.745,135.11A26.009,26.009,0,0,0,508.405,176l-3.124,9.7,9.544-3.251a26.016,26.016,0,1,0,14.9-47.342Z" transform="translate(-503.284 -134.918)" fill="#fff"/>
        <path id="Trazado_124499" data-name="Trazado 124499" d="M531.272,174.359a2.246,2.246,0,1,1-2.176-2.31,2.246,2.246,0,0,1,2.176,2.31Z" transform="translate(-511.67 -148.355)" fill="#263238"/>
        <path id="Trazado_124500" data-name="Trazado 124500" d="M545.432,174.789a2.246,2.246,0,1,1-2.176-2.31A2.246,2.246,0,0,1,545.432,174.789Z" transform="translate(-516.821 -148.511)" fill="#263238"/>
        <path id="Trazado_124501" data-name="Trazado 124501" d="M559.655,174.094a2.24,2.24,0,1,1-1.327-1.087A2.246,2.246,0,0,1,559.655,174.094Z" transform="translate(-522.092 -148.669)" fill="#263238"/>
        <path id="Trazado_124502" data-name="Trazado 124502" d="M530.293,134.822a1.864,1.864,0,0,1,.452,0l1.336.076a4.864,4.864,0,0,1,.98.07l1.171.2,1.368.235,1.521.426a24.96,24.96,0,0,1,7.329,3.467A26.219,26.219,0,0,1,555.9,159.374a27.172,27.172,0,0,1,0,3.595c-.064.6-.07,1.222-.178,1.832s-.223,1.222-.331,1.845a26.476,26.476,0,0,1-2.755,7.24,28.3,28.3,0,0,1-4.975,6.426,27.633,27.633,0,0,1-7.03,4.74,25.105,25.105,0,0,1-8.462,2.322,16.54,16.54,0,0,1-2.246.121,20.708,20.708,0,0,1-2.265,0,27.357,27.357,0,0,1-4.511-.706,26.57,26.57,0,0,1-8.907-4.072l.274.038-9.3,3.41-.553.2.172-.56,3-9.741.038.242a26.289,26.289,0,0,1-4.562-11.363,23.773,23.773,0,0,1-.185-5.764,18.546,18.546,0,0,1,.344-2.749l.248-1.342c.1-.439.242-.859.363-1.272a26.277,26.277,0,0,1,10.7-14.633,25.188,25.188,0,0,1,6.2-3.035l1.387-.452,1.317-.293,1.2-.254c.382-.064.751-.1,1.1-.134.7-.07,1.311-.172,1.845-.178H530a1.061,1.061,0,0,1,.28,0,1.2,1.2,0,0,1-.28,0l-.821.045-1.355.045a17.876,17.876,0,0,0-1.826.223A26.117,26.117,0,0,0,504.525,153.9c-.108.42-.255.84-.344,1.272s-.159.878-.242,1.317a18.8,18.8,0,0,0-.324,2.7,23.769,23.769,0,0,0,.2,5.643,25.914,25.914,0,0,0,4.5,11.128l.083.108-.045.134q-1.438,4.727-2.971,9.747l-.382-.363,9.3-3.417.146-.057.127.089a25.863,25.863,0,0,0,8.7,3.97,25.526,25.526,0,0,0,4.409.694,19.778,19.778,0,0,0,2.214.032,16.7,16.7,0,0,0,2.189-.121,24.483,24.483,0,0,0,8.271-2.259,27.137,27.137,0,0,0,6.89-4.625,27.592,27.592,0,0,0,4.88-6.28,25.773,25.773,0,0,0,2.685-7.081c.115-.636.223-1.209.337-1.8s.115-1.209.178-1.8a27.379,27.379,0,0,0,.051-3.531,25.971,25.971,0,0,0-11.147-19.825,24.953,24.953,0,0,0-7.215-3.518l-1.5-.445-1.349-.267-1.158-.223c-.356-.051-.687-.07-.973-.1l-1.323-.14A3.182,3.182,0,0,1,530.293,134.822Z" transform="translate(-503.03 -134.808)" fill="#263238"/>
      </g>
      <g id="freepik--Device--inject-7" transform="translate(103.894 134.041)">
        <path id="Trazado_124536" data-name="Trazado 124536" d="M239.377,422.055l-21.11-52.992a6.929,6.929,0,0,1,6.413-9.544h65.761a6.928,6.928,0,0,1,6.559,4.7l18.133,53.445,21.18.1c1.718,0,3.111,2.545,3.111,4.244h0l-23.312-.267Z" transform="translate(-217.755 -359.52)" fill="#263238"/>
        <path id="Trazado_124537" data-name="Trazado 124537" d="M248.018,378.746a7.355,7.355,0,0,0-4.25,1.139,5.534,5.534,0,0,0-1.158.961,8.31,8.31,0,0,0-2.335,7.571c.8,3.843,3.277,4.371,4.454,4.5s9.238-2.17,9.238-2.17,2.927-2.488,1.909-5.758A8.773,8.773,0,0,0,248.018,378.746Z" transform="translate(-225.88 -366.512)" fill="#26aab7"/>
        <path id="Trazado_124538" data-name="Trazado 124538" d="M246.49,397.346s.293,2.055,1.323,2.545a7.764,7.764,0,0,0,4.454.057c1.5-.369,3.665-1.209,3.919-2.348a4.791,4.791,0,0,0-.127-2.679,6.712,6.712,0,0,0-5.421-.5A7.164,7.164,0,0,0,246.49,397.346Z" transform="translate(-228.208 -372.087)" fill="#f5f5f5"/>
        <g id="Grupo_55345" data-name="Grupo 55345" transform="translate(17.208 12.519)" opacity="0.4">
          <path id="Trazado_124539" data-name="Trazado 124539" d="M252.422,382.126a3.868,3.868,0,1,1-4.7-2.812A3.868,3.868,0,0,1,252.422,382.126Z" transform="translate(-244.801 -379.197)" fill="#fff"/>
        </g>
        <g id="Grupo_55346" data-name="Grupo 55346" transform="translate(14.257 17.484)" opacity="0.4">
          <path id="Trazado_124540" data-name="Trazado 124540" d="M240.969,393.362a4.963,4.963,0,0,0,1.1-3.283A4.836,4.836,0,0,0,240.632,387a9.492,9.492,0,0,0-.42,3.913,7.069,7.069,0,0,0,.757,2.449Z" transform="translate(-240.163 -387)" fill="#fff"/>
        </g>
        <g id="Grupo_55347" data-name="Grupo 55347" transform="translate(27.224 14.449)" opacity="0.4">
          <path id="Trazado_124541" data-name="Trazado 124541" d="M263.507,387.842a4.918,4.918,0,0,1-2.513-2.373,4.371,4.371,0,0,1-.248-3.238,10.747,10.747,0,0,1,2.2,3.086A4.649,4.649,0,0,1,263.507,387.842Z" transform="translate(-260.545 -382.23)" fill="#fff"/>
        </g>
        <path id="Trazado_124542" data-name="Trazado 124542" d="M294.631,409.649a4.276,4.276,0,1,1-4.275-4.269,4.275,4.275,0,0,1,4.275,4.269Z" transform="translate(-242.609 -376.202)" fill="#f5f5f5"/>
      </g>
    </g>
  </g>
</svg>
