<svg xmlns="http://www.w3.org/2000/svg" xmlns:xlink="http://www.w3.org/1999/xlink" width="123.833" height="123.833" viewBox="0 0 123.833 123.833">
  <defs>
    <radialGradient id="radial-gradient" cx="0.076" cy="0.019" r="1.465" gradientTransform="translate(0.001)" gradientUnits="objectBoundingBox">
      <stop offset="0" stop-color="#f6f6f7"/>
      <stop offset="0.477" stop-color="#f9f9fa"/>
      <stop offset="0.715" stop-color="#fff"/>
    </radialGradient>
  </defs>
  <g id="Grupo_55812" data-name="Grupo 55812" transform="translate(8292.348 -960)">
    <g id="Grupo_42274" data-name="Grupo 42274" transform="translate(-8292.348 960)">
      <g id="Grupo_18423" data-name="Grupo 18423" transform="translate(0 0)">
        <g id="Grupo_18421" data-name="Grupo 18421">
          <g id="Grupo_18420" data-name="Grupo 18420">
            <g id="Grupo_18419" data-name="Grupo 18419">
              <path id="Trazado_40936" data-name="Trazado 40936" d="M318.456,2207.635a61.916,61.916,0,1,1-61.915-61.915A61.915,61.915,0,0,1,318.456,2207.635Z" transform="translate(-194.623 -2145.721)" fill="#fff"/>
            </g>
          </g>
        </g>
        <path id="Trazado_40937" data-name="Trazado 40937" d="M317.728,2206.843a61.915,61.915,0,1,0-61.915,61.918A61.672,61.672,0,0,0,317.728,2206.843Z" transform="translate(-193.895 -2144.928)" fill="url(#radial-gradient)"/>
        <path id="Trazado_40938" data-name="Trazado 40938" d="M296.6,2200.4a47.26,47.26,0,1,0-47.26,47.26A47.084,47.084,0,0,0,296.6,2200.4Z" transform="translate(-187.238 -2138.278)" fill="none" stroke="#26aab7" stroke-miterlimit="10" stroke-width="4"/>
        <g id="Grupo_18422" data-name="Grupo 18422" transform="translate(10.969 34.762)">
          <path id="Trazado_40939" data-name="Trazado 40939" d="M307.148,2164.488a61.924,61.924,0,0,1-106.6,61.66,61.727,61.727,0,0,0,106.6-61.66Z" transform="translate(-200.545 -2164.488)" fill="#eceef0"/>
        </g>
      </g>
    </g>
    <path id="Trazado_128671" data-name="Trazado 128671" d="M46,11V61H5a2,2,0,0,1-2-2V5A2,2,0,0,1,5,3H38Z" transform="translate(-8257 992)" fill="#e8f7ff"/>
    <path id="Trazado_128672" data-name="Trazado 128672" d="M46,29.046A17.989,17.989,0,0,0,30.058,61H46Z" transform="translate(-8257 992)" fill="#d4f0ff"/>
    <path id="Trazado_128673" data-name="Trazado 128673" d="M12,52H8l4,5,4-5Z" transform="translate(-8257 992)" fill="#8e4819"/>
    <path id="Trazado_128674" data-name="Trazado 128674" d="M50.607,35.393A15,15,0,1,0,55,46a15,15,0,0,0-4.393-10.607ZM40,56A10,10,0,1,1,50,46,10,10,0,0,1,40,56Z" transform="translate(-8257 992)" fill="#de3a3a"/>
    <path id="Trazado_128675" data-name="Trazado 128675" d="M40,11h6L38,3V9A2,2,0,0,0,40,11Z" transform="translate(-8257 992)" fill="#d4f0ff"/>
    <path id="Trazado_128676" data-name="Trazado 128676" d="M47.071,38.929A10,10,0,1,0,50,46,10,10,0,0,0,47.071,38.929ZM40,51a5,5,0,1,1,5-5A5,5,0,0,1,40,51Z" transform="translate(-8257 992)" fill="#fff"/>
    <path id="Trazado_128677" data-name="Trazado 128677" d="M43.536,42.464A5,5,0,1,0,45,46a5,5,0,0,0-1.464-3.536Z" transform="translate(-8257 992)" fill="#de3a3a"/>
    <path id="Trazado_128678" data-name="Trazado 128678" d="M8,19h4V52H8Z" transform="translate(-8257 992)" fill="#ff5252"/>
    <path id="Trazado_128679" data-name="Trazado 128679" d="M12,19h4V52H12Z" transform="translate(-8257 992)" fill="#2199ea"/>
    <path id="Trazado_128680" data-name="Trazado 128680" d="M16,12a4,4,0,0,0-8,0v3h8Z" transform="translate(-8257 992)" fill="#ffead4"/>
    <path id="Trazado_128681" data-name="Trazado 128681" d="M16,19V15H8v4h8Z" transform="translate(-8257 992)" fill="#c2c2c2"/>
    <g id="Grupo_55778" data-name="Grupo 55778" transform="translate(-8257 992)">
      <path id="Trazado_128682" data-name="Trazado 128682" d="M40,15H22a2,2,0,0,0,0,4H40a2,2,0,0,0,0-4Z" fill="#2199ea"/>
      <path id="Trazado_128683" data-name="Trazado 128683" d="M42,25a2,2,0,0,0-2-2H22a2,2,0,0,0,0,4H40A2,2,0,0,0,42,25Z" fill="#2199ea"/>
      <path id="Trazado_128684" data-name="Trazado 128684" d="M22,11H32a2,2,0,0,0,0-4H22a2,2,0,0,0,0,4Z" fill="#2199ea"/>
    </g>
    <path id="Trazado_128685" data-name="Trazado 128685" d="M15,8a3.984,3.984,0,0,0-1.5.3A4,4,0,0,1,16,12V52l-2.5,3.125L15,57l4-5V12A4,4,0,0,0,15,8Z" transform="translate(-8257 992)" fill="#d4f0ff"/>
    <path id="Trazado_128686" data-name="Trazado 128686" d="M57,24H55v5.586l-2,2V26H51v7.586l-.432.432A15.986,15.986,0,1,0,32.271,60H5a1,1,0,0,1-1-1V5A1,1,0,0,1,5,4H37V9a3,3,0,0,0,3,3h5V29h2V11h-.009a.991.991,0,0,0-.284-.707l-8-8A.991.991,0,0,0,38,2.009V2H5A3,3,0,0,0,2,5V59a3,3,0,0,0,3,3H40A15.974,15.974,0,0,0,51.982,35.432L52.414,35H60V33H54.414l2-2H62V29H57ZM39,5.414,43.586,10H40a1,1,0,0,1-1-1ZM54,46a14.046,14.046,0,1,1-4.846-10.568l-2.12,2.12a11.017,11.017,0,1,0,1.414,1.414l2.12-2.12A13.922,13.922,0,0,1,54,46ZM44,46a4,4,0,1,1-4-4,3.947,3.947,0,0,1,2.019.567l-2.726,2.726,1.414,1.414,2.726-2.726A3.947,3.947,0,0,1,44,46Zm-.529-4.885a6.019,6.019,0,1,0,1.414,1.414l2.14-2.14a9.023,9.023,0,1,1-1.414-1.414Z" transform="translate(-8257 992)"/>
    <path id="Trazado_128687" data-name="Trazado 128687" d="M11.219,57.625A1,1,0,0,0,12,58h7V56H14.081l2.7-3.375-.012-.01A.98.98,0,0,0,17,52V12A5,5,0,1,0,7,12V52a.98.98,0,0,0,.231.615l-.012.01ZM10.081,53h3.838L12,55.4ZM9,20h2V51H9Zm6,0V51H13V20Zm0-2H9V16h6ZM12,9a3,3,0,0,1,3,3v2H9V12a3,3,0,0,1,3-3Z" transform="translate(-8257 992)"/>
    <path id="Trazado_128688" data-name="Trazado 128688" d="M40,14H22a3,3,0,0,0,0,6H40a3,3,0,0,0,0-6Zm0,4H22a1,1,0,0,1,0-2H40a1,1,0,0,1,0,2Z" transform="translate(-8257 992)"/>
    <path id="Trazado_128689" data-name="Trazado 128689" d="M43,25a3,3,0,0,0-3-3H22a3,3,0,0,0,0,6H40a3,3,0,0,0,3-3ZM21,25a1,1,0,0,1,1-1H40a1,1,0,0,1,0,2H22A1,1,0,0,1,21,25Z" transform="translate(-8257 992)"/>
    <path id="Trazado_128690" data-name="Trazado 128690" d="M22,12H32a3,3,0,0,0,0-6H22a3,3,0,0,0,0,6Zm0-4H32a1,1,0,0,1,0,2H22a1,1,0,0,1,0-2Z" transform="translate(-8257 992)"/>
    <path id="Trazado_128691" data-name="Trazado 128691" d="M21,56h2v2H21Z" transform="translate(-8257 992)"/>
    <path id="Trazado_128692" data-name="Trazado 128692" d="M25,56h2v2H25Z" transform="translate(-8257 992)"/>
  </g>
</svg>
