<svg xmlns="http://www.w3.org/2000/svg" xmlns:xlink="http://www.w3.org/1999/xlink" width="123.833" height="123.833" viewBox="0 0 123.833 123.833">
  <defs>
    <radialGradient id="radial-gradient" cx="0.076" cy="0.019" r="1.465" gradientTransform="translate(0.001)" gradientUnits="objectBoundingBox">
      <stop offset="0" stop-color="#f6f6f7"/>
      <stop offset="0.477" stop-color="#f9f9fa"/>
      <stop offset="0.715" stop-color="#fff"/>
    </radialGradient>
  </defs>
  <g id="Grupo_55807" data-name="Grupo 55807" transform="translate(8292.348 450)">
    <g id="Grupo_46891" data-name="Grupo 46891" transform="translate(-8292.348 -450)">
      <g id="Grupo_42274" data-name="Grupo 42274" transform="translate(0 0)">
        <g id="Grupo_18423" data-name="Grupo 18423" transform="translate(0 0)">
          <g id="Grupo_18421" data-name="Grupo 18421">
            <g id="Grupo_18420" data-name="Grupo 18420">
              <g id="Grupo_18419" data-name="Grupo 18419">
                <path id="Trazado_40936" data-name="Trazado 40936" d="M318.456,2207.635a61.916,61.916,0,1,1-61.915-61.915A61.915,61.915,0,0,1,318.456,2207.635Z" transform="translate(-194.623 -2145.721)" fill="#fff"/>
              </g>
            </g>
          </g>
          <path id="Trazado_40937" data-name="Trazado 40937" d="M317.728,2206.843a61.915,61.915,0,1,0-61.915,61.918A61.672,61.672,0,0,0,317.728,2206.843Z" transform="translate(-193.895 -2144.928)" fill="url(#radial-gradient)"/>
          <path id="Trazado_40938" data-name="Trazado 40938" d="M296.6,2200.4a47.26,47.26,0,1,0-47.26,47.26A47.084,47.084,0,0,0,296.6,2200.4Z" transform="translate(-187.238 -2138.278)" fill="none" stroke="#26aab7" stroke-miterlimit="10" stroke-width="4"/>
          <g id="Grupo_18422" data-name="Grupo 18422" transform="translate(10.969 34.762)">
            <path id="Trazado_40939" data-name="Trazado 40939" d="M307.148,2164.488a61.924,61.924,0,0,1-106.6,61.66,61.727,61.727,0,0,0,106.6-61.66Z" transform="translate(-200.545 -2164.488)" fill="#eceef0"/>
          </g>
        </g>
      </g>
    </g>
    <path id="Trazado_128730" data-name="Trazado 128730" d="M32,2A30,30,0,1,0,62,32,30,30,0,0,0,32,2ZM60,32a27.821,27.821,0,0,1-3.274,13.121L33,31.422V4.025A28.03,28.03,0,0,1,60,32ZM31,4.025v27.4L7.274,45.121A27.98,27.98,0,0,1,31,4.025ZM32,60A28,28,0,0,1,8.279,46.85L32,33.155l23.721,13.7A28,28,0,0,1,32,60Z" transform="translate(-8260 -420)"/>
    <path id="Trazado_128731" data-name="Trazado 128731" d="M45,30h2V29a2,2,0,0,0,2-2V25a2,2,0,0,0-2-2H45V21h4V19H47V18H45v1a2,2,0,0,0-2,2v2a2,2,0,0,0,2,2h2v2H43v2h2Z" transform="translate(-8260 -420)"/>
    <path id="Trazado_128732" data-name="Trazado 128732" d="M46,33a9,9,0,1,0-9-9,9,9,0,0,0,9,9Zm0-16a7,7,0,1,1-7,7,7,7,0,0,1,7-7Z" transform="translate(-8260 -420)"/>
    <path id="Trazado_128733" data-name="Trazado 128733" d="M38,39H26a3,3,0,0,0-3,3V54a3,3,0,0,0,3,3H38a3,3,0,0,0,3-3V42A3,3,0,0,0,38,39Zm-7,2h2v4.586l-.293-.293a1,1,0,0,0-1.414,0L31,45.586Zm8,13a1,1,0,0,1-1,1H26a1,1,0,0,1-1-1V42a1,1,0,0,1,1-1h3v7a1,1,0,0,0,1.707.707L32,47.414l1.293,1.293A1,1,0,0,0,35,48V41h3a1,1,0,0,1,1,1Z" transform="translate(-8260 -420)"/>
    <path id="Trazado_128734" data-name="Trazado 128734" d="M10,31h1.313c.032.106.046.217.083.322a7,7,0,0,0,13.208,0c.037-.105.051-.216.083-.322H26a3,3,0,0,0,3-3V26a3,3,0,0,0-2-2.816V19a6.006,6.006,0,0,0-6-6H15a6.006,6.006,0,0,0-6,6v4.184A3,3,0,0,0,7,26v2a3,3,0,0,0,3,3Zm12.718-.344h0A5,5,0,0,1,13,29V23.721l1-.334V24a1,1,0,0,0,1.707.707L17,23.414V24a1,1,0,0,0,1.555.832L21.147,23.1,23,23.721V29a4.955,4.955,0,0,1-.282,1.656ZM27,28a1,1,0,0,1-1,1H25V25h1a1,1,0,0,1,1,1ZM11,19a4,4,0,0,1,4-4h6a4,4,0,0,1,4,4v4a1,1,0,0,0-.684-.949l-3-1a1.013,1.013,0,0,0-.871.117L19,22.131V21a1,1,0,0,0-1.707-.707l-1.356,1.356a1,1,0,0,0-1.253-.6l-3,1A1,1,0,0,0,11,23ZM9,26a1,1,0,0,1,1-1h1v4H10a1,1,0,0,1-1-1Z" transform="translate(-8260 -420)"/>
    <path id="Trazado_128735" data-name="Trazado 128735" d="M18,30a1,1,0,0,1-1-1H15a3,3,0,0,0,6,0H19A1,1,0,0,1,18,30Z" transform="translate(-8260 -420)"/>
  </g>
</svg>
