<?xml version="1.0" encoding="utf-8"?>
<!-- Generator: Adobe Illustrator 25.3.1, SVG Export Plug-In . SVG Version: 6.00 Build 0)  -->
<svg version="1.1" id="Layer_1" xmlns="http://www.w3.org/2000/svg" xmlns:xlink="http://www.w3.org/1999/xlink" x="0px" y="0px"
	 viewBox="0 0 352 252.4" style="enable-background:new 0 0 352 252.4;" xml:space="preserve">
<style type="text/css">
	.st0{opacity:0.1;}
	.st1{fill:#7D6EB2;}
	.st2{enable-background:new    ;}
	.st3{fill:#12263F;}
	.st4{fill:#263238;}
	.st5{fill:#C49D6A;}
	.st6{opacity:0.3;}
	.st7{fill:#DAA764;}
</style>
<g>
	<g id="Image_Place_Holder" transform="translate(139 5219.229)" class="st0">
		<path id="Image_Place_Holder-2" class="st1" d="M-129-5219.2h332c5.5,0,10,4.5,10,10v232.4c0,5.5-4.5,10-10,10h-332
			c-5.5,0-10-4.5-10-10v-232.4C-139-5214.8-134.5-5219.2-129-5219.2z"/>
	</g>
	<g class="st2">
		<path class="st3" d="M141.8,37.8h-2.9l-5.7-9.4v9.4h-2.9V23.6h2.9l5.7,9.4v-9.4h2.9V37.8z"/>
		<path class="st3" d="M149.1,38c-1.5,0-2.8-0.5-3.8-1.4s-1.5-2.2-1.5-3.8v-0.3c0-1.1,0.2-2,0.6-2.8s1-1.5,1.7-1.9s1.6-0.7,2.6-0.7
			c1.4,0,2.6,0.5,3.4,1.4s1.2,2.2,1.2,3.9v1.2h-6.7c0.1,0.7,0.4,1.2,0.8,1.7s1,0.6,1.7,0.6c1.1,0,1.9-0.4,2.5-1.2l1.4,1.6
			c-0.4,0.6-1,1.1-1.7,1.4S149.9,38,149.1,38z M148.7,29.3c-0.6,0-1,0.2-1.4,0.6c-0.3,0.4-0.6,0.9-0.7,1.6h3.9v-0.2
			c0-0.6-0.2-1.1-0.5-1.5C149.8,29.5,149.3,29.3,148.7,29.3z"/>
		<path class="st3" d="M159.4,35.7c0.5,0,0.9-0.1,1.3-0.4s0.5-0.7,0.5-1.1h2.6c0,0.7-0.2,1.4-0.6,2s-0.9,1.1-1.6,1.4
			s-1.4,0.5-2.2,0.5c-1.5,0-2.7-0.5-3.6-1.4s-1.3-2.3-1.3-4v-0.2c0-1.6,0.4-2.9,1.3-3.9s2.1-1.5,3.6-1.5c1.3,0,2.4,0.4,3.2,1.1
			s1.2,1.8,1.2,3h-2.6c0-0.5-0.2-1-0.5-1.3s-0.8-0.5-1.3-0.5c-0.7,0-1.2,0.2-1.5,0.7s-0.5,1.3-0.5,2.3v0.3c0,1.1,0.2,1.9,0.5,2.3
			S158.7,35.7,159.4,35.7z"/>
		<path class="st3" d="M170.3,38c-1.5,0-2.8-0.5-3.8-1.4s-1.5-2.2-1.5-3.8v-0.3c0-1.1,0.2-2,0.6-2.8s1-1.5,1.7-1.9S169,27,170,27
			c1.4,0,2.6,0.5,3.4,1.4s1.2,2.2,1.2,3.9v1.2h-6.7c0.1,0.7,0.4,1.2,0.8,1.7s1,0.6,1.7,0.6c1.1,0,1.9-0.4,2.5-1.2l1.4,1.6
			c-0.4,0.6-1,1.1-1.7,1.4S171.2,38,170.3,38z M170,29.3c-0.6,0-1,0.2-1.4,0.6c-0.3,0.4-0.6,0.9-0.7,1.6h3.9v-0.2
			c0-0.6-0.2-1.1-0.5-1.5C171,29.5,170.6,29.3,170,29.3z"/>
		<path class="st3" d="M182,34.9c0-0.3-0.2-0.6-0.5-0.8s-0.9-0.4-1.6-0.5c-2.5-0.5-3.8-1.6-3.8-3.2c0-0.9,0.4-1.7,1.2-2.3
			c0.8-0.6,1.8-0.9,3.1-0.9c1.3,0,2.4,0.3,3.2,0.9s1.2,1.5,1.2,2.5h-2.8c0-0.4-0.1-0.7-0.4-1s-0.7-0.4-1.2-0.4
			c-0.5,0-0.8,0.1-1.1,0.3s-0.4,0.5-0.4,0.8c0,0.3,0.1,0.6,0.4,0.8s0.8,0.4,1.5,0.5s1.3,0.3,1.8,0.5c1.5,0.5,2.2,1.5,2.2,2.8
			c0,1-0.4,1.7-1.2,2.3s-1.9,0.9-3.2,0.9c-0.9,0-1.7-0.2-2.4-0.5s-1.2-0.7-1.6-1.3s-0.6-1.1-0.6-1.8h2.7c0,0.5,0.2,0.9,0.6,1.2
			s0.8,0.4,1.4,0.4c0.5,0,0.9-0.1,1.2-0.3S182,35.2,182,34.9z"/>
		<path class="st3" d="M186.5,24.5c0-0.4,0.1-0.8,0.4-1s0.7-0.4,1.2-0.4c0.5,0,0.9,0.1,1.2,0.4s0.4,0.6,0.4,1c0,0.4-0.1,0.8-0.4,1.1
			s-0.7,0.4-1.1,0.4s-0.9-0.1-1.1-0.4S186.5,24.9,186.5,24.5z M189.5,37.8h-2.8V27.2h2.8V37.8z"/>
		<path class="st3" d="M191.4,32.4c0-1.6,0.4-3,1.1-3.9s1.7-1.5,3-1.5c1,0,1.9,0.4,2.5,1.2v-5.4h2.8v15h-2.5l-0.1-1.1
			c-0.7,0.9-1.6,1.3-2.7,1.3c-1.2,0-2.2-0.5-3-1.5S191.4,34.2,191.4,32.4z M194.2,32.6c0,1,0.2,1.8,0.5,2.3c0.3,0.5,0.8,0.8,1.5,0.8
			c0.9,0,1.5-0.4,1.8-1.1v-4.2c-0.4-0.7-1-1.1-1.8-1.1C194.9,29.3,194.2,30.4,194.2,32.6z"/>
		<path class="st3" d="M209.2,37.8c-0.1-0.3-0.2-0.6-0.3-0.9c-0.7,0.8-1.6,1.1-2.7,1.1c-1,0-1.9-0.3-2.6-0.9s-1-1.4-1-2.3
			c0-1.1,0.4-2,1.2-2.6s2-0.9,3.6-0.9h1.3v-0.6c0-0.5-0.1-0.9-0.4-1.2s-0.6-0.4-1.2-0.4c-0.5,0-0.8,0.1-1.1,0.3s-0.4,0.5-0.4,0.9
			h-2.8c0-0.6,0.2-1.2,0.6-1.7s0.9-0.9,1.6-1.2s1.5-0.4,2.3-0.4c1.3,0,2.3,0.3,3.1,1s1.1,1.6,1.1,2.8v4.6c0,1,0.1,1.8,0.4,2.3v0.2
			H209.2z M206.9,35.8c0.4,0,0.8-0.1,1.2-0.3s0.6-0.4,0.8-0.7V33h-1.1c-1.4,0-2.2,0.5-2.3,1.5l0,0.2c0,0.4,0.1,0.6,0.4,0.9
			S206.5,35.8,206.9,35.8z"/>
		<path class="st3" d="M213.4,32.4c0-1.6,0.4-3,1.1-3.9s1.7-1.5,3-1.5c1,0,1.9,0.4,2.5,1.2v-5.4h2.8v15h-2.5l-0.1-1.1
			c-0.7,0.9-1.6,1.3-2.7,1.3c-1.2,0-2.2-0.5-3-1.5S213.4,34.2,213.4,32.4z M216.2,32.6c0,1,0.2,1.8,0.5,2.3c0.3,0.5,0.8,0.8,1.5,0.8
			c0.9,0,1.5-0.4,1.8-1.1v-4.2c-0.4-0.7-1-1.1-1.8-1.1C216.9,29.3,216.2,30.4,216.2,32.6z"/>
	</g>
	<g id="Baker-pana" transform="translate(121.694 5090.083)">
		<g id="Baker-cuate" transform="translate(17.306 282.813)">
			<g id="freepik--Table--inject-18" transform="translate(0 56.015)">
				<path id="Trazado_125325" class="st4" d="M-139-5218.7l38.9-0.2l38.9-0.1l77.8-0.2l77.8,0.2l38.9,0.1l38.9,0.2l-38.9,0.2
					l-38.9,0.1l-77.8,0.2l-77.8-0.2l-38.9-0.1L-139-5218.7z"/>
			</g>
			<path id="Trazado_125697" class="st5" d="M26.5-5175.6c0,0,10.1-9.7-5.3-22.6c-12.2-10.3-33.2-18.6-69.8-18.6
				c-40.7,0-77.6,15.2-78.3,31.6c-0.7,16.4,15,14.7,39.5,16.1c19.6,1.2,52,0.7,70.3,0.4c6.5,0,29-1.2,35.2-3
				C21.9-5172.8,25.4-5174.1,26.5-5175.6z"/>
			<g id="Grupo_55390" transform="translate(118.64 3.769)" class="st6">
				<path id="Trazado_125642" d="M-117.7-5214.8c1.8,5.6,3.3,11.2,4.5,16.9c0.2,0.5,0.2,1,0,1.5c-0.5,1-2.1,0.8-3.1,0.2
					c-2.2-1.4-4.2-3.1-5.8-5.1c-5.6-6.1-11.3-11.9-16.9-18C-131.8-5218.4-124.6-5216.9-117.7-5214.8z"/>
			</g>
			<g id="Grupo_55391" transform="translate(69.418 2.279)" class="st6">
				<path id="Trazado_125643" d="M-112.8-5219.1c4,6.4,7.4,13.1,10.1,20c0.6,1.6,1.2,3.5,0,4.7c-0.9,0.8-2.1,1.1-3.2,0.8
					c-1.1-0.4-2.1-1-3-1.7l-30.1-22.5C-130.3-5219.1-121.5-5219.5-112.8-5219.1z"/>
			</g>
			<g id="Grupo_55392" transform="translate(28.419 8.753)" class="st6">
				<path id="Trazado_125644" d="M-125.4-5219.2c6.8,5.1,13.1,10.7,19,16.8c0.9,1,1.9,2.5,1.1,3.6s-2.2,0.7-3.3,0.4
					c-11.1-3.1-21.4-8.4-30.4-15.7C-134.6-5216.1-130.1-5217.8-125.4-5219.2L-125.4-5219.2z"/>
			</g>
			<rect id="Rectángulo_30222" x="-139" y="-5171.5" class="st4" width="317.9" height="8.2"/>
			<path id="Trazado_125698" class="st7" d="M168.9-5177.8c0,0,10.1-9.7-5.3-22.7c-12.2-10.3-33.2-18.6-69.9-18.6
				c-40.7,0-77.6,15.2-78.3,31.6s15,14.7,39.5,16.1c19.6,1.2,52,0.7,70.3,0.4c6.5,0,29-1.2,35.3-3
				C164.2-5175,167.7-5176.4,168.9-5177.8z"/>
			<g id="Grupo_55393" transform="translate(256.768 1.49)" class="st6">
				<path id="Trazado_125646" d="M-117.7-5214.8c1.9,5.6,3.4,11.2,4.5,17c0.2,0.5,0.2,1,0,1.5c-0.5,1-2.1,0.8-3.1,0.2
					c-2.2-1.4-4.2-3.1-5.8-5.1c-5.6-6.1-11.3-11.9-16.9-18.1C-131.8-5218.4-124.6-5216.9-117.7-5214.8L-117.7-5214.8z"/>
			</g>
			<g id="Grupo_55394" transform="translate(202.608)" class="st6">
				<path id="Trazado_125647" d="M-112.8-5219.1c4,6.4,7.4,13.1,10.1,20c0.6,1.6,1.2,3.5,0,4.7c-0.9,0.8-2.1,1.1-3.2,0.8
					c-1.1-0.4-2.1-1-3-1.7l-30.1-22.6C-130.3-5219.1-121.5-5219.5-112.8-5219.1z"/>
			</g>
			<g id="Grupo_55395" transform="translate(169.345 8.744)" class="st6">
				<path id="Trazado_125648" d="M-125.3-5219.2c6.7,5.1,13,10.8,18.9,16.8c1,1,1.9,2.5,1.1,3.6s-2.2,0.8-3.3,0.4
					c-11.1-3.1-21.4-8.4-30.4-15.6C-134.6-5216.1-130-5217.8-125.3-5219.2z"/>
			</g>
			<g id="Grupo_55396" transform="translate(160.21 37.542)" class="st6">
				<path id="Trazado_125649" d="M-139-5219.1c0.2-0.4,2,0.4,5.3,1.3c4.7,1.2,9.4,1.9,14.2,2c12.2,0.5,29.5,0.6,48.4,0.8l48.5,0.3
					c12.4,0.1,20.1,0.3,20.2,1.2c0.1,0.9-7.6,2.2-20,3.2s-29.7,1.7-48.7,1.5c-16.3,0.1-32.6-0.8-48.8-2.6c-5.1-0.6-10-2-14.6-4.2
					C-137.8-5217.3-139.2-5218.8-139-5219.1z"/>
			</g>
		</g>
	</g>
</g>
</svg>
