<svg xmlns="http://www.w3.org/2000/svg" width="382.338" height="405" viewBox="0 0 382.338 405">
  <g id="Mobile_feed-pana" data-name="Mobile feed-pana" transform="translate(-37.9 -31.009)">
    <g id="freepik--background-complete--inject-5" transform="translate(93.47 47.001)">
      <path id="Trazado_117787" data-name="Trazado 117787" d="M227.97,70.331a11.994,11.994,0,0,0,3.869-12.54c-1.791-6.369-8.061-10.193-14.009-8.545s-9.378,8.151-7.623,14.52a11.94,11.94,0,0,0,9.907,8.814c-15.917,7.166-10.086,25.026-10.086,25.026L249.378,86.7S245.141,68.19,227.97,70.331Z" transform="translate(-111.312 -48.863)" fill="#ebebeb"/>
      <rect id="Rectángulo_29489" data-name="Rectángulo 29489" width="19.939" height="7.417" transform="translate(241.507 119.35) rotate(-79.33)" fill="#e0e0e0"/>
      <rect id="Rectángulo_29490" data-name="Rectángulo 29490" width="19.939" height="7.417" transform="translate(243.478 119.721) rotate(-79.33)" fill="#ebebeb"/>
      <path id="Trazado_117788" data-name="Trazado 117788" d="M377.307,166.231a1.666,1.666,0,1,0,.7-1.074A1.675,1.675,0,0,0,377.307,166.231Z" transform="translate(-128.861 -60.96)" fill="#fff"/>
      <path id="Trazado_117789" data-name="Trazado 117789" d="M373.06,163.51a5.284,5.284,0,0,1,.851,1.541,4.98,4.98,0,0,1,.573,1.657,5.284,5.284,0,0,1-.851-1.541,4.979,4.979,0,0,1-.573-1.657Z" transform="translate(-128.421 -60.818)" fill="#ebebeb"/>
      <path id="Trazado_117790" data-name="Trazado 117790" d="M372.6,165.93a5.285,5.285,0,0,1,.851,1.541,5.373,5.373,0,0,1,.582,1.657,5.052,5.052,0,0,1-.851-1.541A5.374,5.374,0,0,1,372.6,165.93Z" transform="translate(-128.374 -61.071)" fill="#ebebeb"/>
      <path id="Trazado_117791" data-name="Trazado 117791" d="M372.14,168.35a5.186,5.186,0,0,1,.9,1.541,4.98,4.98,0,0,1,.573,1.657,5.286,5.286,0,0,1-.851-1.541A5.375,5.375,0,0,1,372.14,168.35Z" transform="translate(-128.326 -61.323)" fill="#ebebeb"/>
      <path id="Trazado_117792" data-name="Trazado 117792" d="M371.69,170.77a5.284,5.284,0,0,1,.851,1.541,5.374,5.374,0,0,1,.582,1.657,5.186,5.186,0,0,1-.9-1.541,4.98,4.98,0,0,1-.537-1.657Z" transform="translate(-128.279 -61.575)" fill="#ebebeb"/>
      <path id="Trazado_117793" data-name="Trazado 117793" d="M371.23,173.19a5.051,5.051,0,0,1,.851,1.541,5.374,5.374,0,0,1,.582,1.657,5.286,5.286,0,0,1-.851-1.541A5.373,5.373,0,0,1,371.23,173.19Z" transform="translate(-128.231 -61.828)" fill="#ebebeb"/>
      <path id="Trazado_117794" data-name="Trazado 117794" d="M370.78,175.61a5.284,5.284,0,0,1,.9,1.541,4.98,4.98,0,0,1,.573,1.657,5.285,5.285,0,0,1-.851-1.541,4.98,4.98,0,0,1-.618-1.657Z" transform="translate(-128.184 -62.08)" fill="#ebebeb"/>
      <path id="Trazado_117795" data-name="Trazado 117795" d="M370.32,178a5.284,5.284,0,0,1,.851,1.541,5.374,5.374,0,0,1,.582,1.657,5.052,5.052,0,0,1-.851-1.541A5.374,5.374,0,0,1,370.32,178Z" transform="translate(-128.136 -62.329)" fill="#ebebeb"/>
      <path id="Trazado_117796" data-name="Trazado 117796" d="M373.48,161.38a5.285,5.285,0,0,1,.851,1.541,5.373,5.373,0,0,1,.582,1.657,5.052,5.052,0,0,1-.851-1.541A5.375,5.375,0,0,1,373.48,161.38Z" transform="translate(-128.465 -60.596)" fill="#ebebeb"/>
      <path id="Trazado_117797" data-name="Trazado 117797" d="M374.527,160.38a2.195,2.195,0,0,1,.555.9c.233.537.367.967.287,1s-.322-.358-.555-.9S374.447,160.416,374.527,160.38Z" transform="translate(-128.572 -60.492)" fill="#ebebeb"/>
      <path id="Trazado_117798" data-name="Trazado 117798" d="M363.039,175.518l2.866-17.386s-3.708-1.478-6.163-7.363c-1.621-3.9-.09-7.417-.242-9.02-.09-.976-2.32-1.209-3.305-1.272a3.8,3.8,0,0,0-3.431,1.478c-1.675,2.454-1.245,9.154-1.245,9.154s.475,1.433-1.353,1.093l-6.494-1.227a3.583,3.583,0,0,0-2.472.394,2.687,2.687,0,0,0-1.379,2.114c-.278,2.517.815,3.87.726,4.389s-.994,1.3-.752,2.893.591,1.523.457,2.239a11.8,11.8,0,0,0-.1,3.753,5.375,5.375,0,0,0,.663,1.791,7.955,7.955,0,0,0-.242,3.8c.627,1.917,4.7,3.878,6.628,3.4.9-.224,4.944-.421,6.852-.528S361.472,174.345,363.039,175.518Z" transform="translate(-124.948 -58.414)" fill="#e0e0e0"/>
      <path id="Trazado_117799" data-name="Trazado 117799" d="M365.65,176.207l3.305-17.511s-3.708-1.478-6.163-7.363a29.736,29.736,0,0,1-2.266-8.491,2.024,2.024,0,0,0-1.845-1.854,3.09,3.09,0,0,0-3,1.415c-1.675,2.445-1.111,9.271-1.111,9.271s.475,1.433-1.344,1.093l-6.5-1.227a3.646,3.646,0,0,0-2.472.394,2.687,2.687,0,0,0-1.379,2.123c-.278,2.508.824,3.861.726,4.38s-.994,1.3-.752,2.893.591,1.523.457,2.239a11.851,11.851,0,0,0-.1,3.762,5.376,5.376,0,0,0,.663,1.791,9.163,9.163,0,0,0-.242,3.8c.394,1.487,2.992,2.687,3.905,2.893s7.667.09,9.575,0S364.056,175.033,365.65,176.207Z" transform="translate(-125.266 -58.467)" fill="#ebebeb"/>
      <path id="Trazado_117800" data-name="Trazado 117800" d="M353,148.32a11.286,11.286,0,0,1,1.37,1.854,12.351,12.351,0,0,1,1.236,1.944,6.906,6.906,0,0,1-1.478-1.791A7.819,7.819,0,0,1,353,148.32Z" transform="translate(-126.33 -59.234)" fill="#ebebeb"/>
      <path id="Trazado_117801" data-name="Trazado 117801" d="M353.05,145.63a12.717,12.717,0,0,1,1.326,1.621,6.9,6.9,0,0,1,1.191,1.729,8.063,8.063,0,0,1-1.424-1.541,5.285,5.285,0,0,1-1.093-1.809Z" transform="translate(-126.335 -58.954)" fill="#ebebeb"/>
      <path id="Trazado_117802" data-name="Trazado 117802" d="M353.7,143.31c.081-.045.493.591,1.129,1.263a3.824,3.824,0,0,1,1,1.388,7.164,7.164,0,0,1-1.227-1.182A3.072,3.072,0,0,1,353.7,143.31Z" transform="translate(-126.403 -58.711)" fill="#ebebeb"/>
      <path id="Trazado_117803" data-name="Trazado 117803" d="M354.869,141.49c.063-.045.466.349.9.9s.734,1.021.672,1.066-.466-.34-.9-.9S354.8,141.543,354.869,141.49Z" transform="translate(-126.523 -58.521)" fill="#ebebeb"/>
      <path id="Trazado_117804" data-name="Trazado 117804" d="M356.559,140.609c.054-.063.34.125.636.4s.484.564.421.627-.34-.125-.636-.412S356.505,140.671,356.559,140.609Z" transform="translate(-126.7 -58.429)" fill="#ebebeb"/>
      <path id="Trazado_117805" data-name="Trazado 117805" d="M352.869,151.869c.063-.054.493.367.949.9s.779,1.075.708,1.129-.484-.367-.941-.941S352.806,151.923,352.869,151.869Z" transform="translate(-126.315 -59.604)" fill="#ebebeb"/>
      <path id="Trazado_117806" data-name="Trazado 117806" d="M339.77,156.46a10.076,10.076,0,0,1,1.845,1.639,10.749,10.749,0,0,1,1.63,1.836,9.852,9.852,0,0,1-1.845-1.63A10.221,10.221,0,0,1,339.77,156.46Z" transform="translate(-124.95 -60.083)" fill="#ebebeb"/>
      <path id="Trazado_117807" data-name="Trazado 117807" d="M340.51,153.169c.063-.063.573.358,1.138.9s.985,1.084.9,1.147-.573-.358-1.138-.9a3.861,3.861,0,0,1-.9-1.147Z" transform="translate(-125.027 -59.739)" fill="#ebebeb"/>
      <path id="Trazado_117808" data-name="Trazado 117808" d="M340,161.41a4.81,4.81,0,0,1,1.442,1.12,4.578,4.578,0,0,1,1.12,1.442,7.818,7.818,0,0,1-1.335-1.227A7.462,7.462,0,0,1,340,161.41Z" transform="translate(-124.974 -60.599)" fill="#ebebeb"/>
      <path id="Trazado_117809" data-name="Trazado 117809" d="M340.34,165.38a5.553,5.553,0,0,1,1.326,1.227,5.759,5.759,0,0,1,1.1,1.424,5.554,5.554,0,0,1-1.326-1.227A5.374,5.374,0,0,1,340.34,165.38Z" transform="translate(-125.009 -61.013)" fill="#ebebeb"/>
      <path id="Trazado_117810" data-name="Trazado 117810" d="M340.35,170a10.587,10.587,0,0,1,1.487,1.469,11.083,11.083,0,0,1,1.4,1.55,5.759,5.759,0,0,1-1.612-1.344A5.876,5.876,0,0,1,340.35,170Z" transform="translate(-125.01 -61.495)" fill="#ebebeb"/>
      <path id="Trazado_117811" data-name="Trazado 117811" d="M340.57,173.92a47,47,0,0,1,3.368,3.529,7.657,7.657,0,0,1-1.854-1.6,7.918,7.918,0,0,1-1.514-1.926Z" transform="translate(-125.033 -61.904)" fill="#ebebeb"/>
      <path id="Trazado_117812" data-name="Trazado 117812" d="M409.095,324.143c-4.317-2.221-9.4-2.517-14.179-1.72-2.58.421-5.258,1.191-7,3.126s-2.087,5.374-.072,6.987a6.655,6.655,0,0,0,4.416,1.12c3.744,0,7.9-.7,10.9,1.559,1.7,1.281,2.839,3.422,4.882,4.058a4.846,4.846,0,0,0,5.321-2.365,8.268,8.268,0,0,0,.6-6.091,9.3,9.3,0,0,0-4.864-6.673Z" transform="translate(-129.819 -77.348)" fill="#ebebeb"/>
      <path id="Trazado_117813" data-name="Trazado 117813" d="M420.709,298.54c-2.642,3.771-7.766,2.526-10.14.224s-3.386-5.634-4.3-8.8c-2.087-7.264-4.192-14.878-2.642-22.276a12.415,12.415,0,0,1,2.848-6.055,6.449,6.449,0,0,1,6.127-2.033c2.58.681,4.183,3.216,5.374,5.625A53.071,53.071,0,0,1,423.226,288c0,3.672-.421,7.515-2.49,10.543" transform="translate(-131.553 -70.824)" fill="#ebebeb"/>
      <path id="Trazado_117814" data-name="Trazado 117814" d="M430.516,305.36c-2.857-3.4-3.4-8.357-2.132-12.612s4.156-7.882,7.47-10.838a40.254,40.254,0,0,1,13.373-7.891A14.233,14.233,0,0,1,455.247,273a6.324,6.324,0,0,1,5.052,3.054c1.406,2.687.054,5.939-1.406,8.6a101.49,101.49,0,0,1-8.787,13.373c-2.633,3.395-5.643,6.745-9.656,8.285s-8.187,1.353-10.31-1.433" transform="translate(-134.123 -72.234)" fill="#ebebeb"/>
      <path id="Trazado_117815" data-name="Trazado 117815" d="M420.708,362.5a7.639,7.639,0,0,1-.242-1.711c-.125-1.245-.269-2.813-.457-4.676a66.973,66.973,0,0,0-1.048-6.852,53.173,53.173,0,0,0-2.49-8.061,29.988,29.988,0,0,0-4.129-7.318,15.4,15.4,0,0,0-5.222-4.344,14.869,14.869,0,0,0-4.4-1.37,8.337,8.337,0,0,1-1.7-.242,7.21,7.21,0,0,1,1.738,0,13.382,13.382,0,0,1,4.586,1.191,15.29,15.29,0,0,1,5.5,4.38,29.047,29.047,0,0,1,4.282,7.461,49.525,49.525,0,0,1,2.472,8.223,57.059,57.059,0,0,1,.9,6.933c.143,1.988.206,3.583.233,4.7a9.035,9.035,0,0,1-.018,1.684Z" transform="translate(-131.337 -77.958)" fill="#e0e0e0"/>
      <path id="Trazado_117816" data-name="Trazado 117816" d="M421.582,353.522a2.82,2.82,0,0,1-.045-.788v-2.275c0-1.971,0-4.819-.1-8.339-.17-7.049-.779-14.627-1.953-25.313-1.111-10.05-2.6-21.748-4.165-29.353-.34-1.729-.681-3.287-1-4.649s-.564-2.544-.815-3.493-.385-1.63-.528-2.212a2.8,2.8,0,0,1-.134-.779,3.585,3.585,0,0,1,.269.743c.179.573.394,1.29.663,2.177s.591,2.114.9,3.475.734,2.911,1.1,4.631a257.156,257.156,0,0,1,4.38,27.2c1.182,10.749,1.711,20.458,1.791,27.525,0,3.529,0,6.386-.125,8.357-.054.9-.1,1.675-.143,2.266a3.778,3.778,0,0,1-.09.824Z" transform="translate(-132.57 -72.582)" fill="#e0e0e0"/>
      <path id="Trazado_117817" data-name="Trazado 117817" d="M422.535,335.389a16.649,16.649,0,0,1,0-2.374c.09-1.523.3-3.726.725-6.431a84.623,84.623,0,0,1,2.1-9.36,76.285,76.285,0,0,1,3.914-11.08,58.965,58.965,0,0,1,11.5-17.914,28.036,28.036,0,0,1,2.687-2.517c.412-.349.779-.7,1.155-.976l1.048-.726a15.282,15.282,0,0,1,2-1.281c.116.152-2.83,1.89-6.548,5.84A62.378,62.378,0,0,0,429.9,306.413a87.846,87.846,0,0,0-3.932,10.981c-1.03,3.44-1.711,6.6-2.23,9.271s-.77,4.855-.94,6.36a14.584,14.584,0,0,1-.26,2.365Z" transform="translate(-133.576 -73.251)" fill="#e0e0e0"/>
      <path id="Trazado_117818" data-name="Trazado 117818" d="M438.539,378.56l-1.881,25.815H403.481L401.6,378.56Z" transform="translate(-131.398 -83.244)" fill="#e0e0e0"/>
      <rect id="Rectángulo_29491" data-name="Rectángulo 29491" width="44.105" height="10.175" transform="translate(266.243 285.141)" fill="#e0e0e0"/>
      <path id="Trazado_117819" data-name="Trazado 117819" d="M441.371,406.28V409.1H398V406.28Z" transform="translate(-131.022 -86.135)" fill="#ebebeb"/>
      <path id="Trazado_117820" data-name="Trazado 117820" d="M437.452,414.392l2.024-4.962H399.76l2.365,4.962Z" transform="translate(-131.206 -86.463)" fill="#e0e0e0"/>
      <path id="Trazado_117821" data-name="Trazado 117821" d="M402.29,387.579a1.341,1.341,0,0,0,.152.233l.493.663,1.935,2.472.09.107.081-.116c1.218-1.675,2.839-3.923,4.747-6.566h-.269l4.667,6.619.152.206.161-.2,5.544-6.592h-.322l.3.376L424.988,391l.161.206.152-.215,4.676-6.61h-.269c2.3,2.624,4.255,4.855,5.759,6.557l.1.125.081-.134,1.791-3.028c.188-.331.34-.6.466-.806a1.148,1.148,0,0,0,.134-.3s-.072.09-.188.26l-.511.779c-.466.717-1.1,1.72-1.9,2.974h.188l-5.67-6.637L429.8,384l-.125.179-4.72,6.584h.367l-4.944-6.216c-.1-.134-.206-.269-.3-.385l-.152-.2-.161.2-5.536,6.6h.314l-4.72-6.592-.134-.188-.134.188L404.9,390.8h.17l-2.015-2.409-.537-.627A1.194,1.194,0,0,0,402.29,387.579Z" transform="translate(-131.47 -83.807)" fill="#f5f5f5"/>
      <path id="Trazado_117822" data-name="Trazado 117822" d="M401.09,378.346c0,.107,8.3.206,18.559.206s18.559-.1,18.559-.206-8.3-.206-18.559-.206S401.09,378.23,401.09,378.346Z" transform="translate(-131.345 -83.2)" fill="#f5f5f5"/>
      <path id="Trazado_117823" data-name="Trazado 117823" d="M399.21,409.716c0,.116,9.038.206,20.181.206s20.172-.09,20.172-.206-9.029-.206-20.172-.206S399.21,409.6,399.21,409.716Z" transform="translate(-131.148 -86.472)" fill="#f5f5f5"/>
      <path id="Trazado_117824" data-name="Trazado 117824" d="M99.94,416.862c23.065,27.221,57.38,43.675,92.725,48.548s67.465,3,100.9-9.423c9.235-3.422,20.6-10.892,30.338-17.655a40.039,40.039,0,0,0,16.23-23.943Z" transform="translate(-99.94 -86.98)" fill="#ebebeb"/>
    </g>
    <g id="freepik--Floor--inject-5" transform="translate(37.9 374.724)">
      <path id="Trazado_117825" data-name="Trazado 117825" d="M414.281,414.973c0,.134-84.26.233-188.181.233s-188.2-.125-188.2-.233,84.2-.233,188.2-.233S414.281,414.821,414.281,414.973Z" transform="translate(-37.9 -414.74)" fill="#263238"/>
    </g>
    <g id="freepik--Screen--inject-5" transform="translate(42.585 31.009)">
      <path id="Trazado_117826" data-name="Trazado 117826" d="M149.251,31.12H131.784a3.807,3.807,0,0,0-3.655,2.741l-1.433,4.9a4.255,4.255,0,0,1-4.093,3.063H83.908a4.273,4.273,0,0,1-4.1-3.054l-1.424-4.9a3.825,3.825,0,0,0-3.663-2.732H57.252a13.875,13.875,0,0,0-13.9,13.875l.116,276.051a13.866,13.866,0,0,0,13.9,13.83l91.99-.045A13.875,13.875,0,0,0,163.26,321L163.143,44.95a13.875,13.875,0,0,0-13.893-13.83Z" transform="translate(-43.153 -31.02)" fill="#fff"/>
      <path id="Trazado_117827" data-name="Trazado 117827" d="M57.284,65.713a.233.233,0,0,1-.17-.063L54.32,63.259a.26.26,0,0,1-.09-.2.251.251,0,0,1,.09-.2l2.9-2.544a.26.26,0,0,1,.367,0,.251.251,0,0,1,0,.367L54.9,63.035l2.562,2.186a.269.269,0,0,1,0,.376A.251.251,0,0,1,57.284,65.713Z" transform="translate(-44.288 -34.058)" fill="#263238"/>
      <path id="Trazado_117828" data-name="Trazado 117828" d="M163.381,194.139H43.22l.134-93.011,119.91-.107Z" transform="translate(-43.139 -38.31)" fill="#fafafa"/>
      <circle id="Elipse_4111" data-name="Elipse 4111" cx="0.949" cy="0.949" r="0.949" transform="translate(109.385 47.761)" fill="#263238"/>
      <circle id="Elipse_4112" data-name="Elipse 4112" cx="0.949" cy="0.949" r="0.949" transform="translate(109.385 51.03)" fill="#263238"/>
      <circle id="Elipse_4113" data-name="Elipse 4113" cx="0.949" cy="0.949" r="0.949" transform="translate(109.385 54.29)" fill="#263238"/>
      <path id="Trazado_117829" data-name="Trazado 117829" d="M133.356,64.251c0,.134-10.856.242-24.238.242s-24.238-.107-24.238-.242S95.736,64,109.172,64,133.356,64.125,133.356,64.251Z" transform="translate(-47.484 -34.449)" fill="#263238"/>
      <path id="Trazado_117830" data-name="Trazado 117830" d="M54.374,225.062s2.92-2.687,3.457-3.314c1.4-1.648,1.075-3.583-.69-4.058a2.965,2.965,0,0,0-2.92.9h-.054a2.965,2.965,0,0,0-2.92-.9c-1.791.475-2.087,2.41-.681,4.058.528.627,3.511,3.314,3.511,3.314l.188.143Z" transform="translate(-43.813 -50.467)" fill="#7e57c2"/>
      <path id="Trazado_117831" data-name="Trazado 117831" d="M75.3,225.43l-2.49-.672a3.968,3.968,0,0,1-2.06.573,4.031,4.031,0,1,1,3.69-2.427Zm-4.55-7.685a3.583,3.583,0,1,0,1.908,6.61l.26-.17v.179l1.639.439-.645-1.89v-.081a3.583,3.583,0,0,0-3.243-5.061Z" transform="translate(-45.589 -50.433)" fill="#263238"/>
      <path id="Trazado_117832" data-name="Trazado 117832" d="M87.838,225.766l-.967-4.649-3.69-3.144,9.441-.233ZM84.362,218.4l2.911,2.472.761,3.672,3.789-6.324Z" transform="translate(-47.306 -50.482)" fill="#263238"/>
      <rect id="Rectángulo_29492" data-name="Rectángulo 29492" width="6.055" height="0.448" transform="matrix(0.855, -0.519, 0.519, 0.855, 39.684, 170.44)" fill="#263238"/>
      <path id="Trazado_117833" data-name="Trazado 117833" d="M163.19,226.308V217.44h7.166v8.868l-3.583-3.117Zm3.583-3.708,3.144,2.687v-7.434h-6.27v7.434Z" transform="translate(-55.65 -50.45)" fill="#263238"/>
      <path id="Trazado_117834" data-name="Trazado 117834" d="M54.374,354.131s2.92-2.687,3.457-3.314c1.4-1.648,1.075-3.583-.69-4.067a2.983,2.983,0,0,0-2.92.9v.045l-.054-.045a2.983,2.983,0,0,0-2.92-.9c-1.791.484-2.087,2.418-.681,4.067.528.627,3.511,3.314,3.511,3.314l.188.143Z" transform="translate(-43.813 -63.926)" fill="#7e57c2"/>
      <path id="Trazado_117835" data-name="Trazado 117835" d="M75.3,354.522l-2.49-.672a3.968,3.968,0,0,1-2.06.573,4.022,4.022,0,1,1,4.022-4.022A4.1,4.1,0,0,1,74.442,352Zm-4.55-7.694a3.583,3.583,0,1,0,1.908,6.592l.26-.17v.179l1.639.439-.645-1.89V351.9a3.637,3.637,0,0,0,.331-1.5,3.583,3.583,0,0,0-3.493-3.574Z" transform="translate(-45.591 -63.896)" fill="#263238"/>
      <path id="Trazado_117836" data-name="Trazado 117836" d="M87.838,354.849l-.967-4.64-3.69-3.135,9.441-.224Zm-3.475-7.354,2.911,2.472.761,3.672,3.789-6.324Z" transform="translate(-47.306 -63.945)" fill="#263238"/>
      <rect id="Rectángulo_29493" data-name="Rectángulo 29493" width="6.055" height="0.448" transform="matrix(0.855, -0.519, 0.519, 0.855, 39.69, 286.065)" fill="#263238"/>
      <path id="Trazado_117837" data-name="Trazado 117837" d="M163.19,355.389V346.53h7.166v8.859l-3.583-3.108Zm3.583-3.7,3.144,2.687v-7.426h-6.27v7.434Z" transform="translate(-55.65 -63.912)" fill="#263238"/>
      <path id="Trazado_117838" data-name="Trazado 117838" d="M157.11,241.973c0,.125-23.969.233-53.537.233S50,242.134,50,241.973s23.96-.233,53.537-.233S157.11,241.874,157.11,241.973Z" transform="translate(-43.846 -52.984)" fill="#263238"/>
      <path id="Trazado_117839" data-name="Trazado 117839" d="M98.906,247.043c0,.125-10.946.233-24.435.233S50,247.168,50,247.043s10.937-.233,24.435-.233S98.906,246.909,98.906,247.043Z" transform="translate(-43.846 -53.513)" fill="#263238"/>
      <path id="Trazado_117840" data-name="Trazado 117840" d="M74.471,235.183c0,.125-5.473.233-12.218.233S50,235.308,50,235.183s5.464-.233,12.218-.233S74.471,235.049,74.471,235.183Z" transform="translate(-43.846 -52.276)" fill="#263238"/>
      <path id="Trazado_117841" data-name="Trazado 117841" d="M62.638,88.444a4.765,4.765,0,1,1-1.393-3.375,4.774,4.774,0,0,1,1.393,3.375Z" transform="translate(-44.169 -36.5)" fill="#455a64"/>
      <path id="Trazado_117842" data-name="Trazado 117842" d="M113.375,90.073c0,.125-8.894.233-19.858.233S73.65,90.2,73.65,90.073s8.894-.233,19.867-.233S113.375,89.983,113.375,90.073Z" transform="translate(-46.313 -37.144)" fill="#263238"/>
      <circle id="Elipse_4114" data-name="Elipse 4114" cx="0.949" cy="0.949" r="0.949" transform="translate(107.764 207.36)" fill="#263238"/>
      <circle id="Elipse_4115" data-name="Elipse 4115" cx="0.949" cy="0.949" r="0.949" transform="translate(107.764 210.629)" fill="#263238"/>
      <circle id="Elipse_4116" data-name="Elipse 4116" cx="0.949" cy="0.949" r="0.949" transform="translate(107.764 213.889)" fill="#263238"/>
      <path id="Trazado_117843" data-name="Trazado 117843" d="M62.638,265.6a4.765,4.765,0,1,1-1.393-3.375,4.774,4.774,0,0,1,1.393,3.375Z" transform="translate(-44.169 -54.975)" fill="#455a64"/>
      <path id="Trazado_117844" data-name="Trazado 117844" d="M113.375,267.2c0,.125-8.894.233-19.858.233s-19.867-.107-19.867-.233,8.868-.2,19.84-.2S113.375,267.072,113.375,267.2Z" transform="translate(-46.313 -55.619)" fill="#263238"/>
      <path id="Trazado_117845" data-name="Trazado 117845" d="M163.256,255.213c0,.125-26.872.233-59.924.233s-59.932-.107-59.932-.233,26.827-.233,59.932-.233S163.256,255.087,163.256,255.213Z" transform="translate(-43.158 -54.365)" fill="#e0e0e0"/>
      <path id="Trazado_117846" data-name="Trazado 117846" d="M43.13,198.718l4.989-12.3,13.937-10.292L79.093,147.94l14.887.394,20.252,17.547,12.639-1.809,17.252,6.019,19.133,28.573Z" transform="translate(-43.13 -43.203)" fill="#ebebeb"/>
      <circle id="Elipse_4117" data-name="Elipse 4117" cx="20.691" cy="20.691" r="20.691" transform="translate(53.304 107.372) rotate(-76.85)" fill="#ebebeb"/>
      <path id="Trazado_117847" data-name="Trazado 117847" d="M142.515,127.125a5.831,5.831,0,0,0-4.389-2.822,4.38,4.38,0,0,0-3.914,1.344,7.417,7.417,0,0,0-1.854,3.834,7.336,7.336,0,0,0,.376,4.479,5.652,5.652,0,0,0,5.374,3.1,6.136,6.136,0,0,0,5.079-3.681A6.574,6.574,0,0,0,142.515,127.125Z" transform="translate(-52.415 -40.732)" fill="#e0e0e0"/>
      <path id="Trazado_117848" data-name="Trazado 117848" d="M140.479,142.861a2.938,2.938,0,0,0-3.028-1.164h.081c-.806-.107-1.523,1.191-1.532,2.015a2.177,2.177,0,0,0,1.361,1.881,2.5,2.5,0,0,0,2.553-.287A2.051,2.051,0,0,0,140.479,142.861Z" transform="translate(-52.815 -42.548)" fill="#e0e0e0"/>
      <path id="Trazado_117849" data-name="Trazado 117849" d="M115.148,132.864a2.992,2.992,0,0,0-1.881-2.338,2.275,2.275,0,0,0-2.687,1.021l.054-.107a5.59,5.59,0,0,0-.958,2.159,3.583,3.583,0,0,0,.251,2.562,2.49,2.49,0,0,0,2.123,1.335,3.117,3.117,0,0,0,2.436-1.621,4.371,4.371,0,0,0,.663-3.01Z" transform="translate(-50.056 -41.375)" fill="#e0e0e0"/>
      <path id="Trazado_117850" data-name="Trazado 117850" d="M132.117,112.809c0,.152-1.487-.143-3.825-.09a19.858,19.858,0,0,0-15.657,7.99c-1.415,1.863-2.033,3.216-2.168,3.153s.3-1.5,1.621-3.538a17.824,17.824,0,0,1,2.741-3.26,19.2,19.2,0,0,1,4.273-3.019,18.684,18.684,0,0,1,4.944-1.684,17.816,17.816,0,0,1,4.246-.314C130.728,112.173,132.144,112.711,132.117,112.809Z" transform="translate(-50.15 -39.458)" fill="#f5f5f5"/>
      <path id="Trazado_117851" data-name="Trazado 117851" d="M138.217,151.984a3.273,3.273,0,0,1-1.129.609,17.781,17.781,0,0,1-3.341.985,21.112,21.112,0,0,1-5.159.385,21.641,21.641,0,0,1-6.27-1.209,21.954,21.954,0,0,1-5.616-2.983,21.443,21.443,0,0,1-3.771-3.583,18.452,18.452,0,0,1-1.98-2.866c-.385-.726-.546-1.155-.493-1.182s1.021,1.5,2.974,3.583a24.319,24.319,0,0,0,3.78,3.287,23.36,23.36,0,0,0,5.374,2.8,23.666,23.666,0,0,0,5.974,1.227,24.006,24.006,0,0,0,5.007-.179C136.479,152.512,138.163,151.867,138.217,151.984Z" transform="translate(-50.15 -42.598)" fill="#f5f5f5"/>
      <path id="Trazado_117852" data-name="Trazado 117852" d="M92.23,172.58c0,.161-3.019,9.674-3.019,9.674l1.514-1.532-2.177,6.655,1.433-2-1.693,8.339.824-.9-1.433,5.885,1.227-1.532-1.227,4.443H97.4l-2.3-8.957,1.4,1.532L94.7,188.157l.9.511-2.1-7.784.976.672Z" transform="translate(-47.776 -45.772)" fill="#455a64"/>
      <path id="Trazado_117853" data-name="Trazado 117853" d="M124.887,172.58c0,.161-3.028,9.674-3.028,9.674l1.514-1.532-2.177,6.655,1.433-2-1.7,8.339.815-.9-1.433,5.885,1.227-1.532-1.209,4.443h9.728l-2.311-8.957,1.4,1.532-1.791-6.037.9.511-2.1-7.784.976.672Z" transform="translate(-51.178 -45.772)" fill="#455a64"/>
      <path id="Trazado_117854" data-name="Trazado 117854" d="M138.24,172.58c0,.161-3.019,9.674-3.019,9.674l1.514-1.532-2.177,6.655,1.433-2-1.693,8.339.824-.9-1.433,5.885,1.227-1.532-1.227,4.443h9.719l-2.3-8.957,1.388,1.532-1.791-6.037.9.511-2.1-7.784.976.672Z" transform="translate(-52.574 -45.772)" fill="#455a64"/>
      <path id="Trazado_117855" data-name="Trazado 117855" d="M143.916,181.57c0,.116-2.186,7-2.186,7l1.093-1.111-1.576,4.81,1.039-1.442-1.218,6.019.591-.627-1.039,4.255.9-1.111-.9,3.18h7.022l-1.657-6.5,1,1.1-1.3-4.362.663.376-1.514-5.625.7.484Z" transform="translate(-53.296 -46.71)" fill="#455a64"/>
      <path id="Trazado_117856" data-name="Trazado 117856" d="M83.108,186c0,.09-1.791,5.679-1.791,5.679l.9-.9-1.272,3.861.842-1.173-.994,4.9.484-.511-.842,3.457.726-.9-.726,2.6h5.715l-1.353-5.294.815.9-1.057-3.583.537.3-1.227-4.577.573.394Z" transform="translate(-47.02 -47.172)" fill="#455a64"/>
      <path id="Trazado_117857" data-name="Trazado 117857" d="M99.084,166.92c0,.179-3.583,11.358-3.583,11.358l1.791-1.791-2.553,7.82,1.684-2.347-1.988,9.8.958-1.021-1.684,6.915,1.451-1.791-1.433,5.168h11.429l-2.687-10.578,1.63,1.791-2.114-7.094,1.084.6-2.463-9.145,1.138.788Z" transform="translate(-48.405 -45.182)" fill="#455a64"/>
      <path id="Trazado_117858" data-name="Trazado 117858" d="M108.605,166.92c0,.179-3.583,11.358-3.583,11.358l1.791-1.791-2.553,7.82,1.684-2.347-1.98,9.8.958-1.021-1.684,6.915,1.442-1.791-1.424,5.168h11.411l-2.687-10.578,1.639,1.791-2.114-7.094,1.084.6-2.472-9.145,1.147.788Z" transform="translate(-49.398 -45.182)" fill="#455a64"/>
      <path id="Trazado_117859" data-name="Trazado 117859" d="M129.374,166.92c0,.179-3.583,11.358-3.583,11.358l1.791-1.791-2.562,7.82,1.666-2.356-1.98,9.8.958-1.021L124,197.643l1.442-1.791L124,201.029h11.429l-2.687-10.578,1.63,1.791-2.114-7.094,1.084.6-2.463-9.145,1.138.788Z" transform="translate(-51.563 -45.182)" fill="#455a64"/>
      <path id="Trazado_117860" data-name="Trazado 117860" d="M118.006,157c0,.224-4.479,14.331-4.479,14.331l2.23-2.275-3.216,9.853,2.114-2.947-2.481,12.388,1.218-1.29-2.123,8.715,1.791-2.275-1.791,6.512h14.385l-3.4-13.328,2.06,2.275L121.624,180l1.37.752-3.108-11.51,1.433.985Z" transform="translate(-50.236 -44.147)" fill="#455a64"/>
      <path id="Trazado_117861" data-name="Trazado 117861" d="M160.94,172.85c0,.161-3.019,9.674-3.019,9.674l1.514-1.532-2.177,6.655,1.433-2L157,193.989l.824-.9-1.433,5.885,1.227-1.532-1.164,4.156,9.62.081-2.266-8.841,1.4,1.532-1.791-6.037.9.511-2.1-7.784.976.672Z" transform="translate(-54.941 -45.8)" fill="#455a64"/>
      <path id="Trazado_117862" data-name="Trazado 117862" d="M168.266,167.24c0,.179-3.583,11.367-3.583,11.367l1.791-1.791-2.553,7.811,1.684-2.338-1.971,9.817.958-1.021L162.91,198l1.442-1.791-1.361,4.855,11.313.17-2.687-10.462,1.63,1.791-2.114-7.1,1.084.609-2.472-9.145,1.147.779Z" transform="translate(-55.621 -45.215)" fill="#455a64"/>
      <path id="Trazado_117863" data-name="Trazado 117863" d="M51.4,172.85c0,.161-3.019,9.674-3.019,9.674l1.514-1.532-2.177,6.655,1.433-2-1.684,8.339.815-.9-1.433,5.885,1.227-1.532-1.227,4.4h9.727l-2.311-8.975,1.4,1.532-1.791-6.037.9.511-2.1-7.784.976.672Z" transform="translate(-43.518 -45.8)" fill="#455a64"/>
      <path id="Trazado_117864" data-name="Trazado 117864" d="M58.726,167.24c0,.179-3.583,11.367-3.583,11.367l1.791-1.791-2.562,7.811,1.7-2.374-1.98,9.853.958-1.021L53.37,198l1.442-1.791-1.442,5.177,11.313-.322-2.624-10.292,1.63,1.791-2.114-7.1,1.084.609L60.2,176.923l1.138.779Z" transform="translate(-44.198 -45.215)" fill="#455a64"/>
      <path id="Trazado_117865" data-name="Trazado 117865" d="M151.115,157c0,.224-4.479,14.331-4.479,14.331l2.23-2.275-3.216,9.853,2.123-2.947-2.5,12.388,1.218-1.29-2.123,8.715,1.791-2.275-1.791,6.512h14.394l-3.413-13.328,2.06,2.275L154.725,180l1.37.752L153,169.227l1.442.985Z" transform="translate(-53.688 -44.147)" fill="#455a64"/>
      <path id="Trazado_117866" data-name="Trazado 117866" d="M60.434,114.045l.806.3-.788.3a.824.824,0,0,0-.493.5l-.26.743-.251-.734a.9.9,0,0,0-.5-.52l-.8-.287.779-.287a.9.9,0,0,0,.511-.511l.26-.752.233.726A.9.9,0,0,0,60.434,114.045Z" transform="translate(-44.696 -39.538)" fill="#e0e0e0"/>
      <path id="Trazado_117867" data-name="Trazado 117867" d="M165.145,121.945l.806.3-.779.3a.824.824,0,0,0-.493.5l-.269.743-.251-.734a.824.824,0,0,0-.5-.52l-.788-.287.779-.287a.9.9,0,0,0,.5-.511l.26-.752.242.726a.833.833,0,0,0,.493.52Z" transform="translate(-55.617 -40.362)" fill="#e0e0e0"/>
      <path id="Trazado_117868" data-name="Trazado 117868" d="M58.735,166.755l.806.3-.779.3a.824.824,0,0,0-.493.5L58,168.6l-.251-.734a.824.824,0,0,0-.5-.52l-.788-.287.779-.287a.9.9,0,0,0,.5-.511l.26-.752.242.726a.9.9,0,0,0,.493.52Z" transform="translate(-44.52 -45.035)" fill="#e0e0e0"/>
      <path id="Trazado_117869" data-name="Trazado 117869" d="M56.728,141.927l.4.152-.394.143a.421.421,0,0,0-.242.251l-.134.376-.125-.367a.448.448,0,0,0-.251-.26l-.394-.143.367-.152a.4.4,0,0,0,.251-.26l.134-.367.116.358A.421.421,0,0,0,56.728,141.927Z" transform="translate(-44.429 -42.51)" fill="#e0e0e0"/>
      <path id="Trazado_117870" data-name="Trazado 117870" d="M88.7,131.177l.4.152-.394.143a.43.43,0,0,0-.251.251l-.134.376-.116-.367a.412.412,0,0,0-.26-.26l-.394-.143.394-.143a.448.448,0,0,0,.251-.26l.125-.376.125.367a.4.4,0,0,0,.251.26Z" transform="translate(-47.762 -41.389)" fill="#e0e0e0"/>
      <path id="Trazado_117871" data-name="Trazado 117871" d="M94.017,112.558l.4.152-.394.152a.43.43,0,0,0-.251.251l-.134.367-.116-.367a.4.4,0,0,0-.26-.251l-.394-.152.394-.143a.43.43,0,0,0,.251-.251l.125-.376.125.358A.385.385,0,0,0,94.017,112.558Z" transform="translate(-48.317 -39.449)" fill="#e0e0e0"/>
      <path id="Trazado_117872" data-name="Trazado 117872" d="M164.578,156.8l.4.152-.394.143a.421.421,0,0,0-.242.251l-.134.376-.125-.367a.4.4,0,0,0-.251-.26l-.394-.143.394-.143a.448.448,0,0,0,.251-.26l.125-.367.116.358A.448.448,0,0,0,164.578,156.8Z" transform="translate(-55.676 -44.062)" fill="#e0e0e0"/>
      <path id="Trazado_117873" data-name="Trazado 117873" d="M163.391,331.124H43.23l.134-52.982,119.91-.063Z" transform="translate(-43.14 -56.774)" fill="#f5f5f5"/>
      <path id="Trazado_117874" data-name="Trazado 117874" d="M129.373,318.916c0,.09-2.911.287-6.512.439a64.721,64.721,0,0,1-6.521.125c0-.09,2.911-.287,6.512-.448a63.019,63.019,0,0,1,6.521-.116Z" transform="translate(-50.764 -61.029)" fill="#fff"/>
      <path id="Trazado_117875" data-name="Trazado 117875" d="M95.161,291.561c.564-3.135,1.317-6.351,3.251-8.886s5.374-4.192,8.357-3.171l3.717,2.15a113.819,113.819,0,0,1-5.249,25.456,5.437,5.437,0,0,1-1.155,2.248c-1.209,1.227-3.171,1.111-4.873.9-2.06-.233-4.479-.708-5.374-2.589a6.028,6.028,0,0,1-.322-2.938,114.214,114.214,0,0,1,1.648-13.167Z" transform="translate(-48.378 -56.891)" fill="#263238"/>
      <path id="Trazado_117876" data-name="Trazado 117876" d="M116.452,286.33,105,282.532c-3.708-.672-6.53,3.753-7.04,7.488a66.976,66.976,0,0,0-.824,12.379c.537,6.324,5.267,7.461,5.267,7.461a15.362,15.362,0,0,0-.367,4.765c.3,4.308,3.072,5.419,5.374,5.58h0c3.583.376,7.336-.761,7.748-4.344l3.126-27.158A2.2,2.2,0,0,0,116.452,286.33Z" transform="translate(-48.754 -57.231)" fill="#ffbe9d"/>
      <path id="Trazado_117877" data-name="Trazado 117877" d="M100.529,296.8a.806.806,0,0,0,.708.9.779.779,0,0,0,.9-.663.806.806,0,0,0-.717-.9.77.77,0,0,0-.887.663Z" transform="translate(-49.115 -58.656)" fill="#263238"/>
      <path id="Trazado_117878" data-name="Trazado 117878" d="M99.439,294.445c.1.116.734-.287,1.594-.224s1.469.546,1.568.448,0-.242-.3-.466a2.248,2.248,0,0,0-1.245-.484,2.1,2.1,0,0,0-1.281.313C99.5,294.212,99.394,294.4,99.439,294.445Z" transform="translate(-49.001 -58.404)" fill="#263238"/>
      <path id="Trazado_117879" data-name="Trazado 117879" d="M109.759,297.482a.806.806,0,0,0,.717.9.77.77,0,0,0,.9-.663.806.806,0,0,0-.717-.9.77.77,0,0,0-.9.663Z" transform="translate(-50.078 -58.727)" fill="#263238"/>
      <path id="Trazado_117880" data-name="Trazado 117880" d="M109.068,295.424c.09.107.734-.3,1.594-.233s1.46.546,1.568.448,0-.242-.3-.457a2.194,2.194,0,0,0-1.236-.493,2.149,2.149,0,0,0-1.281.314C109.131,295.191,109.005,295.37,109.068,295.424Z" transform="translate(-50.005 -58.505)" fill="#263238"/>
      <path id="Trazado_117881" data-name="Trazado 117881" d="M104.671,300.9a5.824,5.824,0,0,0-1.379-.349c-.224,0-.43-.1-.457-.251a1.182,1.182,0,0,1,.2-.645l.779-1.63a29.726,29.726,0,0,0,1.791-4.282,28.092,28.092,0,0,0-2.123,4.129c-.269.573-.511,1.12-.752,1.639a1.308,1.308,0,0,0-.179.9.591.591,0,0,0,.34.349,1.675,1.675,0,0,0,.376.081,5.267,5.267,0,0,0,1.406.063Z" transform="translate(-49.325 -58.407)" fill="#263238"/>
      <path id="Trazado_117882" data-name="Trazado 117882" d="M102.993,312.864a16.848,16.848,0,0,0,8.894-1.594s-2.786,4.219-8.957,3.18Z" transform="translate(-49.366 -60.235)" fill="#eb996e"/>
      <path id="Trazado_117883" data-name="Trazado 117883" d="M108.6,292.478c.072.242.941.2,1.944.394s1.791.528,1.953.331-.063-.331-.376-.582a3.413,3.413,0,0,0-2.965-.546C108.779,292.191,108.573,292.371,108.6,292.478Z" transform="translate(-49.957 -58.22)" fill="#263238"/>
      <path id="Trazado_117884" data-name="Trazado 117884" d="M99.387,291.571c.17.215.9.063,1.791.116s1.63.251,1.791.063,0-.3-.34-.511a3.162,3.162,0,0,0-2.92-.143C99.423,291.275,99.306,291.472,99.387,291.571Z" transform="translate(-48.994 -58.101)" fill="#263238"/>
      <path id="Trazado_117885" data-name="Trazado 117885" d="M104.555,283.765a9.754,9.754,0,0,0,1.791,2.114l3.153,3.108a25.978,25.978,0,0,0,2.329,2.114,26.871,26.871,0,0,0,2.338,1.532c.833.5,1.263,1.791,2.087,2.3.188.107.8,0,.994.188,0,1.4-.054,5.849-.072,7.632,0,2.795-1.021,10.247-1.021,10.247h2.383a6.04,6.04,0,0,0,4.228-4.282,45.024,45.024,0,0,0,.385-5.544c.3-3.637-.412-7.318-.654-10.955a15,15,0,0,0-.717-4.335,11.734,11.734,0,0,0-3.861-4.819,15.944,15.944,0,0,0-6.27-3.287,8.957,8.957,0,0,0-6.9,1.075,1.46,1.46,0,0,0-.7.824C103.686,282.555,104.1,282.958,104.555,283.765Zm12.728,11.411C117.373,295.346,117.283,295.785,117.283,295.176Z" transform="translate(-49.468 -56.923)" fill="#263238"/>
      <path id="Trazado_117886" data-name="Trazado 117886" d="M118.33,298.686a1.791,1.791,0,0,1,2.777-1.37,2.535,2.535,0,0,1,.9,2.589c-.421,3.762-4.111,2.562-4.1,2.454S118.142,300.235,118.33,298.686Z" transform="translate(-50.927 -58.749)" fill="#ffbe9d"/>
      <path id="Trazado_117887" data-name="Trazado 117887" d="M119.349,301.193a1.554,1.554,0,0,0,.161.116.7.7,0,0,0,.493.072,1.657,1.657,0,0,0,.9-1.37,2.248,2.248,0,0,0-.081-.958.743.743,0,0,0-.439-.555.331.331,0,0,0-.4.134c-.063.1,0,.179-.072.179s-.072-.072,0-.224a.376.376,0,0,1,.17-.215.484.484,0,0,1,.376-.054.9.9,0,0,1,.618.654,2.23,2.23,0,0,1,.107,1.075,1.7,1.7,0,0,1-1.138,1.514.717.717,0,0,1-.591-.17C119.349,301.292,119.331,301.2,119.349,301.193Z" transform="translate(-51.078 -58.883)" fill="#eb996e"/>
      <path id="Trazado_117888" data-name="Trazado 117888" d="M120.468,303.367a.743.743,0,0,1-1.478-.107.752.752,0,0,1,.8-.69.734.734,0,0,1,.681.8Z" transform="translate(-51.041 -59.328)" fill="#263238"/>
      <path id="Trazado_117889" data-name="Trazado 117889" d="M107.112,303.673a1.72,1.72,0,0,1-1.048,2.624,1.057,1.057,0,0,1-.645,0,1.469,1.469,0,0,1-.627-.94l-.3-.9a.448.448,0,0,1,0-.322.412.412,0,0,1,.3-.143l2.257-.385" transform="translate(-49.526 -59.436)" fill="#eb996e"/>
      <path id="Trazado_117890" data-name="Trazado 117890" d="M105.447,306.127a1.908,1.908,0,0,0,1.021-.054,1.6,1.6,0,0,0,.9-.654,1.272,1.272,0,0,0,.179-.681,2.06,2.06,0,0,0-.125-.725,1.792,1.792,0,0,0-.376-.609l-.054-.054h-.081c-1.5.412-2.687.6-2.687.663a9.039,9.039,0,0,0,2.741-.412h-.134a1.585,1.585,0,0,1,.322.528,1.406,1.406,0,0,1,0,1.173,1.451,1.451,0,0,1-.779.609C105.814,306.082,105.438,306.082,105.447,306.127Z" transform="translate(-49.501 -59.409)" fill="#263238"/>
      <path id="Trazado_117891" data-name="Trazado 117891" d="M113.479,286.316a21.945,21.945,0,0,1,5.9,6.27l-1.988,3.466c-3.449-.331-3.861-.681-6.27-3.153s-7.264-7.381-7.533-10.829A33.742,33.742,0,0,1,113.479,286.316Z" transform="translate(-49.435 -57.19)" fill="#263238"/>
      <path id="Trazado_117892" data-name="Trazado 117892" d="M119.214,313.149a1.954,1.954,0,0,1,.17-.358c.116-.233.287-.573.5-1.021a25.979,25.979,0,0,0,1.478-3.878,24.963,24.963,0,0,0,.994-6.055,17.107,17.107,0,0,0-.188-3.583,6.342,6.342,0,0,0-1.666-3.386,12.192,12.192,0,0,0-3.242-2.078A25.3,25.3,0,0,1,114.073,291a23.046,23.046,0,0,1-4.6-4.147,25.123,25.123,0,0,1-2.454-3.386c-.26-.421-.448-.752-.573-.985a2.6,2.6,0,0,1-.17-.349,1.594,1.594,0,0,1,.224.322c.134.224.34.546.609.949a29.233,29.233,0,0,0,2.517,3.305,23.611,23.611,0,0,0,4.6,4.067,24.192,24.192,0,0,0,3.162,1.791,12.02,12.02,0,0,1,3.332,2.132,6.6,6.6,0,0,1,1.738,3.583,15.952,15.952,0,0,1,.17,3.664,24.66,24.66,0,0,1-1.057,6.109,23.7,23.7,0,0,1-1.576,3.869c-.233.439-.421.77-.555.994a1.919,1.919,0,0,1-.224.233Z" transform="translate(-49.715 -57.196)" fill="#455a64"/>
      <path id="Trazado_117893" data-name="Trazado 117893" d="M94.789,309.247a1.326,1.326,0,0,1,0-.322q0-.358,0-.9c0-.788.072-1.935.143-3.359.152-2.83.394-6.745.985-11.035a28.573,28.573,0,0,1,1.3-5.974,11.1,11.1,0,0,1,2.624-4.246,7.721,7.721,0,0,1,2.839-1.791,4.936,4.936,0,0,1,.9-.224,1.191,1.191,0,0,1,.313,0,8.717,8.717,0,0,0-1.164.367,8.062,8.062,0,0,0-2.687,1.845,11.116,11.116,0,0,0-2.517,4.192,29.72,29.72,0,0,0-1.272,5.921c-.582,4.282-.9,8.187-1.057,11.017-.107,1.379-.188,2.517-.242,3.35a8.917,8.917,0,0,1-.081.9,1.3,1.3,0,0,1-.081.26Z" transform="translate(-48.516 -57.119)" fill="#455a64"/>
      <path id="Trazado_117894" data-name="Trazado 117894" d="M82.54,335.152s1.791-8.554,4.416-11.259,13.534-6.1,13.534-6.1.457,3.861,3.072,4.8A7.018,7.018,0,0,0,111.5,320.8a12.647,12.647,0,0,0,2.544-5.213s13.042,1.263,15.173,4.846,5.428,14.735,5.428,14.735" transform="translate(-47.24 -60.686)" fill="#c1507f"/>
      <path id="Trazado_117895" data-name="Trazado 117895" d="M132.238,320c0,.054-.582.161-1.469.5a10.578,10.578,0,0,0-5.491,4.765c-.457.842-.645,1.406-.7,1.388a1.254,1.254,0,0,1,.1-.412,7.264,7.264,0,0,1,.421-1.066,9.674,9.674,0,0,1,2.32-2.992,9.557,9.557,0,0,1,3.278-1.872,6.639,6.639,0,0,1,1.12-.278,1.155,1.155,0,0,1,.421-.036Z" transform="translate(-51.624 -61.145)" fill="#263238"/>
      <path id="Trazado_117896" data-name="Trazado 117896" d="M81.935,332.3a34.826,34.826,0,0,0-.367-5.7l-3.144-7.058s-.806-.493-1.191.9a3.641,3.641,0,0,0,.833,2.839l.1,1.791-1.272-1.03-2.445-4.5s-1.684-3.341-2.123-2.813-.3,1.6.43,3.045l1.657,3.269s.242.582-.618-.26-2.75-4.917-3.135-5.428-.9-2.006-1.791-1.666.242,2.132.242,2.132l2.687,6.037s-1.568-2.284-1.845-2.687a25.217,25.217,0,0,0-1.451-2.365c-.555-.663-1.066-.9-1.442-.77a.752.752,0,0,0-.466.9l2.911,5.088a27.861,27.861,0,0,1,1.433,2.418c0,.17-1.254-.743-1.254-.743l-1.209-1.541s-1.308-2.3-1.988-2.177-.564.636-.564.636l2.427,4.192,3.52,4.532,3.771,3.735,7.846.125Z" transform="translate(-45.506 -60.691)" fill="#ffbe9d"/>
      <path id="Trazado_117897" data-name="Trazado 117897" d="M76.059,332.451a9.665,9.665,0,0,0,.224-1.4,4.479,4.479,0,0,1,1.442-2.884,2.4,2.4,0,0,1,1.469-.555h.179v-.2c-.054-.9,0-1.675-.054-2.221a2.159,2.159,0,0,0-.116-.9,4.4,4.4,0,0,0-.09.9,22.73,22.73,0,0,0-.072,2.284l.17-.188a2.687,2.687,0,0,0-1.693.609,3.744,3.744,0,0,0-1.138,1.585A5.9,5.9,0,0,0,76,331.018a4.084,4.084,0,0,0,.063,1.433Z" transform="translate(-46.554 -61.594)" fill="#eb996e"/>
      <rect id="Rectángulo_29494" data-name="Rectángulo 29494" width="25.42" height="25.42" transform="translate(85.156 228.078)" fill="#ebebeb"/>
      <rect id="Rectángulo_29495" data-name="Rectángulo 29495" width="23.925" height="23.925" transform="translate(85.908 228.83)" fill="#fff"/>
      <rect id="Rectángulo_29496" data-name="Rectángulo 29496" width="6.87" height="6.87" transform="translate(94.436 237.357)" fill="#e0e0e0"/>
      <rect id="Rectángulo_29497" data-name="Rectángulo 29497" width="1.075" height="25.42" transform="translate(110.576 228.087)" fill="#e0e0e0"/>
      <rect id="Rectángulo_29498" data-name="Rectángulo 29498" width="17.037" height="17.753" transform="translate(13.427 230.066)" fill="#e0e0e0"/>
      <rect id="Rectángulo_29499" data-name="Rectángulo 29499" width="17.037" height="17.753" transform="translate(12.28 230.066)" fill="#fafafa"/>
      <path id="Trazado_117898" data-name="Trazado 117898" d="M73.879,305.621H56.86V287.85H73.879Zm-17.019,0H73.879V287.859H56.86Z" transform="translate(-44.562 -57.793)" fill="#e0e0e0"/>
      <rect id="Rectángulo_29500" data-name="Rectángulo 29500" width="12.45" height="12.979" transform="translate(14.564 232.449)" fill="#fff"/>
      <path id="Trazado_117899" data-name="Trazado 117899" d="M59.125,305.11a1.7,1.7,0,0,1-.3.358c-.2.215-.484.493-.8.806l-.806.779a2,2,0,0,1-.367.3,2.264,2.264,0,0,1,.313-.358c.2-.206.475-.493.788-.8s.6-.591.815-.779a2.465,2.465,0,0,1,.358-.3Z" transform="translate(-44.561 -59.593)" fill="#e0e0e0"/>
      <path id="Trazado_117900" data-name="Trazado 117900" d="M73.3,305.08a2.463,2.463,0,0,1,.358.3c.206.2.493.475.8.788s.582.609.779.815a2.462,2.462,0,0,1,.3.358,3.506,3.506,0,0,1-.358-.3c-.206-.2-.493-.475-.806-.788s-.582-.609-.779-.815S73.282,305.089,73.3,305.08Z" transform="translate(-46.276 -59.59)" fill="#e0e0e0"/>
      <path id="Trazado_117901" data-name="Trazado 117901" d="M73.26,290.3a2.467,2.467,0,0,1,.3-.358l.8-.8c.3-.314.6-.591.806-.779a1.862,1.862,0,0,1,.367-.3,2.266,2.266,0,0,1-.313.358l-.788.806-.815.779A2.023,2.023,0,0,1,73.26,290.3Z" transform="translate(-46.272 -57.815)" fill="#e0e0e0"/>
      <path id="Trazado_117902" data-name="Trazado 117902" d="M59.089,290.335a2.267,2.267,0,0,1-.358-.314c-.206-.2-.493-.475-.8-.788s-.582-.6-.779-.815a2.462,2.462,0,0,1-.3-.358,1.7,1.7,0,0,1,.358.3c.215.2.493.484.806.8s.582.6.779.815S59.107,290.326,59.089,290.335Z" transform="translate(-44.561 -57.815)" fill="#e0e0e0"/>
      <path id="Trazado_117903" data-name="Trazado 117903" d="M71.812,303.482V290.547l.054.054H59.388l.054-.054v12.934H59.37V290.44H71.91v13.042Z" transform="translate(-44.824 -58.063)" fill="#e0e0e0"/>
      <rect id="Rectángulo_29501" data-name="Rectángulo 29501" width="4.156" height="4.156" transform="translate(18.712 236.865)" fill="#ebebeb"/>
      <path id="Trazado_117904" data-name="Trazado 117904" d="M149.239,31.108h.537a8.957,8.957,0,0,1,1.612.143,13.74,13.74,0,0,1,5.849,2.311,13.946,13.946,0,0,1,5.652,8.375c.5,2,.3,4.228.349,6.557s0,4.837,0,7.488c0,21.148.063,51.746.116,89.572s.063,82.836.1,132.835v43.317a13.911,13.911,0,0,1-1.129,4.873,14.108,14.108,0,0,1-6.906,7.1,14.27,14.27,0,0,1-4.909,1.326c-.9.054-1.7.063-2.535.054h-86.1c-1.791,0-3.583.045-5.374,0a14.107,14.107,0,0,1-12.433-9.306,15,15,0,0,1-.833-5.374V44.607l.045-.9a6.156,6.156,0,0,1,.125-.9,13.061,13.061,0,0,1,.385-1.791,14.027,14.027,0,0,1,9.486-9.45,13.015,13.015,0,0,1,1.657-.367l.833-.125.842-.045c1.12-.063,2.212,0,3.314,0H74.258a4.855,4.855,0,0,1,1.559.152A3.9,3.9,0,0,1,78.2,33.106a7.094,7.094,0,0,1,.52,1.433c.134.484.278.958.412,1.433.278.9.555,1.881.824,2.813a4.138,4.138,0,0,0,1.585,2.195,4.282,4.282,0,0,0,2.615.726h38.516a4.156,4.156,0,0,0,3.242-1.666,4.479,4.479,0,0,0,.752-1.63c.17-.582.34-1.147.5-1.711.349-1.129.627-2.212.985-3.26a3.869,3.869,0,0,1,2.275-2.168,4.084,4.084,0,0,1,1.487-.224h1.442a9.011,9.011,0,0,0-2.884.233,3.672,3.672,0,0,0-2.177,2.087c-.349,1.021-.636,2.132-.967,3.251-.17.564-.331,1.138-.5,1.711a4.613,4.613,0,0,1-.779,1.693,4.362,4.362,0,0,1-3.377,1.791l-38.516.063a4.479,4.479,0,0,1-2.768-.77,4.407,4.407,0,0,1-1.729-2.356c-.278-.9-.546-1.872-.824-2.822-.143-.475-.278-.949-.421-1.424a6.8,6.8,0,0,0-.457-1.29,3.672,3.672,0,0,0-2.212-1.791,4.8,4.8,0,0,0-1.487-.143H59.927a22.2,22.2,0,0,0-6.566.573,13.731,13.731,0,0,0-9.289,9.28,12.4,12.4,0,0,0-.376,1.711c0,.3-.107.582-.125.9V102.9c0,22.232,0,45.986.054,70.986s0,51.253.045,78.456v68.11a14.6,14.6,0,0,0,.806,5.2,13.669,13.669,0,0,0,12.038,9c1.791.081,3.583,0,5.374,0h86.078c.842,0,1.675,0,2.5-.063a13.552,13.552,0,0,0,12.54-12.854c.072-1.621,0-3.278,0-4.909V48.5a28.476,28.476,0,0,0-.322-6.53,13.839,13.839,0,0,0-11.277-10.659,11.76,11.76,0,0,0-1.6-.17Z" transform="translate(-43.141 -31.009)" fill="#263238"/>
    </g>
    <g id="freepik--Icons--inject-5" transform="translate(329.111 89.786)">
      <rect id="Rectángulo_29502" data-name="Rectángulo 29502" width="12.288" height="33.029" transform="translate(3.729 117.502) rotate(-16.809)" fill="#7e57c2"/>
      <g id="Grupo_55079" data-name="Grupo 55079" transform="translate(3.729 113.949)" opacity="0.3">
        <rect id="Rectángulo_29503" data-name="Rectángulo 29503" width="12.288" height="33.029" transform="translate(0 3.553) rotate(-16.809)"/>
      </g>
      <rect id="Rectángulo_29504" data-name="Rectángulo 29504" width="12.253" height="32.936" transform="translate(0 116.157) rotate(-17.12)" fill="#7e57c2"/>
      <path id="Trazado_117905" data-name="Trazado 117905" d="M374.171,231.777a2.768,2.768,0,1,1-3.457-1.791,2.768,2.768,0,0,1,3.457,1.791Z" transform="translate(-363.615 -110.523)" fill="#fff"/>
      <path id="Trazado_117906" data-name="Trazado 117906" d="M381.036,226.46a10.453,10.453,0,0,1-.681,2.813,10.32,10.32,0,0,1-1.075,2.687,10.408,10.408,0,0,1,.681-2.822,10.167,10.167,0,0,1,1.075-2.678Z" transform="translate(-364.711 -110.168)" fill="#7e57c2"/>
      <path id="Trazado_117907" data-name="Trazado 117907" d="M382.231,230.34a20.367,20.367,0,0,1-1.791,5.518A20.371,20.371,0,0,1,382.231,230.34Z" transform="translate(-364.832 -110.573)" fill="#7e57c2"/>
      <path id="Trazado_117908" data-name="Trazado 117908" d="M383.431,234.23a21.032,21.032,0,0,1-1.791,5.509,10.454,10.454,0,0,1,.681-2.813,10.317,10.317,0,0,1,1.111-2.7Z" transform="translate(-364.957 -110.979)" fill="#7e57c2"/>
      <path id="Trazado_117909" data-name="Trazado 117909" d="M384.627,238.12a10.309,10.309,0,0,1-.681,2.813,10.5,10.5,0,0,1-1.066,2.687,10.38,10.38,0,0,1,.681-2.813,10.5,10.5,0,0,1,1.066-2.687Z" transform="translate(-365.086 -111.384)" fill="#7e57c2"/>
      <path id="Trazado_117910" data-name="Trazado 117910" d="M385.8,242a10.453,10.453,0,0,1-.681,2.813,10.32,10.32,0,0,1-1.075,2.687,21.031,21.031,0,0,1,1.791-5.509Z" transform="translate(-365.207 -111.788)" fill="#7e57c2"/>
      <path id="Trazado_117911" data-name="Trazado 117911" d="M387.021,245.89a20.368,20.368,0,0,1-1.791,5.518,20.368,20.368,0,0,1,1.791-5.518Z" transform="translate(-365.331 -112.194)" fill="#7e57c2"/>
      <path id="Trazado_117912" data-name="Trazado 117912" d="M388.226,249.78a10.411,10.411,0,0,1-.681,2.822,10.166,10.166,0,0,1-1.075,2.687,10.453,10.453,0,0,1,.681-2.813,10.318,10.318,0,0,1,1.075-2.7Z" transform="translate(-365.461 -112.6)" fill="#7e57c2"/>
      <path id="Trazado_117913" data-name="Trazado 117913" d="M379.941,223a20.44,20.44,0,0,1-1.791,5.509A20.181,20.181,0,0,1,379.941,223Z" transform="translate(-364.593 -109.807)" fill="#7e57c2"/>
      <path id="Trazado_117914" data-name="Trazado 117914" d="M378.119,221.59a3.735,3.735,0,0,1-.322,1.693c-.287.9-.609,1.6-.717,1.568a3.833,3.833,0,0,1,.331-1.693C377.7,222.262,378.011,221.554,378.119,221.59Z" transform="translate(-364.481 -109.66)" fill="#7e57c2"/>
      <path id="Trazado_117915" data-name="Trazado 117915" d="M395.3,244.651l-7.936-28.009s5.822-3.108,8.742-13.23c1.944-6.691-1.227-12.182-1.281-14.842,0-1.63,3.583-2.418,5.186-2.687a6.36,6.36,0,0,1,5.921,1.791c3.207,3.717,3.735,14.8,3.735,14.8s-.511,2.445,2.418,1.541l10.444-3.216a5.956,5.956,0,0,1,4.129.179,4.425,4.425,0,0,1,2.687,3.225c.9,4.067-.636,6.494-.376,7.327s1.863,1.944,1.791,4.613-.681,2.615-.331,3.762a19.708,19.708,0,0,1,.9,6.145,9.038,9.038,0,0,1-.761,3.1s1.612,3.69,1.1,6.189c-.672,3.269-7,7.246-10.247,6.816-1.514-.2-8.187.233-11.34.4S397.7,242.4,395.3,244.651Z" transform="translate(-365.553 -105.922)" fill="#7e57c2"/>
      <g id="Grupo_55080" data-name="Grupo 55080" transform="translate(21.807 79.816)" opacity="0.3">
        <path id="Trazado_117916" data-name="Trazado 117916" d="M395.3,244.651l-7.936-28.009s5.822-3.108,8.742-13.23c1.944-6.691-1.227-12.182-1.281-14.842,0-1.63,3.583-2.418,5.186-2.687a6.36,6.36,0,0,1,5.921,1.791c3.207,3.717,3.735,14.8,3.735,14.8s-.511,2.445,2.418,1.541l10.444-3.216a5.956,5.956,0,0,1,4.129.179,4.425,4.425,0,0,1,2.687,3.225c.9,4.067-.636,6.494-.376,7.327s1.863,1.944,1.791,4.613-.681,2.615-.331,3.762a19.708,19.708,0,0,1,.9,6.145,9.038,9.038,0,0,1-.761,3.1s1.612,3.69,1.1,6.189c-.672,3.269-7,7.246-10.247,6.816-1.514-.2-8.187.233-11.34.4S397.7,242.4,395.3,244.651Z" transform="translate(-387.36 -185.738)"/>
      </g>
      <path id="Trazado_117917" data-name="Trazado 117917" d="M391.141,246.257l-8.671-28.126s5.831-3.117,8.751-13.23a49.058,49.058,0,0,0,2.141-14.331,3.35,3.35,0,0,1,2.687-3.377,5.088,5.088,0,0,1,5.177,1.791c3.207,3.708,3.538,15.012,3.538,15.012s-.5,2.445,2.427,1.55l10.444-3.225a5.983,5.983,0,0,1,4.12.188,4.416,4.416,0,0,1,2.687,3.216c.9,4.076-.636,6.494-.376,7.336s1.854,1.944,1.791,4.6-.681,2.615-.331,3.771a19.394,19.394,0,0,1,.9,6.145,8.877,8.877,0,0,1-.761,3.1s1.478,3.663,1.111,6.18-4.407,5.025-5.876,5.473-12.54,1.585-15.72,1.791S393.55,244.027,391.141,246.257Z" transform="translate(-365.044 -106.059)" fill="#7e57c2"/>
      <path id="Trazado_117918" data-name="Trazado 117918" d="M411,197.78a13.686,13.686,0,0,1-1.5,3.511,14.133,14.133,0,0,1-2.051,3.216,24.928,24.928,0,0,1,1.693-3.4A25.982,25.982,0,0,1,411,197.78Z" transform="translate(-367.647 -107.177)" fill="#7e57c2"/>
      <path id="Trazado_117919" data-name="Trazado 117919" d="M410.341,193.39a9.764,9.764,0,0,1-1.487,3.144,16.309,16.309,0,0,1-2.024,2.822,13.292,13.292,0,0,1,1.675-3.037,32.8,32.8,0,0,1,1.836-2.929Z" transform="translate(-367.584 -106.72)" fill="#7e57c2"/>
      <path id="Trazado_117920" data-name="Trazado 117920" d="M408.906,189.7a5.67,5.67,0,0,1-1.245,2.553,15.609,15.609,0,0,1-1.791,2.2,7.165,7.165,0,0,1,1.433-2.445C408.244,190.784,408.79,189.646,408.906,189.7Z" transform="translate(-367.484 -106.335)" fill="#7e57c2"/>
      <path id="Trazado_117921" data-name="Trazado 117921" d="M406.747,186.94a5.436,5.436,0,0,1-.9,1.854c-.609.967-1.182,1.7-1.281,1.639a10.919,10.919,0,0,1,2.212-3.493Z" transform="translate(-367.348 -106.047)" fill="#7e57c2"/>
      <path id="Trazado_117922" data-name="Trazado 117922" d="M403.883,185.8c.09.081-.188.555-.618,1.075s-.842.9-.9.815.188-.546.618-1.075S403.829,185.727,403.883,185.8Z" transform="translate(-367.118 -105.927)" fill="#7e57c2"/>
      <path id="Trazado_117923" data-name="Trazado 117923" d="M411.938,203.6a5.92,5.92,0,0,1-.994,1.962A6.269,6.269,0,0,1,409.6,207.3a6.1,6.1,0,0,1,.994-1.962,5.875,5.875,0,0,1,1.344-1.738Z" transform="translate(-367.873 -107.784)" fill="#7e57c2"/>
      <path id="Trazado_117924" data-name="Trazado 117924" d="M433.972,208.7a39.859,39.859,0,0,1-5.052,6.351,21.547,21.547,0,0,1,2.365-3.3,20.4,20.4,0,0,1,2.687-3.054Z" transform="translate(-369.887 -108.316)" fill="#7e57c2"/>
      <path id="Trazado_117925" data-name="Trazado 117925" d="M432.39,203.43a7.747,7.747,0,0,1-1.344,2.024,7.372,7.372,0,0,1-1.666,1.791,7.228,7.228,0,0,1,1.344-2.024A7.6,7.6,0,0,1,432.39,203.43Z" transform="translate(-369.935 -107.767)" fill="#7e57c2"/>
      <path id="Trazado_117926" data-name="Trazado 117926" d="M434.687,216.87a15.282,15.282,0,0,1-1.791,2.383,15.938,15.938,0,0,1-1.926,2.293,8.671,8.671,0,0,1,1.6-2.544,8.759,8.759,0,0,1,2.114-2.132Z" transform="translate(-370.101 -109.168)" fill="#7e57c2"/>
      <path id="Trazado_117927" data-name="Trazado 117927" d="M434.883,223.45a22.262,22.262,0,0,1-3.493,4.8,11.008,11.008,0,0,1,1.576-2.526,10.462,10.462,0,0,1,1.917-2.275Z" transform="translate(-370.145 -109.854)" fill="#7e57c2"/>
      <path id="Trazado_117928" data-name="Trazado 117928" d="M435.646,231a11.025,11.025,0,0,1-1.791,2.965,11.277,11.277,0,0,1-2.365,2.544,21.864,21.864,0,0,1,2.042-2.795A23.945,23.945,0,0,1,435.646,231Z" transform="translate(-370.155 -110.642)" fill="#7e57c2"/>
      <path id="Trazado_117929" data-name="Trazado 117929" d="M435.923,237.51a23.629,23.629,0,0,1-4.873,6.413,33.069,33.069,0,0,1,2.392-3.243,30.908,30.908,0,0,1,2.481-3.171Z" transform="translate(-370.11 -111.321)" fill="#7e57c2"/>
      <rect id="Rectángulo_29505" data-name="Rectángulo 29505" width="23.45" height="8.724" transform="translate(61.837 35.073) rotate(-63.09)" fill="#263238"/>
      <rect id="Rectángulo_29506" data-name="Rectángulo 29506" width="23.45" height="8.724" transform="translate(63.938 36.132) rotate(-63.09)" fill="#455a64"/>
      <path id="Trazado_117930" data-name="Trazado 117930" d="M439.864,132.547a1.971,1.971,0,1,1-.122,1.533,1.971,1.971,0,0,1,.122-1.533Z" transform="translate(-371.005 -100.264)" fill="#fff"/>
      <path id="Trazado_117931" data-name="Trazado 117931" d="M433.87,132.073a7.418,7.418,0,0,1,1.747-1.1,6.951,6.951,0,0,1,1.881-.851,7.416,7.416,0,0,1-1.747,1.1,7.6,7.6,0,0,1-1.881.851Z" transform="translate(-370.404 -100.122)" fill="#455a64"/>
      <path id="Trazado_117932" data-name="Trazado 117932" d="M435.18,129.493a7.615,7.615,0,0,1,1.747-1.111,7.085,7.085,0,0,1,1.881-.842,7.418,7.418,0,0,1-1.791,1.1A7.6,7.6,0,0,1,435.18,129.493Z" transform="translate(-370.54 -99.853)" fill="#455a64"/>
      <path id="Trazado_117933" data-name="Trazado 117933" d="M436.49,126.9a17.542,17.542,0,0,1,3.628-2,19.738,19.738,0,0,1-3.628,2Z" transform="translate(-370.677 -99.577)" fill="#455a64"/>
      <path id="Trazado_117934" data-name="Trazado 117934" d="M437.8,124.323a7.418,7.418,0,0,1,1.747-1.1,7.6,7.6,0,0,1,1.881-.851,7.614,7.614,0,0,1-1.791,1.111A7.354,7.354,0,0,1,437.8,124.323Z" transform="translate(-370.813 -99.314)" fill="#455a64"/>
      <path id="Trazado_117935" data-name="Trazado 117935" d="M439.11,121.773a7.417,7.417,0,0,1,1.747-1.1,7.21,7.21,0,0,1,1.881-.851,14.986,14.986,0,0,1-3.628,1.953Z" transform="translate(-370.95 -99.048)" fill="#455a64"/>
      <path id="Trazado_117936" data-name="Trazado 117936" d="M440.42,119.163a7.614,7.614,0,0,1,1.747-1.111,7.354,7.354,0,0,1,1.881-.842,7.417,7.417,0,0,1-1.791,1.1A7.3,7.3,0,0,1,440.42,119.163Z" transform="translate(-371.087 -98.775)" fill="#455a64"/>
      <path id="Trazado_117937" data-name="Trazado 117937" d="M441.73,116.573a7.774,7.774,0,0,1,1.747-1.1,8.061,8.061,0,0,1,1.881-.851,7.336,7.336,0,0,1-1.738,1.111,7.166,7.166,0,0,1-1.89.842Z" transform="translate(-371.223 -98.505)" fill="#455a64"/>
      <path id="Trazado_117938" data-name="Trazado 117938" d="M432.74,134.363a14.708,14.708,0,0,1,3.583-1.953,7.238,7.238,0,0,1-1.738,1.1A7.6,7.6,0,0,1,432.74,134.363Z" transform="translate(-370.286 -100.361)" fill="#455a64"/>
      <path id="Trazado_117939" data-name="Trazado 117939" d="M433,136.134a3.163,3.163,0,0,1,1.012-.708c.6-.322,1.1-.52,1.138-.448s-.412.385-1,.708A2.769,2.769,0,0,1,433,136.134Z" transform="translate(-370.313 -100.627)" fill="#455a64"/>
      <path id="Trazado_117940" data-name="Trazado 117940" d="M434.179,110.451l-9.8,18.264s-4.479-1.29-11.026,2.445c-4.3,2.463-5.374,6.843-6.691,8.232-.788.842-3.028-.546-3.995-1.182a4.479,4.479,0,0,1-2.141-3.843c.2-3.484,5.374-9.423,5.374-9.423s1.469-1-.475-1.988l-6.933-3.52a4.228,4.228,0,0,1-2.024-2.132,3.171,3.171,0,0,1,.233-2.974c1.55-2.526,3.538-3.01,3.816-3.583s0-1.908,1.379-3.225,1.648-1,2.033-1.791a13.8,13.8,0,0,1,2.6-3.583,6.4,6.4,0,0,1,1.926-1.209s1-2.687,2.5-3.717c1.962-1.335,7.166-.242,8.617,1.585.681.851,4.308,3.932,6,5.374S431.85,110.4,434.179,110.451Z" transform="translate(-366.476 -96.629)" fill="#263238"/>
      <path id="Trazado_117941" data-name="Trazado 117941" d="M437.114,111.687l-9.486,18.685s-4.523-1.29-11.026,2.436a34.871,34.871,0,0,0-8.2,6.27,2.383,2.383,0,0,1-3.045.394,3.583,3.583,0,0,1-1.791-3.457c.2-3.493,5.625-9.441,5.625-9.441s1.469-1-.475-1.988l-6.978-3.493a4.228,4.228,0,0,1-2.015-2.141,3.144,3.144,0,0,1,.224-3c1.55-2.535,3.538-3.01,3.825-3.583s0-1.917,1.379-3.234,1.639-.994,2.024-1.791a14.17,14.17,0,0,1,2.607-3.583,6.271,6.271,0,0,1,1.917-1.2,10.892,10.892,0,0,1,2.58-3.628c1.433-1.1,4.738-.385,5.715.107s7.211,5.374,8.912,6.879S434.776,111.634,437.114,111.687Z" transform="translate(-366.813 -96.809)" fill="#455a64"/>
      <path id="Trazado_117942" data-name="Trazado 117942" d="M404.24,131.8a10.132,10.132,0,0,1,2.5-1.048,10.266,10.266,0,0,1,2.687-.636,17.02,17.02,0,0,1-2.553.9A17.231,17.231,0,0,1,404.24,131.8Z" transform="translate(-367.314 -100.122)" fill="#455a64"/>
      <path id="Trazado_117943" data-name="Trazado 117943" d="M402.4,134.465a6.95,6.95,0,0,1,2.32-.9,11.571,11.571,0,0,1,2.436-.439,10.113,10.113,0,0,1-2.365.726A22.754,22.754,0,0,1,402.4,134.465Z" transform="translate(-367.122 -100.436)" fill="#455a64"/>
      <path id="Trazado_117944" data-name="Trazado 117944" d="M401.34,137.131a4.183,4.183,0,0,1,1.9-.69,11.645,11.645,0,0,1,2-.251,5.169,5.169,0,0,1-1.944.537A18.418,18.418,0,0,1,401.34,137.131Z" transform="translate(-367.011 -100.755)" fill="#455a64"/>
      <path id="Trazado_117945" data-name="Trazado 117945" d="M401.13,139.689a3.914,3.914,0,0,1,1.4-.484,3.654,3.654,0,0,1,1.46-.206,3.726,3.726,0,0,1-1.4.484A3.654,3.654,0,0,1,401.13,139.689Z" transform="translate(-366.989 -101.047)" fill="#455a64"/>
      <path id="Trazado_117946" data-name="Trazado 117946" d="M402.07,141.779c0-.081.376-.188.851-.242a1.888,1.888,0,0,1,.9.045,1.81,1.81,0,0,1-.851.242C402.482,141.878,402.079,141.86,402.07,141.779Z" transform="translate(-367.087 -101.31)" fill="#455a64"/>
      <path id="Trazado_117947" data-name="Trazado 117947" d="M406.71,128.584a4.318,4.318,0,0,1,1.478-.511,4.138,4.138,0,0,1,1.55-.224,4.55,4.55,0,0,1-1.478.511A4.371,4.371,0,0,1,406.71,128.584Z" transform="translate(-367.571 -99.884)" fill="#455a64"/>
      <path id="Trazado_117948" data-name="Trazado 117948" d="M397.79,114.912a14.331,14.331,0,0,1,2.848-.52,13.841,13.841,0,0,1,2.884-.233,14.331,14.331,0,0,1-2.848.52,14.547,14.547,0,0,1-2.884.233Z" transform="translate(-366.641 -98.457)" fill="#455a64"/>
      <path id="Trazado_117949" data-name="Trazado 117949" d="M396.12,118.546a10.068,10.068,0,0,1,3.413-.457,5.168,5.168,0,0,1-1.684.367,5.374,5.374,0,0,1-1.729.09Z" transform="translate(-366.467 -98.866)" fill="#455a64"/>
      <path id="Trazado_117950" data-name="Trazado 117950" d="M401.55,110.476a10.616,10.616,0,0,1,2.1-.331,11.742,11.742,0,0,1,2.114-.215,6.046,6.046,0,0,1-2.078.511,6.27,6.27,0,0,1-2.141.036Z" transform="translate(-367.033 -98.016)" fill="#455a64"/>
      <path id="Trazado_117951" data-name="Trazado 117951" d="M404.72,107.006a15.021,15.021,0,0,1,4.165-.726,8.286,8.286,0,0,1-2.06.5A7.56,7.56,0,0,1,404.72,107.006Z" transform="translate(-367.364 -97.636)" fill="#455a64"/>
      <path id="Trazado_117952" data-name="Trazado 117952" d="M408,102.711a12.039,12.039,0,0,1,4.855-.752q-2.413.466-4.855.752Z" transform="translate(-367.706 -97.183)" fill="#455a64"/>
      <path id="Trazado_117953" data-name="Trazado 117953" d="M411.06,99.195a10.148,10.148,0,0,1,2.8-.681,9.674,9.674,0,0,1,2.866-.188,24.511,24.511,0,0,1-2.83.475,23.1,23.1,0,0,1-2.839.394Z" transform="translate(-368.025 -96.803)" fill="#455a64"/>
    </g>
    <g id="freepik--Character--inject-5" transform="translate(102.82 101.449)">
      <path id="Trazado_117954" data-name="Trazado 117954" d="M160.6,381.3l33.5-9.951,106.77-1.953,18.5,14.412-41.543,33.813-70.789-1.4Z" transform="translate(-115.616 -136.737)" fill="#263238"/>
      <path id="Trazado_117955" data-name="Trazado 117955" d="M225.948,407.6l44.607,12-14.627,55.535c-5.222-1.729-8.312-33.276-8.312-33.276l-28.9-6.5Z" transform="translate(-121.676 -140.72)" fill="#455a64"/>
      <g id="Grupo_55081" data-name="Grupo 55081" transform="translate(127.76 282.238)" opacity="0.6">
        <path id="Trazado_117956" data-name="Trazado 117956" d="M253.306,425.869a2.338,2.338,0,0,1,3-.9,2.248,2.248,0,0,1,.9,2.965,2.463,2.463,0,0,1-3.18.9,2.329,2.329,0,0,1-.6-3.189" transform="translate(-253.012 -424.747)" fill="#fff"/>
      </g>
      <path id="Trazado_117957" data-name="Trazado 117957" d="M274.629,420.859l-4.479-1.209L257.79,473.492s.43,2.759,2.239,2.938Z" transform="translate(-125.751 -141.977)" fill="#263238"/>
      <path id="Trazado_117958" data-name="Trazado 117958" d="M250.387,446.279c.269.063.752-1.263,1.98-2.365s2.553-1.514,2.508-1.791-1.72-.287-3.171,1.075S250.118,446.27,250.387,446.279Z" transform="translate(-124.967 -144.305)" fill="#263238"/>
      <path id="Trazado_117959" data-name="Trazado 117959" d="M251.373,453.671c.242.125,1.012-.9,2.409-1.541s2.687-.573,2.732-.842-1.433-.851-3.144,0S251.113,453.59,251.373,453.671Z" transform="translate(-125.075 -145.23)" fill="#263238"/>
      <path id="Trazado_117960" data-name="Trazado 117960" d="M257.582,459.654c.125-.233-1.129-.967-2.8-.663s-2.589,1.424-2.392,1.594,1.191-.4,2.571-.627S257.484,459.887,257.582,459.654Z" transform="translate(-125.185 -146.072)" fill="#263238"/>
      <path id="Trazado_117961" data-name="Trazado 117961" d="M243.179,443.647c.278-.045.233-1.388.743-2.893s1.3-2.58,1.111-2.777-1.469.69-2.042,2.472S242.973,443.727,243.179,443.647Z" transform="translate(-124.181 -143.885)" fill="#263238"/>
      <path id="Trazado_117962" data-name="Trazado 117962" d="M235.944,439.817a5.54,5.54,0,0,0,.717-2.786,12.889,12.889,0,0,0-.125-3.153,13.286,13.286,0,0,0-.43-1.791,3.583,3.583,0,0,0-.43-1.012,1.227,1.227,0,0,0-1.415-.5,1.541,1.541,0,0,0-.9,1.021,3.807,3.807,0,0,0-.134,1.084,10.748,10.748,0,0,0,.143,1.89,9.987,9.987,0,0,0,1.012,3,6.122,6.122,0,0,0,1.791,2.239c0-.072-.564-.958-1.2-2.526a11.42,11.42,0,0,1-.752-2.848,12.064,12.064,0,0,1-.072-1.729c0-.627.134-1.129.43-1.209.116,0,.161,0,.3.143a2.534,2.534,0,0,1,.314.743,14.332,14.332,0,0,1,.457,1.684,15.846,15.846,0,0,1,.322,2.965A19,19,0,0,0,235.944,439.817Z" transform="translate(-123.19 -143.11)" fill="#263238"/>
      <path id="Trazado_117963" data-name="Trazado 117963" d="M235.7,440.4c.063-.09-.761-.9-2.5-1.442a9.19,9.19,0,0,0-3.144-.421,9.305,9.305,0,0,0-1.872.26,2.391,2.391,0,0,0-1.881,1.406,1.361,1.361,0,0,0,.475,1.37,4.262,4.262,0,0,0,.949.555,6.583,6.583,0,0,0,1.872.493,6.691,6.691,0,0,0,3.189-.43c1.72-.708,2.347-1.791,2.257-1.791a9.8,9.8,0,0,1-2.49,1.155,6.619,6.619,0,0,1-2.839.188,5.9,5.9,0,0,1-1.594-.475c-.573-.242-.985-.591-.9-.788a1.993,1.993,0,0,1,1.164-.734,8.96,8.96,0,0,1,1.693-.3,10.676,10.676,0,0,1,2.92.188C234.681,439.981,235.621,440.537,235.7,440.4Z" transform="translate(-122.464 -143.946)" fill="#263238"/>
      <g id="Grupo_55082" data-name="Grupo 55082" transform="translate(97.044 266.88)" opacity="0.3">
        <path id="Trazado_117964" data-name="Trazado 117964" d="M225.948,407.6l44.607,12-14.627,55.535c-5.222-1.729-8.312-33.276-8.312-33.276l-28.9-6.5Z" transform="translate(-218.72 -407.6)"/>
      </g>
      <path id="Trazado_117965" data-name="Trazado 117965" d="M285.3,400.81,247.61,427.5l32.971,47.061c4.3-3.431-3.726-34.1-3.726-34.1L301.7,424.34Z" transform="translate(-124.689 -140.012)" fill="#455a64"/>
      <g id="Grupo_55083" data-name="Grupo 55083" transform="translate(140.352 283.975)" opacity="0.6">
        <path id="Trazado_117966" data-name="Trazado 117966" d="M270.725,427.182a2.356,2.356,0,0,0-3.126.206,2.266,2.266,0,0,0,.179,3.1,2.481,2.481,0,0,0,3.305-.233,2.342,2.342,0,0,0-.537-3.207" transform="translate(-267.07 -426.685)" fill="#fff"/>
      </g>
      <path id="Trazado_117967" data-name="Trazado 117967" d="M247.61,430.3l3.807-2.687,30.248,46.219s.555,2.741-1.084,3.538Z" transform="translate(-124.689 -142.807)" fill="#263238"/>
      <path id="Trazado_117968" data-name="Trazado 117968" d="M280.461,445.419c-.233.152-1.147-.9-2.687-1.541s-2.92-.537-2.974-.815,1.514-.9,3.35-.081S280.7,445.321,280.461,445.419Z" transform="translate(-127.524 -144.368)" fill="#263238"/>
      <path id="Trazado_117969" data-name="Trazado 117969" d="M282.041,452.664c-.188.215-1.272-.511-2.795-.609s-2.687.394-2.848.161,1.039-1.29,2.929-1.138S282.256,452.511,282.041,452.664Z" transform="translate(-127.69 -145.253)" fill="#263238"/>
      <path id="Trazado_117970" data-name="Trazado 117970" d="M278.3,460.408c-.2-.17.726-1.3,2.4-1.585s2.92.43,2.8.663-1.263,0-2.633.3S278.476,460.623,278.3,460.408Z" transform="translate(-127.887 -146.055)" fill="#263238"/>
      <path id="Trazado_117971" data-name="Trazado 117971" d="M286.568,440.446c-.278.045-.7-1.227-1.7-2.463s-2.114-1.962-2-2.221,1.612.143,2.768,1.612S286.819,440.383,286.568,440.446Z" transform="translate(-128.365 -143.649)" fill="#263238"/>
      <path id="Trazado_117972" data-name="Trazado 117972" d="M292.008,434.25c-.09.072-.9-.743-1.639-2.365a13.435,13.435,0,0,1-.967-3,13.268,13.268,0,0,1-.233-1.854,3.7,3.7,0,0,1,.063-1.1,1.218,1.218,0,0,1,1.147-.958,1.523,1.523,0,0,1,1.227.636,3.718,3.718,0,0,1,.5.967,9.8,9.8,0,0,1,.52,1.791,10.147,10.147,0,0,1,.1,3.171c-.242,1.791-.842,2.777-.94,2.732s.2-1.084.251-2.786a11.009,11.009,0,0,0-.815-4.577c-.224-.591-.511-1.012-.824-.985-.116,0-.152,0-.233.233a3.228,3.228,0,0,0,0,.806,15.23,15.23,0,0,0,.161,1.747,16.017,16.017,0,0,0,.726,2.893A22.624,22.624,0,0,1,292.008,434.25Z" transform="translate(-129.021 -142.532)" fill="#263238"/>
      <path id="Trazado_117973" data-name="Trazado 117973" d="M291.739,434.765c-.09-.054.412-1.084,1.845-2.212a9.245,9.245,0,0,1,2.8-1.487,9.053,9.053,0,0,1,1.854-.4,2.356,2.356,0,0,1,2.239.672,1.352,1.352,0,0,1,0,1.442,4.325,4.325,0,0,1-.7.9,6.431,6.431,0,0,1-1.585,1.111,6.584,6.584,0,0,1-3.135.7c-1.872-.063-2.813-.833-2.75-.9a11.352,11.352,0,0,0,2.732.215,6.683,6.683,0,0,0,2.687-.806,5.885,5.885,0,0,0,1.335-.994c.448-.43.726-.9.537-1.048a1.612,1.612,0,0,0-1.344-.287,9.943,9.943,0,0,0-1.693.313,10.427,10.427,0,0,0-2.687,1.191C292.554,434.022,291.864,434.864,291.739,434.765Z" transform="translate(-129.29 -143.119)" fill="#263238"/>
      <path id="Trazado_117974" data-name="Trazado 117974" d="M139.6,360.091s-17.09-1.335-23.745,7.121S110.1,392.749,111,397.425s16.06,16.374,16.06,16.374,21.04,9.351,34.037,12.227,49.318,5.374,49.318,5.374l10.8-28.663S148.555,359.76,139.6,360.091Z" transform="translate(-110.378 -135.758)" fill="#263238"/>
      <path id="Trazado_117975" data-name="Trazado 117975" d="M335.749,359.562s17.673-16.517,20.333-16.123a34.575,34.575,0,0,1,13.355,3.87c5.786,3.18,13.3,17.914,12.719,25.573s-24.1,24.632-32.488,28.385-47.724,22.68-47.724,22.68L280.6,398.49l41.812-35.354Z" transform="translate(-128.129 -134.029)" fill="#263238"/>
      <path id="Trazado_117976" data-name="Trazado 117976" d="M232.566,407.141a9.565,9.565,0,0,1-.9-1.191c-.537-.788-1.344-1.908-2.338-3.287a54.835,54.835,0,0,0-9.056-9.656,100.6,100.6,0,0,0-10.973-7.488l-3.449-2.1a8.82,8.82,0,0,1-1.236-.833,9.047,9.047,0,0,1,1.326.672c.833.457,2.033,1.147,3.511,2a87.057,87.057,0,0,1,11.1,7.417,49.962,49.962,0,0,1,9.02,9.853c.976,1.406,1.738,2.553,2.23,3.377a8.725,8.725,0,0,1,.761,1.245Z" transform="translate(-120.206 -138.111)" fill="#455a64"/>
      <path id="Trazado_117977" data-name="Trazado 117977" d="M247.965,410.946a2.857,2.857,0,0,1-.376-.761c-.215-.5-.493-1.236-.815-2.15a45.02,45.02,0,0,1-1.845-7.372,44.1,44.1,0,0,1-.52-7.578c0-.976.063-1.791.107-2.3a3.134,3.134,0,0,1,.116-.833,27.766,27.766,0,0,1,.107,3.135,54.012,54.012,0,0,0,2.347,14.824,30.74,30.74,0,0,1,.878,3.036Z" transform="translate(-124.355 -138.88)" fill="#455a64"/>
      <path id="Trazado_117978" data-name="Trazado 117978" d="M288.058,382.61a3.483,3.483,0,0,1-.358.251l-1.075.627c-.466.251-1.021.609-1.666,1.012l-1.039.654-1.129.779a73.173,73.173,0,0,0-11.322,9.808,79.407,79.407,0,0,0-5.374,6.27c-.743,1.03-1.478,1.989-2.087,2.938l-.9,1.353-.788,1.29c-.511.815-.9,1.576-1.29,2.248a15.572,15.572,0,0,0-.9,1.729l-.564,1.111a1.65,1.65,0,0,1-.224.367,1.052,1.052,0,0,1,.134-.412c.134-.269.3-.69.484-1.147a15.689,15.689,0,0,1,.9-1.791c.4-.7.743-1.46,1.245-2.293.242-.412.5-.9.761-1.308l.9-1.379c.6-.967,1.326-1.935,2.069-2.983a74.711,74.711,0,0,1,5.374-6.36,66.134,66.134,0,0,1,11.4-9.727l1.147-.761,1.066-.627c.654-.385,1.227-.717,1.72-.949l1.111-.555a1.521,1.521,0,0,1,.4-.143Z" transform="translate(-125.913 -138.114)" fill="#455a64"/>
      <path id="Trazado_117979" data-name="Trazado 117979" d="M321.879,372.36c.081.107-8.957,6.628-20.225,14.564S281.232,401.211,281.16,401.1s8.957-6.628,20.225-14.564S321.808,372.261,321.879,372.36Z" transform="translate(-128.188 -137.045)" fill="#455a64"/>
      <path id="Trazado_117980" data-name="Trazado 117980" d="M155.82,371.25a3.886,3.886,0,0,1,.743.26l2.1.833c1.791.734,4.434,1.791,7.649,3.189,6.44,2.732,15.3,6.619,24.991,11.089s18.389,8.724,24.605,11.931c3.117,1.6,5.616,2.938,7.327,3.887l1.962,1.1a6.27,6.27,0,0,1,.672.412,4.394,4.394,0,0,1-.717-.332L223.16,402.6c-1.738-.9-4.255-2.195-7.381-3.753-6.27-3.135-14.967-7.318-24.659-11.8s-18.514-8.411-24.928-11.214l-7.587-3.323-2.06-.9A7.42,7.42,0,0,1,155.82,371.25Z" transform="translate(-115.117 -136.93)" fill="#455a64"/>
      <path id="Trazado_117981" data-name="Trazado 117981" d="M184.228,237.42s-5.267,1.048-7.381,3.69S147.6,280.934,147.6,280.934s-7.121,7.64-6.852,11.859,5.5,10.247,5.5,10.247l-1.048,4.479s-14.493,10.8-13.973,20.288,7.166,18.452,12.916,20.816,30.571,16.347,35.049,18.183,28.726-1.836,28.726-1.836l-5.24-30.293-10.543-.528-10.014-2.893-6.9-13.176,10.059-19.231.528-36.106Z" transform="translate(-112.551 -122.974)" fill="#455a64"/>
      <path id="Trazado_117982" data-name="Trazado 117982" d="M182.75,259.782l7.452,40.925,2.562,24.955s1.057,26.092,3.162,31.1,32.676,14.752,42.43,15.55,54.289-18.98,57.711-22.393,7.64-15.021,7.64-15.021l-6.324-71.156,1.317-28.985L283.68,229.48l-94.05,7.121Z" transform="translate(-117.925 -122.146)" fill="#455a64"/>
      <path id="Trazado_117983" data-name="Trazado 117983" d="M308.661,235.36a54.245,54.245,0,0,1,13.033,13.9c6.172,9.253,21.847,40.863,26.477,49.6s12.594,18.765,10.534,30.84c0,0-23.387,20.306-30.84,24.677s-24.937,9.441-30.84,6.682l-16.965.788a20.727,20.727,0,0,0,6.682-15.433c0-10.023-8.482-18.255-8.482-18.255l11.823,1.03s8.957-6.172,14.394-3.852l8.061-2.3,2.687-8.491-4.774-14.735-10.982-34.315Z" transform="translate(-127.885 -122.759)" fill="#455a64"/>
      <path id="Trazado_117984" data-name="Trazado 117984" d="M298.42,371.979a15.225,15.225,0,0,1,.967-1.335,30.072,30.072,0,0,0,2.365-3.8,38.121,38.121,0,0,0,2.49-6.136,22.294,22.294,0,0,0,.976-7.981,15.138,15.138,0,0,0-2.6-7.515,11.4,11.4,0,0,0-5.025-4.084,10.488,10.488,0,0,0-4.326-.824,15.606,15.606,0,0,0-1.639.143,1.522,1.522,0,0,1,.412-.134,6.477,6.477,0,0,1,1.218-.188,10.014,10.014,0,0,1,4.479.7,11.555,11.555,0,0,1,5.249,4.138,15.442,15.442,0,0,1,2.687,7.73,22.044,22.044,0,0,1-1.03,8.142A35.57,35.57,0,0,1,302.029,367a24.115,24.115,0,0,1-2.508,3.753,8.513,8.513,0,0,1-.806.9,1.55,1.55,0,0,1-.3.331Z" transform="translate(-129.28 -133.681)" fill="#263238"/>
      <path id="Trazado_117985" data-name="Trazado 117985" d="M329.97,347.73c-.072,0-.5-1.021-1.379-2.616a30.07,30.07,0,0,0-9.459-10.444c-1.5-1.03-2.508-1.559-2.472-1.63a2.812,2.812,0,0,1,.743.3,17.8,17.8,0,0,1,1.908,1.057,26.28,26.28,0,0,1,9.575,10.569,19.5,19.5,0,0,1,.9,2A3.037,3.037,0,0,1,329.97,347.73Z" transform="translate(-131.89 -132.945)" fill="#263238"/>
      <path id="Trazado_117986" data-name="Trazado 117986" d="M335.072,316.5a15.542,15.542,0,0,1-2.32.967c-1.442.564-3.431,1.353-5.589,2.3s-4.085,1.89-5.428,2.553a17.329,17.329,0,0,1-2.275,1.066,11.171,11.171,0,0,1,2.123-1.353,57.146,57.146,0,0,1,5.437-2.687c2.177-.94,4.183-1.7,5.661-2.186a12.249,12.249,0,0,1,2.392-.663Z" transform="translate(-132.182 -131.22)" fill="#263238"/>
      <path id="Trazado_117987" data-name="Trazado 117987" d="M339.307,282.72a5.216,5.216,0,0,1-1.039.448c-.69.251-1.675.627-2.884,1.111a61.472,61.472,0,0,0-17.413,10.337c-1,.824-1.791,1.514-2.356,1.988a5.736,5.736,0,0,1-.9.708,5.885,5.885,0,0,1,.77-.842c.52-.52,1.29-1.245,2.266-2.1a53.68,53.68,0,0,1,17.511-10.381c1.227-.439,2.239-.77,2.938-.967A6,6,0,0,1,339.307,282.72Z" transform="translate(-131.688 -127.698)" fill="#263238"/>
      <path id="Trazado_117988" data-name="Trazado 117988" d="M304.768,358.917a73.743,73.743,0,0,1-8.25.448,74.9,74.9,0,0,1-8.258,0,73.257,73.257,0,0,1,8.241-.448A75.173,75.173,0,0,1,304.768,358.917Z" transform="translate(-128.928 -135.632)" fill="#263238"/>
      <path id="Trazado_117989" data-name="Trazado 117989" d="M304.7,355.235a74.539,74.539,0,0,1-8.465.645,79.77,79.77,0,0,1-8.5.179,74.832,74.832,0,0,1,8.474-.645,79.6,79.6,0,0,1,8.491-.179Z" transform="translate(-128.874 -135.255)" fill="#263238"/>
      <path id="Trazado_117990" data-name="Trazado 117990" d="M303.5,350.326a81.008,81.008,0,0,1-8.554.5,76.048,76.048,0,0,1-8.563,0,81.221,81.221,0,0,1,8.554-.5,75.991,75.991,0,0,1,8.563,0Z" transform="translate(-128.732 -134.735)" fill="#263238"/>
      <path id="Trazado_117991" data-name="Trazado 117991" d="M273.121,299.769a1.791,1.791,0,0,1-.484.116l-1.424.251c-1.236.215-3.036.466-5.267.734a154.022,154.022,0,0,1-35.023.116c-2.23-.251-4.031-.493-5.267-.7l-1.424-.242a2.159,2.159,0,0,1-.493-.116,1.943,1.943,0,0,1,.5,0l1.442.161c1.245.143,3.045.34,5.276.546,4.479.43,10.641.824,17.475.806s13.015-.466,17.475-.9c2.23-.224,4.031-.43,5.276-.582l1.433-.161a1.792,1.792,0,0,1,.5-.036Z" transform="translate(-122.2 -129.475)" fill="#263238"/>
      <path id="Trazado_117992" data-name="Trazado 117992" d="M185.354,307.96c-.054.116-8.859-3.717-19.661-8.563s-19.527-8.868-19.473-8.957,8.859,3.717,19.706,8.563S185.435,307.808,185.354,307.96Z" transform="translate(-114.116 -128.502)" fill="#263238"/>
      <path id="Trazado_117993" data-name="Trazado 117993" d="M176.976,324.587a10.185,10.185,0,0,1-.9-1.245c-.269-.412-.591-.9-.994-1.478s-.842-1.227-1.379-1.917a60.419,60.419,0,0,0-3.905-4.729,59.511,59.511,0,0,0-11.42-9.692c-1.944-1.245-3.744-2.293-5.3-3.081-.77-.421-1.5-.743-2.114-1.048s-1.173-.546-1.621-.734A8.787,8.787,0,0,1,148,300a10.64,10.64,0,0,1,1.451.493c.457.161,1.021.385,1.657.672s1.37.582,2.15.985a56.064,56.064,0,0,1,5.374,3.019,60.191,60.191,0,0,1,6.082,4.479,61.277,61.277,0,0,1,5.428,5.276,53.734,53.734,0,0,1,3.852,4.819c.528.708.94,1.388,1.326,1.971a13.371,13.371,0,0,1,.9,1.523,9.509,9.509,0,0,1,.761,1.353Z" transform="translate(-114.302 -129.5)" fill="#263238"/>
      <path id="Trazado_117994" data-name="Trazado 117994" d="M202.894,344.6a3.594,3.594,0,0,1-.582,0l-1.657-.143-6.145-.591h0L183.3,340.466h-.081v-.081a32.586,32.586,0,0,0-9-9.342,36.015,36.015,0,0,0-11.519-5.786,28.339,28.339,0,0,0-10.417-.743,29.078,29.078,0,0,0-6.888,1.612c-.788.3-1.4.537-1.791.726a4.879,4.879,0,0,1-.636.242,3.526,3.526,0,0,1,.591-.331c.394-.215.994-.475,1.791-.806a27.9,27.9,0,0,1,6.924-1.791,28.188,28.188,0,0,1,10.561.663,35.829,35.829,0,0,1,11.591,5.8,32.6,32.6,0,0,1,9.109,9.495l-.125-.1,11.161,3.457h0l6.127.734,1.648.224a2.553,2.553,0,0,1,.546.161Z" transform="translate(-113.777 -131.996)" fill="#263238"/>
      <path id="Trazado_117995" data-name="Trazado 117995" d="M172.95,340.1a7.317,7.317,0,0,1-1.245.072c-.4,0-.9,0-1.46.054s-1.218.045-1.926.134a42.9,42.9,0,0,0-4.971.734,46.281,46.281,0,0,0-5.912,1.666,42.993,42.993,0,0,0-9.871,5.088c-.609.394-1.111.8-1.576,1.129s-.842.636-1.155.9a6.451,6.451,0,0,1-1,.743,6.083,6.083,0,0,1,.9-.9c.3-.278.663-.609,1.111-.958s.949-.779,1.541-1.191a41.027,41.027,0,0,1,4.282-2.687,40.387,40.387,0,0,1,11.644-4.192,37.148,37.148,0,0,1,5.025-.645c.717-.063,1.37-.054,1.944-.063s1.066,0,1.469,0A6.07,6.07,0,0,1,172.95,340.1Z" transform="translate(-113.867 -133.668)" fill="#263238"/>
      <path id="Trazado_117996" data-name="Trazado 117996" d="M193.517,378.79a1.523,1.523,0,0,1-.484,0,9.65,9.65,0,0,1-1.362-.3,12.638,12.638,0,0,1-4.479-2.436,14.95,14.95,0,0,1-4.389-6.172,19.339,19.339,0,0,1-.994-9.208,22.939,22.939,0,0,1,2.884-8.823,13.6,13.6,0,0,1,5.374-5.276,10.6,10.6,0,0,1,4.962-1.2,9.368,9.368,0,0,1,1.388.152,1.568,1.568,0,0,1,.466.134,11.367,11.367,0,0,0-1.854-.108,10.82,10.82,0,0,0-4.8,1.317,13.436,13.436,0,0,0-5.2,5.2,22.958,22.958,0,0,0-2.795,8.653,19.446,19.446,0,0,0,.9,9.011,14.994,14.994,0,0,0,4.192,6.064,13.292,13.292,0,0,0,4.335,2.517C192.863,378.665,193.526,378.745,193.517,378.79Z" transform="translate(-117.809 -134.232)" fill="#263238"/>
      <path id="Trazado_117997" data-name="Trazado 117997" d="M229.012,350.957l1.872-12.209a4.586,4.586,0,0,1,4.72-3.878l28.878,1.173s1.63,1.388,1.424,2.275c-.179.743-7.5,28.52-9.692,36.841a3.037,3.037,0,0,1-3.028,2.257l-24.578-.8a3.037,3.037,0,0,1-2.9-3.466C226.71,366.175,229.012,350.957,229.012,350.957Z" transform="translate(-122.402 -133.135)" fill="#26aab7"/>
      <path id="Trazado_117998" data-name="Trazado 117998" d="M249.171,354.327s12.8.394,14.081,0,11.85-3.493,11.85-3.493-15.156,2.526-16.069,1.971-2.58-1.621-1.093-3.153c1.953-2.006,6.906-3.861,7.963-4.6l1.451-6.351a46.336,46.336,0,0,1,6.27,0c1.164.278,6.27,6.664,7.873,11.716s4.076,12.442,4.076,12.442l-4.479,7.166-3.251.654s-17.26,2.83-18.721,2.365-12.182-2.741-12.182-2.741l-7.211-4.685.726-3.834-.726-5.912Z" transform="translate(-123.867 -133.523)" fill="#ffbe9d"/>
      <path id="Trazado_117999" data-name="Trazado 117999" d="M204.137,350.964s4.774-4.2,5.983-5.249,5.267-2.275,5.267-2.275l12.047,2.965-.833,5.446s16.616-2.23,18.694-.9,1.129,2.687,0,3.87-16.123,5.115-16.123,5.115l7.811-1.039,12.97,3L238.8,366.666l9.163,2.132a71,71,0,0,1-7.793,2.911,65.621,65.621,0,0,1-7.64.609s-5.374,3.359-6.727,3.359-17.574-3.816-19.4-4.12a3.878,3.878,0,0,0-3.054.761,53.861,53.861,0,0,1-.77-10.417A55.455,55.455,0,0,1,204.137,350.964Z" transform="translate(-119.992 -134.03)" fill="#ffbe9d"/>
      <path id="Trazado_118000" data-name="Trazado 118000" d="M242.6,369.4a23.226,23.226,0,0,1-5.15,1.129,22.62,22.62,0,0,1-5.258.358,45.433,45.433,0,0,1,5.186-.824A41.645,41.645,0,0,1,242.6,369.4Z" transform="translate(-123.081 -136.737)" fill="#eb996e"/>
      <path id="Trazado_118001" data-name="Trazado 118001" d="M231.212,352.116a14.258,14.258,0,0,1-2.839.52,24.185,24.185,0,0,1-6.969,0c-2.687-.636-4.962-1.46-6.691-1.791s-2.813-.466-2.813-.537a2.321,2.321,0,0,1,.779,0,15.092,15.092,0,0,1,2.1.251c1.791.287,4.12,1.075,6.718,1.684a27.831,27.831,0,0,0,6.852.107A21.786,21.786,0,0,1,231.212,352.116Z" transform="translate(-120.965 -134.742)" fill="#eb996e"/>
      <path id="Trazado_118002" data-name="Trazado 118002" d="M247.773,356.159a3.376,3.376,0,0,1-.743.466,19.538,19.538,0,0,1-2.186.967,63.131,63.131,0,0,1-7.533,2.3c-2.992.726-5.724,1.254-7.721,1.541a10.893,10.893,0,0,1-3.26.206,5.15,5.15,0,0,1,.9-.134c.555-.081,1.353-.215,2.338-.4,1.971-.358,4.685-.94,7.667-1.666s5.634-1.5,7.524-2.15S247.738,356.088,247.773,356.159Z" transform="translate(-122.47 -135.355)" fill="#eb996e"/>
      <path id="Trazado_118003" data-name="Trazado 118003" d="M250.141,372a13.439,13.439,0,0,1-2.024.9c-1.29.519-3.126,1.227-5.276,2.042h0a30.143,30.143,0,0,1-3.959.6c-3.269.3-6.225.412-8.348.618-1.066.107-1.917.206-2.508.314a4.414,4.414,0,0,1-.9.134,3.241,3.241,0,0,1,.9-.314,20.386,20.386,0,0,1,2.508-.457c2.132-.3,5.1-.466,8.339-.761a31.593,31.593,0,0,0,3.9-.555h0c2.159-.788,4.013-1.442,5.33-1.89a14.491,14.491,0,0,1,2.042-.627Z" transform="translate(-122.554 -137.008)" fill="#eb996e"/>
      <path id="Trazado_118004" data-name="Trazado 118004" d="M275.364,362.579a2.794,2.794,0,0,1-.743.394,18.406,18.406,0,0,1-2.141.842,29.656,29.656,0,0,1-7.443,1.478,30.258,30.258,0,0,1-7.569-.466,21.879,21.879,0,0,1-2.239-.555,2.687,2.687,0,0,1-.788-.3c0-.072,1.173.233,3.081.52a33.8,33.8,0,0,0,14.86-.994C274.226,362.955,275.337,362.507,275.364,362.579Z" transform="translate(-125.401 -136.025)" fill="#eb996e"/>
      <path id="Trazado_118005" data-name="Trazado 118005" d="M271.868,369.875a5.033,5.033,0,0,1-1.075.349L267.8,371l-4.479,1.093a22.688,22.688,0,0,1-5.6.833c-7.945-1.048-14.1-3.207-13.955-3.529,0,0,.367.152,1.057.367s1.711.493,2.974.806,2.777.645,4.479.985a53.609,53.609,0,0,0,5.491.9,23.923,23.923,0,0,0,5.473-.788l4.479-.994,3.019-.636a6.272,6.272,0,0,1,1.129-.161Z" transform="translate(-124.288 -136.737)" fill="#eb996e"/>
      <path id="Trazado_118006" data-name="Trazado 118006" d="M277.137,342.7a35.289,35.289,0,0,1-4.084,1.415,40.389,40.389,0,0,1-4.1,1.37,13.874,13.874,0,0,1,3.95-1.791A14.218,14.218,0,0,1,277.137,342.7Z" transform="translate(-126.915 -133.952)" fill="#eb996e"/>
      <path id="Trazado_118007" data-name="Trazado 118007" d="M243.3,368.792a47.37,47.37,0,0,1,5.141-2.365,47.321,47.321,0,0,1,5.231-2.168,27.043,27.043,0,0,1-5.043,2.6,27.412,27.412,0,0,1-5.33,1.935Z" transform="translate(-124.24 -136.201)" fill="#eb996e"/>
      <path id="Trazado_118008" data-name="Trazado 118008" d="M253.662,363.753a7.345,7.345,0,0,1-1.98-.116,40.99,40.99,0,0,1-9.468-2.266,7.543,7.543,0,0,1-1.845-.842c.054-.125,2.938.9,6.619,1.791S253.671,363.637,253.662,363.753Z" transform="translate(-123.934 -135.811)" fill="#eb996e"/>
      <path id="Trazado_118009" data-name="Trazado 118009" d="M193.554,335.681c-.125,0-1.917-15.971-3.986-35.694s-3.655-35.748-3.529-35.757,1.917,15.917,3.995,35.623S193.68,335.628,193.554,335.681Z" transform="translate(-118.268 -125.769)" fill="#263238"/>
      <path id="Trazado_118010" data-name="Trazado 118010" d="M305.31,266.24a3.034,3.034,0,0,1,.215.582l.528,1.7c.475,1.469,1.03,3.583,1.7,6.27,1.3,5.374,2.813,12.845,4.084,21.157s2.212,15.89,2.786,21.372c.287,2.741.5,4.962.618,6.5.054.726.1,1.317.125,1.791a4.022,4.022,0,0,1,0,.618,2.974,2.974,0,0,1-.107-.609c-.054-.457-.125-1.039-.215-1.791-.188-1.585-.448-3.789-.761-6.485-.663-5.473-1.63-13.024-2.92-21.336s-2.687-15.783-3.941-21.157c-.645-2.687-1.147-4.846-1.568-6.333-.179-.708-.322-1.281-.439-1.72A3.582,3.582,0,0,1,305.31,266.24Z" transform="translate(-130.706 -125.979)" fill="#263238"/>
      <path id="Trazado_118011" data-name="Trazado 118011" d="M308.9,300.84a2.5,2.5,0,0,1,.161.385l.394,1.12,1.433,4.228c1.209,3.672,2.893,8.778,4.846,14.726v.143l-1.353,4c-.224.7-.448,1.406-.681,2.114-.107.358-.215.717-.331,1.084l-.143.537-.072.269v.2h0s.054-.1-.206-.17l-.045.457c-.546-.09-1.129-.2-1.729-.269a23.591,23.591,0,0,0-12.155,1.164,27.648,27.648,0,0,0-4.6,2.813,13.515,13.515,0,0,1-4.317,2.069,18.309,18.309,0,0,1-6.879.09c-.8-.116-1.424-.233-1.845-.313a5.275,5.275,0,0,1-.636-.143,2.958,2.958,0,0,1,.654.054l1.854.224a18.927,18.927,0,0,0,6.772-.233,13.3,13.3,0,0,0,4.174-2.06,28.466,28.466,0,0,1,4.658-2.893c3.583-1.55,7.99-1.791,12.388-1.236.6.081,1.2.179,1.747.278l1.7.3-1.747.161a.26.26,0,0,1-.215-.134.4.4,0,0,1,0-.1.251.251,0,0,1,0-.072v-.251l.063-.3.161-.555c.107-.367.215-.726.331-1.084.233-.717.457-1.424.69-2.123.466-1.379.9-2.687,1.37-4v.134c-1.9-5.965-3.52-11.089-4.694-14.779-.546-1.791-.994-3.225-1.308-4.264-.134-.466-.251-.842-.331-1.147a1.334,1.334,0,0,1-.108-.43Z" transform="translate(-128.144 -129.587)" fill="#263238"/>
      <rect id="Rectángulo_29507" data-name="Rectángulo 29507" width="60.362" height="9.978" transform="translate(96.703 178.759)" fill="#fff"/>
      <path id="Trazado_118012" data-name="Trazado 118012" d="M214.142,213.857s-19.24,3.422-21.873,7.64-1.308,11.331-1.308,11.331l2.1,1.585,25.3,14.752s14.752,16.866,22.662,15.818,20.557-16.338,23.978-20.028,19.5-17.664,19.5-17.664,7.381-2.633,5.536-9.217-25.035-9.486-25.035-9.486Z" transform="translate(-118.747 -119.967)" fill="#455a64"/>
      <path id="Trazado_118013" data-name="Trazado 118013" d="M308.763,178.253c4.067-5.93,2.069-15.12-4.093-18.81-3.278-1.98-7.434-2.562-10.068-5.33s-3-7.112-3.466-11.008c-.5-4.246-1.4-8.527-3.583-12.209s-5.8-6.691-10.041-7.237c-3.162-.412-6.485.537-9.495-.511-3.431-1.191-5.473-4.586-8-7.166a21.327,21.327,0,0,0-18.371-6.091c-4.577.743-9.074,3.243-11.2,7.363s-1.173,9.853,2.741,12.37l-12.567,25.734a29.451,29.451,0,0,0,16.633,41.257c3.583,1.236,7.6,1.863,10.435,4.4,2.177,1.926,3.359,4.711,5.061,7.067s4.407,4.479,7.255,3.914c2.186-.421,3.923-2.311,6.145-2.463s4.1,1.469,6.1,2.445a11.644,11.644,0,0,0,14.188-3.663c1.55-2.212,2.445-5.132,4.864-6.342s5.374-.152,8.061-.3c5.374-.314,9.593-6.413,7.963-11.555-.636-2-1.988-3.852-1.845-5.948C305.61,181.881,307.509,180.143,308.763,178.253Z" transform="translate(-121.538 -109.649)" fill="#b89841"/>
      <path id="Trazado_118014" data-name="Trazado 118014" d="M278.39,154.852c-1-11.026-8.706-24.364-19.706-22.895l-34.118,9.665a6.485,6.485,0,0,0-5.607,6.736l3.466,81.573,20.655,19.482h0l20.028-20.825c-.2-8.357-.376-16.078-.376-16.051s14.045-2.741,16.445-21.237C280.405,182.144,279.519,167.1,278.39,154.852Z" transform="translate(-121.701 -111.964)" fill="#ffbe9d"/>
      <path id="Trazado_118015" data-name="Trazado 118015" d="M277.922,176.7a2.365,2.365,0,0,1-2.212,2.445,2.257,2.257,0,0,1-2.49-2.06,2.356,2.356,0,0,1,2.2-2.445,2.266,2.266,0,0,1,2.5,2.06Z" transform="translate(-127.36 -116.425)" fill="#263238"/>
      <path id="Trazado_118016" data-name="Trazado 118016" d="M280.833,166.074c-.278.322-2.1-.949-4.649-.9s-4.362,1.406-4.649,1.1c-.143-.134.143-.7.9-1.308a6.386,6.386,0,0,1,3.708-1.263,6.27,6.27,0,0,1,3.717,1.084C280.7,165.385,280.977,165.94,280.833,166.074Z" transform="translate(-127.181 -115.287)" fill="#263238"/>
      <path id="Trazado_118017" data-name="Trazado 118017" d="M250.942,176.7a2.365,2.365,0,0,1-2.212,2.445,2.257,2.257,0,0,1-2.49-2.06,2.365,2.365,0,0,1,2.2-2.445,2.266,2.266,0,0,1,2.5,2.06Z" transform="translate(-124.546 -116.425)" fill="#263238"/>
      <path id="Trazado_118018" data-name="Trazado 118018" d="M252.973,167.393c-.287.322-2.114-.949-4.658-.9s-4.362,1.4-4.649,1.093c-.134-.134.143-.7.941-1.308a6.414,6.414,0,0,1,3.708-1.263,6.27,6.27,0,0,1,3.717,1.084C252.829,166.7,253.107,167.259,252.973,167.393Z" transform="translate(-124.275 -115.423)" fill="#263238"/>
      <path id="Trazado_118019" data-name="Trazado 118019" d="M264.792,185.955c0-.143,1.559-.466,4.1-.9.654-.09,1.263-.233,1.353-.681a3.215,3.215,0,0,0-.484-1.908c-.654-1.559-1.344-3.18-2.06-4.891-2.866-6.96-4.953-12.683-4.676-12.8s2.83,5.437,5.7,12.4q1.039,2.562,1.98,4.918a3.78,3.78,0,0,1,.358,2.589,1.594,1.594,0,0,1-1.048.976,4.112,4.112,0,0,1-1.093.188C266.359,186.044,264.792,186.1,264.792,185.955Z" transform="translate(-126.294 -115.398)" fill="#263238"/>
      <path id="Trazado_118020" data-name="Trazado 118020" d="M264.968,221.246a46.882,46.882,0,0,1-24.838-5.876s6.566,12.54,24.946,10.346Z" transform="translate(-123.909 -120.674)" fill="#eb996e"/>
      <path id="Trazado_118021" data-name="Trazado 118021" d="M263.666,194.878a6.27,6.27,0,0,0-5.222-2.589,4.066,4.066,0,0,0-3.3,1.917,3.726,3.726,0,0,0,4.344,5.464,9.262,9.262,0,0,0,3.681-2.418,2.9,2.9,0,0,0,.77-.967,1.281,1.281,0,0,0-.134-1.29" transform="translate(-125.42 -118.267)" fill="#eb996e"/>
      <path id="Trazado_118022" data-name="Trazado 118022" d="M256.616,190.62c.412,0,.493,2.687,2.911,4.613s5.374,1.5,5.374,1.89c0,.17-.636.546-1.881.618a6.825,6.825,0,0,1-4.479-1.415,5.992,5.992,0,0,1-2.266-3.878C256.132,191.3,256.428,190.611,256.616,190.62Z" transform="translate(-125.589 -118.093)" fill="#263238"/>
      <path id="Trazado_118023" data-name="Trazado 118023" d="M253.654,155.8c-.233.7-2.777.448-5.751.9s-5.374,1.326-5.768.717c-.188-.287.215-.949,1.164-1.648a10.122,10.122,0,0,1,8.778-1.218C253.17,154.9,253.734,155.429,253.654,155.8Z" transform="translate(-124.114 -114.279)" fill="#7e57c2"/>
      <path id="Trazado_118024" data-name="Trazado 118024" d="M279.641,156.327c-.43.591-2.195,0-4.308.072s-3.87.5-4.3-.09c-.188-.3.081-.9.842-1.442a6.216,6.216,0,0,1,6.933,0C279.569,155.449,279.829,156.04,279.641,156.327Z" transform="translate(-127.126 -114.255)" fill="#7e57c2"/>
      <path id="Trazado_118025" data-name="Trazado 118025" d="M292.559,149.894a12.647,12.647,0,0,0-4.855-6.96c-1.326-.9-2.866-1.4-4.1-2.392-2.687-2.15-3.278-5.885-4.917-8.886a13.9,13.9,0,0,0-10.6-7.031c-3.646-.376-7.408.717-10.964-.179-2.624-.663-4.918-2.365-7.587-2.875-5.186-.985-10.005,2.741-13.767,6.44,0,3.717,2.947,6.2,5.8,8.581a12.854,12.854,0,0,0,10.426,2.75c2.83-.52,5.939-1.944,8.384-.439s2.687,5.473,4.98,7.461c3.269,2.839,8.465.179,12.612,1.406,3.207.949,5.213,4.013,7.336,6.592s5.321,5.025,8.527,4.076A37.621,37.621,0,0,0,292.559,149.894Z" transform="translate(-123.454 -110.876)" fill="#b89841"/>
      <path id="Trazado_118026" data-name="Trazado 118026" d="M248.445,134.383c-2.32-.672-7.076-2.177-8.321-4.192-2.687-4.38-7.488-7.372-12.37-7.1a11.743,11.743,0,0,0-10.561,9.271,16.857,16.857,0,0,0-14.493,9.333,18.4,18.4,0,0,0-.9,2.159,12.844,12.844,0,0,0-.9,10.749c.8,2.1,2.168,4.434,1.093,6.4s-3.878,2.078-6.046,2.822a8.527,8.527,0,0,0-5.374,9.513c.3,1.4.967,2.795.681,4.192s-1.55,2.481-2.508,3.583a10.6,10.6,0,0,0,6.225,17.323c1.657.3,3.449.233,4.882,1.111,1.639,1.012,2.356,2.992,3.52,4.532a9.127,9.127,0,0,0,9.925,3.126,8.3,8.3,0,0,0,1.988-1c1.111,1.541,2.365,6.951,5.374,6.951l-.2-43.192a3.189,3.189,0,0,0,2.356,1.845c6.225,1.406,7.166-11.429,5.751-14.914a36.267,36.267,0,0,0,6.27-6.575c1.72-2.535,3.234-9.468,2.866-12.594C239.9,137.832,249.466,134.652,248.445,134.383Z" transform="translate(-118.286 -111.049)" fill="#b89841"/>
      <path id="Trazado_118027" data-name="Trazado 118027" d="M224.98,178.473c-.2-3.95-5.025-4.792-8.447-2.813-1.872,1.084-3.305,3.26-3.135,7.452.457,11.17,11.582,8.4,11.582,8.061S225.213,183.086,224.98,178.473Z" transform="translate(-121.12 -116.426)" fill="#ffbe9d"/>
      <path id="Trazado_118028" data-name="Trazado 118028" d="M221.728,187.541c-.054,0-.188.143-.511.3a1.917,1.917,0,0,1-1.451.09c-1.2-.385-2.275-2.212-2.409-4.228a6.333,6.333,0,0,1,.43-2.8,2.266,2.266,0,0,1,1.4-1.559.994.994,0,0,1,1.173.484c.161.314.1.537.161.555s.233-.2.125-.654a1.254,1.254,0,0,0-.466-.69,1.478,1.478,0,0,0-1.093-.233,2.687,2.687,0,0,0-1.962,1.791,6.664,6.664,0,0,0-.546,3.144c.161,2.248,1.406,4.308,3.036,4.711a2.1,2.1,0,0,0,1.791-.376C221.72,187.809,221.764,187.558,221.728,187.541Z" transform="translate(-121.451 -116.859)" fill="#eb996e"/>
      <path id="Trazado_118029" data-name="Trazado 118029" d="M237.866,267.133a2.3,2.3,0,0,1-.5-.215l-1.379-.708c-1.191-.618-2.9-1.541-5-2.687-4.192-2.356-9.9-5.768-16-9.853s-11.447-8.061-15.227-11.008c-1.89-1.478-3.4-2.687-4.425-3.583-.484-.4-.9-.734-1.182-1s-.4-.358-.385-.376a3.466,3.466,0,0,1,.448.3l1.227.9,4.523,3.449c3.825,2.9,9.19,6.816,15.281,10.883s11.761,7.524,15.9,9.942l4.926,2.848,1.335.788A2.551,2.551,0,0,1,237.866,267.133Z" transform="translate(-119.074 -123.003)" fill="#263238"/>
      <path id="Trazado_118030" data-name="Trazado 118030" d="M291.13,229.54a2.078,2.078,0,0,1-.322.421l-.985,1.173c-.9,1.012-2.15,2.445-3.762,4.2-3.225,3.493-7.811,8.214-13.14,13.149s-10.372,9.163-14.108,12.11c-1.863,1.478-3.395,2.687-4.479,3.431l-1.236.9a2.285,2.285,0,0,1-.448.287,2.589,2.589,0,0,1,.394-.358l1.182-.976,4.371-3.538c3.681-3.019,8.68-7.273,14-12.2s9.934-9.6,13.212-13.042l3.87-4.093,1.057-1.111A2.572,2.572,0,0,1,291.13,229.54Z" transform="translate(-125.215 -122.152)" fill="#263238"/>
      <path id="Trazado_118031" data-name="Trazado 118031" d="M241.379,259.006c-.09.1-8.957-7.694-19.706-17.4S202.2,223.983,202.29,223.84s8.9,7.694,19.706,17.413S241.442,258.916,241.379,259.006Z" transform="translate(-119.963 -121.557)" fill="#263238"/>
      <path id="Trazado_118032" data-name="Trazado 118032" d="M276.062,228.06a1.79,1.79,0,0,1-.269.34l-.833.9-3.135,3.368c-2.687,2.822-6.342,6.709-10.444,10.973s-7.838,8.115-10.552,10.883l-3.234,3.26-.9.9c-.215.2-.322.287-.34.278a1.791,1.791,0,0,1,.269-.34c.224-.26.5-.564.833-.9l3.126-3.368c2.687-2.822,6.351-6.709,10.453-10.973s7.829-8.115,10.552-10.883l3.234-3.26.9-.9C275.937,228.141,276.044,228.051,276.062,228.06Z" transform="translate(-124.559 -121.997)" fill="#263238"/>
      <path id="Trazado_118033" data-name="Trazado 118033" d="M243.727,268.131a2.08,2.08,0,0,1-.4.143,8.646,8.646,0,0,1-1.182.3,15.352,15.352,0,0,1-4.479.251,17.573,17.573,0,0,1-6.4-1.854,15.755,15.755,0,0,1-3.3-2.195,8.061,8.061,0,0,1-.761-.708,8.446,8.446,0,0,1-.734-.761c-.233-.278-.475-.52-.7-.833a1.532,1.532,0,0,1-.26-.573.9.9,0,0,1,.152-.69,1.568,1.568,0,0,1,1.111-.528,8.888,8.888,0,0,1,1.093,0,19.909,19.909,0,0,1,2.087.143,20.846,20.846,0,0,1,3.869.806,22.392,22.392,0,0,1,6.01,2.875,19.921,19.921,0,0,1,3.422,2.911,11.078,11.078,0,0,1,.8.9c.179.215.26.331.251.349a29.665,29.665,0,0,0-4.649-3.914,23.36,23.36,0,0,0-5.956-2.732,21.424,21.424,0,0,0-3.8-.77,19.086,19.086,0,0,0-2.042-.125,9.8,9.8,0,0,0-1.03,0,1.209,1.209,0,0,0-.788.331c-.322.412.358,1.021.779,1.514a9.369,9.369,0,0,0,.708.752,7.6,7.6,0,0,0,.743.681,15.684,15.684,0,0,0,3.189,2.168,17.915,17.915,0,0,0,6.27,1.9,16.678,16.678,0,0,0,4.425-.1A14.183,14.183,0,0,1,243.727,268.131Z" transform="translate(-122.383 -125.398)" fill="#fff"/>
      <path id="Trazado_118034" data-name="Trazado 118034" d="M246.458,268.31a1.308,1.308,0,0,1,0-.412,8.67,8.67,0,0,1,.224-1.164,12.763,12.763,0,0,1,1.872-3.923,20.35,20.35,0,0,1,4.523-4.6c.967-.743,2.015-1.46,3.117-2.186.564-.358,1.1-.726,1.7-1.084a3.4,3.4,0,0,1,1.012-.421,1.648,1.648,0,0,1,1.173.161,1.917,1.917,0,0,1,.743,2.078,4.774,4.774,0,0,1-1.012,1.791,26.383,26.383,0,0,1-2.553,2.839,26.981,26.981,0,0,1-5.15,3.878,24.451,24.451,0,0,1-3.932,1.845c-.484.179-.9.3-1.12.367a1.084,1.084,0,0,1-.4.09,15.821,15.821,0,0,1,1.46-.627A29.352,29.352,0,0,0,251.94,265a28.084,28.084,0,0,0,5.016-3.914,26.449,26.449,0,0,0,2.5-2.8,4.54,4.54,0,0,0,.9-1.657,1.46,1.46,0,0,0-.537-1.568,1.72,1.72,0,0,0-1.711.26c-.564.331-1.138.717-1.684,1.066-1.1.717-2.15,1.415-3.1,2.141A20.727,20.727,0,0,0,248.841,263a13.561,13.561,0,0,0-1.962,3.789C246.575,267.755,246.494,268.319,246.458,268.31Z" transform="translate(-124.567 -124.753)" fill="#fff"/>
      <path id="Trazado_118035" data-name="Trazado 118035" d="M246.806,296.46a5.993,5.993,0,0,1-.278-1.057c-.161-.681-.349-1.675-.537-2.911a71.773,71.773,0,0,1-.349-19.527c.152-1.245.3-2.239.439-2.929a5.463,5.463,0,0,1,.242-1.066,4.577,4.577,0,0,1-.063,1.093c-.081.69-.179,1.693-.287,2.938a89.644,89.644,0,0,0,.34,19.437c.152,1.245.287,2.239.394,2.938A4.856,4.856,0,0,1,246.806,296.46Z" transform="translate(-124.431 -126.264)" fill="#fff"/>
      <path id="Trazado_118036" data-name="Trazado 118036" d="M252.316,292.465a3.9,3.9,0,0,1-.394-.851c-.224-.564-.528-1.379-.9-2.4-.717-2.042-1.612-4.9-2.418-8.061s-1.388-6.136-1.738-8.276c-.17-1.066-.3-1.935-.358-2.535a3.906,3.906,0,0,1-.063-.94,3.584,3.584,0,0,1,.242.9c.143.69.3,1.523.511,2.508.421,2.114,1.048,5.025,1.854,8.214s1.648,6.046,2.284,8.061c.287.958.537,1.791.743,2.445A3.144,3.144,0,0,1,252.316,292.465Z" transform="translate(-124.568 -126.309)" fill="#fff"/>
    </g>
  </g>
</svg>
