<svg xmlns="http://www.w3.org/2000/svg" width="352" height="252.371" viewBox="0 0 352 252.371">
  <g id="Grupo_55808" data-name="Grupo 55808" transform="translate(11102 5595.771)">
    <text id="Deseo" transform="translate(-10954 -5558)" fill="#12263f" font-size="20" font-family="Roboto-Black, Roboto" font-weight="800"><tspan x="0" y="0">Deseo</tspan></text>
    <rect id="Rectángulo_30697" data-name="Rectángulo 30697" width="337.715" height="0.169" transform="translate(-11087.715 -5398.942)" fill="#ebebeb"/>
    <rect id="Rectángulo_30698" data-name="Rectángulo 30698" width="22.37" height="0.169" transform="translate(-10806.209 -5388.075)" fill="#ebebeb"/>
    <rect id="Rectángulo_30699" data-name="Rectángulo 30699" width="5.869" height="0.169" transform="translate(-10869.869 -5386.238)" fill="#ebebeb"/>
    <rect id="Rectángulo_30700" data-name="Rectángulo 30700" width="12.961" height="0.169" transform="translate(-10819.846 -5394.343)" fill="#ebebeb"/>
    <rect id="Rectángulo_30701" data-name="Rectángulo 30701" width="29.172" height="0.169" transform="translate(-11052.281 -5393.208)" fill="#ebebeb"/>
    <rect id="Rectángulo_30702" data-name="Rectángulo 30702" width="4.275" height="0.169" transform="translate(-11017.092 -5393.208)" fill="#ebebeb"/>
    <rect id="Rectángulo_30703" data-name="Rectángulo 30703" width="63.274" height="0.169" transform="translate(-10998.916 -5390.358)" fill="#ebebeb"/>
    <path id="Trazado_128932" data-name="Trazado 128932" d="M163.859,242.957H152.883c-2.087-3.181-2.384-6.288,0-9.267h10.976A7.642,7.642,0,0,1,163.859,242.957Z" transform="translate(-11136.791 -5733.076)" fill="#e0e0e0"/>
    <path id="Trazado_128933" data-name="Trazado 128933" d="M189.019,242.957H178.043c-2.087-3.181-2.384-6.288,0-9.267h10.976A7.642,7.642,0,0,1,189.019,242.957Z" transform="translate(-11144.957 -5733.076)" fill="#e0e0e0"/>
    <rect id="Rectángulo_30704" data-name="Rectángulo 30704" width="10.793" height="1.594" transform="translate(-10966.881 -5500.986)" fill="#e0e0e0"/>
    <path id="Trazado_128934" data-name="Trazado 128934" d="M189.819,230.645h-11.7a1.2,1.2,0,0,1,0-1.4h11.7a1.2,1.2,0,0,1,0,1.4Z" transform="translate(-11145.453 -5731.631)" fill="#e0e0e0"/>
    <path id="Trazado_128935" data-name="Trazado 128935" d="M211.081,240.876h-9.5q-4.255-5.694,0-12.306h9.5C213.958,233.116,213.87,237.209,211.081,240.876Z" transform="translate(-11152.45 -5731.414)" fill="#e0e0e0"/>
    <path id="Trazado_128936" data-name="Trazado 128936" d="M203.137,225.7h8.4a.534.534,0,0,1,.534.534v1.4H202.61v-1.4a.534.534,0,0,1,.527-.534Z" transform="translate(-11153.477 -5730.482)" fill="#e0e0e0"/>
    <path id="Trazado_128937" data-name="Trazado 128937" d="M234.354,242.313h-9.5q-4.255-5.7,0-12.313h9.5C237.238,234.552,237.144,238.639,234.354,242.313Z" transform="translate(-11160.006 -5731.878)" fill="#e0e0e0"/>
    <path id="Trazado_128938" data-name="Trazado 128938" d="M226.41,227.13h8.4a.534.534,0,0,1,.534.534v1.4H225.89v-1.4a.534.534,0,0,1,.52-.534Z" transform="translate(-11161.032 -5730.946)" fill="#e0e0e0"/>
    <path id="Trazado_128939" data-name="Trazado 128939" d="M257.264,242.313h-9.5q-4.255-5.7,0-12.313h9.5C260.148,234.552,260.067,238.639,257.264,242.313Z" transform="translate(-11167.442 -5731.878)" fill="#e0e0e0"/>
    <path id="Trazado_128940" data-name="Trazado 128940" d="M249.324,227.13h8.389a.534.534,0,0,1,.534.534v1.4H248.79v-1.4A.534.534,0,0,1,249.324,227.13Z" transform="translate(-11168.465 -5730.946)" fill="#e0e0e0"/>
    <path id="Trazado_128941" data-name="Trazado 128941" d="M287.244,241.433H271.513a14.805,14.805,0,0,1,0-13.374h15.731a14.805,14.805,0,0,1,0,13.374Z" transform="translate(-11175.322 -5731.248)" fill="#e0e0e0"/>
    <g id="Grupo_55806" data-name="Grupo 55806" transform="translate(-11609 -10815)">
      <g id="Image_Place_Holder" data-name="Image Place Holder" transform="translate(507 5219.229)" opacity="0.1">
        <rect id="Image_Place_Holder-2" data-name="Image Place Holder" width="352" height="252.371" rx="10" transform="translate(0 0)" fill="#7d6eb2"/>
      </g>
      <g id="freepik--Hamburger--inject-2" transform="translate(582.418 5309.677)">
        <path id="Trazado_126160" data-name="Trazado 126160" d="M90.51,387.47l56.061,12.752c0,3.647,22.755,6.6,50.833,6.6s50.813-2.952,50.813-6.6l56.061-12.752Z" transform="translate(-90.51 -276.665)" fill="#12263f"/>
        <path id="Trazado_126161" data-name="Trazado 126161" d="M90.51,387.47l56.061,12.752c0,3.647,22.755,6.6,50.833,6.6s50.813-2.952,50.813-6.6l56.061-12.752Z" transform="translate(-90.51 -279.665)" fill="#7d7d7d" opacity="0.5"/>
        <ellipse id="Elipse_4249" data-name="Elipse 4249" cx="106.866" cy="13.873" rx="106.866" ry="13.873" transform="translate(0.007 95.931)" fill="#12263f"/>
        <ellipse id="Elipse_4250" data-name="Elipse 4250" cx="106.866" cy="13.873" rx="106.866" ry="13.873" transform="translate(0.007 95.931)" fill="#7d7d7d" opacity="0.6"/>
        <path id="Trazado_126162" data-name="Trazado 126162" d="M286.575,330.289a5.491,5.491,0,0,0-.257-1.641,9.347,9.347,0,0,0,.257-2.155v-.432a5.248,5.248,0,0,0-.432-7c0-.034,0-.061,0-.095a5.471,5.471,0,0,0-1.594-3.931,2.7,2.7,0,0,0,.25-1.128c0-1.655-1.5-3.046-3.553-3.5a5.849,5.849,0,0,0-4.694-2.35,6.619,6.619,0,0,0-.736.047,6.964,6.964,0,0,0-5.863-2.837,8.233,8.233,0,0,0-1.939.23,2.857,2.857,0,0,0-2.7-1.945,2.817,2.817,0,0,0-1.547.459c-.858-1.587-3.283-2.7-6.146-2.7a9.624,9.624,0,0,0-3.465.608,9.915,9.915,0,0,0-6.025-1.939,10.091,10.091,0,0,0-5.4,1.506c-.527-1.351-1.351-2.229-2.337-2.229s-1.7.777-2.236,1.986a5.275,5.275,0,0,0-4.465-2.3,5.72,5.72,0,0,0-2.425.534,5.93,5.93,0,0,0-3.087-.838,6.038,6.038,0,0,0-2.8.675,3.546,3.546,0,0,0-6.079,0c-5.984-.426-12.191-.675-18.568-.675a233.221,233.221,0,0,0-45.254,4.167,5.026,5.026,0,0,0-1.689-.284,3.379,3.379,0,0,0-3.006,1.3l-.446.108a4.053,4.053,0,0,0-1.837-.426,3.438,3.438,0,0,0-3.134,1.682h-.095a5.829,5.829,0,0,0-2.4-.473c-2.026,0-3.681.885-3.681,1.979a.972.972,0,0,0,.054.311l-.419.142a1.277,1.277,0,0,0-1.047-.763,1.155,1.155,0,0,0-.919.554,2.844,2.844,0,0,0-2.182,1.121h-.554c-2.371,0-4.35.946-4.9,2.222a5.05,5.05,0,0,0-1.013-.1,5.4,5.4,0,0,0-4.877,3.087,4.384,4.384,0,0,0-.52-.034c-1.81,0-3.276,1.067-3.276,2.384h0c-2.438.189-4.384,1.682-4.728,3.58a2.472,2.472,0,0,0-.8,1.763,2.391,2.391,0,0,0,.52,1.459,3.945,3.945,0,0,0-1.567,3.235,3.877,3.877,0,0,0,1.8,3.377s0,.054,0,.081a2.911,2.911,0,0,0,1.351,2.31c.081.155.176.3.263.453a3.8,3.8,0,0,0-.135,1c0,2.546,2.526,4.62,5.7,4.728l.317.236c.4,2.026,2.749,3.607,5.667,3.776a5.012,5.012,0,0,0,.878,1.162,1.763,1.763,0,0,0-.493,1.168c0,1.77,3.229,3.2,7.22,3.2a14.973,14.973,0,0,0,3.222-.338,8.551,8.551,0,0,0,5.566,1.824,9.981,9.981,0,0,0,1.641-.128,4.9,4.9,0,0,0,3.215,1.081,5.606,5.606,0,0,0,1.689-.25,10.927,10.927,0,0,0,1.986.25,229.542,229.542,0,0,0,47.841,4.728c23.87,0,45.463-3.154,61.032-8.247a8.959,8.959,0,0,0,1.668.162,7.538,7.538,0,0,0,5.221-1.911,14.282,14.282,0,0,0,2.114.155c3.458,0,6.4-1.182,7.558-2.837h.52c2.756,0,4.991-1.77,4.991-3.951a3.377,3.377,0,0,0-.919-2.276h0a2.276,2.276,0,0,0,1.925,1.175,2.64,2.64,0,0,0,2.384-2.837,3.113,3.113,0,0,0-.777-2.094A5.587,5.587,0,0,0,286.575,330.289Z" transform="translate(-97.799 -248.494)" fill="#e4af6c"/>
        <path id="Trazado_126163" data-name="Trazado 126163" d="M286.575,330.289a5.491,5.491,0,0,0-.257-1.641,9.347,9.347,0,0,0,.257-2.155v-.432a5.248,5.248,0,0,0-.432-7c0-.034,0-.061,0-.095a5.471,5.471,0,0,0-1.594-3.931,2.7,2.7,0,0,0,.25-1.128c0-1.655-1.5-3.046-3.553-3.5a5.849,5.849,0,0,0-4.694-2.35,6.619,6.619,0,0,0-.736.047,6.964,6.964,0,0,0-5.863-2.837,8.233,8.233,0,0,0-1.939.23,2.857,2.857,0,0,0-2.7-1.945,2.817,2.817,0,0,0-1.547.459c-.858-1.587-3.283-2.7-6.146-2.7a9.624,9.624,0,0,0-3.465.608,9.915,9.915,0,0,0-6.025-1.939,10.091,10.091,0,0,0-5.4,1.506c-.527-1.351-1.351-2.229-2.337-2.229s-1.7.777-2.236,1.986a5.275,5.275,0,0,0-4.465-2.3,5.72,5.72,0,0,0-2.425.534,5.93,5.93,0,0,0-3.087-.838,6.038,6.038,0,0,0-2.8.675,3.546,3.546,0,0,0-6.079,0c-5.984-.426-12.191-.675-18.568-.675a233.221,233.221,0,0,0-45.254,4.167,5.026,5.026,0,0,0-1.689-.284,3.379,3.379,0,0,0-3.006,1.3l-.446.108a4.053,4.053,0,0,0-1.837-.426,3.438,3.438,0,0,0-3.134,1.682h-.095a5.829,5.829,0,0,0-2.4-.473c-2.026,0-3.681.885-3.681,1.979a.972.972,0,0,0,.054.311l-.419.142a1.277,1.277,0,0,0-1.047-.763,1.155,1.155,0,0,0-.919.554,2.844,2.844,0,0,0-2.182,1.121h-.554c-2.371,0-4.35.946-4.9,2.222a5.05,5.05,0,0,0-1.013-.1,5.4,5.4,0,0,0-4.877,3.087,4.384,4.384,0,0,0-.52-.034c-1.81,0-3.276,1.067-3.276,2.384h0c-2.438.189-4.384,1.682-4.728,3.58a2.472,2.472,0,0,0-.8,1.763,2.391,2.391,0,0,0,.52,1.459,3.945,3.945,0,0,0-1.567,3.235,3.877,3.877,0,0,0,1.8,3.377s0,.054,0,.081a2.911,2.911,0,0,0,1.351,2.31c.081.155.176.3.263.453a3.8,3.8,0,0,0-.135,1c0,2.546,2.526,4.62,5.7,4.728l.317.236c.4,2.026,2.749,3.607,5.667,3.776a5.012,5.012,0,0,0,.878,1.162,1.763,1.763,0,0,0-.493,1.168c0,1.77,3.229,3.2,7.22,3.2a14.973,14.973,0,0,0,3.222-.338,8.551,8.551,0,0,0,5.566,1.824,9.981,9.981,0,0,0,1.641-.128,4.9,4.9,0,0,0,3.215,1.081,5.606,5.606,0,0,0,1.689-.25,10.927,10.927,0,0,0,1.986.25,229.542,229.542,0,0,0,47.841,4.728c23.87,0,45.463-3.154,61.032-8.247a8.959,8.959,0,0,0,1.668.162,7.538,7.538,0,0,0,5.221-1.911,14.282,14.282,0,0,0,2.114.155c3.458,0,6.4-1.182,7.558-2.837h.52c2.756,0,4.991-1.77,4.991-3.951a3.377,3.377,0,0,0-.919-2.276h0a2.276,2.276,0,0,0,1.925,1.175,2.64,2.64,0,0,0,2.384-2.837,3.113,3.113,0,0,0-.777-2.094A5.587,5.587,0,0,0,286.575,330.289Z" transform="translate(-97.799 -248.494)" opacity="0.45"/>
        <path id="Trazado_126164" data-name="Trazado 126164" d="M286.546,335.318a5.49,5.49,0,0,0-.257-1.641,9.347,9.347,0,0,0,.257-2.155v-.432a5.248,5.248,0,0,0-.432-7c0-.034,0-.061,0-.095a5.471,5.471,0,0,0-1.594-3.931,2.7,2.7,0,0,0,.25-1.128c0-1.655-1.5-3.046-3.553-3.5a5.849,5.849,0,0,0-4.694-2.35h-.054a5.128,5.128,0,0,1,.061.723,4.525,4.525,0,0,1-.993,2.837c0,.128,0,.257,0,.378a8.1,8.1,0,0,1-.223,1.884,4.681,4.681,0,0,1,.061,2.648,2.7,2.7,0,0,1,.675,1.83,2.31,2.31,0,0,1-2.08,2.479,2.026,2.026,0,0,1-1.682-1.027h0a2.985,2.985,0,0,1,.8,1.986c0,1.9-1.945,3.451-4.35,3.451h-.453c-1.006,1.445-3.58,2.472-6.6,2.472a13.543,13.543,0,0,1-1.844-.128,6.606,6.606,0,0,1-4.552,1.662,7.868,7.868,0,0,1-1.459-.135c-13.583,4.438-32.421,7.193-53.244,7.193a199.822,199.822,0,0,1-41.742-4.113,9.383,9.383,0,0,1-1.729-.216,4.925,4.925,0,0,1-1.479.223,4.255,4.255,0,0,1-2.8-.946,8.976,8.976,0,0,1-1.432.115,7.43,7.43,0,0,1-4.856-1.594,12.96,12.96,0,0,1-2.81.29c-3.478,0-6.3-1.25-6.3-2.79a1.56,1.56,0,0,1,.432-1.02,4.051,4.051,0,0,1-.763-1.013c-2.553-.149-4.6-1.526-4.944-3.289l-.277-.209c-2.769-.115-4.971-1.932-4.971-4.147a3.376,3.376,0,0,1,.115-.871c-.081-.135-.162-.263-.23-.4a2.54,2.54,0,0,1-1.189-2.026s0-.047,0-.068A3.3,3.3,0,0,1,124.112,317a5.2,5.2,0,0,0-.865,1.29,4.39,4.39,0,0,0-.52-.034c-1.81,0-3.276,1.067-3.276,2.384h0c-2.438.189-4.384,1.682-4.728,3.58a2.472,2.472,0,0,0-.8,1.763,2.391,2.391,0,0,0,.52,1.459,3.945,3.945,0,0,0-1.567,3.235,3.877,3.877,0,0,0,1.8,3.377v.081a2.911,2.911,0,0,0,1.351,2.31c.081.155.176.3.263.453a3.8,3.8,0,0,0-.135,1c0,2.546,2.526,4.62,5.7,4.728l.317.236c.4,2.026,2.749,3.607,5.667,3.776a5.01,5.01,0,0,0,.878,1.162,1.763,1.763,0,0,0-.493,1.169c0,1.77,3.229,3.2,7.22,3.2a14.973,14.973,0,0,0,3.222-.338,8.551,8.551,0,0,0,5.566,1.824,9.978,9.978,0,0,0,1.641-.128,4.9,4.9,0,0,0,3.215,1.081,5.6,5.6,0,0,0,1.689-.25,10.928,10.928,0,0,0,1.986.25,229.537,229.537,0,0,0,47.841,4.728c23.87,0,45.463-3.154,61.032-8.247a8.96,8.96,0,0,0,1.668.162,7.538,7.538,0,0,0,5.221-1.911,14.275,14.275,0,0,0,2.114.155c3.458,0,6.4-1.182,7.558-2.837h.52c2.756,0,4.991-1.77,4.991-3.951a3.377,3.377,0,0,0-.919-2.276h0a2.276,2.276,0,0,0,1.925,1.175,2.64,2.64,0,0,0,2.384-2.837,3.114,3.114,0,0,0-.777-2.094A5.589,5.589,0,0,0,286.546,335.318Z" transform="translate(-97.77 -253.524)" opacity="0.25"/>
        <path id="Trazado_126165" data-name="Trazado 126165" d="M118.071,360.109c58,15.373,114.148,15.2,168.141-1.209,7.322,6.369,6.369,13.063,0,19.959-19.952,14.15-127.332,16.21-166.831,2.7Q110.27,372.024,118.071,360.109Z" transform="translate(-98.287 -268.392)" fill="#e4af6c"/>
        <path id="Trazado_126167" data-name="Trazado 126167" d="M286.13,294.7c0-6.417-36.075-6.876-80.572-6.876S125,293.048,125,299.458s36.075,11.617,80.572,11.617S286.13,301.133,286.13,294.7Z" transform="translate(-101.704 -245.322)" fill="#e4af6c"/>
        <path id="Trazado_126168" data-name="Trazado 126168" d="M125,302.129l.446,11.482c44.045,12.468,99.822,7.909,161.3-4.9A77.889,77.889,0,0,0,286,296.05Q203.978,312.666,125,302.129Z" transform="translate(-101.704 -247.993)" fill="#e4af6c"/>
        <path id="Trazado_126169" data-name="Trazado 126169" d="M125,302.129l.446,11.482c44.045,12.468,99.822,7.909,161.3-4.9A77.889,77.889,0,0,0,286,296.05Q203.978,312.666,125,302.129Z" transform="translate(-101.704 -247.993)" opacity="0.2"/>
        <path id="Trazado_126170" data-name="Trazado 126170" d="M114.911,279S88.366,225.38,201.629,225.38s82.51,47.955,82.51,47.955C227.127,280.272,171.053,283.028,114.911,279Z" transform="translate(-97.552 -225.056)" fill="#e4af6c"/>
        <path id="Trazado_126172" data-name="Trazado 126172" d="M306.75,276.58c0,1.439.615,2.6,1.351,2.6s1.351-1.162,1.351-2.6-.621-2.6-1.351-2.6S306.75,275.142,306.75,276.58Z" transform="translate(-160.695 -240.83)" fill="#e6e6e6"/>
        <ellipse id="Elipse_4251" data-name="Elipse 4251" cx="1.385" cy="1.304" rx="1.385" ry="1.304" transform="translate(96.708 2.398)" fill="#e6e6e6"/>
        <path id="Trazado_126173" data-name="Trazado 126173" d="M277.389,231.077a1.385,1.385,0,1,0,1.385-1.3A1.351,1.351,0,0,0,277.389,231.077Z" transform="translate(-151.164 -226.484)" fill="#e6e6e6"/>
        <path id="Trazado_126174" data-name="Trazado 126174" d="M270.91,232.08c0,1.439.621,2.6,1.351,2.6s1.351-1.162,1.351-2.6-.615-2.6-1.351-2.6S270.91,230.648,270.91,232.08Z" transform="translate(-149.062 -226.387)" fill="#e6e6e6"/>
        <path id="Trazado_126175" data-name="Trazado 126175" d="M288.15,231.05c0,1.439.615,2.6,1.351,2.6s1.385-1.162,1.385-2.6-.621-2.6-1.385-2.6S288.15,229.618,288.15,231.05Z" transform="translate(-154.658 -226.052)" fill="#e6e6e6"/>
        <path id="Trazado_126176" data-name="Trazado 126176" d="M189.79,246.01c0,1.439.615,2.6,1.351,2.6s1.351-1.162,1.351-2.6-.621-2.6-1.351-2.6S189.79,244.578,189.79,246.01Z" transform="translate(-122.733 -230.908)" fill="#e6e6e6"/>
        <path id="Trazado_126177" data-name="Trazado 126177" d="M128.44,252.28c0,1.439.621,2.6,1.385,2.6s1.351-1.162,1.351-2.6-.621-2.6-1.351-2.6S128.44,250.848,128.44,252.28Z" transform="translate(-102.821 -232.943)" fill="#e6e6e6"/>
        <path id="Trazado_126178" data-name="Trazado 126178" d="M291.66,263.11c0,1.439.615,2.6,1.351,2.6s1.385-1.162,1.385-2.6-.621-2.6-1.385-2.6S291.66,261.678,291.66,263.11Z" transform="translate(-155.797 -236.458)" fill="#e6e6e6"/>
        <ellipse id="Elipse_4252" data-name="Elipse 4252" cx="1.385" cy="2.6" rx="1.385" ry="2.6" transform="translate(131 21.452)" fill="#e6e6e6"/>
        <ellipse id="Elipse_4253" data-name="Elipse 4253" cx="1.385" cy="2.6" rx="1.385" ry="2.6" transform="translate(133.485 13.022)" fill="#e6e6e6"/>
        <path id="Trazado_126179" data-name="Trazado 126179" d="M350.32,273.57c0,1.439.615,2.6,1.351,2.6s1.385-1.162,1.385-2.6-.621-2.6-1.385-2.6S350.32,272.132,350.32,273.57Z" transform="translate(-174.837 -239.853)" fill="#e6e6e6"/>
        <path id="Trazado_126180" data-name="Trazado 126180" d="M353.72,277.11c0,1.439.615,2.6,1.351,2.6s1.385-1.162,1.385-2.6-.621-2.6-1.385-2.6S353.72,275.678,353.72,277.11Z" transform="translate(-175.94 -241.002)" fill="#e6e6e6"/>
        <path id="Trazado_126181" data-name="Trazado 126181" d="M370.16,277.11c0,1.439.621,2.6,1.351,2.6s1.351-1.162,1.351-2.6-.615-2.6-1.351-2.6S370.16,275.678,370.16,277.11Z" transform="translate(-181.276 -241.002)" fill="#e6e6e6"/>
        <path id="Trazado_126182" data-name="Trazado 126182" d="M189.79,284.99c0,1.439.615,2.6,1.351,2.6s1.351-1.162,1.351-2.6-.621-2.6-1.351-2.6S189.79,283.558,189.79,284.99Z" transform="translate(-122.733 -243.56)" fill="#e6e6e6"/>
        <path id="Trazado_126183" data-name="Trazado 126183" d="M251.411,228.4c-.939,1.087-1.229,2.371-.675,2.871s1.81,0,2.749-1.06,1.229-2.378.675-2.871S252.35,227.338,251.411,228.4Z" transform="translate(-142.424 -225.629)" fill="#e6e6e6"/>
        <path id="Trazado_126184" data-name="Trazado 126184" d="M157.071,237.3c-.939,1.087-1.229,2.371-.675,2.871s1.81,0,2.749-1.067,1.229-2.371.675-2.871S158.01,236.215,157.071,237.3Z" transform="translate(-111.804 -228.515)" fill="#e6e6e6"/>
        <path id="Trazado_126185" data-name="Trazado 126185" d="M197.54,228.212c-.939,1.087-1.236,2.371-.675,2.871s1.8,0,2.742-1.06,1.236-2.378.675-2.877S198.451,227.125,197.54,228.212Z" transform="translate(-124.938 -225.564)" fill="#e6e6e6"/>
        <path id="Trazado_126186" data-name="Trazado 126186" d="M214.431,237.3c-.939,1.087-1.229,2.371-.675,2.871s1.81,0,2.749-1.067,1.229-2.371.675-2.871S215.37,236.215,214.431,237.3Z" transform="translate(-130.421 -228.515)" fill="#e6e6e6"/>
        <path id="Trazado_126187" data-name="Trazado 126187" d="M115.241,262.394c-.939,1.081-1.229,2.371-.675,2.871s1.81,0,2.749-1.067,1.229-2.371.675-2.871S116.18,261.326,115.241,262.394Z" transform="translate(-98.227 -236.66)" fill="#e6e6e6"/>
        <path id="Trazado_126188" data-name="Trazado 126188" d="M131.95,266.272c-.939,1.081-1.236,2.371-.675,2.871s1.8,0,2.742-1.067,1.236-2.371.675-2.871S132.888,265.185,131.95,266.272Z" transform="translate(-103.649 -237.917)" fill="#e6e6e6"/>
        <path id="Trazado_126189" data-name="Trazado 126189" d="M167.919,254.722c-.939,1.081-1.236,2.371-.675,2.871s1.8,0,2.742-1.067,1.236-2.371.675-2.871S168.858,253.635,167.919,254.722Z" transform="translate(-115.324 -234.169)" fill="#e6e6e6"/>
        <path id="Trazado_126190" data-name="Trazado 126190" d="M187.781,254.722c-.939,1.081-1.229,2.371-.675,2.871s1.8,0,2.742-1.067,1.236-2.371.675-2.871S188.72,253.635,187.781,254.722Z" transform="translate(-121.771 -234.169)" fill="#e6e6e6"/>
        <path id="Trazado_126191" data-name="Trazado 126191" d="M263.911,254.722c-.939,1.081-1.229,2.371-.675,2.871s1.81,0,2.749-1.067,1.229-2.371.675-2.871S264.85,253.635,263.911,254.722Z" transform="translate(-146.481 -234.169)" fill="#e6e6e6"/>
        <path id="Trazado_126192" data-name="Trazado 126192" d="M272.831,246.552c-.939,1.087-1.229,2.371-.675,2.871s1.81,0,2.749-1.067,1.229-2.371.675-2.871S273.77,245.465,272.831,246.552Z" transform="translate(-149.376 -231.517)" fill="#e6e6e6"/>
        <path id="Trazado_126193" data-name="Trazado 126193" d="M204.38,251.592c-.939,1.087-1.236,2.371-.675,2.871s1.8,0,2.742-1.067,1.236-2.371.675-2.871S205.318,250.5,204.38,251.592Z" transform="translate(-127.158 -233.153)" fill="#e6e6e6"/>
        <path id="Trazado_126194" data-name="Trazado 126194" d="M201.6,245.845c-.939,1.087-1.229,2.378-.675,2.871s1.81,0,2.749-1.06,1.229-2.371.675-2.871S202.54,244.757,201.6,245.845Z" transform="translate(-126.257 -231.289)" fill="#e6e6e6"/>
        <path id="Trazado_126195" data-name="Trazado 126195" d="M132.791,248.39c-.939,1.087-1.229,2.371-.675,2.871s1.81,0,2.749-1.067,1.229-2.371.675-2.871S133.73,247.283,132.791,248.39Z" transform="translate(-103.923 -232.113)" fill="#e6e6e6"/>
        <path id="Trazado_126196" data-name="Trazado 126196" d="M135.911,251.056c-.939,1.087-1.229,2.371-.675,2.871s1.81,0,2.749-1.06,1.229-2.378.675-2.871S136.85,249.969,135.911,251.056Z" transform="translate(-104.936 -232.982)" fill="#e6e6e6"/>
        <path id="Trazado_126197" data-name="Trazado 126197" d="M164.891,234.942c-.939,1.087-1.229,2.371-.675,2.871s1.81,0,2.749-1.067,1.229-2.371.675-2.871S165.83,233.855,164.891,234.942Z" transform="translate(-114.342 -227.749)" fill="#e6e6e6"/>
        <path id="Trazado_126198" data-name="Trazado 126198" d="M188.981,234.942c-.939,1.087-1.229,2.371-.675,2.871s1.81,0,2.749-1.067,1.229-2.371.675-2.871S189.92,233.855,188.981,234.942Z" transform="translate(-122.161 -227.749)" fill="#e6e6e6"/>
        <path id="Trazado_126199" data-name="Trazado 126199" d="M154.7,280.265c-.939,1.087-1.229,2.378-.675,2.877s1.81,0,2.749-1.067,1.229-2.371.675-2.871S155.64,279.185,154.7,280.265Z" transform="translate(-111.034 -242.461)" fill="#e6e6e6"/>
        <path id="Trazado_126200" data-name="Trazado 126200" d="M229.02,272.875c-.939,1.087-1.236,2.378-.675,2.871s1.8,0,2.742-1.06,1.236-2.371.675-2.871S229.958,271.787,229.02,272.875Z" transform="translate(-135.155 -240.062)" fill="#e6e6e6"/>
        <path id="Trazado_126201" data-name="Trazado 126201" d="M240.219,284.3c-.939,1.087-1.236,2.378-.675,2.877s1.8,0,2.742-1.067,1.236-2.371.675-2.871S241.158,283.215,240.219,284.3Z" transform="translate(-138.79 -243.769)" fill="#e6e6e6"/>
        <path id="Trazado_126202" data-name="Trazado 126202" d="M248.011,284.2c-.939,1.087-1.229,2.371-.675,2.871s1.8,0,2.742-1.067,1.229-2.371.675-2.871S248.95,283.115,248.011,284.2Z" transform="translate(-141.32 -243.737)" fill="#e6e6e6"/>
        <path id="Trazado_126203" data-name="Trazado 126203" d="M332.314,284.224c-1.135-.885-2.438-1.108-2.9-.507s.074,1.8,1.209,2.7,2.432,1.108,2.9.5S333.449,285.1,332.314,284.224Z" transform="translate(-167.995 -243.881)" fill="#e6e6e6"/>
        <path id="Trazado_126204" data-name="Trazado 126204" d="M222.833,227.756c-1.135-.878-2.432-1.108-2.9-.5s.074,1.8,1.209,2.7,2.432,1.108,2.9.507S223.974,228.641,222.833,227.756Z" transform="translate(-132.46 -225.554)" fill="#e6e6e6"/>
        <path id="Trazado_126205" data-name="Trazado 126205" d="M173.773,237.225c-1.135-.878-2.432-1.108-2.9-.507s.074,1.81,1.209,2.7,2.432,1.108,2.9.507S174.907,238.11,173.773,237.225Z" transform="translate(-116.537 -228.627)" fill="#e6e6e6"/>
        <path id="Trazado_126206" data-name="Trazado 126206" d="M153.863,251.515c-1.135-.885-2.432-1.108-2.9-.507s.074,1.8,1.209,2.7,2.432,1.108,2.9.507S154.984,252.393,153.863,251.515Z" transform="translate(-110.074 -233.264)" fill="#e6e6e6"/>
        <path id="Trazado_126207" data-name="Trazado 126207" d="M323.963,264.115c-1.135-.885-2.432-1.108-2.9-.507s.074,1.8,1.209,2.7,2.432,1.108,2.9.5S325.1,264.993,323.963,264.115Z" transform="translate(-165.284 -237.354)" fill="#e6e6e6"/>
        <path id="Trazado_126208" data-name="Trazado 126208" d="M325.947,243.465c-1.135-.878-2.432-1.108-2.9-.507s.068,1.81,1.2,2.7,2.432,1.108,2.9.507S327.081,244.35,325.947,243.465Z" transform="translate(-165.931 -230.652)" fill="#e6e6e6"/>
        <path id="Trazado_126209" data-name="Trazado 126209" d="M303.647,237.6c-1.135-.878-2.432-1.108-2.9-.507s.068,1.81,1.2,2.7,2.438,1.108,2.9.507S304.781,238.453,303.647,237.6Z" transform="translate(-158.693 -228.747)" fill="#e6e6e6"/>
        <path id="Trazado_126210" data-name="Trazado 126210" d="M301.407,230.285c-1.135-.885-2.432-1.108-2.9-.507s.068,1.8,1.2,2.7,2.438,1.108,2.9.507S302.541,231.169,301.407,230.285Z" transform="translate(-157.966 -226.374)" fill="#e6e6e6"/>
        <path id="Trazado_126211" data-name="Trazado 126211" d="M148.993,273.715c-1.135-.878-2.432-1.108-2.9-.507s.074,1.81,1.209,2.7,2.432,1.108,2.9.507S150.127,274.593,148.993,273.715Z" transform="translate(-108.494 -240.471)" fill="#e6e6e6"/>
        <path id="Trazado_126212" data-name="Trazado 126212" d="M188.523,266.195c-1.135-.885-2.432-1.108-2.9-.507s.074,1.8,1.209,2.7,2.432,1.108,2.9.5S189.644,267.073,188.523,266.195Z" transform="translate(-121.324 -238.029)" fill="#e6e6e6"/>
        <path id="Trazado_126213" data-name="Trazado 126213" d="M204.637,266.195c-1.128-.885-2.432-1.108-2.9-.507s.074,1.8,1.209,2.7,2.432,1.108,2.9.5S205.772,267.073,204.637,266.195Z" transform="translate(-126.557 -238.029)" fill="#e6e6e6"/>
        <path id="Trazado_126214" data-name="Trazado 126214" d="M281.994,265.445c-1.135-.878-2.438-1.108-2.9-.507s.074,1.81,1.209,2.7,2.432,1.108,2.9.507S283.122,266.33,281.994,265.445Z" transform="translate(-151.663 -237.787)" fill="#e6e6e6"/>
        <path id="Trazado_126215" data-name="Trazado 126215" d="M249.8,256.135c-1.135-.878-2.438-1.108-2.9-.507s.074,1.81,1.209,2.7,2.432,1.108,2.9.507S250.966,257.02,249.8,256.135Z" transform="translate(-141.215 -234.765)" fill="#e6e6e6"/>
        <path id="Trazado_126216" data-name="Trazado 126216" d="M356.113,258.495c-1.135-.885-2.432-1.108-2.9-.507s.074,1.8,1.209,2.7,2.432,1.108,2.9.5S357.247,259.373,356.113,258.495Z" transform="translate(-175.719 -235.53)" fill="#e6e6e6"/>
        <path id="Trazado_126217" data-name="Trazado 126217" d="M362.777,254.645c-1.135-.885-2.432-1.108-2.9-.507s.068,1.8,1.2,2.7,2.432,1.108,2.9.5S363.911,255.523,362.777,254.645Z" transform="translate(-177.885 -234.28)" fill="#e6e6e6"/>
        <path id="Trazado_126218" data-name="Trazado 126218" d="M367.843,262.345c-1.135-.885-2.432-1.108-2.9-.507s.074,1.8,1.209,2.7,2.432,1.108,2.9.5S368.977,263.223,367.843,262.345Z" transform="translate(-179.526 -236.779)" fill="#e6e6e6"/>
        <path id="Trazado_126219" data-name="Trazado 126219" d="M271.8,273.425c0,.675-1.182,1.2-2.641,1.2s-2.641-.54-2.641-1.2,1.182-1.2,2.641-1.2S271.8,272.75,271.8,273.425Z" transform="translate(-147.638 -240.262)" fill="#e6e6e6"/>
        <path id="Trazado_126220" data-name="Trazado 126220" d="M243.592,227.8c0,.675-1.182,1.2-2.641,1.2s-2.641-.54-2.641-1.2,1.182-1.2,2.641-1.2S243.592,227.14,243.592,227.8Z" transform="translate(-138.481 -225.452)" fill="#e6e6e6"/>
        <path id="Trazado_126221" data-name="Trazado 126221" d="M258.962,226.1c0,.675-1.182,1.2-2.641,1.2s-2.641-.534-2.641-1.2,1.182-1.2,2.641-1.2S258.962,225.434,258.962,226.1Z" transform="translate(-143.47 -224.9)" fill="#e6e6e6"/>
        <path id="Trazado_126222" data-name="Trazado 126222" d="M271.962,228.422c0,.675-1.182,1.2-2.641,1.2s-2.641-.534-2.641-1.2,1.182-1.2,2.641-1.2S271.962,227.747,271.962,228.422Z" transform="translate(-147.69 -225.653)" fill="#e6e6e6"/>
        <path id="Trazado_126223" data-name="Trazado 126223" d="M206.232,227.875c0,.675-1.182,1.2-2.641,1.2s-2.641-.54-2.641-1.2,1.182-1.2,2.641-1.2S206.232,227.214,206.232,227.875Z" transform="translate(-126.356 -225.478)" fill="#e6e6e6"/>
        <path id="Trazado_126224" data-name="Trazado 126224" d="M233.952,243.132c0,.675-1.182,1.2-2.641,1.2s-2.641-.54-2.641-1.2,1.182-1.2,2.641-1.2S233.952,242.47,233.952,243.132Z" transform="translate(-135.353 -230.427)" fill="#e6e6e6"/>
        <path id="Trazado_126225" data-name="Trazado 126225" d="M236.3,249.692c0,.675-1.182,1.2-2.641,1.2s-2.641-.54-2.641-1.2,1.182-1.2,2.641-1.2S236.3,249.03,236.3,249.692Z" transform="translate(-136.115 -232.557)" fill="#e6e6e6"/>
        <path id="Trazado_126226" data-name="Trazado 126226" d="M228.372,252.955c0,.675-1.182,1.2-2.641,1.2s-2.641-.534-2.641-1.2,1.182-1.2,2.641-1.2S228.372,252.294,228.372,252.955Z" transform="translate(-133.542 -233.618)" fill="#e6e6e6"/>
        <path id="Trazado_126227" data-name="Trazado 126227" d="M192.182,244.912c0,.675-1.182,1.2-2.641,1.2s-2.641-.534-2.641-1.2,1.182-1.2,2.641-1.2S192.182,244.244,192.182,244.912Z" transform="translate(-121.795 -231.005)" fill="#e6e6e6"/>
        <path id="Trazado_126228" data-name="Trazado 126228" d="M318.892,234.532c0,.675-1.182,1.2-2.641,1.2s-2.641-.54-2.641-1.2,1.182-1.2,2.641-1.2S318.892,233.87,318.892,234.532Z" transform="translate(-162.922 -227.636)" fill="#e6e6e6"/>
        <path id="Trazado_126229" data-name="Trazado 126229" d="M249.762,236.312c0,.675-1.182,1.2-2.641,1.2s-2.641-.534-2.641-1.2,1.182-1.2,2.641-1.2S249.762,235.65,249.762,236.312Z" transform="translate(-140.484 -228.214)" fill="#e6e6e6"/>
        <path id="Trazado_126230" data-name="Trazado 126230" d="M265.982,234.532c0,.675-1.182,1.2-2.641,1.2s-2.641-.54-2.641-1.2,1.182-1.2,2.641-1.2S265.982,233.87,265.982,234.532Z" transform="translate(-145.749 -227.636)" fill="#e6e6e6"/>
        <path id="Trazado_126231" data-name="Trazado 126231" d="M276.462,232.755c0,.675-1.182,1.2-2.641,1.2s-2.641-.54-2.641-1.2,1.182-1.2,2.641-1.2S276.462,232.094,276.462,232.755Z" transform="translate(-149.15 -227.062)" fill="#e6e6e6"/>
        <path id="Trazado_126232" data-name="Trazado 126232" d="M287.112,230.982c0,.675-1.182,1.2-2.641,1.2s-2.641-.534-2.641-1.2,1.182-1.2,2.641-1.2S287.112,230.314,287.112,230.982Z" transform="translate(-152.607 -226.484)" fill="#e6e6e6"/>
        <path id="Trazado_126233" data-name="Trazado 126233" d="M123,313.571S180.749,328.3,189.462,328.3,287.474,305,287.474,305L123,309.823Z" transform="translate(-101.055 -250.898)" fill="#e4af6c"/>
        <path id="Trazado_126234" data-name="Trazado 126234" d="M123,313.571S180.749,328.3,189.462,328.3,287.474,305,287.474,305L123,309.823Z" transform="translate(-101.055 -250.898)" fill="#f5ca56" opacity="0.4"/>
        <path id="Trazado_126235" data-name="Trazado 126235" d="M108.124,295.871s-11.624,0-11.624,6.754,12.158,4.681,12.158,4.681-10.9,4.269-5.451,8.105,26.571-8.105,26.571-8.105-7.727,6.714,2.222,8.105a21.49,21.49,0,0,0,16.737-5.113s-5.3,13.245,4.093,12.435,8.551-11.307,8.551-11.307,4.877,3,14.008,2.594a66.441,66.441,0,0,0,17.129-3.242s2.735,5.674,13.6,4.66,15.2-6.646,15.2-6.646,9.456,8.673,20.871,6.849,5.748-6.849,5.748-6.849,11.307,5.093,19.871,1.986,5.059-9.827,5.059-9.827,7.821,13.144,15.319,7.842,4.053-10.982,4.053-10.982,6.484,2.607,6.484-1.939-18.372-3.3-18.372-3.3l-1.31,2.526c-60.721,7.47-116.937,9.415-169.229,5.653Z" transform="translate(-92.454 -246.814)" fill="rgba(157,203,126,0.59)"/>
        <path id="Trazado_126236" data-name="Trazado 126236" d="M107.05,313.1a13.651,13.651,0,0,0,6.889-3.7l-1.878,3.418Z" transform="translate(-95.878 -252.326)" opacity="0.3"/>
        <path id="Trazado_126237" data-name="Trazado 126237" d="M139.285,309.4s-8.146,2.4-10.307,5.208A29.579,29.579,0,0,1,123,319.937a109.3,109.3,0,0,0,15.352-7.106Z" transform="translate(-101.055 -252.326)" opacity="0.3"/>
        <path id="Trazado_126238" data-name="Trazado 126238" d="M165.767,316.217l1.729-5.647a42.535,42.535,0,0,1-18.466,10.76C154.866,322.241,160.431,320.425,165.767,316.217Z" transform="translate(-109.504 -252.706)" opacity="0.3"/>
        <path id="Trazado_126239" data-name="Trazado 126239" d="M192.05,318.135a17.728,17.728,0,0,1-1.06-5.045c1.979,3.715,4.37,6.525,7.747,7.214A22.591,22.591,0,0,1,192.05,318.135Z" transform="translate(-123.123 -253.524)" opacity="0.3"/>
        <path id="Trazado_126240" data-name="Trazado 126240" d="M230.19,318.355c3.8-1.763,6-4.282,6.545-7.585a10.807,10.807,0,0,1-.824,5.978Z" transform="translate(-135.846 -252.771)" opacity="0.3"/>
        <path id="Trazado_126241" data-name="Trazado 126241" d="M256.43,321.431c9.456-1.351,15.238-5.012,16.926-10.861.25,1.635.446,3.208-.128,4.113C269.351,318.912,263.569,320.951,256.43,321.431Z" transform="translate(-144.363 -252.706)" opacity="0.3"/>
        <path id="Trazado_126242" data-name="Trazado 126242" d="M317.506,313.7a14.65,14.65,0,0,1-6.667-6.167c9.99,7.065,19.412,9.855,28.044,7.511C333.156,317.5,326.118,317.229,317.506,313.7Z" transform="translate(-162.023 -251.719)" opacity="0.3"/>
        <path id="Trazado_126243" data-name="Trazado 126243" d="M356.354,302.742l-2.634-4.8c6.187,9.456,12.549,13.846,17.953,12.644C366.884,313.475,361.785,311,356.354,302.742Z" transform="translate(-175.94 -248.607)" opacity="0.3"/>
        <path id="Trazado_126244" data-name="Trazado 126244" d="M379.958,298.5l-13.2-2.7.675-1.25c15.488,4.91,19,4.181,19.034,2.026C386.246,299.366,384,299.926,379.958,298.5Z" transform="translate(-180.173 -247.506)" opacity="0.3"/>
        <path id="Trazado_126245" data-name="Trazado 126245" d="M115.646,355.167c60.789,15.913,116.6,14.623,168.141-1.209l1.2,1.128S296,356.694,296,352.384s-7.072-2.432-7.072-2.432,7.578-2.945,1.655-5.728-10.807,5.876-10.807,5.876,1.31-4.255-4.883-5.066-12.279,6.126-12.279,6.126,5.478-5.721-2.229-5.012-9.044,6.754-9.044,6.754,1.648-3.647-6.795-2.837-15.292,8.011-15.292,8.011,2.236-7.295-4.012-6.937-14.549,8.288-14.549,8.288-5.4-8.308-13.509-7.592-14.13,7.788-14.13,7.788-6.5-9.3-14.859-8.693-9.321,6.889-9.321,6.889-12.658-9.321-16.426-8.916-3.992,7.7-3.992,7.7-5.653-7.092-11.374-7.295-2.026,3.85-2.026,3.85-11.138-5.674-14.562-3.445,2.357,4.255,2.357,4.255-4.728-2.7-5.761,1.128,7.477,2.263,7.477,2.263Z" transform="translate(-95.863 -263.45)" fill="rgba(157,203,126,0.59)"/>
        <path id="Trazado_126246" data-name="Trazado 126246" d="M107.72,362.3c3.972.959,6.477.5,8.159-1.608l-1.054,2.182C112.2,363.493,109.78,363.48,107.72,362.3Z" transform="translate(-96.096 -268.973)" opacity="0.3"/>
        <path id="Trazado_126247" data-name="Trazado 126247" d="M114.071,356.855l2.769,1.209,10.307,2.546c-8.355-2.506-16.771-5.012-15.434-8.011C109.674,354.16,110.754,355.572,114.071,356.855Z" transform="translate(-97.057 -266.348)" opacity="0.3"/>
        <path id="Trazado_126248" data-name="Trazado 126248" d="M133.2,356.285c.621,1.263,4.282,3.742,7.977,6.234-3.985-3.505-7.97-7-9.037-9.179C131.789,354.279,132.2,355.265,133.2,356.285Z" transform="translate(-103.982 -266.588)" opacity="0.3"/>
        <path id="Trazado_126249" data-name="Trazado 126249" d="M154.6,355.39a15.535,15.535,0,0,0-1.04,5c-.426,2.236,4.627,3.823,9.051,5.484C157.854,362.975,153.389,359.983,154.6,355.39Z" transform="translate(-110.965 -267.253)" opacity="0.3"/>
        <path id="Trazado_126250" data-name="Trazado 126250" d="M183.8,361.679a8.6,8.6,0,0,1,5.4-6.079c-4.3,5.572,1.3,9.328,5.869,13.272C188.958,366.495,183.609,364.09,183.8,361.679Z" transform="translate(-120.787 -267.321)" opacity="0.3"/>
        <path id="Trazado_126251" data-name="Trazado 126251" d="M232.507,361.047c-2.58.966-5.836,5.268-6.167,10.625l19.02.23c.311-5.066-4.053-10.212-6.079-10.955a9.281,9.281,0,0,0-6.775.1Z" transform="translate(-134.596 -268.865)" opacity="0.3"/>
        <path id="Trazado_126252" data-name="Trazado 126252" d="M283.224,355.93c1.3,1.351,1.722,3.289.925,6.153a26.739,26.739,0,0,1-7.95,7.6C281.921,364.413,284.845,359.712,283.224,355.93Z" transform="translate(-150.779 -267.428)" opacity="0.3"/>
        <path id="Trazado_126253" data-name="Trazado 126253" d="M368.74,358.9l1.2,1.128q9.456.729,10.327-1.128Q376.156,361.149,368.74,358.9Z" transform="translate(-180.815 -268.392)" opacity="0.3"/>
        <path id="Trazado_126254" data-name="Trazado 126254" d="M371.916,350.472c-2.938,2.864-6,4.667-9.226,5.208,8.929-4.39,13.076-7.923,11.739-10.469C376.806,346.7,376.327,348.445,371.916,350.472Z" transform="translate(-178.852 -263.949)" opacity="0.3"/>
        <path id="Trazado_126255" data-name="Trazado 126255" d="M357.565,351.129c-2.654,3.242-6.525,5.775-10.915,8,7.051-5.552,12.6-10.57,8.781-12.306C357.531,347.658,358.281,349.076,357.565,351.129Z" transform="translate(-173.645 -264.472)" opacity="0.3"/>
        <path id="Trazado_126256" data-name="Trazado 126256" d="M333.755,352.362a110,110,0,0,1-7.585,9.679c6.558-8.105,10.726-14.339,7.572-14.691C336.47,347.789,336.065,349.619,333.755,352.362Z" transform="translate(-166.998 -264.644)" opacity="0.3"/>
        <path id="Trazado_126257" data-name="Trazado 126257" d="M317.506,356.1l-6.667,10.01c4.235-6.079,7.214-11.32,4.613-12.718C316.872,353.721,317.878,354.369,317.506,356.1Z" transform="translate(-162.023 -266.604)" opacity="0.3"/>
      </g>
    </g>
  </g>
</svg>
