<svg xmlns="http://www.w3.org/2000/svg" width="129.737" height="122.31" viewBox="0 0 129.737 122.31">
  <g id="Grupo_1101899" data-name="Grupo 1101899" transform="translate(-1052.264 -12067)">
    <path id="_12068" data-name="12068" d="M98.737,72.292c-13.285-1.834-27.318-1.386-39.407,4.421-16.765,8.052-27.775,26.309-28.2,44.9S40.4,158.479,55.36,169.523s34.7,14.959,53,11.643c18.453-3.344,35.773-14.186,45.4-30.28,6.172-10.321,9.057-23.065,5.647-34.6-2.059-6.961-6.267-13.128-11.217-18.437A82.875,82.875,0,0,0,98.737,72.292Z" transform="translate(1021.145 12007.001)" fill="#26aab7"/>
    <g id="_x30_1_x2C__report_x2C__document_x2C__analytics_x2C__business_x2C__pie_chart" transform="translate(1048.382 12051)">
      <g id="Grupo_1101031" data-name="Grupo 1101031" transform="translate(16 16)">
        <path id="Trazado_878812" data-name="Trazado 878812" d="M99,26v9.125L35.125,121.812H26V26Z" transform="translate(-23.719 -23.719)" fill="#59d5ff"/>
        <path id="Trazado_878813" data-name="Trazado 878813" d="M139,145.844l-11.406,4.562-4.562,11.406H66V66h73Z" transform="translate(-54.594 -54.594)" fill="#edebfd"/>
        <path id="Trazado_878814" data-name="Trazado 878814" d="M324.943,155.29A22.812,22.812,0,1,1,286,171.421Z" transform="translate(-224.406 -123.514)" fill="#fd5f5c"/>
        <path id="Trazado_878815" data-name="Trazado 878815" d="M308.813,126l4.563,9.125-4.562,13.688H286A22.812,22.812,0,0,1,308.813,126Z" transform="translate(-224.406 -100.906)" fill="#fade65"/>
        <path id="Trazado_878816" data-name="Trazado 878816" d="M402.131,132.682,386,148.813V126A22.732,22.732,0,0,1,402.131,132.682Z" transform="translate(-301.594 -100.906)" fill="#00c344"/>
        <path id="Trazado_878817" data-name="Trazado 878817" d="M331.969,416,316,431.969V416Z" transform="translate(-247.563 -324.75)" fill="#d1d1ef"/>
        <path id="Trazado_878818" data-name="Trazado 878818" d="M206,366h9.125v15.969H206Z" transform="translate(-162.656 -286.156)" fill="#59d5ff"/>
        <path id="Trazado_878819" data-name="Trazado 878819" d="M175.125,327.406v15.969H166V316h9.125Z" transform="translate(-131.781 -247.563)" fill="#00da77"/>
        <path id="Trazado_878820" data-name="Trazado 878820" d="M126,346h9.125v20.531H126Z" transform="translate(-100.906 -270.719)" fill="#ff8c8a"/>
        <g id="Grupo_1101017" data-name="Grupo 1101017" transform="translate(9.125 9.125)">
          <path id="Trazado_878821" data-name="Trazado 878821" d="M115.313,156.375H58.281A2.281,2.281,0,0,1,56,154.094V58.281A2.281,2.281,0,0,1,58.281,56h73a2.281,2.281,0,0,1,2.281,2.281V71.969a2.281,2.281,0,1,1-4.562,0V60.563H60.563v91.25h53.805L129,137.18V117.594a2.281,2.281,0,1,1,4.563,0v20.531a2.282,2.282,0,0,1-.668,1.613l-15.969,15.969A2.282,2.282,0,0,1,115.313,156.375Z" transform="translate(-56 -56)"/>
        </g>
        <g id="Grupo_1101018" data-name="Grupo 1101018">
          <path id="Trazado_878822" data-name="Trazado 878822" d="M27.406,116.375H18.281A2.281,2.281,0,0,1,16,114.094V18.281A2.281,2.281,0,0,1,18.281,16h73a2.281,2.281,0,0,1,2.281,2.281v9.125a2.281,2.281,0,1,1-4.562,0V20.562H20.562v91.25h6.844a2.281,2.281,0,1,1,0,4.563Z" transform="translate(-16 -16)"/>
        </g>
        <g id="Grupo_1101019" data-name="Grupo 1101019" transform="translate(66.156 88.969)">
          <path id="Trazado_878823" data-name="Trazado 878823" d="M308.281,426.531A2.281,2.281,0,0,1,306,424.25V408.281A2.281,2.281,0,0,1,308.281,406H324.25a2.281,2.281,0,0,1,0,4.563H310.563V424.25A2.281,2.281,0,0,1,308.281,426.531Z" transform="translate(-306 -406)"/>
        </g>
        <g id="Grupo_1101020" data-name="Grupo 1101020" transform="translate(59.312 22.812)">
          <path id="Trazado_878824" data-name="Trazado 878824" d="M301.094,166.187a25.093,25.093,0,1,1,25.094-25.094A25.122,25.122,0,0,1,301.094,166.187Zm0-45.625a20.532,20.532,0,1,0,14.518,6.014h0A20.389,20.389,0,0,0,301.094,120.563Z" transform="translate(-276 -116)"/>
        </g>
        <g id="Grupo_1101021" data-name="Grupo 1101021" transform="translate(59.312 22.812)">
          <path id="Trazado_878825" data-name="Trazado 878825" d="M301.094,143.375H278.281a2.281,2.281,0,1,1,0-4.562h20.531V118.281a2.281,2.281,0,0,1,4.563,0v22.812A2.281,2.281,0,0,1,301.094,143.375Z" transform="translate(-276 -116)"/>
        </g>
        <g id="Grupo_1101022" data-name="Grupo 1101022" transform="translate(82.125 29.494)">
          <path id="Trazado_878826" data-name="Trazado 878826" d="M376.668,165.314a2.282,2.282,0,0,1,0-3.226L392.8,145.957a2.281,2.281,0,1,1,3.226,3.226l-16.131,16.131A2.281,2.281,0,0,1,376.668,165.314Z" transform="translate(-376 -145.289)"/>
        </g>
        <g id="Grupo_1101023" data-name="Grupo 1101023" transform="translate(22.812 73)">
          <path id="Trazado_878827" data-name="Trazado 878827" d="M118.281,361.094A2.281,2.281,0,0,1,116,358.813V338.281A2.281,2.281,0,0,1,118.281,336h9.125a2.281,2.281,0,0,1,0,4.563h-6.844v18.25A2.281,2.281,0,0,1,118.281,361.094Z" transform="translate(-116 -336)"/>
        </g>
        <g id="Grupo_1101024" data-name="Grupo 1101024" transform="translate(31.937 66.156)">
          <path id="Trazado_878828" data-name="Trazado 878828" d="M158.281,337.938A2.281,2.281,0,0,1,156,335.656V308.281A2.281,2.281,0,0,1,158.281,306h9.125a2.281,2.281,0,0,1,2.281,2.281v11.406a2.281,2.281,0,0,1-4.562,0v-9.125h-4.563v25.094A2.281,2.281,0,0,1,158.281,337.938Z" transform="translate(-156 -306)"/>
        </g>
        <g id="Grupo_1101025" data-name="Grupo 1101025" transform="translate(41.062 77.562)">
          <path id="Trazado_878829" data-name="Trazado 878829" d="M207.406,376.531a2.281,2.281,0,0,1-2.281-2.281V360.563h-4.563V374.25a2.281,2.281,0,1,1-4.562,0V358.281A2.281,2.281,0,0,1,198.281,356h9.125a2.281,2.281,0,0,1,2.281,2.281V374.25A2.281,2.281,0,0,1,207.406,376.531Z" transform="translate(-196 -356)"/>
        </g>
        <g id="Grupo_1101026" data-name="Grupo 1101026" transform="translate(20.531 93.531)">
          <path id="Trazado_878830" data-name="Trazado 878830" d="M140.219,430.563H108.281a2.281,2.281,0,1,1,0-4.562h31.937a2.281,2.281,0,0,1,0,4.563Z" transform="translate(-106 -426)"/>
        </g>
        <g id="Grupo_1101027" data-name="Grupo 1101027" transform="translate(20.531 20.531)">
          <path id="Trazado_878831" data-name="Trazado 878831" d="M140.219,110.563H108.281a2.281,2.281,0,1,1,0-4.562h31.937a2.281,2.281,0,1,1,0,4.563Z" transform="translate(-106 -106)"/>
        </g>
        <g id="Grupo_1101028" data-name="Grupo 1101028" transform="translate(20.531 31.937)">
          <path id="Trazado_878832" data-name="Trazado 878832" d="M140.219,160.563H108.281a2.281,2.281,0,1,1,0-4.562h31.937a2.281,2.281,0,1,1,0,4.563Z" transform="translate(-106 -156)"/>
        </g>
        <g id="Grupo_1101029" data-name="Grupo 1101029" transform="translate(20.531 43.344)">
          <path id="Trazado_878833" data-name="Trazado 878833" d="M131.094,210.562H108.281a2.281,2.281,0,1,1,0-4.562h22.812a2.281,2.281,0,1,1,0,4.562Z" transform="translate(-106 -206)"/>
        </g>
        <g id="Grupo_1101030" data-name="Grupo 1101030" transform="translate(20.531 54.75)">
          <path id="Trazado_878834" data-name="Trazado 878834" d="M131.094,260.563H108.281a2.281,2.281,0,1,1,0-4.562h22.812a2.281,2.281,0,0,1,0,4.563Z" transform="translate(-106 -256)"/>
        </g>
      </g>
    </g>
  </g>
</svg>
