<svg xmlns="http://www.w3.org/2000/svg" width="103.429" height="84.947" viewBox="0 0 103.429 84.947">
  <g id="Grupo_1100087" data-name="Grupo 1100087" transform="translate(0 0)">
    <g id="Grupo_1100035" data-name="Grupo 1100035" transform="translate(0)">
      <path id="_12068" data-name="12068" d="M80.679,72.036c-9.737-1.345-20.023-1.016-28.883,3.24-12.288,5.9-20.358,19.283-20.667,32.911s6.79,27.019,17.758,35.114,25.432,10.964,38.845,8.534c13.525-2.451,26.22-10.4,33.274-22.194,4.524-7.564,6.638-16.905,4.139-25.358a34.642,34.642,0,0,0-8.221-13.513A60.743,60.743,0,0,0,80.679,72.036Z" transform="translate(-27.626 -67.724)" fill="#7d6eb2"/>
      <g id="Grupo_1099025" data-name="Grupo 1099025" transform="translate(0 75.838) rotate(-90)">
        <path id="Trazado_873104" data-name="Trazado 873104" d="M.44,1.927A1.116,1.116,0,0,0,1.9,1.762,1.116,1.116,0,0,0,1.836.3,1.116,1.116,0,0,0,.368.256,1.07,1.07,0,0,0,.44,1.927Z" transform="translate(14.579 87.471)" fill="#fff"/>
        <path id="Trazado_873105" data-name="Trazado 873105" d="M.44,1.927A1.116,1.116,0,0,0,1.9,1.763,1.116,1.116,0,0,0,1.836.3,1.116,1.116,0,0,0,.368.256,1.07,1.07,0,0,0,.44,1.927Z" transform="translate(35.875 92.048)" fill="#ffd947"/>
        <path id="Trazado_873106" data-name="Trazado 873106" d="M.44,1.927A1.116,1.116,0,0,0,1.9,1.763,1.116,1.116,0,0,0,1.836.3,1.117,1.117,0,0,0,.368.256,1.07,1.07,0,0,0,.44,1.927Z" transform="translate(73.694)" fill="#7d6eb2"/>
        <path id="Trazado_873109" data-name="Trazado 873109" d="M1.449,4.5A2.434,2.434,0,0,0,4.464,3.306,2.435,2.435,0,0,0,3.412.24,2.435,2.435,0,0,0,.3,1.151,2.36,2.36,0,0,0,1.449,4.5Z" transform="translate(61.04 86.208)" fill="#7d6eb2"/>
        <path id="Trazado_873110" data-name="Trazado 873110" d="M1.449,4.5A2.434,2.434,0,0,0,4.464,3.306,2.435,2.435,0,0,0,3.412.241,2.434,2.434,0,0,0,.3,1.151,2.36,2.36,0,0,0,1.449,4.5Z" transform="translate(44.433 98.775)" fill="#ffd947"/>
        <path id="Trazado_873111" data-name="Trazado 873111" d="M1.449,4.5A2.434,2.434,0,0,0,4.463,3.306,2.434,2.434,0,0,0,3.412.241,2.434,2.434,0,0,0,.3,1.151,2.36,2.36,0,0,0,1.449,4.5Z" transform="translate(0 27.812)" fill="#ffd947"/>
        <path id="Trazado_873113" data-name="Trazado 873113" d="M1.449,4.5A2.435,2.435,0,0,0,4.464,3.306,2.435,2.435,0,0,0,3.412.24,2.435,2.435,0,0,0,.3,1.151,2.36,2.36,0,0,0,1.449,4.5Z" transform="translate(69.035 5.856)" fill="#ffd947"/>
        <circle id="Elipse_11485" data-name="Elipse 11485" cx="1.149" cy="1.149" r="1.149" transform="translate(5.274 93.025)" fill="none" stroke="#26aab7" stroke-linecap="round" stroke-linejoin="round" stroke-width="1.5"/>
      </g>
    </g>
    <g id="contra" transform="translate(13.147 6.754)">
      <g id="Grupo_1100058" data-name="Grupo 1100058" transform="translate(1.371 5.813)">
        <path id="Trazado_876397" data-name="Trazado 876397" d="M13.7,0A13.7,13.7,0,1,1,0,13.7,13.7,13.7,0,0,1,13.7,0Z" transform="translate(20.009 6.852)" fill="#ffd947"/>
        <path id="Trazado_876363" data-name="Trazado 876363" d="M126.559,76.679a13.7,13.7,0,1,1,13.7-13.7A13.7,13.7,0,0,1,126.559,76.679Zm4.882-31.9-3.449-1.967a2.806,2.806,0,0,0-2.818-.027l-3.5,1.994-3.766.02a2.814,2.814,0,0,0-2.657,1.387l-2.023,3.462-3.462,2.023a2.812,2.812,0,0,0-1.386,2.419l-.021,4L106.4,61.541a2.806,2.806,0,0,0-.027,2.818l1.994,3.5.02,3.766a2.814,2.814,0,0,0,1.387,2.657l3.462,2.023,2.023,3.462a2.812,2.812,0,0,0,2.419,1.386l4,.021,3.449,1.967a2.806,2.806,0,0,0,2.818.027l3.5-1.994,3.766-.02a2.814,2.814,0,0,0,2.657-1.387l2.023-3.462,3.462-2.023a2.812,2.812,0,0,0,1.386-2.419l.021-4,1.967-3.449a2.806,2.806,0,0,0,.027-2.819l-1.994-3.5-.02-3.766a2.814,2.814,0,0,0-1.387-2.657l-3.462-2.023-2.023-3.462a2.812,2.812,0,0,0-2.419-1.386Z" transform="translate(-92.845 -42.417)" fill="#ffe88e" fill-rule="evenodd"/>
        <path id="Trazado_876364" data-name="Trazado 876364" d="M45.113,362.382a4.7,4.7,0,1,0-9.4,0v2.349a4.7,4.7,0,1,0,9.4,0Z" transform="translate(-32.191 -314.476)" fill="#ffdcd5" fill-rule="evenodd"/>
        <path id="Trazado_876365" data-name="Trazado 876365" d="M407.717,362.382v2.349a4.7,4.7,0,0,0,9.4,0v-2.349a4.7,4.7,0,0,0-9.4,0Z" transform="translate(-353.21 -314.476)" fill="#ffd0c7" fill-rule="evenodd"/>
        <path id="Trazado_876366" data-name="Trazado 876366" d="M21.878,430.611a4.685,4.685,0,0,1-7.307,0l-.592.592A8.239,8.239,0,0,0,10,438.237V440.4H26.447v-2.158a8.239,8.239,0,0,0-3.977-7.034Z" transform="translate(-10.001 -377.409)" fill="#ff5d7d" fill-rule="evenodd"/>
        <path id="Trazado_876367" data-name="Trazado 876367" d="M393.879,430.611a4.684,4.684,0,0,1-7.307,0l-.592.592A8.239,8.239,0,0,0,382,438.237V440.4h16.446v-2.158a8.239,8.239,0,0,0-3.977-7.034Z" transform="translate(-331.019 -377.409)" fill="#60a4ff" fill-rule="evenodd"/>
      </g>
      <g id="Grupo_1100059" data-name="Grupo 1100059" transform="translate(0 0)">
        <path id="Trazado_876368" data-name="Trazado 876368" d="M15.037,359.035a6.033,6.033,0,0,0,.626-2.683V354c-.306-8.043-11.836-8.037-12.139,0v2.349a6.033,6.033,0,0,0,.626,2.683A9.666,9.666,0,0,0,0,366.924v2.158a1.37,1.37,0,0,0,1.37,1.37H17.816a1.37,1.37,0,0,0,1.37-1.37v-2.158A9.665,9.665,0,0,0,15.037,359.035ZM6.265,354a3.328,3.328,0,0,1,6.657,0v2.349a3.328,3.328,0,0,1-6.657,0Zm10.181,13.71H2.741v-.788A6.908,6.908,0,0,1,5.9,361.163a6.108,6.108,0,0,0,7.392,0,6.908,6.908,0,0,1,3.157,5.761Z" transform="translate(0 -300.283)" fill="#00223d"/>
        <path id="Trazado_876369" data-name="Trazado 876369" d="M387.038,359.035a6.032,6.032,0,0,0,.626-2.683V354c-.306-8.043-11.836-8.037-12.139,0v2.349a6.033,6.033,0,0,0,.626,2.683,9.666,9.666,0,0,0-4.15,7.889v2.158a1.37,1.37,0,0,0,1.371,1.37h16.446a1.37,1.37,0,0,0,1.371-1.37v-2.158A9.665,9.665,0,0,0,387.038,359.035ZM378.266,354a3.328,3.328,0,0,1,6.657,0v2.349a3.328,3.328,0,0,1-6.657,0Zm10.181,13.71h-13.7v-.788a6.908,6.908,0,0,1,3.156-5.761,6.108,6.108,0,0,0,7.392,0,6.908,6.908,0,0,1,3.157,5.761v.788Z" transform="translate(-321.018 -300.283)" fill="#00223d"/>
        <path id="Trazado_876370" data-name="Trazado 876370" d="M271.583,155.8a4.06,4.06,0,0,0,0-7.505l-1.457-.6a1.323,1.323,0,0,1,1.012-2.444l.729.3a1.37,1.37,0,0,0,1.049-2.532l-.729-.3a4.064,4.064,0,0,0-3.11,7.509l1.458.6a1.323,1.323,0,0,1-1.012,2.444l-.729-.3a1.37,1.37,0,0,0-1.049,2.532l.729.3a4.036,4.036,0,0,0,3.109,0Z" transform="translate(-230.036 -122.892)" fill="#00223d"/>
        <path id="Trazado_876371" data-name="Trazado 876371" d="M201.729,142.455a1.371,1.371,0,0,0-1.662,1l-1.411,5.646-1.411-5.646a1.371,1.371,0,1,0-2.659.665l2.741,10.964a1.373,1.373,0,0,0,2.659,0l2.741-10.964A1.37,1.37,0,0,0,201.729,142.455Z" transform="translate(-167.882 -122.896)" fill="#00223d"/>
        <path id="Trazado_876372" data-name="Trazado 876372" d="M127.377,48.366l1.842-3.152,3.152-1.842a4.114,4.114,0,0,0,.626-.45l2.243,1.3a1.37,1.37,0,1,0,1.371-2.374l-2.251-1.3a4.157,4.157,0,0,0,.074-.767l.019-3.645L136.238,33a4.191,4.191,0,0,0,.032-4.185l-1.816-3.184-.018-3.354a4.152,4.152,0,0,0-.069-1.062l2.243-1.3a1.37,1.37,0,1,0-1.37-2.374L133,18.846a4.124,4.124,0,0,0-.628-.45l-3.152-1.842L127.376,13.4a4.2,4.2,0,0,0-3.595-2.064l-3.645-.019-3.128-1.784a4.156,4.156,0,0,0-.75-.346v-2.6a1.371,1.371,0,0,0-2.741,0v2.6a4.161,4.161,0,0,0-.694.314l-3.184,1.816-3.354.018A4.211,4.211,0,0,0,102.4,13.4l-1.842,3.152L97.406,18.4a4.108,4.108,0,0,0-.626.45l-2.243-1.3a1.37,1.37,0,0,0-1.37,2.374l2.25,1.3a4.159,4.159,0,0,0-.074.767l-.019,3.645-1.784,3.128a4.191,4.191,0,0,0-.032,4.185l1.816,3.184.018,3.354a4.148,4.148,0,0,0,.069,1.062l-2.243,1.3a1.37,1.37,0,1,0,1.37,2.374l2.243-1.295a4.122,4.122,0,0,0,.628.45l3.152,1.842,1.842,3.152A4.2,4.2,0,0,0,106,50.43l3.645.019,3.128,1.784a4.163,4.163,0,0,0,.75.346v2.6a1.371,1.371,0,0,0,2.741,0v-2.6a4.161,4.161,0,0,0,.694-.314l3.184-1.816,3.354-.018A4.208,4.208,0,0,0,127.377,48.366Zm-3.731-.671c-.039,0-.078,0-.117,0l-3.766.02a1.37,1.37,0,0,0-.672.18L115.6,49.883a1.442,1.442,0,0,1-1.444-.014l-.019-.011-3.449-1.967a1.37,1.37,0,0,0-.672-.18l-4.006-.021a1.447,1.447,0,0,1-1.241-.707l-2.024-3.462a1.37,1.37,0,0,0-.492-.492l-3.463-2.024a1.434,1.434,0,0,1-.712-1.364q0-.058,0-.117l-.02-3.766a1.371,1.371,0,0,0-.18-.672l-1.992-3.494a1.442,1.442,0,0,1,.014-1.444l.011-.019,1.967-3.449a1.371,1.371,0,0,0,.18-.672L98.083,22a1.447,1.447,0,0,1,.707-1.241l3.462-2.024a1.37,1.37,0,0,0,.492-.492l2.024-3.463a1.436,1.436,0,0,1,1.364-.712c.039,0,.079,0,.117,0l3.766-.02a1.37,1.37,0,0,0,.672-.18l3.494-1.993a1.442,1.442,0,0,1,1.444.014l.019.011,3.449,1.967a1.37,1.37,0,0,0,.672.18l4.006.021a1.447,1.447,0,0,1,1.241.707l2.023,3.462a1.373,1.373,0,0,0,.492.492l3.463,2.024a1.434,1.434,0,0,1,.711,1.364c0,.039,0,.078,0,.117l.02,3.766a1.37,1.37,0,0,0,.18.672l1.993,3.494a1.442,1.442,0,0,1-.014,1.444l-.011.019L131.9,35.087a1.371,1.371,0,0,0-.18.672l-.021,4.006a1.447,1.447,0,0,1-.706,1.242l-3.462,2.023a1.373,1.373,0,0,0-.492.492l-2.024,3.463a1.457,1.457,0,0,1-1.364.711Z" transform="translate(-79.804 -4.513)" fill="#00223d"/>
        <path id="Trazado_876373" data-name="Trazado 876373" d="M176.149,98.111c-.76-19.974-29.4-19.965-30.151,0a15.127,15.127,0,0,0,8.462,13.55,1.371,1.371,0,1,0,1.2-2.463c-11.663-5.767-7.593-23.323,5.41-23.422,13,.1,17.072,17.657,5.408,23.422a1.371,1.371,0,1,0,1.2,2.463,15.075,15.075,0,0,0,8.463-13.551Z" transform="translate(-125.989 -71.74)" fill="#00223d"/>
        <path id="Trazado_876374" data-name="Trazado 876374" d="M340.875,5.2a1.371,1.371,0,0,0,1.872-.5l1.525-2.642A1.37,1.37,0,1,0,341.9.686l-1.525,2.642A1.37,1.37,0,0,0,340.875,5.2Z" transform="translate(-293.567 0)" fill="#00223d"/>
        <path id="Trazado_876375" data-name="Trazado 876375" d="M142.392,4.7a1.37,1.37,0,1,0,2.374-1.37L143.241.686a1.37,1.37,0,0,0-2.374,1.37Z" transform="translate(-121.403 0)" fill="#00223d"/>
        <path id="Trazado_876376" data-name="Trazado 876376" d="M36.792,185.158h3.05a1.371,1.371,0,0,0,0-2.741h-3.05A1.371,1.371,0,0,0,36.792,185.158Z" transform="translate(-30.575 -157.417)" fill="#00223d"/>
        <path id="Trazado_876377" data-name="Trazado 876377" d="M144.264,345.739a1.37,1.37,0,0,0-1.872.5l-1.525,2.642a1.37,1.37,0,0,0,2.374,1.371l1.525-2.642A1.37,1.37,0,0,0,144.264,345.739Z" transform="translate(-121.403 -298.197)" fill="#00223d"/>
        <path id="Trazado_876378" data-name="Trazado 876378" d="M342.747,346.241a1.37,1.37,0,0,0-2.374,1.37l1.525,2.642a1.37,1.37,0,1,0,2.374-1.37Z" transform="translate(-293.567 -298.197)" fill="#00223d"/>
        <path id="Trazado_876379" data-name="Trazado 876379" d="M435.8,185.158h3.05a1.371,1.371,0,0,0,0-2.741H435.8A1.371,1.371,0,0,0,435.8,185.158Z" transform="translate(-374.903 -157.417)" fill="#00223d"/>
        <path id="Trazado_876380" data-name="Trazado 876380" d="M247.37,282.417h0a1.371,1.371,0,1,0,1.371,1.37A1.37,1.37,0,0,0,247.369,282.417Z" transform="translate(-212.285 -243.712)" fill="#00223d"/>
      </g>
    </g>
  </g>
</svg>
