<svg xmlns="http://www.w3.org/2000/svg" xmlns:xlink="http://www.w3.org/1999/xlink" width="91.737" height="86.793" viewBox="0 0 91.737 86.793">
  <defs>
    <linearGradient id="linear-gradient" x1="0.5" x2="0.5" y2="1" gradientUnits="objectBoundingBox">
      <stop offset="0" stop-color="#fff"/>
      <stop offset="1" stop-color="#d2e6ee"/>
    </linearGradient>
  </defs>
  <g id="Grupo_1099867" data-name="Grupo 1099867" transform="translate(0)">
    <path id="_12068" data-name="12068" d="M78.931,72.011c-9.394-1.3-19.317-.98-27.865,3.126-11.854,5.694-19.64,18.6-19.938,31.75s6.551,26.066,17.132,33.876S72.8,151.341,85.735,149c13.048-2.365,25.295-10.031,32.1-21.411,4.364-7.3,6.4-16.309,3.993-24.463A33.421,33.421,0,0,0,113.9,90.084,58.6,58.6,0,0,0,78.931,72.011Z" transform="translate(-31.119 -63.01)" fill="#7d6eb2"/>
    <g id="Grupo_1099055" data-name="Grupo 1099055" transform="translate(14.158 0)">
      <g id="Grupo_14488" data-name="Grupo 14488" transform="translate(1.138 1.023)">
        <path id="Trazado_24362" data-name="Trazado 24362" d="M151.441,292.88l5.646-1.287a4.526,4.526,0,0,0,3.518-4.5l-.109-5.482-9.027,2.058Z" transform="translate(-129.637 -239.948)" fill="url(#linear-gradient)"/>
        <path id="Trazado_24363" data-name="Trazado 24363" d="M111.572,310.808c-4.179-10.429-5.554-21.985-2.8-31.981l8.575,2.365.006-.022a26.089,26.089,0,0,0-.419,8.583,24.653,24.653,0,0,0,5.275,12.933,4.283,4.283,0,0,1-.668,5.991l-4.39,3.561a3.581,3.581,0,0,1-5.579-1.431Z" transform="translate(-92.221 -237.589)" fill="#6b5e9a"/>
        <path id="Trazado_24364" data-name="Trazado 24364" d="M128.031,302.686a24.652,24.652,0,0,1-5.275-12.933,26.089,26.089,0,0,1,.419-8.584l-.006.022-8.575-2.365c-.143.518-.272,1.041-.392,1.566l2.894.8.006-.022a26.091,26.091,0,0,0-.419,8.584,24.652,24.652,0,0,0,5.275,12.933,4.283,4.283,0,0,1-.669,5.991l-3.51,2.847a3.588,3.588,0,0,0,5.192.714l4.39-3.561a4.282,4.282,0,0,0,.669-5.991Z" transform="translate(-98.042 -237.589)" fill="#7d6eb2"/>
        <g id="Grupo_14487" data-name="Grupo 14487">
          <g id="Grupo_14486" data-name="Grupo 14486">
            <g id="Grupo_14485" data-name="Grupo 14485">
              <path id="Trazado_24365" data-name="Trazado 24365" d="M261.01,78.354C257.13,71,247.3,70.81,247.3,70.81L240.761,42.1s8.453-3.78,9.082-12.739Z" transform="translate(-205.42 -25.937)" fill="url(#linear-gradient)"/>
              <path id="Trazado_24366" data-name="Trazado 24366" d="M75.07,142.123l-32.062-1.094a4.059,4.059,0,0,1-3.639-3.145l-1.508-6.617a4.059,4.059,0,0,1,1.916-4.411l28.75-13.438Z" transform="translate(-33.185 -97.25)" fill="#f5ca56"/>
              <path id="Trazado_24367" data-name="Trazado 24367" d="M210.464,141.915l6.12.209-6.543-28.706-5.488,2.565Z" transform="translate(-174.7 -97.25)" fill="#deac2f"/>
              <path id="Trazado_24368" data-name="Trazado 24368" d="M13.788,237.4l-3.011.645a2.113,2.113,0,0,1-2.53-1.591l-.609-2.671a2.113,2.113,0,0,1,1.591-2.53l3.011-.645Z" transform="translate(-7.584 -196.681)" fill="url(#linear-gradient)"/>
              <path id="Trazado_24369" data-name="Trazado 24369" d="M314.545,61.329h0a2.69,2.69,0,0,1-3.221-2.025L300.093,10.036a2.69,2.69,0,0,1,2.025-3.221h0a2.69,2.69,0,0,1,3.221,2.025l11.231,49.268A2.69,2.69,0,0,1,314.545,61.329Z" transform="translate(-255.701 -6.747)" fill="#7d6eb2"/>
            </g>
          </g>
        </g>
      </g>
      <g id="Grupo_14489" data-name="Grupo 14489" transform="translate(0)">
        <path id="Trazado_24370" data-name="Trazado 24370" d="M56.384,22.274a1.139,1.139,0,0,0-2.22.506l6.806,29.856a1.552,1.552,0,0,1-3.026.689L46.744,4.193c-.453-1.992,2.528-2.871,2.995-.824l3.079,13.506a1.139,1.139,0,0,0,2.22-.506L51.959,2.863c-1.081-4.742-8.53-3.178-7.473,1.666-.66,8.035-8.322,11.588-8.4,11.623l-.008,0-.008,0L7.321,29.6q-.046.022-.09.047A5.171,5.171,0,0,0,4.645,34.05L2.6,34.488A3.256,3.256,0,0,0,.155,38.381l.609,2.671A3.28,3.28,0,0,0,4.643,43.5l2.052-.44a5.169,5.169,0,0,0,4.25,2.874l.05,0,4.77.163c-.144.882-.264,1.779-.353,2.683a50.961,50.961,0,0,0,.745,14.5,1.139,1.139,0,0,0,2.237-.425,48.687,48.687,0,0,1-.716-13.848c.094-.955.222-1.9.38-2.829l6.8.232A28.407,28.407,0,0,0,25.2,55.9a25.922,25.922,0,0,0,4.885,10.644c1.449,1.865.894,3.741-.807,5.121-1.345,1.091-2.6,2.307-4.046,3.267a2.476,2.476,0,0,1-2.734-.018c-1.542-1.046-1.965-3.95-2.482-5.6a1.14,1.14,0,0,0-2.174.679c.708,2.266,1.268,5.379,3.377,6.81a4.8,4.8,0,0,0,5.273.031c1.509-1,2.818-2.258,4.221-3.4,2.677-2.171,3.37-5.456,1.171-8.286a23.638,23.638,0,0,1-4.453-9.7q-.13-.634-.229-1.273l1.713-.391a5.687,5.687,0,0,0,4.4-5.636L33.288,46.7l9.769.333h.017c.091,0,9.081.251,12.653,6.815,1.114,4.789,8.559,3.1,7.462-1.718ZM4.151,41.28a.993.993,0,0,1-1.167-.734l-.609-2.671a.973.973,0,0,1,.719-1.164l1.912-.41,1.042,4.572ZM31.04,48.187a3.4,3.4,0,0,1-2.632,3.371l-1.459.333a25.424,25.424,0,0,1,.2-5.4l3.86.132ZM11.1,43.665A2.906,2.906,0,0,1,8.505,41.4L7,34.785a2.907,2.907,0,0,1,1.339-3.148L35.756,18.82l5.9,25.888Zm32.918,1.149L37.859,17.8A18.053,18.053,0,0,0,45.6,9.437l9,39.5A19.764,19.764,0,0,0,44.017,44.814Z" transform="translate(-0.073 0)" fill="#00223d"/>
        <path id="Trazado_24371" data-name="Trazado 24371" d="M404.471,146.879a1.139,1.139,0,0,0-.052,1.1l.923,1.87-5.431.038a1.139,1.139,0,0,0,.016,2.277l7.248-.05a1.149,1.149,0,0,0,1.013-1.642l-.924-1.873,5.762-.047a1.139,1.139,0,0,0-.019-2.277l-7.577.062a1.138,1.138,0,0,0-.96.541Z" transform="translate(-338.383 -124.106)" fill="#00223d"/>
        <path id="Trazado_24372" data-name="Trazado 24372" d="M386.392,62.4a1.13,1.13,0,0,0,.513-.123L393.372,59a1.149,1.149,0,0,0,.176-1.922l-1.661-1.265,5.138-2.609a1.139,1.139,0,0,0-1.031-2.03L389.238,54.6a1.149,1.149,0,0,0-.174,1.921l1.659,1.264-4.846,2.454A1.15,1.15,0,0,0,386.392,62.4Z" transform="translate(-326.899 -43.304)" fill="#00223d"/>
        <path id="Trazado_24373" data-name="Trazado 24373" d="M425.491,228.732l-5.761-.124.949-1.86a1.149,1.149,0,0,0-.991-1.656l-7.247-.148a1.139,1.139,0,0,0-.047,2.277l5.43.111-.948,1.858a1.149,1.149,0,0,0,.99,1.656l7.575.164a1.139,1.139,0,0,0,.049-2.277Z" transform="translate(-348.987 -190.85)" fill="#00223d"/>
      </g>
    </g>
  </g>
</svg>
