<svg xmlns="http://www.w3.org/2000/svg" width="147.875" height="126.49" viewBox="0 0 147.875 126.49">
  <g id="Grupo_1101899" data-name="Grupo 1101899" transform="translate(-253.313 -13580.402)">
    <path id="_12068" data-name="12068" d="M108.19,72.426c-15.142-2.091-31.137-1.58-44.916,5.039-19.108,9.178-31.658,29.987-32.139,51.18s10.559,42.018,27.615,54.606S98.3,200.3,119.157,196.521c21.033-3.811,40.774-16.169,51.745-34.514,7.035-11.763,10.323-26.289,6.437-39.434-2.346-7.934-7.143-14.963-12.785-21.015A94.461,94.461,0,0,0,108.19,72.426Z" transform="translate(222.194 13509.069)" fill="#fff"/>
    <g id="estadisticas" transform="translate(265.922 13593.06)">
      <path id="Trazado_879330" data-name="Trazado 879330" d="M105.272,459l-.179.2a48.408,48.408,0,0,0,59.641,0l-.179-.2Z" transform="translate(-75.5 -368.298)" fill="#fed2a4"/>
      <g id="Grupo_1101321" data-name="Grupo 1101321" transform="translate(11)">
        <path id="Trazado_879331" data-name="Trazado 879331" d="M59.414,22A48.445,48.445,0,0,0,11.938,79.935l.393.2h7.363V48.677a2.77,2.77,0,0,1,2.767-2.767H96.366a2.77,2.77,0,0,1,2.767,2.767V80.132H106.5l.393-.2A48.446,48.446,0,0,0,59.414,22Z" transform="translate(-11 -17.653)" fill="#d8ecfe"/>
        <g id="Grupo_1101286" data-name="Grupo 1101286" transform="translate(0.938 62.282)">
          <path id="Trazado_879332" data-name="Trazado 879332" d="M457,315.181v17.878h.2a48.156,48.156,0,0,0,7.559-17.878Z" transform="translate(-369.806 -315.181)" fill="#fed2a4"/>
          <path id="Trazado_879333" data-name="Trazado 879333" d="M23.505,315.181H15.749a48.156,48.156,0,0,0,7.559,17.878h.2Z" transform="translate(-15.749 -315.181)" fill="#fed2a4"/>
        </g>
        <path id="Trazado_879334" data-name="Trazado 879334" d="M133.833,196.144v-51.18A2.964,2.964,0,0,0,130.869,142H56.964A2.964,2.964,0,0,0,54,144.964V194.1q.717,1.043,1.488,2.045Z" transform="translate(-45.503 -113.94)" fill="#8d9cdb"/>
        <path id="Trazado_879335" data-name="Trazado 879335" d="M56.964,142A2.964,2.964,0,0,0,54,144.964V194.1q.717,1.043,1.488,2.045H61.9v-5.138H59.928a.988.988,0,0,1-.988-.988v-42.09a.988.988,0,0,1,.988-.988H61.9v-1.976A2.964,2.964,0,0,1,64.868,142Z" transform="translate(-45.503 -113.94)" fill="#7a8ccb"/>
        <g id="Grupo_1101287" data-name="Grupo 1101287" transform="translate(13.437 38.336)">
          <path id="Trazado_879336" data-name="Trazado 879336" d="M148.079,194h-68.2l-.874.2v37.545a.988.988,0,0,0,.988.988h67.977a.988.988,0,0,0,.988-.988V194.2Z" transform="translate(-79 -194)" fill="#fff"/>
        </g>
        <path id="Trazado_879337" data-name="Trazado 879337" d="M84.928,232.545V195H79v37.545a.988.988,0,0,0,.988.988h5.928A.988.988,0,0,1,84.928,232.545Z" transform="translate(-65.563 -156.467)" fill="#f5f8f9"/>
        <g id="Grupo_1101288" data-name="Grupo 1101288" transform="translate(9.832 82.007)">
          <path id="Trazado_879338" data-name="Trazado 879338" d="M146.763,420.928v-2.964A2.964,2.964,0,0,0,143.8,415H60.756a48.7,48.7,0,0,0,8.757,8.892H143.8A2.964,2.964,0,0,0,146.763,420.928Z" transform="translate(-60.756 -415)" fill="#9faced"/>
        </g>
        <g id="Grupo_1101297" data-name="Grupo 1101297" transform="translate(19.14 44.659)">
          <g id="Grupo_1101291" data-name="Grupo 1101291" transform="translate(0 3.142)">
            <g id="Grupo_1101289" data-name="Grupo 1101289">
              <path id="Trazado_879339" data-name="Trazado 879339" d="M130.046,257.137h-21.2a.988.988,0,0,1-.988-.988V242.89a.988.988,0,0,1,.988-.988h21.2a.988.988,0,0,1,.988.988v13.259A.988.988,0,0,1,130.046,257.137Z" transform="translate(-107.857 -241.902)" fill="#26a6fe"/>
            </g>
            <path id="Trazado_879340" data-name="Trazado 879340" d="M114.011,256.149V242.89A.988.988,0,0,1,115,241.9h-6.154a.988.988,0,0,0-.988.988v13.259a.988.988,0,0,0,.988.988H115A.988.988,0,0,1,114.011,256.149Z" transform="translate(-107.857 -241.902)" fill="#0593fc"/>
            <g id="Grupo_1101290" data-name="Grupo 1101290" transform="translate(7.763 3.692)">
              <path id="Trazado_879341" data-name="Trazado 879341" d="M154.745,263.726l-6.353-3.053a.871.871,0,0,0-1.249.785v6.106a.871.871,0,0,0,1.249.785l6.353-3.053A.871.871,0,0,0,154.745,263.726Z" transform="translate(-147.143 -260.585)" fill="#fff"/>
            </g>
          </g>
          <g id="Grupo_1101296" data-name="Grupo 1101296" transform="translate(28.117)">
            <g id="Grupo_1101292" data-name="Grupo 1101292" transform="translate(0 6.026)">
              <path id="Trazado_879342" data-name="Trazado 879342" d="M255.339,268.848h-4.6a.593.593,0,0,1-.593-.593V257.09a.593.593,0,0,1,.593-.593h4.6a.593.593,0,0,1,.593.593v11.165A.593.593,0,0,1,255.339,268.848Z" transform="translate(-250.144 -256.497)" fill="#26a6fe"/>
            </g>
            <path id="Trazado_879343" data-name="Trazado 879343" d="M252.232,268.255V257.09a.593.593,0,0,1,.593-.593h-2.088a.593.593,0,0,0-.593.593v11.165a.593.593,0,0,0,.593.593h2.088A.593.593,0,0,1,252.232,268.255Z" transform="translate(-250.144 -250.471)" fill="#0593fc"/>
            <g id="Grupo_1101293" data-name="Grupo 1101293" transform="translate(8.215)">
              <path id="Trazado_879344" data-name="Trazado 879344" d="M296.909,244.377h-4.6a.593.593,0,0,1-.593-.593V226.593a.593.593,0,0,1,.593-.593h4.6a.593.593,0,0,1,.593.593v17.192A.593.593,0,0,1,296.909,244.377Z" transform="translate(-291.714 -226)" fill="#97d729"/>
            </g>
            <path id="Trazado_879345" data-name="Trazado 879345" d="M293.747,243.785V226.593a.593.593,0,0,1,.593-.593h-2.033a.593.593,0,0,0-.593.593v17.192a.593.593,0,0,0,.593.593h2.033A.593.593,0,0,1,293.747,243.785Z" transform="translate(-283.499 -226)" fill="#8bc727"/>
            <g id="Grupo_1101294" data-name="Grupo 1101294" transform="translate(16.429 4.05)">
              <path id="Trazado_879346" data-name="Trazado 879346" d="M338.48,260.824h-4.6a.593.593,0,0,1-.593-.593V247.09a.593.593,0,0,1,.593-.593h4.6a.593.593,0,0,1,.593.593v13.141A.593.593,0,0,1,338.48,260.824Z" transform="translate(-333.285 -246.497)" fill="#26a6fe"/>
            </g>
            <path id="Trazado_879347" data-name="Trazado 879347" d="M335.345,260.231V247.09a.593.593,0,0,1,.593-.593h-2.06a.593.593,0,0,0-.593.593v13.141a.593.593,0,0,0,.593.593h2.06A.593.593,0,0,1,335.345,260.231Z" transform="translate(-316.856 -242.447)" fill="#0593fc"/>
            <g id="Grupo_1101295" data-name="Grupo 1101295" transform="translate(24.644 9.979)">
              <path id="Trazado_879348" data-name="Trazado 879348" d="M380.05,284.9h-4.6a.593.593,0,0,1-.593-.593V277.09a.593.593,0,0,1,.593-.593h4.6a.593.593,0,0,1,.593.593V284.3A.593.593,0,0,1,380.05,284.9Z" transform="translate(-374.855 -276.497)" fill="#fe9901"/>
            </g>
            <path id="Trazado_879349" data-name="Trazado 879349" d="M376.86,284.3V277.09a.593.593,0,0,1,.593-.593h-2a.593.593,0,0,0-.593.593V284.3a.593.593,0,0,0,.593.593h2A.593.593,0,0,1,376.86,284.3Z" transform="translate(-350.211 -266.518)" fill="#fb8801"/>
          </g>
        </g>
        <g id="Grupo_1101298" data-name="Grupo 1101298" transform="translate(13.437 33)">
          <path id="Trazado_879350" data-name="Trazado 879350" d="M147.965,167H79.988a.988.988,0,0,0-.988.988v4.545h69.953v-4.545A.988.988,0,0,0,147.965,167Z" transform="translate(-79 -167)" fill="#26a6fe"/>
        </g>
        <path id="Trazado_879351" data-name="Trazado 879351" d="M85.916,167H79.988a.988.988,0,0,0-.988.988v4.545h5.928v-4.545A.988.988,0,0,1,85.916,167Z" transform="translate(-65.563 -134)" fill="#0593fc"/>
        <g id="Grupo_1101299" data-name="Grupo 1101299" transform="translate(37.755 82.007)">
          <path id="Trazado_879352" data-name="Trazado 879352" d="M202.061,415l1.889,3.117a2.964,2.964,0,0,0,2.535,1.428h12.469a2.964,2.964,0,0,0,2.535-1.428L223.379,415Z" transform="translate(-202.061 -415)" fill="#7a8ccb"/>
        </g>
        <g id="Grupo_1101300" data-name="Grupo 1101300" transform="translate(85.387 84.919)">
          <ellipse id="Elipse_11939" data-name="Elipse 11939" cx="1.981" cy="1.32" rx="1.981" ry="1.32" transform="translate(0 0)" fill="#97d729"/>
        </g>
        <g id="Grupo_1101304" data-name="Grupo 1101304" transform="translate(19.14 40.905)">
          <g id="Grupo_1101301" data-name="Grupo 1101301">
            <circle id="Elipse_11940" data-name="Elipse 11940" cx="1.482" cy="1.482" r="1.482" fill="#97d729"/>
          </g>
          <g id="Grupo_1101302" data-name="Grupo 1101302" transform="translate(4.15)">
            <circle id="Elipse_11941" data-name="Elipse 11941" cx="1.482" cy="1.482" r="1.482" fill="#97d729"/>
          </g>
          <g id="Grupo_1101303" data-name="Grupo 1101303" transform="translate(8.3)">
            <circle id="Elipse_11942" data-name="Elipse 11942" cx="1.482" cy="1.482" r="1.482" fill="#97d729"/>
          </g>
        </g>
        <g id="Grupo_1101305" data-name="Grupo 1101305" transform="translate(80.105 84.919)">
          <circle id="Elipse_11943" data-name="Elipse 11943" cx="1.32" cy="1.32" r="1.32" transform="translate(0 0)" fill="#fff"/>
        </g>
        <g id="Grupo_1101312" data-name="Grupo 1101312" transform="translate(19.14 65.704)">
          <g id="Grupo_1101306" data-name="Grupo 1101306">
            <path id="Trazado_879353" data-name="Trazado 879353" d="M118.429,335.464h-9.09a1.482,1.482,0,0,1,0-2.964h9.09a1.482,1.482,0,1,1,0,2.964Z" transform="translate(-107.857 -332.5)" fill="#b3dafe"/>
          </g>
          <g id="Grupo_1101307" data-name="Grupo 1101307" transform="translate(46.494)">
            <path id="Trazado_879354" data-name="Trazado 879354" d="M353.715,335.464h-9.09a1.482,1.482,0,0,1,0-2.964h9.09a1.482,1.482,0,1,1,0,2.964Z" transform="translate(-343.143 -332.5)" fill="#b3dafe"/>
          </g>
          <g id="Grupo_1101308" data-name="Grupo 1101308" transform="translate(14.552)">
            <path id="Trazado_879355" data-name="Trazado 879355" d="M208.671,335.464H182.982a1.482,1.482,0,0,1,0-2.964h25.689a1.482,1.482,0,0,1,0,2.964Z" transform="translate(-181.5 -332.5)" fill="#d8ecfe"/>
          </g>
          <g id="Grupo_1101309" data-name="Grupo 1101309" transform="translate(0 5.138)">
            <path id="Trazado_879356" data-name="Trazado 879356" d="M118.429,361.464h-9.09a1.482,1.482,0,0,1,0-2.964h9.09a1.482,1.482,0,1,1,0,2.964Z" transform="translate(-107.857 -358.5)" fill="#b3dafe"/>
          </g>
          <g id="Grupo_1101310" data-name="Grupo 1101310" transform="translate(46.494 5.138)">
            <path id="Trazado_879357" data-name="Trazado 879357" d="M353.715,361.464h-9.09a1.482,1.482,0,0,1,0-2.964h9.09a1.482,1.482,0,1,1,0,2.964Z" transform="translate(-343.143 -358.5)" fill="#d8ecfe"/>
          </g>
          <g id="Grupo_1101311" data-name="Grupo 1101311" transform="translate(14.552 5.138)">
            <path id="Trazado_879358" data-name="Trazado 879358" d="M208.671,361.464H182.982a1.482,1.482,0,0,1,0-2.964h25.689a1.482,1.482,0,0,1,0,2.964Z" transform="translate(-181.5 -358.5)" fill="#b3dafe"/>
          </g>
        </g>
        <g id="Grupo_1101316" data-name="Grupo 1101316" transform="translate(54.342 16.401)">
          <path id="Trazado_879359" data-name="Trazado 879359" d="M308.527,83H287.976A1.976,1.976,0,0,0,286,84.976v20.551a1.976,1.976,0,0,0,1.976,1.976h5.182a1.976,1.976,0,0,1,1.711.988l2.526,4.376a.988.988,0,0,0,1.711,0l2.526-4.376a1.976,1.976,0,0,1,1.711-.988h5.182a1.976,1.976,0,0,0,1.976-1.976V84.976A1.976,1.976,0,0,0,308.527,83Z" transform="translate(-286 -83)" fill="#fe9901"/>
          <g id="Grupo_1101313" data-name="Grupo 1101313">
            <path id="Trazado_879360" data-name="Trazado 879360" d="M290.545,105.527V84.976A1.976,1.976,0,0,1,292.521,83h-4.545A1.976,1.976,0,0,0,286,84.976v20.551a1.976,1.976,0,0,0,1.976,1.976h4.545A1.976,1.976,0,0,1,290.545,105.527Z" transform="translate(-286 -83)" fill="#fb8801"/>
          </g>
          <g id="Grupo_1101314" data-name="Grupo 1101314" transform="translate(6.465 6.848)">
            <path id="Trazado_879361" data-name="Trazado 879361" d="M325.036,117.986l1.329,2.692a.593.593,0,0,0,.446.324l2.971.432a.593.593,0,0,1,.329,1.011l-2.15,2.1a.593.593,0,0,0-.171.525l.508,2.959a.593.593,0,0,1-.86.625l-2.658-1.4a.593.593,0,0,0-.552,0l-2.658,1.4a.593.593,0,0,1-.86-.625l.508-2.959a.593.593,0,0,0-.171-.525l-2.15-2.1a.593.593,0,0,1,.329-1.011L322.2,121a.593.593,0,0,0,.446-.324l1.329-2.692A.593.593,0,0,1,325.036,117.986Z" transform="translate(-318.719 -117.655)" fill="#fff"/>
          </g>
          <g id="Grupo_1101315" data-name="Grupo 1101315" transform="translate(6.465 10.285)">
            <path id="Trazado_879362" data-name="Trazado 879362" d="M323.533,141.26l.507-2.959a.593.593,0,0,0-.171-.525l-2.15-2.1a.586.586,0,0,1-.14-.633l-2.354.342a.593.593,0,0,0-.329,1.011l2.15,2.1a.593.593,0,0,1,.171.525l-.508,2.959a.593.593,0,0,0,.86.625l1.988-1.045A.585.585,0,0,1,323.533,141.26Z" transform="translate(-318.718 -135.047)" fill="#f5f8f9"/>
          </g>
        </g>
        <g id="Grupo_1101320" data-name="Grupo 1101320" transform="translate(21.144)">
          <path id="Trazado_879363" data-name="Trazado 879363" d="M140.527,0H119.976A1.976,1.976,0,0,0,118,1.976V22.527a1.976,1.976,0,0,0,1.976,1.976h5.182a1.976,1.976,0,0,1,1.711.988l2.526,4.376a.988.988,0,0,0,1.711,0l2.526-4.376a1.976,1.976,0,0,1,1.711-.988h5.182a1.976,1.976,0,0,0,1.976-1.976V1.976A1.976,1.976,0,0,0,140.527,0Z" transform="translate(-118)" fill="#fed402"/>
          <g id="Grupo_1101317" data-name="Grupo 1101317">
            <path id="Trazado_879364" data-name="Trazado 879364" d="M122.545,22.527V1.976A1.976,1.976,0,0,1,124.521,0h-4.545A1.976,1.976,0,0,0,118,1.976V22.527a1.976,1.976,0,0,0,1.976,1.976h4.545A1.976,1.976,0,0,1,122.545,22.527Z" transform="translate(-118)" fill="#fac600"/>
          </g>
          <g id="Grupo_1101318" data-name="Grupo 1101318" transform="translate(6.465 6.848)">
            <path id="Trazado_879365" data-name="Trazado 879365" d="M157.035,34.986l1.329,2.692a.593.593,0,0,0,.446.324l2.971.432a.593.593,0,0,1,.329,1.011l-2.15,2.1a.593.593,0,0,0-.171.525l.507,2.959a.593.593,0,0,1-.86.625l-2.658-1.4a.593.593,0,0,0-.552,0l-2.658,1.4a.593.593,0,0,1-.86-.625l.507-2.959a.593.593,0,0,0-.171-.525l-2.15-2.1a.593.593,0,0,1,.329-1.011L154.2,38a.593.593,0,0,0,.446-.324l1.329-2.692a.593.593,0,0,1,1.064,0Z" transform="translate(-150.717 -34.655)" fill="#fe9901"/>
          </g>
          <g id="Grupo_1101319" data-name="Grupo 1101319" transform="translate(6.465 10.289)">
            <path id="Trazado_879366" data-name="Trazado 879366" d="M155.508,58.275l.507-2.959a.593.593,0,0,0-.171-.525l-2.15-2.1a.585.585,0,0,1-.142-.627l-2.326.338a.593.593,0,0,0-.329,1.011l2.15,2.1a.593.593,0,0,1,.171.525L152.711,59a.593.593,0,0,0,.86.625l1.968-1.034A.584.584,0,0,1,155.508,58.275Z" transform="translate(-150.718 -52.068)" fill="#fb8801"/>
          </g>
        </g>
      </g>
    </g>
  </g>
</svg>
