<svg xmlns="http://www.w3.org/2000/svg" xmlns:xlink="http://www.w3.org/1999/xlink" width="147.875" height="126.49" viewBox="0 0 147.875 126.49">
  <defs>
    <clipPath id="clip-path">
      <rect id="Rectángulo_401529" data-name="Rectángulo 401529" width="104.157" height="62.454" fill="none"/>
    </clipPath>
  </defs>
  <g id="Grupo_1101896" data-name="Grupo 1101896" transform="translate(-411.312 -12951.362)">
    <path id="_12068" data-name="12068" d="M108.19,72.426c-15.142-2.091-31.137-1.58-44.916,5.039-19.108,9.178-31.658,29.987-32.139,51.18s10.559,42.018,27.615,54.606S98.3,200.3,119.157,196.521c21.033-3.811,40.774-16.169,51.745-34.514,7.035-11.763,10.323-26.289,6.437-39.434-2.346-7.934-7.143-14.963-12.785-21.015A94.461,94.461,0,0,0,108.19,72.426Z" transform="translate(380.193 12880.029)" fill="#fff"/>
    <g id="Grupo_1101267" data-name="Grupo 1101267" transform="translate(432.671 12983.381)">
      <g id="Grupo_1101267-2" data-name="Grupo 1101267" clip-path="url(#clip-path)">
        <path id="Trazado_879124" data-name="Trazado 879124" d="M619.475,207.161a1.277,1.277,0,0,0,.787-1.234q-.024-7.206,0-14.413a2.31,2.31,0,0,0-.3-1.158,1.177,1.177,0,0,0-1.139-.477q-4.239-.011-8.479,0c-2.1,0-4.2.009-6.3,0a1.694,1.694,0,0,0-1.5.757c-.153.22-.025.378.085.521a8.825,8.825,0,0,0,.723.828q1.926,1.926,3.866,3.838c.6.082.843.634,1.266.949a11.991,11.991,0,0,1,1.464,1.538c1.154,1.231,2.443,2.323,3.583,3.564.151.164.384.347.17.628l-.1.153c.281.061.538.154.615.477.132.114.271.221.394.344q1.74,1.732,3.473,3.47a1.248,1.248,0,0,0,1.122.447c.048-.127.157-.168.271-.227" transform="translate(-538.541 -169.726)" fill="#2fab51"/>
        <path id="Trazado_879125" data-name="Trazado 879125" d="M12.56,7.643q-2.147,0-4.295,0c-1.37,0-1.359,0-1.335,1.392.006.367.124.5.493.492,1.007-.017,2.015-.008,3.022-.006,1.042,0,1.1.1.725,1.079A4.262,4.262,0,0,1,6.7,13.21a4.9,4.9,0,0,1-4.545-5.9,4.9,4.9,0,0,1,7.82-2.947c.277.222.448.215.66-.026.026-.3.282-.441.469-.609.326-.292.267-.473-.045-.749A6.082,6.082,0,0,0,7.728,1.594,6.764,6.764,0,0,0,2.435,3.261c-.121.1-.212.243-.4.221h0A6.415,6.415,0,0,0,.1,9.271,6.589,6.589,0,0,0,5,14.785a6.743,6.743,0,0,0,4.854-.277,5.923,5.923,0,0,0,3.458-6.146c-.055-.673-.094-.718-.755-.718" transform="translate(0 -1.372)" fill="#4081f5"/>
        <path id="Trazado_879126" data-name="Trazado 879126" d="M316.417,54.84a3.728,3.728,0,0,0,3.122-.075c.246-.12.494-.512.677-.4.3.182.055.583.043.885a2.193,2.193,0,0,1-1.352,1.974,2.4,2.4,0,0,1-2.752-.794c-.345-.592-.7-.545-1.18-.319-.176.082-.351.168-.529.243-.3.127-.348.324-.177.589a5.75,5.75,0,0,0,1.053,1.248,4.186,4.186,0,0,0,3.121.845,3.562,3.562,0,0,0,2.947-1.582,5.124,5.124,0,0,0,.765-3.015c0-2.174.018-4.348,0-6.522-.015-1.448.32-1.286-1.328-1.3-.4,0-.707.053-.6.63-.068-.048-.139-.092-.2-.144a3.726,3.726,0,0,0-4.957.454,4.437,4.437,0,0,0,1.353,7.279m1.429-6.718a2.532,2.532,0,0,1,2.548,3.184,2.343,2.343,0,0,1-1.753,2.024A2.424,2.424,0,0,1,315.678,51c0-.088,0-.176,0-.264a2.512,2.512,0,0,1,2.169-2.618" transform="translate(-280.425 -41.439)" fill="#3f82f5"/>
        <path id="Trazado_879127" data-name="Trazado 879127" d="M838.91,14.052a1.713,1.713,0,0,0-1.229-.121c-.333.03-.278.354-.274.6.027,1.384-.042,2.769.072,4.209a1.068,1.068,0,0,1-.218-.154,3.539,3.539,0,0,0-4.514-.607,4.615,4.615,0,0,0-1.839,4.972,3.874,3.874,0,0,0,5.191,2.915,2.05,2.05,0,0,1,.74-.43c.006-.017.007-.04.019-.048.219-.164.3-.6.584-.533.312.078.081.458.126.7a.4.4,0,0,0,.237.317,6.108,6.108,0,0,1,.688-.007c.378.036.488-.126.487-.489-.01-3.657-.006-7.315-.01-10.972,0-.119.008-.3-.061-.348m-2.164,9.827a2.5,2.5,0,0,1-4.235-.912A2.195,2.195,0,0,1,832.3,21.9c0-1.867,1.152-3.107,2.774-3.039a2.6,2.6,0,0,1,2.329,2.1,3.175,3.175,0,0,1-.66,2.924" transform="translate(-742.606 -12.404)" fill="#737373"/>
        <path id="Trazado_879128" data-name="Trazado 879128" d="M136.483,46.482a4.387,4.387,0,1,0,4.446,4.354,4.326,4.326,0,0,0-4.446-4.354m-.057,7.152a2.558,2.558,0,0,1-2.5-2.725,2.589,2.589,0,0,1,2.635-2.8,2.767,2.767,0,0,1-.135,5.522" transform="translate(-118.072 -41.549)" fill="#ea432e"/>
        <path id="Trazado_879129" data-name="Trazado 879129" d="M435.063,55.64a4.347,4.347,0,0,0,4.488-.146c.2-.386.686-.5.871-.9.042-.093.181-.2.16-.256-.167-.441-.638-.551-.953-.835-.212-.192-.323.012-.439.111a3.355,3.355,0,0,1-1.421.87,2.559,2.559,0,0,1-2.636-1.048c-.158-.253-.126-.414.161-.532,1.589-.651,3.175-1.309,4.763-1.962.048-.02.107-.012.155-.031.623-.242.654-.292.363-.89a3.929,3.929,0,0,0-2.891-2.463,3.823,3.823,0,0,0-3.677,1.231,3.846,3.846,0,0,1-.395.343h0a4.432,4.432,0,0,0-.779,2.854,4.084,4.084,0,0,0,2.229,3.654m-.289-4.439a2.4,2.4,0,0,1,2.392-2.1,1.757,1.757,0,0,1,1.26.529c.187.195.215.382-.055.5q-1.641.7-3.294,1.38c-.3.123-.308-.088-.3-.308" transform="translate(-386.899 -42.453)" fill="#ec4430"/>
        <path id="Trazado_879130" data-name="Trazado 879130" d="M669.177,55.91a3.312,3.312,0,0,0,2.339-1.288c.762-1,.709-.815-.431-1.319a.391.391,0,0,0-.573.165,2.242,2.242,0,0,1-2.565,1.024,2.512,2.512,0,0,1-2.006-2.02c-.1-.419-.02-.583.44-.57.9.025,1.8.007,2.7.007v.012c.937,0,1.873-.007,2.81,0,.3,0,.47-.076.457-.413-.094-2.368-1.32-4.2-3.95-4.251a3.685,3.685,0,0,0-3.637,2.347,4.554,4.554,0,0,0,.588,4.974,3.987,3.987,0,0,0,3.824,1.327m-3.1-5.63a2.377,2.377,0,0,1,2.1-1.591,2.306,2.306,0,0,1,2.4,1.431c.169.367.12.517-.307.508-.651-.014-1.3,0-1.953,0v0c-.669,0-1.338,0-2.006,0-.263,0-.339-.065-.233-.343" transform="translate(-593.8 -42.246)" fill="#747474"/>
        <path id="Trazado_879131" data-name="Trazado 879131" d="M758.87,49.832A3.024,3.024,0,0,0,754,47.753c-.265.191-.5.427-.812.7-.056-1.074-.056-1.074-1.092-1.019h-.053c-.27-.012-.352.1-.35.382.019,2.315.017,4.629.02,6.944,0,1.031-.038.783.857.845.556.039.686-.157.672-.687-.037-1.324-.032-2.651,0-3.975a2.331,2.331,0,0,1,1.339-2.182,2,2,0,0,1,2.02.154,1.9,1.9,0,0,1,.776,1.757c.014,1.484,0,2.968,0,4.453,0,.212-.035.456.281.468.335.013.671.009,1.007,0,.229,0,.294-.16.288-.361-.055-1.8.107-3.606-.086-5.4" transform="translate(-671.932 -42.142)" fill="#737373"/>
        <path id="Trazado_879132" data-name="Trazado 879132" d="M924.242,51.593a3.6,3.6,0,0,0-1.634-.7,8.908,8.908,0,0,1-1.98-.553.788.788,0,0,1-.171-1.348,2.171,2.171,0,0,1,2.94.347c.105.136.195.327.413.252.38-.131.9-.2,1.053-.524s-.321-.605-.52-.906c-.019-.028-.055-.044-.081-.068a3.956,3.956,0,0,0-4.931-.06,2.045,2.045,0,0,0,.194,3.343,3.788,3.788,0,0,0,1.25.55c.6.15,1.2.28,1.794.454a1.148,1.148,0,0,1,.95,1.071,1.251,1.251,0,0,1-1.029,1.007,2.184,2.184,0,0,1-2.478-.884c-.359-.6-.661-.5-1.106-.265a.65.65,0,0,1-.143.069c-.44.1-.472.317-.244.684a3.61,3.61,0,0,0,3.344,1.827,3.828,3.828,0,0,0,1.756-.335,2.329,2.329,0,0,0,.623-3.954" transform="translate(-820.929 -42.187)" fill="#747474"/>
        <path id="Trazado_879133" data-name="Trazado 879133" d="M539.734,15.555c.794-.015,1.59.011,2.384-.019.414-.016.554.108.552.536-.015,2.985,0,5.97-.007,8.955,0,.984-.008.956.986.991.472.017.556-.16.551-.58-.021-1.536-.008-3.073-.009-4.61,0-1.59.011-3.179-.009-4.769,0-.389.1-.536.5-.523.794.026,1.589.011,2.384.009.136,0,.329.062.389-.084a2.011,2.011,0,0,0,.038-1.2c-.068-.312-.411-.2-.643-.2-2.173-.006-4.345,0-6.518,0-1.05,0-1.038,0-1.032,1.062,0,.325.113.437.431.43" transform="translate(-482.076 -12.557)" fill="#727272"/>
        <path id="Trazado_879134" data-name="Trazado 879134" d="M616.578,55.338c0,1.02,0,1,1.02,1.024.449.012.523-.161.517-.555-.02-1.325,0-2.65-.008-3.975a2.209,2.209,0,0,1,2.5-2.284c.382.081,1.094-.968.929-1.324a.312.312,0,0,0-.259-.155,2.826,2.826,0,0,0-2.84.876c-.115.127-.117.348-.4.4a1.649,1.649,0,0,1-.032-.222c.005-.963.006-.963-.969-.941a.384.384,0,0,1-.053,0c-.366-.042-.441.15-.438.476q.031,3.338.038,6.676" transform="translate(-551.118 -42.898)" fill="#747474"/>
        <path id="Trazado_879135" data-name="Trazado 879135" d="M235.57,389.593c-1.331-1.247-2.473-2.68-3.86-3.875-.647-.558-1.2-1.22-1.8-1.835l-.106.11a25.494,25.494,0,0,0,2.227,2.308c1.169,1.039,2.151,2.252,3.312,3.291.414.371.4.664-.067.931a4.93,4.93,0,0,0-.879.8c-.63.584-1.281,1.173-1.837,1.8-1.142,1.292-2.467,2.392-3.624,3.665a15.183,15.183,0,0,1-1.235,1.317c-1.4,1.214-2.6,2.634-3.964,3.88a12.966,12.966,0,0,1-1.493,1.423c-.457.3-.679.877-1.142,1.222-.829.617-1.177.615-1.9-.115a12.091,12.091,0,0,1-1.379-1.374c-.819-1.139-2.1-1.824-2.926-2.965a1.415,1.415,0,0,1-.369-.919.732.732,0,0,0-.323.646h0a1.488,1.488,0,0,0,.308.487c1.6,1.6,3.191,3.2,4.8,4.79a1.168,1.168,0,0,0,1.776.019c1.429-1.268,2.691-2.7,4.067-4.026,1.31-1.26,2.574-2.568,3.859-3.854.773-.774,1.565-1.529,2.319-2.322.9-.947,1.84-1.853,2.76-2.779a16.534,16.534,0,0,0,1.561-1.637h0c.369-.362.262-.671-.079-.991" transform="translate(-191.47 -343.148)" fill="#4c77cb"/>
        <path id="Trazado_879136" data-name="Trazado 879136" d="M617.674,184.944q-6.916,0-13.833,0a7.463,7.463,0,0,0-1.635.086,1.2,1.2,0,0,0-.994,1.137,1.269,1.269,0,0,0,.388,1.046c1.4,1.394,2.782,2.809,4.17,4.217l.241.294a.155.155,0,0,1,.081.011c0-.04.007-.08.01-.121l-.008-.112c-.058-.03-.117-.059-.178-.086-1.292-1.356-2.645-2.651-3.954-3.988a5.569,5.569,0,0,1-.391-.431.851.851,0,0,1,.294-1.432,2.379,2.379,0,0,1,1.124-.259q7.154,0,14.307,0c.106,0,.212,0,.318,0,1.121.034,1.572.485,1.576,1.6.006,1.66,0,3.32,0,4.98,0,3.126-.032,6.253.02,9.378a1.524,1.524,0,0,1-1.133,1.709,1.084,1.084,0,0,0,1.146-1.1q0-7.711,0-15.421a1.347,1.347,0,0,0-1.547-1.513" transform="translate(-537.414 -165.314)" fill="#5cb275"/>
        <path id="Trazado_879137" data-name="Trazado 879137" d="M619.957,204.353c-.052-3.125-.02-6.252-.02-9.378,0-1.66,0-3.32,0-4.98,0-1.117-.455-1.569-1.576-1.6-.106,0-.212,0-.318,0q-7.153,0-14.306,0a2.38,2.38,0,0,0-1.125.259.851.851,0,0,0-.294,1.432,5.573,5.573,0,0,0,.391.431c1.309,1.337,2.662,2.631,3.954,3.988.061.027.12.056.178.086,0-.032,0-.064-.006-.1h0q-1.934-1.918-3.866-3.838a8.773,8.773,0,0,1-.724-.828c-.11-.142-.238-.3-.085-.521a1.694,1.694,0,0,1,1.5-.757c2.1.009,4.2,0,6.3,0q4.239,0,8.479,0a1.177,1.177,0,0,1,1.139.477,2.31,2.31,0,0,1,.3,1.158q-.02,7.206,0,14.412a1.277,1.277,0,0,1-.787,1.234c-.114.059-.222.1-.271.227a1.524,1.524,0,0,0,1.133-1.708" transform="translate(-538.16 -168.399)" fill="#5cb275"/>
        <path id="Trazado_879138" data-name="Trazado 879138" d="M213.641,395.945a.493.493,0,0,1,.081,0,2.129,2.129,0,0,1,.516-.664c1.27-1.209,2.565-2.4,3.766-3.672,1.229-1.305,2.56-2.505,3.781-3.82,1.332-1.433,2.74-2.8,4.16-4.149,1.005-.953,1.917-2.006,2.992-2.885a.441.441,0,0,1-.008-.047.188.188,0,0,1,.149-.156l.011,0q0-.075,0-.15l-.208-.19h0a3.812,3.812,0,0,0-.889.808c-2.932,2.913-5.845,5.846-8.779,8.758-1.717,1.7-3.382,3.459-5.154,5.108-.472.439-.993.95-.676,1.738a.514.514,0,0,1,.26-.688" transform="translate(-190.652 -339.875)" fill="#6c96e3"/>
        <path id="Trazado_879139" data-name="Trazado 879139" d="M360.889,383.381l-.011,0a.188.188,0,0,0-.149.156.387.387,0,0,0,.008.047l.047-.039h0l.106-.11h0c0-.016,0-.033,0-.049" transform="translate(-322.452 -342.695)" fill="#6c96e3"/>
        <path id="Trazado_879140" data-name="Trazado 879140" d="M214.189,528.443c.006-.013.012-.026.018-.039a.4.4,0,0,0-.341.684h0a.733.733,0,0,1,.323-.646" transform="translate(-191.137 -472.331)" fill="#6c96e3"/>
        <path id="Trazado_879141" data-name="Trazado 879141" d="M435.08,256.576c1.439,1.42,2.857,2.86,4.288,4.287.323.322.664.626,1,.939h0q2.274-2.258,4.547-4.517,4.893-4.882,9.781-9.768a6.35,6.35,0,0,1,1.142-1.087c-.135-.062-.147-.2-.2-.322-.706.531-1.168,1.294-1.826,1.881-1.47,1.312-2.822,2.753-4.214,4.147-1.193,1.195-2.391,2.39-3.571,3.6-.9.92-1.844,1.8-2.748,2.706-.855.861-1.7,1.733-2.55,2.605-.467.481-.475.474-.966-.018q-3-3-6-6c-.144-.144-.252-.355-.505-.346a25.624,25.624,0,0,0,1.825,1.892" transform="translate(-387.282 -219.994)" fill="#fdf3b8"/>
        <path id="Trazado_879142" data-name="Trazado 879142" d="M644.388,246.431c.015-.009.029-.019.044-.028h0l-.241-.294c.049.118.062.26.2.322" transform="translate(-575.835 -219.994)" fill="#fdf3b8"/>
        <path id="Trazado_879143" data-name="Trazado 879143" d="M362.237,328.062h.021c0-.036.006-.073.009-.11-.3-.424-.028-.637.259-.939.8-.845,1.705-1.588,2.446-2.5a5.579,5.579,0,0,1,.854-.76,11.048,11.048,0,0,0,1.322-1.335,1.032,1.032,0,0,1,1.574-.139c.713.723,1.492,1.373,2.18,2.128.6.656,1.255,1.266,1.9,1.884.771.745,1.532,1.5,2.305,2.243.29.278.59.546.891.813a.523.523,0,0,0,.472.186l.019-.2a.32.32,0,0,1-.2-.166h-.007a1.38,1.38,0,0,1-.678-.479c-1.219-1.191-2.447-2.377-3.643-3.588-.863-.873-1.774-1.7-2.579-2.636-.11-.127-.28-.231-.217-.445-1.013-.812-1.393-.787-2.339.158q-2.176,2.175-4.347,4.354a4.26,4.26,0,0,0-.922,1h0c.4-.048.441.372.681.532" transform="translate(-323.191 -287.33)" fill="#de6c62"/>
        <path id="Trazado_879144" data-name="Trazado 879144" d="M433.358,327.368c.8.932,1.716,1.763,2.579,2.636,1.2,1.211,2.424,2.4,3.644,3.588a1.38,1.38,0,0,0,.678.479h.007c0-.01-.011-.018-.015-.029-.333-.312-.673-.617-1-.939-1.431-1.428-2.85-2.868-4.288-4.287a25.639,25.639,0,0,1-1.825-1.892c-.063.214.107.318.217.445" transform="translate(-387.168 -292.233)" fill="#de6c62"/>
        <path id="Trazado_879145" data-name="Trazado 879145" d="M226.627,54.873a4.385,4.385,0,0,0,4.523-4.351,4.319,4.319,0,0,0-4.416-4.54,4.446,4.446,0,1,0-.107,8.891m.044-8.594a4.154,4.154,0,1,1-.4,8.284,3.986,3.986,0,0,1-3.8-3.876,4.054,4.054,0,0,1,4.2-4.408" transform="translate(-198.598 -41.102)" fill="#eec53b"/>
        <path id="Trazado_879146" data-name="Trazado 879146" d="M405.813,17.012c.035,0,.071,0,.106,0a.433.433,0,0,0,.433-.443c.034-.508.089-1.017.091-1.525.009-2.7-.016-5.4.017-8.1.01-.879-.123-1.751-.057-2.631a.428.428,0,0,0-.472-.456c-.371,0-.742-.006-1.112,0-.6,0-.7.1-.7.72q0,2.939,0,5.879c0,1.659-.011,3.319,0,4.978.015,1.693-.339,1.6,1.69,1.588m-.84-12.967c1.185.028,1.187,0,1.188,1.2q0,2.6,0,5.191c0,1.925-.014,3.85.009,5.774.006.483-.143.64-.628.621-1.331-.053-1.212.232-1.213-1.212,0-3.637.007-7.275-.011-10.912,0-.5.136-.679.655-.666" transform="translate(-361.228 -3.439)" fill="#beefcb"/>
        <path id="Trazado_879147" data-name="Trazado 879147" d="M577.691,310.908a.217.217,0,0,1-.012-.025,3.671,3.671,0,0,1-.515.566h0c-.03.215-.208.321-.342.455q-6.959,6.967-13.923,13.928c-.135.134-.246.307-.46.335l-.019.018h0l-.1.3h0a1.267,1.267,0,0,0,1.082-.665c.31-.644.908-1.011,1.31-1.562.584-.8,1.519-1.216,2.146-2.035a8.384,8.384,0,0,1,2.446-2.287,1.521,1.521,0,0,0,.5-.532,7.746,7.746,0,0,1,1.409-1.612,16.628,16.628,0,0,0,1.652-1.454,11.857,11.857,0,0,1,2.846-2.826.957.957,0,0,0,.338-.328,9.812,9.812,0,0,1,1.516-1.818.47.47,0,0,1,.758-.067h0c-.117-.286-.406-.288-.636-.388" transform="translate(-502.652 -277.895)" fill="#fdf4bf"/>
        <path id="Trazado_879148" data-name="Trazado 879148" d="M707.09,310.277c-.01.023-.022.043-.034.064a.232.232,0,0,0,.012.025c.23.1.52.1.636.388h0c-.077-.323-.333-.417-.615-.477" transform="translate(-632.029 -277.353)" fill="#fdf4bf"/>
        <path id="Trazado_879149" data-name="Trazado 879149" d="M443.306,45.634a3.749,3.749,0,0,1,3.583,1.907c.173.283.315.592.476.882.215.387.078.538-.258.673-.85.342-1.693.7-2.541,1.045-.813.329-1.619.677-2.434,1-.4.157-.428.343-.148.678a2.4,2.4,0,0,0,3.486.23c.08-.069.152-.148.228-.222.051-.049.1-.117.156-.141.619-.255.849.4,1.285.58.276.114.16.4-.014.628a3.927,3.927,0,0,1-.951.834,1.7,1.7,0,0,0,1.232-1.183c.1-.451-.561-.532-.862-.8-.363-.327-.646-.312-1.007.106a2.364,2.364,0,0,1-3.423,0c-.188-.22-.344-.448.056-.616.63-.265,1.262-.526,1.893-.789,1.084-.452,2.165-.914,3.255-1.351.241-.1.3-.255.229-.449a4.844,4.844,0,0,0-1.94-2.554,3.923,3.923,0,0,0-3.591-.258,3.015,3.015,0,0,0-1.779,1.535,3.917,3.917,0,0,1,3.07-1.732" transform="translate(-393.522 -40.688)" fill="#e6938a"/>
        <path id="Trazado_879150" data-name="Trazado 879150" d="M440.631,47.95a3.824,3.824,0,0,1,3.677-1.231,3.929,3.929,0,0,1,2.891,2.463c.291.6.26.648-.363.89-.048.019-.107.011-.155.031-1.588.654-3.174,1.312-4.763,1.962-.288.118-.319.279-.162.532a2.559,2.559,0,0,0,2.636,1.048,3.354,3.354,0,0,0,1.421-.87c.116-.1.227-.3.439-.111.315.284.786.394.953.835.021.056-.118.163-.16.256-.184.4-.67.514-.87.9a3.928,3.928,0,0,0,.952-.834c.174-.226.29-.514.014-.628-.437-.181-.666-.836-1.285-.581-.059.024-.105.092-.156.141-.076.074-.148.152-.228.222a2.4,2.4,0,0,1-3.486-.23c-.28-.335-.249-.521.148-.678.816-.323,1.621-.671,2.434-1,.848-.344,1.691-.7,2.541-1.044.336-.135.473-.286.258-.673-.161-.289-.3-.6-.476-.882a3.749,3.749,0,0,0-3.583-1.907,3.917,3.917,0,0,0-3.07,1.733,3.84,3.84,0,0,0,.395-.343" transform="translate(-393.522 -41.614)" fill="#e6938a"/>
        <path id="Trazado_879151" data-name="Trazado 879151" d="M436.333,443.25l-.082-.026h0l-.1.116h0a2.754,2.754,0,0,1-.695.842c-1.556,1.556-3.125,3.1-4.674,4.66a1.3,1.3,0,0,1-2.165.033q-3.5-3.5-6.986-7.008h-.288a.108.108,0,0,0,.018.1h0c.239.029.349.232.484.385.524.592,1.1,1.137,1.662,1.687,1.6,1.562,3.189,3.13,4.716,4.763.866.926,1.865,1.146,2.7.149.46-.551,1.026-1.012,1.535-1.522q1.925-1.926,3.843-3.859h0c-.085-.118-.02-.216.034-.316" transform="translate(-376.63 -394.98)" fill="#eab5ab"/>
        <path id="Trazado_879152" data-name="Trazado 879152" d="M562.072,454.92l-.064-.02c-.055.1-.12.2-.034.316l.1-.3h0" transform="translate(-502.305 -406.63)" fill="#eab5ab"/>
        <path id="Trazado_879153" data-name="Trazado 879153" d="M360.535,379.172a.3.3,0,0,1,0,.041,1.748,1.748,0,0,1,.361.339q1.094,1.091,2.186,2.184c.143.133.28.272.414.414q1.154,1.153,2.309,2.3a6.606,6.606,0,0,1,.917,1.055s0-.007.005-.01a.3.3,0,0,1,.241-.051,4.743,4.743,0,0,0-.641-.817c-1.767-1.726-3.5-3.491-5.238-5.242h0l-.02-.014c-.343-.017-.423-.4-.681-.532h0l-.138.146h0a.224.224,0,0,1,.284.183" transform="translate(-322.024 -338.643)" fill="#9f6793"/>
        <path id="Trazado_879154" data-name="Trazado 879154" d="M386.946,406.11l.414.414c-.134-.142-.271-.281-.414-.414" transform="translate(-345.887 -363.017)" fill="#9f6793"/>
        <path id="Trazado_879155" data-name="Trazado 879155" d="M360.538,380.389a.271.271,0,0,0,0-.042.224.224,0,0,0-.284-.183l.208.19a.514.514,0,0,1,.077.035" transform="translate(-322.026 -339.819)" fill="#9f6793"/>
        <path id="Trazado_879156" data-name="Trazado 879156" d="M362.238,379.341c-.24-.16-.278-.58-.681-.532.258.135.338.515.681.532" transform="translate(-323.192 -338.609)" fill="#9f6793"/>
        <path id="Trazado_879157" data-name="Trazado 879157" d="M421.255,441.093a.108.108,0,0,0-.005.01l.014.02h.288l-.055-.084a.3.3,0,0,0-.241.052" transform="translate(-376.55 -394.237)" fill="#9f6793"/>
        <path id="Trazado_879158" data-name="Trazado 879158" d="M26.512.525a6.324,6.324,0,0,1,1.812,1.05c.361.294.362.424.041.765a4.743,4.743,0,0,0-.571.622,6.562,6.562,0,0,0,.777-.706c.272-.218.253-.387-.015-.614A6.726,6.726,0,0,0,24.483.01,6.505,6.505,0,0,0,21.9.395a5.624,5.624,0,0,0-2.7,1.715A8.993,8.993,0,0,1,21.437.652,6.623,6.623,0,0,1,26.512.525" transform="translate(-17.157 0)" fill="#84aaec"/>
        <path id="Trazado_879159" data-name="Trazado 879159" d="M19.593,2.574A6.763,6.763,0,0,1,24.885.908,6.082,6.082,0,0,1,28.217,2.29c.313.276.371.457.045.749-.187.168-.443.308-.469.609a4.744,4.744,0,0,1,.571-.622c.321-.34.32-.471-.041-.765a6.324,6.324,0,0,0-1.812-1.05,6.623,6.623,0,0,0-5.075.127A8.993,8.993,0,0,0,19.194,2.8h0c.186.022.277-.124.4-.221" transform="translate(-17.157 -0.686)" fill="#84aaec"/>
        <path id="Trazado_879160" data-name="Trazado 879160" d="M416.865,438.017l-.441-.439c.419.51.42.538-.077,1,.256-.062.374-.293.552-.45h0a.075.075,0,0,1-.034-.114" transform="translate(-372.168 -391.146)" fill="#7277c2"/>
        <path id="Trazado_879161" data-name="Trazado 879161" d="M362.537,382.825a1.279,1.279,0,0,1,.217.11l-.179-.2a.213.213,0,0,1-.038.086" transform="translate(-324.068 -342.126)" fill="#7277c2"/>
        <path id="Trazado_879162" data-name="Trazado 879162" d="M368.063,389.28c-.628-.624-1.26-1.244-1.875-1.882-.633-.657-1.258-1.32-1.934-1.935-.623-.567-1.193-1.186-1.762-1.806a1.282,1.282,0,0,0-.217-.11.246.246,0,0,1-.031.036c.6.615,1.154,1.278,1.8,1.835,1.387,1.2,2.529,2.628,3.86,3.875.341.32.448.629.079.991h0c.5-.465.5-.493.077-1" transform="translate(-323.807 -342.848)" fill="#7277c2"/>
        <path id="Trazado_879163" data-name="Trazado 879163" d="M362.217,382.008q0,.075,0,.15l.032.013a.211.211,0,0,0,.037-.086l-.071-.078" transform="translate(-323.782 -341.473)" fill="#7277c2"/>
        <path id="Trazado_879164" data-name="Trazado 879164" d="M362.239,383.469h0a.233.233,0,0,0,.031-.036l-.032-.013v.049" transform="translate(-323.8 -342.735)" fill="#7277c2"/>
        <path id="Trazado_879165" data-name="Trazado 879165" d="M421.126,441.732h0l-.016-.016a.075.075,0,0,0,.034.114.108.108,0,0,1-.018-.1" transform="translate(-376.413 -394.845)" fill="#7277c2"/>
        <path id="Trazado_879166" data-name="Trazado 879166" d="M393.158,412.313q-1.155-1.151-2.308-2.3c.211.224.414.455.612.688.672.792,1.5,1.425,2.161,2.226l.01.012.441.439,0,0a6.6,6.6,0,0,0-.917-1.055" transform="translate(-349.376 -366.502)" fill="#7277c2"/>
        <path id="Trazado_879167" data-name="Trazado 879167" d="M363.684,383.169a10.621,10.621,0,0,0,1.385,1.366c.128.1.253.213.373.325q-1.093-1.092-2.186-2.184a1.751,1.751,0,0,0-.361-.339.245.245,0,0,1-.005.043l.18.2a2.913,2.913,0,0,1,.615.593" transform="translate(-324.382 -341.768)" fill="#7277c2"/>
        <path id="Trazado_879168" data-name="Trazado 879168" d="M367.979,387.965c-.2-.233-.4-.465-.612-.688l-.414-.414c-.121-.112-.245-.221-.373-.325a10.622,10.622,0,0,1-1.385-1.366,2.917,2.917,0,0,0-.615-.593c.569.62,1.139,1.239,1.762,1.806.676.615,1.3,1.279,1.934,1.936.615.638,1.247,1.258,1.875,1.882l-.01-.012c-.66-.8-1.489-1.433-2.161-2.226" transform="translate(-325.894 -343.771)" fill="#7277c2"/>
        <path id="Trazado_879169" data-name="Trazado 879169" d="M362.294,382.042a.526.526,0,0,0-.076-.035l.071.078a.239.239,0,0,0,.005-.043" transform="translate(-323.782 -341.472)" fill="#7277c2"/>
        <path id="Trazado_879170" data-name="Trazado 879170" d="M421.228,441.679l.016.016-.014-.02,0,0" transform="translate(-376.531 -394.808)" fill="#7277c2"/>
        <path id="Trazado_879171" data-name="Trazado 879171" d="M888.713,119.417c-.006-.118.045-.273-.077-.338-.178-.094-.214.122-.316.2a1.479,1.479,0,0,1-.255.177h0c.223.059.3-.229.5-.22.075.676.075.676.462.655-.332,0-.306-.247-.318-.469" transform="translate(-793.831 -106.422)" fill="#d0d0d0"/>
        <path id="Trazado_879172" data-name="Trazado 879172" d="M888.788,117.941c-.045-.242.186-.621-.126-.7-.285-.071-.365.369-.584.533-.012.009-.013.032-.018.048h0a1.489,1.489,0,0,0,.255-.177c.1-.073.138-.29.316-.2.122.065.07.22.077.338.012.222-.014.465.317.469a.4.4,0,0,1-.237-.317" transform="translate(-793.827 -104.794)" fill="#d0d0d0"/>
        <path id="Trazado_879173" data-name="Trazado 879173" d="M888.067,122.78h0" transform="translate(-793.833 -109.751)" fill="#d0d0d0"/>
        <path id="Trazado_879174" data-name="Trazado 879174" d="M881.081,123.218c.3-.054.6-.1.741-.43h0c-.189.243-.5.272-.74.43" transform="translate(-787.588 -109.759)" fill="#d0d0d0"/>
        <path id="Trazado_879175" data-name="Trazado 879175" d="M888.059,122.787Z" transform="translate(-793.826 -109.758)" fill="#d0d0d0"/>
        <path id="Trazado_879176" data-name="Trazado 879176" d="M881.822,122.784h0a2.049,2.049,0,0,0-.74.43c.238-.158.552-.187.74-.43" transform="translate(-787.588 -109.755)" fill="#d0d0d0"/>
        <path id="Trazado_879177" data-name="Trazado 879177" d="M888.062,122.782h0" transform="translate(-793.828 -109.753)" fill="#d0d0d0"/>
        <path id="Trazado_879178" data-name="Trazado 879178" d="M888.059,122.781h0Z" transform="translate(-793.826 -109.752)" fill="#d0d0d0"/>
        <path id="Trazado_879179" data-name="Trazado 879179" d="M888.059,122.784h0" transform="translate(-793.826 -109.755)" fill="#d0d0d0"/>
        <path id="Trazado_879180" data-name="Trazado 879180" d="M888.065,122.78h0" transform="translate(-793.831 -109.752)" fill="#d0d0d0"/>
        <path id="Trazado_879181" data-name="Trazado 879181" d="M888.06,122.781h0Z" transform="translate(-793.826 -109.753)" fill="#d0d0d0"/>
        <path id="Trazado_879182" data-name="Trazado 879182" d="M645.927,248.809h0a3.725,3.725,0,0,1,1.654,1.43,17.122,17.122,0,0,0,1.335,1.332c.938.876,1.747,1.881,2.735,2.7.482.4.485.637-.178,1.34-.7.744-1.449,1.444-2.172,2.167q-1.364,1.365-2.72,2.737a.363.363,0,0,0-.115.272l.01,0c1.1-.964,2.068-2.056,3.123-3.063.643-.613,1.227-1.287,1.892-1.877a2.263,2.263,0,0,0,.321-.4,2.151,2.151,0,0,1,.563-.53.46.46,0,0,1,.036-.217.523.523,0,0,0,.014-.053l-3.5-3.5-2.828-2.83a.316.316,0,0,1-.034.065l-.025.014c.045.158-.228.23-.115.407" transform="translate(-577.363 -221.974)" fill="#c1c020"/>
        <path id="Trazado_879183" data-name="Trazado 879183" d="M706.932,308.007a.461.461,0,0,0-.036.217c.016-.008.031-.016.047-.023l.1-.153-.094-.094a.516.516,0,0,1-.014.053" transform="translate(-631.883 -275.277)" fill="#c1c020"/>
        <path id="Trazado_879184" data-name="Trazado 879184" d="M647.229,247.974l.025-.014a.32.32,0,0,0,.034-.064l-.051-.051q-.005.06-.01.121s0,.006,0,.009" transform="translate(-578.549 -221.546)" fill="#c1c020"/>
        <path id="Trazado_879185" data-name="Trazado 879185" d="M698.922,311.026a2.254,2.254,0,0,1-.321.4c.125-.11.251-.219.382-.323h0a3.662,3.662,0,0,0,.515-.566.2.2,0,0,1-.013-.041,2.155,2.155,0,0,0-.563.53" transform="translate(-624.471 -277.549)" fill="#c1c020"/>
        <path id="Trazado_879186" data-name="Trazado 879186" d="M706.943,310.341c.012-.021.024-.042.034-.064-.016.007-.031.016-.047.023a.2.2,0,0,0,.013.041" transform="translate(-631.917 -277.353)" fill="#c1c020"/>
        <path id="Trazado_879187" data-name="Trazado 879187" d="M648.3,247.463q1.336,1.351,2.685,2.689c-.4-.421-.774-.862-1.175-1.276a8.508,8.508,0,0,0-1.89-1.718.269.269,0,0,1,.005.057s0,.006,0,.009c.17,0,.271.132.377.239" transform="translate(-579.166 -220.932)" fill="#55a329"/>
        <path id="Trazado_879188" data-name="Trazado 879188" d="M684.75,283.3a1.46,1.46,0,0,1,.175.2.9.9,0,0,0-.259-.344c-.768-.75-1.5-1.533-2.306-2.251-.031-.028-.061-.057-.092-.086q1.243,1.237,2.483,2.479" transform="translate(-609.871 -251.027)" fill="#55a329"/>
        <path id="Trazado_879189" data-name="Trazado 879189" d="M649.154,247.743c.4.414.779.855,1.175,1.276l.581.578c.031.029.061.058.092.086.8.718,1.537,1.5,2.306,2.251a.9.9,0,0,1,.259.344.549.549,0,0,1,.1.291c.213-.281-.019-.463-.17-.628-1.14-1.241-2.429-2.333-3.583-3.564a11.971,11.971,0,0,0-1.463-1.539c-.423-.315-.67-.867-1.266-.949a.238.238,0,0,1,.077.134,8.511,8.511,0,0,1,1.89,1.718" transform="translate(-578.513 -219.799)" fill="#55a329"/>
        <path id="Trazado_879190" data-name="Trazado 879190" d="M647.322,246.9s0-.006,0-.009a.3.3,0,0,0-.005-.057l-.071-.039c0,.037.005.074.008.112h0a.352.352,0,0,1,.066-.007" transform="translate(-578.568 -220.605)" fill="#55a329"/>
        <path id="Trazado_879191" data-name="Trazado 879191" d="M647.187,245.891c0,.032,0,.064.007.1l.071.039a.238.238,0,0,0-.077-.134" transform="translate(-578.513 -219.799)" fill="#55a329"/>
        <path id="Trazado_879192" data-name="Trazado 879192" d="M654.123,254.165a.385.385,0,0,0-.009-.2,1.453,1.453,0,0,0-.175-.2q-1.237-1.244-2.483-2.479c-.2-.185-.393-.379-.581-.578q-1.347-1.341-2.685-2.689c-.106-.107-.207-.241-.377-.239a.287.287,0,0,1-.015.058l2.828,2.83,3.5,3.5" transform="translate(-579.06 -221.487)" fill="#55a329"/>
        <path id="Trazado_879193" data-name="Trazado 879193" d="M677.377,275.954l-.581-.578c.188.2.38.393.581.578" transform="translate(-604.98 -246.155)" fill="#55a329"/>
        <path id="Trazado_879194" data-name="Trazado 879194" d="M707.312,306.092a.391.391,0,0,1,.009.2l.094.094a.549.549,0,0,0-.1-.291" transform="translate(-632.258 -273.612)" fill="#55a329"/>
        <path id="Trazado_879195" data-name="Trazado 879195" d="M647.386,247.78a.357.357,0,0,0-.066.007h0l.051.051a.315.315,0,0,0,.015-.058" transform="translate(-578.632 -221.488)" fill="#55a329"/>
        <path id="Trazado_879196" data-name="Trazado 879196" d="M152.044,61.84a2.589,2.589,0,0,0-2.635,2.8,2.558,2.558,0,0,0,2.5,2.725,2.767,2.767,0,0,0,.135-5.522m-.154,5.342a2.553,2.553,0,0,1-2.295-2.645,2.414,2.414,0,0,1,2.53-2.482,2.462,2.462,0,0,1,2.264,2.5,2.568,2.568,0,0,1-2.5,2.628" transform="translate(-133.555 -55.278)" fill="#eb958a"/>
        <path id="Trazado_879197" data-name="Trazado 879197" d="M232.575,386.21c-1.3,1.316-2.668,2.57-3.965,3.889q-2.3,2.336-4.61,4.656c-1.906,1.906-3.786,3.84-5.77,5.667-.166.153-.257.378-.461.491a.085.085,0,0,1,.057.067c.172.953.959,1.466,1.572,2.062a20.857,20.857,0,0,1,2.094,2.136,8.706,8.706,0,0,0,1.365,1.249.826.826,0,0,0,1.036.011,3.489,3.489,0,0,0,.8-.69c.926-1.137,2.072-2.056,3.1-3.1,1.1-1.116,2.246-2.19,3.335-3.311,1.3-1.34,2.672-2.613,3.945-3.977.9-.967,1.946-1.8,2.759-2.846a2.13,2.13,0,0,1,.506-.379c.356-.255.388-.457.094-.785a13.336,13.336,0,0,0-1.164-1.16,7.056,7.056,0,0,1-.778-.791c-.967-1.148-2.171-2.063-3.162-3.19-.129-.147-.308-.255-.367-.45a1.8,1.8,0,0,1-.381.448" transform="translate(-194.66 -344.828)" fill="#4181f9"/>
        <path id="Trazado_879198" data-name="Trazado 879198" d="M232.479,385.007c.058.2.238.3.367.45.99,1.127,2.194,2.041,3.161,3.19a7.062,7.062,0,0,0,.778.791,13.315,13.315,0,0,1,1.164,1.16c.295.327.262.53-.093.785a2.134,2.134,0,0,0-.506.379c-.813,1.051-1.857,1.879-2.759,2.846-1.273,1.364-2.643,2.637-3.945,3.977-1.089,1.121-2.236,2.2-3.336,3.311-1.025,1.04-2.17,1.959-3.1,3.1a3.5,3.5,0,0,1-.8.69.826.826,0,0,1-1.036-.011,8.708,8.708,0,0,1-1.365-1.249,20.868,20.868,0,0,0-2.094-2.136c-.613-.6-1.4-1.109-1.572-2.062a.085.085,0,0,0-.057-.067.5.5,0,0,1-.055.028,1.417,1.417,0,0,0,.369.919c.827,1.141,2.107,1.826,2.926,2.965a12.1,12.1,0,0,0,1.379,1.373c.726.73,1.073.732,1.9.114.463-.344.685-.919,1.142-1.222a12.969,12.969,0,0,0,1.493-1.423c1.364-1.246,2.566-2.666,3.964-3.88a15.2,15.2,0,0,0,1.235-1.317c1.157-1.273,2.482-2.372,3.624-3.665.557-.63,1.208-1.218,1.837-1.8a4.942,4.942,0,0,1,.879-.8c.466-.267.481-.56.067-.931-1.161-1.039-2.143-2.253-3.312-3.291a25.508,25.508,0,0,1-2.227-2.308.672.672,0,0,1-.037.09" transform="translate(-194.183 -344.073)" fill="#4181f9"/>
        <path id="Trazado_879199" data-name="Trazado 879199" d="M217.911,400c1.984-1.827,3.864-3.761,5.77-5.667q2.315-2.315,4.61-4.655c1.3-1.319,2.663-2.573,3.965-3.889a1.8,1.8,0,0,0,.381-.448.462.462,0,0,1-.01-.05c-1.076.879-1.987,1.932-2.992,2.885-1.419,1.346-2.828,2.716-4.16,4.149-1.221,1.315-2.552,2.515-3.781,3.82-1.2,1.275-2.5,2.462-3.766,3.672a2.129,2.129,0,0,0-.516.664.172.172,0,0,1,.038.01c.2-.112.3-.338.461-.491" transform="translate(-194.342 -344.405)" fill="#4181f9"/>
        <path id="Trazado_879200" data-name="Trazado 879200" d="M360.806,384.956a.492.492,0,0,0,.01.05.693.693,0,0,0,.037-.09h0l-.047.039" transform="translate(-322.52 -344.072)" fill="#4181f9"/>
        <path id="Trazado_879201" data-name="Trazado 879201" d="M217.262,528.439c-.006.013-.012.026-.018.039a.457.457,0,0,0,.056-.028.176.176,0,0,0-.038-.01" transform="translate(-194.192 -472.366)" fill="#4181f9"/>
        <path id="Trazado_879202" data-name="Trazado 879202" d="M515.263,250.178q-6.952,6.973-13.922,13.928c-.16.16-.3.36-.541.408a.332.332,0,0,1,.186.157,7.012,7.012,0,0,0,1.586-1.6c.5-.526,1.041-.995,1.562-1.488.626-.592,1.2-1.234,1.8-1.846.542-.55,1.109-1.068,1.684-1.582a9.547,9.547,0,0,0,1.146-1.236A14.925,14.925,0,0,1,510.786,255c.353-.312.628-.711.961-1.047q1.815-1.834,3.646-3.651a3.905,3.905,0,0,1,.769-.745c-.165-.205.054-.306.164-.436a.19.19,0,0,1-.092.011,5.653,5.653,0,0,1-.971,1.046" transform="translate(-447.66 -222.686)" fill="#f1cc46"/>
        <path id="Trazado_879203" data-name="Trazado 879203" d="M646.243,248.9a.191.191,0,0,0,.092-.011l.012-.015a.155.155,0,0,0-.081-.011c-.007.013-.016.025-.023.037" transform="translate(-577.669 -222.457)" fill="#f1cc46"/>
        <path id="Trazado_879204" data-name="Trazado 879204" d="M500.85,264.122q6.966-6.959,13.922-13.928a5.646,5.646,0,0,0,.971-1.045h0l-.019-.009a6.35,6.35,0,0,0-1.142,1.087q-4.893,4.881-9.781,9.767-2.269,2.264-4.547,4.517h0c.02.006.039.013.058.02.242-.049.38-.249.541-.409" transform="translate(-447.169 -222.703)" fill="#f1cc46"/>
        <path id="Trazado_879205" data-name="Trazado 879205" d="M646.045,248.9l.019.009h0c.008-.013.016-.025.023-.037h0c-.015.009-.029.019-.044.028" transform="translate(-577.492 -222.467)" fill="#f1cc46"/>
        <path id="Trazado_879206" data-name="Trazado 879206" d="M500.438,394.192c-.014,0-.028.007-.043.008a.321.321,0,0,0,.2.166l.032-.018a.333.333,0,0,0-.186-.156" transform="translate(-447.297 -352.364)" fill="#f1cc46"/>
        <path id="Trazado_879207" data-name="Trazado 879207" d="M500.252,394a.3.3,0,0,0,.015.029c.015,0,.029-.006.043-.008-.019-.007-.038-.014-.058-.02" transform="translate(-447.17 -352.194)" fill="#f1cc46"/>
        <path id="Trazado_879208" data-name="Trazado 879208" d="M645.059,249.5c.021-.012.041-.025.063-.036-.112-.177.161-.248.115-.407l-.014.006c-.11.13-.329.231-.164.436" transform="translate(-576.558 -222.634)" fill="#f1cc46"/>
        <path id="Trazado_879209" data-name="Trazado 879209" d="M647.11,248.995l.015-.006,0-.009-.013.015" transform="translate(-578.444 -222.56)" fill="#f1cc46"/>
        <path id="Trazado_879210" data-name="Trazado 879210" d="M651.24,365.9h0" transform="translate(-582.136 -327.077)" fill="#fbbd01"/>
        <path id="Trazado_879211" data-name="Trazado 879211" d="M509.238,274.464q3.219-3.228,6.444-6.449c.136-.137.259-.287.388-.431h0a.725.725,0,0,1,.309-.522,14.172,14.172,0,0,0,1.327-1.331.63.63,0,0,1,.487-.272s0-.008,0-.012l-.01,0c-.131-.261.08-.394.218-.535,1.453-1.487,2.939-2.943,4.405-4.418.062-.062.128-.121.188-.186.669-.721.625-.824-.011-1.534-.882-.986-1.854-1.88-2.785-2.812-.671-.672-1.3-1.391-2-2.033a2.554,2.554,0,0,0-.572-.376l-.012-.013a3.827,3.827,0,0,1-.774.858,32.781,32.781,0,0,1-2.729,2.66,10.4,10.4,0,0,0-1.18,1.286,16.121,16.121,0,0,1-1.85,1.734,15.5,15.5,0,0,0-1.18,1.287c-1.253,1.34-2.643,2.539-3.876,3.9-.715.791-1.587,1.446-2.311,2.245-.225.248-.443.5-.669.748-.166.181-.3.471-.622.391,0,.011.009.023.012.035a.232.232,0,0,1-.042.174,1.99,1.99,0,0,1,.477.43q2.444,2.437,4.879,4.883a3.316,3.316,0,0,0,.918.689.281.281,0,0,1,.058-.013.164.164,0,0,1,.08.029.688.688,0,0,1,.093-.094c.017-.012.033-.026.049-.039a2.6,2.6,0,0,1,.286-.279" transform="translate(-449.089 -226.633)" fill="#fbbd01"/>
        <path id="Trazado_879212" data-name="Trazado 879212" d="M502.149,395.885a.335.335,0,0,0-.012-.035c-.015,0-.03-.007-.046-.012l-.019.2.035.018a.233.233,0,0,0,.042-.174" transform="translate(-448.796 -353.834)" fill="#fbbd01"/>
        <path id="Trazado_879213" data-name="Trazado 879213" d="M562.916,453.432a.669.669,0,0,0-.093.094.163.163,0,0,1,.045.047h0l.019-.018a.457.457,0,0,1,.078-.162c-.017.013-.032.026-.049.039" transform="translate(-503.101 -405.283)" fill="#fbbd01"/>
        <path id="Trazado_879214" data-name="Trazado 879214" d="M561.665,454.393a.164.164,0,0,0-.08-.029.3.3,0,0,0-.058.013l.037.018.082.026.009-.016.01-.011" transform="translate(-501.944 -406.151)" fill="#fbbd01"/>
        <path id="Trazado_879215" data-name="Trazado 879215" d="M562.664,454.64l-.01.011-.009.016.064.02a.158.158,0,0,0-.045-.048" transform="translate(-502.942 -406.398)" fill="#fbbd01"/>
        <path id="Trazado_879216" data-name="Trazado 879216" d="M645.85,252.975a2.566,2.566,0,0,1,.572.376c.7.642,1.325,1.361,2,2.033.932.933,1.9,1.827,2.785,2.813.635.71.679.813.011,1.534-.06.065-.126.123-.188.186-1.467,1.474-2.952,2.93-4.405,4.418-.138.142-.35.274-.218.535l.01,0a.363.363,0,0,1,.115-.272q1.36-1.369,2.72-2.737c.723-.724,1.471-1.424,2.172-2.167.663-.7.66-.94.178-1.34-.988-.819-1.8-1.824-2.735-2.7a17.1,17.1,0,0,1-1.335-1.332,3.727,3.727,0,0,0-1.654-1.43h0c-.01.024-.023.045-.034.068l.012.013" transform="translate(-577.307 -226.059)" fill="#fbbd01"/>
        <path id="Trazado_879217" data-name="Trazado 879217" d="M503.191,267.985c.226-.246.444-.5.669-.748.724-.8,1.6-1.454,2.311-2.245,1.233-1.364,2.623-2.563,3.876-3.9a15.488,15.488,0,0,1,1.18-1.287,16.11,16.11,0,0,0,1.85-1.734,10.413,10.413,0,0,1,1.18-1.286,32.775,32.775,0,0,0,2.729-2.66,3.835,3.835,0,0,0,.774-.858l-.029-.032a3.9,3.9,0,0,0-.769.745c-1.217,1.216-2.436,2.429-3.646,3.652-.333.337-.608.736-.961,1.048a14.887,14.887,0,0,0-2.021,1.918,9.545,9.545,0,0,1-1.145,1.236c-.574.515-1.141,1.032-1.684,1.583-.6.612-1.174,1.254-1.8,1.846-.521.493-1.065.962-1.562,1.488a7.016,7.016,0,0,1-1.586,1.6.325.325,0,0,1,.014.031c.326.08.456-.21.622-.391" transform="translate(-449.228 -226.36)" fill="#fbbd01"/>
        <path id="Trazado_879218" data-name="Trazado 879218" d="M502.285,395.666l-.032.018c.016.005.031.009.046.013a.3.3,0,0,0-.014-.031" transform="translate(-448.958 -353.681)" fill="#fbbd01"/>
        <path id="Trazado_879219" data-name="Trazado 879219" d="M645.625,252.895c-.022.011-.042.024-.063.036.008.01.019.021.029.032.011-.023.024-.044.034-.068" transform="translate(-577.06 -226.06)" fill="#fbbd01"/>
        <path id="Trazado_879220" data-name="Trazado 879220" d="M388.553,341.14c-1.829-1.826-3.665-3.644-5.484-5.48a.5.5,0,0,1-.143-.224l0,.005c-.26.119-.443-.039-.615-.189-.918-.8-1.758-1.685-2.632-2.533-1.468-1.424-2.894-2.891-4.375-4.3-.627-.6-1.073-.564-1.679.033q-2.333,2.3-4.657,4.609a.711.711,0,0,0-.165.718.325.325,0,0,1-.022.075,19.507,19.507,0,0,1,2.515,2.443c.207.235.476.415.7.636.972.958,1.917,1.943,2.927,2.864.287.262.445.646.746.93,1.307,1.234,2.637,2.441,3.841,3.786a29.366,29.366,0,0,0,2.67,2.468c.45.392.9.274,1.57-.375.933-.9,1.855-1.816,2.729-2.78.714-.787,1.614-1.4,2.278-2.247a.231.231,0,0,1,.333-.074.381.381,0,0,1,.094-.074.881.881,0,0,1-.624-.291" transform="translate(-329.639 -293.184)" fill="#ed4532"/>
        <path id="Trazado_879221" data-name="Trazado 879221" d="M367.242,332.475a.711.711,0,0,1,.165-.718q2.321-2.312,4.657-4.608c.606-.6,1.052-.63,1.679-.033,1.482,1.41,2.908,2.876,4.375,4.3.874.848,1.714,1.731,2.632,2.533.172.15.354.308.615.189l0-.005a.294.294,0,0,1-.01-.045.523.523,0,0,1-.472-.186c-.3-.267-.6-.535-.891-.813-.774-.742-1.534-1.5-2.305-2.243-.64-.618-1.3-1.228-1.9-1.884-.687-.755-1.466-1.405-2.18-2.128a1.032,1.032,0,0,0-1.574.139,11.049,11.049,0,0,1-1.322,1.335,5.584,5.584,0,0,0-.854.76c-.741.908-1.645,1.65-2.446,2.5-.287.3-.559.516-.259.939l.059.048a.315.315,0,0,0,.022-.075" transform="translate(-328.084 -291.88)" fill="#ed4532"/>
        <path id="Trazado_879222" data-name="Trazado 879222" d="M560.3,454.661a.386.386,0,0,0-.094.074l.077.04.1-.116h0c-.028,0-.056,0-.083,0" transform="translate(-500.76 -406.414)" fill="#ed4532"/>
        <path id="Trazado_879223" data-name="Trazado 879223" d="M502.672,398.357a1.991,1.991,0,0,0-.477-.43.223.223,0,0,1-.024.028.5.5,0,0,0,.143.224c1.819,1.836,3.655,3.654,5.484,5.48a.881.881,0,0,0,.624.291.282.282,0,0,1,.047-.021,3.312,3.312,0,0,1-.918-.689q-2.429-2.451-4.879-4.882" transform="translate(-448.885 -355.702)" fill="#ed4532"/>
        <path id="Trazado_879224" data-name="Trazado 879224" d="M502.107,397.778l-.035-.018a.3.3,0,0,0,.011.045.223.223,0,0,0,.024-.028" transform="translate(-448.796 -355.553)" fill="#ed4532"/>
        <path id="Trazado_879225" data-name="Trazado 879225" d="M561.089,454.507a.8.8,0,0,0,.083,0l-.037-.018a.283.283,0,0,0-.047.021" transform="translate(-501.551 -406.26)" fill="#ed4532"/>
        <path id="Trazado_879226" data-name="Trazado 879226" d="M436.968,440.521c-1.592,1.35-2.937,2.952-4.459,4.375a3.789,3.789,0,0,1-.684.494.927.927,0,0,1-1.135-.086,28.3,28.3,0,0,1-2.926-2.755,30.156,30.156,0,0,0-2.6-2.569,27.841,27.841,0,0,1-2.007-2.086c.013.027.028.053.039.083.036.093.114.178.085.282a2.139,2.139,0,0,1,.5.437q3.168,3.163,6.332,6.329a3.413,3.413,0,0,0,.6.523,1.051,1.051,0,0,0,1.319-.1c.731-.714,1.462-1.429,2.185-2.153.8-.8,1.56-1.635,2.391-2.4a11.211,11.211,0,0,0,1.008-1.043c-.279.151-.408.468-.643.667" transform="translate(-378.256 -391.428)" fill="#bf4d43"/>
        <path id="Trazado_879227" data-name="Trazado 879227" d="M368.233,383.35a.362.362,0,0,1-.03.054h-.033v.014h0a.485.485,0,0,1,.2.071l-.135-.138" transform="translate(-329.101 -342.672)" fill="#bf4d43"/>
        <path id="Trazado_879228" data-name="Trazado 879228" d="M368.241,382.878l-.054-.056-.009.11h.033a.344.344,0,0,0,.03-.054" transform="translate(-329.109 -342.2)" fill="#bf4d43"/>
        <path id="Trazado_879229" data-name="Trazado 879229" d="M438.446,442.923a11.188,11.188,0,0,1-1.008,1.043c-.831.764-1.593,1.6-2.391,2.4-.722.724-1.453,1.439-2.185,2.153a1.052,1.052,0,0,1-1.319.1,3.412,3.412,0,0,1-.6-.524q-3.166-3.165-6.332-6.329a2.142,2.142,0,0,0-.5-.437.206.206,0,0,1-.026.059h0q3.493,3.5,6.986,7.008a1.3,1.3,0,0,0,2.165-.033c1.549-1.562,3.118-3.1,4.674-4.66a2.756,2.756,0,0,0,.695-.842h0a.687.687,0,0,0-.166.064" transform="translate(-379.091 -394.498)" fill="#bf4d43"/>
        <path id="Trazado_879230" data-name="Trazado 879230" d="M374.129,390.07c.028-.1-.05-.188-.086-.282-.011-.029-.026-.055-.039-.083L374,389.7c-.975-1.015-1.993-1.989-2.986-2.988-.88-.886-1.777-1.757-2.645-2.656a.484.484,0,0,0-.2-.071c1.742,1.752,3.471,3.517,5.238,5.243a4.747,4.747,0,0,1,.641.817.5.5,0,0,1,.061.014l.019.011" transform="translate(-329.102 -343.24)" fill="#bf4d43"/>
        <path id="Trazado_879231" data-name="Trazado 879231" d="M423.635,441.105a.494.494,0,0,0-.061-.014l.055.083a.2.2,0,0,0,.026-.058l-.019-.011" transform="translate(-378.628 -394.286)" fill="#bf4d43"/>
        <path id="Trazado_879232" data-name="Trazado 879232" d="M388.755,391c-.664.846-1.564,1.46-2.278,2.247-.875.964-1.8,1.878-2.729,2.78-.671.648-1.12.767-1.57.375a29.384,29.384,0,0,1-2.67-2.468c-1.2-1.345-2.534-2.552-3.841-3.786-.3-.284-.458-.668-.745-.93-1.01-.921-1.955-1.906-2.927-2.864-.224-.221-.493-.4-.7-.636a19.51,19.51,0,0,0-2.515-2.443l0,.008.135.138a2.018,2.018,0,0,1,.341.326q2.265,2.255,4.521,4.52a3.377,3.377,0,0,1,.774.8,27.843,27.843,0,0,0,2.007,2.086,30.121,30.121,0,0,1,2.6,2.569,28.293,28.293,0,0,0,2.925,2.755.927.927,0,0,0,1.135.086,3.779,3.779,0,0,0,.684-.494c1.521-1.422,2.866-3.025,4.459-4.375.235-.2.364-.516.643-.667.029-.035.059-.068.088-.1h0a.232.232,0,0,0-.333.074" transform="translate(-329.644 -342.602)" fill="#bf4d43"/>
        <path id="Trazado_879233" data-name="Trazado 879233" d="M368.321,382.869l-.059-.048.054.056,0-.008" transform="translate(-329.185 -342.199)" fill="#bf4d43"/>
        <path id="Trazado_879234" data-name="Trazado 879234" d="M559.451,455.379c-.029.035-.059.069-.088.1a.673.673,0,0,1,.166-.064l-.077-.04h0" transform="translate(-500.008 -407.057)" fill="#bf4d43"/>
        <path id="Trazado_879235" data-name="Trazado 879235" d="M374.906,389.5q-2.256-2.265-4.521-4.52a2.018,2.018,0,0,0-.341-.326c.868.9,1.764,1.769,2.645,2.656.992,1,2.01,1.973,2.985,2.988l.006.006a3.378,3.378,0,0,0-.774-.8" transform="translate(-330.778 -343.838)" fill="#bf4d43"/>
        <path id="Trazado_879236" data-name="Trazado 879236" d="M228.767,57.061a4.154,4.154,0,1,0,.4-8.284,4.054,4.054,0,0,0-4.2,4.408,3.986,3.986,0,0,0,3.8,3.876m.514-6.778a2.557,2.557,0,0,1,2.369,2.569,2.5,2.5,0,1,1-4.972.027,2.517,2.517,0,0,1,2.6-2.6" transform="translate(-201.092 -43.601)" fill="#fabd05"/>
        <path id="Trazado_879237" data-name="Trazado 879237" d="M406.1,17.291c0,1.444-.117,1.159,1.213,1.212.485.019.634-.138.628-.621-.023-1.924-.01-3.849-.009-5.774q0-2.6,0-5.191c0-1.2,0-1.177-1.188-1.2-.519-.012-.657.163-.655.666.019,3.637.008,7.275.011,10.912" transform="translate(-363.002 -5.105)" fill="#36a655"/>
        <path id="Trazado_879238" data-name="Trazado 879238" d="M651.24,365.9h0" transform="translate(-582.136 -327.069)" fill="#eab5ab"/>
        <path id="Trazado_879239" data-name="Trazado 879239" d="M634.876,365.821h0l-.036.064c-.069.07-.14.14-.211.209q-.729.809-1.535,1.542c-.055.067-.108.135-.161.2l2.019-2.019a.253.253,0,0,1-.066-.01l-.011.01" transform="translate(-565.772 -326.994)" fill="#eab5ab"/>
        <path id="Trazado_879240" data-name="Trazado 879240" d="M573.114,321.262c-.085.085-.15.23-.293.228L570.8,323.51c-.034.044-.069.087-.1.132-.566.652-1.2,1.238-1.812,1.847-1.819,1.817-3.623,3.65-5.463,5.447.214-.028.326-.2.46-.335q6.964-6.962,13.923-13.928c.134-.134.312-.24.342-.455-1.666,1.695-3.357,3.364-5.038,5.044" transform="translate(-503.64 -282.664)" fill="#eab5ab"/>
        <path id="Trazado_879241" data-name="Trazado 879241" d="M654.466,321.132c-1.055,1.006-2.026,2.1-3.123,3.063a.248.248,0,0,0,.066.011l4.75-4.75c.067-.067.133-.133.2-.2-.665.59-1.249,1.264-1.892,1.877" transform="translate(-582.228 -285.378)" fill="#eab5ab"/>
        <path id="Trazado_879242" data-name="Trazado 879242" d="M656.913,316.538c-.065.068-.132.134-.2.2l-4.75,4.75c.143,0,.208-.144.293-.228,1.681-1.68,3.372-3.35,5.038-5.044h0c-.131.1-.258.212-.382.323" transform="translate(-582.783 -282.661)" fill="#eab5ab"/>
        <path id="Trazado_879243" data-name="Trazado 879243" d="M649.161,365.9h0c-.081.093-.165.182-.247.274.071-.069.141-.138.211-.208l.036-.064h0" transform="translate(-580.057 -327.071)" fill="#eab5ab"/>
        <path id="Trazado_879244" data-name="Trazado 879244" d="M571.28,383.318h0c-.129.144-.251.295-.387.432q-3.221,3.225-6.444,6.449a2.6,2.6,0,0,0-.286.279,4.9,4.9,0,0,0,.459-.426l6.838-6.838c.053-.069.105-.138.161-.2-.113.1-.225.207-.341.308" transform="translate(-504.298 -342.368)" fill="#eab5ab"/>
        <path id="Trazado_879245" data-name="Trazado 879245" d="M568.889,386.918c.61-.609,1.245-1.195,1.812-1.847.032-.045.067-.088.1-.132l-6.838,6.838a4.894,4.894,0,0,1-.459.426.456.456,0,0,0-.078.162c1.84-1.8,3.643-3.63,5.463-5.447" transform="translate(-503.64 -344.093)" fill="#eab5ab"/>
        <path id="Trazado_879246" data-name="Trazado 879246" d="M651.241,365.895h0" transform="translate(-582.136 -327.069)" fill="#c1c020"/>
        <path id="Trazado_879247" data-name="Trazado 879247" d="M633.358,365.891h0a.63.63,0,0,0-.487.272,14.178,14.178,0,0,1-1.327,1.331.725.725,0,0,0-.309.522h0a20.778,20.778,0,0,1,2.122-2.124" transform="translate(-564.254 -327.065)" fill="#c1c020"/>
        <path id="Trazado_879248" data-name="Trazado 879248" d="M634.449,370.018q.8-.734,1.535-1.542a20.466,20.466,0,0,0-1.535,1.542" transform="translate(-567.127 -329.377)" fill="#c1c020"/>
        <path id="Trazado_879249" data-name="Trazado 879249" d="M651.24,365.9h0Z" transform="translate(-582.136 -327.069)" fill="#c1c020"/>
        <path id="Trazado_879250" data-name="Trazado 879250" d="M633.36,365.9a20.759,20.759,0,0,0-2.122,2.124c.115-.1.227-.205.341-.308a20.47,20.47,0,0,1,1.535-1.542C633.2,366.078,633.28,365.989,633.36,365.9Z" transform="translate(-564.257 -327.07)" fill="#c1c020"/>
      </g>
    </g>
  </g>
</svg>
