<svg xmlns="http://www.w3.org/2000/svg" xmlns:xlink="http://www.w3.org/1999/xlink" width="147.875" height="126.49" viewBox="0 0 147.875 126.49">
  <defs>
    <clipPath id="clip-path">
      <rect id="Rectángulo_401536" data-name="Rectángulo 401536" width="118.151" height="25.024" fill="none"/>
    </clipPath>
    <clipPath id="clip-path-2">
      <rect id="Rectángulo_401535" data-name="Rectángulo 401535" width="118.152" height="25.024" fill="none"/>
    </clipPath>
    <clipPath id="clip-path-3">
      <rect id="Rectángulo_401532" data-name="Rectángulo 401532" width="29.194" height="25.024" fill="none"/>
    </clipPath>
  </defs>
  <g id="Grupo_1101898" data-name="Grupo 1101898" transform="translate(-1041.812 -12951.362)">
    <path id="_12068" data-name="12068" d="M108.19,72.426c-15.142-2.091-31.137-1.58-44.916,5.039-19.108,9.178-31.658,29.987-32.139,51.18s10.559,42.018,27.615,54.606S98.3,200.3,119.157,196.521c21.033-3.811,40.774-16.169,51.745-34.514,7.035-11.763,10.323-26.289,6.437-39.434-2.346-7.934-7.143-14.963-12.785-21.015A94.461,94.461,0,0,0,108.19,72.426Z" transform="translate(1010.693 12880.029)" fill="#fff"/>
    <g id="Grupo_1101276" data-name="Grupo 1101276" transform="translate(1056.674 13002.095)">
      <g id="Grupo_1101275" data-name="Grupo 1101275" clip-path="url(#clip-path)">
        <g id="Grupo_1101274" data-name="Grupo 1101274">
          <g id="Grupo_1101273" data-name="Grupo 1101273" clip-path="url(#clip-path-2)">
            <g id="Grupo_1101272" data-name="Grupo 1101272" opacity="0">
              <g id="Grupo_1101271" data-name="Grupo 1101271">
                <g id="Grupo_1101270" data-name="Grupo 1101270" clip-path="url(#clip-path-3)">
                  <rect id="Rectángulo_401531" data-name="Rectángulo 401531" width="29.194" height="25.024" fill="#1d1d1b"/>
                </g>
              </g>
            </g>
            <path id="Trazado_879301" data-name="Trazado 879301" d="M117.147,242.216v-4.021c0-.171.023-.317-.245-.212a18.218,18.218,0,0,1-3.841,1.107c-.212.034-.3.114-.3.347q.013,3.414,0,6.823c0,.233.063.3.3.3,1.238-.013,2.476-.017,3.714,0,.3,0,.377-.1.375-.377C117.14,244.87,117.144,243.543,117.147,242.216Zm-11.14-3.139a17.066,17.066,0,0,1-3.676-1.058c-.271-.11-.313-.04-.311.212v8c0,.258.063.343.334.339,1.215-.015,2.43-.017,3.646,0,.311,0,.387-.087.385-.387q-.015-3.327,0-6.656C106.389,239.23,106.283,239.124,106.006,239.077Z" transform="translate(-94.987 -221.546)" fill="#fcb413"/>
            <path id="Trazado_879302" data-name="Trazado 879302" d="M29.1,9.991q-1.45-1.27-2.9-2.569c-.15-.135-.252-.118-.383.032a13.685,13.685,0,0,1-1.864,1.721,12.239,12.239,0,0,1-1.8,1.2V.379C22.167.083,22.086,0,21.8,0c-1.217.015-2.434.017-3.649,0-.315,0-.372.1-.372.383.015,1.115,0,2.233,0,3.348v7.932c0,.3-.1.406-.372.453-.375.061-.749.1-1.126.152a15.178,15.178,0,0,1-4.5-.148c-.334-.057-.411-.212-.408-.523q0-5.587.015-11.176c0-.349-.1-.423-.434-.423C9.786.023,8.6.021,7.42,0,7.1,0,7.031.1,7.031.4c.011,3.174,0,6.36,0,9.538a.9.9,0,0,1-.023.383c-.074.036-.114-.015-.159-.042A15.061,15.061,0,0,1,3.363,7.468c-.14-.152-.235-.186-.408-.03Q1.566,8.7.157,9.926c-.195.169-.212.262-.028.468a19.6,19.6,0,0,0,10.98,6.013,19.065,19.065,0,0,0,9.06-.5,18.691,18.691,0,0,0,6.37-3.261l.531-.413a17.95,17.95,0,0,0,2.042-1.9.212.212,0,0,0-.008-.341Z" transform="translate(0 0)" fill="#1d1d1b"/>
            <path id="Trazado_879303" data-name="Trazado 879303" d="M481.261,64.884V54.364h-.808v5.007h-6.7V54.364h-.808v10.52h.808V60.105h6.7v4.778Zm5.605.107a3.628,3.628,0,0,0,3.771-3.8,3.772,3.772,0,1,0-7.542,0,3.631,3.631,0,0,0,3.771,3.8m0-.725a2.931,2.931,0,0,1-3.051-3.08,3.053,3.053,0,1,1,6.1,0,2.931,2.931,0,0,1-3.051,3.08m15.448-6.8H501.5l-2.224,6.564-2.253-6.564H496.5l-2.272,6.564-2.238-6.564h-.808l2.642,7.42h.813l1.2-3.231.929-2.9.9,2.885,1.2,3.245h.808Zm6.744.871a3.889,3.889,0,0,0-2.764-.993c-1.5-.015-2.958.613-2.944,2.073.015,1.489,1.44,1.756,2.885,2,1.216.195,2.447.4,2.418,1.469-.044,1.173-1.411,1.416-2.316,1.416a3.308,3.308,0,0,1-2.72-1.265l-.54.482a3.829,3.829,0,0,0,3.245,1.489c1.309,0,3.007-.438,3.051-2.073.078-1.732-1.742-1.956-3.065-2.18-.929-.165-2.224-.36-2.253-1.353-.029-.949,1.08-1.382,2.238-1.367a3.2,3.2,0,0,1,2.316.779Zm5.381,6.656a3.63,3.63,0,0,0,3.771-3.8,3.772,3.772,0,1,0-7.542,0,3.63,3.63,0,0,0,3.771,3.8m0-.725a2.931,2.931,0,0,1-3.051-3.08,3.053,3.053,0,1,1,6.1,0,2.931,2.931,0,0,1-3.051,3.08m11.06-.915a3.142,3.142,0,0,1-2.209.915,3.095,3.095,0,1,1,0-6.189,3.166,3.166,0,0,1,2.224.886l.477-.462a3.842,3.842,0,0,0-2.7-1.114,3.786,3.786,0,1,0,0,7.571,3.8,3.8,0,0,0,2.7-1.109Zm2.734,1.533h-.74V57.429h.74Zm-.949-9.843a.594.594,0,0,0,1.187,0,.594.594,0,0,0-1.187,0m9.449,2.423v1.62a3.356,3.356,0,0,0-3.031-1.713,3.817,3.817,0,0,0,0,7.634,3.461,3.461,0,0,0,3.031-1.7v1.576h.74v-7.42Zm-3.031.613c4.131,0,4.131,6.2,0,6.2a3.1,3.1,0,0,1,0-6.2m9.391-.029a3.118,3.118,0,0,1,0,6.233,3.118,3.118,0,0,1,0-6.233m-3.771-3.683v10.52h.72v-1.64a3.492,3.492,0,0,0,3.095,1.761,3.833,3.833,0,0,0-.015-7.663,3.28,3.28,0,0,0-3.08,1.742v-4.72Zm9.327,10.52h.74V54.364h-.74Zm6.145.107A4.077,4.077,0,0,0,558,63.56l-.526-.418a3.493,3.493,0,0,1-2.676,1.124,2.922,2.922,0,0,1-3.021-2.749h6.69c.282-2.9-1.581-4.175-3.669-4.175a3.73,3.73,0,0,0-3.771,3.829,3.643,3.643,0,0,0,3.771,3.82m-3.021-4.116a2.968,2.968,0,0,1,3.021-2.856,2.724,2.724,0,0,1,3.007,2.856Z" transform="translate(-440.341 -50.617)" fill="#1d1d1b"/>
            <rect id="Rectángulo_401533" data-name="Rectángulo 401533" width="9.181" height="0.487" transform="translate(35.033 19.05)" fill="#1d1d1b"/>
            <rect id="Rectángulo_401534" data-name="Rectángulo 401534" width="9.181" height="0.487" transform="translate(106.538 19.05)" fill="#1d1d1b"/>
            <path id="Trazado_879304" data-name="Trazado 879304" d="M663.768,253.483v1.484h.491v-1.484l1.148-2.345H664.9l-.491,1.08c-.058.141-.122.277-.185.414s-.131.277-.2.418H664c-.063-.141-.126-.282-.185-.418s-.122-.272-.18-.414l-.5-1.08h-.521Zm3.494,1.552a1.474,1.474,0,0,0,1.182-.54,1.759,1.759,0,0,0,.336-.628,2.622,2.622,0,0,0,.122-.832,2.539,2.539,0,0,0-.122-.822,1.756,1.756,0,0,0-.336-.618,1.451,1.451,0,0,0-.521-.389,1.567,1.567,0,0,0-.662-.141,1.625,1.625,0,0,0-.662.136,1.41,1.41,0,0,0-.521.389,1.926,1.926,0,0,0-.336.618,2.718,2.718,0,0,0-.117.827,2.774,2.774,0,0,0,.117.832,1.928,1.928,0,0,0,.336.628,1.505,1.505,0,0,0,.521.4,1.549,1.549,0,0,0,.662.136m0-.423a1,1,0,0,1-.467-.112,1.09,1.09,0,0,1-.355-.316,1.665,1.665,0,0,1-.229-.5,2.463,2.463,0,0,1-.083-.652,2.363,2.363,0,0,1,.083-.642,1.5,1.5,0,0,1,.229-.487,1.116,1.116,0,0,1,.355-.307,1,1,0,0,1,.467-.107.967.967,0,0,1,.462.107,1.022,1.022,0,0,1,.355.307,1.415,1.415,0,0,1,.234.487,2.365,2.365,0,0,1,.083.642,2.465,2.465,0,0,1-.083.652,1.56,1.56,0,0,1-.234.5,1,1,0,0,1-.355.316.969.969,0,0,1-.462.112m2.447-3.474v2.248a2.528,2.528,0,0,0,.1.774,1.3,1.3,0,0,0,.292.511,1.048,1.048,0,0,0,.438.282,1.641,1.641,0,0,0,.545.083,1.612,1.612,0,0,0,.54-.083,1.047,1.047,0,0,0,.438-.282,1.289,1.289,0,0,0,.287-.511,2.374,2.374,0,0,0,.107-.774v-2.248h-.467V253.4a1.973,1.973,0,0,1-.073.579.934.934,0,0,1-.19.375.714.714,0,0,1-.287.2.939.939,0,0,1-.355.063.914.914,0,0,1-.35-.063.64.64,0,0,1-.282-.2.937.937,0,0,1-.19-.375,1.977,1.977,0,0,1-.073-.579v-2.258Zm4.267,1.815v-1.426h.642a1.317,1.317,0,0,1,.686.151.588.588,0,0,1,.243.535.653.653,0,0,1-.243.555,1.108,1.108,0,0,1-.686.185Zm1.615,2.014h.55l-.968-1.669a1.2,1.2,0,0,0,.623-.37,1.055,1.055,0,0,0,.234-.715,1.2,1.2,0,0,0-.1-.506.919.919,0,0,0-.277-.331,1.179,1.179,0,0,0-.428-.185,2.673,2.673,0,0,0-.54-.053h-1.2v3.829h.487v-1.615h.7Zm3.265-3.421v3.421h.491v-3.421H680.5v-.409h-2.8v.409Zm2.822,1.406v-1.426h.642a1.329,1.329,0,0,1,.686.151.585.585,0,0,1,.238.535.65.65,0,0,1-.238.555,1.118,1.118,0,0,1-.686.185Zm1.615,2.014h.55l-.968-1.669a1.2,1.2,0,0,0,.623-.37,1.055,1.055,0,0,0,.234-.715,1.2,1.2,0,0,0-.1-.506.919.919,0,0,0-.277-.331,1.178,1.178,0,0,0-.428-.185,2.674,2.674,0,0,0-.54-.053h-1.2v3.829h.487v-1.615h.691Zm1.275-3.829v2.248a2.526,2.526,0,0,0,.1.774,1.294,1.294,0,0,0,.292.511,1.048,1.048,0,0,0,.438.282,1.642,1.642,0,0,0,.545.083,1.613,1.613,0,0,0,.54-.083,1.049,1.049,0,0,0,.438-.282,1.29,1.29,0,0,0,.287-.511,2.374,2.374,0,0,0,.107-.774v-2.248h-.467V253.4a1.973,1.973,0,0,1-.073.579.936.936,0,0,1-.19.375.713.713,0,0,1-.287.2.939.939,0,0,1-.355.063.915.915,0,0,1-.35-.063.64.64,0,0,1-.282-.2.936.936,0,0,1-.19-.375,1.972,1.972,0,0,1-.073-.579v-2.258Zm3.737,2.992-.292.341a1.833,1.833,0,0,0,.594.414,1.809,1.809,0,0,0,.749.151,1.574,1.574,0,0,0,.54-.083,1.283,1.283,0,0,0,.409-.234,1.074,1.074,0,0,0,.292-1.143.973.973,0,0,0-.17-.282,1.047,1.047,0,0,0-.248-.209,2.67,2.67,0,0,0-.311-.161l-.54-.234a1.924,1.924,0,0,1-.229-.1,1.432,1.432,0,0,1-.2-.126.622.622,0,0,1-.151-.17.507.507,0,0,1-.054-.238.478.478,0,0,1,.195-.409.813.813,0,0,1,.516-.151,1.165,1.165,0,0,1,.482.1,1.373,1.373,0,0,1,.389.263l.263-.311a1.59,1.59,0,0,0-.5-.345,1.54,1.54,0,0,0-.637-.131,1.514,1.514,0,0,0-.482.078,1.115,1.115,0,0,0-.38.214.987.987,0,0,0-.248.321.894.894,0,0,0-.092.4.965.965,0,0,0,.068.37.923.923,0,0,0,.185.277,1.09,1.09,0,0,0,.248.2,2.48,2.48,0,0,0,.277.141l.545.238c.092.044.175.083.253.122a.884.884,0,0,1,.2.131.532.532,0,0,1,.136.175.551.551,0,0,1,.049.248.545.545,0,0,1-.209.453.9.9,0,0,1-.589.175,1.32,1.32,0,0,1-.574-.131,1.572,1.572,0,0,1-.482-.35m3.781-2.584v3.421h.491v-3.421h1.158v-.409h-2.8v.409Zm2.335-.409v3.829h2.267v-.414h-1.781v-1.392h1.455v-.414h-1.455v-1.2h1.722v-.409Zm3.08,0v3.829h.978a2.059,2.059,0,0,0,.764-.131,1.523,1.523,0,0,0,.564-.38,1.648,1.648,0,0,0,.341-.608,2.62,2.62,0,0,0,.117-.813,1.973,1.973,0,0,0-.457-1.406,1.761,1.761,0,0,0-1.353-.491Zm.92,3.43h-.438v-3.036h.438a1.263,1.263,0,0,1,1.007.389,1.64,1.64,0,0,1,.336,1.114,1.731,1.731,0,0,1-.336,1.134,1.237,1.237,0,0,1-1.007.4m3.858-.438-.292.341a1.91,1.91,0,0,0,.6.414,1.8,1.8,0,0,0,.744.151,1.583,1.583,0,0,0,.545-.083,1.283,1.283,0,0,0,.409-.234,1.022,1.022,0,0,0,.35-.774.965.965,0,0,0-.063-.37.863.863,0,0,0-.165-.282,1.046,1.046,0,0,0-.248-.209,3.137,3.137,0,0,0-.311-.161l-.545-.234a1.848,1.848,0,0,1-.224-.1,1.039,1.039,0,0,1-.2-.126.623.623,0,0,1-.151-.17.455.455,0,0,1-.054-.238.478.478,0,0,1,.195-.409.813.813,0,0,1,.516-.151,1.165,1.165,0,0,1,.482.1,1.372,1.372,0,0,1,.389.263l.263-.311a1.59,1.59,0,0,0-.5-.345,1.54,1.54,0,0,0-.637-.131,1.513,1.513,0,0,0-.482.078,1.115,1.115,0,0,0-.38.214,1.073,1.073,0,0,0-.253.321,1,1,0,0,0-.019.774,1.01,1.01,0,0,0,.18.277,1.231,1.231,0,0,0,.253.2,2.924,2.924,0,0,0,.272.141l.55.238c.092.044.175.083.253.122a.884.884,0,0,1,.2.131.533.533,0,0,1,.136.175.552.552,0,0,1,.049.248.546.546,0,0,1-.209.453.9.9,0,0,1-.589.175,1.342,1.342,0,0,1-.579-.131,1.572,1.572,0,0,1-.482-.35m4.52.9a1.549,1.549,0,0,0,.662-.136,1.506,1.506,0,0,0,.521-.4,1.849,1.849,0,0,0,.341-.628,2.772,2.772,0,0,0,.117-.832,2.684,2.684,0,0,0-.117-.822,1.847,1.847,0,0,0-.341-.618,1.412,1.412,0,0,0-.521-.389,1.552,1.552,0,0,0-.662-.141,1.642,1.642,0,0,0-.662.136,1.394,1.394,0,0,0-.516.389,1.755,1.755,0,0,0-.336.618,2.57,2.57,0,0,0-.122.827,2.622,2.622,0,0,0,.122.832,1.76,1.76,0,0,0,.336.628,1.489,1.489,0,0,0,.516.4,1.565,1.565,0,0,0,.662.136m0-.423a.968.968,0,0,1-.462-.112,1,1,0,0,1-.355-.316,1.559,1.559,0,0,1-.234-.5,2.465,2.465,0,0,1-.083-.652,2.365,2.365,0,0,1,.083-.642,1.414,1.414,0,0,1,.234-.487,1.021,1.021,0,0,1,.355-.307.966.966,0,0,1,.462-.107,1,1,0,0,1,.467.107,1.118,1.118,0,0,1,.355.307,1.5,1.5,0,0,1,.229.487,2.365,2.365,0,0,1,.083.642,2.465,2.465,0,0,1-.083.652,1.665,1.665,0,0,1-.229.5,1.092,1.092,0,0,1-.355.316,1,1,0,0,1-.467.112m2.447-3.474v2.248a2.374,2.374,0,0,0,.107.774,1.289,1.289,0,0,0,.287.511,1.047,1.047,0,0,0,.438.282,1.836,1.836,0,0,0,1.09,0,1.063,1.063,0,0,0,.433-.282,1.355,1.355,0,0,0,.292-.511,2.522,2.522,0,0,0,.1-.774v-2.248h-.467V253.4a2.17,2.17,0,0,1-.068.579,1,1,0,0,1-.195.375.682.682,0,0,1-.287.2.922.922,0,0,1-.355.063.95.95,0,0,1-.35-.063.669.669,0,0,1-.282-.2,1.08,1.08,0,0,1-.19-.375,1.992,1.992,0,0,1-.068-.579v-2.258Zm4.267,1.815v-1.426h.642a1.336,1.336,0,0,1,.691.151.585.585,0,0,1,.238.535.65.65,0,0,1-.238.555,1.123,1.123,0,0,1-.691.185Zm1.62,2.014h.545l-.968-1.669a1.2,1.2,0,0,0,.628-.37,1.055,1.055,0,0,0,.234-.715,1.129,1.129,0,0,0-.1-.506.831.831,0,0,0-.277-.331,1.12,1.12,0,0,0-.423-.185,2.674,2.674,0,0,0-.54-.053h-1.2v3.829h.482v-1.615h.7Zm1.066-1.917a2.661,2.661,0,0,0,.127.842,1.8,1.8,0,0,0,.35.623,1.544,1.544,0,0,0,.53.389,1.686,1.686,0,0,0,.672.131,1.415,1.415,0,0,0,.652-.146,1.772,1.772,0,0,0,.516-.409l-.277-.3a1.391,1.391,0,0,1-.394.316,1.026,1.026,0,0,1-.487.112,1.074,1.074,0,0,1-.491-.112,1.06,1.06,0,0,1-.375-.316,1.589,1.589,0,0,1-.234-.491,2.251,2.251,0,0,1-.088-.652,2.183,2.183,0,0,1,.088-.642,1.432,1.432,0,0,1,.248-.487,1.022,1.022,0,0,1,.38-.311,1.094,1.094,0,0,1,.5-.107.925.925,0,0,1,.428.1,1.288,1.288,0,0,1,.336.258l.273-.307a1.5,1.5,0,0,0-.428-.331,1.242,1.242,0,0,0-.613-.146,1.657,1.657,0,0,0-.681.141,1.437,1.437,0,0,0-.54.394,1.815,1.815,0,0,0-.355.623,2.439,2.439,0,0,0-.131.827m3.557-1.912v3.829h2.267v-.414h-1.781v-1.392h1.45v-.414h-1.45v-1.2h1.722v-.409Z" transform="translate(-616.946 -233.759)" fill="#1d1d1b"/>
          </g>
        </g>
      </g>
    </g>
  </g>
</svg>
