<svg xmlns="http://www.w3.org/2000/svg" width="103.429" height="84.947" viewBox="0 0 103.429 84.947">
  <g id="Grupo_1100082" data-name="Grupo 1100082" transform="translate(0 0)">
    <g id="Grupo_1100033" data-name="Grupo 1100033" transform="translate(0)">
      <path id="_12068" data-name="12068" d="M80.679,72.036c-9.737-1.345-20.023-1.016-28.883,3.24-12.288,5.9-20.358,19.283-20.667,32.911s6.79,27.019,17.758,35.114,25.432,10.964,38.845,8.534c13.525-2.451,26.22-10.4,33.274-22.194,4.524-7.564,6.638-16.905,4.139-25.358a34.642,34.642,0,0,0-8.221-13.513A60.743,60.743,0,0,0,80.679,72.036Z" transform="translate(-27.626 -67.724)" fill="#7d6eb2"/>
      <g id="Grupo_1099025" data-name="Grupo 1099025" transform="translate(0 75.838) rotate(-90)">
        <path id="Trazado_873104" data-name="Trazado 873104" d="M.44,1.927A1.116,1.116,0,0,0,1.9,1.762,1.116,1.116,0,0,0,1.836.3,1.116,1.116,0,0,0,.368.256,1.07,1.07,0,0,0,.44,1.927Z" transform="translate(14.579 87.471)" fill="#fff"/>
        <path id="Trazado_873105" data-name="Trazado 873105" d="M.44,1.927A1.116,1.116,0,0,0,1.9,1.763,1.116,1.116,0,0,0,1.836.3,1.116,1.116,0,0,0,.368.256,1.07,1.07,0,0,0,.44,1.927Z" transform="translate(35.875 92.048)" fill="#ffd947"/>
        <path id="Trazado_873106" data-name="Trazado 873106" d="M.44,1.927A1.116,1.116,0,0,0,1.9,1.763,1.116,1.116,0,0,0,1.836.3,1.117,1.117,0,0,0,.368.256,1.07,1.07,0,0,0,.44,1.927Z" transform="translate(73.694)" fill="#7d6eb2"/>
        <path id="Trazado_873109" data-name="Trazado 873109" d="M1.449,4.5A2.434,2.434,0,0,0,4.464,3.306,2.435,2.435,0,0,0,3.412.24,2.435,2.435,0,0,0,.3,1.151,2.36,2.36,0,0,0,1.449,4.5Z" transform="translate(61.04 86.208)" fill="#7d6eb2"/>
        <path id="Trazado_873110" data-name="Trazado 873110" d="M1.449,4.5A2.434,2.434,0,0,0,4.464,3.306,2.435,2.435,0,0,0,3.412.241,2.434,2.434,0,0,0,.3,1.151,2.36,2.36,0,0,0,1.449,4.5Z" transform="translate(44.433 98.775)" fill="#ffd947"/>
        <path id="Trazado_873111" data-name="Trazado 873111" d="M1.449,4.5A2.434,2.434,0,0,0,4.463,3.306,2.434,2.434,0,0,0,3.412.241,2.434,2.434,0,0,0,.3,1.151,2.36,2.36,0,0,0,1.449,4.5Z" transform="translate(0 27.812)" fill="#ffd947"/>
        <path id="Trazado_873113" data-name="Trazado 873113" d="M1.449,4.5A2.435,2.435,0,0,0,4.464,3.306,2.435,2.435,0,0,0,3.412.24,2.435,2.435,0,0,0,.3,1.151,2.36,2.36,0,0,0,1.449,4.5Z" transform="translate(69.035 5.856)" fill="#ffd947"/>
        <circle id="Elipse_11485" data-name="Elipse 11485" cx="1.149" cy="1.149" r="1.149" transform="translate(5.274 93.025)" fill="none" stroke="#26aab7" stroke-linecap="round" stroke-linejoin="round" stroke-width="1.5"/>
      </g>
    </g>
    <g id="economia" transform="translate(16.5 6.786)">
      <g id="Grupo_1100040" data-name="Grupo 1100040" transform="translate(1.032 1.032)">
        <g id="Grupo_1100039" data-name="Grupo 1100039">
          <path id="Trazado_876323" data-name="Trazado 876323" d="M51.519,10.265l-7.13-2.68a1.3,1.3,0,0,0-1.736,1.426l.3,1.8a32.767,32.767,0,0,0-21.584,25.75,2.024,2.024,0,1,0,4,.63A28.7,28.7,0,0,1,43.625,14.875l.274,1.652a1.3,1.3,0,0,0,2.1.79l5.885-4.836a1.3,1.3,0,0,0-.367-2.216Z" transform="translate(-19.439 -7.501)" fill="#0ed2b3"/>
          <path id="Trazado_876324" data-name="Trazado 876324" d="M306.083,42.655l-1.8.3A32.767,32.767,0,0,0,278.528,21.37a2.024,2.024,0,0,0-.63,4A28.7,28.7,0,0,1,300.22,43.626l-1.652.274a1.3,1.3,0,0,0-.79,2.1l4.836,5.885a1.3,1.3,0,0,0,2.216-.367l2.68-7.13A1.3,1.3,0,0,0,306.083,42.655Z" transform="translate(-239.229 -19.441)" fill="#0ed2b3"/>
          <path id="Trazado_876325" data-name="Trazado 876325" d="M294.478,276.215a2.024,2.024,0,0,0-2.315,1.685,28.7,28.7,0,0,1-18.257,22.321l-.274-1.652a1.3,1.3,0,0,0-2.1-.79l-5.885,4.836a1.3,1.3,0,0,0,.367,2.216l7.13,2.68a1.3,1.3,0,0,0,1.736-1.426l-.3-1.8a32.766,32.766,0,0,0,21.583-25.75A2.024,2.024,0,0,0,294.478,276.215Z" transform="translate(-229.727 -239.23)" fill="#0ed2b3"/>
          <path id="Trazado_876326" data-name="Trazado 876326" d="M37.2,292.165a28.7,28.7,0,0,1-22.321-18.257l1.652-.274a1.3,1.3,0,0,0,.79-2.1l-4.836-5.885a1.3,1.3,0,0,0-2.216.367l-2.68,7.13a1.3,1.3,0,0,0,1.426,1.736l1.8-.3a32.767,32.767,0,0,0,25.75,21.584,2.047,2.047,0,0,0,.317.025,2.024,2.024,0,0,0,.312-4.024Z" transform="translate(-7.5 -229.728)" fill="#0ed2b3"/>
        </g>
        <ellipse id="Elipse_11824" data-name="Elipse 11824" cx="20.032" cy="20.032" rx="20.032" ry="20.032" transform="translate(14.151 14.151)" fill="#fef48b"/>
        <path id="Trazado_876327" data-name="Trazado 876327" d="M132.169,150.358q-.871.076-1.763.077a20.032,20.032,0,1,1,0-40.065q.891,0,1.763.077a20.033,20.033,0,0,0,0,39.91Z" transform="translate(-96.222 -96.22)" fill="#fee45a"/>
        <path id="Trazado_876362" data-name="Trazado 876362" d="M14.95,0A14.95,14.95,0,1,1,0,14.95,14.95,14.95,0,0,1,14.95,0Z" transform="translate(19.233 19.232)" fill="#ffd947"/>
        <path id="Trazado_876328" data-name="Trazado 876328" d="M253.61,162.27a14.954,14.954,0,0,1-17.716,14.692,14.951,14.951,0,0,0,0-29.385A14.954,14.954,0,0,1,253.61,162.27Z" transform="translate(-204.477 -128.087)" fill="#deac2f"/>
      </g>
      <g id="Grupo_1100041" data-name="Grupo 1100041" transform="translate(0 0)">
        <path id="Trazado_876329" data-name="Trazado 876329" d="M16.43,33.43a3.078,3.078,0,0,0,.478.037,3.04,3.04,0,0,0,3.016-2.581A27.593,27.593,0,0,1,36.353,9.839l.064.387a2.329,2.329,0,0,0,3.776,1.418l5.885-4.836a2.329,2.329,0,0,0-.659-3.979L38.288.15a2.329,2.329,0,0,0-3.116,2.561l.159.957A33.8,33.8,0,0,0,13.887,29.936,3.056,3.056,0,0,0,16.43,33.43Zm-.505-3.173a31.734,31.734,0,0,1,20.9-24.935,1.032,1.032,0,0,0,.681-1.144l-.3-1.8a.254.254,0,0,1,.093-.249.258.258,0,0,1,.164-.062.276.276,0,0,1,.1.019l7.13,2.68a.265.265,0,0,1,.075.454l-5.885,4.836a.266.266,0,0,1-.43-.162l-.274-1.652a1.032,1.032,0,0,0-1.379-.8A29.659,29.659,0,0,0,17.886,30.566a.99.99,0,0,1-1.135.826.992.992,0,0,1-.826-1.135Z" transform="translate(-11.944 0.002)" fill="#00223d"/>
        <path id="Trazado_876330" data-name="Trazado 876330" d="M301.626,35.993a2.3,2.3,0,0,0-2.179-.819l-.957.158A33.8,33.8,0,0,0,272.222,13.89a3.056,3.056,0,1,0-.951,6.037,27.158,27.158,0,0,1,3.327.741,1.032,1.032,0,0,0,.574-1.982,29.215,29.215,0,0,0-3.58-.8.993.993,0,0,1-.43-1.783.984.984,0,0,1,.739-.177,31.733,31.733,0,0,1,24.935,20.9,1.031,1.031,0,0,0,1.143.681l1.805-.3a.264.264,0,0,1,.29.355l-2.68,7.13a.265.265,0,0,1-.453.075l-4.835-5.884a.265.265,0,0,1,.161-.431l1.652-.274a1.032,1.032,0,0,0,.8-1.379,29.777,29.777,0,0,0-14.905-16.335,1.032,1.032,0,1,0-.9,1.857,27.734,27.734,0,0,1,13.4,14.031l-.387.064a2.329,2.329,0,0,0-1.418,3.776l4.835,5.885a2.3,2.3,0,0,0,1.789.852,2.4,2.4,0,0,0,.392-.032,2.3,2.3,0,0,0,1.8-1.478l2.679-7.129A2.3,2.3,0,0,0,301.626,35.993Z" transform="translate(-231.73 -11.946)" fill="#00223d"/>
        <path id="Trazado_876331" data-name="Trazado 876331" d="M288.164,268.725a3.056,3.056,0,0,0-3.494,2.544,27.591,27.591,0,0,1-16.429,21.047l-.064-.388a2.329,2.329,0,0,0-3.776-1.417l-5.884,4.835a2.328,2.328,0,0,0,.659,3.979L266.3,302a2.344,2.344,0,0,0,.829.152,2.333,2.333,0,0,0,2.288-2.711l-.158-.958a33.179,33.179,0,0,0,3.112-1.354,1.032,1.032,0,0,0-.92-1.847,31.247,31.247,0,0,1-3.688,1.547,1.031,1.031,0,0,0-.68,1.143l.3,1.805a.264.264,0,0,1-.355.29l-7.13-2.68a.265.265,0,0,1-.075-.453l5.885-4.835a.265.265,0,0,1,.43.161l.274,1.652a1.032,1.032,0,0,0,1.379.8,29.658,29.658,0,0,0,18.914-23.127.992.992,0,1,1,1.96.31,31.783,31.783,0,0,1-13.291,21.075,1.032,1.032,0,0,0,1.174,1.7,33.857,33.857,0,0,0,14.155-22.451,3.055,3.055,0,0,0-2.542-3.495Z" transform="translate(-222.221 -231.728)" fill="#00223d"/>
        <path id="Trazado_876332" data-name="Trazado 876332" d="M30.888,284.672A27.592,27.592,0,0,1,9.84,268.244l.387-.064a2.329,2.329,0,0,0,1.419-3.776L6.81,258.519a2.329,2.329,0,0,0-3.979.659l-2.679,7.13a2.329,2.329,0,0,0,2.561,3.117l.957-.159A33.8,33.8,0,0,0,29.938,290.71a3.075,3.075,0,0,0,.478.037,3.056,3.056,0,0,0,.473-6.075Zm.505,3.173a.99.99,0,0,1-1.135.826,31.734,31.734,0,0,1-24.935-20.9,1.03,1.03,0,0,0-1.144-.68l-1.8.3a.266.266,0,0,1-.292-.355l2.679-7.13a.265.265,0,0,1,.454-.075l4.836,5.885a.266.266,0,0,1-.162.43l-1.652.274a1.032,1.032,0,0,0-.8,1.379,29.66,29.66,0,0,0,23.127,18.914.993.993,0,0,1,.826,1.135Z" transform="translate(0 -222.224)" fill="#00223d"/>
        <path id="Trazado_876333" data-name="Trazado 876333" d="M145,123.941A21.063,21.063,0,1,0,123.941,145,21.087,21.087,0,0,0,145,123.941Zm-21.063,19a19,19,0,1,1,19-19A19.021,19.021,0,0,1,123.941,142.941Z" transform="translate(-88.727 -88.726)" fill="#00223d"/>
        <path id="Trazado_876334" data-name="Trazado 876334" d="M155.8,139.824a15.99,15.99,0,0,0-15.442,20.1,1.032,1.032,0,1,0,1.993-.533,13.925,13.925,0,1,1,1.827,4.068,1.032,1.032,0,1,0-1.722,1.137A15.981,15.981,0,1,0,155.8,139.824Z" transform="translate(-120.59 -120.59)" fill="#00223d"/>
        <path id="Trazado_876335" data-name="Trazado 876335" d="M221.437,196.158a1.032,1.032,0,0,0-1.13,1.727,6.2,6.2,0,0,0,3.383,1.185v1.116a1.032,1.032,0,1,0,2.063,0v-1.2a5.054,5.054,0,0,0,3.966-4.145,4.437,4.437,0,0,0-3.054-5.077c-.3-.106-.606-.217-.912-.333v-4.881a3.18,3.18,0,0,1,1.256.6,1.032,1.032,0,0,0,1.319-1.586,5.423,5.423,0,0,0-2.576-1.112v-1a1.032,1.032,0,1,0-2.063,0v1.075c-.153.034-.309.073-.467.121a4.2,4.2,0,0,0-2.878,3.3,3.7,3.7,0,0,0,1.211,3.645,9.965,9.965,0,0,0,2.134,1.222V197A4.237,4.237,0,0,1,221.437,196.158Zm1.393-8.186a1.663,1.663,0,0,1-.457-1.639,2.183,2.183,0,0,1,1.318-1.658v3.848A6.2,6.2,0,0,1,222.829,187.972Zm3.148,3.739a2.407,2.407,0,0,1,1.708,2.79,3.033,3.033,0,0,1-1.932,2.344v-5.214Z" transform="translate(-189.6 -155.608)"/>
      </g>
    </g>
  </g>
</svg>
