<svg xmlns="http://www.w3.org/2000/svg" width="103.429" height="84.947" viewBox="0 0 103.429 84.947">
  <g id="Grupo_1100086" data-name="Grupo 1100086" transform="translate(0 0)">
    <g id="Grupo_1100036" data-name="Grupo 1100036" transform="translate(0)">
      <path id="_12068" data-name="12068" d="M80.679,72.036c-9.737-1.345-20.023-1.016-28.883,3.24-12.288,5.9-20.358,19.283-20.667,32.911s6.79,27.019,17.758,35.114,25.432,10.964,38.845,8.534c13.525-2.451,26.22-10.4,33.274-22.194,4.524-7.564,6.638-16.905,4.139-25.358a34.642,34.642,0,0,0-8.221-13.513A60.743,60.743,0,0,0,80.679,72.036Z" transform="translate(-27.626 -67.724)" fill="#7d6eb2"/>
      <g id="Grupo_1099025" data-name="Grupo 1099025" transform="translate(0 75.838) rotate(-90)">
        <path id="Trazado_873104" data-name="Trazado 873104" d="M.44,1.927A1.116,1.116,0,0,0,1.9,1.762,1.116,1.116,0,0,0,1.836.3,1.116,1.116,0,0,0,.368.256,1.07,1.07,0,0,0,.44,1.927Z" transform="translate(14.579 87.471)" fill="#fff"/>
        <path id="Trazado_873105" data-name="Trazado 873105" d="M.44,1.927A1.116,1.116,0,0,0,1.9,1.763,1.116,1.116,0,0,0,1.836.3,1.116,1.116,0,0,0,.368.256,1.07,1.07,0,0,0,.44,1.927Z" transform="translate(35.875 92.048)" fill="#ffd947"/>
        <path id="Trazado_873106" data-name="Trazado 873106" d="M.44,1.927A1.116,1.116,0,0,0,1.9,1.763,1.116,1.116,0,0,0,1.836.3,1.117,1.117,0,0,0,.368.256,1.07,1.07,0,0,0,.44,1.927Z" transform="translate(73.694)" fill="#7d6eb2"/>
        <path id="Trazado_873109" data-name="Trazado 873109" d="M1.449,4.5A2.434,2.434,0,0,0,4.464,3.306,2.435,2.435,0,0,0,3.412.24,2.435,2.435,0,0,0,.3,1.151,2.36,2.36,0,0,0,1.449,4.5Z" transform="translate(61.04 86.208)" fill="#7d6eb2"/>
        <path id="Trazado_873110" data-name="Trazado 873110" d="M1.449,4.5A2.434,2.434,0,0,0,4.464,3.306,2.435,2.435,0,0,0,3.412.241,2.434,2.434,0,0,0,.3,1.151,2.36,2.36,0,0,0,1.449,4.5Z" transform="translate(44.433 98.775)" fill="#ffd947"/>
        <path id="Trazado_873111" data-name="Trazado 873111" d="M1.449,4.5A2.434,2.434,0,0,0,4.463,3.306,2.434,2.434,0,0,0,3.412.241,2.434,2.434,0,0,0,.3,1.151,2.36,2.36,0,0,0,1.449,4.5Z" transform="translate(0 27.812)" fill="#ffd947"/>
        <path id="Trazado_873113" data-name="Trazado 873113" d="M1.449,4.5A2.435,2.435,0,0,0,4.464,3.306,2.435,2.435,0,0,0,3.412.24,2.435,2.435,0,0,0,.3,1.151,2.36,2.36,0,0,0,1.449,4.5Z" transform="translate(69.035 5.856)" fill="#ffd947"/>
        <circle id="Elipse_11485" data-name="Elipse 11485" cx="1.149" cy="1.149" r="1.149" transform="translate(5.274 93.025)" fill="none" stroke="#26aab7" stroke-linecap="round" stroke-linejoin="round" stroke-width="1.5"/>
      </g>
    </g>
    <g id="ley" transform="translate(17.755 10.317)">
      <g id="Grupo_1100048" data-name="Grupo 1100048" transform="translate(14.755 41.272)">
        <g id="Grupo_1100043" data-name="Grupo 1100043" transform="translate(0 3.617)">
          <path id="Trazado_876336" data-name="Trazado 876336" d="M153.2,358.169a11.515,11.515,0,0,0,2.764,7.583h-41.67a1.318,1.318,0,0,1-1.076-.551,13.424,13.424,0,0,1,0-14.066,1.318,1.318,0,0,1,1.076-.551h41.67A11.516,11.516,0,0,0,153.2,358.169Z" transform="translate(-111.226 -350.585)" fill="#fb3a82"/>
          <path id="Trazado_876337" data-name="Trazado 876337" d="M123.942,350.587l-11.751,12.728a13.315,13.315,0,0,1-.962-5.144,12.035,12.035,0,0,1,1.99-7.033,1.317,1.317,0,0,1,1.076-.551Z" transform="translate(-111.229 -350.587)" fill="#fb1466"/>
          <path id="Trazado_876338" data-name="Trazado 876338" d="M187.762,358.169a11.515,11.515,0,0,0,2.764,7.583h-42.3s-2.432-2.462-2.432-7.583,2.432-7.583,2.432-7.583h42.3A11.516,11.516,0,0,0,187.762,358.169Z" transform="translate(-141.206 -350.585)" fill="#e0d3ce"/>
          <g id="Grupo_1100042" data-name="Grupo 1100042" transform="translate(4.585 0)">
            <path id="Trazado_876339" data-name="Trazado 876339" d="M153.918,350.587l-8.084,8.757c-.028-.374-.044-.765-.044-1.173,0-5.122,2.432-7.584,2.432-7.584Z" transform="translate(-145.79 -350.587)" fill="#cdbfbb"/>
            <path id="Trazado_876340" data-name="Trazado 876340" d="M429.412,358.175a11.514,11.514,0,0,0,2.765,7.583h-5.013a11.782,11.782,0,0,1,0-15.166h5.013A11.511,11.511,0,0,0,429.412,358.175Z" transform="translate(-387.44 -350.591)" fill="#cdbfbb"/>
          </g>
        </g>
        <g id="Grupo_1100047" data-name="Grupo 1100047" transform="translate(5.708)">
          <g id="Grupo_1100045" data-name="Grupo 1100045" transform="translate(0)">
            <path id="Trazado_876341" data-name="Trazado 876341" d="M200.72,325.519a2.2,2.2,0,0,1-2.2,2.2H156.461a2.2,2.2,0,0,1,0-4.4h42.058A2.2,2.2,0,0,1,200.72,325.519Z" transform="translate(-154.26 -323.317)" fill="#fb3a82"/>
            <g id="Grupo_1100044" data-name="Grupo 1100044">
              <path id="Trazado_876342" data-name="Trazado 876342" d="M164.6,323.317l-4.063,4.4h-4.079a2.2,2.2,0,0,1,0-4.4Z" transform="translate(-154.26 -323.317)" fill="#fb1466"/>
              <path id="Trazado_876343" data-name="Trazado 876343" d="M462.185,325.522a2.2,2.2,0,0,1-2.2,2.2h-4.269a2.2,2.2,0,0,0,0-4.4h4.269A2.2,2.2,0,0,1,462.185,325.522Z" transform="translate(-415.724 -323.32)" fill="#fb1466"/>
            </g>
          </g>
          <g id="Grupo_1100046" data-name="Grupo 1100046" transform="translate(0 17.998)">
            <path id="Trazado_876344" data-name="Trazado 876344" d="M198.516,463.4H156.458a2.2,2.2,0,0,1,0-4.4h42.058a2.2,2.2,0,0,1,0,4.4Z" transform="translate(-154.257 -458.996)" fill="#fb3a82"/>
            <path id="Trazado_876345" data-name="Trazado 876345" d="M462.185,461.2a2.2,2.2,0,0,1-2.2,2.2h-4.269a2.2,2.2,0,0,0,0-4.4h4.269A2.2,2.2,0,0,1,462.185,461.2Z" transform="translate(-415.723 -458.999)" fill="#fb1466"/>
          </g>
        </g>
      </g>
      <g id="Grupo_1100056" data-name="Grupo 1100056" transform="translate(0 0)">
        <g id="Grupo_1100051" data-name="Grupo 1100051" transform="translate(0.995 26.291)">
          <g id="Grupo_1100049" data-name="Grupo 1100049" transform="translate(0 8.42)">
            <path id="Trazado_876346" data-name="Trazado 876346" d="M36.478,277.411l-3.554-3.554L8.733,296.189a3.831,3.831,0,1,0,5.413,5.413Z" transform="translate(-7.5 -273.857)" fill="#873f30"/>
            <path id="Trazado_876347" data-name="Trazado 876347" d="M15.268,308.86a3.832,3.832,0,0,1-5.416,0,3.793,3.793,0,0,1-.934-1.526,3.825,3.825,0,0,0,3.887-.931c.037-.037.073-.076.109-.114L35.247,282.1l2.461,2.461L15.375,308.748C15.34,308.786,15.3,308.824,15.268,308.86Z" transform="translate(-8.73 -281.003)" fill="#6c3328"/>
          </g>
          <path id="Trazado_876348" data-name="Trazado 876348" d="M198.819,210.382l-8.183,9.761,3.343,3.343,9.761-8.183Z" transform="translate(-166.342 -210.382)" fill="#873f30"/>
          <path id="Trazado_876349" data-name="Trazado 876349" d="M207.428,210.382l-2.644,3.154.793.793a1.5,1.5,0,0,1,0,2.115l-5.016,5.016,2.026,2.026,9.761-8.183Z" transform="translate(-174.951 -210.382)" fill="#6c3328"/>
          <g id="Grupo_1100050" data-name="Grupo 1100050" transform="translate(21.586 7.763)">
            <path id="Trazado_876350" data-name="Trazado 876350" d="M174.171,276.245,170.926,273a2.4,2.4,0,0,1,3.4-3.4l3.245,3.245a2.4,2.4,0,1,1-3.4,3.4Z" transform="translate(-170.222 -268.899)" fill="#ba5d4f"/>
            <path id="Trazado_876351" data-name="Trazado 876351" d="M187.3,285.98a2.4,2.4,0,0,1-3.4,0l-2.46-2.46a2.4,2.4,0,1,0,3.4-3.4l2.46,2.46a2.4,2.4,0,0,1,0,3.4Z" transform="translate(-179.953 -278.634)" fill="#a34f41"/>
          </g>
        </g>
        <g id="Grupo_1100052" data-name="Grupo 1100052" transform="translate(26.4 3.981)">
          <path id="Trazado_876352" data-name="Trazado 876352" d="M0,0H10.191V16H0Z" transform="translate(11.312 0) rotate(45)" fill="#ba5d4f"/>
          <path id="Trazado_876353" data-name="Trazado 876353" d="M0,0H10.191V16H0Z" transform="translate(22.988 34.309) rotate(-135)" fill="#a34f41"/>
        </g>
        <g id="Grupo_1100055" data-name="Grupo 1100055">
          <path id="Trazado_876354" data-name="Trazado 876354" d="M177.442,36.474l-.25-.25a2.43,2.43,0,0,1,0-3.437l12.381-12.381a2.43,2.43,0,0,1,3.437,0l.25.25a2.43,2.43,0,0,1,0,3.437L180.879,36.474A2.43,2.43,0,0,1,177.442,36.474Z" transform="translate(-153.069 -18.699)" fill="#873f30"/>
          <path id="Trazado_876355" data-name="Trazado 876355" d="M348.955,207.987l.25.25a2.43,2.43,0,0,0,3.437,0l12.381-12.381a2.43,2.43,0,0,0,0-3.437l-.25-.25a2.43,2.43,0,0,0-3.437,0L348.955,204.55A2.43,2.43,0,0,0,348.955,207.987Z" transform="translate(-302.047 -167.677)" fill="#6c3328"/>
          <g id="Grupo_1100054" data-name="Grupo 1100054">
            <path id="Trazado_876356" data-name="Trazado 876356" d="M0,0H11.445V24.164H0Z" transform="translate(48.044 8.539) rotate(45)" fill="#fcc16d"/>
            <path id="Trazado_876357" data-name="Trazado 876357" d="M0,0H24.164V5.793H0Z" transform="translate(34.951 29.629) rotate(-45)" fill="#fca62f"/>
            <path id="Trazado_876358" data-name="Trazado 876358" d="M242.067,67.812,240.085,67a1.823,1.823,0,0,0-1.979.4l-13.92,13.92a1.823,1.823,0,0,0-.4,1.979l.81,1.982a1.215,1.215,0,0,0,1.984.4L242.466,69.8a1.215,1.215,0,0,0-.4-1.984Z" transform="translate(-193.983 -59.613)" fill="#873f30"/>
            <path id="Trazado_876359" data-name="Trazado 876359" d="M306.645,132.391l.81,1.982a1.823,1.823,0,0,1-.4,1.979l-13.92,13.92a1.823,1.823,0,0,1-1.979.4l-1.982-.81a1.215,1.215,0,0,1-.4-1.984l15.884-15.884A1.215,1.215,0,0,1,306.645,132.391Z" transform="translate(-250.16 -115.791)" fill="#6c3328"/>
            <g id="Grupo_1100053" data-name="Grupo 1100053">
              <path id="Trazado_876360" data-name="Trazado 876360" d="M64.722,70.469h-.74a10.289,10.289,0,0,1-.857-1.634.995.995,0,0,0-1.839.761c.123.3.261.587.405.872H22.664a3.183,3.183,0,0,0-.867.121,11.565,11.565,0,0,1-1.462-5.923c0-.434.019-.861.057-1.281H39.453a.995.995,0,0,0,0-1.99H21.229l2.338-2.532h38.12a12.42,12.42,0,0,0-.958,2.532H47.651a.995.995,0,0,0,0,1.99H60.38c-.039.4-.062.813-.063,1.224a1,1,0,0,0,.991,1h0a1,1,0,0,0,.995-.991,10.646,10.646,0,0,1,1.673-5.755h.742a3.2,3.2,0,1,0,0-6.392H52.285L63.68,41.076a3.425,3.425,0,0,0,0-4.844l-.25-.251a3.423,3.423,0,0,0-4.668-.163L57,34.057l.6-.6a2.811,2.811,0,0,0,.616-3.059l-.81-1.982a2.205,2.205,0,0,0-1.6-1.328L54.421,25.7a.995.995,0,0,0-1.407,1.407l.681.681-15.68,15.68L33.4,38.861l15.68-15.68.61.61A.995.995,0,1,0,51.1,22.385l-1.313-1.313a2.206,2.206,0,0,0-1.328-1.6h0l-1.982-.81a2.812,2.812,0,0,0-3.059.616l-.6.6-1.761-1.761a3.423,3.423,0,0,0-.163-4.668l-.25-.251a3.425,3.425,0,0,0-4.844,0L23.419,25.578a3.425,3.425,0,0,0,0,4.844l.25.25a3.424,3.424,0,0,0,4.668.163L30.1,32.6l-.6.6a2.811,2.811,0,0,0-.616,3.059l.81,1.982a2.2,2.2,0,0,0,1.578,1.323L26.282,45.51a3.4,3.4,0,0,0-4.49,4.31L19.53,51.909a.995.995,0,0,0,1.35,1.462l2.091-1.93,2.465,2.465L6.909,73.974A2.836,2.836,0,1,1,2.9,69.967L17.434,56.552a.995.995,0,1,0-1.35-1.462L1.552,68.5a4.826,4.826,0,0,0,3.27,8.371h.1a4.784,4.784,0,0,0,3.449-1.551l5.963-6.459a11.467,11.467,0,0,0,1.6,3.411,2.317,2.317,0,0,0,1.887.969H19.5a3.191,3.191,0,0,0,3.168,3.617H64.722a3.2,3.2,0,1,0,0-6.392Zm1.206-14.8a1.208,1.208,0,0,1-1.206,1.206H25.4l1.654-1.792a3.4,3.4,0,0,0,3.394-.621H64.722a1.208,1.208,0,0,1,1.206,1.206ZM35.913,44.185l-5.761,4.83-2.291-2.29,4.83-5.761Zm-4.34,8.286a3.416,3.416,0,0,0-.207-1.877l5.951-4.989a2.205,2.205,0,0,0,1.323,1.578l1.982.81a2.812,2.812,0,0,0,3.059-.616l.6-.6,1.761,1.761a3.432,3.432,0,0,0-.4,3.931H31.573Zm29.434-15.5a1.426,1.426,0,0,1,1.015.42l.25.251a1.435,1.435,0,0,1,0,2.03L49.891,52.05a1.435,1.435,0,0,1-2.03,0l-.25-.25a1.437,1.437,0,0,1,0-2.03L59.993,37.389A1.425,1.425,0,0,1,61.007,36.968Zm-3.66.251-9.906,9.906-1.755-1.754,9.906-9.907ZM39.32,44.982,55.2,29.1a.209.209,0,0,1,.152-.065.243.243,0,0,1,.047,0,.212.212,0,0,1,.16.133l.81,1.982a.825.825,0,0,1-.181.9l-13.92,13.92a.826.826,0,0,1-.9.181l-1.982-.81a.22.22,0,0,1-.073-.36Zm-13.229-15.3a1.425,1.425,0,0,1-1.015-.42l-.25-.25a1.435,1.435,0,0,1,0-2.03L37.207,14.6a1.435,1.435,0,0,1,2.03,0l.25.251a1.435,1.435,0,0,1,0,2.03L27.106,29.265a1.427,1.427,0,0,1-1.015.42Zm3.659-.251,9.907-9.907,1.755,1.755-9.907,9.907ZM30.905,34.6l13.92-13.92a.826.826,0,0,1,.9-.181l1.982.81a.22.22,0,0,1,.072.359L31.894,37.556a.22.22,0,0,1-.359-.072L30.724,35.5a.826.826,0,0,1,.181-.9Zm-7.33,14.046a1.407,1.407,0,0,1,2.4-1L29.222,50.9a1.407,1.407,0,1,1-1.99,1.99l-3.245-3.245a1.4,1.4,0,0,1-.412-1Zm-6.02,22.474A10.037,10.037,0,0,1,15.961,67.1l2.385-2.583c0,.049,0,.1,0,.148a13.8,13.8,0,0,0,1.543,6.589H17.82A.324.324,0,0,1,17.555,71.122Zm47.167,3.749H22.664a1.206,1.206,0,1,1,0-2.413H64.722a1.206,1.206,0,1,1,0,2.413Z" transform="translate(0.001 -12.193)" fill="#00223d"/>
              <path id="Trazado_876361" data-name="Trazado 876361" d="M203.322,417.166a.995.995,0,0,0,0,1.99H226.5a.995.995,0,0,0,0-1.99Z" transform="translate(-175.487 -363.444)" fill="#00223d"/>
            </g>
          </g>
        </g>
      </g>
    </g>
  </g>
</svg>
