<svg xmlns="http://www.w3.org/2000/svg" width="129.737" height="110.976" viewBox="0 0 129.737 110.976">
  <g id="Grupo_1101896" data-name="Grupo 1101896" transform="translate(-860 -9639.246)">
    <path id="_12068" data-name="12068" d="M98.737,72.292c-13.285-1.834-27.318-1.386-39.407,4.421-16.765,8.052-27.775,26.309-28.2,44.9S40.4,158.479,55.36,169.523s34.7,14.959,53,11.643c18.453-3.344,35.773-14.186,45.4-30.28,6.172-10.321,9.057-23.065,5.647-34.6-2.059-6.961-6.267-13.128-11.217-18.437A82.875,82.875,0,0,0,98.737,72.292Z" transform="translate(828.881 9567.913)" fill="#26aab7"/>
    <g id="porcentaje-de-rebote" transform="translate(858.501 9601.025)">
      <path id="Trazado_878655" data-name="Trazado 878655" d="M106.516,80.939v62a3.077,3.077,0,0,1-3.077,3.077H23.9a3.077,3.077,0,0,1-3.077-3.077v-62Z" transform="translate(-9.417 -17.188)" fill="#72c1e8"/>
      <path id="Trazado_878656" data-name="Trazado 878656" d="M107.09,146.776H34.418a1.282,1.282,0,0,1,0-2.564h71.391V91.7a1.282,1.282,0,0,1,2.564,0v53.8a1.283,1.283,0,0,1-1.282,1.282Z" transform="translate(-15.414 -21.805)" fill="#c5e5ff"/>
      <path id="Trazado_878657" data-name="Trazado 878657" d="M44.477,99.055h61.435v28.98H44.477Z" transform="translate(-20.94 -26.015)" fill="#f0c020"/>
      <path id="Trazado_878658" data-name="Trazado 878658" d="M104.071,127.306H85.7a1.282,1.282,0,1,1,0-2.564h18.37a1.282,1.282,0,0,1,0,2.564Zm-23.5,0h-28.1a1.282,1.282,0,0,1-1.282-1.282v-19.08a1.282,1.282,0,1,1,2.564,0v17.8H80.573a1.282,1.282,0,0,1,0,2.564Z" transform="translate(-24.213 -29.234)" fill="#f9e5af"/>
      <path id="Trazado_878659" data-name="Trazado 878659" d="M106.516,51.237V64.969H20.828V51.237A3.077,3.077,0,0,1,23.9,48.16h79.534A3.077,3.077,0,0,1,106.516,51.237Z" transform="translate(-9.417 -1.218)" fill="#afafaf"/>
      <circle id="Elipse_11914" data-name="Elipse 11914" cx="3.219" cy="3.219" r="3.219" transform="translate(57.358 52.127)" fill="#fc5d3d"/>
      <circle id="Elipse_11915" data-name="Elipse 11915" cx="3.219" cy="3.219" r="3.219" transform="translate(69.771 52.127)" fill="#f0c020"/>
      <circle id="Elipse_11916" data-name="Elipse 11916" cx="3.219" cy="3.219" r="3.219" transform="translate(82.183 52.127)" fill="#13bf6d"/>
      <circle id="Elipse_11917" data-name="Elipse 11917" cx="12.7" cy="12.7" r="12.7" transform="translate(104.552 74.094)" fill="#fc5d3d"/>
      <path id="Trazado_878660" data-name="Trazado 878660" d="M107.93,60.272a4.5,4.5,0,1,0,4.5-4.5A4.508,4.508,0,0,0,107.93,60.272Zm6.441,0a1.938,1.938,0,1,1-1.938-1.938A1.95,1.95,0,0,1,114.371,60.272Z" transform="translate(-51.855 -4.926)"/>
      <path id="Trazado_878661" data-name="Trazado 878661" d="M136.642,55.77a4.5,4.5,0,1,0,4.5,4.5,4.508,4.508,0,0,0-4.5-4.5Zm0,6.441a1.938,1.938,0,1,1,1.933-1.938A1.947,1.947,0,0,1,136.642,62.211Z" transform="translate(-63.65 -4.926)"/>
      <path id="Trazado_878662" data-name="Trazado 878662" d="M160.842,64.775a4.5,4.5,0,1,0-4.5-4.5A4.508,4.508,0,0,0,160.842,64.775Zm0-6.441a1.938,1.938,0,1,1-1.934,1.938,1.946,1.946,0,0,1,1.934-1.938Z" transform="translate(-75.441 -4.926)"/>
      <path id="Trazado_878663" data-name="Trazado 878663" d="M36.137,62.05a1.282,1.282,0,0,0,0,2.564H63.428a1.282,1.282,0,1,0,0-2.564Z" transform="translate(-16.252 -7.985)"/>
      <path id="Trazado_878664" data-name="Trazado 878664" d="M19.61,79.791a1.282,1.282,0,0,0,1.282-1.282V65.033H79.658a1.282,1.282,0,1,0,0-2.564H20.892V50.019a1.8,1.8,0,0,1,1.795-1.795h79.535a1.8,1.8,0,0,1,1.795,1.795v12.45h-14.1a1.282,1.282,0,0,0,0,2.564h14.1V78.509a1.282,1.282,0,0,0,2.564,0V50.019a4.364,4.364,0,0,0-4.359-4.359H22.687a4.364,4.364,0,0,0-4.359,4.359v28.49A1.282,1.282,0,0,0,19.61,79.791Z" transform="translate(-8.199 0)"/>
      <path id="Trazado_878665" data-name="Trazado 878665" d="M19.61,130.73a1.282,1.282,0,0,0-1.282,1.282v35.182a4.364,4.364,0,0,0,4.359,4.359h79.535a4.364,4.364,0,0,0,4.359-4.359V132.012a1.282,1.282,0,1,0-2.564,0v35.182a1.8,1.8,0,0,1-1.795,1.795H22.687a1.8,1.8,0,0,1-1.795-1.795V132.012a1.282,1.282,0,0,0-1.282-1.282Z" transform="translate(-8.199 -41.447)"/>
      <circle id="Elipse_11918" data-name="Elipse 11918" cx="1.282" cy="1.282" r="1.282" transform="translate(75.305 62.469)"/>
      <path id="Trazado_878666" data-name="Trazado 878666" d="M104.694,108.459a1.282,1.282,0,0,0,1.282-1.282v-9.34a1.282,1.282,0,0,0-1.282-1.282H43.257a1.282,1.282,0,0,0-1.282,1.282v9.34a1.282,1.282,0,1,0,2.564,0V99.119h58.873v8.058A1.281,1.281,0,0,0,104.694,108.459Z" transform="translate(-19.721 -24.797)"/>
      <path id="Trazado_878667" data-name="Trazado 878667" d="M219.049,118.008l.315-.315a1.282,1.282,0,0,0-1.813-1.813l-.315.315a1.282,1.282,0,1,0,1.813,1.813Z" transform="translate(-104.927 -34.029)"/>
      <path id="Trazado_878668" data-name="Trazado 878668" d="M232.682,131.011l-.315.316a1.282,1.282,0,0,0,1.814,1.813l.315-.316a1.282,1.282,0,0,0-1.814-1.813Z" transform="translate(-112.299 -41.401)"/>
      <path id="Trazado_878669" data-name="Trazado 878669" d="M217.695,125.6a1.281,1.281,0,0,0,1.813,0l7.45-7.45a1.282,1.282,0,0,0-1.813-1.813l-7.45,7.45A1.281,1.281,0,0,0,217.695,125.6Z" transform="translate(-105.151 -34.253)"/>
      <path id="Trazado_878670" data-name="Trazado 878670" d="M2.95,111.666c9.6-1.272,25.3-.282,38.8,14.871H24.818v-7.92a1.282,1.282,0,1,0-2.564,0v9.2a1.282,1.282,0,0,0,1.282,1.282H43.9a77.78,77.78,0,0,1,10.4,17.945,1.283,1.283,0,0,0,2.359,0A78.845,78.845,0,0,1,67,129.1H84.974a1.282,1.282,0,0,0,1.282-1.282v-9.2a1.282,1.282,0,1,0-2.564,0v7.92H69.137c11.135-12.6,23.9-15.577,34.2-15.25-.04.43-.063.866-.063,1.306a13.995,13.995,0,1,0,.543-3.848c-14.609-.581-27.758,5.377-37.991,17.791H45.156c-14.531-17.661-32.011-18.808-42.543-17.413a1.282,1.282,0,0,0,.338,2.542Zm114.3-10.491a11.418,11.418,0,1,1-11.418,11.418,11.431,11.431,0,0,1,11.418-11.418ZM63.821,129.1a80.2,80.2,0,0,0-8.344,14.278A80.31,80.31,0,0,0,47.153,129.1Z" transform="translate(0 -25.798)"/>
      <path id="Trazado_878671" data-name="Trazado 878671" d="M107.287,114.176A1.282,1.282,0,0,0,106,112.894H67.216a1.282,1.282,0,1,0,0,2.564h38.789A1.282,1.282,0,0,0,107.287,114.176Z" transform="translate(-31.394 -32.757)"/>
      <path id="Trazado_878672" data-name="Trazado 878672" d="M87.668,125.5a1.282,1.282,0,0,0,0,2.564h15.891a1.282,1.282,0,1,0,0-2.564Z" transform="translate(-41.358 -38.899)"/>
    </g>
  </g>
</svg>
