<svg xmlns="http://www.w3.org/2000/svg" width="67" height="59.183" viewBox="0 0 67 59.183">
  <g id="Grupo_1101895" data-name="Grupo 1101895" transform="translate(-285 -5512.425)">
    <g id="Grupo_1100133" data-name="Grupo 1100133" transform="translate(105 49.287)">
      <g id="Grupo_1100093" data-name="Grupo 1100093" transform="translate(0 1712.986)">
        <path id="_12068" data-name="12068" d="M66.039,71.828c-6.861-.947-14.108-.716-20.351,2.283C37.03,78.27,31.344,87.7,31.126,97.3s4.784,19.038,12.512,24.741a35.81,35.81,0,0,0,27.37,6.013c9.53-1.727,18.474-7.326,23.445-15.638,3.187-5.33,4.677-11.911,2.916-17.867a24.409,24.409,0,0,0-5.793-9.521A42.8,42.8,0,0,0,66.039,71.828Z" transform="translate(148.881 3680.691)" fill="#26aab7"/>
        <path id="Trazado_873155" data-name="Trazado 873155" d="M303.26,44.546a1.582,1.582,0,1,0-.106-2.456A1.573,1.573,0,0,0,303.26,44.546Z" transform="translate(138.287 4055.916) rotate(-90)" fill="#7d6eb2"/>
        <path id="Trazado_873156" data-name="Trazado 873156" d="M321.56,66.974a3.448,3.448,0,1,0-1.687-4.918A3.468,3.468,0,0,0,321.56,66.974Z" transform="translate(128.241 4079.581) rotate(-90)" fill="#ffd947"/>
        <circle id="Elipse_11521" data-name="Elipse 11521" cx="3.689" cy="3.689" r="3.689" transform="translate(237.702 3796.368) rotate(-90)" fill="none" stroke="#fff" stroke-linecap="round" stroke-linejoin="round" stroke-width="1.5"/>
      </g>
      <g id="marketing" transform="translate(188.601 5471.72)">
        <g id="Grupo_1100131" data-name="Grupo 1100131" transform="translate(0.723 0.723)">
          <g id="Grupo_1100113" data-name="Grupo 1100113" transform="translate(40.496)">
            <path id="Trazado_876725" data-name="Trazado 876725" d="M59.893,1.723V10.4a.725.725,0,0,1-.723.723H57v-9.4A.725.725,0,0,1,57.723,1h1.446A.725.725,0,0,1,59.893,1.723Z" transform="translate(-57 -1)" fill="#ff826e"/>
          </g>
          <g id="Grupo_1100114" data-name="Grupo 1100114" transform="translate(35.434 2.893)">
            <path id="Trazado_876726" data-name="Trazado 876726" d="M52.893,5.723v6.508H50V5.723A.725.725,0,0,1,50.723,5h1.446A.725.725,0,0,1,52.893,5.723Z" transform="translate(-50 -5)" fill="#ff826e"/>
          </g>
          <g id="Grupo_1100115" data-name="Grupo 1100115" transform="translate(30.372 5.785)">
            <path id="Trazado_876727" data-name="Trazado 876727" d="M45.893,9.723v3.616H43.723A.725.725,0,0,1,43,12.616V9.723A.725.725,0,0,1,43.723,9h1.446A.725.725,0,0,1,45.893,9.723Z" transform="translate(-43 -9)" fill="#ff826e"/>
          </g>
          <g id="Grupo_1100116" data-name="Grupo 1100116" transform="translate(0 4.339)">
            <path id="Trazado_876728" data-name="Trazado 876728" d="M11.413,9.314A5.785,5.785,0,0,1,6.785,18.57a5.579,5.579,0,0,1-1.88-.318,5.783,5.783,0,1,1,6.508-8.938Z" transform="translate(-1 -7)" fill="#e6e9ed"/>
          </g>
          <g id="Grupo_1100117" data-name="Grupo 1100117" transform="translate(3.616 7.231)">
            <path id="Trazado_876729" data-name="Trazado 876729" d="M10.44,12.8a1.27,1.27,0,0,1,0,2.184L7.714,16.626a1.159,1.159,0,0,1-.579.159A1.133,1.133,0,0,1,6,15.65V12.135A1.133,1.133,0,0,1,7.135,11a1.159,1.159,0,0,1,.579.159Z" transform="translate(-6 -11)" fill="#ff826e"/>
          </g>
          <g id="Grupo_1100118" data-name="Grupo 1100118" transform="translate(20.248 8.678)">
            <path id="Trazado_876730" data-name="Trazado 876730" d="M31.893,14.446a1.457,1.457,0,0,1-1.446,1.446A1.451,1.451,0,0,1,29,14.446V13h2.893Z" transform="translate(-29 -13)" fill="#aab2bd"/>
          </g>
          <g id="Grupo_1100119" data-name="Grupo 1100119" transform="translate(17.356 0)">
            <path id="Trazado_876731" data-name="Trazado 876731" d="M29.339,9.678H27.893L25.824,7.089A3.732,3.732,0,0,1,25,4.746a2.8,2.8,0,0,1,.022-.347A3.732,3.732,0,0,1,28.746,1h1.186a3.741,3.741,0,0,1,3.724,3.392,2.825,2.825,0,0,1,.022.354,3.732,3.732,0,0,1-.824,2.343L30.785,9.678Z" transform="translate(-25 -1)" fill="#ffd947"/>
          </g>
          <g id="Grupo_1100120" data-name="Grupo 1100120" transform="translate(20.248 2.893)">
            <circle id="Elipse_11829" data-name="Elipse 11829" cx="1.446" cy="1.446" r="1.446" fill="#fcd770"/>
          </g>
          <g id="Grupo_1100121" data-name="Grupo 1100121" transform="translate(28.926 18.802)">
            <path id="Trazado_876732" data-name="Trazado 876732" d="M42.49,27.369a1.857,1.857,0,0,1,0,3.6L41,31.339V27Z" transform="translate(-41 -27)" fill="#fcd770"/>
          </g>
          <g id="Grupo_1100122" data-name="Grupo 1100122" transform="translate(17.356 24.587)">
            <path id="Trazado_876733" data-name="Trazado 876733" d="M27.893,35v5.062a.725.725,0,0,1-.723.723H25.723A.725.725,0,0,1,25,40.062V35Z" transform="translate(-25 -35)" fill="#969faa"/>
          </g>
          <g id="Grupo_1100123" data-name="Grupo 1100123" transform="translate(17.356 15.909)">
            <path id="Trazado_876734" data-name="Trazado 876734" d="M33.678,23V33.124a4.943,4.943,0,0,0-3.493-1.446H25V24.446h5.185A4.943,4.943,0,0,0,33.678,23Z" transform="translate(-25 -23)" fill="#e6e9ed"/>
          </g>
          <g id="Grupo_1100124" data-name="Grupo 1100124" transform="translate(26.033 14.463)">
            <path id="Trazado_876735" data-name="Trazado 876735" d="M39.893,29.678v3.616a.725.725,0,0,1-.723.723H37.723A.725.725,0,0,1,37,33.294V21.723A.725.725,0,0,1,37.723,21h1.446a.725.725,0,0,1,.723.723v7.955Z" transform="translate(-37 -21)" fill="#ff826e"/>
          </g>
          <g id="Grupo_1100125" data-name="Grupo 1100125" transform="translate(13.017 17.356)">
            <path id="Trazado_876736" data-name="Trazado 876736" d="M23.339,25v7.231h-.723a3.616,3.616,0,0,1,0-7.231Z" transform="translate(-19 -25)" fill="#ff826e"/>
          </g>
          <g id="Grupo_1100126" data-name="Grupo 1100126" transform="translate(36.157 20.248)">
            <path id="Trazado_876737" data-name="Trazado 876737" d="M57.87,31.871l.362,2.914H51l.362-2.914a3.279,3.279,0,0,1,6.508,0Z" transform="translate(-51 -29)" fill="#b4dd7f"/>
          </g>
          <g id="Grupo_1100127" data-name="Grupo 1100127" transform="translate(36.881 14.463)">
            <path id="Trazado_876738" data-name="Trazado 876738" d="M54.893,21a2.911,2.911,0,1,1-.687.087A2.669,2.669,0,0,1,54.893,21Z" transform="translate(-52 -21)" fill="#f0d0b4"/>
          </g>
          <g id="Grupo_1100128" data-name="Grupo 1100128" transform="translate(28.926 30.372)">
            <path id="Trazado_876739" data-name="Trazado 876739" d="M49.931,43.933A5.782,5.782,0,1,1,46.785,43,5.767,5.767,0,0,1,49.931,43.933Z" transform="translate(-41 -43)" fill="#ffd947"/>
          </g>
          <g id="Grupo_1100129" data-name="Grupo 1100129" transform="translate(10.124 34.711)">
            <path id="Trazado_876740" data-name="Trazado 876740" d="M26.57,49.723v4.339a.711.711,0,0,1-.607.709.3.3,0,0,1-.116.014H22.231l-.55,2.191a.924.924,0,0,1-1.793,0l-.55-2.191H15.723A.725.725,0,0,1,15,54.062V49.723A.725.725,0,0,1,15.723,49H25.847A.725.725,0,0,1,26.57,49.723Z" transform="translate(-15 -49)" fill="#e6e9ed"/>
          </g>
          <g id="Grupo_1100130" data-name="Grupo 1100130" transform="translate(0 20.248)">
            <path id="Trazado_876741" data-name="Trazado 876741" d="M6.785,29A5.785,5.785,0,0,1,6.85,40.57H6.785a5.781,5.781,0,0,1-2.878-10.8v-.007A5.779,5.779,0,0,1,6.785,29Z" transform="translate(-1 -29)" fill="#69d6f4"/>
          </g>
        </g>
        <g id="Grupo_1100132" data-name="Grupo 1100132" transform="translate(0)">
          <path id="Trazado_876742" data-name="Trazado 876742" d="M11.508,13.616a2.011,2.011,0,0,0-.971-1.715L7.81,10.265A1.855,1.855,0,0,0,5,11.856v3.52a1.855,1.855,0,0,0,2.81,1.592l2.727-1.636a2.011,2.011,0,0,0,.971-1.715Zm-1.715.475L7.066,15.727a.421.421,0,0,1-.62-.351v-3.52a.409.409,0,0,1,.62-.351l2.727,1.636a.554.554,0,0,1,0,.95Z" transform="translate(-1.384 -2.769)" fill="#00223d"/>
          <path id="Trazado_876743" data-name="Trazado 876743" d="M39.518,31.82a19.386,19.386,0,0,0,1.749-4.34h3.665l-.466-3.728A3.989,3.989,0,0,0,42.7,20.925a3.6,3.6,0,0,0-2.2-6.462c-.083,0-.161.019-.243.025a19.568,19.568,0,0,0-1.6-2.917h4.737a1.448,1.448,0,0,0,1.446-1.446V1.446A1.448,1.448,0,0,0,43.389,0H41.943A1.448,1.448,0,0,0,40.5,1.446v8.678h-.723V4.339a1.448,1.448,0,0,0-1.446-1.446H36.881a1.448,1.448,0,0,0-1.446,1.446v5.785h-.723V7.231a1.448,1.448,0,0,0-1.446-1.446h-.629a19.4,19.4,0,0,0-5.254-2.242A4.479,4.479,0,0,0,23.008,0H21.826a4.477,4.477,0,0,0-4.371,3.535,19.3,19.3,0,0,0-6.2,2.869,6.5,6.5,0,1,0-7.5,10.327,19.434,19.434,0,0,0-.814,4.591A6.5,6.5,0,0,0,6.184,33.248a19.548,19.548,0,0,0,3.94,4.324V40.5a1.448,1.448,0,0,0,1.446,1.446h3.052l.411,1.644a1.649,1.649,0,0,0,3.2,0l.411-1.643h3.052c.035,0,.068-.008.1-.01.207.007.412.01.62.01a19.363,19.363,0,0,0,7.561-1.525,6.5,6.5,0,1,0,9.539-8.6ZM41.943,1.446h1.446v8.678H41.943ZM43.03,23.931l.263,2.1H37.7l.263-2.1a2.554,2.554,0,0,1,5.068,0Zm-.364-5.852A2.169,2.169,0,1,1,40.5,15.909,2.172,2.172,0,0,1,42.666,18.079ZM36.881,4.339h1.446v5.785H36.881ZM31.819,7.231h1.446v2.893H31.819ZM21.827,1.446h1.182A3.024,3.024,0,0,1,25.37,6.36L23.516,8.678h-.375V7.1a2.169,2.169,0,1,0-1.446,0V8.678h-.375L19.465,6.359a3.024,3.024,0,0,1,2.362-4.913Zm-.132,8.678h1.446v.723a.723.723,0,1,1-1.446,0Zm0-5.062a.723.723,0,1,1,.723.723A.724.724,0,0,1,21.694,5.062ZM1.446,10.847a5.062,5.062,0,1,1,5.062,5.062A5.068,5.068,0,0,1,1.446,10.847Zm0,15.909A5.03,5.03,0,0,1,1.66,25.31H3.031a7.641,7.641,0,0,0,0,2.893H1.66a5.03,5.03,0,0,1-.213-1.446Zm2.893,0a6.293,6.293,0,0,1,.174-1.446H8.5a6.332,6.332,0,0,1,.174,1.446A6.293,6.293,0,0,1,8.5,28.2H4.513a6.293,6.293,0,0,1-.174-1.446Zm2.169-4.763.336.336A6.285,6.285,0,0,1,7.97,23.865H5.047A6.285,6.285,0,0,1,6.172,22.33ZM7.97,29.649a6.268,6.268,0,0,1-1.125,1.534l-.336.336-.336-.336a6.268,6.268,0,0,1-1.125-1.534Zm1.592,0h1.094a5.085,5.085,0,0,1-2.075,1.72,7.613,7.613,0,0,0,.981-1.72Zm2.008-2.893a5.03,5.03,0,0,1-.213,1.446H9.986a7.641,7.641,0,0,0,0-2.893h1.371A5.03,5.03,0,0,1,11.57,26.757ZM9.562,23.864a7.637,7.637,0,0,0-.981-1.72,5.088,5.088,0,0,1,2.075,1.72Zm-6.108,0H2.36a5.088,5.088,0,0,1,2.075-1.72A7.637,7.637,0,0,0,3.454,23.864ZM2.36,29.649H3.454a7.613,7.613,0,0,0,.981,1.72A5.085,5.085,0,0,1,2.36,29.649ZM21.694,40.5h-4.18l-.685,2.739a.211.211,0,0,1-.394,0L15.75,40.5H11.57V36.157H21.694Zm1.446-.022V36.157a1.448,1.448,0,0,0-1.446-1.446H11.57a1.443,1.443,0,0,0-1.375,1.023,18.076,18.076,0,0,1-2.334-2.612A6.506,6.506,0,1,0,4.435,20.592a17.982,17.982,0,0,1,.68-3.391,6.5,6.5,0,0,0,7-9.638A17.869,17.869,0,0,1,17.4,5.044a4.48,4.48,0,0,0,.931,2.219l1.913,2.391v1.192a2.169,2.169,0,1,0,4.339,0V9.655L26.5,7.264a4.477,4.477,0,0,0,.929-2.206,17.839,17.839,0,0,1,3.259,1.282,1.426,1.426,0,0,0-.317.891v2.893a1.448,1.448,0,0,0,1.446,1.446h5.053a18.089,18.089,0,0,1,1.973,3.311,3.58,3.58,0,0,0-.552,6.044,3.987,3.987,0,0,0-1.765,2.827l-.466,3.728h3.7a17.975,17.975,0,0,1-1.472,3.564,6.491,6.491,0,0,0-8.963,8.077,18.062,18.062,0,0,1-6.191,1.354Zm7.231-3.594a5.066,5.066,0,0,1,4.339-5v1.388H33.265v2.169A2.172,2.172,0,0,0,35.434,37.6a.723.723,0,0,1,.723.723v.723h-.723a.723.723,0,0,1-.723-.723V37.6H33.265v.723a2.167,2.167,0,0,0,1.446,2.036v1.522A5.066,5.066,0,0,1,30.372,36.881Zm5.785,5V40.5H37.6V38.327a2.172,2.172,0,0,0-2.169-2.169.723.723,0,0,1-.723-.723v-.723h.723a.723.723,0,0,1,.723.723v.723H37.6v-.723A2.167,2.167,0,0,0,36.157,33.4V31.876a5.055,5.055,0,0,1,0,10.008Z" transform="translate(0)" fill="#00223d"/>
          <path id="Trazado_876744" data-name="Trazado 876744" d="M35.356,33.017V29.965l.942-.235a2.575,2.575,0,0,0,0-5l-.942-.236V21.446A1.448,1.448,0,0,0,33.909,20H32.463a1.448,1.448,0,0,0-1.446,1.446v.4a4.184,4.184,0,0,1-2.768,1.042h-5.91a4.339,4.339,0,1,0,0,8.678v4.339a1.448,1.448,0,0,0,1.446,1.446h1.446a1.448,1.448,0,0,0,1.446-1.446V31.57h1.571a4.243,4.243,0,0,1,2.768,1.043v.4a1.448,1.448,0,0,0,1.446,1.446h1.446A1.448,1.448,0,0,0,35.356,33.017ZM19.446,27.231a2.9,2.9,0,0,1,2.893-2.893v5.785A2.9,2.9,0,0,1,19.446,27.231Zm5.785,8.678H23.785V31.57h1.446Zm3.017-5.785H23.785V24.339h4.463a5.623,5.623,0,0,0,2.768-.725v7.242A5.694,5.694,0,0,0,28.248,30.124Zm7.7-3.988a1.129,1.129,0,0,1,0,2.191l-.591.148V25.988Zm-3.483-4.69h1.446v11.57H32.463Z" transform="translate(-4.983 -5.537)" fill="#00223d"/>
          <path id="Trazado_876745" data-name="Trazado 876745" d="M28,29h1.446v1.446H28Z" transform="translate(-7.752 -8.029)" fill="#00223d"/>
          <path id="Trazado_876746" data-name="Trazado 876746" d="M32,29h1.446v1.446H32Z" transform="translate(-8.859 -8.029)" fill="#00223d"/>
          <path id="Trazado_876747" data-name="Trazado 876747" d="M18,52h1.446v1.446H18Z" transform="translate(-4.983 -14.396)" fill="#00223d"/>
          <path id="Trazado_876748" data-name="Trazado 876748" d="M22,52h1.446v1.446H22Z" transform="translate(-6.091 -14.396)" fill="#00223d"/>
          <path id="Trazado_876749" data-name="Trazado 876749" d="M26,52h1.446v1.446H26Z" transform="translate(-7.198 -14.396)" fill="#00223d"/>
        </g>
      </g>
    </g>
  </g>
</svg>
