<svg xmlns="http://www.w3.org/2000/svg" width="67" height="59.183" viewBox="0 0 67 59.183">
  <g id="Grupo_1100195" data-name="Grupo 1100195" transform="translate(-180 -12927.838)">
    <g id="Grupo_1100170" data-name="Grupo 1100170" transform="translate(0 9177.686)">
      <path id="_12068" data-name="12068" d="M66.039,71.828c-6.861-.947-14.108-.716-20.351,2.283C37.03,78.27,31.344,87.7,31.126,97.3s4.784,19.038,12.512,24.741a35.81,35.81,0,0,0,27.37,6.013c9.53-1.727,18.474-7.326,23.445-15.638,3.187-5.33,4.677-11.911,2.916-17.867a24.409,24.409,0,0,0-5.793-9.521A42.8,42.8,0,0,0,66.039,71.828Z" transform="translate(148.881 3680.691)" fill="#26aab7"/>
      <path id="Trazado_873155" data-name="Trazado 873155" d="M303.26,44.546a1.582,1.582,0,1,0-.106-2.456A1.573,1.573,0,0,0,303.26,44.546Z" transform="translate(138.287 4055.916) rotate(-90)" fill="#7d6eb2"/>
      <path id="Trazado_873156" data-name="Trazado 873156" d="M321.56,66.974a3.448,3.448,0,1,0-1.687-4.918A3.468,3.468,0,0,0,321.56,66.974Z" transform="translate(128.241 4079.581) rotate(-90)" fill="#ffd947"/>
      <circle id="Elipse_11521" data-name="Elipse 11521" cx="3.689" cy="3.689" r="3.689" transform="translate(237.702 3796.368) rotate(-90)" fill="none" stroke="#fff" stroke-linecap="round" stroke-linejoin="round" stroke-width="1.5"/>
    </g>
    <g id="mercado" transform="translate(190.241 12931.682)">
      <g id="Grupo_1100225" data-name="Grupo 1100225" transform="translate(1.759 1.733)">
        <g id="Grupo_1100214" data-name="Grupo 1100214" transform="translate(0 27.308)">
          <path id="Trazado_876876" data-name="Trazado 876876" d="M15.654,38,8.577,50.137l-3.2,5.477a1.185,1.185,0,0,1-1.024.592H3.191A1.188,1.188,0,0,1,2,55.014a1.216,1.216,0,0,1,.167-.607L11.861,38Z" transform="translate(-2 -38)" fill="#cf9e76"/>
        </g>
        <g id="Grupo_1100215" data-name="Grupo 1100215" transform="translate(16.688 27.308)">
          <path id="Trazado_876877" data-name="Trazado 876877" d="M37.487,54.407a1.216,1.216,0,0,1,.167.607,1.188,1.188,0,0,1-1.191,1.191H35.3a1.185,1.185,0,0,1-1.024-.592l-3.2-5.477L24,38h3.793Z" transform="translate(-24 -38)" fill="#cf9e76"/>
        </g>
        <g id="Grupo_1100216" data-name="Grupo 1100216" transform="translate(42.479 33.376)">
          <circle id="Elipse_11854" data-name="Elipse 11854" cx="1.517" cy="1.517" r="1.517" fill="#ff826e"/>
        </g>
        <g id="Grupo_1100217" data-name="Grupo 1100217" transform="translate(18.767 16.688)">
          <path id="Trazado_876878" data-name="Trazado 876878" d="M38.316,24l11.576,8.283a15.2,15.2,0,0,1-23.151,0l4.043-2.9Z" transform="translate(-26.74 -24)" fill="#b4dd7f"/>
        </g>
        <g id="Grupo_1100218" data-name="Grupo 1100218" transform="translate(36.411 33.376)">
          <circle id="Elipse_11855" data-name="Elipse 11855" cx="1.517" cy="1.517" r="1.517" fill="#ff826e"/>
        </g>
        <g id="Grupo_1100219" data-name="Grupo 1100219" transform="translate(31.859 0)">
          <path id="Trazado_876879" data-name="Trazado 876879" d="M57.586,15.722a15.441,15.441,0,0,0-1.039-4.271,15.241,15.241,0,0,0-1.912-3.4,15.433,15.433,0,0,0-2.594-2.716A15.153,15.153,0,0,0,48.771,3.3,14.826,14.826,0,0,0,44,2V16.375l1.373.941,3.148,2.162,3.148,2.162,4.111,2.829a15,15,0,0,0,1.874-7.3C57.654,16.686,57.631,16.2,57.586,15.722Z" transform="translate(-44 -2)" fill="#ff826e"/>
        </g>
        <g id="Grupo_1100220" data-name="Grupo 1100220" transform="translate(30.342 33.376)">
          <circle id="Elipse_11856" data-name="Elipse 11856" cx="1.517" cy="1.517" r="1.517" fill="#ff826e"/>
        </g>
        <g id="Grupo_1100221" data-name="Grupo 1100221" transform="translate(15.171 0)">
          <path id="Trazado_876880" data-name="Trazado 876880" d="M29.586,20.547l-5.712,3.929A15.275,15.275,0,0,1,30.42,3.517,14.869,14.869,0,0,1,35.654,2V16.375Z" transform="translate(-22 -2)" fill="#ffd947"/>
        </g>
        <g id="Grupo_1100222" data-name="Grupo 1100222" transform="translate(0 1.517)">
          <path id="Trazado_876881" data-name="Trazado 876881" d="M2.759,4H25.591a15.237,15.237,0,0,0-5.408,4.551H2.759A.761.761,0,0,1,2,7.793V4.759A.761.761,0,0,1,2.759,4Z" transform="translate(-2 -4)" fill="#aab2bd"/>
        </g>
        <g id="Grupo_1100223" data-name="Grupo 1100223" transform="translate(13.654 27.308)">
          <path id="Trazado_876882" data-name="Trazado 876882" d="M20,38V55.014a1.188,1.188,0,0,0,1.191,1.191h.652a1.188,1.188,0,0,0,1.191-1.191V38Z" transform="translate(-20 -38)" fill="#cf9e76"/>
        </g>
        <g id="Grupo_1100224" data-name="Grupo 1100224" transform="translate(1.517 6.068)">
          <path id="Trazado_876883" data-name="Trazado 876883" d="M21.249,28.9l4.043-2.9-.053-.076V22.478l-5.712,3.929A15.225,15.225,0,0,1,20.665,10H4V30.481a.761.761,0,0,0,.759.759H23.722l.008-.008A15.023,15.023,0,0,1,21.249,28.9Z" transform="translate(-4 -10)" fill="#ccd1d9"/>
        </g>
      </g>
      <g id="Grupo_1100226" data-name="Grupo 1100226" transform="translate(1 0.896)">
        <path id="Trazado_876884" data-name="Trazado 876884" d="M30.517,17.963V19.62h1.517V18.1h1.517V15.827a2.278,2.278,0,0,0-2.276-2.276.759.759,0,0,1-.759-.759v-.759h.759a.759.759,0,0,1,.759.759v.759h1.517v-.759a2.273,2.273,0,0,0-1.517-2.136V9H30.517v1.517H29v2.276a2.278,2.278,0,0,0,2.276,2.276.759.759,0,0,1,.759.759v.759h-.759a.759.759,0,0,1-.759-.759v-.759H29v.759A2.273,2.273,0,0,0,30.517,17.963Z" transform="translate(-7.761 -2.853)"/>
        <path id="Trazado_876885" data-name="Trazado 876885" d="M0,0H6.436V1.517H0Z" transform="translate(28.283 26.851) rotate(-45)"/>
        <circle id="Elipse_11857" data-name="Elipse 11857" cx="0.759" cy="0.759" r="0.759" transform="translate(31.859 25.87)"/>
        <circle id="Elipse_11858" data-name="Elipse 11858" cx="0.759" cy="0.759" r="0.759" transform="translate(28.825 22.835)"/>
        <path id="Trazado_876886" data-name="Trazado 876886" d="M44.787,26.566,32.1,17.489,19.415,26.566l.531.628c.322.382.664.742,1.017,1.089H4.034V8.56H18.488a16.066,16.066,0,0,0-.35,16.014l.4.735,12.8-8.8V.9l-.834.083a15.869,15.869,0,0,0-5.352,1.513H2.517A1.519,1.519,0,0,0,1,4.009V7.043A1.519,1.519,0,0,0,2.517,8.56V28.283A1.519,1.519,0,0,0,4.034,29.8H10.29L1.272,45.062a1.95,1.95,0,0,0,1.678,2.943H4.108a1.956,1.956,0,0,0,1.684-.967l2.976-5.1h5.886v4.119A1.952,1.952,0,0,0,16.6,48.005h.652A1.952,1.952,0,0,0,19.2,46.056V41.937H25.09l2.976,5.1a1.959,1.959,0,0,0,1.685.967h1.158a1.951,1.951,0,0,0,1.679-2.942l-8.508-14.4a15.913,15.913,0,0,0,20.175-3.47ZM29.825,15.709l-10.74,7.385A14.483,14.483,0,0,1,29.825,2.6ZM2.517,4.009H22.642a15.846,15.846,0,0,0-3.106,3.034H2.517ZM17.688,29.8V40.42H16.171V29.8ZM4.482,46.273a.433.433,0,0,1-.373.215H2.949a.433.433,0,0,1-.432-.432.426.426,0,0,1,.061-.221L12.053,29.8h2.038ZM9.653,40.42l5-8.572V40.42Zm8.035,5.636a.433.433,0,0,1-.432.432H16.6a.433.433,0,0,1-.432-.432V41.937h1.517Zm1.517-5.636V31.848l5,8.572Zm12.137,5.636a.433.433,0,0,1-.432.432H29.751a.432.432,0,0,1-.373-.215L19.768,29.8h2.038l9.476,16.036A.428.428,0,0,1,31.342,46.056ZM32.1,31.317a14.371,14.371,0,0,1-10.446-4.488L32.1,19.354l10.446,7.475A14.368,14.368,0,0,1,32.1,31.317Z" transform="translate(-1 -0.896)"/>
        <path id="Trazado_876887" data-name="Trazado 876887" d="M56.2,24.57A15.99,15.99,0,0,0,43.834.979L43,.9V16.508L55.8,25.3Zm-.231-11.979a14.309,14.309,0,0,1,.566,2.6l-5.2,5.2L49.458,19.1Zm-7.785,5.64-1.876-1.289,7.947-7.947a14.775,14.775,0,0,1,1.122,2.043ZM44.517,8.116l4.149-4.15a14.416,14.416,0,0,1,1.962,1.2l-6.111,6.112Zm2.664-4.81L44.517,5.971V2.6A14,14,0,0,1,47.181,3.306Zm-2.664,10.12,7.292-7.292a14.774,14.774,0,0,1,1.544,1.62l-8.314,8.314-.522-.359Zm8.089,7.84,4.039-4.039A14.348,14.348,0,0,1,55.26,23.09Z" transform="translate(-11.141 -0.896)"/>
        <path id="Trazado_876888" data-name="Trazado 876888" d="M7,31.62H17.62V30.1H16.1V21H14.586v9.1H13.068V24.034H11.551V30.1H10.034V27.068H8.517V30.1H7Z" transform="translate(-2.449 -5.75)"/>
        <path id="Trazado_876889" data-name="Trazado 876889" d="M7,13h3.034v1.517H7Z" transform="translate(-2.449 -3.818)"/>
        <path id="Trazado_876890" data-name="Trazado 876890" d="M13,13h4.551v1.517H13Z" transform="translate(-3.897 -3.818)"/>
        <path id="Trazado_876891" data-name="Trazado 876891" d="M7,17h9.1v1.517H7Z" transform="translate(-2.449 -4.784)"/>
        <path id="Trazado_876892" data-name="Trazado 876892" d="M43.276,45a2.276,2.276,0,1,0,2.276,2.276A2.278,2.278,0,0,0,43.276,45Zm0,3.034a.759.759,0,1,1,.759-.759A.759.759,0,0,1,43.276,48.034Z" transform="translate(-10.658 -11.545)"/>
        <path id="Trazado_876893" data-name="Trazado 876893" d="M51.276,45a2.276,2.276,0,1,0,2.276,2.276A2.278,2.278,0,0,0,51.276,45Zm0,3.034a.759.759,0,1,1,.759-.759A.759.759,0,0,1,51.276,48.034Z" transform="translate(-12.589 -11.545)"/>
        <path id="Trazado_876894" data-name="Trazado 876894" d="M59.276,45a2.276,2.276,0,1,0,2.276,2.276A2.278,2.278,0,0,0,59.276,45Zm0,3.034a.759.759,0,1,1,.759-.759A.759.759,0,0,1,59.276,48.034Z" transform="translate(-14.521 -11.545)"/>
      </g>
    </g>
  </g>
</svg>
