<svg xmlns="http://www.w3.org/2000/svg" xmlns:xlink="http://www.w3.org/1999/xlink" width="444.391" height="342.156" viewBox="0 0 444.391 342.156">
  <defs>
    <clipPath id="clip-path">
      <path id="Trazado_875902" data-name="Trazado 875902" d="M1.172.6,58.893,0,57.721,110.27,0,110.874Z" transform="matrix(0.012, 1, -1, 0.012, 110.866, 0)" fill="none" stroke="#26aab7" stroke-width="1"/>
    </clipPath>
  </defs>
  <g id="Grupo_1101895" data-name="Grupo 1101895" transform="translate(-870.609 -1386)">
    <path id="stylish-happy-excited-friends-with-shopping-bags-are-looking-together-smart-phone-chatting-about-sales-mall" d="M239.6,74.292c-40.959-5.656-84.226-4.273-121.5,13.629C66.409,112.748,32.461,169.035,31.16,226.362s28.563,113.658,74.7,147.709,106.981,46.122,163.4,35.9c56.893-10.31,110.294-43.737,139.97-93.36,19.029-31.82,27.924-71.112,17.411-106.668-6.347-21.461-19.322-40.475-34.584-56.844A255.516,255.516,0,0,0,239.6,74.292Z" transform="translate(883.881 1314.667)" fill="#ffd947"/>
    <g id="Enmascarar_grupo_1098748" data-name="Enmascarar grupo 1098748" transform="translate(1116.177 1650.946)" clip-path="url(#clip-path)">
      <g id="Grupo_1100016" data-name="Grupo 1100016" transform="translate(-8.673 125.42) rotate(-90)">
        <path id="Trazado_875894" data-name="Trazado 875894" d="M54.037,0c29.635-.208,53.49,23.133,53.282,52.133s-24.4,52.678-54.035,52.886S-.207,81.888,0,52.887,24.4.209,54.037,0Z" transform="matrix(0.958, 0.286, -0.286, 0.958, 30.046, 0)" fill="none" stroke="#26aab7" stroke-width="2"/>
        <path id="Trazado_875895" data-name="Trazado 875895" d="M46.75,0c25.761-.058,46.6,21.317,46.539,47.744S72.3,95.64,46.539,95.7-.058,74.381,0,47.955,20.989.058,46.75,0Z" transform="translate(110.068 15.052) rotate(85.029)" fill="none" stroke="#26aab7" stroke-width="2"/>
        <path id="Trazado_875896" data-name="Trazado 875896" d="M41.044,0C63.63-.082,81.873,18.622,81.791,41.776S63.332,83.767,40.746,83.85-.082,65.228,0,42.074,18.459.083,41.044,0Z" transform="matrix(0.14, 0.99, -0.99, 0.14, 102.209, 19.291)" fill="none" stroke="#26aab7" stroke-width="2"/>
        <ellipse id="Elipse_11816" data-name="Elipse 11816" cx="36.033" cy="35.113" rx="36.033" ry="35.113" transform="translate(30.407 30.555)" fill="none" stroke="#26aab7" stroke-miterlimit="10" stroke-width="2"/>
        <path id="Trazado_875897" data-name="Trazado 875897" d="M30.2,0C46.826-.046,60.27,13.061,60.223,29.276s-13.566,29.4-30.2,29.445S-.046,45.66,0,29.445,13.566.047,30.2,0Z" transform="translate(39.745 33.169) rotate(6.323)" fill="none" stroke="#26aab7" stroke-width="2"/>
        <path id="Trazado_875898" data-name="Trazado 875898" d="M23.51,47.994a24.621,24.621,0,0,0,24.1-24.29A23.2,23.2,0,0,0,24.1,0,24.621,24.621,0,0,0,0,24.291,23.2,23.2,0,0,0,23.51,47.994Z" transform="matrix(0.586, 0.81, -0.81, 0.586, 71.944, 32.318)" fill="none" stroke="#26aab7" stroke-width="2"/>
        <path id="Trazado_875899" data-name="Trazado 875899" d="M18.145,0a17.585,17.585,0,0,1,17.742,17.98A18.556,18.556,0,0,1,17.743,36.364,17.585,17.585,0,0,1,0,18.383,18.556,18.556,0,0,1,18.145,0Z" transform="translate(73.367 41.079) rotate(60.355)" fill="none" stroke="#26aab7" stroke-width="2"/>
        <path id="Trazado_875900" data-name="Trazado 875900" d="M12.449,0A11.977,11.977,0,0,1,24.687,12,12.483,12.483,0,0,1,12.239,24.213,11.977,11.977,0,0,1,0,12.211,12.483,12.483,0,0,1,12.449,0Z" transform="translate(59.178 49.977) rotate(20.72)" fill="none" stroke="#26aab7" stroke-width="2"/>
        <path id="Trazado_875901" data-name="Trazado 875901" d="M.722,3.415A6.228,6.228,0,0,0,3.5,11.91,6.555,6.555,0,0,0,12.222,9.2,6.228,6.228,0,0,0,9.439.7,6.553,6.553,0,0,0,.722,3.415Z" transform="translate(59.968 59.361)" fill="none" stroke="#26aab7" stroke-miterlimit="10" stroke-width="2"/>
      </g>
    </g>
    <g id="Grupo_1100015" data-name="Grupo 1100015" transform="translate(871.359 1401.711)">
      <path id="Trazado_873105" data-name="Trazado 873105" d="M417.537,417.4a2.362,2.362,0,1,0-.157-3.667A2.348,2.348,0,0,0,417.537,417.4Z" transform="translate(-25.249 -166.462)" fill="#ffd947"/>
      <path id="Trazado_873106" data-name="Trazado 873106" d="M303.579,45.942a2.362,2.362,0,1,0-.158-3.667A2.348,2.348,0,0,0,303.579,45.942Z" transform="translate(12.328 -31.502)" fill="#7d6eb2"/>
      <path id="Trazado_873110" data-name="Trazado 873110" d="M391.312,443.265a5.148,5.148,0,1,0-2.519-7.343A5.178,5.178,0,0,0,391.312,443.265Z" transform="translate(-23.232 -167.897)" fill="#ffd947"/>
      <path id="Trazado_873111" data-name="Trazado 873111" d="M177.165,59.4a5.148,5.148,0,1,0-2.519-7.343A5.178,5.178,0,0,0,177.165,59.4Z" transform="translate(-120.984 -49.533)" fill="#7d6eb2"/>
      <path id="Trazado_873113" data-name="Trazado 873113" d="M322.61,70.233a5.149,5.149,0,1,0-2.519-7.343A5.179,5.179,0,0,0,322.61,70.233Z" transform="translate(11.135 -32.825)" fill="#ffd947"/>
      <ellipse id="Elipse_11484" data-name="Elipse 11484" cx="2.522" cy="2.522" rx="2.522" ry="2.522" transform="translate(25.84 294.784)" fill="none" stroke="#26aab7" stroke-linecap="round" stroke-linejoin="round" stroke-width="1.5"/>
      <ellipse id="Elipse_11486" data-name="Elipse 11486" cx="2.522" cy="2.522" rx="2.522" ry="2.522" transform="translate(324.912 279.425)" fill="none" stroke="#fff" stroke-linecap="round" stroke-linejoin="round" stroke-width="1.5"/>
      <ellipse id="Elipse_11487" data-name="Elipse 11487" cx="2.522" cy="2.522" rx="2.522" ry="2.522" transform="translate(0 144.051)" fill="none" stroke="#7d6eb2" stroke-linecap="round" stroke-linejoin="round" stroke-width="1.5"/>
      <ellipse id="Elipse_11488" data-name="Elipse 11488" cx="2.522" cy="2.522" rx="2.522" ry="2.522" transform="translate(304.782 185.284)" fill="none" stroke="#aee6e6" stroke-linecap="round" stroke-linejoin="round" stroke-width="1.5"/>
      <ellipse id="Elipse_11489" data-name="Elipse 11489" cx="2.522" cy="2.522" rx="2.522" ry="2.522" transform="translate(24.985 27.963)" fill="none" stroke="#7d6eb2" stroke-linecap="round" stroke-linejoin="round" stroke-width="1.5"/>
    </g>
    <g id="Grupo_22243" data-name="Grupo 22243" transform="translate(625.311 1314.859)">
      <path id="Trazado_49034" data-name="Trazado 49034" d="M740.783,307.4c-3.6-.64-3.656-1-1.947-4.215,7.909-14.891,13.872-30.468,16.8-47.135a4.957,4.957,0,0,1,1.067-2.412,13.389,13.389,0,0,0,3.339-8.161c.307-3.48-.408-7.146.409-10.464a154.877,154.877,0,0,1,6.135-19.378c1.816-4.643,2.617-9.222,1.6-14.008a7.829,7.829,0,0,1,1.8-7.464,10.786,10.786,0,0,0,2.635-7.656c-.03-4.022.028-8.044.028-12.066,0-1.794.007-3.592-.093-5.382a12.76,12.76,0,0,0-3.1-8.238c-1.865-2.029-3.94-3.863-5.831-5.87-2.135-2.267-4.168-4.63-6.244-6.951h-2.693l2.687,3.591c-4.093.513-7.231-.81-8.522-3.591H747.51c4.572,7.954,6.821,16.66,8.212,25.626,1.09,7.026,1.691,14.01-.47,21.035-1.063,3.457-1.3,7.167-1.918,10.762h0c-.225,1.235-.4,2.48-.689,3.7-.31,1.329-.719,2.634-1.085,3.949-2.93-3.116-7.086-3.4-11.494-4.5,3.437-1.742,5.844-.232,8.333.582-3.343-3.322-7.169-2.632-11.135-.783l-.209-.966,5.1-2.468c-3.832-1.7-5.422,3.355-9.1,3.1l2.72-2.2a23.583,23.583,0,0,1-3.282.187c-2.686-.281-5.22-.188-7.316,1.883-.208.206-.951-.131-1.446-.215l1.34-2.228h0l.767-.6-.235-.574-4.571,1.607-3.64,4.892-4.48,5.374.485.937,4.532-5.772c2.876-.615,5.738-1.66,8.63-1.754,5.317-.172,10.652.215,15.979.37,0,1.834-1.436,1.674-2.563,1.716-5.354.2-10.711.323-16.662.491a11.4,11.4,0,0,0,2.947,1.2,49.033,49.033,0,0,0,5.578-.063c2.152-.087,4.357-.589,6.435-.257,2.007.32,3.645.833,5.044-1.229.4-.593,1.577-.664,2.4-.974l4.506,2.244,3.156,4.48q.43,2.245.861,4.491h0q-.447,2.243-.9,4.487a12.443,12.443,0,0,0-.636,1.431c-2.125,6.93-6.889,10.406-14.045,10.715-4.1.177-8.2.285-12.3.424a10.581,10.581,0,0,0,2.914.842c3.57-.027,7.155-.071,10.7-.42,7.544-.741,11.68-4.318,13.821-11.627l.989-1.234c.319,1.044.554,1.814.79,2.585-.292,4.308-.54,8.619-.886,12.923-.411,5.118-.905,10.229-1.364,15.343-.132.428-.3.849-.391,1.286a145.7,145.7,0,0,1-12.5,36.609c-3.125,6.2-5.741,12.7-11.437,17.207-1.57,1.242-2.925,2.756-4.379,4.145h3.142l7.154-5.794h0l2.721,5.795h1.346l-3.6-6.716c-.314-1.6.7-1.638,1.735-1.331,9.134,2.724,18.589,3.407,27.969,4.661,4.535.606,8.935,2.225,13.4,3.386h7.63a103.08,103.08,0,0,0-22.963-5.887Q751.934,309.366,740.783,307.4Zm25.995-114.961-.893.008q.227,1.989.453,3.978l-2.625,2.78.319.254-.32-.254q1.314-1.389,2.625-2.779a14.617,14.617,0,0,1-1.648-2.036c-2.094-3.782-4.257-7.535-6.1-11.436-.778-1.644-.839-3.628-1.283-5.73,4.95,1.613,10.832,10.75,10.812,16.093h0Zm-3.57,8.956v0c-.917,1.365-1.647.908-2.233-.267-1.215-2.435-2.4-4.887-3.593-7.332q.289-3.9.58-7.808l.877-.248c1.567,2.877,3.214,5.715,4.668,8.648.74,1.492,1.642,3.141.162,4.782Q763.438,200.281,763.208,201.394Zm-11.84-49.438,6.46,1.446h0c2.8,2.3,5.646,4.559,8.376,6.945a9.562,9.562,0,0,1,1.492,2.443q-6.91-3.143-13.82-6.283C752.121,155.712,751.9,154.134,751.368,151.956Zm2.7,6.594c.065-.228,2.636-.151,3.743.4,3.522,1.741,6.9,3.77,10.335,5.689a2.047,2.047,0,0,0,.439-.6,2.047,2.047,0,0,1-.439.6l1.778,2.675.614,8.336-.512.069c-1.789-2.414-3.339-5.065-5.43-7.182a86.111,86.111,0,0,0-8.027-6.622C755.391,160.979,753.511,160.509,754.067,158.55Zm14.566,5.356a.894.894,0,0,1-.033.091A.894.894,0,0,0,768.633,163.906Zm-13.126-.463c3.3-.45,11.618,7.729,12.2,12.588Zm.647,2.838a61.1,61.1,0,0,1,12.9,14.042h0c1.255,3.544,2.089,7.1.452,10.77-1.937-6.5-6.415-11.16-11.254-15.576C756.654,174.06,755.768,170.021,756.154,166.281Zm13.484,12.837c-.186.386-.385.768-.563,1.157C769.254,179.885,769.452,179.5,769.638,179.117Zm-15.833,37.974q.016-.234.033-.469.2-4.236.39-8.471,0-1.126,0-2.251l-.217.314-.176.255.176-.255.217-.314c.252-2.051-.093-4.291,1.836-5.812l.418-.92c.049-.908.1-1.817.151-2.818l5.214,7.317a7.439,7.439,0,0,1,0,2.543c-.481,1.306-1.44,1.661-2.476.417-.7-.842-1.343-1.734-2.01-2.6l1.371,4.431-.653.354c-.447-.72-.887-1.443-1.341-2.159-.481-.759-.973-1.5-1.146.149,1.2,1.536,1.4,3-.116,4.515a5.534,5.534,0,0,0-.79,1.777c.777.114,1.979-.034,2.243.4a12.272,12.272,0,0,1,.975,3.281c-.942.227-1.875.515-2.83.652A3.519,3.519,0,0,1,753.805,217.091Zm1.556,3.128a1.4,1.4,0,0,1,.01-1.259,2.406,2.406,0,0,1,3.364.66A2.348,2.348,0,0,1,755.361,220.219Zm-.451,29.025a25,25,0,0,1,.652-4.433c1.725-6.634,1.176-13.356.881-20.068-.072-1.637.062-2.889,2.074-3.3,2.094-.428,1.278-2.615,2-3.9l-.458-1.355a22.508,22.508,0,0,1-2.095-4.09,2.544,2.544,0,0,1,1.254-2.162c3.409-1.077,4.413-3.619,4.822-6.791a8.223,8.223,0,0,1,1.405-2.566h0a18.156,18.156,0,0,1-.376,12.862c-2.2,5.857-4.292,11.759-6.166,17.725-.631,2.007-.495,4.265-.637,6.413-.177,2.673.024,5.414-.508,8.008-.462,2.254-1.716,4.346-2.62,6.509A17.711,17.711,0,0,1,754.91,249.244Z" transform="translate(-206.75)"/>
      <path id="Trazado_49035" data-name="Trazado 49035" d="M461.26,202.6a51.294,51.294,0,0,0-.524-17.6,64.279,64.279,0,0,1,2.938-37h-1.346a6.845,6.845,0,0,1-1.981.86,35.6,35.6,0,0,0-13.816,4.321,5.908,5.908,0,0,1-2.179.2q.012,1.127.023,2.254c4.036-1.712,7.96-3.8,12.136-5.038,4.694-1.4,4.865-.857,3.792,3.84a5.515,5.515,0,0,1-4.561,4.684c-4.967,1.277-8.9,4.428-12.6,7.857a19.973,19.973,0,0,1-3.874,3.1q.326-2.5.653-5.006v0l2.64-4.513-.439-1.778,2.253-3.14q-.012-1.126-.024-2.254L451.106,148H445.72c-1.474,2.415-3.47,4.659-4.328,7.276-3.355,10.234-7.487,20.313-7.905,31.281a32.262,32.262,0,0,0,.579,7.529c.557,2.768,1.659,5.423,2.418,8.157a3.882,3.882,0,0,1,.058,2.544c-2.277,4.267-2.075,8.69-.826,13.091a67.316,67.316,0,0,1,2.446,16.809,54.739,54.739,0,0,0,3.851,19.032c1.621,4.063,4.18,6.646,8.852,6.595.706-.008,2.022.574,2.035.923.108,2.787.853,6.027-.28,8.283-2.221,4.424-5.47,8.345-8.417,12.385-1.358,1.861-3.347,3.325-4.427,5.308a8.591,8.591,0,0,1-4.539,4.03c-1.171.489-2.3,1.072-3.46,1.6-10.217,4.635-19.09,11.45-28.385,17.571-2.924,1.926-5.6,4.228-8.392,6.357h4.04a21.588,21.588,0,0,1,2.27-2.118c3.473-2.435,6.951-4.868,10.507-7.178,5.053-3.283,10.1-6.584,15.294-9.639,3.843-2.261,7.908-4.143,11.875-6.194,2.164,1.066,1.65,3.173,1.718,4.9.268,6.739.367,13.485.528,20.228h1.347q-.461-14.354-.922-28.707l12.065-15.084c.088.093.315.226.369.41.211.713.394,1.436.54,2.165a118.532,118.532,0,0,0,12.547,34.584q1.843,3.313,3.678,6.632H473.1c-.827-1.749-1.637-3.506-2.485-5.244-3.111-6.376-6.252-12.736-9.327-19.129a7.4,7.4,0,0,1-.321-2.155l.471-2.209a44.454,44.454,0,0,1-5.665-18.47c-.361-3.85-.426-7.727-.623-11.592-.088-3.992.137-8-.733-12.009a3.512,3.512,0,0,0-1,2.137c-.1,1.484-.051,2.977-.053,4.466,0,4.574-.006,5.315-3.177,5.392l-2.219-.006A10.814,10.814,0,0,1,443.5,251.5q-1.359-5.287-2.7-10.578-.255-4.51-.509-9.019c2.806,8.719,2.916,8.955,5.06,9.863a7.272,7.272,0,0,0-.458-1.527,24.617,24.617,0,0,1-3.13-13.585c.157-4.026.07-7.888-1.716-11.591a7.689,7.689,0,0,1-.407-2.412c-.02-.171.174-.368.27-.553l1.373.711c.945-1.092,1.644-2.612,2.488-2.7,1.071-.11,2.262.945,3.4,1.5l.476-.754a28.9,28.9,0,0,0-3.2-2.273c-3.159-1.671-5.633-.417-5.771,3.133a19.532,19.532,0,0,0,1.031,5.873c.668,2.373,1.377,4.68.2,7.428l-.9-2.517c-.5-2.316-1.016-4.63-1.51-6.948-1.346-6.32-.434-8.54,4.672-11.423l.865-.47h0l4.081.465h0l.376-.009.929.893c.185,1.285.37,2.57.572,3.975l2.192.585a5.236,5.236,0,0,1-.4,1.432,5.524,5.524,0,0,0-.7,5.285,4.517,4.517,0,0,1-.193,2.625c-.163.517-.864,1.275-1.264,1.241-2.483-.216-3.271,1.545-3.918,3.294-2.1,5.687.39,11.2,3.7,14.867.245.27.727.326,1.1.482a6.439,6.439,0,0,0-1.409-2.952A12.743,12.743,0,0,1,445.87,223.8c.391-1.281,1.01-2.218,2.765-1.8,3.929.942,4.739,2.869,2.732,6.48-.7,1.255-1.612,2.966-1.263,4.117a82.514,82.514,0,0,0,3.834,9.058l.556-.126a7.51,7.51,0,0,0-.191-2.014,39.912,39.912,0,0,0-2.065-4.7c-1.415-2.645-1.367-3.62.628-6.033l2.289-5.1a15.625,15.625,0,0,1-1.852-1.244c-.71-.605-1.936-1.466-1.837-2.015.563-3.111-1.131-6.262.522-9.391,1.205-2.281-.709-5.57-3.1-6.047l2.674-9.407a41.88,41.88,0,0,0,2.248-3.559,8.259,8.259,0,0,0,.441-2.286c-2.413,2.791-4.617,5.7-5.4,9.427l-.9-.464-.05.32.05-.32a14.635,14.635,0,0,1,1.076-3.352c3.173-5.177,6.462-10.283,9.711-15.413.474,3.242,1.2,6.472,1.36,9.73.209,4.3.025,8.616-.131,12.92-.024.657-.8,1.287-1.236,1.93l2.7,1.385A17.325,17.325,0,0,1,461.26,202.6Zm-21.637-.607c.132-3.955.826-7.843,2.985-11.173a71.643,71.643,0,0,1,6.633-8.379c2.309-2.607,4.872-4.99,7.323-7.472l.792.6a56.164,56.164,0,0,1-3.249,4.614c-1.888,2.2-3.922,4.288-5.953,6.366a28.712,28.712,0,0,0-7.971,14.509A1.584,1.584,0,0,1,439.623,201.991Zm11.748-13.074a55.29,55.29,0,0,0-4.632,9.843c-.826,2.572-1.791,4.285-4.621,4.443l.6.3-.6-.3c-.25-.878-.859-1.833-.691-2.623a25.176,25.176,0,0,1,5.932-11.6c3.439-3.865,7.042-7.584,10.648-11.444-.057.337-.112.664-.167.992C455.67,181.984,453.358,185.361,451.371,188.918Zm2.283-23.905,4.619-2.176c-.1,3.85.848,7.472-1.767,10.373-3.089,3.427-6.383,6.676-9.666,9.923a28,28,0,0,0-7.706,13.9,14.4,14.4,0,0,1-1.474,2.993h0q-.9-4.456-1.8-8.913h0a5.672,5.672,0,0,0,.416-.793,29.91,29.91,0,0,1,15.373-17.861,7.5,7.5,0,0,0,1.372-1.159l-.487-.523c-7.389,3.7-13.337,8.9-16.515,17.006l-.449-.334q-.094-.646-.188-1.29l1.847-4.468h0l8.029-8.756-.43-.381c-2.937,2.653-6.436,4.76-8.093,8.652-1.522-1.5-.382-2.925.2-4.291a14.82,14.82,0,0,1,1.616-2.4h0c3.666-2.128,7.605-3.852,10.639-6.921-2.641,1.1-5.067,2.544-7.56,3.855a6.88,6.88,0,0,1-2.194.338l.053-.435a81.415,81.415,0,0,1,6.519-5.39c3.133-2.113,6.47-3.933,9.779-5.771a12.714,12.714,0,0,1,3.074-.722C458.337,162.651,454.82,162.239,453.654,165.013Z" transform="translate(-31.535)"/>
      <path id="Trazado_49036" data-name="Trazado 49036" d="M543.5,464.093c3.142,4.328,6.054,8.847,9.466,12.95s7.323,7.8,11.015,11.669h1.8c-.869-.922-1.73-1.854-2.61-2.766-3.051-3.166-6.408-6.091-9.094-9.541-4.118-5.289-7.775-10.936-11.628-16.431l-.471,2.21C542.479,462.819,543.017,463.434,543.5,464.093Z" transform="translate(-112.537 -171.945)"/>
      <path id="Trazado_49037" data-name="Trazado 49037" d="M736.457,483.34l-.711-.235c-.357.536-.712,1.075-1.072,1.609-1.709,2.533-3.163,5.3-5.19,7.544-2.945,3.263-6.3,6.153-9.484,9.2h2.244c5.089-4.743,10.314-9.374,13.5-15.738A13.861,13.861,0,0,0,736.457,483.34Z" transform="translate(-210.66 -184.694)"/>
      <path id="Trazado_49038" data-name="Trazado 49038" d="M613.4,508.343l11.042,6.439h3.142L614,507.275Z" transform="translate(-151.907 -198.015)"/>
      <path id="Trazado_49039" data-name="Trazado 49039" d="M836.2,319.836c-.226,2.027.108,4.162-.375,6.105-.845,3.4-2.226,6.655-3.177,10.03-.237.84.315,1.9.5,2.862.64-.6,1.553-1.092,1.869-1.835.963-2.256,2.583-2.97,4.941-3.058a13,13,0,0,1,9,3.387,5.113,5.113,0,0,0,1.741.554,8.821,8.821,0,0,0-.274-2.022,2.4,2.4,0,0,0-1.059-1.124c-1.871-1.028-3.776-2-5.683-2.957-.9-.455-1.841-.843-2.763-1.262a24.457,24.457,0,0,1,1.825-2.656c.687-.775,1.621-1.325,2.352-2.068.889-.9,2.531-1.729,1.459-3.2-.258-.354-2.42.286-3.392.937a32.547,32.547,0,0,0-3.894,3.558l-.625-.33c.174-1.154.418-2.3.505-3.463a16.484,16.484,0,0,0,.016-4.2c-.106-.568-1.217-.948-1.872-1.414A6.97,6.97,0,0,0,836.2,319.836Z" transform="translate(-272.717 -93.52)"/>
      <path id="Trazado_49040" data-name="Trazado 49040" d="M886.518,341.545a19.014,19.014,0,0,0-2.011-.01l-.15-.483c-1.714.6-3.6.916-5.1,1.854-2.279,1.424-2.6,4.108-1.265,7.007,1.106,2.4,2.768,3.447,4.863,3.052a9.986,9.986,0,0,0,6.964-6.9C890.32,343.523,889.094,341.822,886.518,341.545Zm.2,5.67a12.042,12.042,0,0,1-3.338,2.48c-1.306.579-2.854.615-3.62-1.059-.57-1.245.5-3.206,2.053-3.7a37.285,37.285,0,0,1,3.865-.785c.435.277,1.352.553,1.624,1.132A2.219,2.219,0,0,1,886.722,347.216Z" transform="translate(-297.303 -106.401)"/>
      <path id="Trazado_49041" data-name="Trazado 49041" d="M941.539,315.023c-.555.368-1.372.609-1.626,1.125-3.023,6.146-5.972,12.328-8.911,18.515a27.81,27.81,0,0,0-.949,2.7l.862,1.382c.522-.33,1.277-.536,1.527-1.009,1.95-3.685,3.87-7.389,5.666-11.152q2.165-4.535,3.978-9.233C942.322,316.734,941.742,315.806,941.539,315.023Z" transform="translate(-326.431 -92.055)"/>
      <path id="Trazado_49042" data-name="Trazado 49042" d="M992.837,336.92a4.646,4.646,0,0,0-5.272.637,50.608,50.608,0,0,0-5.579,5.423,9.87,9.87,0,0,0-1.234,2.318l-2.8-2.93-.908.342c.163,1.879.245,3.772.533,5.632.1.647.628,1.622,1.107,1.718a2.65,2.65,0,0,0,2.089-.778c1.156-1.257,2.06-2.741,3.14-4.073,2.675-3.3,4.629-7.814,10.491-6.233A4.793,4.793,0,0,0,992.837,336.92Z" transform="translate(-352.332 -103.815)"/>
      <path id="Trazado_49043" data-name="Trazado 49043" d="M915.216,333.681c-.486.368-1.246.644-1.406,1.121-.5,1.5-1.438,1.732-2.8,1.4a10,10,0,0,0-1.68-.132c0,.34-.057.525.011.618a4.9,4.9,0,0,0,.73.833c2.7,2.329,2.684,2.319,1.348,5.738a20.671,20.671,0,0,0-1.17,3.606c-.1.521.408,1.157.64,1.74.49-.364,1.186-.624,1.433-1.111.708-1.395,1.119-2.945,1.864-4.316.833-1.533,1.905-2.936,3.064-4.683-.228-.717-.585-2-1.054-3.24A9.031,9.031,0,0,0,915.216,333.681Z" transform="translate(-315 -102.339)"/>
      <path id="Trazado_49044" data-name="Trazado 49044" d="M959.7,349.435c.855-.533,1.925-1.453,2-2.291a3.424,3.424,0,0,0-1.532-2.616c-2.055-1.213-5.313.577-6.674,3.419a3.837,3.837,0,0,0,2.047,5.571,40.268,40.268,0,0,0,5.749,1.455l.241-.752c-1.639-.651-3.327-1.207-4.889-2.008-.508-.26-.689-1.158-1.019-1.765a8.522,8.522,0,0,1,1.683-.743C958.1,349.538,959.092,349.816,959.7,349.435Zm.106-3.126c.033-.006.2.712.308,1.093l-2.3.564-.279-1.08C958.293,346.677,959.044,346.454,959.81,346.309Z" transform="translate(-339.08 -108.105)"/>
      <path id="Trazado_49045" data-name="Trazado 49045" d="M356.351,322.23c-1.137-2.115-2-4.447-3.477-6.293-2.066-2.586-4.2-2.474-5.945.365-2.531,4.116-4.766,8.426-6.932,12.751a30.338,30.338,0,0,0-2.184,6.322c-.178.722.507,1.657.8,2.495.694-.523,1.824-.924,2.009-1.589.989-3.543,3.492-5,6.843-5.521a21.2,21.2,0,0,0,2.619-.606,7.419,7.419,0,0,0,5.7-7.622Zm-10.141,7.284c-1.4.1-2.111-.537-1.638-1.852a90.638,90.638,0,0,1,3.706-9.319c1.119-2.277,2.606-2.2,3.918.045a17.832,17.832,0,0,1,1.2,3.525C353.129,325.749,349.893,329.243,346.21,329.514Z" transform="translate(0 -91.536)"/>
      <path id="Trazado_49046" data-name="Trazado 49046" d="M384.538,332.507c-2-.561-1.813-1.6-1.227-3.025.769-1.864,1.571-3.72,2.222-5.625.18-.526-.126-1.216-.209-1.831a14.46,14.46,0,0,0-1.88.841,2.1,2.1,0,0,0-.586.936c-1.847,4.082-3.758,8.138-5.457,12.28-.343.838.128,2.009.224,3.026a11.953,11.953,0,0,0,2.75-.855,19.61,19.61,0,0,0,2.668-2.31c.7,2.782-1.694,5.594,1.938,7.58.5-2.891,1.165-5.769,1.408-8.682A3.114,3.114,0,0,0,384.538,332.507Z" transform="translate(-21.767 -95.915)"/>
      <path id="Trazado_49047" data-name="Trazado 49047" d="M448.333,360.008a1.708,1.708,0,0,0,1.3-.539,4.963,4.963,0,0,0,.74-1.365c2.154-4.306,4.242-8.6,9.746-9.627.978-.182,1.742-1.517,2.935-2.627-1.109-1.232-1.736-2.542-2.645-2.782a5.41,5.41,0,0,0-3.684.587,18.5,18.5,0,0,0-3.682,3.194,14.288,14.288,0,0,0-2.916,3.392,46.476,46.476,0,0,0-2.272,6.295,7.153,7.153,0,0,0-.416,2.38A1.5,1.5,0,0,0,448.333,360.008Zm10.1-15.357c.432.487.958.922.9,1.038a2.238,2.238,0,0,1-1.008.971c-.164.069-.863-.537-.818-.691A5.136,5.136,0,0,1,458.433,344.651Z" transform="translate(-60.435 -107.449)"/>
      <path id="Trazado_49048" data-name="Trazado 49048" d="M413.13,337.23l.926,1.486c.514-.347,1.227-.579,1.508-1.062,1.386-2.387,2.78-4.783,3.941-7.282q2.971-6.393,5.613-12.936c.253-.623-.295-1.571-.472-2.369-.557.354-1.379.577-1.629,1.083-3.073,6.22-6.069,12.478-9.063,18.736A24.4,24.4,0,0,0,413.13,337.23Z" transform="translate(-41.528 -92.08)"/>
      <path id="Trazado_49049" data-name="Trazado 49049" d="M436.808,354.217c.32-.135.638-.168.7-.308,1.222-2.954,2.436-5.912,3.577-8.9.108-.281-.292-1.08-.438-1.075-.53.017-1.412.149-1.521.461-1.02,2.932-1.925,5.906-2.8,8.884C436.25,353.516,436.624,353.882,436.808,354.217Z" transform="translate(-54.304 -107.991)"/>
      <path id="Trazado_49050" data-name="Trazado 49050" d="M400.8,353.142c.968-2.416,1.927-4.84,2.738-7.311.177-.541-.262-1.285-.417-1.935-.555.4-1.4.689-1.614,1.225-.886,2.281-1.636,4.62-2.311,6.975a8.617,8.617,0,0,0,.236,2.549C400.166,353.853,400.631,353.557,400.8,353.142Z" transform="translate(-33.816 -107.969)"/>
      <path id="Trazado_49051" data-name="Trazado 49051" d="M450.1,326.6a7.932,7.932,0,0,0-1.471-1.661c-.317.388-.961.86-.887,1.147a10.64,10.64,0,0,0,1.336,2.3C449.633,327.458,450.226,326.848,450.1,326.6Z" transform="translate(-60.601 -97.519)"/>
      <path id="Trazado_49052" data-name="Trazado 49052" d="M412.756,326.675a8.052,8.052,0,0,0-1.277-1.589c-.312.313-.944.741-.88.92a14.666,14.666,0,0,0,1.349,2.306C412.4,327.438,412.871,326.918,412.756,326.675Z" transform="translate(-40.13 -97.601)"/>
      <path id="Trazado_49053" data-name="Trazado 49053" d="M617.336,423.075c1.971,1.627,3.431,2.714,4.752,3.951,2.014,1.887,3.933,3.876,5.892,5.822l.882-.453-2.595-2.946.31-.537c6.035,3.486,12,7.2,19.4,5.973,6.859-1.134,13.64-2.519,19.852-5.953-3.129,5.094-8.379,6.868-13.534,8.679a22.013,22.013,0,0,1-16.215-.284l-7.214-4.932-.882.453,7.106,4.989c5.238,2.935,10.8,2.915,16.306,1.275,6.564-1.954,12.834-4.514,16.869-10.678.663-1.013,2.417-1.34,3.7-1.907.543-.239,1.352-.107,1.7-.47a1.635,1.635,0,0,0-.289-1.566,2.384,2.384,0,0,0-1.919-.591c-4.776,2.047-9.808,1.682-14.8,1.8-1.624.039-3.237.425-4.861.575a21.179,21.179,0,0,1-4.814.242c-7.457-1.061-14.88-2.356-22.34-3.394A56.921,56.921,0,0,0,617.336,423.075Zm25.986,3.791a19.281,19.281,0,0,0,10.314.274c2.755-.749,5.787-.478,8.7-.311-8.85,3.622-17.575,3.363-26.1-1.19C638.6,426.034,641.01,426.262,643.322,426.866Zm-11.357-.363c3.672.977,7.3,2.115,10.968,3.119a27.983,27.983,0,0,0,14.167.215,24.447,24.447,0,0,1,2.463-.344l.211.627a7.82,7.82,0,0,1-1.769.97c-2.858.711-5.63,2.111-8.728,1.153a2.288,2.288,0,0,0-1.528.145c-2.007.974-3.807.4-5.8-.256a76.537,76.537,0,0,0-7.563-1.53c-3.3-.718-6.329-1.947-8.714-5.373C628.111,425.713,630.068,426,631.965,426.5Z" transform="translate(-154.076 -151.551)"/>
      <path id="Trazado_49054" data-name="Trazado 49054" d="M614.128,308.751a4.777,4.777,0,0,0,.532,4.442,3.046,3.046,0,0,1,.017,2.673c-2.511,4.237-6.614,6-11.27,6.184a98.849,98.849,0,0,1-12.7-.487,14.42,14.42,0,0,1-10.748-6.107h0A25.384,25.384,0,0,1,578.144,302l-3.137.44c1.876.257,1.786,1.688,1.761,3.027-.068,3.742.268,7.371,2.692,10.469,2.18,4.479,6.248,6.118,10.748,6.6a111.83,111.83,0,0,0,13.4.507c5.2-.068,9.23-2.48,12.2-6.8,2.875-4.178,4.177-8.876,5.018-13.768l-.959-.475A11.078,11.078,0,0,0,614.128,308.751Zm1.418,3.717v-4.62C617.818,309.867,617.862,310.675,615.546,312.469Z" transform="translate(-130.746 -84.876)"/>
      <path id="Trazado_49055" data-name="Trazado 49055" d="M553.129,281.317l4.03-3.519.519-.517c1.881-2.322,4.55-2.175,7.14-2.28l-2.7-.839c-4.454.537-7.569,3.045-9.889,6.721-3.021.857-5.681.057-8.28-1.563-3.157-1.968-6.433-3.747-9.657-5.608l-2.7-1.385c-.145-.17-.26-.437-.442-.494a16.838,16.838,0,0,0-3.025-.8c-.279-.033-.979.985-.927,1.047a9.557,9.557,0,0,0,2.09,2.054c5.434,3.353,11.577,5.658,15.8,10.791l3.576.444,3.137-.44Zm-8.768.573-3.806-2.763c-2.671-1.431-5.345-2.855-8.009-4.3a5.594,5.594,0,0,1-.819-.662l.337-.588,8.941,5.079,3.853,2.511Z" transform="translate(-104.39 -67.812)"/>
      <path id="Trazado_49056" data-name="Trazado 49056" d="M659.083,376.255a11.742,11.742,0,0,0-6.963-4.491c-2.814-.565-3.818-2.365-3.539-5.319.062-.655.009-1.321.009-2.493-2.32,3.386-1.7,6.3,1.173,8.12,3.086,1.956,6.184,3.9,9.169,6.007a13.527,13.527,0,0,0,15.357.511,31.79,31.79,0,0,1,5.487-3.009c3.4-1.253,5.778-3.33,6.827-6.835a12.172,12.172,0,0,1,1.555,1.389c1.485,1.853,2.687,4,4.405,5.585a10.367,10.367,0,0,1,3.171,10.6c-.719,3.195-1.869,6.292-2.783,9.445-.3,1.049-.471,2.139-.7,3.21l.6.15a2.57,2.57,0,0,0,.485-.662,123.46,123.46,0,0,0,3.619-12.235c.436-2.2.335-5.057-.751-6.889-2.709-4.57-6.12-8.723-9.256-13.039a1.5,1.5,0,0,0-.36-.265l-.46-1.346c-.9-1.695-1.711-3.454-2.768-5.048a2.758,2.758,0,0,0-2.053-.907c-.44,0-.882.827-.891.837a39.652,39.652,0,0,1,2.981,2.618,22.346,22.346,0,0,1,1.8,2.523c.608,4.924-.855,7.595-4.66,9.219a48.859,48.859,0,0,0-7.232,3.814C669.024,380.5,662.137,379.962,659.083,376.255Z" transform="translate(-170.521 -116.146)"/>
      <path id="Trazado_49057" data-name="Trazado 49057" d="M633.041,282.632h0a3.817,3.817,0,0,1-2.6-5.94c.954-1.688,1.618-3.539,2.413-5.318l-.921-.388a35.007,35.007,0,0,1-2.343,4.426c-.489.689-1.754,1.5-2.364,1.3a8.67,8.67,0,0,1-3.979-2.356,9.458,9.458,0,0,0-5.726-3.152,20.284,20.284,0,0,1-2.9-1.1c-1.414.68-.444,1.1.216,1.332,1.246.436,2.557.686,3.815,1.094a5.157,5.157,0,0,1,2.464,1.584h-2.453l-4.472-.908h0l-1.831-2.669c-1.721-.823-3.437-1.694-5.877-.908l5.819,2.605-.261.811-3.256.163-5.384-.886a4.311,4.311,0,0,0-5.559-.434l3.161.335-.031.387-1.629.594h0c-.142,0-.285,0-.426.013l2.7.839,2.634.087,4.038.526q-.048.469-.1.938l-7.931-.6-1.474.714.1.346h4.672c-1.916,2.031-5.064,2.068-9.078.269l-.519.517c2.565,2.436,5.7,2.176,8.621,1.307a34.215,34.215,0,0,1,10.308-1.415c1.471.016,2.952-.829,4.428-1.282.108-.229.425-.249.741-.27-.316.021-.633.041-.741.27a40.954,40.954,0,0,1,6.581.933,9.682,9.682,0,0,1,6.4,6.7h0q.009.446.019.893l.958.475c3.95-1.9,8.086-1.6,12.227-.965,1.888.288,2.578,1.4,2.658,3.423A71.066,71.066,0,0,0,647.4,295.2l1.344-.883c2.453-2.381,2.46-5.051-.128-7.217a2.374,2.374,0,0,1-.782-3.124l-.485-.936a36.357,36.357,0,0,1-4.12-.656A16.18,16.18,0,0,0,633.041,282.632Zm-18.05-7.318c-1.383.588-2.755.914-4.049-.374q.065-.4.129-.806l3.971.447Zm3.228-.131a1.141,1.141,0,0,0,.412-.093A1.141,1.141,0,0,1,618.219,275.183Zm30.215,14.105.806.122q-.209,1.663-.417,3.326l-1.15-.2Z" transform="translate(-141.194 -66.867)"/>
      <path id="Trazado_49058" data-name="Trazado 49058" d="M562.694,455.354a37.8,37.8,0,0,1-9.839-13.93c-2.163-5.249-4.3-10.51-6.677-16.339C546.48,431.683,555.866,453.705,562.694,455.354Z" transform="translate(-114.857 -152.716)"/>
      <path id="Trazado_49059" data-name="Trazado 49059" d="M704.67,318.831l-.582.105a15.149,15.149,0,0,0-.095,2.61c.634,4.805,1.2,9.627,2.053,14.4s3.036,9.5-.344,14.259l.737.367c.556-.734,1.474-1.412,1.6-2.212a20.064,20.064,0,0,0,.389-6.588c-1.3-6.893-3.408-13.644-3.255-20.77A8.926,8.926,0,0,0,704.67,318.831Z" transform="translate(-201.817 -94.154)"/>
      <path id="Trazado_49060" data-name="Trazado 49060" d="M606.292,406.639c-2.2-5.706-1.253-9.741,3.163-13.8a22.012,22.012,0,0,0,1.911-2.285l-.5-.383c-3.8,2.655-7.09,5.552-6.905,10.865.12,3.444,1.764,8.54,3.6,9.812.036-.233.151-.475.087-.653C607.215,409,606.748,407.822,606.292,406.639Z" transform="translate(-146.698 -133.472)"/>
      <path id="Trazado_49061" data-name="Trazado 49061" d="M675.065,464.248H652.586C656.91,466.028,672.275,466.041,675.065,464.248Z" transform="translate(-173.504 -174.301)"/>
      <path id="Trazado_49062" data-name="Trazado 49062" d="M781.117,405.188l-4.441,15.3C779.4,418.886,782.213,408.722,781.117,405.188Z" transform="translate(-241.897 -141.75)"/>
      <path id="Trazado_49063" data-name="Trazado 49063" d="M601.1,476.28,594.3,460.951C593.743,463.635,598.821,474.849,601.1,476.28Z" transform="translate(-141.358 -172.484)"/>
      <path id="Trazado_49064" data-name="Trazado 49064" d="M536.535,298.31q.213-.439.428-.878,0-5.911,0-11.823l-.842-.032c-.252,4.364-.5,8.728-.765,13.245Z" transform="translate(-108.893 -75.826)"/>
      <path id="Trazado_49065" data-name="Trazado 49065" d="M640.738,479.719c2.384,3.395,4.93,6.427,9.617,6,2.512-.23,5.036-.329,7.555-.487l-6.325-.463C646.753,485.8,643.989,482.233,640.738,479.719Z" transform="translate(-166.974 -182.828)"/>
      <path id="Trazado_49066" data-name="Trazado 49066" d="M552.323,330.456l9.794-5.258C558.346,325,553.446,327.7,552.323,330.456Z" transform="translate(-118.244 -97.657)"/>
      <path id="Trazado_49067" data-name="Trazado 49067" d="M684.608,488.358a9.635,9.635,0,0,0,6.563-2.166L680.988,487.9Z" transform="translate(-189.158 -186.395)"/>
      <path id="Trazado_49068" data-name="Trazado 49068" d="M512.984,363.073l4.216-5.533C514.738,357.763,513.1,359.8,512.984,363.073Z" transform="translate(-96.562 -115.489)"/>
      <path id="Trazado_49069" data-name="Trazado 49069" d="M555.923,339.228l.523.689,5.268-4.039-.423-.6C558.9,335.742,557.718,337.921,555.923,339.228Z" transform="translate(-120.228 -103.221)"/>
      <path id="Trazado_49070" data-name="Trazado 49070" d="M641.84,366.287l6.227-4.7A6.882,6.882,0,0,0,641.84,366.287Z" transform="translate(-167.582 -117.719)"/>
      <path id="Trazado_49071" data-name="Trazado 49071" d="M715.706,331.733c1.42,1.781,2.921,3.44,5.417,3.6l-4.959-4.512-1.8-5.817-1.344.883Z" transform="translate(-206.812 -97.557)"/>
      <path id="Trazado_49072" data-name="Trazado 49072" d="M664.9,490.428l6.325.463,4.514-.439-3.62-.461Z" transform="translate(-180.293 -188.489)"/>
      <path id="Trazado_49073" data-name="Trazado 49073" d="M708.232,282.941c-.5-1.525-1.055-2.959-1.435-4.438-.362-1.407.453-3.347-1.882-3.934C705.414,281.063,705.969,282.506,708.232,282.941Z" transform="translate(-202.346 -69.759)"/>
      <path id="Trazado_49074" data-name="Trazado 49074" d="M730.974,276.988l-.008.009h0l.014,0,.011-.015Z" transform="translate(-216.704 -71.086)"/>
      <path id="Trazado_49075" data-name="Trazado 49075" d="M723.6,276.342l.395.52,2.918-1.8,1.353-1.578A5.96,5.96,0,0,0,723.6,276.342Z" transform="translate(-212.646 -69.162)"/>
      <path id="Trazado_49076" data-name="Trazado 49076" d="M515,157.207a11.535,11.535,0,0,0-2.682.583c-3.378,1.693-6.694,3.507-10.055,5.235a18.353,18.353,0,0,1-2.28.825l.439,1.778Z" transform="translate(-89.398 -5.074)"/>
      <path id="Trazado_49077" data-name="Trazado 49077" d="M822.834,232.117l-.758.494,3.978,6.2.893-.008A22.954,22.954,0,0,0,822.834,232.117Z" transform="translate(-266.919 -46.361)"/>
      <path id="Trazado_49078" data-name="Trazado 49078" d="M724.49,301.957c3.52.576,7.037,1.281,10.585,1.551a46.554,46.554,0,0,0,8.421-.3,42,42,0,0,0,5.734-1.461c-2.339-1.453-4.555-3.337-7.117-4.32-5.843-2.242-11.861-.407-17.889.206l2.988.659.14.518-5.021,2.284A11.858,11.858,0,0,0,724.49,301.957Zm17.562-1.764.853,1.113-1.637,1.242-.763-.887Zm-9.685-1.695c1.029,1.75,1.893,3.926,4.442,2.583.31-.163.042-1.423.042-2.464a1.889,1.889,0,0,1,2.784,1,1.941,1.941,0,0,1-1.869,2.687,12.8,12.8,0,0,1-4.921-.86c-.617-.244-.76-1.687-1.119-2.584Z" transform="translate(-211.945 -81.761)"/>
      <path id="Trazado_49079" data-name="Trazado 49079" d="M747.52,327.486l.131-.729a11.965,11.965,0,0,0-3.482-.3c-6.67,1.434-12.727.336-18.137-3.937a12.438,12.438,0,0,0-1.749-.98l-.333.625c3.126,2.358,6.063,5.16,10.347,5.29C738.7,327.59,743.112,327.486,747.52,327.486Z" transform="translate(-212.837 -95.648)"/>
      <path id="Trazado_49080" data-name="Trazado 49080" d="M762.555,314.872l-.067-.785-7.791.922C757.388,316.254,759.967,315.52,762.555,314.872Z" transform="translate(-229.784 -91.539)"/>
      <path id="Trazado_49081" data-name="Trazado 49081" d="M787.723,311.241l-.218-.838-4,1.011A2.952,2.952,0,0,0,787.723,311.241Z" transform="translate(-245.662 -89.509)"/>
      <path id="Trazado_49082" data-name="Trazado 49082" d="M779.075,328.25l3.716,1.322.309-.83-3.653-1.4Q779.261,327.8,779.075,328.25Z" transform="translate(-243.219 -98.846)"/>
      <path id="Trazado_49083" data-name="Trazado 49083" d="M527.492,236c-1,2.174-1.994,4.353-3.013,6.519-.462.982-.978,1.939-1.47,2.907,2.876-1.989,4.208-5,5.3-8.143C528.413,236.987,527.781,236.434,527.492,236Z" transform="translate(-102.087 -48.501)"/>
      <path id="Trazado_49084" data-name="Trazado 49084" d="M821,290.236l-.96-.413-2.09,4.531q.229.677.458,1.355Z" transform="translate(-264.646 -78.166)"/>
      <path id="Trazado_49085" data-name="Trazado 49085" d="M598.308,292.6c-2.474.6-4.773,2.005-7.066,3.207-.75.393-1.229,1.3-2.185,2.368,3.734-.079,6.951.322,8.979-4.139,1.261,5.6,4.892,5.081,8.39,4.844,3.036-.206,6.071-.6,9.105-.6,2.424,0,4.59-.078,5.862-2.988a31.876,31.876,0,0,0-3.478-1.694A34.191,34.191,0,0,0,598.308,292.6Zm9.095,3.856a5.054,5.054,0,0,1-5.35,1.336c-1.487-.423-2.381-1.382-1.905-3.64,1.917,1.7,3.624,3.544,6.325,1.68l-1.112-2.655,2.964.994A6.991,6.991,0,0,1,607.4,296.459Zm3.645.749a12.67,12.67,0,0,1-2.4.221c.444-.993.541-1.738.94-1.974a3.482,3.482,0,0,1,2.126-.44c.415.059.733.79,1.1,1.218A9.735,9.735,0,0,1,611.048,297.208Z" transform="translate(-138.49 -79.157)"/>
      <path id="Trazado_49086" data-name="Trazado 49086" d="M621.867,327.319c-4.745,4.04-10.083,4.373-15.8,2.918-.739-.188-1.5-.306-2.243-.456.037.607.2.856.431.957,6.893,3.053,16.611.859,21.9-4.931l-.263-.572A19.685,19.685,0,0,0,621.867,327.319Z" transform="translate(-146.63 -97.684)"/>
      <path id="Trazado_49087" data-name="Trazado 49087" d="M619.161,310.509l-8.133-2.005C612.389,310.878,616.823,311.847,619.161,310.509Z" transform="translate(-150.6 -88.462)"/>
    </g>
  </g>
</svg>
