<svg xmlns="http://www.w3.org/2000/svg" width="67" height="59.183" viewBox="0 0 67 59.183">
  <g id="Grupo_1100176" data-name="Grupo 1100176" transform="translate(-180 -12927.838)">
    <g id="Grupo_1100170" data-name="Grupo 1100170" transform="translate(0 9177.686)">
      <path id="_12068" data-name="12068" d="M66.039,71.828c-6.861-.947-14.108-.716-20.351,2.283C37.03,78.27,31.344,87.7,31.126,97.3s4.784,19.038,12.512,24.741a35.81,35.81,0,0,0,27.37,6.013c9.53-1.727,18.474-7.326,23.445-15.638,3.187-5.33,4.677-11.911,2.916-17.867a24.409,24.409,0,0,0-5.793-9.521A42.8,42.8,0,0,0,66.039,71.828Z" transform="translate(148.881 3680.691)" fill="#26aab7"/>
      <path id="Trazado_873155" data-name="Trazado 873155" d="M303.26,44.546a1.582,1.582,0,1,0-.106-2.456A1.573,1.573,0,0,0,303.26,44.546Z" transform="translate(138.287 4055.916) rotate(-90)" fill="#7d6eb2"/>
      <path id="Trazado_873156" data-name="Trazado 873156" d="M321.56,66.974a3.448,3.448,0,1,0-1.687-4.918A3.468,3.468,0,0,0,321.56,66.974Z" transform="translate(128.241 4079.581) rotate(-90)" fill="#ffd947"/>
      <circle id="Elipse_11521" data-name="Elipse 11521" cx="3.689" cy="3.689" r="3.689" transform="translate(237.702 3796.368) rotate(-90)" fill="none" stroke="#fff" stroke-linecap="round" stroke-linejoin="round" stroke-width="1.5"/>
    </g>
    <g id="valor-de-negocio" transform="translate(175.67 12923.94)">
      <g id="Grupo_1100175" data-name="Grupo 1100175" transform="translate(9.376 13.073)">
        <g id="Grupo_1100171" data-name="Grupo 1100171" transform="translate(0 30.207)">
          <path id="Trazado_876759" data-name="Trazado 876759" d="M39.739,357.028l6.79-3.934a4.806,4.806,0,0,1,3.971-.807,47.747,47.747,0,0,0,6.712,2.063,1.886,1.886,0,0,1,1.3,2.26,1.826,1.826,0,0,1-2.259,1.3l.909.146a4.233,4.233,0,0,0,2.91-.507l6.528-3.8c5.074-2.955,5.82,1.591,4.133,2.63l-11.847,7.295a4.345,4.345,0,0,1-3.518.5l-8.593-2.3L43.6,363.706a1.285,1.285,0,0,1-1.752-.47l-2.573-4.457A1.285,1.285,0,0,1,39.739,357.028Z" transform="translate(-36.787 -352.117)" fill="#f6dccd" fill-rule="evenodd"/>
          <path id="Trazado_876760" data-name="Trazado 876760" d="M39.739,357.028l6.79-3.934a4.806,4.806,0,0,1,3.971-.807c.835.271,1.954.708,3.212,1.128l-13.153,7.594-1.287-2.229A1.285,1.285,0,0,1,39.739,357.028Z" transform="translate(-36.787 -352.117)" fill="#f1cbbc" fill-rule="evenodd"/>
          <path id="Trazado_876761" data-name="Trazado 876761" d="M20.174,374.854l5.385,9.515a.964.964,0,0,1-.363,1.31l-1.832,1.037a.964.964,0,0,1-1.31-.363l-5.385-9.515a.964.964,0,0,1,.363-1.31l1.832-1.037A.964.964,0,0,1,20.174,374.854Z" transform="translate(-16.546 -372.086)" fill="#d1d1d6" fill-rule="evenodd"/>
          <path id="Trazado_876762" data-name="Trazado 876762" d="M44.97,381.392l.953,1.684.943,1.665a.964.964,0,0,1-.36,1.308l.654-.37a.964.964,0,0,0,.363-1.31l-.946-1.671-1.9-3.355-1.9-3.359-.639-1.13a.965.965,0,0,0-1.119-.445l1.107,1.956,1.9,3.355.946,1.671Z" transform="translate(-38.509 -372.087)" fill="#b1b1b5" fill-rule="evenodd"/>
        </g>
        <g id="Grupo_1100173" data-name="Grupo 1100173" transform="translate(12.976 13.574)">
          <path id="Trazado_876763" data-name="Trazado 876763" d="M161.336,195.408l-9.115,11.047-9.116-11.047,3.038-5.524H158.3Z" transform="translate(-143.105 -189.884)" fill="#c4e2ff" fill-rule="evenodd"/>
          <path id="Trazado_876764" data-name="Trazado 876764" d="M172.741,189.884l3.039,5.524,3.039-5.524Z" transform="translate(-169.703 -189.884)" fill="#d8ecfe" fill-rule="evenodd"/>
          <path id="Trazado_876765" data-name="Trazado 876765" d="M232.015,189.884l3.038,5.524,3.039-5.524Z" transform="translate(-222.899 -189.884)" fill="#d8ecfe" fill-rule="evenodd"/>
          <path id="Trazado_876766" data-name="Trazado 876766" d="M205.417,189.884l-3.039,5.524h6.077Z" transform="translate(-196.301 -189.884)" fill="#add5fa" fill-rule="evenodd"/>
          <g id="Grupo_1100172" data-name="Grupo 1100172" transform="translate(0 5.524)">
            <path id="Trazado_876767" data-name="Trazado 876767" d="M241.131,243.759h-6.077l-3.038,11.047Z" transform="translate(-222.899 -243.759)" fill="#d8ecfe" fill-rule="evenodd"/>
            <path id="Trazado_876768" data-name="Trazado 876768" d="M152.221,254.806l-3.039-11.047h-6.077Z" transform="translate(-143.105 -243.759)" fill="#d8ecfe" fill-rule="evenodd"/>
          </g>
        </g>
        <g id="Grupo_1100174" data-name="Grupo 1100174" transform="translate(30.482 0)">
          <path id="Trazado_876769" data-name="Trazado 876769" d="M366.8,265.863h3.974v2.021a1.208,1.208,0,0,1-1.2,1.2h-1.564a1.209,1.209,0,0,1-1.205-1.2Z" transform="translate(-361.373 -244.5)" fill="#ffd947" fill-rule="evenodd"/>
          <path id="Trazado_876770" data-name="Trazado 876770" d="M354.748,237.478h6.446V240a1.208,1.208,0,0,1-1.2,1.2h-4.035a1.208,1.208,0,0,1-1.205-1.2v-2.521Z" transform="translate(-350.555 -219.025)" fill="#ffd947" fill-rule="evenodd"/>
          <path id="Trazado_876771" data-name="Trazado 876771" d="M393.379,233.9v2.887a1.208,1.208,0,0,1-1.2,1.2h1.4a1.208,1.208,0,0,0,1.2-1.2V233.9c-.459.015-.942,0-1.4,0Z" transform="translate(-384.144 -215.816)" fill="#ffd947" fill-rule="evenodd"/>
          <path id="Trazado_876772" data-name="Trazado 876772" d="M342.995,215.065h8.856v2.409a1.209,1.209,0,0,1-1.205,1.2H344.2a1.209,1.209,0,0,1-1.2-1.2Z" transform="translate(-340.007 -198.91)" fill="#ffd947" fill-rule="evenodd"/>
          <path id="Trazado_876773" data-name="Trazado 876773" d="M405.131,226.8v1.205a1.208,1.208,0,0,1-1.2,1.2h1.444a1.209,1.209,0,0,0,1.165-1.2V226.8h-1.4Z" transform="translate(-394.691 -209.445)" fill="#ffd947" fill-rule="evenodd"/>
          <path id="Trazado_876774" data-name="Trazado 876774" d="M321.268,57.491a7.416,7.416,0,0,1,7.416,7.416c0,4.119-2.631,3.872-2.988,9.943H316.84c-.357-6.071-2.988-5.825-2.988-9.943a7.416,7.416,0,0,1,7.416-7.416Z" transform="translate(-313.852 -57.491)" fill="#ffd947" fill-rule="evenodd"/>
          <path id="Trazado_876775" data-name="Trazado 876775" d="M379.337,57.524a7.417,7.417,0,0,1,6.714,7.383c0,3.826-2.27,3.885-2.879,8.74-.047.372-.084.772-.109,1.2h1.4c.357-6.071,2.988-5.825,2.988-9.943a7.416,7.416,0,0,0-7.416-7.416Q379.684,57.491,379.337,57.524Z" transform="translate(-372.623 -57.491)" fill="#ffd947" fill-rule="evenodd"/>
        </g>
      </g>
      <path id="Trazado_876776" data-name="Trazado 876776" d="M58.887,16l-1.516.873a.8.8,0,0,1-.409.11.809.809,0,0,1-.708-.41.818.818,0,0,1,.3-1.121l1.512-.873A.821.821,0,0,1,58.887,16Zm-6.73-4.341.871-1.513a.822.822,0,0,1,1.425.82l-.876,1.513a.82.82,0,1,1-1.42-.82Zm-16.8,3.221a.822.822,0,0,1,1.122-.3l1.512.872a.819.819,0,0,1-.409,1.531.812.812,0,0,1-.409-.11L35.665,16a.82.82,0,0,1-.3-1.121ZM40.1,10.962a.82.82,0,1,1,1.42-.82l.871,1.513a.82.82,0,0,1-.708,1.23.825.825,0,0,1-.712-.41Zm6.354-.4V8.819a.821.821,0,0,1,1.642,0v1.747a.821.821,0,0,1-1.642,0Zm2.922,10.88v-.9a.9.9,0,1,1,.9.9Zm3.394,2.614a6.088,6.088,0,0,0,1.1-3.572,6.6,6.6,0,0,0-13.195,0,6.088,6.088,0,0,0,1.1,3.572,11.991,11.991,0,0,1,1.829,5.551h1.565V23.087h-.9a2.544,2.544,0,1,1,2.542-2.544v.9h.919v-.9a2.544,2.544,0,1,1,2.547,2.544h-.9v6.525h1.569a12,12,0,0,1,1.824-5.551ZM48.056,36.843H46.491a.392.392,0,0,1-.385-.385v-.386h2.335v.386a.392.392,0,0,1-.385.385Zm1.237-2.411H45.254a.387.387,0,0,1-.38-.384v-.386h4.8v.386A.391.391,0,0,1,49.293,34.432Zm1.589-3.18v.385a.388.388,0,0,1-.385.385H44.051a.391.391,0,0,1-.385-.385v-.385Zm-3.148-1.641h-.919V23.087h.919Zm-2.561-8.165h-.9a.9.9,0,1,1,.9-.9Zm2.1-9.194a8.244,8.244,0,0,0-8.236,8.236,7.725,7.725,0,0,0,1.324,4.4,10.65,10.65,0,0,1,1.666,5.57v1.178a2.027,2.027,0,0,0,1.2,1.85v.561a2.031,2.031,0,0,0,1.232,1.865v.545a2.028,2.028,0,0,0,2.027,2.025h1.565a2.028,2.028,0,0,0,2.027-2.025v-.545a2.035,2.035,0,0,0,1.237-1.865v-.561a2.027,2.027,0,0,0,1.2-1.85V30.461a10.626,10.626,0,0,1,1.661-5.572,7.682,7.682,0,0,0,1.329-4.4A8.247,8.247,0,0,0,47.276,12.253ZM39.2,31.35H35.9l1.651-3ZM27.8,32.991l1.858,6.747-5.57-6.747Zm-.761-1.641h-3.3l1.651-3Zm1.386-.881,1.651-3h-3.3Zm4.424-3,1.656,3,1.646-3ZM29.816,31.35l1.651-3,1.651,3Zm1.651,8.774,1.964-7.134H29.508Zm3.663-7.134h3.712l-5.565,6.747ZM30.837,43.74,21.719,32.692a.83.83,0,0,1-.087-.918l3.038-5.524a.828.828,0,0,1,.722-.425H37.547a.82.82,0,0,1,.717.425L41.3,31.775a.813.813,0,0,1-.087.918L32.1,43.74a.832.832,0,0,1-.635.3.814.814,0,0,1-.631-.3ZM12.515,48.024a.654.654,0,1,1-.741-.553A.656.656,0,0,1,12.515,48.024ZM42.9,46.846a1.288,1.288,0,0,0,.255-1.6c-.462-.769-1.82-.622-3.543.381l-6.532,3.8a5.011,5.011,0,0,1-3.452.608L28.81,49.9a.074.074,0,0,1-.014,0l-.014,0c-1.025-.209-1.969-.48-2.97-.765-.453-.13-.924-.263-1.4-.391a.82.82,0,0,1,.424-1.584c.491.131.968.267,1.425.4.958.274,1.863.532,2.811.727.674.076,1.093-.166,1.242-.718a1.057,1.057,0,0,0-.722-1.252,34.215,34.215,0,0,1-5.382-1.6c-.525-.191-.982-.355-1.372-.483-.929-.3-1.887-.086-3.307.737l-4.66,2.7,2.989,5.289,1.1-.633a.818.818,0,0,1,.621-.082l8.6,2.3a3.537,3.537,0,0,0,2.874-.4ZM17.622,56.158a.142.142,0,0,0,.053-.193l-5.382-9.515a.135.135,0,0,0-.087-.066.145.145,0,0,0-.039,0,.126.126,0,0,0-.067.017l-1.834,1.036a.152.152,0,0,0-.053.193L15.6,57.141a.145.145,0,0,0,.193.053ZM38.779,44.206l-6.528,3.8a3.552,3.552,0,0,1-.428.213c.024-.077.053-.156.072-.236a2.715,2.715,0,0,0-1.844-3.252.937.937,0,0,0-.106-.028,32.5,32.5,0,0,1-5.18-1.536c-.52-.187-1.006-.364-1.425-.5a5.6,5.6,0,0,0-4.636.879l-4.645,2.69-.342-.6a1.78,1.78,0,0,0-2.426-.672L9.458,46a1.783,1.783,0,0,0-.669,2.428l5.382,9.515a1.787,1.787,0,0,0,2.431.673l1.829-1.037a1.784,1.784,0,0,0,.674-2.428l-.438-.773.814-.469,8.265,2.214a5.552,5.552,0,0,0,1.439.194,5.156,5.156,0,0,0,2.725-.785l11.847-7.294a2.922,2.922,0,0,0,.8-3.846c-.371-.618-1.882-2.46-5.777-.191Z" fill="#00223d" fill-rule="evenodd"/>
    </g>
  </g>
</svg>
