<svg xmlns="http://www.w3.org/2000/svg" width="67" height="59.184" viewBox="0 0 67 59.184">
  <g id="Grupo_1101897" data-name="Grupo 1101897" transform="translate(-180 -17912.838)">
    <g id="Grupo_1100170" data-name="Grupo 1100170" transform="translate(0 14162.686)">
      <path id="_12068" data-name="12068" d="M66.039,71.828c-6.861-.947-14.108-.716-20.351,2.283C37.03,78.27,31.344,87.7,31.126,97.3s4.784,19.038,12.512,24.741a35.81,35.81,0,0,0,27.37,6.013c9.53-1.727,18.474-7.326,23.445-15.638,3.187-5.33,4.677-11.911,2.916-17.867a24.409,24.409,0,0,0-5.793-9.521A42.8,42.8,0,0,0,66.039,71.828Z" transform="translate(148.881 3680.691)" fill="#26aab7"/>
      <path id="Trazado_873155" data-name="Trazado 873155" d="M303.26,44.546a1.582,1.582,0,1,0-.106-2.456A1.573,1.573,0,0,0,303.26,44.546Z" transform="translate(138.287 4055.916) rotate(-90)" fill="#7d6eb2"/>
      <path id="Trazado_873156" data-name="Trazado 873156" d="M321.56,66.974a3.448,3.448,0,1,0-1.687-4.918A3.468,3.468,0,0,0,321.56,66.974Z" transform="translate(128.241 4079.581) rotate(-90)" fill="#ffd947"/>
      <circle id="Elipse_11521" data-name="Elipse 11521" cx="3.689" cy="3.689" r="3.689" transform="translate(237.702 3796.368) rotate(-90)" fill="none" stroke="#fff" stroke-linecap="round" stroke-linejoin="round" stroke-width="1.5"/>
    </g>
    <g id="negocio" transform="translate(178.674 17873.967)">
      <g id="Grupo_1100228" data-name="Grupo 1100228" transform="translate(6.529 44.17)">
        <path id="Trazado_876895" data-name="Trazado 876895" d="M68.53,316.126H15.757L26.511,297.5H57.776Z" transform="translate(-15.757 -270.172)" fill="#62529b"/>
        <path id="Trazado_876896" data-name="Trazado 876896" d="M191.141,338.673a1.325,1.325,0,0,0-1.325-1.325h-1.128a5.207,5.207,0,1,0-4.685,0h-1.128a2.963,2.963,0,0,1-1.325,3.976,1.325,1.325,0,0,0,1.325,1.325h6.94a2.964,2.964,0,0,1,1.325-3.976Z" transform="translate(-162.606 -296.802)" fill="#39697c"/>
        <path id="Trazado_876897" data-name="Trazado 876897" d="M142.983,185.354H111.717l8.172-14.154h14.922Z" transform="translate(-100.963 -158.026)" fill="#59836b"/>
        <path id="Trazado_876898" data-name="Trazado 876898" d="M198.559,66.815H183.347l7.606-13.174Z" transform="translate(-164.566 -53.641)" fill="#ffd947"/>
        <path id="Trazado_876899" data-name="Trazado 876899" d="M251.825,116.873a2.536,2.536,0,0,0-2.285,3.636l-5.513,5.327a2.532,2.532,0,0,0-3.548.885l-3.969-1.8a2.536,2.536,0,1,0-4.754,1.528l-4.761,4.6a2.541,2.541,0,1,0,1.04.865l4.642-4.485a2.534,2.534,0,0,0,3.633-1.123l3.834,1.735a2.536,2.536,0,1,0,4.792-1.217l5.49-5.3a2.536,2.536,0,1,0,1.4-4.65Zm-25.871,17.683a1.191,1.191,0,1,1,1.191-1.191A1.193,1.193,0,0,1,225.954,134.556Zm8.044-8.1a1.191,1.191,0,1,1,1.192-1.191A1.193,1.193,0,0,1,234,126.46Zm8.68,2.713a1.191,1.191,0,1,1,1.192-1.191A1.193,1.193,0,0,1,242.678,129.173Zm9.147-8.573a1.191,1.191,0,1,1,1.191-1.191A1.193,1.193,0,0,1,251.825,120.6Z" transform="translate(-200.147 -109.787)" fill="#26aab7"/>
        <path id="Trazado_876900" data-name="Trazado 876900" d="M61.56,101.525V62.193h-3l4.83-6.294,4.83,6.294H65.184v39.332" transform="translate(-53.761 -55.646)" fill="#aee6e6" stroke="#62529b" stroke-width="1"/>
        <circle id="Elipse_11859" data-name="Elipse 11859" cx="1.864" cy="1.864" r="1.864" transform="translate(24.738 24.002)" fill="#39697c"/>
        <circle id="Elipse_11860" data-name="Elipse 11860" cx="1.864" cy="1.864" r="1.864" transform="translate(32.782 15.906)" fill="#ffd947"/>
        <circle id="Elipse_11861" data-name="Elipse 11861" cx="1.864" cy="1.864" r="1.864" transform="translate(41.463 18.619)" fill="#39697c"/>
        <circle id="Elipse_11862" data-name="Elipse 11862" cx="1.864" cy="1.864" r="1.864" transform="translate(50.61 10.047)" fill="#ffd947"/>
        <g id="Grupo_1100227" data-name="Grupo 1100227" transform="translate(21.286 30.689)">
          <path id="Trazado_876901" data-name="Trazado 876901" d="M222.625,444.644H216.64a1.143,1.143,0,1,1,0-2.286h5.985a1.143,1.143,0,1,1,0,2.286Z" transform="translate(-214.4 -429.486)" fill="#f7eae2"/>
          <path id="Trazado_876902" data-name="Trazado 876902" d="M222.625,424.247H216.64a1.143,1.143,0,1,1,0-2.286h5.985a1.143,1.143,0,0,1,0,2.286Z" transform="translate(-214.4 -411.374)" fill="#f7eae2"/>
          <circle id="Elipse_11863" data-name="Elipse 11863" cx="5.207" cy="5.207" r="5.207" fill="#ffd947"/>
          <path id="Trazado_876903" data-name="Trazado 876903" d="M235.149,333.972a2.013,2.013,0,0,0-1.767-1.982V330.77h1.406v-1.345h-1.406v-1.933h-1.345v1.943a1.942,1.942,0,0,0,0,3.871v1.322H230.5v1.345h1.537v2.1h1.345v-2.12A2.013,2.013,0,0,0,235.149,333.972Zm-3.551-2.6a.6.6,0,0,1,.439-.572v1.144A.6.6,0,0,1,231.6,331.37Zm1.784,3.207v-1.211a.646.646,0,0,1,0,1.211Z" transform="translate(-227.502 -327.492)" fill="#7d6eb2"/>
        </g>
      </g>
      <g id="Grupo_1100229" data-name="Grupo 1100229" transform="translate(5.364 42.974)">
        <path id="Trazado_876904" data-name="Trazado 876904" d="M0,0H3.389V1.345H0Z" transform="matrix(0.5, 0.866, -0.866, 0.5, 37.068, 11.113)"/>
        <path id="Trazado_876905" data-name="Trazado 876905" d="M0,0H10.553V1.345H0Z" transform="matrix(-0.5, -0.866, 0.866, -0.5, 34.76, 9.811)"/>
        <path id="Trazado_876906" data-name="Trazado 876906" d="M59,54.471a2.536,2.536,0,0,0-2.285,3.636L51.2,63.433a2.532,2.532,0,0,0-3.548.885l-3.969-1.8a2.536,2.536,0,1,0-4.754,1.528l-4.761,4.6a2.534,2.534,0,0,0-3.482,3H18.624v-.381l7.167-12.413H41.5L32.871,43.9,18.624,68.577V52.211h3.724L16.155,44.14,9.961,52.211h3.694V77.182L5.364,91.543H60.378L46.2,66.992l-1.165.672,2.3,3.983H35.572a2.526,2.526,0,0,0-.36-2.132l4.642-4.485a2.534,2.534,0,0,0,3.633-1.123l3.834,1.735a2.536,2.536,0,1,0,4.792-1.217l5.49-5.3a2.536,2.536,0,1,0,1.4-4.65ZM32.871,46.589l6.3,10.919H26.567Zm.26,23.181a1.191,1.191,0,1,1-1.191,1.191A1.193,1.193,0,0,1,33.131,69.771ZM36.511,89.7a.471.471,0,0,1-.47.47H30.055a.47.47,0,0,1,0-.941H36.04A.471.471,0,0,1,36.511,89.7Zm-.47-1.815H30.055a.47.47,0,0,1,0-.941H36.04a.47.47,0,0,1,0,.941Zm-3.018-2.458a4.535,4.535,0,1,1,4.535-4.535A4.54,4.54,0,0,1,33.022,85.422Zm-1.41-12.43a2.531,2.531,0,0,0,.738.383v1.673a5.875,5.875,0,0,0-2.759,10.609,1.811,1.811,0,0,0-.944,2.9,1.8,1.8,0,0,0-.334,1.645H18.624V72.992ZM12.689,50.866l3.466-4.517,3.466,4.517H17.279V71.647h-.04v1.345h.04V90.2H15V50.866Zm.967,29.006V90.2H7.693ZM58.048,90.2H37.783a1.8,1.8,0,0,0-.334-1.645,1.812,1.812,0,0,0-.982-2.905,5.875,5.875,0,0,0-2.772-10.6V73.435a2.527,2.527,0,0,0,.955-.443H48.115ZM41.175,64.058a1.191,1.191,0,1,1,1.191-1.191A1.193,1.193,0,0,1,41.175,64.058Zm8.68,2.713a1.191,1.191,0,1,1,1.191-1.191A1.193,1.193,0,0,1,49.855,66.771ZM59,58.2a1.191,1.191,0,1,1,1.192-1.191A1.193,1.193,0,0,1,59,58.2Z" transform="translate(-5.364 -43.796)"/>
        <path id="Trazado_876907" data-name="Trazado 876907" d="M55.863,139.29h1.345V149.5H55.863Z" transform="translate(-50.204 -128.497)"/>
        <path id="Trazado_876908" data-name="Trazado 876908" d="M55.863,243.928h1.345v2.783H55.863Z" transform="translate(-50.204 -221.408)"/>
      </g>
    </g>
  </g>
</svg>
