<svg xmlns="http://www.w3.org/2000/svg" width="140" height="140" viewBox="0 0 140 140">
  <g id="Grupo_1101898" data-name="Grupo 1101898" transform="translate(-1088 -19280)">
    <rect id="Rectángulo_5062" data-name="Rectángulo 5062" width="140" height="140" rx="70" transform="translate(1088 19280)" fill="#ffd800"/>
    <g id="Page-1" transform="translate(1112 19304)">
      <g id="_014---Soda-and-Burger" data-name="014---Soda-and-Burger">
        <ellipse id="Oval" cx="7.657" cy="5.36" rx="7.657" ry="5.36" transform="translate(7.138 27.013) rotate(-37.604)" fill="#a4c400"/>
        <path id="Shape" d="M80.646,112.809c-1.268-1.648-3.71-2.018-6.21-1.213a3.961,3.961,0,0,1,1.615,1.213c1.808,2.345.556,6.339-2.8,8.921a10.268,10.268,0,0,1-3.128,1.639,8.08,8.08,0,0,0,7.728-1.639C81.2,119.148,82.451,115.154,80.646,112.809Z" transform="translate(-58.095 -90.894)" fill="#90ac00"/>
        <path id="Shape-2" data-name="Shape" d="M107.224,440.321v.077H45.43v-.077a7.659,7.659,0,0,1-7.659-7.659v-4.6H51.94l1.608,1.838a1.532,1.532,0,0,0,2.236.061l1.9-1.9H89.853v4.6a7.659,7.659,0,0,1-7.659,7.659Z" transform="translate(-31.644 -349.942)" fill="#ff9801"/>
        <path id="Shape-3" data-name="Shape" d="M256,440.321h4.6a7.659,7.659,0,0,0,7.659-7.659v-4.6h-4.6v4.6A7.659,7.659,0,0,1,256,440.321Z" transform="translate(-210.045 -349.942)" fill="#f57c00"/>
        <path id="Rectangle-path" d="M393.149,495.213h4.6v1.532h-4.6Z" transform="translate(-322.164 -404.835)" fill="#f57c00"/>
        <path id="Shape-4" data-name="Shape" d="M95.183,344.131v6.127H73.737l-11.091,11.09a1.532,1.532,0,0,1-2.236-.061L58.8,359.449l-8.042-9.191h-4.6v-6.127Z" transform="translate(-38.505 -281.326)" fill="#ffdc00"/>
        <path id="Shape-5" data-name="Shape" d="M118.348,387.509l1.072,1.226a1.532,1.532,0,0,0,2.236.061l11.091-11.09h-4.6Z" transform="translate(-97.515 -308.772)" fill="#fec108"/>
        <path id="Rectangle-path-2" data-name="Rectangle-path" d="M289.574,344.131h4.6v6.127h-4.6Z" transform="translate(-237.492 -281.326)" fill="#fec108"/>
        <path id="Shape-6" data-name="Shape" d="M84.522,222.889a14.838,14.838,0,0,1-.107,1.854,3.063,3.063,0,0,1-3.048,2.742H32.532a3.063,3.063,0,0,1-3.048-2.742,14.838,14.838,0,0,1-.107-1.854c0-11.841,12.347-21.446,27.573-21.446a35.238,35.238,0,0,1,3.845.214c8.655.934,16.023,5.009,20.159,10.692a18.333,18.333,0,0,1,3.293,7.46,17.045,17.045,0,0,1,.276,3.079Z" transform="translate(-24.781 -164.679)" fill="#ff9801"/>
        <path id="Shape-7" data-name="Shape" d="M197.642,219.81a18.332,18.332,0,0,0-3.293-7.46c-4.136-5.683-11.5-9.758-20.159-10.692a35.284,35.284,0,0,0-3.845-.214c-.766,0-1.512.041-2.258.089.506.034,1.011.071,1.507.126,8.655.934,16.023,5.009,20.159,10.692a18.337,18.337,0,0,1,3.293,7.46,17.061,17.061,0,0,1,.276,3.079,14.875,14.875,0,0,1-.107,1.854,3.064,3.064,0,0,1-3.048,2.742h4.6a3.063,3.063,0,0,0,3.048-2.742,14.84,14.84,0,0,0,.107-1.854,17.045,17.045,0,0,0-.276-3.079Z" transform="translate(-138.176 -164.679)" fill="#f57c00"/>
        <path id="Shape-8" data-name="Shape" d="M31.355,386.9H17.186a4.6,4.6,0,1,1,0-9.191h6.127Z" transform="translate(-11.058 -308.772)" fill="#825a2c"/>
        <path id="Shape-9" data-name="Shape" d="M50.759,377.7h-4.6l8.042,9.191h4.6Z" transform="translate(-38.505 -308.772)" fill="#624421"/>
        <path id="Shape-10" data-name="Shape" d="M251.993,201.443l-2.849,39.828H227.071a4.6,4.6,0,0,0-3.416-7.659h-1.532v-6.127h-.092a3.063,3.063,0,0,0,3.048-2.742,14.837,14.837,0,0,0,.107-1.854c0-10.83-10.325-19.776-23.728-21.231l-.015-.214Z" transform="translate(-165.445 -164.679)" fill="#f5f5f5"/>
        <path id="Shape-11" data-name="Shape" d="M440.483,201.443l-2.849,39.828h4.6l2.849-39.828Z" transform="translate(-358.53 -164.679)" fill="#cfd8dc"/>
        <path id="Shape-12" data-name="Shape" d="M183.649,382.3a4.612,4.612,0,0,1-4.6,4.6H146.885l9.191-9.191h22.978A4.6,4.6,0,0,1,183.649,382.3Z" transform="translate(-120.844 -308.772)" fill="#825a2c"/>
        <path id="Shape-13" data-name="Shape" d="M305.81,379.053a4.585,4.585,0,0,0-3.247-1.348h-4.6a4.6,4.6,0,0,1,3.416,7.659,4.5,4.5,0,0,1-3.416,1.532h4.6a4.593,4.593,0,0,0,3.247-7.843Z" transform="translate(-244.353 -308.772)" fill="#624421"/>
        <path id="Shape-14" data-name="Shape" d="M314.329,419.672l-.475,6.679a7.659,7.659,0,0,1-7.644,7.108H281.18a7.659,7.659,0,0,0,7.659-7.659v-4.6a4.5,4.5,0,0,0,3.416-1.532Z" transform="translate(-230.63 -343.08)" fill="#f44335"/>
        <path id="Shape-15" data-name="Shape" d="M401.268,419.672l-.475,6.679a7.659,7.659,0,0,1-7.644,7.108h4.6a7.659,7.659,0,0,0,7.644-7.108l.475-6.679Z" transform="translate(-322.164 -343.08)" fill="#c81e1e"/>
        <path id="Shape-16" data-name="Shape" d="M249.328,142.689l-.766,10.723h-50.55l-.766-10.723Z" transform="translate(-162.014 -116.648)" fill="#f44335"/>
        <path id="Shape-17" data-name="Shape" d="M454.012,142.689l-.766,10.723h4.6l.766-10.723Z" transform="translate(-371.293 -116.648)" fill="#c81e1e"/>
        <rect id="Rectangle-path-3" data-name="Rectangle-path" width="58.21" height="7.659" rx="3.83" transform="translate(32.168 18.382)" fill="#9e9e9e"/>
        <path id="Shape-18" data-name="Shape" d="M462.038,100.721h-4.6a3.073,3.073,0,0,1,3.064,3.064v1.532a3.073,3.073,0,0,1-3.064,3.064h4.6a3.073,3.073,0,0,0,3.064-3.064v-1.532A3.073,3.073,0,0,0,462.038,100.721Z" transform="translate(-374.724 -82.339)" fill="#707070"/>
        <circle id="Oval-2" data-name="Oval" cx="4.596" cy="4.596" r="4.596" transform="translate(70.464 42.891)" fill="#00bcd4"/>
        <path id="Shape-19" data-name="Shape" d="M320.149,256.4a4.6,4.6,0,0,1-4.6,4.6,1.661,1.661,0,0,1-.276-.015,18.332,18.332,0,0,0-3.293-7.46,4.542,4.542,0,0,1,3.569-1.716A4.6,4.6,0,0,1,320.149,256.4Z" transform="translate(-255.812 -205.848)" fill="#00bcd4"/>
        <circle id="Oval-3" data-name="Oval" cx="3.064" cy="3.064" r="3.064" transform="translate(67.401 62.805)" fill="#00bcd4"/>
        <path id="Shape-20" data-name="Shape" d="M347.657,11.457a3.073,3.073,0,0,1-3.064,3.064H332.339a3.073,3.073,0,0,0-3.064,3.064v7.659h-6.127V16.052a7.659,7.659,0,0,1,7.659-7.659h13.787A3.073,3.073,0,0,1,347.657,11.457Z" transform="translate(-264.938 -6.861)" fill="#00bcd4"/>
        <g id="Grupo_22705" data-name="Grupo 22705">
          <circle id="Oval-4" data-name="Oval" cx="1.532" cy="1.532" r="1.532" transform="translate(13.786 47.487)"/>
          <circle id="Oval-5" data-name="Oval" cx="1.532" cy="1.532" r="1.532" transform="translate(19.914 42.891)"/>
          <circle id="Oval-6" data-name="Oval" cx="1.532" cy="1.532" r="1.532" transform="translate(35.232 41.36)"/>
          <circle id="Oval-7" data-name="Oval" cx="1.532" cy="1.532" r="1.532" transform="translate(9.191 55.146)"/>
          <circle id="Oval-8" data-name="Oval" cx="1.532" cy="1.532" r="1.532" transform="translate(16.85 53.614)"/>
          <circle id="Oval-9" data-name="Oval" cx="1.532" cy="1.532" r="1.532" transform="translate(22.977 49.019)"/>
          <path id="Shape-21" data-name="Shape" d="M91.512,16.85H70.066V10.723A1.532,1.532,0,0,1,71.6,9.191H83.852a4.6,4.6,0,0,0,0-9.191H70.066a9.2,9.2,0,0,0-9.191,9.191V16.85H39.429a4.6,4.6,0,0,0-4.6,4.6v1.532a4.584,4.584,0,0,0,3.151,4.34l.571,8c-.726-.043-1.451-.087-2.191-.087a36.293,36.293,0,0,0-6.613.622l-3.716-4.825a10.571,10.571,0,0,0,2.71-4.289,6.251,6.251,0,0,0-.784-5.766,6.255,6.255,0,0,0-5.374-2.229,10.587,10.587,0,0,0-4.836,1.532l-.994-1.3a1.532,1.532,0,1,0-2.426,1.869l1,1.3a10.571,10.571,0,0,0-2.71,4.289A6.256,6.256,0,0,0,13.4,32.2,6.155,6.155,0,0,0,18.4,34.436c.126,0,.251,0,.378-.009a10.587,10.587,0,0,0,4.835-1.532l2.871,3.727C15.29,39.828,7.261,48.283,7.261,58.21a16.064,16.064,0,0,0,.116,2.017,4.6,4.6,0,0,0,2.947,3.811V67.4A6.115,6.115,0,0,0,8.792,79.438v3.281a9.139,9.139,0,0,0,2.425,6.2H5.729a1.532,1.532,0,0,0,0,3.064H94.575a1.532,1.532,0,0,0,0-3.064H86.544a9.158,9.158,0,0,0,2.406-5.538l4.006-56.065a4.583,4.583,0,0,0,3.151-4.336V21.446a4.6,4.6,0,0,0-4.6-4.6ZM18.635,31.367a3.344,3.344,0,0,1-2.808-1.037,3.332,3.332,0,0,1-.294-2.982A7.47,7.47,0,0,1,17.218,24.6l.849,1.1a1.532,1.532,0,1,0,2.426-1.869l-.849-1.1a7.417,7.417,0,0,1,3.084-.919h.237a3.183,3.183,0,0,1,2.57,1.045,3.325,3.325,0,0,1,.288,2.979,8.082,8.082,0,0,1-2.8,3.793,8.071,8.071,0,0,1-4.384,1.737Zm45.3-22.176a6.127,6.127,0,0,1,6.127-6.127H83.852a1.532,1.532,0,0,1,0,3.064H71.6a4.6,4.6,0,0,0-4.6,4.6V16.85H63.939Zm25.38,26.041h-47.7l-.547-7.659H89.866ZM86.472,75.06H68.316a6.106,6.106,0,0,0-5.91-7.659v-3.37a4.574,4.574,0,0,0,2.944-3.787,16.125,16.125,0,0,0,.119-2.034c0-.579-.057-1.147-.11-1.716a6.118,6.118,0,0,0-1.422-12.071,6.047,6.047,0,0,0-3.37,1.049A27.748,27.748,0,0,0,50.823,38.3H89.1Zm-24.065-4.6a3.064,3.064,0,0,1,0,6.127H33.936l6.127-6.127Zm1.532,12.255V79.438a6.093,6.093,0,0,0,2.479-1.314H86.253l-.358,5.035a6.158,6.158,0,0,1-6.117,5.688h-18.2A9.143,9.143,0,0,0,63.939,82.719ZM62.365,47.947a3.041,3.041,0,1,1,2.468,5.5,19.814,19.814,0,0,0-2.468-5.5ZM28.489,39.232l3.6,4.674a1.532,1.532,0,0,0,2.426-1.87l-2.636-3.422a33.852,33.852,0,0,1,4.487-.317c14.359,0,26.041,8.934,26.041,19.914a13.758,13.758,0,0,1-.1,1.685,1.532,1.532,0,0,1-1.532,1.379H11.948a1.541,1.541,0,0,1-1.532-1.4,13.62,13.62,0,0,1-.092-1.664c0-8.885,7.645-16.418,18.164-18.978Zm-15.1,25.105H59.343V67.4H39.429a1.532,1.532,0,0,0-1.083.449l-11.1,11.1-1.578-1.8-.047-.055L17.6,67.923c-.011-.012-.028-.017-.038-.029a1.511,1.511,0,0,0-.36-.266c-.049-.028-.087-.07-.139-.093a1.5,1.5,0,0,0-.614-.133H13.388ZM7.261,73.528a3.064,3.064,0,0,1,3.064-3.064h5.432l5.361,6.127H10.324A3.064,3.064,0,0,1,7.261,73.528ZM17.984,88.847a6.127,6.127,0,0,1-6.127-6.127V79.655H23.8l1.146,1.31a3.072,3.072,0,0,0,2.2,1.043h.1a3.073,3.073,0,0,0,2.168-.9l1.451-1.455h30v3.064a6.127,6.127,0,0,1-6.127,6.127,1.507,1.507,0,0,0-.352.07H18.336A1.507,1.507,0,0,0,17.984,88.847Zm75.06-65.869a1.532,1.532,0,0,1-1.532,1.532H39.429A1.532,1.532,0,0,1,37.9,22.978V21.446a1.532,1.532,0,0,1,1.532-1.532H91.512a1.532,1.532,0,0,1,1.532,1.532Z" transform="translate(-4.197)"/>
          <path id="Shape-22" data-name="Shape" d="M388.029,226.623a6.127,6.127,0,1,0,6.127,6.127A6.127,6.127,0,0,0,388.029,226.623Zm0,9.191a3.064,3.064,0,1,1,3.064-3.064A3.064,3.064,0,0,1,388.029,235.814Z" transform="translate(-312.969 -185.263)"/>
          <path id="Shape-23" data-name="Shape" d="M369.71,335.738a4.6,4.6,0,1,0,4.6,4.6A4.6,4.6,0,0,0,369.71,335.738Zm0,6.127a1.532,1.532,0,1,1,1.532-1.532A1.532,1.532,0,0,1,369.71,341.865Z" transform="translate(-299.246 -274.465)"/>
        </g>
      </g>
    </g>
  </g>
</svg>
