<svg xmlns="http://www.w3.org/2000/svg" width="67" height="59.184" viewBox="0 0 67 59.184">
  <g id="Grupo_1101897" data-name="Grupo 1101897" transform="translate(-180 -19674.838)">
    <g id="Grupo_1100242" data-name="Grupo 1100242" transform="translate(0 15924.686)">
      <path id="_12068" data-name="12068" d="M66.039,71.828c-6.861-.947-14.108-.716-20.351,2.283C37.03,78.27,31.344,87.7,31.126,97.3s4.784,19.038,12.512,24.741a35.81,35.81,0,0,0,27.37,6.013c9.53-1.727,18.474-7.326,23.445-15.638,3.187-5.33,4.677-11.911,2.916-17.867a24.409,24.409,0,0,0-5.793-9.521A42.8,42.8,0,0,0,66.039,71.828Z" transform="translate(148.881 3680.691)" fill="#26aab7"/>
      <path id="Trazado_873155" data-name="Trazado 873155" d="M303.26,44.546a1.582,1.582,0,1,0-.106-2.456A1.573,1.573,0,0,0,303.26,44.546Z" transform="translate(138.287 4055.916) rotate(-90)" fill="#7d6eb2"/>
      <path id="Trazado_873156" data-name="Trazado 873156" d="M321.56,66.974a3.448,3.448,0,1,0-1.687-4.918A3.468,3.468,0,0,0,321.56,66.974Z" transform="translate(128.241 4079.581) rotate(-90)" fill="#ffd947"/>
      <circle id="Elipse_11521" data-name="Elipse 11521" cx="3.689" cy="3.689" r="3.689" transform="translate(237.702 3796.368) rotate(-90)" fill="none" stroke="#fff" stroke-linecap="round" stroke-linejoin="round" stroke-width="1.5"/>
    </g>
    <g id="marketing" transform="translate(187.55 19677.941)">
      <g id="Grupo_1100246" data-name="Grupo 1100246" transform="translate(0.818 0.815)">
        <g id="Grupo_1100243" data-name="Grupo 1100243">
          <path id="Trazado_876909" data-name="Trazado 876909" d="M33.141,51.966a3.15,3.15,0,1,1-3.15,3.15A3.15,3.15,0,0,1,33.141,51.966ZM51.973,33.134a3.15,3.15,0,1,1,3.15,3.15A3.15,3.15,0,0,1,51.973,33.134Zm-43.964,0a3.15,3.15,0,1,1,3.15,3.15A3.15,3.15,0,0,1,8.009,33.134ZM33.141,8a3.15,3.15,0,1,1-3.15,3.15A3.15,3.15,0,0,1,33.141,8Z" transform="translate(-8.009 -8.002)" fill="#ffd947" fill-rule="evenodd"/>
          <path id="Trazado_876910" data-name="Trazado 876910" d="M56.583,51.966a3.15,3.15,0,1,1-.507,6.259,3.15,3.15,0,0,0,0-6.219,3.173,3.173,0,0,1,.507-.041ZM78.058,30.025a3.15,3.15,0,1,1,0,6.219,3.15,3.15,0,0,0,0-6.219Zm-43.964,0a3.15,3.15,0,1,1,0,6.219,3.15,3.15,0,0,0,0-6.219ZM56.583,8a3.15,3.15,0,1,1-.507,6.259,3.15,3.15,0,0,0,0-6.219A3.162,3.162,0,0,1,56.583,8Z" transform="translate(-31.451 -8.002)" fill="#ffd064" fill-rule="evenodd"/>
          <path id="Trazado_876911" data-name="Trazado 876911" d="M18.4,20.954a5.25,5.25,0,1,1,5.25,5.25A5.25,5.25,0,0,1,18.4,20.954Zm47.55,37.725a5.25,5.25,0,1,1-5.25-5.25A5.25,5.25,0,0,1,65.955,58.679ZM23.317,63.592a5.25,5.25,0,1,1,5.25-5.25A5.25,5.25,0,0,1,23.317,63.592Zm37.725-47.55a5.25,5.25,0,1,1-5.25,5.25A5.25,5.25,0,0,1,61.042,16.042Z" transform="translate(-17.048 -14.923)" fill="#aee6e6" fill-rule="evenodd"/>
          <path id="Trazado_876912" data-name="Trazado 876912" d="M65.214,15.728q.25-.024.507-.024a5.25,5.25,0,0,1,0,10.5q-.256,0-.507-.024a5.25,5.25,0,0,0,0-10.452ZM108.02,58.679a5.25,5.25,0,0,1-5.25,5.25q-.256,0-.507-.024a5.25,5.25,0,0,0,0-10.451q.25-.024.507-.024a5.25,5.25,0,0,1,5.25,5.25ZM65.383,63.592q-.256,0-.507-.024a5.25,5.25,0,0,0,0-10.451q.25-.024.507-.024a5.25,5.25,0,1,1,0,10.5Zm37.725-47.55a5.25,5.25,0,1,1,0,10.5q-.256,0-.507-.024a5.25,5.25,0,0,0,0-10.451Q102.851,16.042,103.108,16.042Z" transform="translate(-59.113 -14.923)" fill="#00e499" fill-rule="evenodd"/>
        </g>
        <g id="Grupo_1100244" data-name="Grupo 1100244" transform="translate(5.184 4.951)">
          <circle id="Elipse_11864" data-name="Elipse 11864" cx="14.104" cy="14.104" r="14.104" transform="translate(0 19.943) rotate(-45)" fill="#aee6e6"/>
          <path id="Trazado_876913" data-name="Trazado 876913" d="M247.023,114.471a14.1,14.1,0,0,1,0,28.208c-.341,0-.679-.013-1.013-.037a14.1,14.1,0,0,0,0-28.134C246.345,114.484,246.682,114.471,247.023,114.471Z" transform="translate(-227.075 -108.632)" fill="#26aab7" fill-rule="evenodd"/>
        </g>
        <g id="Grupo_1100245" data-name="Grupo 1100245" transform="translate(16.265 16.863)">
          <path id="Trazado_876914" data-name="Trazado 876914" d="M273.082,199.645a1.823,1.823,0,0,0-2.579,0c-.021.021-.195.2-.214.217l2.576,2.576c.022-.02.2-.193.217-.214A1.823,1.823,0,0,0,273.082,199.645Z" transform="translate(-259.975 -196.607)" fill="#a79ba7" fill-rule="evenodd"/>
          <path id="Trazado_876915" data-name="Trazado 876915" d="M228.227,301.151l-4.487-4.488-1.619,1.619,3.288,3.288a1.7,1.7,0,0,0,2.4,0Z" transform="translate(-216.688 -284.273)" fill="#a79ba7" fill-rule="evenodd"/>
          <path id="Trazado_876916" data-name="Trazado 876916" d="M176.068,187.3l-2.293,2.293a3.086,3.086,0,0,1-4.364-4.364l2.293-2.293c1.547-2.349,2.2-5.395,2.883-7.845a.937.937,0,0,1,1.565-.41l8.085,8.085a.937.937,0,0,1-.457,1.577,20.676,20.676,0,0,0-7.711,2.957Z" transform="translate(-168.511 -174.405)" fill="#eceff1" fill-rule="evenodd"/>
          <path id="Trazado_876917" data-name="Trazado 876917" d="M181.137,255.09l-2.293,2.293a3.084,3.084,0,0,1-4.693-.388,3.1,3.1,0,0,0,3.976-.328l2.293-2.293a20.676,20.676,0,0,1,7.711-2.957.937.937,0,0,0,.457-1.577l.717.717a.937.937,0,0,1-.457,1.577,20.678,20.678,0,0,0-7.711,2.957Z" transform="translate(-173.58 -242.195)" fill="#d1d1d6" fill-rule="evenodd"/>
          <path id="Trazado_876918" data-name="Trazado 876918" d="M175.563,262.445l-3.859-3.859-2.293,2.293a3.086,3.086,0,0,0,4.364,4.364l.674-.674,1.619-1.619Z" transform="translate(-168.512 -250.055)" fill="#7d6eb2" fill-rule="evenodd"/>
          <path id="Trazado_876919" data-name="Trazado 876919" d="M180.633,294.791l-.211-.211-2.293,2.293a3.1,3.1,0,0,1-3.976.329l.009.013.029.04.008.011,0,.006,0,.006.025.033.027.034.017.021.037.045.01.011.045.051,0,.005.05.054h0l.055.057.057.055.058.054.059.052.06.05.061.048.062.047.063.045.064.043.064.041.065.04.066.038.067.036.067.034.068.033.069.031.069.029.07.027.07.026.071.024.071.022.072.02.072.018.073.017.073.015.073.013.073.011.074.01.074.008q.074.007.148.011t.148,0h.074l.074,0,.074,0,.074-.006.074-.008.074-.01.073-.011q.11-.019.219-.045.145-.035.286-.084l.07-.026.07-.027.069-.029.069-.031.068-.033q.068-.033.134-.07l.066-.038.065-.04.064-.041a3.041,3.041,0,0,0,.309-.233l.059-.052.058-.054.057-.055.4-.4.279-.279,1.619-1.619Z" transform="translate(-173.581 -282.402)" fill="#fd4755" fill-rule="evenodd"/>
          <path id="Trazado_876920" data-name="Trazado 876920" d="M229.854,177.508l-2.826-2.826a.937.937,0,0,0-1.565.41c-.113.4-.224.821-.339,1.249l8.291,8.291c.415-.1.829-.2,1.241-.288a.937.937,0,0,0,.457-1.577l-2.683-2.683Z" transform="translate(-219.387 -174.405)" fill="#7d6eb2" fill-rule="evenodd"/>
          <path id="Trazado_876921" data-name="Trazado 876921" d="M299.864,251.717l.717.717h0l.016,0,.078-.019.019,0,.011,0,.009,0,.019,0,.039-.009.019,0,.019,0,.018,0h0l.019,0,.078-.018.019,0,.006,0,.013,0,.019,0,.019,0,.019,0,.019,0,.019,0,.014,0h.006l.078-.018.019,0,.019,0h0l.018,0,.019,0,.019,0,.019,0,.019,0,.019,0,.009,0,.01,0,.019,0,.019,0,.019,0,.019,0,.019,0,.017,0h0l.019,0,.019,0,.077-.018h0l.015,0,.019,0,.077-.018.012,0,.007,0,.019,0,.019,0,.019,0,.019,0,.019,0,.019,0,.016,0,.016,0,.016,0,.016,0h0l.015,0h0l.015,0,.015-.005.015-.005.015-.006h0l.015-.006.015-.006.014-.006.014-.007.014-.007h0l.014-.007.014-.007.014-.007.014-.008.013-.008.013-.008.013-.008.013-.008.013-.009.013-.009.012-.009.012-.009.012-.009.012-.01.012-.01.012-.01.011-.01.011-.01.011-.011.011-.011.011-.011.011-.011.01-.011.01-.011.01-.012h0l.01-.012.01-.012.009-.012.009-.012.009-.013.009-.013.009-.013.008-.013.008-.013.008-.013.008-.014.008-.014.007-.014.007-.014.007-.014.007-.014.006-.014.006-.015.006-.015.006-.015.006-.015.005-.015.005-.015,0-.016,0-.016,0-.016,0-.016,0-.016,0-.016,0-.016,0-.016,0-.016,0-.016,0-.016,0-.016h0l0-.016,0-.016v-.17l0-.015,0-.015,0-.015,0-.015,0-.015,0-.015,0-.015,0-.015,0-.015,0-.015,0-.015,0-.015,0-.014,0-.014-.005-.014-.005-.014-.006-.014-.006-.014-.006-.014-.006-.014-.007-.014-.007-.014-.007-.014-.007-.014-.008-.013-.008-.013-.008-.013-.008-.013-.009-.013-.009-.013-.009-.013-.009-.013-.01-.013-.01-.013-.01-.012-.01-.012-.011-.012-.011-.012-.011-.012-.011-.012-.011-.012-.717-.717a.937.937,0,0,1-.457,1.577Q300.487,251.566,299.864,251.717Z" transform="translate(-286.553 -242.207)" fill="#fd4755" fill-rule="evenodd"/>
        </g>
      </g>
      <path id="Trazado_876922" data-name="Trazado 876922" d="M33.292,21.286h1.525a.811.811,0,1,1,0,1.621H33.292a.811.811,0,1,1,0-1.621Zm-5.235-3.814V15.945a.811.811,0,0,1,1.621,0v1.527a.811.811,0,0,1-1.621,0Zm3.231,2.145a.809.809,0,0,1,0-1.146l1.079-1.079a.81.81,0,1,1,1.146,1.146l-1.079,1.078a.809.809,0,0,1-1.146,0Zm-6.648,12.1,2.817,2.817a.886.886,0,0,1-1.079-.135l-2.21-2.209Zm-6.084.574a2.28,2.28,0,0,1,0-3.218l1.72-1.719,3.218,3.217-1.72,1.72A2.279,2.279,0,0,1,18.556,32.293Zm4.678-11.119A21.319,21.319,0,0,1,21.3,26.087l3.441,3.44a18.066,18.066,0,0,1,4.8-2.048Zm.8-2.68a.108.108,0,0,0-.089.088c-.072.256-.143.519-.216.788l7.64,7.64c.271-.064.541-.126.81-.186a.127.127,0,0,0,.062-.213l-8.085-8.084a.108.108,0,0,0-.08-.039.181.181,0,0,0-.041.006Zm5.588,2.794a1.016,1.016,0,0,1,.3.709l-1-1a1.007,1.007,0,0,1,.707.294ZM27,36.281a2.5,2.5,0,0,0,1.773-.733l.42-.42a.811.811,0,0,0,0-1.146L25.92,30.706a22.1,22.1,0,0,1,6.609-2.3,1.747,1.747,0,0,0,.853-2.941l-2.18-2.18A2.634,2.634,0,0,0,27.62,19.7L25.3,17.38a1.747,1.747,0,0,0-2.918.764c-.107.38-.21.766-.319,1.174a22.653,22.653,0,0,1-2.416,6.376L17.41,27.927a3.9,3.9,0,0,0,5.511,5.511l.1-.1,2.21,2.209A2.5,2.5,0,0,0,27,36.281ZM44.812,48.673a4.44,4.44,0,1,1,4.44-4.44A4.445,4.445,0,0,1,44.812,48.673ZM28.29,47.929a2.339,2.339,0,1,1-2.34-2.34A2.343,2.343,0,0,1,28.29,47.929ZM12.658,25.707A13.293,13.293,0,1,0,25.95,12.415,13.308,13.308,0,0,0,12.658,25.707ZM7.425,48.673a4.44,4.44,0,1,1,4.44-4.44A4.445,4.445,0,0,1,7.425,48.673Zm0-37.05a4.44,4.44,0,1,1,4.44-4.44A4.444,4.444,0,0,1,7.425,11.622ZM23.611,3.964A2.339,2.339,0,1,1,25.95,6.3,2.342,2.342,0,0,1,23.611,3.964Zm21.2-1.221a4.44,4.44,0,1,1-4.439,4.44,4.445,4.445,0,0,1,4.439-4.44ZM3.969,28.047a2.339,2.339,0,1,1,2.339-2.34A2.343,2.343,0,0,1,3.969,28.047Zm43.964-4.679a2.339,2.339,0,1,1-2.34,2.339A2.342,2.342,0,0,1,47.932,23.368Zm-3.12,14.8a6.032,6.032,0,0,0-4,1.514l-3.855-3.925a14.859,14.859,0,0,0,3.872-9h3.285a3.961,3.961,0,1,0-.1-1.622h-3.16a14.849,14.849,0,0,0-3.716-9.28L41.1,11.966a6.05,6.05,0,1,0-1.134-1.152L36,14.7a14.858,14.858,0,0,0-9.243-3.885V7.841a3.96,3.96,0,1,0-1.622,0v2.974A14.852,14.852,0,0,0,16.1,14.521l-3.745-3.814a6.069,6.069,0,1,0-1.109,1.178l3.7,3.769a14.852,14.852,0,0,0-3.9,9.481H7.887a3.962,3.962,0,1,0-.1,1.622h3.286a14.842,14.842,0,0,0,3.691,8.8L10.95,39.307a6.069,6.069,0,1,0,1.178,1.109l3.768-3.7A14.867,14.867,0,0,0,25.139,40.6v3.452a3.961,3.961,0,1,0,1.622,0V40.6A14.857,14.857,0,0,0,35.8,36.894l3.944,4.016a6.058,6.058,0,1,0,5.065-2.738Z" fill-rule="evenodd"/>
    </g>
  </g>
</svg>
