<svg xmlns="http://www.w3.org/2000/svg" width="67" height="59.184" viewBox="0 0 67 59.184">
  <g id="Grupo_1101897" data-name="Grupo 1101897" transform="translate(-180 -8143.777)">
    <g id="Grupo_1101610" data-name="Grupo 1101610" transform="translate(0 -22015.453)">
      <g id="Grupo_1101531" data-name="Grupo 1101531" transform="translate(0 26409.078)">
        <path id="_12068" data-name="12068" d="M66.039,71.828c-6.861-.947-14.108-.716-20.351,2.283C37.03,78.27,31.344,87.7,31.126,97.3s4.784,19.038,12.512,24.741a35.81,35.81,0,0,0,27.37,6.013c9.53-1.727,18.474-7.326,23.445-15.638,3.187-5.33,4.677-11.911,2.916-17.867a24.409,24.409,0,0,0-5.793-9.521A42.8,42.8,0,0,0,66.039,71.828Z" transform="translate(148.881 3680.691)" fill="#26aab7"/>
        <path id="Trazado_873155" data-name="Trazado 873155" d="M303.26,44.546a1.582,1.582,0,1,0-.106-2.456A1.573,1.573,0,0,0,303.26,44.546Z" transform="translate(138.287 4055.916) rotate(-90)" fill="#7d6eb2"/>
        <path id="Trazado_873156" data-name="Trazado 873156" d="M321.56,66.974a3.448,3.448,0,1,0-1.687-4.918A3.468,3.468,0,0,0,321.56,66.974Z" transform="translate(128.241 4079.581) rotate(-90)" fill="#ffd947"/>
        <circle id="Elipse_11521" data-name="Elipse 11521" cx="3.689" cy="3.689" r="3.689" transform="translate(237.702 3796.368) rotate(-90)" fill="none" stroke="#fff" stroke-linecap="round" stroke-linejoin="round" stroke-width="1.5"/>
      </g>
      <g id="_18._google_ads_logo" data-name="18. google ads logo" transform="translate(182 30159.002)">
        <path id="Trazado_879774" data-name="Trazado 879774" d="M20.126,51.3A10.439,10.439,0,1,0,2.16,40.67L21.522,7.19a10.438,10.438,0,0,0,.235,10.438c-.144,0,.235.365,8.938,15.5Z" transform="translate(0.658 1.582)" fill="#fc6"/>
        <path id="Trazado_879775" data-name="Trazado 879775" d="M56.5,47.442c0,10.673-14.183,14.352-19.48,5.219C16.939,17.863,17.448,18.92,17.553,18.92A10.438,10.438,0,1,1,35.623,8.547C56.5,44.676,56.5,43.527,56.5,47.442Z" transform="translate(4.824 0.225)" fill="#6fabe6"/>
        <path id="Trazado_879776" data-name="Trazado 879776" d="M55.84,47.361a10.2,10.2,0,0,1-.678,3.692,10.438,10.438,0,0,1-16.192-2.388C18.889,13.868,19.4,14.925,19.5,14.925a10.438,10.438,0,0,1-.822-9.133A10.438,10.438,0,0,1,34.964,8.467C55.84,44.6,55.84,43.447,55.84,47.361Z" transform="translate(5.483 0.305)" fill="#82bcf4"/>
        <path id="Trazado_879777" data-name="Trazado 879777" d="M29.155,30.428A22.272,22.272,0,0,1,6.544,41.335L2.16,40.67,21.522,7.19a10.438,10.438,0,0,0,.235,10.438c-.17-.065-.117-.17,7.4,12.8Z" transform="translate(0.658 1.582)" fill="#ffde76"/>
        <path id="Trazado_879778" data-name="Trazado 879778" d="M21.876,39.438a10.6,10.6,0,0,1-1.4,5.219C15.156,53.882,1,50.085,1,39.438a10.438,10.438,0,1,1,20.876,0Z" transform="translate(0.305 8.229)" fill="#9dcc6b"/>
        <path id="Trazado_879779" data-name="Trazado 879779" d="M19.672,44.67C10.422,49.889.1,39.451,5.386,30.383,14.454,25.1,24.891,35.537,19.672,44.67Z" transform="translate(1.203 8.215)" fill="#b5e08c"/>
        <path id="Trazado_879780" data-name="Trazado 879780" d="M61.049,41.782C45.888,15.531,38.868,2.274,37.433,3.71A11.743,11.743,0,0,0,21.019,8.12C19.036,11.512,28.143-4.249,1.683,41.6A11.664,11.664,0,0,0,0,47.667c0,11.991,15.944,16.2,21.907,5.871.926-1.618-3.34,5.793,9.407-16.309l9.394,16.309A11.744,11.744,0,1,0,61.049,41.8ZM11.743,56.8a9.133,9.133,0,0,1-7.92-13.7,1.709,1.709,0,0,0,.091-.17c5.493-9.068,19.767-2.9,16.492,7.489a9.133,9.133,0,0,1-8.664,6.38Zm11.6-10.96A11.743,11.743,0,0,0,7.528,36.707L19.715,15.6c.483,3.053,1.4,3.993,10.086,19.062ZM50.885,56.8a9.133,9.133,0,0,1-7.907-4.567c-21.607-37.42-20.8-35.2-20.8-38.49A9.133,9.133,0,0,1,35.737,5.758C38.5,6.985,38.086,7.219,58.714,42.93A9.133,9.133,0,0,1,50.885,56.8Z" transform="translate(0 0)"/>
      </g>
    </g>
  </g>
</svg>
