<svg xmlns="http://www.w3.org/2000/svg" width="140" height="140" viewBox="0 0 140 140">
  <g id="Grupo_1101899" data-name="Grupo 1101899" transform="translate(-923 -19280)">
    <g id="Grupo_1101898" data-name="Grupo 1101898" transform="translate(8 -295)">
      <path id="Trazado_880144" data-name="Trazado 880144" d="M70,0A70,70,0,1,1,0,70,70,70,0,0,1,70,0Z" transform="translate(915 19575)" fill="#00baff"/>
    </g>
    <g id="Grupo_22704" data-name="Grupo 22704" transform="translate(946.5 19303.5)">
      <g id="Grupo_22702" data-name="Grupo 22702" transform="translate(1.355 1.36)">
        <g id="Grupo_22701" data-name="Grupo 22701">
          <path id="Trazado_50162" data-name="Trazado 50162" d="M114.163,35.235c11.667,11.653-66.647,91.04-78.9,78.8-8.618-8.608,2.057-33.227,23.844-54.988s46.435-32.424,55.053-23.816Z" transform="translate(-27.782 -27.759)" fill="#cf7a15"/>
          <g id="Grupo_22699" data-name="Grupo 22699">
            <path id="Trazado_50163" data-name="Trazado 50163" d="M96.425,10.731c-6.979-6.97-23.637-2.3-41.469,10.319a.5.5,0,0,0,.11.868c6.084,2.325,12.2,5.251,11.357,7.371-1.068,2.671-12.036.218-19.5-1.8a.494.494,0,0,0-.447.1c-3.3,2.762-6.6,5.772-9.844,9.009l-.006.006a.5.5,0,0,0,.185.817c6.856,2.433,15.352,6,14.363,8.477-1.136,2.839-13.457-.112-20.861-2.174a.5.5,0,0,0-.507.152c-2.823,3.216-5.414,6.449-7.753,9.652a.5.5,0,0,0,.235.76c6.714,2.422,14.594,5.831,13.64,8.218-1.021,2.552-11.08.426-18.481-1.528a.5.5,0,0,0-.55.221C7.486,76.533,4.592,90.175,10.739,96.316,24.044,109.6,109.1,23.387,96.425,10.731Z" transform="translate(-7.497 -7.493)" fill="#f0a346"/>
          </g>
          <g id="Grupo_22700" data-name="Grupo 22700" transform="translate(4.063 0.002)">
            <path id="Trazado_50164" data-name="Trazado 50164" d="M114.75,10.738c-2.895-2.891-7.455-3.778-13.073-2.928a11,11,0,0,1,5.813,2.928C118.568,21.8,54.947,89.1,29.886,96.96c15.626,9.455,97.3-73.8,84.864-86.222Z" transform="translate(-29.886 -7.501)" fill="#eb8f21"/>
          </g>
        </g>
      </g>
      <g id="Grupo_22703" data-name="Grupo 22703">
        <path id="Trazado_50165" data-name="Trazado 50165" d="M91.277,3.635C87.541-.1,81.329-.975,73.31,1.092c-7.5,1.934-16.233,6.33-25.25,12.713-1.5,1.062-.59,2.864.778,3.392-1.529,1.081-3.063,2.221-4.581,3.407-1.143.892-3.277-1.436-4.761-.194-3.383,2.828-6.725,5.886-9.933,9.09-1.225,1.256-.2,2.752,1.156,3.237-1.336,1.362-2.644,2.751-3.91,4.148-.8-.211-1.552-.417-2.238-.608a1.868,1.868,0,0,0-1.895.565c-2.808,3.2-5.442,6.477-7.829,9.748-1.144,1.568.431,2.677,1.708,3.147-1,1.441-1.948,2.884-2.837,4.31-1.285-.321-3.161-1.208-4.089.3C-.557,70.947-2.786,84.7,3.667,91.146a7.353,7.353,0,0,0,6.071,1.716C20.929,91.649,40.406,74.795,48.261,67.6c15.4-14.1,29.918-30.58,37.893-43.019a1.362,1.362,0,0,0-2.292-1.47C76,35.371,61.659,51.649,46.422,65.6c-15.946,14.6-29.769,23.778-36.978,24.56a4.555,4.555,0,0,1-3.853-.936C.238,83.874,2.553,71.3,11.616,56.322c2.388.621,4.6,1.139,6.575,1.541a1.362,1.362,0,0,0,.542-2.668c-.709-.144-1.451-.3-2.22-.479.839-1.319,1.729-2.65,2.662-3.979,7.664,3.034,9.063,4.69,9.312,5.134a5.983,5.983,0,0,1-2.7.3c-2.107-.077-1.435,2.732.554,2.732,1.846,0,4.052-.3,4.744-2.029a2.553,2.553,0,0,0-.076-2.043c-.619-1.378-2.686-3.647-13.279-7.565,2.053-2.758,4.28-5.518,6.637-8.223A118.907,118.907,0,0,0,36.779,41.86c5.885.909,8.742.433,9.552-1.591a2.554,2.554,0,0,0-.08-2.051c-.637-1.409-2.781-3.728-13.8-7.749C35.2,27.777,38.032,25.2,40.9,22.788a102.935,102.935,0,0,0,11.876,2.575c5.321.743,8.036.219,8.8-1.7a2.558,2.558,0,0,0-.064-2.015c-.538-1.229-2.238-3.219-10.557-6.542C59.231,9.41,67.17,5.487,73.99,3.729,78.9,2.464,85.543,1.755,89.353,5.561c1.66,1.659.965,5.731-1.958,11.468a1.362,1.362,0,0,0,2.426,1.236c3.6-7.073,4.093-12,1.455-14.63ZM33.518,33.776C42,37.041,43.482,38.81,43.736,39.267c-.366.2-1.876.681-7.173-.2-2.174-.361-4.537-.879-6.762-1.421C31.009,36.339,32.253,35.044,33.518,33.776ZM51.849,18.419c5.777,2.475,6.914,3.848,7.133,4.241-.452.247-2.639.932-11.553-1.06,1.472-1.113,2.952-2.178,4.42-3.181Z" transform="translate(-0.032 0)"/>
        <path id="Trazado_50166" data-name="Trazado 50166" d="M66.726,341.814a1.362,1.362,0,0,0,0-2.723A1.362,1.362,0,0,0,66.726,341.814Z" transform="translate(-53.545 -277.548)"/>
        <path id="Trazado_50167" data-name="Trazado 50167" d="M53.224,378.093a1.362,1.362,0,0,0,0,2.723A1.362,1.362,0,0,0,53.224,378.093Z" transform="translate(-42.494 -309.471)"/>
        <path id="Trazado_50168" data-name="Trazado 50168" d="M105.727,346.314a1.362,1.362,0,0,0,0-2.723A1.362,1.362,0,0,0,105.727,346.314Z" transform="translate(-85.468 -281.231)"/>
        <path id="Trazado_50169" data-name="Trazado 50169" d="M129.728,250.31a1.362,1.362,0,0,0,0-2.723A1.362,1.362,0,0,0,129.728,250.31Z" transform="translate(-105.113 -202.651)"/>
        <path id="Trazado_50170" data-name="Trazado 50170" d="M170.23,238.587a1.362,1.362,0,0,0,0,2.723A1.362,1.362,0,0,0,170.23,238.587Z" transform="translate(-138.264 -195.285)"/>
        <path id="Trazado_50171" data-name="Trazado 50171" d="M180.73,274.311a1.362,1.362,0,0,0,0-2.723A1.362,1.362,0,0,0,180.73,274.311Z" transform="translate(-146.858 -222.296)"/>
        <path id="Trazado_50172" data-name="Trazado 50172" d="M213.732,156.084a1.362,1.362,0,0,0,0,2.723A1.362,1.362,0,0,0,213.732,156.084Z" transform="translate(-173.87 -127.756)"/>
        <path id="Trazado_50173" data-name="Trazado 50173" d="M252.733,148.583a1.362,1.362,0,0,0,0,2.723A1.362,1.362,0,0,0,252.733,148.583Z" transform="translate(-205.793 -121.616)"/>
        <path id="Trazado_50174" data-name="Trazado 50174" d="M259.733,180.808a1.362,1.362,0,0,0,0-2.723A1.362,1.362,0,0,0,259.733,180.808Z" transform="translate(-211.522 -145.764)"/>
        <path id="Trazado_50175" data-name="Trazado 50175" d="M318.735,76.3a1.362,1.362,0,0,0,0-2.723A1.362,1.362,0,0,0,318.735,76.3Z" transform="translate(-259.816 -60.227)"/>
        <path id="Trazado_50176" data-name="Trazado 50176" d="M360.737,55.58a1.362,1.362,0,0,0,0,2.723A1.362,1.362,0,0,0,360.737,55.58Z" transform="translate(-294.195 -45.493)"/>
        <path id="Trazado_50177" data-name="Trazado 50177" d="M353.237,94.3a1.362,1.362,0,0,0,0-2.723A1.362,1.362,0,0,0,353.237,94.3Z" transform="translate(-288.056 -74.96)"/>
      </g>
    </g>
  </g>
</svg>
