<svg xmlns="http://www.w3.org/2000/svg" width="67" height="59.184" viewBox="0 0 67 59.184">
  <g id="Grupo_1101895" data-name="Grupo 1101895" transform="translate(-180 -28032.23)">
    <g id="Grupo_1101531" data-name="Grupo 1101531" transform="translate(0 24282.078)">
      <path id="_12068" data-name="12068" d="M66.039,71.828c-6.861-.947-14.108-.716-20.351,2.283C37.03,78.27,31.344,87.7,31.126,97.3s4.784,19.038,12.512,24.741a35.81,35.81,0,0,0,27.37,6.013c9.53-1.727,18.474-7.326,23.445-15.638,3.187-5.33,4.677-11.911,2.916-17.867a24.409,24.409,0,0,0-5.793-9.521A42.8,42.8,0,0,0,66.039,71.828Z" transform="translate(148.881 3680.691)" fill="#26aab7"/>
      <path id="Trazado_873155" data-name="Trazado 873155" d="M303.26,44.546a1.582,1.582,0,1,0-.106-2.456A1.573,1.573,0,0,0,303.26,44.546Z" transform="translate(138.287 4055.916) rotate(-90)" fill="#7d6eb2"/>
      <path id="Trazado_873156" data-name="Trazado 873156" d="M321.56,66.974a3.448,3.448,0,1,0-1.687-4.918A3.468,3.468,0,0,0,321.56,66.974Z" transform="translate(128.241 4079.581) rotate(-90)" fill="#ffd947"/>
      <circle id="Elipse_11521" data-name="Elipse 11521" cx="3.689" cy="3.689" r="3.689" transform="translate(237.702 3796.368) rotate(-90)" fill="none" stroke="#fff" stroke-linecap="round" stroke-linejoin="round" stroke-width="1.5"/>
    </g>
    <g id="semi" transform="translate(153.497 28033.25)">
      <g id="Grupo_1101600" data-name="Grupo 1101600" transform="translate(34.353 0.919)">
        <path id="Trazado_879761" data-name="Trazado 879761" d="M44.874,8.01H86.819A3.4,3.4,0,0,1,90.213,11.4v38.78a3.4,3.4,0,0,1-3.394,3.394H44.874a3.4,3.4,0,0,1-3.394-3.394V11.4A3.4,3.4,0,0,1,44.874,8.01Z" transform="translate(-41.48 -8.01)" fill="#ebf5fc" fill-rule="evenodd"/>
        <path id="Trazado_879762" data-name="Trazado 879762" d="M44.874,8.01H86.819A3.4,3.4,0,0,1,90.213,11.4v4.868H41.48V11.4A3.4,3.4,0,0,1,44.874,8.01Z" transform="translate(-41.48 -8.01)" fill="#0593fc" fill-rule="evenodd"/>
        <path id="Trazado_879763" data-name="Trazado 879763" d="M44.874,8.01h1.965A3.4,3.4,0,0,0,43.445,11.4v4.868H41.48V11.4A3.4,3.4,0,0,1,44.874,8.01Z" transform="translate(-41.48 -8.01)" fill="#0584e3" fill-rule="evenodd"/>
        <path id="Trazado_879764" data-name="Trazado 879764" d="M43.445,80.75v33.911a3.4,3.4,0,0,0,3.394,3.394H44.874a3.4,3.4,0,0,1-3.394-3.394V80.75Z" transform="translate(-41.48 -72.488)" fill="#d4dde3" fill-rule="evenodd"/>
        <g id="Grupo_1101599" data-name="Grupo 1101599" transform="translate(5.078 2.854)">
          <path id="Trazado_879765" data-name="Trazado 879765" d="M87.462,35.682a1.271,1.271,0,1,0-1.272-1.27A1.273,1.273,0,0,0,87.462,35.682Z" transform="translate(-86.19 -33.14)" fill="#056bb8" fill-rule="evenodd"/>
          <path id="Trazado_879766" data-name="Trazado 879766" d="M130.852,35.682a1.271,1.271,0,1,0-1.272-1.27A1.275,1.275,0,0,0,130.852,35.682Z" transform="translate(-124.651 -33.14)" fill="#056bb8" fill-rule="evenodd"/>
          <path id="Trazado_879767" data-name="Trazado 879767" d="M174.242,35.682a1.271,1.271,0,1,0-1.272-1.27A1.274,1.274,0,0,0,174.242,35.682Z" transform="translate(-163.113 -33.14)" fill="#056bb8" fill-rule="evenodd"/>
        </g>
        <path id="Trazado_879768" data-name="Trazado 879768" d="M123.206,215.946a9.666,9.666,0,1,1-3.538,13.2A9.667,9.667,0,0,1,123.206,215.946Z" transform="translate(-109.638 -191.177)" fill="#0cf" fill-rule="evenodd"/>
        <path id="Trazado_879769" data-name="Trazado 879769" d="M255.286,396.74l5.361,9.286a1.624,1.624,0,0,1-2.812,1.624l-5.361-9.286a1.045,1.045,0,0,1,.384-1.426l1.007-.58a1.043,1.043,0,0,1,1.421.382Z" transform="translate(-228.384 -352.124)" fill="#ff4646" fill-rule="evenodd"/>
        <path id="Trazado_879770" data-name="Trazado 879770" d="M205.229,133.006l-4.279,5.293a.619.619,0,0,1-1.1-.386V119.068a1.243,1.243,0,0,1,1.238-1.238h19.535a1.243,1.243,0,0,1,1.238,1.238v12.373a1.243,1.243,0,0,1-1.238,1.238H205.916A.859.859,0,0,0,205.229,133.006Z" transform="translate(-181.861 -105.356)" fill="#fea832" fill-rule="evenodd"/>
        <path id="Trazado_879771" data-name="Trazado 879771" d="M123.209,216.018a9.608,9.608,0,0,1,4.42-1.288v.087a9.67,9.67,0,0,0,.908,19.229,9.669,9.669,0,0,1-5.327-18.029Z" transform="translate(-109.641 -191.249)" fill="#00b8e6" fill-rule="evenodd"/>
        <path id="Trazado_879772" data-name="Trazado 879772" d="M200.951,138.3a.619.619,0,0,1-1.1-.386V119.068a1.243,1.243,0,0,1,1.238-1.238h.967a1.243,1.243,0,0,0-1.238,1.238v18.845A.617.617,0,0,0,200.951,138.3Z" transform="translate(-181.861 -105.356)" fill="#e5972d" fill-rule="evenodd"/>
      </g>
      <path id="Trazado_879773" data-name="Trazado 879773" d="M79.695.01H37.745a4.31,4.31,0,0,0-4.3,4.3V43.1a4.31,4.31,0,0,0,4.3,4.3h19.81a1.936,1.936,0,0,0,.1.212L63.02,56.9A2.531,2.531,0,1,0,67.4,54.369L63.385,47.4H79.7A4.31,4.31,0,0,0,84,43.1V4.315A4.311,4.311,0,0,0,79.695.01ZM37.745,1.825H79.7a2.492,2.492,0,0,1,2.489,2.489V8.275H35.256V4.315a2.491,2.491,0,0,1,2.489-2.49ZM52.452,34.917a1.565,1.565,0,0,0,.519.09,1.513,1.513,0,0,0,1.179-.568l4.272-5.284H60.01q.177.262.329.528a8.759,8.759,0,1,1-8.905-4.28v8.075a1.515,1.515,0,0,0,1.018,1.439Zm5.956-7.579A1.757,1.757,0,0,0,57.017,28l-3.767,4.659V14.634a.334.334,0,0,1,.332-.328H73.114a.334.334,0,0,1,.332.328V27.011a.334.334,0,0,1-.332.328Zm7.163,28.916a.72.72,0,0,1-.979-.262l-5.36-9.281a.136.136,0,0,1-.014-.106.131.131,0,0,1,.062-.082l.5-.29.5-.289a.137.137,0,0,1,.069-.018.139.139,0,0,1,.12.068L61,46.9a.784.784,0,0,0,.062.108l4.772,8.27A.715.715,0,0,1,65.571,56.255ZM79.695,45.589H62.336l-.292-.505s0,0,0,0a1.963,1.963,0,0,0-2.365-.846l-.867-1.5a10.59,10.59,0,0,0,3.31-13.577H73.114a2.148,2.148,0,0,0,2.148-2.145V14.634a2.148,2.148,0,0,0-2.148-2.145H53.582a2.148,2.148,0,0,0-2.148,2.145V23.57a10.574,10.574,0,0,0,1.341,21.065,10.51,10.51,0,0,0,4.463-1l.866,1.5a1.9,1.9,0,0,0-.4.45H37.745A2.492,2.492,0,0,1,35.256,43.1V10.091H82.185V43.1a2.493,2.493,0,0,1-2.49,2.489ZM40.707,7.232a2.18,2.18,0,1,0-2.18-2.18A2.182,2.182,0,0,0,40.707,7.232Zm0-2.544a.363.363,0,1,1-.363.363A.363.363,0,0,1,40.707,4.687Zm4.926,2.544a2.18,2.18,0,1,0-2.18-2.18A2.182,2.182,0,0,0,45.634,7.232Zm0-2.544A.364.364,0,0,1,46,5.051a.363.363,0,1,1-.363-.363Zm4.929,2.544a2.18,2.18,0,1,0-2.18-2.18A2.18,2.18,0,0,0,50.562,7.232Zm0-2.544a.362.362,0,0,1,.36.363.362.362,0,1,1-.36-.363Zm4.547.365a.907.907,0,0,1,.908-.908H78A.908.908,0,0,1,78,5.96H56.016A.908.908,0,0,1,55.109,5.052Zm1.427,14.286a.577.577,0,0,0,.576.576.962.962,0,0,1,.128.01,2.391,2.391,0,1,1-2.477,3.107.908.908,0,1,1,1.731-.55.576.576,0,1,0,.547-.752.963.963,0,0,1-.128-.01,2.391,2.391,0,1,1,2.476-3.111.908.908,0,0,1-1.728.558.576.576,0,0,0-1.126.173Zm5.737-.576v1.153h1.195a.908.908,0,0,1,0,1.815H62.273v1.153h1.781a.908.908,0,1,1,0,1.815H61.365a.908.908,0,0,1-.908-.908V17.853a.907.907,0,0,1,.908-.908h2.689a.908.908,0,1,1,0,1.815H62.273Zm9.7-.909V23.79a.908.908,0,1,1-1.815,0V21.242l-.4.685a.907.907,0,0,1-1.572,0l-.392-.679v2.544a.908.908,0,1,1-1.815,0V17.853a.908.908,0,0,1,1.695-.453l1.3,2.256,1.3-2.256a.906.906,0,0,1,1.691.453Z"/>
    </g>
  </g>
</svg>
