<svg xmlns="http://www.w3.org/2000/svg" width="140" height="140" viewBox="0 0 140 140">
  <g id="Grupo_1101899" data-name="Grupo 1101899" transform="translate(-1253 -19280)">
    <g id="Grupo_1101898" data-name="Grupo 1101898" transform="translate(8 -295)">
      <path id="Trazado_880144" data-name="Trazado 880144" d="M70,0A70,70,0,1,1,0,70,70,70,0,0,1,70,0Z" transform="translate(1245 19575)" fill="red"/>
    </g>
    <g id="Grupo_22709" data-name="Grupo 22709" transform="translate(1273 19302)">
      <g id="Grupo_22707" data-name="Grupo 22707" transform="translate(37.515)">
        <path id="Trazado_50178" data-name="Trazado 50178" d="M419.965,376.109v11.56a3,3,0,0,0,3,3h22.348a3,3,0,0,0,2.995-3v-11.56Z" transform="translate(-387.527 -296.096)" fill="#e2385e"/>
        <path id="Trazado_50179" data-name="Trazado 50179" d="M426.522,387.669v-11.56h-6.557v11.56a3,3,0,0,0,3,3h6.557A3,3,0,0,1,426.522,387.669Z" transform="translate(-387.527 -296.096)" fill="#da1c4b"/>
        <path id="Trazado_50180" data-name="Trazado 50180" d="M448.3,146.743v-3.2a20.657,20.657,0,0,0-3.777-11.909,21.813,21.813,0,0,1-3.937-8.036l-.784.54-4.732,3.26a1.653,1.653,0,0,1-1.877,0l-4.732-3.26-.782-.539a21.731,21.731,0,0,1-3.939,8.035,20.662,20.662,0,0,0-3.777,11.909v3.2Z" transform="translate(-387.527 -90.894)" fill="#e2385e"/>
        <path id="Trazado_50181" data-name="Trazado 50181" d="M430.291,131.639a30.968,30.968,0,0,0,2.665-4.4l-4.493-3.1-.782-.539a21.734,21.734,0,0,1-3.939,8.034,20.662,20.662,0,0,0-3.777,11.909v3.2h6.549v-3.2A20.662,20.662,0,0,1,430.291,131.639Z" transform="translate(-387.527 -90.9)" fill="#da1c4b"/>
        <path id="Trazado_50182" data-name="Trazado 50182" d="M473.736,41.286c-.6-2.281-.48-2.028-1.85-19.4h-9.4c-1.341,17-1.244,17.078-1.849,19.4h0l.878.605,4.732,3.26a1.653,1.653,0,0,0,1.877,0l4.732-3.26.878-.605Z" transform="translate(-420.579 -8.242)" fill="#8ec13f"/>
        <path id="Trazado_50183" data-name="Trazado 50183" d="M468.065,41.895a1.56,1.56,0,0,1-.633-1.642l.025-.106c.606-2.318.239-1.249,1.579-18.252h-6.549c-1.341,17-1.244,17.077-1.849,19.395h0l.878.605,4.731,3.259a1.658,1.658,0,0,0,1.88,0l2.335-1.609Z" transform="translate(-420.579 -8.245)" fill="#7cad27"/>
        <path id="Trazado_50184" data-name="Trazado 50184" d="M478.293,28.021l-.484-6.131h-9.4l-.484,6.131Z" transform="translate(-426.502 -8.242)" fill="#7cad27"/>
        <path id="Trazado_50185" data-name="Trazado 50185" d="M468.429,21.89c-.185,2.351-.343,4.377-.479,6.131h6.559c.128-1.729.282-3.753.47-6.131Z" transform="translate(-426.522 -8.242)" fill="#75a022"/>
        <path id="Trazado_50186" data-name="Trazado 50186" d="M470.6-43.2h-9.4a2.157,2.157,0,0,0-2.146,2.167v7.986a2.157,2.157,0,0,0,2.146,2.167h9.4a2.157,2.157,0,0,0,2.146-2.167v-7.986A2.156,2.156,0,0,0,470.6-43.2Z" transform="translate(-419.293 44.656)" fill="#4d6777"/>
        <path id="Trazado_50187" data-name="Trazado 50187" d="M465.6-33.05v-7.986A2.157,2.157,0,0,1,467.75-43.2H461.2a2.157,2.157,0,0,0-2.146,2.167v7.986a2.157,2.157,0,0,0,2.146,2.167h6.549A2.157,2.157,0,0,1,465.6-33.05Z" transform="translate(-419.293 44.656)" fill="#394d5c"/>
        <path id="Trazado_50188" data-name="Trazado 50188" d="M459.055-10.5v4.025A2.157,2.157,0,0,0,461.2-4.3h9.4a2.157,2.157,0,0,0,2.146-2.167V-10.5Z" transform="translate(-419.293 18.077)" fill="#394d5c"/>
        <path id="Trazado_50189" data-name="Trazado 50189" d="M467.75-4.3A2.157,2.157,0,0,1,465.6-6.471V-10.5h-6.549v4.025A2.156,2.156,0,0,0,461.2-4.3Z" transform="translate(-419.293 18.077)" fill="#2b3f4c"/>
        <path id="Trazado_50190" data-name="Trazado 50190" d="M419.965,244.7v25.078H448.3V244.7Z" transform="translate(-387.527 -189.307)" fill="#d7f7ff"/>
        <path id="Trazado_50191" data-name="Trazado 50191" d="M419.965,244.7v25.078h6.557V244.7Z" transform="translate(-387.527 -189.307)" fill="#b7e9f9"/>
        <path id="Trazado_50192" data-name="Trazado 50192" d="M472.25,279.955a6.994,6.994,0,1,1-6.994-6.994A6.994,6.994,0,0,1,472.25,279.955Z" transform="translate(-418.649 -212.274)" fill="#b7e9f9"/>
        <path id="Trazado_50193" data-name="Trazado 50193" d="M468.535,273.777a6.994,6.994,0,1,0,0,12.356A7,7,0,0,1,468.535,273.777Z" transform="translate(-418.649 -212.274)" fill="#87cee9"/>
        <path id="Trazado_50194" data-name="Trazado 50194" d="M321.521,332.674a7.948,7.948,0,0,1-3.434-6.541V314.859h-4.273v11.274a7.946,7.946,0,0,1-3.434,6.541l-5.18,3.761h21.5Z" transform="translate(-294.264 -246.322)" fill="#d7f7ff"/>
        <path id="Trazado_50195" data-name="Trazado 50195" d="M318.271,327.815a7.927,7.927,0,0,1-.183-1.682V314.859h-4.274v11.274a7.946,7.946,0,0,1-3.434,6.541l-5.18,3.761h4.641l5.18-3.761A7.943,7.943,0,0,0,318.271,327.815Z" transform="translate(-294.264 -246.322)" fill="#b7e9f9"/>
        <path id="Trazado_50196" data-name="Trazado 50196" d="M314.858,429.023H290.535a1.645,1.645,0,0,0-1.644,1.645v1.352a1.645,1.645,0,0,0,1.644,1.645h24.323a1.645,1.645,0,0,0,1.645-1.645v-1.352A1.645,1.645,0,0,0,314.858,429.023Z" transform="translate(-281.01 -339.097)" fill="#b7e9f9"/>
        <path id="Trazado_50197" data-name="Trazado 50197" d="M314.858,434.528H290.535a1.644,1.644,0,0,1-1.45-.868,1.639,1.639,0,0,0-.195.776v1.352a1.645,1.645,0,0,0,1.644,1.645h24.323a1.645,1.645,0,0,0,1.645-1.645v-1.352a1.633,1.633,0,0,0-.195-.776A1.644,1.644,0,0,1,314.858,434.528Z" transform="translate(-281.01 -342.865)" fill="#87cee9"/>
        <path id="Trazado_50198" data-name="Trazado 50198" d="M337.809,288.164v2.973a2.411,2.411,0,0,0,2.4,2.4h4.474a2.411,2.411,0,0,0,2.4-2.4v-2.973Z" transform="translate(-320.763 -224.628)" fill="#b7e9f9"/>
        <path id="Trazado_50199" data-name="Trazado 50199" d="M342.9,291.137v-2.973h-5.088v2.973a2.411,2.411,0,0,0,2.4,2.4h4.474a2.374,2.374,0,0,0,.307-.022A2.411,2.411,0,0,1,342.9,291.137Z" transform="translate(-320.763 -224.628)" fill="#87cee9"/>
        <path id="Trazado_50200" data-name="Trazado 50200" d="M293.942,90.379h-37.92a1.236,1.236,0,0,0-1.22,1.433l1.09,6.717a23.072,23.072,0,0,1,19.09,1.459,23.066,23.066,0,0,0,18.589,1.636l1.591-9.81A1.236,1.236,0,0,0,293.942,90.379Z" transform="translate(-253.294 -63.899)" fill="#d7f7ff"/>
        <path id="Trazado_50201" data-name="Trazado 50201" d="M284.614,155.412A10.547,10.547,0,0,0,295.25,146.9l2.93-18.066a23.071,23.071,0,0,1-18.653-1.614,23.076,23.076,0,0,0-19.148-1.438L263.8,146.9a10.547,10.547,0,0,0,10.636,8.517Z" transform="translate(-257.84 -91.501)" fill="#e2385e"/>
        <path id="Trazado_50202" data-name="Trazado 50202" d="M261.359,91.812a1.235,1.235,0,0,1,1.219-1.433h-6.557a1.236,1.236,0,0,0-1.22,1.433l1.09,6.717a23.4,23.4,0,0,1,6.338-1.353C261.938,95.384,261.359,91.813,261.359,91.812Z" transform="translate(-253.294 -63.899)" fill="#b7e9f9"/>
        <g id="Grupo_22706" data-name="Grupo 22706" transform="translate(2.539 32.906)">
          <path id="Trazado_50203" data-name="Trazado 50203" d="M281,155.681a10.547,10.547,0,0,1-10.636-8.517l-3.424-21.118-.222-1.37a23.393,23.393,0,0,0-6.336,1.37l3.425,21.118a10.547,10.547,0,0,0,10.636,8.517H281Z" transform="translate(-260.379 -124.676)" fill="#da1c4b"/>
          <path id="Trazado_50204" data-name="Trazado 50204" d="M391.8,192.13a2.17,2.17,0,1,0-1.647,2.589A2.17,2.17,0,0,0,391.8,192.13Z" transform="translate(-363.694 -178.112)" fill="#da1c4b"/>
          <path id="Trazado_50205" data-name="Trazado 50205" d="M323.754,225.281a3.25,3.25,0,1,1-3.25-3.25A3.25,3.25,0,0,1,323.754,225.281Z" transform="translate(-306.598 -203.791)" fill="#da1c4b"/>
        </g>
        <path id="Trazado_50206" data-name="Trazado 50206" d="M321.363,225.281a3.243,3.243,0,0,1,1.2-2.518,3.25,3.25,0,1,0,0,5.035A3.241,3.241,0,0,1,321.363,225.281Z" transform="translate(-304.059 -170.886)" fill="#bf0443"/>
        <path id="Trazado_50207" data-name="Trazado 50207" d="M383.125,189.82a3.576,3.576,0,1,0-3.489-2.8A3.548,3.548,0,0,0,383.125,189.82Zm-.645-3.986a.76.76,0,0,1,.478-.336.779.779,0,0,1,.168-.018.764.764,0,1,1-.646.354Z" transform="translate(-354.683 -138.898)"/>
        <path id="Trazado_50208" data-name="Trazado 50208" d="M357.481,174.787a1.405,1.405,0,1,0-1.4-1.405A1.407,1.407,0,0,0,357.481,174.787Z" transform="translate(-335.609 -130.209)"/>
        <path id="Trazado_50209" data-name="Trazado 50209" d="M313.952,223.588a4.655,4.655,0,1,0-4.655-4.655A4.66,4.66,0,0,0,313.952,223.588Zm0-6.5a1.845,1.845,0,1,1-1.845,1.844A1.846,1.846,0,0,1,313.952,217.088Z" transform="translate(-297.593 -164.584)"/>
        <path id="Trazado_50210" data-name="Trazado 50210" d="M450.3,273.606a8.4,8.4,0,1,0,8.4-8.4A8.409,8.409,0,0,0,450.3,273.606Zm13.988,0a5.588,5.588,0,1,1-5.588-5.589A5.594,5.594,0,0,1,464.293,273.606Z" transform="translate(-412.183 -205.972)"/>
        <path id="Trazado_50211" data-name="Trazado 50211" d="M264.9-23.12a1.405,1.405,0,0,0,1.406-1.405A1.405,1.405,0,0,0,264.9-25.93H249.469a2.641,2.641,0,0,0-2.607,3.063c.235,1.445,4.218,26.012,4.457,27.481a11.875,11.875,0,0,0,11.064,9.659V15.5a3.812,3.812,0,0,0,2.5,3.574v9.729a6.542,6.542,0,0,1-2.826,5.384l-4.82,3.326h-.973a3.053,3.053,0,0,0-3.05,3.049v1.352a3.053,3.053,0,0,0,3.05,3.05H280.59a3.029,3.029,0,0,0,.72-.089,4.395,4.395,0,0,0,.865.089h22.348a4.4,4.4,0,0,0,4.4-4.4V20.206a1.405,1.405,0,1,0-2.81,0v7.855H280.585V12.184a11.473,11.473,0,0,0,4.695-6.391h20.833v7.855a1.406,1.406,0,0,0,2.811,0v-12a21.955,21.955,0,0,0-4.034-12.719c-4.314-6.074-3.972-7.771-4.957-20.26h0l-.39-4.949A3.55,3.55,0,0,0,301.6-39.5v-7.9a3.554,3.554,0,0,0-3.55-3.551h-9.4a3.555,3.555,0,0,0-3.551,3.551v7.9a3.553,3.553,0,0,0,2.057,3.216c-.639,8.106-.656,8.333-.816,10.355H271.46a1.4,1.4,0,0,0-1.405,1.405,1.405,1.405,0,0,0,1.405,1.405h15.73l-1.358,8.369a21.558,21.558,0,0,1-16.743-1.78,24.566,24.566,0,0,0-18.684-2.045l-.737-4.544ZM271.664,15.5a1.016,1.016,0,0,1-1.1,1h-4.374a1.012,1.012,0,0,1-1-1V14.311h6.471Zm-3.967,13.3V19.313h1.464v9.494a9.351,9.351,0,0,0,4.04,7.7l1.467,1.012H262.189C263.555,36.575,267.7,34.264,267.7,28.808ZM256.028,41.919V40.566a.239.239,0,0,1,.239-.239H280.59a.24.24,0,0,1,.239.239v1.352a.244.244,0,0,1-.239.239H256.268A.239.239,0,0,1,256.028,41.919Zm50.085-11.047v9.7a1.592,1.592,0,0,1-1.59,1.59H283.631c.006-.08.01-.16.01-.239V40.566a3.053,3.053,0,0,0-3.05-3.05h-.005V30.871Zm-28.339,5.374L274.8,34.192h0a6.54,6.54,0,0,1-2.826-5.383V19.078a3.812,3.812,0,0,0,2.5-3.574v-1.23a12.886,12.886,0,0,0,3.3-.687ZM290-22.866a2.64,2.64,0,0,0-.888-2.431l.357-4.523h7.769c.714,9.058.69,9.451,1.072,11.252l-4.815,3.317a.25.25,0,0,1-.283,0l-4-2.755C289.713-21.119,289.527-19.974,290-22.866Zm7.016-9.764h-7.326l.262-3.32h6.8Zm1.777-6.871a.741.741,0,0,1-.74.741h-9.4a.741.741,0,0,1-.74-.741v-2.58h10.88Zm3.8,30.046a19.16,19.16,0,0,1,3.519,11.1V2.983H285.8c.376-2.32,2.626-16.2,2.906-17.921l2.9,2a3.077,3.077,0,0,0,3.472,0l4.035-2.78A24.787,24.787,0,0,0,302.593-9.455ZM288.649-48.147h9.4a.741.741,0,0,1,.74.741v2.515h-10.88v-2.515A.741.741,0,0,1,288.649-48.147ZM250.859-15.778a21.8,21.8,0,0,1,16.909,1.728,24.3,24.3,0,0,0,17.57,2.347L282.764,4.165c-.626,3.859-4.157,7.336-9.695,7.336h-9.281c-5.556,0-9.073-3.5-9.695-7.336Z" transform="translate(-246.827 50.957)"/>
      </g>
      <path id="Trazado_50212" data-name="Trazado 50212" d="M329.325,193.281a2.964,2.964,0,0,1,0,4.222,2.965,2.965,0,0,1-2.994,2.994,2.965,2.965,0,0,1-4.221,0,2.979,2.979,0,0,1-2.125-.868,12.306,12.306,0,0,0-.823-1.737,1.72,1.72,0,0,1-.045-.389,2.965,2.965,0,0,1,0-4.222,2.965,2.965,0,0,1,2.994-2.994,2.964,2.964,0,0,1,4.221,0,2.965,2.965,0,0,1,2.994,2.994Z" transform="translate(-267.34 -144.371)" fill="#b4dd7f"/>
      <path id="Trazado_50213" data-name="Trazado 50213" d="M121.6,193.281a2.965,2.965,0,0,1,0,4.222,1.719,1.719,0,0,1-.045.389,12.287,12.287,0,0,0-.823,1.737,2.979,2.979,0,0,1-2.125.868,2.965,2.965,0,0,1-4.222,0,2.965,2.965,0,0,1-2.994-2.994,2.964,2.964,0,0,1,0-4.222,2.965,2.965,0,0,1,2.994-2.994,2.964,2.964,0,0,1,4.222,0,2.965,2.965,0,0,1,2.994,2.994Z" transform="translate(-98.534 -144.371)" fill="#b4dd7f"/>
      <path id="Trazado_50214" data-name="Trazado 50214" d="M123.476,295.755h-5.987a4.491,4.491,0,0,0-8.981,0H102.52a10.478,10.478,0,0,1,20.956,0Z" transform="translate(-92.041 -222.282)" fill="#ffc729"/>
      <g id="Grupo_22708" data-name="Grupo 22708" transform="translate(4.491 57.007)">
        <path id="Trazado_50215" data-name="Trazado 50215" d="M143.458,321.724h-8.981a4.491,4.491,0,1,1,8.981,0Z" transform="translate(-122.502 -305.259)" fill="#fcd770"/>
        <path id="Trazado_50216" data-name="Trazado 50216" d="M70.562,269.784a16.456,16.456,0,0,1,16.465-16.465c.21,0,.4,0,.614.015a16.319,16.319,0,0,1,11.031,4.8,16.413,16.413,0,0,1,4.82,11.646H97.505a10.478,10.478,0,0,0-20.956,0Z" transform="translate(-70.562 -253.319)" fill="#fcd770"/>
        <path id="Trazado_50217" data-name="Trazado 50217" d="M262.793,253.319a16.456,16.456,0,0,1,16.465,16.465h-6a10.745,10.745,0,0,0-10.133-10.478,10.48,10.48,0,0,0-10.808,10.478h-5.987a16.413,16.413,0,0,1,4.82-11.646,16.319,16.319,0,0,1,11.031-4.8C262.389,253.319,262.584,253.319,262.793,253.319Z" transform="translate(-213.398 -253.319)" fill="#fcd770"/>
        <path id="Trazado_50218" data-name="Trazado 50218" d="M319.209,321.742h-8.966a4.491,4.491,0,0,1,5.3-4.416A4.627,4.627,0,0,1,319.209,321.742Z" transform="translate(-265.338 -305.277)" fill="#fcd770"/>
        <path id="Trazado_50219" data-name="Trazado 50219" d="M229.912,257.809l.33.329a16.413,16.413,0,0,0-4.82,11.646,16.413,16.413,0,0,0-4.82-11.646l.33-.329a4.491,4.491,0,0,1,8.981,0Z" transform="translate(-192.491 -253.319)" fill="#fcd770"/>
      </g>
      <path id="Trazado_50220" data-name="Trazado 50220" d="M203.024,227.349a4.484,4.484,0,0,0-4.491,4.491l-.33.329a16.593,16.593,0,0,0-5.164-3.5,10.475,10.475,0,0,1,19.968,0,16.591,16.591,0,0,0-5.164,3.5l-.33-.329A4.484,4.484,0,0,0,203.024,227.349Z" transform="translate(-165.602 -170.342)" fill="#ffc729"/>
      <path id="Trazado_50221" data-name="Trazado 50221" d="M167.59,202.7a16.635,16.635,0,0,0-5.868-1.3,12.4,12.4,0,0,1,.629-1.766,2.782,2.782,0,0,0,.823-1.737,16.459,16.459,0,0,1,28.8,0,2.78,2.78,0,0,0,.823,1.737,12.4,12.4,0,0,1,.629,1.766,16.635,16.635,0,0,0-5.868,1.3,10.475,10.475,0,0,0-19.968,0Z" transform="translate(-140.152 -144.371)" fill="#fcd770"/>
      <path id="Trazado_50222" data-name="Trazado 50222" d="M384.814,341.2H393.8v5.987H383.587a13.156,13.156,0,0,0,1.227-5.553,4.112,4.112,0,0,0-.015-.434Z" transform="translate(-320.449 -267.729)" fill="#ff826e"/>
      <path id="Trazado_50223" data-name="Trazado 50223" d="M111.449,341.2a1.415,1.415,0,0,1,.015.254,8.777,8.777,0,0,1-1.422,4.8,8.341,8.341,0,0,1-.7.928H54.584V341.2Z" transform="translate(-53.086 -267.729)" fill="#ff826e"/>
      <path id="Trazado_50224" data-name="Trazado 50224" d="M299.246,296.17a13.162,13.162,0,0,1-1.227,5.553,14.159,14.159,0,0,1-.9,1.617,12.93,12.93,0,0,1-5.673,4.849l-4.131,1.827a2.594,2.594,0,0,0-1.433,1.628h-6.065a7.01,7.01,0,0,1,4.146-5.789l4.056-1.8a8.832,8.832,0,0,0,5.238-8.067,1.452,1.452,0,0,0-.015-.255,4.629,4.629,0,0,0-3.667-4.416,4.492,4.492,0,0,0-5.3,4.416H278.29A10.478,10.478,0,0,1,289.1,285.259a10.745,10.745,0,0,1,10.134,10.477A4.213,4.213,0,0,1,299.246,296.17Z" transform="translate(-234.88 -222.263)" fill="#fcd770"/>
      <path id="Trazado_50225" data-name="Trazado 50225" d="M224.387,11.883a6.917,6.917,0,0,0,0,9.784l1.316,1.316a3.9,3.9,0,0,1,1.148,2.774V29.5h2.994V25.756a6.87,6.87,0,0,0-2.027-4.892L226.5,19.549a3.924,3.924,0,0,1,0-5.549l1.316-1.316a6.917,6.917,0,0,0,0-9.782l-2.9-2.9L222.8,2.117l2.9,2.9a3.924,3.924,0,0,1,0,5.55Z" transform="translate(-189.429 9.547)"/>
      <path id="Trazado_50226" data-name="Trazado 50226" d="M280.313,35.851a6.917,6.917,0,0,0,0,9.784l1.316,1.316a3.9,3.9,0,0,1,1.148,2.774v3.742h2.994V49.724a6.87,6.87,0,0,0-2.027-4.892l-1.316-1.316a3.924,3.924,0,0,1,0-5.549l1.316-1.316a6.917,6.917,0,0,0,0-9.782l-2.9-2.9-2.117,2.117,2.9,2.9a3.924,3.924,0,0,1,0,5.55Z" transform="translate(-234.877 -9.93)"/>
      <path id="Trazado_50227" data-name="Trazado 50227" d="M168.462,35.851a6.917,6.917,0,0,0,0,9.784l1.316,1.316a3.9,3.9,0,0,1,1.148,2.774v3.742h2.994V49.724a6.871,6.871,0,0,0-2.027-4.892l-1.316-1.316a3.924,3.924,0,0,1,0-5.549l1.316-1.316a6.917,6.917,0,0,0,0-9.782l-2.9-2.9-2.117,2.117,2.9,2.9a3.924,3.924,0,0,1,0,5.55Z" transform="translate(-143.982 -9.93)"/>
      <path id="Trazado_50228" data-name="Trazado 50228" d="M120.607,373.16H54.583v2.994a11.972,11.972,0,0,0,11.975,11.975h47.9a11.971,11.971,0,0,0,11.975-11.975V373.16Z" transform="translate(-53.085 -293.7)" fill="#e6e9ed"/>
      <path id="Trazado_50229" data-name="Trazado 50229" d="M118.364,209.85a17.98,17.98,0,0,0-10.615-14.912,4.514,4.514,0,0,0,1.014-.751,4.466,4.466,0,0,0,1.278-2.57,4.5,4.5,0,0,0,0-5.441,4.5,4.5,0,0,0-3.848-3.848,4.593,4.593,0,0,0-5.441,0,4.5,4.5,0,0,0-3.85,3.848,4.468,4.468,0,0,0-.281.438,17.873,17.873,0,0,0-25.216,0,4.465,4.465,0,0,0-.281-.438,4.5,4.5,0,0,0-3.85-3.848,4.593,4.593,0,0,0-5.441,0,4.5,4.5,0,0,0-3.848,3.848,4.5,4.5,0,0,0,0,5.439,4.416,4.416,0,0,0,2.291,3.322A17.983,17.983,0,0,0,49.661,209.85H46.59v10.477A13.488,13.488,0,0,0,60.063,233.8H92.394a.069.069,0,0,0,.009-.028H103.37c.118.021.184.03.184.03h4.408a13.486,13.486,0,0,0,13.471-13.471V209.85ZM99.418,187.836l.438-.438v-.62a1.5,1.5,0,0,1,1.5-1.5h.622l.438-.44a1.531,1.531,0,0,1,2.113,0l.438.44h.622a1.494,1.494,0,0,1,1.5,1.5v.62l.438.438a1.5,1.5,0,0,1,0,2.117l-.438.438v.622a1.5,1.5,0,0,1-1.5,1.5h-.622l-.438.438a1.528,1.528,0,0,1-2.113,0l-.438-.438h-.622a1.466,1.466,0,0,1-.892-.328q-.278-.635-.605-1.242v-.549l-.438-.438a1.5,1.5,0,0,1,0-2.117Zm1.057,8.543a14.989,14.989,0,0,1,14.893,13.471h-3.08a12.209,12.209,0,0,0-11.444-10.471A11.96,11.96,0,0,0,88.6,209.85h-3.02A14.989,14.989,0,0,1,100.475,196.38ZM103,209.85H97.9a2.929,2.929,0,0,1,3.121-1.448A2.9,2.9,0,0,1,103,209.85ZM81.018,199.374a2.994,2.994,0,0,1,5.988,0h.12a18.007,18.007,0,0,0-3.114,4.817,17.909,17.909,0,0,0-3.116-4.817Zm-2.546-2.25a17.94,17.94,0,0,0-2.542-1.649,8.968,8.968,0,0,1,16.165,0,17.778,17.778,0,0,0-2.542,1.649,5.975,5.975,0,0,0-11.08,0Zm-7.4-5.263a14.964,14.964,0,0,1,25.889,0,4.455,4.455,0,0,0,.742,1.763,17.953,17.953,0,0,0-2.859.682,11.942,11.942,0,0,0-21.656,0,18.109,18.109,0,0,0-2.859-.682A4.423,4.423,0,0,0,71.068,191.861Zm-11.005-2.966a1.488,1.488,0,0,1,.438-1.059l.438-.438v-.62a1.5,1.5,0,0,1,1.5-1.5h.62l.44-.44a1.531,1.531,0,0,1,2.113,0l.438.44h.62a1.494,1.494,0,0,1,1.5,1.5v.62l.438.438a1.5,1.5,0,0,1,0,2.117l-.438.438v.549c-.215.4-.418.819-.6,1.24a1.467,1.467,0,0,1-.894.328h-.62l-.438.44a1.531,1.531,0,0,1-2.113,0l-.44-.44h-.62a1.494,1.494,0,0,1-1.5-1.5v-.62l-.438-.438A1.485,1.485,0,0,1,60.063,188.895Zm7.485,7.485A14.988,14.988,0,0,1,82.438,209.85H79.416a11.965,11.965,0,0,0-23.743,0H52.651A14.994,14.994,0,0,1,67.547,196.38Zm0,8.98a5.982,5.982,0,0,0-5.776,4.491H58.7a8.97,8.97,0,0,1,17.692,0H73.322A5.981,5.981,0,0,0,67.547,205.359Zm2.576,4.491H64.969a2.967,2.967,0,0,1,5.154,0Zm-20.54,2.994h53.771a7.321,7.321,0,0,1-1.253,2.994H49.584Zm68.855,7.485a10.489,10.489,0,0,1-10.477,10.477H104.2v.03H88.992v-.03H60.063a10.49,10.49,0,0,1-10.479-10.477v-1.5h48.33l-2.85,1.267a8.536,8.536,0,0,0-5.04,7.157h3.005a5.541,5.541,0,0,1,3.251-4.422l4.056-1.8a10.319,10.319,0,0,0,6.128-9.428,6.188,6.188,0,0,0-4.927-6.149,5.955,5.955,0,0,0-6.838,4.4H91.63a8.963,8.963,0,0,1,9.124-7.479,9.276,9.276,0,0,1,8.7,9.413,11.658,11.658,0,0,1-6.917,10.644l-4.12,1.832a4.105,4.105,0,0,0-2.364,2.994h3.219a1.1,1.1,0,0,1,.362-.26l4.12-1.83a14.592,14.592,0,0,0,6.842-6.333h7.839Zm0-4.491h-6.571a14.6,14.6,0,0,0,.506-2.994h6.065Z" transform="translate(-46.59 -137.875)"/>
    </g>
  </g>
</svg>
