<svg xmlns="http://www.w3.org/2000/svg" width="400.812" height="422.094" viewBox="0 0 400.812 422.094">
  <g id="Grupo_1101896" data-name="Grupo 1101896" transform="translate(-285 -10023.375)">
    <path id="Trazado_873105" data-name="Trazado 873105" d="M417.512,417.285a2.3,2.3,0,1,0-.153-3.571A2.287,2.287,0,0,0,417.512,417.285Z" transform="translate(264.658 9902.533)" fill="#ffd947"/>
    <path id="Trazado_873106" data-name="Trazado 873106" d="M303.554,45.832a2.3,2.3,0,1,0-.154-3.571A2.287,2.287,0,0,0,303.554,45.832Z" transform="translate(304.233 10043.682)" fill="#7d6eb2"/>
    <path id="Trazado_873110" data-name="Trazado 873110" d="M391.229,443.007a5.013,5.013,0,1,0-2.453-7.15A5.043,5.043,0,0,0,391.229,443.007Z" transform="translate(267.366 9900.607)" fill="#ffd947"/>
    <path id="Trazado_873111" data-name="Trazado 873111" d="M177.082,59.143a5.013,5.013,0,1,0-2.453-7.15A5.043,5.043,0,0,0,177.082,59.143Z" transform="translate(177.777 10025.919)" fill="#7d6eb2"/>
    <path id="Trazado_873113" data-name="Trazado 873113" d="M322.527,69.974a5.014,5.014,0,1,0-2.453-7.15A5.043,5.043,0,0,0,322.527,69.974Z" transform="translate(302.632 10041.905)" fill="#ffd947"/>
    <path id="Elipse_11484" data-name="Elipse 11484" d="M2.456-.75A3.206,3.206,0,1,1-.75,2.456,3.209,3.209,0,0,1,2.456-.75Zm0,4.911A1.706,1.706,0,1,0,.75,2.456,1.708,1.708,0,0,0,2.456,4.161Z" transform="translate(325.312 10362.521)" fill="#26aab7"/>
    <path id="Elipse_11486" data-name="Elipse 11486" d="M2.456-.75A3.206,3.206,0,1,1-.75,2.456,3.209,3.209,0,0,1,2.456-.75Zm0,4.911A1.706,1.706,0,1,0,.75,2.456,1.708,1.708,0,0,0,2.456,4.161Z" transform="translate(616.557 10347.564)" fill="#fff"/>
    <path id="Elipse_11487" data-name="Elipse 11487" d="M2.456-.75A3.206,3.206,0,1,1-.75,2.456,3.209,3.209,0,0,1,2.456-.75Zm0,4.911A1.706,1.706,0,1,0,.75,2.456,1.708,1.708,0,0,0,2.456,4.161Z" transform="translate(300.147 10215.732)" fill="#7d6eb2"/>
    <path id="Elipse_11488" data-name="Elipse 11488" d="M2.456-.75A3.206,3.206,0,1,1-.75,2.456,3.209,3.209,0,0,1,2.456-.75Zm0,4.911A1.706,1.706,0,1,0,.75,2.456,1.708,1.708,0,0,0,2.456,4.161Z" transform="translate(596.953 10255.887)" fill="#aee6e6"/>
    <path id="Elipse_11489" data-name="Elipse 11489" d="M2.456-.75A3.206,3.206,0,1,1-.75,2.456,3.209,3.209,0,0,1,2.456-.75Zm0,4.911A1.706,1.706,0,1,0,.75,2.456,1.708,1.708,0,0,0,2.456,4.161Z" transform="translate(324.479 10102.683)" fill="#7d6eb2"/>
    <g id="Grupo_1101138" data-name="Grupo 1101138" transform="translate(285 10023.375)">
      <path id="Trazado_873116" data-name="Trazado 873116" d="M239.691,74.293c-40.978-5.659-84.265-4.275-121.554,13.636-51.712,24.838-85.675,81.152-86.977,138.5s28.576,113.71,74.733,147.777,107.03,46.143,163.478,35.914c56.92-10.315,110.345-43.757,140.035-93.4,19.038-31.835,27.937-71.145,17.419-106.717-6.35-21.471-19.331-40.493-34.6-56.87A255.633,255.633,0,0,0,239.691,74.293Z" transform="translate(-31.119 7.697)" fill="#ffd947"/>
      <g id="Grupo_1098987" data-name="Grupo 1098987" transform="translate(34.188)">
        <path id="Trazado_873103" data-name="Trazado 873103" d="M379.233,94.319a2.316,2.316,0,1,0-.155-3.6A2.3,2.3,0,0,0,379.233,94.319Z" transform="translate(-84.357 -90.172)" fill="#fff"/>
        <path id="Trazado_873104" data-name="Trazado 873104" d="M149.858,396.862a2.316,2.316,0,1,0-.155-3.6A2.3,2.3,0,0,0,149.858,396.862Z" transform="translate(-90.35 -27.801)" fill="#fff"/>
        <path id="Trazado_873105-2" data-name="Trazado 873105" d="M417.519,417.313a2.316,2.316,0,1,0-.154-3.6A2.3,2.3,0,0,0,417.519,417.313Z" transform="translate(-114.158 -29.62)" fill="#ffd947"/>
        <path id="Trazado_873106-2" data-name="Trazado 873106" d="M303.561,45.86a2.316,2.316,0,1,0-.155-3.6A2.3,2.3,0,0,0,303.561,45.86Z" transform="translate(6.215 20.558)" fill="#7d6eb2"/>
        <path id="Trazado_873108" data-name="Trazado 873108" d="M104.889,429.178a2.316,2.316,0,1,0-.155-3.6A2.3,2.3,0,0,0,104.889,429.178Z" transform="translate(-86.35 -30.675)" fill="#fff"/>
        <path id="Trazado_873109" data-name="Trazado 873109" d="M340.441,407.48a5.049,5.049,0,1,0-2.47-7.2A5.078,5.078,0,0,0,340.441,407.48Z" transform="translate(-107.109 -28.253)" fill="#fff"/>
        <path id="Trazado_873110-2" data-name="Trazado 873110" d="M391.251,443.073a5.048,5.048,0,1,0-2.47-7.2A5.078,5.078,0,0,0,391.251,443.073Z" transform="translate(-111.629 -31.419)" fill="#ffd947"/>
        <path id="Trazado_873111-2" data-name="Trazado 873111" d="M177.1,59.209a5.048,5.048,0,1,0-2.47-7.2A5.078,5.078,0,0,0,177.1,59.209Z" transform="translate(-119.001 2.725)" fill="#7d6eb2"/>
        <path id="Trazado_873113-2" data-name="Trazado 873113" d="M322.549,70.041a5.049,5.049,0,1,0-2.47-7.2A5.078,5.078,0,0,0,322.549,70.041Z" transform="translate(4.719 37.875)" fill="#ffd947"/>
        <path id="Elipse_11484-2" data-name="Elipse 11484" d="M2.473-.75A3.223,3.223,0,1,1-.75,2.473,3.226,3.226,0,0,1,2.473-.75Zm0,4.945A1.723,1.723,0,1,0,.75,2.473,1.725,1.725,0,0,0,2.473,4.2Z" transform="translate(25.339 331.308)" fill="#26aab7"/>
        <path id="Elipse_11485" data-name="Elipse 11485" d="M2.473-.75A3.223,3.223,0,1,1-.75,2.473,3.226,3.226,0,0,1,2.473-.75Zm0,4.945A1.723,1.723,0,1,0,.75,2.473,1.725,1.725,0,0,0,2.473,4.2Z" transform="translate(67.797 416.399)" fill="#26aab7"/>
        <path id="Elipse_11486-2" data-name="Elipse 11486" d="M2.473-.75A3.223,3.223,0,1,1-.75,2.473,3.226,3.226,0,0,1,2.473-.75Zm0,4.945A1.723,1.723,0,1,0,.75,2.473,1.725,1.725,0,0,0,2.473,4.2Z" transform="translate(318.606 316.248)" fill="#fff"/>
        <path id="Elipse_11487-2" data-name="Elipse 11487" d="M2.473-.75A3.223,3.223,0,1,1-.75,2.473,3.226,3.226,0,0,1,2.473-.75Zm0,4.945A1.723,1.723,0,1,0,.75,2.473,1.725,1.725,0,0,0,2.473,4.2Z" transform="translate(0 183.5)" fill="#7d6eb2"/>
        <path id="Elipse_11488-2" data-name="Elipse 11488" d="M2.473-.75A3.223,3.223,0,1,1-.75,2.473,3.226,3.226,0,0,1,2.473-.75Zm0,4.945A1.723,1.723,0,1,0,.75,2.473,1.725,1.725,0,0,0,2.473,4.2Z" transform="translate(298.866 223.934)" fill="#aee6e6"/>
        <path id="Elipse_11489-2" data-name="Elipse 11489" d="M2.473-.75A3.223,3.223,0,1,1-.75,2.473,3.226,3.226,0,0,1,2.473-.75Zm0,4.945A1.723,1.723,0,1,0,.75,2.473,1.725,1.725,0,0,0,2.473,4.2Z" transform="translate(24.5 95.767)" fill="#7d6eb2"/>
      </g>
    </g>
    <g id="Grupo_23456" data-name="Grupo 23456" transform="translate(285 10114.569)">
      <path id="Trazado_50592" data-name="Trazado 50592" d="M90.05,204.54c0-.08.012-.157.012-.236a7.559,7.559,0,0,0-11.828-6.24,12.537,12.537,0,0,0-23.412,6.24c0,.079,0,.158.006.236Z" transform="translate(-50.513 -109.898)" fill="#faffff" opacity="0.4"/>
      <path id="Trazado_50593" data-name="Trazado 50593" d="M444.05,302.539c0-.08.012-.157.012-.236a7.559,7.559,0,0,0-11.828-6.24,12.537,12.537,0,0,0-23.412,6.24c0,.079,0,.158.006.236Z" transform="translate(-46.943 -108.91)" fill="#faffff" opacity="0.4"/>
      <ellipse id="Elipse_1444" data-name="Elipse 1444" cx="185.35" cy="11.616" rx="185.35" ry="11.616" transform="translate(16.161 257.86)" fill="#1d2a5b"/>
      <g id="Grupo_23455" data-name="Grupo 23455" transform="translate(2.91)">
        <g id="Grupo_23421" data-name="Grupo 23421" transform="translate(0 125.501)">
          <g id="Grupo_23392" data-name="Grupo 23392" transform="translate(0 56.362)">
            <g id="Grupo_23385" data-name="Grupo 23385" transform="translate(64.458 18.817)">
              <path id="Trazado_50594" data-name="Trazado 50594" d="M149.632,309.392h0a21.863,21.863,0,0,1-1.262,30.892h0A21.862,21.862,0,0,1,149.632,309.392Z" transform="translate(-116.997 -309.392)" fill="#4f67af"/>
              <path id="Trazado_50595" data-name="Trazado 50595" d="M117.252,342.667h0a21.86,21.86,0,0,1,30.851-2.022h0A21.862,21.862,0,0,1,117.252,342.667Z" transform="translate(-117.252 -309.132)" fill="#4f67af"/>
            </g>
            <g id="Grupo_23386" data-name="Grupo 23386" transform="translate(55.607 7.757)">
              <path id="Trazado_50596" data-name="Trazado 50596" d="M132.937,298.443h0a20.106,20.106,0,0,1,3.434,28.227h0A20.107,20.107,0,0,1,132.937,298.443Z" transform="translate(-108.286 -298.443)" fill="#4f67af"/>
              <path id="Trazado_50597" data-name="Trazado 50597" d="M108.489,333.462h0a20.106,20.106,0,0,1,27.7-6.409h0A20.106,20.106,0,0,1,108.489,333.462Z" transform="translate(-108.489 -298.185)" fill="#4f67af"/>
            </g>
            <g id="Grupo_23387" data-name="Grupo 23387" transform="translate(47.436 2.441)">
              <path id="Trazado_50598" data-name="Trazado 50598" d="M112.763,293.18h0a17.529,17.529,0,0,1,9.472,22.909h0A17.528,17.528,0,0,1,112.763,293.18Z" transform="translate(-100.288 -293.18)" fill="#4f67af"/>
              <path id="Trazado_50599" data-name="Trazado 50599" d="M100.4,328.337h0a17.53,17.53,0,0,1,21.775-11.848h0A17.529,17.529,0,0,1,100.4,328.337Z" transform="translate(-100.399 -292.952)" fill="#4f67af"/>
            </g>
            <g id="Grupo_23388" data-name="Grupo 23388" transform="translate(37.677)">
              <path id="Trazado_50600" data-name="Trazado 50600" d="M95.692,290.763h0A16.569,16.569,0,0,1,108.72,310.24h0A16.57,16.57,0,0,1,95.692,290.763Z" transform="translate(-90.691 -290.763)" fill="#4f67af"/>
              <path id="Trazado_50601" data-name="Trazado 50601" d="M90.738,325.674h0a16.569,16.569,0,0,1,17.986-15.019h0A16.569,16.569,0,0,1,90.738,325.674Z" transform="translate(-90.738 -290.563)" fill="#4f67af"/>
            </g>
            <g id="Grupo_23389" data-name="Grupo 23389" transform="translate(27.782 3.614)">
              <path id="Trazado_50602" data-name="Trazado 50602" d="M80.944,294.341h0a14.079,14.079,0,0,1,13.845,14.308h0A14.077,14.077,0,0,1,80.944,294.341Z" transform="translate(-80.942 -294.341)" fill="#4f67af"/>
              <path id="Trazado_50603" data-name="Trazado 50603" d="M82.078,324.307h0a14.079,14.079,0,0,1,12.758-15.286h0A14.079,14.079,0,0,1,82.078,324.307Z" transform="translate(-80.931 -294.193)" fill="#4f67af"/>
            </g>
            <g id="Grupo_23390" data-name="Grupo 23390" transform="translate(13.823 10.328)">
              <path id="Trazado_50604" data-name="Trazado 50604" d="M67.122,301.182h0A11.718,11.718,0,0,1,80.759,310.6h0A11.719,11.719,0,0,1,67.122,301.182Z" transform="translate(-67.122 -300.988)" fill="#4f67af"/>
              <path id="Trazado_50605" data-name="Trazado 50605" d="M72.918,325.474h0a11.72,11.72,0,0,1,7.919-14.559h0A11.719,11.719,0,0,1,72.918,325.474Z" transform="translate(-67.068 -300.888)" fill="#4f67af"/>
            </g>
            <g id="Grupo_23391" data-name="Grupo 23391" transform="translate(4.716 18.647)">
              <path id="Trazado_50606" data-name="Trazado 50606" d="M58.106,309.882h0a8.635,8.635,0,0,1,11.279,4.68h0A8.634,8.634,0,0,1,58.106,309.882Z" transform="translate(-58.106 -309.224)" fill="#4f67af"/>
              <path id="Trazado_50607" data-name="Trazado 50607" d="M66.019,326.495h0a8.634,8.634,0,0,1,3.457-11.712h0A8.634,8.634,0,0,1,66.019,326.495Z" transform="translate(-58.037 -309.168)" fill="#4f67af"/>
            </g>
            <path id="Trazado_50608" data-name="Trazado 50608" d="M53.437,324.324h0a8.633,8.633,0,0,1,10.186-6.734h0A8.635,8.635,0,0,1,53.437,324.324Z" transform="translate(-53.437 -290.494)" fill="#4f67af"/>
            <path id="Trazado_50609" data-name="Trazado 50609" d="M152.8,345.311a84.4,84.4,0,0,0-7.741-10.8,90.692,90.692,0,0,0-9.228-9.5,75.444,75.444,0,0,0-10.621-7.9c-.958-.552-1.893-1.141-2.868-1.661l-2.948-1.515-3.036-1.331c-1.015-.434-2.071-.77-3.1-1.159a56.835,56.835,0,0,0-12.917-2.781,60.116,60.116,0,0,0-13.182.48,73.96,73.96,0,0,0-24.584,9.1,73.732,73.732,0,0,1,24.645-8.688,59.612,59.612,0,0,1,13.063-.272,56.158,56.158,0,0,1,12.7,2.943c1.012.4,2.046.745,3.04,1.189l2.968,1.359,2.88,1.537c.953.525,1.865,1.123,2.8,1.68A74.291,74.291,0,0,1,135,325.93a89.316,89.316,0,0,1,8.94,9.5,83.03,83.03,0,0,1,7.411,10.681Z" transform="translate(-53.345 -290.584)" fill="#fff"/>
          </g>
          <g id="Grupo_23397" data-name="Grupo 23397" transform="translate(336.351)">
            <path id="Trazado_50610" data-name="Trazado 50610" d="M422.615,235.529h0c-19.208-3.442-31.325,9.2-27.062,28.247h0C414.76,267.218,426.876,254.571,422.615,235.529Z" transform="translate(-386.347 -234.964)" fill="#afc6f5"/>
            <g id="Grupo_23393" data-name="Grupo 23393" transform="translate(0 3.727)">
              <path id="Trazado_50611" data-name="Trazado 50611" d="M386.61,272.795l-.179-.178,33.31-33.964.18.177Z" transform="translate(-386.431 -238.653)" fill="#fff"/>
            </g>
            <g id="Grupo_23394" data-name="Grupo 23394" transform="translate(21.515 4.664)">
              <rect id="Rectángulo_5166" data-name="Rectángulo 5166" width="0.253" height="9.121" transform="translate(0 0.056) rotate(-12.847)" fill="#fff"/>
            </g>
            <g id="Grupo_23395" data-name="Grupo 23395" transform="translate(18.217 19.077)">
              <path id="Trazado_50612" data-name="Trazado 50612" d="M414.951,255.353,404.466,254.1l.03-.251,10.486,1.252Z" transform="translate(-404.466 -253.851)" fill="#fff"/>
            </g>
            <g id="Grupo_23396" data-name="Grupo 23396" transform="translate(11.55 14.495)">
              <path id="Trazado_50613" data-name="Trazado 50613" d="M399.774,259.074l-1.909-9.712.249-.048,1.909,9.711Z" transform="translate(-397.865 -249.314)" fill="#fff"/>
            </g>
          </g>
          <g id="Grupo_23402" data-name="Grupo 23402" transform="translate(334.096 90.891)">
            <path id="Trazado_50614" data-name="Trazado 50614" d="M434.936,341.061h0c-7.436-18.041-24.616-21.446-38.372-7.6h0C404,351.5,421.181,354.9,434.936,341.061Z" transform="translate(-384.073 -324.948)" fill="#7490d6"/>
            <g id="Grupo_23398" data-name="Grupo 23398" transform="translate(0 5.528)">
              <path id="Trazado_50615" data-name="Trazado 50615" d="M430.753,340.462,384.2,330.667l.051-.247,46.555,9.794Z" transform="translate(-384.198 -330.421)" fill="#fff"/>
            </g>
            <g id="Grupo_23399" data-name="Grupo 23399" transform="translate(33.017 5.917)">
              <path id="Trazado_50616" data-name="Trazado 50616" d="M417.065,337.478l-.18-.177,6.4-6.495.18.177Z" transform="translate(-416.886 -330.806)" fill="#fff"/>
            </g>
            <g id="Grupo_23400" data-name="Grupo 23400" transform="translate(25.334 10.888)">
              <path id="Trazado_50617" data-name="Trazado 50617" d="M413.868,345.35l-4.589-9.512.227-.111,4.589,9.512Z" transform="translate(-409.279 -335.727)" fill="#fff"/>
            </g>
            <g id="Grupo_23401" data-name="Grupo 23401" transform="translate(18.623 2.805)">
              <path id="Trazado_50618" data-name="Trazado 50618" d="M402.808,334.743l-.174-.184,7.156-6.835.174.184Z" transform="translate(-402.635 -327.725)" fill="#fff"/>
            </g>
          </g>
          <g id="Grupo_23407" data-name="Grupo 23407" transform="translate(27.002 81.316)">
            <path id="Trazado_50619" data-name="Trazado 50619" d="M80.169,340.173h0c19.81,13.237,39.547,5.006,44.083-18.385h0C104.442,308.551,84.705,316.782,80.169,340.173Z" transform="translate(-80.169 -315.468)" fill="#afc6f5"/>
            <g id="Grupo_23403" data-name="Grupo 23403" transform="translate(4.749 0.626)">
              <rect id="Rectángulo_5167" data-name="Rectángulo 5167" width="58.085" height="0.253" transform="translate(0 21.72) rotate(-21.959)" fill="#fff"/>
            </g>
            <g id="Grupo_23404" data-name="Grupo 23404" transform="translate(18.261 16.269)">
              <rect id="Rectángulo_5168" data-name="Rectángulo 5168" width="11.136" height="0.253" transform="translate(0 10.94) rotate(-79.233)" fill="#fff"/>
            </g>
            <g id="Grupo_23405" data-name="Grupo 23405" transform="translate(18.103 6.029)">
              <path id="Trazado_50620" data-name="Trazado 50620" d="M109.213,328.178l-11.122-6.524.128-.217,11.122,6.524Z" transform="translate(-98.091 -321.436)" fill="#fff"/>
            </g>
            <g id="Grupo_23406" data-name="Grupo 23406" transform="translate(34.214 9.28)">
              <path id="Trazado_50621" data-name="Trazado 50621" d="M114.288,336.509l-.247-.055,2.609-11.8.247.055Z" transform="translate(-114.041 -324.655)" fill="#fff"/>
            </g>
          </g>
          <g id="Grupo_23412" data-name="Grupo 23412" transform="translate(18.473 31.421)">
            <path id="Trazado_50622" data-name="Trazado 50622" d="M71.726,271.049h0c.991,10.658,7.538,17.127,15.177,20.784,7.9,3.643,16.888,4.476,28.8,3.57h0c3.377-9.8,1.609-19.146-6.751-24.665C100.928,265.292,86.311,263.668,71.726,271.049Z" transform="translate(-71.726 -266.071)" fill="#7490d6"/>
            <g id="Grupo_23408" data-name="Grupo 23408" transform="translate(6.107 6.245)">
              <path id="Trazado_50623" data-name="Trazado 50623" d="M124.042,307.047A75.1,75.1,0,0,0,105.56,286.7a88.243,88.243,0,0,0-27.788-14.211l.075-.24A88.471,88.471,0,0,1,105.714,286.5a74.367,74.367,0,0,1,18.544,20.415Z" transform="translate(-77.772 -272.253)" fill="#fff"/>
            </g>
            <g id="Grupo_23409" data-name="Grupo 23409" transform="translate(10.959 13.625)">
              <path id="Trazado_50624" data-name="Trazado 50624" d="M82.679,284.262l-.1-.231a94.093,94.093,0,0,1,12.246-4.471l.07.242A93.7,93.7,0,0,0,82.679,284.262Z" transform="translate(-82.576 -279.56)" fill="#fff"/>
            </g>
            <g id="Grupo_23410" data-name="Grupo 23410" transform="translate(31.618 7.659)">
              <path id="Trazado_50625" data-name="Trazado 50625" d="M103.28,285.031l-.252-.027c.4-3.762.859-7.58,1.36-11.35l.252.033C104.137,277.454,103.681,281.271,103.28,285.031Z" transform="translate(-103.028 -273.653)" fill="#fff"/>
            </g>
            <g id="Grupo_23411" data-name="Grupo 23411" transform="translate(26.069 23.992)">
              <path id="Trazado_50626" data-name="Trazado 50626" d="M97.6,292.412l-.067-.244a83.306,83.306,0,0,1,12.432-2.344l.027.251A83.042,83.042,0,0,0,97.6,292.412Z" transform="translate(-97.535 -289.823)" fill="#fff"/>
            </g>
          </g>
          <g id="Grupo_23420" data-name="Grupo 23420" transform="translate(310.459 25.553)">
            <g id="Grupo_23413" data-name="Grupo 23413" transform="translate(0 61.359)">
              <path id="Trazado_50627" data-name="Trazado 50627" d="M360.825,321.008h0a22.482,22.482,0,0,0,21.328,23.579h0A22.482,22.482,0,0,0,360.825,321.008Z" transform="translate(-360.797 -321.008)" fill="#4f67af"/>
              <path id="Trazado_50628" data-name="Trazado 50628" d="M408.463,325.981h0a22.482,22.482,0,0,0-25.71,18.706h0A22.482,22.482,0,0,0,408.463,325.981Z" transform="translate(-360.575 -320.961)" fill="#4f67af"/>
            </g>
            <g id="Grupo_23414" data-name="Grupo 23414" transform="translate(5.587 41.539)">
              <path id="Trazado_50629" data-name="Trazado 50629" d="M366.795,301.386h0a20.676,20.676,0,0,0,15.862,24.564h0A20.676,20.676,0,0,0,366.795,301.386Z" transform="translate(-366.327 -301.386)" fill="#4f67af"/>
              <path id="Trazado_50630" data-name="Trazado 50630" d="M409.32,312.932h0A20.676,20.676,0,0,0,383.211,326.1h0A20.677,20.677,0,0,0,409.32,312.932Z" transform="translate(-366.157 -301.28)" fill="#4f67af"/>
            </g>
            <g id="Grupo_23415" data-name="Grupo 23415" transform="translate(16.567 23.946)">
              <path id="Trazado_50631" data-name="Trazado 50631" d="M379.264,283.969h0a18.027,18.027,0,0,0,7.594,24.336h0A18.027,18.027,0,0,0,379.264,283.969Z" transform="translate(-377.198 -283.969)" fill="#4f67af"/>
              <path id="Trazado_50632" data-name="Trazado 50632" d="M412.309,303.552h0a18.027,18.027,0,0,0-25,4.97h0A18.027,18.027,0,0,0,412.309,303.552Z" transform="translate(-377.097 -283.802)" fill="#4f67af"/>
            </g>
            <g id="Grupo_23416" data-name="Grupo 23416" transform="translate(26.847 10.677)">
              <path id="Trazado_50633" data-name="Trazado 50633" d="M391.171,270.832h0A17.039,17.039,0,0,0,393.7,294.8h0A17.039,17.039,0,0,0,391.171,270.832Z" transform="translate(-387.376 -270.832)" fill="#4f67af"/>
              <path id="Trazado_50634" data-name="Trazado 50634" d="M418.164,295.09h0a17.04,17.04,0,0,0-24.1-.031h0A17.039,17.039,0,0,0,418.164,295.09Z" transform="translate(-387.308 -270.638)" fill="#4f67af"/>
            </g>
            <g id="Grupo_23417" data-name="Grupo 23417" transform="translate(39.76 3.73)">
              <path id="Trazado_50635" data-name="Trazado 50635" d="M405.19,263.955h0a14.479,14.479,0,0,0-1.524,20.418h0A14.477,14.477,0,0,0,405.19,263.955Z" transform="translate(-400.159 -263.955)" fill="#4f67af"/>
              <path id="Trazado_50636" data-name="Trazado 50636" d="M424.066,288.32h0a14.478,14.478,0,0,0-20.141-3.682h0A14.478,14.478,0,0,0,424.066,288.32Z" transform="translate(-400.121 -263.772)" fill="#4f67af"/>
            </g>
            <g id="Grupo_23418" data-name="Grupo 23418" transform="translate(54.236)">
              <path id="Trazado_50637" data-name="Trazado 50637" d="M420.624,260.262h0a12.052,12.052,0,0,0-4.577,16.418h0A12.053,12.053,0,0,0,420.624,260.262Z" transform="translate(-414.491 -260.262)" fill="#4f67af"/>
              <path id="Trazado_50638" data-name="Trazado 50638" d="M432.039,283.229h0a12.052,12.052,0,0,0-15.84-6.293h0A12.052,12.052,0,0,0,432.039,283.229Z" transform="translate(-414.474 -260.104)" fill="#4f67af"/>
            </g>
            <g id="Grupo_23419" data-name="Grupo 23419" transform="translate(67.108 0.946)">
              <path id="Trazado_50639" data-name="Trazado 50639" d="M433.472,261.2h0a8.881,8.881,0,0,0-5.833,11.121h0A8.88,8.88,0,0,0,433.472,261.2Z" transform="translate(-427.234 -261.199)" fill="#4f67af"/>
              <path id="Trazado_50640" data-name="Trazado 50640" d="M438.131,279.511h0a8.88,8.88,0,0,0-10.439-6.98h0A8.88,8.88,0,0,0,438.131,279.511Z" transform="translate(-427.23 -261.086)" fill="#4f67af"/>
            </g>
            <path id="Trazado_50641" data-name="Trazado 50641" d="M446.688,269.508h0a8.878,8.878,0,0,0-12.481,1.382h0A8.879,8.879,0,0,0,446.688,269.508Z" transform="translate(-360.056 -260.188)" fill="#4f67af"/>
            <path id="Trazado_50642" data-name="Trazado 50642" d="M382.386,351.442a86.82,86.82,0,0,1-.991-13.63,93.448,93.448,0,0,1,1.037-13.582,77.663,77.663,0,0,1,3.191-13.236c.394-1.067.743-2.148,1.174-3.2l1.332-3.137,1.522-3.05c.517-1.011,1.13-1.971,1.691-2.959a58.411,58.411,0,0,1,8.377-10.7,61.788,61.788,0,0,1,10.732-8.3,76.04,76.04,0,0,1,25.413-8.99,75.818,75.818,0,0,0-25.191,9.354,61.293,61.293,0,0,0-10.5,8.383,57.628,57.628,0,0,0-8.1,10.684c-.537.982-1.127,1.935-1.62,2.939L389,305.051l-1.264,3.11c-.407,1.041-.734,2.114-1.106,3.169a76.58,76.58,0,0,0-2.936,13.084,92.021,92.021,0,0,0-.811,13.391,85.387,85.387,0,0,0,1.174,13.317Z" transform="translate(-360.589 -260.157)" fill="#fff"/>
          </g>
        </g>
        <g id="Grupo_23436" data-name="Grupo 23436" transform="translate(35.347 64.983)">
          <g id="Grupo_23422" data-name="Grupo 23422">
            <path id="Trazado_50643" data-name="Trazado 50643" d="M392.906,175.05H114.261a7.459,7.459,0,0,0-7.459,7.459v176.2H400.366v-176.2A7.459,7.459,0,0,0,392.906,175.05Z" transform="translate(-88.246 -175.05)" fill="#1d2a5b"/>
            <rect id="Rectángulo_5169" data-name="Rectángulo 5169" width="266.087" height="159.074" transform="translate(32.295 13.015)" fill="#8cbdff"/>
            <path id="Trazado_50644" data-name="Trazado 50644" d="M88.431,355.265a19.781,19.781,0,0,0,19.781,19.781H395.046a19.781,19.781,0,0,0,19.781-19.781Z" transform="translate(-88.431 -173.233)" fill="#fff"/>
            <path id="Trazado_50645" data-name="Trazado 50645" d="M274.925,360.572H220.075a5.163,5.163,0,0,1-5.163-5.164h65.176A5.164,5.164,0,0,1,274.925,360.572Z" transform="translate(-87.156 -173.231)" fill="#1d2a5b"/>
          </g>
          <g id="Grupo_23435" data-name="Grupo 23435" transform="translate(32.358 12.406)">
            <rect id="Rectángulo_5170" data-name="Rectángulo 5170" width="266.023" height="15.051" fill="#4f67af"/>
            <rect id="Rectángulo_5171" data-name="Rectángulo 5171" width="266.023" height="145.24" transform="translate(0 15.051)" fill="#e9eaee"/>
            <g id="Grupo_23425" data-name="Grupo 23425" transform="translate(62.609 42.322)">
              <rect id="Rectángulo_5172" data-name="Rectángulo 5172" width="91.359" height="109.981" transform="translate(0 0.157)" fill="#fff"/>
              <rect id="Rectángulo_5173" data-name="Rectángulo 5173" width="91.289" height="91.443" transform="translate(0.07)" fill="#fff"/>
              <g id="Grupo_23423" data-name="Grupo 23423" transform="translate(2.77 3.114)">
                <path id="Trazado_50646" data-name="Trazado 50646" d="M190.742,243.392a5.538,5.538,0,1,1,5.548-5.538A5.551,5.551,0,0,1,190.742,243.392Z" transform="translate(-185.193 -232.315)" fill="#9093aa" opacity="0.7"/>
              </g>
              <text id="Name" transform="translate(15.661 6.785)" font-size="3" font-family="SegoeUI, Segoe UI"><tspan x="0" y="0">Name</tspan></text>
              <rect id="Rectángulo_5174" data-name="Rectángulo 5174" width="91.359" height="43.195" transform="translate(0 36.176)" fill="#203670"/>
              <path id="Rectángulo_5175" data-name="Rectángulo 5175" d="M.653,0h1a.654.654,0,0,1,.654.654V2.989a.653.653,0,0,1-.653.653h-1A.654.654,0,0,1,0,2.987V.653A.653.653,0,0,1,.653,0Z" transform="translate(12.226 101.944)" fill="#ccd0db"/>
              <path id="Trazado_50647" data-name="Trazado 50647" d="M200.458,330.762a.461.461,0,1,0,0-.922h-1.393a2.869,2.869,0,0,1,.038-.4c.153-.82-.1-1.564-.84-1.678a.481.481,0,0,0-.611.591v1.105a.511.511,0,0,1-.1.309l-.812,1.071v2.342l.477.342h2.819a.461.461,0,1,0,0-.921h.194a.461.461,0,1,0,0-.922h.232a.461.461,0,1,0,0-.921Z" transform="translate(-182.306 -228.238)" fill="#ccd0db"/>
              <path id="Trazado_50648" data-name="Trazado 50648" d="M242.489,328.425H238.5a1.249,1.249,0,0,0-1.25,1.247v2.047a1.249,1.249,0,0,0,1.25,1.247h.574v1.466l1.578-1.466h1.839a1.249,1.249,0,0,0,1.25-1.247v-2.047A1.249,1.249,0,0,0,242.489,328.425Z" transform="translate(-181.898 -228.232)" fill="#ccd0db"/>
              <g id="Grupo_23424" data-name="Grupo 23424" transform="translate(5.406 95.8)">
                <rect id="Rectángulo_5176" data-name="Rectángulo 5176" width="81.808" height="0.3" fill="#e9eaee"/>
              </g>
              <rect id="Rectángulo_5177" data-name="Rectángulo 5177" width="14.92" height="1.544" transform="translate(3.406 88.492)" fill="#e9eaee"/>
              <rect id="Rectángulo_5178" data-name="Rectángulo 5178" width="11.767" height="1.544" transform="translate(22.834 102.387)" fill="#e9eaee"/>
              <rect id="Rectángulo_5179" data-name="Rectángulo 5179" width="11.767" height="1.544" transform="translate(15.719 10.113)" fill="#e9eaee"/>
              <rect id="Rectángulo_5180" data-name="Rectángulo 5180" width="11.767" height="1.544" transform="translate(70.47 102.387)" fill="#e9eaee"/>
              <rect id="Rectángulo_5181" data-name="Rectángulo 5181" width="27.533" height="1.544" transform="translate(56.577 88.492)" fill="#e9eaee"/>
              <rect id="Rectángulo_5182" data-name="Rectángulo 5182" width="82.479" height="4.632" transform="translate(3.963 18.604)" fill="#e9eaee"/>
              <rect id="Rectángulo_5183" data-name="Rectángulo 5183" width="44.641" height="4.632" transform="translate(3.963 26.323)" fill="#e9eaee"/>
              <rect id="Rectángulo_5184" data-name="Rectángulo 5184" width="12.684" height="3.396" transform="translate(15.719 4.71)" fill="#e9eaee"/>
            </g>
            <g id="Grupo_23428" data-name="Grupo 23428" transform="translate(62.609 20.198)">
              <g id="Grupo_23427" data-name="Grupo 23427">
                <rect id="Rectángulo_5185" data-name="Rectángulo 5185" width="91.359" height="16.451" fill="#fff"/>
                <g id="Grupo_23426" data-name="Grupo 23426" transform="translate(2.695 3.078)">
                  <path id="Trazado_50649" data-name="Trazado 50649" d="M190.345,220.811a5.218,5.218,0,1,1,5.227-5.218A5.229,5.229,0,0,1,190.345,220.811Z" transform="translate(-185.118 -210.376)" fill="#9093aa" opacity="0.7"/>
                </g>
              </g>
              <rect id="Rectángulo_5186" data-name="Rectángulo 5186" width="43.38" height="4.632" transform="translate(17.837 6.173)" fill="#e9eaee"/>
            </g>
            <g id="Grupo_23429" data-name="Grupo 23429" transform="translate(35.036 3.876)">
              <rect id="Rectángulo_5187" data-name="Rectángulo 5187" width="88.514" height="6.923" fill="#fff"/>
              <path id="Trazado_50650" data-name="Trazado 50650" d="M238.861,196.528l-1.112-1.118a1.717,1.717,0,1,0-.225.185l1.131,1.137Zm-3.716-2.33a1.412,1.412,0,1,1,1.412,1.409A1.412,1.412,0,0,1,235.145,194.2Z" transform="translate(-154.349 -191.156)" fill="#4f67af"/>
            </g>
            <g id="Grupo_23430" data-name="Grupo 23430" transform="translate(24.55 23.807)">
              <path id="Trazado_50651" data-name="Trazado 50651" d="M149.467,220.275a4.686,4.686,0,1,1,4.695-4.687A4.7,4.7,0,0,1,149.467,220.275Z" transform="translate(-144.771 -210.902)" fill="#9093aa" opacity="0.7"/>
              <path id="Trazado_50652" data-name="Trazado 50652" d="M149.446,259.922a2.585,2.585,0,1,1,2.59-2.585A2.59,2.59,0,0,1,149.446,259.922Z" transform="translate(-144.75 -210.46)" fill="#9093aa" opacity="0.7"/>
              <rect id="Rectángulo_5188" data-name="Rectángulo 5188" width="18.918" height="2.937" transform="translate(13.663 3.356)" fill="#9093aa" opacity="0.7"/>
              <rect id="Rectángulo_5189" data-name="Rectángulo 5189" width="13.873" height="1.852" transform="translate(13.663 45.951)" fill="#9093aa" opacity="0.7"/>
              <path id="Trazado_50653" data-name="Trazado 50653" d="M149.446,269.452a2.585,2.585,0,1,1,2.59-2.585A2.59,2.59,0,0,1,149.446,269.452Z" transform="translate(-144.75 -210.364)" fill="#9093aa" opacity="0.7"/>
              <rect id="Rectángulo_5190" data-name="Rectángulo 5190" width="13.873" height="1.852" transform="translate(13.663 55.577)" fill="#9093aa" opacity="0.7"/>
              <path id="Trazado_50654" data-name="Trazado 50654" d="M149.446,233.2a2.585,2.585,0,1,1,2.59-2.585A2.59,2.59,0,0,1,149.446,233.2Z" transform="translate(-144.75 -210.729)" fill="#9093aa" opacity="0.7"/>
              <rect id="Rectángulo_5191" data-name="Rectángulo 5191" width="13.873" height="1.852" transform="translate(13.663 18.964)" fill="#9093aa" opacity="0.7"/>
              <path id="Trazado_50655" data-name="Trazado 50655" d="M149.446,242.735a2.585,2.585,0,1,1,2.59-2.585A2.59,2.59,0,0,1,149.446,242.735Z" transform="translate(-144.75 -210.633)" fill="#9093aa" opacity="0.7"/>
              <rect id="Rectángulo_5192" data-name="Rectángulo 5192" width="13.873" height="1.852" transform="translate(13.663 28.591)" fill="#9093aa" opacity="0.7"/>
              <path id="Trazado_50656" data-name="Trazado 50656" d="M149.446,278.983a2.585,2.585,0,1,1,2.59-2.585A2.59,2.59,0,0,1,149.446,278.983Z" transform="translate(-144.75 -210.268)" fill="#9093aa" opacity="0.7"/>
              <rect id="Rectángulo_5193" data-name="Rectángulo 5193" width="13.873" height="1.852" transform="translate(13.663 65.204)" fill="#9093aa" opacity="0.7"/>
              <path id="Trazado_50657" data-name="Trazado 50657" d="M149.446,288.513a2.585,2.585,0,1,1,2.59-2.585A2.59,2.59,0,0,1,149.446,288.513Z" transform="translate(-144.75 -210.172)" fill="#9093aa" opacity="0.7"/>
              <rect id="Rectángulo_5194" data-name="Rectángulo 5194" width="13.873" height="1.852" transform="translate(13.663 74.831)" fill="#9093aa" opacity="0.7"/>
              <path id="Trazado_50658" data-name="Trazado 50658" d="M149.446,298.044a2.585,2.585,0,1,1,2.59-2.585A2.59,2.59,0,0,1,149.446,298.044Z" transform="translate(-144.75 -210.075)" fill="#9093aa" opacity="0.7"/>
              <rect id="Rectángulo_5195" data-name="Rectángulo 5195" width="13.873" height="1.852" transform="translate(13.663 84.457)" fill="#9093aa" opacity="0.7"/>
              <path id="Trazado_50659" data-name="Trazado 50659" d="M149.446,307.575a2.585,2.585,0,1,1,2.59-2.585A2.59,2.59,0,0,1,149.446,307.575Z" transform="translate(-144.75 -209.979)" fill="#9093aa" opacity="0.7"/>
              <rect id="Rectángulo_5196" data-name="Rectángulo 5196" width="13.873" height="1.852" transform="translate(13.663 94.084)" fill="#9093aa" opacity="0.7"/>
              <path id="Trazado_50660" data-name="Trazado 50660" d="M149.446,317.1a2.585,2.585,0,1,1,2.59-2.585A2.59,2.59,0,0,1,149.446,317.1Z" transform="translate(-144.75 -209.883)" fill="#9093aa" opacity="0.7"/>
              <rect id="Rectángulo_5197" data-name="Rectángulo 5197" width="13.873" height="1.852" transform="translate(13.663 103.711)" fill="#9093aa" opacity="0.7"/>
              <path id="Trazado_50661" data-name="Trazado 50661" d="M149.446,326.636a2.585,2.585,0,1,1,2.59-2.585A2.59,2.59,0,0,1,149.446,326.636Z" transform="translate(-144.75 -209.787)" fill="#9093aa" opacity="0.7"/>
              <rect id="Rectángulo_5198" data-name="Rectángulo 5198" width="13.873" height="1.852" transform="translate(13.663 113.338)" fill="#9093aa" opacity="0.7"/>
            </g>
            <g id="Grupo_23431" data-name="Grupo 23431" transform="translate(219.613 23.597)">
              <path id="Trazado_50662" data-name="Trazado 50662" d="M342.582,220.067a4.686,4.686,0,1,1,4.7-4.686A4.7,4.7,0,0,1,342.582,220.067Z" transform="translate(-337.887 -210.694)" fill="#9093aa" opacity="0.7"/>
              <path id="Trazado_50663" data-name="Trazado 50663" d="M375.843,217.186a1.629,1.629,0,1,1,1.281-1.278A1.632,1.632,0,0,1,375.843,217.186Z" transform="translate(-337.524 -210.661)" fill="#9093aa" opacity="0.7"/>
              <rect id="Rectángulo_5199" data-name="Rectángulo 5199" width="18.918" height="2.937" transform="translate(13.663 3.357)" fill="#9093aa" opacity="0.7"/>
            </g>
            <g id="Grupo_23432" data-name="Grupo 23432" transform="translate(219.613 39.304)">
              <path id="Trazado_50664" data-name="Trazado 50664" d="M342.582,235.618a4.687,4.687,0,1,1,4.7-4.687A4.7,4.7,0,0,1,342.582,235.618Z" transform="translate(-337.887 -226.244)" fill="#9093aa" opacity="0.7"/>
              <path id="Trazado_50665" data-name="Trazado 50665" d="M375.843,232.737a1.629,1.629,0,1,1,1.281-1.279A1.633,1.633,0,0,1,375.843,232.737Z" transform="translate(-337.524 -226.211)" fill="#9093aa" opacity="0.7"/>
              <rect id="Rectángulo_5200" data-name="Rectángulo 5200" width="18.918" height="2.937" transform="translate(13.663 3.357)" fill="#9093aa" opacity="0.7"/>
            </g>
            <g id="Grupo_23433" data-name="Grupo 23433" transform="translate(219.613 55.012)">
              <path id="Trazado_50666" data-name="Trazado 50666" d="M342.582,251.168a4.686,4.686,0,1,1,4.7-4.687A4.7,4.7,0,0,1,342.582,251.168Z" transform="translate(-337.887 -241.795)" fill="#9093aa" opacity="0.7"/>
              <path id="Trazado_50667" data-name="Trazado 50667" d="M375.843,248.287a1.629,1.629,0,1,1,1.281-1.279A1.632,1.632,0,0,1,375.843,248.287Z" transform="translate(-337.524 -241.762)" fill="#9093aa" opacity="0.7"/>
              <rect id="Rectángulo_5201" data-name="Rectángulo 5201" width="18.918" height="2.937" transform="translate(13.663 3.356)" fill="#9093aa" opacity="0.7"/>
            </g>
            <rect id="Rectángulo_5202" data-name="Rectángulo 5202" width="30.269" height="26.973" transform="translate(156.973 20.198)" fill="#fff"/>
            <rect id="Rectángulo_5203" data-name="Rectángulo 5203" width="30.269" height="26.973" transform="translate(156.973 50.72)" fill="#203670"/>
            <rect id="Rectángulo_5204" data-name="Rectángulo 5204" width="30.269" height="26.973" transform="translate(156.973 81.26)" fill="#fff"/>
            <g id="Grupo_23434" data-name="Grupo 23434" transform="translate(210.496 21.499)" opacity="0.7">
              <rect id="Rectángulo_5205" data-name="Rectángulo 5205" width="0.158" height="138.792" fill="#9093aa"/>
            </g>
            <path id="Trazado_50668" data-name="Trazado 50668" d="M254.807,198.228a3.218,3.218,0,1,1,3.224-3.217A3.224,3.224,0,0,1,254.807,198.228Z" transform="translate(-119.144 -187.287)" fill="#fff"/>
            <rect id="Rectángulo_5206" data-name="Rectángulo 5206" width="12.99" height="2.017" transform="translate(141.821 6.81)" fill="#fff"/>
            <rect id="Rectángulo_5207" data-name="Rectángulo 5207" width="12.99" height="2.017" transform="translate(158.847 6.81)" fill="#fff"/>
            <path id="Blue" d="M153.3,198.463a.4.4,0,0,0,.4-.4v-6.5a.4.4,0,0,0-.4-.4H146.79a.4.4,0,0,0-.405.4v6.5a.4.4,0,0,0,.405.4Z" transform="translate(-120.205 -187.294)" fill="#fff"/>
            <path id="f" d="M151.436,198.528v-2.889h.972l.145-1.125h-1.117v-.719c0-.325.091-.547.56-.547h.6V192.24a7.872,7.872,0,0,0-.871-.044,1.358,1.358,0,0,0-1.45,1.488v.83H149.3v1.125h.974v2.889Z" transform="translate(-120.175 -187.283)" fill="#4f67af"/>
            <text id="ADS" transform="translate(106.731 109.671)" fill="#fff" font-size="22" font-family="SegoeUI, Segoe UI"><tspan x="-20.652" y="0">ADS</tspan></text>
            <rect id="Rectángulo_5208" data-name="Rectángulo 5208" width="44.175" height="34.491" transform="translate(216.524 73.241)" fill="#203670"/>
            <rect id="Rectángulo_5209" data-name="Rectángulo 5209" width="44.175" height="34.491" transform="translate(216.524 112.897)" fill="#9093aa" opacity="0.7"/>
            <text id="ADS-2" data-name="ADS" transform="translate(238.636 95.375)" fill="#fff" font-size="14" font-family="SegoeUI, Segoe UI"><tspan x="-13.142" y="0">ADS</tspan></text>
            <text id="ADS-3" data-name="ADS" transform="translate(170.641 68.744)" fill="#fff" font-size="10" font-family="SegoeUI, Segoe UI"><tspan x="-9.387" y="0">ADS</tspan></text>
          </g>
        </g>
        <g id="Grupo_23437" data-name="Grupo 23437" transform="translate(40.244 51.507)" opacity="0.4">
          <path id="Trazado_50669" data-name="Trazado 50669" d="M191.338,201.647l3.718-.588a6.112,6.112,0,0,0,5.03-7.282,6.228,6.228,0,0,0-7.109-4.766l-5.114.808-12.188,1.926-14.138,2.233c-.57.09.825-3.033,2.189-5.848a17.253,17.253,0,0,0,1.414-10.713c-.708-3.766-2.046-8.446-4.566-11.834-2.74-3.687-6.714-4.121-9.7-3.782a3.666,3.666,0,0,0-3.079,4.668l3.036,10.517a8.471,8.471,0,0,1-2.061,8.25l-2.839,2.924a14.089,14.089,0,0,0-3.916,8.48h0a6.118,6.118,0,0,1-5.135,5.463l-7.619,1.2-.5-3.147-10.917,1.724-.384-2.425-24.186,3.821,7.379,46.7,24.186-3.821-.384-2.426,10.917-1.724-.356-2.251,11.95-1.888,2.1,1.634a11.475,11.475,0,0,0,8.837,2.276l23.461-3.706h0l1.608-.255.539-.085,2.4-.38a5.13,5.13,0,0,0,4.328-4.5,4.8,4.8,0,0,0-.007-.986,4.989,4.989,0,0,0-5.739-4.388l.827-.131h0l4.55-.718a6.226,6.226,0,0,0,5.293-6.725,6.112,6.112,0,0,0-7.03-5.376l.381-.061h0l4.55-.719a6.224,6.224,0,0,0,5.292-6.725A6.111,6.111,0,0,0,191.338,201.647Z" transform="translate(-93.279 -161.708)" fill="#1d2a5b"/>
          <path id="Trazado_50670" data-name="Trazado 50670" d="M388.881,211.976l-2.1-.287,1.366-9.98a4.412,4.412,0,0,0-3.773-4.969l-51.316-7.023a5.142,5.142,0,0,0-5.791,4.4L322.345,230.1a5.142,5.142,0,0,0,4.4,5.791l51.317,7.022a4.411,4.411,0,0,0,4.969-3.772l1.366-9.98,2.1.287Z" transform="translate(-90.97 -161.426)" fill="#1d2a5b"/>
        </g>
        <g id="Grupo_23441" data-name="Grupo 23441" transform="translate(113.535 16.66)">
          <g id="Grupo_23438" data-name="Grupo 23438" transform="translate(0 31.455)">
            <path id="Trazado_50671" data-name="Trazado 50671" d="M166.5,160.4l-.659-.766s.54-.466,1.58-1.287l.626.793C167.032,159.942,166.5,160.4,166.5,160.4Z" transform="translate(-165.839 -158.35)" fill="#fff"/>
          </g>
          <g id="Grupo_23439" data-name="Grupo 23439" transform="translate(4.776)">
            <path id="Trazado_50672" data-name="Trazado 50672" d="M171.164,157.053l-.6-.814c.958-.7,2.052-1.482,3.277-2.324l.573.832C173.2,155.582,172.114,156.357,171.164,157.053ZM338.773,155.2c-.972-.665-2.082-1.406-3.323-2.205l.546-.849c1.251.805,2.369,1.55,3.346,2.221Zm-161.041-2.673-.549-.846q1.6-1.036,3.394-2.143l.528.861Q179.32,151.5,177.733,152.531Zm154.334-1.643q-1.617-.98-3.437-2.023l.5-.878q1.832,1.048,3.46,2.036Zm-147.535-2.53-.507-.874q1.679-.976,3.5-1.972l.485.886Q186.2,147.385,184.531,148.357Zm140.611-1.43q-1.7-.917-3.532-1.853l.458-.9q1.844.938,3.553,1.864Zm-133.617-2.4-.464-.9q1.744-.9,3.589-1.8l.44.908Q193.259,143.625,191.525,144.524Zm126.508-1.218q-1.759-.842-3.618-1.68l.415-.921q1.871.842,3.639,1.691ZM198.7,141.038l-.418-.919q1.8-.818,3.673-1.617l.4.929Q200.484,140.225,198.7,141.038Zm112.061-1q-1.806-.761-3.694-1.5l.369-.94q1.9.747,3.718,1.512Zm-104.722-2.116-.371-.939q1.842-.729,3.75-1.426l.346.949Q207.869,137.194,206.037,137.918Zm97.3-.8q-1.848-.673-3.764-1.316l.321-.958q1.927.647,3.788,1.325Zm-89.809-1.934-.32-.958q1.882-.63,3.822-1.221l.294.967Q215.4,134.558,213.527,135.186Zm82.249-.6q-1.883-.579-3.825-1.122l.273-.973q1.953.545,3.848,1.129Zm-74.625-1.717-.267-.975q1.918-.524,3.886-1l.239.981Q223.056,132.343,221.151,132.865Zm66.948-.426q-1.915-.479-3.879-.916l.219-.986q1.976.438,3.9.922Zm-59.206-1.455-.209-.989q1.948-.412,3.938-.773l.18.994Q230.827,130.573,228.893,130.985Zm51.424-.272q-1.941-.374-3.922-.7l.164-1q2,.327,3.949.706Zm-43.585-1.143-.148-1q1.971-.294,3.98-.528l.116,1Q238.688,129.277,236.733,129.57Zm35.724-.145q-1.959-.262-3.956-.474l.107-1q2.009.211,3.984.477Zm-27.814-.778-.085-1.006q1.988-.167,4.006-.272l.052,1.009Q246.614,128.481,244.642,128.646Zm19.89-.055q-1.971-.148-3.976-.239l.045-1.009q2.018.091,4.007.241Zm-11.938-.353-.017-1.01q1.074-.02,2.157-.02l.686,0q.589,0,1.172.012l-.015,1.01c-.386-.006-.774-.01-1.162-.012l-.681,0Q253.661,128.221,252.594,128.239Z" transform="translate(-170.567 -127.209)" fill="#fff"/>
          </g>
          <g id="Grupo_23440" data-name="Grupo 23440" transform="translate(176.202 29.473)">
            <path id="Trazado_50673" data-name="Trazado 50673" d="M341.867,158.411c-.006,0-.547-.442-1.585-1.211l.6-.812c1.066.79,1.617,1.239,1.617,1.239Z" transform="translate(-340.282 -156.388)" fill="#fff"/>
          </g>
        </g>
        <g id="Grupo_23443" data-name="Grupo 23443" transform="translate(297.493 48.307)">
          <circle id="Elipse_1445" data-name="Elipse 1445" cx="13.648" cy="13.648" r="13.648" transform="translate(0 19.302) rotate(-45)" fill="#ffd56e"/>
          <g id="Grupo_23442" data-name="Grupo 23442" transform="translate(2.377 2.377)">
            <circle id="Elipse_1446" data-name="Elipse 1446" cx="11.968" cy="11.968" r="11.968" transform="translate(0 16.925) rotate(-45)" fill="#f2c340"/>
          </g>
          <path id="Trazado_50674" data-name="Trazado 50674" d="M367.124,165.8a11.9,11.9,0,0,0-5.514,1.347,11.967,11.967,0,0,1,10.62,21.445,11.968,11.968,0,0,0-5.106-22.793Z" transform="translate(-347.823 -158.467)" fill="#d09d2d"/>
        </g>
        <g id="Grupo_23447" data-name="Grupo 23447" transform="translate(179.343)">
          <circle id="Elipse_1447" data-name="Elipse 1447" cx="16.737" cy="16.737" r="16.737" transform="translate(0 33.042) rotate(-80.783)" fill="#ffd56e"/>
          <g id="Grupo_23444" data-name="Grupo 23444" transform="translate(4.526 4.526)">
            <circle id="Elipse_1448" data-name="Elipse 1448" cx="14.676" cy="14.676" r="14.676" fill="#f2c340"/>
          </g>
          <path id="Trazado_50675" data-name="Trazado 50675" d="M250.067,115.2a14.6,14.6,0,0,0-6.762,1.653,14.676,14.676,0,0,1,13.023,26.3,14.677,14.677,0,0,0-6.262-27.951Z" transform="translate(-230.866 -110.67)" fill="#d09d2d"/>
          <g id="Grupo_23445" data-name="Grupo 23445" transform="translate(12.286 7.866)">
            <path id="Trazado_50676" data-name="Trazado 50676" d="M251.873,137.825v3.466h-3.012V137.8a11.705,11.705,0,0,1-5.708-2.424l1.608-3.239a10.131,10.131,0,0,0,5.752,2.4c1.223,0,1.994-.453,1.994-1.291,0-2.695-8.358-1.065-8.358-6.683,0-2.513,1.812-4.259,4.712-4.733V118.5h3.012v3.307a11.73,11.73,0,0,1,4.961,1.7l-1.563,3.285a12.349,12.349,0,0,0-5.119-1.7c-1,0-1.654.362-1.654,1.087,0,2.627,8.358,1.132,8.358,6.84C256.857,135.809,254.727,137.44,251.873,137.825Z" transform="translate(-243.153 -118.503)" fill="#bc8517"/>
          </g>
          <g id="Grupo_23446" data-name="Grupo 23446" transform="translate(12.83 7.866)">
            <path id="Trazado_50677" data-name="Trazado 50677" d="M252.413,137.825v3.466H249.4V137.8a11.709,11.709,0,0,1-5.709-2.424l1.609-3.239a10.131,10.131,0,0,0,5.752,2.4c1.223,0,1.994-.453,1.994-1.291,0-2.695-8.358-1.065-8.358-6.683,0-2.513,1.812-4.259,4.712-4.733V118.5h3.012v3.307a11.73,11.73,0,0,1,4.961,1.7l-1.564,3.285a12.341,12.341,0,0,0-5.118-1.7c-1,0-1.654.362-1.654,1.087,0,2.627,8.357,1.132,8.357,6.84C257.4,135.809,255.267,137.44,252.413,137.825Z" transform="translate(-243.692 -118.503)" fill="#ffe48f"/>
          </g>
        </g>
        <g id="Grupo_23454" data-name="Grupo 23454" transform="translate(32.163 37.365)">
          <g id="Grupo_23452" data-name="Grupo 23452">
            <g id="Grupo_23451" data-name="Grupo 23451">
              <g id="Grupo_23450" data-name="Grupo 23450">
                <g id="Grupo_23449" data-name="Grupo 23449">
                  <path id="Trazado_50678" data-name="Trazado 50678" d="M191.772,179.777a6.226,6.226,0,0,0-7.109-4.766l-5.114.808-12.188,1.925-14.138,2.234c-.57.09.825-3.034,2.189-5.848a17.257,17.257,0,0,0,1.414-10.714c-.708-3.765-2.046-8.445-4.566-11.834-2.74-3.687-6.714-4.121-9.7-3.781a3.666,3.666,0,0,0-3.079,4.668l3.036,10.516a8.473,8.473,0,0,1-2.061,8.251l-2.839,2.923a14.089,14.089,0,0,0-3.916,8.48h0a6.117,6.117,0,0,1-5.135,5.463l-12.174,1.924,7.134,36.232,15.129-2.391,2.1,1.634a11.479,11.479,0,0,0,8.837,2.277l26.748-4.226-1.207.191,2.47-.39a5.083,5.083,0,0,0,4.321-5.491,4.99,4.99,0,0,0-5.739-4.388l5.378-.849a6.225,6.225,0,0,0,5.293-6.724,6.112,6.112,0,0,0-7.03-5.377l4.931-.779a6.225,6.225,0,0,0,5.292-6.725,6.112,6.112,0,0,0-7.029-5.376l3.718-.588A6.111,6.111,0,0,0,191.772,179.777Z" transform="translate(-84.966 -147.708)" fill="#fff"/>
                  <g id="Grupo_23448" data-name="Grupo 23448" transform="translate(86.675 27.225)" opacity="0.4">
                    <path id="Trazado_50679" data-name="Trazado 50679" d="M175.638,212.82l-4.549.719a4.989,4.989,0,0,1,5.738,4.388,5.082,5.082,0,0,1-4.321,5.49l2.081-.328,1.207-.191,1.263-.2a5.082,5.082,0,0,0,4.321-5.49A4.99,4.99,0,0,0,175.638,212.82Z" transform="translate(-171.089 -174.277)" fill="#aac7fd"/>
                    <path id="Trazado_50680" data-name="Trazado 50680" d="M179.242,200l-4.55.719a6.111,6.111,0,0,1,7.03,5.376,6.226,6.226,0,0,1-5.293,6.725l4.55-.719a6.225,6.225,0,0,0,5.293-6.724A6.112,6.112,0,0,0,179.242,200Z" transform="translate(-171.053 -174.406)" fill="#aac7fd"/>
                    <path id="Trazado_50681" data-name="Trazado 50681" d="M191.153,179.505a6.226,6.226,0,0,0-7.109-4.766l-4.549.718a6.227,6.227,0,0,1,7.108,4.766,6.111,6.111,0,0,1-5.03,7.282l-3.718.588a6.113,6.113,0,0,1,7.03,5.375,6.225,6.225,0,0,1-5.293,6.725l4.55-.718a6.225,6.225,0,0,0,5.292-6.725,6.112,6.112,0,0,0-7.029-5.376l3.718-.588A6.111,6.111,0,0,0,191.153,179.505Z" transform="translate(-171.021 -174.661)" fill="#aac7fd"/>
                  </g>
                  <rect id="Rectángulo_5210" data-name="Rectángulo 5210" width="13.508" height="42.367" transform="matrix(0.988, -0.156, 0.156, 0.988, 22.144, 40.56)" fill="#4f67af"/>
                  <rect id="Rectángulo_5211" data-name="Rectángulo 5211" width="24.486" height="47.279" transform="translate(0 41.573) rotate(-8.978)" fill="#1d2a5b"/>
                  <path id="Trazado_50682" data-name="Trazado 50682" d="M121.5,219.984a2.321,2.321,0,1,1-2.656-1.93A2.321,2.321,0,0,1,121.5,219.984Z" transform="translate(-84.961 -146.999)" fill="#fff"/>
                </g>
              </g>
            </g>
          </g>
          <g id="Grupo_23453" data-name="Grupo 23453" transform="translate(245.266 26.461)">
            <path id="Rectángulo_5212" data-name="Rectángulo 5212" d="M5.426,0H60.753A4.656,4.656,0,0,1,65.41,4.656V45.028a4.656,4.656,0,0,1-4.656,4.656H5.426A5.426,5.426,0,0,1,0,44.258V5.426A5.426,5.426,0,0,1,5.426,0Z" transform="matrix(0.991, 0.136, -0.136, 0.991, 6.737, 0)" fill="#7490d6"/>
            <path id="Trazado_50683" data-name="Trazado 50683" d="M376.861,195.082a9.688,9.688,0,0,0-11.136,7.962h0a9.689,9.689,0,0,0,8.588,10.662l22.541,3.085,2.548-18.626Z" transform="translate(-327.718 -173.692)" fill="#1d2a5b"/>
            <path id="Trazado_50684" data-name="Trazado 50684" d="M377.915,204.858a4.188,4.188,0,1,1-3.607-4.479A4.07,4.07,0,0,1,377.915,204.858Z" transform="translate(-327.678 -173.638)" fill="#7490d6"/>
          </g>
        </g>
      </g>
      <path id="Trazado_50685" data-name="Trazado 50685" d="M397.311,147.172c0-.106.016-.21.016-.318a10.161,10.161,0,0,0-15.9-8.388,16.854,16.854,0,0,0-31.472,8.388c0,.107.006.212.008.318Z" transform="translate(-47.537 -110.521)" fill="#faffff"/>
      <path id="Trazado_50686" data-name="Trazado 50686" d="M85.784,250.362c0-.079.012-.157.012-.236a7.56,7.56,0,0,0-11.828-6.24,12.537,12.537,0,0,0-23.412,6.24c0,.08,0,.158.006.236Z" transform="translate(-50.556 -109.436)" fill="#faffff"/>
      <path id="Trazado_50687" data-name="Trazado 50687" d="M443.784,209.362c0-.079.012-.157.012-.236a7.56,7.56,0,0,0-11.828-6.24,12.537,12.537,0,0,0-23.412,6.24c0,.08,0,.158.006.236Z" transform="translate(-46.946 -109.85)" fill="#faffff"/>
      <path id="Trazado_50688" data-name="Trazado 50688" d="M130.516,153.747c0-.118.018-.233.018-.353a11.267,11.267,0,0,0-17.63-9.3,18.686,18.686,0,0,0-34.894,9.3c0,.118.006.234.008.353Z" transform="translate(-50.279 -110.474)" fill="#faffff"/>
    </g>
  </g>
</svg>
