<svg xmlns="http://www.w3.org/2000/svg" width="78.501" height="74.27" viewBox="0 0 78.501 74.27">
  <g id="Grupo_1100331" data-name="Grupo 1100331" transform="translate(-244 -25034.363)">
    <path id="_12068" data-name="12068" d="M72.033,71.913c-8.038-1.11-16.53-.839-23.844,2.675C38.045,79.46,31.382,90.507,31.127,101.757s5.606,22.305,14.66,28.988,21,9.051,32.068,7.045c11.165-2.023,21.645-8.583,27.469-18.322,3.735-6.245,5.48-13.956,3.417-20.934a28.6,28.6,0,0,0-6.787-11.156A50.145,50.145,0,0,0,72.033,71.913Z" transform="translate(212.881 24970.152)" fill="#26aab7"/>
    <g id="consumidor" transform="translate(230.115 25018.363)">
      <circle id="Elipse_11871" data-name="Elipse 11871" cx="32.162" cy="32.162" r="32.162" transform="translate(20.973 20.973)" fill="#ecfbf9"/>
      <path id="Trazado_877613" data-name="Trazado 877613" d="M41.225,215.844a33.646,33.646,0,0,1,0-17.995l2.385.665a31.17,31.17,0,0,0,0,16.664Z" transform="translate(-20.286 -153.712)"/>
      <path id="Trazado_877614" data-name="Trazado 877614" d="M206.848,452.278a33.494,33.494,0,0,1-9-1.225l.665-2.385a31.167,31.167,0,0,0,16.664,0l.665,2.385A33.5,33.5,0,0,1,206.848,452.278Z" transform="translate(-153.714 -365.722)"/>
      <path id="Trazado_877615" data-name="Trazado 877615" d="M451.054,215.844l-2.385-.665a31.17,31.17,0,0,0,0-16.664l2.385-.665A33.646,33.646,0,0,1,451.054,215.844Z" transform="translate(-365.723 -153.712)"/>
      <path id="Trazado_877616" data-name="Trazado 877616" d="M215.181,43.61a31.166,31.166,0,0,0-16.664,0l-.665-2.385a33.646,33.646,0,0,1,17.995,0Z" transform="translate(-153.714 -20.286)"/>
      <g id="Grupo_1100323" data-name="Grupo 1100323" transform="translate(35.805 35.805)">
        <path id="Trazado_877617" data-name="Trazado 877617" d="M144,334.854V328.01a3.094,3.094,0,0,1,1.592-2.705l9.549-5.3h12.378l9.549,5.3a3.094,3.094,0,0,1,1.592,2.705v6.844Z" transform="translate(-144 -292.768)" fill="#57cee6"/>
        <path id="Trazado_877618" data-name="Trazado 877618" d="M208,408h14.854v2.476H208Z" transform="translate(-198.097 -367.152)"/>
        <g id="Grupo_1100322" data-name="Grupo 1100322" transform="translate(9.903 7.427)">
          <path id="Trazado_877619" data-name="Trazado 877619" d="M228.378,292.951l-6.189,4.951L216,292.951,218.476,288H225.9Z" transform="translate(-214.762 -273.146)" fill="#ffd4cf"/>
          <path id="Trazado_877620" data-name="Trazado 877620" d="M222.854,192H208v10.723a3.1,3.1,0,0,0,1.378,2.575l4.332,2.888a3.1,3.1,0,0,0,3.433,0l4.332-2.888a3.1,3.1,0,0,0,1.378-2.575Z" transform="translate(-208 -192)" fill="#ffd4cf"/>
        </g>
        <path id="Trazado_877621" data-name="Trazado 877621" d="M192,161.9v-5.261A4.642,4.642,0,0,1,196.642,152h7.736v5.261a4.642,4.642,0,0,1-4.642,4.642Z" transform="translate(-184.573 -150.762)" fill="#fa5d3f"/>
        <path id="Trazado_877622" data-name="Trazado 877622" d="M278.189,158.189H272V152l3.7.74a3.1,3.1,0,0,1,2.488,3.035Z" transform="translate(-252.195 -150.762)" fill="#d3463d"/>
        <path id="Trazado_877623" data-name="Trazado 877623" d="M202.476,320l6.189,4.951L200,327.427Z" transform="translate(-191.335 -292.768)" fill="#ecfbf9"/>
        <path id="Trazado_877624" data-name="Trazado 877624" d="M262.189,320,256,324.951l8.665,2.476Z" transform="translate(-238.67 -292.768)" fill="#ecfbf9"/>
        <path id="Trazado_877625" data-name="Trazado 877625" d="M203.6,172.9l-4.616-2.565-1.816-3.631,1.426-.951a4.324,4.324,0,0,0,1.929-3.6v-9.485a1.238,1.238,0,0,0,1.238-1.238v-2.414a4.344,4.344,0,0,0-3.483-4.248l-3.683-.737a1.192,1.192,0,0,0-.121-.02l-.031,0h-.006l-.025,0h-.058l-.021,0H186.6a5.886,5.886,0,0,0-5.88,5.88v5.261a1.238,1.238,0,0,0,1.238,1.238h1.238v5.771a4.324,4.324,0,0,0,1.929,3.605l1.426.951-1.816,3.631-4.616,2.565,1.2,2.164,2.169-1.205-1.47,4.408a1.238,1.238,0,0,0,1.514,1.582l8.325-2.379,8.324,2.378a1.238,1.238,0,0,0,1.514-1.582l-1.47-4.408,2.169,1.205Zm-4.315-23.888v1.176H195.57v-3.441l2.221.444A1.862,1.862,0,0,1,199.283,149.013Zm-16.092.866a3.408,3.408,0,0,1,3.4-3.4h6.5V150.5a3.408,3.408,0,0,1-3.4,3.4h-6.5Zm2.476,12.27v-5.771h4.023a5.889,5.889,0,0,0,5.466-3.713h2.889v9.485a1.853,1.853,0,0,1-.827,1.545l-4.332,2.888a1.852,1.852,0,0,1-2.06,0l-4.332-2.888A1.853,1.853,0,0,1,185.667,162.15Zm3.786,6.493a4.32,4.32,0,0,0,4.806,0l.83-.553,1.4,2.8-4.635,3.707-4.635-3.708,1.4-2.8Zm-4.345,8.182,1.172-3.517,2.93,2.344Zm9.394-1.172,2.93-2.344,1.172,3.517Z" transform="translate(-174.527 -144)"/>
      </g>
      <g id="Grupo_1100324" data-name="Grupo 1100324" transform="translate(16 16)">
        <path id="Trazado_877639" data-name="Trazado 877639" d="M12.378,0A12.378,12.378,0,1,1,0,12.378,12.378,12.378,0,0,1,12.378,0Z" transform="translate(1.238 1.238)" fill="#ffd947"/>
        <circle id="Elipse_11873" data-name="Elipse 11873" cx="8.684" cy="8.684" r="8.684" transform="translate(4.972 4.973)" fill="#fffdfa"/>
        <path id="Trazado_877626" data-name="Trazado 877626" d="M29.616,43.232A13.616,13.616,0,1,1,43.232,29.616,13.616,13.616,0,0,1,29.616,43.232Zm0-24.757a11.14,11.14,0,1,0,11.14,11.14A11.14,11.14,0,0,0,29.616,18.476Z" transform="translate(-16 -16)"/>
        <path id="Trazado_877627" data-name="Trazado 877627" d="M75.713,59.713H81.9V57.238H78.189V56H75.713v1.238a3.713,3.713,0,0,0,0,7.427h2.476a1.238,1.238,0,0,1,0,2.476H72v2.476h3.713v1.238h2.476V69.616a3.713,3.713,0,0,0,0-7.427H75.713a1.238,1.238,0,0,1,0-2.476Z" transform="translate(-63.335 -49.811)"/>
      </g>
      <g id="Grupo_1100326" data-name="Grupo 1100326" transform="translate(63.037 16)">
        <circle id="Elipse_11874" data-name="Elipse 11874" cx="12.543" cy="12.543" r="12.543" transform="translate(1.033 1.113)" fill="#7d6eb2"/>
        <path id="Trazado_877628" data-name="Trazado 877628" d="M333.616,43.232a13.616,13.616,0,1,1,13.616-13.616A13.616,13.616,0,0,1,333.616,43.232Zm0-24.757a11.14,11.14,0,1,0,11.14,11.14A11.14,11.14,0,0,0,333.616,18.476Z" transform="translate(-320 -16)"/>
        <g id="Grupo_1100325" data-name="Grupo 1100325" transform="translate(9.903 6.189)">
          <path id="Trazado_877629" data-name="Trazado 877629" d="M392,71.427V64l9.9,3.713Z" transform="translate(-390.762 -62.762)" fill="#f5f1ff"/>
          <path id="Trazado_877630" data-name="Trazado 877630" d="M385.238,65.9A1.238,1.238,0,0,1,384,64.664V57.237a1.238,1.238,0,0,1,1.672-1.159l9.9,3.713a1.238,1.238,0,0,1,0,2.318l-9.9,3.713A1.239,1.239,0,0,1,385.238,65.9Zm1.238-6.879v3.855l5.139-1.927Z" transform="translate(-384 -56)"/>
          <path id="Trazado_877631" data-name="Trazado 877631" d="M395.575,59.792l-9.9-3.713A1.238,1.238,0,0,0,384,57.237V70.854h2.476V65.522l9.1-3.412a1.238,1.238,0,0,0,0-2.318Zm-9.1,3.086V59.024l5.139,1.927Z" transform="translate(-384 -56)"/>
        </g>
      </g>
      <g id="Grupo_1100328" data-name="Grupo 1100328" transform="translate(63.037 63.037)">
        <path id="Trazado_877640" data-name="Trazado 877640" d="M12.378,0A12.378,12.378,0,1,1,0,12.378,12.378,12.378,0,0,1,12.378,0Z" transform="translate(1.238 1.238)" fill="#ffd947"/>
        <path id="Trazado_877632" data-name="Trazado 877632" d="M333.616,347.232a13.616,13.616,0,1,1,13.616-13.616A13.616,13.616,0,0,1,333.616,347.232Zm0-24.757a11.14,11.14,0,1,0,11.14,11.14A11.14,11.14,0,0,0,333.616,322.476Z" transform="translate(-320 -320)"/>
        <g id="Grupo_1100327" data-name="Grupo 1100327" transform="translate(4.951 5.729)">
          <path id="Trazado_877633" data-name="Trazado 877633" d="M372.378,407.427h-9.9L360,400h14.854Z" transform="translate(-358.762 -393.351)" fill="#fffdfa"/>
          <path id="Trazado_877634" data-name="Trazado 877634" d="M369.1,362.954a1.238,1.238,0,0,0-1-.514h-1.638l-2.164-5.411-2.3.919,1.8,4.492h-6.246l1.8-4.492-2.3-.919-2.164,5.411h-1.638a1.238,1.238,0,0,0-1.174,1.629l2.476,7.427a1.238,1.238,0,0,0,1.174.846h9.9a1.238,1.238,0,0,0,1.174-.846l2.476-7.427A1.239,1.239,0,0,0,369.1,362.954Zm-4.372,6.913h-8.118l-1.65-4.951h11.419Z" transform="translate(-351.999 -357.029)"/>
        </g>
      </g>
      <g id="Grupo_1100329" data-name="Grupo 1100329" transform="translate(17.238 64.275)">
        <path id="Trazado_877638" data-name="Trazado 877638" d="M12.378,0A12.378,12.378,0,1,1,0,12.378,12.378,12.378,0,0,1,12.378,0Z" transform="translate(0)" fill="#7d6eb2"/>
        <path id="Trazado_877635" data-name="Trazado 877635" d="M63.427,360.579l2.29,4.453,5.12.714-3.7,3.466.875,4.894-4.579-2.311-4.579,2.311.875-4.894-3.7-3.466,5.12-.714Z" transform="translate(-51.063 -355.538)" fill="#f5f1ff"/>
      </g>
      <g id="Grupo_1100330" data-name="Grupo 1100330" transform="translate(16 63.037)">
        <path id="Trazado_877636" data-name="Trazado 877636" d="M29.616,347.232a13.616,13.616,0,1,1,13.616-13.616,13.616,13.616,0,0,1-13.616,13.616Zm0-24.757a11.14,11.14,0,1,0,11.14,11.14,11.14,11.14,0,0,0-11.14-11.14Z" transform="translate(-16 -320)"/>
        <path id="Trazado_877637" data-name="Trazado 877637" d="M61.244,368.581a1.237,1.237,0,0,1-.557-.133l-4.022-2.029-4.022,2.029a1.238,1.238,0,0,1-1.776-1.323l.756-4.232-3.214-3.006a1.238,1.238,0,0,1,.674-2.13l4.484-.625,2-3.882a1.238,1.238,0,0,1,2.2,0l2,3.881,4.484.625a1.238,1.238,0,0,1,.675,2.13l-3.214,3.006.756,4.232a1.238,1.238,0,0,1-1.219,1.456Zm-4.58-4.786a1.238,1.238,0,0,1,.557.133l2.367,1.195-.439-2.455a1.238,1.238,0,0,1,.373-1.122l1.81-1.694-2.551-.356a1.238,1.238,0,0,1-.93-.66l-1.189-2.312-1.189,2.312a1.238,1.238,0,0,1-.93.66l-2.551.356,1.81,1.694a1.238,1.238,0,0,1,.373,1.122l-.436,2.455,2.367-1.195a1.238,1.238,0,0,1,.558-.133Z" transform="translate(-43.063 -347.538)"/>
      </g>
    </g>
  </g>
</svg>
