<svg xmlns="http://www.w3.org/2000/svg" width="67" height="59.184" viewBox="0 0 67 59.184">
  <g id="Grupo_1101895" data-name="Grupo 1101895" transform="translate(-180 -31469.23)">
    <g id="Grupo_1101531" data-name="Grupo 1101531" transform="translate(0 27719.078)">
      <path id="_12068" data-name="12068" d="M66.039,71.828c-6.861-.947-14.108-.716-20.351,2.283C37.03,78.27,31.344,87.7,31.126,97.3s4.784,19.038,12.512,24.741a35.81,35.81,0,0,0,27.37,6.013c9.53-1.727,18.474-7.326,23.445-15.638,3.187-5.33,4.677-11.911,2.916-17.867a24.409,24.409,0,0,0-5.793-9.521A42.8,42.8,0,0,0,66.039,71.828Z" transform="translate(148.881 3680.691)" fill="#26aab7"/>
      <path id="Trazado_873155" data-name="Trazado 873155" d="M303.26,44.546a1.582,1.582,0,1,0-.106-2.456A1.573,1.573,0,0,0,303.26,44.546Z" transform="translate(138.287 4055.916) rotate(-90)" fill="#7d6eb2"/>
      <path id="Trazado_873156" data-name="Trazado 873156" d="M321.56,66.974a3.448,3.448,0,1,0-1.687-4.918A3.468,3.468,0,0,0,321.56,66.974Z" transform="translate(128.241 4079.581) rotate(-90)" fill="#ffd947"/>
      <circle id="Elipse_11521" data-name="Elipse 11521" cx="3.689" cy="3.689" r="3.689" transform="translate(237.702 3796.368) rotate(-90)" fill="none" stroke="#fff" stroke-linecap="round" stroke-linejoin="round" stroke-width="1.5"/>
    </g>
    <g id="Layer_25" data-name="Layer 25" transform="translate(183 31470)">
      <rect id="Rect치ngulo_401600" data-name="Rect치ngulo 401600" width="31" height="55" rx="7" transform="translate(10 2)" fill="#817d74"/>
      <path id="Trazado_879782" data-name="Trazado 879782" d="M14,10H38.077V48.893H14Z" transform="translate(-0.37 -0.666)" fill="#92d8f0"/>
      <rect id="Rect치ngulo_401601" data-name="Rect치ngulo 401601" width="30" height="24" rx="4" transform="translate(21 19)" fill="#eeebe7"/>
      <path id="Trazado_879783" data-name="Trazado 879783" d="M47.808,20H25.7A3.7,3.7,0,0,0,22,23.7V40.373a3.661,3.661,0,0,0,.125.907c.267.008.532.019.8.019C35.907,41.3,46.576,31.955,47.808,20Z" transform="translate(-0.962 -1.405)" fill="#fff"/>
      <circle id="Elipse_11970" data-name="Elipse 11970" cx="2" cy="2" r="2" transform="translate(24 51)" fill="#d5cec3"/>
      <path id="Trazado_879784" data-name="Trazado 879784" d="M34.778,40.669V35.112H32v-3.7h2.778V28.63A4.63,4.63,0,0,1,39.408,24h2.778v3.7H39.408a.926.926,0,0,0-.926.926v2.778H41.26v3.7H38.482v5.556Z" transform="translate(-1.701 -1.701)" fill="#0071bc"/>
      <path id="Trazado_879785" data-name="Trazado 879785" d="M22.926,6.852h7.408a.926.926,0,0,0,0-1.852H22.926a.926.926,0,0,0,0,1.852Z" transform="translate(-0.962 -0.296)"/>
      <path id="Trazado_879786" data-name="Trazado 879786" d="M26.778,54a2.778,2.778,0,1,0,2.778,2.778A2.778,2.778,0,0,0,26.778,54Zm0,3.7a.926.926,0,1,1,.926-.926A.926.926,0,0,1,26.778,57.7Z" transform="translate(-1.11 -3.92)"/>
      <path id="Trazado_879787" data-name="Trazado 879787" d="M46.967,17.669h-4.63V8.408A7.417,7.417,0,0,0,34.929,1H16.408A7.417,7.417,0,0,0,9,8.408v42.6a7.417,7.417,0,0,0,7.408,7.408H34.929a7.417,7.417,0,0,0,7.408-7.408V43.6h4.63a4.636,4.636,0,0,0,4.63-4.63V22.3a4.636,4.636,0,0,0-4.63-4.63ZM40.485,51.006a5.562,5.562,0,0,1-5.556,5.556H16.408a5.562,5.562,0,0,1-5.556-5.556V8.408a5.562,5.562,0,0,1,5.556-5.556H34.929a5.562,5.562,0,0,1,5.556,5.556v9.26H38.633V9.334a.926.926,0,0,0-.926-.926H13.63a.926.926,0,0,0-.926.926V48.228a.926.926,0,0,0,.926.926H37.707a.926.926,0,0,0,.926-.926V43.6h1.852ZM24.743,43.6H36.781v3.7H14.556V10.26H36.781v7.408H24.743a4.636,4.636,0,0,0-4.63,4.63V38.967a4.636,4.636,0,0,0,4.63,4.63Zm25-4.63a2.778,2.778,0,0,1-2.778,2.778H24.743a2.778,2.778,0,0,1-2.778-2.778V22.3a2.778,2.778,0,0,1,2.778-2.778H46.967A2.778,2.778,0,0,1,49.745,22.3Z"/>
      <path id="Trazado_879788" data-name="Trazado 879788" d="M42.112,23H39.334a5.562,5.562,0,0,0-5.556,5.556v1.852H31.926a.926.926,0,0,0-.926.926v3.7a.926.926,0,0,0,.926.926h1.852v4.63a.926.926,0,0,0,.926.926h3.7a.926.926,0,0,0,.926-.926v-4.63h1.852a.926.926,0,0,0,.926-.926v-3.7a.926.926,0,0,0-.926-.926H39.334V28.556h2.778a.926.926,0,0,0,.926-.926v-3.7A.926.926,0,0,0,42.112,23Zm-.926,3.7H39.334a1.852,1.852,0,0,0-1.852,1.852v2.778a.926.926,0,0,0,.926.926H40.26v1.852H38.408a.926.926,0,0,0-.926.926v4.63H35.63v-4.63a.926.926,0,0,0-.926-.926H32.852V32.26H34.7a.926.926,0,0,0,.926-.926V28.556a3.7,3.7,0,0,1,3.7-3.7h1.852Z" transform="translate(-1.627 -1.627)"/>
    </g>
  </g>
</svg>
