<svg xmlns="http://www.w3.org/2000/svg" width="78.501" height="74.271" viewBox="0 0 78.501 74.271">
  <g id="Grupo_1100272" data-name="Grupo 1100272" transform="translate(-244 -23381.363)">
    <path id="_12068" data-name="12068" d="M72.033,71.913c-8.038-1.11-16.53-.839-23.844,2.675C38.045,79.46,31.382,90.507,31.127,101.757s5.606,22.305,14.66,28.988,21,9.051,32.068,7.045c11.165-2.023,21.645-8.583,27.469-18.322,3.735-6.245,5.48-13.956,3.417-20.934a28.6,28.6,0,0,0-6.787-11.156A50.145,50.145,0,0,0,72.033,71.913Z" transform="translate(212.881 23317.152)" fill="#26aab7"/>
    <g id="puntero-del-mapa" transform="translate(198.591 23383.709)">
      <path id="Trazado_877515" data-name="Trazado 877515" d="M95.95,82.593c6.356-8.137,19.8-23,24.212-31.35a27.415,27.415,0,1,0-48.423,0C76.153,59.6,89.594,74.456,95.95,82.593Z" transform="translate(-11.284 -11.397)" fill="#fb545c" fill-rule="evenodd"/>
      <circle id="Elipse_11865" data-name="Elipse 11865" cx="20.727" cy="20.727" r="20.727" transform="translate(55.351 26.963) rotate(-45)" fill="#e9e9ff"/>
      <g id="Grupo_1100271" data-name="Grupo 1100271" transform="translate(67.944 14.923)">
        <path id="Trazado_877516" data-name="Trazado 877516" d="M152.734,174.231h30.189v17.7a20.724,20.724,0,0,1-30.189.016Z" transform="translate(-151.1 -165.701)" fill="#a3a3cc" fill-rule="evenodd"/>
        <path id="Trazado_877517" data-name="Trazado 877517" d="M219.676,174.232h20.409v17.7a20.751,20.751,0,0,1-20.409,5.845Z" transform="translate(-208.261 -165.702)" fill="#bcbee2" fill-rule="evenodd"/>
        <path id="Trazado_877518" data-name="Trazado 877518" d="M175.008,124.379v1.637a2.39,2.39,0,1,1-4.78,0,2.39,2.39,0,1,1-4.78,0,2.39,2.39,0,1,1-4.78,0,2.39,2.39,0,1,1-4.78,0,2.39,2.39,0,1,1-4.78,0,2.39,2.39,0,1,1-4.78,0,2.39,2.39,0,1,1-4.78,0v-1.637l4.321-7.485a2.041,2.041,0,0,1,1.81-1.045h21.195a2.041,2.041,0,0,1,1.81,1.045Z" transform="translate(-141.55 -115.849)" fill="#d93b43" fill-rule="evenodd"/>
        <path id="Trazado_877519" data-name="Trazado 877519" d="M241.72,156.456v1.637a2.39,2.39,0,0,1-4.78,0,2.39,2.39,0,1,1-4.78,0,2.39,2.39,0,1,1-4.78,0,2.39,2.39,0,1,1-4.78,0,2.39,2.39,0,0,1-2.924,2.329v-3.966l.864-3.041h19.423l1.756,3.041Z" transform="translate(-208.262 -147.926)" fill="#fb545c" fill-rule="evenodd"/>
        <path id="Trazado_877520" data-name="Trazado 877520" d="M141.548,124.378l4.321-7.485a2.041,2.041,0,0,1,1.81-1.045h21.195a2.041,2.041,0,0,1,1.81,1.045l4.321,7.485Z" transform="translate(-141.548 -115.848)" fill="#fdc72e" fill-rule="evenodd"/>
        <path id="Trazado_877521" data-name="Trazado 877521" d="M222.1,115.847h13.488a2.041,2.041,0,0,1,1.81,1.045l4.321,7.485H219.676l2.424-8.53Z" transform="translate(-208.261 -115.847)" fill="#fddb1e" fill-rule="evenodd"/>
        <path id="Trazado_877522" data-name="Trazado 877522" d="M281.3,225.723h-.91v16.406q.459-.079.91-.179V225.723Z" transform="translate(-260.105 -209.67)" fill="#a3a3cc" fill-rule="evenodd"/>
      </g>
      <path id="Trazado_877523" data-name="Trazado 877523" d="M176.071,225.724h12.722v9.51H176.071Z" transform="translate(-103.083 -194.748)" fill="#aadbfb"/>
      <path id="Trazado_877524" data-name="Trazado 877524" d="M286.582,225.724h7.209v13.111a20.62,20.62,0,0,1-7.209,3.117Z" transform="translate(-197.448 -194.748)" fill="#f3f3ff" fill-rule="evenodd"/>
      <path id="Trazado_877525" data-name="Trazado 877525" d="M219.61,225.724h6.361v9.51H219.61Z" transform="translate(-140.26 -194.748)" fill="#c8e8fb"/>
      <path id="Trazado_877526" data-name="Trazado 877526" d="M92.019,46.882H80.757v-8.05H92.019Zm.73-9.511H80.027a.73.73,0,0,0-.73.73v9.512a.73.73,0,0,0,.73.73H92.749a.73.73,0,0,0,.73-.73V38.1A.73.73,0,0,0,92.749,37.371Zm14.787,8.917a20,20,0,1,0-31.664,0V34.96a3.123,3.123,0,0,1-1.635-2.744V30.579a.722.722,0,0,1,.1-.365L78.672,22.7a2.712,2.712,0,0,1,2.4-1.388h21.258a2.71,2.71,0,0,1,2.4,1.388l4.337,7.511a.73.73,0,0,1,.1.365v1.638a3.124,3.124,0,0,1-1.635,2.744V46.288Zm-31.3-16.44,3.7-6.415a1.269,1.269,0,0,1,1.138-.657h21.258a1.27,1.27,0,0,1,1.138.657l3.7,6.415ZM75.7,31.309h32.011v.908a1.661,1.661,0,0,1-3.321,0,.73.73,0,1,0-1.461,0,1.661,1.661,0,0,1-3.321,0,.731.731,0,0,0-1.461,0,1.66,1.66,0,0,1-3.321,0,.731.731,0,0,0-1.461,0,1.66,1.66,0,0,1-3.319,0,.731.731,0,0,0-1.461,0,1.66,1.66,0,0,1-3.321,0,.731.731,0,0,0-1.461,0,1.66,1.66,0,0,1-3.321,0,.731.731,0,0,0-1.461,0,1.66,1.66,0,0,1-3.321,0v-.908Zm28.414,18.449a20.163,20.163,0,0,0,1.962-1.781V35.336h-.025a3.115,3.115,0,0,1-2.391-1.117,3.118,3.118,0,0,1-4.782,0,3.118,3.118,0,0,1-4.782,0,3.116,3.116,0,0,1-4.781,0,3.118,3.118,0,0,1-4.782,0,3.118,3.118,0,0,1-4.782,0,3.115,3.115,0,0,1-2.392,1.117h-.025V47.977a19.97,19.97,0,0,0,18.109,5.755V38.1a.73.73,0,0,1,.73-.73h7.21a.731.731,0,0,1,.73.73V49.757Zm-1.461,1.055A19.858,19.858,0,0,1,96.9,53.4V38.832h5.749ZM91.7,12.63a21.458,21.458,0,1,0,21.458,21.458A21.483,21.483,0,0,0,91.7,12.63Zm23.567,34a26.932,26.932,0,0,0-4.7-31.386,26.769,26.769,0,0,0-37.741,0A26.93,26.93,0,0,0,68.139,46.63c3.093,5.855,10.9,15.215,17.174,22.736C87.678,72.2,89.925,74.9,91.7,77.141,93.484,74.9,95.731,72.2,98.1,69.366,104.369,61.845,112.177,52.486,115.271,46.63Zm4.268-16.508a28.112,28.112,0,0,0-55.669,0,28.526,28.526,0,0,0,2.976,17.191c3.166,5.99,10.7,15.022,17.344,22.99,2.621,3.142,5.1,6.11,6.939,8.469a.73.73,0,0,0,1.151,0c1.843-2.359,4.318-5.327,6.939-8.469,6.646-7.968,14.178-17,17.344-22.99a28.507,28.507,0,0,0,2.976-17.191Z" transform="translate(-7.039 -7.126)" fill="#00223d" fill-rule="evenodd"/>
    </g>
  </g>
</svg>
