<svg xmlns="http://www.w3.org/2000/svg" width="78.501" height="74.635" viewBox="0 0 78.501 74.635">
  <g id="Grupo_1100320" data-name="Grupo 1100320" transform="translate(-244 -24738.363)">
    <path id="_12068" data-name="12068" d="M72.033,71.913c-8.038-1.11-16.53-.839-23.844,2.675C38.045,79.46,31.382,90.507,31.127,101.757s5.606,22.305,14.66,28.988,21,9.051,32.068,7.045c11.165-2.023,21.645-8.583,27.469-18.322,3.735-6.245,5.48-13.956,3.417-20.934a28.6,28.6,0,0,0-6.787-11.156A50.145,50.145,0,0,0,72.033,71.913Z" transform="translate(212.881 24674.152)" fill="#26aab7"/>
    <g id="distribucion" transform="translate(245.932 24738.363)">
      <g id="Grupo_1100318" data-name="Grupo 1100318" transform="translate(1.204 1.204)">
        <g id="Grupo_1100299" data-name="Grupo 1100299" transform="translate(55.376 51.993)">
          <path id="Trazado_877595" data-name="Trazado 877595" d="M55.222,45.6a4.818,4.818,0,1,1-6.814,0A4.824,4.824,0,0,1,55.222,45.6Z" transform="translate(-47 -44.19)" fill="#ffd947"/>
        </g>
        <g id="Grupo_1100300" data-name="Grupo 1100300" transform="translate(9.173 9.173)">
          <circle id="Elipse_11866" data-name="Elipse 11866" cx="4.809" cy="4.809" r="4.809" fill="#ffd947"/>
        </g>
        <g id="Grupo_1100301" data-name="Grupo 1100301" transform="translate(31.299)">
          <circle id="Elipse_11867" data-name="Elipse 11867" cx="4.5" cy="4.5" r="4.5" transform="translate(0.497 0.433)" fill="#ffd947"/>
        </g>
        <g id="Grupo_1100302" data-name="Grupo 1100302" transform="translate(62.599 31.299)">
          <circle id="Elipse_11868" data-name="Elipse 11868" cx="4.5" cy="4.5" r="4.5" transform="translate(0.197 0.134)" fill="#ffd947"/>
        </g>
        <g id="Grupo_1100303" data-name="Grupo 1100303" transform="translate(53.438 9.173)">
          <circle id="Elipse_11869" data-name="Elipse 11869" cx="4.809" cy="4.809" r="4.809" fill="#ffd947"/>
        </g>
        <g id="Grupo_1100304" data-name="Grupo 1100304" transform="translate(0 31.299)">
          <ellipse id="Elipse_11870" data-name="Elipse 11870" cx="5" cy="4.5" rx="5" ry="4.5" transform="translate(-0.204 0.134)" fill="#ffd947"/>
        </g>
        <g id="Grupo_1100305" data-name="Grupo 1100305" transform="translate(7.223 51.993)">
          <path id="Trazado_877596" data-name="Trazado 877596" d="M15.222,45.6a4.818,4.818,0,1,1-6.814,0A4.824,4.824,0,0,1,15.222,45.6Z" transform="translate(-7 -44.19)" fill="#ffd947"/>
        </g>
        <g id="Grupo_1100306" data-name="Grupo 1100306" transform="translate(30.096 16.853)">
          <path id="Trazado_877597" data-name="Trazado 877597" d="M37.665,24.631h-.686a4.826,4.826,0,0,0-4.671,3.648l-.289,1.168H26C26,17.408,32.019,15,32.019,15S36.365,16.734,37.665,24.631Z" transform="translate(-26 -15)" fill="#e6e9ed"/>
        </g>
        <g id="Grupo_1100307" data-name="Grupo 1100307" transform="translate(36.115 26.484)">
          <path id="Trazado_877598" data-name="Trazado 877598" d="M51.465,23a2.415,2.415,0,0,1,2.408,2.408,2.425,2.425,0,0,1-2.408,2.408H31l.289-1.168A4.826,4.826,0,0,1,35.96,23H51.465Z" transform="translate(-31 -23)" fill="#7d6eb2"/>
        </g>
        <g id="Grupo_1100308" data-name="Grupo 1100308" transform="translate(36.115 16.853)">
          <path id="Trazado_877599" data-name="Trazado 877599" d="M46.409,24.631H36.646C35.346,16.734,31,15,31,15h3.611A12.049,12.049,0,0,1,46.409,24.631Z" transform="translate(-31 -15)" fill="#7d6eb2"/>
        </g>
        <g id="Grupo_1100309" data-name="Grupo 1100309" transform="translate(20.465 16.853)">
          <path id="Trazado_877600" data-name="Trazado 877600" d="M30.038,15H33.65s-6.019,2.408-6.019,14.446H20.408A2.415,2.415,0,0,1,18,27.038a11.945,11.945,0,0,1,1.914-6.513,12.339,12.339,0,0,1,1.613-2A12,12,0,0,1,30.038,15Z" transform="translate(-18 -15)" fill="#7d6eb2"/>
        </g>
        <g id="Grupo_1100310" data-name="Grupo 1100310" transform="translate(26.484 48.153)">
          <path id="Trazado_877601" data-name="Trazado 877601" d="M38.1,42.312a11.847,11.847,0,0,1,4.165,3.5H23a12.038,12.038,0,0,1,15.1-3.5Z" transform="translate(-23 -41)" fill="#59836b"/>
        </g>
        <g id="Grupo_1100311" data-name="Grupo 1100311" transform="translate(24.076 52.968)">
          <path id="Trazado_877602" data-name="Trazado 877602" d="M45.076,57.038v7.223H21V57.038a2.415,2.415,0,0,0,2.408-2.408V52.223A2.415,2.415,0,0,0,21,49.815V45h7.223v4.815h9.631V45h7.223v4.815a2.415,2.415,0,0,0-2.408,2.408v2.408A2.415,2.415,0,0,0,45.076,57.038Z" transform="translate(-21 -45)" fill="#dfb28b"/>
        </g>
        <g id="Grupo_1100312" data-name="Grupo 1100312" transform="translate(31.299 52.968)">
          <path id="Trazado_877603" data-name="Trazado 877603" d="M27,45h9.631v4.815H27Z" transform="translate(-27 -45)" fill="#b27946"/>
        </g>
        <g id="Grupo_1100313" data-name="Grupo 1100313" transform="translate(45.745 57.783)">
          <path id="Trazado_877604" data-name="Trazado 877604" d="M42.611,49a1.207,1.207,0,0,1,1.2,1.2v4.815a1.207,1.207,0,0,1-1.2,1.2h-1.2A2.415,2.415,0,0,1,39,53.815V51.408A2.415,2.415,0,0,1,41.408,49Z" transform="translate(-39 -49)" fill="#f0d0b4"/>
        </g>
        <g id="Grupo_1100314" data-name="Grupo 1100314" transform="translate(21.669 57.783)">
          <path id="Trazado_877605" data-name="Trazado 877605" d="M20.2,56.223a1.207,1.207,0,0,1-1.2-1.2V50.2A1.207,1.207,0,0,1,20.2,49h1.2a2.415,2.415,0,0,1,2.408,2.408v2.408a2.415,2.415,0,0,1-2.408,2.408Z" transform="translate(-19 -49)" fill="#f0d0b4"/>
        </g>
        <g id="Grupo_1100315" data-name="Grupo 1100315" transform="translate(46.877 32.503)">
          <path id="Trazado_877606" data-name="Trazado 877606" d="M41.216,28a3.611,3.611,0,0,1,0,7.223H39.94a9.945,9.945,0,0,0,.072-1.2V28Z" transform="translate(-39.94 -28)" fill="#f0d0b4"/>
        </g>
        <g id="Grupo_1100316" data-name="Grupo 1100316" transform="translate(25.28 31.299)">
          <path id="Trazado_877607" data-name="Trazado 877607" d="M43.669,28.2v6.019a9.945,9.945,0,0,1-.072,1.2,9.629,9.629,0,0,1-9.558,8.427H31.631a9.624,9.624,0,0,1-8.764-5.634,9.447,9.447,0,0,1-.795-2.793,9.945,9.945,0,0,1-.072-1.2V27H43.669Z" transform="translate(-22 -27)" fill="#f0d0b4"/>
        </g>
        <g id="Grupo_1100317" data-name="Grupo 1100317" transform="translate(20.465 32.503)">
          <path id="Trazado_877608" data-name="Trazado 877608" d="M22.888,35.223H21.611a3.611,3.611,0,1,1,0-7.223h1.2v6.019a9.946,9.946,0,0,0,.072,1.2Z" transform="translate(-18 -28)" fill="#f0d0b4"/>
        </g>
      </g>
      <g id="Grupo_1100319" data-name="Grupo 1100319" transform="translate(0)">
        <path id="Trazado_877609" data-name="Trazado 877609" d="M34.2,34.807a2.692,2.692,0,0,1-4.815,0l-.126-.254-2.154,1.077.126.254a5.1,5.1,0,0,0,9.123,0l.126-.254-2.154-1.077Z" transform="translate(5.525 7.042)" fill="#00223d"/>
        <path id="Trazado_877610" data-name="Trazado 877610" d="M35.611,29A3.616,3.616,0,0,0,32,32.611h2.408a1.2,1.2,0,1,1,2.408,0h2.408A3.616,3.616,0,0,0,35.611,29Z" transform="translate(6.522 5.911)" fill="#00223d"/>
        <path id="Trazado_877611" data-name="Trazado 877611" d="M28.815,32.611h2.408a3.611,3.611,0,1,0-7.223,0h2.408a1.2,1.2,0,1,1,2.408,0Z" transform="translate(4.892 5.911)" fill="#00223d"/>
        <path id="Trazado_877612" data-name="Trazado 877612" d="M68.618,31.3a6.03,6.03,0,0,0-5.9,4.815H54a4.786,4.786,0,0,0-1.493-2.408h5.275a3.611,3.611,0,1,0,0-7.223h-4.11a13.026,13.026,0,0,0-1.115-2.7l3.573-3.573a6.02,6.02,0,1,0-1.7-1.7L51.195,21.74A13.276,13.276,0,0,0,40.93,16.853H38.522V11.917a6.019,6.019,0,1,0-2.408,0v4.937H33.707a13.217,13.217,0,0,0-10.263,4.889l-3.237-3.237a6.02,6.02,0,1,0-1.7,1.7l3.568,3.568a13.167,13.167,0,0,0-1.608,6.32,3.609,3.609,0,0,0,2.087,3.262,4.82,4.82,0,0,0-1.916,2.757H11.917a6.019,6.019,0,1,0,0,2.408h8.719a4.809,4.809,0,0,0,4.644,3.611h.279a10.719,10.719,0,0,0,.388,1.3L16.553,52.99a6.007,6.007,0,1,0,1.706,1.7l8.83-8.982a10.908,10.908,0,0,0,4.388,3.8,13.208,13.208,0,0,0-4.347,3.465H24.076v4.815a2.41,2.41,0,0,0-2.408,2.408v4.815a2.41,2.41,0,0,0,2.408,2.408v7.223H50.56V67.413a2.41,2.41,0,0,0,2.408-2.408V60.19a2.41,2.41,0,0,0-2.408-2.408V52.967H47.506A13.188,13.188,0,0,0,43.161,49.5,10.88,10.88,0,0,0,47.2,46.183l9.154,8.547a6,6,0,1,0,1.689-1.717l-9.6-8.96a10.714,10.714,0,0,0,.63-1.921h.278A4.809,4.809,0,0,0,54,38.521H62.72a6.019,6.019,0,1,0,5.9-7.222ZM56.9,12.633A3.611,3.611,0,1,1,62,17.74a3.7,3.7,0,0,1-5.107,0,3.61,3.61,0,0,1,0-5.107ZM33.707,6.019a3.611,3.611,0,1,1,3.611,3.611,3.616,3.616,0,0,1-3.611-3.611ZM12.633,17.74a3.611,3.611,0,1,1,5.107,0A3.7,3.7,0,0,1,12.633,17.74ZM6.019,40.93a3.611,3.611,0,1,1,3.611-3.611A3.616,3.616,0,0,1,6.019,40.93ZM15.8,60.568a3.7,3.7,0,0,1-5.107,0,3.611,3.611,0,1,1,5.107,0Zm45.6-6.165a3.611,3.611,0,0,1,2.553,6.165,3.7,3.7,0,0,1-5.107,0A3.611,3.611,0,0,1,61.395,54.4ZM57.783,28.892a1.2,1.2,0,0,1,0,2.408H38.876a3.609,3.609,0,0,1,3.406-2.408ZM37.312,19.433c.934.62,3.125,2.515,4.2,7.116a6,6,0,0,0-5.07,4.5l-.064.255h-3.84c.3-8.194,3.545-11.074,4.774-11.866Zm13.836,7.051H43.955a15.973,15.973,0,0,0-3.288-7.223h.262A10.875,10.875,0,0,1,51.148,26.484ZM33.707,19.261h.254c-1.729,2.031-3.608,5.7-3.827,12.038H24.076a1.2,1.2,0,0,1-1.2-1.2A10.846,10.846,0,0,1,33.707,19.261ZM22.873,37.318a2.41,2.41,0,0,1,2.408-2.408v4.815a2.41,2.41,0,0,1-2.408-2.408Zm1.2,22.873h1.2a1.2,1.2,0,0,1,1.2,1.2V63.8a1.2,1.2,0,0,1-1.2,1.2h-1.2Zm26.486,4.815H49.357a1.2,1.2,0,0,1-1.2-1.2V61.395a1.2,1.2,0,0,1,1.2-1.2h1.2Zm-2.41-7a3.607,3.607,0,0,0-2.408,3.39V63.8a3.607,3.607,0,0,0,2.408,3.39v5.037H26.484V67.192a3.607,3.607,0,0,0,2.408-3.39V61.395A3.607,3.607,0,0,0,26.484,58V55.376H31.3v4.815H43.338V55.376h4.815ZM33.707,55.376H40.93v2.408H33.707Zm-3.195-2.408a10.825,10.825,0,0,1,13.613,0Zm8.01-4.815H36.115a8.438,8.438,0,0,1-8.427-8.427V33.707H46.949v6.019A8.438,8.438,0,0,1,38.522,48.153Zm10.834-8.427V34.911a2.408,2.408,0,0,1,0,4.815Zm19.261,1.2a3.611,3.611,0,1,1,3.611-3.611A3.616,3.616,0,0,1,68.618,40.93Z" transform="translate(0)" fill="#00223d"/>
      </g>
    </g>
  </g>
</svg>
