<svg xmlns="http://www.w3.org/2000/svg" width="78.501" height="67.148" viewBox="0 0 78.501 67.148">
  <g id="Grupo_1101898" data-name="Grupo 1101898" transform="translate(-244 -15569.614)">
    <g id="Grupo_1101708" data-name="Grupo 1101708" transform="translate(0 -259.871)">
      <path id="_12068" data-name="12068" d="M72.033,71.913c-8.038-1.11-16.53-.839-23.844,2.675C38.045,79.46,31.382,90.507,31.127,101.757s5.606,22.305,14.66,28.988,21,9.051,32.068,7.045c11.165-2.023,21.645-8.583,27.469-18.322,3.735-6.245,5.48-13.956,3.417-20.934a28.6,28.6,0,0,0-6.787-11.156A50.145,50.145,0,0,0,72.033,71.913Z" transform="translate(212.881 15758.152)" fill="#26aab7"/>
      <g id="Page-1" transform="translate(243.998 15830.994)">
        <g id="_040---Conversations" data-name="040---Conversations" transform="translate(0.002 0)">
          <path id="Shape" d="M62.5,21.726c0,11.764-11.48,18.878-22.937,20.124a44.952,44.952,0,0,1-10.441-.157c-4.71-.59-8.647-2.165-14.393-1.23-4.108.68-8.008,2.434-12.155,3.022a1.391,1.391,0,0,1-1.217-2.3,15.556,15.556,0,0,0,2.355-3.389,13.776,13.776,0,0,0,1.125-6.987c-.317-3.479-2.26-6.082-1.714-10.651C4.65,7.2,20.354,1,33.4,1,50.2,1,62.5,10.29,62.5,21.726Z" transform="translate(0.307 0.308)" fill="#7d6eb2"/>
          <path id="Shape-2" data-name="Shape" d="M26.2,1c-.623,0-1.248.044-1.872.071,15.734.727,27.047,9.693,27.047,20.655a16.9,16.9,0,0,1-.236,2.852c-1.727,10.507-12.954,16.212-22.7,17.271-.785.085-1.57.139-2.349.177a41.714,41.714,0,0,0,6.274-.177c9.748-1.06,20.974-6.765,22.7-17.271a16.9,16.9,0,0,0,.236-2.852C55.3,10.29,43,1,26.2,1Z" transform="translate(7.502 0.308)" fill="#62529b"/>
          <path id="Shape-3" data-name="Shape" d="M72.085,57.553c-4.71-.667-9.107-2.852-13.856-3.232-4.778-.421-8.513.916-12.692,1.439a44.953,44.953,0,0,1-10.441.157C24.249,54.74,11.138,47.806,11.492,34.9c5.732-.933,9.69.642,14.393,1.23a44.952,44.952,0,0,0,10.441.157c9.748-1.06,20.974-6.765,22.7-17.271,6.32,2.931,11.658,7.877,12.509,15.2.547,4.58-1.4,7.185-1.714,10.651a13.776,13.776,0,0,0,1.125,6.987A15.556,15.556,0,0,0,73.3,55.251a1.391,1.391,0,0,1-1.217,2.3Z" transform="translate(3.54 5.866)" fill="#ffd947"/>
          <path id="Shape-4" data-name="Shape" d="M62.2,55.251a15.556,15.556,0,0,1-2.355-3.389,13.777,13.777,0,0,1-1.125-6.987c.317-3.479,2.26-6.082,1.714-10.651-.85-7.327-6.189-12.273-12.509-15.2a16.306,16.306,0,0,1-.432,1.908c4.7,3.009,8.327,7.372,9.015,13.3.547,4.58-1.4,7.185-1.714,10.651a13.777,13.777,0,0,0,1.125,6.987,15.556,15.556,0,0,0,2.355,3.389,1.374,1.374,0,0,1,.048,1.769c.879.215,1.762.407,2.66.534a1.391,1.391,0,0,0,1.217-2.3Z" transform="translate(14.645 5.866)" fill="#fec108"/>
          <g id="Grupo_1101707" data-name="Grupo 1101707" transform="translate(11.826 5.234)">
            <circle id="Oval" cx="3.925" cy="3.925" r="3.925" transform="translate(2.565 13.084)" fill="#f5f5f5"/>
            <circle id="Oval-2" data-name="Oval" cx="3.925" cy="3.925" r="3.925" transform="translate(16.958 13.084)" fill="#f5f5f5"/>
            <circle id="Oval-3" data-name="Oval" cx="3.925" cy="3.925" r="3.925" transform="translate(31.351 13.084)" fill="#f5f5f5"/>
            <path id="Shape-5" data-name="Shape" d="M10.347,13.112a1.308,1.308,0,0,1-.857-2.3A31.332,31.332,0,0,1,24.82,4.363a1.308,1.308,0,1,1,.4,2.584A28.71,28.71,0,0,0,11.2,12.792a1.308,1.308,0,0,1-.857.319Z" transform="translate(-9.04 -3.895)" fill="#f5f5f5"/>
            <circle id="Oval-4" data-name="Oval" cx="1.308" cy="1.308" r="1.308" transform="translate(19.575)" fill="#f5f5f5"/>
          </g>
          <path id="Shape-6" data-name="Shape" d="M33.71,0a44.8,44.8,0,0,0-6.918.531C15.8,2.249,3.545,8.348,2.132,20.308a15.309,15.309,0,0,0,.416,5.684c.149.586.319,1.168.491,1.749a18.692,18.692,0,0,1,.8,3.5,12.38,12.38,0,0,1-1.023,6.313A14.146,14.146,0,0,1,.682,40.628a2.694,2.694,0,0,0,1.994,4.484,2.748,2.748,0,0,0,.385-.027A44.868,44.868,0,0,0,9.6,43.491a35.374,35.374,0,0,1,7.241-1.63,22.619,22.619,0,0,1,2.541-.052,37.493,37.493,0,0,1,5.9.816c1.294.249,2.63.505,3.983.674a45.926,45.926,0,0,0,10.74.164c11.607-1.267,24.1-8.511,24.1-21.424C64.113,9.682,50.758,0,33.71,0Zm6.011,40.861A43.463,43.463,0,0,1,29.588,40.7c-1.267-.16-2.561-.407-3.813-.648a39.945,39.945,0,0,0-6.312-.862,25.035,25.035,0,0,0-2.833.06,37.891,37.891,0,0,0-7.78,1.73A42.174,42.174,0,0,1,2.7,42.494l-.055-.131a16.732,16.732,0,0,0,2.561-3.722,15.012,15.012,0,0,0,1.246-7.649A21.058,21.058,0,0,0,5.554,27c-.161-.547-.323-1.1-.463-1.651a12.751,12.751,0,0,1-.355-4.733C5.978,10.108,17.154,4.686,27.2,3.114a42.38,42.38,0,0,1,6.509-.5c15.581,0,27.786,8.531,27.786,19.421C61.5,33.339,50.208,39.716,39.721,40.861Z" transform="translate(-0.002 0)"/>
          <path id="Shape-7" data-name="Shape" d="M66.276,54.405a37.893,37.893,0,0,0-7.781-1.736,23.3,23.3,0,0,0-2.837-.069,39.567,39.567,0,0,0-6.321.865c-1.251.241-2.546.491-3.811.654a43.308,43.308,0,0,1-10.136.154c-8.986-.979-19.221-5.921-21.825-14.758a1.308,1.308,0,0,0-2.51.741C14,50.247,25.256,55.8,35.1,56.873a46.005,46.005,0,0,0,10.745-.16c1.352-.169,2.689-.427,3.983-.675a37.045,37.045,0,0,1,5.9-.819,21.383,21.383,0,0,1,2.537.067,35.347,35.347,0,0,1,7.257,1.632,45.066,45.066,0,0,0,6.53,1.592,2.7,2.7,0,0,0,2.37-4.47,14.251,14.251,0,0,1-2.145-3.072,12.42,12.42,0,0,1-1.011-6.325,18.434,18.434,0,0,1,.8-3.524c.169-.57.336-1.141.481-1.71a15.223,15.223,0,0,0,.424-5.686A19.127,19.127,0,0,0,64.72,20.386,1.309,1.309,0,1,0,63.181,22.5a16.374,16.374,0,0,1,7.2,11.527,12.653,12.653,0,0,1-.362,4.731c-.131.54-.3,1.078-.454,1.616a20.783,20.783,0,0,0-.9,4.026,15.033,15.033,0,0,0,1.239,7.653,16.729,16.729,0,0,0,2.567,3.715l.977-.87-1.034,1.007a42.492,42.492,0,0,1-6.14-1.5Z" transform="translate(3.392 6.211)"/>
          <path id="Shape-8" data-name="Shape" d="M15.234,13a5.234,5.234,0,1,0,5.234,5.234A5.234,5.234,0,0,0,15.234,13Zm0,7.851a2.617,2.617,0,1,1,2.617-2.617A2.617,2.617,0,0,1,15.234,20.851Z" transform="translate(3.082 4.01)"/>
          <path id="Shape-9" data-name="Shape" d="M26.234,13a5.234,5.234,0,1,0,5.234,5.234A5.234,5.234,0,0,0,26.234,13Zm0,7.851a2.617,2.617,0,1,1,2.617-2.617A2.617,2.617,0,0,1,26.234,20.851Z" transform="translate(6.475 4.01)"/>
          <path id="Shape-10" data-name="Shape" d="M37.234,13a5.234,5.234,0,1,0,5.234,5.234A5.234,5.234,0,0,0,37.234,13Zm0,7.851a2.617,2.617,0,1,1,2.617-2.617A2.617,2.617,0,0,1,37.234,20.851Z" transform="translate(9.868 4.01)"/>
        </g>
      </g>
    </g>
  </g>
</svg>
