<svg xmlns="http://www.w3.org/2000/svg" width="78.501" height="67.148" viewBox="0 0 78.501 67.148">
  <g id="Grupo_1101897" data-name="Grupo 1101897" transform="translate(-244 -14774.614)">
    <g id="Grupo_1101706" data-name="Grupo 1101706" transform="translate(0 -259.871)">
      <path id="_12068" data-name="12068" d="M72.033,71.913c-8.038-1.11-16.53-.839-23.844,2.675C38.045,79.46,31.382,90.507,31.127,101.757s5.606,22.305,14.66,28.988,21,9.051,32.068,7.045c11.165-2.023,21.645-8.583,27.469-18.322,3.735-6.245,5.48-13.956,3.417-20.934a28.6,28.6,0,0,0-6.787-11.156A50.145,50.145,0,0,0,72.033,71.913Z" transform="translate(212.881 14963.152)" fill="#26aab7"/>
      <g id="_x30_3_Inbound_Marketing" transform="translate(243.416 15025.353)">
        <g id="Grupo_1101705" data-name="Grupo 1101705" transform="translate(6.204 10.427)">
          <path id="Trazado_879864" data-name="Trazado 879864" d="M76,22.632V72.11a7.005,7.005,0,0,1-7,7H18.41a7.005,7.005,0,0,1-7-7V22.632a7.005,7.005,0,0,1,7-7H69A7.005,7.005,0,0,1,76,22.632Z" transform="translate(-10.721 -14.943)" fill="#e9e9ff"/>
          <path id="Trazado_879865" data-name="Trazado 879865" d="M76,28.2V22.632a7.005,7.005,0,0,0-7-7H18.41a7.005,7.005,0,0,0-7,7V28.2H76Z" transform="translate(-10.721 -14.943)" fill="#7d6eb2"/>
          <path id="Trazado_879866" data-name="Trazado 879866" d="M21.04,79.091H18.429a7,7,0,0,1-7-7V22.611a7,7,0,0,1,7-7H21.04a7.009,7.009,0,0,0-7,7V72.089A7.005,7.005,0,0,0,21.04,79.091Z" transform="translate(-10.743 -14.924)" fill="#a3a3cc" opacity="0.1"/>
          <path id="Trazado_879867" data-name="Trazado 879867" d="M75.424,203.191a7.3,7.3,0,0,0,.508,5.8,7.551,7.551,0,0,0,10.092,2.988l15.148-7.741a1.857,1.857,0,0,1,2.5.809L105.179,208a1.857,1.857,0,0,1-.809,2.5l-15.015,7.673c-7.136,3.646-16.231.933-19.814-6.234a14.455,14.455,0,0,1,6.345-19.3l15.347-7.842a1.857,1.857,0,0,1,2.5.809l1.509,2.954a1.857,1.857,0,0,1-.809,2.5L79.085,198.89A7.273,7.273,0,0,0,75.424,203.191Z" transform="translate(-59.85 -161.587)" fill="#62529b"/>
          <path id="Trazado_879868" data-name="Trazado 879868" d="M219.062,184.787l-3.774,1.929,3.2,6.26,3.774-1.929a1.857,1.857,0,0,0,.809-2.5L221.56,185.6A1.857,1.857,0,0,0,219.062,184.787Z" transform="translate(-187.679 -161.586)" fill="#fff"/>
          <path id="Trazado_879869" data-name="Trazado 879869" d="M294.322,332.068,290.548,334l3.2,6.26,3.774-1.929a1.857,1.857,0,0,0,.809-2.5l-1.509-2.954A1.857,1.857,0,0,0,294.322,332.068Z" transform="translate(-253 -289.419)" fill="#fff"/>
          <circle id="Elipse_11971" data-name="Elipse 11971" cx="2.987" cy="2.987" r="2.987" transform="translate(6.302 3.986)" fill="#fff"/>
          <circle id="Elipse_11972" data-name="Elipse 11972" cx="2.987" cy="2.987" r="2.987" transform="translate(16.405 3.986)" fill="#fff"/>
          <circle id="Elipse_11973" data-name="Elipse 11973" cx="2.987" cy="2.987" r="2.987" transform="translate(26.508 3.986)" fill="#fff"/>
          <path id="Trazado_879870" data-name="Trazado 879870" d="M324.452,154.379h4.256a.562.562,0,0,1,.352,1l-12.028,9.666a.562.562,0,0,1-.895-.584l2.52-9.374a.562.562,0,0,0-.543-.708h-4.256a.562.562,0,0,1-.352-1l12.028-9.666a.562.562,0,0,1,.895.584l-2.52,9.374A.562.562,0,0,0,324.452,154.379Z" transform="translate(-272.744 -126.003)" fill="#ffd947"/>
          <g id="Grupo_1101704" data-name="Grupo 1101704">
            <path id="Trazado_879871" data-name="Trazado 879871" d="M13.893,75.283H64.486a7.7,7.7,0,0,0,7.689-7.689V18.116a7.7,7.7,0,0,0-7.689-7.689H13.893A7.7,7.7,0,0,0,6.2,18.116V67.594A7.7,7.7,0,0,0,13.893,75.283ZM7.578,18.116A6.322,6.322,0,0,1,13.893,11.8H64.486A6.322,6.322,0,0,1,70.8,18.116V23H7.578Zm0,6.256H70.8V67.594a6.322,6.322,0,0,1-6.315,6.315H13.893a6.322,6.322,0,0,1-6.315-6.315Z" transform="translate(-6.204 -10.427)" fill="#25294f"/>
            <path id="Trazado_879872" data-name="Trazado 879872" d="M85.185,214.272,100.2,206.6a2.542,2.542,0,0,0,1.107-3.423L99.8,200.223a2.548,2.548,0,0,0-3.423-1.108l-15.148,7.741a6.867,6.867,0,0,1-9.173-2.7,6.728,6.728,0,0,1,2.861-9.161l11.572-5.914,3.774-1.929a2.547,2.547,0,0,0,1.108-3.423l-1.509-2.954a2.548,2.548,0,0,0-3.423-1.107l-15.347,7.842a15.114,15.114,0,0,0-6.648,20.224c3.814,7.628,13.391,10.3,20.742,6.539ZM97,200.339a1.171,1.171,0,0,1,1.574.509l1.509,2.954a1.168,1.168,0,0,1-.509,1.573l-3.162,1.616-2.574-5.036Zm-9.938-19.448a1.188,1.188,0,0,1,1.574.509l1.509,2.953a1.171,1.171,0,0,1-.509,1.573l-3.162,1.616L83.9,182.507Zm-15.346,7.842,10.96-5.6,2.574,5.036-10.96,5.6A8.1,8.1,0,0,0,70.843,204.8a8.249,8.249,0,0,0,11.011,3.276l10.762-5.5,2.574,5.036L84.56,213.048c-6.7,3.424-15.431.985-18.887-5.93A13.742,13.742,0,0,1,71.716,188.733Z" transform="translate(-55.367 -157.078)" fill="#25294f"/>
            <path id="Trazado_879873" data-name="Trazado 879873" d="M52.4,35.407a3.674,3.674,0,1,0,3.673,3.674A3.678,3.678,0,0,0,52.4,35.407Zm0,5.973a2.3,2.3,0,1,1,2.3-2.3A2.3,2.3,0,0,1,52.4,41.38Z" transform="translate(-43.111 -32.108)" fill="#25294f"/>
            <path id="Trazado_879874" data-name="Trazado 879874" d="M128.912,35.407a3.674,3.674,0,1,0,3.673,3.674A3.678,3.678,0,0,0,128.912,35.407Zm0,5.973a2.3,2.3,0,1,1,2.3-2.3A2.3,2.3,0,0,1,128.912,41.38Z" transform="translate(-109.52 -32.108)" fill="#25294f"/>
            <path id="Trazado_879875" data-name="Trazado 879875" d="M205.417,35.407a3.674,3.674,0,1,0,3.673,3.674A3.678,3.678,0,0,0,205.417,35.407Zm0,5.973a2.3,2.3,0,1,1,2.3-2.3A2.3,2.3,0,0,1,205.417,41.38Z" transform="translate(-175.922 -32.108)" fill="#25294f"/>
            <path id="Trazado_879876" data-name="Trazado 879876" d="M309.334,150.523h4.092l-2.478,9.216a1.249,1.249,0,0,0,1.989,1.3l12.028-9.666a1.249,1.249,0,0,0-.782-2.223H320.09l2.478-9.216a1.249,1.249,0,0,0-1.988-1.3L308.551,148.3A1.249,1.249,0,0,0,309.334,150.523Zm11.808-10.577-2.421,9a1.249,1.249,0,0,0,1.207,1.574h3.9l-11.452,9.2,2.421-9a1.249,1.249,0,0,0-1.206-1.574h-3.9Z" transform="translate(-268.219 -121.46)" fill="#25294f"/>
          </g>
        </g>
      </g>
    </g>
  </g>
</svg>
