<svg xmlns="http://www.w3.org/2000/svg" width="151.991" height="148.529" viewBox="0 0 151.991 148.529">
  <g id="Grupo_1101900" data-name="Grupo 1101900" transform="translate(-1197 -17685)">
    <g id="Grupo_1101717" data-name="Grupo 1101717" transform="translate(1197 17708.697)">
      <path id="_12068" data-name="12068" d="M103.949,72.366C89.64,70.39,74.525,70.874,61.5,77.128,43.447,85.8,31.588,105.464,31.133,125.491s9.978,39.705,26.1,51.6S94.6,193.2,114.312,189.632c19.875-3.6,38.53-15.279,48.9-32.614,6.648-11.116,9.755-24.842,6.082-37.264-2.217-7.5-6.75-14.14-12.082-19.858A89.263,89.263,0,0,0,103.949,72.366Z" transform="translate(-24.992 -66.03)" fill="#26aab7"/>
      <g id="Grupo_1099026" data-name="Grupo 1099026" transform="translate(0 111.446) rotate(-90)">
        <path id="Trazado_873104" data-name="Trazado 873104" d="M.647,2.832A1.64,1.64,0,0,0,2.79,2.59,1.64,1.64,0,0,0,2.7.434,1.641,1.641,0,0,0,.541.376,1.573,1.573,0,0,0,.647,2.832Z" transform="translate(21.424 128.541)" fill="#fff"/>
        <path id="Trazado_873105" data-name="Trazado 873105" d="M.646,2.832A1.64,1.64,0,0,0,2.791,2.59,1.641,1.641,0,0,0,2.7.434,1.641,1.641,0,0,0,.541.376,1.573,1.573,0,0,0,.646,2.832Z" transform="translate(52.72 135.267)" fill="#ffd947"/>
        <path id="Trazado_873106" data-name="Trazado 873106" d="M.647,2.832A1.639,1.639,0,0,0,2.79,2.59,1.641,1.641,0,0,0,2.7.434,1.641,1.641,0,0,0,.541.376,1.573,1.573,0,0,0,.647,2.832Z" transform="translate(108.296 0)" fill="#7d6eb2"/>
        <path id="Trazado_873109" data-name="Trazado 873109" d="M2.129,6.609a3.577,3.577,0,0,0,4.43-1.75A3.579,3.579,0,0,0,5.014.353,3.578,3.578,0,0,0,.442,1.692,3.468,3.468,0,0,0,2.129,6.609Z" transform="translate(89.699 129.99)" fill="#26aab7"/>
        <path id="Trazado_873110" data-name="Trazado 873110" d="M2.13,6.609a3.577,3.577,0,0,0,4.43-1.75A3.578,3.578,0,0,0,5.014.354,3.577,3.577,0,0,0,.443,1.691,3.468,3.468,0,0,0,2.13,6.609Z" transform="translate(65.295 145.152)" fill="#7d6eb2"/>
        <path id="Trazado_873111" data-name="Trazado 873111" d="M2.13,6.609a3.576,3.576,0,0,0,4.43-1.75A3.577,3.577,0,0,0,5.014.354,3.576,3.576,0,0,0,.443,1.691,3.468,3.468,0,0,0,2.13,6.609Z" transform="translate(0 40.87)" fill="#7d6eb2"/>
        <path id="Trazado_873113" data-name="Trazado 873113" d="M2.129,6.609a3.578,3.578,0,0,0,4.43-1.75A3.579,3.579,0,0,0,5.015.353,3.578,3.578,0,0,0,.442,1.692,3.468,3.468,0,0,0,2.129,6.609Z" transform="translate(101.449 8.605)" fill="#ffd947"/>
        <circle id="Elipse_11485" data-name="Elipse 11485" cx="1.689" cy="1.689" r="1.689" transform="translate(7.75 136.702)" fill="none" stroke="#26aab7" stroke-linecap="round" stroke-linejoin="round" stroke-width="1.5"/>
      </g>
    </g>
    <g id="medios-de-comunicacion-social" transform="translate(1216.666 17663.727)">
      <g id="Grupo_1101825" data-name="Grupo 1101825" transform="translate(11.646 21.274)">
        <path id="Trazado_879972" data-name="Trazado 879972" d="M105.747,28.785v90.577a7.534,7.534,0,0,0,7.511,7.511h68.55a7.534,7.534,0,0,0,7.511-7.511V28.785a7.534,7.534,0,0,0-7.511-7.511h-68.55a7.534,7.534,0,0,0-7.511,7.511Z" transform="translate(-105.747 -21.274)" fill="#73c3f9" fill-rule="evenodd"/>
      </g>
      <g id="Grupo_1101826" data-name="Grupo 1101826" transform="translate(81.614 21.274)">
        <path id="Trazado_879973" data-name="Trazado 879973" d="M388.171,126.874h6.094a7.534,7.534,0,0,0,7.511-7.511V28.785a7.534,7.534,0,0,0-7.511-7.511h-6.094a7.534,7.534,0,0,1,7.512,7.511v90.577A7.534,7.534,0,0,1,388.171,126.874Z" transform="translate(-388.171 -21.274)" fill="#4fabf7" fill-rule="evenodd"/>
      </g>
      <g id="Grupo_1101827" data-name="Grupo 1101827" transform="translate(11.646 111.51)">
        <path id="Trazado_879974" data-name="Trazado 879974" d="M105.747,385.509v7.853a7.534,7.534,0,0,0,7.511,7.512h68.55a7.534,7.534,0,0,0,7.511-7.512v-7.853Z" transform="translate(-105.747 -385.509)" fill="#2a428c" fill-rule="evenodd"/>
      </g>
      <g id="Grupo_1101828" data-name="Grupo 1101828" transform="translate(81.614 111.51)">
        <path id="Trazado_879975" data-name="Trazado 879975" d="M388.171,400.873h6.094a7.534,7.534,0,0,0,7.511-7.512v-7.853h-6.094v7.853A7.534,7.534,0,0,1,388.171,400.873Z" transform="translate(-388.171 -385.509)" fill="#142766" fill-rule="evenodd"/>
      </g>
      <g id="Grupo_1101829" data-name="Grupo 1101829" transform="translate(11.646 21.274)">
        <path id="Trazado_879976" data-name="Trazado 879976" d="M105.747,28.785v2H189.32v-2a7.534,7.534,0,0,0-7.511-7.511h-68.55a7.534,7.534,0,0,0-7.511,7.511Z" transform="translate(-105.747 -21.274)" fill="#2a428c" fill-rule="evenodd"/>
      </g>
      <g id="Grupo_1101830" data-name="Grupo 1101830" transform="translate(81.614 21.274)">
        <path id="Trazado_879977" data-name="Trazado 879977" d="M395.682,30.786h6.094v-2a7.534,7.534,0,0,0-7.511-7.511h-6.094a7.534,7.534,0,0,1,7.512,7.511Z" transform="translate(-388.171 -21.274)" fill="#142766" fill-rule="evenodd"/>
      </g>
      <g id="Grupo_1101831" data-name="Grupo 1101831" transform="translate(56.348 24.166)">
        <path id="Trazado_879978" data-name="Trazado 879978" d="M264.956,36.683h-4.593a1.868,1.868,0,0,1,0-3.737h4.593a1.868,1.868,0,0,1,0,3.737Z" transform="translate(-258.494 -32.946)" fill="#3c58a0"/>
      </g>
      <g id="Grupo_1101832" data-name="Grupo 1101832" transform="translate(0.5 85.436)">
        <path id="Trazado_879979" data-name="Trazado 879979" d="M32.532,286.956a20.3,20.3,0,0,1,3.525,1.463l5.965-3.5,5.965,5.965-3.5,5.965a20.146,20.146,0,0,1,1.463,3.532l6.693,1.736v8.436l-6.693,1.736a20.145,20.145,0,0,1-1.463,3.532l3.5,5.965-5.965,5.966-5.965-3.5a20.319,20.319,0,0,1-3.525,1.463L30.788,332.4H22.352l-1.736-6.693a20.377,20.377,0,0,1-3.532-1.463l-5.965,3.5-5.965-5.965,3.509-5.965a19.6,19.6,0,0,1-1.47-3.532L.5,310.551v-8.436l6.7-1.736a19.256,19.256,0,0,1,1.463-3.532l-3.509-5.965,5.965-5.965,5.965,3.5a20.389,20.389,0,0,1,3.532-1.463l1.736-6.693h8.436Z" transform="translate(-0.5 -280.263)" fill="#fd646f" fill-rule="evenodd"/>
      </g>
      <g id="Grupo_1101833" data-name="Grupo 1101833" transform="translate(13.537 98.473)">
        <path id="Trazado_879980" data-name="Trazado 879980" d="M66.16,358.951a13.033,13.033,0,1,0-13.037-13.029A13.053,13.053,0,0,0,66.16,358.951Z" transform="translate(-53.123 -332.885)" fill="#d4424c" fill-rule="evenodd"/>
      </g>
      <g id="Grupo_1101834" data-name="Grupo 1101834" transform="translate(8.436 45.294)">
        <path id="Trazado_879981" data-name="Trazado 879981" d="M35.868,118.23h29.6a3.347,3.347,0,0,1,3.343,3.335v19.472a3.347,3.347,0,0,1-3.343,3.335h-29.6a3.345,3.345,0,0,1-3.335-3.335V121.565A3.345,3.345,0,0,1,35.868,118.23Z" transform="translate(-32.533 -118.23)" fill="#dfebfa" fill-rule="evenodd"/>
      </g>
      <g id="Grupo_1101835" data-name="Grupo 1101835" transform="translate(8.436 55.96)">
        <path id="Trazado_879982" data-name="Trazado 879982" d="M42.849,162.837l7,7a5.33,5.33,0,0,0,7.519,0l2.562-2.562a5.33,5.33,0,0,1,7.519,0l1.364,1.364v4.79a3.347,3.347,0,0,1-3.343,3.335h-29.6a3.345,3.345,0,0,1-3.335-3.335v-7.784l2.8-2.8a5.33,5.33,0,0,1,7.519,0Z" transform="translate(-32.533 -161.285)" fill="#4caf50" fill-rule="evenodd"/>
      </g>
      <g id="Grupo_1101836" data-name="Grupo 1101836" transform="translate(21.267 49.546)">
        <path id="Trazado_879983" data-name="Trazado 879983" d="M101.61,135.394a4.982,4.982,0,1,1-3.517,1.455A4.96,4.96,0,0,1,101.61,135.394Z" transform="translate(-96.63 -135.394)" fill="#fea613"/>
      </g>
      <g id="Grupo_1101837" data-name="Grupo 1101837" transform="translate(41.634 55.572)">
        <path id="Trazado_879984" data-name="Trazado 879984" d="M218.237,196.721a18.5,18.5,0,1,0-18.5-18.5A18.532,18.532,0,0,0,218.237,196.721Z" transform="translate(-199.735 -159.717)" fill="#eaf6ff" fill-rule="evenodd"/>
      </g>
      <g id="Grupo_1101838" data-name="Grupo 1101838" transform="translate(46.683 76.09)">
        <path id="Trazado_879985" data-name="Trazado 879985" d="M246.865,253.142v-2.585a8.042,8.042,0,0,0-8.019-8.019H227.825a8.044,8.044,0,0,0-8.019,8.027v2.577a18.5,18.5,0,0,0,27.059,0Z" transform="translate(-219.806 -242.538)" fill="#fea613" fill-rule="evenodd"/>
      </g>
      <g id="Grupo_1101839" data-name="Grupo 1101839" transform="translate(52.276 62.204)">
        <path id="Trazado_879986" data-name="Trazado 879986" d="M250.113,202.5a8,8,0,1,0-8-8A8.021,8.021,0,0,0,250.113,202.5Z" transform="translate(-242.109 -186.489)" fill="#fddeaf" fill-rule="evenodd"/>
      </g>
      <path id="Trazado_879987" data-name="Trazado 879987" d="M266.823,410.829a1.868,1.868,0,0,1-1.868,1.868h-4.593a1.868,1.868,0,1,1,0-3.737h4.593A1.868,1.868,0,0,1,266.823,410.829Z" transform="translate(-202.145 -291.641)" fill="#3c58a0"/>
      <g id="Grupo_1101840" data-name="Grupo 1101840" transform="translate(76.535 38.677)">
        <path id="Trazado_879988" data-name="Trazado 879988" d="M371.72,91.52h26.567a4.061,4.061,0,0,1,4.048,4.048v23.611a4.061,4.061,0,0,1-4.048,4.048H371.72a4.057,4.057,0,0,1-4.048-4.048V95.568A4.057,4.057,0,0,1,371.72,91.52Z" transform="translate(-367.672 -91.52)" fill="#fd646f" fill-rule="evenodd"/>
      </g>
      <g id="Grupo_1101841" data-name="Grupo 1101841" transform="translate(89.125 38.677)">
        <path id="Trazado_879989" data-name="Trazado 879989" d="M418.491,91.52h18.024a4.061,4.061,0,0,1,4.048,4.048v23.611a4.061,4.061,0,0,1-4.048,4.048H418.491Z" transform="translate(-418.491 -91.52)" fill="#d4424c" fill-rule="evenodd"/>
      </g>
      <g id="Grupo_1101842" data-name="Grupo 1101842" transform="translate(87.321 46.12)">
        <path id="Trazado_879990" data-name="Trazado 879990" d="M425.769,129.971l-14.56,8.414V121.565Z" transform="translate(-411.209 -121.565)" fill="#eaf6ff" fill-rule="evenodd"/>
      </g>
      <g id="Grupo_1101843" data-name="Grupo 1101843" transform="translate(89.125 47.158)">
        <path id="Trazado_879991" data-name="Trazado 879991" d="M431.247,133.124l-12.756,7.367V125.756Z" transform="translate(-418.491 -125.756)" fill="#d8ecfe" fill-rule="evenodd"/>
      </g>
      <g id="Grupo_1101844" data-name="Grupo 1101844" transform="translate(75.557 89.574)">
        <path id="Trazado_879992" data-name="Trazado 879992" d="M368,296.967h28.06c2.357,0,4.275,1.524,4.275,3.38v19.715c0,1.857-1.918,3.38-4.275,3.38H368c-2.35,0-4.275-1.524-4.275-3.38V300.347C363.725,298.491,365.65,296.967,368,296.967Z" transform="translate(-363.725 -296.967)" fill="#fea613" fill-rule="evenodd"/>
      </g>
      <g id="Grupo_1101845" data-name="Grupo 1101845" transform="translate(89.125 89.574)">
        <path id="Trazado_879993" data-name="Trazado 879993" d="M418.491,296.967h18.767c2.357,0,4.275,1.524,4.275,3.38v19.715c0,1.857-1.918,3.38-4.275,3.38H418.491Z" transform="translate(-418.491 -296.967)" fill="#e09109" fill-rule="evenodd"/>
      </g>
      <path id="Trazado_879994" data-name="Trazado 879994" d="M391.934,318.389a1.876,1.876,0,0,1,1.872-1.872h18.9a1.872,1.872,0,1,1,0,3.744h-18.9A1.876,1.876,0,0,1,391.934,318.389Zm20.768,4.139h-18.9a1.872,1.872,0,0,0,0,3.744h18.9a1.872,1.872,0,0,0,0-3.744Zm0,6.018h-18.9a1.872,1.872,0,0,0,0,3.744h18.9a1.872,1.872,0,0,0,0-3.744Z" transform="translate(-309.388 -222.099)" fill="#eaf6ff"/>
      <path id="Trazado_879995" data-name="Trazado 879995" d="M432.679,320.261H418.49v-3.744h14.189a1.872,1.872,0,1,1,0,3.744Zm0,2.266H418.49v3.744h14.189a1.872,1.872,0,1,0,0-3.744Zm0,6.018H418.49v3.744h14.189a1.872,1.872,0,1,0,0-3.744Z" transform="translate(-329.365 -222.099)" fill="#d8ecfe"/>
    </g>
  </g>
</svg>
