<svg xmlns="http://www.w3.org/2000/svg" width="151.991" height="147.529" viewBox="0 0 151.991 147.529">
  <g id="Grupo_1101898" data-name="Grupo 1101898" transform="translate(-567 -17686)">
    <path id="_12068" data-name="12068" d="M103.949,72.366C89.64,70.39,74.525,70.874,61.5,77.128,43.447,85.8,31.588,105.464,31.133,125.491s9.978,39.705,26.1,51.6S94.6,193.2,114.312,189.632c19.875-3.6,38.53-15.279,48.9-32.614,6.648-11.116,9.755-24.842,6.082-37.264-2.217-7.5-6.75-14.14-12.082-19.858A89.263,89.263,0,0,0,103.949,72.366Z" transform="translate(541.013 17642.668)" fill="#7d6eb2"/>
    <g id="Grupo_1099025" data-name="Grupo 1099025" transform="translate(567 17820.143) rotate(-90)">
      <path id="Trazado_873104" data-name="Trazado 873104" d="M.647,2.832A1.64,1.64,0,0,0,2.79,2.59,1.64,1.64,0,0,0,2.7.434,1.641,1.641,0,0,0,.541.376,1.573,1.573,0,0,0,.647,2.832Z" transform="translate(21.424 128.541)" fill="#fff"/>
      <path id="Trazado_873105" data-name="Trazado 873105" d="M.646,2.832A1.64,1.64,0,0,0,2.791,2.59,1.641,1.641,0,0,0,2.7.434,1.641,1.641,0,0,0,.541.376,1.573,1.573,0,0,0,.646,2.832Z" transform="translate(52.72 135.267)" fill="#ffd947"/>
      <path id="Trazado_873106" data-name="Trazado 873106" d="M.647,2.832A1.639,1.639,0,0,0,2.79,2.59,1.641,1.641,0,0,0,2.7.434,1.641,1.641,0,0,0,.541.376,1.573,1.573,0,0,0,.647,2.832Z" transform="translate(108.296 0)" fill="#7d6eb2"/>
      <path id="Trazado_873109" data-name="Trazado 873109" d="M2.129,6.609a3.577,3.577,0,0,0,4.43-1.75A3.579,3.579,0,0,0,5.014.353,3.578,3.578,0,0,0,.442,1.692,3.468,3.468,0,0,0,2.129,6.609Z" transform="translate(89.699 126.684)" fill="#7d6eb2"/>
      <path id="Trazado_873110" data-name="Trazado 873110" d="M2.13,6.609a3.577,3.577,0,0,0,4.43-1.75A3.578,3.578,0,0,0,5.014.354,3.577,3.577,0,0,0,.443,1.691,3.468,3.468,0,0,0,2.13,6.609Z" transform="translate(65.295 145.152)" fill="#ffd947"/>
      <path id="Trazado_873111" data-name="Trazado 873111" d="M2.13,6.609a3.576,3.576,0,0,0,4.43-1.75A3.577,3.577,0,0,0,5.014.354,3.576,3.576,0,0,0,.443,1.691,3.468,3.468,0,0,0,2.13,6.609Z" transform="translate(0 40.87)" fill="#ffd947"/>
      <path id="Trazado_873113" data-name="Trazado 873113" d="M2.129,6.609a3.578,3.578,0,0,0,4.43-1.75A3.579,3.579,0,0,0,5.015.353,3.578,3.578,0,0,0,.442,1.692,3.468,3.468,0,0,0,2.129,6.609Z" transform="translate(101.449 8.605)" fill="#ffd947"/>
      <circle id="Elipse_11485" data-name="Elipse 11485" cx="1.689" cy="1.689" r="1.689" transform="translate(7.75 136.702)" fill="none" stroke="#26aab7" stroke-linecap="round" stroke-linejoin="round" stroke-width="1.5"/>
    </g>
    <g id="_14-Target" data-name="14-Target" transform="translate(585.171 17683)">
      <path id="Trazado_880074" data-name="Trazado 880074" d="M2,0H78a2,2,0,0,1,2,2V113a2,2,0,0,1-2,2H2a2,2,0,0,1-2-2V2A2,2,0,0,1,2,0Z" transform="translate(12 3)" fill="#dceaff"/>
      <path id="Trazado_880067" data-name="Trazado 880067" d="M15.976,3H87.543a3.976,3.976,0,0,1,3.976,3.976v9.94H12V6.976A3.976,3.976,0,0,1,15.976,3Z" transform="translate(0 0)" fill="#26aab7"/>
      <path id="Trazado_880068" data-name="Trazado 880068" d="M3.976,0H75.543a3.976,3.976,0,0,1,3.976,3.976V15.9H0V3.976A3.976,3.976,0,0,1,3.976,0Z" transform="translate(91.519 118.303) rotate(180)" fill="#26aab7"/>
      <ellipse id="Elipse_11990" data-name="Elipse 11990" cx="26" cy="25.5" rx="26" ry="25.5" transform="translate(26 35)" fill="#ffd947"/>
      <g id="Grupo_1101884" data-name="Grupo 1101884" transform="translate(17.964 26.856)">
        <path id="Trazado_880069" data-name="Trazado 880069" d="M32.988,56.9A1.988,1.988,0,0,1,31,54.916V42.988a1.988,1.988,0,0,1,3.976,0V54.916A1.988,1.988,0,0,1,32.988,56.9Z" transform="translate(0.808 10.687)" fill="#434343"/>
        <path id="Trazado_880070" data-name="Trazado 880070" d="M32.988,30.9A1.988,1.988,0,0,1,31,28.916V16.988a1.988,1.988,0,1,1,3.976,0V28.916A1.988,1.988,0,0,1,32.988,30.9Z" transform="translate(0.808 -15)" fill="#434343"/>
        <path id="Trazado_880071" data-name="Trazado 880071" d="M28.916,34.976H16.988a1.988,1.988,0,1,1,0-3.976H28.916a1.988,1.988,0,1,1,0,3.976Z" transform="translate(-15 0.808)" fill="#434343"/>
        <path id="Trazado_880072" data-name="Trazado 880072" d="M54.916,34.976H42.988a1.988,1.988,0,0,1,0-3.976H54.916a1.988,1.988,0,0,1,0,3.976Z" transform="translate(10.687 0.808)" fill="#434343"/>
      </g>
      <circle id="Elipse_11991" data-name="Elipse 11991" cx="8" cy="8" r="8" transform="translate(44 53)" fill="#7d6eb2"/>
      <path id="Trazado_880073" data-name="Trazado 880073" d="M41.916,59.976H29.988a1.988,1.988,0,1,1,0-3.976H41.916a1.988,1.988,0,0,1,0,3.976Z" transform="translate(15.808 52.363)" fill="#ffd947"/>
    </g>
  </g>
</svg>
