<svg xmlns="http://www.w3.org/2000/svg" xmlns:xlink="http://www.w3.org/1999/xlink" width="129.737" height="122.746" viewBox="0 0 129.737 122.746">
  <defs>
    <linearGradient id="linear-gradient" x1="0.323" y1="0.805" x2="0.915" y2="0.129" gradientUnits="objectBoundingBox">
      <stop offset="0" stop-color="#fff" stop-opacity="0"/>
      <stop offset="0.262" stop-color="#ededff" stop-opacity="0.416"/>
      <stop offset="0.629" stop-color="#d8d8ff"/>
    </linearGradient>
  </defs>
  <g id="Grupo_1101901" data-name="Grupo 1101901" transform="translate(-250.264 -26392.961)">
    <path id="_12068" data-name="12068" d="M98.737,72.292c-13.285-1.834-27.318-1.386-39.407,4.421-16.765,8.052-27.775,26.309-28.2,44.9S40.4,158.479,55.36,169.523s34.7,14.959,53,11.643c18.453-3.344,35.773-14.186,45.4-30.28,6.172-10.321,9.057-23.065,5.647-34.6-2.059-6.961-6.267-13.128-11.217-18.437A82.875,82.875,0,0,0,98.737,72.292Z" transform="translate(219.145 26333.398)" fill="#26aab7"/>
    <g id="objetivo" transform="translate(253.264 26363.889)">
      <g id="Grupo_1100480" data-name="Grupo 1100480" transform="translate(0 29.072)">
        <g id="Grupo_1100479" data-name="Grupo 1100479" transform="translate(0 0)">
          <path id="Trazado_877886" data-name="Trazado 877886" d="M123.105,68.908c-2.93-17.516-22.3-53.216-42.477-34.607C73.38,40.988,72.761,81.65,58.7,64.716c-16.676-20.087-22.642,2.72-40.093,3.189-4.074.109-12.578-4.426-15.619-2.325-11.271,7.787,11.935,28.368,26.257,30.24,23.894,3.124,46.33,12.76,60.6,33.142,2.49,3.556,5.18,7.841,9.465,8.545,23.7,3.894,26.7-51.242,23.792-68.6Z" transform="translate(0 -29.072)" fill="url(#linear-gradient)"/>
        </g>
      </g>
      <g id="Grupo_1100536" data-name="Grupo 1100536" transform="translate(8.939 29.897)">
        <g id="Grupo_1100530" data-name="Grupo 1100530" transform="translate(0 2.478)">
          <g id="Grupo_1100481" data-name="Grupo 1100481" transform="translate(1.211 7.02)" opacity="0.1">
            <path id="Trazado_877887" data-name="Trazado 877887" d="M70.452,90.434l14.4-7.032a2.453,2.453,0,0,0,0-4.409l-14.4-7.032a2.453,2.453,0,0,0-2.771,3.978l1.938,1.851L58.4,77.779a4.845,4.845,0,0,0-4.85,4.845V103a20.515,20.515,0,0,0,0,37v20.376a4.846,4.846,0,0,0,4.849,4.845l11.222-.012-1.938,1.851a2.454,2.454,0,0,0,2.771,3.98L84.848,164a2.454,2.454,0,0,0,0-4.409l-14.4-7.032a2.453,2.453,0,0,0-2.771,3.977l1.938,1.853H60.363V141.9c.673.067,1.355.1,2.046.1a20.508,20.508,0,0,0,0-41.016c-.691,0-1.373.035-2.047.1V84.6h9.256L67.68,86.455A2.453,2.453,0,0,0,70.452,90.434Z" transform="translate(-41.901 -71.691)" fill="#0000cb"/>
            <path id="Trazado_877888" data-name="Trazado 877888" d="M302.185,98.358a11.114,11.114,0,0,0-11.114-11.114H276.585V85.753A10.445,10.445,0,0,0,266.14,75.308H264.07a10.442,10.442,0,0,0-8.147,16.978,11.059,11.059,0,0,0-1.808,6.073v9.418a1.7,1.7,0,0,0,1.7,1.7h1.7a10.438,10.438,0,0,0-1.59,14.661,11.059,11.059,0,0,0-1.807,6.073v9.418a1.7,1.7,0,0,0,1.7,1.7h1.7a10.438,10.438,0,0,0-1.59,14.661,11.058,11.058,0,0,0-1.808,6.073v9.418a1.7,1.7,0,0,0,1.7,1.7h35.26a11.114,11.114,0,1,0,0-22.228H276.586v-1.492a10.423,10.423,0,0,0-3.888-8.128h18.375a11.114,11.114,0,1,0,0-22.228H276.586V117.6a10.423,10.423,0,0,0-3.888-8.128h18.375a11.114,11.114,0,0,0,11.113-11.114Z" transform="translate(-202.34 -74.432)" fill="#0000cb"/>
          </g>
          <g id="Grupo_1100529" data-name="Grupo 1100529">
            <g id="Grupo_1100485" data-name="Grupo 1100485" transform="translate(1.211 1.207)">
              <g id="Grupo_1100483" data-name="Grupo 1100483" transform="translate(11.646)">
                <path id="Trazado_877889" data-name="Trazado 877889" d="M121.283,54.993l-14.4-7.032a2.453,2.453,0,0,0-2.771,3.978l1.938,1.851-11.221-.011a4.845,4.845,0,0,0-4.85,4.845V82.991H96.8V60.6h9.256l-1.938,1.851a2.453,2.453,0,0,0,2.771,3.978l14.4-7.032A2.453,2.453,0,0,0,121.283,54.993Z" transform="translate(-89.982 -47.691)" fill="#9393ff"/>
                <g id="Grupo_1100482" data-name="Grupo 1100482" transform="translate(0 64.313)">
                  <path id="Trazado_877890" data-name="Trazado 877890" d="M121.281,341.195l-14.4,7.034a2.454,2.454,0,0,1-2.771-3.98l1.938-1.851-11.222.012a4.846,4.846,0,0,1-4.849-4.845V313.2H96.8v22.387h9.256l-1.938-1.853a2.453,2.453,0,0,1,2.771-3.977l14.4,7.032A2.454,2.454,0,0,1,121.281,341.195Z" transform="translate(-89.98 -313.198)" fill="#9393ff"/>
                  <path id="Trazado_877891" data-name="Trazado 877891" d="M96.8,313.2V324.91A20.379,20.379,0,0,1,89.98,323V313.2Z" transform="translate(-89.98 -313.198)" fill="#8282ff"/>
                </g>
              </g>
              <g id="Grupo_1100484" data-name="Grupo 1100484" transform="translate(0 29.298)">
                <circle id="Elipse_11876" data-name="Elipse 11876" cx="20.508" cy="20.508" r="20.508" fill="#ff6c6c"/>
                <circle id="Elipse_11877" data-name="Elipse 11877" cx="14.968" cy="14.968" r="14.968" transform="translate(5.54 5.54)" fill="#fff"/>
                <circle id="Elipse_11878" data-name="Elipse 11878" cx="10.247" cy="10.247" r="10.247" transform="translate(10.261 10.261)" fill="#ff6c6c"/>
                <circle id="Elipse_11879" data-name="Elipse 11879" cx="4.448" cy="4.448" r="4.448" transform="translate(16.06 16.06)" fill="#fff"/>
              </g>
            </g>
            <g id="Grupo_1100528" data-name="Grupo 1100528">
              <g id="Grupo_1100498" data-name="Grupo 1100498" transform="translate(52.497 2.083)">
                <g id="Grupo_1100495" data-name="Grupo 1100495" transform="translate(0.49 11.937)">
                  <g id="Grupo_1100494" data-name="Grupo 1100494">
                    <g id="Grupo_1100493" data-name="Grupo 1100493">
                      <g id="Grupo_1100492" data-name="Grupo 1100492">
                        <g id="Grupo_1100487" data-name="Grupo 1100487">
                          <path id="Trazado_877892" data-name="Trazado 877892" d="M257.346,122.814h35.26a11.114,11.114,0,1,0,0-22.228H266.764A11.114,11.114,0,0,0,255.65,111.7v9.418A1.7,1.7,0,0,0,257.346,122.814Z" transform="translate(-255.65 -100.586)" fill="#6c6cff"/>
                          <g id="Grupo_1100486" data-name="Grupo 1100486" transform="translate(9.819 12.344)">
                            <path id="Trazado_877893" data-name="Trazado 877893" d="M297.4,153.969h25.047a1.211,1.211,0,1,0,0-2.422H297.4a1.211,1.211,0,0,0,0,2.422Z" transform="translate(-296.187 -151.547)" fill="#fff"/>
                          </g>
                          <path id="Trazado_877894" data-name="Trazado 877894" d="M279.171,104.908v8.941a1.5,1.5,0,0,1-1.507,1.5H266.655a10.443,10.443,0,0,1-9.619-6.371,11.116,11.116,0,0,1,10.779-8.4h10.421A10.39,10.39,0,0,1,279.171,104.908Z" transform="translate(-256.7 -100.587)" fill="#4d4dff"/>
                        </g>
                        <g id="Grupo_1100491" data-name="Grupo 1100491" transform="translate(26.205 7.426)">
                          <g id="Grupo_1100490" data-name="Grupo 1100490">
                            <g id="Grupo_1100489" data-name="Grupo 1100489">
                              <g id="Grupo_1100488" data-name="Grupo 1100488">
                                <path id="Trazado_877895" data-name="Trazado 877895" d="M365.043,133.666H373.7a1.211,1.211,0,0,0,0-2.422h-8.662a1.211,1.211,0,1,0,0,2.422Z" transform="translate(-363.832 -131.244)" fill="#fff"/>
                              </g>
                            </g>
                          </g>
                        </g>
                      </g>
                    </g>
                  </g>
                </g>
                <g id="Grupo_1100497" data-name="Grupo 1100497">
                  <path id="Trazado_877896" data-name="Trazado 877896" d="M275.081,72.2H264.071a10.445,10.445,0,0,1,0-20.889h2.071a10.445,10.445,0,0,1,10.445,10.445v8.94A1.5,1.5,0,0,1,275.081,72.2Z" transform="translate(-253.626 -51.308)" fill="#fa6"/>
                  <g id="Grupo_1100496" data-name="Grupo 1100496" transform="translate(5.912 6.22)">
                    <path id="Trazado_877897" data-name="Trazado 877897" d="M281.877,85.435a1.208,1.208,0,0,1-.857-.355l-2.634-2.634a1.211,1.211,0,0,1,1.713-1.713l1.777,1.777,5.172-5.172a1.211,1.211,0,1,1,1.713,1.713l-6.028,6.028A1.207,1.207,0,0,1,281.877,85.435Z" transform="translate(-278.032 -76.985)" fill="#fff"/>
                  </g>
                </g>
                <path id="Trazado_877898" data-name="Trazado 877898" d="M308.838,151.547v.918a1.5,1.5,0,0,1-1.507,1.5H297.4a1.211,1.211,0,0,1,0-2.422Z" transform="translate(-285.877 -127.266)" fill="#d8d8ff"/>
              </g>
              <g id="Grupo_1100511" data-name="Grupo 1100511" transform="translate(52.497 33.931)">
                <g id="Grupo_1100508" data-name="Grupo 1100508" transform="translate(0.49 11.937)">
                  <g id="Grupo_1100507" data-name="Grupo 1100507">
                    <g id="Grupo_1100506" data-name="Grupo 1100506">
                      <g id="Grupo_1100505" data-name="Grupo 1100505">
                        <g id="Grupo_1100500" data-name="Grupo 1100500">
                          <path id="Trazado_877899" data-name="Trazado 877899" d="M257.346,254.293h35.26a11.114,11.114,0,1,0,0-22.228H266.764a11.114,11.114,0,0,0-11.114,11.114V252.6A1.7,1.7,0,0,0,257.346,254.293Z" transform="translate(-255.65 -232.065)" fill="#6c6cff"/>
                          <g id="Grupo_1100499" data-name="Grupo 1100499" transform="translate(9.819 12.344)">
                            <path id="Trazado_877900" data-name="Trazado 877900" d="M297.4,285.449h25.047a1.211,1.211,0,1,0,0-2.422H297.4a1.211,1.211,0,0,0,0,2.422Z" transform="translate(-296.187 -283.027)" fill="#fff"/>
                          </g>
                          <path id="Trazado_877901" data-name="Trazado 877901" d="M279.171,236.388v8.941a1.5,1.5,0,0,1-1.507,1.5H266.655a10.443,10.443,0,0,1-9.619-6.371,11.116,11.116,0,0,1,10.779-8.4h10.421A10.39,10.39,0,0,1,279.171,236.388Z" transform="translate(-256.7 -232.067)" fill="#4d4dff"/>
                        </g>
                        <g id="Grupo_1100504" data-name="Grupo 1100504" transform="translate(26.205 7.426)">
                          <g id="Grupo_1100503" data-name="Grupo 1100503">
                            <g id="Grupo_1100502" data-name="Grupo 1100502">
                              <g id="Grupo_1100501" data-name="Grupo 1100501">
                                <path id="Trazado_877902" data-name="Trazado 877902" d="M365.043,265.145H373.7a1.211,1.211,0,0,0,0-2.422h-8.662a1.211,1.211,0,1,0,0,2.422Z" transform="translate(-363.832 -262.723)" fill="#fff"/>
                              </g>
                            </g>
                          </g>
                        </g>
                      </g>
                    </g>
                  </g>
                </g>
                <g id="Grupo_1100510" data-name="Grupo 1100510">
                  <path id="Trazado_877903" data-name="Trazado 877903" d="M275.081,203.676H264.071a10.445,10.445,0,0,1,0-20.889h2.071a10.445,10.445,0,0,1,10.445,10.445v8.94A1.5,1.5,0,0,1,275.081,203.676Z" transform="translate(-253.626 -182.787)" fill="#fa6"/>
                  <g id="Grupo_1100509" data-name="Grupo 1100509" transform="translate(5.912 6.22)">
                    <path id="Trazado_877904" data-name="Trazado 877904" d="M281.877,216.914a1.208,1.208,0,0,1-.857-.355l-2.634-2.633a1.211,1.211,0,0,1,1.713-1.713l1.777,1.777,5.172-5.172a1.211,1.211,0,1,1,1.713,1.713l-6.028,6.028a1.206,1.206,0,0,1-.856.355Z" transform="translate(-278.032 -208.464)" fill="#fff"/>
                  </g>
                </g>
                <path id="Trazado_877905" data-name="Trazado 877905" d="M308.838,283.027v.918a1.5,1.5,0,0,1-1.507,1.5H297.4a1.211,1.211,0,0,1,0-2.422Z" transform="translate(-285.877 -258.746)" fill="#d8d8ff"/>
              </g>
              <g id="Grupo_1100527" data-name="Grupo 1100527">
                <g id="Grupo_1100524" data-name="Grupo 1100524">
                  <g id="Grupo_1100520" data-name="Grupo 1100520" transform="translate(52.987 77.715)">
                    <g id="Grupo_1100519" data-name="Grupo 1100519">
                      <g id="Grupo_1100518" data-name="Grupo 1100518">
                        <g id="Grupo_1100517" data-name="Grupo 1100517">
                          <g id="Grupo_1100512" data-name="Grupo 1100512">
                            <path id="Trazado_877906" data-name="Trazado 877906" d="M257.346,385.773h35.26a11.114,11.114,0,1,0,0-22.228H266.764a11.114,11.114,0,0,0-11.114,11.114v9.418A1.7,1.7,0,0,0,257.346,385.773Z" transform="translate(-255.65 -363.545)" fill="#fa6"/>
                            <path id="Trazado_877907" data-name="Trazado 877907" d="M279.171,367.867v8.941a1.5,1.5,0,0,1-1.507,1.5H266.655a10.443,10.443,0,0,1-9.619-6.371,11.116,11.116,0,0,1,10.779-8.4h10.421A10.39,10.39,0,0,1,279.171,367.867Z" transform="translate(-256.7 -363.546)" fill="#ff9c33"/>
                          </g>
                          <g id="Grupo_1100516" data-name="Grupo 1100516" transform="translate(26.205 7.426)">
                            <g id="Grupo_1100515" data-name="Grupo 1100515">
                              <g id="Grupo_1100514" data-name="Grupo 1100514">
                                <g id="Grupo_1100513" data-name="Grupo 1100513">
                                  <path id="Trazado_877908" data-name="Trazado 877908" d="M365.043,396.625H373.7a1.211,1.211,0,0,0,0-2.422h-8.662a1.211,1.211,0,0,0,0,2.422Z" transform="translate(-363.832 -394.203)" fill="#fff"/>
                                </g>
                              </g>
                            </g>
                          </g>
                        </g>
                      </g>
                    </g>
                  </g>
                  <g id="Grupo_1100523" data-name="Grupo 1100523">
                    <g id="Grupo_1100522" data-name="Grupo 1100522">
                      <path id="Trazado_877909" data-name="Trazado 877909" d="M275.081,335.156H264.071a10.445,10.445,0,0,1,0-20.889h2.071a10.445,10.445,0,0,1,10.445,10.445v8.94A1.5,1.5,0,0,1,275.081,335.156Z" transform="translate(-201.129 -248.488)" fill="#ff6c6c"/>
                      <g id="Grupo_1100521" data-name="Grupo 1100521">
                        <path id="Trazado_877910" data-name="Trazado 877910" d="M62.58,62.549a3.6,3.6,0,0,0,4.615,1.2l14.4-7.032a3.664,3.664,0,0,0,0-6.585L67.2,43.1a3.665,3.665,0,0,0-4.369,5.7l-8.215-.008H54.6a6.055,6.055,0,0,0-6.055,6.056v13.4a1.211,1.211,0,1,0,2.422,0v-13.4A3.634,3.634,0,0,1,54.6,51.215h0l11.221.011h0a1.211,1.211,0,0,0,.836-2.087l-1.938-1.851a1.242,1.242,0,0,1,1.4-2.014l14.4,7.032a1.242,1.242,0,0,1,0,2.232l-14.4,7.032a1.242,1.242,0,0,1-1.4-2.014L66.667,57.7a1.211,1.211,0,0,0-.836-2.087H56.575a1.211,1.211,0,0,0-1.211,1.211V72.246a21.717,21.717,0,0,0-6.816,40.712V132.6a6.057,6.057,0,0,0,6.056,6.056h.005l8.216-.009a3.68,3.68,0,0,0,2.727,6.091,3.743,3.743,0,0,0,1.643-.387l14.4-7.034a3.666,3.666,0,0,0,0-6.585L67.2,123.7a3.664,3.664,0,0,0-4.365,5.707H57.786v-13.98c.277.01.555.018.834.018a21.719,21.719,0,1,0,0-43.438c-.28,0-.558.007-.835.018V58.041h5.043a3.594,3.594,0,0,0-.248,4.508Zm-6,69.278h9.256a1.211,1.211,0,0,0,.837-2.087l-1.939-1.854a1.242,1.242,0,0,1,1.4-2.013l14.4,7.032a1.243,1.243,0,0,1,0,2.232l-14.395,7.034a1.243,1.243,0,0,1-1.4-2.015l1.938-1.851a1.211,1.211,0,0,0-.836-2.087h0l-11.222.012h0A3.635,3.635,0,0,1,50.97,132.6V114.048a21.53,21.53,0,0,0,4.394,1.148v15.419A1.211,1.211,0,0,0,56.575,131.827ZM77.918,93.722a19.3,19.3,0,1,1-19.3-19.3A19.319,19.319,0,0,1,77.918,93.722Z" transform="translate(-36.902 -42.709)" fill="#0000cb"/>
                        <path id="Trazado_877911" data-name="Trazado 877911" d="M299.609,102.418a12.326,12.326,0,0,0-12.325-12.325h-7.565a1.211,1.211,0,1,0,0,2.422h7.565a9.9,9.9,0,1,1,0,19.8H269.318A11.6,11.6,0,0,0,262.353,110h-2.071a11.594,11.594,0,0,0-6.966,2.316h-1.293a.485.485,0,0,1-.484-.484v-9.418a9.908,9.908,0,0,1,.859-4.031,11.61,11.61,0,0,0,7.885,3.081h11.011a2.719,2.719,0,0,0,2.716-2.716v-8.94a11.592,11.592,0,0,0-2.282-6.918h15.558a12.325,12.325,0,0,0,0-24.649H274.008v-.281a11.669,11.669,0,0,0-11.656-11.656h-2.071a11.648,11.648,0,0,0-9.6,18.253,12.275,12.275,0,0,0-1.563,6.009v9.418a2.909,2.909,0,0,0,1.925,2.732,11.621,11.621,0,0,0-.362,13.687,12.322,12.322,0,0,0-1.562,6.01v9.418a2.909,2.909,0,0,0,1.925,2.732,11.622,11.622,0,0,0-.361,13.689,12.273,12.273,0,0,0-1.563,6.009v9.418a2.91,2.91,0,0,0,2.907,2.907h35.261a12.325,12.325,0,0,0,0-24.649H274.008v-.282a11.592,11.592,0,0,0-2.282-6.918h15.558A12.338,12.338,0,0,0,299.609,102.418Zm-37.256,10.009a9.244,9.244,0,0,1,9.233,9.233v8.94a.294.294,0,0,1-.293.293H260.281a9.233,9.233,0,1,1,0-18.467Zm9.234-13.675a.294.294,0,0,1-.293.293H260.282a9.233,9.233,0,1,1,0-18.467h2.071a9.244,9.244,0,0,1,9.234,9.233Zm15.7-38.084a9.9,9.9,0,1,1,0,19.8H269.318a11.6,11.6,0,0,0-6.966-2.316h-2.071a11.594,11.594,0,0,0-6.966,2.316h-1.293a.485.485,0,0,1-.484-.484V70.57a9.872,9.872,0,0,1,.859-4.03,11.611,11.611,0,0,0,7.884,3.08h11.011a2.719,2.719,0,0,0,2.716-2.716V60.668Zm-27-11.937h2.071a9.244,9.244,0,0,1,9.234,9.233V66.9a.294.294,0,0,1-.293.293H260.282a9.233,9.233,0,1,1,0-18.467Zm27,75.634a9.9,9.9,0,1,1,0,19.8H252.023a.485.485,0,0,1-.484-.484v-9.418a9.873,9.873,0,0,1,.859-4.03,11.61,11.61,0,0,0,7.884,3.08h11.011a2.719,2.719,0,0,0,2.716-2.716v-6.236Z" transform="translate(-197.34 -45.436)" fill="#0000cb"/>
                      </g>
                    </g>
                  </g>
                </g>
                <path id="Trazado_877912" data-name="Trazado 877912" d="M288.853,346.934l-1.822,1.822a1.211,1.211,0,1,1-1.713-1.713l1.822-1.822-1.822-1.822a1.211,1.211,0,1,1,1.713-1.713l1.822,1.822,1.822-1.822a1.211,1.211,0,0,1,1.713,1.713l-1.822,1.822,1.822,1.822a1.211,1.211,0,1,1-1.713,1.713Z" transform="translate(-224.876 -268.997)" fill="#fff"/>
                <g id="Grupo_1100526" data-name="Grupo 1100526" transform="translate(60.678 90.046)">
                  <path id="Trazado_877913" data-name="Trazado 877913" d="M363.405,414.449a1.211,1.211,0,0,0-1.211,1.211v.028a1.211,1.211,0,0,0,2.422,0v-.028A1.211,1.211,0,0,0,363.405,414.449Z" transform="translate(-344.077 -414.449)" fill="#fff"/>
                  <path id="Trazado_877914" data-name="Trazado 877914" d="M382.1,414.449a1.211,1.211,0,0,0-1.211,1.211v.028a1.211,1.211,0,0,0,2.422,0v-.028A1.211,1.211,0,0,0,382.1,414.449Z" transform="translate(-358.246 -414.449)" fill="#fff"/>
                  <path id="Trazado_877915" data-name="Trazado 877915" d="M400.8,414.449a1.211,1.211,0,0,0-1.211,1.211v.028a1.211,1.211,0,0,0,2.422,0v-.028A1.211,1.211,0,0,0,400.8,414.449Z" transform="translate(-372.415 -414.449)" fill="#fff"/>
                  <g id="Grupo_1100525" data-name="Grupo 1100525">
                    <path id="Trazado_877916" data-name="Trazado 877916" d="M344.707,414.449a1.211,1.211,0,0,0-1.211,1.211v.028a1.211,1.211,0,0,0,2.422,0v-.028A1.211,1.211,0,0,0,344.707,414.449Z" transform="translate(-329.908 -414.449)" fill="#ffe7db"/>
                    <path id="Trazado_877917" data-name="Trazado 877917" d="M288.613,414.449a1.211,1.211,0,0,0-1.211,1.211v.028a1.211,1.211,0,0,0,2.422,0v-.028A1.211,1.211,0,0,0,288.613,414.449Z" transform="translate(-287.402 -414.449)" fill="#ffe7db"/>
                    <path id="Trazado_877918" data-name="Trazado 877918" d="M307.311,414.449a1.211,1.211,0,0,0-1.211,1.211v.028a1.211,1.211,0,0,0,2.422,0v-.028A1.211,1.211,0,0,0,307.311,414.449Z" transform="translate(-301.571 -414.449)" fill="#ffe7db"/>
                    <path id="Trazado_877919" data-name="Trazado 877919" d="M326.009,414.449a1.211,1.211,0,0,0-1.211,1.211v.028a1.211,1.211,0,0,0,2.422,0v-.028A1.211,1.211,0,0,0,326.009,414.449Z" transform="translate(-315.74 -414.449)" fill="#ffe7db"/>
                  </g>
                </g>
              </g>
            </g>
          </g>
        </g>
        <g id="Grupo_1100531" data-name="Grupo 1100531" transform="translate(87.638 0)">
          <path id="Trazado_877920" data-name="Trazado 877920" d="M402.454,40.23a1.211,1.211,0,0,1-.331-.046c-3.176-.9-3.413-5.459-3.422-5.653a1.211,1.211,0,0,1,.852-1.211l2.543-.788a1.209,1.209,0,0,1,.717,0l2.543.788a1.211,1.211,0,0,1,.852,1.211c-.009.194-.247,4.75-3.422,5.653A1.212,1.212,0,0,1,402.454,40.23Zm-1.213-4.9a3.773,3.773,0,0,0,1.213,2.37,3.773,3.773,0,0,0,1.213-2.37l-1.213-.376Z" transform="translate(-398.699 -32.479)" fill="#ff6c6c"/>
        </g>
        <g id="Grupo_1100532" data-name="Grupo 1100532" transform="translate(0 27.389)">
          <path id="Trazado_877921" data-name="Trazado 877921" d="M40.656,153.3a1.211,1.211,0,0,1-.331-.046c-3.176-.9-3.413-5.459-3.422-5.653a1.211,1.211,0,0,1,.852-1.211L40.3,145.6a1.208,1.208,0,0,1,.717,0l2.543.788a1.211,1.211,0,0,1,.852,1.211c-.009.194-.247,4.75-3.422,5.653A1.221,1.221,0,0,1,40.656,153.3Zm-1.213-4.9a3.773,3.773,0,0,0,1.213,2.37,3.774,3.774,0,0,0,1.213-2.37l-1.213-.376Z" transform="translate(-36.901 -145.548)" fill="#6c6cff"/>
        </g>
        <g id="Grupo_1100533" data-name="Grupo 1100533" transform="translate(39.805 70.071)">
          <path id="Trazado_877922" data-name="Trazado 877922" d="M202.441,326.6a1.211,1.211,0,0,1-.857-2.067l2.422-2.422a1.211,1.211,0,0,1,1.713,1.713l-2.422,2.422A1.207,1.207,0,0,1,202.441,326.6Z" transform="translate(-201.229 -321.756)" fill="#6c6cff"/>
        </g>
        <g id="Grupo_1100534" data-name="Grupo 1100534" transform="translate(1.332 13.948)">
          <path id="Trazado_877923" data-name="Trazado 877923" d="M43.612,94.906a1.211,1.211,0,0,1-.857-2.067l2.422-2.422a1.211,1.211,0,0,1,1.713,1.713l-2.422,2.422A1.206,1.206,0,0,1,43.612,94.906Z" transform="translate(-42.4 -90.061)" fill="#ff9c33"/>
        </g>
        <g id="Grupo_1100535" data-name="Grupo 1100535" transform="translate(103.266 74.759)">
          <path id="Trazado_877924" data-name="Trazado 877924" d="M464.43,345.955a1.211,1.211,0,0,1-.857-2.067L466,341.465a1.211,1.211,0,1,1,1.713,1.713l-2.422,2.422A1.206,1.206,0,0,1,464.43,345.955Z" transform="translate(-463.218 -341.11)" fill="#ff9c33"/>
        </g>
      </g>
    </g>
  </g>
</svg>
