<svg xmlns="http://www.w3.org/2000/svg" width="78.501" height="74.272" viewBox="0 0 78.501 74.272">
  <g id="Grupo_1101897" data-name="Grupo 1101897" transform="translate(-244 -8057.363)">
    <path id="_12068" data-name="12068" d="M72.033,71.913c-8.038-1.11-16.53-.839-23.844,2.675C38.045,79.46,31.382,90.507,31.127,101.757s5.606,22.305,14.66,28.988,21,9.051,32.068,7.045c11.165-2.023,21.645-8.583,27.469-18.322,3.735-6.245,5.48-13.956,3.417-20.934a28.6,28.6,0,0,0-6.787-11.156A50.145,50.145,0,0,0,72.033,71.913Z" transform="translate(212.881 7993.152)" fill="#26aab7"/>
    <g id="seguidores" transform="translate(246.113 8057.363)">
      <g id="Grupo_1100713" data-name="Grupo 1100713" transform="translate(0.002 0)">
        <path id="Trazado_878522" data-name="Trazado 878522" d="M65.1,60.07C55.873,70.858,37.578,78.262,21.344,71.947,9.707,67.42-1.023,55.713.08,42.858c.7-8.146,6.2-17.366,14.455-21.41,6.494-3.182,12.085-1.882,15.645-6.614,3.128-4.158.569-7.5,3.225-10.813,4.2-5.24,17.228-5.16,25.186-.9,15.76,8.432,22.541,38.2,6.508,56.951Z" transform="translate(-0.002 -0.002)" fill="#e6edff"/>
      </g>
      <g id="Grupo_1100771" data-name="Grupo 1100771" transform="translate(4.426 0.79)">
        <g id="Grupo_1100731" data-name="Grupo 1100731">
          <g id="Grupo_1100716" data-name="Grupo 1100716" transform="translate(0 45.992)">
            <g id="Grupo_1100714" data-name="Grupo 1100714">
              <path id="Trazado_878523" data-name="Trazado 878523" d="M28,296.047H34.63v9.316H28Z" transform="translate(-28.002 -296.047)" fill="#fdd2b5"/>
            </g>
            <g id="Grupo_1100715" data-name="Grupo 1100715">
              <path id="Trazado_878524" data-name="Trazado 878524" d="M28,296.047h2.844v9.316H28Z" transform="translate(-28.002 -296.047)" fill="#f9c19b"/>
            </g>
          </g>
          <g id="Grupo_1100717" data-name="Grupo 1100717" transform="translate(24.907 45.202)">
            <path id="Trazado_878525" data-name="Trazado 878525" d="M190.617,296.047h6.674v9.316h-6.674Z" transform="translate(-189.827 -295.257)" fill="#fdd2b5"/>
            <path id="Trazado_878526" data-name="Trazado 878526" d="M193.081,301.944h-6.674a.79.79,0,0,1-.79-.79v-9.316a.79.79,0,0,1,.79-.79h6.674a.79.79,0,0,1,.79.79v9.316A.79.79,0,0,1,193.081,301.944Zm-5.884-1.58h5.094v-7.736H187.2Z" transform="translate(-185.617 -291.047)" fill="#333"/>
          </g>
          <g id="Grupo_1100720" data-name="Grupo 1100720" transform="translate(0 29.188)">
            <g id="Grupo_1100718" data-name="Grupo 1100718" transform="translate(0)">
              <path id="Trazado_878527" data-name="Trazado 878527" d="M53.7,215.829H34.63V206.5L28,206.513v-3.819a12.993,12.993,0,0,1,13-12.985h6.368a12.993,12.993,0,0,1,13,12.985v3.819H53.7Z" transform="translate(-28.002 -189.709)" fill="#fcca3d"/>
            </g>
            <g id="Grupo_1100719" data-name="Grupo 1100719" transform="translate(0 0)">
              <path id="Trazado_878528" data-name="Trazado 878528" d="M43.065,189.709H41a12.993,12.993,0,0,0-13,12.985v3.819l2.844-.006v-3.023a12.991,12.991,0,0,1,12.219-12.959Z" transform="translate(-28.002 -189.709)" fill="#e5a505"/>
            </g>
          </g>
          <g id="Grupo_1100724" data-name="Grupo 1100724" transform="translate(11.631 14.514)">
            <g id="Grupo_1100721" data-name="Grupo 1100721" transform="translate(0 0)">
              <path id="Trazado_878529" data-name="Trazado 878529" d="M106.14,117.431a4.528,4.528,0,0,1-4.531-4.525V96.85h9.062v16.055A4.528,4.528,0,0,1,106.14,117.431Z" transform="translate(-101.609 -96.85)" fill="#fdd2b5"/>
            </g>
            <g id="Grupo_1100722" data-name="Grupo 1100722" transform="translate(0)">
              <path id="Trazado_878530" data-name="Trazado 878530" d="M103.979,112.905V96.85h-2.37v16.055a4.532,4.532,0,0,0,5.716,4.368A4.527,4.527,0,0,1,103.979,112.905Z" transform="translate(-101.609 -96.85)" fill="#f9c19b"/>
            </g>
            <g id="Grupo_1100723" data-name="Grupo 1100723" transform="translate(0 11.755)">
              <path id="Trazado_878531" data-name="Trazado 878531" d="M106.162,172.532a8.609,8.609,0,0,1-4.554-1.3v2.37a8.652,8.652,0,0,0,9.062.029v-2.37A8.61,8.61,0,0,1,106.162,172.532Z" transform="translate(-101.608 -171.236)" fill="#f9c19b"/>
            </g>
          </g>
          <g id="Grupo_1100727" data-name="Grupo 1100727" transform="translate(7.535 5.702)">
            <g id="Grupo_1100725" data-name="Grupo 1100725" transform="translate(0)">
              <path id="Trazado_878532" data-name="Trazado 878532" d="M84.336,62.947a8.65,8.65,0,0,0,8.65-8.65V41.084h-17.3V54.3A8.65,8.65,0,0,0,84.336,62.947Z" transform="translate(-75.686 -41.084)" fill="#fdd2b5"/>
            </g>
            <g id="Grupo_1100726" data-name="Grupo 1100726" transform="translate(0 4.539)">
              <path id="Trazado_878533" data-name="Trazado 878533" d="M92.986,72.529l-7.3.02a12.364,12.364,0,0,1-7.382-2.4,1.623,1.623,0,0,0-2.616,1.286v2.528A1.623,1.623,0,0,1,78.3,72.678a12.364,12.364,0,0,0,7.382,2.4l7.3-.02Z" transform="translate(-75.685 -69.805)" fill="#f9c19b"/>
            </g>
          </g>
          <g id="Grupo_1100730" data-name="Grupo 1100730" transform="translate(3.222)">
            <g id="Grupo_1100728" data-name="Grupo 1100728" transform="translate(0)">
              <path id="Trazado_878534" data-name="Trazado 878534" d="M54.317,8.789A3.789,3.789,0,0,1,58.109,5h.612A15.842,15.842,0,0,1,70.24,9.865a12.413,12.413,0,0,1,3.572,8.741c0,5.23-3.805,6.1-3.805,6.1V17.967l-7.3.02a12.364,12.364,0,0,1-7.382-2.4,1.623,1.623,0,0,0-2.616,1.286v7.788s-4.324.041-4.309-7.319C48.4,17.342,48.044,8.95,54.317,8.789Z" transform="translate(-48.393 -5.002)" fill="#616161"/>
            </g>
            <g id="Grupo_1100729" data-name="Grupo 1100729" transform="translate(0 0)">
              <path id="Trazado_878535" data-name="Trazado 878535" d="M50.45,19.239s-.352-8.392,5.921-8.553A3.789,3.789,0,0,1,60.163,6.9h.612A16,16,0,0,1,70.5,10.146c-.085-.095-.171-.189-.258-.28A15.842,15.842,0,0,0,58.721,5h-.612A3.789,3.789,0,0,0,54.317,8.79c-6.273.161-5.921,8.553-5.921,8.553-.01,4.859,1.872,6.492,3.151,7.04A10.088,10.088,0,0,1,50.45,19.239Z" transform="translate(-48.392 -5.003)" fill="#4c4c4c"/>
            </g>
          </g>
        </g>
        <g id="Grupo_1100749" data-name="Grupo 1100749" transform="translate(32.261)">
          <g id="Grupo_1100734" data-name="Grupo 1100734" transform="translate(26.533 45.992)">
            <g id="Grupo_1100732" data-name="Grupo 1100732" transform="translate(0 0)">
              <path id="Trazado_878536" data-name="Trazado 878536" d="M0,0H6.628V9.316H0Z" transform="translate(6.628 9.316) rotate(180)" fill="#fdd2b5"/>
            </g>
            <g id="Grupo_1100733" data-name="Grupo 1100733" transform="translate(3.784)">
              <path id="Trazado_878537" data-name="Trazado 878537" d="M424,296.047h2.844v9.316H424Z" transform="translate(-424.002 -296.047)" fill="#f9c19b"/>
            </g>
          </g>
          <g id="Grupo_1100735" data-name="Grupo 1100735" transform="translate(0 45.202)">
            <path id="Trazado_878538" data-name="Trazado 878538" d="M0,0H6.674V9.316H0Z" transform="translate(7.464 10.106) rotate(180)" fill="#fdd2b5"/>
            <path id="Trazado_878539" data-name="Trazado 878539" d="M239.616,301.944h-6.674a.79.79,0,0,1-.79-.79v-9.316a.79.79,0,0,1,.79-.79h6.674a.79.79,0,0,1,.79.79v9.316A.79.79,0,0,1,239.616,301.944Zm-5.884-1.58h5.094v-7.736h-5.094Z" transform="translate(-232.152 -291.047)" fill="#333"/>
          </g>
          <g id="Grupo_1100738" data-name="Grupo 1100738" transform="translate(0.79 29.188)">
            <g id="Grupo_1100736" data-name="Grupo 1100736">
              <path id="Trazado_878540" data-name="Trazado 878540" d="M243.826,215.829h19.069V206.5l6.628.014v-3.819a12.993,12.993,0,0,0-13-12.985h-6.368a12.993,12.993,0,0,0-13,12.985v3.819h6.674Z" transform="translate(-237.152 -189.709)" fill="#1fd4af"/>
            </g>
            <g id="Grupo_1100737" data-name="Grupo 1100737" transform="translate(17.308 0)">
              <path id="Trazado_878541" data-name="Trazado 878541" d="M346.68,189.709h2.061a12.993,12.993,0,0,1,13,12.985v3.819l-2.844-.006v-3.023a12.991,12.991,0,0,0-12.219-12.959Z" transform="translate(-346.68 -189.709)" fill="#0eaf89"/>
            </g>
          </g>
          <g id="Grupo_1100742" data-name="Grupo 1100742" transform="translate(12.422 14.514)">
            <g id="Grupo_1100739" data-name="Grupo 1100739" transform="translate(0 0)">
              <path id="Trazado_878542" data-name="Trazado 878542" d="M315.29,117.431a4.528,4.528,0,0,1-4.531-4.525V96.85h9.062v16.055A4.528,4.528,0,0,1,315.29,117.431Z" transform="translate(-310.759 -96.85)" fill="#fdd2b5"/>
            </g>
            <g id="Grupo_1100740" data-name="Grupo 1100740">
              <path id="Trazado_878543" data-name="Trazado 878543" d="M313.129,112.905V96.85h-2.37v16.055a4.532,4.532,0,0,0,5.716,4.368A4.527,4.527,0,0,1,313.129,112.905Z" transform="translate(-310.759 -96.85)" fill="#f9c19b"/>
            </g>
            <g id="Grupo_1100741" data-name="Grupo 1100741" transform="translate(0 11.755)">
              <path id="Trazado_878544" data-name="Trazado 878544" d="M315.313,172.532a8.609,8.609,0,0,1-4.554-1.3v2.37a8.652,8.652,0,0,0,9.062.029v-2.37A8.611,8.611,0,0,1,315.313,172.532Z" transform="translate(-310.759 -171.236)" fill="#f9c19b"/>
            </g>
          </g>
          <g id="Grupo_1100745" data-name="Grupo 1100745" transform="translate(8.325 5.702)">
            <g id="Grupo_1100743" data-name="Grupo 1100743">
              <path id="Trazado_878545" data-name="Trazado 878545" d="M293.486,62.947a8.65,8.65,0,0,0,8.65-8.65V41.084h-17.3V54.3A8.65,8.65,0,0,0,293.486,62.947Z" transform="translate(-284.836 -41.084)" fill="#fdd2b5"/>
            </g>
            <g id="Grupo_1100744" data-name="Grupo 1100744" transform="translate(0 4.539)">
              <path id="Trazado_878546" data-name="Trazado 878546" d="M302.137,72.529l-7.3.02a12.364,12.364,0,0,1-7.382-2.4,1.623,1.623,0,0,0-2.616,1.286v2.528a1.623,1.623,0,0,1,2.616-1.286,12.364,12.364,0,0,0,7.382,2.4l7.3-.02Z" transform="translate(-284.836 -69.805)" fill="#f9c19b"/>
            </g>
          </g>
          <g id="Grupo_1100748" data-name="Grupo 1100748" transform="translate(4.012)">
            <g id="Grupo_1100746" data-name="Grupo 1100746" transform="translate(0)">
              <path id="Trazado_878547" data-name="Trazado 878547" d="M263.468,8.789A3.789,3.789,0,0,1,267.26,5h.612a15.842,15.842,0,0,1,11.519,4.863,12.412,12.412,0,0,1,3.572,8.741c0,5.23-3.805,6.1-3.805,6.1V17.967l-7.3.02a12.364,12.364,0,0,1-7.382-2.4,1.623,1.623,0,0,0-2.616,1.286v7.788s-4.324.041-4.309-7.319C257.547,17.342,257.2,8.95,263.468,8.789Z" transform="translate(-257.544 -5.002)" fill="#616161"/>
            </g>
            <g id="Grupo_1100747" data-name="Grupo 1100747" transform="translate(0 0)">
              <path id="Trazado_878548" data-name="Trazado 878548" d="M259.6,19.239s-.352-8.392,5.921-8.553A3.789,3.789,0,0,1,269.314,6.9h.612a16,16,0,0,1,9.723,3.247c-.085-.095-.171-.189-.258-.28A15.842,15.842,0,0,0,267.872,5h-.612a3.789,3.789,0,0,0-3.792,3.787c-6.273.161-5.921,8.553-5.921,8.553-.01,4.859,1.872,6.492,3.152,7.04A10.085,10.085,0,0,1,259.6,19.239Z" transform="translate(-257.543 -5.003)" fill="#4c4c4c"/>
            </g>
          </g>
        </g>
        <g id="Grupo_1100766" data-name="Grupo 1100766" transform="translate(16.973 12.599)">
          <g id="Grupo_1100752" data-name="Grupo 1100752" transform="translate(0 45.059)">
            <g id="Grupo_1100750" data-name="Grupo 1100750">
              <path id="Trazado_878549" data-name="Trazado 878549" d="M135.412,369.872h6.445v9.07h-6.445Z" transform="translate(-135.412 -369.872)" fill="#fdd2b5"/>
            </g>
            <g id="Grupo_1100751" data-name="Grupo 1100751">
              <path id="Trazado_878550" data-name="Trazado 878550" d="M135.412,369.872h2.844v9.07h-2.844Z" transform="translate(-135.412 -369.872)" fill="#f9c19b"/>
            </g>
          </g>
          <g id="Grupo_1100753" data-name="Grupo 1100753" transform="translate(24.196 44.269)">
            <path id="Trazado_878551" data-name="Trazado 878551" d="M293.526,369.872h6.489v9.07h-6.489Z" transform="translate(-292.736 -369.082)" fill="#fdd2b5"/>
            <path id="Trazado_878552" data-name="Trazado 878552" d="M295.806,375.523h-6.489a.79.79,0,0,1-.79-.79v-9.07a.79.79,0,0,1,.79-.79h6.489a.79.79,0,0,1,.79.79v9.07A.79.79,0,0,1,295.806,375.523Zm-5.7-1.58h4.909v-7.49h-4.909Z" transform="translate(-288.527 -364.873)" fill="#333"/>
          </g>
          <g id="Grupo_1100754" data-name="Grupo 1100754" transform="translate(0 28.698)">
            <path id="Trazado_878553" data-name="Trazado 878553" d="M160.4,291.771H141.857v-9.084l-6.445.014v-3.719a12.642,12.642,0,0,1,12.642-12.642h6.191a12.642,12.642,0,0,1,12.642,12.642V282.7H160.4Z" transform="translate(-135.412 -266.34)" fill="#5c6bc0"/>
          </g>
          <g id="Grupo_1100755" data-name="Grupo 1100755" transform="translate(0 28.698)">
            <path id="Trazado_878554" data-name="Trazado 878554" d="M138.256,280.088A12.642,12.642,0,0,1,150.9,267.446h6.191a12.665,12.665,0,0,1,3.123.39,12.584,12.584,0,0,0-5.967-1.5h-6.191a12.642,12.642,0,0,0-12.642,12.642V282.7l2.844-.006Z" transform="translate(-135.412 -266.34)" fill="#5060a3"/>
          </g>
          <g id="Grupo_1100759" data-name="Grupo 1100759" transform="translate(11.31 14.412)">
            <g id="Grupo_1100756" data-name="Grupo 1100756">
              <path id="Trazado_878555" data-name="Trazado 878555" d="M211.387,195.969a4.406,4.406,0,0,1-4.406-4.406V175.932h8.811v15.632A4.406,4.406,0,0,1,211.387,195.969Z" transform="translate(-206.981 -175.932)" fill="#fdd2b5"/>
            </g>
            <g id="Grupo_1100757" data-name="Grupo 1100757" transform="translate(0 11.18)">
              <path id="Trazado_878556" data-name="Trazado 878556" d="M211.387,247.926a8.37,8.37,0,0,1-4.406-1.246v2.528a8.412,8.412,0,0,0,8.811,0V246.68A8.37,8.37,0,0,1,211.387,247.926Z" transform="translate(-206.981 -246.68)" fill="#f9c19b"/>
            </g>
            <g id="Grupo_1100758" data-name="Grupo 1100758" transform="translate(0)">
              <path id="Trazado_878557" data-name="Trazado 878557" d="M209.51,191.564V175.932h-2.528v15.632a4.406,4.406,0,0,0,5.67,4.221A4.407,4.407,0,0,1,209.51,191.564Z" transform="translate(-206.982 -175.932)" fill="#f9c19b"/>
            </g>
          </g>
          <g id="Grupo_1100762" data-name="Grupo 1100762" transform="translate(7.304 5.551)">
            <g id="Grupo_1100760" data-name="Grupo 1100760">
              <path id="Trazado_878558" data-name="Trazado 878558" d="M190.046,141.148a8.411,8.411,0,0,1-8.411-8.411V119.862h16.822v12.875A8.411,8.411,0,0,1,190.046,141.148Z" transform="translate(-181.635 -119.862)" fill="#fdd2b5"/>
            </g>
            <g id="Grupo_1100761" data-name="Grupo 1100761" transform="translate(0 4.047)">
              <path id="Trazado_878559" data-name="Trazado 878559" d="M198.176,149.066a15.181,15.181,0,0,1-14.435-3.267,1.262,1.262,0,0,0-2.105.939V148.5a1.263,1.263,0,0,1,1.947-.327,15.182,15.182,0,0,0,14.435,3.267c.094-.028.342-.079.434-.111v-2.353c-.091.032-.182.066-.276.094Z" transform="translate(-181.636 -145.475)" fill="#f9c19b"/>
            </g>
          </g>
          <g id="Grupo_1100765" data-name="Grupo 1100765" transform="translate(2.576)">
            <g id="Grupo_1100763" data-name="Grupo 1100763" transform="translate(0 0)">
              <path id="Trazado_878560" data-name="Trazado 878560" d="M175.6,93.893a8.582,8.582,0,0,0-4.05-7.074,14.07,14.07,0,0,0-7.376-2.087h-3.017a3.687,3.687,0,0,0-3.687,3.687c-6.1.157-5.757,8.328-5.757,8.328-.014,7.165,4.725,7.165,4.725,7.165V95.6a1.262,1.262,0,0,1,2.105-.939,15.182,15.182,0,0,0,14.435,3.267c.094-.028.184-.061.276-.094v6.083a7.324,7.324,0,0,0,3.1-2.793,8.563,8.563,0,0,0,1.33-5.282,2.09,2.09,0,0,0-2.08-1.944Z" transform="translate(-151.714 -84.733)" fill="#616161"/>
            </g>
            <g id="Grupo_1100764" data-name="Grupo 1100764">
              <path id="Trazado_878561" data-name="Trazado 878561" d="M153.772,98.643s-.343-8.171,5.757-8.328a3.687,3.687,0,0,1,3.687-3.687h3.017a14.07,14.07,0,0,1,7.376,2.087c.065.04.127.085.191.126a8.414,8.414,0,0,0-2.246-2.023,14.07,14.07,0,0,0-7.376-2.087h-3.017a3.687,3.687,0,0,0-3.687,3.687c-6.1.157-5.757,8.328-5.757,8.328-.009,4.4,1.779,6.1,3.157,6.755A9.209,9.209,0,0,1,153.772,98.643Z" transform="translate(-151.714 -84.732)" fill="#4c4c4c"/>
            </g>
          </g>
          <path id="Trazado_878562" data-name="Trazado 878562" d="M217.175,318.453l-3.346-4.416,1.778-11.3h3.334l1.579,11.3Z" transform="translate(-201.437 -268.283)" fill="#e0e0e0"/>
        </g>
        <g id="Grupo_1100770" data-name="Grupo 1100770" transform="translate(38.513 52.148)">
          <g id="Grupo_1100769" data-name="Grupo 1100769" transform="translate(0)">
            <g id="Grupo_1100767" data-name="Grupo 1100767" transform="translate(0 0.441)">
              <ellipse id="Elipse_11910" data-name="Elipse 11910" cx="10.444" cy="9.864" rx="10.444" ry="9.864" fill="#ed4848"/>
            </g>
            <g id="Grupo_1100768" data-name="Grupo 1100768" transform="translate(0.519)">
              <path id="Trazado_878563" data-name="Trazado 878563" d="M277.688,345.273a10.271,10.271,0,0,1,8.928-10.181,10.272,10.272,0,1,0,0,20.363A10.271,10.271,0,0,1,277.688,345.273Z" transform="translate(-275.002 -335.002)" fill="#cc4040"/>
            </g>
          </g>
          <path id="Trazado_878564" data-name="Trazado 878564" d="M311.854,365.533h-4.741v-4.741a.79.79,0,1,0-1.58,0v4.741h-4.741a.79.79,0,1,0,0,1.58h4.741v4.741a.79.79,0,1,0,1.58,0v-4.741h4.741a.79.79,0,1,0,0-1.58Z" transform="translate(-295.533 -356.051)" fill="#fff"/>
        </g>
      </g>
      <path id="Trazado_878565" data-name="Trazado 878565" d="M86.42,33.7a13.762,13.762,0,0,0-8.092-4.345V27.511a9.457,9.457,0,0,0,4.036-6.426c6.533-2.692,3.789-12.105.123-15.975A17.089,17.089,0,0,0,69.782,0,4.588,4.588,0,0,0,65.26,3.839c-4.409.54-6.04,5.285-5.983,9.172A26.165,26.165,0,0,0,53.1,12.6C52.057,4.651,44.231-.045,36.731,0a4.588,4.588,0,0,0-4.522,3.839C25.1,4.71,23.265,19.5,30.649,21.15a9.453,9.453,0,0,0,3.986,6.331v1.877A13.739,13.739,0,0,0,23,42.963V56.1h0a.79.79,0,0,0,.79.79H39.976v10.63h0a.79.79,0,0,0,.79.79H63.285a11.059,11.059,0,0,0,20.873-5.1,10.9,10.9,0,0,0-2.035-6.321h7.092A.79.79,0,0,0,90,56.1h0V42.963A13.732,13.732,0,0,0,86.42,33.7Zm2,9.264v3.029H83.331V42.763a.79.79,0,0,0-1.58,0V55.308H80.77a11.036,11.036,0,0,0-7.99-3.152,13.557,13.557,0,0,0-11.1-10.7V39.408A9.283,9.283,0,0,0,62.905,38.4a9.145,9.145,0,0,0,2.683-5.3,8.145,8.145,0,0,0,2.1-1.66,5.32,5.32,0,0,0,10.64-.086v-.4A12.151,12.151,0,0,1,88.425,42.963ZM56.482,47.049a3.62,3.62,0,0,1-3.616-3.616V40.277a9.271,9.271,0,0,0,7.231,0v3.154A3.62,3.62,0,0,1,56.482,47.049ZM59.02,58.943,56.5,62.209l-2.511-3.26L55.6,48.629h1.99ZM56.482,39.437a7.629,7.629,0,0,1-7.621-7.621V24.253a.473.473,0,0,1,.787-.351A15.86,15.86,0,0,0,64.1,27.537v4.494a7.576,7.576,0,0,1-7.615,7.407ZM69.265,31.36V29.076c.093-.2.181-.4.26-.61a9.492,9.492,0,0,0,7.222-.085V31.36a3.741,3.741,0,0,1-7.482,0ZM80.889,19.705a7.869,7.869,0,0,1-7.86,7.86,7.761,7.761,0,0,1-3.072-.628,9.539,9.539,0,0,0,.144-2.5,2.9,2.9,0,0,0-2.12-2.576,9.356,9.356,0,0,0-2.812-5.835V12.661A.838.838,0,0,1,66.507,12a13.155,13.155,0,0,0,7.823,2.568h.049l6.51-.018ZM62.779,6.74a4.345,4.345,0,0,1,3.231-1.373.79.79,0,0,0,.77-.79,3,3,0,0,1,3-3A15.521,15.521,0,0,1,81.34,6.2c2.815,2.972,5.589,10.2,1.13,13.075V13.755a.835.835,0,0,0-.792-.79l-7.277.02a11.476,11.476,0,0,1-6.917-2.231,2.441,2.441,0,0,0-3.895,1.907V14.8a14.883,14.883,0,0,0-2.725-1.312c-.044-2.306.275-4.99,1.916-6.746ZM55.807,14.18a13.285,13.285,0,0,1,6.963,1.97,7.762,7.762,0,0,1,3.674,6.423.79.79,0,0,0,.79.767,1.306,1.306,0,0,1,1.292,1.212,7.9,7.9,0,0,1-.233,2.588c-.006.019-.011.038-.016.058a7.637,7.637,0,0,1-.957,2.15,7.364,7.364,0,0,1-1.642,1.812V26.486c0-.758-.744-.826-1.289-.664a14.3,14.3,0,0,1-13.684-3.1,2.068,2.068,0,0,0-3.423,1.527V31.62c-1.806-.593-2.7-2.407-2.99-4.163-.665-3.6.249-9.472,4.833-9.59a.79.79,0,0,0,.77-.79,2.9,2.9,0,0,1,2.9-2.9h3.017ZM30.538,12.661v6.811C25.3,17.34,27.181,5.516,32.96,5.367a.79.79,0,0,0,.77-.79,3,3,0,0,1,3-3c6.7-.053,13.842,4.057,14.8,11.2a4.486,4.486,0,0,0-2.116,1.355v-.379a.835.835,0,0,0-.792-.79l-7.277.02a11.476,11.476,0,0,1-6.917-2.231,2.44,2.44,0,0,0-3.894,1.907Zm1.58,7.044V12.661A.838.838,0,0,1,33.456,12a13.155,13.155,0,0,0,7.824,2.568h.049l6.51-.018v1.882c-3.97.838-5.41,5.388-5.283,8.99a14.651,14.651,0,0,0,.091,1.677,7.854,7.854,0,0,1-10.529-7.391ZM43.7,30.539v.821a3.741,3.741,0,0,1-7.482,0v-3a9.5,9.5,0,0,0,6.724.308A7.753,7.753,0,0,0,43.7,30.539ZM29.631,55.308H24.583V47.571l5.048-.011Zm10.345-.578v.578H31.211V42.6a.79.79,0,1,0-1.58,0V45.98l-5.048.011V42.963a12.16,12.16,0,0,1,10.051-12,5.426,5.426,0,0,0,5.321,5.713,5.327,5.327,0,0,0,5.24-4.4,5.334,5.334,0,0,0,2.2,1A9.216,9.216,0,0,0,51.286,39.4v2.069A13.387,13.387,0,0,0,39.976,54.73Zm6.445,12H41.556V59.237l4.865-.01Zm16.191,0H48V54.379a.79.79,0,0,0-1.58,0v3.268l-4.865.01V54.73a11.813,11.813,0,0,1,9.729-11.658,5.331,5.331,0,0,0,2.668,4.9L52.063,59.01a.79.79,0,0,0,.171.638L55.9,64.064a.8.8,0,0,0,1.216,0l3.662-4.416a.79.79,0,0,0,.173-.624L59.228,47.841a5.352,5.352,0,0,0,2.449-4.779A11.792,11.792,0,0,1,71.2,52.314a11.052,11.052,0,0,0-8.59,14.415ZM73.1,72.691a9.481,9.481,0,1,1,9.481-9.481A9.492,9.492,0,0,1,73.1,72.691Zm10.28-17.383h-.046V47.573h5.094v7.736Z" transform="translate(-19.367 0)" fill="#00223d"/>
    </g>
  </g>
</svg>
