<svg xmlns="http://www.w3.org/2000/svg" width="151.991" height="148.529" viewBox="0 0 151.991 148.529">
  <g id="Grupo_1101897" data-name="Grupo 1101897" transform="translate(-1039 -18052)">
    <g id="Grupo_1101718" data-name="Grupo 1101718" transform="translate(1039 18075.697)">
      <path id="_12068" data-name="12068" d="M103.949,72.366C89.64,70.39,74.525,70.874,61.5,77.128,43.447,85.8,31.588,105.464,31.133,125.491s9.978,39.705,26.1,51.6S94.6,193.2,114.312,189.632c19.875-3.6,38.53-15.279,48.9-32.614,6.648-11.116,9.755-24.842,6.082-37.264-2.217-7.5-6.75-14.14-12.082-19.858A89.263,89.263,0,0,0,103.949,72.366Z" transform="translate(-24.992 -66.03)" fill="#ffd947"/>
      <g id="Grupo_1099026" data-name="Grupo 1099026" transform="translate(0 111.446) rotate(-90)">
        <path id="Trazado_873104" data-name="Trazado 873104" d="M.647,2.832A1.64,1.64,0,0,0,2.79,2.59,1.64,1.64,0,0,0,2.7.434,1.641,1.641,0,0,0,.541.376,1.573,1.573,0,0,0,.647,2.832Z" transform="translate(21.424 128.541)" fill="#fff"/>
        <path id="Trazado_873105" data-name="Trazado 873105" d="M.646,2.832A1.64,1.64,0,0,0,2.791,2.59,1.641,1.641,0,0,0,2.7.434,1.641,1.641,0,0,0,.541.376,1.573,1.573,0,0,0,.646,2.832Z" transform="translate(52.72 135.267)" fill="#ffd947"/>
        <path id="Trazado_873106" data-name="Trazado 873106" d="M.647,2.832A1.639,1.639,0,0,0,2.79,2.59,1.641,1.641,0,0,0,2.7.434,1.641,1.641,0,0,0,.541.376,1.573,1.573,0,0,0,.647,2.832Z" transform="translate(108.296 0)" fill="#7d6eb2"/>
        <path id="Trazado_873109" data-name="Trazado 873109" d="M2.129,6.609a3.577,3.577,0,0,0,4.43-1.75A3.579,3.579,0,0,0,5.014.353,3.578,3.578,0,0,0,.442,1.692,3.468,3.468,0,0,0,2.129,6.609Z" transform="translate(89.699 129.99)" fill="#26aab7"/>
        <path id="Trazado_873110" data-name="Trazado 873110" d="M2.13,6.609a3.577,3.577,0,0,0,4.43-1.75A3.578,3.578,0,0,0,5.014.354,3.577,3.577,0,0,0,.443,1.691,3.468,3.468,0,0,0,2.13,6.609Z" transform="translate(65.295 145.152)" fill="#7d6eb2"/>
        <path id="Trazado_873111" data-name="Trazado 873111" d="M2.13,6.609a3.576,3.576,0,0,0,4.43-1.75A3.577,3.577,0,0,0,5.014.354,3.576,3.576,0,0,0,.443,1.691,3.468,3.468,0,0,0,2.13,6.609Z" transform="translate(0 40.87)" fill="#7d6eb2"/>
        <path id="Trazado_873113" data-name="Trazado 873113" d="M2.129,6.609a3.578,3.578,0,0,0,4.43-1.75A3.579,3.579,0,0,0,5.015.353,3.578,3.578,0,0,0,.442,1.692,3.468,3.468,0,0,0,2.129,6.609Z" transform="translate(101.449 8.605)" fill="#ffd947"/>
        <circle id="Elipse_11485" data-name="Elipse 11485" cx="1.689" cy="1.689" r="1.689" transform="translate(7.75 136.702)" fill="none" stroke="#26aab7" stroke-linecap="round" stroke-linejoin="round" stroke-width="1.5"/>
      </g>
    </g>
    <g id="_x38_1_Budget_Plan" transform="translate(1026.411 18044.393)">
      <g id="Grupo_1101879" data-name="Grupo 1101879" transform="translate(37.417 7.607)">
        <g id="Grupo_1101847" data-name="Grupo 1101847" transform="translate(0.004 4.771)">
          <path id="Trazado_880013" data-name="Trazado 880013" d="M118.951,35.718v96.065a7.732,7.732,0,0,1-7.732,7.732H45.166a7.732,7.732,0,0,1-7.732-7.732V35.718a7.732,7.732,0,0,1,7.732-7.732h66.054A7.732,7.732,0,0,1,118.951,35.718Z" transform="translate(-37.434 -27.986)" fill="#475da9"/>
        </g>
        <g id="Grupo_1101848" data-name="Grupo 1101848" transform="translate(0 4.777)">
          <path id="Trazado_880014" data-name="Trazado 880014" d="M118.944,35.743v96.064a7.738,7.738,0,0,1-7.731,7.731H45.148a7.729,7.729,0,0,1-7.731-7.731v-.968H66.292a43.951,43.951,0,0,0,43.953-43.953V28.012h.968a7.738,7.738,0,0,1,7.731,7.731Z" transform="translate(-37.417 -28.012)" opacity="0.12"/>
        </g>
        <g id="Grupo_1101849" data-name="Grupo 1101849" transform="translate(8.274 13.041)">
          <path id="Trazado_880015" data-name="Trazado 880015" d="M72.761,63.312h64.977V158.3H72.761Z" transform="translate(-72.761 -63.312)" fill="#e8f1f8"/>
        </g>
        <g id="Grupo_1101850" data-name="Grupo 1101850" transform="translate(8.272 13.035)">
          <path id="Trazado_880016" data-name="Trazado 880016" d="M137.734,63.285v95H72.752v-7.276h29.615a28.091,28.091,0,0,0,28.077-28.092V63.285Z" transform="translate(-72.752 -63.285)" opacity="0.12"/>
        </g>
        <g id="Grupo_1101851" data-name="Grupo 1101851" transform="translate(18.466 0)">
          <path id="Trazado_880017" data-name="Trazado 880017" d="M160.876,20.485v.821a3.077,3.077,0,0,1-3.077,3.077H119.371a3.077,3.077,0,0,1-3.077-3.077v-.821A4.483,4.483,0,0,1,120.777,16h1.67a4.2,4.2,0,0,0,4.2-4.2,4.2,4.2,0,0,1,4.2-4.2h15.486a4.2,4.2,0,0,1,4.2,4.2,4.2,4.2,0,0,0,4.2,4.2h1.67a4.483,4.483,0,0,1,4.483,4.483Z" transform="translate(-116.294 -7.607)" fill="#d1660d"/>
        </g>
        <g id="Grupo_1101852" data-name="Grupo 1101852" transform="translate(58.993 44.321)">
          <path id="Trazado_880018" data-name="Trazado 880018" d="M327.2,215.821a18.9,18.9,0,1,1-18.9-18.9A18.9,18.9,0,0,1,327.2,215.821Z" transform="translate(-289.405 -196.925)" fill="#f78721"/>
        </g>
        <g id="Grupo_1101853" data-name="Grupo 1101853" transform="translate(64.974 50.303)">
          <path id="Trazado_880019" data-name="Trazado 880019" d="M340.79,235.391a12.917,12.917,0,1,1-12.916-12.916A12.916,12.916,0,0,1,340.79,235.391Z" transform="translate(-314.955 -222.475)" fill="#fdcf17"/>
        </g>
        <g id="Grupo_1101854" data-name="Grupo 1101854" transform="translate(66.79 52.128)">
          <path id="Trazado_880020" data-name="Trazado 880020" d="M346.732,241.36a12.921,12.921,0,0,1-24.02,6.617,12.928,12.928,0,0,0,17.725-17.7A12.891,12.891,0,0,1,346.732,241.36Z" transform="translate(-322.712 -230.273)" opacity="0.12"/>
        </g>
        <g id="Grupo_1101855" data-name="Grupo 1101855" transform="translate(73.414 57.111)">
          <path id="Trazado_880021" data-name="Trazado 880021" d="M356.286,263.775H352.24a1.237,1.237,0,0,1,0-2.475h4.046a1.2,1.2,0,0,0,0-2.4h-1.61a3.673,3.673,0,0,1,0-7.346h4.047a1.237,1.237,0,0,1,0,2.475h-4.047a1.2,1.2,0,0,0,0,2.4h1.61a3.674,3.674,0,0,1,0,7.348Z" transform="translate(-351.003 -251.556)" fill="#f78721"/>
        </g>
        <g id="Grupo_1101856" data-name="Grupo 1101856" transform="translate(76.654 66.856)">
          <path id="Trazado_880022" data-name="Trazado 880022" d="M366.082,297.681a1.237,1.237,0,0,1-1.237-1.237v-2.025a1.237,1.237,0,0,1,2.475,0v2.025A1.237,1.237,0,0,1,366.082,297.681Z" transform="translate(-364.845 -293.181)" fill="#f78721"/>
        </g>
        <g id="Grupo_1101857" data-name="Grupo 1101857" transform="translate(76.654 55.086)">
          <path id="Trazado_880023" data-name="Trazado 880023" d="M366.082,247.407a1.237,1.237,0,0,1-1.237-1.237v-2.025a1.237,1.237,0,1,1,2.475,0v2.025A1.237,1.237,0,0,1,366.082,247.407Z" transform="translate(-364.845 -242.907)" fill="#f78721"/>
        </g>
        <g id="Grupo_1101858" data-name="Grupo 1101858" transform="translate(57.42 109.932)">
          <path id="Trazado_880024" data-name="Trazado 880024" d="M327.612,480.366a3.186,3.186,0,0,1-3.186,3.186H285.873a3.186,3.186,0,0,1,0-6.371h38.554A3.186,3.186,0,0,1,327.612,480.366Z" transform="translate(-282.687 -477.18)" fill="#f78721"/>
        </g>
        <g id="Grupo_1101859" data-name="Grupo 1101859" transform="translate(53.439 103.561)">
          <path id="Trazado_880025" data-name="Trazado 880025" d="M310.605,453.152a3.186,3.186,0,0,1-3.186,3.186H268.866a3.186,3.186,0,1,1,0-6.371h38.554A3.186,3.186,0,0,1,310.605,453.152Z" transform="translate(-265.68 -449.966)" fill="#fdcf17"/>
        </g>
        <g id="Grupo_1101860" data-name="Grupo 1101860" transform="translate(57.42 97.19)">
          <path id="Trazado_880026" data-name="Trazado 880026" d="M327.612,425.938a3.186,3.186,0,0,1-3.186,3.186H285.873a3.186,3.186,0,1,1,0-6.371h38.554A3.185,3.185,0,0,1,327.612,425.938Z" transform="translate(-282.687 -422.752)" fill="#f78721"/>
        </g>
        <g id="Grupo_1101861" data-name="Grupo 1101861" transform="translate(53.439 90.819)">
          <path id="Trazado_880027" data-name="Trazado 880027" d="M310.605,398.724a3.186,3.186,0,0,1-3.186,3.186H268.866a3.186,3.186,0,1,1,0-6.371h38.554A3.186,3.186,0,0,1,310.605,398.724Z" transform="translate(-265.68 -395.538)" fill="#fdcf17"/>
        </g>
        <g id="Grupo_1101862" data-name="Grupo 1101862" transform="translate(57.42 84.448)">
          <path id="Trazado_880028" data-name="Trazado 880028" d="M327.612,371.51a3.186,3.186,0,0,1-3.186,3.186H285.873a3.186,3.186,0,1,1,0-6.371h38.554A3.185,3.185,0,0,1,327.612,371.51Z" transform="translate(-282.687 -368.324)" fill="#f78721"/>
        </g>
        <g id="Grupo_1101863" data-name="Grupo 1101863" transform="translate(53.439 78.076)">
          <path id="Trazado_880029" data-name="Trazado 880029" d="M310.605,344.3a3.186,3.186,0,0,1-3.186,3.186H268.866a3.186,3.186,0,0,1,0-6.371h38.554A3.186,3.186,0,0,1,310.605,344.3Z" transform="translate(-265.68 -341.11)" fill="#fdcf17"/>
        </g>
        <g id="Grupo_1101864" data-name="Grupo 1101864" transform="translate(91.571 109.932)">
          <path id="Trazado_880030" data-name="Trazado 880030" d="M439.336,480.363v.005a3.184,3.184,0,0,1-3.183,3.183h-7.591a3.189,3.189,0,0,0,3.188-3.183v-.005a3.189,3.189,0,0,0-3.188-3.183h7.591A3.184,3.184,0,0,1,439.336,480.363Z" transform="translate(-428.562 -477.18)" opacity="0.12"/>
        </g>
        <g id="Grupo_1101865" data-name="Grupo 1101865" transform="translate(87.591 103.561)">
          <path id="Trazado_880031" data-name="Trazado 880031" d="M422.335,453.149v.005a3.185,3.185,0,0,1-3.188,3.183h-7.586a3.184,3.184,0,0,0,3.183-3.183v-.005a3.184,3.184,0,0,0-3.183-3.183h7.586A3.185,3.185,0,0,1,422.335,453.149Z" transform="translate(-411.561 -449.966)" opacity="0.12"/>
        </g>
        <g id="Grupo_1101866" data-name="Grupo 1101866" transform="translate(91.571 97.19)">
          <path id="Trazado_880032" data-name="Trazado 880032" d="M439.336,425.935v.005a3.184,3.184,0,0,1-3.183,3.183h-7.591a3.189,3.189,0,0,0,3.188-3.183v-.005a3.189,3.189,0,0,0-3.188-3.183h7.591A3.184,3.184,0,0,1,439.336,425.935Z" transform="translate(-428.562 -422.752)" opacity="0.12"/>
        </g>
        <g id="Grupo_1101867" data-name="Grupo 1101867" transform="translate(87.591 90.819)">
          <path id="Trazado_880033" data-name="Trazado 880033" d="M422.335,398.721v.005a3.185,3.185,0,0,1-3.188,3.183h-7.586a3.184,3.184,0,0,0,3.183-3.183v-.005a3.184,3.184,0,0,0-3.183-3.183h7.586A3.185,3.185,0,0,1,422.335,398.721Z" transform="translate(-411.561 -395.538)" opacity="0.12"/>
        </g>
        <g id="Grupo_1101868" data-name="Grupo 1101868" transform="translate(91.571 84.447)">
          <path id="Trazado_880034" data-name="Trazado 880034" d="M439.336,371.506v.005a3.184,3.184,0,0,1-3.183,3.183h-7.591a3.189,3.189,0,0,0,3.188-3.183v-.005a3.189,3.189,0,0,0-3.188-3.183h7.591A3.184,3.184,0,0,1,439.336,371.506Z" transform="translate(-428.562 -368.323)" opacity="0.12"/>
        </g>
        <g id="Grupo_1101869" data-name="Grupo 1101869" transform="translate(87.591 78.076)">
          <path id="Trazado_880035" data-name="Trazado 880035" d="M422.335,344.292v.005a3.185,3.185,0,0,1-3.188,3.183h-7.586a3.184,3.184,0,0,0,3.183-3.183v-.005a3.184,3.184,0,0,0-3.183-3.183h7.586A3.186,3.186,0,0,1,422.335,344.292Z" transform="translate(-411.561 -341.109)" opacity="0.12"/>
        </g>
        <g id="Grupo_1101870" data-name="Grupo 1101870" transform="translate(16.165 25.053)">
          <path id="Trazado_880036" data-name="Trazado 880036" d="M120.416,128.569V114.621h0a13.948,13.948,0,1,0,13.952,13.948Z" transform="translate(-106.467 -114.621)" fill="#fdcf17"/>
        </g>
        <g id="Grupo_1101871" data-name="Grupo 1101871" transform="translate(20.243 38.847)">
          <path id="Trazado_880037" data-name="Trazado 880037" d="M147.7,173.543a13.956,13.956,0,0,1-23.819,9.868l9.869-9.868Z" transform="translate(-123.885 -173.543)" fill="#f14f4a"/>
        </g>
        <g id="Grupo_1101872" data-name="Grupo 1101872" transform="translate(30.114 25.053)">
          <path id="Trazado_880038" data-name="Trazado 880038" d="M180,128.57s0,0,0,0a13.95,13.95,0,0,0-13.948-13.945V128.57Z" transform="translate(-166.049 -114.622)" fill="#0e9c4a"/>
        </g>
        <g id="Grupo_1101873" data-name="Grupo 1101873" transform="translate(50.865 30.981)">
          <path id="Trazado_880039" data-name="Trazado 880039" d="M269.184,142.63a2.687,2.687,0,0,1-2.687,2.687h-9.123a2.687,2.687,0,1,1,0-5.373H266.5A2.687,2.687,0,0,1,269.184,142.63Z" transform="translate(-254.688 -139.943)" fill="#acbadf"/>
        </g>
        <g id="Grupo_1101874" data-name="Grupo 1101874" transform="translate(50.865 41.346)">
          <path id="Trazado_880040" data-name="Trazado 880040" d="M269.184,186.9a2.687,2.687,0,0,1-2.687,2.687h-9.123a2.687,2.687,0,1,1,0-5.373H266.5A2.687,2.687,0,0,1,269.184,186.9Z" transform="translate(-254.688 -184.217)" fill="#acbadf"/>
        </g>
        <g id="Grupo_1101875" data-name="Grupo 1101875" transform="translate(16.166 58.76)">
          <path id="Trazado_880041" data-name="Trazado 880041" d="M135.708,261.286a2.687,2.687,0,0,1-2.687,2.687H109.155a2.687,2.687,0,1,1,0-5.373h23.867A2.687,2.687,0,0,1,135.708,261.286Z" transform="translate(-106.468 -258.599)" fill="#acbadf"/>
        </g>
        <g id="Grupo_1101876" data-name="Grupo 1101876" transform="translate(16.166 70.094)">
          <path id="Trazado_880042" data-name="Trazado 880042" d="M135.708,309.7a2.687,2.687,0,0,1-2.687,2.687H109.155a2.687,2.687,0,1,1,0-5.373h23.867A2.687,2.687,0,0,1,135.708,309.7Z" transform="translate(-106.468 -307.015)" fill="#acbadf"/>
        </g>
        <g id="Grupo_1101877" data-name="Grupo 1101877" transform="translate(16.166 81.429)">
          <path id="Trazado_880043" data-name="Trazado 880043" d="M135.708,358.117a2.687,2.687,0,0,1-2.687,2.687H109.155a2.687,2.687,0,1,1,0-5.373h23.867A2.687,2.687,0,0,1,135.708,358.117Z" transform="translate(-106.468 -355.43)" fill="#acbadf"/>
        </g>
        <g id="Grupo_1101878" data-name="Grupo 1101878" transform="translate(16.166 92.764)">
          <path id="Trazado_880044" data-name="Trazado 880044" d="M124.446,406.533a2.687,2.687,0,0,1-2.687,2.687h-12.6a2.687,2.687,0,0,1,0-5.373h12.6A2.687,2.687,0,0,1,124.446,406.533Z" transform="translate(-106.468 -403.846)" fill="#acbadf"/>
        </g>
      </g>
    </g>
  </g>
</svg>
