<svg xmlns="http://www.w3.org/2000/svg" width="139.737" height="147.885" viewBox="0 0 139.737 147.885">
  <g id="Grupo_1101897" data-name="Grupo 1101897" transform="translate(-256.633 -17685.645)">
    <path id="_12068" data-name="12068" d="M103.949,72.366C89.64,70.39,74.525,70.874,61.5,77.128,43.447,85.8,31.588,105.464,31.133,125.491s9.978,39.705,26.1,51.6S94.6,193.2,114.312,189.632c19.875-3.6,38.53-15.279,48.9-32.614,6.648-11.116,9.755-24.842,6.082-37.264-2.217-7.5-6.75-14.14-12.082-19.858A89.263,89.263,0,0,0,103.949,72.366Z" transform="translate(225.514 17642.668)" fill="#26aab7"/>
    <g id="Brief" transform="translate(278.778 17683.674)">
      <path id="Trazado_879891" data-name="Trazado 879891" d="M.98,1.97H78.834V111.3H.98Z" transform="translate(0 0)" fill="#a0a9e1"/>
      <path id="Trazado_879892" data-name="Trazado 879892" d="M78.38,7.16V110.527H4.01V24.792L19.981,7.16Z" transform="translate(0.454 0.778)" fill="#7d86c8"/>
      <path id="Trazado_879893" data-name="Trazado 879893" d="M84.629,10.15V116.4H9.19V27.745L25.161,10.15Z" transform="translate(1.23 1.225)" fill="#bed6ff"/>
      <path id="Trazado_879894" data-name="Trazado 879894" d="M16.8,71.87a2.61,2.61,0,0,0-2.61,2.61V89.025a2.564,2.564,0,0,0,2.564,2.541h58.8a2.564,2.564,0,0,0,2.564-2.576V74.48a2.61,2.61,0,0,0-2.6-2.61Z" transform="translate(1.979 20.279)" fill="#dceaff"/>
      <path id="Trazado_879895" data-name="Trazado 879895" d="M75.968,20.449V17.724A2.564,2.564,0,0,0,73.4,15.16H30.62a2.07,2.07,0,0,0-2.07,2.116v3.231a2,2,0,0,0,2,2H73.979a1.989,1.989,0,0,0,1.989-2.058Z" transform="translate(4.13 1.976)" fill="#dceaff"/>
      <path id="Trazado_879896" data-name="Trazado 879896" d="M69.671,15.16H57.115a3.645,3.645,0,0,0,0,7.29H70.246a1.989,1.989,0,0,0,1.989-2V17.724A2.564,2.564,0,0,0,69.671,15.16Z" transform="translate(7.863 1.976)" fill="#fff"/>
      <path id="Trazado_879897" data-name="Trazado 879897" d="M78.118,39.243V27.09a1.84,1.84,0,0,0-1.84-1.84H32.585a1.851,1.851,0,0,0-1.851,1.84v1.518a1.541,1.541,0,0,1-1.541,1.541H16.27a2.07,2.07,0,0,0-2.07,2.058V71.093a3.024,3.024,0,0,0,3.024,3.024H75.105a3.012,3.012,0,0,0,3.012-3.024V47.763a2.1,2.1,0,0,0-2.059-2.1H45.314a2.156,2.156,0,1,1,0-4.312H76.06a2.1,2.1,0,0,0,2.058-2.1Z" transform="translate(1.98 8.094)" fill="#dceaff"/>
      <path id="Trazado_879898" data-name="Trazado 879898" d="M70.145,43H55.98a2.3,2.3,0,0,0-2.3,2.3V69.112a2.357,2.357,0,0,0,2.3,2.3H69.191A3.013,3.013,0,0,0,72.2,68.388V45.1A2.1,2.1,0,0,0,70.145,43Z" transform="translate(7.895 12.121)" fill="#fff"/>
      <path id="Trazado_879899" data-name="Trazado 879899" d="M51.774,41A19.271,19.271,0,1,0,71.022,60.225,19.271,19.271,0,0,0,51.774,41Zm0,36.242a17,17,0,1,0,0-.046Z" transform="translate(4.719 12.386)" fill="#bed6ff"/>
      <path id="Trazado_879900" data-name="Trazado 879900" d="M50.823,47.29A11.993,11.993,0,1,0,62.815,59.283,11.993,11.993,0,0,0,50.823,47.29Zm0,21.674a9.693,9.693,0,1,1,9.693-9.681,9.693,9.693,0,0,1-9.693,9.681Z" transform="translate(5.67 13.032)" fill="#bed6ff"/>
      <path id="Trazado_879901" data-name="Trazado 879901" d="M70.371,25.25H56.033a2.4,2.4,0,0,0-2.4,2.392V38.956a2.4,2.4,0,0,0,2.4,2.392h14.12a2.1,2.1,0,0,0,2.1-2.1V27.09a1.84,1.84,0,0,0-1.886-1.84Z" transform="translate(7.887 6.412)" fill="#fff"/>
      <path id="Trazado_879902" data-name="Trazado 879902" d="M53.137,59.528H24.53a1.15,1.15,0,0,1-1.15-1.15V29.76a1.15,1.15,0,0,1,1.15-1.15H53.137a1.15,1.15,0,0,1,1.15,1.15V58.379A1.15,1.15,0,0,1,53.137,59.528Zm-27.457-2.3H51.987V30.91H25.68Z" transform="translate(3.356 8)" fill="#ffb942"/>
      <path id="Trazado_879903" data-name="Trazado 879903" d="M51.774,37.74A19.271,19.271,0,1,0,71.022,57.011,19.271,19.271,0,0,0,51.774,37.74Zm0,36.242A16.971,16.971,0,1,1,68.722,57.011,16.971,16.971,0,0,1,51.774,73.982Z" transform="translate(4.719 11.351)" fill="#ff2c63"/>
      <path id="Trazado_879904" data-name="Trazado 879904" d="M50.823,44.07A11.993,11.993,0,1,0,62.815,56.063,11.993,11.993,0,0,0,50.823,44.07Zm0,21.674a9.693,9.693,0,1,1,9.693-9.681A9.693,9.693,0,0,1,50.823,65.744Z" transform="translate(5.67 12.106)" fill="#ff2c63"/>
      <path id="Trazado_879905" data-name="Trazado 879905" d="M25.161,10.15V26.121H9.19Z" transform="translate(1.23 1.225)" fill="#a0a9e1"/>
      <g id="Grupo_1101724" data-name="Grupo 1101724" transform="translate(20.55 90.735)">
        <path id="Trazado_879906" data-name="Trazado 879906" d="M32.879,72.94H19.15a1.15,1.15,0,0,1,0-2.3h13.8a1.15,1.15,0,1,1,0,2.3Z" transform="translate(-18 -70.64)" fill="#484f79"/>
        <path id="Trazado_879907" data-name="Trazado 879907" d="M32.879,78.38H19.15a1.15,1.15,0,0,1,0-2.3h13.8a1.15,1.15,0,0,1,0,2.3Z" transform="translate(-18 -69.825)" fill="#484f79"/>
        <path id="Trazado_879908" data-name="Trazado 879908" d="M24.45,83.82h-5.3a1.15,1.15,0,1,1,0-2.3h5.324a1.15,1.15,0,1,1,0,2.3Z" transform="translate(-18 -69.01)" fill="#484f79"/>
        <path id="Trazado_879909" data-name="Trazado 879909" d="M67.49,78.44H61.35a1.15,1.15,0,0,1,0-2.3h6.14a1.15,1.15,0,1,1,0,2.3Z" transform="translate(-11.678 -69.816)" fill="#484f79"/>
        <path id="Trazado_879910" data-name="Trazado 879910" d="M67.49,73.85H61.35a1.15,1.15,0,0,1,0-2.3h6.14a1.15,1.15,0,1,1,0,2.3Z" transform="translate(-11.678 -70.504)" fill="#484f79"/>
      </g>
      <path id="Trazado_879911" data-name="Trazado 879911" d="M97.005,34.9V81.812L89.348,93.08,81.69,81.812V34.9Z" transform="translate(12.091 14.741)" fill="#ffdc93"/>
      <path id="Trazado_879912" data-name="Trazado 879912" d="M83.87,34.9H94.184v1.851H83.87Z" transform="translate(12.418 8.504)" fill="#fffaac"/>
      <path id="Trazado_879913" data-name="Trazado 879913" d="M93.7,76.469,89,82.517l-5-6.45,1.587-1.276a1.4,1.4,0,0,1,1.748,0l3.15,2.587a1.713,1.713,0,0,0,2.15,0Z" transform="translate(12.437 20.671)" fill="#fffaac"/>
      <path id="Trazado_879914" data-name="Trazado 879914" d="M96.994,34.9V77.144c-3.449,2.783-3.346,2.691-5.117,4.093l-5.105-4.093L81.69,81.237V34.9Z" transform="translate(12.091 11.173)" fill="#ffa042"/>
      <path id="Trazado_879915" data-name="Trazado 879915" d="M94.184,38V74.564l-2.61,2.093c-2.173-1.748-2.9-2.3-5.105-4.1l-2.6,2.093V38Z" transform="translate(12.418 11.444)" fill="#ffb942"/>
      <path id="Trazado_879916" data-name="Trazado 879916" d="M83.87,78.91l5.151,7.577,5.163-7.577Z" transform="translate(12.418 21.334)" fill="#2f3142"/>
      <path id="Trazado_879917" data-name="Trazado 879917" d="M81.7,30.05H97.015v5.577H81.7Z" transform="translate(12.093 7.364)" fill="#b9c7eb"/>
      <path id="Trazado_879918" data-name="Trazado 879918" d="M96.992,25.183v5.979H81.7V25.183a2.541,2.541,0,0,1,2.541-2.553H94.463a2.541,2.541,0,0,1,2.53,2.553Z" transform="translate(12.093 5.489)" fill="#d21863"/>
      <path id="Trazado_879919" data-name="Trazado 879919" d="M94.188,25.357v5.749H83.84V25.357a2.737,2.737,0,0,1,2.725-2.737h4.852a2.748,2.748,0,0,1,2.771,2.737Z" transform="translate(12.413 5.485)" fill="#ff2c63"/>
      <rect id="Rect치ngulo_401614" data-name="Rect치ngulo 401614" width="5.094" height="2.771" rx="0.84" transform="translate(98.898 32.216)" fill="#fff"/>
      <path id="Trazado_879920" data-name="Trazado 879920" d="M94.184,30.05v2.978a.655.655,0,0,1-.655.655h-9a.644.644,0,0,1-.655-.655V30.05Z" transform="translate(12.418 7.304)" fill="#cdeaeb"/>
      <path id="Trazado_879921" data-name="Trazado 879921" d="M87.118,34.9V77.834l-.874-.69-.874.69V34.9Z" transform="translate(12.642 10.835)" fill="#ff6e42"/>
      <path id="Trazado_879922" data-name="Trazado 879922" d="M91.556,34.9V80.547l-.874.69-.862-.69V34.9Z" transform="translate(13.309 11.173)" fill="#ff6e42"/>
      <path id="Trazado_879923" data-name="Trazado 879923" d="M87.118,38V73.253l-.874-.7-.874.7V38Z" transform="translate(12.642 11.153)" fill="#ff9642"/>
      <path id="Trazado_879924" data-name="Trazado 879924" d="M91.556,38V75.955l-.874.69-.862-.69V38Z" transform="translate(13.309 11.443)" fill="#ff9642"/>
      <rect id="Rect치ngulo_401615" data-name="Rect치ngulo 401615" width="3.863" height="1.253" rx="0.4" transform="translate(99.507 38.403)" fill="#b9c7eb"/>
    </g>
  </g>
</svg>
