<svg xmlns="http://www.w3.org/2000/svg" width="129.737" height="122.744" viewBox="0 0 129.737 122.744">
  <g id="Grupo_1101900" data-name="Grupo 1101900" transform="translate(-1052.264 -25949.064)">
    <path id="_12068" data-name="12068" d="M98.737,72.292c-13.285-1.834-27.318-1.386-39.407,4.421-16.765,8.052-27.775,26.309-28.2,44.9S40.4,158.479,55.36,169.523s34.7,14.959,53,11.643c18.453-3.344,35.773-14.186,45.4-30.28,6.172-10.321,9.057-23.065,5.647-34.6-2.059-6.961-6.267-13.128-11.217-18.437A82.875,82.875,0,0,0,98.737,72.292Z" transform="translate(1021.145 25889.5)" fill="#26aab7"/>
    <g id="estrategia-2" transform="translate(1066.264 25949.064)">
      <g id="Grupo_1100469" data-name="Grupo 1100469" transform="translate(1.755 1.755)">
        <g id="Grupo_1100451" data-name="Grupo 1100451" transform="translate(45.631 50.896)">
          <path id="Trazado_877851" data-name="Trazado 877851" d="M231.8,280.365H230.04a3.509,3.509,0,0,0-3.51,3.51v-10.53h7.02v-10.53a15.8,15.8,0,0,0-15.8-15.8H216l7.02-7.02,15.249,3.267a18.436,18.436,0,0,1,13.077,10.76l11.215,26.17a10.193,10.193,0,0,1-9.367,14.209H231.8a5.266,5.266,0,0,0,5.265-5.265v-3.51A5.266,5.266,0,0,0,231.8,280.365Zm19.305,0L240.57,261.06v19.305Z" transform="translate(-216 -240)" fill="#b4dd7f"/>
        </g>
        <g id="Grupo_1100452" data-name="Grupo 1100452" transform="translate(10.53 50.896)">
          <path id="Trazado_877852" data-name="Trazado 877852" d="M91.1,247.02H85.767a8.309,8.309,0,0,0-7.786,11.208l.634,1-5.065,7.092.7,2.093a4.639,4.639,0,0,0,7.68,1.814l2.152-2.152h2.4a4.662,4.662,0,0,0,1.082-.127l.031.127v7.02a6.346,6.346,0,0,0-3.51,5.68v6.605a3.509,3.509,0,0,0-3.51,3.51v3.51H56a7.018,7.018,0,0,0,7.02-7.02v-7.321a5.266,5.266,0,0,0,0-9.929V245.6a18.417,18.417,0,0,1,5.811-2.334L84.08,240Z" transform="translate(-56 -240)" fill="#b4dd7f"/>
        </g>
        <g id="Grupo_1100453" data-name="Grupo 1100453" transform="translate(43.876 57.916)">
          <path id="Trazado_877853" data-name="Trazado 877853" d="M209.755,272h1.755a15.8,15.8,0,0,1,15.8,15.8v10.53h-7.02v-9.468a11.825,11.825,0,0,0-5.265-9.837l-.478-1.913A6.742,6.742,0,0,0,208,272Z" transform="translate(-208 -272)" fill="#b27946"/>
        </g>
        <g id="Grupo_1100454" data-name="Grupo 1100454" transform="translate(31.99 57.916)">
          <path id="Trazado_877854" data-name="Trazado 877854" d="M165.706,272l-1.755,7.02h-1.426a7.457,7.457,0,0,0-6.07,3.124l-1.479,2.069-.634-1A8.308,8.308,0,0,1,162.128,272Z" transform="translate(-153.82 -272)" fill="#b27946"/>
        </g>
        <g id="Grupo_1100455" data-name="Grupo 1100455" transform="translate(35.1 98.281)">
          <path id="Trazado_877855" data-name="Trazado 877855" d="M192.57,463.02H168v-3.51a3.509,3.509,0,0,1,3.51-3.51h17.55v3.51A3.509,3.509,0,0,0,192.57,463.02Z" transform="translate(-168 -456)" fill="#d3a06c"/>
        </g>
        <g id="Grupo_1100456" data-name="Grupo 1100456" transform="translate(28.08 57.916)">
          <path id="Trazado_877856" data-name="Trazado 877856" d="M150.009,292.933a4.662,4.662,0,0,1-1.082.127h-2.4l-2.152,2.152a4.639,4.639,0,0,1-7.68-1.814l-.7-2.093,5.065-7.092,1.479-2.069a7.457,7.457,0,0,1,6.07-3.124h1.426L151.8,272a6.742,6.742,0,0,1,6.542,5.107l.478,1.913a11.825,11.825,0,0,1,5.265,9.837v23.509H146.53V305.76a6.346,6.346,0,0,1,3.51-5.68v-7.02Z" transform="translate(-136 -272)" fill="#cf9e76"/>
        </g>
        <g id="Grupo_1100457" data-name="Grupo 1100457" transform="translate(3.51 38.61)">
          <path id="Trazado_877857" data-name="Trazado 877857" d="M33.392,185.643l4.649,12.4H24l4.649-12.4a2.533,2.533,0,0,1,4.743,0Z" transform="translate(-24 -184)" fill="#ccd1d9"/>
        </g>
        <g id="Grupo_1100458" data-name="Grupo 1100458" transform="translate(3.51 87.751)">
          <path id="Trazado_877858" data-name="Trazado 877858" d="M38.04,411.21v7.321a7.02,7.02,0,0,1-14.04,0V414.72a5.229,5.229,0,0,0,1.755.3H27.51a3.509,3.509,0,0,0,3.51-3.51V408a3.509,3.509,0,0,0,3.51,3.51h1.755A5.229,5.229,0,0,0,38.04,411.21Z" transform="translate(-24 -408)" fill="#ccd1d9"/>
        </g>
        <g id="Grupo_1100459" data-name="Grupo 1100459" transform="translate(10.53 52.651)">
          <path id="Trazado_877859" data-name="Trazado 877859" d="M63.02,251.846v24.535a5.229,5.229,0,0,0-1.755-.3H59.51A3.509,3.509,0,0,0,56,279.59V248h7.02Z" transform="translate(-56 -248)" fill="#fcd770"/>
        </g>
        <g id="Grupo_1100460" data-name="Grupo 1100460" transform="translate(3.51 52.651)">
          <path id="Trazado_877860" data-name="Trazado 877860" d="M31.02,248v31.59a3.509,3.509,0,0,0-3.51-3.51H25.755a5.23,5.23,0,0,0-1.755.3V248Z" transform="translate(-24 -248)" fill="#ff826e"/>
        </g>
        <g id="Grupo_1100461" data-name="Grupo 1100461" transform="translate(82.486 12.285)">
          <path id="Trazado_877861" data-name="Trazado 877861" d="M405.06,64H387.51L384,74.53l3.51,10.53h17.55l-3.51-10.53Z" transform="translate(-384 -64)" fill="#cf9e76"/>
        </g>
        <g id="Grupo_1100462" data-name="Grupo 1100462" transform="translate(56.161 91.261)">
          <path id="Trazado_877862" data-name="Trazado 877862" d="M274.53,429.265v3.51a5.266,5.266,0,0,1-5.265,5.265H267.51a3.509,3.509,0,0,1-3.51-3.51v-7.02a3.509,3.509,0,0,1,3.51-3.51h1.755A5.266,5.266,0,0,1,274.53,429.265Z" transform="translate(-264 -424)" fill="#f0d0b4"/>
        </g>
        <g id="Grupo_1100463" data-name="Grupo 1100463" transform="translate(10.53 80.731)">
          <path id="Trazado_877863" data-name="Trazado 877863" d="M63.02,376.3a5.265,5.265,0,0,1-1.755,10.23H59.51A3.509,3.509,0,0,1,56,383.02v-3.51A3.509,3.509,0,0,1,59.51,376h1.755A5.229,5.229,0,0,1,63.02,376.3Z" transform="translate(-56 -376)" fill="#f0d0b4"/>
        </g>
        <g id="Grupo_1100464" data-name="Grupo 1100464" transform="translate(0 80.731)">
          <path id="Trazado_877864" data-name="Trazado 877864" d="M18.53,383.02v3.51a3.509,3.509,0,0,1-3.51,3.51H13.265A5.263,5.263,0,0,1,8,384.775v-3.51A5.263,5.263,0,0,1,13.265,376H15.02a3.509,3.509,0,0,1,3.51,3.51v3.51Z" transform="translate(-8 -376)" fill="#f0d0b4"/>
        </g>
        <g id="Grupo_1100465" data-name="Grupo 1100465" transform="translate(38.61 44.529)">
          <path id="Trazado_877865" data-name="Trazado 877865" d="M198.04,211.028v6.318l-7.02,7.02-7.02-7.02V210.98a22.92,22.92,0,0,0,14.025,0Z" transform="translate(-184 -210.98)" fill="#f0d0b4"/>
        </g>
        <g id="Grupo_1100466" data-name="Grupo 1100466" transform="translate(22.815)">
          <path id="Trazado_877866" data-name="Trazado 877866" d="M157.631,30.815A22.815,22.815,0,1,1,134.815,8a22.821,22.821,0,0,1,22.815,22.815Z" transform="translate(-112 -8)" fill="#e6e9ed"/>
        </g>
        <g id="Grupo_1100467" data-name="Grupo 1100467" transform="translate(33.345 10.53)">
          <path id="Trazado_877867" data-name="Trazado 877867" d="M184.57,68.285A12.285,12.285,0,1,1,172.285,56,12.285,12.285,0,0,1,184.57,68.285Z" transform="translate(-160 -56)" fill="#ff826e"/>
        </g>
        <g id="Grupo_1100468" data-name="Grupo 1100468" transform="translate(40.481 17.37)">
          <circle id="Elipse_11875" data-name="Elipse 11875" cx="5.18" cy="5.18" r="5.18" transform="translate(0 0)" fill="#fc6e51"/>
        </g>
      </g>
      <g id="Grupo_1100470" data-name="Grupo 1100470" transform="translate(0)">
        <path id="Trazado_877868" data-name="Trazado 877868" d="M71.892,26.325H82.976l3.51,10.53h21.25l-4.1-12.285,4.1-12.285H86.486l-3.51,10.53H71.892a24.57,24.57,0,1,0-33.282,24.7v3.713L24.749,54.2a20.148,20.148,0,0,0-3.689,1.174V54.087L16.3,41.393a4.287,4.287,0,0,0-8.029,0L3.51,54.087V81.675A7.023,7.023,0,0,0,0,87.751v3.51a7.023,7.023,0,0,0,3.51,6.076v2.7a8.785,8.785,0,0,0,8.775,8.775H84.578A11.948,11.948,0,0,0,95.56,92.157L84.344,65.987A20.212,20.212,0,0,0,70.022,54.2l-13.862-2.97V47.519A24.624,24.624,0,0,0,71.892,26.325Zm17.124,7.02-2.34-7.02h13.85l2.34,7.02Zm0-17.55h13.85l-2.34,7.02H86.676ZM26.325,24.57a21.06,21.06,0,0,1,42.047-1.755h-7.06a14.04,14.04,0,1,0,0,3.51h7.06A21.06,21.06,0,0,1,26.325,24.57Zm27.858-1.755a7.02,7.02,0,1,0,0,3.51h3.583a10.53,10.53,0,1,1,0-3.51ZM50.9,24.57a3.51,3.51,0,1,1-3.51-3.51A3.514,3.514,0,0,1,50.9,24.57ZM25.484,57.634,39.8,54.567l3.349,3.349h-1.1a10.063,10.063,0,0,0-9.43,13.577l.064.171.1.161-4.9,6.859.98,2.941a6.394,6.394,0,0,0,10.587,2.5l1.637-1.637h1.029v4.266a8.053,8.053,0,0,0-3.51,6.679v5.153a5.274,5.274,0,0,0-3.51,4.963V105.3H19.3a8.73,8.73,0,0,0,1.76-5.265V93.827a7.013,7.013,0,0,0,0-12.151V59.267a16.618,16.618,0,0,1,4.424-1.633ZM44.66,89.321l.97-.485V81.81a6.368,6.368,0,0,0,2.852-2.859l.473-.946-3.14-1.569-.473.946a2.868,2.868,0,0,1-2.58,1.594H39.638l-2.665,2.665A2.884,2.884,0,0,1,32.2,80.514l-.415-1.245,6.025-8.434a5.715,5.715,0,0,1,4.642-2.389h2.8l1.71-6.842a4.981,4.981,0,0,1,3.514,3.6l.643,2.57.564.376a10.049,10.049,0,0,1,4.483,8.378V98.281H42.121V93.43a4.57,4.57,0,0,1,2.54-4.11ZM37.418,63.345a6.509,6.509,0,0,1,4.633-1.919h1.331l-.878,3.51h-.056A9.232,9.232,0,0,0,35.5,68.1,6.568,6.568,0,0,1,37.418,63.345Zm2.947,38.446h15.8v1.755a5.24,5.24,0,0,0,.3,1.755H38.61v-1.755A1.757,1.757,0,0,1,40.365,101.791Zm19.305-21.06h3.51v3.51h-3.51Zm0-3.51v-.692a13.643,13.643,0,0,0-.22-2.434l3.524-1.007a14.073,14.073,0,0,1,.206,2.378v1.755Zm-1.293-6.47a13.527,13.527,0,0,0-1.423-2.372l2.464-2.464a14.084,14.084,0,0,1,2.532,3.815ZM54.5,65.872c-.1-.08-.2-.162-.3-.239l-.32-1.28a8.509,8.509,0,0,0-1.027-2.427,13.977,13.977,0,0,1,3.867,1.728ZM15.8,80.731a5.24,5.24,0,0,0-1.755.3V56.161h3.51v24.57ZM14.04,86A1.757,1.757,0,0,1,15.8,84.241H17.55a3.51,3.51,0,1,1,0,7.02H15.8a1.757,1.757,0,0,1-1.755-1.755ZM11.557,42.625a.777.777,0,0,1,1.456,0l3.76,10.026H7.8ZM7.02,56.161h3.51V81.033a5.24,5.24,0,0,0-1.755-.3H7.02ZM3.51,87.751a3.514,3.514,0,0,1,3.51-3.51H8.775A1.757,1.757,0,0,1,10.53,86v7.02a1.757,1.757,0,0,1-1.755,1.755H7.02a3.514,3.514,0,0,1-3.51-3.51Zm3.51,12.285V98.281H8.775A5.274,5.274,0,0,0,13.855,94.4a5.233,5.233,0,0,0,1.941.372H17.55v5.265a5.265,5.265,0,1,1-10.53,0ZM61.426,105.3a1.757,1.757,0,0,1-1.755-1.755v-7.02a1.757,1.757,0,0,1,1.755-1.755h1.755a3.514,3.514,0,0,1,3.51,3.51v3.51a3.514,3.514,0,0,1-3.51,3.51Zm7.861-47.667a16.7,16.7,0,0,1,11.831,9.735l11.216,26.17A8.438,8.438,0,0,1,84.578,105.3H69.256a6.975,6.975,0,0,0,.944-3.51v-3.51a6.975,6.975,0,0,0-.944-3.51h12.29l2.989,4.484,2.921-1.947-3.466-5.2L73.711,73.263V68.446H70.2V91.261H61.426a5.241,5.241,0,0,0-1.755.3V87.751h7.02V75.466A17.573,17.573,0,0,0,51.464,58.074l3.507-3.507Zm4.424,22.959,5.819,10.667H73.711Zm-21.06-28.67-5.265,5.265-5.265-5.265V48.571a24.613,24.613,0,0,0,10.53,0Z" transform="translate(0)"/>
        <path id="Trazado_877869" data-name="Trazado 877869" d="M35.51,122.53h3.51v-3.51h3.51v-3.51H39.02V112H35.51v3.51H32v3.51h3.51Z" transform="translate(-24.98 -87.43)"/>
        <path id="Trazado_877870" data-name="Trazado 877870" d="M35.51,58.53h3.51V55.02h3.51V51.51H39.02V48H35.51v3.51H32v3.51h3.51Z" transform="translate(-24.98 -37.47)"/>
      </g>
    </g>
  </g>
</svg>
