<svg xmlns="http://www.w3.org/2000/svg" width="151.991" height="148.529" viewBox="0 0 151.991 148.529">
  <g id="Grupo_1101896" data-name="Grupo 1101896" transform="translate(-409 -18052)">
    <g id="Grupo_1101716" data-name="Grupo 1101716" transform="translate(409 18075.697)">
      <path id="_12068" data-name="12068" d="M103.949,72.366C89.64,70.39,74.525,70.874,61.5,77.128,43.447,85.8,31.588,105.464,31.133,125.491s9.978,39.705,26.1,51.6S94.6,193.2,114.312,189.632c19.875-3.6,38.53-15.279,48.9-32.614,6.648-11.116,9.755-24.842,6.082-37.264-2.217-7.5-6.75-14.14-12.082-19.858A89.263,89.263,0,0,0,103.949,72.366Z" transform="translate(-24.992 -66.03)" fill="#7d6eb2"/>
      <g id="Grupo_1099026" data-name="Grupo 1099026" transform="translate(0 111.446) rotate(-90)">
        <path id="Trazado_873104" data-name="Trazado 873104" d="M.647,2.832A1.64,1.64,0,0,0,2.79,2.59,1.64,1.64,0,0,0,2.7.434,1.641,1.641,0,0,0,.541.376,1.573,1.573,0,0,0,.647,2.832Z" transform="translate(21.424 128.541)" fill="#fff"/>
        <path id="Trazado_873105" data-name="Trazado 873105" d="M.646,2.832A1.64,1.64,0,0,0,2.791,2.59,1.641,1.641,0,0,0,2.7.434,1.641,1.641,0,0,0,.541.376,1.573,1.573,0,0,0,.646,2.832Z" transform="translate(52.72 135.267)" fill="#ffd947"/>
        <path id="Trazado_873106" data-name="Trazado 873106" d="M.647,2.832A1.639,1.639,0,0,0,2.79,2.59,1.641,1.641,0,0,0,2.7.434,1.641,1.641,0,0,0,.541.376,1.573,1.573,0,0,0,.647,2.832Z" transform="translate(108.296 0)" fill="#7d6eb2"/>
        <path id="Trazado_873109" data-name="Trazado 873109" d="M2.129,6.609a3.577,3.577,0,0,0,4.43-1.75A3.579,3.579,0,0,0,5.014.353,3.578,3.578,0,0,0,.442,1.692,3.468,3.468,0,0,0,2.129,6.609Z" transform="translate(89.699 129.99)" fill="#26aab7"/>
        <path id="Trazado_873110" data-name="Trazado 873110" d="M2.13,6.609a3.577,3.577,0,0,0,4.43-1.75A3.578,3.578,0,0,0,5.014.354,3.577,3.577,0,0,0,.443,1.691,3.468,3.468,0,0,0,2.13,6.609Z" transform="translate(65.295 145.152)" fill="#7d6eb2"/>
        <path id="Trazado_873111" data-name="Trazado 873111" d="M2.13,6.609a3.576,3.576,0,0,0,4.43-1.75A3.577,3.577,0,0,0,5.014.354,3.576,3.576,0,0,0,.443,1.691,3.468,3.468,0,0,0,2.13,6.609Z" transform="translate(0 40.87)" fill="#7d6eb2"/>
        <path id="Trazado_873113" data-name="Trazado 873113" d="M2.129,6.609a3.578,3.578,0,0,0,4.43-1.75A3.579,3.579,0,0,0,5.015.353,3.578,3.578,0,0,0,.442,1.692,3.468,3.468,0,0,0,2.129,6.609Z" transform="translate(101.449 8.605)" fill="#ffd947"/>
        <circle id="Elipse_11485" data-name="Elipse 11485" cx="1.689" cy="1.689" r="1.689" transform="translate(7.75 136.702)" fill="none" stroke="#26aab7" stroke-linecap="round" stroke-linejoin="round" stroke-width="1.5"/>
      </g>
    </g>
    <g id="_12-Shopping_promotion" data-name="12-Shopping promotion" transform="translate(429.504 18049)">
      <rect id="Rectángulo_401616" data-name="Rectángulo 401616" width="64.011" height="116.134" rx="2" transform="translate(3 3)" fill="#ffe0b2"/>
      <path id="Trazado_879996" data-name="Trazado 879996" d="M7.01,3H63.157a4.01,4.01,0,0,1,4.01,4.01V17.037H3V7.01A4.01,4.01,0,0,1,7.01,3Z" transform="translate(0 0)" fill="#434343"/>
      <path id="Trazado_879997" data-name="Trazado 879997" d="M4.01,0H60.157a4.01,4.01,0,0,1,4.01,4.01V16.042H0V4.01A4.01,4.01,0,0,1,4.01,0Z" transform="translate(67.167 119.303) rotate(180)" fill="#434343"/>
      <g id="Grupo_1101846" data-name="Grupo 1101846" transform="translate(11.021 57.141)">
        <path id="Trazado_879998" data-name="Trazado 879998" d="M45.094,34.01H11.005a2.005,2.005,0,0,1,0-4.01H45.094a2.005,2.005,0,0,1,0,4.01Z" transform="translate(-4.99 -30)" fill="#fafbfb"/>
        <path id="Trazado_879999" data-name="Trazado 879999" d="M47.1,39.01H9.005a2.005,2.005,0,0,1,0-4.01H47.1a2.005,2.005,0,1,1,0,4.01Z" transform="translate(-7 -24.974)" fill="#fafbfb"/>
        <path id="Trazado_880000" data-name="Trazado 880000" d="M47.1,44.01H9.005a2.005,2.005,0,0,1,0-4.01H47.1a2.005,2.005,0,1,1,0,4.01Z" transform="translate(-7 -19.948)" fill="#fafbfb"/>
        <path id="Trazado_880001" data-name="Trazado 880001" d="M47.1,49.01H9.005a2.005,2.005,0,0,1,0-4.01H47.1a2.005,2.005,0,1,1,0,4.01Z" transform="translate(-7 -14.922)" fill="#fafbfb"/>
      </g>
      <path id="Trazado_880002" data-name="Trazado 880002" d="M26.026,60.01H18.005a2.005,2.005,0,1,1,0-4.01h8.021a2.005,2.005,0,0,1,0,4.01Z" transform="translate(13.068 53.277)" fill="#faa629"/>
      <path id="Trazado_880003" data-name="Trazado 880003" d="M32,25H84.136V71.12H32Z" transform="translate(29.151 22.115)" fill="#57c1ef"/>
      <path id="Trazado_880004" data-name="Trazado 880004" d="M48.016,45.073A6.016,6.016,0,0,1,42,39.057V31.037L44.005,17h8.021l2.005,14.037v8.021A6.016,6.016,0,0,1,48.016,45.073Z" transform="translate(39.204 14.073)" fill="#faa629"/>
      <path id="Trazado_880005" data-name="Trazado 880005" d="M42.016,45.073A6.016,6.016,0,0,1,36,39.057V31.037L42.016,17h8.021L48.031,31.037v8.021A6.016,6.016,0,0,1,42.016,45.073Z" transform="translate(33.172 14.073)" fill="#ef5451"/>
      <path id="Trazado_880006" data-name="Trazado 880006" d="M36.016,45.073A6.016,6.016,0,0,1,30,39.057V31.037L40.026,17h8.021L42.031,31.037v8.021A6.016,6.016,0,0,1,36.016,45.073Z" transform="translate(27.141 14.073)" fill="#faa629"/>
      <path id="Trazado_880007" data-name="Trazado 880007" d="M55.021,45.073a6.016,6.016,0,0,1-6.016-6.016V31.037L47,17h8.021l6.016,14.037v8.021A6.016,6.016,0,0,1,55.021,45.073Z" transform="translate(44.23 14.073)" fill="#ef5451"/>
      <path id="Trazado_880008" data-name="Trazado 880008" d="M63.031,45.073a6.016,6.016,0,0,1-6.016-6.016V31.037L51,17h8.021L69.047,31.037v8.021A6.016,6.016,0,0,1,63.031,45.073Z" transform="translate(48.251 14.073)" fill="#faa629"/>
      <path id="Trazado_880009" data-name="Trazado 880009" d="M48.016,38a6.016,6.016,0,0,1,6.016,6.016V58.052H42V44.016A6.016,6.016,0,0,1,48.016,38Z" transform="translate(39.204 35.183)" fill="#faa629"/>
      <path id="Trazado_880010" data-name="Trazado 880010" d="M18.016,25.031a6.016,6.016,0,1,1,6.016-6.016A6.016,6.016,0,0,1,18.016,25.031Zm0-8.021a2.005,2.005,0,1,0,2.005,2.005A2.005,2.005,0,0,0,18.016,17.01Z" transform="translate(9.047 10.052)" fill="#fafbfb"/>
      <path id="Trazado_880011" data-name="Trazado 880011" d="M25.016,34.031a6.016,6.016,0,1,1,6.016-6.016A6.016,6.016,0,0,1,25.016,34.031Zm0-8.021a2.005,2.005,0,1,0,2.005,2.005A2.005,2.005,0,0,0,25.016,26.01Z" transform="translate(16.084 19.099)" fill="#fafbfb"/>
      <path id="Trazado_880012" data-name="Trazado 880012" d="M14.011,40.072a2.005,2.005,0,0,1-1.424-3.429L34.645,14.586a2.013,2.013,0,0,1,2.847,2.847L15.435,39.49a2.005,2.005,0,0,1-1.424.582Z" transform="translate(9.041 11.053)" fill="#fafbfb"/>
    </g>
  </g>
</svg>
