<svg xmlns="http://www.w3.org/2000/svg" width="129.737" height="122.746" viewBox="0 0 129.737 122.746">
  <g id="Grupo_1101906" data-name="Grupo 1101906" transform="translate(-1052.264 -26836.152)">
    <path id="_12068" data-name="12068" d="M98.737,72.292c-13.285-1.834-27.318-1.386-39.407,4.421-16.765,8.052-27.775,26.309-28.2,44.9S40.4,158.479,55.36,169.523s34.7,14.959,53,11.643c18.453-3.344,35.773-14.186,45.4-30.28,6.172-10.321,9.057-23.065,5.647-34.6-2.059-6.961-6.267-13.128-11.217-18.437A82.875,82.875,0,0,0,98.737,72.292Z" transform="translate(1021.145 26776.59)" fill="#26aab7"/>
    <g id="medios-de-comunicacion-en-masa" transform="translate(1062.164 26836.152)">
      <path id="Trazado_877976" data-name="Trazado 877976" d="M55.639,15.329A7.329,7.329,0,0,0,48.31,8H15.329A7.329,7.329,0,0,0,8,15.329V31.82H55.639ZM22.658,24.49l9.161-9.161Zm12.826,0,9.161-9.161Z" transform="translate(-6.168 -6.168)" fill="#4bdddd"/>
      <path id="Trazado_877977" data-name="Trazado 877977" d="M15.329,121.161H48.31a7.329,7.329,0,0,0,7.329-7.329V112H8v1.832A7.329,7.329,0,0,0,15.329,121.161Z" transform="translate(-6.168 -86.348)" fill="#406af2"/>
      <path id="Trazado_877978" data-name="Trazado 877978" d="M80,161.161H94.658L90.994,152H83.665Z" transform="translate(-61.677 -117.187)" fill="#385ed6"/>
      <path id="Trazado_877979" data-name="Trazado 877979" d="M360,65.652h25.652V40H360ZM380.155,45.5v0Zm0,7.329v0Z" transform="translate(-277.548 -30.839)" fill="#4bdddd"/>
      <g id="Grupo_1100543" data-name="Grupo 1100543" transform="translate(82.452 1.832)">
        <path id="Trazado_877980" data-name="Trazado 877980" d="M360,155.665a3.664,3.664,0,0,0,3.665,3.665h18.323a3.664,3.664,0,0,0,3.665-3.665V152H360Z" transform="translate(-360 -119.019)" fill="#406af2"/>
        <path id="Trazado_877981" data-name="Trazado 877981" d="M381.987,8H363.665A3.664,3.664,0,0,0,360,11.665v3.665h25.652V11.665A3.664,3.664,0,0,0,381.987,8Z" transform="translate(-360 -8)" fill="#406af2"/>
      </g>
      <path id="Trazado_877982" data-name="Trazado 877982" d="M11.665,360.981h40.31a3.664,3.664,0,0,0,3.665-3.665V331.665A3.664,3.664,0,0,0,51.975,328H11.665A3.664,3.664,0,0,0,8,331.665v25.652A3.664,3.664,0,0,0,11.665,360.981Zm38.478-25.652h0Zm0,10.994h0Zm0,7.329h0ZM15.329,335.329h23.82v18.323H15.329Z" transform="translate(-6.168 -252.877)" fill="#ffc931"/>
      <rect id="Rectángulo_401446" data-name="Rectángulo 401446" width="23.667" height="18.099" transform="translate(9.281 82.604)" fill="#4bdddd"/>
      <g id="Grupo_1100544" data-name="Grupo 1100544" transform="translate(16.49 67.794)">
        <path id="Trazado_877983" data-name="Trazado 877983" d="M82.994,301.5A5.5,5.5,0,0,0,72,301.5v1.832H82.994Z" transform="translate(-72 -296)" fill="#b139d8"/>
        <path id="Trazado_877984" data-name="Trazado 877984" d="M307.975,344h-40.31A3.664,3.664,0,0,0,264,347.665v21.987a3.664,3.664,0,0,0,3.665,3.665h40.31a3.664,3.664,0,0,0,3.665-3.665V347.665A3.664,3.664,0,0,0,307.975,344ZM269.5,365.987h0Zm0-7.329h0Zm0-7.329h0Zm7.329,14.658h0Zm0-7.329h0Zm0-7.329h0Zm7.329,14.658h0Zm0-7.329h0Zm0-7.329h0Zm9.161,7.329h0Zm0-7.329h0Z" transform="translate(-220.025 -333.006)" fill="#b139d8"/>
      </g>
      <circle id="Elipse_11885" data-name="Elipse 11885" cx="3.713" cy="3.713" r="3.713" transform="translate(100.702 58.472)" fill="#ffc931"/>
      <g id="Grupo_1100545" data-name="Grupo 1100545">
        <path id="Trazado_877985" data-name="Trazado 877985" d="M9.161,36.646h10.12l-2.2,5.5H12.826v3.665H38.478V42.142H34.221l-2.2-5.5h10.12A9.172,9.172,0,0,0,51.3,27.484V9.161A9.172,9.172,0,0,0,42.142,0H9.161A9.172,9.172,0,0,0,0,9.161V27.484A9.172,9.172,0,0,0,9.161,36.646Zm21.113,5.5H21.029l2.2-5.5h4.848Zm11.868-9.161H9.161a5.5,5.5,0,0,1-5.5-5.5H47.639A5.5,5.5,0,0,1,42.142,32.981ZM9.161,3.665H42.142a5.5,5.5,0,0,1,5.5,5.5V23.82H3.665V9.161A5.5,5.5,0,0,1,9.161,3.665Z" fill="#2a0e54"/>
        <path id="Trazado_877986" data-name="Trazado 877986" d="M375.82,0H357.5A5.5,5.5,0,0,0,352,5.5V38.478a5.5,5.5,0,0,0,5.5,5.5H375.82a5.5,5.5,0,0,0,5.5-5.5V5.5A5.5,5.5,0,0,0,375.82,0ZM357.5,3.665H375.82A1.835,1.835,0,0,1,377.652,5.5V7.329H355.665V5.5A1.835,1.835,0,0,1,357.5,3.665Zm20.155,7.329V32.981H355.665V10.994ZM375.82,40.31H357.5a1.835,1.835,0,0,1-1.832-1.832V36.646h21.987v1.832A1.835,1.835,0,0,1,375.82,40.31Z" transform="translate(-271.38)" fill="#2a0e54"/>
        <path id="Trazado_877987" data-name="Trazado 877987" d="M5.5,278.272h40.31a5.5,5.5,0,0,0,5.5-5.5V247.124a5.5,5.5,0,0,0-5.5-5.5H29.316a7.306,7.306,0,0,0-3.833-6.4l14.29-14.29-2.591-2.591-15.2,15.2-6.034-6.034L13.363,230.1l5.129,5.129a7.306,7.306,0,0,0-3.833,6.4H5.5a5.5,5.5,0,0,0-5.5,5.5v25.652A5.5,5.5,0,0,0,5.5,278.272Zm16.49-40.31a3.668,3.668,0,0,1,3.665,3.665H18.323A3.668,3.668,0,0,1,21.987,237.962ZM3.665,247.124A1.835,1.835,0,0,1,5.5,245.291h40.31a1.835,1.835,0,0,1,1.832,1.832v25.652a1.835,1.835,0,0,1-1.832,1.832H5.5a1.835,1.835,0,0,1-1.832-1.832Z" transform="translate(0 -168.336)" fill="#2a0e54"/>
        <path id="Trazado_877988" data-name="Trazado 877988" d="M33.832,373.987h23.82a1.833,1.833,0,0,0,1.832-1.832V353.832A1.833,1.833,0,0,0,57.652,352H33.832A1.833,1.833,0,0,0,32,353.832v18.323A1.833,1.833,0,0,0,33.832,373.987Zm1.832-18.323H55.82v14.658H35.665Z" transform="translate(-24.671 -271.38)" fill="#2a0e54"/>
        <rect id="Rectángulo_401447" data-name="Rectángulo 401447" width="3.713" height="3.713" transform="translate(40.374 80.747)" fill="#2a0e54"/>
        <rect id="Rectángulo_401448" data-name="Rectángulo 401448" width="5.569" height="3.713" transform="translate(38.517 91.421)" fill="#2a0e54"/>
        <rect id="Rectángulo_401449" data-name="Rectángulo 401449" width="5.569" height="3.713" transform="translate(38.517 98.846)" fill="#2a0e54"/>
        <rect id="Rectángulo_401450" data-name="Rectángulo 401450" width="12.994" height="3.713" transform="translate(89.565 84.46)" fill="#2a0e54"/>
        <rect id="Rectángulo_401451" data-name="Rectángulo 401451" width="12.994" height="3.713" transform="translate(89.565 91.421)" fill="#2a0e54"/>
        <rect id="Rectángulo_401452" data-name="Rectángulo 401452" width="3.713" height="3.713" transform="translate(65.897 84.46)" fill="#2a0e54"/>
        <rect id="Rectángulo_401453" data-name="Rectángulo 401453" width="3.713" height="3.713" transform="translate(73.322 84.46)" fill="#2a0e54"/>
        <rect id="Rectángulo_401454" data-name="Rectángulo 401454" width="3.713" height="3.713" transform="translate(80.747 84.46)" fill="#2a0e54"/>
        <rect id="Rectángulo_401455" data-name="Rectángulo 401455" width="3.713" height="3.713" transform="translate(65.897 91.421)" fill="#2a0e54"/>
        <rect id="Rectángulo_401456" data-name="Rectángulo 401456" width="3.713" height="3.713" transform="translate(73.322 91.421)" fill="#2a0e54"/>
        <rect id="Rectángulo_401457" data-name="Rectángulo 401457" width="3.713" height="3.713" transform="translate(80.747 91.421)" fill="#2a0e54"/>
        <rect id="Rectángulo_401458" data-name="Rectángulo 401458" width="3.713" height="3.713" transform="translate(65.897 98.846)" fill="#2a0e54"/>
        <rect id="Rectángulo_401459" data-name="Rectángulo 401459" width="3.713" height="3.713" transform="translate(73.322 98.846)" fill="#2a0e54"/>
        <rect id="Rectángulo_401460" data-name="Rectángulo 401460" width="3.713" height="3.713" transform="translate(80.747 98.846)" fill="#2a0e54"/>
        <path id="Trazado_877989" data-name="Trazado 877989" d="M301.807,258.994a5.5,5.5,0,1,0-5.5-5.5,5.227,5.227,0,0,0,.06.59l-33.413,14.068H261.5a5.5,5.5,0,0,0-5.5,5.5v21.987a5.5,5.5,0,0,0,5.5,5.5h40.31a5.5,5.5,0,0,0,5.5-5.5V273.652a5.5,5.5,0,0,0-5.5-5.5H272.4L297.946,257.4A5.476,5.476,0,0,0,301.807,258.994Zm1.832,14.658v21.987a1.835,1.835,0,0,1-1.832,1.832H261.5a1.835,1.835,0,0,1-1.832-1.832V273.652a1.835,1.835,0,0,1,1.832-1.832h40.31A1.835,1.835,0,0,1,303.639,273.652Zm-1.832-21.987a1.832,1.832,0,1,1-1.832,1.832A1.835,1.835,0,0,1,301.807,251.665Z" transform="translate(-197.367 -191.199)" fill="#2a0e54"/>
        <path id="Trazado_877990" data-name="Trazado 877990" d="M249.97,227.768a12.817,12.817,0,0,0-18.138,0l2.591,2.591a9.154,9.154,0,0,1,12.956,0Z" transform="translate(-178.734 -172.702)" fill="#2a0e54"/>
        <path id="Trazado_877991" data-name="Trazado 877991" d="M237.711,197.95a20.175,20.175,0,0,0-28.5,0l2.591,2.591a16.511,16.511,0,0,1,23.321,0Z" transform="translate(-161.292 -148.068)" fill="#2a0e54"/>
        <path id="Trazado_877992" data-name="Trazado 877992" d="M254.464,257.636l2.591,2.591a1.836,1.836,0,0,1,2.593,0l2.591-2.591A5.5,5.5,0,0,0,254.464,257.636Z" transform="translate(-196.183 -197.389)" fill="#2a0e54"/>
        <rect id="Rectángulo_401461" data-name="Rectángulo 401461" width="12.954" height="3.665" transform="translate(26.944 10.458) rotate(135)" fill="#2a0e54"/>
        <rect id="Rectángulo_401462" data-name="Rectángulo 401462" width="12.954" height="3.665" transform="translate(39.772 10.459) rotate(135)" fill="#2a0e54"/>
        <rect id="Rectángulo_401463" data-name="Rectángulo 401463" width="3.713" height="7.425" transform="translate(100.702 21.811)" fill="#2a0e54"/>
        <rect id="Rectángulo_401464" data-name="Rectángulo 401464" width="3.713" height="3.248" transform="translate(100.702 14.85)" fill="#2a0e54"/>
      </g>
    </g>
  </g>
</svg>
