<svg xmlns="http://www.w3.org/2000/svg" width="129.737" height="122.746" viewBox="0 0 129.737 122.746">
  <g id="Grupo_1101905" data-name="Grupo 1101905" transform="translate(-652.995 -26836.152)">
    <path id="_12068" data-name="12068" d="M98.737,72.292c-13.285-1.834-27.318-1.386-39.407,4.421-16.765,8.052-27.775,26.309-28.2,44.9S40.4,158.479,55.36,169.523s34.7,14.959,53,11.643c18.453-3.344,35.773-14.186,45.4-30.28,6.172-10.321,9.057-23.065,5.647-34.6-2.059-6.961-6.267-13.128-11.217-18.437A82.875,82.875,0,0,0,98.737,72.292Z" transform="translate(621.876 26776.59)" fill="#26aab7"/>
    <g id="estrategia-de-mercadeo" transform="translate(657.079 26834.268)">
      <g id="Grupo_1100537" data-name="Grupo 1100537" transform="translate(3.954 3.767)">
        <path id="Trazado_877925" data-name="Trazado 877925" d="M212.257,28.764l12.23-12.822-10.361.25V5.887L201.9,18.709V29.015Z" transform="translate(-109.792 -5.887)" fill="#ffd947"/>
        <circle id="Elipse_11880" data-name="Elipse 11880" cx="51.218" cy="51.218" r="51.218" transform="translate(0.001 12.433)" fill="#3193f3"/>
        <circle id="Elipse_11881" data-name="Elipse 11881" cx="40.885" cy="40.885" r="40.885" transform="translate(10.334 22.765)" fill="#5fcdff"/>
        <circle id="Elipse_11882" data-name="Elipse 11882" cx="30.552" cy="30.552" r="30.552" transform="translate(20.668 33.099)" fill="#3193f3"/>
        <path id="Trazado_877926" data-name="Trazado 877926" d="M111.33,118.6l-8.051-1.17a1.849,1.849,0,0,1-1.392-1.012l-3.6-7.295a1.849,1.849,0,0,0-3.316,0l-3.6,7.295a1.851,1.851,0,0,1-1.392,1.012l-8.051,1.17a1.849,1.849,0,0,0-1.025,3.154l5.826,5.679a1.85,1.85,0,0,1,.532,1.637l-1.375,8.018a1.849,1.849,0,0,0,2.683,1.95l7.2-3.786a1.85,1.85,0,0,1,1.721,0l7.2,3.786a1.849,1.849,0,0,0,2.683-1.95L106,129.067a1.849,1.849,0,0,1,.532-1.637l5.826-5.679A1.849,1.849,0,0,0,111.33,118.6Z" transform="translate(-45.409 -60.02)" fill="#f9d335"/>
        <path id="Trazado_877927" data-name="Trazado 877927" d="M84.092,137.159a31.165,31.165,0,0,1-3.528.2,30.551,30.551,0,1,1,0-61.1,31.163,31.163,0,0,1,3.528.2,30.553,30.553,0,0,0,0,60.7Z" transform="translate(-29.344 -43.16)" fill="#aee6e6"/>
        <path id="Trazado_877928" data-name="Trazado 877928" d="M100.157,112.905l-1.731,3.509a1.841,1.841,0,0,1-1.392,1.011L88.982,118.6a1.852,1.852,0,0,0-1.025,3.156l5.828,5.677a1.844,1.844,0,0,1,.531,1.637L93.008,136.7l-4.44,2.333a1.846,1.846,0,0,1-2.681-1.947l1.373-8.019a1.844,1.844,0,0,0-.531-1.637L80.9,121.752a1.852,1.852,0,0,1,1.025-3.156l8.052-1.171a1.841,1.841,0,0,0,1.392-1.011l3.6-7.295a1.849,1.849,0,0,1,3.316,0Z" transform="translate(-45.409 -60.019)" fill="#f9e27d"/>
        <path id="Trazado_877929" data-name="Trazado 877929" d="M60.819,134.632q-1.75.12-3.528.122a51.218,51.218,0,1,1,0-102.436q1.778,0,3.528.122a51.217,51.217,0,0,0,0,102.191Z" transform="translate(-6.071 -19.887)" fill="#aee6e6"/>
        <path id="Trazado_877930" data-name="Trazado 877930" d="M72.455,135.907q-1.743.148-3.528.151a40.884,40.884,0,1,1,0-81.769q1.785,0,3.528.151a40.886,40.886,0,0,0,0,81.468Z" transform="translate(-17.708 -31.524)" fill="#aee6e6"/>
      </g>
      <g id="Grupo_1100538" data-name="Grupo 1100538" transform="translate(2.074 1.885)">
        <path id="Trazado_877931" data-name="Trazado 877931" d="M106.465,28.525a1.883,1.883,0,0,0,1.316-.582l12.23-12.822a1.883,1.883,0,0,0-1.407-3.18l-8.434.2V3.768a1.883,1.883,0,0,0-3.243-1.3L94.7,15.291a1.882,1.882,0,0,0-.52,1.3v9.547l-2.585,2.676C57.943-2.949,2.074,20.866,2.074,67.418a53.16,53.16,0,0,0,53.1,53.1c46.168,0,70.247-55.148,39.063-89.027l2.64-2.734ZM97.94,17.343l8.467-8.877v5.606a1.883,1.883,0,0,0,1.927,1.881l5.816-.141L105.6,24.782l-7.655.185ZM55.174,116.755A49.393,49.393,0,0,1,5.837,67.418c0-43.157,51.793-65.438,83.143-35.9l-4.563,4.724C57.192,10.691,12.407,30.078,12.407,67.418a42.815,42.815,0,0,0,42.767,42.767c36.9,0,56.4-43.828,31.872-71.249L91.62,34.2c28.759,31.526,6.348,82.555-36.447,82.555Zm7.515-43.622,1.364,7.953-7.143-3.755a3.729,3.729,0,0,0-3.472,0l-7.143,3.755,1.364-7.953a3.728,3.728,0,0,0-1.073-3.3L40.808,64.2l7.986-1.161A3.731,3.731,0,0,0,51.6,61l3.572-7.236L58.745,61a3.723,3.723,0,0,0,.761,1.034L53.82,67.917a1.881,1.881,0,1,0,2.706,2.614l6.967-7.214,6.046.879-5.778,5.633A3.731,3.731,0,0,0,62.689,73.133Zm-.571-13.8-3.6-7.292a3.73,3.73,0,0,0-6.69,0l-3.576,7.278L40.2,60.483a3.731,3.731,0,0,0-2.068,6.363l5.816,5.65-1.375,8.018a3.731,3.731,0,0,0,5.413,3.933l7.171-3.786,7.2,3.786a3.732,3.732,0,0,0,5.413-3.933l-1.385-7.989,5.825-5.678a3.73,3.73,0,0,0-2.067-6.363L66.71,59.99,77.219,49.11c15.47,18.6,2.2,46.979-22.045,46.979A28.7,28.7,0,0,1,26.5,67.418c0-24.977,29.86-37.935,48.122-21.039ZM22.74,67.418A32.47,32.47,0,0,0,55.174,99.851c27.629,0,42.548-32.507,24.668-53.457l4.579-4.741c22.14,25.1,4.24,64.768-29.247,64.768a39.048,39.048,0,0,1-39-39c0-34.008,40.764-51.736,65.629-28.466l-4.561,4.723C56.621,24.5,22.74,39.1,22.74,67.418Z" transform="translate(-2.074 -1.885)" fill="#5f266d"/>
        <path id="Trazado_877932" data-name="Trazado 877932" d="M111.127,89.885c-.533-.047-1.076-.071-1.618-.071a1.894,1.894,0,1,0,.006,3.763c.427,0,.858.019,1.283.056a1.882,1.882,0,0,0,.329-3.749Z" transform="translate(-57.862 -48.457)" fill="#5f266d"/>
        <path id="Trazado_877933" data-name="Trazado 877933" d="M85.26,93.1a26.122,26.122,0,0,0-8.417,5.7,1.881,1.881,0,0,0,2.763,2.553,22.4,22.4,0,0,1,7.1-4.777A1.881,1.881,0,1,0,85.26,93.1Z" transform="translate(-41.411 -50.122)" fill="#5f266d"/>
      </g>
    </g>
  </g>
</svg>
