<svg xmlns="http://www.w3.org/2000/svg" width="129.737" height="122.746" viewBox="0 0 129.737 122.746">
  <g id="Grupo_1101904" data-name="Grupo 1101904" transform="translate(-250.264 -26836.152)">
    <path id="_12068" data-name="12068" d="M98.737,72.292c-13.285-1.834-27.318-1.386-39.407,4.421-16.765,8.052-27.775,26.309-28.2,44.9S40.4,158.479,55.36,169.523s34.7,14.959,53,11.643c18.453-3.344,35.773-14.186,45.4-30.28,6.172-10.321,9.057-23.065,5.647-34.6-2.059-6.961-6.267-13.128-11.217-18.437A82.875,82.875,0,0,0,98.737,72.292Z" transform="translate(219.145 26776.59)" fill="#26aab7"/>
    <g id="_25-Entrepreneur" data-name="25-Entrepreneur" transform="translate(260.171 26836.16)">
      <path id="Trazado_877993" data-name="Trazado 877993" d="M57.763,74.481H32V69.328l13.74-3.435L42.305,60.74l3.435-1.718V47l8.588,1.718s.24.824.584,2.284a110.376,110.376,0,0,1,2.267,13.174A96.677,96.677,0,0,1,57.763,74.481Z" transform="translate(22.962 33.73)" fill="#3d5c9e"/>
      <path id="Trazado_877994" data-name="Trazado 877994" d="M44.153,31v3.435a3.445,3.445,0,0,1-3.435,3.435H39V31Z" transform="translate(27.984 22.25)" fill="#e09380"/>
      <path id="Trazado_877995" data-name="Trazado 877995" d="M53.916,34.458v5.153H50.481c-18.893,0-18.893-5.153-18.893-5.153a5.046,5.046,0,0,1-5.153,5.153H23V34.458a15.458,15.458,0,0,1,30.916,0Z" transform="translate(16.504 13.639)" fill="#966857"/>
      <path id="Trazado_877996" data-name="Trazado 877996" d="M31.588,26a5.046,5.046,0,0,1-5.153,5.153H23v3.435h3.435a5.046,5.046,0,0,0,5.153-5.153s0,5.153,18.893,5.153h3.435V31.153H50.481C31.588,31.153,31.588,26,31.588,26Z" transform="translate(16.504 18.662)" fill="#8d5c4d"/>
      <path id="Trazado_877997" data-name="Trazado 877997" d="M45.74,47.431V59.453l-3.435,1.718,3.435,5.153L32,69.759c6.87-6.87,8.588-20.611,8.588-20.611V46.4Z" transform="translate(22.962 33.3)" fill="#7ea8c2"/>
      <path id="Trazado_877998" data-name="Trazado 877998" d="M42.175,52.6A12.015,12.015,0,0,1,25,41.74V33.153A5.046,5.046,0,0,0,30.153,28s0,5.153,18.893,5.153V41.74A11.971,11.971,0,0,1,42.175,52.6Zm0-10.855H31.87a5.153,5.153,0,1,0,10.305,0Z" transform="translate(17.939 20.097)" fill="#ffbeaa"/>
      <path id="Trazado_877999" data-name="Trazado 877999" d="M40.588,46.687v2.748l-5.153,5.153L32,51.153,37.153,46Z" transform="translate(22.962 33.013)" fill="#acaeaf"/>
      <path id="Trazado_878000" data-name="Trazado 878000" d="M35.435,53.153,40.588,48S38.87,61.74,32,68.611V49.718Z" transform="translate(22.962 34.448)" fill="#f4f4f4"/>
      <path id="Trazado_878001" data-name="Trazado 878001" d="M39.305,42.32v6.321l-5.153,5.153L29,48.641V42.32A11.951,11.951,0,0,0,39.305,42.32Z" transform="translate(20.809 30.372)" fill="#e09380"/>
      <path id="Trazado_878002" data-name="Trazado 878002" d="M29,36H39.305A5.153,5.153,0,1,1,29,36Z" transform="translate(20.809 25.837)" fill="#ff475a"/>
      <path id="Trazado_878003" data-name="Trazado 878003" d="M34.153,36H29a5.108,5.108,0,0,0,.713,2.576A5.122,5.122,0,0,1,34.153,36Z" transform="translate(20.809 25.837)" fill="#d1093a"/>
      <path id="Trazado_878004" data-name="Trazado 878004" d="M36.44,38.576A5.108,5.108,0,0,0,37.153,36H32a5.122,5.122,0,0,1,4.44,2.576Z" transform="translate(22.962 25.837)" fill="#d1093a"/>
      <path id="Trazado_878005" data-name="Trazado 878005" d="M42.763,69.328v5.153H17a96.679,96.679,0,0,1,.584-10.305A110.375,110.375,0,0,1,19.851,51c.343-1.46.584-2.284.584-2.284L29.023,47V59.023l3.435,1.718-3.435,5.153Z" transform="translate(12.198 33.73)" fill="#314a66"/>
      <path id="Trazado_878006" data-name="Trazado 878006" d="M35.588,49.718V68.611C28.718,61.74,27,48,27,48l5.153,5.153Z" transform="translate(19.374 34.448)" fill="#cfd9dc"/>
      <path id="Trazado_878007" data-name="Trazado 878007" d="M35.588,51.153l-3.435,3.435L27,49.435V46.687L30.435,46Z" transform="translate(19.374 33.013)" fill="#acaeaf"/>
      <path id="Trazado_878008" data-name="Trazado 878008" d="M37.74,69.759,24,66.324l3.435-5.153L24,59.453V47.431L29.153,46.4v2.748S30.87,62.888,37.74,69.759Z" transform="translate(17.221 33.3)" fill="#7ea8c2"/>
      <path id="Trazado_878009" data-name="Trazado 878009" d="M27.153,31v6.87H25.435A3.445,3.445,0,0,1,22,34.435V31Z" transform="translate(15.786 22.25)" fill="#e09380"/>
      <path id="Trazado_878010" data-name="Trazado 878010" d="M5,29h6.87V53.046H5Z" transform="translate(3.588 20.815)" fill="#06ccab"/>
      <path id="Trazado_878011" data-name="Trazado 878011" d="M8.435,46.175V29H5V53.046h6.87V49.611A3.435,3.435,0,0,1,8.435,46.175Z" transform="translate(3.588 20.815)" fill="#00bd9d"/>
      <path id="Trazado_878012" data-name="Trazado 878012" d="M13,23h6.87V57.351H13Z" transform="translate(9.328 16.509)" fill="#54addd"/>
      <path id="Trazado_878013" data-name="Trazado 878013" d="M16.435,50.481V23H13V57.351h6.87V53.916A3.435,3.435,0,0,1,16.435,50.481Z" transform="translate(9.328 16.509)" fill="#7099cf"/>
      <path id="Trazado_878014" data-name="Trazado 878014" d="M47,18h6.87v5.153H47Z" transform="translate(33.725 12.922)" fill="#966857"/>
      <path id="Trazado_878015" data-name="Trazado 878015" d="M47,18h3.435v5.153H47Z" transform="translate(33.725 12.922)" fill="#8d5c4d"/>
      <path id="Trazado_878016" data-name="Trazado 878016" d="M68.482,14.748a13.7,13.7,0,0,1-8.158,12.538,3.177,3.177,0,0,0-2.147,2.92h-6.87a3.177,3.177,0,0,0-2.147-2.92A13.74,13.74,0,1,1,68.482,14.748Z" transform="translate(29.419 0.715)" fill="#ffd03e"/>
      <path id="Trazado_878017" data-name="Trazado 878017" d="M52.6,27.273a13.73,13.73,0,0,1,2.817-26c.361-.07.716-.1,1.072-.148a14.134,14.134,0,0,0-4.507.148,13.73,13.73,0,0,0-2.817,26,3.177,3.177,0,0,1,2.147,2.92h3.435a3.177,3.177,0,0,0-2.147-2.92Z" transform="translate(29.417 0.728)" fill="#fbb040"/>
      <path id="Trazado_878018" data-name="Trazado 878018" d="M52,44H70.893a18.833,18.833,0,0,1-5.531,13.363Z" transform="translate(37.312 31.578)" fill="#54addd"/>
      <path id="Trazado_878019" data-name="Trazado 878019" d="M70.893,51.893H52V33A18.883,18.883,0,0,1,70.893,51.893Z" transform="translate(37.312 23.685)" fill="#ff636e"/>
      <path id="Trazado_878020" data-name="Trazado 878020" d="M59.893,51.893,73.256,65.256a18.905,18.905,0,0,1-23.427,2.628,92.518,92.518,0,0,0-1.958-9.12l-6.011-1.2A19.264,19.264,0,0,1,41,51.893,18.883,18.883,0,0,1,59.893,33Z" transform="translate(29.419 23.685)" fill="#fbb040"/>
      <path id="Trazado_878021" data-name="Trazado 878021" d="M53.263,67.883a92.518,92.518,0,0,0-1.958-9.12l-6.011-1.2a19.263,19.263,0,0,1-.859-5.668A18.875,18.875,0,0,1,59.9,33.326l0-.326A18.883,18.883,0,0,0,41,51.893a19.264,19.264,0,0,0,.859,5.668l6.011,1.2a92.516,92.516,0,0,1,1.958,9.12,18.838,18.838,0,0,0,10.065,2.9c.581,0,1.151-.036,1.718-.086a18.843,18.843,0,0,1-8.347-2.817Z" transform="translate(29.419 23.685)" fill="#f7941d"/>
      <path id="Trazado_878022" data-name="Trazado 878022" d="M37.74,53.328A13.756,13.756,0,0,1,24,39.588V31h3.435v8.588a10.305,10.305,0,0,0,20.611,0V31h3.435v8.588a13.756,13.756,0,0,1-13.74,13.74Z" transform="translate(17.221 22.25)"/>
      <path id="Trazado_878023" data-name="Trazado 878023" d="M34.87,43.588A6.87,6.87,0,0,1,28,36.718,1.718,1.718,0,0,1,29.718,35H40.023a1.718,1.718,0,0,1,1.718,1.718A6.87,6.87,0,0,1,34.87,43.588ZM31.9,38.435a3.435,3.435,0,0,0,5.946,0Z" transform="translate(20.091 25.12)"/>
      <path id="Trazado_878024" data-name="Trazado 878024" d="M53.633,42.461H51.916V39.026h1.718a1.718,1.718,0,0,0,1.718-1.718V35.591H51.916c-10.348,0-15.532-1.546-18.11-3.208a7.016,7.016,0,0,1-5.936,3.208H24.435v1.718a1.718,1.718,0,0,0,1.718,1.718H27.87v3.435H26.153A5.153,5.153,0,0,1,21,37.309V33.874a1.718,1.718,0,0,1,1.718-1.718H27.87a3.236,3.236,0,0,0,3.435-3.435,1.718,1.718,0,0,1,3.425-.2c.141.29,2.131,3.631,17.186,3.631h5.153a1.718,1.718,0,0,1,1.718,1.718v3.435A5.153,5.153,0,0,1,53.633,42.461Z" transform="translate(15.069 19.376)"/>
      <path id="Trazado_878025" data-name="Trazado 878025" d="M56.351,40.328H52.916V35.175a13.74,13.74,0,0,0-27.481,0v5.153H22V35.175a17.175,17.175,0,0,1,34.351,0Z" transform="translate(15.786 12.922)"/>
      <path id="Trazado_878026" data-name="Trazado 878026" d="M69.244,79.786H17.718A1.718,1.718,0,0,1,16,78.069a105.875,105.875,0,0,1,3.5-26.234,1.718,1.718,0,0,1,1.314-1.213l15.795-3.159V42h3.435v6.87a1.718,1.718,0,0,1-1.374,1.683L22.547,53.779a106.325,106.325,0,0,0-3.093,22.572H67.508a106.327,106.327,0,0,0-3.092-22.572L48.29,50.553a1.718,1.718,0,0,1-1.374-1.683V42h3.435v5.464l15.8,3.159a1.718,1.718,0,0,1,1.314,1.213,105.876,105.876,0,0,1,3.5,26.234,1.718,1.718,0,0,1-1.718,1.718Z" transform="translate(11.481 30.143)"/>
      <path id="Trazado_878027" data-name="Trazado 878027" d="M34.66,53.377a1.717,1.717,0,0,1-1.214-.5l-5.153-5.153,2.429-2.429,3.938,3.938L38.6,45.293l2.429,2.429-5.153,5.153A1.718,1.718,0,0,1,34.66,53.377Z" transform="translate(20.302 32.506)"/>
      <path id="Trazado_878028" data-name="Trazado 878028" d="M39.74,56.305a1.717,1.717,0,0,1-1.214-.5l-2.221-2.221L34.084,55.8a1.718,1.718,0,0,1-2.429,0L26.5,50.649a1.718,1.718,0,0,1-.5-1.214V46h3.435v2.724l3.435,3.435,2.221-2.221a1.718,1.718,0,0,1,2.429,0l2.221,2.221,3.435-3.435V46h3.435v3.435a1.717,1.717,0,0,1-.5,1.214L40.955,55.8A1.718,1.718,0,0,1,39.74,56.305Z" transform="translate(18.656 33.013)"/>
      <path id="Trazado_878029" data-name="Trazado 878029" d="M38.458,71.046a1.734,1.734,0,0,1-.417-.052L24.3,67.559a1.718,1.718,0,0,1-1.012-2.619l2.356-3.533-1.7-.847A1.718,1.718,0,0,1,23,59.023V47h3.435V57.961L28.92,59.2a1.718,1.718,0,0,1,.661,2.49L27.5,64.818l6.563,1.64a49.5,49.5,0,0,1-5.895-17.519l3.408-.426c.017.131,1.733,13.244,8.1,19.609a1.718,1.718,0,0,1-1.214,2.923Z" transform="translate(16.504 33.73)"/>
      <path id="Trazado_878030" data-name="Trazado 878030" d="M32.717,71.046A1.718,1.718,0,0,1,31.5,68.114c6.367-6.365,8.084-19.479,8.1-19.609l3.408.426A49.5,49.5,0,0,1,37.114,66.45l6.563-1.64-2.083-3.124a1.718,1.718,0,0,1,.661-2.49l2.485-1.233V47h3.435V59.023a1.718,1.718,0,0,1-.95,1.546l-1.7.847,2.356,3.533a1.718,1.718,0,0,1-1.012,2.619L33.135,71a1.747,1.747,0,0,1-.417.043Z" transform="translate(22.244 33.73)"/>
      <path id="Trazado_878031" data-name="Trazado 878031" d="M31,49h3.435V73.046H31Z" transform="translate(22.244 35.165)"/>
      <path id="Trazado_878032" data-name="Trazado 878032" d="M58.894,37.792h-6.87a1.718,1.718,0,0,1-1.718-1.718V30.922c0-.232,0-.847-1.123-1.345a15.458,15.458,0,1,1,12.552,0c-1.123.5-1.123,1.113-1.123,1.345v5.153A1.718,1.718,0,0,1,58.894,37.792Zm-5.153-3.435h3.435V30.922a4.868,4.868,0,0,1,3.164-4.485,12.023,12.023,0,1,0-9.761,0,4.868,4.868,0,0,1,3.162,4.485Z" transform="translate(28.701)"/>
      <path id="Trazado_878033" data-name="Trazado 878033" d="M47,17h6.87v3.435H47Z" transform="translate(33.725 12.204)"/>
      <path id="Trazado_878034" data-name="Trazado 878034" d="M51.435,25.893H48V12.153a1.718,1.718,0,0,1,1.718-1.718h3.435V7h3.435v5.153A1.718,1.718,0,0,1,54.87,13.87H51.435Z" transform="translate(34.442 5.028)"/>
      <path id="Trazado_878035" data-name="Trazado 878035" d="M51.87,13.87H46.718A1.718,1.718,0,0,1,45,12.153V7h3.435v3.435H51.87Z" transform="translate(32.29 5.028)"/>
      <path id="Trazado_878036" data-name="Trazado 878036" d="M59,8h6.87v3.435H59Z" transform="translate(42.335 5.746)"/>
      <path id="Trazado_878037" data-name="Trazado 878037" d="M0,0H7.288V3.435H0Z" transform="translate(100.11 10.824) rotate(-45)"/>
      <path id="Trazado_878038" data-name="Trazado 878038" d="M0,0H3.435V7.288H0Z" transform="translate(100.108 20.122) rotate(-45)"/>
      <path id="Trazado_878039" data-name="Trazado 878039" d="M35,8h6.87v3.435H35Z" transform="translate(25.114 5.746)"/>
      <path id="Trazado_878040" data-name="Trazado 878040" d="M0,0H3.435V7.288H0Z" transform="translate(60.61 8.096) rotate(-45)"/>
      <path id="Trazado_878041" data-name="Trazado 878041" d="M0,0H7.288V3.435H0Z" transform="translate(60.61 22.841) rotate(-45)"/>
      <path id="Trazado_878042" data-name="Trazado 878042" d="M42.939,59.786H1.718A1.718,1.718,0,0,1,0,58.069V22H3.435V56.351h39.5Z" transform="translate(0 15.792)"/>
      <path id="Trazado_878043" data-name="Trazado 878043" d="M12.588,55.481H5.718A1.718,1.718,0,0,1,4,53.763V29.718A1.718,1.718,0,0,1,5.718,28h6.87a1.718,1.718,0,0,1,1.718,1.718V53.763A1.718,1.718,0,0,1,12.588,55.481ZM7.435,52.046H10.87V31.435H7.435Z" transform="translate(2.87 20.097)"/>
      <path id="Trazado_878044" data-name="Trazado 878044" d="M20.588,59.786h-6.87A1.718,1.718,0,0,1,12,58.069V23.718A1.718,1.718,0,0,1,13.718,22h6.87a1.718,1.718,0,0,1,1.718,1.718V58.069A1.718,1.718,0,0,1,20.588,59.786Zm-5.153-3.435H18.87V25.435H15.435Z" transform="translate(8.611 15.792)"/>
      <path id="Trazado_878045" data-name="Trazado 878045" d="M36.572,30.825,25.763,20.016,18.39,27.39a1.718,1.718,0,0,1-2.429,0L3.435,14.864v6.159H0V10.717A1.718,1.718,0,0,1,2.932,9.5L17.175,23.747l7.373-7.373a1.718,1.718,0,0,1,2.429,0L39,28.4Z" transform="translate(0 6.464)"/>
      <path id="Trazado_878046" data-name="Trazado 878046" d="M1,9H11.305v3.435H1Z" transform="translate(0.718 6.464)"/>
      <path id="Trazado_878047" data-name="Trazado 878047" d="M0,18H3.435v3.435H0Z" transform="translate(0 12.922)"/>
      <path id="Trazado_878048" data-name="Trazado 878048" d="M60.611,73.221a20.588,20.588,0,0,1-10.98-3.167l1.831-2.908a17.175,17.175,0,1,0-8.026-14.536,17.527,17.527,0,0,0,.783,5.163l-3.284,1.01A20.994,20.994,0,0,1,40,52.611,20.611,20.611,0,1,1,60.611,73.221Z" transform="translate(28.702 22.967)"/>
      <path id="Trazado_878049" data-name="Trazado 878049" d="M65.244,66.848,51.5,53.107a1.718,1.718,0,0,1-.5-1.214V33h3.435V51.182L67.672,64.419Z" transform="translate(36.595 23.685)"/>
      <path id="Trazado_878050" data-name="Trazado 878050" d="M52,43H70.893v3.435H52Z" transform="translate(37.312 30.86)"/>
      <path id="Trazado_878051" data-name="Trazado 878051" d="M8,50h3.435V60.305H8Z" transform="translate(5.74 35.883)"/>
      <path id="Trazado_878052" data-name="Trazado 878052" d="M6,52H16.305v3.435H6Z" transform="translate(4.305 37.318)"/>
      <path id="Trazado_878053" data-name="Trazado 878053" d="M56,23h3.435V33.305H56Z" transform="translate(40.183 16.509)"/>
      <path id="Trazado_878054" data-name="Trazado 878054" d="M54,25H64.305v3.435H54Z" transform="translate(38.748 17.944)"/>
      <path id="Trazado_878055" data-name="Trazado 878055" d="M22,5h3.435V15.305H22Z" transform="translate(15.786 3.593)"/>
      <path id="Trazado_878056" data-name="Trazado 878056" d="M20,7H30.305v3.435H20Z" transform="translate(14.351 5.028)"/>
    </g>
  </g>
</svg>
