<svg xmlns="http://www.w3.org/2000/svg" width="78.501" height="74.272" viewBox="0 0 78.501 74.272">
  <g id="Grupo_1101898" data-name="Grupo 1101898" transform="translate(-244 -8584)">
    <path id="_12068" data-name="12068" d="M72.033,71.913c-8.038-1.11-16.53-.839-23.844,2.675C38.045,79.46,31.382,90.507,31.127,101.757s5.606,22.305,14.66,28.988,21,9.051,32.068,7.045c11.165-2.023,21.645-8.583,27.469-18.322,3.735-6.245,5.48-13.956,3.417-20.934a28.6,28.6,0,0,0-6.787-11.156A50.145,50.145,0,0,0,72.033,71.913Z" transform="translate(212.881 8519.789)" fill="#26aab7"/>
    <g id="Layer_13" transform="translate(240.997 8583.999)">
      <g id="Grupo_1100933" data-name="Grupo 1100933" transform="translate(7.004 0.001)">
        <g id="Grupo_1100773" data-name="Grupo 1100773" transform="translate(53.039 17.126)">
          <g id="Grupo_1100772" data-name="Grupo 1100772">
            <path id="Trazado_878566" data-name="Trazado 878566" d="M206.381,59.03H191.92a2.1,2.1,0,0,0,0,4.2h14.461a.59.59,0,0,0,.59-.59V59.62A.59.59,0,0,0,206.381,59.03Z" transform="translate(-189.82 -59.03)" fill="#9be5f9"/>
          </g>
        </g>
        <g id="Grupo_1100775" data-name="Grupo 1100775" transform="translate(53.654 7.342)">
          <g id="Grupo_1100774" data-name="Grupo 1100774">
            <path id="Trazado_878567" data-name="Trazado 878567" d="M205.136,27.617,203,25.482a.591.591,0,0,0-.835,0L191.94,35.707a2.094,2.094,0,0,1,1.485-.615H198.5l6.64-6.64A.591.591,0,0,0,205.136,27.617Z" transform="translate(-191.94 -25.309)" fill="#f5c84c"/>
          </g>
        </g>
        <g id="Grupo_1100777" data-name="Grupo 1100777" transform="translate(53.04 4.174)">
          <g id="Grupo_1100776" data-name="Grupo 1100776">
            <path id="Trazado_878568" data-name="Trazado 878568" d="M193.431,14.389h-3.019a.59.59,0,0,0-.59.59V29.44a2.094,2.094,0,0,1,.615-1.485l3.585-3.585V14.98a.591.591,0,0,0-.591-.591Z" transform="translate(-189.821 -14.389)" fill="#fc657e"/>
          </g>
        </g>
        <g id="Grupo_1100779" data-name="Grupo 1100779" transform="translate(15.097 48.317)">
          <g id="Grupo_1100778" data-name="Grupo 1100778" transform="translate(0)">
            <path id="Trazado_878569" data-name="Trazado 878569" d="M62.78,189.211a.835.835,0,0,1,.835-.835h1.769a1.183,1.183,0,0,1-1.183-1.183V167.311a1.173,1.173,0,0,1,.292-.77l-1.846.466a3.808,3.808,0,0,0-2.873,3.481l-.734,20.165A1.059,1.059,0,0,0,60.1,191.77h5.242A2.56,2.56,0,0,1,62.78,189.211Z" transform="translate(-59.039 -166.541)" fill="#3a70bf"/>
          </g>
        </g>
        <g id="Grupo_1100781" data-name="Grupo 1100781" transform="translate(48.766 48.317)">
          <g id="Grupo_1100780" data-name="Grupo 1100780">
            <path id="Trazado_878570" data-name="Trazado 878570" d="M180.7,170.487a3.808,3.808,0,0,0-2.873-3.481l-1.846-.466a1.173,1.173,0,0,1,.292.77v19.882a1.183,1.183,0,0,1-1.183,1.183h1.769a.835.835,0,0,1,.835.835,2.559,2.559,0,0,1-2.559,2.559h5.242a1.058,1.058,0,0,0,1.057-1.118Z" transform="translate(-175.092 -166.54)" fill="#3a70bf"/>
          </g>
        </g>
        <g id="Grupo_1100783" data-name="Grupo 1100783" transform="translate(20.259 47.904)">
          <g id="Grupo_1100782" data-name="Grupo 1100782">
            <path id="Trazado_878571" data-name="Trazado 878571" d="M105.34,165.118H78.015a1.183,1.183,0,0,0-1.183,1.183v19.883a1.183,1.183,0,0,0,1.183,1.183H105.34a1.183,1.183,0,0,0,1.183-1.183V166.3A1.183,1.183,0,0,0,105.34,165.118Z" transform="translate(-76.832 -165.118)" fill="#edf4fc"/>
          </g>
        </g>
        <g id="Grupo_1100785" data-name="Grupo 1100785" transform="translate(18.838 70.152)">
          <g id="Grupo_1100784" data-name="Grupo 1100784">
            <path id="Trazado_878572" data-name="Trazado 878572" d="M103.631,241.8H72.768a.835.835,0,0,0-.835.835,2.559,2.559,0,0,0,2.559,2.559h27.414a2.559,2.559,0,0,0,2.559-2.559A.834.834,0,0,0,103.631,241.8Z" transform="translate(-71.933 -241.802)" fill="#c7d7e5"/>
          </g>
        </g>
        <g id="Grupo_1100787" data-name="Grupo 1100787" transform="translate(5.323 27.477)">
          <g id="Grupo_1100786" data-name="Grupo 1100786">
            <circle id="Elipse_11911" data-name="Elipse 11911" cx="5.849" cy="5.849" r="5.849" fill="#70d6f9"/>
          </g>
        </g>
        <g id="Grupo_1100789" data-name="Grupo 1100789" transform="translate(2.509 13.843)">
          <g id="Grupo_1100788" data-name="Grupo 1100788">
            <path id="Trazado_878573" data-name="Trazado 878573" d="M15.653,47.714h5.732v8.037H15.653Z" transform="translate(-15.653 -47.714)" fill="#5290db"/>
          </g>
        </g>
        <g id="Grupo_1100791" data-name="Grupo 1100791" transform="translate(2.509 4.585)">
          <g id="Grupo_1100790" data-name="Grupo 1100790">
            <path id="Trazado_878574" data-name="Trazado 878574" d="M15.653,15.8H29.8v6.162H15.653Z" transform="translate(-15.653 -15.803)" fill="#5290db"/>
          </g>
        </g>
        <g id="Grupo_1100793" data-name="Grupo 1100793" transform="translate(10.923 13.843)">
          <g id="Grupo_1100792" data-name="Grupo 1100792">
            <path id="Trazado_878575" data-name="Trazado 878575" d="M44.653,47.714h5.732v8.037H44.653Z" transform="translate(-44.653 -47.714)" fill="#5290db"/>
          </g>
        </g>
        <g id="Grupo_1100795" data-name="Grupo 1100795" transform="translate(0.725 38.6)">
          <g id="Grupo_1100794" data-name="Grupo 1100794">
            <path id="Trazado_878576" data-name="Trazado 878576" d="M14.305,133.851l-.435-.435a1.263,1.263,0,0,0-1.787,0l-2.212,2.212a1.263,1.263,0,0,0,0,1.787l.435.435a1.263,1.263,0,0,0,1.787,0l2.212-2.212A1.264,1.264,0,0,0,14.305,133.851Z" transform="translate(-9.501 -133.046)" fill="#fc657e"/>
          </g>
        </g>
        <g id="Grupo_1100797" data-name="Grupo 1100797" transform="translate(53.039 17.126)">
          <g id="Grupo_1100796" data-name="Grupo 1100796">
            <path id="Trazado_878577" data-name="Trazado 878577" d="M191.92,59.03a2.1,2.1,0,0,0,0,4.2h2.8v-4.2Z" transform="translate(-189.82 -59.03)" fill="#edf4fc"/>
          </g>
        </g>
        <g id="Grupo_1100799" data-name="Grupo 1100799" transform="translate(44.367 25.014)">
          <g id="Grupo_1100798" data-name="Grupo 1100798">
            <path id="Trazado_878578" data-name="Trazado 878578" d="M160.546,86.219a3.88,3.88,0,0,0-.6.047V93.3c0,.209-.01.417-.023.623a3.875,3.875,0,1,0,.619-7.7Z" transform="translate(-159.927 -86.219)" fill="#f9d0b4"/>
          </g>
        </g>
        <g id="Grupo_1100801" data-name="Grupo 1100801" transform="translate(25.818 21.768)">
          <g id="Grupo_1100800" data-name="Grupo 1100800">
            <path id="Trazado_878579" data-name="Trazado 878579" d="M113.993,77.144a7.7,7.7,0,0,1-3.388-1.95.616.616,0,0,0-.885.05c-1.414,1.651-6.429,6.659-13.728,4.58v5.53a9.286,9.286,0,1,0,18.573,0v-7.5a.728.728,0,0,0-.571-.707Z" transform="translate(-95.992 -75.03)" fill="#f9d0b4"/>
          </g>
        </g>
        <g id="Grupo_1100803" data-name="Grupo 1100803" transform="translate(21.345 25.748)">
          <g id="Grupo_1100802" data-name="Grupo 1100802">
            <path id="Trazado_878580" data-name="Trazado 878580" d="M85.048,95.092v-5.53a15.1,15.1,0,0,1-1.964-.713,1.181,1.181,0,0,0-1.284.221,3.865,3.865,0,0,0,3.272,6.646C85.057,95.509,85.048,95.3,85.048,95.092Z" transform="translate(-80.575 -88.748)" fill="#f9d0b4"/>
          </g>
        </g>
        <g id="Grupo_1100805" data-name="Grupo 1100805" transform="translate(22.476 11.255)">
          <g id="Grupo_1100804" data-name="Grupo 1100804">
            <path id="Trazado_878581" data-name="Trazado 878581" d="M97.1,38.795A12.665,12.665,0,0,0,84.475,51.423V53.7c.032-.032.061-.066.093-.1a1.181,1.181,0,0,1,1.284-.22,15.105,15.105,0,0,0,1.964.713c7.3,2.079,12.314-2.929,13.728-4.58a.616.616,0,0,1,.885-.05,7.691,7.691,0,0,0,3.389,1.95.729.729,0,0,1,.571.707V52.6a3.86,3.86,0,0,1,3.341,1.093V51.423A12.665,12.665,0,0,0,97.1,38.795Z" transform="translate(-84.475 -38.795)" fill="#5b5d60"/>
          </g>
        </g>
        <g id="Grupo_1100807" data-name="Grupo 1100807" transform="translate(22.185 40.252)">
          <g id="Grupo_1100806" data-name="Grupo 1100806">
            <path id="Trazado_878582" data-name="Trazado 878582" d="M106.149,145.6a8.129,8.129,0,0,1-1.607-.591l-2.3-1.132a2.582,2.582,0,0,1-1.44-2.315v-2.816a9.233,9.233,0,0,1-8.834,0v2.816a2.582,2.582,0,0,1-1.44,2.315l-2.3,1.132a8.122,8.122,0,0,1-1.607.591l-3.159.8h25.837Z" transform="translate(-83.471 -138.743)" fill="#f9d0b4"/>
          </g>
        </g>
        <g id="Grupo_1100809" data-name="Grupo 1100809" transform="translate(39.521 30.954)">
          <g id="Grupo_1100808" data-name="Grupo 1100808">
            <path id="Trazado_878583" data-name="Trazado 878583" d="M151.815,113.713a6.864,6.864,0,0,0,.153-7.02,3.831,3.831,0,0,1-3.9,1.76,9.319,9.319,0,0,1-4.846,7.538v2.816A2.577,2.577,0,0,0,144.455,121c.3.187-.082-.033,2.5,1.254a8.9,8.9,0,0,0,1.162.464c.07.022.142.041.212.061a6.432,6.432,0,0,0,3.353-2.531,5.315,5.315,0,0,0,.069-5.447A1.076,1.076,0,0,1,151.815,113.713Z" transform="translate(-143.224 -106.693)" fill="#5b5d60"/>
          </g>
        </g>
        <g id="Grupo_1100811" data-name="Grupo 1100811" transform="translate(21.045 30.954)">
          <g id="Grupo_1100810" data-name="Grupo 1100810">
            <path id="Trazado_878584" data-name="Trazado 878584" d="M84.336,108.453a3.831,3.831,0,0,1-3.9-1.76,6.865,6.865,0,0,0,.153,7.02,1.077,1.077,0,0,1,.057,1.09,5.314,5.314,0,0,0,.069,5.447,6.431,6.431,0,0,0,3.353,2.531c.071-.02.142-.039.212-.061a8.961,8.961,0,0,0,1.162-.464c2.755-1.37,2.224-1.081,2.5-1.254a2.578,2.578,0,0,0,1.231-2.193v-2.816A9.321,9.321,0,0,1,84.336,108.453Z" transform="translate(-79.54 -106.693)" fill="#5b5d60"/>
          </g>
        </g>
        <g id="Grupo_1100813" data-name="Grupo 1100813" transform="translate(15.097 60.026)">
          <g id="Grupo_1100812" data-name="Grupo 1100812" transform="translate(0)">
            <path id="Trazado_878585" data-name="Trazado 878585" d="M62.78,217.861a.835.835,0,0,1,.835-.835h1.769a1.183,1.183,0,0,1-1.183-1.183v-7.791L59.492,206.9l-.451,12.4A1.059,1.059,0,0,0,60.1,220.42h5.242A2.559,2.559,0,0,1,62.78,217.861Z" transform="translate(-59.039 -206.9)" fill="#f9d0b4"/>
          </g>
        </g>
        <g id="Grupo_1100815" data-name="Grupo 1100815" transform="translate(48.766 60.026)">
          <g id="Grupo_1100814" data-name="Grupo 1100814">
            <path id="Trazado_878586" data-name="Trazado 878586" d="M180.984,206.9l-4.709,1.152v7.791a1.183,1.183,0,0,1-1.183,1.183h1.769a.835.835,0,0,1,.835.835,2.559,2.559,0,0,1-2.559,2.559h5.242a1.058,1.058,0,0,0,1.057-1.118Z" transform="translate(-175.092 -206.9)" fill="#f9d0b4"/>
          </g>
        </g>
        <g id="Grupo_1100817" data-name="Grupo 1100817" transform="translate(31.683 34.703)">
          <g id="Grupo_1100816" data-name="Grupo 1100816">
            <path id="Trazado_878587" data-name="Trazado 878587" d="M122.791,119.785a.725.725,0,0,0-1.022.09,3,3,0,0,1-4.28,0,.725.725,0,1,0-1.112.932,4.445,4.445,0,0,0,6.5,0A.725.725,0,0,0,122.791,119.785Z" transform="translate(-116.208 -119.616)" fill="#00223d"/>
          </g>
        </g>
        <g id="Grupo_1100819" data-name="Grupo 1100819" transform="translate(37.941 28.761)">
          <g id="Grupo_1100818" data-name="Grupo 1100818">
            <path id="Trazado_878588" data-name="Trazado 878588" d="M138.982,99.135a1.2,1.2,0,1,0,1.2,1.2A1.2,1.2,0,0,0,138.982,99.135Z" transform="translate(-137.779 -99.135)" fill="#00223d"/>
          </g>
        </g>
        <g id="Grupo_1100821" data-name="Grupo 1100821" transform="translate(29.861 28.761)">
          <g id="Grupo_1100820" data-name="Grupo 1100820">
            <path id="Trazado_878589" data-name="Trazado 878589" d="M111.13,99.135a1.2,1.2,0,1,0,1.2,1.2A1.2,1.2,0,0,0,111.13,99.135Z" transform="translate(-109.927 -99.135)" fill="#00223d"/>
          </g>
        </g>
        <g id="Grupo_1100823" data-name="Grupo 1100823" transform="translate(57.759 55.413)">
          <g id="Grupo_1100822" data-name="Grupo 1100822">
            <path id="Trazado_878590" data-name="Trazado 878590" d="M207.074,191a.986.986,0,1,0,.986.986A.986.986,0,0,0,207.074,191Z" transform="translate(-206.088 -191)" fill="#fc657e"/>
          </g>
        </g>
        <g id="Grupo_1100825" data-name="Grupo 1100825" transform="translate(8.136 44.273)">
          <g id="Grupo_1100824" data-name="Grupo 1100824">
            <path id="Trazado_878591" data-name="Trazado 878591" d="M39.166,154.2H38.5v-.667a.935.935,0,0,0-.928-.928.917.917,0,0,0-.928.928v.667h-.667a.935.935,0,0,0-.928.928.917.917,0,0,0,.928.928h.667v.667a.935.935,0,0,0,.928.928.917.917,0,0,0,.928-.928v-.667h.667a.935.935,0,0,0,.928-.928A.917.917,0,0,0,39.166,154.2Z" transform="translate(-35.046 -152.6)" fill="#87d147"/>
          </g>
        </g>
        <g id="Grupo_1100827" data-name="Grupo 1100827" transform="translate(7.858 52.802)">
          <g id="Grupo_1100826" data-name="Grupo 1100826">
            <path id="Trazado_878592" data-name="Trazado 878592" d="M35.074,182a.986.986,0,1,0,.986.986A.986.986,0,0,0,35.074,182Z" transform="translate(-34.088 -182)" fill="#f5c84c"/>
          </g>
        </g>
        <g id="Grupo_1100829" data-name="Grupo 1100829" transform="translate(42.499 0)">
          <g id="Grupo_1100828" data-name="Grupo 1100828">
            <path id="Trazado_878593" data-name="Trazado 878593" d="M157.225,1.8A2.259,2.259,0,0,1,155.413.031c0-.041-.082-.041-.082,0A2.259,2.259,0,0,1,153.519,1.8c-.041,0-.041.061,0,.082a2.259,2.259,0,0,1,1.812,1.771c0,.041.082.041.082,0a2.258,2.258,0,0,1,1.812-1.771C157.265,1.863,157.265,1.8,157.225,1.8Z" transform="translate(-153.489 -0.001)" fill="#70d6f9"/>
          </g>
        </g>
        <g id="Grupo_1100831" data-name="Grupo 1100831" transform="translate(57.503 61.506)">
          <g id="Grupo_1100830" data-name="Grupo 1100830">
            <path id="Trazado_878594" data-name="Trazado 878594" d="M210.528,214.568a3.219,3.219,0,0,1-2.582-2.524c0-.058-.116-.058-.116,0a3.219,3.219,0,0,1-2.582,2.524c-.058,0-.058.087,0,.116a3.219,3.219,0,0,1,2.582,2.524c0,.058.116.058.116,0a3.219,3.219,0,0,1,2.582-2.524C210.586,214.655,210.586,214.568,210.528,214.568Z" transform="translate(-205.204 -212)" fill="#f5c84c"/>
          </g>
        </g>
        <g id="Grupo_1100833" data-name="Grupo 1100833" transform="translate(1.894 13.272)">
          <g id="Grupo_1100832" data-name="Grupo 1100832">
            <path id="Trazado_878595" data-name="Trazado 878595" d="M20.36,53.779l-5.511-7.728a.725.725,0,1,0-1.181.842l5.511,7.728a.725.725,0,1,0,1.181-.842Z" transform="translate(-13.533 -45.746)"/>
          </g>
        </g>
        <g id="Grupo_1100835" data-name="Grupo 1100835" transform="translate(1.894 13.272)">
          <g id="Grupo_1100834" data-name="Grupo 1100834">
            <path id="Trazado_878596" data-name="Trazado 878596" d="M20.19,45.881a.725.725,0,0,0-1.012.169l-5.511,7.728a.725.725,0,0,0,1.181.842l5.511-7.728A.726.726,0,0,0,20.19,45.881Z" transform="translate(-13.533 -45.746)"/>
          </g>
        </g>
        <g id="Grupo_1100837" data-name="Grupo 1100837" transform="translate(1.955 3.977)">
          <g id="Grupo_1100836" data-name="Grupo 1100836">
            <path id="Trazado_878597" data-name="Trazado 878597" d="M28.817,14.148a.725.725,0,0,0-.954-.377L14.18,19.7a.725.725,0,1,0,.576,1.331L28.44,15.1a.725.725,0,0,0,.377-.954Z" transform="translate(-13.742 -13.71)"/>
          </g>
        </g>
        <g id="Grupo_1100839" data-name="Grupo 1100839" transform="translate(1.955 3.977)">
          <g id="Grupo_1100838" data-name="Grupo 1100838">
            <path id="Trazado_878598" data-name="Trazado 878598" d="M28.44,19.7,14.756,13.77A.725.725,0,1,0,14.18,15.1l13.684,5.925A.725.725,0,1,0,28.44,19.7Z" transform="translate(-13.742 -13.71)"/>
          </g>
        </g>
        <g id="Grupo_1100841" data-name="Grupo 1100841" transform="translate(10.308 13.272)">
          <g id="Grupo_1100840" data-name="Grupo 1100840">
            <path id="Trazado_878599" data-name="Trazado 878599" d="M49.19,45.881a.725.725,0,0,0-1.012.169l-5.511,7.728a.725.725,0,0,0,1.181.842l5.511-7.728A.726.726,0,0,0,49.19,45.881Z" transform="translate(-42.533 -45.746)"/>
          </g>
        </g>
        <g id="Grupo_1100843" data-name="Grupo 1100843" transform="translate(10.308 13.272)">
          <g id="Grupo_1100842" data-name="Grupo 1100842">
            <path id="Trazado_878600" data-name="Trazado 878600" d="M49.36,53.779l-5.511-7.728a.725.725,0,1,0-1.181.842l5.511,7.728a.725.725,0,1,0,1.181-.842Z" transform="translate(-42.533 -45.746)"/>
          </g>
        </g>
        <g id="Grupo_1100845" data-name="Grupo 1100845" transform="translate(4.808 37.129)">
          <g id="Grupo_1100844" data-name="Grupo 1100844">
            <path id="Trazado_878601" data-name="Trazado 878601" d="M25.923,128.189a.725.725,0,0,0-1.026,0L23.787,129.3a.725.725,0,0,0,1.026,1.026l1.111-1.111A.726.726,0,0,0,25.923,128.189Z" transform="translate(-23.574 -127.976)"/>
          </g>
        </g>
        <g id="Grupo_1100847" data-name="Grupo 1100847" transform="translate(8.7 31.909)">
          <g id="Grupo_1100846" data-name="Grupo 1100846">
            <path id="Trazado_878602" data-name="Trazado 878602" d="M41.7,110.2a.725.725,0,0,0-1.026,0l-1.622,1.622L38.23,111a.725.725,0,1,0-1.026,1.026l1.335,1.335a.726.726,0,0,0,1.026,0l2.135-2.135A.726.726,0,0,0,41.7,110.2Z" transform="translate(-36.992 -109.984)"/>
          </g>
        </g>
        <g id="Grupo_1100849" data-name="Grupo 1100849" transform="translate(65.144 16.682)">
          <g id="Grupo_1100848" data-name="Grupo 1100848">
            <path id="Trazado_878603" data-name="Trazado 878603" d="M232.266,57.5a.725.725,0,0,0-.725.725v3.663a.725.725,0,0,0,1.451,0V58.225A.725.725,0,0,0,232.266,57.5Z" transform="translate(-231.541 -57.5)"/>
          </g>
        </g>
        <g id="Grupo_1100851" data-name="Grupo 1100851" transform="translate(61.187 16.682)">
          <g id="Grupo_1100850" data-name="Grupo 1100850">
            <path id="Trazado_878604" data-name="Trazado 878604" d="M218.627,57.5a.725.725,0,0,0-.725.725v3.663a.725.725,0,0,0,1.451,0V58.225A.725.725,0,0,0,218.627,57.5Z" transform="translate(-217.902 -57.5)"/>
          </g>
        </g>
        <g id="Grupo_1100853" data-name="Grupo 1100853" transform="translate(60.72 9.633)">
          <g id="Grupo_1100852" data-name="Grupo 1100852">
            <path id="Trazado_878605" data-name="Trazado 878605" d="M220.14,36.023l-2.607-2.607a.725.725,0,1,0-1.026,1.026l2.607,2.607a.725.725,0,1,0,1.026-1.026Z" transform="translate(-216.294 -33.203)"/>
          </g>
        </g>
        <g id="Grupo_1100855" data-name="Grupo 1100855" transform="translate(57.861 12.37)">
          <g id="Grupo_1100854" data-name="Grupo 1100854">
            <path id="Trazado_878606" data-name="Trazado 878606" d="M210.323,45.495l-2.644-2.645a.725.725,0,0,0-1.026,1.026L209.3,46.52a.725.725,0,1,0,1.026-1.026Z" transform="translate(-206.44 -42.637)"/>
          </g>
        </g>
        <g id="Grupo_1100857" data-name="Grupo 1100857" transform="translate(52.505 7.771)">
          <g id="Grupo_1100856" data-name="Grupo 1100856">
            <path id="Trazado_878607" data-name="Trazado 878607" d="M192.564,26.787H188.7a.725.725,0,0,0,0,1.451h3.859a.725.725,0,0,0,0-1.451Z" transform="translate(-187.979 -26.787)"/>
          </g>
        </g>
        <g id="Grupo_1100859" data-name="Grupo 1100859" transform="translate(52.493 11.728)">
          <g id="Grupo_1100858" data-name="Grupo 1100858">
            <path id="Trazado_878608" data-name="Trazado 878608" d="M192.525,40.426h-3.862a.725.725,0,0,0,0,1.451h3.862a.725.725,0,1,0,0-1.451Z" transform="translate(-187.937 -40.426)"/>
          </g>
        </g>
        <g id="Grupo_1100861" data-name="Grupo 1100861" transform="translate(52.522 31.347)">
          <g id="Grupo_1100860" data-name="Grupo 1100860">
            <path id="Trazado_878609" data-name="Trazado 878609" d="M195.278,117.444l-2.914-8.9a.725.725,0,0,0-1.379,0l-2.914,8.9a.725.725,0,1,0,1.379.452l2.225-6.791L193.9,117.9a.725.725,0,1,0,1.379-.452Z" transform="translate(-188.035 -108.049)"/>
          </g>
        </g>
        <g id="Grupo_1100863" data-name="Grupo 1100863" transform="translate(53.658 36.862)">
          <g id="Grupo_1100862" data-name="Grupo 1100862">
            <path id="Trazado_878610" data-name="Trazado 878610" d="M196.233,127.056h-3.555a.725.725,0,0,0,0,1.451h3.555a.725.725,0,0,0,0-1.451Z" transform="translate(-191.952 -127.056)"/>
          </g>
        </g>
        <g id="Grupo_1100866" data-name="Grupo 1100866" transform="translate(60.357 34.571)">
          <g id="Grupo_1100865" data-name="Grupo 1100865">
            <g id="Grupo_1100864" data-name="Grupo 1100864">
              <path id="Trazado_878611" data-name="Trazado 878611" d="M217.54,119.16h-.709a1.791,1.791,0,0,0-1.789,1.789.725.725,0,1,0,1.451,0,.338.338,0,0,1,.338-.338h.709a.338.338,0,0,1,.338.338V122h-1.069a1.769,1.769,0,0,0-1.767,1.767v.752a1.769,1.769,0,0,0,1.767,1.767H218.6a.725.725,0,0,0,.725-.725v-4.608A1.791,1.791,0,0,0,217.54,119.16Zm.338,5.672h-1.069a.317.317,0,0,1-.317-.317v-.752a.317.317,0,0,1,.317-.317h1.069Z" transform="translate(-215.042 -119.16)"/>
            </g>
          </g>
        </g>
        <g id="Grupo_1100868" data-name="Grupo 1100868" transform="translate(59.326 30.9)">
          <g id="Grupo_1100867" data-name="Grupo 1100867">
            <path id="Trazado_878612" data-name="Trazado 878612" d="M221.927,106.508h-9.712a.725.725,0,1,0,0,1.451h9.712a.725.725,0,0,0,0-1.451Z" transform="translate(-211.49 -106.508)"/>
          </g>
        </g>
        <g id="Grupo_1100870" data-name="Grupo 1100870" transform="translate(65.801 34.014)">
          <g id="Grupo_1100869" data-name="Grupo 1100869">
            <path id="Trazado_878613" data-name="Trazado 878613" d="M237.769,117.242h-3.237a.725.725,0,0,0,0,1.451h3.237a.725.725,0,1,0,0-1.451Z" transform="translate(-233.806 -117.242)"/>
          </g>
        </g>
        <g id="Grupo_1100872" data-name="Grupo 1100872" transform="translate(65.801 37.129)">
          <g id="Grupo_1100871" data-name="Grupo 1100871">
            <path id="Trazado_878614" data-name="Trazado 878614" d="M237.769,127.976h-3.237a.725.725,0,1,0,0,1.451h3.237a.725.725,0,1,0,0-1.451Z" transform="translate(-233.806 -127.976)"/>
          </g>
        </g>
        <g id="Grupo_1100874" data-name="Grupo 1100874" transform="translate(65.801 40.243)">
          <g id="Grupo_1100873" data-name="Grupo 1100873">
            <path id="Trazado_878615" data-name="Trazado 878615" d="M237.769,138.709h-3.237a.725.725,0,1,0,0,1.451h3.237a.725.725,0,1,0,0-1.451Z" transform="translate(-233.806 -138.709)"/>
          </g>
        </g>
        <g id="Grupo_1100877" data-name="Grupo 1100877" transform="translate(52.314 16.4)">
          <g id="Grupo_1100876" data-name="Grupo 1100876">
            <g id="Grupo_1100875" data-name="Grupo 1100875">
              <path id="Trazado_878616" data-name="Trazado 878616" d="M204.606,56.53H190.145a2.826,2.826,0,0,0,0,5.651h14.461a1.317,1.317,0,0,0,1.316-1.316v-3.02A1.317,1.317,0,0,0,204.606,56.53Zm-.135,4.2H190.145a1.375,1.375,0,0,1,0-2.75h14.326Z" transform="translate(-187.32 -56.53)"/>
            </g>
          </g>
        </g>
        <g id="Grupo_1100879" data-name="Grupo 1100879" transform="translate(52.929 6.617)">
          <g id="Grupo_1100878" data-name="Grupo 1100878">
            <path id="Trazado_878617" data-name="Trazado 878617" d="M203.874,25.33l-2.135-2.135a1.315,1.315,0,0,0-1.861,0L189.653,33.42a.725.725,0,0,0,1.026,1.026l10.13-10.13,1.944,1.944-6.416,6.416a.725.725,0,0,0,1.026,1.026l6.511-6.512a1.317,1.317,0,0,0,0-1.861Z" transform="translate(-189.44 -22.809)"/>
          </g>
        </g>
        <g id="Grupo_1100881" data-name="Grupo 1100881" transform="translate(52.314 3.449)">
          <g id="Grupo_1100880" data-name="Grupo 1100880">
            <path id="Trazado_878618" data-name="Trazado 878618" d="M191.656,11.889h-3.019a1.317,1.317,0,0,0-1.316,1.316V27.666a.725.725,0,1,0,1.451,0V13.34h2.75v9.135a.725.725,0,0,0,1.451,0V13.2A1.318,1.318,0,0,0,191.656,11.889Z" transform="translate(-187.321 -11.889)"/>
          </g>
        </g>
        <g id="Grupo_1100883" data-name="Grupo 1100883" transform="translate(14.372 47.598)">
          <g id="Grupo_1100882" data-name="Grupo 1100882">
            <path id="Trazado_878619" data-name="Trazado 878619" d="M63.566,189.285H58.324a.33.33,0,0,1-.242-.1.343.343,0,0,1-.09-.261l.733-20.151a3.069,3.069,0,0,1,2.326-2.818l1.82-.46a.725.725,0,1,0-.355-1.407l-1.82.459a4.517,4.517,0,0,0-3.42,4.158l-.733,20.151a1.784,1.784,0,0,0,1.781,1.883h5.242a.725.725,0,1,0,0-1.451Z" transform="translate(-56.541 -164.063)" fill="#00223d"/>
          </g>
        </g>
        <g id="Grupo_1100885" data-name="Grupo 1100885" transform="translate(48.086 47.601)">
          <g id="Grupo_1100884" data-name="Grupo 1100884">
            <path id="Trazado_878620" data-name="Trazado 878620" d="M180.494,188.874,179.76,168.7a4.513,4.513,0,0,0-3.419-4.144l-1.809-.457a.725.725,0,1,0-.355,1.407l1.809.457a3.065,3.065,0,0,1,2.325,2.8l.734,20.179a.333.333,0,0,1-.333.352h-5.241a.725.725,0,0,0,0,1.451h5.241a1.783,1.783,0,0,0,1.782-1.869Z" transform="translate(-172.746 -164.073)" fill="#00223d"/>
          </g>
        </g>
        <g id="Grupo_1100894" data-name="Grupo 1100894" transform="translate(18.113 47.179)">
          <g id="Grupo_1100887" data-name="Grupo 1100887" transform="translate(14.365 12.006)">
            <g id="Grupo_1100886" data-name="Grupo 1100886">
              <path id="Trazado_878621" data-name="Trazado 878621" d="M123.4,204h-3.732a.725.725,0,0,0,0,1.451H123.4a.725.725,0,0,0,0-1.451Z" transform="translate(-118.948 -203.999)"/>
            </g>
          </g>
          <g id="Grupo_1100890" data-name="Grupo 1100890" transform="translate(1.421)">
            <g id="Grupo_1100889" data-name="Grupo 1100889">
              <g id="Grupo_1100888" data-name="Grupo 1100888">
                <path id="Trazado_878622" data-name="Trazado 878622" d="M103.565,162.618H76.24a1.91,1.91,0,0,0-1.908,1.908v19.882a1.91,1.91,0,0,0,1.908,1.908h27.325a1.91,1.91,0,0,0,1.908-1.908V164.526a1.91,1.91,0,0,0-1.908-1.908Zm.457,21.791a.458.458,0,0,1-.457.457H76.24a.458.458,0,0,1-.457-.457V164.526a.458.458,0,0,1,.457-.457h27.325a.458.458,0,0,1,.457.457Z" transform="translate(-74.332 -162.618)"/>
              </g>
            </g>
          </g>
          <g id="Grupo_1100893" data-name="Grupo 1100893" transform="translate(0 22.248)">
            <g id="Grupo_1100892" data-name="Grupo 1100892">
              <g id="Grupo_1100891" data-name="Grupo 1100891">
                <path id="Trazado_878623" data-name="Trazado 878623" d="M101.857,239.3H70.994a1.562,1.562,0,0,0-1.56,1.56,3.288,3.288,0,0,0,3.285,3.284h27.414a3.288,3.288,0,0,0,3.284-3.284A1.562,1.562,0,0,0,101.857,239.3Zm-1.724,3.394H72.718a1.836,1.836,0,0,1-1.834-1.834.109.109,0,0,1,.109-.109h30.863a.109.109,0,0,1,.109.109A1.837,1.837,0,0,1,100.132,242.7Z" transform="translate(-69.434 -239.302)"/>
              </g>
            </g>
          </g>
        </g>
        <g id="Grupo_1100897" data-name="Grupo 1100897" transform="translate(4.601 26.754)">
          <g id="Grupo_1100896" data-name="Grupo 1100896">
            <g id="Grupo_1100895" data-name="Grupo 1100895">
              <path id="Trazado_878624" data-name="Trazado 878624" d="M34.082,94.141a6.571,6.571,0,1,0,0,9.3A6.582,6.582,0,0,0,34.082,94.141Zm-1.026,8.272a5.122,5.122,0,1,1,0-7.246A5.13,5.13,0,0,1,33.056,102.413Z" transform="translate(-22.862 -92.218)"/>
            </g>
          </g>
        </g>
        <g id="Grupo_1100900" data-name="Grupo 1100900" transform="translate(1.784 13.117)">
          <g id="Grupo_1100899" data-name="Grupo 1100899">
            <g id="Grupo_1100898" data-name="Grupo 1100898">
              <path id="Trazado_878625" data-name="Trazado 878625" d="M19.61,45.214H13.878a.725.725,0,0,0-.725.725v8.037a.725.725,0,0,0,.725.725H19.61a.725.725,0,0,0,.725-.725V45.939A.725.725,0,0,0,19.61,45.214Zm-.725,8.037H14.6V46.665h4.281Z" transform="translate(-13.153 -45.214)"/>
            </g>
          </g>
        </g>
        <g id="Grupo_1100903" data-name="Grupo 1100903" transform="translate(1.784 3.859)">
          <g id="Grupo_1100902" data-name="Grupo 1100902">
            <g id="Grupo_1100901" data-name="Grupo 1100901">
              <path id="Trazado_878626" data-name="Trazado 878626" d="M28.023,13.3H13.878a.725.725,0,0,0-.725.725v6.163a.725.725,0,0,0,.725.725H28.023a.725.725,0,0,0,.725-.725V14.028A.725.725,0,0,0,28.023,13.3ZM27.3,19.465H14.6V14.754H27.3Z" transform="translate(-13.153 -13.303)"/>
            </g>
          </g>
        </g>
        <g id="Grupo_1100906" data-name="Grupo 1100906" transform="translate(10.198 13.117)">
          <g id="Grupo_1100905" data-name="Grupo 1100905">
            <g id="Grupo_1100904" data-name="Grupo 1100904">
              <path id="Trazado_878627" data-name="Trazado 878627" d="M48.61,45.214H42.878a.725.725,0,0,0-.725.725v8.037a.725.725,0,0,0,.725.725H48.61a.725.725,0,0,0,.725-.725V45.939A.725.725,0,0,0,48.61,45.214Zm-.725,8.037H43.6V46.665h4.281Z" transform="translate(-42.153 -45.214)"/>
            </g>
          </g>
        </g>
        <g id="Grupo_1100909" data-name="Grupo 1100909" transform="translate(0 37.874)">
          <g id="Grupo_1100908" data-name="Grupo 1100908">
            <g id="Grupo_1100907" data-name="Grupo 1100907">
              <path id="Trazado_878628" data-name="Trazado 878628" d="M13.045,131.564l-.435-.435a1.989,1.989,0,0,0-2.812,0l-2.212,2.212a1.991,1.991,0,0,0,0,2.812l.435.435a1.991,1.991,0,0,0,2.812,0l2.212-2.212a1.988,1.988,0,0,0,0-2.812Zm-1.026,1.787-2.212,2.212a.539.539,0,0,1-.761,0l-.435-.435a.539.539,0,0,1,0-.761l2.212-2.212a.539.539,0,0,1,.761,0l.435.435a.538.538,0,0,1,0,.761Z" transform="translate(-7.004 -130.546)"/>
            </g>
          </g>
        </g>
        <g id="Grupo_1100911" data-name="Grupo 1100911" transform="translate(57.215 16.682)">
          <g id="Grupo_1100910" data-name="Grupo 1100910">
            <path id="Trazado_878629" data-name="Trazado 878629" d="M204.936,57.5a.725.725,0,0,0-.725.725v3.663a.725.725,0,0,0,1.451,0V58.225A.725.725,0,0,0,204.936,57.5Z" transform="translate(-204.211 -57.5)"/>
          </g>
        </g>
        <g id="Grupo_1100913" data-name="Grupo 1100913" transform="translate(43.665 24.288)">
          <g id="Grupo_1100912" data-name="Grupo 1100912">
            <path id="Trazado_878630" data-name="Trazado 878630" d="M158.121,83.773a.725.725,0,1,0,.223,1.434,3.151,3.151,0,1,1,.485,6.265,2.894,2.894,0,0,1-.382-.027.725.725,0,0,0-.188,1.438,4.343,4.343,0,0,0,.57.039,4.6,4.6,0,1,0-.707-9.149Z" transform="translate(-157.507 -83.716)" fill="#00223d"/>
          </g>
        </g>
        <g id="Grupo_1100916" data-name="Grupo 1100916" transform="translate(25.092 21.042)">
          <g id="Grupo_1100915" data-name="Grupo 1100915">
            <g id="Grupo_1100914" data-name="Grupo 1100914">
              <path id="Trazado_878631" data-name="Trazado 878631" d="M112.383,74.661a7.1,7.1,0,0,1-3.064-1.78,1.354,1.354,0,0,0-.992-.35,1.326,1.326,0,0,0-.931.464h0c-1.3,1.518-6.08,6.319-12.978,4.354a.725.725,0,0,0-.924.7v5.53a10.012,10.012,0,1,0,20.023,0v-7.5a1.45,1.45,0,0,0-1.133-1.414Zm-.318,8.916a8.561,8.561,0,0,1-17.122,0v-4.6c7.1,1.52,12-3.251,13.479-4.95a8.415,8.415,0,0,0,3.643,2.05Z" transform="translate(-93.492 -72.527)" fill="#00223d"/>
            </g>
          </g>
        </g>
        <g id="Grupo_1100918" data-name="Grupo 1100918" transform="translate(20.619 25.022)">
          <g id="Grupo_1100917" data-name="Grupo 1100917">
            <path id="Trazado_878632" data-name="Trazado 878632" d="M81.015,87.736a15.9,15.9,0,0,0,2.058.747.725.725,0,0,0,.4-1.395,14.414,14.414,0,0,1-1.87-.679,1.9,1.9,0,0,0-2.073.355,4.6,4.6,0,0,0,3.148,7.954,4.267,4.267,0,0,0,.478-.028.725.725,0,1,0-.163-1.442,2.747,2.747,0,0,1-.314.019,3.156,3.156,0,0,1-3.152-3.152,3.115,3.115,0,0,1,1-2.294A.455.455,0,0,1,81.015,87.736Z" transform="translate(-78.073 -86.246)" fill="#00223d"/>
          </g>
        </g>
        <g id="Grupo_1100920" data-name="Grupo 1100920" transform="translate(21.751 10.53)">
          <g id="Grupo_1100919" data-name="Grupo 1100919">
            <path id="Trazado_878633" data-name="Trazado 878633" d="M95.328,36.295A13.368,13.368,0,0,0,81.975,49.648V51.9a.725.725,0,1,0,1.451,0V49.648a11.9,11.9,0,1,1,23.8,0v2.2a.725.725,0,0,0,1.451,0v-2.2A13.368,13.368,0,0,0,95.328,36.295Z" transform="translate(-81.975 -36.295)" fill="#00223d"/>
          </g>
        </g>
        <g id="Grupo_1100922" data-name="Grupo 1100922" transform="translate(21.511 39.717)">
          <g id="Grupo_1100921" data-name="Grupo 1100921">
            <path id="Trazado_878634" data-name="Trazado 878634" d="M90.325,136.9a.725.725,0,0,0-.725.725v2.627a1.845,1.845,0,0,1-1.035,1.665l-2.3,1.132a7.389,7.389,0,0,1-1.463.538l-3.107.784a.725.725,0,1,0,.355,1.407l3.107-.784a8.851,8.851,0,0,0,1.75-.644l2.3-1.132a3.286,3.286,0,0,0,1.845-2.966v-2.627A.726.726,0,0,0,90.325,136.9Z" transform="translate(-81.149 -136.896)" fill="#00223d"/>
          </g>
        </g>
        <g id="Grupo_1100924" data-name="Grupo 1100924" transform="translate(38.796 39.683)">
          <g id="Grupo_1100923" data-name="Grupo 1100923">
            <path id="Trazado_878635" data-name="Trazado 878635" d="M150.072,144.285l-3.1-.783a7.413,7.413,0,0,1-1.463-.538l-2.3-1.132a1.845,1.845,0,0,1-1.035-1.665v-2.66a.725.725,0,0,0-1.451,0v2.66a3.287,3.287,0,0,0,1.845,2.966l2.3,1.132a8.849,8.849,0,0,0,1.749.643l3.1.783a.726.726,0,0,0,.355-1.407Z" transform="translate(-140.725 -136.782)" fill="#00223d"/>
          </g>
        </g>
        <g id="Grupo_1100926" data-name="Grupo 1100926" transform="translate(44.046 30.42)">
          <g id="Grupo_1100925" data-name="Grupo 1100925">
            <path id="Trazado_878636" data-name="Trazado 878636" d="M163.5,112.8a7.584,7.584,0,0,0,.291-7.532.725.725,0,1,0-1.307.63,6.079,6.079,0,0,1-.207,6.122,1.806,1.806,0,0,0-.085,1.823,4.579,4.579,0,0,1-.043,4.717,5.646,5.646,0,0,1-2.86,2.188.725.725,0,1,0,.52,1.354,7.056,7.056,0,0,0,3.566-2.768,6.075,6.075,0,0,0,.1-6.177.353.353,0,0,1,.03-.357Z" transform="translate(-158.821 -104.854)" fill="#00223d"/>
          </g>
        </g>
        <g id="Grupo_1100928" data-name="Grupo 1100928" transform="translate(20.323 30.315)">
          <g id="Grupo_1100927" data-name="Grupo 1100927">
            <path id="Trazado_878637" data-name="Trazado 878637" d="M82.445,120.5a5.654,5.654,0,0,1-2.877-2.195,4.578,4.578,0,0,1-.043-4.717,1.808,1.808,0,0,0-.085-1.823,6.1,6.1,0,0,1-.16-6.219.725.725,0,1,0-1.3-.647,7.6,7.6,0,0,0,.235,7.646.353.353,0,0,1,.03.358,6.075,6.075,0,0,0,.1,6.177,7.066,7.066,0,0,0,3.586,2.776.725.725,0,1,0,.517-1.355Z" transform="translate(-77.055 -104.492)" fill="#00223d"/>
          </g>
        </g>
        <g id="Grupo_1100930" data-name="Grupo 1100930" transform="translate(14.949 59.331)">
          <g id="Grupo_1100929" data-name="Grupo 1100929" transform="translate(0)">
            <path id="Trazado_878638" data-name="Trazado 878638" d="M63.777,205.589l-4.348-1.064a.725.725,0,1,0-.345,1.409L63.432,207a.725.725,0,1,0,.345-1.409Z" transform="translate(-58.531 -204.505)" fill="#00223d"/>
          </g>
        </g>
        <g id="Grupo_1100932" data-name="Grupo 1100932" transform="translate(49.463 59.35)">
          <g id="Grupo_1100931" data-name="Grupo 1100931">
            <path id="Trazado_878639" data-name="Trazado 878639" d="M183.193,205.121a.725.725,0,0,0-.877-.532l-4.271,1.045a.725.725,0,1,0,.345,1.409L182.661,206a.725.725,0,0,0,.532-.877Z" transform="translate(-177.492 -204.568)" fill="#00223d"/>
          </g>
        </g>
      </g>
    </g>
  </g>
</svg>
