<svg xmlns="http://www.w3.org/2000/svg" width="67" height="59.184" viewBox="0 0 67 59.184">
  <g id="Grupo_1101895" data-name="Grupo 1101895" transform="translate(-180 -3974.137)">
    <g id="Grupo_1100028" data-name="Grupo 1100028" transform="translate(0 223.985)">
      <path id="_12068" data-name="12068" d="M66.039,71.828c-6.861-.947-14.108-.716-20.351,2.283C37.03,78.27,31.344,87.7,31.126,97.3s4.784,19.038,12.512,24.741a35.81,35.81,0,0,0,27.37,6.013c9.53-1.727,18.474-7.326,23.445-15.638,3.187-5.33,4.677-11.911,2.916-17.867a24.409,24.409,0,0,0-5.793-9.521A42.8,42.8,0,0,0,66.039,71.828Z" transform="translate(148.881 3680.691)" fill="#26aab7"/>
      <path id="Trazado_873155" data-name="Trazado 873155" d="M303.26,44.546a1.582,1.582,0,1,0-.106-2.456A1.573,1.573,0,0,0,303.26,44.546Z" transform="translate(138.287 4055.916) rotate(-90)" fill="#7d6eb2"/>
      <path id="Trazado_873156" data-name="Trazado 873156" d="M321.56,66.974a3.448,3.448,0,1,0-1.687-4.918A3.468,3.468,0,0,0,321.56,66.974Z" transform="translate(128.241 4079.581) rotate(-90)" fill="#ffd947"/>
      <circle id="Elipse_11521" data-name="Elipse 11521" cx="3.689" cy="3.689" r="3.689" transform="translate(237.702 3796.368) rotate(-90)" fill="none" stroke="#fff" stroke-linecap="round" stroke-linejoin="round" stroke-width="1.5"/>
    </g>
    <g id="segmentacion" transform="translate(182.38 3975.466)">
      <path id="Trazado_876247" data-name="Trazado 876247" d="M280.9,35.9a24.9,24.9,0,0,0-24.9-24.9V35.9Z" transform="translate(-226.375 -6.29)" fill="#fcdb35" fill-rule="evenodd"/>
      <path id="Trazado_876248" data-name="Trazado 876248" d="M255.994,35.813v22.38h22.38A22.38,22.38,0,0,0,255.994,35.813Z" transform="translate(-226.374 -28.58)" fill="#ffeb87" fill-rule="evenodd"/>
      <path id="Trazado_876249" data-name="Trazado 876249" d="M60.8,35.9A24.9,24.9,0,1,1,35.9,11V35.9Z" transform="translate(-6.276 -6.29)" fill="#b6dbff" fill-rule="evenodd"/>
      <path id="Trazado_876250" data-name="Trazado 876250" d="M80.565,58.193a22.38,22.38,0,1,1-22.38-22.38v22.38h22.38Z" transform="translate(-28.566 -28.581)" fill="#e3f1ff" fill-rule="evenodd"/>
      <path id="Trazado_876251" data-name="Trazado 876251" d="M280.9,256a24.9,24.9,0,0,1-24.9,24.9V256Z" transform="translate(-226.375 -226.389)" fill="#43f043" fill-rule="evenodd"/>
      <path id="Trazado_876252" data-name="Trazado 876252" d="M255.994,278.381V256h22.38A22.38,22.38,0,0,1,255.994,278.381Z" transform="translate(-226.375 -226.389)" fill="#adffad" fill-rule="evenodd"/>
      <path id="Trazado_876253" data-name="Trazado 876253" d="M10.994,35.9A24.9,24.9,0,0,1,35.9,11V35.9Z" transform="translate(-6.276 -6.29)" fill="#4eb1fc" fill-rule="evenodd"/>
      <path id="Trazado_876254" data-name="Trazado 876254" d="M58.186,35.813v22.38H35.806A22.38,22.38,0,0,1,58.186,35.813Z" transform="translate(-28.566 -28.58)" fill="#85caff" fill-rule="evenodd"/>
      <circle id="Elipse_11820" data-name="Elipse 11820" cx="6.318" cy="6.318" r="6.318" transform="translate(34.202 45.426) rotate(-87.822)" fill="#4eb1fc"/>
      <g id="Grupo_1100037" data-name="Grupo 1100037" transform="translate(4.008 3.999)">
        <path id="Trazado_876255" data-name="Trazado 876255" d="M309.36,302.57a6.318,6.318,0,1,1,5.746-6.292A6.318,6.318,0,0,1,309.36,302.57Z" transform="translate(-273.163 -260.919)" fill="#85caff" fill-rule="evenodd"/>
        <path id="Trazado_876256" data-name="Trazado 876256" d="M326.735,105.146v8.867a.444.444,0,0,1-.443.443h-9.074a.444.444,0,0,1-.443-.443V102.182a.444.444,0,0,1,.443-.443h6.111l3.407,3.407Z" transform="translate(-284.985 -91.805)" fill="#eceff1" fill-rule="evenodd"/>
        <path id="Trazado_876257" data-name="Trazado 876257" d="M317.459,114.457h-.241a.444.444,0,0,1-.443-.443V102.182a.444.444,0,0,1,.443-.443h.241Z" transform="translate(-284.985 -91.805)" fill="#d1d1d6" fill-rule="evenodd"/>
        <path id="Trazado_876258" data-name="Trazado 876258" d="M381.254,101.74l3.407,3.407h-3.407Z" transform="translate(-342.911 -91.806)" fill="#b3aab3" fill-rule="evenodd"/>
        <path id="Trazado_876259" data-name="Trazado 876259" d="M101.292,102.558H94.154l-.44-.762a.97.97,0,0,0-.86-.5H90.037a1,1,0,0,0-.993.993v7.45h13.24V103.55a1,1,0,0,0-.993-.993Z" transform="translate(-80.401 -91.41)" fill="#f9ac00" fill-rule="evenodd"/>
        <path id="Trazado_876260" data-name="Trazado 876260" d="M96.907,126.231l.3-.524a1.73,1.73,0,0,1,1.518-.877h3.314a1.756,1.756,0,0,1,.244.017v5.2H89.045v-3.8a1.753,1.753,0,0,1,.244-.017h7.618Z" transform="translate(-80.402 -112.55)" fill="#f99500" fill-rule="evenodd"/>
        <path id="Trazado_876261" data-name="Trazado 876261" d="M82.671,136.251h8.057l.522-.9a.969.969,0,0,1,.86-.5h3.314a1,1,0,0,1,.993.993v7.412a1,1,0,0,1-.993.993H82.671a1,1,0,0,1-.993-.993v-6.012A1,1,0,0,1,82.671,136.251Z" transform="translate(-73.784 -121.551)" fill="#fcdb35" fill-rule="evenodd"/>
        <path id="Trazado_876262" data-name="Trazado 876262" d="M91.82,136.25h8.057l.522-.9a.97.97,0,0,1,.86-.5h2.384a1,1,0,0,1,.993.993v7.412a.994.994,0,0,1-.993.993H91.82a.994.994,0,0,1-.993-.993v-6.012a1,1,0,0,1,.993-.993Z" transform="translate(-82.003 -121.55)" fill="#ffeb87" fill-rule="evenodd"/>
        <path id="Trazado_876263" data-name="Trazado 876263" d="M155.395,320.886a4.287,4.287,0,0,1,4.269,3.9v.709h-8.538v-.709a4.287,4.287,0,0,1,4.269-3.9Z" transform="translate(-136.173 -288.678)" fill="#2a92fa" fill-rule="evenodd"/>
        <path id="Trazado_876264" data-name="Trazado 876264" d="M158.506,325.837h-7.38v-.709a3.694,3.694,0,1,1,7.38,0Z" transform="translate(-136.173 -289.023)" fill="#4eb1fc" fill-rule="evenodd"/>
        <path id="Trazado_876265" data-name="Trazado 876265" d="M175.082,284.661a2.042,2.042,0,1,0-2.042-2.042A2.045,2.045,0,0,0,175.082,284.661Z" transform="translate(-155.86 -252.467)" fill="#fdb0a0" fill-rule="evenodd"/>
        <path id="Trazado_876266" data-name="Trazado 876266" d="M174.519,285.278A2.042,2.042,0,1,1,176,283.315,2.042,2.042,0,0,1,174.519,285.278Z" transform="translate(-155.86 -253.162)" fill="#ffcec0" fill-rule="evenodd"/>
        <path id="Trazado_876267" data-name="Trazado 876267" d="M72.249,320.886a4.287,4.287,0,0,1,4.269,3.9v.709H67.98v-.709A4.287,4.287,0,0,1,72.249,320.886Z" transform="translate(-61.478 -288.678)" fill="#2a92fa" fill-rule="evenodd"/>
        <path id="Trazado_876268" data-name="Trazado 876268" d="M75.36,325.837H67.98v-.709a4.288,4.288,0,0,1,3.69-3.858,4.288,4.288,0,0,1,3.69,3.858Z" transform="translate(-61.478 -289.023)" fill="#4eb1fc" fill-rule="evenodd"/>
        <path id="Trazado_876269" data-name="Trazado 876269" d="M91.936,284.661a2.042,2.042,0,1,0-2.042-2.042A2.045,2.045,0,0,0,91.936,284.661Z" transform="translate(-81.165 -252.467)" fill="#fdb0a0" fill-rule="evenodd"/>
        <path id="Trazado_876270" data-name="Trazado 876270" d="M91.373,285.278a2.042,2.042,0,0,1,0-3.926,2.042,2.042,0,0,1,0,3.926Z" transform="translate(-81.165 -253.162)" fill="#ffcec0" fill-rule="evenodd"/>
        <path id="Trazado_876271" data-name="Trazado 876271" d="M113.822,378.855a4.287,4.287,0,0,1,4.269,3.9v.709h-8.538v-.709A4.287,4.287,0,0,1,113.822,378.855Z" transform="translate(-98.826 -340.755)" fill="#2a92fa" fill-rule="evenodd"/>
        <path id="Trazado_876272" data-name="Trazado 876272" d="M116.933,383.806h-7.38V383.1a4.288,4.288,0,0,1,3.69-3.858,4.288,4.288,0,0,1,3.69,3.858Z" transform="translate(-98.826 -341.1)" fill="#4eb1fc" fill-rule="evenodd"/>
        <path id="Trazado_876273" data-name="Trazado 876273" d="M133.509,342.63a2.042,2.042,0,1,0-2.042-2.042A2.045,2.045,0,0,0,133.509,342.63Z" transform="translate(-118.512 -304.544)" fill="#fdb0a0" fill-rule="evenodd"/>
        <path id="Trazado_876274" data-name="Trazado 876274" d="M132.946,343.248a2.042,2.042,0,1,1,1.479-1.963A2.042,2.042,0,0,1,132.946,343.248Z" transform="translate(-118.512 -305.24)" fill="#ffcec0" fill-rule="evenodd"/>
        <path id="Trazado_876275" data-name="Trazado 876275" d="M44,36.871a.718.718,0,0,1,0,1.006l-3.973,3.968a.7.7,0,0,1-.5.208.734.734,0,0,1-.093-.006.712.712,0,0,1-.524-.35l-1.465-2.534a.712.712,0,1,1,1.235-.711l1,1.731,3.312-3.312A.713.713,0,0,1,44,36.871ZM40.78,44.965a5.606,5.606,0,1,0-5.609-5.606A5.615,5.615,0,0,0,40.78,44.965Zm0-12.636a7.029,7.029,0,1,0,7.025,7.029A7.035,7.035,0,0,0,40.78,32.329ZM21.738,40.058a2.725,2.725,0,0,0-1-2.1,3.532,3.532,0,0,1,6.006,2.1h-5Zm.774,5.892H15.5a3.53,3.53,0,0,1,7.015,0Zm-7.731-9.028a3.513,3.513,0,0,1,2.494,1.034,2.721,2.721,0,0,0-1,2.1H11.268a3.515,3.515,0,0,1,3.513-3.137Zm0-4.055a1.31,1.31,0,1,1-1.313,1.31A1.311,1.311,0,0,1,14.781,32.865Zm5.531,7.2A1.308,1.308,0,1,1,19,38.758,1.308,1.308,0,0,1,20.312,40.067Zm2.92-7.2a1.31,1.31,0,1,1-1.313,1.31A1.311,1.311,0,0,1,23.232,32.865ZM28.165,40a4.934,4.934,0,0,0-2.856-4.056,2.732,2.732,0,1,0-4.154,0,4.974,4.974,0,0,0-1.793,1.407,2.679,2.679,0,0,0-.715,0,4.933,4.933,0,0,0-1.793-1.407,2.732,2.732,0,0,0-2.072-4.508,2.738,2.738,0,0,0-2.734,2.733,2.7,2.7,0,0,0,.656,1.772A4.915,4.915,0,0,0,9.848,40a.268.268,0,0,0,0,.063v.7a.711.711,0,0,0,.71.711h6.114a3.148,3.148,0,0,0,.26.359A4.924,4.924,0,0,0,14.071,45.9c0,.021,0,.042,0,.063v.7a.712.712,0,0,0,.715.711h8.451a.711.711,0,0,0,.71-.711v-.7a.272.272,0,0,0,0-.063,4.915,4.915,0,0,0-2.856-4.056,2.647,2.647,0,0,0,.26-.359h6.114a.711.711,0,0,0,.71-.711V40Zm9.823-16.931h5.58V24.5h-5.58Zm0-2.683h5.58v1.423h-5.58Zm-1.5-5.77V25.965h8.578V18.04H42.358a.711.711,0,0,1-.71-.711V14.62Zm6.579,1,.995.992h-.995ZM35.274,27.18a.712.712,0,0,0,.5.208h10a.712.712,0,0,0,.71-.711V17.328a.712.712,0,0,0-.206-.5l-3.42-3.42a.723.723,0,0,0-.5-.209H35.778a.711.711,0,0,0-.71.712V26.677A.713.713,0,0,0,35.274,27.18ZM13.654,14.62h2.812a.251.251,0,0,1,.24.139l.441.76a.712.712,0,0,0,.617.356h7.123a.278.278,0,0,1,.279.279v.43H22.33a1.679,1.679,0,0,0-1.475.851l-.318.547H13.375V14.9a.278.278,0,0,1,.279-.279ZM25.916,25.686a.281.281,0,0,1-.279.279H12.9a.281.281,0,0,1-.279-.279v-6a.281.281,0,0,1,.279-.28h8.044a.712.712,0,0,0,.617-.356l.519-.9a.259.259,0,0,1,.245-.139h3.307a.281.281,0,0,1,.279.279v7.4ZM12.9,27.388H25.637a1.7,1.7,0,0,0,1.7-1.7v-7.4a1.7,1.7,0,0,0-.745-1.408v-.724a1.706,1.706,0,0,0-1.7-1.7H18.176l-.235-.4a1.683,1.683,0,0,0-1.475-.852H13.654a1.7,1.7,0,0,0-1.7,1.7v3.376a1.7,1.7,0,0,0-.745,1.409v6a1.7,1.7,0,0,0,1.7,1.7Zm17.426,26.4A24.214,24.214,0,0,0,53.8,30.323H30.331ZM5.443,30.323A24.215,24.215,0,0,0,28.91,53.791V30.323ZM28.91,5.433A24.214,24.214,0,0,0,5.443,28.9H28.91ZM53.8,28.9A24.214,24.214,0,0,0,30.33,5.433V28.9ZM47.732,11.5A25.613,25.613,0,0,0,11.508,47.723,25.613,25.613,0,0,0,47.732,11.5Z" transform="translate(-4.008 -3.999)" fill-rule="evenodd"/>
      </g>
    </g>
  </g>
</svg>
