<svg xmlns="http://www.w3.org/2000/svg" width="78.501" height="73.133" viewBox="0 0 78.501 73.133">
  <g id="Grupo_1101895" data-name="Grupo 1101895" transform="translate(-244 -28567.5)">
    <path id="_12068" data-name="12068" d="M72.033,71.913c-8.038-1.11-16.53-.839-23.844,2.675C38.045,79.46,31.382,90.507,31.127,101.757s5.606,22.305,14.66,28.988,21,9.051,32.068,7.045c11.165-2.023,21.645-8.583,27.469-18.322,3.735-6.245,5.48-13.956,3.417-20.934a28.6,28.6,0,0,0-6.787-11.156A50.145,50.145,0,0,0,72.033,71.913Z" transform="translate(212.881 28502.152)" fill="#26aab7"/>
    <g id="descripcion-del-trabajo" transform="translate(245.5 28568.5)">
      <g id="Grupo_1100577" data-name="Grupo 1100577" transform="translate(1.164 1.195)">
        <g id="Grupo_1100565" data-name="Grupo 1100565" transform="translate(25.95 2.359)">
          <path id="Trazado_878057" data-name="Trazado 878057" d="M4.359,34.669A4.717,4.717,0,0,0,9.077,29.95V25.232l2.359-2.359A14.077,14.077,0,0,1,9.1,15.8h3.716a3.336,3.336,0,0,0,2.359-5.7l-.2-.2.672-1.356a4.767,4.767,0,0,0,.507-2.123A4.675,4.675,0,0,0,15.494,4h30.15a1.183,1.183,0,0,1,1.18,1.18V66.517a1.183,1.183,0,0,1-1.18,1.18H27.95V47.644a1.206,1.206,0,0,0-.519-.979,1.15,1.15,0,0,0-.661-.2H14.338A19.115,19.115,0,0,0,4.265,39.859,15.73,15.73,0,0,0,2,39.387V34.669Z" transform="translate(-2 -4)" fill="#e6e9ed"/>
        </g>
        <g id="Grupo_1100566" data-name="Grupo 1100566" transform="translate(16.514 44.823)">
          <path id="Trazado_878058" data-name="Trazado 878058" d="M43.539,40,40,58.873h9.436L45.9,40Z" transform="translate(-40 -40)" fill="#26aab7"/>
        </g>
        <g id="Grupo_1100567" data-name="Grupo 1100567" transform="translate(18.944 40.105)">
          <path id="Trazado_878059" data-name="Trazado 878059" d="M42.06,37.38l1.109,3.338h2.359l1.109-3.338L44.348,36Z" transform="translate(-42.06 -36)" fill="#26aab7"/>
        </g>
        <g id="Grupo_1100568" data-name="Grupo 1100568" transform="translate(0 38.218)">
          <path id="Trazado_878060" data-name="Trazado 878060" d="M43.789,34.4l1.085,5.426,3.609-2.159,1.109,3.338L46.054,59.879H55.49L51.952,41.006l1.109-3.338,3.609,2.159L57.755,34.4a19.115,19.115,0,0,1,10.073,6.606h-3.9a1.175,1.175,0,0,0-1.18,1.18V57.519a2.186,2.186,0,0,0-1.958,1.2l-.578,1.156v7.077H41.336a11.8,11.8,0,0,1-11.8-11.8V52.966A19.229,19.229,0,0,1,43.789,34.4Z" transform="translate(-29.54 -34.4)" fill="#7d6eb2"/>
        </g>
        <g id="Grupo_1100569" data-name="Grupo 1100569" transform="translate(14.249 37.746)">
          <path id="Trazado_878061" data-name="Trazado 878061" d="M46.265,34A19.728,19.728,0,0,0,44,34.46v.012L45.085,39.9l3.609-2.159,2.288-1.38Z" transform="translate(-44 -34)" fill="#fc6e51"/>
        </g>
        <g id="Grupo_1100570" data-name="Grupo 1100570" transform="translate(21.232 37.746)">
          <path id="Trazado_878062" data-name="Trazado 878062" d="M38.08,36.359l2.288,1.38L43.978,39.9l1.085-5.426A15.729,15.729,0,0,0,42.8,34Z" transform="translate(-38.08 -34)" fill="#fc6e51"/>
        </g>
        <g id="Grupo_1100571" data-name="Grupo 1100571" transform="translate(4.718)">
          <path id="Trazado_878063" data-name="Trazado 878063" d="M43.676,11.507l9.118,2.029a10.423,10.423,0,0,0,2.336.26,3.129,3.129,0,0,0,1.109-.189l.071.189v1.64c0,.236.012.484.024.72h3.716a3.336,3.336,0,0,0,2.359-5.7l-.2-.2L62.88,8.9a4.767,4.767,0,0,0,.507-2.123,4.675,4.675,0,0,0-.661-2.418A4.753,4.753,0,0,0,58.61,2H43.936A15.936,15.936,0,0,0,33.98,30.38L39.8,35.028V27.95l-2.949-2.029a4.1,4.1,0,0,1-1.769-3.374v-.083A3.962,3.962,0,0,1,39.1,18.5c.425.012.7.012.7.012V14.621a3.187,3.187,0,0,1,3.185-3.185,3.4,3.4,0,0,1,.7.071Z" transform="translate(-28 -2)" fill="#656d78"/>
        </g>
        <g id="Grupo_1100572" data-name="Grupo 1100572" transform="translate(33.028 44.823)">
          <path id="Trazado_878064" data-name="Trazado 878064" d="M18.177,41.18A1.175,1.175,0,0,1,19.356,40H35.693a1.15,1.15,0,0,1,.661.2,1.206,1.206,0,0,1,.519.979V64.771a1.183,1.183,0,0,1-1.18,1.18H18Z" transform="translate(-18 -40)" fill="#ffd947"/>
        </g>
        <g id="Grupo_1100573" data-name="Grupo 1100573" transform="translate(30.669 61.337)">
          <path id="Trazado_878065" data-name="Trazado 878065" d="M28,56.359v7.077h5.9a3.539,3.539,0,1,0,0-7.077h-1.18v-.177a2.187,2.187,0,0,0-4.14-.979Z" transform="translate(-28 -54)" fill="#f0d0b4"/>
        </g>
        <g id="Grupo_1100574" data-name="Grupo 1100574" transform="translate(11.796 9.436)">
          <path id="Trazado_878066" data-name="Trazado 878066" d="M46.155,33.591h2.359a4.717,4.717,0,0,0,4.718-4.718H50.873a4.717,4.717,0,0,1-4.718-4.718h7.077L55.591,21.8a14.077,14.077,0,0,1-2.336-7.077c-.012-.236-.024-.484-.024-.72v-1.64l-.071-.189a3.129,3.129,0,0,1-1.109.189,10.423,10.423,0,0,1-2.336-.26L40.6,10.071A3.4,3.4,0,0,0,39.9,10a3.187,3.187,0,0,0-3.185,3.185v3.893s-.271,0-.7-.012A3.962,3.962,0,0,0,32,21.029v.083a4.1,4.1,0,0,0,1.769,3.374l2.949,2.029v11.8l4.718,2.359,4.718-2.359Z" transform="translate(-32 -10)" fill="#f0d0b4"/>
        </g>
        <g id="Grupo_1100575" data-name="Grupo 1100575" transform="translate(25.95 23.591)">
          <path id="Trazado_878067" data-name="Trazado 878067" d="M41.077,22H34a4.717,4.717,0,0,0,4.718,4.718h2.359Z" transform="translate(-34 -22)" fill="#ff826e"/>
        </g>
        <g id="Grupo_1100576" data-name="Grupo 1100576" transform="translate(47.182 9.436)">
          <path id="Trazado_878068" data-name="Trazado 878068" d="M6,17.077V21.8H8.772c.142.33.142.354.283.684L7.1,24.438l3.338,3.338,1.958-1.958c.33.142.354.142.684.283v2.772H17.8V26.1c.33-.142.354-.153.684-.283l1.958,1.958,3.338-3.338L21.818,22.48c.13-.33.142-.354.283-.684h2.772V17.077H22.1c-.142-.33-.142-.354-.283-.684l1.958-1.958L20.438,11.1,18.48,13.055c-.33-.142-.354-.142-.684-.283V10H13.077v2.772c-.33.142-.354.142-.684.283L10.435,11.1,7.1,14.435l1.958,1.958c-.142.33-.142.354-.283.684Zm7.077,2.359A2.359,2.359,0,1,1,15.436,21.8,2.366,2.366,0,0,1,13.077,19.436Z" transform="translate(-6 -10)" fill="#ffd947"/>
        </g>
      </g>
      <g id="Grupo_1100578" data-name="Grupo 1100578" transform="translate(1 -1)">
        <path id="Trazado_878069" data-name="Trazado 878069" d="M14.539,22.077a3.539,3.539,0,1,1,3.539-3.539A3.543,3.543,0,0,1,14.539,22.077Zm0-4.718a1.18,1.18,0,1,0,1.18,1.18A1.18,1.18,0,0,0,14.539,17.359Z" transform="translate(43.26 1.514)" fill="#00223d"/>
        <path id="Trazado_878070" data-name="Trazado 878070" d="M25.625,24.62l-5,5L19.155,28.16v2.072H12.077V28.16l-1.465,1.465-5-5,1.465-1.465H5V16.077H7.072L5.607,14.612l5-5,1.465,1.465V9h7.077v2.072L20.62,9.607l5,5L24.16,16.077h2.072v7.077H24.16Zm-1.752-6.183h-2.38L20.6,16.3l1.684-1.683L20.62,12.943l-1.683,1.684L16.8,13.739v-2.38H14.436v2.38l-2.141.888-1.683-1.684L8.943,14.612,10.628,16.3l-.888,2.141H7.359V20.8h2.38l.888,2.141L8.943,24.62l1.669,1.669L12.3,24.6l2.141.888v2.38H16.8V25.491l2.139-.888,1.686,1.686,1.669-1.669-1.683-1.683.886-2.141h2.382Z" transform="translate(42.182 0.436)" fill="#00223d"/>
        <path id="Trazado_878071" data-name="Trazado 878071" d="M32.077,25H25v2.359h7.077Z" transform="translate(12.746 3.309)" fill="#00223d"/>
        <path id="Trazado_878072" data-name="Trazado 878072" d="M29.718,21H25v2.359h4.718Z" transform="translate(15.105 2.591)" fill="#00223d"/>
        <path id="Trazado_878073" data-name="Trazado 878073" d="M26.232,29H5v2.359H26.232Z" transform="translate(42.182 4.028)" fill="#00223d"/>
        <path id="Trazado_878074" data-name="Trazado 878074" d="M32.077,29H25v2.359h7.077Z" transform="translate(12.746 4.028)" fill="#00223d"/>
        <path id="Trazado_878075" data-name="Trazado 878075" d="M35.669,33H5v2.359H35.669Z" transform="translate(32.746 4.746)" fill="#00223d"/>
        <path id="Trazado_878076" data-name="Trazado 878076" d="M17.359,37H15v2.359h2.359Z" transform="translate(39.26 5.464)" fill="#00223d"/>
        <path id="Trazado_878077" data-name="Trazado 878077" d="M13.359,37H11v2.359h2.359Z" transform="translate(47.978 5.464)" fill="#00223d"/>
        <path id="Trazado_878078" data-name="Trazado 878078" d="M9.718,37H5v2.359H9.718Z" transform="translate(58.696 5.464)" fill="#00223d"/>
        <path id="Trazado_878079" data-name="Trazado 878079" d="M37,15h2.359v1.18a1.18,1.18,0,0,0,2.359,0V15h2.359v1.18a3.539,3.539,0,1,1-7.077,0Z" transform="translate(-13.409 1.514)" fill="#00223d"/>
        <path id="Trazado_878080" data-name="Trazado 878080" d="M17.514,38.95V35.775l-5.374-4.3A17.114,17.114,0,0,1,22.831,1H37.513a5.925,5.925,0,0,1,4.714,2.359H71.774a2.361,2.361,0,0,1,2.359,2.359V67.055a2.361,2.361,0,0,1-2.359,2.359H55.26v2.359A2.361,2.361,0,0,1,52.9,74.133H13.975A12.991,12.991,0,0,1,1,61.158v-2.19A20.508,20.508,0,0,1,17.514,38.95ZM32.119,64.7l.249-.5A3.33,3.33,0,0,1,34.2,62.577V48.182a2.361,2.361,0,0,1,2.359-2.359h1.2A17.905,17.905,0,0,0,31.3,41.9l-1.161,5.8-3.779-2.267-.552,1.657,3.3,17.61ZM24.591,36.387V34.028h5.9a3.534,3.534,0,0,0,3.322-2.359h-.963a5.9,5.9,0,0,1-5.9-5.9v-1.18h7.769l1.352-1.352a15.179,15.179,0,0,1-2.043-7.619v-.466a11.962,11.962,0,0,1-2.587-.283l-9.122-2.028a2.039,2.039,0,0,0-2.446,1.96v5.069h-1.18c-.007,0-.289,0-.715-.008a2.776,2.776,0,0,0-1.991.791,2.814,2.814,0,0,0-.833,2.071,2.915,2.915,0,0,0,1.263,2.4l3.455,2.382V39.2l3.539,1.769L26.95,39.2v-2.81Zm9.436-9.436H29.511a3.546,3.546,0,0,0,3.337,2.359h1.18Zm-5.546,17,.532-2.655c-.236-.048-.472-.1-.711-.136l-2.441,1.22Zm-4.869,4.232h-.4L20.114,64.7h6.595Zm-.531-2.359h.661l.546-1.637-.876-.526-.875.525Zm-2.12-3.444-2.441-1.221c-.239.039-.475.087-.71.136l.532,2.656ZM40.725,8.559a3.592,3.592,0,0,0-3.212-5.2H22.831a14.754,14.754,0,0,0-9.217,26.275l3.9,3.119v-4L15.08,27.072a5.314,5.314,0,0,1-2.285-4.43,5.133,5.133,0,0,1,4.718-5.119V14.806A4.37,4.37,0,0,1,22.83,10.54l9.122,2.028a9.5,9.5,0,0,0,2.076.228,2.359,2.359,0,1,0-2.359-2.359H29.309A4.718,4.718,0,1,1,36.387,14.5v.656h2.562a2.157,2.157,0,0,0,1.525-3.681l-.8-.8ZM55.26,48.182v11.8h2.359V50.542h2.359v9.436h2.359v-11.8H64.7v11.8h2.359V52.9h2.359v9.436H55.26v4.718H71.774V5.718H43.332a5.9,5.9,0,0,1,.132,1.233,6.007,6.007,0,0,1-.628,2.662l-.314.625A4.474,4.474,0,0,1,43.464,13a4.522,4.522,0,0,1-4.515,4.515H36.526a12.84,12.84,0,0,0,2.022,5.243l.537.806-2.7,2.7v4.23a5.9,5.9,0,0,1-5.9,5.9h-1.18v2.564A20.3,20.3,0,0,1,41,45.823H52.9A2.361,2.361,0,0,1,55.26,48.182Zm-2.359,0H36.559V62.558A3.377,3.377,0,0,1,38.593,64.7h.153a4.723,4.723,0,0,1,4.718,4.718,4.67,4.67,0,0,1-.656,2.359H52.9Zm-11.8,21.232a2.361,2.361,0,0,0-2.359-2.359H36.387V65.7a1.007,1.007,0,0,0-1.909-.449l-.451.9v5.619h4.718A2.362,2.362,0,0,0,41.105,69.415ZM3.359,61.158A10.627,10.627,0,0,0,13.975,71.774H31.669V67.055H13.975a5.9,5.9,0,0,1-5.9-5.9v-5.9h2.359v5.9A3.543,3.543,0,0,0,13.975,64.7h3.739l3.3-17.611-.552-1.657L16.686,47.7l-1.158-5.788A18.164,18.164,0,0,0,3.359,58.967Z" transform="translate(-1 -1)" fill="#00223d"/>
      </g>
    </g>
  </g>
</svg>
