<svg xmlns="http://www.w3.org/2000/svg" width="78.501" height="74.637" viewBox="0 0 78.501 74.637">
  <g id="Grupo_1101897" data-name="Grupo 1101897" transform="translate(-244 -29930.363)">
    <path id="_12068" data-name="12068" d="M72.033,71.913c-8.038-1.11-16.53-.839-23.844,2.675C38.045,79.46,31.382,90.507,31.127,101.757s5.606,22.305,14.66,28.988,21,9.051,32.068,7.045c11.165-2.023,21.645-8.583,27.469-18.322,3.735-6.245,5.48-13.956,3.417-20.934a28.6,28.6,0,0,0-6.787-11.156A50.145,50.145,0,0,0,72.033,71.913Z" transform="translate(212.881 29866.152)" fill="#26aab7"/>
    <g id="Filled_outline" data-name="Filled outline" transform="translate(245.932 29930.363)">
      <g id="Color" transform="translate(0.869 0.875)">
        <circle id="Elipse_11891" data-name="Elipse 11891" cx="36.444" cy="36.444" r="36.444" transform="translate(0.006)" fill="#ffc107"/>
        <path id="Trazado_878106" data-name="Trazado 878106" d="M37.939,41.433,6.376,59.655A36.45,36.45,0,0,1,19.718,9.87Z" transform="translate(-1.49 -4.989)" fill="#7d6eb2"/>
        <path id="Trazado_878107" data-name="Trazado 878107" d="M100.44,64a36.44,36.44,0,0,1-36.448,36.444L64,64Z" transform="translate(-27.547 -27.556)" fill="#aee6e6"/>
        <path id="Trazado_878108" data-name="Trazado 878108" d="M41.433,64v36.444A36.413,36.413,0,0,1,9.87,82.222Z" transform="translate(-4.983 -27.556)" fill="#ffd54f"/>
        <path id="Trazado_878109" data-name="Trazado 878109" d="M38.994,107.433a7.789,7.789,0,0,0-7.51,5.8,36.192,36.192,0,0,0,15.282,5.136V115.3a7.8,7.8,0,0,0-7.772-7.867Z" transform="translate(-13.994 -45.664)" fill="#2196f3"/>
        <path id="Trazado_878110" data-name="Trazado 878110" d="M46.763,115.788v3.067a36.17,36.17,0,0,1-15.283-5.131,7.9,7.9,0,0,1,4.309-5.114,3.972,3.972,0,0,0,6.4,0A7.821,7.821,0,0,1,46.763,115.788Z" transform="translate(-13.993 -46.154)" fill="#42a5f5"/>
        <path id="Trazado_878111" data-name="Trazado 878111" d="M90.357,55.546V54.224a10.5,10.5,0,0,0-21.006,0v1.322Z" transform="translate(-29.781 -19.102)" fill="#2196f3"/>
        <path id="Trazado_878112" data-name="Trazado 878112" d="M90.359,54.409v1.324H69.35V54.409A10.554,10.554,0,0,1,75.094,45a10.176,10.176,0,0,1,2.239-.834L79.852,46.3l2.525-2.134A10.175,10.175,0,0,1,84.616,45,10.574,10.574,0,0,1,90.359,54.409Z" transform="translate(-29.781 -19.289)" fill="#62529b"/>
        <path id="Trazado_878113" data-name="Trazado 878113" d="M29.878,71.937a10.485,10.485,0,0,0-19.527,5.255V83.21Z" transform="translate(-5.184 -28.707)" fill="#ffc107"/>
        <path id="Trazado_878114" data-name="Trazado 878114" d="M79.431,112.863A36.424,36.424,0,0,0,97.881,101.5a9.861,9.861,0,0,0-18.45,4.9Z" transform="translate(-33.983 -41.098)" fill="#ffc107"/>
        <path id="Trazado_878115" data-name="Trazado 878115" d="M80.937,14a22.035,22.035,0,0,0-4.845.484,4.043,4.043,0,0,1-2.839-.269.328.328,0,0,0-.45.332,3.682,3.682,0,0,0,.448,1.668,1.506,1.506,0,0,1-.875-.082.332.332,0,0,0-.423.369,4.963,4.963,0,0,0,1.816,3.316A7.323,7.323,0,1,0,80.937,14Z" transform="translate(-30.865 -6.711)" fill="#62529b"/>
        <g id="Grupo_1100585" data-name="Grupo 1100585" transform="translate(45.313 24.879)">
          <path id="Trazado_878116" data-name="Trazado 878116" d="M96.192,56.06l-1.083.776a.333.333,0,0,1-.387,0l-1.083-.774a.333.333,0,0,1-.138-.276V53.862a.333.333,0,0,1,.333-.333H96a.333.333,0,0,1,.333.333v1.924a.333.333,0,0,1-.141.273Z" transform="translate(-85.162 -48.069)" fill="#64b5f6"/>
          <path id="Trazado_878117" data-name="Trazado 878117" d="M80.287,47.315a1.108,1.108,0,0,0,1.649.43L83.96,46.3l-2.522-2.134A10.415,10.415,0,0,0,79.2,45Z" transform="translate(-79.2 -44.166)" fill="#64b5f6"/>
          <path id="Trazado_878118" data-name="Trazado 878118" d="M91.037,47.316,92.125,45a10.432,10.432,0,0,0-2.24-.836L87.363,46.3l2.025,1.446a1.108,1.108,0,0,0,1.649-.431Z" transform="translate(-82.603 -44.166)" fill="#64b5f6"/>
        </g>
        <circle id="Elipse_11892" data-name="Elipse 11892" cx="6.706" cy="6.706" r="6.706" transform="translate(48.615 39.317)" fill="#ffc107"/>
        <path id="Trazado_878119" data-name="Trazado 878119" d="M96.942,96.684a10.337,10.337,0,0,0-4.059,0l.987,2.093-.589,4.514a.623.623,0,0,0,.153.5l1.011,1.138a.625.625,0,0,0,.933,0l1.012-1.138a.625.625,0,0,0,.153-.5l-.589-4.514Z" transform="translate(-39.592 -41.098)" fill="#ffd54f"/>
        <circle id="Elipse_11893" data-name="Elipse 11893" cx="7.323" cy="7.323" r="7.323" transform="translate(8.347 20.771)" fill="#ffc107"/>
        <path id="Trazado_878120" data-name="Trazado 878120" d="M46.763,117.139v3.067a36.17,36.17,0,0,1-15.283-5.131,7.857,7.857,0,0,1,1.755-3.225,8.014,8.014,0,0,0,11.522,0A7.711,7.711,0,0,1,46.763,117.139Z" transform="translate(-13.993 -47.505)" fill="#1e88e5"/>
        <path id="Trazado_878121" data-name="Trazado 878121" d="M39.924,86.292a14.939,14.939,0,0,0-3.279.327,2.732,2.732,0,0,1-1.921-.182.223.223,0,0,0-.3.225,2.5,2.5,0,0,0,.3,1.129,1.021,1.021,0,0,1-.592-.058.225.225,0,0,0-.287.25,3.362,3.362,0,0,0,1.229,2.244,4.956,4.956,0,1,0,4.851-3.938Z" transform="translate(-14.977 -36.849)" fill="#2196f3"/>
        <path id="Trazado_878122" data-name="Trazado 878122" d="M29.881,72.154a10.463,10.463,0,0,0-6.507-4.869L20.854,69.42l-2.521-2.135a10.566,10.566,0,0,0-7.982,10.127v6.018Z" transform="translate(-5.184 -28.926)" fill="#ffb300"/>
        <path id="Trazado_878123" data-name="Trazado 878123" d="M21.287,70.435a1.108,1.108,0,0,0,1.649.431L24.96,69.42l-2.522-2.134a10.448,10.448,0,0,0-2.238.836Z" transform="translate(-9.29 -28.926)" fill="#ffca28"/>
        <path id="Trazado_878124" data-name="Trazado 878124" d="M32.036,70.435l1.089-2.313a10.464,10.464,0,0,0-2.24-.836L28.363,69.42l2.025,1.446a1.108,1.108,0,0,0,1.648-.431Z" transform="translate(-12.693 -28.926)" fill="#ffca28"/>
      </g>
      <g id="Outline">
        <path id="Trazado_878125" data-name="Trazado 878125" d="M72.193,19.561a8.321,8.321,0,0,0-.078,1.137,8.2,8.2,0,1,0,8.2-8.2,21.739,21.739,0,0,0-5.132.532,3.163,3.163,0,0,1-2.225-.252,1.211,1.211,0,0,0-1.65,1.214c.019.233.045.451.08.655a1.216,1.216,0,0,0-.924,1.359,6.269,6.269,0,0,0,1.731,3.554Zm.727-3.149a.88.88,0,0,0,.408-1.341,1.225,1.225,0,0,1-.145-.367,4.3,4.3,0,0,0,2.566-.019,20.4,20.4,0,0,1,4.56-.436A6.442,6.442,0,1,1,74,19.372a.875.875,0,0,0-.377-.91,3.573,3.573,0,0,1-1.262-1.967,1.88,1.88,0,0,0,.562-.08Z" transform="translate(-29.37 -5.211)" fill="#00223d"/>
        <path id="Trazado_878126" data-name="Trazado 878126" d="M92.5,56.148l1.084.774a1.208,1.208,0,0,0,1.4,0l1.083-.774a1.211,1.211,0,0,0,.506-.983V53.241a1.209,1.209,0,0,0-1.208-1.208H93.206A1.209,1.209,0,0,0,92,53.241v1.924a1.211,1.211,0,0,0,.5.983Zm1.245-2.365h1.083v1.1l-.542.387-.542-.387Z" transform="translate(-38.355 -21.693)" fill="#00223d"/>
        <path id="Trazado_878127" data-name="Trazado 878127" d="M90.943,82.589a7.58,7.58,0,1,0-7.58-7.58A7.58,7.58,0,0,0,90.943,82.589Zm0-13.411a5.831,5.831,0,1,1-5.831,5.831,5.831,5.831,0,0,1,5.831-5.831Z" transform="translate(-34.754 -28.111)" fill="#00223d"/>
        <path id="Trazado_878128" data-name="Trazado 878128" d="M22.5,52.017a8.2,8.2,0,1,0-8.2-8.2A8.2,8.2,0,0,0,22.5,52.017Zm0-14.646a6.448,6.448,0,1,1-6.448,6.448A6.449,6.449,0,0,1,22.5,37.371Z" transform="translate(-5.964 -14.85)" fill="#00223d"/>
        <path id="Trazado_878129" data-name="Trazado 878129" d="M24.141,46.8a7.478,7.478,0,0,1,3.962,0,.875.875,0,1,0,.557-1.658,8.992,8.992,0,0,0-5.076,0,.875.875,0,1,0,.557,1.658Z" transform="translate(-9.584 -18.668)" fill="#00223d"/>
        <path id="Trazado_878130" data-name="Trazado 878130" d="M25.312,42.331a8,8,0,0,1,2.7,0,.875.875,0,1,0,.314-1.721,9.657,9.657,0,0,0-3.327,0,.875.875,0,1,0,.314,1.721Z" transform="translate(-10.122 -16.87)" fill="#00223d"/>
        <path id="Trazado_878131" data-name="Trazado 878131" d="M33.468,90.624A5.831,5.831,0,1,0,39.3,84.793a14.948,14.948,0,0,0-3.564.376A1.89,1.89,0,0,1,34.427,85a1.1,1.1,0,0,0-1.5,1.108c.007.08.014.159.023.233a1.108,1.108,0,0,0-.592,1.147,4.634,4.634,0,0,0,1.152,2.47A5.873,5.873,0,0,0,33.468,90.624Zm.922-2.633a.875.875,0,0,0,.557-1.045,2.948,2.948,0,0,0,1.358-.125,13.352,13.352,0,0,1,2.994-.279A4.082,4.082,0,1,1,35.3,89.784a.875.875,0,0,0-.378-.91,1.849,1.849,0,0,1-.626-.856.917.917,0,0,0,.09-.027Z" transform="translate(-13.483 -35.349)" fill="#00223d"/>
        <path id="Trazado_878132" data-name="Trazado 878132" d="M37.318,0A37.318,37.318,0,1,0,74.637,37.318,37.318,37.318,0,0,0,37.318,0ZM5.161,52.5A35.531,35.531,0,0,1,18.788,6.97L36.124,37,25.843,42.934A11.377,11.377,0,0,0,8.583,41.32a11.581,11.581,0,0,0-3.422,8.04ZM24.32,43.814l-.226.131v-.439c.079.1.152.2.226.308Zm-6.265-.287A2,2,0,0,0,21,42.757l.679-1.444c.226.145.448.3.662.461v3.18L17.411,47.8V43.067Zm-.093-2.216L19.274,40.2c.292.087.577.187.857.3l-.71,1.508a.227.227,0,0,1-.35.09Zm-.942-1.5-.482.408-.474-.4a6.969,6.969,0,0,1,.956-.008Zm-2,3.711.641-.457v5.741l-4.927,2.844V41.769c.213-.164.431-.322.655-.466l.684,1.453a2,2,0,0,0,2.946.77Zm-2.081-3.032q.419-.17.852-.3l1.322,1.118-1.108.792a.227.227,0,0,1-.35-.091ZM6.91,49.364A9.635,9.635,0,0,1,8.986,43.5v9.161l-2.075,1.2ZM32.766,72.586a35.3,35.3,0,0,1-13.353-4.555A6.892,6.892,0,0,1,20.22,66.5a8.871,8.871,0,0,0,11.312,0,6.834,6.834,0,0,1,1.239,4.009Zm-6.9-6.76a4.8,4.8,0,0,0,3.4-1.408,6.96,6.96,0,0,1,1.088.778,7.121,7.121,0,0,1-8.966.008,7.077,7.077,0,0,1,1.086-.772A4.8,4.8,0,0,0,25.866,65.826Zm-1.493-2.138a6.838,6.838,0,0,1,3-.009,3.058,3.058,0,0,1-3,.009Zm12.07,9.177q-.971-.023-1.929-.1V70.528A8.643,8.643,0,0,0,17.9,67.1,35.848,35.848,0,0,1,6.97,55.849L36.444,38.834ZM20.3,6.093A35.547,35.547,0,0,1,72.865,36.444H62.319v-.438a11.377,11.377,0,1,0-22.755,0h.015c-.007.117-.011.267-.013.439H37.823ZM52.458,30.045a2,2,0,0,0,2.949-.77l.684-1.454a9.842,9.842,0,0,1,1.643,1.32A9.643,9.643,0,0,1,60.569,36v.448H51.816V29.587Zm-.093-2.216,1.321-1.118q.434.129.852.3l-.715,1.52a.229.229,0,0,1-.35.091Zm-.949-1.49-.475.4-.474-.4a5.923,5.923,0,0,1,.949,0Zm-1.99,3.706.641-.458v6.856H41.312v-.457a9.635,9.635,0,0,1,2.836-6.846,9.8,9.8,0,0,1,1.643-1.32l.684,1.454a2,2,0,0,0,2.95.77Zm-2.081-3.032a8.4,8.4,0,0,1,.852-.3l1.321,1.118-1.108.792a.227.227,0,0,1-.35-.09Zm.571,44.263c-.24.076-.484.139-.725.208v-5.31a9.064,9.064,0,0,1,6.483-8.688l.571,1.209-.556,4.261a1.5,1.5,0,0,0,.367,1.19l1.011,1.138a1.51,1.51,0,0,0,2.243,0l1.011-1.136a1.5,1.5,0,0,0,.367-1.192l-.553-4.261.568-1.2a9.035,9.035,0,0,1,4.976,3.685,35.654,35.654,0,0,1-15.763,10.1Zm8.021-13.1-.478-1.015a8.558,8.558,0,0,1,1.462,0l-.477,1.015a.875.875,0,0,0-.076.486l.574,4.4-.75.844-.75-.844.574-4.4a.875.875,0,0,0-.079-.486Zm8.913,1.629a10.727,10.727,0,0,0-19.408,6.373V71.94a35.507,35.507,0,0,1-7.25.925V38.193H72.865A35.394,35.394,0,0,1,64.851,59.809Z" fill="#00223d"/>
      </g>
    </g>
  </g>
</svg>
