<svg xmlns="http://www.w3.org/2000/svg" width="103.429" height="84.947" viewBox="0 0 103.429 84.947">
  <g id="Grupo_1100085" data-name="Grupo 1100085" transform="translate(0 0)">
    <g id="Grupo_1100030" data-name="Grupo 1100030" transform="translate(0)">
      <path id="_12068" data-name="12068" d="M80.679,72.036c-9.737-1.345-20.023-1.016-28.883,3.24-12.288,5.9-20.358,19.283-20.667,32.911s6.79,27.019,17.758,35.114,25.432,10.964,38.845,8.534c13.525-2.451,26.22-10.4,33.274-22.194,4.524-7.564,6.638-16.905,4.139-25.358a34.642,34.642,0,0,0-8.221-13.513A60.743,60.743,0,0,0,80.679,72.036Z" transform="translate(-27.626 -67.724)" fill="#7d6eb2"/>
      <g id="Grupo_1099025" data-name="Grupo 1099025" transform="translate(0 75.838) rotate(-90)">
        <path id="Trazado_873104" data-name="Trazado 873104" d="M.44,1.927A1.116,1.116,0,0,0,1.9,1.762,1.116,1.116,0,0,0,1.836.3,1.116,1.116,0,0,0,.368.256,1.07,1.07,0,0,0,.44,1.927Z" transform="translate(14.579 87.471)" fill="#fff"/>
        <path id="Trazado_873105" data-name="Trazado 873105" d="M.44,1.927A1.116,1.116,0,0,0,1.9,1.763,1.116,1.116,0,0,0,1.836.3,1.116,1.116,0,0,0,.368.256,1.07,1.07,0,0,0,.44,1.927Z" transform="translate(35.875 92.048)" fill="#ffd947"/>
        <path id="Trazado_873106" data-name="Trazado 873106" d="M.44,1.927A1.116,1.116,0,0,0,1.9,1.763,1.116,1.116,0,0,0,1.836.3,1.117,1.117,0,0,0,.368.256,1.07,1.07,0,0,0,.44,1.927Z" transform="translate(73.694)" fill="#7d6eb2"/>
        <path id="Trazado_873109" data-name="Trazado 873109" d="M1.449,4.5A2.434,2.434,0,0,0,4.464,3.306,2.435,2.435,0,0,0,3.412.24,2.435,2.435,0,0,0,.3,1.151,2.36,2.36,0,0,0,1.449,4.5Z" transform="translate(61.04 86.208)" fill="#7d6eb2"/>
        <path id="Trazado_873110" data-name="Trazado 873110" d="M1.449,4.5A2.434,2.434,0,0,0,4.464,3.306,2.435,2.435,0,0,0,3.412.241,2.434,2.434,0,0,0,.3,1.151,2.36,2.36,0,0,0,1.449,4.5Z" transform="translate(44.433 98.775)" fill="#ffd947"/>
        <path id="Trazado_873111" data-name="Trazado 873111" d="M1.449,4.5A2.434,2.434,0,0,0,4.463,3.306,2.434,2.434,0,0,0,3.412.241,2.434,2.434,0,0,0,.3,1.151,2.36,2.36,0,0,0,1.449,4.5Z" transform="translate(0 27.812)" fill="#ffd947"/>
        <path id="Trazado_873113" data-name="Trazado 873113" d="M1.449,4.5A2.435,2.435,0,0,0,4.464,3.306,2.435,2.435,0,0,0,3.412.24,2.435,2.435,0,0,0,.3,1.151,2.36,2.36,0,0,0,1.449,4.5Z" transform="translate(69.035 5.856)" fill="#ffd947"/>
        <circle id="Elipse_11485" data-name="Elipse 11485" cx="1.149" cy="1.149" r="1.149" transform="translate(5.274 93.025)" fill="none" stroke="#26aab7" stroke-linecap="round" stroke-linejoin="round" stroke-width="1.5"/>
      </g>
    </g>
    <g id="Filled_outline" data-name="Filled outline" transform="translate(17.98 5.983)">
      <path id="Trazado_876276" data-name="Trazado 876276" d="M288,72a6.9,6.9,0,0,1,6.9,6.9V96.156a6.9,6.9,0,0,1-6.9-6.9Z" transform="translate(-248.89 -63.948)" fill="#6e3c26"/>
      <path id="Trazado_876277" data-name="Trazado 876277" d="M138.508,230.954v6.9H104v-6.9a5.751,5.751,0,0,1,5.751-5.751h4.6a2.3,2.3,0,0,0,2.3-2.3V216h9.2v6.9a2.3,2.3,0,0,0,2.3,2.3h4.6A5.751,5.751,0,0,1,138.508,230.954Z" transform="translate(-91.347 -187.243)" fill="#fec9a3"/>
      <path id="Trazado_876278" data-name="Trazado 876278" d="M201.2,216v4.674a10.367,10.367,0,0,1-9.2,0V216Z" transform="translate(-166.694 -187.243)" fill="#fec093"/>
      <path id="Trazado_876279" data-name="Trazado 876279" d="M91.659,280h-2.3a9.792,9.792,0,0,1-18.4,0H68.392a6.9,6.9,0,0,0-6.725,5.35L56,309.907h9.2l3.451-11.5,2.3,3.451v8.052H97.41V285.751A5.751,5.751,0,0,0,91.659,280Z" transform="translate(-50.248 -242.041)" fill="#7eb457"/>
      <path id="Trazado_876280" data-name="Trazado 876280" d="M123.451,136h2.3v6.9h-2.3a3.451,3.451,0,0,1,0-6.9Z" transform="translate(-105.046 -118.746)" fill="#fec093"/>
      <path id="Trazado_876281" data-name="Trazado 876281" d="M269.347,378.4H288.56a3.451,3.451,0,0,0,3.424-3.023L293.907,360H264l1.923,15.382A3.451,3.451,0,0,0,269.347,378.4Z" transform="translate(-228.341 -310.538)" fill="#d75246"/>
      <path id="Trazado_876282" data-name="Trazado 876282" d="M377.195,245.821l-5.053-12.441a2.133,2.133,0,0,0-3.188-.99,2.245,2.245,0,0,0-.806,2.663l4.2,10.768Z" transform="translate(-317.38 -200.96)" fill="#4c5985"/>
      <path id="Trazado_876283" data-name="Trazado 876283" d="M304,245.821l5.053-12.441a2.133,2.133,0,0,1,3.188-.99,2.245,2.245,0,0,1,.806,2.663l-4.2,10.768Z" transform="translate(-262.59 -200.96)" fill="#4c5985"/>
      <rect id="Rectángulo_401384" data-name="Rectángulo 401384" width="35" height="4" rx="2" transform="translate(68 49) rotate(180)" fill="#e06257"/>
      <path id="Trazado_876284" data-name="Trazado 876284" d="M33.2,392.1H24V376h5.751Z" transform="translate(-22.85 -324.237)" fill="#fec093"/>
      <path id="Trazado_876285" data-name="Trazado 876285" d="M41.763,312.607a2.44,2.44,0,0,1-.014,3.465l-6.3,6.188L32,318.809l6.327-6.217A2.44,2.44,0,0,1,41.763,312.607Z" transform="translate(-29.699 -269.347)" fill="#fec093"/>
      <rect id="Rectángulo_401385" data-name="Rectángulo 401385" width="13" height="19" rx="6.5" transform="translate(13 44) rotate(180)" fill="#d75246"/>
      <rect id="Rectángulo_401386" data-name="Rectángulo 401386" width="9" height="11" rx="4.5" transform="translate(9 54) rotate(180)" fill="#fec9a3"/>
      <path id="Trazado_876286" data-name="Trazado 876286" d="M24,440v6.9h9.2L31.723,440Z" transform="translate(-22.85 -379.035)" fill="#88c25e"/>
      <path id="Trazado_876287" data-name="Trazado 876287" d="M3.451,0h2.3V6.9h-2.3a3.451,3.451,0,1,1,0-6.9Z" transform="translate(44.861 23.006) rotate(180)" fill="#fec093"/>
      <path id="Trazado_876288" data-name="Trazado 876288" d="M162.353,93.516A10.353,10.353,0,0,1,152,83.164V72.811c3.451-4.6,16.1-5.751,20.705,0V83.164A10.352,10.352,0,0,1,162.353,93.516Z" transform="translate(-132.445 -61.308)" fill="#fec9a3"/>
      <path id="Trazado_876289" data-name="Trazado 876289" d="M160.156,38.954a3.444,3.444,0,0,1,1.15.2V35.5A11.5,11.5,0,0,0,149.8,24h-2.3A11.5,11.5,0,0,0,136,35.5v5.751c6.454-1.509,12.332-2.038,17.079-5.921l2.6-2.131,3.323,5.751Z" transform="translate(-118.746 -22.85)" fill="#7a432a"/>
      <path id="Trazado_876290" data-name="Trazado 876290" d="M119.783,348.328l-1.759-1.482a9.8,9.8,0,0,0-2.078,8.262l-3.593,11.7,2.2.676,2.746-8.937a10.7,10.7,0,0,0,.657.953v7.646h2.3V359.09a1.151,1.151,0,0,0-.269-.74A7.775,7.775,0,0,1,119.783,348.328Z" transform="translate(-98.499 -299.275)" fill="#00223d"/>
      <circle id="Elipse_11821" data-name="Elipse 11821" cx="2" cy="2" r="2" transform="translate(33 16)" fill="#00223d"/>
      <path id="Trazado_876291" data-name="Trazado 876291" d="M203.451,177.15A1.152,1.152,0,0,1,202.3,176H200a3.451,3.451,0,1,0,6.9,0h-2.3A1.152,1.152,0,0,1,203.451,177.15Z" transform="translate(-173.543 -152.994)" fill="#00223d"/>
      <path id="Trazado_876292" data-name="Trazado 876292" d="M360,432h2.3v4.6H360Z" transform="translate(-310.538 -372.185)" fill="#00223d"/>
      <path id="Trazado_876293" data-name="Trazado 876293" d="M328,432h2.3v4.6H328Z" transform="translate(-283.139 -372.185)" fill="#00223d"/>
      <path id="Trazado_876294" data-name="Trazado 876294" d="M296,432h2.3v4.6H296Z" transform="translate(-255.74 -372.185)" fill="#00223d"/>
      <path id="Trazado_876295" data-name="Trazado 876295" d="M392,432h2.3v4.6H392Z" transform="translate(-337.937 -372.185)" fill="#00223d"/>
      <path id="Trazado_876296" data-name="Trazado 876296" d="M424,432h2.3v4.6H424Z" transform="translate(-365.336 -372.185)" fill="#00223d"/>
      <path id="Trazado_876297" data-name="Trazado 876297" d="M360,384h2.3v4.6H360Z" transform="translate(-310.538 -331.087)" fill="#00223d"/>
      <path id="Trazado_876298" data-name="Trazado 876298" d="M328,384h2.3v4.6H328Z" transform="translate(-283.139 -331.087)" fill="#00223d"/>
      <path id="Trazado_876299" data-name="Trazado 876299" d="M296,384h2.3v4.6H296Z" transform="translate(-255.74 -331.087)" fill="#00223d"/>
      <path id="Trazado_876300" data-name="Trazado 876300" d="M392,384h2.3v4.6H392Z" transform="translate(-337.937 -331.087)" fill="#00223d"/>
      <path id="Trazado_876301" data-name="Trazado 876301" d="M424,384h2.3v4.6H424Z" transform="translate(-365.336 -331.087)" fill="#00223d"/>
      <path id="Trazado_876302" data-name="Trazado 876302" d="M163.77,59.71h-4.977l-4.762-11.723a3.313,3.313,0,0,0-2.118-1.941,3.227,3.227,0,0,0-3.1.681,3.225,3.225,0,0,0-3.1-.68,3.288,3.288,0,0,0-.354.129V30.953a8.054,8.054,0,0,0-4.433-7.193A12.717,12.717,0,0,0,129.261,16h-2.3a12.534,12.534,0,0,0-7.726,2.631l1.406,1.821a10.252,10.252,0,0,1,6.32-2.152h2.3a10.4,10.4,0,0,1,9.693,6.712,10.279,10.279,0,0,1,.659,3.64v2.3h-.486l-2.991-5.176a1.15,1.15,0,0,0-1.724-.315l-2.6,2.13c-3.611,2.955-7.923,3.852-12.913,4.89-.748.156-1.512.314-2.286.484V28.653a10.353,10.353,0,0,1,2.474-6.715l-1.751-1.494a12.656,12.656,0,0,0-3.024,8.209v4.072a4.6,4.6,0,0,0,2.3,8.581h.527a11.448,11.448,0,0,0,5.225,6.512v3.841a1.152,1.152,0,0,1-1.15,1.15h-4.6c-.061,0-.122,0-.184,0a6.908,6.908,0,0,0-1.583.225l.587,2.224a4.612,4.612,0,0,1,1.068-.15l.045,0c.022,0,.044,0,.066,0h1.526a10.734,10.734,0,0,0,3.9,4.644,11,11,0,0,0,6.081,1.8v-2.3a8.494,8.494,0,0,1-7.4-4.145h.5a3.455,3.455,0,0,0,3.451-3.451V48.831a11.575,11.575,0,0,0,6.9,0v2.827a3.455,3.455,0,0,0,3.451,3.451h.494a8.278,8.278,0,0,1-2.082,2.367l1.406,1.821a10.834,10.834,0,0,0,3.258-4.188h1.526v-2.3h-4.6a1.152,1.152,0,0,1-1.15-1.15V47.815a11.614,11.614,0,0,0,3.217-2.764,8.005,8.005,0,0,0,6,4.227L138.84,59.71h-4.977a3.451,3.451,0,0,0-1.035,6.743l1.817,14.533a4.608,4.608,0,0,0,4.565,4.03h19.213a4.608,4.608,0,0,0,4.566-4.03l.336-2.686-2.283-.286-.336,2.686a2.3,2.3,0,0,1-2.283,2.015H139.21a2.3,2.3,0,0,1-2.283-2.015l-1.761-14.089h27.3l-.991,7.925,2.283.285,1.046-8.369a3.451,3.451,0,0,0-1.035-6.744ZM116.608,39.005a2.3,2.3,0,0,1-1.837-3.681,1.141,1.141,0,0,0,.949.2q.446-.1.889-.2v2.533c0,.384.02.768.058,1.15Zm20.705-1.15a9.1,9.1,0,0,1-.941,4.058l-.015.033a9.2,9.2,0,0,1-17.448-4.091V34.829l.455-.095c.645-.134,1.286-.267,1.921-.4a1.724,1.724,0,0,0,3.348-.8,22.481,22.481,0,0,0,8.633-4.155l1.556-1.274,2.492,4.313Zm2.3-4.6a2.3,2.3,0,0,1,0,4.6Zm3.451,13.69a5.715,5.715,0,0,1-4.46-4.372,11.345,11.345,0,0,0,.78-2.416h.229a4.59,4.59,0,0,0,3.451-1.563Zm0-14.428a4.63,4.63,0,0,0-1.15-.944v-2.92c0-.412-.021-.822-.06-1.228a5.7,5.7,0,0,1,1.211,3.529Zm7.362,15.863a.951.951,0,0,1,.823-.129,1.023,1.023,0,0,1,.65.6l4.41,10.857h-2.354l-3.913-10.035A1.1,1.1,0,0,1,150.427,48.379Zm-1.61,4.484,2.67,6.847h-5.34Zm-3.083-4.01a1.023,1.023,0,0,1,.65-.6.95.95,0,0,1,.823.13,1.1,1.1,0,0,1,.384,1.3L143.677,59.71h-2.354ZM163.77,64.311H133.863a1.15,1.15,0,0,1,0-2.3H163.77a1.15,1.15,0,1,1,0,2.3Z" transform="translate(-98.204 -16)" fill="#00223d"/>
      <path id="Trazado_876303" data-name="Trazado 876303" d="M27.5,211.607v-1.758L30,207.39a3.591,3.591,0,0,0,.522-4.475,3.456,3.456,0,0,0,.427-1.661v-13.8A3.455,3.455,0,0,0,27.5,184H19.451A3.455,3.455,0,0,0,16,187.451v13.8a3.454,3.454,0,0,0,.463,1.727A3.429,3.429,0,0,0,16,204.7v6.9a3.443,3.443,0,0,0,1.15,2.569v13.535h2.3v-5.751h5.608v-.165l1.32,6.157,2.249-.482-2.77-12.924a3.451,3.451,0,0,0,1.645-2.939Zm1.275-6.771a1.281,1.281,0,0,1-.385.914l-.89.874V204.7a3.413,3.413,0,0,0,1.226-.226A1.3,1.3,0,0,1,28.778,204.835ZM26.352,186.3H27.5a1.152,1.152,0,0,1,1.15,1.15v13.8a1.165,1.165,0,0,1-1.15,1.15h-.882a3.434,3.434,0,0,0-.269-.269Zm-8.052,1.15a1.152,1.152,0,0,1,1.15-1.15H22.9v14.954H19.451a3.437,3.437,0,0,0-1.133.192,1.15,1.15,0,0,1-.017-.192Zm1.15,32.208v-4.6h4.164l.986,4.6Zm5.751-8.052a1.152,1.152,0,0,1-1.15,1.15h-4.6a1.152,1.152,0,0,1-1.15-1.15v-6.9a1.152,1.152,0,0,1,1.15-1.15h4.6a1.152,1.152,0,0,1,1.15,1.15Z" transform="translate(-16 -159.844)" fill="#00223d"/>
    </g>
  </g>
</svg>
