<svg xmlns="http://www.w3.org/2000/svg" width="78.501" height="73.27" viewBox="0 0 78.501 73.27">
  <g id="Grupo_1101902" data-name="Grupo 1101902" transform="translate(-244 -31573.363)">
    <path id="_12068" data-name="12068" d="M72.033,71.913c-8.038-1.11-16.53-.839-23.844,2.675C38.045,79.46,31.382,90.507,31.127,101.757s5.606,22.305,14.66,28.988,21,9.051,32.068,7.045c11.165-2.023,21.645-8.583,27.469-18.322,3.735-6.245,5.48-13.956,3.417-20.934a28.6,28.6,0,0,0-6.787-11.156A50.145,50.145,0,0,0,72.033,71.913Z" transform="translate(212.881 31508.152)" fill="#26aab7"/>
    <g id="logro" transform="translate(249.898 31571.76)">
      <g id="Grupo_1100591" data-name="Grupo 1100591" transform="translate(1.049 2.087)">
        <path id="Trazado_878190" data-name="Trazado 878190" d="M4.5,9.683V64.528a4.561,4.561,0,0,0,4.545,4.549H50.562a4.561,4.561,0,0,0,4.545-4.549V9.683a4.561,4.561,0,0,0-4.545-4.549H9.045A4.561,4.561,0,0,0,4.5,9.683Z" transform="translate(-4.5 -5.134)" fill="#eaf6ff" fill-rule="evenodd"/>
      </g>
      <g id="Grupo_1100592" data-name="Grupo 1100592" transform="translate(6.29 47.453)">
        <path id="Trazado_878191" data-name="Trazado 878191" d="M42.705,335.816H54.239v11.53H42.705Z" transform="translate(-42.705 -335.816)" fill="#ffd947" fill-rule="evenodd"/>
      </g>
      <g id="Grupo_1100593" data-name="Grupo 1100593" transform="translate(6.29 29.618)">
        <path id="Trazado_878192" data-name="Trazado 878192" d="M42.705,205.815H54.239v11.53H42.705Z" transform="translate(-42.705 -205.815)" fill="#ffd947" fill-rule="evenodd"/>
      </g>
      <g id="Grupo_1100594" data-name="Grupo 1100594" transform="translate(6.29 11.784)">
        <path id="Trazado_878193" data-name="Trazado 878193" d="M42.705,75.814H54.239V87.348H42.705Z" transform="translate(-42.705 -75.814)" fill="#ffd947" fill-rule="evenodd"/>
      </g>
      <g id="Grupo_1100595" data-name="Grupo 1100595" transform="translate(29.3 42.514)">
        <path id="Trazado_878194" data-name="Trazado 878194" d="M224.636,328.221a14.2,14.2,0,1,0-14.2-14.2A14.229,14.229,0,0,0,224.636,328.221Z" transform="translate(-210.434 -299.816)" fill="#7d6eb2" fill-rule="evenodd"/>
      </g>
      <g id="Grupo_1100596" data-name="Grupo 1100596" transform="translate(34.267 47.206)">
        <path id="Trazado_878195" data-name="Trazado 878195" d="M255.871,352.489a9.236,9.236,0,1,0-9.236-9.236A9.252,9.252,0,0,0,255.871,352.489Z" transform="translate(-246.635 -334.017)" fill="#aee6e6" fill-rule="evenodd"/>
      </g>
      <g id="Grupo_1100597" data-name="Grupo 1100597" transform="translate(39.284 52.224)">
        <path id="Trazado_878196" data-name="Trazado 878196" d="M287.428,379.029a4.219,4.219,0,1,0-4.219-4.219A4.226,4.226,0,0,0,287.428,379.029Z" transform="translate(-283.209 -370.592)" fill="#26aab7" fill-rule="evenodd"/>
      </g>
      <g id="Grupo_1100598" data-name="Grupo 1100598" transform="translate(32.671 52.6)">
        <path id="Trazado_878197" data-name="Trazado 878197" d="M259.349,376.421A14.515,14.515,0,0,1,235,387.1a14.206,14.206,0,0,0,24.017-13.766A14.48,14.48,0,0,1,259.349,376.421Z" transform="translate(-235.002 -373.336)" fill="#eb4954" fill-rule="evenodd"/>
      </g>
      <g id="Grupo_1100599" data-name="Grupo 1100599" transform="translate(59.509 40.779)">
        <path id="Trazado_878198" data-name="Trazado 878198" d="M430.633,293.624v-3.99l4.274-2.467v3.99l3.459,2-4.274,2.467Z" transform="translate(-430.633 -287.166)" fill="#ffd947" fill-rule="evenodd"/>
      </g>
      <path id="Trazado_878199" data-name="Trazado 878199" d="M5.538,47.3a.959.959,0,0,1,.959-.959H14.44a.959.959,0,0,1,0,1.917H7.455v9.454h9.454V51.781a.959.959,0,1,1,1.917,0v6.893a.959.959,0,0,1-.959.959H6.5a.959.959,0,0,1-.959-.959Zm15.1-3.364a.958.958,0,0,0-1.347.149l-7.3,9.121-1.958-3.131a.959.959,0,0,0-1.626,1.016l2.674,4.277a.959.959,0,0,0,.757.449l.056,0a.958.958,0,0,0,.748-.36l8.146-10.176A.958.958,0,0,0,20.64,43.938Zm-15.1-2.853a.959.959,0,0,0,.959.959H17.867a.959.959,0,0,0,.959-.959V34.192a.959.959,0,1,0-1.917,0v5.934H7.455V30.672h6.986a.959.959,0,0,0,0-1.917H6.5a.959.959,0,0,0-.959.959Zm15.1-14.731a.959.959,0,0,0-1.347.149l-7.3,9.117-1.958-3.131A.959.959,0,0,0,8.408,33.5l2.674,4.277a.958.958,0,0,0,.757.449l.056,0a.958.958,0,0,0,.748-.359L20.789,27.7A.959.959,0,0,0,20.64,26.353Zm8.824,38.312H5.945a3.532,3.532,0,0,1-3.528-3.528V7.048A3.532,3.532,0,0,1,5.945,3.52H46.886a3.532,3.532,0,0,1,3.528,3.528V41.674a.959.959,0,1,0,1.917,0V7.048A5.451,5.451,0,0,0,46.886,1.6H5.945A5.451,5.451,0,0,0,.5,7.048v54.09a5.451,5.451,0,0,0,5.445,5.445H29.464a.959.959,0,0,0,0-1.917ZM14.441,13.083a.959.959,0,0,0,0-1.917H6.5a.959.959,0,0,0-.959.959V23.5a.959.959,0,0,0,.959.959H17.867a.959.959,0,0,0,.959-.959V16.6a.959.959,0,1,0-1.917,0v5.938H7.455V13.083Zm6.2-4.319a.958.958,0,0,0-1.347.149l-7.3,9.118L10.033,14.9A.959.959,0,1,0,8.408,15.92l2.674,4.273a.959.959,0,0,0,.757.449l.056,0a.958.958,0,0,0,.748-.359l8.146-10.172a.959.959,0,0,0-.149-1.348Zm23.412,2.4H24.667a.959.959,0,0,0,0,1.917H44.053a.959.959,0,0,0,0-1.917Zm0,5.131H24.667a.959.959,0,0,0,0,1.917H44.053a.959.959,0,0,0,0-1.917Zm0,12.458H24.667a.959.959,0,0,0,0,1.917H44.053a.959.959,0,0,0,0-1.917Zm.959,6.089a.959.959,0,0,0-.959-.959H24.667a.959.959,0,0,0,0,1.917H44.053A.959.959,0,0,0,45.011,34.844ZM30.391,47.3a.959.959,0,0,0-.959-.959H24.667a.959.959,0,0,0,0,1.917h4.766A.959.959,0,0,0,30.391,47.3Zm-5.724,4.172a.959.959,0,0,0,0,1.917h2.538a.959.959,0,0,0,0-1.917Zm45.456-9.319-4.333,2.5L67.764,45.8a.958.958,0,0,1,0,1.66L63.549,49.89a.958.958,0,0,1-.959,0L59.658,48.2,56.877,49.8a15.007,15.007,0,1,1-.961-1.659L58.7,46.535V43.153a.959.959,0,0,1,.479-.83l4.215-2.433a.959.959,0,0,1,1.438.83V43l4.333-2.5a.959.959,0,0,1,.958,1.661ZM55.214,50.761l-2.592,1.5A10.1,10.1,0,1,1,51.66,50.6l2.592-1.5a12.98,12.98,0,1,0,.962,1.659ZM42.475,55.9l3.156-1.822a3.2,3.2,0,1,0,.96,1.659l-3.157,1.823a.959.959,0,1,1-.959-1.66Zm4.863-2.808,2.655-1.533a8.13,8.13,0,1,0,.961,1.659L48.3,54.753a5.135,5.135,0,1,1-.961-1.659Zm18.03-6.468L63.4,45.49l0,0,0,0-.023-.016a.956.956,0,0,1-.08-.053c-.011-.008-.02-.018-.03-.026s-.044-.036-.064-.057-.025-.028-.037-.042-.031-.034-.046-.052a.975.975,0,0,1-.07-.1h0a.972.972,0,0,1-.051-.1L62.981,45c-.011-.028-.021-.056-.029-.084l-.008-.027a.954.954,0,0,1-.021-.106V44.78a.941.941,0,0,1-.008-.118s0-.005,0-.008V42.38l-2.3,1.326v2.829l2.453,1.418Z" fill="#00223d"/>
    </g>
  </g>
</svg>
