<svg xmlns="http://www.w3.org/2000/svg" width="78.501" height="74.27" viewBox="0 0 78.501 74.27">
  <g id="Grupo_1101896" data-name="Grupo 1101896" transform="translate(-244 -29624.363)">
    <g id="Grupo_1101895" data-name="Grupo 1101895">
      <path id="_12068" data-name="12068" d="M72.033,71.913c-8.038-1.11-16.53-.839-23.844,2.675C38.045,79.46,31.382,90.507,31.127,101.757s5.606,22.305,14.66,28.988,21,9.051,32.068,7.045c11.165-2.023,21.645-8.583,27.469-18.322,3.735-6.245,5.48-13.956,3.417-20.934a28.6,28.6,0,0,0-6.787-11.156A50.145,50.145,0,0,0,72.033,71.913Z" transform="translate(212.881 29560.152)" fill="#26aab7"/>
      <g id="analitica" transform="translate(281.23 29659.662)">
        <g id="Grupo_1100584" data-name="Grupo 1100584" transform="translate(-35.334 -35.298)">
          <g id="Grupo_1100579" data-name="Grupo 1100579" transform="translate(0 0)">
            <circle id="Elipse_11886" data-name="Elipse 11886" cx="14.195" cy="14.195" r="14.195" transform="translate(0 20.072) rotate(-45)" fill="#60b7ff"/>
            <circle id="Elipse_11887" data-name="Elipse 11887" cx="12.432" cy="12.432" r="12.432" transform="translate(2.494 20.072) rotate(-45)" fill="#8ac9fe"/>
            <path id="Trazado_878081" data-name="Trazado 878081" d="M112.608,112.62h14.2a14.189,14.189,0,0,1-7.1,12.3Z" transform="translate(-92.533 -92.548)" fill="#fd4755" fill-rule="evenodd"/>
            <path id="Trazado_878082" data-name="Trazado 878082" d="M112.608,112.62H125.04a12.426,12.426,0,0,1-6.215,10.767Z" transform="translate(-92.533 -92.548)" fill="#fe646f" fill-rule="evenodd"/>
            <path id="Trazado_878083" data-name="Trazado 878083" d="M126.8,22.205h-14.2V8.01A14.2,14.2,0,0,1,126.8,22.205Z" transform="translate(-92.533 -2.133)" fill="#ffd064" fill-rule="evenodd"/>
            <path id="Trazado_878084" data-name="Trazado 878084" d="M125.04,33.44H112.608V21.008A12.432,12.432,0,0,1,125.04,33.44Z" transform="translate(-92.533 -13.367)" fill="#ffe177" fill-rule="evenodd"/>
          </g>
          <g id="Grupo_1100580" data-name="Grupo 1100580" transform="translate(40.993 5.502)">
            <path id="Trazado_878085" data-name="Trazado 878085" d="M268.287,5.247h3.661a1.531,1.531,0,0,1,1.528,1.528v3.661a1.531,1.531,0,0,1-1.528,1.528h-3.661a1.531,1.531,0,0,1-1.528-1.528V6.775a1.53,1.53,0,0,1,1.528-1.528Z" transform="translate(-266.759 -5.247)" fill="#8ac9fe" fill-rule="evenodd"/>
            <path id="Trazado_878086" data-name="Trazado 878086" d="M268.287,87.873h3.661a1.531,1.531,0,0,1,1.528,1.528v3.661a1.531,1.531,0,0,1-1.528,1.528h-3.661a1.531,1.531,0,0,1-1.528-1.528V89.4A1.53,1.53,0,0,1,268.287,87.873Z" transform="translate(-266.759 -76.661)" fill="#ffe177" fill-rule="evenodd"/>
            <path id="Trazado_878087" data-name="Trazado 878087" d="M268.287,170.5h3.661a1.531,1.531,0,0,1,1.528,1.528v3.661a1.531,1.531,0,0,1-1.528,1.528h-3.661a1.531,1.531,0,0,1-1.528-1.528v-3.661A1.53,1.53,0,0,1,268.287,170.5Z" transform="translate(-266.759 -148.074)" fill="#fe646f" fill-rule="evenodd"/>
          </g>
          <g id="Grupo_1100581" data-name="Grupo 1100581" transform="translate(5.88 42.06)">
            <path id="Trazado_878088" data-name="Trazado 878088" d="M198.369,348.361h4.508a1.36,1.36,0,0,1,1.357,1.357v18.408a1.36,1.36,0,0,1-1.357,1.357h-4.508a1.36,1.36,0,0,1-1.357-1.357V349.718A1.36,1.36,0,0,1,198.369,348.361Z" transform="translate(-171.363 -338.36)" fill="#ffe177" fill-rule="evenodd"/>
            <path id="Trazado_878089" data-name="Trazado 878089" d="M202.877,348.361a1.36,1.36,0,0,1,1.357,1.357v18.408a1.36,1.36,0,0,1-1.357,1.357h-4.508a1.36,1.36,0,0,1-1.357-1.357h4.508a1.36,1.36,0,0,0,1.357-1.357Z" transform="translate(-171.363 -338.36)" fill="#ffd064" fill-rule="evenodd"/>
            <path id="Trazado_878090" data-name="Trazado 878090" d="M294.954,348.361h4.508a1.36,1.36,0,0,1,1.357,1.357v18.408a1.36,1.36,0,0,1-1.357,1.357h-4.508a1.36,1.36,0,0,1-1.357-1.357V349.718A1.36,1.36,0,0,1,294.954,348.361Z" transform="translate(-254.842 -338.36)" fill="#fe646f" fill-rule="evenodd"/>
            <path id="Trazado_878091" data-name="Trazado 878091" d="M299.462,348.361a1.36,1.36,0,0,1,1.357,1.357v18.408a1.36,1.36,0,0,1-1.357,1.357h-4.508a1.36,1.36,0,0,1-1.357-1.357H298.1a1.36,1.36,0,0,0,1.357-1.357Z" transform="translate(-254.842 -338.36)" fill="#fd4755" fill-rule="evenodd"/>
            <path id="Trazado_878092" data-name="Trazado 878092" d="M9.357,321.361h4.508a1.36,1.36,0,0,1,1.357,1.357v22.071a1.36,1.36,0,0,1-1.357,1.357H9.357A1.36,1.36,0,0,1,8,344.789V322.718A1.36,1.36,0,0,1,9.357,321.361Z" transform="translate(-8 -315.023)" fill="#6cf5c2" fill-rule="evenodd"/>
            <path id="Trazado_878093" data-name="Trazado 878093" d="M13.865,321.361a1.36,1.36,0,0,1,1.357,1.357v22.071a1.36,1.36,0,0,1-1.357,1.357H9.357A1.36,1.36,0,0,1,8,344.789h4.508a1.36,1.36,0,0,0,1.357-1.357Z" transform="translate(-8 -315.023)" fill="#00e499" fill-rule="evenodd"/>
            <path id="Trazado_878094" data-name="Trazado 878094" d="M101.783,274.658h4.508a1.36,1.36,0,0,1,1.357,1.357v28.409a1.36,1.36,0,0,1-1.357,1.357h-4.508a1.36,1.36,0,0,1-1.357-1.357V276.015A1.36,1.36,0,0,1,101.783,274.658Z" transform="translate(-87.884 -274.658)" fill="#8ac9fe" fill-rule="evenodd"/>
            <path id="Trazado_878095" data-name="Trazado 878095" d="M106.291,274.658a1.36,1.36,0,0,1,1.357,1.357v28.409a1.36,1.36,0,0,1-1.357,1.357h-4.508a1.36,1.36,0,0,1-1.357-1.357h4.508a1.36,1.36,0,0,0,1.357-1.357Z" transform="translate(-87.884 -274.658)" fill="#60b7ff" fill-rule="evenodd"/>
          </g>
          <g id="Grupo_1100582" data-name="Grupo 1100582" transform="translate(27.565 26.144)">
            <path id="Trazado_878096" data-name="Trazado 878096" d="M375.593,354.862a14.058,14.058,0,0,1-2.372,2.612l6.45,6.323,2.456-2.531Z" transform="translate(-345.346 -328.062)" fill="#a79ba7" fill-rule="evenodd"/>
            <path id="Trazado_878097" data-name="Trazado 878097" d="M386.551,354.541a1.62,1.62,0,0,1-.7.941l6.407,6.365.785-.86Z" transform="translate(-356.26 -327.784)" fill="#837683" fill-rule="evenodd"/>
            <path id="Trazado_878098" data-name="Trazado 878098" d="M418.163,401.828l2.771-2.856a1.274,1.274,0,0,0-.027-1.8l-7.676-7.448a1.274,1.274,0,0,0-1.8.027l-2.771,2.856a1.274,1.274,0,0,0,.027,1.8l7.676,7.448A1.274,1.274,0,0,0,418.163,401.828Z" transform="translate(-375.67 -357.886)" fill="#f1ba84" fill-rule="evenodd"/>
            <path id="Trazado_878099" data-name="Trazado 878099" d="M434.214,389.726l7.676,7.448a1.274,1.274,0,0,1,.027,1.8l-2.771,2.856a1.262,1.262,0,0,1-.344.252,1.276,1.276,0,0,0,1.48-.252l2.771-2.856a1.274,1.274,0,0,0-.027-1.8l-7.676-7.448a1.276,1.276,0,0,0-1.453-.225A1.267,1.267,0,0,1,434.214,389.726Z" transform="translate(-397.788 -357.886)" fill="#e3a76f" fill-rule="evenodd"/>
            <circle id="Elipse_11888" data-name="Elipse 11888" cx="13.977" cy="13.977" r="13.977" transform="translate(0 19.764) rotate(-45)" fill="#eceff1"/>
            <path id="Trazado_878100" data-name="Trazado 878100" d="M309.192,200a13.977,13.977,0,1,1,0,27.955q-.341,0-.678-.017a13.977,13.977,0,0,0,0-27.921Q308.851,200,309.192,200Z" transform="translate(-289.419 -194.218)" fill="#d1d1d6" fill-rule="evenodd"/>
          </g>
          <g id="Grupo_1100583" data-name="Grupo 1100583" transform="translate(37.16 35.73)">
            <circle id="Elipse_11889" data-name="Elipse 11889" cx="10.177" cy="10.177" r="10.177" transform="translate(0 0)" fill="#837683"/>
            <path id="Trazado_878101" data-name="Trazado 878101" d="M316.118,238.182a10.179,10.179,0,0,1-9.273,10.138q.447.039.9.04a10.269,10.269,0,0,0,1.456-.1l.184-.028a10.178,10.178,0,0,0-1.64-20.223q-.457,0-.9.04A10.179,10.179,0,0,1,316.118,238.182Z" transform="translate(-297.573 -228.005)" fill="#685e68" fill-rule="evenodd"/>
            <path id="Trazado_878102" data-name="Trazado 878102" d="M268.5,310.239a7.11,7.11,0,0,0-7.067,6.342,10.143,10.143,0,0,0,7.067,2.853,10.274,10.274,0,0,0,1.456-.1,10.146,10.146,0,0,0,5.61-2.75A7.108,7.108,0,0,0,268.5,310.239Z" transform="translate(-258.325 -299.08)" fill="#8ac9fe" fill-rule="evenodd"/>
            <path id="Trazado_878103" data-name="Trazado 878103" d="M306.847,310.3c4.231.538,5.935,3.739,6.327,7.575a10.208,10.208,0,0,0,1.643-1.29,7.108,7.108,0,0,0-7.066-6.342A7.187,7.187,0,0,0,306.847,310.3Z" transform="translate(-297.574 -299.08)" fill="#60b7ff" fill-rule="evenodd"/>
            <circle id="Elipse_11890" data-name="Elipse 11890" cx="3.593" cy="3.593" r="3.593" transform="translate(6.584 3.435)" fill="#f6dccd"/>
            <path id="Trazado_878104" data-name="Trazado 878104" d="M313.322,256.911a3.594,3.594,0,0,1-3.141,3.565,3.593,3.593,0,1,0,0-7.13A3.594,3.594,0,0,1,313.322,256.911Z" transform="translate(-300.456 -249.883)" fill="#f1cbbc" fill-rule="evenodd"/>
          </g>
        </g>
        <path id="Trazado_878105" data-name="Trazado 878105" d="M33.448,41.125a9.036,9.036,0,0,0,1.5,4.995,8.17,8.17,0,0,1,4.213-4.375,4.679,4.679,0,1,1,6.757,0,8.177,8.177,0,0,1,4.213,4.375,9.09,9.09,0,1,0-16.684-4.995Zm9.092-.1a2.508,2.508,0,1,1,2.508-2.508A2.51,2.51,0,0,1,42.54,41.021Zm0,9.2a9.049,9.049,0,0,1-5.9-2.187,6.023,6.023,0,0,1,11.81,0A9.054,9.054,0,0,1,42.54,50.217ZM31.277,41.125A11.263,11.263,0,1,1,42.54,52.388,11.276,11.276,0,0,1,31.277,41.125ZM19.762,38.364H14.711V67.315h5.051Zm2.171-1.086V68.4a1.087,1.087,0,0,1-1.085,1.086H13.626A1.086,1.086,0,0,1,12.54,68.4V37.278a1.085,1.085,0,0,1,1.086-1.086h7.222a1.086,1.086,0,0,1,1.085,1.086ZM67.249,61.428,59.573,53.98a.178.178,0,0,0-.127-.051h0a.182.182,0,0,0-.13.054L56.54,56.84a.19.19,0,0,0,0,.262l7.675,7.449a.191.191,0,0,0,.262,0l2.772-2.857A.19.19,0,0,0,67.249,61.428ZM45.974,55.793a15.1,15.1,0,0,1-5.051.308V67.315h5.051ZM32.867,52.662a15.171,15.171,0,0,1-3.532-4.3H27.817v18.95h5.051ZM29.649,41.125A12.892,12.892,0,1,1,42.54,54.017,12.906,12.906,0,0,1,29.649,41.125Zm8.007-14.25a14.959,14.959,0,0,1,3.8-.774V24.6h-3.8ZM54.107,50.763c-.289.347-.595.682-.914,1l2.7,2.622.944-.973Zm14.7,12.44L66.04,66.058a2.359,2.359,0,0,1-3.333.05L55.033,58.66a2.361,2.361,0,0,1-.533-2.6l-2.954-2.867a15.056,15.056,0,0,1-3.4,1.914V68.4a1.087,1.087,0,0,1-1.085,1.086H39.838A1.086,1.086,0,0,1,38.753,68.4v-12.7a14.947,14.947,0,0,1-3.714-1.522V68.4a1.086,1.086,0,0,1-1.086,1.086H26.731A1.086,1.086,0,0,1,25.646,68.4V47.28a1.085,1.085,0,0,1,1.085-1.086h1.624a15.062,15.062,0,0,1,7.13-18.374v-4.3a1.086,1.086,0,0,1,1.086-1.086h5.967a1.086,1.086,0,0,1,1.086,1.086V26.1a14.947,14.947,0,0,1,5.722,1.588h8.543a1.086,1.086,0,1,1,0,2.171h-5.36a15.038,15.038,0,0,1,2.859,19.121l3.08,2.989a2.363,2.363,0,0,1,2.618.453l7.675,7.449a2.358,2.358,0,0,1,.05,3.331ZM7.219,44.7H2.169V67.315H7.219Zm2.171-1.085V68.4A1.086,1.086,0,0,1,8.3,69.486H1.083A1.086,1.086,0,0,1,0,68.4V43.616A1.086,1.086,0,0,1,1.083,42.53H8.3a1.085,1.085,0,0,1,1.086,1.086ZM37.656,17.187h3.8v-3.8h-3.8Zm-2.171,1.086V12.306a1.085,1.085,0,0,1,1.086-1.085h5.967a1.085,1.085,0,0,1,1.086,1.085v5.967a1.086,1.086,0,0,1-1.086,1.086H36.571A1.086,1.086,0,0,1,35.485,18.273Zm11.9.375h10.5a1.086,1.086,0,1,0,0-2.171h-10.5a1.086,1.086,0,0,0,0,2.171Zm0-4.545h21a1.086,1.086,0,0,0,0-2.172h-21a1.086,1.086,0,0,0,0,2.172ZM37.656,5.975h3.8V2.181h-3.8ZM35.485,7.061V1.095A1.085,1.085,0,0,1,36.571.009h5.967a1.086,1.086,0,0,1,1.086,1.086V7.061a1.085,1.085,0,0,1-1.086,1.086H36.571A1.086,1.086,0,0,1,35.485,7.061Zm11.9.375h10.5a1.085,1.085,0,1,0,0-2.171h-10.5a1.085,1.085,0,0,0,0,2.171Zm0-4.545h21a1.086,1.086,0,1,0,0-2.171h-21a1.086,1.086,0,0,0,0,2.171ZM2.169,15.29A13.109,13.109,0,0,0,20.963,27.1L14.342,15.84a1.1,1.1,0,0,1-.149-.551V2.225A13.128,13.128,0,0,0,2.169,15.29ZM16.364,2.225A13.134,13.134,0,0,1,28.343,14.21L16.364,14.2ZM28.342,16.381l-11.166-.005L22.833,26a13.112,13.112,0,0,0,5.509-9.617ZM0,15.29A15.281,15.281,0,1,0,15.278.009,15.3,15.3,0,0,0,0,15.29ZM46.3,24.23a1.085,1.085,0,0,0,1.085,1.085h21a1.085,1.085,0,1,0,0-2.171h-21A1.085,1.085,0,0,0,46.3,24.23Z" transform="translate(-30.537 -30.516)" fill="#00223d" fill-rule="evenodd"/>
      </g>
    </g>
  </g>
</svg>
