<svg xmlns="http://www.w3.org/2000/svg" width="78.501" height="74.27" viewBox="0 0 78.501 74.27">
  <g id="Grupo_1101900" data-name="Grupo 1101900" transform="translate(-244 -30848.363)">
    <path id="_12068" data-name="12068" d="M72.033,71.913c-8.038-1.11-16.53-.839-23.844,2.675C38.045,79.46,31.382,90.507,31.127,101.757s5.606,22.305,14.66,28.988,21,9.051,32.068,7.045c11.165-2.023,21.645-8.583,27.469-18.322,3.735-6.245,5.48-13.956,3.417-20.934a28.6,28.6,0,0,0-6.787-11.156A50.145,50.145,0,0,0,72.033,71.913Z" transform="translate(212.881 30784.152)" fill="#26aab7"/>
    <g id="analisis-de-la-competencia" transform="translate(209.482 30848.363)">
      <g id="Grupo_1100590" data-name="Grupo 1100590" transform="translate(44.032 1.16)">
        <path id="Trazado_878153" data-name="Trazado 878153" d="M69.261,137.69h9.687a1.216,1.216,0,0,1,1.211,1.216v27.4a1.215,1.215,0,0,1-1.211,1.211H69.261a1.215,1.215,0,0,1-1.211-1.211v-27.4A1.216,1.216,0,0,1,69.261,137.69Z" transform="translate(-65.577 -118.878)" fill="#ffd23b" fill-rule="evenodd"/>
        <path id="Trazado_878154" data-name="Trazado 878154" d="M59.528,25.39A8.53,8.53,0,1,0,51,16.858,8.546,8.546,0,0,0,59.528,25.39Z" transform="translate(-51 -8.282)" fill="#ebf5fc" fill-rule="evenodd"/>
        <path id="Trazado_878155" data-name="Trazado 878155" d="M84.056,82.125a8.536,8.536,0,0,1-10.516,0V80.487a3.689,3.689,0,0,1,3.68-3.677h3.155a3.689,3.689,0,0,1,3.68,3.677v1.638Z" transform="translate(-70.27 -66.829)" fill="#0593fc" fill-rule="evenodd"/>
        <path id="Trazado_878156" data-name="Trazado 878156" d="M94.486,29.89a2.6,2.6,0,1,1-2.6,2.6A2.6,2.6,0,0,1,94.486,29.89Z" transform="translate(-85.959 -26.715)" fill="#fbbd80" fill-rule="evenodd"/>
        <path id="Trazado_878157" data-name="Trazado 878157" d="M215.456,175.78h9.682a1.219,1.219,0,0,1,1.216,1.211v21.88a1.219,1.219,0,0,1-1.216,1.211h-9.682a1.217,1.217,0,0,1-1.216-1.211v-21.88A1.218,1.218,0,0,1,215.456,175.78Z" transform="translate(-190.561 -151.443)" fill="#fea832" fill-rule="evenodd"/>
        <path id="Trazado_878158" data-name="Trazado 878158" d="M205.728,61.72a8.53,8.53,0,1,0-8.528-8.532,8.548,8.548,0,0,0,8.528,8.532Z" transform="translate(-175.993 -39.342)" fill="#ebf5fc" fill-rule="evenodd"/>
        <path id="Trazado_878159" data-name="Trazado 878159" d="M230.246,118.433a8.52,8.52,0,0,1-10.516,0V116.8a3.691,3.691,0,0,1,3.68-3.68h3.159a3.689,3.689,0,0,1,3.677,3.68Z" transform="translate(-195.255 -97.872)" fill="#0593fc" fill-rule="evenodd"/>
        <path id="Trazado_878160" data-name="Trazado 878160" d="M240.686,66.21a2.6,2.6,0,1,1-2.6,2.6A2.6,2.6,0,0,1,240.686,66.21Z" transform="translate(-210.952 -57.766)" fill="#fbbd80" fill-rule="evenodd"/>
        <path id="Trazado_878161" data-name="Trazado 878161" d="M361.656,213.87h9.682a1.217,1.217,0,0,1,1.216,1.211v16.355a1.216,1.216,0,0,1-1.216,1.211h-9.682a1.217,1.217,0,0,1-1.216-1.211V215.08A1.216,1.216,0,0,1,361.656,213.87Z" transform="translate(-315.555 -184.008)" fill="#ffd23b" fill-rule="evenodd"/>
        <path id="Trazado_878162" data-name="Trazado 878162" d="M351.922,98.045a8.528,8.528,0,1,0-8.532-8.528A8.546,8.546,0,0,0,351.922,98.045Z" transform="translate(-300.978 -70.403)" fill="#ebf5fc" fill-rule="evenodd"/>
        <path id="Trazado_878163" data-name="Trazado 878163" d="M376.472,154.763a8.53,8.53,0,0,1-10.512,0V153.13a3.689,3.689,0,0,1,3.677-3.68H372.8a3.689,3.689,0,0,1,3.677,3.68v1.633Z" transform="translate(-320.274 -128.932)" fill="#0593fc" fill-rule="evenodd"/>
        <path id="Trazado_878164" data-name="Trazado 878164" d="M386.906,102.54a2.6,2.6,0,1,1-2.6,2.6,2.594,2.594,0,0,1,2.6-2.6Z" transform="translate(-335.962 -88.827)" fill="#fbbd80" fill-rule="evenodd"/>
        <path id="Trazado_878165" data-name="Trazado 878165" d="M121.5,254.529a10.7,10.7,0,1,1-14.621,3.919,10.7,10.7,0,0,1,14.621-3.919Z" transform="translate(-97.543 -217.542)" fill="#aae6fa" fill-rule="evenodd"/>
        <path id="Trazado_878166" data-name="Trazado 878166" d="M81.076,412.92,75.141,423.2a1.8,1.8,0,1,1-3.114-1.8l5.934-10.284a1.157,1.157,0,0,1,1.577-.422l1.115.646A1.155,1.155,0,0,1,81.076,412.92Z" transform="translate(-68.772 -352.154)" fill="#334973" fill-rule="evenodd"/>
        <path id="Trazado_878167" data-name="Trazado 878167" d="M116.925,274.488a10.7,10.7,0,1,1,.02-21.352,10.705,10.705,0,0,0-.02,21.352Z" transform="translate(-97.543 -217.553)" fill="#99cfe1" fill-rule="evenodd"/>
        <path id="Trazado_878168" data-name="Trazado 878168" d="M69.261,137.69h1.848a1.216,1.216,0,0,0-1.211,1.216v27.4a1.215,1.215,0,0,0,1.211,1.211H69.261a1.215,1.215,0,0,1-1.211-1.211v-27.4A1.216,1.216,0,0,1,69.261,137.69Z" transform="translate(-65.577 -118.878)" fill="#e6bd35" fill-rule="evenodd"/>
        <path id="Trazado_878169" data-name="Trazado 878169" d="M215.456,175.78H217.3a1.217,1.217,0,0,0-1.216,1.211v12.543a10.976,10.976,0,0,0-1.574-1.1l-.274-.155V176.991A1.218,1.218,0,0,1,215.456,175.78Z" transform="translate(-190.561 -151.443)" fill="#e5972d" fill-rule="evenodd"/>
        <path id="Trazado_878170" data-name="Trazado 878170" d="M361.656,213.87H363.5a1.217,1.217,0,0,0-1.216,1.211v16.355a1.216,1.216,0,0,0,1.216,1.211h-1.848a1.217,1.217,0,0,1-1.216-1.211V215.08A1.216,1.216,0,0,1,361.656,213.87Z" transform="translate(-315.555 -184.008)" fill="#e6bd35" fill-rule="evenodd"/>
        <path id="Trazado_878171" data-name="Trazado 878171" d="M371.818,181.934c-.176.012-.354.016-.538.016a8.514,8.514,0,0,1-5.27-1.816v-1a8.534,8.534,0,0,0,5.811,2.8Z" transform="translate(-320.317 -154.307)" fill="#0584e3" fill-rule="evenodd"/>
        <path id="Trazado_878172" data-name="Trazado 878172" d="M351.942,80.66c.183,0,.363.007.541.016a8.554,8.554,0,0,0-5.811,14.267v1a8.552,8.552,0,0,1,5.27-15.287Z" transform="translate(-300.978 -70.12)" fill="#d4dde3" fill-rule="evenodd"/>
        <path id="Trazado_878173" data-name="Trazado 878173" d="M225.628,145.6c-.18.012-.358.02-.538.02a8.511,8.511,0,0,1-5.27-1.82v-1A8.521,8.521,0,0,0,225.628,145.6Z" transform="translate(-195.332 -123.247)" fill="#0584e3" fill-rule="evenodd"/>
        <path id="Trazado_878174" data-name="Trazado 878174" d="M205.742,44.33c.183,0,.363.007.538.02a8.548,8.548,0,0,0-5.808,14.263v1a8.552,8.552,0,0,1,5.27-15.287Z" transform="translate(-175.985 -39.06)" fill="#d4dde3" fill-rule="evenodd"/>
        <path id="Trazado_878175" data-name="Trazado 878175" d="M79.4,109.278c-.18.007-.358.016-.538.016a8.524,8.524,0,0,1-5.274-1.82v-1a8.534,8.534,0,0,0,5.811,2.8v0Z" transform="translate(-70.313 -92.187)" fill="#0584e3" fill-rule="evenodd"/>
        <path id="Trazado_878176" data-name="Trazado 878176" d="M59.552,8c.18,0,.358.007.538.02A8.552,8.552,0,0,0,54.28,22.285v1l0,0A8.555,8.555,0,0,1,59.552,8Z" transform="translate(-51 -8)" fill="#d4dde3" fill-rule="evenodd"/>
      </g>
      <path id="Trazado_878177" data-name="Trazado 878177" d="M79.853,22.509a9.694,9.694,0,1,0-12.16.007,1.135,1.135,0,0,0,.2.155A9.685,9.685,0,0,0,71.15,24.3H68.923a2.379,2.379,0,0,0-2.375,2.379V36.2a11.85,11.85,0,0,0-6.78-.309V21.152a2.379,2.379,0,0,0-2.379-2.375H55.947a9.709,9.709,0,0,0,2.473-1.371,1.189,1.189,0,0,0,.213-.167,9.7,9.7,0,1,0-12.142.022,1.1,1.1,0,0,0,.171.133,9.712,9.712,0,0,0,2.486,1.382H47.7a2.379,2.379,0,0,0-2.379,2.375V48.573A2.379,2.379,0,0,0,47.7,50.947h3.6a11.837,11.837,0,0,0,4.41,6.108l-.827,1.43A2.321,2.321,0,0,0,52.2,59.537L46.262,69.829a2.958,2.958,0,0,0,3.332,4.339,2.93,2.93,0,0,0,1.8-1.377L57.332,62.5a2.311,2.311,0,0,0-.429-2.852l.827-1.43a11.86,11.86,0,0,0,16.233-7.27h4.653a2.377,2.377,0,0,0,2.375-2.375V26.681A2.379,2.379,0,0,0,78.616,24.3H76.385a9.654,9.654,0,0,0,3.255-1.626,1.042,1.042,0,0,0,.213-.167ZM51.111,6.887a1.437,1.437,0,1,1,1.437,1.437A1.439,1.439,0,0,1,51.111,6.887Zm3.016,5.373a2.525,2.525,0,0,1,2.522,2.522v1.039a7.361,7.361,0,0,1-8.2,0V14.782a2.523,2.523,0,0,1,2.518-2.522ZM45.172,9.7A7.375,7.375,0,1,1,58.817,13.57a4.856,4.856,0,0,0-4.122-3.6,3.76,3.76,0,1,0-4.3,0,4.852,4.852,0,0,0-4.12,3.6A7.323,7.323,0,0,1,45.172,9.7ZM47.7,48.623a.057.057,0,0,1-.055-.051V21.152A.058.058,0,0,1,47.7,21.1H57.39a.057.057,0,0,1,.055.051V36.725a11.838,11.838,0,0,0-6.619,11.9ZM49.379,71.63a.638.638,0,0,1-1.1-.64L54.211,60.7l1.108.638ZM55.32,61.339s0,0,0,0l1,.585ZM70.9,52.177a9.547,9.547,0,1,1-3.758-13.191l.01.006.065.035c.062.033.123.068.186.1.132.077.261.157.389.238l.093.061c.1.067.2.135.3.2l.073.052A9.568,9.568,0,0,1,70.9,52.177Zm7.763-25.5V48.573a.057.057,0,0,1-.051.051H74.443c.029-.289.046-.579.055-.87,0-.023,0-.046,0-.07.007-.36,0-.719-.025-1.078l0-.059a11.962,11.962,0,0,0-.923-3.819,11.764,11.764,0,0,0-4.413-5.261l-.106-.068c-.052-.033-.1-.067-.154-.1V26.68a.055.055,0,0,1,.051-.055h9.691a.061.061,0,0,1,.049.057ZM66.4,14.967a7.372,7.372,0,1,1,13.641,3.874,4.856,4.856,0,0,0-4.128-3.6,3.76,3.76,0,1,0-4.285,0,4.855,4.855,0,0,0-4.124,3.6A7.319,7.319,0,0,1,66.4,14.967Zm5.933-2.808A1.437,1.437,0,1,1,73.768,13.6a1.439,1.439,0,0,1-1.437-1.437Zm3.017,5.377a2.523,2.523,0,0,1,2.522,2.518v1.039a7.358,7.358,0,0,1-8.2,0v-1.04a2.521,2.521,0,0,1,2.518-2.518Zm24.489,12.3H96.4a9.656,9.656,0,0,0,4.478-1.891,1.127,1.127,0,0,0,.184-.145,9.7,9.7,0,1,0-12.145-.009,1.182,1.182,0,0,0,.2.158,9.665,9.665,0,0,0,4.475,1.889H90.145a2.377,2.377,0,0,0-2.375,2.375V48.574a2.377,2.377,0,0,0,2.375,2.375h9.691a2.377,2.377,0,0,0,2.375-2.375V32.208a2.375,2.375,0,0,0-2.373-2.375Zm-6.281-12.4a1.437,1.437,0,1,1,1.437,1.437A1.439,1.439,0,0,1,93.556,17.434Zm3.016,5.373a2.521,2.521,0,0,1,2.518,2.518v1.041a7.358,7.358,0,0,1-8.2,0v-1.04a2.521,2.521,0,0,1,2.518-2.518Zm-8.954-2.565a7.372,7.372,0,1,1,13.642,3.873,4.855,4.855,0,0,0-4.12-3.6,3.761,3.761,0,1,0-4.3,0,4.853,4.853,0,0,0-4.122,3.6,7.313,7.313,0,0,1-1.1-3.871Zm12.27,28.33a.057.057,0,0,1-.051.051H90.145a.057.057,0,0,1-.051-.051V32.208a.053.053,0,0,1,.051-.051h9.691a.053.053,0,0,1,.051.051V48.573Z" fill="#00223d"/>
    </g>
  </g>
</svg>
