<svg xmlns="http://www.w3.org/2000/svg" width="78.501" height="78.633" viewBox="0 0 78.501 78.633">
  <g id="Grupo_1101899" data-name="Grupo 1101899" transform="translate(-244 -30538)">
    <path id="_12068" data-name="12068" d="M72.033,71.913c-8.038-1.11-16.53-.839-23.844,2.675C38.045,79.46,31.382,90.507,31.127,101.757s5.606,22.305,14.66,28.988,21,9.051,32.068,7.045c11.165-2.023,21.645-8.583,27.469-18.322,3.735-6.245,5.48-13.956,3.417-20.934a28.6,28.6,0,0,0-6.787-11.156A50.145,50.145,0,0,0,72.033,71.913Z" transform="translate(212.881 30478.152)" fill="#26aab7"/>
    <g id="investigacion-de-productos" transform="translate(238.356 30572.055)">
      <g id="Grupo_1100589" data-name="Grupo 1100589" transform="translate(9.167 -34.055)">
        <g id="Grupo_1100586" data-name="Grupo 1100586" transform="translate(0 0)">
          <path id="Trazado_878133" data-name="Trazado 878133" d="M106.147,212.5a19.01,19.01,0,0,0,3.208,3.532l-8.724,8.551-3.321-3.422Z" transform="translate(-85.354 -176.253)" fill="#a79ba7" fill-rule="evenodd"/>
          <path id="Trazado_878134" data-name="Trazado 878134" d="M117.928,231.32a2.191,2.191,0,0,0,.95,1.273l-8.666,8.609-1.061-1.163Z" transform="translate(-95.454 -192.308)" fill="#837683" fill-rule="evenodd"/>
          <path id="Trazado_878135" data-name="Trazado 878135" d="M20.208,272.428l-3.748-3.863a1.723,1.723,0,0,1,.037-2.43l10.381-10.074a1.724,1.724,0,0,1,2.43.036l3.748,3.863a1.724,1.724,0,0,1-.037,2.43L22.638,272.464a1.724,1.724,0,0,1-2.43-.036Z" transform="translate(-15.976 -213)" fill="#f1ba84" fill-rule="evenodd"/>
          <path id="Trazado_878136" data-name="Trazado 878136" d="M33.064,289.042,22.683,299.115a1.723,1.723,0,0,1-2.43-.037L16.5,295.216a1.7,1.7,0,0,1-.326-.476,1.725,1.725,0,0,0,.28,2.011l3.748,3.863a1.723,1.723,0,0,0,2.43.036l10.381-10.073a1.725,1.725,0,0,0,.363-1.955A1.7,1.7,0,0,1,33.064,289.042Z" transform="translate(-15.976 -241.186)" fill="#e3a76f" fill-rule="evenodd"/>
          <circle id="Elipse_11894" data-name="Elipse 11894" cx="18.904" cy="18.904" r="18.904" transform="translate(8.223 26.73) rotate(-45)" fill="#aee6e6"/>
          <path id="Trazado_878137" data-name="Trazado 878137" d="M248.459,19.17a18.9,18.9,0,1,1,0,37.808q-.462,0-.918-.022a18.9,18.9,0,0,0,0-37.763q.456-.022.918-.022Z" transform="translate(-213.499 -11.346)" fill="#60b7ff" fill-rule="evenodd"/>
          <circle id="Elipse_11895" data-name="Elipse 11895" cx="14.643" cy="14.643" r="14.643" transform="matrix(0.987, -0.16, 0.16, 0.987, 18.157, 14.624)" fill="#eceff1"/>
          <path id="Trazado_878138" data-name="Trazado 878138" d="M168.822,48.158c.333,0,.663.012.99.034a14.642,14.642,0,0,0,0,29.217c-.327.022-.657.034-.99.034a14.643,14.643,0,0,1,0-29.285Z" transform="translate(-133.862 -36.072)" fill="#d1d1d6" fill-rule="evenodd"/>
        </g>
        <g id="Grupo_1100587" data-name="Grupo 1100587" transform="translate(25.063 15.432)">
          <path id="Trazado_878139" data-name="Trazado 878139" d="M196.791,71.037l9.032,5.214a.844.844,0,0,1,.432.749V87.429a.845.845,0,0,1-.432.749l-9.032,5.214a.845.845,0,0,1-.865,0l-9.032-5.214a.845.845,0,0,1-.432-.749V77a.845.845,0,0,1,.432-.749l9.032-5.214A.845.845,0,0,1,196.791,71.037Z" transform="translate(-186.462 -70.918)" fill="#f2d1a5" fill-rule="evenodd"/>
          <path id="Trazado_878140" data-name="Trazado 878140" d="M197.446,71.037l9.032,5.214a.862.862,0,0,1,.319.315l-9.783,5.648-9.783-5.648a.862.862,0,0,1,.319-.315l9.032-5.214A.845.845,0,0,1,197.446,71.037Z" transform="translate(-187.117 -70.918)" fill="#e3a76f" fill-rule="evenodd"/>
          <path id="Trazado_878141" data-name="Trazado 878141" d="M263.565,109.341a.86.86,0,0,1,.113.434V120.2a.845.845,0,0,1-.432.749l-9.032,5.214a.861.861,0,0,1-.432.119v-11.3Z" transform="translate(-243.886 -103.693)" fill="#ecba78" fill-rule="evenodd"/>
          <path id="Trazado_878142" data-name="Trazado 878142" d="M210.361,89.541l2.87,1.657,9.9-5.714-2.87-1.657Z" transform="translate(-206.848 -81.929)" fill="#c48958" fill-rule="evenodd"/>
          <path id="Trazado_878143" data-name="Trazado 878143" d="M212.582,128.477l-1.789-1.033a.844.844,0,0,1-.432-.749v-4l2.87,1.657V128.1a.432.432,0,0,1-.649.374Z" transform="translate(-206.848 -115.083)" fill="#e3a76f" fill-rule="evenodd"/>
        </g>
        <g id="Grupo_1100588" data-name="Grupo 1100588" transform="translate(28.06 42.396)">
          <path id="Trazado_878144" data-name="Trazado 878144" d="M207.821,380.377h4.245a.968.968,0,0,1,.967.966v9.92a.968.968,0,0,1-.967.967h-4.245a.968.968,0,0,1-.967-.967v-9.92A.968.968,0,0,1,207.821,380.377Z" transform="translate(-206.854 -361.849)" fill="#fe646f" fill-rule="evenodd"/>
          <path id="Trazado_878145" data-name="Trazado 878145" d="M231.35,380.377h1.611a.968.968,0,0,1,.967.966v9.92a.968.968,0,0,1-.967.967H231.35a.968.968,0,0,0,.967-.967v-9.92A.968.968,0,0,0,231.35,380.377Z" transform="translate(-227.749 -361.849)" fill="#fd4755" fill-rule="evenodd"/>
          <path id="Trazado_878146" data-name="Trazado 878146" d="M290.107,338.132h-4.246a.968.968,0,0,0-.966.967v16.13a.968.968,0,0,0,.966.967h4.246a.968.968,0,0,0,.967-.967V339.1A.969.969,0,0,0,290.107,338.132Z" transform="translate(-273.422 -325.814)" fill="#ffe177" fill-rule="evenodd"/>
          <path id="Trazado_878147" data-name="Trazado 878147" d="M311,338.132H309.39a.968.968,0,0,1,.967.967v16.13a.968.968,0,0,1-.967.967H311a.969.969,0,0,0,.967-.967V339.1A.969.969,0,0,0,311,338.132Z" transform="translate(-294.317 -325.814)" fill="#ffd064" fill-rule="evenodd"/>
          <path id="Trazado_878148" data-name="Trazado 878148" d="M368.147,294.021H363.9a.968.968,0,0,0-.967.966V317.6a.968.968,0,0,0,.967.967h4.245a.968.968,0,0,0,.967-.967V294.987A.968.968,0,0,0,368.147,294.021Z" transform="translate(-339.99 -288.187)" fill="#6cf5c2" fill-rule="evenodd"/>
          <path id="Trazado_878149" data-name="Trazado 878149" d="M389.042,294.02h-1.611a.968.968,0,0,1,.967.967V317.6a.968.968,0,0,1-.967.967h1.611a.968.968,0,0,0,.967-.967V294.987A.969.969,0,0,0,389.042,294.02Z" transform="translate(-360.885 -288.187)" fill="#00e499" fill-rule="evenodd"/>
          <path id="Trazado_878150" data-name="Trazado 878150" d="M441.941,254.338h4.245a.968.968,0,0,1,.967.967v28.449a.969.969,0,0,1-.967.967h-4.245a.968.968,0,0,1-.966-.967V255.3A.968.968,0,0,1,441.941,254.338Z" transform="translate(-406.558 -254.338)" fill="#8ac9fe" fill-rule="evenodd"/>
          <path id="Trazado_878151" data-name="Trazado 878151" d="M465.47,254.338h1.611a.968.968,0,0,1,.967.967v28.449a.968.968,0,0,1-.967.967H465.47a.968.968,0,0,0,.967-.967V255.3A.969.969,0,0,0,465.47,254.338Z" transform="translate(-427.452 -254.338)" fill="#60b7ff" fill-rule="evenodd"/>
        </g>
      </g>
      <path id="Trazado_878152" data-name="Trazado 878152" d="M35.415,27.533l1.163.676v3.846a1.178,1.178,0,0,0,.581,1.017l2.872,1.659a1.2,1.2,0,0,0,.588.157A1.175,1.175,0,0,0,41.8,33.713v-2.47l1.163.675v8.715l-7.542-4.356V27.533Zm8.718-6.364,1.162.672-7.528,4.344-1.156-.672ZM45.31,40.633V31.921l7.549-4.358v8.714Zm5.2-15.777L42.978,29.21l1.156.673,7.549-4.354Zm-11.59,4.719v1.8l.526.3v-1.8Zm1.19-2.029.519.3L48.168,23.5l-.519-.3Zm4.02,16.3a1.184,1.184,0,0,0,.588-.158l9.895-5.713a1.169,1.169,0,0,0,.588-1.019V25.529a1.168,1.168,0,0,0-.588-1.017L44.722,18.8a1.175,1.175,0,0,0-1.176,0l-9.895,5.717a1.168,1.168,0,0,0-.588,1.017V36.954a1.169,1.169,0,0,0,.588,1.019l9.895,5.713A1.183,1.183,0,0,0,44.134,43.843Zm0-26.069A13.468,13.468,0,1,0,57.6,31.242,13.481,13.481,0,0,0,44.134,17.774Zm0,29.285A15.818,15.818,0,1,0,28.316,31.242,15.832,15.832,0,0,0,44.134,47.059Zm-18.738,6L15.017,63.135a.543.543,0,0,1-.768-.012L10.5,59.261a.536.536,0,0,1-.152-.387.543.543,0,0,1,.166-.382L20.891,48.416a.542.542,0,0,1,.374-.153.557.557,0,0,1,.394.165l3.75,3.863A.544.544,0,0,1,25.4,53.059Zm4.747-7.428-4.075,3.961-1.688-1.735,4.138-4.012a20.286,20.286,0,0,0,1.626,1.786ZM44.134,13.511a17.729,17.729,0,1,0,17.728,17.73A17.747,17.747,0,0,0,44.134,13.511ZM31.928,47.174a20.1,20.1,0,1,0-4.8-5.263l-4.484,4.352a2.907,2.907,0,0,0-3.4.467L8.872,56.8a2.883,2.883,0,0,0-.879,2.033A2.922,2.922,0,0,0,8.81,60.9l3.75,3.862a2.9,2.9,0,0,0,4.1.063L27.036,54.746a2.894,2.894,0,0,0,.567-3.375Zm48.983,34.8a1.175,1.175,0,0,1-1.176,1.175H35.325a1.175,1.175,0,0,1,0-2.349H79.734A1.175,1.175,0,0,1,80.91,81.972ZM71.714,35.5a1.173,1.173,0,0,0,1.239,1.112l1.619-.088A115.647,115.647,0,0,1,36.2,58.476a1.175,1.175,0,0,0-.727,1.5,1.187,1.187,0,0,0,1.114.79,1.134,1.134,0,0,0,.381-.066A118.024,118.024,0,0,0,76.2,38.23L75.956,39.9a1.169,1.169,0,0,0,.99,1.332,1.558,1.558,0,0,0,.173.012,1.18,1.18,0,0,0,1.163-1.005l.713-4.9a1.193,1.193,0,0,0-.3-.962A1.161,1.161,0,0,0,77.769,34l-4.947.266A1.176,1.176,0,0,0,71.714,35.5ZM42.238,76.114H38.411v-9.5h3.826Zm-5-11.852h6.179a1.176,1.176,0,0,1,1.176,1.175V77.288a1.175,1.175,0,0,1-1.176,1.175H37.235a1.175,1.175,0,0,1-1.176-1.175V65.437A1.175,1.175,0,0,1,37.235,64.262Zm39.42,11.852H72.822V48.086h3.833Zm1.176-30.379A1.174,1.174,0,0,1,79,46.909V77.288a1.174,1.174,0,0,1-1.169,1.175H71.652a1.175,1.175,0,0,1-1.176-1.175V46.909a1.175,1.175,0,0,1,1.176-1.174ZM53.71,76.114H49.884V60.4H53.71Zm-5-18.061h6.179a1.175,1.175,0,0,1,1.176,1.176v18.06a1.175,1.175,0,0,1-1.176,1.175H48.707a1.175,1.175,0,0,1-1.176-1.175V59.229A1.175,1.175,0,0,1,48.707,58.053ZM65.183,76.114H61.356v-22.2h3.826Zm-5-24.549h6.179a1.175,1.175,0,0,1,1.176,1.174V77.288a1.175,1.175,0,0,1-1.176,1.175H60.18A1.175,1.175,0,0,1,59,77.288V52.74A1.175,1.175,0,0,1,60.18,51.565Z" transform="translate(0 -38.569)" fill="#00223d" fill-rule="evenodd"/>
    </g>
  </g>
</svg>
