<svg xmlns="http://www.w3.org/2000/svg" width="129.737" height="118.16" viewBox="0 0 129.737 118.16">
  <g id="Grupo_1101895" data-name="Grupo 1101895" transform="translate(-251.264 -9632.062)">
    <path id="_12068" data-name="12068" d="M98.737,72.292c-13.285-1.834-27.318-1.386-39.407,4.421-16.765,8.052-27.775,26.309-28.2,44.9S40.4,158.479,55.36,169.523s34.7,14.959,53,11.643c18.453-3.344,35.773-14.186,45.4-30.28,6.172-10.321,9.057-23.065,5.647-34.6-2.059-6.961-6.267-13.128-11.217-18.437A82.875,82.875,0,0,0,98.737,72.292Z" transform="translate(220.145 9567.913)" fill="#26aab7"/>
    <g id="inversion" transform="translate(264.132 9632.042)">
      <path id="Trazado_878673" data-name="Trazado 878673" d="M172.272,409.047H131.406a3.406,3.406,0,1,1,0-6.811h6.811l6.811-10.217H158.65l8.514,10.217h5.108a3.406,3.406,0,0,1,0,6.811Zm0,0" transform="translate(-100.755 -308.564)" fill="#d9d9d9"/>
      <path id="Trazado_878674" data-name="Trazado 878674" d="M14.811,8.02H99.95a6.811,6.811,0,0,1,6.811,6.811V82.942a6.811,6.811,0,0,1-6.811,6.811H14.811A6.811,6.811,0,0,1,8,82.942V14.831A6.811,6.811,0,0,1,14.811,8.02Zm0,0" transform="translate(-6.297 -6.297)" fill="#d9d9d9"/>
      <path id="Trazado_878675" data-name="Trazado 878675" d="M106.761,76.131H8v-61.3A6.811,6.811,0,0,1,14.811,8.02H99.95a6.811,6.811,0,0,1,6.811,6.811Zm0,0" transform="translate(-6.297 -6.297)" fill="#5abcf3"/>
      <path id="Trazado_878676" data-name="Trazado 878676" d="M304.694,320.372a1.513,1.513,0,0,1-1.516-1.516V301.642a13.622,13.622,0,0,0-13.622-13.622H282.74a13.622,13.622,0,0,0-13.622,13.622v17.215a1.513,1.513,0,0,1-1.516,1.516,3.534,3.534,0,0,0-3.542,2.834,3.406,3.406,0,0,0,3.355,3.978h37.461a3.416,3.416,0,0,0,3.235-4.48A3.517,3.517,0,0,0,304.694,320.372Zm0,0" transform="translate(-207.817 -226.7)" fill="#99d8aa"/>
      <path id="Trazado_878677" data-name="Trazado 878677" d="M351.753,337.654l-3.767-1.882a1.053,1.053,0,0,1,0-1.884,2.513,2.513,0,0,1,2.242,0l1.523.763a1.7,1.7,0,1,0,1.522-3.048l-1.522-.761a5.84,5.84,0,0,0-.941-.341V328.02h-3.4V330.5a5.793,5.793,0,0,0-.94.341,4.457,4.457,0,0,0,0,7.975l3.766,1.882a1.053,1.053,0,0,1,0,1.884,2.511,2.511,0,0,1-2.241,0l-1.524-.763a1.7,1.7,0,1,0-1.522,3.048l1.522.761a5.84,5.84,0,0,0,.941.341v2.481h3.406v-2.484a5.83,5.83,0,0,0,.94-.341,4.458,4.458,0,0,0,0-7.976Zm0,0" transform="translate(-270.78 -258.186)" fill="#85bc94"/>
      <path id="Trazado_878678" data-name="Trazado 878678" d="M136.654,49.411v-.046a1.711,1.711,0,0,0-.273-.625c-.008-.012-.023-.018-.032-.031s-.008-.023-.017-.034c-.039-.051-.1-.073-.145-.117a1.7,1.7,0,0,0-.39-.317,1.736,1.736,0,0,0-.237-.09,1.646,1.646,0,0,0-.446-.1c-.045,0-.082-.029-.126-.029h-6.811a1.7,1.7,0,1,0,0,3.406h1.446L105.892,68.177,89.774,60.118a1.7,1.7,0,0,0-1.893.25L72.556,73.99a1.707,1.707,0,0,0,2.265,2.554L89.283,63.685l16.006,8a1.7,1.7,0,0,0,1.744-.133l25.2-17.789-.59,2.362a1.7,1.7,0,0,0,1.238,2.065,1.655,1.655,0,0,0,.4.042,1.7,1.7,0,0,0,1.65-1.289l1.7-6.811v-.06A1.726,1.726,0,0,0,136.654,49.411Zm0,0" transform="translate(-56.66 -37.783)" fill="#6b9777"/>
      <path id="Trazado_878679" data-name="Trazado 878679" d="M313.7,148.967a1.7,1.7,0,0,1-1.7-1.7V121.722a1.7,1.7,0,1,1,3.406,0v25.542A1.7,1.7,0,0,1,313.7,148.967Zm0,0" transform="translate(-245.591 -94.458)" fill="#277baa"/>
      <path id="Trazado_878680" data-name="Trazado 878680" d="M73.7,211.939a1.7,1.7,0,0,1-1.7-1.7v-8.514a1.7,1.7,0,1,1,3.406,0v8.514A1.7,1.7,0,0,1,73.7,211.939Zm0,0" transform="translate(-56.675 -157.43)" fill="#4799cf"/>
      <path id="Trazado_878681" data-name="Trazado 878681" d="M121.7,186.75a1.7,1.7,0,0,1-1.7-1.7V169.722a1.7,1.7,0,0,1,3.406,0v15.325A1.7,1.7,0,0,1,121.7,186.75Zm0,0" transform="translate(-94.458 -132.242)" fill="#277baa"/>
      <path id="Trazado_878682" data-name="Trazado 878682" d="M217.7,186.75a1.7,1.7,0,0,1-1.7-1.7V169.722a1.7,1.7,0,0,1,3.406,0v15.325A1.7,1.7,0,0,1,217.7,186.75Zm0,0" transform="translate(-170.025 -132.242)" fill="#277baa"/>
      <path id="Trazado_878683" data-name="Trazado 878683" d="M265.7,174.156a1.7,1.7,0,0,1-1.7-1.7V153.722a1.7,1.7,0,1,1,3.406,0v18.731A1.7,1.7,0,0,1,265.7,174.156Zm0,0" transform="translate(-207.808 -119.647)" fill="#4799cf"/>
      <path id="Trazado_878684" data-name="Trazado 878684" d="M169.7,174.156a1.7,1.7,0,0,1-1.7-1.7V153.722a1.7,1.7,0,0,1,3.406,0v18.731A1.7,1.7,0,0,1,169.7,174.156Zm0,0" transform="translate(-132.242 -119.647)" fill="#4799cf"/>
      <path id="Trazado_878685" data-name="Trazado 878685" d="M43.406,46.831H40V41.722a1.7,1.7,0,0,1,1.7-1.7h5.108v3.406H43.406Zm0,0" transform="translate(-31.486 -31.486)" fill="#75caf9"/>
      <path id="Trazado_878686" data-name="Trazado 878686" d="M40,88.02h3.406v3.406H40Zm0,0" transform="translate(-31.486 -69.269)" fill="#75caf9"/>
      <path id="Trazado_878687" data-name="Trazado 878687" d="M88,40.02h3.406v3.406H88Zm0,0" transform="translate(-69.269 -31.486)" fill="#75caf9"/>
      <path id="Trazado_878688" data-name="Trazado 878688" d="M120,40.02h3.406v3.406H120Zm0,0" transform="translate(-94.458 -31.486)" fill="#75caf9"/>
      <path id="Trazado_878689" data-name="Trazado 878689" d="M48,352.02H59.919v3.406H48Zm0,0" transform="translate(-37.783 -277.078)" fill="#ebebeb"/>
      <path id="Trazado_878690" data-name="Trazado 878690" d="M120,352.02h3.406v3.406H120Zm0,0" transform="translate(-94.458 -277.078)" fill="#ebebeb"/>
      <path id="Trazado_878691" data-name="Trazado 878691" d="M360,208.02h3.406v3.406H360Zm0,0" transform="translate(-283.375 -163.728)" fill="#f7ba61"/>
      <path id="Trazado_878692" data-name="Trazado 878692" d="M360,176.02h3.406v3.406H360Zm0,0" transform="translate(-283.375 -138.539)" fill="#f7ba61"/>
      <path id="Trazado_878693" data-name="Trazado 878693" d="M360,144.02h3.406v3.406H360Zm0,0" transform="translate(-283.375 -113.35)" fill="#f7ba61"/>
      <path id="Trazado_878694" data-name="Trazado 878694" d="M360,112.02h3.406v3.406H360Zm0,0" transform="translate(-283.375 -88.161)" fill="#f7ba61"/>
      <path id="Trazado_878695" data-name="Trazado 878695" d="M111,243.425H49.7a1.7,1.7,0,0,1,0-3.406H111a1.7,1.7,0,0,1,0,3.406Zm0,0" transform="translate(-37.783 -188.916)" fill="#277baa"/>
      <path id="Trazado_878696" data-name="Trazado 878696" d="M353.645,245.979l-2.834,4.257h-3.406l-2.834-4.257A3.406,3.406,0,0,1,344,244.1V240.02l5.108,1.7,5.108-1.7V244.1A3.406,3.406,0,0,1,353.645,245.979Zm0,0" transform="translate(-270.78 -188.916)" fill="#99d8aa"/>
      <path id="Trazado_878697" data-name="Trazado 878697" d="M353.7,258.314a1.7,1.7,0,0,1,0-3.406,19.217,19.217,0,0,0,6.1-.989l2.416-.806a18.8,18.8,0,0,0,7.31-4.517A1.7,1.7,0,0,1,371.935,251a22.2,22.2,0,0,1-8.64,5.339l-2.416.806A22.633,22.633,0,0,1,353.7,258.314Zm0,0" transform="translate(-277.078 -195.291)" fill="#85bc94"/>
      <path id="Trazado_878698" data-name="Trazado 878698" d="M176,280.02h27.245v40.867H176Zm0,0" transform="translate(-138.539 -220.403)" fill="#ffc5c3"/>
      <path id="Trazado_878699" data-name="Trazado 878699" d="M200,312.02h17.028v6.811H200Zm0,0" transform="translate(-157.43 -245.591)" fill="#c0f5f9"/>
      <g id="Grupo_1100941" data-name="Grupo 1100941" transform="translate(42.57 78.348)">
        <path id="Trazado_878700" data-name="Trazado 878700" d="M200,368.02h3.406v3.406H200Zm0,0" transform="translate(-200 -368.02)" fill="#eea5a9"/>
        <path id="Trazado_878701" data-name="Trazado 878701" d="M232,368.02h3.406v3.406H232Zm0,0" transform="translate(-225.189 -368.02)" fill="#eea5a9"/>
        <path id="Trazado_878702" data-name="Trazado 878702" d="M264,368.02h3.406v3.406H264Zm0,0" transform="translate(-250.378 -368.02)" fill="#eea5a9"/>
        <path id="Trazado_878703" data-name="Trazado 878703" d="M200,400.02h3.406v3.406H200Zm0,0" transform="translate(-200 -393.208)" fill="#eea5a9"/>
        <path id="Trazado_878704" data-name="Trazado 878704" d="M232,400.02h3.406v3.406H232Zm0,0" transform="translate(-225.189 -393.208)" fill="#eea5a9"/>
        <path id="Trazado_878705" data-name="Trazado 878705" d="M264,400.02h3.406v3.406H264Zm0,0" transform="translate(-250.378 -393.208)" fill="#eea5a9"/>
        <path id="Trazado_878706" data-name="Trazado 878706" d="M200,432.02h3.406v3.406H200Zm0,0" transform="translate(-200 -418.397)" fill="#eea5a9"/>
        <path id="Trazado_878707" data-name="Trazado 878707" d="M232,432.02h3.406v3.406H232Zm0,0" transform="translate(-225.189 -418.397)" fill="#eea5a9"/>
        <path id="Trazado_878708" data-name="Trazado 878708" d="M264,432.02h3.406v3.406H264Zm0,0" transform="translate(-250.378 -418.397)" fill="#eea5a9"/>
      </g>
      <path id="Trazado_878709" data-name="Trazado 878709" d="M201.7,314.236h15.325a1.7,1.7,0,0,0,1.7-1.7v-6.811a1.7,1.7,0,0,0-1.7-1.7H201.7a1.7,1.7,0,0,0-1.7,1.7v6.811A1.7,1.7,0,0,0,201.7,314.236Zm1.7-6.811h11.919v3.406H203.406Zm0,0" transform="translate(-157.43 -239.294)"/>
      <path id="Trazado_878710" data-name="Trazado 878710" d="M200,368.02h3.406v3.406H200Zm0,0" transform="translate(-157.43 -289.672)"/>
      <path id="Trazado_878711" data-name="Trazado 878711" d="M232,368.02h3.406v3.406H232Zm0,0" transform="translate(-182.619 -289.672)"/>
      <path id="Trazado_878712" data-name="Trazado 878712" d="M264,368.02h3.406v3.406H264Zm0,0" transform="translate(-207.808 -289.672)"/>
      <path id="Trazado_878713" data-name="Trazado 878713" d="M200,400.02h3.406v3.406H200Zm0,0" transform="translate(-157.43 -314.861)"/>
      <path id="Trazado_878714" data-name="Trazado 878714" d="M232,400.02h3.406v3.406H232Zm0,0" transform="translate(-182.619 -314.861)"/>
      <path id="Trazado_878715" data-name="Trazado 878715" d="M264,400.02h3.406v3.406H264Zm0,0" transform="translate(-207.808 -314.861)"/>
      <path id="Trazado_878716" data-name="Trazado 878716" d="M200,432.02h3.406v3.406H200Zm0,0" transform="translate(-157.43 -340.05)"/>
      <path id="Trazado_878717" data-name="Trazado 878717" d="M232,432.02h3.406v3.406H232Zm0,0" transform="translate(-182.619 -340.05)"/>
      <path id="Trazado_878718" data-name="Trazado 878718" d="M264,432.02h3.406v3.406H264Zm0,0" transform="translate(-207.808 -340.05)"/>
      <path id="Trazado_878719" data-name="Trazado 878719" d="M8.514,85.159H35.758V91.97H30.65a5.108,5.108,0,1,0,0,10.217H97.059a5.108,5.108,0,0,0,4.868-6.681,5.214,5.214,0,0,0-4.868-3.535V84.449a8.5,8.5,0,0,0,5.108-7.8V8.533A8.524,8.524,0,0,0,93.653.02H8.514A8.524,8.524,0,0,0,0,8.533V76.645A8.524,8.524,0,0,0,8.514,85.159ZM35.758,98.781H30.65a1.7,1.7,0,0,1,0-3.406h5.108ZM63,66V98.781H39.164V61.32H63ZM98.671,96.5a1.734,1.734,0,0,1-.241,1.583,1.686,1.686,0,0,1-1.371.693H66.409V66.624a11.92,11.92,0,0,1,8.514-3.6h6.811A11.933,11.933,0,0,1,93.653,74.942v7.966a1.652,1.652,0,0,0,0,.738V92.16a3.224,3.224,0,0,0,3.223,3.215A1.833,1.833,0,0,1,98.671,96.5ZM74.923,55.19V53.465l2.868.957a1.713,1.713,0,0,0,1.076,0l2.868-.957V55.19a1.7,1.7,0,0,1-.286.944L79.12,59.617H77.537l-2.328-3.492A1.7,1.7,0,0,1,74.923,55.19ZM98.761,76.645a5.1,5.1,0,0,1-1.7,3.805V74.942a15.292,15.292,0,0,0-.395-3.406h2.1ZM3.406,8.533A5.109,5.109,0,0,1,8.514,3.425H93.653a5.109,5.109,0,0,1,5.108,5.108v59.6H95.441a15.392,15.392,0,0,0-8.217-7.48,22.2,22.2,0,0,0,7.633-4.938A1.7,1.7,0,0,0,92.449,53.3a18.8,18.8,0,0,1-7.31,4.517l-.938.313.08-.121a5.093,5.093,0,0,0,.858-2.825V51.1A1.7,1.7,0,0,0,82.9,49.487l-4.57,1.533-4.57-1.533A1.7,1.7,0,0,0,71.517,51.1h-1.7V27.264a1.7,1.7,0,1,0-3.406,0V51.1H59.6V34.075a1.7,1.7,0,0,0-3.406,0V51.1H49.381V37.481a1.7,1.7,0,0,0-3.406,0V51.1H39.164V34.075a1.7,1.7,0,0,0-3.406,0V51.1H28.947V37.481a1.7,1.7,0,0,0-3.406,0V51.1H18.731V44.292a1.7,1.7,0,1,0-3.406,0V51.1H11.919a1.7,1.7,0,1,0,0,3.406h59.6v.681a5.089,5.089,0,0,0,.851,2.834L73.487,59.7a15.318,15.318,0,0,0-7.079,2.523V59.617a1.7,1.7,0,0,0-1.7-1.7H37.461a1.7,1.7,0,0,0-1.7,1.7v8.514H3.406Zm0,63H35.758V81.753H8.514a5.109,5.109,0,0,1-5.108-5.108Zm0,0"/>
      <path id="Trazado_878720" data-name="Trazado 878720" d="M73.694,76.967a1.7,1.7,0,0,0,1.132-.429L89.289,63.685l16.006,8a1.7,1.7,0,0,0,1.744-.133l25.2-17.789-.59,2.362a1.7,1.7,0,0,0,1.238,2.065,1.655,1.655,0,0,0,.4.042,1.7,1.7,0,0,0,1.65-1.289l1.7-6.811v-.06a1.726,1.726,0,0,0,.012-.666v-.046a1.711,1.711,0,0,0-.273-.625c-.008-.012-.024-.018-.032-.031s-.008-.023-.017-.034c-.039-.051-.1-.073-.145-.117a1.7,1.7,0,0,0-.39-.317,1.778,1.778,0,0,0-.237-.09,1.644,1.644,0,0,0-.446-.1c-.041,0-.078-.029-.122-.029h-6.811a1.7,1.7,0,1,0,0,3.406h1.446L105.9,68.177,89.78,60.118a1.7,1.7,0,0,0-1.893.25L72.562,73.99a1.7,1.7,0,0,0,1.132,2.977Zm0,0" transform="translate(-56.667 -37.783)"/>
      <path id="Trazado_878721" data-name="Trazado 878721" d="M43.406,43.425h3.406V40.02H41.7a1.7,1.7,0,0,0-1.7,1.7v5.108h3.406Zm0,0" transform="translate(-31.486 -31.486)"/>
      <path id="Trazado_878722" data-name="Trazado 878722" d="M40,88.02h3.406v3.406H40Zm0,0" transform="translate(-31.486 -69.269)"/>
      <path id="Trazado_878723" data-name="Trazado 878723" d="M88,40.02h3.406v3.406H88Zm0,0" transform="translate(-69.269 -31.486)"/>
      <path id="Trazado_878724" data-name="Trazado 878724" d="M120,40.02h3.406v3.406H120Zm0,0" transform="translate(-94.458 -31.486)"/>
      <path id="Trazado_878725" data-name="Trazado 878725" d="M48,352.02H59.919v3.406H48Zm0,0" transform="translate(-37.783 -277.078)"/>
      <path id="Trazado_878726" data-name="Trazado 878726" d="M120,352.02h3.406v3.406H120Zm0,0" transform="translate(-94.458 -277.078)"/>
      <path id="Trazado_878727" data-name="Trazado 878727" d="M360,208.02h3.406v3.406H360Zm0,0" transform="translate(-283.375 -163.728)"/>
      <path id="Trazado_878728" data-name="Trazado 878728" d="M360,176.02h3.406v3.406H360Zm0,0" transform="translate(-283.375 -138.539)"/>
      <path id="Trazado_878729" data-name="Trazado 878729" d="M360,144.02h3.406v3.406H360Zm0,0" transform="translate(-283.375 -113.35)"/>
      <path id="Trazado_878730" data-name="Trazado 878730" d="M360,112.02h3.406v3.406H360Zm0,0" transform="translate(-283.375 -88.161)"/>
      <path id="Trazado_878731" data-name="Trazado 878731" d="M351.753,337.654l-3.767-1.882a1.053,1.053,0,0,1,0-1.884,2.513,2.513,0,0,1,2.242,0l1.523.763a1.7,1.7,0,1,0,1.522-3.048l-1.522-.761a5.84,5.84,0,0,0-.941-.341V328.02h-3.4V330.5a5.793,5.793,0,0,0-.94.341,4.457,4.457,0,0,0,0,7.975l3.766,1.882a1.053,1.053,0,0,1,0,1.884,2.511,2.511,0,0,1-2.241,0l-1.524-.763a1.7,1.7,0,1,0-1.522,3.048l1.522.761a5.84,5.84,0,0,0,.941.341v2.481h3.406v-2.484a5.83,5.83,0,0,0,.94-.341,4.458,4.458,0,0,0,0-7.976Zm0,0" transform="translate(-270.78 -258.186)"/>
    </g>
  </g>
</svg>
