<svg xmlns="http://www.w3.org/2000/svg" width="103.429" height="84.947" viewBox="0 0 103.429 84.947">
  <g id="Grupo_1100084" data-name="Grupo 1100084" transform="translate(0 0)">
    <g id="Grupo_1100031" data-name="Grupo 1100031" transform="translate(0)">
      <path id="_12068" data-name="12068" d="M80.679,72.036c-9.737-1.345-20.023-1.016-28.883,3.24-12.288,5.9-20.358,19.283-20.667,32.911s6.79,27.019,17.758,35.114,25.432,10.964,38.845,8.534c13.525-2.451,26.22-10.4,33.274-22.194,4.524-7.564,6.638-16.905,4.139-25.358a34.642,34.642,0,0,0-8.221-13.513A60.743,60.743,0,0,0,80.679,72.036Z" transform="translate(-27.626 -67.724)" fill="#7d6eb2"/>
      <g id="Grupo_1099025" data-name="Grupo 1099025" transform="translate(0 75.838) rotate(-90)">
        <path id="Trazado_873104" data-name="Trazado 873104" d="M.44,1.927A1.116,1.116,0,0,0,1.9,1.762,1.116,1.116,0,0,0,1.836.3,1.116,1.116,0,0,0,.368.256,1.07,1.07,0,0,0,.44,1.927Z" transform="translate(14.579 87.471)" fill="#fff"/>
        <path id="Trazado_873105" data-name="Trazado 873105" d="M.44,1.927A1.116,1.116,0,0,0,1.9,1.763,1.116,1.116,0,0,0,1.836.3,1.116,1.116,0,0,0,.368.256,1.07,1.07,0,0,0,.44,1.927Z" transform="translate(35.875 92.048)" fill="#ffd947"/>
        <path id="Trazado_873106" data-name="Trazado 873106" d="M.44,1.927A1.116,1.116,0,0,0,1.9,1.763,1.116,1.116,0,0,0,1.836.3,1.117,1.117,0,0,0,.368.256,1.07,1.07,0,0,0,.44,1.927Z" transform="translate(73.694)" fill="#7d6eb2"/>
        <path id="Trazado_873109" data-name="Trazado 873109" d="M1.449,4.5A2.434,2.434,0,0,0,4.464,3.306,2.435,2.435,0,0,0,3.412.24,2.435,2.435,0,0,0,.3,1.151,2.36,2.36,0,0,0,1.449,4.5Z" transform="translate(61.04 86.208)" fill="#7d6eb2"/>
        <path id="Trazado_873110" data-name="Trazado 873110" d="M1.449,4.5A2.434,2.434,0,0,0,4.464,3.306,2.435,2.435,0,0,0,3.412.241,2.434,2.434,0,0,0,.3,1.151,2.36,2.36,0,0,0,1.449,4.5Z" transform="translate(44.433 98.775)" fill="#ffd947"/>
        <path id="Trazado_873111" data-name="Trazado 873111" d="M1.449,4.5A2.434,2.434,0,0,0,4.463,3.306,2.434,2.434,0,0,0,3.412.241,2.434,2.434,0,0,0,.3,1.151,2.36,2.36,0,0,0,1.449,4.5Z" transform="translate(0 27.812)" fill="#ffd947"/>
        <path id="Trazado_873113" data-name="Trazado 873113" d="M1.449,4.5A2.435,2.435,0,0,0,4.464,3.306,2.435,2.435,0,0,0,3.412.24,2.435,2.435,0,0,0,.3,1.151,2.36,2.36,0,0,0,1.449,4.5Z" transform="translate(69.035 5.856)" fill="#ffd947"/>
        <circle id="Elipse_11485" data-name="Elipse 11485" cx="1.149" cy="1.149" r="1.149" transform="translate(5.274 93.025)" fill="none" stroke="#26aab7" stroke-linecap="round" stroke-linejoin="round" stroke-width="1.5"/>
      </g>
    </g>
    <g id="digital" transform="translate(19 17)">
      <path id="Trazado_876304" data-name="Trazado 876304" d="M54,40v4H48V40Z" transform="translate(-1 -1)" fill="#aab2bd"/>
      <path id="Trazado_876305" data-name="Trazado 876305" d="M62,36v2a2.006,2.006,0,0,1-2,2H42a2.006,2.006,0,0,1-2-2V36Z" transform="translate(-1 -1)" fill="#ccd1d9"/>
      <circle id="Elipse_11822" data-name="Elipse 11822" cx="9" cy="9" r="9" transform="translate(43 1)" fill="#69d6f4"/>
      <path id="Trazado_876306" data-name="Trazado 876306" d="M62,26V36H40V26a2.006,2.006,0,0,1,2-2H60A2.006,2.006,0,0,1,62,26Z" transform="translate(-1 -1)" fill="#69d6f4"/>
      <path id="Trazado_876307" data-name="Trazado 876307" d="M16,4V6H2V4A2.006,2.006,0,0,1,4,2H14A2.006,2.006,0,0,1,16,4Z" transform="translate(-1 -1)" fill="#aab2bd"/>
      <path id="Trazado_876308" data-name="Trazado 876308" d="M16,20v2a2.006,2.006,0,0,1-2,2H4a2.006,2.006,0,0,1-2-2V20Z" transform="translate(-1 -1)" fill="#aab2bd"/>
      <path id="Trazado_876309" data-name="Trazado 876309" d="M16,13v7H2V6H16Z" transform="translate(-1 -1)" fill="#b4dd7f"/>
      <path id="Trazado_876310" data-name="Trazado 876310" d="M12,28A10,10,0,1,1,2,38,10,10,0,0,1,12,28Z" transform="translate(-1 -1)" fill="#ffeaa7"/>
      <circle id="Elipse_11823" data-name="Elipse 11823" cx="2" cy="2" r="2" transform="translate(9 39)" fill="#ff826e"/>
      <path id="Trazado_876311" data-name="Trazado 876311" d="M34,42.2a10,10,0,1,1-4,0v4.15a6,6,0,1,0,4,0Z" transform="translate(-1 -1)" fill="#ff826e"/>
      <path id="Trazado_876312" data-name="Trazado 876312" d="M34,46.35V50a2,2,0,0,1-4,0V40a2.006,2.006,0,0,1,2-2,2.015,2.015,0,0,1,2,2v6.35Z" transform="translate(-1 -1)" fill="#fc6e51"/>
      <path id="Trazado_876313" data-name="Trazado 876313" d="M60,23H42a3,3,0,0,0-3,3V38a3,3,0,0,0,3,3h5v2H45v2h5v5a1,1,0,0,1-1,1H42.953A11.036,11.036,0,0,0,35,41.421V40a3,3,0,0,0-6,0v1.421A11.037,11.037,0,0,0,21.047,51H14a1,1,0,0,1-1-1V48.949a11,11,0,1,0-2,0V50a3,3,0,0,0,3,3h7.051a10.994,10.994,0,0,0,21.9,0H49a3,3,0,0,0,3-3V45h5V43H55V41h5a3,3,0,0,0,3-3V26A3,3,0,0,0,60,23ZM3,38a9,9,0,1,1,9,9A9.011,9.011,0,0,1,3,38ZM32,53a3,3,0,0,0,3-3V48.01a5,5,0,1,1-6,0V50A3,3,0,0,0,32,53ZM31,40a1,1,0,0,1,2,0V50a1,1,0,0,1-2,0Zm1,21a9,9,0,0,1-3-17.478V45.7a7,7,0,1,0,6,0V43.522A9,9,0,0,1,32,61ZM42,25H60a1,1,0,0,1,1,1v9H41V26A1,1,0,0,1,42,25ZM53,43H49V41h4Zm7-4H42a1,1,0,0,1-1-1V37H61v1A1,1,0,0,1,60,39Z" transform="translate(-1 -1)" fill="#00223d"/>
      <path id="Trazado_876314" data-name="Trazado 876314" d="M4,25H14a3,3,0,0,0,3-3V14H27a1,1,0,0,1,1,1V28h2V15a3,3,0,0,0-3-3H17V4a3,3,0,0,0-3-3H4A3,3,0,0,0,1,4V22A3,3,0,0,0,4,25Zm10-2H4a1,1,0,0,1-1-1V21H15v1A1,1,0,0,1,14,23ZM3,19V7H15V19ZM4,3H14a1,1,0,0,1,1,1V5H3V4A1,1,0,0,1,4,3Z" transform="translate(-1 -1)" fill="#00223d"/>
      <path id="Trazado_876315" data-name="Trazado 876315" d="M15,42a3,3,0,1,0-3,3A3,3,0,0,0,15,42Zm-4,0a1,1,0,1,1,1,1A1,1,0,0,1,11,42Z" transform="translate(-1 -1)"/>
      <path id="Trazado_876316" data-name="Trazado 876316" d="M15.536,38.464,16.95,37.05a7.008,7.008,0,0,0-9.9,0l1.414,1.414A5.006,5.006,0,0,1,15.536,38.464Z" transform="translate(-1 -1)"/>
      <path id="Trazado_876317" data-name="Trazado 876317" d="M18.364,35.636l1.414-1.414a11.013,11.013,0,0,0-15.557,0l1.414,1.414A9.012,9.012,0,0,1,18.364,35.636Z" transform="translate(-1 -1)"/>
      <path id="Trazado_876318" data-name="Trazado 876318" d="M28,34h2v2H28Z" transform="translate(-1 -1)" fill="#00223d"/>
      <path id="Trazado_876319" data-name="Trazado 876319" d="M28,30h2v2H28Z" transform="translate(-1 -1)" fill="#00223d"/>
      <path id="Trazado_876320" data-name="Trazado 876320" d="M34,34h2v2H34Z" transform="translate(-1 -1)" fill="#00223d"/>
      <path id="Trazado_876321" data-name="Trazado 876321" d="M34,30h2v2H34Z" transform="translate(-1 -1)" fill="#00223d"/>
      <path id="Trazado_876322" data-name="Trazado 876322" d="M36,13a1,1,0,0,1,1-1h6.051a10,10,0,1,0,0-2H37a3,3,0,0,0-3,3V28h2ZM53,3c.313,0,.983,1.023,1.462,3H51.538C52.017,4.023,52.687,3,53,3Zm1.819,5c.077.614.134,1.277.161,2H51.018c.027-.723.085-1.386.161-2ZM53,19c-.313,0-.983-1.023-1.462-3h2.924c-.479,1.977-1.149,3-1.462,3Zm-1.819-5c-.077-.614-.134-1.277-.161-2h3.962c-.027.723-.085,1.386-.161,2Zm5.8-2h3.95a7.923,7.923,0,0,1-.52,2H56.832C56.906,13.343,56.957,12.673,56.981,12Zm3.95-2h-3.95c-.024-.673-.075-1.343-.149-2h3.579A7.965,7.965,0,0,1,60.931,10ZM49.019,10h-3.95a7.923,7.923,0,0,1,.52-2h3.579C49.094,8.657,49.043,9.327,49.019,10Zm0,2c.024.673.075,1.343.149,2H45.589a7.965,7.965,0,0,1-.52-2Zm-2.254,4h2.719a13.332,13.332,0,0,0,.752,2.5A8.028,8.028,0,0,1,46.765,16Zm9,2.5a13.332,13.332,0,0,0,.752-2.5h2.719A8.028,8.028,0,0,1,55.764,18.5ZM59.235,6H56.516a13.332,13.332,0,0,0-.752-2.5A8.028,8.028,0,0,1,59.235,6Zm-9-2.5A13.407,13.407,0,0,0,49.484,6H46.765A8.028,8.028,0,0,1,50.236,3.5Z" transform="translate(-1 -1)" fill="#00223d"/>
    </g>
  </g>
</svg>
