<svg xmlns="http://www.w3.org/2000/svg" width="67" height="59.184" viewBox="0 0 67 59.184">
  <g id="Grupo_1101897" data-name="Grupo 1101897" transform="translate(-180 -14245.289)">
    <g id="Grupo_1101278" data-name="Grupo 1101278" transform="translate(0 10495.138)">
      <path id="_12068" data-name="12068" d="M66.039,71.828c-6.861-.947-14.108-.716-20.351,2.283C37.03,78.27,31.344,87.7,31.126,97.3s4.784,19.038,12.512,24.741a35.81,35.81,0,0,0,27.37,6.013c9.53-1.727,18.474-7.326,23.445-15.638,3.187-5.33,4.677-11.911,2.916-17.867a24.409,24.409,0,0,0-5.793-9.521A42.8,42.8,0,0,0,66.039,71.828Z" transform="translate(148.881 3680.691)" fill="#26aab7"/>
      <path id="Trazado_873155" data-name="Trazado 873155" d="M303.26,44.546a1.582,1.582,0,1,0-.106-2.456A1.573,1.573,0,0,0,303.26,44.546Z" transform="translate(138.287 4055.916) rotate(-90)" fill="#7d6eb2"/>
      <path id="Trazado_873156" data-name="Trazado 873156" d="M321.56,66.974a3.448,3.448,0,1,0-1.687-4.918A3.468,3.468,0,0,0,321.56,66.974Z" transform="translate(128.241 4079.581) rotate(-90)" fill="#ffd947"/>
      <circle id="Elipse_11521" data-name="Elipse 11521" cx="3.689" cy="3.689" r="3.689" transform="translate(237.702 3796.368) rotate(-90)" fill="none" stroke="#fff" stroke-linecap="round" stroke-linejoin="round" stroke-width="1.5"/>
    </g>
    <g id="prueba" transform="translate(183.176 14218.873)">
      <g id="Grupo_1101282" data-name="Grupo 1101282" transform="translate(0.842 31.47)">
        <path id="Trazado_879305" data-name="Trazado 879305" d="M274.265,44.292V70.436l-14.348,1.456-12.444-1.456-1.079-11.3,1.079-16.256,24.326.171C272.73,43.051,274.265,43.806,274.265,44.292Z" transform="translate(-219.558 -42.345)" fill="#fe93d3"/>
        <path id="Trazado_879306" data-name="Trazado 879306" d="M267.748,288.19v16.837c0,1.375-1.668,3.691-2.6,3.691l-1.02.332H240.957l-1.9-9.694,1.9-11.167Z" transform="translate(-213.042 -260.098)" fill="#66c6a6"/>
        <path id="Trazado_879307" data-name="Trazado 879307" d="M35.415,278.638V299.5H9.185A1.686,1.686,0,0,1,7.5,297.813V278.638l16.686-1.209Z" transform="translate(-7.5 -250.546)" fill="#ffef57"/>
        <path id="Trazado_879308" data-name="Trazado 879308" d="M35.415,41.5V69.052H7.5V48.188l1.123-5.183a1.685,1.685,0,0,1,1.685-1.685Z" transform="translate(-7.5 -40.96)" fill="#b2e5fb"/>
        <path id="Trazado_879309" data-name="Trazado 879309" d="M62.887,40.206v4.767l-2.992.358-52.4.011V39.8a1.685,1.685,0,0,1,1.685-1.685h49.1l2.624.117A2.222,2.222,0,0,1,62.887,40.206Z" transform="translate(-7.5 -38.114)" fill="#756e78"/>
        <g id="Grupo_1101279" data-name="Grupo 1101279" transform="translate(47.23 0)">
          <path id="Trazado_879310" data-name="Trazado 879310" d="M458.21,94.673v20.875l-2.929.948-2.929-.948V94.673l3.511-.973Z" transform="translate(-449.61 -87.456)" fill="#fe73c5"/>
          <path id="Trazado_879311" data-name="Trazado 879311" d="M440.584,288.19v19.175c0,.93-1.288,1.685-2.874,1.685H432.5l.607-.211c1.006-.348,1.623-.983,1.623-1.668V288.19Z" transform="translate(-431.984 -260.098)" fill="#50b29f"/>
          <path id="Trazado_879312" data-name="Trazado 879312" d="M436.544,39.8v5.532h-5.859V40.3c0-.811-.759-1.556-1.976-1.942l-.765-.242h5.725c1.587,0,2.874.754,2.874,1.685Z" transform="translate(-427.944 -38.114)" fill="#655f66"/>
        </g>
        <path id="Trazado_879313" data-name="Trazado 879313" d="M134.367,138.427a7.114,7.114,0,0,1-.958,3.579l-2.2-.343-1.455-1.764a2.942,2.942,0,0,0-2.548-4.414l-.533-1.663.533-2.552A7.158,7.158,0,0,1,134.367,138.427Z" transform="translate(-113.289 -120.805)" fill="#ffef57"/>
        <path id="Trazado_879314" data-name="Trazado 879314" d="M74.867,131.27v4.215a2.942,2.942,0,0,0-2.549,4.414l-1.187,2.107H68.668a7.158,7.158,0,0,1,6.2-10.736Z" transform="translate(-60.946 -120.805)" fill="#fe93d3"/>
        <path id="Trazado_879315" data-name="Trazado 879315" d="M88.637,210.187a7.158,7.158,0,0,1-12.4,0l3.65-2.107a2.942,2.942,0,0,0,5.1,0Z" transform="translate(-68.518 -188.987)" fill="#7ec8ed"/>
        <g id="Grupo_1101280" data-name="Grupo 1101280" transform="translate(33.288 10.465)">
          <path id="Trazado_879316" data-name="Trazado 879316" d="M308.113,219.832h-4.058a.225.225,0,0,1-.225-.225v-4.468a.225.225,0,0,1,.225-.225h4.058l1.191,2.459Z" transform="translate(-303.83 -205.518)" fill="#f9db48"/>
          <path id="Trazado_879317" data-name="Trazado 879317" d="M346.24,195.578h-4.283v-7.762a.225.225,0,0,1,.225-.225h4.058l1.095,4.827Z" transform="translate(-337.674 -181.265)" fill="#f2c853"/>
          <path id="Trazado_879318" data-name="Trazado 879318" d="M384.368,170.582h-4.283V159.657a.225.225,0,0,1,.225-.225h4.058l1,6.936Z" transform="translate(-371.519 -156.269)" fill="#f9db48"/>
          <path id="Trazado_879319" data-name="Trazado 879319" d="M422.27,145.587h-4.058V131.5a.225.225,0,0,1,.225-.225h3.834a.225.225,0,0,1,.225.225v13.864A.225.225,0,0,1,422.27,145.587Z" transform="translate(-405.363 -131.274)" fill="#ffef57"/>
        </g>
        <g id="Grupo_1101281" data-name="Grupo 1101281" transform="translate(4.546 34.315)">
          <circle id="Elipse_11932" data-name="Elipse 11932" cx="1.73" cy="1.73" r="1.73" fill="#fe93d3"/>
          <circle id="Elipse_11933" data-name="Elipse 11933" cx="1.73" cy="1.73" r="1.73" transform="translate(4.944 4.944)" fill="#fe93d3"/>
          <circle id="Elipse_11934" data-name="Elipse 11934" cx="1.73" cy="1.73" r="1.73" transform="translate(9.887)" fill="#fe93d3"/>
          <circle id="Elipse_11935" data-name="Elipse 11935" cx="1.73" cy="1.73" r="1.73" transform="translate(15.289 4.944)" fill="#fe93d3"/>
        </g>
        <path id="Trazado_879320" data-name="Trazado 879320" d="M306.877,333.79l.747,1.792-.747,1.792H304a1.792,1.792,0,1,1,0-3.585Z" transform="translate(-269.104 -300.576)" fill="#40a089"/>
        <path id="Trazado_879321" data-name="Trazado 879321" d="M356.406,335.582a1.791,1.791,0,0,1-1.793,1.793H343.76V333.79h10.854a1.792,1.792,0,0,1,1.793,1.792Z" transform="translate(-305.987 -300.576)" fill="#f5f8f9"/>
        <path id="Trazado_879322" data-name="Trazado 879322" d="M314.969,398.38l.826,1.793-.826,1.793H304a1.793,1.793,0,0,1,0-3.586Z" transform="translate(-269.104 -357.91)" fill="#40a089"/>
        <path id="Trazado_879323" data-name="Trazado 879323" d="M420.345,400.173a1.793,1.793,0,0,1-1.793,1.793H415.79V398.38h2.762A1.793,1.793,0,0,1,420.345,400.173Z" transform="translate(-369.925 -357.91)" fill="#f5f8f9"/>
      </g>
      <g id="Grupo_1101284" data-name="Grupo 1101284" transform="translate(0 30.629)">
        <path id="Trazado_879324" data-name="Trazado 879324" d="M54.84,30.629H28.069a.842.842,0,1,0,0,1.685H54.84a.991.991,0,0,1,.99.99v4.475H1.685V33.3a.991.991,0,0,1,.99-.99H24.137a.843.843,0,0,0,0-1.685H2.675A2.678,2.678,0,0,0,0,33.3V78.588a2.678,2.678,0,0,0,2.675,2.675H18.889a.842.842,0,1,0,0-1.685H2.675a.991.991,0,0,1-.99-.99V60.4H5.153a.843.843,0,0,0,0-1.685H1.685V39.464h26.23V58.719H9.084a.843.843,0,0,0,0,1.685h18.83V79.577H22.821a.842.842,0,1,0,0,1.685H54.84a2.678,2.678,0,0,0,2.675-2.675V33.3A2.678,2.678,0,0,0,54.84,30.629Zm.99,47.958a.991.991,0,0,1-.99.99H29.6V60.4H55.83Zm0-19.868H29.6V39.464H55.83Z" transform="translate(0 -30.629)" fill="#00223d"/>
        <path id="Trazado_879325" data-name="Trazado 879325" d="M68.209,139.772a8,8,0,1,0-8-8A8.008,8.008,0,0,0,68.209,139.772Zm0-1.685a6.306,6.306,0,0,1-4.995-2.458l2.222-1.283a3.777,3.777,0,0,0,5.545,0L73.2,135.63A6.306,6.306,0,0,1,68.209,138.087Zm.843-12.57a6.31,6.31,0,0,1,5,8.655l-2.222-1.283a3.785,3.785,0,0,0-2.775-4.805Zm1.258,6.256a2.1,2.1,0,1,1-2.1-2.1A2.1,2.1,0,0,1,70.309,131.773Zm-8.414,0a6.322,6.322,0,0,1,5.472-6.256v2.567a3.785,3.785,0,0,0-2.775,4.805l-2.222,1.283A6.277,6.277,0,0,1,61.9,131.773Z" transform="translate(-53.446 -113.311)" fill="#00223d"/>
        <path id="Trazado_879326" data-name="Trazado 879326" d="M299.406,139.769h17.132a.842.842,0,0,0,.842-.842v-5.191a.842.842,0,0,0-1.685,0v4.348h-2.6V125.455h2.6V129.8a.842.842,0,1,0,1.685,0v-5.191a.842.842,0,0,0-.842-.843h-4.283a.842.842,0,0,0-.842.843v2.321h-3.44a.842.842,0,0,0-.842.842V130.1h-3.441a.842.842,0,0,0-.842.842v2.227h-3.44a.842.842,0,0,0-.842.842v4.918A.842.842,0,0,0,299.406,139.769Zm9.408-11.15h2.6v9.465h-2.6Zm-4.283,3.163h2.6v6.3h-2.6Zm-4.283,3.069h2.6v3.233h-2.6Z" transform="translate(-265.025 -113.307)" fill="#00223d"/>
        <path id="Trazado_879327" data-name="Trazado 879327" d="M61.24,343.6a2.571,2.571,0,0,0-3.987-2.148l-1.673-1.673a2.573,2.573,0,1,0-4.629,0l-1.507,1.507a2.569,2.569,0,0,0-2.246,0l-1.507-1.506a2.574,2.574,0,1,0-1.191,1.191l1.506,1.506a2.573,2.573,0,1,0,4.629,0l1.507-1.507a2.569,2.569,0,0,0,2.246,0l1.832,1.832a2.573,2.573,0,1,0,5.019.8Zm-17.861-4.056a.888.888,0,1,1,.888-.888A.889.889,0,0,1,43.379,339.547Zm4.944,4.944a.888.888,0,1,1,.888-.888A.889.889,0,0,1,48.322,344.49Zm4.944-4.944a.888.888,0,1,1,.888-.888A.889.889,0,0,1,53.266,339.547ZM57.78,343.6a.888.888,0,1,1,.888.888A.889.889,0,0,1,57.78,343.6Z" transform="translate(-36.222 -301.773)" fill="#00223d"/>
        <path id="Trazado_879328" data-name="Trazado 879328" d="M298.32,331.557h13.729a2.635,2.635,0,1,0,0-5.27H298.32a2.635,2.635,0,0,0,0,5.27Zm3.718-3.585h10.011a.95.95,0,0,1,0,1.9H302.038Zm-3.718,0h2.033v1.9H298.32a.95.95,0,0,1,0-1.9Z" transform="translate(-262.47 -293.075)" fill="#00223d"/>
        <path id="Trazado_879329" data-name="Trazado 879329" d="M298.32,396.153h13.729a2.635,2.635,0,1,0,0-5.27H298.32a2.635,2.635,0,0,0,0,5.27Zm11.808-3.585h1.92a.95.95,0,1,1,0,1.9h-1.92Zm-11.808,0h10.123v1.9H298.32a.95.95,0,0,1,0-1.9Z" transform="translate(-262.47 -350.414)" fill="#00223d"/>
        <g id="Grupo_1101283" data-name="Grupo 1101283" transform="translate(3.883 3.575)">
          <circle id="Elipse_11936" data-name="Elipse 11936" cx="0.842" cy="0.842" r="0.842" fill="#00223d"/>
          <circle id="Elipse_11937" data-name="Elipse 11937" cx="0.842" cy="0.842" r="0.842" transform="translate(3.833)" fill="#00223d"/>
          <circle id="Elipse_11938" data-name="Elipse 11938" cx="0.842" cy="0.842" r="0.842" transform="translate(7.666)" fill="#00223d"/>
        </g>
      </g>
    </g>
  </g>
</svg>
